<svg width="587.266666666" height="235.0" xmlns="http://www.w3.org/2000/svg" version="1.1">
<path d="M 0.0 0.0 L -587.266666666 0.0 L -587.266666666 -235.0 L 0.0 -235.0 L 0.0 0.0" stroke="BLACK" fill="none" stroke-width="2px" />
<path d="M -392.266666666 -80.0 L -402.266666666 -70.0 L -392.266666666 -60.0 L -382.266666666 -50.0 L -372.266666666 -60.0 L -362.266666666 -70.0 L -372.266666666 -80.0 L -382.266666666 -90.0 L -392.266666666 -80.0" stroke="#FFFF1F" fill="none" stroke-width="1px" />
<path d="M -332.266666666 -60.0 L -332.266666666 -50.0 L -322.266666666 -40.0 L -312.266666666 -30.0 L -302.266666666 -20.0 L -292.266666666 -20.0 L -282.266666666 -30.0 L -292.266666666 -40.0 L -282.266666666 -50.0 L -292.266666666 -60.0 L -282.266666666 -70.0 L -272.266666666 -60.0 L -262.266666666 -50.0 L -252.266666666 -60.0 L -242.266666666 -70.0 L -242.266666666 -80.0 L -242.266666666 -90.0 L -252.266666666 -100.0 L -262.266666666 -100.0 L -272.266666666 -110.0 L -282.266666666 -120.0 L -272.266666666 -130.0 L -262.266666666 -140.0 L -252.266666666 -150.0 L -252.266666666 -160.0 L -262.266666666 -170.0 L -272.266666666 -180.0 L -282.266666666 -180.0 L -292.266666666 -180.0 L -302.266666666 -180.0 L -312.266666666 -180.0 L -322.266666666 -170.0 L -322.266666666 -160.0 L -322.266666666 -150.0 L -312.266666666 -140.0 L -302.266666666 -130.0 L -292.266666666 -120.0 L -282.266666666 -110.0 L -292.266666666 -100.0 L -302.266666666 -90.0 L -302.266666666 -80.0 L -312.266666666 -70.0 L -322.266666666 -70.0 L -332.266666666 -60.0" stroke="#FFFF1F" fill="none" stroke-width="1px" />
<path d="M -222.266666666 -40.0 L -222.266666666 -30.0 L -212.266666666 -20.0 L -202.266666666 -10.0 L -192.266666666 -10.0 L -182.266666666 -10.0 L -172.266666666 -20.0 L -162.266666666 -10.0 L -152.266666666 0.0 L -142.266666666 0.0 L -132.266666666 -10.0 L -122.266666666 -20.0 L -122.266666666 -30.0 L -122.266666666 -40.0 L -112.266666666 -50.0 L -112.266666666 -60.0 L -112.266666666 -70.0 L -122.266666666 -80.0 L -122.266666666 -90.0 L -132.266666666 -100.0 L -142.266666666 -110.0 L -152.266666666 -110.0 L -162.266666666 -110.0 L -172.266666666 -100.0 L -182.266666666 -90.0 L -192.266666666 -90.0 L -202.266666666 -80.0 L -212.266666666 -70.0 L -212.266666666 -60.0 L -212.266666666 -50.0 L -222.266666666 -40.0" stroke="#FFFF1F" fill="none" stroke-width="1px" />
<path d="M -212.266666666 -190.0 L -212.266666666 -180.0 L -202.266666666 -170.0 L -192.266666666 -160.0 L -182.266666666 -150.0 L -172.266666666 -150.0 L -162.266666666 -160.0 L -152.266666666 -170.0 L -142.266666666 -180.0 L -142.266666666 -190.0 L -142.266666666 -200.0 L -152.266666666 -210.0 L -162.266666666 -220.0 L -172.266666666 -220.0 L -182.266666666 -220.0 L -192.266666666 -220.0 L -202.266666666 -210.0 L -212.266666666 -200.0 L -212.266666666 -190.0" stroke="#FFFF1F" fill="none" stroke-width="1px" />
<path d="M -132.266666666 -150.0 L -132.266666666 -140.0 L -122.266666666 -130.0 L -112.266666666 -130.0 L -102.266666666 -130.0 L -92.2666666663 -130.0 L -82.2666666663 -140.0 L -72.2666666663 -150.0 L -72.2666666663 -160.0 L -72.2666666663 -170.0 L -82.2666666663 -180.0 L -92.2666666663 -180.0 L -102.266666666 -190.0 L -112.266666666 -190.0 L -122.266666666 -180.0 L -132.266666666 -170.0 L -132.266666666 -160.0 L -132.266666666 -150.0" stroke="#FFFF1F" fill="none" stroke-width="1px" />
<path d="M -52.2666666663 -60.0 L -62.2666666663 -50.0 L -52.2666666663 -40.0 L -52.2666666663 -30.0 L -42.2666666663 -20.0 L -32.2666666663 -20.0 L -22.2666666663 -30.0 L -12.2666666663 -40.0 L -12.2666666663 -50.0 L -22.2666666663 -60.0 L -32.2666666663 -70.0 L -42.2666666663 -70.0 L -52.2666666663 -60.0" stroke="#FFFF1F" fill="none" stroke-width="1px" />
<path d="M -32.2666666663 -100.0 L -32.2666666663 -90.0 L -22.2666666663 -80.0 L -12.2666666663 -70.0 L -2.26666666633 -60.0 L -2.26666666633 -70.0 L -2.26666666633 -80.0 L -2.26666666633 -90.0 L -2.26666666633 -100.0 L -2.26666666633 -110.0 L -2.26666666633 -120.0 L -2.26666666633 -130.0 L -12.2666666663 -130.0 L -22.2666666663 -120.0 L -32.2666666663 -110.0 L -32.2666666663 -100.0" stroke="#FFFF1F" fill="none" stroke-width="1px" />
<path d="M 0.0 0.0 L -32.2666666663 -20.0" stroke="#0095FF" fill="none" stroke-width="2px" />
<path d="M -42.2666666663 -70.0 L -22.2666666663 -80.0" stroke="#0095FF" fill="none" stroke-width="2px" />
<path d="M -2.26666666633 -60.0 L -2.26666666633 -90.0" stroke="#0095FF" fill="none" stroke-width="2px" />
<path d="M -12.2666666663 -130.0 L -72.2666666663 -150.0" stroke="#0095FF" fill="none" stroke-width="2px" />
<path d="M -122.266666666 -130.0 L -142.266666666 -110.0" stroke="#0095FF" fill="none" stroke-width="2px" />
<path d="M -152.266666666 0.0 L -152.266666666 -40.0" stroke="#0095FF" fill="none" stroke-width="2px" />
<path d="M -202.266666666 -40.0 L -192.266666666 -70.0" stroke="#0095FF" fill="none" stroke-width="2px" />
<path d="M -182.266666666 -80.0 L -162.266666666 -90.0" stroke="#0095FF" fill="none" stroke-width="2px" />
<path d="M -152.266666666 -100.0 L -172.266666666 -150.0" stroke="#0095FF" fill="none" stroke-width="2px" />
<path d="M -172.266666666 -160.0 L -132.266666666 -160.0" stroke="#0095FF" fill="none" stroke-width="2px" />
<path d="M -82.2666666663 -180.0 L -102.266666666 -190.0" stroke="#0095FF" fill="none" stroke-width="2px" />
<path d="M -112.266666666 -190.0 L -142.266666666 -200.0" stroke="#0095FF" fill="none" stroke-width="2px" />
<path d="M -192.266666666 -220.0 L -272.266666666 -180.0" stroke="#0095FF" fill="none" stroke-width="2px" />
<path d="M -302.266666666 -20.0 L -302.266666666 -60.0" stroke="#0095FF" fill="none" stroke-width="2px" />
<path d="M -262.266666666 -50.0 L -262.266666666 -90.0" stroke="#0095FF" fill="none" stroke-width="2px" />
<path d="M -282.266666666 -90.0 L -262.266666666 -100.0" stroke="#0095FF" fill="none" stroke-width="2px" />
<path d="M -242.266666666 -90.0 L -262.266666666 -170.0" stroke="#0095FF" fill="none" stroke-width="2px" />
<path d="M -302.266666666 -170.0 L -382.266666666 -90.0" stroke="#0095FF" fill="none" stroke-width="2px" />
<path d="M -362.266666666 -70.0 L -382.266666666 -50.0" stroke="#0095FF" fill="none" stroke-width="2px" />
<path d="M -382.266666666 -50.0 L -142.266666666 -40.0" stroke="#0095FF" fill="none" stroke-width="2px" />
<path d="M -122.266666666 -40.0 L -32.2666666663 -30.0" stroke="#0095FF" fill="none" stroke-width="2px" />
<path d="M -32.2666666663 -20.0 L -42.2666666663 -20.0" stroke="#FF0000" fill="none" stroke-width="5px" />
<path d="M -42.2666666663 -20.0 L -42.2666666663 -30.0" stroke="#FF0000" fill="none" stroke-width="5px" />
<path d="M -42.2666666663 -30.0 L -52.2666666663 -30.0" stroke="#FF0000" fill="none" stroke-width="5px" />
<path d="M -52.2666666663 -30.0 L -52.2666666663 -40.0" stroke="#FF0000" fill="none" stroke-width="5px" />
<path d="M -52.2666666663 -40.0 L -42.2666666663 -40.0" stroke="#FF0000" fill="none" stroke-width="5px" />
<path d="M -42.2666666663 -40.0 L -32.2666666663 -40.0" stroke="#FF0000" fill="none" stroke-width="5px" />
<path d="M -32.2666666663 -40.0 L -22.2666666663 -40.0" stroke="#FF0000" fill="none" stroke-width="5px" />
<path d="M -22.2666666663 -40.0 L -12.2666666663 -40.0" stroke="#FF0000" fill="none" stroke-width="5px" />
<path d="M -12.2666666663 -40.0 L -12.2666666663 -50.0" stroke="#FF0000" fill="none" stroke-width="5px" />
<path d="M -12.2666666663 -50.0 L -22.2666666663 -50.0" stroke="#FF0000" fill="none" stroke-width="5px" />
<path d="M -22.2666666663 -50.0 L -32.2666666663 -50.0" stroke="#FF0000" fill="none" stroke-width="5px" />
<path d="M -32.2666666663 -50.0 L -42.2666666663 -50.0" stroke="#FF0000" fill="none" stroke-width="5px" />
<path d="M -42.2666666663 -50.0 L -52.2666666663 -50.0" stroke="#FF0000" fill="none" stroke-width="5px" />
<path d="M -52.2666666663 -50.0 L -62.2666666663 -50.0" stroke="#FF0000" fill="none" stroke-width="5px" />
<path d="M -62.2666666663 -50.0 L -52.2666666663 -60.0" stroke="#FF0000" fill="none" stroke-width="5px" />
<path d="M -52.2666666663 -60.0 L -42.2666666663 -60.0" stroke="#FF0000" fill="none" stroke-width="5px" />
<path d="M -42.2666666663 -60.0 L -32.2666666663 -60.0" stroke="#FF0000" fill="none" stroke-width="5px" />
<path d="M -32.2666666663 -60.0 L -22.2666666663 -60.0" stroke="#FF0000" fill="none" stroke-width="5px" />
<path d="M -22.2666666663 -60.0 L -32.2666666663 -70.0" stroke="#FF0000" fill="none" stroke-width="5px" />
<path d="M -32.2666666663 -70.0 L -42.2666666663 -70.0" stroke="#FF0000" fill="none" stroke-width="5px" />
<path d="M -22.2666666663 -80.0 L -12.2666666663 -80.0" stroke="#FF0000" fill="none" stroke-width="5px" />
<path d="M -12.2666666663 -80.0 L -2.26666666633 -80.0" stroke="#FF0000" fill="none" stroke-width="5px" />
<path d="M -2.26666666633 -80.0 L -2.26666666633 -70.0" stroke="#FF0000" fill="none" stroke-width="5px" />
<path d="M -2.26666666633 -70.0 L -12.2666666663 -70.0" stroke="#FF0000" fill="none" stroke-width="5px" />
<path d="M -12.2666666663 -70.0 L -2.26666666633 -60.0" stroke="#FF0000" fill="none" stroke-width="5px" />
<path d="M -2.26666666633 -90.0 L -12.2666666663 -90.0" stroke="#FF0000" fill="none" stroke-width="5px" />
<path d="M -12.2666666663 -90.0 L -22.2666666663 -90.0" stroke="#FF0000" fill="none" stroke-width="5px" />
<path d="M -22.2666666663 -90.0 L -32.2666666663 -90.0" stroke="#FF0000" fill="none" stroke-width="5px" />
<path d="M -32.2666666663 -90.0 L -32.2666666663 -100.0" stroke="#FF0000" fill="none" stroke-width="5px" />
<path d="M -32.2666666663 -100.0 L -22.2666666663 -100.0" stroke="#FF0000" fill="none" stroke-width="5px" />
<path d="M -22.2666666663 -100.0 L -12.2666666663 -100.0" stroke="#FF0000" fill="none" stroke-width="5px" />
<path d="M -12.2666666663 -100.0 L -2.26666666633 -100.0" stroke="#FF0000" fill="none" stroke-width="5px" />
<path d="M -2.26666666633 -100.0 L -2.26666666633 -110.0" stroke="#FF0000" fill="none" stroke-width="5px" />
<path d="M -2.26666666633 -110.0 L -12.2666666663 -110.0" stroke="#FF0000" fill="none" stroke-width="5px" />
<path d="M -12.2666666663 -110.0 L -22.2666666663 -110.0" stroke="#FF0000" fill="none" stroke-width="5px" />
<path d="M -22.2666666663 -110.0 L -32.2666666663 -110.0" stroke="#FF0000" fill="none" stroke-width="5px" />
<path d="M -32.2666666663 -110.0 L -22.2666666663 -120.0" stroke="#FF0000" fill="none" stroke-width="5px" />
<path d="M -22.2666666663 -120.0 L -12.2666666663 -120.0" stroke="#FF0000" fill="none" stroke-width="5px" />
<path d="M -12.2666666663 -120.0 L -2.26666666633 -120.0" stroke="#FF0000" fill="none" stroke-width="5px" />
<path d="M -2.26666666633 -120.0 L -2.26666666633 -130.0" stroke="#FF0000" fill="none" stroke-width="5px" />
<path d="M -2.26666666633 -130.0 L -12.2666666663 -130.0" stroke="#FF0000" fill="none" stroke-width="5px" />
<path d="M -72.2666666663 -150.0 L -82.2666666663 -150.0" stroke="#FF0000" fill="none" stroke-width="5px" />
<path d="M -82.2666666663 -150.0 L -92.2666666663 -150.0" stroke="#FF0000" fill="none" stroke-width="5px" />
<path d="M -92.2666666663 -150.0 L -102.266666666 -150.0" stroke="#FF0000" fill="none" stroke-width="5px" />
<path d="M -102.266666666 -150.0 L -112.266666666 -150.0" stroke="#FF0000" fill="none" stroke-width="5px" />
<path d="M -112.266666666 -150.0 L -122.266666666 -150.0" stroke="#FF0000" fill="none" stroke-width="5px" />
<path d="M -122.266666666 -150.0 L -132.266666666 -150.0" stroke="#FF0000" fill="none" stroke-width="5px" />
<path d="M -132.266666666 -150.0 L -132.266666666 -140.0" stroke="#FF0000" fill="none" stroke-width="5px" />
<path d="M -132.266666666 -140.0 L -122.266666666 -140.0" stroke="#FF0000" fill="none" stroke-width="5px" />
<path d="M -122.266666666 -140.0 L -112.266666666 -140.0" stroke="#FF0000" fill="none" stroke-width="5px" />
<path d="M -112.266666666 -140.0 L -102.266666666 -140.0" stroke="#FF0000" fill="none" stroke-width="5px" />
<path d="M -102.266666666 -140.0 L -92.2666666663 -140.0" stroke="#FF0000" fill="none" stroke-width="5px" />
<path d="M -92.2666666663 -140.0 L -82.2666666663 -140.0" stroke="#FF0000" fill="none" stroke-width="5px" />
<path d="M -82.2666666663 -140.0 L -92.2666666663 -130.0" stroke="#FF0000" fill="none" stroke-width="5px" />
<path d="M -92.2666666663 -130.0 L -102.266666666 -130.0" stroke="#FF0000" fill="none" stroke-width="5px" />
<path d="M -102.266666666 -130.0 L -112.266666666 -130.0" stroke="#FF0000" fill="none" stroke-width="5px" />
<path d="M -112.266666666 -130.0 L -122.266666666 -130.0" stroke="#FF0000" fill="none" stroke-width="5px" />
<path d="M -142.266666666 -110.0 L -152.266666666 -110.0" stroke="#FF0000" fill="none" stroke-width="5px" />
<path d="M -152.266666666 -110.0 L -162.266666666 -110.0" stroke="#FF0000" fill="none" stroke-width="5px" />
<path d="M -162.266666666 -110.0 L -162.266666666 -100.0" stroke="#FF0000" fill="none" stroke-width="5px" />
<path d="M -162.266666666 -100.0 L -172.266666666 -100.0" stroke="#FF0000" fill="none" stroke-width="5px" />
<path d="M -172.266666666 -100.0 L -172.266666666 -90.0" stroke="#FF0000" fill="none" stroke-width="5px" />
<path d="M -172.266666666 -90.0 L -182.266666666 -90.0" stroke="#FF0000" fill="none" stroke-width="5px" />
<path d="M -182.266666666 -90.0 L -192.266666666 -90.0" stroke="#FF0000" fill="none" stroke-width="5px" />
<path d="M -192.266666666 -90.0 L -192.266666666 -80.0" stroke="#FF0000" fill="none" stroke-width="5px" />
<path d="M -192.266666666 -80.0 L -202.266666666 -80.0" stroke="#FF0000" fill="none" stroke-width="5px" />
<path d="M -202.266666666 -80.0 L -202.266666666 -70.0" stroke="#FF0000" fill="none" stroke-width="5px" />
<path d="M -202.266666666 -70.0 L -212.266666666 -70.0" stroke="#FF0000" fill="none" stroke-width="5px" />
<path d="M -212.266666666 -70.0 L -212.266666666 -60.0" stroke="#FF0000" fill="none" stroke-width="5px" />
<path d="M -212.266666666 -60.0 L -202.266666666 -60.0" stroke="#FF0000" fill="none" stroke-width="5px" />
<path d="M -202.266666666 -60.0 L -192.266666666 -60.0" stroke="#FF0000" fill="none" stroke-width="5px" />
<path d="M -192.266666666 -60.0 L -182.266666666 -60.0" stroke="#FF0000" fill="none" stroke-width="5px" />
<path d="M -182.266666666 -60.0 L -172.266666666 -60.0" stroke="#FF0000" fill="none" stroke-width="5px" />
<path d="M -172.266666666 -60.0 L -162.266666666 -60.0" stroke="#FF0000" fill="none" stroke-width="5px" />
<path d="M -162.266666666 -60.0 L -152.266666666 -60.0" stroke="#FF0000" fill="none" stroke-width="5px" />
<path d="M -152.266666666 -60.0 L -142.266666666 -60.0" stroke="#FF0000" fill="none" stroke-width="5px" />
<path d="M -142.266666666 -60.0 L -132.266666666 -60.0" stroke="#FF0000" fill="none" stroke-width="5px" />
<path d="M -132.266666666 -60.0 L -122.266666666 -60.0" stroke="#FF0000" fill="none" stroke-width="5px" />
<path d="M -122.266666666 -60.0 L -112.266666666 -60.0" stroke="#FF0000" fill="none" stroke-width="5px" />
<path d="M -112.266666666 -60.0 L -112.266666666 -50.0" stroke="#FF0000" fill="none" stroke-width="5px" />
<path d="M -112.266666666 -50.0 L -122.266666666 -50.0" stroke="#FF0000" fill="none" stroke-width="5px" />
<path d="M -122.266666666 -50.0 L -132.266666666 -50.0" stroke="#FF0000" fill="none" stroke-width="5px" />
<path d="M -132.266666666 -50.0 L -142.266666666 -50.0" stroke="#FF0000" fill="none" stroke-width="5px" />
<path d="M -142.266666666 -50.0 L -152.266666666 -50.0" stroke="#FF0000" fill="none" stroke-width="5px" />
<path d="M -152.266666666 -50.0 L -162.266666666 -50.0" stroke="#FF0000" fill="none" stroke-width="5px" />
<path d="M -162.266666666 -50.0 L -172.266666666 -50.0" stroke="#FF0000" fill="none" stroke-width="5px" />
<path d="M -172.266666666 -50.0 L -182.266666666 -50.0" stroke="#FF0000" fill="none" stroke-width="5px" />
<path d="M -182.266666666 -50.0 L -192.266666666 -50.0" stroke="#FF0000" fill="none" stroke-width="5px" />
<path d="M -192.266666666 -50.0 L -202.266666666 -50.0" stroke="#FF0000" fill="none" stroke-width="5px" />
<path d="M -202.266666666 -50.0 L -212.266666666 -50.0" stroke="#FF0000" fill="none" stroke-width="5px" />
<path d="M -212.266666666 -50.0 L -212.266666666 -40.0" stroke="#FF0000" fill="none" stroke-width="5px" />
<path d="M -212.266666666 -40.0 L -222.266666666 -40.0" stroke="#FF0000" fill="none" stroke-width="5px" />
<path d="M -222.266666666 -40.0 L -222.266666666 -30.0" stroke="#FF0000" fill="none" stroke-width="5px" />
<path d="M -222.266666666 -30.0 L -212.266666666 -30.0" stroke="#FF0000" fill="none" stroke-width="5px" />
<path d="M -212.266666666 -30.0 L -202.266666666 -30.0" stroke="#FF0000" fill="none" stroke-width="5px" />
<path d="M -202.266666666 -30.0 L -192.266666666 -30.0" stroke="#FF0000" fill="none" stroke-width="5px" />
<path d="M -192.266666666 -30.0 L -182.266666666 -30.0" stroke="#FF0000" fill="none" stroke-width="5px" />
<path d="M -182.266666666 -30.0 L -172.266666666 -30.0" stroke="#FF0000" fill="none" stroke-width="5px" />
<path d="M -172.266666666 -30.0 L -162.266666666 -30.0" stroke="#FF0000" fill="none" stroke-width="5px" />
<path d="M -162.266666666 -30.0 L -152.266666666 -30.0" stroke="#FF0000" fill="none" stroke-width="5px" />
<path d="M -152.266666666 -30.0 L -142.266666666 -30.0" stroke="#FF0000" fill="none" stroke-width="5px" />
<path d="M -142.266666666 -30.0 L -132.266666666 -30.0" stroke="#FF0000" fill="none" stroke-width="5px" />
<path d="M -132.266666666 -30.0 L -122.266666666 -30.0" stroke="#FF0000" fill="none" stroke-width="5px" />
<path d="M -122.266666666 -30.0 L -122.266666666 -20.0" stroke="#FF0000" fill="none" stroke-width="5px" />
<path d="M -122.266666666 -20.0 L -132.266666666 -20.0" stroke="#FF0000" fill="none" stroke-width="5px" />
<path d="M -132.266666666 -20.0 L -142.266666666 -20.0" stroke="#FF0000" fill="none" stroke-width="5px" />
<path d="M -142.266666666 -20.0 L -152.266666666 -20.0" stroke="#FF0000" fill="none" stroke-width="5px" />
<path d="M -152.266666666 -20.0 L -162.266666666 -20.0" stroke="#FF0000" fill="none" stroke-width="5px" />
<path d="M -162.266666666 -20.0 L -172.266666666 -20.0" stroke="#FF0000" fill="none" stroke-width="5px" />
<path d="M -172.266666666 -20.0 L -182.266666666 -20.0" stroke="#FF0000" fill="none" stroke-width="5px" />
<path d="M -182.266666666 -20.0 L -192.266666666 -20.0" stroke="#FF0000" fill="none" stroke-width="5px" />
<path d="M -192.266666666 -20.0 L -202.266666666 -20.0" stroke="#FF0000" fill="none" stroke-width="5px" />
<path d="M -202.266666666 -20.0 L -212.266666666 -20.0" stroke="#FF0000" fill="none" stroke-width="5px" />
<path d="M -212.266666666 -20.0 L -202.266666666 -10.0" stroke="#FF0000" fill="none" stroke-width="5px" />
<path d="M -202.266666666 -10.0 L -192.266666666 -10.0" stroke="#FF0000" fill="none" stroke-width="5px" />
<path d="M -192.266666666 -10.0 L -182.266666666 -10.0" stroke="#FF0000" fill="none" stroke-width="5px" />
<path d="M -182.266666666 -10.0 L -162.266666666 -10.0" stroke="#FF0000" fill="none" stroke-width="5px" />
<path d="M -162.266666666 -10.0 L -152.266666666 -10.0" stroke="#FF0000" fill="none" stroke-width="5px" />
<path d="M -152.266666666 -10.0 L -142.266666666 -10.0" stroke="#FF0000" fill="none" stroke-width="5px" />
<path d="M -142.266666666 -10.0 L -132.266666666 -10.0" stroke="#FF0000" fill="none" stroke-width="5px" />
<path d="M -132.266666666 -10.0 L -142.266666666 0.0" stroke="#FF0000" fill="none" stroke-width="5px" />
<path d="M -142.266666666 0.0 L -152.266666666 0.0" stroke="#FF0000" fill="none" stroke-width="5px" />
<path d="M -152.266666666 -40.0 L -162.266666666 -40.0" stroke="#FF0000" fill="none" stroke-width="5px" />
<path d="M -162.266666666 -40.0 L -172.266666666 -40.0" stroke="#FF0000" fill="none" stroke-width="5px" />
<path d="M -172.266666666 -40.0 L -182.266666666 -40.0" stroke="#FF0000" fill="none" stroke-width="5px" />
<path d="M -182.266666666 -40.0 L -192.266666666 -40.0" stroke="#FF0000" fill="none" stroke-width="5px" />
<path d="M -192.266666666 -40.0 L -202.266666666 -40.0" stroke="#FF0000" fill="none" stroke-width="5px" />
<path d="M -192.266666666 -70.0 L -182.266666666 -70.0" stroke="#FF0000" fill="none" stroke-width="5px" />
<path d="M -182.266666666 -70.0 L -172.266666666 -70.0" stroke="#FF0000" fill="none" stroke-width="5px" />
<path d="M -172.266666666 -70.0 L -162.266666666 -70.0" stroke="#FF0000" fill="none" stroke-width="5px" />
<path d="M -162.266666666 -70.0 L -152.266666666 -70.0" stroke="#FF0000" fill="none" stroke-width="5px" />
<path d="M -152.266666666 -70.0 L -142.266666666 -70.0" stroke="#FF0000" fill="none" stroke-width="5px" />
<path d="M -142.266666666 -70.0 L -132.266666666 -70.0" stroke="#FF0000" fill="none" stroke-width="5px" />
<path d="M -132.266666666 -70.0 L -122.266666666 -70.0" stroke="#FF0000" fill="none" stroke-width="5px" />
<path d="M -122.266666666 -70.0 L -112.266666666 -70.0" stroke="#FF0000" fill="none" stroke-width="5px" />
<path d="M -112.266666666 -70.0 L -122.266666666 -80.0" stroke="#FF0000" fill="none" stroke-width="5px" />
<path d="M -122.266666666 -80.0 L -132.266666666 -80.0" stroke="#FF0000" fill="none" stroke-width="5px" />
<path d="M -132.266666666 -80.0 L -142.266666666 -80.0" stroke="#FF0000" fill="none" stroke-width="5px" />
<path d="M -142.266666666 -80.0 L -152.266666666 -80.0" stroke="#FF0000" fill="none" stroke-width="5px" />
<path d="M -152.266666666 -80.0 L -162.266666666 -80.0" stroke="#FF0000" fill="none" stroke-width="5px" />
<path d="M -162.266666666 -80.0 L -172.266666666 -80.0" stroke="#FF0000" fill="none" stroke-width="5px" />
<path d="M -172.266666666 -80.0 L -182.266666666 -80.0" stroke="#FF0000" fill="none" stroke-width="5px" />
<path d="M -162.266666666 -90.0 L -152.266666666 -90.0" stroke="#FF0000" fill="none" stroke-width="5px" />
<path d="M -152.266666666 -90.0 L -142.266666666 -90.0" stroke="#FF0000" fill="none" stroke-width="5px" />
<path d="M -142.266666666 -90.0 L -132.266666666 -90.0" stroke="#FF0000" fill="none" stroke-width="5px" />
<path d="M -132.266666666 -90.0 L -122.266666666 -90.0" stroke="#FF0000" fill="none" stroke-width="5px" />
<path d="M -122.266666666 -90.0 L -132.266666666 -100.0" stroke="#FF0000" fill="none" stroke-width="5px" />
<path d="M -132.266666666 -100.0 L -142.266666666 -100.0" stroke="#FF0000" fill="none" stroke-width="5px" />
<path d="M -142.266666666 -100.0 L -152.266666666 -100.0" stroke="#FF0000" fill="none" stroke-width="5px" />
<path d="M -172.266666666 -150.0 L -182.266666666 -150.0" stroke="#FF0000" fill="none" stroke-width="5px" />
<path d="M -182.266666666 -150.0 L -182.266666666 -160.0" stroke="#FF0000" fill="none" stroke-width="5px" />
<path d="M -182.266666666 -160.0 L -192.266666666 -160.0" stroke="#FF0000" fill="none" stroke-width="5px" />
<path d="M -192.266666666 -160.0 L -192.266666666 -170.0" stroke="#FF0000" fill="none" stroke-width="5px" />
<path d="M -192.266666666 -170.0 L -202.266666666 -170.0" stroke="#FF0000" fill="none" stroke-width="5px" />
<path d="M -202.266666666 -170.0 L -202.266666666 -180.0" stroke="#FF0000" fill="none" stroke-width="5px" />
<path d="M -202.266666666 -180.0 L -212.266666666 -180.0" stroke="#FF0000" fill="none" stroke-width="5px" />
<path d="M -212.266666666 -180.0 L -212.266666666 -190.0" stroke="#FF0000" fill="none" stroke-width="5px" />
<path d="M -212.266666666 -190.0 L -202.266666666 -190.0" stroke="#FF0000" fill="none" stroke-width="5px" />
<path d="M -202.266666666 -190.0 L -192.266666666 -190.0" stroke="#FF0000" fill="none" stroke-width="5px" />
<path d="M -192.266666666 -190.0 L -182.266666666 -190.0" stroke="#FF0000" fill="none" stroke-width="5px" />
<path d="M -182.266666666 -190.0 L -172.266666666 -190.0" stroke="#FF0000" fill="none" stroke-width="5px" />
<path d="M -172.266666666 -190.0 L -162.266666666 -190.0" stroke="#FF0000" fill="none" stroke-width="5px" />
<path d="M -162.266666666 -190.0 L -152.266666666 -190.0" stroke="#FF0000" fill="none" stroke-width="5px" />
<path d="M -152.266666666 -190.0 L -142.266666666 -190.0" stroke="#FF0000" fill="none" stroke-width="5px" />
<path d="M -142.266666666 -190.0 L -142.266666666 -180.0" stroke="#FF0000" fill="none" stroke-width="5px" />
<path d="M -142.266666666 -180.0 L -152.266666666 -180.0" stroke="#FF0000" fill="none" stroke-width="5px" />
<path d="M -152.266666666 -180.0 L -162.266666666 -180.0" stroke="#FF0000" fill="none" stroke-width="5px" />
<path d="M -162.266666666 -180.0 L -172.266666666 -180.0" stroke="#FF0000" fill="none" stroke-width="5px" />
<path d="M -172.266666666 -180.0 L -182.266666666 -180.0" stroke="#FF0000" fill="none" stroke-width="5px" />
<path d="M -182.266666666 -180.0 L -192.266666666 -180.0" stroke="#FF0000" fill="none" stroke-width="5px" />
<path d="M -192.266666666 -180.0 L -182.266666666 -170.0" stroke="#FF0000" fill="none" stroke-width="5px" />
<path d="M -182.266666666 -170.0 L -172.266666666 -170.0" stroke="#FF0000" fill="none" stroke-width="5px" />
<path d="M -172.266666666 -170.0 L -162.266666666 -170.0" stroke="#FF0000" fill="none" stroke-width="5px" />
<path d="M -162.266666666 -170.0 L -152.266666666 -170.0" stroke="#FF0000" fill="none" stroke-width="5px" />
<path d="M -152.266666666 -170.0 L -162.266666666 -160.0" stroke="#FF0000" fill="none" stroke-width="5px" />
<path d="M -162.266666666 -160.0 L -172.266666666 -160.0" stroke="#FF0000" fill="none" stroke-width="5px" />
<path d="M -132.266666666 -160.0 L -122.266666666 -160.0" stroke="#FF0000" fill="none" stroke-width="5px" />
<path d="M -122.266666666 -160.0 L -112.266666666 -160.0" stroke="#FF0000" fill="none" stroke-width="5px" />
<path d="M -112.266666666 -160.0 L -102.266666666 -160.0" stroke="#FF0000" fill="none" stroke-width="5px" />
<path d="M -102.266666666 -160.0 L -92.2666666663 -160.0" stroke="#FF0000" fill="none" stroke-width="5px" />
<path d="M -92.2666666663 -160.0 L -82.2666666663 -160.0" stroke="#FF0000" fill="none" stroke-width="5px" />
<path d="M -82.2666666663 -160.0 L -72.2666666663 -160.0" stroke="#FF0000" fill="none" stroke-width="5px" />
<path d="M -72.2666666663 -160.0 L -72.2666666663 -170.0" stroke="#FF0000" fill="none" stroke-width="5px" />
<path d="M -72.2666666663 -170.0 L -82.2666666663 -170.0" stroke="#FF0000" fill="none" stroke-width="5px" />
<path d="M -82.2666666663 -170.0 L -92.2666666663 -170.0" stroke="#FF0000" fill="none" stroke-width="5px" />
<path d="M -92.2666666663 -170.0 L -102.266666666 -170.0" stroke="#FF0000" fill="none" stroke-width="5px" />
<path d="M -102.266666666 -170.0 L -112.266666666 -170.0" stroke="#FF0000" fill="none" stroke-width="5px" />
<path d="M -112.266666666 -170.0 L -122.266666666 -170.0" stroke="#FF0000" fill="none" stroke-width="5px" />
<path d="M -122.266666666 -170.0 L -132.266666666 -170.0" stroke="#FF0000" fill="none" stroke-width="5px" />
<path d="M -132.266666666 -170.0 L -122.266666666 -180.0" stroke="#FF0000" fill="none" stroke-width="5px" />
<path d="M -122.266666666 -180.0 L -112.266666666 -180.0" stroke="#FF0000" fill="none" stroke-width="5px" />
<path d="M -112.266666666 -180.0 L -102.266666666 -180.0" stroke="#FF0000" fill="none" stroke-width="5px" />
<path d="M -102.266666666 -180.0 L -92.2666666663 -180.0" stroke="#FF0000" fill="none" stroke-width="5px" />
<path d="M -92.2666666663 -180.0 L -82.2666666663 -180.0" stroke="#FF0000" fill="none" stroke-width="5px" />
<path d="M -102.266666666 -190.0 L -112.266666666 -190.0" stroke="#FF0000" fill="none" stroke-width="5px" />
<path d="M -142.266666666 -200.0 L -152.266666666 -200.0" stroke="#FF0000" fill="none" stroke-width="5px" />
<path d="M -152.266666666 -200.0 L -162.266666666 -200.0" stroke="#FF0000" fill="none" stroke-width="5px" />
<path d="M -162.266666666 -200.0 L -172.266666666 -200.0" stroke="#FF0000" fill="none" stroke-width="5px" />
<path d="M -172.266666666 -200.0 L -182.266666666 -200.0" stroke="#FF0000" fill="none" stroke-width="5px" />
<path d="M -182.266666666 -200.0 L -192.266666666 -200.0" stroke="#FF0000" fill="none" stroke-width="5px" />
<path d="M -192.266666666 -200.0 L -202.266666666 -200.0" stroke="#FF0000" fill="none" stroke-width="5px" />
<path d="M -202.266666666 -200.0 L -212.266666666 -200.0" stroke="#FF0000" fill="none" stroke-width="5px" />
<path d="M -212.266666666 -200.0 L -202.266666666 -210.0" stroke="#FF0000" fill="none" stroke-width="5px" />
<path d="M -202.266666666 -210.0 L -192.266666666 -210.0" stroke="#FF0000" fill="none" stroke-width="5px" />
<path d="M -192.266666666 -210.0 L -182.266666666 -210.0" stroke="#FF0000" fill="none" stroke-width="5px" />
<path d="M -182.266666666 -210.0 L -172.266666666 -210.0" stroke="#FF0000" fill="none" stroke-width="5px" />
<path d="M -172.266666666 -210.0 L -162.266666666 -210.0" stroke="#FF0000" fill="none" stroke-width="5px" />
<path d="M -162.266666666 -210.0 L -152.266666666 -210.0" stroke="#FF0000" fill="none" stroke-width="5px" />
<path d="M -152.266666666 -210.0 L -162.266666666 -220.0" stroke="#FF0000" fill="none" stroke-width="5px" />
<path d="M -162.266666666 -220.0 L -172.266666666 -220.0" stroke="#FF0000" fill="none" stroke-width="5px" />
<path d="M -172.266666666 -220.0 L -182.266666666 -220.0" stroke="#FF0000" fill="none" stroke-width="5px" />
<path d="M -182.266666666 -220.0 L -192.266666666 -220.0" stroke="#FF0000" fill="none" stroke-width="5px" />
<path d="M -272.266666666 -180.0 L -282.266666666 -180.0" stroke="#FF0000" fill="none" stroke-width="5px" />
<path d="M -282.266666666 -180.0 L -292.266666666 -180.0" stroke="#FF0000" fill="none" stroke-width="5px" />
<path d="M -292.266666666 -180.0 L -302.266666666 -180.0" stroke="#FF0000" fill="none" stroke-width="5px" />
<path d="M -302.266666666 -180.0 L -312.266666666 -180.0" stroke="#FF0000" fill="none" stroke-width="5px" />
<path d="M -312.266666666 -180.0 L -312.266666666 -170.0" stroke="#FF0000" fill="none" stroke-width="5px" />
<path d="M -312.266666666 -170.0 L -322.266666666 -170.0" stroke="#FF0000" fill="none" stroke-width="5px" />
<path d="M -322.266666666 -170.0 L -322.266666666 -160.0" stroke="#FF0000" fill="none" stroke-width="5px" />
<path d="M -322.266666666 -160.0 L -312.266666666 -160.0" stroke="#FF0000" fill="none" stroke-width="5px" />
<path d="M -312.266666666 -160.0 L -302.266666666 -160.0" stroke="#FF0000" fill="none" stroke-width="5px" />
<path d="M -302.266666666 -160.0 L -292.266666666 -160.0" stroke="#FF0000" fill="none" stroke-width="5px" />
<path d="M -292.266666666 -160.0 L -282.266666666 -160.0" stroke="#FF0000" fill="none" stroke-width="5px" />
<path d="M -282.266666666 -160.0 L -272.266666666 -160.0" stroke="#FF0000" fill="none" stroke-width="5px" />
<path d="M -272.266666666 -160.0 L -262.266666666 -160.0" stroke="#FF0000" fill="none" stroke-width="5px" />
<path d="M -262.266666666 -160.0 L -252.266666666 -160.0" stroke="#FF0000" fill="none" stroke-width="5px" />
<path d="M -252.266666666 -160.0 L -252.266666666 -150.0" stroke="#FF0000" fill="none" stroke-width="5px" />
<path d="M -252.266666666 -150.0 L -262.266666666 -150.0" stroke="#FF0000" fill="none" stroke-width="5px" />
<path d="M -262.266666666 -150.0 L -272.266666666 -150.0" stroke="#FF0000" fill="none" stroke-width="5px" />
<path d="M -272.266666666 -150.0 L -282.266666666 -150.0" stroke="#FF0000" fill="none" stroke-width="5px" />
<path d="M -282.266666666 -150.0 L -292.266666666 -150.0" stroke="#FF0000" fill="none" stroke-width="5px" />
<path d="M -292.266666666 -150.0 L -302.266666666 -150.0" stroke="#FF0000" fill="none" stroke-width="5px" />
<path d="M -302.266666666 -150.0 L -312.266666666 -150.0" stroke="#FF0000" fill="none" stroke-width="5px" />
<path d="M -312.266666666 -150.0 L -322.266666666 -150.0" stroke="#FF0000" fill="none" stroke-width="5px" />
<path d="M -322.266666666 -150.0 L -312.266666666 -140.0" stroke="#FF0000" fill="none" stroke-width="5px" />
<path d="M -312.266666666 -140.0 L -302.266666666 -140.0" stroke="#FF0000" fill="none" stroke-width="5px" />
<path d="M -302.266666666 -140.0 L -292.266666666 -140.0" stroke="#FF0000" fill="none" stroke-width="5px" />
<path d="M -292.266666666 -140.0 L -282.266666666 -140.0" stroke="#FF0000" fill="none" stroke-width="5px" />
<path d="M -282.266666666 -140.0 L -272.266666666 -140.0" stroke="#FF0000" fill="none" stroke-width="5px" />
<path d="M -272.266666666 -140.0 L -262.266666666 -140.0" stroke="#FF0000" fill="none" stroke-width="5px" />
<path d="M -262.266666666 -140.0 L -272.266666666 -130.0" stroke="#FF0000" fill="none" stroke-width="5px" />
<path d="M -272.266666666 -130.0 L -282.266666666 -130.0" stroke="#FF0000" fill="none" stroke-width="5px" />
<path d="M -282.266666666 -130.0 L -292.266666666 -130.0" stroke="#FF0000" fill="none" stroke-width="5px" />
<path d="M -292.266666666 -130.0 L -302.266666666 -130.0" stroke="#FF0000" fill="none" stroke-width="5px" />
<path d="M -302.266666666 -130.0 L -292.266666666 -120.0" stroke="#FF0000" fill="none" stroke-width="5px" />
<path d="M -292.266666666 -120.0 L -282.266666666 -120.0" stroke="#FF0000" fill="none" stroke-width="5px" />
<path d="M -282.266666666 -120.0 L -282.266666666 -110.0" stroke="#FF0000" fill="none" stroke-width="5px" />
<path d="M -282.266666666 -110.0 L -272.266666666 -110.0" stroke="#FF0000" fill="none" stroke-width="5px" />
<path d="M -272.266666666 -110.0 L -272.266666666 -100.0" stroke="#FF0000" fill="none" stroke-width="5px" />
<path d="M -272.266666666 -100.0 L -282.266666666 -100.0" stroke="#FF0000" fill="none" stroke-width="5px" />
<path d="M -282.266666666 -100.0 L -292.266666666 -100.0" stroke="#FF0000" fill="none" stroke-width="5px" />
<path d="M -292.266666666 -100.0 L -292.266666666 -90.0" stroke="#FF0000" fill="none" stroke-width="5px" />
<path d="M -292.266666666 -90.0 L -302.266666666 -90.0" stroke="#FF0000" fill="none" stroke-width="5px" />
<path d="M -302.266666666 -90.0 L -302.266666666 -80.0" stroke="#FF0000" fill="none" stroke-width="5px" />
<path d="M -302.266666666 -80.0 L -292.266666666 -80.0" stroke="#FF0000" fill="none" stroke-width="5px" />
<path d="M -292.266666666 -80.0 L -282.266666666 -80.0" stroke="#FF0000" fill="none" stroke-width="5px" />
<path d="M -282.266666666 -80.0 L -272.266666666 -80.0" stroke="#FF0000" fill="none" stroke-width="5px" />
<path d="M -272.266666666 -80.0 L -262.266666666 -80.0" stroke="#FF0000" fill="none" stroke-width="5px" />
<path d="M -262.266666666 -80.0 L -252.266666666 -80.0" stroke="#FF0000" fill="none" stroke-width="5px" />
<path d="M -252.266666666 -80.0 L -242.266666666 -80.0" stroke="#FF0000" fill="none" stroke-width="5px" />
<path d="M -242.266666666 -80.0 L -242.266666666 -70.0" stroke="#FF0000" fill="none" stroke-width="5px" />
<path d="M -242.266666666 -70.0 L -252.266666666 -70.0" stroke="#FF0000" fill="none" stroke-width="5px" />
<path d="M -252.266666666 -70.0 L -262.266666666 -70.0" stroke="#FF0000" fill="none" stroke-width="5px" />
<path d="M -262.266666666 -70.0 L -272.266666666 -70.0" stroke="#FF0000" fill="none" stroke-width="5px" />
<path d="M -272.266666666 -70.0 L -282.266666666 -70.0" stroke="#FF0000" fill="none" stroke-width="5px" />
<path d="M -282.266666666 -70.0 L -292.266666666 -70.0" stroke="#FF0000" fill="none" stroke-width="5px" />
<path d="M -292.266666666 -70.0 L -302.266666666 -70.0" stroke="#FF0000" fill="none" stroke-width="5px" />
<path d="M -302.266666666 -70.0 L -312.266666666 -70.0" stroke="#FF0000" fill="none" stroke-width="5px" />
<path d="M -312.266666666 -70.0 L -322.266666666 -70.0" stroke="#FF0000" fill="none" stroke-width="5px" />
<path d="M -322.266666666 -70.0 L -322.266666666 -60.0" stroke="#FF0000" fill="none" stroke-width="5px" />
<path d="M -322.266666666 -60.0 L -332.266666666 -60.0" stroke="#FF0000" fill="none" stroke-width="5px" />
<path d="M -332.266666666 -60.0 L -332.266666666 -50.0" stroke="#FF0000" fill="none" stroke-width="5px" />
<path d="M -332.266666666 -50.0 L -322.266666666 -50.0" stroke="#FF0000" fill="none" stroke-width="5px" />
<path d="M -322.266666666 -50.0 L -312.266666666 -50.0" stroke="#FF0000" fill="none" stroke-width="5px" />
<path d="M -312.266666666 -50.0 L -302.266666666 -50.0" stroke="#FF0000" fill="none" stroke-width="5px" />
<path d="M -302.266666666 -50.0 L -292.266666666 -50.0" stroke="#FF0000" fill="none" stroke-width="5px" />
<path d="M -292.266666666 -50.0 L -282.266666666 -50.0" stroke="#FF0000" fill="none" stroke-width="5px" />
<path d="M -282.266666666 -50.0 L -292.266666666 -40.0" stroke="#FF0000" fill="none" stroke-width="5px" />
<path d="M -292.266666666 -40.0 L -302.266666666 -40.0" stroke="#FF0000" fill="none" stroke-width="5px" />
<path d="M -302.266666666 -40.0 L -312.266666666 -40.0" stroke="#FF0000" fill="none" stroke-width="5px" />
<path d="M -312.266666666 -40.0 L -322.266666666 -40.0" stroke="#FF0000" fill="none" stroke-width="5px" />
<path d="M -322.266666666 -40.0 L -312.266666666 -30.0" stroke="#FF0000" fill="none" stroke-width="5px" />
<path d="M -312.266666666 -30.0 L -302.266666666 -30.0" stroke="#FF0000" fill="none" stroke-width="5px" />
<path d="M -302.266666666 -30.0 L -292.266666666 -30.0" stroke="#FF0000" fill="none" stroke-width="5px" />
<path d="M -292.266666666 -30.0 L -282.266666666 -30.0" stroke="#FF0000" fill="none" stroke-width="5px" />
<path d="M -282.266666666 -30.0 L -292.266666666 -20.0" stroke="#FF0000" fill="none" stroke-width="5px" />
<path d="M -292.266666666 -20.0 L -302.266666666 -20.0" stroke="#FF0000" fill="none" stroke-width="5px" />
<path d="M -302.266666666 -60.0 L -312.266666666 -60.0" stroke="#FF0000" fill="none" stroke-width="5px" />
<path d="M -312.266666666 -60.0 L -292.266666666 -60.0" stroke="#FF0000" fill="none" stroke-width="5px" />
<path d="M -292.266666666 -60.0 L -272.266666666 -60.0" stroke="#FF0000" fill="none" stroke-width="5px" />
<path d="M -272.266666666 -60.0 L -262.266666666 -60.0" stroke="#FF0000" fill="none" stroke-width="5px" />
<path d="M -262.266666666 -60.0 L -252.266666666 -60.0" stroke="#FF0000" fill="none" stroke-width="5px" />
<path d="M -252.266666666 -60.0 L -262.266666666 -50.0" stroke="#FF0000" fill="none" stroke-width="5px" />
<path d="M -262.266666666 -90.0 L -272.266666666 -90.0" stroke="#FF0000" fill="none" stroke-width="5px" />
<path d="M -272.266666666 -90.0 L -282.266666666 -90.0" stroke="#FF0000" fill="none" stroke-width="5px" />
<path d="M -262.266666666 -100.0 L -252.266666666 -100.0" stroke="#FF0000" fill="none" stroke-width="5px" />
<path d="M -252.266666666 -100.0 L -252.266666666 -90.0" stroke="#FF0000" fill="none" stroke-width="5px" />
<path d="M -252.266666666 -90.0 L -242.266666666 -90.0" stroke="#FF0000" fill="none" stroke-width="5px" />
<path d="M -262.266666666 -170.0 L -272.266666666 -170.0" stroke="#FF0000" fill="none" stroke-width="5px" />
<path d="M -272.266666666 -170.0 L -282.266666666 -170.0" stroke="#FF0000" fill="none" stroke-width="5px" />
<path d="M -282.266666666 -170.0 L -292.266666666 -170.0" stroke="#FF0000" fill="none" stroke-width="5px" />
<path d="M -292.266666666 -170.0 L -302.266666666 -170.0" stroke="#FF0000" fill="none" stroke-width="5px" />
<path d="M -382.266666666 -90.0 L -382.266666666 -80.0" stroke="#FF0000" fill="none" stroke-width="5px" />
<path d="M -382.266666666 -80.0 L -392.266666666 -80.0" stroke="#FF0000" fill="none" stroke-width="5px" />
<path d="M -392.266666666 -80.0 L -392.266666666 -70.0" stroke="#FF0000" fill="none" stroke-width="5px" />
<path d="M -392.266666666 -70.0 L -402.266666666 -70.0" stroke="#FF0000" fill="none" stroke-width="5px" />
<path d="M -402.266666666 -70.0 L -392.266666666 -60.0" stroke="#FF0000" fill="none" stroke-width="5px" />
<path d="M -392.266666666 -60.0 L -382.266666666 -60.0" stroke="#FF0000" fill="none" stroke-width="5px" />
<path d="M -382.266666666 -60.0 L -372.266666666 -60.0" stroke="#FF0000" fill="none" stroke-width="5px" />
<path d="M -372.266666666 -60.0 L -372.266666666 -70.0" stroke="#FF0000" fill="none" stroke-width="5px" />
<path d="M -372.266666666 -70.0 L -382.266666666 -70.0" stroke="#FF0000" fill="none" stroke-width="5px" />
<path d="M -382.266666666 -70.0 L -372.266666666 -80.0" stroke="#FF0000" fill="none" stroke-width="5px" />
<path d="M -372.266666666 -80.0 L -362.266666666 -70.0" stroke="#FF0000" fill="none" stroke-width="5px" />
<path d="M -142.266666666 -40.0 L -132.266666666 -40.0" stroke="#FF0000" fill="none" stroke-width="5px" />
<path d="M -132.266666666 -40.0 L -122.266666666 -40.0" stroke="#FF0000" fill="none" stroke-width="5px" />
<path d="M -32.2666666663 -30.0 L -22.2666666663 -30.0" stroke="#FF0000" fill="none" stroke-width="5px" />
</svg>