<svg width="1755.23333333" height="235.0" xmlns="http://www.w3.org/2000/svg" version="1.1">
<path d="M 0.0 0.0 L 1755.23333333 0.0 L 1755.23333333 -235.0 L 0.0 -235.0 L 0.0 0.0" stroke="BLACK" fill="none" stroke-width="2px" />
<path d="M 900.0 -80.0 L 900.0 -70.0 L 910.0 -60.0 L 920.0 -60.0 L 930.0 -70.0 L 930.0 -80.0 L 920.0 -90.0 L 910.0 -90.0 L 900.0 -80.0" stroke="#FFFF1F" fill="none" stroke-width="1px" />
<path d="M 0.0 0.0 L 900.0 -70.0" stroke="#0095FF" fill="none" stroke-width="2px" />
<path d="M 920.0 -90.0 L 920.0 -60.0" stroke="#0095FF" fill="none" stroke-width="2px" />
<path d="M 900.0 -70.0 L 910.0 -70.0" stroke="#FF0000" fill="none" stroke-width="5px" />
<path d="M 910.0 -70.0 L 920.0 -70.0" stroke="#FF0000" fill="none" stroke-width="5px" />
<path d="M 920.0 -70.0 L 930.0 -70.0" stroke="#FF0000" fill="none" stroke-width="5px" />
<path d="M 930.0 -70.0 L 930.0 -80.0" stroke="#FF0000" fill="none" stroke-width="5px" />
<path d="M 930.0 -80.0 L 920.0 -80.0" stroke="#FF0000" fill="none" stroke-width="5px" />
<path d="M 920.0 -80.0 L 910.0 -80.0" stroke="#FF0000" fill="none" stroke-width="5px" />
<path d="M 910.0 -80.0 L 900.0 -80.0" stroke="#FF0000" fill="none" stroke-width="5px" />
<path d="M 900.0 -80.0 L 910.0 -90.0" stroke="#FF0000" fill="none" stroke-width="5px" />
<path d="M 910.0 -90.0 L 920.0 -90.0" stroke="#FF0000" fill="none" stroke-width="5px" />
<path d="M 920.0 -60.0 L 910.0 -60.0" stroke="#FF0000" fill="none" stroke-width="5px" />
</svg>