<svg width="738.066666667" height="235.0" xmlns="http://www.w3.org/2000/svg" version="1.1">
<path d="M 0.0 0.0 L -738.066666667 0.0 L -738.066666667 -235.0 L 0.0 -235.0 L 0.0 0.0" stroke="BLACK" fill="none" stroke-width="2px" />
<path d="M -463.066666667 -120.0 L -463.066666667 -110.0 L -453.066666667 -100.0 L -443.066666667 -90.0 L -433.066666667 -80.0 L -423.066666667 -80.0 L -413.066666667 -80.0 L -403.066666667 -90.0 L -393.066666667 -100.0 L -383.066666667 -110.0 L -383.066666667 -120.0 L -393.066666667 -130.0 L -403.066666667 -140.0 L -413.066666667 -150.0 L -423.066666667 -150.0 L -433.066666667 -150.0 L -443.066666667 -140.0 L -453.066666667 -130.0 L -463.066666667 -120.0" stroke="#FFFF1F" fill="none" stroke-width="1px" />
<path d="M 0.0 0.0 L -383.066666667 0.0" stroke="#0095FF" fill="none" stroke-width="2px" />
<path d="M -383.066666667 0.0 L -383.066666667 -110.0" stroke="#0095FF" fill="none" stroke-width="2px" />
<path d="M -433.066666667 -150.0 L -433.066666667 -100.0" stroke="#0095FF" fill="none" stroke-width="2px" />
<path d="M -423.066666667 -100.0 L -423.066666667 -80.0" stroke="#0095FF" fill="none" stroke-width="2px" />
<path d="M -413.066666667 -80.0 L -393.066666667 -80.0" stroke="#0095FF" fill="none" stroke-width="2px" />
<path d="M -393.066666667 -80.0 L -393.066666667 -100.0" stroke="#0095FF" fill="none" stroke-width="2px" />
<path d="M -383.066666667 -110.0 L -393.066666667 -110.0" stroke="#FF0000" fill="none" stroke-width="5px" />
<path d="M -393.066666667 -110.0 L -403.066666667 -110.0" stroke="#FF0000" fill="none" stroke-width="5px" />
<path d="M -403.066666667 -110.0 L -413.066666667 -110.0" stroke="#FF0000" fill="none" stroke-width="5px" />
<path d="M -413.066666667 -110.0 L -423.066666667 -110.0" stroke="#FF0000" fill="none" stroke-width="5px" />
<path d="M -423.066666667 -110.0 L -433.066666667 -110.0" stroke="#FF0000" fill="none" stroke-width="5px" />
<path d="M -433.066666667 -110.0 L -443.066666667 -110.0" stroke="#FF0000" fill="none" stroke-width="5px" />
<path d="M -443.066666667 -110.0 L -453.066666667 -110.0" stroke="#FF0000" fill="none" stroke-width="5px" />
<path d="M -453.066666667 -110.0 L -463.066666667 -110.0" stroke="#FF0000" fill="none" stroke-width="5px" />
<path d="M -463.066666667 -110.0 L -463.066666667 -120.0" stroke="#FF0000" fill="none" stroke-width="5px" />
<path d="M -463.066666667 -120.0 L -453.066666667 -120.0" stroke="#FF0000" fill="none" stroke-width="5px" />
<path d="M -453.066666667 -120.0 L -443.066666667 -120.0" stroke="#FF0000" fill="none" stroke-width="5px" />
<path d="M -443.066666667 -120.0 L -433.066666667 -120.0" stroke="#FF0000" fill="none" stroke-width="5px" />
<path d="M -433.066666667 -120.0 L -423.066666667 -120.0" stroke="#FF0000" fill="none" stroke-width="5px" />
<path d="M -423.066666667 -120.0 L -413.066666667 -120.0" stroke="#FF0000" fill="none" stroke-width="5px" />
<path d="M -413.066666667 -120.0 L -403.066666667 -120.0" stroke="#FF0000" fill="none" stroke-width="5px" />
<path d="M -403.066666667 -120.0 L -393.066666667 -120.0" stroke="#FF0000" fill="none" stroke-width="5px" />
<path d="M -393.066666667 -120.0 L -383.066666667 -120.0" stroke="#FF0000" fill="none" stroke-width="5px" />
<path d="M -383.066666667 -120.0 L -393.066666667 -130.0" stroke="#FF0000" fill="none" stroke-width="5px" />
<path d="M -393.066666667 -130.0 L -403.066666667 -130.0" stroke="#FF0000" fill="none" stroke-width="5px" />
<path d="M -403.066666667 -130.0 L -413.066666667 -130.0" stroke="#FF0000" fill="none" stroke-width="5px" />
<path d="M -413.066666667 -130.0 L -423.066666667 -130.0" stroke="#FF0000" fill="none" stroke-width="5px" />
<path d="M -423.066666667 -130.0 L -433.066666667 -130.0" stroke="#FF0000" fill="none" stroke-width="5px" />
<path d="M -433.066666667 -130.0 L -443.066666667 -130.0" stroke="#FF0000" fill="none" stroke-width="5px" />
<path d="M -443.066666667 -130.0 L -453.066666667 -130.0" stroke="#FF0000" fill="none" stroke-width="5px" />
<path d="M -453.066666667 -130.0 L -443.066666667 -140.0" stroke="#FF0000" fill="none" stroke-width="5px" />
<path d="M -443.066666667 -140.0 L -433.066666667 -140.0" stroke="#FF0000" fill="none" stroke-width="5px" />
<path d="M -433.066666667 -140.0 L -423.066666667 -140.0" stroke="#FF0000" fill="none" stroke-width="5px" />
<path d="M -423.066666667 -140.0 L -413.066666667 -140.0" stroke="#FF0000" fill="none" stroke-width="5px" />
<path d="M -413.066666667 -140.0 L -403.066666667 -140.0" stroke="#FF0000" fill="none" stroke-width="5px" />
<path d="M -403.066666667 -140.0 L -413.066666667 -150.0" stroke="#FF0000" fill="none" stroke-width="5px" />
<path d="M -413.066666667 -150.0 L -423.066666667 -150.0" stroke="#FF0000" fill="none" stroke-width="5px" />
<path d="M -423.066666667 -150.0 L -433.066666667 -150.0" stroke="#FF0000" fill="none" stroke-width="5px" />
<path d="M -433.066666667 -100.0 L -443.066666667 -100.0" stroke="#FF0000" fill="none" stroke-width="5px" />
<path d="M -443.066666667 -100.0 L -453.066666667 -100.0" stroke="#FF0000" fill="none" stroke-width="5px" />
<path d="M -453.066666667 -100.0 L -443.066666667 -90.0" stroke="#FF0000" fill="none" stroke-width="5px" />
<path d="M -443.066666667 -90.0 L -433.066666667 -90.0" stroke="#FF0000" fill="none" stroke-width="5px" />
<path d="M -433.066666667 -90.0 L -423.066666667 -90.0" stroke="#FF0000" fill="none" stroke-width="5px" />
<path d="M -423.066666667 -90.0 L -413.066666667 -90.0" stroke="#FF0000" fill="none" stroke-width="5px" />
<path d="M -413.066666667 -90.0 L -403.066666667 -90.0" stroke="#FF0000" fill="none" stroke-width="5px" />
<path d="M -403.066666667 -90.0 L -403.066666667 -100.0" stroke="#FF0000" fill="none" stroke-width="5px" />
<path d="M -403.066666667 -100.0 L -413.066666667 -100.0" stroke="#FF0000" fill="none" stroke-width="5px" />
<path d="M -413.066666667 -100.0 L -423.066666667 -100.0" stroke="#FF0000" fill="none" stroke-width="5px" />
<path d="M -423.066666667 -80.0 L -433.066666667 -80.0" stroke="#FF0000" fill="none" stroke-width="5px" />
<path d="M -433.066666667 -80.0 L -413.066666667 -80.0" stroke="#FF0000" fill="none" stroke-width="5px" />
</svg>