<svg width="1383.75833333" height="235.0" xmlns="http://www.w3.org/2000/svg" version="1.1">
<path d="M 0.0 0.0 L 1383.75833333 0.0 L 1383.75833333 -235.0 L 0.0 -235.0 L 0.0 0.0" stroke="BLACK" fill="none" stroke-width="10px" />
<path d="M 50.0 -180.0 L 60.0 -170.0 L 70.0 -160.0 L 80.0 -170.0 L 90.0 -180.0 L 90.0 -190.0 L 90.0 -200.0 L 80.0 -210.0 L 70.0 -210.0 L 60.0 -210.0 L 50.0 -200.0 L 50.0 -190.0 L 50.0 -180.0" stroke="#FFFF1F" fill="none" stroke-width="10px" />
<path d="M 250.0 -160.0 L 250.0 -150.0 L 250.0 -140.0 L 260.0 -130.0 L 270.0 -120.0 L 270.0 -110.0 L 280.0 -100.0 L 290.0 -100.0 L 300.0 -100.0 L 310.0 -100.0 L 320.0 -100.0 L 330.0 -110.0 L 340.0 -120.0 L 340.0 -130.0 L 340.0 -140.0 L 330.0 -150.0 L 320.0 -160.0 L 310.0 -160.0 L 300.0 -170.0 L 290.0 -170.0 L 280.0 -170.0 L 270.0 -170.0 L 260.0 -170.0 L 250.0 -160.0" stroke="#FFFF1F" fill="none" stroke-width="10px" />
<path d="M 460.0 -120.0 L 460.0 -110.0 L 460.0 -100.0 L 460.0 -90.0 L 470.0 -80.0 L 480.0 -70.0 L 490.0 -70.0 L 500.0 -70.0 L 510.0 -80.0 L 520.0 -90.0 L 530.0 -100.0 L 520.0 -110.0 L 510.0 -120.0 L 500.0 -130.0 L 490.0 -140.0 L 480.0 -140.0 L 470.0 -130.0 L 460.0 -120.0" stroke="#FFFF1F" fill="none" stroke-width="10px" />
<path d="M 550.0 -180.0 L 540.0 -170.0 L 550.0 -160.0 L 560.0 -150.0 L 570.0 -140.0 L 580.0 -150.0 L 590.0 -160.0 L 590.0 -170.0 L 580.0 -180.0 L 570.0 -190.0 L 560.0 -190.0 L 550.0 -180.0" stroke="#FFFF1F" fill="none" stroke-width="10px" />
<path d="M 650.0 -200.0 L 650.0 -190.0 L 660.0 -180.0 L 670.0 -180.0 L 680.0 -180.0 L 690.0 -190.0 L 690.0 -200.0 L 680.0 -210.0 L 670.0 -220.0 L 660.0 -220.0 L 650.0 -210.0 L 650.0 -200.0" stroke="#FFFF1F" fill="none" stroke-width="10px" />
<path d="M 720.0 -170.0 L 730.0 -160.0 L 740.0 -150.0 L 750.0 -150.0 L 760.0 -160.0 L 760.0 -170.0 L 750.0 -180.0 L 740.0 -190.0 L 730.0 -180.0 L 720.0 -170.0" stroke="#FFFF1F" fill="none" stroke-width="10px" />
<path d="M 850.0 -70.0 L 860.0 -60.0 L 870.0 -60.0 L 880.0 -70.0 L 870.0 -80.0 L 860.0 -90.0 L 850.0 -80.0 L 850.0 -70.0" stroke="#FFFF1F" fill="none" stroke-width="10px" />
<path d="M 1000.0 -140.0 L 1000.0 -130.0 L 1010.0 -120.0 L 1020.0 -110.0 L 1020.0 -100.0 L 1020.0 -90.0 L 1030.0 -80.0 L 1040.0 -70.0 L 1050.0 -80.0 L 1060.0 -90.0 L 1070.0 -90.0 L 1080.0 -100.0 L 1090.0 -110.0 L 1090.0 -120.0 L 1080.0 -130.0 L 1080.0 -140.0 L 1070.0 -150.0 L 1060.0 -160.0 L 1050.0 -160.0 L 1040.0 -160.0 L 1030.0 -160.0 L 1020.0 -160.0 L 1010.0 -150.0 L 1000.0 -140.0" stroke="#FFFF1F" fill="none" stroke-width="10px" />
<path d="M 1240.0 -130.0 L 1230.0 -120.0 L 1240.0 -110.0 L 1240.0 -100.0 L 1250.0 -90.0 L 1260.0 -90.0 L 1270.0 -90.0 L 1280.0 -100.0 L 1280.0 -110.0 L 1280.0 -120.0 L 1270.0 -130.0 L 1260.0 -140.0 L 1250.0 -140.0 L 1240.0 -130.0" stroke="#FFFF1F" fill="none" stroke-width="10px" />
<path d="M 0.0 0.0 L 70.0 -160.0" stroke="#0095FF" fill="none" stroke-width="10px" />
<path d="M 80.0 -170.0 L 80.0 -200.0" stroke="#0095FF" fill="none" stroke-width="10px" />
<path d="M 90.0 -200.0 L 250.0 -160.0" stroke="#0095FF" fill="none" stroke-width="10px" />
<path d="M 320.0 -100.0 L 330.0 -150.0" stroke="#0095FF" fill="none" stroke-width="10px" />
<path d="M 330.0 -150.0 L 300.0 -170.0" stroke="#0095FF" fill="none" stroke-width="10px" />
<path d="M 260.0 -170.0 L 460.0 -120.0" stroke="#0095FF" fill="none" stroke-width="10px" />
<path d="M 480.0 -70.0 L 520.0 -110.0" stroke="#0095FF" fill="none" stroke-width="10px" />
<path d="M 520.0 -110.0 L 500.0 -130.0" stroke="#0095FF" fill="none" stroke-width="10px" />
<path d="M 490.0 -140.0 L 540.0 -170.0" stroke="#0095FF" fill="none" stroke-width="10px" />
<path d="M 570.0 -140.0 L 570.0 -180.0" stroke="#0095FF" fill="none" stroke-width="10px" />
<path d="M 580.0 -180.0 L 650.0 -190.0" stroke="#0095FF" fill="none" stroke-width="10px" />
<path d="M 660.0 -220.0 L 660.0 -180.0" stroke="#0095FF" fill="none" stroke-width="10px" />
<path d="M 680.0 -180.0 L 720.0 -170.0" stroke="#0095FF" fill="none" stroke-width="10px" />
<path d="M 750.0 -150.0 L 750.0 -180.0" stroke="#0095FF" fill="none" stroke-width="10px" />
<path d="M 740.0 -190.0 L 860.0 -90.0" stroke="#0095FF" fill="none" stroke-width="10px" />
<path d="M 860.0 -60.0 L 870.0 -80.0" stroke="#0095FF" fill="none" stroke-width="10px" />
<path d="M 870.0 -80.0 L 1000.0 -130.0" stroke="#0095FF" fill="none" stroke-width="10px" />
<path d="M 1090.0 -120.0 L 1080.0 -100.0" stroke="#0095FF" fill="none" stroke-width="10px" />
<path d="M 1070.0 -90.0 L 1050.0 -80.0" stroke="#0095FF" fill="none" stroke-width="10px" />
<path d="M 1040.0 -70.0 L 1040.0 -140.0" stroke="#0095FF" fill="none" stroke-width="10px" />
<path d="M 1050.0 -140.0 L 1050.0 -160.0" stroke="#0095FF" fill="none" stroke-width="10px" />
<path d="M 1020.0 -160.0 L 1060.0 -160.0" stroke="#0095FF" fill="none" stroke-width="10px" />
<path d="M 1060.0 -160.0 L 1080.0 -140.0" stroke="#0095FF" fill="none" stroke-width="10px" />
<path d="M 1080.0 -140.0 L 1230.0 -120.0" stroke="#0095FF" fill="none" stroke-width="10px" />
<path d="M 1250.0 -90.0 L 1250.0 -130.0" stroke="#0095FF" fill="none" stroke-width="10px" />
<path d="M 70.0 -160.0 L 70.0 -170.0" stroke="#FF0000" fill="none" stroke-width="10px" />
<path d="M 70.0 -170.0 L 60.0 -170.0" stroke="#FF0000" fill="none" stroke-width="10px" />
<path d="M 60.0 -170.0 L 60.0 -180.0" stroke="#FF0000" fill="none" stroke-width="10px" />
<path d="M 60.0 -180.0 L 50.0 -180.0" stroke="#FF0000" fill="none" stroke-width="10px" />
<path d="M 50.0 -180.0 L 50.0 -190.0" stroke="#FF0000" fill="none" stroke-width="10px" />
<path d="M 50.0 -190.0 L 60.0 -190.0" stroke="#FF0000" fill="none" stroke-width="10px" />
<path d="M 60.0 -190.0 L 70.0 -190.0" stroke="#FF0000" fill="none" stroke-width="10px" />
<path d="M 70.0 -190.0 L 80.0 -190.0" stroke="#FF0000" fill="none" stroke-width="10px" />
<path d="M 80.0 -190.0 L 90.0 -190.0" stroke="#FF0000" fill="none" stroke-width="10px" />
<path d="M 90.0 -190.0 L 90.0 -180.0" stroke="#FF0000" fill="none" stroke-width="10px" />
<path d="M 90.0 -180.0 L 80.0 -180.0" stroke="#FF0000" fill="none" stroke-width="10px" />
<path d="M 80.0 -180.0 L 70.0 -180.0" stroke="#FF0000" fill="none" stroke-width="10px" />
<path d="M 70.0 -180.0 L 80.0 -170.0" stroke="#FF0000" fill="none" stroke-width="10px" />
<path d="M 80.0 -200.0 L 70.0 -200.0" stroke="#FF0000" fill="none" stroke-width="10px" />
<path d="M 70.0 -200.0 L 60.0 -200.0" stroke="#FF0000" fill="none" stroke-width="10px" />
<path d="M 60.0 -200.0 L 50.0 -200.0" stroke="#FF0000" fill="none" stroke-width="10px" />
<path d="M 50.0 -200.0 L 60.0 -210.0" stroke="#FF0000" fill="none" stroke-width="10px" />
<path d="M 60.0 -210.0 L 70.0 -210.0" stroke="#FF0000" fill="none" stroke-width="10px" />
<path d="M 70.0 -210.0 L 80.0 -210.0" stroke="#FF0000" fill="none" stroke-width="10px" />
<path d="M 80.0 -210.0 L 90.0 -200.0" stroke="#FF0000" fill="none" stroke-width="10px" />
<path d="M 250.0 -160.0 L 260.0 -160.0" stroke="#FF0000" fill="none" stroke-width="10px" />
<path d="M 260.0 -160.0 L 270.0 -160.0" stroke="#FF0000" fill="none" stroke-width="10px" />
<path d="M 270.0 -160.0 L 280.0 -160.0" stroke="#FF0000" fill="none" stroke-width="10px" />
<path d="M 280.0 -160.0 L 290.0 -160.0" stroke="#FF0000" fill="none" stroke-width="10px" />
<path d="M 290.0 -160.0 L 300.0 -160.0" stroke="#FF0000" fill="none" stroke-width="10px" />
<path d="M 300.0 -160.0 L 310.0 -160.0" stroke="#FF0000" fill="none" stroke-width="10px" />
<path d="M 310.0 -160.0 L 320.0 -160.0" stroke="#FF0000" fill="none" stroke-width="10px" />
<path d="M 320.0 -160.0 L 320.0 -150.0" stroke="#FF0000" fill="none" stroke-width="10px" />
<path d="M 320.0 -150.0 L 310.0 -150.0" stroke="#FF0000" fill="none" stroke-width="10px" />
<path d="M 310.0 -150.0 L 300.0 -150.0" stroke="#FF0000" fill="none" stroke-width="10px" />
<path d="M 300.0 -150.0 L 290.0 -150.0" stroke="#FF0000" fill="none" stroke-width="10px" />
<path d="M 290.0 -150.0 L 280.0 -150.0" stroke="#FF0000" fill="none" stroke-width="10px" />
<path d="M 280.0 -150.0 L 270.0 -150.0" stroke="#FF0000" fill="none" stroke-width="10px" />
<path d="M 270.0 -150.0 L 260.0 -150.0" stroke="#FF0000" fill="none" stroke-width="10px" />
<path d="M 260.0 -150.0 L 250.0 -150.0" stroke="#FF0000" fill="none" stroke-width="10px" />
<path d="M 250.0 -150.0 L 250.0 -140.0" stroke="#FF0000" fill="none" stroke-width="10px" />
<path d="M 250.0 -140.0 L 260.0 -140.0" stroke="#FF0000" fill="none" stroke-width="10px" />
<path d="M 260.0 -140.0 L 270.0 -140.0" stroke="#FF0000" fill="none" stroke-width="10px" />
<path d="M 270.0 -140.0 L 280.0 -140.0" stroke="#FF0000" fill="none" stroke-width="10px" />
<path d="M 280.0 -140.0 L 290.0 -140.0" stroke="#FF0000" fill="none" stroke-width="10px" />
<path d="M 290.0 -140.0 L 300.0 -140.0" stroke="#FF0000" fill="none" stroke-width="10px" />
<path d="M 300.0 -140.0 L 310.0 -140.0" stroke="#FF0000" fill="none" stroke-width="10px" />
<path d="M 310.0 -140.0 L 320.0 -140.0" stroke="#FF0000" fill="none" stroke-width="10px" />
<path d="M 320.0 -140.0 L 330.0 -140.0" stroke="#FF0000" fill="none" stroke-width="10px" />
<path d="M 330.0 -140.0 L 340.0 -140.0" stroke="#FF0000" fill="none" stroke-width="10px" />
<path d="M 340.0 -140.0 L 340.0 -130.0" stroke="#FF0000" fill="none" stroke-width="10px" />
<path d="M 340.0 -130.0 L 330.0 -130.0" stroke="#FF0000" fill="none" stroke-width="10px" />
<path d="M 330.0 -130.0 L 320.0 -130.0" stroke="#FF0000" fill="none" stroke-width="10px" />
<path d="M 320.0 -130.0 L 310.0 -130.0" stroke="#FF0000" fill="none" stroke-width="10px" />
<path d="M 310.0 -130.0 L 300.0 -130.0" stroke="#FF0000" fill="none" stroke-width="10px" />
<path d="M 300.0 -130.0 L 290.0 -130.0" stroke="#FF0000" fill="none" stroke-width="10px" />
<path d="M 290.0 -130.0 L 280.0 -130.0" stroke="#FF0000" fill="none" stroke-width="10px" />
<path d="M 280.0 -130.0 L 270.0 -130.0" stroke="#FF0000" fill="none" stroke-width="10px" />
<path d="M 270.0 -130.0 L 260.0 -130.0" stroke="#FF0000" fill="none" stroke-width="10px" />
<path d="M 260.0 -130.0 L 270.0 -120.0" stroke="#FF0000" fill="none" stroke-width="10px" />
<path d="M 270.0 -120.0 L 280.0 -120.0" stroke="#FF0000" fill="none" stroke-width="10px" />
<path d="M 280.0 -120.0 L 290.0 -120.0" stroke="#FF0000" fill="none" stroke-width="10px" />
<path d="M 290.0 -120.0 L 300.0 -120.0" stroke="#FF0000" fill="none" stroke-width="10px" />
<path d="M 300.0 -120.0 L 310.0 -120.0" stroke="#FF0000" fill="none" stroke-width="10px" />
<path d="M 310.0 -120.0 L 320.0 -120.0" stroke="#FF0000" fill="none" stroke-width="10px" />
<path d="M 320.0 -120.0 L 330.0 -120.0" stroke="#FF0000" fill="none" stroke-width="10px" />
<path d="M 330.0 -120.0 L 340.0 -120.0" stroke="#FF0000" fill="none" stroke-width="10px" />
<path d="M 340.0 -120.0 L 330.0 -110.0" stroke="#FF0000" fill="none" stroke-width="10px" />
<path d="M 330.0 -110.0 L 320.0 -110.0" stroke="#FF0000" fill="none" stroke-width="10px" />
<path d="M 320.0 -110.0 L 310.0 -110.0" stroke="#FF0000" fill="none" stroke-width="10px" />
<path d="M 310.0 -110.0 L 300.0 -110.0" stroke="#FF0000" fill="none" stroke-width="10px" />
<path d="M 300.0 -110.0 L 290.0 -110.0" stroke="#FF0000" fill="none" stroke-width="10px" />
<path d="M 290.0 -110.0 L 280.0 -110.0" stroke="#FF0000" fill="none" stroke-width="10px" />
<path d="M 280.0 -110.0 L 270.0 -110.0" stroke="#FF0000" fill="none" stroke-width="10px" />
<path d="M 270.0 -110.0 L 280.0 -100.0" stroke="#FF0000" fill="none" stroke-width="10px" />
<path d="M 280.0 -100.0 L 290.0 -100.0" stroke="#FF0000" fill="none" stroke-width="10px" />
<path d="M 290.0 -100.0 L 300.0 -100.0" stroke="#FF0000" fill="none" stroke-width="10px" />
<path d="M 300.0 -100.0 L 310.0 -100.0" stroke="#FF0000" fill="none" stroke-width="10px" />
<path d="M 310.0 -100.0 L 320.0 -100.0" stroke="#FF0000" fill="none" stroke-width="10px" />
<path d="M 300.0 -170.0 L 290.0 -170.0" stroke="#FF0000" fill="none" stroke-width="10px" />
<path d="M 290.0 -170.0 L 280.0 -170.0" stroke="#FF0000" fill="none" stroke-width="10px" />
<path d="M 280.0 -170.0 L 270.0 -170.0" stroke="#FF0000" fill="none" stroke-width="10px" />
<path d="M 270.0 -170.0 L 260.0 -170.0" stroke="#FF0000" fill="none" stroke-width="10px" />
<path d="M 460.0 -120.0 L 470.0 -120.0" stroke="#FF0000" fill="none" stroke-width="10px" />
<path d="M 470.0 -120.0 L 480.0 -120.0" stroke="#FF0000" fill="none" stroke-width="10px" />
<path d="M 480.0 -120.0 L 490.0 -120.0" stroke="#FF0000" fill="none" stroke-width="10px" />
<path d="M 490.0 -120.0 L 500.0 -120.0" stroke="#FF0000" fill="none" stroke-width="10px" />
<path d="M 500.0 -120.0 L 510.0 -120.0" stroke="#FF0000" fill="none" stroke-width="10px" />
<path d="M 510.0 -120.0 L 510.0 -110.0" stroke="#FF0000" fill="none" stroke-width="10px" />
<path d="M 510.0 -110.0 L 500.0 -110.0" stroke="#FF0000" fill="none" stroke-width="10px" />
<path d="M 500.0 -110.0 L 490.0 -110.0" stroke="#FF0000" fill="none" stroke-width="10px" />
<path d="M 490.0 -110.0 L 480.0 -110.0" stroke="#FF0000" fill="none" stroke-width="10px" />
<path d="M 480.0 -110.0 L 470.0 -110.0" stroke="#FF0000" fill="none" stroke-width="10px" />
<path d="M 470.0 -110.0 L 460.0 -110.0" stroke="#FF0000" fill="none" stroke-width="10px" />
<path d="M 460.0 -110.0 L 460.0 -100.0" stroke="#FF0000" fill="none" stroke-width="10px" />
<path d="M 460.0 -100.0 L 470.0 -100.0" stroke="#FF0000" fill="none" stroke-width="10px" />
<path d="M 470.0 -100.0 L 480.0 -100.0" stroke="#FF0000" fill="none" stroke-width="10px" />
<path d="M 480.0 -100.0 L 490.0 -100.0" stroke="#FF0000" fill="none" stroke-width="10px" />
<path d="M 490.0 -100.0 L 500.0 -100.0" stroke="#FF0000" fill="none" stroke-width="10px" />
<path d="M 500.0 -100.0 L 510.0 -100.0" stroke="#FF0000" fill="none" stroke-width="10px" />
<path d="M 510.0 -100.0 L 520.0 -100.0" stroke="#FF0000" fill="none" stroke-width="10px" />
<path d="M 520.0 -100.0 L 530.0 -100.0" stroke="#FF0000" fill="none" stroke-width="10px" />
<path d="M 530.0 -100.0 L 520.0 -90.0" stroke="#FF0000" fill="none" stroke-width="10px" />
<path d="M 520.0 -90.0 L 510.0 -90.0" stroke="#FF0000" fill="none" stroke-width="10px" />
<path d="M 510.0 -90.0 L 500.0 -90.0" stroke="#FF0000" fill="none" stroke-width="10px" />
<path d="M 500.0 -90.0 L 490.0 -90.0" stroke="#FF0000" fill="none" stroke-width="10px" />
<path d="M 490.0 -90.0 L 480.0 -90.0" stroke="#FF0000" fill="none" stroke-width="10px" />
<path d="M 480.0 -90.0 L 470.0 -90.0" stroke="#FF0000" fill="none" stroke-width="10px" />
<path d="M 470.0 -90.0 L 460.0 -90.0" stroke="#FF0000" fill="none" stroke-width="10px" />
<path d="M 460.0 -90.0 L 470.0 -80.0" stroke="#FF0000" fill="none" stroke-width="10px" />
<path d="M 470.0 -80.0 L 480.0 -80.0" stroke="#FF0000" fill="none" stroke-width="10px" />
<path d="M 480.0 -80.0 L 490.0 -80.0" stroke="#FF0000" fill="none" stroke-width="10px" />
<path d="M 490.0 -80.0 L 500.0 -80.0" stroke="#FF0000" fill="none" stroke-width="10px" />
<path d="M 500.0 -80.0 L 510.0 -80.0" stroke="#FF0000" fill="none" stroke-width="10px" />
<path d="M 510.0 -80.0 L 500.0 -70.0" stroke="#FF0000" fill="none" stroke-width="10px" />
<path d="M 500.0 -70.0 L 490.0 -70.0" stroke="#FF0000" fill="none" stroke-width="10px" />
<path d="M 490.0 -70.0 L 480.0 -70.0" stroke="#FF0000" fill="none" stroke-width="10px" />
<path d="M 500.0 -130.0 L 490.0 -130.0" stroke="#FF0000" fill="none" stroke-width="10px" />
<path d="M 490.0 -130.0 L 480.0 -130.0" stroke="#FF0000" fill="none" stroke-width="10px" />
<path d="M 480.0 -130.0 L 470.0 -130.0" stroke="#FF0000" fill="none" stroke-width="10px" />
<path d="M 470.0 -130.0 L 480.0 -140.0" stroke="#FF0000" fill="none" stroke-width="10px" />
<path d="M 480.0 -140.0 L 490.0 -140.0" stroke="#FF0000" fill="none" stroke-width="10px" />
<path d="M 540.0 -170.0 L 550.0 -170.0" stroke="#FF0000" fill="none" stroke-width="10px" />
<path d="M 550.0 -170.0 L 560.0 -170.0" stroke="#FF0000" fill="none" stroke-width="10px" />
<path d="M 560.0 -170.0 L 570.0 -170.0" stroke="#FF0000" fill="none" stroke-width="10px" />
<path d="M 570.0 -170.0 L 580.0 -170.0" stroke="#FF0000" fill="none" stroke-width="10px" />
<path d="M 580.0 -170.0 L 590.0 -170.0" stroke="#FF0000" fill="none" stroke-width="10px" />
<path d="M 590.0 -170.0 L 590.0 -160.0" stroke="#FF0000" fill="none" stroke-width="10px" />
<path d="M 590.0 -160.0 L 580.0 -160.0" stroke="#FF0000" fill="none" stroke-width="10px" />
<path d="M 580.0 -160.0 L 570.0 -160.0" stroke="#FF0000" fill="none" stroke-width="10px" />
<path d="M 570.0 -160.0 L 560.0 -160.0" stroke="#FF0000" fill="none" stroke-width="10px" />
<path d="M 560.0 -160.0 L 550.0 -160.0" stroke="#FF0000" fill="none" stroke-width="10px" />
<path d="M 550.0 -160.0 L 560.0 -150.0" stroke="#FF0000" fill="none" stroke-width="10px" />
<path d="M 560.0 -150.0 L 570.0 -150.0" stroke="#FF0000" fill="none" stroke-width="10px" />
<path d="M 570.0 -150.0 L 580.0 -150.0" stroke="#FF0000" fill="none" stroke-width="10px" />
<path d="M 580.0 -150.0 L 570.0 -140.0" stroke="#FF0000" fill="none" stroke-width="10px" />
<path d="M 570.0 -180.0 L 560.0 -180.0" stroke="#FF0000" fill="none" stroke-width="10px" />
<path d="M 560.0 -180.0 L 550.0 -180.0" stroke="#FF0000" fill="none" stroke-width="10px" />
<path d="M 550.0 -180.0 L 560.0 -190.0" stroke="#FF0000" fill="none" stroke-width="10px" />
<path d="M 560.0 -190.0 L 570.0 -190.0" stroke="#FF0000" fill="none" stroke-width="10px" />
<path d="M 570.0 -190.0 L 580.0 -180.0" stroke="#FF0000" fill="none" stroke-width="10px" />
<path d="M 650.0 -190.0 L 660.0 -190.0" stroke="#FF0000" fill="none" stroke-width="10px" />
<path d="M 660.0 -190.0 L 670.0 -190.0" stroke="#FF0000" fill="none" stroke-width="10px" />
<path d="M 670.0 -190.0 L 680.0 -190.0" stroke="#FF0000" fill="none" stroke-width="10px" />
<path d="M 680.0 -190.0 L 690.0 -190.0" stroke="#FF0000" fill="none" stroke-width="10px" />
<path d="M 690.0 -190.0 L 690.0 -200.0" stroke="#FF0000" fill="none" stroke-width="10px" />
<path d="M 690.0 -200.0 L 680.0 -200.0" stroke="#FF0000" fill="none" stroke-width="10px" />
<path d="M 680.0 -200.0 L 670.0 -200.0" stroke="#FF0000" fill="none" stroke-width="10px" />
<path d="M 670.0 -200.0 L 660.0 -200.0" stroke="#FF0000" fill="none" stroke-width="10px" />
<path d="M 660.0 -200.0 L 650.0 -200.0" stroke="#FF0000" fill="none" stroke-width="10px" />
<path d="M 650.0 -200.0 L 650.0 -210.0" stroke="#FF0000" fill="none" stroke-width="10px" />
<path d="M 650.0 -210.0 L 660.0 -210.0" stroke="#FF0000" fill="none" stroke-width="10px" />
<path d="M 660.0 -210.0 L 670.0 -210.0" stroke="#FF0000" fill="none" stroke-width="10px" />
<path d="M 670.0 -210.0 L 680.0 -210.0" stroke="#FF0000" fill="none" stroke-width="10px" />
<path d="M 680.0 -210.0 L 670.0 -220.0" stroke="#FF0000" fill="none" stroke-width="10px" />
<path d="M 670.0 -220.0 L 660.0 -220.0" stroke="#FF0000" fill="none" stroke-width="10px" />
<path d="M 660.0 -180.0 L 670.0 -180.0" stroke="#FF0000" fill="none" stroke-width="10px" />
<path d="M 670.0 -180.0 L 680.0 -180.0" stroke="#FF0000" fill="none" stroke-width="10px" />
<path d="M 720.0 -170.0 L 730.0 -170.0" stroke="#FF0000" fill="none" stroke-width="10px" />
<path d="M 730.0 -170.0 L 740.0 -170.0" stroke="#FF0000" fill="none" stroke-width="10px" />
<path d="M 740.0 -170.0 L 750.0 -170.0" stroke="#FF0000" fill="none" stroke-width="10px" />
<path d="M 750.0 -170.0 L 760.0 -170.0" stroke="#FF0000" fill="none" stroke-width="10px" />
<path d="M 760.0 -170.0 L 760.0 -160.0" stroke="#FF0000" fill="none" stroke-width="10px" />
<path d="M 760.0 -160.0 L 750.0 -160.0" stroke="#FF0000" fill="none" stroke-width="10px" />
<path d="M 750.0 -160.0 L 740.0 -160.0" stroke="#FF0000" fill="none" stroke-width="10px" />
<path d="M 740.0 -160.0 L 730.0 -160.0" stroke="#FF0000" fill="none" stroke-width="10px" />
<path d="M 730.0 -160.0 L 740.0 -150.0" stroke="#FF0000" fill="none" stroke-width="10px" />
<path d="M 740.0 -150.0 L 750.0 -150.0" stroke="#FF0000" fill="none" stroke-width="10px" />
<path d="M 750.0 -180.0 L 740.0 -180.0" stroke="#FF0000" fill="none" stroke-width="10px" />
<path d="M 740.0 -180.0 L 730.0 -180.0" stroke="#FF0000" fill="none" stroke-width="10px" />
<path d="M 730.0 -180.0 L 740.0 -190.0" stroke="#FF0000" fill="none" stroke-width="10px" />
<path d="M 860.0 -90.0 L 860.0 -80.0" stroke="#FF0000" fill="none" stroke-width="10px" />
<path d="M 860.0 -80.0 L 850.0 -80.0" stroke="#FF0000" fill="none" stroke-width="10px" />
<path d="M 850.0 -80.0 L 850.0 -70.0" stroke="#FF0000" fill="none" stroke-width="10px" />
<path d="M 850.0 -70.0 L 860.0 -70.0" stroke="#FF0000" fill="none" stroke-width="10px" />
<path d="M 860.0 -70.0 L 870.0 -70.0" stroke="#FF0000" fill="none" stroke-width="10px" />
<path d="M 870.0 -70.0 L 880.0 -70.0" stroke="#FF0000" fill="none" stroke-width="10px" />
<path d="M 880.0 -70.0 L 870.0 -60.0" stroke="#FF0000" fill="none" stroke-width="10px" />
<path d="M 870.0 -60.0 L 860.0 -60.0" stroke="#FF0000" fill="none" stroke-width="10px" />
<path d="M 1000.0 -130.0 L 1010.0 -130.0" stroke="#FF0000" fill="none" stroke-width="10px" />
<path d="M 1010.0 -130.0 L 1020.0 -130.0" stroke="#FF0000" fill="none" stroke-width="10px" />
<path d="M 1020.0 -130.0 L 1030.0 -130.0" stroke="#FF0000" fill="none" stroke-width="10px" />
<path d="M 1030.0 -130.0 L 1040.0 -130.0" stroke="#FF0000" fill="none" stroke-width="10px" />
<path d="M 1040.0 -130.0 L 1050.0 -130.0" stroke="#FF0000" fill="none" stroke-width="10px" />
<path d="M 1050.0 -130.0 L 1060.0 -130.0" stroke="#FF0000" fill="none" stroke-width="10px" />
<path d="M 1060.0 -130.0 L 1070.0 -130.0" stroke="#FF0000" fill="none" stroke-width="10px" />
<path d="M 1070.0 -130.0 L 1080.0 -130.0" stroke="#FF0000" fill="none" stroke-width="10px" />
<path d="M 1080.0 -130.0 L 1080.0 -120.0" stroke="#FF0000" fill="none" stroke-width="10px" />
<path d="M 1080.0 -120.0 L 1070.0 -120.0" stroke="#FF0000" fill="none" stroke-width="10px" />
<path d="M 1070.0 -120.0 L 1060.0 -120.0" stroke="#FF0000" fill="none" stroke-width="10px" />
<path d="M 1060.0 -120.0 L 1050.0 -120.0" stroke="#FF0000" fill="none" stroke-width="10px" />
<path d="M 1050.0 -120.0 L 1040.0 -120.0" stroke="#FF0000" fill="none" stroke-width="10px" />
<path d="M 1040.0 -120.0 L 1030.0 -120.0" stroke="#FF0000" fill="none" stroke-width="10px" />
<path d="M 1030.0 -120.0 L 1020.0 -120.0" stroke="#FF0000" fill="none" stroke-width="10px" />
<path d="M 1020.0 -120.0 L 1010.0 -120.0" stroke="#FF0000" fill="none" stroke-width="10px" />
<path d="M 1010.0 -120.0 L 1020.0 -110.0" stroke="#FF0000" fill="none" stroke-width="10px" />
<path d="M 1020.0 -110.0 L 1030.0 -110.0" stroke="#FF0000" fill="none" stroke-width="10px" />
<path d="M 1030.0 -110.0 L 1040.0 -110.0" stroke="#FF0000" fill="none" stroke-width="10px" />
<path d="M 1040.0 -110.0 L 1050.0 -110.0" stroke="#FF0000" fill="none" stroke-width="10px" />
<path d="M 1050.0 -110.0 L 1060.0 -110.0" stroke="#FF0000" fill="none" stroke-width="10px" />
<path d="M 1060.0 -110.0 L 1070.0 -110.0" stroke="#FF0000" fill="none" stroke-width="10px" />
<path d="M 1070.0 -110.0 L 1080.0 -110.0" stroke="#FF0000" fill="none" stroke-width="10px" />
<path d="M 1080.0 -110.0 L 1090.0 -110.0" stroke="#FF0000" fill="none" stroke-width="10px" />
<path d="M 1090.0 -110.0 L 1090.0 -120.0" stroke="#FF0000" fill="none" stroke-width="10px" />
<path d="M 1080.0 -100.0 L 1070.0 -100.0" stroke="#FF0000" fill="none" stroke-width="10px" />
<path d="M 1070.0 -100.0 L 1060.0 -100.0" stroke="#FF0000" fill="none" stroke-width="10px" />
<path d="M 1060.0 -100.0 L 1050.0 -100.0" stroke="#FF0000" fill="none" stroke-width="10px" />
<path d="M 1050.0 -100.0 L 1040.0 -100.0" stroke="#FF0000" fill="none" stroke-width="10px" />
<path d="M 1040.0 -100.0 L 1030.0 -100.0" stroke="#FF0000" fill="none" stroke-width="10px" />
<path d="M 1030.0 -100.0 L 1020.0 -100.0" stroke="#FF0000" fill="none" stroke-width="10px" />
<path d="M 1020.0 -100.0 L 1020.0 -90.0" stroke="#FF0000" fill="none" stroke-width="10px" />
<path d="M 1020.0 -90.0 L 1030.0 -90.0" stroke="#FF0000" fill="none" stroke-width="10px" />
<path d="M 1030.0 -90.0 L 1040.0 -90.0" stroke="#FF0000" fill="none" stroke-width="10px" />
<path d="M 1040.0 -90.0 L 1050.0 -90.0" stroke="#FF0000" fill="none" stroke-width="10px" />
<path d="M 1050.0 -90.0 L 1060.0 -90.0" stroke="#FF0000" fill="none" stroke-width="10px" />
<path d="M 1060.0 -90.0 L 1070.0 -90.0" stroke="#FF0000" fill="none" stroke-width="10px" />
<path d="M 1050.0 -80.0 L 1040.0 -80.0" stroke="#FF0000" fill="none" stroke-width="10px" />
<path d="M 1040.0 -80.0 L 1030.0 -80.0" stroke="#FF0000" fill="none" stroke-width="10px" />
<path d="M 1030.0 -80.0 L 1040.0 -70.0" stroke="#FF0000" fill="none" stroke-width="10px" />
<path d="M 1040.0 -140.0 L 1030.0 -140.0" stroke="#FF0000" fill="none" stroke-width="10px" />
<path d="M 1030.0 -140.0 L 1020.0 -140.0" stroke="#FF0000" fill="none" stroke-width="10px" />
<path d="M 1020.0 -140.0 L 1010.0 -140.0" stroke="#FF0000" fill="none" stroke-width="10px" />
<path d="M 1010.0 -140.0 L 1000.0 -140.0" stroke="#FF0000" fill="none" stroke-width="10px" />
<path d="M 1000.0 -140.0 L 1010.0 -150.0" stroke="#FF0000" fill="none" stroke-width="10px" />
<path d="M 1010.0 -150.0 L 1020.0 -150.0" stroke="#FF0000" fill="none" stroke-width="10px" />
<path d="M 1020.0 -150.0 L 1030.0 -150.0" stroke="#FF0000" fill="none" stroke-width="10px" />
<path d="M 1030.0 -150.0 L 1040.0 -150.0" stroke="#FF0000" fill="none" stroke-width="10px" />
<path d="M 1040.0 -150.0 L 1050.0 -150.0" stroke="#FF0000" fill="none" stroke-width="10px" />
<path d="M 1050.0 -150.0 L 1060.0 -150.0" stroke="#FF0000" fill="none" stroke-width="10px" />
<path d="M 1060.0 -150.0 L 1070.0 -150.0" stroke="#FF0000" fill="none" stroke-width="10px" />
<path d="M 1070.0 -150.0 L 1070.0 -140.0" stroke="#FF0000" fill="none" stroke-width="10px" />
<path d="M 1070.0 -140.0 L 1060.0 -140.0" stroke="#FF0000" fill="none" stroke-width="10px" />
<path d="M 1060.0 -140.0 L 1050.0 -140.0" stroke="#FF0000" fill="none" stroke-width="10px" />
<path d="M 1050.0 -160.0 L 1040.0 -160.0" stroke="#FF0000" fill="none" stroke-width="10px" />
<path d="M 1040.0 -160.0 L 1030.0 -160.0" stroke="#FF0000" fill="none" stroke-width="10px" />
<path d="M 1030.0 -160.0 L 1020.0 -160.0" stroke="#FF0000" fill="none" stroke-width="10px" />
<path d="M 1230.0 -120.0 L 1240.0 -120.0" stroke="#FF0000" fill="none" stroke-width="10px" />
<path d="M 1240.0 -120.0 L 1250.0 -120.0" stroke="#FF0000" fill="none" stroke-width="10px" />
<path d="M 1250.0 -120.0 L 1260.0 -120.0" stroke="#FF0000" fill="none" stroke-width="10px" />
<path d="M 1260.0 -120.0 L 1270.0 -120.0" stroke="#FF0000" fill="none" stroke-width="10px" />
<path d="M 1270.0 -120.0 L 1280.0 -120.0" stroke="#FF0000" fill="none" stroke-width="10px" />
<path d="M 1280.0 -120.0 L 1280.0 -110.0" stroke="#FF0000" fill="none" stroke-width="10px" />
<path d="M 1280.0 -110.0 L 1270.0 -110.0" stroke="#FF0000" fill="none" stroke-width="10px" />
<path d="M 1270.0 -110.0 L 1260.0 -110.0" stroke="#FF0000" fill="none" stroke-width="10px" />
<path d="M 1260.0 -110.0 L 1250.0 -110.0" stroke="#FF0000" fill="none" stroke-width="10px" />
<path d="M 1250.0 -110.0 L 1240.0 -110.0" stroke="#FF0000" fill="none" stroke-width="10px" />
<path d="M 1240.0 -110.0 L 1240.0 -100.0" stroke="#FF0000" fill="none" stroke-width="10px" />
<path d="M 1240.0 -100.0 L 1250.0 -100.0" stroke="#FF0000" fill="none" stroke-width="10px" />
<path d="M 1250.0 -100.0 L 1260.0 -100.0" stroke="#FF0000" fill="none" stroke-width="10px" />
<path d="M 1260.0 -100.0 L 1270.0 -100.0" stroke="#FF0000" fill="none" stroke-width="10px" />
<path d="M 1270.0 -100.0 L 1280.0 -100.0" stroke="#FF0000" fill="none" stroke-width="10px" />
<path d="M 1280.0 -100.0 L 1270.0 -90.0" stroke="#FF0000" fill="none" stroke-width="10px" />
<path d="M 1270.0 -90.0 L 1260.0 -90.0" stroke="#FF0000" fill="none" stroke-width="10px" />
<path d="M 1260.0 -90.0 L 1250.0 -90.0" stroke="#FF0000" fill="none" stroke-width="10px" />
<path d="M 1250.0 -130.0 L 1240.0 -130.0" stroke="#FF0000" fill="none" stroke-width="10px" />
<path d="M 1240.0 -130.0 L 1250.0 -140.0" stroke="#FF0000" fill="none" stroke-width="10px" />
<path d="M 1250.0 -140.0 L 1260.0 -140.0" stroke="#FF0000" fill="none" stroke-width="10px" />
<path d="M 1260.0 -140.0 L 1260.0 -130.0" stroke="#FF0000" fill="none" stroke-width="10px" />
<path d="M 1260.0 -130.0 L 1270.0 -130.0" stroke="#FF0000" fill="none" stroke-width="10px" />
</svg>