<svg width="2894.54166667" height="235.0" xmlns="http://www.w3.org/2000/svg" version="1.1">
<path d="M 0.0 235.0 L 1805.0 235.0 L 1805.0 0.0 L 0.0 0.0 L 0.0 235.0" stroke="#000000" fill="none" stroke-width="3px" />
<path d="M 2894.54166667 235.0 L 1705.0 235.0 L 1705.0 0.0 L 2894.54166667 0.0 L 2894.54166667 235.0" stroke="#000000" fill="none" stroke-width="3px" />
<path d="M 10.0 257.5 L 0.0 247.5 L 10.0 237.5" stroke="#969696" fill="none" stroke-width="1px" />
<path d="M 10.0 237.5 L 1795.0 237.5" stroke="#969696" fill="none" stroke-width="1px" />
<path d="M 1795.0 237.5 L 1805.0 227.5 L 1795.0 217.5" stroke="#969696" fill="none" stroke-width="1px" />
<path d="M 1795.0 217.5 L 10.0 217.5" stroke="#969696" fill="none" stroke-width="1px" />
<path d="M 10.0 217.5 L 0.0 207.5 L 10.0 197.5" stroke="#969696" fill="none" stroke-width="1px" />
<path d="M 10.0 197.5 L 1795.0 197.5" stroke="#969696" fill="none" stroke-width="1px" />
<path d="M 1795.0 197.5 L 1805.0 187.5 L 1795.0 177.5" stroke="#969696" fill="none" stroke-width="1px" />
<path d="M 1795.0 177.5 L 10.0 177.5" stroke="#969696" fill="none" stroke-width="1px" />
<path d="M 10.0 177.5 L 0.0 167.5 L 10.0 157.5" stroke="#969696" fill="none" stroke-width="1px" />
<path d="M 10.0 157.5 L 1795.0 157.5" stroke="#969696" fill="none" stroke-width="1px" />
<path d="M 1795.0 157.5 L 1805.0 147.5 L 1795.0 137.5" stroke="#969696" fill="none" stroke-width="1px" />
<path d="M 1795.0 137.5 L 10.0 137.5" stroke="#969696" fill="none" stroke-width="1px" />
<path d="M 10.0 137.5 L 0.0 127.5 L 10.0 117.5" stroke="#969696" fill="none" stroke-width="1px" />
<path d="M 10.0 117.5 L 1795.0 117.5" stroke="#969696" fill="none" stroke-width="1px" />
<path d="M 1795.0 117.5 L 1805.0 107.5 L 1795.0 97.5" stroke="#969696" fill="none" stroke-width="1px" />
<path d="M 1795.0 97.5 L 10.0 97.5" stroke="#969696" fill="none" stroke-width="1px" />
<path d="M 10.0 97.5 L 0.0 87.5 L 10.0 77.5" stroke="#969696" fill="none" stroke-width="1px" />
<path d="M 10.0 77.5 L 1795.0 77.5" stroke="#969696" fill="none" stroke-width="1px" />
<path d="M 1795.0 77.5 L 1805.0 67.5 L 1795.0 57.5" stroke="#969696" fill="none" stroke-width="1px" />
<path d="M 1795.0 57.5 L 10.0 57.5" stroke="#969696" fill="none" stroke-width="1px" />
<path d="M 10.0 57.5 L 0.0 47.5 L 10.0 37.5" stroke="#969696" fill="none" stroke-width="1px" />
<path d="M 10.0 37.5 L 1795.0 37.5" stroke="#969696" fill="none" stroke-width="1px" />
<path d="M 1795.0 37.5 L 1805.0 27.5 L 1795.0 17.5" stroke="#969696" fill="none" stroke-width="1px" />
<path d="M 1795.0 17.5 L 10.0 17.5" stroke="#969696" fill="none" stroke-width="1px" />
<path d="M 10.0 17.5 L 0.0 7.5 L 10.0 -2.5" stroke="#969696" fill="none" stroke-width="1px" />
<path d="M 10.0 -2.5 L 1795.0 -2.5" stroke="#969696" fill="none" stroke-width="1px" />
<path d="M 1795.0 -2.5 L 1805.0 -12.5 L 1795.0 -22.5" stroke="#969696" fill="none" stroke-width="1px" />
<path d="M 2884.54166667 257.5 L 2894.54166667 247.5 L 2884.54166667 237.5" stroke="#969696" fill="none" stroke-width="1px" />
<path d="M 2884.54166667 237.5 L 1715.0 237.5" stroke="#969696" fill="none" stroke-width="1px" />
<path d="M 1715.0 237.5 L 1705.0 227.5 L 1715.0 217.5" stroke="#969696" fill="none" stroke-width="1px" />
<path d="M 1715.0 217.5 L 2884.54166667 217.5" stroke="#969696" fill="none" stroke-width="1px" />
<path d="M 2884.54166667 217.5 L 2894.54166667 207.5 L 2884.54166667 197.5" stroke="#969696" fill="none" stroke-width="1px" />
<path d="M 2884.54166667 197.5 L 1715.0 197.5" stroke="#969696" fill="none" stroke-width="1px" />
<path d="M 1715.0 197.5 L 1705.0 187.5 L 1715.0 177.5" stroke="#969696" fill="none" stroke-width="1px" />
<path d="M 1715.0 177.5 L 2884.54166667 177.5" stroke="#969696" fill="none" stroke-width="1px" />
<path d="M 2884.54166667 177.5 L 2894.54166667 167.5 L 2884.54166667 157.5" stroke="#969696" fill="none" stroke-width="1px" />
<path d="M 2884.54166667 157.5 L 1715.0 157.5" stroke="#969696" fill="none" stroke-width="1px" />
<path d="M 1715.0 157.5 L 1705.0 147.5 L 1715.0 137.5" stroke="#969696" fill="none" stroke-width="1px" />
<path d="M 1715.0 137.5 L 2884.54166667 137.5" stroke="#969696" fill="none" stroke-width="1px" />
<path d="M 2884.54166667 137.5 L 2894.54166667 127.5 L 2884.54166667 117.5" stroke="#969696" fill="none" stroke-width="1px" />
<path d="M 2884.54166667 117.5 L 1715.0 117.5" stroke="#969696" fill="none" stroke-width="1px" />
<path d="M 1715.0 117.5 L 1705.0 107.5 L 1715.0 97.5" stroke="#969696" fill="none" stroke-width="1px" />
<path d="M 1715.0 97.5 L 2884.54166667 97.5" stroke="#969696" fill="none" stroke-width="1px" />
<path d="M 2884.54166667 97.5 L 2894.54166667 87.5 L 2884.54166667 77.5" stroke="#969696" fill="none" stroke-width="1px" />
<path d="M 2884.54166667 77.5 L 1715.0 77.5" stroke="#969696" fill="none" stroke-width="1px" />
<path d="M 1715.0 77.5 L 1705.0 67.5 L 1715.0 57.5" stroke="#969696" fill="none" stroke-width="1px" />
<path d="M 1715.0 57.5 L 2884.54166667 57.5" stroke="#969696" fill="none" stroke-width="1px" />
<path d="M 2884.54166667 57.5 L 2894.54166667 47.5 L 2884.54166667 37.5" stroke="#969696" fill="none" stroke-width="1px" />
<path d="M 2884.54166667 37.5 L 1715.0 37.5" stroke="#969696" fill="none" stroke-width="1px" />
<path d="M 1715.0 37.5 L 1705.0 27.5 L 1715.0 17.5" stroke="#969696" fill="none" stroke-width="1px" />
<path d="M 1715.0 17.5 L 2884.54166667 17.5" stroke="#969696" fill="none" stroke-width="1px" />
<path d="M 2884.54166667 17.5 L 2894.54166667 7.5 L 2884.54166667 -2.5" stroke="#969696" fill="none" stroke-width="1px" />
<path d="M 2884.54166667 -2.5 L 1715.0 -2.5" stroke="#969696" fill="none" stroke-width="1px" />
<path d="M 1715.0 -2.5 L 1705.0 -12.5 L 1715.0 -22.5" stroke="#969696" fill="none" stroke-width="1px" />
<path d="M 0.0 235.0 L 1000.0 95.0" stroke="#0095FF" fill="none" stroke-width="2px" />
<path d="M 1030.0 55.0 L 1030.0 105.0" stroke="#0095FF" fill="none" stroke-width="2px" />
<path d="M 2894.54166667 235.0 L 2880.0 125.0" stroke="#0095FF" fill="none" stroke-width="2px" />
<path d="M 2860.0 105.0 L 2880.0 115.0" stroke="#0095FF" fill="none" stroke-width="2px" />
<path d="M 2890.0 115.0 L 2890.0 85.0" stroke="#0095FF" fill="none" stroke-width="2px" />
<path d="M 2860.0 65.0 L 2690.0 125.0" stroke="#0095FF" fill="none" stroke-width="2px" />
<path d="M 2650.0 165.0 L 2650.0 115.0" stroke="#0095FF" fill="none" stroke-width="2px" />
<path d="M 2680.0 115.0 L 2660.0 95.0" stroke="#0095FF" fill="none" stroke-width="2px" />
<path d="M 2650.0 95.0 L 2420.0 105.0" stroke="#0095FF" fill="none" stroke-width="2px" />
<path d="M 2400.0 135.0 L 2400.0 95.0" stroke="#0095FF" fill="none" stroke-width="2px" />
<path d="M 1000.0 95.0 L 1010.0 95.0" stroke="#FF0000" fill="none" stroke-width="4px" />
<path d="M 1010.0 95.0 L 1020.0 95.0" stroke="#FF0000" fill="none" stroke-width="4px" />
<path d="M 1020.0 95.0 L 1030.0 95.0" stroke="#FF0000" fill="none" stroke-width="4px" />
<path d="M 1030.0 95.0 L 1040.0 95.0" stroke="#FF0000" fill="none" stroke-width="4px" />
<path d="M 1040.0 95.0 L 1050.0 95.0" stroke="#FF0000" fill="none" stroke-width="4px" />
<path d="M 1050.0 95.0 L 1060.0 95.0" stroke="#FF0000" fill="none" stroke-width="4px" />
<path d="M 1060.0 95.0 L 1060.0 85.0" stroke="#FF0000" fill="none" stroke-width="4px" />
<path d="M 1060.0 85.0 L 1050.0 85.0" stroke="#FF0000" fill="none" stroke-width="4px" />
<path d="M 1050.0 85.0 L 1040.0 85.0" stroke="#FF0000" fill="none" stroke-width="4px" />
<path d="M 1040.0 85.0 L 1030.0 85.0" stroke="#FF0000" fill="none" stroke-width="4px" />
<path d="M 1030.0 85.0 L 1020.0 85.0" stroke="#FF0000" fill="none" stroke-width="4px" />
<path d="M 1020.0 85.0 L 1010.0 85.0" stroke="#FF0000" fill="none" stroke-width="4px" />
<path d="M 1010.0 85.0 L 1000.0 85.0" stroke="#FF0000" fill="none" stroke-width="4px" />
<path d="M 1000.0 85.0 L 1000.0 75.0" stroke="#FF0000" fill="none" stroke-width="4px" />
<path d="M 1000.0 75.0 L 1010.0 75.0" stroke="#FF0000" fill="none" stroke-width="4px" />
<path d="M 1010.0 75.0 L 1020.0 75.0" stroke="#FF0000" fill="none" stroke-width="4px" />
<path d="M 1020.0 75.0 L 1030.0 75.0" stroke="#FF0000" fill="none" stroke-width="4px" />
<path d="M 1030.0 75.0 L 1040.0 75.0" stroke="#FF0000" fill="none" stroke-width="4px" />
<path d="M 1040.0 75.0 L 1050.0 75.0" stroke="#FF0000" fill="none" stroke-width="4px" />
<path d="M 1050.0 75.0 L 1040.0 65.0" stroke="#FF0000" fill="none" stroke-width="4px" />
<path d="M 1040.0 65.0 L 1030.0 65.0" stroke="#FF0000" fill="none" stroke-width="4px" />
<path d="M 1030.0 65.0 L 1020.0 65.0" stroke="#FF0000" fill="none" stroke-width="4px" />
<path d="M 1020.0 65.0 L 1010.0 65.0" stroke="#FF0000" fill="none" stroke-width="4px" />
<path d="M 1010.0 65.0 L 1020.0 55.0" stroke="#FF0000" fill="none" stroke-width="4px" />
<path d="M 1020.0 55.0 L 1030.0 55.0" stroke="#FF0000" fill="none" stroke-width="4px" />
<path d="M 1030.0 105.0 L 1020.0 105.0" stroke="#FF0000" fill="none" stroke-width="4px" />
<path d="M 1020.0 105.0 L 1010.0 105.0" stroke="#FF0000" fill="none" stroke-width="4px" />
<path d="M 1010.0 105.0 L 1020.0 115.0" stroke="#FF0000" fill="none" stroke-width="4px" />
<path d="M 1020.0 115.0 L 1030.0 115.0" stroke="#FF0000" fill="none" stroke-width="4px" />
<path d="M 1030.0 115.0 L 1040.0 115.0" stroke="#FF0000" fill="none" stroke-width="4px" />
<path d="M 1040.0 115.0 L 1040.0 105.0" stroke="#FF0000" fill="none" stroke-width="4px" />
<path d="M 1040.0 105.0 L 1050.0 105.0" stroke="#FF0000" fill="none" stroke-width="4px" />
<path d="M 2880.0 125.0 L 2870.0 125.0" stroke="#FF0000" fill="none" stroke-width="4px" />
<path d="M 2870.0 125.0 L 2870.0 115.0" stroke="#FF0000" fill="none" stroke-width="4px" />
<path d="M 2870.0 115.0 L 2860.0 115.0" stroke="#FF0000" fill="none" stroke-width="4px" />
<path d="M 2860.0 115.0 L 2850.0 115.0" stroke="#FF0000" fill="none" stroke-width="4px" />
<path d="M 2850.0 115.0 L 2850.0 105.0" stroke="#FF0000" fill="none" stroke-width="4px" />
<path d="M 2850.0 105.0 L 2840.0 105.0" stroke="#FF0000" fill="none" stroke-width="4px" />
<path d="M 2840.0 105.0 L 2840.0 95.0" stroke="#FF0000" fill="none" stroke-width="4px" />
<path d="M 2840.0 95.0 L 2850.0 95.0" stroke="#FF0000" fill="none" stroke-width="4px" />
<path d="M 2850.0 95.0 L 2860.0 95.0" stroke="#FF0000" fill="none" stroke-width="4px" />
<path d="M 2860.0 95.0 L 2870.0 95.0" stroke="#FF0000" fill="none" stroke-width="4px" />
<path d="M 2870.0 95.0 L 2880.0 95.0" stroke="#FF0000" fill="none" stroke-width="4px" />
<path d="M 2880.0 95.0 L 2890.0 95.0" stroke="#FF0000" fill="none" stroke-width="4px" />
<path d="M 2890.0 95.0 L 2890.0 105.0" stroke="#FF0000" fill="none" stroke-width="4px" />
<path d="M 2890.0 105.0 L 2880.0 105.0" stroke="#FF0000" fill="none" stroke-width="4px" />
<path d="M 2880.0 105.0 L 2870.0 105.0" stroke="#FF0000" fill="none" stroke-width="4px" />
<path d="M 2870.0 105.0 L 2860.0 105.0" stroke="#FF0000" fill="none" stroke-width="4px" />
<path d="M 2880.0 115.0 L 2890.0 115.0" stroke="#FF0000" fill="none" stroke-width="4px" />
<path d="M 2890.0 85.0 L 2880.0 85.0" stroke="#FF0000" fill="none" stroke-width="4px" />
<path d="M 2880.0 85.0 L 2870.0 85.0" stroke="#FF0000" fill="none" stroke-width="4px" />
<path d="M 2870.0 85.0 L 2860.0 85.0" stroke="#FF0000" fill="none" stroke-width="4px" />
<path d="M 2860.0 85.0 L 2850.0 85.0" stroke="#FF0000" fill="none" stroke-width="4px" />
<path d="M 2850.0 85.0 L 2840.0 85.0" stroke="#FF0000" fill="none" stroke-width="4px" />
<path d="M 2840.0 85.0 L 2850.0 75.0" stroke="#FF0000" fill="none" stroke-width="4px" />
<path d="M 2850.0 75.0 L 2860.0 75.0" stroke="#FF0000" fill="none" stroke-width="4px" />
<path d="M 2860.0 75.0 L 2870.0 75.0" stroke="#FF0000" fill="none" stroke-width="4px" />
<path d="M 2870.0 75.0 L 2880.0 75.0" stroke="#FF0000" fill="none" stroke-width="4px" />
<path d="M 2880.0 75.0 L 2870.0 65.0" stroke="#FF0000" fill="none" stroke-width="4px" />
<path d="M 2870.0 65.0 L 2860.0 65.0" stroke="#FF0000" fill="none" stroke-width="4px" />
<path d="M 2690.0 125.0 L 2680.0 125.0" stroke="#FF0000" fill="none" stroke-width="4px" />
<path d="M 2680.0 125.0 L 2670.0 125.0" stroke="#FF0000" fill="none" stroke-width="4px" />
<path d="M 2670.0 125.0 L 2660.0 125.0" stroke="#FF0000" fill="none" stroke-width="4px" />
<path d="M 2660.0 125.0 L 2650.0 125.0" stroke="#FF0000" fill="none" stroke-width="4px" />
<path d="M 2650.0 125.0 L 2640.0 125.0" stroke="#FF0000" fill="none" stroke-width="4px" />
<path d="M 2640.0 125.0 L 2630.0 125.0" stroke="#FF0000" fill="none" stroke-width="4px" />
<path d="M 2630.0 125.0 L 2630.0 135.0" stroke="#FF0000" fill="none" stroke-width="4px" />
<path d="M 2630.0 135.0 L 2640.0 135.0" stroke="#FF0000" fill="none" stroke-width="4px" />
<path d="M 2640.0 135.0 L 2650.0 135.0" stroke="#FF0000" fill="none" stroke-width="4px" />
<path d="M 2650.0 135.0 L 2660.0 135.0" stroke="#FF0000" fill="none" stroke-width="4px" />
<path d="M 2660.0 135.0 L 2670.0 135.0" stroke="#FF0000" fill="none" stroke-width="4px" />
<path d="M 2670.0 135.0 L 2680.0 135.0" stroke="#FF0000" fill="none" stroke-width="4px" />
<path d="M 2680.0 135.0 L 2690.0 135.0" stroke="#FF0000" fill="none" stroke-width="4px" />
<path d="M 2690.0 135.0 L 2690.0 145.0" stroke="#FF0000" fill="none" stroke-width="4px" />
<path d="M 2690.0 145.0 L 2680.0 145.0" stroke="#FF0000" fill="none" stroke-width="4px" />
<path d="M 2680.0 145.0 L 2670.0 145.0" stroke="#FF0000" fill="none" stroke-width="4px" />
<path d="M 2670.0 145.0 L 2660.0 145.0" stroke="#FF0000" fill="none" stroke-width="4px" />
<path d="M 2660.0 145.0 L 2650.0 145.0" stroke="#FF0000" fill="none" stroke-width="4px" />
<path d="M 2650.0 145.0 L 2640.0 145.0" stroke="#FF0000" fill="none" stroke-width="4px" />
<path d="M 2640.0 145.0 L 2630.0 145.0" stroke="#FF0000" fill="none" stroke-width="4px" />
<path d="M 2630.0 145.0 L 2640.0 155.0" stroke="#FF0000" fill="none" stroke-width="4px" />
<path d="M 2640.0 155.0 L 2650.0 155.0" stroke="#FF0000" fill="none" stroke-width="4px" />
<path d="M 2650.0 155.0 L 2660.0 155.0" stroke="#FF0000" fill="none" stroke-width="4px" />
<path d="M 2660.0 155.0 L 2670.0 155.0" stroke="#FF0000" fill="none" stroke-width="4px" />
<path d="M 2670.0 155.0 L 2680.0 155.0" stroke="#FF0000" fill="none" stroke-width="4px" />
<path d="M 2680.0 155.0 L 2690.0 155.0" stroke="#FF0000" fill="none" stroke-width="4px" />
<path d="M 2690.0 155.0 L 2680.0 165.0" stroke="#FF0000" fill="none" stroke-width="4px" />
<path d="M 2680.0 165.0 L 2670.0 165.0" stroke="#FF0000" fill="none" stroke-width="4px" />
<path d="M 2670.0 165.0 L 2660.0 165.0" stroke="#FF0000" fill="none" stroke-width="4px" />
<path d="M 2660.0 165.0 L 2650.0 165.0" stroke="#FF0000" fill="none" stroke-width="4px" />
<path d="M 2650.0 115.0 L 2640.0 115.0" stroke="#FF0000" fill="none" stroke-width="4px" />
<path d="M 2640.0 115.0 L 2630.0 115.0" stroke="#FF0000" fill="none" stroke-width="4px" />
<path d="M 2630.0 115.0 L 2640.0 105.0" stroke="#FF0000" fill="none" stroke-width="4px" />
<path d="M 2640.0 105.0 L 2650.0 105.0" stroke="#FF0000" fill="none" stroke-width="4px" />
<path d="M 2650.0 105.0 L 2660.0 105.0" stroke="#FF0000" fill="none" stroke-width="4px" />
<path d="M 2660.0 105.0 L 2670.0 105.0" stroke="#FF0000" fill="none" stroke-width="4px" />
<path d="M 2670.0 105.0 L 2670.0 115.0" stroke="#FF0000" fill="none" stroke-width="4px" />
<path d="M 2670.0 115.0 L 2660.0 115.0" stroke="#FF0000" fill="none" stroke-width="4px" />
<path d="M 2660.0 115.0 L 2680.0 115.0" stroke="#FF0000" fill="none" stroke-width="4px" />
<path d="M 2660.0 95.0 L 2650.0 95.0" stroke="#FF0000" fill="none" stroke-width="4px" />
<path d="M 2420.0 105.0 L 2410.0 105.0" stroke="#FF0000" fill="none" stroke-width="4px" />
<path d="M 2410.0 105.0 L 2400.0 105.0" stroke="#FF0000" fill="none" stroke-width="4px" />
<path d="M 2400.0 105.0 L 2390.0 105.0" stroke="#FF0000" fill="none" stroke-width="4px" />
<path d="M 2390.0 105.0 L 2380.0 105.0" stroke="#FF0000" fill="none" stroke-width="4px" />
<path d="M 2380.0 105.0 L 2370.0 105.0" stroke="#FF0000" fill="none" stroke-width="4px" />
<path d="M 2370.0 105.0 L 2360.0 105.0" stroke="#FF0000" fill="none" stroke-width="4px" />
<path d="M 2360.0 105.0 L 2350.0 105.0" stroke="#FF0000" fill="none" stroke-width="4px" />
<path d="M 2350.0 105.0 L 2360.0 115.0" stroke="#FF0000" fill="none" stroke-width="4px" />
<path d="M 2360.0 115.0 L 2370.0 115.0" stroke="#FF0000" fill="none" stroke-width="4px" />
<path d="M 2370.0 115.0 L 2380.0 115.0" stroke="#FF0000" fill="none" stroke-width="4px" />
<path d="M 2380.0 115.0 L 2390.0 115.0" stroke="#FF0000" fill="none" stroke-width="4px" />
<path d="M 2390.0 115.0 L 2400.0 115.0" stroke="#FF0000" fill="none" stroke-width="4px" />
<path d="M 2400.0 115.0 L 2410.0 115.0" stroke="#FF0000" fill="none" stroke-width="4px" />
<path d="M 2410.0 115.0 L 2420.0 115.0" stroke="#FF0000" fill="none" stroke-width="4px" />
<path d="M 2420.0 115.0 L 2410.0 125.0" stroke="#FF0000" fill="none" stroke-width="4px" />
<path d="M 2410.0 125.0 L 2400.0 125.0" stroke="#FF0000" fill="none" stroke-width="4px" />
<path d="M 2400.0 125.0 L 2390.0 125.0" stroke="#FF0000" fill="none" stroke-width="4px" />
<path d="M 2390.0 125.0 L 2380.0 125.0" stroke="#FF0000" fill="none" stroke-width="4px" />
<path d="M 2380.0 125.0 L 2370.0 125.0" stroke="#FF0000" fill="none" stroke-width="4px" />
<path d="M 2370.0 125.0 L 2380.0 135.0" stroke="#FF0000" fill="none" stroke-width="4px" />
<path d="M 2380.0 135.0 L 2390.0 135.0" stroke="#FF0000" fill="none" stroke-width="4px" />
<path d="M 2390.0 135.0 L 2400.0 135.0" stroke="#FF0000" fill="none" stroke-width="4px" />
<path d="M 2400.0 95.0 L 2390.0 95.0" stroke="#FF0000" fill="none" stroke-width="4px" />
<path d="M 2390.0 95.0 L 2380.0 95.0" stroke="#FF0000" fill="none" stroke-width="4px" />
<path d="M 2380.0 95.0 L 2370.0 95.0" stroke="#FF0000" fill="none" stroke-width="4px" />
<path d="M 2370.0 95.0 L 2360.0 95.0" stroke="#FF0000" fill="none" stroke-width="4px" />
<path d="M 2360.0 95.0 L 2370.0 85.0" stroke="#FF0000" fill="none" stroke-width="4px" />
<path d="M 2370.0 85.0 L 2380.0 85.0" stroke="#FF0000" fill="none" stroke-width="4px" />
<path d="M 2380.0 85.0 L 2390.0 85.0" stroke="#FF0000" fill="none" stroke-width="4px" />
<path d="M 2390.0 85.0 L 2400.0 85.0" stroke="#FF0000" fill="none" stroke-width="4px" />
<path d="M 2400.0 85.0 L 2410.0 95.0" stroke="#FF0000" fill="none" stroke-width="4px" />
</svg>