<svg width="2472.26666667" height="235.0" xmlns="http://www.w3.org/2000/svg" version="1.1">
<path d="M 0.0 235.0 L 1985.0 235.0 L 1985.0 0.0 L 0.0 0.0 L 0.0 235.0" stroke="#000000" fill="none" stroke-width="3px" />
<path d="M 2472.26666667 235.0 L 1885.0 235.0 L 1885.0 0.0 L 2472.26666667 0.0 L 2472.26666667 235.0" stroke="#000000" fill="none" stroke-width="3px" />
<path d="M 10.0 257.5 L 0.0 247.5 L 10.0 237.5" stroke="#969696" fill="none" stroke-width="1px" />
<path d="M 10.0 237.5 L 1975.0 237.5" stroke="#969696" fill="none" stroke-width="1px" />
<path d="M 1975.0 237.5 L 1985.0 227.5 L 1975.0 217.5" stroke="#969696" fill="none" stroke-width="1px" />
<path d="M 1975.0 217.5 L 10.0 217.5" stroke="#969696" fill="none" stroke-width="1px" />
<path d="M 10.0 217.5 L 0.0 207.5 L 10.0 197.5" stroke="#969696" fill="none" stroke-width="1px" />
<path d="M 10.0 197.5 L 1975.0 197.5" stroke="#969696" fill="none" stroke-width="1px" />
<path d="M 1975.0 197.5 L 1985.0 187.5 L 1975.0 177.5" stroke="#969696" fill="none" stroke-width="1px" />
<path d="M 1975.0 177.5 L 10.0 177.5" stroke="#969696" fill="none" stroke-width="1px" />
<path d="M 10.0 177.5 L 0.0 167.5 L 10.0 157.5" stroke="#969696" fill="none" stroke-width="1px" />
<path d="M 10.0 157.5 L 1975.0 157.5" stroke="#969696" fill="none" stroke-width="1px" />
<path d="M 1975.0 157.5 L 1985.0 147.5 L 1975.0 137.5" stroke="#969696" fill="none" stroke-width="1px" />
<path d="M 1975.0 137.5 L 10.0 137.5" stroke="#969696" fill="none" stroke-width="1px" />
<path d="M 10.0 137.5 L 0.0 127.5 L 10.0 117.5" stroke="#969696" fill="none" stroke-width="1px" />
<path d="M 10.0 117.5 L 1975.0 117.5" stroke="#969696" fill="none" stroke-width="1px" />
<path d="M 1975.0 117.5 L 1985.0 107.5 L 1975.0 97.5" stroke="#969696" fill="none" stroke-width="1px" />
<path d="M 1975.0 97.5 L 10.0 97.5" stroke="#969696" fill="none" stroke-width="1px" />
<path d="M 10.0 97.5 L 0.0 87.5 L 10.0 77.5" stroke="#969696" fill="none" stroke-width="1px" />
<path d="M 10.0 77.5 L 1975.0 77.5" stroke="#969696" fill="none" stroke-width="1px" />
<path d="M 1975.0 77.5 L 1985.0 67.5 L 1975.0 57.5" stroke="#969696" fill="none" stroke-width="1px" />
<path d="M 1975.0 57.5 L 10.0 57.5" stroke="#969696" fill="none" stroke-width="1px" />
<path d="M 10.0 57.5 L 0.0 47.5 L 10.0 37.5" stroke="#969696" fill="none" stroke-width="1px" />
<path d="M 10.0 37.5 L 1975.0 37.5" stroke="#969696" fill="none" stroke-width="1px" />
<path d="M 1975.0 37.5 L 1985.0 27.5 L 1975.0 17.5" stroke="#969696" fill="none" stroke-width="1px" />
<path d="M 1975.0 17.5 L 10.0 17.5" stroke="#969696" fill="none" stroke-width="1px" />
<path d="M 10.0 17.5 L 0.0 7.5 L 10.0 -2.5" stroke="#969696" fill="none" stroke-width="1px" />
<path d="M 10.0 -2.5 L 1975.0 -2.5" stroke="#969696" fill="none" stroke-width="1px" />
<path d="M 1975.0 -2.5 L 1985.0 -12.5 L 1975.0 -22.5" stroke="#969696" fill="none" stroke-width="1px" />
<path d="M 2462.26666667 257.5 L 2472.26666667 247.5 L 2462.26666667 237.5" stroke="#969696" fill="none" stroke-width="1px" />
<path d="M 2462.26666667 237.5 L 1895.0 237.5" stroke="#969696" fill="none" stroke-width="1px" />
<path d="M 1895.0 237.5 L 1885.0 227.5 L 1895.0 217.5" stroke="#969696" fill="none" stroke-width="1px" />
<path d="M 1895.0 217.5 L 2462.26666667 217.5" stroke="#969696" fill="none" stroke-width="1px" />
<path d="M 2462.26666667 217.5 L 2472.26666667 207.5 L 2462.26666667 197.5" stroke="#969696" fill="none" stroke-width="1px" />
<path d="M 2462.26666667 197.5 L 1895.0 197.5" stroke="#969696" fill="none" stroke-width="1px" />
<path d="M 1895.0 197.5 L 1885.0 187.5 L 1895.0 177.5" stroke="#969696" fill="none" stroke-width="1px" />
<path d="M 1895.0 177.5 L 2462.26666667 177.5" stroke="#969696" fill="none" stroke-width="1px" />
<path d="M 2462.26666667 177.5 L 2472.26666667 167.5 L 2462.26666667 157.5" stroke="#969696" fill="none" stroke-width="1px" />
<path d="M 2462.26666667 157.5 L 1895.0 157.5" stroke="#969696" fill="none" stroke-width="1px" />
<path d="M 1895.0 157.5 L 1885.0 147.5 L 1895.0 137.5" stroke="#969696" fill="none" stroke-width="1px" />
<path d="M 1895.0 137.5 L 2462.26666667 137.5" stroke="#969696" fill="none" stroke-width="1px" />
<path d="M 2462.26666667 137.5 L 2472.26666667 127.5 L 2462.26666667 117.5" stroke="#969696" fill="none" stroke-width="1px" />
<path d="M 2462.26666667 117.5 L 1895.0 117.5" stroke="#969696" fill="none" stroke-width="1px" />
<path d="M 1895.0 117.5 L 1885.0 107.5 L 1895.0 97.5" stroke="#969696" fill="none" stroke-width="1px" />
<path d="M 1895.0 97.5 L 2462.26666667 97.5" stroke="#969696" fill="none" stroke-width="1px" />
<path d="M 2462.26666667 97.5 L 2472.26666667 87.5 L 2462.26666667 77.5" stroke="#969696" fill="none" stroke-width="1px" />
<path d="M 2462.26666667 77.5 L 1895.0 77.5" stroke="#969696" fill="none" stroke-width="1px" />
<path d="M 1895.0 77.5 L 1885.0 67.5 L 1895.0 57.5" stroke="#969696" fill="none" stroke-width="1px" />
<path d="M 1895.0 57.5 L 2462.26666667 57.5" stroke="#969696" fill="none" stroke-width="1px" />
<path d="M 2462.26666667 57.5 L 2472.26666667 47.5 L 2462.26666667 37.5" stroke="#969696" fill="none" stroke-width="1px" />
<path d="M 2462.26666667 37.5 L 1895.0 37.5" stroke="#969696" fill="none" stroke-width="1px" />
<path d="M 1895.0 37.5 L 1885.0 27.5 L 1895.0 17.5" stroke="#969696" fill="none" stroke-width="1px" />
<path d="M 1895.0 17.5 L 2462.26666667 17.5" stroke="#969696" fill="none" stroke-width="1px" />
<path d="M 2462.26666667 17.5 L 2472.26666667 7.5 L 2462.26666667 -2.5" stroke="#969696" fill="none" stroke-width="1px" />
<path d="M 2462.26666667 -2.5 L 1895.0 -2.5" stroke="#969696" fill="none" stroke-width="1px" />
<path d="M 1895.0 -2.5 L 1885.0 -12.5 L 1895.0 -22.5" stroke="#969696" fill="none" stroke-width="1px" />
<path d="M 0.0 235.0 L 290.0 165.0" stroke="#0095FF" fill="none" stroke-width="2px" />
<path d="M 370.0 155.0 L 350.0 175.0" stroke="#0095FF" fill="none" stroke-width="2px" />
<path d="M 330.0 195.0 L 330.0 135.0" stroke="#0095FF" fill="none" stroke-width="2px" />
<path d="M 350.0 135.0 L 330.0 115.0" stroke="#0095FF" fill="none" stroke-width="2px" />
<path d="M 310.0 115.0 L 950.0 135.0" stroke="#0095FF" fill="none" stroke-width="2px" />
<path d="M 1010.0 195.0 L 1010.0 125.0" stroke="#0095FF" fill="none" stroke-width="2px" />
<path d="M 970.0 105.0 L 990.0 95.0" stroke="#0095FF" fill="none" stroke-width="2px" />
<path d="M 1040.0 105.0 L 1040.0 85.0" stroke="#0095FF" fill="none" stroke-width="2px" />
<path d="M 990.0 75.0 L 990.0 55.0" stroke="#0095FF" fill="none" stroke-width="2px" />
<path d="M 1020.0 55.0 L 1040.0 75.0" stroke="#0095FF" fill="none" stroke-width="2px" />
<path d="M 1050.0 85.0 L 1020.0 125.0" stroke="#0095FF" fill="none" stroke-width="2px" />
<path d="M 1020.0 125.0 L 1140.0 125.0" stroke="#0095FF" fill="none" stroke-width="2px" />
<path d="M 1170.0 145.0 L 1170.0 115.0" stroke="#0095FF" fill="none" stroke-width="2px" />
<path d="M 1180.0 115.0 L 1400.0 135.0" stroke="#0095FF" fill="none" stroke-width="2px" />
<path d="M 1440.0 195.0 L 1440.0 125.0" stroke="#0095FF" fill="none" stroke-width="2px" />
<path d="M 1450.0 125.0 L 1450.0 105.0" stroke="#0095FF" fill="none" stroke-width="2px" />
<path d="M 1470.0 105.0 L 1480.0 125.0" stroke="#0095FF" fill="none" stroke-width="2px" />
<path d="M 1480.0 125.0 L 1450.0 85.0" stroke="#0095FF" fill="none" stroke-width="2px" />
<path d="M 2472.26666667 235.0 L 2440.0 195.0" stroke="#0095FF" fill="none" stroke-width="2px" />
<path d="M 2460.0 175.0 L 2440.0 155.0" stroke="#0095FF" fill="none" stroke-width="2px" />
<path d="M 290.0 165.0 L 300.0 165.0" stroke="#FF0000" fill="none" stroke-width="4px" />
<path d="M 300.0 165.0 L 310.0 165.0" stroke="#FF0000" fill="none" stroke-width="4px" />
<path d="M 310.0 165.0 L 320.0 165.0" stroke="#FF0000" fill="none" stroke-width="4px" />
<path d="M 320.0 165.0 L 330.0 165.0" stroke="#FF0000" fill="none" stroke-width="4px" />
<path d="M 330.0 165.0 L 340.0 165.0" stroke="#FF0000" fill="none" stroke-width="4px" />
<path d="M 340.0 165.0 L 350.0 165.0" stroke="#FF0000" fill="none" stroke-width="4px" />
<path d="M 350.0 165.0 L 360.0 165.0" stroke="#FF0000" fill="none" stroke-width="4px" />
<path d="M 360.0 165.0 L 360.0 155.0" stroke="#FF0000" fill="none" stroke-width="4px" />
<path d="M 360.0 155.0 L 350.0 155.0" stroke="#FF0000" fill="none" stroke-width="4px" />
<path d="M 350.0 155.0 L 340.0 155.0" stroke="#FF0000" fill="none" stroke-width="4px" />
<path d="M 340.0 155.0 L 330.0 155.0" stroke="#FF0000" fill="none" stroke-width="4px" />
<path d="M 330.0 155.0 L 320.0 155.0" stroke="#FF0000" fill="none" stroke-width="4px" />
<path d="M 320.0 155.0 L 310.0 155.0" stroke="#FF0000" fill="none" stroke-width="4px" />
<path d="M 310.0 155.0 L 300.0 155.0" stroke="#FF0000" fill="none" stroke-width="4px" />
<path d="M 300.0 155.0 L 290.0 155.0" stroke="#FF0000" fill="none" stroke-width="4px" />
<path d="M 290.0 155.0 L 290.0 145.0" stroke="#FF0000" fill="none" stroke-width="4px" />
<path d="M 290.0 145.0 L 300.0 145.0" stroke="#FF0000" fill="none" stroke-width="4px" />
<path d="M 300.0 145.0 L 310.0 145.0" stroke="#FF0000" fill="none" stroke-width="4px" />
<path d="M 310.0 145.0 L 320.0 145.0" stroke="#FF0000" fill="none" stroke-width="4px" />
<path d="M 320.0 145.0 L 330.0 145.0" stroke="#FF0000" fill="none" stroke-width="4px" />
<path d="M 330.0 145.0 L 340.0 145.0" stroke="#FF0000" fill="none" stroke-width="4px" />
<path d="M 340.0 145.0 L 350.0 145.0" stroke="#FF0000" fill="none" stroke-width="4px" />
<path d="M 350.0 145.0 L 360.0 145.0" stroke="#FF0000" fill="none" stroke-width="4px" />
<path d="M 360.0 145.0 L 370.0 155.0" stroke="#FF0000" fill="none" stroke-width="4px" />
<path d="M 350.0 175.0 L 340.0 175.0" stroke="#FF0000" fill="none" stroke-width="4px" />
<path d="M 340.0 175.0 L 330.0 175.0" stroke="#FF0000" fill="none" stroke-width="4px" />
<path d="M 330.0 175.0 L 320.0 175.0" stroke="#FF0000" fill="none" stroke-width="4px" />
<path d="M 320.0 175.0 L 310.0 175.0" stroke="#FF0000" fill="none" stroke-width="4px" />
<path d="M 310.0 175.0 L 300.0 175.0" stroke="#FF0000" fill="none" stroke-width="4px" />
<path d="M 300.0 175.0 L 310.0 185.0" stroke="#FF0000" fill="none" stroke-width="4px" />
<path d="M 310.0 185.0 L 320.0 185.0" stroke="#FF0000" fill="none" stroke-width="4px" />
<path d="M 320.0 185.0 L 330.0 185.0" stroke="#FF0000" fill="none" stroke-width="4px" />
<path d="M 330.0 185.0 L 340.0 185.0" stroke="#FF0000" fill="none" stroke-width="4px" />
<path d="M 340.0 185.0 L 330.0 195.0" stroke="#FF0000" fill="none" stroke-width="4px" />
<path d="M 330.0 135.0 L 320.0 135.0" stroke="#FF0000" fill="none" stroke-width="4px" />
<path d="M 320.0 135.0 L 310.0 135.0" stroke="#FF0000" fill="none" stroke-width="4px" />
<path d="M 310.0 135.0 L 300.0 135.0" stroke="#FF0000" fill="none" stroke-width="4px" />
<path d="M 300.0 135.0 L 290.0 135.0" stroke="#FF0000" fill="none" stroke-width="4px" />
<path d="M 290.0 135.0 L 300.0 125.0" stroke="#FF0000" fill="none" stroke-width="4px" />
<path d="M 300.0 125.0 L 310.0 125.0" stroke="#FF0000" fill="none" stroke-width="4px" />
<path d="M 310.0 125.0 L 320.0 125.0" stroke="#FF0000" fill="none" stroke-width="4px" />
<path d="M 320.0 125.0 L 330.0 125.0" stroke="#FF0000" fill="none" stroke-width="4px" />
<path d="M 330.0 125.0 L 340.0 125.0" stroke="#FF0000" fill="none" stroke-width="4px" />
<path d="M 340.0 125.0 L 340.0 135.0" stroke="#FF0000" fill="none" stroke-width="4px" />
<path d="M 340.0 135.0 L 350.0 135.0" stroke="#FF0000" fill="none" stroke-width="4px" />
<path d="M 330.0 115.0 L 320.0 115.0" stroke="#FF0000" fill="none" stroke-width="4px" />
<path d="M 320.0 115.0 L 310.0 115.0" stroke="#FF0000" fill="none" stroke-width="4px" />
<path d="M 950.0 135.0 L 960.0 135.0" stroke="#FF0000" fill="none" stroke-width="4px" />
<path d="M 960.0 135.0 L 970.0 135.0" stroke="#FF0000" fill="none" stroke-width="4px" />
<path d="M 970.0 135.0 L 980.0 135.0" stroke="#FF0000" fill="none" stroke-width="4px" />
<path d="M 980.0 135.0 L 990.0 135.0" stroke="#FF0000" fill="none" stroke-width="4px" />
<path d="M 990.0 135.0 L 1000.0 135.0" stroke="#FF0000" fill="none" stroke-width="4px" />
<path d="M 1000.0 135.0 L 1010.0 135.0" stroke="#FF0000" fill="none" stroke-width="4px" />
<path d="M 1010.0 135.0 L 1020.0 135.0" stroke="#FF0000" fill="none" stroke-width="4px" />
<path d="M 1020.0 135.0 L 1030.0 135.0" stroke="#FF0000" fill="none" stroke-width="4px" />
<path d="M 1030.0 135.0 L 1030.0 145.0" stroke="#FF0000" fill="none" stroke-width="4px" />
<path d="M 1030.0 145.0 L 1020.0 145.0" stroke="#FF0000" fill="none" stroke-width="4px" />
<path d="M 1020.0 145.0 L 1010.0 145.0" stroke="#FF0000" fill="none" stroke-width="4px" />
<path d="M 1010.0 145.0 L 1000.0 145.0" stroke="#FF0000" fill="none" stroke-width="4px" />
<path d="M 1000.0 145.0 L 990.0 145.0" stroke="#FF0000" fill="none" stroke-width="4px" />
<path d="M 990.0 145.0 L 980.0 145.0" stroke="#FF0000" fill="none" stroke-width="4px" />
<path d="M 980.0 145.0 L 970.0 145.0" stroke="#FF0000" fill="none" stroke-width="4px" />
<path d="M 970.0 145.0 L 960.0 145.0" stroke="#FF0000" fill="none" stroke-width="4px" />
<path d="M 960.0 145.0 L 950.0 145.0" stroke="#FF0000" fill="none" stroke-width="4px" />
<path d="M 950.0 145.0 L 960.0 155.0" stroke="#FF0000" fill="none" stroke-width="4px" />
<path d="M 960.0 155.0 L 970.0 155.0" stroke="#FF0000" fill="none" stroke-width="4px" />
<path d="M 970.0 155.0 L 980.0 155.0" stroke="#FF0000" fill="none" stroke-width="4px" />
<path d="M 980.0 155.0 L 990.0 155.0" stroke="#FF0000" fill="none" stroke-width="4px" />
<path d="M 990.0 155.0 L 1000.0 155.0" stroke="#FF0000" fill="none" stroke-width="4px" />
<path d="M 1000.0 155.0 L 1010.0 155.0" stroke="#FF0000" fill="none" stroke-width="4px" />
<path d="M 1010.0 155.0 L 1020.0 155.0" stroke="#FF0000" fill="none" stroke-width="4px" />
<path d="M 1020.0 155.0 L 1030.0 155.0" stroke="#FF0000" fill="none" stroke-width="4px" />
<path d="M 1030.0 155.0 L 1030.0 165.0" stroke="#FF0000" fill="none" stroke-width="4px" />
<path d="M 1030.0 165.0 L 1020.0 165.0" stroke="#FF0000" fill="none" stroke-width="4px" />
<path d="M 1020.0 165.0 L 1010.0 165.0" stroke="#FF0000" fill="none" stroke-width="4px" />
<path d="M 1010.0 165.0 L 1000.0 165.0" stroke="#FF0000" fill="none" stroke-width="4px" />
<path d="M 1000.0 165.0 L 990.0 165.0" stroke="#FF0000" fill="none" stroke-width="4px" />
<path d="M 990.0 165.0 L 980.0 165.0" stroke="#FF0000" fill="none" stroke-width="4px" />
<path d="M 980.0 165.0 L 970.0 165.0" stroke="#FF0000" fill="none" stroke-width="4px" />
<path d="M 970.0 165.0 L 960.0 165.0" stroke="#FF0000" fill="none" stroke-width="4px" />
<path d="M 960.0 165.0 L 970.0 175.0" stroke="#FF0000" fill="none" stroke-width="4px" />
<path d="M 970.0 175.0 L 980.0 175.0" stroke="#FF0000" fill="none" stroke-width="4px" />
<path d="M 980.0 175.0 L 990.0 175.0" stroke="#FF0000" fill="none" stroke-width="4px" />
<path d="M 990.0 175.0 L 1000.0 175.0" stroke="#FF0000" fill="none" stroke-width="4px" />
<path d="M 1000.0 175.0 L 1010.0 175.0" stroke="#FF0000" fill="none" stroke-width="4px" />
<path d="M 1010.0 175.0 L 1020.0 175.0" stroke="#FF0000" fill="none" stroke-width="4px" />
<path d="M 1020.0 175.0 L 1030.0 175.0" stroke="#FF0000" fill="none" stroke-width="4px" />
<path d="M 1030.0 175.0 L 1020.0 185.0" stroke="#FF0000" fill="none" stroke-width="4px" />
<path d="M 1020.0 185.0 L 1010.0 185.0" stroke="#FF0000" fill="none" stroke-width="4px" />
<path d="M 1010.0 185.0 L 1000.0 185.0" stroke="#FF0000" fill="none" stroke-width="4px" />
<path d="M 1000.0 185.0 L 990.0 185.0" stroke="#FF0000" fill="none" stroke-width="4px" />
<path d="M 990.0 185.0 L 980.0 185.0" stroke="#FF0000" fill="none" stroke-width="4px" />
<path d="M 980.0 185.0 L 990.0 195.0" stroke="#FF0000" fill="none" stroke-width="4px" />
<path d="M 990.0 195.0 L 1000.0 195.0" stroke="#FF0000" fill="none" stroke-width="4px" />
<path d="M 1000.0 195.0 L 1010.0 195.0" stroke="#FF0000" fill="none" stroke-width="4px" />
<path d="M 1010.0 125.0 L 1000.0 125.0" stroke="#FF0000" fill="none" stroke-width="4px" />
<path d="M 1000.0 125.0 L 990.0 125.0" stroke="#FF0000" fill="none" stroke-width="4px" />
<path d="M 990.0 125.0 L 980.0 125.0" stroke="#FF0000" fill="none" stroke-width="4px" />
<path d="M 980.0 125.0 L 970.0 125.0" stroke="#FF0000" fill="none" stroke-width="4px" />
<path d="M 970.0 125.0 L 960.0 125.0" stroke="#FF0000" fill="none" stroke-width="4px" />
<path d="M 960.0 125.0 L 960.0 115.0" stroke="#FF0000" fill="none" stroke-width="4px" />
<path d="M 960.0 115.0 L 970.0 115.0" stroke="#FF0000" fill="none" stroke-width="4px" />
<path d="M 970.0 115.0 L 980.0 115.0" stroke="#FF0000" fill="none" stroke-width="4px" />
<path d="M 980.0 115.0 L 990.0 115.0" stroke="#FF0000" fill="none" stroke-width="4px" />
<path d="M 990.0 115.0 L 1000.0 115.0" stroke="#FF0000" fill="none" stroke-width="4px" />
<path d="M 1000.0 115.0 L 1010.0 115.0" stroke="#FF0000" fill="none" stroke-width="4px" />
<path d="M 1010.0 115.0 L 1020.0 115.0" stroke="#FF0000" fill="none" stroke-width="4px" />
<path d="M 1020.0 115.0 L 1030.0 115.0" stroke="#FF0000" fill="none" stroke-width="4px" />
<path d="M 1030.0 115.0 L 1030.0 105.0" stroke="#FF0000" fill="none" stroke-width="4px" />
<path d="M 1030.0 105.0 L 1020.0 105.0" stroke="#FF0000" fill="none" stroke-width="4px" />
<path d="M 1020.0 105.0 L 1010.0 105.0" stroke="#FF0000" fill="none" stroke-width="4px" />
<path d="M 1010.0 105.0 L 1000.0 105.0" stroke="#FF0000" fill="none" stroke-width="4px" />
<path d="M 1000.0 105.0 L 990.0 105.0" stroke="#FF0000" fill="none" stroke-width="4px" />
<path d="M 990.0 105.0 L 980.0 105.0" stroke="#FF0000" fill="none" stroke-width="4px" />
<path d="M 980.0 105.0 L 970.0 105.0" stroke="#FF0000" fill="none" stroke-width="4px" />
<path d="M 990.0 95.0 L 1000.0 95.0" stroke="#FF0000" fill="none" stroke-width="4px" />
<path d="M 1000.0 95.0 L 1010.0 95.0" stroke="#FF0000" fill="none" stroke-width="4px" />
<path d="M 1010.0 95.0 L 1020.0 95.0" stroke="#FF0000" fill="none" stroke-width="4px" />
<path d="M 1020.0 95.0 L 1030.0 95.0" stroke="#FF0000" fill="none" stroke-width="4px" />
<path d="M 1030.0 95.0 L 1040.0 95.0" stroke="#FF0000" fill="none" stroke-width="4px" />
<path d="M 1040.0 95.0 L 1040.0 105.0" stroke="#FF0000" fill="none" stroke-width="4px" />
<path d="M 1040.0 85.0 L 1030.0 85.0" stroke="#FF0000" fill="none" stroke-width="4px" />
<path d="M 1030.0 85.0 L 1020.0 85.0" stroke="#FF0000" fill="none" stroke-width="4px" />
<path d="M 1020.0 85.0 L 1010.0 85.0" stroke="#FF0000" fill="none" stroke-width="4px" />
<path d="M 1010.0 85.0 L 1000.0 85.0" stroke="#FF0000" fill="none" stroke-width="4px" />
<path d="M 1000.0 85.0 L 990.0 85.0" stroke="#FF0000" fill="none" stroke-width="4px" />
<path d="M 990.0 85.0 L 980.0 85.0" stroke="#FF0000" fill="none" stroke-width="4px" />
<path d="M 980.0 85.0 L 980.0 75.0" stroke="#FF0000" fill="none" stroke-width="4px" />
<path d="M 980.0 75.0 L 970.0 75.0" stroke="#FF0000" fill="none" stroke-width="4px" />
<path d="M 970.0 75.0 L 970.0 65.0" stroke="#FF0000" fill="none" stroke-width="4px" />
<path d="M 970.0 65.0 L 980.0 65.0" stroke="#FF0000" fill="none" stroke-width="4px" />
<path d="M 980.0 65.0 L 990.0 65.0" stroke="#FF0000" fill="none" stroke-width="4px" />
<path d="M 990.0 65.0 L 1000.0 65.0" stroke="#FF0000" fill="none" stroke-width="4px" />
<path d="M 1000.0 65.0 L 1010.0 65.0" stroke="#FF0000" fill="none" stroke-width="4px" />
<path d="M 1010.0 65.0 L 1020.0 65.0" stroke="#FF0000" fill="none" stroke-width="4px" />
<path d="M 1020.0 65.0 L 1030.0 65.0" stroke="#FF0000" fill="none" stroke-width="4px" />
<path d="M 1030.0 65.0 L 1030.0 75.0" stroke="#FF0000" fill="none" stroke-width="4px" />
<path d="M 1030.0 75.0 L 1020.0 75.0" stroke="#FF0000" fill="none" stroke-width="4px" />
<path d="M 1020.0 75.0 L 1010.0 75.0" stroke="#FF0000" fill="none" stroke-width="4px" />
<path d="M 1010.0 75.0 L 1000.0 75.0" stroke="#FF0000" fill="none" stroke-width="4px" />
<path d="M 1000.0 75.0 L 990.0 75.0" stroke="#FF0000" fill="none" stroke-width="4px" />
<path d="M 990.0 55.0 L 980.0 55.0" stroke="#FF0000" fill="none" stroke-width="4px" />
<path d="M 980.0 55.0 L 990.0 45.0" stroke="#FF0000" fill="none" stroke-width="4px" />
<path d="M 990.0 45.0 L 1000.0 45.0" stroke="#FF0000" fill="none" stroke-width="4px" />
<path d="M 1000.0 45.0 L 1010.0 45.0" stroke="#FF0000" fill="none" stroke-width="4px" />
<path d="M 1010.0 45.0 L 1010.0 55.0" stroke="#FF0000" fill="none" stroke-width="4px" />
<path d="M 1010.0 55.0 L 1000.0 55.0" stroke="#FF0000" fill="none" stroke-width="4px" />
<path d="M 1000.0 55.0 L 1020.0 55.0" stroke="#FF0000" fill="none" stroke-width="4px" />
<path d="M 1040.0 75.0 L 1050.0 85.0" stroke="#FF0000" fill="none" stroke-width="4px" />
<path d="M 1140.0 125.0 L 1150.0 125.0" stroke="#FF0000" fill="none" stroke-width="4px" />
<path d="M 1150.0 125.0 L 1160.0 125.0" stroke="#FF0000" fill="none" stroke-width="4px" />
<path d="M 1160.0 125.0 L 1170.0 125.0" stroke="#FF0000" fill="none" stroke-width="4px" />
<path d="M 1170.0 125.0 L 1180.0 125.0" stroke="#FF0000" fill="none" stroke-width="4px" />
<path d="M 1180.0 125.0 L 1190.0 125.0" stroke="#FF0000" fill="none" stroke-width="4px" />
<path d="M 1190.0 125.0 L 1180.0 135.0" stroke="#FF0000" fill="none" stroke-width="4px" />
<path d="M 1180.0 135.0 L 1170.0 135.0" stroke="#FF0000" fill="none" stroke-width="4px" />
<path d="M 1170.0 135.0 L 1160.0 135.0" stroke="#FF0000" fill="none" stroke-width="4px" />
<path d="M 1160.0 135.0 L 1150.0 135.0" stroke="#FF0000" fill="none" stroke-width="4px" />
<path d="M 1150.0 135.0 L 1160.0 145.0" stroke="#FF0000" fill="none" stroke-width="4px" />
<path d="M 1160.0 145.0 L 1170.0 145.0" stroke="#FF0000" fill="none" stroke-width="4px" />
<path d="M 1170.0 115.0 L 1160.0 115.0" stroke="#FF0000" fill="none" stroke-width="4px" />
<path d="M 1160.0 115.0 L 1150.0 115.0" stroke="#FF0000" fill="none" stroke-width="4px" />
<path d="M 1150.0 115.0 L 1160.0 105.0" stroke="#FF0000" fill="none" stroke-width="4px" />
<path d="M 1160.0 105.0 L 1170.0 105.0" stroke="#FF0000" fill="none" stroke-width="4px" />
<path d="M 1170.0 105.0 L 1180.0 115.0" stroke="#FF0000" fill="none" stroke-width="4px" />
<path d="M 1400.0 135.0 L 1410.0 135.0" stroke="#FF0000" fill="none" stroke-width="4px" />
<path d="M 1410.0 135.0 L 1420.0 135.0" stroke="#FF0000" fill="none" stroke-width="4px" />
<path d="M 1420.0 135.0 L 1430.0 135.0" stroke="#FF0000" fill="none" stroke-width="4px" />
<path d="M 1430.0 135.0 L 1440.0 135.0" stroke="#FF0000" fill="none" stroke-width="4px" />
<path d="M 1440.0 135.0 L 1450.0 135.0" stroke="#FF0000" fill="none" stroke-width="4px" />
<path d="M 1450.0 135.0 L 1460.0 135.0" stroke="#FF0000" fill="none" stroke-width="4px" />
<path d="M 1460.0 135.0 L 1470.0 135.0" stroke="#FF0000" fill="none" stroke-width="4px" />
<path d="M 1470.0 135.0 L 1470.0 145.0" stroke="#FF0000" fill="none" stroke-width="4px" />
<path d="M 1470.0 145.0 L 1460.0 145.0" stroke="#FF0000" fill="none" stroke-width="4px" />
<path d="M 1460.0 145.0 L 1450.0 145.0" stroke="#FF0000" fill="none" stroke-width="4px" />
<path d="M 1450.0 145.0 L 1440.0 145.0" stroke="#FF0000" fill="none" stroke-width="4px" />
<path d="M 1440.0 145.0 L 1430.0 145.0" stroke="#FF0000" fill="none" stroke-width="4px" />
<path d="M 1430.0 145.0 L 1420.0 145.0" stroke="#FF0000" fill="none" stroke-width="4px" />
<path d="M 1420.0 145.0 L 1410.0 145.0" stroke="#FF0000" fill="none" stroke-width="4px" />
<path d="M 1410.0 145.0 L 1400.0 145.0" stroke="#FF0000" fill="none" stroke-width="4px" />
<path d="M 1400.0 145.0 L 1400.0 155.0" stroke="#FF0000" fill="none" stroke-width="4px" />
<path d="M 1400.0 155.0 L 1410.0 155.0" stroke="#FF0000" fill="none" stroke-width="4px" />
<path d="M 1410.0 155.0 L 1420.0 155.0" stroke="#FF0000" fill="none" stroke-width="4px" />
<path d="M 1420.0 155.0 L 1430.0 155.0" stroke="#FF0000" fill="none" stroke-width="4px" />
<path d="M 1430.0 155.0 L 1440.0 155.0" stroke="#FF0000" fill="none" stroke-width="4px" />
<path d="M 1440.0 155.0 L 1450.0 155.0" stroke="#FF0000" fill="none" stroke-width="4px" />
<path d="M 1450.0 155.0 L 1460.0 155.0" stroke="#FF0000" fill="none" stroke-width="4px" />
<path d="M 1460.0 155.0 L 1470.0 155.0" stroke="#FF0000" fill="none" stroke-width="4px" />
<path d="M 1470.0 155.0 L 1460.0 165.0" stroke="#FF0000" fill="none" stroke-width="4px" />
<path d="M 1460.0 165.0 L 1450.0 165.0" stroke="#FF0000" fill="none" stroke-width="4px" />
<path d="M 1450.0 165.0 L 1440.0 165.0" stroke="#FF0000" fill="none" stroke-width="4px" />
<path d="M 1440.0 165.0 L 1430.0 165.0" stroke="#FF0000" fill="none" stroke-width="4px" />
<path d="M 1430.0 165.0 L 1420.0 165.0" stroke="#FF0000" fill="none" stroke-width="4px" />
<path d="M 1420.0 165.0 L 1410.0 165.0" stroke="#FF0000" fill="none" stroke-width="4px" />
<path d="M 1410.0 165.0 L 1420.0 175.0" stroke="#FF0000" fill="none" stroke-width="4px" />
<path d="M 1420.0 175.0 L 1430.0 175.0" stroke="#FF0000" fill="none" stroke-width="4px" />
<path d="M 1430.0 175.0 L 1440.0 175.0" stroke="#FF0000" fill="none" stroke-width="4px" />
<path d="M 1440.0 175.0 L 1450.0 175.0" stroke="#FF0000" fill="none" stroke-width="4px" />
<path d="M 1450.0 175.0 L 1460.0 175.0" stroke="#FF0000" fill="none" stroke-width="4px" />
<path d="M 1460.0 175.0 L 1450.0 185.0" stroke="#FF0000" fill="none" stroke-width="4px" />
<path d="M 1450.0 185.0 L 1440.0 185.0" stroke="#FF0000" fill="none" stroke-width="4px" />
<path d="M 1440.0 185.0 L 1430.0 185.0" stroke="#FF0000" fill="none" stroke-width="4px" />
<path d="M 1430.0 185.0 L 1440.0 195.0" stroke="#FF0000" fill="none" stroke-width="4px" />
<path d="M 1440.0 125.0 L 1430.0 125.0" stroke="#FF0000" fill="none" stroke-width="4px" />
<path d="M 1430.0 125.0 L 1420.0 125.0" stroke="#FF0000" fill="none" stroke-width="4px" />
<path d="M 1420.0 125.0 L 1410.0 125.0" stroke="#FF0000" fill="none" stroke-width="4px" />
<path d="M 1410.0 125.0 L 1420.0 115.0" stroke="#FF0000" fill="none" stroke-width="4px" />
<path d="M 1420.0 115.0 L 1430.0 115.0" stroke="#FF0000" fill="none" stroke-width="4px" />
<path d="M 1430.0 115.0 L 1440.0 115.0" stroke="#FF0000" fill="none" stroke-width="4px" />
<path d="M 1440.0 115.0 L 1450.0 115.0" stroke="#FF0000" fill="none" stroke-width="4px" />
<path d="M 1450.0 115.0 L 1460.0 115.0" stroke="#FF0000" fill="none" stroke-width="4px" />
<path d="M 1460.0 115.0 L 1470.0 115.0" stroke="#FF0000" fill="none" stroke-width="4px" />
<path d="M 1470.0 115.0 L 1470.0 125.0" stroke="#FF0000" fill="none" stroke-width="4px" />
<path d="M 1470.0 125.0 L 1460.0 125.0" stroke="#FF0000" fill="none" stroke-width="4px" />
<path d="M 1460.0 125.0 L 1450.0 125.0" stroke="#FF0000" fill="none" stroke-width="4px" />
<path d="M 1450.0 105.0 L 1440.0 105.0" stroke="#FF0000" fill="none" stroke-width="4px" />
<path d="M 1440.0 105.0 L 1430.0 105.0" stroke="#FF0000" fill="none" stroke-width="4px" />
<path d="M 1430.0 105.0 L 1420.0 105.0" stroke="#FF0000" fill="none" stroke-width="4px" />
<path d="M 1420.0 105.0 L 1430.0 95.0" stroke="#FF0000" fill="none" stroke-width="4px" />
<path d="M 1430.0 95.0 L 1440.0 95.0" stroke="#FF0000" fill="none" stroke-width="4px" />
<path d="M 1440.0 95.0 L 1450.0 95.0" stroke="#FF0000" fill="none" stroke-width="4px" />
<path d="M 1450.0 95.0 L 1460.0 95.0" stroke="#FF0000" fill="none" stroke-width="4px" />
<path d="M 1460.0 95.0 L 1460.0 105.0" stroke="#FF0000" fill="none" stroke-width="4px" />
<path d="M 1460.0 105.0 L 1470.0 105.0" stroke="#FF0000" fill="none" stroke-width="4px" />
<path d="M 1450.0 85.0 L 1440.0 85.0" stroke="#FF0000" fill="none" stroke-width="4px" />
<path d="M 2440.0 195.0 L 2440.0 185.0" stroke="#FF0000" fill="none" stroke-width="4px" />
<path d="M 2440.0 185.0 L 2430.0 185.0" stroke="#FF0000" fill="none" stroke-width="4px" />
<path d="M 2430.0 185.0 L 2430.0 175.0" stroke="#FF0000" fill="none" stroke-width="4px" />
<path d="M 2430.0 175.0 L 2420.0 175.0" stroke="#FF0000" fill="none" stroke-width="4px" />
<path d="M 2420.0 175.0 L 2430.0 165.0" stroke="#FF0000" fill="none" stroke-width="4px" />
<path d="M 2430.0 165.0 L 2440.0 165.0" stroke="#FF0000" fill="none" stroke-width="4px" />
<path d="M 2440.0 165.0 L 2450.0 165.0" stroke="#FF0000" fill="none" stroke-width="4px" />
<path d="M 2450.0 165.0 L 2450.0 175.0" stroke="#FF0000" fill="none" stroke-width="4px" />
<path d="M 2450.0 175.0 L 2440.0 175.0" stroke="#FF0000" fill="none" stroke-width="4px" />
<path d="M 2440.0 175.0 L 2450.0 185.0" stroke="#FF0000" fill="none" stroke-width="4px" />
<path d="M 2450.0 185.0 L 2460.0 175.0" stroke="#FF0000" fill="none" stroke-width="4px" />
</svg>