<svg width="2472.26666667" height="235.0" xmlns="http://www.w3.org/2000/svg" version="1.1">
<path d="M 0.0 235.0 L 1985.0 235.0 L 1985.0 0.0 L 0.0 0.0 L 0.0 235.0" stroke="#000000" fill="none" stroke-width="3px" />
<path d="M 2472.26666667 235.0 L 1885.0 235.0 L 1885.0 0.0 L 2472.26666667 0.0 L 2472.26666667 235.0" stroke="#000000" fill="none" stroke-width="3px" />
<path d="M 10.0 257.5 L 0.0 247.5 L 10.0 237.5" stroke="#969696" fill="none" stroke-width="1px" />
<path d="M 10.0 237.5 L 1975.0 237.5" stroke="#969696" fill="none" stroke-width="1px" />
<path d="M 1975.0 237.5 L 1985.0 227.5 L 1975.0 217.5" stroke="#969696" fill="none" stroke-width="1px" />
<path d="M 1975.0 217.5 L 10.0 217.5" stroke="#969696" fill="none" stroke-width="1px" />
<path d="M 10.0 217.5 L 0.0 207.5 L 10.0 197.5" stroke="#969696" fill="none" stroke-width="1px" />
<path d="M 10.0 197.5 L 1975.0 197.5" stroke="#969696" fill="none" stroke-width="1px" />
<path d="M 1975.0 197.5 L 1985.0 187.5 L 1975.0 177.5" stroke="#969696" fill="none" stroke-width="1px" />
<path d="M 1975.0 177.5 L 10.0 177.5" stroke="#969696" fill="none" stroke-width="1px" />
<path d="M 10.0 177.5 L 0.0 167.5 L 10.0 157.5" stroke="#969696" fill="none" stroke-width="1px" />
<path d="M 10.0 157.5 L 1975.0 157.5" stroke="#969696" fill="none" stroke-width="1px" />
<path d="M 1975.0 157.5 L 1985.0 147.5 L 1975.0 137.5" stroke="#969696" fill="none" stroke-width="1px" />
<path d="M 1975.0 137.5 L 10.0 137.5" stroke="#969696" fill="none" stroke-width="1px" />
<path d="M 10.0 137.5 L 0.0 127.5 L 10.0 117.5" stroke="#969696" fill="none" stroke-width="1px" />
<path d="M 10.0 117.5 L 1975.0 117.5" stroke="#969696" fill="none" stroke-width="1px" />
<path d="M 1975.0 117.5 L 1985.0 107.5 L 1975.0 97.5" stroke="#969696" fill="none" stroke-width="1px" />
<path d="M 1975.0 97.5 L 10.0 97.5" stroke="#969696" fill="none" stroke-width="1px" />
<path d="M 10.0 97.5 L 0.0 87.5 L 10.0 77.5" stroke="#969696" fill="none" stroke-width="1px" />
<path d="M 10.0 77.5 L 1975.0 77.5" stroke="#969696" fill="none" stroke-width="1px" />
<path d="M 1975.0 77.5 L 1985.0 67.5 L 1975.0 57.5" stroke="#969696" fill="none" stroke-width="1px" />
<path d="M 1975.0 57.5 L 10.0 57.5" stroke="#969696" fill="none" stroke-width="1px" />
<path d="M 10.0 57.5 L 0.0 47.5 L 10.0 37.5" stroke="#969696" fill="none" stroke-width="1px" />
<path d="M 10.0 37.5 L 1975.0 37.5" stroke="#969696" fill="none" stroke-width="1px" />
<path d="M 1975.0 37.5 L 1985.0 27.5 L 1975.0 17.5" stroke="#969696" fill="none" stroke-width="1px" />
<path d="M 1975.0 17.5 L 10.0 17.5" stroke="#969696" fill="none" stroke-width="1px" />
<path d="M 10.0 17.5 L 0.0 7.5 L 10.0 -2.5" stroke="#969696" fill="none" stroke-width="1px" />
<path d="M 10.0 -2.5 L 1975.0 -2.5" stroke="#969696" fill="none" stroke-width="1px" />
<path d="M 1975.0 -2.5 L 1985.0 -12.5 L 1975.0 -22.5" stroke="#969696" fill="none" stroke-width="1px" />
<path d="M 2462.26666667 257.5 L 2472.26666667 247.5 L 2462.26666667 237.5" stroke="#969696" fill="none" stroke-width="1px" />
<path d="M 2462.26666667 237.5 L 1895.0 237.5" stroke="#969696" fill="none" stroke-width="1px" />
<path d="M 1895.0 237.5 L 1885.0 227.5 L 1895.0 217.5" stroke="#969696" fill="none" stroke-width="1px" />
<path d="M 1895.0 217.5 L 2462.26666667 217.5" stroke="#969696" fill="none" stroke-width="1px" />
<path d="M 2462.26666667 217.5 L 2472.26666667 207.5 L 2462.26666667 197.5" stroke="#969696" fill="none" stroke-width="1px" />
<path d="M 2462.26666667 197.5 L 1895.0 197.5" stroke="#969696" fill="none" stroke-width="1px" />
<path d="M 1895.0 197.5 L 1885.0 187.5 L 1895.0 177.5" stroke="#969696" fill="none" stroke-width="1px" />
<path d="M 1895.0 177.5 L 2462.26666667 177.5" stroke="#969696" fill="none" stroke-width="1px" />
<path d="M 2462.26666667 177.5 L 2472.26666667 167.5 L 2462.26666667 157.5" stroke="#969696" fill="none" stroke-width="1px" />
<path d="M 2462.26666667 157.5 L 1895.0 157.5" stroke="#969696" fill="none" stroke-width="1px" />
<path d="M 1895.0 157.5 L 1885.0 147.5 L 1895.0 137.5" stroke="#969696" fill="none" stroke-width="1px" />
<path d="M 1895.0 137.5 L 2462.26666667 137.5" stroke="#969696" fill="none" stroke-width="1px" />
<path d="M 2462.26666667 137.5 L 2472.26666667 127.5 L 2462.26666667 117.5" stroke="#969696" fill="none" stroke-width="1px" />
<path d="M 2462.26666667 117.5 L 1895.0 117.5" stroke="#969696" fill="none" stroke-width="1px" />
<path d="M 1895.0 117.5 L 1885.0 107.5 L 1895.0 97.5" stroke="#969696" fill="none" stroke-width="1px" />
<path d="M 1895.0 97.5 L 2462.26666667 97.5" stroke="#969696" fill="none" stroke-width="1px" />
<path d="M 2462.26666667 97.5 L 2472.26666667 87.5 L 2462.26666667 77.5" stroke="#969696" fill="none" stroke-width="1px" />
<path d="M 2462.26666667 77.5 L 1895.0 77.5" stroke="#969696" fill="none" stroke-width="1px" />
<path d="M 1895.0 77.5 L 1885.0 67.5 L 1895.0 57.5" stroke="#969696" fill="none" stroke-width="1px" />
<path d="M 1895.0 57.5 L 2462.26666667 57.5" stroke="#969696" fill="none" stroke-width="1px" />
<path d="M 2462.26666667 57.5 L 2472.26666667 47.5 L 2462.26666667 37.5" stroke="#969696" fill="none" stroke-width="1px" />
<path d="M 2462.26666667 37.5 L 1895.0 37.5" stroke="#969696" fill="none" stroke-width="1px" />
<path d="M 1895.0 37.5 L 1885.0 27.5 L 1895.0 17.5" stroke="#969696" fill="none" stroke-width="1px" />
<path d="M 1895.0 17.5 L 2462.26666667 17.5" stroke="#969696" fill="none" stroke-width="1px" />
<path d="M 2462.26666667 17.5 L 2472.26666667 7.5 L 2462.26666667 -2.5" stroke="#969696" fill="none" stroke-width="1px" />
<path d="M 2462.26666667 -2.5 L 1895.0 -2.5" stroke="#969696" fill="none" stroke-width="1px" />
<path d="M 1895.0 -2.5 L 1885.0 -12.5 L 1895.0 -22.5" stroke="#969696" fill="none" stroke-width="1px" />
<path d="M 0.0 235.0 L 820.0 235.0" stroke="#0095FF" fill="none" stroke-width="2px" />
<path d="M 820.0 235.0 L 820.0 185.0" stroke="#0095FF" fill="none" stroke-width="2px" />
<path d="M 890.0 175.0 L 890.0 155.0" stroke="#0095FF" fill="none" stroke-width="2px" />
<path d="M 890.0 75.0 L 840.0 75.0" stroke="#0095FF" fill="none" stroke-width="2px" />
<path d="M 840.0 75.0 L 840.0 85.0" stroke="#0095FF" fill="none" stroke-width="2px" />
<path d="M 830.0 95.0 L 830.0 115.0" stroke="#0095FF" fill="none" stroke-width="2px" />
<path d="M 820.0 115.0 L 830.0 115.0" stroke="#0095FF" fill="none" stroke-width="2px" />
<path d="M 830.0 115.0 L 830.0 75.0" stroke="#0095FF" fill="none" stroke-width="2px" />
<path d="M 830.0 75.0 L 940.0 75.0" stroke="#0095FF" fill="none" stroke-width="2px" />
<path d="M 940.0 75.0 L 940.0 105.0" stroke="#0095FF" fill="none" stroke-width="2px" />
<path d="M 960.0 85.0 L 960.0 135.0" stroke="#0095FF" fill="none" stroke-width="2px" />
<path d="M 930.0 135.0 L 910.0 135.0" stroke="#0095FF" fill="none" stroke-width="2px" />
<path d="M 910.0 135.0 L 910.0 155.0" stroke="#0095FF" fill="none" stroke-width="2px" />
<path d="M 900.0 155.0 L 860.0 155.0" stroke="#0095FF" fill="none" stroke-width="2px" />
<path d="M 860.0 155.0 L 860.0 195.0" stroke="#0095FF" fill="none" stroke-width="2px" />
<path d="M 850.0 205.0 L 970.0 205.0" stroke="#0095FF" fill="none" stroke-width="2px" />
<path d="M 970.0 205.0 L 970.0 135.0" stroke="#0095FF" fill="none" stroke-width="2px" />
<path d="M 970.0 135.0 L 1360.0 135.0" stroke="#0095FF" fill="none" stroke-width="2px" />
<path d="M 1360.0 135.0 L 1360.0 165.0" stroke="#0095FF" fill="none" stroke-width="2px" />
<path d="M 1420.0 205.0 L 1400.0 205.0" stroke="#0095FF" fill="none" stroke-width="2px" />
<path d="M 1400.0 205.0 L 1400.0 215.0" stroke="#0095FF" fill="none" stroke-width="2px" />
<path d="M 1400.0 215.0 L 1400.0 155.0" stroke="#0095FF" fill="none" stroke-width="2px" />
<path d="M 2472.26666667 235.0 L 2220.0 235.0" stroke="#0095FF" fill="none" stroke-width="2px" />
<path d="M 2220.0 235.0 L 2220.0 135.0" stroke="#0095FF" fill="none" stroke-width="2px" />
<path d="M 2200.0 95.0 L 2200.0 145.0" stroke="#0095FF" fill="none" stroke-width="2px" />
<path d="M 2210.0 145.0 L 2010.0 145.0" stroke="#0095FF" fill="none" stroke-width="2px" />
<path d="M 2010.0 145.0 L 2010.0 85.0" stroke="#0095FF" fill="none" stroke-width="2px" />
<path d="M 1990.0 115.0 L 1990.0 75.0" stroke="#0095FF" fill="none" stroke-width="2px" />
<path d="M 2000.0 75.0 L 1900.0 75.0" stroke="#0095FF" fill="none" stroke-width="2px" />
<path d="M 1900.0 75.0 L 1900.0 185.0" stroke="#0095FF" fill="none" stroke-width="2px" />
<path d="M 1910.0 195.0 L 1910.0 225.0" stroke="#0095FF" fill="none" stroke-width="2px" />
<path d="M 820.0 185.0 L 830.0 185.0" stroke="#FF0000" fill="none" stroke-width="4px" />
<path d="M 830.0 185.0 L 840.0 185.0" stroke="#FF0000" fill="none" stroke-width="4px" />
<path d="M 840.0 185.0 L 850.0 185.0" stroke="#FF0000" fill="none" stroke-width="4px" />
<path d="M 850.0 185.0 L 860.0 185.0" stroke="#FF0000" fill="none" stroke-width="4px" />
<path d="M 860.0 185.0 L 870.0 185.0" stroke="#FF0000" fill="none" stroke-width="4px" />
<path d="M 870.0 185.0 L 880.0 185.0" stroke="#FF0000" fill="none" stroke-width="4px" />
<path d="M 880.0 185.0 L 880.0 175.0" stroke="#FF0000" fill="none" stroke-width="4px" />
<path d="M 880.0 175.0 L 870.0 175.0" stroke="#FF0000" fill="none" stroke-width="4px" />
<path d="M 870.0 175.0 L 860.0 175.0" stroke="#FF0000" fill="none" stroke-width="4px" />
<path d="M 860.0 175.0 L 850.0 175.0" stroke="#FF0000" fill="none" stroke-width="4px" />
<path d="M 850.0 175.0 L 840.0 175.0" stroke="#FF0000" fill="none" stroke-width="4px" />
<path d="M 840.0 175.0 L 830.0 175.0" stroke="#FF0000" fill="none" stroke-width="4px" />
<path d="M 830.0 175.0 L 820.0 175.0" stroke="#FF0000" fill="none" stroke-width="4px" />
<path d="M 820.0 175.0 L 830.0 165.0" stroke="#FF0000" fill="none" stroke-width="4px" />
<path d="M 830.0 165.0 L 840.0 165.0" stroke="#FF0000" fill="none" stroke-width="4px" />
<path d="M 840.0 165.0 L 850.0 165.0" stroke="#FF0000" fill="none" stroke-width="4px" />
<path d="M 850.0 165.0 L 860.0 165.0" stroke="#FF0000" fill="none" stroke-width="4px" />
<path d="M 860.0 165.0 L 870.0 165.0" stroke="#FF0000" fill="none" stroke-width="4px" />
<path d="M 870.0 165.0 L 880.0 165.0" stroke="#FF0000" fill="none" stroke-width="4px" />
<path d="M 880.0 165.0 L 890.0 165.0" stroke="#FF0000" fill="none" stroke-width="4px" />
<path d="M 890.0 165.0 L 890.0 175.0" stroke="#FF0000" fill="none" stroke-width="4px" />
<path d="M 890.0 155.0 L 880.0 155.0" stroke="#FF0000" fill="none" stroke-width="4px" />
<path d="M 880.0 155.0 L 870.0 155.0" stroke="#FF0000" fill="none" stroke-width="4px" />
<path d="M 870.0 155.0 L 860.0 155.0" stroke="#FF0000" fill="none" stroke-width="4px" />
<path d="M 860.0 155.0 L 850.0 155.0" stroke="#FF0000" fill="none" stroke-width="4px" />
<path d="M 850.0 155.0 L 840.0 155.0" stroke="#FF0000" fill="none" stroke-width="4px" />
<path d="M 840.0 155.0 L 850.0 145.0" stroke="#FF0000" fill="none" stroke-width="4px" />
<path d="M 850.0 145.0 L 860.0 145.0" stroke="#FF0000" fill="none" stroke-width="4px" />
<path d="M 860.0 145.0 L 870.0 145.0" stroke="#FF0000" fill="none" stroke-width="4px" />
<path d="M 870.0 145.0 L 880.0 145.0" stroke="#FF0000" fill="none" stroke-width="4px" />
<path d="M 880.0 145.0 L 890.0 145.0" stroke="#FF0000" fill="none" stroke-width="4px" />
<path d="M 890.0 145.0 L 900.0 145.0" stroke="#FF0000" fill="none" stroke-width="4px" />
<path d="M 900.0 145.0 L 910.0 145.0" stroke="#FF0000" fill="none" stroke-width="4px" />
<path d="M 910.0 145.0 L 920.0 145.0" stroke="#FF0000" fill="none" stroke-width="4px" />
<path d="M 920.0 145.0 L 920.0 135.0" stroke="#FF0000" fill="none" stroke-width="4px" />
<path d="M 920.0 135.0 L 910.0 135.0" stroke="#FF0000" fill="none" stroke-width="4px" />
<path d="M 910.0 135.0 L 900.0 135.0" stroke="#FF0000" fill="none" stroke-width="4px" />
<path d="M 900.0 135.0 L 890.0 135.0" stroke="#FF0000" fill="none" stroke-width="4px" />
<path d="M 890.0 135.0 L 880.0 135.0" stroke="#FF0000" fill="none" stroke-width="4px" />
<path d="M 880.0 135.0 L 870.0 135.0" stroke="#FF0000" fill="none" stroke-width="4px" />
<path d="M 870.0 135.0 L 860.0 135.0" stroke="#FF0000" fill="none" stroke-width="4px" />
<path d="M 860.0 135.0 L 850.0 135.0" stroke="#FF0000" fill="none" stroke-width="4px" />
<path d="M 850.0 135.0 L 840.0 135.0" stroke="#FF0000" fill="none" stroke-width="4px" />
<path d="M 840.0 135.0 L 850.0 125.0" stroke="#FF0000" fill="none" stroke-width="4px" />
<path d="M 850.0 125.0 L 860.0 125.0" stroke="#FF0000" fill="none" stroke-width="4px" />
<path d="M 860.0 125.0 L 870.0 125.0" stroke="#FF0000" fill="none" stroke-width="4px" />
<path d="M 870.0 125.0 L 880.0 125.0" stroke="#FF0000" fill="none" stroke-width="4px" />
<path d="M 880.0 125.0 L 890.0 125.0" stroke="#FF0000" fill="none" stroke-width="4px" />
<path d="M 890.0 125.0 L 900.0 125.0" stroke="#FF0000" fill="none" stroke-width="4px" />
<path d="M 900.0 125.0 L 910.0 125.0" stroke="#FF0000" fill="none" stroke-width="4px" />
<path d="M 910.0 125.0 L 920.0 125.0" stroke="#FF0000" fill="none" stroke-width="4px" />
<path d="M 920.0 125.0 L 930.0 125.0" stroke="#FF0000" fill="none" stroke-width="4px" />
<path d="M 930.0 125.0 L 940.0 125.0" stroke="#FF0000" fill="none" stroke-width="4px" />
<path d="M 940.0 125.0 L 950.0 125.0" stroke="#FF0000" fill="none" stroke-width="4px" />
<path d="M 950.0 125.0 L 960.0 125.0" stroke="#FF0000" fill="none" stroke-width="4px" />
<path d="M 960.0 125.0 L 970.0 125.0" stroke="#FF0000" fill="none" stroke-width="4px" />
<path d="M 970.0 125.0 L 980.0 125.0" stroke="#FF0000" fill="none" stroke-width="4px" />
<path d="M 980.0 125.0 L 980.0 115.0" stroke="#FF0000" fill="none" stroke-width="4px" />
<path d="M 980.0 115.0 L 970.0 115.0" stroke="#FF0000" fill="none" stroke-width="4px" />
<path d="M 970.0 115.0 L 960.0 115.0" stroke="#FF0000" fill="none" stroke-width="4px" />
<path d="M 960.0 115.0 L 950.0 115.0" stroke="#FF0000" fill="none" stroke-width="4px" />
<path d="M 950.0 115.0 L 940.0 115.0" stroke="#FF0000" fill="none" stroke-width="4px" />
<path d="M 940.0 115.0 L 930.0 115.0" stroke="#FF0000" fill="none" stroke-width="4px" />
<path d="M 930.0 115.0 L 920.0 115.0" stroke="#FF0000" fill="none" stroke-width="4px" />
<path d="M 920.0 115.0 L 910.0 115.0" stroke="#FF0000" fill="none" stroke-width="4px" />
<path d="M 910.0 115.0 L 900.0 115.0" stroke="#FF0000" fill="none" stroke-width="4px" />
<path d="M 900.0 115.0 L 890.0 115.0" stroke="#FF0000" fill="none" stroke-width="4px" />
<path d="M 890.0 115.0 L 880.0 115.0" stroke="#FF0000" fill="none" stroke-width="4px" />
<path d="M 880.0 115.0 L 870.0 115.0" stroke="#FF0000" fill="none" stroke-width="4px" />
<path d="M 870.0 115.0 L 860.0 115.0" stroke="#FF0000" fill="none" stroke-width="4px" />
<path d="M 860.0 115.0 L 860.0 105.0" stroke="#FF0000" fill="none" stroke-width="4px" />
<path d="M 860.0 105.0 L 870.0 105.0" stroke="#FF0000" fill="none" stroke-width="4px" />
<path d="M 870.0 105.0 L 880.0 105.0" stroke="#FF0000" fill="none" stroke-width="4px" />
<path d="M 880.0 105.0 L 890.0 105.0" stroke="#FF0000" fill="none" stroke-width="4px" />
<path d="M 890.0 105.0 L 900.0 105.0" stroke="#FF0000" fill="none" stroke-width="4px" />
<path d="M 900.0 105.0 L 910.0 105.0" stroke="#FF0000" fill="none" stroke-width="4px" />
<path d="M 910.0 105.0 L 920.0 105.0" stroke="#FF0000" fill="none" stroke-width="4px" />
<path d="M 920.0 105.0 L 920.0 95.0" stroke="#FF0000" fill="none" stroke-width="4px" />
<path d="M 920.0 95.0 L 910.0 95.0" stroke="#FF0000" fill="none" stroke-width="4px" />
<path d="M 910.0 95.0 L 900.0 95.0" stroke="#FF0000" fill="none" stroke-width="4px" />
<path d="M 900.0 95.0 L 890.0 95.0" stroke="#FF0000" fill="none" stroke-width="4px" />
<path d="M 890.0 95.0 L 880.0 95.0" stroke="#FF0000" fill="none" stroke-width="4px" />
<path d="M 880.0 95.0 L 870.0 95.0" stroke="#FF0000" fill="none" stroke-width="4px" />
<path d="M 870.0 95.0 L 880.0 85.0" stroke="#FF0000" fill="none" stroke-width="4px" />
<path d="M 880.0 85.0 L 890.0 85.0" stroke="#FF0000" fill="none" stroke-width="4px" />
<path d="M 890.0 85.0 L 900.0 85.0" stroke="#FF0000" fill="none" stroke-width="4px" />
<path d="M 900.0 85.0 L 910.0 85.0" stroke="#FF0000" fill="none" stroke-width="4px" />
<path d="M 910.0 85.0 L 900.0 75.0" stroke="#FF0000" fill="none" stroke-width="4px" />
<path d="M 900.0 75.0 L 890.0 75.0" stroke="#FF0000" fill="none" stroke-width="4px" />
<path d="M 840.0 85.0 L 830.0 85.0" stroke="#FF0000" fill="none" stroke-width="4px" />
<path d="M 830.0 85.0 L 820.0 85.0" stroke="#FF0000" fill="none" stroke-width="4px" />
<path d="M 820.0 85.0 L 820.0 95.0" stroke="#FF0000" fill="none" stroke-width="4px" />
<path d="M 820.0 95.0 L 810.0 95.0" stroke="#FF0000" fill="none" stroke-width="4px" />
<path d="M 810.0 95.0 L 810.0 105.0" stroke="#FF0000" fill="none" stroke-width="4px" />
<path d="M 810.0 105.0 L 820.0 105.0" stroke="#FF0000" fill="none" stroke-width="4px" />
<path d="M 820.0 105.0 L 830.0 105.0" stroke="#FF0000" fill="none" stroke-width="4px" />
<path d="M 830.0 105.0 L 840.0 105.0" stroke="#FF0000" fill="none" stroke-width="4px" />
<path d="M 840.0 105.0 L 840.0 95.0" stroke="#FF0000" fill="none" stroke-width="4px" />
<path d="M 840.0 95.0 L 830.0 95.0" stroke="#FF0000" fill="none" stroke-width="4px" />
<path d="M 830.0 115.0 L 820.0 115.0" stroke="#FF0000" fill="none" stroke-width="4px" />
<path d="M 940.0 105.0 L 950.0 105.0" stroke="#FF0000" fill="none" stroke-width="4px" />
<path d="M 950.0 105.0 L 960.0 105.0" stroke="#FF0000" fill="none" stroke-width="4px" />
<path d="M 960.0 105.0 L 970.0 105.0" stroke="#FF0000" fill="none" stroke-width="4px" />
<path d="M 970.0 105.0 L 980.0 105.0" stroke="#FF0000" fill="none" stroke-width="4px" />
<path d="M 980.0 105.0 L 970.0 95.0" stroke="#FF0000" fill="none" stroke-width="4px" />
<path d="M 970.0 95.0 L 960.0 95.0" stroke="#FF0000" fill="none" stroke-width="4px" />
<path d="M 960.0 95.0 L 950.0 95.0" stroke="#FF0000" fill="none" stroke-width="4px" />
<path d="M 950.0 95.0 L 960.0 85.0" stroke="#FF0000" fill="none" stroke-width="4px" />
<path d="M 960.0 135.0 L 950.0 135.0" stroke="#FF0000" fill="none" stroke-width="4px" />
<path d="M 950.0 135.0 L 940.0 135.0" stroke="#FF0000" fill="none" stroke-width="4px" />
<path d="M 940.0 135.0 L 930.0 135.0" stroke="#FF0000" fill="none" stroke-width="4px" />
<path d="M 910.0 155.0 L 900.0 155.0" stroke="#FF0000" fill="none" stroke-width="4px" />
<path d="M 860.0 195.0 L 850.0 195.0" stroke="#FF0000" fill="none" stroke-width="4px" />
<path d="M 850.0 195.0 L 840.0 195.0" stroke="#FF0000" fill="none" stroke-width="4px" />
<path d="M 840.0 195.0 L 830.0 195.0" stroke="#FF0000" fill="none" stroke-width="4px" />
<path d="M 830.0 195.0 L 840.0 205.0" stroke="#FF0000" fill="none" stroke-width="4px" />
<path d="M 840.0 205.0 L 850.0 205.0" stroke="#FF0000" fill="none" stroke-width="4px" />
<path d="M 1360.0 165.0 L 1370.0 165.0" stroke="#FF0000" fill="none" stroke-width="4px" />
<path d="M 1370.0 165.0 L 1380.0 165.0" stroke="#FF0000" fill="none" stroke-width="4px" />
<path d="M 1380.0 165.0 L 1390.0 165.0" stroke="#FF0000" fill="none" stroke-width="4px" />
<path d="M 1390.0 165.0 L 1400.0 165.0" stroke="#FF0000" fill="none" stroke-width="4px" />
<path d="M 1400.0 165.0 L 1410.0 165.0" stroke="#FF0000" fill="none" stroke-width="4px" />
<path d="M 1410.0 165.0 L 1420.0 165.0" stroke="#FF0000" fill="none" stroke-width="4px" />
<path d="M 1420.0 165.0 L 1430.0 165.0" stroke="#FF0000" fill="none" stroke-width="4px" />
<path d="M 1430.0 165.0 L 1430.0 175.0" stroke="#FF0000" fill="none" stroke-width="4px" />
<path d="M 1430.0 175.0 L 1420.0 175.0" stroke="#FF0000" fill="none" stroke-width="4px" />
<path d="M 1420.0 175.0 L 1410.0 175.0" stroke="#FF0000" fill="none" stroke-width="4px" />
<path d="M 1410.0 175.0 L 1400.0 175.0" stroke="#FF0000" fill="none" stroke-width="4px" />
<path d="M 1400.0 175.0 L 1390.0 175.0" stroke="#FF0000" fill="none" stroke-width="4px" />
<path d="M 1390.0 175.0 L 1380.0 175.0" stroke="#FF0000" fill="none" stroke-width="4px" />
<path d="M 1380.0 175.0 L 1370.0 175.0" stroke="#FF0000" fill="none" stroke-width="4px" />
<path d="M 1370.0 175.0 L 1360.0 175.0" stroke="#FF0000" fill="none" stroke-width="4px" />
<path d="M 1360.0 175.0 L 1360.0 185.0" stroke="#FF0000" fill="none" stroke-width="4px" />
<path d="M 1360.0 185.0 L 1370.0 185.0" stroke="#FF0000" fill="none" stroke-width="4px" />
<path d="M 1370.0 185.0 L 1380.0 185.0" stroke="#FF0000" fill="none" stroke-width="4px" />
<path d="M 1380.0 185.0 L 1390.0 185.0" stroke="#FF0000" fill="none" stroke-width="4px" />
<path d="M 1390.0 185.0 L 1400.0 185.0" stroke="#FF0000" fill="none" stroke-width="4px" />
<path d="M 1400.0 185.0 L 1410.0 185.0" stroke="#FF0000" fill="none" stroke-width="4px" />
<path d="M 1410.0 185.0 L 1420.0 185.0" stroke="#FF0000" fill="none" stroke-width="4px" />
<path d="M 1420.0 185.0 L 1430.0 185.0" stroke="#FF0000" fill="none" stroke-width="4px" />
<path d="M 1430.0 185.0 L 1430.0 195.0" stroke="#FF0000" fill="none" stroke-width="4px" />
<path d="M 1430.0 195.0 L 1420.0 195.0" stroke="#FF0000" fill="none" stroke-width="4px" />
<path d="M 1420.0 195.0 L 1410.0 195.0" stroke="#FF0000" fill="none" stroke-width="4px" />
<path d="M 1410.0 195.0 L 1400.0 195.0" stroke="#FF0000" fill="none" stroke-width="4px" />
<path d="M 1400.0 195.0 L 1390.0 195.0" stroke="#FF0000" fill="none" stroke-width="4px" />
<path d="M 1390.0 195.0 L 1380.0 195.0" stroke="#FF0000" fill="none" stroke-width="4px" />
<path d="M 1380.0 195.0 L 1390.0 205.0" stroke="#FF0000" fill="none" stroke-width="4px" />
<path d="M 1390.0 205.0 L 1400.0 205.0" stroke="#FF0000" fill="none" stroke-width="4px" />
<path d="M 1400.0 205.0 L 1410.0 205.0" stroke="#FF0000" fill="none" stroke-width="4px" />
<path d="M 1410.0 205.0 L 1420.0 205.0" stroke="#FF0000" fill="none" stroke-width="4px" />
<path d="M 1400.0 155.0 L 1390.0 155.0" stroke="#FF0000" fill="none" stroke-width="4px" />
<path d="M 1390.0 155.0 L 1380.0 155.0" stroke="#FF0000" fill="none" stroke-width="4px" />
<path d="M 1380.0 155.0 L 1370.0 155.0" stroke="#FF0000" fill="none" stroke-width="4px" />
<path d="M 1370.0 155.0 L 1380.0 145.0" stroke="#FF0000" fill="none" stroke-width="4px" />
<path d="M 1380.0 145.0 L 1390.0 145.0" stroke="#FF0000" fill="none" stroke-width="4px" />
<path d="M 1390.0 145.0 L 1400.0 145.0" stroke="#FF0000" fill="none" stroke-width="4px" />
<path d="M 1400.0 145.0 L 1410.0 155.0" stroke="#FF0000" fill="none" stroke-width="4px" />
<path d="M 1410.0 155.0 L 1420.0 155.0" stroke="#FF0000" fill="none" stroke-width="4px" />
<path d="M 2220.0 135.0 L 2210.0 135.0" stroke="#FF0000" fill="none" stroke-width="4px" />
<path d="M 2210.0 135.0 L 2200.0 135.0" stroke="#FF0000" fill="none" stroke-width="4px" />
<path d="M 2200.0 135.0 L 2190.0 135.0" stroke="#FF0000" fill="none" stroke-width="4px" />
<path d="M 2190.0 135.0 L 2180.0 135.0" stroke="#FF0000" fill="none" stroke-width="4px" />
<path d="M 2180.0 135.0 L 2180.0 125.0" stroke="#FF0000" fill="none" stroke-width="4px" />
<path d="M 2180.0 125.0 L 2190.0 125.0" stroke="#FF0000" fill="none" stroke-width="4px" />
<path d="M 2190.0 125.0 L 2200.0 125.0" stroke="#FF0000" fill="none" stroke-width="4px" />
<path d="M 2200.0 125.0 L 2210.0 125.0" stroke="#FF0000" fill="none" stroke-width="4px" />
<path d="M 2210.0 125.0 L 2220.0 125.0" stroke="#FF0000" fill="none" stroke-width="4px" />
<path d="M 2220.0 125.0 L 2220.0 115.0" stroke="#FF0000" fill="none" stroke-width="4px" />
<path d="M 2220.0 115.0 L 2210.0 115.0" stroke="#FF0000" fill="none" stroke-width="4px" />
<path d="M 2210.0 115.0 L 2200.0 115.0" stroke="#FF0000" fill="none" stroke-width="4px" />
<path d="M 2200.0 115.0 L 2190.0 115.0" stroke="#FF0000" fill="none" stroke-width="4px" />
<path d="M 2190.0 115.0 L 2180.0 115.0" stroke="#FF0000" fill="none" stroke-width="4px" />
<path d="M 2180.0 115.0 L 2190.0 105.0" stroke="#FF0000" fill="none" stroke-width="4px" />
<path d="M 2190.0 105.0 L 2200.0 105.0" stroke="#FF0000" fill="none" stroke-width="4px" />
<path d="M 2200.0 105.0 L 2210.0 105.0" stroke="#FF0000" fill="none" stroke-width="4px" />
<path d="M 2210.0 105.0 L 2210.0 95.0" stroke="#FF0000" fill="none" stroke-width="4px" />
<path d="M 2210.0 95.0 L 2200.0 95.0" stroke="#FF0000" fill="none" stroke-width="4px" />
<path d="M 2200.0 145.0 L 2190.0 145.0" stroke="#FF0000" fill="none" stroke-width="4px" />
<path d="M 2190.0 145.0 L 2210.0 145.0" stroke="#FF0000" fill="none" stroke-width="4px" />
<path d="M 2010.0 85.0 L 2000.0 85.0" stroke="#FF0000" fill="none" stroke-width="4px" />
<path d="M 2000.0 85.0 L 1990.0 85.0" stroke="#FF0000" fill="none" stroke-width="4px" />
<path d="M 1990.0 85.0 L 1980.0 85.0" stroke="#FF0000" fill="none" stroke-width="4px" />
<path d="M 1980.0 85.0 L 1970.0 85.0" stroke="#FF0000" fill="none" stroke-width="4px" />
<path d="M 1970.0 85.0 L 1970.0 95.0" stroke="#FF0000" fill="none" stroke-width="4px" />
<path d="M 1970.0 95.0 L 1980.0 95.0" stroke="#FF0000" fill="none" stroke-width="4px" />
<path d="M 1980.0 95.0 L 1990.0 95.0" stroke="#FF0000" fill="none" stroke-width="4px" />
<path d="M 1990.0 95.0 L 2000.0 95.0" stroke="#FF0000" fill="none" stroke-width="4px" />
<path d="M 2000.0 95.0 L 2000.0 105.0" stroke="#FF0000" fill="none" stroke-width="4px" />
<path d="M 2000.0 105.0 L 1990.0 105.0" stroke="#FF0000" fill="none" stroke-width="4px" />
<path d="M 1990.0 105.0 L 1980.0 105.0" stroke="#FF0000" fill="none" stroke-width="4px" />
<path d="M 1980.0 105.0 L 1990.0 115.0" stroke="#FF0000" fill="none" stroke-width="4px" />
<path d="M 1990.0 75.0 L 1980.0 75.0" stroke="#FF0000" fill="none" stroke-width="4px" />
<path d="M 1980.0 75.0 L 1990.0 65.0" stroke="#FF0000" fill="none" stroke-width="4px" />
<path d="M 1990.0 65.0 L 2000.0 75.0" stroke="#FF0000" fill="none" stroke-width="4px" />
<path d="M 1900.0 185.0 L 1890.0 185.0" stroke="#FF0000" fill="none" stroke-width="4px" />
<path d="M 1890.0 185.0 L 1880.0 185.0" stroke="#FF0000" fill="none" stroke-width="4px" />
<path d="M 1880.0 185.0 L 1870.0 185.0" stroke="#FF0000" fill="none" stroke-width="4px" />
<path d="M 1870.0 185.0 L 1870.0 195.0" stroke="#FF0000" fill="none" stroke-width="4px" />
<path d="M 1870.0 195.0 L 1860.0 195.0" stroke="#FF0000" fill="none" stroke-width="4px" />
<path d="M 1860.0 195.0 L 1860.0 205.0" stroke="#FF0000" fill="none" stroke-width="4px" />
<path d="M 1860.0 205.0 L 1850.0 205.0" stroke="#FF0000" fill="none" stroke-width="4px" />
<path d="M 1850.0 205.0 L 1850.0 215.0" stroke="#FF0000" fill="none" stroke-width="4px" />
<path d="M 1850.0 215.0 L 1860.0 215.0" stroke="#FF0000" fill="none" stroke-width="4px" />
<path d="M 1860.0 215.0 L 1870.0 215.0" stroke="#FF0000" fill="none" stroke-width="4px" />
<path d="M 1870.0 215.0 L 1880.0 215.0" stroke="#FF0000" fill="none" stroke-width="4px" />
<path d="M 1880.0 215.0 L 1890.0 215.0" stroke="#FF0000" fill="none" stroke-width="4px" />
<path d="M 1890.0 215.0 L 1900.0 215.0" stroke="#FF0000" fill="none" stroke-width="4px" />
<path d="M 1900.0 215.0 L 1910.0 215.0" stroke="#FF0000" fill="none" stroke-width="4px" />
<path d="M 1910.0 215.0 L 1920.0 215.0" stroke="#FF0000" fill="none" stroke-width="4px" />
<path d="M 1920.0 215.0 L 1920.0 205.0" stroke="#FF0000" fill="none" stroke-width="4px" />
<path d="M 1920.0 205.0 L 1910.0 205.0" stroke="#FF0000" fill="none" stroke-width="4px" />
<path d="M 1910.0 205.0 L 1900.0 205.0" stroke="#FF0000" fill="none" stroke-width="4px" />
<path d="M 1900.0 205.0 L 1890.0 205.0" stroke="#FF0000" fill="none" stroke-width="4px" />
<path d="M 1890.0 205.0 L 1880.0 205.0" stroke="#FF0000" fill="none" stroke-width="4px" />
<path d="M 1880.0 205.0 L 1870.0 205.0" stroke="#FF0000" fill="none" stroke-width="4px" />
<path d="M 1870.0 205.0 L 1880.0 195.0" stroke="#FF0000" fill="none" stroke-width="4px" />
<path d="M 1880.0 195.0 L 1890.0 195.0" stroke="#FF0000" fill="none" stroke-width="4px" />
<path d="M 1890.0 195.0 L 1900.0 195.0" stroke="#FF0000" fill="none" stroke-width="4px" />
<path d="M 1900.0 195.0 L 1910.0 195.0" stroke="#FF0000" fill="none" stroke-width="4px" />
<path d="M 1910.0 225.0 L 1900.0 225.0" stroke="#FF0000" fill="none" stroke-width="4px" />
<path d="M 1900.0 225.0 L 1890.0 225.0" stroke="#FF0000" fill="none" stroke-width="4px" />
<path d="M 1890.0 225.0 L 1880.0 225.0" stroke="#FF0000" fill="none" stroke-width="4px" />
<path d="M 1880.0 225.0 L 1870.0 225.0" stroke="#FF0000" fill="none" stroke-width="4px" />
<path d="M 1870.0 225.0 L 1860.0 225.0" stroke="#FF0000" fill="none" stroke-width="4px" />
<path d="M 1860.0 225.0 L 1870.0 235.0" stroke="#FF0000" fill="none" stroke-width="4px" />
<path d="M 1870.0 235.0 L 1880.0 235.0" stroke="#FF0000" fill="none" stroke-width="4px" />
<path d="M 1880.0 235.0 L 1890.0 235.0" stroke="#FF0000" fill="none" stroke-width="4px" />
<path d="M 1890.0 235.0 L 1900.0 235.0" stroke="#FF0000" fill="none" stroke-width="4px" />
</svg>