<svg width="2523.06666667" height="235.0" xmlns="http://www.w3.org/2000/svg" version="1.1">
<path d="M 0.0 235.0 L 1985.0 235.0 L 1985.0 0.0 L 0.0 0.0 L 0.0 235.0" stroke="#000000" fill="none" stroke-width="3px" />
<path d="M 2523.06666667 235.0 L 1885.0 235.0 L 1885.0 0.0 L 2523.06666667 0.0 L 2523.06666667 235.0" stroke="#000000" fill="none" stroke-width="3px" />
<path d="M 10.0 257.5 L 0.0 247.5 L 10.0 237.5" stroke="#969696" fill="none" stroke-width="1px" />
<path d="M 10.0 237.5 L 1975.0 237.5" stroke="#969696" fill="none" stroke-width="1px" />
<path d="M 1975.0 237.5 L 1985.0 227.5 L 1975.0 217.5" stroke="#969696" fill="none" stroke-width="1px" />
<path d="M 1975.0 217.5 L 10.0 217.5" stroke="#969696" fill="none" stroke-width="1px" />
<path d="M 10.0 217.5 L 0.0 207.5 L 10.0 197.5" stroke="#969696" fill="none" stroke-width="1px" />
<path d="M 10.0 197.5 L 1975.0 197.5" stroke="#969696" fill="none" stroke-width="1px" />
<path d="M 1975.0 197.5 L 1985.0 187.5 L 1975.0 177.5" stroke="#969696" fill="none" stroke-width="1px" />
<path d="M 1975.0 177.5 L 10.0 177.5" stroke="#969696" fill="none" stroke-width="1px" />
<path d="M 10.0 177.5 L 0.0 167.5 L 10.0 157.5" stroke="#969696" fill="none" stroke-width="1px" />
<path d="M 10.0 157.5 L 1975.0 157.5" stroke="#969696" fill="none" stroke-width="1px" />
<path d="M 1975.0 157.5 L 1985.0 147.5 L 1975.0 137.5" stroke="#969696" fill="none" stroke-width="1px" />
<path d="M 1975.0 137.5 L 10.0 137.5" stroke="#969696" fill="none" stroke-width="1px" />
<path d="M 10.0 137.5 L 0.0 127.5 L 10.0 117.5" stroke="#969696" fill="none" stroke-width="1px" />
<path d="M 10.0 117.5 L 1975.0 117.5" stroke="#969696" fill="none" stroke-width="1px" />
<path d="M 1975.0 117.5 L 1985.0 107.5 L 1975.0 97.5" stroke="#969696" fill="none" stroke-width="1px" />
<path d="M 1975.0 97.5 L 10.0 97.5" stroke="#969696" fill="none" stroke-width="1px" />
<path d="M 10.0 97.5 L 0.0 87.5 L 10.0 77.5" stroke="#969696" fill="none" stroke-width="1px" />
<path d="M 10.0 77.5 L 1975.0 77.5" stroke="#969696" fill="none" stroke-width="1px" />
<path d="M 1975.0 77.5 L 1985.0 67.5 L 1975.0 57.5" stroke="#969696" fill="none" stroke-width="1px" />
<path d="M 1975.0 57.5 L 10.0 57.5" stroke="#969696" fill="none" stroke-width="1px" />
<path d="M 10.0 57.5 L 0.0 47.5 L 10.0 37.5" stroke="#969696" fill="none" stroke-width="1px" />
<path d="M 10.0 37.5 L 1975.0 37.5" stroke="#969696" fill="none" stroke-width="1px" />
<path d="M 1975.0 37.5 L 1985.0 27.5 L 1975.0 17.5" stroke="#969696" fill="none" stroke-width="1px" />
<path d="M 1975.0 17.5 L 10.0 17.5" stroke="#969696" fill="none" stroke-width="1px" />
<path d="M 10.0 17.5 L 0.0 7.5 L 10.0 -2.5" stroke="#969696" fill="none" stroke-width="1px" />
<path d="M 10.0 -2.5 L 1975.0 -2.5" stroke="#969696" fill="none" stroke-width="1px" />
<path d="M 1975.0 -2.5 L 1985.0 -12.5 L 1975.0 -22.5" stroke="#969696" fill="none" stroke-width="1px" />
<path d="M 2513.06666667 257.5 L 2523.06666667 247.5 L 2513.06666667 237.5" stroke="#969696" fill="none" stroke-width="1px" />
<path d="M 2513.06666667 237.5 L 1895.0 237.5" stroke="#969696" fill="none" stroke-width="1px" />
<path d="M 1895.0 237.5 L 1885.0 227.5 L 1895.0 217.5" stroke="#969696" fill="none" stroke-width="1px" />
<path d="M 1895.0 217.5 L 2513.06666667 217.5" stroke="#969696" fill="none" stroke-width="1px" />
<path d="M 2513.06666667 217.5 L 2523.06666667 207.5 L 2513.06666667 197.5" stroke="#969696" fill="none" stroke-width="1px" />
<path d="M 2513.06666667 197.5 L 1895.0 197.5" stroke="#969696" fill="none" stroke-width="1px" />
<path d="M 1895.0 197.5 L 1885.0 187.5 L 1895.0 177.5" stroke="#969696" fill="none" stroke-width="1px" />
<path d="M 1895.0 177.5 L 2513.06666667 177.5" stroke="#969696" fill="none" stroke-width="1px" />
<path d="M 2513.06666667 177.5 L 2523.06666667 167.5 L 2513.06666667 157.5" stroke="#969696" fill="none" stroke-width="1px" />
<path d="M 2513.06666667 157.5 L 1895.0 157.5" stroke="#969696" fill="none" stroke-width="1px" />
<path d="M 1895.0 157.5 L 1885.0 147.5 L 1895.0 137.5" stroke="#969696" fill="none" stroke-width="1px" />
<path d="M 1895.0 137.5 L 2513.06666667 137.5" stroke="#969696" fill="none" stroke-width="1px" />
<path d="M 2513.06666667 137.5 L 2523.06666667 127.5 L 2513.06666667 117.5" stroke="#969696" fill="none" stroke-width="1px" />
<path d="M 2513.06666667 117.5 L 1895.0 117.5" stroke="#969696" fill="none" stroke-width="1px" />
<path d="M 1895.0 117.5 L 1885.0 107.5 L 1895.0 97.5" stroke="#969696" fill="none" stroke-width="1px" />
<path d="M 1895.0 97.5 L 2513.06666667 97.5" stroke="#969696" fill="none" stroke-width="1px" />
<path d="M 2513.06666667 97.5 L 2523.06666667 87.5 L 2513.06666667 77.5" stroke="#969696" fill="none" stroke-width="1px" />
<path d="M 2513.06666667 77.5 L 1895.0 77.5" stroke="#969696" fill="none" stroke-width="1px" />
<path d="M 1895.0 77.5 L 1885.0 67.5 L 1895.0 57.5" stroke="#969696" fill="none" stroke-width="1px" />
<path d="M 1895.0 57.5 L 2513.06666667 57.5" stroke="#969696" fill="none" stroke-width="1px" />
<path d="M 2513.06666667 57.5 L 2523.06666667 47.5 L 2513.06666667 37.5" stroke="#969696" fill="none" stroke-width="1px" />
<path d="M 2513.06666667 37.5 L 1895.0 37.5" stroke="#969696" fill="none" stroke-width="1px" />
<path d="M 1895.0 37.5 L 1885.0 27.5 L 1895.0 17.5" stroke="#969696" fill="none" stroke-width="1px" />
<path d="M 1895.0 17.5 L 2513.06666667 17.5" stroke="#969696" fill="none" stroke-width="1px" />
<path d="M 2513.06666667 17.5 L 2523.06666667 7.5 L 2513.06666667 -2.5" stroke="#969696" fill="none" stroke-width="1px" />
<path d="M 2513.06666667 -2.5 L 1895.0 -2.5" stroke="#969696" fill="none" stroke-width="1px" />
<path d="M 1895.0 -2.5 L 1885.0 -12.5 L 1895.0 -22.5" stroke="#969696" fill="none" stroke-width="1px" />
<path d="M 0.0 235.0 L 730.0 235.0" stroke="#0095FF" fill="none" stroke-width="2px" />
<path d="M 730.0 235.0 L 730.0 145.0" stroke="#0095FF" fill="none" stroke-width="2px" />
<path d="M 770.0 135.0 L 750.0 135.0" stroke="#0095FF" fill="none" stroke-width="2px" />
<path d="M 750.0 135.0 L 750.0 155.0" stroke="#0095FF" fill="none" stroke-width="2px" />
<path d="M 740.0 155.0 L 750.0 155.0" stroke="#0095FF" fill="none" stroke-width="2px" />
<path d="M 750.0 155.0 L 750.0 115.0" stroke="#0095FF" fill="none" stroke-width="2px" />
<path d="M 750.0 115.0 L 1400.0 115.0" stroke="#0095FF" fill="none" stroke-width="2px" />
<path d="M 1400.0 115.0 L 1400.0 105.0" stroke="#0095FF" fill="none" stroke-width="2px" />
<path d="M 1560.0 225.0 L 1560.0 175.0" stroke="#0095FF" fill="none" stroke-width="2px" />
<path d="M 1560.0 175.0 L 1540.0 175.0" stroke="#0095FF" fill="none" stroke-width="2px" />
<path d="M 1540.0 175.0 L 1540.0 155.0" stroke="#0095FF" fill="none" stroke-width="2px" />
<path d="M 1540.0 155.0 L 1520.0 155.0" stroke="#0095FF" fill="none" stroke-width="2px" />
<path d="M 1520.0 155.0 L 1520.0 135.0" stroke="#0095FF" fill="none" stroke-width="2px" />
<path d="M 1520.0 135.0 L 1500.0 135.0" stroke="#0095FF" fill="none" stroke-width="2px" />
<path d="M 1500.0 135.0 L 1500.0 115.0" stroke="#0095FF" fill="none" stroke-width="2px" />
<path d="M 1480.0 115.0 L 1450.0 115.0" stroke="#0095FF" fill="none" stroke-width="2px" />
<path d="M 1450.0 115.0 L 1450.0 95.0" stroke="#0095FF" fill="none" stroke-width="2px" />
<path d="M 1450.0 75.0 L 1450.0 55.0" stroke="#0095FF" fill="none" stroke-width="2px" />
<path d="M 1550.0 35.0 L 1550.0 15.0" stroke="#0095FF" fill="none" stroke-width="2px" />
<path d="M 1420.0 -5.0 L 1510.0 -5.0" stroke="#0095FF" fill="none" stroke-width="2px" />
<path d="M 1510.0 -5.0 L 1510.0 5.0" stroke="#0095FF" fill="none" stroke-width="2px" />
<path d="M 1560.0 15.0 L 1540.0 15.0" stroke="#0095FF" fill="none" stroke-width="2px" />
<path d="M 1540.0 15.0 L 1540.0 -5.0" stroke="#0095FF" fill="none" stroke-width="2px" />
<path d="M 1520.0 -5.0 L 1520.0 55.0" stroke="#0095FF" fill="none" stroke-width="2px" />
<path d="M 1460.0 55.0 L 1530.0 55.0" stroke="#0095FF" fill="none" stroke-width="2px" />
<path d="M 1530.0 55.0 L 1470.0 55.0" stroke="#0095FF" fill="none" stroke-width="2px" />
<path d="M 1470.0 55.0 L 1470.0 175.0" stroke="#0095FF" fill="none" stroke-width="2px" />
<path d="M 1440.0 175.0 L 1460.0 175.0" stroke="#0095FF" fill="none" stroke-width="2px" />
<path d="M 1460.0 175.0 L 1460.0 185.0" stroke="#0095FF" fill="none" stroke-width="2px" />
<path d="M 2523.06666667 235.0 L 1960.0 235.0" stroke="#0095FF" fill="none" stroke-width="2px" />
<path d="M 1960.0 235.0 L 1960.0 125.0" stroke="#0095FF" fill="none" stroke-width="2px" />
<path d="M 1910.0 115.0 L 1910.0 135.0" stroke="#0095FF" fill="none" stroke-width="2px" />
<path d="M 1920.0 145.0 L 1960.0 145.0" stroke="#0095FF" fill="none" stroke-width="2px" />
<path d="M 1960.0 145.0 L 1960.0 115.0" stroke="#0095FF" fill="none" stroke-width="2px" />
<path d="M 1960.0 115.0 L 1940.0 115.0" stroke="#0095FF" fill="none" stroke-width="2px" />
<path d="M 1940.0 115.0 L 1940.0 95.0" stroke="#0095FF" fill="none" stroke-width="2px" />
<path d="M 730.0 145.0 L 740.0 145.0" stroke="#FF0000" fill="none" stroke-width="4px" />
<path d="M 740.0 145.0 L 750.0 145.0" stroke="#FF0000" fill="none" stroke-width="4px" />
<path d="M 750.0 145.0 L 760.0 145.0" stroke="#FF0000" fill="none" stroke-width="4px" />
<path d="M 760.0 145.0 L 760.0 135.0" stroke="#FF0000" fill="none" stroke-width="4px" />
<path d="M 760.0 135.0 L 750.0 135.0" stroke="#FF0000" fill="none" stroke-width="4px" />
<path d="M 750.0 135.0 L 740.0 135.0" stroke="#FF0000" fill="none" stroke-width="4px" />
<path d="M 740.0 135.0 L 730.0 135.0" stroke="#FF0000" fill="none" stroke-width="4px" />
<path d="M 730.0 135.0 L 740.0 125.0" stroke="#FF0000" fill="none" stroke-width="4px" />
<path d="M 740.0 125.0 L 750.0 125.0" stroke="#FF0000" fill="none" stroke-width="4px" />
<path d="M 750.0 125.0 L 760.0 125.0" stroke="#FF0000" fill="none" stroke-width="4px" />
<path d="M 760.0 125.0 L 770.0 135.0" stroke="#FF0000" fill="none" stroke-width="4px" />
<path d="M 750.0 155.0 L 740.0 155.0" stroke="#FF0000" fill="none" stroke-width="4px" />
<path d="M 1400.0 105.0 L 1410.0 105.0" stroke="#FF0000" fill="none" stroke-width="4px" />
<path d="M 1410.0 105.0 L 1420.0 105.0" stroke="#FF0000" fill="none" stroke-width="4px" />
<path d="M 1420.0 105.0 L 1430.0 105.0" stroke="#FF0000" fill="none" stroke-width="4px" />
<path d="M 1430.0 105.0 L 1440.0 105.0" stroke="#FF0000" fill="none" stroke-width="4px" />
<path d="M 1440.0 105.0 L 1450.0 105.0" stroke="#FF0000" fill="none" stroke-width="4px" />
<path d="M 1450.0 105.0 L 1460.0 105.0" stroke="#FF0000" fill="none" stroke-width="4px" />
<path d="M 1460.0 105.0 L 1470.0 105.0" stroke="#FF0000" fill="none" stroke-width="4px" />
<path d="M 1470.0 105.0 L 1470.0 115.0" stroke="#FF0000" fill="none" stroke-width="4px" />
<path d="M 1470.0 115.0 L 1460.0 115.0" stroke="#FF0000" fill="none" stroke-width="4px" />
<path d="M 1460.0 115.0 L 1450.0 115.0" stroke="#FF0000" fill="none" stroke-width="4px" />
<path d="M 1450.0 115.0 L 1440.0 115.0" stroke="#FF0000" fill="none" stroke-width="4px" />
<path d="M 1440.0 115.0 L 1430.0 115.0" stroke="#FF0000" fill="none" stroke-width="4px" />
<path d="M 1430.0 115.0 L 1420.0 115.0" stroke="#FF0000" fill="none" stroke-width="4px" />
<path d="M 1420.0 115.0 L 1410.0 115.0" stroke="#FF0000" fill="none" stroke-width="4px" />
<path d="M 1410.0 115.0 L 1420.0 125.0" stroke="#FF0000" fill="none" stroke-width="4px" />
<path d="M 1420.0 125.0 L 1430.0 125.0" stroke="#FF0000" fill="none" stroke-width="4px" />
<path d="M 1430.0 125.0 L 1440.0 125.0" stroke="#FF0000" fill="none" stroke-width="4px" />
<path d="M 1440.0 125.0 L 1450.0 125.0" stroke="#FF0000" fill="none" stroke-width="4px" />
<path d="M 1450.0 125.0 L 1460.0 125.0" stroke="#FF0000" fill="none" stroke-width="4px" />
<path d="M 1460.0 125.0 L 1470.0 125.0" stroke="#FF0000" fill="none" stroke-width="4px" />
<path d="M 1470.0 125.0 L 1480.0 125.0" stroke="#FF0000" fill="none" stroke-width="4px" />
<path d="M 1480.0 125.0 L 1490.0 125.0" stroke="#FF0000" fill="none" stroke-width="4px" />
<path d="M 1490.0 125.0 L 1500.0 125.0" stroke="#FF0000" fill="none" stroke-width="4px" />
<path d="M 1500.0 125.0 L 1510.0 125.0" stroke="#FF0000" fill="none" stroke-width="4px" />
<path d="M 1510.0 125.0 L 1510.0 135.0" stroke="#FF0000" fill="none" stroke-width="4px" />
<path d="M 1510.0 135.0 L 1500.0 135.0" stroke="#FF0000" fill="none" stroke-width="4px" />
<path d="M 1500.0 135.0 L 1490.0 135.0" stroke="#FF0000" fill="none" stroke-width="4px" />
<path d="M 1490.0 135.0 L 1480.0 135.0" stroke="#FF0000" fill="none" stroke-width="4px" />
<path d="M 1480.0 135.0 L 1470.0 135.0" stroke="#FF0000" fill="none" stroke-width="4px" />
<path d="M 1470.0 135.0 L 1460.0 135.0" stroke="#FF0000" fill="none" stroke-width="4px" />
<path d="M 1460.0 135.0 L 1450.0 135.0" stroke="#FF0000" fill="none" stroke-width="4px" />
<path d="M 1450.0 135.0 L 1440.0 135.0" stroke="#FF0000" fill="none" stroke-width="4px" />
<path d="M 1440.0 135.0 L 1430.0 135.0" stroke="#FF0000" fill="none" stroke-width="4px" />
<path d="M 1430.0 135.0 L 1430.0 145.0" stroke="#FF0000" fill="none" stroke-width="4px" />
<path d="M 1430.0 145.0 L 1440.0 145.0" stroke="#FF0000" fill="none" stroke-width="4px" />
<path d="M 1440.0 145.0 L 1450.0 145.0" stroke="#FF0000" fill="none" stroke-width="4px" />
<path d="M 1450.0 145.0 L 1460.0 145.0" stroke="#FF0000" fill="none" stroke-width="4px" />
<path d="M 1460.0 145.0 L 1470.0 145.0" stroke="#FF0000" fill="none" stroke-width="4px" />
<path d="M 1470.0 145.0 L 1480.0 145.0" stroke="#FF0000" fill="none" stroke-width="4px" />
<path d="M 1480.0 145.0 L 1490.0 145.0" stroke="#FF0000" fill="none" stroke-width="4px" />
<path d="M 1490.0 145.0 L 1500.0 145.0" stroke="#FF0000" fill="none" stroke-width="4px" />
<path d="M 1500.0 145.0 L 1510.0 145.0" stroke="#FF0000" fill="none" stroke-width="4px" />
<path d="M 1510.0 145.0 L 1520.0 145.0" stroke="#FF0000" fill="none" stroke-width="4px" />
<path d="M 1520.0 145.0 L 1530.0 145.0" stroke="#FF0000" fill="none" stroke-width="4px" />
<path d="M 1530.0 145.0 L 1530.0 155.0" stroke="#FF0000" fill="none" stroke-width="4px" />
<path d="M 1530.0 155.0 L 1520.0 155.0" stroke="#FF0000" fill="none" stroke-width="4px" />
<path d="M 1520.0 155.0 L 1510.0 155.0" stroke="#FF0000" fill="none" stroke-width="4px" />
<path d="M 1510.0 155.0 L 1500.0 155.0" stroke="#FF0000" fill="none" stroke-width="4px" />
<path d="M 1500.0 155.0 L 1490.0 155.0" stroke="#FF0000" fill="none" stroke-width="4px" />
<path d="M 1490.0 155.0 L 1480.0 155.0" stroke="#FF0000" fill="none" stroke-width="4px" />
<path d="M 1480.0 155.0 L 1470.0 155.0" stroke="#FF0000" fill="none" stroke-width="4px" />
<path d="M 1470.0 155.0 L 1460.0 155.0" stroke="#FF0000" fill="none" stroke-width="4px" />
<path d="M 1460.0 155.0 L 1450.0 155.0" stroke="#FF0000" fill="none" stroke-width="4px" />
<path d="M 1450.0 155.0 L 1440.0 155.0" stroke="#FF0000" fill="none" stroke-width="4px" />
<path d="M 1440.0 155.0 L 1430.0 155.0" stroke="#FF0000" fill="none" stroke-width="4px" />
<path d="M 1430.0 155.0 L 1430.0 165.0" stroke="#FF0000" fill="none" stroke-width="4px" />
<path d="M 1430.0 165.0 L 1440.0 165.0" stroke="#FF0000" fill="none" stroke-width="4px" />
<path d="M 1440.0 165.0 L 1450.0 165.0" stroke="#FF0000" fill="none" stroke-width="4px" />
<path d="M 1450.0 165.0 L 1460.0 165.0" stroke="#FF0000" fill="none" stroke-width="4px" />
<path d="M 1460.0 165.0 L 1470.0 165.0" stroke="#FF0000" fill="none" stroke-width="4px" />
<path d="M 1470.0 165.0 L 1480.0 165.0" stroke="#FF0000" fill="none" stroke-width="4px" />
<path d="M 1480.0 165.0 L 1490.0 165.0" stroke="#FF0000" fill="none" stroke-width="4px" />
<path d="M 1490.0 165.0 L 1500.0 165.0" stroke="#FF0000" fill="none" stroke-width="4px" />
<path d="M 1500.0 165.0 L 1510.0 165.0" stroke="#FF0000" fill="none" stroke-width="4px" />
<path d="M 1510.0 165.0 L 1520.0 165.0" stroke="#FF0000" fill="none" stroke-width="4px" />
<path d="M 1520.0 165.0 L 1530.0 165.0" stroke="#FF0000" fill="none" stroke-width="4px" />
<path d="M 1530.0 165.0 L 1540.0 165.0" stroke="#FF0000" fill="none" stroke-width="4px" />
<path d="M 1540.0 165.0 L 1550.0 165.0" stroke="#FF0000" fill="none" stroke-width="4px" />
<path d="M 1550.0 165.0 L 1550.0 175.0" stroke="#FF0000" fill="none" stroke-width="4px" />
<path d="M 1550.0 175.0 L 1540.0 175.0" stroke="#FF0000" fill="none" stroke-width="4px" />
<path d="M 1540.0 175.0 L 1530.0 175.0" stroke="#FF0000" fill="none" stroke-width="4px" />
<path d="M 1530.0 175.0 L 1520.0 175.0" stroke="#FF0000" fill="none" stroke-width="4px" />
<path d="M 1520.0 175.0 L 1510.0 175.0" stroke="#FF0000" fill="none" stroke-width="4px" />
<path d="M 1510.0 175.0 L 1500.0 175.0" stroke="#FF0000" fill="none" stroke-width="4px" />
<path d="M 1500.0 175.0 L 1490.0 175.0" stroke="#FF0000" fill="none" stroke-width="4px" />
<path d="M 1490.0 175.0 L 1500.0 185.0" stroke="#FF0000" fill="none" stroke-width="4px" />
<path d="M 1500.0 185.0 L 1510.0 185.0" stroke="#FF0000" fill="none" stroke-width="4px" />
<path d="M 1510.0 185.0 L 1520.0 185.0" stroke="#FF0000" fill="none" stroke-width="4px" />
<path d="M 1520.0 185.0 L 1530.0 185.0" stroke="#FF0000" fill="none" stroke-width="4px" />
<path d="M 1530.0 185.0 L 1540.0 185.0" stroke="#FF0000" fill="none" stroke-width="4px" />
<path d="M 1540.0 185.0 L 1550.0 185.0" stroke="#FF0000" fill="none" stroke-width="4px" />
<path d="M 1550.0 185.0 L 1560.0 185.0" stroke="#FF0000" fill="none" stroke-width="4px" />
<path d="M 1560.0 185.0 L 1570.0 185.0" stroke="#FF0000" fill="none" stroke-width="4px" />
<path d="M 1570.0 185.0 L 1570.0 195.0" stroke="#FF0000" fill="none" stroke-width="4px" />
<path d="M 1570.0 195.0 L 1560.0 195.0" stroke="#FF0000" fill="none" stroke-width="4px" />
<path d="M 1560.0 195.0 L 1550.0 195.0" stroke="#FF0000" fill="none" stroke-width="4px" />
<path d="M 1550.0 195.0 L 1540.0 195.0" stroke="#FF0000" fill="none" stroke-width="4px" />
<path d="M 1540.0 195.0 L 1530.0 195.0" stroke="#FF0000" fill="none" stroke-width="4px" />
<path d="M 1530.0 195.0 L 1520.0 195.0" stroke="#FF0000" fill="none" stroke-width="4px" />
<path d="M 1520.0 195.0 L 1510.0 195.0" stroke="#FF0000" fill="none" stroke-width="4px" />
<path d="M 1510.0 195.0 L 1520.0 205.0" stroke="#FF0000" fill="none" stroke-width="4px" />
<path d="M 1520.0 205.0 L 1530.0 205.0" stroke="#FF0000" fill="none" stroke-width="4px" />
<path d="M 1530.0 205.0 L 1540.0 205.0" stroke="#FF0000" fill="none" stroke-width="4px" />
<path d="M 1540.0 205.0 L 1550.0 205.0" stroke="#FF0000" fill="none" stroke-width="4px" />
<path d="M 1550.0 205.0 L 1560.0 205.0" stroke="#FF0000" fill="none" stroke-width="4px" />
<path d="M 1560.0 205.0 L 1570.0 205.0" stroke="#FF0000" fill="none" stroke-width="4px" />
<path d="M 1570.0 205.0 L 1580.0 205.0" stroke="#FF0000" fill="none" stroke-width="4px" />
<path d="M 1580.0 205.0 L 1570.0 215.0" stroke="#FF0000" fill="none" stroke-width="4px" />
<path d="M 1570.0 215.0 L 1560.0 215.0" stroke="#FF0000" fill="none" stroke-width="4px" />
<path d="M 1560.0 215.0 L 1550.0 215.0" stroke="#FF0000" fill="none" stroke-width="4px" />
<path d="M 1550.0 215.0 L 1540.0 215.0" stroke="#FF0000" fill="none" stroke-width="4px" />
<path d="M 1540.0 215.0 L 1530.0 215.0" stroke="#FF0000" fill="none" stroke-width="4px" />
<path d="M 1530.0 215.0 L 1540.0 225.0" stroke="#FF0000" fill="none" stroke-width="4px" />
<path d="M 1540.0 225.0 L 1550.0 225.0" stroke="#FF0000" fill="none" stroke-width="4px" />
<path d="M 1550.0 225.0 L 1560.0 225.0" stroke="#FF0000" fill="none" stroke-width="4px" />
<path d="M 1500.0 115.0 L 1490.0 115.0" stroke="#FF0000" fill="none" stroke-width="4px" />
<path d="M 1490.0 115.0 L 1480.0 115.0" stroke="#FF0000" fill="none" stroke-width="4px" />
<path d="M 1450.0 95.0 L 1440.0 95.0" stroke="#FF0000" fill="none" stroke-width="4px" />
<path d="M 1440.0 95.0 L 1430.0 95.0" stroke="#FF0000" fill="none" stroke-width="4px" />
<path d="M 1430.0 95.0 L 1420.0 95.0" stroke="#FF0000" fill="none" stroke-width="4px" />
<path d="M 1420.0 95.0 L 1410.0 95.0" stroke="#FF0000" fill="none" stroke-width="4px" />
<path d="M 1410.0 95.0 L 1420.0 85.0" stroke="#FF0000" fill="none" stroke-width="4px" />
<path d="M 1420.0 85.0 L 1430.0 85.0" stroke="#FF0000" fill="none" stroke-width="4px" />
<path d="M 1430.0 85.0 L 1440.0 85.0" stroke="#FF0000" fill="none" stroke-width="4px" />
<path d="M 1440.0 85.0 L 1440.0 75.0" stroke="#FF0000" fill="none" stroke-width="4px" />
<path d="M 1440.0 75.0 L 1430.0 75.0" stroke="#FF0000" fill="none" stroke-width="4px" />
<path d="M 1430.0 75.0 L 1420.0 75.0" stroke="#FF0000" fill="none" stroke-width="4px" />
<path d="M 1420.0 75.0 L 1410.0 75.0" stroke="#FF0000" fill="none" stroke-width="4px" />
<path d="M 1410.0 75.0 L 1410.0 65.0" stroke="#FF0000" fill="none" stroke-width="4px" />
<path d="M 1410.0 65.0 L 1420.0 65.0" stroke="#FF0000" fill="none" stroke-width="4px" />
<path d="M 1420.0 65.0 L 1430.0 65.0" stroke="#FF0000" fill="none" stroke-width="4px" />
<path d="M 1430.0 65.0 L 1440.0 65.0" stroke="#FF0000" fill="none" stroke-width="4px" />
<path d="M 1440.0 65.0 L 1450.0 65.0" stroke="#FF0000" fill="none" stroke-width="4px" />
<path d="M 1450.0 65.0 L 1450.0 75.0" stroke="#FF0000" fill="none" stroke-width="4px" />
<path d="M 1450.0 55.0 L 1440.0 55.0" stroke="#FF0000" fill="none" stroke-width="4px" />
<path d="M 1440.0 55.0 L 1430.0 55.0" stroke="#FF0000" fill="none" stroke-width="4px" />
<path d="M 1430.0 55.0 L 1420.0 55.0" stroke="#FF0000" fill="none" stroke-width="4px" />
<path d="M 1420.0 55.0 L 1430.0 45.0" stroke="#FF0000" fill="none" stroke-width="4px" />
<path d="M 1430.0 45.0 L 1440.0 45.0" stroke="#FF0000" fill="none" stroke-width="4px" />
<path d="M 1440.0 45.0 L 1450.0 45.0" stroke="#FF0000" fill="none" stroke-width="4px" />
<path d="M 1450.0 45.0 L 1460.0 45.0" stroke="#FF0000" fill="none" stroke-width="4px" />
<path d="M 1460.0 45.0 L 1470.0 45.0" stroke="#FF0000" fill="none" stroke-width="4px" />
<path d="M 1470.0 45.0 L 1480.0 45.0" stroke="#FF0000" fill="none" stroke-width="4px" />
<path d="M 1480.0 45.0 L 1490.0 45.0" stroke="#FF0000" fill="none" stroke-width="4px" />
<path d="M 1490.0 45.0 L 1500.0 45.0" stroke="#FF0000" fill="none" stroke-width="4px" />
<path d="M 1500.0 45.0 L 1510.0 45.0" stroke="#FF0000" fill="none" stroke-width="4px" />
<path d="M 1510.0 45.0 L 1520.0 45.0" stroke="#FF0000" fill="none" stroke-width="4px" />
<path d="M 1520.0 45.0 L 1530.0 45.0" stroke="#FF0000" fill="none" stroke-width="4px" />
<path d="M 1530.0 45.0 L 1540.0 45.0" stroke="#FF0000" fill="none" stroke-width="4px" />
<path d="M 1540.0 45.0 L 1540.0 35.0" stroke="#FF0000" fill="none" stroke-width="4px" />
<path d="M 1540.0 35.0 L 1530.0 35.0" stroke="#FF0000" fill="none" stroke-width="4px" />
<path d="M 1530.0 35.0 L 1520.0 35.0" stroke="#FF0000" fill="none" stroke-width="4px" />
<path d="M 1520.0 35.0 L 1510.0 35.0" stroke="#FF0000" fill="none" stroke-width="4px" />
<path d="M 1510.0 35.0 L 1500.0 35.0" stroke="#FF0000" fill="none" stroke-width="4px" />
<path d="M 1500.0 35.0 L 1490.0 35.0" stroke="#FF0000" fill="none" stroke-width="4px" />
<path d="M 1490.0 35.0 L 1480.0 35.0" stroke="#FF0000" fill="none" stroke-width="4px" />
<path d="M 1480.0 35.0 L 1470.0 35.0" stroke="#FF0000" fill="none" stroke-width="4px" />
<path d="M 1470.0 35.0 L 1460.0 35.0" stroke="#FF0000" fill="none" stroke-width="4px" />
<path d="M 1460.0 35.0 L 1450.0 35.0" stroke="#FF0000" fill="none" stroke-width="4px" />
<path d="M 1450.0 35.0 L 1440.0 35.0" stroke="#FF0000" fill="none" stroke-width="4px" />
<path d="M 1440.0 35.0 L 1430.0 35.0" stroke="#FF0000" fill="none" stroke-width="4px" />
<path d="M 1430.0 35.0 L 1430.0 25.0" stroke="#FF0000" fill="none" stroke-width="4px" />
<path d="M 1430.0 25.0 L 1440.0 25.0" stroke="#FF0000" fill="none" stroke-width="4px" />
<path d="M 1440.0 25.0 L 1450.0 25.0" stroke="#FF0000" fill="none" stroke-width="4px" />
<path d="M 1450.0 25.0 L 1460.0 25.0" stroke="#FF0000" fill="none" stroke-width="4px" />
<path d="M 1460.0 25.0 L 1470.0 25.0" stroke="#FF0000" fill="none" stroke-width="4px" />
<path d="M 1470.0 25.0 L 1480.0 25.0" stroke="#FF0000" fill="none" stroke-width="4px" />
<path d="M 1480.0 25.0 L 1490.0 25.0" stroke="#FF0000" fill="none" stroke-width="4px" />
<path d="M 1490.0 25.0 L 1500.0 25.0" stroke="#FF0000" fill="none" stroke-width="4px" />
<path d="M 1500.0 25.0 L 1510.0 25.0" stroke="#FF0000" fill="none" stroke-width="4px" />
<path d="M 1510.0 25.0 L 1520.0 25.0" stroke="#FF0000" fill="none" stroke-width="4px" />
<path d="M 1520.0 25.0 L 1530.0 25.0" stroke="#FF0000" fill="none" stroke-width="4px" />
<path d="M 1530.0 25.0 L 1540.0 25.0" stroke="#FF0000" fill="none" stroke-width="4px" />
<path d="M 1540.0 25.0 L 1550.0 25.0" stroke="#FF0000" fill="none" stroke-width="4px" />
<path d="M 1550.0 25.0 L 1550.0 35.0" stroke="#FF0000" fill="none" stroke-width="4px" />
<path d="M 1550.0 15.0 L 1540.0 15.0" stroke="#FF0000" fill="none" stroke-width="4px" />
<path d="M 1540.0 15.0 L 1530.0 15.0" stroke="#FF0000" fill="none" stroke-width="4px" />
<path d="M 1530.0 15.0 L 1520.0 15.0" stroke="#FF0000" fill="none" stroke-width="4px" />
<path d="M 1520.0 15.0 L 1510.0 15.0" stroke="#FF0000" fill="none" stroke-width="4px" />
<path d="M 1510.0 15.0 L 1500.0 15.0" stroke="#FF0000" fill="none" stroke-width="4px" />
<path d="M 1500.0 15.0 L 1490.0 15.0" stroke="#FF0000" fill="none" stroke-width="4px" />
<path d="M 1490.0 15.0 L 1480.0 15.0" stroke="#FF0000" fill="none" stroke-width="4px" />
<path d="M 1480.0 15.0 L 1470.0 15.0" stroke="#FF0000" fill="none" stroke-width="4px" />
<path d="M 1470.0 15.0 L 1460.0 15.0" stroke="#FF0000" fill="none" stroke-width="4px" />
<path d="M 1460.0 15.0 L 1450.0 15.0" stroke="#FF0000" fill="none" stroke-width="4px" />
<path d="M 1450.0 15.0 L 1440.0 15.0" stroke="#FF0000" fill="none" stroke-width="4px" />
<path d="M 1440.0 15.0 L 1430.0 15.0" stroke="#FF0000" fill="none" stroke-width="4px" />
<path d="M 1430.0 15.0 L 1420.0 15.0" stroke="#FF0000" fill="none" stroke-width="4px" />
<path d="M 1420.0 15.0 L 1420.0 5.0" stroke="#FF0000" fill="none" stroke-width="4px" />
<path d="M 1420.0 5.0 L 1430.0 5.0" stroke="#FF0000" fill="none" stroke-width="4px" />
<path d="M 1430.0 5.0 L 1440.0 5.0" stroke="#FF0000" fill="none" stroke-width="4px" />
<path d="M 1440.0 5.0 L 1450.0 5.0" stroke="#FF0000" fill="none" stroke-width="4px" />
<path d="M 1450.0 5.0 L 1460.0 5.0" stroke="#FF0000" fill="none" stroke-width="4px" />
<path d="M 1460.0 5.0 L 1470.0 5.0" stroke="#FF0000" fill="none" stroke-width="4px" />
<path d="M 1470.0 5.0 L 1480.0 5.0" stroke="#FF0000" fill="none" stroke-width="4px" />
<path d="M 1480.0 5.0 L 1490.0 5.0" stroke="#FF0000" fill="none" stroke-width="4px" />
<path d="M 1490.0 5.0 L 1490.0 -5.0" stroke="#FF0000" fill="none" stroke-width="4px" />
<path d="M 1490.0 -5.0 L 1480.0 -5.0" stroke="#FF0000" fill="none" stroke-width="4px" />
<path d="M 1480.0 -5.0 L 1470.0 -5.0" stroke="#FF0000" fill="none" stroke-width="4px" />
<path d="M 1470.0 -5.0 L 1460.0 -5.0" stroke="#FF0000" fill="none" stroke-width="4px" />
<path d="M 1460.0 -5.0 L 1450.0 -5.0" stroke="#FF0000" fill="none" stroke-width="4px" />
<path d="M 1450.0 -5.0 L 1440.0 -5.0" stroke="#FF0000" fill="none" stroke-width="4px" />
<path d="M 1440.0 -5.0 L 1430.0 -5.0" stroke="#FF0000" fill="none" stroke-width="4px" />
<path d="M 1430.0 -5.0 L 1420.0 -5.0" stroke="#FF0000" fill="none" stroke-width="4px" />
<path d="M 1510.0 5.0 L 1520.0 5.0" stroke="#FF0000" fill="none" stroke-width="4px" />
<path d="M 1520.0 5.0 L 1530.0 5.0" stroke="#FF0000" fill="none" stroke-width="4px" />
<path d="M 1530.0 5.0 L 1540.0 5.0" stroke="#FF0000" fill="none" stroke-width="4px" />
<path d="M 1540.0 5.0 L 1550.0 5.0" stroke="#FF0000" fill="none" stroke-width="4px" />
<path d="M 1550.0 5.0 L 1560.0 15.0" stroke="#FF0000" fill="none" stroke-width="4px" />
<path d="M 1540.0 -5.0 L 1530.0 -5.0" stroke="#FF0000" fill="none" stroke-width="4px" />
<path d="M 1530.0 -5.0 L 1520.0 -5.0" stroke="#FF0000" fill="none" stroke-width="4px" />
<path d="M 1520.0 55.0 L 1510.0 55.0" stroke="#FF0000" fill="none" stroke-width="4px" />
<path d="M 1510.0 55.0 L 1500.0 55.0" stroke="#FF0000" fill="none" stroke-width="4px" />
<path d="M 1500.0 55.0 L 1490.0 55.0" stroke="#FF0000" fill="none" stroke-width="4px" />
<path d="M 1490.0 55.0 L 1480.0 55.0" stroke="#FF0000" fill="none" stroke-width="4px" />
<path d="M 1480.0 55.0 L 1470.0 55.0" stroke="#FF0000" fill="none" stroke-width="4px" />
<path d="M 1470.0 55.0 L 1460.0 55.0" stroke="#FF0000" fill="none" stroke-width="4px" />
<path d="M 1470.0 175.0 L 1460.0 175.0" stroke="#FF0000" fill="none" stroke-width="4px" />
<path d="M 1460.0 175.0 L 1450.0 175.0" stroke="#FF0000" fill="none" stroke-width="4px" />
<path d="M 1450.0 175.0 L 1440.0 175.0" stroke="#FF0000" fill="none" stroke-width="4px" />
<path d="M 1960.0 125.0 L 1950.0 125.0" stroke="#FF0000" fill="none" stroke-width="4px" />
<path d="M 1950.0 125.0 L 1940.0 125.0" stroke="#FF0000" fill="none" stroke-width="4px" />
<path d="M 1940.0 125.0 L 1930.0 125.0" stroke="#FF0000" fill="none" stroke-width="4px" />
<path d="M 1930.0 125.0 L 1920.0 125.0" stroke="#FF0000" fill="none" stroke-width="4px" />
<path d="M 1920.0 125.0 L 1910.0 125.0" stroke="#FF0000" fill="none" stroke-width="4px" />
<path d="M 1910.0 125.0 L 1900.0 125.0" stroke="#FF0000" fill="none" stroke-width="4px" />
<path d="M 1900.0 125.0 L 1900.0 115.0" stroke="#FF0000" fill="none" stroke-width="4px" />
<path d="M 1900.0 115.0 L 1890.0 115.0" stroke="#FF0000" fill="none" stroke-width="4px" />
<path d="M 1890.0 115.0 L 1890.0 105.0" stroke="#FF0000" fill="none" stroke-width="4px" />
<path d="M 1890.0 105.0 L 1900.0 105.0" stroke="#FF0000" fill="none" stroke-width="4px" />
<path d="M 1900.0 105.0 L 1910.0 105.0" stroke="#FF0000" fill="none" stroke-width="4px" />
<path d="M 1910.0 105.0 L 1920.0 105.0" stroke="#FF0000" fill="none" stroke-width="4px" />
<path d="M 1920.0 105.0 L 1930.0 105.0" stroke="#FF0000" fill="none" stroke-width="4px" />
<path d="M 1930.0 105.0 L 1940.0 105.0" stroke="#FF0000" fill="none" stroke-width="4px" />
<path d="M 1940.0 105.0 L 1950.0 105.0" stroke="#FF0000" fill="none" stroke-width="4px" />
<path d="M 1950.0 105.0 L 1950.0 115.0" stroke="#FF0000" fill="none" stroke-width="4px" />
<path d="M 1950.0 115.0 L 1940.0 115.0" stroke="#FF0000" fill="none" stroke-width="4px" />
<path d="M 1940.0 115.0 L 1930.0 115.0" stroke="#FF0000" fill="none" stroke-width="4px" />
<path d="M 1930.0 115.0 L 1920.0 115.0" stroke="#FF0000" fill="none" stroke-width="4px" />
<path d="M 1920.0 115.0 L 1910.0 115.0" stroke="#FF0000" fill="none" stroke-width="4px" />
<path d="M 1910.0 135.0 L 1920.0 135.0" stroke="#FF0000" fill="none" stroke-width="4px" />
<path d="M 1920.0 135.0 L 1930.0 135.0" stroke="#FF0000" fill="none" stroke-width="4px" />
<path d="M 1930.0 135.0 L 1940.0 135.0" stroke="#FF0000" fill="none" stroke-width="4px" />
<path d="M 1940.0 135.0 L 1950.0 135.0" stroke="#FF0000" fill="none" stroke-width="4px" />
<path d="M 1950.0 135.0 L 1940.0 145.0" stroke="#FF0000" fill="none" stroke-width="4px" />
<path d="M 1940.0 145.0 L 1930.0 145.0" stroke="#FF0000" fill="none" stroke-width="4px" />
<path d="M 1930.0 145.0 L 1920.0 145.0" stroke="#FF0000" fill="none" stroke-width="4px" />
<path d="M 1940.0 95.0 L 1930.0 95.0" stroke="#FF0000" fill="none" stroke-width="4px" />
<path d="M 1930.0 95.0 L 1920.0 95.0" stroke="#FF0000" fill="none" stroke-width="4px" />
<path d="M 1920.0 95.0 L 1910.0 95.0" stroke="#FF0000" fill="none" stroke-width="4px" />
<path d="M 1910.0 95.0 L 1900.0 95.0" stroke="#FF0000" fill="none" stroke-width="4px" />
<path d="M 1900.0 95.0 L 1890.0 95.0" stroke="#FF0000" fill="none" stroke-width="4px" />
<path d="M 1890.0 95.0 L 1900.0 85.0" stroke="#FF0000" fill="none" stroke-width="4px" />
<path d="M 1900.0 85.0 L 1910.0 85.0" stroke="#FF0000" fill="none" stroke-width="4px" />
<path d="M 1910.0 85.0 L 1920.0 85.0" stroke="#FF0000" fill="none" stroke-width="4px" />
<path d="M 1920.0 85.0 L 1930.0 85.0" stroke="#FF0000" fill="none" stroke-width="4px" />
</svg>