<svg width="1383.75833333" height="235.0" xmlns="http://www.w3.org/2000/svg" version="1.1">
<path d="M 0.0 235.0 L 1383.75833333 235.0 L 1383.75833333 0.0 L 0.0 0.0 L 0.0 235.0" stroke="#000000" fill="none" stroke-width="3px" />
<path d="M 10.0 257.5 L 0.0 247.5 L 10.0 237.5" stroke="#969696" fill="none" stroke-width="1px" />
<path d="M 10.0 237.5 L 1373.75833333 237.5" stroke="#969696" fill="none" stroke-width="1px" />
<path d="M 1373.75833333 237.5 L 1383.75833333 227.5 L 1373.75833333 217.5" stroke="#969696" fill="none" stroke-width="1px" />
<path d="M 1373.75833333 217.5 L 10.0 217.5" stroke="#969696" fill="none" stroke-width="1px" />
<path d="M 10.0 217.5 L 0.0 207.5 L 10.0 197.5" stroke="#969696" fill="none" stroke-width="1px" />
<path d="M 10.0 197.5 L 1373.75833333 197.5" stroke="#969696" fill="none" stroke-width="1px" />
<path d="M 1373.75833333 197.5 L 1383.75833333 187.5 L 1373.75833333 177.5" stroke="#969696" fill="none" stroke-width="1px" />
<path d="M 1373.75833333 177.5 L 10.0 177.5" stroke="#969696" fill="none" stroke-width="1px" />
<path d="M 10.0 177.5 L 0.0 167.5 L 10.0 157.5" stroke="#969696" fill="none" stroke-width="1px" />
<path d="M 10.0 157.5 L 1373.75833333 157.5" stroke="#969696" fill="none" stroke-width="1px" />
<path d="M 1373.75833333 157.5 L 1383.75833333 147.5 L 1373.75833333 137.5" stroke="#969696" fill="none" stroke-width="1px" />
<path d="M 1373.75833333 137.5 L 10.0 137.5" stroke="#969696" fill="none" stroke-width="1px" />
<path d="M 10.0 137.5 L 0.0 127.5 L 10.0 117.5" stroke="#969696" fill="none" stroke-width="1px" />
<path d="M 10.0 117.5 L 1373.75833333 117.5" stroke="#969696" fill="none" stroke-width="1px" />
<path d="M 1373.75833333 117.5 L 1383.75833333 107.5 L 1373.75833333 97.5" stroke="#969696" fill="none" stroke-width="1px" />
<path d="M 1373.75833333 97.5 L 10.0 97.5" stroke="#969696" fill="none" stroke-width="1px" />
<path d="M 10.0 97.5 L 0.0 87.5 L 10.0 77.5" stroke="#969696" fill="none" stroke-width="1px" />
<path d="M 10.0 77.5 L 1373.75833333 77.5" stroke="#969696" fill="none" stroke-width="1px" />
<path d="M 1373.75833333 77.5 L 1383.75833333 67.5 L 1373.75833333 57.5" stroke="#969696" fill="none" stroke-width="1px" />
<path d="M 1373.75833333 57.5 L 10.0 57.5" stroke="#969696" fill="none" stroke-width="1px" />
<path d="M 10.0 57.5 L 0.0 47.5 L 10.0 37.5" stroke="#969696" fill="none" stroke-width="1px" />
<path d="M 10.0 37.5 L 1373.75833333 37.5" stroke="#969696" fill="none" stroke-width="1px" />
<path d="M 1373.75833333 37.5 L 1383.75833333 27.5 L 1373.75833333 17.5" stroke="#969696" fill="none" stroke-width="1px" />
<path d="M 1373.75833333 17.5 L 10.0 17.5" stroke="#969696" fill="none" stroke-width="1px" />
<path d="M 10.0 17.5 L 0.0 7.5 L 10.0 -2.5" stroke="#969696" fill="none" stroke-width="1px" />
<path d="M 10.0 -2.5 L 1373.75833333 -2.5" stroke="#969696" fill="none" stroke-width="1px" />
<path d="M 1373.75833333 -2.5 L 1383.75833333 -12.5 L 1373.75833333 -22.5" stroke="#969696" fill="none" stroke-width="1px" />
<path d="M 0.0 235.0 L 50.0 215.0" stroke="#0095FF" fill="none" stroke-width="2px" />
<path d="M 10.0 195.0 L 10.0 175.0" stroke="#0095FF" fill="none" stroke-width="2px" />
<path d="M 110.0 225.0 L 140.0 235.0" stroke="#0095FF" fill="none" stroke-width="2px" />
<path d="M 140.0 235.0 L 150.0 185.0" stroke="#0095FF" fill="none" stroke-width="2px" />
<path d="M 150.0 185.0 L 120.0 165.0" stroke="#0095FF" fill="none" stroke-width="2px" />
<path d="M 100.0 155.0 L 70.0 145.0" stroke="#0095FF" fill="none" stroke-width="2px" />
<path d="M 40.0 115.0 L 180.0 55.0" stroke="#0095FF" fill="none" stroke-width="2px" />
<path d="M 210.0 15.0 L 250.0 25.0" stroke="#0095FF" fill="none" stroke-width="2px" />
<path d="M 290.0 85.0 L 220.0 65.0" stroke="#0095FF" fill="none" stroke-width="2px" />
<path d="M 210.0 75.0 L 260.0 15.0" stroke="#0095FF" fill="none" stroke-width="2px" />
<path d="M 290.0 15.0 L 230.0 165.0" stroke="#0095FF" fill="none" stroke-width="2px" />
<path d="M 220.0 215.0 L 220.0 175.0" stroke="#0095FF" fill="none" stroke-width="2px" />
<path d="M 240.0 175.0 L 960.0 155.0" stroke="#0095FF" fill="none" stroke-width="2px" />
<path d="M 970.0 165.0 L 990.0 175.0" stroke="#0095FF" fill="none" stroke-width="2px" />
<path d="M 1000.0 175.0 L 1000.0 145.0" stroke="#0095FF" fill="none" stroke-width="2px" />
<path d="M 1010.0 145.0 L 1000.0 125.0" stroke="#0095FF" fill="none" stroke-width="2px" />
<path d="M 990.0 115.0 L 1060.0 155.0" stroke="#0095FF" fill="none" stroke-width="2px" />
<path d="M 1100.0 165.0 L 1090.0 185.0" stroke="#0095FF" fill="none" stroke-width="2px" />
<path d="M 1080.0 195.0 L 1080.0 145.0" stroke="#0095FF" fill="none" stroke-width="2px" />
<path d="M 1070.0 145.0 L 1240.0 125.0" stroke="#0095FF" fill="none" stroke-width="2px" />
<path d="M 1270.0 195.0 L 1270.0 115.0" stroke="#0095FF" fill="none" stroke-width="2px" />
<path d="M 1280.0 115.0 L 1270.0 95.0" stroke="#0095FF" fill="none" stroke-width="2px" />
<path d="M 50.0 215.0 L 50.0 205.0" stroke="#FF0000" fill="none" stroke-width="4px" />
<path d="M 50.0 205.0 L 40.0 205.0" stroke="#FF0000" fill="none" stroke-width="4px" />
<path d="M 40.0 205.0 L 40.0 195.0" stroke="#FF0000" fill="none" stroke-width="4px" />
<path d="M 40.0 195.0 L 30.0 195.0" stroke="#FF0000" fill="none" stroke-width="4px" />
<path d="M 30.0 195.0 L 30.0 185.0" stroke="#FF0000" fill="none" stroke-width="4px" />
<path d="M 30.0 185.0 L 20.0 185.0" stroke="#FF0000" fill="none" stroke-width="4px" />
<path d="M 20.0 185.0 L 10.0 185.0" stroke="#FF0000" fill="none" stroke-width="4px" />
<path d="M 10.0 185.0 L 10.0 195.0" stroke="#FF0000" fill="none" stroke-width="4px" />
<path d="M 10.0 175.0 L 20.0 175.0" stroke="#FF0000" fill="none" stroke-width="4px" />
<path d="M 20.0 175.0 L 30.0 175.0" stroke="#FF0000" fill="none" stroke-width="4px" />
<path d="M 30.0 175.0 L 40.0 175.0" stroke="#FF0000" fill="none" stroke-width="4px" />
<path d="M 40.0 175.0 L 50.0 175.0" stroke="#FF0000" fill="none" stroke-width="4px" />
<path d="M 50.0 175.0 L 60.0 175.0" stroke="#FF0000" fill="none" stroke-width="4px" />
<path d="M 60.0 175.0 L 70.0 175.0" stroke="#FF0000" fill="none" stroke-width="4px" />
<path d="M 70.0 175.0 L 80.0 175.0" stroke="#FF0000" fill="none" stroke-width="4px" />
<path d="M 80.0 175.0 L 90.0 175.0" stroke="#FF0000" fill="none" stroke-width="4px" />
<path d="M 90.0 175.0 L 100.0 175.0" stroke="#FF0000" fill="none" stroke-width="4px" />
<path d="M 100.0 175.0 L 110.0 175.0" stroke="#FF0000" fill="none" stroke-width="4px" />
<path d="M 110.0 175.0 L 120.0 175.0" stroke="#FF0000" fill="none" stroke-width="4px" />
<path d="M 120.0 175.0 L 130.0 175.0" stroke="#FF0000" fill="none" stroke-width="4px" />
<path d="M 130.0 175.0 L 140.0 175.0" stroke="#FF0000" fill="none" stroke-width="4px" />
<path d="M 140.0 175.0 L 140.0 185.0" stroke="#FF0000" fill="none" stroke-width="4px" />
<path d="M 140.0 185.0 L 130.0 185.0" stroke="#FF0000" fill="none" stroke-width="4px" />
<path d="M 130.0 185.0 L 120.0 185.0" stroke="#FF0000" fill="none" stroke-width="4px" />
<path d="M 120.0 185.0 L 110.0 185.0" stroke="#FF0000" fill="none" stroke-width="4px" />
<path d="M 110.0 185.0 L 100.0 185.0" stroke="#FF0000" fill="none" stroke-width="4px" />
<path d="M 100.0 185.0 L 90.0 185.0" stroke="#FF0000" fill="none" stroke-width="4px" />
<path d="M 90.0 185.0 L 80.0 185.0" stroke="#FF0000" fill="none" stroke-width="4px" />
<path d="M 80.0 185.0 L 70.0 185.0" stroke="#FF0000" fill="none" stroke-width="4px" />
<path d="M 70.0 185.0 L 60.0 185.0" stroke="#FF0000" fill="none" stroke-width="4px" />
<path d="M 60.0 185.0 L 50.0 185.0" stroke="#FF0000" fill="none" stroke-width="4px" />
<path d="M 50.0 185.0 L 40.0 185.0" stroke="#FF0000" fill="none" stroke-width="4px" />
<path d="M 40.0 185.0 L 50.0 195.0" stroke="#FF0000" fill="none" stroke-width="4px" />
<path d="M 50.0 195.0 L 60.0 195.0" stroke="#FF0000" fill="none" stroke-width="4px" />
<path d="M 60.0 195.0 L 70.0 195.0" stroke="#FF0000" fill="none" stroke-width="4px" />
<path d="M 70.0 195.0 L 80.0 195.0" stroke="#FF0000" fill="none" stroke-width="4px" />
<path d="M 80.0 195.0 L 90.0 195.0" stroke="#FF0000" fill="none" stroke-width="4px" />
<path d="M 90.0 195.0 L 100.0 195.0" stroke="#FF0000" fill="none" stroke-width="4px" />
<path d="M 100.0 195.0 L 110.0 195.0" stroke="#FF0000" fill="none" stroke-width="4px" />
<path d="M 110.0 195.0 L 120.0 195.0" stroke="#FF0000" fill="none" stroke-width="4px" />
<path d="M 120.0 195.0 L 130.0 195.0" stroke="#FF0000" fill="none" stroke-width="4px" />
<path d="M 130.0 195.0 L 140.0 195.0" stroke="#FF0000" fill="none" stroke-width="4px" />
<path d="M 140.0 195.0 L 150.0 195.0" stroke="#FF0000" fill="none" stroke-width="4px" />
<path d="M 150.0 195.0 L 160.0 195.0" stroke="#FF0000" fill="none" stroke-width="4px" />
<path d="M 160.0 195.0 L 160.0 205.0" stroke="#FF0000" fill="none" stroke-width="4px" />
<path d="M 160.0 205.0 L 150.0 205.0" stroke="#FF0000" fill="none" stroke-width="4px" />
<path d="M 150.0 205.0 L 140.0 205.0" stroke="#FF0000" fill="none" stroke-width="4px" />
<path d="M 140.0 205.0 L 130.0 205.0" stroke="#FF0000" fill="none" stroke-width="4px" />
<path d="M 130.0 205.0 L 120.0 205.0" stroke="#FF0000" fill="none" stroke-width="4px" />
<path d="M 120.0 205.0 L 110.0 205.0" stroke="#FF0000" fill="none" stroke-width="4px" />
<path d="M 110.0 205.0 L 100.0 205.0" stroke="#FF0000" fill="none" stroke-width="4px" />
<path d="M 100.0 205.0 L 90.0 205.0" stroke="#FF0000" fill="none" stroke-width="4px" />
<path d="M 90.0 205.0 L 80.0 205.0" stroke="#FF0000" fill="none" stroke-width="4px" />
<path d="M 80.0 205.0 L 70.0 205.0" stroke="#FF0000" fill="none" stroke-width="4px" />
<path d="M 70.0 205.0 L 60.0 205.0" stroke="#FF0000" fill="none" stroke-width="4px" />
<path d="M 60.0 205.0 L 70.0 215.0" stroke="#FF0000" fill="none" stroke-width="4px" />
<path d="M 70.0 215.0 L 80.0 215.0" stroke="#FF0000" fill="none" stroke-width="4px" />
<path d="M 80.0 215.0 L 90.0 215.0" stroke="#FF0000" fill="none" stroke-width="4px" />
<path d="M 90.0 215.0 L 100.0 215.0" stroke="#FF0000" fill="none" stroke-width="4px" />
<path d="M 100.0 215.0 L 110.0 215.0" stroke="#FF0000" fill="none" stroke-width="4px" />
<path d="M 110.0 215.0 L 120.0 215.0" stroke="#FF0000" fill="none" stroke-width="4px" />
<path d="M 120.0 215.0 L 130.0 215.0" stroke="#FF0000" fill="none" stroke-width="4px" />
<path d="M 130.0 215.0 L 140.0 215.0" stroke="#FF0000" fill="none" stroke-width="4px" />
<path d="M 140.0 215.0 L 150.0 215.0" stroke="#FF0000" fill="none" stroke-width="4px" />
<path d="M 150.0 215.0 L 160.0 215.0" stroke="#FF0000" fill="none" stroke-width="4px" />
<path d="M 160.0 215.0 L 150.0 225.0" stroke="#FF0000" fill="none" stroke-width="4px" />
<path d="M 150.0 225.0 L 140.0 225.0" stroke="#FF0000" fill="none" stroke-width="4px" />
<path d="M 140.0 225.0 L 130.0 225.0" stroke="#FF0000" fill="none" stroke-width="4px" />
<path d="M 130.0 225.0 L 120.0 225.0" stroke="#FF0000" fill="none" stroke-width="4px" />
<path d="M 120.0 225.0 L 110.0 225.0" stroke="#FF0000" fill="none" stroke-width="4px" />
<path d="M 120.0 165.0 L 110.0 165.0" stroke="#FF0000" fill="none" stroke-width="4px" />
<path d="M 110.0 165.0 L 100.0 165.0" stroke="#FF0000" fill="none" stroke-width="4px" />
<path d="M 100.0 165.0 L 90.0 165.0" stroke="#FF0000" fill="none" stroke-width="4px" />
<path d="M 90.0 165.0 L 80.0 165.0" stroke="#FF0000" fill="none" stroke-width="4px" />
<path d="M 80.0 165.0 L 70.0 165.0" stroke="#FF0000" fill="none" stroke-width="4px" />
<path d="M 70.0 165.0 L 60.0 165.0" stroke="#FF0000" fill="none" stroke-width="4px" />
<path d="M 60.0 165.0 L 50.0 165.0" stroke="#FF0000" fill="none" stroke-width="4px" />
<path d="M 50.0 165.0 L 40.0 165.0" stroke="#FF0000" fill="none" stroke-width="4px" />
<path d="M 40.0 165.0 L 30.0 165.0" stroke="#FF0000" fill="none" stroke-width="4px" />
<path d="M 30.0 165.0 L 20.0 165.0" stroke="#FF0000" fill="none" stroke-width="4px" />
<path d="M 20.0 165.0 L 10.0 165.0" stroke="#FF0000" fill="none" stroke-width="4px" />
<path d="M 10.0 165.0 L 10.0 155.0" stroke="#FF0000" fill="none" stroke-width="4px" />
<path d="M 10.0 155.0 L 20.0 155.0" stroke="#FF0000" fill="none" stroke-width="4px" />
<path d="M 20.0 155.0 L 30.0 155.0" stroke="#FF0000" fill="none" stroke-width="4px" />
<path d="M 30.0 155.0 L 40.0 155.0" stroke="#FF0000" fill="none" stroke-width="4px" />
<path d="M 40.0 155.0 L 50.0 155.0" stroke="#FF0000" fill="none" stroke-width="4px" />
<path d="M 50.0 155.0 L 60.0 155.0" stroke="#FF0000" fill="none" stroke-width="4px" />
<path d="M 60.0 155.0 L 70.0 155.0" stroke="#FF0000" fill="none" stroke-width="4px" />
<path d="M 70.0 155.0 L 80.0 155.0" stroke="#FF0000" fill="none" stroke-width="4px" />
<path d="M 80.0 155.0 L 90.0 155.0" stroke="#FF0000" fill="none" stroke-width="4px" />
<path d="M 90.0 155.0 L 100.0 155.0" stroke="#FF0000" fill="none" stroke-width="4px" />
<path d="M 70.0 145.0 L 60.0 145.0" stroke="#FF0000" fill="none" stroke-width="4px" />
<path d="M 60.0 145.0 L 50.0 145.0" stroke="#FF0000" fill="none" stroke-width="4px" />
<path d="M 50.0 145.0 L 40.0 145.0" stroke="#FF0000" fill="none" stroke-width="4px" />
<path d="M 40.0 145.0 L 30.0 145.0" stroke="#FF0000" fill="none" stroke-width="4px" />
<path d="M 30.0 145.0 L 20.0 145.0" stroke="#FF0000" fill="none" stroke-width="4px" />
<path d="M 20.0 145.0 L 10.0 145.0" stroke="#FF0000" fill="none" stroke-width="4px" />
<path d="M 10.0 145.0 L 10.0 135.0" stroke="#FF0000" fill="none" stroke-width="4px" />
<path d="M 10.0 135.0 L 20.0 135.0" stroke="#FF0000" fill="none" stroke-width="4px" />
<path d="M 20.0 135.0 L 30.0 135.0" stroke="#FF0000" fill="none" stroke-width="4px" />
<path d="M 30.0 135.0 L 40.0 135.0" stroke="#FF0000" fill="none" stroke-width="4px" />
<path d="M 40.0 135.0 L 50.0 135.0" stroke="#FF0000" fill="none" stroke-width="4px" />
<path d="M 50.0 135.0 L 60.0 135.0" stroke="#FF0000" fill="none" stroke-width="4px" />
<path d="M 60.0 135.0 L 50.0 125.0" stroke="#FF0000" fill="none" stroke-width="4px" />
<path d="M 50.0 125.0 L 40.0 125.0" stroke="#FF0000" fill="none" stroke-width="4px" />
<path d="M 40.0 125.0 L 30.0 125.0" stroke="#FF0000" fill="none" stroke-width="4px" />
<path d="M 30.0 125.0 L 40.0 115.0" stroke="#FF0000" fill="none" stroke-width="4px" />
<path d="M 180.0 55.0 L 190.0 55.0" stroke="#FF0000" fill="none" stroke-width="4px" />
<path d="M 190.0 55.0 L 200.0 55.0" stroke="#FF0000" fill="none" stroke-width="4px" />
<path d="M 200.0 55.0 L 210.0 55.0" stroke="#FF0000" fill="none" stroke-width="4px" />
<path d="M 210.0 55.0 L 220.0 55.0" stroke="#FF0000" fill="none" stroke-width="4px" />
<path d="M 220.0 55.0 L 230.0 55.0" stroke="#FF0000" fill="none" stroke-width="4px" />
<path d="M 230.0 55.0 L 230.0 45.0" stroke="#FF0000" fill="none" stroke-width="4px" />
<path d="M 230.0 45.0 L 220.0 45.0" stroke="#FF0000" fill="none" stroke-width="4px" />
<path d="M 220.0 45.0 L 210.0 45.0" stroke="#FF0000" fill="none" stroke-width="4px" />
<path d="M 210.0 45.0 L 200.0 45.0" stroke="#FF0000" fill="none" stroke-width="4px" />
<path d="M 200.0 45.0 L 190.0 45.0" stroke="#FF0000" fill="none" stroke-width="4px" />
<path d="M 190.0 45.0 L 180.0 45.0" stroke="#FF0000" fill="none" stroke-width="4px" />
<path d="M 180.0 45.0 L 180.0 35.0" stroke="#FF0000" fill="none" stroke-width="4px" />
<path d="M 180.0 35.0 L 190.0 35.0" stroke="#FF0000" fill="none" stroke-width="4px" />
<path d="M 190.0 35.0 L 200.0 35.0" stroke="#FF0000" fill="none" stroke-width="4px" />
<path d="M 200.0 35.0 L 210.0 35.0" stroke="#FF0000" fill="none" stroke-width="4px" />
<path d="M 210.0 35.0 L 220.0 35.0" stroke="#FF0000" fill="none" stroke-width="4px" />
<path d="M 220.0 35.0 L 230.0 35.0" stroke="#FF0000" fill="none" stroke-width="4px" />
<path d="M 230.0 35.0 L 220.0 25.0" stroke="#FF0000" fill="none" stroke-width="4px" />
<path d="M 220.0 25.0 L 210.0 25.0" stroke="#FF0000" fill="none" stroke-width="4px" />
<path d="M 210.0 25.0 L 200.0 25.0" stroke="#FF0000" fill="none" stroke-width="4px" />
<path d="M 200.0 25.0 L 190.0 25.0" stroke="#FF0000" fill="none" stroke-width="4px" />
<path d="M 190.0 25.0 L 200.0 15.0" stroke="#FF0000" fill="none" stroke-width="4px" />
<path d="M 200.0 15.0 L 210.0 15.0" stroke="#FF0000" fill="none" stroke-width="4px" />
<path d="M 250.0 25.0 L 260.0 25.0" stroke="#FF0000" fill="none" stroke-width="4px" />
<path d="M 260.0 25.0 L 270.0 25.0" stroke="#FF0000" fill="none" stroke-width="4px" />
<path d="M 270.0 25.0 L 280.0 25.0" stroke="#FF0000" fill="none" stroke-width="4px" />
<path d="M 280.0 25.0 L 290.0 25.0" stroke="#FF0000" fill="none" stroke-width="4px" />
<path d="M 290.0 25.0 L 300.0 25.0" stroke="#FF0000" fill="none" stroke-width="4px" />
<path d="M 300.0 25.0 L 300.0 35.0" stroke="#FF0000" fill="none" stroke-width="4px" />
<path d="M 300.0 35.0 L 290.0 35.0" stroke="#FF0000" fill="none" stroke-width="4px" />
<path d="M 290.0 35.0 L 280.0 35.0" stroke="#FF0000" fill="none" stroke-width="4px" />
<path d="M 280.0 35.0 L 270.0 35.0" stroke="#FF0000" fill="none" stroke-width="4px" />
<path d="M 270.0 35.0 L 260.0 35.0" stroke="#FF0000" fill="none" stroke-width="4px" />
<path d="M 260.0 35.0 L 250.0 35.0" stroke="#FF0000" fill="none" stroke-width="4px" />
<path d="M 250.0 35.0 L 250.0 45.0" stroke="#FF0000" fill="none" stroke-width="4px" />
<path d="M 250.0 45.0 L 260.0 45.0" stroke="#FF0000" fill="none" stroke-width="4px" />
<path d="M 260.0 45.0 L 270.0 45.0" stroke="#FF0000" fill="none" stroke-width="4px" />
<path d="M 270.0 45.0 L 280.0 45.0" stroke="#FF0000" fill="none" stroke-width="4px" />
<path d="M 280.0 45.0 L 290.0 45.0" stroke="#FF0000" fill="none" stroke-width="4px" />
<path d="M 290.0 45.0 L 300.0 45.0" stroke="#FF0000" fill="none" stroke-width="4px" />
<path d="M 300.0 45.0 L 300.0 55.0" stroke="#FF0000" fill="none" stroke-width="4px" />
<path d="M 300.0 55.0 L 290.0 55.0" stroke="#FF0000" fill="none" stroke-width="4px" />
<path d="M 290.0 55.0 L 280.0 55.0" stroke="#FF0000" fill="none" stroke-width="4px" />
<path d="M 280.0 55.0 L 270.0 55.0" stroke="#FF0000" fill="none" stroke-width="4px" />
<path d="M 270.0 55.0 L 260.0 55.0" stroke="#FF0000" fill="none" stroke-width="4px" />
<path d="M 260.0 55.0 L 250.0 55.0" stroke="#FF0000" fill="none" stroke-width="4px" />
<path d="M 250.0 55.0 L 260.0 65.0" stroke="#FF0000" fill="none" stroke-width="4px" />
<path d="M 260.0 65.0 L 270.0 65.0" stroke="#FF0000" fill="none" stroke-width="4px" />
<path d="M 270.0 65.0 L 280.0 65.0" stroke="#FF0000" fill="none" stroke-width="4px" />
<path d="M 280.0 65.0 L 290.0 65.0" stroke="#FF0000" fill="none" stroke-width="4px" />
<path d="M 290.0 65.0 L 300.0 65.0" stroke="#FF0000" fill="none" stroke-width="4px" />
<path d="M 300.0 65.0 L 310.0 65.0" stroke="#FF0000" fill="none" stroke-width="4px" />
<path d="M 310.0 65.0 L 300.0 75.0" stroke="#FF0000" fill="none" stroke-width="4px" />
<path d="M 300.0 75.0 L 290.0 75.0" stroke="#FF0000" fill="none" stroke-width="4px" />
<path d="M 290.0 75.0 L 280.0 75.0" stroke="#FF0000" fill="none" stroke-width="4px" />
<path d="M 280.0 75.0 L 270.0 75.0" stroke="#FF0000" fill="none" stroke-width="4px" />
<path d="M 270.0 75.0 L 260.0 75.0" stroke="#FF0000" fill="none" stroke-width="4px" />
<path d="M 260.0 75.0 L 270.0 85.0" stroke="#FF0000" fill="none" stroke-width="4px" />
<path d="M 270.0 85.0 L 280.0 85.0" stroke="#FF0000" fill="none" stroke-width="4px" />
<path d="M 280.0 85.0 L 290.0 85.0" stroke="#FF0000" fill="none" stroke-width="4px" />
<path d="M 220.0 65.0 L 210.0 65.0" stroke="#FF0000" fill="none" stroke-width="4px" />
<path d="M 210.0 65.0 L 200.0 65.0" stroke="#FF0000" fill="none" stroke-width="4px" />
<path d="M 200.0 65.0 L 210.0 75.0" stroke="#FF0000" fill="none" stroke-width="4px" />
<path d="M 260.0 15.0 L 270.0 15.0" stroke="#FF0000" fill="none" stroke-width="4px" />
<path d="M 270.0 15.0 L 280.0 15.0" stroke="#FF0000" fill="none" stroke-width="4px" />
<path d="M 280.0 15.0 L 290.0 15.0" stroke="#FF0000" fill="none" stroke-width="4px" />
<path d="M 230.0 165.0 L 220.0 165.0" stroke="#FF0000" fill="none" stroke-width="4px" />
<path d="M 220.0 165.0 L 210.0 165.0" stroke="#FF0000" fill="none" stroke-width="4px" />
<path d="M 210.0 165.0 L 210.0 175.0" stroke="#FF0000" fill="none" stroke-width="4px" />
<path d="M 210.0 175.0 L 200.0 175.0" stroke="#FF0000" fill="none" stroke-width="4px" />
<path d="M 200.0 175.0 L 200.0 185.0" stroke="#FF0000" fill="none" stroke-width="4px" />
<path d="M 200.0 185.0 L 210.0 185.0" stroke="#FF0000" fill="none" stroke-width="4px" />
<path d="M 210.0 185.0 L 220.0 185.0" stroke="#FF0000" fill="none" stroke-width="4px" />
<path d="M 220.0 185.0 L 230.0 185.0" stroke="#FF0000" fill="none" stroke-width="4px" />
<path d="M 230.0 185.0 L 240.0 185.0" stroke="#FF0000" fill="none" stroke-width="4px" />
<path d="M 240.0 185.0 L 240.0 195.0" stroke="#FF0000" fill="none" stroke-width="4px" />
<path d="M 240.0 195.0 L 230.0 195.0" stroke="#FF0000" fill="none" stroke-width="4px" />
<path d="M 230.0 195.0 L 220.0 195.0" stroke="#FF0000" fill="none" stroke-width="4px" />
<path d="M 220.0 195.0 L 210.0 195.0" stroke="#FF0000" fill="none" stroke-width="4px" />
<path d="M 210.0 195.0 L 200.0 195.0" stroke="#FF0000" fill="none" stroke-width="4px" />
<path d="M 200.0 195.0 L 210.0 205.0" stroke="#FF0000" fill="none" stroke-width="4px" />
<path d="M 210.0 205.0 L 220.0 205.0" stroke="#FF0000" fill="none" stroke-width="4px" />
<path d="M 220.0 205.0 L 230.0 205.0" stroke="#FF0000" fill="none" stroke-width="4px" />
<path d="M 230.0 205.0 L 220.0 215.0" stroke="#FF0000" fill="none" stroke-width="4px" />
<path d="M 220.0 175.0 L 230.0 175.0" stroke="#FF0000" fill="none" stroke-width="4px" />
<path d="M 230.0 175.0 L 240.0 175.0" stroke="#FF0000" fill="none" stroke-width="4px" />
<path d="M 960.0 155.0 L 970.0 155.0" stroke="#FF0000" fill="none" stroke-width="4px" />
<path d="M 970.0 155.0 L 980.0 155.0" stroke="#FF0000" fill="none" stroke-width="4px" />
<path d="M 980.0 155.0 L 990.0 155.0" stroke="#FF0000" fill="none" stroke-width="4px" />
<path d="M 990.0 155.0 L 1000.0 155.0" stroke="#FF0000" fill="none" stroke-width="4px" />
<path d="M 1000.0 155.0 L 1010.0 155.0" stroke="#FF0000" fill="none" stroke-width="4px" />
<path d="M 1010.0 155.0 L 1010.0 165.0" stroke="#FF0000" fill="none" stroke-width="4px" />
<path d="M 1010.0 165.0 L 1000.0 165.0" stroke="#FF0000" fill="none" stroke-width="4px" />
<path d="M 1000.0 165.0 L 990.0 165.0" stroke="#FF0000" fill="none" stroke-width="4px" />
<path d="M 990.0 165.0 L 980.0 165.0" stroke="#FF0000" fill="none" stroke-width="4px" />
<path d="M 980.0 165.0 L 970.0 165.0" stroke="#FF0000" fill="none" stroke-width="4px" />
<path d="M 990.0 175.0 L 1000.0 175.0" stroke="#FF0000" fill="none" stroke-width="4px" />
<path d="M 1000.0 145.0 L 990.0 145.0" stroke="#FF0000" fill="none" stroke-width="4px" />
<path d="M 990.0 145.0 L 980.0 145.0" stroke="#FF0000" fill="none" stroke-width="4px" />
<path d="M 980.0 145.0 L 970.0 145.0" stroke="#FF0000" fill="none" stroke-width="4px" />
<path d="M 970.0 145.0 L 960.0 145.0" stroke="#FF0000" fill="none" stroke-width="4px" />
<path d="M 960.0 145.0 L 970.0 135.0" stroke="#FF0000" fill="none" stroke-width="4px" />
<path d="M 970.0 135.0 L 980.0 135.0" stroke="#FF0000" fill="none" stroke-width="4px" />
<path d="M 980.0 135.0 L 990.0 135.0" stroke="#FF0000" fill="none" stroke-width="4px" />
<path d="M 990.0 135.0 L 1000.0 135.0" stroke="#FF0000" fill="none" stroke-width="4px" />
<path d="M 1000.0 135.0 L 1010.0 135.0" stroke="#FF0000" fill="none" stroke-width="4px" />
<path d="M 1010.0 135.0 L 1010.0 145.0" stroke="#FF0000" fill="none" stroke-width="4px" />
<path d="M 1000.0 125.0 L 990.0 125.0" stroke="#FF0000" fill="none" stroke-width="4px" />
<path d="M 990.0 125.0 L 980.0 125.0" stroke="#FF0000" fill="none" stroke-width="4px" />
<path d="M 980.0 125.0 L 990.0 115.0" stroke="#FF0000" fill="none" stroke-width="4px" />
<path d="M 1060.0 155.0 L 1070.0 155.0" stroke="#FF0000" fill="none" stroke-width="4px" />
<path d="M 1070.0 155.0 L 1080.0 155.0" stroke="#FF0000" fill="none" stroke-width="4px" />
<path d="M 1080.0 155.0 L 1090.0 155.0" stroke="#FF0000" fill="none" stroke-width="4px" />
<path d="M 1090.0 155.0 L 1090.0 165.0" stroke="#FF0000" fill="none" stroke-width="4px" />
<path d="M 1090.0 165.0 L 1080.0 165.0" stroke="#FF0000" fill="none" stroke-width="4px" />
<path d="M 1080.0 165.0 L 1070.0 165.0" stroke="#FF0000" fill="none" stroke-width="4px" />
<path d="M 1070.0 165.0 L 1060.0 165.0" stroke="#FF0000" fill="none" stroke-width="4px" />
<path d="M 1060.0 165.0 L 1050.0 165.0" stroke="#FF0000" fill="none" stroke-width="4px" />
<path d="M 1050.0 165.0 L 1050.0 175.0" stroke="#FF0000" fill="none" stroke-width="4px" />
<path d="M 1050.0 175.0 L 1060.0 175.0" stroke="#FF0000" fill="none" stroke-width="4px" />
<path d="M 1060.0 175.0 L 1070.0 175.0" stroke="#FF0000" fill="none" stroke-width="4px" />
<path d="M 1070.0 175.0 L 1080.0 175.0" stroke="#FF0000" fill="none" stroke-width="4px" />
<path d="M 1080.0 175.0 L 1090.0 175.0" stroke="#FF0000" fill="none" stroke-width="4px" />
<path d="M 1090.0 175.0 L 1100.0 175.0" stroke="#FF0000" fill="none" stroke-width="4px" />
<path d="M 1100.0 175.0 L 1100.0 165.0" stroke="#FF0000" fill="none" stroke-width="4px" />
<path d="M 1090.0 185.0 L 1080.0 185.0" stroke="#FF0000" fill="none" stroke-width="4px" />
<path d="M 1080.0 185.0 L 1070.0 185.0" stroke="#FF0000" fill="none" stroke-width="4px" />
<path d="M 1070.0 185.0 L 1060.0 185.0" stroke="#FF0000" fill="none" stroke-width="4px" />
<path d="M 1060.0 185.0 L 1070.0 195.0" stroke="#FF0000" fill="none" stroke-width="4px" />
<path d="M 1070.0 195.0 L 1080.0 195.0" stroke="#FF0000" fill="none" stroke-width="4px" />
<path d="M 1080.0 145.0 L 1070.0 145.0" stroke="#FF0000" fill="none" stroke-width="4px" />
<path d="M 1240.0 125.0 L 1250.0 125.0" stroke="#FF0000" fill="none" stroke-width="4px" />
<path d="M 1250.0 125.0 L 1260.0 125.0" stroke="#FF0000" fill="none" stroke-width="4px" />
<path d="M 1260.0 125.0 L 1270.0 125.0" stroke="#FF0000" fill="none" stroke-width="4px" />
<path d="M 1270.0 125.0 L 1280.0 125.0" stroke="#FF0000" fill="none" stroke-width="4px" />
<path d="M 1280.0 125.0 L 1280.0 135.0" stroke="#FF0000" fill="none" stroke-width="4px" />
<path d="M 1280.0 135.0 L 1270.0 135.0" stroke="#FF0000" fill="none" stroke-width="4px" />
<path d="M 1270.0 135.0 L 1260.0 135.0" stroke="#FF0000" fill="none" stroke-width="4px" />
<path d="M 1260.0 135.0 L 1250.0 135.0" stroke="#FF0000" fill="none" stroke-width="4px" />
<path d="M 1250.0 135.0 L 1250.0 145.0" stroke="#FF0000" fill="none" stroke-width="4px" />
<path d="M 1250.0 145.0 L 1260.0 145.0" stroke="#FF0000" fill="none" stroke-width="4px" />
<path d="M 1260.0 145.0 L 1270.0 145.0" stroke="#FF0000" fill="none" stroke-width="4px" />
<path d="M 1270.0 145.0 L 1280.0 145.0" stroke="#FF0000" fill="none" stroke-width="4px" />
<path d="M 1280.0 145.0 L 1280.0 155.0" stroke="#FF0000" fill="none" stroke-width="4px" />
<path d="M 1280.0 155.0 L 1270.0 155.0" stroke="#FF0000" fill="none" stroke-width="4px" />
<path d="M 1270.0 155.0 L 1260.0 155.0" stroke="#FF0000" fill="none" stroke-width="4px" />
<path d="M 1260.0 155.0 L 1250.0 155.0" stroke="#FF0000" fill="none" stroke-width="4px" />
<path d="M 1250.0 155.0 L 1250.0 165.0" stroke="#FF0000" fill="none" stroke-width="4px" />
<path d="M 1250.0 165.0 L 1260.0 165.0" stroke="#FF0000" fill="none" stroke-width="4px" />
<path d="M 1260.0 165.0 L 1270.0 165.0" stroke="#FF0000" fill="none" stroke-width="4px" />
<path d="M 1270.0 165.0 L 1280.0 165.0" stroke="#FF0000" fill="none" stroke-width="4px" />
<path d="M 1280.0 165.0 L 1280.0 175.0" stroke="#FF0000" fill="none" stroke-width="4px" />
<path d="M 1280.0 175.0 L 1270.0 175.0" stroke="#FF0000" fill="none" stroke-width="4px" />
<path d="M 1270.0 175.0 L 1260.0 175.0" stroke="#FF0000" fill="none" stroke-width="4px" />
<path d="M 1260.0 175.0 L 1250.0 175.0" stroke="#FF0000" fill="none" stroke-width="4px" />
<path d="M 1250.0 175.0 L 1260.0 185.0" stroke="#FF0000" fill="none" stroke-width="4px" />
<path d="M 1260.0 185.0 L 1270.0 185.0" stroke="#FF0000" fill="none" stroke-width="4px" />
<path d="M 1270.0 185.0 L 1280.0 185.0" stroke="#FF0000" fill="none" stroke-width="4px" />
<path d="M 1280.0 185.0 L 1280.0 195.0" stroke="#FF0000" fill="none" stroke-width="4px" />
<path d="M 1280.0 195.0 L 1270.0 195.0" stroke="#FF0000" fill="none" stroke-width="4px" />
<path d="M 1270.0 115.0 L 1260.0 115.0" stroke="#FF0000" fill="none" stroke-width="4px" />
<path d="M 1260.0 115.0 L 1250.0 115.0" stroke="#FF0000" fill="none" stroke-width="4px" />
<path d="M 1250.0 115.0 L 1240.0 115.0" stroke="#FF0000" fill="none" stroke-width="4px" />
<path d="M 1240.0 115.0 L 1250.0 105.0" stroke="#FF0000" fill="none" stroke-width="4px" />
<path d="M 1250.0 105.0 L 1260.0 105.0" stroke="#FF0000" fill="none" stroke-width="4px" />
<path d="M 1260.0 105.0 L 1270.0 105.0" stroke="#FF0000" fill="none" stroke-width="4px" />
<path d="M 1270.0 105.0 L 1280.0 105.0" stroke="#FF0000" fill="none" stroke-width="4px" />
<path d="M 1280.0 105.0 L 1280.0 115.0" stroke="#FF0000" fill="none" stroke-width="4px" />
<path d="M 1270.0 95.0 L 1260.0 95.0" stroke="#FF0000" fill="none" stroke-width="4px" />
</svg>