<svg width="2523.06666667" height="235.0" xmlns="http://www.w3.org/2000/svg" version="1.1">
<path d="M 0.0 235.0 L 1985.0 235.0 L 1985.0 0.0 L 0.0 0.0 L 0.0 235.0" stroke="#000000" fill="none" stroke-width="3px" />
<path d="M 2523.06666667 235.0 L 1885.0 235.0 L 1885.0 0.0 L 2523.06666667 0.0 L 2523.06666667 235.0" stroke="#000000" fill="none" stroke-width="3px" />
<path d="M 10.0 257.5 L 0.0 247.5 L 10.0 237.5" stroke="#969696" fill="none" stroke-width="1px" />
<path d="M 10.0 237.5 L 1975.0 237.5" stroke="#969696" fill="none" stroke-width="1px" />
<path d="M 1975.0 237.5 L 1985.0 227.5 L 1975.0 217.5" stroke="#969696" fill="none" stroke-width="1px" />
<path d="M 1975.0 217.5 L 10.0 217.5" stroke="#969696" fill="none" stroke-width="1px" />
<path d="M 10.0 217.5 L 0.0 207.5 L 10.0 197.5" stroke="#969696" fill="none" stroke-width="1px" />
<path d="M 10.0 197.5 L 1975.0 197.5" stroke="#969696" fill="none" stroke-width="1px" />
<path d="M 1975.0 197.5 L 1985.0 187.5 L 1975.0 177.5" stroke="#969696" fill="none" stroke-width="1px" />
<path d="M 1975.0 177.5 L 10.0 177.5" stroke="#969696" fill="none" stroke-width="1px" />
<path d="M 10.0 177.5 L 0.0 167.5 L 10.0 157.5" stroke="#969696" fill="none" stroke-width="1px" />
<path d="M 10.0 157.5 L 1975.0 157.5" stroke="#969696" fill="none" stroke-width="1px" />
<path d="M 1975.0 157.5 L 1985.0 147.5 L 1975.0 137.5" stroke="#969696" fill="none" stroke-width="1px" />
<path d="M 1975.0 137.5 L 10.0 137.5" stroke="#969696" fill="none" stroke-width="1px" />
<path d="M 10.0 137.5 L 0.0 127.5 L 10.0 117.5" stroke="#969696" fill="none" stroke-width="1px" />
<path d="M 10.0 117.5 L 1975.0 117.5" stroke="#969696" fill="none" stroke-width="1px" />
<path d="M 1975.0 117.5 L 1985.0 107.5 L 1975.0 97.5" stroke="#969696" fill="none" stroke-width="1px" />
<path d="M 1975.0 97.5 L 10.0 97.5" stroke="#969696" fill="none" stroke-width="1px" />
<path d="M 10.0 97.5 L 0.0 87.5 L 10.0 77.5" stroke="#969696" fill="none" stroke-width="1px" />
<path d="M 10.0 77.5 L 1975.0 77.5" stroke="#969696" fill="none" stroke-width="1px" />
<path d="M 1975.0 77.5 L 1985.0 67.5 L 1975.0 57.5" stroke="#969696" fill="none" stroke-width="1px" />
<path d="M 1975.0 57.5 L 10.0 57.5" stroke="#969696" fill="none" stroke-width="1px" />
<path d="M 10.0 57.5 L 0.0 47.5 L 10.0 37.5" stroke="#969696" fill="none" stroke-width="1px" />
<path d="M 10.0 37.5 L 1975.0 37.5" stroke="#969696" fill="none" stroke-width="1px" />
<path d="M 1975.0 37.5 L 1985.0 27.5 L 1975.0 17.5" stroke="#969696" fill="none" stroke-width="1px" />
<path d="M 1975.0 17.5 L 10.0 17.5" stroke="#969696" fill="none" stroke-width="1px" />
<path d="M 10.0 17.5 L 0.0 7.5 L 10.0 -2.5" stroke="#969696" fill="none" stroke-width="1px" />
<path d="M 10.0 -2.5 L 1975.0 -2.5" stroke="#969696" fill="none" stroke-width="1px" />
<path d="M 1975.0 -2.5 L 1985.0 -12.5 L 1975.0 -22.5" stroke="#969696" fill="none" stroke-width="1px" />
<path d="M 2513.06666667 257.5 L 2523.06666667 247.5 L 2513.06666667 237.5" stroke="#969696" fill="none" stroke-width="1px" />
<path d="M 2513.06666667 237.5 L 1895.0 237.5" stroke="#969696" fill="none" stroke-width="1px" />
<path d="M 1895.0 237.5 L 1885.0 227.5 L 1895.0 217.5" stroke="#969696" fill="none" stroke-width="1px" />
<path d="M 1895.0 217.5 L 2513.06666667 217.5" stroke="#969696" fill="none" stroke-width="1px" />
<path d="M 2513.06666667 217.5 L 2523.06666667 207.5 L 2513.06666667 197.5" stroke="#969696" fill="none" stroke-width="1px" />
<path d="M 2513.06666667 197.5 L 1895.0 197.5" stroke="#969696" fill="none" stroke-width="1px" />
<path d="M 1895.0 197.5 L 1885.0 187.5 L 1895.0 177.5" stroke="#969696" fill="none" stroke-width="1px" />
<path d="M 1895.0 177.5 L 2513.06666667 177.5" stroke="#969696" fill="none" stroke-width="1px" />
<path d="M 2513.06666667 177.5 L 2523.06666667 167.5 L 2513.06666667 157.5" stroke="#969696" fill="none" stroke-width="1px" />
<path d="M 2513.06666667 157.5 L 1895.0 157.5" stroke="#969696" fill="none" stroke-width="1px" />
<path d="M 1895.0 157.5 L 1885.0 147.5 L 1895.0 137.5" stroke="#969696" fill="none" stroke-width="1px" />
<path d="M 1895.0 137.5 L 2513.06666667 137.5" stroke="#969696" fill="none" stroke-width="1px" />
<path d="M 2513.06666667 137.5 L 2523.06666667 127.5 L 2513.06666667 117.5" stroke="#969696" fill="none" stroke-width="1px" />
<path d="M 2513.06666667 117.5 L 1895.0 117.5" stroke="#969696" fill="none" stroke-width="1px" />
<path d="M 1895.0 117.5 L 1885.0 107.5 L 1895.0 97.5" stroke="#969696" fill="none" stroke-width="1px" />
<path d="M 1895.0 97.5 L 2513.06666667 97.5" stroke="#969696" fill="none" stroke-width="1px" />
<path d="M 2513.06666667 97.5 L 2523.06666667 87.5 L 2513.06666667 77.5" stroke="#969696" fill="none" stroke-width="1px" />
<path d="M 2513.06666667 77.5 L 1895.0 77.5" stroke="#969696" fill="none" stroke-width="1px" />
<path d="M 1895.0 77.5 L 1885.0 67.5 L 1895.0 57.5" stroke="#969696" fill="none" stroke-width="1px" />
<path d="M 1895.0 57.5 L 2513.06666667 57.5" stroke="#969696" fill="none" stroke-width="1px" />
<path d="M 2513.06666667 57.5 L 2523.06666667 47.5 L 2513.06666667 37.5" stroke="#969696" fill="none" stroke-width="1px" />
<path d="M 2513.06666667 37.5 L 1895.0 37.5" stroke="#969696" fill="none" stroke-width="1px" />
<path d="M 1895.0 37.5 L 1885.0 27.5 L 1895.0 17.5" stroke="#969696" fill="none" stroke-width="1px" />
<path d="M 1895.0 17.5 L 2513.06666667 17.5" stroke="#969696" fill="none" stroke-width="1px" />
<path d="M 2513.06666667 17.5 L 2523.06666667 7.5 L 2513.06666667 -2.5" stroke="#969696" fill="none" stroke-width="1px" />
<path d="M 2513.06666667 -2.5 L 1895.0 -2.5" stroke="#969696" fill="none" stroke-width="1px" />
<path d="M 1895.0 -2.5 L 1885.0 -12.5 L 1895.0 -22.5" stroke="#969696" fill="none" stroke-width="1px" />
<path d="M 0.0 235.0 L 10.0 165.0" stroke="#0095FF" fill="none" stroke-width="2px" />
<path d="M 30.0 145.0 L 10.0 125.0" stroke="#0095FF" fill="none" stroke-width="2px" />
<path d="M 10.0 125.0 L 120.0 65.0" stroke="#0095FF" fill="none" stroke-width="2px" />
<path d="M 120.0 45.0 L 120.0 25.0" stroke="#0095FF" fill="none" stroke-width="2px" />
<path d="M 130.0 25.0 L 130.0 5.0" stroke="#0095FF" fill="none" stroke-width="2px" />
<path d="M 140.0 5.0 L 160.0 25.0" stroke="#0095FF" fill="none" stroke-width="2px" />
<path d="M 160.0 25.0 L 160.0 55.0" stroke="#0095FF" fill="none" stroke-width="2px" />
<path d="M 160.0 55.0 L 140.0 75.0" stroke="#0095FF" fill="none" stroke-width="2px" />
<path d="M 130.0 75.0 L 420.0 165.0" stroke="#0095FF" fill="none" stroke-width="2px" />
<path d="M 450.0 195.0 L 450.0 155.0" stroke="#0095FF" fill="none" stroke-width="2px" />
<path d="M 460.0 155.0 L 630.0 155.0" stroke="#0095FF" fill="none" stroke-width="2px" />
<path d="M 700.0 195.0 L 700.0 145.0" stroke="#0095FF" fill="none" stroke-width="2px" />
<path d="M 710.0 145.0 L 710.0 125.0" stroke="#0095FF" fill="none" stroke-width="2px" />
<path d="M 700.0 115.0 L 670.0 105.0" stroke="#0095FF" fill="none" stroke-width="2px" />
<path d="M 660.0 105.0 L 780.0 145.0" stroke="#0095FF" fill="none" stroke-width="2px" />
<path d="M 870.0 175.0 L 860.0 195.0" stroke="#0095FF" fill="none" stroke-width="2px" />
<path d="M 850.0 205.0 L 850.0 155.0" stroke="#0095FF" fill="none" stroke-width="2px" />
<path d="M 850.0 155.0 L 810.0 135.0" stroke="#0095FF" fill="none" stroke-width="2px" />
<path d="M 800.0 125.0 L 840.0 85.0" stroke="#0095FF" fill="none" stroke-width="2px" />
<path d="M 840.0 65.0 L 860.0 75.0" stroke="#0095FF" fill="none" stroke-width="2px" />
<path d="M 870.0 65.0 L 850.0 45.0" stroke="#0095FF" fill="none" stroke-width="2px" />
<path d="M 840.0 45.0 L 1520.0 95.0" stroke="#0095FF" fill="none" stroke-width="2px" />
<path d="M 1590.0 105.0 L 1580.0 125.0" stroke="#0095FF" fill="none" stroke-width="2px" />
<path d="M 1560.0 145.0 L 1560.0 85.0" stroke="#0095FF" fill="none" stroke-width="2px" />
<path d="M 1540.0 75.0 L 1570.0 85.0" stroke="#0095FF" fill="none" stroke-width="2px" />
<path d="M 1570.0 85.0 L 1650.0 55.0" stroke="#0095FF" fill="none" stroke-width="2px" />
<path d="M 1700.0 15.0 L 1700.0 65.0" stroke="#0095FF" fill="none" stroke-width="2px" />
<path d="M 1710.0 65.0 L 1880.0 25.0" stroke="#0095FF" fill="none" stroke-width="2px" />
<path d="M 1980.0 35.0 L 1970.0 55.0" stroke="#0095FF" fill="none" stroke-width="2px" />
<path d="M 1900.0 55.0 L 1950.0 65.0" stroke="#0095FF" fill="none" stroke-width="2px" />
<path d="M 1960.0 65.0 L 1960.0 15.0" stroke="#0095FF" fill="none" stroke-width="2px" />
<path d="M 1970.0 15.0 L 1960.0 -5.0" stroke="#0095FF" fill="none" stroke-width="2px" />
<path d="M 2523.06666667 235.0 L 2430.0 145.0" stroke="#0095FF" fill="none" stroke-width="2px" />
<path d="M 2450.0 85.0 L 2430.0 75.0" stroke="#0095FF" fill="none" stroke-width="2px" />
<path d="M 2400.0 75.0 L 2400.0 135.0" stroke="#0095FF" fill="none" stroke-width="2px" />
<path d="M 10.0 165.0 L 10.0 155.0" stroke="#FF0000" fill="none" stroke-width="4px" />
<path d="M 10.0 155.0 L 20.0 155.0" stroke="#FF0000" fill="none" stroke-width="4px" />
<path d="M 20.0 155.0 L 20.0 145.0" stroke="#FF0000" fill="none" stroke-width="4px" />
<path d="M 20.0 145.0 L 10.0 145.0" stroke="#FF0000" fill="none" stroke-width="4px" />
<path d="M 10.0 145.0 L 10.0 135.0" stroke="#FF0000" fill="none" stroke-width="4px" />
<path d="M 10.0 135.0 L 20.0 135.0" stroke="#FF0000" fill="none" stroke-width="4px" />
<path d="M 20.0 135.0 L 30.0 145.0" stroke="#FF0000" fill="none" stroke-width="4px" />
<path d="M 120.0 65.0 L 130.0 65.0" stroke="#FF0000" fill="none" stroke-width="4px" />
<path d="M 130.0 65.0 L 140.0 65.0" stroke="#FF0000" fill="none" stroke-width="4px" />
<path d="M 140.0 65.0 L 150.0 65.0" stroke="#FF0000" fill="none" stroke-width="4px" />
<path d="M 150.0 65.0 L 150.0 55.0" stroke="#FF0000" fill="none" stroke-width="4px" />
<path d="M 150.0 55.0 L 140.0 55.0" stroke="#FF0000" fill="none" stroke-width="4px" />
<path d="M 140.0 55.0 L 130.0 55.0" stroke="#FF0000" fill="none" stroke-width="4px" />
<path d="M 130.0 55.0 L 120.0 55.0" stroke="#FF0000" fill="none" stroke-width="4px" />
<path d="M 120.0 55.0 L 110.0 55.0" stroke="#FF0000" fill="none" stroke-width="4px" />
<path d="M 110.0 55.0 L 110.0 45.0" stroke="#FF0000" fill="none" stroke-width="4px" />
<path d="M 110.0 45.0 L 100.0 45.0" stroke="#FF0000" fill="none" stroke-width="4px" />
<path d="M 100.0 45.0 L 100.0 35.0" stroke="#FF0000" fill="none" stroke-width="4px" />
<path d="M 100.0 35.0 L 110.0 35.0" stroke="#FF0000" fill="none" stroke-width="4px" />
<path d="M 110.0 35.0 L 120.0 35.0" stroke="#FF0000" fill="none" stroke-width="4px" />
<path d="M 120.0 35.0 L 130.0 35.0" stroke="#FF0000" fill="none" stroke-width="4px" />
<path d="M 130.0 35.0 L 140.0 35.0" stroke="#FF0000" fill="none" stroke-width="4px" />
<path d="M 140.0 35.0 L 150.0 35.0" stroke="#FF0000" fill="none" stroke-width="4px" />
<path d="M 150.0 35.0 L 160.0 35.0" stroke="#FF0000" fill="none" stroke-width="4px" />
<path d="M 160.0 35.0 L 170.0 35.0" stroke="#FF0000" fill="none" stroke-width="4px" />
<path d="M 170.0 35.0 L 170.0 45.0" stroke="#FF0000" fill="none" stroke-width="4px" />
<path d="M 170.0 45.0 L 160.0 45.0" stroke="#FF0000" fill="none" stroke-width="4px" />
<path d="M 160.0 45.0 L 150.0 45.0" stroke="#FF0000" fill="none" stroke-width="4px" />
<path d="M 150.0 45.0 L 140.0 45.0" stroke="#FF0000" fill="none" stroke-width="4px" />
<path d="M 140.0 45.0 L 130.0 45.0" stroke="#FF0000" fill="none" stroke-width="4px" />
<path d="M 130.0 45.0 L 120.0 45.0" stroke="#FF0000" fill="none" stroke-width="4px" />
<path d="M 120.0 25.0 L 110.0 25.0" stroke="#FF0000" fill="none" stroke-width="4px" />
<path d="M 110.0 25.0 L 120.0 15.0" stroke="#FF0000" fill="none" stroke-width="4px" />
<path d="M 120.0 15.0 L 130.0 15.0" stroke="#FF0000" fill="none" stroke-width="4px" />
<path d="M 130.0 15.0 L 140.0 15.0" stroke="#FF0000" fill="none" stroke-width="4px" />
<path d="M 140.0 15.0 L 150.0 15.0" stroke="#FF0000" fill="none" stroke-width="4px" />
<path d="M 150.0 15.0 L 150.0 25.0" stroke="#FF0000" fill="none" stroke-width="4px" />
<path d="M 150.0 25.0 L 140.0 25.0" stroke="#FF0000" fill="none" stroke-width="4px" />
<path d="M 140.0 25.0 L 130.0 25.0" stroke="#FF0000" fill="none" stroke-width="4px" />
<path d="M 130.0 5.0 L 140.0 5.0" stroke="#FF0000" fill="none" stroke-width="4px" />
<path d="M 140.0 75.0 L 130.0 75.0" stroke="#FF0000" fill="none" stroke-width="4px" />
<path d="M 420.0 165.0 L 430.0 165.0" stroke="#FF0000" fill="none" stroke-width="4px" />
<path d="M 430.0 165.0 L 440.0 165.0" stroke="#FF0000" fill="none" stroke-width="4px" />
<path d="M 440.0 165.0 L 450.0 165.0" stroke="#FF0000" fill="none" stroke-width="4px" />
<path d="M 450.0 165.0 L 460.0 165.0" stroke="#FF0000" fill="none" stroke-width="4px" />
<path d="M 460.0 165.0 L 470.0 165.0" stroke="#FF0000" fill="none" stroke-width="4px" />
<path d="M 470.0 165.0 L 470.0 175.0" stroke="#FF0000" fill="none" stroke-width="4px" />
<path d="M 470.0 175.0 L 460.0 175.0" stroke="#FF0000" fill="none" stroke-width="4px" />
<path d="M 460.0 175.0 L 450.0 175.0" stroke="#FF0000" fill="none" stroke-width="4px" />
<path d="M 450.0 175.0 L 440.0 175.0" stroke="#FF0000" fill="none" stroke-width="4px" />
<path d="M 440.0 175.0 L 430.0 175.0" stroke="#FF0000" fill="none" stroke-width="4px" />
<path d="M 430.0 175.0 L 440.0 185.0" stroke="#FF0000" fill="none" stroke-width="4px" />
<path d="M 440.0 185.0 L 450.0 185.0" stroke="#FF0000" fill="none" stroke-width="4px" />
<path d="M 450.0 185.0 L 460.0 185.0" stroke="#FF0000" fill="none" stroke-width="4px" />
<path d="M 460.0 185.0 L 450.0 195.0" stroke="#FF0000" fill="none" stroke-width="4px" />
<path d="M 450.0 155.0 L 440.0 155.0" stroke="#FF0000" fill="none" stroke-width="4px" />
<path d="M 440.0 155.0 L 430.0 155.0" stroke="#FF0000" fill="none" stroke-width="4px" />
<path d="M 430.0 155.0 L 440.0 145.0" stroke="#FF0000" fill="none" stroke-width="4px" />
<path d="M 440.0 145.0 L 450.0 145.0" stroke="#FF0000" fill="none" stroke-width="4px" />
<path d="M 450.0 145.0 L 460.0 155.0" stroke="#FF0000" fill="none" stroke-width="4px" />
<path d="M 630.0 155.0 L 640.0 155.0" stroke="#FF0000" fill="none" stroke-width="4px" />
<path d="M 640.0 155.0 L 650.0 155.0" stroke="#FF0000" fill="none" stroke-width="4px" />
<path d="M 650.0 155.0 L 660.0 155.0" stroke="#FF0000" fill="none" stroke-width="4px" />
<path d="M 660.0 155.0 L 670.0 155.0" stroke="#FF0000" fill="none" stroke-width="4px" />
<path d="M 670.0 155.0 L 680.0 155.0" stroke="#FF0000" fill="none" stroke-width="4px" />
<path d="M 680.0 155.0 L 690.0 155.0" stroke="#FF0000" fill="none" stroke-width="4px" />
<path d="M 690.0 155.0 L 700.0 155.0" stroke="#FF0000" fill="none" stroke-width="4px" />
<path d="M 700.0 155.0 L 710.0 155.0" stroke="#FF0000" fill="none" stroke-width="4px" />
<path d="M 710.0 155.0 L 720.0 155.0" stroke="#FF0000" fill="none" stroke-width="4px" />
<path d="M 720.0 155.0 L 720.0 165.0" stroke="#FF0000" fill="none" stroke-width="4px" />
<path d="M 720.0 165.0 L 710.0 165.0" stroke="#FF0000" fill="none" stroke-width="4px" />
<path d="M 710.0 165.0 L 700.0 165.0" stroke="#FF0000" fill="none" stroke-width="4px" />
<path d="M 700.0 165.0 L 690.0 165.0" stroke="#FF0000" fill="none" stroke-width="4px" />
<path d="M 690.0 165.0 L 680.0 165.0" stroke="#FF0000" fill="none" stroke-width="4px" />
<path d="M 680.0 165.0 L 670.0 165.0" stroke="#FF0000" fill="none" stroke-width="4px" />
<path d="M 670.0 165.0 L 660.0 165.0" stroke="#FF0000" fill="none" stroke-width="4px" />
<path d="M 660.0 165.0 L 650.0 165.0" stroke="#FF0000" fill="none" stroke-width="4px" />
<path d="M 650.0 165.0 L 640.0 165.0" stroke="#FF0000" fill="none" stroke-width="4px" />
<path d="M 640.0 165.0 L 630.0 165.0" stroke="#FF0000" fill="none" stroke-width="4px" />
<path d="M 630.0 165.0 L 640.0 175.0" stroke="#FF0000" fill="none" stroke-width="4px" />
<path d="M 640.0 175.0 L 650.0 175.0" stroke="#FF0000" fill="none" stroke-width="4px" />
<path d="M 650.0 175.0 L 660.0 175.0" stroke="#FF0000" fill="none" stroke-width="4px" />
<path d="M 660.0 175.0 L 670.0 175.0" stroke="#FF0000" fill="none" stroke-width="4px" />
<path d="M 670.0 175.0 L 680.0 175.0" stroke="#FF0000" fill="none" stroke-width="4px" />
<path d="M 680.0 175.0 L 690.0 175.0" stroke="#FF0000" fill="none" stroke-width="4px" />
<path d="M 690.0 175.0 L 700.0 175.0" stroke="#FF0000" fill="none" stroke-width="4px" />
<path d="M 700.0 175.0 L 710.0 175.0" stroke="#FF0000" fill="none" stroke-width="4px" />
<path d="M 710.0 175.0 L 720.0 175.0" stroke="#FF0000" fill="none" stroke-width="4px" />
<path d="M 720.0 175.0 L 710.0 185.0" stroke="#FF0000" fill="none" stroke-width="4px" />
<path d="M 710.0 185.0 L 700.0 185.0" stroke="#FF0000" fill="none" stroke-width="4px" />
<path d="M 700.0 185.0 L 690.0 185.0" stroke="#FF0000" fill="none" stroke-width="4px" />
<path d="M 690.0 185.0 L 680.0 185.0" stroke="#FF0000" fill="none" stroke-width="4px" />
<path d="M 680.0 185.0 L 670.0 185.0" stroke="#FF0000" fill="none" stroke-width="4px" />
<path d="M 670.0 185.0 L 660.0 185.0" stroke="#FF0000" fill="none" stroke-width="4px" />
<path d="M 660.0 185.0 L 650.0 185.0" stroke="#FF0000" fill="none" stroke-width="4px" />
<path d="M 650.0 185.0 L 660.0 195.0" stroke="#FF0000" fill="none" stroke-width="4px" />
<path d="M 660.0 195.0 L 670.0 195.0" stroke="#FF0000" fill="none" stroke-width="4px" />
<path d="M 670.0 195.0 L 680.0 195.0" stroke="#FF0000" fill="none" stroke-width="4px" />
<path d="M 680.0 195.0 L 690.0 195.0" stroke="#FF0000" fill="none" stroke-width="4px" />
<path d="M 690.0 195.0 L 700.0 195.0" stroke="#FF0000" fill="none" stroke-width="4px" />
<path d="M 700.0 145.0 L 690.0 145.0" stroke="#FF0000" fill="none" stroke-width="4px" />
<path d="M 690.0 145.0 L 680.0 145.0" stroke="#FF0000" fill="none" stroke-width="4px" />
<path d="M 680.0 145.0 L 670.0 145.0" stroke="#FF0000" fill="none" stroke-width="4px" />
<path d="M 670.0 145.0 L 660.0 145.0" stroke="#FF0000" fill="none" stroke-width="4px" />
<path d="M 660.0 145.0 L 650.0 145.0" stroke="#FF0000" fill="none" stroke-width="4px" />
<path d="M 650.0 145.0 L 640.0 145.0" stroke="#FF0000" fill="none" stroke-width="4px" />
<path d="M 640.0 145.0 L 630.0 145.0" stroke="#FF0000" fill="none" stroke-width="4px" />
<path d="M 630.0 145.0 L 630.0 135.0" stroke="#FF0000" fill="none" stroke-width="4px" />
<path d="M 630.0 135.0 L 640.0 135.0" stroke="#FF0000" fill="none" stroke-width="4px" />
<path d="M 640.0 135.0 L 650.0 135.0" stroke="#FF0000" fill="none" stroke-width="4px" />
<path d="M 650.0 135.0 L 660.0 135.0" stroke="#FF0000" fill="none" stroke-width="4px" />
<path d="M 660.0 135.0 L 670.0 135.0" stroke="#FF0000" fill="none" stroke-width="4px" />
<path d="M 670.0 135.0 L 680.0 135.0" stroke="#FF0000" fill="none" stroke-width="4px" />
<path d="M 680.0 135.0 L 690.0 135.0" stroke="#FF0000" fill="none" stroke-width="4px" />
<path d="M 690.0 135.0 L 700.0 135.0" stroke="#FF0000" fill="none" stroke-width="4px" />
<path d="M 700.0 135.0 L 710.0 135.0" stroke="#FF0000" fill="none" stroke-width="4px" />
<path d="M 710.0 135.0 L 720.0 135.0" stroke="#FF0000" fill="none" stroke-width="4px" />
<path d="M 720.0 135.0 L 720.0 145.0" stroke="#FF0000" fill="none" stroke-width="4px" />
<path d="M 720.0 145.0 L 710.0 145.0" stroke="#FF0000" fill="none" stroke-width="4px" />
<path d="M 710.0 125.0 L 700.0 125.0" stroke="#FF0000" fill="none" stroke-width="4px" />
<path d="M 700.0 125.0 L 690.0 125.0" stroke="#FF0000" fill="none" stroke-width="4px" />
<path d="M 690.0 125.0 L 680.0 125.0" stroke="#FF0000" fill="none" stroke-width="4px" />
<path d="M 680.0 125.0 L 670.0 125.0" stroke="#FF0000" fill="none" stroke-width="4px" />
<path d="M 670.0 125.0 L 660.0 125.0" stroke="#FF0000" fill="none" stroke-width="4px" />
<path d="M 660.0 125.0 L 650.0 125.0" stroke="#FF0000" fill="none" stroke-width="4px" />
<path d="M 650.0 125.0 L 640.0 125.0" stroke="#FF0000" fill="none" stroke-width="4px" />
<path d="M 640.0 125.0 L 650.0 115.0" stroke="#FF0000" fill="none" stroke-width="4px" />
<path d="M 650.0 115.0 L 660.0 115.0" stroke="#FF0000" fill="none" stroke-width="4px" />
<path d="M 660.0 115.0 L 670.0 115.0" stroke="#FF0000" fill="none" stroke-width="4px" />
<path d="M 670.0 115.0 L 680.0 115.0" stroke="#FF0000" fill="none" stroke-width="4px" />
<path d="M 680.0 115.0 L 690.0 115.0" stroke="#FF0000" fill="none" stroke-width="4px" />
<path d="M 690.0 115.0 L 700.0 115.0" stroke="#FF0000" fill="none" stroke-width="4px" />
<path d="M 670.0 105.0 L 660.0 105.0" stroke="#FF0000" fill="none" stroke-width="4px" />
<path d="M 780.0 145.0 L 790.0 145.0" stroke="#FF0000" fill="none" stroke-width="4px" />
<path d="M 790.0 145.0 L 800.0 145.0" stroke="#FF0000" fill="none" stroke-width="4px" />
<path d="M 800.0 145.0 L 810.0 145.0" stroke="#FF0000" fill="none" stroke-width="4px" />
<path d="M 810.0 145.0 L 820.0 145.0" stroke="#FF0000" fill="none" stroke-width="4px" />
<path d="M 820.0 145.0 L 830.0 145.0" stroke="#FF0000" fill="none" stroke-width="4px" />
<path d="M 830.0 145.0 L 840.0 145.0" stroke="#FF0000" fill="none" stroke-width="4px" />
<path d="M 840.0 145.0 L 840.0 155.0" stroke="#FF0000" fill="none" stroke-width="4px" />
<path d="M 840.0 155.0 L 830.0 155.0" stroke="#FF0000" fill="none" stroke-width="4px" />
<path d="M 830.0 155.0 L 820.0 155.0" stroke="#FF0000" fill="none" stroke-width="4px" />
<path d="M 820.0 155.0 L 810.0 155.0" stroke="#FF0000" fill="none" stroke-width="4px" />
<path d="M 810.0 155.0 L 800.0 155.0" stroke="#FF0000" fill="none" stroke-width="4px" />
<path d="M 800.0 155.0 L 790.0 155.0" stroke="#FF0000" fill="none" stroke-width="4px" />
<path d="M 790.0 155.0 L 790.0 165.0" stroke="#FF0000" fill="none" stroke-width="4px" />
<path d="M 790.0 165.0 L 800.0 165.0" stroke="#FF0000" fill="none" stroke-width="4px" />
<path d="M 800.0 165.0 L 810.0 165.0" stroke="#FF0000" fill="none" stroke-width="4px" />
<path d="M 810.0 165.0 L 820.0 165.0" stroke="#FF0000" fill="none" stroke-width="4px" />
<path d="M 820.0 165.0 L 830.0 165.0" stroke="#FF0000" fill="none" stroke-width="4px" />
<path d="M 830.0 165.0 L 840.0 165.0" stroke="#FF0000" fill="none" stroke-width="4px" />
<path d="M 840.0 165.0 L 850.0 165.0" stroke="#FF0000" fill="none" stroke-width="4px" />
<path d="M 850.0 165.0 L 860.0 165.0" stroke="#FF0000" fill="none" stroke-width="4px" />
<path d="M 860.0 165.0 L 860.0 175.0" stroke="#FF0000" fill="none" stroke-width="4px" />
<path d="M 860.0 175.0 L 850.0 175.0" stroke="#FF0000" fill="none" stroke-width="4px" />
<path d="M 850.0 175.0 L 840.0 175.0" stroke="#FF0000" fill="none" stroke-width="4px" />
<path d="M 840.0 175.0 L 830.0 175.0" stroke="#FF0000" fill="none" stroke-width="4px" />
<path d="M 830.0 175.0 L 820.0 175.0" stroke="#FF0000" fill="none" stroke-width="4px" />
<path d="M 820.0 175.0 L 810.0 175.0" stroke="#FF0000" fill="none" stroke-width="4px" />
<path d="M 810.0 175.0 L 800.0 175.0" stroke="#FF0000" fill="none" stroke-width="4px" />
<path d="M 800.0 175.0 L 790.0 175.0" stroke="#FF0000" fill="none" stroke-width="4px" />
<path d="M 790.0 175.0 L 790.0 185.0" stroke="#FF0000" fill="none" stroke-width="4px" />
<path d="M 790.0 185.0 L 800.0 185.0" stroke="#FF0000" fill="none" stroke-width="4px" />
<path d="M 800.0 185.0 L 810.0 185.0" stroke="#FF0000" fill="none" stroke-width="4px" />
<path d="M 810.0 185.0 L 820.0 185.0" stroke="#FF0000" fill="none" stroke-width="4px" />
<path d="M 820.0 185.0 L 830.0 185.0" stroke="#FF0000" fill="none" stroke-width="4px" />
<path d="M 830.0 185.0 L 840.0 185.0" stroke="#FF0000" fill="none" stroke-width="4px" />
<path d="M 840.0 185.0 L 850.0 185.0" stroke="#FF0000" fill="none" stroke-width="4px" />
<path d="M 850.0 185.0 L 860.0 185.0" stroke="#FF0000" fill="none" stroke-width="4px" />
<path d="M 860.0 185.0 L 870.0 185.0" stroke="#FF0000" fill="none" stroke-width="4px" />
<path d="M 870.0 185.0 L 870.0 175.0" stroke="#FF0000" fill="none" stroke-width="4px" />
<path d="M 860.0 195.0 L 850.0 195.0" stroke="#FF0000" fill="none" stroke-width="4px" />
<path d="M 850.0 195.0 L 840.0 195.0" stroke="#FF0000" fill="none" stroke-width="4px" />
<path d="M 840.0 195.0 L 830.0 195.0" stroke="#FF0000" fill="none" stroke-width="4px" />
<path d="M 830.0 195.0 L 820.0 195.0" stroke="#FF0000" fill="none" stroke-width="4px" />
<path d="M 820.0 195.0 L 810.0 195.0" stroke="#FF0000" fill="none" stroke-width="4px" />
<path d="M 810.0 195.0 L 800.0 195.0" stroke="#FF0000" fill="none" stroke-width="4px" />
<path d="M 800.0 195.0 L 810.0 205.0" stroke="#FF0000" fill="none" stroke-width="4px" />
<path d="M 810.0 205.0 L 820.0 205.0" stroke="#FF0000" fill="none" stroke-width="4px" />
<path d="M 820.0 205.0 L 830.0 205.0" stroke="#FF0000" fill="none" stroke-width="4px" />
<path d="M 830.0 205.0 L 840.0 205.0" stroke="#FF0000" fill="none" stroke-width="4px" />
<path d="M 840.0 205.0 L 850.0 205.0" stroke="#FF0000" fill="none" stroke-width="4px" />
<path d="M 810.0 135.0 L 800.0 135.0" stroke="#FF0000" fill="none" stroke-width="4px" />
<path d="M 800.0 135.0 L 790.0 135.0" stroke="#FF0000" fill="none" stroke-width="4px" />
<path d="M 790.0 135.0 L 800.0 125.0" stroke="#FF0000" fill="none" stroke-width="4px" />
<path d="M 840.0 85.0 L 850.0 85.0" stroke="#FF0000" fill="none" stroke-width="4px" />
<path d="M 850.0 85.0 L 850.0 75.0" stroke="#FF0000" fill="none" stroke-width="4px" />
<path d="M 850.0 75.0 L 840.0 75.0" stroke="#FF0000" fill="none" stroke-width="4px" />
<path d="M 840.0 75.0 L 830.0 75.0" stroke="#FF0000" fill="none" stroke-width="4px" />
<path d="M 830.0 75.0 L 830.0 65.0" stroke="#FF0000" fill="none" stroke-width="4px" />
<path d="M 830.0 65.0 L 820.0 65.0" stroke="#FF0000" fill="none" stroke-width="4px" />
<path d="M 820.0 65.0 L 830.0 55.0" stroke="#FF0000" fill="none" stroke-width="4px" />
<path d="M 830.0 55.0 L 840.0 55.0" stroke="#FF0000" fill="none" stroke-width="4px" />
<path d="M 840.0 55.0 L 850.0 55.0" stroke="#FF0000" fill="none" stroke-width="4px" />
<path d="M 850.0 55.0 L 860.0 55.0" stroke="#FF0000" fill="none" stroke-width="4px" />
<path d="M 860.0 55.0 L 860.0 65.0" stroke="#FF0000" fill="none" stroke-width="4px" />
<path d="M 860.0 65.0 L 850.0 65.0" stroke="#FF0000" fill="none" stroke-width="4px" />
<path d="M 850.0 65.0 L 840.0 65.0" stroke="#FF0000" fill="none" stroke-width="4px" />
<path d="M 860.0 75.0 L 870.0 65.0" stroke="#FF0000" fill="none" stroke-width="4px" />
<path d="M 850.0 45.0 L 840.0 45.0" stroke="#FF0000" fill="none" stroke-width="4px" />
<path d="M 1520.0 95.0 L 1530.0 95.0" stroke="#FF0000" fill="none" stroke-width="4px" />
<path d="M 1530.0 95.0 L 1540.0 95.0" stroke="#FF0000" fill="none" stroke-width="4px" />
<path d="M 1540.0 95.0 L 1550.0 95.0" stroke="#FF0000" fill="none" stroke-width="4px" />
<path d="M 1550.0 95.0 L 1560.0 95.0" stroke="#FF0000" fill="none" stroke-width="4px" />
<path d="M 1560.0 95.0 L 1570.0 95.0" stroke="#FF0000" fill="none" stroke-width="4px" />
<path d="M 1570.0 95.0 L 1580.0 95.0" stroke="#FF0000" fill="none" stroke-width="4px" />
<path d="M 1580.0 95.0 L 1580.0 105.0" stroke="#FF0000" fill="none" stroke-width="4px" />
<path d="M 1580.0 105.0 L 1570.0 105.0" stroke="#FF0000" fill="none" stroke-width="4px" />
<path d="M 1570.0 105.0 L 1560.0 105.0" stroke="#FF0000" fill="none" stroke-width="4px" />
<path d="M 1560.0 105.0 L 1550.0 105.0" stroke="#FF0000" fill="none" stroke-width="4px" />
<path d="M 1550.0 105.0 L 1540.0 105.0" stroke="#FF0000" fill="none" stroke-width="4px" />
<path d="M 1540.0 105.0 L 1530.0 105.0" stroke="#FF0000" fill="none" stroke-width="4px" />
<path d="M 1530.0 105.0 L 1520.0 105.0" stroke="#FF0000" fill="none" stroke-width="4px" />
<path d="M 1520.0 105.0 L 1520.0 115.0" stroke="#FF0000" fill="none" stroke-width="4px" />
<path d="M 1520.0 115.0 L 1530.0 115.0" stroke="#FF0000" fill="none" stroke-width="4px" />
<path d="M 1530.0 115.0 L 1540.0 115.0" stroke="#FF0000" fill="none" stroke-width="4px" />
<path d="M 1540.0 115.0 L 1550.0 115.0" stroke="#FF0000" fill="none" stroke-width="4px" />
<path d="M 1550.0 115.0 L 1560.0 115.0" stroke="#FF0000" fill="none" stroke-width="4px" />
<path d="M 1560.0 115.0 L 1570.0 115.0" stroke="#FF0000" fill="none" stroke-width="4px" />
<path d="M 1570.0 115.0 L 1580.0 115.0" stroke="#FF0000" fill="none" stroke-width="4px" />
<path d="M 1580.0 115.0 L 1590.0 115.0" stroke="#FF0000" fill="none" stroke-width="4px" />
<path d="M 1590.0 115.0 L 1590.0 105.0" stroke="#FF0000" fill="none" stroke-width="4px" />
<path d="M 1580.0 125.0 L 1570.0 125.0" stroke="#FF0000" fill="none" stroke-width="4px" />
<path d="M 1570.0 125.0 L 1560.0 125.0" stroke="#FF0000" fill="none" stroke-width="4px" />
<path d="M 1560.0 125.0 L 1550.0 125.0" stroke="#FF0000" fill="none" stroke-width="4px" />
<path d="M 1550.0 125.0 L 1540.0 125.0" stroke="#FF0000" fill="none" stroke-width="4px" />
<path d="M 1540.0 125.0 L 1530.0 125.0" stroke="#FF0000" fill="none" stroke-width="4px" />
<path d="M 1530.0 125.0 L 1540.0 135.0" stroke="#FF0000" fill="none" stroke-width="4px" />
<path d="M 1540.0 135.0 L 1550.0 135.0" stroke="#FF0000" fill="none" stroke-width="4px" />
<path d="M 1550.0 135.0 L 1560.0 135.0" stroke="#FF0000" fill="none" stroke-width="4px" />
<path d="M 1560.0 135.0 L 1570.0 135.0" stroke="#FF0000" fill="none" stroke-width="4px" />
<path d="M 1570.0 135.0 L 1560.0 145.0" stroke="#FF0000" fill="none" stroke-width="4px" />
<path d="M 1560.0 85.0 L 1550.0 85.0" stroke="#FF0000" fill="none" stroke-width="4px" />
<path d="M 1550.0 85.0 L 1540.0 85.0" stroke="#FF0000" fill="none" stroke-width="4px" />
<path d="M 1540.0 85.0 L 1530.0 85.0" stroke="#FF0000" fill="none" stroke-width="4px" />
<path d="M 1530.0 85.0 L 1540.0 75.0" stroke="#FF0000" fill="none" stroke-width="4px" />
<path d="M 1650.0 55.0 L 1660.0 55.0" stroke="#FF0000" fill="none" stroke-width="4px" />
<path d="M 1660.0 55.0 L 1670.0 55.0" stroke="#FF0000" fill="none" stroke-width="4px" />
<path d="M 1670.0 55.0 L 1680.0 55.0" stroke="#FF0000" fill="none" stroke-width="4px" />
<path d="M 1680.0 55.0 L 1690.0 55.0" stroke="#FF0000" fill="none" stroke-width="4px" />
<path d="M 1690.0 55.0 L 1700.0 55.0" stroke="#FF0000" fill="none" stroke-width="4px" />
<path d="M 1700.0 55.0 L 1710.0 55.0" stroke="#FF0000" fill="none" stroke-width="4px" />
<path d="M 1710.0 55.0 L 1720.0 55.0" stroke="#FF0000" fill="none" stroke-width="4px" />
<path d="M 1720.0 55.0 L 1720.0 45.0" stroke="#FF0000" fill="none" stroke-width="4px" />
<path d="M 1720.0 45.0 L 1710.0 45.0" stroke="#FF0000" fill="none" stroke-width="4px" />
<path d="M 1710.0 45.0 L 1700.0 45.0" stroke="#FF0000" fill="none" stroke-width="4px" />
<path d="M 1700.0 45.0 L 1690.0 45.0" stroke="#FF0000" fill="none" stroke-width="4px" />
<path d="M 1690.0 45.0 L 1680.0 45.0" stroke="#FF0000" fill="none" stroke-width="4px" />
<path d="M 1680.0 45.0 L 1670.0 45.0" stroke="#FF0000" fill="none" stroke-width="4px" />
<path d="M 1670.0 45.0 L 1660.0 45.0" stroke="#FF0000" fill="none" stroke-width="4px" />
<path d="M 1660.0 45.0 L 1650.0 45.0" stroke="#FF0000" fill="none" stroke-width="4px" />
<path d="M 1650.0 45.0 L 1650.0 35.0" stroke="#FF0000" fill="none" stroke-width="4px" />
<path d="M 1650.0 35.0 L 1660.0 35.0" stroke="#FF0000" fill="none" stroke-width="4px" />
<path d="M 1660.0 35.0 L 1670.0 35.0" stroke="#FF0000" fill="none" stroke-width="4px" />
<path d="M 1670.0 35.0 L 1680.0 35.0" stroke="#FF0000" fill="none" stroke-width="4px" />
<path d="M 1680.0 35.0 L 1690.0 35.0" stroke="#FF0000" fill="none" stroke-width="4px" />
<path d="M 1690.0 35.0 L 1700.0 35.0" stroke="#FF0000" fill="none" stroke-width="4px" />
<path d="M 1700.0 35.0 L 1710.0 35.0" stroke="#FF0000" fill="none" stroke-width="4px" />
<path d="M 1710.0 35.0 L 1720.0 35.0" stroke="#FF0000" fill="none" stroke-width="4px" />
<path d="M 1720.0 35.0 L 1710.0 25.0" stroke="#FF0000" fill="none" stroke-width="4px" />
<path d="M 1710.0 25.0 L 1700.0 25.0" stroke="#FF0000" fill="none" stroke-width="4px" />
<path d="M 1700.0 25.0 L 1690.0 25.0" stroke="#FF0000" fill="none" stroke-width="4px" />
<path d="M 1690.0 25.0 L 1680.0 25.0" stroke="#FF0000" fill="none" stroke-width="4px" />
<path d="M 1680.0 25.0 L 1670.0 25.0" stroke="#FF0000" fill="none" stroke-width="4px" />
<path d="M 1670.0 25.0 L 1660.0 25.0" stroke="#FF0000" fill="none" stroke-width="4px" />
<path d="M 1660.0 25.0 L 1670.0 15.0" stroke="#FF0000" fill="none" stroke-width="4px" />
<path d="M 1670.0 15.0 L 1680.0 15.0" stroke="#FF0000" fill="none" stroke-width="4px" />
<path d="M 1680.0 15.0 L 1690.0 15.0" stroke="#FF0000" fill="none" stroke-width="4px" />
<path d="M 1690.0 15.0 L 1700.0 15.0" stroke="#FF0000" fill="none" stroke-width="4px" />
<path d="M 1700.0 65.0 L 1690.0 65.0" stroke="#FF0000" fill="none" stroke-width="4px" />
<path d="M 1690.0 65.0 L 1680.0 65.0" stroke="#FF0000" fill="none" stroke-width="4px" />
<path d="M 1680.0 65.0 L 1670.0 65.0" stroke="#FF0000" fill="none" stroke-width="4px" />
<path d="M 1670.0 65.0 L 1660.0 65.0" stroke="#FF0000" fill="none" stroke-width="4px" />
<path d="M 1660.0 65.0 L 1670.0 75.0" stroke="#FF0000" fill="none" stroke-width="4px" />
<path d="M 1670.0 75.0 L 1680.0 75.0" stroke="#FF0000" fill="none" stroke-width="4px" />
<path d="M 1680.0 75.0 L 1690.0 75.0" stroke="#FF0000" fill="none" stroke-width="4px" />
<path d="M 1690.0 75.0 L 1700.0 75.0" stroke="#FF0000" fill="none" stroke-width="4px" />
<path d="M 1700.0 75.0 L 1710.0 65.0" stroke="#FF0000" fill="none" stroke-width="4px" />
<path d="M 1880.0 25.0 L 1890.0 25.0" stroke="#FF0000" fill="none" stroke-width="4px" />
<path d="M 1890.0 25.0 L 1900.0 25.0" stroke="#FF0000" fill="none" stroke-width="4px" />
<path d="M 1900.0 25.0 L 1910.0 25.0" stroke="#FF0000" fill="none" stroke-width="4px" />
<path d="M 1910.0 25.0 L 1920.0 25.0" stroke="#FF0000" fill="none" stroke-width="4px" />
<path d="M 1920.0 25.0 L 1930.0 25.0" stroke="#FF0000" fill="none" stroke-width="4px" />
<path d="M 1930.0 25.0 L 1940.0 25.0" stroke="#FF0000" fill="none" stroke-width="4px" />
<path d="M 1940.0 25.0 L 1950.0 25.0" stroke="#FF0000" fill="none" stroke-width="4px" />
<path d="M 1950.0 25.0 L 1960.0 25.0" stroke="#FF0000" fill="none" stroke-width="4px" />
<path d="M 1960.0 25.0 L 1970.0 25.0" stroke="#FF0000" fill="none" stroke-width="4px" />
<path d="M 1970.0 25.0 L 1970.0 35.0" stroke="#FF0000" fill="none" stroke-width="4px" />
<path d="M 1970.0 35.0 L 1960.0 35.0" stroke="#FF0000" fill="none" stroke-width="4px" />
<path d="M 1960.0 35.0 L 1950.0 35.0" stroke="#FF0000" fill="none" stroke-width="4px" />
<path d="M 1950.0 35.0 L 1940.0 35.0" stroke="#FF0000" fill="none" stroke-width="4px" />
<path d="M 1940.0 35.0 L 1930.0 35.0" stroke="#FF0000" fill="none" stroke-width="4px" />
<path d="M 1930.0 35.0 L 1920.0 35.0" stroke="#FF0000" fill="none" stroke-width="4px" />
<path d="M 1920.0 35.0 L 1910.0 35.0" stroke="#FF0000" fill="none" stroke-width="4px" />
<path d="M 1910.0 35.0 L 1900.0 35.0" stroke="#FF0000" fill="none" stroke-width="4px" />
<path d="M 1900.0 35.0 L 1890.0 35.0" stroke="#FF0000" fill="none" stroke-width="4px" />
<path d="M 1890.0 35.0 L 1890.0 45.0" stroke="#FF0000" fill="none" stroke-width="4px" />
<path d="M 1890.0 45.0 L 1900.0 45.0" stroke="#FF0000" fill="none" stroke-width="4px" />
<path d="M 1900.0 45.0 L 1910.0 45.0" stroke="#FF0000" fill="none" stroke-width="4px" />
<path d="M 1910.0 45.0 L 1920.0 45.0" stroke="#FF0000" fill="none" stroke-width="4px" />
<path d="M 1920.0 45.0 L 1930.0 45.0" stroke="#FF0000" fill="none" stroke-width="4px" />
<path d="M 1930.0 45.0 L 1940.0 45.0" stroke="#FF0000" fill="none" stroke-width="4px" />
<path d="M 1940.0 45.0 L 1950.0 45.0" stroke="#FF0000" fill="none" stroke-width="4px" />
<path d="M 1950.0 45.0 L 1960.0 45.0" stroke="#FF0000" fill="none" stroke-width="4px" />
<path d="M 1960.0 45.0 L 1970.0 45.0" stroke="#FF0000" fill="none" stroke-width="4px" />
<path d="M 1970.0 45.0 L 1980.0 45.0" stroke="#FF0000" fill="none" stroke-width="4px" />
<path d="M 1980.0 45.0 L 1980.0 35.0" stroke="#FF0000" fill="none" stroke-width="4px" />
<path d="M 1970.0 55.0 L 1960.0 55.0" stroke="#FF0000" fill="none" stroke-width="4px" />
<path d="M 1960.0 55.0 L 1950.0 55.0" stroke="#FF0000" fill="none" stroke-width="4px" />
<path d="M 1950.0 55.0 L 1940.0 55.0" stroke="#FF0000" fill="none" stroke-width="4px" />
<path d="M 1940.0 55.0 L 1930.0 55.0" stroke="#FF0000" fill="none" stroke-width="4px" />
<path d="M 1930.0 55.0 L 1920.0 55.0" stroke="#FF0000" fill="none" stroke-width="4px" />
<path d="M 1920.0 55.0 L 1910.0 55.0" stroke="#FF0000" fill="none" stroke-width="4px" />
<path d="M 1910.0 55.0 L 1900.0 55.0" stroke="#FF0000" fill="none" stroke-width="4px" />
<path d="M 1950.0 65.0 L 1960.0 65.0" stroke="#FF0000" fill="none" stroke-width="4px" />
<path d="M 1960.0 15.0 L 1950.0 15.0" stroke="#FF0000" fill="none" stroke-width="4px" />
<path d="M 1950.0 15.0 L 1940.0 15.0" stroke="#FF0000" fill="none" stroke-width="4px" />
<path d="M 1940.0 15.0 L 1930.0 15.0" stroke="#FF0000" fill="none" stroke-width="4px" />
<path d="M 1930.0 15.0 L 1920.0 15.0" stroke="#FF0000" fill="none" stroke-width="4px" />
<path d="M 1920.0 15.0 L 1910.0 15.0" stroke="#FF0000" fill="none" stroke-width="4px" />
<path d="M 1910.0 15.0 L 1900.0 15.0" stroke="#FF0000" fill="none" stroke-width="4px" />
<path d="M 1900.0 15.0 L 1890.0 15.0" stroke="#FF0000" fill="none" stroke-width="4px" />
<path d="M 1890.0 15.0 L 1900.0 5.0" stroke="#FF0000" fill="none" stroke-width="4px" />
<path d="M 1900.0 5.0 L 1920.0 5.0" stroke="#FF0000" fill="none" stroke-width="4px" />
<path d="M 1920.0 5.0 L 1930.0 5.0" stroke="#FF0000" fill="none" stroke-width="4px" />
<path d="M 1930.0 5.0 L 1940.0 5.0" stroke="#FF0000" fill="none" stroke-width="4px" />
<path d="M 1940.0 5.0 L 1950.0 5.0" stroke="#FF0000" fill="none" stroke-width="4px" />
<path d="M 1950.0 5.0 L 1960.0 5.0" stroke="#FF0000" fill="none" stroke-width="4px" />
<path d="M 1960.0 5.0 L 1970.0 5.0" stroke="#FF0000" fill="none" stroke-width="4px" />
<path d="M 1970.0 5.0 L 1970.0 15.0" stroke="#FF0000" fill="none" stroke-width="4px" />
<path d="M 1960.0 -5.0 L 1950.0 -5.0" stroke="#FF0000" fill="none" stroke-width="4px" />
<path d="M 1950.0 -5.0 L 1940.0 -5.0" stroke="#FF0000" fill="none" stroke-width="4px" />
<path d="M 1940.0 -5.0 L 1930.0 -5.0" stroke="#FF0000" fill="none" stroke-width="4px" />
<path d="M 1930.0 -5.0 L 1920.0 -5.0" stroke="#FF0000" fill="none" stroke-width="4px" />
<path d="M 2430.0 145.0 L 2420.0 145.0" stroke="#FF0000" fill="none" stroke-width="4px" />
<path d="M 2420.0 145.0 L 2410.0 145.0" stroke="#FF0000" fill="none" stroke-width="4px" />
<path d="M 2410.0 145.0 L 2400.0 145.0" stroke="#FF0000" fill="none" stroke-width="4px" />
<path d="M 2400.0 145.0 L 2390.0 145.0" stroke="#FF0000" fill="none" stroke-width="4px" />
<path d="M 2390.0 145.0 L 2390.0 135.0" stroke="#FF0000" fill="none" stroke-width="4px" />
<path d="M 2390.0 135.0 L 2380.0 135.0" stroke="#FF0000" fill="none" stroke-width="4px" />
<path d="M 2380.0 135.0 L 2380.0 125.0" stroke="#FF0000" fill="none" stroke-width="4px" />
<path d="M 2380.0 125.0 L 2390.0 125.0" stroke="#FF0000" fill="none" stroke-width="4px" />
<path d="M 2390.0 125.0 L 2400.0 125.0" stroke="#FF0000" fill="none" stroke-width="4px" />
<path d="M 2400.0 125.0 L 2410.0 125.0" stroke="#FF0000" fill="none" stroke-width="4px" />
<path d="M 2410.0 125.0 L 2420.0 125.0" stroke="#FF0000" fill="none" stroke-width="4px" />
<path d="M 2420.0 125.0 L 2430.0 125.0" stroke="#FF0000" fill="none" stroke-width="4px" />
<path d="M 2430.0 125.0 L 2440.0 125.0" stroke="#FF0000" fill="none" stroke-width="4px" />
<path d="M 2440.0 125.0 L 2450.0 125.0" stroke="#FF0000" fill="none" stroke-width="4px" />
<path d="M 2450.0 125.0 L 2460.0 125.0" stroke="#FF0000" fill="none" stroke-width="4px" />
<path d="M 2460.0 125.0 L 2460.0 115.0" stroke="#FF0000" fill="none" stroke-width="4px" />
<path d="M 2460.0 115.0 L 2450.0 115.0" stroke="#FF0000" fill="none" stroke-width="4px" />
<path d="M 2450.0 115.0 L 2440.0 115.0" stroke="#FF0000" fill="none" stroke-width="4px" />
<path d="M 2440.0 115.0 L 2430.0 115.0" stroke="#FF0000" fill="none" stroke-width="4px" />
<path d="M 2430.0 115.0 L 2420.0 115.0" stroke="#FF0000" fill="none" stroke-width="4px" />
<path d="M 2420.0 115.0 L 2410.0 115.0" stroke="#FF0000" fill="none" stroke-width="4px" />
<path d="M 2410.0 115.0 L 2400.0 115.0" stroke="#FF0000" fill="none" stroke-width="4px" />
<path d="M 2400.0 115.0 L 2390.0 115.0" stroke="#FF0000" fill="none" stroke-width="4px" />
<path d="M 2390.0 115.0 L 2380.0 115.0" stroke="#FF0000" fill="none" stroke-width="4px" />
<path d="M 2380.0 115.0 L 2380.0 105.0" stroke="#FF0000" fill="none" stroke-width="4px" />
<path d="M 2380.0 105.0 L 2390.0 105.0" stroke="#FF0000" fill="none" stroke-width="4px" />
<path d="M 2390.0 105.0 L 2400.0 105.0" stroke="#FF0000" fill="none" stroke-width="4px" />
<path d="M 2400.0 105.0 L 2410.0 105.0" stroke="#FF0000" fill="none" stroke-width="4px" />
<path d="M 2410.0 105.0 L 2420.0 105.0" stroke="#FF0000" fill="none" stroke-width="4px" />
<path d="M 2420.0 105.0 L 2430.0 105.0" stroke="#FF0000" fill="none" stroke-width="4px" />
<path d="M 2430.0 105.0 L 2440.0 105.0" stroke="#FF0000" fill="none" stroke-width="4px" />
<path d="M 2440.0 105.0 L 2450.0 105.0" stroke="#FF0000" fill="none" stroke-width="4px" />
<path d="M 2450.0 105.0 L 2460.0 105.0" stroke="#FF0000" fill="none" stroke-width="4px" />
<path d="M 2460.0 105.0 L 2460.0 95.0" stroke="#FF0000" fill="none" stroke-width="4px" />
<path d="M 2460.0 95.0 L 2450.0 95.0" stroke="#FF0000" fill="none" stroke-width="4px" />
<path d="M 2450.0 95.0 L 2440.0 95.0" stroke="#FF0000" fill="none" stroke-width="4px" />
<path d="M 2440.0 95.0 L 2430.0 95.0" stroke="#FF0000" fill="none" stroke-width="4px" />
<path d="M 2430.0 95.0 L 2420.0 95.0" stroke="#FF0000" fill="none" stroke-width="4px" />
<path d="M 2420.0 95.0 L 2410.0 95.0" stroke="#FF0000" fill="none" stroke-width="4px" />
<path d="M 2410.0 95.0 L 2400.0 95.0" stroke="#FF0000" fill="none" stroke-width="4px" />
<path d="M 2400.0 95.0 L 2390.0 95.0" stroke="#FF0000" fill="none" stroke-width="4px" />
<path d="M 2390.0 95.0 L 2390.0 85.0" stroke="#FF0000" fill="none" stroke-width="4px" />
<path d="M 2390.0 85.0 L 2400.0 85.0" stroke="#FF0000" fill="none" stroke-width="4px" />
<path d="M 2400.0 85.0 L 2410.0 85.0" stroke="#FF0000" fill="none" stroke-width="4px" />
<path d="M 2410.0 85.0 L 2420.0 85.0" stroke="#FF0000" fill="none" stroke-width="4px" />
<path d="M 2420.0 85.0 L 2430.0 85.0" stroke="#FF0000" fill="none" stroke-width="4px" />
<path d="M 2430.0 85.0 L 2440.0 85.0" stroke="#FF0000" fill="none" stroke-width="4px" />
<path d="M 2440.0 85.0 L 2450.0 85.0" stroke="#FF0000" fill="none" stroke-width="4px" />
<path d="M 2430.0 75.0 L 2420.0 75.0" stroke="#FF0000" fill="none" stroke-width="4px" />
<path d="M 2420.0 75.0 L 2410.0 75.0" stroke="#FF0000" fill="none" stroke-width="4px" />
<path d="M 2410.0 75.0 L 2400.0 75.0" stroke="#FF0000" fill="none" stroke-width="4px" />
<path d="M 2400.0 135.0 L 2410.0 135.0" stroke="#FF0000" fill="none" stroke-width="4px" />
<path d="M 2410.0 135.0 L 2420.0 135.0" stroke="#FF0000" fill="none" stroke-width="4px" />
<path d="M 2420.0 135.0 L 2430.0 135.0" stroke="#FF0000" fill="none" stroke-width="4px" />
<path d="M 2430.0 135.0 L 2440.0 135.0" stroke="#FF0000" fill="none" stroke-width="4px" />
<path d="M 2440.0 135.0 L 2450.0 135.0" stroke="#FF0000" fill="none" stroke-width="4px" />
</svg>