<svg width="2894.54166667" height="235.0" xmlns="http://www.w3.org/2000/svg" version="1.1">
<path d="M 0.0 235.0 L 1985.0 235.0 L 1985.0 0.0 L 0.0 0.0 L 0.0 235.0" stroke="#000000" fill="none" stroke-width="3px" />
<path d="M 2894.54166667 235.0 L 1885.0 235.0 L 1885.0 0.0 L 2894.54166667 0.0 L 2894.54166667 235.0" stroke="#000000" fill="none" stroke-width="3px" />
<path d="M 10.0 257.5 L 0.0 247.5 L 10.0 237.5" stroke="#969696" fill="none" stroke-width="1px" />
<path d="M 10.0 237.5 L 1975.0 237.5" stroke="#969696" fill="none" stroke-width="1px" />
<path d="M 1975.0 237.5 L 1985.0 227.5 L 1975.0 217.5" stroke="#969696" fill="none" stroke-width="1px" />
<path d="M 1975.0 217.5 L 10.0 217.5" stroke="#969696" fill="none" stroke-width="1px" />
<path d="M 10.0 217.5 L 0.0 207.5 L 10.0 197.5" stroke="#969696" fill="none" stroke-width="1px" />
<path d="M 10.0 197.5 L 1975.0 197.5" stroke="#969696" fill="none" stroke-width="1px" />
<path d="M 1975.0 197.5 L 1985.0 187.5 L 1975.0 177.5" stroke="#969696" fill="none" stroke-width="1px" />
<path d="M 1975.0 177.5 L 10.0 177.5" stroke="#969696" fill="none" stroke-width="1px" />
<path d="M 10.0 177.5 L 0.0 167.5 L 10.0 157.5" stroke="#969696" fill="none" stroke-width="1px" />
<path d="M 10.0 157.5 L 1975.0 157.5" stroke="#969696" fill="none" stroke-width="1px" />
<path d="M 1975.0 157.5 L 1985.0 147.5 L 1975.0 137.5" stroke="#969696" fill="none" stroke-width="1px" />
<path d="M 1975.0 137.5 L 10.0 137.5" stroke="#969696" fill="none" stroke-width="1px" />
<path d="M 10.0 137.5 L 0.0 127.5 L 10.0 117.5" stroke="#969696" fill="none" stroke-width="1px" />
<path d="M 10.0 117.5 L 1975.0 117.5" stroke="#969696" fill="none" stroke-width="1px" />
<path d="M 1975.0 117.5 L 1985.0 107.5 L 1975.0 97.5" stroke="#969696" fill="none" stroke-width="1px" />
<path d="M 1975.0 97.5 L 10.0 97.5" stroke="#969696" fill="none" stroke-width="1px" />
<path d="M 10.0 97.5 L 0.0 87.5 L 10.0 77.5" stroke="#969696" fill="none" stroke-width="1px" />
<path d="M 10.0 77.5 L 1975.0 77.5" stroke="#969696" fill="none" stroke-width="1px" />
<path d="M 1975.0 77.5 L 1985.0 67.5 L 1975.0 57.5" stroke="#969696" fill="none" stroke-width="1px" />
<path d="M 1975.0 57.5 L 10.0 57.5" stroke="#969696" fill="none" stroke-width="1px" />
<path d="M 10.0 57.5 L 0.0 47.5 L 10.0 37.5" stroke="#969696" fill="none" stroke-width="1px" />
<path d="M 10.0 37.5 L 1975.0 37.5" stroke="#969696" fill="none" stroke-width="1px" />
<path d="M 1975.0 37.5 L 1985.0 27.5 L 1975.0 17.5" stroke="#969696" fill="none" stroke-width="1px" />
<path d="M 1975.0 17.5 L 10.0 17.5" stroke="#969696" fill="none" stroke-width="1px" />
<path d="M 10.0 17.5 L 0.0 7.5 L 10.0 -2.5" stroke="#969696" fill="none" stroke-width="1px" />
<path d="M 10.0 -2.5 L 1975.0 -2.5" stroke="#969696" fill="none" stroke-width="1px" />
<path d="M 1975.0 -2.5 L 1985.0 -12.5 L 1975.0 -22.5" stroke="#969696" fill="none" stroke-width="1px" />
<path d="M 2884.54166667 257.5 L 2894.54166667 247.5 L 2884.54166667 237.5" stroke="#969696" fill="none" stroke-width="1px" />
<path d="M 2884.54166667 237.5 L 1895.0 237.5" stroke="#969696" fill="none" stroke-width="1px" />
<path d="M 1895.0 237.5 L 1885.0 227.5 L 1895.0 217.5" stroke="#969696" fill="none" stroke-width="1px" />
<path d="M 1895.0 217.5 L 2884.54166667 217.5" stroke="#969696" fill="none" stroke-width="1px" />
<path d="M 2884.54166667 217.5 L 2894.54166667 207.5 L 2884.54166667 197.5" stroke="#969696" fill="none" stroke-width="1px" />
<path d="M 2884.54166667 197.5 L 1895.0 197.5" stroke="#969696" fill="none" stroke-width="1px" />
<path d="M 1895.0 197.5 L 1885.0 187.5 L 1895.0 177.5" stroke="#969696" fill="none" stroke-width="1px" />
<path d="M 1895.0 177.5 L 2884.54166667 177.5" stroke="#969696" fill="none" stroke-width="1px" />
<path d="M 2884.54166667 177.5 L 2894.54166667 167.5 L 2884.54166667 157.5" stroke="#969696" fill="none" stroke-width="1px" />
<path d="M 2884.54166667 157.5 L 1895.0 157.5" stroke="#969696" fill="none" stroke-width="1px" />
<path d="M 1895.0 157.5 L 1885.0 147.5 L 1895.0 137.5" stroke="#969696" fill="none" stroke-width="1px" />
<path d="M 1895.0 137.5 L 2884.54166667 137.5" stroke="#969696" fill="none" stroke-width="1px" />
<path d="M 2884.54166667 137.5 L 2894.54166667 127.5 L 2884.54166667 117.5" stroke="#969696" fill="none" stroke-width="1px" />
<path d="M 2884.54166667 117.5 L 1895.0 117.5" stroke="#969696" fill="none" stroke-width="1px" />
<path d="M 1895.0 117.5 L 1885.0 107.5 L 1895.0 97.5" stroke="#969696" fill="none" stroke-width="1px" />
<path d="M 1895.0 97.5 L 2884.54166667 97.5" stroke="#969696" fill="none" stroke-width="1px" />
<path d="M 2884.54166667 97.5 L 2894.54166667 87.5 L 2884.54166667 77.5" stroke="#969696" fill="none" stroke-width="1px" />
<path d="M 2884.54166667 77.5 L 1895.0 77.5" stroke="#969696" fill="none" stroke-width="1px" />
<path d="M 1895.0 77.5 L 1885.0 67.5 L 1895.0 57.5" stroke="#969696" fill="none" stroke-width="1px" />
<path d="M 1895.0 57.5 L 2884.54166667 57.5" stroke="#969696" fill="none" stroke-width="1px" />
<path d="M 2884.54166667 57.5 L 2894.54166667 47.5 L 2884.54166667 37.5" stroke="#969696" fill="none" stroke-width="1px" />
<path d="M 2884.54166667 37.5 L 1895.0 37.5" stroke="#969696" fill="none" stroke-width="1px" />
<path d="M 1895.0 37.5 L 1885.0 27.5 L 1895.0 17.5" stroke="#969696" fill="none" stroke-width="1px" />
<path d="M 1895.0 17.5 L 2884.54166667 17.5" stroke="#969696" fill="none" stroke-width="1px" />
<path d="M 2884.54166667 17.5 L 2894.54166667 7.5 L 2884.54166667 -2.5" stroke="#969696" fill="none" stroke-width="1px" />
<path d="M 2884.54166667 -2.5 L 1895.0 -2.5" stroke="#969696" fill="none" stroke-width="1px" />
<path d="M 1895.0 -2.5 L 1885.0 -12.5 L 1895.0 -22.5" stroke="#969696" fill="none" stroke-width="1px" />
<path d="M 0.0 235.0 L 100.0 125.0" stroke="#0095FF" fill="none" stroke-width="2px" />
<path d="M 100.0 105.0 L 120.0 115.0" stroke="#0095FF" fill="none" stroke-width="2px" />
<path d="M 120.0 115.0 L 120.0 85.0" stroke="#0095FF" fill="none" stroke-width="2px" />
<path d="M 110.0 75.0 L 90.0 55.0" stroke="#0095FF" fill="none" stroke-width="2px" />
<path d="M 90.0 55.0 L 320.0 145.0" stroke="#0095FF" fill="none" stroke-width="2px" />
<path d="M 340.0 215.0 L 370.0 195.0" stroke="#0095FF" fill="none" stroke-width="2px" />
<path d="M 370.0 195.0 L 360.0 155.0" stroke="#0095FF" fill="none" stroke-width="2px" />
<path d="M 360.0 155.0 L 340.0 135.0" stroke="#0095FF" fill="none" stroke-width="2px" />
<path d="M 330.0 135.0 L 690.0 105.0" stroke="#0095FF" fill="none" stroke-width="2px" />
<path d="M 710.0 125.0 L 710.0 95.0" stroke="#0095FF" fill="none" stroke-width="2px" />
<path d="M 720.0 95.0 L 720.0 75.0" stroke="#0095FF" fill="none" stroke-width="2px" />
<path d="M 710.0 75.0 L 1040.0 75.0" stroke="#0095FF" fill="none" stroke-width="2px" />
<path d="M 1080.0 115.0 L 1060.0 135.0" stroke="#0095FF" fill="none" stroke-width="2px" />
<path d="M 1080.0 155.0 L 1060.0 175.0" stroke="#0095FF" fill="none" stroke-width="2px" />
<path d="M 1060.0 175.0 L 1150.0 105.0" stroke="#0095FF" fill="none" stroke-width="2px" />
<path d="M 1160.0 95.0 L 1190.0 115.0" stroke="#0095FF" fill="none" stroke-width="2px" />
<path d="M 1230.0 125.0 L 1210.0 105.0" stroke="#0095FF" fill="none" stroke-width="2px" />
<path d="M 1200.0 105.0 L 1160.0 65.0" stroke="#0095FF" fill="none" stroke-width="2px" />
<path d="M 1150.0 55.0 L 1080.0 65.0" stroke="#0095FF" fill="none" stroke-width="2px" />
<path d="M 1060.0 55.0 L 1380.0 145.0" stroke="#0095FF" fill="none" stroke-width="2px" />
<path d="M 1390.0 165.0 L 1390.0 185.0" stroke="#0095FF" fill="none" stroke-width="2px" />
<path d="M 1400.0 185.0 L 1420.0 165.0" stroke="#0095FF" fill="none" stroke-width="2px" />
<path d="M 1420.0 155.0 L 1400.0 135.0" stroke="#0095FF" fill="none" stroke-width="2px" />
<path d="M 1390.0 135.0 L 1470.0 135.0" stroke="#0095FF" fill="none" stroke-width="2px" />
<path d="M 1530.0 145.0 L 1520.0 165.0" stroke="#0095FF" fill="none" stroke-width="2px" />
<path d="M 1510.0 175.0 L 1510.0 125.0" stroke="#0095FF" fill="none" stroke-width="2px" />
<path d="M 1490.0 115.0 L 1740.0 135.0" stroke="#0095FF" fill="none" stroke-width="2px" />
<path d="M 1760.0 165.0 L 1760.0 125.0" stroke="#0095FF" fill="none" stroke-width="2px" />
<path d="M 2894.54166667 235.0 L 2740.0 165.0" stroke="#0095FF" fill="none" stroke-width="2px" />
<path d="M 2740.0 155.0 L 2720.0 145.0" stroke="#0095FF" fill="none" stroke-width="2px" />
<path d="M 2700.0 145.0 L 2700.0 175.0" stroke="#0095FF" fill="none" stroke-width="2px" />
<path d="M 2710.0 185.0 L 2630.0 145.0" stroke="#0095FF" fill="none" stroke-width="2px" />
<path d="M 2640.0 135.0 L 2640.0 105.0" stroke="#0095FF" fill="none" stroke-width="2px" />
<path d="M 2630.0 95.0 L 2880.0 95.0" stroke="#0095FF" fill="none" stroke-width="2px" />
<path d="M 2890.0 105.0 L 2890.0 85.0" stroke="#0095FF" fill="none" stroke-width="2px" />
<path d="M 2890.0 75.0 L 2220.0 75.0" stroke="#0095FF" fill="none" stroke-width="2px" />
<path d="M 2180.0 65.0 L 2180.0 85.0" stroke="#0095FF" fill="none" stroke-width="2px" />
<path d="M 2200.0 105.0 L 2200.0 45.0" stroke="#0095FF" fill="none" stroke-width="2px" />
<path d="M 2210.0 45.0 L 2180.0 25.0" stroke="#0095FF" fill="none" stroke-width="2px" />
<path d="M 2180.0 25.0 L 2130.0 185.0" stroke="#0095FF" fill="none" stroke-width="2px" />
<path d="M 2120.0 195.0 L 2110.0 215.0" stroke="#0095FF" fill="none" stroke-width="2px" />
<path d="M 100.0 125.0 L 110.0 125.0" stroke="#FF0000" fill="none" stroke-width="4px" />
<path d="M 110.0 125.0 L 110.0 115.0" stroke="#FF0000" fill="none" stroke-width="4px" />
<path d="M 110.0 115.0 L 100.0 115.0" stroke="#FF0000" fill="none" stroke-width="4px" />
<path d="M 100.0 115.0 L 90.0 115.0" stroke="#FF0000" fill="none" stroke-width="4px" />
<path d="M 90.0 115.0 L 90.0 105.0" stroke="#FF0000" fill="none" stroke-width="4px" />
<path d="M 90.0 105.0 L 80.0 105.0" stroke="#FF0000" fill="none" stroke-width="4px" />
<path d="M 80.0 105.0 L 80.0 95.0" stroke="#FF0000" fill="none" stroke-width="4px" />
<path d="M 80.0 95.0 L 90.0 95.0" stroke="#FF0000" fill="none" stroke-width="4px" />
<path d="M 90.0 95.0 L 100.0 95.0" stroke="#FF0000" fill="none" stroke-width="4px" />
<path d="M 100.0 95.0 L 110.0 95.0" stroke="#FF0000" fill="none" stroke-width="4px" />
<path d="M 110.0 95.0 L 120.0 95.0" stroke="#FF0000" fill="none" stroke-width="4px" />
<path d="M 120.0 95.0 L 120.0 105.0" stroke="#FF0000" fill="none" stroke-width="4px" />
<path d="M 120.0 105.0 L 110.0 105.0" stroke="#FF0000" fill="none" stroke-width="4px" />
<path d="M 110.0 105.0 L 100.0 105.0" stroke="#FF0000" fill="none" stroke-width="4px" />
<path d="M 120.0 85.0 L 110.0 85.0" stroke="#FF0000" fill="none" stroke-width="4px" />
<path d="M 110.0 85.0 L 100.0 85.0" stroke="#FF0000" fill="none" stroke-width="4px" />
<path d="M 100.0 85.0 L 90.0 85.0" stroke="#FF0000" fill="none" stroke-width="4px" />
<path d="M 90.0 85.0 L 80.0 85.0" stroke="#FF0000" fill="none" stroke-width="4px" />
<path d="M 80.0 85.0 L 80.0 75.0" stroke="#FF0000" fill="none" stroke-width="4px" />
<path d="M 80.0 75.0 L 70.0 75.0" stroke="#FF0000" fill="none" stroke-width="4px" />
<path d="M 70.0 75.0 L 80.0 65.0" stroke="#FF0000" fill="none" stroke-width="4px" />
<path d="M 80.0 65.0 L 90.0 65.0" stroke="#FF0000" fill="none" stroke-width="4px" />
<path d="M 90.0 65.0 L 100.0 65.0" stroke="#FF0000" fill="none" stroke-width="4px" />
<path d="M 100.0 65.0 L 100.0 75.0" stroke="#FF0000" fill="none" stroke-width="4px" />
<path d="M 100.0 75.0 L 90.0 75.0" stroke="#FF0000" fill="none" stroke-width="4px" />
<path d="M 90.0 75.0 L 110.0 75.0" stroke="#FF0000" fill="none" stroke-width="4px" />
<path d="M 320.0 145.0 L 330.0 145.0" stroke="#FF0000" fill="none" stroke-width="4px" />
<path d="M 330.0 145.0 L 340.0 145.0" stroke="#FF0000" fill="none" stroke-width="4px" />
<path d="M 340.0 145.0 L 350.0 145.0" stroke="#FF0000" fill="none" stroke-width="4px" />
<path d="M 350.0 145.0 L 350.0 155.0" stroke="#FF0000" fill="none" stroke-width="4px" />
<path d="M 350.0 155.0 L 340.0 155.0" stroke="#FF0000" fill="none" stroke-width="4px" />
<path d="M 340.0 155.0 L 330.0 155.0" stroke="#FF0000" fill="none" stroke-width="4px" />
<path d="M 330.0 155.0 L 320.0 155.0" stroke="#FF0000" fill="none" stroke-width="4px" />
<path d="M 320.0 155.0 L 320.0 165.0" stroke="#FF0000" fill="none" stroke-width="4px" />
<path d="M 320.0 165.0 L 330.0 165.0" stroke="#FF0000" fill="none" stroke-width="4px" />
<path d="M 330.0 165.0 L 340.0 165.0" stroke="#FF0000" fill="none" stroke-width="4px" />
<path d="M 340.0 165.0 L 350.0 165.0" stroke="#FF0000" fill="none" stroke-width="4px" />
<path d="M 350.0 165.0 L 350.0 175.0" stroke="#FF0000" fill="none" stroke-width="4px" />
<path d="M 350.0 175.0 L 340.0 175.0" stroke="#FF0000" fill="none" stroke-width="4px" />
<path d="M 340.0 175.0 L 330.0 175.0" stroke="#FF0000" fill="none" stroke-width="4px" />
<path d="M 330.0 175.0 L 330.0 185.0" stroke="#FF0000" fill="none" stroke-width="4px" />
<path d="M 330.0 185.0 L 340.0 185.0" stroke="#FF0000" fill="none" stroke-width="4px" />
<path d="M 340.0 185.0 L 350.0 185.0" stroke="#FF0000" fill="none" stroke-width="4px" />
<path d="M 350.0 185.0 L 360.0 185.0" stroke="#FF0000" fill="none" stroke-width="4px" />
<path d="M 360.0 185.0 L 360.0 195.0" stroke="#FF0000" fill="none" stroke-width="4px" />
<path d="M 360.0 195.0 L 350.0 195.0" stroke="#FF0000" fill="none" stroke-width="4px" />
<path d="M 350.0 195.0 L 340.0 195.0" stroke="#FF0000" fill="none" stroke-width="4px" />
<path d="M 340.0 195.0 L 330.0 195.0" stroke="#FF0000" fill="none" stroke-width="4px" />
<path d="M 330.0 195.0 L 320.0 195.0" stroke="#FF0000" fill="none" stroke-width="4px" />
<path d="M 320.0 195.0 L 330.0 205.0" stroke="#FF0000" fill="none" stroke-width="4px" />
<path d="M 330.0 205.0 L 340.0 205.0" stroke="#FF0000" fill="none" stroke-width="4px" />
<path d="M 340.0 205.0 L 350.0 205.0" stroke="#FF0000" fill="none" stroke-width="4px" />
<path d="M 350.0 205.0 L 360.0 205.0" stroke="#FF0000" fill="none" stroke-width="4px" />
<path d="M 360.0 205.0 L 350.0 215.0" stroke="#FF0000" fill="none" stroke-width="4px" />
<path d="M 350.0 215.0 L 340.0 215.0" stroke="#FF0000" fill="none" stroke-width="4px" />
<path d="M 340.0 135.0 L 330.0 135.0" stroke="#FF0000" fill="none" stroke-width="4px" />
<path d="M 690.0 105.0 L 700.0 105.0" stroke="#FF0000" fill="none" stroke-width="4px" />
<path d="M 700.0 105.0 L 710.0 105.0" stroke="#FF0000" fill="none" stroke-width="4px" />
<path d="M 710.0 105.0 L 720.0 105.0" stroke="#FF0000" fill="none" stroke-width="4px" />
<path d="M 720.0 105.0 L 730.0 105.0" stroke="#FF0000" fill="none" stroke-width="4px" />
<path d="M 730.0 105.0 L 730.0 115.0" stroke="#FF0000" fill="none" stroke-width="4px" />
<path d="M 730.0 115.0 L 720.0 115.0" stroke="#FF0000" fill="none" stroke-width="4px" />
<path d="M 720.0 115.0 L 710.0 115.0" stroke="#FF0000" fill="none" stroke-width="4px" />
<path d="M 710.0 115.0 L 700.0 115.0" stroke="#FF0000" fill="none" stroke-width="4px" />
<path d="M 700.0 115.0 L 710.0 125.0" stroke="#FF0000" fill="none" stroke-width="4px" />
<path d="M 710.0 95.0 L 700.0 95.0" stroke="#FF0000" fill="none" stroke-width="4px" />
<path d="M 700.0 95.0 L 690.0 95.0" stroke="#FF0000" fill="none" stroke-width="4px" />
<path d="M 690.0 95.0 L 700.0 85.0" stroke="#FF0000" fill="none" stroke-width="4px" />
<path d="M 700.0 85.0 L 710.0 85.0" stroke="#FF0000" fill="none" stroke-width="4px" />
<path d="M 710.0 85.0 L 720.0 85.0" stroke="#FF0000" fill="none" stroke-width="4px" />
<path d="M 720.0 85.0 L 730.0 85.0" stroke="#FF0000" fill="none" stroke-width="4px" />
<path d="M 730.0 85.0 L 730.0 95.0" stroke="#FF0000" fill="none" stroke-width="4px" />
<path d="M 730.0 95.0 L 720.0 95.0" stroke="#FF0000" fill="none" stroke-width="4px" />
<path d="M 720.0 75.0 L 710.0 75.0" stroke="#FF0000" fill="none" stroke-width="4px" />
<path d="M 1040.0 75.0 L 1050.0 75.0" stroke="#FF0000" fill="none" stroke-width="4px" />
<path d="M 1050.0 75.0 L 1060.0 75.0" stroke="#FF0000" fill="none" stroke-width="4px" />
<path d="M 1060.0 75.0 L 1070.0 75.0" stroke="#FF0000" fill="none" stroke-width="4px" />
<path d="M 1070.0 75.0 L 1080.0 75.0" stroke="#FF0000" fill="none" stroke-width="4px" />
<path d="M 1080.0 75.0 L 1090.0 75.0" stroke="#FF0000" fill="none" stroke-width="4px" />
<path d="M 1090.0 75.0 L 1090.0 85.0" stroke="#FF0000" fill="none" stroke-width="4px" />
<path d="M 1090.0 85.0 L 1080.0 85.0" stroke="#FF0000" fill="none" stroke-width="4px" />
<path d="M 1080.0 85.0 L 1070.0 85.0" stroke="#FF0000" fill="none" stroke-width="4px" />
<path d="M 1070.0 85.0 L 1060.0 85.0" stroke="#FF0000" fill="none" stroke-width="4px" />
<path d="M 1060.0 85.0 L 1050.0 85.0" stroke="#FF0000" fill="none" stroke-width="4px" />
<path d="M 1050.0 85.0 L 1040.0 85.0" stroke="#FF0000" fill="none" stroke-width="4px" />
<path d="M 1040.0 85.0 L 1050.0 95.0" stroke="#FF0000" fill="none" stroke-width="4px" />
<path d="M 1050.0 95.0 L 1060.0 95.0" stroke="#FF0000" fill="none" stroke-width="4px" />
<path d="M 1060.0 95.0 L 1070.0 95.0" stroke="#FF0000" fill="none" stroke-width="4px" />
<path d="M 1070.0 95.0 L 1080.0 95.0" stroke="#FF0000" fill="none" stroke-width="4px" />
<path d="M 1080.0 95.0 L 1090.0 95.0" stroke="#FF0000" fill="none" stroke-width="4px" />
<path d="M 1090.0 95.0 L 1090.0 105.0" stroke="#FF0000" fill="none" stroke-width="4px" />
<path d="M 1090.0 105.0 L 1080.0 105.0" stroke="#FF0000" fill="none" stroke-width="4px" />
<path d="M 1080.0 105.0 L 1070.0 105.0" stroke="#FF0000" fill="none" stroke-width="4px" />
<path d="M 1070.0 105.0 L 1060.0 105.0" stroke="#FF0000" fill="none" stroke-width="4px" />
<path d="M 1060.0 105.0 L 1070.0 115.0" stroke="#FF0000" fill="none" stroke-width="4px" />
<path d="M 1070.0 115.0 L 1080.0 115.0" stroke="#FF0000" fill="none" stroke-width="4px" />
<path d="M 1060.0 135.0 L 1060.0 145.0" stroke="#FF0000" fill="none" stroke-width="4px" />
<path d="M 1060.0 145.0 L 1050.0 145.0" stroke="#FF0000" fill="none" stroke-width="4px" />
<path d="M 1050.0 145.0 L 1050.0 155.0" stroke="#FF0000" fill="none" stroke-width="4px" />
<path d="M 1050.0 155.0 L 1040.0 155.0" stroke="#FF0000" fill="none" stroke-width="4px" />
<path d="M 1040.0 155.0 L 1050.0 165.0" stroke="#FF0000" fill="none" stroke-width="4px" />
<path d="M 1050.0 165.0 L 1060.0 165.0" stroke="#FF0000" fill="none" stroke-width="4px" />
<path d="M 1060.0 165.0 L 1070.0 165.0" stroke="#FF0000" fill="none" stroke-width="4px" />
<path d="M 1070.0 165.0 L 1070.0 155.0" stroke="#FF0000" fill="none" stroke-width="4px" />
<path d="M 1070.0 155.0 L 1060.0 155.0" stroke="#FF0000" fill="none" stroke-width="4px" />
<path d="M 1060.0 155.0 L 1070.0 145.0" stroke="#FF0000" fill="none" stroke-width="4px" />
<path d="M 1070.0 145.0 L 1080.0 155.0" stroke="#FF0000" fill="none" stroke-width="4px" />
<path d="M 1150.0 105.0 L 1150.0 95.0" stroke="#FF0000" fill="none" stroke-width="4px" />
<path d="M 1150.0 95.0 L 1140.0 95.0" stroke="#FF0000" fill="none" stroke-width="4px" />
<path d="M 1140.0 95.0 L 1140.0 85.0" stroke="#FF0000" fill="none" stroke-width="4px" />
<path d="M 1140.0 85.0 L 1130.0 85.0" stroke="#FF0000" fill="none" stroke-width="4px" />
<path d="M 1130.0 85.0 L 1130.0 75.0" stroke="#FF0000" fill="none" stroke-width="4px" />
<path d="M 1130.0 75.0 L 1140.0 75.0" stroke="#FF0000" fill="none" stroke-width="4px" />
<path d="M 1140.0 75.0 L 1150.0 75.0" stroke="#FF0000" fill="none" stroke-width="4px" />
<path d="M 1150.0 75.0 L 1160.0 75.0" stroke="#FF0000" fill="none" stroke-width="4px" />
<path d="M 1160.0 75.0 L 1170.0 75.0" stroke="#FF0000" fill="none" stroke-width="4px" />
<path d="M 1170.0 75.0 L 1170.0 85.0" stroke="#FF0000" fill="none" stroke-width="4px" />
<path d="M 1170.0 85.0 L 1160.0 85.0" stroke="#FF0000" fill="none" stroke-width="4px" />
<path d="M 1160.0 85.0 L 1150.0 85.0" stroke="#FF0000" fill="none" stroke-width="4px" />
<path d="M 1150.0 85.0 L 1160.0 95.0" stroke="#FF0000" fill="none" stroke-width="4px" />
<path d="M 1190.0 115.0 L 1200.0 115.0" stroke="#FF0000" fill="none" stroke-width="4px" />
<path d="M 1200.0 115.0 L 1210.0 115.0" stroke="#FF0000" fill="none" stroke-width="4px" />
<path d="M 1210.0 115.0 L 1220.0 115.0" stroke="#FF0000" fill="none" stroke-width="4px" />
<path d="M 1220.0 115.0 L 1220.0 125.0" stroke="#FF0000" fill="none" stroke-width="4px" />
<path d="M 1220.0 125.0 L 1210.0 125.0" stroke="#FF0000" fill="none" stroke-width="4px" />
<path d="M 1210.0 125.0 L 1200.0 125.0" stroke="#FF0000" fill="none" stroke-width="4px" />
<path d="M 1200.0 125.0 L 1190.0 125.0" stroke="#FF0000" fill="none" stroke-width="4px" />
<path d="M 1190.0 125.0 L 1200.0 135.0" stroke="#FF0000" fill="none" stroke-width="4px" />
<path d="M 1200.0 135.0 L 1210.0 135.0" stroke="#FF0000" fill="none" stroke-width="4px" />
<path d="M 1210.0 135.0 L 1220.0 135.0" stroke="#FF0000" fill="none" stroke-width="4px" />
<path d="M 1220.0 135.0 L 1230.0 125.0" stroke="#FF0000" fill="none" stroke-width="4px" />
<path d="M 1210.0 105.0 L 1200.0 105.0" stroke="#FF0000" fill="none" stroke-width="4px" />
<path d="M 1160.0 65.0 L 1150.0 65.0" stroke="#FF0000" fill="none" stroke-width="4px" />
<path d="M 1150.0 65.0 L 1140.0 65.0" stroke="#FF0000" fill="none" stroke-width="4px" />
<path d="M 1140.0 65.0 L 1150.0 55.0" stroke="#FF0000" fill="none" stroke-width="4px" />
<path d="M 1080.0 65.0 L 1070.0 65.0" stroke="#FF0000" fill="none" stroke-width="4px" />
<path d="M 1070.0 65.0 L 1060.0 65.0" stroke="#FF0000" fill="none" stroke-width="4px" />
<path d="M 1060.0 65.0 L 1050.0 65.0" stroke="#FF0000" fill="none" stroke-width="4px" />
<path d="M 1050.0 65.0 L 1060.0 55.0" stroke="#FF0000" fill="none" stroke-width="4px" />
<path d="M 1380.0 145.0 L 1390.0 145.0" stroke="#FF0000" fill="none" stroke-width="4px" />
<path d="M 1390.0 145.0 L 1400.0 145.0" stroke="#FF0000" fill="none" stroke-width="4px" />
<path d="M 1400.0 145.0 L 1410.0 145.0" stroke="#FF0000" fill="none" stroke-width="4px" />
<path d="M 1410.0 145.0 L 1410.0 155.0" stroke="#FF0000" fill="none" stroke-width="4px" />
<path d="M 1410.0 155.0 L 1400.0 155.0" stroke="#FF0000" fill="none" stroke-width="4px" />
<path d="M 1400.0 155.0 L 1390.0 155.0" stroke="#FF0000" fill="none" stroke-width="4px" />
<path d="M 1390.0 155.0 L 1380.0 155.0" stroke="#FF0000" fill="none" stroke-width="4px" />
<path d="M 1380.0 155.0 L 1380.0 165.0" stroke="#FF0000" fill="none" stroke-width="4px" />
<path d="M 1380.0 165.0 L 1370.0 165.0" stroke="#FF0000" fill="none" stroke-width="4px" />
<path d="M 1370.0 165.0 L 1380.0 175.0" stroke="#FF0000" fill="none" stroke-width="4px" />
<path d="M 1380.0 175.0 L 1390.0 175.0" stroke="#FF0000" fill="none" stroke-width="4px" />
<path d="M 1390.0 175.0 L 1400.0 175.0" stroke="#FF0000" fill="none" stroke-width="4px" />
<path d="M 1400.0 175.0 L 1410.0 175.0" stroke="#FF0000" fill="none" stroke-width="4px" />
<path d="M 1410.0 175.0 L 1410.0 165.0" stroke="#FF0000" fill="none" stroke-width="4px" />
<path d="M 1410.0 165.0 L 1400.0 165.0" stroke="#FF0000" fill="none" stroke-width="4px" />
<path d="M 1400.0 165.0 L 1390.0 165.0" stroke="#FF0000" fill="none" stroke-width="4px" />
<path d="M 1390.0 185.0 L 1400.0 185.0" stroke="#FF0000" fill="none" stroke-width="4px" />
<path d="M 1420.0 165.0 L 1420.0 155.0" stroke="#FF0000" fill="none" stroke-width="4px" />
<path d="M 1400.0 135.0 L 1390.0 135.0" stroke="#FF0000" fill="none" stroke-width="4px" />
<path d="M 1470.0 135.0 L 1480.0 135.0" stroke="#FF0000" fill="none" stroke-width="4px" />
<path d="M 1480.0 135.0 L 1490.0 135.0" stroke="#FF0000" fill="none" stroke-width="4px" />
<path d="M 1490.0 135.0 L 1500.0 135.0" stroke="#FF0000" fill="none" stroke-width="4px" />
<path d="M 1500.0 135.0 L 1510.0 135.0" stroke="#FF0000" fill="none" stroke-width="4px" />
<path d="M 1510.0 135.0 L 1520.0 135.0" stroke="#FF0000" fill="none" stroke-width="4px" />
<path d="M 1520.0 135.0 L 1520.0 145.0" stroke="#FF0000" fill="none" stroke-width="4px" />
<path d="M 1520.0 145.0 L 1510.0 145.0" stroke="#FF0000" fill="none" stroke-width="4px" />
<path d="M 1510.0 145.0 L 1500.0 145.0" stroke="#FF0000" fill="none" stroke-width="4px" />
<path d="M 1500.0 145.0 L 1490.0 145.0" stroke="#FF0000" fill="none" stroke-width="4px" />
<path d="M 1490.0 145.0 L 1480.0 145.0" stroke="#FF0000" fill="none" stroke-width="4px" />
<path d="M 1480.0 145.0 L 1490.0 155.0" stroke="#FF0000" fill="none" stroke-width="4px" />
<path d="M 1490.0 155.0 L 1500.0 155.0" stroke="#FF0000" fill="none" stroke-width="4px" />
<path d="M 1500.0 155.0 L 1510.0 155.0" stroke="#FF0000" fill="none" stroke-width="4px" />
<path d="M 1510.0 155.0 L 1520.0 155.0" stroke="#FF0000" fill="none" stroke-width="4px" />
<path d="M 1520.0 155.0 L 1530.0 155.0" stroke="#FF0000" fill="none" stroke-width="4px" />
<path d="M 1530.0 155.0 L 1530.0 145.0" stroke="#FF0000" fill="none" stroke-width="4px" />
<path d="M 1520.0 165.0 L 1510.0 165.0" stroke="#FF0000" fill="none" stroke-width="4px" />
<path d="M 1510.0 165.0 L 1500.0 165.0" stroke="#FF0000" fill="none" stroke-width="4px" />
<path d="M 1500.0 165.0 L 1490.0 165.0" stroke="#FF0000" fill="none" stroke-width="4px" />
<path d="M 1490.0 165.0 L 1500.0 175.0" stroke="#FF0000" fill="none" stroke-width="4px" />
<path d="M 1500.0 175.0 L 1510.0 175.0" stroke="#FF0000" fill="none" stroke-width="4px" />
<path d="M 1510.0 125.0 L 1500.0 125.0" stroke="#FF0000" fill="none" stroke-width="4px" />
<path d="M 1500.0 125.0 L 1490.0 125.0" stroke="#FF0000" fill="none" stroke-width="4px" />
<path d="M 1490.0 125.0 L 1480.0 125.0" stroke="#FF0000" fill="none" stroke-width="4px" />
<path d="M 1480.0 125.0 L 1470.0 125.0" stroke="#FF0000" fill="none" stroke-width="4px" />
<path d="M 1470.0 125.0 L 1480.0 115.0" stroke="#FF0000" fill="none" stroke-width="4px" />
<path d="M 1480.0 115.0 L 1490.0 115.0" stroke="#FF0000" fill="none" stroke-width="4px" />
<path d="M 1740.0 135.0 L 1750.0 135.0" stroke="#FF0000" fill="none" stroke-width="4px" />
<path d="M 1750.0 135.0 L 1760.0 135.0" stroke="#FF0000" fill="none" stroke-width="4px" />
<path d="M 1760.0 135.0 L 1770.0 135.0" stroke="#FF0000" fill="none" stroke-width="4px" />
<path d="M 1770.0 135.0 L 1780.0 135.0" stroke="#FF0000" fill="none" stroke-width="4px" />
<path d="M 1780.0 135.0 L 1780.0 145.0" stroke="#FF0000" fill="none" stroke-width="4px" />
<path d="M 1780.0 145.0 L 1770.0 145.0" stroke="#FF0000" fill="none" stroke-width="4px" />
<path d="M 1770.0 145.0 L 1760.0 145.0" stroke="#FF0000" fill="none" stroke-width="4px" />
<path d="M 1760.0 145.0 L 1750.0 145.0" stroke="#FF0000" fill="none" stroke-width="4px" />
<path d="M 1750.0 145.0 L 1740.0 145.0" stroke="#FF0000" fill="none" stroke-width="4px" />
<path d="M 1740.0 145.0 L 1750.0 155.0" stroke="#FF0000" fill="none" stroke-width="4px" />
<path d="M 1750.0 155.0 L 1760.0 155.0" stroke="#FF0000" fill="none" stroke-width="4px" />
<path d="M 1760.0 155.0 L 1770.0 155.0" stroke="#FF0000" fill="none" stroke-width="4px" />
<path d="M 1770.0 155.0 L 1760.0 165.0" stroke="#FF0000" fill="none" stroke-width="4px" />
<path d="M 1760.0 125.0 L 1750.0 125.0" stroke="#FF0000" fill="none" stroke-width="4px" />
<path d="M 1750.0 125.0 L 1760.0 115.0" stroke="#FF0000" fill="none" stroke-width="4px" />
<path d="M 1760.0 115.0 L 1770.0 125.0" stroke="#FF0000" fill="none" stroke-width="4px" />
<path d="M 2740.0 165.0 L 2730.0 165.0" stroke="#FF0000" fill="none" stroke-width="4px" />
<path d="M 2730.0 165.0 L 2720.0 165.0" stroke="#FF0000" fill="none" stroke-width="4px" />
<path d="M 2720.0 165.0 L 2710.0 165.0" stroke="#FF0000" fill="none" stroke-width="4px" />
<path d="M 2710.0 165.0 L 2700.0 165.0" stroke="#FF0000" fill="none" stroke-width="4px" />
<path d="M 2700.0 165.0 L 2690.0 165.0" stroke="#FF0000" fill="none" stroke-width="4px" />
<path d="M 2690.0 165.0 L 2690.0 155.0" stroke="#FF0000" fill="none" stroke-width="4px" />
<path d="M 2690.0 155.0 L 2700.0 155.0" stroke="#FF0000" fill="none" stroke-width="4px" />
<path d="M 2700.0 155.0 L 2710.0 155.0" stroke="#FF0000" fill="none" stroke-width="4px" />
<path d="M 2710.0 155.0 L 2720.0 155.0" stroke="#FF0000" fill="none" stroke-width="4px" />
<path d="M 2720.0 155.0 L 2730.0 155.0" stroke="#FF0000" fill="none" stroke-width="4px" />
<path d="M 2730.0 155.0 L 2740.0 155.0" stroke="#FF0000" fill="none" stroke-width="4px" />
<path d="M 2720.0 145.0 L 2710.0 145.0" stroke="#FF0000" fill="none" stroke-width="4px" />
<path d="M 2710.0 145.0 L 2700.0 145.0" stroke="#FF0000" fill="none" stroke-width="4px" />
<path d="M 2700.0 175.0 L 2710.0 175.0" stroke="#FF0000" fill="none" stroke-width="4px" />
<path d="M 2710.0 175.0 L 2720.0 175.0" stroke="#FF0000" fill="none" stroke-width="4px" />
<path d="M 2720.0 175.0 L 2730.0 175.0" stroke="#FF0000" fill="none" stroke-width="4px" />
<path d="M 2730.0 175.0 L 2720.0 185.0" stroke="#FF0000" fill="none" stroke-width="4px" />
<path d="M 2720.0 185.0 L 2710.0 185.0" stroke="#FF0000" fill="none" stroke-width="4px" />
<path d="M 2630.0 145.0 L 2630.0 135.0" stroke="#FF0000" fill="none" stroke-width="4px" />
<path d="M 2630.0 135.0 L 2620.0 135.0" stroke="#FF0000" fill="none" stroke-width="4px" />
<path d="M 2620.0 135.0 L 2620.0 125.0" stroke="#FF0000" fill="none" stroke-width="4px" />
<path d="M 2620.0 125.0 L 2610.0 125.0" stroke="#FF0000" fill="none" stroke-width="4px" />
<path d="M 2610.0 125.0 L 2610.0 115.0" stroke="#FF0000" fill="none" stroke-width="4px" />
<path d="M 2610.0 115.0 L 2620.0 115.0" stroke="#FF0000" fill="none" stroke-width="4px" />
<path d="M 2620.0 115.0 L 2630.0 115.0" stroke="#FF0000" fill="none" stroke-width="4px" />
<path d="M 2630.0 115.0 L 2640.0 115.0" stroke="#FF0000" fill="none" stroke-width="4px" />
<path d="M 2640.0 115.0 L 2650.0 115.0" stroke="#FF0000" fill="none" stroke-width="4px" />
<path d="M 2650.0 115.0 L 2640.0 125.0" stroke="#FF0000" fill="none" stroke-width="4px" />
<path d="M 2640.0 125.0 L 2630.0 125.0" stroke="#FF0000" fill="none" stroke-width="4px" />
<path d="M 2630.0 125.0 L 2640.0 135.0" stroke="#FF0000" fill="none" stroke-width="4px" />
<path d="M 2640.0 105.0 L 2630.0 105.0" stroke="#FF0000" fill="none" stroke-width="4px" />
<path d="M 2630.0 105.0 L 2620.0 105.0" stroke="#FF0000" fill="none" stroke-width="4px" />
<path d="M 2620.0 105.0 L 2630.0 95.0" stroke="#FF0000" fill="none" stroke-width="4px" />
<path d="M 2880.0 95.0 L 2890.0 95.0" stroke="#FF0000" fill="none" stroke-width="4px" />
<path d="M 2890.0 95.0 L 2890.0 105.0" stroke="#FF0000" fill="none" stroke-width="4px" />
<path d="M 2890.0 85.0 L 2880.0 85.0" stroke="#FF0000" fill="none" stroke-width="4px" />
<path d="M 2880.0 85.0 L 2890.0 75.0" stroke="#FF0000" fill="none" stroke-width="4px" />
<path d="M 2220.0 75.0 L 2210.0 75.0" stroke="#FF0000" fill="none" stroke-width="4px" />
<path d="M 2210.0 75.0 L 2200.0 75.0" stroke="#FF0000" fill="none" stroke-width="4px" />
<path d="M 2200.0 75.0 L 2190.0 75.0" stroke="#FF0000" fill="none" stroke-width="4px" />
<path d="M 2190.0 75.0 L 2180.0 75.0" stroke="#FF0000" fill="none" stroke-width="4px" />
<path d="M 2180.0 75.0 L 2170.0 75.0" stroke="#FF0000" fill="none" stroke-width="4px" />
<path d="M 2170.0 75.0 L 2170.0 65.0" stroke="#FF0000" fill="none" stroke-width="4px" />
<path d="M 2170.0 65.0 L 2160.0 65.0" stroke="#FF0000" fill="none" stroke-width="4px" />
<path d="M 2160.0 65.0 L 2160.0 55.0" stroke="#FF0000" fill="none" stroke-width="4px" />
<path d="M 2160.0 55.0 L 2170.0 55.0" stroke="#FF0000" fill="none" stroke-width="4px" />
<path d="M 2170.0 55.0 L 2180.0 55.0" stroke="#FF0000" fill="none" stroke-width="4px" />
<path d="M 2180.0 55.0 L 2190.0 55.0" stroke="#FF0000" fill="none" stroke-width="4px" />
<path d="M 2190.0 55.0 L 2200.0 55.0" stroke="#FF0000" fill="none" stroke-width="4px" />
<path d="M 2200.0 55.0 L 2210.0 55.0" stroke="#FF0000" fill="none" stroke-width="4px" />
<path d="M 2210.0 55.0 L 2220.0 55.0" stroke="#FF0000" fill="none" stroke-width="4px" />
<path d="M 2220.0 55.0 L 2220.0 65.0" stroke="#FF0000" fill="none" stroke-width="4px" />
<path d="M 2220.0 65.0 L 2210.0 65.0" stroke="#FF0000" fill="none" stroke-width="4px" />
<path d="M 2210.0 65.0 L 2200.0 65.0" stroke="#FF0000" fill="none" stroke-width="4px" />
<path d="M 2200.0 65.0 L 2190.0 65.0" stroke="#FF0000" fill="none" stroke-width="4px" />
<path d="M 2190.0 65.0 L 2180.0 65.0" stroke="#FF0000" fill="none" stroke-width="4px" />
<path d="M 2180.0 85.0 L 2190.0 85.0" stroke="#FF0000" fill="none" stroke-width="4px" />
<path d="M 2190.0 85.0 L 2200.0 85.0" stroke="#FF0000" fill="none" stroke-width="4px" />
<path d="M 2200.0 85.0 L 2210.0 85.0" stroke="#FF0000" fill="none" stroke-width="4px" />
<path d="M 2210.0 85.0 L 2220.0 85.0" stroke="#FF0000" fill="none" stroke-width="4px" />
<path d="M 2220.0 85.0 L 2210.0 95.0" stroke="#FF0000" fill="none" stroke-width="4px" />
<path d="M 2210.0 95.0 L 2200.0 95.0" stroke="#FF0000" fill="none" stroke-width="4px" />
<path d="M 2200.0 95.0 L 2190.0 95.0" stroke="#FF0000" fill="none" stroke-width="4px" />
<path d="M 2190.0 95.0 L 2200.0 105.0" stroke="#FF0000" fill="none" stroke-width="4px" />
<path d="M 2200.0 45.0 L 2190.0 45.0" stroke="#FF0000" fill="none" stroke-width="4px" />
<path d="M 2190.0 45.0 L 2180.0 45.0" stroke="#FF0000" fill="none" stroke-width="4px" />
<path d="M 2180.0 45.0 L 2170.0 45.0" stroke="#FF0000" fill="none" stroke-width="4px" />
<path d="M 2170.0 45.0 L 2160.0 45.0" stroke="#FF0000" fill="none" stroke-width="4px" />
<path d="M 2160.0 45.0 L 2170.0 35.0" stroke="#FF0000" fill="none" stroke-width="4px" />
<path d="M 2170.0 35.0 L 2180.0 35.0" stroke="#FF0000" fill="none" stroke-width="4px" />
<path d="M 2180.0 35.0 L 2190.0 35.0" stroke="#FF0000" fill="none" stroke-width="4px" />
<path d="M 2190.0 35.0 L 2200.0 35.0" stroke="#FF0000" fill="none" stroke-width="4px" />
<path d="M 2200.0 35.0 L 2210.0 45.0" stroke="#FF0000" fill="none" stroke-width="4px" />
<path d="M 2130.0 185.0 L 2120.0 185.0" stroke="#FF0000" fill="none" stroke-width="4px" />
<path d="M 2120.0 185.0 L 2110.0 185.0" stroke="#FF0000" fill="none" stroke-width="4px" />
<path d="M 2110.0 185.0 L 2110.0 195.0" stroke="#FF0000" fill="none" stroke-width="4px" />
<path d="M 2110.0 195.0 L 2100.0 195.0" stroke="#FF0000" fill="none" stroke-width="4px" />
<path d="M 2100.0 195.0 L 2100.0 205.0" stroke="#FF0000" fill="none" stroke-width="4px" />
<path d="M 2100.0 205.0 L 2110.0 205.0" stroke="#FF0000" fill="none" stroke-width="4px" />
<path d="M 2110.0 205.0 L 2120.0 205.0" stroke="#FF0000" fill="none" stroke-width="4px" />
<path d="M 2120.0 205.0 L 2130.0 205.0" stroke="#FF0000" fill="none" stroke-width="4px" />
<path d="M 2130.0 205.0 L 2140.0 205.0" stroke="#FF0000" fill="none" stroke-width="4px" />
<path d="M 2140.0 205.0 L 2140.0 195.0" stroke="#FF0000" fill="none" stroke-width="4px" />
<path d="M 2140.0 195.0 L 2130.0 195.0" stroke="#FF0000" fill="none" stroke-width="4px" />
<path d="M 2130.0 195.0 L 2120.0 195.0" stroke="#FF0000" fill="none" stroke-width="4px" />
<path d="M 2110.0 215.0 L 2130.0 215.0" stroke="#FF0000" fill="none" stroke-width="4px" />
</svg>