<svg width="1755.23333333" height="235.0" xmlns="http://www.w3.org/2000/svg" version="1.1">
<path d="M 0.0 235.0 L 1755.23333333 235.0 L 1755.23333333 0.0 L 0.0 0.0 L 0.0 235.0" stroke="#000000" fill="none" stroke-width="3px" />
<path d="M 10.0 257.5 L 0.0 247.5 L 10.0 237.5" stroke="#969696" fill="none" stroke-width="1px" />
<path d="M 10.0 237.5 L 1745.23333333 237.5" stroke="#969696" fill="none" stroke-width="1px" />
<path d="M 1745.23333333 237.5 L 1755.23333333 227.5 L 1745.23333333 217.5" stroke="#969696" fill="none" stroke-width="1px" />
<path d="M 1745.23333333 217.5 L 10.0 217.5" stroke="#969696" fill="none" stroke-width="1px" />
<path d="M 10.0 217.5 L 0.0 207.5 L 10.0 197.5" stroke="#969696" fill="none" stroke-width="1px" />
<path d="M 10.0 197.5 L 1745.23333333 197.5" stroke="#969696" fill="none" stroke-width="1px" />
<path d="M 1745.23333333 197.5 L 1755.23333333 187.5 L 1745.23333333 177.5" stroke="#969696" fill="none" stroke-width="1px" />
<path d="M 1745.23333333 177.5 L 10.0 177.5" stroke="#969696" fill="none" stroke-width="1px" />
<path d="M 10.0 177.5 L 0.0 167.5 L 10.0 157.5" stroke="#969696" fill="none" stroke-width="1px" />
<path d="M 10.0 157.5 L 1745.23333333 157.5" stroke="#969696" fill="none" stroke-width="1px" />
<path d="M 1745.23333333 157.5 L 1755.23333333 147.5 L 1745.23333333 137.5" stroke="#969696" fill="none" stroke-width="1px" />
<path d="M 1745.23333333 137.5 L 10.0 137.5" stroke="#969696" fill="none" stroke-width="1px" />
<path d="M 10.0 137.5 L 0.0 127.5 L 10.0 117.5" stroke="#969696" fill="none" stroke-width="1px" />
<path d="M 10.0 117.5 L 1745.23333333 117.5" stroke="#969696" fill="none" stroke-width="1px" />
<path d="M 1745.23333333 117.5 L 1755.23333333 107.5 L 1745.23333333 97.5" stroke="#969696" fill="none" stroke-width="1px" />
<path d="M 1745.23333333 97.5 L 10.0 97.5" stroke="#969696" fill="none" stroke-width="1px" />
<path d="M 10.0 97.5 L 0.0 87.5 L 10.0 77.5" stroke="#969696" fill="none" stroke-width="1px" />
<path d="M 10.0 77.5 L 1745.23333333 77.5" stroke="#969696" fill="none" stroke-width="1px" />
<path d="M 1745.23333333 77.5 L 1755.23333333 67.5 L 1745.23333333 57.5" stroke="#969696" fill="none" stroke-width="1px" />
<path d="M 1745.23333333 57.5 L 10.0 57.5" stroke="#969696" fill="none" stroke-width="1px" />
<path d="M 10.0 57.5 L 0.0 47.5 L 10.0 37.5" stroke="#969696" fill="none" stroke-width="1px" />
<path d="M 10.0 37.5 L 1745.23333333 37.5" stroke="#969696" fill="none" stroke-width="1px" />
<path d="M 1745.23333333 37.5 L 1755.23333333 27.5 L 1745.23333333 17.5" stroke="#969696" fill="none" stroke-width="1px" />
<path d="M 1745.23333333 17.5 L 10.0 17.5" stroke="#969696" fill="none" stroke-width="1px" />
<path d="M 10.0 17.5 L 0.0 7.5 L 10.0 -2.5" stroke="#969696" fill="none" stroke-width="1px" />
<path d="M 10.0 -2.5 L 1745.23333333 -2.5" stroke="#969696" fill="none" stroke-width="1px" />
<path d="M 1745.23333333 -2.5 L 1755.23333333 -12.5 L 1745.23333333 -22.5" stroke="#969696" fill="none" stroke-width="1px" />
<path d="M 0.0 235.0 L 10.0 135.0" stroke="#0095FF" fill="none" stroke-width="2px" />
<path d="M 10.0 105.0 L 20.0 75.0" stroke="#0095FF" fill="none" stroke-width="2px" />
<path d="M 10.0 25.0 L 30.0 65.0" stroke="#0095FF" fill="none" stroke-width="2px" />
<path d="M 30.0 65.0 L 70.0 55.0" stroke="#0095FF" fill="none" stroke-width="2px" />
<path d="M 100.0 75.0 L 100.0 45.0" stroke="#0095FF" fill="none" stroke-width="2px" />
<path d="M 110.0 45.0 L 260.0 75.0" stroke="#0095FF" fill="none" stroke-width="2px" />
<path d="M 280.0 95.0 L 280.0 65.0" stroke="#0095FF" fill="none" stroke-width="2px" />
<path d="M 270.0 65.0 L 340.0 65.0" stroke="#0095FF" fill="none" stroke-width="2px" />
<path d="M 370.0 105.0 L 370.0 55.0" stroke="#0095FF" fill="none" stroke-width="2px" />
<path d="M 400.0 55.0 L 450.0 45.0" stroke="#0095FF" fill="none" stroke-width="2px" />
<path d="M 520.0 75.0 L 540.0 85.0" stroke="#0095FF" fill="none" stroke-width="2px" />
<path d="M 540.0 85.0 L 550.0 55.0" stroke="#0095FF" fill="none" stroke-width="2px" />
<path d="M 550.0 55.0 L 520.0 35.0" stroke="#0095FF" fill="none" stroke-width="2px" />
<path d="M 460.0 15.0 L 460.0 75.0" stroke="#0095FF" fill="none" stroke-width="2px" />
<path d="M 480.0 85.0 L 460.0 105.0" stroke="#0095FF" fill="none" stroke-width="2px" />
<path d="M 460.0 105.0 L 1150.0 65.0" stroke="#0095FF" fill="none" stroke-width="2px" />
<path d="M 1160.0 75.0 L 1160.0 55.0" stroke="#0095FF" fill="none" stroke-width="2px" />
<path d="M 10.0 135.0 L 10.0 125.0" stroke="#FF0000" fill="none" stroke-width="4px" />
<path d="M 10.0 125.0 L 20.0 125.0" stroke="#FF0000" fill="none" stroke-width="4px" />
<path d="M 20.0 125.0 L 20.0 115.0" stroke="#FF0000" fill="none" stroke-width="4px" />
<path d="M 20.0 115.0 L 10.0 115.0" stroke="#FF0000" fill="none" stroke-width="4px" />
<path d="M 10.0 115.0 L 10.0 105.0" stroke="#FF0000" fill="none" stroke-width="4px" />
<path d="M 20.0 75.0 L 20.0 65.0" stroke="#FF0000" fill="none" stroke-width="4px" />
<path d="M 20.0 65.0 L 10.0 65.0" stroke="#FF0000" fill="none" stroke-width="4px" />
<path d="M 10.0 65.0 L 10.0 55.0" stroke="#FF0000" fill="none" stroke-width="4px" />
<path d="M 10.0 55.0 L 20.0 55.0" stroke="#FF0000" fill="none" stroke-width="4px" />
<path d="M 20.0 55.0 L 30.0 55.0" stroke="#FF0000" fill="none" stroke-width="4px" />
<path d="M 30.0 55.0 L 40.0 55.0" stroke="#FF0000" fill="none" stroke-width="4px" />
<path d="M 40.0 55.0 L 40.0 45.0" stroke="#FF0000" fill="none" stroke-width="4px" />
<path d="M 40.0 45.0 L 30.0 45.0" stroke="#FF0000" fill="none" stroke-width="4px" />
<path d="M 30.0 45.0 L 20.0 45.0" stroke="#FF0000" fill="none" stroke-width="4px" />
<path d="M 20.0 45.0 L 10.0 45.0" stroke="#FF0000" fill="none" stroke-width="4px" />
<path d="M 10.0 45.0 L 10.0 35.0" stroke="#FF0000" fill="none" stroke-width="4px" />
<path d="M 10.0 35.0 L 20.0 35.0" stroke="#FF0000" fill="none" stroke-width="4px" />
<path d="M 20.0 35.0 L 30.0 35.0" stroke="#FF0000" fill="none" stroke-width="4px" />
<path d="M 30.0 35.0 L 40.0 35.0" stroke="#FF0000" fill="none" stroke-width="4px" />
<path d="M 40.0 35.0 L 30.0 25.0" stroke="#FF0000" fill="none" stroke-width="4px" />
<path d="M 30.0 25.0 L 20.0 25.0" stroke="#FF0000" fill="none" stroke-width="4px" />
<path d="M 20.0 25.0 L 10.0 25.0" stroke="#FF0000" fill="none" stroke-width="4px" />
<path d="M 70.0 55.0 L 80.0 55.0" stroke="#FF0000" fill="none" stroke-width="4px" />
<path d="M 80.0 55.0 L 90.0 55.0" stroke="#FF0000" fill="none" stroke-width="4px" />
<path d="M 90.0 55.0 L 100.0 55.0" stroke="#FF0000" fill="none" stroke-width="4px" />
<path d="M 100.0 55.0 L 110.0 55.0" stroke="#FF0000" fill="none" stroke-width="4px" />
<path d="M 110.0 55.0 L 120.0 55.0" stroke="#FF0000" fill="none" stroke-width="4px" />
<path d="M 120.0 55.0 L 110.0 65.0" stroke="#FF0000" fill="none" stroke-width="4px" />
<path d="M 110.0 65.0 L 100.0 65.0" stroke="#FF0000" fill="none" stroke-width="4px" />
<path d="M 100.0 65.0 L 90.0 65.0" stroke="#FF0000" fill="none" stroke-width="4px" />
<path d="M 90.0 65.0 L 80.0 65.0" stroke="#FF0000" fill="none" stroke-width="4px" />
<path d="M 80.0 65.0 L 90.0 75.0" stroke="#FF0000" fill="none" stroke-width="4px" />
<path d="M 90.0 75.0 L 100.0 75.0" stroke="#FF0000" fill="none" stroke-width="4px" />
<path d="M 100.0 45.0 L 90.0 45.0" stroke="#FF0000" fill="none" stroke-width="4px" />
<path d="M 90.0 45.0 L 80.0 45.0" stroke="#FF0000" fill="none" stroke-width="4px" />
<path d="M 80.0 45.0 L 90.0 35.0" stroke="#FF0000" fill="none" stroke-width="4px" />
<path d="M 90.0 35.0 L 100.0 35.0" stroke="#FF0000" fill="none" stroke-width="4px" />
<path d="M 100.0 35.0 L 110.0 45.0" stroke="#FF0000" fill="none" stroke-width="4px" />
<path d="M 260.0 75.0 L 270.0 75.0" stroke="#FF0000" fill="none" stroke-width="4px" />
<path d="M 270.0 75.0 L 280.0 75.0" stroke="#FF0000" fill="none" stroke-width="4px" />
<path d="M 280.0 75.0 L 290.0 75.0" stroke="#FF0000" fill="none" stroke-width="4px" />
<path d="M 290.0 75.0 L 290.0 85.0" stroke="#FF0000" fill="none" stroke-width="4px" />
<path d="M 290.0 85.0 L 280.0 85.0" stroke="#FF0000" fill="none" stroke-width="4px" />
<path d="M 280.0 85.0 L 270.0 85.0" stroke="#FF0000" fill="none" stroke-width="4px" />
<path d="M 270.0 85.0 L 260.0 85.0" stroke="#FF0000" fill="none" stroke-width="4px" />
<path d="M 260.0 85.0 L 270.0 95.0" stroke="#FF0000" fill="none" stroke-width="4px" />
<path d="M 270.0 95.0 L 280.0 95.0" stroke="#FF0000" fill="none" stroke-width="4px" />
<path d="M 280.0 65.0 L 270.0 65.0" stroke="#FF0000" fill="none" stroke-width="4px" />
<path d="M 340.0 65.0 L 350.0 65.0" stroke="#FF0000" fill="none" stroke-width="4px" />
<path d="M 350.0 65.0 L 360.0 65.0" stroke="#FF0000" fill="none" stroke-width="4px" />
<path d="M 360.0 65.0 L 370.0 65.0" stroke="#FF0000" fill="none" stroke-width="4px" />
<path d="M 370.0 65.0 L 380.0 65.0" stroke="#FF0000" fill="none" stroke-width="4px" />
<path d="M 380.0 65.0 L 390.0 65.0" stroke="#FF0000" fill="none" stroke-width="4px" />
<path d="M 390.0 65.0 L 400.0 65.0" stroke="#FF0000" fill="none" stroke-width="4px" />
<path d="M 400.0 65.0 L 400.0 75.0" stroke="#FF0000" fill="none" stroke-width="4px" />
<path d="M 400.0 75.0 L 390.0 75.0" stroke="#FF0000" fill="none" stroke-width="4px" />
<path d="M 390.0 75.0 L 380.0 75.0" stroke="#FF0000" fill="none" stroke-width="4px" />
<path d="M 380.0 75.0 L 370.0 75.0" stroke="#FF0000" fill="none" stroke-width="4px" />
<path d="M 370.0 75.0 L 360.0 75.0" stroke="#FF0000" fill="none" stroke-width="4px" />
<path d="M 360.0 75.0 L 350.0 75.0" stroke="#FF0000" fill="none" stroke-width="4px" />
<path d="M 350.0 75.0 L 340.0 75.0" stroke="#FF0000" fill="none" stroke-width="4px" />
<path d="M 340.0 75.0 L 340.0 85.0" stroke="#FF0000" fill="none" stroke-width="4px" />
<path d="M 340.0 85.0 L 350.0 85.0" stroke="#FF0000" fill="none" stroke-width="4px" />
<path d="M 350.0 85.0 L 360.0 85.0" stroke="#FF0000" fill="none" stroke-width="4px" />
<path d="M 360.0 85.0 L 370.0 85.0" stroke="#FF0000" fill="none" stroke-width="4px" />
<path d="M 370.0 85.0 L 380.0 85.0" stroke="#FF0000" fill="none" stroke-width="4px" />
<path d="M 380.0 85.0 L 390.0 85.0" stroke="#FF0000" fill="none" stroke-width="4px" />
<path d="M 390.0 85.0 L 400.0 85.0" stroke="#FF0000" fill="none" stroke-width="4px" />
<path d="M 400.0 85.0 L 390.0 95.0" stroke="#FF0000" fill="none" stroke-width="4px" />
<path d="M 390.0 95.0 L 380.0 95.0" stroke="#FF0000" fill="none" stroke-width="4px" />
<path d="M 380.0 95.0 L 370.0 95.0" stroke="#FF0000" fill="none" stroke-width="4px" />
<path d="M 370.0 95.0 L 360.0 95.0" stroke="#FF0000" fill="none" stroke-width="4px" />
<path d="M 360.0 95.0 L 350.0 95.0" stroke="#FF0000" fill="none" stroke-width="4px" />
<path d="M 350.0 95.0 L 360.0 105.0" stroke="#FF0000" fill="none" stroke-width="4px" />
<path d="M 360.0 105.0 L 370.0 105.0" stroke="#FF0000" fill="none" stroke-width="4px" />
<path d="M 370.0 55.0 L 360.0 55.0" stroke="#FF0000" fill="none" stroke-width="4px" />
<path d="M 360.0 55.0 L 350.0 55.0" stroke="#FF0000" fill="none" stroke-width="4px" />
<path d="M 350.0 55.0 L 360.0 45.0" stroke="#FF0000" fill="none" stroke-width="4px" />
<path d="M 360.0 45.0 L 370.0 45.0" stroke="#FF0000" fill="none" stroke-width="4px" />
<path d="M 370.0 45.0 L 380.0 45.0" stroke="#FF0000" fill="none" stroke-width="4px" />
<path d="M 380.0 45.0 L 390.0 45.0" stroke="#FF0000" fill="none" stroke-width="4px" />
<path d="M 390.0 45.0 L 390.0 55.0" stroke="#FF0000" fill="none" stroke-width="4px" />
<path d="M 390.0 55.0 L 380.0 55.0" stroke="#FF0000" fill="none" stroke-width="4px" />
<path d="M 380.0 55.0 L 400.0 55.0" stroke="#FF0000" fill="none" stroke-width="4px" />
<path d="M 450.0 45.0 L 460.0 45.0" stroke="#FF0000" fill="none" stroke-width="4px" />
<path d="M 460.0 45.0 L 470.0 45.0" stroke="#FF0000" fill="none" stroke-width="4px" />
<path d="M 470.0 45.0 L 480.0 45.0" stroke="#FF0000" fill="none" stroke-width="4px" />
<path d="M 480.0 45.0 L 490.0 45.0" stroke="#FF0000" fill="none" stroke-width="4px" />
<path d="M 490.0 45.0 L 500.0 45.0" stroke="#FF0000" fill="none" stroke-width="4px" />
<path d="M 500.0 45.0 L 510.0 45.0" stroke="#FF0000" fill="none" stroke-width="4px" />
<path d="M 510.0 45.0 L 520.0 45.0" stroke="#FF0000" fill="none" stroke-width="4px" />
<path d="M 520.0 45.0 L 530.0 45.0" stroke="#FF0000" fill="none" stroke-width="4px" />
<path d="M 530.0 45.0 L 540.0 45.0" stroke="#FF0000" fill="none" stroke-width="4px" />
<path d="M 540.0 45.0 L 540.0 55.0" stroke="#FF0000" fill="none" stroke-width="4px" />
<path d="M 540.0 55.0 L 530.0 55.0" stroke="#FF0000" fill="none" stroke-width="4px" />
<path d="M 530.0 55.0 L 520.0 55.0" stroke="#FF0000" fill="none" stroke-width="4px" />
<path d="M 520.0 55.0 L 510.0 55.0" stroke="#FF0000" fill="none" stroke-width="4px" />
<path d="M 510.0 55.0 L 500.0 55.0" stroke="#FF0000" fill="none" stroke-width="4px" />
<path d="M 500.0 55.0 L 490.0 55.0" stroke="#FF0000" fill="none" stroke-width="4px" />
<path d="M 490.0 55.0 L 480.0 55.0" stroke="#FF0000" fill="none" stroke-width="4px" />
<path d="M 480.0 55.0 L 470.0 55.0" stroke="#FF0000" fill="none" stroke-width="4px" />
<path d="M 470.0 55.0 L 460.0 55.0" stroke="#FF0000" fill="none" stroke-width="4px" />
<path d="M 460.0 55.0 L 460.0 65.0" stroke="#FF0000" fill="none" stroke-width="4px" />
<path d="M 460.0 65.0 L 470.0 65.0" stroke="#FF0000" fill="none" stroke-width="4px" />
<path d="M 470.0 65.0 L 480.0 65.0" stroke="#FF0000" fill="none" stroke-width="4px" />
<path d="M 480.0 65.0 L 490.0 65.0" stroke="#FF0000" fill="none" stroke-width="4px" />
<path d="M 490.0 65.0 L 500.0 65.0" stroke="#FF0000" fill="none" stroke-width="4px" />
<path d="M 500.0 65.0 L 510.0 65.0" stroke="#FF0000" fill="none" stroke-width="4px" />
<path d="M 510.0 65.0 L 520.0 65.0" stroke="#FF0000" fill="none" stroke-width="4px" />
<path d="M 520.0 65.0 L 530.0 65.0" stroke="#FF0000" fill="none" stroke-width="4px" />
<path d="M 530.0 65.0 L 540.0 65.0" stroke="#FF0000" fill="none" stroke-width="4px" />
<path d="M 540.0 65.0 L 550.0 65.0" stroke="#FF0000" fill="none" stroke-width="4px" />
<path d="M 550.0 65.0 L 560.0 65.0" stroke="#FF0000" fill="none" stroke-width="4px" />
<path d="M 560.0 65.0 L 550.0 75.0" stroke="#FF0000" fill="none" stroke-width="4px" />
<path d="M 550.0 75.0 L 540.0 75.0" stroke="#FF0000" fill="none" stroke-width="4px" />
<path d="M 540.0 75.0 L 530.0 75.0" stroke="#FF0000" fill="none" stroke-width="4px" />
<path d="M 530.0 75.0 L 520.0 75.0" stroke="#FF0000" fill="none" stroke-width="4px" />
<path d="M 520.0 35.0 L 510.0 35.0" stroke="#FF0000" fill="none" stroke-width="4px" />
<path d="M 510.0 35.0 L 500.0 35.0" stroke="#FF0000" fill="none" stroke-width="4px" />
<path d="M 500.0 35.0 L 490.0 35.0" stroke="#FF0000" fill="none" stroke-width="4px" />
<path d="M 490.0 35.0 L 480.0 35.0" stroke="#FF0000" fill="none" stroke-width="4px" />
<path d="M 480.0 35.0 L 470.0 35.0" stroke="#FF0000" fill="none" stroke-width="4px" />
<path d="M 470.0 35.0 L 460.0 35.0" stroke="#FF0000" fill="none" stroke-width="4px" />
<path d="M 460.0 35.0 L 450.0 35.0" stroke="#FF0000" fill="none" stroke-width="4px" />
<path d="M 450.0 35.0 L 450.0 25.0" stroke="#FF0000" fill="none" stroke-width="4px" />
<path d="M 450.0 25.0 L 460.0 25.0" stroke="#FF0000" fill="none" stroke-width="4px" />
<path d="M 460.0 25.0 L 470.0 25.0" stroke="#FF0000" fill="none" stroke-width="4px" />
<path d="M 470.0 25.0 L 480.0 25.0" stroke="#FF0000" fill="none" stroke-width="4px" />
<path d="M 480.0 25.0 L 490.0 25.0" stroke="#FF0000" fill="none" stroke-width="4px" />
<path d="M 490.0 25.0 L 500.0 25.0" stroke="#FF0000" fill="none" stroke-width="4px" />
<path d="M 500.0 25.0 L 510.0 25.0" stroke="#FF0000" fill="none" stroke-width="4px" />
<path d="M 510.0 25.0 L 500.0 15.0" stroke="#FF0000" fill="none" stroke-width="4px" />
<path d="M 500.0 15.0 L 490.0 15.0" stroke="#FF0000" fill="none" stroke-width="4px" />
<path d="M 490.0 15.0 L 480.0 15.0" stroke="#FF0000" fill="none" stroke-width="4px" />
<path d="M 480.0 15.0 L 470.0 15.0" stroke="#FF0000" fill="none" stroke-width="4px" />
<path d="M 470.0 15.0 L 460.0 15.0" stroke="#FF0000" fill="none" stroke-width="4px" />
<path d="M 460.0 75.0 L 450.0 75.0" stroke="#FF0000" fill="none" stroke-width="4px" />
<path d="M 450.0 75.0 L 450.0 85.0" stroke="#FF0000" fill="none" stroke-width="4px" />
<path d="M 450.0 85.0 L 440.0 85.0" stroke="#FF0000" fill="none" stroke-width="4px" />
<path d="M 440.0 85.0 L 450.0 95.0" stroke="#FF0000" fill="none" stroke-width="4px" />
<path d="M 450.0 95.0 L 460.0 95.0" stroke="#FF0000" fill="none" stroke-width="4px" />
<path d="M 460.0 95.0 L 470.0 95.0" stroke="#FF0000" fill="none" stroke-width="4px" />
<path d="M 470.0 95.0 L 470.0 85.0" stroke="#FF0000" fill="none" stroke-width="4px" />
<path d="M 470.0 85.0 L 460.0 85.0" stroke="#FF0000" fill="none" stroke-width="4px" />
<path d="M 460.0 85.0 L 470.0 75.0" stroke="#FF0000" fill="none" stroke-width="4px" />
<path d="M 470.0 75.0 L 480.0 75.0" stroke="#FF0000" fill="none" stroke-width="4px" />
<path d="M 480.0 75.0 L 490.0 75.0" stroke="#FF0000" fill="none" stroke-width="4px" />
<path d="M 490.0 75.0 L 480.0 85.0" stroke="#FF0000" fill="none" stroke-width="4px" />
<path d="M 1150.0 65.0 L 1160.0 65.0" stroke="#FF0000" fill="none" stroke-width="4px" />
<path d="M 1160.0 65.0 L 1170.0 65.0" stroke="#FF0000" fill="none" stroke-width="4px" />
<path d="M 1170.0 65.0 L 1180.0 65.0" stroke="#FF0000" fill="none" stroke-width="4px" />
<path d="M 1180.0 65.0 L 1190.0 65.0" stroke="#FF0000" fill="none" stroke-width="4px" />
<path d="M 1190.0 65.0 L 1180.0 75.0" stroke="#FF0000" fill="none" stroke-width="4px" />
<path d="M 1180.0 75.0 L 1170.0 75.0" stroke="#FF0000" fill="none" stroke-width="4px" />
<path d="M 1170.0 75.0 L 1160.0 75.0" stroke="#FF0000" fill="none" stroke-width="4px" />
<path d="M 1160.0 55.0 L 1170.0 55.0" stroke="#FF0000" fill="none" stroke-width="4px" />
<path d="M 1170.0 55.0 L 1180.0 55.0" stroke="#FF0000" fill="none" stroke-width="4px" />
<path d="M 1180.0 55.0 L 1170.0 45.0" stroke="#FF0000" fill="none" stroke-width="4px" />
</svg>