<svg width="1332.95833333" height="235.0" xmlns="http://www.w3.org/2000/svg" version="1.1">
<path d="M 0.0 235.0 L 1332.95833333 235.0 L 1332.95833333 0.0 L 0.0 0.0 L 0.0 235.0" stroke="#000000" fill="none" stroke-width="3px" />
<path d="M 10.0 257.5 L 0.0 247.5 L 10.0 237.5" stroke="#969696" fill="none" stroke-width="1px" />
<path d="M 10.0 237.5 L 1322.95833333 237.5" stroke="#969696" fill="none" stroke-width="1px" />
<path d="M 1322.95833333 237.5 L 1332.95833333 227.5 L 1322.95833333 217.5" stroke="#969696" fill="none" stroke-width="1px" />
<path d="M 1322.95833333 217.5 L 10.0 217.5" stroke="#969696" fill="none" stroke-width="1px" />
<path d="M 10.0 217.5 L 0.0 207.5 L 10.0 197.5" stroke="#969696" fill="none" stroke-width="1px" />
<path d="M 10.0 197.5 L 1322.95833333 197.5" stroke="#969696" fill="none" stroke-width="1px" />
<path d="M 1322.95833333 197.5 L 1332.95833333 187.5 L 1322.95833333 177.5" stroke="#969696" fill="none" stroke-width="1px" />
<path d="M 1322.95833333 177.5 L 10.0 177.5" stroke="#969696" fill="none" stroke-width="1px" />
<path d="M 10.0 177.5 L 0.0 167.5 L 10.0 157.5" stroke="#969696" fill="none" stroke-width="1px" />
<path d="M 10.0 157.5 L 1322.95833333 157.5" stroke="#969696" fill="none" stroke-width="1px" />
<path d="M 1322.95833333 157.5 L 1332.95833333 147.5 L 1322.95833333 137.5" stroke="#969696" fill="none" stroke-width="1px" />
<path d="M 1322.95833333 137.5 L 10.0 137.5" stroke="#969696" fill="none" stroke-width="1px" />
<path d="M 10.0 137.5 L 0.0 127.5 L 10.0 117.5" stroke="#969696" fill="none" stroke-width="1px" />
<path d="M 10.0 117.5 L 1322.95833333 117.5" stroke="#969696" fill="none" stroke-width="1px" />
<path d="M 1322.95833333 117.5 L 1332.95833333 107.5 L 1322.95833333 97.5" stroke="#969696" fill="none" stroke-width="1px" />
<path d="M 1322.95833333 97.5 L 10.0 97.5" stroke="#969696" fill="none" stroke-width="1px" />
<path d="M 10.0 97.5 L 0.0 87.5 L 10.0 77.5" stroke="#969696" fill="none" stroke-width="1px" />
<path d="M 10.0 77.5 L 1322.95833333 77.5" stroke="#969696" fill="none" stroke-width="1px" />
<path d="M 1322.95833333 77.5 L 1332.95833333 67.5 L 1322.95833333 57.5" stroke="#969696" fill="none" stroke-width="1px" />
<path d="M 1322.95833333 57.5 L 10.0 57.5" stroke="#969696" fill="none" stroke-width="1px" />
<path d="M 10.0 57.5 L 0.0 47.5 L 10.0 37.5" stroke="#969696" fill="none" stroke-width="1px" />
<path d="M 10.0 37.5 L 1322.95833333 37.5" stroke="#969696" fill="none" stroke-width="1px" />
<path d="M 1322.95833333 37.5 L 1332.95833333 27.5 L 1322.95833333 17.5" stroke="#969696" fill="none" stroke-width="1px" />
<path d="M 1322.95833333 17.5 L 10.0 17.5" stroke="#969696" fill="none" stroke-width="1px" />
<path d="M 10.0 17.5 L 0.0 7.5 L 10.0 -2.5" stroke="#969696" fill="none" stroke-width="1px" />
<path d="M 10.0 -2.5 L 1322.95833333 -2.5" stroke="#969696" fill="none" stroke-width="1px" />
<path d="M 1322.95833333 -2.5 L 1332.95833333 -12.5 L 1322.95833333 -22.5" stroke="#969696" fill="none" stroke-width="1px" />
<path d="M 0.0 235.0 L 150.0 145.0" stroke="#0095FF" fill="none" stroke-width="2px" />
<path d="M 150.0 125.0 L 170.0 135.0" stroke="#0095FF" fill="none" stroke-width="2px" />
<path d="M 170.0 135.0 L 160.0 105.0" stroke="#0095FF" fill="none" stroke-width="2px" />
<path d="M 150.0 105.0 L 400.0 105.0" stroke="#0095FF" fill="none" stroke-width="2px" />
<path d="M 420.0 135.0 L 450.0 115.0" stroke="#0095FF" fill="none" stroke-width="2px" />
<path d="M 450.0 115.0 L 480.0 125.0" stroke="#0095FF" fill="none" stroke-width="2px" />
<path d="M 490.0 175.0 L 520.0 185.0" stroke="#0095FF" fill="none" stroke-width="2px" />
<path d="M 540.0 185.0 L 560.0 135.0" stroke="#0095FF" fill="none" stroke-width="2px" />
<path d="M 560.0 135.0 L 530.0 115.0" stroke="#0095FF" fill="none" stroke-width="2px" />
<path d="M 490.0 115.0 L 430.0 95.0" stroke="#0095FF" fill="none" stroke-width="2px" />
<path d="M 420.0 85.0 L 570.0 95.0" stroke="#0095FF" fill="none" stroke-width="2px" />
<path d="M 630.0 145.0 L 640.0 105.0" stroke="#0095FF" fill="none" stroke-width="2px" />
<path d="M 650.0 105.0 L 620.0 85.0" stroke="#0095FF" fill="none" stroke-width="2px" />
<path d="M 610.0 75.0 L 590.0 65.0" stroke="#0095FF" fill="none" stroke-width="2px" />
<path d="M 600.0 55.0 L 590.0 25.0" stroke="#0095FF" fill="none" stroke-width="2px" />
<path d="M 580.0 15.0 L 760.0 35.0" stroke="#0095FF" fill="none" stroke-width="2px" />
<path d="M 780.0 55.0 L 780.0 25.0" stroke="#0095FF" fill="none" stroke-width="2px" />
<path d="M 150.0 145.0 L 160.0 145.0" stroke="#FF0000" fill="none" stroke-width="4px" />
<path d="M 160.0 145.0 L 160.0 135.0" stroke="#FF0000" fill="none" stroke-width="4px" />
<path d="M 160.0 135.0 L 150.0 135.0" stroke="#FF0000" fill="none" stroke-width="4px" />
<path d="M 150.0 135.0 L 140.0 135.0" stroke="#FF0000" fill="none" stroke-width="4px" />
<path d="M 140.0 135.0 L 140.0 125.0" stroke="#FF0000" fill="none" stroke-width="4px" />
<path d="M 140.0 125.0 L 130.0 125.0" stroke="#FF0000" fill="none" stroke-width="4px" />
<path d="M 130.0 125.0 L 140.0 115.0" stroke="#FF0000" fill="none" stroke-width="4px" />
<path d="M 140.0 115.0 L 150.0 115.0" stroke="#FF0000" fill="none" stroke-width="4px" />
<path d="M 150.0 115.0 L 160.0 115.0" stroke="#FF0000" fill="none" stroke-width="4px" />
<path d="M 160.0 115.0 L 170.0 115.0" stroke="#FF0000" fill="none" stroke-width="4px" />
<path d="M 170.0 115.0 L 170.0 125.0" stroke="#FF0000" fill="none" stroke-width="4px" />
<path d="M 170.0 125.0 L 160.0 125.0" stroke="#FF0000" fill="none" stroke-width="4px" />
<path d="M 160.0 125.0 L 150.0 125.0" stroke="#FF0000" fill="none" stroke-width="4px" />
<path d="M 160.0 105.0 L 150.0 105.0" stroke="#FF0000" fill="none" stroke-width="4px" />
<path d="M 400.0 105.0 L 410.0 105.0" stroke="#FF0000" fill="none" stroke-width="4px" />
<path d="M 410.0 105.0 L 420.0 105.0" stroke="#FF0000" fill="none" stroke-width="4px" />
<path d="M 420.0 105.0 L 430.0 105.0" stroke="#FF0000" fill="none" stroke-width="4px" />
<path d="M 430.0 105.0 L 440.0 105.0" stroke="#FF0000" fill="none" stroke-width="4px" />
<path d="M 440.0 105.0 L 440.0 115.0" stroke="#FF0000" fill="none" stroke-width="4px" />
<path d="M 440.0 115.0 L 430.0 115.0" stroke="#FF0000" fill="none" stroke-width="4px" />
<path d="M 430.0 115.0 L 420.0 115.0" stroke="#FF0000" fill="none" stroke-width="4px" />
<path d="M 420.0 115.0 L 410.0 115.0" stroke="#FF0000" fill="none" stroke-width="4px" />
<path d="M 410.0 115.0 L 400.0 115.0" stroke="#FF0000" fill="none" stroke-width="4px" />
<path d="M 400.0 115.0 L 410.0 125.0" stroke="#FF0000" fill="none" stroke-width="4px" />
<path d="M 410.0 125.0 L 420.0 125.0" stroke="#FF0000" fill="none" stroke-width="4px" />
<path d="M 420.0 125.0 L 430.0 125.0" stroke="#FF0000" fill="none" stroke-width="4px" />
<path d="M 430.0 125.0 L 440.0 125.0" stroke="#FF0000" fill="none" stroke-width="4px" />
<path d="M 440.0 125.0 L 430.0 135.0" stroke="#FF0000" fill="none" stroke-width="4px" />
<path d="M 430.0 135.0 L 420.0 135.0" stroke="#FF0000" fill="none" stroke-width="4px" />
<path d="M 480.0 125.0 L 490.0 125.0" stroke="#FF0000" fill="none" stroke-width="4px" />
<path d="M 490.0 125.0 L 500.0 125.0" stroke="#FF0000" fill="none" stroke-width="4px" />
<path d="M 500.0 125.0 L 510.0 125.0" stroke="#FF0000" fill="none" stroke-width="4px" />
<path d="M 510.0 125.0 L 520.0 125.0" stroke="#FF0000" fill="none" stroke-width="4px" />
<path d="M 520.0 125.0 L 530.0 125.0" stroke="#FF0000" fill="none" stroke-width="4px" />
<path d="M 530.0 125.0 L 540.0 125.0" stroke="#FF0000" fill="none" stroke-width="4px" />
<path d="M 540.0 125.0 L 550.0 125.0" stroke="#FF0000" fill="none" stroke-width="4px" />
<path d="M 550.0 125.0 L 550.0 135.0" stroke="#FF0000" fill="none" stroke-width="4px" />
<path d="M 550.0 135.0 L 540.0 135.0" stroke="#FF0000" fill="none" stroke-width="4px" />
<path d="M 540.0 135.0 L 530.0 135.0" stroke="#FF0000" fill="none" stroke-width="4px" />
<path d="M 530.0 135.0 L 520.0 135.0" stroke="#FF0000" fill="none" stroke-width="4px" />
<path d="M 520.0 135.0 L 510.0 135.0" stroke="#FF0000" fill="none" stroke-width="4px" />
<path d="M 510.0 135.0 L 500.0 135.0" stroke="#FF0000" fill="none" stroke-width="4px" />
<path d="M 500.0 135.0 L 490.0 135.0" stroke="#FF0000" fill="none" stroke-width="4px" />
<path d="M 490.0 135.0 L 480.0 135.0" stroke="#FF0000" fill="none" stroke-width="4px" />
<path d="M 480.0 135.0 L 470.0 135.0" stroke="#FF0000" fill="none" stroke-width="4px" />
<path d="M 470.0 135.0 L 470.0 145.0" stroke="#FF0000" fill="none" stroke-width="4px" />
<path d="M 470.0 145.0 L 480.0 145.0" stroke="#FF0000" fill="none" stroke-width="4px" />
<path d="M 480.0 145.0 L 490.0 145.0" stroke="#FF0000" fill="none" stroke-width="4px" />
<path d="M 490.0 145.0 L 500.0 145.0" stroke="#FF0000" fill="none" stroke-width="4px" />
<path d="M 500.0 145.0 L 510.0 145.0" stroke="#FF0000" fill="none" stroke-width="4px" />
<path d="M 510.0 145.0 L 520.0 145.0" stroke="#FF0000" fill="none" stroke-width="4px" />
<path d="M 520.0 145.0 L 530.0 145.0" stroke="#FF0000" fill="none" stroke-width="4px" />
<path d="M 530.0 145.0 L 540.0 145.0" stroke="#FF0000" fill="none" stroke-width="4px" />
<path d="M 540.0 145.0 L 550.0 145.0" stroke="#FF0000" fill="none" stroke-width="4px" />
<path d="M 550.0 145.0 L 560.0 145.0" stroke="#FF0000" fill="none" stroke-width="4px" />
<path d="M 560.0 145.0 L 560.0 155.0" stroke="#FF0000" fill="none" stroke-width="4px" />
<path d="M 560.0 155.0 L 550.0 155.0" stroke="#FF0000" fill="none" stroke-width="4px" />
<path d="M 550.0 155.0 L 540.0 155.0" stroke="#FF0000" fill="none" stroke-width="4px" />
<path d="M 540.0 155.0 L 530.0 155.0" stroke="#FF0000" fill="none" stroke-width="4px" />
<path d="M 530.0 155.0 L 520.0 155.0" stroke="#FF0000" fill="none" stroke-width="4px" />
<path d="M 520.0 155.0 L 510.0 155.0" stroke="#FF0000" fill="none" stroke-width="4px" />
<path d="M 510.0 155.0 L 500.0 155.0" stroke="#FF0000" fill="none" stroke-width="4px" />
<path d="M 500.0 155.0 L 490.0 155.0" stroke="#FF0000" fill="none" stroke-width="4px" />
<path d="M 490.0 155.0 L 480.0 155.0" stroke="#FF0000" fill="none" stroke-width="4px" />
<path d="M 480.0 155.0 L 470.0 155.0" stroke="#FF0000" fill="none" stroke-width="4px" />
<path d="M 470.0 155.0 L 480.0 165.0" stroke="#FF0000" fill="none" stroke-width="4px" />
<path d="M 480.0 165.0 L 490.0 165.0" stroke="#FF0000" fill="none" stroke-width="4px" />
<path d="M 490.0 165.0 L 500.0 165.0" stroke="#FF0000" fill="none" stroke-width="4px" />
<path d="M 500.0 165.0 L 510.0 165.0" stroke="#FF0000" fill="none" stroke-width="4px" />
<path d="M 510.0 165.0 L 520.0 165.0" stroke="#FF0000" fill="none" stroke-width="4px" />
<path d="M 520.0 165.0 L 530.0 165.0" stroke="#FF0000" fill="none" stroke-width="4px" />
<path d="M 530.0 165.0 L 540.0 165.0" stroke="#FF0000" fill="none" stroke-width="4px" />
<path d="M 540.0 165.0 L 550.0 165.0" stroke="#FF0000" fill="none" stroke-width="4px" />
<path d="M 550.0 165.0 L 560.0 165.0" stroke="#FF0000" fill="none" stroke-width="4px" />
<path d="M 560.0 165.0 L 550.0 175.0" stroke="#FF0000" fill="none" stroke-width="4px" />
<path d="M 550.0 175.0 L 540.0 175.0" stroke="#FF0000" fill="none" stroke-width="4px" />
<path d="M 540.0 175.0 L 530.0 175.0" stroke="#FF0000" fill="none" stroke-width="4px" />
<path d="M 530.0 175.0 L 520.0 175.0" stroke="#FF0000" fill="none" stroke-width="4px" />
<path d="M 520.0 175.0 L 510.0 175.0" stroke="#FF0000" fill="none" stroke-width="4px" />
<path d="M 510.0 175.0 L 500.0 175.0" stroke="#FF0000" fill="none" stroke-width="4px" />
<path d="M 500.0 175.0 L 490.0 175.0" stroke="#FF0000" fill="none" stroke-width="4px" />
<path d="M 520.0 185.0 L 530.0 185.0" stroke="#FF0000" fill="none" stroke-width="4px" />
<path d="M 530.0 185.0 L 540.0 185.0" stroke="#FF0000" fill="none" stroke-width="4px" />
<path d="M 530.0 115.0 L 520.0 115.0" stroke="#FF0000" fill="none" stroke-width="4px" />
<path d="M 520.0 115.0 L 510.0 115.0" stroke="#FF0000" fill="none" stroke-width="4px" />
<path d="M 510.0 115.0 L 500.0 115.0" stroke="#FF0000" fill="none" stroke-width="4px" />
<path d="M 500.0 115.0 L 490.0 115.0" stroke="#FF0000" fill="none" stroke-width="4px" />
<path d="M 430.0 95.0 L 420.0 95.0" stroke="#FF0000" fill="none" stroke-width="4px" />
<path d="M 420.0 95.0 L 410.0 95.0" stroke="#FF0000" fill="none" stroke-width="4px" />
<path d="M 410.0 95.0 L 420.0 85.0" stroke="#FF0000" fill="none" stroke-width="4px" />
<path d="M 570.0 95.0 L 580.0 95.0" stroke="#FF0000" fill="none" stroke-width="4px" />
<path d="M 580.0 95.0 L 590.0 95.0" stroke="#FF0000" fill="none" stroke-width="4px" />
<path d="M 590.0 95.0 L 600.0 95.0" stroke="#FF0000" fill="none" stroke-width="4px" />
<path d="M 600.0 95.0 L 610.0 95.0" stroke="#FF0000" fill="none" stroke-width="4px" />
<path d="M 610.0 95.0 L 620.0 95.0" stroke="#FF0000" fill="none" stroke-width="4px" />
<path d="M 620.0 95.0 L 630.0 95.0" stroke="#FF0000" fill="none" stroke-width="4px" />
<path d="M 630.0 95.0 L 630.0 105.0" stroke="#FF0000" fill="none" stroke-width="4px" />
<path d="M 630.0 105.0 L 620.0 105.0" stroke="#FF0000" fill="none" stroke-width="4px" />
<path d="M 620.0 105.0 L 610.0 105.0" stroke="#FF0000" fill="none" stroke-width="4px" />
<path d="M 610.0 105.0 L 600.0 105.0" stroke="#FF0000" fill="none" stroke-width="4px" />
<path d="M 600.0 105.0 L 590.0 105.0" stroke="#FF0000" fill="none" stroke-width="4px" />
<path d="M 590.0 105.0 L 580.0 105.0" stroke="#FF0000" fill="none" stroke-width="4px" />
<path d="M 580.0 105.0 L 590.0 115.0" stroke="#FF0000" fill="none" stroke-width="4px" />
<path d="M 590.0 115.0 L 600.0 115.0" stroke="#FF0000" fill="none" stroke-width="4px" />
<path d="M 600.0 115.0 L 610.0 115.0" stroke="#FF0000" fill="none" stroke-width="4px" />
<path d="M 610.0 115.0 L 620.0 115.0" stroke="#FF0000" fill="none" stroke-width="4px" />
<path d="M 620.0 115.0 L 630.0 115.0" stroke="#FF0000" fill="none" stroke-width="4px" />
<path d="M 630.0 115.0 L 640.0 115.0" stroke="#FF0000" fill="none" stroke-width="4px" />
<path d="M 640.0 115.0 L 650.0 115.0" stroke="#FF0000" fill="none" stroke-width="4px" />
<path d="M 650.0 115.0 L 660.0 115.0" stroke="#FF0000" fill="none" stroke-width="4px" />
<path d="M 660.0 115.0 L 660.0 125.0" stroke="#FF0000" fill="none" stroke-width="4px" />
<path d="M 660.0 125.0 L 650.0 125.0" stroke="#FF0000" fill="none" stroke-width="4px" />
<path d="M 650.0 125.0 L 640.0 125.0" stroke="#FF0000" fill="none" stroke-width="4px" />
<path d="M 640.0 125.0 L 630.0 125.0" stroke="#FF0000" fill="none" stroke-width="4px" />
<path d="M 630.0 125.0 L 620.0 125.0" stroke="#FF0000" fill="none" stroke-width="4px" />
<path d="M 620.0 125.0 L 610.0 125.0" stroke="#FF0000" fill="none" stroke-width="4px" />
<path d="M 610.0 125.0 L 600.0 125.0" stroke="#FF0000" fill="none" stroke-width="4px" />
<path d="M 600.0 125.0 L 610.0 135.0" stroke="#FF0000" fill="none" stroke-width="4px" />
<path d="M 610.0 135.0 L 620.0 135.0" stroke="#FF0000" fill="none" stroke-width="4px" />
<path d="M 620.0 135.0 L 630.0 135.0" stroke="#FF0000" fill="none" stroke-width="4px" />
<path d="M 630.0 135.0 L 640.0 135.0" stroke="#FF0000" fill="none" stroke-width="4px" />
<path d="M 640.0 135.0 L 650.0 135.0" stroke="#FF0000" fill="none" stroke-width="4px" />
<path d="M 650.0 135.0 L 640.0 145.0" stroke="#FF0000" fill="none" stroke-width="4px" />
<path d="M 640.0 145.0 L 630.0 145.0" stroke="#FF0000" fill="none" stroke-width="4px" />
<path d="M 640.0 105.0 L 650.0 105.0" stroke="#FF0000" fill="none" stroke-width="4px" />
<path d="M 620.0 85.0 L 610.0 85.0" stroke="#FF0000" fill="none" stroke-width="4px" />
<path d="M 610.0 85.0 L 600.0 85.0" stroke="#FF0000" fill="none" stroke-width="4px" />
<path d="M 600.0 85.0 L 590.0 85.0" stroke="#FF0000" fill="none" stroke-width="4px" />
<path d="M 590.0 85.0 L 580.0 85.0" stroke="#FF0000" fill="none" stroke-width="4px" />
<path d="M 580.0 85.0 L 590.0 75.0" stroke="#FF0000" fill="none" stroke-width="4px" />
<path d="M 590.0 75.0 L 600.0 75.0" stroke="#FF0000" fill="none" stroke-width="4px" />
<path d="M 600.0 75.0 L 610.0 75.0" stroke="#FF0000" fill="none" stroke-width="4px" />
<path d="M 590.0 65.0 L 580.0 65.0" stroke="#FF0000" fill="none" stroke-width="4px" />
<path d="M 580.0 65.0 L 580.0 55.0" stroke="#FF0000" fill="none" stroke-width="4px" />
<path d="M 580.0 55.0 L 570.0 55.0" stroke="#FF0000" fill="none" stroke-width="4px" />
<path d="M 570.0 55.0 L 570.0 45.0" stroke="#FF0000" fill="none" stroke-width="4px" />
<path d="M 570.0 45.0 L 560.0 45.0" stroke="#FF0000" fill="none" stroke-width="4px" />
<path d="M 560.0 45.0 L 560.0 35.0" stroke="#FF0000" fill="none" stroke-width="4px" />
<path d="M 560.0 35.0 L 570.0 35.0" stroke="#FF0000" fill="none" stroke-width="4px" />
<path d="M 570.0 35.0 L 580.0 35.0" stroke="#FF0000" fill="none" stroke-width="4px" />
<path d="M 580.0 35.0 L 590.0 35.0" stroke="#FF0000" fill="none" stroke-width="4px" />
<path d="M 590.0 35.0 L 600.0 35.0" stroke="#FF0000" fill="none" stroke-width="4px" />
<path d="M 600.0 35.0 L 600.0 45.0" stroke="#FF0000" fill="none" stroke-width="4px" />
<path d="M 600.0 45.0 L 590.0 45.0" stroke="#FF0000" fill="none" stroke-width="4px" />
<path d="M 590.0 45.0 L 580.0 45.0" stroke="#FF0000" fill="none" stroke-width="4px" />
<path d="M 580.0 45.0 L 590.0 55.0" stroke="#FF0000" fill="none" stroke-width="4px" />
<path d="M 590.0 55.0 L 600.0 55.0" stroke="#FF0000" fill="none" stroke-width="4px" />
<path d="M 590.0 25.0 L 580.0 25.0" stroke="#FF0000" fill="none" stroke-width="4px" />
<path d="M 580.0 25.0 L 570.0 25.0" stroke="#FF0000" fill="none" stroke-width="4px" />
<path d="M 570.0 25.0 L 560.0 25.0" stroke="#FF0000" fill="none" stroke-width="4px" />
<path d="M 560.0 25.0 L 570.0 15.0" stroke="#FF0000" fill="none" stroke-width="4px" />
<path d="M 570.0 15.0 L 580.0 15.0" stroke="#FF0000" fill="none" stroke-width="4px" />
<path d="M 760.0 35.0 L 770.0 35.0" stroke="#FF0000" fill="none" stroke-width="4px" />
<path d="M 770.0 35.0 L 780.0 35.0" stroke="#FF0000" fill="none" stroke-width="4px" />
<path d="M 780.0 35.0 L 790.0 35.0" stroke="#FF0000" fill="none" stroke-width="4px" />
<path d="M 790.0 35.0 L 800.0 35.0" stroke="#FF0000" fill="none" stroke-width="4px" />
<path d="M 800.0 35.0 L 790.0 45.0" stroke="#FF0000" fill="none" stroke-width="4px" />
<path d="M 790.0 45.0 L 780.0 45.0" stroke="#FF0000" fill="none" stroke-width="4px" />
<path d="M 780.0 45.0 L 770.0 45.0" stroke="#FF0000" fill="none" stroke-width="4px" />
<path d="M 770.0 45.0 L 760.0 45.0" stroke="#FF0000" fill="none" stroke-width="4px" />
<path d="M 760.0 45.0 L 770.0 55.0" stroke="#FF0000" fill="none" stroke-width="4px" />
<path d="M 770.0 55.0 L 780.0 55.0" stroke="#FF0000" fill="none" stroke-width="4px" />
<path d="M 780.0 25.0 L 770.0 25.0" stroke="#FF0000" fill="none" stroke-width="4px" />
<path d="M 770.0 25.0 L 780.0 15.0" stroke="#FF0000" fill="none" stroke-width="4px" />
<path d="M 780.0 15.0 L 790.0 25.0" stroke="#FF0000" fill="none" stroke-width="4px" />
</svg>