<svg width="2472.26666667" height="235.0" xmlns="http://www.w3.org/2000/svg" version="1.1">
<path d="M 0.0 235.0 L 1985.0 235.0 L 1985.0 0.0 L 0.0 0.0 L 0.0 235.0" stroke="#000000" fill="none" stroke-width="3px" />
<path d="M 2472.26666667 235.0 L 1885.0 235.0 L 1885.0 0.0 L 2472.26666667 0.0 L 2472.26666667 235.0" stroke="#000000" fill="none" stroke-width="3px" />
<path d="M 10.0 257.5 L 0.0 247.5 L 10.0 237.5" stroke="#969696" fill="none" stroke-width="1px" />
<path d="M 10.0 237.5 L 1975.0 237.5" stroke="#969696" fill="none" stroke-width="1px" />
<path d="M 1975.0 237.5 L 1985.0 227.5 L 1975.0 217.5" stroke="#969696" fill="none" stroke-width="1px" />
<path d="M 1975.0 217.5 L 10.0 217.5" stroke="#969696" fill="none" stroke-width="1px" />
<path d="M 10.0 217.5 L 0.0 207.5 L 10.0 197.5" stroke="#969696" fill="none" stroke-width="1px" />
<path d="M 10.0 197.5 L 1975.0 197.5" stroke="#969696" fill="none" stroke-width="1px" />
<path d="M 1975.0 197.5 L 1985.0 187.5 L 1975.0 177.5" stroke="#969696" fill="none" stroke-width="1px" />
<path d="M 1975.0 177.5 L 10.0 177.5" stroke="#969696" fill="none" stroke-width="1px" />
<path d="M 10.0 177.5 L 0.0 167.5 L 10.0 157.5" stroke="#969696" fill="none" stroke-width="1px" />
<path d="M 10.0 157.5 L 1975.0 157.5" stroke="#969696" fill="none" stroke-width="1px" />
<path d="M 1975.0 157.5 L 1985.0 147.5 L 1975.0 137.5" stroke="#969696" fill="none" stroke-width="1px" />
<path d="M 1975.0 137.5 L 10.0 137.5" stroke="#969696" fill="none" stroke-width="1px" />
<path d="M 10.0 137.5 L 0.0 127.5 L 10.0 117.5" stroke="#969696" fill="none" stroke-width="1px" />
<path d="M 10.0 117.5 L 1975.0 117.5" stroke="#969696" fill="none" stroke-width="1px" />
<path d="M 1975.0 117.5 L 1985.0 107.5 L 1975.0 97.5" stroke="#969696" fill="none" stroke-width="1px" />
<path d="M 1975.0 97.5 L 10.0 97.5" stroke="#969696" fill="none" stroke-width="1px" />
<path d="M 10.0 97.5 L 0.0 87.5 L 10.0 77.5" stroke="#969696" fill="none" stroke-width="1px" />
<path d="M 10.0 77.5 L 1975.0 77.5" stroke="#969696" fill="none" stroke-width="1px" />
<path d="M 1975.0 77.5 L 1985.0 67.5 L 1975.0 57.5" stroke="#969696" fill="none" stroke-width="1px" />
<path d="M 1975.0 57.5 L 10.0 57.5" stroke="#969696" fill="none" stroke-width="1px" />
<path d="M 10.0 57.5 L 0.0 47.5 L 10.0 37.5" stroke="#969696" fill="none" stroke-width="1px" />
<path d="M 10.0 37.5 L 1975.0 37.5" stroke="#969696" fill="none" stroke-width="1px" />
<path d="M 1975.0 37.5 L 1985.0 27.5 L 1975.0 17.5" stroke="#969696" fill="none" stroke-width="1px" />
<path d="M 1975.0 17.5 L 10.0 17.5" stroke="#969696" fill="none" stroke-width="1px" />
<path d="M 10.0 17.5 L 0.0 7.5 L 10.0 -2.5" stroke="#969696" fill="none" stroke-width="1px" />
<path d="M 10.0 -2.5 L 1975.0 -2.5" stroke="#969696" fill="none" stroke-width="1px" />
<path d="M 1975.0 -2.5 L 1985.0 -12.5 L 1975.0 -22.5" stroke="#969696" fill="none" stroke-width="1px" />
<path d="M 2462.26666667 257.5 L 2472.26666667 247.5 L 2462.26666667 237.5" stroke="#969696" fill="none" stroke-width="1px" />
<path d="M 2462.26666667 237.5 L 1895.0 237.5" stroke="#969696" fill="none" stroke-width="1px" />
<path d="M 1895.0 237.5 L 1885.0 227.5 L 1895.0 217.5" stroke="#969696" fill="none" stroke-width="1px" />
<path d="M 1895.0 217.5 L 2462.26666667 217.5" stroke="#969696" fill="none" stroke-width="1px" />
<path d="M 2462.26666667 217.5 L 2472.26666667 207.5 L 2462.26666667 197.5" stroke="#969696" fill="none" stroke-width="1px" />
<path d="M 2462.26666667 197.5 L 1895.0 197.5" stroke="#969696" fill="none" stroke-width="1px" />
<path d="M 1895.0 197.5 L 1885.0 187.5 L 1895.0 177.5" stroke="#969696" fill="none" stroke-width="1px" />
<path d="M 1895.0 177.5 L 2462.26666667 177.5" stroke="#969696" fill="none" stroke-width="1px" />
<path d="M 2462.26666667 177.5 L 2472.26666667 167.5 L 2462.26666667 157.5" stroke="#969696" fill="none" stroke-width="1px" />
<path d="M 2462.26666667 157.5 L 1895.0 157.5" stroke="#969696" fill="none" stroke-width="1px" />
<path d="M 1895.0 157.5 L 1885.0 147.5 L 1895.0 137.5" stroke="#969696" fill="none" stroke-width="1px" />
<path d="M 1895.0 137.5 L 2462.26666667 137.5" stroke="#969696" fill="none" stroke-width="1px" />
<path d="M 2462.26666667 137.5 L 2472.26666667 127.5 L 2462.26666667 117.5" stroke="#969696" fill="none" stroke-width="1px" />
<path d="M 2462.26666667 117.5 L 1895.0 117.5" stroke="#969696" fill="none" stroke-width="1px" />
<path d="M 1895.0 117.5 L 1885.0 107.5 L 1895.0 97.5" stroke="#969696" fill="none" stroke-width="1px" />
<path d="M 1895.0 97.5 L 2462.26666667 97.5" stroke="#969696" fill="none" stroke-width="1px" />
<path d="M 2462.26666667 97.5 L 2472.26666667 87.5 L 2462.26666667 77.5" stroke="#969696" fill="none" stroke-width="1px" />
<path d="M 2462.26666667 77.5 L 1895.0 77.5" stroke="#969696" fill="none" stroke-width="1px" />
<path d="M 1895.0 77.5 L 1885.0 67.5 L 1895.0 57.5" stroke="#969696" fill="none" stroke-width="1px" />
<path d="M 1895.0 57.5 L 2462.26666667 57.5" stroke="#969696" fill="none" stroke-width="1px" />
<path d="M 2462.26666667 57.5 L 2472.26666667 47.5 L 2462.26666667 37.5" stroke="#969696" fill="none" stroke-width="1px" />
<path d="M 2462.26666667 37.5 L 1895.0 37.5" stroke="#969696" fill="none" stroke-width="1px" />
<path d="M 1895.0 37.5 L 1885.0 27.5 L 1895.0 17.5" stroke="#969696" fill="none" stroke-width="1px" />
<path d="M 1895.0 17.5 L 2462.26666667 17.5" stroke="#969696" fill="none" stroke-width="1px" />
<path d="M 2462.26666667 17.5 L 2472.26666667 7.5 L 2462.26666667 -2.5" stroke="#969696" fill="none" stroke-width="1px" />
<path d="M 2462.26666667 -2.5 L 1895.0 -2.5" stroke="#969696" fill="none" stroke-width="1px" />
<path d="M 1895.0 -2.5 L 1885.0 -12.5 L 1895.0 -22.5" stroke="#969696" fill="none" stroke-width="1px" />
<path d="M 0.0 235.0 L 210.0 235.0" stroke="#0095FF" fill="none" stroke-width="2px" />
<path d="M 210.0 235.0 L 210.0 135.0" stroke="#0095FF" fill="none" stroke-width="2px" />
<path d="M 210.0 115.0 L 210.0 95.0" stroke="#0095FF" fill="none" stroke-width="2px" />
<path d="M 220.0 95.0 L 210.0 95.0" stroke="#0095FF" fill="none" stroke-width="2px" />
<path d="M 210.0 95.0 L 210.0 75.0" stroke="#0095FF" fill="none" stroke-width="2px" />
<path d="M 210.0 75.0 L 270.0 75.0" stroke="#0095FF" fill="none" stroke-width="2px" />
<path d="M 270.0 75.0 L 270.0 95.0" stroke="#0095FF" fill="none" stroke-width="2px" />
<path d="M 270.0 95.0 L 270.0 145.0" stroke="#0095FF" fill="none" stroke-width="2px" />
<path d="M 260.0 155.0 L 1060.0 155.0" stroke="#0095FF" fill="none" stroke-width="2px" />
<path d="M 1060.0 155.0 L 1060.0 75.0" stroke="#0095FF" fill="none" stroke-width="2px" />
<path d="M 1090.0 35.0 L 1090.0 85.0" stroke="#0095FF" fill="none" stroke-width="2px" />
<path d="M 1110.0 85.0 L 1150.0 85.0" stroke="#0095FF" fill="none" stroke-width="2px" />
<path d="M 1180.0 115.0 L 1180.0 75.0" stroke="#0095FF" fill="none" stroke-width="2px" />
<path d="M 1190.0 75.0 L 1190.0 55.0" stroke="#0095FF" fill="none" stroke-width="2px" />
<path d="M 1170.0 55.0 L 1200.0 55.0" stroke="#0095FF" fill="none" stroke-width="2px" />
<path d="M 1200.0 55.0 L 1220.0 55.0" stroke="#0095FF" fill="none" stroke-width="2px" />
<path d="M 1220.0 55.0 L 1220.0 75.0" stroke="#0095FF" fill="none" stroke-width="2px" />
<path d="M 1220.0 75.0 L 1460.0 75.0" stroke="#0095FF" fill="none" stroke-width="2px" />
<path d="M 1460.0 75.0 L 1460.0 65.0" stroke="#0095FF" fill="none" stroke-width="2px" />
<path d="M 1510.0 105.0 L 1510.0 55.0" stroke="#0095FF" fill="none" stroke-width="2px" />
<path d="M 1530.0 55.0 L 1510.0 55.0" stroke="#0095FF" fill="none" stroke-width="2px" />
<path d="M 1510.0 55.0 L 1510.0 35.0" stroke="#0095FF" fill="none" stroke-width="2px" />
<path d="M 1480.0 35.0 L 1810.0 35.0" stroke="#0095FF" fill="none" stroke-width="2px" />
<path d="M 1810.0 35.0 L 1810.0 105.0" stroke="#0095FF" fill="none" stroke-width="2px" />
<path d="M 1820.0 155.0 L 1880.0 155.0" stroke="#0095FF" fill="none" stroke-width="2px" />
<path d="M 1880.0 155.0 L 1880.0 115.0" stroke="#0095FF" fill="none" stroke-width="2px" />
<path d="M 1880.0 115.0 L 1860.0 115.0" stroke="#0095FF" fill="none" stroke-width="2px" />
<path d="M 1860.0 115.0 L 1860.0 95.0" stroke="#0095FF" fill="none" stroke-width="2px" />
<path d="M 2472.26666667 235.0 L 2440.0 235.0" stroke="#0095FF" fill="none" stroke-width="2px" />
<path d="M 2440.0 235.0 L 2440.0 75.0" stroke="#0095FF" fill="none" stroke-width="2px" />
<path d="M 2450.0 65.0 L 2450.0 35.0" stroke="#0095FF" fill="none" stroke-width="2px" />
<path d="M 210.0 135.0 L 220.0 135.0" stroke="#FF0000" fill="none" stroke-width="4px" />
<path d="M 220.0 135.0 L 230.0 135.0" stroke="#FF0000" fill="none" stroke-width="4px" />
<path d="M 230.0 135.0 L 240.0 135.0" stroke="#FF0000" fill="none" stroke-width="4px" />
<path d="M 240.0 135.0 L 250.0 135.0" stroke="#FF0000" fill="none" stroke-width="4px" />
<path d="M 250.0 135.0 L 260.0 135.0" stroke="#FF0000" fill="none" stroke-width="4px" />
<path d="M 260.0 135.0 L 270.0 135.0" stroke="#FF0000" fill="none" stroke-width="4px" />
<path d="M 270.0 135.0 L 280.0 135.0" stroke="#FF0000" fill="none" stroke-width="4px" />
<path d="M 280.0 135.0 L 280.0 125.0" stroke="#FF0000" fill="none" stroke-width="4px" />
<path d="M 280.0 125.0 L 270.0 125.0" stroke="#FF0000" fill="none" stroke-width="4px" />
<path d="M 270.0 125.0 L 260.0 125.0" stroke="#FF0000" fill="none" stroke-width="4px" />
<path d="M 260.0 125.0 L 250.0 125.0" stroke="#FF0000" fill="none" stroke-width="4px" />
<path d="M 250.0 125.0 L 240.0 125.0" stroke="#FF0000" fill="none" stroke-width="4px" />
<path d="M 240.0 125.0 L 230.0 125.0" stroke="#FF0000" fill="none" stroke-width="4px" />
<path d="M 230.0 125.0 L 220.0 125.0" stroke="#FF0000" fill="none" stroke-width="4px" />
<path d="M 220.0 125.0 L 210.0 125.0" stroke="#FF0000" fill="none" stroke-width="4px" />
<path d="M 210.0 125.0 L 200.0 125.0" stroke="#FF0000" fill="none" stroke-width="4px" />
<path d="M 200.0 125.0 L 200.0 115.0" stroke="#FF0000" fill="none" stroke-width="4px" />
<path d="M 200.0 115.0 L 190.0 115.0" stroke="#FF0000" fill="none" stroke-width="4px" />
<path d="M 190.0 115.0 L 190.0 105.0" stroke="#FF0000" fill="none" stroke-width="4px" />
<path d="M 190.0 105.0 L 200.0 105.0" stroke="#FF0000" fill="none" stroke-width="4px" />
<path d="M 200.0 105.0 L 210.0 105.0" stroke="#FF0000" fill="none" stroke-width="4px" />
<path d="M 210.0 105.0 L 220.0 105.0" stroke="#FF0000" fill="none" stroke-width="4px" />
<path d="M 220.0 105.0 L 230.0 105.0" stroke="#FF0000" fill="none" stroke-width="4px" />
<path d="M 230.0 105.0 L 240.0 105.0" stroke="#FF0000" fill="none" stroke-width="4px" />
<path d="M 240.0 105.0 L 250.0 105.0" stroke="#FF0000" fill="none" stroke-width="4px" />
<path d="M 250.0 105.0 L 260.0 105.0" stroke="#FF0000" fill="none" stroke-width="4px" />
<path d="M 260.0 105.0 L 270.0 105.0" stroke="#FF0000" fill="none" stroke-width="4px" />
<path d="M 270.0 105.0 L 280.0 105.0" stroke="#FF0000" fill="none" stroke-width="4px" />
<path d="M 280.0 105.0 L 280.0 115.0" stroke="#FF0000" fill="none" stroke-width="4px" />
<path d="M 280.0 115.0 L 270.0 115.0" stroke="#FF0000" fill="none" stroke-width="4px" />
<path d="M 270.0 115.0 L 260.0 115.0" stroke="#FF0000" fill="none" stroke-width="4px" />
<path d="M 260.0 115.0 L 250.0 115.0" stroke="#FF0000" fill="none" stroke-width="4px" />
<path d="M 250.0 115.0 L 240.0 115.0" stroke="#FF0000" fill="none" stroke-width="4px" />
<path d="M 240.0 115.0 L 230.0 115.0" stroke="#FF0000" fill="none" stroke-width="4px" />
<path d="M 230.0 115.0 L 220.0 115.0" stroke="#FF0000" fill="none" stroke-width="4px" />
<path d="M 220.0 115.0 L 210.0 115.0" stroke="#FF0000" fill="none" stroke-width="4px" />
<path d="M 210.0 95.0 L 200.0 95.0" stroke="#FF0000" fill="none" stroke-width="4px" />
<path d="M 200.0 95.0 L 190.0 95.0" stroke="#FF0000" fill="none" stroke-width="4px" />
<path d="M 190.0 95.0 L 200.0 85.0" stroke="#FF0000" fill="none" stroke-width="4px" />
<path d="M 200.0 85.0 L 210.0 85.0" stroke="#FF0000" fill="none" stroke-width="4px" />
<path d="M 210.0 85.0 L 220.0 85.0" stroke="#FF0000" fill="none" stroke-width="4px" />
<path d="M 220.0 85.0 L 230.0 85.0" stroke="#FF0000" fill="none" stroke-width="4px" />
<path d="M 230.0 85.0 L 240.0 85.0" stroke="#FF0000" fill="none" stroke-width="4px" />
<path d="M 240.0 85.0 L 250.0 85.0" stroke="#FF0000" fill="none" stroke-width="4px" />
<path d="M 250.0 85.0 L 260.0 85.0" stroke="#FF0000" fill="none" stroke-width="4px" />
<path d="M 260.0 85.0 L 260.0 95.0" stroke="#FF0000" fill="none" stroke-width="4px" />
<path d="M 260.0 95.0 L 250.0 95.0" stroke="#FF0000" fill="none" stroke-width="4px" />
<path d="M 250.0 95.0 L 240.0 95.0" stroke="#FF0000" fill="none" stroke-width="4px" />
<path d="M 240.0 95.0 L 230.0 95.0" stroke="#FF0000" fill="none" stroke-width="4px" />
<path d="M 230.0 95.0 L 220.0 95.0" stroke="#FF0000" fill="none" stroke-width="4px" />
<path d="M 270.0 145.0 L 260.0 145.0" stroke="#FF0000" fill="none" stroke-width="4px" />
<path d="M 260.0 145.0 L 250.0 145.0" stroke="#FF0000" fill="none" stroke-width="4px" />
<path d="M 250.0 145.0 L 240.0 145.0" stroke="#FF0000" fill="none" stroke-width="4px" />
<path d="M 240.0 145.0 L 230.0 145.0" stroke="#FF0000" fill="none" stroke-width="4px" />
<path d="M 230.0 145.0 L 220.0 145.0" stroke="#FF0000" fill="none" stroke-width="4px" />
<path d="M 220.0 145.0 L 230.0 155.0" stroke="#FF0000" fill="none" stroke-width="4px" />
<path d="M 230.0 155.0 L 240.0 155.0" stroke="#FF0000" fill="none" stroke-width="4px" />
<path d="M 240.0 155.0 L 250.0 155.0" stroke="#FF0000" fill="none" stroke-width="4px" />
<path d="M 250.0 155.0 L 260.0 155.0" stroke="#FF0000" fill="none" stroke-width="4px" />
<path d="M 1060.0 75.0 L 1070.0 75.0" stroke="#FF0000" fill="none" stroke-width="4px" />
<path d="M 1070.0 75.0 L 1080.0 75.0" stroke="#FF0000" fill="none" stroke-width="4px" />
<path d="M 1080.0 75.0 L 1090.0 75.0" stroke="#FF0000" fill="none" stroke-width="4px" />
<path d="M 1090.0 75.0 L 1100.0 75.0" stroke="#FF0000" fill="none" stroke-width="4px" />
<path d="M 1100.0 75.0 L 1110.0 75.0" stroke="#FF0000" fill="none" stroke-width="4px" />
<path d="M 1110.0 75.0 L 1120.0 75.0" stroke="#FF0000" fill="none" stroke-width="4px" />
<path d="M 1120.0 75.0 L 1120.0 65.0" stroke="#FF0000" fill="none" stroke-width="4px" />
<path d="M 1120.0 65.0 L 1110.0 65.0" stroke="#FF0000" fill="none" stroke-width="4px" />
<path d="M 1110.0 65.0 L 1100.0 65.0" stroke="#FF0000" fill="none" stroke-width="4px" />
<path d="M 1100.0 65.0 L 1090.0 65.0" stroke="#FF0000" fill="none" stroke-width="4px" />
<path d="M 1090.0 65.0 L 1080.0 65.0" stroke="#FF0000" fill="none" stroke-width="4px" />
<path d="M 1080.0 65.0 L 1070.0 65.0" stroke="#FF0000" fill="none" stroke-width="4px" />
<path d="M 1070.0 65.0 L 1060.0 65.0" stroke="#FF0000" fill="none" stroke-width="4px" />
<path d="M 1060.0 65.0 L 1070.0 55.0" stroke="#FF0000" fill="none" stroke-width="4px" />
<path d="M 1070.0 55.0 L 1080.0 55.0" stroke="#FF0000" fill="none" stroke-width="4px" />
<path d="M 1080.0 55.0 L 1090.0 55.0" stroke="#FF0000" fill="none" stroke-width="4px" />
<path d="M 1090.0 55.0 L 1100.0 55.0" stroke="#FF0000" fill="none" stroke-width="4px" />
<path d="M 1100.0 55.0 L 1110.0 55.0" stroke="#FF0000" fill="none" stroke-width="4px" />
<path d="M 1110.0 55.0 L 1100.0 45.0" stroke="#FF0000" fill="none" stroke-width="4px" />
<path d="M 1100.0 45.0 L 1090.0 45.0" stroke="#FF0000" fill="none" stroke-width="4px" />
<path d="M 1090.0 45.0 L 1080.0 45.0" stroke="#FF0000" fill="none" stroke-width="4px" />
<path d="M 1080.0 45.0 L 1090.0 35.0" stroke="#FF0000" fill="none" stroke-width="4px" />
<path d="M 1090.0 85.0 L 1080.0 85.0" stroke="#FF0000" fill="none" stroke-width="4px" />
<path d="M 1080.0 85.0 L 1070.0 85.0" stroke="#FF0000" fill="none" stroke-width="4px" />
<path d="M 1070.0 85.0 L 1080.0 95.0" stroke="#FF0000" fill="none" stroke-width="4px" />
<path d="M 1080.0 95.0 L 1090.0 95.0" stroke="#FF0000" fill="none" stroke-width="4px" />
<path d="M 1090.0 95.0 L 1100.0 95.0" stroke="#FF0000" fill="none" stroke-width="4px" />
<path d="M 1100.0 95.0 L 1100.0 85.0" stroke="#FF0000" fill="none" stroke-width="4px" />
<path d="M 1100.0 85.0 L 1110.0 85.0" stroke="#FF0000" fill="none" stroke-width="4px" />
<path d="M 1150.0 85.0 L 1160.0 85.0" stroke="#FF0000" fill="none" stroke-width="4px" />
<path d="M 1160.0 85.0 L 1170.0 85.0" stroke="#FF0000" fill="none" stroke-width="4px" />
<path d="M 1170.0 85.0 L 1180.0 85.0" stroke="#FF0000" fill="none" stroke-width="4px" />
<path d="M 1180.0 85.0 L 1190.0 85.0" stroke="#FF0000" fill="none" stroke-width="4px" />
<path d="M 1190.0 85.0 L 1200.0 85.0" stroke="#FF0000" fill="none" stroke-width="4px" />
<path d="M 1200.0 85.0 L 1210.0 85.0" stroke="#FF0000" fill="none" stroke-width="4px" />
<path d="M 1210.0 85.0 L 1220.0 85.0" stroke="#FF0000" fill="none" stroke-width="4px" />
<path d="M 1220.0 85.0 L 1220.0 95.0" stroke="#FF0000" fill="none" stroke-width="4px" />
<path d="M 1220.0 95.0 L 1210.0 95.0" stroke="#FF0000" fill="none" stroke-width="4px" />
<path d="M 1210.0 95.0 L 1200.0 95.0" stroke="#FF0000" fill="none" stroke-width="4px" />
<path d="M 1200.0 95.0 L 1190.0 95.0" stroke="#FF0000" fill="none" stroke-width="4px" />
<path d="M 1190.0 95.0 L 1180.0 95.0" stroke="#FF0000" fill="none" stroke-width="4px" />
<path d="M 1180.0 95.0 L 1170.0 95.0" stroke="#FF0000" fill="none" stroke-width="4px" />
<path d="M 1170.0 95.0 L 1160.0 95.0" stroke="#FF0000" fill="none" stroke-width="4px" />
<path d="M 1160.0 95.0 L 1170.0 105.0" stroke="#FF0000" fill="none" stroke-width="4px" />
<path d="M 1170.0 105.0 L 1180.0 105.0" stroke="#FF0000" fill="none" stroke-width="4px" />
<path d="M 1180.0 105.0 L 1190.0 105.0" stroke="#FF0000" fill="none" stroke-width="4px" />
<path d="M 1190.0 105.0 L 1200.0 105.0" stroke="#FF0000" fill="none" stroke-width="4px" />
<path d="M 1200.0 105.0 L 1210.0 105.0" stroke="#FF0000" fill="none" stroke-width="4px" />
<path d="M 1210.0 105.0 L 1200.0 115.0" stroke="#FF0000" fill="none" stroke-width="4px" />
<path d="M 1200.0 115.0 L 1190.0 115.0" stroke="#FF0000" fill="none" stroke-width="4px" />
<path d="M 1190.0 115.0 L 1180.0 115.0" stroke="#FF0000" fill="none" stroke-width="4px" />
<path d="M 1180.0 75.0 L 1170.0 75.0" stroke="#FF0000" fill="none" stroke-width="4px" />
<path d="M 1170.0 75.0 L 1160.0 75.0" stroke="#FF0000" fill="none" stroke-width="4px" />
<path d="M 1160.0 75.0 L 1150.0 75.0" stroke="#FF0000" fill="none" stroke-width="4px" />
<path d="M 1150.0 75.0 L 1160.0 65.0" stroke="#FF0000" fill="none" stroke-width="4px" />
<path d="M 1160.0 65.0 L 1170.0 65.0" stroke="#FF0000" fill="none" stroke-width="4px" />
<path d="M 1170.0 65.0 L 1180.0 65.0" stroke="#FF0000" fill="none" stroke-width="4px" />
<path d="M 1180.0 65.0 L 1190.0 65.0" stroke="#FF0000" fill="none" stroke-width="4px" />
<path d="M 1190.0 65.0 L 1200.0 65.0" stroke="#FF0000" fill="none" stroke-width="4px" />
<path d="M 1200.0 65.0 L 1210.0 65.0" stroke="#FF0000" fill="none" stroke-width="4px" />
<path d="M 1210.0 65.0 L 1210.0 75.0" stroke="#FF0000" fill="none" stroke-width="4px" />
<path d="M 1210.0 75.0 L 1200.0 75.0" stroke="#FF0000" fill="none" stroke-width="4px" />
<path d="M 1200.0 75.0 L 1190.0 75.0" stroke="#FF0000" fill="none" stroke-width="4px" />
<path d="M 1190.0 55.0 L 1180.0 55.0" stroke="#FF0000" fill="none" stroke-width="4px" />
<path d="M 1180.0 55.0 L 1170.0 55.0" stroke="#FF0000" fill="none" stroke-width="4px" />
<path d="M 1460.0 65.0 L 1470.0 65.0" stroke="#FF0000" fill="none" stroke-width="4px" />
<path d="M 1470.0 65.0 L 1480.0 65.0" stroke="#FF0000" fill="none" stroke-width="4px" />
<path d="M 1480.0 65.0 L 1490.0 65.0" stroke="#FF0000" fill="none" stroke-width="4px" />
<path d="M 1490.0 65.0 L 1500.0 65.0" stroke="#FF0000" fill="none" stroke-width="4px" />
<path d="M 1500.0 65.0 L 1510.0 65.0" stroke="#FF0000" fill="none" stroke-width="4px" />
<path d="M 1510.0 65.0 L 1520.0 65.0" stroke="#FF0000" fill="none" stroke-width="4px" />
<path d="M 1520.0 65.0 L 1530.0 65.0" stroke="#FF0000" fill="none" stroke-width="4px" />
<path d="M 1530.0 65.0 L 1540.0 65.0" stroke="#FF0000" fill="none" stroke-width="4px" />
<path d="M 1540.0 65.0 L 1540.0 75.0" stroke="#FF0000" fill="none" stroke-width="4px" />
<path d="M 1540.0 75.0 L 1530.0 75.0" stroke="#FF0000" fill="none" stroke-width="4px" />
<path d="M 1530.0 75.0 L 1520.0 75.0" stroke="#FF0000" fill="none" stroke-width="4px" />
<path d="M 1520.0 75.0 L 1510.0 75.0" stroke="#FF0000" fill="none" stroke-width="4px" />
<path d="M 1510.0 75.0 L 1500.0 75.0" stroke="#FF0000" fill="none" stroke-width="4px" />
<path d="M 1500.0 75.0 L 1490.0 75.0" stroke="#FF0000" fill="none" stroke-width="4px" />
<path d="M 1490.0 75.0 L 1480.0 75.0" stroke="#FF0000" fill="none" stroke-width="4px" />
<path d="M 1480.0 75.0 L 1470.0 75.0" stroke="#FF0000" fill="none" stroke-width="4px" />
<path d="M 1470.0 75.0 L 1480.0 85.0" stroke="#FF0000" fill="none" stroke-width="4px" />
<path d="M 1480.0 85.0 L 1490.0 85.0" stroke="#FF0000" fill="none" stroke-width="4px" />
<path d="M 1490.0 85.0 L 1500.0 85.0" stroke="#FF0000" fill="none" stroke-width="4px" />
<path d="M 1500.0 85.0 L 1510.0 85.0" stroke="#FF0000" fill="none" stroke-width="4px" />
<path d="M 1510.0 85.0 L 1520.0 85.0" stroke="#FF0000" fill="none" stroke-width="4px" />
<path d="M 1520.0 85.0 L 1530.0 85.0" stroke="#FF0000" fill="none" stroke-width="4px" />
<path d="M 1530.0 85.0 L 1520.0 95.0" stroke="#FF0000" fill="none" stroke-width="4px" />
<path d="M 1520.0 95.0 L 1510.0 95.0" stroke="#FF0000" fill="none" stroke-width="4px" />
<path d="M 1510.0 95.0 L 1500.0 95.0" stroke="#FF0000" fill="none" stroke-width="4px" />
<path d="M 1500.0 95.0 L 1490.0 95.0" stroke="#FF0000" fill="none" stroke-width="4px" />
<path d="M 1490.0 95.0 L 1500.0 105.0" stroke="#FF0000" fill="none" stroke-width="4px" />
<path d="M 1500.0 105.0 L 1510.0 105.0" stroke="#FF0000" fill="none" stroke-width="4px" />
<path d="M 1510.0 55.0 L 1500.0 55.0" stroke="#FF0000" fill="none" stroke-width="4px" />
<path d="M 1500.0 55.0 L 1490.0 55.0" stroke="#FF0000" fill="none" stroke-width="4px" />
<path d="M 1490.0 55.0 L 1480.0 55.0" stroke="#FF0000" fill="none" stroke-width="4px" />
<path d="M 1480.0 55.0 L 1470.0 55.0" stroke="#FF0000" fill="none" stroke-width="4px" />
<path d="M 1470.0 55.0 L 1460.0 55.0" stroke="#FF0000" fill="none" stroke-width="4px" />
<path d="M 1460.0 55.0 L 1470.0 45.0" stroke="#FF0000" fill="none" stroke-width="4px" />
<path d="M 1470.0 45.0 L 1480.0 45.0" stroke="#FF0000" fill="none" stroke-width="4px" />
<path d="M 1480.0 45.0 L 1490.0 45.0" stroke="#FF0000" fill="none" stroke-width="4px" />
<path d="M 1490.0 45.0 L 1500.0 45.0" stroke="#FF0000" fill="none" stroke-width="4px" />
<path d="M 1500.0 45.0 L 1510.0 45.0" stroke="#FF0000" fill="none" stroke-width="4px" />
<path d="M 1510.0 45.0 L 1520.0 45.0" stroke="#FF0000" fill="none" stroke-width="4px" />
<path d="M 1520.0 45.0 L 1520.0 55.0" stroke="#FF0000" fill="none" stroke-width="4px" />
<path d="M 1520.0 55.0 L 1530.0 55.0" stroke="#FF0000" fill="none" stroke-width="4px" />
<path d="M 1510.0 35.0 L 1500.0 35.0" stroke="#FF0000" fill="none" stroke-width="4px" />
<path d="M 1500.0 35.0 L 1490.0 35.0" stroke="#FF0000" fill="none" stroke-width="4px" />
<path d="M 1490.0 35.0 L 1480.0 35.0" stroke="#FF0000" fill="none" stroke-width="4px" />
<path d="M 1810.0 105.0 L 1820.0 105.0" stroke="#FF0000" fill="none" stroke-width="4px" />
<path d="M 1820.0 105.0 L 1830.0 105.0" stroke="#FF0000" fill="none" stroke-width="4px" />
<path d="M 1830.0 105.0 L 1840.0 105.0" stroke="#FF0000" fill="none" stroke-width="4px" />
<path d="M 1840.0 105.0 L 1850.0 105.0" stroke="#FF0000" fill="none" stroke-width="4px" />
<path d="M 1850.0 105.0 L 1860.0 105.0" stroke="#FF0000" fill="none" stroke-width="4px" />
<path d="M 1860.0 105.0 L 1870.0 105.0" stroke="#FF0000" fill="none" stroke-width="4px" />
<path d="M 1870.0 105.0 L 1870.0 115.0" stroke="#FF0000" fill="none" stroke-width="4px" />
<path d="M 1870.0 115.0 L 1860.0 115.0" stroke="#FF0000" fill="none" stroke-width="4px" />
<path d="M 1860.0 115.0 L 1850.0 115.0" stroke="#FF0000" fill="none" stroke-width="4px" />
<path d="M 1850.0 115.0 L 1840.0 115.0" stroke="#FF0000" fill="none" stroke-width="4px" />
<path d="M 1840.0 115.0 L 1830.0 115.0" stroke="#FF0000" fill="none" stroke-width="4px" />
<path d="M 1830.0 115.0 L 1820.0 115.0" stroke="#FF0000" fill="none" stroke-width="4px" />
<path d="M 1820.0 115.0 L 1810.0 115.0" stroke="#FF0000" fill="none" stroke-width="4px" />
<path d="M 1810.0 115.0 L 1810.0 125.0" stroke="#FF0000" fill="none" stroke-width="4px" />
<path d="M 1810.0 125.0 L 1820.0 125.0" stroke="#FF0000" fill="none" stroke-width="4px" />
<path d="M 1820.0 125.0 L 1830.0 125.0" stroke="#FF0000" fill="none" stroke-width="4px" />
<path d="M 1830.0 125.0 L 1840.0 125.0" stroke="#FF0000" fill="none" stroke-width="4px" />
<path d="M 1840.0 125.0 L 1850.0 125.0" stroke="#FF0000" fill="none" stroke-width="4px" />
<path d="M 1850.0 125.0 L 1860.0 125.0" stroke="#FF0000" fill="none" stroke-width="4px" />
<path d="M 1860.0 125.0 L 1870.0 125.0" stroke="#FF0000" fill="none" stroke-width="4px" />
<path d="M 1870.0 125.0 L 1870.0 135.0" stroke="#FF0000" fill="none" stroke-width="4px" />
<path d="M 1870.0 135.0 L 1860.0 135.0" stroke="#FF0000" fill="none" stroke-width="4px" />
<path d="M 1860.0 135.0 L 1850.0 135.0" stroke="#FF0000" fill="none" stroke-width="4px" />
<path d="M 1850.0 135.0 L 1840.0 135.0" stroke="#FF0000" fill="none" stroke-width="4px" />
<path d="M 1840.0 135.0 L 1830.0 135.0" stroke="#FF0000" fill="none" stroke-width="4px" />
<path d="M 1830.0 135.0 L 1820.0 135.0" stroke="#FF0000" fill="none" stroke-width="4px" />
<path d="M 1820.0 135.0 L 1810.0 135.0" stroke="#FF0000" fill="none" stroke-width="4px" />
<path d="M 1810.0 135.0 L 1810.0 145.0" stroke="#FF0000" fill="none" stroke-width="4px" />
<path d="M 1810.0 145.0 L 1820.0 145.0" stroke="#FF0000" fill="none" stroke-width="4px" />
<path d="M 1820.0 145.0 L 1830.0 145.0" stroke="#FF0000" fill="none" stroke-width="4px" />
<path d="M 1830.0 145.0 L 1840.0 145.0" stroke="#FF0000" fill="none" stroke-width="4px" />
<path d="M 1840.0 145.0 L 1850.0 145.0" stroke="#FF0000" fill="none" stroke-width="4px" />
<path d="M 1850.0 145.0 L 1860.0 145.0" stroke="#FF0000" fill="none" stroke-width="4px" />
<path d="M 1860.0 145.0 L 1850.0 155.0" stroke="#FF0000" fill="none" stroke-width="4px" />
<path d="M 1850.0 155.0 L 1840.0 155.0" stroke="#FF0000" fill="none" stroke-width="4px" />
<path d="M 1840.0 155.0 L 1830.0 155.0" stroke="#FF0000" fill="none" stroke-width="4px" />
<path d="M 1830.0 155.0 L 1820.0 155.0" stroke="#FF0000" fill="none" stroke-width="4px" />
<path d="M 1860.0 95.0 L 1850.0 95.0" stroke="#FF0000" fill="none" stroke-width="4px" />
<path d="M 1850.0 95.0 L 1840.0 95.0" stroke="#FF0000" fill="none" stroke-width="4px" />
<path d="M 1840.0 95.0 L 1830.0 95.0" stroke="#FF0000" fill="none" stroke-width="4px" />
<path d="M 1830.0 95.0 L 1820.0 95.0" stroke="#FF0000" fill="none" stroke-width="4px" />
<path d="M 1820.0 95.0 L 1830.0 85.0" stroke="#FF0000" fill="none" stroke-width="4px" />
<path d="M 1830.0 85.0 L 1840.0 85.0" stroke="#FF0000" fill="none" stroke-width="4px" />
<path d="M 1840.0 85.0 L 1850.0 85.0" stroke="#FF0000" fill="none" stroke-width="4px" />
<path d="M 1850.0 85.0 L 1860.0 85.0" stroke="#FF0000" fill="none" stroke-width="4px" />
<path d="M 1860.0 85.0 L 1850.0 75.0" stroke="#FF0000" fill="none" stroke-width="4px" />
<path d="M 1850.0 75.0 L 1840.0 75.0" stroke="#FF0000" fill="none" stroke-width="4px" />
<path d="M 2440.0 75.0 L 2430.0 75.0" stroke="#FF0000" fill="none" stroke-width="4px" />
<path d="M 2430.0 75.0 L 2430.0 65.0" stroke="#FF0000" fill="none" stroke-width="4px" />
<path d="M 2430.0 65.0 L 2420.0 65.0" stroke="#FF0000" fill="none" stroke-width="4px" />
<path d="M 2420.0 65.0 L 2420.0 55.0" stroke="#FF0000" fill="none" stroke-width="4px" />
<path d="M 2420.0 55.0 L 2410.0 55.0" stroke="#FF0000" fill="none" stroke-width="4px" />
<path d="M 2410.0 55.0 L 2410.0 45.0" stroke="#FF0000" fill="none" stroke-width="4px" />
<path d="M 2410.0 45.0 L 2420.0 45.0" stroke="#FF0000" fill="none" stroke-width="4px" />
<path d="M 2420.0 45.0 L 2430.0 45.0" stroke="#FF0000" fill="none" stroke-width="4px" />
<path d="M 2430.0 45.0 L 2440.0 45.0" stroke="#FF0000" fill="none" stroke-width="4px" />
<path d="M 2440.0 45.0 L 2450.0 45.0" stroke="#FF0000" fill="none" stroke-width="4px" />
<path d="M 2450.0 45.0 L 2460.0 45.0" stroke="#FF0000" fill="none" stroke-width="4px" />
<path d="M 2460.0 45.0 L 2460.0 55.0" stroke="#FF0000" fill="none" stroke-width="4px" />
<path d="M 2460.0 55.0 L 2450.0 55.0" stroke="#FF0000" fill="none" stroke-width="4px" />
<path d="M 2450.0 55.0 L 2440.0 55.0" stroke="#FF0000" fill="none" stroke-width="4px" />
<path d="M 2440.0 55.0 L 2430.0 55.0" stroke="#FF0000" fill="none" stroke-width="4px" />
<path d="M 2430.0 55.0 L 2440.0 65.0" stroke="#FF0000" fill="none" stroke-width="4px" />
<path d="M 2440.0 65.0 L 2450.0 65.0" stroke="#FF0000" fill="none" stroke-width="4px" />
<path d="M 2450.0 35.0 L 2440.0 35.0" stroke="#FF0000" fill="none" stroke-width="4px" />
<path d="M 2440.0 35.0 L 2430.0 35.0" stroke="#FF0000" fill="none" stroke-width="4px" />
<path d="M 2430.0 35.0 L 2420.0 35.0" stroke="#FF0000" fill="none" stroke-width="4px" />
<path d="M 2420.0 35.0 L 2430.0 25.0" stroke="#FF0000" fill="none" stroke-width="4px" />
<path d="M 2430.0 25.0 L 2440.0 25.0" stroke="#FF0000" fill="none" stroke-width="4px" />
</svg>