<svg width="1332.95833333" height="235.0" xmlns="http://www.w3.org/2000/svg" version="1.1">
<path d="M 0.0 235.0 L 1332.95833333 235.0 L 1332.95833333 0.0 L 0.0 0.0 L 0.0 235.0" stroke="#000000" fill="none" stroke-width="3px" />
<path d="M 10.0 257.5 L 0.0 247.5 L 10.0 237.5" stroke="#969696" fill="none" stroke-width="1px" />
<path d="M 10.0 237.5 L 1322.95833333 237.5" stroke="#969696" fill="none" stroke-width="1px" />
<path d="M 1322.95833333 237.5 L 1332.95833333 227.5 L 1322.95833333 217.5" stroke="#969696" fill="none" stroke-width="1px" />
<path d="M 1322.95833333 217.5 L 10.0 217.5" stroke="#969696" fill="none" stroke-width="1px" />
<path d="M 10.0 217.5 L 0.0 207.5 L 10.0 197.5" stroke="#969696" fill="none" stroke-width="1px" />
<path d="M 10.0 197.5 L 1322.95833333 197.5" stroke="#969696" fill="none" stroke-width="1px" />
<path d="M 1322.95833333 197.5 L 1332.95833333 187.5 L 1322.95833333 177.5" stroke="#969696" fill="none" stroke-width="1px" />
<path d="M 1322.95833333 177.5 L 10.0 177.5" stroke="#969696" fill="none" stroke-width="1px" />
<path d="M 10.0 177.5 L 0.0 167.5 L 10.0 157.5" stroke="#969696" fill="none" stroke-width="1px" />
<path d="M 10.0 157.5 L 1322.95833333 157.5" stroke="#969696" fill="none" stroke-width="1px" />
<path d="M 1322.95833333 157.5 L 1332.95833333 147.5 L 1322.95833333 137.5" stroke="#969696" fill="none" stroke-width="1px" />
<path d="M 1322.95833333 137.5 L 10.0 137.5" stroke="#969696" fill="none" stroke-width="1px" />
<path d="M 10.0 137.5 L 0.0 127.5 L 10.0 117.5" stroke="#969696" fill="none" stroke-width="1px" />
<path d="M 10.0 117.5 L 1322.95833333 117.5" stroke="#969696" fill="none" stroke-width="1px" />
<path d="M 1322.95833333 117.5 L 1332.95833333 107.5 L 1322.95833333 97.5" stroke="#969696" fill="none" stroke-width="1px" />
<path d="M 1322.95833333 97.5 L 10.0 97.5" stroke="#969696" fill="none" stroke-width="1px" />
<path d="M 10.0 97.5 L 0.0 87.5 L 10.0 77.5" stroke="#969696" fill="none" stroke-width="1px" />
<path d="M 10.0 77.5 L 1322.95833333 77.5" stroke="#969696" fill="none" stroke-width="1px" />
<path d="M 1322.95833333 77.5 L 1332.95833333 67.5 L 1322.95833333 57.5" stroke="#969696" fill="none" stroke-width="1px" />
<path d="M 1322.95833333 57.5 L 10.0 57.5" stroke="#969696" fill="none" stroke-width="1px" />
<path d="M 10.0 57.5 L 0.0 47.5 L 10.0 37.5" stroke="#969696" fill="none" stroke-width="1px" />
<path d="M 10.0 37.5 L 1322.95833333 37.5" stroke="#969696" fill="none" stroke-width="1px" />
<path d="M 1322.95833333 37.5 L 1332.95833333 27.5 L 1322.95833333 17.5" stroke="#969696" fill="none" stroke-width="1px" />
<path d="M 1322.95833333 17.5 L 10.0 17.5" stroke="#969696" fill="none" stroke-width="1px" />
<path d="M 10.0 17.5 L 0.0 7.5 L 10.0 -2.5" stroke="#969696" fill="none" stroke-width="1px" />
<path d="M 10.0 -2.5 L 1322.95833333 -2.5" stroke="#969696" fill="none" stroke-width="1px" />
<path d="M 1322.95833333 -2.5 L 1332.95833333 -12.5 L 1322.95833333 -22.5" stroke="#969696" fill="none" stroke-width="1px" />
<path d="M 0.0 235.0 L 40.0 215.0" stroke="#0095FF" fill="none" stroke-width="2px" />
<path d="M 80.0 205.0 L 70.0 185.0" stroke="#0095FF" fill="none" stroke-width="2px" />
<path d="M 60.0 175.0 L 60.0 225.0" stroke="#0095FF" fill="none" stroke-width="2px" />
<path d="M 50.0 225.0 L 210.0 185.0" stroke="#0095FF" fill="none" stroke-width="2px" />
<path d="M 290.0 185.0 L 250.0 195.0" stroke="#0095FF" fill="none" stroke-width="2px" />
<path d="M 240.0 205.0 L 240.0 155.0" stroke="#0095FF" fill="none" stroke-width="2px" />
<path d="M 230.0 155.0 L 270.0 155.0" stroke="#0095FF" fill="none" stroke-width="2px" />
<path d="M 280.0 145.0 L 310.0 75.0" stroke="#0095FF" fill="none" stroke-width="2px" />
<path d="M 180.0 35.0 L 180.0 55.0" stroke="#0095FF" fill="none" stroke-width="2px" />
<path d="M 200.0 65.0 L 230.0 75.0" stroke="#0095FF" fill="none" stroke-width="2px" />
<path d="M 230.0 75.0 L 280.0 45.0" stroke="#0095FF" fill="none" stroke-width="2px" />
<path d="M 300.0 55.0 L 330.0 35.0" stroke="#0095FF" fill="none" stroke-width="2px" />
<path d="M 330.0 35.0 L 320.0 15.0" stroke="#0095FF" fill="none" stroke-width="2px" />
<path d="M 270.0 5.0 L 310.0 5.0" stroke="#0095FF" fill="none" stroke-width="2px" />
<path d="M 310.0 5.0 L 230.0 15.0" stroke="#0095FF" fill="none" stroke-width="2px" />
<path d="M 180.0 -5.0 L 340.0 65.0" stroke="#0095FF" fill="none" stroke-width="2px" />
<path d="M 340.0 65.0 L 410.0 165.0" stroke="#0095FF" fill="none" stroke-width="2px" />
<path d="M 430.0 215.0 L 430.0 185.0" stroke="#0095FF" fill="none" stroke-width="2px" />
<path d="M 410.0 185.0 L 430.0 175.0" stroke="#0095FF" fill="none" stroke-width="2px" />
<path d="M 440.0 185.0 L 480.0 205.0" stroke="#0095FF" fill="none" stroke-width="2px" />
<path d="M 540.0 145.0 L 530.0 215.0" stroke="#0095FF" fill="none" stroke-width="2px" />
<path d="M 40.0 215.0 L 50.0 215.0" stroke="#FF0000" fill="none" stroke-width="4px" />
<path d="M 50.0 215.0 L 60.0 215.0" stroke="#FF0000" fill="none" stroke-width="4px" />
<path d="M 60.0 215.0 L 70.0 215.0" stroke="#FF0000" fill="none" stroke-width="4px" />
<path d="M 70.0 215.0 L 70.0 205.0" stroke="#FF0000" fill="none" stroke-width="4px" />
<path d="M 70.0 205.0 L 60.0 205.0" stroke="#FF0000" fill="none" stroke-width="4px" />
<path d="M 60.0 205.0 L 50.0 205.0" stroke="#FF0000" fill="none" stroke-width="4px" />
<path d="M 50.0 205.0 L 40.0 205.0" stroke="#FF0000" fill="none" stroke-width="4px" />
<path d="M 40.0 205.0 L 30.0 205.0" stroke="#FF0000" fill="none" stroke-width="4px" />
<path d="M 30.0 205.0 L 30.0 195.0" stroke="#FF0000" fill="none" stroke-width="4px" />
<path d="M 30.0 195.0 L 40.0 195.0" stroke="#FF0000" fill="none" stroke-width="4px" />
<path d="M 40.0 195.0 L 50.0 195.0" stroke="#FF0000" fill="none" stroke-width="4px" />
<path d="M 50.0 195.0 L 60.0 195.0" stroke="#FF0000" fill="none" stroke-width="4px" />
<path d="M 60.0 195.0 L 70.0 195.0" stroke="#FF0000" fill="none" stroke-width="4px" />
<path d="M 70.0 195.0 L 80.0 195.0" stroke="#FF0000" fill="none" stroke-width="4px" />
<path d="M 80.0 195.0 L 80.0 205.0" stroke="#FF0000" fill="none" stroke-width="4px" />
<path d="M 70.0 185.0 L 60.0 185.0" stroke="#FF0000" fill="none" stroke-width="4px" />
<path d="M 60.0 185.0 L 50.0 185.0" stroke="#FF0000" fill="none" stroke-width="4px" />
<path d="M 50.0 185.0 L 40.0 185.0" stroke="#FF0000" fill="none" stroke-width="4px" />
<path d="M 40.0 185.0 L 50.0 175.0" stroke="#FF0000" fill="none" stroke-width="4px" />
<path d="M 50.0 175.0 L 60.0 175.0" stroke="#FF0000" fill="none" stroke-width="4px" />
<path d="M 60.0 225.0 L 50.0 225.0" stroke="#FF0000" fill="none" stroke-width="4px" />
<path d="M 210.0 185.0 L 220.0 185.0" stroke="#FF0000" fill="none" stroke-width="4px" />
<path d="M 220.0 185.0 L 230.0 185.0" stroke="#FF0000" fill="none" stroke-width="4px" />
<path d="M 230.0 185.0 L 240.0 185.0" stroke="#FF0000" fill="none" stroke-width="4px" />
<path d="M 240.0 185.0 L 250.0 185.0" stroke="#FF0000" fill="none" stroke-width="4px" />
<path d="M 250.0 185.0 L 260.0 185.0" stroke="#FF0000" fill="none" stroke-width="4px" />
<path d="M 260.0 185.0 L 260.0 175.0" stroke="#FF0000" fill="none" stroke-width="4px" />
<path d="M 260.0 175.0 L 250.0 175.0" stroke="#FF0000" fill="none" stroke-width="4px" />
<path d="M 250.0 175.0 L 240.0 175.0" stroke="#FF0000" fill="none" stroke-width="4px" />
<path d="M 240.0 175.0 L 230.0 175.0" stroke="#FF0000" fill="none" stroke-width="4px" />
<path d="M 230.0 175.0 L 220.0 175.0" stroke="#FF0000" fill="none" stroke-width="4px" />
<path d="M 220.0 175.0 L 210.0 175.0" stroke="#FF0000" fill="none" stroke-width="4px" />
<path d="M 210.0 175.0 L 220.0 165.0" stroke="#FF0000" fill="none" stroke-width="4px" />
<path d="M 220.0 165.0 L 230.0 165.0" stroke="#FF0000" fill="none" stroke-width="4px" />
<path d="M 230.0 165.0 L 240.0 165.0" stroke="#FF0000" fill="none" stroke-width="4px" />
<path d="M 240.0 165.0 L 250.0 165.0" stroke="#FF0000" fill="none" stroke-width="4px" />
<path d="M 250.0 165.0 L 260.0 165.0" stroke="#FF0000" fill="none" stroke-width="4px" />
<path d="M 260.0 165.0 L 270.0 165.0" stroke="#FF0000" fill="none" stroke-width="4px" />
<path d="M 270.0 165.0 L 280.0 165.0" stroke="#FF0000" fill="none" stroke-width="4px" />
<path d="M 280.0 165.0 L 290.0 165.0" stroke="#FF0000" fill="none" stroke-width="4px" />
<path d="M 290.0 165.0 L 300.0 165.0" stroke="#FF0000" fill="none" stroke-width="4px" />
<path d="M 300.0 165.0 L 310.0 165.0" stroke="#FF0000" fill="none" stroke-width="4px" />
<path d="M 310.0 165.0 L 300.0 175.0" stroke="#FF0000" fill="none" stroke-width="4px" />
<path d="M 300.0 175.0 L 290.0 175.0" stroke="#FF0000" fill="none" stroke-width="4px" />
<path d="M 290.0 175.0 L 280.0 175.0" stroke="#FF0000" fill="none" stroke-width="4px" />
<path d="M 280.0 175.0 L 270.0 175.0" stroke="#FF0000" fill="none" stroke-width="4px" />
<path d="M 270.0 175.0 L 280.0 185.0" stroke="#FF0000" fill="none" stroke-width="4px" />
<path d="M 280.0 185.0 L 290.0 185.0" stroke="#FF0000" fill="none" stroke-width="4px" />
<path d="M 250.0 195.0 L 240.0 195.0" stroke="#FF0000" fill="none" stroke-width="4px" />
<path d="M 240.0 195.0 L 230.0 195.0" stroke="#FF0000" fill="none" stroke-width="4px" />
<path d="M 230.0 195.0 L 220.0 195.0" stroke="#FF0000" fill="none" stroke-width="4px" />
<path d="M 220.0 195.0 L 230.0 205.0" stroke="#FF0000" fill="none" stroke-width="4px" />
<path d="M 230.0 205.0 L 240.0 205.0" stroke="#FF0000" fill="none" stroke-width="4px" />
<path d="M 240.0 155.0 L 230.0 155.0" stroke="#FF0000" fill="none" stroke-width="4px" />
<path d="M 270.0 155.0 L 280.0 155.0" stroke="#FF0000" fill="none" stroke-width="4px" />
<path d="M 280.0 155.0 L 290.0 155.0" stroke="#FF0000" fill="none" stroke-width="4px" />
<path d="M 290.0 155.0 L 300.0 155.0" stroke="#FF0000" fill="none" stroke-width="4px" />
<path d="M 300.0 155.0 L 290.0 145.0" stroke="#FF0000" fill="none" stroke-width="4px" />
<path d="M 290.0 145.0 L 280.0 145.0" stroke="#FF0000" fill="none" stroke-width="4px" />
<path d="M 310.0 75.0 L 320.0 75.0" stroke="#FF0000" fill="none" stroke-width="4px" />
<path d="M 320.0 75.0 L 330.0 75.0" stroke="#FF0000" fill="none" stroke-width="4px" />
<path d="M 330.0 75.0 L 330.0 65.0" stroke="#FF0000" fill="none" stroke-width="4px" />
<path d="M 330.0 65.0 L 320.0 65.0" stroke="#FF0000" fill="none" stroke-width="4px" />
<path d="M 320.0 65.0 L 310.0 65.0" stroke="#FF0000" fill="none" stroke-width="4px" />
<path d="M 310.0 65.0 L 300.0 65.0" stroke="#FF0000" fill="none" stroke-width="4px" />
<path d="M 300.0 65.0 L 290.0 65.0" stroke="#FF0000" fill="none" stroke-width="4px" />
<path d="M 290.0 65.0 L 290.0 55.0" stroke="#FF0000" fill="none" stroke-width="4px" />
<path d="M 290.0 55.0 L 280.0 55.0" stroke="#FF0000" fill="none" stroke-width="4px" />
<path d="M 280.0 55.0 L 270.0 55.0" stroke="#FF0000" fill="none" stroke-width="4px" />
<path d="M 270.0 55.0 L 270.0 45.0" stroke="#FF0000" fill="none" stroke-width="4px" />
<path d="M 270.0 45.0 L 260.0 45.0" stroke="#FF0000" fill="none" stroke-width="4px" />
<path d="M 260.0 45.0 L 250.0 45.0" stroke="#FF0000" fill="none" stroke-width="4px" />
<path d="M 250.0 45.0 L 240.0 45.0" stroke="#FF0000" fill="none" stroke-width="4px" />
<path d="M 240.0 45.0 L 230.0 45.0" stroke="#FF0000" fill="none" stroke-width="4px" />
<path d="M 230.0 45.0 L 220.0 45.0" stroke="#FF0000" fill="none" stroke-width="4px" />
<path d="M 220.0 45.0 L 210.0 45.0" stroke="#FF0000" fill="none" stroke-width="4px" />
<path d="M 210.0 45.0 L 200.0 45.0" stroke="#FF0000" fill="none" stroke-width="4px" />
<path d="M 200.0 45.0 L 190.0 45.0" stroke="#FF0000" fill="none" stroke-width="4px" />
<path d="M 190.0 45.0 L 180.0 45.0" stroke="#FF0000" fill="none" stroke-width="4px" />
<path d="M 180.0 45.0 L 170.0 45.0" stroke="#FF0000" fill="none" stroke-width="4px" />
<path d="M 170.0 45.0 L 170.0 35.0" stroke="#FF0000" fill="none" stroke-width="4px" />
<path d="M 170.0 35.0 L 160.0 35.0" stroke="#FF0000" fill="none" stroke-width="4px" />
<path d="M 160.0 35.0 L 160.0 25.0" stroke="#FF0000" fill="none" stroke-width="4px" />
<path d="M 160.0 25.0 L 170.0 25.0" stroke="#FF0000" fill="none" stroke-width="4px" />
<path d="M 170.0 25.0 L 180.0 25.0" stroke="#FF0000" fill="none" stroke-width="4px" />
<path d="M 180.0 25.0 L 190.0 25.0" stroke="#FF0000" fill="none" stroke-width="4px" />
<path d="M 190.0 25.0 L 200.0 25.0" stroke="#FF0000" fill="none" stroke-width="4px" />
<path d="M 200.0 25.0 L 210.0 25.0" stroke="#FF0000" fill="none" stroke-width="4px" />
<path d="M 210.0 25.0 L 220.0 25.0" stroke="#FF0000" fill="none" stroke-width="4px" />
<path d="M 220.0 25.0 L 230.0 25.0" stroke="#FF0000" fill="none" stroke-width="4px" />
<path d="M 230.0 25.0 L 240.0 25.0" stroke="#FF0000" fill="none" stroke-width="4px" />
<path d="M 240.0 25.0 L 250.0 25.0" stroke="#FF0000" fill="none" stroke-width="4px" />
<path d="M 250.0 25.0 L 260.0 25.0" stroke="#FF0000" fill="none" stroke-width="4px" />
<path d="M 260.0 25.0 L 270.0 25.0" stroke="#FF0000" fill="none" stroke-width="4px" />
<path d="M 270.0 25.0 L 280.0 25.0" stroke="#FF0000" fill="none" stroke-width="4px" />
<path d="M 280.0 25.0 L 290.0 25.0" stroke="#FF0000" fill="none" stroke-width="4px" />
<path d="M 290.0 25.0 L 300.0 25.0" stroke="#FF0000" fill="none" stroke-width="4px" />
<path d="M 300.0 25.0 L 310.0 25.0" stroke="#FF0000" fill="none" stroke-width="4px" />
<path d="M 310.0 25.0 L 320.0 25.0" stroke="#FF0000" fill="none" stroke-width="4px" />
<path d="M 320.0 25.0 L 320.0 35.0" stroke="#FF0000" fill="none" stroke-width="4px" />
<path d="M 320.0 35.0 L 310.0 35.0" stroke="#FF0000" fill="none" stroke-width="4px" />
<path d="M 310.0 35.0 L 300.0 35.0" stroke="#FF0000" fill="none" stroke-width="4px" />
<path d="M 300.0 35.0 L 290.0 35.0" stroke="#FF0000" fill="none" stroke-width="4px" />
<path d="M 290.0 35.0 L 280.0 35.0" stroke="#FF0000" fill="none" stroke-width="4px" />
<path d="M 280.0 35.0 L 270.0 35.0" stroke="#FF0000" fill="none" stroke-width="4px" />
<path d="M 270.0 35.0 L 260.0 35.0" stroke="#FF0000" fill="none" stroke-width="4px" />
<path d="M 260.0 35.0 L 250.0 35.0" stroke="#FF0000" fill="none" stroke-width="4px" />
<path d="M 250.0 35.0 L 240.0 35.0" stroke="#FF0000" fill="none" stroke-width="4px" />
<path d="M 240.0 35.0 L 230.0 35.0" stroke="#FF0000" fill="none" stroke-width="4px" />
<path d="M 230.0 35.0 L 220.0 35.0" stroke="#FF0000" fill="none" stroke-width="4px" />
<path d="M 220.0 35.0 L 210.0 35.0" stroke="#FF0000" fill="none" stroke-width="4px" />
<path d="M 210.0 35.0 L 200.0 35.0" stroke="#FF0000" fill="none" stroke-width="4px" />
<path d="M 200.0 35.0 L 190.0 35.0" stroke="#FF0000" fill="none" stroke-width="4px" />
<path d="M 190.0 35.0 L 180.0 35.0" stroke="#FF0000" fill="none" stroke-width="4px" />
<path d="M 180.0 55.0 L 190.0 55.0" stroke="#FF0000" fill="none" stroke-width="4px" />
<path d="M 190.0 55.0 L 200.0 55.0" stroke="#FF0000" fill="none" stroke-width="4px" />
<path d="M 200.0 55.0 L 210.0 55.0" stroke="#FF0000" fill="none" stroke-width="4px" />
<path d="M 210.0 55.0 L 220.0 55.0" stroke="#FF0000" fill="none" stroke-width="4px" />
<path d="M 220.0 55.0 L 230.0 55.0" stroke="#FF0000" fill="none" stroke-width="4px" />
<path d="M 230.0 55.0 L 240.0 55.0" stroke="#FF0000" fill="none" stroke-width="4px" />
<path d="M 240.0 55.0 L 250.0 55.0" stroke="#FF0000" fill="none" stroke-width="4px" />
<path d="M 250.0 55.0 L 240.0 65.0" stroke="#FF0000" fill="none" stroke-width="4px" />
<path d="M 240.0 65.0 L 230.0 65.0" stroke="#FF0000" fill="none" stroke-width="4px" />
<path d="M 230.0 65.0 L 220.0 65.0" stroke="#FF0000" fill="none" stroke-width="4px" />
<path d="M 220.0 65.0 L 210.0 65.0" stroke="#FF0000" fill="none" stroke-width="4px" />
<path d="M 210.0 65.0 L 200.0 65.0" stroke="#FF0000" fill="none" stroke-width="4px" />
<path d="M 280.0 45.0 L 290.0 45.0" stroke="#FF0000" fill="none" stroke-width="4px" />
<path d="M 290.0 45.0 L 300.0 45.0" stroke="#FF0000" fill="none" stroke-width="4px" />
<path d="M 300.0 45.0 L 310.0 45.0" stroke="#FF0000" fill="none" stroke-width="4px" />
<path d="M 310.0 45.0 L 320.0 45.0" stroke="#FF0000" fill="none" stroke-width="4px" />
<path d="M 320.0 45.0 L 330.0 45.0" stroke="#FF0000" fill="none" stroke-width="4px" />
<path d="M 330.0 45.0 L 340.0 45.0" stroke="#FF0000" fill="none" stroke-width="4px" />
<path d="M 340.0 45.0 L 340.0 55.0" stroke="#FF0000" fill="none" stroke-width="4px" />
<path d="M 340.0 55.0 L 330.0 55.0" stroke="#FF0000" fill="none" stroke-width="4px" />
<path d="M 330.0 55.0 L 320.0 55.0" stroke="#FF0000" fill="none" stroke-width="4px" />
<path d="M 320.0 55.0 L 310.0 55.0" stroke="#FF0000" fill="none" stroke-width="4px" />
<path d="M 310.0 55.0 L 300.0 55.0" stroke="#FF0000" fill="none" stroke-width="4px" />
<path d="M 320.0 15.0 L 310.0 15.0" stroke="#FF0000" fill="none" stroke-width="4px" />
<path d="M 310.0 15.0 L 300.0 15.0" stroke="#FF0000" fill="none" stroke-width="4px" />
<path d="M 300.0 15.0 L 290.0 15.0" stroke="#FF0000" fill="none" stroke-width="4px" />
<path d="M 290.0 15.0 L 280.0 15.0" stroke="#FF0000" fill="none" stroke-width="4px" />
<path d="M 280.0 15.0 L 270.0 15.0" stroke="#FF0000" fill="none" stroke-width="4px" />
<path d="M 270.0 15.0 L 260.0 15.0" stroke="#FF0000" fill="none" stroke-width="4px" />
<path d="M 260.0 15.0 L 260.0 5.0" stroke="#FF0000" fill="none" stroke-width="4px" />
<path d="M 260.0 5.0 L 250.0 5.0" stroke="#FF0000" fill="none" stroke-width="4px" />
<path d="M 250.0 5.0 L 250.0 -5.0" stroke="#FF0000" fill="none" stroke-width="4px" />
<path d="M 250.0 -5.0 L 260.0 -5.0" stroke="#FF0000" fill="none" stroke-width="4px" />
<path d="M 260.0 -5.0 L 270.0 -5.0" stroke="#FF0000" fill="none" stroke-width="4px" />
<path d="M 270.0 -5.0 L 280.0 -5.0" stroke="#FF0000" fill="none" stroke-width="4px" />
<path d="M 280.0 -5.0 L 290.0 -5.0" stroke="#FF0000" fill="none" stroke-width="4px" />
<path d="M 290.0 -5.0 L 300.0 -5.0" stroke="#FF0000" fill="none" stroke-width="4px" />
<path d="M 300.0 -5.0 L 300.0 5.0" stroke="#FF0000" fill="none" stroke-width="4px" />
<path d="M 300.0 5.0 L 290.0 5.0" stroke="#FF0000" fill="none" stroke-width="4px" />
<path d="M 290.0 5.0 L 280.0 5.0" stroke="#FF0000" fill="none" stroke-width="4px" />
<path d="M 280.0 5.0 L 270.0 5.0" stroke="#FF0000" fill="none" stroke-width="4px" />
<path d="M 230.0 15.0 L 220.0 15.0" stroke="#FF0000" fill="none" stroke-width="4px" />
<path d="M 220.0 15.0 L 210.0 15.0" stroke="#FF0000" fill="none" stroke-width="4px" />
<path d="M 210.0 15.0 L 200.0 15.0" stroke="#FF0000" fill="none" stroke-width="4px" />
<path d="M 200.0 15.0 L 190.0 15.0" stroke="#FF0000" fill="none" stroke-width="4px" />
<path d="M 190.0 15.0 L 180.0 15.0" stroke="#FF0000" fill="none" stroke-width="4px" />
<path d="M 180.0 15.0 L 170.0 15.0" stroke="#FF0000" fill="none" stroke-width="4px" />
<path d="M 170.0 15.0 L 180.0 5.0" stroke="#FF0000" fill="none" stroke-width="4px" />
<path d="M 180.0 5.0 L 190.0 5.0" stroke="#FF0000" fill="none" stroke-width="4px" />
<path d="M 190.0 5.0 L 200.0 5.0" stroke="#FF0000" fill="none" stroke-width="4px" />
<path d="M 200.0 5.0 L 210.0 5.0" stroke="#FF0000" fill="none" stroke-width="4px" />
<path d="M 210.0 5.0 L 210.0 -5.0" stroke="#FF0000" fill="none" stroke-width="4px" />
<path d="M 210.0 -5.0 L 200.0 -5.0" stroke="#FF0000" fill="none" stroke-width="4px" />
<path d="M 200.0 -5.0 L 190.0 -5.0" stroke="#FF0000" fill="none" stroke-width="4px" />
<path d="M 190.0 -5.0 L 180.0 -5.0" stroke="#FF0000" fill="none" stroke-width="4px" />
<path d="M 410.0 165.0 L 420.0 165.0" stroke="#FF0000" fill="none" stroke-width="4px" />
<path d="M 420.0 165.0 L 420.0 175.0" stroke="#FF0000" fill="none" stroke-width="4px" />
<path d="M 420.0 175.0 L 410.0 175.0" stroke="#FF0000" fill="none" stroke-width="4px" />
<path d="M 410.0 175.0 L 400.0 175.0" stroke="#FF0000" fill="none" stroke-width="4px" />
<path d="M 400.0 175.0 L 400.0 185.0" stroke="#FF0000" fill="none" stroke-width="4px" />
<path d="M 400.0 185.0 L 390.0 185.0" stroke="#FF0000" fill="none" stroke-width="4px" />
<path d="M 390.0 185.0 L 390.0 195.0" stroke="#FF0000" fill="none" stroke-width="4px" />
<path d="M 390.0 195.0 L 400.0 195.0" stroke="#FF0000" fill="none" stroke-width="4px" />
<path d="M 400.0 195.0 L 410.0 195.0" stroke="#FF0000" fill="none" stroke-width="4px" />
<path d="M 410.0 195.0 L 420.0 195.0" stroke="#FF0000" fill="none" stroke-width="4px" />
<path d="M 420.0 195.0 L 430.0 195.0" stroke="#FF0000" fill="none" stroke-width="4px" />
<path d="M 430.0 195.0 L 440.0 195.0" stroke="#FF0000" fill="none" stroke-width="4px" />
<path d="M 440.0 195.0 L 440.0 205.0" stroke="#FF0000" fill="none" stroke-width="4px" />
<path d="M 440.0 205.0 L 430.0 205.0" stroke="#FF0000" fill="none" stroke-width="4px" />
<path d="M 430.0 205.0 L 420.0 205.0" stroke="#FF0000" fill="none" stroke-width="4px" />
<path d="M 420.0 205.0 L 410.0 205.0" stroke="#FF0000" fill="none" stroke-width="4px" />
<path d="M 410.0 205.0 L 400.0 205.0" stroke="#FF0000" fill="none" stroke-width="4px" />
<path d="M 400.0 205.0 L 390.0 205.0" stroke="#FF0000" fill="none" stroke-width="4px" />
<path d="M 390.0 205.0 L 400.0 215.0" stroke="#FF0000" fill="none" stroke-width="4px" />
<path d="M 400.0 215.0 L 410.0 215.0" stroke="#FF0000" fill="none" stroke-width="4px" />
<path d="M 410.0 215.0 L 420.0 215.0" stroke="#FF0000" fill="none" stroke-width="4px" />
<path d="M 420.0 215.0 L 430.0 215.0" stroke="#FF0000" fill="none" stroke-width="4px" />
<path d="M 430.0 185.0 L 420.0 185.0" stroke="#FF0000" fill="none" stroke-width="4px" />
<path d="M 420.0 185.0 L 410.0 185.0" stroke="#FF0000" fill="none" stroke-width="4px" />
<path d="M 430.0 175.0 L 440.0 185.0" stroke="#FF0000" fill="none" stroke-width="4px" />
<path d="M 480.0 205.0 L 490.0 205.0" stroke="#FF0000" fill="none" stroke-width="4px" />
<path d="M 490.0 205.0 L 500.0 205.0" stroke="#FF0000" fill="none" stroke-width="4px" />
<path d="M 500.0 205.0 L 510.0 205.0" stroke="#FF0000" fill="none" stroke-width="4px" />
<path d="M 510.0 205.0 L 520.0 205.0" stroke="#FF0000" fill="none" stroke-width="4px" />
<path d="M 520.0 205.0 L 530.0 205.0" stroke="#FF0000" fill="none" stroke-width="4px" />
<path d="M 530.0 205.0 L 540.0 205.0" stroke="#FF0000" fill="none" stroke-width="4px" />
<path d="M 540.0 205.0 L 540.0 195.0" stroke="#FF0000" fill="none" stroke-width="4px" />
<path d="M 540.0 195.0 L 530.0 195.0" stroke="#FF0000" fill="none" stroke-width="4px" />
<path d="M 530.0 195.0 L 520.0 195.0" stroke="#FF0000" fill="none" stroke-width="4px" />
<path d="M 520.0 195.0 L 510.0 195.0" stroke="#FF0000" fill="none" stroke-width="4px" />
<path d="M 510.0 195.0 L 500.0 195.0" stroke="#FF0000" fill="none" stroke-width="4px" />
<path d="M 500.0 195.0 L 490.0 195.0" stroke="#FF0000" fill="none" stroke-width="4px" />
<path d="M 490.0 195.0 L 490.0 185.0" stroke="#FF0000" fill="none" stroke-width="4px" />
<path d="M 490.0 185.0 L 500.0 185.0" stroke="#FF0000" fill="none" stroke-width="4px" />
<path d="M 500.0 185.0 L 510.0 185.0" stroke="#FF0000" fill="none" stroke-width="4px" />
<path d="M 510.0 185.0 L 520.0 185.0" stroke="#FF0000" fill="none" stroke-width="4px" />
<path d="M 520.0 185.0 L 530.0 185.0" stroke="#FF0000" fill="none" stroke-width="4px" />
<path d="M 530.0 185.0 L 540.0 185.0" stroke="#FF0000" fill="none" stroke-width="4px" />
<path d="M 540.0 185.0 L 550.0 185.0" stroke="#FF0000" fill="none" stroke-width="4px" />
<path d="M 550.0 185.0 L 550.0 175.0" stroke="#FF0000" fill="none" stroke-width="4px" />
<path d="M 550.0 175.0 L 540.0 175.0" stroke="#FF0000" fill="none" stroke-width="4px" />
<path d="M 540.0 175.0 L 530.0 175.0" stroke="#FF0000" fill="none" stroke-width="4px" />
<path d="M 530.0 175.0 L 520.0 175.0" stroke="#FF0000" fill="none" stroke-width="4px" />
<path d="M 520.0 175.0 L 510.0 175.0" stroke="#FF0000" fill="none" stroke-width="4px" />
<path d="M 510.0 175.0 L 500.0 175.0" stroke="#FF0000" fill="none" stroke-width="4px" />
<path d="M 500.0 175.0 L 490.0 175.0" stroke="#FF0000" fill="none" stroke-width="4px" />
<path d="M 490.0 175.0 L 500.0 165.0" stroke="#FF0000" fill="none" stroke-width="4px" />
<path d="M 500.0 165.0 L 510.0 165.0" stroke="#FF0000" fill="none" stroke-width="4px" />
<path d="M 510.0 165.0 L 520.0 165.0" stroke="#FF0000" fill="none" stroke-width="4px" />
<path d="M 520.0 165.0 L 530.0 165.0" stroke="#FF0000" fill="none" stroke-width="4px" />
<path d="M 530.0 165.0 L 540.0 165.0" stroke="#FF0000" fill="none" stroke-width="4px" />
<path d="M 540.0 165.0 L 550.0 165.0" stroke="#FF0000" fill="none" stroke-width="4px" />
<path d="M 550.0 165.0 L 550.0 155.0" stroke="#FF0000" fill="none" stroke-width="4px" />
<path d="M 550.0 155.0 L 540.0 155.0" stroke="#FF0000" fill="none" stroke-width="4px" />
<path d="M 540.0 155.0 L 530.0 155.0" stroke="#FF0000" fill="none" stroke-width="4px" />
<path d="M 530.0 155.0 L 520.0 155.0" stroke="#FF0000" fill="none" stroke-width="4px" />
<path d="M 520.0 155.0 L 510.0 155.0" stroke="#FF0000" fill="none" stroke-width="4px" />
<path d="M 510.0 155.0 L 500.0 155.0" stroke="#FF0000" fill="none" stroke-width="4px" />
<path d="M 500.0 155.0 L 510.0 145.0" stroke="#FF0000" fill="none" stroke-width="4px" />
<path d="M 510.0 145.0 L 520.0 145.0" stroke="#FF0000" fill="none" stroke-width="4px" />
<path d="M 520.0 145.0 L 530.0 145.0" stroke="#FF0000" fill="none" stroke-width="4px" />
<path d="M 530.0 145.0 L 540.0 145.0" stroke="#FF0000" fill="none" stroke-width="4px" />
<path d="M 530.0 215.0 L 520.0 215.0" stroke="#FF0000" fill="none" stroke-width="4px" />
<path d="M 520.0 215.0 L 510.0 215.0" stroke="#FF0000" fill="none" stroke-width="4px" />
<path d="M 510.0 215.0 L 500.0 215.0" stroke="#FF0000" fill="none" stroke-width="4px" />
<path d="M 500.0 215.0 L 490.0 215.0" stroke="#FF0000" fill="none" stroke-width="4px" />
<path d="M 490.0 215.0 L 480.0 215.0" stroke="#FF0000" fill="none" stroke-width="4px" />
<path d="M 480.0 215.0 L 480.0 225.0" stroke="#FF0000" fill="none" stroke-width="4px" />
<path d="M 480.0 225.0 L 490.0 225.0" stroke="#FF0000" fill="none" stroke-width="4px" />
<path d="M 490.0 225.0 L 500.0 225.0" stroke="#FF0000" fill="none" stroke-width="4px" />
<path d="M 500.0 225.0 L 510.0 225.0" stroke="#FF0000" fill="none" stroke-width="4px" />
<path d="M 510.0 225.0 L 520.0 225.0" stroke="#FF0000" fill="none" stroke-width="4px" />
<path d="M 520.0 225.0 L 530.0 225.0" stroke="#FF0000" fill="none" stroke-width="4px" />
<path d="M 530.0 225.0 L 520.0 235.0" stroke="#FF0000" fill="none" stroke-width="4px" />
<path d="M 520.0 235.0 L 510.0 235.0" stroke="#FF0000" fill="none" stroke-width="4px" />
<path d="M 510.0 235.0 L 500.0 235.0" stroke="#FF0000" fill="none" stroke-width="4px" />
<path d="M 500.0 235.0 L 490.0 235.0" stroke="#FF0000" fill="none" stroke-width="4px" />
<path d="M 490.0 235.0 L 480.0 235.0" stroke="#FF0000" fill="none" stroke-width="4px" />
</svg>