<svg width="2472.26666667" height="235.0" xmlns="http://www.w3.org/2000/svg" version="1.1">
<path d="M 0.0 235.0 L 1985.0 235.0 L 1985.0 0.0 L 0.0 0.0 L 0.0 235.0" stroke="#000000" fill="none" stroke-width="3px" />
<path d="M 2472.26666667 235.0 L 1885.0 235.0 L 1885.0 0.0 L 2472.26666667 0.0 L 2472.26666667 235.0" stroke="#000000" fill="none" stroke-width="3px" />
<path d="M 10.0 257.5 L 0.0 247.5 L 10.0 237.5" stroke="#969696" fill="none" stroke-width="1px" />
<path d="M 10.0 237.5 L 1975.0 237.5" stroke="#969696" fill="none" stroke-width="1px" />
<path d="M 1975.0 237.5 L 1985.0 227.5 L 1975.0 217.5" stroke="#969696" fill="none" stroke-width="1px" />
<path d="M 1975.0 217.5 L 10.0 217.5" stroke="#969696" fill="none" stroke-width="1px" />
<path d="M 10.0 217.5 L 0.0 207.5 L 10.0 197.5" stroke="#969696" fill="none" stroke-width="1px" />
<path d="M 10.0 197.5 L 1975.0 197.5" stroke="#969696" fill="none" stroke-width="1px" />
<path d="M 1975.0 197.5 L 1985.0 187.5 L 1975.0 177.5" stroke="#969696" fill="none" stroke-width="1px" />
<path d="M 1975.0 177.5 L 10.0 177.5" stroke="#969696" fill="none" stroke-width="1px" />
<path d="M 10.0 177.5 L 0.0 167.5 L 10.0 157.5" stroke="#969696" fill="none" stroke-width="1px" />
<path d="M 10.0 157.5 L 1975.0 157.5" stroke="#969696" fill="none" stroke-width="1px" />
<path d="M 1975.0 157.5 L 1985.0 147.5 L 1975.0 137.5" stroke="#969696" fill="none" stroke-width="1px" />
<path d="M 1975.0 137.5 L 10.0 137.5" stroke="#969696" fill="none" stroke-width="1px" />
<path d="M 10.0 137.5 L 0.0 127.5 L 10.0 117.5" stroke="#969696" fill="none" stroke-width="1px" />
<path d="M 10.0 117.5 L 1975.0 117.5" stroke="#969696" fill="none" stroke-width="1px" />
<path d="M 1975.0 117.5 L 1985.0 107.5 L 1975.0 97.5" stroke="#969696" fill="none" stroke-width="1px" />
<path d="M 1975.0 97.5 L 10.0 97.5" stroke="#969696" fill="none" stroke-width="1px" />
<path d="M 10.0 97.5 L 0.0 87.5 L 10.0 77.5" stroke="#969696" fill="none" stroke-width="1px" />
<path d="M 10.0 77.5 L 1975.0 77.5" stroke="#969696" fill="none" stroke-width="1px" />
<path d="M 1975.0 77.5 L 1985.0 67.5 L 1975.0 57.5" stroke="#969696" fill="none" stroke-width="1px" />
<path d="M 1975.0 57.5 L 10.0 57.5" stroke="#969696" fill="none" stroke-width="1px" />
<path d="M 10.0 57.5 L 0.0 47.5 L 10.0 37.5" stroke="#969696" fill="none" stroke-width="1px" />
<path d="M 10.0 37.5 L 1975.0 37.5" stroke="#969696" fill="none" stroke-width="1px" />
<path d="M 1975.0 37.5 L 1985.0 27.5 L 1975.0 17.5" stroke="#969696" fill="none" stroke-width="1px" />
<path d="M 1975.0 17.5 L 10.0 17.5" stroke="#969696" fill="none" stroke-width="1px" />
<path d="M 10.0 17.5 L 0.0 7.5 L 10.0 -2.5" stroke="#969696" fill="none" stroke-width="1px" />
<path d="M 10.0 -2.5 L 1975.0 -2.5" stroke="#969696" fill="none" stroke-width="1px" />
<path d="M 1975.0 -2.5 L 1985.0 -12.5 L 1975.0 -22.5" stroke="#969696" fill="none" stroke-width="1px" />
<path d="M 2462.26666667 257.5 L 2472.26666667 247.5 L 2462.26666667 237.5" stroke="#969696" fill="none" stroke-width="1px" />
<path d="M 2462.26666667 237.5 L 1895.0 237.5" stroke="#969696" fill="none" stroke-width="1px" />
<path d="M 1895.0 237.5 L 1885.0 227.5 L 1895.0 217.5" stroke="#969696" fill="none" stroke-width="1px" />
<path d="M 1895.0 217.5 L 2462.26666667 217.5" stroke="#969696" fill="none" stroke-width="1px" />
<path d="M 2462.26666667 217.5 L 2472.26666667 207.5 L 2462.26666667 197.5" stroke="#969696" fill="none" stroke-width="1px" />
<path d="M 2462.26666667 197.5 L 1895.0 197.5" stroke="#969696" fill="none" stroke-width="1px" />
<path d="M 1895.0 197.5 L 1885.0 187.5 L 1895.0 177.5" stroke="#969696" fill="none" stroke-width="1px" />
<path d="M 1895.0 177.5 L 2462.26666667 177.5" stroke="#969696" fill="none" stroke-width="1px" />
<path d="M 2462.26666667 177.5 L 2472.26666667 167.5 L 2462.26666667 157.5" stroke="#969696" fill="none" stroke-width="1px" />
<path d="M 2462.26666667 157.5 L 1895.0 157.5" stroke="#969696" fill="none" stroke-width="1px" />
<path d="M 1895.0 157.5 L 1885.0 147.5 L 1895.0 137.5" stroke="#969696" fill="none" stroke-width="1px" />
<path d="M 1895.0 137.5 L 2462.26666667 137.5" stroke="#969696" fill="none" stroke-width="1px" />
<path d="M 2462.26666667 137.5 L 2472.26666667 127.5 L 2462.26666667 117.5" stroke="#969696" fill="none" stroke-width="1px" />
<path d="M 2462.26666667 117.5 L 1895.0 117.5" stroke="#969696" fill="none" stroke-width="1px" />
<path d="M 1895.0 117.5 L 1885.0 107.5 L 1895.0 97.5" stroke="#969696" fill="none" stroke-width="1px" />
<path d="M 1895.0 97.5 L 2462.26666667 97.5" stroke="#969696" fill="none" stroke-width="1px" />
<path d="M 2462.26666667 97.5 L 2472.26666667 87.5 L 2462.26666667 77.5" stroke="#969696" fill="none" stroke-width="1px" />
<path d="M 2462.26666667 77.5 L 1895.0 77.5" stroke="#969696" fill="none" stroke-width="1px" />
<path d="M 1895.0 77.5 L 1885.0 67.5 L 1895.0 57.5" stroke="#969696" fill="none" stroke-width="1px" />
<path d="M 1895.0 57.5 L 2462.26666667 57.5" stroke="#969696" fill="none" stroke-width="1px" />
<path d="M 2462.26666667 57.5 L 2472.26666667 47.5 L 2462.26666667 37.5" stroke="#969696" fill="none" stroke-width="1px" />
<path d="M 2462.26666667 37.5 L 1895.0 37.5" stroke="#969696" fill="none" stroke-width="1px" />
<path d="M 1895.0 37.5 L 1885.0 27.5 L 1895.0 17.5" stroke="#969696" fill="none" stroke-width="1px" />
<path d="M 1895.0 17.5 L 2462.26666667 17.5" stroke="#969696" fill="none" stroke-width="1px" />
<path d="M 2462.26666667 17.5 L 2472.26666667 7.5 L 2462.26666667 -2.5" stroke="#969696" fill="none" stroke-width="1px" />
<path d="M 2462.26666667 -2.5 L 1895.0 -2.5" stroke="#969696" fill="none" stroke-width="1px" />
<path d="M 1895.0 -2.5 L 1885.0 -12.5 L 1895.0 -22.5" stroke="#969696" fill="none" stroke-width="1px" />
<path d="M 0.0 235.0 L 220.0 185.0" stroke="#0095FF" fill="none" stroke-width="2px" />
<path d="M 230.0 165.0 L 230.0 145.0" stroke="#0095FF" fill="none" stroke-width="2px" />
<path d="M 240.0 135.0 L 280.0 165.0" stroke="#0095FF" fill="none" stroke-width="2px" />
<path d="M 290.0 175.0 L 270.0 195.0" stroke="#0095FF" fill="none" stroke-width="2px" />
<path d="M 260.0 205.0 L 400.0 135.0" stroke="#0095FF" fill="none" stroke-width="2px" />
<path d="M 450.0 125.0 L 450.0 105.0" stroke="#0095FF" fill="none" stroke-width="2px" />
<path d="M 410.0 85.0 L 570.0 135.0" stroke="#0095FF" fill="none" stroke-width="2px" />
<path d="M 640.0 215.0 L 640.0 165.0" stroke="#0095FF" fill="none" stroke-width="2px" />
<path d="M 640.0 165.0 L 620.0 145.0" stroke="#0095FF" fill="none" stroke-width="2px" />
<path d="M 620.0 145.0 L 600.0 125.0" stroke="#0095FF" fill="none" stroke-width="2px" />
<path d="M 590.0 115.0 L 930.0 195.0" stroke="#0095FF" fill="none" stroke-width="2px" />
<path d="M 980.0 205.0 L 970.0 225.0" stroke="#0095FF" fill="none" stroke-width="2px" />
<path d="M 960.0 235.0 L 960.0 185.0" stroke="#0095FF" fill="none" stroke-width="2px" />
<path d="M 950.0 175.0 L 1110.0 175.0" stroke="#0095FF" fill="none" stroke-width="2px" />
<path d="M 1130.0 205.0 L 1130.0 165.0" stroke="#0095FF" fill="none" stroke-width="2px" />
<path d="M 1140.0 165.0 L 1210.0 145.0" stroke="#0095FF" fill="none" stroke-width="2px" />
<path d="M 1230.0 75.0 L 1230.0 155.0" stroke="#0095FF" fill="none" stroke-width="2px" />
<path d="M 1260.0 155.0 L 1440.0 115.0" stroke="#0095FF" fill="none" stroke-width="2px" />
<path d="M 1470.0 75.0 L 1470.0 125.0" stroke="#0095FF" fill="none" stroke-width="2px" />
<path d="M 1500.0 135.0 L 1820.0 125.0" stroke="#0095FF" fill="none" stroke-width="2px" />
<path d="M 1860.0 85.0 L 1880.0 75.0" stroke="#0095FF" fill="none" stroke-width="2px" />
<path d="M 1910.0 65.0 L 1910.0 45.0" stroke="#0095FF" fill="none" stroke-width="2px" />
<path d="M 1900.0 35.0 L 1850.0 135.0" stroke="#0095FF" fill="none" stroke-width="2px" />
<path d="M 2472.26666667 235.0 L 2300.0 135.0" stroke="#0095FF" fill="none" stroke-width="2px" />
<path d="M 2320.0 115.0 L 2300.0 95.0" stroke="#0095FF" fill="none" stroke-width="2px" />
<path d="M 220.0 185.0 L 230.0 185.0" stroke="#FF0000" fill="none" stroke-width="4px" />
<path d="M 230.0 185.0 L 240.0 185.0" stroke="#FF0000" fill="none" stroke-width="4px" />
<path d="M 240.0 185.0 L 250.0 185.0" stroke="#FF0000" fill="none" stroke-width="4px" />
<path d="M 250.0 185.0 L 260.0 185.0" stroke="#FF0000" fill="none" stroke-width="4px" />
<path d="M 260.0 185.0 L 270.0 185.0" stroke="#FF0000" fill="none" stroke-width="4px" />
<path d="M 270.0 185.0 L 280.0 185.0" stroke="#FF0000" fill="none" stroke-width="4px" />
<path d="M 280.0 185.0 L 280.0 175.0" stroke="#FF0000" fill="none" stroke-width="4px" />
<path d="M 280.0 175.0 L 270.0 175.0" stroke="#FF0000" fill="none" stroke-width="4px" />
<path d="M 270.0 175.0 L 260.0 175.0" stroke="#FF0000" fill="none" stroke-width="4px" />
<path d="M 260.0 175.0 L 250.0 175.0" stroke="#FF0000" fill="none" stroke-width="4px" />
<path d="M 250.0 175.0 L 240.0 175.0" stroke="#FF0000" fill="none" stroke-width="4px" />
<path d="M 240.0 175.0 L 230.0 175.0" stroke="#FF0000" fill="none" stroke-width="4px" />
<path d="M 230.0 175.0 L 220.0 175.0" stroke="#FF0000" fill="none" stroke-width="4px" />
<path d="M 220.0 175.0 L 220.0 165.0" stroke="#FF0000" fill="none" stroke-width="4px" />
<path d="M 220.0 165.0 L 210.0 165.0" stroke="#FF0000" fill="none" stroke-width="4px" />
<path d="M 210.0 165.0 L 210.0 155.0" stroke="#FF0000" fill="none" stroke-width="4px" />
<path d="M 210.0 155.0 L 220.0 155.0" stroke="#FF0000" fill="none" stroke-width="4px" />
<path d="M 220.0 155.0 L 230.0 155.0" stroke="#FF0000" fill="none" stroke-width="4px" />
<path d="M 230.0 155.0 L 240.0 155.0" stroke="#FF0000" fill="none" stroke-width="4px" />
<path d="M 240.0 155.0 L 250.0 155.0" stroke="#FF0000" fill="none" stroke-width="4px" />
<path d="M 250.0 155.0 L 260.0 155.0" stroke="#FF0000" fill="none" stroke-width="4px" />
<path d="M 260.0 155.0 L 270.0 155.0" stroke="#FF0000" fill="none" stroke-width="4px" />
<path d="M 270.0 155.0 L 270.0 165.0" stroke="#FF0000" fill="none" stroke-width="4px" />
<path d="M 270.0 165.0 L 260.0 165.0" stroke="#FF0000" fill="none" stroke-width="4px" />
<path d="M 260.0 165.0 L 250.0 165.0" stroke="#FF0000" fill="none" stroke-width="4px" />
<path d="M 250.0 165.0 L 240.0 165.0" stroke="#FF0000" fill="none" stroke-width="4px" />
<path d="M 240.0 165.0 L 230.0 165.0" stroke="#FF0000" fill="none" stroke-width="4px" />
<path d="M 230.0 145.0 L 220.0 145.0" stroke="#FF0000" fill="none" stroke-width="4px" />
<path d="M 220.0 145.0 L 240.0 145.0" stroke="#FF0000" fill="none" stroke-width="4px" />
<path d="M 240.0 145.0 L 250.0 145.0" stroke="#FF0000" fill="none" stroke-width="4px" />
<path d="M 250.0 145.0 L 260.0 145.0" stroke="#FF0000" fill="none" stroke-width="4px" />
<path d="M 260.0 145.0 L 250.0 135.0" stroke="#FF0000" fill="none" stroke-width="4px" />
<path d="M 250.0 135.0 L 240.0 135.0" stroke="#FF0000" fill="none" stroke-width="4px" />
<path d="M 280.0 165.0 L 290.0 175.0" stroke="#FF0000" fill="none" stroke-width="4px" />
<path d="M 270.0 195.0 L 260.0 195.0" stroke="#FF0000" fill="none" stroke-width="4px" />
<path d="M 260.0 195.0 L 250.0 195.0" stroke="#FF0000" fill="none" stroke-width="4px" />
<path d="M 250.0 195.0 L 240.0 195.0" stroke="#FF0000" fill="none" stroke-width="4px" />
<path d="M 240.0 195.0 L 230.0 195.0" stroke="#FF0000" fill="none" stroke-width="4px" />
<path d="M 230.0 195.0 L 240.0 205.0" stroke="#FF0000" fill="none" stroke-width="4px" />
<path d="M 240.0 205.0 L 250.0 205.0" stroke="#FF0000" fill="none" stroke-width="4px" />
<path d="M 250.0 205.0 L 260.0 205.0" stroke="#FF0000" fill="none" stroke-width="4px" />
<path d="M 400.0 135.0 L 410.0 135.0" stroke="#FF0000" fill="none" stroke-width="4px" />
<path d="M 410.0 135.0 L 420.0 135.0" stroke="#FF0000" fill="none" stroke-width="4px" />
<path d="M 420.0 135.0 L 430.0 135.0" stroke="#FF0000" fill="none" stroke-width="4px" />
<path d="M 430.0 135.0 L 440.0 135.0" stroke="#FF0000" fill="none" stroke-width="4px" />
<path d="M 440.0 135.0 L 440.0 125.0" stroke="#FF0000" fill="none" stroke-width="4px" />
<path d="M 440.0 125.0 L 430.0 125.0" stroke="#FF0000" fill="none" stroke-width="4px" />
<path d="M 430.0 125.0 L 420.0 125.0" stroke="#FF0000" fill="none" stroke-width="4px" />
<path d="M 420.0 125.0 L 410.0 125.0" stroke="#FF0000" fill="none" stroke-width="4px" />
<path d="M 410.0 125.0 L 400.0 125.0" stroke="#FF0000" fill="none" stroke-width="4px" />
<path d="M 400.0 125.0 L 390.0 125.0" stroke="#FF0000" fill="none" stroke-width="4px" />
<path d="M 390.0 125.0 L 390.0 115.0" stroke="#FF0000" fill="none" stroke-width="4px" />
<path d="M 390.0 115.0 L 400.0 115.0" stroke="#FF0000" fill="none" stroke-width="4px" />
<path d="M 400.0 115.0 L 410.0 115.0" stroke="#FF0000" fill="none" stroke-width="4px" />
<path d="M 410.0 115.0 L 420.0 115.0" stroke="#FF0000" fill="none" stroke-width="4px" />
<path d="M 420.0 115.0 L 430.0 115.0" stroke="#FF0000" fill="none" stroke-width="4px" />
<path d="M 430.0 115.0 L 440.0 115.0" stroke="#FF0000" fill="none" stroke-width="4px" />
<path d="M 440.0 115.0 L 450.0 115.0" stroke="#FF0000" fill="none" stroke-width="4px" />
<path d="M 450.0 115.0 L 450.0 125.0" stroke="#FF0000" fill="none" stroke-width="4px" />
<path d="M 450.0 105.0 L 440.0 105.0" stroke="#FF0000" fill="none" stroke-width="4px" />
<path d="M 440.0 105.0 L 430.0 105.0" stroke="#FF0000" fill="none" stroke-width="4px" />
<path d="M 430.0 105.0 L 420.0 105.0" stroke="#FF0000" fill="none" stroke-width="4px" />
<path d="M 420.0 105.0 L 410.0 105.0" stroke="#FF0000" fill="none" stroke-width="4px" />
<path d="M 410.0 105.0 L 400.0 105.0" stroke="#FF0000" fill="none" stroke-width="4px" />
<path d="M 400.0 105.0 L 390.0 105.0" stroke="#FF0000" fill="none" stroke-width="4px" />
<path d="M 390.0 105.0 L 400.0 95.0" stroke="#FF0000" fill="none" stroke-width="4px" />
<path d="M 400.0 95.0 L 410.0 95.0" stroke="#FF0000" fill="none" stroke-width="4px" />
<path d="M 410.0 95.0 L 420.0 95.0" stroke="#FF0000" fill="none" stroke-width="4px" />
<path d="M 420.0 95.0 L 430.0 95.0" stroke="#FF0000" fill="none" stroke-width="4px" />
<path d="M 430.0 95.0 L 440.0 95.0" stroke="#FF0000" fill="none" stroke-width="4px" />
<path d="M 440.0 95.0 L 430.0 85.0" stroke="#FF0000" fill="none" stroke-width="4px" />
<path d="M 430.0 85.0 L 420.0 85.0" stroke="#FF0000" fill="none" stroke-width="4px" />
<path d="M 420.0 85.0 L 410.0 85.0" stroke="#FF0000" fill="none" stroke-width="4px" />
<path d="M 570.0 135.0 L 580.0 135.0" stroke="#FF0000" fill="none" stroke-width="4px" />
<path d="M 580.0 135.0 L 590.0 135.0" stroke="#FF0000" fill="none" stroke-width="4px" />
<path d="M 590.0 135.0 L 600.0 135.0" stroke="#FF0000" fill="none" stroke-width="4px" />
<path d="M 600.0 135.0 L 610.0 135.0" stroke="#FF0000" fill="none" stroke-width="4px" />
<path d="M 610.0 135.0 L 610.0 145.0" stroke="#FF0000" fill="none" stroke-width="4px" />
<path d="M 610.0 145.0 L 600.0 145.0" stroke="#FF0000" fill="none" stroke-width="4px" />
<path d="M 600.0 145.0 L 590.0 145.0" stroke="#FF0000" fill="none" stroke-width="4px" />
<path d="M 590.0 145.0 L 580.0 145.0" stroke="#FF0000" fill="none" stroke-width="4px" />
<path d="M 580.0 145.0 L 570.0 145.0" stroke="#FF0000" fill="none" stroke-width="4px" />
<path d="M 570.0 145.0 L 570.0 155.0" stroke="#FF0000" fill="none" stroke-width="4px" />
<path d="M 570.0 155.0 L 580.0 155.0" stroke="#FF0000" fill="none" stroke-width="4px" />
<path d="M 580.0 155.0 L 590.0 155.0" stroke="#FF0000" fill="none" stroke-width="4px" />
<path d="M 590.0 155.0 L 600.0 155.0" stroke="#FF0000" fill="none" stroke-width="4px" />
<path d="M 600.0 155.0 L 610.0 155.0" stroke="#FF0000" fill="none" stroke-width="4px" />
<path d="M 610.0 155.0 L 620.0 155.0" stroke="#FF0000" fill="none" stroke-width="4px" />
<path d="M 620.0 155.0 L 630.0 155.0" stroke="#FF0000" fill="none" stroke-width="4px" />
<path d="M 630.0 155.0 L 630.0 165.0" stroke="#FF0000" fill="none" stroke-width="4px" />
<path d="M 630.0 165.0 L 620.0 165.0" stroke="#FF0000" fill="none" stroke-width="4px" />
<path d="M 620.0 165.0 L 610.0 165.0" stroke="#FF0000" fill="none" stroke-width="4px" />
<path d="M 610.0 165.0 L 600.0 165.0" stroke="#FF0000" fill="none" stroke-width="4px" />
<path d="M 600.0 165.0 L 590.0 165.0" stroke="#FF0000" fill="none" stroke-width="4px" />
<path d="M 590.0 165.0 L 580.0 165.0" stroke="#FF0000" fill="none" stroke-width="4px" />
<path d="M 580.0 165.0 L 570.0 165.0" stroke="#FF0000" fill="none" stroke-width="4px" />
<path d="M 570.0 165.0 L 570.0 175.0" stroke="#FF0000" fill="none" stroke-width="4px" />
<path d="M 570.0 175.0 L 580.0 175.0" stroke="#FF0000" fill="none" stroke-width="4px" />
<path d="M 580.0 175.0 L 590.0 175.0" stroke="#FF0000" fill="none" stroke-width="4px" />
<path d="M 590.0 175.0 L 600.0 175.0" stroke="#FF0000" fill="none" stroke-width="4px" />
<path d="M 600.0 175.0 L 610.0 175.0" stroke="#FF0000" fill="none" stroke-width="4px" />
<path d="M 610.0 175.0 L 620.0 175.0" stroke="#FF0000" fill="none" stroke-width="4px" />
<path d="M 620.0 175.0 L 630.0 175.0" stroke="#FF0000" fill="none" stroke-width="4px" />
<path d="M 630.0 175.0 L 640.0 175.0" stroke="#FF0000" fill="none" stroke-width="4px" />
<path d="M 640.0 175.0 L 650.0 175.0" stroke="#FF0000" fill="none" stroke-width="4px" />
<path d="M 650.0 175.0 L 650.0 185.0" stroke="#FF0000" fill="none" stroke-width="4px" />
<path d="M 650.0 185.0 L 640.0 185.0" stroke="#FF0000" fill="none" stroke-width="4px" />
<path d="M 640.0 185.0 L 630.0 185.0" stroke="#FF0000" fill="none" stroke-width="4px" />
<path d="M 630.0 185.0 L 620.0 185.0" stroke="#FF0000" fill="none" stroke-width="4px" />
<path d="M 620.0 185.0 L 610.0 185.0" stroke="#FF0000" fill="none" stroke-width="4px" />
<path d="M 610.0 185.0 L 600.0 185.0" stroke="#FF0000" fill="none" stroke-width="4px" />
<path d="M 600.0 185.0 L 590.0 185.0" stroke="#FF0000" fill="none" stroke-width="4px" />
<path d="M 590.0 185.0 L 580.0 185.0" stroke="#FF0000" fill="none" stroke-width="4px" />
<path d="M 580.0 185.0 L 580.0 195.0" stroke="#FF0000" fill="none" stroke-width="4px" />
<path d="M 580.0 195.0 L 590.0 195.0" stroke="#FF0000" fill="none" stroke-width="4px" />
<path d="M 590.0 195.0 L 600.0 195.0" stroke="#FF0000" fill="none" stroke-width="4px" />
<path d="M 600.0 195.0 L 610.0 195.0" stroke="#FF0000" fill="none" stroke-width="4px" />
<path d="M 610.0 195.0 L 620.0 195.0" stroke="#FF0000" fill="none" stroke-width="4px" />
<path d="M 620.0 195.0 L 630.0 195.0" stroke="#FF0000" fill="none" stroke-width="4px" />
<path d="M 630.0 195.0 L 640.0 195.0" stroke="#FF0000" fill="none" stroke-width="4px" />
<path d="M 640.0 195.0 L 650.0 195.0" stroke="#FF0000" fill="none" stroke-width="4px" />
<path d="M 650.0 195.0 L 650.0 205.0" stroke="#FF0000" fill="none" stroke-width="4px" />
<path d="M 650.0 205.0 L 640.0 205.0" stroke="#FF0000" fill="none" stroke-width="4px" />
<path d="M 640.0 205.0 L 630.0 205.0" stroke="#FF0000" fill="none" stroke-width="4px" />
<path d="M 630.0 205.0 L 620.0 205.0" stroke="#FF0000" fill="none" stroke-width="4px" />
<path d="M 620.0 205.0 L 610.0 205.0" stroke="#FF0000" fill="none" stroke-width="4px" />
<path d="M 610.0 205.0 L 600.0 205.0" stroke="#FF0000" fill="none" stroke-width="4px" />
<path d="M 600.0 205.0 L 590.0 205.0" stroke="#FF0000" fill="none" stroke-width="4px" />
<path d="M 590.0 205.0 L 600.0 215.0" stroke="#FF0000" fill="none" stroke-width="4px" />
<path d="M 600.0 215.0 L 610.0 215.0" stroke="#FF0000" fill="none" stroke-width="4px" />
<path d="M 610.0 215.0 L 620.0 215.0" stroke="#FF0000" fill="none" stroke-width="4px" />
<path d="M 620.0 215.0 L 630.0 215.0" stroke="#FF0000" fill="none" stroke-width="4px" />
<path d="M 630.0 215.0 L 640.0 215.0" stroke="#FF0000" fill="none" stroke-width="4px" />
<path d="M 600.0 125.0 L 590.0 125.0" stroke="#FF0000" fill="none" stroke-width="4px" />
<path d="M 590.0 125.0 L 580.0 125.0" stroke="#FF0000" fill="none" stroke-width="4px" />
<path d="M 580.0 125.0 L 590.0 115.0" stroke="#FF0000" fill="none" stroke-width="4px" />
<path d="M 930.0 195.0 L 940.0 195.0" stroke="#FF0000" fill="none" stroke-width="4px" />
<path d="M 940.0 195.0 L 950.0 195.0" stroke="#FF0000" fill="none" stroke-width="4px" />
<path d="M 950.0 195.0 L 960.0 195.0" stroke="#FF0000" fill="none" stroke-width="4px" />
<path d="M 960.0 195.0 L 970.0 195.0" stroke="#FF0000" fill="none" stroke-width="4px" />
<path d="M 970.0 195.0 L 970.0 205.0" stroke="#FF0000" fill="none" stroke-width="4px" />
<path d="M 970.0 205.0 L 960.0 205.0" stroke="#FF0000" fill="none" stroke-width="4px" />
<path d="M 960.0 205.0 L 950.0 205.0" stroke="#FF0000" fill="none" stroke-width="4px" />
<path d="M 950.0 205.0 L 940.0 205.0" stroke="#FF0000" fill="none" stroke-width="4px" />
<path d="M 940.0 205.0 L 930.0 205.0" stroke="#FF0000" fill="none" stroke-width="4px" />
<path d="M 930.0 205.0 L 930.0 215.0" stroke="#FF0000" fill="none" stroke-width="4px" />
<path d="M 930.0 215.0 L 940.0 215.0" stroke="#FF0000" fill="none" stroke-width="4px" />
<path d="M 940.0 215.0 L 950.0 215.0" stroke="#FF0000" fill="none" stroke-width="4px" />
<path d="M 950.0 215.0 L 960.0 215.0" stroke="#FF0000" fill="none" stroke-width="4px" />
<path d="M 960.0 215.0 L 970.0 215.0" stroke="#FF0000" fill="none" stroke-width="4px" />
<path d="M 970.0 215.0 L 980.0 215.0" stroke="#FF0000" fill="none" stroke-width="4px" />
<path d="M 980.0 215.0 L 980.0 205.0" stroke="#FF0000" fill="none" stroke-width="4px" />
<path d="M 970.0 225.0 L 960.0 225.0" stroke="#FF0000" fill="none" stroke-width="4px" />
<path d="M 960.0 225.0 L 950.0 225.0" stroke="#FF0000" fill="none" stroke-width="4px" />
<path d="M 950.0 225.0 L 940.0 225.0" stroke="#FF0000" fill="none" stroke-width="4px" />
<path d="M 940.0 225.0 L 940.0 235.0" stroke="#FF0000" fill="none" stroke-width="4px" />
<path d="M 940.0 235.0 L 950.0 235.0" stroke="#FF0000" fill="none" stroke-width="4px" />
<path d="M 950.0 235.0 L 960.0 235.0" stroke="#FF0000" fill="none" stroke-width="4px" />
<path d="M 960.0 185.0 L 950.0 185.0" stroke="#FF0000" fill="none" stroke-width="4px" />
<path d="M 950.0 185.0 L 940.0 185.0" stroke="#FF0000" fill="none" stroke-width="4px" />
<path d="M 940.0 185.0 L 950.0 175.0" stroke="#FF0000" fill="none" stroke-width="4px" />
<path d="M 1110.0 175.0 L 1120.0 175.0" stroke="#FF0000" fill="none" stroke-width="4px" />
<path d="M 1120.0 175.0 L 1130.0 175.0" stroke="#FF0000" fill="none" stroke-width="4px" />
<path d="M 1130.0 175.0 L 1140.0 175.0" stroke="#FF0000" fill="none" stroke-width="4px" />
<path d="M 1140.0 175.0 L 1150.0 175.0" stroke="#FF0000" fill="none" stroke-width="4px" />
<path d="M 1150.0 175.0 L 1150.0 185.0" stroke="#FF0000" fill="none" stroke-width="4px" />
<path d="M 1150.0 185.0 L 1140.0 185.0" stroke="#FF0000" fill="none" stroke-width="4px" />
<path d="M 1140.0 185.0 L 1130.0 185.0" stroke="#FF0000" fill="none" stroke-width="4px" />
<path d="M 1130.0 185.0 L 1120.0 185.0" stroke="#FF0000" fill="none" stroke-width="4px" />
<path d="M 1120.0 185.0 L 1110.0 185.0" stroke="#FF0000" fill="none" stroke-width="4px" />
<path d="M 1110.0 185.0 L 1120.0 195.0" stroke="#FF0000" fill="none" stroke-width="4px" />
<path d="M 1120.0 195.0 L 1130.0 195.0" stroke="#FF0000" fill="none" stroke-width="4px" />
<path d="M 1130.0 195.0 L 1140.0 195.0" stroke="#FF0000" fill="none" stroke-width="4px" />
<path d="M 1140.0 195.0 L 1130.0 205.0" stroke="#FF0000" fill="none" stroke-width="4px" />
<path d="M 1130.0 165.0 L 1120.0 165.0" stroke="#FF0000" fill="none" stroke-width="4px" />
<path d="M 1120.0 165.0 L 1130.0 155.0" stroke="#FF0000" fill="none" stroke-width="4px" />
<path d="M 1130.0 155.0 L 1140.0 165.0" stroke="#FF0000" fill="none" stroke-width="4px" />
<path d="M 1210.0 145.0 L 1220.0 145.0" stroke="#FF0000" fill="none" stroke-width="4px" />
<path d="M 1220.0 145.0 L 1230.0 145.0" stroke="#FF0000" fill="none" stroke-width="4px" />
<path d="M 1230.0 145.0 L 1240.0 145.0" stroke="#FF0000" fill="none" stroke-width="4px" />
<path d="M 1240.0 145.0 L 1250.0 145.0" stroke="#FF0000" fill="none" stroke-width="4px" />
<path d="M 1250.0 145.0 L 1260.0 145.0" stroke="#FF0000" fill="none" stroke-width="4px" />
<path d="M 1260.0 145.0 L 1270.0 145.0" stroke="#FF0000" fill="none" stroke-width="4px" />
<path d="M 1270.0 145.0 L 1270.0 135.0" stroke="#FF0000" fill="none" stroke-width="4px" />
<path d="M 1270.0 135.0 L 1260.0 135.0" stroke="#FF0000" fill="none" stroke-width="4px" />
<path d="M 1260.0 135.0 L 1250.0 135.0" stroke="#FF0000" fill="none" stroke-width="4px" />
<path d="M 1250.0 135.0 L 1240.0 135.0" stroke="#FF0000" fill="none" stroke-width="4px" />
<path d="M 1240.0 135.0 L 1230.0 135.0" stroke="#FF0000" fill="none" stroke-width="4px" />
<path d="M 1230.0 135.0 L 1220.0 135.0" stroke="#FF0000" fill="none" stroke-width="4px" />
<path d="M 1220.0 135.0 L 1210.0 135.0" stroke="#FF0000" fill="none" stroke-width="4px" />
<path d="M 1210.0 135.0 L 1210.0 125.0" stroke="#FF0000" fill="none" stroke-width="4px" />
<path d="M 1210.0 125.0 L 1220.0 125.0" stroke="#FF0000" fill="none" stroke-width="4px" />
<path d="M 1220.0 125.0 L 1230.0 125.0" stroke="#FF0000" fill="none" stroke-width="4px" />
<path d="M 1230.0 125.0 L 1240.0 125.0" stroke="#FF0000" fill="none" stroke-width="4px" />
<path d="M 1240.0 125.0 L 1250.0 125.0" stroke="#FF0000" fill="none" stroke-width="4px" />
<path d="M 1250.0 125.0 L 1260.0 125.0" stroke="#FF0000" fill="none" stroke-width="4px" />
<path d="M 1260.0 125.0 L 1270.0 125.0" stroke="#FF0000" fill="none" stroke-width="4px" />
<path d="M 1270.0 125.0 L 1260.0 115.0" stroke="#FF0000" fill="none" stroke-width="4px" />
<path d="M 1260.0 115.0 L 1250.0 115.0" stroke="#FF0000" fill="none" stroke-width="4px" />
<path d="M 1250.0 115.0 L 1240.0 115.0" stroke="#FF0000" fill="none" stroke-width="4px" />
<path d="M 1240.0 115.0 L 1230.0 115.0" stroke="#FF0000" fill="none" stroke-width="4px" />
<path d="M 1230.0 115.0 L 1220.0 115.0" stroke="#FF0000" fill="none" stroke-width="4px" />
<path d="M 1220.0 115.0 L 1210.0 115.0" stroke="#FF0000" fill="none" stroke-width="4px" />
<path d="M 1210.0 115.0 L 1210.0 105.0" stroke="#FF0000" fill="none" stroke-width="4px" />
<path d="M 1210.0 105.0 L 1220.0 105.0" stroke="#FF0000" fill="none" stroke-width="4px" />
<path d="M 1220.0 105.0 L 1230.0 105.0" stroke="#FF0000" fill="none" stroke-width="4px" />
<path d="M 1230.0 105.0 L 1240.0 105.0" stroke="#FF0000" fill="none" stroke-width="4px" />
<path d="M 1240.0 105.0 L 1250.0 105.0" stroke="#FF0000" fill="none" stroke-width="4px" />
<path d="M 1250.0 105.0 L 1260.0 105.0" stroke="#FF0000" fill="none" stroke-width="4px" />
<path d="M 1260.0 105.0 L 1250.0 95.0" stroke="#FF0000" fill="none" stroke-width="4px" />
<path d="M 1250.0 95.0 L 1240.0 95.0" stroke="#FF0000" fill="none" stroke-width="4px" />
<path d="M 1240.0 95.0 L 1230.0 95.0" stroke="#FF0000" fill="none" stroke-width="4px" />
<path d="M 1230.0 95.0 L 1220.0 95.0" stroke="#FF0000" fill="none" stroke-width="4px" />
<path d="M 1220.0 95.0 L 1210.0 95.0" stroke="#FF0000" fill="none" stroke-width="4px" />
<path d="M 1210.0 95.0 L 1220.0 85.0" stroke="#FF0000" fill="none" stroke-width="4px" />
<path d="M 1220.0 85.0 L 1230.0 85.0" stroke="#FF0000" fill="none" stroke-width="4px" />
<path d="M 1230.0 85.0 L 1240.0 85.0" stroke="#FF0000" fill="none" stroke-width="4px" />
<path d="M 1240.0 85.0 L 1230.0 75.0" stroke="#FF0000" fill="none" stroke-width="4px" />
<path d="M 1230.0 155.0 L 1220.0 155.0" stroke="#FF0000" fill="none" stroke-width="4px" />
<path d="M 1220.0 155.0 L 1230.0 165.0" stroke="#FF0000" fill="none" stroke-width="4px" />
<path d="M 1230.0 165.0 L 1240.0 165.0" stroke="#FF0000" fill="none" stroke-width="4px" />
<path d="M 1240.0 165.0 L 1250.0 165.0" stroke="#FF0000" fill="none" stroke-width="4px" />
<path d="M 1250.0 165.0 L 1250.0 155.0" stroke="#FF0000" fill="none" stroke-width="4px" />
<path d="M 1250.0 155.0 L 1240.0 155.0" stroke="#FF0000" fill="none" stroke-width="4px" />
<path d="M 1240.0 155.0 L 1260.0 155.0" stroke="#FF0000" fill="none" stroke-width="4px" />
<path d="M 1440.0 115.0 L 1450.0 115.0" stroke="#FF0000" fill="none" stroke-width="4px" />
<path d="M 1450.0 115.0 L 1460.0 115.0" stroke="#FF0000" fill="none" stroke-width="4px" />
<path d="M 1460.0 115.0 L 1470.0 115.0" stroke="#FF0000" fill="none" stroke-width="4px" />
<path d="M 1470.0 115.0 L 1480.0 115.0" stroke="#FF0000" fill="none" stroke-width="4px" />
<path d="M 1480.0 115.0 L 1490.0 115.0" stroke="#FF0000" fill="none" stroke-width="4px" />
<path d="M 1490.0 115.0 L 1500.0 115.0" stroke="#FF0000" fill="none" stroke-width="4px" />
<path d="M 1500.0 115.0 L 1510.0 115.0" stroke="#FF0000" fill="none" stroke-width="4px" />
<path d="M 1510.0 115.0 L 1520.0 115.0" stroke="#FF0000" fill="none" stroke-width="4px" />
<path d="M 1520.0 115.0 L 1520.0 105.0" stroke="#FF0000" fill="none" stroke-width="4px" />
<path d="M 1520.0 105.0 L 1510.0 105.0" stroke="#FF0000" fill="none" stroke-width="4px" />
<path d="M 1510.0 105.0 L 1500.0 105.0" stroke="#FF0000" fill="none" stroke-width="4px" />
<path d="M 1500.0 105.0 L 1490.0 105.0" stroke="#FF0000" fill="none" stroke-width="4px" />
<path d="M 1490.0 105.0 L 1480.0 105.0" stroke="#FF0000" fill="none" stroke-width="4px" />
<path d="M 1480.0 105.0 L 1470.0 105.0" stroke="#FF0000" fill="none" stroke-width="4px" />
<path d="M 1470.0 105.0 L 1460.0 105.0" stroke="#FF0000" fill="none" stroke-width="4px" />
<path d="M 1460.0 105.0 L 1450.0 105.0" stroke="#FF0000" fill="none" stroke-width="4px" />
<path d="M 1450.0 105.0 L 1440.0 105.0" stroke="#FF0000" fill="none" stroke-width="4px" />
<path d="M 1440.0 105.0 L 1440.0 95.0" stroke="#FF0000" fill="none" stroke-width="4px" />
<path d="M 1440.0 95.0 L 1450.0 95.0" stroke="#FF0000" fill="none" stroke-width="4px" />
<path d="M 1450.0 95.0 L 1460.0 95.0" stroke="#FF0000" fill="none" stroke-width="4px" />
<path d="M 1460.0 95.0 L 1470.0 95.0" stroke="#FF0000" fill="none" stroke-width="4px" />
<path d="M 1470.0 95.0 L 1480.0 95.0" stroke="#FF0000" fill="none" stroke-width="4px" />
<path d="M 1480.0 95.0 L 1490.0 95.0" stroke="#FF0000" fill="none" stroke-width="4px" />
<path d="M 1490.0 95.0 L 1500.0 95.0" stroke="#FF0000" fill="none" stroke-width="4px" />
<path d="M 1500.0 95.0 L 1510.0 95.0" stroke="#FF0000" fill="none" stroke-width="4px" />
<path d="M 1510.0 95.0 L 1500.0 85.0" stroke="#FF0000" fill="none" stroke-width="4px" />
<path d="M 1500.0 85.0 L 1480.0 85.0" stroke="#FF0000" fill="none" stroke-width="4px" />
<path d="M 1480.0 85.0 L 1470.0 85.0" stroke="#FF0000" fill="none" stroke-width="4px" />
<path d="M 1470.0 85.0 L 1460.0 85.0" stroke="#FF0000" fill="none" stroke-width="4px" />
<path d="M 1460.0 85.0 L 1450.0 85.0" stroke="#FF0000" fill="none" stroke-width="4px" />
<path d="M 1450.0 85.0 L 1460.0 75.0" stroke="#FF0000" fill="none" stroke-width="4px" />
<path d="M 1460.0 75.0 L 1470.0 75.0" stroke="#FF0000" fill="none" stroke-width="4px" />
<path d="M 1470.0 125.0 L 1460.0 125.0" stroke="#FF0000" fill="none" stroke-width="4px" />
<path d="M 1460.0 125.0 L 1450.0 125.0" stroke="#FF0000" fill="none" stroke-width="4px" />
<path d="M 1450.0 125.0 L 1460.0 135.0" stroke="#FF0000" fill="none" stroke-width="4px" />
<path d="M 1460.0 135.0 L 1470.0 135.0" stroke="#FF0000" fill="none" stroke-width="4px" />
<path d="M 1470.0 135.0 L 1480.0 125.0" stroke="#FF0000" fill="none" stroke-width="4px" />
<path d="M 1480.0 125.0 L 1490.0 125.0" stroke="#FF0000" fill="none" stroke-width="4px" />
<path d="M 1490.0 125.0 L 1500.0 125.0" stroke="#FF0000" fill="none" stroke-width="4px" />
<path d="M 1500.0 125.0 L 1510.0 125.0" stroke="#FF0000" fill="none" stroke-width="4px" />
<path d="M 1510.0 125.0 L 1500.0 135.0" stroke="#FF0000" fill="none" stroke-width="4px" />
<path d="M 1820.0 125.0 L 1830.0 125.0" stroke="#FF0000" fill="none" stroke-width="4px" />
<path d="M 1830.0 125.0 L 1840.0 125.0" stroke="#FF0000" fill="none" stroke-width="4px" />
<path d="M 1840.0 125.0 L 1850.0 125.0" stroke="#FF0000" fill="none" stroke-width="4px" />
<path d="M 1850.0 125.0 L 1860.0 125.0" stroke="#FF0000" fill="none" stroke-width="4px" />
<path d="M 1860.0 125.0 L 1860.0 115.0" stroke="#FF0000" fill="none" stroke-width="4px" />
<path d="M 1860.0 115.0 L 1850.0 115.0" stroke="#FF0000" fill="none" stroke-width="4px" />
<path d="M 1850.0 115.0 L 1840.0 115.0" stroke="#FF0000" fill="none" stroke-width="4px" />
<path d="M 1840.0 115.0 L 1830.0 115.0" stroke="#FF0000" fill="none" stroke-width="4px" />
<path d="M 1830.0 115.0 L 1820.0 115.0" stroke="#FF0000" fill="none" stroke-width="4px" />
<path d="M 1820.0 115.0 L 1820.0 105.0" stroke="#FF0000" fill="none" stroke-width="4px" />
<path d="M 1820.0 105.0 L 1830.0 105.0" stroke="#FF0000" fill="none" stroke-width="4px" />
<path d="M 1830.0 105.0 L 1840.0 105.0" stroke="#FF0000" fill="none" stroke-width="4px" />
<path d="M 1840.0 105.0 L 1850.0 105.0" stroke="#FF0000" fill="none" stroke-width="4px" />
<path d="M 1850.0 105.0 L 1860.0 105.0" stroke="#FF0000" fill="none" stroke-width="4px" />
<path d="M 1860.0 105.0 L 1870.0 105.0" stroke="#FF0000" fill="none" stroke-width="4px" />
<path d="M 1870.0 105.0 L 1870.0 95.0" stroke="#FF0000" fill="none" stroke-width="4px" />
<path d="M 1870.0 95.0 L 1860.0 95.0" stroke="#FF0000" fill="none" stroke-width="4px" />
<path d="M 1860.0 95.0 L 1850.0 95.0" stroke="#FF0000" fill="none" stroke-width="4px" />
<path d="M 1850.0 95.0 L 1840.0 95.0" stroke="#FF0000" fill="none" stroke-width="4px" />
<path d="M 1840.0 95.0 L 1830.0 95.0" stroke="#FF0000" fill="none" stroke-width="4px" />
<path d="M 1830.0 95.0 L 1840.0 85.0" stroke="#FF0000" fill="none" stroke-width="4px" />
<path d="M 1840.0 85.0 L 1850.0 85.0" stroke="#FF0000" fill="none" stroke-width="4px" />
<path d="M 1850.0 85.0 L 1860.0 85.0" stroke="#FF0000" fill="none" stroke-width="4px" />
<path d="M 1880.0 75.0 L 1890.0 75.0" stroke="#FF0000" fill="none" stroke-width="4px" />
<path d="M 1890.0 75.0 L 1900.0 75.0" stroke="#FF0000" fill="none" stroke-width="4px" />
<path d="M 1900.0 75.0 L 1900.0 65.0" stroke="#FF0000" fill="none" stroke-width="4px" />
<path d="M 1900.0 65.0 L 1890.0 65.0" stroke="#FF0000" fill="none" stroke-width="4px" />
<path d="M 1890.0 65.0 L 1880.0 65.0" stroke="#FF0000" fill="none" stroke-width="4px" />
<path d="M 1880.0 65.0 L 1870.0 65.0" stroke="#FF0000" fill="none" stroke-width="4px" />
<path d="M 1870.0 65.0 L 1880.0 55.0" stroke="#FF0000" fill="none" stroke-width="4px" />
<path d="M 1880.0 55.0 L 1890.0 55.0" stroke="#FF0000" fill="none" stroke-width="4px" />
<path d="M 1890.0 55.0 L 1900.0 55.0" stroke="#FF0000" fill="none" stroke-width="4px" />
<path d="M 1900.0 55.0 L 1910.0 55.0" stroke="#FF0000" fill="none" stroke-width="4px" />
<path d="M 1910.0 55.0 L 1910.0 65.0" stroke="#FF0000" fill="none" stroke-width="4px" />
<path d="M 1910.0 45.0 L 1900.0 45.0" stroke="#FF0000" fill="none" stroke-width="4px" />
<path d="M 1900.0 45.0 L 1890.0 45.0" stroke="#FF0000" fill="none" stroke-width="4px" />
<path d="M 1890.0 45.0 L 1880.0 45.0" stroke="#FF0000" fill="none" stroke-width="4px" />
<path d="M 1880.0 45.0 L 1870.0 45.0" stroke="#FF0000" fill="none" stroke-width="4px" />
<path d="M 1870.0 45.0 L 1880.0 35.0" stroke="#FF0000" fill="none" stroke-width="4px" />
<path d="M 1880.0 35.0 L 1890.0 35.0" stroke="#FF0000" fill="none" stroke-width="4px" />
<path d="M 1890.0 35.0 L 1900.0 35.0" stroke="#FF0000" fill="none" stroke-width="4px" />
<path d="M 1850.0 135.0 L 1840.0 135.0" stroke="#FF0000" fill="none" stroke-width="4px" />
<path d="M 1840.0 135.0 L 1830.0 135.0" stroke="#FF0000" fill="none" stroke-width="4px" />
<path d="M 1830.0 135.0 L 1840.0 145.0" stroke="#FF0000" fill="none" stroke-width="4px" />
<path d="M 2300.0 135.0 L 2300.0 125.0" stroke="#FF0000" fill="none" stroke-width="4px" />
<path d="M 2300.0 125.0 L 2290.0 125.0" stroke="#FF0000" fill="none" stroke-width="4px" />
<path d="M 2290.0 125.0 L 2290.0 115.0" stroke="#FF0000" fill="none" stroke-width="4px" />
<path d="M 2290.0 115.0 L 2280.0 115.0" stroke="#FF0000" fill="none" stroke-width="4px" />
<path d="M 2280.0 115.0 L 2290.0 105.0" stroke="#FF0000" fill="none" stroke-width="4px" />
<path d="M 2290.0 105.0 L 2300.0 105.0" stroke="#FF0000" fill="none" stroke-width="4px" />
<path d="M 2300.0 105.0 L 2310.0 105.0" stroke="#FF0000" fill="none" stroke-width="4px" />
<path d="M 2310.0 105.0 L 2310.0 115.0" stroke="#FF0000" fill="none" stroke-width="4px" />
<path d="M 2310.0 115.0 L 2300.0 115.0" stroke="#FF0000" fill="none" stroke-width="4px" />
<path d="M 2300.0 115.0 L 2310.0 125.0" stroke="#FF0000" fill="none" stroke-width="4px" />
<path d="M 2310.0 125.0 L 2320.0 115.0" stroke="#FF0000" fill="none" stroke-width="4px" />
</svg>