<svg width="2472.26666667" height="235.0" xmlns="http://www.w3.org/2000/svg" version="1.1">
<path d="M 0.0 235.0 L 1645.0 235.0 L 1645.0 0.0 L 0.0 0.0 L 0.0 235.0" stroke="#000000" fill="none" stroke-width="3px" />
<path d="M 2472.26666667 235.0 L 1545.0 235.0 L 1545.0 0.0 L 2472.26666667 0.0 L 2472.26666667 235.0" stroke="#000000" fill="none" stroke-width="3px" />
<path d="M 10.0 257.5 L 0.0 247.5 L 10.0 237.5" stroke="#969696" fill="none" stroke-width="1px" />
<path d="M 10.0 237.5 L 1635.0 237.5" stroke="#969696" fill="none" stroke-width="1px" />
<path d="M 1635.0 237.5 L 1645.0 227.5 L 1635.0 217.5" stroke="#969696" fill="none" stroke-width="1px" />
<path d="M 1635.0 217.5 L 10.0 217.5" stroke="#969696" fill="none" stroke-width="1px" />
<path d="M 10.0 217.5 L 0.0 207.5 L 10.0 197.5" stroke="#969696" fill="none" stroke-width="1px" />
<path d="M 10.0 197.5 L 1635.0 197.5" stroke="#969696" fill="none" stroke-width="1px" />
<path d="M 1635.0 197.5 L 1645.0 187.5 L 1635.0 177.5" stroke="#969696" fill="none" stroke-width="1px" />
<path d="M 1635.0 177.5 L 10.0 177.5" stroke="#969696" fill="none" stroke-width="1px" />
<path d="M 10.0 177.5 L 0.0 167.5 L 10.0 157.5" stroke="#969696" fill="none" stroke-width="1px" />
<path d="M 10.0 157.5 L 1635.0 157.5" stroke="#969696" fill="none" stroke-width="1px" />
<path d="M 1635.0 157.5 L 1645.0 147.5 L 1635.0 137.5" stroke="#969696" fill="none" stroke-width="1px" />
<path d="M 1635.0 137.5 L 10.0 137.5" stroke="#969696" fill="none" stroke-width="1px" />
<path d="M 10.0 137.5 L 0.0 127.5 L 10.0 117.5" stroke="#969696" fill="none" stroke-width="1px" />
<path d="M 10.0 117.5 L 1635.0 117.5" stroke="#969696" fill="none" stroke-width="1px" />
<path d="M 1635.0 117.5 L 1645.0 107.5 L 1635.0 97.5" stroke="#969696" fill="none" stroke-width="1px" />
<path d="M 1635.0 97.5 L 10.0 97.5" stroke="#969696" fill="none" stroke-width="1px" />
<path d="M 10.0 97.5 L 0.0 87.5 L 10.0 77.5" stroke="#969696" fill="none" stroke-width="1px" />
<path d="M 10.0 77.5 L 1635.0 77.5" stroke="#969696" fill="none" stroke-width="1px" />
<path d="M 1635.0 77.5 L 1645.0 67.5 L 1635.0 57.5" stroke="#969696" fill="none" stroke-width="1px" />
<path d="M 1635.0 57.5 L 10.0 57.5" stroke="#969696" fill="none" stroke-width="1px" />
<path d="M 10.0 57.5 L 0.0 47.5 L 10.0 37.5" stroke="#969696" fill="none" stroke-width="1px" />
<path d="M 10.0 37.5 L 1635.0 37.5" stroke="#969696" fill="none" stroke-width="1px" />
<path d="M 1635.0 37.5 L 1645.0 27.5 L 1635.0 17.5" stroke="#969696" fill="none" stroke-width="1px" />
<path d="M 1635.0 17.5 L 10.0 17.5" stroke="#969696" fill="none" stroke-width="1px" />
<path d="M 10.0 17.5 L 0.0 7.5 L 10.0 -2.5" stroke="#969696" fill="none" stroke-width="1px" />
<path d="M 10.0 -2.5 L 1635.0 -2.5" stroke="#969696" fill="none" stroke-width="1px" />
<path d="M 1635.0 -2.5 L 1645.0 -12.5 L 1635.0 -22.5" stroke="#969696" fill="none" stroke-width="1px" />
<path d="M 2462.26666667 257.5 L 2472.26666667 247.5 L 2462.26666667 237.5" stroke="#969696" fill="none" stroke-width="1px" />
<path d="M 2462.26666667 237.5 L 1555.0 237.5" stroke="#969696" fill="none" stroke-width="1px" />
<path d="M 1555.0 237.5 L 1545.0 227.5 L 1555.0 217.5" stroke="#969696" fill="none" stroke-width="1px" />
<path d="M 1555.0 217.5 L 2462.26666667 217.5" stroke="#969696" fill="none" stroke-width="1px" />
<path d="M 2462.26666667 217.5 L 2472.26666667 207.5 L 2462.26666667 197.5" stroke="#969696" fill="none" stroke-width="1px" />
<path d="M 2462.26666667 197.5 L 1555.0 197.5" stroke="#969696" fill="none" stroke-width="1px" />
<path d="M 1555.0 197.5 L 1545.0 187.5 L 1555.0 177.5" stroke="#969696" fill="none" stroke-width="1px" />
<path d="M 1555.0 177.5 L 2462.26666667 177.5" stroke="#969696" fill="none" stroke-width="1px" />
<path d="M 2462.26666667 177.5 L 2472.26666667 167.5 L 2462.26666667 157.5" stroke="#969696" fill="none" stroke-width="1px" />
<path d="M 2462.26666667 157.5 L 1555.0 157.5" stroke="#969696" fill="none" stroke-width="1px" />
<path d="M 1555.0 157.5 L 1545.0 147.5 L 1555.0 137.5" stroke="#969696" fill="none" stroke-width="1px" />
<path d="M 1555.0 137.5 L 2462.26666667 137.5" stroke="#969696" fill="none" stroke-width="1px" />
<path d="M 2462.26666667 137.5 L 2472.26666667 127.5 L 2462.26666667 117.5" stroke="#969696" fill="none" stroke-width="1px" />
<path d="M 2462.26666667 117.5 L 1555.0 117.5" stroke="#969696" fill="none" stroke-width="1px" />
<path d="M 1555.0 117.5 L 1545.0 107.5 L 1555.0 97.5" stroke="#969696" fill="none" stroke-width="1px" />
<path d="M 1555.0 97.5 L 2462.26666667 97.5" stroke="#969696" fill="none" stroke-width="1px" />
<path d="M 2462.26666667 97.5 L 2472.26666667 87.5 L 2462.26666667 77.5" stroke="#969696" fill="none" stroke-width="1px" />
<path d="M 2462.26666667 77.5 L 1555.0 77.5" stroke="#969696" fill="none" stroke-width="1px" />
<path d="M 1555.0 77.5 L 1545.0 67.5 L 1555.0 57.5" stroke="#969696" fill="none" stroke-width="1px" />
<path d="M 1555.0 57.5 L 2462.26666667 57.5" stroke="#969696" fill="none" stroke-width="1px" />
<path d="M 2462.26666667 57.5 L 2472.26666667 47.5 L 2462.26666667 37.5" stroke="#969696" fill="none" stroke-width="1px" />
<path d="M 2462.26666667 37.5 L 1555.0 37.5" stroke="#969696" fill="none" stroke-width="1px" />
<path d="M 1555.0 37.5 L 1545.0 27.5 L 1555.0 17.5" stroke="#969696" fill="none" stroke-width="1px" />
<path d="M 1555.0 17.5 L 2462.26666667 17.5" stroke="#969696" fill="none" stroke-width="1px" />
<path d="M 2462.26666667 17.5 L 2472.26666667 7.5 L 2462.26666667 -2.5" stroke="#969696" fill="none" stroke-width="1px" />
<path d="M 2462.26666667 -2.5 L 1555.0 -2.5" stroke="#969696" fill="none" stroke-width="1px" />
<path d="M 1555.0 -2.5 L 1545.0 -12.5 L 1555.0 -22.5" stroke="#969696" fill="none" stroke-width="1px" />
<path d="M 0.0 235.0 L 70.0 235.0" stroke="#0095FF" fill="none" stroke-width="2px" />
<path d="M 70.0 235.0 L 70.0 205.0" stroke="#0095FF" fill="none" stroke-width="2px" />
<path d="M 100.0 235.0 L 100.0 195.0" stroke="#0095FF" fill="none" stroke-width="2px" />
<path d="M 120.0 195.0 L 100.0 195.0" stroke="#0095FF" fill="none" stroke-width="2px" />
<path d="M 100.0 195.0 L 100.0 175.0" stroke="#0095FF" fill="none" stroke-width="2px" />
<path d="M 80.0 175.0 L 100.0 175.0" stroke="#0095FF" fill="none" stroke-width="2px" />
<path d="M 100.0 175.0 L 100.0 145.0" stroke="#0095FF" fill="none" stroke-width="2px" />
<path d="M 120.0 135.0 L 120.0 95.0" stroke="#0095FF" fill="none" stroke-width="2px" />
<path d="M 70.0 85.0 L 70.0 65.0" stroke="#0095FF" fill="none" stroke-width="2px" />
<path d="M 80.0 65.0 L 80.0 45.0" stroke="#0095FF" fill="none" stroke-width="2px" />
<path d="M 100.0 45.0 L 130.0 45.0" stroke="#0095FF" fill="none" stroke-width="2px" />
<path d="M 130.0 45.0 L 130.0 35.0" stroke="#0095FF" fill="none" stroke-width="2px" />
<path d="M 160.0 55.0 L 120.0 55.0" stroke="#0095FF" fill="none" stroke-width="2px" />
<path d="M 120.0 55.0 L 120.0 65.0" stroke="#0095FF" fill="none" stroke-width="2px" />
<path d="M 120.0 65.0 L 140.0 65.0" stroke="#0095FF" fill="none" stroke-width="2px" />
<path d="M 140.0 65.0 L 140.0 25.0" stroke="#0095FF" fill="none" stroke-width="2px" />
<path d="M 150.0 15.0 L 230.0 15.0" stroke="#0095FF" fill="none" stroke-width="2px" />
<path d="M 230.0 15.0 L 230.0 85.0" stroke="#0095FF" fill="none" stroke-width="2px" />
<path d="M 280.0 135.0 L 250.0 135.0" stroke="#0095FF" fill="none" stroke-width="2px" />
<path d="M 250.0 135.0 L 250.0 145.0" stroke="#0095FF" fill="none" stroke-width="2px" />
<path d="M 250.0 205.0 L 250.0 165.0" stroke="#0095FF" fill="none" stroke-width="2px" />
<path d="M 260.0 155.0 L 240.0 155.0" stroke="#0095FF" fill="none" stroke-width="2px" />
<path d="M 240.0 155.0 L 240.0 135.0" stroke="#0095FF" fill="none" stroke-width="2px" />
<path d="M 240.0 135.0 L 250.0 135.0" stroke="#0095FF" fill="none" stroke-width="2px" />
<path d="M 250.0 135.0 L 250.0 95.0" stroke="#0095FF" fill="none" stroke-width="2px" />
<path d="M 260.0 85.0 L 690.0 85.0" stroke="#0095FF" fill="none" stroke-width="2px" />
<path d="M 690.0 85.0 L 690.0 35.0" stroke="#0095FF" fill="none" stroke-width="2px" />
<path d="M 710.0 55.0 L 710.0 25.0" stroke="#0095FF" fill="none" stroke-width="2px" />
<path d="M 2472.26666667 235.0 L 2420.0 235.0" stroke="#0095FF" fill="none" stroke-width="2px" />
<path d="M 2420.0 235.0 L 2420.0 195.0" stroke="#0095FF" fill="none" stroke-width="2px" />
<path d="M 2430.0 185.0 L 2430.0 155.0" stroke="#0095FF" fill="none" stroke-width="2px" />
<path d="M 2420.0 145.0 L 2420.0 75.0" stroke="#0095FF" fill="none" stroke-width="2px" />
<path d="M 2430.0 65.0 L 2430.0 5.0" stroke="#0095FF" fill="none" stroke-width="2px" />
<path d="M 70.0 205.0 L 80.0 205.0" stroke="#FF0000" fill="none" stroke-width="4px" />
<path d="M 80.0 205.0 L 90.0 205.0" stroke="#FF0000" fill="none" stroke-width="4px" />
<path d="M 90.0 205.0 L 100.0 205.0" stroke="#FF0000" fill="none" stroke-width="4px" />
<path d="M 100.0 205.0 L 110.0 205.0" stroke="#FF0000" fill="none" stroke-width="4px" />
<path d="M 110.0 205.0 L 120.0 205.0" stroke="#FF0000" fill="none" stroke-width="4px" />
<path d="M 120.0 205.0 L 130.0 205.0" stroke="#FF0000" fill="none" stroke-width="4px" />
<path d="M 130.0 205.0 L 130.0 215.0" stroke="#FF0000" fill="none" stroke-width="4px" />
<path d="M 130.0 215.0 L 120.0 215.0" stroke="#FF0000" fill="none" stroke-width="4px" />
<path d="M 120.0 215.0 L 110.0 215.0" stroke="#FF0000" fill="none" stroke-width="4px" />
<path d="M 110.0 215.0 L 100.0 215.0" stroke="#FF0000" fill="none" stroke-width="4px" />
<path d="M 100.0 215.0 L 90.0 215.0" stroke="#FF0000" fill="none" stroke-width="4px" />
<path d="M 90.0 215.0 L 80.0 215.0" stroke="#FF0000" fill="none" stroke-width="4px" />
<path d="M 80.0 215.0 L 90.0 225.0" stroke="#FF0000" fill="none" stroke-width="4px" />
<path d="M 90.0 225.0 L 100.0 225.0" stroke="#FF0000" fill="none" stroke-width="4px" />
<path d="M 100.0 225.0 L 110.0 225.0" stroke="#FF0000" fill="none" stroke-width="4px" />
<path d="M 110.0 225.0 L 120.0 225.0" stroke="#FF0000" fill="none" stroke-width="4px" />
<path d="M 120.0 225.0 L 110.0 235.0" stroke="#FF0000" fill="none" stroke-width="4px" />
<path d="M 110.0 235.0 L 100.0 235.0" stroke="#FF0000" fill="none" stroke-width="4px" />
<path d="M 100.0 195.0 L 90.0 195.0" stroke="#FF0000" fill="none" stroke-width="4px" />
<path d="M 90.0 195.0 L 80.0 195.0" stroke="#FF0000" fill="none" stroke-width="4px" />
<path d="M 80.0 195.0 L 70.0 195.0" stroke="#FF0000" fill="none" stroke-width="4px" />
<path d="M 70.0 195.0 L 70.0 185.0" stroke="#FF0000" fill="none" stroke-width="4px" />
<path d="M 70.0 185.0 L 80.0 185.0" stroke="#FF0000" fill="none" stroke-width="4px" />
<path d="M 80.0 185.0 L 90.0 185.0" stroke="#FF0000" fill="none" stroke-width="4px" />
<path d="M 90.0 185.0 L 100.0 185.0" stroke="#FF0000" fill="none" stroke-width="4px" />
<path d="M 100.0 185.0 L 110.0 185.0" stroke="#FF0000" fill="none" stroke-width="4px" />
<path d="M 110.0 185.0 L 110.0 195.0" stroke="#FF0000" fill="none" stroke-width="4px" />
<path d="M 110.0 195.0 L 120.0 195.0" stroke="#FF0000" fill="none" stroke-width="4px" />
<path d="M 100.0 175.0 L 90.0 175.0" stroke="#FF0000" fill="none" stroke-width="4px" />
<path d="M 90.0 175.0 L 80.0 175.0" stroke="#FF0000" fill="none" stroke-width="4px" />
<path d="M 100.0 145.0 L 110.0 145.0" stroke="#FF0000" fill="none" stroke-width="4px" />
<path d="M 110.0 145.0 L 110.0 135.0" stroke="#FF0000" fill="none" stroke-width="4px" />
<path d="M 110.0 135.0 L 100.0 135.0" stroke="#FF0000" fill="none" stroke-width="4px" />
<path d="M 100.0 135.0 L 90.0 135.0" stroke="#FF0000" fill="none" stroke-width="4px" />
<path d="M 90.0 135.0 L 90.0 125.0" stroke="#FF0000" fill="none" stroke-width="4px" />
<path d="M 90.0 125.0 L 80.0 125.0" stroke="#FF0000" fill="none" stroke-width="4px" />
<path d="M 80.0 125.0 L 80.0 115.0" stroke="#FF0000" fill="none" stroke-width="4px" />
<path d="M 80.0 115.0 L 70.0 115.0" stroke="#FF0000" fill="none" stroke-width="4px" />
<path d="M 70.0 115.0 L 70.0 105.0" stroke="#FF0000" fill="none" stroke-width="4px" />
<path d="M 70.0 105.0 L 80.0 105.0" stroke="#FF0000" fill="none" stroke-width="4px" />
<path d="M 80.0 105.0 L 90.0 105.0" stroke="#FF0000" fill="none" stroke-width="4px" />
<path d="M 90.0 105.0 L 100.0 105.0" stroke="#FF0000" fill="none" stroke-width="4px" />
<path d="M 100.0 105.0 L 110.0 105.0" stroke="#FF0000" fill="none" stroke-width="4px" />
<path d="M 110.0 105.0 L 120.0 105.0" stroke="#FF0000" fill="none" stroke-width="4px" />
<path d="M 120.0 105.0 L 130.0 105.0" stroke="#FF0000" fill="none" stroke-width="4px" />
<path d="M 130.0 105.0 L 130.0 115.0" stroke="#FF0000" fill="none" stroke-width="4px" />
<path d="M 130.0 115.0 L 120.0 115.0" stroke="#FF0000" fill="none" stroke-width="4px" />
<path d="M 120.0 115.0 L 110.0 115.0" stroke="#FF0000" fill="none" stroke-width="4px" />
<path d="M 110.0 115.0 L 100.0 115.0" stroke="#FF0000" fill="none" stroke-width="4px" />
<path d="M 100.0 115.0 L 90.0 115.0" stroke="#FF0000" fill="none" stroke-width="4px" />
<path d="M 90.0 115.0 L 100.0 125.0" stroke="#FF0000" fill="none" stroke-width="4px" />
<path d="M 100.0 125.0 L 110.0 125.0" stroke="#FF0000" fill="none" stroke-width="4px" />
<path d="M 110.0 125.0 L 120.0 125.0" stroke="#FF0000" fill="none" stroke-width="4px" />
<path d="M 120.0 125.0 L 130.0 125.0" stroke="#FF0000" fill="none" stroke-width="4px" />
<path d="M 130.0 125.0 L 120.0 135.0" stroke="#FF0000" fill="none" stroke-width="4px" />
<path d="M 120.0 95.0 L 110.0 95.0" stroke="#FF0000" fill="none" stroke-width="4px" />
<path d="M 110.0 95.0 L 100.0 95.0" stroke="#FF0000" fill="none" stroke-width="4px" />
<path d="M 100.0 95.0 L 90.0 95.0" stroke="#FF0000" fill="none" stroke-width="4px" />
<path d="M 90.0 95.0 L 80.0 95.0" stroke="#FF0000" fill="none" stroke-width="4px" />
<path d="M 80.0 95.0 L 70.0 95.0" stroke="#FF0000" fill="none" stroke-width="4px" />
<path d="M 70.0 95.0 L 60.0 95.0" stroke="#FF0000" fill="none" stroke-width="4px" />
<path d="M 60.0 95.0 L 60.0 85.0" stroke="#FF0000" fill="none" stroke-width="4px" />
<path d="M 60.0 85.0 L 50.0 85.0" stroke="#FF0000" fill="none" stroke-width="4px" />
<path d="M 50.0 85.0 L 50.0 75.0" stroke="#FF0000" fill="none" stroke-width="4px" />
<path d="M 50.0 75.0 L 60.0 75.0" stroke="#FF0000" fill="none" stroke-width="4px" />
<path d="M 60.0 75.0 L 70.0 75.0" stroke="#FF0000" fill="none" stroke-width="4px" />
<path d="M 70.0 75.0 L 80.0 75.0" stroke="#FF0000" fill="none" stroke-width="4px" />
<path d="M 80.0 75.0 L 90.0 75.0" stroke="#FF0000" fill="none" stroke-width="4px" />
<path d="M 90.0 75.0 L 100.0 75.0" stroke="#FF0000" fill="none" stroke-width="4px" />
<path d="M 100.0 75.0 L 110.0 75.0" stroke="#FF0000" fill="none" stroke-width="4px" />
<path d="M 110.0 75.0 L 120.0 75.0" stroke="#FF0000" fill="none" stroke-width="4px" />
<path d="M 120.0 75.0 L 120.0 85.0" stroke="#FF0000" fill="none" stroke-width="4px" />
<path d="M 120.0 85.0 L 110.0 85.0" stroke="#FF0000" fill="none" stroke-width="4px" />
<path d="M 110.0 85.0 L 100.0 85.0" stroke="#FF0000" fill="none" stroke-width="4px" />
<path d="M 100.0 85.0 L 90.0 85.0" stroke="#FF0000" fill="none" stroke-width="4px" />
<path d="M 90.0 85.0 L 80.0 85.0" stroke="#FF0000" fill="none" stroke-width="4px" />
<path d="M 80.0 85.0 L 70.0 85.0" stroke="#FF0000" fill="none" stroke-width="4px" />
<path d="M 70.0 65.0 L 60.0 65.0" stroke="#FF0000" fill="none" stroke-width="4px" />
<path d="M 60.0 65.0 L 50.0 65.0" stroke="#FF0000" fill="none" stroke-width="4px" />
<path d="M 50.0 65.0 L 50.0 55.0" stroke="#FF0000" fill="none" stroke-width="4px" />
<path d="M 50.0 55.0 L 60.0 55.0" stroke="#FF0000" fill="none" stroke-width="4px" />
<path d="M 60.0 55.0 L 70.0 55.0" stroke="#FF0000" fill="none" stroke-width="4px" />
<path d="M 70.0 55.0 L 80.0 55.0" stroke="#FF0000" fill="none" stroke-width="4px" />
<path d="M 80.0 55.0 L 90.0 55.0" stroke="#FF0000" fill="none" stroke-width="4px" />
<path d="M 90.0 55.0 L 100.0 55.0" stroke="#FF0000" fill="none" stroke-width="4px" />
<path d="M 100.0 55.0 L 110.0 55.0" stroke="#FF0000" fill="none" stroke-width="4px" />
<path d="M 110.0 55.0 L 110.0 65.0" stroke="#FF0000" fill="none" stroke-width="4px" />
<path d="M 110.0 65.0 L 100.0 65.0" stroke="#FF0000" fill="none" stroke-width="4px" />
<path d="M 100.0 65.0 L 90.0 65.0" stroke="#FF0000" fill="none" stroke-width="4px" />
<path d="M 90.0 65.0 L 80.0 65.0" stroke="#FF0000" fill="none" stroke-width="4px" />
<path d="M 80.0 45.0 L 70.0 45.0" stroke="#FF0000" fill="none" stroke-width="4px" />
<path d="M 70.0 45.0 L 60.0 45.0" stroke="#FF0000" fill="none" stroke-width="4px" />
<path d="M 60.0 45.0 L 50.0 45.0" stroke="#FF0000" fill="none" stroke-width="4px" />
<path d="M 50.0 45.0 L 60.0 35.0" stroke="#FF0000" fill="none" stroke-width="4px" />
<path d="M 60.0 35.0 L 70.0 35.0" stroke="#FF0000" fill="none" stroke-width="4px" />
<path d="M 70.0 35.0 L 80.0 35.0" stroke="#FF0000" fill="none" stroke-width="4px" />
<path d="M 80.0 35.0 L 90.0 45.0" stroke="#FF0000" fill="none" stroke-width="4px" />
<path d="M 90.0 45.0 L 100.0 45.0" stroke="#FF0000" fill="none" stroke-width="4px" />
<path d="M 130.0 35.0 L 140.0 35.0" stroke="#FF0000" fill="none" stroke-width="4px" />
<path d="M 140.0 35.0 L 150.0 35.0" stroke="#FF0000" fill="none" stroke-width="4px" />
<path d="M 150.0 35.0 L 160.0 35.0" stroke="#FF0000" fill="none" stroke-width="4px" />
<path d="M 160.0 35.0 L 170.0 35.0" stroke="#FF0000" fill="none" stroke-width="4px" />
<path d="M 170.0 35.0 L 180.0 35.0" stroke="#FF0000" fill="none" stroke-width="4px" />
<path d="M 180.0 35.0 L 170.0 45.0" stroke="#FF0000" fill="none" stroke-width="4px" />
<path d="M 170.0 45.0 L 160.0 45.0" stroke="#FF0000" fill="none" stroke-width="4px" />
<path d="M 160.0 45.0 L 150.0 45.0" stroke="#FF0000" fill="none" stroke-width="4px" />
<path d="M 150.0 45.0 L 140.0 45.0" stroke="#FF0000" fill="none" stroke-width="4px" />
<path d="M 140.0 45.0 L 150.0 55.0" stroke="#FF0000" fill="none" stroke-width="4px" />
<path d="M 150.0 55.0 L 160.0 55.0" stroke="#FF0000" fill="none" stroke-width="4px" />
<path d="M 140.0 25.0 L 150.0 25.0" stroke="#FF0000" fill="none" stroke-width="4px" />
<path d="M 150.0 25.0 L 160.0 25.0" stroke="#FF0000" fill="none" stroke-width="4px" />
<path d="M 160.0 25.0 L 170.0 25.0" stroke="#FF0000" fill="none" stroke-width="4px" />
<path d="M 170.0 25.0 L 160.0 15.0" stroke="#FF0000" fill="none" stroke-width="4px" />
<path d="M 160.0 15.0 L 150.0 15.0" stroke="#FF0000" fill="none" stroke-width="4px" />
<path d="M 230.0 85.0 L 240.0 85.0" stroke="#FF0000" fill="none" stroke-width="4px" />
<path d="M 240.0 85.0 L 240.0 95.0" stroke="#FF0000" fill="none" stroke-width="4px" />
<path d="M 240.0 95.0 L 230.0 95.0" stroke="#FF0000" fill="none" stroke-width="4px" />
<path d="M 230.0 95.0 L 220.0 95.0" stroke="#FF0000" fill="none" stroke-width="4px" />
<path d="M 220.0 95.0 L 220.0 105.0" stroke="#FF0000" fill="none" stroke-width="4px" />
<path d="M 220.0 105.0 L 230.0 105.0" stroke="#FF0000" fill="none" stroke-width="4px" />
<path d="M 230.0 105.0 L 240.0 105.0" stroke="#FF0000" fill="none" stroke-width="4px" />
<path d="M 240.0 105.0 L 250.0 105.0" stroke="#FF0000" fill="none" stroke-width="4px" />
<path d="M 250.0 105.0 L 260.0 105.0" stroke="#FF0000" fill="none" stroke-width="4px" />
<path d="M 260.0 105.0 L 270.0 105.0" stroke="#FF0000" fill="none" stroke-width="4px" />
<path d="M 270.0 105.0 L 280.0 105.0" stroke="#FF0000" fill="none" stroke-width="4px" />
<path d="M 280.0 105.0 L 290.0 105.0" stroke="#FF0000" fill="none" stroke-width="4px" />
<path d="M 290.0 105.0 L 300.0 105.0" stroke="#FF0000" fill="none" stroke-width="4px" />
<path d="M 300.0 105.0 L 300.0 115.0" stroke="#FF0000" fill="none" stroke-width="4px" />
<path d="M 300.0 115.0 L 290.0 115.0" stroke="#FF0000" fill="none" stroke-width="4px" />
<path d="M 290.0 115.0 L 280.0 115.0" stroke="#FF0000" fill="none" stroke-width="4px" />
<path d="M 280.0 115.0 L 270.0 115.0" stroke="#FF0000" fill="none" stroke-width="4px" />
<path d="M 270.0 115.0 L 260.0 115.0" stroke="#FF0000" fill="none" stroke-width="4px" />
<path d="M 260.0 115.0 L 250.0 115.0" stroke="#FF0000" fill="none" stroke-width="4px" />
<path d="M 250.0 115.0 L 240.0 115.0" stroke="#FF0000" fill="none" stroke-width="4px" />
<path d="M 240.0 115.0 L 230.0 115.0" stroke="#FF0000" fill="none" stroke-width="4px" />
<path d="M 230.0 115.0 L 220.0 115.0" stroke="#FF0000" fill="none" stroke-width="4px" />
<path d="M 220.0 115.0 L 230.0 125.0" stroke="#FF0000" fill="none" stroke-width="4px" />
<path d="M 230.0 125.0 L 240.0 125.0" stroke="#FF0000" fill="none" stroke-width="4px" />
<path d="M 240.0 125.0 L 250.0 125.0" stroke="#FF0000" fill="none" stroke-width="4px" />
<path d="M 250.0 125.0 L 260.0 125.0" stroke="#FF0000" fill="none" stroke-width="4px" />
<path d="M 260.0 125.0 L 270.0 125.0" stroke="#FF0000" fill="none" stroke-width="4px" />
<path d="M 270.0 125.0 L 280.0 125.0" stroke="#FF0000" fill="none" stroke-width="4px" />
<path d="M 280.0 125.0 L 290.0 125.0" stroke="#FF0000" fill="none" stroke-width="4px" />
<path d="M 290.0 125.0 L 280.0 135.0" stroke="#FF0000" fill="none" stroke-width="4px" />
<path d="M 250.0 145.0 L 250.0 155.0" stroke="#FF0000" fill="none" stroke-width="4px" />
<path d="M 250.0 155.0 L 240.0 155.0" stroke="#FF0000" fill="none" stroke-width="4px" />
<path d="M 240.0 155.0 L 240.0 165.0" stroke="#FF0000" fill="none" stroke-width="4px" />
<path d="M 240.0 165.0 L 230.0 165.0" stroke="#FF0000" fill="none" stroke-width="4px" />
<path d="M 230.0 165.0 L 230.0 175.0" stroke="#FF0000" fill="none" stroke-width="4px" />
<path d="M 230.0 175.0 L 240.0 175.0" stroke="#FF0000" fill="none" stroke-width="4px" />
<path d="M 240.0 175.0 L 250.0 175.0" stroke="#FF0000" fill="none" stroke-width="4px" />
<path d="M 250.0 175.0 L 260.0 175.0" stroke="#FF0000" fill="none" stroke-width="4px" />
<path d="M 260.0 175.0 L 270.0 175.0" stroke="#FF0000" fill="none" stroke-width="4px" />
<path d="M 270.0 175.0 L 280.0 175.0" stroke="#FF0000" fill="none" stroke-width="4px" />
<path d="M 280.0 175.0 L 280.0 185.0" stroke="#FF0000" fill="none" stroke-width="4px" />
<path d="M 280.0 185.0 L 270.0 185.0" stroke="#FF0000" fill="none" stroke-width="4px" />
<path d="M 270.0 185.0 L 260.0 185.0" stroke="#FF0000" fill="none" stroke-width="4px" />
<path d="M 260.0 185.0 L 250.0 185.0" stroke="#FF0000" fill="none" stroke-width="4px" />
<path d="M 250.0 185.0 L 240.0 185.0" stroke="#FF0000" fill="none" stroke-width="4px" />
<path d="M 240.0 185.0 L 230.0 185.0" stroke="#FF0000" fill="none" stroke-width="4px" />
<path d="M 230.0 185.0 L 240.0 195.0" stroke="#FF0000" fill="none" stroke-width="4px" />
<path d="M 240.0 195.0 L 250.0 195.0" stroke="#FF0000" fill="none" stroke-width="4px" />
<path d="M 250.0 195.0 L 260.0 195.0" stroke="#FF0000" fill="none" stroke-width="4px" />
<path d="M 260.0 195.0 L 270.0 195.0" stroke="#FF0000" fill="none" stroke-width="4px" />
<path d="M 270.0 195.0 L 260.0 205.0" stroke="#FF0000" fill="none" stroke-width="4px" />
<path d="M 260.0 205.0 L 250.0 205.0" stroke="#FF0000" fill="none" stroke-width="4px" />
<path d="M 250.0 165.0 L 260.0 165.0" stroke="#FF0000" fill="none" stroke-width="4px" />
<path d="M 260.0 165.0 L 270.0 165.0" stroke="#FF0000" fill="none" stroke-width="4px" />
<path d="M 270.0 165.0 L 260.0 155.0" stroke="#FF0000" fill="none" stroke-width="4px" />
<path d="M 250.0 95.0 L 260.0 95.0" stroke="#FF0000" fill="none" stroke-width="4px" />
<path d="M 260.0 95.0 L 270.0 95.0" stroke="#FF0000" fill="none" stroke-width="4px" />
<path d="M 270.0 95.0 L 280.0 95.0" stroke="#FF0000" fill="none" stroke-width="4px" />
<path d="M 280.0 95.0 L 290.0 95.0" stroke="#FF0000" fill="none" stroke-width="4px" />
<path d="M 290.0 95.0 L 300.0 95.0" stroke="#FF0000" fill="none" stroke-width="4px" />
<path d="M 300.0 95.0 L 290.0 85.0" stroke="#FF0000" fill="none" stroke-width="4px" />
<path d="M 290.0 85.0 L 280.0 85.0" stroke="#FF0000" fill="none" stroke-width="4px" />
<path d="M 280.0 85.0 L 270.0 85.0" stroke="#FF0000" fill="none" stroke-width="4px" />
<path d="M 270.0 85.0 L 260.0 85.0" stroke="#FF0000" fill="none" stroke-width="4px" />
<path d="M 690.0 35.0 L 700.0 35.0" stroke="#FF0000" fill="none" stroke-width="4px" />
<path d="M 700.0 35.0 L 710.0 35.0" stroke="#FF0000" fill="none" stroke-width="4px" />
<path d="M 710.0 35.0 L 720.0 35.0" stroke="#FF0000" fill="none" stroke-width="4px" />
<path d="M 720.0 35.0 L 730.0 35.0" stroke="#FF0000" fill="none" stroke-width="4px" />
<path d="M 730.0 35.0 L 720.0 45.0" stroke="#FF0000" fill="none" stroke-width="4px" />
<path d="M 720.0 45.0 L 710.0 45.0" stroke="#FF0000" fill="none" stroke-width="4px" />
<path d="M 710.0 45.0 L 700.0 45.0" stroke="#FF0000" fill="none" stroke-width="4px" />
<path d="M 700.0 45.0 L 710.0 55.0" stroke="#FF0000" fill="none" stroke-width="4px" />
<path d="M 710.0 25.0 L 700.0 25.0" stroke="#FF0000" fill="none" stroke-width="4px" />
<path d="M 700.0 25.0 L 710.0 15.0" stroke="#FF0000" fill="none" stroke-width="4px" />
<path d="M 710.0 15.0 L 720.0 25.0" stroke="#FF0000" fill="none" stroke-width="4px" />
<path d="M 2420.0 195.0 L 2420.0 185.0" stroke="#FF0000" fill="none" stroke-width="4px" />
<path d="M 2420.0 185.0 L 2410.0 185.0" stroke="#FF0000" fill="none" stroke-width="4px" />
<path d="M 2410.0 185.0 L 2410.0 175.0" stroke="#FF0000" fill="none" stroke-width="4px" />
<path d="M 2410.0 175.0 L 2400.0 175.0" stroke="#FF0000" fill="none" stroke-width="4px" />
<path d="M 2400.0 175.0 L 2400.0 165.0" stroke="#FF0000" fill="none" stroke-width="4px" />
<path d="M 2400.0 165.0 L 2410.0 165.0" stroke="#FF0000" fill="none" stroke-width="4px" />
<path d="M 2410.0 165.0 L 2420.0 165.0" stroke="#FF0000" fill="none" stroke-width="4px" />
<path d="M 2420.0 165.0 L 2430.0 165.0" stroke="#FF0000" fill="none" stroke-width="4px" />
<path d="M 2430.0 165.0 L 2440.0 165.0" stroke="#FF0000" fill="none" stroke-width="4px" />
<path d="M 2440.0 165.0 L 2440.0 175.0" stroke="#FF0000" fill="none" stroke-width="4px" />
<path d="M 2440.0 175.0 L 2430.0 175.0" stroke="#FF0000" fill="none" stroke-width="4px" />
<path d="M 2430.0 175.0 L 2420.0 175.0" stroke="#FF0000" fill="none" stroke-width="4px" />
<path d="M 2420.0 175.0 L 2430.0 185.0" stroke="#FF0000" fill="none" stroke-width="4px" />
<path d="M 2430.0 155.0 L 2420.0 155.0" stroke="#FF0000" fill="none" stroke-width="4px" />
<path d="M 2420.0 155.0 L 2410.0 155.0" stroke="#FF0000" fill="none" stroke-width="4px" />
<path d="M 2410.0 155.0 L 2420.0 145.0" stroke="#FF0000" fill="none" stroke-width="4px" />
<path d="M 2420.0 75.0 L 2420.0 65.0" stroke="#FF0000" fill="none" stroke-width="4px" />
<path d="M 2420.0 65.0 L 2410.0 65.0" stroke="#FF0000" fill="none" stroke-width="4px" />
<path d="M 2410.0 65.0 L 2410.0 55.0" stroke="#FF0000" fill="none" stroke-width="4px" />
<path d="M 2410.0 55.0 L 2400.0 55.0" stroke="#FF0000" fill="none" stroke-width="4px" />
<path d="M 2400.0 55.0 L 2400.0 45.0" stroke="#FF0000" fill="none" stroke-width="4px" />
<path d="M 2400.0 45.0 L 2390.0 45.0" stroke="#FF0000" fill="none" stroke-width="4px" />
<path d="M 2390.0 45.0 L 2390.0 35.0" stroke="#FF0000" fill="none" stroke-width="4px" />
<path d="M 2390.0 35.0 L 2380.0 35.0" stroke="#FF0000" fill="none" stroke-width="4px" />
<path d="M 2380.0 35.0 L 2380.0 25.0" stroke="#FF0000" fill="none" stroke-width="4px" />
<path d="M 2380.0 25.0 L 2370.0 25.0" stroke="#FF0000" fill="none" stroke-width="4px" />
<path d="M 2370.0 25.0 L 2370.0 15.0" stroke="#FF0000" fill="none" stroke-width="4px" />
<path d="M 2370.0 15.0 L 2380.0 15.0" stroke="#FF0000" fill="none" stroke-width="4px" />
<path d="M 2380.0 15.0 L 2390.0 15.0" stroke="#FF0000" fill="none" stroke-width="4px" />
<path d="M 2390.0 15.0 L 2400.0 15.0" stroke="#FF0000" fill="none" stroke-width="4px" />
<path d="M 2400.0 15.0 L 2410.0 15.0" stroke="#FF0000" fill="none" stroke-width="4px" />
<path d="M 2410.0 15.0 L 2420.0 15.0" stroke="#FF0000" fill="none" stroke-width="4px" />
<path d="M 2420.0 15.0 L 2430.0 15.0" stroke="#FF0000" fill="none" stroke-width="4px" />
<path d="M 2430.0 15.0 L 2440.0 15.0" stroke="#FF0000" fill="none" stroke-width="4px" />
<path d="M 2440.0 15.0 L 2440.0 25.0" stroke="#FF0000" fill="none" stroke-width="4px" />
<path d="M 2440.0 25.0 L 2430.0 25.0" stroke="#FF0000" fill="none" stroke-width="4px" />
<path d="M 2430.0 25.0 L 2420.0 25.0" stroke="#FF0000" fill="none" stroke-width="4px" />
<path d="M 2420.0 25.0 L 2410.0 25.0" stroke="#FF0000" fill="none" stroke-width="4px" />
<path d="M 2410.0 25.0 L 2400.0 25.0" stroke="#FF0000" fill="none" stroke-width="4px" />
<path d="M 2400.0 25.0 L 2390.0 25.0" stroke="#FF0000" fill="none" stroke-width="4px" />
<path d="M 2390.0 25.0 L 2400.0 35.0" stroke="#FF0000" fill="none" stroke-width="4px" />
<path d="M 2400.0 35.0 L 2410.0 35.0" stroke="#FF0000" fill="none" stroke-width="4px" />
<path d="M 2410.0 35.0 L 2420.0 35.0" stroke="#FF0000" fill="none" stroke-width="4px" />
<path d="M 2420.0 35.0 L 2430.0 35.0" stroke="#FF0000" fill="none" stroke-width="4px" />
<path d="M 2430.0 35.0 L 2440.0 35.0" stroke="#FF0000" fill="none" stroke-width="4px" />
<path d="M 2440.0 35.0 L 2440.0 45.0" stroke="#FF0000" fill="none" stroke-width="4px" />
<path d="M 2440.0 45.0 L 2430.0 45.0" stroke="#FF0000" fill="none" stroke-width="4px" />
<path d="M 2430.0 45.0 L 2420.0 45.0" stroke="#FF0000" fill="none" stroke-width="4px" />
<path d="M 2420.0 45.0 L 2410.0 45.0" stroke="#FF0000" fill="none" stroke-width="4px" />
<path d="M 2410.0 45.0 L 2420.0 55.0" stroke="#FF0000" fill="none" stroke-width="4px" />
<path d="M 2420.0 55.0 L 2430.0 55.0" stroke="#FF0000" fill="none" stroke-width="4px" />
<path d="M 2430.0 55.0 L 2440.0 55.0" stroke="#FF0000" fill="none" stroke-width="4px" />
<path d="M 2440.0 55.0 L 2430.0 65.0" stroke="#FF0000" fill="none" stroke-width="4px" />
<path d="M 2430.0 5.0 L 2420.0 5.0" stroke="#FF0000" fill="none" stroke-width="4px" />
<path d="M 2420.0 5.0 L 2410.0 5.0" stroke="#FF0000" fill="none" stroke-width="4px" />
<path d="M 2410.0 5.0 L 2400.0 5.0" stroke="#FF0000" fill="none" stroke-width="4px" />
<path d="M 2400.0 5.0 L 2390.0 5.0" stroke="#FF0000" fill="none" stroke-width="4px" />
<path d="M 2390.0 5.0 L 2380.0 5.0" stroke="#FF0000" fill="none" stroke-width="4px" />
<path d="M 2380.0 5.0 L 2370.0 5.0" stroke="#FF0000" fill="none" stroke-width="4px" />
<path d="M 2370.0 5.0 L 2360.0 5.0" stroke="#FF0000" fill="none" stroke-width="4px" />
<path d="M 2360.0 5.0 L 2370.0 -5.0" stroke="#FF0000" fill="none" stroke-width="4px" />
<path d="M 2370.0 -5.0 L 2380.0 -5.0" stroke="#FF0000" fill="none" stroke-width="4px" />
<path d="M 2380.0 -5.0 L 2390.0 -5.0" stroke="#FF0000" fill="none" stroke-width="4px" />
<path d="M 2390.0 -5.0 L 2400.0 -5.0" stroke="#FF0000" fill="none" stroke-width="4px" />
<path d="M 2400.0 -5.0 L 2410.0 -5.0" stroke="#FF0000" fill="none" stroke-width="4px" />
<path d="M 2410.0 -5.0 L 2420.0 -5.0" stroke="#FF0000" fill="none" stroke-width="4px" />
<path d="M 2420.0 -5.0 L 2430.0 -5.0" stroke="#FF0000" fill="none" stroke-width="4px" />
<path d="M 2430.0 -5.0 L 2440.0 5.0" stroke="#FF0000" fill="none" stroke-width="4px" />
</svg>