<svg width="2472.26666667" height="235.0" xmlns="http://www.w3.org/2000/svg" version="1.1">
<path d="M 0.0 235.0 L 1985.0 235.0 L 1985.0 0.0 L 0.0 0.0 L 0.0 235.0" stroke="#000000" fill="none" stroke-width="3px" />
<path d="M 2472.26666667 235.0 L 1885.0 235.0 L 1885.0 0.0 L 2472.26666667 0.0 L 2472.26666667 235.0" stroke="#000000" fill="none" stroke-width="3px" />
<path d="M 10.0 257.5 L 0.0 247.5 L 10.0 237.5" stroke="#969696" fill="none" stroke-width="1px" />
<path d="M 10.0 237.5 L 1975.0 237.5" stroke="#969696" fill="none" stroke-width="1px" />
<path d="M 1975.0 237.5 L 1985.0 227.5 L 1975.0 217.5" stroke="#969696" fill="none" stroke-width="1px" />
<path d="M 1975.0 217.5 L 10.0 217.5" stroke="#969696" fill="none" stroke-width="1px" />
<path d="M 10.0 217.5 L 0.0 207.5 L 10.0 197.5" stroke="#969696" fill="none" stroke-width="1px" />
<path d="M 10.0 197.5 L 1975.0 197.5" stroke="#969696" fill="none" stroke-width="1px" />
<path d="M 1975.0 197.5 L 1985.0 187.5 L 1975.0 177.5" stroke="#969696" fill="none" stroke-width="1px" />
<path d="M 1975.0 177.5 L 10.0 177.5" stroke="#969696" fill="none" stroke-width="1px" />
<path d="M 10.0 177.5 L 0.0 167.5 L 10.0 157.5" stroke="#969696" fill="none" stroke-width="1px" />
<path d="M 10.0 157.5 L 1975.0 157.5" stroke="#969696" fill="none" stroke-width="1px" />
<path d="M 1975.0 157.5 L 1985.0 147.5 L 1975.0 137.5" stroke="#969696" fill="none" stroke-width="1px" />
<path d="M 1975.0 137.5 L 10.0 137.5" stroke="#969696" fill="none" stroke-width="1px" />
<path d="M 10.0 137.5 L 0.0 127.5 L 10.0 117.5" stroke="#969696" fill="none" stroke-width="1px" />
<path d="M 10.0 117.5 L 1975.0 117.5" stroke="#969696" fill="none" stroke-width="1px" />
<path d="M 1975.0 117.5 L 1985.0 107.5 L 1975.0 97.5" stroke="#969696" fill="none" stroke-width="1px" />
<path d="M 1975.0 97.5 L 10.0 97.5" stroke="#969696" fill="none" stroke-width="1px" />
<path d="M 10.0 97.5 L 0.0 87.5 L 10.0 77.5" stroke="#969696" fill="none" stroke-width="1px" />
<path d="M 10.0 77.5 L 1975.0 77.5" stroke="#969696" fill="none" stroke-width="1px" />
<path d="M 1975.0 77.5 L 1985.0 67.5 L 1975.0 57.5" stroke="#969696" fill="none" stroke-width="1px" />
<path d="M 1975.0 57.5 L 10.0 57.5" stroke="#969696" fill="none" stroke-width="1px" />
<path d="M 10.0 57.5 L 0.0 47.5 L 10.0 37.5" stroke="#969696" fill="none" stroke-width="1px" />
<path d="M 10.0 37.5 L 1975.0 37.5" stroke="#969696" fill="none" stroke-width="1px" />
<path d="M 1975.0 37.5 L 1985.0 27.5 L 1975.0 17.5" stroke="#969696" fill="none" stroke-width="1px" />
<path d="M 1975.0 17.5 L 10.0 17.5" stroke="#969696" fill="none" stroke-width="1px" />
<path d="M 10.0 17.5 L 0.0 7.5 L 10.0 -2.5" stroke="#969696" fill="none" stroke-width="1px" />
<path d="M 10.0 -2.5 L 1975.0 -2.5" stroke="#969696" fill="none" stroke-width="1px" />
<path d="M 1975.0 -2.5 L 1985.0 -12.5 L 1975.0 -22.5" stroke="#969696" fill="none" stroke-width="1px" />
<path d="M 2462.26666667 257.5 L 2472.26666667 247.5 L 2462.26666667 237.5" stroke="#969696" fill="none" stroke-width="1px" />
<path d="M 2462.26666667 237.5 L 1895.0 237.5" stroke="#969696" fill="none" stroke-width="1px" />
<path d="M 1895.0 237.5 L 1885.0 227.5 L 1895.0 217.5" stroke="#969696" fill="none" stroke-width="1px" />
<path d="M 1895.0 217.5 L 2462.26666667 217.5" stroke="#969696" fill="none" stroke-width="1px" />
<path d="M 2462.26666667 217.5 L 2472.26666667 207.5 L 2462.26666667 197.5" stroke="#969696" fill="none" stroke-width="1px" />
<path d="M 2462.26666667 197.5 L 1895.0 197.5" stroke="#969696" fill="none" stroke-width="1px" />
<path d="M 1895.0 197.5 L 1885.0 187.5 L 1895.0 177.5" stroke="#969696" fill="none" stroke-width="1px" />
<path d="M 1895.0 177.5 L 2462.26666667 177.5" stroke="#969696" fill="none" stroke-width="1px" />
<path d="M 2462.26666667 177.5 L 2472.26666667 167.5 L 2462.26666667 157.5" stroke="#969696" fill="none" stroke-width="1px" />
<path d="M 2462.26666667 157.5 L 1895.0 157.5" stroke="#969696" fill="none" stroke-width="1px" />
<path d="M 1895.0 157.5 L 1885.0 147.5 L 1895.0 137.5" stroke="#969696" fill="none" stroke-width="1px" />
<path d="M 1895.0 137.5 L 2462.26666667 137.5" stroke="#969696" fill="none" stroke-width="1px" />
<path d="M 2462.26666667 137.5 L 2472.26666667 127.5 L 2462.26666667 117.5" stroke="#969696" fill="none" stroke-width="1px" />
<path d="M 2462.26666667 117.5 L 1895.0 117.5" stroke="#969696" fill="none" stroke-width="1px" />
<path d="M 1895.0 117.5 L 1885.0 107.5 L 1895.0 97.5" stroke="#969696" fill="none" stroke-width="1px" />
<path d="M 1895.0 97.5 L 2462.26666667 97.5" stroke="#969696" fill="none" stroke-width="1px" />
<path d="M 2462.26666667 97.5 L 2472.26666667 87.5 L 2462.26666667 77.5" stroke="#969696" fill="none" stroke-width="1px" />
<path d="M 2462.26666667 77.5 L 1895.0 77.5" stroke="#969696" fill="none" stroke-width="1px" />
<path d="M 1895.0 77.5 L 1885.0 67.5 L 1895.0 57.5" stroke="#969696" fill="none" stroke-width="1px" />
<path d="M 1895.0 57.5 L 2462.26666667 57.5" stroke="#969696" fill="none" stroke-width="1px" />
<path d="M 2462.26666667 57.5 L 2472.26666667 47.5 L 2462.26666667 37.5" stroke="#969696" fill="none" stroke-width="1px" />
<path d="M 2462.26666667 37.5 L 1895.0 37.5" stroke="#969696" fill="none" stroke-width="1px" />
<path d="M 1895.0 37.5 L 1885.0 27.5 L 1895.0 17.5" stroke="#969696" fill="none" stroke-width="1px" />
<path d="M 1895.0 17.5 L 2462.26666667 17.5" stroke="#969696" fill="none" stroke-width="1px" />
<path d="M 2462.26666667 17.5 L 2472.26666667 7.5 L 2462.26666667 -2.5" stroke="#969696" fill="none" stroke-width="1px" />
<path d="M 2462.26666667 -2.5 L 1895.0 -2.5" stroke="#969696" fill="none" stroke-width="1px" />
<path d="M 1895.0 -2.5 L 1885.0 -12.5 L 1895.0 -22.5" stroke="#969696" fill="none" stroke-width="1px" />
<path d="M 0.0 235.0 L 150.0 165.0" stroke="#0095FF" fill="none" stroke-width="2px" />
<path d="M 160.0 155.0 L 160.0 125.0" stroke="#0095FF" fill="none" stroke-width="2px" />
<path d="M 140.0 115.0 L 140.0 95.0" stroke="#0095FF" fill="none" stroke-width="2px" />
<path d="M 170.0 95.0 L 170.0 125.0" stroke="#0095FF" fill="none" stroke-width="2px" />
<path d="M 170.0 125.0 L 190.0 55.0" stroke="#0095FF" fill="none" stroke-width="2px" />
<path d="M 210.0 45.0 L 200.0 25.0" stroke="#0095FF" fill="none" stroke-width="2px" />
<path d="M 190.0 25.0 L 380.0 85.0" stroke="#0095FF" fill="none" stroke-width="2px" />
<path d="M 390.0 115.0 L 410.0 125.0" stroke="#0095FF" fill="none" stroke-width="2px" />
<path d="M 420.0 135.0 L 450.0 95.0" stroke="#0095FF" fill="none" stroke-width="2px" />
<path d="M 450.0 95.0 L 430.0 75.0" stroke="#0095FF" fill="none" stroke-width="2px" />
<path d="M 390.0 75.0 L 520.0 75.0" stroke="#0095FF" fill="none" stroke-width="2px" />
<path d="M 530.0 25.0 L 530.0 85.0" stroke="#0095FF" fill="none" stroke-width="2px" />
<path d="M 560.0 85.0 L 1160.0 45.0" stroke="#0095FF" fill="none" stroke-width="2px" />
<path d="M 1200.0 65.0 L 1200.0 35.0" stroke="#0095FF" fill="none" stroke-width="2px" />
<path d="M 1200.0 25.0 L 1200.0 95.0" stroke="#0095FF" fill="none" stroke-width="2px" />
<path d="M 1210.0 165.0 L 1230.0 175.0" stroke="#0095FF" fill="none" stroke-width="2px" />
<path d="M 1240.0 175.0 L 1240.0 125.0" stroke="#0095FF" fill="none" stroke-width="2px" />
<path d="M 1240.0 125.0 L 1220.0 105.0" stroke="#0095FF" fill="none" stroke-width="2px" />
<path d="M 1210.0 95.0 L 1540.0 85.0" stroke="#0095FF" fill="none" stroke-width="2px" />
<path d="M 1570.0 115.0 L 1570.0 75.0" stroke="#0095FF" fill="none" stroke-width="2px" />
<path d="M 1580.0 75.0 L 1580.0 55.0" stroke="#0095FF" fill="none" stroke-width="2px" />
<path d="M 1610.0 55.0 L 1620.0 75.0" stroke="#0095FF" fill="none" stroke-width="2px" />
<path d="M 1620.0 75.0 L 1930.0 175.0" stroke="#0095FF" fill="none" stroke-width="2px" />
<path d="M 1940.0 205.0 L 1970.0 185.0" stroke="#0095FF" fill="none" stroke-width="2px" />
<path d="M 1970.0 185.0 L 1950.0 165.0" stroke="#0095FF" fill="none" stroke-width="2px" />
<path d="M 2472.26666667 235.0 L 2410.0 135.0" stroke="#0095FF" fill="none" stroke-width="2px" />
<path d="M 2410.0 125.0 L 2410.0 105.0" stroke="#0095FF" fill="none" stroke-width="2px" />
<path d="M 2400.0 105.0 L 2200.0 95.0" stroke="#0095FF" fill="none" stroke-width="2px" />
<path d="M 2200.0 85.0 L 2190.0 105.0" stroke="#0095FF" fill="none" stroke-width="2px" />
<path d="M 2160.0 105.0 L 2160.0 55.0" stroke="#0095FF" fill="none" stroke-width="2px" />
<path d="M 2190.0 55.0 L 2110.0 35.0" stroke="#0095FF" fill="none" stroke-width="2px" />
<path d="M 2090.0 25.0 L 2090.0 45.0" stroke="#0095FF" fill="none" stroke-width="2px" />
<path d="M 2100.0 45.0 L 2100.0 5.0" stroke="#0095FF" fill="none" stroke-width="2px" />
<path d="M 2100.0 -5.0 L 2020.0 15.0" stroke="#0095FF" fill="none" stroke-width="2px" />
<path d="M 2010.0 45.0 L 2010.0 5.0" stroke="#0095FF" fill="none" stroke-width="2px" />
<path d="M 150.0 165.0 L 150.0 155.0" stroke="#FF0000" fill="none" stroke-width="4px" />
<path d="M 150.0 155.0 L 140.0 155.0" stroke="#FF0000" fill="none" stroke-width="4px" />
<path d="M 140.0 155.0 L 140.0 145.0" stroke="#FF0000" fill="none" stroke-width="4px" />
<path d="M 140.0 145.0 L 130.0 145.0" stroke="#FF0000" fill="none" stroke-width="4px" />
<path d="M 130.0 145.0 L 140.0 135.0" stroke="#FF0000" fill="none" stroke-width="4px" />
<path d="M 140.0 135.0 L 150.0 135.0" stroke="#FF0000" fill="none" stroke-width="4px" />
<path d="M 150.0 135.0 L 160.0 135.0" stroke="#FF0000" fill="none" stroke-width="4px" />
<path d="M 160.0 135.0 L 170.0 135.0" stroke="#FF0000" fill="none" stroke-width="4px" />
<path d="M 170.0 135.0 L 170.0 145.0" stroke="#FF0000" fill="none" stroke-width="4px" />
<path d="M 170.0 145.0 L 160.0 145.0" stroke="#FF0000" fill="none" stroke-width="4px" />
<path d="M 160.0 145.0 L 150.0 145.0" stroke="#FF0000" fill="none" stroke-width="4px" />
<path d="M 150.0 145.0 L 160.0 155.0" stroke="#FF0000" fill="none" stroke-width="4px" />
<path d="M 160.0 125.0 L 150.0 125.0" stroke="#FF0000" fill="none" stroke-width="4px" />
<path d="M 150.0 125.0 L 140.0 125.0" stroke="#FF0000" fill="none" stroke-width="4px" />
<path d="M 140.0 125.0 L 130.0 125.0" stroke="#FF0000" fill="none" stroke-width="4px" />
<path d="M 130.0 125.0 L 130.0 115.0" stroke="#FF0000" fill="none" stroke-width="4px" />
<path d="M 130.0 115.0 L 120.0 115.0" stroke="#FF0000" fill="none" stroke-width="4px" />
<path d="M 120.0 115.0 L 130.0 105.0" stroke="#FF0000" fill="none" stroke-width="4px" />
<path d="M 130.0 105.0 L 140.0 105.0" stroke="#FF0000" fill="none" stroke-width="4px" />
<path d="M 140.0 105.0 L 150.0 105.0" stroke="#FF0000" fill="none" stroke-width="4px" />
<path d="M 150.0 105.0 L 160.0 105.0" stroke="#FF0000" fill="none" stroke-width="4px" />
<path d="M 160.0 105.0 L 170.0 105.0" stroke="#FF0000" fill="none" stroke-width="4px" />
<path d="M 170.0 105.0 L 170.0 115.0" stroke="#FF0000" fill="none" stroke-width="4px" />
<path d="M 170.0 115.0 L 160.0 115.0" stroke="#FF0000" fill="none" stroke-width="4px" />
<path d="M 160.0 115.0 L 150.0 115.0" stroke="#FF0000" fill="none" stroke-width="4px" />
<path d="M 150.0 115.0 L 140.0 115.0" stroke="#FF0000" fill="none" stroke-width="4px" />
<path d="M 140.0 95.0 L 130.0 95.0" stroke="#FF0000" fill="none" stroke-width="4px" />
<path d="M 130.0 95.0 L 140.0 85.0" stroke="#FF0000" fill="none" stroke-width="4px" />
<path d="M 140.0 85.0 L 150.0 85.0" stroke="#FF0000" fill="none" stroke-width="4px" />
<path d="M 150.0 85.0 L 160.0 85.0" stroke="#FF0000" fill="none" stroke-width="4px" />
<path d="M 160.0 85.0 L 160.0 95.0" stroke="#FF0000" fill="none" stroke-width="4px" />
<path d="M 160.0 95.0 L 150.0 95.0" stroke="#FF0000" fill="none" stroke-width="4px" />
<path d="M 150.0 95.0 L 170.0 95.0" stroke="#FF0000" fill="none" stroke-width="4px" />
<path d="M 190.0 55.0 L 200.0 55.0" stroke="#FF0000" fill="none" stroke-width="4px" />
<path d="M 200.0 55.0 L 200.0 45.0" stroke="#FF0000" fill="none" stroke-width="4px" />
<path d="M 200.0 45.0 L 190.0 45.0" stroke="#FF0000" fill="none" stroke-width="4px" />
<path d="M 190.0 45.0 L 180.0 45.0" stroke="#FF0000" fill="none" stroke-width="4px" />
<path d="M 180.0 45.0 L 180.0 35.0" stroke="#FF0000" fill="none" stroke-width="4px" />
<path d="M 180.0 35.0 L 190.0 35.0" stroke="#FF0000" fill="none" stroke-width="4px" />
<path d="M 190.0 35.0 L 200.0 35.0" stroke="#FF0000" fill="none" stroke-width="4px" />
<path d="M 200.0 35.0 L 210.0 35.0" stroke="#FF0000" fill="none" stroke-width="4px" />
<path d="M 210.0 35.0 L 210.0 45.0" stroke="#FF0000" fill="none" stroke-width="4px" />
<path d="M 200.0 25.0 L 190.0 25.0" stroke="#FF0000" fill="none" stroke-width="4px" />
<path d="M 380.0 85.0 L 390.0 85.0" stroke="#FF0000" fill="none" stroke-width="4px" />
<path d="M 390.0 85.0 L 400.0 85.0" stroke="#FF0000" fill="none" stroke-width="4px" />
<path d="M 400.0 85.0 L 410.0 85.0" stroke="#FF0000" fill="none" stroke-width="4px" />
<path d="M 410.0 85.0 L 420.0 85.0" stroke="#FF0000" fill="none" stroke-width="4px" />
<path d="M 420.0 85.0 L 430.0 85.0" stroke="#FF0000" fill="none" stroke-width="4px" />
<path d="M 430.0 85.0 L 440.0 85.0" stroke="#FF0000" fill="none" stroke-width="4px" />
<path d="M 440.0 85.0 L 440.0 95.0" stroke="#FF0000" fill="none" stroke-width="4px" />
<path d="M 440.0 95.0 L 430.0 95.0" stroke="#FF0000" fill="none" stroke-width="4px" />
<path d="M 430.0 95.0 L 420.0 95.0" stroke="#FF0000" fill="none" stroke-width="4px" />
<path d="M 420.0 95.0 L 410.0 95.0" stroke="#FF0000" fill="none" stroke-width="4px" />
<path d="M 410.0 95.0 L 400.0 95.0" stroke="#FF0000" fill="none" stroke-width="4px" />
<path d="M 400.0 95.0 L 390.0 95.0" stroke="#FF0000" fill="none" stroke-width="4px" />
<path d="M 390.0 95.0 L 380.0 95.0" stroke="#FF0000" fill="none" stroke-width="4px" />
<path d="M 380.0 95.0 L 380.0 105.0" stroke="#FF0000" fill="none" stroke-width="4px" />
<path d="M 380.0 105.0 L 390.0 105.0" stroke="#FF0000" fill="none" stroke-width="4px" />
<path d="M 390.0 105.0 L 400.0 105.0" stroke="#FF0000" fill="none" stroke-width="4px" />
<path d="M 400.0 105.0 L 410.0 105.0" stroke="#FF0000" fill="none" stroke-width="4px" />
<path d="M 410.0 105.0 L 420.0 105.0" stroke="#FF0000" fill="none" stroke-width="4px" />
<path d="M 420.0 105.0 L 430.0 105.0" stroke="#FF0000" fill="none" stroke-width="4px" />
<path d="M 430.0 105.0 L 440.0 105.0" stroke="#FF0000" fill="none" stroke-width="4px" />
<path d="M 440.0 105.0 L 450.0 105.0" stroke="#FF0000" fill="none" stroke-width="4px" />
<path d="M 450.0 105.0 L 450.0 115.0" stroke="#FF0000" fill="none" stroke-width="4px" />
<path d="M 450.0 115.0 L 440.0 115.0" stroke="#FF0000" fill="none" stroke-width="4px" />
<path d="M 440.0 115.0 L 430.0 115.0" stroke="#FF0000" fill="none" stroke-width="4px" />
<path d="M 430.0 115.0 L 420.0 115.0" stroke="#FF0000" fill="none" stroke-width="4px" />
<path d="M 420.0 115.0 L 410.0 115.0" stroke="#FF0000" fill="none" stroke-width="4px" />
<path d="M 410.0 115.0 L 400.0 115.0" stroke="#FF0000" fill="none" stroke-width="4px" />
<path d="M 400.0 115.0 L 390.0 115.0" stroke="#FF0000" fill="none" stroke-width="4px" />
<path d="M 410.0 125.0 L 420.0 125.0" stroke="#FF0000" fill="none" stroke-width="4px" />
<path d="M 420.0 125.0 L 430.0 125.0" stroke="#FF0000" fill="none" stroke-width="4px" />
<path d="M 430.0 125.0 L 440.0 125.0" stroke="#FF0000" fill="none" stroke-width="4px" />
<path d="M 440.0 125.0 L 430.0 135.0" stroke="#FF0000" fill="none" stroke-width="4px" />
<path d="M 430.0 135.0 L 420.0 135.0" stroke="#FF0000" fill="none" stroke-width="4px" />
<path d="M 430.0 75.0 L 420.0 75.0" stroke="#FF0000" fill="none" stroke-width="4px" />
<path d="M 420.0 75.0 L 410.0 75.0" stroke="#FF0000" fill="none" stroke-width="4px" />
<path d="M 410.0 75.0 L 400.0 75.0" stroke="#FF0000" fill="none" stroke-width="4px" />
<path d="M 400.0 75.0 L 390.0 75.0" stroke="#FF0000" fill="none" stroke-width="4px" />
<path d="M 520.0 75.0 L 530.0 75.0" stroke="#FF0000" fill="none" stroke-width="4px" />
<path d="M 530.0 75.0 L 540.0 75.0" stroke="#FF0000" fill="none" stroke-width="4px" />
<path d="M 540.0 75.0 L 550.0 75.0" stroke="#FF0000" fill="none" stroke-width="4px" />
<path d="M 550.0 75.0 L 560.0 75.0" stroke="#FF0000" fill="none" stroke-width="4px" />
<path d="M 560.0 75.0 L 570.0 75.0" stroke="#FF0000" fill="none" stroke-width="4px" />
<path d="M 570.0 75.0 L 570.0 65.0" stroke="#FF0000" fill="none" stroke-width="4px" />
<path d="M 570.0 65.0 L 560.0 65.0" stroke="#FF0000" fill="none" stroke-width="4px" />
<path d="M 560.0 65.0 L 550.0 65.0" stroke="#FF0000" fill="none" stroke-width="4px" />
<path d="M 550.0 65.0 L 540.0 65.0" stroke="#FF0000" fill="none" stroke-width="4px" />
<path d="M 540.0 65.0 L 530.0 65.0" stroke="#FF0000" fill="none" stroke-width="4px" />
<path d="M 530.0 65.0 L 520.0 65.0" stroke="#FF0000" fill="none" stroke-width="4px" />
<path d="M 520.0 65.0 L 520.0 55.0" stroke="#FF0000" fill="none" stroke-width="4px" />
<path d="M 520.0 55.0 L 530.0 55.0" stroke="#FF0000" fill="none" stroke-width="4px" />
<path d="M 530.0 55.0 L 540.0 55.0" stroke="#FF0000" fill="none" stroke-width="4px" />
<path d="M 540.0 55.0 L 550.0 55.0" stroke="#FF0000" fill="none" stroke-width="4px" />
<path d="M 550.0 55.0 L 560.0 55.0" stroke="#FF0000" fill="none" stroke-width="4px" />
<path d="M 560.0 55.0 L 570.0 55.0" stroke="#FF0000" fill="none" stroke-width="4px" />
<path d="M 570.0 55.0 L 580.0 55.0" stroke="#FF0000" fill="none" stroke-width="4px" />
<path d="M 580.0 55.0 L 580.0 45.0" stroke="#FF0000" fill="none" stroke-width="4px" />
<path d="M 580.0 45.0 L 570.0 45.0" stroke="#FF0000" fill="none" stroke-width="4px" />
<path d="M 570.0 45.0 L 560.0 45.0" stroke="#FF0000" fill="none" stroke-width="4px" />
<path d="M 560.0 45.0 L 550.0 45.0" stroke="#FF0000" fill="none" stroke-width="4px" />
<path d="M 550.0 45.0 L 540.0 45.0" stroke="#FF0000" fill="none" stroke-width="4px" />
<path d="M 540.0 45.0 L 530.0 45.0" stroke="#FF0000" fill="none" stroke-width="4px" />
<path d="M 530.0 45.0 L 520.0 45.0" stroke="#FF0000" fill="none" stroke-width="4px" />
<path d="M 520.0 45.0 L 520.0 35.0" stroke="#FF0000" fill="none" stroke-width="4px" />
<path d="M 520.0 35.0 L 530.0 35.0" stroke="#FF0000" fill="none" stroke-width="4px" />
<path d="M 530.0 35.0 L 540.0 35.0" stroke="#FF0000" fill="none" stroke-width="4px" />
<path d="M 540.0 35.0 L 550.0 35.0" stroke="#FF0000" fill="none" stroke-width="4px" />
<path d="M 550.0 35.0 L 560.0 35.0" stroke="#FF0000" fill="none" stroke-width="4px" />
<path d="M 560.0 35.0 L 570.0 35.0" stroke="#FF0000" fill="none" stroke-width="4px" />
<path d="M 570.0 35.0 L 560.0 25.0" stroke="#FF0000" fill="none" stroke-width="4px" />
<path d="M 560.0 25.0 L 550.0 25.0" stroke="#FF0000" fill="none" stroke-width="4px" />
<path d="M 550.0 25.0 L 540.0 25.0" stroke="#FF0000" fill="none" stroke-width="4px" />
<path d="M 540.0 25.0 L 530.0 25.0" stroke="#FF0000" fill="none" stroke-width="4px" />
<path d="M 530.0 85.0 L 520.0 85.0" stroke="#FF0000" fill="none" stroke-width="4px" />
<path d="M 520.0 85.0 L 530.0 95.0" stroke="#FF0000" fill="none" stroke-width="4px" />
<path d="M 530.0 95.0 L 540.0 95.0" stroke="#FF0000" fill="none" stroke-width="4px" />
<path d="M 540.0 95.0 L 540.0 85.0" stroke="#FF0000" fill="none" stroke-width="4px" />
<path d="M 540.0 85.0 L 550.0 85.0" stroke="#FF0000" fill="none" stroke-width="4px" />
<path d="M 550.0 85.0 L 560.0 85.0" stroke="#FF0000" fill="none" stroke-width="4px" />
<path d="M 1160.0 45.0 L 1170.0 45.0" stroke="#FF0000" fill="none" stroke-width="4px" />
<path d="M 1170.0 45.0 L 1180.0 45.0" stroke="#FF0000" fill="none" stroke-width="4px" />
<path d="M 1180.0 45.0 L 1190.0 45.0" stroke="#FF0000" fill="none" stroke-width="4px" />
<path d="M 1190.0 45.0 L 1200.0 45.0" stroke="#FF0000" fill="none" stroke-width="4px" />
<path d="M 1200.0 45.0 L 1210.0 45.0" stroke="#FF0000" fill="none" stroke-width="4px" />
<path d="M 1210.0 45.0 L 1210.0 55.0" stroke="#FF0000" fill="none" stroke-width="4px" />
<path d="M 1210.0 55.0 L 1200.0 55.0" stroke="#FF0000" fill="none" stroke-width="4px" />
<path d="M 1200.0 55.0 L 1190.0 55.0" stroke="#FF0000" fill="none" stroke-width="4px" />
<path d="M 1190.0 55.0 L 1180.0 55.0" stroke="#FF0000" fill="none" stroke-width="4px" />
<path d="M 1180.0 55.0 L 1170.0 55.0" stroke="#FF0000" fill="none" stroke-width="4px" />
<path d="M 1170.0 55.0 L 1180.0 65.0" stroke="#FF0000" fill="none" stroke-width="4px" />
<path d="M 1180.0 65.0 L 1190.0 65.0" stroke="#FF0000" fill="none" stroke-width="4px" />
<path d="M 1190.0 65.0 L 1200.0 65.0" stroke="#FF0000" fill="none" stroke-width="4px" />
<path d="M 1200.0 35.0 L 1190.0 35.0" stroke="#FF0000" fill="none" stroke-width="4px" />
<path d="M 1190.0 35.0 L 1180.0 35.0" stroke="#FF0000" fill="none" stroke-width="4px" />
<path d="M 1180.0 35.0 L 1170.0 35.0" stroke="#FF0000" fill="none" stroke-width="4px" />
<path d="M 1170.0 35.0 L 1180.0 25.0" stroke="#FF0000" fill="none" stroke-width="4px" />
<path d="M 1180.0 25.0 L 1190.0 25.0" stroke="#FF0000" fill="none" stroke-width="4px" />
<path d="M 1190.0 25.0 L 1200.0 25.0" stroke="#FF0000" fill="none" stroke-width="4px" />
<path d="M 1200.0 95.0 L 1190.0 95.0" stroke="#FF0000" fill="none" stroke-width="4px" />
<path d="M 1190.0 95.0 L 1190.0 105.0" stroke="#FF0000" fill="none" stroke-width="4px" />
<path d="M 1190.0 105.0 L 1180.0 105.0" stroke="#FF0000" fill="none" stroke-width="4px" />
<path d="M 1180.0 105.0 L 1180.0 115.0" stroke="#FF0000" fill="none" stroke-width="4px" />
<path d="M 1180.0 115.0 L 1190.0 115.0" stroke="#FF0000" fill="none" stroke-width="4px" />
<path d="M 1190.0 115.0 L 1200.0 115.0" stroke="#FF0000" fill="none" stroke-width="4px" />
<path d="M 1200.0 115.0 L 1210.0 115.0" stroke="#FF0000" fill="none" stroke-width="4px" />
<path d="M 1210.0 115.0 L 1220.0 115.0" stroke="#FF0000" fill="none" stroke-width="4px" />
<path d="M 1220.0 115.0 L 1230.0 115.0" stroke="#FF0000" fill="none" stroke-width="4px" />
<path d="M 1230.0 115.0 L 1230.0 125.0" stroke="#FF0000" fill="none" stroke-width="4px" />
<path d="M 1230.0 125.0 L 1220.0 125.0" stroke="#FF0000" fill="none" stroke-width="4px" />
<path d="M 1220.0 125.0 L 1210.0 125.0" stroke="#FF0000" fill="none" stroke-width="4px" />
<path d="M 1210.0 125.0 L 1200.0 125.0" stroke="#FF0000" fill="none" stroke-width="4px" />
<path d="M 1200.0 125.0 L 1190.0 125.0" stroke="#FF0000" fill="none" stroke-width="4px" />
<path d="M 1190.0 125.0 L 1180.0 125.0" stroke="#FF0000" fill="none" stroke-width="4px" />
<path d="M 1180.0 125.0 L 1180.0 135.0" stroke="#FF0000" fill="none" stroke-width="4px" />
<path d="M 1180.0 135.0 L 1190.0 135.0" stroke="#FF0000" fill="none" stroke-width="4px" />
<path d="M 1190.0 135.0 L 1200.0 135.0" stroke="#FF0000" fill="none" stroke-width="4px" />
<path d="M 1200.0 135.0 L 1210.0 135.0" stroke="#FF0000" fill="none" stroke-width="4px" />
<path d="M 1210.0 135.0 L 1220.0 135.0" stroke="#FF0000" fill="none" stroke-width="4px" />
<path d="M 1220.0 135.0 L 1230.0 135.0" stroke="#FF0000" fill="none" stroke-width="4px" />
<path d="M 1230.0 135.0 L 1240.0 135.0" stroke="#FF0000" fill="none" stroke-width="4px" />
<path d="M 1240.0 135.0 L 1250.0 135.0" stroke="#FF0000" fill="none" stroke-width="4px" />
<path d="M 1250.0 135.0 L 1250.0 145.0" stroke="#FF0000" fill="none" stroke-width="4px" />
<path d="M 1250.0 145.0 L 1240.0 145.0" stroke="#FF0000" fill="none" stroke-width="4px" />
<path d="M 1240.0 145.0 L 1230.0 145.0" stroke="#FF0000" fill="none" stroke-width="4px" />
<path d="M 1230.0 145.0 L 1220.0 145.0" stroke="#FF0000" fill="none" stroke-width="4px" />
<path d="M 1220.0 145.0 L 1210.0 145.0" stroke="#FF0000" fill="none" stroke-width="4px" />
<path d="M 1210.0 145.0 L 1200.0 145.0" stroke="#FF0000" fill="none" stroke-width="4px" />
<path d="M 1200.0 145.0 L 1190.0 145.0" stroke="#FF0000" fill="none" stroke-width="4px" />
<path d="M 1190.0 145.0 L 1200.0 155.0" stroke="#FF0000" fill="none" stroke-width="4px" />
<path d="M 1200.0 155.0 L 1210.0 155.0" stroke="#FF0000" fill="none" stroke-width="4px" />
<path d="M 1210.0 155.0 L 1220.0 155.0" stroke="#FF0000" fill="none" stroke-width="4px" />
<path d="M 1220.0 155.0 L 1230.0 155.0" stroke="#FF0000" fill="none" stroke-width="4px" />
<path d="M 1230.0 155.0 L 1240.0 155.0" stroke="#FF0000" fill="none" stroke-width="4px" />
<path d="M 1240.0 155.0 L 1250.0 155.0" stroke="#FF0000" fill="none" stroke-width="4px" />
<path d="M 1250.0 155.0 L 1250.0 165.0" stroke="#FF0000" fill="none" stroke-width="4px" />
<path d="M 1250.0 165.0 L 1240.0 165.0" stroke="#FF0000" fill="none" stroke-width="4px" />
<path d="M 1240.0 165.0 L 1230.0 165.0" stroke="#FF0000" fill="none" stroke-width="4px" />
<path d="M 1230.0 165.0 L 1220.0 165.0" stroke="#FF0000" fill="none" stroke-width="4px" />
<path d="M 1220.0 165.0 L 1210.0 165.0" stroke="#FF0000" fill="none" stroke-width="4px" />
<path d="M 1230.0 175.0 L 1240.0 175.0" stroke="#FF0000" fill="none" stroke-width="4px" />
<path d="M 1220.0 105.0 L 1210.0 105.0" stroke="#FF0000" fill="none" stroke-width="4px" />
<path d="M 1210.0 105.0 L 1200.0 105.0" stroke="#FF0000" fill="none" stroke-width="4px" />
<path d="M 1200.0 105.0 L 1210.0 95.0" stroke="#FF0000" fill="none" stroke-width="4px" />
<path d="M 1540.0 85.0 L 1550.0 85.0" stroke="#FF0000" fill="none" stroke-width="4px" />
<path d="M 1550.0 85.0 L 1560.0 85.0" stroke="#FF0000" fill="none" stroke-width="4px" />
<path d="M 1560.0 85.0 L 1570.0 85.0" stroke="#FF0000" fill="none" stroke-width="4px" />
<path d="M 1570.0 85.0 L 1580.0 85.0" stroke="#FF0000" fill="none" stroke-width="4px" />
<path d="M 1580.0 85.0 L 1590.0 85.0" stroke="#FF0000" fill="none" stroke-width="4px" />
<path d="M 1590.0 85.0 L 1600.0 85.0" stroke="#FF0000" fill="none" stroke-width="4px" />
<path d="M 1600.0 85.0 L 1610.0 85.0" stroke="#FF0000" fill="none" stroke-width="4px" />
<path d="M 1610.0 85.0 L 1620.0 85.0" stroke="#FF0000" fill="none" stroke-width="4px" />
<path d="M 1620.0 85.0 L 1620.0 95.0" stroke="#FF0000" fill="none" stroke-width="4px" />
<path d="M 1620.0 95.0 L 1610.0 95.0" stroke="#FF0000" fill="none" stroke-width="4px" />
<path d="M 1610.0 95.0 L 1600.0 95.0" stroke="#FF0000" fill="none" stroke-width="4px" />
<path d="M 1600.0 95.0 L 1590.0 95.0" stroke="#FF0000" fill="none" stroke-width="4px" />
<path d="M 1590.0 95.0 L 1580.0 95.0" stroke="#FF0000" fill="none" stroke-width="4px" />
<path d="M 1580.0 95.0 L 1570.0 95.0" stroke="#FF0000" fill="none" stroke-width="4px" />
<path d="M 1570.0 95.0 L 1560.0 95.0" stroke="#FF0000" fill="none" stroke-width="4px" />
<path d="M 1560.0 95.0 L 1560.0 105.0" stroke="#FF0000" fill="none" stroke-width="4px" />
<path d="M 1560.0 105.0 L 1570.0 105.0" stroke="#FF0000" fill="none" stroke-width="4px" />
<path d="M 1570.0 105.0 L 1580.0 105.0" stroke="#FF0000" fill="none" stroke-width="4px" />
<path d="M 1580.0 105.0 L 1590.0 105.0" stroke="#FF0000" fill="none" stroke-width="4px" />
<path d="M 1590.0 105.0 L 1600.0 105.0" stroke="#FF0000" fill="none" stroke-width="4px" />
<path d="M 1600.0 105.0 L 1610.0 105.0" stroke="#FF0000" fill="none" stroke-width="4px" />
<path d="M 1610.0 105.0 L 1600.0 115.0" stroke="#FF0000" fill="none" stroke-width="4px" />
<path d="M 1600.0 115.0 L 1590.0 115.0" stroke="#FF0000" fill="none" stroke-width="4px" />
<path d="M 1590.0 115.0 L 1580.0 115.0" stroke="#FF0000" fill="none" stroke-width="4px" />
<path d="M 1580.0 115.0 L 1570.0 115.0" stroke="#FF0000" fill="none" stroke-width="4px" />
<path d="M 1570.0 75.0 L 1560.0 75.0" stroke="#FF0000" fill="none" stroke-width="4px" />
<path d="M 1560.0 75.0 L 1550.0 75.0" stroke="#FF0000" fill="none" stroke-width="4px" />
<path d="M 1550.0 75.0 L 1540.0 75.0" stroke="#FF0000" fill="none" stroke-width="4px" />
<path d="M 1540.0 75.0 L 1550.0 65.0" stroke="#FF0000" fill="none" stroke-width="4px" />
<path d="M 1550.0 65.0 L 1560.0 65.0" stroke="#FF0000" fill="none" stroke-width="4px" />
<path d="M 1560.0 65.0 L 1570.0 65.0" stroke="#FF0000" fill="none" stroke-width="4px" />
<path d="M 1570.0 65.0 L 1580.0 65.0" stroke="#FF0000" fill="none" stroke-width="4px" />
<path d="M 1580.0 65.0 L 1590.0 65.0" stroke="#FF0000" fill="none" stroke-width="4px" />
<path d="M 1590.0 65.0 L 1600.0 65.0" stroke="#FF0000" fill="none" stroke-width="4px" />
<path d="M 1600.0 65.0 L 1610.0 65.0" stroke="#FF0000" fill="none" stroke-width="4px" />
<path d="M 1610.0 65.0 L 1610.0 75.0" stroke="#FF0000" fill="none" stroke-width="4px" />
<path d="M 1610.0 75.0 L 1600.0 75.0" stroke="#FF0000" fill="none" stroke-width="4px" />
<path d="M 1600.0 75.0 L 1590.0 75.0" stroke="#FF0000" fill="none" stroke-width="4px" />
<path d="M 1590.0 75.0 L 1580.0 75.0" stroke="#FF0000" fill="none" stroke-width="4px" />
<path d="M 1580.0 55.0 L 1570.0 55.0" stroke="#FF0000" fill="none" stroke-width="4px" />
<path d="M 1570.0 55.0 L 1560.0 55.0" stroke="#FF0000" fill="none" stroke-width="4px" />
<path d="M 1560.0 55.0 L 1570.0 45.0" stroke="#FF0000" fill="none" stroke-width="4px" />
<path d="M 1570.0 45.0 L 1580.0 45.0" stroke="#FF0000" fill="none" stroke-width="4px" />
<path d="M 1580.0 45.0 L 1590.0 45.0" stroke="#FF0000" fill="none" stroke-width="4px" />
<path d="M 1590.0 45.0 L 1600.0 45.0" stroke="#FF0000" fill="none" stroke-width="4px" />
<path d="M 1600.0 45.0 L 1600.0 55.0" stroke="#FF0000" fill="none" stroke-width="4px" />
<path d="M 1600.0 55.0 L 1590.0 55.0" stroke="#FF0000" fill="none" stroke-width="4px" />
<path d="M 1590.0 55.0 L 1610.0 55.0" stroke="#FF0000" fill="none" stroke-width="4px" />
<path d="M 1930.0 175.0 L 1940.0 175.0" stroke="#FF0000" fill="none" stroke-width="4px" />
<path d="M 1940.0 175.0 L 1950.0 175.0" stroke="#FF0000" fill="none" stroke-width="4px" />
<path d="M 1950.0 175.0 L 1960.0 175.0" stroke="#FF0000" fill="none" stroke-width="4px" />
<path d="M 1960.0 175.0 L 1960.0 185.0" stroke="#FF0000" fill="none" stroke-width="4px" />
<path d="M 1960.0 185.0 L 1950.0 185.0" stroke="#FF0000" fill="none" stroke-width="4px" />
<path d="M 1950.0 185.0 L 1940.0 185.0" stroke="#FF0000" fill="none" stroke-width="4px" />
<path d="M 1940.0 185.0 L 1930.0 185.0" stroke="#FF0000" fill="none" stroke-width="4px" />
<path d="M 1930.0 185.0 L 1930.0 195.0" stroke="#FF0000" fill="none" stroke-width="4px" />
<path d="M 1930.0 195.0 L 1940.0 195.0" stroke="#FF0000" fill="none" stroke-width="4px" />
<path d="M 1940.0 195.0 L 1950.0 195.0" stroke="#FF0000" fill="none" stroke-width="4px" />
<path d="M 1950.0 195.0 L 1960.0 195.0" stroke="#FF0000" fill="none" stroke-width="4px" />
<path d="M 1960.0 195.0 L 1950.0 205.0" stroke="#FF0000" fill="none" stroke-width="4px" />
<path d="M 1950.0 205.0 L 1940.0 205.0" stroke="#FF0000" fill="none" stroke-width="4px" />
<path d="M 1950.0 165.0 L 1940.0 165.0" stroke="#FF0000" fill="none" stroke-width="4px" />
<path d="M 2410.0 135.0 L 2400.0 135.0" stroke="#FF0000" fill="none" stroke-width="4px" />
<path d="M 2400.0 135.0 L 2400.0 125.0" stroke="#FF0000" fill="none" stroke-width="4px" />
<path d="M 2400.0 125.0 L 2390.0 125.0" stroke="#FF0000" fill="none" stroke-width="4px" />
<path d="M 2390.0 125.0 L 2390.0 115.0" stroke="#FF0000" fill="none" stroke-width="4px" />
<path d="M 2390.0 115.0 L 2400.0 115.0" stroke="#FF0000" fill="none" stroke-width="4px" />
<path d="M 2400.0 115.0 L 2410.0 115.0" stroke="#FF0000" fill="none" stroke-width="4px" />
<path d="M 2410.0 115.0 L 2420.0 115.0" stroke="#FF0000" fill="none" stroke-width="4px" />
<path d="M 2420.0 115.0 L 2420.0 125.0" stroke="#FF0000" fill="none" stroke-width="4px" />
<path d="M 2420.0 125.0 L 2410.0 125.0" stroke="#FF0000" fill="none" stroke-width="4px" />
<path d="M 2410.0 105.0 L 2400.0 105.0" stroke="#FF0000" fill="none" stroke-width="4px" />
<path d="M 2200.0 95.0 L 2190.0 95.0" stroke="#FF0000" fill="none" stroke-width="4px" />
<path d="M 2190.0 95.0 L 2180.0 95.0" stroke="#FF0000" fill="none" stroke-width="4px" />
<path d="M 2180.0 95.0 L 2170.0 95.0" stroke="#FF0000" fill="none" stroke-width="4px" />
<path d="M 2170.0 95.0 L 2160.0 95.0" stroke="#FF0000" fill="none" stroke-width="4px" />
<path d="M 2160.0 95.0 L 2150.0 95.0" stroke="#FF0000" fill="none" stroke-width="4px" />
<path d="M 2150.0 95.0 L 2150.0 85.0" stroke="#FF0000" fill="none" stroke-width="4px" />
<path d="M 2150.0 85.0 L 2140.0 85.0" stroke="#FF0000" fill="none" stroke-width="4px" />
<path d="M 2140.0 85.0 L 2140.0 75.0" stroke="#FF0000" fill="none" stroke-width="4px" />
<path d="M 2140.0 75.0 L 2130.0 75.0" stroke="#FF0000" fill="none" stroke-width="4px" />
<path d="M 2130.0 75.0 L 2130.0 65.0" stroke="#FF0000" fill="none" stroke-width="4px" />
<path d="M 2130.0 65.0 L 2140.0 65.0" stroke="#FF0000" fill="none" stroke-width="4px" />
<path d="M 2140.0 65.0 L 2150.0 65.0" stroke="#FF0000" fill="none" stroke-width="4px" />
<path d="M 2150.0 65.0 L 2160.0 65.0" stroke="#FF0000" fill="none" stroke-width="4px" />
<path d="M 2160.0 65.0 L 2170.0 65.0" stroke="#FF0000" fill="none" stroke-width="4px" />
<path d="M 2170.0 65.0 L 2180.0 65.0" stroke="#FF0000" fill="none" stroke-width="4px" />
<path d="M 2180.0 65.0 L 2190.0 65.0" stroke="#FF0000" fill="none" stroke-width="4px" />
<path d="M 2190.0 65.0 L 2200.0 65.0" stroke="#FF0000" fill="none" stroke-width="4px" />
<path d="M 2200.0 65.0 L 2200.0 75.0" stroke="#FF0000" fill="none" stroke-width="4px" />
<path d="M 2200.0 75.0 L 2190.0 75.0" stroke="#FF0000" fill="none" stroke-width="4px" />
<path d="M 2190.0 75.0 L 2180.0 75.0" stroke="#FF0000" fill="none" stroke-width="4px" />
<path d="M 2180.0 75.0 L 2170.0 75.0" stroke="#FF0000" fill="none" stroke-width="4px" />
<path d="M 2170.0 75.0 L 2160.0 75.0" stroke="#FF0000" fill="none" stroke-width="4px" />
<path d="M 2160.0 75.0 L 2150.0 75.0" stroke="#FF0000" fill="none" stroke-width="4px" />
<path d="M 2150.0 75.0 L 2160.0 85.0" stroke="#FF0000" fill="none" stroke-width="4px" />
<path d="M 2160.0 85.0 L 2170.0 85.0" stroke="#FF0000" fill="none" stroke-width="4px" />
<path d="M 2170.0 85.0 L 2180.0 85.0" stroke="#FF0000" fill="none" stroke-width="4px" />
<path d="M 2180.0 85.0 L 2190.0 85.0" stroke="#FF0000" fill="none" stroke-width="4px" />
<path d="M 2190.0 85.0 L 2200.0 85.0" stroke="#FF0000" fill="none" stroke-width="4px" />
<path d="M 2190.0 105.0 L 2180.0 105.0" stroke="#FF0000" fill="none" stroke-width="4px" />
<path d="M 2180.0 105.0 L 2170.0 105.0" stroke="#FF0000" fill="none" stroke-width="4px" />
<path d="M 2170.0 105.0 L 2160.0 105.0" stroke="#FF0000" fill="none" stroke-width="4px" />
<path d="M 2160.0 55.0 L 2150.0 55.0" stroke="#FF0000" fill="none" stroke-width="4px" />
<path d="M 2150.0 55.0 L 2140.0 55.0" stroke="#FF0000" fill="none" stroke-width="4px" />
<path d="M 2140.0 55.0 L 2150.0 45.0" stroke="#FF0000" fill="none" stroke-width="4px" />
<path d="M 2150.0 45.0 L 2160.0 45.0" stroke="#FF0000" fill="none" stroke-width="4px" />
<path d="M 2160.0 45.0 L 2170.0 45.0" stroke="#FF0000" fill="none" stroke-width="4px" />
<path d="M 2170.0 45.0 L 2180.0 45.0" stroke="#FF0000" fill="none" stroke-width="4px" />
<path d="M 2180.0 45.0 L 2180.0 55.0" stroke="#FF0000" fill="none" stroke-width="4px" />
<path d="M 2180.0 55.0 L 2170.0 55.0" stroke="#FF0000" fill="none" stroke-width="4px" />
<path d="M 2170.0 55.0 L 2190.0 55.0" stroke="#FF0000" fill="none" stroke-width="4px" />
<path d="M 2110.0 35.0 L 2100.0 35.0" stroke="#FF0000" fill="none" stroke-width="4px" />
<path d="M 2100.0 35.0 L 2090.0 35.0" stroke="#FF0000" fill="none" stroke-width="4px" />
<path d="M 2090.0 35.0 L 2080.0 35.0" stroke="#FF0000" fill="none" stroke-width="4px" />
<path d="M 2080.0 35.0 L 2080.0 25.0" stroke="#FF0000" fill="none" stroke-width="4px" />
<path d="M 2080.0 25.0 L 2070.0 25.0" stroke="#FF0000" fill="none" stroke-width="4px" />
<path d="M 2070.0 25.0 L 2080.0 15.0" stroke="#FF0000" fill="none" stroke-width="4px" />
<path d="M 2080.0 15.0 L 2090.0 15.0" stroke="#FF0000" fill="none" stroke-width="4px" />
<path d="M 2090.0 15.0 L 2100.0 15.0" stroke="#FF0000" fill="none" stroke-width="4px" />
<path d="M 2100.0 15.0 L 2110.0 15.0" stroke="#FF0000" fill="none" stroke-width="4px" />
<path d="M 2110.0 15.0 L 2110.0 25.0" stroke="#FF0000" fill="none" stroke-width="4px" />
<path d="M 2110.0 25.0 L 2100.0 25.0" stroke="#FF0000" fill="none" stroke-width="4px" />
<path d="M 2100.0 25.0 L 2090.0 25.0" stroke="#FF0000" fill="none" stroke-width="4px" />
<path d="M 2090.0 45.0 L 2100.0 45.0" stroke="#FF0000" fill="none" stroke-width="4px" />
<path d="M 2100.0 5.0 L 2090.0 5.0" stroke="#FF0000" fill="none" stroke-width="4px" />
<path d="M 2090.0 5.0 L 2090.0 -5.0" stroke="#FF0000" fill="none" stroke-width="4px" />
<path d="M 2090.0 -5.0 L 2100.0 -5.0" stroke="#FF0000" fill="none" stroke-width="4px" />
<path d="M 2020.0 15.0 L 2010.0 15.0" stroke="#FF0000" fill="none" stroke-width="4px" />
<path d="M 2010.0 15.0 L 2000.0 15.0" stroke="#FF0000" fill="none" stroke-width="4px" />
<path d="M 2000.0 15.0 L 1990.0 15.0" stroke="#FF0000" fill="none" stroke-width="4px" />
<path d="M 1990.0 15.0 L 1990.0 25.0" stroke="#FF0000" fill="none" stroke-width="4px" />
<path d="M 1990.0 25.0 L 2000.0 25.0" stroke="#FF0000" fill="none" stroke-width="4px" />
<path d="M 2000.0 25.0 L 2010.0 25.0" stroke="#FF0000" fill="none" stroke-width="4px" />
<path d="M 2010.0 25.0 L 2020.0 25.0" stroke="#FF0000" fill="none" stroke-width="4px" />
<path d="M 2020.0 25.0 L 2020.0 35.0" stroke="#FF0000" fill="none" stroke-width="4px" />
<path d="M 2020.0 35.0 L 2010.0 35.0" stroke="#FF0000" fill="none" stroke-width="4px" />
<path d="M 2010.0 35.0 L 2000.0 35.0" stroke="#FF0000" fill="none" stroke-width="4px" />
<path d="M 2000.0 35.0 L 1990.0 35.0" stroke="#FF0000" fill="none" stroke-width="4px" />
<path d="M 1990.0 35.0 L 2000.0 45.0" stroke="#FF0000" fill="none" stroke-width="4px" />
<path d="M 2000.0 45.0 L 2010.0 45.0" stroke="#FF0000" fill="none" stroke-width="4px" />
<path d="M 2010.0 5.0 L 2000.0 5.0" stroke="#FF0000" fill="none" stroke-width="4px" />
<path d="M 2000.0 5.0 L 2010.0 -5.0" stroke="#FF0000" fill="none" stroke-width="4px" />
</svg>