<svg width="2472.26666667" height="235.0" xmlns="http://www.w3.org/2000/svg" version="1.1">
<path d="M 0.0 235.0 L 1985.0 235.0 L 1985.0 0.0 L 0.0 0.0 L 0.0 235.0" stroke="#000000" fill="none" stroke-width="3px" />
<path d="M 2472.26666667 235.0 L 1885.0 235.0 L 1885.0 0.0 L 2472.26666667 0.0 L 2472.26666667 235.0" stroke="#000000" fill="none" stroke-width="3px" />
<path d="M 10.0 257.5 L 0.0 247.5 L 10.0 237.5" stroke="#969696" fill="none" stroke-width="1px" />
<path d="M 10.0 237.5 L 1975.0 237.5" stroke="#969696" fill="none" stroke-width="1px" />
<path d="M 1975.0 237.5 L 1985.0 227.5 L 1975.0 217.5" stroke="#969696" fill="none" stroke-width="1px" />
<path d="M 1975.0 217.5 L 10.0 217.5" stroke="#969696" fill="none" stroke-width="1px" />
<path d="M 10.0 217.5 L 0.0 207.5 L 10.0 197.5" stroke="#969696" fill="none" stroke-width="1px" />
<path d="M 10.0 197.5 L 1975.0 197.5" stroke="#969696" fill="none" stroke-width="1px" />
<path d="M 1975.0 197.5 L 1985.0 187.5 L 1975.0 177.5" stroke="#969696" fill="none" stroke-width="1px" />
<path d="M 1975.0 177.5 L 10.0 177.5" stroke="#969696" fill="none" stroke-width="1px" />
<path d="M 10.0 177.5 L 0.0 167.5 L 10.0 157.5" stroke="#969696" fill="none" stroke-width="1px" />
<path d="M 10.0 157.5 L 1975.0 157.5" stroke="#969696" fill="none" stroke-width="1px" />
<path d="M 1975.0 157.5 L 1985.0 147.5 L 1975.0 137.5" stroke="#969696" fill="none" stroke-width="1px" />
<path d="M 1975.0 137.5 L 10.0 137.5" stroke="#969696" fill="none" stroke-width="1px" />
<path d="M 10.0 137.5 L 0.0 127.5 L 10.0 117.5" stroke="#969696" fill="none" stroke-width="1px" />
<path d="M 10.0 117.5 L 1975.0 117.5" stroke="#969696" fill="none" stroke-width="1px" />
<path d="M 1975.0 117.5 L 1985.0 107.5 L 1975.0 97.5" stroke="#969696" fill="none" stroke-width="1px" />
<path d="M 1975.0 97.5 L 10.0 97.5" stroke="#969696" fill="none" stroke-width="1px" />
<path d="M 10.0 97.5 L 0.0 87.5 L 10.0 77.5" stroke="#969696" fill="none" stroke-width="1px" />
<path d="M 10.0 77.5 L 1975.0 77.5" stroke="#969696" fill="none" stroke-width="1px" />
<path d="M 1975.0 77.5 L 1985.0 67.5 L 1975.0 57.5" stroke="#969696" fill="none" stroke-width="1px" />
<path d="M 1975.0 57.5 L 10.0 57.5" stroke="#969696" fill="none" stroke-width="1px" />
<path d="M 10.0 57.5 L 0.0 47.5 L 10.0 37.5" stroke="#969696" fill="none" stroke-width="1px" />
<path d="M 10.0 37.5 L 1975.0 37.5" stroke="#969696" fill="none" stroke-width="1px" />
<path d="M 1975.0 37.5 L 1985.0 27.5 L 1975.0 17.5" stroke="#969696" fill="none" stroke-width="1px" />
<path d="M 1975.0 17.5 L 10.0 17.5" stroke="#969696" fill="none" stroke-width="1px" />
<path d="M 10.0 17.5 L 0.0 7.5 L 10.0 -2.5" stroke="#969696" fill="none" stroke-width="1px" />
<path d="M 10.0 -2.5 L 1975.0 -2.5" stroke="#969696" fill="none" stroke-width="1px" />
<path d="M 1975.0 -2.5 L 1985.0 -12.5 L 1975.0 -22.5" stroke="#969696" fill="none" stroke-width="1px" />
<path d="M 2462.26666667 257.5 L 2472.26666667 247.5 L 2462.26666667 237.5" stroke="#969696" fill="none" stroke-width="1px" />
<path d="M 2462.26666667 237.5 L 1895.0 237.5" stroke="#969696" fill="none" stroke-width="1px" />
<path d="M 1895.0 237.5 L 1885.0 227.5 L 1895.0 217.5" stroke="#969696" fill="none" stroke-width="1px" />
<path d="M 1895.0 217.5 L 2462.26666667 217.5" stroke="#969696" fill="none" stroke-width="1px" />
<path d="M 2462.26666667 217.5 L 2472.26666667 207.5 L 2462.26666667 197.5" stroke="#969696" fill="none" stroke-width="1px" />
<path d="M 2462.26666667 197.5 L 1895.0 197.5" stroke="#969696" fill="none" stroke-width="1px" />
<path d="M 1895.0 197.5 L 1885.0 187.5 L 1895.0 177.5" stroke="#969696" fill="none" stroke-width="1px" />
<path d="M 1895.0 177.5 L 2462.26666667 177.5" stroke="#969696" fill="none" stroke-width="1px" />
<path d="M 2462.26666667 177.5 L 2472.26666667 167.5 L 2462.26666667 157.5" stroke="#969696" fill="none" stroke-width="1px" />
<path d="M 2462.26666667 157.5 L 1895.0 157.5" stroke="#969696" fill="none" stroke-width="1px" />
<path d="M 1895.0 157.5 L 1885.0 147.5 L 1895.0 137.5" stroke="#969696" fill="none" stroke-width="1px" />
<path d="M 1895.0 137.5 L 2462.26666667 137.5" stroke="#969696" fill="none" stroke-width="1px" />
<path d="M 2462.26666667 137.5 L 2472.26666667 127.5 L 2462.26666667 117.5" stroke="#969696" fill="none" stroke-width="1px" />
<path d="M 2462.26666667 117.5 L 1895.0 117.5" stroke="#969696" fill="none" stroke-width="1px" />
<path d="M 1895.0 117.5 L 1885.0 107.5 L 1895.0 97.5" stroke="#969696" fill="none" stroke-width="1px" />
<path d="M 1895.0 97.5 L 2462.26666667 97.5" stroke="#969696" fill="none" stroke-width="1px" />
<path d="M 2462.26666667 97.5 L 2472.26666667 87.5 L 2462.26666667 77.5" stroke="#969696" fill="none" stroke-width="1px" />
<path d="M 2462.26666667 77.5 L 1895.0 77.5" stroke="#969696" fill="none" stroke-width="1px" />
<path d="M 1895.0 77.5 L 1885.0 67.5 L 1895.0 57.5" stroke="#969696" fill="none" stroke-width="1px" />
<path d="M 1895.0 57.5 L 2462.26666667 57.5" stroke="#969696" fill="none" stroke-width="1px" />
<path d="M 2462.26666667 57.5 L 2472.26666667 47.5 L 2462.26666667 37.5" stroke="#969696" fill="none" stroke-width="1px" />
<path d="M 2462.26666667 37.5 L 1895.0 37.5" stroke="#969696" fill="none" stroke-width="1px" />
<path d="M 1895.0 37.5 L 1885.0 27.5 L 1895.0 17.5" stroke="#969696" fill="none" stroke-width="1px" />
<path d="M 1895.0 17.5 L 2462.26666667 17.5" stroke="#969696" fill="none" stroke-width="1px" />
<path d="M 2462.26666667 17.5 L 2472.26666667 7.5 L 2462.26666667 -2.5" stroke="#969696" fill="none" stroke-width="1px" />
<path d="M 2462.26666667 -2.5 L 1895.0 -2.5" stroke="#969696" fill="none" stroke-width="1px" />
<path d="M 1895.0 -2.5 L 1885.0 -12.5 L 1895.0 -22.5" stroke="#969696" fill="none" stroke-width="1px" />
<path d="M 0.0 235.0 L 80.0 45.0" stroke="#0095FF" fill="none" stroke-width="2px" />
<path d="M 100.0 35.0 L 80.0 5.0" stroke="#0095FF" fill="none" stroke-width="2px" />
<path d="M 80.0 5.0 L 1110.0 115.0" stroke="#0095FF" fill="none" stroke-width="2px" />
<path d="M 1130.0 145.0 L 1170.0 125.0" stroke="#0095FF" fill="none" stroke-width="2px" />
<path d="M 1170.0 125.0 L 1150.0 105.0" stroke="#0095FF" fill="none" stroke-width="2px" />
<path d="M 1120.0 105.0 L 1240.0 125.0" stroke="#0095FF" fill="none" stroke-width="2px" />
<path d="M 1280.0 165.0 L 1280.0 115.0" stroke="#0095FF" fill="none" stroke-width="2px" />
<path d="M 1250.0 115.0 L 1270.0 105.0" stroke="#0095FF" fill="none" stroke-width="2px" />
<path d="M 1300.0 115.0 L 1390.0 115.0" stroke="#0095FF" fill="none" stroke-width="2px" />
<path d="M 1410.0 135.0 L 1410.0 105.0" stroke="#0095FF" fill="none" stroke-width="2px" />
<path d="M 80.0 45.0 L 90.0 45.0" stroke="#FF0000" fill="none" stroke-width="4px" />
<path d="M 90.0 45.0 L 90.0 35.0" stroke="#FF0000" fill="none" stroke-width="4px" />
<path d="M 90.0 35.0 L 80.0 35.0" stroke="#FF0000" fill="none" stroke-width="4px" />
<path d="M 80.0 35.0 L 70.0 35.0" stroke="#FF0000" fill="none" stroke-width="4px" />
<path d="M 70.0 35.0 L 70.0 25.0" stroke="#FF0000" fill="none" stroke-width="4px" />
<path d="M 70.0 25.0 L 60.0 25.0" stroke="#FF0000" fill="none" stroke-width="4px" />
<path d="M 60.0 25.0 L 70.0 15.0" stroke="#FF0000" fill="none" stroke-width="4px" />
<path d="M 70.0 15.0 L 80.0 15.0" stroke="#FF0000" fill="none" stroke-width="4px" />
<path d="M 80.0 15.0 L 90.0 15.0" stroke="#FF0000" fill="none" stroke-width="4px" />
<path d="M 90.0 15.0 L 90.0 25.0" stroke="#FF0000" fill="none" stroke-width="4px" />
<path d="M 90.0 25.0 L 80.0 25.0" stroke="#FF0000" fill="none" stroke-width="4px" />
<path d="M 80.0 25.0 L 100.0 25.0" stroke="#FF0000" fill="none" stroke-width="4px" />
<path d="M 100.0 25.0 L 100.0 35.0" stroke="#FF0000" fill="none" stroke-width="4px" />
<path d="M 1110.0 115.0 L 1120.0 115.0" stroke="#FF0000" fill="none" stroke-width="4px" />
<path d="M 1120.0 115.0 L 1130.0 115.0" stroke="#FF0000" fill="none" stroke-width="4px" />
<path d="M 1130.0 115.0 L 1140.0 115.0" stroke="#FF0000" fill="none" stroke-width="4px" />
<path d="M 1140.0 115.0 L 1150.0 115.0" stroke="#FF0000" fill="none" stroke-width="4px" />
<path d="M 1150.0 115.0 L 1160.0 115.0" stroke="#FF0000" fill="none" stroke-width="4px" />
<path d="M 1160.0 115.0 L 1160.0 125.0" stroke="#FF0000" fill="none" stroke-width="4px" />
<path d="M 1160.0 125.0 L 1150.0 125.0" stroke="#FF0000" fill="none" stroke-width="4px" />
<path d="M 1150.0 125.0 L 1140.0 125.0" stroke="#FF0000" fill="none" stroke-width="4px" />
<path d="M 1140.0 125.0 L 1130.0 125.0" stroke="#FF0000" fill="none" stroke-width="4px" />
<path d="M 1130.0 125.0 L 1120.0 125.0" stroke="#FF0000" fill="none" stroke-width="4px" />
<path d="M 1120.0 125.0 L 1110.0 125.0" stroke="#FF0000" fill="none" stroke-width="4px" />
<path d="M 1110.0 125.0 L 1120.0 135.0" stroke="#FF0000" fill="none" stroke-width="4px" />
<path d="M 1120.0 135.0 L 1130.0 135.0" stroke="#FF0000" fill="none" stroke-width="4px" />
<path d="M 1130.0 135.0 L 1140.0 135.0" stroke="#FF0000" fill="none" stroke-width="4px" />
<path d="M 1140.0 135.0 L 1150.0 135.0" stroke="#FF0000" fill="none" stroke-width="4px" />
<path d="M 1150.0 135.0 L 1160.0 135.0" stroke="#FF0000" fill="none" stroke-width="4px" />
<path d="M 1160.0 135.0 L 1150.0 145.0" stroke="#FF0000" fill="none" stroke-width="4px" />
<path d="M 1150.0 145.0 L 1140.0 145.0" stroke="#FF0000" fill="none" stroke-width="4px" />
<path d="M 1140.0 145.0 L 1130.0 145.0" stroke="#FF0000" fill="none" stroke-width="4px" />
<path d="M 1150.0 105.0 L 1140.0 105.0" stroke="#FF0000" fill="none" stroke-width="4px" />
<path d="M 1140.0 105.0 L 1130.0 105.0" stroke="#FF0000" fill="none" stroke-width="4px" />
<path d="M 1130.0 105.0 L 1120.0 105.0" stroke="#FF0000" fill="none" stroke-width="4px" />
<path d="M 1240.0 125.0 L 1250.0 125.0" stroke="#FF0000" fill="none" stroke-width="4px" />
<path d="M 1250.0 125.0 L 1260.0 125.0" stroke="#FF0000" fill="none" stroke-width="4px" />
<path d="M 1260.0 125.0 L 1270.0 125.0" stroke="#FF0000" fill="none" stroke-width="4px" />
<path d="M 1270.0 125.0 L 1280.0 125.0" stroke="#FF0000" fill="none" stroke-width="4px" />
<path d="M 1280.0 125.0 L 1290.0 125.0" stroke="#FF0000" fill="none" stroke-width="4px" />
<path d="M 1290.0 125.0 L 1300.0 125.0" stroke="#FF0000" fill="none" stroke-width="4px" />
<path d="M 1300.0 125.0 L 1310.0 125.0" stroke="#FF0000" fill="none" stroke-width="4px" />
<path d="M 1310.0 125.0 L 1310.0 135.0" stroke="#FF0000" fill="none" stroke-width="4px" />
<path d="M 1310.0 135.0 L 1300.0 135.0" stroke="#FF0000" fill="none" stroke-width="4px" />
<path d="M 1300.0 135.0 L 1290.0 135.0" stroke="#FF0000" fill="none" stroke-width="4px" />
<path d="M 1290.0 135.0 L 1280.0 135.0" stroke="#FF0000" fill="none" stroke-width="4px" />
<path d="M 1280.0 135.0 L 1270.0 135.0" stroke="#FF0000" fill="none" stroke-width="4px" />
<path d="M 1270.0 135.0 L 1260.0 135.0" stroke="#FF0000" fill="none" stroke-width="4px" />
<path d="M 1260.0 135.0 L 1250.0 135.0" stroke="#FF0000" fill="none" stroke-width="4px" />
<path d="M 1250.0 135.0 L 1240.0 135.0" stroke="#FF0000" fill="none" stroke-width="4px" />
<path d="M 1240.0 135.0 L 1250.0 145.0" stroke="#FF0000" fill="none" stroke-width="4px" />
<path d="M 1250.0 145.0 L 1260.0 145.0" stroke="#FF0000" fill="none" stroke-width="4px" />
<path d="M 1260.0 145.0 L 1270.0 145.0" stroke="#FF0000" fill="none" stroke-width="4px" />
<path d="M 1270.0 145.0 L 1280.0 145.0" stroke="#FF0000" fill="none" stroke-width="4px" />
<path d="M 1280.0 145.0 L 1290.0 145.0" stroke="#FF0000" fill="none" stroke-width="4px" />
<path d="M 1290.0 145.0 L 1300.0 145.0" stroke="#FF0000" fill="none" stroke-width="4px" />
<path d="M 1300.0 145.0 L 1290.0 155.0" stroke="#FF0000" fill="none" stroke-width="4px" />
<path d="M 1290.0 155.0 L 1280.0 155.0" stroke="#FF0000" fill="none" stroke-width="4px" />
<path d="M 1280.0 155.0 L 1270.0 155.0" stroke="#FF0000" fill="none" stroke-width="4px" />
<path d="M 1270.0 155.0 L 1260.0 155.0" stroke="#FF0000" fill="none" stroke-width="4px" />
<path d="M 1260.0 155.0 L 1270.0 165.0" stroke="#FF0000" fill="none" stroke-width="4px" />
<path d="M 1270.0 165.0 L 1280.0 165.0" stroke="#FF0000" fill="none" stroke-width="4px" />
<path d="M 1280.0 115.0 L 1270.0 115.0" stroke="#FF0000" fill="none" stroke-width="4px" />
<path d="M 1270.0 115.0 L 1260.0 115.0" stroke="#FF0000" fill="none" stroke-width="4px" />
<path d="M 1260.0 115.0 L 1250.0 115.0" stroke="#FF0000" fill="none" stroke-width="4px" />
<path d="M 1270.0 105.0 L 1280.0 105.0" stroke="#FF0000" fill="none" stroke-width="4px" />
<path d="M 1280.0 105.0 L 1290.0 105.0" stroke="#FF0000" fill="none" stroke-width="4px" />
<path d="M 1290.0 105.0 L 1290.0 115.0" stroke="#FF0000" fill="none" stroke-width="4px" />
<path d="M 1290.0 115.0 L 1300.0 115.0" stroke="#FF0000" fill="none" stroke-width="4px" />
<path d="M 1390.0 115.0 L 1400.0 115.0" stroke="#FF0000" fill="none" stroke-width="4px" />
<path d="M 1400.0 115.0 L 1410.0 115.0" stroke="#FF0000" fill="none" stroke-width="4px" />
<path d="M 1410.0 115.0 L 1420.0 115.0" stroke="#FF0000" fill="none" stroke-width="4px" />
<path d="M 1420.0 115.0 L 1420.0 125.0" stroke="#FF0000" fill="none" stroke-width="4px" />
<path d="M 1420.0 125.0 L 1410.0 125.0" stroke="#FF0000" fill="none" stroke-width="4px" />
<path d="M 1410.0 125.0 L 1400.0 125.0" stroke="#FF0000" fill="none" stroke-width="4px" />
<path d="M 1400.0 125.0 L 1390.0 125.0" stroke="#FF0000" fill="none" stroke-width="4px" />
<path d="M 1390.0 125.0 L 1400.0 135.0" stroke="#FF0000" fill="none" stroke-width="4px" />
<path d="M 1400.0 135.0 L 1410.0 135.0" stroke="#FF0000" fill="none" stroke-width="4px" />
<path d="M 1410.0 105.0 L 1400.0 105.0" stroke="#FF0000" fill="none" stroke-width="4px" />
</svg>