<svg width="1332.95833333" height="235.0" xmlns="http://www.w3.org/2000/svg" version="1.1">
<path d="M 0.0 235.0 L 1332.95833333 235.0 L 1332.95833333 0.0 L 0.0 0.0 L 0.0 235.0" stroke="#000000" fill="none" stroke-width="3px" />
<path d="M 10.0 257.5 L 0.0 247.5 L 10.0 237.5" stroke="#969696" fill="none" stroke-width="1px" />
<path d="M 10.0 237.5 L 1322.95833333 237.5" stroke="#969696" fill="none" stroke-width="1px" />
<path d="M 1322.95833333 237.5 L 1332.95833333 227.5 L 1322.95833333 217.5" stroke="#969696" fill="none" stroke-width="1px" />
<path d="M 1322.95833333 217.5 L 10.0 217.5" stroke="#969696" fill="none" stroke-width="1px" />
<path d="M 10.0 217.5 L 0.0 207.5 L 10.0 197.5" stroke="#969696" fill="none" stroke-width="1px" />
<path d="M 10.0 197.5 L 1322.95833333 197.5" stroke="#969696" fill="none" stroke-width="1px" />
<path d="M 1322.95833333 197.5 L 1332.95833333 187.5 L 1322.95833333 177.5" stroke="#969696" fill="none" stroke-width="1px" />
<path d="M 1322.95833333 177.5 L 10.0 177.5" stroke="#969696" fill="none" stroke-width="1px" />
<path d="M 10.0 177.5 L 0.0 167.5 L 10.0 157.5" stroke="#969696" fill="none" stroke-width="1px" />
<path d="M 10.0 157.5 L 1322.95833333 157.5" stroke="#969696" fill="none" stroke-width="1px" />
<path d="M 1322.95833333 157.5 L 1332.95833333 147.5 L 1322.95833333 137.5" stroke="#969696" fill="none" stroke-width="1px" />
<path d="M 1322.95833333 137.5 L 10.0 137.5" stroke="#969696" fill="none" stroke-width="1px" />
<path d="M 10.0 137.5 L 0.0 127.5 L 10.0 117.5" stroke="#969696" fill="none" stroke-width="1px" />
<path d="M 10.0 117.5 L 1322.95833333 117.5" stroke="#969696" fill="none" stroke-width="1px" />
<path d="M 1322.95833333 117.5 L 1332.95833333 107.5 L 1322.95833333 97.5" stroke="#969696" fill="none" stroke-width="1px" />
<path d="M 1322.95833333 97.5 L 10.0 97.5" stroke="#969696" fill="none" stroke-width="1px" />
<path d="M 10.0 97.5 L 0.0 87.5 L 10.0 77.5" stroke="#969696" fill="none" stroke-width="1px" />
<path d="M 10.0 77.5 L 1322.95833333 77.5" stroke="#969696" fill="none" stroke-width="1px" />
<path d="M 1322.95833333 77.5 L 1332.95833333 67.5 L 1322.95833333 57.5" stroke="#969696" fill="none" stroke-width="1px" />
<path d="M 1322.95833333 57.5 L 10.0 57.5" stroke="#969696" fill="none" stroke-width="1px" />
<path d="M 10.0 57.5 L 0.0 47.5 L 10.0 37.5" stroke="#969696" fill="none" stroke-width="1px" />
<path d="M 10.0 37.5 L 1322.95833333 37.5" stroke="#969696" fill="none" stroke-width="1px" />
<path d="M 1322.95833333 37.5 L 1332.95833333 27.5 L 1322.95833333 17.5" stroke="#969696" fill="none" stroke-width="1px" />
<path d="M 1322.95833333 17.5 L 10.0 17.5" stroke="#969696" fill="none" stroke-width="1px" />
<path d="M 10.0 17.5 L 0.0 7.5 L 10.0 -2.5" stroke="#969696" fill="none" stroke-width="1px" />
<path d="M 10.0 -2.5 L 1322.95833333 -2.5" stroke="#969696" fill="none" stroke-width="1px" />
<path d="M 1322.95833333 -2.5 L 1332.95833333 -12.5 L 1322.95833333 -22.5" stroke="#969696" fill="none" stroke-width="1px" />
<path d="M 0.0 235.0 L 160.0 235.0" stroke="#0095FF" fill="none" stroke-width="2px" />
<path d="M 160.0 235.0 L 160.0 85.0" stroke="#0095FF" fill="none" stroke-width="2px" />
<path d="M 150.0 65.0 L 170.0 65.0" stroke="#0095FF" fill="none" stroke-width="2px" />
<path d="M 170.0 65.0 L 170.0 75.0" stroke="#0095FF" fill="none" stroke-width="2px" />
<path d="M 180.0 75.0 L 180.0 45.0" stroke="#0095FF" fill="none" stroke-width="2px" />
<path d="M 190.0 45.0 L 170.0 45.0" stroke="#0095FF" fill="none" stroke-width="2px" />
<path d="M 170.0 45.0 L 170.0 25.0" stroke="#0095FF" fill="none" stroke-width="2px" />
<path d="M 140.0 25.0 L 430.0 25.0" stroke="#0095FF" fill="none" stroke-width="2px" />
<path d="M 430.0 25.0 L 430.0 45.0" stroke="#0095FF" fill="none" stroke-width="2px" />
<path d="M 450.0 145.0 L 450.0 95.0" stroke="#0095FF" fill="none" stroke-width="2px" />
<path d="M 460.0 95.0 L 490.0 95.0" stroke="#0095FF" fill="none" stroke-width="2px" />
<path d="M 490.0 95.0 L 490.0 55.0" stroke="#0095FF" fill="none" stroke-width="2px" />
<path d="M 490.0 55.0 L 470.0 55.0" stroke="#0095FF" fill="none" stroke-width="2px" />
<path d="M 470.0 55.0 L 470.0 35.0" stroke="#0095FF" fill="none" stroke-width="2px" />
<path d="M 450.0 25.0 L 640.0 25.0" stroke="#0095FF" fill="none" stroke-width="2px" />
<path d="M 640.0 25.0 L 640.0 75.0" stroke="#0095FF" fill="none" stroke-width="2px" />
<path d="M 670.0 115.0 L 700.0 115.0" stroke="#0095FF" fill="none" stroke-width="2px" />
<path d="M 700.0 115.0 L 700.0 85.0" stroke="#0095FF" fill="none" stroke-width="2px" />
<path d="M 700.0 85.0 L 690.0 85.0" stroke="#0095FF" fill="none" stroke-width="2px" />
<path d="M 690.0 85.0 L 690.0 65.0" stroke="#0095FF" fill="none" stroke-width="2px" />
<path d="M 670.0 45.0 L 860.0 45.0" stroke="#0095FF" fill="none" stroke-width="2px" />
<path d="M 880.0 145.0 L 900.0 145.0" stroke="#0095FF" fill="none" stroke-width="2px" />
<path d="M 900.0 145.0 L 900.0 105.0" stroke="#0095FF" fill="none" stroke-width="2px" />
<path d="M 930.0 105.0 L 940.0 105.0" stroke="#0095FF" fill="none" stroke-width="2px" />
<path d="M 940.0 105.0 L 940.0 55.0" stroke="#0095FF" fill="none" stroke-width="2px" />
<path d="M 940.0 55.0 L 920.0 55.0" stroke="#0095FF" fill="none" stroke-width="2px" />
<path d="M 920.0 55.0 L 920.0 35.0" stroke="#0095FF" fill="none" stroke-width="2px" />
<path d="M 910.0 25.0 L 890.0 25.0" stroke="#0095FF" fill="none" stroke-width="2px" />
<path d="M 890.0 25.0 L 890.0 15.0" stroke="#0095FF" fill="none" stroke-width="2px" />
<path d="M 880.0 15.0 L 990.0 15.0" stroke="#0095FF" fill="none" stroke-width="2px" />
<path d="M 990.0 15.0 L 990.0 45.0" stroke="#0095FF" fill="none" stroke-width="2px" />
<path d="M 1060.0 55.0 L 1050.0 55.0" stroke="#0095FF" fill="none" stroke-width="2px" />
<path d="M 1050.0 55.0 L 1050.0 75.0" stroke="#0095FF" fill="none" stroke-width="2px" />
<path d="M 1030.0 105.0 L 1030.0 35.0" stroke="#0095FF" fill="none" stroke-width="2px" />
<path d="M 160.0 85.0 L 160.0 75.0" stroke="#FF0000" fill="none" stroke-width="4px" />
<path d="M 160.0 75.0 L 150.0 75.0" stroke="#FF0000" fill="none" stroke-width="4px" />
<path d="M 150.0 75.0 L 140.0 75.0" stroke="#FF0000" fill="none" stroke-width="4px" />
<path d="M 140.0 75.0 L 140.0 65.0" stroke="#FF0000" fill="none" stroke-width="4px" />
<path d="M 140.0 65.0 L 130.0 65.0" stroke="#FF0000" fill="none" stroke-width="4px" />
<path d="M 130.0 65.0 L 130.0 55.0" stroke="#FF0000" fill="none" stroke-width="4px" />
<path d="M 130.0 55.0 L 140.0 55.0" stroke="#FF0000" fill="none" stroke-width="4px" />
<path d="M 140.0 55.0 L 150.0 55.0" stroke="#FF0000" fill="none" stroke-width="4px" />
<path d="M 150.0 55.0 L 160.0 55.0" stroke="#FF0000" fill="none" stroke-width="4px" />
<path d="M 160.0 55.0 L 170.0 55.0" stroke="#FF0000" fill="none" stroke-width="4px" />
<path d="M 170.0 55.0 L 180.0 55.0" stroke="#FF0000" fill="none" stroke-width="4px" />
<path d="M 180.0 55.0 L 190.0 55.0" stroke="#FF0000" fill="none" stroke-width="4px" />
<path d="M 190.0 55.0 L 190.0 65.0" stroke="#FF0000" fill="none" stroke-width="4px" />
<path d="M 190.0 65.0 L 180.0 65.0" stroke="#FF0000" fill="none" stroke-width="4px" />
<path d="M 180.0 65.0 L 170.0 65.0" stroke="#FF0000" fill="none" stroke-width="4px" />
<path d="M 170.0 65.0 L 160.0 65.0" stroke="#FF0000" fill="none" stroke-width="4px" />
<path d="M 160.0 65.0 L 150.0 65.0" stroke="#FF0000" fill="none" stroke-width="4px" />
<path d="M 170.0 75.0 L 180.0 75.0" stroke="#FF0000" fill="none" stroke-width="4px" />
<path d="M 180.0 45.0 L 170.0 45.0" stroke="#FF0000" fill="none" stroke-width="4px" />
<path d="M 170.0 45.0 L 160.0 45.0" stroke="#FF0000" fill="none" stroke-width="4px" />
<path d="M 160.0 45.0 L 150.0 45.0" stroke="#FF0000" fill="none" stroke-width="4px" />
<path d="M 150.0 45.0 L 140.0 45.0" stroke="#FF0000" fill="none" stroke-width="4px" />
<path d="M 140.0 45.0 L 130.0 45.0" stroke="#FF0000" fill="none" stroke-width="4px" />
<path d="M 130.0 45.0 L 130.0 35.0" stroke="#FF0000" fill="none" stroke-width="4px" />
<path d="M 130.0 35.0 L 140.0 35.0" stroke="#FF0000" fill="none" stroke-width="4px" />
<path d="M 140.0 35.0 L 150.0 35.0" stroke="#FF0000" fill="none" stroke-width="4px" />
<path d="M 150.0 35.0 L 160.0 35.0" stroke="#FF0000" fill="none" stroke-width="4px" />
<path d="M 160.0 35.0 L 170.0 35.0" stroke="#FF0000" fill="none" stroke-width="4px" />
<path d="M 170.0 35.0 L 180.0 35.0" stroke="#FF0000" fill="none" stroke-width="4px" />
<path d="M 180.0 35.0 L 190.0 45.0" stroke="#FF0000" fill="none" stroke-width="4px" />
<path d="M 170.0 25.0 L 160.0 25.0" stroke="#FF0000" fill="none" stroke-width="4px" />
<path d="M 160.0 25.0 L 150.0 25.0" stroke="#FF0000" fill="none" stroke-width="4px" />
<path d="M 150.0 25.0 L 140.0 25.0" stroke="#FF0000" fill="none" stroke-width="4px" />
<path d="M 430.0 45.0 L 440.0 45.0" stroke="#FF0000" fill="none" stroke-width="4px" />
<path d="M 440.0 45.0 L 450.0 45.0" stroke="#FF0000" fill="none" stroke-width="4px" />
<path d="M 450.0 45.0 L 460.0 45.0" stroke="#FF0000" fill="none" stroke-width="4px" />
<path d="M 460.0 45.0 L 470.0 45.0" stroke="#FF0000" fill="none" stroke-width="4px" />
<path d="M 470.0 45.0 L 480.0 45.0" stroke="#FF0000" fill="none" stroke-width="4px" />
<path d="M 480.0 45.0 L 480.0 55.0" stroke="#FF0000" fill="none" stroke-width="4px" />
<path d="M 480.0 55.0 L 470.0 55.0" stroke="#FF0000" fill="none" stroke-width="4px" />
<path d="M 470.0 55.0 L 460.0 55.0" stroke="#FF0000" fill="none" stroke-width="4px" />
<path d="M 460.0 55.0 L 450.0 55.0" stroke="#FF0000" fill="none" stroke-width="4px" />
<path d="M 450.0 55.0 L 440.0 55.0" stroke="#FF0000" fill="none" stroke-width="4px" />
<path d="M 440.0 55.0 L 430.0 55.0" stroke="#FF0000" fill="none" stroke-width="4px" />
<path d="M 430.0 55.0 L 430.0 65.0" stroke="#FF0000" fill="none" stroke-width="4px" />
<path d="M 430.0 65.0 L 440.0 65.0" stroke="#FF0000" fill="none" stroke-width="4px" />
<path d="M 440.0 65.0 L 450.0 65.0" stroke="#FF0000" fill="none" stroke-width="4px" />
<path d="M 450.0 65.0 L 460.0 65.0" stroke="#FF0000" fill="none" stroke-width="4px" />
<path d="M 460.0 65.0 L 470.0 65.0" stroke="#FF0000" fill="none" stroke-width="4px" />
<path d="M 470.0 65.0 L 480.0 65.0" stroke="#FF0000" fill="none" stroke-width="4px" />
<path d="M 480.0 65.0 L 480.0 75.0" stroke="#FF0000" fill="none" stroke-width="4px" />
<path d="M 480.0 75.0 L 470.0 75.0" stroke="#FF0000" fill="none" stroke-width="4px" />
<path d="M 470.0 75.0 L 460.0 75.0" stroke="#FF0000" fill="none" stroke-width="4px" />
<path d="M 460.0 75.0 L 450.0 75.0" stroke="#FF0000" fill="none" stroke-width="4px" />
<path d="M 450.0 75.0 L 440.0 75.0" stroke="#FF0000" fill="none" stroke-width="4px" />
<path d="M 440.0 75.0 L 440.0 85.0" stroke="#FF0000" fill="none" stroke-width="4px" />
<path d="M 440.0 85.0 L 430.0 85.0" stroke="#FF0000" fill="none" stroke-width="4px" />
<path d="M 430.0 85.0 L 430.0 95.0" stroke="#FF0000" fill="none" stroke-width="4px" />
<path d="M 430.0 95.0 L 420.0 95.0" stroke="#FF0000" fill="none" stroke-width="4px" />
<path d="M 420.0 95.0 L 420.0 105.0" stroke="#FF0000" fill="none" stroke-width="4px" />
<path d="M 420.0 105.0 L 430.0 105.0" stroke="#FF0000" fill="none" stroke-width="4px" />
<path d="M 430.0 105.0 L 440.0 105.0" stroke="#FF0000" fill="none" stroke-width="4px" />
<path d="M 440.0 105.0 L 450.0 105.0" stroke="#FF0000" fill="none" stroke-width="4px" />
<path d="M 450.0 105.0 L 460.0 105.0" stroke="#FF0000" fill="none" stroke-width="4px" />
<path d="M 460.0 105.0 L 470.0 105.0" stroke="#FF0000" fill="none" stroke-width="4px" />
<path d="M 470.0 105.0 L 480.0 105.0" stroke="#FF0000" fill="none" stroke-width="4px" />
<path d="M 480.0 105.0 L 480.0 115.0" stroke="#FF0000" fill="none" stroke-width="4px" />
<path d="M 480.0 115.0 L 470.0 115.0" stroke="#FF0000" fill="none" stroke-width="4px" />
<path d="M 470.0 115.0 L 460.0 115.0" stroke="#FF0000" fill="none" stroke-width="4px" />
<path d="M 460.0 115.0 L 450.0 115.0" stroke="#FF0000" fill="none" stroke-width="4px" />
<path d="M 450.0 115.0 L 440.0 115.0" stroke="#FF0000" fill="none" stroke-width="4px" />
<path d="M 440.0 115.0 L 430.0 115.0" stroke="#FF0000" fill="none" stroke-width="4px" />
<path d="M 430.0 115.0 L 420.0 115.0" stroke="#FF0000" fill="none" stroke-width="4px" />
<path d="M 420.0 115.0 L 410.0 115.0" stroke="#FF0000" fill="none" stroke-width="4px" />
<path d="M 410.0 115.0 L 410.0 125.0" stroke="#FF0000" fill="none" stroke-width="4px" />
<path d="M 410.0 125.0 L 420.0 125.0" stroke="#FF0000" fill="none" stroke-width="4px" />
<path d="M 420.0 125.0 L 430.0 125.0" stroke="#FF0000" fill="none" stroke-width="4px" />
<path d="M 430.0 125.0 L 440.0 125.0" stroke="#FF0000" fill="none" stroke-width="4px" />
<path d="M 440.0 125.0 L 450.0 125.0" stroke="#FF0000" fill="none" stroke-width="4px" />
<path d="M 450.0 125.0 L 460.0 125.0" stroke="#FF0000" fill="none" stroke-width="4px" />
<path d="M 460.0 125.0 L 470.0 125.0" stroke="#FF0000" fill="none" stroke-width="4px" />
<path d="M 470.0 125.0 L 460.0 135.0" stroke="#FF0000" fill="none" stroke-width="4px" />
<path d="M 460.0 135.0 L 450.0 135.0" stroke="#FF0000" fill="none" stroke-width="4px" />
<path d="M 450.0 135.0 L 440.0 135.0" stroke="#FF0000" fill="none" stroke-width="4px" />
<path d="M 440.0 135.0 L 430.0 135.0" stroke="#FF0000" fill="none" stroke-width="4px" />
<path d="M 430.0 135.0 L 420.0 135.0" stroke="#FF0000" fill="none" stroke-width="4px" />
<path d="M 420.0 135.0 L 430.0 145.0" stroke="#FF0000" fill="none" stroke-width="4px" />
<path d="M 430.0 145.0 L 440.0 145.0" stroke="#FF0000" fill="none" stroke-width="4px" />
<path d="M 440.0 145.0 L 450.0 145.0" stroke="#FF0000" fill="none" stroke-width="4px" />
<path d="M 450.0 95.0 L 440.0 95.0" stroke="#FF0000" fill="none" stroke-width="4px" />
<path d="M 440.0 95.0 L 450.0 85.0" stroke="#FF0000" fill="none" stroke-width="4px" />
<path d="M 450.0 85.0 L 460.0 85.0" stroke="#FF0000" fill="none" stroke-width="4px" />
<path d="M 460.0 85.0 L 470.0 85.0" stroke="#FF0000" fill="none" stroke-width="4px" />
<path d="M 470.0 85.0 L 470.0 95.0" stroke="#FF0000" fill="none" stroke-width="4px" />
<path d="M 470.0 95.0 L 460.0 95.0" stroke="#FF0000" fill="none" stroke-width="4px" />
<path d="M 470.0 35.0 L 460.0 35.0" stroke="#FF0000" fill="none" stroke-width="4px" />
<path d="M 460.0 35.0 L 450.0 35.0" stroke="#FF0000" fill="none" stroke-width="4px" />
<path d="M 450.0 35.0 L 440.0 35.0" stroke="#FF0000" fill="none" stroke-width="4px" />
<path d="M 440.0 35.0 L 450.0 25.0" stroke="#FF0000" fill="none" stroke-width="4px" />
<path d="M 640.0 75.0 L 650.0 75.0" stroke="#FF0000" fill="none" stroke-width="4px" />
<path d="M 650.0 75.0 L 660.0 75.0" stroke="#FF0000" fill="none" stroke-width="4px" />
<path d="M 660.0 75.0 L 670.0 75.0" stroke="#FF0000" fill="none" stroke-width="4px" />
<path d="M 670.0 75.0 L 680.0 75.0" stroke="#FF0000" fill="none" stroke-width="4px" />
<path d="M 680.0 75.0 L 690.0 75.0" stroke="#FF0000" fill="none" stroke-width="4px" />
<path d="M 690.0 75.0 L 690.0 85.0" stroke="#FF0000" fill="none" stroke-width="4px" />
<path d="M 690.0 85.0 L 680.0 85.0" stroke="#FF0000" fill="none" stroke-width="4px" />
<path d="M 680.0 85.0 L 670.0 85.0" stroke="#FF0000" fill="none" stroke-width="4px" />
<path d="M 670.0 85.0 L 660.0 85.0" stroke="#FF0000" fill="none" stroke-width="4px" />
<path d="M 660.0 85.0 L 650.0 85.0" stroke="#FF0000" fill="none" stroke-width="4px" />
<path d="M 650.0 85.0 L 640.0 85.0" stroke="#FF0000" fill="none" stroke-width="4px" />
<path d="M 640.0 85.0 L 650.0 95.0" stroke="#FF0000" fill="none" stroke-width="4px" />
<path d="M 650.0 95.0 L 660.0 95.0" stroke="#FF0000" fill="none" stroke-width="4px" />
<path d="M 660.0 95.0 L 670.0 95.0" stroke="#FF0000" fill="none" stroke-width="4px" />
<path d="M 670.0 95.0 L 680.0 95.0" stroke="#FF0000" fill="none" stroke-width="4px" />
<path d="M 680.0 95.0 L 690.0 95.0" stroke="#FF0000" fill="none" stroke-width="4px" />
<path d="M 690.0 95.0 L 680.0 105.0" stroke="#FF0000" fill="none" stroke-width="4px" />
<path d="M 680.0 105.0 L 670.0 105.0" stroke="#FF0000" fill="none" stroke-width="4px" />
<path d="M 670.0 105.0 L 660.0 105.0" stroke="#FF0000" fill="none" stroke-width="4px" />
<path d="M 660.0 105.0 L 670.0 115.0" stroke="#FF0000" fill="none" stroke-width="4px" />
<path d="M 690.0 65.0 L 680.0 65.0" stroke="#FF0000" fill="none" stroke-width="4px" />
<path d="M 680.0 65.0 L 670.0 65.0" stroke="#FF0000" fill="none" stroke-width="4px" />
<path d="M 670.0 65.0 L 660.0 65.0" stroke="#FF0000" fill="none" stroke-width="4px" />
<path d="M 660.0 65.0 L 650.0 65.0" stroke="#FF0000" fill="none" stroke-width="4px" />
<path d="M 650.0 65.0 L 660.0 55.0" stroke="#FF0000" fill="none" stroke-width="4px" />
<path d="M 660.0 55.0 L 670.0 55.0" stroke="#FF0000" fill="none" stroke-width="4px" />
<path d="M 670.0 55.0 L 680.0 55.0" stroke="#FF0000" fill="none" stroke-width="4px" />
<path d="M 680.0 55.0 L 670.0 45.0" stroke="#FF0000" fill="none" stroke-width="4px" />
<path d="M 860.0 45.0 L 870.0 45.0" stroke="#FF0000" fill="none" stroke-width="4px" />
<path d="M 870.0 45.0 L 880.0 45.0" stroke="#FF0000" fill="none" stroke-width="4px" />
<path d="M 880.0 45.0 L 890.0 45.0" stroke="#FF0000" fill="none" stroke-width="4px" />
<path d="M 890.0 45.0 L 900.0 45.0" stroke="#FF0000" fill="none" stroke-width="4px" />
<path d="M 900.0 45.0 L 910.0 45.0" stroke="#FF0000" fill="none" stroke-width="4px" />
<path d="M 910.0 45.0 L 920.0 45.0" stroke="#FF0000" fill="none" stroke-width="4px" />
<path d="M 920.0 45.0 L 930.0 45.0" stroke="#FF0000" fill="none" stroke-width="4px" />
<path d="M 930.0 45.0 L 930.0 55.0" stroke="#FF0000" fill="none" stroke-width="4px" />
<path d="M 930.0 55.0 L 920.0 55.0" stroke="#FF0000" fill="none" stroke-width="4px" />
<path d="M 920.0 55.0 L 910.0 55.0" stroke="#FF0000" fill="none" stroke-width="4px" />
<path d="M 910.0 55.0 L 900.0 55.0" stroke="#FF0000" fill="none" stroke-width="4px" />
<path d="M 900.0 55.0 L 890.0 55.0" stroke="#FF0000" fill="none" stroke-width="4px" />
<path d="M 890.0 55.0 L 880.0 55.0" stroke="#FF0000" fill="none" stroke-width="4px" />
<path d="M 880.0 55.0 L 870.0 55.0" stroke="#FF0000" fill="none" stroke-width="4px" />
<path d="M 870.0 55.0 L 860.0 55.0" stroke="#FF0000" fill="none" stroke-width="4px" />
<path d="M 860.0 55.0 L 870.0 65.0" stroke="#FF0000" fill="none" stroke-width="4px" />
<path d="M 870.0 65.0 L 880.0 65.0" stroke="#FF0000" fill="none" stroke-width="4px" />
<path d="M 880.0 65.0 L 890.0 65.0" stroke="#FF0000" fill="none" stroke-width="4px" />
<path d="M 890.0 65.0 L 900.0 65.0" stroke="#FF0000" fill="none" stroke-width="4px" />
<path d="M 900.0 65.0 L 910.0 65.0" stroke="#FF0000" fill="none" stroke-width="4px" />
<path d="M 910.0 65.0 L 920.0 65.0" stroke="#FF0000" fill="none" stroke-width="4px" />
<path d="M 920.0 65.0 L 930.0 65.0" stroke="#FF0000" fill="none" stroke-width="4px" />
<path d="M 930.0 65.0 L 940.0 65.0" stroke="#FF0000" fill="none" stroke-width="4px" />
<path d="M 940.0 65.0 L 940.0 75.0" stroke="#FF0000" fill="none" stroke-width="4px" />
<path d="M 940.0 75.0 L 930.0 75.0" stroke="#FF0000" fill="none" stroke-width="4px" />
<path d="M 930.0 75.0 L 920.0 75.0" stroke="#FF0000" fill="none" stroke-width="4px" />
<path d="M 920.0 75.0 L 910.0 75.0" stroke="#FF0000" fill="none" stroke-width="4px" />
<path d="M 910.0 75.0 L 900.0 75.0" stroke="#FF0000" fill="none" stroke-width="4px" />
<path d="M 900.0 75.0 L 890.0 75.0" stroke="#FF0000" fill="none" stroke-width="4px" />
<path d="M 890.0 75.0 L 880.0 75.0" stroke="#FF0000" fill="none" stroke-width="4px" />
<path d="M 880.0 75.0 L 890.0 85.0" stroke="#FF0000" fill="none" stroke-width="4px" />
<path d="M 890.0 85.0 L 900.0 85.0" stroke="#FF0000" fill="none" stroke-width="4px" />
<path d="M 900.0 85.0 L 910.0 85.0" stroke="#FF0000" fill="none" stroke-width="4px" />
<path d="M 910.0 85.0 L 920.0 85.0" stroke="#FF0000" fill="none" stroke-width="4px" />
<path d="M 920.0 85.0 L 930.0 85.0" stroke="#FF0000" fill="none" stroke-width="4px" />
<path d="M 930.0 85.0 L 940.0 85.0" stroke="#FF0000" fill="none" stroke-width="4px" />
<path d="M 940.0 85.0 L 930.0 95.0" stroke="#FF0000" fill="none" stroke-width="4px" />
<path d="M 930.0 95.0 L 920.0 95.0" stroke="#FF0000" fill="none" stroke-width="4px" />
<path d="M 920.0 95.0 L 910.0 95.0" stroke="#FF0000" fill="none" stroke-width="4px" />
<path d="M 910.0 95.0 L 900.0 95.0" stroke="#FF0000" fill="none" stroke-width="4px" />
<path d="M 900.0 95.0 L 890.0 95.0" stroke="#FF0000" fill="none" stroke-width="4px" />
<path d="M 890.0 95.0 L 890.0 105.0" stroke="#FF0000" fill="none" stroke-width="4px" />
<path d="M 890.0 105.0 L 880.0 105.0" stroke="#FF0000" fill="none" stroke-width="4px" />
<path d="M 880.0 105.0 L 880.0 115.0" stroke="#FF0000" fill="none" stroke-width="4px" />
<path d="M 880.0 115.0 L 890.0 115.0" stroke="#FF0000" fill="none" stroke-width="4px" />
<path d="M 890.0 115.0 L 900.0 115.0" stroke="#FF0000" fill="none" stroke-width="4px" />
<path d="M 900.0 115.0 L 910.0 115.0" stroke="#FF0000" fill="none" stroke-width="4px" />
<path d="M 910.0 115.0 L 920.0 115.0" stroke="#FF0000" fill="none" stroke-width="4px" />
<path d="M 920.0 115.0 L 920.0 125.0" stroke="#FF0000" fill="none" stroke-width="4px" />
<path d="M 920.0 125.0 L 910.0 125.0" stroke="#FF0000" fill="none" stroke-width="4px" />
<path d="M 910.0 125.0 L 900.0 125.0" stroke="#FF0000" fill="none" stroke-width="4px" />
<path d="M 900.0 125.0 L 890.0 125.0" stroke="#FF0000" fill="none" stroke-width="4px" />
<path d="M 890.0 125.0 L 880.0 125.0" stroke="#FF0000" fill="none" stroke-width="4px" />
<path d="M 880.0 125.0 L 870.0 125.0" stroke="#FF0000" fill="none" stroke-width="4px" />
<path d="M 870.0 125.0 L 870.0 135.0" stroke="#FF0000" fill="none" stroke-width="4px" />
<path d="M 870.0 135.0 L 880.0 135.0" stroke="#FF0000" fill="none" stroke-width="4px" />
<path d="M 880.0 135.0 L 890.0 135.0" stroke="#FF0000" fill="none" stroke-width="4px" />
<path d="M 890.0 135.0 L 900.0 135.0" stroke="#FF0000" fill="none" stroke-width="4px" />
<path d="M 900.0 135.0 L 910.0 135.0" stroke="#FF0000" fill="none" stroke-width="4px" />
<path d="M 910.0 135.0 L 920.0 135.0" stroke="#FF0000" fill="none" stroke-width="4px" />
<path d="M 920.0 135.0 L 910.0 145.0" stroke="#FF0000" fill="none" stroke-width="4px" />
<path d="M 910.0 145.0 L 900.0 145.0" stroke="#FF0000" fill="none" stroke-width="4px" />
<path d="M 900.0 145.0 L 890.0 145.0" stroke="#FF0000" fill="none" stroke-width="4px" />
<path d="M 890.0 145.0 L 880.0 145.0" stroke="#FF0000" fill="none" stroke-width="4px" />
<path d="M 900.0 105.0 L 910.0 105.0" stroke="#FF0000" fill="none" stroke-width="4px" />
<path d="M 910.0 105.0 L 920.0 105.0" stroke="#FF0000" fill="none" stroke-width="4px" />
<path d="M 920.0 105.0 L 930.0 105.0" stroke="#FF0000" fill="none" stroke-width="4px" />
<path d="M 920.0 35.0 L 910.0 35.0" stroke="#FF0000" fill="none" stroke-width="4px" />
<path d="M 910.0 35.0 L 900.0 35.0" stroke="#FF0000" fill="none" stroke-width="4px" />
<path d="M 900.0 35.0 L 890.0 35.0" stroke="#FF0000" fill="none" stroke-width="4px" />
<path d="M 890.0 35.0 L 880.0 35.0" stroke="#FF0000" fill="none" stroke-width="4px" />
<path d="M 880.0 35.0 L 870.0 35.0" stroke="#FF0000" fill="none" stroke-width="4px" />
<path d="M 870.0 35.0 L 860.0 35.0" stroke="#FF0000" fill="none" stroke-width="4px" />
<path d="M 860.0 35.0 L 870.0 25.0" stroke="#FF0000" fill="none" stroke-width="4px" />
<path d="M 870.0 25.0 L 880.0 25.0" stroke="#FF0000" fill="none" stroke-width="4px" />
<path d="M 880.0 25.0 L 890.0 25.0" stroke="#FF0000" fill="none" stroke-width="4px" />
<path d="M 890.0 25.0 L 900.0 25.0" stroke="#FF0000" fill="none" stroke-width="4px" />
<path d="M 900.0 25.0 L 910.0 25.0" stroke="#FF0000" fill="none" stroke-width="4px" />
<path d="M 890.0 15.0 L 880.0 15.0" stroke="#FF0000" fill="none" stroke-width="4px" />
<path d="M 990.0 45.0 L 1000.0 45.0" stroke="#FF0000" fill="none" stroke-width="4px" />
<path d="M 1000.0 45.0 L 1010.0 45.0" stroke="#FF0000" fill="none" stroke-width="4px" />
<path d="M 1010.0 45.0 L 1020.0 45.0" stroke="#FF0000" fill="none" stroke-width="4px" />
<path d="M 1020.0 45.0 L 1030.0 45.0" stroke="#FF0000" fill="none" stroke-width="4px" />
<path d="M 1030.0 45.0 L 1040.0 45.0" stroke="#FF0000" fill="none" stroke-width="4px" />
<path d="M 1040.0 45.0 L 1050.0 45.0" stroke="#FF0000" fill="none" stroke-width="4px" />
<path d="M 1050.0 45.0 L 1050.0 55.0" stroke="#FF0000" fill="none" stroke-width="4px" />
<path d="M 1050.0 55.0 L 1040.0 55.0" stroke="#FF0000" fill="none" stroke-width="4px" />
<path d="M 1040.0 55.0 L 1030.0 55.0" stroke="#FF0000" fill="none" stroke-width="4px" />
<path d="M 1030.0 55.0 L 1020.0 55.0" stroke="#FF0000" fill="none" stroke-width="4px" />
<path d="M 1020.0 55.0 L 1010.0 55.0" stroke="#FF0000" fill="none" stroke-width="4px" />
<path d="M 1010.0 55.0 L 1000.0 55.0" stroke="#FF0000" fill="none" stroke-width="4px" />
<path d="M 1000.0 55.0 L 990.0 55.0" stroke="#FF0000" fill="none" stroke-width="4px" />
<path d="M 990.0 55.0 L 1000.0 65.0" stroke="#FF0000" fill="none" stroke-width="4px" />
<path d="M 1000.0 65.0 L 1010.0 65.0" stroke="#FF0000" fill="none" stroke-width="4px" />
<path d="M 1010.0 65.0 L 1020.0 65.0" stroke="#FF0000" fill="none" stroke-width="4px" />
<path d="M 1020.0 65.0 L 1030.0 65.0" stroke="#FF0000" fill="none" stroke-width="4px" />
<path d="M 1030.0 65.0 L 1040.0 65.0" stroke="#FF0000" fill="none" stroke-width="4px" />
<path d="M 1040.0 65.0 L 1050.0 65.0" stroke="#FF0000" fill="none" stroke-width="4px" />
<path d="M 1050.0 65.0 L 1060.0 65.0" stroke="#FF0000" fill="none" stroke-width="4px" />
<path d="M 1060.0 65.0 L 1060.0 55.0" stroke="#FF0000" fill="none" stroke-width="4px" />
<path d="M 1050.0 75.0 L 1040.0 75.0" stroke="#FF0000" fill="none" stroke-width="4px" />
<path d="M 1040.0 75.0 L 1030.0 75.0" stroke="#FF0000" fill="none" stroke-width="4px" />
<path d="M 1030.0 75.0 L 1020.0 75.0" stroke="#FF0000" fill="none" stroke-width="4px" />
<path d="M 1020.0 75.0 L 1010.0 75.0" stroke="#FF0000" fill="none" stroke-width="4px" />
<path d="M 1010.0 75.0 L 1000.0 75.0" stroke="#FF0000" fill="none" stroke-width="4px" />
<path d="M 1000.0 75.0 L 1000.0 85.0" stroke="#FF0000" fill="none" stroke-width="4px" />
<path d="M 1000.0 85.0 L 1010.0 85.0" stroke="#FF0000" fill="none" stroke-width="4px" />
<path d="M 1010.0 85.0 L 1020.0 85.0" stroke="#FF0000" fill="none" stroke-width="4px" />
<path d="M 1020.0 85.0 L 1030.0 85.0" stroke="#FF0000" fill="none" stroke-width="4px" />
<path d="M 1030.0 85.0 L 1040.0 85.0" stroke="#FF0000" fill="none" stroke-width="4px" />
<path d="M 1040.0 85.0 L 1050.0 85.0" stroke="#FF0000" fill="none" stroke-width="4px" />
<path d="M 1050.0 85.0 L 1040.0 95.0" stroke="#FF0000" fill="none" stroke-width="4px" />
<path d="M 1040.0 95.0 L 1030.0 95.0" stroke="#FF0000" fill="none" stroke-width="4px" />
<path d="M 1030.0 95.0 L 1020.0 95.0" stroke="#FF0000" fill="none" stroke-width="4px" />
<path d="M 1020.0 95.0 L 1010.0 95.0" stroke="#FF0000" fill="none" stroke-width="4px" />
<path d="M 1010.0 95.0 L 1020.0 105.0" stroke="#FF0000" fill="none" stroke-width="4px" />
<path d="M 1020.0 105.0 L 1030.0 105.0" stroke="#FF0000" fill="none" stroke-width="4px" />
<path d="M 1030.0 35.0 L 1020.0 35.0" stroke="#FF0000" fill="none" stroke-width="4px" />
<path d="M 1020.0 35.0 L 1010.0 35.0" stroke="#FF0000" fill="none" stroke-width="4px" />
<path d="M 1010.0 35.0 L 1000.0 35.0" stroke="#FF0000" fill="none" stroke-width="4px" />
<path d="M 1000.0 35.0 L 1010.0 25.0" stroke="#FF0000" fill="none" stroke-width="4px" />
<path d="M 1010.0 25.0 L 1020.0 25.0" stroke="#FF0000" fill="none" stroke-width="4px" />
<path d="M 1020.0 25.0 L 1030.0 25.0" stroke="#FF0000" fill="none" stroke-width="4px" />
<path d="M 1030.0 25.0 L 1040.0 35.0" stroke="#FF0000" fill="none" stroke-width="4px" />
</svg>