<svg width="2894.54166667" height="235.0" xmlns="http://www.w3.org/2000/svg" version="1.1">
<path d="M 0.0 235.0 L 1985.0 235.0 L 1985.0 0.0 L 0.0 0.0 L 0.0 235.0" stroke="#000000" fill="none" stroke-width="3px" />
<path d="M 2894.54166667 235.0 L 1885.0 235.0 L 1885.0 0.0 L 2894.54166667 0.0 L 2894.54166667 235.0" stroke="#000000" fill="none" stroke-width="3px" />
<path d="M 10.0 257.5 L 0.0 247.5 L 10.0 237.5" stroke="#969696" fill="none" stroke-width="1px" />
<path d="M 10.0 237.5 L 1975.0 237.5" stroke="#969696" fill="none" stroke-width="1px" />
<path d="M 1975.0 237.5 L 1985.0 227.5 L 1975.0 217.5" stroke="#969696" fill="none" stroke-width="1px" />
<path d="M 1975.0 217.5 L 10.0 217.5" stroke="#969696" fill="none" stroke-width="1px" />
<path d="M 10.0 217.5 L 0.0 207.5 L 10.0 197.5" stroke="#969696" fill="none" stroke-width="1px" />
<path d="M 10.0 197.5 L 1975.0 197.5" stroke="#969696" fill="none" stroke-width="1px" />
<path d="M 1975.0 197.5 L 1985.0 187.5 L 1975.0 177.5" stroke="#969696" fill="none" stroke-width="1px" />
<path d="M 1975.0 177.5 L 10.0 177.5" stroke="#969696" fill="none" stroke-width="1px" />
<path d="M 10.0 177.5 L 0.0 167.5 L 10.0 157.5" stroke="#969696" fill="none" stroke-width="1px" />
<path d="M 10.0 157.5 L 1975.0 157.5" stroke="#969696" fill="none" stroke-width="1px" />
<path d="M 1975.0 157.5 L 1985.0 147.5 L 1975.0 137.5" stroke="#969696" fill="none" stroke-width="1px" />
<path d="M 1975.0 137.5 L 10.0 137.5" stroke="#969696" fill="none" stroke-width="1px" />
<path d="M 10.0 137.5 L 0.0 127.5 L 10.0 117.5" stroke="#969696" fill="none" stroke-width="1px" />
<path d="M 10.0 117.5 L 1975.0 117.5" stroke="#969696" fill="none" stroke-width="1px" />
<path d="M 1975.0 117.5 L 1985.0 107.5 L 1975.0 97.5" stroke="#969696" fill="none" stroke-width="1px" />
<path d="M 1975.0 97.5 L 10.0 97.5" stroke="#969696" fill="none" stroke-width="1px" />
<path d="M 10.0 97.5 L 0.0 87.5 L 10.0 77.5" stroke="#969696" fill="none" stroke-width="1px" />
<path d="M 10.0 77.5 L 1975.0 77.5" stroke="#969696" fill="none" stroke-width="1px" />
<path d="M 1975.0 77.5 L 1985.0 67.5 L 1975.0 57.5" stroke="#969696" fill="none" stroke-width="1px" />
<path d="M 1975.0 57.5 L 10.0 57.5" stroke="#969696" fill="none" stroke-width="1px" />
<path d="M 10.0 57.5 L 0.0 47.5 L 10.0 37.5" stroke="#969696" fill="none" stroke-width="1px" />
<path d="M 10.0 37.5 L 1975.0 37.5" stroke="#969696" fill="none" stroke-width="1px" />
<path d="M 1975.0 37.5 L 1985.0 27.5 L 1975.0 17.5" stroke="#969696" fill="none" stroke-width="1px" />
<path d="M 1975.0 17.5 L 10.0 17.5" stroke="#969696" fill="none" stroke-width="1px" />
<path d="M 10.0 17.5 L 0.0 7.5 L 10.0 -2.5" stroke="#969696" fill="none" stroke-width="1px" />
<path d="M 10.0 -2.5 L 1975.0 -2.5" stroke="#969696" fill="none" stroke-width="1px" />
<path d="M 1975.0 -2.5 L 1985.0 -12.5 L 1975.0 -22.5" stroke="#969696" fill="none" stroke-width="1px" />
<path d="M 2884.54166667 257.5 L 2894.54166667 247.5 L 2884.54166667 237.5" stroke="#969696" fill="none" stroke-width="1px" />
<path d="M 2884.54166667 237.5 L 1895.0 237.5" stroke="#969696" fill="none" stroke-width="1px" />
<path d="M 1895.0 237.5 L 1885.0 227.5 L 1895.0 217.5" stroke="#969696" fill="none" stroke-width="1px" />
<path d="M 1895.0 217.5 L 2884.54166667 217.5" stroke="#969696" fill="none" stroke-width="1px" />
<path d="M 2884.54166667 217.5 L 2894.54166667 207.5 L 2884.54166667 197.5" stroke="#969696" fill="none" stroke-width="1px" />
<path d="M 2884.54166667 197.5 L 1895.0 197.5" stroke="#969696" fill="none" stroke-width="1px" />
<path d="M 1895.0 197.5 L 1885.0 187.5 L 1895.0 177.5" stroke="#969696" fill="none" stroke-width="1px" />
<path d="M 1895.0 177.5 L 2884.54166667 177.5" stroke="#969696" fill="none" stroke-width="1px" />
<path d="M 2884.54166667 177.5 L 2894.54166667 167.5 L 2884.54166667 157.5" stroke="#969696" fill="none" stroke-width="1px" />
<path d="M 2884.54166667 157.5 L 1895.0 157.5" stroke="#969696" fill="none" stroke-width="1px" />
<path d="M 1895.0 157.5 L 1885.0 147.5 L 1895.0 137.5" stroke="#969696" fill="none" stroke-width="1px" />
<path d="M 1895.0 137.5 L 2884.54166667 137.5" stroke="#969696" fill="none" stroke-width="1px" />
<path d="M 2884.54166667 137.5 L 2894.54166667 127.5 L 2884.54166667 117.5" stroke="#969696" fill="none" stroke-width="1px" />
<path d="M 2884.54166667 117.5 L 1895.0 117.5" stroke="#969696" fill="none" stroke-width="1px" />
<path d="M 1895.0 117.5 L 1885.0 107.5 L 1895.0 97.5" stroke="#969696" fill="none" stroke-width="1px" />
<path d="M 1895.0 97.5 L 2884.54166667 97.5" stroke="#969696" fill="none" stroke-width="1px" />
<path d="M 2884.54166667 97.5 L 2894.54166667 87.5 L 2884.54166667 77.5" stroke="#969696" fill="none" stroke-width="1px" />
<path d="M 2884.54166667 77.5 L 1895.0 77.5" stroke="#969696" fill="none" stroke-width="1px" />
<path d="M 1895.0 77.5 L 1885.0 67.5 L 1895.0 57.5" stroke="#969696" fill="none" stroke-width="1px" />
<path d="M 1895.0 57.5 L 2884.54166667 57.5" stroke="#969696" fill="none" stroke-width="1px" />
<path d="M 2884.54166667 57.5 L 2894.54166667 47.5 L 2884.54166667 37.5" stroke="#969696" fill="none" stroke-width="1px" />
<path d="M 2884.54166667 37.5 L 1895.0 37.5" stroke="#969696" fill="none" stroke-width="1px" />
<path d="M 1895.0 37.5 L 1885.0 27.5 L 1895.0 17.5" stroke="#969696" fill="none" stroke-width="1px" />
<path d="M 1895.0 17.5 L 2884.54166667 17.5" stroke="#969696" fill="none" stroke-width="1px" />
<path d="M 2884.54166667 17.5 L 2894.54166667 7.5 L 2884.54166667 -2.5" stroke="#969696" fill="none" stroke-width="1px" />
<path d="M 2884.54166667 -2.5 L 1895.0 -2.5" stroke="#969696" fill="none" stroke-width="1px" />
<path d="M 1895.0 -2.5 L 1885.0 -12.5 L 1895.0 -22.5" stroke="#969696" fill="none" stroke-width="1px" />
<path d="M 0.0 235.0 L 740.0 235.0" stroke="#0095FF" fill="none" stroke-width="2px" />
<path d="M 740.0 235.0 L 740.0 145.0" stroke="#0095FF" fill="none" stroke-width="2px" />
<path d="M 760.0 125.0 L 760.0 155.0" stroke="#0095FF" fill="none" stroke-width="2px" />
<path d="M 750.0 155.0 L 810.0 155.0" stroke="#0095FF" fill="none" stroke-width="2px" />
<path d="M 830.0 115.0 L 830.0 165.0" stroke="#0095FF" fill="none" stroke-width="2px" />
<path d="M 820.0 165.0 L 1260.0 165.0" stroke="#0095FF" fill="none" stroke-width="2px" />
<path d="M 1260.0 165.0 L 1260.0 145.0" stroke="#0095FF" fill="none" stroke-width="2px" />
<path d="M 1300.0 175.0 L 1300.0 135.0" stroke="#0095FF" fill="none" stroke-width="2px" />
<path d="M 1310.0 135.0 L 1310.0 115.0" stroke="#0095FF" fill="none" stroke-width="2px" />
<path d="M 740.0 145.0 L 750.0 145.0" stroke="#FF0000" fill="none" stroke-width="4px" />
<path d="M 750.0 145.0 L 760.0 145.0" stroke="#FF0000" fill="none" stroke-width="4px" />
<path d="M 760.0 145.0 L 770.0 145.0" stroke="#FF0000" fill="none" stroke-width="4px" />
<path d="M 770.0 145.0 L 770.0 135.0" stroke="#FF0000" fill="none" stroke-width="4px" />
<path d="M 770.0 135.0 L 760.0 135.0" stroke="#FF0000" fill="none" stroke-width="4px" />
<path d="M 760.0 135.0 L 750.0 135.0" stroke="#FF0000" fill="none" stroke-width="4px" />
<path d="M 750.0 135.0 L 740.0 135.0" stroke="#FF0000" fill="none" stroke-width="4px" />
<path d="M 740.0 135.0 L 750.0 125.0" stroke="#FF0000" fill="none" stroke-width="4px" />
<path d="M 750.0 125.0 L 760.0 125.0" stroke="#FF0000" fill="none" stroke-width="4px" />
<path d="M 760.0 155.0 L 750.0 155.0" stroke="#FF0000" fill="none" stroke-width="4px" />
<path d="M 810.0 155.0 L 820.0 155.0" stroke="#FF0000" fill="none" stroke-width="4px" />
<path d="M 820.0 155.0 L 830.0 155.0" stroke="#FF0000" fill="none" stroke-width="4px" />
<path d="M 830.0 155.0 L 840.0 155.0" stroke="#FF0000" fill="none" stroke-width="4px" />
<path d="M 840.0 155.0 L 840.0 145.0" stroke="#FF0000" fill="none" stroke-width="4px" />
<path d="M 840.0 145.0 L 830.0 145.0" stroke="#FF0000" fill="none" stroke-width="4px" />
<path d="M 830.0 145.0 L 820.0 145.0" stroke="#FF0000" fill="none" stroke-width="4px" />
<path d="M 820.0 145.0 L 810.0 145.0" stroke="#FF0000" fill="none" stroke-width="4px" />
<path d="M 810.0 145.0 L 810.0 135.0" stroke="#FF0000" fill="none" stroke-width="4px" />
<path d="M 810.0 135.0 L 820.0 135.0" stroke="#FF0000" fill="none" stroke-width="4px" />
<path d="M 820.0 135.0 L 830.0 135.0" stroke="#FF0000" fill="none" stroke-width="4px" />
<path d="M 830.0 135.0 L 840.0 135.0" stroke="#FF0000" fill="none" stroke-width="4px" />
<path d="M 840.0 135.0 L 850.0 135.0" stroke="#FF0000" fill="none" stroke-width="4px" />
<path d="M 850.0 135.0 L 840.0 125.0" stroke="#FF0000" fill="none" stroke-width="4px" />
<path d="M 840.0 125.0 L 830.0 125.0" stroke="#FF0000" fill="none" stroke-width="4px" />
<path d="M 830.0 125.0 L 820.0 125.0" stroke="#FF0000" fill="none" stroke-width="4px" />
<path d="M 820.0 125.0 L 830.0 115.0" stroke="#FF0000" fill="none" stroke-width="4px" />
<path d="M 830.0 165.0 L 820.0 165.0" stroke="#FF0000" fill="none" stroke-width="4px" />
<path d="M 1260.0 145.0 L 1270.0 145.0" stroke="#FF0000" fill="none" stroke-width="4px" />
<path d="M 1270.0 145.0 L 1280.0 145.0" stroke="#FF0000" fill="none" stroke-width="4px" />
<path d="M 1280.0 145.0 L 1290.0 145.0" stroke="#FF0000" fill="none" stroke-width="4px" />
<path d="M 1290.0 145.0 L 1300.0 145.0" stroke="#FF0000" fill="none" stroke-width="4px" />
<path d="M 1300.0 145.0 L 1310.0 145.0" stroke="#FF0000" fill="none" stroke-width="4px" />
<path d="M 1310.0 145.0 L 1320.0 145.0" stroke="#FF0000" fill="none" stroke-width="4px" />
<path d="M 1320.0 145.0 L 1320.0 155.0" stroke="#FF0000" fill="none" stroke-width="4px" />
<path d="M 1320.0 155.0 L 1310.0 155.0" stroke="#FF0000" fill="none" stroke-width="4px" />
<path d="M 1310.0 155.0 L 1300.0 155.0" stroke="#FF0000" fill="none" stroke-width="4px" />
<path d="M 1300.0 155.0 L 1290.0 155.0" stroke="#FF0000" fill="none" stroke-width="4px" />
<path d="M 1290.0 155.0 L 1280.0 155.0" stroke="#FF0000" fill="none" stroke-width="4px" />
<path d="M 1280.0 155.0 L 1270.0 155.0" stroke="#FF0000" fill="none" stroke-width="4px" />
<path d="M 1270.0 155.0 L 1280.0 165.0" stroke="#FF0000" fill="none" stroke-width="4px" />
<path d="M 1280.0 165.0 L 1290.0 165.0" stroke="#FF0000" fill="none" stroke-width="4px" />
<path d="M 1290.0 165.0 L 1300.0 165.0" stroke="#FF0000" fill="none" stroke-width="4px" />
<path d="M 1300.0 165.0 L 1310.0 165.0" stroke="#FF0000" fill="none" stroke-width="4px" />
<path d="M 1310.0 165.0 L 1300.0 175.0" stroke="#FF0000" fill="none" stroke-width="4px" />
<path d="M 1300.0 135.0 L 1290.0 135.0" stroke="#FF0000" fill="none" stroke-width="4px" />
<path d="M 1290.0 135.0 L 1280.0 135.0" stroke="#FF0000" fill="none" stroke-width="4px" />
<path d="M 1280.0 135.0 L 1270.0 135.0" stroke="#FF0000" fill="none" stroke-width="4px" />
<path d="M 1270.0 135.0 L 1260.0 135.0" stroke="#FF0000" fill="none" stroke-width="4px" />
<path d="M 1260.0 135.0 L 1270.0 125.0" stroke="#FF0000" fill="none" stroke-width="4px" />
<path d="M 1270.0 125.0 L 1280.0 125.0" stroke="#FF0000" fill="none" stroke-width="4px" />
<path d="M 1280.0 125.0 L 1290.0 125.0" stroke="#FF0000" fill="none" stroke-width="4px" />
<path d="M 1290.0 125.0 L 1300.0 125.0" stroke="#FF0000" fill="none" stroke-width="4px" />
<path d="M 1300.0 125.0 L 1310.0 125.0" stroke="#FF0000" fill="none" stroke-width="4px" />
<path d="M 1310.0 125.0 L 1320.0 125.0" stroke="#FF0000" fill="none" stroke-width="4px" />
<path d="M 1320.0 125.0 L 1320.0 135.0" stroke="#FF0000" fill="none" stroke-width="4px" />
<path d="M 1320.0 135.0 L 1310.0 135.0" stroke="#FF0000" fill="none" stroke-width="4px" />
<path d="M 1310.0 115.0 L 1300.0 115.0" stroke="#FF0000" fill="none" stroke-width="4px" />
<path d="M 1300.0 115.0 L 1290.0 115.0" stroke="#FF0000" fill="none" stroke-width="4px" />
<path d="M 1290.0 115.0 L 1280.0 115.0" stroke="#FF0000" fill="none" stroke-width="4px" />
</svg>