<svg width="2523.06666667" height="235.0" xmlns="http://www.w3.org/2000/svg" version="1.1">
<path d="M 0.0 235.0 L 1985.0 235.0 L 1985.0 0.0 L 0.0 0.0 L 0.0 235.0" stroke="#000000" fill="none" stroke-width="3px" />
<path d="M 2523.06666667 235.0 L 1885.0 235.0 L 1885.0 0.0 L 2523.06666667 0.0 L 2523.06666667 235.0" stroke="#000000" fill="none" stroke-width="3px" />
<path d="M 10.0 257.5 L 0.0 247.5 L 10.0 237.5" stroke="#969696" fill="none" stroke-width="1px" />
<path d="M 10.0 237.5 L 1975.0 237.5" stroke="#969696" fill="none" stroke-width="1px" />
<path d="M 1975.0 237.5 L 1985.0 227.5 L 1975.0 217.5" stroke="#969696" fill="none" stroke-width="1px" />
<path d="M 1975.0 217.5 L 10.0 217.5" stroke="#969696" fill="none" stroke-width="1px" />
<path d="M 10.0 217.5 L 0.0 207.5 L 10.0 197.5" stroke="#969696" fill="none" stroke-width="1px" />
<path d="M 10.0 197.5 L 1975.0 197.5" stroke="#969696" fill="none" stroke-width="1px" />
<path d="M 1975.0 197.5 L 1985.0 187.5 L 1975.0 177.5" stroke="#969696" fill="none" stroke-width="1px" />
<path d="M 1975.0 177.5 L 10.0 177.5" stroke="#969696" fill="none" stroke-width="1px" />
<path d="M 10.0 177.5 L 0.0 167.5 L 10.0 157.5" stroke="#969696" fill="none" stroke-width="1px" />
<path d="M 10.0 157.5 L 1975.0 157.5" stroke="#969696" fill="none" stroke-width="1px" />
<path d="M 1975.0 157.5 L 1985.0 147.5 L 1975.0 137.5" stroke="#969696" fill="none" stroke-width="1px" />
<path d="M 1975.0 137.5 L 10.0 137.5" stroke="#969696" fill="none" stroke-width="1px" />
<path d="M 10.0 137.5 L 0.0 127.5 L 10.0 117.5" stroke="#969696" fill="none" stroke-width="1px" />
<path d="M 10.0 117.5 L 1975.0 117.5" stroke="#969696" fill="none" stroke-width="1px" />
<path d="M 1975.0 117.5 L 1985.0 107.5 L 1975.0 97.5" stroke="#969696" fill="none" stroke-width="1px" />
<path d="M 1975.0 97.5 L 10.0 97.5" stroke="#969696" fill="none" stroke-width="1px" />
<path d="M 10.0 97.5 L 0.0 87.5 L 10.0 77.5" stroke="#969696" fill="none" stroke-width="1px" />
<path d="M 10.0 77.5 L 1975.0 77.5" stroke="#969696" fill="none" stroke-width="1px" />
<path d="M 1975.0 77.5 L 1985.0 67.5 L 1975.0 57.5" stroke="#969696" fill="none" stroke-width="1px" />
<path d="M 1975.0 57.5 L 10.0 57.5" stroke="#969696" fill="none" stroke-width="1px" />
<path d="M 10.0 57.5 L 0.0 47.5 L 10.0 37.5" stroke="#969696" fill="none" stroke-width="1px" />
<path d="M 10.0 37.5 L 1975.0 37.5" stroke="#969696" fill="none" stroke-width="1px" />
<path d="M 1975.0 37.5 L 1985.0 27.5 L 1975.0 17.5" stroke="#969696" fill="none" stroke-width="1px" />
<path d="M 1975.0 17.5 L 10.0 17.5" stroke="#969696" fill="none" stroke-width="1px" />
<path d="M 10.0 17.5 L 0.0 7.5 L 10.0 -2.5" stroke="#969696" fill="none" stroke-width="1px" />
<path d="M 10.0 -2.5 L 1975.0 -2.5" stroke="#969696" fill="none" stroke-width="1px" />
<path d="M 1975.0 -2.5 L 1985.0 -12.5 L 1975.0 -22.5" stroke="#969696" fill="none" stroke-width="1px" />
<path d="M 2513.06666667 257.5 L 2523.06666667 247.5 L 2513.06666667 237.5" stroke="#969696" fill="none" stroke-width="1px" />
<path d="M 2513.06666667 237.5 L 1895.0 237.5" stroke="#969696" fill="none" stroke-width="1px" />
<path d="M 1895.0 237.5 L 1885.0 227.5 L 1895.0 217.5" stroke="#969696" fill="none" stroke-width="1px" />
<path d="M 1895.0 217.5 L 2513.06666667 217.5" stroke="#969696" fill="none" stroke-width="1px" />
<path d="M 2513.06666667 217.5 L 2523.06666667 207.5 L 2513.06666667 197.5" stroke="#969696" fill="none" stroke-width="1px" />
<path d="M 2513.06666667 197.5 L 1895.0 197.5" stroke="#969696" fill="none" stroke-width="1px" />
<path d="M 1895.0 197.5 L 1885.0 187.5 L 1895.0 177.5" stroke="#969696" fill="none" stroke-width="1px" />
<path d="M 1895.0 177.5 L 2513.06666667 177.5" stroke="#969696" fill="none" stroke-width="1px" />
<path d="M 2513.06666667 177.5 L 2523.06666667 167.5 L 2513.06666667 157.5" stroke="#969696" fill="none" stroke-width="1px" />
<path d="M 2513.06666667 157.5 L 1895.0 157.5" stroke="#969696" fill="none" stroke-width="1px" />
<path d="M 1895.0 157.5 L 1885.0 147.5 L 1895.0 137.5" stroke="#969696" fill="none" stroke-width="1px" />
<path d="M 1895.0 137.5 L 2513.06666667 137.5" stroke="#969696" fill="none" stroke-width="1px" />
<path d="M 2513.06666667 137.5 L 2523.06666667 127.5 L 2513.06666667 117.5" stroke="#969696" fill="none" stroke-width="1px" />
<path d="M 2513.06666667 117.5 L 1895.0 117.5" stroke="#969696" fill="none" stroke-width="1px" />
<path d="M 1895.0 117.5 L 1885.0 107.5 L 1895.0 97.5" stroke="#969696" fill="none" stroke-width="1px" />
<path d="M 1895.0 97.5 L 2513.06666667 97.5" stroke="#969696" fill="none" stroke-width="1px" />
<path d="M 2513.06666667 97.5 L 2523.06666667 87.5 L 2513.06666667 77.5" stroke="#969696" fill="none" stroke-width="1px" />
<path d="M 2513.06666667 77.5 L 1895.0 77.5" stroke="#969696" fill="none" stroke-width="1px" />
<path d="M 1895.0 77.5 L 1885.0 67.5 L 1895.0 57.5" stroke="#969696" fill="none" stroke-width="1px" />
<path d="M 1895.0 57.5 L 2513.06666667 57.5" stroke="#969696" fill="none" stroke-width="1px" />
<path d="M 2513.06666667 57.5 L 2523.06666667 47.5 L 2513.06666667 37.5" stroke="#969696" fill="none" stroke-width="1px" />
<path d="M 2513.06666667 37.5 L 1895.0 37.5" stroke="#969696" fill="none" stroke-width="1px" />
<path d="M 1895.0 37.5 L 1885.0 27.5 L 1895.0 17.5" stroke="#969696" fill="none" stroke-width="1px" />
<path d="M 1895.0 17.5 L 2513.06666667 17.5" stroke="#969696" fill="none" stroke-width="1px" />
<path d="M 2513.06666667 17.5 L 2523.06666667 7.5 L 2513.06666667 -2.5" stroke="#969696" fill="none" stroke-width="1px" />
<path d="M 2513.06666667 -2.5 L 1895.0 -2.5" stroke="#969696" fill="none" stroke-width="1px" />
<path d="M 1895.0 -2.5 L 1885.0 -12.5 L 1895.0 -22.5" stroke="#969696" fill="none" stroke-width="1px" />
<path d="M 0.0 235.0 L 50.0 175.0" stroke="#0095FF" fill="none" stroke-width="2px" />
<path d="M 70.0 165.0 L 70.0 125.0" stroke="#0095FF" fill="none" stroke-width="2px" />
<path d="M 80.0 125.0 L 190.0 155.0" stroke="#0095FF" fill="none" stroke-width="2px" />
<path d="M 220.0 205.0 L 220.0 145.0" stroke="#0095FF" fill="none" stroke-width="2px" />
<path d="M 230.0 145.0 L 260.0 145.0" stroke="#0095FF" fill="none" stroke-width="2px" />
<path d="M 260.0 145.0 L 490.0 165.0" stroke="#0095FF" fill="none" stroke-width="2px" />
<path d="M 520.0 215.0 L 550.0 175.0" stroke="#0095FF" fill="none" stroke-width="2px" />
<path d="M 550.0 175.0 L 530.0 155.0" stroke="#0095FF" fill="none" stroke-width="2px" />
<path d="M 510.0 145.0 L 520.0 115.0" stroke="#0095FF" fill="none" stroke-width="2px" />
<path d="M 520.0 95.0 L 520.0 75.0" stroke="#0095FF" fill="none" stroke-width="2px" />
<path d="M 550.0 75.0 L 560.0 105.0" stroke="#0095FF" fill="none" stroke-width="2px" />
<path d="M 560.0 105.0 L 790.0 175.0" stroke="#0095FF" fill="none" stroke-width="2px" />
<path d="M 860.0 185.0 L 850.0 205.0" stroke="#0095FF" fill="none" stroke-width="2px" />
<path d="M 840.0 215.0 L 840.0 165.0" stroke="#0095FF" fill="none" stroke-width="2px" />
<path d="M 830.0 155.0 L 1150.0 125.0" stroke="#0095FF" fill="none" stroke-width="2px" />
<path d="M 1210.0 185.0 L 1210.0 115.0" stroke="#0095FF" fill="none" stroke-width="2px" />
<path d="M 1200.0 105.0 L 1180.0 95.0" stroke="#0095FF" fill="none" stroke-width="2px" />
<path d="M 1170.0 95.0 L 1480.0 165.0" stroke="#0095FF" fill="none" stroke-width="2px" />
<path d="M 1490.0 195.0 L 1490.0 155.0" stroke="#0095FF" fill="none" stroke-width="2px" />
<path d="M 1500.0 145.0 L 1760.0 135.0" stroke="#0095FF" fill="none" stroke-width="2px" />
<path d="M 1790.0 165.0 L 1810.0 175.0" stroke="#0095FF" fill="none" stroke-width="2px" />
<path d="M 1810.0 175.0 L 1810.0 125.0" stroke="#0095FF" fill="none" stroke-width="2px" />
<path d="M 1830.0 125.0 L 1810.0 105.0" stroke="#0095FF" fill="none" stroke-width="2px" />
<path d="M 50.0 175.0 L 60.0 175.0" stroke="#FF0000" fill="none" stroke-width="4px" />
<path d="M 60.0 175.0 L 60.0 165.0" stroke="#FF0000" fill="none" stroke-width="4px" />
<path d="M 60.0 165.0 L 50.0 165.0" stroke="#FF0000" fill="none" stroke-width="4px" />
<path d="M 50.0 165.0 L 40.0 165.0" stroke="#FF0000" fill="none" stroke-width="4px" />
<path d="M 40.0 165.0 L 40.0 155.0" stroke="#FF0000" fill="none" stroke-width="4px" />
<path d="M 40.0 155.0 L 30.0 155.0" stroke="#FF0000" fill="none" stroke-width="4px" />
<path d="M 30.0 155.0 L 30.0 145.0" stroke="#FF0000" fill="none" stroke-width="4px" />
<path d="M 30.0 145.0 L 20.0 145.0" stroke="#FF0000" fill="none" stroke-width="4px" />
<path d="M 20.0 145.0 L 20.0 135.0" stroke="#FF0000" fill="none" stroke-width="4px" />
<path d="M 20.0 135.0 L 30.0 135.0" stroke="#FF0000" fill="none" stroke-width="4px" />
<path d="M 30.0 135.0 L 40.0 135.0" stroke="#FF0000" fill="none" stroke-width="4px" />
<path d="M 40.0 135.0 L 50.0 135.0" stroke="#FF0000" fill="none" stroke-width="4px" />
<path d="M 50.0 135.0 L 60.0 135.0" stroke="#FF0000" fill="none" stroke-width="4px" />
<path d="M 60.0 135.0 L 70.0 135.0" stroke="#FF0000" fill="none" stroke-width="4px" />
<path d="M 70.0 135.0 L 80.0 135.0" stroke="#FF0000" fill="none" stroke-width="4px" />
<path d="M 80.0 135.0 L 90.0 135.0" stroke="#FF0000" fill="none" stroke-width="4px" />
<path d="M 90.0 135.0 L 90.0 145.0" stroke="#FF0000" fill="none" stroke-width="4px" />
<path d="M 90.0 145.0 L 80.0 145.0" stroke="#FF0000" fill="none" stroke-width="4px" />
<path d="M 80.0 145.0 L 70.0 145.0" stroke="#FF0000" fill="none" stroke-width="4px" />
<path d="M 70.0 145.0 L 60.0 145.0" stroke="#FF0000" fill="none" stroke-width="4px" />
<path d="M 60.0 145.0 L 50.0 145.0" stroke="#FF0000" fill="none" stroke-width="4px" />
<path d="M 50.0 145.0 L 40.0 145.0" stroke="#FF0000" fill="none" stroke-width="4px" />
<path d="M 40.0 145.0 L 50.0 155.0" stroke="#FF0000" fill="none" stroke-width="4px" />
<path d="M 50.0 155.0 L 60.0 155.0" stroke="#FF0000" fill="none" stroke-width="4px" />
<path d="M 60.0 155.0 L 70.0 155.0" stroke="#FF0000" fill="none" stroke-width="4px" />
<path d="M 70.0 155.0 L 80.0 155.0" stroke="#FF0000" fill="none" stroke-width="4px" />
<path d="M 80.0 155.0 L 70.0 165.0" stroke="#FF0000" fill="none" stroke-width="4px" />
<path d="M 70.0 125.0 L 60.0 125.0" stroke="#FF0000" fill="none" stroke-width="4px" />
<path d="M 60.0 125.0 L 50.0 125.0" stroke="#FF0000" fill="none" stroke-width="4px" />
<path d="M 50.0 125.0 L 40.0 125.0" stroke="#FF0000" fill="none" stroke-width="4px" />
<path d="M 40.0 125.0 L 30.0 125.0" stroke="#FF0000" fill="none" stroke-width="4px" />
<path d="M 30.0 125.0 L 20.0 125.0" stroke="#FF0000" fill="none" stroke-width="4px" />
<path d="M 20.0 125.0 L 30.0 115.0" stroke="#FF0000" fill="none" stroke-width="4px" />
<path d="M 30.0 115.0 L 40.0 115.0" stroke="#FF0000" fill="none" stroke-width="4px" />
<path d="M 40.0 115.0 L 50.0 115.0" stroke="#FF0000" fill="none" stroke-width="4px" />
<path d="M 50.0 115.0 L 60.0 115.0" stroke="#FF0000" fill="none" stroke-width="4px" />
<path d="M 60.0 115.0 L 70.0 115.0" stroke="#FF0000" fill="none" stroke-width="4px" />
<path d="M 70.0 115.0 L 80.0 125.0" stroke="#FF0000" fill="none" stroke-width="4px" />
<path d="M 190.0 155.0 L 200.0 155.0" stroke="#FF0000" fill="none" stroke-width="4px" />
<path d="M 200.0 155.0 L 210.0 155.0" stroke="#FF0000" fill="none" stroke-width="4px" />
<path d="M 210.0 155.0 L 220.0 155.0" stroke="#FF0000" fill="none" stroke-width="4px" />
<path d="M 220.0 155.0 L 230.0 155.0" stroke="#FF0000" fill="none" stroke-width="4px" />
<path d="M 230.0 155.0 L 240.0 155.0" stroke="#FF0000" fill="none" stroke-width="4px" />
<path d="M 240.0 155.0 L 250.0 155.0" stroke="#FF0000" fill="none" stroke-width="4px" />
<path d="M 250.0 155.0 L 260.0 155.0" stroke="#FF0000" fill="none" stroke-width="4px" />
<path d="M 260.0 155.0 L 260.0 165.0" stroke="#FF0000" fill="none" stroke-width="4px" />
<path d="M 260.0 165.0 L 250.0 165.0" stroke="#FF0000" fill="none" stroke-width="4px" />
<path d="M 250.0 165.0 L 240.0 165.0" stroke="#FF0000" fill="none" stroke-width="4px" />
<path d="M 240.0 165.0 L 230.0 165.0" stroke="#FF0000" fill="none" stroke-width="4px" />
<path d="M 230.0 165.0 L 220.0 165.0" stroke="#FF0000" fill="none" stroke-width="4px" />
<path d="M 220.0 165.0 L 210.0 165.0" stroke="#FF0000" fill="none" stroke-width="4px" />
<path d="M 210.0 165.0 L 200.0 165.0" stroke="#FF0000" fill="none" stroke-width="4px" />
<path d="M 200.0 165.0 L 190.0 165.0" stroke="#FF0000" fill="none" stroke-width="4px" />
<path d="M 190.0 165.0 L 190.0 175.0" stroke="#FF0000" fill="none" stroke-width="4px" />
<path d="M 190.0 175.0 L 200.0 175.0" stroke="#FF0000" fill="none" stroke-width="4px" />
<path d="M 200.0 175.0 L 210.0 175.0" stroke="#FF0000" fill="none" stroke-width="4px" />
<path d="M 210.0 175.0 L 220.0 175.0" stroke="#FF0000" fill="none" stroke-width="4px" />
<path d="M 220.0 175.0 L 230.0 175.0" stroke="#FF0000" fill="none" stroke-width="4px" />
<path d="M 230.0 175.0 L 240.0 175.0" stroke="#FF0000" fill="none" stroke-width="4px" />
<path d="M 240.0 175.0 L 250.0 175.0" stroke="#FF0000" fill="none" stroke-width="4px" />
<path d="M 250.0 175.0 L 260.0 175.0" stroke="#FF0000" fill="none" stroke-width="4px" />
<path d="M 260.0 175.0 L 260.0 185.0" stroke="#FF0000" fill="none" stroke-width="4px" />
<path d="M 260.0 185.0 L 250.0 185.0" stroke="#FF0000" fill="none" stroke-width="4px" />
<path d="M 250.0 185.0 L 240.0 185.0" stroke="#FF0000" fill="none" stroke-width="4px" />
<path d="M 240.0 185.0 L 230.0 185.0" stroke="#FF0000" fill="none" stroke-width="4px" />
<path d="M 230.0 185.0 L 220.0 185.0" stroke="#FF0000" fill="none" stroke-width="4px" />
<path d="M 220.0 185.0 L 210.0 185.0" stroke="#FF0000" fill="none" stroke-width="4px" />
<path d="M 210.0 185.0 L 200.0 185.0" stroke="#FF0000" fill="none" stroke-width="4px" />
<path d="M 200.0 185.0 L 210.0 195.0" stroke="#FF0000" fill="none" stroke-width="4px" />
<path d="M 210.0 195.0 L 220.0 195.0" stroke="#FF0000" fill="none" stroke-width="4px" />
<path d="M 220.0 195.0 L 230.0 195.0" stroke="#FF0000" fill="none" stroke-width="4px" />
<path d="M 230.0 195.0 L 240.0 195.0" stroke="#FF0000" fill="none" stroke-width="4px" />
<path d="M 240.0 195.0 L 250.0 195.0" stroke="#FF0000" fill="none" stroke-width="4px" />
<path d="M 250.0 195.0 L 240.0 205.0" stroke="#FF0000" fill="none" stroke-width="4px" />
<path d="M 240.0 205.0 L 230.0 205.0" stroke="#FF0000" fill="none" stroke-width="4px" />
<path d="M 230.0 205.0 L 220.0 205.0" stroke="#FF0000" fill="none" stroke-width="4px" />
<path d="M 220.0 145.0 L 210.0 145.0" stroke="#FF0000" fill="none" stroke-width="4px" />
<path d="M 210.0 145.0 L 200.0 145.0" stroke="#FF0000" fill="none" stroke-width="4px" />
<path d="M 200.0 145.0 L 210.0 135.0" stroke="#FF0000" fill="none" stroke-width="4px" />
<path d="M 210.0 135.0 L 220.0 135.0" stroke="#FF0000" fill="none" stroke-width="4px" />
<path d="M 220.0 135.0 L 230.0 135.0" stroke="#FF0000" fill="none" stroke-width="4px" />
<path d="M 230.0 135.0 L 240.0 135.0" stroke="#FF0000" fill="none" stroke-width="4px" />
<path d="M 240.0 135.0 L 250.0 135.0" stroke="#FF0000" fill="none" stroke-width="4px" />
<path d="M 250.0 135.0 L 250.0 145.0" stroke="#FF0000" fill="none" stroke-width="4px" />
<path d="M 250.0 145.0 L 240.0 145.0" stroke="#FF0000" fill="none" stroke-width="4px" />
<path d="M 240.0 145.0 L 230.0 145.0" stroke="#FF0000" fill="none" stroke-width="4px" />
<path d="M 490.0 165.0 L 500.0 165.0" stroke="#FF0000" fill="none" stroke-width="4px" />
<path d="M 500.0 165.0 L 510.0 165.0" stroke="#FF0000" fill="none" stroke-width="4px" />
<path d="M 510.0 165.0 L 520.0 165.0" stroke="#FF0000" fill="none" stroke-width="4px" />
<path d="M 520.0 165.0 L 530.0 165.0" stroke="#FF0000" fill="none" stroke-width="4px" />
<path d="M 530.0 165.0 L 540.0 165.0" stroke="#FF0000" fill="none" stroke-width="4px" />
<path d="M 540.0 165.0 L 540.0 175.0" stroke="#FF0000" fill="none" stroke-width="4px" />
<path d="M 540.0 175.0 L 530.0 175.0" stroke="#FF0000" fill="none" stroke-width="4px" />
<path d="M 530.0 175.0 L 520.0 175.0" stroke="#FF0000" fill="none" stroke-width="4px" />
<path d="M 520.0 175.0 L 510.0 175.0" stroke="#FF0000" fill="none" stroke-width="4px" />
<path d="M 510.0 175.0 L 500.0 175.0" stroke="#FF0000" fill="none" stroke-width="4px" />
<path d="M 500.0 175.0 L 490.0 175.0" stroke="#FF0000" fill="none" stroke-width="4px" />
<path d="M 490.0 175.0 L 490.0 185.0" stroke="#FF0000" fill="none" stroke-width="4px" />
<path d="M 490.0 185.0 L 500.0 185.0" stroke="#FF0000" fill="none" stroke-width="4px" />
<path d="M 500.0 185.0 L 510.0 185.0" stroke="#FF0000" fill="none" stroke-width="4px" />
<path d="M 510.0 185.0 L 520.0 185.0" stroke="#FF0000" fill="none" stroke-width="4px" />
<path d="M 520.0 185.0 L 530.0 185.0" stroke="#FF0000" fill="none" stroke-width="4px" />
<path d="M 530.0 185.0 L 540.0 185.0" stroke="#FF0000" fill="none" stroke-width="4px" />
<path d="M 540.0 185.0 L 550.0 185.0" stroke="#FF0000" fill="none" stroke-width="4px" />
<path d="M 550.0 185.0 L 560.0 185.0" stroke="#FF0000" fill="none" stroke-width="4px" />
<path d="M 560.0 185.0 L 560.0 195.0" stroke="#FF0000" fill="none" stroke-width="4px" />
<path d="M 560.0 195.0 L 550.0 195.0" stroke="#FF0000" fill="none" stroke-width="4px" />
<path d="M 550.0 195.0 L 540.0 195.0" stroke="#FF0000" fill="none" stroke-width="4px" />
<path d="M 540.0 195.0 L 530.0 195.0" stroke="#FF0000" fill="none" stroke-width="4px" />
<path d="M 530.0 195.0 L 520.0 195.0" stroke="#FF0000" fill="none" stroke-width="4px" />
<path d="M 520.0 195.0 L 510.0 195.0" stroke="#FF0000" fill="none" stroke-width="4px" />
<path d="M 510.0 195.0 L 500.0 195.0" stroke="#FF0000" fill="none" stroke-width="4px" />
<path d="M 500.0 195.0 L 510.0 205.0" stroke="#FF0000" fill="none" stroke-width="4px" />
<path d="M 510.0 205.0 L 520.0 205.0" stroke="#FF0000" fill="none" stroke-width="4px" />
<path d="M 520.0 205.0 L 530.0 205.0" stroke="#FF0000" fill="none" stroke-width="4px" />
<path d="M 530.0 205.0 L 540.0 205.0" stroke="#FF0000" fill="none" stroke-width="4px" />
<path d="M 540.0 205.0 L 550.0 205.0" stroke="#FF0000" fill="none" stroke-width="4px" />
<path d="M 550.0 205.0 L 540.0 215.0" stroke="#FF0000" fill="none" stroke-width="4px" />
<path d="M 540.0 215.0 L 530.0 215.0" stroke="#FF0000" fill="none" stroke-width="4px" />
<path d="M 530.0 215.0 L 520.0 215.0" stroke="#FF0000" fill="none" stroke-width="4px" />
<path d="M 530.0 155.0 L 520.0 155.0" stroke="#FF0000" fill="none" stroke-width="4px" />
<path d="M 520.0 155.0 L 510.0 155.0" stroke="#FF0000" fill="none" stroke-width="4px" />
<path d="M 510.0 155.0 L 500.0 155.0" stroke="#FF0000" fill="none" stroke-width="4px" />
<path d="M 500.0 155.0 L 510.0 145.0" stroke="#FF0000" fill="none" stroke-width="4px" />
<path d="M 520.0 115.0 L 530.0 115.0" stroke="#FF0000" fill="none" stroke-width="4px" />
<path d="M 530.0 115.0 L 540.0 115.0" stroke="#FF0000" fill="none" stroke-width="4px" />
<path d="M 540.0 115.0 L 550.0 115.0" stroke="#FF0000" fill="none" stroke-width="4px" />
<path d="M 550.0 115.0 L 550.0 105.0" stroke="#FF0000" fill="none" stroke-width="4px" />
<path d="M 550.0 105.0 L 540.0 105.0" stroke="#FF0000" fill="none" stroke-width="4px" />
<path d="M 540.0 105.0 L 530.0 105.0" stroke="#FF0000" fill="none" stroke-width="4px" />
<path d="M 530.0 105.0 L 520.0 105.0" stroke="#FF0000" fill="none" stroke-width="4px" />
<path d="M 520.0 105.0 L 510.0 105.0" stroke="#FF0000" fill="none" stroke-width="4px" />
<path d="M 510.0 105.0 L 510.0 95.0" stroke="#FF0000" fill="none" stroke-width="4px" />
<path d="M 510.0 95.0 L 500.0 95.0" stroke="#FF0000" fill="none" stroke-width="4px" />
<path d="M 500.0 95.0 L 500.0 85.0" stroke="#FF0000" fill="none" stroke-width="4px" />
<path d="M 500.0 85.0 L 510.0 85.0" stroke="#FF0000" fill="none" stroke-width="4px" />
<path d="M 510.0 85.0 L 520.0 85.0" stroke="#FF0000" fill="none" stroke-width="4px" />
<path d="M 520.0 85.0 L 530.0 85.0" stroke="#FF0000" fill="none" stroke-width="4px" />
<path d="M 530.0 85.0 L 540.0 85.0" stroke="#FF0000" fill="none" stroke-width="4px" />
<path d="M 540.0 85.0 L 550.0 85.0" stroke="#FF0000" fill="none" stroke-width="4px" />
<path d="M 550.0 85.0 L 560.0 85.0" stroke="#FF0000" fill="none" stroke-width="4px" />
<path d="M 560.0 85.0 L 560.0 95.0" stroke="#FF0000" fill="none" stroke-width="4px" />
<path d="M 560.0 95.0 L 550.0 95.0" stroke="#FF0000" fill="none" stroke-width="4px" />
<path d="M 550.0 95.0 L 540.0 95.0" stroke="#FF0000" fill="none" stroke-width="4px" />
<path d="M 540.0 95.0 L 530.0 95.0" stroke="#FF0000" fill="none" stroke-width="4px" />
<path d="M 530.0 95.0 L 520.0 95.0" stroke="#FF0000" fill="none" stroke-width="4px" />
<path d="M 520.0 75.0 L 510.0 75.0" stroke="#FF0000" fill="none" stroke-width="4px" />
<path d="M 510.0 75.0 L 520.0 65.0" stroke="#FF0000" fill="none" stroke-width="4px" />
<path d="M 520.0 65.0 L 530.0 65.0" stroke="#FF0000" fill="none" stroke-width="4px" />
<path d="M 530.0 65.0 L 540.0 65.0" stroke="#FF0000" fill="none" stroke-width="4px" />
<path d="M 540.0 65.0 L 540.0 75.0" stroke="#FF0000" fill="none" stroke-width="4px" />
<path d="M 540.0 75.0 L 530.0 75.0" stroke="#FF0000" fill="none" stroke-width="4px" />
<path d="M 530.0 75.0 L 550.0 75.0" stroke="#FF0000" fill="none" stroke-width="4px" />
<path d="M 790.0 175.0 L 800.0 175.0" stroke="#FF0000" fill="none" stroke-width="4px" />
<path d="M 800.0 175.0 L 810.0 175.0" stroke="#FF0000" fill="none" stroke-width="4px" />
<path d="M 810.0 175.0 L 820.0 175.0" stroke="#FF0000" fill="none" stroke-width="4px" />
<path d="M 820.0 175.0 L 830.0 175.0" stroke="#FF0000" fill="none" stroke-width="4px" />
<path d="M 830.0 175.0 L 840.0 175.0" stroke="#FF0000" fill="none" stroke-width="4px" />
<path d="M 840.0 175.0 L 850.0 175.0" stroke="#FF0000" fill="none" stroke-width="4px" />
<path d="M 850.0 175.0 L 850.0 185.0" stroke="#FF0000" fill="none" stroke-width="4px" />
<path d="M 850.0 185.0 L 840.0 185.0" stroke="#FF0000" fill="none" stroke-width="4px" />
<path d="M 840.0 185.0 L 830.0 185.0" stroke="#FF0000" fill="none" stroke-width="4px" />
<path d="M 830.0 185.0 L 820.0 185.0" stroke="#FF0000" fill="none" stroke-width="4px" />
<path d="M 820.0 185.0 L 810.0 185.0" stroke="#FF0000" fill="none" stroke-width="4px" />
<path d="M 810.0 185.0 L 800.0 185.0" stroke="#FF0000" fill="none" stroke-width="4px" />
<path d="M 800.0 185.0 L 810.0 195.0" stroke="#FF0000" fill="none" stroke-width="4px" />
<path d="M 810.0 195.0 L 820.0 195.0" stroke="#FF0000" fill="none" stroke-width="4px" />
<path d="M 820.0 195.0 L 830.0 195.0" stroke="#FF0000" fill="none" stroke-width="4px" />
<path d="M 830.0 195.0 L 840.0 195.0" stroke="#FF0000" fill="none" stroke-width="4px" />
<path d="M 840.0 195.0 L 850.0 195.0" stroke="#FF0000" fill="none" stroke-width="4px" />
<path d="M 850.0 195.0 L 860.0 195.0" stroke="#FF0000" fill="none" stroke-width="4px" />
<path d="M 860.0 195.0 L 860.0 185.0" stroke="#FF0000" fill="none" stroke-width="4px" />
<path d="M 850.0 205.0 L 840.0 205.0" stroke="#FF0000" fill="none" stroke-width="4px" />
<path d="M 840.0 205.0 L 830.0 205.0" stroke="#FF0000" fill="none" stroke-width="4px" />
<path d="M 830.0 205.0 L 820.0 205.0" stroke="#FF0000" fill="none" stroke-width="4px" />
<path d="M 820.0 205.0 L 830.0 215.0" stroke="#FF0000" fill="none" stroke-width="4px" />
<path d="M 830.0 215.0 L 840.0 215.0" stroke="#FF0000" fill="none" stroke-width="4px" />
<path d="M 840.0 165.0 L 830.0 165.0" stroke="#FF0000" fill="none" stroke-width="4px" />
<path d="M 830.0 165.0 L 820.0 165.0" stroke="#FF0000" fill="none" stroke-width="4px" />
<path d="M 820.0 165.0 L 810.0 165.0" stroke="#FF0000" fill="none" stroke-width="4px" />
<path d="M 810.0 165.0 L 800.0 165.0" stroke="#FF0000" fill="none" stroke-width="4px" />
<path d="M 800.0 165.0 L 810.0 155.0" stroke="#FF0000" fill="none" stroke-width="4px" />
<path d="M 810.0 155.0 L 820.0 155.0" stroke="#FF0000" fill="none" stroke-width="4px" />
<path d="M 820.0 155.0 L 830.0 155.0" stroke="#FF0000" fill="none" stroke-width="4px" />
<path d="M 1150.0 125.0 L 1160.0 125.0" stroke="#FF0000" fill="none" stroke-width="4px" />
<path d="M 1160.0 125.0 L 1170.0 125.0" stroke="#FF0000" fill="none" stroke-width="4px" />
<path d="M 1170.0 125.0 L 1180.0 125.0" stroke="#FF0000" fill="none" stroke-width="4px" />
<path d="M 1180.0 125.0 L 1190.0 125.0" stroke="#FF0000" fill="none" stroke-width="4px" />
<path d="M 1190.0 125.0 L 1200.0 125.0" stroke="#FF0000" fill="none" stroke-width="4px" />
<path d="M 1200.0 125.0 L 1210.0 125.0" stroke="#FF0000" fill="none" stroke-width="4px" />
<path d="M 1210.0 125.0 L 1220.0 125.0" stroke="#FF0000" fill="none" stroke-width="4px" />
<path d="M 1220.0 125.0 L 1220.0 135.0" stroke="#FF0000" fill="none" stroke-width="4px" />
<path d="M 1220.0 135.0 L 1210.0 135.0" stroke="#FF0000" fill="none" stroke-width="4px" />
<path d="M 1210.0 135.0 L 1200.0 135.0" stroke="#FF0000" fill="none" stroke-width="4px" />
<path d="M 1200.0 135.0 L 1190.0 135.0" stroke="#FF0000" fill="none" stroke-width="4px" />
<path d="M 1190.0 135.0 L 1180.0 135.0" stroke="#FF0000" fill="none" stroke-width="4px" />
<path d="M 1180.0 135.0 L 1170.0 135.0" stroke="#FF0000" fill="none" stroke-width="4px" />
<path d="M 1170.0 135.0 L 1160.0 135.0" stroke="#FF0000" fill="none" stroke-width="4px" />
<path d="M 1160.0 135.0 L 1160.0 145.0" stroke="#FF0000" fill="none" stroke-width="4px" />
<path d="M 1160.0 145.0 L 1170.0 145.0" stroke="#FF0000" fill="none" stroke-width="4px" />
<path d="M 1170.0 145.0 L 1180.0 145.0" stroke="#FF0000" fill="none" stroke-width="4px" />
<path d="M 1180.0 145.0 L 1190.0 145.0" stroke="#FF0000" fill="none" stroke-width="4px" />
<path d="M 1190.0 145.0 L 1200.0 145.0" stroke="#FF0000" fill="none" stroke-width="4px" />
<path d="M 1200.0 145.0 L 1210.0 145.0" stroke="#FF0000" fill="none" stroke-width="4px" />
<path d="M 1210.0 145.0 L 1220.0 145.0" stroke="#FF0000" fill="none" stroke-width="4px" />
<path d="M 1220.0 145.0 L 1230.0 145.0" stroke="#FF0000" fill="none" stroke-width="4px" />
<path d="M 1230.0 145.0 L 1230.0 155.0" stroke="#FF0000" fill="none" stroke-width="4px" />
<path d="M 1230.0 155.0 L 1220.0 155.0" stroke="#FF0000" fill="none" stroke-width="4px" />
<path d="M 1220.0 155.0 L 1210.0 155.0" stroke="#FF0000" fill="none" stroke-width="4px" />
<path d="M 1210.0 155.0 L 1200.0 155.0" stroke="#FF0000" fill="none" stroke-width="4px" />
<path d="M 1200.0 155.0 L 1190.0 155.0" stroke="#FF0000" fill="none" stroke-width="4px" />
<path d="M 1190.0 155.0 L 1180.0 155.0" stroke="#FF0000" fill="none" stroke-width="4px" />
<path d="M 1180.0 155.0 L 1170.0 155.0" stroke="#FF0000" fill="none" stroke-width="4px" />
<path d="M 1170.0 155.0 L 1180.0 165.0" stroke="#FF0000" fill="none" stroke-width="4px" />
<path d="M 1180.0 165.0 L 1190.0 165.0" stroke="#FF0000" fill="none" stroke-width="4px" />
<path d="M 1190.0 165.0 L 1200.0 165.0" stroke="#FF0000" fill="none" stroke-width="4px" />
<path d="M 1200.0 165.0 L 1210.0 165.0" stroke="#FF0000" fill="none" stroke-width="4px" />
<path d="M 1210.0 165.0 L 1220.0 165.0" stroke="#FF0000" fill="none" stroke-width="4px" />
<path d="M 1220.0 165.0 L 1220.0 175.0" stroke="#FF0000" fill="none" stroke-width="4px" />
<path d="M 1220.0 175.0 L 1210.0 175.0" stroke="#FF0000" fill="none" stroke-width="4px" />
<path d="M 1210.0 175.0 L 1200.0 175.0" stroke="#FF0000" fill="none" stroke-width="4px" />
<path d="M 1200.0 175.0 L 1190.0 175.0" stroke="#FF0000" fill="none" stroke-width="4px" />
<path d="M 1190.0 175.0 L 1200.0 185.0" stroke="#FF0000" fill="none" stroke-width="4px" />
<path d="M 1200.0 185.0 L 1210.0 185.0" stroke="#FF0000" fill="none" stroke-width="4px" />
<path d="M 1210.0 115.0 L 1200.0 115.0" stroke="#FF0000" fill="none" stroke-width="4px" />
<path d="M 1200.0 115.0 L 1190.0 115.0" stroke="#FF0000" fill="none" stroke-width="4px" />
<path d="M 1190.0 115.0 L 1180.0 115.0" stroke="#FF0000" fill="none" stroke-width="4px" />
<path d="M 1180.0 115.0 L 1170.0 115.0" stroke="#FF0000" fill="none" stroke-width="4px" />
<path d="M 1170.0 115.0 L 1160.0 115.0" stroke="#FF0000" fill="none" stroke-width="4px" />
<path d="M 1160.0 115.0 L 1150.0 115.0" stroke="#FF0000" fill="none" stroke-width="4px" />
<path d="M 1150.0 115.0 L 1160.0 105.0" stroke="#FF0000" fill="none" stroke-width="4px" />
<path d="M 1160.0 105.0 L 1170.0 105.0" stroke="#FF0000" fill="none" stroke-width="4px" />
<path d="M 1170.0 105.0 L 1180.0 105.0" stroke="#FF0000" fill="none" stroke-width="4px" />
<path d="M 1180.0 105.0 L 1190.0 105.0" stroke="#FF0000" fill="none" stroke-width="4px" />
<path d="M 1190.0 105.0 L 1200.0 105.0" stroke="#FF0000" fill="none" stroke-width="4px" />
<path d="M 1180.0 95.0 L 1170.0 95.0" stroke="#FF0000" fill="none" stroke-width="4px" />
<path d="M 1480.0 165.0 L 1490.0 165.0" stroke="#FF0000" fill="none" stroke-width="4px" />
<path d="M 1490.0 165.0 L 1500.0 165.0" stroke="#FF0000" fill="none" stroke-width="4px" />
<path d="M 1500.0 165.0 L 1510.0 165.0" stroke="#FF0000" fill="none" stroke-width="4px" />
<path d="M 1510.0 165.0 L 1520.0 165.0" stroke="#FF0000" fill="none" stroke-width="4px" />
<path d="M 1520.0 165.0 L 1520.0 175.0" stroke="#FF0000" fill="none" stroke-width="4px" />
<path d="M 1520.0 175.0 L 1510.0 175.0" stroke="#FF0000" fill="none" stroke-width="4px" />
<path d="M 1510.0 175.0 L 1500.0 175.0" stroke="#FF0000" fill="none" stroke-width="4px" />
<path d="M 1500.0 175.0 L 1490.0 175.0" stroke="#FF0000" fill="none" stroke-width="4px" />
<path d="M 1490.0 175.0 L 1480.0 175.0" stroke="#FF0000" fill="none" stroke-width="4px" />
<path d="M 1480.0 175.0 L 1480.0 185.0" stroke="#FF0000" fill="none" stroke-width="4px" />
<path d="M 1480.0 185.0 L 1490.0 185.0" stroke="#FF0000" fill="none" stroke-width="4px" />
<path d="M 1490.0 185.0 L 1500.0 185.0" stroke="#FF0000" fill="none" stroke-width="4px" />
<path d="M 1500.0 185.0 L 1510.0 185.0" stroke="#FF0000" fill="none" stroke-width="4px" />
<path d="M 1510.0 185.0 L 1500.0 195.0" stroke="#FF0000" fill="none" stroke-width="4px" />
<path d="M 1500.0 195.0 L 1490.0 195.0" stroke="#FF0000" fill="none" stroke-width="4px" />
<path d="M 1490.0 155.0 L 1500.0 155.0" stroke="#FF0000" fill="none" stroke-width="4px" />
<path d="M 1500.0 155.0 L 1510.0 155.0" stroke="#FF0000" fill="none" stroke-width="4px" />
<path d="M 1510.0 155.0 L 1500.0 145.0" stroke="#FF0000" fill="none" stroke-width="4px" />
<path d="M 1760.0 135.0 L 1770.0 135.0" stroke="#FF0000" fill="none" stroke-width="4px" />
<path d="M 1770.0 135.0 L 1780.0 135.0" stroke="#FF0000" fill="none" stroke-width="4px" />
<path d="M 1780.0 135.0 L 1790.0 135.0" stroke="#FF0000" fill="none" stroke-width="4px" />
<path d="M 1790.0 135.0 L 1800.0 135.0" stroke="#FF0000" fill="none" stroke-width="4px" />
<path d="M 1800.0 135.0 L 1810.0 135.0" stroke="#FF0000" fill="none" stroke-width="4px" />
<path d="M 1810.0 135.0 L 1820.0 135.0" stroke="#FF0000" fill="none" stroke-width="4px" />
<path d="M 1820.0 135.0 L 1830.0 135.0" stroke="#FF0000" fill="none" stroke-width="4px" />
<path d="M 1830.0 135.0 L 1830.0 145.0" stroke="#FF0000" fill="none" stroke-width="4px" />
<path d="M 1830.0 145.0 L 1820.0 145.0" stroke="#FF0000" fill="none" stroke-width="4px" />
<path d="M 1820.0 145.0 L 1810.0 145.0" stroke="#FF0000" fill="none" stroke-width="4px" />
<path d="M 1810.0 145.0 L 1800.0 145.0" stroke="#FF0000" fill="none" stroke-width="4px" />
<path d="M 1800.0 145.0 L 1790.0 145.0" stroke="#FF0000" fill="none" stroke-width="4px" />
<path d="M 1790.0 145.0 L 1780.0 145.0" stroke="#FF0000" fill="none" stroke-width="4px" />
<path d="M 1780.0 145.0 L 1770.0 145.0" stroke="#FF0000" fill="none" stroke-width="4px" />
<path d="M 1770.0 145.0 L 1780.0 155.0" stroke="#FF0000" fill="none" stroke-width="4px" />
<path d="M 1780.0 155.0 L 1790.0 155.0" stroke="#FF0000" fill="none" stroke-width="4px" />
<path d="M 1790.0 155.0 L 1800.0 155.0" stroke="#FF0000" fill="none" stroke-width="4px" />
<path d="M 1800.0 155.0 L 1810.0 155.0" stroke="#FF0000" fill="none" stroke-width="4px" />
<path d="M 1810.0 155.0 L 1820.0 155.0" stroke="#FF0000" fill="none" stroke-width="4px" />
<path d="M 1820.0 155.0 L 1830.0 155.0" stroke="#FF0000" fill="none" stroke-width="4px" />
<path d="M 1830.0 155.0 L 1820.0 165.0" stroke="#FF0000" fill="none" stroke-width="4px" />
<path d="M 1820.0 165.0 L 1810.0 165.0" stroke="#FF0000" fill="none" stroke-width="4px" />
<path d="M 1810.0 165.0 L 1800.0 165.0" stroke="#FF0000" fill="none" stroke-width="4px" />
<path d="M 1800.0 165.0 L 1790.0 165.0" stroke="#FF0000" fill="none" stroke-width="4px" />
<path d="M 1810.0 125.0 L 1800.0 125.0" stroke="#FF0000" fill="none" stroke-width="4px" />
<path d="M 1800.0 125.0 L 1790.0 125.0" stroke="#FF0000" fill="none" stroke-width="4px" />
<path d="M 1790.0 125.0 L 1780.0 125.0" stroke="#FF0000" fill="none" stroke-width="4px" />
<path d="M 1780.0 125.0 L 1770.0 125.0" stroke="#FF0000" fill="none" stroke-width="4px" />
<path d="M 1770.0 125.0 L 1760.0 125.0" stroke="#FF0000" fill="none" stroke-width="4px" />
<path d="M 1760.0 125.0 L 1760.0 115.0" stroke="#FF0000" fill="none" stroke-width="4px" />
<path d="M 1760.0 115.0 L 1770.0 115.0" stroke="#FF0000" fill="none" stroke-width="4px" />
<path d="M 1770.0 115.0 L 1780.0 115.0" stroke="#FF0000" fill="none" stroke-width="4px" />
<path d="M 1780.0 115.0 L 1790.0 115.0" stroke="#FF0000" fill="none" stroke-width="4px" />
<path d="M 1790.0 115.0 L 1800.0 115.0" stroke="#FF0000" fill="none" stroke-width="4px" />
<path d="M 1800.0 115.0 L 1810.0 115.0" stroke="#FF0000" fill="none" stroke-width="4px" />
<path d="M 1810.0 115.0 L 1820.0 115.0" stroke="#FF0000" fill="none" stroke-width="4px" />
<path d="M 1820.0 115.0 L 1820.0 125.0" stroke="#FF0000" fill="none" stroke-width="4px" />
<path d="M 1820.0 125.0 L 1830.0 125.0" stroke="#FF0000" fill="none" stroke-width="4px" />
<path d="M 1810.0 105.0 L 1800.0 105.0" stroke="#FF0000" fill="none" stroke-width="4px" />
<path d="M 1800.0 105.0 L 1790.0 105.0" stroke="#FF0000" fill="none" stroke-width="4px" />
<path d="M 1790.0 105.0 L 1780.0 105.0" stroke="#FF0000" fill="none" stroke-width="4px" />
<path d="M 1780.0 105.0 L 1770.0 105.0" stroke="#FF0000" fill="none" stroke-width="4px" />
<path d="M 1770.0 105.0 L 1760.0 105.0" stroke="#FF0000" fill="none" stroke-width="4px" />
<path d="M 1760.0 105.0 L 1770.0 95.0" stroke="#FF0000" fill="none" stroke-width="4px" />
<path d="M 1770.0 95.0 L 1780.0 95.0" stroke="#FF0000" fill="none" stroke-width="4px" />
<path d="M 1780.0 95.0 L 1790.0 95.0" stroke="#FF0000" fill="none" stroke-width="4px" />
<path d="M 1790.0 95.0 L 1800.0 95.0" stroke="#FF0000" fill="none" stroke-width="4px" />
<path d="M 1800.0 95.0 L 1790.0 85.0" stroke="#FF0000" fill="none" stroke-width="4px" />
<path d="M 1790.0 85.0 L 1780.0 85.0" stroke="#FF0000" fill="none" stroke-width="4px" />
</svg>