<svg width="1383.75833333" height="235.0" xmlns="http://www.w3.org/2000/svg" version="1.1">
<path d="M 0.0 235.0 L 1383.75833333 235.0 L 1383.75833333 0.0 L 0.0 0.0 L 0.0 235.0" stroke="#000000" fill="none" stroke-width="3px" />
<path d="M 10.0 257.5 L 0.0 247.5 L 10.0 237.5" stroke="#969696" fill="none" stroke-width="1px" />
<path d="M 10.0 237.5 L 1373.75833333 237.5" stroke="#969696" fill="none" stroke-width="1px" />
<path d="M 1373.75833333 237.5 L 1383.75833333 227.5 L 1373.75833333 217.5" stroke="#969696" fill="none" stroke-width="1px" />
<path d="M 1373.75833333 217.5 L 10.0 217.5" stroke="#969696" fill="none" stroke-width="1px" />
<path d="M 10.0 217.5 L 0.0 207.5 L 10.0 197.5" stroke="#969696" fill="none" stroke-width="1px" />
<path d="M 10.0 197.5 L 1373.75833333 197.5" stroke="#969696" fill="none" stroke-width="1px" />
<path d="M 1373.75833333 197.5 L 1383.75833333 187.5 L 1373.75833333 177.5" stroke="#969696" fill="none" stroke-width="1px" />
<path d="M 1373.75833333 177.5 L 10.0 177.5" stroke="#969696" fill="none" stroke-width="1px" />
<path d="M 10.0 177.5 L 0.0 167.5 L 10.0 157.5" stroke="#969696" fill="none" stroke-width="1px" />
<path d="M 10.0 157.5 L 1373.75833333 157.5" stroke="#969696" fill="none" stroke-width="1px" />
<path d="M 1373.75833333 157.5 L 1383.75833333 147.5 L 1373.75833333 137.5" stroke="#969696" fill="none" stroke-width="1px" />
<path d="M 1373.75833333 137.5 L 10.0 137.5" stroke="#969696" fill="none" stroke-width="1px" />
<path d="M 10.0 137.5 L 0.0 127.5 L 10.0 117.5" stroke="#969696" fill="none" stroke-width="1px" />
<path d="M 10.0 117.5 L 1373.75833333 117.5" stroke="#969696" fill="none" stroke-width="1px" />
<path d="M 1373.75833333 117.5 L 1383.75833333 107.5 L 1373.75833333 97.5" stroke="#969696" fill="none" stroke-width="1px" />
<path d="M 1373.75833333 97.5 L 10.0 97.5" stroke="#969696" fill="none" stroke-width="1px" />
<path d="M 10.0 97.5 L 0.0 87.5 L 10.0 77.5" stroke="#969696" fill="none" stroke-width="1px" />
<path d="M 10.0 77.5 L 1373.75833333 77.5" stroke="#969696" fill="none" stroke-width="1px" />
<path d="M 1373.75833333 77.5 L 1383.75833333 67.5 L 1373.75833333 57.5" stroke="#969696" fill="none" stroke-width="1px" />
<path d="M 1373.75833333 57.5 L 10.0 57.5" stroke="#969696" fill="none" stroke-width="1px" />
<path d="M 10.0 57.5 L 0.0 47.5 L 10.0 37.5" stroke="#969696" fill="none" stroke-width="1px" />
<path d="M 10.0 37.5 L 1373.75833333 37.5" stroke="#969696" fill="none" stroke-width="1px" />
<path d="M 1373.75833333 37.5 L 1383.75833333 27.5 L 1373.75833333 17.5" stroke="#969696" fill="none" stroke-width="1px" />
<path d="M 1373.75833333 17.5 L 10.0 17.5" stroke="#969696" fill="none" stroke-width="1px" />
<path d="M 10.0 17.5 L 0.0 7.5 L 10.0 -2.5" stroke="#969696" fill="none" stroke-width="1px" />
<path d="M 10.0 -2.5 L 1373.75833333 -2.5" stroke="#969696" fill="none" stroke-width="1px" />
<path d="M 1373.75833333 -2.5 L 1383.75833333 -12.5 L 1373.75833333 -22.5" stroke="#969696" fill="none" stroke-width="1px" />
<path d="M 0.0 235.0 L 90.0 235.0" stroke="#0095FF" fill="none" stroke-width="2px" />
<path d="M 90.0 235.0 L 90.0 185.0" stroke="#0095FF" fill="none" stroke-width="2px" />
<path d="M 110.0 205.0 L 110.0 175.0" stroke="#0095FF" fill="none" stroke-width="2px" />
<path d="M 120.0 175.0 L 160.0 175.0" stroke="#0095FF" fill="none" stroke-width="2px" />
<path d="M 160.0 175.0 L 160.0 185.0" stroke="#0095FF" fill="none" stroke-width="2px" />
<path d="M 180.0 215.0 L 180.0 175.0" stroke="#0095FF" fill="none" stroke-width="2px" />
<path d="M 210.0 175.0 L 270.0 175.0" stroke="#0095FF" fill="none" stroke-width="2px" />
<path d="M 280.0 205.0 L 280.0 165.0" stroke="#0095FF" fill="none" stroke-width="2px" />
<path d="M 300.0 165.0 L 350.0 165.0" stroke="#0095FF" fill="none" stroke-width="2px" />
<path d="M 350.0 165.0 L 350.0 175.0" stroke="#0095FF" fill="none" stroke-width="2px" />
<path d="M 380.0 225.0 L 420.0 225.0" stroke="#0095FF" fill="none" stroke-width="2px" />
<path d="M 420.0 225.0 L 420.0 185.0" stroke="#0095FF" fill="none" stroke-width="2px" />
<path d="M 420.0 185.0 L 400.0 185.0" stroke="#0095FF" fill="none" stroke-width="2px" />
<path d="M 400.0 185.0 L 400.0 165.0" stroke="#0095FF" fill="none" stroke-width="2px" />
<path d="M 390.0 155.0 L 520.0 155.0" stroke="#0095FF" fill="none" stroke-width="2px" />
<path d="M 540.0 185.0 L 540.0 145.0" stroke="#0095FF" fill="none" stroke-width="2px" />
<path d="M 550.0 145.0 L 550.0 125.0" stroke="#0095FF" fill="none" stroke-width="2px" />
<path d="M 530.0 125.0 L 550.0 125.0" stroke="#0095FF" fill="none" stroke-width="2px" />
<path d="M 550.0 125.0 L 550.0 115.0" stroke="#0095FF" fill="none" stroke-width="2px" />
<path d="M 560.0 125.0 L 580.0 125.0" stroke="#0095FF" fill="none" stroke-width="2px" />
<path d="M 580.0 125.0 L 580.0 145.0" stroke="#0095FF" fill="none" stroke-width="2px" />
<path d="M 580.0 145.0 L 630.0 145.0" stroke="#0095FF" fill="none" stroke-width="2px" />
<path d="M 670.0 195.0 L 710.0 195.0" stroke="#0095FF" fill="none" stroke-width="2px" />
<path d="M 710.0 195.0 L 710.0 205.0" stroke="#0095FF" fill="none" stroke-width="2px" />
<path d="M 710.0 205.0 L 720.0 205.0" stroke="#0095FF" fill="none" stroke-width="2px" />
<path d="M 720.0 205.0 L 720.0 175.0" stroke="#0095FF" fill="none" stroke-width="2px" />
<path d="M 720.0 175.0 L 690.0 175.0" stroke="#0095FF" fill="none" stroke-width="2px" />
<path d="M 690.0 175.0 L 690.0 135.0" stroke="#0095FF" fill="none" stroke-width="2px" />
<path d="M 650.0 115.0 L 640.0 115.0" stroke="#0095FF" fill="none" stroke-width="2px" />
<path d="M 640.0 115.0 L 640.0 75.0" stroke="#0095FF" fill="none" stroke-width="2px" />
<path d="M 630.0 65.0 L 630.0 25.0" stroke="#0095FF" fill="none" stroke-width="2px" />
<path d="M 650.0 25.0 L 630.0 25.0" stroke="#0095FF" fill="none" stroke-width="2px" />
<path d="M 630.0 25.0 L 630.0 5.0" stroke="#0095FF" fill="none" stroke-width="2px" />
<path d="M 630.0 -5.0 L 890.0 -5.0" stroke="#0095FF" fill="none" stroke-width="2px" />
<path d="M 890.0 -5.0 L 890.0 125.0" stroke="#0095FF" fill="none" stroke-width="2px" />
<path d="M 930.0 215.0 L 960.0 215.0" stroke="#0095FF" fill="none" stroke-width="2px" />
<path d="M 960.0 215.0 L 960.0 155.0" stroke="#0095FF" fill="none" stroke-width="2px" />
<path d="M 960.0 155.0 L 940.0 155.0" stroke="#0095FF" fill="none" stroke-width="2px" />
<path d="M 940.0 155.0 L 940.0 135.0" stroke="#0095FF" fill="none" stroke-width="2px" />
<path d="M 920.0 135.0 L 900.0 135.0" stroke="#0095FF" fill="none" stroke-width="2px" />
<path d="M 900.0 135.0 L 900.0 115.0" stroke="#0095FF" fill="none" stroke-width="2px" />
<path d="M 900.0 115.0 L 40.0 115.0" stroke="#0095FF" fill="none" stroke-width="2px" />
<path d="M 40.0 115.0 L 40.0 65.0" stroke="#0095FF" fill="none" stroke-width="2px" />
<path d="M 20.0 45.0 L 20.0 75.0" stroke="#0095FF" fill="none" stroke-width="2px" />
<path d="M 90.0 185.0 L 100.0 185.0" stroke="#FF0000" fill="none" stroke-width="4px" />
<path d="M 100.0 185.0 L 110.0 185.0" stroke="#FF0000" fill="none" stroke-width="4px" />
<path d="M 110.0 185.0 L 120.0 185.0" stroke="#FF0000" fill="none" stroke-width="4px" />
<path d="M 120.0 185.0 L 120.0 195.0" stroke="#FF0000" fill="none" stroke-width="4px" />
<path d="M 120.0 195.0 L 110.0 195.0" stroke="#FF0000" fill="none" stroke-width="4px" />
<path d="M 110.0 195.0 L 100.0 195.0" stroke="#FF0000" fill="none" stroke-width="4px" />
<path d="M 100.0 195.0 L 110.0 205.0" stroke="#FF0000" fill="none" stroke-width="4px" />
<path d="M 110.0 175.0 L 100.0 175.0" stroke="#FF0000" fill="none" stroke-width="4px" />
<path d="M 100.0 175.0 L 90.0 175.0" stroke="#FF0000" fill="none" stroke-width="4px" />
<path d="M 90.0 175.0 L 100.0 165.0" stroke="#FF0000" fill="none" stroke-width="4px" />
<path d="M 100.0 165.0 L 110.0 165.0" stroke="#FF0000" fill="none" stroke-width="4px" />
<path d="M 110.0 165.0 L 120.0 175.0" stroke="#FF0000" fill="none" stroke-width="4px" />
<path d="M 160.0 185.0 L 170.0 185.0" stroke="#FF0000" fill="none" stroke-width="4px" />
<path d="M 170.0 185.0 L 180.0 185.0" stroke="#FF0000" fill="none" stroke-width="4px" />
<path d="M 180.0 185.0 L 190.0 185.0" stroke="#FF0000" fill="none" stroke-width="4px" />
<path d="M 190.0 185.0 L 200.0 185.0" stroke="#FF0000" fill="none" stroke-width="4px" />
<path d="M 200.0 185.0 L 210.0 185.0" stroke="#FF0000" fill="none" stroke-width="4px" />
<path d="M 210.0 185.0 L 220.0 185.0" stroke="#FF0000" fill="none" stroke-width="4px" />
<path d="M 220.0 185.0 L 220.0 195.0" stroke="#FF0000" fill="none" stroke-width="4px" />
<path d="M 220.0 195.0 L 210.0 195.0" stroke="#FF0000" fill="none" stroke-width="4px" />
<path d="M 210.0 195.0 L 200.0 195.0" stroke="#FF0000" fill="none" stroke-width="4px" />
<path d="M 200.0 195.0 L 190.0 195.0" stroke="#FF0000" fill="none" stroke-width="4px" />
<path d="M 190.0 195.0 L 180.0 195.0" stroke="#FF0000" fill="none" stroke-width="4px" />
<path d="M 180.0 195.0 L 170.0 195.0" stroke="#FF0000" fill="none" stroke-width="4px" />
<path d="M 170.0 195.0 L 160.0 195.0" stroke="#FF0000" fill="none" stroke-width="4px" />
<path d="M 160.0 195.0 L 170.0 205.0" stroke="#FF0000" fill="none" stroke-width="4px" />
<path d="M 170.0 205.0 L 180.0 205.0" stroke="#FF0000" fill="none" stroke-width="4px" />
<path d="M 180.0 205.0 L 190.0 205.0" stroke="#FF0000" fill="none" stroke-width="4px" />
<path d="M 190.0 205.0 L 200.0 205.0" stroke="#FF0000" fill="none" stroke-width="4px" />
<path d="M 200.0 205.0 L 210.0 205.0" stroke="#FF0000" fill="none" stroke-width="4px" />
<path d="M 210.0 205.0 L 220.0 205.0" stroke="#FF0000" fill="none" stroke-width="4px" />
<path d="M 220.0 205.0 L 210.0 215.0" stroke="#FF0000" fill="none" stroke-width="4px" />
<path d="M 210.0 215.0 L 200.0 215.0" stroke="#FF0000" fill="none" stroke-width="4px" />
<path d="M 200.0 215.0 L 190.0 215.0" stroke="#FF0000" fill="none" stroke-width="4px" />
<path d="M 190.0 215.0 L 180.0 215.0" stroke="#FF0000" fill="none" stroke-width="4px" />
<path d="M 180.0 175.0 L 170.0 175.0" stroke="#FF0000" fill="none" stroke-width="4px" />
<path d="M 170.0 175.0 L 170.0 165.0" stroke="#FF0000" fill="none" stroke-width="4px" />
<path d="M 170.0 165.0 L 180.0 165.0" stroke="#FF0000" fill="none" stroke-width="4px" />
<path d="M 180.0 165.0 L 190.0 165.0" stroke="#FF0000" fill="none" stroke-width="4px" />
<path d="M 190.0 165.0 L 200.0 165.0" stroke="#FF0000" fill="none" stroke-width="4px" />
<path d="M 200.0 165.0 L 200.0 175.0" stroke="#FF0000" fill="none" stroke-width="4px" />
<path d="M 200.0 175.0 L 190.0 175.0" stroke="#FF0000" fill="none" stroke-width="4px" />
<path d="M 190.0 175.0 L 210.0 175.0" stroke="#FF0000" fill="none" stroke-width="4px" />
<path d="M 270.0 175.0 L 280.0 175.0" stroke="#FF0000" fill="none" stroke-width="4px" />
<path d="M 280.0 175.0 L 290.0 175.0" stroke="#FF0000" fill="none" stroke-width="4px" />
<path d="M 290.0 175.0 L 300.0 175.0" stroke="#FF0000" fill="none" stroke-width="4px" />
<path d="M 300.0 175.0 L 310.0 175.0" stroke="#FF0000" fill="none" stroke-width="4px" />
<path d="M 310.0 175.0 L 310.0 185.0" stroke="#FF0000" fill="none" stroke-width="4px" />
<path d="M 310.0 185.0 L 300.0 185.0" stroke="#FF0000" fill="none" stroke-width="4px" />
<path d="M 300.0 185.0 L 290.0 185.0" stroke="#FF0000" fill="none" stroke-width="4px" />
<path d="M 290.0 185.0 L 280.0 185.0" stroke="#FF0000" fill="none" stroke-width="4px" />
<path d="M 280.0 185.0 L 270.0 185.0" stroke="#FF0000" fill="none" stroke-width="4px" />
<path d="M 270.0 185.0 L 270.0 195.0" stroke="#FF0000" fill="none" stroke-width="4px" />
<path d="M 270.0 195.0 L 280.0 195.0" stroke="#FF0000" fill="none" stroke-width="4px" />
<path d="M 280.0 195.0 L 290.0 195.0" stroke="#FF0000" fill="none" stroke-width="4px" />
<path d="M 290.0 195.0 L 300.0 195.0" stroke="#FF0000" fill="none" stroke-width="4px" />
<path d="M 300.0 195.0 L 310.0 195.0" stroke="#FF0000" fill="none" stroke-width="4px" />
<path d="M 310.0 195.0 L 300.0 205.0" stroke="#FF0000" fill="none" stroke-width="4px" />
<path d="M 300.0 205.0 L 290.0 205.0" stroke="#FF0000" fill="none" stroke-width="4px" />
<path d="M 290.0 205.0 L 280.0 205.0" stroke="#FF0000" fill="none" stroke-width="4px" />
<path d="M 280.0 165.0 L 290.0 165.0" stroke="#FF0000" fill="none" stroke-width="4px" />
<path d="M 290.0 165.0 L 300.0 165.0" stroke="#FF0000" fill="none" stroke-width="4px" />
<path d="M 350.0 175.0 L 360.0 175.0" stroke="#FF0000" fill="none" stroke-width="4px" />
<path d="M 360.0 175.0 L 370.0 175.0" stroke="#FF0000" fill="none" stroke-width="4px" />
<path d="M 370.0 175.0 L 380.0 175.0" stroke="#FF0000" fill="none" stroke-width="4px" />
<path d="M 380.0 175.0 L 390.0 175.0" stroke="#FF0000" fill="none" stroke-width="4px" />
<path d="M 390.0 175.0 L 400.0 175.0" stroke="#FF0000" fill="none" stroke-width="4px" />
<path d="M 400.0 175.0 L 410.0 175.0" stroke="#FF0000" fill="none" stroke-width="4px" />
<path d="M 410.0 175.0 L 410.0 185.0" stroke="#FF0000" fill="none" stroke-width="4px" />
<path d="M 410.0 185.0 L 400.0 185.0" stroke="#FF0000" fill="none" stroke-width="4px" />
<path d="M 400.0 185.0 L 390.0 185.0" stroke="#FF0000" fill="none" stroke-width="4px" />
<path d="M 390.0 185.0 L 380.0 185.0" stroke="#FF0000" fill="none" stroke-width="4px" />
<path d="M 380.0 185.0 L 370.0 185.0" stroke="#FF0000" fill="none" stroke-width="4px" />
<path d="M 370.0 185.0 L 360.0 185.0" stroke="#FF0000" fill="none" stroke-width="4px" />
<path d="M 360.0 185.0 L 360.0 195.0" stroke="#FF0000" fill="none" stroke-width="4px" />
<path d="M 360.0 195.0 L 370.0 195.0" stroke="#FF0000" fill="none" stroke-width="4px" />
<path d="M 370.0 195.0 L 380.0 195.0" stroke="#FF0000" fill="none" stroke-width="4px" />
<path d="M 380.0 195.0 L 390.0 195.0" stroke="#FF0000" fill="none" stroke-width="4px" />
<path d="M 390.0 195.0 L 400.0 195.0" stroke="#FF0000" fill="none" stroke-width="4px" />
<path d="M 400.0 195.0 L 410.0 195.0" stroke="#FF0000" fill="none" stroke-width="4px" />
<path d="M 410.0 195.0 L 420.0 195.0" stroke="#FF0000" fill="none" stroke-width="4px" />
<path d="M 420.0 195.0 L 420.0 205.0" stroke="#FF0000" fill="none" stroke-width="4px" />
<path d="M 420.0 205.0 L 410.0 205.0" stroke="#FF0000" fill="none" stroke-width="4px" />
<path d="M 410.0 205.0 L 400.0 205.0" stroke="#FF0000" fill="none" stroke-width="4px" />
<path d="M 400.0 205.0 L 390.0 205.0" stroke="#FF0000" fill="none" stroke-width="4px" />
<path d="M 390.0 205.0 L 380.0 205.0" stroke="#FF0000" fill="none" stroke-width="4px" />
<path d="M 380.0 205.0 L 370.0 205.0" stroke="#FF0000" fill="none" stroke-width="4px" />
<path d="M 370.0 205.0 L 370.0 215.0" stroke="#FF0000" fill="none" stroke-width="4px" />
<path d="M 370.0 215.0 L 380.0 215.0" stroke="#FF0000" fill="none" stroke-width="4px" />
<path d="M 380.0 215.0 L 390.0 215.0" stroke="#FF0000" fill="none" stroke-width="4px" />
<path d="M 390.0 215.0 L 400.0 215.0" stroke="#FF0000" fill="none" stroke-width="4px" />
<path d="M 400.0 215.0 L 410.0 215.0" stroke="#FF0000" fill="none" stroke-width="4px" />
<path d="M 410.0 215.0 L 400.0 225.0" stroke="#FF0000" fill="none" stroke-width="4px" />
<path d="M 400.0 225.0 L 390.0 225.0" stroke="#FF0000" fill="none" stroke-width="4px" />
<path d="M 390.0 225.0 L 380.0 225.0" stroke="#FF0000" fill="none" stroke-width="4px" />
<path d="M 400.0 165.0 L 390.0 165.0" stroke="#FF0000" fill="none" stroke-width="4px" />
<path d="M 390.0 165.0 L 380.0 165.0" stroke="#FF0000" fill="none" stroke-width="4px" />
<path d="M 380.0 165.0 L 370.0 165.0" stroke="#FF0000" fill="none" stroke-width="4px" />
<path d="M 370.0 165.0 L 360.0 165.0" stroke="#FF0000" fill="none" stroke-width="4px" />
<path d="M 360.0 165.0 L 370.0 155.0" stroke="#FF0000" fill="none" stroke-width="4px" />
<path d="M 370.0 155.0 L 380.0 155.0" stroke="#FF0000" fill="none" stroke-width="4px" />
<path d="M 380.0 155.0 L 390.0 155.0" stroke="#FF0000" fill="none" stroke-width="4px" />
<path d="M 520.0 155.0 L 530.0 155.0" stroke="#FF0000" fill="none" stroke-width="4px" />
<path d="M 530.0 155.0 L 540.0 155.0" stroke="#FF0000" fill="none" stroke-width="4px" />
<path d="M 540.0 155.0 L 550.0 155.0" stroke="#FF0000" fill="none" stroke-width="4px" />
<path d="M 550.0 155.0 L 560.0 155.0" stroke="#FF0000" fill="none" stroke-width="4px" />
<path d="M 560.0 155.0 L 570.0 155.0" stroke="#FF0000" fill="none" stroke-width="4px" />
<path d="M 570.0 155.0 L 580.0 155.0" stroke="#FF0000" fill="none" stroke-width="4px" />
<path d="M 580.0 155.0 L 590.0 155.0" stroke="#FF0000" fill="none" stroke-width="4px" />
<path d="M 590.0 155.0 L 580.0 165.0" stroke="#FF0000" fill="none" stroke-width="4px" />
<path d="M 580.0 165.0 L 570.0 165.0" stroke="#FF0000" fill="none" stroke-width="4px" />
<path d="M 570.0 165.0 L 560.0 165.0" stroke="#FF0000" fill="none" stroke-width="4px" />
<path d="M 560.0 165.0 L 550.0 165.0" stroke="#FF0000" fill="none" stroke-width="4px" />
<path d="M 550.0 165.0 L 540.0 165.0" stroke="#FF0000" fill="none" stroke-width="4px" />
<path d="M 540.0 165.0 L 530.0 165.0" stroke="#FF0000" fill="none" stroke-width="4px" />
<path d="M 530.0 165.0 L 520.0 165.0" stroke="#FF0000" fill="none" stroke-width="4px" />
<path d="M 520.0 165.0 L 530.0 175.0" stroke="#FF0000" fill="none" stroke-width="4px" />
<path d="M 530.0 175.0 L 540.0 175.0" stroke="#FF0000" fill="none" stroke-width="4px" />
<path d="M 540.0 175.0 L 550.0 175.0" stroke="#FF0000" fill="none" stroke-width="4px" />
<path d="M 550.0 175.0 L 560.0 175.0" stroke="#FF0000" fill="none" stroke-width="4px" />
<path d="M 560.0 175.0 L 570.0 175.0" stroke="#FF0000" fill="none" stroke-width="4px" />
<path d="M 570.0 175.0 L 560.0 185.0" stroke="#FF0000" fill="none" stroke-width="4px" />
<path d="M 560.0 185.0 L 550.0 185.0" stroke="#FF0000" fill="none" stroke-width="4px" />
<path d="M 550.0 185.0 L 540.0 185.0" stroke="#FF0000" fill="none" stroke-width="4px" />
<path d="M 540.0 145.0 L 530.0 145.0" stroke="#FF0000" fill="none" stroke-width="4px" />
<path d="M 530.0 145.0 L 520.0 145.0" stroke="#FF0000" fill="none" stroke-width="4px" />
<path d="M 520.0 145.0 L 520.0 135.0" stroke="#FF0000" fill="none" stroke-width="4px" />
<path d="M 520.0 135.0 L 530.0 135.0" stroke="#FF0000" fill="none" stroke-width="4px" />
<path d="M 530.0 135.0 L 540.0 135.0" stroke="#FF0000" fill="none" stroke-width="4px" />
<path d="M 540.0 135.0 L 550.0 135.0" stroke="#FF0000" fill="none" stroke-width="4px" />
<path d="M 550.0 135.0 L 560.0 135.0" stroke="#FF0000" fill="none" stroke-width="4px" />
<path d="M 560.0 135.0 L 570.0 135.0" stroke="#FF0000" fill="none" stroke-width="4px" />
<path d="M 570.0 135.0 L 570.0 145.0" stroke="#FF0000" fill="none" stroke-width="4px" />
<path d="M 570.0 145.0 L 560.0 145.0" stroke="#FF0000" fill="none" stroke-width="4px" />
<path d="M 560.0 145.0 L 550.0 145.0" stroke="#FF0000" fill="none" stroke-width="4px" />
<path d="M 550.0 125.0 L 540.0 125.0" stroke="#FF0000" fill="none" stroke-width="4px" />
<path d="M 540.0 125.0 L 530.0 125.0" stroke="#FF0000" fill="none" stroke-width="4px" />
<path d="M 550.0 115.0 L 560.0 125.0" stroke="#FF0000" fill="none" stroke-width="4px" />
<path d="M 630.0 145.0 L 640.0 145.0" stroke="#FF0000" fill="none" stroke-width="4px" />
<path d="M 640.0 145.0 L 650.0 145.0" stroke="#FF0000" fill="none" stroke-width="4px" />
<path d="M 650.0 145.0 L 660.0 145.0" stroke="#FF0000" fill="none" stroke-width="4px" />
<path d="M 660.0 145.0 L 670.0 145.0" stroke="#FF0000" fill="none" stroke-width="4px" />
<path d="M 670.0 145.0 L 680.0 145.0" stroke="#FF0000" fill="none" stroke-width="4px" />
<path d="M 680.0 145.0 L 690.0 145.0" stroke="#FF0000" fill="none" stroke-width="4px" />
<path d="M 690.0 145.0 L 700.0 145.0" stroke="#FF0000" fill="none" stroke-width="4px" />
<path d="M 700.0 145.0 L 700.0 155.0" stroke="#FF0000" fill="none" stroke-width="4px" />
<path d="M 700.0 155.0 L 690.0 155.0" stroke="#FF0000" fill="none" stroke-width="4px" />
<path d="M 690.0 155.0 L 680.0 155.0" stroke="#FF0000" fill="none" stroke-width="4px" />
<path d="M 680.0 155.0 L 670.0 155.0" stroke="#FF0000" fill="none" stroke-width="4px" />
<path d="M 670.0 155.0 L 660.0 155.0" stroke="#FF0000" fill="none" stroke-width="4px" />
<path d="M 660.0 155.0 L 650.0 155.0" stroke="#FF0000" fill="none" stroke-width="4px" />
<path d="M 650.0 155.0 L 640.0 155.0" stroke="#FF0000" fill="none" stroke-width="4px" />
<path d="M 640.0 155.0 L 630.0 155.0" stroke="#FF0000" fill="none" stroke-width="4px" />
<path d="M 630.0 155.0 L 630.0 165.0" stroke="#FF0000" fill="none" stroke-width="4px" />
<path d="M 630.0 165.0 L 640.0 165.0" stroke="#FF0000" fill="none" stroke-width="4px" />
<path d="M 640.0 165.0 L 650.0 165.0" stroke="#FF0000" fill="none" stroke-width="4px" />
<path d="M 650.0 165.0 L 660.0 165.0" stroke="#FF0000" fill="none" stroke-width="4px" />
<path d="M 660.0 165.0 L 670.0 165.0" stroke="#FF0000" fill="none" stroke-width="4px" />
<path d="M 670.0 165.0 L 680.0 165.0" stroke="#FF0000" fill="none" stroke-width="4px" />
<path d="M 680.0 165.0 L 690.0 165.0" stroke="#FF0000" fill="none" stroke-width="4px" />
<path d="M 690.0 165.0 L 700.0 165.0" stroke="#FF0000" fill="none" stroke-width="4px" />
<path d="M 700.0 165.0 L 710.0 165.0" stroke="#FF0000" fill="none" stroke-width="4px" />
<path d="M 710.0 165.0 L 710.0 175.0" stroke="#FF0000" fill="none" stroke-width="4px" />
<path d="M 710.0 175.0 L 700.0 175.0" stroke="#FF0000" fill="none" stroke-width="4px" />
<path d="M 700.0 175.0 L 690.0 175.0" stroke="#FF0000" fill="none" stroke-width="4px" />
<path d="M 690.0 175.0 L 680.0 175.0" stroke="#FF0000" fill="none" stroke-width="4px" />
<path d="M 680.0 175.0 L 670.0 175.0" stroke="#FF0000" fill="none" stroke-width="4px" />
<path d="M 670.0 175.0 L 660.0 175.0" stroke="#FF0000" fill="none" stroke-width="4px" />
<path d="M 660.0 175.0 L 650.0 175.0" stroke="#FF0000" fill="none" stroke-width="4px" />
<path d="M 650.0 175.0 L 640.0 175.0" stroke="#FF0000" fill="none" stroke-width="4px" />
<path d="M 640.0 175.0 L 650.0 185.0" stroke="#FF0000" fill="none" stroke-width="4px" />
<path d="M 650.0 185.0 L 660.0 185.0" stroke="#FF0000" fill="none" stroke-width="4px" />
<path d="M 660.0 185.0 L 670.0 185.0" stroke="#FF0000" fill="none" stroke-width="4px" />
<path d="M 670.0 185.0 L 680.0 185.0" stroke="#FF0000" fill="none" stroke-width="4px" />
<path d="M 680.0 185.0 L 690.0 185.0" stroke="#FF0000" fill="none" stroke-width="4px" />
<path d="M 690.0 185.0 L 700.0 185.0" stroke="#FF0000" fill="none" stroke-width="4px" />
<path d="M 700.0 185.0 L 710.0 185.0" stroke="#FF0000" fill="none" stroke-width="4px" />
<path d="M 710.0 185.0 L 720.0 185.0" stroke="#FF0000" fill="none" stroke-width="4px" />
<path d="M 720.0 185.0 L 730.0 185.0" stroke="#FF0000" fill="none" stroke-width="4px" />
<path d="M 730.0 185.0 L 720.0 195.0" stroke="#FF0000" fill="none" stroke-width="4px" />
<path d="M 720.0 195.0 L 710.0 195.0" stroke="#FF0000" fill="none" stroke-width="4px" />
<path d="M 710.0 195.0 L 700.0 195.0" stroke="#FF0000" fill="none" stroke-width="4px" />
<path d="M 700.0 195.0 L 690.0 195.0" stroke="#FF0000" fill="none" stroke-width="4px" />
<path d="M 690.0 195.0 L 680.0 195.0" stroke="#FF0000" fill="none" stroke-width="4px" />
<path d="M 680.0 195.0 L 670.0 195.0" stroke="#FF0000" fill="none" stroke-width="4px" />
<path d="M 690.0 135.0 L 680.0 135.0" stroke="#FF0000" fill="none" stroke-width="4px" />
<path d="M 680.0 135.0 L 670.0 135.0" stroke="#FF0000" fill="none" stroke-width="4px" />
<path d="M 670.0 135.0 L 660.0 135.0" stroke="#FF0000" fill="none" stroke-width="4px" />
<path d="M 660.0 135.0 L 650.0 135.0" stroke="#FF0000" fill="none" stroke-width="4px" />
<path d="M 650.0 135.0 L 640.0 135.0" stroke="#FF0000" fill="none" stroke-width="4px" />
<path d="M 640.0 135.0 L 630.0 135.0" stroke="#FF0000" fill="none" stroke-width="4px" />
<path d="M 630.0 135.0 L 640.0 125.0" stroke="#FF0000" fill="none" stroke-width="4px" />
<path d="M 640.0 125.0 L 650.0 125.0" stroke="#FF0000" fill="none" stroke-width="4px" />
<path d="M 650.0 125.0 L 660.0 125.0" stroke="#FF0000" fill="none" stroke-width="4px" />
<path d="M 660.0 125.0 L 670.0 125.0" stroke="#FF0000" fill="none" stroke-width="4px" />
<path d="M 670.0 125.0 L 660.0 115.0" stroke="#FF0000" fill="none" stroke-width="4px" />
<path d="M 660.0 115.0 L 650.0 115.0" stroke="#FF0000" fill="none" stroke-width="4px" />
<path d="M 640.0 75.0 L 630.0 75.0" stroke="#FF0000" fill="none" stroke-width="4px" />
<path d="M 630.0 75.0 L 620.0 75.0" stroke="#FF0000" fill="none" stroke-width="4px" />
<path d="M 620.0 75.0 L 620.0 65.0" stroke="#FF0000" fill="none" stroke-width="4px" />
<path d="M 620.0 65.0 L 610.0 65.0" stroke="#FF0000" fill="none" stroke-width="4px" />
<path d="M 610.0 65.0 L 610.0 55.0" stroke="#FF0000" fill="none" stroke-width="4px" />
<path d="M 610.0 55.0 L 600.0 55.0" stroke="#FF0000" fill="none" stroke-width="4px" />
<path d="M 600.0 55.0 L 600.0 45.0" stroke="#FF0000" fill="none" stroke-width="4px" />
<path d="M 600.0 45.0 L 590.0 45.0" stroke="#FF0000" fill="none" stroke-width="4px" />
<path d="M 590.0 45.0 L 590.0 35.0" stroke="#FF0000" fill="none" stroke-width="4px" />
<path d="M 590.0 35.0 L 600.0 35.0" stroke="#FF0000" fill="none" stroke-width="4px" />
<path d="M 600.0 35.0 L 610.0 35.0" stroke="#FF0000" fill="none" stroke-width="4px" />
<path d="M 610.0 35.0 L 620.0 35.0" stroke="#FF0000" fill="none" stroke-width="4px" />
<path d="M 620.0 35.0 L 630.0 35.0" stroke="#FF0000" fill="none" stroke-width="4px" />
<path d="M 630.0 35.0 L 640.0 35.0" stroke="#FF0000" fill="none" stroke-width="4px" />
<path d="M 640.0 35.0 L 650.0 35.0" stroke="#FF0000" fill="none" stroke-width="4px" />
<path d="M 650.0 35.0 L 660.0 35.0" stroke="#FF0000" fill="none" stroke-width="4px" />
<path d="M 660.0 35.0 L 660.0 45.0" stroke="#FF0000" fill="none" stroke-width="4px" />
<path d="M 660.0 45.0 L 650.0 45.0" stroke="#FF0000" fill="none" stroke-width="4px" />
<path d="M 650.0 45.0 L 640.0 45.0" stroke="#FF0000" fill="none" stroke-width="4px" />
<path d="M 640.0 45.0 L 630.0 45.0" stroke="#FF0000" fill="none" stroke-width="4px" />
<path d="M 630.0 45.0 L 620.0 45.0" stroke="#FF0000" fill="none" stroke-width="4px" />
<path d="M 620.0 45.0 L 610.0 45.0" stroke="#FF0000" fill="none" stroke-width="4px" />
<path d="M 610.0 45.0 L 620.0 55.0" stroke="#FF0000" fill="none" stroke-width="4px" />
<path d="M 620.0 55.0 L 630.0 55.0" stroke="#FF0000" fill="none" stroke-width="4px" />
<path d="M 630.0 55.0 L 640.0 55.0" stroke="#FF0000" fill="none" stroke-width="4px" />
<path d="M 640.0 55.0 L 650.0 55.0" stroke="#FF0000" fill="none" stroke-width="4px" />
<path d="M 650.0 55.0 L 660.0 55.0" stroke="#FF0000" fill="none" stroke-width="4px" />
<path d="M 660.0 55.0 L 650.0 65.0" stroke="#FF0000" fill="none" stroke-width="4px" />
<path d="M 650.0 65.0 L 640.0 65.0" stroke="#FF0000" fill="none" stroke-width="4px" />
<path d="M 640.0 65.0 L 630.0 65.0" stroke="#FF0000" fill="none" stroke-width="4px" />
<path d="M 630.0 25.0 L 620.0 25.0" stroke="#FF0000" fill="none" stroke-width="4px" />
<path d="M 620.0 25.0 L 610.0 25.0" stroke="#FF0000" fill="none" stroke-width="4px" />
<path d="M 610.0 25.0 L 600.0 25.0" stroke="#FF0000" fill="none" stroke-width="4px" />
<path d="M 600.0 25.0 L 590.0 25.0" stroke="#FF0000" fill="none" stroke-width="4px" />
<path d="M 590.0 25.0 L 590.0 15.0" stroke="#FF0000" fill="none" stroke-width="4px" />
<path d="M 590.0 15.0 L 600.0 15.0" stroke="#FF0000" fill="none" stroke-width="4px" />
<path d="M 600.0 15.0 L 610.0 15.0" stroke="#FF0000" fill="none" stroke-width="4px" />
<path d="M 610.0 15.0 L 620.0 15.0" stroke="#FF0000" fill="none" stroke-width="4px" />
<path d="M 620.0 15.0 L 630.0 15.0" stroke="#FF0000" fill="none" stroke-width="4px" />
<path d="M 630.0 15.0 L 640.0 15.0" stroke="#FF0000" fill="none" stroke-width="4px" />
<path d="M 640.0 15.0 L 640.0 25.0" stroke="#FF0000" fill="none" stroke-width="4px" />
<path d="M 640.0 25.0 L 650.0 25.0" stroke="#FF0000" fill="none" stroke-width="4px" />
<path d="M 630.0 5.0 L 620.0 5.0" stroke="#FF0000" fill="none" stroke-width="4px" />
<path d="M 620.0 5.0 L 610.0 5.0" stroke="#FF0000" fill="none" stroke-width="4px" />
<path d="M 610.0 5.0 L 600.0 5.0" stroke="#FF0000" fill="none" stroke-width="4px" />
<path d="M 600.0 5.0 L 610.0 -5.0" stroke="#FF0000" fill="none" stroke-width="4px" />
<path d="M 610.0 -5.0 L 620.0 -5.0" stroke="#FF0000" fill="none" stroke-width="4px" />
<path d="M 620.0 -5.0 L 630.0 -5.0" stroke="#FF0000" fill="none" stroke-width="4px" />
<path d="M 890.0 125.0 L 900.0 125.0" stroke="#FF0000" fill="none" stroke-width="4px" />
<path d="M 900.0 125.0 L 910.0 125.0" stroke="#FF0000" fill="none" stroke-width="4px" />
<path d="M 910.0 125.0 L 910.0 135.0" stroke="#FF0000" fill="none" stroke-width="4px" />
<path d="M 910.0 135.0 L 900.0 135.0" stroke="#FF0000" fill="none" stroke-width="4px" />
<path d="M 900.0 135.0 L 890.0 135.0" stroke="#FF0000" fill="none" stroke-width="4px" />
<path d="M 890.0 135.0 L 880.0 135.0" stroke="#FF0000" fill="none" stroke-width="4px" />
<path d="M 880.0 135.0 L 880.0 145.0" stroke="#FF0000" fill="none" stroke-width="4px" />
<path d="M 880.0 145.0 L 890.0 145.0" stroke="#FF0000" fill="none" stroke-width="4px" />
<path d="M 890.0 145.0 L 900.0 145.0" stroke="#FF0000" fill="none" stroke-width="4px" />
<path d="M 900.0 145.0 L 910.0 145.0" stroke="#FF0000" fill="none" stroke-width="4px" />
<path d="M 910.0 145.0 L 920.0 145.0" stroke="#FF0000" fill="none" stroke-width="4px" />
<path d="M 920.0 145.0 L 930.0 145.0" stroke="#FF0000" fill="none" stroke-width="4px" />
<path d="M 930.0 145.0 L 940.0 145.0" stroke="#FF0000" fill="none" stroke-width="4px" />
<path d="M 940.0 145.0 L 950.0 145.0" stroke="#FF0000" fill="none" stroke-width="4px" />
<path d="M 950.0 145.0 L 950.0 155.0" stroke="#FF0000" fill="none" stroke-width="4px" />
<path d="M 950.0 155.0 L 940.0 155.0" stroke="#FF0000" fill="none" stroke-width="4px" />
<path d="M 940.0 155.0 L 930.0 155.0" stroke="#FF0000" fill="none" stroke-width="4px" />
<path d="M 930.0 155.0 L 920.0 155.0" stroke="#FF0000" fill="none" stroke-width="4px" />
<path d="M 920.0 155.0 L 910.0 155.0" stroke="#FF0000" fill="none" stroke-width="4px" />
<path d="M 910.0 155.0 L 900.0 155.0" stroke="#FF0000" fill="none" stroke-width="4px" />
<path d="M 900.0 155.0 L 890.0 155.0" stroke="#FF0000" fill="none" stroke-width="4px" />
<path d="M 890.0 155.0 L 880.0 155.0" stroke="#FF0000" fill="none" stroke-width="4px" />
<path d="M 880.0 155.0 L 880.0 165.0" stroke="#FF0000" fill="none" stroke-width="4px" />
<path d="M 880.0 165.0 L 890.0 165.0" stroke="#FF0000" fill="none" stroke-width="4px" />
<path d="M 890.0 165.0 L 900.0 165.0" stroke="#FF0000" fill="none" stroke-width="4px" />
<path d="M 900.0 165.0 L 910.0 165.0" stroke="#FF0000" fill="none" stroke-width="4px" />
<path d="M 910.0 165.0 L 920.0 165.0" stroke="#FF0000" fill="none" stroke-width="4px" />
<path d="M 920.0 165.0 L 930.0 165.0" stroke="#FF0000" fill="none" stroke-width="4px" />
<path d="M 930.0 165.0 L 940.0 165.0" stroke="#FF0000" fill="none" stroke-width="4px" />
<path d="M 940.0 165.0 L 950.0 165.0" stroke="#FF0000" fill="none" stroke-width="4px" />
<path d="M 950.0 165.0 L 960.0 165.0" stroke="#FF0000" fill="none" stroke-width="4px" />
<path d="M 960.0 165.0 L 970.0 165.0" stroke="#FF0000" fill="none" stroke-width="4px" />
<path d="M 970.0 165.0 L 970.0 175.0" stroke="#FF0000" fill="none" stroke-width="4px" />
<path d="M 970.0 175.0 L 960.0 175.0" stroke="#FF0000" fill="none" stroke-width="4px" />
<path d="M 960.0 175.0 L 950.0 175.0" stroke="#FF0000" fill="none" stroke-width="4px" />
<path d="M 950.0 175.0 L 940.0 175.0" stroke="#FF0000" fill="none" stroke-width="4px" />
<path d="M 940.0 175.0 L 930.0 175.0" stroke="#FF0000" fill="none" stroke-width="4px" />
<path d="M 930.0 175.0 L 920.0 175.0" stroke="#FF0000" fill="none" stroke-width="4px" />
<path d="M 920.0 175.0 L 910.0 175.0" stroke="#FF0000" fill="none" stroke-width="4px" />
<path d="M 910.0 175.0 L 900.0 175.0" stroke="#FF0000" fill="none" stroke-width="4px" />
<path d="M 900.0 175.0 L 890.0 175.0" stroke="#FF0000" fill="none" stroke-width="4px" />
<path d="M 890.0 175.0 L 900.0 185.0" stroke="#FF0000" fill="none" stroke-width="4px" />
<path d="M 900.0 185.0 L 910.0 185.0" stroke="#FF0000" fill="none" stroke-width="4px" />
<path d="M 910.0 185.0 L 920.0 185.0" stroke="#FF0000" fill="none" stroke-width="4px" />
<path d="M 920.0 185.0 L 930.0 185.0" stroke="#FF0000" fill="none" stroke-width="4px" />
<path d="M 930.0 185.0 L 940.0 185.0" stroke="#FF0000" fill="none" stroke-width="4px" />
<path d="M 940.0 185.0 L 950.0 185.0" stroke="#FF0000" fill="none" stroke-width="4px" />
<path d="M 950.0 185.0 L 960.0 185.0" stroke="#FF0000" fill="none" stroke-width="4px" />
<path d="M 960.0 185.0 L 970.0 185.0" stroke="#FF0000" fill="none" stroke-width="4px" />
<path d="M 970.0 185.0 L 970.0 195.0" stroke="#FF0000" fill="none" stroke-width="4px" />
<path d="M 970.0 195.0 L 960.0 195.0" stroke="#FF0000" fill="none" stroke-width="4px" />
<path d="M 960.0 195.0 L 950.0 195.0" stroke="#FF0000" fill="none" stroke-width="4px" />
<path d="M 950.0 195.0 L 940.0 195.0" stroke="#FF0000" fill="none" stroke-width="4px" />
<path d="M 940.0 195.0 L 930.0 195.0" stroke="#FF0000" fill="none" stroke-width="4px" />
<path d="M 930.0 195.0 L 920.0 195.0" stroke="#FF0000" fill="none" stroke-width="4px" />
<path d="M 920.0 195.0 L 910.0 195.0" stroke="#FF0000" fill="none" stroke-width="4px" />
<path d="M 910.0 195.0 L 920.0 205.0" stroke="#FF0000" fill="none" stroke-width="4px" />
<path d="M 920.0 205.0 L 930.0 205.0" stroke="#FF0000" fill="none" stroke-width="4px" />
<path d="M 930.0 205.0 L 940.0 205.0" stroke="#FF0000" fill="none" stroke-width="4px" />
<path d="M 940.0 205.0 L 950.0 205.0" stroke="#FF0000" fill="none" stroke-width="4px" />
<path d="M 950.0 205.0 L 960.0 205.0" stroke="#FF0000" fill="none" stroke-width="4px" />
<path d="M 960.0 205.0 L 970.0 205.0" stroke="#FF0000" fill="none" stroke-width="4px" />
<path d="M 970.0 205.0 L 960.0 215.0" stroke="#FF0000" fill="none" stroke-width="4px" />
<path d="M 960.0 215.0 L 950.0 215.0" stroke="#FF0000" fill="none" stroke-width="4px" />
<path d="M 950.0 215.0 L 940.0 215.0" stroke="#FF0000" fill="none" stroke-width="4px" />
<path d="M 940.0 215.0 L 930.0 215.0" stroke="#FF0000" fill="none" stroke-width="4px" />
<path d="M 940.0 135.0 L 930.0 135.0" stroke="#FF0000" fill="none" stroke-width="4px" />
<path d="M 930.0 135.0 L 920.0 135.0" stroke="#FF0000" fill="none" stroke-width="4px" />
<path d="M 40.0 65.0 L 30.0 65.0" stroke="#FF0000" fill="none" stroke-width="4px" />
<path d="M 30.0 65.0 L 20.0 65.0" stroke="#FF0000" fill="none" stroke-width="4px" />
<path d="M 20.0 65.0 L 10.0 65.0" stroke="#FF0000" fill="none" stroke-width="4px" />
<path d="M 10.0 65.0 L 10.0 55.0" stroke="#FF0000" fill="none" stroke-width="4px" />
<path d="M 10.0 55.0 L 20.0 55.0" stroke="#FF0000" fill="none" stroke-width="4px" />
<path d="M 20.0 55.0 L 30.0 55.0" stroke="#FF0000" fill="none" stroke-width="4px" />
<path d="M 30.0 55.0 L 20.0 45.0" stroke="#FF0000" fill="none" stroke-width="4px" />
<path d="M 20.0 75.0 L 30.0 75.0" stroke="#FF0000" fill="none" stroke-width="4px" />
</svg>