<svg width="2894.54166667" height="235.0" xmlns="http://www.w3.org/2000/svg" version="1.1">
<path d="M 0.0 235.0 L 1985.0 235.0 L 1985.0 0.0 L 0.0 0.0 L 0.0 235.0" stroke="#000000" fill="none" stroke-width="3px" />
<path d="M 2894.54166667 235.0 L 1885.0 235.0 L 1885.0 0.0 L 2894.54166667 0.0 L 2894.54166667 235.0" stroke="#000000" fill="none" stroke-width="3px" />
<path d="M 10.0 257.5 L 0.0 247.5 L 10.0 237.5" stroke="#969696" fill="none" stroke-width="1px" />
<path d="M 10.0 237.5 L 1975.0 237.5" stroke="#969696" fill="none" stroke-width="1px" />
<path d="M 1975.0 237.5 L 1985.0 227.5 L 1975.0 217.5" stroke="#969696" fill="none" stroke-width="1px" />
<path d="M 1975.0 217.5 L 10.0 217.5" stroke="#969696" fill="none" stroke-width="1px" />
<path d="M 10.0 217.5 L 0.0 207.5 L 10.0 197.5" stroke="#969696" fill="none" stroke-width="1px" />
<path d="M 10.0 197.5 L 1975.0 197.5" stroke="#969696" fill="none" stroke-width="1px" />
<path d="M 1975.0 197.5 L 1985.0 187.5 L 1975.0 177.5" stroke="#969696" fill="none" stroke-width="1px" />
<path d="M 1975.0 177.5 L 10.0 177.5" stroke="#969696" fill="none" stroke-width="1px" />
<path d="M 10.0 177.5 L 0.0 167.5 L 10.0 157.5" stroke="#969696" fill="none" stroke-width="1px" />
<path d="M 10.0 157.5 L 1975.0 157.5" stroke="#969696" fill="none" stroke-width="1px" />
<path d="M 1975.0 157.5 L 1985.0 147.5 L 1975.0 137.5" stroke="#969696" fill="none" stroke-width="1px" />
<path d="M 1975.0 137.5 L 10.0 137.5" stroke="#969696" fill="none" stroke-width="1px" />
<path d="M 10.0 137.5 L 0.0 127.5 L 10.0 117.5" stroke="#969696" fill="none" stroke-width="1px" />
<path d="M 10.0 117.5 L 1975.0 117.5" stroke="#969696" fill="none" stroke-width="1px" />
<path d="M 1975.0 117.5 L 1985.0 107.5 L 1975.0 97.5" stroke="#969696" fill="none" stroke-width="1px" />
<path d="M 1975.0 97.5 L 10.0 97.5" stroke="#969696" fill="none" stroke-width="1px" />
<path d="M 10.0 97.5 L 0.0 87.5 L 10.0 77.5" stroke="#969696" fill="none" stroke-width="1px" />
<path d="M 10.0 77.5 L 1975.0 77.5" stroke="#969696" fill="none" stroke-width="1px" />
<path d="M 1975.0 77.5 L 1985.0 67.5 L 1975.0 57.5" stroke="#969696" fill="none" stroke-width="1px" />
<path d="M 1975.0 57.5 L 10.0 57.5" stroke="#969696" fill="none" stroke-width="1px" />
<path d="M 10.0 57.5 L 0.0 47.5 L 10.0 37.5" stroke="#969696" fill="none" stroke-width="1px" />
<path d="M 10.0 37.5 L 1975.0 37.5" stroke="#969696" fill="none" stroke-width="1px" />
<path d="M 1975.0 37.5 L 1985.0 27.5 L 1975.0 17.5" stroke="#969696" fill="none" stroke-width="1px" />
<path d="M 1975.0 17.5 L 10.0 17.5" stroke="#969696" fill="none" stroke-width="1px" />
<path d="M 10.0 17.5 L 0.0 7.5 L 10.0 -2.5" stroke="#969696" fill="none" stroke-width="1px" />
<path d="M 10.0 -2.5 L 1975.0 -2.5" stroke="#969696" fill="none" stroke-width="1px" />
<path d="M 1975.0 -2.5 L 1985.0 -12.5 L 1975.0 -22.5" stroke="#969696" fill="none" stroke-width="1px" />
<path d="M 2884.54166667 257.5 L 2894.54166667 247.5 L 2884.54166667 237.5" stroke="#969696" fill="none" stroke-width="1px" />
<path d="M 2884.54166667 237.5 L 1895.0 237.5" stroke="#969696" fill="none" stroke-width="1px" />
<path d="M 1895.0 237.5 L 1885.0 227.5 L 1895.0 217.5" stroke="#969696" fill="none" stroke-width="1px" />
<path d="M 1895.0 217.5 L 2884.54166667 217.5" stroke="#969696" fill="none" stroke-width="1px" />
<path d="M 2884.54166667 217.5 L 2894.54166667 207.5 L 2884.54166667 197.5" stroke="#969696" fill="none" stroke-width="1px" />
<path d="M 2884.54166667 197.5 L 1895.0 197.5" stroke="#969696" fill="none" stroke-width="1px" />
<path d="M 1895.0 197.5 L 1885.0 187.5 L 1895.0 177.5" stroke="#969696" fill="none" stroke-width="1px" />
<path d="M 1895.0 177.5 L 2884.54166667 177.5" stroke="#969696" fill="none" stroke-width="1px" />
<path d="M 2884.54166667 177.5 L 2894.54166667 167.5 L 2884.54166667 157.5" stroke="#969696" fill="none" stroke-width="1px" />
<path d="M 2884.54166667 157.5 L 1895.0 157.5" stroke="#969696" fill="none" stroke-width="1px" />
<path d="M 1895.0 157.5 L 1885.0 147.5 L 1895.0 137.5" stroke="#969696" fill="none" stroke-width="1px" />
<path d="M 1895.0 137.5 L 2884.54166667 137.5" stroke="#969696" fill="none" stroke-width="1px" />
<path d="M 2884.54166667 137.5 L 2894.54166667 127.5 L 2884.54166667 117.5" stroke="#969696" fill="none" stroke-width="1px" />
<path d="M 2884.54166667 117.5 L 1895.0 117.5" stroke="#969696" fill="none" stroke-width="1px" />
<path d="M 1895.0 117.5 L 1885.0 107.5 L 1895.0 97.5" stroke="#969696" fill="none" stroke-width="1px" />
<path d="M 1895.0 97.5 L 2884.54166667 97.5" stroke="#969696" fill="none" stroke-width="1px" />
<path d="M 2884.54166667 97.5 L 2894.54166667 87.5 L 2884.54166667 77.5" stroke="#969696" fill="none" stroke-width="1px" />
<path d="M 2884.54166667 77.5 L 1895.0 77.5" stroke="#969696" fill="none" stroke-width="1px" />
<path d="M 1895.0 77.5 L 1885.0 67.5 L 1895.0 57.5" stroke="#969696" fill="none" stroke-width="1px" />
<path d="M 1895.0 57.5 L 2884.54166667 57.5" stroke="#969696" fill="none" stroke-width="1px" />
<path d="M 2884.54166667 57.5 L 2894.54166667 47.5 L 2884.54166667 37.5" stroke="#969696" fill="none" stroke-width="1px" />
<path d="M 2884.54166667 37.5 L 1895.0 37.5" stroke="#969696" fill="none" stroke-width="1px" />
<path d="M 1895.0 37.5 L 1885.0 27.5 L 1895.0 17.5" stroke="#969696" fill="none" stroke-width="1px" />
<path d="M 1895.0 17.5 L 2884.54166667 17.5" stroke="#969696" fill="none" stroke-width="1px" />
<path d="M 2884.54166667 17.5 L 2894.54166667 7.5 L 2884.54166667 -2.5" stroke="#969696" fill="none" stroke-width="1px" />
<path d="M 2884.54166667 -2.5 L 1895.0 -2.5" stroke="#969696" fill="none" stroke-width="1px" />
<path d="M 1895.0 -2.5 L 1885.0 -12.5 L 1895.0 -22.5" stroke="#969696" fill="none" stroke-width="1px" />
<path d="M 0.0 235.0 L 10.0 155.0" stroke="#0095FF" fill="none" stroke-width="2px" />
<path d="M 10.0 125.0 L 10.0 45.0" stroke="#0095FF" fill="none" stroke-width="2px" />
<path d="M 10.0 15.0 L 240.0 85.0" stroke="#0095FF" fill="none" stroke-width="2px" />
<path d="M 250.0 115.0 L 280.0 95.0" stroke="#0095FF" fill="none" stroke-width="2px" />
<path d="M 280.0 95.0 L 260.0 75.0" stroke="#0095FF" fill="none" stroke-width="2px" />
<path d="M 250.0 75.0 L 590.0 135.0" stroke="#0095FF" fill="none" stroke-width="2px" />
<path d="M 600.0 165.0 L 600.0 125.0" stroke="#0095FF" fill="none" stroke-width="2px" />
<path d="M 610.0 115.0 L 790.0 105.0" stroke="#0095FF" fill="none" stroke-width="2px" />
<path d="M 810.0 125.0 L 810.0 95.0" stroke="#0095FF" fill="none" stroke-width="2px" />
<path d="M 820.0 95.0 L 830.0 175.0" stroke="#0095FF" fill="none" stroke-width="2px" />
<path d="M 830.0 195.0 L 850.0 185.0" stroke="#0095FF" fill="none" stroke-width="2px" />
<path d="M 850.0 185.0 L 850.0 215.0" stroke="#0095FF" fill="none" stroke-width="2px" />
<path d="M 820.0 215.0 L 1880.0 135.0" stroke="#0095FF" fill="none" stroke-width="2px" />
<path d="M 1910.0 165.0 L 1910.0 125.0" stroke="#0095FF" fill="none" stroke-width="2px" />
<path d="M 1930.0 125.0 L 1900.0 105.0" stroke="#0095FF" fill="none" stroke-width="2px" />
<path d="M 1900.0 105.0 L 1920.0 85.0" stroke="#0095FF" fill="none" stroke-width="2px" />
<path d="M 1930.0 35.0 L 1960.0 75.0" stroke="#0095FF" fill="none" stroke-width="2px" />
<path d="M 2894.54166667 235.0 L 2460.0 125.0" stroke="#0095FF" fill="none" stroke-width="2px" />
<path d="M 2430.0 85.0 L 2430.0 135.0" stroke="#0095FF" fill="none" stroke-width="2px" />
<path d="M 2440.0 145.0 L 2310.0 85.0" stroke="#0095FF" fill="none" stroke-width="2px" />
<path d="M 2290.0 65.0 L 2290.0 95.0" stroke="#0095FF" fill="none" stroke-width="2px" />
<path d="M 2300.0 95.0 L 2250.0 115.0" stroke="#0095FF" fill="none" stroke-width="2px" />
<path d="M 2220.0 145.0 L 2220.0 105.0" stroke="#0095FF" fill="none" stroke-width="2px" />
<path d="M 2240.0 105.0 L 2220.0 85.0" stroke="#0095FF" fill="none" stroke-width="2px" />
<path d="M 10.0 155.0 L 10.0 145.0" stroke="#FF0000" fill="none" stroke-width="4px" />
<path d="M 10.0 145.0 L 20.0 145.0" stroke="#FF0000" fill="none" stroke-width="4px" />
<path d="M 20.0 145.0 L 20.0 135.0" stroke="#FF0000" fill="none" stroke-width="4px" />
<path d="M 20.0 135.0 L 10.0 135.0" stroke="#FF0000" fill="none" stroke-width="4px" />
<path d="M 10.0 135.0 L 10.0 125.0" stroke="#FF0000" fill="none" stroke-width="4px" />
<path d="M 10.0 45.0 L 10.0 35.0" stroke="#FF0000" fill="none" stroke-width="4px" />
<path d="M 10.0 35.0 L 20.0 35.0" stroke="#FF0000" fill="none" stroke-width="4px" />
<path d="M 20.0 35.0 L 20.0 25.0" stroke="#FF0000" fill="none" stroke-width="4px" />
<path d="M 20.0 25.0 L 10.0 25.0" stroke="#FF0000" fill="none" stroke-width="4px" />
<path d="M 10.0 25.0 L 10.0 15.0" stroke="#FF0000" fill="none" stroke-width="4px" />
<path d="M 240.0 85.0 L 250.0 85.0" stroke="#FF0000" fill="none" stroke-width="4px" />
<path d="M 250.0 85.0 L 260.0 85.0" stroke="#FF0000" fill="none" stroke-width="4px" />
<path d="M 260.0 85.0 L 270.0 85.0" stroke="#FF0000" fill="none" stroke-width="4px" />
<path d="M 270.0 85.0 L 270.0 95.0" stroke="#FF0000" fill="none" stroke-width="4px" />
<path d="M 270.0 95.0 L 260.0 95.0" stroke="#FF0000" fill="none" stroke-width="4px" />
<path d="M 260.0 95.0 L 250.0 95.0" stroke="#FF0000" fill="none" stroke-width="4px" />
<path d="M 250.0 95.0 L 240.0 95.0" stroke="#FF0000" fill="none" stroke-width="4px" />
<path d="M 240.0 95.0 L 240.0 105.0" stroke="#FF0000" fill="none" stroke-width="4px" />
<path d="M 240.0 105.0 L 250.0 105.0" stroke="#FF0000" fill="none" stroke-width="4px" />
<path d="M 250.0 105.0 L 260.0 105.0" stroke="#FF0000" fill="none" stroke-width="4px" />
<path d="M 260.0 105.0 L 270.0 105.0" stroke="#FF0000" fill="none" stroke-width="4px" />
<path d="M 270.0 105.0 L 260.0 115.0" stroke="#FF0000" fill="none" stroke-width="4px" />
<path d="M 260.0 115.0 L 250.0 115.0" stroke="#FF0000" fill="none" stroke-width="4px" />
<path d="M 260.0 75.0 L 250.0 75.0" stroke="#FF0000" fill="none" stroke-width="4px" />
<path d="M 590.0 135.0 L 600.0 135.0" stroke="#FF0000" fill="none" stroke-width="4px" />
<path d="M 600.0 135.0 L 610.0 135.0" stroke="#FF0000" fill="none" stroke-width="4px" />
<path d="M 610.0 135.0 L 620.0 135.0" stroke="#FF0000" fill="none" stroke-width="4px" />
<path d="M 620.0 135.0 L 630.0 135.0" stroke="#FF0000" fill="none" stroke-width="4px" />
<path d="M 630.0 135.0 L 630.0 145.0" stroke="#FF0000" fill="none" stroke-width="4px" />
<path d="M 630.0 145.0 L 620.0 145.0" stroke="#FF0000" fill="none" stroke-width="4px" />
<path d="M 620.0 145.0 L 610.0 145.0" stroke="#FF0000" fill="none" stroke-width="4px" />
<path d="M 610.0 145.0 L 600.0 145.0" stroke="#FF0000" fill="none" stroke-width="4px" />
<path d="M 600.0 145.0 L 590.0 145.0" stroke="#FF0000" fill="none" stroke-width="4px" />
<path d="M 590.0 145.0 L 590.0 155.0" stroke="#FF0000" fill="none" stroke-width="4px" />
<path d="M 590.0 155.0 L 600.0 155.0" stroke="#FF0000" fill="none" stroke-width="4px" />
<path d="M 600.0 155.0 L 610.0 155.0" stroke="#FF0000" fill="none" stroke-width="4px" />
<path d="M 610.0 155.0 L 620.0 155.0" stroke="#FF0000" fill="none" stroke-width="4px" />
<path d="M 620.0 155.0 L 630.0 155.0" stroke="#FF0000" fill="none" stroke-width="4px" />
<path d="M 630.0 155.0 L 620.0 165.0" stroke="#FF0000" fill="none" stroke-width="4px" />
<path d="M 620.0 165.0 L 610.0 165.0" stroke="#FF0000" fill="none" stroke-width="4px" />
<path d="M 610.0 165.0 L 600.0 165.0" stroke="#FF0000" fill="none" stroke-width="4px" />
<path d="M 600.0 125.0 L 610.0 125.0" stroke="#FF0000" fill="none" stroke-width="4px" />
<path d="M 610.0 125.0 L 620.0 125.0" stroke="#FF0000" fill="none" stroke-width="4px" />
<path d="M 620.0 125.0 L 610.0 115.0" stroke="#FF0000" fill="none" stroke-width="4px" />
<path d="M 790.0 105.0 L 800.0 105.0" stroke="#FF0000" fill="none" stroke-width="4px" />
<path d="M 800.0 105.0 L 810.0 105.0" stroke="#FF0000" fill="none" stroke-width="4px" />
<path d="M 810.0 105.0 L 820.0 105.0" stroke="#FF0000" fill="none" stroke-width="4px" />
<path d="M 820.0 105.0 L 830.0 105.0" stroke="#FF0000" fill="none" stroke-width="4px" />
<path d="M 830.0 105.0 L 830.0 115.0" stroke="#FF0000" fill="none" stroke-width="4px" />
<path d="M 830.0 115.0 L 820.0 115.0" stroke="#FF0000" fill="none" stroke-width="4px" />
<path d="M 820.0 115.0 L 810.0 115.0" stroke="#FF0000" fill="none" stroke-width="4px" />
<path d="M 810.0 115.0 L 800.0 115.0" stroke="#FF0000" fill="none" stroke-width="4px" />
<path d="M 800.0 115.0 L 810.0 125.0" stroke="#FF0000" fill="none" stroke-width="4px" />
<path d="M 810.0 95.0 L 800.0 95.0" stroke="#FF0000" fill="none" stroke-width="4px" />
<path d="M 800.0 95.0 L 810.0 85.0" stroke="#FF0000" fill="none" stroke-width="4px" />
<path d="M 810.0 85.0 L 820.0 95.0" stroke="#FF0000" fill="none" stroke-width="4px" />
<path d="M 830.0 175.0 L 840.0 175.0" stroke="#FF0000" fill="none" stroke-width="4px" />
<path d="M 840.0 175.0 L 840.0 185.0" stroke="#FF0000" fill="none" stroke-width="4px" />
<path d="M 840.0 185.0 L 830.0 185.0" stroke="#FF0000" fill="none" stroke-width="4px" />
<path d="M 830.0 185.0 L 820.0 185.0" stroke="#FF0000" fill="none" stroke-width="4px" />
<path d="M 820.0 185.0 L 820.0 195.0" stroke="#FF0000" fill="none" stroke-width="4px" />
<path d="M 820.0 195.0 L 810.0 195.0" stroke="#FF0000" fill="none" stroke-width="4px" />
<path d="M 810.0 195.0 L 810.0 205.0" stroke="#FF0000" fill="none" stroke-width="4px" />
<path d="M 810.0 205.0 L 820.0 205.0" stroke="#FF0000" fill="none" stroke-width="4px" />
<path d="M 820.0 205.0 L 830.0 205.0" stroke="#FF0000" fill="none" stroke-width="4px" />
<path d="M 830.0 205.0 L 840.0 205.0" stroke="#FF0000" fill="none" stroke-width="4px" />
<path d="M 840.0 205.0 L 850.0 205.0" stroke="#FF0000" fill="none" stroke-width="4px" />
<path d="M 850.0 205.0 L 860.0 205.0" stroke="#FF0000" fill="none" stroke-width="4px" />
<path d="M 860.0 205.0 L 860.0 195.0" stroke="#FF0000" fill="none" stroke-width="4px" />
<path d="M 860.0 195.0 L 850.0 195.0" stroke="#FF0000" fill="none" stroke-width="4px" />
<path d="M 850.0 195.0 L 840.0 195.0" stroke="#FF0000" fill="none" stroke-width="4px" />
<path d="M 840.0 195.0 L 830.0 195.0" stroke="#FF0000" fill="none" stroke-width="4px" />
<path d="M 850.0 215.0 L 840.0 215.0" stroke="#FF0000" fill="none" stroke-width="4px" />
<path d="M 840.0 215.0 L 830.0 215.0" stroke="#FF0000" fill="none" stroke-width="4px" />
<path d="M 830.0 215.0 L 820.0 215.0" stroke="#FF0000" fill="none" stroke-width="4px" />
<path d="M 1880.0 135.0 L 1890.0 135.0" stroke="#FF0000" fill="none" stroke-width="4px" />
<path d="M 1890.0 135.0 L 1900.0 135.0" stroke="#FF0000" fill="none" stroke-width="4px" />
<path d="M 1900.0 135.0 L 1910.0 135.0" stroke="#FF0000" fill="none" stroke-width="4px" />
<path d="M 1910.0 135.0 L 1920.0 135.0" stroke="#FF0000" fill="none" stroke-width="4px" />
<path d="M 1920.0 135.0 L 1930.0 135.0" stroke="#FF0000" fill="none" stroke-width="4px" />
<path d="M 1930.0 135.0 L 1940.0 135.0" stroke="#FF0000" fill="none" stroke-width="4px" />
<path d="M 1940.0 135.0 L 1940.0 145.0" stroke="#FF0000" fill="none" stroke-width="4px" />
<path d="M 1940.0 145.0 L 1930.0 145.0" stroke="#FF0000" fill="none" stroke-width="4px" />
<path d="M 1930.0 145.0 L 1920.0 145.0" stroke="#FF0000" fill="none" stroke-width="4px" />
<path d="M 1920.0 145.0 L 1910.0 145.0" stroke="#FF0000" fill="none" stroke-width="4px" />
<path d="M 1910.0 145.0 L 1900.0 145.0" stroke="#FF0000" fill="none" stroke-width="4px" />
<path d="M 1900.0 145.0 L 1890.0 145.0" stroke="#FF0000" fill="none" stroke-width="4px" />
<path d="M 1890.0 145.0 L 1900.0 155.0" stroke="#FF0000" fill="none" stroke-width="4px" />
<path d="M 1900.0 155.0 L 1910.0 155.0" stroke="#FF0000" fill="none" stroke-width="4px" />
<path d="M 1910.0 155.0 L 1920.0 155.0" stroke="#FF0000" fill="none" stroke-width="4px" />
<path d="M 1920.0 155.0 L 1930.0 155.0" stroke="#FF0000" fill="none" stroke-width="4px" />
<path d="M 1930.0 155.0 L 1920.0 165.0" stroke="#FF0000" fill="none" stroke-width="4px" />
<path d="M 1920.0 165.0 L 1910.0 165.0" stroke="#FF0000" fill="none" stroke-width="4px" />
<path d="M 1910.0 125.0 L 1900.0 125.0" stroke="#FF0000" fill="none" stroke-width="4px" />
<path d="M 1900.0 125.0 L 1890.0 125.0" stroke="#FF0000" fill="none" stroke-width="4px" />
<path d="M 1890.0 125.0 L 1880.0 125.0" stroke="#FF0000" fill="none" stroke-width="4px" />
<path d="M 1880.0 125.0 L 1890.0 115.0" stroke="#FF0000" fill="none" stroke-width="4px" />
<path d="M 1890.0 115.0 L 1900.0 115.0" stroke="#FF0000" fill="none" stroke-width="4px" />
<path d="M 1900.0 115.0 L 1910.0 115.0" stroke="#FF0000" fill="none" stroke-width="4px" />
<path d="M 1910.0 115.0 L 1920.0 115.0" stroke="#FF0000" fill="none" stroke-width="4px" />
<path d="M 1920.0 115.0 L 1920.0 125.0" stroke="#FF0000" fill="none" stroke-width="4px" />
<path d="M 1920.0 125.0 L 1930.0 125.0" stroke="#FF0000" fill="none" stroke-width="4px" />
<path d="M 1920.0 85.0 L 1930.0 85.0" stroke="#FF0000" fill="none" stroke-width="4px" />
<path d="M 1930.0 85.0 L 1940.0 85.0" stroke="#FF0000" fill="none" stroke-width="4px" />
<path d="M 1940.0 85.0 L 1950.0 85.0" stroke="#FF0000" fill="none" stroke-width="4px" />
<path d="M 1950.0 85.0 L 1950.0 75.0" stroke="#FF0000" fill="none" stroke-width="4px" />
<path d="M 1950.0 75.0 L 1940.0 75.0" stroke="#FF0000" fill="none" stroke-width="4px" />
<path d="M 1940.0 75.0 L 1930.0 75.0" stroke="#FF0000" fill="none" stroke-width="4px" />
<path d="M 1930.0 75.0 L 1920.0 75.0" stroke="#FF0000" fill="none" stroke-width="4px" />
<path d="M 1920.0 75.0 L 1910.0 75.0" stroke="#FF0000" fill="none" stroke-width="4px" />
<path d="M 1910.0 75.0 L 1910.0 65.0" stroke="#FF0000" fill="none" stroke-width="4px" />
<path d="M 1910.0 65.0 L 1920.0 65.0" stroke="#FF0000" fill="none" stroke-width="4px" />
<path d="M 1920.0 65.0 L 1930.0 65.0" stroke="#FF0000" fill="none" stroke-width="4px" />
<path d="M 1930.0 65.0 L 1940.0 65.0" stroke="#FF0000" fill="none" stroke-width="4px" />
<path d="M 1940.0 65.0 L 1950.0 65.0" stroke="#FF0000" fill="none" stroke-width="4px" />
<path d="M 1950.0 65.0 L 1960.0 65.0" stroke="#FF0000" fill="none" stroke-width="4px" />
<path d="M 1960.0 65.0 L 1970.0 65.0" stroke="#FF0000" fill="none" stroke-width="4px" />
<path d="M 1970.0 65.0 L 1970.0 55.0" stroke="#FF0000" fill="none" stroke-width="4px" />
<path d="M 1970.0 55.0 L 1960.0 55.0" stroke="#FF0000" fill="none" stroke-width="4px" />
<path d="M 1960.0 55.0 L 1950.0 55.0" stroke="#FF0000" fill="none" stroke-width="4px" />
<path d="M 1950.0 55.0 L 1940.0 55.0" stroke="#FF0000" fill="none" stroke-width="4px" />
<path d="M 1940.0 55.0 L 1930.0 55.0" stroke="#FF0000" fill="none" stroke-width="4px" />
<path d="M 1930.0 55.0 L 1920.0 55.0" stroke="#FF0000" fill="none" stroke-width="4px" />
<path d="M 1920.0 55.0 L 1910.0 55.0" stroke="#FF0000" fill="none" stroke-width="4px" />
<path d="M 1910.0 55.0 L 1920.0 45.0" stroke="#FF0000" fill="none" stroke-width="4px" />
<path d="M 1920.0 45.0 L 1930.0 45.0" stroke="#FF0000" fill="none" stroke-width="4px" />
<path d="M 1930.0 45.0 L 1940.0 45.0" stroke="#FF0000" fill="none" stroke-width="4px" />
<path d="M 1940.0 45.0 L 1950.0 45.0" stroke="#FF0000" fill="none" stroke-width="4px" />
<path d="M 1950.0 45.0 L 1960.0 45.0" stroke="#FF0000" fill="none" stroke-width="4px" />
<path d="M 1960.0 45.0 L 1950.0 35.0" stroke="#FF0000" fill="none" stroke-width="4px" />
<path d="M 1950.0 35.0 L 1940.0 35.0" stroke="#FF0000" fill="none" stroke-width="4px" />
<path d="M 1940.0 35.0 L 1930.0 35.0" stroke="#FF0000" fill="none" stroke-width="4px" />
<path d="M 2460.0 125.0 L 2450.0 125.0" stroke="#FF0000" fill="none" stroke-width="4px" />
<path d="M 2450.0 125.0 L 2440.0 125.0" stroke="#FF0000" fill="none" stroke-width="4px" />
<path d="M 2440.0 125.0 L 2430.0 125.0" stroke="#FF0000" fill="none" stroke-width="4px" />
<path d="M 2430.0 125.0 L 2420.0 125.0" stroke="#FF0000" fill="none" stroke-width="4px" />
<path d="M 2420.0 125.0 L 2410.0 125.0" stroke="#FF0000" fill="none" stroke-width="4px" />
<path d="M 2410.0 125.0 L 2410.0 115.0" stroke="#FF0000" fill="none" stroke-width="4px" />
<path d="M 2410.0 115.0 L 2420.0 115.0" stroke="#FF0000" fill="none" stroke-width="4px" />
<path d="M 2420.0 115.0 L 2430.0 115.0" stroke="#FF0000" fill="none" stroke-width="4px" />
<path d="M 2430.0 115.0 L 2440.0 115.0" stroke="#FF0000" fill="none" stroke-width="4px" />
<path d="M 2440.0 115.0 L 2450.0 115.0" stroke="#FF0000" fill="none" stroke-width="4px" />
<path d="M 2450.0 115.0 L 2460.0 115.0" stroke="#FF0000" fill="none" stroke-width="4px" />
<path d="M 2460.0 115.0 L 2460.0 105.0" stroke="#FF0000" fill="none" stroke-width="4px" />
<path d="M 2460.0 105.0 L 2450.0 105.0" stroke="#FF0000" fill="none" stroke-width="4px" />
<path d="M 2450.0 105.0 L 2440.0 105.0" stroke="#FF0000" fill="none" stroke-width="4px" />
<path d="M 2440.0 105.0 L 2430.0 105.0" stroke="#FF0000" fill="none" stroke-width="4px" />
<path d="M 2430.0 105.0 L 2420.0 105.0" stroke="#FF0000" fill="none" stroke-width="4px" />
<path d="M 2420.0 105.0 L 2410.0 105.0" stroke="#FF0000" fill="none" stroke-width="4px" />
<path d="M 2410.0 105.0 L 2420.0 95.0" stroke="#FF0000" fill="none" stroke-width="4px" />
<path d="M 2420.0 95.0 L 2430.0 95.0" stroke="#FF0000" fill="none" stroke-width="4px" />
<path d="M 2430.0 95.0 L 2440.0 95.0" stroke="#FF0000" fill="none" stroke-width="4px" />
<path d="M 2440.0 95.0 L 2450.0 95.0" stroke="#FF0000" fill="none" stroke-width="4px" />
<path d="M 2450.0 95.0 L 2440.0 85.0" stroke="#FF0000" fill="none" stroke-width="4px" />
<path d="M 2440.0 85.0 L 2430.0 85.0" stroke="#FF0000" fill="none" stroke-width="4px" />
<path d="M 2430.0 135.0 L 2420.0 135.0" stroke="#FF0000" fill="none" stroke-width="4px" />
<path d="M 2420.0 135.0 L 2440.0 135.0" stroke="#FF0000" fill="none" stroke-width="4px" />
<path d="M 2440.0 135.0 L 2450.0 135.0" stroke="#FF0000" fill="none" stroke-width="4px" />
<path d="M 2450.0 135.0 L 2440.0 145.0" stroke="#FF0000" fill="none" stroke-width="4px" />
<path d="M 2310.0 85.0 L 2300.0 85.0" stroke="#FF0000" fill="none" stroke-width="4px" />
<path d="M 2300.0 85.0 L 2290.0 85.0" stroke="#FF0000" fill="none" stroke-width="4px" />
<path d="M 2290.0 85.0 L 2280.0 85.0" stroke="#FF0000" fill="none" stroke-width="4px" />
<path d="M 2280.0 85.0 L 2280.0 75.0" stroke="#FF0000" fill="none" stroke-width="4px" />
<path d="M 2280.0 75.0 L 2290.0 75.0" stroke="#FF0000" fill="none" stroke-width="4px" />
<path d="M 2290.0 75.0 L 2300.0 75.0" stroke="#FF0000" fill="none" stroke-width="4px" />
<path d="M 2300.0 75.0 L 2310.0 75.0" stroke="#FF0000" fill="none" stroke-width="4px" />
<path d="M 2310.0 75.0 L 2300.0 65.0" stroke="#FF0000" fill="none" stroke-width="4px" />
<path d="M 2300.0 65.0 L 2290.0 65.0" stroke="#FF0000" fill="none" stroke-width="4px" />
<path d="M 2290.0 95.0 L 2300.0 95.0" stroke="#FF0000" fill="none" stroke-width="4px" />
<path d="M 2250.0 115.0 L 2240.0 115.0" stroke="#FF0000" fill="none" stroke-width="4px" />
<path d="M 2240.0 115.0 L 2230.0 115.0" stroke="#FF0000" fill="none" stroke-width="4px" />
<path d="M 2230.0 115.0 L 2220.0 115.0" stroke="#FF0000" fill="none" stroke-width="4px" />
<path d="M 2220.0 115.0 L 2210.0 115.0" stroke="#FF0000" fill="none" stroke-width="4px" />
<path d="M 2210.0 115.0 L 2200.0 115.0" stroke="#FF0000" fill="none" stroke-width="4px" />
<path d="M 2200.0 115.0 L 2190.0 115.0" stroke="#FF0000" fill="none" stroke-width="4px" />
<path d="M 2190.0 115.0 L 2190.0 125.0" stroke="#FF0000" fill="none" stroke-width="4px" />
<path d="M 2190.0 125.0 L 2200.0 125.0" stroke="#FF0000" fill="none" stroke-width="4px" />
<path d="M 2200.0 125.0 L 2210.0 125.0" stroke="#FF0000" fill="none" stroke-width="4px" />
<path d="M 2210.0 125.0 L 2220.0 125.0" stroke="#FF0000" fill="none" stroke-width="4px" />
<path d="M 2220.0 125.0 L 2230.0 125.0" stroke="#FF0000" fill="none" stroke-width="4px" />
<path d="M 2230.0 125.0 L 2240.0 125.0" stroke="#FF0000" fill="none" stroke-width="4px" />
<path d="M 2240.0 125.0 L 2230.0 135.0" stroke="#FF0000" fill="none" stroke-width="4px" />
<path d="M 2230.0 135.0 L 2220.0 135.0" stroke="#FF0000" fill="none" stroke-width="4px" />
<path d="M 2220.0 135.0 L 2210.0 135.0" stroke="#FF0000" fill="none" stroke-width="4px" />
<path d="M 2210.0 135.0 L 2200.0 135.0" stroke="#FF0000" fill="none" stroke-width="4px" />
<path d="M 2200.0 135.0 L 2210.0 145.0" stroke="#FF0000" fill="none" stroke-width="4px" />
<path d="M 2210.0 145.0 L 2220.0 145.0" stroke="#FF0000" fill="none" stroke-width="4px" />
<path d="M 2220.0 105.0 L 2210.0 105.0" stroke="#FF0000" fill="none" stroke-width="4px" />
<path d="M 2210.0 105.0 L 2200.0 105.0" stroke="#FF0000" fill="none" stroke-width="4px" />
<path d="M 2200.0 105.0 L 2190.0 105.0" stroke="#FF0000" fill="none" stroke-width="4px" />
<path d="M 2190.0 105.0 L 2200.0 95.0" stroke="#FF0000" fill="none" stroke-width="4px" />
<path d="M 2200.0 95.0 L 2210.0 95.0" stroke="#FF0000" fill="none" stroke-width="4px" />
<path d="M 2210.0 95.0 L 2220.0 95.0" stroke="#FF0000" fill="none" stroke-width="4px" />
<path d="M 2220.0 95.0 L 2230.0 95.0" stroke="#FF0000" fill="none" stroke-width="4px" />
<path d="M 2230.0 95.0 L 2230.0 105.0" stroke="#FF0000" fill="none" stroke-width="4px" />
<path d="M 2230.0 105.0 L 2240.0 105.0" stroke="#FF0000" fill="none" stroke-width="4px" />
<path d="M 2220.0 85.0 L 2210.0 85.0" stroke="#FF0000" fill="none" stroke-width="4px" />
</svg>