<svg width="2894.54166667" height="235.0" xmlns="http://www.w3.org/2000/svg" version="1.1">
<path d="M 0.0 235.0 L 1805.0 235.0 L 1805.0 0.0 L 0.0 0.0 L 0.0 235.0" stroke="#000000" fill="none" stroke-width="3px" />
<path d="M 2894.54166667 235.0 L 1705.0 235.0 L 1705.0 0.0 L 2894.54166667 0.0 L 2894.54166667 235.0" stroke="#000000" fill="none" stroke-width="3px" />
<path d="M 10.0 257.5 L 0.0 247.5 L 10.0 237.5" stroke="#969696" fill="none" stroke-width="1px" />
<path d="M 10.0 237.5 L 1795.0 237.5" stroke="#969696" fill="none" stroke-width="1px" />
<path d="M 1795.0 237.5 L 1805.0 227.5 L 1795.0 217.5" stroke="#969696" fill="none" stroke-width="1px" />
<path d="M 1795.0 217.5 L 10.0 217.5" stroke="#969696" fill="none" stroke-width="1px" />
<path d="M 10.0 217.5 L 0.0 207.5 L 10.0 197.5" stroke="#969696" fill="none" stroke-width="1px" />
<path d="M 10.0 197.5 L 1795.0 197.5" stroke="#969696" fill="none" stroke-width="1px" />
<path d="M 1795.0 197.5 L 1805.0 187.5 L 1795.0 177.5" stroke="#969696" fill="none" stroke-width="1px" />
<path d="M 1795.0 177.5 L 10.0 177.5" stroke="#969696" fill="none" stroke-width="1px" />
<path d="M 10.0 177.5 L 0.0 167.5 L 10.0 157.5" stroke="#969696" fill="none" stroke-width="1px" />
<path d="M 10.0 157.5 L 1795.0 157.5" stroke="#969696" fill="none" stroke-width="1px" />
<path d="M 1795.0 157.5 L 1805.0 147.5 L 1795.0 137.5" stroke="#969696" fill="none" stroke-width="1px" />
<path d="M 1795.0 137.5 L 10.0 137.5" stroke="#969696" fill="none" stroke-width="1px" />
<path d="M 10.0 137.5 L 0.0 127.5 L 10.0 117.5" stroke="#969696" fill="none" stroke-width="1px" />
<path d="M 10.0 117.5 L 1795.0 117.5" stroke="#969696" fill="none" stroke-width="1px" />
<path d="M 1795.0 117.5 L 1805.0 107.5 L 1795.0 97.5" stroke="#969696" fill="none" stroke-width="1px" />
<path d="M 1795.0 97.5 L 10.0 97.5" stroke="#969696" fill="none" stroke-width="1px" />
<path d="M 10.0 97.5 L 0.0 87.5 L 10.0 77.5" stroke="#969696" fill="none" stroke-width="1px" />
<path d="M 10.0 77.5 L 1795.0 77.5" stroke="#969696" fill="none" stroke-width="1px" />
<path d="M 1795.0 77.5 L 1805.0 67.5 L 1795.0 57.5" stroke="#969696" fill="none" stroke-width="1px" />
<path d="M 1795.0 57.5 L 10.0 57.5" stroke="#969696" fill="none" stroke-width="1px" />
<path d="M 10.0 57.5 L 0.0 47.5 L 10.0 37.5" stroke="#969696" fill="none" stroke-width="1px" />
<path d="M 10.0 37.5 L 1795.0 37.5" stroke="#969696" fill="none" stroke-width="1px" />
<path d="M 1795.0 37.5 L 1805.0 27.5 L 1795.0 17.5" stroke="#969696" fill="none" stroke-width="1px" />
<path d="M 1795.0 17.5 L 10.0 17.5" stroke="#969696" fill="none" stroke-width="1px" />
<path d="M 10.0 17.5 L 0.0 7.5 L 10.0 -2.5" stroke="#969696" fill="none" stroke-width="1px" />
<path d="M 10.0 -2.5 L 1795.0 -2.5" stroke="#969696" fill="none" stroke-width="1px" />
<path d="M 1795.0 -2.5 L 1805.0 -12.5 L 1795.0 -22.5" stroke="#969696" fill="none" stroke-width="1px" />
<path d="M 2884.54166667 257.5 L 2894.54166667 247.5 L 2884.54166667 237.5" stroke="#969696" fill="none" stroke-width="1px" />
<path d="M 2884.54166667 237.5 L 1715.0 237.5" stroke="#969696" fill="none" stroke-width="1px" />
<path d="M 1715.0 237.5 L 1705.0 227.5 L 1715.0 217.5" stroke="#969696" fill="none" stroke-width="1px" />
<path d="M 1715.0 217.5 L 2884.54166667 217.5" stroke="#969696" fill="none" stroke-width="1px" />
<path d="M 2884.54166667 217.5 L 2894.54166667 207.5 L 2884.54166667 197.5" stroke="#969696" fill="none" stroke-width="1px" />
<path d="M 2884.54166667 197.5 L 1715.0 197.5" stroke="#969696" fill="none" stroke-width="1px" />
<path d="M 1715.0 197.5 L 1705.0 187.5 L 1715.0 177.5" stroke="#969696" fill="none" stroke-width="1px" />
<path d="M 1715.0 177.5 L 2884.54166667 177.5" stroke="#969696" fill="none" stroke-width="1px" />
<path d="M 2884.54166667 177.5 L 2894.54166667 167.5 L 2884.54166667 157.5" stroke="#969696" fill="none" stroke-width="1px" />
<path d="M 2884.54166667 157.5 L 1715.0 157.5" stroke="#969696" fill="none" stroke-width="1px" />
<path d="M 1715.0 157.5 L 1705.0 147.5 L 1715.0 137.5" stroke="#969696" fill="none" stroke-width="1px" />
<path d="M 1715.0 137.5 L 2884.54166667 137.5" stroke="#969696" fill="none" stroke-width="1px" />
<path d="M 2884.54166667 137.5 L 2894.54166667 127.5 L 2884.54166667 117.5" stroke="#969696" fill="none" stroke-width="1px" />
<path d="M 2884.54166667 117.5 L 1715.0 117.5" stroke="#969696" fill="none" stroke-width="1px" />
<path d="M 1715.0 117.5 L 1705.0 107.5 L 1715.0 97.5" stroke="#969696" fill="none" stroke-width="1px" />
<path d="M 1715.0 97.5 L 2884.54166667 97.5" stroke="#969696" fill="none" stroke-width="1px" />
<path d="M 2884.54166667 97.5 L 2894.54166667 87.5 L 2884.54166667 77.5" stroke="#969696" fill="none" stroke-width="1px" />
<path d="M 2884.54166667 77.5 L 1715.0 77.5" stroke="#969696" fill="none" stroke-width="1px" />
<path d="M 1715.0 77.5 L 1705.0 67.5 L 1715.0 57.5" stroke="#969696" fill="none" stroke-width="1px" />
<path d="M 1715.0 57.5 L 2884.54166667 57.5" stroke="#969696" fill="none" stroke-width="1px" />
<path d="M 2884.54166667 57.5 L 2894.54166667 47.5 L 2884.54166667 37.5" stroke="#969696" fill="none" stroke-width="1px" />
<path d="M 2884.54166667 37.5 L 1715.0 37.5" stroke="#969696" fill="none" stroke-width="1px" />
<path d="M 1715.0 37.5 L 1705.0 27.5 L 1715.0 17.5" stroke="#969696" fill="none" stroke-width="1px" />
<path d="M 1715.0 17.5 L 2884.54166667 17.5" stroke="#969696" fill="none" stroke-width="1px" />
<path d="M 2884.54166667 17.5 L 2894.54166667 7.5 L 2884.54166667 -2.5" stroke="#969696" fill="none" stroke-width="1px" />
<path d="M 2884.54166667 -2.5 L 1715.0 -2.5" stroke="#969696" fill="none" stroke-width="1px" />
<path d="M 1715.0 -2.5 L 1705.0 -12.5 L 1715.0 -22.5" stroke="#969696" fill="none" stroke-width="1px" />
<path d="M 0.0 235.0 L 20.0 85.0" stroke="#0095FF" fill="none" stroke-width="2px" />
<path d="M 40.0 75.0 L 40.0 55.0" stroke="#0095FF" fill="none" stroke-width="2px" />
<path d="M 10.0 35.0 L 140.0 35.0" stroke="#0095FF" fill="none" stroke-width="2px" />
<path d="M 180.0 75.0 L 180.0 25.0" stroke="#0095FF" fill="none" stroke-width="2px" />
<path d="M 200.0 25.0 L 1000.0 115.0" stroke="#0095FF" fill="none" stroke-width="2px" />
<path d="M 1030.0 155.0 L 1030.0 105.0" stroke="#0095FF" fill="none" stroke-width="2px" />
<path d="M 1020.0 95.0 L 1120.0 85.0" stroke="#0095FF" fill="none" stroke-width="2px" />
<path d="M 1140.0 55.0 L 1140.0 95.0" stroke="#0095FF" fill="none" stroke-width="2px" />
<path d="M 1150.0 95.0 L 1410.0 195.0" stroke="#0095FF" fill="none" stroke-width="2px" />
<path d="M 1430.0 215.0 L 1430.0 185.0" stroke="#0095FF" fill="none" stroke-width="2px" />
<path d="M 2894.54166667 235.0 L 2720.0 135.0" stroke="#0095FF" fill="none" stroke-width="2px" />
<path d="M 2680.0 95.0 L 2680.0 75.0" stroke="#0095FF" fill="none" stroke-width="2px" />
<path d="M 2690.0 75.0 L 2670.0 55.0" stroke="#0095FF" fill="none" stroke-width="2px" />
<path d="M 2670.0 55.0 L 2730.0 75.0" stroke="#0095FF" fill="none" stroke-width="2px" />
<path d="M 2730.0 75.0 L 2750.0 95.0" stroke="#0095FF" fill="none" stroke-width="2px" />
<path d="M 2750.0 95.0 L 2730.0 125.0" stroke="#0095FF" fill="none" stroke-width="2px" />
<path d="M 2700.0 125.0 L 2150.0 45.0" stroke="#0095FF" fill="none" stroke-width="2px" />
<path d="M 2130.0 -5.0 L 2130.0 55.0" stroke="#0095FF" fill="none" stroke-width="2px" />
<path d="M 2120.0 75.0 L 2140.0 55.0" stroke="#0095FF" fill="none" stroke-width="2px" />
<path d="M 2140.0 55.0 L 2000.0 115.0" stroke="#0095FF" fill="none" stroke-width="2px" />
<path d="M 1970.0 135.0 L 1970.0 105.0" stroke="#0095FF" fill="none" stroke-width="2px" />
<path d="M 20.0 85.0 L 30.0 85.0" stroke="#FF0000" fill="none" stroke-width="4px" />
<path d="M 30.0 85.0 L 30.0 75.0" stroke="#FF0000" fill="none" stroke-width="4px" />
<path d="M 30.0 75.0 L 20.0 75.0" stroke="#FF0000" fill="none" stroke-width="4px" />
<path d="M 20.0 75.0 L 10.0 75.0" stroke="#FF0000" fill="none" stroke-width="4px" />
<path d="M 10.0 75.0 L 10.0 65.0" stroke="#FF0000" fill="none" stroke-width="4px" />
<path d="M 10.0 65.0 L 20.0 65.0" stroke="#FF0000" fill="none" stroke-width="4px" />
<path d="M 20.0 65.0 L 30.0 65.0" stroke="#FF0000" fill="none" stroke-width="4px" />
<path d="M 30.0 65.0 L 40.0 65.0" stroke="#FF0000" fill="none" stroke-width="4px" />
<path d="M 40.0 65.0 L 40.0 75.0" stroke="#FF0000" fill="none" stroke-width="4px" />
<path d="M 40.0 55.0 L 30.0 55.0" stroke="#FF0000" fill="none" stroke-width="4px" />
<path d="M 30.0 55.0 L 20.0 55.0" stroke="#FF0000" fill="none" stroke-width="4px" />
<path d="M 20.0 55.0 L 10.0 55.0" stroke="#FF0000" fill="none" stroke-width="4px" />
<path d="M 10.0 55.0 L 10.0 45.0" stroke="#FF0000" fill="none" stroke-width="4px" />
<path d="M 10.0 45.0 L 20.0 45.0" stroke="#FF0000" fill="none" stroke-width="4px" />
<path d="M 20.0 45.0 L 30.0 45.0" stroke="#FF0000" fill="none" stroke-width="4px" />
<path d="M 30.0 45.0 L 20.0 35.0" stroke="#FF0000" fill="none" stroke-width="4px" />
<path d="M 20.0 35.0 L 10.0 35.0" stroke="#FF0000" fill="none" stroke-width="4px" />
<path d="M 140.0 35.0 L 150.0 35.0" stroke="#FF0000" fill="none" stroke-width="4px" />
<path d="M 150.0 35.0 L 160.0 35.0" stroke="#FF0000" fill="none" stroke-width="4px" />
<path d="M 160.0 35.0 L 170.0 35.0" stroke="#FF0000" fill="none" stroke-width="4px" />
<path d="M 170.0 35.0 L 180.0 35.0" stroke="#FF0000" fill="none" stroke-width="4px" />
<path d="M 180.0 35.0 L 190.0 35.0" stroke="#FF0000" fill="none" stroke-width="4px" />
<path d="M 190.0 35.0 L 200.0 35.0" stroke="#FF0000" fill="none" stroke-width="4px" />
<path d="M 200.0 35.0 L 210.0 35.0" stroke="#FF0000" fill="none" stroke-width="4px" />
<path d="M 210.0 35.0 L 210.0 45.0" stroke="#FF0000" fill="none" stroke-width="4px" />
<path d="M 210.0 45.0 L 200.0 45.0" stroke="#FF0000" fill="none" stroke-width="4px" />
<path d="M 200.0 45.0 L 190.0 45.0" stroke="#FF0000" fill="none" stroke-width="4px" />
<path d="M 190.0 45.0 L 180.0 45.0" stroke="#FF0000" fill="none" stroke-width="4px" />
<path d="M 180.0 45.0 L 170.0 45.0" stroke="#FF0000" fill="none" stroke-width="4px" />
<path d="M 170.0 45.0 L 160.0 45.0" stroke="#FF0000" fill="none" stroke-width="4px" />
<path d="M 160.0 45.0 L 150.0 45.0" stroke="#FF0000" fill="none" stroke-width="4px" />
<path d="M 150.0 45.0 L 140.0 45.0" stroke="#FF0000" fill="none" stroke-width="4px" />
<path d="M 140.0 45.0 L 150.0 55.0" stroke="#FF0000" fill="none" stroke-width="4px" />
<path d="M 150.0 55.0 L 160.0 55.0" stroke="#FF0000" fill="none" stroke-width="4px" />
<path d="M 160.0 55.0 L 170.0 55.0" stroke="#FF0000" fill="none" stroke-width="4px" />
<path d="M 170.0 55.0 L 180.0 55.0" stroke="#FF0000" fill="none" stroke-width="4px" />
<path d="M 180.0 55.0 L 190.0 55.0" stroke="#FF0000" fill="none" stroke-width="4px" />
<path d="M 190.0 55.0 L 200.0 55.0" stroke="#FF0000" fill="none" stroke-width="4px" />
<path d="M 200.0 55.0 L 190.0 65.0" stroke="#FF0000" fill="none" stroke-width="4px" />
<path d="M 190.0 65.0 L 180.0 65.0" stroke="#FF0000" fill="none" stroke-width="4px" />
<path d="M 180.0 65.0 L 170.0 65.0" stroke="#FF0000" fill="none" stroke-width="4px" />
<path d="M 170.0 65.0 L 160.0 65.0" stroke="#FF0000" fill="none" stroke-width="4px" />
<path d="M 160.0 65.0 L 150.0 65.0" stroke="#FF0000" fill="none" stroke-width="4px" />
<path d="M 150.0 65.0 L 160.0 75.0" stroke="#FF0000" fill="none" stroke-width="4px" />
<path d="M 160.0 75.0 L 170.0 75.0" stroke="#FF0000" fill="none" stroke-width="4px" />
<path d="M 170.0 75.0 L 180.0 75.0" stroke="#FF0000" fill="none" stroke-width="4px" />
<path d="M 180.0 25.0 L 170.0 25.0" stroke="#FF0000" fill="none" stroke-width="4px" />
<path d="M 170.0 25.0 L 160.0 25.0" stroke="#FF0000" fill="none" stroke-width="4px" />
<path d="M 160.0 25.0 L 150.0 25.0" stroke="#FF0000" fill="none" stroke-width="4px" />
<path d="M 150.0 25.0 L 160.0 15.0" stroke="#FF0000" fill="none" stroke-width="4px" />
<path d="M 160.0 15.0 L 170.0 15.0" stroke="#FF0000" fill="none" stroke-width="4px" />
<path d="M 170.0 15.0 L 180.0 15.0" stroke="#FF0000" fill="none" stroke-width="4px" />
<path d="M 180.0 15.0 L 190.0 15.0" stroke="#FF0000" fill="none" stroke-width="4px" />
<path d="M 190.0 15.0 L 190.0 25.0" stroke="#FF0000" fill="none" stroke-width="4px" />
<path d="M 190.0 25.0 L 200.0 25.0" stroke="#FF0000" fill="none" stroke-width="4px" />
<path d="M 1000.0 115.0 L 1010.0 115.0" stroke="#FF0000" fill="none" stroke-width="4px" />
<path d="M 1010.0 115.0 L 1020.0 115.0" stroke="#FF0000" fill="none" stroke-width="4px" />
<path d="M 1020.0 115.0 L 1030.0 115.0" stroke="#FF0000" fill="none" stroke-width="4px" />
<path d="M 1030.0 115.0 L 1040.0 115.0" stroke="#FF0000" fill="none" stroke-width="4px" />
<path d="M 1040.0 115.0 L 1040.0 125.0" stroke="#FF0000" fill="none" stroke-width="4px" />
<path d="M 1040.0 125.0 L 1030.0 125.0" stroke="#FF0000" fill="none" stroke-width="4px" />
<path d="M 1030.0 125.0 L 1020.0 125.0" stroke="#FF0000" fill="none" stroke-width="4px" />
<path d="M 1020.0 125.0 L 1010.0 125.0" stroke="#FF0000" fill="none" stroke-width="4px" />
<path d="M 1010.0 125.0 L 1000.0 125.0" stroke="#FF0000" fill="none" stroke-width="4px" />
<path d="M 1000.0 125.0 L 1000.0 135.0" stroke="#FF0000" fill="none" stroke-width="4px" />
<path d="M 1000.0 135.0 L 1010.0 135.0" stroke="#FF0000" fill="none" stroke-width="4px" />
<path d="M 1010.0 135.0 L 1020.0 135.0" stroke="#FF0000" fill="none" stroke-width="4px" />
<path d="M 1020.0 135.0 L 1030.0 135.0" stroke="#FF0000" fill="none" stroke-width="4px" />
<path d="M 1030.0 135.0 L 1040.0 135.0" stroke="#FF0000" fill="none" stroke-width="4px" />
<path d="M 1040.0 135.0 L 1040.0 145.0" stroke="#FF0000" fill="none" stroke-width="4px" />
<path d="M 1040.0 145.0 L 1030.0 145.0" stroke="#FF0000" fill="none" stroke-width="4px" />
<path d="M 1030.0 145.0 L 1020.0 145.0" stroke="#FF0000" fill="none" stroke-width="4px" />
<path d="M 1020.0 145.0 L 1010.0 145.0" stroke="#FF0000" fill="none" stroke-width="4px" />
<path d="M 1010.0 145.0 L 1020.0 155.0" stroke="#FF0000" fill="none" stroke-width="4px" />
<path d="M 1020.0 155.0 L 1030.0 155.0" stroke="#FF0000" fill="none" stroke-width="4px" />
<path d="M 1030.0 105.0 L 1020.0 105.0" stroke="#FF0000" fill="none" stroke-width="4px" />
<path d="M 1020.0 105.0 L 1010.0 105.0" stroke="#FF0000" fill="none" stroke-width="4px" />
<path d="M 1010.0 105.0 L 1020.0 95.0" stroke="#FF0000" fill="none" stroke-width="4px" />
<path d="M 1120.0 85.0 L 1130.0 85.0" stroke="#FF0000" fill="none" stroke-width="4px" />
<path d="M 1130.0 85.0 L 1140.0 85.0" stroke="#FF0000" fill="none" stroke-width="4px" />
<path d="M 1140.0 85.0 L 1150.0 85.0" stroke="#FF0000" fill="none" stroke-width="4px" />
<path d="M 1150.0 85.0 L 1160.0 85.0" stroke="#FF0000" fill="none" stroke-width="4px" />
<path d="M 1160.0 85.0 L 1160.0 75.0" stroke="#FF0000" fill="none" stroke-width="4px" />
<path d="M 1160.0 75.0 L 1150.0 75.0" stroke="#FF0000" fill="none" stroke-width="4px" />
<path d="M 1150.0 75.0 L 1140.0 75.0" stroke="#FF0000" fill="none" stroke-width="4px" />
<path d="M 1140.0 75.0 L 1130.0 75.0" stroke="#FF0000" fill="none" stroke-width="4px" />
<path d="M 1130.0 75.0 L 1130.0 65.0" stroke="#FF0000" fill="none" stroke-width="4px" />
<path d="M 1130.0 65.0 L 1140.0 65.0" stroke="#FF0000" fill="none" stroke-width="4px" />
<path d="M 1140.0 65.0 L 1150.0 65.0" stroke="#FF0000" fill="none" stroke-width="4px" />
<path d="M 1150.0 65.0 L 1160.0 65.0" stroke="#FF0000" fill="none" stroke-width="4px" />
<path d="M 1160.0 65.0 L 1150.0 55.0" stroke="#FF0000" fill="none" stroke-width="4px" />
<path d="M 1150.0 55.0 L 1140.0 55.0" stroke="#FF0000" fill="none" stroke-width="4px" />
<path d="M 1140.0 95.0 L 1130.0 95.0" stroke="#FF0000" fill="none" stroke-width="4px" />
<path d="M 1130.0 95.0 L 1140.0 105.0" stroke="#FF0000" fill="none" stroke-width="4px" />
<path d="M 1140.0 105.0 L 1150.0 95.0" stroke="#FF0000" fill="none" stroke-width="4px" />
<path d="M 1410.0 195.0 L 1420.0 195.0" stroke="#FF0000" fill="none" stroke-width="4px" />
<path d="M 1420.0 195.0 L 1430.0 195.0" stroke="#FF0000" fill="none" stroke-width="4px" />
<path d="M 1430.0 195.0 L 1440.0 195.0" stroke="#FF0000" fill="none" stroke-width="4px" />
<path d="M 1440.0 195.0 L 1450.0 195.0" stroke="#FF0000" fill="none" stroke-width="4px" />
<path d="M 1450.0 195.0 L 1440.0 205.0" stroke="#FF0000" fill="none" stroke-width="4px" />
<path d="M 1440.0 205.0 L 1430.0 205.0" stroke="#FF0000" fill="none" stroke-width="4px" />
<path d="M 1430.0 205.0 L 1420.0 205.0" stroke="#FF0000" fill="none" stroke-width="4px" />
<path d="M 1420.0 205.0 L 1430.0 215.0" stroke="#FF0000" fill="none" stroke-width="4px" />
<path d="M 1430.0 185.0 L 1420.0 185.0" stroke="#FF0000" fill="none" stroke-width="4px" />
<path d="M 1420.0 185.0 L 1430.0 175.0" stroke="#FF0000" fill="none" stroke-width="4px" />
<path d="M 1430.0 175.0 L 1440.0 185.0" stroke="#FF0000" fill="none" stroke-width="4px" />
<path d="M 2720.0 135.0 L 2710.0 135.0" stroke="#FF0000" fill="none" stroke-width="4px" />
<path d="M 2710.0 135.0 L 2700.0 135.0" stroke="#FF0000" fill="none" stroke-width="4px" />
<path d="M 2700.0 135.0 L 2690.0 135.0" stroke="#FF0000" fill="none" stroke-width="4px" />
<path d="M 2690.0 135.0 L 2690.0 125.0" stroke="#FF0000" fill="none" stroke-width="4px" />
<path d="M 2690.0 125.0 L 2680.0 125.0" stroke="#FF0000" fill="none" stroke-width="4px" />
<path d="M 2680.0 125.0 L 2680.0 115.0" stroke="#FF0000" fill="none" stroke-width="4px" />
<path d="M 2680.0 115.0 L 2690.0 115.0" stroke="#FF0000" fill="none" stroke-width="4px" />
<path d="M 2690.0 115.0 L 2700.0 115.0" stroke="#FF0000" fill="none" stroke-width="4px" />
<path d="M 2700.0 115.0 L 2710.0 115.0" stroke="#FF0000" fill="none" stroke-width="4px" />
<path d="M 2710.0 115.0 L 2720.0 115.0" stroke="#FF0000" fill="none" stroke-width="4px" />
<path d="M 2720.0 115.0 L 2730.0 115.0" stroke="#FF0000" fill="none" stroke-width="4px" />
<path d="M 2730.0 115.0 L 2740.0 115.0" stroke="#FF0000" fill="none" stroke-width="4px" />
<path d="M 2740.0 115.0 L 2740.0 105.0" stroke="#FF0000" fill="none" stroke-width="4px" />
<path d="M 2740.0 105.0 L 2730.0 105.0" stroke="#FF0000" fill="none" stroke-width="4px" />
<path d="M 2730.0 105.0 L 2720.0 105.0" stroke="#FF0000" fill="none" stroke-width="4px" />
<path d="M 2720.0 105.0 L 2710.0 105.0" stroke="#FF0000" fill="none" stroke-width="4px" />
<path d="M 2710.0 105.0 L 2700.0 105.0" stroke="#FF0000" fill="none" stroke-width="4px" />
<path d="M 2700.0 105.0 L 2690.0 105.0" stroke="#FF0000" fill="none" stroke-width="4px" />
<path d="M 2690.0 105.0 L 2680.0 105.0" stroke="#FF0000" fill="none" stroke-width="4px" />
<path d="M 2680.0 105.0 L 2670.0 105.0" stroke="#FF0000" fill="none" stroke-width="4px" />
<path d="M 2670.0 105.0 L 2670.0 95.0" stroke="#FF0000" fill="none" stroke-width="4px" />
<path d="M 2670.0 95.0 L 2660.0 95.0" stroke="#FF0000" fill="none" stroke-width="4px" />
<path d="M 2660.0 95.0 L 2660.0 85.0" stroke="#FF0000" fill="none" stroke-width="4px" />
<path d="M 2660.0 85.0 L 2670.0 85.0" stroke="#FF0000" fill="none" stroke-width="4px" />
<path d="M 2670.0 85.0 L 2680.0 85.0" stroke="#FF0000" fill="none" stroke-width="4px" />
<path d="M 2680.0 85.0 L 2690.0 85.0" stroke="#FF0000" fill="none" stroke-width="4px" />
<path d="M 2690.0 85.0 L 2700.0 85.0" stroke="#FF0000" fill="none" stroke-width="4px" />
<path d="M 2700.0 85.0 L 2710.0 85.0" stroke="#FF0000" fill="none" stroke-width="4px" />
<path d="M 2710.0 85.0 L 2720.0 85.0" stroke="#FF0000" fill="none" stroke-width="4px" />
<path d="M 2720.0 85.0 L 2730.0 85.0" stroke="#FF0000" fill="none" stroke-width="4px" />
<path d="M 2730.0 85.0 L 2740.0 85.0" stroke="#FF0000" fill="none" stroke-width="4px" />
<path d="M 2740.0 85.0 L 2740.0 95.0" stroke="#FF0000" fill="none" stroke-width="4px" />
<path d="M 2740.0 95.0 L 2730.0 95.0" stroke="#FF0000" fill="none" stroke-width="4px" />
<path d="M 2730.0 95.0 L 2720.0 95.0" stroke="#FF0000" fill="none" stroke-width="4px" />
<path d="M 2720.0 95.0 L 2710.0 95.0" stroke="#FF0000" fill="none" stroke-width="4px" />
<path d="M 2710.0 95.0 L 2700.0 95.0" stroke="#FF0000" fill="none" stroke-width="4px" />
<path d="M 2700.0 95.0 L 2690.0 95.0" stroke="#FF0000" fill="none" stroke-width="4px" />
<path d="M 2690.0 95.0 L 2680.0 95.0" stroke="#FF0000" fill="none" stroke-width="4px" />
<path d="M 2680.0 75.0 L 2670.0 75.0" stroke="#FF0000" fill="none" stroke-width="4px" />
<path d="M 2670.0 75.0 L 2660.0 75.0" stroke="#FF0000" fill="none" stroke-width="4px" />
<path d="M 2660.0 75.0 L 2650.0 75.0" stroke="#FF0000" fill="none" stroke-width="4px" />
<path d="M 2650.0 75.0 L 2660.0 65.0" stroke="#FF0000" fill="none" stroke-width="4px" />
<path d="M 2660.0 65.0 L 2670.0 65.0" stroke="#FF0000" fill="none" stroke-width="4px" />
<path d="M 2670.0 65.0 L 2680.0 65.0" stroke="#FF0000" fill="none" stroke-width="4px" />
<path d="M 2680.0 65.0 L 2690.0 65.0" stroke="#FF0000" fill="none" stroke-width="4px" />
<path d="M 2690.0 65.0 L 2700.0 65.0" stroke="#FF0000" fill="none" stroke-width="4px" />
<path d="M 2700.0 65.0 L 2710.0 65.0" stroke="#FF0000" fill="none" stroke-width="4px" />
<path d="M 2710.0 65.0 L 2720.0 65.0" stroke="#FF0000" fill="none" stroke-width="4px" />
<path d="M 2720.0 65.0 L 2720.0 75.0" stroke="#FF0000" fill="none" stroke-width="4px" />
<path d="M 2720.0 75.0 L 2710.0 75.0" stroke="#FF0000" fill="none" stroke-width="4px" />
<path d="M 2710.0 75.0 L 2700.0 75.0" stroke="#FF0000" fill="none" stroke-width="4px" />
<path d="M 2700.0 75.0 L 2690.0 75.0" stroke="#FF0000" fill="none" stroke-width="4px" />
<path d="M 2730.0 125.0 L 2720.0 125.0" stroke="#FF0000" fill="none" stroke-width="4px" />
<path d="M 2720.0 125.0 L 2710.0 125.0" stroke="#FF0000" fill="none" stroke-width="4px" />
<path d="M 2710.0 125.0 L 2700.0 125.0" stroke="#FF0000" fill="none" stroke-width="4px" />
<path d="M 2150.0 45.0 L 2140.0 45.0" stroke="#FF0000" fill="none" stroke-width="4px" />
<path d="M 2140.0 45.0 L 2130.0 45.0" stroke="#FF0000" fill="none" stroke-width="4px" />
<path d="M 2130.0 45.0 L 2120.0 45.0" stroke="#FF0000" fill="none" stroke-width="4px" />
<path d="M 2120.0 45.0 L 2110.0 45.0" stroke="#FF0000" fill="none" stroke-width="4px" />
<path d="M 2110.0 45.0 L 2100.0 45.0" stroke="#FF0000" fill="none" stroke-width="4px" />
<path d="M 2100.0 45.0 L 2090.0 45.0" stroke="#FF0000" fill="none" stroke-width="4px" />
<path d="M 2090.0 45.0 L 2080.0 45.0" stroke="#FF0000" fill="none" stroke-width="4px" />
<path d="M 2080.0 45.0 L 2080.0 35.0" stroke="#FF0000" fill="none" stroke-width="4px" />
<path d="M 2080.0 35.0 L 2090.0 35.0" stroke="#FF0000" fill="none" stroke-width="4px" />
<path d="M 2090.0 35.0 L 2100.0 35.0" stroke="#FF0000" fill="none" stroke-width="4px" />
<path d="M 2100.0 35.0 L 2110.0 35.0" stroke="#FF0000" fill="none" stroke-width="4px" />
<path d="M 2110.0 35.0 L 2120.0 35.0" stroke="#FF0000" fill="none" stroke-width="4px" />
<path d="M 2120.0 35.0 L 2130.0 35.0" stroke="#FF0000" fill="none" stroke-width="4px" />
<path d="M 2130.0 35.0 L 2140.0 35.0" stroke="#FF0000" fill="none" stroke-width="4px" />
<path d="M 2140.0 35.0 L 2150.0 35.0" stroke="#FF0000" fill="none" stroke-width="4px" />
<path d="M 2150.0 35.0 L 2140.0 25.0" stroke="#FF0000" fill="none" stroke-width="4px" />
<path d="M 2140.0 25.0 L 2130.0 25.0" stroke="#FF0000" fill="none" stroke-width="4px" />
<path d="M 2130.0 25.0 L 2120.0 25.0" stroke="#FF0000" fill="none" stroke-width="4px" />
<path d="M 2120.0 25.0 L 2110.0 25.0" stroke="#FF0000" fill="none" stroke-width="4px" />
<path d="M 2110.0 25.0 L 2100.0 25.0" stroke="#FF0000" fill="none" stroke-width="4px" />
<path d="M 2100.0 25.0 L 2090.0 25.0" stroke="#FF0000" fill="none" stroke-width="4px" />
<path d="M 2090.0 25.0 L 2080.0 25.0" stroke="#FF0000" fill="none" stroke-width="4px" />
<path d="M 2080.0 25.0 L 2070.0 25.0" stroke="#FF0000" fill="none" stroke-width="4px" />
<path d="M 2070.0 25.0 L 2080.0 15.0" stroke="#FF0000" fill="none" stroke-width="4px" />
<path d="M 2080.0 15.0 L 2090.0 15.0" stroke="#FF0000" fill="none" stroke-width="4px" />
<path d="M 2090.0 15.0 L 2100.0 15.0" stroke="#FF0000" fill="none" stroke-width="4px" />
<path d="M 2100.0 15.0 L 2110.0 15.0" stroke="#FF0000" fill="none" stroke-width="4px" />
<path d="M 2110.0 15.0 L 2120.0 15.0" stroke="#FF0000" fill="none" stroke-width="4px" />
<path d="M 2120.0 15.0 L 2130.0 15.0" stroke="#FF0000" fill="none" stroke-width="4px" />
<path d="M 2130.0 15.0 L 2140.0 15.0" stroke="#FF0000" fill="none" stroke-width="4px" />
<path d="M 2140.0 15.0 L 2130.0 5.0" stroke="#FF0000" fill="none" stroke-width="4px" />
<path d="M 2130.0 5.0 L 2120.0 5.0" stroke="#FF0000" fill="none" stroke-width="4px" />
<path d="M 2120.0 5.0 L 2110.0 5.0" stroke="#FF0000" fill="none" stroke-width="4px" />
<path d="M 2110.0 5.0 L 2100.0 5.0" stroke="#FF0000" fill="none" stroke-width="4px" />
<path d="M 2100.0 5.0 L 2090.0 5.0" stroke="#FF0000" fill="none" stroke-width="4px" />
<path d="M 2090.0 5.0 L 2090.0 -5.0" stroke="#FF0000" fill="none" stroke-width="4px" />
<path d="M 2090.0 -5.0 L 2100.0 -5.0" stroke="#FF0000" fill="none" stroke-width="4px" />
<path d="M 2100.0 -5.0 L 2110.0 -5.0" stroke="#FF0000" fill="none" stroke-width="4px" />
<path d="M 2110.0 -5.0 L 2120.0 -5.0" stroke="#FF0000" fill="none" stroke-width="4px" />
<path d="M 2120.0 -5.0 L 2130.0 -5.0" stroke="#FF0000" fill="none" stroke-width="4px" />
<path d="M 2130.0 55.0 L 2120.0 55.0" stroke="#FF0000" fill="none" stroke-width="4px" />
<path d="M 2120.0 55.0 L 2110.0 55.0" stroke="#FF0000" fill="none" stroke-width="4px" />
<path d="M 2110.0 55.0 L 2100.0 55.0" stroke="#FF0000" fill="none" stroke-width="4px" />
<path d="M 2100.0 55.0 L 2090.0 55.0" stroke="#FF0000" fill="none" stroke-width="4px" />
<path d="M 2090.0 55.0 L 2100.0 65.0" stroke="#FF0000" fill="none" stroke-width="4px" />
<path d="M 2100.0 65.0 L 2110.0 65.0" stroke="#FF0000" fill="none" stroke-width="4px" />
<path d="M 2110.0 65.0 L 2120.0 65.0" stroke="#FF0000" fill="none" stroke-width="4px" />
<path d="M 2120.0 65.0 L 2130.0 65.0" stroke="#FF0000" fill="none" stroke-width="4px" />
<path d="M 2130.0 65.0 L 2120.0 75.0" stroke="#FF0000" fill="none" stroke-width="4px" />
<path d="M 2000.0 115.0 L 1990.0 115.0" stroke="#FF0000" fill="none" stroke-width="4px" />
<path d="M 1990.0 115.0 L 1980.0 115.0" stroke="#FF0000" fill="none" stroke-width="4px" />
<path d="M 1980.0 115.0 L 1970.0 115.0" stroke="#FF0000" fill="none" stroke-width="4px" />
<path d="M 1970.0 115.0 L 1960.0 115.0" stroke="#FF0000" fill="none" stroke-width="4px" />
<path d="M 1960.0 115.0 L 1960.0 125.0" stroke="#FF0000" fill="none" stroke-width="4px" />
<path d="M 1960.0 125.0 L 1970.0 125.0" stroke="#FF0000" fill="none" stroke-width="4px" />
<path d="M 1970.0 125.0 L 1980.0 125.0" stroke="#FF0000" fill="none" stroke-width="4px" />
<path d="M 1980.0 125.0 L 1990.0 125.0" stroke="#FF0000" fill="none" stroke-width="4px" />
<path d="M 1990.0 125.0 L 1980.0 135.0" stroke="#FF0000" fill="none" stroke-width="4px" />
<path d="M 1980.0 135.0 L 1970.0 135.0" stroke="#FF0000" fill="none" stroke-width="4px" />
<path d="M 1970.0 105.0 L 1980.0 105.0" stroke="#FF0000" fill="none" stroke-width="4px" />
<path d="M 1980.0 105.0 L 1990.0 105.0" stroke="#FF0000" fill="none" stroke-width="4px" />
<path d="M 1990.0 105.0 L 1980.0 95.0" stroke="#FF0000" fill="none" stroke-width="4px" />
<path d="M 1980.0 95.0 L 1970.0 95.0" stroke="#FF0000" fill="none" stroke-width="4px" />
</svg>