<svg width="1755.23333333" height="235.0" xmlns="http://www.w3.org/2000/svg" version="1.1">
<path d="M 0.0 235.0 L 1755.23333333 235.0 L 1755.23333333 0.0 L 0.0 0.0 L 0.0 235.0" stroke="#000000" fill="none" stroke-width="3px" />
<path d="M 10.0 257.5 L 0.0 247.5 L 10.0 237.5" stroke="#969696" fill="none" stroke-width="1px" />
<path d="M 10.0 237.5 L 1745.23333333 237.5" stroke="#969696" fill="none" stroke-width="1px" />
<path d="M 1745.23333333 237.5 L 1755.23333333 227.5 L 1745.23333333 217.5" stroke="#969696" fill="none" stroke-width="1px" />
<path d="M 1745.23333333 217.5 L 10.0 217.5" stroke="#969696" fill="none" stroke-width="1px" />
<path d="M 10.0 217.5 L 0.0 207.5 L 10.0 197.5" stroke="#969696" fill="none" stroke-width="1px" />
<path d="M 10.0 197.5 L 1745.23333333 197.5" stroke="#969696" fill="none" stroke-width="1px" />
<path d="M 1745.23333333 197.5 L 1755.23333333 187.5 L 1745.23333333 177.5" stroke="#969696" fill="none" stroke-width="1px" />
<path d="M 1745.23333333 177.5 L 10.0 177.5" stroke="#969696" fill="none" stroke-width="1px" />
<path d="M 10.0 177.5 L 0.0 167.5 L 10.0 157.5" stroke="#969696" fill="none" stroke-width="1px" />
<path d="M 10.0 157.5 L 1745.23333333 157.5" stroke="#969696" fill="none" stroke-width="1px" />
<path d="M 1745.23333333 157.5 L 1755.23333333 147.5 L 1745.23333333 137.5" stroke="#969696" fill="none" stroke-width="1px" />
<path d="M 1745.23333333 137.5 L 10.0 137.5" stroke="#969696" fill="none" stroke-width="1px" />
<path d="M 10.0 137.5 L 0.0 127.5 L 10.0 117.5" stroke="#969696" fill="none" stroke-width="1px" />
<path d="M 10.0 117.5 L 1745.23333333 117.5" stroke="#969696" fill="none" stroke-width="1px" />
<path d="M 1745.23333333 117.5 L 1755.23333333 107.5 L 1745.23333333 97.5" stroke="#969696" fill="none" stroke-width="1px" />
<path d="M 1745.23333333 97.5 L 10.0 97.5" stroke="#969696" fill="none" stroke-width="1px" />
<path d="M 10.0 97.5 L 0.0 87.5 L 10.0 77.5" stroke="#969696" fill="none" stroke-width="1px" />
<path d="M 10.0 77.5 L 1745.23333333 77.5" stroke="#969696" fill="none" stroke-width="1px" />
<path d="M 1745.23333333 77.5 L 1755.23333333 67.5 L 1745.23333333 57.5" stroke="#969696" fill="none" stroke-width="1px" />
<path d="M 1745.23333333 57.5 L 10.0 57.5" stroke="#969696" fill="none" stroke-width="1px" />
<path d="M 10.0 57.5 L 0.0 47.5 L 10.0 37.5" stroke="#969696" fill="none" stroke-width="1px" />
<path d="M 10.0 37.5 L 1745.23333333 37.5" stroke="#969696" fill="none" stroke-width="1px" />
<path d="M 1745.23333333 37.5 L 1755.23333333 27.5 L 1745.23333333 17.5" stroke="#969696" fill="none" stroke-width="1px" />
<path d="M 1745.23333333 17.5 L 10.0 17.5" stroke="#969696" fill="none" stroke-width="1px" />
<path d="M 10.0 17.5 L 0.0 7.5 L 10.0 -2.5" stroke="#969696" fill="none" stroke-width="1px" />
<path d="M 10.0 -2.5 L 1745.23333333 -2.5" stroke="#969696" fill="none" stroke-width="1px" />
<path d="M 1745.23333333 -2.5 L 1755.23333333 -12.5 L 1745.23333333 -22.5" stroke="#969696" fill="none" stroke-width="1px" />
<path d="M 0.0 235.0 L 10.0 205.0" stroke="#0095FF" fill="none" stroke-width="2px" />
<path d="M 70.0 105.0 L 50.0 125.0" stroke="#0095FF" fill="none" stroke-width="2px" />
<path d="M 50.0 125.0 L 50.0 85.0" stroke="#0095FF" fill="none" stroke-width="2px" />
<path d="M 50.0 85.0 L 510.0 85.0" stroke="#0095FF" fill="none" stroke-width="2px" />
<path d="M 540.0 115.0 L 570.0 125.0" stroke="#0095FF" fill="none" stroke-width="2px" />
<path d="M 580.0 135.0 L 610.0 95.0" stroke="#0095FF" fill="none" stroke-width="2px" />
<path d="M 610.0 95.0 L 590.0 75.0" stroke="#0095FF" fill="none" stroke-width="2px" />
<path d="M 580.0 65.0 L 550.0 55.0" stroke="#0095FF" fill="none" stroke-width="2px" />
<path d="M 520.0 55.0 L 780.0 145.0" stroke="#0095FF" fill="none" stroke-width="2px" />
<path d="M 810.0 115.0 L 810.0 155.0" stroke="#0095FF" fill="none" stroke-width="2px" />
<path d="M 830.0 155.0 L 810.0 175.0" stroke="#0095FF" fill="none" stroke-width="2px" />
<path d="M 800.0 175.0 L 1420.0 165.0" stroke="#0095FF" fill="none" stroke-width="2px" />
<path d="M 1460.0 155.0 L 1460.0 135.0" stroke="#0095FF" fill="none" stroke-width="2px" />
<path d="M 1450.0 125.0 L 1440.0 175.0" stroke="#0095FF" fill="none" stroke-width="2px" />
<path d="M 1430.0 175.0 L 1540.0 165.0" stroke="#0095FF" fill="none" stroke-width="2px" />
<path d="M 1590.0 195.0 L 1620.0 175.0" stroke="#0095FF" fill="none" stroke-width="2px" />
<path d="M 1620.0 175.0 L 1610.0 155.0" stroke="#0095FF" fill="none" stroke-width="2px" />
<path d="M 1560.0 145.0 L 1590.0 145.0" stroke="#0095FF" fill="none" stroke-width="2px" />
<path d="M 10.0 205.0 L 10.0 195.0" stroke="#FF0000" fill="none" stroke-width="4px" />
<path d="M 10.0 195.0 L 20.0 195.0" stroke="#FF0000" fill="none" stroke-width="4px" />
<path d="M 20.0 195.0 L 20.0 185.0" stroke="#FF0000" fill="none" stroke-width="4px" />
<path d="M 20.0 185.0 L 10.0 185.0" stroke="#FF0000" fill="none" stroke-width="4px" />
<path d="M 10.0 185.0 L 10.0 175.0" stroke="#FF0000" fill="none" stroke-width="4px" />
<path d="M 10.0 175.0 L 20.0 175.0" stroke="#FF0000" fill="none" stroke-width="4px" />
<path d="M 20.0 175.0 L 30.0 175.0" stroke="#FF0000" fill="none" stroke-width="4px" />
<path d="M 30.0 175.0 L 30.0 165.0" stroke="#FF0000" fill="none" stroke-width="4px" />
<path d="M 30.0 165.0 L 20.0 165.0" stroke="#FF0000" fill="none" stroke-width="4px" />
<path d="M 20.0 165.0 L 10.0 165.0" stroke="#FF0000" fill="none" stroke-width="4px" />
<path d="M 10.0 165.0 L 10.0 155.0" stroke="#FF0000" fill="none" stroke-width="4px" />
<path d="M 10.0 155.0 L 20.0 155.0" stroke="#FF0000" fill="none" stroke-width="4px" />
<path d="M 20.0 155.0 L 30.0 155.0" stroke="#FF0000" fill="none" stroke-width="4px" />
<path d="M 30.0 155.0 L 30.0 145.0" stroke="#FF0000" fill="none" stroke-width="4px" />
<path d="M 30.0 145.0 L 20.0 145.0" stroke="#FF0000" fill="none" stroke-width="4px" />
<path d="M 20.0 145.0 L 10.0 145.0" stroke="#FF0000" fill="none" stroke-width="4px" />
<path d="M 10.0 145.0 L 10.0 135.0" stroke="#FF0000" fill="none" stroke-width="4px" />
<path d="M 10.0 135.0 L 20.0 135.0" stroke="#FF0000" fill="none" stroke-width="4px" />
<path d="M 20.0 135.0 L 30.0 135.0" stroke="#FF0000" fill="none" stroke-width="4px" />
<path d="M 30.0 135.0 L 40.0 135.0" stroke="#FF0000" fill="none" stroke-width="4px" />
<path d="M 40.0 135.0 L 40.0 125.0" stroke="#FF0000" fill="none" stroke-width="4px" />
<path d="M 40.0 125.0 L 30.0 125.0" stroke="#FF0000" fill="none" stroke-width="4px" />
<path d="M 30.0 125.0 L 20.0 125.0" stroke="#FF0000" fill="none" stroke-width="4px" />
<path d="M 20.0 125.0 L 10.0 125.0" stroke="#FF0000" fill="none" stroke-width="4px" />
<path d="M 10.0 125.0 L 10.0 115.0" stroke="#FF0000" fill="none" stroke-width="4px" />
<path d="M 10.0 115.0 L 20.0 115.0" stroke="#FF0000" fill="none" stroke-width="4px" />
<path d="M 20.0 115.0 L 30.0 115.0" stroke="#FF0000" fill="none" stroke-width="4px" />
<path d="M 30.0 115.0 L 40.0 115.0" stroke="#FF0000" fill="none" stroke-width="4px" />
<path d="M 40.0 115.0 L 50.0 115.0" stroke="#FF0000" fill="none" stroke-width="4px" />
<path d="M 50.0 115.0 L 60.0 115.0" stroke="#FF0000" fill="none" stroke-width="4px" />
<path d="M 60.0 115.0 L 60.0 105.0" stroke="#FF0000" fill="none" stroke-width="4px" />
<path d="M 60.0 105.0 L 50.0 105.0" stroke="#FF0000" fill="none" stroke-width="4px" />
<path d="M 50.0 105.0 L 40.0 105.0" stroke="#FF0000" fill="none" stroke-width="4px" />
<path d="M 40.0 105.0 L 30.0 105.0" stroke="#FF0000" fill="none" stroke-width="4px" />
<path d="M 30.0 105.0 L 40.0 95.0" stroke="#FF0000" fill="none" stroke-width="4px" />
<path d="M 40.0 95.0 L 50.0 95.0" stroke="#FF0000" fill="none" stroke-width="4px" />
<path d="M 50.0 95.0 L 60.0 95.0" stroke="#FF0000" fill="none" stroke-width="4px" />
<path d="M 60.0 95.0 L 70.0 105.0" stroke="#FF0000" fill="none" stroke-width="4px" />
<path d="M 510.0 85.0 L 520.0 85.0" stroke="#FF0000" fill="none" stroke-width="4px" />
<path d="M 520.0 85.0 L 530.0 85.0" stroke="#FF0000" fill="none" stroke-width="4px" />
<path d="M 530.0 85.0 L 540.0 85.0" stroke="#FF0000" fill="none" stroke-width="4px" />
<path d="M 540.0 85.0 L 550.0 85.0" stroke="#FF0000" fill="none" stroke-width="4px" />
<path d="M 550.0 85.0 L 560.0 85.0" stroke="#FF0000" fill="none" stroke-width="4px" />
<path d="M 560.0 85.0 L 570.0 85.0" stroke="#FF0000" fill="none" stroke-width="4px" />
<path d="M 570.0 85.0 L 580.0 85.0" stroke="#FF0000" fill="none" stroke-width="4px" />
<path d="M 580.0 85.0 L 590.0 85.0" stroke="#FF0000" fill="none" stroke-width="4px" />
<path d="M 590.0 85.0 L 600.0 85.0" stroke="#FF0000" fill="none" stroke-width="4px" />
<path d="M 600.0 85.0 L 600.0 95.0" stroke="#FF0000" fill="none" stroke-width="4px" />
<path d="M 600.0 95.0 L 590.0 95.0" stroke="#FF0000" fill="none" stroke-width="4px" />
<path d="M 590.0 95.0 L 580.0 95.0" stroke="#FF0000" fill="none" stroke-width="4px" />
<path d="M 580.0 95.0 L 570.0 95.0" stroke="#FF0000" fill="none" stroke-width="4px" />
<path d="M 570.0 95.0 L 560.0 95.0" stroke="#FF0000" fill="none" stroke-width="4px" />
<path d="M 560.0 95.0 L 550.0 95.0" stroke="#FF0000" fill="none" stroke-width="4px" />
<path d="M 550.0 95.0 L 540.0 95.0" stroke="#FF0000" fill="none" stroke-width="4px" />
<path d="M 540.0 95.0 L 530.0 95.0" stroke="#FF0000" fill="none" stroke-width="4px" />
<path d="M 530.0 95.0 L 520.0 95.0" stroke="#FF0000" fill="none" stroke-width="4px" />
<path d="M 520.0 95.0 L 530.0 105.0" stroke="#FF0000" fill="none" stroke-width="4px" />
<path d="M 530.0 105.0 L 540.0 105.0" stroke="#FF0000" fill="none" stroke-width="4px" />
<path d="M 540.0 105.0 L 550.0 105.0" stroke="#FF0000" fill="none" stroke-width="4px" />
<path d="M 550.0 105.0 L 560.0 105.0" stroke="#FF0000" fill="none" stroke-width="4px" />
<path d="M 560.0 105.0 L 570.0 105.0" stroke="#FF0000" fill="none" stroke-width="4px" />
<path d="M 570.0 105.0 L 580.0 105.0" stroke="#FF0000" fill="none" stroke-width="4px" />
<path d="M 580.0 105.0 L 590.0 105.0" stroke="#FF0000" fill="none" stroke-width="4px" />
<path d="M 590.0 105.0 L 600.0 105.0" stroke="#FF0000" fill="none" stroke-width="4px" />
<path d="M 600.0 105.0 L 610.0 105.0" stroke="#FF0000" fill="none" stroke-width="4px" />
<path d="M 610.0 105.0 L 610.0 115.0" stroke="#FF0000" fill="none" stroke-width="4px" />
<path d="M 610.0 115.0 L 600.0 115.0" stroke="#FF0000" fill="none" stroke-width="4px" />
<path d="M 600.0 115.0 L 590.0 115.0" stroke="#FF0000" fill="none" stroke-width="4px" />
<path d="M 590.0 115.0 L 580.0 115.0" stroke="#FF0000" fill="none" stroke-width="4px" />
<path d="M 580.0 115.0 L 570.0 115.0" stroke="#FF0000" fill="none" stroke-width="4px" />
<path d="M 570.0 115.0 L 560.0 115.0" stroke="#FF0000" fill="none" stroke-width="4px" />
<path d="M 560.0 115.0 L 550.0 115.0" stroke="#FF0000" fill="none" stroke-width="4px" />
<path d="M 550.0 115.0 L 540.0 115.0" stroke="#FF0000" fill="none" stroke-width="4px" />
<path d="M 570.0 125.0 L 580.0 125.0" stroke="#FF0000" fill="none" stroke-width="4px" />
<path d="M 580.0 125.0 L 590.0 125.0" stroke="#FF0000" fill="none" stroke-width="4px" />
<path d="M 590.0 125.0 L 600.0 125.0" stroke="#FF0000" fill="none" stroke-width="4px" />
<path d="M 600.0 125.0 L 590.0 135.0" stroke="#FF0000" fill="none" stroke-width="4px" />
<path d="M 590.0 135.0 L 580.0 135.0" stroke="#FF0000" fill="none" stroke-width="4px" />
<path d="M 590.0 75.0 L 580.0 75.0" stroke="#FF0000" fill="none" stroke-width="4px" />
<path d="M 580.0 75.0 L 570.0 75.0" stroke="#FF0000" fill="none" stroke-width="4px" />
<path d="M 570.0 75.0 L 560.0 75.0" stroke="#FF0000" fill="none" stroke-width="4px" />
<path d="M 560.0 75.0 L 550.0 75.0" stroke="#FF0000" fill="none" stroke-width="4px" />
<path d="M 550.0 75.0 L 540.0 75.0" stroke="#FF0000" fill="none" stroke-width="4px" />
<path d="M 540.0 75.0 L 530.0 75.0" stroke="#FF0000" fill="none" stroke-width="4px" />
<path d="M 530.0 75.0 L 520.0 75.0" stroke="#FF0000" fill="none" stroke-width="4px" />
<path d="M 520.0 75.0 L 510.0 75.0" stroke="#FF0000" fill="none" stroke-width="4px" />
<path d="M 510.0 75.0 L 510.0 65.0" stroke="#FF0000" fill="none" stroke-width="4px" />
<path d="M 510.0 65.0 L 520.0 65.0" stroke="#FF0000" fill="none" stroke-width="4px" />
<path d="M 520.0 65.0 L 530.0 65.0" stroke="#FF0000" fill="none" stroke-width="4px" />
<path d="M 530.0 65.0 L 540.0 65.0" stroke="#FF0000" fill="none" stroke-width="4px" />
<path d="M 540.0 65.0 L 550.0 65.0" stroke="#FF0000" fill="none" stroke-width="4px" />
<path d="M 550.0 65.0 L 560.0 65.0" stroke="#FF0000" fill="none" stroke-width="4px" />
<path d="M 560.0 65.0 L 570.0 65.0" stroke="#FF0000" fill="none" stroke-width="4px" />
<path d="M 570.0 65.0 L 580.0 65.0" stroke="#FF0000" fill="none" stroke-width="4px" />
<path d="M 550.0 55.0 L 540.0 55.0" stroke="#FF0000" fill="none" stroke-width="4px" />
<path d="M 540.0 55.0 L 530.0 55.0" stroke="#FF0000" fill="none" stroke-width="4px" />
<path d="M 530.0 55.0 L 520.0 55.0" stroke="#FF0000" fill="none" stroke-width="4px" />
<path d="M 780.0 145.0 L 790.0 145.0" stroke="#FF0000" fill="none" stroke-width="4px" />
<path d="M 790.0 145.0 L 800.0 145.0" stroke="#FF0000" fill="none" stroke-width="4px" />
<path d="M 800.0 145.0 L 810.0 145.0" stroke="#FF0000" fill="none" stroke-width="4px" />
<path d="M 810.0 145.0 L 820.0 145.0" stroke="#FF0000" fill="none" stroke-width="4px" />
<path d="M 820.0 145.0 L 830.0 145.0" stroke="#FF0000" fill="none" stroke-width="4px" />
<path d="M 830.0 145.0 L 840.0 145.0" stroke="#FF0000" fill="none" stroke-width="4px" />
<path d="M 840.0 145.0 L 840.0 135.0" stroke="#FF0000" fill="none" stroke-width="4px" />
<path d="M 840.0 135.0 L 830.0 135.0" stroke="#FF0000" fill="none" stroke-width="4px" />
<path d="M 830.0 135.0 L 820.0 135.0" stroke="#FF0000" fill="none" stroke-width="4px" />
<path d="M 820.0 135.0 L 810.0 135.0" stroke="#FF0000" fill="none" stroke-width="4px" />
<path d="M 810.0 135.0 L 800.0 135.0" stroke="#FF0000" fill="none" stroke-width="4px" />
<path d="M 800.0 135.0 L 790.0 135.0" stroke="#FF0000" fill="none" stroke-width="4px" />
<path d="M 790.0 135.0 L 800.0 125.0" stroke="#FF0000" fill="none" stroke-width="4px" />
<path d="M 800.0 125.0 L 810.0 125.0" stroke="#FF0000" fill="none" stroke-width="4px" />
<path d="M 810.0 125.0 L 820.0 125.0" stroke="#FF0000" fill="none" stroke-width="4px" />
<path d="M 820.0 125.0 L 830.0 125.0" stroke="#FF0000" fill="none" stroke-width="4px" />
<path d="M 830.0 125.0 L 820.0 115.0" stroke="#FF0000" fill="none" stroke-width="4px" />
<path d="M 820.0 115.0 L 810.0 115.0" stroke="#FF0000" fill="none" stroke-width="4px" />
<path d="M 810.0 155.0 L 800.0 155.0" stroke="#FF0000" fill="none" stroke-width="4px" />
<path d="M 800.0 155.0 L 790.0 155.0" stroke="#FF0000" fill="none" stroke-width="4px" />
<path d="M 790.0 155.0 L 780.0 155.0" stroke="#FF0000" fill="none" stroke-width="4px" />
<path d="M 780.0 155.0 L 790.0 165.0" stroke="#FF0000" fill="none" stroke-width="4px" />
<path d="M 790.0 165.0 L 800.0 165.0" stroke="#FF0000" fill="none" stroke-width="4px" />
<path d="M 800.0 165.0 L 810.0 165.0" stroke="#FF0000" fill="none" stroke-width="4px" />
<path d="M 810.0 165.0 L 820.0 165.0" stroke="#FF0000" fill="none" stroke-width="4px" />
<path d="M 820.0 165.0 L 820.0 155.0" stroke="#FF0000" fill="none" stroke-width="4px" />
<path d="M 820.0 155.0 L 830.0 155.0" stroke="#FF0000" fill="none" stroke-width="4px" />
<path d="M 810.0 175.0 L 800.0 175.0" stroke="#FF0000" fill="none" stroke-width="4px" />
<path d="M 1420.0 165.0 L 1430.0 165.0" stroke="#FF0000" fill="none" stroke-width="4px" />
<path d="M 1430.0 165.0 L 1440.0 165.0" stroke="#FF0000" fill="none" stroke-width="4px" />
<path d="M 1440.0 165.0 L 1450.0 165.0" stroke="#FF0000" fill="none" stroke-width="4px" />
<path d="M 1450.0 165.0 L 1450.0 155.0" stroke="#FF0000" fill="none" stroke-width="4px" />
<path d="M 1450.0 155.0 L 1440.0 155.0" stroke="#FF0000" fill="none" stroke-width="4px" />
<path d="M 1440.0 155.0 L 1430.0 155.0" stroke="#FF0000" fill="none" stroke-width="4px" />
<path d="M 1430.0 155.0 L 1420.0 155.0" stroke="#FF0000" fill="none" stroke-width="4px" />
<path d="M 1420.0 155.0 L 1420.0 145.0" stroke="#FF0000" fill="none" stroke-width="4px" />
<path d="M 1420.0 145.0 L 1430.0 145.0" stroke="#FF0000" fill="none" stroke-width="4px" />
<path d="M 1430.0 145.0 L 1440.0 145.0" stroke="#FF0000" fill="none" stroke-width="4px" />
<path d="M 1440.0 145.0 L 1450.0 145.0" stroke="#FF0000" fill="none" stroke-width="4px" />
<path d="M 1450.0 145.0 L 1460.0 145.0" stroke="#FF0000" fill="none" stroke-width="4px" />
<path d="M 1460.0 145.0 L 1470.0 145.0" stroke="#FF0000" fill="none" stroke-width="4px" />
<path d="M 1470.0 145.0 L 1460.0 155.0" stroke="#FF0000" fill="none" stroke-width="4px" />
<path d="M 1460.0 135.0 L 1450.0 135.0" stroke="#FF0000" fill="none" stroke-width="4px" />
<path d="M 1450.0 135.0 L 1440.0 135.0" stroke="#FF0000" fill="none" stroke-width="4px" />
<path d="M 1440.0 135.0 L 1430.0 135.0" stroke="#FF0000" fill="none" stroke-width="4px" />
<path d="M 1430.0 135.0 L 1420.0 135.0" stroke="#FF0000" fill="none" stroke-width="4px" />
<path d="M 1420.0 135.0 L 1430.0 125.0" stroke="#FF0000" fill="none" stroke-width="4px" />
<path d="M 1430.0 125.0 L 1440.0 125.0" stroke="#FF0000" fill="none" stroke-width="4px" />
<path d="M 1440.0 125.0 L 1450.0 125.0" stroke="#FF0000" fill="none" stroke-width="4px" />
<path d="M 1440.0 175.0 L 1430.0 175.0" stroke="#FF0000" fill="none" stroke-width="4px" />
<path d="M 1540.0 165.0 L 1550.0 165.0" stroke="#FF0000" fill="none" stroke-width="4px" />
<path d="M 1550.0 165.0 L 1560.0 165.0" stroke="#FF0000" fill="none" stroke-width="4px" />
<path d="M 1560.0 165.0 L 1570.0 165.0" stroke="#FF0000" fill="none" stroke-width="4px" />
<path d="M 1570.0 165.0 L 1580.0 165.0" stroke="#FF0000" fill="none" stroke-width="4px" />
<path d="M 1580.0 165.0 L 1590.0 165.0" stroke="#FF0000" fill="none" stroke-width="4px" />
<path d="M 1590.0 165.0 L 1600.0 165.0" stroke="#FF0000" fill="none" stroke-width="4px" />
<path d="M 1600.0 165.0 L 1610.0 165.0" stroke="#FF0000" fill="none" stroke-width="4px" />
<path d="M 1610.0 165.0 L 1610.0 175.0" stroke="#FF0000" fill="none" stroke-width="4px" />
<path d="M 1610.0 175.0 L 1600.0 175.0" stroke="#FF0000" fill="none" stroke-width="4px" />
<path d="M 1600.0 175.0 L 1590.0 175.0" stroke="#FF0000" fill="none" stroke-width="4px" />
<path d="M 1590.0 175.0 L 1580.0 175.0" stroke="#FF0000" fill="none" stroke-width="4px" />
<path d="M 1580.0 175.0 L 1570.0 175.0" stroke="#FF0000" fill="none" stroke-width="4px" />
<path d="M 1570.0 175.0 L 1560.0 175.0" stroke="#FF0000" fill="none" stroke-width="4px" />
<path d="M 1560.0 175.0 L 1550.0 175.0" stroke="#FF0000" fill="none" stroke-width="4px" />
<path d="M 1550.0 175.0 L 1560.0 185.0" stroke="#FF0000" fill="none" stroke-width="4px" />
<path d="M 1560.0 185.0 L 1580.0 185.0" stroke="#FF0000" fill="none" stroke-width="4px" />
<path d="M 1580.0 185.0 L 1590.0 185.0" stroke="#FF0000" fill="none" stroke-width="4px" />
<path d="M 1590.0 185.0 L 1600.0 185.0" stroke="#FF0000" fill="none" stroke-width="4px" />
<path d="M 1600.0 185.0 L 1610.0 185.0" stroke="#FF0000" fill="none" stroke-width="4px" />
<path d="M 1610.0 185.0 L 1600.0 195.0" stroke="#FF0000" fill="none" stroke-width="4px" />
<path d="M 1600.0 195.0 L 1590.0 195.0" stroke="#FF0000" fill="none" stroke-width="4px" />
<path d="M 1610.0 155.0 L 1600.0 155.0" stroke="#FF0000" fill="none" stroke-width="4px" />
<path d="M 1600.0 155.0 L 1590.0 155.0" stroke="#FF0000" fill="none" stroke-width="4px" />
<path d="M 1590.0 155.0 L 1580.0 155.0" stroke="#FF0000" fill="none" stroke-width="4px" />
<path d="M 1580.0 155.0 L 1570.0 155.0" stroke="#FF0000" fill="none" stroke-width="4px" />
<path d="M 1570.0 155.0 L 1560.0 155.0" stroke="#FF0000" fill="none" stroke-width="4px" />
<path d="M 1560.0 155.0 L 1550.0 155.0" stroke="#FF0000" fill="none" stroke-width="4px" />
<path d="M 1550.0 155.0 L 1540.0 155.0" stroke="#FF0000" fill="none" stroke-width="4px" />
<path d="M 1540.0 155.0 L 1550.0 145.0" stroke="#FF0000" fill="none" stroke-width="4px" />
<path d="M 1550.0 145.0 L 1560.0 145.0" stroke="#FF0000" fill="none" stroke-width="4px" />
<path d="M 1590.0 145.0 L 1600.0 145.0" stroke="#FF0000" fill="none" stroke-width="4px" />
</svg>