<svg width="1755.23333333" height="235.0" xmlns="http://www.w3.org/2000/svg" version="1.1">
<path d="M 0.0 235.0 L 1755.23333333 235.0 L 1755.23333333 0.0 L 0.0 0.0 L 0.0 235.0" stroke="#000000" fill="none" stroke-width="3px" />
<path d="M 10.0 257.5 L 0.0 247.5 L 10.0 237.5" stroke="#969696" fill="none" stroke-width="1px" />
<path d="M 10.0 237.5 L 1745.23333333 237.5" stroke="#969696" fill="none" stroke-width="1px" />
<path d="M 1745.23333333 237.5 L 1755.23333333 227.5 L 1745.23333333 217.5" stroke="#969696" fill="none" stroke-width="1px" />
<path d="M 1745.23333333 217.5 L 10.0 217.5" stroke="#969696" fill="none" stroke-width="1px" />
<path d="M 10.0 217.5 L 0.0 207.5 L 10.0 197.5" stroke="#969696" fill="none" stroke-width="1px" />
<path d="M 10.0 197.5 L 1745.23333333 197.5" stroke="#969696" fill="none" stroke-width="1px" />
<path d="M 1745.23333333 197.5 L 1755.23333333 187.5 L 1745.23333333 177.5" stroke="#969696" fill="none" stroke-width="1px" />
<path d="M 1745.23333333 177.5 L 10.0 177.5" stroke="#969696" fill="none" stroke-width="1px" />
<path d="M 10.0 177.5 L 0.0 167.5 L 10.0 157.5" stroke="#969696" fill="none" stroke-width="1px" />
<path d="M 10.0 157.5 L 1745.23333333 157.5" stroke="#969696" fill="none" stroke-width="1px" />
<path d="M 1745.23333333 157.5 L 1755.23333333 147.5 L 1745.23333333 137.5" stroke="#969696" fill="none" stroke-width="1px" />
<path d="M 1745.23333333 137.5 L 10.0 137.5" stroke="#969696" fill="none" stroke-width="1px" />
<path d="M 10.0 137.5 L 0.0 127.5 L 10.0 117.5" stroke="#969696" fill="none" stroke-width="1px" />
<path d="M 10.0 117.5 L 1745.23333333 117.5" stroke="#969696" fill="none" stroke-width="1px" />
<path d="M 1745.23333333 117.5 L 1755.23333333 107.5 L 1745.23333333 97.5" stroke="#969696" fill="none" stroke-width="1px" />
<path d="M 1745.23333333 97.5 L 10.0 97.5" stroke="#969696" fill="none" stroke-width="1px" />
<path d="M 10.0 97.5 L 0.0 87.5 L 10.0 77.5" stroke="#969696" fill="none" stroke-width="1px" />
<path d="M 10.0 77.5 L 1745.23333333 77.5" stroke="#969696" fill="none" stroke-width="1px" />
<path d="M 1745.23333333 77.5 L 1755.23333333 67.5 L 1745.23333333 57.5" stroke="#969696" fill="none" stroke-width="1px" />
<path d="M 1745.23333333 57.5 L 10.0 57.5" stroke="#969696" fill="none" stroke-width="1px" />
<path d="M 10.0 57.5 L 0.0 47.5 L 10.0 37.5" stroke="#969696" fill="none" stroke-width="1px" />
<path d="M 10.0 37.5 L 1745.23333333 37.5" stroke="#969696" fill="none" stroke-width="1px" />
<path d="M 1745.23333333 37.5 L 1755.23333333 27.5 L 1745.23333333 17.5" stroke="#969696" fill="none" stroke-width="1px" />
<path d="M 1745.23333333 17.5 L 10.0 17.5" stroke="#969696" fill="none" stroke-width="1px" />
<path d="M 10.0 17.5 L 0.0 7.5 L 10.0 -2.5" stroke="#969696" fill="none" stroke-width="1px" />
<path d="M 10.0 -2.5 L 1745.23333333 -2.5" stroke="#969696" fill="none" stroke-width="1px" />
<path d="M 1745.23333333 -2.5 L 1755.23333333 -12.5 L 1745.23333333 -22.5" stroke="#969696" fill="none" stroke-width="1px" />
<path d="M 0.0 235.0 L 294.766666665 105.0" stroke="#0095FF" fill="none" stroke-width="2px" />
<path d="M 314.766666665 65.0 L 314.766666665 115.0" stroke="#0095FF" fill="none" stroke-width="2px" />
<path d="M 304.766666665 115.0 L 404.766666665 75.0" stroke="#0095FF" fill="none" stroke-width="2px" />
<path d="M 464.766666665 65.0 L 444.766666665 85.0" stroke="#0095FF" fill="none" stroke-width="2px" />
<path d="M 414.766666665 85.0 L 414.766666665 45.0" stroke="#0095FF" fill="none" stroke-width="2px" />
<path d="M 424.766666665 35.0 L 934.766666665 105.0" stroke="#0095FF" fill="none" stroke-width="2px" />
<path d="M 954.766666665 135.0 L 954.766666665 95.0" stroke="#0095FF" fill="none" stroke-width="2px" />
<path d="M 964.766666665 95.0 L 994.766666665 95.0" stroke="#0095FF" fill="none" stroke-width="2px" />
<path d="M 994.766666665 95.0 L 1034.76666667 155.0" stroke="#0095FF" fill="none" stroke-width="2px" />
<path d="M 1034.76666667 175.0 L 1034.76666667 195.0" stroke="#0095FF" fill="none" stroke-width="2px" />
<path d="M 1064.76666667 205.0 L 1104.76666667 165.0" stroke="#0095FF" fill="none" stroke-width="2px" />
<path d="M 1104.76666667 165.0 L 1084.76666667 145.0" stroke="#0095FF" fill="none" stroke-width="2px" />
<path d="M 1084.76666667 145.0 L 1374.76666667 135.0" stroke="#0095FF" fill="none" stroke-width="2px" />
<path d="M 1404.76666667 165.0 L 1404.76666667 125.0" stroke="#0095FF" fill="none" stroke-width="2px" />
<path d="M 1434.76666667 125.0 L 1414.76666667 105.0" stroke="#0095FF" fill="none" stroke-width="2px" />
<path d="M 294.766666665 105.0 L 304.766666665 105.0" stroke="#FF0000" fill="none" stroke-width="4px" />
<path d="M 304.766666665 105.0 L 314.766666665 105.0" stroke="#FF0000" fill="none" stroke-width="4px" />
<path d="M 314.766666665 105.0 L 324.766666665 105.0" stroke="#FF0000" fill="none" stroke-width="4px" />
<path d="M 324.766666665 105.0 L 324.766666665 95.0" stroke="#FF0000" fill="none" stroke-width="4px" />
<path d="M 324.766666665 95.0 L 314.766666665 95.0" stroke="#FF0000" fill="none" stroke-width="4px" />
<path d="M 314.766666665 95.0 L 304.766666665 95.0" stroke="#FF0000" fill="none" stroke-width="4px" />
<path d="M 304.766666665 95.0 L 294.766666665 95.0" stroke="#FF0000" fill="none" stroke-width="4px" />
<path d="M 294.766666665 95.0 L 294.766666665 85.0" stroke="#FF0000" fill="none" stroke-width="4px" />
<path d="M 294.766666665 85.0 L 304.766666665 85.0" stroke="#FF0000" fill="none" stroke-width="4px" />
<path d="M 304.766666665 85.0 L 314.766666665 85.0" stroke="#FF0000" fill="none" stroke-width="4px" />
<path d="M 314.766666665 85.0 L 324.766666665 85.0" stroke="#FF0000" fill="none" stroke-width="4px" />
<path d="M 324.766666665 85.0 L 334.766666665 85.0" stroke="#FF0000" fill="none" stroke-width="4px" />
<path d="M 334.766666665 85.0 L 324.766666665 75.0" stroke="#FF0000" fill="none" stroke-width="4px" />
<path d="M 324.766666665 75.0 L 314.766666665 75.0" stroke="#FF0000" fill="none" stroke-width="4px" />
<path d="M 314.766666665 75.0 L 304.766666665 75.0" stroke="#FF0000" fill="none" stroke-width="4px" />
<path d="M 304.766666665 75.0 L 314.766666665 65.0" stroke="#FF0000" fill="none" stroke-width="4px" />
<path d="M 314.766666665 115.0 L 304.766666665 115.0" stroke="#FF0000" fill="none" stroke-width="4px" />
<path d="M 404.766666665 75.0 L 414.766666665 75.0" stroke="#FF0000" fill="none" stroke-width="4px" />
<path d="M 414.766666665 75.0 L 424.766666665 75.0" stroke="#FF0000" fill="none" stroke-width="4px" />
<path d="M 424.766666665 75.0 L 434.766666665 75.0" stroke="#FF0000" fill="none" stroke-width="4px" />
<path d="M 434.766666665 75.0 L 444.766666665 75.0" stroke="#FF0000" fill="none" stroke-width="4px" />
<path d="M 444.766666665 75.0 L 454.766666665 75.0" stroke="#FF0000" fill="none" stroke-width="4px" />
<path d="M 454.766666665 75.0 L 454.766666665 65.0" stroke="#FF0000" fill="none" stroke-width="4px" />
<path d="M 454.766666665 65.0 L 444.766666665 65.0" stroke="#FF0000" fill="none" stroke-width="4px" />
<path d="M 444.766666665 65.0 L 434.766666665 65.0" stroke="#FF0000" fill="none" stroke-width="4px" />
<path d="M 434.766666665 65.0 L 424.766666665 65.0" stroke="#FF0000" fill="none" stroke-width="4px" />
<path d="M 424.766666665 65.0 L 414.766666665 65.0" stroke="#FF0000" fill="none" stroke-width="4px" />
<path d="M 414.766666665 65.0 L 404.766666665 65.0" stroke="#FF0000" fill="none" stroke-width="4px" />
<path d="M 404.766666665 65.0 L 404.766666665 55.0" stroke="#FF0000" fill="none" stroke-width="4px" />
<path d="M 404.766666665 55.0 L 414.766666665 55.0" stroke="#FF0000" fill="none" stroke-width="4px" />
<path d="M 414.766666665 55.0 L 424.766666665 55.0" stroke="#FF0000" fill="none" stroke-width="4px" />
<path d="M 424.766666665 55.0 L 434.766666665 55.0" stroke="#FF0000" fill="none" stroke-width="4px" />
<path d="M 434.766666665 55.0 L 444.766666665 55.0" stroke="#FF0000" fill="none" stroke-width="4px" />
<path d="M 444.766666665 55.0 L 454.766666665 55.0" stroke="#FF0000" fill="none" stroke-width="4px" />
<path d="M 454.766666665 55.0 L 464.766666665 65.0" stroke="#FF0000" fill="none" stroke-width="4px" />
<path d="M 444.766666665 85.0 L 434.766666665 85.0" stroke="#FF0000" fill="none" stroke-width="4px" />
<path d="M 434.766666665 85.0 L 424.766666665 85.0" stroke="#FF0000" fill="none" stroke-width="4px" />
<path d="M 424.766666665 85.0 L 414.766666665 85.0" stroke="#FF0000" fill="none" stroke-width="4px" />
<path d="M 414.766666665 45.0 L 424.766666665 45.0" stroke="#FF0000" fill="none" stroke-width="4px" />
<path d="M 424.766666665 45.0 L 434.766666665 45.0" stroke="#FF0000" fill="none" stroke-width="4px" />
<path d="M 434.766666665 45.0 L 444.766666665 45.0" stroke="#FF0000" fill="none" stroke-width="4px" />
<path d="M 444.766666665 45.0 L 434.766666665 35.0" stroke="#FF0000" fill="none" stroke-width="4px" />
<path d="M 434.766666665 35.0 L 424.766666665 35.0" stroke="#FF0000" fill="none" stroke-width="4px" />
<path d="M 934.766666665 105.0 L 944.766666665 105.0" stroke="#FF0000" fill="none" stroke-width="4px" />
<path d="M 944.766666665 105.0 L 954.766666665 105.0" stroke="#FF0000" fill="none" stroke-width="4px" />
<path d="M 954.766666665 105.0 L 964.766666665 105.0" stroke="#FF0000" fill="none" stroke-width="4px" />
<path d="M 964.766666665 105.0 L 974.766666665 105.0" stroke="#FF0000" fill="none" stroke-width="4px" />
<path d="M 974.766666665 105.0 L 984.766666665 105.0" stroke="#FF0000" fill="none" stroke-width="4px" />
<path d="M 984.766666665 105.0 L 994.766666665 105.0" stroke="#FF0000" fill="none" stroke-width="4px" />
<path d="M 994.766666665 105.0 L 1004.76666667 105.0" stroke="#FF0000" fill="none" stroke-width="4px" />
<path d="M 1004.76666667 105.0 L 1004.76666667 115.0" stroke="#FF0000" fill="none" stroke-width="4px" />
<path d="M 1004.76666667 115.0 L 994.766666665 115.0" stroke="#FF0000" fill="none" stroke-width="4px" />
<path d="M 994.766666665 115.0 L 984.766666665 115.0" stroke="#FF0000" fill="none" stroke-width="4px" />
<path d="M 984.766666665 115.0 L 974.766666665 115.0" stroke="#FF0000" fill="none" stroke-width="4px" />
<path d="M 974.766666665 115.0 L 964.766666665 115.0" stroke="#FF0000" fill="none" stroke-width="4px" />
<path d="M 964.766666665 115.0 L 954.766666665 115.0" stroke="#FF0000" fill="none" stroke-width="4px" />
<path d="M 954.766666665 115.0 L 944.766666665 115.0" stroke="#FF0000" fill="none" stroke-width="4px" />
<path d="M 944.766666665 115.0 L 934.766666665 115.0" stroke="#FF0000" fill="none" stroke-width="4px" />
<path d="M 934.766666665 115.0 L 944.766666665 125.0" stroke="#FF0000" fill="none" stroke-width="4px" />
<path d="M 944.766666665 125.0 L 954.766666665 125.0" stroke="#FF0000" fill="none" stroke-width="4px" />
<path d="M 954.766666665 125.0 L 964.766666665 125.0" stroke="#FF0000" fill="none" stroke-width="4px" />
<path d="M 964.766666665 125.0 L 974.766666665 125.0" stroke="#FF0000" fill="none" stroke-width="4px" />
<path d="M 974.766666665 125.0 L 984.766666665 125.0" stroke="#FF0000" fill="none" stroke-width="4px" />
<path d="M 984.766666665 125.0 L 994.766666665 125.0" stroke="#FF0000" fill="none" stroke-width="4px" />
<path d="M 994.766666665 125.0 L 984.766666665 135.0" stroke="#FF0000" fill="none" stroke-width="4px" />
<path d="M 984.766666665 135.0 L 974.766666665 135.0" stroke="#FF0000" fill="none" stroke-width="4px" />
<path d="M 974.766666665 135.0 L 964.766666665 135.0" stroke="#FF0000" fill="none" stroke-width="4px" />
<path d="M 964.766666665 135.0 L 954.766666665 135.0" stroke="#FF0000" fill="none" stroke-width="4px" />
<path d="M 954.766666665 95.0 L 944.766666665 95.0" stroke="#FF0000" fill="none" stroke-width="4px" />
<path d="M 944.766666665 95.0 L 954.766666665 85.0" stroke="#FF0000" fill="none" stroke-width="4px" />
<path d="M 954.766666665 85.0 L 964.766666665 85.0" stroke="#FF0000" fill="none" stroke-width="4px" />
<path d="M 964.766666665 85.0 L 974.766666665 85.0" stroke="#FF0000" fill="none" stroke-width="4px" />
<path d="M 974.766666665 85.0 L 984.766666665 85.0" stroke="#FF0000" fill="none" stroke-width="4px" />
<path d="M 984.766666665 85.0 L 984.766666665 95.0" stroke="#FF0000" fill="none" stroke-width="4px" />
<path d="M 984.766666665 95.0 L 974.766666665 95.0" stroke="#FF0000" fill="none" stroke-width="4px" />
<path d="M 974.766666665 95.0 L 964.766666665 95.0" stroke="#FF0000" fill="none" stroke-width="4px" />
<path d="M 1034.76666667 155.0 L 1044.76666667 155.0" stroke="#FF0000" fill="none" stroke-width="4px" />
<path d="M 1044.76666667 155.0 L 1054.76666667 155.0" stroke="#FF0000" fill="none" stroke-width="4px" />
<path d="M 1054.76666667 155.0 L 1064.76666667 155.0" stroke="#FF0000" fill="none" stroke-width="4px" />
<path d="M 1064.76666667 155.0 L 1074.76666667 155.0" stroke="#FF0000" fill="none" stroke-width="4px" />
<path d="M 1074.76666667 155.0 L 1084.76666667 155.0" stroke="#FF0000" fill="none" stroke-width="4px" />
<path d="M 1084.76666667 155.0 L 1094.76666667 155.0" stroke="#FF0000" fill="none" stroke-width="4px" />
<path d="M 1094.76666667 155.0 L 1094.76666667 165.0" stroke="#FF0000" fill="none" stroke-width="4px" />
<path d="M 1094.76666667 165.0 L 1084.76666667 165.0" stroke="#FF0000" fill="none" stroke-width="4px" />
<path d="M 1084.76666667 165.0 L 1074.76666667 165.0" stroke="#FF0000" fill="none" stroke-width="4px" />
<path d="M 1074.76666667 165.0 L 1064.76666667 165.0" stroke="#FF0000" fill="none" stroke-width="4px" />
<path d="M 1064.76666667 165.0 L 1054.76666667 165.0" stroke="#FF0000" fill="none" stroke-width="4px" />
<path d="M 1054.76666667 165.0 L 1044.76666667 165.0" stroke="#FF0000" fill="none" stroke-width="4px" />
<path d="M 1044.76666667 165.0 L 1034.76666667 165.0" stroke="#FF0000" fill="none" stroke-width="4px" />
<path d="M 1034.76666667 165.0 L 1024.76666667 165.0" stroke="#FF0000" fill="none" stroke-width="4px" />
<path d="M 1024.76666667 165.0 L 1024.76666667 175.0" stroke="#FF0000" fill="none" stroke-width="4px" />
<path d="M 1024.76666667 175.0 L 1014.76666667 175.0" stroke="#FF0000" fill="none" stroke-width="4px" />
<path d="M 1014.76666667 175.0 L 1014.76666667 185.0" stroke="#FF0000" fill="none" stroke-width="4px" />
<path d="M 1014.76666667 185.0 L 1024.76666667 185.0" stroke="#FF0000" fill="none" stroke-width="4px" />
<path d="M 1024.76666667 185.0 L 1034.76666667 185.0" stroke="#FF0000" fill="none" stroke-width="4px" />
<path d="M 1034.76666667 185.0 L 1044.76666667 185.0" stroke="#FF0000" fill="none" stroke-width="4px" />
<path d="M 1044.76666667 185.0 L 1054.76666667 185.0" stroke="#FF0000" fill="none" stroke-width="4px" />
<path d="M 1054.76666667 185.0 L 1064.76666667 185.0" stroke="#FF0000" fill="none" stroke-width="4px" />
<path d="M 1064.76666667 185.0 L 1074.76666667 185.0" stroke="#FF0000" fill="none" stroke-width="4px" />
<path d="M 1074.76666667 185.0 L 1084.76666667 185.0" stroke="#FF0000" fill="none" stroke-width="4px" />
<path d="M 1084.76666667 185.0 L 1094.76666667 185.0" stroke="#FF0000" fill="none" stroke-width="4px" />
<path d="M 1094.76666667 185.0 L 1104.76666667 185.0" stroke="#FF0000" fill="none" stroke-width="4px" />
<path d="M 1104.76666667 185.0 L 1104.76666667 175.0" stroke="#FF0000" fill="none" stroke-width="4px" />
<path d="M 1104.76666667 175.0 L 1094.76666667 175.0" stroke="#FF0000" fill="none" stroke-width="4px" />
<path d="M 1094.76666667 175.0 L 1084.76666667 175.0" stroke="#FF0000" fill="none" stroke-width="4px" />
<path d="M 1084.76666667 175.0 L 1074.76666667 175.0" stroke="#FF0000" fill="none" stroke-width="4px" />
<path d="M 1074.76666667 175.0 L 1064.76666667 175.0" stroke="#FF0000" fill="none" stroke-width="4px" />
<path d="M 1064.76666667 175.0 L 1054.76666667 175.0" stroke="#FF0000" fill="none" stroke-width="4px" />
<path d="M 1054.76666667 175.0 L 1044.76666667 175.0" stroke="#FF0000" fill="none" stroke-width="4px" />
<path d="M 1044.76666667 175.0 L 1034.76666667 175.0" stroke="#FF0000" fill="none" stroke-width="4px" />
<path d="M 1034.76666667 195.0 L 1024.76666667 195.0" stroke="#FF0000" fill="none" stroke-width="4px" />
<path d="M 1024.76666667 195.0 L 1024.76666667 205.0" stroke="#FF0000" fill="none" stroke-width="4px" />
<path d="M 1024.76666667 205.0 L 1014.76666667 205.0" stroke="#FF0000" fill="none" stroke-width="4px" />
<path d="M 1014.76666667 205.0 L 1024.76666667 215.0" stroke="#FF0000" fill="none" stroke-width="4px" />
<path d="M 1024.76666667 215.0 L 1034.76666667 215.0" stroke="#FF0000" fill="none" stroke-width="4px" />
<path d="M 1034.76666667 215.0 L 1044.76666667 215.0" stroke="#FF0000" fill="none" stroke-width="4px" />
<path d="M 1044.76666667 215.0 L 1054.76666667 215.0" stroke="#FF0000" fill="none" stroke-width="4px" />
<path d="M 1054.76666667 215.0 L 1054.76666667 205.0" stroke="#FF0000" fill="none" stroke-width="4px" />
<path d="M 1054.76666667 205.0 L 1044.76666667 205.0" stroke="#FF0000" fill="none" stroke-width="4px" />
<path d="M 1044.76666667 205.0 L 1034.76666667 205.0" stroke="#FF0000" fill="none" stroke-width="4px" />
<path d="M 1034.76666667 205.0 L 1044.76666667 195.0" stroke="#FF0000" fill="none" stroke-width="4px" />
<path d="M 1044.76666667 195.0 L 1054.76666667 195.0" stroke="#FF0000" fill="none" stroke-width="4px" />
<path d="M 1054.76666667 195.0 L 1064.76666667 195.0" stroke="#FF0000" fill="none" stroke-width="4px" />
<path d="M 1064.76666667 195.0 L 1074.76666667 195.0" stroke="#FF0000" fill="none" stroke-width="4px" />
<path d="M 1074.76666667 195.0 L 1084.76666667 195.0" stroke="#FF0000" fill="none" stroke-width="4px" />
<path d="M 1084.76666667 195.0 L 1094.76666667 195.0" stroke="#FF0000" fill="none" stroke-width="4px" />
<path d="M 1094.76666667 195.0 L 1084.76666667 205.0" stroke="#FF0000" fill="none" stroke-width="4px" />
<path d="M 1084.76666667 205.0 L 1074.76666667 205.0" stroke="#FF0000" fill="none" stroke-width="4px" />
<path d="M 1074.76666667 205.0 L 1064.76666667 205.0" stroke="#FF0000" fill="none" stroke-width="4px" />
<path d="M 1374.76666667 135.0 L 1384.76666667 135.0" stroke="#FF0000" fill="none" stroke-width="4px" />
<path d="M 1384.76666667 135.0 L 1394.76666667 135.0" stroke="#FF0000" fill="none" stroke-width="4px" />
<path d="M 1394.76666667 135.0 L 1404.76666667 135.0" stroke="#FF0000" fill="none" stroke-width="4px" />
<path d="M 1404.76666667 135.0 L 1414.76666667 135.0" stroke="#FF0000" fill="none" stroke-width="4px" />
<path d="M 1414.76666667 135.0 L 1424.76666667 135.0" stroke="#FF0000" fill="none" stroke-width="4px" />
<path d="M 1424.76666667 135.0 L 1434.76666667 135.0" stroke="#FF0000" fill="none" stroke-width="4px" />
<path d="M 1434.76666667 135.0 L 1434.76666667 145.0" stroke="#FF0000" fill="none" stroke-width="4px" />
<path d="M 1434.76666667 145.0 L 1424.76666667 145.0" stroke="#FF0000" fill="none" stroke-width="4px" />
<path d="M 1424.76666667 145.0 L 1414.76666667 145.0" stroke="#FF0000" fill="none" stroke-width="4px" />
<path d="M 1414.76666667 145.0 L 1404.76666667 145.0" stroke="#FF0000" fill="none" stroke-width="4px" />
<path d="M 1404.76666667 145.0 L 1394.76666667 145.0" stroke="#FF0000" fill="none" stroke-width="4px" />
<path d="M 1394.76666667 145.0 L 1384.76666667 145.0" stroke="#FF0000" fill="none" stroke-width="4px" />
<path d="M 1384.76666667 145.0 L 1394.76666667 155.0" stroke="#FF0000" fill="none" stroke-width="4px" />
<path d="M 1394.76666667 155.0 L 1404.76666667 155.0" stroke="#FF0000" fill="none" stroke-width="4px" />
<path d="M 1404.76666667 155.0 L 1414.76666667 155.0" stroke="#FF0000" fill="none" stroke-width="4px" />
<path d="M 1414.76666667 155.0 L 1424.76666667 155.0" stroke="#FF0000" fill="none" stroke-width="4px" />
<path d="M 1424.76666667 155.0 L 1414.76666667 165.0" stroke="#FF0000" fill="none" stroke-width="4px" />
<path d="M 1414.76666667 165.0 L 1404.76666667 165.0" stroke="#FF0000" fill="none" stroke-width="4px" />
<path d="M 1404.76666667 125.0 L 1394.76666667 125.0" stroke="#FF0000" fill="none" stroke-width="4px" />
<path d="M 1394.76666667 125.0 L 1384.76666667 125.0" stroke="#FF0000" fill="none" stroke-width="4px" />
<path d="M 1384.76666667 125.0 L 1374.76666667 125.0" stroke="#FF0000" fill="none" stroke-width="4px" />
<path d="M 1374.76666667 125.0 L 1374.76666667 115.0" stroke="#FF0000" fill="none" stroke-width="4px" />
<path d="M 1374.76666667 115.0 L 1384.76666667 115.0" stroke="#FF0000" fill="none" stroke-width="4px" />
<path d="M 1384.76666667 115.0 L 1394.76666667 115.0" stroke="#FF0000" fill="none" stroke-width="4px" />
<path d="M 1394.76666667 115.0 L 1404.76666667 115.0" stroke="#FF0000" fill="none" stroke-width="4px" />
<path d="M 1404.76666667 115.0 L 1414.76666667 115.0" stroke="#FF0000" fill="none" stroke-width="4px" />
<path d="M 1414.76666667 115.0 L 1424.76666667 115.0" stroke="#FF0000" fill="none" stroke-width="4px" />
<path d="M 1424.76666667 115.0 L 1424.76666667 125.0" stroke="#FF0000" fill="none" stroke-width="4px" />
<path d="M 1424.76666667 125.0 L 1414.76666667 125.0" stroke="#FF0000" fill="none" stroke-width="4px" />
<path d="M 1414.76666667 125.0 L 1434.76666667 125.0" stroke="#FF0000" fill="none" stroke-width="4px" />
<path d="M 1414.76666667 105.0 L 1404.76666667 105.0" stroke="#FF0000" fill="none" stroke-width="4px" />
<path d="M 1404.76666667 105.0 L 1394.76666667 105.0" stroke="#FF0000" fill="none" stroke-width="4px" />
<path d="M 1394.76666667 105.0 L 1384.76666667 105.0" stroke="#FF0000" fill="none" stroke-width="4px" />
</svg>