<svg width="2472.26666667" height="235.0" xmlns="http://www.w3.org/2000/svg" version="1.1">
<path d="M 0.0 235.0 L 1810.0 235.0 L 1810.0 0.0 L 0.0 0.0 L 0.0 235.0" stroke="#000000" fill="none" stroke-width="3px" />
<path d="M 2472.26666667 235.0 L 1710.0 235.0 L 1710.0 0.0 L 2472.26666667 0.0 L 2472.26666667 235.0" stroke="#000000" fill="none" stroke-width="3px" />
<path d="M 10.0 257.5 L 0.0 247.5 L 10.0 237.5" stroke="#969696" fill="none" stroke-width="1px" />
<path d="M 10.0 237.5 L 1800.0 237.5" stroke="#969696" fill="none" stroke-width="1px" />
<path d="M 1800.0 237.5 L 1810.0 227.5 L 1800.0 217.5" stroke="#969696" fill="none" stroke-width="1px" />
<path d="M 1800.0 217.5 L 10.0 217.5" stroke="#969696" fill="none" stroke-width="1px" />
<path d="M 10.0 217.5 L 0.0 207.5 L 10.0 197.5" stroke="#969696" fill="none" stroke-width="1px" />
<path d="M 10.0 197.5 L 1800.0 197.5" stroke="#969696" fill="none" stroke-width="1px" />
<path d="M 1800.0 197.5 L 1810.0 187.5 L 1800.0 177.5" stroke="#969696" fill="none" stroke-width="1px" />
<path d="M 1800.0 177.5 L 10.0 177.5" stroke="#969696" fill="none" stroke-width="1px" />
<path d="M 10.0 177.5 L 0.0 167.5 L 10.0 157.5" stroke="#969696" fill="none" stroke-width="1px" />
<path d="M 10.0 157.5 L 1800.0 157.5" stroke="#969696" fill="none" stroke-width="1px" />
<path d="M 1800.0 157.5 L 1810.0 147.5 L 1800.0 137.5" stroke="#969696" fill="none" stroke-width="1px" />
<path d="M 1800.0 137.5 L 10.0 137.5" stroke="#969696" fill="none" stroke-width="1px" />
<path d="M 10.0 137.5 L 0.0 127.5 L 10.0 117.5" stroke="#969696" fill="none" stroke-width="1px" />
<path d="M 10.0 117.5 L 1800.0 117.5" stroke="#969696" fill="none" stroke-width="1px" />
<path d="M 1800.0 117.5 L 1810.0 107.5 L 1800.0 97.5" stroke="#969696" fill="none" stroke-width="1px" />
<path d="M 1800.0 97.5 L 10.0 97.5" stroke="#969696" fill="none" stroke-width="1px" />
<path d="M 10.0 97.5 L 0.0 87.5 L 10.0 77.5" stroke="#969696" fill="none" stroke-width="1px" />
<path d="M 10.0 77.5 L 1800.0 77.5" stroke="#969696" fill="none" stroke-width="1px" />
<path d="M 1800.0 77.5 L 1810.0 67.5 L 1800.0 57.5" stroke="#969696" fill="none" stroke-width="1px" />
<path d="M 1800.0 57.5 L 10.0 57.5" stroke="#969696" fill="none" stroke-width="1px" />
<path d="M 10.0 57.5 L 0.0 47.5 L 10.0 37.5" stroke="#969696" fill="none" stroke-width="1px" />
<path d="M 10.0 37.5 L 1800.0 37.5" stroke="#969696" fill="none" stroke-width="1px" />
<path d="M 1800.0 37.5 L 1810.0 27.5 L 1800.0 17.5" stroke="#969696" fill="none" stroke-width="1px" />
<path d="M 1800.0 17.5 L 10.0 17.5" stroke="#969696" fill="none" stroke-width="1px" />
<path d="M 10.0 17.5 L 0.0 7.5 L 10.0 -2.5" stroke="#969696" fill="none" stroke-width="1px" />
<path d="M 10.0 -2.5 L 1800.0 -2.5" stroke="#969696" fill="none" stroke-width="1px" />
<path d="M 1800.0 -2.5 L 1810.0 -12.5 L 1800.0 -22.5" stroke="#969696" fill="none" stroke-width="1px" />
<path d="M 2462.26666667 257.5 L 2472.26666667 247.5 L 2462.26666667 237.5" stroke="#969696" fill="none" stroke-width="1px" />
<path d="M 2462.26666667 237.5 L 1720.0 237.5" stroke="#969696" fill="none" stroke-width="1px" />
<path d="M 1720.0 237.5 L 1710.0 227.5 L 1720.0 217.5" stroke="#969696" fill="none" stroke-width="1px" />
<path d="M 1720.0 217.5 L 2462.26666667 217.5" stroke="#969696" fill="none" stroke-width="1px" />
<path d="M 2462.26666667 217.5 L 2472.26666667 207.5 L 2462.26666667 197.5" stroke="#969696" fill="none" stroke-width="1px" />
<path d="M 2462.26666667 197.5 L 1720.0 197.5" stroke="#969696" fill="none" stroke-width="1px" />
<path d="M 1720.0 197.5 L 1710.0 187.5 L 1720.0 177.5" stroke="#969696" fill="none" stroke-width="1px" />
<path d="M 1720.0 177.5 L 2462.26666667 177.5" stroke="#969696" fill="none" stroke-width="1px" />
<path d="M 2462.26666667 177.5 L 2472.26666667 167.5 L 2462.26666667 157.5" stroke="#969696" fill="none" stroke-width="1px" />
<path d="M 2462.26666667 157.5 L 1720.0 157.5" stroke="#969696" fill="none" stroke-width="1px" />
<path d="M 1720.0 157.5 L 1710.0 147.5 L 1720.0 137.5" stroke="#969696" fill="none" stroke-width="1px" />
<path d="M 1720.0 137.5 L 2462.26666667 137.5" stroke="#969696" fill="none" stroke-width="1px" />
<path d="M 2462.26666667 137.5 L 2472.26666667 127.5 L 2462.26666667 117.5" stroke="#969696" fill="none" stroke-width="1px" />
<path d="M 2462.26666667 117.5 L 1720.0 117.5" stroke="#969696" fill="none" stroke-width="1px" />
<path d="M 1720.0 117.5 L 1710.0 107.5 L 1720.0 97.5" stroke="#969696" fill="none" stroke-width="1px" />
<path d="M 1720.0 97.5 L 2462.26666667 97.5" stroke="#969696" fill="none" stroke-width="1px" />
<path d="M 2462.26666667 97.5 L 2472.26666667 87.5 L 2462.26666667 77.5" stroke="#969696" fill="none" stroke-width="1px" />
<path d="M 2462.26666667 77.5 L 1720.0 77.5" stroke="#969696" fill="none" stroke-width="1px" />
<path d="M 1720.0 77.5 L 1710.0 67.5 L 1720.0 57.5" stroke="#969696" fill="none" stroke-width="1px" />
<path d="M 1720.0 57.5 L 2462.26666667 57.5" stroke="#969696" fill="none" stroke-width="1px" />
<path d="M 2462.26666667 57.5 L 2472.26666667 47.5 L 2462.26666667 37.5" stroke="#969696" fill="none" stroke-width="1px" />
<path d="M 2462.26666667 37.5 L 1720.0 37.5" stroke="#969696" fill="none" stroke-width="1px" />
<path d="M 1720.0 37.5 L 1710.0 27.5 L 1720.0 17.5" stroke="#969696" fill="none" stroke-width="1px" />
<path d="M 1720.0 17.5 L 2462.26666667 17.5" stroke="#969696" fill="none" stroke-width="1px" />
<path d="M 2462.26666667 17.5 L 2472.26666667 7.5 L 2462.26666667 -2.5" stroke="#969696" fill="none" stroke-width="1px" />
<path d="M 2462.26666667 -2.5 L 1720.0 -2.5" stroke="#969696" fill="none" stroke-width="1px" />
<path d="M 1720.0 -2.5 L 1710.0 -12.5 L 1720.0 -22.5" stroke="#969696" fill="none" stroke-width="1px" />
<path d="M 0.0 235.0 L 260.0 195.0" stroke="#0095FF" fill="none" stroke-width="2px" />
<path d="M 350.0 185.0 L 350.0 165.0" stroke="#0095FF" fill="none" stroke-width="2px" />
<path d="M 340.0 105.0 L 310.0 85.0" stroke="#0095FF" fill="none" stroke-width="2px" />
<path d="M 290.0 85.0 L 270.0 75.0" stroke="#0095FF" fill="none" stroke-width="2px" />
<path d="M 280.0 55.0 L 260.0 35.0" stroke="#0095FF" fill="none" stroke-width="2px" />
<path d="M 260.0 35.0 L 240.0 15.0" stroke="#0095FF" fill="none" stroke-width="2px" />
<path d="M 210.0 -5.0 L 270.0 205.0" stroke="#0095FF" fill="none" stroke-width="2px" />
<path d="M 280.0 215.0 L 560.0 205.0" stroke="#0095FF" fill="none" stroke-width="2px" />
<path d="M 630.0 145.0 L 630.0 195.0" stroke="#0095FF" fill="none" stroke-width="2px" />
<path d="M 630.0 195.0 L 610.0 215.0" stroke="#0095FF" fill="none" stroke-width="2px" />
<path d="M 600.0 225.0 L 1400.0 55.0" stroke="#0095FF" fill="none" stroke-width="2px" />
<path d="M 1470.0 145.0 L 1500.0 105.0" stroke="#0095FF" fill="none" stroke-width="2px" />
<path d="M 1500.0 105.0 L 1480.0 85.0" stroke="#0095FF" fill="none" stroke-width="2px" />
<path d="M 1480.0 85.0 L 1460.0 65.0" stroke="#0095FF" fill="none" stroke-width="2px" />
<path d="M 1460.0 65.0 L 1450.0 45.0" stroke="#0095FF" fill="none" stroke-width="2px" />
<path d="M 2472.26666667 235.0 L 2340.0 75.0" stroke="#0095FF" fill="none" stroke-width="2px" />
<path d="M 2240.0 45.0 L 2260.0 55.0" stroke="#0095FF" fill="none" stroke-width="2px" />
<path d="M 2320.0 65.0 L 2290.0 75.0" stroke="#0095FF" fill="none" stroke-width="2px" />
<path d="M 2260.0 75.0 L 2260.0 25.0" stroke="#0095FF" fill="none" stroke-width="2px" />
<path d="M 2270.0 25.0 L 2280.0 5.0" stroke="#0095FF" fill="none" stroke-width="2px" />
<path d="M 2280.0 -5.0 L 2250.0 -5.0" stroke="#0095FF" fill="none" stroke-width="2px" />
<path d="M 2250.0 5.0 L 2350.0 45.0" stroke="#0095FF" fill="none" stroke-width="2px" />
<path d="M 2350.0 45.0 L 1990.0 135.0" stroke="#0095FF" fill="none" stroke-width="2px" />
<path d="M 2000.0 165.0 L 1990.0 145.0" stroke="#0095FF" fill="none" stroke-width="2px" />
<path d="M 1950.0 145.0 L 1950.0 125.0" stroke="#0095FF" fill="none" stroke-width="2px" />
<path d="M 1960.0 115.0 L 1960.0 185.0" stroke="#0095FF" fill="none" stroke-width="2px" />
<path d="M 1930.0 185.0 L 1950.0 195.0" stroke="#0095FF" fill="none" stroke-width="2px" />
<path d="M 260.0 195.0 L 270.0 195.0" stroke="#FF0000" fill="none" stroke-width="4px" />
<path d="M 270.0 195.0 L 280.0 195.0" stroke="#FF0000" fill="none" stroke-width="4px" />
<path d="M 280.0 195.0 L 290.0 195.0" stroke="#FF0000" fill="none" stroke-width="4px" />
<path d="M 290.0 195.0 L 300.0 195.0" stroke="#FF0000" fill="none" stroke-width="4px" />
<path d="M 300.0 195.0 L 310.0 195.0" stroke="#FF0000" fill="none" stroke-width="4px" />
<path d="M 310.0 195.0 L 320.0 195.0" stroke="#FF0000" fill="none" stroke-width="4px" />
<path d="M 320.0 195.0 L 330.0 195.0" stroke="#FF0000" fill="none" stroke-width="4px" />
<path d="M 330.0 195.0 L 340.0 195.0" stroke="#FF0000" fill="none" stroke-width="4px" />
<path d="M 340.0 195.0 L 340.0 185.0" stroke="#FF0000" fill="none" stroke-width="4px" />
<path d="M 340.0 185.0 L 330.0 185.0" stroke="#FF0000" fill="none" stroke-width="4px" />
<path d="M 330.0 185.0 L 320.0 185.0" stroke="#FF0000" fill="none" stroke-width="4px" />
<path d="M 320.0 185.0 L 310.0 185.0" stroke="#FF0000" fill="none" stroke-width="4px" />
<path d="M 310.0 185.0 L 300.0 185.0" stroke="#FF0000" fill="none" stroke-width="4px" />
<path d="M 300.0 185.0 L 290.0 185.0" stroke="#FF0000" fill="none" stroke-width="4px" />
<path d="M 290.0 185.0 L 280.0 185.0" stroke="#FF0000" fill="none" stroke-width="4px" />
<path d="M 280.0 185.0 L 270.0 185.0" stroke="#FF0000" fill="none" stroke-width="4px" />
<path d="M 270.0 185.0 L 270.0 175.0" stroke="#FF0000" fill="none" stroke-width="4px" />
<path d="M 270.0 175.0 L 280.0 175.0" stroke="#FF0000" fill="none" stroke-width="4px" />
<path d="M 280.0 175.0 L 290.0 175.0" stroke="#FF0000" fill="none" stroke-width="4px" />
<path d="M 290.0 175.0 L 300.0 175.0" stroke="#FF0000" fill="none" stroke-width="4px" />
<path d="M 300.0 175.0 L 310.0 175.0" stroke="#FF0000" fill="none" stroke-width="4px" />
<path d="M 310.0 175.0 L 320.0 175.0" stroke="#FF0000" fill="none" stroke-width="4px" />
<path d="M 320.0 175.0 L 330.0 175.0" stroke="#FF0000" fill="none" stroke-width="4px" />
<path d="M 330.0 175.0 L 340.0 175.0" stroke="#FF0000" fill="none" stroke-width="4px" />
<path d="M 340.0 175.0 L 350.0 175.0" stroke="#FF0000" fill="none" stroke-width="4px" />
<path d="M 350.0 175.0 L 350.0 185.0" stroke="#FF0000" fill="none" stroke-width="4px" />
<path d="M 350.0 165.0 L 340.0 165.0" stroke="#FF0000" fill="none" stroke-width="4px" />
<path d="M 340.0 165.0 L 330.0 165.0" stroke="#FF0000" fill="none" stroke-width="4px" />
<path d="M 330.0 165.0 L 320.0 165.0" stroke="#FF0000" fill="none" stroke-width="4px" />
<path d="M 320.0 165.0 L 310.0 165.0" stroke="#FF0000" fill="none" stroke-width="4px" />
<path d="M 310.0 165.0 L 300.0 165.0" stroke="#FF0000" fill="none" stroke-width="4px" />
<path d="M 300.0 165.0 L 290.0 165.0" stroke="#FF0000" fill="none" stroke-width="4px" />
<path d="M 290.0 165.0 L 280.0 165.0" stroke="#FF0000" fill="none" stroke-width="4px" />
<path d="M 280.0 165.0 L 270.0 165.0" stroke="#FF0000" fill="none" stroke-width="4px" />
<path d="M 270.0 165.0 L 280.0 155.0" stroke="#FF0000" fill="none" stroke-width="4px" />
<path d="M 280.0 155.0 L 290.0 155.0" stroke="#FF0000" fill="none" stroke-width="4px" />
<path d="M 290.0 155.0 L 300.0 155.0" stroke="#FF0000" fill="none" stroke-width="4px" />
<path d="M 300.0 155.0 L 310.0 155.0" stroke="#FF0000" fill="none" stroke-width="4px" />
<path d="M 310.0 155.0 L 320.0 155.0" stroke="#FF0000" fill="none" stroke-width="4px" />
<path d="M 320.0 155.0 L 330.0 155.0" stroke="#FF0000" fill="none" stroke-width="4px" />
<path d="M 330.0 155.0 L 340.0 155.0" stroke="#FF0000" fill="none" stroke-width="4px" />
<path d="M 340.0 155.0 L 350.0 155.0" stroke="#FF0000" fill="none" stroke-width="4px" />
<path d="M 350.0 155.0 L 340.0 145.0" stroke="#FF0000" fill="none" stroke-width="4px" />
<path d="M 340.0 145.0 L 330.0 145.0" stroke="#FF0000" fill="none" stroke-width="4px" />
<path d="M 330.0 145.0 L 320.0 145.0" stroke="#FF0000" fill="none" stroke-width="4px" />
<path d="M 320.0 145.0 L 310.0 145.0" stroke="#FF0000" fill="none" stroke-width="4px" />
<path d="M 310.0 145.0 L 300.0 145.0" stroke="#FF0000" fill="none" stroke-width="4px" />
<path d="M 300.0 145.0 L 290.0 145.0" stroke="#FF0000" fill="none" stroke-width="4px" />
<path d="M 290.0 145.0 L 300.0 135.0" stroke="#FF0000" fill="none" stroke-width="4px" />
<path d="M 300.0 135.0 L 310.0 135.0" stroke="#FF0000" fill="none" stroke-width="4px" />
<path d="M 310.0 135.0 L 320.0 135.0" stroke="#FF0000" fill="none" stroke-width="4px" />
<path d="M 320.0 135.0 L 330.0 135.0" stroke="#FF0000" fill="none" stroke-width="4px" />
<path d="M 330.0 135.0 L 340.0 135.0" stroke="#FF0000" fill="none" stroke-width="4px" />
<path d="M 340.0 135.0 L 350.0 135.0" stroke="#FF0000" fill="none" stroke-width="4px" />
<path d="M 350.0 135.0 L 350.0 125.0" stroke="#FF0000" fill="none" stroke-width="4px" />
<path d="M 350.0 125.0 L 340.0 125.0" stroke="#FF0000" fill="none" stroke-width="4px" />
<path d="M 340.0 125.0 L 330.0 125.0" stroke="#FF0000" fill="none" stroke-width="4px" />
<path d="M 330.0 125.0 L 320.0 125.0" stroke="#FF0000" fill="none" stroke-width="4px" />
<path d="M 320.0 125.0 L 310.0 125.0" stroke="#FF0000" fill="none" stroke-width="4px" />
<path d="M 310.0 125.0 L 300.0 125.0" stroke="#FF0000" fill="none" stroke-width="4px" />
<path d="M 300.0 125.0 L 290.0 125.0" stroke="#FF0000" fill="none" stroke-width="4px" />
<path d="M 290.0 125.0 L 290.0 115.0" stroke="#FF0000" fill="none" stroke-width="4px" />
<path d="M 290.0 115.0 L 280.0 115.0" stroke="#FF0000" fill="none" stroke-width="4px" />
<path d="M 280.0 115.0 L 280.0 105.0" stroke="#FF0000" fill="none" stroke-width="4px" />
<path d="M 280.0 105.0 L 270.0 105.0" stroke="#FF0000" fill="none" stroke-width="4px" />
<path d="M 270.0 105.0 L 280.0 95.0" stroke="#FF0000" fill="none" stroke-width="4px" />
<path d="M 280.0 95.0 L 290.0 95.0" stroke="#FF0000" fill="none" stroke-width="4px" />
<path d="M 290.0 95.0 L 300.0 95.0" stroke="#FF0000" fill="none" stroke-width="4px" />
<path d="M 300.0 95.0 L 310.0 95.0" stroke="#FF0000" fill="none" stroke-width="4px" />
<path d="M 310.0 95.0 L 320.0 95.0" stroke="#FF0000" fill="none" stroke-width="4px" />
<path d="M 320.0 95.0 L 330.0 95.0" stroke="#FF0000" fill="none" stroke-width="4px" />
<path d="M 330.0 95.0 L 330.0 105.0" stroke="#FF0000" fill="none" stroke-width="4px" />
<path d="M 330.0 105.0 L 320.0 105.0" stroke="#FF0000" fill="none" stroke-width="4px" />
<path d="M 320.0 105.0 L 310.0 105.0" stroke="#FF0000" fill="none" stroke-width="4px" />
<path d="M 310.0 105.0 L 300.0 105.0" stroke="#FF0000" fill="none" stroke-width="4px" />
<path d="M 300.0 105.0 L 290.0 105.0" stroke="#FF0000" fill="none" stroke-width="4px" />
<path d="M 290.0 105.0 L 300.0 115.0" stroke="#FF0000" fill="none" stroke-width="4px" />
<path d="M 300.0 115.0 L 310.0 115.0" stroke="#FF0000" fill="none" stroke-width="4px" />
<path d="M 310.0 115.0 L 320.0 115.0" stroke="#FF0000" fill="none" stroke-width="4px" />
<path d="M 320.0 115.0 L 330.0 115.0" stroke="#FF0000" fill="none" stroke-width="4px" />
<path d="M 330.0 115.0 L 340.0 115.0" stroke="#FF0000" fill="none" stroke-width="4px" />
<path d="M 340.0 115.0 L 350.0 115.0" stroke="#FF0000" fill="none" stroke-width="4px" />
<path d="M 350.0 115.0 L 340.0 105.0" stroke="#FF0000" fill="none" stroke-width="4px" />
<path d="M 310.0 85.0 L 300.0 85.0" stroke="#FF0000" fill="none" stroke-width="4px" />
<path d="M 300.0 85.0 L 290.0 85.0" stroke="#FF0000" fill="none" stroke-width="4px" />
<path d="M 270.0 75.0 L 260.0 75.0" stroke="#FF0000" fill="none" stroke-width="4px" />
<path d="M 260.0 75.0 L 250.0 75.0" stroke="#FF0000" fill="none" stroke-width="4px" />
<path d="M 250.0 75.0 L 250.0 65.0" stroke="#FF0000" fill="none" stroke-width="4px" />
<path d="M 250.0 65.0 L 240.0 65.0" stroke="#FF0000" fill="none" stroke-width="4px" />
<path d="M 240.0 65.0 L 240.0 55.0" stroke="#FF0000" fill="none" stroke-width="4px" />
<path d="M 240.0 55.0 L 230.0 55.0" stroke="#FF0000" fill="none" stroke-width="4px" />
<path d="M 230.0 55.0 L 220.0 55.0" stroke="#FF0000" fill="none" stroke-width="4px" />
<path d="M 220.0 55.0 L 220.0 45.0" stroke="#FF0000" fill="none" stroke-width="4px" />
<path d="M 220.0 45.0 L 210.0 45.0" stroke="#FF0000" fill="none" stroke-width="4px" />
<path d="M 210.0 45.0 L 210.0 35.0" stroke="#FF0000" fill="none" stroke-width="4px" />
<path d="M 210.0 35.0 L 200.0 35.0" stroke="#FF0000" fill="none" stroke-width="4px" />
<path d="M 200.0 35.0 L 200.0 25.0" stroke="#FF0000" fill="none" stroke-width="4px" />
<path d="M 200.0 25.0 L 210.0 25.0" stroke="#FF0000" fill="none" stroke-width="4px" />
<path d="M 210.0 25.0 L 220.0 25.0" stroke="#FF0000" fill="none" stroke-width="4px" />
<path d="M 220.0 25.0 L 230.0 25.0" stroke="#FF0000" fill="none" stroke-width="4px" />
<path d="M 230.0 25.0 L 240.0 25.0" stroke="#FF0000" fill="none" stroke-width="4px" />
<path d="M 240.0 25.0 L 250.0 25.0" stroke="#FF0000" fill="none" stroke-width="4px" />
<path d="M 250.0 25.0 L 250.0 35.0" stroke="#FF0000" fill="none" stroke-width="4px" />
<path d="M 250.0 35.0 L 240.0 35.0" stroke="#FF0000" fill="none" stroke-width="4px" />
<path d="M 240.0 35.0 L 230.0 35.0" stroke="#FF0000" fill="none" stroke-width="4px" />
<path d="M 230.0 35.0 L 220.0 35.0" stroke="#FF0000" fill="none" stroke-width="4px" />
<path d="M 220.0 35.0 L 230.0 45.0" stroke="#FF0000" fill="none" stroke-width="4px" />
<path d="M 230.0 45.0 L 240.0 45.0" stroke="#FF0000" fill="none" stroke-width="4px" />
<path d="M 240.0 45.0 L 250.0 45.0" stroke="#FF0000" fill="none" stroke-width="4px" />
<path d="M 250.0 45.0 L 260.0 45.0" stroke="#FF0000" fill="none" stroke-width="4px" />
<path d="M 260.0 45.0 L 270.0 45.0" stroke="#FF0000" fill="none" stroke-width="4px" />
<path d="M 270.0 45.0 L 270.0 55.0" stroke="#FF0000" fill="none" stroke-width="4px" />
<path d="M 270.0 55.0 L 260.0 55.0" stroke="#FF0000" fill="none" stroke-width="4px" />
<path d="M 260.0 55.0 L 250.0 55.0" stroke="#FF0000" fill="none" stroke-width="4px" />
<path d="M 250.0 55.0 L 260.0 65.0" stroke="#FF0000" fill="none" stroke-width="4px" />
<path d="M 260.0 65.0 L 270.0 65.0" stroke="#FF0000" fill="none" stroke-width="4px" />
<path d="M 270.0 65.0 L 280.0 65.0" stroke="#FF0000" fill="none" stroke-width="4px" />
<path d="M 280.0 65.0 L 280.0 55.0" stroke="#FF0000" fill="none" stroke-width="4px" />
<path d="M 240.0 15.0 L 230.0 15.0" stroke="#FF0000" fill="none" stroke-width="4px" />
<path d="M 230.0 15.0 L 220.0 15.0" stroke="#FF0000" fill="none" stroke-width="4px" />
<path d="M 220.0 15.0 L 210.0 15.0" stroke="#FF0000" fill="none" stroke-width="4px" />
<path d="M 210.0 15.0 L 200.0 15.0" stroke="#FF0000" fill="none" stroke-width="4px" />
<path d="M 200.0 15.0 L 210.0 5.0" stroke="#FF0000" fill="none" stroke-width="4px" />
<path d="M 210.0 5.0 L 220.0 5.0" stroke="#FF0000" fill="none" stroke-width="4px" />
<path d="M 220.0 5.0 L 230.0 5.0" stroke="#FF0000" fill="none" stroke-width="4px" />
<path d="M 230.0 5.0 L 230.0 -5.0" stroke="#FF0000" fill="none" stroke-width="4px" />
<path d="M 230.0 -5.0 L 220.0 -5.0" stroke="#FF0000" fill="none" stroke-width="4px" />
<path d="M 220.0 -5.0 L 210.0 -5.0" stroke="#FF0000" fill="none" stroke-width="4px" />
<path d="M 270.0 205.0 L 280.0 205.0" stroke="#FF0000" fill="none" stroke-width="4px" />
<path d="M 280.0 205.0 L 290.0 205.0" stroke="#FF0000" fill="none" stroke-width="4px" />
<path d="M 290.0 205.0 L 300.0 205.0" stroke="#FF0000" fill="none" stroke-width="4px" />
<path d="M 300.0 205.0 L 310.0 205.0" stroke="#FF0000" fill="none" stroke-width="4px" />
<path d="M 310.0 205.0 L 320.0 205.0" stroke="#FF0000" fill="none" stroke-width="4px" />
<path d="M 320.0 205.0 L 330.0 205.0" stroke="#FF0000" fill="none" stroke-width="4px" />
<path d="M 330.0 205.0 L 320.0 215.0" stroke="#FF0000" fill="none" stroke-width="4px" />
<path d="M 320.0 215.0 L 310.0 215.0" stroke="#FF0000" fill="none" stroke-width="4px" />
<path d="M 310.0 215.0 L 300.0 215.0" stroke="#FF0000" fill="none" stroke-width="4px" />
<path d="M 300.0 215.0 L 280.0 215.0" stroke="#FF0000" fill="none" stroke-width="4px" />
<path d="M 560.0 205.0 L 570.0 205.0" stroke="#FF0000" fill="none" stroke-width="4px" />
<path d="M 570.0 205.0 L 580.0 205.0" stroke="#FF0000" fill="none" stroke-width="4px" />
<path d="M 580.0 205.0 L 590.0 205.0" stroke="#FF0000" fill="none" stroke-width="4px" />
<path d="M 590.0 205.0 L 600.0 205.0" stroke="#FF0000" fill="none" stroke-width="4px" />
<path d="M 600.0 205.0 L 610.0 205.0" stroke="#FF0000" fill="none" stroke-width="4px" />
<path d="M 610.0 205.0 L 620.0 205.0" stroke="#FF0000" fill="none" stroke-width="4px" />
<path d="M 620.0 205.0 L 620.0 195.0" stroke="#FF0000" fill="none" stroke-width="4px" />
<path d="M 620.0 195.0 L 610.0 195.0" stroke="#FF0000" fill="none" stroke-width="4px" />
<path d="M 610.0 195.0 L 600.0 195.0" stroke="#FF0000" fill="none" stroke-width="4px" />
<path d="M 600.0 195.0 L 590.0 195.0" stroke="#FF0000" fill="none" stroke-width="4px" />
<path d="M 590.0 195.0 L 580.0 195.0" stroke="#FF0000" fill="none" stroke-width="4px" />
<path d="M 580.0 195.0 L 570.0 195.0" stroke="#FF0000" fill="none" stroke-width="4px" />
<path d="M 570.0 195.0 L 560.0 195.0" stroke="#FF0000" fill="none" stroke-width="4px" />
<path d="M 560.0 195.0 L 570.0 185.0" stroke="#FF0000" fill="none" stroke-width="4px" />
<path d="M 570.0 185.0 L 580.0 185.0" stroke="#FF0000" fill="none" stroke-width="4px" />
<path d="M 580.0 185.0 L 590.0 185.0" stroke="#FF0000" fill="none" stroke-width="4px" />
<path d="M 590.0 185.0 L 600.0 185.0" stroke="#FF0000" fill="none" stroke-width="4px" />
<path d="M 600.0 185.0 L 610.0 185.0" stroke="#FF0000" fill="none" stroke-width="4px" />
<path d="M 610.0 185.0 L 620.0 185.0" stroke="#FF0000" fill="none" stroke-width="4px" />
<path d="M 620.0 185.0 L 630.0 185.0" stroke="#FF0000" fill="none" stroke-width="4px" />
<path d="M 630.0 185.0 L 640.0 185.0" stroke="#FF0000" fill="none" stroke-width="4px" />
<path d="M 640.0 185.0 L 640.0 175.0" stroke="#FF0000" fill="none" stroke-width="4px" />
<path d="M 640.0 175.0 L 630.0 175.0" stroke="#FF0000" fill="none" stroke-width="4px" />
<path d="M 630.0 175.0 L 620.0 175.0" stroke="#FF0000" fill="none" stroke-width="4px" />
<path d="M 620.0 175.0 L 610.0 175.0" stroke="#FF0000" fill="none" stroke-width="4px" />
<path d="M 610.0 175.0 L 600.0 175.0" stroke="#FF0000" fill="none" stroke-width="4px" />
<path d="M 600.0 175.0 L 590.0 175.0" stroke="#FF0000" fill="none" stroke-width="4px" />
<path d="M 590.0 175.0 L 580.0 175.0" stroke="#FF0000" fill="none" stroke-width="4px" />
<path d="M 580.0 175.0 L 590.0 165.0" stroke="#FF0000" fill="none" stroke-width="4px" />
<path d="M 590.0 165.0 L 600.0 165.0" stroke="#FF0000" fill="none" stroke-width="4px" />
<path d="M 600.0 165.0 L 610.0 165.0" stroke="#FF0000" fill="none" stroke-width="4px" />
<path d="M 610.0 165.0 L 620.0 165.0" stroke="#FF0000" fill="none" stroke-width="4px" />
<path d="M 620.0 165.0 L 630.0 165.0" stroke="#FF0000" fill="none" stroke-width="4px" />
<path d="M 630.0 165.0 L 640.0 165.0" stroke="#FF0000" fill="none" stroke-width="4px" />
<path d="M 640.0 165.0 L 640.0 155.0" stroke="#FF0000" fill="none" stroke-width="4px" />
<path d="M 640.0 155.0 L 630.0 155.0" stroke="#FF0000" fill="none" stroke-width="4px" />
<path d="M 630.0 155.0 L 620.0 155.0" stroke="#FF0000" fill="none" stroke-width="4px" />
<path d="M 620.0 155.0 L 610.0 155.0" stroke="#FF0000" fill="none" stroke-width="4px" />
<path d="M 610.0 155.0 L 620.0 145.0" stroke="#FF0000" fill="none" stroke-width="4px" />
<path d="M 620.0 145.0 L 630.0 145.0" stroke="#FF0000" fill="none" stroke-width="4px" />
<path d="M 610.0 215.0 L 600.0 215.0" stroke="#FF0000" fill="none" stroke-width="4px" />
<path d="M 600.0 215.0 L 590.0 215.0" stroke="#FF0000" fill="none" stroke-width="4px" />
<path d="M 590.0 215.0 L 580.0 215.0" stroke="#FF0000" fill="none" stroke-width="4px" />
<path d="M 580.0 215.0 L 570.0 215.0" stroke="#FF0000" fill="none" stroke-width="4px" />
<path d="M 570.0 215.0 L 580.0 225.0" stroke="#FF0000" fill="none" stroke-width="4px" />
<path d="M 580.0 225.0 L 590.0 225.0" stroke="#FF0000" fill="none" stroke-width="4px" />
<path d="M 590.0 225.0 L 600.0 225.0" stroke="#FF0000" fill="none" stroke-width="4px" />
<path d="M 1400.0 55.0 L 1410.0 55.0" stroke="#FF0000" fill="none" stroke-width="4px" />
<path d="M 1410.0 55.0 L 1420.0 55.0" stroke="#FF0000" fill="none" stroke-width="4px" />
<path d="M 1420.0 55.0 L 1430.0 55.0" stroke="#FF0000" fill="none" stroke-width="4px" />
<path d="M 1430.0 55.0 L 1440.0 55.0" stroke="#FF0000" fill="none" stroke-width="4px" />
<path d="M 1440.0 55.0 L 1450.0 55.0" stroke="#FF0000" fill="none" stroke-width="4px" />
<path d="M 1450.0 55.0 L 1450.0 65.0" stroke="#FF0000" fill="none" stroke-width="4px" />
<path d="M 1450.0 65.0 L 1440.0 65.0" stroke="#FF0000" fill="none" stroke-width="4px" />
<path d="M 1440.0 65.0 L 1430.0 65.0" stroke="#FF0000" fill="none" stroke-width="4px" />
<path d="M 1430.0 65.0 L 1420.0 65.0" stroke="#FF0000" fill="none" stroke-width="4px" />
<path d="M 1420.0 65.0 L 1410.0 65.0" stroke="#FF0000" fill="none" stroke-width="4px" />
<path d="M 1410.0 65.0 L 1420.0 75.0" stroke="#FF0000" fill="none" stroke-width="4px" />
<path d="M 1420.0 75.0 L 1430.0 75.0" stroke="#FF0000" fill="none" stroke-width="4px" />
<path d="M 1430.0 75.0 L 1440.0 75.0" stroke="#FF0000" fill="none" stroke-width="4px" />
<path d="M 1440.0 75.0 L 1450.0 75.0" stroke="#FF0000" fill="none" stroke-width="4px" />
<path d="M 1450.0 75.0 L 1460.0 75.0" stroke="#FF0000" fill="none" stroke-width="4px" />
<path d="M 1460.0 75.0 L 1470.0 75.0" stroke="#FF0000" fill="none" stroke-width="4px" />
<path d="M 1470.0 75.0 L 1470.0 85.0" stroke="#FF0000" fill="none" stroke-width="4px" />
<path d="M 1470.0 85.0 L 1460.0 85.0" stroke="#FF0000" fill="none" stroke-width="4px" />
<path d="M 1460.0 85.0 L 1450.0 85.0" stroke="#FF0000" fill="none" stroke-width="4px" />
<path d="M 1450.0 85.0 L 1440.0 85.0" stroke="#FF0000" fill="none" stroke-width="4px" />
<path d="M 1440.0 85.0 L 1430.0 85.0" stroke="#FF0000" fill="none" stroke-width="4px" />
<path d="M 1430.0 85.0 L 1440.0 95.0" stroke="#FF0000" fill="none" stroke-width="4px" />
<path d="M 1440.0 95.0 L 1450.0 95.0" stroke="#FF0000" fill="none" stroke-width="4px" />
<path d="M 1450.0 95.0 L 1460.0 95.0" stroke="#FF0000" fill="none" stroke-width="4px" />
<path d="M 1460.0 95.0 L 1470.0 95.0" stroke="#FF0000" fill="none" stroke-width="4px" />
<path d="M 1470.0 95.0 L 1480.0 95.0" stroke="#FF0000" fill="none" stroke-width="4px" />
<path d="M 1480.0 95.0 L 1490.0 95.0" stroke="#FF0000" fill="none" stroke-width="4px" />
<path d="M 1490.0 95.0 L 1490.0 105.0" stroke="#FF0000" fill="none" stroke-width="4px" />
<path d="M 1490.0 105.0 L 1480.0 105.0" stroke="#FF0000" fill="none" stroke-width="4px" />
<path d="M 1480.0 105.0 L 1470.0 105.0" stroke="#FF0000" fill="none" stroke-width="4px" />
<path d="M 1470.0 105.0 L 1460.0 105.0" stroke="#FF0000" fill="none" stroke-width="4px" />
<path d="M 1460.0 105.0 L 1450.0 105.0" stroke="#FF0000" fill="none" stroke-width="4px" />
<path d="M 1450.0 105.0 L 1440.0 105.0" stroke="#FF0000" fill="none" stroke-width="4px" />
<path d="M 1440.0 105.0 L 1440.0 115.0" stroke="#FF0000" fill="none" stroke-width="4px" />
<path d="M 1440.0 115.0 L 1450.0 115.0" stroke="#FF0000" fill="none" stroke-width="4px" />
<path d="M 1450.0 115.0 L 1460.0 115.0" stroke="#FF0000" fill="none" stroke-width="4px" />
<path d="M 1460.0 115.0 L 1470.0 115.0" stroke="#FF0000" fill="none" stroke-width="4px" />
<path d="M 1470.0 115.0 L 1480.0 115.0" stroke="#FF0000" fill="none" stroke-width="4px" />
<path d="M 1480.0 115.0 L 1490.0 115.0" stroke="#FF0000" fill="none" stroke-width="4px" />
<path d="M 1490.0 115.0 L 1500.0 115.0" stroke="#FF0000" fill="none" stroke-width="4px" />
<path d="M 1500.0 115.0 L 1510.0 115.0" stroke="#FF0000" fill="none" stroke-width="4px" />
<path d="M 1510.0 115.0 L 1500.0 125.0" stroke="#FF0000" fill="none" stroke-width="4px" />
<path d="M 1500.0 125.0 L 1490.0 125.0" stroke="#FF0000" fill="none" stroke-width="4px" />
<path d="M 1490.0 125.0 L 1480.0 125.0" stroke="#FF0000" fill="none" stroke-width="4px" />
<path d="M 1480.0 125.0 L 1470.0 125.0" stroke="#FF0000" fill="none" stroke-width="4px" />
<path d="M 1470.0 125.0 L 1460.0 125.0" stroke="#FF0000" fill="none" stroke-width="4px" />
<path d="M 1460.0 125.0 L 1450.0 125.0" stroke="#FF0000" fill="none" stroke-width="4px" />
<path d="M 1450.0 125.0 L 1460.0 135.0" stroke="#FF0000" fill="none" stroke-width="4px" />
<path d="M 1460.0 135.0 L 1470.0 135.0" stroke="#FF0000" fill="none" stroke-width="4px" />
<path d="M 1470.0 135.0 L 1480.0 135.0" stroke="#FF0000" fill="none" stroke-width="4px" />
<path d="M 1480.0 135.0 L 1490.0 135.0" stroke="#FF0000" fill="none" stroke-width="4px" />
<path d="M 1490.0 135.0 L 1480.0 145.0" stroke="#FF0000" fill="none" stroke-width="4px" />
<path d="M 1480.0 145.0 L 1470.0 145.0" stroke="#FF0000" fill="none" stroke-width="4px" />
<path d="M 1450.0 45.0 L 1440.0 45.0" stroke="#FF0000" fill="none" stroke-width="4px" />
<path d="M 1440.0 45.0 L 1430.0 45.0" stroke="#FF0000" fill="none" stroke-width="4px" />
<path d="M 1430.0 45.0 L 1420.0 45.0" stroke="#FF0000" fill="none" stroke-width="4px" />
<path d="M 1420.0 45.0 L 1410.0 45.0" stroke="#FF0000" fill="none" stroke-width="4px" />
<path d="M 1410.0 45.0 L 1400.0 45.0" stroke="#FF0000" fill="none" stroke-width="4px" />
<path d="M 1400.0 45.0 L 1400.0 35.0" stroke="#FF0000" fill="none" stroke-width="4px" />
<path d="M 1400.0 35.0 L 1410.0 35.0" stroke="#FF0000" fill="none" stroke-width="4px" />
<path d="M 1410.0 35.0 L 1420.0 35.0" stroke="#FF0000" fill="none" stroke-width="4px" />
<path d="M 1420.0 35.0 L 1430.0 35.0" stroke="#FF0000" fill="none" stroke-width="4px" />
<path d="M 1430.0 35.0 L 1440.0 35.0" stroke="#FF0000" fill="none" stroke-width="4px" />
<path d="M 1440.0 35.0 L 1450.0 35.0" stroke="#FF0000" fill="none" stroke-width="4px" />
<path d="M 1450.0 35.0 L 1440.0 25.0" stroke="#FF0000" fill="none" stroke-width="4px" />
<path d="M 1440.0 25.0 L 1430.0 25.0" stroke="#FF0000" fill="none" stroke-width="4px" />
<path d="M 1430.0 25.0 L 1420.0 25.0" stroke="#FF0000" fill="none" stroke-width="4px" />
<path d="M 1420.0 25.0 L 1410.0 25.0" stroke="#FF0000" fill="none" stroke-width="4px" />
<path d="M 1410.0 25.0 L 1420.0 15.0" stroke="#FF0000" fill="none" stroke-width="4px" />
<path d="M 2340.0 75.0 L 2330.0 75.0" stroke="#FF0000" fill="none" stroke-width="4px" />
<path d="M 2330.0 75.0 L 2320.0 75.0" stroke="#FF0000" fill="none" stroke-width="4px" />
<path d="M 2320.0 75.0 L 2310.0 75.0" stroke="#FF0000" fill="none" stroke-width="4px" />
<path d="M 2310.0 75.0 L 2310.0 65.0" stroke="#FF0000" fill="none" stroke-width="4px" />
<path d="M 2310.0 65.0 L 2300.0 65.0" stroke="#FF0000" fill="none" stroke-width="4px" />
<path d="M 2300.0 65.0 L 2290.0 65.0" stroke="#FF0000" fill="none" stroke-width="4px" />
<path d="M 2290.0 65.0 L 2280.0 65.0" stroke="#FF0000" fill="none" stroke-width="4px" />
<path d="M 2280.0 65.0 L 2270.0 65.0" stroke="#FF0000" fill="none" stroke-width="4px" />
<path d="M 2270.0 65.0 L 2260.0 65.0" stroke="#FF0000" fill="none" stroke-width="4px" />
<path d="M 2260.0 65.0 L 2250.0 65.0" stroke="#FF0000" fill="none" stroke-width="4px" />
<path d="M 2250.0 65.0 L 2250.0 55.0" stroke="#FF0000" fill="none" stroke-width="4px" />
<path d="M 2250.0 55.0 L 2240.0 55.0" stroke="#FF0000" fill="none" stroke-width="4px" />
<path d="M 2240.0 55.0 L 2230.0 55.0" stroke="#FF0000" fill="none" stroke-width="4px" />
<path d="M 2230.0 55.0 L 2230.0 45.0" stroke="#FF0000" fill="none" stroke-width="4px" />
<path d="M 2230.0 45.0 L 2220.0 45.0" stroke="#FF0000" fill="none" stroke-width="4px" />
<path d="M 2220.0 45.0 L 2220.0 35.0" stroke="#FF0000" fill="none" stroke-width="4px" />
<path d="M 2220.0 35.0 L 2230.0 35.0" stroke="#FF0000" fill="none" stroke-width="4px" />
<path d="M 2230.0 35.0 L 2240.0 35.0" stroke="#FF0000" fill="none" stroke-width="4px" />
<path d="M 2240.0 35.0 L 2250.0 35.0" stroke="#FF0000" fill="none" stroke-width="4px" />
<path d="M 2250.0 35.0 L 2260.0 35.0" stroke="#FF0000" fill="none" stroke-width="4px" />
<path d="M 2260.0 35.0 L 2270.0 35.0" stroke="#FF0000" fill="none" stroke-width="4px" />
<path d="M 2270.0 35.0 L 2280.0 35.0" stroke="#FF0000" fill="none" stroke-width="4px" />
<path d="M 2280.0 35.0 L 2290.0 35.0" stroke="#FF0000" fill="none" stroke-width="4px" />
<path d="M 2290.0 35.0 L 2300.0 35.0" stroke="#FF0000" fill="none" stroke-width="4px" />
<path d="M 2300.0 35.0 L 2310.0 35.0" stroke="#FF0000" fill="none" stroke-width="4px" />
<path d="M 2310.0 35.0 L 2320.0 35.0" stroke="#FF0000" fill="none" stroke-width="4px" />
<path d="M 2320.0 35.0 L 2330.0 35.0" stroke="#FF0000" fill="none" stroke-width="4px" />
<path d="M 2330.0 35.0 L 2340.0 35.0" stroke="#FF0000" fill="none" stroke-width="4px" />
<path d="M 2340.0 35.0 L 2340.0 45.0" stroke="#FF0000" fill="none" stroke-width="4px" />
<path d="M 2340.0 45.0 L 2330.0 45.0" stroke="#FF0000" fill="none" stroke-width="4px" />
<path d="M 2330.0 45.0 L 2320.0 45.0" stroke="#FF0000" fill="none" stroke-width="4px" />
<path d="M 2320.0 45.0 L 2310.0 45.0" stroke="#FF0000" fill="none" stroke-width="4px" />
<path d="M 2310.0 45.0 L 2300.0 45.0" stroke="#FF0000" fill="none" stroke-width="4px" />
<path d="M 2300.0 45.0 L 2290.0 45.0" stroke="#FF0000" fill="none" stroke-width="4px" />
<path d="M 2290.0 45.0 L 2280.0 45.0" stroke="#FF0000" fill="none" stroke-width="4px" />
<path d="M 2280.0 45.0 L 2270.0 45.0" stroke="#FF0000" fill="none" stroke-width="4px" />
<path d="M 2270.0 45.0 L 2260.0 45.0" stroke="#FF0000" fill="none" stroke-width="4px" />
<path d="M 2260.0 45.0 L 2250.0 45.0" stroke="#FF0000" fill="none" stroke-width="4px" />
<path d="M 2250.0 45.0 L 2240.0 45.0" stroke="#FF0000" fill="none" stroke-width="4px" />
<path d="M 2260.0 55.0 L 2270.0 55.0" stroke="#FF0000" fill="none" stroke-width="4px" />
<path d="M 2270.0 55.0 L 2280.0 55.0" stroke="#FF0000" fill="none" stroke-width="4px" />
<path d="M 2280.0 55.0 L 2290.0 55.0" stroke="#FF0000" fill="none" stroke-width="4px" />
<path d="M 2290.0 55.0 L 2300.0 55.0" stroke="#FF0000" fill="none" stroke-width="4px" />
<path d="M 2300.0 55.0 L 2310.0 55.0" stroke="#FF0000" fill="none" stroke-width="4px" />
<path d="M 2310.0 55.0 L 2320.0 55.0" stroke="#FF0000" fill="none" stroke-width="4px" />
<path d="M 2320.0 55.0 L 2330.0 55.0" stroke="#FF0000" fill="none" stroke-width="4px" />
<path d="M 2330.0 55.0 L 2340.0 55.0" stroke="#FF0000" fill="none" stroke-width="4px" />
<path d="M 2340.0 55.0 L 2350.0 55.0" stroke="#FF0000" fill="none" stroke-width="4px" />
<path d="M 2350.0 55.0 L 2360.0 55.0" stroke="#FF0000" fill="none" stroke-width="4px" />
<path d="M 2360.0 55.0 L 2350.0 65.0" stroke="#FF0000" fill="none" stroke-width="4px" />
<path d="M 2350.0 65.0 L 2340.0 65.0" stroke="#FF0000" fill="none" stroke-width="4px" />
<path d="M 2340.0 65.0 L 2330.0 65.0" stroke="#FF0000" fill="none" stroke-width="4px" />
<path d="M 2330.0 65.0 L 2320.0 65.0" stroke="#FF0000" fill="none" stroke-width="4px" />
<path d="M 2290.0 75.0 L 2280.0 75.0" stroke="#FF0000" fill="none" stroke-width="4px" />
<path d="M 2280.0 75.0 L 2270.0 75.0" stroke="#FF0000" fill="none" stroke-width="4px" />
<path d="M 2270.0 75.0 L 2260.0 75.0" stroke="#FF0000" fill="none" stroke-width="4px" />
<path d="M 2260.0 25.0 L 2250.0 25.0" stroke="#FF0000" fill="none" stroke-width="4px" />
<path d="M 2250.0 25.0 L 2240.0 25.0" stroke="#FF0000" fill="none" stroke-width="4px" />
<path d="M 2240.0 25.0 L 2230.0 25.0" stroke="#FF0000" fill="none" stroke-width="4px" />
<path d="M 2230.0 25.0 L 2220.0 25.0" stroke="#FF0000" fill="none" stroke-width="4px" />
<path d="M 2220.0 25.0 L 2220.0 15.0" stroke="#FF0000" fill="none" stroke-width="4px" />
<path d="M 2220.0 15.0 L 2230.0 15.0" stroke="#FF0000" fill="none" stroke-width="4px" />
<path d="M 2230.0 15.0 L 2240.0 15.0" stroke="#FF0000" fill="none" stroke-width="4px" />
<path d="M 2240.0 15.0 L 2250.0 15.0" stroke="#FF0000" fill="none" stroke-width="4px" />
<path d="M 2250.0 15.0 L 2260.0 15.0" stroke="#FF0000" fill="none" stroke-width="4px" />
<path d="M 2260.0 15.0 L 2270.0 15.0" stroke="#FF0000" fill="none" stroke-width="4px" />
<path d="M 2270.0 15.0 L 2280.0 15.0" stroke="#FF0000" fill="none" stroke-width="4px" />
<path d="M 2280.0 15.0 L 2290.0 15.0" stroke="#FF0000" fill="none" stroke-width="4px" />
<path d="M 2290.0 15.0 L 2300.0 15.0" stroke="#FF0000" fill="none" stroke-width="4px" />
<path d="M 2300.0 15.0 L 2310.0 15.0" stroke="#FF0000" fill="none" stroke-width="4px" />
<path d="M 2310.0 15.0 L 2320.0 15.0" stroke="#FF0000" fill="none" stroke-width="4px" />
<path d="M 2320.0 15.0 L 2320.0 25.0" stroke="#FF0000" fill="none" stroke-width="4px" />
<path d="M 2320.0 25.0 L 2310.0 25.0" stroke="#FF0000" fill="none" stroke-width="4px" />
<path d="M 2310.0 25.0 L 2300.0 25.0" stroke="#FF0000" fill="none" stroke-width="4px" />
<path d="M 2300.0 25.0 L 2290.0 25.0" stroke="#FF0000" fill="none" stroke-width="4px" />
<path d="M 2290.0 25.0 L 2280.0 25.0" stroke="#FF0000" fill="none" stroke-width="4px" />
<path d="M 2280.0 25.0 L 2270.0 25.0" stroke="#FF0000" fill="none" stroke-width="4px" />
<path d="M 2280.0 5.0 L 2290.0 5.0" stroke="#FF0000" fill="none" stroke-width="4px" />
<path d="M 2290.0 5.0 L 2300.0 5.0" stroke="#FF0000" fill="none" stroke-width="4px" />
<path d="M 2300.0 5.0 L 2310.0 5.0" stroke="#FF0000" fill="none" stroke-width="4px" />
<path d="M 2310.0 5.0 L 2320.0 5.0" stroke="#FF0000" fill="none" stroke-width="4px" />
<path d="M 2320.0 5.0 L 2320.0 -5.0" stroke="#FF0000" fill="none" stroke-width="4px" />
<path d="M 2320.0 -5.0 L 2310.0 -5.0" stroke="#FF0000" fill="none" stroke-width="4px" />
<path d="M 2310.0 -5.0 L 2300.0 -5.0" stroke="#FF0000" fill="none" stroke-width="4px" />
<path d="M 2300.0 -5.0 L 2290.0 -5.0" stroke="#FF0000" fill="none" stroke-width="4px" />
<path d="M 2290.0 -5.0 L 2280.0 -5.0" stroke="#FF0000" fill="none" stroke-width="4px" />
<path d="M 2250.0 -5.0 L 2240.0 -5.0" stroke="#FF0000" fill="none" stroke-width="4px" />
<path d="M 2240.0 -5.0 L 2240.0 5.0" stroke="#FF0000" fill="none" stroke-width="4px" />
<path d="M 2240.0 5.0 L 2230.0 5.0" stroke="#FF0000" fill="none" stroke-width="4px" />
<path d="M 2230.0 5.0 L 2250.0 5.0" stroke="#FF0000" fill="none" stroke-width="4px" />
<path d="M 1990.0 135.0 L 1980.0 135.0" stroke="#FF0000" fill="none" stroke-width="4px" />
<path d="M 1980.0 135.0 L 1970.0 135.0" stroke="#FF0000" fill="none" stroke-width="4px" />
<path d="M 1970.0 135.0 L 1960.0 135.0" stroke="#FF0000" fill="none" stroke-width="4px" />
<path d="M 1960.0 135.0 L 1950.0 135.0" stroke="#FF0000" fill="none" stroke-width="4px" />
<path d="M 1950.0 135.0 L 1940.0 135.0" stroke="#FF0000" fill="none" stroke-width="4px" />
<path d="M 1940.0 135.0 L 1940.0 145.0" stroke="#FF0000" fill="none" stroke-width="4px" />
<path d="M 1940.0 145.0 L 1930.0 145.0" stroke="#FF0000" fill="none" stroke-width="4px" />
<path d="M 1930.0 145.0 L 1930.0 155.0" stroke="#FF0000" fill="none" stroke-width="4px" />
<path d="M 1930.0 155.0 L 1920.0 155.0" stroke="#FF0000" fill="none" stroke-width="4px" />
<path d="M 1920.0 155.0 L 1920.0 165.0" stroke="#FF0000" fill="none" stroke-width="4px" />
<path d="M 1920.0 165.0 L 1910.0 165.0" stroke="#FF0000" fill="none" stroke-width="4px" />
<path d="M 1910.0 165.0 L 1920.0 175.0" stroke="#FF0000" fill="none" stroke-width="4px" />
<path d="M 1920.0 175.0 L 1930.0 175.0" stroke="#FF0000" fill="none" stroke-width="4px" />
<path d="M 1930.0 175.0 L 1940.0 175.0" stroke="#FF0000" fill="none" stroke-width="4px" />
<path d="M 1940.0 175.0 L 1950.0 175.0" stroke="#FF0000" fill="none" stroke-width="4px" />
<path d="M 1950.0 175.0 L 1960.0 175.0" stroke="#FF0000" fill="none" stroke-width="4px" />
<path d="M 1960.0 175.0 L 1970.0 175.0" stroke="#FF0000" fill="none" stroke-width="4px" />
<path d="M 1970.0 175.0 L 1980.0 175.0" stroke="#FF0000" fill="none" stroke-width="4px" />
<path d="M 1980.0 175.0 L 1990.0 175.0" stroke="#FF0000" fill="none" stroke-width="4px" />
<path d="M 1990.0 175.0 L 1990.0 165.0" stroke="#FF0000" fill="none" stroke-width="4px" />
<path d="M 1990.0 165.0 L 1980.0 165.0" stroke="#FF0000" fill="none" stroke-width="4px" />
<path d="M 1980.0 165.0 L 1970.0 165.0" stroke="#FF0000" fill="none" stroke-width="4px" />
<path d="M 1970.0 165.0 L 1960.0 165.0" stroke="#FF0000" fill="none" stroke-width="4px" />
<path d="M 1960.0 165.0 L 1950.0 165.0" stroke="#FF0000" fill="none" stroke-width="4px" />
<path d="M 1950.0 165.0 L 1940.0 165.0" stroke="#FF0000" fill="none" stroke-width="4px" />
<path d="M 1940.0 165.0 L 1930.0 165.0" stroke="#FF0000" fill="none" stroke-width="4px" />
<path d="M 1930.0 165.0 L 1940.0 155.0" stroke="#FF0000" fill="none" stroke-width="4px" />
<path d="M 1940.0 155.0 L 1950.0 155.0" stroke="#FF0000" fill="none" stroke-width="4px" />
<path d="M 1950.0 155.0 L 1960.0 155.0" stroke="#FF0000" fill="none" stroke-width="4px" />
<path d="M 1960.0 155.0 L 1970.0 155.0" stroke="#FF0000" fill="none" stroke-width="4px" />
<path d="M 1970.0 155.0 L 1980.0 155.0" stroke="#FF0000" fill="none" stroke-width="4px" />
<path d="M 1980.0 155.0 L 1990.0 155.0" stroke="#FF0000" fill="none" stroke-width="4px" />
<path d="M 1990.0 155.0 L 2000.0 155.0" stroke="#FF0000" fill="none" stroke-width="4px" />
<path d="M 2000.0 155.0 L 2000.0 165.0" stroke="#FF0000" fill="none" stroke-width="4px" />
<path d="M 1990.0 145.0 L 1980.0 145.0" stroke="#FF0000" fill="none" stroke-width="4px" />
<path d="M 1980.0 145.0 L 1970.0 145.0" stroke="#FF0000" fill="none" stroke-width="4px" />
<path d="M 1970.0 145.0 L 1960.0 145.0" stroke="#FF0000" fill="none" stroke-width="4px" />
<path d="M 1960.0 145.0 L 1950.0 145.0" stroke="#FF0000" fill="none" stroke-width="4px" />
<path d="M 1950.0 125.0 L 1960.0 125.0" stroke="#FF0000" fill="none" stroke-width="4px" />
<path d="M 1960.0 125.0 L 1970.0 125.0" stroke="#FF0000" fill="none" stroke-width="4px" />
<path d="M 1970.0 125.0 L 1980.0 125.0" stroke="#FF0000" fill="none" stroke-width="4px" />
<path d="M 1980.0 125.0 L 1970.0 115.0" stroke="#FF0000" fill="none" stroke-width="4px" />
<path d="M 1970.0 115.0 L 1960.0 115.0" stroke="#FF0000" fill="none" stroke-width="4px" />
<path d="M 1960.0 185.0 L 1950.0 185.0" stroke="#FF0000" fill="none" stroke-width="4px" />
<path d="M 1950.0 185.0 L 1940.0 185.0" stroke="#FF0000" fill="none" stroke-width="4px" />
<path d="M 1940.0 185.0 L 1930.0 185.0" stroke="#FF0000" fill="none" stroke-width="4px" />
<path d="M 1950.0 195.0 L 1960.0 195.0" stroke="#FF0000" fill="none" stroke-width="4px" />
<path d="M 1960.0 195.0 L 1970.0 195.0" stroke="#FF0000" fill="none" stroke-width="4px" />
<path d="M 1970.0 195.0 L 1970.0 185.0" stroke="#FF0000" fill="none" stroke-width="4px" />
<path d="M 1970.0 185.0 L 1980.0 185.0" stroke="#FF0000" fill="none" stroke-width="4px" />
</svg>