<svg width="1332.95833333" height="235.0" xmlns="http://www.w3.org/2000/svg" version="1.1">
<path d="M 0.0 235.0 L 1332.95833333 235.0 L 1332.95833333 0.0 L 0.0 0.0 L 0.0 235.0" stroke="#000000" fill="none" stroke-width="3px" />
<path d="M 10.0 257.5 L 0.0 247.5 L 10.0 237.5" stroke="#969696" fill="none" stroke-width="1px" />
<path d="M 10.0 237.5 L 1322.95833333 237.5" stroke="#969696" fill="none" stroke-width="1px" />
<path d="M 1322.95833333 237.5 L 1332.95833333 227.5 L 1322.95833333 217.5" stroke="#969696" fill="none" stroke-width="1px" />
<path d="M 1322.95833333 217.5 L 10.0 217.5" stroke="#969696" fill="none" stroke-width="1px" />
<path d="M 10.0 217.5 L 0.0 207.5 L 10.0 197.5" stroke="#969696" fill="none" stroke-width="1px" />
<path d="M 10.0 197.5 L 1322.95833333 197.5" stroke="#969696" fill="none" stroke-width="1px" />
<path d="M 1322.95833333 197.5 L 1332.95833333 187.5 L 1322.95833333 177.5" stroke="#969696" fill="none" stroke-width="1px" />
<path d="M 1322.95833333 177.5 L 10.0 177.5" stroke="#969696" fill="none" stroke-width="1px" />
<path d="M 10.0 177.5 L 0.0 167.5 L 10.0 157.5" stroke="#969696" fill="none" stroke-width="1px" />
<path d="M 10.0 157.5 L 1322.95833333 157.5" stroke="#969696" fill="none" stroke-width="1px" />
<path d="M 1322.95833333 157.5 L 1332.95833333 147.5 L 1322.95833333 137.5" stroke="#969696" fill="none" stroke-width="1px" />
<path d="M 1322.95833333 137.5 L 10.0 137.5" stroke="#969696" fill="none" stroke-width="1px" />
<path d="M 10.0 137.5 L 0.0 127.5 L 10.0 117.5" stroke="#969696" fill="none" stroke-width="1px" />
<path d="M 10.0 117.5 L 1322.95833333 117.5" stroke="#969696" fill="none" stroke-width="1px" />
<path d="M 1322.95833333 117.5 L 1332.95833333 107.5 L 1322.95833333 97.5" stroke="#969696" fill="none" stroke-width="1px" />
<path d="M 1322.95833333 97.5 L 10.0 97.5" stroke="#969696" fill="none" stroke-width="1px" />
<path d="M 10.0 97.5 L 0.0 87.5 L 10.0 77.5" stroke="#969696" fill="none" stroke-width="1px" />
<path d="M 10.0 77.5 L 1322.95833333 77.5" stroke="#969696" fill="none" stroke-width="1px" />
<path d="M 1322.95833333 77.5 L 1332.95833333 67.5 L 1322.95833333 57.5" stroke="#969696" fill="none" stroke-width="1px" />
<path d="M 1322.95833333 57.5 L 10.0 57.5" stroke="#969696" fill="none" stroke-width="1px" />
<path d="M 10.0 57.5 L 0.0 47.5 L 10.0 37.5" stroke="#969696" fill="none" stroke-width="1px" />
<path d="M 10.0 37.5 L 1322.95833333 37.5" stroke="#969696" fill="none" stroke-width="1px" />
<path d="M 1322.95833333 37.5 L 1332.95833333 27.5 L 1322.95833333 17.5" stroke="#969696" fill="none" stroke-width="1px" />
<path d="M 1322.95833333 17.5 L 10.0 17.5" stroke="#969696" fill="none" stroke-width="1px" />
<path d="M 10.0 17.5 L 0.0 7.5 L 10.0 -2.5" stroke="#969696" fill="none" stroke-width="1px" />
<path d="M 10.0 -2.5 L 1322.95833333 -2.5" stroke="#969696" fill="none" stroke-width="1px" />
<path d="M 1322.95833333 -2.5 L 1332.95833333 -12.5 L 1322.95833333 -22.5" stroke="#969696" fill="none" stroke-width="1px" />
<path d="M 0.0 235.0 L 390.0 125.0" stroke="#0095FF" fill="none" stroke-width="2px" />
<path d="M 420.0 145.0 L 420.0 115.0" stroke="#0095FF" fill="none" stroke-width="2px" />
<path d="M 410.0 105.0 L 650.0 145.0" stroke="#0095FF" fill="none" stroke-width="2px" />
<path d="M 720.0 115.0 L 690.0 135.0" stroke="#0095FF" fill="none" stroke-width="2px" />
<path d="M 680.0 125.0 L 680.0 155.0" stroke="#0095FF" fill="none" stroke-width="2px" />
<path d="M 690.0 205.0 L 710.0 175.0" stroke="#0095FF" fill="none" stroke-width="2px" />
<path d="M 710.0 175.0 L 730.0 165.0" stroke="#0095FF" fill="none" stroke-width="2px" />
<path d="M 690.0 155.0 L 740.0 155.0" stroke="#0095FF" fill="none" stroke-width="2px" />
<path d="M 740.0 155.0 L 900.0 155.0" stroke="#0095FF" fill="none" stroke-width="2px" />
<path d="M 930.0 195.0 L 930.0 145.0" stroke="#0095FF" fill="none" stroke-width="2px" />
<path d="M 950.0 145.0 L 970.0 135.0" stroke="#0095FF" fill="none" stroke-width="2px" />
<path d="M 1010.0 125.0 L 1010.0 105.0" stroke="#0095FF" fill="none" stroke-width="2px" />
<path d="M 980.0 75.0 L 980.0 145.0" stroke="#0095FF" fill="none" stroke-width="2px" />
<path d="M 980.0 145.0 L 1090.0 145.0" stroke="#0095FF" fill="none" stroke-width="2px" />
<path d="M 1140.0 195.0 L 1160.0 155.0" stroke="#0095FF" fill="none" stroke-width="2px" />
<path d="M 1160.0 155.0 L 1190.0 145.0" stroke="#0095FF" fill="none" stroke-width="2px" />
<path d="M 1190.0 95.0 L 1210.0 135.0" stroke="#0095FF" fill="none" stroke-width="2px" />
<path d="M 1210.0 135.0 L 1140.0 135.0" stroke="#0095FF" fill="none" stroke-width="2px" />
<path d="M 390.0 125.0 L 400.0 125.0" stroke="#FF0000" fill="none" stroke-width="4px" />
<path d="M 400.0 125.0 L 410.0 125.0" stroke="#FF0000" fill="none" stroke-width="4px" />
<path d="M 410.0 125.0 L 420.0 125.0" stroke="#FF0000" fill="none" stroke-width="4px" />
<path d="M 420.0 125.0 L 430.0 125.0" stroke="#FF0000" fill="none" stroke-width="4px" />
<path d="M 430.0 125.0 L 430.0 135.0" stroke="#FF0000" fill="none" stroke-width="4px" />
<path d="M 430.0 135.0 L 420.0 135.0" stroke="#FF0000" fill="none" stroke-width="4px" />
<path d="M 420.0 135.0 L 410.0 135.0" stroke="#FF0000" fill="none" stroke-width="4px" />
<path d="M 410.0 135.0 L 400.0 135.0" stroke="#FF0000" fill="none" stroke-width="4px" />
<path d="M 400.0 135.0 L 410.0 145.0" stroke="#FF0000" fill="none" stroke-width="4px" />
<path d="M 410.0 145.0 L 420.0 145.0" stroke="#FF0000" fill="none" stroke-width="4px" />
<path d="M 420.0 115.0 L 410.0 115.0" stroke="#FF0000" fill="none" stroke-width="4px" />
<path d="M 410.0 115.0 L 400.0 115.0" stroke="#FF0000" fill="none" stroke-width="4px" />
<path d="M 400.0 115.0 L 390.0 115.0" stroke="#FF0000" fill="none" stroke-width="4px" />
<path d="M 390.0 115.0 L 400.0 105.0" stroke="#FF0000" fill="none" stroke-width="4px" />
<path d="M 400.0 105.0 L 410.0 105.0" stroke="#FF0000" fill="none" stroke-width="4px" />
<path d="M 650.0 145.0 L 660.0 145.0" stroke="#FF0000" fill="none" stroke-width="4px" />
<path d="M 660.0 145.0 L 670.0 145.0" stroke="#FF0000" fill="none" stroke-width="4px" />
<path d="M 670.0 145.0 L 680.0 145.0" stroke="#FF0000" fill="none" stroke-width="4px" />
<path d="M 680.0 145.0 L 690.0 145.0" stroke="#FF0000" fill="none" stroke-width="4px" />
<path d="M 690.0 145.0 L 700.0 145.0" stroke="#FF0000" fill="none" stroke-width="4px" />
<path d="M 700.0 145.0 L 710.0 145.0" stroke="#FF0000" fill="none" stroke-width="4px" />
<path d="M 710.0 145.0 L 720.0 145.0" stroke="#FF0000" fill="none" stroke-width="4px" />
<path d="M 720.0 145.0 L 730.0 145.0" stroke="#FF0000" fill="none" stroke-width="4px" />
<path d="M 730.0 145.0 L 740.0 145.0" stroke="#FF0000" fill="none" stroke-width="4px" />
<path d="M 740.0 145.0 L 750.0 145.0" stroke="#FF0000" fill="none" stroke-width="4px" />
<path d="M 750.0 145.0 L 750.0 135.0" stroke="#FF0000" fill="none" stroke-width="4px" />
<path d="M 750.0 135.0 L 740.0 135.0" stroke="#FF0000" fill="none" stroke-width="4px" />
<path d="M 740.0 135.0 L 730.0 135.0" stroke="#FF0000" fill="none" stroke-width="4px" />
<path d="M 730.0 135.0 L 720.0 135.0" stroke="#FF0000" fill="none" stroke-width="4px" />
<path d="M 720.0 135.0 L 710.0 135.0" stroke="#FF0000" fill="none" stroke-width="4px" />
<path d="M 710.0 135.0 L 710.0 125.0" stroke="#FF0000" fill="none" stroke-width="4px" />
<path d="M 710.0 125.0 L 720.0 125.0" stroke="#FF0000" fill="none" stroke-width="4px" />
<path d="M 720.0 125.0 L 730.0 125.0" stroke="#FF0000" fill="none" stroke-width="4px" />
<path d="M 730.0 125.0 L 740.0 125.0" stroke="#FF0000" fill="none" stroke-width="4px" />
<path d="M 740.0 125.0 L 730.0 115.0" stroke="#FF0000" fill="none" stroke-width="4px" />
<path d="M 730.0 115.0 L 720.0 115.0" stroke="#FF0000" fill="none" stroke-width="4px" />
<path d="M 690.0 135.0 L 680.0 135.0" stroke="#FF0000" fill="none" stroke-width="4px" />
<path d="M 680.0 135.0 L 670.0 135.0" stroke="#FF0000" fill="none" stroke-width="4px" />
<path d="M 670.0 135.0 L 660.0 135.0" stroke="#FF0000" fill="none" stroke-width="4px" />
<path d="M 660.0 135.0 L 670.0 125.0" stroke="#FF0000" fill="none" stroke-width="4px" />
<path d="M 670.0 125.0 L 680.0 125.0" stroke="#FF0000" fill="none" stroke-width="4px" />
<path d="M 680.0 155.0 L 670.0 155.0" stroke="#FF0000" fill="none" stroke-width="4px" />
<path d="M 670.0 155.0 L 660.0 155.0" stroke="#FF0000" fill="none" stroke-width="4px" />
<path d="M 660.0 155.0 L 650.0 155.0" stroke="#FF0000" fill="none" stroke-width="4px" />
<path d="M 650.0 155.0 L 660.0 165.0" stroke="#FF0000" fill="none" stroke-width="4px" />
<path d="M 660.0 165.0 L 670.0 165.0" stroke="#FF0000" fill="none" stroke-width="4px" />
<path d="M 670.0 165.0 L 680.0 165.0" stroke="#FF0000" fill="none" stroke-width="4px" />
<path d="M 680.0 165.0 L 690.0 165.0" stroke="#FF0000" fill="none" stroke-width="4px" />
<path d="M 690.0 165.0 L 700.0 165.0" stroke="#FF0000" fill="none" stroke-width="4px" />
<path d="M 700.0 165.0 L 700.0 175.0" stroke="#FF0000" fill="none" stroke-width="4px" />
<path d="M 700.0 175.0 L 690.0 175.0" stroke="#FF0000" fill="none" stroke-width="4px" />
<path d="M 690.0 175.0 L 680.0 175.0" stroke="#FF0000" fill="none" stroke-width="4px" />
<path d="M 680.0 175.0 L 670.0 175.0" stroke="#FF0000" fill="none" stroke-width="4px" />
<path d="M 670.0 175.0 L 660.0 175.0" stroke="#FF0000" fill="none" stroke-width="4px" />
<path d="M 660.0 175.0 L 660.0 185.0" stroke="#FF0000" fill="none" stroke-width="4px" />
<path d="M 660.0 185.0 L 670.0 185.0" stroke="#FF0000" fill="none" stroke-width="4px" />
<path d="M 670.0 185.0 L 680.0 185.0" stroke="#FF0000" fill="none" stroke-width="4px" />
<path d="M 680.0 185.0 L 690.0 185.0" stroke="#FF0000" fill="none" stroke-width="4px" />
<path d="M 690.0 185.0 L 700.0 185.0" stroke="#FF0000" fill="none" stroke-width="4px" />
<path d="M 700.0 185.0 L 700.0 195.0" stroke="#FF0000" fill="none" stroke-width="4px" />
<path d="M 700.0 195.0 L 690.0 195.0" stroke="#FF0000" fill="none" stroke-width="4px" />
<path d="M 690.0 195.0 L 680.0 195.0" stroke="#FF0000" fill="none" stroke-width="4px" />
<path d="M 680.0 195.0 L 670.0 195.0" stroke="#FF0000" fill="none" stroke-width="4px" />
<path d="M 670.0 195.0 L 680.0 205.0" stroke="#FF0000" fill="none" stroke-width="4px" />
<path d="M 680.0 205.0 L 690.0 205.0" stroke="#FF0000" fill="none" stroke-width="4px" />
<path d="M 730.0 165.0 L 730.0 155.0" stroke="#FF0000" fill="none" stroke-width="4px" />
<path d="M 730.0 155.0 L 720.0 155.0" stroke="#FF0000" fill="none" stroke-width="4px" />
<path d="M 720.0 155.0 L 700.0 155.0" stroke="#FF0000" fill="none" stroke-width="4px" />
<path d="M 700.0 155.0 L 690.0 155.0" stroke="#FF0000" fill="none" stroke-width="4px" />
<path d="M 900.0 155.0 L 910.0 155.0" stroke="#FF0000" fill="none" stroke-width="4px" />
<path d="M 910.0 155.0 L 920.0 155.0" stroke="#FF0000" fill="none" stroke-width="4px" />
<path d="M 920.0 155.0 L 930.0 155.0" stroke="#FF0000" fill="none" stroke-width="4px" />
<path d="M 930.0 155.0 L 940.0 155.0" stroke="#FF0000" fill="none" stroke-width="4px" />
<path d="M 940.0 155.0 L 950.0 155.0" stroke="#FF0000" fill="none" stroke-width="4px" />
<path d="M 950.0 155.0 L 950.0 165.0" stroke="#FF0000" fill="none" stroke-width="4px" />
<path d="M 950.0 165.0 L 940.0 165.0" stroke="#FF0000" fill="none" stroke-width="4px" />
<path d="M 940.0 165.0 L 930.0 165.0" stroke="#FF0000" fill="none" stroke-width="4px" />
<path d="M 930.0 165.0 L 920.0 165.0" stroke="#FF0000" fill="none" stroke-width="4px" />
<path d="M 920.0 165.0 L 910.0 165.0" stroke="#FF0000" fill="none" stroke-width="4px" />
<path d="M 910.0 165.0 L 900.0 165.0" stroke="#FF0000" fill="none" stroke-width="4px" />
<path d="M 900.0 165.0 L 910.0 175.0" stroke="#FF0000" fill="none" stroke-width="4px" />
<path d="M 910.0 175.0 L 920.0 175.0" stroke="#FF0000" fill="none" stroke-width="4px" />
<path d="M 920.0 175.0 L 930.0 175.0" stroke="#FF0000" fill="none" stroke-width="4px" />
<path d="M 930.0 175.0 L 940.0 175.0" stroke="#FF0000" fill="none" stroke-width="4px" />
<path d="M 940.0 175.0 L 950.0 175.0" stroke="#FF0000" fill="none" stroke-width="4px" />
<path d="M 950.0 175.0 L 940.0 185.0" stroke="#FF0000" fill="none" stroke-width="4px" />
<path d="M 940.0 185.0 L 930.0 185.0" stroke="#FF0000" fill="none" stroke-width="4px" />
<path d="M 930.0 185.0 L 920.0 185.0" stroke="#FF0000" fill="none" stroke-width="4px" />
<path d="M 920.0 185.0 L 930.0 195.0" stroke="#FF0000" fill="none" stroke-width="4px" />
<path d="M 930.0 145.0 L 920.0 145.0" stroke="#FF0000" fill="none" stroke-width="4px" />
<path d="M 920.0 145.0 L 910.0 145.0" stroke="#FF0000" fill="none" stroke-width="4px" />
<path d="M 910.0 145.0 L 900.0 145.0" stroke="#FF0000" fill="none" stroke-width="4px" />
<path d="M 900.0 145.0 L 910.0 135.0" stroke="#FF0000" fill="none" stroke-width="4px" />
<path d="M 910.0 135.0 L 920.0 135.0" stroke="#FF0000" fill="none" stroke-width="4px" />
<path d="M 920.0 135.0 L 930.0 135.0" stroke="#FF0000" fill="none" stroke-width="4px" />
<path d="M 930.0 135.0 L 940.0 135.0" stroke="#FF0000" fill="none" stroke-width="4px" />
<path d="M 940.0 135.0 L 940.0 145.0" stroke="#FF0000" fill="none" stroke-width="4px" />
<path d="M 940.0 145.0 L 950.0 145.0" stroke="#FF0000" fill="none" stroke-width="4px" />
<path d="M 970.0 135.0 L 980.0 135.0" stroke="#FF0000" fill="none" stroke-width="4px" />
<path d="M 980.0 135.0 L 990.0 135.0" stroke="#FF0000" fill="none" stroke-width="4px" />
<path d="M 990.0 135.0 L 1000.0 135.0" stroke="#FF0000" fill="none" stroke-width="4px" />
<path d="M 1000.0 135.0 L 1000.0 125.0" stroke="#FF0000" fill="none" stroke-width="4px" />
<path d="M 1000.0 125.0 L 990.0 125.0" stroke="#FF0000" fill="none" stroke-width="4px" />
<path d="M 990.0 125.0 L 980.0 125.0" stroke="#FF0000" fill="none" stroke-width="4px" />
<path d="M 980.0 125.0 L 970.0 125.0" stroke="#FF0000" fill="none" stroke-width="4px" />
<path d="M 970.0 125.0 L 960.0 125.0" stroke="#FF0000" fill="none" stroke-width="4px" />
<path d="M 960.0 125.0 L 960.0 115.0" stroke="#FF0000" fill="none" stroke-width="4px" />
<path d="M 960.0 115.0 L 970.0 115.0" stroke="#FF0000" fill="none" stroke-width="4px" />
<path d="M 970.0 115.0 L 980.0 115.0" stroke="#FF0000" fill="none" stroke-width="4px" />
<path d="M 980.0 115.0 L 990.0 115.0" stroke="#FF0000" fill="none" stroke-width="4px" />
<path d="M 990.0 115.0 L 1000.0 115.0" stroke="#FF0000" fill="none" stroke-width="4px" />
<path d="M 1000.0 115.0 L 1010.0 115.0" stroke="#FF0000" fill="none" stroke-width="4px" />
<path d="M 1010.0 115.0 L 1010.0 125.0" stroke="#FF0000" fill="none" stroke-width="4px" />
<path d="M 1010.0 105.0 L 1000.0 105.0" stroke="#FF0000" fill="none" stroke-width="4px" />
<path d="M 1000.0 105.0 L 990.0 105.0" stroke="#FF0000" fill="none" stroke-width="4px" />
<path d="M 990.0 105.0 L 980.0 105.0" stroke="#FF0000" fill="none" stroke-width="4px" />
<path d="M 980.0 105.0 L 970.0 105.0" stroke="#FF0000" fill="none" stroke-width="4px" />
<path d="M 970.0 105.0 L 960.0 105.0" stroke="#FF0000" fill="none" stroke-width="4px" />
<path d="M 960.0 105.0 L 950.0 105.0" stroke="#FF0000" fill="none" stroke-width="4px" />
<path d="M 950.0 105.0 L 950.0 95.0" stroke="#FF0000" fill="none" stroke-width="4px" />
<path d="M 950.0 95.0 L 960.0 95.0" stroke="#FF0000" fill="none" stroke-width="4px" />
<path d="M 960.0 95.0 L 970.0 95.0" stroke="#FF0000" fill="none" stroke-width="4px" />
<path d="M 970.0 95.0 L 980.0 95.0" stroke="#FF0000" fill="none" stroke-width="4px" />
<path d="M 980.0 95.0 L 990.0 95.0" stroke="#FF0000" fill="none" stroke-width="4px" />
<path d="M 990.0 95.0 L 1000.0 95.0" stroke="#FF0000" fill="none" stroke-width="4px" />
<path d="M 1000.0 95.0 L 990.0 85.0" stroke="#FF0000" fill="none" stroke-width="4px" />
<path d="M 990.0 85.0 L 980.0 85.0" stroke="#FF0000" fill="none" stroke-width="4px" />
<path d="M 980.0 85.0 L 970.0 85.0" stroke="#FF0000" fill="none" stroke-width="4px" />
<path d="M 970.0 85.0 L 960.0 85.0" stroke="#FF0000" fill="none" stroke-width="4px" />
<path d="M 960.0 85.0 L 970.0 75.0" stroke="#FF0000" fill="none" stroke-width="4px" />
<path d="M 970.0 75.0 L 980.0 75.0" stroke="#FF0000" fill="none" stroke-width="4px" />
<path d="M 1090.0 145.0 L 1100.0 145.0" stroke="#FF0000" fill="none" stroke-width="4px" />
<path d="M 1100.0 145.0 L 1110.0 145.0" stroke="#FF0000" fill="none" stroke-width="4px" />
<path d="M 1110.0 145.0 L 1120.0 145.0" stroke="#FF0000" fill="none" stroke-width="4px" />
<path d="M 1120.0 145.0 L 1130.0 145.0" stroke="#FF0000" fill="none" stroke-width="4px" />
<path d="M 1130.0 145.0 L 1140.0 145.0" stroke="#FF0000" fill="none" stroke-width="4px" />
<path d="M 1140.0 145.0 L 1150.0 145.0" stroke="#FF0000" fill="none" stroke-width="4px" />
<path d="M 1150.0 145.0 L 1150.0 155.0" stroke="#FF0000" fill="none" stroke-width="4px" />
<path d="M 1150.0 155.0 L 1140.0 155.0" stroke="#FF0000" fill="none" stroke-width="4px" />
<path d="M 1140.0 155.0 L 1130.0 155.0" stroke="#FF0000" fill="none" stroke-width="4px" />
<path d="M 1130.0 155.0 L 1120.0 155.0" stroke="#FF0000" fill="none" stroke-width="4px" />
<path d="M 1120.0 155.0 L 1110.0 155.0" stroke="#FF0000" fill="none" stroke-width="4px" />
<path d="M 1110.0 155.0 L 1100.0 155.0" stroke="#FF0000" fill="none" stroke-width="4px" />
<path d="M 1100.0 155.0 L 1100.0 165.0" stroke="#FF0000" fill="none" stroke-width="4px" />
<path d="M 1100.0 165.0 L 1110.0 165.0" stroke="#FF0000" fill="none" stroke-width="4px" />
<path d="M 1110.0 165.0 L 1120.0 165.0" stroke="#FF0000" fill="none" stroke-width="4px" />
<path d="M 1120.0 165.0 L 1130.0 165.0" stroke="#FF0000" fill="none" stroke-width="4px" />
<path d="M 1130.0 165.0 L 1140.0 165.0" stroke="#FF0000" fill="none" stroke-width="4px" />
<path d="M 1140.0 165.0 L 1150.0 165.0" stroke="#FF0000" fill="none" stroke-width="4px" />
<path d="M 1150.0 165.0 L 1160.0 165.0" stroke="#FF0000" fill="none" stroke-width="4px" />
<path d="M 1160.0 165.0 L 1160.0 175.0" stroke="#FF0000" fill="none" stroke-width="4px" />
<path d="M 1160.0 175.0 L 1150.0 175.0" stroke="#FF0000" fill="none" stroke-width="4px" />
<path d="M 1150.0 175.0 L 1140.0 175.0" stroke="#FF0000" fill="none" stroke-width="4px" />
<path d="M 1140.0 175.0 L 1130.0 175.0" stroke="#FF0000" fill="none" stroke-width="4px" />
<path d="M 1130.0 175.0 L 1120.0 175.0" stroke="#FF0000" fill="none" stroke-width="4px" />
<path d="M 1120.0 175.0 L 1110.0 175.0" stroke="#FF0000" fill="none" stroke-width="4px" />
<path d="M 1110.0 175.0 L 1120.0 185.0" stroke="#FF0000" fill="none" stroke-width="4px" />
<path d="M 1120.0 185.0 L 1130.0 185.0" stroke="#FF0000" fill="none" stroke-width="4px" />
<path d="M 1130.0 185.0 L 1140.0 185.0" stroke="#FF0000" fill="none" stroke-width="4px" />
<path d="M 1140.0 185.0 L 1150.0 185.0" stroke="#FF0000" fill="none" stroke-width="4px" />
<path d="M 1150.0 185.0 L 1140.0 195.0" stroke="#FF0000" fill="none" stroke-width="4px" />
<path d="M 1190.0 145.0 L 1200.0 145.0" stroke="#FF0000" fill="none" stroke-width="4px" />
<path d="M 1200.0 145.0 L 1200.0 135.0" stroke="#FF0000" fill="none" stroke-width="4px" />
<path d="M 1200.0 135.0 L 1190.0 135.0" stroke="#FF0000" fill="none" stroke-width="4px" />
<path d="M 1190.0 135.0 L 1180.0 135.0" stroke="#FF0000" fill="none" stroke-width="4px" />
<path d="M 1180.0 135.0 L 1180.0 125.0" stroke="#FF0000" fill="none" stroke-width="4px" />
<path d="M 1180.0 125.0 L 1190.0 125.0" stroke="#FF0000" fill="none" stroke-width="4px" />
<path d="M 1190.0 125.0 L 1200.0 125.0" stroke="#FF0000" fill="none" stroke-width="4px" />
<path d="M 1200.0 125.0 L 1210.0 125.0" stroke="#FF0000" fill="none" stroke-width="4px" />
<path d="M 1210.0 125.0 L 1220.0 125.0" stroke="#FF0000" fill="none" stroke-width="4px" />
<path d="M 1220.0 125.0 L 1220.0 115.0" stroke="#FF0000" fill="none" stroke-width="4px" />
<path d="M 1220.0 115.0 L 1210.0 115.0" stroke="#FF0000" fill="none" stroke-width="4px" />
<path d="M 1210.0 115.0 L 1200.0 115.0" stroke="#FF0000" fill="none" stroke-width="4px" />
<path d="M 1200.0 115.0 L 1190.0 115.0" stroke="#FF0000" fill="none" stroke-width="4px" />
<path d="M 1190.0 115.0 L 1180.0 115.0" stroke="#FF0000" fill="none" stroke-width="4px" />
<path d="M 1180.0 115.0 L 1170.0 115.0" stroke="#FF0000" fill="none" stroke-width="4px" />
<path d="M 1170.0 115.0 L 1180.0 105.0" stroke="#FF0000" fill="none" stroke-width="4px" />
<path d="M 1180.0 105.0 L 1190.0 105.0" stroke="#FF0000" fill="none" stroke-width="4px" />
<path d="M 1190.0 105.0 L 1200.0 105.0" stroke="#FF0000" fill="none" stroke-width="4px" />
<path d="M 1200.0 105.0 L 1210.0 105.0" stroke="#FF0000" fill="none" stroke-width="4px" />
<path d="M 1210.0 105.0 L 1200.0 95.0" stroke="#FF0000" fill="none" stroke-width="4px" />
<path d="M 1200.0 95.0 L 1190.0 95.0" stroke="#FF0000" fill="none" stroke-width="4px" />
<path d="M 1140.0 135.0 L 1130.0 135.0" stroke="#FF0000" fill="none" stroke-width="4px" />
<path d="M 1130.0 135.0 L 1120.0 135.0" stroke="#FF0000" fill="none" stroke-width="4px" />
<path d="M 1120.0 135.0 L 1110.0 135.0" stroke="#FF0000" fill="none" stroke-width="4px" />
<path d="M 1110.0 135.0 L 1100.0 135.0" stroke="#FF0000" fill="none" stroke-width="4px" />
<path d="M 1100.0 135.0 L 1100.0 125.0" stroke="#FF0000" fill="none" stroke-width="4px" />
<path d="M 1100.0 125.0 L 1110.0 125.0" stroke="#FF0000" fill="none" stroke-width="4px" />
<path d="M 1110.0 125.0 L 1120.0 125.0" stroke="#FF0000" fill="none" stroke-width="4px" />
<path d="M 1120.0 125.0 L 1130.0 125.0" stroke="#FF0000" fill="none" stroke-width="4px" />
<path d="M 1130.0 125.0 L 1120.0 115.0" stroke="#FF0000" fill="none" stroke-width="4px" />
<path d="M 1120.0 115.0 L 1110.0 115.0" stroke="#FF0000" fill="none" stroke-width="4px" />
</svg>