<svg width="1755.23333333" height="235.0" xmlns="http://www.w3.org/2000/svg" version="1.1">
<path d="M 0.0 235.0 L 1755.23333333 235.0 L 1755.23333333 0.0 L 0.0 0.0 L 0.0 235.0" stroke="#000000" fill="none" stroke-width="3px" />
<path d="M 10.0 257.5 L 0.0 247.5 L 10.0 237.5" stroke="#969696" fill="none" stroke-width="1px" />
<path d="M 10.0 237.5 L 1745.23333333 237.5" stroke="#969696" fill="none" stroke-width="1px" />
<path d="M 1745.23333333 237.5 L 1755.23333333 227.5 L 1745.23333333 217.5" stroke="#969696" fill="none" stroke-width="1px" />
<path d="M 1745.23333333 217.5 L 10.0 217.5" stroke="#969696" fill="none" stroke-width="1px" />
<path d="M 10.0 217.5 L 0.0 207.5 L 10.0 197.5" stroke="#969696" fill="none" stroke-width="1px" />
<path d="M 10.0 197.5 L 1745.23333333 197.5" stroke="#969696" fill="none" stroke-width="1px" />
<path d="M 1745.23333333 197.5 L 1755.23333333 187.5 L 1745.23333333 177.5" stroke="#969696" fill="none" stroke-width="1px" />
<path d="M 1745.23333333 177.5 L 10.0 177.5" stroke="#969696" fill="none" stroke-width="1px" />
<path d="M 10.0 177.5 L 0.0 167.5 L 10.0 157.5" stroke="#969696" fill="none" stroke-width="1px" />
<path d="M 10.0 157.5 L 1745.23333333 157.5" stroke="#969696" fill="none" stroke-width="1px" />
<path d="M 1745.23333333 157.5 L 1755.23333333 147.5 L 1745.23333333 137.5" stroke="#969696" fill="none" stroke-width="1px" />
<path d="M 1745.23333333 137.5 L 10.0 137.5" stroke="#969696" fill="none" stroke-width="1px" />
<path d="M 10.0 137.5 L 0.0 127.5 L 10.0 117.5" stroke="#969696" fill="none" stroke-width="1px" />
<path d="M 10.0 117.5 L 1745.23333333 117.5" stroke="#969696" fill="none" stroke-width="1px" />
<path d="M 1745.23333333 117.5 L 1755.23333333 107.5 L 1745.23333333 97.5" stroke="#969696" fill="none" stroke-width="1px" />
<path d="M 1745.23333333 97.5 L 10.0 97.5" stroke="#969696" fill="none" stroke-width="1px" />
<path d="M 10.0 97.5 L 0.0 87.5 L 10.0 77.5" stroke="#969696" fill="none" stroke-width="1px" />
<path d="M 10.0 77.5 L 1745.23333333 77.5" stroke="#969696" fill="none" stroke-width="1px" />
<path d="M 1745.23333333 77.5 L 1755.23333333 67.5 L 1745.23333333 57.5" stroke="#969696" fill="none" stroke-width="1px" />
<path d="M 1745.23333333 57.5 L 10.0 57.5" stroke="#969696" fill="none" stroke-width="1px" />
<path d="M 10.0 57.5 L 0.0 47.5 L 10.0 37.5" stroke="#969696" fill="none" stroke-width="1px" />
<path d="M 10.0 37.5 L 1745.23333333 37.5" stroke="#969696" fill="none" stroke-width="1px" />
<path d="M 1745.23333333 37.5 L 1755.23333333 27.5 L 1745.23333333 17.5" stroke="#969696" fill="none" stroke-width="1px" />
<path d="M 1745.23333333 17.5 L 10.0 17.5" stroke="#969696" fill="none" stroke-width="1px" />
<path d="M 10.0 17.5 L 0.0 7.5 L 10.0 -2.5" stroke="#969696" fill="none" stroke-width="1px" />
<path d="M 10.0 -2.5 L 1745.23333333 -2.5" stroke="#969696" fill="none" stroke-width="1px" />
<path d="M 1745.23333333 -2.5 L 1755.23333333 -12.5 L 1745.23333333 -22.5" stroke="#969696" fill="none" stroke-width="1px" />
<path d="M 0.0 235.0 L 50.0 165.0" stroke="#0095FF" fill="none" stroke-width="2px" />
<path d="M 60.0 155.0 L 40.0 125.0" stroke="#0095FF" fill="none" stroke-width="2px" />
<path d="M 60.0 115.0 L 60.0 85.0" stroke="#0095FF" fill="none" stroke-width="2px" />
<path d="M 70.0 85.0 L 50.0 65.0" stroke="#0095FF" fill="none" stroke-width="2px" />
<path d="M 40.0 65.0 L 390.0 65.0" stroke="#0095FF" fill="none" stroke-width="2px" />
<path d="M 460.0 205.0 L 440.0 215.0" stroke="#0095FF" fill="none" stroke-width="2px" />
<path d="M 400.0 235.0 L 400.0 175.0" stroke="#0095FF" fill="none" stroke-width="2px" />
<path d="M 440.0 175.0 L 450.0 75.0" stroke="#0095FF" fill="none" stroke-width="2px" />
<path d="M 450.0 75.0 L 430.0 55.0" stroke="#0095FF" fill="none" stroke-width="2px" />
<path d="M 420.0 45.0 L 630.0 75.0" stroke="#0095FF" fill="none" stroke-width="2px" />
<path d="M 660.0 115.0 L 660.0 65.0" stroke="#0095FF" fill="none" stroke-width="2px" />
<path d="M 650.0 55.0 L 670.0 65.0" stroke="#0095FF" fill="none" stroke-width="2px" />
<path d="M 670.0 65.0 L 800.0 125.0" stroke="#0095FF" fill="none" stroke-width="2px" />
<path d="M 830.0 135.0 L 820.0 155.0" stroke="#0095FF" fill="none" stroke-width="2px" />
<path d="M 810.0 155.0 L 810.0 115.0" stroke="#0095FF" fill="none" stroke-width="2px" />
<path d="M 810.0 115.0 L 1120.0 115.0" stroke="#0095FF" fill="none" stroke-width="2px" />
<path d="M 1150.0 165.0 L 1150.0 105.0" stroke="#0095FF" fill="none" stroke-width="2px" />
<path d="M 1150.0 45.0 L 1170.0 85.0" stroke="#0095FF" fill="none" stroke-width="2px" />
<path d="M 1170.0 85.0 L 1300.0 195.0" stroke="#0095FF" fill="none" stroke-width="2px" />
<path d="M 1320.0 205.0 L 1300.0 235.0" stroke="#0095FF" fill="none" stroke-width="2px" />
<path d="M 1290.0 235.0 L 1430.0 165.0" stroke="#0095FF" fill="none" stroke-width="2px" />
<path d="M 1470.0 185.0 L 1470.0 155.0" stroke="#0095FF" fill="none" stroke-width="2px" />
<path d="M 1450.0 135.0 L 1560.0 135.0" stroke="#0095FF" fill="none" stroke-width="2px" />
<path d="M 1580.0 165.0 L 1600.0 145.0" stroke="#0095FF" fill="none" stroke-width="2px" />
<path d="M 1600.0 145.0 L 1590.0 125.0" stroke="#0095FF" fill="none" stroke-width="2px" />
<path d="M 1570.0 95.0 L 1570.0 75.0" stroke="#0095FF" fill="none" stroke-width="2px" />
<path d="M 1580.0 75.0 L 1600.0 95.0" stroke="#0095FF" fill="none" stroke-width="2px" />
<path d="M 50.0 165.0 L 50.0 155.0" stroke="#FF0000" fill="none" stroke-width="4px" />
<path d="M 50.0 155.0 L 40.0 155.0" stroke="#FF0000" fill="none" stroke-width="4px" />
<path d="M 40.0 155.0 L 40.0 145.0" stroke="#FF0000" fill="none" stroke-width="4px" />
<path d="M 40.0 145.0 L 30.0 145.0" stroke="#FF0000" fill="none" stroke-width="4px" />
<path d="M 30.0 145.0 L 40.0 135.0" stroke="#FF0000" fill="none" stroke-width="4px" />
<path d="M 40.0 135.0 L 50.0 135.0" stroke="#FF0000" fill="none" stroke-width="4px" />
<path d="M 50.0 135.0 L 50.0 145.0" stroke="#FF0000" fill="none" stroke-width="4px" />
<path d="M 50.0 145.0 L 60.0 145.0" stroke="#FF0000" fill="none" stroke-width="4px" />
<path d="M 60.0 145.0 L 60.0 155.0" stroke="#FF0000" fill="none" stroke-width="4px" />
<path d="M 40.0 125.0 L 30.0 125.0" stroke="#FF0000" fill="none" stroke-width="4px" />
<path d="M 30.0 125.0 L 30.0 115.0" stroke="#FF0000" fill="none" stroke-width="4px" />
<path d="M 30.0 115.0 L 20.0 115.0" stroke="#FF0000" fill="none" stroke-width="4px" />
<path d="M 20.0 115.0 L 20.0 105.0" stroke="#FF0000" fill="none" stroke-width="4px" />
<path d="M 20.0 105.0 L 10.0 105.0" stroke="#FF0000" fill="none" stroke-width="4px" />
<path d="M 10.0 105.0 L 10.0 95.0" stroke="#FF0000" fill="none" stroke-width="4px" />
<path d="M 10.0 95.0 L 20.0 95.0" stroke="#FF0000" fill="none" stroke-width="4px" />
<path d="M 20.0 95.0 L 30.0 95.0" stroke="#FF0000" fill="none" stroke-width="4px" />
<path d="M 30.0 95.0 L 40.0 95.0" stroke="#FF0000" fill="none" stroke-width="4px" />
<path d="M 40.0 95.0 L 50.0 95.0" stroke="#FF0000" fill="none" stroke-width="4px" />
<path d="M 50.0 95.0 L 60.0 95.0" stroke="#FF0000" fill="none" stroke-width="4px" />
<path d="M 60.0 95.0 L 70.0 95.0" stroke="#FF0000" fill="none" stroke-width="4px" />
<path d="M 70.0 95.0 L 70.0 105.0" stroke="#FF0000" fill="none" stroke-width="4px" />
<path d="M 70.0 105.0 L 60.0 105.0" stroke="#FF0000" fill="none" stroke-width="4px" />
<path d="M 60.0 105.0 L 50.0 105.0" stroke="#FF0000" fill="none" stroke-width="4px" />
<path d="M 50.0 105.0 L 40.0 105.0" stroke="#FF0000" fill="none" stroke-width="4px" />
<path d="M 40.0 105.0 L 30.0 105.0" stroke="#FF0000" fill="none" stroke-width="4px" />
<path d="M 30.0 105.0 L 40.0 115.0" stroke="#FF0000" fill="none" stroke-width="4px" />
<path d="M 40.0 115.0 L 50.0 115.0" stroke="#FF0000" fill="none" stroke-width="4px" />
<path d="M 50.0 115.0 L 60.0 115.0" stroke="#FF0000" fill="none" stroke-width="4px" />
<path d="M 60.0 85.0 L 50.0 85.0" stroke="#FF0000" fill="none" stroke-width="4px" />
<path d="M 50.0 85.0 L 40.0 85.0" stroke="#FF0000" fill="none" stroke-width="4px" />
<path d="M 40.0 85.0 L 30.0 85.0" stroke="#FF0000" fill="none" stroke-width="4px" />
<path d="M 30.0 85.0 L 20.0 85.0" stroke="#FF0000" fill="none" stroke-width="4px" />
<path d="M 20.0 85.0 L 10.0 85.0" stroke="#FF0000" fill="none" stroke-width="4px" />
<path d="M 10.0 85.0 L 10.0 75.0" stroke="#FF0000" fill="none" stroke-width="4px" />
<path d="M 10.0 75.0 L 30.0 75.0" stroke="#FF0000" fill="none" stroke-width="4px" />
<path d="M 30.0 75.0 L 40.0 75.0" stroke="#FF0000" fill="none" stroke-width="4px" />
<path d="M 40.0 75.0 L 50.0 75.0" stroke="#FF0000" fill="none" stroke-width="4px" />
<path d="M 50.0 75.0 L 60.0 75.0" stroke="#FF0000" fill="none" stroke-width="4px" />
<path d="M 60.0 75.0 L 70.0 85.0" stroke="#FF0000" fill="none" stroke-width="4px" />
<path d="M 50.0 65.0 L 40.0 65.0" stroke="#FF0000" fill="none" stroke-width="4px" />
<path d="M 390.0 65.0 L 400.0 65.0" stroke="#FF0000" fill="none" stroke-width="4px" />
<path d="M 400.0 65.0 L 410.0 65.0" stroke="#FF0000" fill="none" stroke-width="4px" />
<path d="M 410.0 65.0 L 420.0 65.0" stroke="#FF0000" fill="none" stroke-width="4px" />
<path d="M 420.0 65.0 L 430.0 65.0" stroke="#FF0000" fill="none" stroke-width="4px" />
<path d="M 430.0 65.0 L 440.0 65.0" stroke="#FF0000" fill="none" stroke-width="4px" />
<path d="M 440.0 65.0 L 440.0 75.0" stroke="#FF0000" fill="none" stroke-width="4px" />
<path d="M 440.0 75.0 L 430.0 75.0" stroke="#FF0000" fill="none" stroke-width="4px" />
<path d="M 430.0 75.0 L 420.0 75.0" stroke="#FF0000" fill="none" stroke-width="4px" />
<path d="M 420.0 75.0 L 410.0 75.0" stroke="#FF0000" fill="none" stroke-width="4px" />
<path d="M 410.0 75.0 L 400.0 75.0" stroke="#FF0000" fill="none" stroke-width="4px" />
<path d="M 400.0 75.0 L 400.0 85.0" stroke="#FF0000" fill="none" stroke-width="4px" />
<path d="M 400.0 85.0 L 410.0 85.0" stroke="#FF0000" fill="none" stroke-width="4px" />
<path d="M 410.0 85.0 L 420.0 85.0" stroke="#FF0000" fill="none" stroke-width="4px" />
<path d="M 420.0 85.0 L 430.0 85.0" stroke="#FF0000" fill="none" stroke-width="4px" />
<path d="M 430.0 85.0 L 440.0 85.0" stroke="#FF0000" fill="none" stroke-width="4px" />
<path d="M 440.0 85.0 L 450.0 85.0" stroke="#FF0000" fill="none" stroke-width="4px" />
<path d="M 450.0 85.0 L 450.0 95.0" stroke="#FF0000" fill="none" stroke-width="4px" />
<path d="M 450.0 95.0 L 440.0 95.0" stroke="#FF0000" fill="none" stroke-width="4px" />
<path d="M 440.0 95.0 L 430.0 95.0" stroke="#FF0000" fill="none" stroke-width="4px" />
<path d="M 430.0 95.0 L 420.0 95.0" stroke="#FF0000" fill="none" stroke-width="4px" />
<path d="M 420.0 95.0 L 410.0 95.0" stroke="#FF0000" fill="none" stroke-width="4px" />
<path d="M 410.0 95.0 L 410.0 105.0" stroke="#FF0000" fill="none" stroke-width="4px" />
<path d="M 410.0 105.0 L 420.0 105.0" stroke="#FF0000" fill="none" stroke-width="4px" />
<path d="M 420.0 105.0 L 430.0 105.0" stroke="#FF0000" fill="none" stroke-width="4px" />
<path d="M 430.0 105.0 L 440.0 105.0" stroke="#FF0000" fill="none" stroke-width="4px" />
<path d="M 440.0 105.0 L 450.0 105.0" stroke="#FF0000" fill="none" stroke-width="4px" />
<path d="M 450.0 105.0 L 450.0 115.0" stroke="#FF0000" fill="none" stroke-width="4px" />
<path d="M 450.0 115.0 L 440.0 115.0" stroke="#FF0000" fill="none" stroke-width="4px" />
<path d="M 440.0 115.0 L 430.0 115.0" stroke="#FF0000" fill="none" stroke-width="4px" />
<path d="M 430.0 115.0 L 420.0 115.0" stroke="#FF0000" fill="none" stroke-width="4px" />
<path d="M 420.0 115.0 L 410.0 115.0" stroke="#FF0000" fill="none" stroke-width="4px" />
<path d="M 410.0 115.0 L 400.0 115.0" stroke="#FF0000" fill="none" stroke-width="4px" />
<path d="M 400.0 115.0 L 400.0 125.0" stroke="#FF0000" fill="none" stroke-width="4px" />
<path d="M 400.0 125.0 L 410.0 125.0" stroke="#FF0000" fill="none" stroke-width="4px" />
<path d="M 410.0 125.0 L 420.0 125.0" stroke="#FF0000" fill="none" stroke-width="4px" />
<path d="M 420.0 125.0 L 430.0 125.0" stroke="#FF0000" fill="none" stroke-width="4px" />
<path d="M 430.0 125.0 L 440.0 125.0" stroke="#FF0000" fill="none" stroke-width="4px" />
<path d="M 440.0 125.0 L 450.0 125.0" stroke="#FF0000" fill="none" stroke-width="4px" />
<path d="M 450.0 125.0 L 450.0 135.0" stroke="#FF0000" fill="none" stroke-width="4px" />
<path d="M 450.0 135.0 L 440.0 135.0" stroke="#FF0000" fill="none" stroke-width="4px" />
<path d="M 440.0 135.0 L 430.0 135.0" stroke="#FF0000" fill="none" stroke-width="4px" />
<path d="M 430.0 135.0 L 420.0 135.0" stroke="#FF0000" fill="none" stroke-width="4px" />
<path d="M 420.0 135.0 L 410.0 135.0" stroke="#FF0000" fill="none" stroke-width="4px" />
<path d="M 410.0 135.0 L 400.0 135.0" stroke="#FF0000" fill="none" stroke-width="4px" />
<path d="M 400.0 135.0 L 400.0 145.0" stroke="#FF0000" fill="none" stroke-width="4px" />
<path d="M 400.0 145.0 L 410.0 145.0" stroke="#FF0000" fill="none" stroke-width="4px" />
<path d="M 410.0 145.0 L 420.0 145.0" stroke="#FF0000" fill="none" stroke-width="4px" />
<path d="M 420.0 145.0 L 430.0 145.0" stroke="#FF0000" fill="none" stroke-width="4px" />
<path d="M 430.0 145.0 L 440.0 145.0" stroke="#FF0000" fill="none" stroke-width="4px" />
<path d="M 440.0 145.0 L 430.0 155.0" stroke="#FF0000" fill="none" stroke-width="4px" />
<path d="M 430.0 155.0 L 420.0 155.0" stroke="#FF0000" fill="none" stroke-width="4px" />
<path d="M 420.0 155.0 L 410.0 155.0" stroke="#FF0000" fill="none" stroke-width="4px" />
<path d="M 410.0 155.0 L 400.0 165.0" stroke="#FF0000" fill="none" stroke-width="4px" />
<path d="M 400.0 165.0 L 390.0 165.0" stroke="#FF0000" fill="none" stroke-width="4px" />
<path d="M 390.0 165.0 L 390.0 175.0" stroke="#FF0000" fill="none" stroke-width="4px" />
<path d="M 390.0 175.0 L 380.0 175.0" stroke="#FF0000" fill="none" stroke-width="4px" />
<path d="M 380.0 175.0 L 380.0 185.0" stroke="#FF0000" fill="none" stroke-width="4px" />
<path d="M 380.0 185.0 L 390.0 185.0" stroke="#FF0000" fill="none" stroke-width="4px" />
<path d="M 390.0 185.0 L 400.0 185.0" stroke="#FF0000" fill="none" stroke-width="4px" />
<path d="M 400.0 185.0 L 410.0 185.0" stroke="#FF0000" fill="none" stroke-width="4px" />
<path d="M 410.0 185.0 L 420.0 185.0" stroke="#FF0000" fill="none" stroke-width="4px" />
<path d="M 420.0 185.0 L 430.0 185.0" stroke="#FF0000" fill="none" stroke-width="4px" />
<path d="M 430.0 185.0 L 440.0 185.0" stroke="#FF0000" fill="none" stroke-width="4px" />
<path d="M 440.0 185.0 L 450.0 185.0" stroke="#FF0000" fill="none" stroke-width="4px" />
<path d="M 450.0 185.0 L 450.0 195.0" stroke="#FF0000" fill="none" stroke-width="4px" />
<path d="M 450.0 195.0 L 440.0 195.0" stroke="#FF0000" fill="none" stroke-width="4px" />
<path d="M 440.0 195.0 L 430.0 195.0" stroke="#FF0000" fill="none" stroke-width="4px" />
<path d="M 430.0 195.0 L 420.0 195.0" stroke="#FF0000" fill="none" stroke-width="4px" />
<path d="M 420.0 195.0 L 410.0 195.0" stroke="#FF0000" fill="none" stroke-width="4px" />
<path d="M 410.0 195.0 L 400.0 195.0" stroke="#FF0000" fill="none" stroke-width="4px" />
<path d="M 400.0 195.0 L 390.0 195.0" stroke="#FF0000" fill="none" stroke-width="4px" />
<path d="M 390.0 195.0 L 380.0 195.0" stroke="#FF0000" fill="none" stroke-width="4px" />
<path d="M 380.0 195.0 L 380.0 205.0" stroke="#FF0000" fill="none" stroke-width="4px" />
<path d="M 380.0 205.0 L 390.0 205.0" stroke="#FF0000" fill="none" stroke-width="4px" />
<path d="M 390.0 205.0 L 400.0 205.0" stroke="#FF0000" fill="none" stroke-width="4px" />
<path d="M 400.0 205.0 L 410.0 205.0" stroke="#FF0000" fill="none" stroke-width="4px" />
<path d="M 410.0 205.0 L 420.0 205.0" stroke="#FF0000" fill="none" stroke-width="4px" />
<path d="M 420.0 205.0 L 430.0 205.0" stroke="#FF0000" fill="none" stroke-width="4px" />
<path d="M 430.0 205.0 L 440.0 205.0" stroke="#FF0000" fill="none" stroke-width="4px" />
<path d="M 440.0 205.0 L 450.0 205.0" stroke="#FF0000" fill="none" stroke-width="4px" />
<path d="M 450.0 205.0 L 460.0 205.0" stroke="#FF0000" fill="none" stroke-width="4px" />
<path d="M 440.0 215.0 L 430.0 215.0" stroke="#FF0000" fill="none" stroke-width="4px" />
<path d="M 430.0 215.0 L 420.0 215.0" stroke="#FF0000" fill="none" stroke-width="4px" />
<path d="M 420.0 215.0 L 410.0 215.0" stroke="#FF0000" fill="none" stroke-width="4px" />
<path d="M 410.0 215.0 L 400.0 215.0" stroke="#FF0000" fill="none" stroke-width="4px" />
<path d="M 400.0 215.0 L 390.0 215.0" stroke="#FF0000" fill="none" stroke-width="4px" />
<path d="M 390.0 215.0 L 400.0 225.0" stroke="#FF0000" fill="none" stroke-width="4px" />
<path d="M 400.0 225.0 L 410.0 225.0" stroke="#FF0000" fill="none" stroke-width="4px" />
<path d="M 410.0 225.0 L 420.0 225.0" stroke="#FF0000" fill="none" stroke-width="4px" />
<path d="M 420.0 225.0 L 410.0 235.0" stroke="#FF0000" fill="none" stroke-width="4px" />
<path d="M 410.0 235.0 L 400.0 235.0" stroke="#FF0000" fill="none" stroke-width="4px" />
<path d="M 400.0 175.0 L 410.0 175.0" stroke="#FF0000" fill="none" stroke-width="4px" />
<path d="M 410.0 175.0 L 420.0 175.0" stroke="#FF0000" fill="none" stroke-width="4px" />
<path d="M 420.0 175.0 L 430.0 175.0" stroke="#FF0000" fill="none" stroke-width="4px" />
<path d="M 430.0 175.0 L 440.0 175.0" stroke="#FF0000" fill="none" stroke-width="4px" />
<path d="M 430.0 55.0 L 420.0 55.0" stroke="#FF0000" fill="none" stroke-width="4px" />
<path d="M 420.0 55.0 L 410.0 55.0" stroke="#FF0000" fill="none" stroke-width="4px" />
<path d="M 410.0 55.0 L 400.0 55.0" stroke="#FF0000" fill="none" stroke-width="4px" />
<path d="M 400.0 55.0 L 390.0 55.0" stroke="#FF0000" fill="none" stroke-width="4px" />
<path d="M 390.0 55.0 L 400.0 45.0" stroke="#FF0000" fill="none" stroke-width="4px" />
<path d="M 400.0 45.0 L 410.0 45.0" stroke="#FF0000" fill="none" stroke-width="4px" />
<path d="M 410.0 45.0 L 420.0 45.0" stroke="#FF0000" fill="none" stroke-width="4px" />
<path d="M 630.0 75.0 L 640.0 75.0" stroke="#FF0000" fill="none" stroke-width="4px" />
<path d="M 640.0 75.0 L 650.0 75.0" stroke="#FF0000" fill="none" stroke-width="4px" />
<path d="M 650.0 75.0 L 660.0 75.0" stroke="#FF0000" fill="none" stroke-width="4px" />
<path d="M 660.0 75.0 L 670.0 75.0" stroke="#FF0000" fill="none" stroke-width="4px" />
<path d="M 670.0 75.0 L 680.0 75.0" stroke="#FF0000" fill="none" stroke-width="4px" />
<path d="M 680.0 75.0 L 680.0 85.0" stroke="#FF0000" fill="none" stroke-width="4px" />
<path d="M 680.0 85.0 L 670.0 85.0" stroke="#FF0000" fill="none" stroke-width="4px" />
<path d="M 670.0 85.0 L 660.0 85.0" stroke="#FF0000" fill="none" stroke-width="4px" />
<path d="M 660.0 85.0 L 650.0 85.0" stroke="#FF0000" fill="none" stroke-width="4px" />
<path d="M 650.0 85.0 L 640.0 85.0" stroke="#FF0000" fill="none" stroke-width="4px" />
<path d="M 640.0 85.0 L 630.0 85.0" stroke="#FF0000" fill="none" stroke-width="4px" />
<path d="M 630.0 85.0 L 630.0 95.0" stroke="#FF0000" fill="none" stroke-width="4px" />
<path d="M 630.0 95.0 L 640.0 95.0" stroke="#FF0000" fill="none" stroke-width="4px" />
<path d="M 640.0 95.0 L 650.0 95.0" stroke="#FF0000" fill="none" stroke-width="4px" />
<path d="M 650.0 95.0 L 660.0 95.0" stroke="#FF0000" fill="none" stroke-width="4px" />
<path d="M 660.0 95.0 L 670.0 95.0" stroke="#FF0000" fill="none" stroke-width="4px" />
<path d="M 670.0 95.0 L 670.0 105.0" stroke="#FF0000" fill="none" stroke-width="4px" />
<path d="M 670.0 105.0 L 660.0 105.0" stroke="#FF0000" fill="none" stroke-width="4px" />
<path d="M 660.0 105.0 L 650.0 105.0" stroke="#FF0000" fill="none" stroke-width="4px" />
<path d="M 650.0 105.0 L 640.0 105.0" stroke="#FF0000" fill="none" stroke-width="4px" />
<path d="M 640.0 105.0 L 650.0 115.0" stroke="#FF0000" fill="none" stroke-width="4px" />
<path d="M 650.0 115.0 L 660.0 115.0" stroke="#FF0000" fill="none" stroke-width="4px" />
<path d="M 660.0 65.0 L 650.0 65.0" stroke="#FF0000" fill="none" stroke-width="4px" />
<path d="M 650.0 65.0 L 640.0 65.0" stroke="#FF0000" fill="none" stroke-width="4px" />
<path d="M 640.0 65.0 L 650.0 55.0" stroke="#FF0000" fill="none" stroke-width="4px" />
<path d="M 800.0 125.0 L 810.0 125.0" stroke="#FF0000" fill="none" stroke-width="4px" />
<path d="M 810.0 125.0 L 820.0 125.0" stroke="#FF0000" fill="none" stroke-width="4px" />
<path d="M 820.0 125.0 L 820.0 135.0" stroke="#FF0000" fill="none" stroke-width="4px" />
<path d="M 820.0 135.0 L 810.0 135.0" stroke="#FF0000" fill="none" stroke-width="4px" />
<path d="M 810.0 135.0 L 800.0 135.0" stroke="#FF0000" fill="none" stroke-width="4px" />
<path d="M 800.0 135.0 L 790.0 135.0" stroke="#FF0000" fill="none" stroke-width="4px" />
<path d="M 790.0 135.0 L 800.0 145.0" stroke="#FF0000" fill="none" stroke-width="4px" />
<path d="M 800.0 145.0 L 810.0 145.0" stroke="#FF0000" fill="none" stroke-width="4px" />
<path d="M 810.0 145.0 L 820.0 145.0" stroke="#FF0000" fill="none" stroke-width="4px" />
<path d="M 820.0 145.0 L 830.0 145.0" stroke="#FF0000" fill="none" stroke-width="4px" />
<path d="M 830.0 145.0 L 830.0 135.0" stroke="#FF0000" fill="none" stroke-width="4px" />
<path d="M 820.0 155.0 L 810.0 155.0" stroke="#FF0000" fill="none" stroke-width="4px" />
<path d="M 1120.0 115.0 L 1130.0 115.0" stroke="#FF0000" fill="none" stroke-width="4px" />
<path d="M 1130.0 115.0 L 1140.0 115.0" stroke="#FF0000" fill="none" stroke-width="4px" />
<path d="M 1140.0 115.0 L 1150.0 115.0" stroke="#FF0000" fill="none" stroke-width="4px" />
<path d="M 1150.0 115.0 L 1160.0 115.0" stroke="#FF0000" fill="none" stroke-width="4px" />
<path d="M 1160.0 115.0 L 1160.0 125.0" stroke="#FF0000" fill="none" stroke-width="4px" />
<path d="M 1160.0 125.0 L 1150.0 125.0" stroke="#FF0000" fill="none" stroke-width="4px" />
<path d="M 1150.0 125.0 L 1140.0 125.0" stroke="#FF0000" fill="none" stroke-width="4px" />
<path d="M 1140.0 125.0 L 1130.0 125.0" stroke="#FF0000" fill="none" stroke-width="4px" />
<path d="M 1130.0 125.0 L 1130.0 135.0" stroke="#FF0000" fill="none" stroke-width="4px" />
<path d="M 1130.0 135.0 L 1140.0 135.0" stroke="#FF0000" fill="none" stroke-width="4px" />
<path d="M 1140.0 135.0 L 1150.0 135.0" stroke="#FF0000" fill="none" stroke-width="4px" />
<path d="M 1150.0 135.0 L 1160.0 135.0" stroke="#FF0000" fill="none" stroke-width="4px" />
<path d="M 1160.0 135.0 L 1170.0 135.0" stroke="#FF0000" fill="none" stroke-width="4px" />
<path d="M 1170.0 135.0 L 1170.0 145.0" stroke="#FF0000" fill="none" stroke-width="4px" />
<path d="M 1170.0 145.0 L 1160.0 145.0" stroke="#FF0000" fill="none" stroke-width="4px" />
<path d="M 1160.0 145.0 L 1150.0 145.0" stroke="#FF0000" fill="none" stroke-width="4px" />
<path d="M 1150.0 145.0 L 1140.0 145.0" stroke="#FF0000" fill="none" stroke-width="4px" />
<path d="M 1140.0 145.0 L 1130.0 145.0" stroke="#FF0000" fill="none" stroke-width="4px" />
<path d="M 1130.0 145.0 L 1140.0 155.0" stroke="#FF0000" fill="none" stroke-width="4px" />
<path d="M 1140.0 155.0 L 1150.0 155.0" stroke="#FF0000" fill="none" stroke-width="4px" />
<path d="M 1150.0 155.0 L 1160.0 155.0" stroke="#FF0000" fill="none" stroke-width="4px" />
<path d="M 1160.0 155.0 L 1150.0 165.0" stroke="#FF0000" fill="none" stroke-width="4px" />
<path d="M 1150.0 105.0 L 1140.0 105.0" stroke="#FF0000" fill="none" stroke-width="4px" />
<path d="M 1140.0 105.0 L 1130.0 105.0" stroke="#FF0000" fill="none" stroke-width="4px" />
<path d="M 1130.0 105.0 L 1140.0 95.0" stroke="#FF0000" fill="none" stroke-width="4px" />
<path d="M 1140.0 95.0 L 1150.0 95.0" stroke="#FF0000" fill="none" stroke-width="4px" />
<path d="M 1150.0 95.0 L 1160.0 95.0" stroke="#FF0000" fill="none" stroke-width="4px" />
<path d="M 1160.0 95.0 L 1160.0 85.0" stroke="#FF0000" fill="none" stroke-width="4px" />
<path d="M 1160.0 85.0 L 1150.0 85.0" stroke="#FF0000" fill="none" stroke-width="4px" />
<path d="M 1150.0 85.0 L 1140.0 85.0" stroke="#FF0000" fill="none" stroke-width="4px" />
<path d="M 1140.0 85.0 L 1130.0 85.0" stroke="#FF0000" fill="none" stroke-width="4px" />
<path d="M 1130.0 85.0 L 1130.0 75.0" stroke="#FF0000" fill="none" stroke-width="4px" />
<path d="M 1130.0 75.0 L 1140.0 75.0" stroke="#FF0000" fill="none" stroke-width="4px" />
<path d="M 1140.0 75.0 L 1150.0 75.0" stroke="#FF0000" fill="none" stroke-width="4px" />
<path d="M 1150.0 75.0 L 1160.0 75.0" stroke="#FF0000" fill="none" stroke-width="4px" />
<path d="M 1160.0 75.0 L 1170.0 75.0" stroke="#FF0000" fill="none" stroke-width="4px" />
<path d="M 1170.0 75.0 L 1180.0 75.0" stroke="#FF0000" fill="none" stroke-width="4px" />
<path d="M 1180.0 75.0 L 1180.0 65.0" stroke="#FF0000" fill="none" stroke-width="4px" />
<path d="M 1180.0 65.0 L 1170.0 65.0" stroke="#FF0000" fill="none" stroke-width="4px" />
<path d="M 1170.0 65.0 L 1160.0 65.0" stroke="#FF0000" fill="none" stroke-width="4px" />
<path d="M 1160.0 65.0 L 1150.0 65.0" stroke="#FF0000" fill="none" stroke-width="4px" />
<path d="M 1150.0 65.0 L 1140.0 65.0" stroke="#FF0000" fill="none" stroke-width="4px" />
<path d="M 1140.0 65.0 L 1130.0 65.0" stroke="#FF0000" fill="none" stroke-width="4px" />
<path d="M 1130.0 65.0 L 1140.0 55.0" stroke="#FF0000" fill="none" stroke-width="4px" />
<path d="M 1140.0 55.0 L 1150.0 55.0" stroke="#FF0000" fill="none" stroke-width="4px" />
<path d="M 1150.0 55.0 L 1160.0 55.0" stroke="#FF0000" fill="none" stroke-width="4px" />
<path d="M 1160.0 55.0 L 1170.0 55.0" stroke="#FF0000" fill="none" stroke-width="4px" />
<path d="M 1170.0 55.0 L 1160.0 45.0" stroke="#FF0000" fill="none" stroke-width="4px" />
<path d="M 1160.0 45.0 L 1150.0 45.0" stroke="#FF0000" fill="none" stroke-width="4px" />
<path d="M 1300.0 195.0 L 1310.0 195.0" stroke="#FF0000" fill="none" stroke-width="4px" />
<path d="M 1310.0 195.0 L 1310.0 205.0" stroke="#FF0000" fill="none" stroke-width="4px" />
<path d="M 1310.0 205.0 L 1300.0 205.0" stroke="#FF0000" fill="none" stroke-width="4px" />
<path d="M 1300.0 205.0 L 1290.0 205.0" stroke="#FF0000" fill="none" stroke-width="4px" />
<path d="M 1290.0 205.0 L 1290.0 215.0" stroke="#FF0000" fill="none" stroke-width="4px" />
<path d="M 1290.0 215.0 L 1280.0 215.0" stroke="#FF0000" fill="none" stroke-width="4px" />
<path d="M 1280.0 215.0 L 1280.0 225.0" stroke="#FF0000" fill="none" stroke-width="4px" />
<path d="M 1280.0 225.0 L 1290.0 225.0" stroke="#FF0000" fill="none" stroke-width="4px" />
<path d="M 1290.0 225.0 L 1300.0 225.0" stroke="#FF0000" fill="none" stroke-width="4px" />
<path d="M 1300.0 225.0 L 1310.0 225.0" stroke="#FF0000" fill="none" stroke-width="4px" />
<path d="M 1310.0 225.0 L 1310.0 215.0" stroke="#FF0000" fill="none" stroke-width="4px" />
<path d="M 1310.0 215.0 L 1300.0 215.0" stroke="#FF0000" fill="none" stroke-width="4px" />
<path d="M 1300.0 215.0 L 1320.0 215.0" stroke="#FF0000" fill="none" stroke-width="4px" />
<path d="M 1320.0 215.0 L 1320.0 205.0" stroke="#FF0000" fill="none" stroke-width="4px" />
<path d="M 1300.0 235.0 L 1290.0 235.0" stroke="#FF0000" fill="none" stroke-width="4px" />
<path d="M 1430.0 165.0 L 1440.0 165.0" stroke="#FF0000" fill="none" stroke-width="4px" />
<path d="M 1440.0 165.0 L 1450.0 165.0" stroke="#FF0000" fill="none" stroke-width="4px" />
<path d="M 1450.0 165.0 L 1460.0 165.0" stroke="#FF0000" fill="none" stroke-width="4px" />
<path d="M 1460.0 165.0 L 1470.0 165.0" stroke="#FF0000" fill="none" stroke-width="4px" />
<path d="M 1470.0 165.0 L 1480.0 165.0" stroke="#FF0000" fill="none" stroke-width="4px" />
<path d="M 1480.0 165.0 L 1480.0 175.0" stroke="#FF0000" fill="none" stroke-width="4px" />
<path d="M 1480.0 175.0 L 1470.0 175.0" stroke="#FF0000" fill="none" stroke-width="4px" />
<path d="M 1470.0 175.0 L 1460.0 175.0" stroke="#FF0000" fill="none" stroke-width="4px" />
<path d="M 1460.0 175.0 L 1450.0 175.0" stroke="#FF0000" fill="none" stroke-width="4px" />
<path d="M 1450.0 175.0 L 1440.0 175.0" stroke="#FF0000" fill="none" stroke-width="4px" />
<path d="M 1440.0 175.0 L 1450.0 185.0" stroke="#FF0000" fill="none" stroke-width="4px" />
<path d="M 1450.0 185.0 L 1460.0 185.0" stroke="#FF0000" fill="none" stroke-width="4px" />
<path d="M 1460.0 185.0 L 1470.0 185.0" stroke="#FF0000" fill="none" stroke-width="4px" />
<path d="M 1470.0 155.0 L 1460.0 155.0" stroke="#FF0000" fill="none" stroke-width="4px" />
<path d="M 1460.0 155.0 L 1450.0 155.0" stroke="#FF0000" fill="none" stroke-width="4px" />
<path d="M 1450.0 155.0 L 1440.0 155.0" stroke="#FF0000" fill="none" stroke-width="4px" />
<path d="M 1440.0 155.0 L 1430.0 155.0" stroke="#FF0000" fill="none" stroke-width="4px" />
<path d="M 1430.0 155.0 L 1440.0 145.0" stroke="#FF0000" fill="none" stroke-width="4px" />
<path d="M 1440.0 145.0 L 1450.0 145.0" stroke="#FF0000" fill="none" stroke-width="4px" />
<path d="M 1450.0 145.0 L 1460.0 145.0" stroke="#FF0000" fill="none" stroke-width="4px" />
<path d="M 1460.0 145.0 L 1450.0 135.0" stroke="#FF0000" fill="none" stroke-width="4px" />
<path d="M 1560.0 135.0 L 1570.0 135.0" stroke="#FF0000" fill="none" stroke-width="4px" />
<path d="M 1570.0 135.0 L 1580.0 135.0" stroke="#FF0000" fill="none" stroke-width="4px" />
<path d="M 1580.0 135.0 L 1590.0 135.0" stroke="#FF0000" fill="none" stroke-width="4px" />
<path d="M 1590.0 135.0 L 1590.0 145.0" stroke="#FF0000" fill="none" stroke-width="4px" />
<path d="M 1590.0 145.0 L 1580.0 145.0" stroke="#FF0000" fill="none" stroke-width="4px" />
<path d="M 1580.0 145.0 L 1570.0 145.0" stroke="#FF0000" fill="none" stroke-width="4px" />
<path d="M 1570.0 145.0 L 1560.0 145.0" stroke="#FF0000" fill="none" stroke-width="4px" />
<path d="M 1560.0 145.0 L 1570.0 155.0" stroke="#FF0000" fill="none" stroke-width="4px" />
<path d="M 1570.0 155.0 L 1580.0 155.0" stroke="#FF0000" fill="none" stroke-width="4px" />
<path d="M 1580.0 155.0 L 1590.0 155.0" stroke="#FF0000" fill="none" stroke-width="4px" />
<path d="M 1590.0 155.0 L 1580.0 165.0" stroke="#FF0000" fill="none" stroke-width="4px" />
<path d="M 1590.0 125.0 L 1580.0 125.0" stroke="#FF0000" fill="none" stroke-width="4px" />
<path d="M 1580.0 125.0 L 1570.0 125.0" stroke="#FF0000" fill="none" stroke-width="4px" />
<path d="M 1570.0 125.0 L 1560.0 125.0" stroke="#FF0000" fill="none" stroke-width="4px" />
<path d="M 1560.0 125.0 L 1560.0 115.0" stroke="#FF0000" fill="none" stroke-width="4px" />
<path d="M 1560.0 115.0 L 1570.0 115.0" stroke="#FF0000" fill="none" stroke-width="4px" />
<path d="M 1570.0 115.0 L 1580.0 115.0" stroke="#FF0000" fill="none" stroke-width="4px" />
<path d="M 1580.0 115.0 L 1590.0 115.0" stroke="#FF0000" fill="none" stroke-width="4px" />
<path d="M 1590.0 115.0 L 1600.0 115.0" stroke="#FF0000" fill="none" stroke-width="4px" />
<path d="M 1600.0 115.0 L 1600.0 105.0" stroke="#FF0000" fill="none" stroke-width="4px" />
<path d="M 1600.0 105.0 L 1590.0 105.0" stroke="#FF0000" fill="none" stroke-width="4px" />
<path d="M 1590.0 105.0 L 1580.0 105.0" stroke="#FF0000" fill="none" stroke-width="4px" />
<path d="M 1580.0 105.0 L 1570.0 105.0" stroke="#FF0000" fill="none" stroke-width="4px" />
<path d="M 1570.0 105.0 L 1560.0 105.0" stroke="#FF0000" fill="none" stroke-width="4px" />
<path d="M 1560.0 105.0 L 1560.0 95.0" stroke="#FF0000" fill="none" stroke-width="4px" />
<path d="M 1560.0 95.0 L 1550.0 95.0" stroke="#FF0000" fill="none" stroke-width="4px" />
<path d="M 1550.0 95.0 L 1550.0 85.0" stroke="#FF0000" fill="none" stroke-width="4px" />
<path d="M 1550.0 85.0 L 1560.0 85.0" stroke="#FF0000" fill="none" stroke-width="4px" />
<path d="M 1560.0 85.0 L 1570.0 85.0" stroke="#FF0000" fill="none" stroke-width="4px" />
<path d="M 1570.0 85.0 L 1580.0 85.0" stroke="#FF0000" fill="none" stroke-width="4px" />
<path d="M 1580.0 85.0 L 1590.0 85.0" stroke="#FF0000" fill="none" stroke-width="4px" />
<path d="M 1590.0 85.0 L 1590.0 95.0" stroke="#FF0000" fill="none" stroke-width="4px" />
<path d="M 1590.0 95.0 L 1580.0 95.0" stroke="#FF0000" fill="none" stroke-width="4px" />
<path d="M 1580.0 95.0 L 1570.0 95.0" stroke="#FF0000" fill="none" stroke-width="4px" />
<path d="M 1570.0 75.0 L 1560.0 75.0" stroke="#FF0000" fill="none" stroke-width="4px" />
<path d="M 1560.0 75.0 L 1570.0 65.0" stroke="#FF0000" fill="none" stroke-width="4px" />
<path d="M 1570.0 65.0 L 1580.0 75.0" stroke="#FF0000" fill="none" stroke-width="4px" />
</svg>