<svg width="1755.23333333" height="235.0" xmlns="http://www.w3.org/2000/svg" version="1.1">
<path d="M 0.0 235.0 L 1755.23333333 235.0 L 1755.23333333 0.0 L 0.0 0.0 L 0.0 235.0" stroke="#000000" fill="none" stroke-width="3px" />
<path d="M 10.0 257.5 L 0.0 247.5 L 10.0 237.5" stroke="#969696" fill="none" stroke-width="1px" />
<path d="M 10.0 237.5 L 1745.23333333 237.5" stroke="#969696" fill="none" stroke-width="1px" />
<path d="M 1745.23333333 237.5 L 1755.23333333 227.5 L 1745.23333333 217.5" stroke="#969696" fill="none" stroke-width="1px" />
<path d="M 1745.23333333 217.5 L 10.0 217.5" stroke="#969696" fill="none" stroke-width="1px" />
<path d="M 10.0 217.5 L 0.0 207.5 L 10.0 197.5" stroke="#969696" fill="none" stroke-width="1px" />
<path d="M 10.0 197.5 L 1745.23333333 197.5" stroke="#969696" fill="none" stroke-width="1px" />
<path d="M 1745.23333333 197.5 L 1755.23333333 187.5 L 1745.23333333 177.5" stroke="#969696" fill="none" stroke-width="1px" />
<path d="M 1745.23333333 177.5 L 10.0 177.5" stroke="#969696" fill="none" stroke-width="1px" />
<path d="M 10.0 177.5 L 0.0 167.5 L 10.0 157.5" stroke="#969696" fill="none" stroke-width="1px" />
<path d="M 10.0 157.5 L 1745.23333333 157.5" stroke="#969696" fill="none" stroke-width="1px" />
<path d="M 1745.23333333 157.5 L 1755.23333333 147.5 L 1745.23333333 137.5" stroke="#969696" fill="none" stroke-width="1px" />
<path d="M 1745.23333333 137.5 L 10.0 137.5" stroke="#969696" fill="none" stroke-width="1px" />
<path d="M 10.0 137.5 L 0.0 127.5 L 10.0 117.5" stroke="#969696" fill="none" stroke-width="1px" />
<path d="M 10.0 117.5 L 1745.23333333 117.5" stroke="#969696" fill="none" stroke-width="1px" />
<path d="M 1745.23333333 117.5 L 1755.23333333 107.5 L 1745.23333333 97.5" stroke="#969696" fill="none" stroke-width="1px" />
<path d="M 1745.23333333 97.5 L 10.0 97.5" stroke="#969696" fill="none" stroke-width="1px" />
<path d="M 10.0 97.5 L 0.0 87.5 L 10.0 77.5" stroke="#969696" fill="none" stroke-width="1px" />
<path d="M 10.0 77.5 L 1745.23333333 77.5" stroke="#969696" fill="none" stroke-width="1px" />
<path d="M 1745.23333333 77.5 L 1755.23333333 67.5 L 1745.23333333 57.5" stroke="#969696" fill="none" stroke-width="1px" />
<path d="M 1745.23333333 57.5 L 10.0 57.5" stroke="#969696" fill="none" stroke-width="1px" />
<path d="M 10.0 57.5 L 0.0 47.5 L 10.0 37.5" stroke="#969696" fill="none" stroke-width="1px" />
<path d="M 10.0 37.5 L 1745.23333333 37.5" stroke="#969696" fill="none" stroke-width="1px" />
<path d="M 1745.23333333 37.5 L 1755.23333333 27.5 L 1745.23333333 17.5" stroke="#969696" fill="none" stroke-width="1px" />
<path d="M 1745.23333333 17.5 L 10.0 17.5" stroke="#969696" fill="none" stroke-width="1px" />
<path d="M 10.0 17.5 L 0.0 7.5 L 10.0 -2.5" stroke="#969696" fill="none" stroke-width="1px" />
<path d="M 10.0 -2.5 L 1745.23333333 -2.5" stroke="#969696" fill="none" stroke-width="1px" />
<path d="M 1745.23333333 -2.5 L 1755.23333333 -12.5 L 1745.23333333 -22.5" stroke="#969696" fill="none" stroke-width="1px" />
<path d="M 0.0 235.0 L 74.7666666653 195.0" stroke="#0095FF" fill="none" stroke-width="2px" />
<path d="M 124.766666665 215.0 L 124.766666665 185.0" stroke="#0095FF" fill="none" stroke-width="2px" />
<path d="M 114.766666665 175.0 L 144.766666665 115.0" stroke="#0095FF" fill="none" stroke-width="2px" />
<path d="M 144.766666665 95.0 L 144.766666665 75.0" stroke="#0095FF" fill="none" stroke-width="2px" />
<path d="M 154.766666665 75.0 L 154.766666665 55.0" stroke="#0095FF" fill="none" stroke-width="2px" />
<path d="M 194.766666665 55.0 L 194.766666665 105.0" stroke="#0095FF" fill="none" stroke-width="2px" />
<path d="M 194.766666665 105.0 L 234.766666665 145.0" stroke="#0095FF" fill="none" stroke-width="2px" />
<path d="M 244.766666665 155.0 L 244.766666665 185.0" stroke="#0095FF" fill="none" stroke-width="2px" />
<path d="M 234.766666665 195.0 L 524.766666665 175.0" stroke="#0095FF" fill="none" stroke-width="2px" />
<path d="M 584.766666665 165.0 L 584.766666665 145.0" stroke="#0095FF" fill="none" stroke-width="2px" />
<path d="M 544.766666665 125.0 L 624.766666665 125.0" stroke="#0095FF" fill="none" stroke-width="2px" />
<path d="M 654.766666665 155.0 L 654.766666665 115.0" stroke="#0095FF" fill="none" stroke-width="2px" />
<path d="M 674.766666665 115.0 L 794.766666665 115.0" stroke="#0095FF" fill="none" stroke-width="2px" />
<path d="M 814.766666665 145.0 L 814.766666665 165.0" stroke="#0095FF" fill="none" stroke-width="2px" />
<path d="M 794.766666665 235.0 L 744.766666665 235.0" stroke="#0095FF" fill="none" stroke-width="2px" />
<path d="M 724.766666665 195.0 L 814.766666665 175.0" stroke="#0095FF" fill="none" stroke-width="2px" />
<path d="M 824.766666665 165.0 L 824.766666665 105.0" stroke="#0095FF" fill="none" stroke-width="2px" />
<path d="M 854.766666665 105.0 L 884.766666665 105.0" stroke="#0095FF" fill="none" stroke-width="2px" />
<path d="M 904.766666665 135.0 L 904.766666665 95.0" stroke="#0095FF" fill="none" stroke-width="2px" />
<path d="M 924.766666665 95.0 L 904.766666665 75.0" stroke="#0095FF" fill="none" stroke-width="2px" />
<path d="M 894.766666665 75.0 L 834.766666665 85.0" stroke="#0095FF" fill="none" stroke-width="2px" />
<path d="M 824.766666665 75.0 L 1014.76666667 75.0" stroke="#0095FF" fill="none" stroke-width="2px" />
<path d="M 1084.76666667 175.0 L 1124.76666667 165.0" stroke="#0095FF" fill="none" stroke-width="2px" />
<path d="M 1154.76666667 215.0 L 1174.76666667 225.0" stroke="#0095FF" fill="none" stroke-width="2px" />
<path d="M 1174.76666667 225.0 L 1194.76666667 175.0" stroke="#0095FF" fill="none" stroke-width="2px" />
<path d="M 1194.76666667 175.0 L 1164.76666667 135.0" stroke="#0095FF" fill="none" stroke-width="2px" />
<path d="M 1154.76666667 125.0 L 1104.76666667 135.0" stroke="#0095FF" fill="none" stroke-width="2px" />
<path d="M 1094.76666667 125.0 L 1084.76666667 65.0" stroke="#0095FF" fill="none" stroke-width="2px" />
<path d="M 1024.76666667 25.0 L 1394.76666667 75.0" stroke="#0095FF" fill="none" stroke-width="2px" />
<path d="M 1404.76666667 195.0 L 1404.76666667 215.0" stroke="#0095FF" fill="none" stroke-width="2px" />
<path d="M 1414.76666667 225.0 L 1464.76666667 105.0" stroke="#0095FF" fill="none" stroke-width="2px" />
<path d="M 1464.76666667 105.0 L 1444.76666667 85.0" stroke="#0095FF" fill="none" stroke-width="2px" />
<path d="M 1444.76666667 85.0 L 1424.76666667 65.0" stroke="#0095FF" fill="none" stroke-width="2px" />
<path d="M 1404.76666667 65.0 L 1594.76666667 145.0" stroke="#0095FF" fill="none" stroke-width="2px" />
<path d="M 1604.76666667 175.0 L 1624.76666667 185.0" stroke="#0095FF" fill="none" stroke-width="2px" />
<path d="M 1644.76666667 195.0 L 1634.76666667 135.0" stroke="#0095FF" fill="none" stroke-width="2px" />
<path d="M 1624.76666667 125.0 L 1654.76666667 25.0" stroke="#0095FF" fill="none" stroke-width="2px" />
<path d="M 1644.76666667 -5.0 L 564.766666665 25.0" stroke="#0095FF" fill="none" stroke-width="2px" />
<path d="M 544.766666665 35.0 L 544.766666665 55.0" stroke="#0095FF" fill="none" stroke-width="2px" />
<path d="M 554.766666665 55.0 L 554.766666665 15.0" stroke="#0095FF" fill="none" stroke-width="2px" />
<path d="M 544.766666665 15.0 L 544.766666665 185.0" stroke="#0095FF" fill="none" stroke-width="2px" />
<path d="M 74.7666666653 195.0 L 84.7666666653 195.0" stroke="#FF0000" fill="none" stroke-width="4px" />
<path d="M 84.7666666653 195.0 L 94.7666666653 195.0" stroke="#FF0000" fill="none" stroke-width="4px" />
<path d="M 94.7666666653 195.0 L 104.766666665 195.0" stroke="#FF0000" fill="none" stroke-width="4px" />
<path d="M 104.766666665 195.0 L 114.766666665 195.0" stroke="#FF0000" fill="none" stroke-width="4px" />
<path d="M 114.766666665 195.0 L 124.766666665 195.0" stroke="#FF0000" fill="none" stroke-width="4px" />
<path d="M 124.766666665 195.0 L 134.766666665 195.0" stroke="#FF0000" fill="none" stroke-width="4px" />
<path d="M 134.766666665 195.0 L 134.766666665 205.0" stroke="#FF0000" fill="none" stroke-width="4px" />
<path d="M 134.766666665 205.0 L 124.766666665 205.0" stroke="#FF0000" fill="none" stroke-width="4px" />
<path d="M 124.766666665 205.0 L 114.766666665 205.0" stroke="#FF0000" fill="none" stroke-width="4px" />
<path d="M 114.766666665 205.0 L 104.766666665 205.0" stroke="#FF0000" fill="none" stroke-width="4px" />
<path d="M 104.766666665 205.0 L 94.7666666653 205.0" stroke="#FF0000" fill="none" stroke-width="4px" />
<path d="M 94.7666666653 205.0 L 84.7666666653 205.0" stroke="#FF0000" fill="none" stroke-width="4px" />
<path d="M 84.7666666653 205.0 L 94.7666666653 215.0" stroke="#FF0000" fill="none" stroke-width="4px" />
<path d="M 94.7666666653 215.0 L 104.766666665 215.0" stroke="#FF0000" fill="none" stroke-width="4px" />
<path d="M 104.766666665 215.0 L 114.766666665 215.0" stroke="#FF0000" fill="none" stroke-width="4px" />
<path d="M 114.766666665 215.0 L 124.766666665 215.0" stroke="#FF0000" fill="none" stroke-width="4px" />
<path d="M 124.766666665 185.0 L 114.766666665 185.0" stroke="#FF0000" fill="none" stroke-width="4px" />
<path d="M 114.766666665 185.0 L 104.766666665 185.0" stroke="#FF0000" fill="none" stroke-width="4px" />
<path d="M 104.766666665 185.0 L 94.7666666653 185.0" stroke="#FF0000" fill="none" stroke-width="4px" />
<path d="M 94.7666666653 185.0 L 84.7666666653 185.0" stroke="#FF0000" fill="none" stroke-width="4px" />
<path d="M 84.7666666653 185.0 L 94.7666666653 175.0" stroke="#FF0000" fill="none" stroke-width="4px" />
<path d="M 94.7666666653 175.0 L 104.766666665 175.0" stroke="#FF0000" fill="none" stroke-width="4px" />
<path d="M 104.766666665 175.0 L 114.766666665 175.0" stroke="#FF0000" fill="none" stroke-width="4px" />
<path d="M 144.766666665 115.0 L 154.766666665 115.0" stroke="#FF0000" fill="none" stroke-width="4px" />
<path d="M 154.766666665 115.0 L 164.766666665 115.0" stroke="#FF0000" fill="none" stroke-width="4px" />
<path d="M 164.766666665 115.0 L 174.766666665 115.0" stroke="#FF0000" fill="none" stroke-width="4px" />
<path d="M 174.766666665 115.0 L 184.766666665 115.0" stroke="#FF0000" fill="none" stroke-width="4px" />
<path d="M 184.766666665 115.0 L 184.766666665 105.0" stroke="#FF0000" fill="none" stroke-width="4px" />
<path d="M 184.766666665 105.0 L 174.766666665 105.0" stroke="#FF0000" fill="none" stroke-width="4px" />
<path d="M 174.766666665 105.0 L 164.766666665 105.0" stroke="#FF0000" fill="none" stroke-width="4px" />
<path d="M 164.766666665 105.0 L 154.766666665 105.0" stroke="#FF0000" fill="none" stroke-width="4px" />
<path d="M 154.766666665 105.0 L 144.766666665 105.0" stroke="#FF0000" fill="none" stroke-width="4px" />
<path d="M 144.766666665 105.0 L 134.766666665 105.0" stroke="#FF0000" fill="none" stroke-width="4px" />
<path d="M 134.766666665 105.0 L 134.766666665 95.0" stroke="#FF0000" fill="none" stroke-width="4px" />
<path d="M 134.766666665 95.0 L 124.766666665 95.0" stroke="#FF0000" fill="none" stroke-width="4px" />
<path d="M 124.766666665 95.0 L 124.766666665 85.0" stroke="#FF0000" fill="none" stroke-width="4px" />
<path d="M 124.766666665 85.0 L 134.766666665 85.0" stroke="#FF0000" fill="none" stroke-width="4px" />
<path d="M 134.766666665 85.0 L 144.766666665 85.0" stroke="#FF0000" fill="none" stroke-width="4px" />
<path d="M 144.766666665 85.0 L 154.766666665 85.0" stroke="#FF0000" fill="none" stroke-width="4px" />
<path d="M 154.766666665 85.0 L 164.766666665 85.0" stroke="#FF0000" fill="none" stroke-width="4px" />
<path d="M 164.766666665 85.0 L 174.766666665 85.0" stroke="#FF0000" fill="none" stroke-width="4px" />
<path d="M 174.766666665 85.0 L 184.766666665 85.0" stroke="#FF0000" fill="none" stroke-width="4px" />
<path d="M 184.766666665 85.0 L 194.766666665 85.0" stroke="#FF0000" fill="none" stroke-width="4px" />
<path d="M 194.766666665 85.0 L 204.766666665 85.0" stroke="#FF0000" fill="none" stroke-width="4px" />
<path d="M 204.766666665 85.0 L 204.766666665 95.0" stroke="#FF0000" fill="none" stroke-width="4px" />
<path d="M 204.766666665 95.0 L 194.766666665 95.0" stroke="#FF0000" fill="none" stroke-width="4px" />
<path d="M 194.766666665 95.0 L 184.766666665 95.0" stroke="#FF0000" fill="none" stroke-width="4px" />
<path d="M 184.766666665 95.0 L 174.766666665 95.0" stroke="#FF0000" fill="none" stroke-width="4px" />
<path d="M 174.766666665 95.0 L 164.766666665 95.0" stroke="#FF0000" fill="none" stroke-width="4px" />
<path d="M 164.766666665 95.0 L 154.766666665 95.0" stroke="#FF0000" fill="none" stroke-width="4px" />
<path d="M 154.766666665 95.0 L 144.766666665 95.0" stroke="#FF0000" fill="none" stroke-width="4px" />
<path d="M 144.766666665 75.0 L 134.766666665 75.0" stroke="#FF0000" fill="none" stroke-width="4px" />
<path d="M 134.766666665 75.0 L 124.766666665 75.0" stroke="#FF0000" fill="none" stroke-width="4px" />
<path d="M 124.766666665 75.0 L 124.766666665 65.0" stroke="#FF0000" fill="none" stroke-width="4px" />
<path d="M 124.766666665 65.0 L 134.766666665 65.0" stroke="#FF0000" fill="none" stroke-width="4px" />
<path d="M 134.766666665 65.0 L 144.766666665 65.0" stroke="#FF0000" fill="none" stroke-width="4px" />
<path d="M 144.766666665 65.0 L 154.766666665 65.0" stroke="#FF0000" fill="none" stroke-width="4px" />
<path d="M 154.766666665 65.0 L 164.766666665 65.0" stroke="#FF0000" fill="none" stroke-width="4px" />
<path d="M 164.766666665 65.0 L 174.766666665 65.0" stroke="#FF0000" fill="none" stroke-width="4px" />
<path d="M 174.766666665 65.0 L 184.766666665 65.0" stroke="#FF0000" fill="none" stroke-width="4px" />
<path d="M 184.766666665 65.0 L 194.766666665 65.0" stroke="#FF0000" fill="none" stroke-width="4px" />
<path d="M 194.766666665 65.0 L 204.766666665 65.0" stroke="#FF0000" fill="none" stroke-width="4px" />
<path d="M 204.766666665 65.0 L 204.766666665 75.0" stroke="#FF0000" fill="none" stroke-width="4px" />
<path d="M 204.766666665 75.0 L 194.766666665 75.0" stroke="#FF0000" fill="none" stroke-width="4px" />
<path d="M 194.766666665 75.0 L 184.766666665 75.0" stroke="#FF0000" fill="none" stroke-width="4px" />
<path d="M 184.766666665 75.0 L 174.766666665 75.0" stroke="#FF0000" fill="none" stroke-width="4px" />
<path d="M 174.766666665 75.0 L 164.766666665 75.0" stroke="#FF0000" fill="none" stroke-width="4px" />
<path d="M 164.766666665 75.0 L 154.766666665 75.0" stroke="#FF0000" fill="none" stroke-width="4px" />
<path d="M 154.766666665 55.0 L 144.766666665 55.0" stroke="#FF0000" fill="none" stroke-width="4px" />
<path d="M 144.766666665 55.0 L 134.766666665 55.0" stroke="#FF0000" fill="none" stroke-width="4px" />
<path d="M 134.766666665 55.0 L 144.766666665 45.0" stroke="#FF0000" fill="none" stroke-width="4px" />
<path d="M 144.766666665 45.0 L 154.766666665 45.0" stroke="#FF0000" fill="none" stroke-width="4px" />
<path d="M 154.766666665 45.0 L 164.766666665 45.0" stroke="#FF0000" fill="none" stroke-width="4px" />
<path d="M 164.766666665 45.0 L 174.766666665 45.0" stroke="#FF0000" fill="none" stroke-width="4px" />
<path d="M 174.766666665 45.0 L 174.766666665 55.0" stroke="#FF0000" fill="none" stroke-width="4px" />
<path d="M 174.766666665 55.0 L 164.766666665 55.0" stroke="#FF0000" fill="none" stroke-width="4px" />
<path d="M 164.766666665 55.0 L 184.766666665 55.0" stroke="#FF0000" fill="none" stroke-width="4px" />
<path d="M 184.766666665 55.0 L 194.766666665 55.0" stroke="#FF0000" fill="none" stroke-width="4px" />
<path d="M 234.766666665 145.0 L 234.766666665 155.0" stroke="#FF0000" fill="none" stroke-width="4px" />
<path d="M 234.766666665 155.0 L 224.766666665 155.0" stroke="#FF0000" fill="none" stroke-width="4px" />
<path d="M 224.766666665 155.0 L 224.766666665 165.0" stroke="#FF0000" fill="none" stroke-width="4px" />
<path d="M 224.766666665 165.0 L 214.766666665 165.0" stroke="#FF0000" fill="none" stroke-width="4px" />
<path d="M 214.766666665 165.0 L 214.766666665 175.0" stroke="#FF0000" fill="none" stroke-width="4px" />
<path d="M 214.766666665 175.0 L 224.766666665 175.0" stroke="#FF0000" fill="none" stroke-width="4px" />
<path d="M 224.766666665 175.0 L 234.766666665 175.0" stroke="#FF0000" fill="none" stroke-width="4px" />
<path d="M 234.766666665 175.0 L 244.766666665 175.0" stroke="#FF0000" fill="none" stroke-width="4px" />
<path d="M 244.766666665 175.0 L 254.766666665 175.0" stroke="#FF0000" fill="none" stroke-width="4px" />
<path d="M 254.766666665 175.0 L 254.766666665 165.0" stroke="#FF0000" fill="none" stroke-width="4px" />
<path d="M 254.766666665 165.0 L 244.766666665 165.0" stroke="#FF0000" fill="none" stroke-width="4px" />
<path d="M 244.766666665 165.0 L 234.766666665 165.0" stroke="#FF0000" fill="none" stroke-width="4px" />
<path d="M 234.766666665 165.0 L 244.766666665 155.0" stroke="#FF0000" fill="none" stroke-width="4px" />
<path d="M 244.766666665 185.0 L 234.766666665 185.0" stroke="#FF0000" fill="none" stroke-width="4px" />
<path d="M 234.766666665 185.0 L 224.766666665 185.0" stroke="#FF0000" fill="none" stroke-width="4px" />
<path d="M 224.766666665 185.0 L 234.766666665 195.0" stroke="#FF0000" fill="none" stroke-width="4px" />
<path d="M 524.766666665 175.0 L 534.766666665 175.0" stroke="#FF0000" fill="none" stroke-width="4px" />
<path d="M 534.766666665 175.0 L 544.766666665 175.0" stroke="#FF0000" fill="none" stroke-width="4px" />
<path d="M 544.766666665 175.0 L 554.766666665 175.0" stroke="#FF0000" fill="none" stroke-width="4px" />
<path d="M 554.766666665 175.0 L 564.766666665 175.0" stroke="#FF0000" fill="none" stroke-width="4px" />
<path d="M 564.766666665 175.0 L 574.766666665 175.0" stroke="#FF0000" fill="none" stroke-width="4px" />
<path d="M 574.766666665 175.0 L 574.766666665 165.0" stroke="#FF0000" fill="none" stroke-width="4px" />
<path d="M 574.766666665 165.0 L 564.766666665 165.0" stroke="#FF0000" fill="none" stroke-width="4px" />
<path d="M 564.766666665 165.0 L 554.766666665 165.0" stroke="#FF0000" fill="none" stroke-width="4px" />
<path d="M 554.766666665 165.0 L 544.766666665 165.0" stroke="#FF0000" fill="none" stroke-width="4px" />
<path d="M 544.766666665 165.0 L 534.766666665 165.0" stroke="#FF0000" fill="none" stroke-width="4px" />
<path d="M 534.766666665 165.0 L 524.766666665 165.0" stroke="#FF0000" fill="none" stroke-width="4px" />
<path d="M 524.766666665 165.0 L 524.766666665 155.0" stroke="#FF0000" fill="none" stroke-width="4px" />
<path d="M 524.766666665 155.0 L 534.766666665 155.0" stroke="#FF0000" fill="none" stroke-width="4px" />
<path d="M 534.766666665 155.0 L 544.766666665 155.0" stroke="#FF0000" fill="none" stroke-width="4px" />
<path d="M 544.766666665 155.0 L 554.766666665 155.0" stroke="#FF0000" fill="none" stroke-width="4px" />
<path d="M 554.766666665 155.0 L 564.766666665 155.0" stroke="#FF0000" fill="none" stroke-width="4px" />
<path d="M 564.766666665 155.0 L 574.766666665 155.0" stroke="#FF0000" fill="none" stroke-width="4px" />
<path d="M 574.766666665 155.0 L 584.766666665 155.0" stroke="#FF0000" fill="none" stroke-width="4px" />
<path d="M 584.766666665 155.0 L 594.766666665 155.0" stroke="#FF0000" fill="none" stroke-width="4px" />
<path d="M 594.766666665 155.0 L 584.766666665 165.0" stroke="#FF0000" fill="none" stroke-width="4px" />
<path d="M 584.766666665 145.0 L 574.766666665 145.0" stroke="#FF0000" fill="none" stroke-width="4px" />
<path d="M 574.766666665 145.0 L 564.766666665 145.0" stroke="#FF0000" fill="none" stroke-width="4px" />
<path d="M 564.766666665 145.0 L 554.766666665 145.0" stroke="#FF0000" fill="none" stroke-width="4px" />
<path d="M 554.766666665 145.0 L 544.766666665 145.0" stroke="#FF0000" fill="none" stroke-width="4px" />
<path d="M 544.766666665 145.0 L 534.766666665 145.0" stroke="#FF0000" fill="none" stroke-width="4px" />
<path d="M 534.766666665 145.0 L 524.766666665 145.0" stroke="#FF0000" fill="none" stroke-width="4px" />
<path d="M 524.766666665 145.0 L 534.766666665 135.0" stroke="#FF0000" fill="none" stroke-width="4px" />
<path d="M 534.766666665 135.0 L 544.766666665 135.0" stroke="#FF0000" fill="none" stroke-width="4px" />
<path d="M 544.766666665 135.0 L 554.766666665 135.0" stroke="#FF0000" fill="none" stroke-width="4px" />
<path d="M 554.766666665 135.0 L 564.766666665 135.0" stroke="#FF0000" fill="none" stroke-width="4px" />
<path d="M 564.766666665 135.0 L 574.766666665 135.0" stroke="#FF0000" fill="none" stroke-width="4px" />
<path d="M 574.766666665 135.0 L 564.766666665 125.0" stroke="#FF0000" fill="none" stroke-width="4px" />
<path d="M 564.766666665 125.0 L 554.766666665 125.0" stroke="#FF0000" fill="none" stroke-width="4px" />
<path d="M 554.766666665 125.0 L 544.766666665 125.0" stroke="#FF0000" fill="none" stroke-width="4px" />
<path d="M 624.766666665 125.0 L 634.766666665 125.0" stroke="#FF0000" fill="none" stroke-width="4px" />
<path d="M 634.766666665 125.0 L 644.766666665 125.0" stroke="#FF0000" fill="none" stroke-width="4px" />
<path d="M 644.766666665 125.0 L 654.766666665 125.0" stroke="#FF0000" fill="none" stroke-width="4px" />
<path d="M 654.766666665 125.0 L 664.766666665 125.0" stroke="#FF0000" fill="none" stroke-width="4px" />
<path d="M 664.766666665 125.0 L 674.766666665 125.0" stroke="#FF0000" fill="none" stroke-width="4px" />
<path d="M 674.766666665 125.0 L 684.766666665 125.0" stroke="#FF0000" fill="none" stroke-width="4px" />
<path d="M 684.766666665 125.0 L 684.766666665 135.0" stroke="#FF0000" fill="none" stroke-width="4px" />
<path d="M 684.766666665 135.0 L 674.766666665 135.0" stroke="#FF0000" fill="none" stroke-width="4px" />
<path d="M 674.766666665 135.0 L 664.766666665 135.0" stroke="#FF0000" fill="none" stroke-width="4px" />
<path d="M 664.766666665 135.0 L 654.766666665 135.0" stroke="#FF0000" fill="none" stroke-width="4px" />
<path d="M 654.766666665 135.0 L 644.766666665 135.0" stroke="#FF0000" fill="none" stroke-width="4px" />
<path d="M 644.766666665 135.0 L 634.766666665 135.0" stroke="#FF0000" fill="none" stroke-width="4px" />
<path d="M 634.766666665 135.0 L 634.766666665 145.0" stroke="#FF0000" fill="none" stroke-width="4px" />
<path d="M 634.766666665 145.0 L 644.766666665 145.0" stroke="#FF0000" fill="none" stroke-width="4px" />
<path d="M 644.766666665 145.0 L 654.766666665 145.0" stroke="#FF0000" fill="none" stroke-width="4px" />
<path d="M 654.766666665 145.0 L 664.766666665 145.0" stroke="#FF0000" fill="none" stroke-width="4px" />
<path d="M 664.766666665 145.0 L 674.766666665 145.0" stroke="#FF0000" fill="none" stroke-width="4px" />
<path d="M 674.766666665 145.0 L 664.766666665 155.0" stroke="#FF0000" fill="none" stroke-width="4px" />
<path d="M 664.766666665 155.0 L 654.766666665 155.0" stroke="#FF0000" fill="none" stroke-width="4px" />
<path d="M 654.766666665 115.0 L 644.766666665 115.0" stroke="#FF0000" fill="none" stroke-width="4px" />
<path d="M 644.766666665 115.0 L 634.766666665 115.0" stroke="#FF0000" fill="none" stroke-width="4px" />
<path d="M 634.766666665 115.0 L 644.766666665 105.0" stroke="#FF0000" fill="none" stroke-width="4px" />
<path d="M 644.766666665 105.0 L 654.766666665 105.0" stroke="#FF0000" fill="none" stroke-width="4px" />
<path d="M 654.766666665 105.0 L 664.766666665 105.0" stroke="#FF0000" fill="none" stroke-width="4px" />
<path d="M 664.766666665 105.0 L 664.766666665 115.0" stroke="#FF0000" fill="none" stroke-width="4px" />
<path d="M 664.766666665 115.0 L 674.766666665 115.0" stroke="#FF0000" fill="none" stroke-width="4px" />
<path d="M 794.766666665 115.0 L 804.766666665 115.0" stroke="#FF0000" fill="none" stroke-width="4px" />
<path d="M 804.766666665 115.0 L 814.766666665 115.0" stroke="#FF0000" fill="none" stroke-width="4px" />
<path d="M 814.766666665 115.0 L 824.766666665 115.0" stroke="#FF0000" fill="none" stroke-width="4px" />
<path d="M 824.766666665 115.0 L 834.766666665 115.0" stroke="#FF0000" fill="none" stroke-width="4px" />
<path d="M 834.766666665 115.0 L 844.766666665 115.0" stroke="#FF0000" fill="none" stroke-width="4px" />
<path d="M 844.766666665 115.0 L 854.766666665 115.0" stroke="#FF0000" fill="none" stroke-width="4px" />
<path d="M 854.766666665 115.0 L 854.766666665 125.0" stroke="#FF0000" fill="none" stroke-width="4px" />
<path d="M 854.766666665 125.0 L 844.766666665 125.0" stroke="#FF0000" fill="none" stroke-width="4px" />
<path d="M 844.766666665 125.0 L 834.766666665 125.0" stroke="#FF0000" fill="none" stroke-width="4px" />
<path d="M 834.766666665 125.0 L 824.766666665 125.0" stroke="#FF0000" fill="none" stroke-width="4px" />
<path d="M 824.766666665 125.0 L 814.766666665 125.0" stroke="#FF0000" fill="none" stroke-width="4px" />
<path d="M 814.766666665 125.0 L 804.766666665 125.0" stroke="#FF0000" fill="none" stroke-width="4px" />
<path d="M 804.766666665 125.0 L 794.766666665 125.0" stroke="#FF0000" fill="none" stroke-width="4px" />
<path d="M 794.766666665 125.0 L 804.766666665 135.0" stroke="#FF0000" fill="none" stroke-width="4px" />
<path d="M 804.766666665 135.0 L 814.766666665 135.0" stroke="#FF0000" fill="none" stroke-width="4px" />
<path d="M 814.766666665 135.0 L 824.766666665 135.0" stroke="#FF0000" fill="none" stroke-width="4px" />
<path d="M 824.766666665 135.0 L 834.766666665 135.0" stroke="#FF0000" fill="none" stroke-width="4px" />
<path d="M 834.766666665 135.0 L 844.766666665 135.0" stroke="#FF0000" fill="none" stroke-width="4px" />
<path d="M 844.766666665 135.0 L 834.766666665 145.0" stroke="#FF0000" fill="none" stroke-width="4px" />
<path d="M 834.766666665 145.0 L 824.766666665 145.0" stroke="#FF0000" fill="none" stroke-width="4px" />
<path d="M 824.766666665 145.0 L 814.766666665 145.0" stroke="#FF0000" fill="none" stroke-width="4px" />
<path d="M 814.766666665 165.0 L 804.766666665 165.0" stroke="#FF0000" fill="none" stroke-width="4px" />
<path d="M 804.766666665 165.0 L 804.766666665 175.0" stroke="#FF0000" fill="none" stroke-width="4px" />
<path d="M 804.766666665 175.0 L 794.766666665 175.0" stroke="#FF0000" fill="none" stroke-width="4px" />
<path d="M 794.766666665 175.0 L 794.766666665 185.0" stroke="#FF0000" fill="none" stroke-width="4px" />
<path d="M 794.766666665 185.0 L 804.766666665 185.0" stroke="#FF0000" fill="none" stroke-width="4px" />
<path d="M 804.766666665 185.0 L 814.766666665 185.0" stroke="#FF0000" fill="none" stroke-width="4px" />
<path d="M 814.766666665 185.0 L 824.766666665 185.0" stroke="#FF0000" fill="none" stroke-width="4px" />
<path d="M 824.766666665 185.0 L 834.766666665 185.0" stroke="#FF0000" fill="none" stroke-width="4px" />
<path d="M 834.766666665 185.0 L 844.766666665 185.0" stroke="#FF0000" fill="none" stroke-width="4px" />
<path d="M 844.766666665 185.0 L 844.766666665 195.0" stroke="#FF0000" fill="none" stroke-width="4px" />
<path d="M 844.766666665 195.0 L 834.766666665 195.0" stroke="#FF0000" fill="none" stroke-width="4px" />
<path d="M 834.766666665 195.0 L 824.766666665 195.0" stroke="#FF0000" fill="none" stroke-width="4px" />
<path d="M 824.766666665 195.0 L 814.766666665 195.0" stroke="#FF0000" fill="none" stroke-width="4px" />
<path d="M 814.766666665 195.0 L 804.766666665 195.0" stroke="#FF0000" fill="none" stroke-width="4px" />
<path d="M 804.766666665 195.0 L 794.766666665 195.0" stroke="#FF0000" fill="none" stroke-width="4px" />
<path d="M 794.766666665 195.0 L 784.766666665 195.0" stroke="#FF0000" fill="none" stroke-width="4px" />
<path d="M 784.766666665 195.0 L 784.766666665 205.0" stroke="#FF0000" fill="none" stroke-width="4px" />
<path d="M 784.766666665 205.0 L 794.766666665 205.0" stroke="#FF0000" fill="none" stroke-width="4px" />
<path d="M 794.766666665 205.0 L 804.766666665 205.0" stroke="#FF0000" fill="none" stroke-width="4px" />
<path d="M 804.766666665 205.0 L 814.766666665 205.0" stroke="#FF0000" fill="none" stroke-width="4px" />
<path d="M 814.766666665 205.0 L 824.766666665 205.0" stroke="#FF0000" fill="none" stroke-width="4px" />
<path d="M 824.766666665 205.0 L 834.766666665 205.0" stroke="#FF0000" fill="none" stroke-width="4px" />
<path d="M 834.766666665 205.0 L 844.766666665 205.0" stroke="#FF0000" fill="none" stroke-width="4px" />
<path d="M 844.766666665 205.0 L 844.766666665 215.0" stroke="#FF0000" fill="none" stroke-width="4px" />
<path d="M 844.766666665 215.0 L 834.766666665 215.0" stroke="#FF0000" fill="none" stroke-width="4px" />
<path d="M 834.766666665 215.0 L 824.766666665 215.0" stroke="#FF0000" fill="none" stroke-width="4px" />
<path d="M 824.766666665 215.0 L 814.766666665 215.0" stroke="#FF0000" fill="none" stroke-width="4px" />
<path d="M 814.766666665 215.0 L 804.766666665 215.0" stroke="#FF0000" fill="none" stroke-width="4px" />
<path d="M 804.766666665 215.0 L 794.766666665 215.0" stroke="#FF0000" fill="none" stroke-width="4px" />
<path d="M 794.766666665 215.0 L 784.766666665 215.0" stroke="#FF0000" fill="none" stroke-width="4px" />
<path d="M 784.766666665 215.0 L 784.766666665 225.0" stroke="#FF0000" fill="none" stroke-width="4px" />
<path d="M 784.766666665 225.0 L 794.766666665 225.0" stroke="#FF0000" fill="none" stroke-width="4px" />
<path d="M 794.766666665 225.0 L 804.766666665 225.0" stroke="#FF0000" fill="none" stroke-width="4px" />
<path d="M 804.766666665 225.0 L 814.766666665 225.0" stroke="#FF0000" fill="none" stroke-width="4px" />
<path d="M 814.766666665 225.0 L 824.766666665 225.0" stroke="#FF0000" fill="none" stroke-width="4px" />
<path d="M 824.766666665 225.0 L 834.766666665 225.0" stroke="#FF0000" fill="none" stroke-width="4px" />
<path d="M 834.766666665 225.0 L 844.766666665 225.0" stroke="#FF0000" fill="none" stroke-width="4px" />
<path d="M 844.766666665 225.0 L 834.766666665 235.0" stroke="#FF0000" fill="none" stroke-width="4px" />
<path d="M 834.766666665 235.0 L 824.766666665 235.0" stroke="#FF0000" fill="none" stroke-width="4px" />
<path d="M 824.766666665 235.0 L 814.766666665 235.0" stroke="#FF0000" fill="none" stroke-width="4px" />
<path d="M 814.766666665 235.0 L 804.766666665 235.0" stroke="#FF0000" fill="none" stroke-width="4px" />
<path d="M 804.766666665 235.0 L 794.766666665 235.0" stroke="#FF0000" fill="none" stroke-width="4px" />
<path d="M 744.766666665 235.0 L 734.766666665 235.0" stroke="#FF0000" fill="none" stroke-width="4px" />
<path d="M 734.766666665 235.0 L 724.766666665 235.0" stroke="#FF0000" fill="none" stroke-width="4px" />
<path d="M 724.766666665 235.0 L 714.766666665 235.0" stroke="#FF0000" fill="none" stroke-width="4px" />
<path d="M 714.766666665 235.0 L 704.766666665 235.0" stroke="#FF0000" fill="none" stroke-width="4px" />
<path d="M 704.766666665 235.0 L 704.766666665 225.0" stroke="#FF0000" fill="none" stroke-width="4px" />
<path d="M 704.766666665 225.0 L 714.766666665 225.0" stroke="#FF0000" fill="none" stroke-width="4px" />
<path d="M 714.766666665 225.0 L 724.766666665 225.0" stroke="#FF0000" fill="none" stroke-width="4px" />
<path d="M 724.766666665 225.0 L 734.766666665 225.0" stroke="#FF0000" fill="none" stroke-width="4px" />
<path d="M 734.766666665 225.0 L 744.766666665 225.0" stroke="#FF0000" fill="none" stroke-width="4px" />
<path d="M 744.766666665 225.0 L 744.766666665 215.0" stroke="#FF0000" fill="none" stroke-width="4px" />
<path d="M 744.766666665 215.0 L 734.766666665 215.0" stroke="#FF0000" fill="none" stroke-width="4px" />
<path d="M 734.766666665 215.0 L 724.766666665 215.0" stroke="#FF0000" fill="none" stroke-width="4px" />
<path d="M 724.766666665 215.0 L 714.766666665 215.0" stroke="#FF0000" fill="none" stroke-width="4px" />
<path d="M 714.766666665 215.0 L 714.766666665 205.0" stroke="#FF0000" fill="none" stroke-width="4px" />
<path d="M 714.766666665 205.0 L 724.766666665 205.0" stroke="#FF0000" fill="none" stroke-width="4px" />
<path d="M 724.766666665 205.0 L 734.766666665 205.0" stroke="#FF0000" fill="none" stroke-width="4px" />
<path d="M 734.766666665 205.0 L 744.766666665 205.0" stroke="#FF0000" fill="none" stroke-width="4px" />
<path d="M 744.766666665 205.0 L 734.766666665 195.0" stroke="#FF0000" fill="none" stroke-width="4px" />
<path d="M 734.766666665 195.0 L 724.766666665 195.0" stroke="#FF0000" fill="none" stroke-width="4px" />
<path d="M 814.766666665 175.0 L 824.766666665 175.0" stroke="#FF0000" fill="none" stroke-width="4px" />
<path d="M 824.766666665 175.0 L 834.766666665 175.0" stroke="#FF0000" fill="none" stroke-width="4px" />
<path d="M 834.766666665 175.0 L 824.766666665 165.0" stroke="#FF0000" fill="none" stroke-width="4px" />
<path d="M 824.766666665 105.0 L 814.766666665 105.0" stroke="#FF0000" fill="none" stroke-width="4px" />
<path d="M 814.766666665 105.0 L 804.766666665 105.0" stroke="#FF0000" fill="none" stroke-width="4px" />
<path d="M 804.766666665 105.0 L 794.766666665 105.0" stroke="#FF0000" fill="none" stroke-width="4px" />
<path d="M 794.766666665 105.0 L 794.766666665 95.0" stroke="#FF0000" fill="none" stroke-width="4px" />
<path d="M 794.766666665 95.0 L 804.766666665 95.0" stroke="#FF0000" fill="none" stroke-width="4px" />
<path d="M 804.766666665 95.0 L 814.766666665 95.0" stroke="#FF0000" fill="none" stroke-width="4px" />
<path d="M 814.766666665 95.0 L 824.766666665 95.0" stroke="#FF0000" fill="none" stroke-width="4px" />
<path d="M 824.766666665 95.0 L 834.766666665 95.0" stroke="#FF0000" fill="none" stroke-width="4px" />
<path d="M 834.766666665 95.0 L 844.766666665 95.0" stroke="#FF0000" fill="none" stroke-width="4px" />
<path d="M 844.766666665 95.0 L 844.766666665 105.0" stroke="#FF0000" fill="none" stroke-width="4px" />
<path d="M 844.766666665 105.0 L 834.766666665 105.0" stroke="#FF0000" fill="none" stroke-width="4px" />
<path d="M 834.766666665 105.0 L 854.766666665 105.0" stroke="#FF0000" fill="none" stroke-width="4px" />
<path d="M 884.766666665 105.0 L 894.766666665 105.0" stroke="#FF0000" fill="none" stroke-width="4px" />
<path d="M 894.766666665 105.0 L 904.766666665 105.0" stroke="#FF0000" fill="none" stroke-width="4px" />
<path d="M 904.766666665 105.0 L 914.766666665 105.0" stroke="#FF0000" fill="none" stroke-width="4px" />
<path d="M 914.766666665 105.0 L 924.766666665 105.0" stroke="#FF0000" fill="none" stroke-width="4px" />
<path d="M 924.766666665 105.0 L 924.766666665 115.0" stroke="#FF0000" fill="none" stroke-width="4px" />
<path d="M 924.766666665 115.0 L 914.766666665 115.0" stroke="#FF0000" fill="none" stroke-width="4px" />
<path d="M 914.766666665 115.0 L 904.766666665 115.0" stroke="#FF0000" fill="none" stroke-width="4px" />
<path d="M 904.766666665 115.0 L 894.766666665 115.0" stroke="#FF0000" fill="none" stroke-width="4px" />
<path d="M 894.766666665 115.0 L 884.766666665 115.0" stroke="#FF0000" fill="none" stroke-width="4px" />
<path d="M 884.766666665 115.0 L 894.766666665 125.0" stroke="#FF0000" fill="none" stroke-width="4px" />
<path d="M 894.766666665 125.0 L 904.766666665 125.0" stroke="#FF0000" fill="none" stroke-width="4px" />
<path d="M 904.766666665 125.0 L 914.766666665 125.0" stroke="#FF0000" fill="none" stroke-width="4px" />
<path d="M 914.766666665 125.0 L 904.766666665 135.0" stroke="#FF0000" fill="none" stroke-width="4px" />
<path d="M 904.766666665 95.0 L 894.766666665 95.0" stroke="#FF0000" fill="none" stroke-width="4px" />
<path d="M 894.766666665 95.0 L 884.766666665 95.0" stroke="#FF0000" fill="none" stroke-width="4px" />
<path d="M 884.766666665 95.0 L 884.766666665 85.0" stroke="#FF0000" fill="none" stroke-width="4px" />
<path d="M 884.766666665 85.0 L 894.766666665 85.0" stroke="#FF0000" fill="none" stroke-width="4px" />
<path d="M 894.766666665 85.0 L 904.766666665 85.0" stroke="#FF0000" fill="none" stroke-width="4px" />
<path d="M 904.766666665 85.0 L 914.766666665 85.0" stroke="#FF0000" fill="none" stroke-width="4px" />
<path d="M 914.766666665 85.0 L 914.766666665 95.0" stroke="#FF0000" fill="none" stroke-width="4px" />
<path d="M 914.766666665 95.0 L 924.766666665 95.0" stroke="#FF0000" fill="none" stroke-width="4px" />
<path d="M 904.766666665 75.0 L 894.766666665 75.0" stroke="#FF0000" fill="none" stroke-width="4px" />
<path d="M 834.766666665 85.0 L 824.766666665 85.0" stroke="#FF0000" fill="none" stroke-width="4px" />
<path d="M 824.766666665 85.0 L 814.766666665 85.0" stroke="#FF0000" fill="none" stroke-width="4px" />
<path d="M 814.766666665 85.0 L 804.766666665 85.0" stroke="#FF0000" fill="none" stroke-width="4px" />
<path d="M 804.766666665 85.0 L 814.766666665 75.0" stroke="#FF0000" fill="none" stroke-width="4px" />
<path d="M 814.766666665 75.0 L 824.766666665 75.0" stroke="#FF0000" fill="none" stroke-width="4px" />
<path d="M 1014.76666667 75.0 L 1024.76666667 75.0" stroke="#FF0000" fill="none" stroke-width="4px" />
<path d="M 1024.76666667 75.0 L 1034.76666667 75.0" stroke="#FF0000" fill="none" stroke-width="4px" />
<path d="M 1034.76666667 75.0 L 1044.76666667 75.0" stroke="#FF0000" fill="none" stroke-width="4px" />
<path d="M 1044.76666667 75.0 L 1054.76666667 75.0" stroke="#FF0000" fill="none" stroke-width="4px" />
<path d="M 1054.76666667 75.0 L 1064.76666667 75.0" stroke="#FF0000" fill="none" stroke-width="4px" />
<path d="M 1064.76666667 75.0 L 1074.76666667 75.0" stroke="#FF0000" fill="none" stroke-width="4px" />
<path d="M 1074.76666667 75.0 L 1084.76666667 75.0" stroke="#FF0000" fill="none" stroke-width="4px" />
<path d="M 1084.76666667 75.0 L 1084.76666667 85.0" stroke="#FF0000" fill="none" stroke-width="4px" />
<path d="M 1084.76666667 85.0 L 1074.76666667 85.0" stroke="#FF0000" fill="none" stroke-width="4px" />
<path d="M 1074.76666667 85.0 L 1064.76666667 85.0" stroke="#FF0000" fill="none" stroke-width="4px" />
<path d="M 1064.76666667 85.0 L 1054.76666667 85.0" stroke="#FF0000" fill="none" stroke-width="4px" />
<path d="M 1054.76666667 85.0 L 1044.76666667 85.0" stroke="#FF0000" fill="none" stroke-width="4px" />
<path d="M 1044.76666667 85.0 L 1034.76666667 85.0" stroke="#FF0000" fill="none" stroke-width="4px" />
<path d="M 1034.76666667 85.0 L 1024.76666667 85.0" stroke="#FF0000" fill="none" stroke-width="4px" />
<path d="M 1024.76666667 85.0 L 1014.76666667 85.0" stroke="#FF0000" fill="none" stroke-width="4px" />
<path d="M 1014.76666667 85.0 L 1024.76666667 95.0" stroke="#FF0000" fill="none" stroke-width="4px" />
<path d="M 1024.76666667 95.0 L 1034.76666667 95.0" stroke="#FF0000" fill="none" stroke-width="4px" />
<path d="M 1034.76666667 95.0 L 1044.76666667 95.0" stroke="#FF0000" fill="none" stroke-width="4px" />
<path d="M 1044.76666667 95.0 L 1054.76666667 95.0" stroke="#FF0000" fill="none" stroke-width="4px" />
<path d="M 1054.76666667 95.0 L 1064.76666667 95.0" stroke="#FF0000" fill="none" stroke-width="4px" />
<path d="M 1064.76666667 95.0 L 1074.76666667 95.0" stroke="#FF0000" fill="none" stroke-width="4px" />
<path d="M 1074.76666667 95.0 L 1084.76666667 95.0" stroke="#FF0000" fill="none" stroke-width="4px" />
<path d="M 1084.76666667 95.0 L 1074.76666667 105.0" stroke="#FF0000" fill="none" stroke-width="4px" />
<path d="M 1074.76666667 105.0 L 1064.76666667 105.0" stroke="#FF0000" fill="none" stroke-width="4px" />
<path d="M 1064.76666667 105.0 L 1054.76666667 105.0" stroke="#FF0000" fill="none" stroke-width="4px" />
<path d="M 1054.76666667 105.0 L 1044.76666667 105.0" stroke="#FF0000" fill="none" stroke-width="4px" />
<path d="M 1044.76666667 105.0 L 1034.76666667 105.0" stroke="#FF0000" fill="none" stroke-width="4px" />
<path d="M 1034.76666667 105.0 L 1044.76666667 115.0" stroke="#FF0000" fill="none" stroke-width="4px" />
<path d="M 1044.76666667 115.0 L 1054.76666667 115.0" stroke="#FF0000" fill="none" stroke-width="4px" />
<path d="M 1054.76666667 115.0 L 1064.76666667 115.0" stroke="#FF0000" fill="none" stroke-width="4px" />
<path d="M 1064.76666667 115.0 L 1074.76666667 115.0" stroke="#FF0000" fill="none" stroke-width="4px" />
<path d="M 1074.76666667 115.0 L 1074.76666667 125.0" stroke="#FF0000" fill="none" stroke-width="4px" />
<path d="M 1074.76666667 125.0 L 1064.76666667 125.0" stroke="#FF0000" fill="none" stroke-width="4px" />
<path d="M 1064.76666667 125.0 L 1064.76666667 135.0" stroke="#FF0000" fill="none" stroke-width="4px" />
<path d="M 1064.76666667 135.0 L 1054.76666667 135.0" stroke="#FF0000" fill="none" stroke-width="4px" />
<path d="M 1054.76666667 135.0 L 1054.76666667 145.0" stroke="#FF0000" fill="none" stroke-width="4px" />
<path d="M 1054.76666667 145.0 L 1064.76666667 145.0" stroke="#FF0000" fill="none" stroke-width="4px" />
<path d="M 1064.76666667 145.0 L 1074.76666667 145.0" stroke="#FF0000" fill="none" stroke-width="4px" />
<path d="M 1074.76666667 145.0 L 1084.76666667 145.0" stroke="#FF0000" fill="none" stroke-width="4px" />
<path d="M 1084.76666667 145.0 L 1094.76666667 145.0" stroke="#FF0000" fill="none" stroke-width="4px" />
<path d="M 1094.76666667 145.0 L 1104.76666667 145.0" stroke="#FF0000" fill="none" stroke-width="4px" />
<path d="M 1104.76666667 145.0 L 1114.76666667 145.0" stroke="#FF0000" fill="none" stroke-width="4px" />
<path d="M 1114.76666667 145.0 L 1124.76666667 145.0" stroke="#FF0000" fill="none" stroke-width="4px" />
<path d="M 1124.76666667 145.0 L 1134.76666667 145.0" stroke="#FF0000" fill="none" stroke-width="4px" />
<path d="M 1134.76666667 145.0 L 1144.76666667 145.0" stroke="#FF0000" fill="none" stroke-width="4px" />
<path d="M 1144.76666667 145.0 L 1154.76666667 145.0" stroke="#FF0000" fill="none" stroke-width="4px" />
<path d="M 1154.76666667 145.0 L 1164.76666667 145.0" stroke="#FF0000" fill="none" stroke-width="4px" />
<path d="M 1164.76666667 145.0 L 1174.76666667 145.0" stroke="#FF0000" fill="none" stroke-width="4px" />
<path d="M 1174.76666667 145.0 L 1174.76666667 155.0" stroke="#FF0000" fill="none" stroke-width="4px" />
<path d="M 1174.76666667 155.0 L 1164.76666667 155.0" stroke="#FF0000" fill="none" stroke-width="4px" />
<path d="M 1164.76666667 155.0 L 1154.76666667 155.0" stroke="#FF0000" fill="none" stroke-width="4px" />
<path d="M 1154.76666667 155.0 L 1144.76666667 155.0" stroke="#FF0000" fill="none" stroke-width="4px" />
<path d="M 1144.76666667 155.0 L 1134.76666667 155.0" stroke="#FF0000" fill="none" stroke-width="4px" />
<path d="M 1134.76666667 155.0 L 1124.76666667 155.0" stroke="#FF0000" fill="none" stroke-width="4px" />
<path d="M 1124.76666667 155.0 L 1114.76666667 155.0" stroke="#FF0000" fill="none" stroke-width="4px" />
<path d="M 1114.76666667 155.0 L 1104.76666667 155.0" stroke="#FF0000" fill="none" stroke-width="4px" />
<path d="M 1104.76666667 155.0 L 1094.76666667 155.0" stroke="#FF0000" fill="none" stroke-width="4px" />
<path d="M 1094.76666667 155.0 L 1084.76666667 155.0" stroke="#FF0000" fill="none" stroke-width="4px" />
<path d="M 1084.76666667 155.0 L 1074.76666667 155.0" stroke="#FF0000" fill="none" stroke-width="4px" />
<path d="M 1074.76666667 155.0 L 1064.76666667 155.0" stroke="#FF0000" fill="none" stroke-width="4px" />
<path d="M 1064.76666667 155.0 L 1074.76666667 165.0" stroke="#FF0000" fill="none" stroke-width="4px" />
<path d="M 1074.76666667 165.0 L 1084.76666667 165.0" stroke="#FF0000" fill="none" stroke-width="4px" />
<path d="M 1084.76666667 165.0 L 1094.76666667 165.0" stroke="#FF0000" fill="none" stroke-width="4px" />
<path d="M 1094.76666667 165.0 L 1104.76666667 165.0" stroke="#FF0000" fill="none" stroke-width="4px" />
<path d="M 1104.76666667 165.0 L 1094.76666667 175.0" stroke="#FF0000" fill="none" stroke-width="4px" />
<path d="M 1094.76666667 175.0 L 1084.76666667 175.0" stroke="#FF0000" fill="none" stroke-width="4px" />
<path d="M 1124.76666667 165.0 L 1134.76666667 165.0" stroke="#FF0000" fill="none" stroke-width="4px" />
<path d="M 1134.76666667 165.0 L 1144.76666667 165.0" stroke="#FF0000" fill="none" stroke-width="4px" />
<path d="M 1144.76666667 165.0 L 1154.76666667 165.0" stroke="#FF0000" fill="none" stroke-width="4px" />
<path d="M 1154.76666667 165.0 L 1164.76666667 165.0" stroke="#FF0000" fill="none" stroke-width="4px" />
<path d="M 1164.76666667 165.0 L 1174.76666667 165.0" stroke="#FF0000" fill="none" stroke-width="4px" />
<path d="M 1174.76666667 165.0 L 1184.76666667 165.0" stroke="#FF0000" fill="none" stroke-width="4px" />
<path d="M 1184.76666667 165.0 L 1184.76666667 175.0" stroke="#FF0000" fill="none" stroke-width="4px" />
<path d="M 1184.76666667 175.0 L 1174.76666667 175.0" stroke="#FF0000" fill="none" stroke-width="4px" />
<path d="M 1174.76666667 175.0 L 1164.76666667 175.0" stroke="#FF0000" fill="none" stroke-width="4px" />
<path d="M 1164.76666667 175.0 L 1154.76666667 175.0" stroke="#FF0000" fill="none" stroke-width="4px" />
<path d="M 1154.76666667 175.0 L 1144.76666667 175.0" stroke="#FF0000" fill="none" stroke-width="4px" />
<path d="M 1144.76666667 175.0 L 1134.76666667 175.0" stroke="#FF0000" fill="none" stroke-width="4px" />
<path d="M 1134.76666667 175.0 L 1134.76666667 185.0" stroke="#FF0000" fill="none" stroke-width="4px" />
<path d="M 1134.76666667 185.0 L 1144.76666667 185.0" stroke="#FF0000" fill="none" stroke-width="4px" />
<path d="M 1144.76666667 185.0 L 1154.76666667 185.0" stroke="#FF0000" fill="none" stroke-width="4px" />
<path d="M 1154.76666667 185.0 L 1164.76666667 185.0" stroke="#FF0000" fill="none" stroke-width="4px" />
<path d="M 1164.76666667 185.0 L 1174.76666667 185.0" stroke="#FF0000" fill="none" stroke-width="4px" />
<path d="M 1174.76666667 185.0 L 1184.76666667 185.0" stroke="#FF0000" fill="none" stroke-width="4px" />
<path d="M 1184.76666667 185.0 L 1194.76666667 185.0" stroke="#FF0000" fill="none" stroke-width="4px" />
<path d="M 1194.76666667 185.0 L 1194.76666667 195.0" stroke="#FF0000" fill="none" stroke-width="4px" />
<path d="M 1194.76666667 195.0 L 1184.76666667 195.0" stroke="#FF0000" fill="none" stroke-width="4px" />
<path d="M 1184.76666667 195.0 L 1174.76666667 195.0" stroke="#FF0000" fill="none" stroke-width="4px" />
<path d="M 1174.76666667 195.0 L 1164.76666667 195.0" stroke="#FF0000" fill="none" stroke-width="4px" />
<path d="M 1164.76666667 195.0 L 1154.76666667 195.0" stroke="#FF0000" fill="none" stroke-width="4px" />
<path d="M 1154.76666667 195.0 L 1144.76666667 195.0" stroke="#FF0000" fill="none" stroke-width="4px" />
<path d="M 1144.76666667 195.0 L 1134.76666667 195.0" stroke="#FF0000" fill="none" stroke-width="4px" />
<path d="M 1134.76666667 195.0 L 1144.76666667 205.0" stroke="#FF0000" fill="none" stroke-width="4px" />
<path d="M 1144.76666667 205.0 L 1154.76666667 205.0" stroke="#FF0000" fill="none" stroke-width="4px" />
<path d="M 1154.76666667 205.0 L 1164.76666667 205.0" stroke="#FF0000" fill="none" stroke-width="4px" />
<path d="M 1164.76666667 205.0 L 1174.76666667 205.0" stroke="#FF0000" fill="none" stroke-width="4px" />
<path d="M 1174.76666667 205.0 L 1184.76666667 205.0" stroke="#FF0000" fill="none" stroke-width="4px" />
<path d="M 1184.76666667 205.0 L 1194.76666667 205.0" stroke="#FF0000" fill="none" stroke-width="4px" />
<path d="M 1194.76666667 205.0 L 1184.76666667 215.0" stroke="#FF0000" fill="none" stroke-width="4px" />
<path d="M 1184.76666667 215.0 L 1174.76666667 215.0" stroke="#FF0000" fill="none" stroke-width="4px" />
<path d="M 1174.76666667 215.0 L 1164.76666667 215.0" stroke="#FF0000" fill="none" stroke-width="4px" />
<path d="M 1164.76666667 215.0 L 1154.76666667 215.0" stroke="#FF0000" fill="none" stroke-width="4px" />
<path d="M 1164.76666667 135.0 L 1154.76666667 135.0" stroke="#FF0000" fill="none" stroke-width="4px" />
<path d="M 1154.76666667 135.0 L 1144.76666667 135.0" stroke="#FF0000" fill="none" stroke-width="4px" />
<path d="M 1144.76666667 135.0 L 1134.76666667 135.0" stroke="#FF0000" fill="none" stroke-width="4px" />
<path d="M 1134.76666667 135.0 L 1144.76666667 125.0" stroke="#FF0000" fill="none" stroke-width="4px" />
<path d="M 1144.76666667 125.0 L 1154.76666667 125.0" stroke="#FF0000" fill="none" stroke-width="4px" />
<path d="M 1104.76666667 135.0 L 1094.76666667 135.0" stroke="#FF0000" fill="none" stroke-width="4px" />
<path d="M 1094.76666667 135.0 L 1084.76666667 135.0" stroke="#FF0000" fill="none" stroke-width="4px" />
<path d="M 1084.76666667 135.0 L 1074.76666667 135.0" stroke="#FF0000" fill="none" stroke-width="4px" />
<path d="M 1074.76666667 135.0 L 1084.76666667 125.0" stroke="#FF0000" fill="none" stroke-width="4px" />
<path d="M 1084.76666667 125.0 L 1094.76666667 125.0" stroke="#FF0000" fill="none" stroke-width="4px" />
<path d="M 1084.76666667 65.0 L 1074.76666667 65.0" stroke="#FF0000" fill="none" stroke-width="4px" />
<path d="M 1074.76666667 65.0 L 1064.76666667 65.0" stroke="#FF0000" fill="none" stroke-width="4px" />
<path d="M 1064.76666667 65.0 L 1054.76666667 65.0" stroke="#FF0000" fill="none" stroke-width="4px" />
<path d="M 1054.76666667 65.0 L 1044.76666667 65.0" stroke="#FF0000" fill="none" stroke-width="4px" />
<path d="M 1044.76666667 65.0 L 1034.76666667 65.0" stroke="#FF0000" fill="none" stroke-width="4px" />
<path d="M 1034.76666667 65.0 L 1024.76666667 65.0" stroke="#FF0000" fill="none" stroke-width="4px" />
<path d="M 1024.76666667 65.0 L 1014.76666667 65.0" stroke="#FF0000" fill="none" stroke-width="4px" />
<path d="M 1014.76666667 65.0 L 1014.76666667 55.0" stroke="#FF0000" fill="none" stroke-width="4px" />
<path d="M 1014.76666667 55.0 L 1024.76666667 55.0" stroke="#FF0000" fill="none" stroke-width="4px" />
<path d="M 1024.76666667 55.0 L 1034.76666667 55.0" stroke="#FF0000" fill="none" stroke-width="4px" />
<path d="M 1034.76666667 55.0 L 1044.76666667 55.0" stroke="#FF0000" fill="none" stroke-width="4px" />
<path d="M 1044.76666667 55.0 L 1054.76666667 55.0" stroke="#FF0000" fill="none" stroke-width="4px" />
<path d="M 1054.76666667 55.0 L 1064.76666667 55.0" stroke="#FF0000" fill="none" stroke-width="4px" />
<path d="M 1064.76666667 55.0 L 1074.76666667 55.0" stroke="#FF0000" fill="none" stroke-width="4px" />
<path d="M 1074.76666667 55.0 L 1084.76666667 55.0" stroke="#FF0000" fill="none" stroke-width="4px" />
<path d="M 1084.76666667 55.0 L 1074.76666667 45.0" stroke="#FF0000" fill="none" stroke-width="4px" />
<path d="M 1074.76666667 45.0 L 1064.76666667 45.0" stroke="#FF0000" fill="none" stroke-width="4px" />
<path d="M 1064.76666667 45.0 L 1054.76666667 45.0" stroke="#FF0000" fill="none" stroke-width="4px" />
<path d="M 1054.76666667 45.0 L 1044.76666667 45.0" stroke="#FF0000" fill="none" stroke-width="4px" />
<path d="M 1044.76666667 45.0 L 1034.76666667 45.0" stroke="#FF0000" fill="none" stroke-width="4px" />
<path d="M 1034.76666667 45.0 L 1024.76666667 45.0" stroke="#FF0000" fill="none" stroke-width="4px" />
<path d="M 1024.76666667 45.0 L 1014.76666667 45.0" stroke="#FF0000" fill="none" stroke-width="4px" />
<path d="M 1014.76666667 45.0 L 1014.76666667 35.0" stroke="#FF0000" fill="none" stroke-width="4px" />
<path d="M 1014.76666667 35.0 L 1024.76666667 35.0" stroke="#FF0000" fill="none" stroke-width="4px" />
<path d="M 1024.76666667 35.0 L 1034.76666667 35.0" stroke="#FF0000" fill="none" stroke-width="4px" />
<path d="M 1034.76666667 35.0 L 1044.76666667 35.0" stroke="#FF0000" fill="none" stroke-width="4px" />
<path d="M 1044.76666667 35.0 L 1054.76666667 35.0" stroke="#FF0000" fill="none" stroke-width="4px" />
<path d="M 1054.76666667 35.0 L 1064.76666667 35.0" stroke="#FF0000" fill="none" stroke-width="4px" />
<path d="M 1064.76666667 35.0 L 1054.76666667 25.0" stroke="#FF0000" fill="none" stroke-width="4px" />
<path d="M 1054.76666667 25.0 L 1044.76666667 25.0" stroke="#FF0000" fill="none" stroke-width="4px" />
<path d="M 1044.76666667 25.0 L 1034.76666667 25.0" stroke="#FF0000" fill="none" stroke-width="4px" />
<path d="M 1034.76666667 25.0 L 1024.76666667 25.0" stroke="#FF0000" fill="none" stroke-width="4px" />
<path d="M 1394.76666667 75.0 L 1404.76666667 75.0" stroke="#FF0000" fill="none" stroke-width="4px" />
<path d="M 1404.76666667 75.0 L 1414.76666667 75.0" stroke="#FF0000" fill="none" stroke-width="4px" />
<path d="M 1414.76666667 75.0 L 1424.76666667 75.0" stroke="#FF0000" fill="none" stroke-width="4px" />
<path d="M 1424.76666667 75.0 L 1434.76666667 75.0" stroke="#FF0000" fill="none" stroke-width="4px" />
<path d="M 1434.76666667 75.0 L 1434.76666667 85.0" stroke="#FF0000" fill="none" stroke-width="4px" />
<path d="M 1434.76666667 85.0 L 1424.76666667 85.0" stroke="#FF0000" fill="none" stroke-width="4px" />
<path d="M 1424.76666667 85.0 L 1414.76666667 85.0" stroke="#FF0000" fill="none" stroke-width="4px" />
<path d="M 1414.76666667 85.0 L 1404.76666667 85.0" stroke="#FF0000" fill="none" stroke-width="4px" />
<path d="M 1404.76666667 85.0 L 1394.76666667 85.0" stroke="#FF0000" fill="none" stroke-width="4px" />
<path d="M 1394.76666667 85.0 L 1394.76666667 95.0" stroke="#FF0000" fill="none" stroke-width="4px" />
<path d="M 1394.76666667 95.0 L 1404.76666667 95.0" stroke="#FF0000" fill="none" stroke-width="4px" />
<path d="M 1404.76666667 95.0 L 1414.76666667 95.0" stroke="#FF0000" fill="none" stroke-width="4px" />
<path d="M 1414.76666667 95.0 L 1424.76666667 95.0" stroke="#FF0000" fill="none" stroke-width="4px" />
<path d="M 1424.76666667 95.0 L 1434.76666667 95.0" stroke="#FF0000" fill="none" stroke-width="4px" />
<path d="M 1434.76666667 95.0 L 1444.76666667 95.0" stroke="#FF0000" fill="none" stroke-width="4px" />
<path d="M 1444.76666667 95.0 L 1454.76666667 95.0" stroke="#FF0000" fill="none" stroke-width="4px" />
<path d="M 1454.76666667 95.0 L 1454.76666667 105.0" stroke="#FF0000" fill="none" stroke-width="4px" />
<path d="M 1454.76666667 105.0 L 1444.76666667 105.0" stroke="#FF0000" fill="none" stroke-width="4px" />
<path d="M 1444.76666667 105.0 L 1434.76666667 105.0" stroke="#FF0000" fill="none" stroke-width="4px" />
<path d="M 1434.76666667 105.0 L 1424.76666667 105.0" stroke="#FF0000" fill="none" stroke-width="4px" />
<path d="M 1424.76666667 105.0 L 1414.76666667 105.0" stroke="#FF0000" fill="none" stroke-width="4px" />
<path d="M 1414.76666667 105.0 L 1404.76666667 105.0" stroke="#FF0000" fill="none" stroke-width="4px" />
<path d="M 1404.76666667 105.0 L 1404.76666667 115.0" stroke="#FF0000" fill="none" stroke-width="4px" />
<path d="M 1404.76666667 115.0 L 1414.76666667 115.0" stroke="#FF0000" fill="none" stroke-width="4px" />
<path d="M 1414.76666667 115.0 L 1424.76666667 115.0" stroke="#FF0000" fill="none" stroke-width="4px" />
<path d="M 1424.76666667 115.0 L 1434.76666667 115.0" stroke="#FF0000" fill="none" stroke-width="4px" />
<path d="M 1434.76666667 115.0 L 1444.76666667 115.0" stroke="#FF0000" fill="none" stroke-width="4px" />
<path d="M 1444.76666667 115.0 L 1454.76666667 115.0" stroke="#FF0000" fill="none" stroke-width="4px" />
<path d="M 1454.76666667 115.0 L 1464.76666667 115.0" stroke="#FF0000" fill="none" stroke-width="4px" />
<path d="M 1464.76666667 115.0 L 1474.76666667 115.0" stroke="#FF0000" fill="none" stroke-width="4px" />
<path d="M 1474.76666667 115.0 L 1474.76666667 125.0" stroke="#FF0000" fill="none" stroke-width="4px" />
<path d="M 1474.76666667 125.0 L 1464.76666667 125.0" stroke="#FF0000" fill="none" stroke-width="4px" />
<path d="M 1464.76666667 125.0 L 1454.76666667 125.0" stroke="#FF0000" fill="none" stroke-width="4px" />
<path d="M 1454.76666667 125.0 L 1444.76666667 125.0" stroke="#FF0000" fill="none" stroke-width="4px" />
<path d="M 1444.76666667 125.0 L 1434.76666667 125.0" stroke="#FF0000" fill="none" stroke-width="4px" />
<path d="M 1434.76666667 125.0 L 1424.76666667 125.0" stroke="#FF0000" fill="none" stroke-width="4px" />
<path d="M 1424.76666667 125.0 L 1414.76666667 125.0" stroke="#FF0000" fill="none" stroke-width="4px" />
<path d="M 1414.76666667 125.0 L 1404.76666667 125.0" stroke="#FF0000" fill="none" stroke-width="4px" />
<path d="M 1404.76666667 125.0 L 1404.76666667 135.0" stroke="#FF0000" fill="none" stroke-width="4px" />
<path d="M 1404.76666667 135.0 L 1414.76666667 135.0" stroke="#FF0000" fill="none" stroke-width="4px" />
<path d="M 1414.76666667 135.0 L 1424.76666667 135.0" stroke="#FF0000" fill="none" stroke-width="4px" />
<path d="M 1424.76666667 135.0 L 1434.76666667 135.0" stroke="#FF0000" fill="none" stroke-width="4px" />
<path d="M 1434.76666667 135.0 L 1444.76666667 135.0" stroke="#FF0000" fill="none" stroke-width="4px" />
<path d="M 1444.76666667 135.0 L 1454.76666667 135.0" stroke="#FF0000" fill="none" stroke-width="4px" />
<path d="M 1454.76666667 135.0 L 1464.76666667 135.0" stroke="#FF0000" fill="none" stroke-width="4px" />
<path d="M 1464.76666667 135.0 L 1474.76666667 135.0" stroke="#FF0000" fill="none" stroke-width="4px" />
<path d="M 1474.76666667 135.0 L 1464.76666667 145.0" stroke="#FF0000" fill="none" stroke-width="4px" />
<path d="M 1464.76666667 145.0 L 1454.76666667 145.0" stroke="#FF0000" fill="none" stroke-width="4px" />
<path d="M 1454.76666667 145.0 L 1444.76666667 145.0" stroke="#FF0000" fill="none" stroke-width="4px" />
<path d="M 1444.76666667 145.0 L 1434.76666667 145.0" stroke="#FF0000" fill="none" stroke-width="4px" />
<path d="M 1434.76666667 145.0 L 1424.76666667 145.0" stroke="#FF0000" fill="none" stroke-width="4px" />
<path d="M 1424.76666667 145.0 L 1414.76666667 145.0" stroke="#FF0000" fill="none" stroke-width="4px" />
<path d="M 1414.76666667 145.0 L 1404.76666667 145.0" stroke="#FF0000" fill="none" stroke-width="4px" />
<path d="M 1404.76666667 145.0 L 1404.76666667 155.0" stroke="#FF0000" fill="none" stroke-width="4px" />
<path d="M 1404.76666667 155.0 L 1414.76666667 155.0" stroke="#FF0000" fill="none" stroke-width="4px" />
<path d="M 1414.76666667 155.0 L 1424.76666667 155.0" stroke="#FF0000" fill="none" stroke-width="4px" />
<path d="M 1424.76666667 155.0 L 1434.76666667 155.0" stroke="#FF0000" fill="none" stroke-width="4px" />
<path d="M 1434.76666667 155.0 L 1444.76666667 155.0" stroke="#FF0000" fill="none" stroke-width="4px" />
<path d="M 1444.76666667 155.0 L 1454.76666667 155.0" stroke="#FF0000" fill="none" stroke-width="4px" />
<path d="M 1454.76666667 155.0 L 1444.76666667 165.0" stroke="#FF0000" fill="none" stroke-width="4px" />
<path d="M 1444.76666667 165.0 L 1434.76666667 165.0" stroke="#FF0000" fill="none" stroke-width="4px" />
<path d="M 1434.76666667 165.0 L 1424.76666667 165.0" stroke="#FF0000" fill="none" stroke-width="4px" />
<path d="M 1424.76666667 165.0 L 1414.76666667 165.0" stroke="#FF0000" fill="none" stroke-width="4px" />
<path d="M 1414.76666667 165.0 L 1404.76666667 165.0" stroke="#FF0000" fill="none" stroke-width="4px" />
<path d="M 1404.76666667 165.0 L 1404.76666667 175.0" stroke="#FF0000" fill="none" stroke-width="4px" />
<path d="M 1404.76666667 175.0 L 1414.76666667 175.0" stroke="#FF0000" fill="none" stroke-width="4px" />
<path d="M 1414.76666667 175.0 L 1424.76666667 175.0" stroke="#FF0000" fill="none" stroke-width="4px" />
<path d="M 1424.76666667 175.0 L 1434.76666667 175.0" stroke="#FF0000" fill="none" stroke-width="4px" />
<path d="M 1434.76666667 175.0 L 1434.76666667 185.0" stroke="#FF0000" fill="none" stroke-width="4px" />
<path d="M 1434.76666667 185.0 L 1424.76666667 185.0" stroke="#FF0000" fill="none" stroke-width="4px" />
<path d="M 1424.76666667 185.0 L 1414.76666667 185.0" stroke="#FF0000" fill="none" stroke-width="4px" />
<path d="M 1414.76666667 185.0 L 1404.76666667 185.0" stroke="#FF0000" fill="none" stroke-width="4px" />
<path d="M 1404.76666667 185.0 L 1394.76666667 185.0" stroke="#FF0000" fill="none" stroke-width="4px" />
<path d="M 1394.76666667 185.0 L 1394.76666667 195.0" stroke="#FF0000" fill="none" stroke-width="4px" />
<path d="M 1394.76666667 195.0 L 1384.76666667 195.0" stroke="#FF0000" fill="none" stroke-width="4px" />
<path d="M 1384.76666667 195.0 L 1394.76666667 205.0" stroke="#FF0000" fill="none" stroke-width="4px" />
<path d="M 1394.76666667 205.0 L 1404.76666667 205.0" stroke="#FF0000" fill="none" stroke-width="4px" />
<path d="M 1404.76666667 205.0 L 1414.76666667 205.0" stroke="#FF0000" fill="none" stroke-width="4px" />
<path d="M 1414.76666667 205.0 L 1424.76666667 205.0" stroke="#FF0000" fill="none" stroke-width="4px" />
<path d="M 1424.76666667 205.0 L 1434.76666667 205.0" stroke="#FF0000" fill="none" stroke-width="4px" />
<path d="M 1434.76666667 205.0 L 1444.76666667 205.0" stroke="#FF0000" fill="none" stroke-width="4px" />
<path d="M 1444.76666667 205.0 L 1444.76666667 195.0" stroke="#FF0000" fill="none" stroke-width="4px" />
<path d="M 1444.76666667 195.0 L 1434.76666667 195.0" stroke="#FF0000" fill="none" stroke-width="4px" />
<path d="M 1434.76666667 195.0 L 1424.76666667 195.0" stroke="#FF0000" fill="none" stroke-width="4px" />
<path d="M 1424.76666667 195.0 L 1414.76666667 195.0" stroke="#FF0000" fill="none" stroke-width="4px" />
<path d="M 1414.76666667 195.0 L 1404.76666667 195.0" stroke="#FF0000" fill="none" stroke-width="4px" />
<path d="M 1404.76666667 215.0 L 1414.76666667 215.0" stroke="#FF0000" fill="none" stroke-width="4px" />
<path d="M 1414.76666667 215.0 L 1424.76666667 215.0" stroke="#FF0000" fill="none" stroke-width="4px" />
<path d="M 1424.76666667 215.0 L 1434.76666667 215.0" stroke="#FF0000" fill="none" stroke-width="4px" />
<path d="M 1434.76666667 215.0 L 1424.76666667 225.0" stroke="#FF0000" fill="none" stroke-width="4px" />
<path d="M 1424.76666667 225.0 L 1414.76666667 225.0" stroke="#FF0000" fill="none" stroke-width="4px" />
<path d="M 1424.76666667 65.0 L 1414.76666667 65.0" stroke="#FF0000" fill="none" stroke-width="4px" />
<path d="M 1414.76666667 65.0 L 1404.76666667 65.0" stroke="#FF0000" fill="none" stroke-width="4px" />
<path d="M 1594.76666667 145.0 L 1604.76666667 145.0" stroke="#FF0000" fill="none" stroke-width="4px" />
<path d="M 1604.76666667 145.0 L 1614.76666667 145.0" stroke="#FF0000" fill="none" stroke-width="4px" />
<path d="M 1614.76666667 145.0 L 1624.76666667 145.0" stroke="#FF0000" fill="none" stroke-width="4px" />
<path d="M 1624.76666667 145.0 L 1634.76666667 145.0" stroke="#FF0000" fill="none" stroke-width="4px" />
<path d="M 1634.76666667 145.0 L 1644.76666667 145.0" stroke="#FF0000" fill="none" stroke-width="4px" />
<path d="M 1644.76666667 145.0 L 1654.76666667 145.0" stroke="#FF0000" fill="none" stroke-width="4px" />
<path d="M 1654.76666667 145.0 L 1654.76666667 155.0" stroke="#FF0000" fill="none" stroke-width="4px" />
<path d="M 1654.76666667 155.0 L 1644.76666667 155.0" stroke="#FF0000" fill="none" stroke-width="4px" />
<path d="M 1644.76666667 155.0 L 1634.76666667 155.0" stroke="#FF0000" fill="none" stroke-width="4px" />
<path d="M 1634.76666667 155.0 L 1624.76666667 155.0" stroke="#FF0000" fill="none" stroke-width="4px" />
<path d="M 1624.76666667 155.0 L 1614.76666667 155.0" stroke="#FF0000" fill="none" stroke-width="4px" />
<path d="M 1614.76666667 155.0 L 1604.76666667 155.0" stroke="#FF0000" fill="none" stroke-width="4px" />
<path d="M 1604.76666667 155.0 L 1594.76666667 155.0" stroke="#FF0000" fill="none" stroke-width="4px" />
<path d="M 1594.76666667 155.0 L 1604.76666667 165.0" stroke="#FF0000" fill="none" stroke-width="4px" />
<path d="M 1604.76666667 165.0 L 1614.76666667 165.0" stroke="#FF0000" fill="none" stroke-width="4px" />
<path d="M 1614.76666667 165.0 L 1624.76666667 165.0" stroke="#FF0000" fill="none" stroke-width="4px" />
<path d="M 1624.76666667 165.0 L 1634.76666667 165.0" stroke="#FF0000" fill="none" stroke-width="4px" />
<path d="M 1634.76666667 165.0 L 1644.76666667 165.0" stroke="#FF0000" fill="none" stroke-width="4px" />
<path d="M 1644.76666667 165.0 L 1654.76666667 165.0" stroke="#FF0000" fill="none" stroke-width="4px" />
<path d="M 1654.76666667 165.0 L 1654.76666667 175.0" stroke="#FF0000" fill="none" stroke-width="4px" />
<path d="M 1654.76666667 175.0 L 1644.76666667 175.0" stroke="#FF0000" fill="none" stroke-width="4px" />
<path d="M 1644.76666667 175.0 L 1634.76666667 175.0" stroke="#FF0000" fill="none" stroke-width="4px" />
<path d="M 1634.76666667 175.0 L 1624.76666667 175.0" stroke="#FF0000" fill="none" stroke-width="4px" />
<path d="M 1624.76666667 175.0 L 1614.76666667 175.0" stroke="#FF0000" fill="none" stroke-width="4px" />
<path d="M 1614.76666667 175.0 L 1604.76666667 175.0" stroke="#FF0000" fill="none" stroke-width="4px" />
<path d="M 1624.76666667 185.0 L 1634.76666667 185.0" stroke="#FF0000" fill="none" stroke-width="4px" />
<path d="M 1634.76666667 185.0 L 1644.76666667 185.0" stroke="#FF0000" fill="none" stroke-width="4px" />
<path d="M 1644.76666667 185.0 L 1654.76666667 185.0" stroke="#FF0000" fill="none" stroke-width="4px" />
<path d="M 1654.76666667 185.0 L 1654.76666667 195.0" stroke="#FF0000" fill="none" stroke-width="4px" />
<path d="M 1654.76666667 195.0 L 1644.76666667 195.0" stroke="#FF0000" fill="none" stroke-width="4px" />
<path d="M 1634.76666667 135.0 L 1624.76666667 135.0" stroke="#FF0000" fill="none" stroke-width="4px" />
<path d="M 1624.76666667 135.0 L 1614.76666667 135.0" stroke="#FF0000" fill="none" stroke-width="4px" />
<path d="M 1614.76666667 135.0 L 1604.76666667 135.0" stroke="#FF0000" fill="none" stroke-width="4px" />
<path d="M 1604.76666667 135.0 L 1614.76666667 125.0" stroke="#FF0000" fill="none" stroke-width="4px" />
<path d="M 1614.76666667 125.0 L 1624.76666667 125.0" stroke="#FF0000" fill="none" stroke-width="4px" />
<path d="M 1654.76666667 25.0 L 1654.76666667 15.0" stroke="#FF0000" fill="none" stroke-width="4px" />
<path d="M 1654.76666667 15.0 L 1644.76666667 15.0" stroke="#FF0000" fill="none" stroke-width="4px" />
<path d="M 1644.76666667 15.0 L 1644.76666667 5.0" stroke="#FF0000" fill="none" stroke-width="4px" />
<path d="M 1644.76666667 5.0 L 1654.76666667 5.0" stroke="#FF0000" fill="none" stroke-width="4px" />
<path d="M 1654.76666667 5.0 L 1654.76666667 -5.0" stroke="#FF0000" fill="none" stroke-width="4px" />
<path d="M 1654.76666667 -5.0 L 1644.76666667 -5.0" stroke="#FF0000" fill="none" stroke-width="4px" />
<path d="M 564.766666665 25.0 L 554.766666665 25.0" stroke="#FF0000" fill="none" stroke-width="4px" />
<path d="M 554.766666665 25.0 L 544.766666665 25.0" stroke="#FF0000" fill="none" stroke-width="4px" />
<path d="M 544.766666665 25.0 L 534.766666665 25.0" stroke="#FF0000" fill="none" stroke-width="4px" />
<path d="M 534.766666665 25.0 L 534.766666665 35.0" stroke="#FF0000" fill="none" stroke-width="4px" />
<path d="M 534.766666665 35.0 L 524.766666665 35.0" stroke="#FF0000" fill="none" stroke-width="4px" />
<path d="M 524.766666665 35.0 L 534.766666665 45.0" stroke="#FF0000" fill="none" stroke-width="4px" />
<path d="M 534.766666665 45.0 L 544.766666665 45.0" stroke="#FF0000" fill="none" stroke-width="4px" />
<path d="M 544.766666665 45.0 L 554.766666665 45.0" stroke="#FF0000" fill="none" stroke-width="4px" />
<path d="M 554.766666665 45.0 L 564.766666665 45.0" stroke="#FF0000" fill="none" stroke-width="4px" />
<path d="M 564.766666665 45.0 L 564.766666665 35.0" stroke="#FF0000" fill="none" stroke-width="4px" />
<path d="M 564.766666665 35.0 L 554.766666665 35.0" stroke="#FF0000" fill="none" stroke-width="4px" />
<path d="M 554.766666665 35.0 L 544.766666665 35.0" stroke="#FF0000" fill="none" stroke-width="4px" />
<path d="M 544.766666665 55.0 L 554.766666665 55.0" stroke="#FF0000" fill="none" stroke-width="4px" />
<path d="M 554.766666665 15.0 L 544.766666665 15.0" stroke="#FF0000" fill="none" stroke-width="4px" />
<path d="M 544.766666665 185.0 L 534.766666665 185.0" stroke="#FF0000" fill="none" stroke-width="4px" />
<path d="M 534.766666665 185.0 L 544.766666665 195.0" stroke="#FF0000" fill="none" stroke-width="4px" />
<path d="M 544.766666665 195.0 L 554.766666665 195.0" stroke="#FF0000" fill="none" stroke-width="4px" />
<path d="M 554.766666665 195.0 L 554.766666665 185.0" stroke="#FF0000" fill="none" stroke-width="4px" />
<path d="M 554.766666665 185.0 L 564.766666665 185.0" stroke="#FF0000" fill="none" stroke-width="4px" />
</svg>