<svg width="2894.54166667" height="235.0" xmlns="http://www.w3.org/2000/svg" version="1.1">
<path d="M 0.0 235.0 L 1985.0 235.0 L 1985.0 0.0 L 0.0 0.0 L 0.0 235.0" stroke="#000000" fill="none" stroke-width="3px" />
<path d="M 2894.54166667 235.0 L 1885.0 235.0 L 1885.0 0.0 L 2894.54166667 0.0 L 2894.54166667 235.0" stroke="#000000" fill="none" stroke-width="3px" />
<path d="M 10.0 257.5 L 0.0 247.5 L 10.0 237.5" stroke="#969696" fill="none" stroke-width="1px" />
<path d="M 10.0 237.5 L 1975.0 237.5" stroke="#969696" fill="none" stroke-width="1px" />
<path d="M 1975.0 237.5 L 1985.0 227.5 L 1975.0 217.5" stroke="#969696" fill="none" stroke-width="1px" />
<path d="M 1975.0 217.5 L 10.0 217.5" stroke="#969696" fill="none" stroke-width="1px" />
<path d="M 10.0 217.5 L 0.0 207.5 L 10.0 197.5" stroke="#969696" fill="none" stroke-width="1px" />
<path d="M 10.0 197.5 L 1975.0 197.5" stroke="#969696" fill="none" stroke-width="1px" />
<path d="M 1975.0 197.5 L 1985.0 187.5 L 1975.0 177.5" stroke="#969696" fill="none" stroke-width="1px" />
<path d="M 1975.0 177.5 L 10.0 177.5" stroke="#969696" fill="none" stroke-width="1px" />
<path d="M 10.0 177.5 L 0.0 167.5 L 10.0 157.5" stroke="#969696" fill="none" stroke-width="1px" />
<path d="M 10.0 157.5 L 1975.0 157.5" stroke="#969696" fill="none" stroke-width="1px" />
<path d="M 1975.0 157.5 L 1985.0 147.5 L 1975.0 137.5" stroke="#969696" fill="none" stroke-width="1px" />
<path d="M 1975.0 137.5 L 10.0 137.5" stroke="#969696" fill="none" stroke-width="1px" />
<path d="M 10.0 137.5 L 0.0 127.5 L 10.0 117.5" stroke="#969696" fill="none" stroke-width="1px" />
<path d="M 10.0 117.5 L 1975.0 117.5" stroke="#969696" fill="none" stroke-width="1px" />
<path d="M 1975.0 117.5 L 1985.0 107.5 L 1975.0 97.5" stroke="#969696" fill="none" stroke-width="1px" />
<path d="M 1975.0 97.5 L 10.0 97.5" stroke="#969696" fill="none" stroke-width="1px" />
<path d="M 10.0 97.5 L 0.0 87.5 L 10.0 77.5" stroke="#969696" fill="none" stroke-width="1px" />
<path d="M 10.0 77.5 L 1975.0 77.5" stroke="#969696" fill="none" stroke-width="1px" />
<path d="M 1975.0 77.5 L 1985.0 67.5 L 1975.0 57.5" stroke="#969696" fill="none" stroke-width="1px" />
<path d="M 1975.0 57.5 L 10.0 57.5" stroke="#969696" fill="none" stroke-width="1px" />
<path d="M 10.0 57.5 L 0.0 47.5 L 10.0 37.5" stroke="#969696" fill="none" stroke-width="1px" />
<path d="M 10.0 37.5 L 1975.0 37.5" stroke="#969696" fill="none" stroke-width="1px" />
<path d="M 1975.0 37.5 L 1985.0 27.5 L 1975.0 17.5" stroke="#969696" fill="none" stroke-width="1px" />
<path d="M 1975.0 17.5 L 10.0 17.5" stroke="#969696" fill="none" stroke-width="1px" />
<path d="M 10.0 17.5 L 0.0 7.5 L 10.0 -2.5" stroke="#969696" fill="none" stroke-width="1px" />
<path d="M 10.0 -2.5 L 1975.0 -2.5" stroke="#969696" fill="none" stroke-width="1px" />
<path d="M 1975.0 -2.5 L 1985.0 -12.5 L 1975.0 -22.5" stroke="#969696" fill="none" stroke-width="1px" />
<path d="M 2884.54166667 257.5 L 2894.54166667 247.5 L 2884.54166667 237.5" stroke="#969696" fill="none" stroke-width="1px" />
<path d="M 2884.54166667 237.5 L 1895.0 237.5" stroke="#969696" fill="none" stroke-width="1px" />
<path d="M 1895.0 237.5 L 1885.0 227.5 L 1895.0 217.5" stroke="#969696" fill="none" stroke-width="1px" />
<path d="M 1895.0 217.5 L 2884.54166667 217.5" stroke="#969696" fill="none" stroke-width="1px" />
<path d="M 2884.54166667 217.5 L 2894.54166667 207.5 L 2884.54166667 197.5" stroke="#969696" fill="none" stroke-width="1px" />
<path d="M 2884.54166667 197.5 L 1895.0 197.5" stroke="#969696" fill="none" stroke-width="1px" />
<path d="M 1895.0 197.5 L 1885.0 187.5 L 1895.0 177.5" stroke="#969696" fill="none" stroke-width="1px" />
<path d="M 1895.0 177.5 L 2884.54166667 177.5" stroke="#969696" fill="none" stroke-width="1px" />
<path d="M 2884.54166667 177.5 L 2894.54166667 167.5 L 2884.54166667 157.5" stroke="#969696" fill="none" stroke-width="1px" />
<path d="M 2884.54166667 157.5 L 1895.0 157.5" stroke="#969696" fill="none" stroke-width="1px" />
<path d="M 1895.0 157.5 L 1885.0 147.5 L 1895.0 137.5" stroke="#969696" fill="none" stroke-width="1px" />
<path d="M 1895.0 137.5 L 2884.54166667 137.5" stroke="#969696" fill="none" stroke-width="1px" />
<path d="M 2884.54166667 137.5 L 2894.54166667 127.5 L 2884.54166667 117.5" stroke="#969696" fill="none" stroke-width="1px" />
<path d="M 2884.54166667 117.5 L 1895.0 117.5" stroke="#969696" fill="none" stroke-width="1px" />
<path d="M 1895.0 117.5 L 1885.0 107.5 L 1895.0 97.5" stroke="#969696" fill="none" stroke-width="1px" />
<path d="M 1895.0 97.5 L 2884.54166667 97.5" stroke="#969696" fill="none" stroke-width="1px" />
<path d="M 2884.54166667 97.5 L 2894.54166667 87.5 L 2884.54166667 77.5" stroke="#969696" fill="none" stroke-width="1px" />
<path d="M 2884.54166667 77.5 L 1895.0 77.5" stroke="#969696" fill="none" stroke-width="1px" />
<path d="M 1895.0 77.5 L 1885.0 67.5 L 1895.0 57.5" stroke="#969696" fill="none" stroke-width="1px" />
<path d="M 1895.0 57.5 L 2884.54166667 57.5" stroke="#969696" fill="none" stroke-width="1px" />
<path d="M 2884.54166667 57.5 L 2894.54166667 47.5 L 2884.54166667 37.5" stroke="#969696" fill="none" stroke-width="1px" />
<path d="M 2884.54166667 37.5 L 1895.0 37.5" stroke="#969696" fill="none" stroke-width="1px" />
<path d="M 1895.0 37.5 L 1885.0 27.5 L 1895.0 17.5" stroke="#969696" fill="none" stroke-width="1px" />
<path d="M 1895.0 17.5 L 2884.54166667 17.5" stroke="#969696" fill="none" stroke-width="1px" />
<path d="M 2884.54166667 17.5 L 2894.54166667 7.5 L 2884.54166667 -2.5" stroke="#969696" fill="none" stroke-width="1px" />
<path d="M 2884.54166667 -2.5 L 1895.0 -2.5" stroke="#969696" fill="none" stroke-width="1px" />
<path d="M 1895.0 -2.5 L 1885.0 -12.5 L 1895.0 -22.5" stroke="#969696" fill="none" stroke-width="1px" />
<path d="M 0.0 235.0 L 40.0 105.0" stroke="#0095FF" fill="none" stroke-width="2px" />
<path d="M 40.0 85.0 L 60.0 95.0" stroke="#0095FF" fill="none" stroke-width="2px" />
<path d="M 60.0 95.0 L 60.0 65.0" stroke="#0095FF" fill="none" stroke-width="2px" />
<path d="M 70.0 65.0 L 40.0 45.0" stroke="#0095FF" fill="none" stroke-width="2px" />
<path d="M 40.0 45.0 L 180.0 75.0" stroke="#0095FF" fill="none" stroke-width="2px" />
<path d="M 210.0 135.0 L 220.0 85.0" stroke="#0095FF" fill="none" stroke-width="2px" />
<path d="M 220.0 85.0 L 200.0 65.0" stroke="#0095FF" fill="none" stroke-width="2px" />
<path d="M 190.0 65.0 L 420.0 145.0" stroke="#0095FF" fill="none" stroke-width="2px" />
<path d="M 450.0 185.0 L 450.0 135.0" stroke="#0095FF" fill="none" stroke-width="2px" />
<path d="M 430.0 135.0 L 880.0 105.0" stroke="#0095FF" fill="none" stroke-width="2px" />
<path d="M 900.0 85.0 L 900.0 115.0" stroke="#0095FF" fill="none" stroke-width="2px" />
<path d="M 890.0 115.0 L 1240.0 145.0" stroke="#0095FF" fill="none" stroke-width="2px" />
<path d="M 1280.0 195.0 L 1300.0 155.0" stroke="#0095FF" fill="none" stroke-width="2px" />
<path d="M 1300.0 155.0 L 1280.0 135.0" stroke="#0095FF" fill="none" stroke-width="2px" />
<path d="M 1270.0 125.0 L 1740.0 145.0" stroke="#0095FF" fill="none" stroke-width="2px" />
<path d="M 1760.0 175.0 L 1780.0 155.0" stroke="#0095FF" fill="none" stroke-width="2px" />
<path d="M 1780.0 155.0 L 1760.0 135.0" stroke="#0095FF" fill="none" stroke-width="2px" />
<path d="M 2894.54166667 235.0 L 2870.0 215.0" stroke="#0095FF" fill="none" stroke-width="2px" />
<path d="M 2890.0 195.0 L 2870.0 175.0" stroke="#0095FF" fill="none" stroke-width="2px" />
<path d="M 2870.0 175.0 L 2580.0 155.0" stroke="#0095FF" fill="none" stroke-width="2px" />
<path d="M 2560.0 125.0 L 2560.0 165.0" stroke="#0095FF" fill="none" stroke-width="2px" />
<path d="M 2570.0 165.0 L 2440.0 215.0" stroke="#0095FF" fill="none" stroke-width="2px" />
<path d="M 2410.0 235.0 L 2410.0 205.0" stroke="#0095FF" fill="none" stroke-width="2px" />
<path d="M 2430.0 205.0 L 2350.0 175.0" stroke="#0095FF" fill="none" stroke-width="2px" />
<path d="M 2320.0 205.0 L 2320.0 165.0" stroke="#0095FF" fill="none" stroke-width="2px" />
<path d="M 2330.0 155.0 L 2170.0 175.0" stroke="#0095FF" fill="none" stroke-width="2px" />
<path d="M 2140.0 185.0 L 2140.0 205.0" stroke="#0095FF" fill="none" stroke-width="2px" />
<path d="M 2160.0 205.0 L 2160.0 165.0" stroke="#0095FF" fill="none" stroke-width="2px" />
<path d="M 40.0 105.0 L 50.0 105.0" stroke="#FF0000" fill="none" stroke-width="4px" />
<path d="M 50.0 105.0 L 50.0 95.0" stroke="#FF0000" fill="none" stroke-width="4px" />
<path d="M 50.0 95.0 L 40.0 95.0" stroke="#FF0000" fill="none" stroke-width="4px" />
<path d="M 40.0 95.0 L 30.0 95.0" stroke="#FF0000" fill="none" stroke-width="4px" />
<path d="M 30.0 95.0 L 30.0 85.0" stroke="#FF0000" fill="none" stroke-width="4px" />
<path d="M 30.0 85.0 L 20.0 85.0" stroke="#FF0000" fill="none" stroke-width="4px" />
<path d="M 20.0 85.0 L 20.0 75.0" stroke="#FF0000" fill="none" stroke-width="4px" />
<path d="M 20.0 75.0 L 30.0 75.0" stroke="#FF0000" fill="none" stroke-width="4px" />
<path d="M 30.0 75.0 L 40.0 75.0" stroke="#FF0000" fill="none" stroke-width="4px" />
<path d="M 40.0 75.0 L 50.0 75.0" stroke="#FF0000" fill="none" stroke-width="4px" />
<path d="M 50.0 75.0 L 60.0 75.0" stroke="#FF0000" fill="none" stroke-width="4px" />
<path d="M 60.0 75.0 L 70.0 75.0" stroke="#FF0000" fill="none" stroke-width="4px" />
<path d="M 70.0 75.0 L 70.0 85.0" stroke="#FF0000" fill="none" stroke-width="4px" />
<path d="M 70.0 85.0 L 60.0 85.0" stroke="#FF0000" fill="none" stroke-width="4px" />
<path d="M 60.0 85.0 L 50.0 85.0" stroke="#FF0000" fill="none" stroke-width="4px" />
<path d="M 50.0 85.0 L 40.0 85.0" stroke="#FF0000" fill="none" stroke-width="4px" />
<path d="M 60.0 65.0 L 50.0 65.0" stroke="#FF0000" fill="none" stroke-width="4px" />
<path d="M 50.0 65.0 L 40.0 65.0" stroke="#FF0000" fill="none" stroke-width="4px" />
<path d="M 40.0 65.0 L 30.0 65.0" stroke="#FF0000" fill="none" stroke-width="4px" />
<path d="M 30.0 65.0 L 20.0 65.0" stroke="#FF0000" fill="none" stroke-width="4px" />
<path d="M 20.0 65.0 L 30.0 55.0" stroke="#FF0000" fill="none" stroke-width="4px" />
<path d="M 30.0 55.0 L 40.0 55.0" stroke="#FF0000" fill="none" stroke-width="4px" />
<path d="M 40.0 55.0 L 50.0 55.0" stroke="#FF0000" fill="none" stroke-width="4px" />
<path d="M 50.0 55.0 L 60.0 55.0" stroke="#FF0000" fill="none" stroke-width="4px" />
<path d="M 60.0 55.0 L 70.0 65.0" stroke="#FF0000" fill="none" stroke-width="4px" />
<path d="M 180.0 75.0 L 190.0 75.0" stroke="#FF0000" fill="none" stroke-width="4px" />
<path d="M 190.0 75.0 L 200.0 75.0" stroke="#FF0000" fill="none" stroke-width="4px" />
<path d="M 200.0 75.0 L 210.0 75.0" stroke="#FF0000" fill="none" stroke-width="4px" />
<path d="M 210.0 75.0 L 210.0 85.0" stroke="#FF0000" fill="none" stroke-width="4px" />
<path d="M 210.0 85.0 L 200.0 85.0" stroke="#FF0000" fill="none" stroke-width="4px" />
<path d="M 200.0 85.0 L 190.0 85.0" stroke="#FF0000" fill="none" stroke-width="4px" />
<path d="M 190.0 85.0 L 180.0 85.0" stroke="#FF0000" fill="none" stroke-width="4px" />
<path d="M 180.0 85.0 L 180.0 95.0" stroke="#FF0000" fill="none" stroke-width="4px" />
<path d="M 180.0 95.0 L 190.0 95.0" stroke="#FF0000" fill="none" stroke-width="4px" />
<path d="M 190.0 95.0 L 200.0 95.0" stroke="#FF0000" fill="none" stroke-width="4px" />
<path d="M 200.0 95.0 L 210.0 95.0" stroke="#FF0000" fill="none" stroke-width="4px" />
<path d="M 210.0 95.0 L 220.0 95.0" stroke="#FF0000" fill="none" stroke-width="4px" />
<path d="M 220.0 95.0 L 230.0 95.0" stroke="#FF0000" fill="none" stroke-width="4px" />
<path d="M 230.0 95.0 L 230.0 105.0" stroke="#FF0000" fill="none" stroke-width="4px" />
<path d="M 230.0 105.0 L 220.0 105.0" stroke="#FF0000" fill="none" stroke-width="4px" />
<path d="M 220.0 105.0 L 210.0 105.0" stroke="#FF0000" fill="none" stroke-width="4px" />
<path d="M 210.0 105.0 L 200.0 105.0" stroke="#FF0000" fill="none" stroke-width="4px" />
<path d="M 200.0 105.0 L 190.0 105.0" stroke="#FF0000" fill="none" stroke-width="4px" />
<path d="M 190.0 105.0 L 180.0 105.0" stroke="#FF0000" fill="none" stroke-width="4px" />
<path d="M 180.0 105.0 L 190.0 115.0" stroke="#FF0000" fill="none" stroke-width="4px" />
<path d="M 190.0 115.0 L 200.0 115.0" stroke="#FF0000" fill="none" stroke-width="4px" />
<path d="M 200.0 115.0 L 210.0 115.0" stroke="#FF0000" fill="none" stroke-width="4px" />
<path d="M 210.0 115.0 L 220.0 115.0" stroke="#FF0000" fill="none" stroke-width="4px" />
<path d="M 220.0 115.0 L 230.0 115.0" stroke="#FF0000" fill="none" stroke-width="4px" />
<path d="M 230.0 115.0 L 220.0 125.0" stroke="#FF0000" fill="none" stroke-width="4px" />
<path d="M 220.0 125.0 L 210.0 125.0" stroke="#FF0000" fill="none" stroke-width="4px" />
<path d="M 210.0 125.0 L 200.0 125.0" stroke="#FF0000" fill="none" stroke-width="4px" />
<path d="M 200.0 125.0 L 210.0 135.0" stroke="#FF0000" fill="none" stroke-width="4px" />
<path d="M 200.0 65.0 L 190.0 65.0" stroke="#FF0000" fill="none" stroke-width="4px" />
<path d="M 420.0 145.0 L 430.0 145.0" stroke="#FF0000" fill="none" stroke-width="4px" />
<path d="M 430.0 145.0 L 440.0 145.0" stroke="#FF0000" fill="none" stroke-width="4px" />
<path d="M 440.0 145.0 L 450.0 145.0" stroke="#FF0000" fill="none" stroke-width="4px" />
<path d="M 450.0 145.0 L 460.0 145.0" stroke="#FF0000" fill="none" stroke-width="4px" />
<path d="M 460.0 145.0 L 460.0 155.0" stroke="#FF0000" fill="none" stroke-width="4px" />
<path d="M 460.0 155.0 L 450.0 155.0" stroke="#FF0000" fill="none" stroke-width="4px" />
<path d="M 450.0 155.0 L 440.0 155.0" stroke="#FF0000" fill="none" stroke-width="4px" />
<path d="M 440.0 155.0 L 430.0 155.0" stroke="#FF0000" fill="none" stroke-width="4px" />
<path d="M 430.0 155.0 L 420.0 155.0" stroke="#FF0000" fill="none" stroke-width="4px" />
<path d="M 420.0 155.0 L 420.0 165.0" stroke="#FF0000" fill="none" stroke-width="4px" />
<path d="M 420.0 165.0 L 430.0 165.0" stroke="#FF0000" fill="none" stroke-width="4px" />
<path d="M 430.0 165.0 L 440.0 165.0" stroke="#FF0000" fill="none" stroke-width="4px" />
<path d="M 440.0 165.0 L 450.0 165.0" stroke="#FF0000" fill="none" stroke-width="4px" />
<path d="M 450.0 165.0 L 460.0 165.0" stroke="#FF0000" fill="none" stroke-width="4px" />
<path d="M 460.0 165.0 L 470.0 165.0" stroke="#FF0000" fill="none" stroke-width="4px" />
<path d="M 470.0 165.0 L 460.0 175.0" stroke="#FF0000" fill="none" stroke-width="4px" />
<path d="M 460.0 175.0 L 450.0 175.0" stroke="#FF0000" fill="none" stroke-width="4px" />
<path d="M 450.0 175.0 L 440.0 175.0" stroke="#FF0000" fill="none" stroke-width="4px" />
<path d="M 440.0 175.0 L 430.0 175.0" stroke="#FF0000" fill="none" stroke-width="4px" />
<path d="M 430.0 175.0 L 440.0 185.0" stroke="#FF0000" fill="none" stroke-width="4px" />
<path d="M 440.0 185.0 L 450.0 185.0" stroke="#FF0000" fill="none" stroke-width="4px" />
<path d="M 450.0 135.0 L 440.0 135.0" stroke="#FF0000" fill="none" stroke-width="4px" />
<path d="M 440.0 135.0 L 430.0 135.0" stroke="#FF0000" fill="none" stroke-width="4px" />
<path d="M 880.0 105.0 L 890.0 105.0" stroke="#FF0000" fill="none" stroke-width="4px" />
<path d="M 890.0 105.0 L 900.0 105.0" stroke="#FF0000" fill="none" stroke-width="4px" />
<path d="M 900.0 105.0 L 910.0 105.0" stroke="#FF0000" fill="none" stroke-width="4px" />
<path d="M 910.0 105.0 L 910.0 95.0" stroke="#FF0000" fill="none" stroke-width="4px" />
<path d="M 910.0 95.0 L 900.0 95.0" stroke="#FF0000" fill="none" stroke-width="4px" />
<path d="M 900.0 95.0 L 890.0 95.0" stroke="#FF0000" fill="none" stroke-width="4px" />
<path d="M 890.0 95.0 L 880.0 95.0" stroke="#FF0000" fill="none" stroke-width="4px" />
<path d="M 880.0 95.0 L 890.0 85.0" stroke="#FF0000" fill="none" stroke-width="4px" />
<path d="M 890.0 85.0 L 900.0 85.0" stroke="#FF0000" fill="none" stroke-width="4px" />
<path d="M 900.0 115.0 L 890.0 115.0" stroke="#FF0000" fill="none" stroke-width="4px" />
<path d="M 1240.0 145.0 L 1250.0 145.0" stroke="#FF0000" fill="none" stroke-width="4px" />
<path d="M 1250.0 145.0 L 1260.0 145.0" stroke="#FF0000" fill="none" stroke-width="4px" />
<path d="M 1260.0 145.0 L 1270.0 145.0" stroke="#FF0000" fill="none" stroke-width="4px" />
<path d="M 1270.0 145.0 L 1280.0 145.0" stroke="#FF0000" fill="none" stroke-width="4px" />
<path d="M 1280.0 145.0 L 1290.0 145.0" stroke="#FF0000" fill="none" stroke-width="4px" />
<path d="M 1290.0 145.0 L 1290.0 155.0" stroke="#FF0000" fill="none" stroke-width="4px" />
<path d="M 1290.0 155.0 L 1280.0 155.0" stroke="#FF0000" fill="none" stroke-width="4px" />
<path d="M 1280.0 155.0 L 1270.0 155.0" stroke="#FF0000" fill="none" stroke-width="4px" />
<path d="M 1270.0 155.0 L 1260.0 155.0" stroke="#FF0000" fill="none" stroke-width="4px" />
<path d="M 1260.0 155.0 L 1250.0 155.0" stroke="#FF0000" fill="none" stroke-width="4px" />
<path d="M 1250.0 155.0 L 1240.0 155.0" stroke="#FF0000" fill="none" stroke-width="4px" />
<path d="M 1240.0 155.0 L 1250.0 165.0" stroke="#FF0000" fill="none" stroke-width="4px" />
<path d="M 1250.0 165.0 L 1260.0 165.0" stroke="#FF0000" fill="none" stroke-width="4px" />
<path d="M 1260.0 165.0 L 1270.0 165.0" stroke="#FF0000" fill="none" stroke-width="4px" />
<path d="M 1270.0 165.0 L 1280.0 165.0" stroke="#FF0000" fill="none" stroke-width="4px" />
<path d="M 1280.0 165.0 L 1290.0 165.0" stroke="#FF0000" fill="none" stroke-width="4px" />
<path d="M 1290.0 165.0 L 1300.0 165.0" stroke="#FF0000" fill="none" stroke-width="4px" />
<path d="M 1300.0 165.0 L 1300.0 175.0" stroke="#FF0000" fill="none" stroke-width="4px" />
<path d="M 1300.0 175.0 L 1290.0 175.0" stroke="#FF0000" fill="none" stroke-width="4px" />
<path d="M 1290.0 175.0 L 1280.0 175.0" stroke="#FF0000" fill="none" stroke-width="4px" />
<path d="M 1280.0 175.0 L 1270.0 175.0" stroke="#FF0000" fill="none" stroke-width="4px" />
<path d="M 1270.0 175.0 L 1260.0 175.0" stroke="#FF0000" fill="none" stroke-width="4px" />
<path d="M 1260.0 175.0 L 1270.0 185.0" stroke="#FF0000" fill="none" stroke-width="4px" />
<path d="M 1270.0 185.0 L 1280.0 185.0" stroke="#FF0000" fill="none" stroke-width="4px" />
<path d="M 1280.0 185.0 L 1290.0 185.0" stroke="#FF0000" fill="none" stroke-width="4px" />
<path d="M 1290.0 185.0 L 1280.0 195.0" stroke="#FF0000" fill="none" stroke-width="4px" />
<path d="M 1280.0 135.0 L 1270.0 135.0" stroke="#FF0000" fill="none" stroke-width="4px" />
<path d="M 1270.0 135.0 L 1260.0 135.0" stroke="#FF0000" fill="none" stroke-width="4px" />
<path d="M 1260.0 135.0 L 1250.0 135.0" stroke="#FF0000" fill="none" stroke-width="4px" />
<path d="M 1250.0 135.0 L 1260.0 125.0" stroke="#FF0000" fill="none" stroke-width="4px" />
<path d="M 1260.0 125.0 L 1270.0 125.0" stroke="#FF0000" fill="none" stroke-width="4px" />
<path d="M 1740.0 145.0 L 1750.0 145.0" stroke="#FF0000" fill="none" stroke-width="4px" />
<path d="M 1750.0 145.0 L 1760.0 145.0" stroke="#FF0000" fill="none" stroke-width="4px" />
<path d="M 1760.0 145.0 L 1770.0 145.0" stroke="#FF0000" fill="none" stroke-width="4px" />
<path d="M 1770.0 145.0 L 1770.0 155.0" stroke="#FF0000" fill="none" stroke-width="4px" />
<path d="M 1770.0 155.0 L 1760.0 155.0" stroke="#FF0000" fill="none" stroke-width="4px" />
<path d="M 1760.0 155.0 L 1750.0 155.0" stroke="#FF0000" fill="none" stroke-width="4px" />
<path d="M 1750.0 155.0 L 1740.0 155.0" stroke="#FF0000" fill="none" stroke-width="4px" />
<path d="M 1740.0 155.0 L 1750.0 165.0" stroke="#FF0000" fill="none" stroke-width="4px" />
<path d="M 1750.0 165.0 L 1760.0 165.0" stroke="#FF0000" fill="none" stroke-width="4px" />
<path d="M 1760.0 165.0 L 1770.0 165.0" stroke="#FF0000" fill="none" stroke-width="4px" />
<path d="M 1770.0 165.0 L 1760.0 175.0" stroke="#FF0000" fill="none" stroke-width="4px" />
<path d="M 1760.0 135.0 L 1750.0 135.0" stroke="#FF0000" fill="none" stroke-width="4px" />
<path d="M 2870.0 215.0 L 2870.0 205.0" stroke="#FF0000" fill="none" stroke-width="4px" />
<path d="M 2870.0 205.0 L 2860.0 205.0" stroke="#FF0000" fill="none" stroke-width="4px" />
<path d="M 2860.0 205.0 L 2860.0 195.0" stroke="#FF0000" fill="none" stroke-width="4px" />
<path d="M 2860.0 195.0 L 2850.0 195.0" stroke="#FF0000" fill="none" stroke-width="4px" />
<path d="M 2850.0 195.0 L 2860.0 185.0" stroke="#FF0000" fill="none" stroke-width="4px" />
<path d="M 2860.0 185.0 L 2870.0 185.0" stroke="#FF0000" fill="none" stroke-width="4px" />
<path d="M 2870.0 185.0 L 2880.0 185.0" stroke="#FF0000" fill="none" stroke-width="4px" />
<path d="M 2880.0 185.0 L 2880.0 195.0" stroke="#FF0000" fill="none" stroke-width="4px" />
<path d="M 2880.0 195.0 L 2870.0 195.0" stroke="#FF0000" fill="none" stroke-width="4px" />
<path d="M 2870.0 195.0 L 2880.0 205.0" stroke="#FF0000" fill="none" stroke-width="4px" />
<path d="M 2880.0 205.0 L 2890.0 195.0" stroke="#FF0000" fill="none" stroke-width="4px" />
<path d="M 2580.0 155.0 L 2570.0 155.0" stroke="#FF0000" fill="none" stroke-width="4px" />
<path d="M 2570.0 155.0 L 2560.0 155.0" stroke="#FF0000" fill="none" stroke-width="4px" />
<path d="M 2560.0 155.0 L 2550.0 155.0" stroke="#FF0000" fill="none" stroke-width="4px" />
<path d="M 2550.0 155.0 L 2540.0 155.0" stroke="#FF0000" fill="none" stroke-width="4px" />
<path d="M 2540.0 155.0 L 2540.0 145.0" stroke="#FF0000" fill="none" stroke-width="4px" />
<path d="M 2540.0 145.0 L 2550.0 145.0" stroke="#FF0000" fill="none" stroke-width="4px" />
<path d="M 2550.0 145.0 L 2560.0 145.0" stroke="#FF0000" fill="none" stroke-width="4px" />
<path d="M 2560.0 145.0 L 2570.0 145.0" stroke="#FF0000" fill="none" stroke-width="4px" />
<path d="M 2570.0 145.0 L 2580.0 145.0" stroke="#FF0000" fill="none" stroke-width="4px" />
<path d="M 2580.0 145.0 L 2570.0 135.0" stroke="#FF0000" fill="none" stroke-width="4px" />
<path d="M 2570.0 135.0 L 2560.0 135.0" stroke="#FF0000" fill="none" stroke-width="4px" />
<path d="M 2560.0 135.0 L 2550.0 135.0" stroke="#FF0000" fill="none" stroke-width="4px" />
<path d="M 2550.0 135.0 L 2560.0 125.0" stroke="#FF0000" fill="none" stroke-width="4px" />
<path d="M 2560.0 165.0 L 2550.0 165.0" stroke="#FF0000" fill="none" stroke-width="4px" />
<path d="M 2550.0 165.0 L 2560.0 175.0" stroke="#FF0000" fill="none" stroke-width="4px" />
<path d="M 2560.0 175.0 L 2570.0 165.0" stroke="#FF0000" fill="none" stroke-width="4px" />
<path d="M 2440.0 215.0 L 2430.0 215.0" stroke="#FF0000" fill="none" stroke-width="4px" />
<path d="M 2430.0 215.0 L 2420.0 215.0" stroke="#FF0000" fill="none" stroke-width="4px" />
<path d="M 2420.0 215.0 L 2410.0 215.0" stroke="#FF0000" fill="none" stroke-width="4px" />
<path d="M 2410.0 215.0 L 2400.0 215.0" stroke="#FF0000" fill="none" stroke-width="4px" />
<path d="M 2400.0 215.0 L 2400.0 225.0" stroke="#FF0000" fill="none" stroke-width="4px" />
<path d="M 2400.0 225.0 L 2410.0 225.0" stroke="#FF0000" fill="none" stroke-width="4px" />
<path d="M 2410.0 225.0 L 2420.0 225.0" stroke="#FF0000" fill="none" stroke-width="4px" />
<path d="M 2420.0 225.0 L 2430.0 225.0" stroke="#FF0000" fill="none" stroke-width="4px" />
<path d="M 2430.0 225.0 L 2420.0 235.0" stroke="#FF0000" fill="none" stroke-width="4px" />
<path d="M 2420.0 235.0 L 2410.0 235.0" stroke="#FF0000" fill="none" stroke-width="4px" />
<path d="M 2410.0 205.0 L 2400.0 205.0" stroke="#FF0000" fill="none" stroke-width="4px" />
<path d="M 2400.0 205.0 L 2410.0 195.0" stroke="#FF0000" fill="none" stroke-width="4px" />
<path d="M 2410.0 195.0 L 2420.0 195.0" stroke="#FF0000" fill="none" stroke-width="4px" />
<path d="M 2420.0 195.0 L 2420.0 205.0" stroke="#FF0000" fill="none" stroke-width="4px" />
<path d="M 2420.0 205.0 L 2430.0 205.0" stroke="#FF0000" fill="none" stroke-width="4px" />
<path d="M 2350.0 175.0 L 2340.0 175.0" stroke="#FF0000" fill="none" stroke-width="4px" />
<path d="M 2340.0 175.0 L 2330.0 175.0" stroke="#FF0000" fill="none" stroke-width="4px" />
<path d="M 2330.0 175.0 L 2320.0 175.0" stroke="#FF0000" fill="none" stroke-width="4px" />
<path d="M 2320.0 175.0 L 2310.0 175.0" stroke="#FF0000" fill="none" stroke-width="4px" />
<path d="M 2310.0 175.0 L 2310.0 185.0" stroke="#FF0000" fill="none" stroke-width="4px" />
<path d="M 2310.0 185.0 L 2320.0 185.0" stroke="#FF0000" fill="none" stroke-width="4px" />
<path d="M 2320.0 185.0 L 2330.0 185.0" stroke="#FF0000" fill="none" stroke-width="4px" />
<path d="M 2330.0 185.0 L 2340.0 185.0" stroke="#FF0000" fill="none" stroke-width="4px" />
<path d="M 2340.0 185.0 L 2330.0 195.0" stroke="#FF0000" fill="none" stroke-width="4px" />
<path d="M 2330.0 195.0 L 2320.0 195.0" stroke="#FF0000" fill="none" stroke-width="4px" />
<path d="M 2320.0 195.0 L 2310.0 195.0" stroke="#FF0000" fill="none" stroke-width="4px" />
<path d="M 2310.0 195.0 L 2320.0 205.0" stroke="#FF0000" fill="none" stroke-width="4px" />
<path d="M 2320.0 165.0 L 2330.0 165.0" stroke="#FF0000" fill="none" stroke-width="4px" />
<path d="M 2330.0 165.0 L 2340.0 165.0" stroke="#FF0000" fill="none" stroke-width="4px" />
<path d="M 2340.0 165.0 L 2330.0 155.0" stroke="#FF0000" fill="none" stroke-width="4px" />
<path d="M 2170.0 175.0 L 2160.0 175.0" stroke="#FF0000" fill="none" stroke-width="4px" />
<path d="M 2160.0 175.0 L 2150.0 175.0" stroke="#FF0000" fill="none" stroke-width="4px" />
<path d="M 2150.0 175.0 L 2140.0 175.0" stroke="#FF0000" fill="none" stroke-width="4px" />
<path d="M 2140.0 175.0 L 2130.0 175.0" stroke="#FF0000" fill="none" stroke-width="4px" />
<path d="M 2130.0 175.0 L 2130.0 185.0" stroke="#FF0000" fill="none" stroke-width="4px" />
<path d="M 2130.0 185.0 L 2120.0 185.0" stroke="#FF0000" fill="none" stroke-width="4px" />
<path d="M 2120.0 185.0 L 2130.0 195.0" stroke="#FF0000" fill="none" stroke-width="4px" />
<path d="M 2130.0 195.0 L 2140.0 195.0" stroke="#FF0000" fill="none" stroke-width="4px" />
<path d="M 2140.0 195.0 L 2150.0 195.0" stroke="#FF0000" fill="none" stroke-width="4px" />
<path d="M 2150.0 195.0 L 2160.0 195.0" stroke="#FF0000" fill="none" stroke-width="4px" />
<path d="M 2160.0 195.0 L 2170.0 195.0" stroke="#FF0000" fill="none" stroke-width="4px" />
<path d="M 2170.0 195.0 L 2170.0 185.0" stroke="#FF0000" fill="none" stroke-width="4px" />
<path d="M 2170.0 185.0 L 2160.0 185.0" stroke="#FF0000" fill="none" stroke-width="4px" />
<path d="M 2160.0 185.0 L 2150.0 185.0" stroke="#FF0000" fill="none" stroke-width="4px" />
<path d="M 2150.0 185.0 L 2140.0 185.0" stroke="#FF0000" fill="none" stroke-width="4px" />
<path d="M 2140.0 205.0 L 2150.0 205.0" stroke="#FF0000" fill="none" stroke-width="4px" />
<path d="M 2150.0 205.0 L 2160.0 205.0" stroke="#FF0000" fill="none" stroke-width="4px" />
<path d="M 2160.0 165.0 L 2150.0 165.0" stroke="#FF0000" fill="none" stroke-width="4px" />
<path d="M 2150.0 165.0 L 2140.0 165.0" stroke="#FF0000" fill="none" stroke-width="4px" />
</svg>