<svg width="1755.23333333" height="235.0" xmlns="http://www.w3.org/2000/svg" version="1.1">
<path d="M 0.0 235.0 L 1755.23333333 235.0 L 1755.23333333 0.0 L 0.0 0.0 L 0.0 235.0" stroke="#000000" fill="none" stroke-width="3px" />
<path d="M 10.0 257.5 L 0.0 247.5 L 10.0 237.5" stroke="#969696" fill="none" stroke-width="1px" />
<path d="M 10.0 237.5 L 1745.23333333 237.5" stroke="#969696" fill="none" stroke-width="1px" />
<path d="M 1745.23333333 237.5 L 1755.23333333 227.5 L 1745.23333333 217.5" stroke="#969696" fill="none" stroke-width="1px" />
<path d="M 1745.23333333 217.5 L 10.0 217.5" stroke="#969696" fill="none" stroke-width="1px" />
<path d="M 10.0 217.5 L 0.0 207.5 L 10.0 197.5" stroke="#969696" fill="none" stroke-width="1px" />
<path d="M 10.0 197.5 L 1745.23333333 197.5" stroke="#969696" fill="none" stroke-width="1px" />
<path d="M 1745.23333333 197.5 L 1755.23333333 187.5 L 1745.23333333 177.5" stroke="#969696" fill="none" stroke-width="1px" />
<path d="M 1745.23333333 177.5 L 10.0 177.5" stroke="#969696" fill="none" stroke-width="1px" />
<path d="M 10.0 177.5 L 0.0 167.5 L 10.0 157.5" stroke="#969696" fill="none" stroke-width="1px" />
<path d="M 10.0 157.5 L 1745.23333333 157.5" stroke="#969696" fill="none" stroke-width="1px" />
<path d="M 1745.23333333 157.5 L 1755.23333333 147.5 L 1745.23333333 137.5" stroke="#969696" fill="none" stroke-width="1px" />
<path d="M 1745.23333333 137.5 L 10.0 137.5" stroke="#969696" fill="none" stroke-width="1px" />
<path d="M 10.0 137.5 L 0.0 127.5 L 10.0 117.5" stroke="#969696" fill="none" stroke-width="1px" />
<path d="M 10.0 117.5 L 1745.23333333 117.5" stroke="#969696" fill="none" stroke-width="1px" />
<path d="M 1745.23333333 117.5 L 1755.23333333 107.5 L 1745.23333333 97.5" stroke="#969696" fill="none" stroke-width="1px" />
<path d="M 1745.23333333 97.5 L 10.0 97.5" stroke="#969696" fill="none" stroke-width="1px" />
<path d="M 10.0 97.5 L 0.0 87.5 L 10.0 77.5" stroke="#969696" fill="none" stroke-width="1px" />
<path d="M 10.0 77.5 L 1745.23333333 77.5" stroke="#969696" fill="none" stroke-width="1px" />
<path d="M 1745.23333333 77.5 L 1755.23333333 67.5 L 1745.23333333 57.5" stroke="#969696" fill="none" stroke-width="1px" />
<path d="M 1745.23333333 57.5 L 10.0 57.5" stroke="#969696" fill="none" stroke-width="1px" />
<path d="M 10.0 57.5 L 0.0 47.5 L 10.0 37.5" stroke="#969696" fill="none" stroke-width="1px" />
<path d="M 10.0 37.5 L 1745.23333333 37.5" stroke="#969696" fill="none" stroke-width="1px" />
<path d="M 1745.23333333 37.5 L 1755.23333333 27.5 L 1745.23333333 17.5" stroke="#969696" fill="none" stroke-width="1px" />
<path d="M 1745.23333333 17.5 L 10.0 17.5" stroke="#969696" fill="none" stroke-width="1px" />
<path d="M 10.0 17.5 L 0.0 7.5 L 10.0 -2.5" stroke="#969696" fill="none" stroke-width="1px" />
<path d="M 10.0 -2.5 L 1745.23333333 -2.5" stroke="#969696" fill="none" stroke-width="1px" />
<path d="M 1745.23333333 -2.5 L 1755.23333333 -12.5 L 1745.23333333 -22.5" stroke="#969696" fill="none" stroke-width="1px" />
<path d="M 0.0 235.0 L 10.0 105.0" stroke="#0095FF" fill="none" stroke-width="2px" />
<path d="M 40.0 95.0 L 30.0 75.0" stroke="#0095FF" fill="none" stroke-width="2px" />
<path d="M 20.0 65.0 L 740.0 95.0" stroke="#0095FF" fill="none" stroke-width="2px" />
<path d="M 750.0 145.0 L 780.0 105.0" stroke="#0095FF" fill="none" stroke-width="2px" />
<path d="M 820.0 105.0 L 760.0 85.0" stroke="#0095FF" fill="none" stroke-width="2px" />
<path d="M 750.0 85.0 L 1550.0 45.0" stroke="#0095FF" fill="none" stroke-width="2px" />
<path d="M 1580.0 5.0 L 1580.0 55.0" stroke="#0095FF" fill="none" stroke-width="2px" />
<path d="M 10.0 105.0 L 20.0 105.0" stroke="#FF0000" fill="none" stroke-width="4px" />
<path d="M 20.0 105.0 L 30.0 105.0" stroke="#FF0000" fill="none" stroke-width="4px" />
<path d="M 30.0 105.0 L 30.0 95.0" stroke="#FF0000" fill="none" stroke-width="4px" />
<path d="M 30.0 95.0 L 20.0 95.0" stroke="#FF0000" fill="none" stroke-width="4px" />
<path d="M 20.0 95.0 L 10.0 95.0" stroke="#FF0000" fill="none" stroke-width="4px" />
<path d="M 10.0 95.0 L 10.0 85.0" stroke="#FF0000" fill="none" stroke-width="4px" />
<path d="M 10.0 85.0 L 20.0 85.0" stroke="#FF0000" fill="none" stroke-width="4px" />
<path d="M 20.0 85.0 L 30.0 85.0" stroke="#FF0000" fill="none" stroke-width="4px" />
<path d="M 30.0 85.0 L 40.0 85.0" stroke="#FF0000" fill="none" stroke-width="4px" />
<path d="M 40.0 85.0 L 40.0 95.0" stroke="#FF0000" fill="none" stroke-width="4px" />
<path d="M 30.0 75.0 L 20.0 75.0" stroke="#FF0000" fill="none" stroke-width="4px" />
<path d="M 20.0 75.0 L 10.0 75.0" stroke="#FF0000" fill="none" stroke-width="4px" />
<path d="M 10.0 75.0 L 20.0 65.0" stroke="#FF0000" fill="none" stroke-width="4px" />
<path d="M 740.0 95.0 L 750.0 95.0" stroke="#FF0000" fill="none" stroke-width="4px" />
<path d="M 750.0 95.0 L 760.0 95.0" stroke="#FF0000" fill="none" stroke-width="4px" />
<path d="M 760.0 95.0 L 770.0 95.0" stroke="#FF0000" fill="none" stroke-width="4px" />
<path d="M 770.0 95.0 L 770.0 105.0" stroke="#FF0000" fill="none" stroke-width="4px" />
<path d="M 770.0 105.0 L 760.0 105.0" stroke="#FF0000" fill="none" stroke-width="4px" />
<path d="M 760.0 105.0 L 750.0 105.0" stroke="#FF0000" fill="none" stroke-width="4px" />
<path d="M 750.0 105.0 L 740.0 105.0" stroke="#FF0000" fill="none" stroke-width="4px" />
<path d="M 740.0 105.0 L 740.0 115.0" stroke="#FF0000" fill="none" stroke-width="4px" />
<path d="M 740.0 115.0 L 750.0 115.0" stroke="#FF0000" fill="none" stroke-width="4px" />
<path d="M 750.0 115.0 L 760.0 115.0" stroke="#FF0000" fill="none" stroke-width="4px" />
<path d="M 760.0 115.0 L 770.0 115.0" stroke="#FF0000" fill="none" stroke-width="4px" />
<path d="M 770.0 115.0 L 780.0 115.0" stroke="#FF0000" fill="none" stroke-width="4px" />
<path d="M 780.0 115.0 L 790.0 115.0" stroke="#FF0000" fill="none" stroke-width="4px" />
<path d="M 790.0 115.0 L 800.0 115.0" stroke="#FF0000" fill="none" stroke-width="4px" />
<path d="M 800.0 115.0 L 810.0 115.0" stroke="#FF0000" fill="none" stroke-width="4px" />
<path d="M 810.0 115.0 L 820.0 115.0" stroke="#FF0000" fill="none" stroke-width="4px" />
<path d="M 820.0 115.0 L 830.0 115.0" stroke="#FF0000" fill="none" stroke-width="4px" />
<path d="M 830.0 115.0 L 830.0 125.0" stroke="#FF0000" fill="none" stroke-width="4px" />
<path d="M 830.0 125.0 L 820.0 125.0" stroke="#FF0000" fill="none" stroke-width="4px" />
<path d="M 820.0 125.0 L 810.0 125.0" stroke="#FF0000" fill="none" stroke-width="4px" />
<path d="M 810.0 125.0 L 800.0 125.0" stroke="#FF0000" fill="none" stroke-width="4px" />
<path d="M 800.0 125.0 L 790.0 125.0" stroke="#FF0000" fill="none" stroke-width="4px" />
<path d="M 790.0 125.0 L 780.0 125.0" stroke="#FF0000" fill="none" stroke-width="4px" />
<path d="M 780.0 125.0 L 770.0 125.0" stroke="#FF0000" fill="none" stroke-width="4px" />
<path d="M 770.0 125.0 L 760.0 125.0" stroke="#FF0000" fill="none" stroke-width="4px" />
<path d="M 760.0 125.0 L 750.0 125.0" stroke="#FF0000" fill="none" stroke-width="4px" />
<path d="M 750.0 125.0 L 740.0 125.0" stroke="#FF0000" fill="none" stroke-width="4px" />
<path d="M 740.0 125.0 L 740.0 135.0" stroke="#FF0000" fill="none" stroke-width="4px" />
<path d="M 740.0 135.0 L 750.0 135.0" stroke="#FF0000" fill="none" stroke-width="4px" />
<path d="M 750.0 135.0 L 760.0 135.0" stroke="#FF0000" fill="none" stroke-width="4px" />
<path d="M 760.0 135.0 L 770.0 135.0" stroke="#FF0000" fill="none" stroke-width="4px" />
<path d="M 770.0 135.0 L 780.0 135.0" stroke="#FF0000" fill="none" stroke-width="4px" />
<path d="M 780.0 135.0 L 790.0 135.0" stroke="#FF0000" fill="none" stroke-width="4px" />
<path d="M 790.0 135.0 L 800.0 135.0" stroke="#FF0000" fill="none" stroke-width="4px" />
<path d="M 800.0 135.0 L 810.0 135.0" stroke="#FF0000" fill="none" stroke-width="4px" />
<path d="M 810.0 135.0 L 820.0 135.0" stroke="#FF0000" fill="none" stroke-width="4px" />
<path d="M 820.0 135.0 L 810.0 145.0" stroke="#FF0000" fill="none" stroke-width="4px" />
<path d="M 810.0 145.0 L 800.0 145.0" stroke="#FF0000" fill="none" stroke-width="4px" />
<path d="M 800.0 145.0 L 790.0 145.0" stroke="#FF0000" fill="none" stroke-width="4px" />
<path d="M 790.0 145.0 L 780.0 145.0" stroke="#FF0000" fill="none" stroke-width="4px" />
<path d="M 780.0 145.0 L 770.0 145.0" stroke="#FF0000" fill="none" stroke-width="4px" />
<path d="M 770.0 145.0 L 760.0 145.0" stroke="#FF0000" fill="none" stroke-width="4px" />
<path d="M 760.0 145.0 L 750.0 145.0" stroke="#FF0000" fill="none" stroke-width="4px" />
<path d="M 780.0 105.0 L 790.0 105.0" stroke="#FF0000" fill="none" stroke-width="4px" />
<path d="M 790.0 105.0 L 800.0 105.0" stroke="#FF0000" fill="none" stroke-width="4px" />
<path d="M 800.0 105.0 L 810.0 105.0" stroke="#FF0000" fill="none" stroke-width="4px" />
<path d="M 810.0 105.0 L 820.0 105.0" stroke="#FF0000" fill="none" stroke-width="4px" />
<path d="M 760.0 85.0 L 750.0 85.0" stroke="#FF0000" fill="none" stroke-width="4px" />
<path d="M 1550.0 45.0 L 1560.0 45.0" stroke="#FF0000" fill="none" stroke-width="4px" />
<path d="M 1560.0 45.0 L 1570.0 45.0" stroke="#FF0000" fill="none" stroke-width="4px" />
<path d="M 1570.0 45.0 L 1580.0 45.0" stroke="#FF0000" fill="none" stroke-width="4px" />
<path d="M 1580.0 45.0 L 1590.0 45.0" stroke="#FF0000" fill="none" stroke-width="4px" />
<path d="M 1590.0 45.0 L 1600.0 45.0" stroke="#FF0000" fill="none" stroke-width="4px" />
<path d="M 1600.0 45.0 L 1600.0 35.0" stroke="#FF0000" fill="none" stroke-width="4px" />
<path d="M 1600.0 35.0 L 1590.0 35.0" stroke="#FF0000" fill="none" stroke-width="4px" />
<path d="M 1590.0 35.0 L 1580.0 35.0" stroke="#FF0000" fill="none" stroke-width="4px" />
<path d="M 1580.0 35.0 L 1570.0 35.0" stroke="#FF0000" fill="none" stroke-width="4px" />
<path d="M 1570.0 35.0 L 1560.0 35.0" stroke="#FF0000" fill="none" stroke-width="4px" />
<path d="M 1560.0 35.0 L 1550.0 35.0" stroke="#FF0000" fill="none" stroke-width="4px" />
<path d="M 1550.0 35.0 L 1560.0 25.0" stroke="#FF0000" fill="none" stroke-width="4px" />
<path d="M 1560.0 25.0 L 1570.0 25.0" stroke="#FF0000" fill="none" stroke-width="4px" />
<path d="M 1570.0 25.0 L 1580.0 25.0" stroke="#FF0000" fill="none" stroke-width="4px" />
<path d="M 1580.0 25.0 L 1590.0 25.0" stroke="#FF0000" fill="none" stroke-width="4px" />
<path d="M 1590.0 25.0 L 1600.0 25.0" stroke="#FF0000" fill="none" stroke-width="4px" />
<path d="M 1600.0 25.0 L 1590.0 15.0" stroke="#FF0000" fill="none" stroke-width="4px" />
<path d="M 1590.0 15.0 L 1580.0 15.0" stroke="#FF0000" fill="none" stroke-width="4px" />
<path d="M 1580.0 15.0 L 1570.0 15.0" stroke="#FF0000" fill="none" stroke-width="4px" />
<path d="M 1570.0 15.0 L 1580.0 5.0" stroke="#FF0000" fill="none" stroke-width="4px" />
<path d="M 1580.0 55.0 L 1570.0 55.0" stroke="#FF0000" fill="none" stroke-width="4px" />
<path d="M 1570.0 55.0 L 1560.0 55.0" stroke="#FF0000" fill="none" stroke-width="4px" />
<path d="M 1560.0 55.0 L 1570.0 65.0" stroke="#FF0000" fill="none" stroke-width="4px" />
<path d="M 1570.0 65.0 L 1580.0 65.0" stroke="#FF0000" fill="none" stroke-width="4px" />
<path d="M 1580.0 65.0 L 1590.0 55.0" stroke="#FF0000" fill="none" stroke-width="4px" />
</svg>