<svg width="2472.26666667" height="235.0" xmlns="http://www.w3.org/2000/svg" version="1.1">
<path d="M 0.0 235.0 L 1985.0 235.0 L 1985.0 0.0 L 0.0 0.0 L 0.0 235.0" stroke="#000000" fill="none" stroke-width="3px" />
<path d="M 2472.26666667 235.0 L 1885.0 235.0 L 1885.0 0.0 L 2472.26666667 0.0 L 2472.26666667 235.0" stroke="#000000" fill="none" stroke-width="3px" />
<path d="M 10.0 257.5 L 0.0 247.5 L 10.0 237.5" stroke="#969696" fill="none" stroke-width="1px" />
<path d="M 10.0 237.5 L 1975.0 237.5" stroke="#969696" fill="none" stroke-width="1px" />
<path d="M 1975.0 237.5 L 1985.0 227.5 L 1975.0 217.5" stroke="#969696" fill="none" stroke-width="1px" />
<path d="M 1975.0 217.5 L 10.0 217.5" stroke="#969696" fill="none" stroke-width="1px" />
<path d="M 10.0 217.5 L 0.0 207.5 L 10.0 197.5" stroke="#969696" fill="none" stroke-width="1px" />
<path d="M 10.0 197.5 L 1975.0 197.5" stroke="#969696" fill="none" stroke-width="1px" />
<path d="M 1975.0 197.5 L 1985.0 187.5 L 1975.0 177.5" stroke="#969696" fill="none" stroke-width="1px" />
<path d="M 1975.0 177.5 L 10.0 177.5" stroke="#969696" fill="none" stroke-width="1px" />
<path d="M 10.0 177.5 L 0.0 167.5 L 10.0 157.5" stroke="#969696" fill="none" stroke-width="1px" />
<path d="M 10.0 157.5 L 1975.0 157.5" stroke="#969696" fill="none" stroke-width="1px" />
<path d="M 1975.0 157.5 L 1985.0 147.5 L 1975.0 137.5" stroke="#969696" fill="none" stroke-width="1px" />
<path d="M 1975.0 137.5 L 10.0 137.5" stroke="#969696" fill="none" stroke-width="1px" />
<path d="M 10.0 137.5 L 0.0 127.5 L 10.0 117.5" stroke="#969696" fill="none" stroke-width="1px" />
<path d="M 10.0 117.5 L 1975.0 117.5" stroke="#969696" fill="none" stroke-width="1px" />
<path d="M 1975.0 117.5 L 1985.0 107.5 L 1975.0 97.5" stroke="#969696" fill="none" stroke-width="1px" />
<path d="M 1975.0 97.5 L 10.0 97.5" stroke="#969696" fill="none" stroke-width="1px" />
<path d="M 10.0 97.5 L 0.0 87.5 L 10.0 77.5" stroke="#969696" fill="none" stroke-width="1px" />
<path d="M 10.0 77.5 L 1975.0 77.5" stroke="#969696" fill="none" stroke-width="1px" />
<path d="M 1975.0 77.5 L 1985.0 67.5 L 1975.0 57.5" stroke="#969696" fill="none" stroke-width="1px" />
<path d="M 1975.0 57.5 L 10.0 57.5" stroke="#969696" fill="none" stroke-width="1px" />
<path d="M 10.0 57.5 L 0.0 47.5 L 10.0 37.5" stroke="#969696" fill="none" stroke-width="1px" />
<path d="M 10.0 37.5 L 1975.0 37.5" stroke="#969696" fill="none" stroke-width="1px" />
<path d="M 1975.0 37.5 L 1985.0 27.5 L 1975.0 17.5" stroke="#969696" fill="none" stroke-width="1px" />
<path d="M 1975.0 17.5 L 10.0 17.5" stroke="#969696" fill="none" stroke-width="1px" />
<path d="M 10.0 17.5 L 0.0 7.5 L 10.0 -2.5" stroke="#969696" fill="none" stroke-width="1px" />
<path d="M 10.0 -2.5 L 1975.0 -2.5" stroke="#969696" fill="none" stroke-width="1px" />
<path d="M 1975.0 -2.5 L 1985.0 -12.5 L 1975.0 -22.5" stroke="#969696" fill="none" stroke-width="1px" />
<path d="M 2462.26666667 257.5 L 2472.26666667 247.5 L 2462.26666667 237.5" stroke="#969696" fill="none" stroke-width="1px" />
<path d="M 2462.26666667 237.5 L 1895.0 237.5" stroke="#969696" fill="none" stroke-width="1px" />
<path d="M 1895.0 237.5 L 1885.0 227.5 L 1895.0 217.5" stroke="#969696" fill="none" stroke-width="1px" />
<path d="M 1895.0 217.5 L 2462.26666667 217.5" stroke="#969696" fill="none" stroke-width="1px" />
<path d="M 2462.26666667 217.5 L 2472.26666667 207.5 L 2462.26666667 197.5" stroke="#969696" fill="none" stroke-width="1px" />
<path d="M 2462.26666667 197.5 L 1895.0 197.5" stroke="#969696" fill="none" stroke-width="1px" />
<path d="M 1895.0 197.5 L 1885.0 187.5 L 1895.0 177.5" stroke="#969696" fill="none" stroke-width="1px" />
<path d="M 1895.0 177.5 L 2462.26666667 177.5" stroke="#969696" fill="none" stroke-width="1px" />
<path d="M 2462.26666667 177.5 L 2472.26666667 167.5 L 2462.26666667 157.5" stroke="#969696" fill="none" stroke-width="1px" />
<path d="M 2462.26666667 157.5 L 1895.0 157.5" stroke="#969696" fill="none" stroke-width="1px" />
<path d="M 1895.0 157.5 L 1885.0 147.5 L 1895.0 137.5" stroke="#969696" fill="none" stroke-width="1px" />
<path d="M 1895.0 137.5 L 2462.26666667 137.5" stroke="#969696" fill="none" stroke-width="1px" />
<path d="M 2462.26666667 137.5 L 2472.26666667 127.5 L 2462.26666667 117.5" stroke="#969696" fill="none" stroke-width="1px" />
<path d="M 2462.26666667 117.5 L 1895.0 117.5" stroke="#969696" fill="none" stroke-width="1px" />
<path d="M 1895.0 117.5 L 1885.0 107.5 L 1895.0 97.5" stroke="#969696" fill="none" stroke-width="1px" />
<path d="M 1895.0 97.5 L 2462.26666667 97.5" stroke="#969696" fill="none" stroke-width="1px" />
<path d="M 2462.26666667 97.5 L 2472.26666667 87.5 L 2462.26666667 77.5" stroke="#969696" fill="none" stroke-width="1px" />
<path d="M 2462.26666667 77.5 L 1895.0 77.5" stroke="#969696" fill="none" stroke-width="1px" />
<path d="M 1895.0 77.5 L 1885.0 67.5 L 1895.0 57.5" stroke="#969696" fill="none" stroke-width="1px" />
<path d="M 1895.0 57.5 L 2462.26666667 57.5" stroke="#969696" fill="none" stroke-width="1px" />
<path d="M 2462.26666667 57.5 L 2472.26666667 47.5 L 2462.26666667 37.5" stroke="#969696" fill="none" stroke-width="1px" />
<path d="M 2462.26666667 37.5 L 1895.0 37.5" stroke="#969696" fill="none" stroke-width="1px" />
<path d="M 1895.0 37.5 L 1885.0 27.5 L 1895.0 17.5" stroke="#969696" fill="none" stroke-width="1px" />
<path d="M 1895.0 17.5 L 2462.26666667 17.5" stroke="#969696" fill="none" stroke-width="1px" />
<path d="M 2462.26666667 17.5 L 2472.26666667 7.5 L 2462.26666667 -2.5" stroke="#969696" fill="none" stroke-width="1px" />
<path d="M 2462.26666667 -2.5 L 1895.0 -2.5" stroke="#969696" fill="none" stroke-width="1px" />
<path d="M 1895.0 -2.5 L 1885.0 -12.5 L 1895.0 -22.5" stroke="#969696" fill="none" stroke-width="1px" />
<path d="M 0.0 235.0 L 20.0 235.0" stroke="#0095FF" fill="none" stroke-width="2px" />
<path d="M 20.0 235.0 L 20.0 145.0" stroke="#0095FF" fill="none" stroke-width="2px" />
<path d="M 30.0 135.0 L 30.0 115.0" stroke="#0095FF" fill="none" stroke-width="2px" />
<path d="M 20.0 105.0 L 460.0 105.0" stroke="#0095FF" fill="none" stroke-width="2px" />
<path d="M 460.0 105.0 L 460.0 185.0" stroke="#0095FF" fill="none" stroke-width="2px" />
<path d="M 480.0 215.0 L 480.0 175.0" stroke="#0095FF" fill="none" stroke-width="2px" />
<path d="M 510.0 175.0 L 560.0 175.0" stroke="#0095FF" fill="none" stroke-width="2px" />
<path d="M 560.0 175.0 L 560.0 155.0" stroke="#0095FF" fill="none" stroke-width="2px" />
<path d="M 590.0 205.0 L 590.0 145.0" stroke="#0095FF" fill="none" stroke-width="2px" />
<path d="M 620.0 145.0 L 580.0 145.0" stroke="#0095FF" fill="none" stroke-width="2px" />
<path d="M 580.0 145.0 L 580.0 125.0" stroke="#0095FF" fill="none" stroke-width="2px" />
<path d="M 580.0 125.0 L 540.0 125.0" stroke="#0095FF" fill="none" stroke-width="2px" />
<path d="M 540.0 125.0 L 540.0 75.0" stroke="#0095FF" fill="none" stroke-width="2px" />
<path d="M 550.0 65.0 L 550.0 35.0" stroke="#0095FF" fill="none" stroke-width="2px" />
<path d="M 550.0 25.0 L 530.0 25.0" stroke="#0095FF" fill="none" stroke-width="2px" />
<path d="M 530.0 25.0 L 530.0 15.0" stroke="#0095FF" fill="none" stroke-width="2px" />
<path d="M 530.0 15.0 L 790.0 15.0" stroke="#0095FF" fill="none" stroke-width="2px" />
<path d="M 790.0 15.0 L 790.0 125.0" stroke="#0095FF" fill="none" stroke-width="2px" />
<path d="M 810.0 155.0 L 810.0 115.0" stroke="#0095FF" fill="none" stroke-width="2px" />
<path d="M 830.0 115.0 L 1150.0 115.0" stroke="#0095FF" fill="none" stroke-width="2px" />
<path d="M 1150.0 115.0 L 1150.0 155.0" stroke="#0095FF" fill="none" stroke-width="2px" />
<path d="M 1180.0 175.0 L 1180.0 145.0" stroke="#0095FF" fill="none" stroke-width="2px" />
<path d="M 1170.0 135.0 L 1570.0 135.0" stroke="#0095FF" fill="none" stroke-width="2px" />
<path d="M 1570.0 135.0 L 1570.0 195.0" stroke="#0095FF" fill="none" stroke-width="2px" />
<path d="M 1670.0 225.0 L 1670.0 185.0" stroke="#0095FF" fill="none" stroke-width="2px" />
<path d="M 1620.0 165.0 L 1650.0 165.0" stroke="#0095FF" fill="none" stroke-width="2px" />
<path d="M 1650.0 165.0 L 1650.0 155.0" stroke="#0095FF" fill="none" stroke-width="2px" />
<path d="M 1650.0 125.0 L 1700.0 125.0" stroke="#0095FF" fill="none" stroke-width="2px" />
<path d="M 1700.0 125.0 L 1700.0 145.0" stroke="#0095FF" fill="none" stroke-width="2px" />
<path d="M 1710.0 185.0 L 1660.0 185.0" stroke="#0095FF" fill="none" stroke-width="2px" />
<path d="M 1660.0 185.0 L 1660.0 165.0" stroke="#0095FF" fill="none" stroke-width="2px" />
<path d="M 1660.0 165.0 L 1720.0 165.0" stroke="#0095FF" fill="none" stroke-width="2px" />
<path d="M 1720.0 165.0 L 1720.0 135.0" stroke="#0095FF" fill="none" stroke-width="2px" />
<path d="M 1760.0 125.0 L 1760.0 105.0" stroke="#0095FF" fill="none" stroke-width="2px" />
<path d="M 1720.0 95.0 L 1740.0 95.0" stroke="#0095FF" fill="none" stroke-width="2px" />
<path d="M 1740.0 95.0 L 1740.0 75.0" stroke="#0095FF" fill="none" stroke-width="2px" />
<path d="M 1740.0 75.0 L 1730.0 75.0" stroke="#0095FF" fill="none" stroke-width="2px" />
<path d="M 1730.0 75.0 L 1730.0 55.0" stroke="#0095FF" fill="none" stroke-width="2px" />
<path d="M 1690.0 25.0 L 1650.0 25.0" stroke="#0095FF" fill="none" stroke-width="2px" />
<path d="M 1650.0 25.0 L 1650.0 45.0" stroke="#0095FF" fill="none" stroke-width="2px" />
<path d="M 1590.0 35.0 L 1590.0 55.0" stroke="#0095FF" fill="none" stroke-width="2px" />
<path d="M 1640.0 75.0 L 1640.0 35.0" stroke="#0095FF" fill="none" stroke-width="2px" />
<path d="M 1630.0 35.0 L 1620.0 35.0" stroke="#0095FF" fill="none" stroke-width="2px" />
<path d="M 1620.0 35.0 L 1620.0 15.0" stroke="#0095FF" fill="none" stroke-width="2px" />
<path d="M 1580.0 -5.0 L 1760.0 -5.0" stroke="#0095FF" fill="none" stroke-width="2px" />
<path d="M 1760.0 -5.0 L 1760.0 95.0" stroke="#0095FF" fill="none" stroke-width="2px" />
<path d="M 20.0 145.0 L 20.0 135.0" stroke="#FF0000" fill="none" stroke-width="4px" />
<path d="M 20.0 135.0 L 10.0 135.0" stroke="#FF0000" fill="none" stroke-width="4px" />
<path d="M 10.0 135.0 L 10.0 125.0" stroke="#FF0000" fill="none" stroke-width="4px" />
<path d="M 10.0 125.0 L 20.0 125.0" stroke="#FF0000" fill="none" stroke-width="4px" />
<path d="M 20.0 125.0 L 30.0 125.0" stroke="#FF0000" fill="none" stroke-width="4px" />
<path d="M 30.0 125.0 L 40.0 125.0" stroke="#FF0000" fill="none" stroke-width="4px" />
<path d="M 40.0 125.0 L 30.0 135.0" stroke="#FF0000" fill="none" stroke-width="4px" />
<path d="M 30.0 115.0 L 20.0 115.0" stroke="#FF0000" fill="none" stroke-width="4px" />
<path d="M 20.0 115.0 L 10.0 115.0" stroke="#FF0000" fill="none" stroke-width="4px" />
<path d="M 10.0 115.0 L 20.0 105.0" stroke="#FF0000" fill="none" stroke-width="4px" />
<path d="M 460.0 185.0 L 470.0 185.0" stroke="#FF0000" fill="none" stroke-width="4px" />
<path d="M 470.0 185.0 L 480.0 185.0" stroke="#FF0000" fill="none" stroke-width="4px" />
<path d="M 480.0 185.0 L 490.0 185.0" stroke="#FF0000" fill="none" stroke-width="4px" />
<path d="M 490.0 185.0 L 500.0 185.0" stroke="#FF0000" fill="none" stroke-width="4px" />
<path d="M 500.0 185.0 L 510.0 185.0" stroke="#FF0000" fill="none" stroke-width="4px" />
<path d="M 510.0 185.0 L 510.0 195.0" stroke="#FF0000" fill="none" stroke-width="4px" />
<path d="M 510.0 195.0 L 500.0 195.0" stroke="#FF0000" fill="none" stroke-width="4px" />
<path d="M 500.0 195.0 L 490.0 195.0" stroke="#FF0000" fill="none" stroke-width="4px" />
<path d="M 490.0 195.0 L 480.0 195.0" stroke="#FF0000" fill="none" stroke-width="4px" />
<path d="M 480.0 195.0 L 470.0 195.0" stroke="#FF0000" fill="none" stroke-width="4px" />
<path d="M 470.0 195.0 L 470.0 205.0" stroke="#FF0000" fill="none" stroke-width="4px" />
<path d="M 470.0 205.0 L 480.0 205.0" stroke="#FF0000" fill="none" stroke-width="4px" />
<path d="M 480.0 205.0 L 490.0 205.0" stroke="#FF0000" fill="none" stroke-width="4px" />
<path d="M 490.0 205.0 L 500.0 205.0" stroke="#FF0000" fill="none" stroke-width="4px" />
<path d="M 500.0 205.0 L 510.0 205.0" stroke="#FF0000" fill="none" stroke-width="4px" />
<path d="M 510.0 205.0 L 500.0 215.0" stroke="#FF0000" fill="none" stroke-width="4px" />
<path d="M 500.0 215.0 L 490.0 215.0" stroke="#FF0000" fill="none" stroke-width="4px" />
<path d="M 490.0 215.0 L 480.0 215.0" stroke="#FF0000" fill="none" stroke-width="4px" />
<path d="M 480.0 175.0 L 470.0 175.0" stroke="#FF0000" fill="none" stroke-width="4px" />
<path d="M 470.0 175.0 L 480.0 165.0" stroke="#FF0000" fill="none" stroke-width="4px" />
<path d="M 480.0 165.0 L 490.0 165.0" stroke="#FF0000" fill="none" stroke-width="4px" />
<path d="M 490.0 165.0 L 500.0 165.0" stroke="#FF0000" fill="none" stroke-width="4px" />
<path d="M 500.0 165.0 L 500.0 175.0" stroke="#FF0000" fill="none" stroke-width="4px" />
<path d="M 500.0 175.0 L 490.0 175.0" stroke="#FF0000" fill="none" stroke-width="4px" />
<path d="M 490.0 175.0 L 510.0 175.0" stroke="#FF0000" fill="none" stroke-width="4px" />
<path d="M 560.0 155.0 L 570.0 155.0" stroke="#FF0000" fill="none" stroke-width="4px" />
<path d="M 570.0 155.0 L 580.0 155.0" stroke="#FF0000" fill="none" stroke-width="4px" />
<path d="M 580.0 155.0 L 590.0 155.0" stroke="#FF0000" fill="none" stroke-width="4px" />
<path d="M 590.0 155.0 L 600.0 155.0" stroke="#FF0000" fill="none" stroke-width="4px" />
<path d="M 600.0 155.0 L 610.0 155.0" stroke="#FF0000" fill="none" stroke-width="4px" />
<path d="M 610.0 155.0 L 620.0 155.0" stroke="#FF0000" fill="none" stroke-width="4px" />
<path d="M 620.0 155.0 L 620.0 165.0" stroke="#FF0000" fill="none" stroke-width="4px" />
<path d="M 620.0 165.0 L 610.0 165.0" stroke="#FF0000" fill="none" stroke-width="4px" />
<path d="M 610.0 165.0 L 600.0 165.0" stroke="#FF0000" fill="none" stroke-width="4px" />
<path d="M 600.0 165.0 L 590.0 165.0" stroke="#FF0000" fill="none" stroke-width="4px" />
<path d="M 590.0 165.0 L 580.0 165.0" stroke="#FF0000" fill="none" stroke-width="4px" />
<path d="M 580.0 165.0 L 570.0 165.0" stroke="#FF0000" fill="none" stroke-width="4px" />
<path d="M 570.0 165.0 L 570.0 175.0" stroke="#FF0000" fill="none" stroke-width="4px" />
<path d="M 570.0 175.0 L 580.0 175.0" stroke="#FF0000" fill="none" stroke-width="4px" />
<path d="M 580.0 175.0 L 590.0 175.0" stroke="#FF0000" fill="none" stroke-width="4px" />
<path d="M 590.0 175.0 L 600.0 175.0" stroke="#FF0000" fill="none" stroke-width="4px" />
<path d="M 600.0 175.0 L 610.0 175.0" stroke="#FF0000" fill="none" stroke-width="4px" />
<path d="M 610.0 175.0 L 620.0 175.0" stroke="#FF0000" fill="none" stroke-width="4px" />
<path d="M 620.0 175.0 L 620.0 185.0" stroke="#FF0000" fill="none" stroke-width="4px" />
<path d="M 620.0 185.0 L 610.0 185.0" stroke="#FF0000" fill="none" stroke-width="4px" />
<path d="M 610.0 185.0 L 600.0 185.0" stroke="#FF0000" fill="none" stroke-width="4px" />
<path d="M 600.0 185.0 L 590.0 185.0" stroke="#FF0000" fill="none" stroke-width="4px" />
<path d="M 590.0 185.0 L 580.0 185.0" stroke="#FF0000" fill="none" stroke-width="4px" />
<path d="M 580.0 185.0 L 570.0 185.0" stroke="#FF0000" fill="none" stroke-width="4px" />
<path d="M 570.0 185.0 L 580.0 195.0" stroke="#FF0000" fill="none" stroke-width="4px" />
<path d="M 580.0 195.0 L 590.0 195.0" stroke="#FF0000" fill="none" stroke-width="4px" />
<path d="M 590.0 195.0 L 600.0 195.0" stroke="#FF0000" fill="none" stroke-width="4px" />
<path d="M 600.0 195.0 L 610.0 195.0" stroke="#FF0000" fill="none" stroke-width="4px" />
<path d="M 610.0 195.0 L 600.0 205.0" stroke="#FF0000" fill="none" stroke-width="4px" />
<path d="M 600.0 205.0 L 590.0 205.0" stroke="#FF0000" fill="none" stroke-width="4px" />
<path d="M 590.0 145.0 L 580.0 145.0" stroke="#FF0000" fill="none" stroke-width="4px" />
<path d="M 580.0 145.0 L 570.0 145.0" stroke="#FF0000" fill="none" stroke-width="4px" />
<path d="M 570.0 145.0 L 560.0 145.0" stroke="#FF0000" fill="none" stroke-width="4px" />
<path d="M 560.0 145.0 L 570.0 135.0" stroke="#FF0000" fill="none" stroke-width="4px" />
<path d="M 570.0 135.0 L 580.0 135.0" stroke="#FF0000" fill="none" stroke-width="4px" />
<path d="M 580.0 135.0 L 590.0 135.0" stroke="#FF0000" fill="none" stroke-width="4px" />
<path d="M 590.0 135.0 L 600.0 135.0" stroke="#FF0000" fill="none" stroke-width="4px" />
<path d="M 600.0 135.0 L 610.0 135.0" stroke="#FF0000" fill="none" stroke-width="4px" />
<path d="M 610.0 135.0 L 610.0 145.0" stroke="#FF0000" fill="none" stroke-width="4px" />
<path d="M 610.0 145.0 L 600.0 145.0" stroke="#FF0000" fill="none" stroke-width="4px" />
<path d="M 600.0 145.0 L 620.0 145.0" stroke="#FF0000" fill="none" stroke-width="4px" />
<path d="M 540.0 75.0 L 540.0 65.0" stroke="#FF0000" fill="none" stroke-width="4px" />
<path d="M 540.0 65.0 L 530.0 65.0" stroke="#FF0000" fill="none" stroke-width="4px" />
<path d="M 530.0 65.0 L 530.0 55.0" stroke="#FF0000" fill="none" stroke-width="4px" />
<path d="M 530.0 55.0 L 520.0 55.0" stroke="#FF0000" fill="none" stroke-width="4px" />
<path d="M 520.0 55.0 L 520.0 45.0" stroke="#FF0000" fill="none" stroke-width="4px" />
<path d="M 520.0 45.0 L 530.0 45.0" stroke="#FF0000" fill="none" stroke-width="4px" />
<path d="M 530.0 45.0 L 540.0 45.0" stroke="#FF0000" fill="none" stroke-width="4px" />
<path d="M 540.0 45.0 L 550.0 45.0" stroke="#FF0000" fill="none" stroke-width="4px" />
<path d="M 550.0 45.0 L 560.0 45.0" stroke="#FF0000" fill="none" stroke-width="4px" />
<path d="M 560.0 45.0 L 560.0 55.0" stroke="#FF0000" fill="none" stroke-width="4px" />
<path d="M 560.0 55.0 L 550.0 55.0" stroke="#FF0000" fill="none" stroke-width="4px" />
<path d="M 550.0 55.0 L 540.0 55.0" stroke="#FF0000" fill="none" stroke-width="4px" />
<path d="M 540.0 55.0 L 550.0 65.0" stroke="#FF0000" fill="none" stroke-width="4px" />
<path d="M 550.0 35.0 L 540.0 35.0" stroke="#FF0000" fill="none" stroke-width="4px" />
<path d="M 540.0 35.0 L 530.0 35.0" stroke="#FF0000" fill="none" stroke-width="4px" />
<path d="M 530.0 35.0 L 520.0 35.0" stroke="#FF0000" fill="none" stroke-width="4px" />
<path d="M 520.0 35.0 L 520.0 25.0" stroke="#FF0000" fill="none" stroke-width="4px" />
<path d="M 520.0 25.0 L 530.0 25.0" stroke="#FF0000" fill="none" stroke-width="4px" />
<path d="M 530.0 25.0 L 540.0 25.0" stroke="#FF0000" fill="none" stroke-width="4px" />
<path d="M 540.0 25.0 L 550.0 25.0" stroke="#FF0000" fill="none" stroke-width="4px" />
<path d="M 790.0 125.0 L 800.0 125.0" stroke="#FF0000" fill="none" stroke-width="4px" />
<path d="M 800.0 125.0 L 810.0 125.0" stroke="#FF0000" fill="none" stroke-width="4px" />
<path d="M 810.0 125.0 L 820.0 125.0" stroke="#FF0000" fill="none" stroke-width="4px" />
<path d="M 820.0 125.0 L 830.0 125.0" stroke="#FF0000" fill="none" stroke-width="4px" />
<path d="M 830.0 125.0 L 830.0 135.0" stroke="#FF0000" fill="none" stroke-width="4px" />
<path d="M 830.0 135.0 L 820.0 135.0" stroke="#FF0000" fill="none" stroke-width="4px" />
<path d="M 820.0 135.0 L 810.0 135.0" stroke="#FF0000" fill="none" stroke-width="4px" />
<path d="M 810.0 135.0 L 800.0 135.0" stroke="#FF0000" fill="none" stroke-width="4px" />
<path d="M 800.0 135.0 L 790.0 135.0" stroke="#FF0000" fill="none" stroke-width="4px" />
<path d="M 790.0 135.0 L 800.0 145.0" stroke="#FF0000" fill="none" stroke-width="4px" />
<path d="M 800.0 145.0 L 810.0 145.0" stroke="#FF0000" fill="none" stroke-width="4px" />
<path d="M 810.0 145.0 L 820.0 145.0" stroke="#FF0000" fill="none" stroke-width="4px" />
<path d="M 820.0 145.0 L 810.0 155.0" stroke="#FF0000" fill="none" stroke-width="4px" />
<path d="M 810.0 115.0 L 800.0 115.0" stroke="#FF0000" fill="none" stroke-width="4px" />
<path d="M 800.0 115.0 L 810.0 105.0" stroke="#FF0000" fill="none" stroke-width="4px" />
<path d="M 810.0 105.0 L 820.0 105.0" stroke="#FF0000" fill="none" stroke-width="4px" />
<path d="M 820.0 105.0 L 820.0 115.0" stroke="#FF0000" fill="none" stroke-width="4px" />
<path d="M 820.0 115.0 L 830.0 115.0" stroke="#FF0000" fill="none" stroke-width="4px" />
<path d="M 1150.0 155.0 L 1160.0 155.0" stroke="#FF0000" fill="none" stroke-width="4px" />
<path d="M 1160.0 155.0 L 1170.0 155.0" stroke="#FF0000" fill="none" stroke-width="4px" />
<path d="M 1170.0 155.0 L 1180.0 155.0" stroke="#FF0000" fill="none" stroke-width="4px" />
<path d="M 1180.0 155.0 L 1190.0 155.0" stroke="#FF0000" fill="none" stroke-width="4px" />
<path d="M 1190.0 155.0 L 1190.0 165.0" stroke="#FF0000" fill="none" stroke-width="4px" />
<path d="M 1190.0 165.0 L 1180.0 165.0" stroke="#FF0000" fill="none" stroke-width="4px" />
<path d="M 1180.0 165.0 L 1170.0 165.0" stroke="#FF0000" fill="none" stroke-width="4px" />
<path d="M 1170.0 165.0 L 1160.0 165.0" stroke="#FF0000" fill="none" stroke-width="4px" />
<path d="M 1160.0 165.0 L 1170.0 175.0" stroke="#FF0000" fill="none" stroke-width="4px" />
<path d="M 1170.0 175.0 L 1180.0 175.0" stroke="#FF0000" fill="none" stroke-width="4px" />
<path d="M 1180.0 145.0 L 1170.0 145.0" stroke="#FF0000" fill="none" stroke-width="4px" />
<path d="M 1170.0 145.0 L 1160.0 145.0" stroke="#FF0000" fill="none" stroke-width="4px" />
<path d="M 1160.0 145.0 L 1170.0 135.0" stroke="#FF0000" fill="none" stroke-width="4px" />
<path d="M 1570.0 195.0 L 1580.0 195.0" stroke="#FF0000" fill="none" stroke-width="4px" />
<path d="M 1580.0 195.0 L 1590.0 195.0" stroke="#FF0000" fill="none" stroke-width="4px" />
<path d="M 1590.0 195.0 L 1600.0 195.0" stroke="#FF0000" fill="none" stroke-width="4px" />
<path d="M 1600.0 195.0 L 1610.0 195.0" stroke="#FF0000" fill="none" stroke-width="4px" />
<path d="M 1610.0 195.0 L 1620.0 195.0" stroke="#FF0000" fill="none" stroke-width="4px" />
<path d="M 1620.0 195.0 L 1630.0 195.0" stroke="#FF0000" fill="none" stroke-width="4px" />
<path d="M 1630.0 195.0 L 1640.0 195.0" stroke="#FF0000" fill="none" stroke-width="4px" />
<path d="M 1640.0 195.0 L 1650.0 195.0" stroke="#FF0000" fill="none" stroke-width="4px" />
<path d="M 1650.0 195.0 L 1660.0 195.0" stroke="#FF0000" fill="none" stroke-width="4px" />
<path d="M 1660.0 195.0 L 1670.0 195.0" stroke="#FF0000" fill="none" stroke-width="4px" />
<path d="M 1670.0 195.0 L 1680.0 195.0" stroke="#FF0000" fill="none" stroke-width="4px" />
<path d="M 1680.0 195.0 L 1690.0 195.0" stroke="#FF0000" fill="none" stroke-width="4px" />
<path d="M 1690.0 195.0 L 1700.0 195.0" stroke="#FF0000" fill="none" stroke-width="4px" />
<path d="M 1700.0 195.0 L 1700.0 205.0" stroke="#FF0000" fill="none" stroke-width="4px" />
<path d="M 1700.0 205.0 L 1690.0 205.0" stroke="#FF0000" fill="none" stroke-width="4px" />
<path d="M 1690.0 205.0 L 1680.0 205.0" stroke="#FF0000" fill="none" stroke-width="4px" />
<path d="M 1680.0 205.0 L 1670.0 205.0" stroke="#FF0000" fill="none" stroke-width="4px" />
<path d="M 1670.0 205.0 L 1660.0 205.0" stroke="#FF0000" fill="none" stroke-width="4px" />
<path d="M 1660.0 205.0 L 1650.0 205.0" stroke="#FF0000" fill="none" stroke-width="4px" />
<path d="M 1650.0 205.0 L 1640.0 205.0" stroke="#FF0000" fill="none" stroke-width="4px" />
<path d="M 1640.0 205.0 L 1630.0 205.0" stroke="#FF0000" fill="none" stroke-width="4px" />
<path d="M 1630.0 205.0 L 1620.0 205.0" stroke="#FF0000" fill="none" stroke-width="4px" />
<path d="M 1620.0 205.0 L 1610.0 205.0" stroke="#FF0000" fill="none" stroke-width="4px" />
<path d="M 1610.0 205.0 L 1600.0 205.0" stroke="#FF0000" fill="none" stroke-width="4px" />
<path d="M 1600.0 205.0 L 1590.0 205.0" stroke="#FF0000" fill="none" stroke-width="4px" />
<path d="M 1590.0 205.0 L 1580.0 205.0" stroke="#FF0000" fill="none" stroke-width="4px" />
<path d="M 1580.0 205.0 L 1570.0 205.0" stroke="#FF0000" fill="none" stroke-width="4px" />
<path d="M 1570.0 205.0 L 1580.0 215.0" stroke="#FF0000" fill="none" stroke-width="4px" />
<path d="M 1580.0 215.0 L 1590.0 215.0" stroke="#FF0000" fill="none" stroke-width="4px" />
<path d="M 1590.0 215.0 L 1600.0 215.0" stroke="#FF0000" fill="none" stroke-width="4px" />
<path d="M 1600.0 215.0 L 1610.0 215.0" stroke="#FF0000" fill="none" stroke-width="4px" />
<path d="M 1610.0 215.0 L 1620.0 215.0" stroke="#FF0000" fill="none" stroke-width="4px" />
<path d="M 1620.0 215.0 L 1630.0 215.0" stroke="#FF0000" fill="none" stroke-width="4px" />
<path d="M 1630.0 215.0 L 1640.0 215.0" stroke="#FF0000" fill="none" stroke-width="4px" />
<path d="M 1640.0 215.0 L 1650.0 215.0" stroke="#FF0000" fill="none" stroke-width="4px" />
<path d="M 1650.0 215.0 L 1660.0 215.0" stroke="#FF0000" fill="none" stroke-width="4px" />
<path d="M 1660.0 215.0 L 1670.0 215.0" stroke="#FF0000" fill="none" stroke-width="4px" />
<path d="M 1670.0 215.0 L 1680.0 215.0" stroke="#FF0000" fill="none" stroke-width="4px" />
<path d="M 1680.0 215.0 L 1690.0 215.0" stroke="#FF0000" fill="none" stroke-width="4px" />
<path d="M 1690.0 215.0 L 1700.0 215.0" stroke="#FF0000" fill="none" stroke-width="4px" />
<path d="M 1700.0 215.0 L 1690.0 225.0" stroke="#FF0000" fill="none" stroke-width="4px" />
<path d="M 1690.0 225.0 L 1680.0 225.0" stroke="#FF0000" fill="none" stroke-width="4px" />
<path d="M 1680.0 225.0 L 1670.0 225.0" stroke="#FF0000" fill="none" stroke-width="4px" />
<path d="M 1670.0 185.0 L 1660.0 185.0" stroke="#FF0000" fill="none" stroke-width="4px" />
<path d="M 1660.0 185.0 L 1650.0 185.0" stroke="#FF0000" fill="none" stroke-width="4px" />
<path d="M 1650.0 185.0 L 1640.0 185.0" stroke="#FF0000" fill="none" stroke-width="4px" />
<path d="M 1640.0 185.0 L 1630.0 185.0" stroke="#FF0000" fill="none" stroke-width="4px" />
<path d="M 1630.0 185.0 L 1620.0 185.0" stroke="#FF0000" fill="none" stroke-width="4px" />
<path d="M 1620.0 185.0 L 1610.0 185.0" stroke="#FF0000" fill="none" stroke-width="4px" />
<path d="M 1610.0 185.0 L 1600.0 185.0" stroke="#FF0000" fill="none" stroke-width="4px" />
<path d="M 1600.0 185.0 L 1590.0 185.0" stroke="#FF0000" fill="none" stroke-width="4px" />
<path d="M 1590.0 185.0 L 1580.0 185.0" stroke="#FF0000" fill="none" stroke-width="4px" />
<path d="M 1580.0 185.0 L 1590.0 175.0" stroke="#FF0000" fill="none" stroke-width="4px" />
<path d="M 1590.0 175.0 L 1600.0 175.0" stroke="#FF0000" fill="none" stroke-width="4px" />
<path d="M 1600.0 175.0 L 1610.0 175.0" stroke="#FF0000" fill="none" stroke-width="4px" />
<path d="M 1610.0 175.0 L 1620.0 175.0" stroke="#FF0000" fill="none" stroke-width="4px" />
<path d="M 1620.0 175.0 L 1630.0 175.0" stroke="#FF0000" fill="none" stroke-width="4px" />
<path d="M 1630.0 175.0 L 1640.0 175.0" stroke="#FF0000" fill="none" stroke-width="4px" />
<path d="M 1640.0 175.0 L 1650.0 175.0" stroke="#FF0000" fill="none" stroke-width="4px" />
<path d="M 1650.0 175.0 L 1640.0 165.0" stroke="#FF0000" fill="none" stroke-width="4px" />
<path d="M 1640.0 165.0 L 1630.0 165.0" stroke="#FF0000" fill="none" stroke-width="4px" />
<path d="M 1630.0 165.0 L 1620.0 165.0" stroke="#FF0000" fill="none" stroke-width="4px" />
<path d="M 1650.0 155.0 L 1660.0 155.0" stroke="#FF0000" fill="none" stroke-width="4px" />
<path d="M 1660.0 155.0 L 1670.0 155.0" stroke="#FF0000" fill="none" stroke-width="4px" />
<path d="M 1670.0 155.0 L 1670.0 145.0" stroke="#FF0000" fill="none" stroke-width="4px" />
<path d="M 1670.0 145.0 L 1660.0 145.0" stroke="#FF0000" fill="none" stroke-width="4px" />
<path d="M 1660.0 145.0 L 1650.0 145.0" stroke="#FF0000" fill="none" stroke-width="4px" />
<path d="M 1650.0 145.0 L 1640.0 145.0" stroke="#FF0000" fill="none" stroke-width="4px" />
<path d="M 1640.0 145.0 L 1640.0 135.0" stroke="#FF0000" fill="none" stroke-width="4px" />
<path d="M 1640.0 135.0 L 1650.0 135.0" stroke="#FF0000" fill="none" stroke-width="4px" />
<path d="M 1650.0 135.0 L 1660.0 135.0" stroke="#FF0000" fill="none" stroke-width="4px" />
<path d="M 1660.0 135.0 L 1670.0 135.0" stroke="#FF0000" fill="none" stroke-width="4px" />
<path d="M 1670.0 135.0 L 1660.0 125.0" stroke="#FF0000" fill="none" stroke-width="4px" />
<path d="M 1660.0 125.0 L 1650.0 125.0" stroke="#FF0000" fill="none" stroke-width="4px" />
<path d="M 1700.0 145.0 L 1710.0 145.0" stroke="#FF0000" fill="none" stroke-width="4px" />
<path d="M 1710.0 145.0 L 1720.0 145.0" stroke="#FF0000" fill="none" stroke-width="4px" />
<path d="M 1720.0 145.0 L 1730.0 145.0" stroke="#FF0000" fill="none" stroke-width="4px" />
<path d="M 1730.0 145.0 L 1730.0 155.0" stroke="#FF0000" fill="none" stroke-width="4px" />
<path d="M 1730.0 155.0 L 1720.0 155.0" stroke="#FF0000" fill="none" stroke-width="4px" />
<path d="M 1720.0 155.0 L 1710.0 155.0" stroke="#FF0000" fill="none" stroke-width="4px" />
<path d="M 1710.0 155.0 L 1700.0 155.0" stroke="#FF0000" fill="none" stroke-width="4px" />
<path d="M 1700.0 155.0 L 1690.0 155.0" stroke="#FF0000" fill="none" stroke-width="4px" />
<path d="M 1690.0 155.0 L 1690.0 165.0" stroke="#FF0000" fill="none" stroke-width="4px" />
<path d="M 1690.0 165.0 L 1700.0 165.0" stroke="#FF0000" fill="none" stroke-width="4px" />
<path d="M 1700.0 165.0 L 1710.0 165.0" stroke="#FF0000" fill="none" stroke-width="4px" />
<path d="M 1710.0 165.0 L 1720.0 165.0" stroke="#FF0000" fill="none" stroke-width="4px" />
<path d="M 1720.0 165.0 L 1730.0 165.0" stroke="#FF0000" fill="none" stroke-width="4px" />
<path d="M 1730.0 165.0 L 1720.0 175.0" stroke="#FF0000" fill="none" stroke-width="4px" />
<path d="M 1720.0 175.0 L 1710.0 175.0" stroke="#FF0000" fill="none" stroke-width="4px" />
<path d="M 1710.0 175.0 L 1700.0 175.0" stroke="#FF0000" fill="none" stroke-width="4px" />
<path d="M 1700.0 175.0 L 1690.0 175.0" stroke="#FF0000" fill="none" stroke-width="4px" />
<path d="M 1690.0 175.0 L 1680.0 175.0" stroke="#FF0000" fill="none" stroke-width="4px" />
<path d="M 1680.0 175.0 L 1680.0 185.0" stroke="#FF0000" fill="none" stroke-width="4px" />
<path d="M 1680.0 185.0 L 1690.0 185.0" stroke="#FF0000" fill="none" stroke-width="4px" />
<path d="M 1690.0 185.0 L 1700.0 185.0" stroke="#FF0000" fill="none" stroke-width="4px" />
<path d="M 1700.0 185.0 L 1710.0 185.0" stroke="#FF0000" fill="none" stroke-width="4px" />
<path d="M 1720.0 135.0 L 1730.0 135.0" stroke="#FF0000" fill="none" stroke-width="4px" />
<path d="M 1730.0 135.0 L 1740.0 135.0" stroke="#FF0000" fill="none" stroke-width="4px" />
<path d="M 1740.0 135.0 L 1750.0 135.0" stroke="#FF0000" fill="none" stroke-width="4px" />
<path d="M 1750.0 135.0 L 1750.0 125.0" stroke="#FF0000" fill="none" stroke-width="4px" />
<path d="M 1750.0 125.0 L 1740.0 125.0" stroke="#FF0000" fill="none" stroke-width="4px" />
<path d="M 1740.0 125.0 L 1730.0 125.0" stroke="#FF0000" fill="none" stroke-width="4px" />
<path d="M 1730.0 125.0 L 1720.0 125.0" stroke="#FF0000" fill="none" stroke-width="4px" />
<path d="M 1720.0 125.0 L 1710.0 125.0" stroke="#FF0000" fill="none" stroke-width="4px" />
<path d="M 1710.0 125.0 L 1710.0 115.0" stroke="#FF0000" fill="none" stroke-width="4px" />
<path d="M 1710.0 115.0 L 1720.0 115.0" stroke="#FF0000" fill="none" stroke-width="4px" />
<path d="M 1720.0 115.0 L 1730.0 115.0" stroke="#FF0000" fill="none" stroke-width="4px" />
<path d="M 1730.0 115.0 L 1740.0 115.0" stroke="#FF0000" fill="none" stroke-width="4px" />
<path d="M 1740.0 115.0 L 1750.0 115.0" stroke="#FF0000" fill="none" stroke-width="4px" />
<path d="M 1750.0 115.0 L 1760.0 115.0" stroke="#FF0000" fill="none" stroke-width="4px" />
<path d="M 1760.0 115.0 L 1760.0 125.0" stroke="#FF0000" fill="none" stroke-width="4px" />
<path d="M 1760.0 105.0 L 1750.0 105.0" stroke="#FF0000" fill="none" stroke-width="4px" />
<path d="M 1750.0 105.0 L 1740.0 105.0" stroke="#FF0000" fill="none" stroke-width="4px" />
<path d="M 1740.0 105.0 L 1730.0 105.0" stroke="#FF0000" fill="none" stroke-width="4px" />
<path d="M 1730.0 105.0 L 1720.0 105.0" stroke="#FF0000" fill="none" stroke-width="4px" />
<path d="M 1720.0 105.0 L 1710.0 105.0" stroke="#FF0000" fill="none" stroke-width="4px" />
<path d="M 1710.0 105.0 L 1710.0 95.0" stroke="#FF0000" fill="none" stroke-width="4px" />
<path d="M 1710.0 95.0 L 1700.0 95.0" stroke="#FF0000" fill="none" stroke-width="4px" />
<path d="M 1700.0 95.0 L 1700.0 85.0" stroke="#FF0000" fill="none" stroke-width="4px" />
<path d="M 1700.0 85.0 L 1690.0 85.0" stroke="#FF0000" fill="none" stroke-width="4px" />
<path d="M 1690.0 85.0 L 1690.0 75.0" stroke="#FF0000" fill="none" stroke-width="4px" />
<path d="M 1690.0 75.0 L 1680.0 75.0" stroke="#FF0000" fill="none" stroke-width="4px" />
<path d="M 1680.0 75.0 L 1680.0 65.0" stroke="#FF0000" fill="none" stroke-width="4px" />
<path d="M 1680.0 65.0 L 1690.0 65.0" stroke="#FF0000" fill="none" stroke-width="4px" />
<path d="M 1690.0 65.0 L 1700.0 65.0" stroke="#FF0000" fill="none" stroke-width="4px" />
<path d="M 1700.0 65.0 L 1710.0 65.0" stroke="#FF0000" fill="none" stroke-width="4px" />
<path d="M 1710.0 65.0 L 1720.0 65.0" stroke="#FF0000" fill="none" stroke-width="4px" />
<path d="M 1720.0 65.0 L 1730.0 65.0" stroke="#FF0000" fill="none" stroke-width="4px" />
<path d="M 1730.0 65.0 L 1730.0 75.0" stroke="#FF0000" fill="none" stroke-width="4px" />
<path d="M 1730.0 75.0 L 1720.0 75.0" stroke="#FF0000" fill="none" stroke-width="4px" />
<path d="M 1720.0 75.0 L 1710.0 75.0" stroke="#FF0000" fill="none" stroke-width="4px" />
<path d="M 1710.0 75.0 L 1700.0 75.0" stroke="#FF0000" fill="none" stroke-width="4px" />
<path d="M 1700.0 75.0 L 1710.0 85.0" stroke="#FF0000" fill="none" stroke-width="4px" />
<path d="M 1710.0 85.0 L 1720.0 85.0" stroke="#FF0000" fill="none" stroke-width="4px" />
<path d="M 1720.0 85.0 L 1730.0 85.0" stroke="#FF0000" fill="none" stroke-width="4px" />
<path d="M 1730.0 85.0 L 1740.0 85.0" stroke="#FF0000" fill="none" stroke-width="4px" />
<path d="M 1740.0 85.0 L 1750.0 85.0" stroke="#FF0000" fill="none" stroke-width="4px" />
<path d="M 1750.0 85.0 L 1750.0 95.0" stroke="#FF0000" fill="none" stroke-width="4px" />
<path d="M 1750.0 95.0 L 1740.0 95.0" stroke="#FF0000" fill="none" stroke-width="4px" />
<path d="M 1740.0 95.0 L 1730.0 95.0" stroke="#FF0000" fill="none" stroke-width="4px" />
<path d="M 1730.0 95.0 L 1720.0 95.0" stroke="#FF0000" fill="none" stroke-width="4px" />
<path d="M 1730.0 55.0 L 1720.0 55.0" stroke="#FF0000" fill="none" stroke-width="4px" />
<path d="M 1720.0 55.0 L 1710.0 55.0" stroke="#FF0000" fill="none" stroke-width="4px" />
<path d="M 1710.0 55.0 L 1700.0 55.0" stroke="#FF0000" fill="none" stroke-width="4px" />
<path d="M 1700.0 55.0 L 1690.0 55.0" stroke="#FF0000" fill="none" stroke-width="4px" />
<path d="M 1690.0 55.0 L 1680.0 55.0" stroke="#FF0000" fill="none" stroke-width="4px" />
<path d="M 1680.0 55.0 L 1670.0 55.0" stroke="#FF0000" fill="none" stroke-width="4px" />
<path d="M 1670.0 55.0 L 1670.0 45.0" stroke="#FF0000" fill="none" stroke-width="4px" />
<path d="M 1670.0 45.0 L 1680.0 45.0" stroke="#FF0000" fill="none" stroke-width="4px" />
<path d="M 1680.0 45.0 L 1690.0 45.0" stroke="#FF0000" fill="none" stroke-width="4px" />
<path d="M 1690.0 45.0 L 1700.0 45.0" stroke="#FF0000" fill="none" stroke-width="4px" />
<path d="M 1700.0 45.0 L 1710.0 45.0" stroke="#FF0000" fill="none" stroke-width="4px" />
<path d="M 1710.0 45.0 L 1720.0 45.0" stroke="#FF0000" fill="none" stroke-width="4px" />
<path d="M 1720.0 45.0 L 1730.0 45.0" stroke="#FF0000" fill="none" stroke-width="4px" />
<path d="M 1730.0 45.0 L 1720.0 35.0" stroke="#FF0000" fill="none" stroke-width="4px" />
<path d="M 1720.0 35.0 L 1710.0 35.0" stroke="#FF0000" fill="none" stroke-width="4px" />
<path d="M 1710.0 35.0 L 1700.0 35.0" stroke="#FF0000" fill="none" stroke-width="4px" />
<path d="M 1700.0 35.0 L 1690.0 35.0" stroke="#FF0000" fill="none" stroke-width="4px" />
<path d="M 1690.0 35.0 L 1680.0 35.0" stroke="#FF0000" fill="none" stroke-width="4px" />
<path d="M 1680.0 35.0 L 1670.0 35.0" stroke="#FF0000" fill="none" stroke-width="4px" />
<path d="M 1670.0 35.0 L 1680.0 25.0" stroke="#FF0000" fill="none" stroke-width="4px" />
<path d="M 1680.0 25.0 L 1690.0 25.0" stroke="#FF0000" fill="none" stroke-width="4px" />
<path d="M 1650.0 45.0 L 1640.0 45.0" stroke="#FF0000" fill="none" stroke-width="4px" />
<path d="M 1640.0 45.0 L 1630.0 45.0" stroke="#FF0000" fill="none" stroke-width="4px" />
<path d="M 1630.0 45.0 L 1620.0 45.0" stroke="#FF0000" fill="none" stroke-width="4px" />
<path d="M 1620.0 45.0 L 1610.0 45.0" stroke="#FF0000" fill="none" stroke-width="4px" />
<path d="M 1610.0 45.0 L 1600.0 45.0" stroke="#FF0000" fill="none" stroke-width="4px" />
<path d="M 1600.0 45.0 L 1590.0 45.0" stroke="#FF0000" fill="none" stroke-width="4px" />
<path d="M 1590.0 45.0 L 1580.0 45.0" stroke="#FF0000" fill="none" stroke-width="4px" />
<path d="M 1580.0 45.0 L 1580.0 35.0" stroke="#FF0000" fill="none" stroke-width="4px" />
<path d="M 1580.0 35.0 L 1570.0 35.0" stroke="#FF0000" fill="none" stroke-width="4px" />
<path d="M 1570.0 35.0 L 1570.0 25.0" stroke="#FF0000" fill="none" stroke-width="4px" />
<path d="M 1570.0 25.0 L 1580.0 25.0" stroke="#FF0000" fill="none" stroke-width="4px" />
<path d="M 1580.0 25.0 L 1590.0 25.0" stroke="#FF0000" fill="none" stroke-width="4px" />
<path d="M 1590.0 25.0 L 1600.0 25.0" stroke="#FF0000" fill="none" stroke-width="4px" />
<path d="M 1600.0 25.0 L 1610.0 25.0" stroke="#FF0000" fill="none" stroke-width="4px" />
<path d="M 1610.0 25.0 L 1620.0 25.0" stroke="#FF0000" fill="none" stroke-width="4px" />
<path d="M 1620.0 25.0 L 1620.0 35.0" stroke="#FF0000" fill="none" stroke-width="4px" />
<path d="M 1620.0 35.0 L 1610.0 35.0" stroke="#FF0000" fill="none" stroke-width="4px" />
<path d="M 1610.0 35.0 L 1600.0 35.0" stroke="#FF0000" fill="none" stroke-width="4px" />
<path d="M 1600.0 35.0 L 1590.0 35.0" stroke="#FF0000" fill="none" stroke-width="4px" />
<path d="M 1590.0 55.0 L 1600.0 55.0" stroke="#FF0000" fill="none" stroke-width="4px" />
<path d="M 1600.0 55.0 L 1610.0 55.0" stroke="#FF0000" fill="none" stroke-width="4px" />
<path d="M 1610.0 55.0 L 1620.0 55.0" stroke="#FF0000" fill="none" stroke-width="4px" />
<path d="M 1620.0 55.0 L 1630.0 55.0" stroke="#FF0000" fill="none" stroke-width="4px" />
<path d="M 1630.0 55.0 L 1640.0 55.0" stroke="#FF0000" fill="none" stroke-width="4px" />
<path d="M 1640.0 55.0 L 1650.0 55.0" stroke="#FF0000" fill="none" stroke-width="4px" />
<path d="M 1650.0 55.0 L 1650.0 65.0" stroke="#FF0000" fill="none" stroke-width="4px" />
<path d="M 1650.0 65.0 L 1640.0 65.0" stroke="#FF0000" fill="none" stroke-width="4px" />
<path d="M 1640.0 65.0 L 1630.0 65.0" stroke="#FF0000" fill="none" stroke-width="4px" />
<path d="M 1630.0 65.0 L 1620.0 65.0" stroke="#FF0000" fill="none" stroke-width="4px" />
<path d="M 1620.0 65.0 L 1610.0 65.0" stroke="#FF0000" fill="none" stroke-width="4px" />
<path d="M 1610.0 65.0 L 1620.0 75.0" stroke="#FF0000" fill="none" stroke-width="4px" />
<path d="M 1620.0 75.0 L 1630.0 75.0" stroke="#FF0000" fill="none" stroke-width="4px" />
<path d="M 1630.0 75.0 L 1640.0 75.0" stroke="#FF0000" fill="none" stroke-width="4px" />
<path d="M 1640.0 35.0 L 1630.0 35.0" stroke="#FF0000" fill="none" stroke-width="4px" />
<path d="M 1620.0 15.0 L 1610.0 15.0" stroke="#FF0000" fill="none" stroke-width="4px" />
<path d="M 1610.0 15.0 L 1600.0 15.0" stroke="#FF0000" fill="none" stroke-width="4px" />
<path d="M 1600.0 15.0 L 1590.0 15.0" stroke="#FF0000" fill="none" stroke-width="4px" />
<path d="M 1590.0 15.0 L 1580.0 15.0" stroke="#FF0000" fill="none" stroke-width="4px" />
<path d="M 1580.0 15.0 L 1570.0 15.0" stroke="#FF0000" fill="none" stroke-width="4px" />
<path d="M 1570.0 15.0 L 1570.0 5.0" stroke="#FF0000" fill="none" stroke-width="4px" />
<path d="M 1570.0 5.0 L 1580.0 5.0" stroke="#FF0000" fill="none" stroke-width="4px" />
<path d="M 1580.0 5.0 L 1590.0 5.0" stroke="#FF0000" fill="none" stroke-width="4px" />
<path d="M 1590.0 5.0 L 1600.0 5.0" stroke="#FF0000" fill="none" stroke-width="4px" />
<path d="M 1600.0 5.0 L 1610.0 5.0" stroke="#FF0000" fill="none" stroke-width="4px" />
<path d="M 1610.0 5.0 L 1620.0 5.0" stroke="#FF0000" fill="none" stroke-width="4px" />
<path d="M 1620.0 5.0 L 1610.0 -5.0" stroke="#FF0000" fill="none" stroke-width="4px" />
<path d="M 1610.0 -5.0 L 1600.0 -5.0" stroke="#FF0000" fill="none" stroke-width="4px" />
<path d="M 1600.0 -5.0 L 1590.0 -5.0" stroke="#FF0000" fill="none" stroke-width="4px" />
<path d="M 1590.0 -5.0 L 1580.0 -5.0" stroke="#FF0000" fill="none" stroke-width="4px" />
</svg>