<svg width="2472.26666667" height="235.0" xmlns="http://www.w3.org/2000/svg" version="1.1">
<path d="M 0.0 235.0 L 1985.0 235.0 L 1985.0 0.0 L 0.0 0.0 L 0.0 235.0" stroke="#000000" fill="none" stroke-width="3px" />
<path d="M 2472.26666667 235.0 L 1885.0 235.0 L 1885.0 0.0 L 2472.26666667 0.0 L 2472.26666667 235.0" stroke="#000000" fill="none" stroke-width="3px" />
<path d="M 10.0 257.5 L 0.0 247.5 L 10.0 237.5" stroke="#969696" fill="none" stroke-width="1px" />
<path d="M 10.0 237.5 L 1975.0 237.5" stroke="#969696" fill="none" stroke-width="1px" />
<path d="M 1975.0 237.5 L 1985.0 227.5 L 1975.0 217.5" stroke="#969696" fill="none" stroke-width="1px" />
<path d="M 1975.0 217.5 L 10.0 217.5" stroke="#969696" fill="none" stroke-width="1px" />
<path d="M 10.0 217.5 L 0.0 207.5 L 10.0 197.5" stroke="#969696" fill="none" stroke-width="1px" />
<path d="M 10.0 197.5 L 1975.0 197.5" stroke="#969696" fill="none" stroke-width="1px" />
<path d="M 1975.0 197.5 L 1985.0 187.5 L 1975.0 177.5" stroke="#969696" fill="none" stroke-width="1px" />
<path d="M 1975.0 177.5 L 10.0 177.5" stroke="#969696" fill="none" stroke-width="1px" />
<path d="M 10.0 177.5 L 0.0 167.5 L 10.0 157.5" stroke="#969696" fill="none" stroke-width="1px" />
<path d="M 10.0 157.5 L 1975.0 157.5" stroke="#969696" fill="none" stroke-width="1px" />
<path d="M 1975.0 157.5 L 1985.0 147.5 L 1975.0 137.5" stroke="#969696" fill="none" stroke-width="1px" />
<path d="M 1975.0 137.5 L 10.0 137.5" stroke="#969696" fill="none" stroke-width="1px" />
<path d="M 10.0 137.5 L 0.0 127.5 L 10.0 117.5" stroke="#969696" fill="none" stroke-width="1px" />
<path d="M 10.0 117.5 L 1975.0 117.5" stroke="#969696" fill="none" stroke-width="1px" />
<path d="M 1975.0 117.5 L 1985.0 107.5 L 1975.0 97.5" stroke="#969696" fill="none" stroke-width="1px" />
<path d="M 1975.0 97.5 L 10.0 97.5" stroke="#969696" fill="none" stroke-width="1px" />
<path d="M 10.0 97.5 L 0.0 87.5 L 10.0 77.5" stroke="#969696" fill="none" stroke-width="1px" />
<path d="M 10.0 77.5 L 1975.0 77.5" stroke="#969696" fill="none" stroke-width="1px" />
<path d="M 1975.0 77.5 L 1985.0 67.5 L 1975.0 57.5" stroke="#969696" fill="none" stroke-width="1px" />
<path d="M 1975.0 57.5 L 10.0 57.5" stroke="#969696" fill="none" stroke-width="1px" />
<path d="M 10.0 57.5 L 0.0 47.5 L 10.0 37.5" stroke="#969696" fill="none" stroke-width="1px" />
<path d="M 10.0 37.5 L 1975.0 37.5" stroke="#969696" fill="none" stroke-width="1px" />
<path d="M 1975.0 37.5 L 1985.0 27.5 L 1975.0 17.5" stroke="#969696" fill="none" stroke-width="1px" />
<path d="M 1975.0 17.5 L 10.0 17.5" stroke="#969696" fill="none" stroke-width="1px" />
<path d="M 10.0 17.5 L 0.0 7.5 L 10.0 -2.5" stroke="#969696" fill="none" stroke-width="1px" />
<path d="M 10.0 -2.5 L 1975.0 -2.5" stroke="#969696" fill="none" stroke-width="1px" />
<path d="M 1975.0 -2.5 L 1985.0 -12.5 L 1975.0 -22.5" stroke="#969696" fill="none" stroke-width="1px" />
<path d="M 2462.26666667 257.5 L 2472.26666667 247.5 L 2462.26666667 237.5" stroke="#969696" fill="none" stroke-width="1px" />
<path d="M 2462.26666667 237.5 L 1895.0 237.5" stroke="#969696" fill="none" stroke-width="1px" />
<path d="M 1895.0 237.5 L 1885.0 227.5 L 1895.0 217.5" stroke="#969696" fill="none" stroke-width="1px" />
<path d="M 1895.0 217.5 L 2462.26666667 217.5" stroke="#969696" fill="none" stroke-width="1px" />
<path d="M 2462.26666667 217.5 L 2472.26666667 207.5 L 2462.26666667 197.5" stroke="#969696" fill="none" stroke-width="1px" />
<path d="M 2462.26666667 197.5 L 1895.0 197.5" stroke="#969696" fill="none" stroke-width="1px" />
<path d="M 1895.0 197.5 L 1885.0 187.5 L 1895.0 177.5" stroke="#969696" fill="none" stroke-width="1px" />
<path d="M 1895.0 177.5 L 2462.26666667 177.5" stroke="#969696" fill="none" stroke-width="1px" />
<path d="M 2462.26666667 177.5 L 2472.26666667 167.5 L 2462.26666667 157.5" stroke="#969696" fill="none" stroke-width="1px" />
<path d="M 2462.26666667 157.5 L 1895.0 157.5" stroke="#969696" fill="none" stroke-width="1px" />
<path d="M 1895.0 157.5 L 1885.0 147.5 L 1895.0 137.5" stroke="#969696" fill="none" stroke-width="1px" />
<path d="M 1895.0 137.5 L 2462.26666667 137.5" stroke="#969696" fill="none" stroke-width="1px" />
<path d="M 2462.26666667 137.5 L 2472.26666667 127.5 L 2462.26666667 117.5" stroke="#969696" fill="none" stroke-width="1px" />
<path d="M 2462.26666667 117.5 L 1895.0 117.5" stroke="#969696" fill="none" stroke-width="1px" />
<path d="M 1895.0 117.5 L 1885.0 107.5 L 1895.0 97.5" stroke="#969696" fill="none" stroke-width="1px" />
<path d="M 1895.0 97.5 L 2462.26666667 97.5" stroke="#969696" fill="none" stroke-width="1px" />
<path d="M 2462.26666667 97.5 L 2472.26666667 87.5 L 2462.26666667 77.5" stroke="#969696" fill="none" stroke-width="1px" />
<path d="M 2462.26666667 77.5 L 1895.0 77.5" stroke="#969696" fill="none" stroke-width="1px" />
<path d="M 1895.0 77.5 L 1885.0 67.5 L 1895.0 57.5" stroke="#969696" fill="none" stroke-width="1px" />
<path d="M 1895.0 57.5 L 2462.26666667 57.5" stroke="#969696" fill="none" stroke-width="1px" />
<path d="M 2462.26666667 57.5 L 2472.26666667 47.5 L 2462.26666667 37.5" stroke="#969696" fill="none" stroke-width="1px" />
<path d="M 2462.26666667 37.5 L 1895.0 37.5" stroke="#969696" fill="none" stroke-width="1px" />
<path d="M 1895.0 37.5 L 1885.0 27.5 L 1895.0 17.5" stroke="#969696" fill="none" stroke-width="1px" />
<path d="M 1895.0 17.5 L 2462.26666667 17.5" stroke="#969696" fill="none" stroke-width="1px" />
<path d="M 2462.26666667 17.5 L 2472.26666667 7.5 L 2462.26666667 -2.5" stroke="#969696" fill="none" stroke-width="1px" />
<path d="M 2462.26666667 -2.5 L 1895.0 -2.5" stroke="#969696" fill="none" stroke-width="1px" />
<path d="M 1895.0 -2.5 L 1885.0 -12.5 L 1895.0 -22.5" stroke="#969696" fill="none" stroke-width="1px" />
<path d="M 0.0 235.0 L 90.0 235.0" stroke="#0095FF" fill="none" stroke-width="2px" />
<path d="M 90.0 235.0 L 90.0 165.0" stroke="#0095FF" fill="none" stroke-width="2px" />
<path d="M 120.0 155.0 L 100.0 155.0" stroke="#0095FF" fill="none" stroke-width="2px" />
<path d="M 100.0 155.0 L 100.0 135.0" stroke="#0095FF" fill="none" stroke-width="2px" />
<path d="M 90.0 135.0 L 320.0 135.0" stroke="#0095FF" fill="none" stroke-width="2px" />
<path d="M 320.0 135.0 L 320.0 145.0" stroke="#0095FF" fill="none" stroke-width="2px" />
<path d="M 350.0 195.0 L 370.0 195.0" stroke="#0095FF" fill="none" stroke-width="2px" />
<path d="M 370.0 195.0 L 370.0 155.0" stroke="#0095FF" fill="none" stroke-width="2px" />
<path d="M 370.0 155.0 L 350.0 155.0" stroke="#0095FF" fill="none" stroke-width="2px" />
<path d="M 350.0 155.0 L 350.0 135.0" stroke="#0095FF" fill="none" stroke-width="2px" />
<path d="M 340.0 125.0 L 630.0 125.0" stroke="#0095FF" fill="none" stroke-width="2px" />
<path d="M 690.0 215.0 L 690.0 165.0" stroke="#0095FF" fill="none" stroke-width="2px" />
<path d="M 650.0 165.0 L 690.0 165.0" stroke="#0095FF" fill="none" stroke-width="2px" />
<path d="M 690.0 165.0 L 690.0 155.0" stroke="#0095FF" fill="none" stroke-width="2px" />
<path d="M 700.0 165.0 L 690.0 165.0" stroke="#0095FF" fill="none" stroke-width="2px" />
<path d="M 690.0 165.0 L 690.0 115.0" stroke="#0095FF" fill="none" stroke-width="2px" />
<path d="M 670.0 85.0 L 1770.0 85.0" stroke="#0095FF" fill="none" stroke-width="2px" />
<path d="M 1770.0 85.0 L 1770.0 105.0" stroke="#0095FF" fill="none" stroke-width="2px" />
<path d="M 1790.0 135.0 L 1790.0 95.0" stroke="#0095FF" fill="none" stroke-width="2px" />
<path d="M 2472.26666667 235.0 L 2460.0 235.0" stroke="#0095FF" fill="none" stroke-width="2px" />
<path d="M 2460.0 235.0 L 2460.0 215.0" stroke="#0095FF" fill="none" stroke-width="2px" />
<path d="M 2470.0 205.0 L 2460.0 205.0" stroke="#0095FF" fill="none" stroke-width="2px" />
<path d="M 2460.0 205.0 L 2460.0 175.0" stroke="#0095FF" fill="none" stroke-width="2px" />
<path d="M 2450.0 165.0 L 2430.0 165.0" stroke="#0095FF" fill="none" stroke-width="2px" />
<path d="M 2430.0 165.0 L 2430.0 155.0" stroke="#0095FF" fill="none" stroke-width="2px" />
<path d="M 90.0 165.0 L 100.0 165.0" stroke="#FF0000" fill="none" stroke-width="4px" />
<path d="M 100.0 165.0 L 110.0 165.0" stroke="#FF0000" fill="none" stroke-width="4px" />
<path d="M 110.0 165.0 L 110.0 155.0" stroke="#FF0000" fill="none" stroke-width="4px" />
<path d="M 110.0 155.0 L 100.0 155.0" stroke="#FF0000" fill="none" stroke-width="4px" />
<path d="M 100.0 155.0 L 90.0 155.0" stroke="#FF0000" fill="none" stroke-width="4px" />
<path d="M 90.0 155.0 L 80.0 155.0" stroke="#FF0000" fill="none" stroke-width="4px" />
<path d="M 80.0 155.0 L 80.0 145.0" stroke="#FF0000" fill="none" stroke-width="4px" />
<path d="M 80.0 145.0 L 90.0 145.0" stroke="#FF0000" fill="none" stroke-width="4px" />
<path d="M 90.0 145.0 L 100.0 145.0" stroke="#FF0000" fill="none" stroke-width="4px" />
<path d="M 100.0 145.0 L 110.0 145.0" stroke="#FF0000" fill="none" stroke-width="4px" />
<path d="M 110.0 145.0 L 120.0 155.0" stroke="#FF0000" fill="none" stroke-width="4px" />
<path d="M 100.0 135.0 L 90.0 135.0" stroke="#FF0000" fill="none" stroke-width="4px" />
<path d="M 320.0 145.0 L 330.0 145.0" stroke="#FF0000" fill="none" stroke-width="4px" />
<path d="M 330.0 145.0 L 340.0 145.0" stroke="#FF0000" fill="none" stroke-width="4px" />
<path d="M 340.0 145.0 L 350.0 145.0" stroke="#FF0000" fill="none" stroke-width="4px" />
<path d="M 350.0 145.0 L 360.0 145.0" stroke="#FF0000" fill="none" stroke-width="4px" />
<path d="M 360.0 145.0 L 360.0 155.0" stroke="#FF0000" fill="none" stroke-width="4px" />
<path d="M 360.0 155.0 L 350.0 155.0" stroke="#FF0000" fill="none" stroke-width="4px" />
<path d="M 350.0 155.0 L 340.0 155.0" stroke="#FF0000" fill="none" stroke-width="4px" />
<path d="M 340.0 155.0 L 330.0 155.0" stroke="#FF0000" fill="none" stroke-width="4px" />
<path d="M 330.0 155.0 L 320.0 155.0" stroke="#FF0000" fill="none" stroke-width="4px" />
<path d="M 320.0 155.0 L 320.0 165.0" stroke="#FF0000" fill="none" stroke-width="4px" />
<path d="M 320.0 165.0 L 330.0 165.0" stroke="#FF0000" fill="none" stroke-width="4px" />
<path d="M 330.0 165.0 L 340.0 165.0" stroke="#FF0000" fill="none" stroke-width="4px" />
<path d="M 340.0 165.0 L 350.0 165.0" stroke="#FF0000" fill="none" stroke-width="4px" />
<path d="M 350.0 165.0 L 360.0 165.0" stroke="#FF0000" fill="none" stroke-width="4px" />
<path d="M 360.0 165.0 L 370.0 165.0" stroke="#FF0000" fill="none" stroke-width="4px" />
<path d="M 370.0 165.0 L 370.0 175.0" stroke="#FF0000" fill="none" stroke-width="4px" />
<path d="M 370.0 175.0 L 360.0 175.0" stroke="#FF0000" fill="none" stroke-width="4px" />
<path d="M 360.0 175.0 L 350.0 175.0" stroke="#FF0000" fill="none" stroke-width="4px" />
<path d="M 350.0 175.0 L 340.0 175.0" stroke="#FF0000" fill="none" stroke-width="4px" />
<path d="M 340.0 175.0 L 330.0 175.0" stroke="#FF0000" fill="none" stroke-width="4px" />
<path d="M 330.0 175.0 L 340.0 185.0" stroke="#FF0000" fill="none" stroke-width="4px" />
<path d="M 340.0 185.0 L 350.0 185.0" stroke="#FF0000" fill="none" stroke-width="4px" />
<path d="M 350.0 185.0 L 360.0 185.0" stroke="#FF0000" fill="none" stroke-width="4px" />
<path d="M 360.0 185.0 L 350.0 195.0" stroke="#FF0000" fill="none" stroke-width="4px" />
<path d="M 350.0 135.0 L 340.0 135.0" stroke="#FF0000" fill="none" stroke-width="4px" />
<path d="M 340.0 135.0 L 330.0 135.0" stroke="#FF0000" fill="none" stroke-width="4px" />
<path d="M 330.0 135.0 L 340.0 125.0" stroke="#FF0000" fill="none" stroke-width="4px" />
<path d="M 630.0 125.0 L 640.0 125.0" stroke="#FF0000" fill="none" stroke-width="4px" />
<path d="M 640.0 125.0 L 650.0 125.0" stroke="#FF0000" fill="none" stroke-width="4px" />
<path d="M 650.0 125.0 L 660.0 125.0" stroke="#FF0000" fill="none" stroke-width="4px" />
<path d="M 660.0 125.0 L 670.0 125.0" stroke="#FF0000" fill="none" stroke-width="4px" />
<path d="M 670.0 125.0 L 680.0 125.0" stroke="#FF0000" fill="none" stroke-width="4px" />
<path d="M 680.0 125.0 L 680.0 135.0" stroke="#FF0000" fill="none" stroke-width="4px" />
<path d="M 680.0 135.0 L 670.0 135.0" stroke="#FF0000" fill="none" stroke-width="4px" />
<path d="M 670.0 135.0 L 660.0 135.0" stroke="#FF0000" fill="none" stroke-width="4px" />
<path d="M 660.0 135.0 L 650.0 135.0" stroke="#FF0000" fill="none" stroke-width="4px" />
<path d="M 650.0 135.0 L 640.0 135.0" stroke="#FF0000" fill="none" stroke-width="4px" />
<path d="M 640.0 135.0 L 650.0 145.0" stroke="#FF0000" fill="none" stroke-width="4px" />
<path d="M 650.0 145.0 L 660.0 145.0" stroke="#FF0000" fill="none" stroke-width="4px" />
<path d="M 660.0 145.0 L 670.0 145.0" stroke="#FF0000" fill="none" stroke-width="4px" />
<path d="M 670.0 145.0 L 680.0 145.0" stroke="#FF0000" fill="none" stroke-width="4px" />
<path d="M 680.0 145.0 L 680.0 155.0" stroke="#FF0000" fill="none" stroke-width="4px" />
<path d="M 680.0 155.0 L 670.0 155.0" stroke="#FF0000" fill="none" stroke-width="4px" />
<path d="M 670.0 155.0 L 660.0 155.0" stroke="#FF0000" fill="none" stroke-width="4px" />
<path d="M 660.0 155.0 L 650.0 155.0" stroke="#FF0000" fill="none" stroke-width="4px" />
<path d="M 650.0 155.0 L 640.0 155.0" stroke="#FF0000" fill="none" stroke-width="4px" />
<path d="M 640.0 155.0 L 640.0 165.0" stroke="#FF0000" fill="none" stroke-width="4px" />
<path d="M 640.0 165.0 L 630.0 165.0" stroke="#FF0000" fill="none" stroke-width="4px" />
<path d="M 630.0 165.0 L 630.0 175.0" stroke="#FF0000" fill="none" stroke-width="4px" />
<path d="M 630.0 175.0 L 640.0 175.0" stroke="#FF0000" fill="none" stroke-width="4px" />
<path d="M 640.0 175.0 L 650.0 175.0" stroke="#FF0000" fill="none" stroke-width="4px" />
<path d="M 650.0 175.0 L 660.0 175.0" stroke="#FF0000" fill="none" stroke-width="4px" />
<path d="M 660.0 175.0 L 670.0 175.0" stroke="#FF0000" fill="none" stroke-width="4px" />
<path d="M 670.0 175.0 L 680.0 175.0" stroke="#FF0000" fill="none" stroke-width="4px" />
<path d="M 680.0 175.0 L 690.0 175.0" stroke="#FF0000" fill="none" stroke-width="4px" />
<path d="M 690.0 175.0 L 700.0 175.0" stroke="#FF0000" fill="none" stroke-width="4px" />
<path d="M 700.0 175.0 L 700.0 185.0" stroke="#FF0000" fill="none" stroke-width="4px" />
<path d="M 700.0 185.0 L 690.0 185.0" stroke="#FF0000" fill="none" stroke-width="4px" />
<path d="M 690.0 185.0 L 680.0 185.0" stroke="#FF0000" fill="none" stroke-width="4px" />
<path d="M 680.0 185.0 L 670.0 185.0" stroke="#FF0000" fill="none" stroke-width="4px" />
<path d="M 670.0 185.0 L 660.0 185.0" stroke="#FF0000" fill="none" stroke-width="4px" />
<path d="M 660.0 185.0 L 650.0 185.0" stroke="#FF0000" fill="none" stroke-width="4px" />
<path d="M 650.0 185.0 L 640.0 185.0" stroke="#FF0000" fill="none" stroke-width="4px" />
<path d="M 640.0 185.0 L 630.0 185.0" stroke="#FF0000" fill="none" stroke-width="4px" />
<path d="M 630.0 185.0 L 630.0 195.0" stroke="#FF0000" fill="none" stroke-width="4px" />
<path d="M 630.0 195.0 L 640.0 195.0" stroke="#FF0000" fill="none" stroke-width="4px" />
<path d="M 640.0 195.0 L 650.0 195.0" stroke="#FF0000" fill="none" stroke-width="4px" />
<path d="M 650.0 195.0 L 660.0 195.0" stroke="#FF0000" fill="none" stroke-width="4px" />
<path d="M 660.0 195.0 L 670.0 195.0" stroke="#FF0000" fill="none" stroke-width="4px" />
<path d="M 670.0 195.0 L 680.0 195.0" stroke="#FF0000" fill="none" stroke-width="4px" />
<path d="M 680.0 195.0 L 690.0 195.0" stroke="#FF0000" fill="none" stroke-width="4px" />
<path d="M 690.0 195.0 L 700.0 195.0" stroke="#FF0000" fill="none" stroke-width="4px" />
<path d="M 700.0 195.0 L 700.0 205.0" stroke="#FF0000" fill="none" stroke-width="4px" />
<path d="M 700.0 205.0 L 690.0 205.0" stroke="#FF0000" fill="none" stroke-width="4px" />
<path d="M 690.0 205.0 L 680.0 205.0" stroke="#FF0000" fill="none" stroke-width="4px" />
<path d="M 680.0 205.0 L 670.0 205.0" stroke="#FF0000" fill="none" stroke-width="4px" />
<path d="M 670.0 205.0 L 660.0 205.0" stroke="#FF0000" fill="none" stroke-width="4px" />
<path d="M 660.0 205.0 L 650.0 205.0" stroke="#FF0000" fill="none" stroke-width="4px" />
<path d="M 650.0 205.0 L 640.0 205.0" stroke="#FF0000" fill="none" stroke-width="4px" />
<path d="M 640.0 205.0 L 630.0 205.0" stroke="#FF0000" fill="none" stroke-width="4px" />
<path d="M 630.0 205.0 L 640.0 215.0" stroke="#FF0000" fill="none" stroke-width="4px" />
<path d="M 640.0 215.0 L 650.0 215.0" stroke="#FF0000" fill="none" stroke-width="4px" />
<path d="M 650.0 215.0 L 660.0 215.0" stroke="#FF0000" fill="none" stroke-width="4px" />
<path d="M 660.0 215.0 L 670.0 215.0" stroke="#FF0000" fill="none" stroke-width="4px" />
<path d="M 670.0 215.0 L 680.0 215.0" stroke="#FF0000" fill="none" stroke-width="4px" />
<path d="M 680.0 215.0 L 690.0 215.0" stroke="#FF0000" fill="none" stroke-width="4px" />
<path d="M 690.0 165.0 L 680.0 165.0" stroke="#FF0000" fill="none" stroke-width="4px" />
<path d="M 680.0 165.0 L 670.0 165.0" stroke="#FF0000" fill="none" stroke-width="4px" />
<path d="M 670.0 165.0 L 660.0 165.0" stroke="#FF0000" fill="none" stroke-width="4px" />
<path d="M 660.0 165.0 L 650.0 165.0" stroke="#FF0000" fill="none" stroke-width="4px" />
<path d="M 690.0 155.0 L 700.0 165.0" stroke="#FF0000" fill="none" stroke-width="4px" />
<path d="M 690.0 115.0 L 680.0 115.0" stroke="#FF0000" fill="none" stroke-width="4px" />
<path d="M 680.0 115.0 L 670.0 115.0" stroke="#FF0000" fill="none" stroke-width="4px" />
<path d="M 670.0 115.0 L 660.0 115.0" stroke="#FF0000" fill="none" stroke-width="4px" />
<path d="M 660.0 115.0 L 650.0 115.0" stroke="#FF0000" fill="none" stroke-width="4px" />
<path d="M 650.0 115.0 L 640.0 115.0" stroke="#FF0000" fill="none" stroke-width="4px" />
<path d="M 640.0 115.0 L 630.0 115.0" stroke="#FF0000" fill="none" stroke-width="4px" />
<path d="M 630.0 115.0 L 630.0 105.0" stroke="#FF0000" fill="none" stroke-width="4px" />
<path d="M 630.0 105.0 L 640.0 105.0" stroke="#FF0000" fill="none" stroke-width="4px" />
<path d="M 640.0 105.0 L 650.0 105.0" stroke="#FF0000" fill="none" stroke-width="4px" />
<path d="M 650.0 105.0 L 660.0 105.0" stroke="#FF0000" fill="none" stroke-width="4px" />
<path d="M 660.0 105.0 L 670.0 105.0" stroke="#FF0000" fill="none" stroke-width="4px" />
<path d="M 670.0 105.0 L 680.0 105.0" stroke="#FF0000" fill="none" stroke-width="4px" />
<path d="M 680.0 105.0 L 690.0 105.0" stroke="#FF0000" fill="none" stroke-width="4px" />
<path d="M 690.0 105.0 L 680.0 95.0" stroke="#FF0000" fill="none" stroke-width="4px" />
<path d="M 680.0 95.0 L 670.0 95.0" stroke="#FF0000" fill="none" stroke-width="4px" />
<path d="M 670.0 95.0 L 660.0 95.0" stroke="#FF0000" fill="none" stroke-width="4px" />
<path d="M 660.0 95.0 L 650.0 95.0" stroke="#FF0000" fill="none" stroke-width="4px" />
<path d="M 650.0 95.0 L 640.0 95.0" stroke="#FF0000" fill="none" stroke-width="4px" />
<path d="M 640.0 95.0 L 650.0 85.0" stroke="#FF0000" fill="none" stroke-width="4px" />
<path d="M 650.0 85.0 L 660.0 85.0" stroke="#FF0000" fill="none" stroke-width="4px" />
<path d="M 660.0 85.0 L 670.0 85.0" stroke="#FF0000" fill="none" stroke-width="4px" />
<path d="M 1770.0 105.0 L 1780.0 105.0" stroke="#FF0000" fill="none" stroke-width="4px" />
<path d="M 1780.0 105.0 L 1790.0 105.0" stroke="#FF0000" fill="none" stroke-width="4px" />
<path d="M 1790.0 105.0 L 1800.0 105.0" stroke="#FF0000" fill="none" stroke-width="4px" />
<path d="M 1800.0 105.0 L 1810.0 105.0" stroke="#FF0000" fill="none" stroke-width="4px" />
<path d="M 1810.0 105.0 L 1810.0 115.0" stroke="#FF0000" fill="none" stroke-width="4px" />
<path d="M 1810.0 115.0 L 1800.0 115.0" stroke="#FF0000" fill="none" stroke-width="4px" />
<path d="M 1800.0 115.0 L 1790.0 115.0" stroke="#FF0000" fill="none" stroke-width="4px" />
<path d="M 1790.0 115.0 L 1780.0 115.0" stroke="#FF0000" fill="none" stroke-width="4px" />
<path d="M 1780.0 115.0 L 1770.0 115.0" stroke="#FF0000" fill="none" stroke-width="4px" />
<path d="M 1770.0 115.0 L 1780.0 125.0" stroke="#FF0000" fill="none" stroke-width="4px" />
<path d="M 1780.0 125.0 L 1790.0 125.0" stroke="#FF0000" fill="none" stroke-width="4px" />
<path d="M 1790.0 125.0 L 1800.0 125.0" stroke="#FF0000" fill="none" stroke-width="4px" />
<path d="M 1800.0 125.0 L 1790.0 135.0" stroke="#FF0000" fill="none" stroke-width="4px" />
<path d="M 1790.0 95.0 L 1780.0 95.0" stroke="#FF0000" fill="none" stroke-width="4px" />
<path d="M 1780.0 95.0 L 1790.0 85.0" stroke="#FF0000" fill="none" stroke-width="4px" />
<path d="M 1790.0 85.0 L 1800.0 95.0" stroke="#FF0000" fill="none" stroke-width="4px" />
<path d="M 2460.0 215.0 L 2450.0 215.0" stroke="#FF0000" fill="none" stroke-width="4px" />
<path d="M 2450.0 215.0 L 2440.0 215.0" stroke="#FF0000" fill="none" stroke-width="4px" />
<path d="M 2440.0 215.0 L 2430.0 215.0" stroke="#FF0000" fill="none" stroke-width="4px" />
<path d="M 2430.0 215.0 L 2420.0 215.0" stroke="#FF0000" fill="none" stroke-width="4px" />
<path d="M 2420.0 215.0 L 2410.0 215.0" stroke="#FF0000" fill="none" stroke-width="4px" />
<path d="M 2410.0 215.0 L 2410.0 205.0" stroke="#FF0000" fill="none" stroke-width="4px" />
<path d="M 2410.0 205.0 L 2400.0 205.0" stroke="#FF0000" fill="none" stroke-width="4px" />
<path d="M 2400.0 205.0 L 2400.0 195.0" stroke="#FF0000" fill="none" stroke-width="4px" />
<path d="M 2400.0 195.0 L 2390.0 195.0" stroke="#FF0000" fill="none" stroke-width="4px" />
<path d="M 2390.0 195.0 L 2390.0 185.0" stroke="#FF0000" fill="none" stroke-width="4px" />
<path d="M 2390.0 185.0 L 2400.0 185.0" stroke="#FF0000" fill="none" stroke-width="4px" />
<path d="M 2400.0 185.0 L 2410.0 185.0" stroke="#FF0000" fill="none" stroke-width="4px" />
<path d="M 2410.0 185.0 L 2420.0 185.0" stroke="#FF0000" fill="none" stroke-width="4px" />
<path d="M 2420.0 185.0 L 2430.0 185.0" stroke="#FF0000" fill="none" stroke-width="4px" />
<path d="M 2430.0 185.0 L 2440.0 185.0" stroke="#FF0000" fill="none" stroke-width="4px" />
<path d="M 2440.0 185.0 L 2450.0 185.0" stroke="#FF0000" fill="none" stroke-width="4px" />
<path d="M 2450.0 185.0 L 2460.0 185.0" stroke="#FF0000" fill="none" stroke-width="4px" />
<path d="M 2460.0 185.0 L 2470.0 185.0" stroke="#FF0000" fill="none" stroke-width="4px" />
<path d="M 2470.0 185.0 L 2470.0 195.0" stroke="#FF0000" fill="none" stroke-width="4px" />
<path d="M 2470.0 195.0 L 2460.0 195.0" stroke="#FF0000" fill="none" stroke-width="4px" />
<path d="M 2460.0 195.0 L 2450.0 195.0" stroke="#FF0000" fill="none" stroke-width="4px" />
<path d="M 2450.0 195.0 L 2440.0 195.0" stroke="#FF0000" fill="none" stroke-width="4px" />
<path d="M 2440.0 195.0 L 2430.0 195.0" stroke="#FF0000" fill="none" stroke-width="4px" />
<path d="M 2430.0 195.0 L 2420.0 195.0" stroke="#FF0000" fill="none" stroke-width="4px" />
<path d="M 2420.0 195.0 L 2410.0 195.0" stroke="#FF0000" fill="none" stroke-width="4px" />
<path d="M 2410.0 195.0 L 2420.0 205.0" stroke="#FF0000" fill="none" stroke-width="4px" />
<path d="M 2420.0 205.0 L 2430.0 205.0" stroke="#FF0000" fill="none" stroke-width="4px" />
<path d="M 2430.0 205.0 L 2440.0 205.0" stroke="#FF0000" fill="none" stroke-width="4px" />
<path d="M 2440.0 205.0 L 2450.0 205.0" stroke="#FF0000" fill="none" stroke-width="4px" />
<path d="M 2450.0 205.0 L 2460.0 205.0" stroke="#FF0000" fill="none" stroke-width="4px" />
<path d="M 2460.0 205.0 L 2470.0 205.0" stroke="#FF0000" fill="none" stroke-width="4px" />
<path d="M 2460.0 175.0 L 2450.0 175.0" stroke="#FF0000" fill="none" stroke-width="4px" />
<path d="M 2450.0 175.0 L 2440.0 175.0" stroke="#FF0000" fill="none" stroke-width="4px" />
<path d="M 2440.0 175.0 L 2430.0 175.0" stroke="#FF0000" fill="none" stroke-width="4px" />
<path d="M 2430.0 175.0 L 2420.0 175.0" stroke="#FF0000" fill="none" stroke-width="4px" />
<path d="M 2420.0 175.0 L 2410.0 175.0" stroke="#FF0000" fill="none" stroke-width="4px" />
<path d="M 2410.0 175.0 L 2400.0 175.0" stroke="#FF0000" fill="none" stroke-width="4px" />
<path d="M 2400.0 175.0 L 2390.0 175.0" stroke="#FF0000" fill="none" stroke-width="4px" />
<path d="M 2390.0 175.0 L 2380.0 175.0" stroke="#FF0000" fill="none" stroke-width="4px" />
<path d="M 2380.0 175.0 L 2380.0 165.0" stroke="#FF0000" fill="none" stroke-width="4px" />
<path d="M 2380.0 165.0 L 2390.0 165.0" stroke="#FF0000" fill="none" stroke-width="4px" />
<path d="M 2390.0 165.0 L 2400.0 165.0" stroke="#FF0000" fill="none" stroke-width="4px" />
<path d="M 2400.0 165.0 L 2410.0 165.0" stroke="#FF0000" fill="none" stroke-width="4px" />
<path d="M 2410.0 165.0 L 2420.0 165.0" stroke="#FF0000" fill="none" stroke-width="4px" />
<path d="M 2420.0 165.0 L 2430.0 165.0" stroke="#FF0000" fill="none" stroke-width="4px" />
<path d="M 2430.0 165.0 L 2440.0 165.0" stroke="#FF0000" fill="none" stroke-width="4px" />
<path d="M 2440.0 165.0 L 2450.0 165.0" stroke="#FF0000" fill="none" stroke-width="4px" />
<path d="M 2430.0 155.0 L 2420.0 155.0" stroke="#FF0000" fill="none" stroke-width="4px" />
<path d="M 2420.0 155.0 L 2410.0 155.0" stroke="#FF0000" fill="none" stroke-width="4px" />
<path d="M 2410.0 155.0 L 2400.0 155.0" stroke="#FF0000" fill="none" stroke-width="4px" />
<path d="M 2400.0 155.0 L 2390.0 155.0" stroke="#FF0000" fill="none" stroke-width="4px" />
<path d="M 2390.0 155.0 L 2380.0 155.0" stroke="#FF0000" fill="none" stroke-width="4px" />
<path d="M 2380.0 155.0 L 2370.0 155.0" stroke="#FF0000" fill="none" stroke-width="4px" />
<path d="M 2370.0 155.0 L 2380.0 145.0" stroke="#FF0000" fill="none" stroke-width="4px" />
<path d="M 2380.0 145.0 L 2390.0 145.0" stroke="#FF0000" fill="none" stroke-width="4px" />
<path d="M 2390.0 145.0 L 2400.0 145.0" stroke="#FF0000" fill="none" stroke-width="4px" />
<path d="M 2400.0 145.0 L 2410.0 145.0" stroke="#FF0000" fill="none" stroke-width="4px" />
<path d="M 2410.0 145.0 L 2420.0 145.0" stroke="#FF0000" fill="none" stroke-width="4px" />
<path d="M 2420.0 145.0 L 2410.0 135.0" stroke="#FF0000" fill="none" stroke-width="4px" />
<path d="M 2410.0 135.0 L 2400.0 135.0" stroke="#FF0000" fill="none" stroke-width="4px" />
<path d="M 2400.0 135.0 L 2390.0 135.0" stroke="#FF0000" fill="none" stroke-width="4px" />
</svg>