<svg width="2894.54166667" height="235.0" xmlns="http://www.w3.org/2000/svg" version="1.1">
<path d="M 0.0 235.0 L 1985.0 235.0 L 1985.0 0.0 L 0.0 0.0 L 0.0 235.0" stroke="#000000" fill="none" stroke-width="3px" />
<path d="M 2894.54166667 235.0 L 1885.0 235.0 L 1885.0 0.0 L 2894.54166667 0.0 L 2894.54166667 235.0" stroke="#000000" fill="none" stroke-width="3px" />
<path d="M 10.0 257.5 L 0.0 247.5 L 10.0 237.5" stroke="#969696" fill="none" stroke-width="1px" />
<path d="M 10.0 237.5 L 1975.0 237.5" stroke="#969696" fill="none" stroke-width="1px" />
<path d="M 1975.0 237.5 L 1985.0 227.5 L 1975.0 217.5" stroke="#969696" fill="none" stroke-width="1px" />
<path d="M 1975.0 217.5 L 10.0 217.5" stroke="#969696" fill="none" stroke-width="1px" />
<path d="M 10.0 217.5 L 0.0 207.5 L 10.0 197.5" stroke="#969696" fill="none" stroke-width="1px" />
<path d="M 10.0 197.5 L 1975.0 197.5" stroke="#969696" fill="none" stroke-width="1px" />
<path d="M 1975.0 197.5 L 1985.0 187.5 L 1975.0 177.5" stroke="#969696" fill="none" stroke-width="1px" />
<path d="M 1975.0 177.5 L 10.0 177.5" stroke="#969696" fill="none" stroke-width="1px" />
<path d="M 10.0 177.5 L 0.0 167.5 L 10.0 157.5" stroke="#969696" fill="none" stroke-width="1px" />
<path d="M 10.0 157.5 L 1975.0 157.5" stroke="#969696" fill="none" stroke-width="1px" />
<path d="M 1975.0 157.5 L 1985.0 147.5 L 1975.0 137.5" stroke="#969696" fill="none" stroke-width="1px" />
<path d="M 1975.0 137.5 L 10.0 137.5" stroke="#969696" fill="none" stroke-width="1px" />
<path d="M 10.0 137.5 L 0.0 127.5 L 10.0 117.5" stroke="#969696" fill="none" stroke-width="1px" />
<path d="M 10.0 117.5 L 1975.0 117.5" stroke="#969696" fill="none" stroke-width="1px" />
<path d="M 1975.0 117.5 L 1985.0 107.5 L 1975.0 97.5" stroke="#969696" fill="none" stroke-width="1px" />
<path d="M 1975.0 97.5 L 10.0 97.5" stroke="#969696" fill="none" stroke-width="1px" />
<path d="M 10.0 97.5 L 0.0 87.5 L 10.0 77.5" stroke="#969696" fill="none" stroke-width="1px" />
<path d="M 10.0 77.5 L 1975.0 77.5" stroke="#969696" fill="none" stroke-width="1px" />
<path d="M 1975.0 77.5 L 1985.0 67.5 L 1975.0 57.5" stroke="#969696" fill="none" stroke-width="1px" />
<path d="M 1975.0 57.5 L 10.0 57.5" stroke="#969696" fill="none" stroke-width="1px" />
<path d="M 10.0 57.5 L 0.0 47.5 L 10.0 37.5" stroke="#969696" fill="none" stroke-width="1px" />
<path d="M 10.0 37.5 L 1975.0 37.5" stroke="#969696" fill="none" stroke-width="1px" />
<path d="M 1975.0 37.5 L 1985.0 27.5 L 1975.0 17.5" stroke="#969696" fill="none" stroke-width="1px" />
<path d="M 1975.0 17.5 L 10.0 17.5" stroke="#969696" fill="none" stroke-width="1px" />
<path d="M 10.0 17.5 L 0.0 7.5 L 10.0 -2.5" stroke="#969696" fill="none" stroke-width="1px" />
<path d="M 10.0 -2.5 L 1975.0 -2.5" stroke="#969696" fill="none" stroke-width="1px" />
<path d="M 1975.0 -2.5 L 1985.0 -12.5 L 1975.0 -22.5" stroke="#969696" fill="none" stroke-width="1px" />
<path d="M 2884.54166667 257.5 L 2894.54166667 247.5 L 2884.54166667 237.5" stroke="#969696" fill="none" stroke-width="1px" />
<path d="M 2884.54166667 237.5 L 1895.0 237.5" stroke="#969696" fill="none" stroke-width="1px" />
<path d="M 1895.0 237.5 L 1885.0 227.5 L 1895.0 217.5" stroke="#969696" fill="none" stroke-width="1px" />
<path d="M 1895.0 217.5 L 2884.54166667 217.5" stroke="#969696" fill="none" stroke-width="1px" />
<path d="M 2884.54166667 217.5 L 2894.54166667 207.5 L 2884.54166667 197.5" stroke="#969696" fill="none" stroke-width="1px" />
<path d="M 2884.54166667 197.5 L 1895.0 197.5" stroke="#969696" fill="none" stroke-width="1px" />
<path d="M 1895.0 197.5 L 1885.0 187.5 L 1895.0 177.5" stroke="#969696" fill="none" stroke-width="1px" />
<path d="M 1895.0 177.5 L 2884.54166667 177.5" stroke="#969696" fill="none" stroke-width="1px" />
<path d="M 2884.54166667 177.5 L 2894.54166667 167.5 L 2884.54166667 157.5" stroke="#969696" fill="none" stroke-width="1px" />
<path d="M 2884.54166667 157.5 L 1895.0 157.5" stroke="#969696" fill="none" stroke-width="1px" />
<path d="M 1895.0 157.5 L 1885.0 147.5 L 1895.0 137.5" stroke="#969696" fill="none" stroke-width="1px" />
<path d="M 1895.0 137.5 L 2884.54166667 137.5" stroke="#969696" fill="none" stroke-width="1px" />
<path d="M 2884.54166667 137.5 L 2894.54166667 127.5 L 2884.54166667 117.5" stroke="#969696" fill="none" stroke-width="1px" />
<path d="M 2884.54166667 117.5 L 1895.0 117.5" stroke="#969696" fill="none" stroke-width="1px" />
<path d="M 1895.0 117.5 L 1885.0 107.5 L 1895.0 97.5" stroke="#969696" fill="none" stroke-width="1px" />
<path d="M 1895.0 97.5 L 2884.54166667 97.5" stroke="#969696" fill="none" stroke-width="1px" />
<path d="M 2884.54166667 97.5 L 2894.54166667 87.5 L 2884.54166667 77.5" stroke="#969696" fill="none" stroke-width="1px" />
<path d="M 2884.54166667 77.5 L 1895.0 77.5" stroke="#969696" fill="none" stroke-width="1px" />
<path d="M 1895.0 77.5 L 1885.0 67.5 L 1895.0 57.5" stroke="#969696" fill="none" stroke-width="1px" />
<path d="M 1895.0 57.5 L 2884.54166667 57.5" stroke="#969696" fill="none" stroke-width="1px" />
<path d="M 2884.54166667 57.5 L 2894.54166667 47.5 L 2884.54166667 37.5" stroke="#969696" fill="none" stroke-width="1px" />
<path d="M 2884.54166667 37.5 L 1895.0 37.5" stroke="#969696" fill="none" stroke-width="1px" />
<path d="M 1895.0 37.5 L 1885.0 27.5 L 1895.0 17.5" stroke="#969696" fill="none" stroke-width="1px" />
<path d="M 1895.0 17.5 L 2884.54166667 17.5" stroke="#969696" fill="none" stroke-width="1px" />
<path d="M 2884.54166667 17.5 L 2894.54166667 7.5 L 2884.54166667 -2.5" stroke="#969696" fill="none" stroke-width="1px" />
<path d="M 2884.54166667 -2.5 L 1895.0 -2.5" stroke="#969696" fill="none" stroke-width="1px" />
<path d="M 1895.0 -2.5 L 1885.0 -12.5 L 1895.0 -22.5" stroke="#969696" fill="none" stroke-width="1px" />
<path d="M 0.0 235.0 L 60.0 175.0" stroke="#0095FF" fill="none" stroke-width="2px" />
<path d="M 60.0 155.0 L 60.0 135.0" stroke="#0095FF" fill="none" stroke-width="2px" />
<path d="M 70.0 135.0 L 70.0 115.0" stroke="#0095FF" fill="none" stroke-width="2px" />
<path d="M 60.0 105.0 L 80.0 115.0" stroke="#0095FF" fill="none" stroke-width="2px" />
<path d="M 80.0 115.0 L 100.0 135.0" stroke="#0095FF" fill="none" stroke-width="2px" />
<path d="M 100.0 135.0 L 90.0 165.0" stroke="#0095FF" fill="none" stroke-width="2px" />
<path d="M 90.0 165.0 L 600.0 85.0" stroke="#0095FF" fill="none" stroke-width="2px" />
<path d="M 660.0 125.0 L 680.0 95.0" stroke="#0095FF" fill="none" stroke-width="2px" />
<path d="M 680.0 95.0 L 670.0 75.0" stroke="#0095FF" fill="none" stroke-width="2px" />
<path d="M 640.0 45.0 L 1780.0 115.0" stroke="#0095FF" fill="none" stroke-width="2px" />
<path d="M 1800.0 165.0 L 1800.0 105.0" stroke="#0095FF" fill="none" stroke-width="2px" />
<path d="M 2894.54166667 235.0 L 2570.0 125.0" stroke="#0095FF" fill="none" stroke-width="2px" />
<path d="M 2550.0 145.0 L 2550.0 115.0" stroke="#0095FF" fill="none" stroke-width="2px" />
<path d="M 2560.0 115.0 L 2540.0 95.0" stroke="#0095FF" fill="none" stroke-width="2px" />
<path d="M 2530.0 85.0 L 2520.0 185.0" stroke="#0095FF" fill="none" stroke-width="2px" />
<path d="M 60.0 175.0 L 70.0 175.0" stroke="#FF0000" fill="none" stroke-width="4px" />
<path d="M 70.0 175.0 L 80.0 175.0" stroke="#FF0000" fill="none" stroke-width="4px" />
<path d="M 80.0 175.0 L 80.0 165.0" stroke="#FF0000" fill="none" stroke-width="4px" />
<path d="M 80.0 165.0 L 70.0 165.0" stroke="#FF0000" fill="none" stroke-width="4px" />
<path d="M 70.0 165.0 L 60.0 165.0" stroke="#FF0000" fill="none" stroke-width="4px" />
<path d="M 60.0 165.0 L 50.0 165.0" stroke="#FF0000" fill="none" stroke-width="4px" />
<path d="M 50.0 165.0 L 50.0 155.0" stroke="#FF0000" fill="none" stroke-width="4px" />
<path d="M 50.0 155.0 L 40.0 155.0" stroke="#FF0000" fill="none" stroke-width="4px" />
<path d="M 40.0 155.0 L 40.0 145.0" stroke="#FF0000" fill="none" stroke-width="4px" />
<path d="M 40.0 145.0 L 50.0 145.0" stroke="#FF0000" fill="none" stroke-width="4px" />
<path d="M 50.0 145.0 L 60.0 145.0" stroke="#FF0000" fill="none" stroke-width="4px" />
<path d="M 60.0 145.0 L 70.0 145.0" stroke="#FF0000" fill="none" stroke-width="4px" />
<path d="M 70.0 145.0 L 80.0 145.0" stroke="#FF0000" fill="none" stroke-width="4px" />
<path d="M 80.0 145.0 L 90.0 145.0" stroke="#FF0000" fill="none" stroke-width="4px" />
<path d="M 90.0 145.0 L 100.0 145.0" stroke="#FF0000" fill="none" stroke-width="4px" />
<path d="M 100.0 145.0 L 100.0 155.0" stroke="#FF0000" fill="none" stroke-width="4px" />
<path d="M 100.0 155.0 L 90.0 155.0" stroke="#FF0000" fill="none" stroke-width="4px" />
<path d="M 90.0 155.0 L 80.0 155.0" stroke="#FF0000" fill="none" stroke-width="4px" />
<path d="M 80.0 155.0 L 70.0 155.0" stroke="#FF0000" fill="none" stroke-width="4px" />
<path d="M 70.0 155.0 L 60.0 155.0" stroke="#FF0000" fill="none" stroke-width="4px" />
<path d="M 60.0 135.0 L 50.0 135.0" stroke="#FF0000" fill="none" stroke-width="4px" />
<path d="M 50.0 135.0 L 40.0 135.0" stroke="#FF0000" fill="none" stroke-width="4px" />
<path d="M 40.0 135.0 L 40.0 125.0" stroke="#FF0000" fill="none" stroke-width="4px" />
<path d="M 40.0 125.0 L 50.0 125.0" stroke="#FF0000" fill="none" stroke-width="4px" />
<path d="M 50.0 125.0 L 60.0 125.0" stroke="#FF0000" fill="none" stroke-width="4px" />
<path d="M 60.0 125.0 L 70.0 125.0" stroke="#FF0000" fill="none" stroke-width="4px" />
<path d="M 70.0 125.0 L 80.0 125.0" stroke="#FF0000" fill="none" stroke-width="4px" />
<path d="M 80.0 125.0 L 90.0 125.0" stroke="#FF0000" fill="none" stroke-width="4px" />
<path d="M 90.0 125.0 L 90.0 135.0" stroke="#FF0000" fill="none" stroke-width="4px" />
<path d="M 90.0 135.0 L 80.0 135.0" stroke="#FF0000" fill="none" stroke-width="4px" />
<path d="M 80.0 135.0 L 70.0 135.0" stroke="#FF0000" fill="none" stroke-width="4px" />
<path d="M 70.0 115.0 L 60.0 115.0" stroke="#FF0000" fill="none" stroke-width="4px" />
<path d="M 60.0 115.0 L 50.0 115.0" stroke="#FF0000" fill="none" stroke-width="4px" />
<path d="M 50.0 115.0 L 60.0 105.0" stroke="#FF0000" fill="none" stroke-width="4px" />
<path d="M 600.0 85.0 L 610.0 85.0" stroke="#FF0000" fill="none" stroke-width="4px" />
<path d="M 610.0 85.0 L 620.0 85.0" stroke="#FF0000" fill="none" stroke-width="4px" />
<path d="M 620.0 85.0 L 630.0 85.0" stroke="#FF0000" fill="none" stroke-width="4px" />
<path d="M 630.0 85.0 L 640.0 85.0" stroke="#FF0000" fill="none" stroke-width="4px" />
<path d="M 640.0 85.0 L 650.0 85.0" stroke="#FF0000" fill="none" stroke-width="4px" />
<path d="M 650.0 85.0 L 660.0 85.0" stroke="#FF0000" fill="none" stroke-width="4px" />
<path d="M 660.0 85.0 L 670.0 85.0" stroke="#FF0000" fill="none" stroke-width="4px" />
<path d="M 670.0 85.0 L 670.0 95.0" stroke="#FF0000" fill="none" stroke-width="4px" />
<path d="M 670.0 95.0 L 660.0 95.0" stroke="#FF0000" fill="none" stroke-width="4px" />
<path d="M 660.0 95.0 L 650.0 95.0" stroke="#FF0000" fill="none" stroke-width="4px" />
<path d="M 650.0 95.0 L 640.0 95.0" stroke="#FF0000" fill="none" stroke-width="4px" />
<path d="M 640.0 95.0 L 630.0 95.0" stroke="#FF0000" fill="none" stroke-width="4px" />
<path d="M 630.0 95.0 L 620.0 95.0" stroke="#FF0000" fill="none" stroke-width="4px" />
<path d="M 620.0 95.0 L 610.0 95.0" stroke="#FF0000" fill="none" stroke-width="4px" />
<path d="M 610.0 95.0 L 610.0 105.0" stroke="#FF0000" fill="none" stroke-width="4px" />
<path d="M 610.0 105.0 L 620.0 105.0" stroke="#FF0000" fill="none" stroke-width="4px" />
<path d="M 620.0 105.0 L 630.0 105.0" stroke="#FF0000" fill="none" stroke-width="4px" />
<path d="M 630.0 105.0 L 640.0 105.0" stroke="#FF0000" fill="none" stroke-width="4px" />
<path d="M 640.0 105.0 L 650.0 105.0" stroke="#FF0000" fill="none" stroke-width="4px" />
<path d="M 650.0 105.0 L 660.0 105.0" stroke="#FF0000" fill="none" stroke-width="4px" />
<path d="M 660.0 105.0 L 670.0 105.0" stroke="#FF0000" fill="none" stroke-width="4px" />
<path d="M 670.0 105.0 L 670.0 115.0" stroke="#FF0000" fill="none" stroke-width="4px" />
<path d="M 670.0 115.0 L 660.0 115.0" stroke="#FF0000" fill="none" stroke-width="4px" />
<path d="M 660.0 115.0 L 650.0 115.0" stroke="#FF0000" fill="none" stroke-width="4px" />
<path d="M 650.0 115.0 L 640.0 115.0" stroke="#FF0000" fill="none" stroke-width="4px" />
<path d="M 640.0 115.0 L 630.0 115.0" stroke="#FF0000" fill="none" stroke-width="4px" />
<path d="M 630.0 115.0 L 620.0 115.0" stroke="#FF0000" fill="none" stroke-width="4px" />
<path d="M 620.0 115.0 L 630.0 125.0" stroke="#FF0000" fill="none" stroke-width="4px" />
<path d="M 630.0 125.0 L 640.0 125.0" stroke="#FF0000" fill="none" stroke-width="4px" />
<path d="M 640.0 125.0 L 650.0 125.0" stroke="#FF0000" fill="none" stroke-width="4px" />
<path d="M 650.0 125.0 L 660.0 125.0" stroke="#FF0000" fill="none" stroke-width="4px" />
<path d="M 670.0 75.0 L 660.0 75.0" stroke="#FF0000" fill="none" stroke-width="4px" />
<path d="M 660.0 75.0 L 650.0 75.0" stroke="#FF0000" fill="none" stroke-width="4px" />
<path d="M 650.0 75.0 L 640.0 75.0" stroke="#FF0000" fill="none" stroke-width="4px" />
<path d="M 640.0 75.0 L 630.0 75.0" stroke="#FF0000" fill="none" stroke-width="4px" />
<path d="M 630.0 75.0 L 620.0 75.0" stroke="#FF0000" fill="none" stroke-width="4px" />
<path d="M 620.0 75.0 L 610.0 75.0" stroke="#FF0000" fill="none" stroke-width="4px" />
<path d="M 610.0 75.0 L 600.0 75.0" stroke="#FF0000" fill="none" stroke-width="4px" />
<path d="M 600.0 75.0 L 600.0 65.0" stroke="#FF0000" fill="none" stroke-width="4px" />
<path d="M 600.0 65.0 L 610.0 65.0" stroke="#FF0000" fill="none" stroke-width="4px" />
<path d="M 610.0 65.0 L 620.0 65.0" stroke="#FF0000" fill="none" stroke-width="4px" />
<path d="M 620.0 65.0 L 630.0 65.0" stroke="#FF0000" fill="none" stroke-width="4px" />
<path d="M 630.0 65.0 L 640.0 65.0" stroke="#FF0000" fill="none" stroke-width="4px" />
<path d="M 640.0 65.0 L 650.0 65.0" stroke="#FF0000" fill="none" stroke-width="4px" />
<path d="M 650.0 65.0 L 660.0 65.0" stroke="#FF0000" fill="none" stroke-width="4px" />
<path d="M 660.0 65.0 L 650.0 55.0" stroke="#FF0000" fill="none" stroke-width="4px" />
<path d="M 650.0 55.0 L 640.0 55.0" stroke="#FF0000" fill="none" stroke-width="4px" />
<path d="M 640.0 55.0 L 630.0 55.0" stroke="#FF0000" fill="none" stroke-width="4px" />
<path d="M 630.0 55.0 L 620.0 55.0" stroke="#FF0000" fill="none" stroke-width="4px" />
<path d="M 620.0 55.0 L 610.0 55.0" stroke="#FF0000" fill="none" stroke-width="4px" />
<path d="M 610.0 55.0 L 620.0 45.0" stroke="#FF0000" fill="none" stroke-width="4px" />
<path d="M 620.0 45.0 L 630.0 45.0" stroke="#FF0000" fill="none" stroke-width="4px" />
<path d="M 630.0 45.0 L 640.0 45.0" stroke="#FF0000" fill="none" stroke-width="4px" />
<path d="M 1780.0 115.0 L 1790.0 115.0" stroke="#FF0000" fill="none" stroke-width="4px" />
<path d="M 1790.0 115.0 L 1800.0 115.0" stroke="#FF0000" fill="none" stroke-width="4px" />
<path d="M 1800.0 115.0 L 1810.0 115.0" stroke="#FF0000" fill="none" stroke-width="4px" />
<path d="M 1810.0 115.0 L 1820.0 115.0" stroke="#FF0000" fill="none" stroke-width="4px" />
<path d="M 1820.0 115.0 L 1830.0 115.0" stroke="#FF0000" fill="none" stroke-width="4px" />
<path d="M 1830.0 115.0 L 1840.0 115.0" stroke="#FF0000" fill="none" stroke-width="4px" />
<path d="M 1840.0 115.0 L 1840.0 125.0" stroke="#FF0000" fill="none" stroke-width="4px" />
<path d="M 1840.0 125.0 L 1830.0 125.0" stroke="#FF0000" fill="none" stroke-width="4px" />
<path d="M 1830.0 125.0 L 1820.0 125.0" stroke="#FF0000" fill="none" stroke-width="4px" />
<path d="M 1820.0 125.0 L 1810.0 125.0" stroke="#FF0000" fill="none" stroke-width="4px" />
<path d="M 1810.0 125.0 L 1800.0 125.0" stroke="#FF0000" fill="none" stroke-width="4px" />
<path d="M 1800.0 125.0 L 1790.0 125.0" stroke="#FF0000" fill="none" stroke-width="4px" />
<path d="M 1790.0 125.0 L 1780.0 125.0" stroke="#FF0000" fill="none" stroke-width="4px" />
<path d="M 1780.0 125.0 L 1780.0 135.0" stroke="#FF0000" fill="none" stroke-width="4px" />
<path d="M 1780.0 135.0 L 1790.0 135.0" stroke="#FF0000" fill="none" stroke-width="4px" />
<path d="M 1790.0 135.0 L 1800.0 135.0" stroke="#FF0000" fill="none" stroke-width="4px" />
<path d="M 1800.0 135.0 L 1810.0 135.0" stroke="#FF0000" fill="none" stroke-width="4px" />
<path d="M 1810.0 135.0 L 1820.0 135.0" stroke="#FF0000" fill="none" stroke-width="4px" />
<path d="M 1820.0 135.0 L 1830.0 135.0" stroke="#FF0000" fill="none" stroke-width="4px" />
<path d="M 1830.0 135.0 L 1840.0 135.0" stroke="#FF0000" fill="none" stroke-width="4px" />
<path d="M 1840.0 135.0 L 1840.0 145.0" stroke="#FF0000" fill="none" stroke-width="4px" />
<path d="M 1840.0 145.0 L 1830.0 145.0" stroke="#FF0000" fill="none" stroke-width="4px" />
<path d="M 1830.0 145.0 L 1820.0 145.0" stroke="#FF0000" fill="none" stroke-width="4px" />
<path d="M 1820.0 145.0 L 1810.0 145.0" stroke="#FF0000" fill="none" stroke-width="4px" />
<path d="M 1810.0 145.0 L 1800.0 145.0" stroke="#FF0000" fill="none" stroke-width="4px" />
<path d="M 1800.0 145.0 L 1790.0 145.0" stroke="#FF0000" fill="none" stroke-width="4px" />
<path d="M 1790.0 145.0 L 1780.0 145.0" stroke="#FF0000" fill="none" stroke-width="4px" />
<path d="M 1780.0 145.0 L 1790.0 155.0" stroke="#FF0000" fill="none" stroke-width="4px" />
<path d="M 1790.0 155.0 L 1800.0 155.0" stroke="#FF0000" fill="none" stroke-width="4px" />
<path d="M 1800.0 155.0 L 1810.0 155.0" stroke="#FF0000" fill="none" stroke-width="4px" />
<path d="M 1810.0 155.0 L 1820.0 155.0" stroke="#FF0000" fill="none" stroke-width="4px" />
<path d="M 1820.0 155.0 L 1830.0 155.0" stroke="#FF0000" fill="none" stroke-width="4px" />
<path d="M 1830.0 155.0 L 1820.0 165.0" stroke="#FF0000" fill="none" stroke-width="4px" />
<path d="M 1820.0 165.0 L 1810.0 165.0" stroke="#FF0000" fill="none" stroke-width="4px" />
<path d="M 1810.0 165.0 L 1800.0 165.0" stroke="#FF0000" fill="none" stroke-width="4px" />
<path d="M 1800.0 105.0 L 1790.0 105.0" stroke="#FF0000" fill="none" stroke-width="4px" />
<path d="M 1790.0 105.0 L 1800.0 95.0" stroke="#FF0000" fill="none" stroke-width="4px" />
<path d="M 1800.0 95.0 L 1810.0 95.0" stroke="#FF0000" fill="none" stroke-width="4px" />
<path d="M 1810.0 95.0 L 1820.0 95.0" stroke="#FF0000" fill="none" stroke-width="4px" />
<path d="M 1820.0 95.0 L 1820.0 105.0" stroke="#FF0000" fill="none" stroke-width="4px" />
<path d="M 1820.0 105.0 L 1810.0 105.0" stroke="#FF0000" fill="none" stroke-width="4px" />
<path d="M 1810.0 105.0 L 1830.0 105.0" stroke="#FF0000" fill="none" stroke-width="4px" />
<path d="M 2570.0 125.0 L 2560.0 125.0" stroke="#FF0000" fill="none" stroke-width="4px" />
<path d="M 2560.0 125.0 L 2550.0 125.0" stroke="#FF0000" fill="none" stroke-width="4px" />
<path d="M 2550.0 125.0 L 2540.0 125.0" stroke="#FF0000" fill="none" stroke-width="4px" />
<path d="M 2540.0 125.0 L 2530.0 125.0" stroke="#FF0000" fill="none" stroke-width="4px" />
<path d="M 2530.0 125.0 L 2520.0 125.0" stroke="#FF0000" fill="none" stroke-width="4px" />
<path d="M 2520.0 125.0 L 2510.0 125.0" stroke="#FF0000" fill="none" stroke-width="4px" />
<path d="M 2510.0 125.0 L 2500.0 125.0" stroke="#FF0000" fill="none" stroke-width="4px" />
<path d="M 2500.0 125.0 L 2500.0 135.0" stroke="#FF0000" fill="none" stroke-width="4px" />
<path d="M 2500.0 135.0 L 2490.0 135.0" stroke="#FF0000" fill="none" stroke-width="4px" />
<path d="M 2490.0 135.0 L 2490.0 145.0" stroke="#FF0000" fill="none" stroke-width="4px" />
<path d="M 2490.0 145.0 L 2480.0 145.0" stroke="#FF0000" fill="none" stroke-width="4px" />
<path d="M 2480.0 145.0 L 2480.0 155.0" stroke="#FF0000" fill="none" stroke-width="4px" />
<path d="M 2480.0 155.0 L 2470.0 155.0" stroke="#FF0000" fill="none" stroke-width="4px" />
<path d="M 2470.0 155.0 L 2470.0 165.0" stroke="#FF0000" fill="none" stroke-width="4px" />
<path d="M 2470.0 165.0 L 2460.0 165.0" stroke="#FF0000" fill="none" stroke-width="4px" />
<path d="M 2460.0 165.0 L 2460.0 175.0" stroke="#FF0000" fill="none" stroke-width="4px" />
<path d="M 2460.0 175.0 L 2470.0 175.0" stroke="#FF0000" fill="none" stroke-width="4px" />
<path d="M 2470.0 175.0 L 2480.0 175.0" stroke="#FF0000" fill="none" stroke-width="4px" />
<path d="M 2480.0 175.0 L 2490.0 175.0" stroke="#FF0000" fill="none" stroke-width="4px" />
<path d="M 2490.0 175.0 L 2500.0 175.0" stroke="#FF0000" fill="none" stroke-width="4px" />
<path d="M 2500.0 175.0 L 2510.0 175.0" stroke="#FF0000" fill="none" stroke-width="4px" />
<path d="M 2510.0 175.0 L 2520.0 175.0" stroke="#FF0000" fill="none" stroke-width="4px" />
<path d="M 2520.0 175.0 L 2530.0 175.0" stroke="#FF0000" fill="none" stroke-width="4px" />
<path d="M 2530.0 175.0 L 2530.0 165.0" stroke="#FF0000" fill="none" stroke-width="4px" />
<path d="M 2530.0 165.0 L 2520.0 165.0" stroke="#FF0000" fill="none" stroke-width="4px" />
<path d="M 2520.0 165.0 L 2510.0 165.0" stroke="#FF0000" fill="none" stroke-width="4px" />
<path d="M 2510.0 165.0 L 2500.0 165.0" stroke="#FF0000" fill="none" stroke-width="4px" />
<path d="M 2500.0 165.0 L 2490.0 165.0" stroke="#FF0000" fill="none" stroke-width="4px" />
<path d="M 2490.0 165.0 L 2480.0 165.0" stroke="#FF0000" fill="none" stroke-width="4px" />
<path d="M 2480.0 165.0 L 2490.0 155.0" stroke="#FF0000" fill="none" stroke-width="4px" />
<path d="M 2490.0 155.0 L 2500.0 155.0" stroke="#FF0000" fill="none" stroke-width="4px" />
<path d="M 2500.0 155.0 L 2510.0 155.0" stroke="#FF0000" fill="none" stroke-width="4px" />
<path d="M 2510.0 155.0 L 2520.0 155.0" stroke="#FF0000" fill="none" stroke-width="4px" />
<path d="M 2520.0 155.0 L 2530.0 155.0" stroke="#FF0000" fill="none" stroke-width="4px" />
<path d="M 2530.0 155.0 L 2540.0 155.0" stroke="#FF0000" fill="none" stroke-width="4px" />
<path d="M 2540.0 155.0 L 2540.0 145.0" stroke="#FF0000" fill="none" stroke-width="4px" />
<path d="M 2540.0 145.0 L 2530.0 145.0" stroke="#FF0000" fill="none" stroke-width="4px" />
<path d="M 2530.0 145.0 L 2520.0 145.0" stroke="#FF0000" fill="none" stroke-width="4px" />
<path d="M 2520.0 145.0 L 2510.0 145.0" stroke="#FF0000" fill="none" stroke-width="4px" />
<path d="M 2510.0 145.0 L 2500.0 145.0" stroke="#FF0000" fill="none" stroke-width="4px" />
<path d="M 2500.0 145.0 L 2510.0 135.0" stroke="#FF0000" fill="none" stroke-width="4px" />
<path d="M 2510.0 135.0 L 2520.0 135.0" stroke="#FF0000" fill="none" stroke-width="4px" />
<path d="M 2520.0 135.0 L 2530.0 135.0" stroke="#FF0000" fill="none" stroke-width="4px" />
<path d="M 2530.0 135.0 L 2540.0 135.0" stroke="#FF0000" fill="none" stroke-width="4px" />
<path d="M 2540.0 135.0 L 2550.0 135.0" stroke="#FF0000" fill="none" stroke-width="4px" />
<path d="M 2550.0 135.0 L 2560.0 135.0" stroke="#FF0000" fill="none" stroke-width="4px" />
<path d="M 2560.0 135.0 L 2550.0 145.0" stroke="#FF0000" fill="none" stroke-width="4px" />
<path d="M 2550.0 115.0 L 2540.0 115.0" stroke="#FF0000" fill="none" stroke-width="4px" />
<path d="M 2540.0 115.0 L 2530.0 115.0" stroke="#FF0000" fill="none" stroke-width="4px" />
<path d="M 2530.0 115.0 L 2520.0 115.0" stroke="#FF0000" fill="none" stroke-width="4px" />
<path d="M 2520.0 115.0 L 2510.0 115.0" stroke="#FF0000" fill="none" stroke-width="4px" />
<path d="M 2510.0 115.0 L 2500.0 115.0" stroke="#FF0000" fill="none" stroke-width="4px" />
<path d="M 2500.0 115.0 L 2500.0 105.0" stroke="#FF0000" fill="none" stroke-width="4px" />
<path d="M 2500.0 105.0 L 2510.0 105.0" stroke="#FF0000" fill="none" stroke-width="4px" />
<path d="M 2510.0 105.0 L 2520.0 105.0" stroke="#FF0000" fill="none" stroke-width="4px" />
<path d="M 2520.0 105.0 L 2530.0 105.0" stroke="#FF0000" fill="none" stroke-width="4px" />
<path d="M 2530.0 105.0 L 2540.0 105.0" stroke="#FF0000" fill="none" stroke-width="4px" />
<path d="M 2540.0 105.0 L 2550.0 105.0" stroke="#FF0000" fill="none" stroke-width="4px" />
<path d="M 2550.0 105.0 L 2560.0 115.0" stroke="#FF0000" fill="none" stroke-width="4px" />
<path d="M 2540.0 95.0 L 2530.0 95.0" stroke="#FF0000" fill="none" stroke-width="4px" />
<path d="M 2530.0 95.0 L 2520.0 95.0" stroke="#FF0000" fill="none" stroke-width="4px" />
<path d="M 2520.0 95.0 L 2510.0 95.0" stroke="#FF0000" fill="none" stroke-width="4px" />
<path d="M 2510.0 95.0 L 2520.0 85.0" stroke="#FF0000" fill="none" stroke-width="4px" />
<path d="M 2520.0 85.0 L 2530.0 85.0" stroke="#FF0000" fill="none" stroke-width="4px" />
<path d="M 2520.0 185.0 L 2510.0 185.0" stroke="#FF0000" fill="none" stroke-width="4px" />
<path d="M 2510.0 185.0 L 2500.0 185.0" stroke="#FF0000" fill="none" stroke-width="4px" />
<path d="M 2500.0 185.0 L 2490.0 185.0" stroke="#FF0000" fill="none" stroke-width="4px" />
<path d="M 2490.0 185.0 L 2480.0 185.0" stroke="#FF0000" fill="none" stroke-width="4px" />
<path d="M 2480.0 185.0 L 2470.0 185.0" stroke="#FF0000" fill="none" stroke-width="4px" />
<path d="M 2470.0 185.0 L 2480.0 195.0" stroke="#FF0000" fill="none" stroke-width="4px" />
<path d="M 2480.0 195.0 L 2490.0 195.0" stroke="#FF0000" fill="none" stroke-width="4px" />
<path d="M 2490.0 195.0 L 2500.0 195.0" stroke="#FF0000" fill="none" stroke-width="4px" />
<path d="M 2500.0 195.0 L 2510.0 195.0" stroke="#FF0000" fill="none" stroke-width="4px" />
</svg>