<svg width="2472.26666667" height="235.0" xmlns="http://www.w3.org/2000/svg" version="1.1">
<path d="M 0.0 235.0 L 1985.0 235.0 L 1985.0 0.0 L 0.0 0.0 L 0.0 235.0" stroke="#000000" fill="none" stroke-width="3px" />
<path d="M 2472.26666667 235.0 L 1885.0 235.0 L 1885.0 0.0 L 2472.26666667 0.0 L 2472.26666667 235.0" stroke="#000000" fill="none" stroke-width="3px" />
<path d="M 10.0 257.5 L 0.0 247.5 L 10.0 237.5" stroke="#969696" fill="none" stroke-width="1px" />
<path d="M 10.0 237.5 L 1975.0 237.5" stroke="#969696" fill="none" stroke-width="1px" />
<path d="M 1975.0 237.5 L 1985.0 227.5 L 1975.0 217.5" stroke="#969696" fill="none" stroke-width="1px" />
<path d="M 1975.0 217.5 L 10.0 217.5" stroke="#969696" fill="none" stroke-width="1px" />
<path d="M 10.0 217.5 L 0.0 207.5 L 10.0 197.5" stroke="#969696" fill="none" stroke-width="1px" />
<path d="M 10.0 197.5 L 1975.0 197.5" stroke="#969696" fill="none" stroke-width="1px" />
<path d="M 1975.0 197.5 L 1985.0 187.5 L 1975.0 177.5" stroke="#969696" fill="none" stroke-width="1px" />
<path d="M 1975.0 177.5 L 10.0 177.5" stroke="#969696" fill="none" stroke-width="1px" />
<path d="M 10.0 177.5 L 0.0 167.5 L 10.0 157.5" stroke="#969696" fill="none" stroke-width="1px" />
<path d="M 10.0 157.5 L 1975.0 157.5" stroke="#969696" fill="none" stroke-width="1px" />
<path d="M 1975.0 157.5 L 1985.0 147.5 L 1975.0 137.5" stroke="#969696" fill="none" stroke-width="1px" />
<path d="M 1975.0 137.5 L 10.0 137.5" stroke="#969696" fill="none" stroke-width="1px" />
<path d="M 10.0 137.5 L 0.0 127.5 L 10.0 117.5" stroke="#969696" fill="none" stroke-width="1px" />
<path d="M 10.0 117.5 L 1975.0 117.5" stroke="#969696" fill="none" stroke-width="1px" />
<path d="M 1975.0 117.5 L 1985.0 107.5 L 1975.0 97.5" stroke="#969696" fill="none" stroke-width="1px" />
<path d="M 1975.0 97.5 L 10.0 97.5" stroke="#969696" fill="none" stroke-width="1px" />
<path d="M 10.0 97.5 L 0.0 87.5 L 10.0 77.5" stroke="#969696" fill="none" stroke-width="1px" />
<path d="M 10.0 77.5 L 1975.0 77.5" stroke="#969696" fill="none" stroke-width="1px" />
<path d="M 1975.0 77.5 L 1985.0 67.5 L 1975.0 57.5" stroke="#969696" fill="none" stroke-width="1px" />
<path d="M 1975.0 57.5 L 10.0 57.5" stroke="#969696" fill="none" stroke-width="1px" />
<path d="M 10.0 57.5 L 0.0 47.5 L 10.0 37.5" stroke="#969696" fill="none" stroke-width="1px" />
<path d="M 10.0 37.5 L 1975.0 37.5" stroke="#969696" fill="none" stroke-width="1px" />
<path d="M 1975.0 37.5 L 1985.0 27.5 L 1975.0 17.5" stroke="#969696" fill="none" stroke-width="1px" />
<path d="M 1975.0 17.5 L 10.0 17.5" stroke="#969696" fill="none" stroke-width="1px" />
<path d="M 10.0 17.5 L 0.0 7.5 L 10.0 -2.5" stroke="#969696" fill="none" stroke-width="1px" />
<path d="M 10.0 -2.5 L 1975.0 -2.5" stroke="#969696" fill="none" stroke-width="1px" />
<path d="M 1975.0 -2.5 L 1985.0 -12.5 L 1975.0 -22.5" stroke="#969696" fill="none" stroke-width="1px" />
<path d="M 2462.26666667 257.5 L 2472.26666667 247.5 L 2462.26666667 237.5" stroke="#969696" fill="none" stroke-width="1px" />
<path d="M 2462.26666667 237.5 L 1895.0 237.5" stroke="#969696" fill="none" stroke-width="1px" />
<path d="M 1895.0 237.5 L 1885.0 227.5 L 1895.0 217.5" stroke="#969696" fill="none" stroke-width="1px" />
<path d="M 1895.0 217.5 L 2462.26666667 217.5" stroke="#969696" fill="none" stroke-width="1px" />
<path d="M 2462.26666667 217.5 L 2472.26666667 207.5 L 2462.26666667 197.5" stroke="#969696" fill="none" stroke-width="1px" />
<path d="M 2462.26666667 197.5 L 1895.0 197.5" stroke="#969696" fill="none" stroke-width="1px" />
<path d="M 1895.0 197.5 L 1885.0 187.5 L 1895.0 177.5" stroke="#969696" fill="none" stroke-width="1px" />
<path d="M 1895.0 177.5 L 2462.26666667 177.5" stroke="#969696" fill="none" stroke-width="1px" />
<path d="M 2462.26666667 177.5 L 2472.26666667 167.5 L 2462.26666667 157.5" stroke="#969696" fill="none" stroke-width="1px" />
<path d="M 2462.26666667 157.5 L 1895.0 157.5" stroke="#969696" fill="none" stroke-width="1px" />
<path d="M 1895.0 157.5 L 1885.0 147.5 L 1895.0 137.5" stroke="#969696" fill="none" stroke-width="1px" />
<path d="M 1895.0 137.5 L 2462.26666667 137.5" stroke="#969696" fill="none" stroke-width="1px" />
<path d="M 2462.26666667 137.5 L 2472.26666667 127.5 L 2462.26666667 117.5" stroke="#969696" fill="none" stroke-width="1px" />
<path d="M 2462.26666667 117.5 L 1895.0 117.5" stroke="#969696" fill="none" stroke-width="1px" />
<path d="M 1895.0 117.5 L 1885.0 107.5 L 1895.0 97.5" stroke="#969696" fill="none" stroke-width="1px" />
<path d="M 1895.0 97.5 L 2462.26666667 97.5" stroke="#969696" fill="none" stroke-width="1px" />
<path d="M 2462.26666667 97.5 L 2472.26666667 87.5 L 2462.26666667 77.5" stroke="#969696" fill="none" stroke-width="1px" />
<path d="M 2462.26666667 77.5 L 1895.0 77.5" stroke="#969696" fill="none" stroke-width="1px" />
<path d="M 1895.0 77.5 L 1885.0 67.5 L 1895.0 57.5" stroke="#969696" fill="none" stroke-width="1px" />
<path d="M 1895.0 57.5 L 2462.26666667 57.5" stroke="#969696" fill="none" stroke-width="1px" />
<path d="M 2462.26666667 57.5 L 2472.26666667 47.5 L 2462.26666667 37.5" stroke="#969696" fill="none" stroke-width="1px" />
<path d="M 2462.26666667 37.5 L 1895.0 37.5" stroke="#969696" fill="none" stroke-width="1px" />
<path d="M 1895.0 37.5 L 1885.0 27.5 L 1895.0 17.5" stroke="#969696" fill="none" stroke-width="1px" />
<path d="M 1895.0 17.5 L 2462.26666667 17.5" stroke="#969696" fill="none" stroke-width="1px" />
<path d="M 2462.26666667 17.5 L 2472.26666667 7.5 L 2462.26666667 -2.5" stroke="#969696" fill="none" stroke-width="1px" />
<path d="M 2462.26666667 -2.5 L 1895.0 -2.5" stroke="#969696" fill="none" stroke-width="1px" />
<path d="M 1895.0 -2.5 L 1885.0 -12.5 L 1895.0 -22.5" stroke="#969696" fill="none" stroke-width="1px" />
<path d="M 0.0 235.0 L 610.0 235.0" stroke="#0095FF" fill="none" stroke-width="2px" />
<path d="M 610.0 235.0 L 610.0 65.0" stroke="#0095FF" fill="none" stroke-width="2px" />
<path d="M 620.0 75.0 L 620.0 55.0" stroke="#0095FF" fill="none" stroke-width="2px" />
<path d="M 630.0 55.0 L 700.0 55.0" stroke="#0095FF" fill="none" stroke-width="2px" />
<path d="M 700.0 55.0 L 700.0 45.0" stroke="#0095FF" fill="none" stroke-width="2px" />
<path d="M 830.0 55.0 L 820.0 55.0" stroke="#0095FF" fill="none" stroke-width="2px" />
<path d="M 820.0 55.0 L 820.0 75.0" stroke="#0095FF" fill="none" stroke-width="2px" />
<path d="M 730.0 75.0 L 770.0 75.0" stroke="#0095FF" fill="none" stroke-width="2px" />
<path d="M 770.0 75.0 L 770.0 85.0" stroke="#0095FF" fill="none" stroke-width="2px" />
<path d="M 810.0 85.0 L 810.0 35.0" stroke="#0095FF" fill="none" stroke-width="2px" />
<path d="M 720.0 -5.0 L 1210.0 -5.0" stroke="#0095FF" fill="none" stroke-width="2px" />
<path d="M 1210.0 -5.0 L 1210.0 155.0" stroke="#0095FF" fill="none" stroke-width="2px" />
<path d="M 1290.0 215.0 L 1250.0 215.0" stroke="#0095FF" fill="none" stroke-width="2px" />
<path d="M 1250.0 215.0 L 1250.0 205.0" stroke="#0095FF" fill="none" stroke-width="2px" />
<path d="M 1230.0 215.0 L 1260.0 215.0" stroke="#0095FF" fill="none" stroke-width="2px" />
<path d="M 1260.0 215.0 L 1260.0 165.0" stroke="#0095FF" fill="none" stroke-width="2px" />
<path d="M 1270.0 155.0 L 1290.0 155.0" stroke="#0095FF" fill="none" stroke-width="2px" />
<path d="M 1290.0 155.0 L 1290.0 145.0" stroke="#0095FF" fill="none" stroke-width="2px" />
<path d="M 1290.0 145.0 L 1240.0 145.0" stroke="#0095FF" fill="none" stroke-width="2px" />
<path d="M 610.0 65.0 L 620.0 65.0" stroke="#FF0000" fill="none" stroke-width="4px" />
<path d="M 620.0 65.0 L 630.0 65.0" stroke="#FF0000" fill="none" stroke-width="4px" />
<path d="M 630.0 65.0 L 640.0 65.0" stroke="#FF0000" fill="none" stroke-width="4px" />
<path d="M 640.0 65.0 L 630.0 75.0" stroke="#FF0000" fill="none" stroke-width="4px" />
<path d="M 630.0 75.0 L 620.0 75.0" stroke="#FF0000" fill="none" stroke-width="4px" />
<path d="M 620.0 55.0 L 610.0 55.0" stroke="#FF0000" fill="none" stroke-width="4px" />
<path d="M 610.0 55.0 L 620.0 45.0" stroke="#FF0000" fill="none" stroke-width="4px" />
<path d="M 620.0 45.0 L 630.0 55.0" stroke="#FF0000" fill="none" stroke-width="4px" />
<path d="M 700.0 45.0 L 710.0 45.0" stroke="#FF0000" fill="none" stroke-width="4px" />
<path d="M 710.0 45.0 L 720.0 45.0" stroke="#FF0000" fill="none" stroke-width="4px" />
<path d="M 720.0 45.0 L 730.0 45.0" stroke="#FF0000" fill="none" stroke-width="4px" />
<path d="M 730.0 45.0 L 740.0 45.0" stroke="#FF0000" fill="none" stroke-width="4px" />
<path d="M 740.0 45.0 L 750.0 45.0" stroke="#FF0000" fill="none" stroke-width="4px" />
<path d="M 750.0 45.0 L 760.0 45.0" stroke="#FF0000" fill="none" stroke-width="4px" />
<path d="M 760.0 45.0 L 770.0 45.0" stroke="#FF0000" fill="none" stroke-width="4px" />
<path d="M 770.0 45.0 L 780.0 45.0" stroke="#FF0000" fill="none" stroke-width="4px" />
<path d="M 780.0 45.0 L 790.0 45.0" stroke="#FF0000" fill="none" stroke-width="4px" />
<path d="M 790.0 45.0 L 800.0 45.0" stroke="#FF0000" fill="none" stroke-width="4px" />
<path d="M 800.0 45.0 L 810.0 45.0" stroke="#FF0000" fill="none" stroke-width="4px" />
<path d="M 810.0 45.0 L 820.0 45.0" stroke="#FF0000" fill="none" stroke-width="4px" />
<path d="M 820.0 45.0 L 820.0 55.0" stroke="#FF0000" fill="none" stroke-width="4px" />
<path d="M 820.0 55.0 L 810.0 55.0" stroke="#FF0000" fill="none" stroke-width="4px" />
<path d="M 810.0 55.0 L 800.0 55.0" stroke="#FF0000" fill="none" stroke-width="4px" />
<path d="M 800.0 55.0 L 790.0 55.0" stroke="#FF0000" fill="none" stroke-width="4px" />
<path d="M 790.0 55.0 L 780.0 55.0" stroke="#FF0000" fill="none" stroke-width="4px" />
<path d="M 780.0 55.0 L 770.0 55.0" stroke="#FF0000" fill="none" stroke-width="4px" />
<path d="M 770.0 55.0 L 760.0 55.0" stroke="#FF0000" fill="none" stroke-width="4px" />
<path d="M 760.0 55.0 L 750.0 55.0" stroke="#FF0000" fill="none" stroke-width="4px" />
<path d="M 750.0 55.0 L 740.0 55.0" stroke="#FF0000" fill="none" stroke-width="4px" />
<path d="M 740.0 55.0 L 730.0 55.0" stroke="#FF0000" fill="none" stroke-width="4px" />
<path d="M 730.0 55.0 L 720.0 55.0" stroke="#FF0000" fill="none" stroke-width="4px" />
<path d="M 720.0 55.0 L 710.0 55.0" stroke="#FF0000" fill="none" stroke-width="4px" />
<path d="M 710.0 55.0 L 720.0 65.0" stroke="#FF0000" fill="none" stroke-width="4px" />
<path d="M 720.0 65.0 L 730.0 65.0" stroke="#FF0000" fill="none" stroke-width="4px" />
<path d="M 730.0 65.0 L 740.0 65.0" stroke="#FF0000" fill="none" stroke-width="4px" />
<path d="M 740.0 65.0 L 750.0 65.0" stroke="#FF0000" fill="none" stroke-width="4px" />
<path d="M 750.0 65.0 L 760.0 65.0" stroke="#FF0000" fill="none" stroke-width="4px" />
<path d="M 760.0 65.0 L 770.0 65.0" stroke="#FF0000" fill="none" stroke-width="4px" />
<path d="M 770.0 65.0 L 780.0 65.0" stroke="#FF0000" fill="none" stroke-width="4px" />
<path d="M 780.0 65.0 L 790.0 65.0" stroke="#FF0000" fill="none" stroke-width="4px" />
<path d="M 790.0 65.0 L 800.0 65.0" stroke="#FF0000" fill="none" stroke-width="4px" />
<path d="M 800.0 65.0 L 810.0 65.0" stroke="#FF0000" fill="none" stroke-width="4px" />
<path d="M 810.0 65.0 L 820.0 65.0" stroke="#FF0000" fill="none" stroke-width="4px" />
<path d="M 820.0 65.0 L 830.0 65.0" stroke="#FF0000" fill="none" stroke-width="4px" />
<path d="M 830.0 65.0 L 830.0 55.0" stroke="#FF0000" fill="none" stroke-width="4px" />
<path d="M 820.0 75.0 L 810.0 75.0" stroke="#FF0000" fill="none" stroke-width="4px" />
<path d="M 810.0 75.0 L 800.0 75.0" stroke="#FF0000" fill="none" stroke-width="4px" />
<path d="M 800.0 75.0 L 790.0 75.0" stroke="#FF0000" fill="none" stroke-width="4px" />
<path d="M 790.0 75.0 L 780.0 75.0" stroke="#FF0000" fill="none" stroke-width="4px" />
<path d="M 780.0 75.0 L 770.0 75.0" stroke="#FF0000" fill="none" stroke-width="4px" />
<path d="M 770.0 75.0 L 760.0 75.0" stroke="#FF0000" fill="none" stroke-width="4px" />
<path d="M 760.0 75.0 L 750.0 75.0" stroke="#FF0000" fill="none" stroke-width="4px" />
<path d="M 750.0 75.0 L 740.0 75.0" stroke="#FF0000" fill="none" stroke-width="4px" />
<path d="M 740.0 75.0 L 730.0 75.0" stroke="#FF0000" fill="none" stroke-width="4px" />
<path d="M 770.0 85.0 L 780.0 85.0" stroke="#FF0000" fill="none" stroke-width="4px" />
<path d="M 780.0 85.0 L 790.0 85.0" stroke="#FF0000" fill="none" stroke-width="4px" />
<path d="M 790.0 85.0 L 800.0 85.0" stroke="#FF0000" fill="none" stroke-width="4px" />
<path d="M 800.0 85.0 L 810.0 85.0" stroke="#FF0000" fill="none" stroke-width="4px" />
<path d="M 810.0 35.0 L 800.0 35.0" stroke="#FF0000" fill="none" stroke-width="4px" />
<path d="M 800.0 35.0 L 790.0 35.0" stroke="#FF0000" fill="none" stroke-width="4px" />
<path d="M 790.0 35.0 L 780.0 35.0" stroke="#FF0000" fill="none" stroke-width="4px" />
<path d="M 780.0 35.0 L 770.0 35.0" stroke="#FF0000" fill="none" stroke-width="4px" />
<path d="M 770.0 35.0 L 760.0 35.0" stroke="#FF0000" fill="none" stroke-width="4px" />
<path d="M 760.0 35.0 L 750.0 35.0" stroke="#FF0000" fill="none" stroke-width="4px" />
<path d="M 750.0 35.0 L 740.0 35.0" stroke="#FF0000" fill="none" stroke-width="4px" />
<path d="M 740.0 35.0 L 730.0 35.0" stroke="#FF0000" fill="none" stroke-width="4px" />
<path d="M 730.0 35.0 L 720.0 35.0" stroke="#FF0000" fill="none" stroke-width="4px" />
<path d="M 720.0 35.0 L 710.0 35.0" stroke="#FF0000" fill="none" stroke-width="4px" />
<path d="M 710.0 35.0 L 700.0 35.0" stroke="#FF0000" fill="none" stroke-width="4px" />
<path d="M 700.0 35.0 L 710.0 25.0" stroke="#FF0000" fill="none" stroke-width="4px" />
<path d="M 710.0 25.0 L 720.0 25.0" stroke="#FF0000" fill="none" stroke-width="4px" />
<path d="M 720.0 25.0 L 730.0 25.0" stroke="#FF0000" fill="none" stroke-width="4px" />
<path d="M 730.0 25.0 L 740.0 25.0" stroke="#FF0000" fill="none" stroke-width="4px" />
<path d="M 740.0 25.0 L 750.0 25.0" stroke="#FF0000" fill="none" stroke-width="4px" />
<path d="M 750.0 25.0 L 760.0 25.0" stroke="#FF0000" fill="none" stroke-width="4px" />
<path d="M 760.0 25.0 L 770.0 25.0" stroke="#FF0000" fill="none" stroke-width="4px" />
<path d="M 770.0 25.0 L 770.0 15.0" stroke="#FF0000" fill="none" stroke-width="4px" />
<path d="M 770.0 15.0 L 760.0 15.0" stroke="#FF0000" fill="none" stroke-width="4px" />
<path d="M 760.0 15.0 L 750.0 15.0" stroke="#FF0000" fill="none" stroke-width="4px" />
<path d="M 750.0 15.0 L 740.0 15.0" stroke="#FF0000" fill="none" stroke-width="4px" />
<path d="M 740.0 15.0 L 730.0 15.0" stroke="#FF0000" fill="none" stroke-width="4px" />
<path d="M 730.0 15.0 L 720.0 15.0" stroke="#FF0000" fill="none" stroke-width="4px" />
<path d="M 720.0 15.0 L 710.0 15.0" stroke="#FF0000" fill="none" stroke-width="4px" />
<path d="M 710.0 15.0 L 720.0 5.0" stroke="#FF0000" fill="none" stroke-width="4px" />
<path d="M 720.0 5.0 L 730.0 5.0" stroke="#FF0000" fill="none" stroke-width="4px" />
<path d="M 730.0 5.0 L 740.0 5.0" stroke="#FF0000" fill="none" stroke-width="4px" />
<path d="M 740.0 5.0 L 750.0 5.0" stroke="#FF0000" fill="none" stroke-width="4px" />
<path d="M 750.0 5.0 L 760.0 5.0" stroke="#FF0000" fill="none" stroke-width="4px" />
<path d="M 760.0 5.0 L 750.0 -5.0" stroke="#FF0000" fill="none" stroke-width="4px" />
<path d="M 750.0 -5.0 L 740.0 -5.0" stroke="#FF0000" fill="none" stroke-width="4px" />
<path d="M 740.0 -5.0 L 730.0 -5.0" stroke="#FF0000" fill="none" stroke-width="4px" />
<path d="M 730.0 -5.0 L 720.0 -5.0" stroke="#FF0000" fill="none" stroke-width="4px" />
<path d="M 1210.0 155.0 L 1220.0 155.0" stroke="#FF0000" fill="none" stroke-width="4px" />
<path d="M 1220.0 155.0 L 1230.0 155.0" stroke="#FF0000" fill="none" stroke-width="4px" />
<path d="M 1230.0 155.0 L 1240.0 155.0" stroke="#FF0000" fill="none" stroke-width="4px" />
<path d="M 1240.0 155.0 L 1250.0 155.0" stroke="#FF0000" fill="none" stroke-width="4px" />
<path d="M 1250.0 155.0 L 1250.0 165.0" stroke="#FF0000" fill="none" stroke-width="4px" />
<path d="M 1250.0 165.0 L 1240.0 165.0" stroke="#FF0000" fill="none" stroke-width="4px" />
<path d="M 1240.0 165.0 L 1230.0 165.0" stroke="#FF0000" fill="none" stroke-width="4px" />
<path d="M 1230.0 165.0 L 1220.0 165.0" stroke="#FF0000" fill="none" stroke-width="4px" />
<path d="M 1220.0 165.0 L 1210.0 165.0" stroke="#FF0000" fill="none" stroke-width="4px" />
<path d="M 1210.0 165.0 L 1210.0 175.0" stroke="#FF0000" fill="none" stroke-width="4px" />
<path d="M 1210.0 175.0 L 1220.0 175.0" stroke="#FF0000" fill="none" stroke-width="4px" />
<path d="M 1220.0 175.0 L 1230.0 175.0" stroke="#FF0000" fill="none" stroke-width="4px" />
<path d="M 1230.0 175.0 L 1240.0 175.0" stroke="#FF0000" fill="none" stroke-width="4px" />
<path d="M 1240.0 175.0 L 1250.0 175.0" stroke="#FF0000" fill="none" stroke-width="4px" />
<path d="M 1250.0 175.0 L 1260.0 175.0" stroke="#FF0000" fill="none" stroke-width="4px" />
<path d="M 1260.0 175.0 L 1270.0 175.0" stroke="#FF0000" fill="none" stroke-width="4px" />
<path d="M 1270.0 175.0 L 1280.0 175.0" stroke="#FF0000" fill="none" stroke-width="4px" />
<path d="M 1280.0 175.0 L 1290.0 175.0" stroke="#FF0000" fill="none" stroke-width="4px" />
<path d="M 1290.0 175.0 L 1300.0 175.0" stroke="#FF0000" fill="none" stroke-width="4px" />
<path d="M 1300.0 175.0 L 1310.0 175.0" stroke="#FF0000" fill="none" stroke-width="4px" />
<path d="M 1310.0 175.0 L 1310.0 185.0" stroke="#FF0000" fill="none" stroke-width="4px" />
<path d="M 1310.0 185.0 L 1300.0 185.0" stroke="#FF0000" fill="none" stroke-width="4px" />
<path d="M 1300.0 185.0 L 1290.0 185.0" stroke="#FF0000" fill="none" stroke-width="4px" />
<path d="M 1290.0 185.0 L 1280.0 185.0" stroke="#FF0000" fill="none" stroke-width="4px" />
<path d="M 1280.0 185.0 L 1270.0 185.0" stroke="#FF0000" fill="none" stroke-width="4px" />
<path d="M 1270.0 185.0 L 1260.0 185.0" stroke="#FF0000" fill="none" stroke-width="4px" />
<path d="M 1260.0 185.0 L 1250.0 185.0" stroke="#FF0000" fill="none" stroke-width="4px" />
<path d="M 1250.0 185.0 L 1240.0 185.0" stroke="#FF0000" fill="none" stroke-width="4px" />
<path d="M 1240.0 185.0 L 1230.0 185.0" stroke="#FF0000" fill="none" stroke-width="4px" />
<path d="M 1230.0 185.0 L 1220.0 185.0" stroke="#FF0000" fill="none" stroke-width="4px" />
<path d="M 1220.0 185.0 L 1210.0 185.0" stroke="#FF0000" fill="none" stroke-width="4px" />
<path d="M 1210.0 185.0 L 1210.0 195.0" stroke="#FF0000" fill="none" stroke-width="4px" />
<path d="M 1210.0 195.0 L 1220.0 195.0" stroke="#FF0000" fill="none" stroke-width="4px" />
<path d="M 1220.0 195.0 L 1230.0 195.0" stroke="#FF0000" fill="none" stroke-width="4px" />
<path d="M 1230.0 195.0 L 1240.0 195.0" stroke="#FF0000" fill="none" stroke-width="4px" />
<path d="M 1240.0 195.0 L 1250.0 195.0" stroke="#FF0000" fill="none" stroke-width="4px" />
<path d="M 1250.0 195.0 L 1260.0 195.0" stroke="#FF0000" fill="none" stroke-width="4px" />
<path d="M 1260.0 195.0 L 1270.0 195.0" stroke="#FF0000" fill="none" stroke-width="4px" />
<path d="M 1270.0 195.0 L 1280.0 195.0" stroke="#FF0000" fill="none" stroke-width="4px" />
<path d="M 1280.0 195.0 L 1290.0 195.0" stroke="#FF0000" fill="none" stroke-width="4px" />
<path d="M 1290.0 195.0 L 1300.0 195.0" stroke="#FF0000" fill="none" stroke-width="4px" />
<path d="M 1300.0 195.0 L 1310.0 195.0" stroke="#FF0000" fill="none" stroke-width="4px" />
<path d="M 1310.0 195.0 L 1300.0 205.0" stroke="#FF0000" fill="none" stroke-width="4px" />
<path d="M 1300.0 205.0 L 1290.0 205.0" stroke="#FF0000" fill="none" stroke-width="4px" />
<path d="M 1290.0 205.0 L 1280.0 205.0" stroke="#FF0000" fill="none" stroke-width="4px" />
<path d="M 1280.0 205.0 L 1270.0 205.0" stroke="#FF0000" fill="none" stroke-width="4px" />
<path d="M 1270.0 205.0 L 1280.0 215.0" stroke="#FF0000" fill="none" stroke-width="4px" />
<path d="M 1280.0 215.0 L 1290.0 215.0" stroke="#FF0000" fill="none" stroke-width="4px" />
<path d="M 1250.0 205.0 L 1240.0 205.0" stroke="#FF0000" fill="none" stroke-width="4px" />
<path d="M 1240.0 205.0 L 1230.0 205.0" stroke="#FF0000" fill="none" stroke-width="4px" />
<path d="M 1230.0 205.0 L 1220.0 205.0" stroke="#FF0000" fill="none" stroke-width="4px" />
<path d="M 1220.0 205.0 L 1230.0 215.0" stroke="#FF0000" fill="none" stroke-width="4px" />
<path d="M 1260.0 165.0 L 1270.0 165.0" stroke="#FF0000" fill="none" stroke-width="4px" />
<path d="M 1270.0 165.0 L 1280.0 165.0" stroke="#FF0000" fill="none" stroke-width="4px" />
<path d="M 1280.0 165.0 L 1290.0 165.0" stroke="#FF0000" fill="none" stroke-width="4px" />
<path d="M 1290.0 165.0 L 1300.0 165.0" stroke="#FF0000" fill="none" stroke-width="4px" />
<path d="M 1300.0 165.0 L 1310.0 165.0" stroke="#FF0000" fill="none" stroke-width="4px" />
<path d="M 1310.0 165.0 L 1300.0 155.0" stroke="#FF0000" fill="none" stroke-width="4px" />
<path d="M 1300.0 155.0 L 1290.0 155.0" stroke="#FF0000" fill="none" stroke-width="4px" />
<path d="M 1290.0 155.0 L 1280.0 155.0" stroke="#FF0000" fill="none" stroke-width="4px" />
<path d="M 1280.0 155.0 L 1270.0 155.0" stroke="#FF0000" fill="none" stroke-width="4px" />
<path d="M 1240.0 145.0 L 1230.0 145.0" stroke="#FF0000" fill="none" stroke-width="4px" />
<path d="M 1230.0 145.0 L 1220.0 145.0" stroke="#FF0000" fill="none" stroke-width="4px" />
</svg>