<svg width="2472.26666667" height="235.0" xmlns="http://www.w3.org/2000/svg" version="1.1">
<path d="M 0.0 235.0 L 1810.0 235.0 L 1810.0 0.0 L 0.0 0.0 L 0.0 235.0" stroke="#000000" fill="none" stroke-width="3px" />
<path d="M 2472.26666667 235.0 L 1710.0 235.0 L 1710.0 0.0 L 2472.26666667 0.0 L 2472.26666667 235.0" stroke="#000000" fill="none" stroke-width="3px" />
<path d="M 10.0 257.5 L 0.0 247.5 L 10.0 237.5" stroke="#969696" fill="none" stroke-width="1px" />
<path d="M 10.0 237.5 L 1800.0 237.5" stroke="#969696" fill="none" stroke-width="1px" />
<path d="M 1800.0 237.5 L 1810.0 227.5 L 1800.0 217.5" stroke="#969696" fill="none" stroke-width="1px" />
<path d="M 1800.0 217.5 L 10.0 217.5" stroke="#969696" fill="none" stroke-width="1px" />
<path d="M 10.0 217.5 L 0.0 207.5 L 10.0 197.5" stroke="#969696" fill="none" stroke-width="1px" />
<path d="M 10.0 197.5 L 1800.0 197.5" stroke="#969696" fill="none" stroke-width="1px" />
<path d="M 1800.0 197.5 L 1810.0 187.5 L 1800.0 177.5" stroke="#969696" fill="none" stroke-width="1px" />
<path d="M 1800.0 177.5 L 10.0 177.5" stroke="#969696" fill="none" stroke-width="1px" />
<path d="M 10.0 177.5 L 0.0 167.5 L 10.0 157.5" stroke="#969696" fill="none" stroke-width="1px" />
<path d="M 10.0 157.5 L 1800.0 157.5" stroke="#969696" fill="none" stroke-width="1px" />
<path d="M 1800.0 157.5 L 1810.0 147.5 L 1800.0 137.5" stroke="#969696" fill="none" stroke-width="1px" />
<path d="M 1800.0 137.5 L 10.0 137.5" stroke="#969696" fill="none" stroke-width="1px" />
<path d="M 10.0 137.5 L 0.0 127.5 L 10.0 117.5" stroke="#969696" fill="none" stroke-width="1px" />
<path d="M 10.0 117.5 L 1800.0 117.5" stroke="#969696" fill="none" stroke-width="1px" />
<path d="M 1800.0 117.5 L 1810.0 107.5 L 1800.0 97.5" stroke="#969696" fill="none" stroke-width="1px" />
<path d="M 1800.0 97.5 L 10.0 97.5" stroke="#969696" fill="none" stroke-width="1px" />
<path d="M 10.0 97.5 L 0.0 87.5 L 10.0 77.5" stroke="#969696" fill="none" stroke-width="1px" />
<path d="M 10.0 77.5 L 1800.0 77.5" stroke="#969696" fill="none" stroke-width="1px" />
<path d="M 1800.0 77.5 L 1810.0 67.5 L 1800.0 57.5" stroke="#969696" fill="none" stroke-width="1px" />
<path d="M 1800.0 57.5 L 10.0 57.5" stroke="#969696" fill="none" stroke-width="1px" />
<path d="M 10.0 57.5 L 0.0 47.5 L 10.0 37.5" stroke="#969696" fill="none" stroke-width="1px" />
<path d="M 10.0 37.5 L 1800.0 37.5" stroke="#969696" fill="none" stroke-width="1px" />
<path d="M 1800.0 37.5 L 1810.0 27.5 L 1800.0 17.5" stroke="#969696" fill="none" stroke-width="1px" />
<path d="M 1800.0 17.5 L 10.0 17.5" stroke="#969696" fill="none" stroke-width="1px" />
<path d="M 10.0 17.5 L 0.0 7.5 L 10.0 -2.5" stroke="#969696" fill="none" stroke-width="1px" />
<path d="M 10.0 -2.5 L 1800.0 -2.5" stroke="#969696" fill="none" stroke-width="1px" />
<path d="M 1800.0 -2.5 L 1810.0 -12.5 L 1800.0 -22.5" stroke="#969696" fill="none" stroke-width="1px" />
<path d="M 2462.26666667 257.5 L 2472.26666667 247.5 L 2462.26666667 237.5" stroke="#969696" fill="none" stroke-width="1px" />
<path d="M 2462.26666667 237.5 L 1720.0 237.5" stroke="#969696" fill="none" stroke-width="1px" />
<path d="M 1720.0 237.5 L 1710.0 227.5 L 1720.0 217.5" stroke="#969696" fill="none" stroke-width="1px" />
<path d="M 1720.0 217.5 L 2462.26666667 217.5" stroke="#969696" fill="none" stroke-width="1px" />
<path d="M 2462.26666667 217.5 L 2472.26666667 207.5 L 2462.26666667 197.5" stroke="#969696" fill="none" stroke-width="1px" />
<path d="M 2462.26666667 197.5 L 1720.0 197.5" stroke="#969696" fill="none" stroke-width="1px" />
<path d="M 1720.0 197.5 L 1710.0 187.5 L 1720.0 177.5" stroke="#969696" fill="none" stroke-width="1px" />
<path d="M 1720.0 177.5 L 2462.26666667 177.5" stroke="#969696" fill="none" stroke-width="1px" />
<path d="M 2462.26666667 177.5 L 2472.26666667 167.5 L 2462.26666667 157.5" stroke="#969696" fill="none" stroke-width="1px" />
<path d="M 2462.26666667 157.5 L 1720.0 157.5" stroke="#969696" fill="none" stroke-width="1px" />
<path d="M 1720.0 157.5 L 1710.0 147.5 L 1720.0 137.5" stroke="#969696" fill="none" stroke-width="1px" />
<path d="M 1720.0 137.5 L 2462.26666667 137.5" stroke="#969696" fill="none" stroke-width="1px" />
<path d="M 2462.26666667 137.5 L 2472.26666667 127.5 L 2462.26666667 117.5" stroke="#969696" fill="none" stroke-width="1px" />
<path d="M 2462.26666667 117.5 L 1720.0 117.5" stroke="#969696" fill="none" stroke-width="1px" />
<path d="M 1720.0 117.5 L 1710.0 107.5 L 1720.0 97.5" stroke="#969696" fill="none" stroke-width="1px" />
<path d="M 1720.0 97.5 L 2462.26666667 97.5" stroke="#969696" fill="none" stroke-width="1px" />
<path d="M 2462.26666667 97.5 L 2472.26666667 87.5 L 2462.26666667 77.5" stroke="#969696" fill="none" stroke-width="1px" />
<path d="M 2462.26666667 77.5 L 1720.0 77.5" stroke="#969696" fill="none" stroke-width="1px" />
<path d="M 1720.0 77.5 L 1710.0 67.5 L 1720.0 57.5" stroke="#969696" fill="none" stroke-width="1px" />
<path d="M 1720.0 57.5 L 2462.26666667 57.5" stroke="#969696" fill="none" stroke-width="1px" />
<path d="M 2462.26666667 57.5 L 2472.26666667 47.5 L 2462.26666667 37.5" stroke="#969696" fill="none" stroke-width="1px" />
<path d="M 2462.26666667 37.5 L 1720.0 37.5" stroke="#969696" fill="none" stroke-width="1px" />
<path d="M 1720.0 37.5 L 1710.0 27.5 L 1720.0 17.5" stroke="#969696" fill="none" stroke-width="1px" />
<path d="M 1720.0 17.5 L 2462.26666667 17.5" stroke="#969696" fill="none" stroke-width="1px" />
<path d="M 2462.26666667 17.5 L 2472.26666667 7.5 L 2462.26666667 -2.5" stroke="#969696" fill="none" stroke-width="1px" />
<path d="M 2462.26666667 -2.5 L 1720.0 -2.5" stroke="#969696" fill="none" stroke-width="1px" />
<path d="M 1720.0 -2.5 L 1710.0 -12.5 L 1720.0 -22.5" stroke="#969696" fill="none" stroke-width="1px" />
<path d="M 0.0 235.0 L 630.0 65.0" stroke="#0095FF" fill="none" stroke-width="2px" />
<path d="M 640.0 75.0 L 660.0 85.0" stroke="#0095FF" fill="none" stroke-width="2px" />
<path d="M 680.0 155.0 L 740.0 115.0" stroke="#0095FF" fill="none" stroke-width="2px" />
<path d="M 740.0 115.0 L 720.0 95.0" stroke="#0095FF" fill="none" stroke-width="2px" />
<path d="M 710.0 95.0 L 670.0 55.0" stroke="#0095FF" fill="none" stroke-width="2px" />
<path d="M 660.0 45.0 L 970.0 95.0" stroke="#0095FF" fill="none" stroke-width="2px" />
<path d="M 990.0 135.0 L 990.0 85.0" stroke="#0095FF" fill="none" stroke-width="2px" />
<path d="M 980.0 85.0 L 1180.0 145.0" stroke="#0095FF" fill="none" stroke-width="2px" />
<path d="M 1260.0 205.0 L 1230.0 215.0" stroke="#0095FF" fill="none" stroke-width="2px" />
<path d="M 1230.0 215.0 L 1230.0 135.0" stroke="#0095FF" fill="none" stroke-width="2px" />
<path d="M 1260.0 135.0 L 1290.0 135.0" stroke="#0095FF" fill="none" stroke-width="2px" />
<path d="M 1300.0 135.0 L 1320.0 155.0" stroke="#0095FF" fill="none" stroke-width="2px" />
<path d="M 1320.0 155.0 L 1240.0 115.0" stroke="#0095FF" fill="none" stroke-width="2px" />
<path d="M 1230.0 105.0 L 1420.0 115.0" stroke="#0095FF" fill="none" stroke-width="2px" />
<path d="M 1470.0 235.0 L 1470.0 175.0" stroke="#0095FF" fill="none" stroke-width="2px" />
<path d="M 1480.0 175.0 L 1480.0 155.0" stroke="#0095FF" fill="none" stroke-width="2px" />
<path d="M 1500.0 135.0 L 1460.0 125.0" stroke="#0095FF" fill="none" stroke-width="2px" />
<path d="M 1460.0 125.0 L 1440.0 105.0" stroke="#0095FF" fill="none" stroke-width="2px" />
<path d="M 1430.0 105.0 L 1390.0 15.0" stroke="#0095FF" fill="none" stroke-width="2px" />
<path d="M 2472.26666667 235.0 L 2040.0 115.0" stroke="#0095FF" fill="none" stroke-width="2px" />
<path d="M 1990.0 75.0 L 1970.0 55.0" stroke="#0095FF" fill="none" stroke-width="2px" />
<path d="M 1920.0 5.0 L 1940.0 125.0" stroke="#0095FF" fill="none" stroke-width="2px" />
<path d="M 2010.0 135.0 L 1980.0 135.0" stroke="#0095FF" fill="none" stroke-width="2px" />
<path d="M 630.0 65.0 L 640.0 65.0" stroke="#FF0000" fill="none" stroke-width="4px" />
<path d="M 640.0 65.0 L 650.0 65.0" stroke="#FF0000" fill="none" stroke-width="4px" />
<path d="M 650.0 65.0 L 660.0 65.0" stroke="#FF0000" fill="none" stroke-width="4px" />
<path d="M 660.0 65.0 L 670.0 65.0" stroke="#FF0000" fill="none" stroke-width="4px" />
<path d="M 670.0 65.0 L 670.0 75.0" stroke="#FF0000" fill="none" stroke-width="4px" />
<path d="M 670.0 75.0 L 660.0 75.0" stroke="#FF0000" fill="none" stroke-width="4px" />
<path d="M 660.0 75.0 L 650.0 75.0" stroke="#FF0000" fill="none" stroke-width="4px" />
<path d="M 650.0 75.0 L 640.0 75.0" stroke="#FF0000" fill="none" stroke-width="4px" />
<path d="M 660.0 85.0 L 670.0 85.0" stroke="#FF0000" fill="none" stroke-width="4px" />
<path d="M 670.0 85.0 L 680.0 85.0" stroke="#FF0000" fill="none" stroke-width="4px" />
<path d="M 680.0 85.0 L 690.0 85.0" stroke="#FF0000" fill="none" stroke-width="4px" />
<path d="M 690.0 85.0 L 700.0 85.0" stroke="#FF0000" fill="none" stroke-width="4px" />
<path d="M 700.0 85.0 L 700.0 95.0" stroke="#FF0000" fill="none" stroke-width="4px" />
<path d="M 700.0 95.0 L 690.0 95.0" stroke="#FF0000" fill="none" stroke-width="4px" />
<path d="M 690.0 95.0 L 680.0 95.0" stroke="#FF0000" fill="none" stroke-width="4px" />
<path d="M 680.0 95.0 L 670.0 95.0" stroke="#FF0000" fill="none" stroke-width="4px" />
<path d="M 670.0 95.0 L 660.0 95.0" stroke="#FF0000" fill="none" stroke-width="4px" />
<path d="M 660.0 95.0 L 660.0 105.0" stroke="#FF0000" fill="none" stroke-width="4px" />
<path d="M 660.0 105.0 L 670.0 105.0" stroke="#FF0000" fill="none" stroke-width="4px" />
<path d="M 670.0 105.0 L 680.0 105.0" stroke="#FF0000" fill="none" stroke-width="4px" />
<path d="M 680.0 105.0 L 690.0 105.0" stroke="#FF0000" fill="none" stroke-width="4px" />
<path d="M 690.0 105.0 L 700.0 105.0" stroke="#FF0000" fill="none" stroke-width="4px" />
<path d="M 700.0 105.0 L 710.0 105.0" stroke="#FF0000" fill="none" stroke-width="4px" />
<path d="M 710.0 105.0 L 720.0 105.0" stroke="#FF0000" fill="none" stroke-width="4px" />
<path d="M 720.0 105.0 L 730.0 105.0" stroke="#FF0000" fill="none" stroke-width="4px" />
<path d="M 730.0 105.0 L 730.0 115.0" stroke="#FF0000" fill="none" stroke-width="4px" />
<path d="M 730.0 115.0 L 720.0 115.0" stroke="#FF0000" fill="none" stroke-width="4px" />
<path d="M 720.0 115.0 L 710.0 115.0" stroke="#FF0000" fill="none" stroke-width="4px" />
<path d="M 710.0 115.0 L 700.0 115.0" stroke="#FF0000" fill="none" stroke-width="4px" />
<path d="M 700.0 115.0 L 690.0 115.0" stroke="#FF0000" fill="none" stroke-width="4px" />
<path d="M 690.0 115.0 L 680.0 115.0" stroke="#FF0000" fill="none" stroke-width="4px" />
<path d="M 680.0 115.0 L 670.0 115.0" stroke="#FF0000" fill="none" stroke-width="4px" />
<path d="M 670.0 115.0 L 660.0 115.0" stroke="#FF0000" fill="none" stroke-width="4px" />
<path d="M 660.0 115.0 L 660.0 125.0" stroke="#FF0000" fill="none" stroke-width="4px" />
<path d="M 660.0 125.0 L 670.0 125.0" stroke="#FF0000" fill="none" stroke-width="4px" />
<path d="M 670.0 125.0 L 680.0 125.0" stroke="#FF0000" fill="none" stroke-width="4px" />
<path d="M 680.0 125.0 L 690.0 125.0" stroke="#FF0000" fill="none" stroke-width="4px" />
<path d="M 690.0 125.0 L 700.0 125.0" stroke="#FF0000" fill="none" stroke-width="4px" />
<path d="M 700.0 125.0 L 710.0 125.0" stroke="#FF0000" fill="none" stroke-width="4px" />
<path d="M 710.0 125.0 L 720.0 125.0" stroke="#FF0000" fill="none" stroke-width="4px" />
<path d="M 720.0 125.0 L 730.0 125.0" stroke="#FF0000" fill="none" stroke-width="4px" />
<path d="M 730.0 125.0 L 740.0 125.0" stroke="#FF0000" fill="none" stroke-width="4px" />
<path d="M 740.0 125.0 L 740.0 135.0" stroke="#FF0000" fill="none" stroke-width="4px" />
<path d="M 740.0 135.0 L 730.0 135.0" stroke="#FF0000" fill="none" stroke-width="4px" />
<path d="M 730.0 135.0 L 720.0 135.0" stroke="#FF0000" fill="none" stroke-width="4px" />
<path d="M 720.0 135.0 L 710.0 135.0" stroke="#FF0000" fill="none" stroke-width="4px" />
<path d="M 710.0 135.0 L 700.0 135.0" stroke="#FF0000" fill="none" stroke-width="4px" />
<path d="M 700.0 135.0 L 690.0 135.0" stroke="#FF0000" fill="none" stroke-width="4px" />
<path d="M 690.0 135.0 L 680.0 135.0" stroke="#FF0000" fill="none" stroke-width="4px" />
<path d="M 680.0 135.0 L 670.0 135.0" stroke="#FF0000" fill="none" stroke-width="4px" />
<path d="M 670.0 135.0 L 660.0 135.0" stroke="#FF0000" fill="none" stroke-width="4px" />
<path d="M 660.0 135.0 L 670.0 145.0" stroke="#FF0000" fill="none" stroke-width="4px" />
<path d="M 670.0 145.0 L 680.0 145.0" stroke="#FF0000" fill="none" stroke-width="4px" />
<path d="M 680.0 145.0 L 690.0 145.0" stroke="#FF0000" fill="none" stroke-width="4px" />
<path d="M 690.0 145.0 L 700.0 145.0" stroke="#FF0000" fill="none" stroke-width="4px" />
<path d="M 700.0 145.0 L 710.0 145.0" stroke="#FF0000" fill="none" stroke-width="4px" />
<path d="M 710.0 145.0 L 720.0 145.0" stroke="#FF0000" fill="none" stroke-width="4px" />
<path d="M 720.0 145.0 L 730.0 145.0" stroke="#FF0000" fill="none" stroke-width="4px" />
<path d="M 730.0 145.0 L 720.0 155.0" stroke="#FF0000" fill="none" stroke-width="4px" />
<path d="M 720.0 155.0 L 710.0 155.0" stroke="#FF0000" fill="none" stroke-width="4px" />
<path d="M 710.0 155.0 L 700.0 155.0" stroke="#FF0000" fill="none" stroke-width="4px" />
<path d="M 700.0 155.0 L 690.0 155.0" stroke="#FF0000" fill="none" stroke-width="4px" />
<path d="M 690.0 155.0 L 680.0 155.0" stroke="#FF0000" fill="none" stroke-width="4px" />
<path d="M 720.0 95.0 L 710.0 95.0" stroke="#FF0000" fill="none" stroke-width="4px" />
<path d="M 670.0 55.0 L 660.0 55.0" stroke="#FF0000" fill="none" stroke-width="4px" />
<path d="M 660.0 55.0 L 650.0 55.0" stroke="#FF0000" fill="none" stroke-width="4px" />
<path d="M 650.0 55.0 L 640.0 55.0" stroke="#FF0000" fill="none" stroke-width="4px" />
<path d="M 640.0 55.0 L 650.0 45.0" stroke="#FF0000" fill="none" stroke-width="4px" />
<path d="M 650.0 45.0 L 660.0 45.0" stroke="#FF0000" fill="none" stroke-width="4px" />
<path d="M 970.0 95.0 L 980.0 95.0" stroke="#FF0000" fill="none" stroke-width="4px" />
<path d="M 980.0 95.0 L 990.0 95.0" stroke="#FF0000" fill="none" stroke-width="4px" />
<path d="M 990.0 95.0 L 1000.0 95.0" stroke="#FF0000" fill="none" stroke-width="4px" />
<path d="M 1000.0 95.0 L 1000.0 105.0" stroke="#FF0000" fill="none" stroke-width="4px" />
<path d="M 1000.0 105.0 L 990.0 105.0" stroke="#FF0000" fill="none" stroke-width="4px" />
<path d="M 990.0 105.0 L 980.0 105.0" stroke="#FF0000" fill="none" stroke-width="4px" />
<path d="M 980.0 105.0 L 970.0 105.0" stroke="#FF0000" fill="none" stroke-width="4px" />
<path d="M 970.0 105.0 L 970.0 115.0" stroke="#FF0000" fill="none" stroke-width="4px" />
<path d="M 970.0 115.0 L 980.0 115.0" stroke="#FF0000" fill="none" stroke-width="4px" />
<path d="M 980.0 115.0 L 990.0 115.0" stroke="#FF0000" fill="none" stroke-width="4px" />
<path d="M 990.0 115.0 L 1000.0 115.0" stroke="#FF0000" fill="none" stroke-width="4px" />
<path d="M 1000.0 115.0 L 1010.0 115.0" stroke="#FF0000" fill="none" stroke-width="4px" />
<path d="M 1010.0 115.0 L 1000.0 125.0" stroke="#FF0000" fill="none" stroke-width="4px" />
<path d="M 1000.0 125.0 L 990.0 125.0" stroke="#FF0000" fill="none" stroke-width="4px" />
<path d="M 990.0 125.0 L 980.0 125.0" stroke="#FF0000" fill="none" stroke-width="4px" />
<path d="M 980.0 125.0 L 990.0 135.0" stroke="#FF0000" fill="none" stroke-width="4px" />
<path d="M 990.0 85.0 L 980.0 85.0" stroke="#FF0000" fill="none" stroke-width="4px" />
<path d="M 1180.0 145.0 L 1190.0 145.0" stroke="#FF0000" fill="none" stroke-width="4px" />
<path d="M 1190.0 145.0 L 1200.0 145.0" stroke="#FF0000" fill="none" stroke-width="4px" />
<path d="M 1200.0 145.0 L 1210.0 145.0" stroke="#FF0000" fill="none" stroke-width="4px" />
<path d="M 1210.0 145.0 L 1220.0 145.0" stroke="#FF0000" fill="none" stroke-width="4px" />
<path d="M 1220.0 145.0 L 1230.0 145.0" stroke="#FF0000" fill="none" stroke-width="4px" />
<path d="M 1230.0 145.0 L 1240.0 145.0" stroke="#FF0000" fill="none" stroke-width="4px" />
<path d="M 1240.0 145.0 L 1250.0 145.0" stroke="#FF0000" fill="none" stroke-width="4px" />
<path d="M 1250.0 145.0 L 1260.0 145.0" stroke="#FF0000" fill="none" stroke-width="4px" />
<path d="M 1260.0 145.0 L 1270.0 145.0" stroke="#FF0000" fill="none" stroke-width="4px" />
<path d="M 1270.0 145.0 L 1280.0 145.0" stroke="#FF0000" fill="none" stroke-width="4px" />
<path d="M 1280.0 145.0 L 1290.0 145.0" stroke="#FF0000" fill="none" stroke-width="4px" />
<path d="M 1290.0 145.0 L 1300.0 145.0" stroke="#FF0000" fill="none" stroke-width="4px" />
<path d="M 1300.0 145.0 L 1310.0 145.0" stroke="#FF0000" fill="none" stroke-width="4px" />
<path d="M 1310.0 145.0 L 1310.0 155.0" stroke="#FF0000" fill="none" stroke-width="4px" />
<path d="M 1310.0 155.0 L 1300.0 155.0" stroke="#FF0000" fill="none" stroke-width="4px" />
<path d="M 1300.0 155.0 L 1290.0 155.0" stroke="#FF0000" fill="none" stroke-width="4px" />
<path d="M 1290.0 155.0 L 1280.0 155.0" stroke="#FF0000" fill="none" stroke-width="4px" />
<path d="M 1280.0 155.0 L 1270.0 155.0" stroke="#FF0000" fill="none" stroke-width="4px" />
<path d="M 1270.0 155.0 L 1260.0 155.0" stroke="#FF0000" fill="none" stroke-width="4px" />
<path d="M 1260.0 155.0 L 1250.0 155.0" stroke="#FF0000" fill="none" stroke-width="4px" />
<path d="M 1250.0 155.0 L 1240.0 155.0" stroke="#FF0000" fill="none" stroke-width="4px" />
<path d="M 1240.0 155.0 L 1230.0 155.0" stroke="#FF0000" fill="none" stroke-width="4px" />
<path d="M 1230.0 155.0 L 1220.0 155.0" stroke="#FF0000" fill="none" stroke-width="4px" />
<path d="M 1220.0 155.0 L 1210.0 155.0" stroke="#FF0000" fill="none" stroke-width="4px" />
<path d="M 1210.0 155.0 L 1200.0 155.0" stroke="#FF0000" fill="none" stroke-width="4px" />
<path d="M 1200.0 155.0 L 1190.0 155.0" stroke="#FF0000" fill="none" stroke-width="4px" />
<path d="M 1190.0 155.0 L 1180.0 155.0" stroke="#FF0000" fill="none" stroke-width="4px" />
<path d="M 1180.0 155.0 L 1180.0 165.0" stroke="#FF0000" fill="none" stroke-width="4px" />
<path d="M 1180.0 165.0 L 1190.0 165.0" stroke="#FF0000" fill="none" stroke-width="4px" />
<path d="M 1190.0 165.0 L 1200.0 165.0" stroke="#FF0000" fill="none" stroke-width="4px" />
<path d="M 1200.0 165.0 L 1210.0 165.0" stroke="#FF0000" fill="none" stroke-width="4px" />
<path d="M 1210.0 165.0 L 1220.0 165.0" stroke="#FF0000" fill="none" stroke-width="4px" />
<path d="M 1220.0 165.0 L 1230.0 165.0" stroke="#FF0000" fill="none" stroke-width="4px" />
<path d="M 1230.0 165.0 L 1240.0 165.0" stroke="#FF0000" fill="none" stroke-width="4px" />
<path d="M 1240.0 165.0 L 1250.0 165.0" stroke="#FF0000" fill="none" stroke-width="4px" />
<path d="M 1250.0 165.0 L 1260.0 165.0" stroke="#FF0000" fill="none" stroke-width="4px" />
<path d="M 1260.0 165.0 L 1270.0 165.0" stroke="#FF0000" fill="none" stroke-width="4px" />
<path d="M 1270.0 165.0 L 1280.0 165.0" stroke="#FF0000" fill="none" stroke-width="4px" />
<path d="M 1280.0 165.0 L 1290.0 165.0" stroke="#FF0000" fill="none" stroke-width="4px" />
<path d="M 1290.0 165.0 L 1300.0 165.0" stroke="#FF0000" fill="none" stroke-width="4px" />
<path d="M 1300.0 165.0 L 1310.0 165.0" stroke="#FF0000" fill="none" stroke-width="4px" />
<path d="M 1310.0 165.0 L 1320.0 165.0" stroke="#FF0000" fill="none" stroke-width="4px" />
<path d="M 1320.0 165.0 L 1330.0 165.0" stroke="#FF0000" fill="none" stroke-width="4px" />
<path d="M 1330.0 165.0 L 1330.0 175.0" stroke="#FF0000" fill="none" stroke-width="4px" />
<path d="M 1330.0 175.0 L 1320.0 175.0" stroke="#FF0000" fill="none" stroke-width="4px" />
<path d="M 1320.0 175.0 L 1310.0 175.0" stroke="#FF0000" fill="none" stroke-width="4px" />
<path d="M 1310.0 175.0 L 1300.0 175.0" stroke="#FF0000" fill="none" stroke-width="4px" />
<path d="M 1300.0 175.0 L 1290.0 175.0" stroke="#FF0000" fill="none" stroke-width="4px" />
<path d="M 1290.0 175.0 L 1280.0 175.0" stroke="#FF0000" fill="none" stroke-width="4px" />
<path d="M 1280.0 175.0 L 1270.0 175.0" stroke="#FF0000" fill="none" stroke-width="4px" />
<path d="M 1270.0 175.0 L 1260.0 175.0" stroke="#FF0000" fill="none" stroke-width="4px" />
<path d="M 1260.0 175.0 L 1250.0 175.0" stroke="#FF0000" fill="none" stroke-width="4px" />
<path d="M 1250.0 175.0 L 1240.0 175.0" stroke="#FF0000" fill="none" stroke-width="4px" />
<path d="M 1240.0 175.0 L 1230.0 175.0" stroke="#FF0000" fill="none" stroke-width="4px" />
<path d="M 1230.0 175.0 L 1220.0 175.0" stroke="#FF0000" fill="none" stroke-width="4px" />
<path d="M 1220.0 175.0 L 1210.0 175.0" stroke="#FF0000" fill="none" stroke-width="4px" />
<path d="M 1210.0 175.0 L 1200.0 175.0" stroke="#FF0000" fill="none" stroke-width="4px" />
<path d="M 1200.0 175.0 L 1190.0 175.0" stroke="#FF0000" fill="none" stroke-width="4px" />
<path d="M 1190.0 175.0 L 1200.0 185.0" stroke="#FF0000" fill="none" stroke-width="4px" />
<path d="M 1200.0 185.0 L 1210.0 185.0" stroke="#FF0000" fill="none" stroke-width="4px" />
<path d="M 1210.0 185.0 L 1220.0 185.0" stroke="#FF0000" fill="none" stroke-width="4px" />
<path d="M 1220.0 185.0 L 1230.0 185.0" stroke="#FF0000" fill="none" stroke-width="4px" />
<path d="M 1230.0 185.0 L 1240.0 185.0" stroke="#FF0000" fill="none" stroke-width="4px" />
<path d="M 1240.0 185.0 L 1250.0 185.0" stroke="#FF0000" fill="none" stroke-width="4px" />
<path d="M 1250.0 185.0 L 1260.0 185.0" stroke="#FF0000" fill="none" stroke-width="4px" />
<path d="M 1260.0 185.0 L 1270.0 185.0" stroke="#FF0000" fill="none" stroke-width="4px" />
<path d="M 1270.0 185.0 L 1280.0 185.0" stroke="#FF0000" fill="none" stroke-width="4px" />
<path d="M 1280.0 185.0 L 1290.0 185.0" stroke="#FF0000" fill="none" stroke-width="4px" />
<path d="M 1290.0 185.0 L 1300.0 185.0" stroke="#FF0000" fill="none" stroke-width="4px" />
<path d="M 1300.0 185.0 L 1310.0 185.0" stroke="#FF0000" fill="none" stroke-width="4px" />
<path d="M 1310.0 185.0 L 1320.0 185.0" stroke="#FF0000" fill="none" stroke-width="4px" />
<path d="M 1320.0 185.0 L 1310.0 195.0" stroke="#FF0000" fill="none" stroke-width="4px" />
<path d="M 1310.0 195.0 L 1300.0 195.0" stroke="#FF0000" fill="none" stroke-width="4px" />
<path d="M 1300.0 195.0 L 1290.0 195.0" stroke="#FF0000" fill="none" stroke-width="4px" />
<path d="M 1290.0 195.0 L 1280.0 195.0" stroke="#FF0000" fill="none" stroke-width="4px" />
<path d="M 1280.0 195.0 L 1270.0 195.0" stroke="#FF0000" fill="none" stroke-width="4px" />
<path d="M 1270.0 195.0 L 1260.0 195.0" stroke="#FF0000" fill="none" stroke-width="4px" />
<path d="M 1260.0 195.0 L 1250.0 195.0" stroke="#FF0000" fill="none" stroke-width="4px" />
<path d="M 1250.0 195.0 L 1240.0 195.0" stroke="#FF0000" fill="none" stroke-width="4px" />
<path d="M 1240.0 195.0 L 1230.0 195.0" stroke="#FF0000" fill="none" stroke-width="4px" />
<path d="M 1230.0 195.0 L 1220.0 195.0" stroke="#FF0000" fill="none" stroke-width="4px" />
<path d="M 1220.0 195.0 L 1210.0 195.0" stroke="#FF0000" fill="none" stroke-width="4px" />
<path d="M 1210.0 195.0 L 1220.0 205.0" stroke="#FF0000" fill="none" stroke-width="4px" />
<path d="M 1220.0 205.0 L 1230.0 205.0" stroke="#FF0000" fill="none" stroke-width="4px" />
<path d="M 1230.0 205.0 L 1240.0 205.0" stroke="#FF0000" fill="none" stroke-width="4px" />
<path d="M 1240.0 205.0 L 1250.0 205.0" stroke="#FF0000" fill="none" stroke-width="4px" />
<path d="M 1250.0 205.0 L 1260.0 205.0" stroke="#FF0000" fill="none" stroke-width="4px" />
<path d="M 1230.0 135.0 L 1220.0 135.0" stroke="#FF0000" fill="none" stroke-width="4px" />
<path d="M 1220.0 135.0 L 1210.0 135.0" stroke="#FF0000" fill="none" stroke-width="4px" />
<path d="M 1210.0 135.0 L 1200.0 135.0" stroke="#FF0000" fill="none" stroke-width="4px" />
<path d="M 1200.0 135.0 L 1190.0 135.0" stroke="#FF0000" fill="none" stroke-width="4px" />
<path d="M 1190.0 135.0 L 1200.0 125.0" stroke="#FF0000" fill="none" stroke-width="4px" />
<path d="M 1200.0 125.0 L 1210.0 125.0" stroke="#FF0000" fill="none" stroke-width="4px" />
<path d="M 1210.0 125.0 L 1220.0 125.0" stroke="#FF0000" fill="none" stroke-width="4px" />
<path d="M 1220.0 125.0 L 1230.0 125.0" stroke="#FF0000" fill="none" stroke-width="4px" />
<path d="M 1230.0 125.0 L 1240.0 125.0" stroke="#FF0000" fill="none" stroke-width="4px" />
<path d="M 1240.0 125.0 L 1250.0 125.0" stroke="#FF0000" fill="none" stroke-width="4px" />
<path d="M 1250.0 125.0 L 1250.0 135.0" stroke="#FF0000" fill="none" stroke-width="4px" />
<path d="M 1250.0 135.0 L 1240.0 135.0" stroke="#FF0000" fill="none" stroke-width="4px" />
<path d="M 1240.0 135.0 L 1260.0 135.0" stroke="#FF0000" fill="none" stroke-width="4px" />
<path d="M 1290.0 135.0 L 1300.0 135.0" stroke="#FF0000" fill="none" stroke-width="4px" />
<path d="M 1240.0 115.0 L 1230.0 115.0" stroke="#FF0000" fill="none" stroke-width="4px" />
<path d="M 1230.0 115.0 L 1220.0 115.0" stroke="#FF0000" fill="none" stroke-width="4px" />
<path d="M 1220.0 115.0 L 1210.0 115.0" stroke="#FF0000" fill="none" stroke-width="4px" />
<path d="M 1210.0 115.0 L 1220.0 105.0" stroke="#FF0000" fill="none" stroke-width="4px" />
<path d="M 1220.0 105.0 L 1230.0 105.0" stroke="#FF0000" fill="none" stroke-width="4px" />
<path d="M 1420.0 115.0 L 1430.0 115.0" stroke="#FF0000" fill="none" stroke-width="4px" />
<path d="M 1430.0 115.0 L 1440.0 115.0" stroke="#FF0000" fill="none" stroke-width="4px" />
<path d="M 1440.0 115.0 L 1450.0 115.0" stroke="#FF0000" fill="none" stroke-width="4px" />
<path d="M 1450.0 115.0 L 1450.0 125.0" stroke="#FF0000" fill="none" stroke-width="4px" />
<path d="M 1450.0 125.0 L 1440.0 125.0" stroke="#FF0000" fill="none" stroke-width="4px" />
<path d="M 1440.0 125.0 L 1430.0 125.0" stroke="#FF0000" fill="none" stroke-width="4px" />
<path d="M 1430.0 125.0 L 1420.0 125.0" stroke="#FF0000" fill="none" stroke-width="4px" />
<path d="M 1420.0 125.0 L 1420.0 135.0" stroke="#FF0000" fill="none" stroke-width="4px" />
<path d="M 1420.0 135.0 L 1430.0 135.0" stroke="#FF0000" fill="none" stroke-width="4px" />
<path d="M 1430.0 135.0 L 1440.0 135.0" stroke="#FF0000" fill="none" stroke-width="4px" />
<path d="M 1440.0 135.0 L 1450.0 135.0" stroke="#FF0000" fill="none" stroke-width="4px" />
<path d="M 1450.0 135.0 L 1460.0 135.0" stroke="#FF0000" fill="none" stroke-width="4px" />
<path d="M 1460.0 135.0 L 1470.0 135.0" stroke="#FF0000" fill="none" stroke-width="4px" />
<path d="M 1470.0 135.0 L 1460.0 145.0" stroke="#FF0000" fill="none" stroke-width="4px" />
<path d="M 1460.0 145.0 L 1450.0 145.0" stroke="#FF0000" fill="none" stroke-width="4px" />
<path d="M 1450.0 145.0 L 1440.0 145.0" stroke="#FF0000" fill="none" stroke-width="4px" />
<path d="M 1440.0 145.0 L 1430.0 145.0" stroke="#FF0000" fill="none" stroke-width="4px" />
<path d="M 1430.0 145.0 L 1420.0 145.0" stroke="#FF0000" fill="none" stroke-width="4px" />
<path d="M 1420.0 145.0 L 1430.0 155.0" stroke="#FF0000" fill="none" stroke-width="4px" />
<path d="M 1430.0 155.0 L 1440.0 155.0" stroke="#FF0000" fill="none" stroke-width="4px" />
<path d="M 1440.0 155.0 L 1450.0 155.0" stroke="#FF0000" fill="none" stroke-width="4px" />
<path d="M 1450.0 155.0 L 1450.0 165.0" stroke="#FF0000" fill="none" stroke-width="4px" />
<path d="M 1450.0 165.0 L 1440.0 165.0" stroke="#FF0000" fill="none" stroke-width="4px" />
<path d="M 1440.0 165.0 L 1440.0 175.0" stroke="#FF0000" fill="none" stroke-width="4px" />
<path d="M 1440.0 175.0 L 1430.0 175.0" stroke="#FF0000" fill="none" stroke-width="4px" />
<path d="M 1430.0 175.0 L 1430.0 185.0" stroke="#FF0000" fill="none" stroke-width="4px" />
<path d="M 1430.0 185.0 L 1440.0 185.0" stroke="#FF0000" fill="none" stroke-width="4px" />
<path d="M 1440.0 185.0 L 1450.0 185.0" stroke="#FF0000" fill="none" stroke-width="4px" />
<path d="M 1450.0 185.0 L 1460.0 185.0" stroke="#FF0000" fill="none" stroke-width="4px" />
<path d="M 1460.0 185.0 L 1470.0 185.0" stroke="#FF0000" fill="none" stroke-width="4px" />
<path d="M 1470.0 185.0 L 1480.0 185.0" stroke="#FF0000" fill="none" stroke-width="4px" />
<path d="M 1480.0 185.0 L 1490.0 185.0" stroke="#FF0000" fill="none" stroke-width="4px" />
<path d="M 1490.0 185.0 L 1500.0 185.0" stroke="#FF0000" fill="none" stroke-width="4px" />
<path d="M 1500.0 185.0 L 1500.0 195.0" stroke="#FF0000" fill="none" stroke-width="4px" />
<path d="M 1500.0 195.0 L 1490.0 195.0" stroke="#FF0000" fill="none" stroke-width="4px" />
<path d="M 1490.0 195.0 L 1480.0 195.0" stroke="#FF0000" fill="none" stroke-width="4px" />
<path d="M 1480.0 195.0 L 1470.0 195.0" stroke="#FF0000" fill="none" stroke-width="4px" />
<path d="M 1470.0 195.0 L 1460.0 195.0" stroke="#FF0000" fill="none" stroke-width="4px" />
<path d="M 1460.0 195.0 L 1450.0 195.0" stroke="#FF0000" fill="none" stroke-width="4px" />
<path d="M 1450.0 195.0 L 1440.0 195.0" stroke="#FF0000" fill="none" stroke-width="4px" />
<path d="M 1440.0 195.0 L 1430.0 195.0" stroke="#FF0000" fill="none" stroke-width="4px" />
<path d="M 1430.0 195.0 L 1440.0 205.0" stroke="#FF0000" fill="none" stroke-width="4px" />
<path d="M 1440.0 205.0 L 1450.0 205.0" stroke="#FF0000" fill="none" stroke-width="4px" />
<path d="M 1450.0 205.0 L 1460.0 205.0" stroke="#FF0000" fill="none" stroke-width="4px" />
<path d="M 1460.0 205.0 L 1470.0 205.0" stroke="#FF0000" fill="none" stroke-width="4px" />
<path d="M 1470.0 205.0 L 1480.0 205.0" stroke="#FF0000" fill="none" stroke-width="4px" />
<path d="M 1480.0 205.0 L 1490.0 205.0" stroke="#FF0000" fill="none" stroke-width="4px" />
<path d="M 1490.0 205.0 L 1500.0 205.0" stroke="#FF0000" fill="none" stroke-width="4px" />
<path d="M 1500.0 205.0 L 1500.0 215.0" stroke="#FF0000" fill="none" stroke-width="4px" />
<path d="M 1500.0 215.0 L 1490.0 215.0" stroke="#FF0000" fill="none" stroke-width="4px" />
<path d="M 1490.0 215.0 L 1480.0 215.0" stroke="#FF0000" fill="none" stroke-width="4px" />
<path d="M 1480.0 215.0 L 1470.0 215.0" stroke="#FF0000" fill="none" stroke-width="4px" />
<path d="M 1470.0 215.0 L 1460.0 215.0" stroke="#FF0000" fill="none" stroke-width="4px" />
<path d="M 1460.0 215.0 L 1450.0 215.0" stroke="#FF0000" fill="none" stroke-width="4px" />
<path d="M 1450.0 215.0 L 1460.0 225.0" stroke="#FF0000" fill="none" stroke-width="4px" />
<path d="M 1460.0 225.0 L 1470.0 225.0" stroke="#FF0000" fill="none" stroke-width="4px" />
<path d="M 1470.0 225.0 L 1480.0 225.0" stroke="#FF0000" fill="none" stroke-width="4px" />
<path d="M 1480.0 225.0 L 1490.0 225.0" stroke="#FF0000" fill="none" stroke-width="4px" />
<path d="M 1490.0 225.0 L 1480.0 235.0" stroke="#FF0000" fill="none" stroke-width="4px" />
<path d="M 1480.0 235.0 L 1470.0 235.0" stroke="#FF0000" fill="none" stroke-width="4px" />
<path d="M 1470.0 175.0 L 1460.0 175.0" stroke="#FF0000" fill="none" stroke-width="4px" />
<path d="M 1460.0 175.0 L 1450.0 175.0" stroke="#FF0000" fill="none" stroke-width="4px" />
<path d="M 1450.0 175.0 L 1460.0 165.0" stroke="#FF0000" fill="none" stroke-width="4px" />
<path d="M 1460.0 165.0 L 1470.0 165.0" stroke="#FF0000" fill="none" stroke-width="4px" />
<path d="M 1470.0 165.0 L 1480.0 165.0" stroke="#FF0000" fill="none" stroke-width="4px" />
<path d="M 1480.0 165.0 L 1490.0 165.0" stroke="#FF0000" fill="none" stroke-width="4px" />
<path d="M 1490.0 165.0 L 1500.0 165.0" stroke="#FF0000" fill="none" stroke-width="4px" />
<path d="M 1500.0 165.0 L 1510.0 165.0" stroke="#FF0000" fill="none" stroke-width="4px" />
<path d="M 1510.0 165.0 L 1520.0 165.0" stroke="#FF0000" fill="none" stroke-width="4px" />
<path d="M 1520.0 165.0 L 1510.0 175.0" stroke="#FF0000" fill="none" stroke-width="4px" />
<path d="M 1510.0 175.0 L 1500.0 175.0" stroke="#FF0000" fill="none" stroke-width="4px" />
<path d="M 1500.0 175.0 L 1490.0 175.0" stroke="#FF0000" fill="none" stroke-width="4px" />
<path d="M 1490.0 175.0 L 1480.0 175.0" stroke="#FF0000" fill="none" stroke-width="4px" />
<path d="M 1480.0 155.0 L 1490.0 155.0" stroke="#FF0000" fill="none" stroke-width="4px" />
<path d="M 1490.0 155.0 L 1500.0 155.0" stroke="#FF0000" fill="none" stroke-width="4px" />
<path d="M 1500.0 155.0 L 1510.0 155.0" stroke="#FF0000" fill="none" stroke-width="4px" />
<path d="M 1510.0 155.0 L 1510.0 145.0" stroke="#FF0000" fill="none" stroke-width="4px" />
<path d="M 1510.0 145.0 L 1500.0 145.0" stroke="#FF0000" fill="none" stroke-width="4px" />
<path d="M 1500.0 145.0 L 1490.0 145.0" stroke="#FF0000" fill="none" stroke-width="4px" />
<path d="M 1490.0 145.0 L 1480.0 145.0" stroke="#FF0000" fill="none" stroke-width="4px" />
<path d="M 1480.0 145.0 L 1490.0 135.0" stroke="#FF0000" fill="none" stroke-width="4px" />
<path d="M 1490.0 135.0 L 1500.0 135.0" stroke="#FF0000" fill="none" stroke-width="4px" />
<path d="M 1440.0 105.0 L 1430.0 105.0" stroke="#FF0000" fill="none" stroke-width="4px" />
<path d="M 1390.0 15.0 L 1380.0 15.0" stroke="#FF0000" fill="none" stroke-width="4px" />
<path d="M 1380.0 15.0 L 1380.0 5.0" stroke="#FF0000" fill="none" stroke-width="4px" />
<path d="M 1380.0 5.0 L 1370.0 5.0" stroke="#FF0000" fill="none" stroke-width="4px" />
<path d="M 1370.0 5.0 L 1370.0 -5.0" stroke="#FF0000" fill="none" stroke-width="4px" />
<path d="M 1370.0 -5.0 L 1380.0 -5.0" stroke="#FF0000" fill="none" stroke-width="4px" />
<path d="M 1380.0 -5.0 L 1390.0 -5.0" stroke="#FF0000" fill="none" stroke-width="4px" />
<path d="M 1390.0 -5.0 L 1400.0 -5.0" stroke="#FF0000" fill="none" stroke-width="4px" />
<path d="M 1400.0 -5.0 L 1400.0 5.0" stroke="#FF0000" fill="none" stroke-width="4px" />
<path d="M 1400.0 5.0 L 1390.0 5.0" stroke="#FF0000" fill="none" stroke-width="4px" />
<path d="M 2040.0 115.0 L 2030.0 115.0" stroke="#FF0000" fill="none" stroke-width="4px" />
<path d="M 2030.0 115.0 L 2020.0 115.0" stroke="#FF0000" fill="none" stroke-width="4px" />
<path d="M 2020.0 115.0 L 2010.0 115.0" stroke="#FF0000" fill="none" stroke-width="4px" />
<path d="M 2010.0 115.0 L 2000.0 115.0" stroke="#FF0000" fill="none" stroke-width="4px" />
<path d="M 2000.0 115.0 L 1990.0 115.0" stroke="#FF0000" fill="none" stroke-width="4px" />
<path d="M 1990.0 115.0 L 1980.0 115.0" stroke="#FF0000" fill="none" stroke-width="4px" />
<path d="M 1980.0 115.0 L 1970.0 115.0" stroke="#FF0000" fill="none" stroke-width="4px" />
<path d="M 1970.0 115.0 L 1960.0 115.0" stroke="#FF0000" fill="none" stroke-width="4px" />
<path d="M 1960.0 115.0 L 1950.0 115.0" stroke="#FF0000" fill="none" stroke-width="4px" />
<path d="M 1950.0 115.0 L 1940.0 115.0" stroke="#FF0000" fill="none" stroke-width="4px" />
<path d="M 1940.0 115.0 L 1930.0 115.0" stroke="#FF0000" fill="none" stroke-width="4px" />
<path d="M 1930.0 115.0 L 1930.0 105.0" stroke="#FF0000" fill="none" stroke-width="4px" />
<path d="M 1930.0 105.0 L 1940.0 105.0" stroke="#FF0000" fill="none" stroke-width="4px" />
<path d="M 1940.0 105.0 L 1950.0 105.0" stroke="#FF0000" fill="none" stroke-width="4px" />
<path d="M 1950.0 105.0 L 1960.0 105.0" stroke="#FF0000" fill="none" stroke-width="4px" />
<path d="M 1960.0 105.0 L 1970.0 105.0" stroke="#FF0000" fill="none" stroke-width="4px" />
<path d="M 1970.0 105.0 L 1980.0 105.0" stroke="#FF0000" fill="none" stroke-width="4px" />
<path d="M 1980.0 105.0 L 1990.0 105.0" stroke="#FF0000" fill="none" stroke-width="4px" />
<path d="M 1990.0 105.0 L 2000.0 105.0" stroke="#FF0000" fill="none" stroke-width="4px" />
<path d="M 2000.0 105.0 L 2010.0 105.0" stroke="#FF0000" fill="none" stroke-width="4px" />
<path d="M 2010.0 105.0 L 2020.0 105.0" stroke="#FF0000" fill="none" stroke-width="4px" />
<path d="M 2020.0 105.0 L 2030.0 105.0" stroke="#FF0000" fill="none" stroke-width="4px" />
<path d="M 2030.0 105.0 L 2030.0 95.0" stroke="#FF0000" fill="none" stroke-width="4px" />
<path d="M 2030.0 95.0 L 2020.0 95.0" stroke="#FF0000" fill="none" stroke-width="4px" />
<path d="M 2020.0 95.0 L 2010.0 95.0" stroke="#FF0000" fill="none" stroke-width="4px" />
<path d="M 2010.0 95.0 L 2000.0 95.0" stroke="#FF0000" fill="none" stroke-width="4px" />
<path d="M 2000.0 95.0 L 1990.0 95.0" stroke="#FF0000" fill="none" stroke-width="4px" />
<path d="M 1990.0 95.0 L 1980.0 95.0" stroke="#FF0000" fill="none" stroke-width="4px" />
<path d="M 1980.0 95.0 L 1970.0 95.0" stroke="#FF0000" fill="none" stroke-width="4px" />
<path d="M 1970.0 95.0 L 1960.0 95.0" stroke="#FF0000" fill="none" stroke-width="4px" />
<path d="M 1960.0 95.0 L 1950.0 95.0" stroke="#FF0000" fill="none" stroke-width="4px" />
<path d="M 1950.0 95.0 L 1940.0 95.0" stroke="#FF0000" fill="none" stroke-width="4px" />
<path d="M 1940.0 95.0 L 1930.0 95.0" stroke="#FF0000" fill="none" stroke-width="4px" />
<path d="M 1930.0 95.0 L 1930.0 85.0" stroke="#FF0000" fill="none" stroke-width="4px" />
<path d="M 1930.0 85.0 L 1920.0 85.0" stroke="#FF0000" fill="none" stroke-width="4px" />
<path d="M 1920.0 85.0 L 1920.0 75.0" stroke="#FF0000" fill="none" stroke-width="4px" />
<path d="M 1920.0 75.0 L 1910.0 75.0" stroke="#FF0000" fill="none" stroke-width="4px" />
<path d="M 1910.0 75.0 L 1910.0 65.0" stroke="#FF0000" fill="none" stroke-width="4px" />
<path d="M 1910.0 65.0 L 1920.0 65.0" stroke="#FF0000" fill="none" stroke-width="4px" />
<path d="M 1920.0 65.0 L 1930.0 65.0" stroke="#FF0000" fill="none" stroke-width="4px" />
<path d="M 1930.0 65.0 L 1940.0 65.0" stroke="#FF0000" fill="none" stroke-width="4px" />
<path d="M 1940.0 65.0 L 1950.0 65.0" stroke="#FF0000" fill="none" stroke-width="4px" />
<path d="M 1950.0 65.0 L 1960.0 65.0" stroke="#FF0000" fill="none" stroke-width="4px" />
<path d="M 1960.0 65.0 L 1970.0 65.0" stroke="#FF0000" fill="none" stroke-width="4px" />
<path d="M 1970.0 65.0 L 1980.0 65.0" stroke="#FF0000" fill="none" stroke-width="4px" />
<path d="M 1980.0 65.0 L 1980.0 75.0" stroke="#FF0000" fill="none" stroke-width="4px" />
<path d="M 1980.0 75.0 L 1970.0 75.0" stroke="#FF0000" fill="none" stroke-width="4px" />
<path d="M 1970.0 75.0 L 1960.0 75.0" stroke="#FF0000" fill="none" stroke-width="4px" />
<path d="M 1960.0 75.0 L 1950.0 75.0" stroke="#FF0000" fill="none" stroke-width="4px" />
<path d="M 1950.0 75.0 L 1940.0 75.0" stroke="#FF0000" fill="none" stroke-width="4px" />
<path d="M 1940.0 75.0 L 1930.0 75.0" stroke="#FF0000" fill="none" stroke-width="4px" />
<path d="M 1930.0 75.0 L 1940.0 85.0" stroke="#FF0000" fill="none" stroke-width="4px" />
<path d="M 1940.0 85.0 L 1950.0 85.0" stroke="#FF0000" fill="none" stroke-width="4px" />
<path d="M 1950.0 85.0 L 1960.0 85.0" stroke="#FF0000" fill="none" stroke-width="4px" />
<path d="M 1960.0 85.0 L 1970.0 85.0" stroke="#FF0000" fill="none" stroke-width="4px" />
<path d="M 1970.0 85.0 L 1980.0 85.0" stroke="#FF0000" fill="none" stroke-width="4px" />
<path d="M 1980.0 85.0 L 1990.0 85.0" stroke="#FF0000" fill="none" stroke-width="4px" />
<path d="M 1990.0 85.0 L 2000.0 85.0" stroke="#FF0000" fill="none" stroke-width="4px" />
<path d="M 2000.0 85.0 L 2010.0 85.0" stroke="#FF0000" fill="none" stroke-width="4px" />
<path d="M 2010.0 85.0 L 2020.0 85.0" stroke="#FF0000" fill="none" stroke-width="4px" />
<path d="M 2020.0 85.0 L 2010.0 75.0" stroke="#FF0000" fill="none" stroke-width="4px" />
<path d="M 2010.0 75.0 L 2000.0 75.0" stroke="#FF0000" fill="none" stroke-width="4px" />
<path d="M 2000.0 75.0 L 1990.0 75.0" stroke="#FF0000" fill="none" stroke-width="4px" />
<path d="M 1970.0 55.0 L 1960.0 55.0" stroke="#FF0000" fill="none" stroke-width="4px" />
<path d="M 1960.0 55.0 L 1950.0 55.0" stroke="#FF0000" fill="none" stroke-width="4px" />
<path d="M 1950.0 55.0 L 1940.0 55.0" stroke="#FF0000" fill="none" stroke-width="4px" />
<path d="M 1940.0 55.0 L 1930.0 55.0" stroke="#FF0000" fill="none" stroke-width="4px" />
<path d="M 1930.0 55.0 L 1920.0 55.0" stroke="#FF0000" fill="none" stroke-width="4px" />
<path d="M 1920.0 55.0 L 1910.0 55.0" stroke="#FF0000" fill="none" stroke-width="4px" />
<path d="M 1910.0 55.0 L 1900.0 55.0" stroke="#FF0000" fill="none" stroke-width="4px" />
<path d="M 1900.0 55.0 L 1900.0 45.0" stroke="#FF0000" fill="none" stroke-width="4px" />
<path d="M 1900.0 45.0 L 1910.0 45.0" stroke="#FF0000" fill="none" stroke-width="4px" />
<path d="M 1910.0 45.0 L 1920.0 45.0" stroke="#FF0000" fill="none" stroke-width="4px" />
<path d="M 1920.0 45.0 L 1930.0 45.0" stroke="#FF0000" fill="none" stroke-width="4px" />
<path d="M 1930.0 45.0 L 1940.0 45.0" stroke="#FF0000" fill="none" stroke-width="4px" />
<path d="M 1940.0 45.0 L 1950.0 45.0" stroke="#FF0000" fill="none" stroke-width="4px" />
<path d="M 1950.0 45.0 L 1960.0 45.0" stroke="#FF0000" fill="none" stroke-width="4px" />
<path d="M 1960.0 45.0 L 1950.0 35.0" stroke="#FF0000" fill="none" stroke-width="4px" />
<path d="M 1950.0 35.0 L 1940.0 35.0" stroke="#FF0000" fill="none" stroke-width="4px" />
<path d="M 1940.0 35.0 L 1930.0 35.0" stroke="#FF0000" fill="none" stroke-width="4px" />
<path d="M 1930.0 35.0 L 1920.0 35.0" stroke="#FF0000" fill="none" stroke-width="4px" />
<path d="M 1920.0 35.0 L 1910.0 35.0" stroke="#FF0000" fill="none" stroke-width="4px" />
<path d="M 1910.0 35.0 L 1900.0 35.0" stroke="#FF0000" fill="none" stroke-width="4px" />
<path d="M 1900.0 35.0 L 1900.0 25.0" stroke="#FF0000" fill="none" stroke-width="4px" />
<path d="M 1900.0 25.0 L 1910.0 25.0" stroke="#FF0000" fill="none" stroke-width="4px" />
<path d="M 1910.0 25.0 L 1920.0 25.0" stroke="#FF0000" fill="none" stroke-width="4px" />
<path d="M 1920.0 25.0 L 1930.0 25.0" stroke="#FF0000" fill="none" stroke-width="4px" />
<path d="M 1930.0 25.0 L 1940.0 25.0" stroke="#FF0000" fill="none" stroke-width="4px" />
<path d="M 1940.0 25.0 L 1930.0 15.0" stroke="#FF0000" fill="none" stroke-width="4px" />
<path d="M 1930.0 15.0 L 1920.0 15.0" stroke="#FF0000" fill="none" stroke-width="4px" />
<path d="M 1920.0 15.0 L 1910.0 15.0" stroke="#FF0000" fill="none" stroke-width="4px" />
<path d="M 1910.0 15.0 L 1920.0 5.0" stroke="#FF0000" fill="none" stroke-width="4px" />
<path d="M 1940.0 125.0 L 1950.0 125.0" stroke="#FF0000" fill="none" stroke-width="4px" />
<path d="M 1950.0 125.0 L 1960.0 125.0" stroke="#FF0000" fill="none" stroke-width="4px" />
<path d="M 1960.0 125.0 L 1970.0 125.0" stroke="#FF0000" fill="none" stroke-width="4px" />
<path d="M 1970.0 125.0 L 1980.0 125.0" stroke="#FF0000" fill="none" stroke-width="4px" />
<path d="M 1980.0 125.0 L 1990.0 125.0" stroke="#FF0000" fill="none" stroke-width="4px" />
<path d="M 1990.0 125.0 L 2000.0 125.0" stroke="#FF0000" fill="none" stroke-width="4px" />
<path d="M 2000.0 125.0 L 2010.0 125.0" stroke="#FF0000" fill="none" stroke-width="4px" />
<path d="M 2010.0 125.0 L 2020.0 125.0" stroke="#FF0000" fill="none" stroke-width="4px" />
<path d="M 2020.0 125.0 L 2030.0 125.0" stroke="#FF0000" fill="none" stroke-width="4px" />
<path d="M 2030.0 125.0 L 2020.0 135.0" stroke="#FF0000" fill="none" stroke-width="4px" />
<path d="M 2020.0 135.0 L 2010.0 135.0" stroke="#FF0000" fill="none" stroke-width="4px" />
<path d="M 1980.0 135.0 L 1970.0 135.0" stroke="#FF0000" fill="none" stroke-width="4px" />
<path d="M 1970.0 135.0 L 1960.0 135.0" stroke="#FF0000" fill="none" stroke-width="4px" />
<path d="M 1960.0 135.0 L 1950.0 135.0" stroke="#FF0000" fill="none" stroke-width="4px" />
</svg>