<svg width="2472.26666667" height="235.0" xmlns="http://www.w3.org/2000/svg" version="1.1">
<path d="M 0.0 235.0 L 1895.0 235.0 L 1895.0 0.0 L 0.0 0.0 L 0.0 235.0" stroke="#000000" fill="none" stroke-width="3px" />
<path d="M 2472.26666667 235.0 L 1795.0 235.0 L 1795.0 0.0 L 2472.26666667 0.0 L 2472.26666667 235.0" stroke="#000000" fill="none" stroke-width="3px" />
<path d="M 10.0 257.5 L 0.0 247.5 L 10.0 237.5" stroke="#969696" fill="none" stroke-width="1px" />
<path d="M 10.0 237.5 L 1885.0 237.5" stroke="#969696" fill="none" stroke-width="1px" />
<path d="M 1885.0 237.5 L 1895.0 227.5 L 1885.0 217.5" stroke="#969696" fill="none" stroke-width="1px" />
<path d="M 1885.0 217.5 L 10.0 217.5" stroke="#969696" fill="none" stroke-width="1px" />
<path d="M 10.0 217.5 L 0.0 207.5 L 10.0 197.5" stroke="#969696" fill="none" stroke-width="1px" />
<path d="M 10.0 197.5 L 1885.0 197.5" stroke="#969696" fill="none" stroke-width="1px" />
<path d="M 1885.0 197.5 L 1895.0 187.5 L 1885.0 177.5" stroke="#969696" fill="none" stroke-width="1px" />
<path d="M 1885.0 177.5 L 10.0 177.5" stroke="#969696" fill="none" stroke-width="1px" />
<path d="M 10.0 177.5 L 0.0 167.5 L 10.0 157.5" stroke="#969696" fill="none" stroke-width="1px" />
<path d="M 10.0 157.5 L 1885.0 157.5" stroke="#969696" fill="none" stroke-width="1px" />
<path d="M 1885.0 157.5 L 1895.0 147.5 L 1885.0 137.5" stroke="#969696" fill="none" stroke-width="1px" />
<path d="M 1885.0 137.5 L 10.0 137.5" stroke="#969696" fill="none" stroke-width="1px" />
<path d="M 10.0 137.5 L 0.0 127.5 L 10.0 117.5" stroke="#969696" fill="none" stroke-width="1px" />
<path d="M 10.0 117.5 L 1885.0 117.5" stroke="#969696" fill="none" stroke-width="1px" />
<path d="M 1885.0 117.5 L 1895.0 107.5 L 1885.0 97.5" stroke="#969696" fill="none" stroke-width="1px" />
<path d="M 1885.0 97.5 L 10.0 97.5" stroke="#969696" fill="none" stroke-width="1px" />
<path d="M 10.0 97.5 L 0.0 87.5 L 10.0 77.5" stroke="#969696" fill="none" stroke-width="1px" />
<path d="M 10.0 77.5 L 1885.0 77.5" stroke="#969696" fill="none" stroke-width="1px" />
<path d="M 1885.0 77.5 L 1895.0 67.5 L 1885.0 57.5" stroke="#969696" fill="none" stroke-width="1px" />
<path d="M 1885.0 57.5 L 10.0 57.5" stroke="#969696" fill="none" stroke-width="1px" />
<path d="M 10.0 57.5 L 0.0 47.5 L 10.0 37.5" stroke="#969696" fill="none" stroke-width="1px" />
<path d="M 10.0 37.5 L 1885.0 37.5" stroke="#969696" fill="none" stroke-width="1px" />
<path d="M 1885.0 37.5 L 1895.0 27.5 L 1885.0 17.5" stroke="#969696" fill="none" stroke-width="1px" />
<path d="M 1885.0 17.5 L 10.0 17.5" stroke="#969696" fill="none" stroke-width="1px" />
<path d="M 10.0 17.5 L 0.0 7.5 L 10.0 -2.5" stroke="#969696" fill="none" stroke-width="1px" />
<path d="M 10.0 -2.5 L 1885.0 -2.5" stroke="#969696" fill="none" stroke-width="1px" />
<path d="M 1885.0 -2.5 L 1895.0 -12.5 L 1885.0 -22.5" stroke="#969696" fill="none" stroke-width="1px" />
<path d="M 2462.26666667 257.5 L 2472.26666667 247.5 L 2462.26666667 237.5" stroke="#969696" fill="none" stroke-width="1px" />
<path d="M 2462.26666667 237.5 L 1805.0 237.5" stroke="#969696" fill="none" stroke-width="1px" />
<path d="M 1805.0 237.5 L 1795.0 227.5 L 1805.0 217.5" stroke="#969696" fill="none" stroke-width="1px" />
<path d="M 1805.0 217.5 L 2462.26666667 217.5" stroke="#969696" fill="none" stroke-width="1px" />
<path d="M 2462.26666667 217.5 L 2472.26666667 207.5 L 2462.26666667 197.5" stroke="#969696" fill="none" stroke-width="1px" />
<path d="M 2462.26666667 197.5 L 1805.0 197.5" stroke="#969696" fill="none" stroke-width="1px" />
<path d="M 1805.0 197.5 L 1795.0 187.5 L 1805.0 177.5" stroke="#969696" fill="none" stroke-width="1px" />
<path d="M 1805.0 177.5 L 2462.26666667 177.5" stroke="#969696" fill="none" stroke-width="1px" />
<path d="M 2462.26666667 177.5 L 2472.26666667 167.5 L 2462.26666667 157.5" stroke="#969696" fill="none" stroke-width="1px" />
<path d="M 2462.26666667 157.5 L 1805.0 157.5" stroke="#969696" fill="none" stroke-width="1px" />
<path d="M 1805.0 157.5 L 1795.0 147.5 L 1805.0 137.5" stroke="#969696" fill="none" stroke-width="1px" />
<path d="M 1805.0 137.5 L 2462.26666667 137.5" stroke="#969696" fill="none" stroke-width="1px" />
<path d="M 2462.26666667 137.5 L 2472.26666667 127.5 L 2462.26666667 117.5" stroke="#969696" fill="none" stroke-width="1px" />
<path d="M 2462.26666667 117.5 L 1805.0 117.5" stroke="#969696" fill="none" stroke-width="1px" />
<path d="M 1805.0 117.5 L 1795.0 107.5 L 1805.0 97.5" stroke="#969696" fill="none" stroke-width="1px" />
<path d="M 1805.0 97.5 L 2462.26666667 97.5" stroke="#969696" fill="none" stroke-width="1px" />
<path d="M 2462.26666667 97.5 L 2472.26666667 87.5 L 2462.26666667 77.5" stroke="#969696" fill="none" stroke-width="1px" />
<path d="M 2462.26666667 77.5 L 1805.0 77.5" stroke="#969696" fill="none" stroke-width="1px" />
<path d="M 1805.0 77.5 L 1795.0 67.5 L 1805.0 57.5" stroke="#969696" fill="none" stroke-width="1px" />
<path d="M 1805.0 57.5 L 2462.26666667 57.5" stroke="#969696" fill="none" stroke-width="1px" />
<path d="M 2462.26666667 57.5 L 2472.26666667 47.5 L 2462.26666667 37.5" stroke="#969696" fill="none" stroke-width="1px" />
<path d="M 2462.26666667 37.5 L 1805.0 37.5" stroke="#969696" fill="none" stroke-width="1px" />
<path d="M 1805.0 37.5 L 1795.0 27.5 L 1805.0 17.5" stroke="#969696" fill="none" stroke-width="1px" />
<path d="M 1805.0 17.5 L 2462.26666667 17.5" stroke="#969696" fill="none" stroke-width="1px" />
<path d="M 2462.26666667 17.5 L 2472.26666667 7.5 L 2462.26666667 -2.5" stroke="#969696" fill="none" stroke-width="1px" />
<path d="M 2462.26666667 -2.5 L 1805.0 -2.5" stroke="#969696" fill="none" stroke-width="1px" />
<path d="M 1805.0 -2.5 L 1795.0 -12.5 L 1805.0 -22.5" stroke="#969696" fill="none" stroke-width="1px" />
<path d="M 0.0 235.0 L 360.0 235.0" stroke="#0095FF" fill="none" stroke-width="2px" />
<path d="M 360.0 235.0 L 360.0 115.0" stroke="#0095FF" fill="none" stroke-width="2px" />
<path d="M 380.0 85.0 L 380.0 125.0" stroke="#0095FF" fill="none" stroke-width="2px" />
<path d="M 390.0 125.0 L 470.0 125.0" stroke="#0095FF" fill="none" stroke-width="2px" />
<path d="M 470.0 125.0 L 470.0 95.0" stroke="#0095FF" fill="none" stroke-width="2px" />
<path d="M 500.0 115.0 L 500.0 85.0" stroke="#0095FF" fill="none" stroke-width="2px" />
<path d="M 510.0 85.0 L 1060.0 85.0" stroke="#0095FF" fill="none" stroke-width="2px" />
<path d="M 1060.0 85.0 L 1060.0 125.0" stroke="#0095FF" fill="none" stroke-width="2px" />
<path d="M 1080.0 175.0 L 1080.0 115.0" stroke="#0095FF" fill="none" stroke-width="2px" />
<path d="M 1090.0 115.0 L 1470.0 115.0" stroke="#0095FF" fill="none" stroke-width="2px" />
<path d="M 1470.0 115.0 L 1470.0 185.0" stroke="#0095FF" fill="none" stroke-width="2px" />
<path d="M 1490.0 215.0 L 1490.0 175.0" stroke="#0095FF" fill="none" stroke-width="2px" />
<path d="M 1510.0 175.0 L 1590.0 175.0" stroke="#0095FF" fill="none" stroke-width="2px" />
<path d="M 1590.0 175.0 L 1590.0 115.0" stroke="#0095FF" fill="none" stroke-width="2px" />
<path d="M 1610.0 105.0 L 1610.0 65.0" stroke="#0095FF" fill="none" stroke-width="2px" />
<path d="M 2472.26666667 235.0 L 2450.0 235.0" stroke="#0095FF" fill="none" stroke-width="2px" />
<path d="M 2450.0 235.0 L 2450.0 105.0" stroke="#0095FF" fill="none" stroke-width="2px" />
<path d="M 2430.0 95.0 L 2430.0 55.0" stroke="#0095FF" fill="none" stroke-width="2px" />
<path d="M 2460.0 55.0 L 2020.0 55.0" stroke="#0095FF" fill="none" stroke-width="2px" />
<path d="M 2020.0 55.0 L 2020.0 175.0" stroke="#0095FF" fill="none" stroke-width="2px" />
<path d="M 1990.0 205.0 L 1990.0 165.0" stroke="#0095FF" fill="none" stroke-width="2px" />
<path d="M 360.0 115.0 L 370.0 115.0" stroke="#FF0000" fill="none" stroke-width="4px" />
<path d="M 370.0 115.0 L 380.0 115.0" stroke="#FF0000" fill="none" stroke-width="4px" />
<path d="M 380.0 115.0 L 390.0 115.0" stroke="#FF0000" fill="none" stroke-width="4px" />
<path d="M 390.0 115.0 L 400.0 115.0" stroke="#FF0000" fill="none" stroke-width="4px" />
<path d="M 400.0 115.0 L 400.0 105.0" stroke="#FF0000" fill="none" stroke-width="4px" />
<path d="M 400.0 105.0 L 390.0 105.0" stroke="#FF0000" fill="none" stroke-width="4px" />
<path d="M 390.0 105.0 L 380.0 105.0" stroke="#FF0000" fill="none" stroke-width="4px" />
<path d="M 380.0 105.0 L 370.0 105.0" stroke="#FF0000" fill="none" stroke-width="4px" />
<path d="M 370.0 105.0 L 360.0 105.0" stroke="#FF0000" fill="none" stroke-width="4px" />
<path d="M 360.0 105.0 L 370.0 95.0" stroke="#FF0000" fill="none" stroke-width="4px" />
<path d="M 370.0 95.0 L 380.0 95.0" stroke="#FF0000" fill="none" stroke-width="4px" />
<path d="M 380.0 95.0 L 390.0 95.0" stroke="#FF0000" fill="none" stroke-width="4px" />
<path d="M 390.0 95.0 L 400.0 95.0" stroke="#FF0000" fill="none" stroke-width="4px" />
<path d="M 400.0 95.0 L 390.0 85.0" stroke="#FF0000" fill="none" stroke-width="4px" />
<path d="M 390.0 85.0 L 380.0 85.0" stroke="#FF0000" fill="none" stroke-width="4px" />
<path d="M 380.0 125.0 L 370.0 125.0" stroke="#FF0000" fill="none" stroke-width="4px" />
<path d="M 370.0 125.0 L 380.0 135.0" stroke="#FF0000" fill="none" stroke-width="4px" />
<path d="M 380.0 135.0 L 390.0 125.0" stroke="#FF0000" fill="none" stroke-width="4px" />
<path d="M 470.0 95.0 L 480.0 95.0" stroke="#FF0000" fill="none" stroke-width="4px" />
<path d="M 480.0 95.0 L 490.0 95.0" stroke="#FF0000" fill="none" stroke-width="4px" />
<path d="M 490.0 95.0 L 500.0 95.0" stroke="#FF0000" fill="none" stroke-width="4px" />
<path d="M 500.0 95.0 L 510.0 95.0" stroke="#FF0000" fill="none" stroke-width="4px" />
<path d="M 510.0 95.0 L 510.0 105.0" stroke="#FF0000" fill="none" stroke-width="4px" />
<path d="M 510.0 105.0 L 500.0 105.0" stroke="#FF0000" fill="none" stroke-width="4px" />
<path d="M 500.0 105.0 L 490.0 105.0" stroke="#FF0000" fill="none" stroke-width="4px" />
<path d="M 490.0 105.0 L 480.0 105.0" stroke="#FF0000" fill="none" stroke-width="4px" />
<path d="M 480.0 105.0 L 490.0 115.0" stroke="#FF0000" fill="none" stroke-width="4px" />
<path d="M 490.0 115.0 L 500.0 115.0" stroke="#FF0000" fill="none" stroke-width="4px" />
<path d="M 500.0 85.0 L 490.0 85.0" stroke="#FF0000" fill="none" stroke-width="4px" />
<path d="M 490.0 85.0 L 480.0 85.0" stroke="#FF0000" fill="none" stroke-width="4px" />
<path d="M 480.0 85.0 L 490.0 75.0" stroke="#FF0000" fill="none" stroke-width="4px" />
<path d="M 490.0 75.0 L 500.0 75.0" stroke="#FF0000" fill="none" stroke-width="4px" />
<path d="M 500.0 75.0 L 510.0 85.0" stroke="#FF0000" fill="none" stroke-width="4px" />
<path d="M 1060.0 125.0 L 1070.0 125.0" stroke="#FF0000" fill="none" stroke-width="4px" />
<path d="M 1070.0 125.0 L 1080.0 125.0" stroke="#FF0000" fill="none" stroke-width="4px" />
<path d="M 1080.0 125.0 L 1090.0 125.0" stroke="#FF0000" fill="none" stroke-width="4px" />
<path d="M 1090.0 125.0 L 1100.0 125.0" stroke="#FF0000" fill="none" stroke-width="4px" />
<path d="M 1100.0 125.0 L 1100.0 135.0" stroke="#FF0000" fill="none" stroke-width="4px" />
<path d="M 1100.0 135.0 L 1090.0 135.0" stroke="#FF0000" fill="none" stroke-width="4px" />
<path d="M 1090.0 135.0 L 1080.0 135.0" stroke="#FF0000" fill="none" stroke-width="4px" />
<path d="M 1080.0 135.0 L 1070.0 135.0" stroke="#FF0000" fill="none" stroke-width="4px" />
<path d="M 1070.0 135.0 L 1060.0 135.0" stroke="#FF0000" fill="none" stroke-width="4px" />
<path d="M 1060.0 135.0 L 1060.0 145.0" stroke="#FF0000" fill="none" stroke-width="4px" />
<path d="M 1060.0 145.0 L 1070.0 145.0" stroke="#FF0000" fill="none" stroke-width="4px" />
<path d="M 1070.0 145.0 L 1080.0 145.0" stroke="#FF0000" fill="none" stroke-width="4px" />
<path d="M 1080.0 145.0 L 1090.0 145.0" stroke="#FF0000" fill="none" stroke-width="4px" />
<path d="M 1090.0 145.0 L 1100.0 145.0" stroke="#FF0000" fill="none" stroke-width="4px" />
<path d="M 1100.0 145.0 L 1100.0 155.0" stroke="#FF0000" fill="none" stroke-width="4px" />
<path d="M 1100.0 155.0 L 1090.0 155.0" stroke="#FF0000" fill="none" stroke-width="4px" />
<path d="M 1090.0 155.0 L 1080.0 155.0" stroke="#FF0000" fill="none" stroke-width="4px" />
<path d="M 1080.0 155.0 L 1070.0 155.0" stroke="#FF0000" fill="none" stroke-width="4px" />
<path d="M 1070.0 155.0 L 1060.0 155.0" stroke="#FF0000" fill="none" stroke-width="4px" />
<path d="M 1060.0 155.0 L 1070.0 165.0" stroke="#FF0000" fill="none" stroke-width="4px" />
<path d="M 1070.0 165.0 L 1080.0 165.0" stroke="#FF0000" fill="none" stroke-width="4px" />
<path d="M 1080.0 165.0 L 1090.0 165.0" stroke="#FF0000" fill="none" stroke-width="4px" />
<path d="M 1090.0 165.0 L 1080.0 175.0" stroke="#FF0000" fill="none" stroke-width="4px" />
<path d="M 1080.0 115.0 L 1070.0 115.0" stroke="#FF0000" fill="none" stroke-width="4px" />
<path d="M 1070.0 115.0 L 1080.0 105.0" stroke="#FF0000" fill="none" stroke-width="4px" />
<path d="M 1080.0 105.0 L 1090.0 115.0" stroke="#FF0000" fill="none" stroke-width="4px" />
<path d="M 1470.0 185.0 L 1480.0 185.0" stroke="#FF0000" fill="none" stroke-width="4px" />
<path d="M 1480.0 185.0 L 1490.0 185.0" stroke="#FF0000" fill="none" stroke-width="4px" />
<path d="M 1490.0 185.0 L 1500.0 185.0" stroke="#FF0000" fill="none" stroke-width="4px" />
<path d="M 1500.0 185.0 L 1510.0 185.0" stroke="#FF0000" fill="none" stroke-width="4px" />
<path d="M 1510.0 185.0 L 1520.0 185.0" stroke="#FF0000" fill="none" stroke-width="4px" />
<path d="M 1520.0 185.0 L 1520.0 195.0" stroke="#FF0000" fill="none" stroke-width="4px" />
<path d="M 1520.0 195.0 L 1510.0 195.0" stroke="#FF0000" fill="none" stroke-width="4px" />
<path d="M 1510.0 195.0 L 1500.0 195.0" stroke="#FF0000" fill="none" stroke-width="4px" />
<path d="M 1500.0 195.0 L 1490.0 195.0" stroke="#FF0000" fill="none" stroke-width="4px" />
<path d="M 1490.0 195.0 L 1480.0 195.0" stroke="#FF0000" fill="none" stroke-width="4px" />
<path d="M 1480.0 195.0 L 1470.0 195.0" stroke="#FF0000" fill="none" stroke-width="4px" />
<path d="M 1470.0 195.0 L 1480.0 205.0" stroke="#FF0000" fill="none" stroke-width="4px" />
<path d="M 1480.0 205.0 L 1490.0 205.0" stroke="#FF0000" fill="none" stroke-width="4px" />
<path d="M 1490.0 205.0 L 1500.0 205.0" stroke="#FF0000" fill="none" stroke-width="4px" />
<path d="M 1500.0 205.0 L 1510.0 205.0" stroke="#FF0000" fill="none" stroke-width="4px" />
<path d="M 1510.0 205.0 L 1500.0 215.0" stroke="#FF0000" fill="none" stroke-width="4px" />
<path d="M 1500.0 215.0 L 1490.0 215.0" stroke="#FF0000" fill="none" stroke-width="4px" />
<path d="M 1490.0 175.0 L 1480.0 175.0" stroke="#FF0000" fill="none" stroke-width="4px" />
<path d="M 1480.0 175.0 L 1500.0 175.0" stroke="#FF0000" fill="none" stroke-width="4px" />
<path d="M 1500.0 175.0 L 1510.0 175.0" stroke="#FF0000" fill="none" stroke-width="4px" />
<path d="M 1590.0 115.0 L 1600.0 115.0" stroke="#FF0000" fill="none" stroke-width="4px" />
<path d="M 1600.0 115.0 L 1600.0 105.0" stroke="#FF0000" fill="none" stroke-width="4px" />
<path d="M 1600.0 105.0 L 1590.0 105.0" stroke="#FF0000" fill="none" stroke-width="4px" />
<path d="M 1590.0 105.0 L 1580.0 105.0" stroke="#FF0000" fill="none" stroke-width="4px" />
<path d="M 1580.0 105.0 L 1580.0 95.0" stroke="#FF0000" fill="none" stroke-width="4px" />
<path d="M 1580.0 95.0 L 1570.0 95.0" stroke="#FF0000" fill="none" stroke-width="4px" />
<path d="M 1570.0 95.0 L 1570.0 85.0" stroke="#FF0000" fill="none" stroke-width="4px" />
<path d="M 1570.0 85.0 L 1560.0 85.0" stroke="#FF0000" fill="none" stroke-width="4px" />
<path d="M 1560.0 85.0 L 1560.0 75.0" stroke="#FF0000" fill="none" stroke-width="4px" />
<path d="M 1560.0 75.0 L 1570.0 75.0" stroke="#FF0000" fill="none" stroke-width="4px" />
<path d="M 1570.0 75.0 L 1580.0 75.0" stroke="#FF0000" fill="none" stroke-width="4px" />
<path d="M 1580.0 75.0 L 1590.0 75.0" stroke="#FF0000" fill="none" stroke-width="4px" />
<path d="M 1590.0 75.0 L 1600.0 75.0" stroke="#FF0000" fill="none" stroke-width="4px" />
<path d="M 1600.0 75.0 L 1610.0 75.0" stroke="#FF0000" fill="none" stroke-width="4px" />
<path d="M 1610.0 75.0 L 1620.0 75.0" stroke="#FF0000" fill="none" stroke-width="4px" />
<path d="M 1620.0 75.0 L 1620.0 85.0" stroke="#FF0000" fill="none" stroke-width="4px" />
<path d="M 1620.0 85.0 L 1610.0 85.0" stroke="#FF0000" fill="none" stroke-width="4px" />
<path d="M 1610.0 85.0 L 1600.0 85.0" stroke="#FF0000" fill="none" stroke-width="4px" />
<path d="M 1600.0 85.0 L 1590.0 85.0" stroke="#FF0000" fill="none" stroke-width="4px" />
<path d="M 1590.0 85.0 L 1580.0 85.0" stroke="#FF0000" fill="none" stroke-width="4px" />
<path d="M 1580.0 85.0 L 1590.0 95.0" stroke="#FF0000" fill="none" stroke-width="4px" />
<path d="M 1590.0 95.0 L 1600.0 95.0" stroke="#FF0000" fill="none" stroke-width="4px" />
<path d="M 1600.0 95.0 L 1610.0 95.0" stroke="#FF0000" fill="none" stroke-width="4px" />
<path d="M 1610.0 95.0 L 1620.0 95.0" stroke="#FF0000" fill="none" stroke-width="4px" />
<path d="M 1620.0 95.0 L 1610.0 105.0" stroke="#FF0000" fill="none" stroke-width="4px" />
<path d="M 1610.0 65.0 L 1600.0 65.0" stroke="#FF0000" fill="none" stroke-width="4px" />
<path d="M 1600.0 65.0 L 1590.0 65.0" stroke="#FF0000" fill="none" stroke-width="4px" />
<path d="M 1590.0 65.0 L 1580.0 65.0" stroke="#FF0000" fill="none" stroke-width="4px" />
<path d="M 1580.0 65.0 L 1570.0 65.0" stroke="#FF0000" fill="none" stroke-width="4px" />
<path d="M 1570.0 65.0 L 1560.0 65.0" stroke="#FF0000" fill="none" stroke-width="4px" />
<path d="M 1560.0 65.0 L 1570.0 55.0" stroke="#FF0000" fill="none" stroke-width="4px" />
<path d="M 1570.0 55.0 L 1580.0 55.0" stroke="#FF0000" fill="none" stroke-width="4px" />
<path d="M 1580.0 55.0 L 1590.0 55.0" stroke="#FF0000" fill="none" stroke-width="4px" />
<path d="M 1590.0 55.0 L 1600.0 55.0" stroke="#FF0000" fill="none" stroke-width="4px" />
<path d="M 2450.0 105.0 L 2440.0 105.0" stroke="#FF0000" fill="none" stroke-width="4px" />
<path d="M 2440.0 105.0 L 2430.0 105.0" stroke="#FF0000" fill="none" stroke-width="4px" />
<path d="M 2430.0 105.0 L 2420.0 105.0" stroke="#FF0000" fill="none" stroke-width="4px" />
<path d="M 2420.0 105.0 L 2420.0 95.0" stroke="#FF0000" fill="none" stroke-width="4px" />
<path d="M 2420.0 95.0 L 2410.0 95.0" stroke="#FF0000" fill="none" stroke-width="4px" />
<path d="M 2410.0 95.0 L 2410.0 85.0" stroke="#FF0000" fill="none" stroke-width="4px" />
<path d="M 2410.0 85.0 L 2400.0 85.0" stroke="#FF0000" fill="none" stroke-width="4px" />
<path d="M 2400.0 85.0 L 2400.0 75.0" stroke="#FF0000" fill="none" stroke-width="4px" />
<path d="M 2400.0 75.0 L 2390.0 75.0" stroke="#FF0000" fill="none" stroke-width="4px" />
<path d="M 2390.0 75.0 L 2390.0 65.0" stroke="#FF0000" fill="none" stroke-width="4px" />
<path d="M 2390.0 65.0 L 2400.0 65.0" stroke="#FF0000" fill="none" stroke-width="4px" />
<path d="M 2400.0 65.0 L 2410.0 65.0" stroke="#FF0000" fill="none" stroke-width="4px" />
<path d="M 2410.0 65.0 L 2420.0 65.0" stroke="#FF0000" fill="none" stroke-width="4px" />
<path d="M 2420.0 65.0 L 2430.0 65.0" stroke="#FF0000" fill="none" stroke-width="4px" />
<path d="M 2430.0 65.0 L 2440.0 65.0" stroke="#FF0000" fill="none" stroke-width="4px" />
<path d="M 2440.0 65.0 L 2450.0 65.0" stroke="#FF0000" fill="none" stroke-width="4px" />
<path d="M 2450.0 65.0 L 2460.0 65.0" stroke="#FF0000" fill="none" stroke-width="4px" />
<path d="M 2460.0 65.0 L 2470.0 65.0" stroke="#FF0000" fill="none" stroke-width="4px" />
<path d="M 2470.0 65.0 L 2470.0 75.0" stroke="#FF0000" fill="none" stroke-width="4px" />
<path d="M 2470.0 75.0 L 2460.0 75.0" stroke="#FF0000" fill="none" stroke-width="4px" />
<path d="M 2460.0 75.0 L 2450.0 75.0" stroke="#FF0000" fill="none" stroke-width="4px" />
<path d="M 2450.0 75.0 L 2440.0 75.0" stroke="#FF0000" fill="none" stroke-width="4px" />
<path d="M 2440.0 75.0 L 2430.0 75.0" stroke="#FF0000" fill="none" stroke-width="4px" />
<path d="M 2430.0 75.0 L 2420.0 75.0" stroke="#FF0000" fill="none" stroke-width="4px" />
<path d="M 2420.0 75.0 L 2410.0 75.0" stroke="#FF0000" fill="none" stroke-width="4px" />
<path d="M 2410.0 75.0 L 2420.0 85.0" stroke="#FF0000" fill="none" stroke-width="4px" />
<path d="M 2420.0 85.0 L 2430.0 85.0" stroke="#FF0000" fill="none" stroke-width="4px" />
<path d="M 2430.0 85.0 L 2440.0 85.0" stroke="#FF0000" fill="none" stroke-width="4px" />
<path d="M 2440.0 85.0 L 2450.0 85.0" stroke="#FF0000" fill="none" stroke-width="4px" />
<path d="M 2450.0 85.0 L 2460.0 85.0" stroke="#FF0000" fill="none" stroke-width="4px" />
<path d="M 2460.0 85.0 L 2470.0 85.0" stroke="#FF0000" fill="none" stroke-width="4px" />
<path d="M 2470.0 85.0 L 2460.0 95.0" stroke="#FF0000" fill="none" stroke-width="4px" />
<path d="M 2460.0 95.0 L 2450.0 95.0" stroke="#FF0000" fill="none" stroke-width="4px" />
<path d="M 2450.0 95.0 L 2440.0 95.0" stroke="#FF0000" fill="none" stroke-width="4px" />
<path d="M 2440.0 95.0 L 2430.0 95.0" stroke="#FF0000" fill="none" stroke-width="4px" />
<path d="M 2430.0 55.0 L 2420.0 55.0" stroke="#FF0000" fill="none" stroke-width="4px" />
<path d="M 2420.0 55.0 L 2410.0 55.0" stroke="#FF0000" fill="none" stroke-width="4px" />
<path d="M 2410.0 55.0 L 2400.0 55.0" stroke="#FF0000" fill="none" stroke-width="4px" />
<path d="M 2400.0 55.0 L 2410.0 45.0" stroke="#FF0000" fill="none" stroke-width="4px" />
<path d="M 2410.0 45.0 L 2420.0 45.0" stroke="#FF0000" fill="none" stroke-width="4px" />
<path d="M 2420.0 45.0 L 2430.0 45.0" stroke="#FF0000" fill="none" stroke-width="4px" />
<path d="M 2430.0 45.0 L 2440.0 45.0" stroke="#FF0000" fill="none" stroke-width="4px" />
<path d="M 2440.0 45.0 L 2450.0 45.0" stroke="#FF0000" fill="none" stroke-width="4px" />
<path d="M 2450.0 45.0 L 2450.0 55.0" stroke="#FF0000" fill="none" stroke-width="4px" />
<path d="M 2450.0 55.0 L 2440.0 55.0" stroke="#FF0000" fill="none" stroke-width="4px" />
<path d="M 2440.0 55.0 L 2460.0 55.0" stroke="#FF0000" fill="none" stroke-width="4px" />
<path d="M 2020.0 175.0 L 2010.0 175.0" stroke="#FF0000" fill="none" stroke-width="4px" />
<path d="M 2010.0 175.0 L 2000.0 175.0" stroke="#FF0000" fill="none" stroke-width="4px" />
<path d="M 2000.0 175.0 L 1990.0 175.0" stroke="#FF0000" fill="none" stroke-width="4px" />
<path d="M 1990.0 175.0 L 1980.0 175.0" stroke="#FF0000" fill="none" stroke-width="4px" />
<path d="M 1980.0 175.0 L 1970.0 175.0" stroke="#FF0000" fill="none" stroke-width="4px" />
<path d="M 1970.0 175.0 L 1970.0 185.0" stroke="#FF0000" fill="none" stroke-width="4px" />
<path d="M 1970.0 185.0 L 1980.0 185.0" stroke="#FF0000" fill="none" stroke-width="4px" />
<path d="M 1980.0 185.0 L 1990.0 185.0" stroke="#FF0000" fill="none" stroke-width="4px" />
<path d="M 1990.0 185.0 L 2000.0 185.0" stroke="#FF0000" fill="none" stroke-width="4px" />
<path d="M 2000.0 185.0 L 2010.0 185.0" stroke="#FF0000" fill="none" stroke-width="4px" />
<path d="M 2010.0 185.0 L 2000.0 195.0" stroke="#FF0000" fill="none" stroke-width="4px" />
<path d="M 2000.0 195.0 L 1990.0 195.0" stroke="#FF0000" fill="none" stroke-width="4px" />
<path d="M 1990.0 195.0 L 1980.0 195.0" stroke="#FF0000" fill="none" stroke-width="4px" />
<path d="M 1980.0 195.0 L 1990.0 205.0" stroke="#FF0000" fill="none" stroke-width="4px" />
<path d="M 1990.0 165.0 L 1980.0 165.0" stroke="#FF0000" fill="none" stroke-width="4px" />
<path d="M 1980.0 165.0 L 1970.0 165.0" stroke="#FF0000" fill="none" stroke-width="4px" />
<path d="M 1970.0 165.0 L 1980.0 155.0" stroke="#FF0000" fill="none" stroke-width="4px" />
<path d="M 1980.0 155.0 L 1990.0 155.0" stroke="#FF0000" fill="none" stroke-width="4px" />
<path d="M 1990.0 155.0 L 2000.0 155.0" stroke="#FF0000" fill="none" stroke-width="4px" />
<path d="M 2000.0 155.0 L 2000.0 165.0" stroke="#FF0000" fill="none" stroke-width="4px" />
<path d="M 2000.0 165.0 L 2010.0 165.0" stroke="#FF0000" fill="none" stroke-width="4px" />
</svg>