<svg width="2472.26666667" height="235.0" xmlns="http://www.w3.org/2000/svg" version="1.1">
<path d="M 0.0 235.0 L 1985.0 235.0 L 1985.0 0.0 L 0.0 0.0 L 0.0 235.0" stroke="#000000" fill="none" stroke-width="3px" />
<path d="M 2472.26666667 235.0 L 1885.0 235.0 L 1885.0 0.0 L 2472.26666667 0.0 L 2472.26666667 235.0" stroke="#000000" fill="none" stroke-width="3px" />
<path d="M 10.0 257.5 L 0.0 247.5 L 10.0 237.5" stroke="#969696" fill="none" stroke-width="1px" />
<path d="M 10.0 237.5 L 1975.0 237.5" stroke="#969696" fill="none" stroke-width="1px" />
<path d="M 1975.0 237.5 L 1985.0 227.5 L 1975.0 217.5" stroke="#969696" fill="none" stroke-width="1px" />
<path d="M 1975.0 217.5 L 10.0 217.5" stroke="#969696" fill="none" stroke-width="1px" />
<path d="M 10.0 217.5 L 0.0 207.5 L 10.0 197.5" stroke="#969696" fill="none" stroke-width="1px" />
<path d="M 10.0 197.5 L 1975.0 197.5" stroke="#969696" fill="none" stroke-width="1px" />
<path d="M 1975.0 197.5 L 1985.0 187.5 L 1975.0 177.5" stroke="#969696" fill="none" stroke-width="1px" />
<path d="M 1975.0 177.5 L 10.0 177.5" stroke="#969696" fill="none" stroke-width="1px" />
<path d="M 10.0 177.5 L 0.0 167.5 L 10.0 157.5" stroke="#969696" fill="none" stroke-width="1px" />
<path d="M 10.0 157.5 L 1975.0 157.5" stroke="#969696" fill="none" stroke-width="1px" />
<path d="M 1975.0 157.5 L 1985.0 147.5 L 1975.0 137.5" stroke="#969696" fill="none" stroke-width="1px" />
<path d="M 1975.0 137.5 L 10.0 137.5" stroke="#969696" fill="none" stroke-width="1px" />
<path d="M 10.0 137.5 L 0.0 127.5 L 10.0 117.5" stroke="#969696" fill="none" stroke-width="1px" />
<path d="M 10.0 117.5 L 1975.0 117.5" stroke="#969696" fill="none" stroke-width="1px" />
<path d="M 1975.0 117.5 L 1985.0 107.5 L 1975.0 97.5" stroke="#969696" fill="none" stroke-width="1px" />
<path d="M 1975.0 97.5 L 10.0 97.5" stroke="#969696" fill="none" stroke-width="1px" />
<path d="M 10.0 97.5 L 0.0 87.5 L 10.0 77.5" stroke="#969696" fill="none" stroke-width="1px" />
<path d="M 10.0 77.5 L 1975.0 77.5" stroke="#969696" fill="none" stroke-width="1px" />
<path d="M 1975.0 77.5 L 1985.0 67.5 L 1975.0 57.5" stroke="#969696" fill="none" stroke-width="1px" />
<path d="M 1975.0 57.5 L 10.0 57.5" stroke="#969696" fill="none" stroke-width="1px" />
<path d="M 10.0 57.5 L 0.0 47.5 L 10.0 37.5" stroke="#969696" fill="none" stroke-width="1px" />
<path d="M 10.0 37.5 L 1975.0 37.5" stroke="#969696" fill="none" stroke-width="1px" />
<path d="M 1975.0 37.5 L 1985.0 27.5 L 1975.0 17.5" stroke="#969696" fill="none" stroke-width="1px" />
<path d="M 1975.0 17.5 L 10.0 17.5" stroke="#969696" fill="none" stroke-width="1px" />
<path d="M 10.0 17.5 L 0.0 7.5 L 10.0 -2.5" stroke="#969696" fill="none" stroke-width="1px" />
<path d="M 10.0 -2.5 L 1975.0 -2.5" stroke="#969696" fill="none" stroke-width="1px" />
<path d="M 1975.0 -2.5 L 1985.0 -12.5 L 1975.0 -22.5" stroke="#969696" fill="none" stroke-width="1px" />
<path d="M 2462.26666667 257.5 L 2472.26666667 247.5 L 2462.26666667 237.5" stroke="#969696" fill="none" stroke-width="1px" />
<path d="M 2462.26666667 237.5 L 1895.0 237.5" stroke="#969696" fill="none" stroke-width="1px" />
<path d="M 1895.0 237.5 L 1885.0 227.5 L 1895.0 217.5" stroke="#969696" fill="none" stroke-width="1px" />
<path d="M 1895.0 217.5 L 2462.26666667 217.5" stroke="#969696" fill="none" stroke-width="1px" />
<path d="M 2462.26666667 217.5 L 2472.26666667 207.5 L 2462.26666667 197.5" stroke="#969696" fill="none" stroke-width="1px" />
<path d="M 2462.26666667 197.5 L 1895.0 197.5" stroke="#969696" fill="none" stroke-width="1px" />
<path d="M 1895.0 197.5 L 1885.0 187.5 L 1895.0 177.5" stroke="#969696" fill="none" stroke-width="1px" />
<path d="M 1895.0 177.5 L 2462.26666667 177.5" stroke="#969696" fill="none" stroke-width="1px" />
<path d="M 2462.26666667 177.5 L 2472.26666667 167.5 L 2462.26666667 157.5" stroke="#969696" fill="none" stroke-width="1px" />
<path d="M 2462.26666667 157.5 L 1895.0 157.5" stroke="#969696" fill="none" stroke-width="1px" />
<path d="M 1895.0 157.5 L 1885.0 147.5 L 1895.0 137.5" stroke="#969696" fill="none" stroke-width="1px" />
<path d="M 1895.0 137.5 L 2462.26666667 137.5" stroke="#969696" fill="none" stroke-width="1px" />
<path d="M 2462.26666667 137.5 L 2472.26666667 127.5 L 2462.26666667 117.5" stroke="#969696" fill="none" stroke-width="1px" />
<path d="M 2462.26666667 117.5 L 1895.0 117.5" stroke="#969696" fill="none" stroke-width="1px" />
<path d="M 1895.0 117.5 L 1885.0 107.5 L 1895.0 97.5" stroke="#969696" fill="none" stroke-width="1px" />
<path d="M 1895.0 97.5 L 2462.26666667 97.5" stroke="#969696" fill="none" stroke-width="1px" />
<path d="M 2462.26666667 97.5 L 2472.26666667 87.5 L 2462.26666667 77.5" stroke="#969696" fill="none" stroke-width="1px" />
<path d="M 2462.26666667 77.5 L 1895.0 77.5" stroke="#969696" fill="none" stroke-width="1px" />
<path d="M 1895.0 77.5 L 1885.0 67.5 L 1895.0 57.5" stroke="#969696" fill="none" stroke-width="1px" />
<path d="M 1895.0 57.5 L 2462.26666667 57.5" stroke="#969696" fill="none" stroke-width="1px" />
<path d="M 2462.26666667 57.5 L 2472.26666667 47.5 L 2462.26666667 37.5" stroke="#969696" fill="none" stroke-width="1px" />
<path d="M 2462.26666667 37.5 L 1895.0 37.5" stroke="#969696" fill="none" stroke-width="1px" />
<path d="M 1895.0 37.5 L 1885.0 27.5 L 1895.0 17.5" stroke="#969696" fill="none" stroke-width="1px" />
<path d="M 1895.0 17.5 L 2462.26666667 17.5" stroke="#969696" fill="none" stroke-width="1px" />
<path d="M 2462.26666667 17.5 L 2472.26666667 7.5 L 2462.26666667 -2.5" stroke="#969696" fill="none" stroke-width="1px" />
<path d="M 2462.26666667 -2.5 L 1895.0 -2.5" stroke="#969696" fill="none" stroke-width="1px" />
<path d="M 1895.0 -2.5 L 1885.0 -12.5 L 1895.0 -22.5" stroke="#969696" fill="none" stroke-width="1px" />
<path d="M 0.0 235.0 L 640.0 235.0" stroke="#0095FF" fill="none" stroke-width="2px" />
<path d="M 640.0 235.0 L 640.0 115.0" stroke="#0095FF" fill="none" stroke-width="2px" />
<path d="M 680.0 135.0 L 680.0 105.0" stroke="#0095FF" fill="none" stroke-width="2px" />
<path d="M 690.0 105.0 L 670.0 105.0" stroke="#0095FF" fill="none" stroke-width="2px" />
<path d="M 670.0 105.0 L 670.0 85.0" stroke="#0095FF" fill="none" stroke-width="2px" />
<path d="M 660.0 85.0 L 740.0 85.0" stroke="#0095FF" fill="none" stroke-width="2px" />
<path d="M 740.0 85.0 L 740.0 145.0" stroke="#0095FF" fill="none" stroke-width="2px" />
<path d="M 750.0 195.0 L 780.0 195.0" stroke="#0095FF" fill="none" stroke-width="2px" />
<path d="M 780.0 195.0 L 780.0 155.0" stroke="#0095FF" fill="none" stroke-width="2px" />
<path d="M 780.0 155.0 L 1330.0 155.0" stroke="#0095FF" fill="none" stroke-width="2px" />
<path d="M 1330.0 155.0 L 1330.0 205.0" stroke="#0095FF" fill="none" stroke-width="2px" />
<path d="M 1340.0 235.0 L 1340.0 195.0" stroke="#0095FF" fill="none" stroke-width="2px" />
<path d="M 1350.0 195.0 L 1750.0 195.0" stroke="#0095FF" fill="none" stroke-width="2px" />
<path d="M 1750.0 195.0 L 1750.0 185.0" stroke="#0095FF" fill="none" stroke-width="2px" />
<path d="M 1810.0 205.0 L 1810.0 175.0" stroke="#0095FF" fill="none" stroke-width="2px" />
<path d="M 1820.0 175.0 L 1810.0 175.0" stroke="#0095FF" fill="none" stroke-width="2px" />
<path d="M 1810.0 175.0 L 1810.0 155.0" stroke="#0095FF" fill="none" stroke-width="2px" />
<path d="M 2472.26666667 235.0 L 2400.0 235.0" stroke="#0095FF" fill="none" stroke-width="2px" />
<path d="M 2400.0 235.0 L 2400.0 195.0" stroke="#0095FF" fill="none" stroke-width="2px" />
<path d="M 2340.0 235.0 L 2380.0 235.0" stroke="#0095FF" fill="none" stroke-width="2px" />
<path d="M 2380.0 235.0 L 2380.0 205.0" stroke="#0095FF" fill="none" stroke-width="2px" />
<path d="M 2380.0 205.0 L 2380.0 185.0" stroke="#0095FF" fill="none" stroke-width="2px" />
<path d="M 2390.0 185.0 L 2390.0 165.0" stroke="#0095FF" fill="none" stroke-width="2px" />
<path d="M 2330.0 145.0 L 2400.0 145.0" stroke="#0095FF" fill="none" stroke-width="2px" />
<path d="M 2400.0 145.0 L 2400.0 165.0" stroke="#0095FF" fill="none" stroke-width="2px" />
<path d="M 2400.0 165.0 L 1890.0 165.0" stroke="#0095FF" fill="none" stroke-width="2px" />
<path d="M 1890.0 165.0 L 1890.0 85.0" stroke="#0095FF" fill="none" stroke-width="2px" />
<path d="M 1840.0 45.0 L 1840.0 95.0" stroke="#0095FF" fill="none" stroke-width="2px" />
<path d="M 1850.0 95.0 L 1850.0 115.0" stroke="#0095FF" fill="none" stroke-width="2px" />
<path d="M 1860.0 115.0 L 1880.0 115.0" stroke="#0095FF" fill="none" stroke-width="2px" />
<path d="M 1880.0 115.0 L 1880.0 95.0" stroke="#0095FF" fill="none" stroke-width="2px" />
<path d="M 640.0 115.0 L 650.0 115.0" stroke="#FF0000" fill="none" stroke-width="4px" />
<path d="M 650.0 115.0 L 660.0 115.0" stroke="#FF0000" fill="none" stroke-width="4px" />
<path d="M 660.0 115.0 L 670.0 115.0" stroke="#FF0000" fill="none" stroke-width="4px" />
<path d="M 670.0 115.0 L 680.0 115.0" stroke="#FF0000" fill="none" stroke-width="4px" />
<path d="M 680.0 115.0 L 690.0 115.0" stroke="#FF0000" fill="none" stroke-width="4px" />
<path d="M 690.0 115.0 L 690.0 125.0" stroke="#FF0000" fill="none" stroke-width="4px" />
<path d="M 690.0 125.0 L 680.0 125.0" stroke="#FF0000" fill="none" stroke-width="4px" />
<path d="M 680.0 125.0 L 670.0 125.0" stroke="#FF0000" fill="none" stroke-width="4px" />
<path d="M 670.0 125.0 L 660.0 125.0" stroke="#FF0000" fill="none" stroke-width="4px" />
<path d="M 660.0 125.0 L 650.0 125.0" stroke="#FF0000" fill="none" stroke-width="4px" />
<path d="M 650.0 125.0 L 660.0 135.0" stroke="#FF0000" fill="none" stroke-width="4px" />
<path d="M 660.0 135.0 L 670.0 135.0" stroke="#FF0000" fill="none" stroke-width="4px" />
<path d="M 670.0 135.0 L 680.0 135.0" stroke="#FF0000" fill="none" stroke-width="4px" />
<path d="M 680.0 105.0 L 670.0 105.0" stroke="#FF0000" fill="none" stroke-width="4px" />
<path d="M 670.0 105.0 L 660.0 105.0" stroke="#FF0000" fill="none" stroke-width="4px" />
<path d="M 660.0 105.0 L 650.0 105.0" stroke="#FF0000" fill="none" stroke-width="4px" />
<path d="M 650.0 105.0 L 640.0 105.0" stroke="#FF0000" fill="none" stroke-width="4px" />
<path d="M 640.0 105.0 L 650.0 95.0" stroke="#FF0000" fill="none" stroke-width="4px" />
<path d="M 650.0 95.0 L 660.0 95.0" stroke="#FF0000" fill="none" stroke-width="4px" />
<path d="M 660.0 95.0 L 670.0 95.0" stroke="#FF0000" fill="none" stroke-width="4px" />
<path d="M 670.0 95.0 L 680.0 95.0" stroke="#FF0000" fill="none" stroke-width="4px" />
<path d="M 680.0 95.0 L 690.0 105.0" stroke="#FF0000" fill="none" stroke-width="4px" />
<path d="M 670.0 85.0 L 660.0 85.0" stroke="#FF0000" fill="none" stroke-width="4px" />
<path d="M 740.0 145.0 L 750.0 145.0" stroke="#FF0000" fill="none" stroke-width="4px" />
<path d="M 750.0 145.0 L 760.0 145.0" stroke="#FF0000" fill="none" stroke-width="4px" />
<path d="M 760.0 145.0 L 770.0 145.0" stroke="#FF0000" fill="none" stroke-width="4px" />
<path d="M 770.0 145.0 L 770.0 155.0" stroke="#FF0000" fill="none" stroke-width="4px" />
<path d="M 770.0 155.0 L 760.0 155.0" stroke="#FF0000" fill="none" stroke-width="4px" />
<path d="M 760.0 155.0 L 750.0 155.0" stroke="#FF0000" fill="none" stroke-width="4px" />
<path d="M 750.0 155.0 L 740.0 155.0" stroke="#FF0000" fill="none" stroke-width="4px" />
<path d="M 740.0 155.0 L 730.0 155.0" stroke="#FF0000" fill="none" stroke-width="4px" />
<path d="M 730.0 155.0 L 730.0 165.0" stroke="#FF0000" fill="none" stroke-width="4px" />
<path d="M 730.0 165.0 L 740.0 165.0" stroke="#FF0000" fill="none" stroke-width="4px" />
<path d="M 740.0 165.0 L 750.0 165.0" stroke="#FF0000" fill="none" stroke-width="4px" />
<path d="M 750.0 165.0 L 760.0 165.0" stroke="#FF0000" fill="none" stroke-width="4px" />
<path d="M 760.0 165.0 L 770.0 165.0" stroke="#FF0000" fill="none" stroke-width="4px" />
<path d="M 770.0 165.0 L 780.0 165.0" stroke="#FF0000" fill="none" stroke-width="4px" />
<path d="M 780.0 165.0 L 790.0 165.0" stroke="#FF0000" fill="none" stroke-width="4px" />
<path d="M 790.0 165.0 L 790.0 175.0" stroke="#FF0000" fill="none" stroke-width="4px" />
<path d="M 790.0 175.0 L 780.0 175.0" stroke="#FF0000" fill="none" stroke-width="4px" />
<path d="M 780.0 175.0 L 770.0 175.0" stroke="#FF0000" fill="none" stroke-width="4px" />
<path d="M 770.0 175.0 L 760.0 175.0" stroke="#FF0000" fill="none" stroke-width="4px" />
<path d="M 760.0 175.0 L 750.0 175.0" stroke="#FF0000" fill="none" stroke-width="4px" />
<path d="M 750.0 175.0 L 740.0 175.0" stroke="#FF0000" fill="none" stroke-width="4px" />
<path d="M 740.0 175.0 L 730.0 175.0" stroke="#FF0000" fill="none" stroke-width="4px" />
<path d="M 730.0 175.0 L 740.0 185.0" stroke="#FF0000" fill="none" stroke-width="4px" />
<path d="M 740.0 185.0 L 750.0 185.0" stroke="#FF0000" fill="none" stroke-width="4px" />
<path d="M 750.0 185.0 L 760.0 185.0" stroke="#FF0000" fill="none" stroke-width="4px" />
<path d="M 760.0 185.0 L 770.0 185.0" stroke="#FF0000" fill="none" stroke-width="4px" />
<path d="M 770.0 185.0 L 780.0 185.0" stroke="#FF0000" fill="none" stroke-width="4px" />
<path d="M 780.0 185.0 L 790.0 185.0" stroke="#FF0000" fill="none" stroke-width="4px" />
<path d="M 790.0 185.0 L 780.0 195.0" stroke="#FF0000" fill="none" stroke-width="4px" />
<path d="M 780.0 195.0 L 770.0 195.0" stroke="#FF0000" fill="none" stroke-width="4px" />
<path d="M 770.0 195.0 L 760.0 195.0" stroke="#FF0000" fill="none" stroke-width="4px" />
<path d="M 760.0 195.0 L 750.0 195.0" stroke="#FF0000" fill="none" stroke-width="4px" />
<path d="M 1330.0 205.0 L 1340.0 205.0" stroke="#FF0000" fill="none" stroke-width="4px" />
<path d="M 1340.0 205.0 L 1350.0 205.0" stroke="#FF0000" fill="none" stroke-width="4px" />
<path d="M 1350.0 205.0 L 1360.0 205.0" stroke="#FF0000" fill="none" stroke-width="4px" />
<path d="M 1360.0 205.0 L 1360.0 215.0" stroke="#FF0000" fill="none" stroke-width="4px" />
<path d="M 1360.0 215.0 L 1350.0 215.0" stroke="#FF0000" fill="none" stroke-width="4px" />
<path d="M 1350.0 215.0 L 1340.0 215.0" stroke="#FF0000" fill="none" stroke-width="4px" />
<path d="M 1340.0 215.0 L 1330.0 215.0" stroke="#FF0000" fill="none" stroke-width="4px" />
<path d="M 1330.0 215.0 L 1340.0 225.0" stroke="#FF0000" fill="none" stroke-width="4px" />
<path d="M 1340.0 225.0 L 1350.0 225.0" stroke="#FF0000" fill="none" stroke-width="4px" />
<path d="M 1350.0 225.0 L 1340.0 235.0" stroke="#FF0000" fill="none" stroke-width="4px" />
<path d="M 1340.0 195.0 L 1350.0 195.0" stroke="#FF0000" fill="none" stroke-width="4px" />
<path d="M 1750.0 185.0 L 1760.0 185.0" stroke="#FF0000" fill="none" stroke-width="4px" />
<path d="M 1760.0 185.0 L 1770.0 185.0" stroke="#FF0000" fill="none" stroke-width="4px" />
<path d="M 1770.0 185.0 L 1780.0 185.0" stroke="#FF0000" fill="none" stroke-width="4px" />
<path d="M 1780.0 185.0 L 1790.0 185.0" stroke="#FF0000" fill="none" stroke-width="4px" />
<path d="M 1790.0 185.0 L 1800.0 185.0" stroke="#FF0000" fill="none" stroke-width="4px" />
<path d="M 1800.0 185.0 L 1810.0 185.0" stroke="#FF0000" fill="none" stroke-width="4px" />
<path d="M 1810.0 185.0 L 1820.0 185.0" stroke="#FF0000" fill="none" stroke-width="4px" />
<path d="M 1820.0 185.0 L 1820.0 195.0" stroke="#FF0000" fill="none" stroke-width="4px" />
<path d="M 1820.0 195.0 L 1810.0 195.0" stroke="#FF0000" fill="none" stroke-width="4px" />
<path d="M 1810.0 195.0 L 1800.0 195.0" stroke="#FF0000" fill="none" stroke-width="4px" />
<path d="M 1800.0 195.0 L 1790.0 195.0" stroke="#FF0000" fill="none" stroke-width="4px" />
<path d="M 1790.0 195.0 L 1780.0 195.0" stroke="#FF0000" fill="none" stroke-width="4px" />
<path d="M 1780.0 195.0 L 1770.0 195.0" stroke="#FF0000" fill="none" stroke-width="4px" />
<path d="M 1770.0 195.0 L 1760.0 195.0" stroke="#FF0000" fill="none" stroke-width="4px" />
<path d="M 1760.0 195.0 L 1770.0 205.0" stroke="#FF0000" fill="none" stroke-width="4px" />
<path d="M 1770.0 205.0 L 1780.0 205.0" stroke="#FF0000" fill="none" stroke-width="4px" />
<path d="M 1780.0 205.0 L 1790.0 205.0" stroke="#FF0000" fill="none" stroke-width="4px" />
<path d="M 1790.0 205.0 L 1800.0 205.0" stroke="#FF0000" fill="none" stroke-width="4px" />
<path d="M 1800.0 205.0 L 1810.0 205.0" stroke="#FF0000" fill="none" stroke-width="4px" />
<path d="M 1810.0 175.0 L 1800.0 175.0" stroke="#FF0000" fill="none" stroke-width="4px" />
<path d="M 1800.0 175.0 L 1790.0 175.0" stroke="#FF0000" fill="none" stroke-width="4px" />
<path d="M 1790.0 175.0 L 1780.0 175.0" stroke="#FF0000" fill="none" stroke-width="4px" />
<path d="M 1780.0 175.0 L 1770.0 175.0" stroke="#FF0000" fill="none" stroke-width="4px" />
<path d="M 1770.0 175.0 L 1760.0 175.0" stroke="#FF0000" fill="none" stroke-width="4px" />
<path d="M 1760.0 175.0 L 1750.0 175.0" stroke="#FF0000" fill="none" stroke-width="4px" />
<path d="M 1750.0 175.0 L 1750.0 165.0" stroke="#FF0000" fill="none" stroke-width="4px" />
<path d="M 1750.0 165.0 L 1760.0 165.0" stroke="#FF0000" fill="none" stroke-width="4px" />
<path d="M 1760.0 165.0 L 1770.0 165.0" stroke="#FF0000" fill="none" stroke-width="4px" />
<path d="M 1770.0 165.0 L 1780.0 165.0" stroke="#FF0000" fill="none" stroke-width="4px" />
<path d="M 1780.0 165.0 L 1790.0 165.0" stroke="#FF0000" fill="none" stroke-width="4px" />
<path d="M 1790.0 165.0 L 1800.0 165.0" stroke="#FF0000" fill="none" stroke-width="4px" />
<path d="M 1800.0 165.0 L 1810.0 165.0" stroke="#FF0000" fill="none" stroke-width="4px" />
<path d="M 1810.0 165.0 L 1820.0 165.0" stroke="#FF0000" fill="none" stroke-width="4px" />
<path d="M 1820.0 165.0 L 1820.0 175.0" stroke="#FF0000" fill="none" stroke-width="4px" />
<path d="M 1810.0 155.0 L 1800.0 155.0" stroke="#FF0000" fill="none" stroke-width="4px" />
<path d="M 1800.0 155.0 L 1790.0 155.0" stroke="#FF0000" fill="none" stroke-width="4px" />
<path d="M 1790.0 155.0 L 1780.0 155.0" stroke="#FF0000" fill="none" stroke-width="4px" />
<path d="M 1780.0 155.0 L 1770.0 155.0" stroke="#FF0000" fill="none" stroke-width="4px" />
<path d="M 1770.0 155.0 L 1760.0 155.0" stroke="#FF0000" fill="none" stroke-width="4px" />
<path d="M 1760.0 155.0 L 1750.0 155.0" stroke="#FF0000" fill="none" stroke-width="4px" />
<path d="M 1750.0 155.0 L 1750.0 145.0" stroke="#FF0000" fill="none" stroke-width="4px" />
<path d="M 1750.0 145.0 L 1760.0 145.0" stroke="#FF0000" fill="none" stroke-width="4px" />
<path d="M 1760.0 145.0 L 1770.0 145.0" stroke="#FF0000" fill="none" stroke-width="4px" />
<path d="M 1770.0 145.0 L 1780.0 145.0" stroke="#FF0000" fill="none" stroke-width="4px" />
<path d="M 1780.0 145.0 L 1790.0 145.0" stroke="#FF0000" fill="none" stroke-width="4px" />
<path d="M 1790.0 145.0 L 1800.0 145.0" stroke="#FF0000" fill="none" stroke-width="4px" />
<path d="M 1800.0 145.0 L 1790.0 135.0" stroke="#FF0000" fill="none" stroke-width="4px" />
<path d="M 1790.0 135.0 L 1780.0 135.0" stroke="#FF0000" fill="none" stroke-width="4px" />
<path d="M 1780.0 135.0 L 1770.0 135.0" stroke="#FF0000" fill="none" stroke-width="4px" />
<path d="M 1770.0 135.0 L 1760.0 135.0" stroke="#FF0000" fill="none" stroke-width="4px" />
<path d="M 1760.0 135.0 L 1760.0 125.0" stroke="#FF0000" fill="none" stroke-width="4px" />
<path d="M 1760.0 125.0 L 1770.0 125.0" stroke="#FF0000" fill="none" stroke-width="4px" />
<path d="M 1770.0 125.0 L 1780.0 125.0" stroke="#FF0000" fill="none" stroke-width="4px" />
<path d="M 1780.0 125.0 L 1790.0 125.0" stroke="#FF0000" fill="none" stroke-width="4px" />
<path d="M 1790.0 125.0 L 1780.0 115.0" stroke="#FF0000" fill="none" stroke-width="4px" />
<path d="M 1780.0 115.0 L 1770.0 115.0" stroke="#FF0000" fill="none" stroke-width="4px" />
<path d="M 2400.0 195.0 L 2390.0 195.0" stroke="#FF0000" fill="none" stroke-width="4px" />
<path d="M 2390.0 195.0 L 2380.0 195.0" stroke="#FF0000" fill="none" stroke-width="4px" />
<path d="M 2380.0 195.0 L 2370.0 195.0" stroke="#FF0000" fill="none" stroke-width="4px" />
<path d="M 2370.0 195.0 L 2360.0 195.0" stroke="#FF0000" fill="none" stroke-width="4px" />
<path d="M 2360.0 195.0 L 2350.0 195.0" stroke="#FF0000" fill="none" stroke-width="4px" />
<path d="M 2350.0 195.0 L 2340.0 195.0" stroke="#FF0000" fill="none" stroke-width="4px" />
<path d="M 2340.0 195.0 L 2330.0 195.0" stroke="#FF0000" fill="none" stroke-width="4px" />
<path d="M 2330.0 195.0 L 2320.0 195.0" stroke="#FF0000" fill="none" stroke-width="4px" />
<path d="M 2320.0 195.0 L 2310.0 195.0" stroke="#FF0000" fill="none" stroke-width="4px" />
<path d="M 2310.0 195.0 L 2300.0 195.0" stroke="#FF0000" fill="none" stroke-width="4px" />
<path d="M 2300.0 195.0 L 2290.0 195.0" stroke="#FF0000" fill="none" stroke-width="4px" />
<path d="M 2290.0 195.0 L 2290.0 205.0" stroke="#FF0000" fill="none" stroke-width="4px" />
<path d="M 2290.0 205.0 L 2300.0 205.0" stroke="#FF0000" fill="none" stroke-width="4px" />
<path d="M 2300.0 205.0 L 2310.0 205.0" stroke="#FF0000" fill="none" stroke-width="4px" />
<path d="M 2310.0 205.0 L 2320.0 205.0" stroke="#FF0000" fill="none" stroke-width="4px" />
<path d="M 2320.0 205.0 L 2330.0 205.0" stroke="#FF0000" fill="none" stroke-width="4px" />
<path d="M 2330.0 205.0 L 2340.0 205.0" stroke="#FF0000" fill="none" stroke-width="4px" />
<path d="M 2340.0 205.0 L 2350.0 205.0" stroke="#FF0000" fill="none" stroke-width="4px" />
<path d="M 2350.0 205.0 L 2360.0 205.0" stroke="#FF0000" fill="none" stroke-width="4px" />
<path d="M 2360.0 205.0 L 2360.0 215.0" stroke="#FF0000" fill="none" stroke-width="4px" />
<path d="M 2360.0 215.0 L 2350.0 215.0" stroke="#FF0000" fill="none" stroke-width="4px" />
<path d="M 2350.0 215.0 L 2340.0 215.0" stroke="#FF0000" fill="none" stroke-width="4px" />
<path d="M 2340.0 215.0 L 2330.0 215.0" stroke="#FF0000" fill="none" stroke-width="4px" />
<path d="M 2330.0 215.0 L 2320.0 215.0" stroke="#FF0000" fill="none" stroke-width="4px" />
<path d="M 2320.0 215.0 L 2310.0 215.0" stroke="#FF0000" fill="none" stroke-width="4px" />
<path d="M 2310.0 215.0 L 2300.0 215.0" stroke="#FF0000" fill="none" stroke-width="4px" />
<path d="M 2300.0 215.0 L 2310.0 225.0" stroke="#FF0000" fill="none" stroke-width="4px" />
<path d="M 2310.0 225.0 L 2320.0 225.0" stroke="#FF0000" fill="none" stroke-width="4px" />
<path d="M 2320.0 225.0 L 2330.0 225.0" stroke="#FF0000" fill="none" stroke-width="4px" />
<path d="M 2330.0 225.0 L 2340.0 225.0" stroke="#FF0000" fill="none" stroke-width="4px" />
<path d="M 2340.0 225.0 L 2350.0 225.0" stroke="#FF0000" fill="none" stroke-width="4px" />
<path d="M 2350.0 225.0 L 2360.0 225.0" stroke="#FF0000" fill="none" stroke-width="4px" />
<path d="M 2360.0 225.0 L 2350.0 235.0" stroke="#FF0000" fill="none" stroke-width="4px" />
<path d="M 2350.0 235.0 L 2340.0 235.0" stroke="#FF0000" fill="none" stroke-width="4px" />
<path d="M 2380.0 185.0 L 2370.0 185.0" stroke="#FF0000" fill="none" stroke-width="4px" />
<path d="M 2370.0 185.0 L 2360.0 185.0" stroke="#FF0000" fill="none" stroke-width="4px" />
<path d="M 2360.0 185.0 L 2350.0 185.0" stroke="#FF0000" fill="none" stroke-width="4px" />
<path d="M 2350.0 185.0 L 2340.0 185.0" stroke="#FF0000" fill="none" stroke-width="4px" />
<path d="M 2340.0 185.0 L 2330.0 185.0" stroke="#FF0000" fill="none" stroke-width="4px" />
<path d="M 2330.0 185.0 L 2320.0 185.0" stroke="#FF0000" fill="none" stroke-width="4px" />
<path d="M 2320.0 185.0 L 2310.0 185.0" stroke="#FF0000" fill="none" stroke-width="4px" />
<path d="M 2310.0 185.0 L 2300.0 185.0" stroke="#FF0000" fill="none" stroke-width="4px" />
<path d="M 2300.0 185.0 L 2310.0 175.0" stroke="#FF0000" fill="none" stroke-width="4px" />
<path d="M 2310.0 175.0 L 2320.0 175.0" stroke="#FF0000" fill="none" stroke-width="4px" />
<path d="M 2320.0 175.0 L 2330.0 175.0" stroke="#FF0000" fill="none" stroke-width="4px" />
<path d="M 2330.0 175.0 L 2340.0 175.0" stroke="#FF0000" fill="none" stroke-width="4px" />
<path d="M 2340.0 175.0 L 2350.0 175.0" stroke="#FF0000" fill="none" stroke-width="4px" />
<path d="M 2350.0 175.0 L 2360.0 175.0" stroke="#FF0000" fill="none" stroke-width="4px" />
<path d="M 2360.0 175.0 L 2370.0 175.0" stroke="#FF0000" fill="none" stroke-width="4px" />
<path d="M 2370.0 175.0 L 2380.0 175.0" stroke="#FF0000" fill="none" stroke-width="4px" />
<path d="M 2380.0 175.0 L 2390.0 175.0" stroke="#FF0000" fill="none" stroke-width="4px" />
<path d="M 2390.0 175.0 L 2400.0 175.0" stroke="#FF0000" fill="none" stroke-width="4px" />
<path d="M 2400.0 175.0 L 2410.0 175.0" stroke="#FF0000" fill="none" stroke-width="4px" />
<path d="M 2410.0 175.0 L 2410.0 185.0" stroke="#FF0000" fill="none" stroke-width="4px" />
<path d="M 2410.0 185.0 L 2400.0 185.0" stroke="#FF0000" fill="none" stroke-width="4px" />
<path d="M 2400.0 185.0 L 2390.0 185.0" stroke="#FF0000" fill="none" stroke-width="4px" />
<path d="M 2390.0 165.0 L 2380.0 165.0" stroke="#FF0000" fill="none" stroke-width="4px" />
<path d="M 2380.0 165.0 L 2370.0 165.0" stroke="#FF0000" fill="none" stroke-width="4px" />
<path d="M 2370.0 165.0 L 2350.0 165.0" stroke="#FF0000" fill="none" stroke-width="4px" />
<path d="M 2350.0 165.0 L 2340.0 165.0" stroke="#FF0000" fill="none" stroke-width="4px" />
<path d="M 2340.0 165.0 L 2330.0 165.0" stroke="#FF0000" fill="none" stroke-width="4px" />
<path d="M 2330.0 165.0 L 2320.0 165.0" stroke="#FF0000" fill="none" stroke-width="4px" />
<path d="M 2320.0 165.0 L 2310.0 165.0" stroke="#FF0000" fill="none" stroke-width="4px" />
<path d="M 2310.0 165.0 L 2320.0 155.0" stroke="#FF0000" fill="none" stroke-width="4px" />
<path d="M 2320.0 155.0 L 2330.0 155.0" stroke="#FF0000" fill="none" stroke-width="4px" />
<path d="M 2330.0 155.0 L 2340.0 155.0" stroke="#FF0000" fill="none" stroke-width="4px" />
<path d="M 2340.0 155.0 L 2330.0 145.0" stroke="#FF0000" fill="none" stroke-width="4px" />
<path d="M 1890.0 85.0 L 1880.0 85.0" stroke="#FF0000" fill="none" stroke-width="4px" />
<path d="M 1880.0 85.0 L 1870.0 85.0" stroke="#FF0000" fill="none" stroke-width="4px" />
<path d="M 1870.0 85.0 L 1860.0 85.0" stroke="#FF0000" fill="none" stroke-width="4px" />
<path d="M 1860.0 85.0 L 1850.0 85.0" stroke="#FF0000" fill="none" stroke-width="4px" />
<path d="M 1850.0 85.0 L 1840.0 85.0" stroke="#FF0000" fill="none" stroke-width="4px" />
<path d="M 1840.0 85.0 L 1830.0 85.0" stroke="#FF0000" fill="none" stroke-width="4px" />
<path d="M 1830.0 85.0 L 1820.0 85.0" stroke="#FF0000" fill="none" stroke-width="4px" />
<path d="M 1820.0 85.0 L 1820.0 75.0" stroke="#FF0000" fill="none" stroke-width="4px" />
<path d="M 1820.0 75.0 L 1830.0 75.0" stroke="#FF0000" fill="none" stroke-width="4px" />
<path d="M 1830.0 75.0 L 1840.0 75.0" stroke="#FF0000" fill="none" stroke-width="4px" />
<path d="M 1840.0 75.0 L 1850.0 75.0" stroke="#FF0000" fill="none" stroke-width="4px" />
<path d="M 1850.0 75.0 L 1860.0 75.0" stroke="#FF0000" fill="none" stroke-width="4px" />
<path d="M 1860.0 75.0 L 1870.0 75.0" stroke="#FF0000" fill="none" stroke-width="4px" />
<path d="M 1870.0 75.0 L 1880.0 75.0" stroke="#FF0000" fill="none" stroke-width="4px" />
<path d="M 1880.0 75.0 L 1870.0 65.0" stroke="#FF0000" fill="none" stroke-width="4px" />
<path d="M 1870.0 65.0 L 1860.0 65.0" stroke="#FF0000" fill="none" stroke-width="4px" />
<path d="M 1860.0 65.0 L 1850.0 65.0" stroke="#FF0000" fill="none" stroke-width="4px" />
<path d="M 1850.0 65.0 L 1840.0 65.0" stroke="#FF0000" fill="none" stroke-width="4px" />
<path d="M 1840.0 65.0 L 1830.0 65.0" stroke="#FF0000" fill="none" stroke-width="4px" />
<path d="M 1830.0 65.0 L 1820.0 65.0" stroke="#FF0000" fill="none" stroke-width="4px" />
<path d="M 1820.0 65.0 L 1830.0 55.0" stroke="#FF0000" fill="none" stroke-width="4px" />
<path d="M 1830.0 55.0 L 1840.0 55.0" stroke="#FF0000" fill="none" stroke-width="4px" />
<path d="M 1840.0 55.0 L 1850.0 55.0" stroke="#FF0000" fill="none" stroke-width="4px" />
<path d="M 1850.0 55.0 L 1840.0 45.0" stroke="#FF0000" fill="none" stroke-width="4px" />
<path d="M 1840.0 95.0 L 1830.0 95.0" stroke="#FF0000" fill="none" stroke-width="4px" />
<path d="M 1830.0 95.0 L 1840.0 105.0" stroke="#FF0000" fill="none" stroke-width="4px" />
<path d="M 1840.0 105.0 L 1850.0 105.0" stroke="#FF0000" fill="none" stroke-width="4px" />
<path d="M 1850.0 105.0 L 1860.0 105.0" stroke="#FF0000" fill="none" stroke-width="4px" />
<path d="M 1860.0 105.0 L 1870.0 105.0" stroke="#FF0000" fill="none" stroke-width="4px" />
<path d="M 1870.0 105.0 L 1870.0 95.0" stroke="#FF0000" fill="none" stroke-width="4px" />
<path d="M 1870.0 95.0 L 1860.0 95.0" stroke="#FF0000" fill="none" stroke-width="4px" />
<path d="M 1860.0 95.0 L 1850.0 95.0" stroke="#FF0000" fill="none" stroke-width="4px" />
<path d="M 1850.0 115.0 L 1860.0 115.0" stroke="#FF0000" fill="none" stroke-width="4px" />
</svg>