<svg width="2472.26666667" height="235.0" xmlns="http://www.w3.org/2000/svg" version="1.1">
<path d="M 0.0 235.0 L 1985.0 235.0 L 1985.0 0.0 L 0.0 0.0 L 0.0 235.0" stroke="#000000" fill="none" stroke-width="3px" />
<path d="M 2472.26666667 235.0 L 1885.0 235.0 L 1885.0 0.0 L 2472.26666667 0.0 L 2472.26666667 235.0" stroke="#000000" fill="none" stroke-width="3px" />
<path d="M 10.0 257.5 L 0.0 247.5 L 10.0 237.5" stroke="#969696" fill="none" stroke-width="1px" />
<path d="M 10.0 237.5 L 1975.0 237.5" stroke="#969696" fill="none" stroke-width="1px" />
<path d="M 1975.0 237.5 L 1985.0 227.5 L 1975.0 217.5" stroke="#969696" fill="none" stroke-width="1px" />
<path d="M 1975.0 217.5 L 10.0 217.5" stroke="#969696" fill="none" stroke-width="1px" />
<path d="M 10.0 217.5 L 0.0 207.5 L 10.0 197.5" stroke="#969696" fill="none" stroke-width="1px" />
<path d="M 10.0 197.5 L 1975.0 197.5" stroke="#969696" fill="none" stroke-width="1px" />
<path d="M 1975.0 197.5 L 1985.0 187.5 L 1975.0 177.5" stroke="#969696" fill="none" stroke-width="1px" />
<path d="M 1975.0 177.5 L 10.0 177.5" stroke="#969696" fill="none" stroke-width="1px" />
<path d="M 10.0 177.5 L 0.0 167.5 L 10.0 157.5" stroke="#969696" fill="none" stroke-width="1px" />
<path d="M 10.0 157.5 L 1975.0 157.5" stroke="#969696" fill="none" stroke-width="1px" />
<path d="M 1975.0 157.5 L 1985.0 147.5 L 1975.0 137.5" stroke="#969696" fill="none" stroke-width="1px" />
<path d="M 1975.0 137.5 L 10.0 137.5" stroke="#969696" fill="none" stroke-width="1px" />
<path d="M 10.0 137.5 L 0.0 127.5 L 10.0 117.5" stroke="#969696" fill="none" stroke-width="1px" />
<path d="M 10.0 117.5 L 1975.0 117.5" stroke="#969696" fill="none" stroke-width="1px" />
<path d="M 1975.0 117.5 L 1985.0 107.5 L 1975.0 97.5" stroke="#969696" fill="none" stroke-width="1px" />
<path d="M 1975.0 97.5 L 10.0 97.5" stroke="#969696" fill="none" stroke-width="1px" />
<path d="M 10.0 97.5 L 0.0 87.5 L 10.0 77.5" stroke="#969696" fill="none" stroke-width="1px" />
<path d="M 10.0 77.5 L 1975.0 77.5" stroke="#969696" fill="none" stroke-width="1px" />
<path d="M 1975.0 77.5 L 1985.0 67.5 L 1975.0 57.5" stroke="#969696" fill="none" stroke-width="1px" />
<path d="M 1975.0 57.5 L 10.0 57.5" stroke="#969696" fill="none" stroke-width="1px" />
<path d="M 10.0 57.5 L 0.0 47.5 L 10.0 37.5" stroke="#969696" fill="none" stroke-width="1px" />
<path d="M 10.0 37.5 L 1975.0 37.5" stroke="#969696" fill="none" stroke-width="1px" />
<path d="M 1975.0 37.5 L 1985.0 27.5 L 1975.0 17.5" stroke="#969696" fill="none" stroke-width="1px" />
<path d="M 1975.0 17.5 L 10.0 17.5" stroke="#969696" fill="none" stroke-width="1px" />
<path d="M 10.0 17.5 L 0.0 7.5 L 10.0 -2.5" stroke="#969696" fill="none" stroke-width="1px" />
<path d="M 10.0 -2.5 L 1975.0 -2.5" stroke="#969696" fill="none" stroke-width="1px" />
<path d="M 1975.0 -2.5 L 1985.0 -12.5 L 1975.0 -22.5" stroke="#969696" fill="none" stroke-width="1px" />
<path d="M 2462.26666667 257.5 L 2472.26666667 247.5 L 2462.26666667 237.5" stroke="#969696" fill="none" stroke-width="1px" />
<path d="M 2462.26666667 237.5 L 1895.0 237.5" stroke="#969696" fill="none" stroke-width="1px" />
<path d="M 1895.0 237.5 L 1885.0 227.5 L 1895.0 217.5" stroke="#969696" fill="none" stroke-width="1px" />
<path d="M 1895.0 217.5 L 2462.26666667 217.5" stroke="#969696" fill="none" stroke-width="1px" />
<path d="M 2462.26666667 217.5 L 2472.26666667 207.5 L 2462.26666667 197.5" stroke="#969696" fill="none" stroke-width="1px" />
<path d="M 2462.26666667 197.5 L 1895.0 197.5" stroke="#969696" fill="none" stroke-width="1px" />
<path d="M 1895.0 197.5 L 1885.0 187.5 L 1895.0 177.5" stroke="#969696" fill="none" stroke-width="1px" />
<path d="M 1895.0 177.5 L 2462.26666667 177.5" stroke="#969696" fill="none" stroke-width="1px" />
<path d="M 2462.26666667 177.5 L 2472.26666667 167.5 L 2462.26666667 157.5" stroke="#969696" fill="none" stroke-width="1px" />
<path d="M 2462.26666667 157.5 L 1895.0 157.5" stroke="#969696" fill="none" stroke-width="1px" />
<path d="M 1895.0 157.5 L 1885.0 147.5 L 1895.0 137.5" stroke="#969696" fill="none" stroke-width="1px" />
<path d="M 1895.0 137.5 L 2462.26666667 137.5" stroke="#969696" fill="none" stroke-width="1px" />
<path d="M 2462.26666667 137.5 L 2472.26666667 127.5 L 2462.26666667 117.5" stroke="#969696" fill="none" stroke-width="1px" />
<path d="M 2462.26666667 117.5 L 1895.0 117.5" stroke="#969696" fill="none" stroke-width="1px" />
<path d="M 1895.0 117.5 L 1885.0 107.5 L 1895.0 97.5" stroke="#969696" fill="none" stroke-width="1px" />
<path d="M 1895.0 97.5 L 2462.26666667 97.5" stroke="#969696" fill="none" stroke-width="1px" />
<path d="M 2462.26666667 97.5 L 2472.26666667 87.5 L 2462.26666667 77.5" stroke="#969696" fill="none" stroke-width="1px" />
<path d="M 2462.26666667 77.5 L 1895.0 77.5" stroke="#969696" fill="none" stroke-width="1px" />
<path d="M 1895.0 77.5 L 1885.0 67.5 L 1895.0 57.5" stroke="#969696" fill="none" stroke-width="1px" />
<path d="M 1895.0 57.5 L 2462.26666667 57.5" stroke="#969696" fill="none" stroke-width="1px" />
<path d="M 2462.26666667 57.5 L 2472.26666667 47.5 L 2462.26666667 37.5" stroke="#969696" fill="none" stroke-width="1px" />
<path d="M 2462.26666667 37.5 L 1895.0 37.5" stroke="#969696" fill="none" stroke-width="1px" />
<path d="M 1895.0 37.5 L 1885.0 27.5 L 1895.0 17.5" stroke="#969696" fill="none" stroke-width="1px" />
<path d="M 1895.0 17.5 L 2462.26666667 17.5" stroke="#969696" fill="none" stroke-width="1px" />
<path d="M 2462.26666667 17.5 L 2472.26666667 7.5 L 2462.26666667 -2.5" stroke="#969696" fill="none" stroke-width="1px" />
<path d="M 2462.26666667 -2.5 L 1895.0 -2.5" stroke="#969696" fill="none" stroke-width="1px" />
<path d="M 1895.0 -2.5 L 1885.0 -12.5 L 1895.0 -22.5" stroke="#969696" fill="none" stroke-width="1px" />
<path d="M 0.0 235.0 L 20.0 215.0" stroke="#0095FF" fill="none" stroke-width="2px" />
<path d="M 30.0 35.0 L 10.0 25.0" stroke="#0095FF" fill="none" stroke-width="2px" />
<path d="M 10.0 25.0 L 50.0 65.0" stroke="#0095FF" fill="none" stroke-width="2px" />
<path d="M 50.0 65.0 L 30.0 85.0" stroke="#0095FF" fill="none" stroke-width="2px" />
<path d="M 30.0 85.0 L 50.0 165.0" stroke="#0095FF" fill="none" stroke-width="2px" />
<path d="M 50.0 165.0 L 30.0 205.0" stroke="#0095FF" fill="none" stroke-width="2px" />
<path d="M 30.0 205.0 L 230.0 185.0" stroke="#0095FF" fill="none" stroke-width="2px" />
<path d="M 310.0 175.0 L 310.0 155.0" stroke="#0095FF" fill="none" stroke-width="2px" />
<path d="M 250.0 135.0 L 250.0 195.0" stroke="#0095FF" fill="none" stroke-width="2px" />
<path d="M 270.0 195.0 L 680.0 175.0" stroke="#0095FF" fill="none" stroke-width="2px" />
<path d="M 770.0 185.0 L 770.0 145.0" stroke="#0095FF" fill="none" stroke-width="2px" />
<path d="M 690.0 145.0 L 710.0 135.0" stroke="#0095FF" fill="none" stroke-width="2px" />
<path d="M 790.0 145.0 L 770.0 125.0" stroke="#0095FF" fill="none" stroke-width="2px" />
<path d="M 730.0 115.0 L 730.0 75.0" stroke="#0095FF" fill="none" stroke-width="2px" />
<path d="M 760.0 75.0 L 730.0 55.0" stroke="#0095FF" fill="none" stroke-width="2px" />
<path d="M 720.0 45.0 L 710.0 185.0" stroke="#0095FF" fill="none" stroke-width="2px" />
<path d="M 700.0 195.0 L 960.0 195.0" stroke="#0095FF" fill="none" stroke-width="2px" />
<path d="M 1020.0 235.0 L 1020.0 185.0" stroke="#0095FF" fill="none" stroke-width="2px" />
<path d="M 1050.0 185.0 L 1030.0 165.0" stroke="#0095FF" fill="none" stroke-width="2px" />
<path d="M 990.0 165.0 L 1010.0 155.0" stroke="#0095FF" fill="none" stroke-width="2px" />
<path d="M 1010.0 135.0 L 1030.0 145.0" stroke="#0095FF" fill="none" stroke-width="2px" />
<path d="M 1030.0 145.0 L 1030.0 115.0" stroke="#0095FF" fill="none" stroke-width="2px" />
<path d="M 1040.0 115.0 L 1360.0 135.0" stroke="#0095FF" fill="none" stroke-width="2px" />
<path d="M 1390.0 155.0 L 1390.0 125.0" stroke="#0095FF" fill="none" stroke-width="2px" />
<path d="M 1400.0 125.0 L 1810.0 135.0" stroke="#0095FF" fill="none" stroke-width="2px" />
<path d="M 1870.0 185.0 L 1920.0 165.0" stroke="#0095FF" fill="none" stroke-width="2px" />
<path d="M 1930.0 155.0 L 1930.0 125.0" stroke="#0095FF" fill="none" stroke-width="2px" />
<path d="M 1940.0 125.0 L 1920.0 105.0" stroke="#0095FF" fill="none" stroke-width="2px" />
<path d="M 1910.0 105.0 L 1870.0 125.0" stroke="#0095FF" fill="none" stroke-width="2px" />
<path d="M 2450.0 215.0 L 2450.0 235.0" stroke="#0095FF" fill="none" stroke-width="2px" />
<path d="M 2450.0 235.0 L 2450.0 195.0" stroke="#0095FF" fill="none" stroke-width="2px" />
<path d="M 2460.0 195.0 L 2460.0 175.0" stroke="#0095FF" fill="none" stroke-width="2px" />
<path d="M 2470.0 175.0 L 2470.0 155.0" stroke="#0095FF" fill="none" stroke-width="2px" />
<path d="M 20.0 215.0 L 20.0 205.0" stroke="#FF0000" fill="none" stroke-width="4px" />
<path d="M 20.0 205.0 L 10.0 205.0" stroke="#FF0000" fill="none" stroke-width="4px" />
<path d="M 10.0 205.0 L 10.0 195.0" stroke="#FF0000" fill="none" stroke-width="4px" />
<path d="M 10.0 195.0 L 20.0 195.0" stroke="#FF0000" fill="none" stroke-width="4px" />
<path d="M 20.0 195.0 L 30.0 195.0" stroke="#FF0000" fill="none" stroke-width="4px" />
<path d="M 30.0 195.0 L 40.0 195.0" stroke="#FF0000" fill="none" stroke-width="4px" />
<path d="M 40.0 195.0 L 40.0 185.0" stroke="#FF0000" fill="none" stroke-width="4px" />
<path d="M 40.0 185.0 L 30.0 185.0" stroke="#FF0000" fill="none" stroke-width="4px" />
<path d="M 30.0 185.0 L 20.0 185.0" stroke="#FF0000" fill="none" stroke-width="4px" />
<path d="M 20.0 185.0 L 10.0 185.0" stroke="#FF0000" fill="none" stroke-width="4px" />
<path d="M 10.0 185.0 L 10.0 175.0" stroke="#FF0000" fill="none" stroke-width="4px" />
<path d="M 10.0 175.0 L 20.0 175.0" stroke="#FF0000" fill="none" stroke-width="4px" />
<path d="M 20.0 175.0 L 30.0 175.0" stroke="#FF0000" fill="none" stroke-width="4px" />
<path d="M 30.0 175.0 L 40.0 175.0" stroke="#FF0000" fill="none" stroke-width="4px" />
<path d="M 40.0 175.0 L 40.0 165.0" stroke="#FF0000" fill="none" stroke-width="4px" />
<path d="M 40.0 165.0 L 30.0 165.0" stroke="#FF0000" fill="none" stroke-width="4px" />
<path d="M 30.0 165.0 L 20.0 165.0" stroke="#FF0000" fill="none" stroke-width="4px" />
<path d="M 20.0 165.0 L 10.0 165.0" stroke="#FF0000" fill="none" stroke-width="4px" />
<path d="M 10.0 165.0 L 10.0 155.0" stroke="#FF0000" fill="none" stroke-width="4px" />
<path d="M 10.0 155.0 L 20.0 155.0" stroke="#FF0000" fill="none" stroke-width="4px" />
<path d="M 20.0 155.0 L 30.0 155.0" stroke="#FF0000" fill="none" stroke-width="4px" />
<path d="M 30.0 155.0 L 40.0 155.0" stroke="#FF0000" fill="none" stroke-width="4px" />
<path d="M 40.0 155.0 L 50.0 155.0" stroke="#FF0000" fill="none" stroke-width="4px" />
<path d="M 50.0 155.0 L 60.0 155.0" stroke="#FF0000" fill="none" stroke-width="4px" />
<path d="M 60.0 155.0 L 60.0 145.0" stroke="#FF0000" fill="none" stroke-width="4px" />
<path d="M 60.0 145.0 L 50.0 145.0" stroke="#FF0000" fill="none" stroke-width="4px" />
<path d="M 50.0 145.0 L 40.0 145.0" stroke="#FF0000" fill="none" stroke-width="4px" />
<path d="M 40.0 145.0 L 30.0 145.0" stroke="#FF0000" fill="none" stroke-width="4px" />
<path d="M 30.0 145.0 L 20.0 145.0" stroke="#FF0000" fill="none" stroke-width="4px" />
<path d="M 20.0 145.0 L 10.0 145.0" stroke="#FF0000" fill="none" stroke-width="4px" />
<path d="M 10.0 145.0 L 10.0 135.0" stroke="#FF0000" fill="none" stroke-width="4px" />
<path d="M 10.0 135.0 L 20.0 135.0" stroke="#FF0000" fill="none" stroke-width="4px" />
<path d="M 20.0 135.0 L 30.0 135.0" stroke="#FF0000" fill="none" stroke-width="4px" />
<path d="M 30.0 135.0 L 40.0 135.0" stroke="#FF0000" fill="none" stroke-width="4px" />
<path d="M 40.0 135.0 L 50.0 135.0" stroke="#FF0000" fill="none" stroke-width="4px" />
<path d="M 50.0 135.0 L 60.0 135.0" stroke="#FF0000" fill="none" stroke-width="4px" />
<path d="M 60.0 135.0 L 50.0 125.0" stroke="#FF0000" fill="none" stroke-width="4px" />
<path d="M 50.0 125.0 L 40.0 125.0" stroke="#FF0000" fill="none" stroke-width="4px" />
<path d="M 40.0 125.0 L 30.0 125.0" stroke="#FF0000" fill="none" stroke-width="4px" />
<path d="M 30.0 125.0 L 20.0 125.0" stroke="#FF0000" fill="none" stroke-width="4px" />
<path d="M 20.0 125.0 L 10.0 125.0" stroke="#FF0000" fill="none" stroke-width="4px" />
<path d="M 10.0 125.0 L 10.0 115.0" stroke="#FF0000" fill="none" stroke-width="4px" />
<path d="M 10.0 115.0 L 20.0 115.0" stroke="#FF0000" fill="none" stroke-width="4px" />
<path d="M 20.0 115.0 L 30.0 115.0" stroke="#FF0000" fill="none" stroke-width="4px" />
<path d="M 30.0 115.0 L 40.0 115.0" stroke="#FF0000" fill="none" stroke-width="4px" />
<path d="M 40.0 115.0 L 30.0 105.0" stroke="#FF0000" fill="none" stroke-width="4px" />
<path d="M 30.0 105.0 L 20.0 105.0" stroke="#FF0000" fill="none" stroke-width="4px" />
<path d="M 20.0 105.0 L 10.0 105.0" stroke="#FF0000" fill="none" stroke-width="4px" />
<path d="M 10.0 105.0 L 20.0 95.0" stroke="#FF0000" fill="none" stroke-width="4px" />
<path d="M 20.0 95.0 L 20.0 85.0" stroke="#FF0000" fill="none" stroke-width="4px" />
<path d="M 20.0 85.0 L 10.0 85.0" stroke="#FF0000" fill="none" stroke-width="4px" />
<path d="M 10.0 85.0 L 10.0 75.0" stroke="#FF0000" fill="none" stroke-width="4px" />
<path d="M 10.0 75.0 L 20.0 75.0" stroke="#FF0000" fill="none" stroke-width="4px" />
<path d="M 20.0 75.0 L 30.0 75.0" stroke="#FF0000" fill="none" stroke-width="4px" />
<path d="M 30.0 75.0 L 40.0 75.0" stroke="#FF0000" fill="none" stroke-width="4px" />
<path d="M 40.0 75.0 L 40.0 65.0" stroke="#FF0000" fill="none" stroke-width="4px" />
<path d="M 40.0 65.0 L 30.0 65.0" stroke="#FF0000" fill="none" stroke-width="4px" />
<path d="M 30.0 65.0 L 20.0 65.0" stroke="#FF0000" fill="none" stroke-width="4px" />
<path d="M 20.0 65.0 L 10.0 65.0" stroke="#FF0000" fill="none" stroke-width="4px" />
<path d="M 10.0 65.0 L 10.0 55.0" stroke="#FF0000" fill="none" stroke-width="4px" />
<path d="M 10.0 55.0 L 20.0 55.0" stroke="#FF0000" fill="none" stroke-width="4px" />
<path d="M 20.0 55.0 L 30.0 55.0" stroke="#FF0000" fill="none" stroke-width="4px" />
<path d="M 30.0 55.0 L 40.0 55.0" stroke="#FF0000" fill="none" stroke-width="4px" />
<path d="M 40.0 55.0 L 40.0 45.0" stroke="#FF0000" fill="none" stroke-width="4px" />
<path d="M 40.0 45.0 L 30.0 45.0" stroke="#FF0000" fill="none" stroke-width="4px" />
<path d="M 30.0 45.0 L 20.0 45.0" stroke="#FF0000" fill="none" stroke-width="4px" />
<path d="M 20.0 45.0 L 10.0 45.0" stroke="#FF0000" fill="none" stroke-width="4px" />
<path d="M 10.0 45.0 L 10.0 35.0" stroke="#FF0000" fill="none" stroke-width="4px" />
<path d="M 10.0 35.0 L 20.0 35.0" stroke="#FF0000" fill="none" stroke-width="4px" />
<path d="M 20.0 35.0 L 30.0 35.0" stroke="#FF0000" fill="none" stroke-width="4px" />
<path d="M 230.0 185.0 L 240.0 185.0" stroke="#FF0000" fill="none" stroke-width="4px" />
<path d="M 240.0 185.0 L 250.0 185.0" stroke="#FF0000" fill="none" stroke-width="4px" />
<path d="M 250.0 185.0 L 260.0 185.0" stroke="#FF0000" fill="none" stroke-width="4px" />
<path d="M 260.0 185.0 L 270.0 185.0" stroke="#FF0000" fill="none" stroke-width="4px" />
<path d="M 270.0 185.0 L 280.0 185.0" stroke="#FF0000" fill="none" stroke-width="4px" />
<path d="M 280.0 185.0 L 290.0 185.0" stroke="#FF0000" fill="none" stroke-width="4px" />
<path d="M 290.0 185.0 L 300.0 185.0" stroke="#FF0000" fill="none" stroke-width="4px" />
<path d="M 300.0 185.0 L 300.0 175.0" stroke="#FF0000" fill="none" stroke-width="4px" />
<path d="M 300.0 175.0 L 290.0 175.0" stroke="#FF0000" fill="none" stroke-width="4px" />
<path d="M 290.0 175.0 L 280.0 175.0" stroke="#FF0000" fill="none" stroke-width="4px" />
<path d="M 280.0 175.0 L 270.0 175.0" stroke="#FF0000" fill="none" stroke-width="4px" />
<path d="M 270.0 175.0 L 260.0 175.0" stroke="#FF0000" fill="none" stroke-width="4px" />
<path d="M 260.0 175.0 L 250.0 175.0" stroke="#FF0000" fill="none" stroke-width="4px" />
<path d="M 250.0 175.0 L 240.0 175.0" stroke="#FF0000" fill="none" stroke-width="4px" />
<path d="M 240.0 175.0 L 230.0 175.0" stroke="#FF0000" fill="none" stroke-width="4px" />
<path d="M 230.0 175.0 L 230.0 165.0" stroke="#FF0000" fill="none" stroke-width="4px" />
<path d="M 230.0 165.0 L 240.0 165.0" stroke="#FF0000" fill="none" stroke-width="4px" />
<path d="M 240.0 165.0 L 250.0 165.0" stroke="#FF0000" fill="none" stroke-width="4px" />
<path d="M 250.0 165.0 L 260.0 165.0" stroke="#FF0000" fill="none" stroke-width="4px" />
<path d="M 260.0 165.0 L 270.0 165.0" stroke="#FF0000" fill="none" stroke-width="4px" />
<path d="M 270.0 165.0 L 280.0 165.0" stroke="#FF0000" fill="none" stroke-width="4px" />
<path d="M 280.0 165.0 L 290.0 165.0" stroke="#FF0000" fill="none" stroke-width="4px" />
<path d="M 290.0 165.0 L 300.0 165.0" stroke="#FF0000" fill="none" stroke-width="4px" />
<path d="M 300.0 165.0 L 310.0 165.0" stroke="#FF0000" fill="none" stroke-width="4px" />
<path d="M 310.0 165.0 L 310.0 175.0" stroke="#FF0000" fill="none" stroke-width="4px" />
<path d="M 310.0 155.0 L 300.0 155.0" stroke="#FF0000" fill="none" stroke-width="4px" />
<path d="M 300.0 155.0 L 290.0 155.0" stroke="#FF0000" fill="none" stroke-width="4px" />
<path d="M 290.0 155.0 L 280.0 155.0" stroke="#FF0000" fill="none" stroke-width="4px" />
<path d="M 280.0 155.0 L 270.0 155.0" stroke="#FF0000" fill="none" stroke-width="4px" />
<path d="M 270.0 155.0 L 260.0 155.0" stroke="#FF0000" fill="none" stroke-width="4px" />
<path d="M 260.0 155.0 L 250.0 155.0" stroke="#FF0000" fill="none" stroke-width="4px" />
<path d="M 250.0 155.0 L 240.0 155.0" stroke="#FF0000" fill="none" stroke-width="4px" />
<path d="M 240.0 155.0 L 240.0 145.0" stroke="#FF0000" fill="none" stroke-width="4px" />
<path d="M 240.0 145.0 L 250.0 145.0" stroke="#FF0000" fill="none" stroke-width="4px" />
<path d="M 250.0 145.0 L 260.0 145.0" stroke="#FF0000" fill="none" stroke-width="4px" />
<path d="M 260.0 145.0 L 270.0 145.0" stroke="#FF0000" fill="none" stroke-width="4px" />
<path d="M 270.0 145.0 L 280.0 145.0" stroke="#FF0000" fill="none" stroke-width="4px" />
<path d="M 280.0 145.0 L 290.0 145.0" stroke="#FF0000" fill="none" stroke-width="4px" />
<path d="M 290.0 145.0 L 300.0 145.0" stroke="#FF0000" fill="none" stroke-width="4px" />
<path d="M 300.0 145.0 L 310.0 145.0" stroke="#FF0000" fill="none" stroke-width="4px" />
<path d="M 310.0 145.0 L 300.0 135.0" stroke="#FF0000" fill="none" stroke-width="4px" />
<path d="M 300.0 135.0 L 290.0 135.0" stroke="#FF0000" fill="none" stroke-width="4px" />
<path d="M 290.0 135.0 L 280.0 135.0" stroke="#FF0000" fill="none" stroke-width="4px" />
<path d="M 280.0 135.0 L 270.0 135.0" stroke="#FF0000" fill="none" stroke-width="4px" />
<path d="M 270.0 135.0 L 260.0 135.0" stroke="#FF0000" fill="none" stroke-width="4px" />
<path d="M 260.0 135.0 L 250.0 135.0" stroke="#FF0000" fill="none" stroke-width="4px" />
<path d="M 250.0 195.0 L 240.0 195.0" stroke="#FF0000" fill="none" stroke-width="4px" />
<path d="M 240.0 195.0 L 260.0 195.0" stroke="#FF0000" fill="none" stroke-width="4px" />
<path d="M 260.0 195.0 L 270.0 195.0" stroke="#FF0000" fill="none" stroke-width="4px" />
<path d="M 680.0 175.0 L 690.0 175.0" stroke="#FF0000" fill="none" stroke-width="4px" />
<path d="M 690.0 175.0 L 700.0 175.0" stroke="#FF0000" fill="none" stroke-width="4px" />
<path d="M 700.0 175.0 L 710.0 175.0" stroke="#FF0000" fill="none" stroke-width="4px" />
<path d="M 710.0 175.0 L 720.0 175.0" stroke="#FF0000" fill="none" stroke-width="4px" />
<path d="M 720.0 175.0 L 730.0 175.0" stroke="#FF0000" fill="none" stroke-width="4px" />
<path d="M 730.0 175.0 L 730.0 165.0" stroke="#FF0000" fill="none" stroke-width="4px" />
<path d="M 730.0 165.0 L 720.0 165.0" stroke="#FF0000" fill="none" stroke-width="4px" />
<path d="M 720.0 165.0 L 710.0 165.0" stroke="#FF0000" fill="none" stroke-width="4px" />
<path d="M 710.0 165.0 L 700.0 165.0" stroke="#FF0000" fill="none" stroke-width="4px" />
<path d="M 700.0 165.0 L 690.0 165.0" stroke="#FF0000" fill="none" stroke-width="4px" />
<path d="M 690.0 165.0 L 680.0 165.0" stroke="#FF0000" fill="none" stroke-width="4px" />
<path d="M 680.0 165.0 L 680.0 155.0" stroke="#FF0000" fill="none" stroke-width="4px" />
<path d="M 680.0 155.0 L 690.0 155.0" stroke="#FF0000" fill="none" stroke-width="4px" />
<path d="M 690.0 155.0 L 700.0 155.0" stroke="#FF0000" fill="none" stroke-width="4px" />
<path d="M 700.0 155.0 L 710.0 155.0" stroke="#FF0000" fill="none" stroke-width="4px" />
<path d="M 710.0 155.0 L 720.0 155.0" stroke="#FF0000" fill="none" stroke-width="4px" />
<path d="M 720.0 155.0 L 730.0 155.0" stroke="#FF0000" fill="none" stroke-width="4px" />
<path d="M 730.0 155.0 L 740.0 155.0" stroke="#FF0000" fill="none" stroke-width="4px" />
<path d="M 740.0 155.0 L 750.0 155.0" stroke="#FF0000" fill="none" stroke-width="4px" />
<path d="M 750.0 155.0 L 760.0 155.0" stroke="#FF0000" fill="none" stroke-width="4px" />
<path d="M 760.0 155.0 L 770.0 155.0" stroke="#FF0000" fill="none" stroke-width="4px" />
<path d="M 770.0 155.0 L 780.0 155.0" stroke="#FF0000" fill="none" stroke-width="4px" />
<path d="M 780.0 155.0 L 790.0 155.0" stroke="#FF0000" fill="none" stroke-width="4px" />
<path d="M 790.0 155.0 L 790.0 165.0" stroke="#FF0000" fill="none" stroke-width="4px" />
<path d="M 790.0 165.0 L 780.0 165.0" stroke="#FF0000" fill="none" stroke-width="4px" />
<path d="M 780.0 165.0 L 770.0 165.0" stroke="#FF0000" fill="none" stroke-width="4px" />
<path d="M 770.0 165.0 L 760.0 165.0" stroke="#FF0000" fill="none" stroke-width="4px" />
<path d="M 760.0 165.0 L 750.0 165.0" stroke="#FF0000" fill="none" stroke-width="4px" />
<path d="M 750.0 165.0 L 740.0 165.0" stroke="#FF0000" fill="none" stroke-width="4px" />
<path d="M 740.0 165.0 L 750.0 175.0" stroke="#FF0000" fill="none" stroke-width="4px" />
<path d="M 750.0 175.0 L 760.0 175.0" stroke="#FF0000" fill="none" stroke-width="4px" />
<path d="M 760.0 175.0 L 770.0 175.0" stroke="#FF0000" fill="none" stroke-width="4px" />
<path d="M 770.0 175.0 L 780.0 175.0" stroke="#FF0000" fill="none" stroke-width="4px" />
<path d="M 780.0 175.0 L 770.0 185.0" stroke="#FF0000" fill="none" stroke-width="4px" />
<path d="M 770.0 145.0 L 760.0 145.0" stroke="#FF0000" fill="none" stroke-width="4px" />
<path d="M 760.0 145.0 L 750.0 145.0" stroke="#FF0000" fill="none" stroke-width="4px" />
<path d="M 750.0 145.0 L 740.0 145.0" stroke="#FF0000" fill="none" stroke-width="4px" />
<path d="M 740.0 145.0 L 730.0 145.0" stroke="#FF0000" fill="none" stroke-width="4px" />
<path d="M 730.0 145.0 L 720.0 145.0" stroke="#FF0000" fill="none" stroke-width="4px" />
<path d="M 720.0 145.0 L 710.0 145.0" stroke="#FF0000" fill="none" stroke-width="4px" />
<path d="M 710.0 145.0 L 700.0 145.0" stroke="#FF0000" fill="none" stroke-width="4px" />
<path d="M 700.0 145.0 L 690.0 145.0" stroke="#FF0000" fill="none" stroke-width="4px" />
<path d="M 710.0 135.0 L 720.0 135.0" stroke="#FF0000" fill="none" stroke-width="4px" />
<path d="M 720.0 135.0 L 730.0 135.0" stroke="#FF0000" fill="none" stroke-width="4px" />
<path d="M 730.0 135.0 L 740.0 135.0" stroke="#FF0000" fill="none" stroke-width="4px" />
<path d="M 740.0 135.0 L 750.0 135.0" stroke="#FF0000" fill="none" stroke-width="4px" />
<path d="M 750.0 135.0 L 760.0 135.0" stroke="#FF0000" fill="none" stroke-width="4px" />
<path d="M 760.0 135.0 L 770.0 135.0" stroke="#FF0000" fill="none" stroke-width="4px" />
<path d="M 770.0 135.0 L 780.0 135.0" stroke="#FF0000" fill="none" stroke-width="4px" />
<path d="M 780.0 135.0 L 780.0 145.0" stroke="#FF0000" fill="none" stroke-width="4px" />
<path d="M 780.0 145.0 L 790.0 145.0" stroke="#FF0000" fill="none" stroke-width="4px" />
<path d="M 770.0 125.0 L 760.0 125.0" stroke="#FF0000" fill="none" stroke-width="4px" />
<path d="M 760.0 125.0 L 750.0 125.0" stroke="#FF0000" fill="none" stroke-width="4px" />
<path d="M 750.0 125.0 L 740.0 125.0" stroke="#FF0000" fill="none" stroke-width="4px" />
<path d="M 740.0 125.0 L 730.0 125.0" stroke="#FF0000" fill="none" stroke-width="4px" />
<path d="M 730.0 125.0 L 720.0 125.0" stroke="#FF0000" fill="none" stroke-width="4px" />
<path d="M 720.0 125.0 L 720.0 115.0" stroke="#FF0000" fill="none" stroke-width="4px" />
<path d="M 720.0 115.0 L 710.0 115.0" stroke="#FF0000" fill="none" stroke-width="4px" />
<path d="M 710.0 115.0 L 710.0 105.0" stroke="#FF0000" fill="none" stroke-width="4px" />
<path d="M 710.0 105.0 L 700.0 105.0" stroke="#FF0000" fill="none" stroke-width="4px" />
<path d="M 700.0 105.0 L 700.0 95.0" stroke="#FF0000" fill="none" stroke-width="4px" />
<path d="M 700.0 95.0 L 690.0 95.0" stroke="#FF0000" fill="none" stroke-width="4px" />
<path d="M 690.0 95.0 L 690.0 85.0" stroke="#FF0000" fill="none" stroke-width="4px" />
<path d="M 690.0 85.0 L 700.0 85.0" stroke="#FF0000" fill="none" stroke-width="4px" />
<path d="M 700.0 85.0 L 710.0 85.0" stroke="#FF0000" fill="none" stroke-width="4px" />
<path d="M 710.0 85.0 L 720.0 85.0" stroke="#FF0000" fill="none" stroke-width="4px" />
<path d="M 720.0 85.0 L 730.0 85.0" stroke="#FF0000" fill="none" stroke-width="4px" />
<path d="M 730.0 85.0 L 740.0 85.0" stroke="#FF0000" fill="none" stroke-width="4px" />
<path d="M 740.0 85.0 L 750.0 85.0" stroke="#FF0000" fill="none" stroke-width="4px" />
<path d="M 750.0 85.0 L 760.0 85.0" stroke="#FF0000" fill="none" stroke-width="4px" />
<path d="M 760.0 85.0 L 760.0 95.0" stroke="#FF0000" fill="none" stroke-width="4px" />
<path d="M 760.0 95.0 L 750.0 95.0" stroke="#FF0000" fill="none" stroke-width="4px" />
<path d="M 750.0 95.0 L 740.0 95.0" stroke="#FF0000" fill="none" stroke-width="4px" />
<path d="M 740.0 95.0 L 730.0 95.0" stroke="#FF0000" fill="none" stroke-width="4px" />
<path d="M 730.0 95.0 L 720.0 95.0" stroke="#FF0000" fill="none" stroke-width="4px" />
<path d="M 720.0 95.0 L 710.0 95.0" stroke="#FF0000" fill="none" stroke-width="4px" />
<path d="M 710.0 95.0 L 720.0 105.0" stroke="#FF0000" fill="none" stroke-width="4px" />
<path d="M 720.0 105.0 L 730.0 105.0" stroke="#FF0000" fill="none" stroke-width="4px" />
<path d="M 730.0 105.0 L 740.0 105.0" stroke="#FF0000" fill="none" stroke-width="4px" />
<path d="M 740.0 105.0 L 750.0 105.0" stroke="#FF0000" fill="none" stroke-width="4px" />
<path d="M 750.0 105.0 L 760.0 105.0" stroke="#FF0000" fill="none" stroke-width="4px" />
<path d="M 760.0 105.0 L 750.0 115.0" stroke="#FF0000" fill="none" stroke-width="4px" />
<path d="M 750.0 115.0 L 740.0 115.0" stroke="#FF0000" fill="none" stroke-width="4px" />
<path d="M 740.0 115.0 L 730.0 115.0" stroke="#FF0000" fill="none" stroke-width="4px" />
<path d="M 730.0 75.0 L 720.0 75.0" stroke="#FF0000" fill="none" stroke-width="4px" />
<path d="M 720.0 75.0 L 710.0 75.0" stroke="#FF0000" fill="none" stroke-width="4px" />
<path d="M 710.0 75.0 L 700.0 75.0" stroke="#FF0000" fill="none" stroke-width="4px" />
<path d="M 700.0 75.0 L 690.0 75.0" stroke="#FF0000" fill="none" stroke-width="4px" />
<path d="M 690.0 75.0 L 680.0 75.0" stroke="#FF0000" fill="none" stroke-width="4px" />
<path d="M 680.0 75.0 L 680.0 65.0" stroke="#FF0000" fill="none" stroke-width="4px" />
<path d="M 680.0 65.0 L 690.0 65.0" stroke="#FF0000" fill="none" stroke-width="4px" />
<path d="M 690.0 65.0 L 700.0 65.0" stroke="#FF0000" fill="none" stroke-width="4px" />
<path d="M 700.0 65.0 L 710.0 65.0" stroke="#FF0000" fill="none" stroke-width="4px" />
<path d="M 710.0 65.0 L 720.0 65.0" stroke="#FF0000" fill="none" stroke-width="4px" />
<path d="M 720.0 65.0 L 730.0 65.0" stroke="#FF0000" fill="none" stroke-width="4px" />
<path d="M 730.0 65.0 L 740.0 65.0" stroke="#FF0000" fill="none" stroke-width="4px" />
<path d="M 740.0 65.0 L 750.0 65.0" stroke="#FF0000" fill="none" stroke-width="4px" />
<path d="M 750.0 65.0 L 750.0 75.0" stroke="#FF0000" fill="none" stroke-width="4px" />
<path d="M 750.0 75.0 L 740.0 75.0" stroke="#FF0000" fill="none" stroke-width="4px" />
<path d="M 740.0 75.0 L 760.0 75.0" stroke="#FF0000" fill="none" stroke-width="4px" />
<path d="M 730.0 55.0 L 720.0 55.0" stroke="#FF0000" fill="none" stroke-width="4px" />
<path d="M 720.0 55.0 L 710.0 55.0" stroke="#FF0000" fill="none" stroke-width="4px" />
<path d="M 710.0 55.0 L 700.0 55.0" stroke="#FF0000" fill="none" stroke-width="4px" />
<path d="M 700.0 55.0 L 690.0 55.0" stroke="#FF0000" fill="none" stroke-width="4px" />
<path d="M 690.0 55.0 L 700.0 45.0" stroke="#FF0000" fill="none" stroke-width="4px" />
<path d="M 700.0 45.0 L 710.0 45.0" stroke="#FF0000" fill="none" stroke-width="4px" />
<path d="M 710.0 45.0 L 720.0 45.0" stroke="#FF0000" fill="none" stroke-width="4px" />
<path d="M 710.0 185.0 L 700.0 185.0" stroke="#FF0000" fill="none" stroke-width="4px" />
<path d="M 700.0 185.0 L 690.0 185.0" stroke="#FF0000" fill="none" stroke-width="4px" />
<path d="M 690.0 185.0 L 700.0 195.0" stroke="#FF0000" fill="none" stroke-width="4px" />
<path d="M 960.0 195.0 L 970.0 195.0" stroke="#FF0000" fill="none" stroke-width="4px" />
<path d="M 970.0 195.0 L 980.0 195.0" stroke="#FF0000" fill="none" stroke-width="4px" />
<path d="M 980.0 195.0 L 990.0 195.0" stroke="#FF0000" fill="none" stroke-width="4px" />
<path d="M 990.0 195.0 L 1000.0 195.0" stroke="#FF0000" fill="none" stroke-width="4px" />
<path d="M 1000.0 195.0 L 1010.0 195.0" stroke="#FF0000" fill="none" stroke-width="4px" />
<path d="M 1010.0 195.0 L 1020.0 195.0" stroke="#FF0000" fill="none" stroke-width="4px" />
<path d="M 1020.0 195.0 L 1030.0 195.0" stroke="#FF0000" fill="none" stroke-width="4px" />
<path d="M 1030.0 195.0 L 1040.0 195.0" stroke="#FF0000" fill="none" stroke-width="4px" />
<path d="M 1040.0 195.0 L 1050.0 195.0" stroke="#FF0000" fill="none" stroke-width="4px" />
<path d="M 1050.0 195.0 L 1050.0 205.0" stroke="#FF0000" fill="none" stroke-width="4px" />
<path d="M 1050.0 205.0 L 1040.0 205.0" stroke="#FF0000" fill="none" stroke-width="4px" />
<path d="M 1040.0 205.0 L 1030.0 205.0" stroke="#FF0000" fill="none" stroke-width="4px" />
<path d="M 1030.0 205.0 L 1020.0 205.0" stroke="#FF0000" fill="none" stroke-width="4px" />
<path d="M 1020.0 205.0 L 1010.0 205.0" stroke="#FF0000" fill="none" stroke-width="4px" />
<path d="M 1010.0 205.0 L 1000.0 205.0" stroke="#FF0000" fill="none" stroke-width="4px" />
<path d="M 1000.0 205.0 L 990.0 205.0" stroke="#FF0000" fill="none" stroke-width="4px" />
<path d="M 990.0 205.0 L 980.0 205.0" stroke="#FF0000" fill="none" stroke-width="4px" />
<path d="M 980.0 205.0 L 970.0 205.0" stroke="#FF0000" fill="none" stroke-width="4px" />
<path d="M 970.0 205.0 L 960.0 205.0" stroke="#FF0000" fill="none" stroke-width="4px" />
<path d="M 960.0 205.0 L 960.0 215.0" stroke="#FF0000" fill="none" stroke-width="4px" />
<path d="M 960.0 215.0 L 970.0 215.0" stroke="#FF0000" fill="none" stroke-width="4px" />
<path d="M 970.0 215.0 L 980.0 215.0" stroke="#FF0000" fill="none" stroke-width="4px" />
<path d="M 980.0 215.0 L 990.0 215.0" stroke="#FF0000" fill="none" stroke-width="4px" />
<path d="M 990.0 215.0 L 1000.0 215.0" stroke="#FF0000" fill="none" stroke-width="4px" />
<path d="M 1000.0 215.0 L 1010.0 215.0" stroke="#FF0000" fill="none" stroke-width="4px" />
<path d="M 1010.0 215.0 L 1020.0 215.0" stroke="#FF0000" fill="none" stroke-width="4px" />
<path d="M 1020.0 215.0 L 1030.0 215.0" stroke="#FF0000" fill="none" stroke-width="4px" />
<path d="M 1030.0 215.0 L 1040.0 215.0" stroke="#FF0000" fill="none" stroke-width="4px" />
<path d="M 1040.0 215.0 L 1030.0 225.0" stroke="#FF0000" fill="none" stroke-width="4px" />
<path d="M 1030.0 225.0 L 1020.0 225.0" stroke="#FF0000" fill="none" stroke-width="4px" />
<path d="M 1020.0 225.0 L 1010.0 225.0" stroke="#FF0000" fill="none" stroke-width="4px" />
<path d="M 1010.0 225.0 L 1000.0 225.0" stroke="#FF0000" fill="none" stroke-width="4px" />
<path d="M 1000.0 225.0 L 990.0 225.0" stroke="#FF0000" fill="none" stroke-width="4px" />
<path d="M 990.0 225.0 L 980.0 225.0" stroke="#FF0000" fill="none" stroke-width="4px" />
<path d="M 980.0 225.0 L 970.0 225.0" stroke="#FF0000" fill="none" stroke-width="4px" />
<path d="M 970.0 225.0 L 980.0 235.0" stroke="#FF0000" fill="none" stroke-width="4px" />
<path d="M 980.0 235.0 L 990.0 235.0" stroke="#FF0000" fill="none" stroke-width="4px" />
<path d="M 990.0 235.0 L 1000.0 235.0" stroke="#FF0000" fill="none" stroke-width="4px" />
<path d="M 1000.0 235.0 L 1010.0 235.0" stroke="#FF0000" fill="none" stroke-width="4px" />
<path d="M 1010.0 235.0 L 1020.0 235.0" stroke="#FF0000" fill="none" stroke-width="4px" />
<path d="M 1020.0 185.0 L 1010.0 185.0" stroke="#FF0000" fill="none" stroke-width="4px" />
<path d="M 1010.0 185.0 L 1000.0 185.0" stroke="#FF0000" fill="none" stroke-width="4px" />
<path d="M 1000.0 185.0 L 990.0 185.0" stroke="#FF0000" fill="none" stroke-width="4px" />
<path d="M 990.0 185.0 L 980.0 185.0" stroke="#FF0000" fill="none" stroke-width="4px" />
<path d="M 980.0 185.0 L 970.0 185.0" stroke="#FF0000" fill="none" stroke-width="4px" />
<path d="M 970.0 185.0 L 960.0 185.0" stroke="#FF0000" fill="none" stroke-width="4px" />
<path d="M 960.0 185.0 L 970.0 175.0" stroke="#FF0000" fill="none" stroke-width="4px" />
<path d="M 970.0 175.0 L 980.0 175.0" stroke="#FF0000" fill="none" stroke-width="4px" />
<path d="M 980.0 175.0 L 990.0 175.0" stroke="#FF0000" fill="none" stroke-width="4px" />
<path d="M 990.0 175.0 L 1000.0 175.0" stroke="#FF0000" fill="none" stroke-width="4px" />
<path d="M 1000.0 175.0 L 1010.0 175.0" stroke="#FF0000" fill="none" stroke-width="4px" />
<path d="M 1010.0 175.0 L 1020.0 175.0" stroke="#FF0000" fill="none" stroke-width="4px" />
<path d="M 1020.0 175.0 L 1030.0 175.0" stroke="#FF0000" fill="none" stroke-width="4px" />
<path d="M 1030.0 175.0 L 1040.0 175.0" stroke="#FF0000" fill="none" stroke-width="4px" />
<path d="M 1040.0 175.0 L 1040.0 185.0" stroke="#FF0000" fill="none" stroke-width="4px" />
<path d="M 1040.0 185.0 L 1030.0 185.0" stroke="#FF0000" fill="none" stroke-width="4px" />
<path d="M 1030.0 185.0 L 1050.0 185.0" stroke="#FF0000" fill="none" stroke-width="4px" />
<path d="M 1030.0 165.0 L 1020.0 165.0" stroke="#FF0000" fill="none" stroke-width="4px" />
<path d="M 1020.0 165.0 L 1010.0 165.0" stroke="#FF0000" fill="none" stroke-width="4px" />
<path d="M 1010.0 165.0 L 1000.0 165.0" stroke="#FF0000" fill="none" stroke-width="4px" />
<path d="M 1000.0 165.0 L 990.0 165.0" stroke="#FF0000" fill="none" stroke-width="4px" />
<path d="M 1010.0 155.0 L 1020.0 155.0" stroke="#FF0000" fill="none" stroke-width="4px" />
<path d="M 1020.0 155.0 L 1020.0 145.0" stroke="#FF0000" fill="none" stroke-width="4px" />
<path d="M 1020.0 145.0 L 1010.0 145.0" stroke="#FF0000" fill="none" stroke-width="4px" />
<path d="M 1010.0 145.0 L 1000.0 145.0" stroke="#FF0000" fill="none" stroke-width="4px" />
<path d="M 1000.0 145.0 L 1000.0 135.0" stroke="#FF0000" fill="none" stroke-width="4px" />
<path d="M 1000.0 135.0 L 990.0 135.0" stroke="#FF0000" fill="none" stroke-width="4px" />
<path d="M 990.0 135.0 L 990.0 125.0" stroke="#FF0000" fill="none" stroke-width="4px" />
<path d="M 990.0 125.0 L 1000.0 125.0" stroke="#FF0000" fill="none" stroke-width="4px" />
<path d="M 1000.0 125.0 L 1010.0 125.0" stroke="#FF0000" fill="none" stroke-width="4px" />
<path d="M 1010.0 125.0 L 1020.0 125.0" stroke="#FF0000" fill="none" stroke-width="4px" />
<path d="M 1020.0 125.0 L 1030.0 125.0" stroke="#FF0000" fill="none" stroke-width="4px" />
<path d="M 1030.0 125.0 L 1040.0 125.0" stroke="#FF0000" fill="none" stroke-width="4px" />
<path d="M 1040.0 125.0 L 1040.0 135.0" stroke="#FF0000" fill="none" stroke-width="4px" />
<path d="M 1040.0 135.0 L 1030.0 135.0" stroke="#FF0000" fill="none" stroke-width="4px" />
<path d="M 1030.0 135.0 L 1020.0 135.0" stroke="#FF0000" fill="none" stroke-width="4px" />
<path d="M 1020.0 135.0 L 1010.0 135.0" stroke="#FF0000" fill="none" stroke-width="4px" />
<path d="M 1030.0 115.0 L 1020.0 115.0" stroke="#FF0000" fill="none" stroke-width="4px" />
<path d="M 1020.0 115.0 L 1010.0 115.0" stroke="#FF0000" fill="none" stroke-width="4px" />
<path d="M 1010.0 115.0 L 1000.0 115.0" stroke="#FF0000" fill="none" stroke-width="4px" />
<path d="M 1000.0 115.0 L 990.0 115.0" stroke="#FF0000" fill="none" stroke-width="4px" />
<path d="M 990.0 115.0 L 1000.0 105.0" stroke="#FF0000" fill="none" stroke-width="4px" />
<path d="M 1000.0 105.0 L 1010.0 105.0" stroke="#FF0000" fill="none" stroke-width="4px" />
<path d="M 1010.0 105.0 L 1020.0 105.0" stroke="#FF0000" fill="none" stroke-width="4px" />
<path d="M 1020.0 105.0 L 1030.0 105.0" stroke="#FF0000" fill="none" stroke-width="4px" />
<path d="M 1030.0 105.0 L 1040.0 115.0" stroke="#FF0000" fill="none" stroke-width="4px" />
<path d="M 1360.0 135.0 L 1370.0 135.0" stroke="#FF0000" fill="none" stroke-width="4px" />
<path d="M 1370.0 135.0 L 1380.0 135.0" stroke="#FF0000" fill="none" stroke-width="4px" />
<path d="M 1380.0 135.0 L 1390.0 135.0" stroke="#FF0000" fill="none" stroke-width="4px" />
<path d="M 1390.0 135.0 L 1400.0 135.0" stroke="#FF0000" fill="none" stroke-width="4px" />
<path d="M 1400.0 135.0 L 1410.0 135.0" stroke="#FF0000" fill="none" stroke-width="4px" />
<path d="M 1410.0 135.0 L 1400.0 145.0" stroke="#FF0000" fill="none" stroke-width="4px" />
<path d="M 1400.0 145.0 L 1390.0 145.0" stroke="#FF0000" fill="none" stroke-width="4px" />
<path d="M 1390.0 145.0 L 1380.0 145.0" stroke="#FF0000" fill="none" stroke-width="4px" />
<path d="M 1380.0 145.0 L 1370.0 145.0" stroke="#FF0000" fill="none" stroke-width="4px" />
<path d="M 1370.0 145.0 L 1380.0 155.0" stroke="#FF0000" fill="none" stroke-width="4px" />
<path d="M 1380.0 155.0 L 1390.0 155.0" stroke="#FF0000" fill="none" stroke-width="4px" />
<path d="M 1390.0 125.0 L 1380.0 125.0" stroke="#FF0000" fill="none" stroke-width="4px" />
<path d="M 1380.0 125.0 L 1370.0 125.0" stroke="#FF0000" fill="none" stroke-width="4px" />
<path d="M 1370.0 125.0 L 1380.0 115.0" stroke="#FF0000" fill="none" stroke-width="4px" />
<path d="M 1380.0 115.0 L 1390.0 115.0" stroke="#FF0000" fill="none" stroke-width="4px" />
<path d="M 1390.0 115.0 L 1400.0 125.0" stroke="#FF0000" fill="none" stroke-width="4px" />
<path d="M 1810.0 135.0 L 1820.0 135.0" stroke="#FF0000" fill="none" stroke-width="4px" />
<path d="M 1820.0 135.0 L 1830.0 135.0" stroke="#FF0000" fill="none" stroke-width="4px" />
<path d="M 1830.0 135.0 L 1840.0 135.0" stroke="#FF0000" fill="none" stroke-width="4px" />
<path d="M 1840.0 135.0 L 1850.0 135.0" stroke="#FF0000" fill="none" stroke-width="4px" />
<path d="M 1850.0 135.0 L 1860.0 135.0" stroke="#FF0000" fill="none" stroke-width="4px" />
<path d="M 1860.0 135.0 L 1870.0 135.0" stroke="#FF0000" fill="none" stroke-width="4px" />
<path d="M 1870.0 135.0 L 1880.0 135.0" stroke="#FF0000" fill="none" stroke-width="4px" />
<path d="M 1880.0 135.0 L 1880.0 145.0" stroke="#FF0000" fill="none" stroke-width="4px" />
<path d="M 1880.0 145.0 L 1870.0 145.0" stroke="#FF0000" fill="none" stroke-width="4px" />
<path d="M 1870.0 145.0 L 1860.0 145.0" stroke="#FF0000" fill="none" stroke-width="4px" />
<path d="M 1860.0 145.0 L 1850.0 145.0" stroke="#FF0000" fill="none" stroke-width="4px" />
<path d="M 1850.0 145.0 L 1840.0 145.0" stroke="#FF0000" fill="none" stroke-width="4px" />
<path d="M 1840.0 145.0 L 1830.0 145.0" stroke="#FF0000" fill="none" stroke-width="4px" />
<path d="M 1830.0 145.0 L 1820.0 145.0" stroke="#FF0000" fill="none" stroke-width="4px" />
<path d="M 1820.0 145.0 L 1810.0 145.0" stroke="#FF0000" fill="none" stroke-width="4px" />
<path d="M 1810.0 145.0 L 1810.0 155.0" stroke="#FF0000" fill="none" stroke-width="4px" />
<path d="M 1810.0 155.0 L 1820.0 155.0" stroke="#FF0000" fill="none" stroke-width="4px" />
<path d="M 1820.0 155.0 L 1830.0 155.0" stroke="#FF0000" fill="none" stroke-width="4px" />
<path d="M 1830.0 155.0 L 1840.0 155.0" stroke="#FF0000" fill="none" stroke-width="4px" />
<path d="M 1840.0 155.0 L 1850.0 155.0" stroke="#FF0000" fill="none" stroke-width="4px" />
<path d="M 1850.0 155.0 L 1860.0 155.0" stroke="#FF0000" fill="none" stroke-width="4px" />
<path d="M 1860.0 155.0 L 1870.0 155.0" stroke="#FF0000" fill="none" stroke-width="4px" />
<path d="M 1870.0 155.0 L 1880.0 155.0" stroke="#FF0000" fill="none" stroke-width="4px" />
<path d="M 1880.0 155.0 L 1890.0 155.0" stroke="#FF0000" fill="none" stroke-width="4px" />
<path d="M 1890.0 155.0 L 1890.0 165.0" stroke="#FF0000" fill="none" stroke-width="4px" />
<path d="M 1890.0 165.0 L 1880.0 165.0" stroke="#FF0000" fill="none" stroke-width="4px" />
<path d="M 1880.0 165.0 L 1870.0 165.0" stroke="#FF0000" fill="none" stroke-width="4px" />
<path d="M 1870.0 165.0 L 1860.0 165.0" stroke="#FF0000" fill="none" stroke-width="4px" />
<path d="M 1860.0 165.0 L 1850.0 165.0" stroke="#FF0000" fill="none" stroke-width="4px" />
<path d="M 1850.0 165.0 L 1840.0 165.0" stroke="#FF0000" fill="none" stroke-width="4px" />
<path d="M 1840.0 165.0 L 1830.0 165.0" stroke="#FF0000" fill="none" stroke-width="4px" />
<path d="M 1830.0 165.0 L 1820.0 165.0" stroke="#FF0000" fill="none" stroke-width="4px" />
<path d="M 1820.0 165.0 L 1820.0 175.0" stroke="#FF0000" fill="none" stroke-width="4px" />
<path d="M 1820.0 175.0 L 1830.0 175.0" stroke="#FF0000" fill="none" stroke-width="4px" />
<path d="M 1830.0 175.0 L 1840.0 175.0" stroke="#FF0000" fill="none" stroke-width="4px" />
<path d="M 1840.0 175.0 L 1850.0 175.0" stroke="#FF0000" fill="none" stroke-width="4px" />
<path d="M 1850.0 175.0 L 1860.0 175.0" stroke="#FF0000" fill="none" stroke-width="4px" />
<path d="M 1860.0 175.0 L 1870.0 175.0" stroke="#FF0000" fill="none" stroke-width="4px" />
<path d="M 1870.0 175.0 L 1880.0 175.0" stroke="#FF0000" fill="none" stroke-width="4px" />
<path d="M 1880.0 175.0 L 1870.0 185.0" stroke="#FF0000" fill="none" stroke-width="4px" />
<path d="M 1920.0 165.0 L 1920.0 155.0" stroke="#FF0000" fill="none" stroke-width="4px" />
<path d="M 1920.0 155.0 L 1910.0 155.0" stroke="#FF0000" fill="none" stroke-width="4px" />
<path d="M 1910.0 155.0 L 1910.0 145.0" stroke="#FF0000" fill="none" stroke-width="4px" />
<path d="M 1910.0 145.0 L 1900.0 145.0" stroke="#FF0000" fill="none" stroke-width="4px" />
<path d="M 1900.0 145.0 L 1890.0 145.0" stroke="#FF0000" fill="none" stroke-width="4px" />
<path d="M 1890.0 145.0 L 1900.0 135.0" stroke="#FF0000" fill="none" stroke-width="4px" />
<path d="M 1900.0 135.0 L 1910.0 135.0" stroke="#FF0000" fill="none" stroke-width="4px" />
<path d="M 1910.0 135.0 L 1920.0 135.0" stroke="#FF0000" fill="none" stroke-width="4px" />
<path d="M 1920.0 135.0 L 1930.0 135.0" stroke="#FF0000" fill="none" stroke-width="4px" />
<path d="M 1930.0 135.0 L 1940.0 135.0" stroke="#FF0000" fill="none" stroke-width="4px" />
<path d="M 1940.0 135.0 L 1940.0 145.0" stroke="#FF0000" fill="none" stroke-width="4px" />
<path d="M 1940.0 145.0 L 1930.0 145.0" stroke="#FF0000" fill="none" stroke-width="4px" />
<path d="M 1930.0 145.0 L 1920.0 145.0" stroke="#FF0000" fill="none" stroke-width="4px" />
<path d="M 1920.0 145.0 L 1930.0 155.0" stroke="#FF0000" fill="none" stroke-width="4px" />
<path d="M 1930.0 125.0 L 1920.0 125.0" stroke="#FF0000" fill="none" stroke-width="4px" />
<path d="M 1920.0 125.0 L 1910.0 125.0" stroke="#FF0000" fill="none" stroke-width="4px" />
<path d="M 1910.0 125.0 L 1900.0 125.0" stroke="#FF0000" fill="none" stroke-width="4px" />
<path d="M 1900.0 125.0 L 1900.0 115.0" stroke="#FF0000" fill="none" stroke-width="4px" />
<path d="M 1900.0 115.0 L 1910.0 115.0" stroke="#FF0000" fill="none" stroke-width="4px" />
<path d="M 1910.0 115.0 L 1920.0 115.0" stroke="#FF0000" fill="none" stroke-width="4px" />
<path d="M 1920.0 115.0 L 1930.0 115.0" stroke="#FF0000" fill="none" stroke-width="4px" />
<path d="M 1930.0 115.0 L 1940.0 125.0" stroke="#FF0000" fill="none" stroke-width="4px" />
<path d="M 1920.0 105.0 L 1910.0 105.0" stroke="#FF0000" fill="none" stroke-width="4px" />
<path d="M 1870.0 125.0 L 1860.0 125.0" stroke="#FF0000" fill="none" stroke-width="4px" />
<path d="M 1860.0 125.0 L 1850.0 125.0" stroke="#FF0000" fill="none" stroke-width="4px" />
<path d="M 1850.0 125.0 L 1840.0 125.0" stroke="#FF0000" fill="none" stroke-width="4px" />
<path d="M 1840.0 125.0 L 1830.0 125.0" stroke="#FF0000" fill="none" stroke-width="4px" />
<path d="M 1830.0 125.0 L 1820.0 125.0" stroke="#FF0000" fill="none" stroke-width="4px" />
<path d="M 1820.0 125.0 L 1830.0 115.0" stroke="#FF0000" fill="none" stroke-width="4px" />
<path d="M 1830.0 115.0 L 1840.0 115.0" stroke="#FF0000" fill="none" stroke-width="4px" />
<path d="M 2472.26666667 235.0 L 2460.0 225.0" stroke="#FF0000" fill="none" stroke-width="4px" />
<path d="M 2460.0 225.0 L 2450.0 225.0" stroke="#FF0000" fill="none" stroke-width="4px" />
<path d="M 2450.0 225.0 L 2440.0 225.0" stroke="#FF0000" fill="none" stroke-width="4px" />
<path d="M 2440.0 225.0 L 2440.0 215.0" stroke="#FF0000" fill="none" stroke-width="4px" />
<path d="M 2440.0 215.0 L 2430.0 215.0" stroke="#FF0000" fill="none" stroke-width="4px" />
<path d="M 2430.0 215.0 L 2430.0 205.0" stroke="#FF0000" fill="none" stroke-width="4px" />
<path d="M 2430.0 205.0 L 2440.0 205.0" stroke="#FF0000" fill="none" stroke-width="4px" />
<path d="M 2440.0 205.0 L 2450.0 205.0" stroke="#FF0000" fill="none" stroke-width="4px" />
<path d="M 2450.0 205.0 L 2460.0 205.0" stroke="#FF0000" fill="none" stroke-width="4px" />
<path d="M 2460.0 205.0 L 2470.0 205.0" stroke="#FF0000" fill="none" stroke-width="4px" />
<path d="M 2470.0 205.0 L 2470.0 215.0" stroke="#FF0000" fill="none" stroke-width="4px" />
<path d="M 2470.0 215.0 L 2460.0 215.0" stroke="#FF0000" fill="none" stroke-width="4px" />
<path d="M 2460.0 215.0 L 2450.0 215.0" stroke="#FF0000" fill="none" stroke-width="4px" />
<path d="M 2450.0 195.0 L 2440.0 195.0" stroke="#FF0000" fill="none" stroke-width="4px" />
<path d="M 2440.0 195.0 L 2430.0 195.0" stroke="#FF0000" fill="none" stroke-width="4px" />
<path d="M 2430.0 195.0 L 2440.0 185.0" stroke="#FF0000" fill="none" stroke-width="4px" />
<path d="M 2440.0 185.0 L 2450.0 185.0" stroke="#FF0000" fill="none" stroke-width="4px" />
<path d="M 2450.0 185.0 L 2460.0 185.0" stroke="#FF0000" fill="none" stroke-width="4px" />
<path d="M 2460.0 185.0 L 2470.0 185.0" stroke="#FF0000" fill="none" stroke-width="4px" />
<path d="M 2470.0 185.0 L 2470.0 195.0" stroke="#FF0000" fill="none" stroke-width="4px" />
<path d="M 2470.0 195.0 L 2460.0 195.0" stroke="#FF0000" fill="none" stroke-width="4px" />
<path d="M 2460.0 175.0 L 2450.0 175.0" stroke="#FF0000" fill="none" stroke-width="4px" />
<path d="M 2450.0 175.0 L 2440.0 175.0" stroke="#FF0000" fill="none" stroke-width="4px" />
<path d="M 2440.0 175.0 L 2440.0 165.0" stroke="#FF0000" fill="none" stroke-width="4px" />
<path d="M 2440.0 165.0 L 2450.0 165.0" stroke="#FF0000" fill="none" stroke-width="4px" />
<path d="M 2450.0 165.0 L 2460.0 165.0" stroke="#FF0000" fill="none" stroke-width="4px" />
<path d="M 2460.0 165.0 L 2470.0 165.0" stroke="#FF0000" fill="none" stroke-width="4px" />
<path d="M 2470.0 165.0 L 2470.0 175.0" stroke="#FF0000" fill="none" stroke-width="4px" />
<path d="M 2470.0 155.0 L 2460.0 155.0" stroke="#FF0000" fill="none" stroke-width="4px" />
<path d="M 2460.0 155.0 L 2450.0 155.0" stroke="#FF0000" fill="none" stroke-width="4px" />
<path d="M 2450.0 155.0 L 2460.0 145.0" stroke="#FF0000" fill="none" stroke-width="4px" />
<path d="M 2460.0 145.0 L 2470.0 145.0" stroke="#FF0000" fill="none" stroke-width="4px" />
</svg>