<svg width="1383.75833333" height="235.0" xmlns="http://www.w3.org/2000/svg" version="1.1">
<path d="M 0.0 235.0 L 1383.75833333 235.0 L 1383.75833333 0.0 L 0.0 0.0 L 0.0 235.0" stroke="#000000" fill="none" stroke-width="3px" />
<path d="M 10.0 257.5 L 0.0 247.5 L 10.0 237.5" stroke="#969696" fill="none" stroke-width="1px" />
<path d="M 10.0 237.5 L 1373.75833333 237.5" stroke="#969696" fill="none" stroke-width="1px" />
<path d="M 1373.75833333 237.5 L 1383.75833333 227.5 L 1373.75833333 217.5" stroke="#969696" fill="none" stroke-width="1px" />
<path d="M 1373.75833333 217.5 L 10.0 217.5" stroke="#969696" fill="none" stroke-width="1px" />
<path d="M 10.0 217.5 L 0.0 207.5 L 10.0 197.5" stroke="#969696" fill="none" stroke-width="1px" />
<path d="M 10.0 197.5 L 1373.75833333 197.5" stroke="#969696" fill="none" stroke-width="1px" />
<path d="M 1373.75833333 197.5 L 1383.75833333 187.5 L 1373.75833333 177.5" stroke="#969696" fill="none" stroke-width="1px" />
<path d="M 1373.75833333 177.5 L 10.0 177.5" stroke="#969696" fill="none" stroke-width="1px" />
<path d="M 10.0 177.5 L 0.0 167.5 L 10.0 157.5" stroke="#969696" fill="none" stroke-width="1px" />
<path d="M 10.0 157.5 L 1373.75833333 157.5" stroke="#969696" fill="none" stroke-width="1px" />
<path d="M 1373.75833333 157.5 L 1383.75833333 147.5 L 1373.75833333 137.5" stroke="#969696" fill="none" stroke-width="1px" />
<path d="M 1373.75833333 137.5 L 10.0 137.5" stroke="#969696" fill="none" stroke-width="1px" />
<path d="M 10.0 137.5 L 0.0 127.5 L 10.0 117.5" stroke="#969696" fill="none" stroke-width="1px" />
<path d="M 10.0 117.5 L 1373.75833333 117.5" stroke="#969696" fill="none" stroke-width="1px" />
<path d="M 1373.75833333 117.5 L 1383.75833333 107.5 L 1373.75833333 97.5" stroke="#969696" fill="none" stroke-width="1px" />
<path d="M 1373.75833333 97.5 L 10.0 97.5" stroke="#969696" fill="none" stroke-width="1px" />
<path d="M 10.0 97.5 L 0.0 87.5 L 10.0 77.5" stroke="#969696" fill="none" stroke-width="1px" />
<path d="M 10.0 77.5 L 1373.75833333 77.5" stroke="#969696" fill="none" stroke-width="1px" />
<path d="M 1373.75833333 77.5 L 1383.75833333 67.5 L 1373.75833333 57.5" stroke="#969696" fill="none" stroke-width="1px" />
<path d="M 1373.75833333 57.5 L 10.0 57.5" stroke="#969696" fill="none" stroke-width="1px" />
<path d="M 10.0 57.5 L 0.0 47.5 L 10.0 37.5" stroke="#969696" fill="none" stroke-width="1px" />
<path d="M 10.0 37.5 L 1373.75833333 37.5" stroke="#969696" fill="none" stroke-width="1px" />
<path d="M 1373.75833333 37.5 L 1383.75833333 27.5 L 1373.75833333 17.5" stroke="#969696" fill="none" stroke-width="1px" />
<path d="M 1373.75833333 17.5 L 10.0 17.5" stroke="#969696" fill="none" stroke-width="1px" />
<path d="M 10.0 17.5 L 0.0 7.5 L 10.0 -2.5" stroke="#969696" fill="none" stroke-width="1px" />
<path d="M 10.0 -2.5 L 1373.75833333 -2.5" stroke="#969696" fill="none" stroke-width="1px" />
<path d="M 1373.75833333 -2.5 L 1383.75833333 -12.5 L 1373.75833333 -22.5" stroke="#969696" fill="none" stroke-width="1px" />
<path d="M 0.0 235.0 L 20.0 235.0" stroke="#0095FF" fill="none" stroke-width="2px" />
<path d="M 20.0 235.0 L 20.0 215.0" stroke="#0095FF" fill="none" stroke-width="2px" />
<path d="M 10.0 145.0 L 60.0 145.0" stroke="#0095FF" fill="none" stroke-width="2px" />
<path d="M 60.0 145.0 L 60.0 125.0" stroke="#0095FF" fill="none" stroke-width="2px" />
<path d="M 90.0 85.0 L 150.0 85.0" stroke="#0095FF" fill="none" stroke-width="2px" />
<path d="M 150.0 85.0 L 150.0 75.0" stroke="#0095FF" fill="none" stroke-width="2px" />
<path d="M 180.0 105.0 L 180.0 65.0" stroke="#0095FF" fill="none" stroke-width="2px" />
<path d="M 160.0 65.0 L 190.0 65.0" stroke="#0095FF" fill="none" stroke-width="2px" />
<path d="M 200.0 65.0 L 270.0 65.0" stroke="#0095FF" fill="none" stroke-width="2px" />
<path d="M 270.0 65.0 L 270.0 145.0" stroke="#0095FF" fill="none" stroke-width="2px" />
<path d="M 300.0 215.0 L 300.0 165.0" stroke="#0095FF" fill="none" stroke-width="2px" />
<path d="M 270.0 165.0 L 300.0 165.0" stroke="#0095FF" fill="none" stroke-width="2px" />
<path d="M 300.0 165.0 L 300.0 155.0" stroke="#0095FF" fill="none" stroke-width="2px" />
<path d="M 310.0 165.0 L 400.0 165.0" stroke="#0095FF" fill="none" stroke-width="2px" />
<path d="M 430.0 215.0 L 430.0 155.0" stroke="#0095FF" fill="none" stroke-width="2px" />
<path d="M 470.0 155.0 L 460.0 155.0" stroke="#0095FF" fill="none" stroke-width="2px" />
<path d="M 460.0 155.0 L 460.0 115.0" stroke="#0095FF" fill="none" stroke-width="2px" />
<path d="M 480.0 95.0 L 470.0 95.0" stroke="#0095FF" fill="none" stroke-width="2px" />
<path d="M 470.0 95.0 L 470.0 75.0" stroke="#0095FF" fill="none" stroke-width="2px" />
<path d="M 460.0 65.0 L 110.0 65.0" stroke="#0095FF" fill="none" stroke-width="2px" />
<path d="M 110.0 65.0 L 110.0 135.0" stroke="#0095FF" fill="none" stroke-width="2px" />
<path d="M 100.0 145.0 L 50.0 145.0" stroke="#0095FF" fill="none" stroke-width="2px" />
<path d="M 50.0 145.0 L 50.0 205.0" stroke="#0095FF" fill="none" stroke-width="2px" />
<path d="M 50.0 205.0 L 880.0 205.0" stroke="#0095FF" fill="none" stroke-width="2px" />
<path d="M 880.0 205.0 L 880.0 85.0" stroke="#0095FF" fill="none" stroke-width="2px" />
<path d="M 920.0 195.0 L 920.0 135.0" stroke="#0095FF" fill="none" stroke-width="2px" />
<path d="M 940.0 125.0 L 920.0 125.0" stroke="#0095FF" fill="none" stroke-width="2px" />
<path d="M 920.0 125.0 L 920.0 75.0" stroke="#0095FF" fill="none" stroke-width="2px" />
<path d="M 910.0 65.0 L 940.0 65.0" stroke="#0095FF" fill="none" stroke-width="2px" />
<path d="M 940.0 65.0 L 940.0 55.0" stroke="#0095FF" fill="none" stroke-width="2px" />
<path d="M 960.0 -5.0 L 960.0 65.0" stroke="#0095FF" fill="none" stroke-width="2px" />
<path d="M 990.0 65.0 L 1160.0 65.0" stroke="#0095FF" fill="none" stroke-width="2px" />
<path d="M 1160.0 65.0 L 1160.0 125.0" stroke="#0095FF" fill="none" stroke-width="2px" />
<path d="M 1220.0 135.0 L 1210.0 135.0" stroke="#0095FF" fill="none" stroke-width="2px" />
<path d="M 1210.0 135.0 L 1210.0 155.0" stroke="#0095FF" fill="none" stroke-width="2px" />
<path d="M 1200.0 165.0 L 1200.0 115.0" stroke="#0095FF" fill="none" stroke-width="2px" />
<path d="M 20.0 215.0 L 30.0 215.0" stroke="#FF0000" fill="none" stroke-width="4px" />
<path d="M 30.0 215.0 L 40.0 215.0" stroke="#FF0000" fill="none" stroke-width="4px" />
<path d="M 40.0 215.0 L 40.0 205.0" stroke="#FF0000" fill="none" stroke-width="4px" />
<path d="M 40.0 205.0 L 30.0 205.0" stroke="#FF0000" fill="none" stroke-width="4px" />
<path d="M 30.0 205.0 L 20.0 205.0" stroke="#FF0000" fill="none" stroke-width="4px" />
<path d="M 20.0 205.0 L 10.0 205.0" stroke="#FF0000" fill="none" stroke-width="4px" />
<path d="M 10.0 205.0 L 10.0 195.0" stroke="#FF0000" fill="none" stroke-width="4px" />
<path d="M 10.0 195.0 L 20.0 195.0" stroke="#FF0000" fill="none" stroke-width="4px" />
<path d="M 20.0 195.0 L 30.0 195.0" stroke="#FF0000" fill="none" stroke-width="4px" />
<path d="M 30.0 195.0 L 40.0 195.0" stroke="#FF0000" fill="none" stroke-width="4px" />
<path d="M 40.0 195.0 L 50.0 195.0" stroke="#FF0000" fill="none" stroke-width="4px" />
<path d="M 50.0 195.0 L 60.0 195.0" stroke="#FF0000" fill="none" stroke-width="4px" />
<path d="M 60.0 195.0 L 60.0 185.0" stroke="#FF0000" fill="none" stroke-width="4px" />
<path d="M 60.0 185.0 L 50.0 185.0" stroke="#FF0000" fill="none" stroke-width="4px" />
<path d="M 50.0 185.0 L 40.0 185.0" stroke="#FF0000" fill="none" stroke-width="4px" />
<path d="M 40.0 185.0 L 30.0 185.0" stroke="#FF0000" fill="none" stroke-width="4px" />
<path d="M 30.0 185.0 L 20.0 185.0" stroke="#FF0000" fill="none" stroke-width="4px" />
<path d="M 20.0 185.0 L 10.0 185.0" stroke="#FF0000" fill="none" stroke-width="4px" />
<path d="M 10.0 185.0 L 10.0 175.0" stroke="#FF0000" fill="none" stroke-width="4px" />
<path d="M 10.0 175.0 L 20.0 175.0" stroke="#FF0000" fill="none" stroke-width="4px" />
<path d="M 20.0 175.0 L 30.0 175.0" stroke="#FF0000" fill="none" stroke-width="4px" />
<path d="M 30.0 175.0 L 40.0 175.0" stroke="#FF0000" fill="none" stroke-width="4px" />
<path d="M 40.0 175.0 L 50.0 175.0" stroke="#FF0000" fill="none" stroke-width="4px" />
<path d="M 50.0 175.0 L 60.0 175.0" stroke="#FF0000" fill="none" stroke-width="4px" />
<path d="M 60.0 175.0 L 50.0 165.0" stroke="#FF0000" fill="none" stroke-width="4px" />
<path d="M 50.0 165.0 L 40.0 165.0" stroke="#FF0000" fill="none" stroke-width="4px" />
<path d="M 40.0 165.0 L 30.0 165.0" stroke="#FF0000" fill="none" stroke-width="4px" />
<path d="M 30.0 165.0 L 20.0 165.0" stroke="#FF0000" fill="none" stroke-width="4px" />
<path d="M 20.0 165.0 L 10.0 165.0" stroke="#FF0000" fill="none" stroke-width="4px" />
<path d="M 10.0 165.0 L 10.0 155.0" stroke="#FF0000" fill="none" stroke-width="4px" />
<path d="M 10.0 155.0 L 20.0 155.0" stroke="#FF0000" fill="none" stroke-width="4px" />
<path d="M 20.0 155.0 L 30.0 155.0" stroke="#FF0000" fill="none" stroke-width="4px" />
<path d="M 30.0 155.0 L 40.0 155.0" stroke="#FF0000" fill="none" stroke-width="4px" />
<path d="M 40.0 155.0 L 30.0 145.0" stroke="#FF0000" fill="none" stroke-width="4px" />
<path d="M 30.0 145.0 L 20.0 145.0" stroke="#FF0000" fill="none" stroke-width="4px" />
<path d="M 20.0 145.0 L 10.0 145.0" stroke="#FF0000" fill="none" stroke-width="4px" />
<path d="M 60.0 125.0 L 70.0 125.0" stroke="#FF0000" fill="none" stroke-width="4px" />
<path d="M 70.0 125.0 L 80.0 125.0" stroke="#FF0000" fill="none" stroke-width="4px" />
<path d="M 80.0 125.0 L 90.0 125.0" stroke="#FF0000" fill="none" stroke-width="4px" />
<path d="M 90.0 125.0 L 100.0 125.0" stroke="#FF0000" fill="none" stroke-width="4px" />
<path d="M 100.0 125.0 L 110.0 125.0" stroke="#FF0000" fill="none" stroke-width="4px" />
<path d="M 110.0 125.0 L 120.0 125.0" stroke="#FF0000" fill="none" stroke-width="4px" />
<path d="M 120.0 125.0 L 120.0 115.0" stroke="#FF0000" fill="none" stroke-width="4px" />
<path d="M 120.0 115.0 L 110.0 115.0" stroke="#FF0000" fill="none" stroke-width="4px" />
<path d="M 110.0 115.0 L 100.0 115.0" stroke="#FF0000" fill="none" stroke-width="4px" />
<path d="M 100.0 115.0 L 90.0 115.0" stroke="#FF0000" fill="none" stroke-width="4px" />
<path d="M 90.0 115.0 L 80.0 115.0" stroke="#FF0000" fill="none" stroke-width="4px" />
<path d="M 80.0 115.0 L 70.0 115.0" stroke="#FF0000" fill="none" stroke-width="4px" />
<path d="M 70.0 115.0 L 60.0 115.0" stroke="#FF0000" fill="none" stroke-width="4px" />
<path d="M 60.0 115.0 L 60.0 105.0" stroke="#FF0000" fill="none" stroke-width="4px" />
<path d="M 60.0 105.0 L 70.0 105.0" stroke="#FF0000" fill="none" stroke-width="4px" />
<path d="M 70.0 105.0 L 80.0 105.0" stroke="#FF0000" fill="none" stroke-width="4px" />
<path d="M 80.0 105.0 L 90.0 105.0" stroke="#FF0000" fill="none" stroke-width="4px" />
<path d="M 90.0 105.0 L 100.0 105.0" stroke="#FF0000" fill="none" stroke-width="4px" />
<path d="M 100.0 105.0 L 110.0 105.0" stroke="#FF0000" fill="none" stroke-width="4px" />
<path d="M 110.0 105.0 L 100.0 95.0" stroke="#FF0000" fill="none" stroke-width="4px" />
<path d="M 100.0 95.0 L 90.0 95.0" stroke="#FF0000" fill="none" stroke-width="4px" />
<path d="M 90.0 95.0 L 80.0 95.0" stroke="#FF0000" fill="none" stroke-width="4px" />
<path d="M 80.0 95.0 L 70.0 95.0" stroke="#FF0000" fill="none" stroke-width="4px" />
<path d="M 70.0 95.0 L 80.0 85.0" stroke="#FF0000" fill="none" stroke-width="4px" />
<path d="M 80.0 85.0 L 90.0 85.0" stroke="#FF0000" fill="none" stroke-width="4px" />
<path d="M 150.0 75.0 L 160.0 75.0" stroke="#FF0000" fill="none" stroke-width="4px" />
<path d="M 160.0 75.0 L 170.0 75.0" stroke="#FF0000" fill="none" stroke-width="4px" />
<path d="M 170.0 75.0 L 180.0 75.0" stroke="#FF0000" fill="none" stroke-width="4px" />
<path d="M 180.0 75.0 L 190.0 75.0" stroke="#FF0000" fill="none" stroke-width="4px" />
<path d="M 190.0 75.0 L 200.0 75.0" stroke="#FF0000" fill="none" stroke-width="4px" />
<path d="M 200.0 75.0 L 210.0 75.0" stroke="#FF0000" fill="none" stroke-width="4px" />
<path d="M 210.0 75.0 L 200.0 85.0" stroke="#FF0000" fill="none" stroke-width="4px" />
<path d="M 200.0 85.0 L 190.0 85.0" stroke="#FF0000" fill="none" stroke-width="4px" />
<path d="M 190.0 85.0 L 180.0 85.0" stroke="#FF0000" fill="none" stroke-width="4px" />
<path d="M 180.0 85.0 L 170.0 85.0" stroke="#FF0000" fill="none" stroke-width="4px" />
<path d="M 170.0 85.0 L 160.0 85.0" stroke="#FF0000" fill="none" stroke-width="4px" />
<path d="M 160.0 85.0 L 170.0 95.0" stroke="#FF0000" fill="none" stroke-width="4px" />
<path d="M 170.0 95.0 L 180.0 95.0" stroke="#FF0000" fill="none" stroke-width="4px" />
<path d="M 180.0 95.0 L 190.0 95.0" stroke="#FF0000" fill="none" stroke-width="4px" />
<path d="M 190.0 95.0 L 200.0 95.0" stroke="#FF0000" fill="none" stroke-width="4px" />
<path d="M 200.0 95.0 L 190.0 105.0" stroke="#FF0000" fill="none" stroke-width="4px" />
<path d="M 190.0 105.0 L 180.0 105.0" stroke="#FF0000" fill="none" stroke-width="4px" />
<path d="M 180.0 65.0 L 170.0 65.0" stroke="#FF0000" fill="none" stroke-width="4px" />
<path d="M 170.0 65.0 L 160.0 65.0" stroke="#FF0000" fill="none" stroke-width="4px" />
<path d="M 190.0 65.0 L 200.0 65.0" stroke="#FF0000" fill="none" stroke-width="4px" />
<path d="M 270.0 145.0 L 280.0 145.0" stroke="#FF0000" fill="none" stroke-width="4px" />
<path d="M 280.0 145.0 L 290.0 145.0" stroke="#FF0000" fill="none" stroke-width="4px" />
<path d="M 290.0 145.0 L 290.0 155.0" stroke="#FF0000" fill="none" stroke-width="4px" />
<path d="M 290.0 155.0 L 280.0 155.0" stroke="#FF0000" fill="none" stroke-width="4px" />
<path d="M 280.0 155.0 L 270.0 155.0" stroke="#FF0000" fill="none" stroke-width="4px" />
<path d="M 270.0 155.0 L 260.0 155.0" stroke="#FF0000" fill="none" stroke-width="4px" />
<path d="M 260.0 155.0 L 260.0 165.0" stroke="#FF0000" fill="none" stroke-width="4px" />
<path d="M 260.0 165.0 L 250.0 165.0" stroke="#FF0000" fill="none" stroke-width="4px" />
<path d="M 250.0 165.0 L 250.0 175.0" stroke="#FF0000" fill="none" stroke-width="4px" />
<path d="M 250.0 175.0 L 260.0 175.0" stroke="#FF0000" fill="none" stroke-width="4px" />
<path d="M 260.0 175.0 L 270.0 175.0" stroke="#FF0000" fill="none" stroke-width="4px" />
<path d="M 270.0 175.0 L 280.0 175.0" stroke="#FF0000" fill="none" stroke-width="4px" />
<path d="M 280.0 175.0 L 290.0 175.0" stroke="#FF0000" fill="none" stroke-width="4px" />
<path d="M 290.0 175.0 L 300.0 175.0" stroke="#FF0000" fill="none" stroke-width="4px" />
<path d="M 300.0 175.0 L 310.0 175.0" stroke="#FF0000" fill="none" stroke-width="4px" />
<path d="M 310.0 175.0 L 320.0 175.0" stroke="#FF0000" fill="none" stroke-width="4px" />
<path d="M 320.0 175.0 L 320.0 185.0" stroke="#FF0000" fill="none" stroke-width="4px" />
<path d="M 320.0 185.0 L 310.0 185.0" stroke="#FF0000" fill="none" stroke-width="4px" />
<path d="M 310.0 185.0 L 300.0 185.0" stroke="#FF0000" fill="none" stroke-width="4px" />
<path d="M 300.0 185.0 L 290.0 185.0" stroke="#FF0000" fill="none" stroke-width="4px" />
<path d="M 290.0 185.0 L 280.0 185.0" stroke="#FF0000" fill="none" stroke-width="4px" />
<path d="M 280.0 185.0 L 270.0 185.0" stroke="#FF0000" fill="none" stroke-width="4px" />
<path d="M 270.0 185.0 L 260.0 185.0" stroke="#FF0000" fill="none" stroke-width="4px" />
<path d="M 260.0 185.0 L 270.0 195.0" stroke="#FF0000" fill="none" stroke-width="4px" />
<path d="M 270.0 195.0 L 280.0 195.0" stroke="#FF0000" fill="none" stroke-width="4px" />
<path d="M 280.0 195.0 L 290.0 195.0" stroke="#FF0000" fill="none" stroke-width="4px" />
<path d="M 290.0 195.0 L 300.0 195.0" stroke="#FF0000" fill="none" stroke-width="4px" />
<path d="M 300.0 195.0 L 310.0 195.0" stroke="#FF0000" fill="none" stroke-width="4px" />
<path d="M 310.0 195.0 L 320.0 195.0" stroke="#FF0000" fill="none" stroke-width="4px" />
<path d="M 320.0 195.0 L 310.0 205.0" stroke="#FF0000" fill="none" stroke-width="4px" />
<path d="M 310.0 205.0 L 300.0 205.0" stroke="#FF0000" fill="none" stroke-width="4px" />
<path d="M 300.0 205.0 L 290.0 205.0" stroke="#FF0000" fill="none" stroke-width="4px" />
<path d="M 290.0 205.0 L 280.0 205.0" stroke="#FF0000" fill="none" stroke-width="4px" />
<path d="M 280.0 205.0 L 290.0 215.0" stroke="#FF0000" fill="none" stroke-width="4px" />
<path d="M 290.0 215.0 L 300.0 215.0" stroke="#FF0000" fill="none" stroke-width="4px" />
<path d="M 300.0 165.0 L 290.0 165.0" stroke="#FF0000" fill="none" stroke-width="4px" />
<path d="M 290.0 165.0 L 280.0 165.0" stroke="#FF0000" fill="none" stroke-width="4px" />
<path d="M 280.0 165.0 L 270.0 165.0" stroke="#FF0000" fill="none" stroke-width="4px" />
<path d="M 300.0 155.0 L 310.0 165.0" stroke="#FF0000" fill="none" stroke-width="4px" />
<path d="M 400.0 165.0 L 410.0 165.0" stroke="#FF0000" fill="none" stroke-width="4px" />
<path d="M 410.0 165.0 L 420.0 165.0" stroke="#FF0000" fill="none" stroke-width="4px" />
<path d="M 420.0 165.0 L 430.0 165.0" stroke="#FF0000" fill="none" stroke-width="4px" />
<path d="M 430.0 165.0 L 440.0 165.0" stroke="#FF0000" fill="none" stroke-width="4px" />
<path d="M 440.0 165.0 L 450.0 165.0" stroke="#FF0000" fill="none" stroke-width="4px" />
<path d="M 450.0 165.0 L 460.0 165.0" stroke="#FF0000" fill="none" stroke-width="4px" />
<path d="M 460.0 165.0 L 470.0 165.0" stroke="#FF0000" fill="none" stroke-width="4px" />
<path d="M 470.0 165.0 L 480.0 165.0" stroke="#FF0000" fill="none" stroke-width="4px" />
<path d="M 480.0 165.0 L 480.0 175.0" stroke="#FF0000" fill="none" stroke-width="4px" />
<path d="M 480.0 175.0 L 470.0 175.0" stroke="#FF0000" fill="none" stroke-width="4px" />
<path d="M 470.0 175.0 L 460.0 175.0" stroke="#FF0000" fill="none" stroke-width="4px" />
<path d="M 460.0 175.0 L 450.0 175.0" stroke="#FF0000" fill="none" stroke-width="4px" />
<path d="M 450.0 175.0 L 440.0 175.0" stroke="#FF0000" fill="none" stroke-width="4px" />
<path d="M 440.0 175.0 L 430.0 175.0" stroke="#FF0000" fill="none" stroke-width="4px" />
<path d="M 430.0 175.0 L 420.0 175.0" stroke="#FF0000" fill="none" stroke-width="4px" />
<path d="M 420.0 175.0 L 410.0 175.0" stroke="#FF0000" fill="none" stroke-width="4px" />
<path d="M 410.0 175.0 L 400.0 175.0" stroke="#FF0000" fill="none" stroke-width="4px" />
<path d="M 400.0 175.0 L 410.0 185.0" stroke="#FF0000" fill="none" stroke-width="4px" />
<path d="M 410.0 185.0 L 420.0 185.0" stroke="#FF0000" fill="none" stroke-width="4px" />
<path d="M 420.0 185.0 L 430.0 185.0" stroke="#FF0000" fill="none" stroke-width="4px" />
<path d="M 430.0 185.0 L 440.0 185.0" stroke="#FF0000" fill="none" stroke-width="4px" />
<path d="M 440.0 185.0 L 450.0 185.0" stroke="#FF0000" fill="none" stroke-width="4px" />
<path d="M 450.0 185.0 L 460.0 185.0" stroke="#FF0000" fill="none" stroke-width="4px" />
<path d="M 460.0 185.0 L 470.0 185.0" stroke="#FF0000" fill="none" stroke-width="4px" />
<path d="M 470.0 185.0 L 480.0 185.0" stroke="#FF0000" fill="none" stroke-width="4px" />
<path d="M 480.0 185.0 L 480.0 195.0" stroke="#FF0000" fill="none" stroke-width="4px" />
<path d="M 480.0 195.0 L 470.0 195.0" stroke="#FF0000" fill="none" stroke-width="4px" />
<path d="M 470.0 195.0 L 460.0 195.0" stroke="#FF0000" fill="none" stroke-width="4px" />
<path d="M 460.0 195.0 L 450.0 195.0" stroke="#FF0000" fill="none" stroke-width="4px" />
<path d="M 450.0 195.0 L 440.0 195.0" stroke="#FF0000" fill="none" stroke-width="4px" />
<path d="M 440.0 195.0 L 430.0 195.0" stroke="#FF0000" fill="none" stroke-width="4px" />
<path d="M 430.0 195.0 L 420.0 195.0" stroke="#FF0000" fill="none" stroke-width="4px" />
<path d="M 420.0 195.0 L 410.0 195.0" stroke="#FF0000" fill="none" stroke-width="4px" />
<path d="M 410.0 195.0 L 420.0 205.0" stroke="#FF0000" fill="none" stroke-width="4px" />
<path d="M 420.0 205.0 L 430.0 205.0" stroke="#FF0000" fill="none" stroke-width="4px" />
<path d="M 430.0 205.0 L 440.0 205.0" stroke="#FF0000" fill="none" stroke-width="4px" />
<path d="M 440.0 205.0 L 450.0 205.0" stroke="#FF0000" fill="none" stroke-width="4px" />
<path d="M 450.0 205.0 L 460.0 205.0" stroke="#FF0000" fill="none" stroke-width="4px" />
<path d="M 460.0 205.0 L 470.0 205.0" stroke="#FF0000" fill="none" stroke-width="4px" />
<path d="M 470.0 205.0 L 480.0 205.0" stroke="#FF0000" fill="none" stroke-width="4px" />
<path d="M 480.0 205.0 L 470.0 215.0" stroke="#FF0000" fill="none" stroke-width="4px" />
<path d="M 470.0 215.0 L 460.0 215.0" stroke="#FF0000" fill="none" stroke-width="4px" />
<path d="M 460.0 215.0 L 450.0 215.0" stroke="#FF0000" fill="none" stroke-width="4px" />
<path d="M 450.0 215.0 L 440.0 215.0" stroke="#FF0000" fill="none" stroke-width="4px" />
<path d="M 440.0 215.0 L 430.0 215.0" stroke="#FF0000" fill="none" stroke-width="4px" />
<path d="M 430.0 155.0 L 420.0 155.0" stroke="#FF0000" fill="none" stroke-width="4px" />
<path d="M 420.0 155.0 L 410.0 155.0" stroke="#FF0000" fill="none" stroke-width="4px" />
<path d="M 410.0 155.0 L 420.0 145.0" stroke="#FF0000" fill="none" stroke-width="4px" />
<path d="M 420.0 145.0 L 430.0 145.0" stroke="#FF0000" fill="none" stroke-width="4px" />
<path d="M 430.0 145.0 L 440.0 145.0" stroke="#FF0000" fill="none" stroke-width="4px" />
<path d="M 440.0 145.0 L 450.0 145.0" stroke="#FF0000" fill="none" stroke-width="4px" />
<path d="M 450.0 145.0 L 450.0 155.0" stroke="#FF0000" fill="none" stroke-width="4px" />
<path d="M 450.0 155.0 L 440.0 155.0" stroke="#FF0000" fill="none" stroke-width="4px" />
<path d="M 440.0 155.0 L 460.0 155.0" stroke="#FF0000" fill="none" stroke-width="4px" />
<path d="M 460.0 155.0 L 470.0 155.0" stroke="#FF0000" fill="none" stroke-width="4px" />
<path d="M 460.0 115.0 L 450.0 115.0" stroke="#FF0000" fill="none" stroke-width="4px" />
<path d="M 450.0 115.0 L 440.0 115.0" stroke="#FF0000" fill="none" stroke-width="4px" />
<path d="M 440.0 115.0 L 440.0 105.0" stroke="#FF0000" fill="none" stroke-width="4px" />
<path d="M 440.0 105.0 L 430.0 105.0" stroke="#FF0000" fill="none" stroke-width="4px" />
<path d="M 430.0 105.0 L 430.0 95.0" stroke="#FF0000" fill="none" stroke-width="4px" />
<path d="M 430.0 95.0 L 420.0 95.0" stroke="#FF0000" fill="none" stroke-width="4px" />
<path d="M 420.0 95.0 L 420.0 85.0" stroke="#FF0000" fill="none" stroke-width="4px" />
<path d="M 420.0 85.0 L 430.0 85.0" stroke="#FF0000" fill="none" stroke-width="4px" />
<path d="M 430.0 85.0 L 440.0 85.0" stroke="#FF0000" fill="none" stroke-width="4px" />
<path d="M 440.0 85.0 L 450.0 85.0" stroke="#FF0000" fill="none" stroke-width="4px" />
<path d="M 450.0 85.0 L 460.0 85.0" stroke="#FF0000" fill="none" stroke-width="4px" />
<path d="M 460.0 85.0 L 470.0 85.0" stroke="#FF0000" fill="none" stroke-width="4px" />
<path d="M 470.0 85.0 L 470.0 95.0" stroke="#FF0000" fill="none" stroke-width="4px" />
<path d="M 470.0 95.0 L 460.0 95.0" stroke="#FF0000" fill="none" stroke-width="4px" />
<path d="M 460.0 95.0 L 450.0 95.0" stroke="#FF0000" fill="none" stroke-width="4px" />
<path d="M 450.0 95.0 L 440.0 95.0" stroke="#FF0000" fill="none" stroke-width="4px" />
<path d="M 440.0 95.0 L 450.0 105.0" stroke="#FF0000" fill="none" stroke-width="4px" />
<path d="M 450.0 105.0 L 460.0 105.0" stroke="#FF0000" fill="none" stroke-width="4px" />
<path d="M 460.0 105.0 L 470.0 105.0" stroke="#FF0000" fill="none" stroke-width="4px" />
<path d="M 470.0 105.0 L 480.0 95.0" stroke="#FF0000" fill="none" stroke-width="4px" />
<path d="M 470.0 75.0 L 460.0 75.0" stroke="#FF0000" fill="none" stroke-width="4px" />
<path d="M 460.0 75.0 L 450.0 75.0" stroke="#FF0000" fill="none" stroke-width="4px" />
<path d="M 450.0 75.0 L 440.0 75.0" stroke="#FF0000" fill="none" stroke-width="4px" />
<path d="M 440.0 75.0 L 430.0 75.0" stroke="#FF0000" fill="none" stroke-width="4px" />
<path d="M 430.0 75.0 L 420.0 75.0" stroke="#FF0000" fill="none" stroke-width="4px" />
<path d="M 420.0 75.0 L 430.0 65.0" stroke="#FF0000" fill="none" stroke-width="4px" />
<path d="M 430.0 65.0 L 440.0 65.0" stroke="#FF0000" fill="none" stroke-width="4px" />
<path d="M 440.0 65.0 L 450.0 65.0" stroke="#FF0000" fill="none" stroke-width="4px" />
<path d="M 450.0 65.0 L 460.0 65.0" stroke="#FF0000" fill="none" stroke-width="4px" />
<path d="M 110.0 135.0 L 100.0 135.0" stroke="#FF0000" fill="none" stroke-width="4px" />
<path d="M 100.0 135.0 L 90.0 135.0" stroke="#FF0000" fill="none" stroke-width="4px" />
<path d="M 90.0 135.0 L 80.0 135.0" stroke="#FF0000" fill="none" stroke-width="4px" />
<path d="M 80.0 135.0 L 70.0 135.0" stroke="#FF0000" fill="none" stroke-width="4px" />
<path d="M 70.0 135.0 L 80.0 145.0" stroke="#FF0000" fill="none" stroke-width="4px" />
<path d="M 80.0 145.0 L 90.0 145.0" stroke="#FF0000" fill="none" stroke-width="4px" />
<path d="M 90.0 145.0 L 100.0 145.0" stroke="#FF0000" fill="none" stroke-width="4px" />
<path d="M 880.0 85.0 L 890.0 85.0" stroke="#FF0000" fill="none" stroke-width="4px" />
<path d="M 890.0 85.0 L 900.0 85.0" stroke="#FF0000" fill="none" stroke-width="4px" />
<path d="M 900.0 85.0 L 910.0 85.0" stroke="#FF0000" fill="none" stroke-width="4px" />
<path d="M 910.0 85.0 L 920.0 85.0" stroke="#FF0000" fill="none" stroke-width="4px" />
<path d="M 920.0 85.0 L 920.0 95.0" stroke="#FF0000" fill="none" stroke-width="4px" />
<path d="M 920.0 95.0 L 910.0 95.0" stroke="#FF0000" fill="none" stroke-width="4px" />
<path d="M 910.0 95.0 L 900.0 95.0" stroke="#FF0000" fill="none" stroke-width="4px" />
<path d="M 900.0 95.0 L 890.0 95.0" stroke="#FF0000" fill="none" stroke-width="4px" />
<path d="M 890.0 95.0 L 900.0 105.0" stroke="#FF0000" fill="none" stroke-width="4px" />
<path d="M 900.0 105.0 L 910.0 105.0" stroke="#FF0000" fill="none" stroke-width="4px" />
<path d="M 910.0 105.0 L 920.0 105.0" stroke="#FF0000" fill="none" stroke-width="4px" />
<path d="M 920.0 105.0 L 920.0 115.0" stroke="#FF0000" fill="none" stroke-width="4px" />
<path d="M 920.0 115.0 L 930.0 115.0" stroke="#FF0000" fill="none" stroke-width="4px" />
<path d="M 930.0 115.0 L 930.0 125.0" stroke="#FF0000" fill="none" stroke-width="4px" />
<path d="M 930.0 125.0 L 920.0 125.0" stroke="#FF0000" fill="none" stroke-width="4px" />
<path d="M 920.0 125.0 L 910.0 125.0" stroke="#FF0000" fill="none" stroke-width="4px" />
<path d="M 910.0 125.0 L 910.0 135.0" stroke="#FF0000" fill="none" stroke-width="4px" />
<path d="M 910.0 135.0 L 900.0 135.0" stroke="#FF0000" fill="none" stroke-width="4px" />
<path d="M 900.0 135.0 L 900.0 145.0" stroke="#FF0000" fill="none" stroke-width="4px" />
<path d="M 900.0 145.0 L 910.0 145.0" stroke="#FF0000" fill="none" stroke-width="4px" />
<path d="M 910.0 145.0 L 920.0 145.0" stroke="#FF0000" fill="none" stroke-width="4px" />
<path d="M 920.0 145.0 L 930.0 145.0" stroke="#FF0000" fill="none" stroke-width="4px" />
<path d="M 930.0 145.0 L 940.0 145.0" stroke="#FF0000" fill="none" stroke-width="4px" />
<path d="M 940.0 145.0 L 950.0 145.0" stroke="#FF0000" fill="none" stroke-width="4px" />
<path d="M 950.0 145.0 L 950.0 155.0" stroke="#FF0000" fill="none" stroke-width="4px" />
<path d="M 950.0 155.0 L 940.0 155.0" stroke="#FF0000" fill="none" stroke-width="4px" />
<path d="M 940.0 155.0 L 930.0 155.0" stroke="#FF0000" fill="none" stroke-width="4px" />
<path d="M 930.0 155.0 L 920.0 155.0" stroke="#FF0000" fill="none" stroke-width="4px" />
<path d="M 920.0 155.0 L 910.0 155.0" stroke="#FF0000" fill="none" stroke-width="4px" />
<path d="M 910.0 155.0 L 900.0 155.0" stroke="#FF0000" fill="none" stroke-width="4px" />
<path d="M 900.0 155.0 L 900.0 165.0" stroke="#FF0000" fill="none" stroke-width="4px" />
<path d="M 900.0 165.0 L 910.0 165.0" stroke="#FF0000" fill="none" stroke-width="4px" />
<path d="M 910.0 165.0 L 920.0 165.0" stroke="#FF0000" fill="none" stroke-width="4px" />
<path d="M 920.0 165.0 L 930.0 165.0" stroke="#FF0000" fill="none" stroke-width="4px" />
<path d="M 930.0 165.0 L 940.0 165.0" stroke="#FF0000" fill="none" stroke-width="4px" />
<path d="M 940.0 165.0 L 950.0 165.0" stroke="#FF0000" fill="none" stroke-width="4px" />
<path d="M 950.0 165.0 L 950.0 175.0" stroke="#FF0000" fill="none" stroke-width="4px" />
<path d="M 950.0 175.0 L 940.0 175.0" stroke="#FF0000" fill="none" stroke-width="4px" />
<path d="M 940.0 175.0 L 930.0 175.0" stroke="#FF0000" fill="none" stroke-width="4px" />
<path d="M 930.0 175.0 L 920.0 175.0" stroke="#FF0000" fill="none" stroke-width="4px" />
<path d="M 920.0 175.0 L 910.0 175.0" stroke="#FF0000" fill="none" stroke-width="4px" />
<path d="M 910.0 175.0 L 900.0 175.0" stroke="#FF0000" fill="none" stroke-width="4px" />
<path d="M 900.0 175.0 L 910.0 185.0" stroke="#FF0000" fill="none" stroke-width="4px" />
<path d="M 910.0 185.0 L 920.0 185.0" stroke="#FF0000" fill="none" stroke-width="4px" />
<path d="M 920.0 185.0 L 930.0 185.0" stroke="#FF0000" fill="none" stroke-width="4px" />
<path d="M 930.0 185.0 L 940.0 185.0" stroke="#FF0000" fill="none" stroke-width="4px" />
<path d="M 940.0 185.0 L 930.0 195.0" stroke="#FF0000" fill="none" stroke-width="4px" />
<path d="M 930.0 195.0 L 920.0 195.0" stroke="#FF0000" fill="none" stroke-width="4px" />
<path d="M 920.0 135.0 L 930.0 135.0" stroke="#FF0000" fill="none" stroke-width="4px" />
<path d="M 930.0 135.0 L 940.0 135.0" stroke="#FF0000" fill="none" stroke-width="4px" />
<path d="M 940.0 135.0 L 950.0 135.0" stroke="#FF0000" fill="none" stroke-width="4px" />
<path d="M 950.0 135.0 L 940.0 125.0" stroke="#FF0000" fill="none" stroke-width="4px" />
<path d="M 920.0 75.0 L 910.0 75.0" stroke="#FF0000" fill="none" stroke-width="4px" />
<path d="M 910.0 75.0 L 900.0 75.0" stroke="#FF0000" fill="none" stroke-width="4px" />
<path d="M 900.0 75.0 L 890.0 75.0" stroke="#FF0000" fill="none" stroke-width="4px" />
<path d="M 890.0 75.0 L 900.0 65.0" stroke="#FF0000" fill="none" stroke-width="4px" />
<path d="M 900.0 65.0 L 910.0 65.0" stroke="#FF0000" fill="none" stroke-width="4px" />
<path d="M 940.0 55.0 L 950.0 55.0" stroke="#FF0000" fill="none" stroke-width="4px" />
<path d="M 950.0 55.0 L 960.0 55.0" stroke="#FF0000" fill="none" stroke-width="4px" />
<path d="M 960.0 55.0 L 970.0 55.0" stroke="#FF0000" fill="none" stroke-width="4px" />
<path d="M 970.0 55.0 L 980.0 55.0" stroke="#FF0000" fill="none" stroke-width="4px" />
<path d="M 980.0 55.0 L 990.0 55.0" stroke="#FF0000" fill="none" stroke-width="4px" />
<path d="M 990.0 55.0 L 1000.0 55.0" stroke="#FF0000" fill="none" stroke-width="4px" />
<path d="M 1000.0 55.0 L 1000.0 45.0" stroke="#FF0000" fill="none" stroke-width="4px" />
<path d="M 1000.0 45.0 L 990.0 45.0" stroke="#FF0000" fill="none" stroke-width="4px" />
<path d="M 990.0 45.0 L 980.0 45.0" stroke="#FF0000" fill="none" stroke-width="4px" />
<path d="M 980.0 45.0 L 970.0 45.0" stroke="#FF0000" fill="none" stroke-width="4px" />
<path d="M 970.0 45.0 L 960.0 45.0" stroke="#FF0000" fill="none" stroke-width="4px" />
<path d="M 960.0 45.0 L 950.0 45.0" stroke="#FF0000" fill="none" stroke-width="4px" />
<path d="M 950.0 45.0 L 940.0 45.0" stroke="#FF0000" fill="none" stroke-width="4px" />
<path d="M 940.0 45.0 L 940.0 35.0" stroke="#FF0000" fill="none" stroke-width="4px" />
<path d="M 940.0 35.0 L 950.0 35.0" stroke="#FF0000" fill="none" stroke-width="4px" />
<path d="M 950.0 35.0 L 960.0 35.0" stroke="#FF0000" fill="none" stroke-width="4px" />
<path d="M 960.0 35.0 L 970.0 35.0" stroke="#FF0000" fill="none" stroke-width="4px" />
<path d="M 970.0 35.0 L 980.0 35.0" stroke="#FF0000" fill="none" stroke-width="4px" />
<path d="M 980.0 35.0 L 990.0 35.0" stroke="#FF0000" fill="none" stroke-width="4px" />
<path d="M 990.0 35.0 L 1000.0 35.0" stroke="#FF0000" fill="none" stroke-width="4px" />
<path d="M 1000.0 35.0 L 990.0 25.0" stroke="#FF0000" fill="none" stroke-width="4px" />
<path d="M 990.0 25.0 L 980.0 25.0" stroke="#FF0000" fill="none" stroke-width="4px" />
<path d="M 980.0 25.0 L 970.0 25.0" stroke="#FF0000" fill="none" stroke-width="4px" />
<path d="M 970.0 25.0 L 960.0 25.0" stroke="#FF0000" fill="none" stroke-width="4px" />
<path d="M 960.0 25.0 L 950.0 25.0" stroke="#FF0000" fill="none" stroke-width="4px" />
<path d="M 950.0 25.0 L 940.0 25.0" stroke="#FF0000" fill="none" stroke-width="4px" />
<path d="M 940.0 25.0 L 930.0 25.0" stroke="#FF0000" fill="none" stroke-width="4px" />
<path d="M 930.0 25.0 L 930.0 15.0" stroke="#FF0000" fill="none" stroke-width="4px" />
<path d="M 930.0 15.0 L 940.0 15.0" stroke="#FF0000" fill="none" stroke-width="4px" />
<path d="M 940.0 15.0 L 950.0 15.0" stroke="#FF0000" fill="none" stroke-width="4px" />
<path d="M 950.0 15.0 L 960.0 15.0" stroke="#FF0000" fill="none" stroke-width="4px" />
<path d="M 960.0 15.0 L 970.0 15.0" stroke="#FF0000" fill="none" stroke-width="4px" />
<path d="M 970.0 15.0 L 980.0 15.0" stroke="#FF0000" fill="none" stroke-width="4px" />
<path d="M 980.0 15.0 L 970.0 5.0" stroke="#FF0000" fill="none" stroke-width="4px" />
<path d="M 970.0 5.0 L 960.0 5.0" stroke="#FF0000" fill="none" stroke-width="4px" />
<path d="M 960.0 5.0 L 950.0 5.0" stroke="#FF0000" fill="none" stroke-width="4px" />
<path d="M 950.0 5.0 L 940.0 5.0" stroke="#FF0000" fill="none" stroke-width="4px" />
<path d="M 940.0 5.0 L 950.0 -5.0" stroke="#FF0000" fill="none" stroke-width="4px" />
<path d="M 950.0 -5.0 L 960.0 -5.0" stroke="#FF0000" fill="none" stroke-width="4px" />
<path d="M 960.0 65.0 L 950.0 65.0" stroke="#FF0000" fill="none" stroke-width="4px" />
<path d="M 950.0 65.0 L 960.0 75.0" stroke="#FF0000" fill="none" stroke-width="4px" />
<path d="M 960.0 75.0 L 970.0 75.0" stroke="#FF0000" fill="none" stroke-width="4px" />
<path d="M 970.0 75.0 L 980.0 75.0" stroke="#FF0000" fill="none" stroke-width="4px" />
<path d="M 980.0 75.0 L 980.0 65.0" stroke="#FF0000" fill="none" stroke-width="4px" />
<path d="M 980.0 65.0 L 970.0 65.0" stroke="#FF0000" fill="none" stroke-width="4px" />
<path d="M 970.0 65.0 L 990.0 65.0" stroke="#FF0000" fill="none" stroke-width="4px" />
<path d="M 1160.0 125.0 L 1170.0 125.0" stroke="#FF0000" fill="none" stroke-width="4px" />
<path d="M 1170.0 125.0 L 1180.0 125.0" stroke="#FF0000" fill="none" stroke-width="4px" />
<path d="M 1180.0 125.0 L 1190.0 125.0" stroke="#FF0000" fill="none" stroke-width="4px" />
<path d="M 1190.0 125.0 L 1200.0 125.0" stroke="#FF0000" fill="none" stroke-width="4px" />
<path d="M 1200.0 125.0 L 1210.0 125.0" stroke="#FF0000" fill="none" stroke-width="4px" />
<path d="M 1210.0 125.0 L 1210.0 135.0" stroke="#FF0000" fill="none" stroke-width="4px" />
<path d="M 1210.0 135.0 L 1200.0 135.0" stroke="#FF0000" fill="none" stroke-width="4px" />
<path d="M 1200.0 135.0 L 1190.0 135.0" stroke="#FF0000" fill="none" stroke-width="4px" />
<path d="M 1190.0 135.0 L 1180.0 135.0" stroke="#FF0000" fill="none" stroke-width="4px" />
<path d="M 1180.0 135.0 L 1170.0 135.0" stroke="#FF0000" fill="none" stroke-width="4px" />
<path d="M 1170.0 135.0 L 1170.0 145.0" stroke="#FF0000" fill="none" stroke-width="4px" />
<path d="M 1170.0 145.0 L 1180.0 145.0" stroke="#FF0000" fill="none" stroke-width="4px" />
<path d="M 1180.0 145.0 L 1190.0 145.0" stroke="#FF0000" fill="none" stroke-width="4px" />
<path d="M 1190.0 145.0 L 1200.0 145.0" stroke="#FF0000" fill="none" stroke-width="4px" />
<path d="M 1200.0 145.0 L 1210.0 145.0" stroke="#FF0000" fill="none" stroke-width="4px" />
<path d="M 1210.0 145.0 L 1220.0 145.0" stroke="#FF0000" fill="none" stroke-width="4px" />
<path d="M 1220.0 145.0 L 1220.0 135.0" stroke="#FF0000" fill="none" stroke-width="4px" />
<path d="M 1210.0 155.0 L 1200.0 155.0" stroke="#FF0000" fill="none" stroke-width="4px" />
<path d="M 1200.0 155.0 L 1190.0 155.0" stroke="#FF0000" fill="none" stroke-width="4px" />
<path d="M 1190.0 155.0 L 1180.0 155.0" stroke="#FF0000" fill="none" stroke-width="4px" />
<path d="M 1180.0 155.0 L 1190.0 165.0" stroke="#FF0000" fill="none" stroke-width="4px" />
<path d="M 1190.0 165.0 L 1200.0 165.0" stroke="#FF0000" fill="none" stroke-width="4px" />
<path d="M 1200.0 115.0 L 1190.0 115.0" stroke="#FF0000" fill="none" stroke-width="4px" />
<path d="M 1190.0 115.0 L 1180.0 115.0" stroke="#FF0000" fill="none" stroke-width="4px" />
<path d="M 1180.0 115.0 L 1170.0 115.0" stroke="#FF0000" fill="none" stroke-width="4px" />
<path d="M 1170.0 115.0 L 1180.0 105.0" stroke="#FF0000" fill="none" stroke-width="4px" />
<path d="M 1180.0 105.0 L 1190.0 105.0" stroke="#FF0000" fill="none" stroke-width="4px" />
</svg>