<svg width="1332.95833333" height="235.0" xmlns="http://www.w3.org/2000/svg" version="1.1">
<path d="M 0.0 235.0 L 1332.95833333 235.0 L 1332.95833333 0.0 L 0.0 0.0 L 0.0 235.0" stroke="#000000" fill="none" stroke-width="3px" />
<path d="M 10.0 257.5 L 0.0 247.5 L 10.0 237.5" stroke="#969696" fill="none" stroke-width="1px" />
<path d="M 10.0 237.5 L 1322.95833333 237.5" stroke="#969696" fill="none" stroke-width="1px" />
<path d="M 1322.95833333 237.5 L 1332.95833333 227.5 L 1322.95833333 217.5" stroke="#969696" fill="none" stroke-width="1px" />
<path d="M 1322.95833333 217.5 L 10.0 217.5" stroke="#969696" fill="none" stroke-width="1px" />
<path d="M 10.0 217.5 L 0.0 207.5 L 10.0 197.5" stroke="#969696" fill="none" stroke-width="1px" />
<path d="M 10.0 197.5 L 1322.95833333 197.5" stroke="#969696" fill="none" stroke-width="1px" />
<path d="M 1322.95833333 197.5 L 1332.95833333 187.5 L 1322.95833333 177.5" stroke="#969696" fill="none" stroke-width="1px" />
<path d="M 1322.95833333 177.5 L 10.0 177.5" stroke="#969696" fill="none" stroke-width="1px" />
<path d="M 10.0 177.5 L 0.0 167.5 L 10.0 157.5" stroke="#969696" fill="none" stroke-width="1px" />
<path d="M 10.0 157.5 L 1322.95833333 157.5" stroke="#969696" fill="none" stroke-width="1px" />
<path d="M 1322.95833333 157.5 L 1332.95833333 147.5 L 1322.95833333 137.5" stroke="#969696" fill="none" stroke-width="1px" />
<path d="M 1322.95833333 137.5 L 10.0 137.5" stroke="#969696" fill="none" stroke-width="1px" />
<path d="M 10.0 137.5 L 0.0 127.5 L 10.0 117.5" stroke="#969696" fill="none" stroke-width="1px" />
<path d="M 10.0 117.5 L 1322.95833333 117.5" stroke="#969696" fill="none" stroke-width="1px" />
<path d="M 1322.95833333 117.5 L 1332.95833333 107.5 L 1322.95833333 97.5" stroke="#969696" fill="none" stroke-width="1px" />
<path d="M 1322.95833333 97.5 L 10.0 97.5" stroke="#969696" fill="none" stroke-width="1px" />
<path d="M 10.0 97.5 L 0.0 87.5 L 10.0 77.5" stroke="#969696" fill="none" stroke-width="1px" />
<path d="M 10.0 77.5 L 1322.95833333 77.5" stroke="#969696" fill="none" stroke-width="1px" />
<path d="M 1322.95833333 77.5 L 1332.95833333 67.5 L 1322.95833333 57.5" stroke="#969696" fill="none" stroke-width="1px" />
<path d="M 1322.95833333 57.5 L 10.0 57.5" stroke="#969696" fill="none" stroke-width="1px" />
<path d="M 10.0 57.5 L 0.0 47.5 L 10.0 37.5" stroke="#969696" fill="none" stroke-width="1px" />
<path d="M 10.0 37.5 L 1322.95833333 37.5" stroke="#969696" fill="none" stroke-width="1px" />
<path d="M 1322.95833333 37.5 L 1332.95833333 27.5 L 1322.95833333 17.5" stroke="#969696" fill="none" stroke-width="1px" />
<path d="M 1322.95833333 17.5 L 10.0 17.5" stroke="#969696" fill="none" stroke-width="1px" />
<path d="M 10.0 17.5 L 0.0 7.5 L 10.0 -2.5" stroke="#969696" fill="none" stroke-width="1px" />
<path d="M 10.0 -2.5 L 1322.95833333 -2.5" stroke="#969696" fill="none" stroke-width="1px" />
<path d="M 1322.95833333 -2.5 L 1332.95833333 -12.5 L 1322.95833333 -22.5" stroke="#969696" fill="none" stroke-width="1px" />
<path d="M 0.0 235.0 L 117.041666666 115.0" stroke="#0095FF" fill="none" stroke-width="2px" />
<path d="M 137.041666666 105.0 L 137.041666666 85.0" stroke="#0095FF" fill="none" stroke-width="2px" />
<path d="M 147.041666666 85.0 L 147.041666666 65.0" stroke="#0095FF" fill="none" stroke-width="2px" />
<path d="M 127.041666666 45.0 L 387.041666666 115.0" stroke="#0095FF" fill="none" stroke-width="2px" />
<path d="M 407.041666666 165.0 L 457.041666666 165.0" stroke="#0095FF" fill="none" stroke-width="2px" />
<path d="M 487.041666666 195.0 L 487.041666666 155.0" stroke="#0095FF" fill="none" stroke-width="2px" />
<path d="M 497.041666666 155.0 L 497.041666666 135.0" stroke="#0095FF" fill="none" stroke-width="2px" />
<path d="M 507.041666666 135.0 L 437.041666666 105.0" stroke="#0095FF" fill="none" stroke-width="2px" />
<path d="M 427.041666666 95.0 L 1147.04166667 115.0" stroke="#0095FF" fill="none" stroke-width="2px" />
<path d="M 1187.04166667 155.0 L 1187.04166667 105.0" stroke="#0095FF" fill="none" stroke-width="2px" />
<path d="M 117.041666666 115.0 L 127.041666666 115.0" stroke="#FF0000" fill="none" stroke-width="4px" />
<path d="M 127.041666666 115.0 L 127.041666666 105.0" stroke="#FF0000" fill="none" stroke-width="4px" />
<path d="M 127.041666666 105.0 L 117.041666666 105.0" stroke="#FF0000" fill="none" stroke-width="4px" />
<path d="M 117.041666666 105.0 L 107.041666666 105.0" stroke="#FF0000" fill="none" stroke-width="4px" />
<path d="M 107.041666666 105.0 L 107.041666666 95.0" stroke="#FF0000" fill="none" stroke-width="4px" />
<path d="M 107.041666666 95.0 L 117.041666666 95.0" stroke="#FF0000" fill="none" stroke-width="4px" />
<path d="M 117.041666666 95.0 L 127.041666666 95.0" stroke="#FF0000" fill="none" stroke-width="4px" />
<path d="M 127.041666666 95.0 L 137.041666666 95.0" stroke="#FF0000" fill="none" stroke-width="4px" />
<path d="M 137.041666666 95.0 L 137.041666666 105.0" stroke="#FF0000" fill="none" stroke-width="4px" />
<path d="M 137.041666666 85.0 L 127.041666666 85.0" stroke="#FF0000" fill="none" stroke-width="4px" />
<path d="M 127.041666666 85.0 L 117.041666666 85.0" stroke="#FF0000" fill="none" stroke-width="4px" />
<path d="M 117.041666666 85.0 L 107.041666666 85.0" stroke="#FF0000" fill="none" stroke-width="4px" />
<path d="M 107.041666666 85.0 L 97.0416666663 85.0" stroke="#FF0000" fill="none" stroke-width="4px" />
<path d="M 97.0416666663 85.0 L 97.0416666663 75.0" stroke="#FF0000" fill="none" stroke-width="4px" />
<path d="M 97.0416666663 75.0 L 107.041666666 75.0" stroke="#FF0000" fill="none" stroke-width="4px" />
<path d="M 107.041666666 75.0 L 117.041666666 75.0" stroke="#FF0000" fill="none" stroke-width="4px" />
<path d="M 117.041666666 75.0 L 127.041666666 75.0" stroke="#FF0000" fill="none" stroke-width="4px" />
<path d="M 127.041666666 75.0 L 137.041666666 75.0" stroke="#FF0000" fill="none" stroke-width="4px" />
<path d="M 137.041666666 75.0 L 147.041666666 75.0" stroke="#FF0000" fill="none" stroke-width="4px" />
<path d="M 147.041666666 75.0 L 147.041666666 85.0" stroke="#FF0000" fill="none" stroke-width="4px" />
<path d="M 147.041666666 65.0 L 137.041666666 65.0" stroke="#FF0000" fill="none" stroke-width="4px" />
<path d="M 137.041666666 65.0 L 127.041666666 65.0" stroke="#FF0000" fill="none" stroke-width="4px" />
<path d="M 127.041666666 65.0 L 117.041666666 65.0" stroke="#FF0000" fill="none" stroke-width="4px" />
<path d="M 117.041666666 65.0 L 107.041666666 65.0" stroke="#FF0000" fill="none" stroke-width="4px" />
<path d="M 107.041666666 65.0 L 117.041666666 55.0" stroke="#FF0000" fill="none" stroke-width="4px" />
<path d="M 117.041666666 55.0 L 127.041666666 55.0" stroke="#FF0000" fill="none" stroke-width="4px" />
<path d="M 127.041666666 55.0 L 137.041666666 55.0" stroke="#FF0000" fill="none" stroke-width="4px" />
<path d="M 137.041666666 55.0 L 127.041666666 45.0" stroke="#FF0000" fill="none" stroke-width="4px" />
<path d="M 387.041666666 115.0 L 397.041666666 115.0" stroke="#FF0000" fill="none" stroke-width="4px" />
<path d="M 397.041666666 115.0 L 407.041666666 115.0" stroke="#FF0000" fill="none" stroke-width="4px" />
<path d="M 407.041666666 115.0 L 417.041666666 115.0" stroke="#FF0000" fill="none" stroke-width="4px" />
<path d="M 417.041666666 115.0 L 427.041666666 115.0" stroke="#FF0000" fill="none" stroke-width="4px" />
<path d="M 427.041666666 115.0 L 437.041666666 115.0" stroke="#FF0000" fill="none" stroke-width="4px" />
<path d="M 437.041666666 115.0 L 447.041666666 115.0" stroke="#FF0000" fill="none" stroke-width="4px" />
<path d="M 447.041666666 115.0 L 447.041666666 125.0" stroke="#FF0000" fill="none" stroke-width="4px" />
<path d="M 447.041666666 125.0 L 437.041666666 125.0" stroke="#FF0000" fill="none" stroke-width="4px" />
<path d="M 437.041666666 125.0 L 427.041666666 125.0" stroke="#FF0000" fill="none" stroke-width="4px" />
<path d="M 427.041666666 125.0 L 417.041666666 125.0" stroke="#FF0000" fill="none" stroke-width="4px" />
<path d="M 417.041666666 125.0 L 407.041666666 125.0" stroke="#FF0000" fill="none" stroke-width="4px" />
<path d="M 407.041666666 125.0 L 397.041666666 125.0" stroke="#FF0000" fill="none" stroke-width="4px" />
<path d="M 397.041666666 125.0 L 387.041666666 125.0" stroke="#FF0000" fill="none" stroke-width="4px" />
<path d="M 387.041666666 125.0 L 387.041666666 135.0" stroke="#FF0000" fill="none" stroke-width="4px" />
<path d="M 387.041666666 135.0 L 397.041666666 135.0" stroke="#FF0000" fill="none" stroke-width="4px" />
<path d="M 397.041666666 135.0 L 407.041666666 135.0" stroke="#FF0000" fill="none" stroke-width="4px" />
<path d="M 407.041666666 135.0 L 417.041666666 135.0" stroke="#FF0000" fill="none" stroke-width="4px" />
<path d="M 417.041666666 135.0 L 427.041666666 135.0" stroke="#FF0000" fill="none" stroke-width="4px" />
<path d="M 427.041666666 135.0 L 437.041666666 135.0" stroke="#FF0000" fill="none" stroke-width="4px" />
<path d="M 437.041666666 135.0 L 447.041666666 135.0" stroke="#FF0000" fill="none" stroke-width="4px" />
<path d="M 447.041666666 135.0 L 437.041666666 145.0" stroke="#FF0000" fill="none" stroke-width="4px" />
<path d="M 437.041666666 145.0 L 427.041666666 145.0" stroke="#FF0000" fill="none" stroke-width="4px" />
<path d="M 427.041666666 145.0 L 417.041666666 145.0" stroke="#FF0000" fill="none" stroke-width="4px" />
<path d="M 417.041666666 145.0 L 407.041666666 145.0" stroke="#FF0000" fill="none" stroke-width="4px" />
<path d="M 407.041666666 145.0 L 397.041666666 145.0" stroke="#FF0000" fill="none" stroke-width="4px" />
<path d="M 397.041666666 145.0 L 387.041666666 145.0" stroke="#FF0000" fill="none" stroke-width="4px" />
<path d="M 387.041666666 145.0 L 397.041666666 155.0" stroke="#FF0000" fill="none" stroke-width="4px" />
<path d="M 397.041666666 155.0 L 407.041666666 155.0" stroke="#FF0000" fill="none" stroke-width="4px" />
<path d="M 407.041666666 155.0 L 417.041666666 155.0" stroke="#FF0000" fill="none" stroke-width="4px" />
<path d="M 417.041666666 155.0 L 427.041666666 155.0" stroke="#FF0000" fill="none" stroke-width="4px" />
<path d="M 427.041666666 155.0 L 417.041666666 165.0" stroke="#FF0000" fill="none" stroke-width="4px" />
<path d="M 417.041666666 165.0 L 407.041666666 165.0" stroke="#FF0000" fill="none" stroke-width="4px" />
<path d="M 457.041666666 165.0 L 467.041666666 165.0" stroke="#FF0000" fill="none" stroke-width="4px" />
<path d="M 467.041666666 165.0 L 477.041666666 165.0" stroke="#FF0000" fill="none" stroke-width="4px" />
<path d="M 477.041666666 165.0 L 487.041666666 165.0" stroke="#FF0000" fill="none" stroke-width="4px" />
<path d="M 487.041666666 165.0 L 497.041666666 165.0" stroke="#FF0000" fill="none" stroke-width="4px" />
<path d="M 497.041666666 165.0 L 507.041666666 165.0" stroke="#FF0000" fill="none" stroke-width="4px" />
<path d="M 507.041666666 165.0 L 517.041666666 165.0" stroke="#FF0000" fill="none" stroke-width="4px" />
<path d="M 517.041666666 165.0 L 517.041666666 175.0" stroke="#FF0000" fill="none" stroke-width="4px" />
<path d="M 517.041666666 175.0 L 507.041666666 175.0" stroke="#FF0000" fill="none" stroke-width="4px" />
<path d="M 507.041666666 175.0 L 497.041666666 175.0" stroke="#FF0000" fill="none" stroke-width="4px" />
<path d="M 497.041666666 175.0 L 487.041666666 175.0" stroke="#FF0000" fill="none" stroke-width="4px" />
<path d="M 487.041666666 175.0 L 477.041666666 175.0" stroke="#FF0000" fill="none" stroke-width="4px" />
<path d="M 477.041666666 175.0 L 467.041666666 175.0" stroke="#FF0000" fill="none" stroke-width="4px" />
<path d="M 467.041666666 175.0 L 477.041666666 185.0" stroke="#FF0000" fill="none" stroke-width="4px" />
<path d="M 477.041666666 185.0 L 487.041666666 185.0" stroke="#FF0000" fill="none" stroke-width="4px" />
<path d="M 487.041666666 185.0 L 497.041666666 185.0" stroke="#FF0000" fill="none" stroke-width="4px" />
<path d="M 497.041666666 185.0 L 507.041666666 185.0" stroke="#FF0000" fill="none" stroke-width="4px" />
<path d="M 507.041666666 185.0 L 517.041666666 185.0" stroke="#FF0000" fill="none" stroke-width="4px" />
<path d="M 517.041666666 185.0 L 507.041666666 195.0" stroke="#FF0000" fill="none" stroke-width="4px" />
<path d="M 507.041666666 195.0 L 497.041666666 195.0" stroke="#FF0000" fill="none" stroke-width="4px" />
<path d="M 497.041666666 195.0 L 487.041666666 195.0" stroke="#FF0000" fill="none" stroke-width="4px" />
<path d="M 487.041666666 155.0 L 477.041666666 155.0" stroke="#FF0000" fill="none" stroke-width="4px" />
<path d="M 477.041666666 155.0 L 467.041666666 155.0" stroke="#FF0000" fill="none" stroke-width="4px" />
<path d="M 467.041666666 155.0 L 457.041666666 155.0" stroke="#FF0000" fill="none" stroke-width="4px" />
<path d="M 457.041666666 155.0 L 467.041666666 145.0" stroke="#FF0000" fill="none" stroke-width="4px" />
<path d="M 467.041666666 145.0 L 477.041666666 145.0" stroke="#FF0000" fill="none" stroke-width="4px" />
<path d="M 477.041666666 145.0 L 487.041666666 145.0" stroke="#FF0000" fill="none" stroke-width="4px" />
<path d="M 487.041666666 145.0 L 497.041666666 145.0" stroke="#FF0000" fill="none" stroke-width="4px" />
<path d="M 497.041666666 145.0 L 507.041666666 145.0" stroke="#FF0000" fill="none" stroke-width="4px" />
<path d="M 507.041666666 145.0 L 517.041666666 145.0" stroke="#FF0000" fill="none" stroke-width="4px" />
<path d="M 517.041666666 145.0 L 517.041666666 155.0" stroke="#FF0000" fill="none" stroke-width="4px" />
<path d="M 517.041666666 155.0 L 507.041666666 155.0" stroke="#FF0000" fill="none" stroke-width="4px" />
<path d="M 507.041666666 155.0 L 497.041666666 155.0" stroke="#FF0000" fill="none" stroke-width="4px" />
<path d="M 497.041666666 135.0 L 487.041666666 135.0" stroke="#FF0000" fill="none" stroke-width="4px" />
<path d="M 487.041666666 135.0 L 477.041666666 135.0" stroke="#FF0000" fill="none" stroke-width="4px" />
<path d="M 477.041666666 135.0 L 467.041666666 135.0" stroke="#FF0000" fill="none" stroke-width="4px" />
<path d="M 467.041666666 135.0 L 477.041666666 125.0" stroke="#FF0000" fill="none" stroke-width="4px" />
<path d="M 477.041666666 125.0 L 487.041666666 125.0" stroke="#FF0000" fill="none" stroke-width="4px" />
<path d="M 487.041666666 125.0 L 497.041666666 125.0" stroke="#FF0000" fill="none" stroke-width="4px" />
<path d="M 497.041666666 125.0 L 507.041666666 135.0" stroke="#FF0000" fill="none" stroke-width="4px" />
<path d="M 437.041666666 105.0 L 427.041666666 105.0" stroke="#FF0000" fill="none" stroke-width="4px" />
<path d="M 427.041666666 105.0 L 417.041666666 105.0" stroke="#FF0000" fill="none" stroke-width="4px" />
<path d="M 417.041666666 105.0 L 407.041666666 105.0" stroke="#FF0000" fill="none" stroke-width="4px" />
<path d="M 407.041666666 105.0 L 397.041666666 105.0" stroke="#FF0000" fill="none" stroke-width="4px" />
<path d="M 397.041666666 105.0 L 407.041666666 95.0" stroke="#FF0000" fill="none" stroke-width="4px" />
<path d="M 407.041666666 95.0 L 417.041666666 95.0" stroke="#FF0000" fill="none" stroke-width="4px" />
<path d="M 417.041666666 95.0 L 427.041666666 95.0" stroke="#FF0000" fill="none" stroke-width="4px" />
<path d="M 1147.04166667 115.0 L 1157.04166667 115.0" stroke="#FF0000" fill="none" stroke-width="4px" />
<path d="M 1157.04166667 115.0 L 1167.04166667 115.0" stroke="#FF0000" fill="none" stroke-width="4px" />
<path d="M 1167.04166667 115.0 L 1177.04166667 115.0" stroke="#FF0000" fill="none" stroke-width="4px" />
<path d="M 1177.04166667 115.0 L 1187.04166667 115.0" stroke="#FF0000" fill="none" stroke-width="4px" />
<path d="M 1187.04166667 115.0 L 1197.04166667 115.0" stroke="#FF0000" fill="none" stroke-width="4px" />
<path d="M 1197.04166667 115.0 L 1207.04166667 115.0" stroke="#FF0000" fill="none" stroke-width="4px" />
<path d="M 1207.04166667 115.0 L 1207.04166667 125.0" stroke="#FF0000" fill="none" stroke-width="4px" />
<path d="M 1207.04166667 125.0 L 1197.04166667 125.0" stroke="#FF0000" fill="none" stroke-width="4px" />
<path d="M 1197.04166667 125.0 L 1187.04166667 125.0" stroke="#FF0000" fill="none" stroke-width="4px" />
<path d="M 1187.04166667 125.0 L 1177.04166667 125.0" stroke="#FF0000" fill="none" stroke-width="4px" />
<path d="M 1177.04166667 125.0 L 1167.04166667 125.0" stroke="#FF0000" fill="none" stroke-width="4px" />
<path d="M 1167.04166667 125.0 L 1157.04166667 125.0" stroke="#FF0000" fill="none" stroke-width="4px" />
<path d="M 1157.04166667 125.0 L 1167.04166667 135.0" stroke="#FF0000" fill="none" stroke-width="4px" />
<path d="M 1167.04166667 135.0 L 1177.04166667 135.0" stroke="#FF0000" fill="none" stroke-width="4px" />
<path d="M 1177.04166667 135.0 L 1187.04166667 135.0" stroke="#FF0000" fill="none" stroke-width="4px" />
<path d="M 1187.04166667 135.0 L 1197.04166667 135.0" stroke="#FF0000" fill="none" stroke-width="4px" />
<path d="M 1197.04166667 135.0 L 1207.04166667 135.0" stroke="#FF0000" fill="none" stroke-width="4px" />
<path d="M 1207.04166667 135.0 L 1197.04166667 145.0" stroke="#FF0000" fill="none" stroke-width="4px" />
<path d="M 1197.04166667 145.0 L 1187.04166667 145.0" stroke="#FF0000" fill="none" stroke-width="4px" />
<path d="M 1187.04166667 145.0 L 1177.04166667 145.0" stroke="#FF0000" fill="none" stroke-width="4px" />
<path d="M 1177.04166667 145.0 L 1187.04166667 155.0" stroke="#FF0000" fill="none" stroke-width="4px" />
<path d="M 1187.04166667 105.0 L 1177.04166667 105.0" stroke="#FF0000" fill="none" stroke-width="4px" />
<path d="M 1177.04166667 105.0 L 1167.04166667 105.0" stroke="#FF0000" fill="none" stroke-width="4px" />
<path d="M 1167.04166667 105.0 L 1157.04166667 105.0" stroke="#FF0000" fill="none" stroke-width="4px" />
<path d="M 1157.04166667 105.0 L 1167.04166667 95.0" stroke="#FF0000" fill="none" stroke-width="4px" />
<path d="M 1167.04166667 95.0 L 1177.04166667 95.0" stroke="#FF0000" fill="none" stroke-width="4px" />
<path d="M 1177.04166667 95.0 L 1187.04166667 95.0" stroke="#FF0000" fill="none" stroke-width="4px" />
<path d="M 1187.04166667 95.0 L 1197.04166667 105.0" stroke="#FF0000" fill="none" stroke-width="4px" />
</svg>