<svg width="1755.23333333" height="235.0" xmlns="http://www.w3.org/2000/svg" version="1.1">
<path d="M 0.0 235.0 L 1755.23333333 235.0 L 1755.23333333 0.0 L 0.0 0.0 L 0.0 235.0" stroke="#000000" fill="none" stroke-width="3px" />
<path d="M 10.0 257.5 L 0.0 247.5 L 10.0 237.5" stroke="#969696" fill="none" stroke-width="1px" />
<path d="M 10.0 237.5 L 1745.23333333 237.5" stroke="#969696" fill="none" stroke-width="1px" />
<path d="M 1745.23333333 237.5 L 1755.23333333 227.5 L 1745.23333333 217.5" stroke="#969696" fill="none" stroke-width="1px" />
<path d="M 1745.23333333 217.5 L 10.0 217.5" stroke="#969696" fill="none" stroke-width="1px" />
<path d="M 10.0 217.5 L 0.0 207.5 L 10.0 197.5" stroke="#969696" fill="none" stroke-width="1px" />
<path d="M 10.0 197.5 L 1745.23333333 197.5" stroke="#969696" fill="none" stroke-width="1px" />
<path d="M 1745.23333333 197.5 L 1755.23333333 187.5 L 1745.23333333 177.5" stroke="#969696" fill="none" stroke-width="1px" />
<path d="M 1745.23333333 177.5 L 10.0 177.5" stroke="#969696" fill="none" stroke-width="1px" />
<path d="M 10.0 177.5 L 0.0 167.5 L 10.0 157.5" stroke="#969696" fill="none" stroke-width="1px" />
<path d="M 10.0 157.5 L 1745.23333333 157.5" stroke="#969696" fill="none" stroke-width="1px" />
<path d="M 1745.23333333 157.5 L 1755.23333333 147.5 L 1745.23333333 137.5" stroke="#969696" fill="none" stroke-width="1px" />
<path d="M 1745.23333333 137.5 L 10.0 137.5" stroke="#969696" fill="none" stroke-width="1px" />
<path d="M 10.0 137.5 L 0.0 127.5 L 10.0 117.5" stroke="#969696" fill="none" stroke-width="1px" />
<path d="M 10.0 117.5 L 1745.23333333 117.5" stroke="#969696" fill="none" stroke-width="1px" />
<path d="M 1745.23333333 117.5 L 1755.23333333 107.5 L 1745.23333333 97.5" stroke="#969696" fill="none" stroke-width="1px" />
<path d="M 1745.23333333 97.5 L 10.0 97.5" stroke="#969696" fill="none" stroke-width="1px" />
<path d="M 10.0 97.5 L 0.0 87.5 L 10.0 77.5" stroke="#969696" fill="none" stroke-width="1px" />
<path d="M 10.0 77.5 L 1745.23333333 77.5" stroke="#969696" fill="none" stroke-width="1px" />
<path d="M 1745.23333333 77.5 L 1755.23333333 67.5 L 1745.23333333 57.5" stroke="#969696" fill="none" stroke-width="1px" />
<path d="M 1745.23333333 57.5 L 10.0 57.5" stroke="#969696" fill="none" stroke-width="1px" />
<path d="M 10.0 57.5 L 0.0 47.5 L 10.0 37.5" stroke="#969696" fill="none" stroke-width="1px" />
<path d="M 10.0 37.5 L 1745.23333333 37.5" stroke="#969696" fill="none" stroke-width="1px" />
<path d="M 1745.23333333 37.5 L 1755.23333333 27.5 L 1745.23333333 17.5" stroke="#969696" fill="none" stroke-width="1px" />
<path d="M 1745.23333333 17.5 L 10.0 17.5" stroke="#969696" fill="none" stroke-width="1px" />
<path d="M 10.0 17.5 L 0.0 7.5 L 10.0 -2.5" stroke="#969696" fill="none" stroke-width="1px" />
<path d="M 10.0 -2.5 L 1745.23333333 -2.5" stroke="#969696" fill="none" stroke-width="1px" />
<path d="M 1745.23333333 -2.5 L 1755.23333333 -12.5 L 1745.23333333 -22.5" stroke="#969696" fill="none" stroke-width="1px" />
<path d="M 0.0 235.0 L 180.0 155.0" stroke="#0095FF" fill="none" stroke-width="2px" />
<path d="M 220.0 175.0 L 220.0 145.0" stroke="#0095FF" fill="none" stroke-width="2px" />
<path d="M 230.0 145.0 L 320.0 105.0" stroke="#0095FF" fill="none" stroke-width="2px" />
<path d="M 320.0 85.0 L 320.0 65.0" stroke="#0095FF" fill="none" stroke-width="2px" />
<path d="M 350.0 65.0 L 370.0 55.0" stroke="#0095FF" fill="none" stroke-width="2px" />
<path d="M 360.0 -5.0 L 370.0 35.0" stroke="#0095FF" fill="none" stroke-width="2px" />
<path d="M 380.0 45.0 L 420.0 65.0" stroke="#0095FF" fill="none" stroke-width="2px" />
<path d="M 440.0 75.0 L 440.0 55.0" stroke="#0095FF" fill="none" stroke-width="2px" />
<path d="M 470.0 45.0 L 470.0 25.0" stroke="#0095FF" fill="none" stroke-width="2px" />
<path d="M 480.0 25.0 L 480.0 5.0" stroke="#0095FF" fill="none" stroke-width="2px" />
<path d="M 480.0 -5.0 L 520.0 55.0" stroke="#0095FF" fill="none" stroke-width="2px" />
<path d="M 540.0 95.0 L 540.0 125.0" stroke="#0095FF" fill="none" stroke-width="2px" />
<path d="M 530.0 175.0 L 540.0 135.0" stroke="#0095FF" fill="none" stroke-width="2px" />
<path d="M 550.0 125.0 L 600.0 95.0" stroke="#0095FF" fill="none" stroke-width="2px" />
<path d="M 630.0 115.0 L 630.0 85.0" stroke="#0095FF" fill="none" stroke-width="2px" />
<path d="M 620.0 75.0 L 550.0 65.0" stroke="#0095FF" fill="none" stroke-width="2px" />
<path d="M 550.0 65.0 L 430.0 95.0" stroke="#0095FF" fill="none" stroke-width="2px" />
<path d="M 430.0 95.0 L 370.0 85.0" stroke="#0095FF" fill="none" stroke-width="2px" />
<path d="M 370.0 85.0 L 360.0 115.0" stroke="#0095FF" fill="none" stroke-width="2px" />
<path d="M 340.0 115.0 L 370.0 205.0" stroke="#0095FF" fill="none" stroke-width="2px" />
<path d="M 370.0 225.0 L 390.0 215.0" stroke="#0095FF" fill="none" stroke-width="2px" />
<path d="M 400.0 225.0 L 600.0 225.0" stroke="#0095FF" fill="none" stroke-width="2px" />
<path d="M 610.0 235.0 L 610.0 215.0" stroke="#0095FF" fill="none" stroke-width="2px" />
<path d="M 620.0 205.0 L 700.0 165.0" stroke="#0095FF" fill="none" stroke-width="2px" />
<path d="M 730.0 155.0 L 720.0 115.0" stroke="#0095FF" fill="none" stroke-width="2px" />
<path d="M 710.0 105.0 L 1020.0 105.0" stroke="#0095FF" fill="none" stroke-width="2px" />
<path d="M 1060.0 175.0 L 1060.0 95.0" stroke="#0095FF" fill="none" stroke-width="2px" />
<path d="M 1090.0 95.0 L 1070.0 75.0" stroke="#0095FF" fill="none" stroke-width="2px" />
<path d="M 1050.0 75.0 L 1160.0 115.0" stroke="#0095FF" fill="none" stroke-width="2px" />
<path d="M 1180.0 145.0 L 1180.0 105.0" stroke="#0095FF" fill="none" stroke-width="2px" />
<path d="M 1190.0 105.0 L 1330.0 135.0" stroke="#0095FF" fill="none" stroke-width="2px" />
<path d="M 1360.0 175.0 L 1360.0 125.0" stroke="#0095FF" fill="none" stroke-width="2px" />
<path d="M 1380.0 125.0 L 1600.0 105.0" stroke="#0095FF" fill="none" stroke-width="2px" />
<path d="M 1630.0 135.0 L 1630.0 95.0" stroke="#0095FF" fill="none" stroke-width="2px" />
<path d="M 180.0 155.0 L 190.0 155.0" stroke="#FF0000" fill="none" stroke-width="4px" />
<path d="M 190.0 155.0 L 200.0 155.0" stroke="#FF0000" fill="none" stroke-width="4px" />
<path d="M 200.0 155.0 L 210.0 155.0" stroke="#FF0000" fill="none" stroke-width="4px" />
<path d="M 210.0 155.0 L 220.0 155.0" stroke="#FF0000" fill="none" stroke-width="4px" />
<path d="M 220.0 155.0 L 230.0 155.0" stroke="#FF0000" fill="none" stroke-width="4px" />
<path d="M 230.0 155.0 L 230.0 165.0" stroke="#FF0000" fill="none" stroke-width="4px" />
<path d="M 230.0 165.0 L 220.0 165.0" stroke="#FF0000" fill="none" stroke-width="4px" />
<path d="M 220.0 165.0 L 210.0 165.0" stroke="#FF0000" fill="none" stroke-width="4px" />
<path d="M 210.0 165.0 L 200.0 165.0" stroke="#FF0000" fill="none" stroke-width="4px" />
<path d="M 200.0 165.0 L 190.0 165.0" stroke="#FF0000" fill="none" stroke-width="4px" />
<path d="M 190.0 165.0 L 200.0 175.0" stroke="#FF0000" fill="none" stroke-width="4px" />
<path d="M 200.0 175.0 L 210.0 175.0" stroke="#FF0000" fill="none" stroke-width="4px" />
<path d="M 210.0 175.0 L 220.0 175.0" stroke="#FF0000" fill="none" stroke-width="4px" />
<path d="M 220.0 145.0 L 210.0 145.0" stroke="#FF0000" fill="none" stroke-width="4px" />
<path d="M 210.0 145.0 L 200.0 145.0" stroke="#FF0000" fill="none" stroke-width="4px" />
<path d="M 200.0 145.0 L 190.0 145.0" stroke="#FF0000" fill="none" stroke-width="4px" />
<path d="M 190.0 145.0 L 200.0 135.0" stroke="#FF0000" fill="none" stroke-width="4px" />
<path d="M 200.0 135.0 L 210.0 135.0" stroke="#FF0000" fill="none" stroke-width="4px" />
<path d="M 210.0 135.0 L 220.0 135.0" stroke="#FF0000" fill="none" stroke-width="4px" />
<path d="M 220.0 135.0 L 230.0 145.0" stroke="#FF0000" fill="none" stroke-width="4px" />
<path d="M 320.0 105.0 L 330.0 105.0" stroke="#FF0000" fill="none" stroke-width="4px" />
<path d="M 330.0 105.0 L 340.0 105.0" stroke="#FF0000" fill="none" stroke-width="4px" />
<path d="M 340.0 105.0 L 350.0 105.0" stroke="#FF0000" fill="none" stroke-width="4px" />
<path d="M 350.0 105.0 L 360.0 105.0" stroke="#FF0000" fill="none" stroke-width="4px" />
<path d="M 360.0 105.0 L 370.0 105.0" stroke="#FF0000" fill="none" stroke-width="4px" />
<path d="M 370.0 105.0 L 370.0 95.0" stroke="#FF0000" fill="none" stroke-width="4px" />
<path d="M 370.0 95.0 L 360.0 95.0" stroke="#FF0000" fill="none" stroke-width="4px" />
<path d="M 360.0 95.0 L 350.0 95.0" stroke="#FF0000" fill="none" stroke-width="4px" />
<path d="M 350.0 95.0 L 340.0 95.0" stroke="#FF0000" fill="none" stroke-width="4px" />
<path d="M 340.0 95.0 L 330.0 95.0" stroke="#FF0000" fill="none" stroke-width="4px" />
<path d="M 330.0 95.0 L 320.0 95.0" stroke="#FF0000" fill="none" stroke-width="4px" />
<path d="M 320.0 95.0 L 310.0 95.0" stroke="#FF0000" fill="none" stroke-width="4px" />
<path d="M 310.0 95.0 L 310.0 85.0" stroke="#FF0000" fill="none" stroke-width="4px" />
<path d="M 310.0 85.0 L 300.0 85.0" stroke="#FF0000" fill="none" stroke-width="4px" />
<path d="M 300.0 85.0 L 310.0 75.0" stroke="#FF0000" fill="none" stroke-width="4px" />
<path d="M 310.0 75.0 L 320.0 75.0" stroke="#FF0000" fill="none" stroke-width="4px" />
<path d="M 320.0 75.0 L 330.0 75.0" stroke="#FF0000" fill="none" stroke-width="4px" />
<path d="M 330.0 75.0 L 340.0 75.0" stroke="#FF0000" fill="none" stroke-width="4px" />
<path d="M 340.0 75.0 L 350.0 75.0" stroke="#FF0000" fill="none" stroke-width="4px" />
<path d="M 350.0 75.0 L 360.0 75.0" stroke="#FF0000" fill="none" stroke-width="4px" />
<path d="M 360.0 75.0 L 360.0 85.0" stroke="#FF0000" fill="none" stroke-width="4px" />
<path d="M 360.0 85.0 L 350.0 85.0" stroke="#FF0000" fill="none" stroke-width="4px" />
<path d="M 350.0 85.0 L 340.0 85.0" stroke="#FF0000" fill="none" stroke-width="4px" />
<path d="M 340.0 85.0 L 330.0 85.0" stroke="#FF0000" fill="none" stroke-width="4px" />
<path d="M 330.0 85.0 L 320.0 85.0" stroke="#FF0000" fill="none" stroke-width="4px" />
<path d="M 320.0 65.0 L 330.0 65.0" stroke="#FF0000" fill="none" stroke-width="4px" />
<path d="M 330.0 65.0 L 340.0 65.0" stroke="#FF0000" fill="none" stroke-width="4px" />
<path d="M 340.0 65.0 L 350.0 65.0" stroke="#FF0000" fill="none" stroke-width="4px" />
<path d="M 370.0 55.0 L 370.0 45.0" stroke="#FF0000" fill="none" stroke-width="4px" />
<path d="M 370.0 45.0 L 360.0 45.0" stroke="#FF0000" fill="none" stroke-width="4px" />
<path d="M 360.0 45.0 L 360.0 35.0" stroke="#FF0000" fill="none" stroke-width="4px" />
<path d="M 360.0 35.0 L 350.0 35.0" stroke="#FF0000" fill="none" stroke-width="4px" />
<path d="M 350.0 35.0 L 350.0 25.0" stroke="#FF0000" fill="none" stroke-width="4px" />
<path d="M 350.0 25.0 L 360.0 25.0" stroke="#FF0000" fill="none" stroke-width="4px" />
<path d="M 360.0 25.0 L 370.0 25.0" stroke="#FF0000" fill="none" stroke-width="4px" />
<path d="M 370.0 25.0 L 380.0 25.0" stroke="#FF0000" fill="none" stroke-width="4px" />
<path d="M 380.0 25.0 L 390.0 25.0" stroke="#FF0000" fill="none" stroke-width="4px" />
<path d="M 390.0 25.0 L 400.0 25.0" stroke="#FF0000" fill="none" stroke-width="4px" />
<path d="M 400.0 25.0 L 400.0 15.0" stroke="#FF0000" fill="none" stroke-width="4px" />
<path d="M 400.0 15.0 L 390.0 15.0" stroke="#FF0000" fill="none" stroke-width="4px" />
<path d="M 390.0 15.0 L 380.0 15.0" stroke="#FF0000" fill="none" stroke-width="4px" />
<path d="M 380.0 15.0 L 370.0 15.0" stroke="#FF0000" fill="none" stroke-width="4px" />
<path d="M 370.0 15.0 L 360.0 15.0" stroke="#FF0000" fill="none" stroke-width="4px" />
<path d="M 360.0 15.0 L 350.0 15.0" stroke="#FF0000" fill="none" stroke-width="4px" />
<path d="M 350.0 15.0 L 360.0 5.0" stroke="#FF0000" fill="none" stroke-width="4px" />
<path d="M 360.0 5.0 L 370.0 5.0" stroke="#FF0000" fill="none" stroke-width="4px" />
<path d="M 370.0 5.0 L 380.0 5.0" stroke="#FF0000" fill="none" stroke-width="4px" />
<path d="M 380.0 5.0 L 390.0 5.0" stroke="#FF0000" fill="none" stroke-width="4px" />
<path d="M 390.0 5.0 L 380.0 -5.0" stroke="#FF0000" fill="none" stroke-width="4px" />
<path d="M 380.0 -5.0 L 370.0 -5.0" stroke="#FF0000" fill="none" stroke-width="4px" />
<path d="M 370.0 -5.0 L 360.0 -5.0" stroke="#FF0000" fill="none" stroke-width="4px" />
<path d="M 370.0 35.0 L 380.0 35.0" stroke="#FF0000" fill="none" stroke-width="4px" />
<path d="M 380.0 35.0 L 390.0 35.0" stroke="#FF0000" fill="none" stroke-width="4px" />
<path d="M 390.0 35.0 L 380.0 45.0" stroke="#FF0000" fill="none" stroke-width="4px" />
<path d="M 420.0 65.0 L 430.0 65.0" stroke="#FF0000" fill="none" stroke-width="4px" />
<path d="M 430.0 65.0 L 430.0 75.0" stroke="#FF0000" fill="none" stroke-width="4px" />
<path d="M 430.0 75.0 L 420.0 75.0" stroke="#FF0000" fill="none" stroke-width="4px" />
<path d="M 420.0 75.0 L 410.0 75.0" stroke="#FF0000" fill="none" stroke-width="4px" />
<path d="M 410.0 75.0 L 420.0 85.0" stroke="#FF0000" fill="none" stroke-width="4px" />
<path d="M 420.0 85.0 L 430.0 85.0" stroke="#FF0000" fill="none" stroke-width="4px" />
<path d="M 430.0 85.0 L 440.0 85.0" stroke="#FF0000" fill="none" stroke-width="4px" />
<path d="M 440.0 85.0 L 440.0 75.0" stroke="#FF0000" fill="none" stroke-width="4px" />
<path d="M 440.0 55.0 L 450.0 55.0" stroke="#FF0000" fill="none" stroke-width="4px" />
<path d="M 450.0 55.0 L 460.0 55.0" stroke="#FF0000" fill="none" stroke-width="4px" />
<path d="M 460.0 55.0 L 460.0 45.0" stroke="#FF0000" fill="none" stroke-width="4px" />
<path d="M 460.0 45.0 L 450.0 45.0" stroke="#FF0000" fill="none" stroke-width="4px" />
<path d="M 450.0 45.0 L 440.0 45.0" stroke="#FF0000" fill="none" stroke-width="4px" />
<path d="M 440.0 45.0 L 430.0 45.0" stroke="#FF0000" fill="none" stroke-width="4px" />
<path d="M 430.0 45.0 L 430.0 35.0" stroke="#FF0000" fill="none" stroke-width="4px" />
<path d="M 430.0 35.0 L 440.0 35.0" stroke="#FF0000" fill="none" stroke-width="4px" />
<path d="M 440.0 35.0 L 450.0 35.0" stroke="#FF0000" fill="none" stroke-width="4px" />
<path d="M 450.0 35.0 L 460.0 35.0" stroke="#FF0000" fill="none" stroke-width="4px" />
<path d="M 460.0 35.0 L 470.0 35.0" stroke="#FF0000" fill="none" stroke-width="4px" />
<path d="M 470.0 35.0 L 470.0 45.0" stroke="#FF0000" fill="none" stroke-width="4px" />
<path d="M 470.0 25.0 L 460.0 25.0" stroke="#FF0000" fill="none" stroke-width="4px" />
<path d="M 460.0 25.0 L 450.0 25.0" stroke="#FF0000" fill="none" stroke-width="4px" />
<path d="M 450.0 25.0 L 440.0 25.0" stroke="#FF0000" fill="none" stroke-width="4px" />
<path d="M 440.0 25.0 L 430.0 25.0" stroke="#FF0000" fill="none" stroke-width="4px" />
<path d="M 430.0 25.0 L 420.0 25.0" stroke="#FF0000" fill="none" stroke-width="4px" />
<path d="M 420.0 25.0 L 430.0 15.0" stroke="#FF0000" fill="none" stroke-width="4px" />
<path d="M 430.0 15.0 L 440.0 15.0" stroke="#FF0000" fill="none" stroke-width="4px" />
<path d="M 440.0 15.0 L 450.0 15.0" stroke="#FF0000" fill="none" stroke-width="4px" />
<path d="M 450.0 15.0 L 460.0 15.0" stroke="#FF0000" fill="none" stroke-width="4px" />
<path d="M 460.0 15.0 L 470.0 15.0" stroke="#FF0000" fill="none" stroke-width="4px" />
<path d="M 470.0 15.0 L 480.0 15.0" stroke="#FF0000" fill="none" stroke-width="4px" />
<path d="M 480.0 15.0 L 480.0 25.0" stroke="#FF0000" fill="none" stroke-width="4px" />
<path d="M 480.0 5.0 L 470.0 5.0" stroke="#FF0000" fill="none" stroke-width="4px" />
<path d="M 470.0 5.0 L 460.0 5.0" stroke="#FF0000" fill="none" stroke-width="4px" />
<path d="M 460.0 5.0 L 450.0 5.0" stroke="#FF0000" fill="none" stroke-width="4px" />
<path d="M 450.0 5.0 L 440.0 5.0" stroke="#FF0000" fill="none" stroke-width="4px" />
<path d="M 440.0 5.0 L 450.0 -5.0" stroke="#FF0000" fill="none" stroke-width="4px" />
<path d="M 450.0 -5.0 L 460.0 -5.0" stroke="#FF0000" fill="none" stroke-width="4px" />
<path d="M 460.0 -5.0 L 470.0 -5.0" stroke="#FF0000" fill="none" stroke-width="4px" />
<path d="M 470.0 -5.0 L 480.0 -5.0" stroke="#FF0000" fill="none" stroke-width="4px" />
<path d="M 520.0 55.0 L 530.0 55.0" stroke="#FF0000" fill="none" stroke-width="4px" />
<path d="M 530.0 55.0 L 540.0 55.0" stroke="#FF0000" fill="none" stroke-width="4px" />
<path d="M 540.0 55.0 L 540.0 65.0" stroke="#FF0000" fill="none" stroke-width="4px" />
<path d="M 540.0 65.0 L 530.0 65.0" stroke="#FF0000" fill="none" stroke-width="4px" />
<path d="M 530.0 65.0 L 520.0 65.0" stroke="#FF0000" fill="none" stroke-width="4px" />
<path d="M 520.0 65.0 L 510.0 65.0" stroke="#FF0000" fill="none" stroke-width="4px" />
<path d="M 510.0 65.0 L 510.0 75.0" stroke="#FF0000" fill="none" stroke-width="4px" />
<path d="M 510.0 75.0 L 520.0 75.0" stroke="#FF0000" fill="none" stroke-width="4px" />
<path d="M 520.0 75.0 L 530.0 75.0" stroke="#FF0000" fill="none" stroke-width="4px" />
<path d="M 530.0 75.0 L 540.0 75.0" stroke="#FF0000" fill="none" stroke-width="4px" />
<path d="M 540.0 75.0 L 550.0 75.0" stroke="#FF0000" fill="none" stroke-width="4px" />
<path d="M 550.0 75.0 L 560.0 75.0" stroke="#FF0000" fill="none" stroke-width="4px" />
<path d="M 560.0 75.0 L 550.0 85.0" stroke="#FF0000" fill="none" stroke-width="4px" />
<path d="M 550.0 85.0 L 540.0 85.0" stroke="#FF0000" fill="none" stroke-width="4px" />
<path d="M 540.0 85.0 L 530.0 85.0" stroke="#FF0000" fill="none" stroke-width="4px" />
<path d="M 530.0 85.0 L 520.0 85.0" stroke="#FF0000" fill="none" stroke-width="4px" />
<path d="M 520.0 85.0 L 530.0 95.0" stroke="#FF0000" fill="none" stroke-width="4px" />
<path d="M 530.0 95.0 L 540.0 95.0" stroke="#FF0000" fill="none" stroke-width="4px" />
<path d="M 540.0 125.0 L 530.0 125.0" stroke="#FF0000" fill="none" stroke-width="4px" />
<path d="M 530.0 125.0 L 530.0 135.0" stroke="#FF0000" fill="none" stroke-width="4px" />
<path d="M 530.0 135.0 L 520.0 135.0" stroke="#FF0000" fill="none" stroke-width="4px" />
<path d="M 520.0 135.0 L 520.0 145.0" stroke="#FF0000" fill="none" stroke-width="4px" />
<path d="M 520.0 145.0 L 530.0 145.0" stroke="#FF0000" fill="none" stroke-width="4px" />
<path d="M 530.0 145.0 L 540.0 145.0" stroke="#FF0000" fill="none" stroke-width="4px" />
<path d="M 540.0 145.0 L 550.0 145.0" stroke="#FF0000" fill="none" stroke-width="4px" />
<path d="M 550.0 145.0 L 560.0 145.0" stroke="#FF0000" fill="none" stroke-width="4px" />
<path d="M 560.0 145.0 L 570.0 145.0" stroke="#FF0000" fill="none" stroke-width="4px" />
<path d="M 570.0 145.0 L 580.0 145.0" stroke="#FF0000" fill="none" stroke-width="4px" />
<path d="M 580.0 145.0 L 580.0 155.0" stroke="#FF0000" fill="none" stroke-width="4px" />
<path d="M 580.0 155.0 L 570.0 155.0" stroke="#FF0000" fill="none" stroke-width="4px" />
<path d="M 570.0 155.0 L 560.0 155.0" stroke="#FF0000" fill="none" stroke-width="4px" />
<path d="M 560.0 155.0 L 550.0 155.0" stroke="#FF0000" fill="none" stroke-width="4px" />
<path d="M 550.0 155.0 L 540.0 155.0" stroke="#FF0000" fill="none" stroke-width="4px" />
<path d="M 540.0 155.0 L 530.0 155.0" stroke="#FF0000" fill="none" stroke-width="4px" />
<path d="M 530.0 155.0 L 520.0 155.0" stroke="#FF0000" fill="none" stroke-width="4px" />
<path d="M 520.0 155.0 L 520.0 165.0" stroke="#FF0000" fill="none" stroke-width="4px" />
<path d="M 520.0 165.0 L 530.0 165.0" stroke="#FF0000" fill="none" stroke-width="4px" />
<path d="M 530.0 165.0 L 540.0 165.0" stroke="#FF0000" fill="none" stroke-width="4px" />
<path d="M 540.0 165.0 L 550.0 165.0" stroke="#FF0000" fill="none" stroke-width="4px" />
<path d="M 550.0 165.0 L 560.0 165.0" stroke="#FF0000" fill="none" stroke-width="4px" />
<path d="M 560.0 165.0 L 570.0 165.0" stroke="#FF0000" fill="none" stroke-width="4px" />
<path d="M 570.0 165.0 L 560.0 175.0" stroke="#FF0000" fill="none" stroke-width="4px" />
<path d="M 560.0 175.0 L 550.0 175.0" stroke="#FF0000" fill="none" stroke-width="4px" />
<path d="M 550.0 175.0 L 540.0 175.0" stroke="#FF0000" fill="none" stroke-width="4px" />
<path d="M 540.0 175.0 L 530.0 175.0" stroke="#FF0000" fill="none" stroke-width="4px" />
<path d="M 540.0 135.0 L 550.0 135.0" stroke="#FF0000" fill="none" stroke-width="4px" />
<path d="M 550.0 135.0 L 560.0 135.0" stroke="#FF0000" fill="none" stroke-width="4px" />
<path d="M 560.0 135.0 L 570.0 135.0" stroke="#FF0000" fill="none" stroke-width="4px" />
<path d="M 570.0 135.0 L 560.0 125.0" stroke="#FF0000" fill="none" stroke-width="4px" />
<path d="M 560.0 125.0 L 550.0 125.0" stroke="#FF0000" fill="none" stroke-width="4px" />
<path d="M 600.0 95.0 L 610.0 95.0" stroke="#FF0000" fill="none" stroke-width="4px" />
<path d="M 610.0 95.0 L 620.0 95.0" stroke="#FF0000" fill="none" stroke-width="4px" />
<path d="M 620.0 95.0 L 630.0 95.0" stroke="#FF0000" fill="none" stroke-width="4px" />
<path d="M 630.0 95.0 L 640.0 95.0" stroke="#FF0000" fill="none" stroke-width="4px" />
<path d="M 640.0 95.0 L 640.0 105.0" stroke="#FF0000" fill="none" stroke-width="4px" />
<path d="M 640.0 105.0 L 630.0 105.0" stroke="#FF0000" fill="none" stroke-width="4px" />
<path d="M 630.0 105.0 L 620.0 105.0" stroke="#FF0000" fill="none" stroke-width="4px" />
<path d="M 620.0 105.0 L 610.0 105.0" stroke="#FF0000" fill="none" stroke-width="4px" />
<path d="M 610.0 105.0 L 620.0 115.0" stroke="#FF0000" fill="none" stroke-width="4px" />
<path d="M 620.0 115.0 L 630.0 115.0" stroke="#FF0000" fill="none" stroke-width="4px" />
<path d="M 630.0 85.0 L 620.0 85.0" stroke="#FF0000" fill="none" stroke-width="4px" />
<path d="M 620.0 85.0 L 610.0 85.0" stroke="#FF0000" fill="none" stroke-width="4px" />
<path d="M 610.0 85.0 L 620.0 75.0" stroke="#FF0000" fill="none" stroke-width="4px" />
<path d="M 360.0 115.0 L 350.0 115.0" stroke="#FF0000" fill="none" stroke-width="4px" />
<path d="M 350.0 115.0 L 340.0 115.0" stroke="#FF0000" fill="none" stroke-width="4px" />
<path d="M 370.0 205.0 L 380.0 205.0" stroke="#FF0000" fill="none" stroke-width="4px" />
<path d="M 380.0 205.0 L 380.0 215.0" stroke="#FF0000" fill="none" stroke-width="4px" />
<path d="M 380.0 215.0 L 370.0 215.0" stroke="#FF0000" fill="none" stroke-width="4px" />
<path d="M 370.0 215.0 L 360.0 215.0" stroke="#FF0000" fill="none" stroke-width="4px" />
<path d="M 360.0 215.0 L 360.0 225.0" stroke="#FF0000" fill="none" stroke-width="4px" />
<path d="M 360.0 225.0 L 350.0 225.0" stroke="#FF0000" fill="none" stroke-width="4px" />
<path d="M 350.0 225.0 L 360.0 235.0" stroke="#FF0000" fill="none" stroke-width="4px" />
<path d="M 360.0 235.0 L 370.0 235.0" stroke="#FF0000" fill="none" stroke-width="4px" />
<path d="M 370.0 235.0 L 380.0 235.0" stroke="#FF0000" fill="none" stroke-width="4px" />
<path d="M 380.0 235.0 L 390.0 235.0" stroke="#FF0000" fill="none" stroke-width="4px" />
<path d="M 390.0 235.0 L 390.0 225.0" stroke="#FF0000" fill="none" stroke-width="4px" />
<path d="M 390.0 225.0 L 380.0 225.0" stroke="#FF0000" fill="none" stroke-width="4px" />
<path d="M 380.0 225.0 L 370.0 225.0" stroke="#FF0000" fill="none" stroke-width="4px" />
<path d="M 390.0 215.0 L 400.0 225.0" stroke="#FF0000" fill="none" stroke-width="4px" />
<path d="M 600.0 225.0 L 610.0 225.0" stroke="#FF0000" fill="none" stroke-width="4px" />
<path d="M 610.0 225.0 L 620.0 225.0" stroke="#FF0000" fill="none" stroke-width="4px" />
<path d="M 620.0 225.0 L 630.0 225.0" stroke="#FF0000" fill="none" stroke-width="4px" />
<path d="M 630.0 225.0 L 640.0 225.0" stroke="#FF0000" fill="none" stroke-width="4px" />
<path d="M 640.0 225.0 L 650.0 225.0" stroke="#FF0000" fill="none" stroke-width="4px" />
<path d="M 650.0 225.0 L 640.0 235.0" stroke="#FF0000" fill="none" stroke-width="4px" />
<path d="M 640.0 235.0 L 630.0 235.0" stroke="#FF0000" fill="none" stroke-width="4px" />
<path d="M 630.0 235.0 L 620.0 235.0" stroke="#FF0000" fill="none" stroke-width="4px" />
<path d="M 620.0 235.0 L 610.0 235.0" stroke="#FF0000" fill="none" stroke-width="4px" />
<path d="M 610.0 215.0 L 620.0 215.0" stroke="#FF0000" fill="none" stroke-width="4px" />
<path d="M 620.0 215.0 L 630.0 215.0" stroke="#FF0000" fill="none" stroke-width="4px" />
<path d="M 630.0 215.0 L 620.0 205.0" stroke="#FF0000" fill="none" stroke-width="4px" />
<path d="M 700.0 165.0 L 710.0 165.0" stroke="#FF0000" fill="none" stroke-width="4px" />
<path d="M 710.0 165.0 L 720.0 165.0" stroke="#FF0000" fill="none" stroke-width="4px" />
<path d="M 720.0 165.0 L 720.0 155.0" stroke="#FF0000" fill="none" stroke-width="4px" />
<path d="M 720.0 155.0 L 710.0 155.0" stroke="#FF0000" fill="none" stroke-width="4px" />
<path d="M 710.0 155.0 L 700.0 155.0" stroke="#FF0000" fill="none" stroke-width="4px" />
<path d="M 700.0 155.0 L 690.0 155.0" stroke="#FF0000" fill="none" stroke-width="4px" />
<path d="M 690.0 155.0 L 690.0 145.0" stroke="#FF0000" fill="none" stroke-width="4px" />
<path d="M 690.0 145.0 L 680.0 145.0" stroke="#FF0000" fill="none" stroke-width="4px" />
<path d="M 680.0 145.0 L 680.0 135.0" stroke="#FF0000" fill="none" stroke-width="4px" />
<path d="M 680.0 135.0 L 670.0 135.0" stroke="#FF0000" fill="none" stroke-width="4px" />
<path d="M 670.0 135.0 L 680.0 125.0" stroke="#FF0000" fill="none" stroke-width="4px" />
<path d="M 680.0 125.0 L 690.0 125.0" stroke="#FF0000" fill="none" stroke-width="4px" />
<path d="M 690.0 125.0 L 700.0 125.0" stroke="#FF0000" fill="none" stroke-width="4px" />
<path d="M 700.0 125.0 L 710.0 125.0" stroke="#FF0000" fill="none" stroke-width="4px" />
<path d="M 710.0 125.0 L 720.0 125.0" stroke="#FF0000" fill="none" stroke-width="4px" />
<path d="M 720.0 125.0 L 730.0 125.0" stroke="#FF0000" fill="none" stroke-width="4px" />
<path d="M 730.0 125.0 L 730.0 135.0" stroke="#FF0000" fill="none" stroke-width="4px" />
<path d="M 730.0 135.0 L 720.0 135.0" stroke="#FF0000" fill="none" stroke-width="4px" />
<path d="M 720.0 135.0 L 710.0 135.0" stroke="#FF0000" fill="none" stroke-width="4px" />
<path d="M 710.0 135.0 L 700.0 135.0" stroke="#FF0000" fill="none" stroke-width="4px" />
<path d="M 700.0 135.0 L 690.0 135.0" stroke="#FF0000" fill="none" stroke-width="4px" />
<path d="M 690.0 135.0 L 700.0 145.0" stroke="#FF0000" fill="none" stroke-width="4px" />
<path d="M 700.0 145.0 L 710.0 145.0" stroke="#FF0000" fill="none" stroke-width="4px" />
<path d="M 710.0 145.0 L 720.0 145.0" stroke="#FF0000" fill="none" stroke-width="4px" />
<path d="M 720.0 145.0 L 730.0 145.0" stroke="#FF0000" fill="none" stroke-width="4px" />
<path d="M 730.0 145.0 L 730.0 155.0" stroke="#FF0000" fill="none" stroke-width="4px" />
<path d="M 720.0 115.0 L 710.0 115.0" stroke="#FF0000" fill="none" stroke-width="4px" />
<path d="M 710.0 115.0 L 700.0 115.0" stroke="#FF0000" fill="none" stroke-width="4px" />
<path d="M 700.0 115.0 L 690.0 115.0" stroke="#FF0000" fill="none" stroke-width="4px" />
<path d="M 690.0 115.0 L 680.0 115.0" stroke="#FF0000" fill="none" stroke-width="4px" />
<path d="M 680.0 115.0 L 690.0 105.0" stroke="#FF0000" fill="none" stroke-width="4px" />
<path d="M 690.0 105.0 L 700.0 105.0" stroke="#FF0000" fill="none" stroke-width="4px" />
<path d="M 700.0 105.0 L 710.0 105.0" stroke="#FF0000" fill="none" stroke-width="4px" />
<path d="M 1020.0 105.0 L 1030.0 105.0" stroke="#FF0000" fill="none" stroke-width="4px" />
<path d="M 1030.0 105.0 L 1040.0 105.0" stroke="#FF0000" fill="none" stroke-width="4px" />
<path d="M 1040.0 105.0 L 1050.0 105.0" stroke="#FF0000" fill="none" stroke-width="4px" />
<path d="M 1050.0 105.0 L 1060.0 105.0" stroke="#FF0000" fill="none" stroke-width="4px" />
<path d="M 1060.0 105.0 L 1070.0 105.0" stroke="#FF0000" fill="none" stroke-width="4px" />
<path d="M 1070.0 105.0 L 1080.0 105.0" stroke="#FF0000" fill="none" stroke-width="4px" />
<path d="M 1080.0 105.0 L 1090.0 105.0" stroke="#FF0000" fill="none" stroke-width="4px" />
<path d="M 1090.0 105.0 L 1100.0 105.0" stroke="#FF0000" fill="none" stroke-width="4px" />
<path d="M 1100.0 105.0 L 1100.0 115.0" stroke="#FF0000" fill="none" stroke-width="4px" />
<path d="M 1100.0 115.0 L 1090.0 115.0" stroke="#FF0000" fill="none" stroke-width="4px" />
<path d="M 1090.0 115.0 L 1080.0 115.0" stroke="#FF0000" fill="none" stroke-width="4px" />
<path d="M 1080.0 115.0 L 1070.0 115.0" stroke="#FF0000" fill="none" stroke-width="4px" />
<path d="M 1070.0 115.0 L 1060.0 115.0" stroke="#FF0000" fill="none" stroke-width="4px" />
<path d="M 1060.0 115.0 L 1050.0 115.0" stroke="#FF0000" fill="none" stroke-width="4px" />
<path d="M 1050.0 115.0 L 1040.0 115.0" stroke="#FF0000" fill="none" stroke-width="4px" />
<path d="M 1040.0 115.0 L 1030.0 115.0" stroke="#FF0000" fill="none" stroke-width="4px" />
<path d="M 1030.0 115.0 L 1020.0 115.0" stroke="#FF0000" fill="none" stroke-width="4px" />
<path d="M 1020.0 115.0 L 1020.0 125.0" stroke="#FF0000" fill="none" stroke-width="4px" />
<path d="M 1020.0 125.0 L 1030.0 125.0" stroke="#FF0000" fill="none" stroke-width="4px" />
<path d="M 1030.0 125.0 L 1040.0 125.0" stroke="#FF0000" fill="none" stroke-width="4px" />
<path d="M 1040.0 125.0 L 1050.0 125.0" stroke="#FF0000" fill="none" stroke-width="4px" />
<path d="M 1050.0 125.0 L 1060.0 125.0" stroke="#FF0000" fill="none" stroke-width="4px" />
<path d="M 1060.0 125.0 L 1070.0 125.0" stroke="#FF0000" fill="none" stroke-width="4px" />
<path d="M 1070.0 125.0 L 1080.0 125.0" stroke="#FF0000" fill="none" stroke-width="4px" />
<path d="M 1080.0 125.0 L 1090.0 125.0" stroke="#FF0000" fill="none" stroke-width="4px" />
<path d="M 1090.0 125.0 L 1100.0 125.0" stroke="#FF0000" fill="none" stroke-width="4px" />
<path d="M 1100.0 125.0 L 1110.0 125.0" stroke="#FF0000" fill="none" stroke-width="4px" />
<path d="M 1110.0 125.0 L 1110.0 135.0" stroke="#FF0000" fill="none" stroke-width="4px" />
<path d="M 1110.0 135.0 L 1100.0 135.0" stroke="#FF0000" fill="none" stroke-width="4px" />
<path d="M 1100.0 135.0 L 1090.0 135.0" stroke="#FF0000" fill="none" stroke-width="4px" />
<path d="M 1090.0 135.0 L 1080.0 135.0" stroke="#FF0000" fill="none" stroke-width="4px" />
<path d="M 1080.0 135.0 L 1070.0 135.0" stroke="#FF0000" fill="none" stroke-width="4px" />
<path d="M 1070.0 135.0 L 1060.0 135.0" stroke="#FF0000" fill="none" stroke-width="4px" />
<path d="M 1060.0 135.0 L 1050.0 135.0" stroke="#FF0000" fill="none" stroke-width="4px" />
<path d="M 1050.0 135.0 L 1040.0 135.0" stroke="#FF0000" fill="none" stroke-width="4px" />
<path d="M 1040.0 135.0 L 1030.0 135.0" stroke="#FF0000" fill="none" stroke-width="4px" />
<path d="M 1030.0 135.0 L 1020.0 135.0" stroke="#FF0000" fill="none" stroke-width="4px" />
<path d="M 1020.0 135.0 L 1030.0 145.0" stroke="#FF0000" fill="none" stroke-width="4px" />
<path d="M 1030.0 145.0 L 1040.0 145.0" stroke="#FF0000" fill="none" stroke-width="4px" />
<path d="M 1040.0 145.0 L 1050.0 145.0" stroke="#FF0000" fill="none" stroke-width="4px" />
<path d="M 1050.0 145.0 L 1060.0 145.0" stroke="#FF0000" fill="none" stroke-width="4px" />
<path d="M 1060.0 145.0 L 1070.0 145.0" stroke="#FF0000" fill="none" stroke-width="4px" />
<path d="M 1070.0 145.0 L 1080.0 145.0" stroke="#FF0000" fill="none" stroke-width="4px" />
<path d="M 1080.0 145.0 L 1090.0 145.0" stroke="#FF0000" fill="none" stroke-width="4px" />
<path d="M 1090.0 145.0 L 1100.0 145.0" stroke="#FF0000" fill="none" stroke-width="4px" />
<path d="M 1100.0 145.0 L 1110.0 145.0" stroke="#FF0000" fill="none" stroke-width="4px" />
<path d="M 1110.0 145.0 L 1100.0 155.0" stroke="#FF0000" fill="none" stroke-width="4px" />
<path d="M 1100.0 155.0 L 1090.0 155.0" stroke="#FF0000" fill="none" stroke-width="4px" />
<path d="M 1090.0 155.0 L 1080.0 155.0" stroke="#FF0000" fill="none" stroke-width="4px" />
<path d="M 1080.0 155.0 L 1070.0 155.0" stroke="#FF0000" fill="none" stroke-width="4px" />
<path d="M 1070.0 155.0 L 1060.0 155.0" stroke="#FF0000" fill="none" stroke-width="4px" />
<path d="M 1060.0 155.0 L 1050.0 155.0" stroke="#FF0000" fill="none" stroke-width="4px" />
<path d="M 1050.0 155.0 L 1040.0 155.0" stroke="#FF0000" fill="none" stroke-width="4px" />
<path d="M 1040.0 155.0 L 1050.0 165.0" stroke="#FF0000" fill="none" stroke-width="4px" />
<path d="M 1050.0 165.0 L 1060.0 165.0" stroke="#FF0000" fill="none" stroke-width="4px" />
<path d="M 1060.0 165.0 L 1070.0 165.0" stroke="#FF0000" fill="none" stroke-width="4px" />
<path d="M 1070.0 165.0 L 1080.0 165.0" stroke="#FF0000" fill="none" stroke-width="4px" />
<path d="M 1080.0 165.0 L 1090.0 165.0" stroke="#FF0000" fill="none" stroke-width="4px" />
<path d="M 1090.0 165.0 L 1080.0 175.0" stroke="#FF0000" fill="none" stroke-width="4px" />
<path d="M 1080.0 175.0 L 1070.0 175.0" stroke="#FF0000" fill="none" stroke-width="4px" />
<path d="M 1070.0 175.0 L 1060.0 175.0" stroke="#FF0000" fill="none" stroke-width="4px" />
<path d="M 1060.0 95.0 L 1050.0 95.0" stroke="#FF0000" fill="none" stroke-width="4px" />
<path d="M 1050.0 95.0 L 1040.0 95.0" stroke="#FF0000" fill="none" stroke-width="4px" />
<path d="M 1040.0 95.0 L 1030.0 95.0" stroke="#FF0000" fill="none" stroke-width="4px" />
<path d="M 1030.0 95.0 L 1040.0 85.0" stroke="#FF0000" fill="none" stroke-width="4px" />
<path d="M 1040.0 85.0 L 1050.0 85.0" stroke="#FF0000" fill="none" stroke-width="4px" />
<path d="M 1050.0 85.0 L 1060.0 85.0" stroke="#FF0000" fill="none" stroke-width="4px" />
<path d="M 1060.0 85.0 L 1070.0 85.0" stroke="#FF0000" fill="none" stroke-width="4px" />
<path d="M 1070.0 85.0 L 1080.0 85.0" stroke="#FF0000" fill="none" stroke-width="4px" />
<path d="M 1080.0 85.0 L 1080.0 95.0" stroke="#FF0000" fill="none" stroke-width="4px" />
<path d="M 1080.0 95.0 L 1070.0 95.0" stroke="#FF0000" fill="none" stroke-width="4px" />
<path d="M 1070.0 95.0 L 1090.0 95.0" stroke="#FF0000" fill="none" stroke-width="4px" />
<path d="M 1070.0 75.0 L 1060.0 75.0" stroke="#FF0000" fill="none" stroke-width="4px" />
<path d="M 1060.0 75.0 L 1050.0 75.0" stroke="#FF0000" fill="none" stroke-width="4px" />
<path d="M 1160.0 115.0 L 1170.0 115.0" stroke="#FF0000" fill="none" stroke-width="4px" />
<path d="M 1170.0 115.0 L 1180.0 115.0" stroke="#FF0000" fill="none" stroke-width="4px" />
<path d="M 1180.0 115.0 L 1190.0 115.0" stroke="#FF0000" fill="none" stroke-width="4px" />
<path d="M 1190.0 115.0 L 1200.0 115.0" stroke="#FF0000" fill="none" stroke-width="4px" />
<path d="M 1200.0 115.0 L 1200.0 125.0" stroke="#FF0000" fill="none" stroke-width="4px" />
<path d="M 1200.0 125.0 L 1190.0 125.0" stroke="#FF0000" fill="none" stroke-width="4px" />
<path d="M 1190.0 125.0 L 1180.0 125.0" stroke="#FF0000" fill="none" stroke-width="4px" />
<path d="M 1180.0 125.0 L 1170.0 125.0" stroke="#FF0000" fill="none" stroke-width="4px" />
<path d="M 1170.0 125.0 L 1160.0 125.0" stroke="#FF0000" fill="none" stroke-width="4px" />
<path d="M 1160.0 125.0 L 1170.0 135.0" stroke="#FF0000" fill="none" stroke-width="4px" />
<path d="M 1170.0 135.0 L 1180.0 135.0" stroke="#FF0000" fill="none" stroke-width="4px" />
<path d="M 1180.0 135.0 L 1190.0 135.0" stroke="#FF0000" fill="none" stroke-width="4px" />
<path d="M 1190.0 135.0 L 1200.0 135.0" stroke="#FF0000" fill="none" stroke-width="4px" />
<path d="M 1200.0 135.0 L 1190.0 145.0" stroke="#FF0000" fill="none" stroke-width="4px" />
<path d="M 1190.0 145.0 L 1180.0 145.0" stroke="#FF0000" fill="none" stroke-width="4px" />
<path d="M 1180.0 105.0 L 1170.0 105.0" stroke="#FF0000" fill="none" stroke-width="4px" />
<path d="M 1170.0 105.0 L 1180.0 95.0" stroke="#FF0000" fill="none" stroke-width="4px" />
<path d="M 1180.0 95.0 L 1190.0 105.0" stroke="#FF0000" fill="none" stroke-width="4px" />
<path d="M 1330.0 135.0 L 1340.0 135.0" stroke="#FF0000" fill="none" stroke-width="4px" />
<path d="M 1340.0 135.0 L 1350.0 135.0" stroke="#FF0000" fill="none" stroke-width="4px" />
<path d="M 1350.0 135.0 L 1360.0 135.0" stroke="#FF0000" fill="none" stroke-width="4px" />
<path d="M 1360.0 135.0 L 1370.0 135.0" stroke="#FF0000" fill="none" stroke-width="4px" />
<path d="M 1370.0 135.0 L 1380.0 135.0" stroke="#FF0000" fill="none" stroke-width="4px" />
<path d="M 1380.0 135.0 L 1390.0 135.0" stroke="#FF0000" fill="none" stroke-width="4px" />
<path d="M 1390.0 135.0 L 1390.0 145.0" stroke="#FF0000" fill="none" stroke-width="4px" />
<path d="M 1390.0 145.0 L 1380.0 145.0" stroke="#FF0000" fill="none" stroke-width="4px" />
<path d="M 1380.0 145.0 L 1370.0 145.0" stroke="#FF0000" fill="none" stroke-width="4px" />
<path d="M 1370.0 145.0 L 1360.0 145.0" stroke="#FF0000" fill="none" stroke-width="4px" />
<path d="M 1360.0 145.0 L 1350.0 145.0" stroke="#FF0000" fill="none" stroke-width="4px" />
<path d="M 1350.0 145.0 L 1340.0 145.0" stroke="#FF0000" fill="none" stroke-width="4px" />
<path d="M 1340.0 145.0 L 1330.0 145.0" stroke="#FF0000" fill="none" stroke-width="4px" />
<path d="M 1330.0 145.0 L 1330.0 155.0" stroke="#FF0000" fill="none" stroke-width="4px" />
<path d="M 1330.0 155.0 L 1340.0 155.0" stroke="#FF0000" fill="none" stroke-width="4px" />
<path d="M 1340.0 155.0 L 1350.0 155.0" stroke="#FF0000" fill="none" stroke-width="4px" />
<path d="M 1350.0 155.0 L 1360.0 155.0" stroke="#FF0000" fill="none" stroke-width="4px" />
<path d="M 1360.0 155.0 L 1370.0 155.0" stroke="#FF0000" fill="none" stroke-width="4px" />
<path d="M 1370.0 155.0 L 1380.0 155.0" stroke="#FF0000" fill="none" stroke-width="4px" />
<path d="M 1380.0 155.0 L 1390.0 155.0" stroke="#FF0000" fill="none" stroke-width="4px" />
<path d="M 1390.0 155.0 L 1380.0 165.0" stroke="#FF0000" fill="none" stroke-width="4px" />
<path d="M 1380.0 165.0 L 1370.0 165.0" stroke="#FF0000" fill="none" stroke-width="4px" />
<path d="M 1370.0 165.0 L 1360.0 165.0" stroke="#FF0000" fill="none" stroke-width="4px" />
<path d="M 1360.0 165.0 L 1350.0 165.0" stroke="#FF0000" fill="none" stroke-width="4px" />
<path d="M 1350.0 165.0 L 1340.0 165.0" stroke="#FF0000" fill="none" stroke-width="4px" />
<path d="M 1340.0 165.0 L 1350.0 175.0" stroke="#FF0000" fill="none" stroke-width="4px" />
<path d="M 1350.0 175.0 L 1360.0 175.0" stroke="#FF0000" fill="none" stroke-width="4px" />
<path d="M 1360.0 125.0 L 1350.0 125.0" stroke="#FF0000" fill="none" stroke-width="4px" />
<path d="M 1350.0 125.0 L 1340.0 125.0" stroke="#FF0000" fill="none" stroke-width="4px" />
<path d="M 1340.0 125.0 L 1350.0 115.0" stroke="#FF0000" fill="none" stroke-width="4px" />
<path d="M 1350.0 115.0 L 1360.0 115.0" stroke="#FF0000" fill="none" stroke-width="4px" />
<path d="M 1360.0 115.0 L 1370.0 125.0" stroke="#FF0000" fill="none" stroke-width="4px" />
<path d="M 1370.0 125.0 L 1380.0 125.0" stroke="#FF0000" fill="none" stroke-width="4px" />
<path d="M 1600.0 105.0 L 1610.0 105.0" stroke="#FF0000" fill="none" stroke-width="4px" />
<path d="M 1610.0 105.0 L 1620.0 105.0" stroke="#FF0000" fill="none" stroke-width="4px" />
<path d="M 1620.0 105.0 L 1630.0 105.0" stroke="#FF0000" fill="none" stroke-width="4px" />
<path d="M 1630.0 105.0 L 1640.0 105.0" stroke="#FF0000" fill="none" stroke-width="4px" />
<path d="M 1640.0 105.0 L 1650.0 105.0" stroke="#FF0000" fill="none" stroke-width="4px" />
<path d="M 1650.0 105.0 L 1650.0 115.0" stroke="#FF0000" fill="none" stroke-width="4px" />
<path d="M 1650.0 115.0 L 1640.0 115.0" stroke="#FF0000" fill="none" stroke-width="4px" />
<path d="M 1640.0 115.0 L 1630.0 115.0" stroke="#FF0000" fill="none" stroke-width="4px" />
<path d="M 1630.0 115.0 L 1620.0 115.0" stroke="#FF0000" fill="none" stroke-width="4px" />
<path d="M 1620.0 115.0 L 1610.0 115.0" stroke="#FF0000" fill="none" stroke-width="4px" />
<path d="M 1610.0 115.0 L 1620.0 125.0" stroke="#FF0000" fill="none" stroke-width="4px" />
<path d="M 1620.0 125.0 L 1630.0 125.0" stroke="#FF0000" fill="none" stroke-width="4px" />
<path d="M 1630.0 125.0 L 1640.0 125.0" stroke="#FF0000" fill="none" stroke-width="4px" />
<path d="M 1640.0 125.0 L 1650.0 125.0" stroke="#FF0000" fill="none" stroke-width="4px" />
<path d="M 1650.0 125.0 L 1640.0 135.0" stroke="#FF0000" fill="none" stroke-width="4px" />
<path d="M 1640.0 135.0 L 1630.0 135.0" stroke="#FF0000" fill="none" stroke-width="4px" />
<path d="M 1630.0 95.0 L 1620.0 95.0" stroke="#FF0000" fill="none" stroke-width="4px" />
<path d="M 1620.0 95.0 L 1610.0 95.0" stroke="#FF0000" fill="none" stroke-width="4px" />
<path d="M 1610.0 95.0 L 1600.0 95.0" stroke="#FF0000" fill="none" stroke-width="4px" />
<path d="M 1600.0 95.0 L 1610.0 85.0" stroke="#FF0000" fill="none" stroke-width="4px" />
<path d="M 1610.0 85.0 L 1620.0 85.0" stroke="#FF0000" fill="none" stroke-width="4px" />
<path d="M 1620.0 85.0 L 1630.0 85.0" stroke="#FF0000" fill="none" stroke-width="4px" />
<path d="M 1630.0 85.0 L 1640.0 85.0" stroke="#FF0000" fill="none" stroke-width="4px" />
<path d="M 1640.0 85.0 L 1640.0 95.0" stroke="#FF0000" fill="none" stroke-width="4px" />
<path d="M 1640.0 95.0 L 1650.0 95.0" stroke="#FF0000" fill="none" stroke-width="4px" />
</svg>