<svg width="1332.95833333" height="235.0" xmlns="http://www.w3.org/2000/svg" version="1.1">
<path d="M 0.0 235.0 L 1332.95833333 235.0 L 1332.95833333 0.0 L 0.0 0.0 L 0.0 235.0" stroke="#000000" fill="none" stroke-width="3px" />
<path d="M 10.0 257.5 L 0.0 247.5 L 10.0 237.5" stroke="#969696" fill="none" stroke-width="1px" />
<path d="M 10.0 237.5 L 1322.95833333 237.5" stroke="#969696" fill="none" stroke-width="1px" />
<path d="M 1322.95833333 237.5 L 1332.95833333 227.5 L 1322.95833333 217.5" stroke="#969696" fill="none" stroke-width="1px" />
<path d="M 1322.95833333 217.5 L 10.0 217.5" stroke="#969696" fill="none" stroke-width="1px" />
<path d="M 10.0 217.5 L 0.0 207.5 L 10.0 197.5" stroke="#969696" fill="none" stroke-width="1px" />
<path d="M 10.0 197.5 L 1322.95833333 197.5" stroke="#969696" fill="none" stroke-width="1px" />
<path d="M 1322.95833333 197.5 L 1332.95833333 187.5 L 1322.95833333 177.5" stroke="#969696" fill="none" stroke-width="1px" />
<path d="M 1322.95833333 177.5 L 10.0 177.5" stroke="#969696" fill="none" stroke-width="1px" />
<path d="M 10.0 177.5 L 0.0 167.5 L 10.0 157.5" stroke="#969696" fill="none" stroke-width="1px" />
<path d="M 10.0 157.5 L 1322.95833333 157.5" stroke="#969696" fill="none" stroke-width="1px" />
<path d="M 1322.95833333 157.5 L 1332.95833333 147.5 L 1322.95833333 137.5" stroke="#969696" fill="none" stroke-width="1px" />
<path d="M 1322.95833333 137.5 L 10.0 137.5" stroke="#969696" fill="none" stroke-width="1px" />
<path d="M 10.0 137.5 L 0.0 127.5 L 10.0 117.5" stroke="#969696" fill="none" stroke-width="1px" />
<path d="M 10.0 117.5 L 1322.95833333 117.5" stroke="#969696" fill="none" stroke-width="1px" />
<path d="M 1322.95833333 117.5 L 1332.95833333 107.5 L 1322.95833333 97.5" stroke="#969696" fill="none" stroke-width="1px" />
<path d="M 1322.95833333 97.5 L 10.0 97.5" stroke="#969696" fill="none" stroke-width="1px" />
<path d="M 10.0 97.5 L 0.0 87.5 L 10.0 77.5" stroke="#969696" fill="none" stroke-width="1px" />
<path d="M 10.0 77.5 L 1322.95833333 77.5" stroke="#969696" fill="none" stroke-width="1px" />
<path d="M 1322.95833333 77.5 L 1332.95833333 67.5 L 1322.95833333 57.5" stroke="#969696" fill="none" stroke-width="1px" />
<path d="M 1322.95833333 57.5 L 10.0 57.5" stroke="#969696" fill="none" stroke-width="1px" />
<path d="M 10.0 57.5 L 0.0 47.5 L 10.0 37.5" stroke="#969696" fill="none" stroke-width="1px" />
<path d="M 10.0 37.5 L 1322.95833333 37.5" stroke="#969696" fill="none" stroke-width="1px" />
<path d="M 1322.95833333 37.5 L 1332.95833333 27.5 L 1322.95833333 17.5" stroke="#969696" fill="none" stroke-width="1px" />
<path d="M 1322.95833333 17.5 L 10.0 17.5" stroke="#969696" fill="none" stroke-width="1px" />
<path d="M 10.0 17.5 L 0.0 7.5 L 10.0 -2.5" stroke="#969696" fill="none" stroke-width="1px" />
<path d="M 10.0 -2.5 L 1322.95833333 -2.5" stroke="#969696" fill="none" stroke-width="1px" />
<path d="M 1322.95833333 -2.5 L 1332.95833333 -12.5 L 1322.95833333 -22.5" stroke="#969696" fill="none" stroke-width="1px" />
<path d="M 60.0 165.0 L 60.0 145.0" stroke="#0095FF" fill="none" stroke-width="2px" />
<path d="M 70.0 145.0 L 70.0 125.0" stroke="#0095FF" fill="none" stroke-width="2px" />
<path d="M 80.0 125.0 L 60.0 105.0" stroke="#0095FF" fill="none" stroke-width="2px" />
<path d="M 10.0 105.0 L 30.0 205.0" stroke="#0095FF" fill="none" stroke-width="2px" />
<path d="M 30.0 205.0 L 470.0 205.0" stroke="#0095FF" fill="none" stroke-width="2px" />
<path d="M 500.0 235.0 L 500.0 195.0" stroke="#0095FF" fill="none" stroke-width="2px" />
<path d="M 510.0 195.0 L 510.0 125.0" stroke="#0095FF" fill="none" stroke-width="2px" />
<path d="M 520.0 115.0 L 520.0 85.0" stroke="#0095FF" fill="none" stroke-width="2px" />
<path d="M 510.0 75.0 L 710.0 125.0" stroke="#0095FF" fill="none" stroke-width="2px" />
<path d="M 740.0 175.0 L 780.0 135.0" stroke="#0095FF" fill="none" stroke-width="2px" />
<path d="M 780.0 135.0 L 760.0 115.0" stroke="#0095FF" fill="none" stroke-width="2px" />
<path d="M 750.0 105.0 L 940.0 85.0" stroke="#0095FF" fill="none" stroke-width="2px" />
<path d="M 960.0 35.0 L 960.0 95.0" stroke="#0095FF" fill="none" stroke-width="2px" />
<path d="M 0.0 235.0 L 10.0 225.0" stroke="#FF0000" fill="none" stroke-width="4px" />
<path d="M 10.0 225.0 L 10.0 215.0" stroke="#FF0000" fill="none" stroke-width="4px" />
<path d="M 10.0 215.0 L 20.0 215.0" stroke="#FF0000" fill="none" stroke-width="4px" />
<path d="M 20.0 215.0 L 20.0 205.0" stroke="#FF0000" fill="none" stroke-width="4px" />
<path d="M 20.0 205.0 L 10.0 205.0" stroke="#FF0000" fill="none" stroke-width="4px" />
<path d="M 10.0 205.0 L 10.0 195.0" stroke="#FF0000" fill="none" stroke-width="4px" />
<path d="M 10.0 195.0 L 20.0 195.0" stroke="#FF0000" fill="none" stroke-width="4px" />
<path d="M 20.0 195.0 L 30.0 195.0" stroke="#FF0000" fill="none" stroke-width="4px" />
<path d="M 30.0 195.0 L 40.0 195.0" stroke="#FF0000" fill="none" stroke-width="4px" />
<path d="M 40.0 195.0 L 40.0 185.0" stroke="#FF0000" fill="none" stroke-width="4px" />
<path d="M 40.0 185.0 L 30.0 185.0" stroke="#FF0000" fill="none" stroke-width="4px" />
<path d="M 30.0 185.0 L 20.0 185.0" stroke="#FF0000" fill="none" stroke-width="4px" />
<path d="M 20.0 185.0 L 10.0 185.0" stroke="#FF0000" fill="none" stroke-width="4px" />
<path d="M 10.0 185.0 L 10.0 175.0" stroke="#FF0000" fill="none" stroke-width="4px" />
<path d="M 10.0 175.0 L 20.0 175.0" stroke="#FF0000" fill="none" stroke-width="4px" />
<path d="M 20.0 175.0 L 30.0 175.0" stroke="#FF0000" fill="none" stroke-width="4px" />
<path d="M 30.0 175.0 L 40.0 175.0" stroke="#FF0000" fill="none" stroke-width="4px" />
<path d="M 40.0 175.0 L 50.0 175.0" stroke="#FF0000" fill="none" stroke-width="4px" />
<path d="M 50.0 175.0 L 50.0 165.0" stroke="#FF0000" fill="none" stroke-width="4px" />
<path d="M 50.0 165.0 L 40.0 165.0" stroke="#FF0000" fill="none" stroke-width="4px" />
<path d="M 40.0 165.0 L 30.0 165.0" stroke="#FF0000" fill="none" stroke-width="4px" />
<path d="M 30.0 165.0 L 20.0 165.0" stroke="#FF0000" fill="none" stroke-width="4px" />
<path d="M 20.0 165.0 L 10.0 165.0" stroke="#FF0000" fill="none" stroke-width="4px" />
<path d="M 10.0 165.0 L 10.0 155.0" stroke="#FF0000" fill="none" stroke-width="4px" />
<path d="M 10.0 155.0 L 20.0 155.0" stroke="#FF0000" fill="none" stroke-width="4px" />
<path d="M 20.0 155.0 L 30.0 155.0" stroke="#FF0000" fill="none" stroke-width="4px" />
<path d="M 30.0 155.0 L 40.0 155.0" stroke="#FF0000" fill="none" stroke-width="4px" />
<path d="M 40.0 155.0 L 50.0 155.0" stroke="#FF0000" fill="none" stroke-width="4px" />
<path d="M 50.0 155.0 L 60.0 155.0" stroke="#FF0000" fill="none" stroke-width="4px" />
<path d="M 60.0 155.0 L 60.0 165.0" stroke="#FF0000" fill="none" stroke-width="4px" />
<path d="M 60.0 145.0 L 50.0 145.0" stroke="#FF0000" fill="none" stroke-width="4px" />
<path d="M 50.0 145.0 L 40.0 145.0" stroke="#FF0000" fill="none" stroke-width="4px" />
<path d="M 40.0 145.0 L 30.0 145.0" stroke="#FF0000" fill="none" stroke-width="4px" />
<path d="M 30.0 145.0 L 20.0 145.0" stroke="#FF0000" fill="none" stroke-width="4px" />
<path d="M 20.0 145.0 L 10.0 145.0" stroke="#FF0000" fill="none" stroke-width="4px" />
<path d="M 10.0 145.0 L 10.0 135.0" stroke="#FF0000" fill="none" stroke-width="4px" />
<path d="M 10.0 135.0 L 20.0 135.0" stroke="#FF0000" fill="none" stroke-width="4px" />
<path d="M 20.0 135.0 L 30.0 135.0" stroke="#FF0000" fill="none" stroke-width="4px" />
<path d="M 30.0 135.0 L 40.0 135.0" stroke="#FF0000" fill="none" stroke-width="4px" />
<path d="M 40.0 135.0 L 50.0 135.0" stroke="#FF0000" fill="none" stroke-width="4px" />
<path d="M 50.0 135.0 L 60.0 135.0" stroke="#FF0000" fill="none" stroke-width="4px" />
<path d="M 60.0 135.0 L 70.0 135.0" stroke="#FF0000" fill="none" stroke-width="4px" />
<path d="M 70.0 135.0 L 70.0 145.0" stroke="#FF0000" fill="none" stroke-width="4px" />
<path d="M 70.0 125.0 L 60.0 125.0" stroke="#FF0000" fill="none" stroke-width="4px" />
<path d="M 60.0 125.0 L 50.0 125.0" stroke="#FF0000" fill="none" stroke-width="4px" />
<path d="M 50.0 125.0 L 40.0 125.0" stroke="#FF0000" fill="none" stroke-width="4px" />
<path d="M 40.0 125.0 L 30.0 125.0" stroke="#FF0000" fill="none" stroke-width="4px" />
<path d="M 30.0 125.0 L 20.0 125.0" stroke="#FF0000" fill="none" stroke-width="4px" />
<path d="M 20.0 125.0 L 10.0 125.0" stroke="#FF0000" fill="none" stroke-width="4px" />
<path d="M 10.0 125.0 L 10.0 115.0" stroke="#FF0000" fill="none" stroke-width="4px" />
<path d="M 10.0 115.0 L 20.0 115.0" stroke="#FF0000" fill="none" stroke-width="4px" />
<path d="M 20.0 115.0 L 30.0 115.0" stroke="#FF0000" fill="none" stroke-width="4px" />
<path d="M 30.0 115.0 L 40.0 115.0" stroke="#FF0000" fill="none" stroke-width="4px" />
<path d="M 40.0 115.0 L 50.0 115.0" stroke="#FF0000" fill="none" stroke-width="4px" />
<path d="M 50.0 115.0 L 60.0 115.0" stroke="#FF0000" fill="none" stroke-width="4px" />
<path d="M 60.0 115.0 L 70.0 115.0" stroke="#FF0000" fill="none" stroke-width="4px" />
<path d="M 70.0 115.0 L 80.0 125.0" stroke="#FF0000" fill="none" stroke-width="4px" />
<path d="M 60.0 105.0 L 50.0 105.0" stroke="#FF0000" fill="none" stroke-width="4px" />
<path d="M 50.0 105.0 L 40.0 105.0" stroke="#FF0000" fill="none" stroke-width="4px" />
<path d="M 40.0 105.0 L 30.0 105.0" stroke="#FF0000" fill="none" stroke-width="4px" />
<path d="M 30.0 105.0 L 10.0 105.0" stroke="#FF0000" fill="none" stroke-width="4px" />
<path d="M 470.0 205.0 L 480.0 205.0" stroke="#FF0000" fill="none" stroke-width="4px" />
<path d="M 480.0 205.0 L 490.0 205.0" stroke="#FF0000" fill="none" stroke-width="4px" />
<path d="M 490.0 205.0 L 500.0 205.0" stroke="#FF0000" fill="none" stroke-width="4px" />
<path d="M 500.0 205.0 L 510.0 205.0" stroke="#FF0000" fill="none" stroke-width="4px" />
<path d="M 510.0 205.0 L 510.0 215.0" stroke="#FF0000" fill="none" stroke-width="4px" />
<path d="M 510.0 215.0 L 500.0 215.0" stroke="#FF0000" fill="none" stroke-width="4px" />
<path d="M 500.0 215.0 L 490.0 215.0" stroke="#FF0000" fill="none" stroke-width="4px" />
<path d="M 490.0 215.0 L 480.0 215.0" stroke="#FF0000" fill="none" stroke-width="4px" />
<path d="M 480.0 215.0 L 490.0 225.0" stroke="#FF0000" fill="none" stroke-width="4px" />
<path d="M 490.0 225.0 L 500.0 225.0" stroke="#FF0000" fill="none" stroke-width="4px" />
<path d="M 500.0 225.0 L 510.0 225.0" stroke="#FF0000" fill="none" stroke-width="4px" />
<path d="M 510.0 225.0 L 500.0 235.0" stroke="#FF0000" fill="none" stroke-width="4px" />
<path d="M 500.0 195.0 L 490.0 195.0" stroke="#FF0000" fill="none" stroke-width="4px" />
<path d="M 490.0 195.0 L 480.0 195.0" stroke="#FF0000" fill="none" stroke-width="4px" />
<path d="M 480.0 195.0 L 470.0 195.0" stroke="#FF0000" fill="none" stroke-width="4px" />
<path d="M 470.0 195.0 L 480.0 185.0" stroke="#FF0000" fill="none" stroke-width="4px" />
<path d="M 480.0 185.0 L 490.0 185.0" stroke="#FF0000" fill="none" stroke-width="4px" />
<path d="M 490.0 185.0 L 500.0 185.0" stroke="#FF0000" fill="none" stroke-width="4px" />
<path d="M 500.0 185.0 L 510.0 195.0" stroke="#FF0000" fill="none" stroke-width="4px" />
<path d="M 510.0 125.0 L 510.0 115.0" stroke="#FF0000" fill="none" stroke-width="4px" />
<path d="M 510.0 115.0 L 500.0 115.0" stroke="#FF0000" fill="none" stroke-width="4px" />
<path d="M 500.0 115.0 L 500.0 105.0" stroke="#FF0000" fill="none" stroke-width="4px" />
<path d="M 500.0 105.0 L 490.0 105.0" stroke="#FF0000" fill="none" stroke-width="4px" />
<path d="M 490.0 105.0 L 490.0 95.0" stroke="#FF0000" fill="none" stroke-width="4px" />
<path d="M 490.0 95.0 L 500.0 95.0" stroke="#FF0000" fill="none" stroke-width="4px" />
<path d="M 500.0 95.0 L 510.0 95.0" stroke="#FF0000" fill="none" stroke-width="4px" />
<path d="M 510.0 95.0 L 520.0 95.0" stroke="#FF0000" fill="none" stroke-width="4px" />
<path d="M 520.0 95.0 L 530.0 95.0" stroke="#FF0000" fill="none" stroke-width="4px" />
<path d="M 530.0 95.0 L 530.0 105.0" stroke="#FF0000" fill="none" stroke-width="4px" />
<path d="M 530.0 105.0 L 520.0 105.0" stroke="#FF0000" fill="none" stroke-width="4px" />
<path d="M 520.0 105.0 L 510.0 105.0" stroke="#FF0000" fill="none" stroke-width="4px" />
<path d="M 510.0 105.0 L 520.0 115.0" stroke="#FF0000" fill="none" stroke-width="4px" />
<path d="M 520.0 85.0 L 510.0 85.0" stroke="#FF0000" fill="none" stroke-width="4px" />
<path d="M 510.0 85.0 L 500.0 85.0" stroke="#FF0000" fill="none" stroke-width="4px" />
<path d="M 500.0 85.0 L 490.0 85.0" stroke="#FF0000" fill="none" stroke-width="4px" />
<path d="M 490.0 85.0 L 500.0 75.0" stroke="#FF0000" fill="none" stroke-width="4px" />
<path d="M 500.0 75.0 L 510.0 75.0" stroke="#FF0000" fill="none" stroke-width="4px" />
<path d="M 710.0 125.0 L 720.0 125.0" stroke="#FF0000" fill="none" stroke-width="4px" />
<path d="M 720.0 125.0 L 730.0 125.0" stroke="#FF0000" fill="none" stroke-width="4px" />
<path d="M 730.0 125.0 L 740.0 125.0" stroke="#FF0000" fill="none" stroke-width="4px" />
<path d="M 740.0 125.0 L 750.0 125.0" stroke="#FF0000" fill="none" stroke-width="4px" />
<path d="M 750.0 125.0 L 760.0 125.0" stroke="#FF0000" fill="none" stroke-width="4px" />
<path d="M 760.0 125.0 L 770.0 125.0" stroke="#FF0000" fill="none" stroke-width="4px" />
<path d="M 770.0 125.0 L 770.0 135.0" stroke="#FF0000" fill="none" stroke-width="4px" />
<path d="M 770.0 135.0 L 760.0 135.0" stroke="#FF0000" fill="none" stroke-width="4px" />
<path d="M 760.0 135.0 L 750.0 135.0" stroke="#FF0000" fill="none" stroke-width="4px" />
<path d="M 750.0 135.0 L 740.0 135.0" stroke="#FF0000" fill="none" stroke-width="4px" />
<path d="M 740.0 135.0 L 730.0 135.0" stroke="#FF0000" fill="none" stroke-width="4px" />
<path d="M 730.0 135.0 L 720.0 135.0" stroke="#FF0000" fill="none" stroke-width="4px" />
<path d="M 720.0 135.0 L 710.0 135.0" stroke="#FF0000" fill="none" stroke-width="4px" />
<path d="M 710.0 135.0 L 720.0 145.0" stroke="#FF0000" fill="none" stroke-width="4px" />
<path d="M 720.0 145.0 L 730.0 145.0" stroke="#FF0000" fill="none" stroke-width="4px" />
<path d="M 730.0 145.0 L 740.0 145.0" stroke="#FF0000" fill="none" stroke-width="4px" />
<path d="M 740.0 145.0 L 750.0 145.0" stroke="#FF0000" fill="none" stroke-width="4px" />
<path d="M 750.0 145.0 L 760.0 145.0" stroke="#FF0000" fill="none" stroke-width="4px" />
<path d="M 760.0 145.0 L 770.0 145.0" stroke="#FF0000" fill="none" stroke-width="4px" />
<path d="M 770.0 145.0 L 780.0 145.0" stroke="#FF0000" fill="none" stroke-width="4px" />
<path d="M 780.0 145.0 L 780.0 155.0" stroke="#FF0000" fill="none" stroke-width="4px" />
<path d="M 780.0 155.0 L 770.0 155.0" stroke="#FF0000" fill="none" stroke-width="4px" />
<path d="M 770.0 155.0 L 760.0 155.0" stroke="#FF0000" fill="none" stroke-width="4px" />
<path d="M 760.0 155.0 L 750.0 155.0" stroke="#FF0000" fill="none" stroke-width="4px" />
<path d="M 750.0 155.0 L 740.0 155.0" stroke="#FF0000" fill="none" stroke-width="4px" />
<path d="M 740.0 155.0 L 730.0 155.0" stroke="#FF0000" fill="none" stroke-width="4px" />
<path d="M 730.0 155.0 L 730.0 165.0" stroke="#FF0000" fill="none" stroke-width="4px" />
<path d="M 730.0 165.0 L 740.0 165.0" stroke="#FF0000" fill="none" stroke-width="4px" />
<path d="M 740.0 165.0 L 750.0 165.0" stroke="#FF0000" fill="none" stroke-width="4px" />
<path d="M 750.0 165.0 L 760.0 165.0" stroke="#FF0000" fill="none" stroke-width="4px" />
<path d="M 760.0 165.0 L 770.0 165.0" stroke="#FF0000" fill="none" stroke-width="4px" />
<path d="M 770.0 165.0 L 760.0 175.0" stroke="#FF0000" fill="none" stroke-width="4px" />
<path d="M 760.0 175.0 L 750.0 175.0" stroke="#FF0000" fill="none" stroke-width="4px" />
<path d="M 750.0 175.0 L 740.0 175.0" stroke="#FF0000" fill="none" stroke-width="4px" />
<path d="M 760.0 115.0 L 750.0 115.0" stroke="#FF0000" fill="none" stroke-width="4px" />
<path d="M 750.0 115.0 L 740.0 115.0" stroke="#FF0000" fill="none" stroke-width="4px" />
<path d="M 740.0 115.0 L 730.0 115.0" stroke="#FF0000" fill="none" stroke-width="4px" />
<path d="M 730.0 115.0 L 720.0 115.0" stroke="#FF0000" fill="none" stroke-width="4px" />
<path d="M 720.0 115.0 L 730.0 105.0" stroke="#FF0000" fill="none" stroke-width="4px" />
<path d="M 730.0 105.0 L 740.0 105.0" stroke="#FF0000" fill="none" stroke-width="4px" />
<path d="M 740.0 105.0 L 750.0 105.0" stroke="#FF0000" fill="none" stroke-width="4px" />
<path d="M 940.0 85.0 L 950.0 85.0" stroke="#FF0000" fill="none" stroke-width="4px" />
<path d="M 950.0 85.0 L 960.0 85.0" stroke="#FF0000" fill="none" stroke-width="4px" />
<path d="M 960.0 85.0 L 970.0 85.0" stroke="#FF0000" fill="none" stroke-width="4px" />
<path d="M 970.0 85.0 L 980.0 85.0" stroke="#FF0000" fill="none" stroke-width="4px" />
<path d="M 980.0 85.0 L 990.0 85.0" stroke="#FF0000" fill="none" stroke-width="4px" />
<path d="M 990.0 85.0 L 1000.0 85.0" stroke="#FF0000" fill="none" stroke-width="4px" />
<path d="M 1000.0 85.0 L 1000.0 75.0" stroke="#FF0000" fill="none" stroke-width="4px" />
<path d="M 1000.0 75.0 L 990.0 75.0" stroke="#FF0000" fill="none" stroke-width="4px" />
<path d="M 990.0 75.0 L 980.0 75.0" stroke="#FF0000" fill="none" stroke-width="4px" />
<path d="M 980.0 75.0 L 970.0 75.0" stroke="#FF0000" fill="none" stroke-width="4px" />
<path d="M 970.0 75.0 L 960.0 75.0" stroke="#FF0000" fill="none" stroke-width="4px" />
<path d="M 960.0 75.0 L 950.0 75.0" stroke="#FF0000" fill="none" stroke-width="4px" />
<path d="M 950.0 75.0 L 940.0 75.0" stroke="#FF0000" fill="none" stroke-width="4px" />
<path d="M 940.0 75.0 L 940.0 65.0" stroke="#FF0000" fill="none" stroke-width="4px" />
<path d="M 940.0 65.0 L 950.0 65.0" stroke="#FF0000" fill="none" stroke-width="4px" />
<path d="M 950.0 65.0 L 960.0 65.0" stroke="#FF0000" fill="none" stroke-width="4px" />
<path d="M 960.0 65.0 L 970.0 65.0" stroke="#FF0000" fill="none" stroke-width="4px" />
<path d="M 970.0 65.0 L 980.0 65.0" stroke="#FF0000" fill="none" stroke-width="4px" />
<path d="M 980.0 65.0 L 990.0 65.0" stroke="#FF0000" fill="none" stroke-width="4px" />
<path d="M 990.0 65.0 L 1000.0 65.0" stroke="#FF0000" fill="none" stroke-width="4px" />
<path d="M 1000.0 65.0 L 990.0 55.0" stroke="#FF0000" fill="none" stroke-width="4px" />
<path d="M 990.0 55.0 L 980.0 55.0" stroke="#FF0000" fill="none" stroke-width="4px" />
<path d="M 980.0 55.0 L 970.0 55.0" stroke="#FF0000" fill="none" stroke-width="4px" />
<path d="M 970.0 55.0 L 960.0 55.0" stroke="#FF0000" fill="none" stroke-width="4px" />
<path d="M 960.0 55.0 L 950.0 55.0" stroke="#FF0000" fill="none" stroke-width="4px" />
<path d="M 950.0 55.0 L 940.0 55.0" stroke="#FF0000" fill="none" stroke-width="4px" />
<path d="M 940.0 55.0 L 950.0 45.0" stroke="#FF0000" fill="none" stroke-width="4px" />
<path d="M 950.0 45.0 L 960.0 45.0" stroke="#FF0000" fill="none" stroke-width="4px" />
<path d="M 960.0 45.0 L 970.0 45.0" stroke="#FF0000" fill="none" stroke-width="4px" />
<path d="M 970.0 45.0 L 980.0 45.0" stroke="#FF0000" fill="none" stroke-width="4px" />
<path d="M 980.0 45.0 L 970.0 35.0" stroke="#FF0000" fill="none" stroke-width="4px" />
<path d="M 970.0 35.0 L 960.0 35.0" stroke="#FF0000" fill="none" stroke-width="4px" />
<path d="M 960.0 95.0 L 950.0 95.0" stroke="#FF0000" fill="none" stroke-width="4px" />
<path d="M 950.0 95.0 L 960.0 105.0" stroke="#FF0000" fill="none" stroke-width="4px" />
<path d="M 960.0 105.0 L 970.0 105.0" stroke="#FF0000" fill="none" stroke-width="4px" />
<path d="M 970.0 105.0 L 980.0 105.0" stroke="#FF0000" fill="none" stroke-width="4px" />
<path d="M 980.0 105.0 L 980.0 95.0" stroke="#FF0000" fill="none" stroke-width="4px" />
<path d="M 980.0 95.0 L 970.0 95.0" stroke="#FF0000" fill="none" stroke-width="4px" />
<path d="M 970.0 95.0 L 990.0 95.0" stroke="#FF0000" fill="none" stroke-width="4px" />
</svg>