<svg width="1332.95833333" height="235.0" xmlns="http://www.w3.org/2000/svg" version="1.1">
<path d="M 0.0 235.0 L 1332.95833333 235.0 L 1332.95833333 0.0 L 0.0 0.0 L 0.0 235.0" stroke="#000000" fill="none" stroke-width="3px" />
<path d="M 10.0 257.5 L 0.0 247.5 L 10.0 237.5" stroke="#969696" fill="none" stroke-width="1px" />
<path d="M 10.0 237.5 L 1322.95833333 237.5" stroke="#969696" fill="none" stroke-width="1px" />
<path d="M 1322.95833333 237.5 L 1332.95833333 227.5 L 1322.95833333 217.5" stroke="#969696" fill="none" stroke-width="1px" />
<path d="M 1322.95833333 217.5 L 10.0 217.5" stroke="#969696" fill="none" stroke-width="1px" />
<path d="M 10.0 217.5 L 0.0 207.5 L 10.0 197.5" stroke="#969696" fill="none" stroke-width="1px" />
<path d="M 10.0 197.5 L 1322.95833333 197.5" stroke="#969696" fill="none" stroke-width="1px" />
<path d="M 1322.95833333 197.5 L 1332.95833333 187.5 L 1322.95833333 177.5" stroke="#969696" fill="none" stroke-width="1px" />
<path d="M 1322.95833333 177.5 L 10.0 177.5" stroke="#969696" fill="none" stroke-width="1px" />
<path d="M 10.0 177.5 L 0.0 167.5 L 10.0 157.5" stroke="#969696" fill="none" stroke-width="1px" />
<path d="M 10.0 157.5 L 1322.95833333 157.5" stroke="#969696" fill="none" stroke-width="1px" />
<path d="M 1322.95833333 157.5 L 1332.95833333 147.5 L 1322.95833333 137.5" stroke="#969696" fill="none" stroke-width="1px" />
<path d="M 1322.95833333 137.5 L 10.0 137.5" stroke="#969696" fill="none" stroke-width="1px" />
<path d="M 10.0 137.5 L 0.0 127.5 L 10.0 117.5" stroke="#969696" fill="none" stroke-width="1px" />
<path d="M 10.0 117.5 L 1322.95833333 117.5" stroke="#969696" fill="none" stroke-width="1px" />
<path d="M 1322.95833333 117.5 L 1332.95833333 107.5 L 1322.95833333 97.5" stroke="#969696" fill="none" stroke-width="1px" />
<path d="M 1322.95833333 97.5 L 10.0 97.5" stroke="#969696" fill="none" stroke-width="1px" />
<path d="M 10.0 97.5 L 0.0 87.5 L 10.0 77.5" stroke="#969696" fill="none" stroke-width="1px" />
<path d="M 10.0 77.5 L 1322.95833333 77.5" stroke="#969696" fill="none" stroke-width="1px" />
<path d="M 1322.95833333 77.5 L 1332.95833333 67.5 L 1322.95833333 57.5" stroke="#969696" fill="none" stroke-width="1px" />
<path d="M 1322.95833333 57.5 L 10.0 57.5" stroke="#969696" fill="none" stroke-width="1px" />
<path d="M 10.0 57.5 L 0.0 47.5 L 10.0 37.5" stroke="#969696" fill="none" stroke-width="1px" />
<path d="M 10.0 37.5 L 1322.95833333 37.5" stroke="#969696" fill="none" stroke-width="1px" />
<path d="M 1322.95833333 37.5 L 1332.95833333 27.5 L 1322.95833333 17.5" stroke="#969696" fill="none" stroke-width="1px" />
<path d="M 1322.95833333 17.5 L 10.0 17.5" stroke="#969696" fill="none" stroke-width="1px" />
<path d="M 10.0 17.5 L 0.0 7.5 L 10.0 -2.5" stroke="#969696" fill="none" stroke-width="1px" />
<path d="M 10.0 -2.5 L 1322.95833333 -2.5" stroke="#969696" fill="none" stroke-width="1px" />
<path d="M 1322.95833333 -2.5 L 1332.95833333 -12.5 L 1322.95833333 -22.5" stroke="#969696" fill="none" stroke-width="1px" />
<path d="M 0.0 235.0 L 260.0 235.0" stroke="#0095FF" fill="none" stroke-width="2px" />
<path d="M 260.0 235.0 L 260.0 155.0" stroke="#0095FF" fill="none" stroke-width="2px" />
<path d="M 320.0 145.0 L 300.0 145.0" stroke="#0095FF" fill="none" stroke-width="2px" />
<path d="M 300.0 145.0 L 300.0 165.0" stroke="#0095FF" fill="none" stroke-width="2px" />
<path d="M 290.0 175.0 L 290.0 125.0" stroke="#0095FF" fill="none" stroke-width="2px" />
<path d="M 280.0 115.0 L 300.0 115.0" stroke="#0095FF" fill="none" stroke-width="2px" />
<path d="M 300.0 115.0 L 300.0 125.0" stroke="#0095FF" fill="none" stroke-width="2px" />
<path d="M 300.0 125.0 L 430.0 125.0" stroke="#0095FF" fill="none" stroke-width="2px" />
<path d="M 430.0 125.0 L 430.0 135.0" stroke="#0095FF" fill="none" stroke-width="2px" />
<path d="M 450.0 165.0 L 480.0 165.0" stroke="#0095FF" fill="none" stroke-width="2px" />
<path d="M 480.0 165.0 L 480.0 145.0" stroke="#0095FF" fill="none" stroke-width="2px" />
<path d="M 480.0 145.0 L 460.0 145.0" stroke="#0095FF" fill="none" stroke-width="2px" />
<path d="M 460.0 145.0 L 460.0 125.0" stroke="#0095FF" fill="none" stroke-width="2px" />
<path d="M 450.0 115.0 L 900.0 115.0" stroke="#0095FF" fill="none" stroke-width="2px" />
<path d="M 900.0 115.0 L 900.0 125.0" stroke="#0095FF" fill="none" stroke-width="2px" />
<path d="M 990.0 175.0 L 940.0 175.0" stroke="#0095FF" fill="none" stroke-width="2px" />
<path d="M 940.0 175.0 L 940.0 155.0" stroke="#0095FF" fill="none" stroke-width="2px" />
<path d="M 920.0 155.0 L 920.0 115.0" stroke="#0095FF" fill="none" stroke-width="2px" />
<path d="M 980.0 115.0 L 1000.0 115.0" stroke="#0095FF" fill="none" stroke-width="2px" />
<path d="M 1000.0 115.0 L 1000.0 135.0" stroke="#0095FF" fill="none" stroke-width="2px" />
<path d="M 260.0 155.0 L 270.0 155.0" stroke="#FF0000" fill="none" stroke-width="4px" />
<path d="M 270.0 155.0 L 280.0 155.0" stroke="#FF0000" fill="none" stroke-width="4px" />
<path d="M 280.0 155.0 L 290.0 155.0" stroke="#FF0000" fill="none" stroke-width="4px" />
<path d="M 290.0 155.0 L 300.0 155.0" stroke="#FF0000" fill="none" stroke-width="4px" />
<path d="M 300.0 155.0 L 310.0 155.0" stroke="#FF0000" fill="none" stroke-width="4px" />
<path d="M 310.0 155.0 L 310.0 145.0" stroke="#FF0000" fill="none" stroke-width="4px" />
<path d="M 310.0 145.0 L 300.0 145.0" stroke="#FF0000" fill="none" stroke-width="4px" />
<path d="M 300.0 145.0 L 290.0 145.0" stroke="#FF0000" fill="none" stroke-width="4px" />
<path d="M 290.0 145.0 L 280.0 145.0" stroke="#FF0000" fill="none" stroke-width="4px" />
<path d="M 280.0 145.0 L 270.0 145.0" stroke="#FF0000" fill="none" stroke-width="4px" />
<path d="M 270.0 145.0 L 260.0 145.0" stroke="#FF0000" fill="none" stroke-width="4px" />
<path d="M 260.0 145.0 L 260.0 135.0" stroke="#FF0000" fill="none" stroke-width="4px" />
<path d="M 260.0 135.0 L 270.0 135.0" stroke="#FF0000" fill="none" stroke-width="4px" />
<path d="M 270.0 135.0 L 280.0 135.0" stroke="#FF0000" fill="none" stroke-width="4px" />
<path d="M 280.0 135.0 L 290.0 135.0" stroke="#FF0000" fill="none" stroke-width="4px" />
<path d="M 290.0 135.0 L 300.0 135.0" stroke="#FF0000" fill="none" stroke-width="4px" />
<path d="M 300.0 135.0 L 310.0 135.0" stroke="#FF0000" fill="none" stroke-width="4px" />
<path d="M 310.0 135.0 L 320.0 145.0" stroke="#FF0000" fill="none" stroke-width="4px" />
<path d="M 300.0 165.0 L 290.0 165.0" stroke="#FF0000" fill="none" stroke-width="4px" />
<path d="M 290.0 165.0 L 280.0 165.0" stroke="#FF0000" fill="none" stroke-width="4px" />
<path d="M 280.0 165.0 L 270.0 165.0" stroke="#FF0000" fill="none" stroke-width="4px" />
<path d="M 270.0 165.0 L 280.0 175.0" stroke="#FF0000" fill="none" stroke-width="4px" />
<path d="M 280.0 175.0 L 290.0 175.0" stroke="#FF0000" fill="none" stroke-width="4px" />
<path d="M 290.0 125.0 L 280.0 125.0" stroke="#FF0000" fill="none" stroke-width="4px" />
<path d="M 280.0 125.0 L 270.0 125.0" stroke="#FF0000" fill="none" stroke-width="4px" />
<path d="M 270.0 125.0 L 280.0 115.0" stroke="#FF0000" fill="none" stroke-width="4px" />
<path d="M 430.0 135.0 L 440.0 135.0" stroke="#FF0000" fill="none" stroke-width="4px" />
<path d="M 440.0 135.0 L 450.0 135.0" stroke="#FF0000" fill="none" stroke-width="4px" />
<path d="M 450.0 135.0 L 460.0 135.0" stroke="#FF0000" fill="none" stroke-width="4px" />
<path d="M 460.0 135.0 L 470.0 135.0" stroke="#FF0000" fill="none" stroke-width="4px" />
<path d="M 470.0 135.0 L 470.0 145.0" stroke="#FF0000" fill="none" stroke-width="4px" />
<path d="M 470.0 145.0 L 460.0 145.0" stroke="#FF0000" fill="none" stroke-width="4px" />
<path d="M 460.0 145.0 L 450.0 145.0" stroke="#FF0000" fill="none" stroke-width="4px" />
<path d="M 450.0 145.0 L 440.0 145.0" stroke="#FF0000" fill="none" stroke-width="4px" />
<path d="M 440.0 145.0 L 430.0 145.0" stroke="#FF0000" fill="none" stroke-width="4px" />
<path d="M 430.0 145.0 L 440.0 155.0" stroke="#FF0000" fill="none" stroke-width="4px" />
<path d="M 440.0 155.0 L 450.0 155.0" stroke="#FF0000" fill="none" stroke-width="4px" />
<path d="M 450.0 155.0 L 460.0 155.0" stroke="#FF0000" fill="none" stroke-width="4px" />
<path d="M 460.0 155.0 L 470.0 155.0" stroke="#FF0000" fill="none" stroke-width="4px" />
<path d="M 470.0 155.0 L 460.0 165.0" stroke="#FF0000" fill="none" stroke-width="4px" />
<path d="M 460.0 165.0 L 450.0 165.0" stroke="#FF0000" fill="none" stroke-width="4px" />
<path d="M 460.0 125.0 L 450.0 125.0" stroke="#FF0000" fill="none" stroke-width="4px" />
<path d="M 450.0 125.0 L 440.0 125.0" stroke="#FF0000" fill="none" stroke-width="4px" />
<path d="M 440.0 125.0 L 450.0 115.0" stroke="#FF0000" fill="none" stroke-width="4px" />
<path d="M 900.0 125.0 L 910.0 125.0" stroke="#FF0000" fill="none" stroke-width="4px" />
<path d="M 910.0 125.0 L 920.0 125.0" stroke="#FF0000" fill="none" stroke-width="4px" />
<path d="M 920.0 125.0 L 930.0 125.0" stroke="#FF0000" fill="none" stroke-width="4px" />
<path d="M 930.0 125.0 L 940.0 125.0" stroke="#FF0000" fill="none" stroke-width="4px" />
<path d="M 940.0 125.0 L 950.0 125.0" stroke="#FF0000" fill="none" stroke-width="4px" />
<path d="M 950.0 125.0 L 960.0 125.0" stroke="#FF0000" fill="none" stroke-width="4px" />
<path d="M 960.0 125.0 L 970.0 125.0" stroke="#FF0000" fill="none" stroke-width="4px" />
<path d="M 970.0 125.0 L 980.0 125.0" stroke="#FF0000" fill="none" stroke-width="4px" />
<path d="M 980.0 125.0 L 990.0 125.0" stroke="#FF0000" fill="none" stroke-width="4px" />
<path d="M 990.0 125.0 L 990.0 135.0" stroke="#FF0000" fill="none" stroke-width="4px" />
<path d="M 990.0 135.0 L 980.0 135.0" stroke="#FF0000" fill="none" stroke-width="4px" />
<path d="M 980.0 135.0 L 970.0 135.0" stroke="#FF0000" fill="none" stroke-width="4px" />
<path d="M 970.0 135.0 L 960.0 135.0" stroke="#FF0000" fill="none" stroke-width="4px" />
<path d="M 960.0 135.0 L 950.0 135.0" stroke="#FF0000" fill="none" stroke-width="4px" />
<path d="M 950.0 135.0 L 940.0 135.0" stroke="#FF0000" fill="none" stroke-width="4px" />
<path d="M 940.0 135.0 L 930.0 135.0" stroke="#FF0000" fill="none" stroke-width="4px" />
<path d="M 930.0 135.0 L 920.0 135.0" stroke="#FF0000" fill="none" stroke-width="4px" />
<path d="M 920.0 135.0 L 910.0 135.0" stroke="#FF0000" fill="none" stroke-width="4px" />
<path d="M 910.0 135.0 L 900.0 135.0" stroke="#FF0000" fill="none" stroke-width="4px" />
<path d="M 900.0 135.0 L 910.0 145.0" stroke="#FF0000" fill="none" stroke-width="4px" />
<path d="M 910.0 145.0 L 920.0 145.0" stroke="#FF0000" fill="none" stroke-width="4px" />
<path d="M 920.0 145.0 L 930.0 145.0" stroke="#FF0000" fill="none" stroke-width="4px" />
<path d="M 930.0 145.0 L 940.0 145.0" stroke="#FF0000" fill="none" stroke-width="4px" />
<path d="M 940.0 145.0 L 950.0 145.0" stroke="#FF0000" fill="none" stroke-width="4px" />
<path d="M 950.0 145.0 L 960.0 145.0" stroke="#FF0000" fill="none" stroke-width="4px" />
<path d="M 960.0 145.0 L 970.0 145.0" stroke="#FF0000" fill="none" stroke-width="4px" />
<path d="M 970.0 145.0 L 980.0 145.0" stroke="#FF0000" fill="none" stroke-width="4px" />
<path d="M 980.0 145.0 L 990.0 145.0" stroke="#FF0000" fill="none" stroke-width="4px" />
<path d="M 990.0 145.0 L 1000.0 145.0" stroke="#FF0000" fill="none" stroke-width="4px" />
<path d="M 1000.0 145.0 L 1010.0 145.0" stroke="#FF0000" fill="none" stroke-width="4px" />
<path d="M 1010.0 145.0 L 1000.0 155.0" stroke="#FF0000" fill="none" stroke-width="4px" />
<path d="M 1000.0 155.0 L 990.0 155.0" stroke="#FF0000" fill="none" stroke-width="4px" />
<path d="M 990.0 155.0 L 980.0 155.0" stroke="#FF0000" fill="none" stroke-width="4px" />
<path d="M 980.0 155.0 L 970.0 155.0" stroke="#FF0000" fill="none" stroke-width="4px" />
<path d="M 970.0 155.0 L 960.0 155.0" stroke="#FF0000" fill="none" stroke-width="4px" />
<path d="M 960.0 155.0 L 970.0 165.0" stroke="#FF0000" fill="none" stroke-width="4px" />
<path d="M 970.0 165.0 L 980.0 165.0" stroke="#FF0000" fill="none" stroke-width="4px" />
<path d="M 980.0 165.0 L 990.0 165.0" stroke="#FF0000" fill="none" stroke-width="4px" />
<path d="M 990.0 165.0 L 990.0 175.0" stroke="#FF0000" fill="none" stroke-width="4px" />
<path d="M 940.0 155.0 L 930.0 155.0" stroke="#FF0000" fill="none" stroke-width="4px" />
<path d="M 930.0 155.0 L 920.0 155.0" stroke="#FF0000" fill="none" stroke-width="4px" />
<path d="M 920.0 115.0 L 910.0 115.0" stroke="#FF0000" fill="none" stroke-width="4px" />
<path d="M 910.0 115.0 L 920.0 105.0" stroke="#FF0000" fill="none" stroke-width="4px" />
<path d="M 920.0 105.0 L 930.0 105.0" stroke="#FF0000" fill="none" stroke-width="4px" />
<path d="M 930.0 105.0 L 940.0 105.0" stroke="#FF0000" fill="none" stroke-width="4px" />
<path d="M 940.0 105.0 L 940.0 115.0" stroke="#FF0000" fill="none" stroke-width="4px" />
<path d="M 940.0 115.0 L 930.0 115.0" stroke="#FF0000" fill="none" stroke-width="4px" />
<path d="M 930.0 115.0 L 950.0 115.0" stroke="#FF0000" fill="none" stroke-width="4px" />
<path d="M 950.0 115.0 L 970.0 115.0" stroke="#FF0000" fill="none" stroke-width="4px" />
<path d="M 970.0 115.0 L 980.0 115.0" stroke="#FF0000" fill="none" stroke-width="4px" />
</svg>