<svg width="2472.26666667" height="235.0" xmlns="http://www.w3.org/2000/svg" version="1.1">
<path d="M 0.0 235.0 L 1495.0 235.0 L 1495.0 0.0 L 0.0 0.0 L 0.0 235.0" stroke="#000000" fill="none" stroke-width="3px" />
<path d="M 2472.26666667 235.0 L 1395.0 235.0 L 1395.0 0.0 L 2472.26666667 0.0 L 2472.26666667 235.0" stroke="#000000" fill="none" stroke-width="3px" />
<path d="M 10.0 257.5 L 0.0 247.5 L 10.0 237.5" stroke="#969696" fill="none" stroke-width="1px" />
<path d="M 10.0 237.5 L 1485.0 237.5" stroke="#969696" fill="none" stroke-width="1px" />
<path d="M 1485.0 237.5 L 1495.0 227.5 L 1485.0 217.5" stroke="#969696" fill="none" stroke-width="1px" />
<path d="M 1485.0 217.5 L 10.0 217.5" stroke="#969696" fill="none" stroke-width="1px" />
<path d="M 10.0 217.5 L 0.0 207.5 L 10.0 197.5" stroke="#969696" fill="none" stroke-width="1px" />
<path d="M 10.0 197.5 L 1485.0 197.5" stroke="#969696" fill="none" stroke-width="1px" />
<path d="M 1485.0 197.5 L 1495.0 187.5 L 1485.0 177.5" stroke="#969696" fill="none" stroke-width="1px" />
<path d="M 1485.0 177.5 L 10.0 177.5" stroke="#969696" fill="none" stroke-width="1px" />
<path d="M 10.0 177.5 L 0.0 167.5 L 10.0 157.5" stroke="#969696" fill="none" stroke-width="1px" />
<path d="M 10.0 157.5 L 1485.0 157.5" stroke="#969696" fill="none" stroke-width="1px" />
<path d="M 1485.0 157.5 L 1495.0 147.5 L 1485.0 137.5" stroke="#969696" fill="none" stroke-width="1px" />
<path d="M 1485.0 137.5 L 10.0 137.5" stroke="#969696" fill="none" stroke-width="1px" />
<path d="M 10.0 137.5 L 0.0 127.5 L 10.0 117.5" stroke="#969696" fill="none" stroke-width="1px" />
<path d="M 10.0 117.5 L 1485.0 117.5" stroke="#969696" fill="none" stroke-width="1px" />
<path d="M 1485.0 117.5 L 1495.0 107.5 L 1485.0 97.5" stroke="#969696" fill="none" stroke-width="1px" />
<path d="M 1485.0 97.5 L 10.0 97.5" stroke="#969696" fill="none" stroke-width="1px" />
<path d="M 10.0 97.5 L 0.0 87.5 L 10.0 77.5" stroke="#969696" fill="none" stroke-width="1px" />
<path d="M 10.0 77.5 L 1485.0 77.5" stroke="#969696" fill="none" stroke-width="1px" />
<path d="M 1485.0 77.5 L 1495.0 67.5 L 1485.0 57.5" stroke="#969696" fill="none" stroke-width="1px" />
<path d="M 1485.0 57.5 L 10.0 57.5" stroke="#969696" fill="none" stroke-width="1px" />
<path d="M 10.0 57.5 L 0.0 47.5 L 10.0 37.5" stroke="#969696" fill="none" stroke-width="1px" />
<path d="M 10.0 37.5 L 1485.0 37.5" stroke="#969696" fill="none" stroke-width="1px" />
<path d="M 1485.0 37.5 L 1495.0 27.5 L 1485.0 17.5" stroke="#969696" fill="none" stroke-width="1px" />
<path d="M 1485.0 17.5 L 10.0 17.5" stroke="#969696" fill="none" stroke-width="1px" />
<path d="M 10.0 17.5 L 0.0 7.5 L 10.0 -2.5" stroke="#969696" fill="none" stroke-width="1px" />
<path d="M 10.0 -2.5 L 1485.0 -2.5" stroke="#969696" fill="none" stroke-width="1px" />
<path d="M 1485.0 -2.5 L 1495.0 -12.5 L 1485.0 -22.5" stroke="#969696" fill="none" stroke-width="1px" />
<path d="M 2462.26666667 257.5 L 2472.26666667 247.5 L 2462.26666667 237.5" stroke="#969696" fill="none" stroke-width="1px" />
<path d="M 2462.26666667 237.5 L 1405.0 237.5" stroke="#969696" fill="none" stroke-width="1px" />
<path d="M 1405.0 237.5 L 1395.0 227.5 L 1405.0 217.5" stroke="#969696" fill="none" stroke-width="1px" />
<path d="M 1405.0 217.5 L 2462.26666667 217.5" stroke="#969696" fill="none" stroke-width="1px" />
<path d="M 2462.26666667 217.5 L 2472.26666667 207.5 L 2462.26666667 197.5" stroke="#969696" fill="none" stroke-width="1px" />
<path d="M 2462.26666667 197.5 L 1405.0 197.5" stroke="#969696" fill="none" stroke-width="1px" />
<path d="M 1405.0 197.5 L 1395.0 187.5 L 1405.0 177.5" stroke="#969696" fill="none" stroke-width="1px" />
<path d="M 1405.0 177.5 L 2462.26666667 177.5" stroke="#969696" fill="none" stroke-width="1px" />
<path d="M 2462.26666667 177.5 L 2472.26666667 167.5 L 2462.26666667 157.5" stroke="#969696" fill="none" stroke-width="1px" />
<path d="M 2462.26666667 157.5 L 1405.0 157.5" stroke="#969696" fill="none" stroke-width="1px" />
<path d="M 1405.0 157.5 L 1395.0 147.5 L 1405.0 137.5" stroke="#969696" fill="none" stroke-width="1px" />
<path d="M 1405.0 137.5 L 2462.26666667 137.5" stroke="#969696" fill="none" stroke-width="1px" />
<path d="M 2462.26666667 137.5 L 2472.26666667 127.5 L 2462.26666667 117.5" stroke="#969696" fill="none" stroke-width="1px" />
<path d="M 2462.26666667 117.5 L 1405.0 117.5" stroke="#969696" fill="none" stroke-width="1px" />
<path d="M 1405.0 117.5 L 1395.0 107.5 L 1405.0 97.5" stroke="#969696" fill="none" stroke-width="1px" />
<path d="M 1405.0 97.5 L 2462.26666667 97.5" stroke="#969696" fill="none" stroke-width="1px" />
<path d="M 2462.26666667 97.5 L 2472.26666667 87.5 L 2462.26666667 77.5" stroke="#969696" fill="none" stroke-width="1px" />
<path d="M 2462.26666667 77.5 L 1405.0 77.5" stroke="#969696" fill="none" stroke-width="1px" />
<path d="M 1405.0 77.5 L 1395.0 67.5 L 1405.0 57.5" stroke="#969696" fill="none" stroke-width="1px" />
<path d="M 1405.0 57.5 L 2462.26666667 57.5" stroke="#969696" fill="none" stroke-width="1px" />
<path d="M 2462.26666667 57.5 L 2472.26666667 47.5 L 2462.26666667 37.5" stroke="#969696" fill="none" stroke-width="1px" />
<path d="M 2462.26666667 37.5 L 1405.0 37.5" stroke="#969696" fill="none" stroke-width="1px" />
<path d="M 1405.0 37.5 L 1395.0 27.5 L 1405.0 17.5" stroke="#969696" fill="none" stroke-width="1px" />
<path d="M 1405.0 17.5 L 2462.26666667 17.5" stroke="#969696" fill="none" stroke-width="1px" />
<path d="M 2462.26666667 17.5 L 2472.26666667 7.5 L 2462.26666667 -2.5" stroke="#969696" fill="none" stroke-width="1px" />
<path d="M 2462.26666667 -2.5 L 1405.0 -2.5" stroke="#969696" fill="none" stroke-width="1px" />
<path d="M 1405.0 -2.5 L 1395.0 -12.5 L 1405.0 -22.5" stroke="#969696" fill="none" stroke-width="1px" />
<path d="M 0.0 235.0 L 680.0 235.0" stroke="#0095FF" fill="none" stroke-width="2px" />
<path d="M 680.0 235.0 L 680.0 105.0" stroke="#0095FF" fill="none" stroke-width="2px" />
<path d="M 700.0 85.0 L 700.0 115.0" stroke="#0095FF" fill="none" stroke-width="2px" />
<path d="M 690.0 115.0 L 780.0 115.0" stroke="#0095FF" fill="none" stroke-width="2px" />
<path d="M 800.0 65.0 L 860.0 65.0" stroke="#0095FF" fill="none" stroke-width="2px" />
<path d="M 860.0 65.0 L 860.0 105.0" stroke="#0095FF" fill="none" stroke-width="2px" />
<path d="M 860.0 105.0 L 840.0 105.0" stroke="#0095FF" fill="none" stroke-width="2px" />
<path d="M 840.0 105.0 L 840.0 125.0" stroke="#0095FF" fill="none" stroke-width="2px" />
<path d="M 2472.26666667 235.0 L 2300.0 235.0" stroke="#0095FF" fill="none" stroke-width="2px" />
<path d="M 2300.0 235.0 L 2300.0 115.0" stroke="#0095FF" fill="none" stroke-width="2px" />
<path d="M 2310.0 105.0 L 2310.0 75.0" stroke="#0095FF" fill="none" stroke-width="2px" />
<path d="M 2320.0 75.0 L 2060.0 75.0" stroke="#0095FF" fill="none" stroke-width="2px" />
<path d="M 2060.0 75.0 L 2060.0 115.0" stroke="#0095FF" fill="none" stroke-width="2px" />
<path d="M 2000.0 135.0 L 2000.0 155.0" stroke="#0095FF" fill="none" stroke-width="2px" />
<path d="M 1990.0 165.0 L 1960.0 165.0" stroke="#0095FF" fill="none" stroke-width="2px" />
<path d="M 1960.0 165.0 L 1960.0 185.0" stroke="#0095FF" fill="none" stroke-width="2px" />
<path d="M 1960.0 185.0 L 2030.0 185.0" stroke="#0095FF" fill="none" stroke-width="2px" />
<path d="M 2030.0 185.0 L 2030.0 145.0" stroke="#0095FF" fill="none" stroke-width="2px" />
<path d="M 2050.0 145.0 L 2070.0 145.0" stroke="#0095FF" fill="none" stroke-width="2px" />
<path d="M 2070.0 145.0 L 2070.0 175.0" stroke="#0095FF" fill="none" stroke-width="2px" />
<path d="M 2090.0 185.0 L 2080.0 185.0" stroke="#0095FF" fill="none" stroke-width="2px" />
<path d="M 2080.0 185.0 L 2080.0 205.0" stroke="#0095FF" fill="none" stroke-width="2px" />
<path d="M 2070.0 205.0 L 2050.0 205.0" stroke="#0095FF" fill="none" stroke-width="2px" />
<path d="M 2050.0 205.0 L 2050.0 105.0" stroke="#0095FF" fill="none" stroke-width="2px" />
<path d="M 2040.0 95.0 L 1990.0 95.0" stroke="#0095FF" fill="none" stroke-width="2px" />
<path d="M 1990.0 95.0 L 1990.0 105.0" stroke="#0095FF" fill="none" stroke-width="2px" />
<path d="M 680.0 105.0 L 690.0 105.0" stroke="#FF0000" fill="none" stroke-width="4px" />
<path d="M 690.0 105.0 L 700.0 105.0" stroke="#FF0000" fill="none" stroke-width="4px" />
<path d="M 700.0 105.0 L 710.0 105.0" stroke="#FF0000" fill="none" stroke-width="4px" />
<path d="M 710.0 105.0 L 710.0 95.0" stroke="#FF0000" fill="none" stroke-width="4px" />
<path d="M 710.0 95.0 L 700.0 95.0" stroke="#FF0000" fill="none" stroke-width="4px" />
<path d="M 700.0 95.0 L 690.0 95.0" stroke="#FF0000" fill="none" stroke-width="4px" />
<path d="M 690.0 95.0 L 680.0 95.0" stroke="#FF0000" fill="none" stroke-width="4px" />
<path d="M 680.0 95.0 L 690.0 85.0" stroke="#FF0000" fill="none" stroke-width="4px" />
<path d="M 690.0 85.0 L 700.0 85.0" stroke="#FF0000" fill="none" stroke-width="4px" />
<path d="M 700.0 115.0 L 690.0 115.0" stroke="#FF0000" fill="none" stroke-width="4px" />
<path d="M 780.0 115.0 L 790.0 115.0" stroke="#FF0000" fill="none" stroke-width="4px" />
<path d="M 790.0 115.0 L 800.0 115.0" stroke="#FF0000" fill="none" stroke-width="4px" />
<path d="M 800.0 115.0 L 810.0 115.0" stroke="#FF0000" fill="none" stroke-width="4px" />
<path d="M 810.0 115.0 L 820.0 115.0" stroke="#FF0000" fill="none" stroke-width="4px" />
<path d="M 820.0 115.0 L 830.0 115.0" stroke="#FF0000" fill="none" stroke-width="4px" />
<path d="M 830.0 115.0 L 840.0 115.0" stroke="#FF0000" fill="none" stroke-width="4px" />
<path d="M 840.0 115.0 L 850.0 115.0" stroke="#FF0000" fill="none" stroke-width="4px" />
<path d="M 850.0 115.0 L 850.0 105.0" stroke="#FF0000" fill="none" stroke-width="4px" />
<path d="M 850.0 105.0 L 840.0 105.0" stroke="#FF0000" fill="none" stroke-width="4px" />
<path d="M 840.0 105.0 L 830.0 105.0" stroke="#FF0000" fill="none" stroke-width="4px" />
<path d="M 830.0 105.0 L 820.0 105.0" stroke="#FF0000" fill="none" stroke-width="4px" />
<path d="M 820.0 105.0 L 810.0 105.0" stroke="#FF0000" fill="none" stroke-width="4px" />
<path d="M 810.0 105.0 L 800.0 105.0" stroke="#FF0000" fill="none" stroke-width="4px" />
<path d="M 800.0 105.0 L 790.0 105.0" stroke="#FF0000" fill="none" stroke-width="4px" />
<path d="M 790.0 105.0 L 780.0 105.0" stroke="#FF0000" fill="none" stroke-width="4px" />
<path d="M 780.0 105.0 L 780.0 95.0" stroke="#FF0000" fill="none" stroke-width="4px" />
<path d="M 780.0 95.0 L 790.0 95.0" stroke="#FF0000" fill="none" stroke-width="4px" />
<path d="M 790.0 95.0 L 800.0 95.0" stroke="#FF0000" fill="none" stroke-width="4px" />
<path d="M 800.0 95.0 L 810.0 95.0" stroke="#FF0000" fill="none" stroke-width="4px" />
<path d="M 810.0 95.0 L 820.0 95.0" stroke="#FF0000" fill="none" stroke-width="4px" />
<path d="M 820.0 95.0 L 830.0 95.0" stroke="#FF0000" fill="none" stroke-width="4px" />
<path d="M 830.0 95.0 L 840.0 95.0" stroke="#FF0000" fill="none" stroke-width="4px" />
<path d="M 840.0 95.0 L 850.0 95.0" stroke="#FF0000" fill="none" stroke-width="4px" />
<path d="M 850.0 95.0 L 850.0 85.0" stroke="#FF0000" fill="none" stroke-width="4px" />
<path d="M 850.0 85.0 L 840.0 85.0" stroke="#FF0000" fill="none" stroke-width="4px" />
<path d="M 840.0 85.0 L 830.0 85.0" stroke="#FF0000" fill="none" stroke-width="4px" />
<path d="M 830.0 85.0 L 820.0 85.0" stroke="#FF0000" fill="none" stroke-width="4px" />
<path d="M 820.0 85.0 L 810.0 85.0" stroke="#FF0000" fill="none" stroke-width="4px" />
<path d="M 810.0 85.0 L 800.0 85.0" stroke="#FF0000" fill="none" stroke-width="4px" />
<path d="M 800.0 85.0 L 790.0 85.0" stroke="#FF0000" fill="none" stroke-width="4px" />
<path d="M 790.0 85.0 L 780.0 85.0" stroke="#FF0000" fill="none" stroke-width="4px" />
<path d="M 780.0 85.0 L 790.0 75.0" stroke="#FF0000" fill="none" stroke-width="4px" />
<path d="M 790.0 75.0 L 800.0 75.0" stroke="#FF0000" fill="none" stroke-width="4px" />
<path d="M 800.0 75.0 L 810.0 75.0" stroke="#FF0000" fill="none" stroke-width="4px" />
<path d="M 810.0 75.0 L 820.0 75.0" stroke="#FF0000" fill="none" stroke-width="4px" />
<path d="M 820.0 75.0 L 830.0 75.0" stroke="#FF0000" fill="none" stroke-width="4px" />
<path d="M 830.0 75.0 L 840.0 75.0" stroke="#FF0000" fill="none" stroke-width="4px" />
<path d="M 840.0 75.0 L 830.0 65.0" stroke="#FF0000" fill="none" stroke-width="4px" />
<path d="M 830.0 65.0 L 820.0 65.0" stroke="#FF0000" fill="none" stroke-width="4px" />
<path d="M 820.0 65.0 L 810.0 65.0" stroke="#FF0000" fill="none" stroke-width="4px" />
<path d="M 810.0 65.0 L 800.0 65.0" stroke="#FF0000" fill="none" stroke-width="4px" />
<path d="M 840.0 125.0 L 830.0 125.0" stroke="#FF0000" fill="none" stroke-width="4px" />
<path d="M 830.0 125.0 L 820.0 125.0" stroke="#FF0000" fill="none" stroke-width="4px" />
<path d="M 820.0 125.0 L 810.0 125.0" stroke="#FF0000" fill="none" stroke-width="4px" />
<path d="M 810.0 125.0 L 800.0 125.0" stroke="#FF0000" fill="none" stroke-width="4px" />
<path d="M 800.0 125.0 L 790.0 125.0" stroke="#FF0000" fill="none" stroke-width="4px" />
<path d="M 790.0 125.0 L 800.0 135.0" stroke="#FF0000" fill="none" stroke-width="4px" />
<path d="M 800.0 135.0 L 810.0 135.0" stroke="#FF0000" fill="none" stroke-width="4px" />
<path d="M 810.0 135.0 L 820.0 135.0" stroke="#FF0000" fill="none" stroke-width="4px" />
<path d="M 820.0 135.0 L 830.0 135.0" stroke="#FF0000" fill="none" stroke-width="4px" />
<path d="M 2300.0 115.0 L 2290.0 115.0" stroke="#FF0000" fill="none" stroke-width="4px" />
<path d="M 2290.0 115.0 L 2290.0 105.0" stroke="#FF0000" fill="none" stroke-width="4px" />
<path d="M 2290.0 105.0 L 2280.0 105.0" stroke="#FF0000" fill="none" stroke-width="4px" />
<path d="M 2280.0 105.0 L 2280.0 95.0" stroke="#FF0000" fill="none" stroke-width="4px" />
<path d="M 2280.0 95.0 L 2270.0 95.0" stroke="#FF0000" fill="none" stroke-width="4px" />
<path d="M 2270.0 95.0 L 2270.0 85.0" stroke="#FF0000" fill="none" stroke-width="4px" />
<path d="M 2270.0 85.0 L 2280.0 85.0" stroke="#FF0000" fill="none" stroke-width="4px" />
<path d="M 2280.0 85.0 L 2290.0 85.0" stroke="#FF0000" fill="none" stroke-width="4px" />
<path d="M 2290.0 85.0 L 2300.0 85.0" stroke="#FF0000" fill="none" stroke-width="4px" />
<path d="M 2300.0 85.0 L 2310.0 85.0" stroke="#FF0000" fill="none" stroke-width="4px" />
<path d="M 2310.0 85.0 L 2320.0 85.0" stroke="#FF0000" fill="none" stroke-width="4px" />
<path d="M 2320.0 85.0 L 2320.0 95.0" stroke="#FF0000" fill="none" stroke-width="4px" />
<path d="M 2320.0 95.0 L 2310.0 95.0" stroke="#FF0000" fill="none" stroke-width="4px" />
<path d="M 2310.0 95.0 L 2300.0 95.0" stroke="#FF0000" fill="none" stroke-width="4px" />
<path d="M 2300.0 95.0 L 2290.0 95.0" stroke="#FF0000" fill="none" stroke-width="4px" />
<path d="M 2290.0 95.0 L 2300.0 105.0" stroke="#FF0000" fill="none" stroke-width="4px" />
<path d="M 2300.0 105.0 L 2310.0 105.0" stroke="#FF0000" fill="none" stroke-width="4px" />
<path d="M 2310.0 75.0 L 2300.0 75.0" stroke="#FF0000" fill="none" stroke-width="4px" />
<path d="M 2300.0 75.0 L 2290.0 75.0" stroke="#FF0000" fill="none" stroke-width="4px" />
<path d="M 2290.0 75.0 L 2280.0 75.0" stroke="#FF0000" fill="none" stroke-width="4px" />
<path d="M 2280.0 75.0 L 2290.0 65.0" stroke="#FF0000" fill="none" stroke-width="4px" />
<path d="M 2290.0 65.0 L 2300.0 65.0" stroke="#FF0000" fill="none" stroke-width="4px" />
<path d="M 2300.0 65.0 L 2310.0 65.0" stroke="#FF0000" fill="none" stroke-width="4px" />
<path d="M 2310.0 65.0 L 2320.0 75.0" stroke="#FF0000" fill="none" stroke-width="4px" />
<path d="M 2060.0 115.0 L 2050.0 115.0" stroke="#FF0000" fill="none" stroke-width="4px" />
<path d="M 2050.0 115.0 L 2040.0 115.0" stroke="#FF0000" fill="none" stroke-width="4px" />
<path d="M 2040.0 115.0 L 2030.0 115.0" stroke="#FF0000" fill="none" stroke-width="4px" />
<path d="M 2030.0 115.0 L 2020.0 115.0" stroke="#FF0000" fill="none" stroke-width="4px" />
<path d="M 2020.0 115.0 L 2010.0 115.0" stroke="#FF0000" fill="none" stroke-width="4px" />
<path d="M 2010.0 115.0 L 2000.0 115.0" stroke="#FF0000" fill="none" stroke-width="4px" />
<path d="M 2000.0 115.0 L 1990.0 115.0" stroke="#FF0000" fill="none" stroke-width="4px" />
<path d="M 1990.0 115.0 L 1980.0 115.0" stroke="#FF0000" fill="none" stroke-width="4px" />
<path d="M 1980.0 115.0 L 1970.0 115.0" stroke="#FF0000" fill="none" stroke-width="4px" />
<path d="M 1970.0 115.0 L 1960.0 115.0" stroke="#FF0000" fill="none" stroke-width="4px" />
<path d="M 1960.0 115.0 L 1950.0 115.0" stroke="#FF0000" fill="none" stroke-width="4px" />
<path d="M 1950.0 115.0 L 1940.0 115.0" stroke="#FF0000" fill="none" stroke-width="4px" />
<path d="M 1940.0 115.0 L 1930.0 115.0" stroke="#FF0000" fill="none" stroke-width="4px" />
<path d="M 1930.0 115.0 L 1930.0 125.0" stroke="#FF0000" fill="none" stroke-width="4px" />
<path d="M 1930.0 125.0 L 1940.0 125.0" stroke="#FF0000" fill="none" stroke-width="4px" />
<path d="M 1940.0 125.0 L 1950.0 125.0" stroke="#FF0000" fill="none" stroke-width="4px" />
<path d="M 1950.0 125.0 L 1960.0 125.0" stroke="#FF0000" fill="none" stroke-width="4px" />
<path d="M 1960.0 125.0 L 1970.0 125.0" stroke="#FF0000" fill="none" stroke-width="4px" />
<path d="M 1970.0 125.0 L 1980.0 125.0" stroke="#FF0000" fill="none" stroke-width="4px" />
<path d="M 1980.0 125.0 L 1990.0 125.0" stroke="#FF0000" fill="none" stroke-width="4px" />
<path d="M 1990.0 125.0 L 2000.0 125.0" stroke="#FF0000" fill="none" stroke-width="4px" />
<path d="M 2000.0 125.0 L 2010.0 125.0" stroke="#FF0000" fill="none" stroke-width="4px" />
<path d="M 2010.0 125.0 L 2020.0 125.0" stroke="#FF0000" fill="none" stroke-width="4px" />
<path d="M 2020.0 125.0 L 2030.0 125.0" stroke="#FF0000" fill="none" stroke-width="4px" />
<path d="M 2030.0 125.0 L 2040.0 125.0" stroke="#FF0000" fill="none" stroke-width="4px" />
<path d="M 2040.0 125.0 L 2050.0 125.0" stroke="#FF0000" fill="none" stroke-width="4px" />
<path d="M 2050.0 125.0 L 2060.0 125.0" stroke="#FF0000" fill="none" stroke-width="4px" />
<path d="M 2060.0 125.0 L 2060.0 135.0" stroke="#FF0000" fill="none" stroke-width="4px" />
<path d="M 2060.0 135.0 L 2050.0 135.0" stroke="#FF0000" fill="none" stroke-width="4px" />
<path d="M 2050.0 135.0 L 2040.0 135.0" stroke="#FF0000" fill="none" stroke-width="4px" />
<path d="M 2040.0 135.0 L 2030.0 135.0" stroke="#FF0000" fill="none" stroke-width="4px" />
<path d="M 2030.0 135.0 L 2020.0 135.0" stroke="#FF0000" fill="none" stroke-width="4px" />
<path d="M 2020.0 135.0 L 2010.0 145.0" stroke="#FF0000" fill="none" stroke-width="4px" />
<path d="M 2010.0 145.0 L 2000.0 145.0" stroke="#FF0000" fill="none" stroke-width="4px" />
<path d="M 2000.0 145.0 L 1990.0 145.0" stroke="#FF0000" fill="none" stroke-width="4px" />
<path d="M 1990.0 145.0 L 1980.0 145.0" stroke="#FF0000" fill="none" stroke-width="4px" />
<path d="M 1980.0 145.0 L 1970.0 145.0" stroke="#FF0000" fill="none" stroke-width="4px" />
<path d="M 1970.0 145.0 L 1960.0 145.0" stroke="#FF0000" fill="none" stroke-width="4px" />
<path d="M 1960.0 145.0 L 1950.0 145.0" stroke="#FF0000" fill="none" stroke-width="4px" />
<path d="M 1950.0 145.0 L 1940.0 145.0" stroke="#FF0000" fill="none" stroke-width="4px" />
<path d="M 1940.0 145.0 L 1940.0 135.0" stroke="#FF0000" fill="none" stroke-width="4px" />
<path d="M 1940.0 135.0 L 1930.0 135.0" stroke="#FF0000" fill="none" stroke-width="4px" />
<path d="M 1930.0 135.0 L 1950.0 135.0" stroke="#FF0000" fill="none" stroke-width="4px" />
<path d="M 1950.0 135.0 L 1960.0 135.0" stroke="#FF0000" fill="none" stroke-width="4px" />
<path d="M 1960.0 135.0 L 1970.0 135.0" stroke="#FF0000" fill="none" stroke-width="4px" />
<path d="M 1970.0 135.0 L 1980.0 135.0" stroke="#FF0000" fill="none" stroke-width="4px" />
<path d="M 1980.0 135.0 L 1990.0 135.0" stroke="#FF0000" fill="none" stroke-width="4px" />
<path d="M 1990.0 135.0 L 2000.0 135.0" stroke="#FF0000" fill="none" stroke-width="4px" />
<path d="M 2000.0 155.0 L 1990.0 155.0" stroke="#FF0000" fill="none" stroke-width="4px" />
<path d="M 1990.0 155.0 L 1980.0 155.0" stroke="#FF0000" fill="none" stroke-width="4px" />
<path d="M 1980.0 155.0 L 1970.0 155.0" stroke="#FF0000" fill="none" stroke-width="4px" />
<path d="M 1970.0 155.0 L 1960.0 155.0" stroke="#FF0000" fill="none" stroke-width="4px" />
<path d="M 1960.0 155.0 L 1950.0 155.0" stroke="#FF0000" fill="none" stroke-width="4px" />
<path d="M 1950.0 155.0 L 1950.0 165.0" stroke="#FF0000" fill="none" stroke-width="4px" />
<path d="M 1950.0 165.0 L 1940.0 165.0" stroke="#FF0000" fill="none" stroke-width="4px" />
<path d="M 1940.0 165.0 L 1950.0 175.0" stroke="#FF0000" fill="none" stroke-width="4px" />
<path d="M 1950.0 175.0 L 1960.0 175.0" stroke="#FF0000" fill="none" stroke-width="4px" />
<path d="M 1960.0 175.0 L 1970.0 175.0" stroke="#FF0000" fill="none" stroke-width="4px" />
<path d="M 1970.0 175.0 L 1970.0 165.0" stroke="#FF0000" fill="none" stroke-width="4px" />
<path d="M 1970.0 165.0 L 1960.0 165.0" stroke="#FF0000" fill="none" stroke-width="4px" />
<path d="M 1960.0 165.0 L 1980.0 165.0" stroke="#FF0000" fill="none" stroke-width="4px" />
<path d="M 1980.0 165.0 L 1990.0 165.0" stroke="#FF0000" fill="none" stroke-width="4px" />
<path d="M 2030.0 145.0 L 2040.0 145.0" stroke="#FF0000" fill="none" stroke-width="4px" />
<path d="M 2040.0 145.0 L 2050.0 145.0" stroke="#FF0000" fill="none" stroke-width="4px" />
<path d="M 2070.0 175.0 L 2080.0 175.0" stroke="#FF0000" fill="none" stroke-width="4px" />
<path d="M 2080.0 175.0 L 2080.0 185.0" stroke="#FF0000" fill="none" stroke-width="4px" />
<path d="M 2080.0 185.0 L 2070.0 185.0" stroke="#FF0000" fill="none" stroke-width="4px" />
<path d="M 2070.0 185.0 L 2060.0 185.0" stroke="#FF0000" fill="none" stroke-width="4px" />
<path d="M 2060.0 185.0 L 2060.0 195.0" stroke="#FF0000" fill="none" stroke-width="4px" />
<path d="M 2060.0 195.0 L 2070.0 195.0" stroke="#FF0000" fill="none" stroke-width="4px" />
<path d="M 2070.0 195.0 L 2080.0 195.0" stroke="#FF0000" fill="none" stroke-width="4px" />
<path d="M 2080.0 195.0 L 2090.0 195.0" stroke="#FF0000" fill="none" stroke-width="4px" />
<path d="M 2090.0 195.0 L 2090.0 185.0" stroke="#FF0000" fill="none" stroke-width="4px" />
<path d="M 2080.0 205.0 L 2070.0 205.0" stroke="#FF0000" fill="none" stroke-width="4px" />
<path d="M 2050.0 105.0 L 2040.0 105.0" stroke="#FF0000" fill="none" stroke-width="4px" />
<path d="M 2040.0 105.0 L 2030.0 105.0" stroke="#FF0000" fill="none" stroke-width="4px" />
<path d="M 2030.0 105.0 L 2020.0 105.0" stroke="#FF0000" fill="none" stroke-width="4px" />
<path d="M 2020.0 105.0 L 2030.0 95.0" stroke="#FF0000" fill="none" stroke-width="4px" />
<path d="M 2030.0 95.0 L 2040.0 95.0" stroke="#FF0000" fill="none" stroke-width="4px" />
<path d="M 1990.0 105.0 L 1980.0 105.0" stroke="#FF0000" fill="none" stroke-width="4px" />
<path d="M 1980.0 105.0 L 1970.0 105.0" stroke="#FF0000" fill="none" stroke-width="4px" />
<path d="M 1970.0 105.0 L 1960.0 105.0" stroke="#FF0000" fill="none" stroke-width="4px" />
<path d="M 1960.0 105.0 L 1950.0 105.0" stroke="#FF0000" fill="none" stroke-width="4px" />
<path d="M 1950.0 105.0 L 1940.0 105.0" stroke="#FF0000" fill="none" stroke-width="4px" />
<path d="M 1940.0 105.0 L 1950.0 95.0" stroke="#FF0000" fill="none" stroke-width="4px" />
<path d="M 1950.0 95.0 L 1960.0 95.0" stroke="#FF0000" fill="none" stroke-width="4px" />
<path d="M 1960.0 95.0 L 1970.0 95.0" stroke="#FF0000" fill="none" stroke-width="4px" />
<path d="M 1970.0 95.0 L 1980.0 95.0" stroke="#FF0000" fill="none" stroke-width="4px" />
<path d="M 1980.0 95.0 L 1970.0 85.0" stroke="#FF0000" fill="none" stroke-width="4px" />
<path d="M 1970.0 85.0 L 1960.0 85.0" stroke="#FF0000" fill="none" stroke-width="4px" />
</svg>