<svg width="2472.26666667" height="235.0" xmlns="http://www.w3.org/2000/svg" version="1.1">
<path d="M 0.0 235.0 L 1985.0 235.0 L 1985.0 0.0 L 0.0 0.0 L 0.0 235.0" stroke="#000000" fill="none" stroke-width="3px" />
<path d="M 2472.26666667 235.0 L 1885.0 235.0 L 1885.0 0.0 L 2472.26666667 0.0 L 2472.26666667 235.0" stroke="#000000" fill="none" stroke-width="3px" />
<path d="M 10.0 257.5 L 0.0 247.5 L 10.0 237.5" stroke="#969696" fill="none" stroke-width="1px" />
<path d="M 10.0 237.5 L 1975.0 237.5" stroke="#969696" fill="none" stroke-width="1px" />
<path d="M 1975.0 237.5 L 1985.0 227.5 L 1975.0 217.5" stroke="#969696" fill="none" stroke-width="1px" />
<path d="M 1975.0 217.5 L 10.0 217.5" stroke="#969696" fill="none" stroke-width="1px" />
<path d="M 10.0 217.5 L 0.0 207.5 L 10.0 197.5" stroke="#969696" fill="none" stroke-width="1px" />
<path d="M 10.0 197.5 L 1975.0 197.5" stroke="#969696" fill="none" stroke-width="1px" />
<path d="M 1975.0 197.5 L 1985.0 187.5 L 1975.0 177.5" stroke="#969696" fill="none" stroke-width="1px" />
<path d="M 1975.0 177.5 L 10.0 177.5" stroke="#969696" fill="none" stroke-width="1px" />
<path d="M 10.0 177.5 L 0.0 167.5 L 10.0 157.5" stroke="#969696" fill="none" stroke-width="1px" />
<path d="M 10.0 157.5 L 1975.0 157.5" stroke="#969696" fill="none" stroke-width="1px" />
<path d="M 1975.0 157.5 L 1985.0 147.5 L 1975.0 137.5" stroke="#969696" fill="none" stroke-width="1px" />
<path d="M 1975.0 137.5 L 10.0 137.5" stroke="#969696" fill="none" stroke-width="1px" />
<path d="M 10.0 137.5 L 0.0 127.5 L 10.0 117.5" stroke="#969696" fill="none" stroke-width="1px" />
<path d="M 10.0 117.5 L 1975.0 117.5" stroke="#969696" fill="none" stroke-width="1px" />
<path d="M 1975.0 117.5 L 1985.0 107.5 L 1975.0 97.5" stroke="#969696" fill="none" stroke-width="1px" />
<path d="M 1975.0 97.5 L 10.0 97.5" stroke="#969696" fill="none" stroke-width="1px" />
<path d="M 10.0 97.5 L 0.0 87.5 L 10.0 77.5" stroke="#969696" fill="none" stroke-width="1px" />
<path d="M 10.0 77.5 L 1975.0 77.5" stroke="#969696" fill="none" stroke-width="1px" />
<path d="M 1975.0 77.5 L 1985.0 67.5 L 1975.0 57.5" stroke="#969696" fill="none" stroke-width="1px" />
<path d="M 1975.0 57.5 L 10.0 57.5" stroke="#969696" fill="none" stroke-width="1px" />
<path d="M 10.0 57.5 L 0.0 47.5 L 10.0 37.5" stroke="#969696" fill="none" stroke-width="1px" />
<path d="M 10.0 37.5 L 1975.0 37.5" stroke="#969696" fill="none" stroke-width="1px" />
<path d="M 1975.0 37.5 L 1985.0 27.5 L 1975.0 17.5" stroke="#969696" fill="none" stroke-width="1px" />
<path d="M 1975.0 17.5 L 10.0 17.5" stroke="#969696" fill="none" stroke-width="1px" />
<path d="M 10.0 17.5 L 0.0 7.5 L 10.0 -2.5" stroke="#969696" fill="none" stroke-width="1px" />
<path d="M 10.0 -2.5 L 1975.0 -2.5" stroke="#969696" fill="none" stroke-width="1px" />
<path d="M 1975.0 -2.5 L 1985.0 -12.5 L 1975.0 -22.5" stroke="#969696" fill="none" stroke-width="1px" />
<path d="M 2462.26666667 257.5 L 2472.26666667 247.5 L 2462.26666667 237.5" stroke="#969696" fill="none" stroke-width="1px" />
<path d="M 2462.26666667 237.5 L 1895.0 237.5" stroke="#969696" fill="none" stroke-width="1px" />
<path d="M 1895.0 237.5 L 1885.0 227.5 L 1895.0 217.5" stroke="#969696" fill="none" stroke-width="1px" />
<path d="M 1895.0 217.5 L 2462.26666667 217.5" stroke="#969696" fill="none" stroke-width="1px" />
<path d="M 2462.26666667 217.5 L 2472.26666667 207.5 L 2462.26666667 197.5" stroke="#969696" fill="none" stroke-width="1px" />
<path d="M 2462.26666667 197.5 L 1895.0 197.5" stroke="#969696" fill="none" stroke-width="1px" />
<path d="M 1895.0 197.5 L 1885.0 187.5 L 1895.0 177.5" stroke="#969696" fill="none" stroke-width="1px" />
<path d="M 1895.0 177.5 L 2462.26666667 177.5" stroke="#969696" fill="none" stroke-width="1px" />
<path d="M 2462.26666667 177.5 L 2472.26666667 167.5 L 2462.26666667 157.5" stroke="#969696" fill="none" stroke-width="1px" />
<path d="M 2462.26666667 157.5 L 1895.0 157.5" stroke="#969696" fill="none" stroke-width="1px" />
<path d="M 1895.0 157.5 L 1885.0 147.5 L 1895.0 137.5" stroke="#969696" fill="none" stroke-width="1px" />
<path d="M 1895.0 137.5 L 2462.26666667 137.5" stroke="#969696" fill="none" stroke-width="1px" />
<path d="M 2462.26666667 137.5 L 2472.26666667 127.5 L 2462.26666667 117.5" stroke="#969696" fill="none" stroke-width="1px" />
<path d="M 2462.26666667 117.5 L 1895.0 117.5" stroke="#969696" fill="none" stroke-width="1px" />
<path d="M 1895.0 117.5 L 1885.0 107.5 L 1895.0 97.5" stroke="#969696" fill="none" stroke-width="1px" />
<path d="M 1895.0 97.5 L 2462.26666667 97.5" stroke="#969696" fill="none" stroke-width="1px" />
<path d="M 2462.26666667 97.5 L 2472.26666667 87.5 L 2462.26666667 77.5" stroke="#969696" fill="none" stroke-width="1px" />
<path d="M 2462.26666667 77.5 L 1895.0 77.5" stroke="#969696" fill="none" stroke-width="1px" />
<path d="M 1895.0 77.5 L 1885.0 67.5 L 1895.0 57.5" stroke="#969696" fill="none" stroke-width="1px" />
<path d="M 1895.0 57.5 L 2462.26666667 57.5" stroke="#969696" fill="none" stroke-width="1px" />
<path d="M 2462.26666667 57.5 L 2472.26666667 47.5 L 2462.26666667 37.5" stroke="#969696" fill="none" stroke-width="1px" />
<path d="M 2462.26666667 37.5 L 1895.0 37.5" stroke="#969696" fill="none" stroke-width="1px" />
<path d="M 1895.0 37.5 L 1885.0 27.5 L 1895.0 17.5" stroke="#969696" fill="none" stroke-width="1px" />
<path d="M 1895.0 17.5 L 2462.26666667 17.5" stroke="#969696" fill="none" stroke-width="1px" />
<path d="M 2462.26666667 17.5 L 2472.26666667 7.5 L 2462.26666667 -2.5" stroke="#969696" fill="none" stroke-width="1px" />
<path d="M 2462.26666667 -2.5 L 1895.0 -2.5" stroke="#969696" fill="none" stroke-width="1px" />
<path d="M 1895.0 -2.5 L 1885.0 -12.5 L 1895.0 -22.5" stroke="#969696" fill="none" stroke-width="1px" />
<path d="M 0.0 235.0 L 190.0 145.0" stroke="#0095FF" fill="none" stroke-width="2px" />
<path d="M 220.0 165.0 L 250.0 165.0" stroke="#0095FF" fill="none" stroke-width="2px" />
<path d="M 260.0 175.0 L 290.0 155.0" stroke="#0095FF" fill="none" stroke-width="2px" />
<path d="M 290.0 155.0 L 270.0 135.0" stroke="#0095FF" fill="none" stroke-width="2px" />
<path d="M 190.0 105.0 L 190.0 65.0" stroke="#0095FF" fill="none" stroke-width="2px" />
<path d="M 170.0 55.0 L 200.0 65.0" stroke="#0095FF" fill="none" stroke-width="2px" />
<path d="M 240.0 65.0 L 220.0 55.0" stroke="#0095FF" fill="none" stroke-width="2px" />
<path d="M 210.0 55.0 L 420.0 55.0" stroke="#0095FF" fill="none" stroke-width="2px" />
<path d="M 440.0 15.0 L 440.0 65.0" stroke="#0095FF" fill="none" stroke-width="2px" />
<path d="M 460.0 65.0 L 500.0 65.0" stroke="#0095FF" fill="none" stroke-width="2px" />
<path d="M 570.0 135.0 L 590.0 115.0" stroke="#0095FF" fill="none" stroke-width="2px" />
<path d="M 590.0 115.0 L 650.0 75.0" stroke="#0095FF" fill="none" stroke-width="2px" />
<path d="M 720.0 115.0 L 740.0 85.0" stroke="#0095FF" fill="none" stroke-width="2px" />
<path d="M 740.0 85.0 L 720.0 65.0" stroke="#0095FF" fill="none" stroke-width="2px" />
<path d="M 650.0 45.0 L 590.0 55.0" stroke="#0095FF" fill="none" stroke-width="2px" />
<path d="M 520.0 35.0 L 810.0 55.0" stroke="#0095FF" fill="none" stroke-width="2px" />
<path d="M 830.0 75.0 L 860.0 85.0" stroke="#0095FF" fill="none" stroke-width="2px" />
<path d="M 910.0 175.0 L 910.0 145.0" stroke="#0095FF" fill="none" stroke-width="2px" />
<path d="M 880.0 145.0 L 910.0 135.0" stroke="#0095FF" fill="none" stroke-width="2px" />
<path d="M 920.0 145.0 L 910.0 75.0" stroke="#0095FF" fill="none" stroke-width="2px" />
<path d="M 900.0 65.0 L 890.0 45.0" stroke="#0095FF" fill="none" stroke-width="2px" />
<path d="M 890.0 35.0 L 890.0 15.0" stroke="#0095FF" fill="none" stroke-width="2px" />
<path d="M 880.0 -5.0 L 900.0 15.0" stroke="#0095FF" fill="none" stroke-width="2px" />
<path d="M 900.0 15.0 L 840.0 45.0" stroke="#0095FF" fill="none" stroke-width="2px" />
<path d="M 830.0 35.0 L 1460.0 105.0" stroke="#0095FF" fill="none" stroke-width="2px" />
<path d="M 1490.0 165.0 L 1490.0 125.0" stroke="#0095FF" fill="none" stroke-width="2px" />
<path d="M 1510.0 115.0 L 1540.0 115.0" stroke="#0095FF" fill="none" stroke-width="2px" />
<path d="M 1560.0 145.0 L 1560.0 105.0" stroke="#0095FF" fill="none" stroke-width="2px" />
<path d="M 1570.0 105.0 L 1570.0 85.0" stroke="#0095FF" fill="none" stroke-width="2px" />
<path d="M 1580.0 85.0 L 1600.0 105.0" stroke="#0095FF" fill="none" stroke-width="2px" />
<path d="M 1600.0 105.0 L 1490.0 95.0" stroke="#0095FF" fill="none" stroke-width="2px" />
<path d="M 2472.26666667 235.0 L 2470.0 145.0" stroke="#0095FF" fill="none" stroke-width="2px" />
<path d="M 2470.0 135.0 L 2470.0 105.0" stroke="#0095FF" fill="none" stroke-width="2px" />
<path d="M 2470.0 85.0 L 2450.0 65.0" stroke="#0095FF" fill="none" stroke-width="2px" />
<path d="M 190.0 145.0 L 200.0 145.0" stroke="#FF0000" fill="none" stroke-width="4px" />
<path d="M 200.0 145.0 L 210.0 145.0" stroke="#FF0000" fill="none" stroke-width="4px" />
<path d="M 210.0 145.0 L 220.0 145.0" stroke="#FF0000" fill="none" stroke-width="4px" />
<path d="M 220.0 145.0 L 230.0 145.0" stroke="#FF0000" fill="none" stroke-width="4px" />
<path d="M 230.0 145.0 L 240.0 145.0" stroke="#FF0000" fill="none" stroke-width="4px" />
<path d="M 240.0 145.0 L 250.0 145.0" stroke="#FF0000" fill="none" stroke-width="4px" />
<path d="M 250.0 145.0 L 260.0 145.0" stroke="#FF0000" fill="none" stroke-width="4px" />
<path d="M 260.0 145.0 L 270.0 145.0" stroke="#FF0000" fill="none" stroke-width="4px" />
<path d="M 270.0 145.0 L 280.0 145.0" stroke="#FF0000" fill="none" stroke-width="4px" />
<path d="M 280.0 145.0 L 280.0 155.0" stroke="#FF0000" fill="none" stroke-width="4px" />
<path d="M 280.0 155.0 L 270.0 155.0" stroke="#FF0000" fill="none" stroke-width="4px" />
<path d="M 270.0 155.0 L 260.0 155.0" stroke="#FF0000" fill="none" stroke-width="4px" />
<path d="M 260.0 155.0 L 250.0 155.0" stroke="#FF0000" fill="none" stroke-width="4px" />
<path d="M 250.0 155.0 L 240.0 155.0" stroke="#FF0000" fill="none" stroke-width="4px" />
<path d="M 240.0 155.0 L 230.0 155.0" stroke="#FF0000" fill="none" stroke-width="4px" />
<path d="M 230.0 155.0 L 220.0 155.0" stroke="#FF0000" fill="none" stroke-width="4px" />
<path d="M 220.0 155.0 L 210.0 155.0" stroke="#FF0000" fill="none" stroke-width="4px" />
<path d="M 210.0 155.0 L 200.0 155.0" stroke="#FF0000" fill="none" stroke-width="4px" />
<path d="M 200.0 155.0 L 210.0 165.0" stroke="#FF0000" fill="none" stroke-width="4px" />
<path d="M 210.0 165.0 L 220.0 165.0" stroke="#FF0000" fill="none" stroke-width="4px" />
<path d="M 250.0 165.0 L 260.0 165.0" stroke="#FF0000" fill="none" stroke-width="4px" />
<path d="M 260.0 165.0 L 270.0 165.0" stroke="#FF0000" fill="none" stroke-width="4px" />
<path d="M 270.0 165.0 L 280.0 165.0" stroke="#FF0000" fill="none" stroke-width="4px" />
<path d="M 280.0 165.0 L 270.0 175.0" stroke="#FF0000" fill="none" stroke-width="4px" />
<path d="M 270.0 175.0 L 260.0 175.0" stroke="#FF0000" fill="none" stroke-width="4px" />
<path d="M 270.0 135.0 L 260.0 135.0" stroke="#FF0000" fill="none" stroke-width="4px" />
<path d="M 260.0 135.0 L 250.0 135.0" stroke="#FF0000" fill="none" stroke-width="4px" />
<path d="M 250.0 135.0 L 240.0 135.0" stroke="#FF0000" fill="none" stroke-width="4px" />
<path d="M 240.0 135.0 L 230.0 135.0" stroke="#FF0000" fill="none" stroke-width="4px" />
<path d="M 230.0 135.0 L 220.0 135.0" stroke="#FF0000" fill="none" stroke-width="4px" />
<path d="M 220.0 135.0 L 210.0 135.0" stroke="#FF0000" fill="none" stroke-width="4px" />
<path d="M 210.0 135.0 L 200.0 135.0" stroke="#FF0000" fill="none" stroke-width="4px" />
<path d="M 200.0 135.0 L 190.0 135.0" stroke="#FF0000" fill="none" stroke-width="4px" />
<path d="M 190.0 135.0 L 190.0 125.0" stroke="#FF0000" fill="none" stroke-width="4px" />
<path d="M 190.0 125.0 L 200.0 125.0" stroke="#FF0000" fill="none" stroke-width="4px" />
<path d="M 200.0 125.0 L 210.0 125.0" stroke="#FF0000" fill="none" stroke-width="4px" />
<path d="M 210.0 125.0 L 220.0 125.0" stroke="#FF0000" fill="none" stroke-width="4px" />
<path d="M 220.0 125.0 L 230.0 125.0" stroke="#FF0000" fill="none" stroke-width="4px" />
<path d="M 230.0 125.0 L 240.0 125.0" stroke="#FF0000" fill="none" stroke-width="4px" />
<path d="M 240.0 125.0 L 250.0 125.0" stroke="#FF0000" fill="none" stroke-width="4px" />
<path d="M 250.0 125.0 L 260.0 125.0" stroke="#FF0000" fill="none" stroke-width="4px" />
<path d="M 260.0 125.0 L 260.0 115.0" stroke="#FF0000" fill="none" stroke-width="4px" />
<path d="M 260.0 115.0 L 250.0 115.0" stroke="#FF0000" fill="none" stroke-width="4px" />
<path d="M 250.0 115.0 L 240.0 115.0" stroke="#FF0000" fill="none" stroke-width="4px" />
<path d="M 240.0 115.0 L 230.0 115.0" stroke="#FF0000" fill="none" stroke-width="4px" />
<path d="M 230.0 115.0 L 220.0 115.0" stroke="#FF0000" fill="none" stroke-width="4px" />
<path d="M 220.0 115.0 L 210.0 115.0" stroke="#FF0000" fill="none" stroke-width="4px" />
<path d="M 210.0 115.0 L 200.0 115.0" stroke="#FF0000" fill="none" stroke-width="4px" />
<path d="M 200.0 115.0 L 190.0 115.0" stroke="#FF0000" fill="none" stroke-width="4px" />
<path d="M 190.0 115.0 L 180.0 115.0" stroke="#FF0000" fill="none" stroke-width="4px" />
<path d="M 180.0 115.0 L 180.0 105.0" stroke="#FF0000" fill="none" stroke-width="4px" />
<path d="M 180.0 105.0 L 170.0 105.0" stroke="#FF0000" fill="none" stroke-width="4px" />
<path d="M 170.0 105.0 L 170.0 95.0" stroke="#FF0000" fill="none" stroke-width="4px" />
<path d="M 170.0 95.0 L 160.0 95.0" stroke="#FF0000" fill="none" stroke-width="4px" />
<path d="M 160.0 95.0 L 160.0 85.0" stroke="#FF0000" fill="none" stroke-width="4px" />
<path d="M 160.0 85.0 L 150.0 85.0" stroke="#FF0000" fill="none" stroke-width="4px" />
<path d="M 150.0 85.0 L 150.0 75.0" stroke="#FF0000" fill="none" stroke-width="4px" />
<path d="M 150.0 75.0 L 160.0 75.0" stroke="#FF0000" fill="none" stroke-width="4px" />
<path d="M 160.0 75.0 L 170.0 75.0" stroke="#FF0000" fill="none" stroke-width="4px" />
<path d="M 170.0 75.0 L 180.0 75.0" stroke="#FF0000" fill="none" stroke-width="4px" />
<path d="M 180.0 75.0 L 190.0 75.0" stroke="#FF0000" fill="none" stroke-width="4px" />
<path d="M 190.0 75.0 L 200.0 75.0" stroke="#FF0000" fill="none" stroke-width="4px" />
<path d="M 200.0 75.0 L 210.0 75.0" stroke="#FF0000" fill="none" stroke-width="4px" />
<path d="M 210.0 75.0 L 220.0 75.0" stroke="#FF0000" fill="none" stroke-width="4px" />
<path d="M 220.0 75.0 L 230.0 75.0" stroke="#FF0000" fill="none" stroke-width="4px" />
<path d="M 230.0 75.0 L 240.0 75.0" stroke="#FF0000" fill="none" stroke-width="4px" />
<path d="M 240.0 75.0 L 250.0 75.0" stroke="#FF0000" fill="none" stroke-width="4px" />
<path d="M 250.0 75.0 L 250.0 85.0" stroke="#FF0000" fill="none" stroke-width="4px" />
<path d="M 250.0 85.0 L 240.0 85.0" stroke="#FF0000" fill="none" stroke-width="4px" />
<path d="M 240.0 85.0 L 230.0 85.0" stroke="#FF0000" fill="none" stroke-width="4px" />
<path d="M 230.0 85.0 L 220.0 85.0" stroke="#FF0000" fill="none" stroke-width="4px" />
<path d="M 220.0 85.0 L 210.0 85.0" stroke="#FF0000" fill="none" stroke-width="4px" />
<path d="M 210.0 85.0 L 200.0 85.0" stroke="#FF0000" fill="none" stroke-width="4px" />
<path d="M 200.0 85.0 L 190.0 85.0" stroke="#FF0000" fill="none" stroke-width="4px" />
<path d="M 190.0 85.0 L 180.0 85.0" stroke="#FF0000" fill="none" stroke-width="4px" />
<path d="M 180.0 85.0 L 170.0 85.0" stroke="#FF0000" fill="none" stroke-width="4px" />
<path d="M 170.0 85.0 L 180.0 95.0" stroke="#FF0000" fill="none" stroke-width="4px" />
<path d="M 180.0 95.0 L 190.0 95.0" stroke="#FF0000" fill="none" stroke-width="4px" />
<path d="M 190.0 95.0 L 200.0 95.0" stroke="#FF0000" fill="none" stroke-width="4px" />
<path d="M 200.0 95.0 L 210.0 95.0" stroke="#FF0000" fill="none" stroke-width="4px" />
<path d="M 210.0 95.0 L 220.0 95.0" stroke="#FF0000" fill="none" stroke-width="4px" />
<path d="M 220.0 95.0 L 230.0 95.0" stroke="#FF0000" fill="none" stroke-width="4px" />
<path d="M 230.0 95.0 L 240.0 95.0" stroke="#FF0000" fill="none" stroke-width="4px" />
<path d="M 240.0 95.0 L 250.0 95.0" stroke="#FF0000" fill="none" stroke-width="4px" />
<path d="M 250.0 95.0 L 250.0 105.0" stroke="#FF0000" fill="none" stroke-width="4px" />
<path d="M 250.0 105.0 L 240.0 105.0" stroke="#FF0000" fill="none" stroke-width="4px" />
<path d="M 240.0 105.0 L 230.0 105.0" stroke="#FF0000" fill="none" stroke-width="4px" />
<path d="M 230.0 105.0 L 220.0 105.0" stroke="#FF0000" fill="none" stroke-width="4px" />
<path d="M 220.0 105.0 L 210.0 105.0" stroke="#FF0000" fill="none" stroke-width="4px" />
<path d="M 210.0 105.0 L 200.0 105.0" stroke="#FF0000" fill="none" stroke-width="4px" />
<path d="M 200.0 105.0 L 190.0 105.0" stroke="#FF0000" fill="none" stroke-width="4px" />
<path d="M 190.0 65.0 L 180.0 65.0" stroke="#FF0000" fill="none" stroke-width="4px" />
<path d="M 180.0 65.0 L 170.0 65.0" stroke="#FF0000" fill="none" stroke-width="4px" />
<path d="M 170.0 65.0 L 160.0 65.0" stroke="#FF0000" fill="none" stroke-width="4px" />
<path d="M 160.0 65.0 L 150.0 65.0" stroke="#FF0000" fill="none" stroke-width="4px" />
<path d="M 150.0 65.0 L 160.0 55.0" stroke="#FF0000" fill="none" stroke-width="4px" />
<path d="M 160.0 55.0 L 170.0 55.0" stroke="#FF0000" fill="none" stroke-width="4px" />
<path d="M 200.0 65.0 L 210.0 65.0" stroke="#FF0000" fill="none" stroke-width="4px" />
<path d="M 210.0 65.0 L 220.0 65.0" stroke="#FF0000" fill="none" stroke-width="4px" />
<path d="M 220.0 65.0 L 230.0 65.0" stroke="#FF0000" fill="none" stroke-width="4px" />
<path d="M 230.0 65.0 L 240.0 65.0" stroke="#FF0000" fill="none" stroke-width="4px" />
<path d="M 220.0 55.0 L 210.0 55.0" stroke="#FF0000" fill="none" stroke-width="4px" />
<path d="M 420.0 55.0 L 430.0 55.0" stroke="#FF0000" fill="none" stroke-width="4px" />
<path d="M 430.0 55.0 L 440.0 55.0" stroke="#FF0000" fill="none" stroke-width="4px" />
<path d="M 440.0 55.0 L 450.0 55.0" stroke="#FF0000" fill="none" stroke-width="4px" />
<path d="M 450.0 55.0 L 460.0 55.0" stroke="#FF0000" fill="none" stroke-width="4px" />
<path d="M 460.0 55.0 L 470.0 55.0" stroke="#FF0000" fill="none" stroke-width="4px" />
<path d="M 470.0 55.0 L 470.0 45.0" stroke="#FF0000" fill="none" stroke-width="4px" />
<path d="M 470.0 45.0 L 460.0 45.0" stroke="#FF0000" fill="none" stroke-width="4px" />
<path d="M 460.0 45.0 L 450.0 45.0" stroke="#FF0000" fill="none" stroke-width="4px" />
<path d="M 450.0 45.0 L 440.0 45.0" stroke="#FF0000" fill="none" stroke-width="4px" />
<path d="M 440.0 45.0 L 430.0 45.0" stroke="#FF0000" fill="none" stroke-width="4px" />
<path d="M 430.0 45.0 L 420.0 45.0" stroke="#FF0000" fill="none" stroke-width="4px" />
<path d="M 420.0 45.0 L 420.0 35.0" stroke="#FF0000" fill="none" stroke-width="4px" />
<path d="M 420.0 35.0 L 430.0 35.0" stroke="#FF0000" fill="none" stroke-width="4px" />
<path d="M 430.0 35.0 L 440.0 35.0" stroke="#FF0000" fill="none" stroke-width="4px" />
<path d="M 440.0 35.0 L 450.0 35.0" stroke="#FF0000" fill="none" stroke-width="4px" />
<path d="M 450.0 35.0 L 460.0 35.0" stroke="#FF0000" fill="none" stroke-width="4px" />
<path d="M 460.0 35.0 L 450.0 25.0" stroke="#FF0000" fill="none" stroke-width="4px" />
<path d="M 450.0 25.0 L 440.0 25.0" stroke="#FF0000" fill="none" stroke-width="4px" />
<path d="M 440.0 25.0 L 430.0 25.0" stroke="#FF0000" fill="none" stroke-width="4px" />
<path d="M 430.0 25.0 L 420.0 25.0" stroke="#FF0000" fill="none" stroke-width="4px" />
<path d="M 420.0 25.0 L 430.0 15.0" stroke="#FF0000" fill="none" stroke-width="4px" />
<path d="M 430.0 15.0 L 440.0 15.0" stroke="#FF0000" fill="none" stroke-width="4px" />
<path d="M 440.0 65.0 L 430.0 65.0" stroke="#FF0000" fill="none" stroke-width="4px" />
<path d="M 430.0 65.0 L 440.0 75.0" stroke="#FF0000" fill="none" stroke-width="4px" />
<path d="M 440.0 75.0 L 450.0 75.0" stroke="#FF0000" fill="none" stroke-width="4px" />
<path d="M 450.0 75.0 L 450.0 65.0" stroke="#FF0000" fill="none" stroke-width="4px" />
<path d="M 450.0 65.0 L 460.0 65.0" stroke="#FF0000" fill="none" stroke-width="4px" />
<path d="M 500.0 65.0 L 510.0 65.0" stroke="#FF0000" fill="none" stroke-width="4px" />
<path d="M 510.0 65.0 L 520.0 65.0" stroke="#FF0000" fill="none" stroke-width="4px" />
<path d="M 520.0 65.0 L 530.0 65.0" stroke="#FF0000" fill="none" stroke-width="4px" />
<path d="M 530.0 65.0 L 540.0 65.0" stroke="#FF0000" fill="none" stroke-width="4px" />
<path d="M 540.0 65.0 L 550.0 65.0" stroke="#FF0000" fill="none" stroke-width="4px" />
<path d="M 550.0 65.0 L 560.0 65.0" stroke="#FF0000" fill="none" stroke-width="4px" />
<path d="M 560.0 65.0 L 570.0 65.0" stroke="#FF0000" fill="none" stroke-width="4px" />
<path d="M 570.0 65.0 L 580.0 65.0" stroke="#FF0000" fill="none" stroke-width="4px" />
<path d="M 580.0 65.0 L 590.0 65.0" stroke="#FF0000" fill="none" stroke-width="4px" />
<path d="M 590.0 65.0 L 600.0 65.0" stroke="#FF0000" fill="none" stroke-width="4px" />
<path d="M 600.0 65.0 L 600.0 75.0" stroke="#FF0000" fill="none" stroke-width="4px" />
<path d="M 600.0 75.0 L 590.0 75.0" stroke="#FF0000" fill="none" stroke-width="4px" />
<path d="M 590.0 75.0 L 580.0 75.0" stroke="#FF0000" fill="none" stroke-width="4px" />
<path d="M 580.0 75.0 L 570.0 75.0" stroke="#FF0000" fill="none" stroke-width="4px" />
<path d="M 570.0 75.0 L 560.0 75.0" stroke="#FF0000" fill="none" stroke-width="4px" />
<path d="M 560.0 75.0 L 550.0 75.0" stroke="#FF0000" fill="none" stroke-width="4px" />
<path d="M 550.0 75.0 L 540.0 75.0" stroke="#FF0000" fill="none" stroke-width="4px" />
<path d="M 540.0 75.0 L 530.0 75.0" stroke="#FF0000" fill="none" stroke-width="4px" />
<path d="M 530.0 75.0 L 520.0 75.0" stroke="#FF0000" fill="none" stroke-width="4px" />
<path d="M 520.0 75.0 L 510.0 75.0" stroke="#FF0000" fill="none" stroke-width="4px" />
<path d="M 510.0 75.0 L 500.0 75.0" stroke="#FF0000" fill="none" stroke-width="4px" />
<path d="M 500.0 75.0 L 510.0 85.0" stroke="#FF0000" fill="none" stroke-width="4px" />
<path d="M 510.0 85.0 L 520.0 85.0" stroke="#FF0000" fill="none" stroke-width="4px" />
<path d="M 520.0 85.0 L 530.0 85.0" stroke="#FF0000" fill="none" stroke-width="4px" />
<path d="M 530.0 85.0 L 540.0 85.0" stroke="#FF0000" fill="none" stroke-width="4px" />
<path d="M 540.0 85.0 L 550.0 85.0" stroke="#FF0000" fill="none" stroke-width="4px" />
<path d="M 550.0 85.0 L 560.0 85.0" stroke="#FF0000" fill="none" stroke-width="4px" />
<path d="M 560.0 85.0 L 570.0 85.0" stroke="#FF0000" fill="none" stroke-width="4px" />
<path d="M 570.0 85.0 L 580.0 85.0" stroke="#FF0000" fill="none" stroke-width="4px" />
<path d="M 580.0 85.0 L 590.0 85.0" stroke="#FF0000" fill="none" stroke-width="4px" />
<path d="M 590.0 85.0 L 600.0 85.0" stroke="#FF0000" fill="none" stroke-width="4px" />
<path d="M 600.0 85.0 L 590.0 95.0" stroke="#FF0000" fill="none" stroke-width="4px" />
<path d="M 590.0 95.0 L 580.0 95.0" stroke="#FF0000" fill="none" stroke-width="4px" />
<path d="M 580.0 95.0 L 570.0 95.0" stroke="#FF0000" fill="none" stroke-width="4px" />
<path d="M 570.0 95.0 L 560.0 95.0" stroke="#FF0000" fill="none" stroke-width="4px" />
<path d="M 560.0 95.0 L 550.0 95.0" stroke="#FF0000" fill="none" stroke-width="4px" />
<path d="M 550.0 95.0 L 540.0 95.0" stroke="#FF0000" fill="none" stroke-width="4px" />
<path d="M 540.0 95.0 L 530.0 95.0" stroke="#FF0000" fill="none" stroke-width="4px" />
<path d="M 530.0 95.0 L 520.0 95.0" stroke="#FF0000" fill="none" stroke-width="4px" />
<path d="M 520.0 95.0 L 530.0 105.0" stroke="#FF0000" fill="none" stroke-width="4px" />
<path d="M 530.0 105.0 L 540.0 105.0" stroke="#FF0000" fill="none" stroke-width="4px" />
<path d="M 540.0 105.0 L 550.0 105.0" stroke="#FF0000" fill="none" stroke-width="4px" />
<path d="M 550.0 105.0 L 560.0 105.0" stroke="#FF0000" fill="none" stroke-width="4px" />
<path d="M 560.0 105.0 L 570.0 105.0" stroke="#FF0000" fill="none" stroke-width="4px" />
<path d="M 570.0 105.0 L 580.0 105.0" stroke="#FF0000" fill="none" stroke-width="4px" />
<path d="M 580.0 105.0 L 580.0 115.0" stroke="#FF0000" fill="none" stroke-width="4px" />
<path d="M 580.0 115.0 L 570.0 115.0" stroke="#FF0000" fill="none" stroke-width="4px" />
<path d="M 570.0 115.0 L 560.0 115.0" stroke="#FF0000" fill="none" stroke-width="4px" />
<path d="M 560.0 115.0 L 550.0 115.0" stroke="#FF0000" fill="none" stroke-width="4px" />
<path d="M 550.0 115.0 L 560.0 125.0" stroke="#FF0000" fill="none" stroke-width="4px" />
<path d="M 560.0 125.0 L 570.0 125.0" stroke="#FF0000" fill="none" stroke-width="4px" />
<path d="M 570.0 125.0 L 580.0 125.0" stroke="#FF0000" fill="none" stroke-width="4px" />
<path d="M 580.0 125.0 L 570.0 135.0" stroke="#FF0000" fill="none" stroke-width="4px" />
<path d="M 650.0 75.0 L 660.0 75.0" stroke="#FF0000" fill="none" stroke-width="4px" />
<path d="M 660.0 75.0 L 670.0 75.0" stroke="#FF0000" fill="none" stroke-width="4px" />
<path d="M 670.0 75.0 L 680.0 75.0" stroke="#FF0000" fill="none" stroke-width="4px" />
<path d="M 680.0 75.0 L 690.0 75.0" stroke="#FF0000" fill="none" stroke-width="4px" />
<path d="M 690.0 75.0 L 700.0 75.0" stroke="#FF0000" fill="none" stroke-width="4px" />
<path d="M 700.0 75.0 L 710.0 75.0" stroke="#FF0000" fill="none" stroke-width="4px" />
<path d="M 710.0 75.0 L 720.0 75.0" stroke="#FF0000" fill="none" stroke-width="4px" />
<path d="M 720.0 75.0 L 730.0 75.0" stroke="#FF0000" fill="none" stroke-width="4px" />
<path d="M 730.0 75.0 L 730.0 85.0" stroke="#FF0000" fill="none" stroke-width="4px" />
<path d="M 730.0 85.0 L 720.0 85.0" stroke="#FF0000" fill="none" stroke-width="4px" />
<path d="M 720.0 85.0 L 710.0 85.0" stroke="#FF0000" fill="none" stroke-width="4px" />
<path d="M 710.0 85.0 L 700.0 85.0" stroke="#FF0000" fill="none" stroke-width="4px" />
<path d="M 700.0 85.0 L 690.0 85.0" stroke="#FF0000" fill="none" stroke-width="4px" />
<path d="M 690.0 85.0 L 680.0 85.0" stroke="#FF0000" fill="none" stroke-width="4px" />
<path d="M 680.0 85.0 L 680.0 95.0" stroke="#FF0000" fill="none" stroke-width="4px" />
<path d="M 680.0 95.0 L 690.0 95.0" stroke="#FF0000" fill="none" stroke-width="4px" />
<path d="M 690.0 95.0 L 700.0 95.0" stroke="#FF0000" fill="none" stroke-width="4px" />
<path d="M 700.0 95.0 L 710.0 95.0" stroke="#FF0000" fill="none" stroke-width="4px" />
<path d="M 710.0 95.0 L 720.0 95.0" stroke="#FF0000" fill="none" stroke-width="4px" />
<path d="M 720.0 95.0 L 730.0 95.0" stroke="#FF0000" fill="none" stroke-width="4px" />
<path d="M 730.0 95.0 L 730.0 105.0" stroke="#FF0000" fill="none" stroke-width="4px" />
<path d="M 730.0 105.0 L 720.0 105.0" stroke="#FF0000" fill="none" stroke-width="4px" />
<path d="M 720.0 105.0 L 710.0 105.0" stroke="#FF0000" fill="none" stroke-width="4px" />
<path d="M 710.0 105.0 L 700.0 105.0" stroke="#FF0000" fill="none" stroke-width="4px" />
<path d="M 700.0 105.0 L 690.0 105.0" stroke="#FF0000" fill="none" stroke-width="4px" />
<path d="M 690.0 105.0 L 700.0 115.0" stroke="#FF0000" fill="none" stroke-width="4px" />
<path d="M 700.0 115.0 L 710.0 115.0" stroke="#FF0000" fill="none" stroke-width="4px" />
<path d="M 710.0 115.0 L 720.0 115.0" stroke="#FF0000" fill="none" stroke-width="4px" />
<path d="M 720.0 65.0 L 710.0 65.0" stroke="#FF0000" fill="none" stroke-width="4px" />
<path d="M 710.0 65.0 L 700.0 65.0" stroke="#FF0000" fill="none" stroke-width="4px" />
<path d="M 700.0 65.0 L 690.0 65.0" stroke="#FF0000" fill="none" stroke-width="4px" />
<path d="M 690.0 65.0 L 680.0 65.0" stroke="#FF0000" fill="none" stroke-width="4px" />
<path d="M 680.0 65.0 L 670.0 65.0" stroke="#FF0000" fill="none" stroke-width="4px" />
<path d="M 670.0 65.0 L 660.0 65.0" stroke="#FF0000" fill="none" stroke-width="4px" />
<path d="M 660.0 65.0 L 650.0 65.0" stroke="#FF0000" fill="none" stroke-width="4px" />
<path d="M 650.0 65.0 L 640.0 65.0" stroke="#FF0000" fill="none" stroke-width="4px" />
<path d="M 640.0 65.0 L 640.0 55.0" stroke="#FF0000" fill="none" stroke-width="4px" />
<path d="M 640.0 55.0 L 650.0 55.0" stroke="#FF0000" fill="none" stroke-width="4px" />
<path d="M 650.0 55.0 L 660.0 55.0" stroke="#FF0000" fill="none" stroke-width="4px" />
<path d="M 660.0 55.0 L 670.0 55.0" stroke="#FF0000" fill="none" stroke-width="4px" />
<path d="M 670.0 55.0 L 680.0 55.0" stroke="#FF0000" fill="none" stroke-width="4px" />
<path d="M 680.0 55.0 L 690.0 55.0" stroke="#FF0000" fill="none" stroke-width="4px" />
<path d="M 690.0 55.0 L 700.0 55.0" stroke="#FF0000" fill="none" stroke-width="4px" />
<path d="M 700.0 55.0 L 710.0 55.0" stroke="#FF0000" fill="none" stroke-width="4px" />
<path d="M 710.0 55.0 L 700.0 45.0" stroke="#FF0000" fill="none" stroke-width="4px" />
<path d="M 700.0 45.0 L 690.0 45.0" stroke="#FF0000" fill="none" stroke-width="4px" />
<path d="M 690.0 45.0 L 680.0 45.0" stroke="#FF0000" fill="none" stroke-width="4px" />
<path d="M 680.0 45.0 L 670.0 45.0" stroke="#FF0000" fill="none" stroke-width="4px" />
<path d="M 670.0 45.0 L 660.0 45.0" stroke="#FF0000" fill="none" stroke-width="4px" />
<path d="M 660.0 45.0 L 650.0 45.0" stroke="#FF0000" fill="none" stroke-width="4px" />
<path d="M 590.0 55.0 L 580.0 55.0" stroke="#FF0000" fill="none" stroke-width="4px" />
<path d="M 580.0 55.0 L 570.0 55.0" stroke="#FF0000" fill="none" stroke-width="4px" />
<path d="M 570.0 55.0 L 560.0 55.0" stroke="#FF0000" fill="none" stroke-width="4px" />
<path d="M 560.0 55.0 L 550.0 55.0" stroke="#FF0000" fill="none" stroke-width="4px" />
<path d="M 550.0 55.0 L 540.0 55.0" stroke="#FF0000" fill="none" stroke-width="4px" />
<path d="M 540.0 55.0 L 530.0 55.0" stroke="#FF0000" fill="none" stroke-width="4px" />
<path d="M 530.0 55.0 L 520.0 55.0" stroke="#FF0000" fill="none" stroke-width="4px" />
<path d="M 520.0 55.0 L 510.0 55.0" stroke="#FF0000" fill="none" stroke-width="4px" />
<path d="M 510.0 55.0 L 500.0 55.0" stroke="#FF0000" fill="none" stroke-width="4px" />
<path d="M 500.0 55.0 L 510.0 45.0" stroke="#FF0000" fill="none" stroke-width="4px" />
<path d="M 510.0 45.0 L 520.0 45.0" stroke="#FF0000" fill="none" stroke-width="4px" />
<path d="M 520.0 45.0 L 530.0 45.0" stroke="#FF0000" fill="none" stroke-width="4px" />
<path d="M 530.0 45.0 L 540.0 45.0" stroke="#FF0000" fill="none" stroke-width="4px" />
<path d="M 540.0 45.0 L 550.0 45.0" stroke="#FF0000" fill="none" stroke-width="4px" />
<path d="M 550.0 45.0 L 560.0 45.0" stroke="#FF0000" fill="none" stroke-width="4px" />
<path d="M 560.0 45.0 L 570.0 45.0" stroke="#FF0000" fill="none" stroke-width="4px" />
<path d="M 570.0 45.0 L 580.0 45.0" stroke="#FF0000" fill="none" stroke-width="4px" />
<path d="M 580.0 45.0 L 570.0 35.0" stroke="#FF0000" fill="none" stroke-width="4px" />
<path d="M 570.0 35.0 L 560.0 35.0" stroke="#FF0000" fill="none" stroke-width="4px" />
<path d="M 560.0 35.0 L 550.0 35.0" stroke="#FF0000" fill="none" stroke-width="4px" />
<path d="M 550.0 35.0 L 540.0 35.0" stroke="#FF0000" fill="none" stroke-width="4px" />
<path d="M 540.0 35.0 L 530.0 35.0" stroke="#FF0000" fill="none" stroke-width="4px" />
<path d="M 530.0 35.0 L 520.0 35.0" stroke="#FF0000" fill="none" stroke-width="4px" />
<path d="M 810.0 55.0 L 820.0 55.0" stroke="#FF0000" fill="none" stroke-width="4px" />
<path d="M 820.0 55.0 L 830.0 55.0" stroke="#FF0000" fill="none" stroke-width="4px" />
<path d="M 830.0 55.0 L 840.0 55.0" stroke="#FF0000" fill="none" stroke-width="4px" />
<path d="M 840.0 55.0 L 850.0 55.0" stroke="#FF0000" fill="none" stroke-width="4px" />
<path d="M 850.0 55.0 L 840.0 65.0" stroke="#FF0000" fill="none" stroke-width="4px" />
<path d="M 840.0 65.0 L 830.0 65.0" stroke="#FF0000" fill="none" stroke-width="4px" />
<path d="M 830.0 65.0 L 820.0 65.0" stroke="#FF0000" fill="none" stroke-width="4px" />
<path d="M 820.0 65.0 L 830.0 75.0" stroke="#FF0000" fill="none" stroke-width="4px" />
<path d="M 860.0 85.0 L 870.0 85.0" stroke="#FF0000" fill="none" stroke-width="4px" />
<path d="M 870.0 85.0 L 880.0 85.0" stroke="#FF0000" fill="none" stroke-width="4px" />
<path d="M 880.0 85.0 L 890.0 85.0" stroke="#FF0000" fill="none" stroke-width="4px" />
<path d="M 890.0 85.0 L 900.0 85.0" stroke="#FF0000" fill="none" stroke-width="4px" />
<path d="M 900.0 85.0 L 910.0 85.0" stroke="#FF0000" fill="none" stroke-width="4px" />
<path d="M 910.0 85.0 L 910.0 95.0" stroke="#FF0000" fill="none" stroke-width="4px" />
<path d="M 910.0 95.0 L 900.0 95.0" stroke="#FF0000" fill="none" stroke-width="4px" />
<path d="M 900.0 95.0 L 890.0 95.0" stroke="#FF0000" fill="none" stroke-width="4px" />
<path d="M 890.0 95.0 L 880.0 95.0" stroke="#FF0000" fill="none" stroke-width="4px" />
<path d="M 880.0 95.0 L 870.0 95.0" stroke="#FF0000" fill="none" stroke-width="4px" />
<path d="M 870.0 95.0 L 860.0 95.0" stroke="#FF0000" fill="none" stroke-width="4px" />
<path d="M 860.0 95.0 L 850.0 95.0" stroke="#FF0000" fill="none" stroke-width="4px" />
<path d="M 850.0 95.0 L 860.0 105.0" stroke="#FF0000" fill="none" stroke-width="4px" />
<path d="M 860.0 105.0 L 870.0 105.0" stroke="#FF0000" fill="none" stroke-width="4px" />
<path d="M 870.0 105.0 L 880.0 105.0" stroke="#FF0000" fill="none" stroke-width="4px" />
<path d="M 880.0 105.0 L 890.0 105.0" stroke="#FF0000" fill="none" stroke-width="4px" />
<path d="M 890.0 105.0 L 900.0 105.0" stroke="#FF0000" fill="none" stroke-width="4px" />
<path d="M 900.0 105.0 L 890.0 115.0" stroke="#FF0000" fill="none" stroke-width="4px" />
<path d="M 890.0 115.0 L 880.0 115.0" stroke="#FF0000" fill="none" stroke-width="4px" />
<path d="M 880.0 115.0 L 870.0 115.0" stroke="#FF0000" fill="none" stroke-width="4px" />
<path d="M 870.0 115.0 L 880.0 125.0" stroke="#FF0000" fill="none" stroke-width="4px" />
<path d="M 880.0 125.0 L 890.0 125.0" stroke="#FF0000" fill="none" stroke-width="4px" />
<path d="M 890.0 125.0 L 900.0 125.0" stroke="#FF0000" fill="none" stroke-width="4px" />
<path d="M 900.0 125.0 L 900.0 135.0" stroke="#FF0000" fill="none" stroke-width="4px" />
<path d="M 900.0 135.0 L 890.0 135.0" stroke="#FF0000" fill="none" stroke-width="4px" />
<path d="M 890.0 135.0 L 880.0 135.0" stroke="#FF0000" fill="none" stroke-width="4px" />
<path d="M 880.0 135.0 L 870.0 135.0" stroke="#FF0000" fill="none" stroke-width="4px" />
<path d="M 870.0 135.0 L 870.0 145.0" stroke="#FF0000" fill="none" stroke-width="4px" />
<path d="M 870.0 145.0 L 860.0 145.0" stroke="#FF0000" fill="none" stroke-width="4px" />
<path d="M 860.0 145.0 L 860.0 155.0" stroke="#FF0000" fill="none" stroke-width="4px" />
<path d="M 860.0 155.0 L 870.0 155.0" stroke="#FF0000" fill="none" stroke-width="4px" />
<path d="M 870.0 155.0 L 880.0 155.0" stroke="#FF0000" fill="none" stroke-width="4px" />
<path d="M 880.0 155.0 L 890.0 155.0" stroke="#FF0000" fill="none" stroke-width="4px" />
<path d="M 890.0 155.0 L 900.0 155.0" stroke="#FF0000" fill="none" stroke-width="4px" />
<path d="M 900.0 155.0 L 910.0 155.0" stroke="#FF0000" fill="none" stroke-width="4px" />
<path d="M 910.0 155.0 L 920.0 155.0" stroke="#FF0000" fill="none" stroke-width="4px" />
<path d="M 920.0 155.0 L 920.0 165.0" stroke="#FF0000" fill="none" stroke-width="4px" />
<path d="M 920.0 165.0 L 910.0 165.0" stroke="#FF0000" fill="none" stroke-width="4px" />
<path d="M 910.0 165.0 L 900.0 165.0" stroke="#FF0000" fill="none" stroke-width="4px" />
<path d="M 900.0 165.0 L 890.0 165.0" stroke="#FF0000" fill="none" stroke-width="4px" />
<path d="M 890.0 165.0 L 880.0 165.0" stroke="#FF0000" fill="none" stroke-width="4px" />
<path d="M 880.0 165.0 L 870.0 165.0" stroke="#FF0000" fill="none" stroke-width="4px" />
<path d="M 870.0 165.0 L 860.0 165.0" stroke="#FF0000" fill="none" stroke-width="4px" />
<path d="M 860.0 165.0 L 870.0 175.0" stroke="#FF0000" fill="none" stroke-width="4px" />
<path d="M 870.0 175.0 L 880.0 175.0" stroke="#FF0000" fill="none" stroke-width="4px" />
<path d="M 880.0 175.0 L 890.0 175.0" stroke="#FF0000" fill="none" stroke-width="4px" />
<path d="M 890.0 175.0 L 900.0 175.0" stroke="#FF0000" fill="none" stroke-width="4px" />
<path d="M 900.0 175.0 L 910.0 175.0" stroke="#FF0000" fill="none" stroke-width="4px" />
<path d="M 910.0 145.0 L 900.0 145.0" stroke="#FF0000" fill="none" stroke-width="4px" />
<path d="M 900.0 145.0 L 890.0 145.0" stroke="#FF0000" fill="none" stroke-width="4px" />
<path d="M 890.0 145.0 L 880.0 145.0" stroke="#FF0000" fill="none" stroke-width="4px" />
<path d="M 910.0 135.0 L 920.0 135.0" stroke="#FF0000" fill="none" stroke-width="4px" />
<path d="M 920.0 135.0 L 920.0 145.0" stroke="#FF0000" fill="none" stroke-width="4px" />
<path d="M 910.0 75.0 L 900.0 75.0" stroke="#FF0000" fill="none" stroke-width="4px" />
<path d="M 900.0 75.0 L 890.0 75.0" stroke="#FF0000" fill="none" stroke-width="4px" />
<path d="M 890.0 75.0 L 880.0 75.0" stroke="#FF0000" fill="none" stroke-width="4px" />
<path d="M 880.0 75.0 L 870.0 75.0" stroke="#FF0000" fill="none" stroke-width="4px" />
<path d="M 870.0 75.0 L 880.0 65.0" stroke="#FF0000" fill="none" stroke-width="4px" />
<path d="M 880.0 65.0 L 890.0 65.0" stroke="#FF0000" fill="none" stroke-width="4px" />
<path d="M 890.0 65.0 L 900.0 65.0" stroke="#FF0000" fill="none" stroke-width="4px" />
<path d="M 890.0 45.0 L 880.0 45.0" stroke="#FF0000" fill="none" stroke-width="4px" />
<path d="M 880.0 45.0 L 880.0 35.0" stroke="#FF0000" fill="none" stroke-width="4px" />
<path d="M 880.0 35.0 L 870.0 35.0" stroke="#FF0000" fill="none" stroke-width="4px" />
<path d="M 870.0 35.0 L 870.0 25.0" stroke="#FF0000" fill="none" stroke-width="4px" />
<path d="M 870.0 25.0 L 880.0 25.0" stroke="#FF0000" fill="none" stroke-width="4px" />
<path d="M 880.0 25.0 L 890.0 25.0" stroke="#FF0000" fill="none" stroke-width="4px" />
<path d="M 890.0 25.0 L 900.0 25.0" stroke="#FF0000" fill="none" stroke-width="4px" />
<path d="M 900.0 25.0 L 900.0 35.0" stroke="#FF0000" fill="none" stroke-width="4px" />
<path d="M 900.0 35.0 L 890.0 35.0" stroke="#FF0000" fill="none" stroke-width="4px" />
<path d="M 890.0 15.0 L 880.0 15.0" stroke="#FF0000" fill="none" stroke-width="4px" />
<path d="M 880.0 15.0 L 870.0 15.0" stroke="#FF0000" fill="none" stroke-width="4px" />
<path d="M 870.0 15.0 L 880.0 5.0" stroke="#FF0000" fill="none" stroke-width="4px" />
<path d="M 880.0 5.0 L 890.0 5.0" stroke="#FF0000" fill="none" stroke-width="4px" />
<path d="M 890.0 5.0 L 890.0 -5.0" stroke="#FF0000" fill="none" stroke-width="4px" />
<path d="M 890.0 -5.0 L 880.0 -5.0" stroke="#FF0000" fill="none" stroke-width="4px" />
<path d="M 840.0 45.0 L 830.0 45.0" stroke="#FF0000" fill="none" stroke-width="4px" />
<path d="M 830.0 45.0 L 820.0 45.0" stroke="#FF0000" fill="none" stroke-width="4px" />
<path d="M 820.0 45.0 L 830.0 35.0" stroke="#FF0000" fill="none" stroke-width="4px" />
<path d="M 1460.0 105.0 L 1470.0 105.0" stroke="#FF0000" fill="none" stroke-width="4px" />
<path d="M 1470.0 105.0 L 1480.0 105.0" stroke="#FF0000" fill="none" stroke-width="4px" />
<path d="M 1480.0 105.0 L 1490.0 105.0" stroke="#FF0000" fill="none" stroke-width="4px" />
<path d="M 1490.0 105.0 L 1500.0 105.0" stroke="#FF0000" fill="none" stroke-width="4px" />
<path d="M 1500.0 105.0 L 1500.0 115.0" stroke="#FF0000" fill="none" stroke-width="4px" />
<path d="M 1500.0 115.0 L 1490.0 115.0" stroke="#FF0000" fill="none" stroke-width="4px" />
<path d="M 1490.0 115.0 L 1480.0 115.0" stroke="#FF0000" fill="none" stroke-width="4px" />
<path d="M 1480.0 115.0 L 1470.0 115.0" stroke="#FF0000" fill="none" stroke-width="4px" />
<path d="M 1470.0 115.0 L 1470.0 125.0" stroke="#FF0000" fill="none" stroke-width="4px" />
<path d="M 1470.0 125.0 L 1460.0 125.0" stroke="#FF0000" fill="none" stroke-width="4px" />
<path d="M 1460.0 125.0 L 1460.0 135.0" stroke="#FF0000" fill="none" stroke-width="4px" />
<path d="M 1460.0 135.0 L 1470.0 135.0" stroke="#FF0000" fill="none" stroke-width="4px" />
<path d="M 1470.0 135.0 L 1480.0 135.0" stroke="#FF0000" fill="none" stroke-width="4px" />
<path d="M 1480.0 135.0 L 1490.0 135.0" stroke="#FF0000" fill="none" stroke-width="4px" />
<path d="M 1490.0 135.0 L 1500.0 135.0" stroke="#FF0000" fill="none" stroke-width="4px" />
<path d="M 1500.0 135.0 L 1510.0 135.0" stroke="#FF0000" fill="none" stroke-width="4px" />
<path d="M 1510.0 135.0 L 1510.0 145.0" stroke="#FF0000" fill="none" stroke-width="4px" />
<path d="M 1510.0 145.0 L 1500.0 145.0" stroke="#FF0000" fill="none" stroke-width="4px" />
<path d="M 1500.0 145.0 L 1490.0 145.0" stroke="#FF0000" fill="none" stroke-width="4px" />
<path d="M 1490.0 145.0 L 1480.0 145.0" stroke="#FF0000" fill="none" stroke-width="4px" />
<path d="M 1480.0 145.0 L 1470.0 145.0" stroke="#FF0000" fill="none" stroke-width="4px" />
<path d="M 1470.0 145.0 L 1480.0 155.0" stroke="#FF0000" fill="none" stroke-width="4px" />
<path d="M 1480.0 155.0 L 1490.0 155.0" stroke="#FF0000" fill="none" stroke-width="4px" />
<path d="M 1490.0 155.0 L 1500.0 155.0" stroke="#FF0000" fill="none" stroke-width="4px" />
<path d="M 1500.0 155.0 L 1490.0 165.0" stroke="#FF0000" fill="none" stroke-width="4px" />
<path d="M 1490.0 125.0 L 1480.0 125.0" stroke="#FF0000" fill="none" stroke-width="4px" />
<path d="M 1480.0 125.0 L 1500.0 125.0" stroke="#FF0000" fill="none" stroke-width="4px" />
<path d="M 1500.0 125.0 L 1510.0 125.0" stroke="#FF0000" fill="none" stroke-width="4px" />
<path d="M 1510.0 125.0 L 1510.0 115.0" stroke="#FF0000" fill="none" stroke-width="4px" />
<path d="M 1540.0 115.0 L 1550.0 115.0" stroke="#FF0000" fill="none" stroke-width="4px" />
<path d="M 1550.0 115.0 L 1560.0 115.0" stroke="#FF0000" fill="none" stroke-width="4px" />
<path d="M 1560.0 115.0 L 1570.0 115.0" stroke="#FF0000" fill="none" stroke-width="4px" />
<path d="M 1570.0 115.0 L 1580.0 115.0" stroke="#FF0000" fill="none" stroke-width="4px" />
<path d="M 1580.0 115.0 L 1590.0 115.0" stroke="#FF0000" fill="none" stroke-width="4px" />
<path d="M 1590.0 115.0 L 1600.0 115.0" stroke="#FF0000" fill="none" stroke-width="4px" />
<path d="M 1600.0 115.0 L 1600.0 125.0" stroke="#FF0000" fill="none" stroke-width="4px" />
<path d="M 1600.0 125.0 L 1590.0 125.0" stroke="#FF0000" fill="none" stroke-width="4px" />
<path d="M 1590.0 125.0 L 1580.0 125.0" stroke="#FF0000" fill="none" stroke-width="4px" />
<path d="M 1580.0 125.0 L 1570.0 125.0" stroke="#FF0000" fill="none" stroke-width="4px" />
<path d="M 1570.0 125.0 L 1560.0 125.0" stroke="#FF0000" fill="none" stroke-width="4px" />
<path d="M 1560.0 125.0 L 1550.0 125.0" stroke="#FF0000" fill="none" stroke-width="4px" />
<path d="M 1550.0 125.0 L 1550.0 135.0" stroke="#FF0000" fill="none" stroke-width="4px" />
<path d="M 1550.0 135.0 L 1560.0 135.0" stroke="#FF0000" fill="none" stroke-width="4px" />
<path d="M 1560.0 135.0 L 1570.0 135.0" stroke="#FF0000" fill="none" stroke-width="4px" />
<path d="M 1570.0 135.0 L 1580.0 135.0" stroke="#FF0000" fill="none" stroke-width="4px" />
<path d="M 1580.0 135.0 L 1590.0 135.0" stroke="#FF0000" fill="none" stroke-width="4px" />
<path d="M 1590.0 135.0 L 1580.0 145.0" stroke="#FF0000" fill="none" stroke-width="4px" />
<path d="M 1580.0 145.0 L 1570.0 145.0" stroke="#FF0000" fill="none" stroke-width="4px" />
<path d="M 1570.0 145.0 L 1560.0 145.0" stroke="#FF0000" fill="none" stroke-width="4px" />
<path d="M 1560.0 105.0 L 1550.0 105.0" stroke="#FF0000" fill="none" stroke-width="4px" />
<path d="M 1550.0 105.0 L 1540.0 105.0" stroke="#FF0000" fill="none" stroke-width="4px" />
<path d="M 1540.0 105.0 L 1550.0 95.0" stroke="#FF0000" fill="none" stroke-width="4px" />
<path d="M 1550.0 95.0 L 1560.0 95.0" stroke="#FF0000" fill="none" stroke-width="4px" />
<path d="M 1560.0 95.0 L 1570.0 95.0" stroke="#FF0000" fill="none" stroke-width="4px" />
<path d="M 1570.0 95.0 L 1580.0 95.0" stroke="#FF0000" fill="none" stroke-width="4px" />
<path d="M 1580.0 95.0 L 1590.0 95.0" stroke="#FF0000" fill="none" stroke-width="4px" />
<path d="M 1590.0 95.0 L 1590.0 105.0" stroke="#FF0000" fill="none" stroke-width="4px" />
<path d="M 1590.0 105.0 L 1580.0 105.0" stroke="#FF0000" fill="none" stroke-width="4px" />
<path d="M 1580.0 105.0 L 1570.0 105.0" stroke="#FF0000" fill="none" stroke-width="4px" />
<path d="M 1570.0 85.0 L 1560.0 85.0" stroke="#FF0000" fill="none" stroke-width="4px" />
<path d="M 1560.0 85.0 L 1580.0 85.0" stroke="#FF0000" fill="none" stroke-width="4px" />
<path d="M 1490.0 95.0 L 1480.0 95.0" stroke="#FF0000" fill="none" stroke-width="4px" />
<path d="M 1480.0 95.0 L 1470.0 95.0" stroke="#FF0000" fill="none" stroke-width="4px" />
<path d="M 1470.0 95.0 L 1480.0 85.0" stroke="#FF0000" fill="none" stroke-width="4px" />
<path d="M 2470.0 145.0 L 2460.0 145.0" stroke="#FF0000" fill="none" stroke-width="4px" />
<path d="M 2460.0 145.0 L 2460.0 135.0" stroke="#FF0000" fill="none" stroke-width="4px" />
<path d="M 2460.0 135.0 L 2450.0 135.0" stroke="#FF0000" fill="none" stroke-width="4px" />
<path d="M 2450.0 135.0 L 2450.0 125.0" stroke="#FF0000" fill="none" stroke-width="4px" />
<path d="M 2450.0 125.0 L 2440.0 125.0" stroke="#FF0000" fill="none" stroke-width="4px" />
<path d="M 2440.0 125.0 L 2440.0 115.0" stroke="#FF0000" fill="none" stroke-width="4px" />
<path d="M 2440.0 115.0 L 2450.0 115.0" stroke="#FF0000" fill="none" stroke-width="4px" />
<path d="M 2450.0 115.0 L 2460.0 115.0" stroke="#FF0000" fill="none" stroke-width="4px" />
<path d="M 2460.0 115.0 L 2470.0 115.0" stroke="#FF0000" fill="none" stroke-width="4px" />
<path d="M 2470.0 115.0 L 2470.0 125.0" stroke="#FF0000" fill="none" stroke-width="4px" />
<path d="M 2470.0 125.0 L 2460.0 125.0" stroke="#FF0000" fill="none" stroke-width="4px" />
<path d="M 2460.0 125.0 L 2470.0 135.0" stroke="#FF0000" fill="none" stroke-width="4px" />
<path d="M 2470.0 105.0 L 2460.0 105.0" stroke="#FF0000" fill="none" stroke-width="4px" />
<path d="M 2460.0 105.0 L 2450.0 105.0" stroke="#FF0000" fill="none" stroke-width="4px" />
<path d="M 2450.0 105.0 L 2440.0 105.0" stroke="#FF0000" fill="none" stroke-width="4px" />
<path d="M 2440.0 105.0 L 2430.0 105.0" stroke="#FF0000" fill="none" stroke-width="4px" />
<path d="M 2430.0 105.0 L 2420.0 105.0" stroke="#FF0000" fill="none" stroke-width="4px" />
<path d="M 2420.0 105.0 L 2420.0 95.0" stroke="#FF0000" fill="none" stroke-width="4px" />
<path d="M 2420.0 95.0 L 2410.0 95.0" stroke="#FF0000" fill="none" stroke-width="4px" />
<path d="M 2410.0 95.0 L 2410.0 85.0" stroke="#FF0000" fill="none" stroke-width="4px" />
<path d="M 2410.0 85.0 L 2400.0 85.0" stroke="#FF0000" fill="none" stroke-width="4px" />
<path d="M 2400.0 85.0 L 2400.0 75.0" stroke="#FF0000" fill="none" stroke-width="4px" />
<path d="M 2400.0 75.0 L 2410.0 75.0" stroke="#FF0000" fill="none" stroke-width="4px" />
<path d="M 2410.0 75.0 L 2420.0 75.0" stroke="#FF0000" fill="none" stroke-width="4px" />
<path d="M 2420.0 75.0 L 2430.0 75.0" stroke="#FF0000" fill="none" stroke-width="4px" />
<path d="M 2430.0 75.0 L 2440.0 75.0" stroke="#FF0000" fill="none" stroke-width="4px" />
<path d="M 2440.0 75.0 L 2450.0 75.0" stroke="#FF0000" fill="none" stroke-width="4px" />
<path d="M 2450.0 75.0 L 2460.0 75.0" stroke="#FF0000" fill="none" stroke-width="4px" />
<path d="M 2460.0 75.0 L 2460.0 85.0" stroke="#FF0000" fill="none" stroke-width="4px" />
<path d="M 2460.0 85.0 L 2450.0 85.0" stroke="#FF0000" fill="none" stroke-width="4px" />
<path d="M 2450.0 85.0 L 2440.0 85.0" stroke="#FF0000" fill="none" stroke-width="4px" />
<path d="M 2440.0 85.0 L 2430.0 85.0" stroke="#FF0000" fill="none" stroke-width="4px" />
<path d="M 2430.0 85.0 L 2420.0 85.0" stroke="#FF0000" fill="none" stroke-width="4px" />
<path d="M 2420.0 85.0 L 2430.0 95.0" stroke="#FF0000" fill="none" stroke-width="4px" />
<path d="M 2430.0 95.0 L 2440.0 95.0" stroke="#FF0000" fill="none" stroke-width="4px" />
<path d="M 2440.0 95.0 L 2450.0 95.0" stroke="#FF0000" fill="none" stroke-width="4px" />
<path d="M 2450.0 95.0 L 2460.0 95.0" stroke="#FF0000" fill="none" stroke-width="4px" />
<path d="M 2460.0 95.0 L 2470.0 95.0" stroke="#FF0000" fill="none" stroke-width="4px" />
<path d="M 2470.0 95.0 L 2470.0 85.0" stroke="#FF0000" fill="none" stroke-width="4px" />
<path d="M 2450.0 65.0 L 2440.0 65.0" stroke="#FF0000" fill="none" stroke-width="4px" />
<path d="M 2440.0 65.0 L 2430.0 65.0" stroke="#FF0000" fill="none" stroke-width="4px" />
<path d="M 2430.0 65.0 L 2420.0 65.0" stroke="#FF0000" fill="none" stroke-width="4px" />
<path d="M 2420.0 65.0 L 2410.0 65.0" stroke="#FF0000" fill="none" stroke-width="4px" />
<path d="M 2410.0 65.0 L 2400.0 65.0" stroke="#FF0000" fill="none" stroke-width="4px" />
<path d="M 2400.0 65.0 L 2410.0 55.0" stroke="#FF0000" fill="none" stroke-width="4px" />
<path d="M 2410.0 55.0 L 2420.0 55.0" stroke="#FF0000" fill="none" stroke-width="4px" />
<path d="M 2420.0 55.0 L 2430.0 55.0" stroke="#FF0000" fill="none" stroke-width="4px" />
<path d="M 2430.0 55.0 L 2440.0 55.0" stroke="#FF0000" fill="none" stroke-width="4px" />
<path d="M 2440.0 55.0 L 2430.0 45.0" stroke="#FF0000" fill="none" stroke-width="4px" />
<path d="M 2430.0 45.0 L 2420.0 45.0" stroke="#FF0000" fill="none" stroke-width="4px" />
</svg>