<svg width="1332.95833333" height="235.0" xmlns="http://www.w3.org/2000/svg" version="1.1">
<path d="M 0.0 235.0 L 1332.95833333 235.0 L 1332.95833333 0.0 L 0.0 0.0 L 0.0 235.0" stroke="#000000" fill="none" stroke-width="3px" />
<path d="M 10.0 257.5 L 0.0 247.5 L 10.0 237.5" stroke="#969696" fill="none" stroke-width="1px" />
<path d="M 10.0 237.5 L 1322.95833333 237.5" stroke="#969696" fill="none" stroke-width="1px" />
<path d="M 1322.95833333 237.5 L 1332.95833333 227.5 L 1322.95833333 217.5" stroke="#969696" fill="none" stroke-width="1px" />
<path d="M 1322.95833333 217.5 L 10.0 217.5" stroke="#969696" fill="none" stroke-width="1px" />
<path d="M 10.0 217.5 L 0.0 207.5 L 10.0 197.5" stroke="#969696" fill="none" stroke-width="1px" />
<path d="M 10.0 197.5 L 1322.95833333 197.5" stroke="#969696" fill="none" stroke-width="1px" />
<path d="M 1322.95833333 197.5 L 1332.95833333 187.5 L 1322.95833333 177.5" stroke="#969696" fill="none" stroke-width="1px" />
<path d="M 1322.95833333 177.5 L 10.0 177.5" stroke="#969696" fill="none" stroke-width="1px" />
<path d="M 10.0 177.5 L 0.0 167.5 L 10.0 157.5" stroke="#969696" fill="none" stroke-width="1px" />
<path d="M 10.0 157.5 L 1322.95833333 157.5" stroke="#969696" fill="none" stroke-width="1px" />
<path d="M 1322.95833333 157.5 L 1332.95833333 147.5 L 1322.95833333 137.5" stroke="#969696" fill="none" stroke-width="1px" />
<path d="M 1322.95833333 137.5 L 10.0 137.5" stroke="#969696" fill="none" stroke-width="1px" />
<path d="M 10.0 137.5 L 0.0 127.5 L 10.0 117.5" stroke="#969696" fill="none" stroke-width="1px" />
<path d="M 10.0 117.5 L 1322.95833333 117.5" stroke="#969696" fill="none" stroke-width="1px" />
<path d="M 1322.95833333 117.5 L 1332.95833333 107.5 L 1322.95833333 97.5" stroke="#969696" fill="none" stroke-width="1px" />
<path d="M 1322.95833333 97.5 L 10.0 97.5" stroke="#969696" fill="none" stroke-width="1px" />
<path d="M 10.0 97.5 L 0.0 87.5 L 10.0 77.5" stroke="#969696" fill="none" stroke-width="1px" />
<path d="M 10.0 77.5 L 1322.95833333 77.5" stroke="#969696" fill="none" stroke-width="1px" />
<path d="M 1322.95833333 77.5 L 1332.95833333 67.5 L 1322.95833333 57.5" stroke="#969696" fill="none" stroke-width="1px" />
<path d="M 1322.95833333 57.5 L 10.0 57.5" stroke="#969696" fill="none" stroke-width="1px" />
<path d="M 10.0 57.5 L 0.0 47.5 L 10.0 37.5" stroke="#969696" fill="none" stroke-width="1px" />
<path d="M 10.0 37.5 L 1322.95833333 37.5" stroke="#969696" fill="none" stroke-width="1px" />
<path d="M 1322.95833333 37.5 L 1332.95833333 27.5 L 1322.95833333 17.5" stroke="#969696" fill="none" stroke-width="1px" />
<path d="M 1322.95833333 17.5 L 10.0 17.5" stroke="#969696" fill="none" stroke-width="1px" />
<path d="M 10.0 17.5 L 0.0 7.5 L 10.0 -2.5" stroke="#969696" fill="none" stroke-width="1px" />
<path d="M 10.0 -2.5 L 1322.95833333 -2.5" stroke="#969696" fill="none" stroke-width="1px" />
<path d="M 1322.95833333 -2.5 L 1332.95833333 -12.5 L 1322.95833333 -22.5" stroke="#969696" fill="none" stroke-width="1px" />
<path d="M 0.0 235.0 L 486.241666665 55.0" stroke="#0095FF" fill="none" stroke-width="2px" />
<path d="M 526.241666665 85.0 L 546.241666665 95.0" stroke="#0095FF" fill="none" stroke-width="2px" />
<path d="M 576.241666665 95.0 L 576.241666665 45.0" stroke="#0095FF" fill="none" stroke-width="2px" />
<path d="M 586.241666665 45.0 L 806.241666665 85.0" stroke="#0095FF" fill="none" stroke-width="2px" />
<path d="M 816.241666665 115.0 L 846.241666665 95.0" stroke="#0095FF" fill="none" stroke-width="2px" />
<path d="M 846.241666665 95.0 L 826.241666665 75.0" stroke="#0095FF" fill="none" stroke-width="2px" />
<path d="M 816.241666665 75.0 L 966.241666665 105.0" stroke="#0095FF" fill="none" stroke-width="2px" />
<path d="M 1026.24166667 75.0 L 1026.24166667 115.0" stroke="#0095FF" fill="none" stroke-width="2px" />
<path d="M 996.241666665 165.0 L 1036.24166667 115.0" stroke="#0095FF" fill="none" stroke-width="2px" />
<path d="M 486.241666665 55.0 L 496.241666665 55.0" stroke="#FF0000" fill="none" stroke-width="4px" />
<path d="M 496.241666665 55.0 L 506.241666665 55.0" stroke="#FF0000" fill="none" stroke-width="4px" />
<path d="M 506.241666665 55.0 L 516.241666665 55.0" stroke="#FF0000" fill="none" stroke-width="4px" />
<path d="M 516.241666665 55.0 L 526.241666665 55.0" stroke="#FF0000" fill="none" stroke-width="4px" />
<path d="M 526.241666665 55.0 L 536.241666665 55.0" stroke="#FF0000" fill="none" stroke-width="4px" />
<path d="M 536.241666665 55.0 L 546.241666665 55.0" stroke="#FF0000" fill="none" stroke-width="4px" />
<path d="M 546.241666665 55.0 L 556.241666665 55.0" stroke="#FF0000" fill="none" stroke-width="4px" />
<path d="M 556.241666665 55.0 L 566.241666665 55.0" stroke="#FF0000" fill="none" stroke-width="4px" />
<path d="M 566.241666665 55.0 L 576.241666665 55.0" stroke="#FF0000" fill="none" stroke-width="4px" />
<path d="M 576.241666665 55.0 L 586.241666665 55.0" stroke="#FF0000" fill="none" stroke-width="4px" />
<path d="M 586.241666665 55.0 L 596.241666665 55.0" stroke="#FF0000" fill="none" stroke-width="4px" />
<path d="M 596.241666665 55.0 L 596.241666665 65.0" stroke="#FF0000" fill="none" stroke-width="4px" />
<path d="M 596.241666665 65.0 L 586.241666665 65.0" stroke="#FF0000" fill="none" stroke-width="4px" />
<path d="M 586.241666665 65.0 L 576.241666665 65.0" stroke="#FF0000" fill="none" stroke-width="4px" />
<path d="M 576.241666665 65.0 L 566.241666665 65.0" stroke="#FF0000" fill="none" stroke-width="4px" />
<path d="M 566.241666665 65.0 L 556.241666665 65.0" stroke="#FF0000" fill="none" stroke-width="4px" />
<path d="M 556.241666665 65.0 L 546.241666665 65.0" stroke="#FF0000" fill="none" stroke-width="4px" />
<path d="M 546.241666665 65.0 L 536.241666665 65.0" stroke="#FF0000" fill="none" stroke-width="4px" />
<path d="M 536.241666665 65.0 L 526.241666665 65.0" stroke="#FF0000" fill="none" stroke-width="4px" />
<path d="M 526.241666665 65.0 L 516.241666665 65.0" stroke="#FF0000" fill="none" stroke-width="4px" />
<path d="M 516.241666665 65.0 L 506.241666665 65.0" stroke="#FF0000" fill="none" stroke-width="4px" />
<path d="M 506.241666665 65.0 L 496.241666665 65.0" stroke="#FF0000" fill="none" stroke-width="4px" />
<path d="M 496.241666665 65.0 L 506.241666665 75.0" stroke="#FF0000" fill="none" stroke-width="4px" />
<path d="M 506.241666665 75.0 L 516.241666665 75.0" stroke="#FF0000" fill="none" stroke-width="4px" />
<path d="M 516.241666665 75.0 L 526.241666665 75.0" stroke="#FF0000" fill="none" stroke-width="4px" />
<path d="M 526.241666665 75.0 L 536.241666665 75.0" stroke="#FF0000" fill="none" stroke-width="4px" />
<path d="M 536.241666665 75.0 L 546.241666665 75.0" stroke="#FF0000" fill="none" stroke-width="4px" />
<path d="M 546.241666665 75.0 L 556.241666665 75.0" stroke="#FF0000" fill="none" stroke-width="4px" />
<path d="M 556.241666665 75.0 L 566.241666665 75.0" stroke="#FF0000" fill="none" stroke-width="4px" />
<path d="M 566.241666665 75.0 L 576.241666665 75.0" stroke="#FF0000" fill="none" stroke-width="4px" />
<path d="M 576.241666665 75.0 L 586.241666665 75.0" stroke="#FF0000" fill="none" stroke-width="4px" />
<path d="M 586.241666665 75.0 L 596.241666665 75.0" stroke="#FF0000" fill="none" stroke-width="4px" />
<path d="M 596.241666665 75.0 L 586.241666665 85.0" stroke="#FF0000" fill="none" stroke-width="4px" />
<path d="M 586.241666665 85.0 L 576.241666665 85.0" stroke="#FF0000" fill="none" stroke-width="4px" />
<path d="M 576.241666665 85.0 L 566.241666665 85.0" stroke="#FF0000" fill="none" stroke-width="4px" />
<path d="M 566.241666665 85.0 L 556.241666665 85.0" stroke="#FF0000" fill="none" stroke-width="4px" />
<path d="M 556.241666665 85.0 L 546.241666665 85.0" stroke="#FF0000" fill="none" stroke-width="4px" />
<path d="M 546.241666665 85.0 L 536.241666665 85.0" stroke="#FF0000" fill="none" stroke-width="4px" />
<path d="M 536.241666665 85.0 L 526.241666665 85.0" stroke="#FF0000" fill="none" stroke-width="4px" />
<path d="M 546.241666665 95.0 L 556.241666665 95.0" stroke="#FF0000" fill="none" stroke-width="4px" />
<path d="M 556.241666665 95.0 L 566.241666665 95.0" stroke="#FF0000" fill="none" stroke-width="4px" />
<path d="M 566.241666665 95.0 L 576.241666665 95.0" stroke="#FF0000" fill="none" stroke-width="4px" />
<path d="M 576.241666665 45.0 L 566.241666665 45.0" stroke="#FF0000" fill="none" stroke-width="4px" />
<path d="M 566.241666665 45.0 L 556.241666665 45.0" stroke="#FF0000" fill="none" stroke-width="4px" />
<path d="M 556.241666665 45.0 L 546.241666665 45.0" stroke="#FF0000" fill="none" stroke-width="4px" />
<path d="M 546.241666665 45.0 L 536.241666665 45.0" stroke="#FF0000" fill="none" stroke-width="4px" />
<path d="M 536.241666665 45.0 L 526.241666665 45.0" stroke="#FF0000" fill="none" stroke-width="4px" />
<path d="M 526.241666665 45.0 L 516.241666665 45.0" stroke="#FF0000" fill="none" stroke-width="4px" />
<path d="M 516.241666665 45.0 L 506.241666665 45.0" stroke="#FF0000" fill="none" stroke-width="4px" />
<path d="M 506.241666665 45.0 L 496.241666665 45.0" stroke="#FF0000" fill="none" stroke-width="4px" />
<path d="M 496.241666665 45.0 L 486.241666665 45.0" stroke="#FF0000" fill="none" stroke-width="4px" />
<path d="M 486.241666665 45.0 L 496.241666665 35.0" stroke="#FF0000" fill="none" stroke-width="4px" />
<path d="M 496.241666665 35.0 L 506.241666665 35.0" stroke="#FF0000" fill="none" stroke-width="4px" />
<path d="M 506.241666665 35.0 L 516.241666665 35.0" stroke="#FF0000" fill="none" stroke-width="4px" />
<path d="M 516.241666665 35.0 L 526.241666665 35.0" stroke="#FF0000" fill="none" stroke-width="4px" />
<path d="M 526.241666665 35.0 L 536.241666665 35.0" stroke="#FF0000" fill="none" stroke-width="4px" />
<path d="M 536.241666665 35.0 L 546.241666665 35.0" stroke="#FF0000" fill="none" stroke-width="4px" />
<path d="M 546.241666665 35.0 L 556.241666665 35.0" stroke="#FF0000" fill="none" stroke-width="4px" />
<path d="M 556.241666665 35.0 L 566.241666665 35.0" stroke="#FF0000" fill="none" stroke-width="4px" />
<path d="M 566.241666665 35.0 L 576.241666665 35.0" stroke="#FF0000" fill="none" stroke-width="4px" />
<path d="M 576.241666665 35.0 L 586.241666665 45.0" stroke="#FF0000" fill="none" stroke-width="4px" />
<path d="M 806.241666665 85.0 L 816.241666665 85.0" stroke="#FF0000" fill="none" stroke-width="4px" />
<path d="M 816.241666665 85.0 L 826.241666665 85.0" stroke="#FF0000" fill="none" stroke-width="4px" />
<path d="M 826.241666665 85.0 L 836.241666665 85.0" stroke="#FF0000" fill="none" stroke-width="4px" />
<path d="M 836.241666665 85.0 L 836.241666665 95.0" stroke="#FF0000" fill="none" stroke-width="4px" />
<path d="M 836.241666665 95.0 L 826.241666665 95.0" stroke="#FF0000" fill="none" stroke-width="4px" />
<path d="M 826.241666665 95.0 L 816.241666665 95.0" stroke="#FF0000" fill="none" stroke-width="4px" />
<path d="M 816.241666665 95.0 L 806.241666665 95.0" stroke="#FF0000" fill="none" stroke-width="4px" />
<path d="M 806.241666665 95.0 L 806.241666665 105.0" stroke="#FF0000" fill="none" stroke-width="4px" />
<path d="M 806.241666665 105.0 L 816.241666665 105.0" stroke="#FF0000" fill="none" stroke-width="4px" />
<path d="M 816.241666665 105.0 L 826.241666665 105.0" stroke="#FF0000" fill="none" stroke-width="4px" />
<path d="M 826.241666665 105.0 L 836.241666665 105.0" stroke="#FF0000" fill="none" stroke-width="4px" />
<path d="M 836.241666665 105.0 L 826.241666665 115.0" stroke="#FF0000" fill="none" stroke-width="4px" />
<path d="M 826.241666665 115.0 L 816.241666665 115.0" stroke="#FF0000" fill="none" stroke-width="4px" />
<path d="M 826.241666665 75.0 L 816.241666665 75.0" stroke="#FF0000" fill="none" stroke-width="4px" />
<path d="M 966.241666665 105.0 L 976.241666665 105.0" stroke="#FF0000" fill="none" stroke-width="4px" />
<path d="M 976.241666665 105.0 L 986.241666665 105.0" stroke="#FF0000" fill="none" stroke-width="4px" />
<path d="M 986.241666665 105.0 L 996.241666665 105.0" stroke="#FF0000" fill="none" stroke-width="4px" />
<path d="M 996.241666665 105.0 L 1006.24166667 105.0" stroke="#FF0000" fill="none" stroke-width="4px" />
<path d="M 1006.24166667 105.0 L 1016.24166667 105.0" stroke="#FF0000" fill="none" stroke-width="4px" />
<path d="M 1016.24166667 105.0 L 1026.24166667 105.0" stroke="#FF0000" fill="none" stroke-width="4px" />
<path d="M 1026.24166667 105.0 L 1036.24166667 105.0" stroke="#FF0000" fill="none" stroke-width="4px" />
<path d="M 1036.24166667 105.0 L 1046.24166667 105.0" stroke="#FF0000" fill="none" stroke-width="4px" />
<path d="M 1046.24166667 105.0 L 1046.24166667 95.0" stroke="#FF0000" fill="none" stroke-width="4px" />
<path d="M 1046.24166667 95.0 L 1036.24166667 95.0" stroke="#FF0000" fill="none" stroke-width="4px" />
<path d="M 1036.24166667 95.0 L 1026.24166667 95.0" stroke="#FF0000" fill="none" stroke-width="4px" />
<path d="M 1026.24166667 95.0 L 1016.24166667 95.0" stroke="#FF0000" fill="none" stroke-width="4px" />
<path d="M 1016.24166667 95.0 L 1006.24166667 95.0" stroke="#FF0000" fill="none" stroke-width="4px" />
<path d="M 1006.24166667 95.0 L 996.241666665 95.0" stroke="#FF0000" fill="none" stroke-width="4px" />
<path d="M 996.241666665 95.0 L 986.241666665 95.0" stroke="#FF0000" fill="none" stroke-width="4px" />
<path d="M 986.241666665 95.0 L 976.241666665 95.0" stroke="#FF0000" fill="none" stroke-width="4px" />
<path d="M 976.241666665 95.0 L 986.241666665 85.0" stroke="#FF0000" fill="none" stroke-width="4px" />
<path d="M 986.241666665 85.0 L 996.241666665 85.0" stroke="#FF0000" fill="none" stroke-width="4px" />
<path d="M 996.241666665 85.0 L 1006.24166667 85.0" stroke="#FF0000" fill="none" stroke-width="4px" />
<path d="M 1006.24166667 85.0 L 1016.24166667 85.0" stroke="#FF0000" fill="none" stroke-width="4px" />
<path d="M 1016.24166667 85.0 L 1026.24166667 85.0" stroke="#FF0000" fill="none" stroke-width="4px" />
<path d="M 1026.24166667 85.0 L 1036.24166667 85.0" stroke="#FF0000" fill="none" stroke-width="4px" />
<path d="M 1036.24166667 85.0 L 1046.24166667 85.0" stroke="#FF0000" fill="none" stroke-width="4px" />
<path d="M 1046.24166667 85.0 L 1036.24166667 75.0" stroke="#FF0000" fill="none" stroke-width="4px" />
<path d="M 1036.24166667 75.0 L 1026.24166667 75.0" stroke="#FF0000" fill="none" stroke-width="4px" />
<path d="M 1026.24166667 115.0 L 1016.24166667 115.0" stroke="#FF0000" fill="none" stroke-width="4px" />
<path d="M 1016.24166667 115.0 L 1006.24166667 115.0" stroke="#FF0000" fill="none" stroke-width="4px" />
<path d="M 1006.24166667 115.0 L 996.241666665 115.0" stroke="#FF0000" fill="none" stroke-width="4px" />
<path d="M 996.241666665 115.0 L 986.241666665 115.0" stroke="#FF0000" fill="none" stroke-width="4px" />
<path d="M 986.241666665 115.0 L 976.241666665 115.0" stroke="#FF0000" fill="none" stroke-width="4px" />
<path d="M 976.241666665 115.0 L 966.241666665 115.0" stroke="#FF0000" fill="none" stroke-width="4px" />
<path d="M 966.241666665 115.0 L 966.241666665 125.0" stroke="#FF0000" fill="none" stroke-width="4px" />
<path d="M 966.241666665 125.0 L 976.241666665 125.0" stroke="#FF0000" fill="none" stroke-width="4px" />
<path d="M 976.241666665 125.0 L 986.241666665 125.0" stroke="#FF0000" fill="none" stroke-width="4px" />
<path d="M 986.241666665 125.0 L 996.241666665 125.0" stroke="#FF0000" fill="none" stroke-width="4px" />
<path d="M 996.241666665 125.0 L 1006.24166667 125.0" stroke="#FF0000" fill="none" stroke-width="4px" />
<path d="M 1006.24166667 125.0 L 1016.24166667 125.0" stroke="#FF0000" fill="none" stroke-width="4px" />
<path d="M 1016.24166667 125.0 L 1026.24166667 125.0" stroke="#FF0000" fill="none" stroke-width="4px" />
<path d="M 1026.24166667 125.0 L 1036.24166667 125.0" stroke="#FF0000" fill="none" stroke-width="4px" />
<path d="M 1036.24166667 125.0 L 1046.24166667 125.0" stroke="#FF0000" fill="none" stroke-width="4px" />
<path d="M 1046.24166667 125.0 L 1046.24166667 135.0" stroke="#FF0000" fill="none" stroke-width="4px" />
<path d="M 1046.24166667 135.0 L 1036.24166667 135.0" stroke="#FF0000" fill="none" stroke-width="4px" />
<path d="M 1036.24166667 135.0 L 1026.24166667 135.0" stroke="#FF0000" fill="none" stroke-width="4px" />
<path d="M 1026.24166667 135.0 L 1016.24166667 135.0" stroke="#FF0000" fill="none" stroke-width="4px" />
<path d="M 1016.24166667 135.0 L 1006.24166667 135.0" stroke="#FF0000" fill="none" stroke-width="4px" />
<path d="M 1006.24166667 135.0 L 996.241666665 135.0" stroke="#FF0000" fill="none" stroke-width="4px" />
<path d="M 996.241666665 135.0 L 986.241666665 135.0" stroke="#FF0000" fill="none" stroke-width="4px" />
<path d="M 986.241666665 135.0 L 976.241666665 135.0" stroke="#FF0000" fill="none" stroke-width="4px" />
<path d="M 976.241666665 135.0 L 966.241666665 135.0" stroke="#FF0000" fill="none" stroke-width="4px" />
<path d="M 966.241666665 135.0 L 966.241666665 145.0" stroke="#FF0000" fill="none" stroke-width="4px" />
<path d="M 966.241666665 145.0 L 976.241666665 145.0" stroke="#FF0000" fill="none" stroke-width="4px" />
<path d="M 976.241666665 145.0 L 986.241666665 145.0" stroke="#FF0000" fill="none" stroke-width="4px" />
<path d="M 986.241666665 145.0 L 996.241666665 145.0" stroke="#FF0000" fill="none" stroke-width="4px" />
<path d="M 996.241666665 145.0 L 1006.24166667 145.0" stroke="#FF0000" fill="none" stroke-width="4px" />
<path d="M 1006.24166667 145.0 L 1016.24166667 145.0" stroke="#FF0000" fill="none" stroke-width="4px" />
<path d="M 1016.24166667 145.0 L 1026.24166667 145.0" stroke="#FF0000" fill="none" stroke-width="4px" />
<path d="M 1026.24166667 145.0 L 1036.24166667 145.0" stroke="#FF0000" fill="none" stroke-width="4px" />
<path d="M 1036.24166667 145.0 L 1026.24166667 155.0" stroke="#FF0000" fill="none" stroke-width="4px" />
<path d="M 1026.24166667 155.0 L 1016.24166667 155.0" stroke="#FF0000" fill="none" stroke-width="4px" />
<path d="M 1016.24166667 155.0 L 1006.24166667 155.0" stroke="#FF0000" fill="none" stroke-width="4px" />
<path d="M 1006.24166667 155.0 L 996.241666665 155.0" stroke="#FF0000" fill="none" stroke-width="4px" />
<path d="M 996.241666665 155.0 L 986.241666665 155.0" stroke="#FF0000" fill="none" stroke-width="4px" />
<path d="M 986.241666665 155.0 L 976.241666665 155.0" stroke="#FF0000" fill="none" stroke-width="4px" />
<path d="M 976.241666665 155.0 L 966.241666665 155.0" stroke="#FF0000" fill="none" stroke-width="4px" />
<path d="M 966.241666665 155.0 L 976.241666665 165.0" stroke="#FF0000" fill="none" stroke-width="4px" />
<path d="M 976.241666665 165.0 L 986.241666665 165.0" stroke="#FF0000" fill="none" stroke-width="4px" />
<path d="M 986.241666665 165.0 L 996.241666665 165.0" stroke="#FF0000" fill="none" stroke-width="4px" />
</svg>