<svg width="1332.95833333" height="235.0" xmlns="http://www.w3.org/2000/svg" version="1.1">
<path d="M 0.0 235.0 L 1332.95833333 235.0 L 1332.95833333 0.0 L 0.0 0.0 L 0.0 235.0" stroke="#000000" fill="none" stroke-width="3px" />
<path d="M 10.0 257.5 L 0.0 247.5 L 10.0 237.5" stroke="#969696" fill="none" stroke-width="1px" />
<path d="M 10.0 237.5 L 1322.95833333 237.5" stroke="#969696" fill="none" stroke-width="1px" />
<path d="M 1322.95833333 237.5 L 1332.95833333 227.5 L 1322.95833333 217.5" stroke="#969696" fill="none" stroke-width="1px" />
<path d="M 1322.95833333 217.5 L 10.0 217.5" stroke="#969696" fill="none" stroke-width="1px" />
<path d="M 10.0 217.5 L 0.0 207.5 L 10.0 197.5" stroke="#969696" fill="none" stroke-width="1px" />
<path d="M 10.0 197.5 L 1322.95833333 197.5" stroke="#969696" fill="none" stroke-width="1px" />
<path d="M 1322.95833333 197.5 L 1332.95833333 187.5 L 1322.95833333 177.5" stroke="#969696" fill="none" stroke-width="1px" />
<path d="M 1322.95833333 177.5 L 10.0 177.5" stroke="#969696" fill="none" stroke-width="1px" />
<path d="M 10.0 177.5 L 0.0 167.5 L 10.0 157.5" stroke="#969696" fill="none" stroke-width="1px" />
<path d="M 10.0 157.5 L 1322.95833333 157.5" stroke="#969696" fill="none" stroke-width="1px" />
<path d="M 1322.95833333 157.5 L 1332.95833333 147.5 L 1322.95833333 137.5" stroke="#969696" fill="none" stroke-width="1px" />
<path d="M 1322.95833333 137.5 L 10.0 137.5" stroke="#969696" fill="none" stroke-width="1px" />
<path d="M 10.0 137.5 L 0.0 127.5 L 10.0 117.5" stroke="#969696" fill="none" stroke-width="1px" />
<path d="M 10.0 117.5 L 1322.95833333 117.5" stroke="#969696" fill="none" stroke-width="1px" />
<path d="M 1322.95833333 117.5 L 1332.95833333 107.5 L 1322.95833333 97.5" stroke="#969696" fill="none" stroke-width="1px" />
<path d="M 1322.95833333 97.5 L 10.0 97.5" stroke="#969696" fill="none" stroke-width="1px" />
<path d="M 10.0 97.5 L 0.0 87.5 L 10.0 77.5" stroke="#969696" fill="none" stroke-width="1px" />
<path d="M 10.0 77.5 L 1322.95833333 77.5" stroke="#969696" fill="none" stroke-width="1px" />
<path d="M 1322.95833333 77.5 L 1332.95833333 67.5 L 1322.95833333 57.5" stroke="#969696" fill="none" stroke-width="1px" />
<path d="M 1322.95833333 57.5 L 10.0 57.5" stroke="#969696" fill="none" stroke-width="1px" />
<path d="M 10.0 57.5 L 0.0 47.5 L 10.0 37.5" stroke="#969696" fill="none" stroke-width="1px" />
<path d="M 10.0 37.5 L 1322.95833333 37.5" stroke="#969696" fill="none" stroke-width="1px" />
<path d="M 1322.95833333 37.5 L 1332.95833333 27.5 L 1322.95833333 17.5" stroke="#969696" fill="none" stroke-width="1px" />
<path d="M 1322.95833333 17.5 L 10.0 17.5" stroke="#969696" fill="none" stroke-width="1px" />
<path d="M 10.0 17.5 L 0.0 7.5 L 10.0 -2.5" stroke="#969696" fill="none" stroke-width="1px" />
<path d="M 10.0 -2.5 L 1322.95833333 -2.5" stroke="#969696" fill="none" stroke-width="1px" />
<path d="M 1322.95833333 -2.5 L 1332.95833333 -12.5 L 1322.95833333 -22.5" stroke="#969696" fill="none" stroke-width="1px" />
<path d="M 0.0 235.0 L 140.0 135.0" stroke="#0095FF" fill="none" stroke-width="2px" />
<path d="M 140.0 115.0 L 140.0 95.0" stroke="#0095FF" fill="none" stroke-width="2px" />
<path d="M 150.0 95.0 L 150.0 75.0" stroke="#0095FF" fill="none" stroke-width="2px" />
<path d="M 160.0 75.0 L 180.0 95.0" stroke="#0095FF" fill="none" stroke-width="2px" />
<path d="M 180.0 95.0 L 170.0 125.0" stroke="#0095FF" fill="none" stroke-width="2px" />
<path d="M 170.0 125.0 L 470.0 125.0" stroke="#0095FF" fill="none" stroke-width="2px" />
<path d="M 490.0 155.0 L 510.0 165.0" stroke="#0095FF" fill="none" stroke-width="2px" />
<path d="M 510.0 165.0 L 510.0 115.0" stroke="#0095FF" fill="none" stroke-width="2px" />
<path d="M 520.0 115.0 L 520.0 95.0" stroke="#0095FF" fill="none" stroke-width="2px" />
<path d="M 490.0 75.0 L 550.0 75.0" stroke="#0095FF" fill="none" stroke-width="2px" />
<path d="M 580.0 125.0 L 600.0 85.0" stroke="#0095FF" fill="none" stroke-width="2px" />
<path d="M 600.0 85.0 L 580.0 65.0" stroke="#0095FF" fill="none" stroke-width="2px" />
<path d="M 560.0 65.0 L 680.0 95.0" stroke="#0095FF" fill="none" stroke-width="2px" />
<path d="M 710.0 115.0 L 710.0 85.0" stroke="#0095FF" fill="none" stroke-width="2px" />
<path d="M 720.0 85.0 L 810.0 95.0" stroke="#0095FF" fill="none" stroke-width="2px" />
<path d="M 850.0 135.0 L 850.0 85.0" stroke="#0095FF" fill="none" stroke-width="2px" />
<path d="M 880.0 85.0 L 860.0 65.0" stroke="#0095FF" fill="none" stroke-width="2px" />
<path d="M 840.0 65.0 L 960.0 85.0" stroke="#0095FF" fill="none" stroke-width="2px" />
<path d="M 1000.0 145.0 L 1010.0 95.0" stroke="#0095FF" fill="none" stroke-width="2px" />
<path d="M 1010.0 95.0 L 990.0 75.0" stroke="#0095FF" fill="none" stroke-width="2px" />
<path d="M 970.0 75.0 L 1200.0 75.0" stroke="#0095FF" fill="none" stroke-width="2px" />
<path d="M 1230.0 155.0 L 1230.0 65.0" stroke="#0095FF" fill="none" stroke-width="2px" />
<path d="M 1210.0 65.0 L 650.0 215.0" stroke="#0095FF" fill="none" stroke-width="2px" />
<path d="M 620.0 185.0 L 620.0 225.0" stroke="#0095FF" fill="none" stroke-width="2px" />
<path d="M 140.0 135.0 L 150.0 135.0" stroke="#FF0000" fill="none" stroke-width="4px" />
<path d="M 150.0 135.0 L 160.0 135.0" stroke="#FF0000" fill="none" stroke-width="4px" />
<path d="M 160.0 135.0 L 160.0 125.0" stroke="#FF0000" fill="none" stroke-width="4px" />
<path d="M 160.0 125.0 L 150.0 125.0" stroke="#FF0000" fill="none" stroke-width="4px" />
<path d="M 150.0 125.0 L 140.0 125.0" stroke="#FF0000" fill="none" stroke-width="4px" />
<path d="M 140.0 125.0 L 130.0 125.0" stroke="#FF0000" fill="none" stroke-width="4px" />
<path d="M 130.0 125.0 L 130.0 115.0" stroke="#FF0000" fill="none" stroke-width="4px" />
<path d="M 130.0 115.0 L 120.0 115.0" stroke="#FF0000" fill="none" stroke-width="4px" />
<path d="M 120.0 115.0 L 120.0 105.0" stroke="#FF0000" fill="none" stroke-width="4px" />
<path d="M 120.0 105.0 L 130.0 105.0" stroke="#FF0000" fill="none" stroke-width="4px" />
<path d="M 130.0 105.0 L 140.0 105.0" stroke="#FF0000" fill="none" stroke-width="4px" />
<path d="M 140.0 105.0 L 150.0 105.0" stroke="#FF0000" fill="none" stroke-width="4px" />
<path d="M 150.0 105.0 L 160.0 105.0" stroke="#FF0000" fill="none" stroke-width="4px" />
<path d="M 160.0 105.0 L 170.0 105.0" stroke="#FF0000" fill="none" stroke-width="4px" />
<path d="M 170.0 105.0 L 180.0 105.0" stroke="#FF0000" fill="none" stroke-width="4px" />
<path d="M 180.0 105.0 L 180.0 115.0" stroke="#FF0000" fill="none" stroke-width="4px" />
<path d="M 180.0 115.0 L 170.0 115.0" stroke="#FF0000" fill="none" stroke-width="4px" />
<path d="M 170.0 115.0 L 160.0 115.0" stroke="#FF0000" fill="none" stroke-width="4px" />
<path d="M 160.0 115.0 L 150.0 115.0" stroke="#FF0000" fill="none" stroke-width="4px" />
<path d="M 150.0 115.0 L 140.0 115.0" stroke="#FF0000" fill="none" stroke-width="4px" />
<path d="M 140.0 95.0 L 130.0 95.0" stroke="#FF0000" fill="none" stroke-width="4px" />
<path d="M 130.0 95.0 L 120.0 95.0" stroke="#FF0000" fill="none" stroke-width="4px" />
<path d="M 120.0 95.0 L 120.0 85.0" stroke="#FF0000" fill="none" stroke-width="4px" />
<path d="M 120.0 85.0 L 130.0 85.0" stroke="#FF0000" fill="none" stroke-width="4px" />
<path d="M 130.0 85.0 L 140.0 85.0" stroke="#FF0000" fill="none" stroke-width="4px" />
<path d="M 140.0 85.0 L 150.0 85.0" stroke="#FF0000" fill="none" stroke-width="4px" />
<path d="M 150.0 85.0 L 160.0 85.0" stroke="#FF0000" fill="none" stroke-width="4px" />
<path d="M 160.0 85.0 L 170.0 85.0" stroke="#FF0000" fill="none" stroke-width="4px" />
<path d="M 170.0 85.0 L 170.0 95.0" stroke="#FF0000" fill="none" stroke-width="4px" />
<path d="M 170.0 95.0 L 160.0 95.0" stroke="#FF0000" fill="none" stroke-width="4px" />
<path d="M 160.0 95.0 L 150.0 95.0" stroke="#FF0000" fill="none" stroke-width="4px" />
<path d="M 150.0 75.0 L 140.0 75.0" stroke="#FF0000" fill="none" stroke-width="4px" />
<path d="M 140.0 75.0 L 130.0 75.0" stroke="#FF0000" fill="none" stroke-width="4px" />
<path d="M 130.0 75.0 L 140.0 65.0" stroke="#FF0000" fill="none" stroke-width="4px" />
<path d="M 140.0 65.0 L 150.0 65.0" stroke="#FF0000" fill="none" stroke-width="4px" />
<path d="M 150.0 65.0 L 160.0 75.0" stroke="#FF0000" fill="none" stroke-width="4px" />
<path d="M 470.0 125.0 L 480.0 125.0" stroke="#FF0000" fill="none" stroke-width="4px" />
<path d="M 480.0 125.0 L 490.0 125.0" stroke="#FF0000" fill="none" stroke-width="4px" />
<path d="M 490.0 125.0 L 500.0 125.0" stroke="#FF0000" fill="none" stroke-width="4px" />
<path d="M 500.0 125.0 L 510.0 125.0" stroke="#FF0000" fill="none" stroke-width="4px" />
<path d="M 510.0 125.0 L 520.0 125.0" stroke="#FF0000" fill="none" stroke-width="4px" />
<path d="M 520.0 125.0 L 530.0 125.0" stroke="#FF0000" fill="none" stroke-width="4px" />
<path d="M 530.0 125.0 L 530.0 135.0" stroke="#FF0000" fill="none" stroke-width="4px" />
<path d="M 530.0 135.0 L 520.0 135.0" stroke="#FF0000" fill="none" stroke-width="4px" />
<path d="M 520.0 135.0 L 510.0 135.0" stroke="#FF0000" fill="none" stroke-width="4px" />
<path d="M 510.0 135.0 L 500.0 135.0" stroke="#FF0000" fill="none" stroke-width="4px" />
<path d="M 500.0 135.0 L 490.0 135.0" stroke="#FF0000" fill="none" stroke-width="4px" />
<path d="M 490.0 135.0 L 480.0 135.0" stroke="#FF0000" fill="none" stroke-width="4px" />
<path d="M 480.0 135.0 L 470.0 135.0" stroke="#FF0000" fill="none" stroke-width="4px" />
<path d="M 470.0 135.0 L 480.0 145.0" stroke="#FF0000" fill="none" stroke-width="4px" />
<path d="M 480.0 145.0 L 490.0 145.0" stroke="#FF0000" fill="none" stroke-width="4px" />
<path d="M 490.0 145.0 L 500.0 145.0" stroke="#FF0000" fill="none" stroke-width="4px" />
<path d="M 500.0 145.0 L 510.0 145.0" stroke="#FF0000" fill="none" stroke-width="4px" />
<path d="M 510.0 145.0 L 520.0 145.0" stroke="#FF0000" fill="none" stroke-width="4px" />
<path d="M 520.0 145.0 L 530.0 145.0" stroke="#FF0000" fill="none" stroke-width="4px" />
<path d="M 530.0 145.0 L 520.0 155.0" stroke="#FF0000" fill="none" stroke-width="4px" />
<path d="M 520.0 155.0 L 510.0 155.0" stroke="#FF0000" fill="none" stroke-width="4px" />
<path d="M 510.0 155.0 L 500.0 155.0" stroke="#FF0000" fill="none" stroke-width="4px" />
<path d="M 500.0 155.0 L 490.0 155.0" stroke="#FF0000" fill="none" stroke-width="4px" />
<path d="M 510.0 115.0 L 500.0 115.0" stroke="#FF0000" fill="none" stroke-width="4px" />
<path d="M 500.0 115.0 L 490.0 115.0" stroke="#FF0000" fill="none" stroke-width="4px" />
<path d="M 490.0 115.0 L 480.0 115.0" stroke="#FF0000" fill="none" stroke-width="4px" />
<path d="M 480.0 115.0 L 470.0 115.0" stroke="#FF0000" fill="none" stroke-width="4px" />
<path d="M 470.0 115.0 L 470.0 105.0" stroke="#FF0000" fill="none" stroke-width="4px" />
<path d="M 470.0 105.0 L 480.0 105.0" stroke="#FF0000" fill="none" stroke-width="4px" />
<path d="M 480.0 105.0 L 490.0 105.0" stroke="#FF0000" fill="none" stroke-width="4px" />
<path d="M 490.0 105.0 L 500.0 105.0" stroke="#FF0000" fill="none" stroke-width="4px" />
<path d="M 500.0 105.0 L 510.0 105.0" stroke="#FF0000" fill="none" stroke-width="4px" />
<path d="M 510.0 105.0 L 520.0 105.0" stroke="#FF0000" fill="none" stroke-width="4px" />
<path d="M 520.0 105.0 L 530.0 105.0" stroke="#FF0000" fill="none" stroke-width="4px" />
<path d="M 530.0 105.0 L 530.0 115.0" stroke="#FF0000" fill="none" stroke-width="4px" />
<path d="M 530.0 115.0 L 520.0 115.0" stroke="#FF0000" fill="none" stroke-width="4px" />
<path d="M 520.0 95.0 L 510.0 95.0" stroke="#FF0000" fill="none" stroke-width="4px" />
<path d="M 510.0 95.0 L 500.0 95.0" stroke="#FF0000" fill="none" stroke-width="4px" />
<path d="M 500.0 95.0 L 490.0 95.0" stroke="#FF0000" fill="none" stroke-width="4px" />
<path d="M 490.0 95.0 L 480.0 95.0" stroke="#FF0000" fill="none" stroke-width="4px" />
<path d="M 480.0 95.0 L 470.0 95.0" stroke="#FF0000" fill="none" stroke-width="4px" />
<path d="M 470.0 95.0 L 480.0 85.0" stroke="#FF0000" fill="none" stroke-width="4px" />
<path d="M 480.0 85.0 L 490.0 85.0" stroke="#FF0000" fill="none" stroke-width="4px" />
<path d="M 490.0 85.0 L 500.0 85.0" stroke="#FF0000" fill="none" stroke-width="4px" />
<path d="M 500.0 85.0 L 510.0 85.0" stroke="#FF0000" fill="none" stroke-width="4px" />
<path d="M 510.0 85.0 L 500.0 75.0" stroke="#FF0000" fill="none" stroke-width="4px" />
<path d="M 500.0 75.0 L 490.0 75.0" stroke="#FF0000" fill="none" stroke-width="4px" />
<path d="M 550.0 75.0 L 560.0 75.0" stroke="#FF0000" fill="none" stroke-width="4px" />
<path d="M 560.0 75.0 L 570.0 75.0" stroke="#FF0000" fill="none" stroke-width="4px" />
<path d="M 570.0 75.0 L 580.0 75.0" stroke="#FF0000" fill="none" stroke-width="4px" />
<path d="M 580.0 75.0 L 590.0 75.0" stroke="#FF0000" fill="none" stroke-width="4px" />
<path d="M 590.0 75.0 L 590.0 85.0" stroke="#FF0000" fill="none" stroke-width="4px" />
<path d="M 590.0 85.0 L 580.0 85.0" stroke="#FF0000" fill="none" stroke-width="4px" />
<path d="M 580.0 85.0 L 570.0 85.0" stroke="#FF0000" fill="none" stroke-width="4px" />
<path d="M 570.0 85.0 L 560.0 85.0" stroke="#FF0000" fill="none" stroke-width="4px" />
<path d="M 560.0 85.0 L 550.0 85.0" stroke="#FF0000" fill="none" stroke-width="4px" />
<path d="M 550.0 85.0 L 560.0 95.0" stroke="#FF0000" fill="none" stroke-width="4px" />
<path d="M 560.0 95.0 L 570.0 95.0" stroke="#FF0000" fill="none" stroke-width="4px" />
<path d="M 570.0 95.0 L 580.0 95.0" stroke="#FF0000" fill="none" stroke-width="4px" />
<path d="M 580.0 95.0 L 590.0 95.0" stroke="#FF0000" fill="none" stroke-width="4px" />
<path d="M 590.0 95.0 L 600.0 95.0" stroke="#FF0000" fill="none" stroke-width="4px" />
<path d="M 600.0 95.0 L 600.0 105.0" stroke="#FF0000" fill="none" stroke-width="4px" />
<path d="M 600.0 105.0 L 590.0 105.0" stroke="#FF0000" fill="none" stroke-width="4px" />
<path d="M 590.0 105.0 L 580.0 105.0" stroke="#FF0000" fill="none" stroke-width="4px" />
<path d="M 580.0 105.0 L 570.0 105.0" stroke="#FF0000" fill="none" stroke-width="4px" />
<path d="M 570.0 105.0 L 570.0 115.0" stroke="#FF0000" fill="none" stroke-width="4px" />
<path d="M 570.0 115.0 L 580.0 115.0" stroke="#FF0000" fill="none" stroke-width="4px" />
<path d="M 580.0 115.0 L 590.0 115.0" stroke="#FF0000" fill="none" stroke-width="4px" />
<path d="M 590.0 115.0 L 580.0 125.0" stroke="#FF0000" fill="none" stroke-width="4px" />
<path d="M 580.0 65.0 L 570.0 65.0" stroke="#FF0000" fill="none" stroke-width="4px" />
<path d="M 570.0 65.0 L 560.0 65.0" stroke="#FF0000" fill="none" stroke-width="4px" />
<path d="M 680.0 95.0 L 690.0 95.0" stroke="#FF0000" fill="none" stroke-width="4px" />
<path d="M 690.0 95.0 L 700.0 95.0" stroke="#FF0000" fill="none" stroke-width="4px" />
<path d="M 700.0 95.0 L 710.0 95.0" stroke="#FF0000" fill="none" stroke-width="4px" />
<path d="M 710.0 95.0 L 720.0 95.0" stroke="#FF0000" fill="none" stroke-width="4px" />
<path d="M 720.0 95.0 L 730.0 95.0" stroke="#FF0000" fill="none" stroke-width="4px" />
<path d="M 730.0 95.0 L 720.0 105.0" stroke="#FF0000" fill="none" stroke-width="4px" />
<path d="M 720.0 105.0 L 710.0 105.0" stroke="#FF0000" fill="none" stroke-width="4px" />
<path d="M 710.0 105.0 L 700.0 105.0" stroke="#FF0000" fill="none" stroke-width="4px" />
<path d="M 700.0 105.0 L 690.0 105.0" stroke="#FF0000" fill="none" stroke-width="4px" />
<path d="M 690.0 105.0 L 700.0 115.0" stroke="#FF0000" fill="none" stroke-width="4px" />
<path d="M 700.0 115.0 L 710.0 115.0" stroke="#FF0000" fill="none" stroke-width="4px" />
<path d="M 710.0 85.0 L 700.0 85.0" stroke="#FF0000" fill="none" stroke-width="4px" />
<path d="M 700.0 85.0 L 690.0 85.0" stroke="#FF0000" fill="none" stroke-width="4px" />
<path d="M 690.0 85.0 L 700.0 75.0" stroke="#FF0000" fill="none" stroke-width="4px" />
<path d="M 700.0 75.0 L 710.0 75.0" stroke="#FF0000" fill="none" stroke-width="4px" />
<path d="M 710.0 75.0 L 720.0 85.0" stroke="#FF0000" fill="none" stroke-width="4px" />
<path d="M 810.0 95.0 L 820.0 95.0" stroke="#FF0000" fill="none" stroke-width="4px" />
<path d="M 820.0 95.0 L 830.0 95.0" stroke="#FF0000" fill="none" stroke-width="4px" />
<path d="M 830.0 95.0 L 840.0 95.0" stroke="#FF0000" fill="none" stroke-width="4px" />
<path d="M 840.0 95.0 L 850.0 95.0" stroke="#FF0000" fill="none" stroke-width="4px" />
<path d="M 850.0 95.0 L 860.0 95.0" stroke="#FF0000" fill="none" stroke-width="4px" />
<path d="M 860.0 95.0 L 870.0 95.0" stroke="#FF0000" fill="none" stroke-width="4px" />
<path d="M 870.0 95.0 L 870.0 105.0" stroke="#FF0000" fill="none" stroke-width="4px" />
<path d="M 870.0 105.0 L 860.0 105.0" stroke="#FF0000" fill="none" stroke-width="4px" />
<path d="M 860.0 105.0 L 850.0 105.0" stroke="#FF0000" fill="none" stroke-width="4px" />
<path d="M 850.0 105.0 L 840.0 105.0" stroke="#FF0000" fill="none" stroke-width="4px" />
<path d="M 840.0 105.0 L 830.0 105.0" stroke="#FF0000" fill="none" stroke-width="4px" />
<path d="M 830.0 105.0 L 820.0 105.0" stroke="#FF0000" fill="none" stroke-width="4px" />
<path d="M 820.0 105.0 L 810.0 105.0" stroke="#FF0000" fill="none" stroke-width="4px" />
<path d="M 810.0 105.0 L 810.0 115.0" stroke="#FF0000" fill="none" stroke-width="4px" />
<path d="M 810.0 115.0 L 820.0 115.0" stroke="#FF0000" fill="none" stroke-width="4px" />
<path d="M 820.0 115.0 L 830.0 115.0" stroke="#FF0000" fill="none" stroke-width="4px" />
<path d="M 830.0 115.0 L 840.0 115.0" stroke="#FF0000" fill="none" stroke-width="4px" />
<path d="M 840.0 115.0 L 850.0 115.0" stroke="#FF0000" fill="none" stroke-width="4px" />
<path d="M 850.0 115.0 L 860.0 115.0" stroke="#FF0000" fill="none" stroke-width="4px" />
<path d="M 860.0 115.0 L 870.0 115.0" stroke="#FF0000" fill="none" stroke-width="4px" />
<path d="M 870.0 115.0 L 860.0 125.0" stroke="#FF0000" fill="none" stroke-width="4px" />
<path d="M 860.0 125.0 L 850.0 125.0" stroke="#FF0000" fill="none" stroke-width="4px" />
<path d="M 850.0 125.0 L 840.0 125.0" stroke="#FF0000" fill="none" stroke-width="4px" />
<path d="M 840.0 125.0 L 830.0 125.0" stroke="#FF0000" fill="none" stroke-width="4px" />
<path d="M 830.0 125.0 L 820.0 125.0" stroke="#FF0000" fill="none" stroke-width="4px" />
<path d="M 820.0 125.0 L 830.0 135.0" stroke="#FF0000" fill="none" stroke-width="4px" />
<path d="M 830.0 135.0 L 840.0 135.0" stroke="#FF0000" fill="none" stroke-width="4px" />
<path d="M 840.0 135.0 L 850.0 135.0" stroke="#FF0000" fill="none" stroke-width="4px" />
<path d="M 850.0 85.0 L 840.0 85.0" stroke="#FF0000" fill="none" stroke-width="4px" />
<path d="M 840.0 85.0 L 830.0 85.0" stroke="#FF0000" fill="none" stroke-width="4px" />
<path d="M 830.0 85.0 L 820.0 85.0" stroke="#FF0000" fill="none" stroke-width="4px" />
<path d="M 820.0 85.0 L 830.0 75.0" stroke="#FF0000" fill="none" stroke-width="4px" />
<path d="M 830.0 75.0 L 840.0 75.0" stroke="#FF0000" fill="none" stroke-width="4px" />
<path d="M 840.0 75.0 L 850.0 75.0" stroke="#FF0000" fill="none" stroke-width="4px" />
<path d="M 850.0 75.0 L 860.0 75.0" stroke="#FF0000" fill="none" stroke-width="4px" />
<path d="M 860.0 75.0 L 870.0 75.0" stroke="#FF0000" fill="none" stroke-width="4px" />
<path d="M 870.0 75.0 L 870.0 85.0" stroke="#FF0000" fill="none" stroke-width="4px" />
<path d="M 870.0 85.0 L 860.0 85.0" stroke="#FF0000" fill="none" stroke-width="4px" />
<path d="M 860.0 85.0 L 880.0 85.0" stroke="#FF0000" fill="none" stroke-width="4px" />
<path d="M 860.0 65.0 L 850.0 65.0" stroke="#FF0000" fill="none" stroke-width="4px" />
<path d="M 850.0 65.0 L 840.0 65.0" stroke="#FF0000" fill="none" stroke-width="4px" />
<path d="M 960.0 85.0 L 970.0 85.0" stroke="#FF0000" fill="none" stroke-width="4px" />
<path d="M 970.0 85.0 L 980.0 85.0" stroke="#FF0000" fill="none" stroke-width="4px" />
<path d="M 980.0 85.0 L 990.0 85.0" stroke="#FF0000" fill="none" stroke-width="4px" />
<path d="M 990.0 85.0 L 1000.0 85.0" stroke="#FF0000" fill="none" stroke-width="4px" />
<path d="M 1000.0 85.0 L 1000.0 95.0" stroke="#FF0000" fill="none" stroke-width="4px" />
<path d="M 1000.0 95.0 L 990.0 95.0" stroke="#FF0000" fill="none" stroke-width="4px" />
<path d="M 990.0 95.0 L 980.0 95.0" stroke="#FF0000" fill="none" stroke-width="4px" />
<path d="M 980.0 95.0 L 970.0 95.0" stroke="#FF0000" fill="none" stroke-width="4px" />
<path d="M 970.0 95.0 L 960.0 95.0" stroke="#FF0000" fill="none" stroke-width="4px" />
<path d="M 960.0 95.0 L 960.0 105.0" stroke="#FF0000" fill="none" stroke-width="4px" />
<path d="M 960.0 105.0 L 970.0 105.0" stroke="#FF0000" fill="none" stroke-width="4px" />
<path d="M 970.0 105.0 L 980.0 105.0" stroke="#FF0000" fill="none" stroke-width="4px" />
<path d="M 980.0 105.0 L 990.0 105.0" stroke="#FF0000" fill="none" stroke-width="4px" />
<path d="M 990.0 105.0 L 1000.0 105.0" stroke="#FF0000" fill="none" stroke-width="4px" />
<path d="M 1000.0 105.0 L 1010.0 105.0" stroke="#FF0000" fill="none" stroke-width="4px" />
<path d="M 1010.0 105.0 L 1020.0 105.0" stroke="#FF0000" fill="none" stroke-width="4px" />
<path d="M 1020.0 105.0 L 1020.0 115.0" stroke="#FF0000" fill="none" stroke-width="4px" />
<path d="M 1020.0 115.0 L 1010.0 115.0" stroke="#FF0000" fill="none" stroke-width="4px" />
<path d="M 1010.0 115.0 L 1000.0 115.0" stroke="#FF0000" fill="none" stroke-width="4px" />
<path d="M 1000.0 115.0 L 990.0 115.0" stroke="#FF0000" fill="none" stroke-width="4px" />
<path d="M 990.0 115.0 L 980.0 115.0" stroke="#FF0000" fill="none" stroke-width="4px" />
<path d="M 980.0 115.0 L 970.0 115.0" stroke="#FF0000" fill="none" stroke-width="4px" />
<path d="M 970.0 115.0 L 960.0 115.0" stroke="#FF0000" fill="none" stroke-width="4px" />
<path d="M 960.0 115.0 L 950.0 115.0" stroke="#FF0000" fill="none" stroke-width="4px" />
<path d="M 950.0 115.0 L 960.0 125.0" stroke="#FF0000" fill="none" stroke-width="4px" />
<path d="M 960.0 125.0 L 970.0 125.0" stroke="#FF0000" fill="none" stroke-width="4px" />
<path d="M 970.0 125.0 L 980.0 125.0" stroke="#FF0000" fill="none" stroke-width="4px" />
<path d="M 980.0 125.0 L 990.0 125.0" stroke="#FF0000" fill="none" stroke-width="4px" />
<path d="M 990.0 125.0 L 1000.0 125.0" stroke="#FF0000" fill="none" stroke-width="4px" />
<path d="M 1000.0 125.0 L 1010.0 125.0" stroke="#FF0000" fill="none" stroke-width="4px" />
<path d="M 1010.0 125.0 L 1020.0 125.0" stroke="#FF0000" fill="none" stroke-width="4px" />
<path d="M 1020.0 125.0 L 1010.0 135.0" stroke="#FF0000" fill="none" stroke-width="4px" />
<path d="M 1010.0 135.0 L 1000.0 135.0" stroke="#FF0000" fill="none" stroke-width="4px" />
<path d="M 1000.0 135.0 L 990.0 135.0" stroke="#FF0000" fill="none" stroke-width="4px" />
<path d="M 990.0 135.0 L 980.0 135.0" stroke="#FF0000" fill="none" stroke-width="4px" />
<path d="M 980.0 135.0 L 970.0 135.0" stroke="#FF0000" fill="none" stroke-width="4px" />
<path d="M 970.0 135.0 L 960.0 135.0" stroke="#FF0000" fill="none" stroke-width="4px" />
<path d="M 960.0 135.0 L 970.0 145.0" stroke="#FF0000" fill="none" stroke-width="4px" />
<path d="M 970.0 145.0 L 980.0 145.0" stroke="#FF0000" fill="none" stroke-width="4px" />
<path d="M 980.0 145.0 L 990.0 145.0" stroke="#FF0000" fill="none" stroke-width="4px" />
<path d="M 990.0 145.0 L 1000.0 145.0" stroke="#FF0000" fill="none" stroke-width="4px" />
<path d="M 990.0 75.0 L 980.0 75.0" stroke="#FF0000" fill="none" stroke-width="4px" />
<path d="M 980.0 75.0 L 970.0 75.0" stroke="#FF0000" fill="none" stroke-width="4px" />
<path d="M 1200.0 75.0 L 1210.0 75.0" stroke="#FF0000" fill="none" stroke-width="4px" />
<path d="M 1210.0 75.0 L 1220.0 75.0" stroke="#FF0000" fill="none" stroke-width="4px" />
<path d="M 1220.0 75.0 L 1230.0 75.0" stroke="#FF0000" fill="none" stroke-width="4px" />
<path d="M 1230.0 75.0 L 1230.0 85.0" stroke="#FF0000" fill="none" stroke-width="4px" />
<path d="M 1230.0 85.0 L 1220.0 85.0" stroke="#FF0000" fill="none" stroke-width="4px" />
<path d="M 1220.0 85.0 L 1210.0 85.0" stroke="#FF0000" fill="none" stroke-width="4px" />
<path d="M 1210.0 85.0 L 1200.0 85.0" stroke="#FF0000" fill="none" stroke-width="4px" />
<path d="M 1200.0 85.0 L 1200.0 95.0" stroke="#FF0000" fill="none" stroke-width="4px" />
<path d="M 1200.0 95.0 L 1210.0 95.0" stroke="#FF0000" fill="none" stroke-width="4px" />
<path d="M 1210.0 95.0 L 1220.0 95.0" stroke="#FF0000" fill="none" stroke-width="4px" />
<path d="M 1220.0 95.0 L 1230.0 95.0" stroke="#FF0000" fill="none" stroke-width="4px" />
<path d="M 1230.0 95.0 L 1230.0 105.0" stroke="#FF0000" fill="none" stroke-width="4px" />
<path d="M 1230.0 105.0 L 1220.0 105.0" stroke="#FF0000" fill="none" stroke-width="4px" />
<path d="M 1220.0 105.0 L 1210.0 105.0" stroke="#FF0000" fill="none" stroke-width="4px" />
<path d="M 1210.0 105.0 L 1210.0 115.0" stroke="#FF0000" fill="none" stroke-width="4px" />
<path d="M 1210.0 115.0 L 1220.0 115.0" stroke="#FF0000" fill="none" stroke-width="4px" />
<path d="M 1220.0 115.0 L 1230.0 115.0" stroke="#FF0000" fill="none" stroke-width="4px" />
<path d="M 1230.0 115.0 L 1230.0 125.0" stroke="#FF0000" fill="none" stroke-width="4px" />
<path d="M 1230.0 125.0 L 1220.0 125.0" stroke="#FF0000" fill="none" stroke-width="4px" />
<path d="M 1220.0 125.0 L 1210.0 125.0" stroke="#FF0000" fill="none" stroke-width="4px" />
<path d="M 1210.0 125.0 L 1220.0 135.0" stroke="#FF0000" fill="none" stroke-width="4px" />
<path d="M 1220.0 135.0 L 1230.0 135.0" stroke="#FF0000" fill="none" stroke-width="4px" />
<path d="M 1230.0 135.0 L 1230.0 145.0" stroke="#FF0000" fill="none" stroke-width="4px" />
<path d="M 1230.0 145.0 L 1220.0 145.0" stroke="#FF0000" fill="none" stroke-width="4px" />
<path d="M 1220.0 145.0 L 1230.0 155.0" stroke="#FF0000" fill="none" stroke-width="4px" />
<path d="M 1230.0 65.0 L 1220.0 65.0" stroke="#FF0000" fill="none" stroke-width="4px" />
<path d="M 1220.0 65.0 L 1210.0 65.0" stroke="#FF0000" fill="none" stroke-width="4px" />
<path d="M 650.0 215.0 L 640.0 215.0" stroke="#FF0000" fill="none" stroke-width="4px" />
<path d="M 640.0 215.0 L 630.0 215.0" stroke="#FF0000" fill="none" stroke-width="4px" />
<path d="M 630.0 215.0 L 620.0 215.0" stroke="#FF0000" fill="none" stroke-width="4px" />
<path d="M 620.0 215.0 L 610.0 215.0" stroke="#FF0000" fill="none" stroke-width="4px" />
<path d="M 610.0 215.0 L 600.0 215.0" stroke="#FF0000" fill="none" stroke-width="4px" />
<path d="M 600.0 215.0 L 590.0 215.0" stroke="#FF0000" fill="none" stroke-width="4px" />
<path d="M 590.0 215.0 L 590.0 205.0" stroke="#FF0000" fill="none" stroke-width="4px" />
<path d="M 590.0 205.0 L 600.0 205.0" stroke="#FF0000" fill="none" stroke-width="4px" />
<path d="M 600.0 205.0 L 610.0 205.0" stroke="#FF0000" fill="none" stroke-width="4px" />
<path d="M 610.0 205.0 L 620.0 205.0" stroke="#FF0000" fill="none" stroke-width="4px" />
<path d="M 620.0 205.0 L 630.0 205.0" stroke="#FF0000" fill="none" stroke-width="4px" />
<path d="M 630.0 205.0 L 640.0 205.0" stroke="#FF0000" fill="none" stroke-width="4px" />
<path d="M 640.0 205.0 L 630.0 195.0" stroke="#FF0000" fill="none" stroke-width="4px" />
<path d="M 630.0 195.0 L 620.0 195.0" stroke="#FF0000" fill="none" stroke-width="4px" />
<path d="M 620.0 195.0 L 610.0 195.0" stroke="#FF0000" fill="none" stroke-width="4px" />
<path d="M 610.0 195.0 L 600.0 195.0" stroke="#FF0000" fill="none" stroke-width="4px" />
<path d="M 600.0 195.0 L 590.0 195.0" stroke="#FF0000" fill="none" stroke-width="4px" />
<path d="M 590.0 195.0 L 600.0 185.0" stroke="#FF0000" fill="none" stroke-width="4px" />
<path d="M 600.0 185.0 L 610.0 185.0" stroke="#FF0000" fill="none" stroke-width="4px" />
<path d="M 610.0 185.0 L 620.0 185.0" stroke="#FF0000" fill="none" stroke-width="4px" />
<path d="M 620.0 225.0 L 610.0 225.0" stroke="#FF0000" fill="none" stroke-width="4px" />
<path d="M 610.0 225.0 L 600.0 225.0" stroke="#FF0000" fill="none" stroke-width="4px" />
<path d="M 600.0 225.0 L 610.0 235.0" stroke="#FF0000" fill="none" stroke-width="4px" />
<path d="M 610.0 235.0 L 620.0 235.0" stroke="#FF0000" fill="none" stroke-width="4px" />
<path d="M 620.0 235.0 L 630.0 235.0" stroke="#FF0000" fill="none" stroke-width="4px" />
<path d="M 630.0 235.0 L 640.0 235.0" stroke="#FF0000" fill="none" stroke-width="4px" />
<path d="M 640.0 235.0 L 640.0 225.0" stroke="#FF0000" fill="none" stroke-width="4px" />
<path d="M 640.0 225.0 L 630.0 225.0" stroke="#FF0000" fill="none" stroke-width="4px" />
<path d="M 630.0 225.0 L 650.0 225.0" stroke="#FF0000" fill="none" stroke-width="4px" />
</svg>