<svg width="1332.95833333" height="235.0" xmlns="http://www.w3.org/2000/svg" version="1.1">
<path d="M 0.0 235.0 L 1332.95833333 235.0 L 1332.95833333 0.0 L 0.0 0.0 L 0.0 235.0" stroke="#000000" fill="none" stroke-width="3px" />
<path d="M 10.0 257.5 L 0.0 247.5 L 10.0 237.5" stroke="#969696" fill="none" stroke-width="1px" />
<path d="M 10.0 237.5 L 1322.95833333 237.5" stroke="#969696" fill="none" stroke-width="1px" />
<path d="M 1322.95833333 237.5 L 1332.95833333 227.5 L 1322.95833333 217.5" stroke="#969696" fill="none" stroke-width="1px" />
<path d="M 1322.95833333 217.5 L 10.0 217.5" stroke="#969696" fill="none" stroke-width="1px" />
<path d="M 10.0 217.5 L 0.0 207.5 L 10.0 197.5" stroke="#969696" fill="none" stroke-width="1px" />
<path d="M 10.0 197.5 L 1322.95833333 197.5" stroke="#969696" fill="none" stroke-width="1px" />
<path d="M 1322.95833333 197.5 L 1332.95833333 187.5 L 1322.95833333 177.5" stroke="#969696" fill="none" stroke-width="1px" />
<path d="M 1322.95833333 177.5 L 10.0 177.5" stroke="#969696" fill="none" stroke-width="1px" />
<path d="M 10.0 177.5 L 0.0 167.5 L 10.0 157.5" stroke="#969696" fill="none" stroke-width="1px" />
<path d="M 10.0 157.5 L 1322.95833333 157.5" stroke="#969696" fill="none" stroke-width="1px" />
<path d="M 1322.95833333 157.5 L 1332.95833333 147.5 L 1322.95833333 137.5" stroke="#969696" fill="none" stroke-width="1px" />
<path d="M 1322.95833333 137.5 L 10.0 137.5" stroke="#969696" fill="none" stroke-width="1px" />
<path d="M 10.0 137.5 L 0.0 127.5 L 10.0 117.5" stroke="#969696" fill="none" stroke-width="1px" />
<path d="M 10.0 117.5 L 1322.95833333 117.5" stroke="#969696" fill="none" stroke-width="1px" />
<path d="M 1322.95833333 117.5 L 1332.95833333 107.5 L 1322.95833333 97.5" stroke="#969696" fill="none" stroke-width="1px" />
<path d="M 1322.95833333 97.5 L 10.0 97.5" stroke="#969696" fill="none" stroke-width="1px" />
<path d="M 10.0 97.5 L 0.0 87.5 L 10.0 77.5" stroke="#969696" fill="none" stroke-width="1px" />
<path d="M 10.0 77.5 L 1322.95833333 77.5" stroke="#969696" fill="none" stroke-width="1px" />
<path d="M 1322.95833333 77.5 L 1332.95833333 67.5 L 1322.95833333 57.5" stroke="#969696" fill="none" stroke-width="1px" />
<path d="M 1322.95833333 57.5 L 10.0 57.5" stroke="#969696" fill="none" stroke-width="1px" />
<path d="M 10.0 57.5 L 0.0 47.5 L 10.0 37.5" stroke="#969696" fill="none" stroke-width="1px" />
<path d="M 10.0 37.5 L 1322.95833333 37.5" stroke="#969696" fill="none" stroke-width="1px" />
<path d="M 1322.95833333 37.5 L 1332.95833333 27.5 L 1322.95833333 17.5" stroke="#969696" fill="none" stroke-width="1px" />
<path d="M 1322.95833333 17.5 L 10.0 17.5" stroke="#969696" fill="none" stroke-width="1px" />
<path d="M 10.0 17.5 L 0.0 7.5 L 10.0 -2.5" stroke="#969696" fill="none" stroke-width="1px" />
<path d="M 10.0 -2.5 L 1322.95833333 -2.5" stroke="#969696" fill="none" stroke-width="1px" />
<path d="M 1322.95833333 -2.5 L 1332.95833333 -12.5 L 1322.95833333 -22.5" stroke="#969696" fill="none" stroke-width="1px" />
<path d="M 0.0 235.0 L 130.0 235.0" stroke="#0095FF" fill="none" stroke-width="2px" />
<path d="M 130.0 235.0 L 130.0 165.0" stroke="#0095FF" fill="none" stroke-width="2px" />
<path d="M 140.0 155.0 L 140.0 125.0" stroke="#0095FF" fill="none" stroke-width="2px" />
<path d="M 150.0 125.0 L 230.0 125.0" stroke="#0095FF" fill="none" stroke-width="2px" />
<path d="M 230.0 125.0 L 230.0 85.0" stroke="#0095FF" fill="none" stroke-width="2px" />
<path d="M 230.0 65.0 L 230.0 45.0" stroke="#0095FF" fill="none" stroke-width="2px" />
<path d="M 240.0 45.0 L 280.0 45.0" stroke="#0095FF" fill="none" stroke-width="2px" />
<path d="M 280.0 45.0 L 290.0 45.0" stroke="#0095FF" fill="none" stroke-width="2px" />
<path d="M 290.0 45.0 L 290.0 75.0" stroke="#0095FF" fill="none" stroke-width="2px" />
<path d="M 290.0 75.0 L 270.0 75.0" stroke="#0095FF" fill="none" stroke-width="2px" />
<path d="M 270.0 75.0 L 270.0 95.0" stroke="#0095FF" fill="none" stroke-width="2px" />
<path d="M 240.0 95.0 L 280.0 95.0" stroke="#0095FF" fill="none" stroke-width="2px" />
<path d="M 280.0 95.0 L 280.0 135.0" stroke="#0095FF" fill="none" stroke-width="2px" />
<path d="M 310.0 145.0 L 300.0 145.0" stroke="#0095FF" fill="none" stroke-width="2px" />
<path d="M 300.0 145.0 L 300.0 165.0" stroke="#0095FF" fill="none" stroke-width="2px" />
<path d="M 280.0 165.0 L 300.0 165.0" stroke="#0095FF" fill="none" stroke-width="2px" />
<path d="M 300.0 165.0 L 300.0 175.0" stroke="#0095FF" fill="none" stroke-width="2px" />
<path d="M 300.0 175.0 L 480.0 175.0" stroke="#0095FF" fill="none" stroke-width="2px" />
<path d="M 480.0 175.0 L 480.0 155.0" stroke="#0095FF" fill="none" stroke-width="2px" />
<path d="M 510.0 115.0 L 510.0 165.0" stroke="#0095FF" fill="none" stroke-width="2px" />
<path d="M 490.0 165.0 L 510.0 165.0" stroke="#0095FF" fill="none" stroke-width="2px" />
<path d="M 510.0 165.0 L 510.0 175.0" stroke="#0095FF" fill="none" stroke-width="2px" />
<path d="M 520.0 165.0 L 680.0 165.0" stroke="#0095FF" fill="none" stroke-width="2px" />
<path d="M 680.0 165.0 L 680.0 75.0" stroke="#0095FF" fill="none" stroke-width="2px" />
<path d="M 680.0 55.0 L 700.0 55.0" stroke="#0095FF" fill="none" stroke-width="2px" />
<path d="M 700.0 55.0 L 700.0 65.0" stroke="#0095FF" fill="none" stroke-width="2px" />
<path d="M 700.0 65.0 L 700.0 35.0" stroke="#0095FF" fill="none" stroke-width="2px" />
<path d="M 710.0 35.0 L 690.0 35.0" stroke="#0095FF" fill="none" stroke-width="2px" />
<path d="M 690.0 35.0 L 690.0 15.0" stroke="#0095FF" fill="none" stroke-width="2px" />
<path d="M 690.0 15.0 L 930.0 15.0" stroke="#0095FF" fill="none" stroke-width="2px" />
<path d="M 930.0 15.0 L 930.0 55.0" stroke="#0095FF" fill="none" stroke-width="2px" />
<path d="M 940.0 105.0 L 980.0 105.0" stroke="#0095FF" fill="none" stroke-width="2px" />
<path d="M 980.0 105.0 L 980.0 65.0" stroke="#0095FF" fill="none" stroke-width="2px" />
<path d="M 980.0 65.0 L 960.0 65.0" stroke="#0095FF" fill="none" stroke-width="2px" />
<path d="M 960.0 65.0 L 960.0 45.0" stroke="#0095FF" fill="none" stroke-width="2px" />
<path d="M 130.0 165.0 L 130.0 155.0" stroke="#FF0000" fill="none" stroke-width="4px" />
<path d="M 130.0 155.0 L 120.0 155.0" stroke="#FF0000" fill="none" stroke-width="4px" />
<path d="M 120.0 155.0 L 120.0 145.0" stroke="#FF0000" fill="none" stroke-width="4px" />
<path d="M 120.0 145.0 L 110.0 145.0" stroke="#FF0000" fill="none" stroke-width="4px" />
<path d="M 110.0 145.0 L 110.0 135.0" stroke="#FF0000" fill="none" stroke-width="4px" />
<path d="M 110.0 135.0 L 120.0 135.0" stroke="#FF0000" fill="none" stroke-width="4px" />
<path d="M 120.0 135.0 L 130.0 135.0" stroke="#FF0000" fill="none" stroke-width="4px" />
<path d="M 130.0 135.0 L 140.0 135.0" stroke="#FF0000" fill="none" stroke-width="4px" />
<path d="M 140.0 135.0 L 150.0 135.0" stroke="#FF0000" fill="none" stroke-width="4px" />
<path d="M 150.0 135.0 L 150.0 145.0" stroke="#FF0000" fill="none" stroke-width="4px" />
<path d="M 150.0 145.0 L 140.0 145.0" stroke="#FF0000" fill="none" stroke-width="4px" />
<path d="M 140.0 145.0 L 130.0 145.0" stroke="#FF0000" fill="none" stroke-width="4px" />
<path d="M 130.0 145.0 L 140.0 155.0" stroke="#FF0000" fill="none" stroke-width="4px" />
<path d="M 140.0 125.0 L 130.0 125.0" stroke="#FF0000" fill="none" stroke-width="4px" />
<path d="M 130.0 125.0 L 120.0 125.0" stroke="#FF0000" fill="none" stroke-width="4px" />
<path d="M 120.0 125.0 L 130.0 115.0" stroke="#FF0000" fill="none" stroke-width="4px" />
<path d="M 130.0 115.0 L 140.0 115.0" stroke="#FF0000" fill="none" stroke-width="4px" />
<path d="M 140.0 115.0 L 150.0 125.0" stroke="#FF0000" fill="none" stroke-width="4px" />
<path d="M 230.0 85.0 L 240.0 85.0" stroke="#FF0000" fill="none" stroke-width="4px" />
<path d="M 240.0 85.0 L 250.0 85.0" stroke="#FF0000" fill="none" stroke-width="4px" />
<path d="M 250.0 85.0 L 260.0 85.0" stroke="#FF0000" fill="none" stroke-width="4px" />
<path d="M 260.0 85.0 L 270.0 85.0" stroke="#FF0000" fill="none" stroke-width="4px" />
<path d="M 270.0 85.0 L 280.0 85.0" stroke="#FF0000" fill="none" stroke-width="4px" />
<path d="M 280.0 85.0 L 280.0 75.0" stroke="#FF0000" fill="none" stroke-width="4px" />
<path d="M 280.0 75.0 L 270.0 75.0" stroke="#FF0000" fill="none" stroke-width="4px" />
<path d="M 270.0 75.0 L 260.0 75.0" stroke="#FF0000" fill="none" stroke-width="4px" />
<path d="M 260.0 75.0 L 250.0 75.0" stroke="#FF0000" fill="none" stroke-width="4px" />
<path d="M 250.0 75.0 L 240.0 75.0" stroke="#FF0000" fill="none" stroke-width="4px" />
<path d="M 240.0 75.0 L 230.0 75.0" stroke="#FF0000" fill="none" stroke-width="4px" />
<path d="M 230.0 75.0 L 220.0 75.0" stroke="#FF0000" fill="none" stroke-width="4px" />
<path d="M 220.0 75.0 L 220.0 65.0" stroke="#FF0000" fill="none" stroke-width="4px" />
<path d="M 220.0 65.0 L 210.0 65.0" stroke="#FF0000" fill="none" stroke-width="4px" />
<path d="M 210.0 65.0 L 210.0 55.0" stroke="#FF0000" fill="none" stroke-width="4px" />
<path d="M 210.0 55.0 L 220.0 55.0" stroke="#FF0000" fill="none" stroke-width="4px" />
<path d="M 220.0 55.0 L 230.0 55.0" stroke="#FF0000" fill="none" stroke-width="4px" />
<path d="M 230.0 55.0 L 240.0 55.0" stroke="#FF0000" fill="none" stroke-width="4px" />
<path d="M 240.0 55.0 L 250.0 55.0" stroke="#FF0000" fill="none" stroke-width="4px" />
<path d="M 250.0 55.0 L 260.0 55.0" stroke="#FF0000" fill="none" stroke-width="4px" />
<path d="M 260.0 55.0 L 270.0 55.0" stroke="#FF0000" fill="none" stroke-width="4px" />
<path d="M 270.0 55.0 L 280.0 55.0" stroke="#FF0000" fill="none" stroke-width="4px" />
<path d="M 280.0 55.0 L 290.0 55.0" stroke="#FF0000" fill="none" stroke-width="4px" />
<path d="M 290.0 55.0 L 290.0 65.0" stroke="#FF0000" fill="none" stroke-width="4px" />
<path d="M 290.0 65.0 L 280.0 65.0" stroke="#FF0000" fill="none" stroke-width="4px" />
<path d="M 280.0 65.0 L 270.0 65.0" stroke="#FF0000" fill="none" stroke-width="4px" />
<path d="M 270.0 65.0 L 260.0 65.0" stroke="#FF0000" fill="none" stroke-width="4px" />
<path d="M 260.0 65.0 L 250.0 65.0" stroke="#FF0000" fill="none" stroke-width="4px" />
<path d="M 250.0 65.0 L 240.0 65.0" stroke="#FF0000" fill="none" stroke-width="4px" />
<path d="M 240.0 65.0 L 230.0 65.0" stroke="#FF0000" fill="none" stroke-width="4px" />
<path d="M 230.0 45.0 L 220.0 45.0" stroke="#FF0000" fill="none" stroke-width="4px" />
<path d="M 220.0 45.0 L 230.0 35.0" stroke="#FF0000" fill="none" stroke-width="4px" />
<path d="M 230.0 35.0 L 240.0 35.0" stroke="#FF0000" fill="none" stroke-width="4px" />
<path d="M 240.0 35.0 L 250.0 35.0" stroke="#FF0000" fill="none" stroke-width="4px" />
<path d="M 250.0 35.0 L 260.0 35.0" stroke="#FF0000" fill="none" stroke-width="4px" />
<path d="M 260.0 35.0 L 270.0 35.0" stroke="#FF0000" fill="none" stroke-width="4px" />
<path d="M 270.0 35.0 L 270.0 45.0" stroke="#FF0000" fill="none" stroke-width="4px" />
<path d="M 270.0 45.0 L 260.0 45.0" stroke="#FF0000" fill="none" stroke-width="4px" />
<path d="M 260.0 45.0 L 250.0 45.0" stroke="#FF0000" fill="none" stroke-width="4px" />
<path d="M 250.0 45.0 L 240.0 45.0" stroke="#FF0000" fill="none" stroke-width="4px" />
<path d="M 270.0 95.0 L 260.0 95.0" stroke="#FF0000" fill="none" stroke-width="4px" />
<path d="M 260.0 95.0 L 250.0 95.0" stroke="#FF0000" fill="none" stroke-width="4px" />
<path d="M 250.0 95.0 L 240.0 95.0" stroke="#FF0000" fill="none" stroke-width="4px" />
<path d="M 280.0 135.0 L 290.0 135.0" stroke="#FF0000" fill="none" stroke-width="4px" />
<path d="M 290.0 135.0 L 300.0 135.0" stroke="#FF0000" fill="none" stroke-width="4px" />
<path d="M 300.0 135.0 L 300.0 145.0" stroke="#FF0000" fill="none" stroke-width="4px" />
<path d="M 300.0 145.0 L 290.0 145.0" stroke="#FF0000" fill="none" stroke-width="4px" />
<path d="M 290.0 145.0 L 280.0 145.0" stroke="#FF0000" fill="none" stroke-width="4px" />
<path d="M 280.0 145.0 L 270.0 145.0" stroke="#FF0000" fill="none" stroke-width="4px" />
<path d="M 270.0 145.0 L 270.0 155.0" stroke="#FF0000" fill="none" stroke-width="4px" />
<path d="M 270.0 155.0 L 280.0 155.0" stroke="#FF0000" fill="none" stroke-width="4px" />
<path d="M 280.0 155.0 L 290.0 155.0" stroke="#FF0000" fill="none" stroke-width="4px" />
<path d="M 290.0 155.0 L 300.0 155.0" stroke="#FF0000" fill="none" stroke-width="4px" />
<path d="M 300.0 155.0 L 310.0 155.0" stroke="#FF0000" fill="none" stroke-width="4px" />
<path d="M 310.0 155.0 L 310.0 145.0" stroke="#FF0000" fill="none" stroke-width="4px" />
<path d="M 300.0 165.0 L 290.0 165.0" stroke="#FF0000" fill="none" stroke-width="4px" />
<path d="M 290.0 165.0 L 280.0 165.0" stroke="#FF0000" fill="none" stroke-width="4px" />
<path d="M 480.0 155.0 L 490.0 155.0" stroke="#FF0000" fill="none" stroke-width="4px" />
<path d="M 490.0 155.0 L 500.0 155.0" stroke="#FF0000" fill="none" stroke-width="4px" />
<path d="M 500.0 155.0 L 510.0 155.0" stroke="#FF0000" fill="none" stroke-width="4px" />
<path d="M 510.0 155.0 L 520.0 155.0" stroke="#FF0000" fill="none" stroke-width="4px" />
<path d="M 520.0 155.0 L 530.0 155.0" stroke="#FF0000" fill="none" stroke-width="4px" />
<path d="M 530.0 155.0 L 530.0 145.0" stroke="#FF0000" fill="none" stroke-width="4px" />
<path d="M 530.0 145.0 L 520.0 145.0" stroke="#FF0000" fill="none" stroke-width="4px" />
<path d="M 520.0 145.0 L 510.0 145.0" stroke="#FF0000" fill="none" stroke-width="4px" />
<path d="M 510.0 145.0 L 500.0 145.0" stroke="#FF0000" fill="none" stroke-width="4px" />
<path d="M 500.0 145.0 L 490.0 145.0" stroke="#FF0000" fill="none" stroke-width="4px" />
<path d="M 490.0 145.0 L 480.0 145.0" stroke="#FF0000" fill="none" stroke-width="4px" />
<path d="M 480.0 145.0 L 480.0 135.0" stroke="#FF0000" fill="none" stroke-width="4px" />
<path d="M 480.0 135.0 L 490.0 135.0" stroke="#FF0000" fill="none" stroke-width="4px" />
<path d="M 490.0 135.0 L 500.0 135.0" stroke="#FF0000" fill="none" stroke-width="4px" />
<path d="M 500.0 135.0 L 510.0 135.0" stroke="#FF0000" fill="none" stroke-width="4px" />
<path d="M 510.0 135.0 L 520.0 135.0" stroke="#FF0000" fill="none" stroke-width="4px" />
<path d="M 520.0 135.0 L 530.0 135.0" stroke="#FF0000" fill="none" stroke-width="4px" />
<path d="M 530.0 135.0 L 520.0 125.0" stroke="#FF0000" fill="none" stroke-width="4px" />
<path d="M 520.0 125.0 L 510.0 125.0" stroke="#FF0000" fill="none" stroke-width="4px" />
<path d="M 510.0 125.0 L 500.0 125.0" stroke="#FF0000" fill="none" stroke-width="4px" />
<path d="M 500.0 125.0 L 490.0 125.0" stroke="#FF0000" fill="none" stroke-width="4px" />
<path d="M 490.0 125.0 L 500.0 115.0" stroke="#FF0000" fill="none" stroke-width="4px" />
<path d="M 500.0 115.0 L 510.0 115.0" stroke="#FF0000" fill="none" stroke-width="4px" />
<path d="M 510.0 165.0 L 500.0 165.0" stroke="#FF0000" fill="none" stroke-width="4px" />
<path d="M 500.0 165.0 L 490.0 165.0" stroke="#FF0000" fill="none" stroke-width="4px" />
<path d="M 510.0 175.0 L 520.0 165.0" stroke="#FF0000" fill="none" stroke-width="4px" />
<path d="M 680.0 75.0 L 690.0 75.0" stroke="#FF0000" fill="none" stroke-width="4px" />
<path d="M 690.0 75.0 L 690.0 65.0" stroke="#FF0000" fill="none" stroke-width="4px" />
<path d="M 690.0 65.0 L 680.0 65.0" stroke="#FF0000" fill="none" stroke-width="4px" />
<path d="M 680.0 65.0 L 670.0 65.0" stroke="#FF0000" fill="none" stroke-width="4px" />
<path d="M 670.0 65.0 L 670.0 55.0" stroke="#FF0000" fill="none" stroke-width="4px" />
<path d="M 670.0 55.0 L 660.0 55.0" stroke="#FF0000" fill="none" stroke-width="4px" />
<path d="M 660.0 55.0 L 660.0 45.0" stroke="#FF0000" fill="none" stroke-width="4px" />
<path d="M 660.0 45.0 L 670.0 45.0" stroke="#FF0000" fill="none" stroke-width="4px" />
<path d="M 670.0 45.0 L 680.0 45.0" stroke="#FF0000" fill="none" stroke-width="4px" />
<path d="M 680.0 45.0 L 690.0 45.0" stroke="#FF0000" fill="none" stroke-width="4px" />
<path d="M 690.0 45.0 L 700.0 45.0" stroke="#FF0000" fill="none" stroke-width="4px" />
<path d="M 700.0 45.0 L 710.0 45.0" stroke="#FF0000" fill="none" stroke-width="4px" />
<path d="M 710.0 45.0 L 720.0 45.0" stroke="#FF0000" fill="none" stroke-width="4px" />
<path d="M 720.0 45.0 L 710.0 55.0" stroke="#FF0000" fill="none" stroke-width="4px" />
<path d="M 710.0 55.0 L 700.0 55.0" stroke="#FF0000" fill="none" stroke-width="4px" />
<path d="M 700.0 55.0 L 690.0 55.0" stroke="#FF0000" fill="none" stroke-width="4px" />
<path d="M 690.0 55.0 L 680.0 55.0" stroke="#FF0000" fill="none" stroke-width="4px" />
<path d="M 700.0 35.0 L 690.0 35.0" stroke="#FF0000" fill="none" stroke-width="4px" />
<path d="M 690.0 35.0 L 680.0 35.0" stroke="#FF0000" fill="none" stroke-width="4px" />
<path d="M 680.0 35.0 L 670.0 35.0" stroke="#FF0000" fill="none" stroke-width="4px" />
<path d="M 670.0 35.0 L 680.0 25.0" stroke="#FF0000" fill="none" stroke-width="4px" />
<path d="M 680.0 25.0 L 690.0 25.0" stroke="#FF0000" fill="none" stroke-width="4px" />
<path d="M 690.0 25.0 L 700.0 25.0" stroke="#FF0000" fill="none" stroke-width="4px" />
<path d="M 700.0 25.0 L 710.0 35.0" stroke="#FF0000" fill="none" stroke-width="4px" />
<path d="M 930.0 55.0 L 940.0 55.0" stroke="#FF0000" fill="none" stroke-width="4px" />
<path d="M 940.0 55.0 L 950.0 55.0" stroke="#FF0000" fill="none" stroke-width="4px" />
<path d="M 950.0 55.0 L 960.0 55.0" stroke="#FF0000" fill="none" stroke-width="4px" />
<path d="M 960.0 55.0 L 970.0 55.0" stroke="#FF0000" fill="none" stroke-width="4px" />
<path d="M 970.0 55.0 L 970.0 65.0" stroke="#FF0000" fill="none" stroke-width="4px" />
<path d="M 970.0 65.0 L 960.0 65.0" stroke="#FF0000" fill="none" stroke-width="4px" />
<path d="M 960.0 65.0 L 950.0 65.0" stroke="#FF0000" fill="none" stroke-width="4px" />
<path d="M 950.0 65.0 L 940.0 65.0" stroke="#FF0000" fill="none" stroke-width="4px" />
<path d="M 940.0 65.0 L 930.0 65.0" stroke="#FF0000" fill="none" stroke-width="4px" />
<path d="M 930.0 65.0 L 930.0 75.0" stroke="#FF0000" fill="none" stroke-width="4px" />
<path d="M 930.0 75.0 L 940.0 75.0" stroke="#FF0000" fill="none" stroke-width="4px" />
<path d="M 940.0 75.0 L 950.0 75.0" stroke="#FF0000" fill="none" stroke-width="4px" />
<path d="M 950.0 75.0 L 960.0 75.0" stroke="#FF0000" fill="none" stroke-width="4px" />
<path d="M 960.0 75.0 L 970.0 75.0" stroke="#FF0000" fill="none" stroke-width="4px" />
<path d="M 970.0 75.0 L 980.0 75.0" stroke="#FF0000" fill="none" stroke-width="4px" />
<path d="M 980.0 75.0 L 980.0 85.0" stroke="#FF0000" fill="none" stroke-width="4px" />
<path d="M 980.0 85.0 L 970.0 85.0" stroke="#FF0000" fill="none" stroke-width="4px" />
<path d="M 970.0 85.0 L 960.0 85.0" stroke="#FF0000" fill="none" stroke-width="4px" />
<path d="M 960.0 85.0 L 950.0 85.0" stroke="#FF0000" fill="none" stroke-width="4px" />
<path d="M 950.0 85.0 L 940.0 85.0" stroke="#FF0000" fill="none" stroke-width="4px" />
<path d="M 940.0 85.0 L 930.0 85.0" stroke="#FF0000" fill="none" stroke-width="4px" />
<path d="M 930.0 85.0 L 930.0 95.0" stroke="#FF0000" fill="none" stroke-width="4px" />
<path d="M 930.0 95.0 L 940.0 95.0" stroke="#FF0000" fill="none" stroke-width="4px" />
<path d="M 940.0 95.0 L 950.0 95.0" stroke="#FF0000" fill="none" stroke-width="4px" />
<path d="M 950.0 95.0 L 960.0 95.0" stroke="#FF0000" fill="none" stroke-width="4px" />
<path d="M 960.0 95.0 L 970.0 95.0" stroke="#FF0000" fill="none" stroke-width="4px" />
<path d="M 970.0 95.0 L 960.0 105.0" stroke="#FF0000" fill="none" stroke-width="4px" />
<path d="M 960.0 105.0 L 950.0 105.0" stroke="#FF0000" fill="none" stroke-width="4px" />
<path d="M 950.0 105.0 L 940.0 105.0" stroke="#FF0000" fill="none" stroke-width="4px" />
<path d="M 960.0 45.0 L 950.0 45.0" stroke="#FF0000" fill="none" stroke-width="4px" />
<path d="M 950.0 45.0 L 940.0 45.0" stroke="#FF0000" fill="none" stroke-width="4px" />
<path d="M 940.0 45.0 L 950.0 35.0" stroke="#FF0000" fill="none" stroke-width="4px" />
</svg>