<svg width="2472.26666667" height="235.0" xmlns="http://www.w3.org/2000/svg" version="1.1">
<path d="M 0.0 235.0 L 1815.0 235.0 L 1815.0 0.0 L 0.0 0.0 L 0.0 235.0" stroke="#000000" fill="none" stroke-width="3px" />
<path d="M 2472.26666667 235.0 L 1715.0 235.0 L 1715.0 0.0 L 2472.26666667 0.0 L 2472.26666667 235.0" stroke="#000000" fill="none" stroke-width="3px" />
<path d="M 10.0 257.5 L 0.0 247.5 L 10.0 237.5" stroke="#969696" fill="none" stroke-width="1px" />
<path d="M 10.0 237.5 L 1805.0 237.5" stroke="#969696" fill="none" stroke-width="1px" />
<path d="M 1805.0 237.5 L 1815.0 227.5 L 1805.0 217.5" stroke="#969696" fill="none" stroke-width="1px" />
<path d="M 1805.0 217.5 L 10.0 217.5" stroke="#969696" fill="none" stroke-width="1px" />
<path d="M 10.0 217.5 L 0.0 207.5 L 10.0 197.5" stroke="#969696" fill="none" stroke-width="1px" />
<path d="M 10.0 197.5 L 1805.0 197.5" stroke="#969696" fill="none" stroke-width="1px" />
<path d="M 1805.0 197.5 L 1815.0 187.5 L 1805.0 177.5" stroke="#969696" fill="none" stroke-width="1px" />
<path d="M 1805.0 177.5 L 10.0 177.5" stroke="#969696" fill="none" stroke-width="1px" />
<path d="M 10.0 177.5 L 0.0 167.5 L 10.0 157.5" stroke="#969696" fill="none" stroke-width="1px" />
<path d="M 10.0 157.5 L 1805.0 157.5" stroke="#969696" fill="none" stroke-width="1px" />
<path d="M 1805.0 157.5 L 1815.0 147.5 L 1805.0 137.5" stroke="#969696" fill="none" stroke-width="1px" />
<path d="M 1805.0 137.5 L 10.0 137.5" stroke="#969696" fill="none" stroke-width="1px" />
<path d="M 10.0 137.5 L 0.0 127.5 L 10.0 117.5" stroke="#969696" fill="none" stroke-width="1px" />
<path d="M 10.0 117.5 L 1805.0 117.5" stroke="#969696" fill="none" stroke-width="1px" />
<path d="M 1805.0 117.5 L 1815.0 107.5 L 1805.0 97.5" stroke="#969696" fill="none" stroke-width="1px" />
<path d="M 1805.0 97.5 L 10.0 97.5" stroke="#969696" fill="none" stroke-width="1px" />
<path d="M 10.0 97.5 L 0.0 87.5 L 10.0 77.5" stroke="#969696" fill="none" stroke-width="1px" />
<path d="M 10.0 77.5 L 1805.0 77.5" stroke="#969696" fill="none" stroke-width="1px" />
<path d="M 1805.0 77.5 L 1815.0 67.5 L 1805.0 57.5" stroke="#969696" fill="none" stroke-width="1px" />
<path d="M 1805.0 57.5 L 10.0 57.5" stroke="#969696" fill="none" stroke-width="1px" />
<path d="M 10.0 57.5 L 0.0 47.5 L 10.0 37.5" stroke="#969696" fill="none" stroke-width="1px" />
<path d="M 10.0 37.5 L 1805.0 37.5" stroke="#969696" fill="none" stroke-width="1px" />
<path d="M 1805.0 37.5 L 1815.0 27.5 L 1805.0 17.5" stroke="#969696" fill="none" stroke-width="1px" />
<path d="M 1805.0 17.5 L 10.0 17.5" stroke="#969696" fill="none" stroke-width="1px" />
<path d="M 10.0 17.5 L 0.0 7.5 L 10.0 -2.5" stroke="#969696" fill="none" stroke-width="1px" />
<path d="M 10.0 -2.5 L 1805.0 -2.5" stroke="#969696" fill="none" stroke-width="1px" />
<path d="M 1805.0 -2.5 L 1815.0 -12.5 L 1805.0 -22.5" stroke="#969696" fill="none" stroke-width="1px" />
<path d="M 2462.26666667 257.5 L 2472.26666667 247.5 L 2462.26666667 237.5" stroke="#969696" fill="none" stroke-width="1px" />
<path d="M 2462.26666667 237.5 L 1725.0 237.5" stroke="#969696" fill="none" stroke-width="1px" />
<path d="M 1725.0 237.5 L 1715.0 227.5 L 1725.0 217.5" stroke="#969696" fill="none" stroke-width="1px" />
<path d="M 1725.0 217.5 L 2462.26666667 217.5" stroke="#969696" fill="none" stroke-width="1px" />
<path d="M 2462.26666667 217.5 L 2472.26666667 207.5 L 2462.26666667 197.5" stroke="#969696" fill="none" stroke-width="1px" />
<path d="M 2462.26666667 197.5 L 1725.0 197.5" stroke="#969696" fill="none" stroke-width="1px" />
<path d="M 1725.0 197.5 L 1715.0 187.5 L 1725.0 177.5" stroke="#969696" fill="none" stroke-width="1px" />
<path d="M 1725.0 177.5 L 2462.26666667 177.5" stroke="#969696" fill="none" stroke-width="1px" />
<path d="M 2462.26666667 177.5 L 2472.26666667 167.5 L 2462.26666667 157.5" stroke="#969696" fill="none" stroke-width="1px" />
<path d="M 2462.26666667 157.5 L 1725.0 157.5" stroke="#969696" fill="none" stroke-width="1px" />
<path d="M 1725.0 157.5 L 1715.0 147.5 L 1725.0 137.5" stroke="#969696" fill="none" stroke-width="1px" />
<path d="M 1725.0 137.5 L 2462.26666667 137.5" stroke="#969696" fill="none" stroke-width="1px" />
<path d="M 2462.26666667 137.5 L 2472.26666667 127.5 L 2462.26666667 117.5" stroke="#969696" fill="none" stroke-width="1px" />
<path d="M 2462.26666667 117.5 L 1725.0 117.5" stroke="#969696" fill="none" stroke-width="1px" />
<path d="M 1725.0 117.5 L 1715.0 107.5 L 1725.0 97.5" stroke="#969696" fill="none" stroke-width="1px" />
<path d="M 1725.0 97.5 L 2462.26666667 97.5" stroke="#969696" fill="none" stroke-width="1px" />
<path d="M 2462.26666667 97.5 L 2472.26666667 87.5 L 2462.26666667 77.5" stroke="#969696" fill="none" stroke-width="1px" />
<path d="M 2462.26666667 77.5 L 1725.0 77.5" stroke="#969696" fill="none" stroke-width="1px" />
<path d="M 1725.0 77.5 L 1715.0 67.5 L 1725.0 57.5" stroke="#969696" fill="none" stroke-width="1px" />
<path d="M 1725.0 57.5 L 2462.26666667 57.5" stroke="#969696" fill="none" stroke-width="1px" />
<path d="M 2462.26666667 57.5 L 2472.26666667 47.5 L 2462.26666667 37.5" stroke="#969696" fill="none" stroke-width="1px" />
<path d="M 2462.26666667 37.5 L 1725.0 37.5" stroke="#969696" fill="none" stroke-width="1px" />
<path d="M 1725.0 37.5 L 1715.0 27.5 L 1725.0 17.5" stroke="#969696" fill="none" stroke-width="1px" />
<path d="M 1725.0 17.5 L 2462.26666667 17.5" stroke="#969696" fill="none" stroke-width="1px" />
<path d="M 2462.26666667 17.5 L 2472.26666667 7.5 L 2462.26666667 -2.5" stroke="#969696" fill="none" stroke-width="1px" />
<path d="M 2462.26666667 -2.5 L 1725.0 -2.5" stroke="#969696" fill="none" stroke-width="1px" />
<path d="M 1725.0 -2.5 L 1715.0 -12.5 L 1725.0 -22.5" stroke="#969696" fill="none" stroke-width="1px" />
<path d="M 0.0 235.0 L 90.0 235.0" stroke="#0095FF" fill="none" stroke-width="2px" />
<path d="M 90.0 235.0 L 90.0 125.0" stroke="#0095FF" fill="none" stroke-width="2px" />
<path d="M 110.0 115.0 L 110.0 95.0" stroke="#0095FF" fill="none" stroke-width="2px" />
<path d="M 100.0 85.0 L 260.0 85.0" stroke="#0095FF" fill="none" stroke-width="2px" />
<path d="M 260.0 85.0 L 260.0 135.0" stroke="#0095FF" fill="none" stroke-width="2px" />
<path d="M 320.0 175.0 L 300.0 175.0" stroke="#0095FF" fill="none" stroke-width="2px" />
<path d="M 300.0 175.0 L 300.0 185.0" stroke="#0095FF" fill="none" stroke-width="2px" />
<path d="M 280.0 185.0 L 320.0 185.0" stroke="#0095FF" fill="none" stroke-width="2px" />
<path d="M 320.0 185.0 L 320.0 145.0" stroke="#0095FF" fill="none" stroke-width="2px" />
<path d="M 320.0 145.0 L 300.0 145.0" stroke="#0095FF" fill="none" stroke-width="2px" />
<path d="M 300.0 145.0 L 300.0 125.0" stroke="#0095FF" fill="none" stroke-width="2px" />
<path d="M 290.0 115.0 L 420.0 115.0" stroke="#0095FF" fill="none" stroke-width="2px" />
<path d="M 440.0 165.0 L 440.0 105.0" stroke="#0095FF" fill="none" stroke-width="2px" />
<path d="M 450.0 105.0 L 450.0 85.0" stroke="#0095FF" fill="none" stroke-width="2px" />
<path d="M 540.0 95.0 L 540.0 65.0" stroke="#0095FF" fill="none" stroke-width="2px" />
<path d="M 550.0 65.0 L 900.0 65.0" stroke="#0095FF" fill="none" stroke-width="2px" />
<path d="M 900.0 65.0 L 900.0 95.0" stroke="#0095FF" fill="none" stroke-width="2px" />
<path d="M 930.0 145.0 L 950.0 145.0" stroke="#0095FF" fill="none" stroke-width="2px" />
<path d="M 950.0 145.0 L 950.0 155.0" stroke="#0095FF" fill="none" stroke-width="2px" />
<path d="M 950.0 155.0 L 950.0 85.0" stroke="#0095FF" fill="none" stroke-width="2px" />
<path d="M 970.0 85.0 L 960.0 85.0" stroke="#0095FF" fill="none" stroke-width="2px" />
<path d="M 960.0 85.0 L 960.0 45.0" stroke="#0095FF" fill="none" stroke-width="2px" />
<path d="M 970.0 35.0 L 970.0 5.0" stroke="#0095FF" fill="none" stroke-width="2px" />
<path d="M 980.0 5.0 L 1400.0 5.0" stroke="#0095FF" fill="none" stroke-width="2px" />
<path d="M 1400.0 5.0 L 1400.0 45.0" stroke="#0095FF" fill="none" stroke-width="2px" />
<path d="M 1520.0 75.0 L 1510.0 75.0" stroke="#0095FF" fill="none" stroke-width="2px" />
<path d="M 1510.0 75.0 L 1510.0 95.0" stroke="#0095FF" fill="none" stroke-width="2px" />
<path d="M 1460.0 95.0 L 1490.0 95.0" stroke="#0095FF" fill="none" stroke-width="2px" />
<path d="M 1490.0 95.0 L 1490.0 105.0" stroke="#0095FF" fill="none" stroke-width="2px" />
<path d="M 1500.0 105.0 L 1490.0 105.0" stroke="#0095FF" fill="none" stroke-width="2px" />
<path d="M 1490.0 105.0 L 1490.0 35.0" stroke="#0095FF" fill="none" stroke-width="2px" />
<path d="M 2472.26666667 235.0 L 2220.0 235.0" stroke="#0095FF" fill="none" stroke-width="2px" />
<path d="M 2220.0 235.0 L 2220.0 145.0" stroke="#0095FF" fill="none" stroke-width="2px" />
<path d="M 2190.0 105.0 L 2190.0 155.0" stroke="#0095FF" fill="none" stroke-width="2px" />
<path d="M 2210.0 155.0 L 2300.0 155.0" stroke="#0095FF" fill="none" stroke-width="2px" />
<path d="M 2300.0 155.0 L 2300.0 75.0" stroke="#0095FF" fill="none" stroke-width="2px" />
<path d="M 2320.0 55.0 L 2300.0 55.0" stroke="#0095FF" fill="none" stroke-width="2px" />
<path d="M 2300.0 55.0 L 2300.0 35.0" stroke="#0095FF" fill="none" stroke-width="2px" />
<path d="M 2290.0 35.0 L 2020.0 35.0" stroke="#0095FF" fill="none" stroke-width="2px" />
<path d="M 2020.0 35.0 L 2020.0 105.0" stroke="#0095FF" fill="none" stroke-width="2px" />
<path d="M 1930.0 145.0 L 1970.0 145.0" stroke="#0095FF" fill="none" stroke-width="2px" />
<path d="M 1970.0 145.0 L 1970.0 135.0" stroke="#0095FF" fill="none" stroke-width="2px" />
<path d="M 2000.0 135.0 L 2000.0 95.0" stroke="#0095FF" fill="none" stroke-width="2px" />
<path d="M 2010.0 95.0 L 1990.0 95.0" stroke="#0095FF" fill="none" stroke-width="2px" />
<path d="M 1990.0 95.0 L 1990.0 75.0" stroke="#0095FF" fill="none" stroke-width="2px" />
<path d="M 1920.0 55.0 L 1940.0 55.0" stroke="#0095FF" fill="none" stroke-width="2px" />
<path d="M 1940.0 55.0 L 1940.0 45.0" stroke="#0095FF" fill="none" stroke-width="2px" />
<path d="M 90.0 125.0 L 100.0 125.0" stroke="#FF0000" fill="none" stroke-width="4px" />
<path d="M 100.0 125.0 L 100.0 115.0" stroke="#FF0000" fill="none" stroke-width="4px" />
<path d="M 100.0 115.0 L 90.0 115.0" stroke="#FF0000" fill="none" stroke-width="4px" />
<path d="M 90.0 115.0 L 80.0 115.0" stroke="#FF0000" fill="none" stroke-width="4px" />
<path d="M 80.0 115.0 L 80.0 105.0" stroke="#FF0000" fill="none" stroke-width="4px" />
<path d="M 80.0 105.0 L 90.0 105.0" stroke="#FF0000" fill="none" stroke-width="4px" />
<path d="M 90.0 105.0 L 100.0 105.0" stroke="#FF0000" fill="none" stroke-width="4px" />
<path d="M 100.0 105.0 L 110.0 105.0" stroke="#FF0000" fill="none" stroke-width="4px" />
<path d="M 110.0 105.0 L 110.0 115.0" stroke="#FF0000" fill="none" stroke-width="4px" />
<path d="M 110.0 95.0 L 100.0 95.0" stroke="#FF0000" fill="none" stroke-width="4px" />
<path d="M 100.0 95.0 L 90.0 95.0" stroke="#FF0000" fill="none" stroke-width="4px" />
<path d="M 90.0 95.0 L 80.0 95.0" stroke="#FF0000" fill="none" stroke-width="4px" />
<path d="M 80.0 95.0 L 90.0 85.0" stroke="#FF0000" fill="none" stroke-width="4px" />
<path d="M 90.0 85.0 L 100.0 85.0" stroke="#FF0000" fill="none" stroke-width="4px" />
<path d="M 260.0 135.0 L 270.0 135.0" stroke="#FF0000" fill="none" stroke-width="4px" />
<path d="M 270.0 135.0 L 280.0 135.0" stroke="#FF0000" fill="none" stroke-width="4px" />
<path d="M 280.0 135.0 L 290.0 135.0" stroke="#FF0000" fill="none" stroke-width="4px" />
<path d="M 290.0 135.0 L 300.0 135.0" stroke="#FF0000" fill="none" stroke-width="4px" />
<path d="M 300.0 135.0 L 310.0 135.0" stroke="#FF0000" fill="none" stroke-width="4px" />
<path d="M 310.0 135.0 L 310.0 145.0" stroke="#FF0000" fill="none" stroke-width="4px" />
<path d="M 310.0 145.0 L 300.0 145.0" stroke="#FF0000" fill="none" stroke-width="4px" />
<path d="M 300.0 145.0 L 290.0 145.0" stroke="#FF0000" fill="none" stroke-width="4px" />
<path d="M 290.0 145.0 L 280.0 145.0" stroke="#FF0000" fill="none" stroke-width="4px" />
<path d="M 280.0 145.0 L 270.0 145.0" stroke="#FF0000" fill="none" stroke-width="4px" />
<path d="M 270.0 145.0 L 260.0 145.0" stroke="#FF0000" fill="none" stroke-width="4px" />
<path d="M 260.0 145.0 L 260.0 155.0" stroke="#FF0000" fill="none" stroke-width="4px" />
<path d="M 260.0 155.0 L 270.0 155.0" stroke="#FF0000" fill="none" stroke-width="4px" />
<path d="M 270.0 155.0 L 280.0 155.0" stroke="#FF0000" fill="none" stroke-width="4px" />
<path d="M 280.0 155.0 L 290.0 155.0" stroke="#FF0000" fill="none" stroke-width="4px" />
<path d="M 290.0 155.0 L 300.0 155.0" stroke="#FF0000" fill="none" stroke-width="4px" />
<path d="M 300.0 155.0 L 310.0 155.0" stroke="#FF0000" fill="none" stroke-width="4px" />
<path d="M 310.0 155.0 L 320.0 155.0" stroke="#FF0000" fill="none" stroke-width="4px" />
<path d="M 320.0 155.0 L 330.0 155.0" stroke="#FF0000" fill="none" stroke-width="4px" />
<path d="M 330.0 155.0 L 330.0 165.0" stroke="#FF0000" fill="none" stroke-width="4px" />
<path d="M 330.0 165.0 L 320.0 165.0" stroke="#FF0000" fill="none" stroke-width="4px" />
<path d="M 320.0 165.0 L 310.0 165.0" stroke="#FF0000" fill="none" stroke-width="4px" />
<path d="M 310.0 165.0 L 300.0 165.0" stroke="#FF0000" fill="none" stroke-width="4px" />
<path d="M 300.0 165.0 L 290.0 165.0" stroke="#FF0000" fill="none" stroke-width="4px" />
<path d="M 290.0 165.0 L 280.0 165.0" stroke="#FF0000" fill="none" stroke-width="4px" />
<path d="M 280.0 165.0 L 270.0 165.0" stroke="#FF0000" fill="none" stroke-width="4px" />
<path d="M 270.0 165.0 L 270.0 175.0" stroke="#FF0000" fill="none" stroke-width="4px" />
<path d="M 270.0 175.0 L 280.0 175.0" stroke="#FF0000" fill="none" stroke-width="4px" />
<path d="M 280.0 175.0 L 290.0 175.0" stroke="#FF0000" fill="none" stroke-width="4px" />
<path d="M 290.0 175.0 L 300.0 175.0" stroke="#FF0000" fill="none" stroke-width="4px" />
<path d="M 300.0 175.0 L 310.0 175.0" stroke="#FF0000" fill="none" stroke-width="4px" />
<path d="M 310.0 175.0 L 320.0 175.0" stroke="#FF0000" fill="none" stroke-width="4px" />
<path d="M 300.0 185.0 L 290.0 185.0" stroke="#FF0000" fill="none" stroke-width="4px" />
<path d="M 290.0 185.0 L 280.0 185.0" stroke="#FF0000" fill="none" stroke-width="4px" />
<path d="M 300.0 125.0 L 290.0 125.0" stroke="#FF0000" fill="none" stroke-width="4px" />
<path d="M 290.0 125.0 L 280.0 125.0" stroke="#FF0000" fill="none" stroke-width="4px" />
<path d="M 280.0 125.0 L 270.0 125.0" stroke="#FF0000" fill="none" stroke-width="4px" />
<path d="M 270.0 125.0 L 280.0 115.0" stroke="#FF0000" fill="none" stroke-width="4px" />
<path d="M 280.0 115.0 L 290.0 115.0" stroke="#FF0000" fill="none" stroke-width="4px" />
<path d="M 420.0 115.0 L 430.0 115.0" stroke="#FF0000" fill="none" stroke-width="4px" />
<path d="M 430.0 115.0 L 440.0 115.0" stroke="#FF0000" fill="none" stroke-width="4px" />
<path d="M 440.0 115.0 L 450.0 115.0" stroke="#FF0000" fill="none" stroke-width="4px" />
<path d="M 450.0 115.0 L 460.0 115.0" stroke="#FF0000" fill="none" stroke-width="4px" />
<path d="M 460.0 115.0 L 470.0 115.0" stroke="#FF0000" fill="none" stroke-width="4px" />
<path d="M 470.0 115.0 L 480.0 115.0" stroke="#FF0000" fill="none" stroke-width="4px" />
<path d="M 480.0 115.0 L 490.0 115.0" stroke="#FF0000" fill="none" stroke-width="4px" />
<path d="M 490.0 115.0 L 500.0 115.0" stroke="#FF0000" fill="none" stroke-width="4px" />
<path d="M 500.0 115.0 L 510.0 115.0" stroke="#FF0000" fill="none" stroke-width="4px" />
<path d="M 510.0 115.0 L 520.0 115.0" stroke="#FF0000" fill="none" stroke-width="4px" />
<path d="M 520.0 115.0 L 530.0 115.0" stroke="#FF0000" fill="none" stroke-width="4px" />
<path d="M 530.0 115.0 L 530.0 125.0" stroke="#FF0000" fill="none" stroke-width="4px" />
<path d="M 530.0 125.0 L 520.0 125.0" stroke="#FF0000" fill="none" stroke-width="4px" />
<path d="M 520.0 125.0 L 510.0 125.0" stroke="#FF0000" fill="none" stroke-width="4px" />
<path d="M 510.0 125.0 L 500.0 125.0" stroke="#FF0000" fill="none" stroke-width="4px" />
<path d="M 500.0 125.0 L 490.0 125.0" stroke="#FF0000" fill="none" stroke-width="4px" />
<path d="M 490.0 125.0 L 480.0 125.0" stroke="#FF0000" fill="none" stroke-width="4px" />
<path d="M 480.0 125.0 L 470.0 125.0" stroke="#FF0000" fill="none" stroke-width="4px" />
<path d="M 470.0 125.0 L 460.0 125.0" stroke="#FF0000" fill="none" stroke-width="4px" />
<path d="M 460.0 125.0 L 450.0 125.0" stroke="#FF0000" fill="none" stroke-width="4px" />
<path d="M 450.0 125.0 L 440.0 125.0" stroke="#FF0000" fill="none" stroke-width="4px" />
<path d="M 440.0 125.0 L 430.0 125.0" stroke="#FF0000" fill="none" stroke-width="4px" />
<path d="M 430.0 125.0 L 420.0 125.0" stroke="#FF0000" fill="none" stroke-width="4px" />
<path d="M 420.0 125.0 L 420.0 135.0" stroke="#FF0000" fill="none" stroke-width="4px" />
<path d="M 420.0 135.0 L 430.0 135.0" stroke="#FF0000" fill="none" stroke-width="4px" />
<path d="M 430.0 135.0 L 440.0 135.0" stroke="#FF0000" fill="none" stroke-width="4px" />
<path d="M 440.0 135.0 L 450.0 135.0" stroke="#FF0000" fill="none" stroke-width="4px" />
<path d="M 450.0 135.0 L 460.0 135.0" stroke="#FF0000" fill="none" stroke-width="4px" />
<path d="M 460.0 135.0 L 470.0 135.0" stroke="#FF0000" fill="none" stroke-width="4px" />
<path d="M 470.0 135.0 L 480.0 135.0" stroke="#FF0000" fill="none" stroke-width="4px" />
<path d="M 480.0 135.0 L 490.0 135.0" stroke="#FF0000" fill="none" stroke-width="4px" />
<path d="M 490.0 135.0 L 500.0 135.0" stroke="#FF0000" fill="none" stroke-width="4px" />
<path d="M 500.0 135.0 L 510.0 135.0" stroke="#FF0000" fill="none" stroke-width="4px" />
<path d="M 510.0 135.0 L 520.0 135.0" stroke="#FF0000" fill="none" stroke-width="4px" />
<path d="M 520.0 135.0 L 530.0 135.0" stroke="#FF0000" fill="none" stroke-width="4px" />
<path d="M 530.0 135.0 L 520.0 145.0" stroke="#FF0000" fill="none" stroke-width="4px" />
<path d="M 520.0 145.0 L 510.0 145.0" stroke="#FF0000" fill="none" stroke-width="4px" />
<path d="M 510.0 145.0 L 500.0 145.0" stroke="#FF0000" fill="none" stroke-width="4px" />
<path d="M 500.0 145.0 L 490.0 145.0" stroke="#FF0000" fill="none" stroke-width="4px" />
<path d="M 490.0 145.0 L 480.0 145.0" stroke="#FF0000" fill="none" stroke-width="4px" />
<path d="M 480.0 145.0 L 470.0 145.0" stroke="#FF0000" fill="none" stroke-width="4px" />
<path d="M 470.0 145.0 L 460.0 145.0" stroke="#FF0000" fill="none" stroke-width="4px" />
<path d="M 460.0 145.0 L 450.0 145.0" stroke="#FF0000" fill="none" stroke-width="4px" />
<path d="M 450.0 145.0 L 440.0 145.0" stroke="#FF0000" fill="none" stroke-width="4px" />
<path d="M 440.0 145.0 L 430.0 145.0" stroke="#FF0000" fill="none" stroke-width="4px" />
<path d="M 430.0 145.0 L 420.0 145.0" stroke="#FF0000" fill="none" stroke-width="4px" />
<path d="M 420.0 145.0 L 430.0 155.0" stroke="#FF0000" fill="none" stroke-width="4px" />
<path d="M 430.0 155.0 L 440.0 155.0" stroke="#FF0000" fill="none" stroke-width="4px" />
<path d="M 440.0 155.0 L 450.0 155.0" stroke="#FF0000" fill="none" stroke-width="4px" />
<path d="M 450.0 155.0 L 460.0 155.0" stroke="#FF0000" fill="none" stroke-width="4px" />
<path d="M 460.0 155.0 L 470.0 155.0" stroke="#FF0000" fill="none" stroke-width="4px" />
<path d="M 470.0 155.0 L 480.0 155.0" stroke="#FF0000" fill="none" stroke-width="4px" />
<path d="M 480.0 155.0 L 490.0 155.0" stroke="#FF0000" fill="none" stroke-width="4px" />
<path d="M 490.0 155.0 L 500.0 155.0" stroke="#FF0000" fill="none" stroke-width="4px" />
<path d="M 500.0 155.0 L 510.0 155.0" stroke="#FF0000" fill="none" stroke-width="4px" />
<path d="M 510.0 155.0 L 500.0 165.0" stroke="#FF0000" fill="none" stroke-width="4px" />
<path d="M 500.0 165.0 L 490.0 165.0" stroke="#FF0000" fill="none" stroke-width="4px" />
<path d="M 490.0 165.0 L 480.0 165.0" stroke="#FF0000" fill="none" stroke-width="4px" />
<path d="M 480.0 165.0 L 470.0 165.0" stroke="#FF0000" fill="none" stroke-width="4px" />
<path d="M 470.0 165.0 L 460.0 165.0" stroke="#FF0000" fill="none" stroke-width="4px" />
<path d="M 460.0 165.0 L 450.0 165.0" stroke="#FF0000" fill="none" stroke-width="4px" />
<path d="M 450.0 165.0 L 440.0 165.0" stroke="#FF0000" fill="none" stroke-width="4px" />
<path d="M 440.0 105.0 L 430.0 105.0" stroke="#FF0000" fill="none" stroke-width="4px" />
<path d="M 430.0 105.0 L 420.0 105.0" stroke="#FF0000" fill="none" stroke-width="4px" />
<path d="M 420.0 105.0 L 430.0 95.0" stroke="#FF0000" fill="none" stroke-width="4px" />
<path d="M 430.0 95.0 L 440.0 95.0" stroke="#FF0000" fill="none" stroke-width="4px" />
<path d="M 440.0 95.0 L 450.0 95.0" stroke="#FF0000" fill="none" stroke-width="4px" />
<path d="M 450.0 95.0 L 460.0 95.0" stroke="#FF0000" fill="none" stroke-width="4px" />
<path d="M 460.0 95.0 L 470.0 95.0" stroke="#FF0000" fill="none" stroke-width="4px" />
<path d="M 470.0 95.0 L 480.0 95.0" stroke="#FF0000" fill="none" stroke-width="4px" />
<path d="M 480.0 95.0 L 490.0 95.0" stroke="#FF0000" fill="none" stroke-width="4px" />
<path d="M 490.0 95.0 L 500.0 95.0" stroke="#FF0000" fill="none" stroke-width="4px" />
<path d="M 500.0 95.0 L 510.0 95.0" stroke="#FF0000" fill="none" stroke-width="4px" />
<path d="M 510.0 95.0 L 520.0 95.0" stroke="#FF0000" fill="none" stroke-width="4px" />
<path d="M 520.0 95.0 L 520.0 105.0" stroke="#FF0000" fill="none" stroke-width="4px" />
<path d="M 520.0 105.0 L 510.0 105.0" stroke="#FF0000" fill="none" stroke-width="4px" />
<path d="M 510.0 105.0 L 500.0 105.0" stroke="#FF0000" fill="none" stroke-width="4px" />
<path d="M 500.0 105.0 L 490.0 105.0" stroke="#FF0000" fill="none" stroke-width="4px" />
<path d="M 490.0 105.0 L 480.0 105.0" stroke="#FF0000" fill="none" stroke-width="4px" />
<path d="M 480.0 105.0 L 470.0 105.0" stroke="#FF0000" fill="none" stroke-width="4px" />
<path d="M 470.0 105.0 L 460.0 105.0" stroke="#FF0000" fill="none" stroke-width="4px" />
<path d="M 460.0 105.0 L 450.0 105.0" stroke="#FF0000" fill="none" stroke-width="4px" />
<path d="M 450.0 85.0 L 440.0 85.0" stroke="#FF0000" fill="none" stroke-width="4px" />
<path d="M 440.0 85.0 L 460.0 85.0" stroke="#FF0000" fill="none" stroke-width="4px" />
<path d="M 460.0 85.0 L 470.0 85.0" stroke="#FF0000" fill="none" stroke-width="4px" />
<path d="M 470.0 85.0 L 480.0 85.0" stroke="#FF0000" fill="none" stroke-width="4px" />
<path d="M 480.0 85.0 L 490.0 85.0" stroke="#FF0000" fill="none" stroke-width="4px" />
<path d="M 490.0 85.0 L 500.0 85.0" stroke="#FF0000" fill="none" stroke-width="4px" />
<path d="M 500.0 85.0 L 510.0 85.0" stroke="#FF0000" fill="none" stroke-width="4px" />
<path d="M 510.0 85.0 L 520.0 75.0" stroke="#FF0000" fill="none" stroke-width="4px" />
<path d="M 520.0 75.0 L 530.0 75.0" stroke="#FF0000" fill="none" stroke-width="4px" />
<path d="M 530.0 75.0 L 540.0 75.0" stroke="#FF0000" fill="none" stroke-width="4px" />
<path d="M 540.0 75.0 L 550.0 75.0" stroke="#FF0000" fill="none" stroke-width="4px" />
<path d="M 550.0 75.0 L 560.0 75.0" stroke="#FF0000" fill="none" stroke-width="4px" />
<path d="M 560.0 75.0 L 550.0 85.0" stroke="#FF0000" fill="none" stroke-width="4px" />
<path d="M 550.0 85.0 L 540.0 85.0" stroke="#FF0000" fill="none" stroke-width="4px" />
<path d="M 540.0 85.0 L 530.0 85.0" stroke="#FF0000" fill="none" stroke-width="4px" />
<path d="M 530.0 85.0 L 540.0 95.0" stroke="#FF0000" fill="none" stroke-width="4px" />
<path d="M 540.0 65.0 L 530.0 65.0" stroke="#FF0000" fill="none" stroke-width="4px" />
<path d="M 530.0 65.0 L 550.0 65.0" stroke="#FF0000" fill="none" stroke-width="4px" />
<path d="M 900.0 95.0 L 910.0 95.0" stroke="#FF0000" fill="none" stroke-width="4px" />
<path d="M 910.0 95.0 L 920.0 95.0" stroke="#FF0000" fill="none" stroke-width="4px" />
<path d="M 920.0 95.0 L 930.0 95.0" stroke="#FF0000" fill="none" stroke-width="4px" />
<path d="M 930.0 95.0 L 940.0 95.0" stroke="#FF0000" fill="none" stroke-width="4px" />
<path d="M 940.0 95.0 L 950.0 95.0" stroke="#FF0000" fill="none" stroke-width="4px" />
<path d="M 950.0 95.0 L 960.0 95.0" stroke="#FF0000" fill="none" stroke-width="4px" />
<path d="M 960.0 95.0 L 970.0 95.0" stroke="#FF0000" fill="none" stroke-width="4px" />
<path d="M 970.0 95.0 L 980.0 95.0" stroke="#FF0000" fill="none" stroke-width="4px" />
<path d="M 980.0 95.0 L 980.0 105.0" stroke="#FF0000" fill="none" stroke-width="4px" />
<path d="M 980.0 105.0 L 970.0 105.0" stroke="#FF0000" fill="none" stroke-width="4px" />
<path d="M 970.0 105.0 L 960.0 105.0" stroke="#FF0000" fill="none" stroke-width="4px" />
<path d="M 960.0 105.0 L 950.0 105.0" stroke="#FF0000" fill="none" stroke-width="4px" />
<path d="M 950.0 105.0 L 940.0 105.0" stroke="#FF0000" fill="none" stroke-width="4px" />
<path d="M 940.0 105.0 L 930.0 105.0" stroke="#FF0000" fill="none" stroke-width="4px" />
<path d="M 930.0 105.0 L 920.0 105.0" stroke="#FF0000" fill="none" stroke-width="4px" />
<path d="M 920.0 105.0 L 910.0 105.0" stroke="#FF0000" fill="none" stroke-width="4px" />
<path d="M 910.0 105.0 L 900.0 105.0" stroke="#FF0000" fill="none" stroke-width="4px" />
<path d="M 900.0 105.0 L 910.0 115.0" stroke="#FF0000" fill="none" stroke-width="4px" />
<path d="M 910.0 115.0 L 920.0 115.0" stroke="#FF0000" fill="none" stroke-width="4px" />
<path d="M 920.0 115.0 L 930.0 115.0" stroke="#FF0000" fill="none" stroke-width="4px" />
<path d="M 930.0 115.0 L 940.0 115.0" stroke="#FF0000" fill="none" stroke-width="4px" />
<path d="M 940.0 115.0 L 950.0 115.0" stroke="#FF0000" fill="none" stroke-width="4px" />
<path d="M 950.0 115.0 L 960.0 115.0" stroke="#FF0000" fill="none" stroke-width="4px" />
<path d="M 960.0 115.0 L 970.0 115.0" stroke="#FF0000" fill="none" stroke-width="4px" />
<path d="M 970.0 115.0 L 980.0 115.0" stroke="#FF0000" fill="none" stroke-width="4px" />
<path d="M 980.0 115.0 L 980.0 125.0" stroke="#FF0000" fill="none" stroke-width="4px" />
<path d="M 980.0 125.0 L 970.0 125.0" stroke="#FF0000" fill="none" stroke-width="4px" />
<path d="M 970.0 125.0 L 960.0 125.0" stroke="#FF0000" fill="none" stroke-width="4px" />
<path d="M 960.0 125.0 L 950.0 125.0" stroke="#FF0000" fill="none" stroke-width="4px" />
<path d="M 950.0 125.0 L 940.0 125.0" stroke="#FF0000" fill="none" stroke-width="4px" />
<path d="M 940.0 125.0 L 930.0 125.0" stroke="#FF0000" fill="none" stroke-width="4px" />
<path d="M 930.0 125.0 L 920.0 125.0" stroke="#FF0000" fill="none" stroke-width="4px" />
<path d="M 920.0 125.0 L 910.0 125.0" stroke="#FF0000" fill="none" stroke-width="4px" />
<path d="M 910.0 125.0 L 920.0 135.0" stroke="#FF0000" fill="none" stroke-width="4px" />
<path d="M 920.0 135.0 L 930.0 135.0" stroke="#FF0000" fill="none" stroke-width="4px" />
<path d="M 930.0 135.0 L 940.0 135.0" stroke="#FF0000" fill="none" stroke-width="4px" />
<path d="M 940.0 135.0 L 950.0 135.0" stroke="#FF0000" fill="none" stroke-width="4px" />
<path d="M 950.0 135.0 L 960.0 135.0" stroke="#FF0000" fill="none" stroke-width="4px" />
<path d="M 960.0 135.0 L 970.0 135.0" stroke="#FF0000" fill="none" stroke-width="4px" />
<path d="M 970.0 135.0 L 960.0 145.0" stroke="#FF0000" fill="none" stroke-width="4px" />
<path d="M 960.0 145.0 L 950.0 145.0" stroke="#FF0000" fill="none" stroke-width="4px" />
<path d="M 950.0 145.0 L 940.0 145.0" stroke="#FF0000" fill="none" stroke-width="4px" />
<path d="M 940.0 145.0 L 930.0 145.0" stroke="#FF0000" fill="none" stroke-width="4px" />
<path d="M 950.0 85.0 L 940.0 85.0" stroke="#FF0000" fill="none" stroke-width="4px" />
<path d="M 940.0 85.0 L 930.0 85.0" stroke="#FF0000" fill="none" stroke-width="4px" />
<path d="M 930.0 85.0 L 920.0 85.0" stroke="#FF0000" fill="none" stroke-width="4px" />
<path d="M 920.0 85.0 L 910.0 85.0" stroke="#FF0000" fill="none" stroke-width="4px" />
<path d="M 910.0 85.0 L 920.0 75.0" stroke="#FF0000" fill="none" stroke-width="4px" />
<path d="M 920.0 75.0 L 930.0 75.0" stroke="#FF0000" fill="none" stroke-width="4px" />
<path d="M 930.0 75.0 L 940.0 75.0" stroke="#FF0000" fill="none" stroke-width="4px" />
<path d="M 940.0 75.0 L 950.0 75.0" stroke="#FF0000" fill="none" stroke-width="4px" />
<path d="M 950.0 75.0 L 960.0 75.0" stroke="#FF0000" fill="none" stroke-width="4px" />
<path d="M 960.0 75.0 L 960.0 85.0" stroke="#FF0000" fill="none" stroke-width="4px" />
<path d="M 960.0 85.0 L 970.0 85.0" stroke="#FF0000" fill="none" stroke-width="4px" />
<path d="M 960.0 45.0 L 950.0 45.0" stroke="#FF0000" fill="none" stroke-width="4px" />
<path d="M 950.0 45.0 L 940.0 45.0" stroke="#FF0000" fill="none" stroke-width="4px" />
<path d="M 940.0 45.0 L 940.0 35.0" stroke="#FF0000" fill="none" stroke-width="4px" />
<path d="M 940.0 35.0 L 930.0 35.0" stroke="#FF0000" fill="none" stroke-width="4px" />
<path d="M 930.0 35.0 L 930.0 25.0" stroke="#FF0000" fill="none" stroke-width="4px" />
<path d="M 930.0 25.0 L 920.0 25.0" stroke="#FF0000" fill="none" stroke-width="4px" />
<path d="M 920.0 25.0 L 920.0 15.0" stroke="#FF0000" fill="none" stroke-width="4px" />
<path d="M 920.0 15.0 L 930.0 15.0" stroke="#FF0000" fill="none" stroke-width="4px" />
<path d="M 930.0 15.0 L 940.0 15.0" stroke="#FF0000" fill="none" stroke-width="4px" />
<path d="M 940.0 15.0 L 950.0 15.0" stroke="#FF0000" fill="none" stroke-width="4px" />
<path d="M 950.0 15.0 L 960.0 15.0" stroke="#FF0000" fill="none" stroke-width="4px" />
<path d="M 960.0 15.0 L 970.0 15.0" stroke="#FF0000" fill="none" stroke-width="4px" />
<path d="M 970.0 15.0 L 980.0 15.0" stroke="#FF0000" fill="none" stroke-width="4px" />
<path d="M 980.0 15.0 L 980.0 25.0" stroke="#FF0000" fill="none" stroke-width="4px" />
<path d="M 980.0 25.0 L 970.0 25.0" stroke="#FF0000" fill="none" stroke-width="4px" />
<path d="M 970.0 25.0 L 960.0 25.0" stroke="#FF0000" fill="none" stroke-width="4px" />
<path d="M 960.0 25.0 L 950.0 25.0" stroke="#FF0000" fill="none" stroke-width="4px" />
<path d="M 950.0 25.0 L 940.0 25.0" stroke="#FF0000" fill="none" stroke-width="4px" />
<path d="M 940.0 25.0 L 950.0 35.0" stroke="#FF0000" fill="none" stroke-width="4px" />
<path d="M 950.0 35.0 L 960.0 35.0" stroke="#FF0000" fill="none" stroke-width="4px" />
<path d="M 960.0 35.0 L 970.0 35.0" stroke="#FF0000" fill="none" stroke-width="4px" />
<path d="M 970.0 5.0 L 960.0 5.0" stroke="#FF0000" fill="none" stroke-width="4px" />
<path d="M 960.0 5.0 L 950.0 5.0" stroke="#FF0000" fill="none" stroke-width="4px" />
<path d="M 950.0 5.0 L 940.0 5.0" stroke="#FF0000" fill="none" stroke-width="4px" />
<path d="M 940.0 5.0 L 930.0 5.0" stroke="#FF0000" fill="none" stroke-width="4px" />
<path d="M 930.0 5.0 L 920.0 5.0" stroke="#FF0000" fill="none" stroke-width="4px" />
<path d="M 920.0 5.0 L 930.0 -5.0" stroke="#FF0000" fill="none" stroke-width="4px" />
<path d="M 930.0 -5.0 L 940.0 -5.0" stroke="#FF0000" fill="none" stroke-width="4px" />
<path d="M 940.0 -5.0 L 950.0 -5.0" stroke="#FF0000" fill="none" stroke-width="4px" />
<path d="M 950.0 -5.0 L 960.0 -5.0" stroke="#FF0000" fill="none" stroke-width="4px" />
<path d="M 960.0 -5.0 L 970.0 -5.0" stroke="#FF0000" fill="none" stroke-width="4px" />
<path d="M 970.0 -5.0 L 980.0 5.0" stroke="#FF0000" fill="none" stroke-width="4px" />
<path d="M 1400.0 45.0 L 1410.0 45.0" stroke="#FF0000" fill="none" stroke-width="4px" />
<path d="M 1410.0 45.0 L 1420.0 45.0" stroke="#FF0000" fill="none" stroke-width="4px" />
<path d="M 1420.0 45.0 L 1430.0 45.0" stroke="#FF0000" fill="none" stroke-width="4px" />
<path d="M 1430.0 45.0 L 1440.0 45.0" stroke="#FF0000" fill="none" stroke-width="4px" />
<path d="M 1440.0 45.0 L 1450.0 45.0" stroke="#FF0000" fill="none" stroke-width="4px" />
<path d="M 1450.0 45.0 L 1460.0 45.0" stroke="#FF0000" fill="none" stroke-width="4px" />
<path d="M 1460.0 45.0 L 1470.0 45.0" stroke="#FF0000" fill="none" stroke-width="4px" />
<path d="M 1470.0 45.0 L 1480.0 45.0" stroke="#FF0000" fill="none" stroke-width="4px" />
<path d="M 1480.0 45.0 L 1490.0 45.0" stroke="#FF0000" fill="none" stroke-width="4px" />
<path d="M 1490.0 45.0 L 1500.0 45.0" stroke="#FF0000" fill="none" stroke-width="4px" />
<path d="M 1500.0 45.0 L 1500.0 55.0" stroke="#FF0000" fill="none" stroke-width="4px" />
<path d="M 1500.0 55.0 L 1490.0 55.0" stroke="#FF0000" fill="none" stroke-width="4px" />
<path d="M 1490.0 55.0 L 1480.0 55.0" stroke="#FF0000" fill="none" stroke-width="4px" />
<path d="M 1480.0 55.0 L 1470.0 55.0" stroke="#FF0000" fill="none" stroke-width="4px" />
<path d="M 1470.0 55.0 L 1460.0 55.0" stroke="#FF0000" fill="none" stroke-width="4px" />
<path d="M 1460.0 55.0 L 1450.0 55.0" stroke="#FF0000" fill="none" stroke-width="4px" />
<path d="M 1450.0 55.0 L 1440.0 55.0" stroke="#FF0000" fill="none" stroke-width="4px" />
<path d="M 1440.0 55.0 L 1430.0 55.0" stroke="#FF0000" fill="none" stroke-width="4px" />
<path d="M 1430.0 55.0 L 1420.0 55.0" stroke="#FF0000" fill="none" stroke-width="4px" />
<path d="M 1420.0 55.0 L 1410.0 55.0" stroke="#FF0000" fill="none" stroke-width="4px" />
<path d="M 1410.0 55.0 L 1400.0 55.0" stroke="#FF0000" fill="none" stroke-width="4px" />
<path d="M 1400.0 55.0 L 1410.0 65.0" stroke="#FF0000" fill="none" stroke-width="4px" />
<path d="M 1410.0 65.0 L 1420.0 65.0" stroke="#FF0000" fill="none" stroke-width="4px" />
<path d="M 1420.0 65.0 L 1430.0 65.0" stroke="#FF0000" fill="none" stroke-width="4px" />
<path d="M 1430.0 65.0 L 1440.0 65.0" stroke="#FF0000" fill="none" stroke-width="4px" />
<path d="M 1440.0 65.0 L 1450.0 65.0" stroke="#FF0000" fill="none" stroke-width="4px" />
<path d="M 1450.0 65.0 L 1460.0 65.0" stroke="#FF0000" fill="none" stroke-width="4px" />
<path d="M 1460.0 65.0 L 1470.0 65.0" stroke="#FF0000" fill="none" stroke-width="4px" />
<path d="M 1470.0 65.0 L 1480.0 65.0" stroke="#FF0000" fill="none" stroke-width="4px" />
<path d="M 1480.0 65.0 L 1490.0 65.0" stroke="#FF0000" fill="none" stroke-width="4px" />
<path d="M 1490.0 65.0 L 1500.0 65.0" stroke="#FF0000" fill="none" stroke-width="4px" />
<path d="M 1500.0 65.0 L 1510.0 65.0" stroke="#FF0000" fill="none" stroke-width="4px" />
<path d="M 1510.0 65.0 L 1510.0 75.0" stroke="#FF0000" fill="none" stroke-width="4px" />
<path d="M 1510.0 75.0 L 1500.0 75.0" stroke="#FF0000" fill="none" stroke-width="4px" />
<path d="M 1500.0 75.0 L 1490.0 75.0" stroke="#FF0000" fill="none" stroke-width="4px" />
<path d="M 1490.0 75.0 L 1480.0 75.0" stroke="#FF0000" fill="none" stroke-width="4px" />
<path d="M 1480.0 75.0 L 1470.0 75.0" stroke="#FF0000" fill="none" stroke-width="4px" />
<path d="M 1470.0 75.0 L 1460.0 75.0" stroke="#FF0000" fill="none" stroke-width="4px" />
<path d="M 1460.0 75.0 L 1450.0 75.0" stroke="#FF0000" fill="none" stroke-width="4px" />
<path d="M 1450.0 75.0 L 1440.0 75.0" stroke="#FF0000" fill="none" stroke-width="4px" />
<path d="M 1440.0 75.0 L 1430.0 75.0" stroke="#FF0000" fill="none" stroke-width="4px" />
<path d="M 1430.0 75.0 L 1420.0 75.0" stroke="#FF0000" fill="none" stroke-width="4px" />
<path d="M 1420.0 75.0 L 1430.0 85.0" stroke="#FF0000" fill="none" stroke-width="4px" />
<path d="M 1430.0 85.0 L 1440.0 85.0" stroke="#FF0000" fill="none" stroke-width="4px" />
<path d="M 1440.0 85.0 L 1450.0 85.0" stroke="#FF0000" fill="none" stroke-width="4px" />
<path d="M 1450.0 85.0 L 1460.0 85.0" stroke="#FF0000" fill="none" stroke-width="4px" />
<path d="M 1460.0 85.0 L 1470.0 85.0" stroke="#FF0000" fill="none" stroke-width="4px" />
<path d="M 1470.0 85.0 L 1480.0 85.0" stroke="#FF0000" fill="none" stroke-width="4px" />
<path d="M 1480.0 85.0 L 1490.0 85.0" stroke="#FF0000" fill="none" stroke-width="4px" />
<path d="M 1490.0 85.0 L 1500.0 85.0" stroke="#FF0000" fill="none" stroke-width="4px" />
<path d="M 1500.0 85.0 L 1510.0 85.0" stroke="#FF0000" fill="none" stroke-width="4px" />
<path d="M 1510.0 85.0 L 1520.0 85.0" stroke="#FF0000" fill="none" stroke-width="4px" />
<path d="M 1520.0 85.0 L 1520.0 75.0" stroke="#FF0000" fill="none" stroke-width="4px" />
<path d="M 1510.0 95.0 L 1500.0 95.0" stroke="#FF0000" fill="none" stroke-width="4px" />
<path d="M 1500.0 95.0 L 1490.0 95.0" stroke="#FF0000" fill="none" stroke-width="4px" />
<path d="M 1490.0 95.0 L 1480.0 95.0" stroke="#FF0000" fill="none" stroke-width="4px" />
<path d="M 1480.0 95.0 L 1470.0 95.0" stroke="#FF0000" fill="none" stroke-width="4px" />
<path d="M 1470.0 95.0 L 1460.0 95.0" stroke="#FF0000" fill="none" stroke-width="4px" />
<path d="M 1490.0 105.0 L 1500.0 105.0" stroke="#FF0000" fill="none" stroke-width="4px" />
<path d="M 1490.0 35.0 L 1480.0 35.0" stroke="#FF0000" fill="none" stroke-width="4px" />
<path d="M 1480.0 35.0 L 1470.0 35.0" stroke="#FF0000" fill="none" stroke-width="4px" />
<path d="M 1470.0 35.0 L 1460.0 35.0" stroke="#FF0000" fill="none" stroke-width="4px" />
<path d="M 1460.0 35.0 L 1450.0 35.0" stroke="#FF0000" fill="none" stroke-width="4px" />
<path d="M 1450.0 35.0 L 1440.0 35.0" stroke="#FF0000" fill="none" stroke-width="4px" />
<path d="M 1440.0 35.0 L 1430.0 35.0" stroke="#FF0000" fill="none" stroke-width="4px" />
<path d="M 1430.0 35.0 L 1420.0 35.0" stroke="#FF0000" fill="none" stroke-width="4px" />
<path d="M 1420.0 35.0 L 1410.0 35.0" stroke="#FF0000" fill="none" stroke-width="4px" />
<path d="M 1410.0 35.0 L 1420.0 25.0" stroke="#FF0000" fill="none" stroke-width="4px" />
<path d="M 1420.0 25.0 L 1430.0 25.0" stroke="#FF0000" fill="none" stroke-width="4px" />
<path d="M 1430.0 25.0 L 1440.0 25.0" stroke="#FF0000" fill="none" stroke-width="4px" />
<path d="M 1440.0 25.0 L 1450.0 25.0" stroke="#FF0000" fill="none" stroke-width="4px" />
<path d="M 1450.0 25.0 L 1460.0 25.0" stroke="#FF0000" fill="none" stroke-width="4px" />
<path d="M 1460.0 25.0 L 1470.0 25.0" stroke="#FF0000" fill="none" stroke-width="4px" />
<path d="M 1470.0 25.0 L 1480.0 25.0" stroke="#FF0000" fill="none" stroke-width="4px" />
<path d="M 2220.0 145.0 L 2210.0 145.0" stroke="#FF0000" fill="none" stroke-width="4px" />
<path d="M 2210.0 145.0 L 2200.0 145.0" stroke="#FF0000" fill="none" stroke-width="4px" />
<path d="M 2200.0 145.0 L 2190.0 145.0" stroke="#FF0000" fill="none" stroke-width="4px" />
<path d="M 2190.0 145.0 L 2180.0 145.0" stroke="#FF0000" fill="none" stroke-width="4px" />
<path d="M 2180.0 145.0 L 2170.0 145.0" stroke="#FF0000" fill="none" stroke-width="4px" />
<path d="M 2170.0 145.0 L 2160.0 145.0" stroke="#FF0000" fill="none" stroke-width="4px" />
<path d="M 2160.0 145.0 L 2160.0 135.0" stroke="#FF0000" fill="none" stroke-width="4px" />
<path d="M 2160.0 135.0 L 2170.0 135.0" stroke="#FF0000" fill="none" stroke-width="4px" />
<path d="M 2170.0 135.0 L 2180.0 135.0" stroke="#FF0000" fill="none" stroke-width="4px" />
<path d="M 2180.0 135.0 L 2190.0 135.0" stroke="#FF0000" fill="none" stroke-width="4px" />
<path d="M 2190.0 135.0 L 2200.0 135.0" stroke="#FF0000" fill="none" stroke-width="4px" />
<path d="M 2200.0 135.0 L 2210.0 135.0" stroke="#FF0000" fill="none" stroke-width="4px" />
<path d="M 2210.0 135.0 L 2220.0 135.0" stroke="#FF0000" fill="none" stroke-width="4px" />
<path d="M 2220.0 135.0 L 2220.0 125.0" stroke="#FF0000" fill="none" stroke-width="4px" />
<path d="M 2220.0 125.0 L 2210.0 125.0" stroke="#FF0000" fill="none" stroke-width="4px" />
<path d="M 2210.0 125.0 L 2200.0 125.0" stroke="#FF0000" fill="none" stroke-width="4px" />
<path d="M 2200.0 125.0 L 2190.0 125.0" stroke="#FF0000" fill="none" stroke-width="4px" />
<path d="M 2190.0 125.0 L 2180.0 125.0" stroke="#FF0000" fill="none" stroke-width="4px" />
<path d="M 2180.0 125.0 L 2170.0 125.0" stroke="#FF0000" fill="none" stroke-width="4px" />
<path d="M 2170.0 125.0 L 2160.0 125.0" stroke="#FF0000" fill="none" stroke-width="4px" />
<path d="M 2160.0 125.0 L 2170.0 115.0" stroke="#FF0000" fill="none" stroke-width="4px" />
<path d="M 2170.0 115.0 L 2180.0 115.0" stroke="#FF0000" fill="none" stroke-width="4px" />
<path d="M 2180.0 115.0 L 2190.0 115.0" stroke="#FF0000" fill="none" stroke-width="4px" />
<path d="M 2190.0 115.0 L 2200.0 115.0" stroke="#FF0000" fill="none" stroke-width="4px" />
<path d="M 2200.0 115.0 L 2210.0 115.0" stroke="#FF0000" fill="none" stroke-width="4px" />
<path d="M 2210.0 115.0 L 2200.0 105.0" stroke="#FF0000" fill="none" stroke-width="4px" />
<path d="M 2200.0 105.0 L 2190.0 105.0" stroke="#FF0000" fill="none" stroke-width="4px" />
<path d="M 2190.0 155.0 L 2180.0 155.0" stroke="#FF0000" fill="none" stroke-width="4px" />
<path d="M 2180.0 155.0 L 2170.0 155.0" stroke="#FF0000" fill="none" stroke-width="4px" />
<path d="M 2170.0 155.0 L 2180.0 165.0" stroke="#FF0000" fill="none" stroke-width="4px" />
<path d="M 2180.0 165.0 L 2190.0 165.0" stroke="#FF0000" fill="none" stroke-width="4px" />
<path d="M 2190.0 165.0 L 2200.0 165.0" stroke="#FF0000" fill="none" stroke-width="4px" />
<path d="M 2200.0 165.0 L 2200.0 155.0" stroke="#FF0000" fill="none" stroke-width="4px" />
<path d="M 2200.0 155.0 L 2210.0 155.0" stroke="#FF0000" fill="none" stroke-width="4px" />
<path d="M 2300.0 75.0 L 2300.0 65.0" stroke="#FF0000" fill="none" stroke-width="4px" />
<path d="M 2300.0 65.0 L 2290.0 65.0" stroke="#FF0000" fill="none" stroke-width="4px" />
<path d="M 2290.0 65.0 L 2290.0 55.0" stroke="#FF0000" fill="none" stroke-width="4px" />
<path d="M 2290.0 55.0 L 2280.0 55.0" stroke="#FF0000" fill="none" stroke-width="4px" />
<path d="M 2280.0 55.0 L 2280.0 45.0" stroke="#FF0000" fill="none" stroke-width="4px" />
<path d="M 2280.0 45.0 L 2290.0 45.0" stroke="#FF0000" fill="none" stroke-width="4px" />
<path d="M 2290.0 45.0 L 2300.0 45.0" stroke="#FF0000" fill="none" stroke-width="4px" />
<path d="M 2300.0 45.0 L 2310.0 45.0" stroke="#FF0000" fill="none" stroke-width="4px" />
<path d="M 2310.0 45.0 L 2310.0 55.0" stroke="#FF0000" fill="none" stroke-width="4px" />
<path d="M 2310.0 55.0 L 2300.0 55.0" stroke="#FF0000" fill="none" stroke-width="4px" />
<path d="M 2300.0 55.0 L 2310.0 65.0" stroke="#FF0000" fill="none" stroke-width="4px" />
<path d="M 2310.0 65.0 L 2320.0 55.0" stroke="#FF0000" fill="none" stroke-width="4px" />
<path d="M 2300.0 35.0 L 2290.0 35.0" stroke="#FF0000" fill="none" stroke-width="4px" />
<path d="M 2020.0 105.0 L 2010.0 105.0" stroke="#FF0000" fill="none" stroke-width="4px" />
<path d="M 2010.0 105.0 L 2000.0 105.0" stroke="#FF0000" fill="none" stroke-width="4px" />
<path d="M 2000.0 105.0 L 1990.0 105.0" stroke="#FF0000" fill="none" stroke-width="4px" />
<path d="M 1990.0 105.0 L 1980.0 105.0" stroke="#FF0000" fill="none" stroke-width="4px" />
<path d="M 1980.0 105.0 L 1970.0 105.0" stroke="#FF0000" fill="none" stroke-width="4px" />
<path d="M 1970.0 105.0 L 1960.0 105.0" stroke="#FF0000" fill="none" stroke-width="4px" />
<path d="M 1960.0 105.0 L 1950.0 105.0" stroke="#FF0000" fill="none" stroke-width="4px" />
<path d="M 1950.0 105.0 L 1940.0 105.0" stroke="#FF0000" fill="none" stroke-width="4px" />
<path d="M 1940.0 105.0 L 1930.0 105.0" stroke="#FF0000" fill="none" stroke-width="4px" />
<path d="M 1930.0 105.0 L 1920.0 105.0" stroke="#FF0000" fill="none" stroke-width="4px" />
<path d="M 1920.0 105.0 L 1910.0 105.0" stroke="#FF0000" fill="none" stroke-width="4px" />
<path d="M 1910.0 105.0 L 1910.0 115.0" stroke="#FF0000" fill="none" stroke-width="4px" />
<path d="M 1910.0 115.0 L 1920.0 115.0" stroke="#FF0000" fill="none" stroke-width="4px" />
<path d="M 1920.0 115.0 L 1930.0 115.0" stroke="#FF0000" fill="none" stroke-width="4px" />
<path d="M 1930.0 115.0 L 1940.0 115.0" stroke="#FF0000" fill="none" stroke-width="4px" />
<path d="M 1940.0 115.0 L 1950.0 115.0" stroke="#FF0000" fill="none" stroke-width="4px" />
<path d="M 1950.0 115.0 L 1960.0 115.0" stroke="#FF0000" fill="none" stroke-width="4px" />
<path d="M 1960.0 115.0 L 1970.0 115.0" stroke="#FF0000" fill="none" stroke-width="4px" />
<path d="M 1970.0 115.0 L 1980.0 115.0" stroke="#FF0000" fill="none" stroke-width="4px" />
<path d="M 1980.0 115.0 L 1990.0 115.0" stroke="#FF0000" fill="none" stroke-width="4px" />
<path d="M 1990.0 115.0 L 2000.0 115.0" stroke="#FF0000" fill="none" stroke-width="4px" />
<path d="M 2000.0 115.0 L 2010.0 115.0" stroke="#FF0000" fill="none" stroke-width="4px" />
<path d="M 2010.0 115.0 L 2020.0 115.0" stroke="#FF0000" fill="none" stroke-width="4px" />
<path d="M 2020.0 115.0 L 2010.0 125.0" stroke="#FF0000" fill="none" stroke-width="4px" />
<path d="M 2010.0 125.0 L 2000.0 125.0" stroke="#FF0000" fill="none" stroke-width="4px" />
<path d="M 2000.0 125.0 L 1990.0 125.0" stroke="#FF0000" fill="none" stroke-width="4px" />
<path d="M 1990.0 125.0 L 1980.0 125.0" stroke="#FF0000" fill="none" stroke-width="4px" />
<path d="M 1980.0 125.0 L 1970.0 125.0" stroke="#FF0000" fill="none" stroke-width="4px" />
<path d="M 1970.0 125.0 L 1960.0 125.0" stroke="#FF0000" fill="none" stroke-width="4px" />
<path d="M 1960.0 125.0 L 1950.0 125.0" stroke="#FF0000" fill="none" stroke-width="4px" />
<path d="M 1950.0 125.0 L 1940.0 125.0" stroke="#FF0000" fill="none" stroke-width="4px" />
<path d="M 1940.0 125.0 L 1930.0 125.0" stroke="#FF0000" fill="none" stroke-width="4px" />
<path d="M 1930.0 125.0 L 1920.0 125.0" stroke="#FF0000" fill="none" stroke-width="4px" />
<path d="M 1920.0 125.0 L 1910.0 125.0" stroke="#FF0000" fill="none" stroke-width="4px" />
<path d="M 1910.0 125.0 L 1920.0 135.0" stroke="#FF0000" fill="none" stroke-width="4px" />
<path d="M 1920.0 135.0 L 1930.0 135.0" stroke="#FF0000" fill="none" stroke-width="4px" />
<path d="M 1930.0 135.0 L 1940.0 135.0" stroke="#FF0000" fill="none" stroke-width="4px" />
<path d="M 1940.0 135.0 L 1950.0 135.0" stroke="#FF0000" fill="none" stroke-width="4px" />
<path d="M 1950.0 135.0 L 1940.0 145.0" stroke="#FF0000" fill="none" stroke-width="4px" />
<path d="M 1940.0 145.0 L 1930.0 145.0" stroke="#FF0000" fill="none" stroke-width="4px" />
<path d="M 1970.0 135.0 L 1980.0 135.0" stroke="#FF0000" fill="none" stroke-width="4px" />
<path d="M 1980.0 135.0 L 1990.0 135.0" stroke="#FF0000" fill="none" stroke-width="4px" />
<path d="M 1990.0 135.0 L 2000.0 135.0" stroke="#FF0000" fill="none" stroke-width="4px" />
<path d="M 2000.0 95.0 L 1990.0 95.0" stroke="#FF0000" fill="none" stroke-width="4px" />
<path d="M 1990.0 95.0 L 1980.0 95.0" stroke="#FF0000" fill="none" stroke-width="4px" />
<path d="M 1980.0 95.0 L 1970.0 95.0" stroke="#FF0000" fill="none" stroke-width="4px" />
<path d="M 1970.0 95.0 L 1960.0 95.0" stroke="#FF0000" fill="none" stroke-width="4px" />
<path d="M 1960.0 95.0 L 1950.0 95.0" stroke="#FF0000" fill="none" stroke-width="4px" />
<path d="M 1950.0 95.0 L 1940.0 95.0" stroke="#FF0000" fill="none" stroke-width="4px" />
<path d="M 1940.0 95.0 L 1930.0 95.0" stroke="#FF0000" fill="none" stroke-width="4px" />
<path d="M 1930.0 95.0 L 1920.0 95.0" stroke="#FF0000" fill="none" stroke-width="4px" />
<path d="M 1920.0 95.0 L 1910.0 95.0" stroke="#FF0000" fill="none" stroke-width="4px" />
<path d="M 1910.0 95.0 L 1910.0 85.0" stroke="#FF0000" fill="none" stroke-width="4px" />
<path d="M 1910.0 85.0 L 1920.0 85.0" stroke="#FF0000" fill="none" stroke-width="4px" />
<path d="M 1920.0 85.0 L 1930.0 85.0" stroke="#FF0000" fill="none" stroke-width="4px" />
<path d="M 1930.0 85.0 L 1940.0 85.0" stroke="#FF0000" fill="none" stroke-width="4px" />
<path d="M 1940.0 85.0 L 1950.0 85.0" stroke="#FF0000" fill="none" stroke-width="4px" />
<path d="M 1950.0 85.0 L 1960.0 85.0" stroke="#FF0000" fill="none" stroke-width="4px" />
<path d="M 1960.0 85.0 L 1970.0 85.0" stroke="#FF0000" fill="none" stroke-width="4px" />
<path d="M 1970.0 85.0 L 1980.0 85.0" stroke="#FF0000" fill="none" stroke-width="4px" />
<path d="M 1980.0 85.0 L 1990.0 85.0" stroke="#FF0000" fill="none" stroke-width="4px" />
<path d="M 1990.0 85.0 L 2000.0 85.0" stroke="#FF0000" fill="none" stroke-width="4px" />
<path d="M 2000.0 85.0 L 2010.0 95.0" stroke="#FF0000" fill="none" stroke-width="4px" />
<path d="M 1990.0 75.0 L 1980.0 75.0" stroke="#FF0000" fill="none" stroke-width="4px" />
<path d="M 1980.0 75.0 L 1970.0 75.0" stroke="#FF0000" fill="none" stroke-width="4px" />
<path d="M 1970.0 75.0 L 1960.0 75.0" stroke="#FF0000" fill="none" stroke-width="4px" />
<path d="M 1960.0 75.0 L 1950.0 75.0" stroke="#FF0000" fill="none" stroke-width="4px" />
<path d="M 1950.0 75.0 L 1940.0 75.0" stroke="#FF0000" fill="none" stroke-width="4px" />
<path d="M 1940.0 75.0 L 1930.0 75.0" stroke="#FF0000" fill="none" stroke-width="4px" />
<path d="M 1930.0 75.0 L 1920.0 75.0" stroke="#FF0000" fill="none" stroke-width="4px" />
<path d="M 1920.0 75.0 L 1910.0 75.0" stroke="#FF0000" fill="none" stroke-width="4px" />
<path d="M 1910.0 75.0 L 1910.0 65.0" stroke="#FF0000" fill="none" stroke-width="4px" />
<path d="M 1910.0 65.0 L 1920.0 65.0" stroke="#FF0000" fill="none" stroke-width="4px" />
<path d="M 1920.0 65.0 L 1930.0 65.0" stroke="#FF0000" fill="none" stroke-width="4px" />
<path d="M 1930.0 65.0 L 1940.0 65.0" stroke="#FF0000" fill="none" stroke-width="4px" />
<path d="M 1940.0 65.0 L 1950.0 65.0" stroke="#FF0000" fill="none" stroke-width="4px" />
<path d="M 1950.0 65.0 L 1960.0 65.0" stroke="#FF0000" fill="none" stroke-width="4px" />
<path d="M 1960.0 65.0 L 1970.0 65.0" stroke="#FF0000" fill="none" stroke-width="4px" />
<path d="M 1970.0 65.0 L 1960.0 55.0" stroke="#FF0000" fill="none" stroke-width="4px" />
<path d="M 1960.0 55.0 L 1950.0 55.0" stroke="#FF0000" fill="none" stroke-width="4px" />
<path d="M 1950.0 55.0 L 1940.0 55.0" stroke="#FF0000" fill="none" stroke-width="4px" />
<path d="M 1940.0 55.0 L 1930.0 55.0" stroke="#FF0000" fill="none" stroke-width="4px" />
<path d="M 1930.0 55.0 L 1920.0 55.0" stroke="#FF0000" fill="none" stroke-width="4px" />
<path d="M 1940.0 45.0 L 1950.0 45.0" stroke="#FF0000" fill="none" stroke-width="4px" />
</svg>