<svg width="1383.75833333" height="235.0" xmlns="http://www.w3.org/2000/svg" version="1.1">
<path d="M 0.0 235.0 L 1383.75833333 235.0 L 1383.75833333 0.0 L 0.0 0.0 L 0.0 235.0" stroke="#000000" fill="none" stroke-width="3px" />
<path d="M 10.0 257.5 L 0.0 247.5 L 10.0 237.5" stroke="#969696" fill="none" stroke-width="1px" />
<path d="M 10.0 237.5 L 1373.75833333 237.5" stroke="#969696" fill="none" stroke-width="1px" />
<path d="M 1373.75833333 237.5 L 1383.75833333 227.5 L 1373.75833333 217.5" stroke="#969696" fill="none" stroke-width="1px" />
<path d="M 1373.75833333 217.5 L 10.0 217.5" stroke="#969696" fill="none" stroke-width="1px" />
<path d="M 10.0 217.5 L 0.0 207.5 L 10.0 197.5" stroke="#969696" fill="none" stroke-width="1px" />
<path d="M 10.0 197.5 L 1373.75833333 197.5" stroke="#969696" fill="none" stroke-width="1px" />
<path d="M 1373.75833333 197.5 L 1383.75833333 187.5 L 1373.75833333 177.5" stroke="#969696" fill="none" stroke-width="1px" />
<path d="M 1373.75833333 177.5 L 10.0 177.5" stroke="#969696" fill="none" stroke-width="1px" />
<path d="M 10.0 177.5 L 0.0 167.5 L 10.0 157.5" stroke="#969696" fill="none" stroke-width="1px" />
<path d="M 10.0 157.5 L 1373.75833333 157.5" stroke="#969696" fill="none" stroke-width="1px" />
<path d="M 1373.75833333 157.5 L 1383.75833333 147.5 L 1373.75833333 137.5" stroke="#969696" fill="none" stroke-width="1px" />
<path d="M 1373.75833333 137.5 L 10.0 137.5" stroke="#969696" fill="none" stroke-width="1px" />
<path d="M 10.0 137.5 L 0.0 127.5 L 10.0 117.5" stroke="#969696" fill="none" stroke-width="1px" />
<path d="M 10.0 117.5 L 1373.75833333 117.5" stroke="#969696" fill="none" stroke-width="1px" />
<path d="M 1373.75833333 117.5 L 1383.75833333 107.5 L 1373.75833333 97.5" stroke="#969696" fill="none" stroke-width="1px" />
<path d="M 1373.75833333 97.5 L 10.0 97.5" stroke="#969696" fill="none" stroke-width="1px" />
<path d="M 10.0 97.5 L 0.0 87.5 L 10.0 77.5" stroke="#969696" fill="none" stroke-width="1px" />
<path d="M 10.0 77.5 L 1373.75833333 77.5" stroke="#969696" fill="none" stroke-width="1px" />
<path d="M 1373.75833333 77.5 L 1383.75833333 67.5 L 1373.75833333 57.5" stroke="#969696" fill="none" stroke-width="1px" />
<path d="M 1373.75833333 57.5 L 10.0 57.5" stroke="#969696" fill="none" stroke-width="1px" />
<path d="M 10.0 57.5 L 0.0 47.5 L 10.0 37.5" stroke="#969696" fill="none" stroke-width="1px" />
<path d="M 10.0 37.5 L 1373.75833333 37.5" stroke="#969696" fill="none" stroke-width="1px" />
<path d="M 1373.75833333 37.5 L 1383.75833333 27.5 L 1373.75833333 17.5" stroke="#969696" fill="none" stroke-width="1px" />
<path d="M 1373.75833333 17.5 L 10.0 17.5" stroke="#969696" fill="none" stroke-width="1px" />
<path d="M 10.0 17.5 L 0.0 7.5 L 10.0 -2.5" stroke="#969696" fill="none" stroke-width="1px" />
<path d="M 10.0 -2.5 L 1373.75833333 -2.5" stroke="#969696" fill="none" stroke-width="1px" />
<path d="M 1373.75833333 -2.5 L 1383.75833333 -12.5 L 1373.75833333 -22.5" stroke="#969696" fill="none" stroke-width="1px" />
<path d="M 0.0 235.0 L 296.241666665 235.0" stroke="#0095FF" fill="none" stroke-width="2px" />
<path d="M 296.241666665 235.0 L 296.241666665 35.0" stroke="#0095FF" fill="none" stroke-width="2px" />
<path d="M 316.241666665 25.0 L 306.241666665 25.0" stroke="#0095FF" fill="none" stroke-width="2px" />
<path d="M 306.241666665 25.0 L 306.241666665 5.0" stroke="#0095FF" fill="none" stroke-width="2px" />
<path d="M 306.241666665 -5.0 L 456.241666665 -5.0" stroke="#0095FF" fill="none" stroke-width="2px" />
<path d="M 456.241666665 -5.0 L 456.241666665 25.0" stroke="#0095FF" fill="none" stroke-width="2px" />
<path d="M 516.241666665 85.0 L 506.241666665 85.0" stroke="#0095FF" fill="none" stroke-width="2px" />
<path d="M 506.241666665 85.0 L 506.241666665 125.0" stroke="#0095FF" fill="none" stroke-width="2px" />
<path d="M 556.241666665 225.0 L 656.241666665 225.0" stroke="#0095FF" fill="none" stroke-width="2px" />
<path d="M 656.241666665 225.0 L 656.241666665 195.0" stroke="#0095FF" fill="none" stroke-width="2px" />
<path d="M 676.241666665 165.0 L 676.241666665 205.0" stroke="#0095FF" fill="none" stroke-width="2px" />
<path d="M 706.241666665 205.0 L 686.241666665 205.0" stroke="#0095FF" fill="none" stroke-width="2px" />
<path d="M 686.241666665 205.0 L 686.241666665 105.0" stroke="#0095FF" fill="none" stroke-width="2px" />
<path d="M 696.241666665 95.0 L 696.241666665 65.0" stroke="#0095FF" fill="none" stroke-width="2px" />
<path d="M 656.241666665 45.0 L 556.241666665 45.0" stroke="#0095FF" fill="none" stroke-width="2px" />
<path d="M 556.241666665 45.0 L 556.241666665 35.0" stroke="#0095FF" fill="none" stroke-width="2px" />
<path d="M 556.241666665 35.0 L 536.241666665 35.0" stroke="#0095FF" fill="none" stroke-width="2px" />
<path d="M 536.241666665 35.0 L 536.241666665 15.0" stroke="#0095FF" fill="none" stroke-width="2px" />
<path d="M 466.241666665 15.0 L 486.241666665 15.0" stroke="#0095FF" fill="none" stroke-width="2px" />
<path d="M 486.241666665 15.0 L 486.241666665 5.0" stroke="#0095FF" fill="none" stroke-width="2px" />
<path d="M 506.241666665 -5.0 L 556.241666665 -5.0" stroke="#0095FF" fill="none" stroke-width="2px" />
<path d="M 556.241666665 -5.0 L 556.241666665 125.0" stroke="#0095FF" fill="none" stroke-width="2px" />
<path d="M 576.241666665 135.0 L 976.241666665 135.0" stroke="#0095FF" fill="none" stroke-width="2px" />
<path d="M 996.241666665 165.0 L 1036.24166667 165.0" stroke="#0095FF" fill="none" stroke-width="2px" />
<path d="M 1036.24166667 165.0 L 1036.24166667 175.0" stroke="#0095FF" fill="none" stroke-width="2px" />
<path d="M 1066.24166667 175.0 L 1066.24166667 125.0" stroke="#0095FF" fill="none" stroke-width="2px" />
<path d="M 1076.24166667 125.0 L 1066.24166667 125.0" stroke="#0095FF" fill="none" stroke-width="2px" />
<path d="M 1066.24166667 125.0 L 1066.24166667 105.0" stroke="#0095FF" fill="none" stroke-width="2px" />
<path d="M 996.241666665 85.0 L 1206.24166667 85.0" stroke="#0095FF" fill="none" stroke-width="2px" />
<path d="M 1206.24166667 85.0 L 1206.24166667 185.0" stroke="#0095FF" fill="none" stroke-width="2px" />
<path d="M 1236.24166667 235.0 L 1236.24166667 175.0" stroke="#0095FF" fill="none" stroke-width="2px" />
<path d="M 1246.24166667 175.0 L 1246.24166667 155.0" stroke="#0095FF" fill="none" stroke-width="2px" />
<path d="M 1256.24166667 155.0 L 1256.24166667 135.0" stroke="#0095FF" fill="none" stroke-width="2px" />
<path d="M 1276.24166667 105.0 L 1276.24166667 85.0" stroke="#0095FF" fill="none" stroke-width="2px" />
<path d="M 296.241666665 35.0 L 306.241666665 35.0" stroke="#FF0000" fill="none" stroke-width="4px" />
<path d="M 306.241666665 35.0 L 306.241666665 25.0" stroke="#FF0000" fill="none" stroke-width="4px" />
<path d="M 306.241666665 25.0 L 296.241666665 25.0" stroke="#FF0000" fill="none" stroke-width="4px" />
<path d="M 296.241666665 25.0 L 286.241666665 25.0" stroke="#FF0000" fill="none" stroke-width="4px" />
<path d="M 286.241666665 25.0 L 286.241666665 15.0" stroke="#FF0000" fill="none" stroke-width="4px" />
<path d="M 286.241666665 15.0 L 296.241666665 15.0" stroke="#FF0000" fill="none" stroke-width="4px" />
<path d="M 296.241666665 15.0 L 306.241666665 15.0" stroke="#FF0000" fill="none" stroke-width="4px" />
<path d="M 306.241666665 15.0 L 316.241666665 15.0" stroke="#FF0000" fill="none" stroke-width="4px" />
<path d="M 316.241666665 15.0 L 316.241666665 25.0" stroke="#FF0000" fill="none" stroke-width="4px" />
<path d="M 306.241666665 5.0 L 296.241666665 5.0" stroke="#FF0000" fill="none" stroke-width="4px" />
<path d="M 296.241666665 5.0 L 296.241666665 -5.0" stroke="#FF0000" fill="none" stroke-width="4px" />
<path d="M 296.241666665 -5.0 L 306.241666665 -5.0" stroke="#FF0000" fill="none" stroke-width="4px" />
<path d="M 456.241666665 25.0 L 466.241666665 25.0" stroke="#FF0000" fill="none" stroke-width="4px" />
<path d="M 466.241666665 25.0 L 476.241666665 25.0" stroke="#FF0000" fill="none" stroke-width="4px" />
<path d="M 476.241666665 25.0 L 486.241666665 25.0" stroke="#FF0000" fill="none" stroke-width="4px" />
<path d="M 486.241666665 25.0 L 496.241666665 25.0" stroke="#FF0000" fill="none" stroke-width="4px" />
<path d="M 496.241666665 25.0 L 506.241666665 25.0" stroke="#FF0000" fill="none" stroke-width="4px" />
<path d="M 506.241666665 25.0 L 516.241666665 25.0" stroke="#FF0000" fill="none" stroke-width="4px" />
<path d="M 516.241666665 25.0 L 526.241666665 25.0" stroke="#FF0000" fill="none" stroke-width="4px" />
<path d="M 526.241666665 25.0 L 536.241666665 25.0" stroke="#FF0000" fill="none" stroke-width="4px" />
<path d="M 536.241666665 25.0 L 546.241666665 25.0" stroke="#FF0000" fill="none" stroke-width="4px" />
<path d="M 546.241666665 25.0 L 546.241666665 35.0" stroke="#FF0000" fill="none" stroke-width="4px" />
<path d="M 546.241666665 35.0 L 536.241666665 35.0" stroke="#FF0000" fill="none" stroke-width="4px" />
<path d="M 536.241666665 35.0 L 526.241666665 35.0" stroke="#FF0000" fill="none" stroke-width="4px" />
<path d="M 526.241666665 35.0 L 516.241666665 35.0" stroke="#FF0000" fill="none" stroke-width="4px" />
<path d="M 516.241666665 35.0 L 506.241666665 35.0" stroke="#FF0000" fill="none" stroke-width="4px" />
<path d="M 506.241666665 35.0 L 496.241666665 35.0" stroke="#FF0000" fill="none" stroke-width="4px" />
<path d="M 496.241666665 35.0 L 486.241666665 35.0" stroke="#FF0000" fill="none" stroke-width="4px" />
<path d="M 486.241666665 35.0 L 476.241666665 35.0" stroke="#FF0000" fill="none" stroke-width="4px" />
<path d="M 476.241666665 35.0 L 466.241666665 35.0" stroke="#FF0000" fill="none" stroke-width="4px" />
<path d="M 466.241666665 35.0 L 456.241666665 35.0" stroke="#FF0000" fill="none" stroke-width="4px" />
<path d="M 456.241666665 35.0 L 456.241666665 45.0" stroke="#FF0000" fill="none" stroke-width="4px" />
<path d="M 456.241666665 45.0 L 466.241666665 45.0" stroke="#FF0000" fill="none" stroke-width="4px" />
<path d="M 466.241666665 45.0 L 476.241666665 45.0" stroke="#FF0000" fill="none" stroke-width="4px" />
<path d="M 476.241666665 45.0 L 486.241666665 45.0" stroke="#FF0000" fill="none" stroke-width="4px" />
<path d="M 486.241666665 45.0 L 496.241666665 45.0" stroke="#FF0000" fill="none" stroke-width="4px" />
<path d="M 496.241666665 45.0 L 506.241666665 45.0" stroke="#FF0000" fill="none" stroke-width="4px" />
<path d="M 506.241666665 45.0 L 516.241666665 45.0" stroke="#FF0000" fill="none" stroke-width="4px" />
<path d="M 516.241666665 45.0 L 526.241666665 45.0" stroke="#FF0000" fill="none" stroke-width="4px" />
<path d="M 526.241666665 45.0 L 536.241666665 45.0" stroke="#FF0000" fill="none" stroke-width="4px" />
<path d="M 536.241666665 45.0 L 546.241666665 45.0" stroke="#FF0000" fill="none" stroke-width="4px" />
<path d="M 546.241666665 45.0 L 536.241666665 55.0" stroke="#FF0000" fill="none" stroke-width="4px" />
<path d="M 536.241666665 55.0 L 526.241666665 55.0" stroke="#FF0000" fill="none" stroke-width="4px" />
<path d="M 526.241666665 55.0 L 516.241666665 55.0" stroke="#FF0000" fill="none" stroke-width="4px" />
<path d="M 516.241666665 55.0 L 506.241666665 55.0" stroke="#FF0000" fill="none" stroke-width="4px" />
<path d="M 506.241666665 55.0 L 496.241666665 55.0" stroke="#FF0000" fill="none" stroke-width="4px" />
<path d="M 496.241666665 55.0 L 486.241666665 55.0" stroke="#FF0000" fill="none" stroke-width="4px" />
<path d="M 486.241666665 55.0 L 476.241666665 55.0" stroke="#FF0000" fill="none" stroke-width="4px" />
<path d="M 476.241666665 55.0 L 466.241666665 55.0" stroke="#FF0000" fill="none" stroke-width="4px" />
<path d="M 466.241666665 55.0 L 466.241666665 65.0" stroke="#FF0000" fill="none" stroke-width="4px" />
<path d="M 466.241666665 65.0 L 476.241666665 65.0" stroke="#FF0000" fill="none" stroke-width="4px" />
<path d="M 476.241666665 65.0 L 486.241666665 65.0" stroke="#FF0000" fill="none" stroke-width="4px" />
<path d="M 486.241666665 65.0 L 496.241666665 65.0" stroke="#FF0000" fill="none" stroke-width="4px" />
<path d="M 496.241666665 65.0 L 506.241666665 65.0" stroke="#FF0000" fill="none" stroke-width="4px" />
<path d="M 506.241666665 65.0 L 516.241666665 65.0" stroke="#FF0000" fill="none" stroke-width="4px" />
<path d="M 516.241666665 65.0 L 526.241666665 65.0" stroke="#FF0000" fill="none" stroke-width="4px" />
<path d="M 526.241666665 65.0 L 536.241666665 65.0" stroke="#FF0000" fill="none" stroke-width="4px" />
<path d="M 536.241666665 65.0 L 536.241666665 75.0" stroke="#FF0000" fill="none" stroke-width="4px" />
<path d="M 536.241666665 75.0 L 526.241666665 75.0" stroke="#FF0000" fill="none" stroke-width="4px" />
<path d="M 526.241666665 75.0 L 516.241666665 75.0" stroke="#FF0000" fill="none" stroke-width="4px" />
<path d="M 516.241666665 75.0 L 506.241666665 75.0" stroke="#FF0000" fill="none" stroke-width="4px" />
<path d="M 506.241666665 75.0 L 496.241666665 75.0" stroke="#FF0000" fill="none" stroke-width="4px" />
<path d="M 496.241666665 75.0 L 486.241666665 75.0" stroke="#FF0000" fill="none" stroke-width="4px" />
<path d="M 486.241666665 75.0 L 476.241666665 75.0" stroke="#FF0000" fill="none" stroke-width="4px" />
<path d="M 476.241666665 75.0 L 486.241666665 85.0" stroke="#FF0000" fill="none" stroke-width="4px" />
<path d="M 486.241666665 85.0 L 496.241666665 85.0" stroke="#FF0000" fill="none" stroke-width="4px" />
<path d="M 496.241666665 85.0 L 506.241666665 85.0" stroke="#FF0000" fill="none" stroke-width="4px" />
<path d="M 506.241666665 85.0 L 516.241666665 85.0" stroke="#FF0000" fill="none" stroke-width="4px" />
<path d="M 506.241666665 125.0 L 496.241666665 125.0" stroke="#FF0000" fill="none" stroke-width="4px" />
<path d="M 496.241666665 125.0 L 496.241666665 135.0" stroke="#FF0000" fill="none" stroke-width="4px" />
<path d="M 496.241666665 135.0 L 486.241666665 135.0" stroke="#FF0000" fill="none" stroke-width="4px" />
<path d="M 486.241666665 135.0 L 486.241666665 145.0" stroke="#FF0000" fill="none" stroke-width="4px" />
<path d="M 486.241666665 145.0 L 476.241666665 145.0" stroke="#FF0000" fill="none" stroke-width="4px" />
<path d="M 476.241666665 145.0 L 476.241666665 155.0" stroke="#FF0000" fill="none" stroke-width="4px" />
<path d="M 476.241666665 155.0 L 486.241666665 155.0" stroke="#FF0000" fill="none" stroke-width="4px" />
<path d="M 486.241666665 155.0 L 496.241666665 155.0" stroke="#FF0000" fill="none" stroke-width="4px" />
<path d="M 496.241666665 155.0 L 506.241666665 155.0" stroke="#FF0000" fill="none" stroke-width="4px" />
<path d="M 506.241666665 155.0 L 516.241666665 155.0" stroke="#FF0000" fill="none" stroke-width="4px" />
<path d="M 516.241666665 155.0 L 526.241666665 155.0" stroke="#FF0000" fill="none" stroke-width="4px" />
<path d="M 526.241666665 155.0 L 536.241666665 155.0" stroke="#FF0000" fill="none" stroke-width="4px" />
<path d="M 536.241666665 155.0 L 546.241666665 155.0" stroke="#FF0000" fill="none" stroke-width="4px" />
<path d="M 546.241666665 155.0 L 556.241666665 155.0" stroke="#FF0000" fill="none" stroke-width="4px" />
<path d="M 556.241666665 155.0 L 566.241666665 155.0" stroke="#FF0000" fill="none" stroke-width="4px" />
<path d="M 566.241666665 155.0 L 576.241666665 155.0" stroke="#FF0000" fill="none" stroke-width="4px" />
<path d="M 576.241666665 155.0 L 586.241666665 155.0" stroke="#FF0000" fill="none" stroke-width="4px" />
<path d="M 586.241666665 155.0 L 596.241666665 155.0" stroke="#FF0000" fill="none" stroke-width="4px" />
<path d="M 596.241666665 155.0 L 596.241666665 165.0" stroke="#FF0000" fill="none" stroke-width="4px" />
<path d="M 596.241666665 165.0 L 586.241666665 165.0" stroke="#FF0000" fill="none" stroke-width="4px" />
<path d="M 586.241666665 165.0 L 576.241666665 165.0" stroke="#FF0000" fill="none" stroke-width="4px" />
<path d="M 576.241666665 165.0 L 566.241666665 165.0" stroke="#FF0000" fill="none" stroke-width="4px" />
<path d="M 566.241666665 165.0 L 556.241666665 165.0" stroke="#FF0000" fill="none" stroke-width="4px" />
<path d="M 556.241666665 165.0 L 546.241666665 165.0" stroke="#FF0000" fill="none" stroke-width="4px" />
<path d="M 546.241666665 165.0 L 536.241666665 165.0" stroke="#FF0000" fill="none" stroke-width="4px" />
<path d="M 536.241666665 165.0 L 526.241666665 165.0" stroke="#FF0000" fill="none" stroke-width="4px" />
<path d="M 526.241666665 165.0 L 516.241666665 165.0" stroke="#FF0000" fill="none" stroke-width="4px" />
<path d="M 516.241666665 165.0 L 506.241666665 165.0" stroke="#FF0000" fill="none" stroke-width="4px" />
<path d="M 506.241666665 165.0 L 496.241666665 165.0" stroke="#FF0000" fill="none" stroke-width="4px" />
<path d="M 496.241666665 165.0 L 486.241666665 165.0" stroke="#FF0000" fill="none" stroke-width="4px" />
<path d="M 486.241666665 165.0 L 476.241666665 165.0" stroke="#FF0000" fill="none" stroke-width="4px" />
<path d="M 476.241666665 165.0 L 476.241666665 175.0" stroke="#FF0000" fill="none" stroke-width="4px" />
<path d="M 476.241666665 175.0 L 486.241666665 175.0" stroke="#FF0000" fill="none" stroke-width="4px" />
<path d="M 486.241666665 175.0 L 496.241666665 175.0" stroke="#FF0000" fill="none" stroke-width="4px" />
<path d="M 496.241666665 175.0 L 506.241666665 175.0" stroke="#FF0000" fill="none" stroke-width="4px" />
<path d="M 506.241666665 175.0 L 516.241666665 175.0" stroke="#FF0000" fill="none" stroke-width="4px" />
<path d="M 516.241666665 175.0 L 526.241666665 175.0" stroke="#FF0000" fill="none" stroke-width="4px" />
<path d="M 526.241666665 175.0 L 536.241666665 175.0" stroke="#FF0000" fill="none" stroke-width="4px" />
<path d="M 536.241666665 175.0 L 546.241666665 175.0" stroke="#FF0000" fill="none" stroke-width="4px" />
<path d="M 546.241666665 175.0 L 556.241666665 175.0" stroke="#FF0000" fill="none" stroke-width="4px" />
<path d="M 556.241666665 175.0 L 566.241666665 175.0" stroke="#FF0000" fill="none" stroke-width="4px" />
<path d="M 566.241666665 175.0 L 576.241666665 175.0" stroke="#FF0000" fill="none" stroke-width="4px" />
<path d="M 576.241666665 175.0 L 586.241666665 175.0" stroke="#FF0000" fill="none" stroke-width="4px" />
<path d="M 586.241666665 175.0 L 596.241666665 175.0" stroke="#FF0000" fill="none" stroke-width="4px" />
<path d="M 596.241666665 175.0 L 586.241666665 185.0" stroke="#FF0000" fill="none" stroke-width="4px" />
<path d="M 586.241666665 185.0 L 576.241666665 185.0" stroke="#FF0000" fill="none" stroke-width="4px" />
<path d="M 576.241666665 185.0 L 566.241666665 185.0" stroke="#FF0000" fill="none" stroke-width="4px" />
<path d="M 566.241666665 185.0 L 556.241666665 185.0" stroke="#FF0000" fill="none" stroke-width="4px" />
<path d="M 556.241666665 185.0 L 546.241666665 185.0" stroke="#FF0000" fill="none" stroke-width="4px" />
<path d="M 546.241666665 185.0 L 536.241666665 185.0" stroke="#FF0000" fill="none" stroke-width="4px" />
<path d="M 536.241666665 185.0 L 526.241666665 185.0" stroke="#FF0000" fill="none" stroke-width="4px" />
<path d="M 526.241666665 185.0 L 516.241666665 185.0" stroke="#FF0000" fill="none" stroke-width="4px" />
<path d="M 516.241666665 185.0 L 506.241666665 185.0" stroke="#FF0000" fill="none" stroke-width="4px" />
<path d="M 506.241666665 185.0 L 496.241666665 185.0" stroke="#FF0000" fill="none" stroke-width="4px" />
<path d="M 496.241666665 185.0 L 486.241666665 185.0" stroke="#FF0000" fill="none" stroke-width="4px" />
<path d="M 486.241666665 185.0 L 476.241666665 185.0" stroke="#FF0000" fill="none" stroke-width="4px" />
<path d="M 476.241666665 185.0 L 476.241666665 195.0" stroke="#FF0000" fill="none" stroke-width="4px" />
<path d="M 476.241666665 195.0 L 486.241666665 195.0" stroke="#FF0000" fill="none" stroke-width="4px" />
<path d="M 486.241666665 195.0 L 496.241666665 195.0" stroke="#FF0000" fill="none" stroke-width="4px" />
<path d="M 496.241666665 195.0 L 506.241666665 195.0" stroke="#FF0000" fill="none" stroke-width="4px" />
<path d="M 506.241666665 195.0 L 516.241666665 195.0" stroke="#FF0000" fill="none" stroke-width="4px" />
<path d="M 516.241666665 195.0 L 526.241666665 195.0" stroke="#FF0000" fill="none" stroke-width="4px" />
<path d="M 526.241666665 195.0 L 536.241666665 195.0" stroke="#FF0000" fill="none" stroke-width="4px" />
<path d="M 536.241666665 195.0 L 546.241666665 195.0" stroke="#FF0000" fill="none" stroke-width="4px" />
<path d="M 546.241666665 195.0 L 556.241666665 195.0" stroke="#FF0000" fill="none" stroke-width="4px" />
<path d="M 556.241666665 195.0 L 566.241666665 195.0" stroke="#FF0000" fill="none" stroke-width="4px" />
<path d="M 566.241666665 195.0 L 576.241666665 195.0" stroke="#FF0000" fill="none" stroke-width="4px" />
<path d="M 576.241666665 195.0 L 586.241666665 195.0" stroke="#FF0000" fill="none" stroke-width="4px" />
<path d="M 586.241666665 195.0 L 586.241666665 205.0" stroke="#FF0000" fill="none" stroke-width="4px" />
<path d="M 586.241666665 205.0 L 576.241666665 205.0" stroke="#FF0000" fill="none" stroke-width="4px" />
<path d="M 576.241666665 205.0 L 566.241666665 205.0" stroke="#FF0000" fill="none" stroke-width="4px" />
<path d="M 566.241666665 205.0 L 556.241666665 205.0" stroke="#FF0000" fill="none" stroke-width="4px" />
<path d="M 556.241666665 205.0 L 546.241666665 205.0" stroke="#FF0000" fill="none" stroke-width="4px" />
<path d="M 546.241666665 205.0 L 536.241666665 205.0" stroke="#FF0000" fill="none" stroke-width="4px" />
<path d="M 536.241666665 205.0 L 526.241666665 205.0" stroke="#FF0000" fill="none" stroke-width="4px" />
<path d="M 526.241666665 205.0 L 516.241666665 205.0" stroke="#FF0000" fill="none" stroke-width="4px" />
<path d="M 516.241666665 205.0 L 506.241666665 205.0" stroke="#FF0000" fill="none" stroke-width="4px" />
<path d="M 506.241666665 205.0 L 496.241666665 205.0" stroke="#FF0000" fill="none" stroke-width="4px" />
<path d="M 496.241666665 205.0 L 486.241666665 205.0" stroke="#FF0000" fill="none" stroke-width="4px" />
<path d="M 486.241666665 205.0 L 496.241666665 215.0" stroke="#FF0000" fill="none" stroke-width="4px" />
<path d="M 496.241666665 215.0 L 506.241666665 215.0" stroke="#FF0000" fill="none" stroke-width="4px" />
<path d="M 506.241666665 215.0 L 516.241666665 215.0" stroke="#FF0000" fill="none" stroke-width="4px" />
<path d="M 516.241666665 215.0 L 526.241666665 215.0" stroke="#FF0000" fill="none" stroke-width="4px" />
<path d="M 526.241666665 215.0 L 536.241666665 215.0" stroke="#FF0000" fill="none" stroke-width="4px" />
<path d="M 536.241666665 215.0 L 546.241666665 215.0" stroke="#FF0000" fill="none" stroke-width="4px" />
<path d="M 546.241666665 215.0 L 556.241666665 215.0" stroke="#FF0000" fill="none" stroke-width="4px" />
<path d="M 556.241666665 215.0 L 566.241666665 215.0" stroke="#FF0000" fill="none" stroke-width="4px" />
<path d="M 566.241666665 215.0 L 576.241666665 215.0" stroke="#FF0000" fill="none" stroke-width="4px" />
<path d="M 576.241666665 215.0 L 586.241666665 215.0" stroke="#FF0000" fill="none" stroke-width="4px" />
<path d="M 586.241666665 215.0 L 576.241666665 225.0" stroke="#FF0000" fill="none" stroke-width="4px" />
<path d="M 576.241666665 225.0 L 566.241666665 225.0" stroke="#FF0000" fill="none" stroke-width="4px" />
<path d="M 566.241666665 225.0 L 556.241666665 225.0" stroke="#FF0000" fill="none" stroke-width="4px" />
<path d="M 656.241666665 195.0 L 666.241666665 195.0" stroke="#FF0000" fill="none" stroke-width="4px" />
<path d="M 666.241666665 195.0 L 676.241666665 195.0" stroke="#FF0000" fill="none" stroke-width="4px" />
<path d="M 676.241666665 195.0 L 686.241666665 195.0" stroke="#FF0000" fill="none" stroke-width="4px" />
<path d="M 686.241666665 195.0 L 696.241666665 195.0" stroke="#FF0000" fill="none" stroke-width="4px" />
<path d="M 696.241666665 195.0 L 706.241666665 195.0" stroke="#FF0000" fill="none" stroke-width="4px" />
<path d="M 706.241666665 195.0 L 716.241666665 195.0" stroke="#FF0000" fill="none" stroke-width="4px" />
<path d="M 716.241666665 195.0 L 716.241666665 185.0" stroke="#FF0000" fill="none" stroke-width="4px" />
<path d="M 716.241666665 185.0 L 706.241666665 185.0" stroke="#FF0000" fill="none" stroke-width="4px" />
<path d="M 706.241666665 185.0 L 696.241666665 185.0" stroke="#FF0000" fill="none" stroke-width="4px" />
<path d="M 696.241666665 185.0 L 686.241666665 185.0" stroke="#FF0000" fill="none" stroke-width="4px" />
<path d="M 686.241666665 185.0 L 676.241666665 185.0" stroke="#FF0000" fill="none" stroke-width="4px" />
<path d="M 676.241666665 185.0 L 666.241666665 185.0" stroke="#FF0000" fill="none" stroke-width="4px" />
<path d="M 666.241666665 185.0 L 656.241666665 185.0" stroke="#FF0000" fill="none" stroke-width="4px" />
<path d="M 656.241666665 185.0 L 666.241666665 175.0" stroke="#FF0000" fill="none" stroke-width="4px" />
<path d="M 666.241666665 175.0 L 676.241666665 175.0" stroke="#FF0000" fill="none" stroke-width="4px" />
<path d="M 676.241666665 175.0 L 686.241666665 175.0" stroke="#FF0000" fill="none" stroke-width="4px" />
<path d="M 686.241666665 175.0 L 696.241666665 175.0" stroke="#FF0000" fill="none" stroke-width="4px" />
<path d="M 696.241666665 175.0 L 706.241666665 175.0" stroke="#FF0000" fill="none" stroke-width="4px" />
<path d="M 706.241666665 175.0 L 696.241666665 165.0" stroke="#FF0000" fill="none" stroke-width="4px" />
<path d="M 696.241666665 165.0 L 686.241666665 165.0" stroke="#FF0000" fill="none" stroke-width="4px" />
<path d="M 686.241666665 165.0 L 676.241666665 165.0" stroke="#FF0000" fill="none" stroke-width="4px" />
<path d="M 676.241666665 205.0 L 666.241666665 205.0" stroke="#FF0000" fill="none" stroke-width="4px" />
<path d="M 666.241666665 205.0 L 676.241666665 215.0" stroke="#FF0000" fill="none" stroke-width="4px" />
<path d="M 676.241666665 215.0 L 686.241666665 215.0" stroke="#FF0000" fill="none" stroke-width="4px" />
<path d="M 686.241666665 215.0 L 696.241666665 215.0" stroke="#FF0000" fill="none" stroke-width="4px" />
<path d="M 696.241666665 215.0 L 696.241666665 205.0" stroke="#FF0000" fill="none" stroke-width="4px" />
<path d="M 696.241666665 205.0 L 686.241666665 205.0" stroke="#FF0000" fill="none" stroke-width="4px" />
<path d="M 686.241666665 205.0 L 706.241666665 205.0" stroke="#FF0000" fill="none" stroke-width="4px" />
<path d="M 686.241666665 105.0 L 676.241666665 105.0" stroke="#FF0000" fill="none" stroke-width="4px" />
<path d="M 676.241666665 105.0 L 666.241666665 105.0" stroke="#FF0000" fill="none" stroke-width="4px" />
<path d="M 666.241666665 105.0 L 666.241666665 95.0" stroke="#FF0000" fill="none" stroke-width="4px" />
<path d="M 666.241666665 95.0 L 656.241666665 95.0" stroke="#FF0000" fill="none" stroke-width="4px" />
<path d="M 656.241666665 95.0 L 656.241666665 85.0" stroke="#FF0000" fill="none" stroke-width="4px" />
<path d="M 656.241666665 85.0 L 646.241666665 85.0" stroke="#FF0000" fill="none" stroke-width="4px" />
<path d="M 646.241666665 85.0 L 646.241666665 75.0" stroke="#FF0000" fill="none" stroke-width="4px" />
<path d="M 646.241666665 75.0 L 656.241666665 75.0" stroke="#FF0000" fill="none" stroke-width="4px" />
<path d="M 656.241666665 75.0 L 666.241666665 75.0" stroke="#FF0000" fill="none" stroke-width="4px" />
<path d="M 666.241666665 75.0 L 676.241666665 75.0" stroke="#FF0000" fill="none" stroke-width="4px" />
<path d="M 676.241666665 75.0 L 686.241666665 75.0" stroke="#FF0000" fill="none" stroke-width="4px" />
<path d="M 686.241666665 75.0 L 696.241666665 75.0" stroke="#FF0000" fill="none" stroke-width="4px" />
<path d="M 696.241666665 75.0 L 706.241666665 75.0" stroke="#FF0000" fill="none" stroke-width="4px" />
<path d="M 706.241666665 75.0 L 706.241666665 85.0" stroke="#FF0000" fill="none" stroke-width="4px" />
<path d="M 706.241666665 85.0 L 696.241666665 85.0" stroke="#FF0000" fill="none" stroke-width="4px" />
<path d="M 696.241666665 85.0 L 686.241666665 85.0" stroke="#FF0000" fill="none" stroke-width="4px" />
<path d="M 686.241666665 85.0 L 676.241666665 85.0" stroke="#FF0000" fill="none" stroke-width="4px" />
<path d="M 676.241666665 85.0 L 666.241666665 85.0" stroke="#FF0000" fill="none" stroke-width="4px" />
<path d="M 666.241666665 85.0 L 676.241666665 95.0" stroke="#FF0000" fill="none" stroke-width="4px" />
<path d="M 676.241666665 95.0 L 686.241666665 95.0" stroke="#FF0000" fill="none" stroke-width="4px" />
<path d="M 686.241666665 95.0 L 696.241666665 95.0" stroke="#FF0000" fill="none" stroke-width="4px" />
<path d="M 696.241666665 65.0 L 686.241666665 65.0" stroke="#FF0000" fill="none" stroke-width="4px" />
<path d="M 686.241666665 65.0 L 676.241666665 65.0" stroke="#FF0000" fill="none" stroke-width="4px" />
<path d="M 676.241666665 65.0 L 666.241666665 65.0" stroke="#FF0000" fill="none" stroke-width="4px" />
<path d="M 666.241666665 65.0 L 656.241666665 65.0" stroke="#FF0000" fill="none" stroke-width="4px" />
<path d="M 656.241666665 65.0 L 646.241666665 65.0" stroke="#FF0000" fill="none" stroke-width="4px" />
<path d="M 646.241666665 65.0 L 646.241666665 55.0" stroke="#FF0000" fill="none" stroke-width="4px" />
<path d="M 646.241666665 55.0 L 656.241666665 55.0" stroke="#FF0000" fill="none" stroke-width="4px" />
<path d="M 656.241666665 55.0 L 666.241666665 55.0" stroke="#FF0000" fill="none" stroke-width="4px" />
<path d="M 666.241666665 55.0 L 676.241666665 55.0" stroke="#FF0000" fill="none" stroke-width="4px" />
<path d="M 676.241666665 55.0 L 686.241666665 55.0" stroke="#FF0000" fill="none" stroke-width="4px" />
<path d="M 686.241666665 55.0 L 676.241666665 45.0" stroke="#FF0000" fill="none" stroke-width="4px" />
<path d="M 676.241666665 45.0 L 666.241666665 45.0" stroke="#FF0000" fill="none" stroke-width="4px" />
<path d="M 666.241666665 45.0 L 656.241666665 45.0" stroke="#FF0000" fill="none" stroke-width="4px" />
<path d="M 536.241666665 15.0 L 526.241666665 15.0" stroke="#FF0000" fill="none" stroke-width="4px" />
<path d="M 526.241666665 15.0 L 516.241666665 15.0" stroke="#FF0000" fill="none" stroke-width="4px" />
<path d="M 516.241666665 15.0 L 506.241666665 15.0" stroke="#FF0000" fill="none" stroke-width="4px" />
<path d="M 506.241666665 15.0 L 496.241666665 15.0" stroke="#FF0000" fill="none" stroke-width="4px" />
<path d="M 496.241666665 15.0 L 486.241666665 15.0" stroke="#FF0000" fill="none" stroke-width="4px" />
<path d="M 486.241666665 15.0 L 476.241666665 15.0" stroke="#FF0000" fill="none" stroke-width="4px" />
<path d="M 476.241666665 15.0 L 466.241666665 15.0" stroke="#FF0000" fill="none" stroke-width="4px" />
<path d="M 486.241666665 5.0 L 496.241666665 5.0" stroke="#FF0000" fill="none" stroke-width="4px" />
<path d="M 496.241666665 5.0 L 506.241666665 5.0" stroke="#FF0000" fill="none" stroke-width="4px" />
<path d="M 506.241666665 5.0 L 516.241666665 5.0" stroke="#FF0000" fill="none" stroke-width="4px" />
<path d="M 516.241666665 5.0 L 506.241666665 -5.0" stroke="#FF0000" fill="none" stroke-width="4px" />
<path d="M 556.241666665 125.0 L 566.241666665 125.0" stroke="#FF0000" fill="none" stroke-width="4px" />
<path d="M 566.241666665 125.0 L 566.241666665 135.0" stroke="#FF0000" fill="none" stroke-width="4px" />
<path d="M 566.241666665 135.0 L 556.241666665 135.0" stroke="#FF0000" fill="none" stroke-width="4px" />
<path d="M 556.241666665 135.0 L 546.241666665 135.0" stroke="#FF0000" fill="none" stroke-width="4px" />
<path d="M 546.241666665 135.0 L 536.241666665 135.0" stroke="#FF0000" fill="none" stroke-width="4px" />
<path d="M 536.241666665 135.0 L 526.241666665 135.0" stroke="#FF0000" fill="none" stroke-width="4px" />
<path d="M 526.241666665 135.0 L 516.241666665 135.0" stroke="#FF0000" fill="none" stroke-width="4px" />
<path d="M 516.241666665 135.0 L 506.241666665 135.0" stroke="#FF0000" fill="none" stroke-width="4px" />
<path d="M 506.241666665 135.0 L 506.241666665 145.0" stroke="#FF0000" fill="none" stroke-width="4px" />
<path d="M 506.241666665 145.0 L 496.241666665 145.0" stroke="#FF0000" fill="none" stroke-width="4px" />
<path d="M 496.241666665 145.0 L 516.241666665 145.0" stroke="#FF0000" fill="none" stroke-width="4px" />
<path d="M 516.241666665 145.0 L 526.241666665 145.0" stroke="#FF0000" fill="none" stroke-width="4px" />
<path d="M 526.241666665 145.0 L 536.241666665 145.0" stroke="#FF0000" fill="none" stroke-width="4px" />
<path d="M 536.241666665 145.0 L 546.241666665 145.0" stroke="#FF0000" fill="none" stroke-width="4px" />
<path d="M 546.241666665 145.0 L 556.241666665 145.0" stroke="#FF0000" fill="none" stroke-width="4px" />
<path d="M 556.241666665 145.0 L 566.241666665 145.0" stroke="#FF0000" fill="none" stroke-width="4px" />
<path d="M 566.241666665 145.0 L 576.241666665 145.0" stroke="#FF0000" fill="none" stroke-width="4px" />
<path d="M 576.241666665 145.0 L 586.241666665 145.0" stroke="#FF0000" fill="none" stroke-width="4px" />
<path d="M 586.241666665 145.0 L 576.241666665 135.0" stroke="#FF0000" fill="none" stroke-width="4px" />
<path d="M 976.241666665 135.0 L 986.241666665 135.0" stroke="#FF0000" fill="none" stroke-width="4px" />
<path d="M 986.241666665 135.0 L 996.241666665 135.0" stroke="#FF0000" fill="none" stroke-width="4px" />
<path d="M 996.241666665 135.0 L 1006.24166667 135.0" stroke="#FF0000" fill="none" stroke-width="4px" />
<path d="M 1006.24166667 135.0 L 1016.24166667 135.0" stroke="#FF0000" fill="none" stroke-width="4px" />
<path d="M 1016.24166667 135.0 L 1026.24166667 135.0" stroke="#FF0000" fill="none" stroke-width="4px" />
<path d="M 1026.24166667 135.0 L 1036.24166667 135.0" stroke="#FF0000" fill="none" stroke-width="4px" />
<path d="M 1036.24166667 135.0 L 1046.24166667 135.0" stroke="#FF0000" fill="none" stroke-width="4px" />
<path d="M 1046.24166667 135.0 L 1056.24166667 135.0" stroke="#FF0000" fill="none" stroke-width="4px" />
<path d="M 1056.24166667 135.0 L 1066.24166667 135.0" stroke="#FF0000" fill="none" stroke-width="4px" />
<path d="M 1066.24166667 135.0 L 1076.24166667 135.0" stroke="#FF0000" fill="none" stroke-width="4px" />
<path d="M 1076.24166667 135.0 L 1086.24166667 135.0" stroke="#FF0000" fill="none" stroke-width="4px" />
<path d="M 1086.24166667 135.0 L 1086.24166667 145.0" stroke="#FF0000" fill="none" stroke-width="4px" />
<path d="M 1086.24166667 145.0 L 1076.24166667 145.0" stroke="#FF0000" fill="none" stroke-width="4px" />
<path d="M 1076.24166667 145.0 L 1066.24166667 145.0" stroke="#FF0000" fill="none" stroke-width="4px" />
<path d="M 1066.24166667 145.0 L 1056.24166667 145.0" stroke="#FF0000" fill="none" stroke-width="4px" />
<path d="M 1056.24166667 145.0 L 1046.24166667 145.0" stroke="#FF0000" fill="none" stroke-width="4px" />
<path d="M 1046.24166667 145.0 L 1036.24166667 145.0" stroke="#FF0000" fill="none" stroke-width="4px" />
<path d="M 1036.24166667 145.0 L 1026.24166667 145.0" stroke="#FF0000" fill="none" stroke-width="4px" />
<path d="M 1026.24166667 145.0 L 1016.24166667 145.0" stroke="#FF0000" fill="none" stroke-width="4px" />
<path d="M 1016.24166667 145.0 L 1006.24166667 145.0" stroke="#FF0000" fill="none" stroke-width="4px" />
<path d="M 1006.24166667 145.0 L 996.241666665 145.0" stroke="#FF0000" fill="none" stroke-width="4px" />
<path d="M 996.241666665 145.0 L 986.241666665 145.0" stroke="#FF0000" fill="none" stroke-width="4px" />
<path d="M 986.241666665 145.0 L 976.241666665 145.0" stroke="#FF0000" fill="none" stroke-width="4px" />
<path d="M 976.241666665 145.0 L 986.241666665 155.0" stroke="#FF0000" fill="none" stroke-width="4px" />
<path d="M 986.241666665 155.0 L 996.241666665 155.0" stroke="#FF0000" fill="none" stroke-width="4px" />
<path d="M 996.241666665 155.0 L 1006.24166667 155.0" stroke="#FF0000" fill="none" stroke-width="4px" />
<path d="M 1006.24166667 155.0 L 1016.24166667 155.0" stroke="#FF0000" fill="none" stroke-width="4px" />
<path d="M 1016.24166667 155.0 L 1026.24166667 155.0" stroke="#FF0000" fill="none" stroke-width="4px" />
<path d="M 1026.24166667 155.0 L 1036.24166667 155.0" stroke="#FF0000" fill="none" stroke-width="4px" />
<path d="M 1036.24166667 155.0 L 1046.24166667 155.0" stroke="#FF0000" fill="none" stroke-width="4px" />
<path d="M 1046.24166667 155.0 L 1056.24166667 155.0" stroke="#FF0000" fill="none" stroke-width="4px" />
<path d="M 1056.24166667 155.0 L 1066.24166667 155.0" stroke="#FF0000" fill="none" stroke-width="4px" />
<path d="M 1066.24166667 155.0 L 1076.24166667 155.0" stroke="#FF0000" fill="none" stroke-width="4px" />
<path d="M 1076.24166667 155.0 L 1086.24166667 155.0" stroke="#FF0000" fill="none" stroke-width="4px" />
<path d="M 1086.24166667 155.0 L 1076.24166667 165.0" stroke="#FF0000" fill="none" stroke-width="4px" />
<path d="M 1076.24166667 165.0 L 1066.24166667 165.0" stroke="#FF0000" fill="none" stroke-width="4px" />
<path d="M 1066.24166667 165.0 L 1056.24166667 165.0" stroke="#FF0000" fill="none" stroke-width="4px" />
<path d="M 1056.24166667 165.0 L 1046.24166667 165.0" stroke="#FF0000" fill="none" stroke-width="4px" />
<path d="M 1046.24166667 165.0 L 1036.24166667 165.0" stroke="#FF0000" fill="none" stroke-width="4px" />
<path d="M 1036.24166667 165.0 L 1026.24166667 165.0" stroke="#FF0000" fill="none" stroke-width="4px" />
<path d="M 1026.24166667 165.0 L 1016.24166667 165.0" stroke="#FF0000" fill="none" stroke-width="4px" />
<path d="M 1016.24166667 165.0 L 1006.24166667 165.0" stroke="#FF0000" fill="none" stroke-width="4px" />
<path d="M 1006.24166667 165.0 L 996.241666665 165.0" stroke="#FF0000" fill="none" stroke-width="4px" />
<path d="M 1036.24166667 175.0 L 1046.24166667 175.0" stroke="#FF0000" fill="none" stroke-width="4px" />
<path d="M 1046.24166667 175.0 L 1056.24166667 175.0" stroke="#FF0000" fill="none" stroke-width="4px" />
<path d="M 1056.24166667 175.0 L 1066.24166667 175.0" stroke="#FF0000" fill="none" stroke-width="4px" />
<path d="M 1066.24166667 125.0 L 1056.24166667 125.0" stroke="#FF0000" fill="none" stroke-width="4px" />
<path d="M 1056.24166667 125.0 L 1046.24166667 125.0" stroke="#FF0000" fill="none" stroke-width="4px" />
<path d="M 1046.24166667 125.0 L 1036.24166667 125.0" stroke="#FF0000" fill="none" stroke-width="4px" />
<path d="M 1036.24166667 125.0 L 1026.24166667 125.0" stroke="#FF0000" fill="none" stroke-width="4px" />
<path d="M 1026.24166667 125.0 L 1016.24166667 125.0" stroke="#FF0000" fill="none" stroke-width="4px" />
<path d="M 1016.24166667 125.0 L 1006.24166667 125.0" stroke="#FF0000" fill="none" stroke-width="4px" />
<path d="M 1006.24166667 125.0 L 996.241666665 125.0" stroke="#FF0000" fill="none" stroke-width="4px" />
<path d="M 996.241666665 125.0 L 986.241666665 125.0" stroke="#FF0000" fill="none" stroke-width="4px" />
<path d="M 986.241666665 125.0 L 976.241666665 125.0" stroke="#FF0000" fill="none" stroke-width="4px" />
<path d="M 976.241666665 125.0 L 976.241666665 115.0" stroke="#FF0000" fill="none" stroke-width="4px" />
<path d="M 976.241666665 115.0 L 986.241666665 115.0" stroke="#FF0000" fill="none" stroke-width="4px" />
<path d="M 986.241666665 115.0 L 996.241666665 115.0" stroke="#FF0000" fill="none" stroke-width="4px" />
<path d="M 996.241666665 115.0 L 1006.24166667 115.0" stroke="#FF0000" fill="none" stroke-width="4px" />
<path d="M 1006.24166667 115.0 L 1016.24166667 115.0" stroke="#FF0000" fill="none" stroke-width="4px" />
<path d="M 1016.24166667 115.0 L 1026.24166667 115.0" stroke="#FF0000" fill="none" stroke-width="4px" />
<path d="M 1026.24166667 115.0 L 1036.24166667 115.0" stroke="#FF0000" fill="none" stroke-width="4px" />
<path d="M 1036.24166667 115.0 L 1046.24166667 115.0" stroke="#FF0000" fill="none" stroke-width="4px" />
<path d="M 1046.24166667 115.0 L 1056.24166667 115.0" stroke="#FF0000" fill="none" stroke-width="4px" />
<path d="M 1056.24166667 115.0 L 1066.24166667 115.0" stroke="#FF0000" fill="none" stroke-width="4px" />
<path d="M 1066.24166667 115.0 L 1076.24166667 115.0" stroke="#FF0000" fill="none" stroke-width="4px" />
<path d="M 1076.24166667 115.0 L 1076.24166667 125.0" stroke="#FF0000" fill="none" stroke-width="4px" />
<path d="M 1066.24166667 105.0 L 1056.24166667 105.0" stroke="#FF0000" fill="none" stroke-width="4px" />
<path d="M 1056.24166667 105.0 L 1046.24166667 105.0" stroke="#FF0000" fill="none" stroke-width="4px" />
<path d="M 1046.24166667 105.0 L 1036.24166667 105.0" stroke="#FF0000" fill="none" stroke-width="4px" />
<path d="M 1036.24166667 105.0 L 1026.24166667 105.0" stroke="#FF0000" fill="none" stroke-width="4px" />
<path d="M 1026.24166667 105.0 L 1016.24166667 105.0" stroke="#FF0000" fill="none" stroke-width="4px" />
<path d="M 1016.24166667 105.0 L 1006.24166667 105.0" stroke="#FF0000" fill="none" stroke-width="4px" />
<path d="M 1006.24166667 105.0 L 996.241666665 105.0" stroke="#FF0000" fill="none" stroke-width="4px" />
<path d="M 996.241666665 105.0 L 986.241666665 105.0" stroke="#FF0000" fill="none" stroke-width="4px" />
<path d="M 986.241666665 105.0 L 976.241666665 105.0" stroke="#FF0000" fill="none" stroke-width="4px" />
<path d="M 976.241666665 105.0 L 986.241666665 95.0" stroke="#FF0000" fill="none" stroke-width="4px" />
<path d="M 986.241666665 95.0 L 996.241666665 95.0" stroke="#FF0000" fill="none" stroke-width="4px" />
<path d="M 996.241666665 95.0 L 1006.24166667 95.0" stroke="#FF0000" fill="none" stroke-width="4px" />
<path d="M 1006.24166667 95.0 L 1016.24166667 95.0" stroke="#FF0000" fill="none" stroke-width="4px" />
<path d="M 1016.24166667 95.0 L 1026.24166667 95.0" stroke="#FF0000" fill="none" stroke-width="4px" />
<path d="M 1026.24166667 95.0 L 1036.24166667 95.0" stroke="#FF0000" fill="none" stroke-width="4px" />
<path d="M 1036.24166667 95.0 L 1046.24166667 95.0" stroke="#FF0000" fill="none" stroke-width="4px" />
<path d="M 1046.24166667 95.0 L 1056.24166667 95.0" stroke="#FF0000" fill="none" stroke-width="4px" />
<path d="M 1056.24166667 95.0 L 1046.24166667 85.0" stroke="#FF0000" fill="none" stroke-width="4px" />
<path d="M 1046.24166667 85.0 L 1036.24166667 85.0" stroke="#FF0000" fill="none" stroke-width="4px" />
<path d="M 1036.24166667 85.0 L 1026.24166667 85.0" stroke="#FF0000" fill="none" stroke-width="4px" />
<path d="M 1026.24166667 85.0 L 1016.24166667 85.0" stroke="#FF0000" fill="none" stroke-width="4px" />
<path d="M 1016.24166667 85.0 L 1006.24166667 85.0" stroke="#FF0000" fill="none" stroke-width="4px" />
<path d="M 1006.24166667 85.0 L 996.241666665 85.0" stroke="#FF0000" fill="none" stroke-width="4px" />
<path d="M 1206.24166667 185.0 L 1216.24166667 185.0" stroke="#FF0000" fill="none" stroke-width="4px" />
<path d="M 1216.24166667 185.0 L 1226.24166667 185.0" stroke="#FF0000" fill="none" stroke-width="4px" />
<path d="M 1226.24166667 185.0 L 1236.24166667 185.0" stroke="#FF0000" fill="none" stroke-width="4px" />
<path d="M 1236.24166667 185.0 L 1246.24166667 185.0" stroke="#FF0000" fill="none" stroke-width="4px" />
<path d="M 1246.24166667 185.0 L 1256.24166667 185.0" stroke="#FF0000" fill="none" stroke-width="4px" />
<path d="M 1256.24166667 185.0 L 1266.24166667 185.0" stroke="#FF0000" fill="none" stroke-width="4px" />
<path d="M 1266.24166667 185.0 L 1276.24166667 185.0" stroke="#FF0000" fill="none" stroke-width="4px" />
<path d="M 1276.24166667 185.0 L 1276.24166667 195.0" stroke="#FF0000" fill="none" stroke-width="4px" />
<path d="M 1276.24166667 195.0 L 1266.24166667 195.0" stroke="#FF0000" fill="none" stroke-width="4px" />
<path d="M 1266.24166667 195.0 L 1256.24166667 195.0" stroke="#FF0000" fill="none" stroke-width="4px" />
<path d="M 1256.24166667 195.0 L 1246.24166667 195.0" stroke="#FF0000" fill="none" stroke-width="4px" />
<path d="M 1246.24166667 195.0 L 1236.24166667 195.0" stroke="#FF0000" fill="none" stroke-width="4px" />
<path d="M 1236.24166667 195.0 L 1226.24166667 195.0" stroke="#FF0000" fill="none" stroke-width="4px" />
<path d="M 1226.24166667 195.0 L 1216.24166667 195.0" stroke="#FF0000" fill="none" stroke-width="4px" />
<path d="M 1216.24166667 195.0 L 1206.24166667 195.0" stroke="#FF0000" fill="none" stroke-width="4px" />
<path d="M 1206.24166667 195.0 L 1206.24166667 205.0" stroke="#FF0000" fill="none" stroke-width="4px" />
<path d="M 1206.24166667 205.0 L 1216.24166667 205.0" stroke="#FF0000" fill="none" stroke-width="4px" />
<path d="M 1216.24166667 205.0 L 1226.24166667 205.0" stroke="#FF0000" fill="none" stroke-width="4px" />
<path d="M 1226.24166667 205.0 L 1236.24166667 205.0" stroke="#FF0000" fill="none" stroke-width="4px" />
<path d="M 1236.24166667 205.0 L 1246.24166667 205.0" stroke="#FF0000" fill="none" stroke-width="4px" />
<path d="M 1246.24166667 205.0 L 1256.24166667 205.0" stroke="#FF0000" fill="none" stroke-width="4px" />
<path d="M 1256.24166667 205.0 L 1266.24166667 205.0" stroke="#FF0000" fill="none" stroke-width="4px" />
<path d="M 1266.24166667 205.0 L 1276.24166667 205.0" stroke="#FF0000" fill="none" stroke-width="4px" />
<path d="M 1276.24166667 205.0 L 1276.24166667 215.0" stroke="#FF0000" fill="none" stroke-width="4px" />
<path d="M 1276.24166667 215.0 L 1266.24166667 215.0" stroke="#FF0000" fill="none" stroke-width="4px" />
<path d="M 1266.24166667 215.0 L 1256.24166667 215.0" stroke="#FF0000" fill="none" stroke-width="4px" />
<path d="M 1256.24166667 215.0 L 1246.24166667 215.0" stroke="#FF0000" fill="none" stroke-width="4px" />
<path d="M 1246.24166667 215.0 L 1236.24166667 215.0" stroke="#FF0000" fill="none" stroke-width="4px" />
<path d="M 1236.24166667 215.0 L 1226.24166667 215.0" stroke="#FF0000" fill="none" stroke-width="4px" />
<path d="M 1226.24166667 215.0 L 1216.24166667 215.0" stroke="#FF0000" fill="none" stroke-width="4px" />
<path d="M 1216.24166667 215.0 L 1226.24166667 225.0" stroke="#FF0000" fill="none" stroke-width="4px" />
<path d="M 1226.24166667 225.0 L 1236.24166667 225.0" stroke="#FF0000" fill="none" stroke-width="4px" />
<path d="M 1236.24166667 225.0 L 1246.24166667 225.0" stroke="#FF0000" fill="none" stroke-width="4px" />
<path d="M 1246.24166667 225.0 L 1256.24166667 225.0" stroke="#FF0000" fill="none" stroke-width="4px" />
<path d="M 1256.24166667 225.0 L 1266.24166667 225.0" stroke="#FF0000" fill="none" stroke-width="4px" />
<path d="M 1266.24166667 225.0 L 1276.24166667 225.0" stroke="#FF0000" fill="none" stroke-width="4px" />
<path d="M 1276.24166667 225.0 L 1276.24166667 235.0" stroke="#FF0000" fill="none" stroke-width="4px" />
<path d="M 1276.24166667 235.0 L 1266.24166667 235.0" stroke="#FF0000" fill="none" stroke-width="4px" />
<path d="M 1266.24166667 235.0 L 1256.24166667 235.0" stroke="#FF0000" fill="none" stroke-width="4px" />
<path d="M 1256.24166667 235.0 L 1246.24166667 235.0" stroke="#FF0000" fill="none" stroke-width="4px" />
<path d="M 1246.24166667 235.0 L 1236.24166667 235.0" stroke="#FF0000" fill="none" stroke-width="4px" />
<path d="M 1236.24166667 175.0 L 1226.24166667 175.0" stroke="#FF0000" fill="none" stroke-width="4px" />
<path d="M 1226.24166667 175.0 L 1216.24166667 175.0" stroke="#FF0000" fill="none" stroke-width="4px" />
<path d="M 1216.24166667 175.0 L 1226.24166667 165.0" stroke="#FF0000" fill="none" stroke-width="4px" />
<path d="M 1226.24166667 165.0 L 1236.24166667 165.0" stroke="#FF0000" fill="none" stroke-width="4px" />
<path d="M 1236.24166667 165.0 L 1246.24166667 165.0" stroke="#FF0000" fill="none" stroke-width="4px" />
<path d="M 1246.24166667 165.0 L 1256.24166667 165.0" stroke="#FF0000" fill="none" stroke-width="4px" />
<path d="M 1256.24166667 165.0 L 1266.24166667 165.0" stroke="#FF0000" fill="none" stroke-width="4px" />
<path d="M 1266.24166667 165.0 L 1276.24166667 165.0" stroke="#FF0000" fill="none" stroke-width="4px" />
<path d="M 1276.24166667 165.0 L 1276.24166667 175.0" stroke="#FF0000" fill="none" stroke-width="4px" />
<path d="M 1276.24166667 175.0 L 1266.24166667 175.0" stroke="#FF0000" fill="none" stroke-width="4px" />
<path d="M 1266.24166667 175.0 L 1256.24166667 175.0" stroke="#FF0000" fill="none" stroke-width="4px" />
<path d="M 1256.24166667 175.0 L 1246.24166667 175.0" stroke="#FF0000" fill="none" stroke-width="4px" />
<path d="M 1246.24166667 155.0 L 1236.24166667 155.0" stroke="#FF0000" fill="none" stroke-width="4px" />
<path d="M 1236.24166667 155.0 L 1246.24166667 145.0" stroke="#FF0000" fill="none" stroke-width="4px" />
<path d="M 1246.24166667 145.0 L 1256.24166667 145.0" stroke="#FF0000" fill="none" stroke-width="4px" />
<path d="M 1256.24166667 145.0 L 1266.24166667 145.0" stroke="#FF0000" fill="none" stroke-width="4px" />
<path d="M 1266.24166667 145.0 L 1276.24166667 145.0" stroke="#FF0000" fill="none" stroke-width="4px" />
<path d="M 1276.24166667 145.0 L 1276.24166667 155.0" stroke="#FF0000" fill="none" stroke-width="4px" />
<path d="M 1276.24166667 155.0 L 1266.24166667 155.0" stroke="#FF0000" fill="none" stroke-width="4px" />
<path d="M 1266.24166667 155.0 L 1256.24166667 155.0" stroke="#FF0000" fill="none" stroke-width="4px" />
<path d="M 1256.24166667 135.0 L 1266.24166667 135.0" stroke="#FF0000" fill="none" stroke-width="4px" />
<path d="M 1266.24166667 135.0 L 1276.24166667 135.0" stroke="#FF0000" fill="none" stroke-width="4px" />
<path d="M 1276.24166667 135.0 L 1276.24166667 125.0" stroke="#FF0000" fill="none" stroke-width="4px" />
<path d="M 1276.24166667 125.0 L 1276.24166667 115.0" stroke="#FF0000" fill="none" stroke-width="4px" />
<path d="M 1276.24166667 115.0 L 1266.24166667 115.0" stroke="#FF0000" fill="none" stroke-width="4px" />
<path d="M 1266.24166667 115.0 L 1266.24166667 105.0" stroke="#FF0000" fill="none" stroke-width="4px" />
<path d="M 1266.24166667 105.0 L 1256.24166667 105.0" stroke="#FF0000" fill="none" stroke-width="4px" />
<path d="M 1256.24166667 105.0 L 1266.24166667 95.0" stroke="#FF0000" fill="none" stroke-width="4px" />
<path d="M 1266.24166667 95.0 L 1276.24166667 95.0" stroke="#FF0000" fill="none" stroke-width="4px" />
<path d="M 1276.24166667 95.0 L 1276.24166667 105.0" stroke="#FF0000" fill="none" stroke-width="4px" />
</svg>