<svg width="1755.23333333" height="235.0" xmlns="http://www.w3.org/2000/svg" version="1.1">
<path d="M 0.0 235.0 L 1755.23333333 235.0 L 1755.23333333 0.0 L 0.0 0.0 L 0.0 235.0" stroke="#000000" fill="none" stroke-width="3px" />
<path d="M 10.0 257.5 L 0.0 247.5 L 10.0 237.5" stroke="#969696" fill="none" stroke-width="1px" />
<path d="M 10.0 237.5 L 1745.23333333 237.5" stroke="#969696" fill="none" stroke-width="1px" />
<path d="M 1745.23333333 237.5 L 1755.23333333 227.5 L 1745.23333333 217.5" stroke="#969696" fill="none" stroke-width="1px" />
<path d="M 1745.23333333 217.5 L 10.0 217.5" stroke="#969696" fill="none" stroke-width="1px" />
<path d="M 10.0 217.5 L 0.0 207.5 L 10.0 197.5" stroke="#969696" fill="none" stroke-width="1px" />
<path d="M 10.0 197.5 L 1745.23333333 197.5" stroke="#969696" fill="none" stroke-width="1px" />
<path d="M 1745.23333333 197.5 L 1755.23333333 187.5 L 1745.23333333 177.5" stroke="#969696" fill="none" stroke-width="1px" />
<path d="M 1745.23333333 177.5 L 10.0 177.5" stroke="#969696" fill="none" stroke-width="1px" />
<path d="M 10.0 177.5 L 0.0 167.5 L 10.0 157.5" stroke="#969696" fill="none" stroke-width="1px" />
<path d="M 10.0 157.5 L 1745.23333333 157.5" stroke="#969696" fill="none" stroke-width="1px" />
<path d="M 1745.23333333 157.5 L 1755.23333333 147.5 L 1745.23333333 137.5" stroke="#969696" fill="none" stroke-width="1px" />
<path d="M 1745.23333333 137.5 L 10.0 137.5" stroke="#969696" fill="none" stroke-width="1px" />
<path d="M 10.0 137.5 L 0.0 127.5 L 10.0 117.5" stroke="#969696" fill="none" stroke-width="1px" />
<path d="M 10.0 117.5 L 1745.23333333 117.5" stroke="#969696" fill="none" stroke-width="1px" />
<path d="M 1745.23333333 117.5 L 1755.23333333 107.5 L 1745.23333333 97.5" stroke="#969696" fill="none" stroke-width="1px" />
<path d="M 1745.23333333 97.5 L 10.0 97.5" stroke="#969696" fill="none" stroke-width="1px" />
<path d="M 10.0 97.5 L 0.0 87.5 L 10.0 77.5" stroke="#969696" fill="none" stroke-width="1px" />
<path d="M 10.0 77.5 L 1745.23333333 77.5" stroke="#969696" fill="none" stroke-width="1px" />
<path d="M 1745.23333333 77.5 L 1755.23333333 67.5 L 1745.23333333 57.5" stroke="#969696" fill="none" stroke-width="1px" />
<path d="M 1745.23333333 57.5 L 10.0 57.5" stroke="#969696" fill="none" stroke-width="1px" />
<path d="M 10.0 57.5 L 0.0 47.5 L 10.0 37.5" stroke="#969696" fill="none" stroke-width="1px" />
<path d="M 10.0 37.5 L 1745.23333333 37.5" stroke="#969696" fill="none" stroke-width="1px" />
<path d="M 1745.23333333 37.5 L 1755.23333333 27.5 L 1745.23333333 17.5" stroke="#969696" fill="none" stroke-width="1px" />
<path d="M 1745.23333333 17.5 L 10.0 17.5" stroke="#969696" fill="none" stroke-width="1px" />
<path d="M 10.0 17.5 L 0.0 7.5 L 10.0 -2.5" stroke="#969696" fill="none" stroke-width="1px" />
<path d="M 10.0 -2.5 L 1745.23333333 -2.5" stroke="#969696" fill="none" stroke-width="1px" />
<path d="M 1745.23333333 -2.5 L 1755.23333333 -12.5 L 1745.23333333 -22.5" stroke="#969696" fill="none" stroke-width="1px" />
<path d="M 0.0 235.0 L 1440.0 95.0" stroke="#0095FF" fill="none" stroke-width="2px" />
<path d="M 1480.0 125.0 L 1520.0 115.0" stroke="#0095FF" fill="none" stroke-width="2px" />
<path d="M 1550.0 115.0 L 1550.0 85.0" stroke="#0095FF" fill="none" stroke-width="2px" />
<path d="M 1460.0 65.0 L 1510.0 75.0" stroke="#0095FF" fill="none" stroke-width="2px" />
<path d="M 1560.0 85.0 L 1550.0 65.0" stroke="#0095FF" fill="none" stroke-width="2px" />
<path d="M 1440.0 95.0 L 1450.0 95.0" stroke="#FF0000" fill="none" stroke-width="4px" />
<path d="M 1450.0 95.0 L 1460.0 95.0" stroke="#FF0000" fill="none" stroke-width="4px" />
<path d="M 1460.0 95.0 L 1470.0 95.0" stroke="#FF0000" fill="none" stroke-width="4px" />
<path d="M 1470.0 95.0 L 1480.0 95.0" stroke="#FF0000" fill="none" stroke-width="4px" />
<path d="M 1480.0 95.0 L 1490.0 95.0" stroke="#FF0000" fill="none" stroke-width="4px" />
<path d="M 1490.0 95.0 L 1500.0 95.0" stroke="#FF0000" fill="none" stroke-width="4px" />
<path d="M 1500.0 95.0 L 1510.0 95.0" stroke="#FF0000" fill="none" stroke-width="4px" />
<path d="M 1510.0 95.0 L 1520.0 95.0" stroke="#FF0000" fill="none" stroke-width="4px" />
<path d="M 1520.0 95.0 L 1530.0 95.0" stroke="#FF0000" fill="none" stroke-width="4px" />
<path d="M 1530.0 95.0 L 1540.0 95.0" stroke="#FF0000" fill="none" stroke-width="4px" />
<path d="M 1540.0 95.0 L 1550.0 95.0" stroke="#FF0000" fill="none" stroke-width="4px" />
<path d="M 1550.0 95.0 L 1560.0 95.0" stroke="#FF0000" fill="none" stroke-width="4px" />
<path d="M 1560.0 95.0 L 1560.0 105.0" stroke="#FF0000" fill="none" stroke-width="4px" />
<path d="M 1560.0 105.0 L 1550.0 105.0" stroke="#FF0000" fill="none" stroke-width="4px" />
<path d="M 1550.0 105.0 L 1540.0 105.0" stroke="#FF0000" fill="none" stroke-width="4px" />
<path d="M 1540.0 105.0 L 1530.0 105.0" stroke="#FF0000" fill="none" stroke-width="4px" />
<path d="M 1530.0 105.0 L 1520.0 105.0" stroke="#FF0000" fill="none" stroke-width="4px" />
<path d="M 1520.0 105.0 L 1510.0 105.0" stroke="#FF0000" fill="none" stroke-width="4px" />
<path d="M 1510.0 105.0 L 1500.0 105.0" stroke="#FF0000" fill="none" stroke-width="4px" />
<path d="M 1500.0 105.0 L 1490.0 105.0" stroke="#FF0000" fill="none" stroke-width="4px" />
<path d="M 1490.0 105.0 L 1480.0 105.0" stroke="#FF0000" fill="none" stroke-width="4px" />
<path d="M 1480.0 105.0 L 1470.0 105.0" stroke="#FF0000" fill="none" stroke-width="4px" />
<path d="M 1470.0 105.0 L 1460.0 105.0" stroke="#FF0000" fill="none" stroke-width="4px" />
<path d="M 1460.0 105.0 L 1450.0 105.0" stroke="#FF0000" fill="none" stroke-width="4px" />
<path d="M 1450.0 105.0 L 1460.0 115.0" stroke="#FF0000" fill="none" stroke-width="4px" />
<path d="M 1460.0 115.0 L 1470.0 115.0" stroke="#FF0000" fill="none" stroke-width="4px" />
<path d="M 1470.0 115.0 L 1480.0 115.0" stroke="#FF0000" fill="none" stroke-width="4px" />
<path d="M 1480.0 115.0 L 1490.0 115.0" stroke="#FF0000" fill="none" stroke-width="4px" />
<path d="M 1490.0 115.0 L 1500.0 115.0" stroke="#FF0000" fill="none" stroke-width="4px" />
<path d="M 1500.0 115.0 L 1490.0 125.0" stroke="#FF0000" fill="none" stroke-width="4px" />
<path d="M 1490.0 125.0 L 1480.0 125.0" stroke="#FF0000" fill="none" stroke-width="4px" />
<path d="M 1520.0 115.0 L 1530.0 115.0" stroke="#FF0000" fill="none" stroke-width="4px" />
<path d="M 1530.0 115.0 L 1540.0 115.0" stroke="#FF0000" fill="none" stroke-width="4px" />
<path d="M 1540.0 115.0 L 1550.0 115.0" stroke="#FF0000" fill="none" stroke-width="4px" />
<path d="M 1550.0 85.0 L 1540.0 85.0" stroke="#FF0000" fill="none" stroke-width="4px" />
<path d="M 1540.0 85.0 L 1530.0 85.0" stroke="#FF0000" fill="none" stroke-width="4px" />
<path d="M 1530.0 85.0 L 1520.0 85.0" stroke="#FF0000" fill="none" stroke-width="4px" />
<path d="M 1520.0 85.0 L 1510.0 85.0" stroke="#FF0000" fill="none" stroke-width="4px" />
<path d="M 1510.0 85.0 L 1500.0 85.0" stroke="#FF0000" fill="none" stroke-width="4px" />
<path d="M 1500.0 85.0 L 1490.0 85.0" stroke="#FF0000" fill="none" stroke-width="4px" />
<path d="M 1490.0 85.0 L 1480.0 85.0" stroke="#FF0000" fill="none" stroke-width="4px" />
<path d="M 1480.0 85.0 L 1470.0 85.0" stroke="#FF0000" fill="none" stroke-width="4px" />
<path d="M 1470.0 85.0 L 1460.0 85.0" stroke="#FF0000" fill="none" stroke-width="4px" />
<path d="M 1460.0 85.0 L 1450.0 85.0" stroke="#FF0000" fill="none" stroke-width="4px" />
<path d="M 1450.0 85.0 L 1440.0 85.0" stroke="#FF0000" fill="none" stroke-width="4px" />
<path d="M 1440.0 85.0 L 1450.0 75.0" stroke="#FF0000" fill="none" stroke-width="4px" />
<path d="M 1450.0 75.0 L 1460.0 75.0" stroke="#FF0000" fill="none" stroke-width="4px" />
<path d="M 1460.0 75.0 L 1470.0 75.0" stroke="#FF0000" fill="none" stroke-width="4px" />
<path d="M 1470.0 75.0 L 1480.0 75.0" stroke="#FF0000" fill="none" stroke-width="4px" />
<path d="M 1480.0 75.0 L 1490.0 75.0" stroke="#FF0000" fill="none" stroke-width="4px" />
<path d="M 1490.0 75.0 L 1480.0 65.0" stroke="#FF0000" fill="none" stroke-width="4px" />
<path d="M 1480.0 65.0 L 1470.0 65.0" stroke="#FF0000" fill="none" stroke-width="4px" />
<path d="M 1470.0 65.0 L 1460.0 65.0" stroke="#FF0000" fill="none" stroke-width="4px" />
<path d="M 1510.0 75.0 L 1520.0 75.0" stroke="#FF0000" fill="none" stroke-width="4px" />
<path d="M 1520.0 75.0 L 1530.0 75.0" stroke="#FF0000" fill="none" stroke-width="4px" />
<path d="M 1530.0 75.0 L 1540.0 75.0" stroke="#FF0000" fill="none" stroke-width="4px" />
<path d="M 1540.0 75.0 L 1550.0 75.0" stroke="#FF0000" fill="none" stroke-width="4px" />
<path d="M 1550.0 75.0 L 1560.0 75.0" stroke="#FF0000" fill="none" stroke-width="4px" />
<path d="M 1560.0 75.0 L 1560.0 85.0" stroke="#FF0000" fill="none" stroke-width="4px" />
<path d="M 1550.0 65.0 L 1540.0 65.0" stroke="#FF0000" fill="none" stroke-width="4px" />
<path d="M 1540.0 65.0 L 1530.0 65.0" stroke="#FF0000" fill="none" stroke-width="4px" />
<path d="M 1530.0 65.0 L 1520.0 65.0" stroke="#FF0000" fill="none" stroke-width="4px" />
</svg>