<svg width="2894.54166667" height="235.0" xmlns="http://www.w3.org/2000/svg" version="1.1">
<path d="M 0.0 235.0 L 1965.0 235.0 L 1965.0 0.0 L 0.0 0.0 L 0.0 235.0" stroke="#000000" fill="none" stroke-width="3px" />
<path d="M 2894.54166667 235.0 L 1865.0 235.0 L 1865.0 0.0 L 2894.54166667 0.0 L 2894.54166667 235.0" stroke="#000000" fill="none" stroke-width="3px" />
<path d="M 10.0 257.5 L 0.0 247.5 L 10.0 237.5" stroke="#969696" fill="none" stroke-width="1px" />
<path d="M 10.0 237.5 L 1955.0 237.5" stroke="#969696" fill="none" stroke-width="1px" />
<path d="M 1955.0 237.5 L 1965.0 227.5 L 1955.0 217.5" stroke="#969696" fill="none" stroke-width="1px" />
<path d="M 1955.0 217.5 L 10.0 217.5" stroke="#969696" fill="none" stroke-width="1px" />
<path d="M 10.0 217.5 L 0.0 207.5 L 10.0 197.5" stroke="#969696" fill="none" stroke-width="1px" />
<path d="M 10.0 197.5 L 1955.0 197.5" stroke="#969696" fill="none" stroke-width="1px" />
<path d="M 1955.0 197.5 L 1965.0 187.5 L 1955.0 177.5" stroke="#969696" fill="none" stroke-width="1px" />
<path d="M 1955.0 177.5 L 10.0 177.5" stroke="#969696" fill="none" stroke-width="1px" />
<path d="M 10.0 177.5 L 0.0 167.5 L 10.0 157.5" stroke="#969696" fill="none" stroke-width="1px" />
<path d="M 10.0 157.5 L 1955.0 157.5" stroke="#969696" fill="none" stroke-width="1px" />
<path d="M 1955.0 157.5 L 1965.0 147.5 L 1955.0 137.5" stroke="#969696" fill="none" stroke-width="1px" />
<path d="M 1955.0 137.5 L 10.0 137.5" stroke="#969696" fill="none" stroke-width="1px" />
<path d="M 10.0 137.5 L 0.0 127.5 L 10.0 117.5" stroke="#969696" fill="none" stroke-width="1px" />
<path d="M 10.0 117.5 L 1955.0 117.5" stroke="#969696" fill="none" stroke-width="1px" />
<path d="M 1955.0 117.5 L 1965.0 107.5 L 1955.0 97.5" stroke="#969696" fill="none" stroke-width="1px" />
<path d="M 1955.0 97.5 L 10.0 97.5" stroke="#969696" fill="none" stroke-width="1px" />
<path d="M 10.0 97.5 L 0.0 87.5 L 10.0 77.5" stroke="#969696" fill="none" stroke-width="1px" />
<path d="M 10.0 77.5 L 1955.0 77.5" stroke="#969696" fill="none" stroke-width="1px" />
<path d="M 1955.0 77.5 L 1965.0 67.5 L 1955.0 57.5" stroke="#969696" fill="none" stroke-width="1px" />
<path d="M 1955.0 57.5 L 10.0 57.5" stroke="#969696" fill="none" stroke-width="1px" />
<path d="M 10.0 57.5 L 0.0 47.5 L 10.0 37.5" stroke="#969696" fill="none" stroke-width="1px" />
<path d="M 10.0 37.5 L 1955.0 37.5" stroke="#969696" fill="none" stroke-width="1px" />
<path d="M 1955.0 37.5 L 1965.0 27.5 L 1955.0 17.5" stroke="#969696" fill="none" stroke-width="1px" />
<path d="M 1955.0 17.5 L 10.0 17.5" stroke="#969696" fill="none" stroke-width="1px" />
<path d="M 10.0 17.5 L 0.0 7.5 L 10.0 -2.5" stroke="#969696" fill="none" stroke-width="1px" />
<path d="M 10.0 -2.5 L 1955.0 -2.5" stroke="#969696" fill="none" stroke-width="1px" />
<path d="M 1955.0 -2.5 L 1965.0 -12.5 L 1955.0 -22.5" stroke="#969696" fill="none" stroke-width="1px" />
<path d="M 2884.54166667 257.5 L 2894.54166667 247.5 L 2884.54166667 237.5" stroke="#969696" fill="none" stroke-width="1px" />
<path d="M 2884.54166667 237.5 L 1875.0 237.5" stroke="#969696" fill="none" stroke-width="1px" />
<path d="M 1875.0 237.5 L 1865.0 227.5 L 1875.0 217.5" stroke="#969696" fill="none" stroke-width="1px" />
<path d="M 1875.0 217.5 L 2884.54166667 217.5" stroke="#969696" fill="none" stroke-width="1px" />
<path d="M 2884.54166667 217.5 L 2894.54166667 207.5 L 2884.54166667 197.5" stroke="#969696" fill="none" stroke-width="1px" />
<path d="M 2884.54166667 197.5 L 1875.0 197.5" stroke="#969696" fill="none" stroke-width="1px" />
<path d="M 1875.0 197.5 L 1865.0 187.5 L 1875.0 177.5" stroke="#969696" fill="none" stroke-width="1px" />
<path d="M 1875.0 177.5 L 2884.54166667 177.5" stroke="#969696" fill="none" stroke-width="1px" />
<path d="M 2884.54166667 177.5 L 2894.54166667 167.5 L 2884.54166667 157.5" stroke="#969696" fill="none" stroke-width="1px" />
<path d="M 2884.54166667 157.5 L 1875.0 157.5" stroke="#969696" fill="none" stroke-width="1px" />
<path d="M 1875.0 157.5 L 1865.0 147.5 L 1875.0 137.5" stroke="#969696" fill="none" stroke-width="1px" />
<path d="M 1875.0 137.5 L 2884.54166667 137.5" stroke="#969696" fill="none" stroke-width="1px" />
<path d="M 2884.54166667 137.5 L 2894.54166667 127.5 L 2884.54166667 117.5" stroke="#969696" fill="none" stroke-width="1px" />
<path d="M 2884.54166667 117.5 L 1875.0 117.5" stroke="#969696" fill="none" stroke-width="1px" />
<path d="M 1875.0 117.5 L 1865.0 107.5 L 1875.0 97.5" stroke="#969696" fill="none" stroke-width="1px" />
<path d="M 1875.0 97.5 L 2884.54166667 97.5" stroke="#969696" fill="none" stroke-width="1px" />
<path d="M 2884.54166667 97.5 L 2894.54166667 87.5 L 2884.54166667 77.5" stroke="#969696" fill="none" stroke-width="1px" />
<path d="M 2884.54166667 77.5 L 1875.0 77.5" stroke="#969696" fill="none" stroke-width="1px" />
<path d="M 1875.0 77.5 L 1865.0 67.5 L 1875.0 57.5" stroke="#969696" fill="none" stroke-width="1px" />
<path d="M 1875.0 57.5 L 2884.54166667 57.5" stroke="#969696" fill="none" stroke-width="1px" />
<path d="M 2884.54166667 57.5 L 2894.54166667 47.5 L 2884.54166667 37.5" stroke="#969696" fill="none" stroke-width="1px" />
<path d="M 2884.54166667 37.5 L 1875.0 37.5" stroke="#969696" fill="none" stroke-width="1px" />
<path d="M 1875.0 37.5 L 1865.0 27.5 L 1875.0 17.5" stroke="#969696" fill="none" stroke-width="1px" />
<path d="M 1875.0 17.5 L 2884.54166667 17.5" stroke="#969696" fill="none" stroke-width="1px" />
<path d="M 2884.54166667 17.5 L 2894.54166667 7.5 L 2884.54166667 -2.5" stroke="#969696" fill="none" stroke-width="1px" />
<path d="M 2884.54166667 -2.5 L 1875.0 -2.5" stroke="#969696" fill="none" stroke-width="1px" />
<path d="M 1875.0 -2.5 L 1865.0 -12.5 L 1875.0 -22.5" stroke="#969696" fill="none" stroke-width="1px" />
<path d="M 0.0 235.0 L 20.0 105.0" stroke="#0095FF" fill="none" stroke-width="2px" />
<path d="M 30.0 65.0 L 30.0 95.0" stroke="#0095FF" fill="none" stroke-width="2px" />
<path d="M 30.0 95.0 L 80.0 65.0" stroke="#0095FF" fill="none" stroke-width="2px" />
<path d="M 90.0 35.0 L 90.0 75.0" stroke="#0095FF" fill="none" stroke-width="2px" />
<path d="M 110.0 75.0 L 160.0 45.0" stroke="#0095FF" fill="none" stroke-width="2px" />
<path d="M 220.0 135.0 L 240.0 145.0" stroke="#0095FF" fill="none" stroke-width="2px" />
<path d="M 260.0 145.0 L 280.0 135.0" stroke="#0095FF" fill="none" stroke-width="2px" />
<path d="M 280.0 135.0 L 260.0 115.0" stroke="#0095FF" fill="none" stroke-width="2px" />
<path d="M 260.0 115.0 L 240.0 95.0" stroke="#0095FF" fill="none" stroke-width="2px" />
<path d="M 240.0 95.0 L 220.0 75.0" stroke="#0095FF" fill="none" stroke-width="2px" />
<path d="M 220.0 75.0 L 200.0 35.0" stroke="#0095FF" fill="none" stroke-width="2px" />
<path d="M 180.0 5.0 L 340.0 155.0" stroke="#0095FF" fill="none" stroke-width="2px" />
<path d="M 360.0 175.0 L 340.0 195.0" stroke="#0095FF" fill="none" stroke-width="2px" />
<path d="M 340.0 195.0 L 950.0 105.0" stroke="#0095FF" fill="none" stroke-width="2px" />
<path d="M 970.0 85.0 L 970.0 115.0" stroke="#0095FF" fill="none" stroke-width="2px" />
<path d="M 960.0 115.0 L 1090.0 145.0" stroke="#0095FF" fill="none" stroke-width="2px" />
<path d="M 1150.0 175.0 L 1170.0 165.0" stroke="#0095FF" fill="none" stroke-width="2px" />
<path d="M 1190.0 195.0 L 1140.0 195.0" stroke="#0095FF" fill="none" stroke-width="2px" />
<path d="M 1130.0 205.0 L 1130.0 155.0" stroke="#0095FF" fill="none" stroke-width="2px" />
<path d="M 1130.0 155.0 L 1110.0 135.0" stroke="#0095FF" fill="none" stroke-width="2px" />
<path d="M 1100.0 135.0 L 1180.0 155.0" stroke="#0095FF" fill="none" stroke-width="2px" />
<path d="M 1190.0 145.0 L 1380.0 135.0" stroke="#0095FF" fill="none" stroke-width="2px" />
<path d="M 1410.0 165.0 L 1410.0 125.0" stroke="#0095FF" fill="none" stroke-width="2px" />
<path d="M 1430.0 125.0 L 1460.0 125.0" stroke="#0095FF" fill="none" stroke-width="2px" />
<path d="M 1480.0 155.0 L 1480.0 115.0" stroke="#0095FF" fill="none" stroke-width="2px" />
<path d="M 1490.0 115.0 L 1530.0 125.0" stroke="#0095FF" fill="none" stroke-width="2px" />
<path d="M 1590.0 165.0 L 1590.0 115.0" stroke="#0095FF" fill="none" stroke-width="2px" />
<path d="M 1580.0 105.0 L 1730.0 115.0" stroke="#0095FF" fill="none" stroke-width="2px" />
<path d="M 1750.0 165.0 L 1790.0 125.0" stroke="#0095FF" fill="none" stroke-width="2px" />
<path d="M 1790.0 125.0 L 1770.0 105.0" stroke="#0095FF" fill="none" stroke-width="2px" />
<path d="M 1760.0 95.0 L 1410.0 105.0" stroke="#0095FF" fill="none" stroke-width="2px" />
<path d="M 2894.54166667 235.0 L 2770.0 175.0" stroke="#0095FF" fill="none" stroke-width="2px" />
<path d="M 2780.0 165.0 L 2780.0 135.0" stroke="#0095FF" fill="none" stroke-width="2px" />
<path d="M 2770.0 125.0 L 2540.0 125.0" stroke="#0095FF" fill="none" stroke-width="2px" />
<path d="M 2520.0 85.0 L 2460.0 95.0" stroke="#0095FF" fill="none" stroke-width="2px" />
<path d="M 2460.0 105.0 L 2450.0 85.0" stroke="#0095FF" fill="none" stroke-width="2px" />
<path d="M 2430.0 85.0 L 2430.0 135.0" stroke="#0095FF" fill="none" stroke-width="2px" />
<path d="M 2470.0 155.0 L 2510.0 135.0" stroke="#0095FF" fill="none" stroke-width="2px" />
<path d="M 2530.0 135.0 L 2040.0 125.0" stroke="#0095FF" fill="none" stroke-width="2px" />
<path d="M 1980.0 135.0 L 1980.0 115.0" stroke="#0095FF" fill="none" stroke-width="2px" />
<path d="M 1990.0 105.0 L 2030.0 135.0" stroke="#0095FF" fill="none" stroke-width="2px" />
<path d="M 2030.0 135.0 L 1990.0 175.0" stroke="#0095FF" fill="none" stroke-width="2px" />
<path d="M 20.0 105.0 L 20.0 95.0" stroke="#FF0000" fill="none" stroke-width="4px" />
<path d="M 20.0 95.0 L 10.0 95.0" stroke="#FF0000" fill="none" stroke-width="4px" />
<path d="M 10.0 95.0 L 10.0 85.0" stroke="#FF0000" fill="none" stroke-width="4px" />
<path d="M 10.0 85.0 L 20.0 85.0" stroke="#FF0000" fill="none" stroke-width="4px" />
<path d="M 20.0 85.0 L 30.0 85.0" stroke="#FF0000" fill="none" stroke-width="4px" />
<path d="M 30.0 85.0 L 40.0 85.0" stroke="#FF0000" fill="none" stroke-width="4px" />
<path d="M 40.0 85.0 L 40.0 75.0" stroke="#FF0000" fill="none" stroke-width="4px" />
<path d="M 40.0 75.0 L 30.0 75.0" stroke="#FF0000" fill="none" stroke-width="4px" />
<path d="M 30.0 75.0 L 20.0 75.0" stroke="#FF0000" fill="none" stroke-width="4px" />
<path d="M 20.0 75.0 L 10.0 75.0" stroke="#FF0000" fill="none" stroke-width="4px" />
<path d="M 10.0 75.0 L 10.0 65.0" stroke="#FF0000" fill="none" stroke-width="4px" />
<path d="M 10.0 65.0 L 20.0 65.0" stroke="#FF0000" fill="none" stroke-width="4px" />
<path d="M 20.0 65.0 L 30.0 65.0" stroke="#FF0000" fill="none" stroke-width="4px" />
<path d="M 80.0 65.0 L 90.0 65.0" stroke="#FF0000" fill="none" stroke-width="4px" />
<path d="M 90.0 65.0 L 100.0 65.0" stroke="#FF0000" fill="none" stroke-width="4px" />
<path d="M 100.0 65.0 L 110.0 65.0" stroke="#FF0000" fill="none" stroke-width="4px" />
<path d="M 110.0 65.0 L 120.0 65.0" stroke="#FF0000" fill="none" stroke-width="4px" />
<path d="M 120.0 65.0 L 120.0 55.0" stroke="#FF0000" fill="none" stroke-width="4px" />
<path d="M 120.0 55.0 L 110.0 55.0" stroke="#FF0000" fill="none" stroke-width="4px" />
<path d="M 110.0 55.0 L 100.0 55.0" stroke="#FF0000" fill="none" stroke-width="4px" />
<path d="M 100.0 55.0 L 90.0 55.0" stroke="#FF0000" fill="none" stroke-width="4px" />
<path d="M 90.0 55.0 L 80.0 55.0" stroke="#FF0000" fill="none" stroke-width="4px" />
<path d="M 80.0 55.0 L 70.0 55.0" stroke="#FF0000" fill="none" stroke-width="4px" />
<path d="M 70.0 55.0 L 80.0 45.0" stroke="#FF0000" fill="none" stroke-width="4px" />
<path d="M 80.0 45.0 L 90.0 45.0" stroke="#FF0000" fill="none" stroke-width="4px" />
<path d="M 90.0 45.0 L 100.0 45.0" stroke="#FF0000" fill="none" stroke-width="4px" />
<path d="M 100.0 45.0 L 110.0 45.0" stroke="#FF0000" fill="none" stroke-width="4px" />
<path d="M 110.0 45.0 L 120.0 45.0" stroke="#FF0000" fill="none" stroke-width="4px" />
<path d="M 120.0 45.0 L 110.0 35.0" stroke="#FF0000" fill="none" stroke-width="4px" />
<path d="M 110.0 35.0 L 100.0 35.0" stroke="#FF0000" fill="none" stroke-width="4px" />
<path d="M 100.0 35.0 L 90.0 35.0" stroke="#FF0000" fill="none" stroke-width="4px" />
<path d="M 90.0 75.0 L 100.0 75.0" stroke="#FF0000" fill="none" stroke-width="4px" />
<path d="M 100.0 75.0 L 110.0 75.0" stroke="#FF0000" fill="none" stroke-width="4px" />
<path d="M 160.0 45.0 L 170.0 45.0" stroke="#FF0000" fill="none" stroke-width="4px" />
<path d="M 170.0 45.0 L 180.0 45.0" stroke="#FF0000" fill="none" stroke-width="4px" />
<path d="M 180.0 45.0 L 190.0 45.0" stroke="#FF0000" fill="none" stroke-width="4px" />
<path d="M 190.0 45.0 L 200.0 45.0" stroke="#FF0000" fill="none" stroke-width="4px" />
<path d="M 200.0 45.0 L 210.0 45.0" stroke="#FF0000" fill="none" stroke-width="4px" />
<path d="M 210.0 45.0 L 210.0 55.0" stroke="#FF0000" fill="none" stroke-width="4px" />
<path d="M 210.0 55.0 L 200.0 55.0" stroke="#FF0000" fill="none" stroke-width="4px" />
<path d="M 200.0 55.0 L 190.0 55.0" stroke="#FF0000" fill="none" stroke-width="4px" />
<path d="M 190.0 55.0 L 180.0 55.0" stroke="#FF0000" fill="none" stroke-width="4px" />
<path d="M 180.0 55.0 L 170.0 55.0" stroke="#FF0000" fill="none" stroke-width="4px" />
<path d="M 170.0 55.0 L 180.0 65.0" stroke="#FF0000" fill="none" stroke-width="4px" />
<path d="M 180.0 65.0 L 190.0 65.0" stroke="#FF0000" fill="none" stroke-width="4px" />
<path d="M 190.0 65.0 L 200.0 65.0" stroke="#FF0000" fill="none" stroke-width="4px" />
<path d="M 200.0 65.0 L 210.0 65.0" stroke="#FF0000" fill="none" stroke-width="4px" />
<path d="M 210.0 65.0 L 210.0 75.0" stroke="#FF0000" fill="none" stroke-width="4px" />
<path d="M 210.0 75.0 L 200.0 75.0" stroke="#FF0000" fill="none" stroke-width="4px" />
<path d="M 200.0 75.0 L 190.0 75.0" stroke="#FF0000" fill="none" stroke-width="4px" />
<path d="M 190.0 75.0 L 200.0 85.0" stroke="#FF0000" fill="none" stroke-width="4px" />
<path d="M 200.0 85.0 L 210.0 85.0" stroke="#FF0000" fill="none" stroke-width="4px" />
<path d="M 210.0 85.0 L 220.0 85.0" stroke="#FF0000" fill="none" stroke-width="4px" />
<path d="M 220.0 85.0 L 230.0 85.0" stroke="#FF0000" fill="none" stroke-width="4px" />
<path d="M 230.0 85.0 L 230.0 95.0" stroke="#FF0000" fill="none" stroke-width="4px" />
<path d="M 230.0 95.0 L 220.0 95.0" stroke="#FF0000" fill="none" stroke-width="4px" />
<path d="M 220.0 95.0 L 210.0 95.0" stroke="#FF0000" fill="none" stroke-width="4px" />
<path d="M 210.0 95.0 L 200.0 95.0" stroke="#FF0000" fill="none" stroke-width="4px" />
<path d="M 200.0 95.0 L 200.0 105.0" stroke="#FF0000" fill="none" stroke-width="4px" />
<path d="M 200.0 105.0 L 210.0 105.0" stroke="#FF0000" fill="none" stroke-width="4px" />
<path d="M 210.0 105.0 L 220.0 105.0" stroke="#FF0000" fill="none" stroke-width="4px" />
<path d="M 220.0 105.0 L 230.0 105.0" stroke="#FF0000" fill="none" stroke-width="4px" />
<path d="M 230.0 105.0 L 240.0 105.0" stroke="#FF0000" fill="none" stroke-width="4px" />
<path d="M 240.0 105.0 L 250.0 105.0" stroke="#FF0000" fill="none" stroke-width="4px" />
<path d="M 250.0 105.0 L 250.0 115.0" stroke="#FF0000" fill="none" stroke-width="4px" />
<path d="M 250.0 115.0 L 240.0 115.0" stroke="#FF0000" fill="none" stroke-width="4px" />
<path d="M 240.0 115.0 L 230.0 115.0" stroke="#FF0000" fill="none" stroke-width="4px" />
<path d="M 230.0 115.0 L 220.0 115.0" stroke="#FF0000" fill="none" stroke-width="4px" />
<path d="M 220.0 115.0 L 210.0 115.0" stroke="#FF0000" fill="none" stroke-width="4px" />
<path d="M 210.0 115.0 L 200.0 115.0" stroke="#FF0000" fill="none" stroke-width="4px" />
<path d="M 200.0 115.0 L 210.0 125.0" stroke="#FF0000" fill="none" stroke-width="4px" />
<path d="M 210.0 125.0 L 220.0 125.0" stroke="#FF0000" fill="none" stroke-width="4px" />
<path d="M 220.0 125.0 L 230.0 125.0" stroke="#FF0000" fill="none" stroke-width="4px" />
<path d="M 230.0 125.0 L 240.0 125.0" stroke="#FF0000" fill="none" stroke-width="4px" />
<path d="M 240.0 125.0 L 250.0 125.0" stroke="#FF0000" fill="none" stroke-width="4px" />
<path d="M 250.0 125.0 L 260.0 125.0" stroke="#FF0000" fill="none" stroke-width="4px" />
<path d="M 260.0 125.0 L 270.0 125.0" stroke="#FF0000" fill="none" stroke-width="4px" />
<path d="M 270.0 125.0 L 270.0 135.0" stroke="#FF0000" fill="none" stroke-width="4px" />
<path d="M 270.0 135.0 L 260.0 135.0" stroke="#FF0000" fill="none" stroke-width="4px" />
<path d="M 260.0 135.0 L 250.0 135.0" stroke="#FF0000" fill="none" stroke-width="4px" />
<path d="M 250.0 135.0 L 240.0 135.0" stroke="#FF0000" fill="none" stroke-width="4px" />
<path d="M 240.0 135.0 L 230.0 135.0" stroke="#FF0000" fill="none" stroke-width="4px" />
<path d="M 230.0 135.0 L 220.0 135.0" stroke="#FF0000" fill="none" stroke-width="4px" />
<path d="M 240.0 145.0 L 250.0 145.0" stroke="#FF0000" fill="none" stroke-width="4px" />
<path d="M 250.0 145.0 L 260.0 145.0" stroke="#FF0000" fill="none" stroke-width="4px" />
<path d="M 200.0 35.0 L 190.0 35.0" stroke="#FF0000" fill="none" stroke-width="4px" />
<path d="M 190.0 35.0 L 180.0 35.0" stroke="#FF0000" fill="none" stroke-width="4px" />
<path d="M 180.0 35.0 L 170.0 35.0" stroke="#FF0000" fill="none" stroke-width="4px" />
<path d="M 170.0 35.0 L 160.0 35.0" stroke="#FF0000" fill="none" stroke-width="4px" />
<path d="M 160.0 35.0 L 160.0 25.0" stroke="#FF0000" fill="none" stroke-width="4px" />
<path d="M 160.0 25.0 L 170.0 25.0" stroke="#FF0000" fill="none" stroke-width="4px" />
<path d="M 170.0 25.0 L 180.0 25.0" stroke="#FF0000" fill="none" stroke-width="4px" />
<path d="M 180.0 25.0 L 190.0 25.0" stroke="#FF0000" fill="none" stroke-width="4px" />
<path d="M 190.0 25.0 L 200.0 25.0" stroke="#FF0000" fill="none" stroke-width="4px" />
<path d="M 200.0 25.0 L 190.0 15.0" stroke="#FF0000" fill="none" stroke-width="4px" />
<path d="M 190.0 15.0 L 180.0 15.0" stroke="#FF0000" fill="none" stroke-width="4px" />
<path d="M 180.0 15.0 L 170.0 15.0" stroke="#FF0000" fill="none" stroke-width="4px" />
<path d="M 170.0 15.0 L 180.0 5.0" stroke="#FF0000" fill="none" stroke-width="4px" />
<path d="M 340.0 155.0 L 340.0 165.0" stroke="#FF0000" fill="none" stroke-width="4px" />
<path d="M 340.0 165.0 L 330.0 165.0" stroke="#FF0000" fill="none" stroke-width="4px" />
<path d="M 330.0 165.0 L 330.0 175.0" stroke="#FF0000" fill="none" stroke-width="4px" />
<path d="M 330.0 175.0 L 320.0 175.0" stroke="#FF0000" fill="none" stroke-width="4px" />
<path d="M 320.0 175.0 L 330.0 185.0" stroke="#FF0000" fill="none" stroke-width="4px" />
<path d="M 330.0 185.0 L 340.0 185.0" stroke="#FF0000" fill="none" stroke-width="4px" />
<path d="M 340.0 185.0 L 350.0 185.0" stroke="#FF0000" fill="none" stroke-width="4px" />
<path d="M 350.0 185.0 L 350.0 175.0" stroke="#FF0000" fill="none" stroke-width="4px" />
<path d="M 350.0 175.0 L 340.0 175.0" stroke="#FF0000" fill="none" stroke-width="4px" />
<path d="M 340.0 175.0 L 350.0 165.0" stroke="#FF0000" fill="none" stroke-width="4px" />
<path d="M 350.0 165.0 L 360.0 175.0" stroke="#FF0000" fill="none" stroke-width="4px" />
<path d="M 950.0 105.0 L 960.0 105.0" stroke="#FF0000" fill="none" stroke-width="4px" />
<path d="M 960.0 105.0 L 970.0 105.0" stroke="#FF0000" fill="none" stroke-width="4px" />
<path d="M 970.0 105.0 L 980.0 105.0" stroke="#FF0000" fill="none" stroke-width="4px" />
<path d="M 980.0 105.0 L 980.0 95.0" stroke="#FF0000" fill="none" stroke-width="4px" />
<path d="M 980.0 95.0 L 970.0 95.0" stroke="#FF0000" fill="none" stroke-width="4px" />
<path d="M 970.0 95.0 L 960.0 95.0" stroke="#FF0000" fill="none" stroke-width="4px" />
<path d="M 960.0 95.0 L 950.0 95.0" stroke="#FF0000" fill="none" stroke-width="4px" />
<path d="M 950.0 95.0 L 960.0 85.0" stroke="#FF0000" fill="none" stroke-width="4px" />
<path d="M 960.0 85.0 L 970.0 85.0" stroke="#FF0000" fill="none" stroke-width="4px" />
<path d="M 970.0 115.0 L 960.0 115.0" stroke="#FF0000" fill="none" stroke-width="4px" />
<path d="M 1090.0 145.0 L 1100.0 145.0" stroke="#FF0000" fill="none" stroke-width="4px" />
<path d="M 1100.0 145.0 L 1110.0 145.0" stroke="#FF0000" fill="none" stroke-width="4px" />
<path d="M 1110.0 145.0 L 1120.0 145.0" stroke="#FF0000" fill="none" stroke-width="4px" />
<path d="M 1120.0 145.0 L 1120.0 155.0" stroke="#FF0000" fill="none" stroke-width="4px" />
<path d="M 1120.0 155.0 L 1110.0 155.0" stroke="#FF0000" fill="none" stroke-width="4px" />
<path d="M 1110.0 155.0 L 1100.0 155.0" stroke="#FF0000" fill="none" stroke-width="4px" />
<path d="M 1100.0 155.0 L 1090.0 155.0" stroke="#FF0000" fill="none" stroke-width="4px" />
<path d="M 1090.0 155.0 L 1100.0 165.0" stroke="#FF0000" fill="none" stroke-width="4px" />
<path d="M 1100.0 165.0 L 1110.0 165.0" stroke="#FF0000" fill="none" stroke-width="4px" />
<path d="M 1110.0 165.0 L 1120.0 165.0" stroke="#FF0000" fill="none" stroke-width="4px" />
<path d="M 1120.0 165.0 L 1130.0 165.0" stroke="#FF0000" fill="none" stroke-width="4px" />
<path d="M 1130.0 165.0 L 1140.0 165.0" stroke="#FF0000" fill="none" stroke-width="4px" />
<path d="M 1140.0 165.0 L 1140.0 175.0" stroke="#FF0000" fill="none" stroke-width="4px" />
<path d="M 1140.0 175.0 L 1130.0 175.0" stroke="#FF0000" fill="none" stroke-width="4px" />
<path d="M 1130.0 175.0 L 1120.0 175.0" stroke="#FF0000" fill="none" stroke-width="4px" />
<path d="M 1120.0 175.0 L 1110.0 175.0" stroke="#FF0000" fill="none" stroke-width="4px" />
<path d="M 1110.0 175.0 L 1100.0 175.0" stroke="#FF0000" fill="none" stroke-width="4px" />
<path d="M 1100.0 175.0 L 1100.0 185.0" stroke="#FF0000" fill="none" stroke-width="4px" />
<path d="M 1100.0 185.0 L 1110.0 185.0" stroke="#FF0000" fill="none" stroke-width="4px" />
<path d="M 1110.0 185.0 L 1120.0 185.0" stroke="#FF0000" fill="none" stroke-width="4px" />
<path d="M 1120.0 185.0 L 1130.0 185.0" stroke="#FF0000" fill="none" stroke-width="4px" />
<path d="M 1130.0 185.0 L 1140.0 185.0" stroke="#FF0000" fill="none" stroke-width="4px" />
<path d="M 1140.0 185.0 L 1150.0 185.0" stroke="#FF0000" fill="none" stroke-width="4px" />
<path d="M 1150.0 185.0 L 1150.0 175.0" stroke="#FF0000" fill="none" stroke-width="4px" />
<path d="M 1170.0 165.0 L 1180.0 165.0" stroke="#FF0000" fill="none" stroke-width="4px" />
<path d="M 1180.0 165.0 L 1190.0 165.0" stroke="#FF0000" fill="none" stroke-width="4px" />
<path d="M 1190.0 165.0 L 1200.0 165.0" stroke="#FF0000" fill="none" stroke-width="4px" />
<path d="M 1200.0 165.0 L 1210.0 165.0" stroke="#FF0000" fill="none" stroke-width="4px" />
<path d="M 1210.0 165.0 L 1220.0 165.0" stroke="#FF0000" fill="none" stroke-width="4px" />
<path d="M 1220.0 165.0 L 1230.0 165.0" stroke="#FF0000" fill="none" stroke-width="4px" />
<path d="M 1230.0 165.0 L 1230.0 175.0" stroke="#FF0000" fill="none" stroke-width="4px" />
<path d="M 1230.0 175.0 L 1220.0 175.0" stroke="#FF0000" fill="none" stroke-width="4px" />
<path d="M 1220.0 175.0 L 1210.0 175.0" stroke="#FF0000" fill="none" stroke-width="4px" />
<path d="M 1210.0 175.0 L 1200.0 175.0" stroke="#FF0000" fill="none" stroke-width="4px" />
<path d="M 1200.0 175.0 L 1190.0 175.0" stroke="#FF0000" fill="none" stroke-width="4px" />
<path d="M 1190.0 175.0 L 1180.0 175.0" stroke="#FF0000" fill="none" stroke-width="4px" />
<path d="M 1180.0 175.0 L 1180.0 185.0" stroke="#FF0000" fill="none" stroke-width="4px" />
<path d="M 1180.0 185.0 L 1190.0 185.0" stroke="#FF0000" fill="none" stroke-width="4px" />
<path d="M 1190.0 185.0 L 1200.0 185.0" stroke="#FF0000" fill="none" stroke-width="4px" />
<path d="M 1200.0 185.0 L 1210.0 185.0" stroke="#FF0000" fill="none" stroke-width="4px" />
<path d="M 1210.0 185.0 L 1220.0 185.0" stroke="#FF0000" fill="none" stroke-width="4px" />
<path d="M 1220.0 185.0 L 1210.0 195.0" stroke="#FF0000" fill="none" stroke-width="4px" />
<path d="M 1210.0 195.0 L 1200.0 195.0" stroke="#FF0000" fill="none" stroke-width="4px" />
<path d="M 1200.0 195.0 L 1190.0 195.0" stroke="#FF0000" fill="none" stroke-width="4px" />
<path d="M 1140.0 195.0 L 1130.0 195.0" stroke="#FF0000" fill="none" stroke-width="4px" />
<path d="M 1130.0 195.0 L 1120.0 195.0" stroke="#FF0000" fill="none" stroke-width="4px" />
<path d="M 1120.0 195.0 L 1110.0 195.0" stroke="#FF0000" fill="none" stroke-width="4px" />
<path d="M 1110.0 195.0 L 1120.0 205.0" stroke="#FF0000" fill="none" stroke-width="4px" />
<path d="M 1120.0 205.0 L 1130.0 205.0" stroke="#FF0000" fill="none" stroke-width="4px" />
<path d="M 1110.0 135.0 L 1100.0 135.0" stroke="#FF0000" fill="none" stroke-width="4px" />
<path d="M 1180.0 155.0 L 1190.0 155.0" stroke="#FF0000" fill="none" stroke-width="4px" />
<path d="M 1190.0 155.0 L 1200.0 155.0" stroke="#FF0000" fill="none" stroke-width="4px" />
<path d="M 1200.0 155.0 L 1210.0 155.0" stroke="#FF0000" fill="none" stroke-width="4px" />
<path d="M 1210.0 155.0 L 1220.0 155.0" stroke="#FF0000" fill="none" stroke-width="4px" />
<path d="M 1220.0 155.0 L 1210.0 145.0" stroke="#FF0000" fill="none" stroke-width="4px" />
<path d="M 1210.0 145.0 L 1200.0 145.0" stroke="#FF0000" fill="none" stroke-width="4px" />
<path d="M 1200.0 145.0 L 1190.0 145.0" stroke="#FF0000" fill="none" stroke-width="4px" />
<path d="M 1380.0 135.0 L 1390.0 135.0" stroke="#FF0000" fill="none" stroke-width="4px" />
<path d="M 1390.0 135.0 L 1400.0 135.0" stroke="#FF0000" fill="none" stroke-width="4px" />
<path d="M 1400.0 135.0 L 1410.0 135.0" stroke="#FF0000" fill="none" stroke-width="4px" />
<path d="M 1410.0 135.0 L 1420.0 135.0" stroke="#FF0000" fill="none" stroke-width="4px" />
<path d="M 1420.0 135.0 L 1430.0 135.0" stroke="#FF0000" fill="none" stroke-width="4px" />
<path d="M 1430.0 135.0 L 1440.0 135.0" stroke="#FF0000" fill="none" stroke-width="4px" />
<path d="M 1440.0 135.0 L 1440.0 145.0" stroke="#FF0000" fill="none" stroke-width="4px" />
<path d="M 1440.0 145.0 L 1430.0 145.0" stroke="#FF0000" fill="none" stroke-width="4px" />
<path d="M 1430.0 145.0 L 1420.0 145.0" stroke="#FF0000" fill="none" stroke-width="4px" />
<path d="M 1420.0 145.0 L 1410.0 145.0" stroke="#FF0000" fill="none" stroke-width="4px" />
<path d="M 1410.0 145.0 L 1400.0 145.0" stroke="#FF0000" fill="none" stroke-width="4px" />
<path d="M 1400.0 145.0 L 1390.0 145.0" stroke="#FF0000" fill="none" stroke-width="4px" />
<path d="M 1390.0 145.0 L 1400.0 155.0" stroke="#FF0000" fill="none" stroke-width="4px" />
<path d="M 1400.0 155.0 L 1410.0 155.0" stroke="#FF0000" fill="none" stroke-width="4px" />
<path d="M 1410.0 155.0 L 1420.0 155.0" stroke="#FF0000" fill="none" stroke-width="4px" />
<path d="M 1420.0 155.0 L 1430.0 155.0" stroke="#FF0000" fill="none" stroke-width="4px" />
<path d="M 1430.0 155.0 L 1420.0 165.0" stroke="#FF0000" fill="none" stroke-width="4px" />
<path d="M 1420.0 165.0 L 1410.0 165.0" stroke="#FF0000" fill="none" stroke-width="4px" />
<path d="M 1410.0 125.0 L 1400.0 125.0" stroke="#FF0000" fill="none" stroke-width="4px" />
<path d="M 1400.0 125.0 L 1390.0 125.0" stroke="#FF0000" fill="none" stroke-width="4px" />
<path d="M 1390.0 125.0 L 1380.0 125.0" stroke="#FF0000" fill="none" stroke-width="4px" />
<path d="M 1380.0 125.0 L 1390.0 115.0" stroke="#FF0000" fill="none" stroke-width="4px" />
<path d="M 1390.0 115.0 L 1400.0 115.0" stroke="#FF0000" fill="none" stroke-width="4px" />
<path d="M 1400.0 115.0 L 1410.0 115.0" stroke="#FF0000" fill="none" stroke-width="4px" />
<path d="M 1410.0 115.0 L 1420.0 115.0" stroke="#FF0000" fill="none" stroke-width="4px" />
<path d="M 1420.0 115.0 L 1420.0 125.0" stroke="#FF0000" fill="none" stroke-width="4px" />
<path d="M 1420.0 125.0 L 1430.0 125.0" stroke="#FF0000" fill="none" stroke-width="4px" />
<path d="M 1460.0 125.0 L 1470.0 125.0" stroke="#FF0000" fill="none" stroke-width="4px" />
<path d="M 1470.0 125.0 L 1480.0 125.0" stroke="#FF0000" fill="none" stroke-width="4px" />
<path d="M 1480.0 125.0 L 1490.0 125.0" stroke="#FF0000" fill="none" stroke-width="4px" />
<path d="M 1490.0 125.0 L 1500.0 125.0" stroke="#FF0000" fill="none" stroke-width="4px" />
<path d="M 1500.0 125.0 L 1500.0 135.0" stroke="#FF0000" fill="none" stroke-width="4px" />
<path d="M 1500.0 135.0 L 1490.0 135.0" stroke="#FF0000" fill="none" stroke-width="4px" />
<path d="M 1490.0 135.0 L 1480.0 135.0" stroke="#FF0000" fill="none" stroke-width="4px" />
<path d="M 1480.0 135.0 L 1470.0 135.0" stroke="#FF0000" fill="none" stroke-width="4px" />
<path d="M 1470.0 135.0 L 1460.0 135.0" stroke="#FF0000" fill="none" stroke-width="4px" />
<path d="M 1460.0 135.0 L 1470.0 145.0" stroke="#FF0000" fill="none" stroke-width="4px" />
<path d="M 1470.0 145.0 L 1480.0 145.0" stroke="#FF0000" fill="none" stroke-width="4px" />
<path d="M 1480.0 145.0 L 1490.0 145.0" stroke="#FF0000" fill="none" stroke-width="4px" />
<path d="M 1490.0 145.0 L 1480.0 155.0" stroke="#FF0000" fill="none" stroke-width="4px" />
<path d="M 1480.0 115.0 L 1470.0 115.0" stroke="#FF0000" fill="none" stroke-width="4px" />
<path d="M 1470.0 115.0 L 1480.0 105.0" stroke="#FF0000" fill="none" stroke-width="4px" />
<path d="M 1480.0 105.0 L 1490.0 115.0" stroke="#FF0000" fill="none" stroke-width="4px" />
<path d="M 1530.0 125.0 L 1540.0 125.0" stroke="#FF0000" fill="none" stroke-width="4px" />
<path d="M 1540.0 125.0 L 1550.0 125.0" stroke="#FF0000" fill="none" stroke-width="4px" />
<path d="M 1550.0 125.0 L 1560.0 125.0" stroke="#FF0000" fill="none" stroke-width="4px" />
<path d="M 1560.0 125.0 L 1570.0 125.0" stroke="#FF0000" fill="none" stroke-width="4px" />
<path d="M 1570.0 125.0 L 1580.0 125.0" stroke="#FF0000" fill="none" stroke-width="4px" />
<path d="M 1580.0 125.0 L 1590.0 125.0" stroke="#FF0000" fill="none" stroke-width="4px" />
<path d="M 1590.0 125.0 L 1600.0 125.0" stroke="#FF0000" fill="none" stroke-width="4px" />
<path d="M 1600.0 125.0 L 1600.0 135.0" stroke="#FF0000" fill="none" stroke-width="4px" />
<path d="M 1600.0 135.0 L 1590.0 135.0" stroke="#FF0000" fill="none" stroke-width="4px" />
<path d="M 1590.0 135.0 L 1580.0 135.0" stroke="#FF0000" fill="none" stroke-width="4px" />
<path d="M 1580.0 135.0 L 1570.0 135.0" stroke="#FF0000" fill="none" stroke-width="4px" />
<path d="M 1570.0 135.0 L 1560.0 135.0" stroke="#FF0000" fill="none" stroke-width="4px" />
<path d="M 1560.0 135.0 L 1550.0 135.0" stroke="#FF0000" fill="none" stroke-width="4px" />
<path d="M 1550.0 135.0 L 1540.0 135.0" stroke="#FF0000" fill="none" stroke-width="4px" />
<path d="M 1540.0 135.0 L 1530.0 135.0" stroke="#FF0000" fill="none" stroke-width="4px" />
<path d="M 1530.0 135.0 L 1540.0 145.0" stroke="#FF0000" fill="none" stroke-width="4px" />
<path d="M 1540.0 145.0 L 1550.0 145.0" stroke="#FF0000" fill="none" stroke-width="4px" />
<path d="M 1550.0 145.0 L 1560.0 145.0" stroke="#FF0000" fill="none" stroke-width="4px" />
<path d="M 1560.0 145.0 L 1570.0 145.0" stroke="#FF0000" fill="none" stroke-width="4px" />
<path d="M 1570.0 145.0 L 1580.0 145.0" stroke="#FF0000" fill="none" stroke-width="4px" />
<path d="M 1580.0 145.0 L 1590.0 145.0" stroke="#FF0000" fill="none" stroke-width="4px" />
<path d="M 1590.0 145.0 L 1600.0 145.0" stroke="#FF0000" fill="none" stroke-width="4px" />
<path d="M 1600.0 145.0 L 1600.0 155.0" stroke="#FF0000" fill="none" stroke-width="4px" />
<path d="M 1600.0 155.0 L 1590.0 155.0" stroke="#FF0000" fill="none" stroke-width="4px" />
<path d="M 1590.0 155.0 L 1580.0 155.0" stroke="#FF0000" fill="none" stroke-width="4px" />
<path d="M 1580.0 155.0 L 1570.0 155.0" stroke="#FF0000" fill="none" stroke-width="4px" />
<path d="M 1570.0 155.0 L 1560.0 155.0" stroke="#FF0000" fill="none" stroke-width="4px" />
<path d="M 1560.0 155.0 L 1550.0 155.0" stroke="#FF0000" fill="none" stroke-width="4px" />
<path d="M 1550.0 155.0 L 1540.0 155.0" stroke="#FF0000" fill="none" stroke-width="4px" />
<path d="M 1540.0 155.0 L 1550.0 165.0" stroke="#FF0000" fill="none" stroke-width="4px" />
<path d="M 1550.0 165.0 L 1560.0 165.0" stroke="#FF0000" fill="none" stroke-width="4px" />
<path d="M 1560.0 165.0 L 1570.0 165.0" stroke="#FF0000" fill="none" stroke-width="4px" />
<path d="M 1570.0 165.0 L 1580.0 165.0" stroke="#FF0000" fill="none" stroke-width="4px" />
<path d="M 1580.0 165.0 L 1590.0 165.0" stroke="#FF0000" fill="none" stroke-width="4px" />
<path d="M 1590.0 115.0 L 1580.0 115.0" stroke="#FF0000" fill="none" stroke-width="4px" />
<path d="M 1580.0 115.0 L 1570.0 115.0" stroke="#FF0000" fill="none" stroke-width="4px" />
<path d="M 1570.0 115.0 L 1560.0 115.0" stroke="#FF0000" fill="none" stroke-width="4px" />
<path d="M 1560.0 115.0 L 1550.0 115.0" stroke="#FF0000" fill="none" stroke-width="4px" />
<path d="M 1550.0 115.0 L 1540.0 115.0" stroke="#FF0000" fill="none" stroke-width="4px" />
<path d="M 1540.0 115.0 L 1550.0 105.0" stroke="#FF0000" fill="none" stroke-width="4px" />
<path d="M 1550.0 105.0 L 1560.0 105.0" stroke="#FF0000" fill="none" stroke-width="4px" />
<path d="M 1560.0 105.0 L 1570.0 105.0" stroke="#FF0000" fill="none" stroke-width="4px" />
<path d="M 1570.0 105.0 L 1580.0 105.0" stroke="#FF0000" fill="none" stroke-width="4px" />
<path d="M 1730.0 115.0 L 1740.0 115.0" stroke="#FF0000" fill="none" stroke-width="4px" />
<path d="M 1740.0 115.0 L 1750.0 115.0" stroke="#FF0000" fill="none" stroke-width="4px" />
<path d="M 1750.0 115.0 L 1760.0 115.0" stroke="#FF0000" fill="none" stroke-width="4px" />
<path d="M 1760.0 115.0 L 1770.0 115.0" stroke="#FF0000" fill="none" stroke-width="4px" />
<path d="M 1770.0 115.0 L 1780.0 115.0" stroke="#FF0000" fill="none" stroke-width="4px" />
<path d="M 1780.0 115.0 L 1780.0 125.0" stroke="#FF0000" fill="none" stroke-width="4px" />
<path d="M 1780.0 125.0 L 1770.0 125.0" stroke="#FF0000" fill="none" stroke-width="4px" />
<path d="M 1770.0 125.0 L 1760.0 125.0" stroke="#FF0000" fill="none" stroke-width="4px" />
<path d="M 1760.0 125.0 L 1750.0 125.0" stroke="#FF0000" fill="none" stroke-width="4px" />
<path d="M 1750.0 125.0 L 1740.0 125.0" stroke="#FF0000" fill="none" stroke-width="4px" />
<path d="M 1740.0 125.0 L 1730.0 125.0" stroke="#FF0000" fill="none" stroke-width="4px" />
<path d="M 1730.0 125.0 L 1730.0 135.0" stroke="#FF0000" fill="none" stroke-width="4px" />
<path d="M 1730.0 135.0 L 1740.0 135.0" stroke="#FF0000" fill="none" stroke-width="4px" />
<path d="M 1740.0 135.0 L 1750.0 135.0" stroke="#FF0000" fill="none" stroke-width="4px" />
<path d="M 1750.0 135.0 L 1760.0 135.0" stroke="#FF0000" fill="none" stroke-width="4px" />
<path d="M 1760.0 135.0 L 1770.0 135.0" stroke="#FF0000" fill="none" stroke-width="4px" />
<path d="M 1770.0 135.0 L 1780.0 135.0" stroke="#FF0000" fill="none" stroke-width="4px" />
<path d="M 1780.0 135.0 L 1790.0 135.0" stroke="#FF0000" fill="none" stroke-width="4px" />
<path d="M 1790.0 135.0 L 1790.0 145.0" stroke="#FF0000" fill="none" stroke-width="4px" />
<path d="M 1790.0 145.0 L 1780.0 145.0" stroke="#FF0000" fill="none" stroke-width="4px" />
<path d="M 1780.0 145.0 L 1770.0 145.0" stroke="#FF0000" fill="none" stroke-width="4px" />
<path d="M 1770.0 145.0 L 1760.0 145.0" stroke="#FF0000" fill="none" stroke-width="4px" />
<path d="M 1760.0 145.0 L 1750.0 145.0" stroke="#FF0000" fill="none" stroke-width="4px" />
<path d="M 1750.0 145.0 L 1740.0 145.0" stroke="#FF0000" fill="none" stroke-width="4px" />
<path d="M 1740.0 145.0 L 1730.0 145.0" stroke="#FF0000" fill="none" stroke-width="4px" />
<path d="M 1730.0 145.0 L 1740.0 155.0" stroke="#FF0000" fill="none" stroke-width="4px" />
<path d="M 1740.0 155.0 L 1750.0 155.0" stroke="#FF0000" fill="none" stroke-width="4px" />
<path d="M 1750.0 155.0 L 1760.0 155.0" stroke="#FF0000" fill="none" stroke-width="4px" />
<path d="M 1760.0 155.0 L 1770.0 155.0" stroke="#FF0000" fill="none" stroke-width="4px" />
<path d="M 1770.0 155.0 L 1780.0 155.0" stroke="#FF0000" fill="none" stroke-width="4px" />
<path d="M 1780.0 155.0 L 1770.0 165.0" stroke="#FF0000" fill="none" stroke-width="4px" />
<path d="M 1770.0 165.0 L 1760.0 165.0" stroke="#FF0000" fill="none" stroke-width="4px" />
<path d="M 1760.0 165.0 L 1750.0 165.0" stroke="#FF0000" fill="none" stroke-width="4px" />
<path d="M 1770.0 105.0 L 1760.0 105.0" stroke="#FF0000" fill="none" stroke-width="4px" />
<path d="M 1760.0 105.0 L 1750.0 105.0" stroke="#FF0000" fill="none" stroke-width="4px" />
<path d="M 1750.0 105.0 L 1740.0 105.0" stroke="#FF0000" fill="none" stroke-width="4px" />
<path d="M 1740.0 105.0 L 1750.0 95.0" stroke="#FF0000" fill="none" stroke-width="4px" />
<path d="M 1750.0 95.0 L 1760.0 95.0" stroke="#FF0000" fill="none" stroke-width="4px" />
<path d="M 1410.0 105.0 L 1400.0 105.0" stroke="#FF0000" fill="none" stroke-width="4px" />
<path d="M 2770.0 175.0 L 2770.0 165.0" stroke="#FF0000" fill="none" stroke-width="4px" />
<path d="M 2770.0 165.0 L 2760.0 165.0" stroke="#FF0000" fill="none" stroke-width="4px" />
<path d="M 2760.0 165.0 L 2760.0 155.0" stroke="#FF0000" fill="none" stroke-width="4px" />
<path d="M 2760.0 155.0 L 2750.0 155.0" stroke="#FF0000" fill="none" stroke-width="4px" />
<path d="M 2750.0 155.0 L 2750.0 145.0" stroke="#FF0000" fill="none" stroke-width="4px" />
<path d="M 2750.0 145.0 L 2760.0 145.0" stroke="#FF0000" fill="none" stroke-width="4px" />
<path d="M 2760.0 145.0 L 2770.0 145.0" stroke="#FF0000" fill="none" stroke-width="4px" />
<path d="M 2770.0 145.0 L 2780.0 145.0" stroke="#FF0000" fill="none" stroke-width="4px" />
<path d="M 2780.0 145.0 L 2790.0 145.0" stroke="#FF0000" fill="none" stroke-width="4px" />
<path d="M 2790.0 145.0 L 2780.0 155.0" stroke="#FF0000" fill="none" stroke-width="4px" />
<path d="M 2780.0 155.0 L 2770.0 155.0" stroke="#FF0000" fill="none" stroke-width="4px" />
<path d="M 2770.0 155.0 L 2780.0 165.0" stroke="#FF0000" fill="none" stroke-width="4px" />
<path d="M 2780.0 135.0 L 2770.0 135.0" stroke="#FF0000" fill="none" stroke-width="4px" />
<path d="M 2770.0 135.0 L 2760.0 135.0" stroke="#FF0000" fill="none" stroke-width="4px" />
<path d="M 2760.0 135.0 L 2750.0 135.0" stroke="#FF0000" fill="none" stroke-width="4px" />
<path d="M 2750.0 135.0 L 2760.0 125.0" stroke="#FF0000" fill="none" stroke-width="4px" />
<path d="M 2760.0 125.0 L 2770.0 125.0" stroke="#FF0000" fill="none" stroke-width="4px" />
<path d="M 2540.0 125.0 L 2530.0 125.0" stroke="#FF0000" fill="none" stroke-width="4px" />
<path d="M 2530.0 125.0 L 2520.0 125.0" stroke="#FF0000" fill="none" stroke-width="4px" />
<path d="M 2520.0 125.0 L 2510.0 125.0" stroke="#FF0000" fill="none" stroke-width="4px" />
<path d="M 2510.0 125.0 L 2500.0 125.0" stroke="#FF0000" fill="none" stroke-width="4px" />
<path d="M 2500.0 125.0 L 2490.0 125.0" stroke="#FF0000" fill="none" stroke-width="4px" />
<path d="M 2490.0 125.0 L 2480.0 125.0" stroke="#FF0000" fill="none" stroke-width="4px" />
<path d="M 2480.0 125.0 L 2470.0 125.0" stroke="#FF0000" fill="none" stroke-width="4px" />
<path d="M 2470.0 125.0 L 2460.0 125.0" stroke="#FF0000" fill="none" stroke-width="4px" />
<path d="M 2460.0 125.0 L 2450.0 125.0" stroke="#FF0000" fill="none" stroke-width="4px" />
<path d="M 2450.0 125.0 L 2440.0 125.0" stroke="#FF0000" fill="none" stroke-width="4px" />
<path d="M 2440.0 125.0 L 2430.0 125.0" stroke="#FF0000" fill="none" stroke-width="4px" />
<path d="M 2430.0 125.0 L 2420.0 125.0" stroke="#FF0000" fill="none" stroke-width="4px" />
<path d="M 2420.0 125.0 L 2410.0 125.0" stroke="#FF0000" fill="none" stroke-width="4px" />
<path d="M 2410.0 125.0 L 2410.0 115.0" stroke="#FF0000" fill="none" stroke-width="4px" />
<path d="M 2410.0 115.0 L 2420.0 115.0" stroke="#FF0000" fill="none" stroke-width="4px" />
<path d="M 2420.0 115.0 L 2430.0 115.0" stroke="#FF0000" fill="none" stroke-width="4px" />
<path d="M 2430.0 115.0 L 2440.0 115.0" stroke="#FF0000" fill="none" stroke-width="4px" />
<path d="M 2440.0 115.0 L 2450.0 115.0" stroke="#FF0000" fill="none" stroke-width="4px" />
<path d="M 2450.0 115.0 L 2460.0 115.0" stroke="#FF0000" fill="none" stroke-width="4px" />
<path d="M 2460.0 115.0 L 2470.0 115.0" stroke="#FF0000" fill="none" stroke-width="4px" />
<path d="M 2470.0 115.0 L 2480.0 115.0" stroke="#FF0000" fill="none" stroke-width="4px" />
<path d="M 2480.0 115.0 L 2500.0 115.0" stroke="#FF0000" fill="none" stroke-width="4px" />
<path d="M 2500.0 115.0 L 2510.0 115.0" stroke="#FF0000" fill="none" stroke-width="4px" />
<path d="M 2510.0 115.0 L 2520.0 115.0" stroke="#FF0000" fill="none" stroke-width="4px" />
<path d="M 2520.0 115.0 L 2530.0 115.0" stroke="#FF0000" fill="none" stroke-width="4px" />
<path d="M 2530.0 115.0 L 2540.0 115.0" stroke="#FF0000" fill="none" stroke-width="4px" />
<path d="M 2540.0 115.0 L 2540.0 105.0" stroke="#FF0000" fill="none" stroke-width="4px" />
<path d="M 2540.0 105.0 L 2530.0 105.0" stroke="#FF0000" fill="none" stroke-width="4px" />
<path d="M 2530.0 105.0 L 2520.0 105.0" stroke="#FF0000" fill="none" stroke-width="4px" />
<path d="M 2520.0 105.0 L 2510.0 105.0" stroke="#FF0000" fill="none" stroke-width="4px" />
<path d="M 2510.0 105.0 L 2500.0 105.0" stroke="#FF0000" fill="none" stroke-width="4px" />
<path d="M 2500.0 105.0 L 2510.0 95.0" stroke="#FF0000" fill="none" stroke-width="4px" />
<path d="M 2510.0 95.0 L 2520.0 95.0" stroke="#FF0000" fill="none" stroke-width="4px" />
<path d="M 2520.0 95.0 L 2530.0 95.0" stroke="#FF0000" fill="none" stroke-width="4px" />
<path d="M 2530.0 95.0 L 2520.0 85.0" stroke="#FF0000" fill="none" stroke-width="4px" />
<path d="M 2460.0 95.0 L 2450.0 95.0" stroke="#FF0000" fill="none" stroke-width="4px" />
<path d="M 2450.0 95.0 L 2440.0 95.0" stroke="#FF0000" fill="none" stroke-width="4px" />
<path d="M 2440.0 95.0 L 2430.0 95.0" stroke="#FF0000" fill="none" stroke-width="4px" />
<path d="M 2430.0 95.0 L 2420.0 95.0" stroke="#FF0000" fill="none" stroke-width="4px" />
<path d="M 2420.0 95.0 L 2420.0 105.0" stroke="#FF0000" fill="none" stroke-width="4px" />
<path d="M 2420.0 105.0 L 2410.0 105.0" stroke="#FF0000" fill="none" stroke-width="4px" />
<path d="M 2410.0 105.0 L 2430.0 105.0" stroke="#FF0000" fill="none" stroke-width="4px" />
<path d="M 2430.0 105.0 L 2440.0 105.0" stroke="#FF0000" fill="none" stroke-width="4px" />
<path d="M 2440.0 105.0 L 2450.0 105.0" stroke="#FF0000" fill="none" stroke-width="4px" />
<path d="M 2450.0 105.0 L 2460.0 105.0" stroke="#FF0000" fill="none" stroke-width="4px" />
<path d="M 2450.0 85.0 L 2440.0 85.0" stroke="#FF0000" fill="none" stroke-width="4px" />
<path d="M 2440.0 85.0 L 2430.0 85.0" stroke="#FF0000" fill="none" stroke-width="4px" />
<path d="M 2430.0 135.0 L 2420.0 135.0" stroke="#FF0000" fill="none" stroke-width="4px" />
<path d="M 2420.0 135.0 L 2440.0 135.0" stroke="#FF0000" fill="none" stroke-width="4px" />
<path d="M 2440.0 135.0 L 2450.0 135.0" stroke="#FF0000" fill="none" stroke-width="4px" />
<path d="M 2450.0 135.0 L 2460.0 135.0" stroke="#FF0000" fill="none" stroke-width="4px" />
<path d="M 2460.0 135.0 L 2470.0 135.0" stroke="#FF0000" fill="none" stroke-width="4px" />
<path d="M 2470.0 135.0 L 2480.0 135.0" stroke="#FF0000" fill="none" stroke-width="4px" />
<path d="M 2480.0 135.0 L 2490.0 135.0" stroke="#FF0000" fill="none" stroke-width="4px" />
<path d="M 2490.0 135.0 L 2480.0 145.0" stroke="#FF0000" fill="none" stroke-width="4px" />
<path d="M 2480.0 145.0 L 2470.0 145.0" stroke="#FF0000" fill="none" stroke-width="4px" />
<path d="M 2470.0 145.0 L 2460.0 145.0" stroke="#FF0000" fill="none" stroke-width="4px" />
<path d="M 2460.0 145.0 L 2450.0 145.0" stroke="#FF0000" fill="none" stroke-width="4px" />
<path d="M 2450.0 145.0 L 2460.0 155.0" stroke="#FF0000" fill="none" stroke-width="4px" />
<path d="M 2460.0 155.0 L 2470.0 155.0" stroke="#FF0000" fill="none" stroke-width="4px" />
<path d="M 2510.0 135.0 L 2520.0 135.0" stroke="#FF0000" fill="none" stroke-width="4px" />
<path d="M 2520.0 135.0 L 2530.0 135.0" stroke="#FF0000" fill="none" stroke-width="4px" />
<path d="M 2040.0 125.0 L 2030.0 125.0" stroke="#FF0000" fill="none" stroke-width="4px" />
<path d="M 2030.0 125.0 L 2020.0 125.0" stroke="#FF0000" fill="none" stroke-width="4px" />
<path d="M 2020.0 125.0 L 2010.0 125.0" stroke="#FF0000" fill="none" stroke-width="4px" />
<path d="M 2010.0 125.0 L 2000.0 125.0" stroke="#FF0000" fill="none" stroke-width="4px" />
<path d="M 2000.0 125.0 L 1990.0 125.0" stroke="#FF0000" fill="none" stroke-width="4px" />
<path d="M 1990.0 125.0 L 1980.0 125.0" stroke="#FF0000" fill="none" stroke-width="4px" />
<path d="M 1980.0 125.0 L 1970.0 125.0" stroke="#FF0000" fill="none" stroke-width="4px" />
<path d="M 1970.0 125.0 L 1970.0 135.0" stroke="#FF0000" fill="none" stroke-width="4px" />
<path d="M 1970.0 135.0 L 1960.0 135.0" stroke="#FF0000" fill="none" stroke-width="4px" />
<path d="M 1960.0 135.0 L 1960.0 145.0" stroke="#FF0000" fill="none" stroke-width="4px" />
<path d="M 1960.0 145.0 L 1950.0 145.0" stroke="#FF0000" fill="none" stroke-width="4px" />
<path d="M 1950.0 145.0 L 1950.0 155.0" stroke="#FF0000" fill="none" stroke-width="4px" />
<path d="M 1950.0 155.0 L 1940.0 155.0" stroke="#FF0000" fill="none" stroke-width="4px" />
<path d="M 1940.0 155.0 L 1950.0 165.0" stroke="#FF0000" fill="none" stroke-width="4px" />
<path d="M 1950.0 165.0 L 1960.0 165.0" stroke="#FF0000" fill="none" stroke-width="4px" />
<path d="M 1960.0 165.0 L 1970.0 165.0" stroke="#FF0000" fill="none" stroke-width="4px" />
<path d="M 1970.0 165.0 L 1980.0 165.0" stroke="#FF0000" fill="none" stroke-width="4px" />
<path d="M 1980.0 165.0 L 1990.0 165.0" stroke="#FF0000" fill="none" stroke-width="4px" />
<path d="M 1990.0 165.0 L 2000.0 165.0" stroke="#FF0000" fill="none" stroke-width="4px" />
<path d="M 2000.0 165.0 L 2000.0 155.0" stroke="#FF0000" fill="none" stroke-width="4px" />
<path d="M 2000.0 155.0 L 1990.0 155.0" stroke="#FF0000" fill="none" stroke-width="4px" />
<path d="M 1990.0 155.0 L 1980.0 155.0" stroke="#FF0000" fill="none" stroke-width="4px" />
<path d="M 1980.0 155.0 L 1970.0 155.0" stroke="#FF0000" fill="none" stroke-width="4px" />
<path d="M 1970.0 155.0 L 1960.0 155.0" stroke="#FF0000" fill="none" stroke-width="4px" />
<path d="M 1960.0 155.0 L 1970.0 145.0" stroke="#FF0000" fill="none" stroke-width="4px" />
<path d="M 1970.0 145.0 L 1980.0 145.0" stroke="#FF0000" fill="none" stroke-width="4px" />
<path d="M 1980.0 145.0 L 1990.0 145.0" stroke="#FF0000" fill="none" stroke-width="4px" />
<path d="M 1990.0 145.0 L 2000.0 145.0" stroke="#FF0000" fill="none" stroke-width="4px" />
<path d="M 2000.0 145.0 L 2010.0 145.0" stroke="#FF0000" fill="none" stroke-width="4px" />
<path d="M 2010.0 145.0 L 2020.0 145.0" stroke="#FF0000" fill="none" stroke-width="4px" />
<path d="M 2020.0 145.0 L 2020.0 135.0" stroke="#FF0000" fill="none" stroke-width="4px" />
<path d="M 2020.0 135.0 L 2010.0 135.0" stroke="#FF0000" fill="none" stroke-width="4px" />
<path d="M 2010.0 135.0 L 2000.0 135.0" stroke="#FF0000" fill="none" stroke-width="4px" />
<path d="M 2000.0 135.0 L 1990.0 135.0" stroke="#FF0000" fill="none" stroke-width="4px" />
<path d="M 1990.0 135.0 L 1980.0 135.0" stroke="#FF0000" fill="none" stroke-width="4px" />
<path d="M 1980.0 115.0 L 1990.0 115.0" stroke="#FF0000" fill="none" stroke-width="4px" />
<path d="M 1990.0 115.0 L 2000.0 115.0" stroke="#FF0000" fill="none" stroke-width="4px" />
<path d="M 2000.0 115.0 L 2010.0 115.0" stroke="#FF0000" fill="none" stroke-width="4px" />
<path d="M 2010.0 115.0 L 2020.0 115.0" stroke="#FF0000" fill="none" stroke-width="4px" />
<path d="M 2020.0 115.0 L 2030.0 115.0" stroke="#FF0000" fill="none" stroke-width="4px" />
<path d="M 2030.0 115.0 L 2020.0 105.0" stroke="#FF0000" fill="none" stroke-width="4px" />
<path d="M 2020.0 105.0 L 2010.0 105.0" stroke="#FF0000" fill="none" stroke-width="4px" />
<path d="M 2010.0 105.0 L 2000.0 105.0" stroke="#FF0000" fill="none" stroke-width="4px" />
<path d="M 2000.0 105.0 L 1990.0 105.0" stroke="#FF0000" fill="none" stroke-width="4px" />
<path d="M 1990.0 175.0 L 1980.0 175.0" stroke="#FF0000" fill="none" stroke-width="4px" />
<path d="M 1980.0 175.0 L 1970.0 175.0" stroke="#FF0000" fill="none" stroke-width="4px" />
<path d="M 1970.0 175.0 L 1960.0 175.0" stroke="#FF0000" fill="none" stroke-width="4px" />
<path d="M 1960.0 175.0 L 1970.0 185.0" stroke="#FF0000" fill="none" stroke-width="4px" />
<path d="M 1970.0 185.0 L 1980.0 185.0" stroke="#FF0000" fill="none" stroke-width="4px" />
</svg>