<svg width="2894.54166667" height="235.0" xmlns="http://www.w3.org/2000/svg" version="1.1">
<path d="M 0.0 235.0 L 1775.0 235.0 L 1775.0 0.0 L 0.0 0.0 L 0.0 235.0" stroke="#000000" fill="none" stroke-width="3px" />
<path d="M 2894.54166667 235.0 L 1675.0 235.0 L 1675.0 0.0 L 2894.54166667 0.0 L 2894.54166667 235.0" stroke="#000000" fill="none" stroke-width="3px" />
<path d="M 10.0 257.5 L 0.0 247.5 L 10.0 237.5" stroke="#969696" fill="none" stroke-width="1px" />
<path d="M 10.0 237.5 L 1765.0 237.5" stroke="#969696" fill="none" stroke-width="1px" />
<path d="M 1765.0 237.5 L 1775.0 227.5 L 1765.0 217.5" stroke="#969696" fill="none" stroke-width="1px" />
<path d="M 1765.0 217.5 L 10.0 217.5" stroke="#969696" fill="none" stroke-width="1px" />
<path d="M 10.0 217.5 L 0.0 207.5 L 10.0 197.5" stroke="#969696" fill="none" stroke-width="1px" />
<path d="M 10.0 197.5 L 1765.0 197.5" stroke="#969696" fill="none" stroke-width="1px" />
<path d="M 1765.0 197.5 L 1775.0 187.5 L 1765.0 177.5" stroke="#969696" fill="none" stroke-width="1px" />
<path d="M 1765.0 177.5 L 10.0 177.5" stroke="#969696" fill="none" stroke-width="1px" />
<path d="M 10.0 177.5 L 0.0 167.5 L 10.0 157.5" stroke="#969696" fill="none" stroke-width="1px" />
<path d="M 10.0 157.5 L 1765.0 157.5" stroke="#969696" fill="none" stroke-width="1px" />
<path d="M 1765.0 157.5 L 1775.0 147.5 L 1765.0 137.5" stroke="#969696" fill="none" stroke-width="1px" />
<path d="M 1765.0 137.5 L 10.0 137.5" stroke="#969696" fill="none" stroke-width="1px" />
<path d="M 10.0 137.5 L 0.0 127.5 L 10.0 117.5" stroke="#969696" fill="none" stroke-width="1px" />
<path d="M 10.0 117.5 L 1765.0 117.5" stroke="#969696" fill="none" stroke-width="1px" />
<path d="M 1765.0 117.5 L 1775.0 107.5 L 1765.0 97.5" stroke="#969696" fill="none" stroke-width="1px" />
<path d="M 1765.0 97.5 L 10.0 97.5" stroke="#969696" fill="none" stroke-width="1px" />
<path d="M 10.0 97.5 L 0.0 87.5 L 10.0 77.5" stroke="#969696" fill="none" stroke-width="1px" />
<path d="M 10.0 77.5 L 1765.0 77.5" stroke="#969696" fill="none" stroke-width="1px" />
<path d="M 1765.0 77.5 L 1775.0 67.5 L 1765.0 57.5" stroke="#969696" fill="none" stroke-width="1px" />
<path d="M 1765.0 57.5 L 10.0 57.5" stroke="#969696" fill="none" stroke-width="1px" />
<path d="M 10.0 57.5 L 0.0 47.5 L 10.0 37.5" stroke="#969696" fill="none" stroke-width="1px" />
<path d="M 10.0 37.5 L 1765.0 37.5" stroke="#969696" fill="none" stroke-width="1px" />
<path d="M 1765.0 37.5 L 1775.0 27.5 L 1765.0 17.5" stroke="#969696" fill="none" stroke-width="1px" />
<path d="M 1765.0 17.5 L 10.0 17.5" stroke="#969696" fill="none" stroke-width="1px" />
<path d="M 10.0 17.5 L 0.0 7.5 L 10.0 -2.5" stroke="#969696" fill="none" stroke-width="1px" />
<path d="M 10.0 -2.5 L 1765.0 -2.5" stroke="#969696" fill="none" stroke-width="1px" />
<path d="M 1765.0 -2.5 L 1775.0 -12.5 L 1765.0 -22.5" stroke="#969696" fill="none" stroke-width="1px" />
<path d="M 2884.54166667 257.5 L 2894.54166667 247.5 L 2884.54166667 237.5" stroke="#969696" fill="none" stroke-width="1px" />
<path d="M 2884.54166667 237.5 L 1685.0 237.5" stroke="#969696" fill="none" stroke-width="1px" />
<path d="M 1685.0 237.5 L 1675.0 227.5 L 1685.0 217.5" stroke="#969696" fill="none" stroke-width="1px" />
<path d="M 1685.0 217.5 L 2884.54166667 217.5" stroke="#969696" fill="none" stroke-width="1px" />
<path d="M 2884.54166667 217.5 L 2894.54166667 207.5 L 2884.54166667 197.5" stroke="#969696" fill="none" stroke-width="1px" />
<path d="M 2884.54166667 197.5 L 1685.0 197.5" stroke="#969696" fill="none" stroke-width="1px" />
<path d="M 1685.0 197.5 L 1675.0 187.5 L 1685.0 177.5" stroke="#969696" fill="none" stroke-width="1px" />
<path d="M 1685.0 177.5 L 2884.54166667 177.5" stroke="#969696" fill="none" stroke-width="1px" />
<path d="M 2884.54166667 177.5 L 2894.54166667 167.5 L 2884.54166667 157.5" stroke="#969696" fill="none" stroke-width="1px" />
<path d="M 2884.54166667 157.5 L 1685.0 157.5" stroke="#969696" fill="none" stroke-width="1px" />
<path d="M 1685.0 157.5 L 1675.0 147.5 L 1685.0 137.5" stroke="#969696" fill="none" stroke-width="1px" />
<path d="M 1685.0 137.5 L 2884.54166667 137.5" stroke="#969696" fill="none" stroke-width="1px" />
<path d="M 2884.54166667 137.5 L 2894.54166667 127.5 L 2884.54166667 117.5" stroke="#969696" fill="none" stroke-width="1px" />
<path d="M 2884.54166667 117.5 L 1685.0 117.5" stroke="#969696" fill="none" stroke-width="1px" />
<path d="M 1685.0 117.5 L 1675.0 107.5 L 1685.0 97.5" stroke="#969696" fill="none" stroke-width="1px" />
<path d="M 1685.0 97.5 L 2884.54166667 97.5" stroke="#969696" fill="none" stroke-width="1px" />
<path d="M 2884.54166667 97.5 L 2894.54166667 87.5 L 2884.54166667 77.5" stroke="#969696" fill="none" stroke-width="1px" />
<path d="M 2884.54166667 77.5 L 1685.0 77.5" stroke="#969696" fill="none" stroke-width="1px" />
<path d="M 1685.0 77.5 L 1675.0 67.5 L 1685.0 57.5" stroke="#969696" fill="none" stroke-width="1px" />
<path d="M 1685.0 57.5 L 2884.54166667 57.5" stroke="#969696" fill="none" stroke-width="1px" />
<path d="M 2884.54166667 57.5 L 2894.54166667 47.5 L 2884.54166667 37.5" stroke="#969696" fill="none" stroke-width="1px" />
<path d="M 2884.54166667 37.5 L 1685.0 37.5" stroke="#969696" fill="none" stroke-width="1px" />
<path d="M 1685.0 37.5 L 1675.0 27.5 L 1685.0 17.5" stroke="#969696" fill="none" stroke-width="1px" />
<path d="M 1685.0 17.5 L 2884.54166667 17.5" stroke="#969696" fill="none" stroke-width="1px" />
<path d="M 2884.54166667 17.5 L 2894.54166667 7.5 L 2884.54166667 -2.5" stroke="#969696" fill="none" stroke-width="1px" />
<path d="M 2884.54166667 -2.5 L 1685.0 -2.5" stroke="#969696" fill="none" stroke-width="1px" />
<path d="M 1685.0 -2.5 L 1675.0 -12.5 L 1685.0 -22.5" stroke="#969696" fill="none" stroke-width="1px" />
<path d="M 0.0 235.0 L 340.0 235.0" stroke="#0095FF" fill="none" stroke-width="2px" />
<path d="M 340.0 235.0 L 340.0 105.0" stroke="#0095FF" fill="none" stroke-width="2px" />
<path d="M 390.0 95.0 L 370.0 95.0" stroke="#0095FF" fill="none" stroke-width="2px" />
<path d="M 370.0 95.0 L 370.0 115.0" stroke="#0095FF" fill="none" stroke-width="2px" />
<path d="M 370.0 115.0 L 370.0 55.0" stroke="#0095FF" fill="none" stroke-width="2px" />
<path d="M 340.0 55.0 L 870.0 55.0" stroke="#0095FF" fill="none" stroke-width="2px" />
<path d="M 870.0 55.0 L 870.0 75.0" stroke="#0095FF" fill="none" stroke-width="2px" />
<path d="M 880.0 105.0 L 880.0 65.0" stroke="#0095FF" fill="none" stroke-width="2px" />
<path d="M 890.0 65.0 L 1320.0 65.0" stroke="#0095FF" fill="none" stroke-width="2px" />
<path d="M 1320.0 65.0 L 1320.0 105.0" stroke="#0095FF" fill="none" stroke-width="2px" />
<path d="M 1340.0 125.0 L 1340.0 95.0" stroke="#0095FF" fill="none" stroke-width="2px" />
<path d="M 2894.54166667 235.0 L 2020.0 235.0" stroke="#0095FF" fill="none" stroke-width="2px" />
<path d="M 2020.0 235.0 L 2020.0 115.0" stroke="#0095FF" fill="none" stroke-width="2px" />
<path d="M 2000.0 95.0 L 2000.0 125.0" stroke="#0095FF" fill="none" stroke-width="2px" />
<path d="M 340.0 105.0 L 350.0 105.0" stroke="#FF0000" fill="none" stroke-width="4px" />
<path d="M 350.0 105.0 L 360.0 105.0" stroke="#FF0000" fill="none" stroke-width="4px" />
<path d="M 360.0 105.0 L 370.0 105.0" stroke="#FF0000" fill="none" stroke-width="4px" />
<path d="M 370.0 105.0 L 380.0 105.0" stroke="#FF0000" fill="none" stroke-width="4px" />
<path d="M 380.0 105.0 L 380.0 95.0" stroke="#FF0000" fill="none" stroke-width="4px" />
<path d="M 380.0 95.0 L 370.0 95.0" stroke="#FF0000" fill="none" stroke-width="4px" />
<path d="M 370.0 95.0 L 360.0 95.0" stroke="#FF0000" fill="none" stroke-width="4px" />
<path d="M 360.0 95.0 L 350.0 95.0" stroke="#FF0000" fill="none" stroke-width="4px" />
<path d="M 350.0 95.0 L 340.0 95.0" stroke="#FF0000" fill="none" stroke-width="4px" />
<path d="M 340.0 95.0 L 340.0 85.0" stroke="#FF0000" fill="none" stroke-width="4px" />
<path d="M 340.0 85.0 L 330.0 85.0" stroke="#FF0000" fill="none" stroke-width="4px" />
<path d="M 330.0 85.0 L 330.0 75.0" stroke="#FF0000" fill="none" stroke-width="4px" />
<path d="M 330.0 75.0 L 320.0 75.0" stroke="#FF0000" fill="none" stroke-width="4px" />
<path d="M 320.0 75.0 L 330.0 65.0" stroke="#FF0000" fill="none" stroke-width="4px" />
<path d="M 330.0 65.0 L 340.0 65.0" stroke="#FF0000" fill="none" stroke-width="4px" />
<path d="M 340.0 65.0 L 350.0 65.0" stroke="#FF0000" fill="none" stroke-width="4px" />
<path d="M 350.0 65.0 L 360.0 65.0" stroke="#FF0000" fill="none" stroke-width="4px" />
<path d="M 360.0 65.0 L 370.0 65.0" stroke="#FF0000" fill="none" stroke-width="4px" />
<path d="M 370.0 65.0 L 380.0 65.0" stroke="#FF0000" fill="none" stroke-width="4px" />
<path d="M 380.0 65.0 L 380.0 75.0" stroke="#FF0000" fill="none" stroke-width="4px" />
<path d="M 380.0 75.0 L 370.0 75.0" stroke="#FF0000" fill="none" stroke-width="4px" />
<path d="M 370.0 75.0 L 360.0 75.0" stroke="#FF0000" fill="none" stroke-width="4px" />
<path d="M 360.0 75.0 L 350.0 75.0" stroke="#FF0000" fill="none" stroke-width="4px" />
<path d="M 350.0 75.0 L 340.0 75.0" stroke="#FF0000" fill="none" stroke-width="4px" />
<path d="M 340.0 75.0 L 350.0 85.0" stroke="#FF0000" fill="none" stroke-width="4px" />
<path d="M 350.0 85.0 L 360.0 85.0" stroke="#FF0000" fill="none" stroke-width="4px" />
<path d="M 360.0 85.0 L 370.0 85.0" stroke="#FF0000" fill="none" stroke-width="4px" />
<path d="M 370.0 85.0 L 380.0 85.0" stroke="#FF0000" fill="none" stroke-width="4px" />
<path d="M 380.0 85.0 L 390.0 95.0" stroke="#FF0000" fill="none" stroke-width="4px" />
<path d="M 370.0 55.0 L 360.0 55.0" stroke="#FF0000" fill="none" stroke-width="4px" />
<path d="M 360.0 55.0 L 350.0 55.0" stroke="#FF0000" fill="none" stroke-width="4px" />
<path d="M 350.0 55.0 L 340.0 55.0" stroke="#FF0000" fill="none" stroke-width="4px" />
<path d="M 870.0 75.0 L 880.0 75.0" stroke="#FF0000" fill="none" stroke-width="4px" />
<path d="M 880.0 75.0 L 890.0 75.0" stroke="#FF0000" fill="none" stroke-width="4px" />
<path d="M 890.0 75.0 L 900.0 75.0" stroke="#FF0000" fill="none" stroke-width="4px" />
<path d="M 900.0 75.0 L 900.0 85.0" stroke="#FF0000" fill="none" stroke-width="4px" />
<path d="M 900.0 85.0 L 890.0 85.0" stroke="#FF0000" fill="none" stroke-width="4px" />
<path d="M 890.0 85.0 L 880.0 85.0" stroke="#FF0000" fill="none" stroke-width="4px" />
<path d="M 880.0 85.0 L 870.0 85.0" stroke="#FF0000" fill="none" stroke-width="4px" />
<path d="M 870.0 85.0 L 870.0 95.0" stroke="#FF0000" fill="none" stroke-width="4px" />
<path d="M 870.0 95.0 L 880.0 95.0" stroke="#FF0000" fill="none" stroke-width="4px" />
<path d="M 880.0 95.0 L 890.0 95.0" stroke="#FF0000" fill="none" stroke-width="4px" />
<path d="M 890.0 95.0 L 900.0 95.0" stroke="#FF0000" fill="none" stroke-width="4px" />
<path d="M 900.0 95.0 L 890.0 105.0" stroke="#FF0000" fill="none" stroke-width="4px" />
<path d="M 890.0 105.0 L 880.0 105.0" stroke="#FF0000" fill="none" stroke-width="4px" />
<path d="M 880.0 65.0 L 890.0 65.0" stroke="#FF0000" fill="none" stroke-width="4px" />
<path d="M 1320.0 105.0 L 1330.0 105.0" stroke="#FF0000" fill="none" stroke-width="4px" />
<path d="M 1330.0 105.0 L 1340.0 105.0" stroke="#FF0000" fill="none" stroke-width="4px" />
<path d="M 1340.0 105.0 L 1350.0 105.0" stroke="#FF0000" fill="none" stroke-width="4px" />
<path d="M 1350.0 105.0 L 1360.0 105.0" stroke="#FF0000" fill="none" stroke-width="4px" />
<path d="M 1360.0 105.0 L 1350.0 115.0" stroke="#FF0000" fill="none" stroke-width="4px" />
<path d="M 1350.0 115.0 L 1340.0 115.0" stroke="#FF0000" fill="none" stroke-width="4px" />
<path d="M 1340.0 115.0 L 1330.0 115.0" stroke="#FF0000" fill="none" stroke-width="4px" />
<path d="M 1330.0 115.0 L 1340.0 125.0" stroke="#FF0000" fill="none" stroke-width="4px" />
<path d="M 1340.0 95.0 L 1330.0 95.0" stroke="#FF0000" fill="none" stroke-width="4px" />
<path d="M 1330.0 95.0 L 1340.0 85.0" stroke="#FF0000" fill="none" stroke-width="4px" />
<path d="M 1340.0 85.0 L 1350.0 95.0" stroke="#FF0000" fill="none" stroke-width="4px" />
<path d="M 2020.0 115.0 L 2010.0 115.0" stroke="#FF0000" fill="none" stroke-width="4px" />
<path d="M 2010.0 115.0 L 2000.0 115.0" stroke="#FF0000" fill="none" stroke-width="4px" />
<path d="M 2000.0 115.0 L 1990.0 115.0" stroke="#FF0000" fill="none" stroke-width="4px" />
<path d="M 1990.0 115.0 L 1990.0 105.0" stroke="#FF0000" fill="none" stroke-width="4px" />
<path d="M 1990.0 105.0 L 2000.0 105.0" stroke="#FF0000" fill="none" stroke-width="4px" />
<path d="M 2000.0 105.0 L 2010.0 105.0" stroke="#FF0000" fill="none" stroke-width="4px" />
<path d="M 2010.0 105.0 L 2020.0 105.0" stroke="#FF0000" fill="none" stroke-width="4px" />
<path d="M 2020.0 105.0 L 2010.0 95.0" stroke="#FF0000" fill="none" stroke-width="4px" />
<path d="M 2010.0 95.0 L 2000.0 95.0" stroke="#FF0000" fill="none" stroke-width="4px" />
<path d="M 2000.0 125.0 L 2010.0 125.0" stroke="#FF0000" fill="none" stroke-width="4px" />
</svg>