<svg width="1755.23333333" height="235.0" xmlns="http://www.w3.org/2000/svg" version="1.1">
<path d="M 0.0 235.0 L 1755.23333333 235.0 L 1755.23333333 0.0 L 0.0 0.0 L 0.0 235.0" stroke="#000000" fill="none" stroke-width="3px" />
<path d="M 10.0 257.5 L 0.0 247.5 L 10.0 237.5" stroke="#969696" fill="none" stroke-width="1px" />
<path d="M 10.0 237.5 L 1745.23333333 237.5" stroke="#969696" fill="none" stroke-width="1px" />
<path d="M 1745.23333333 237.5 L 1755.23333333 227.5 L 1745.23333333 217.5" stroke="#969696" fill="none" stroke-width="1px" />
<path d="M 1745.23333333 217.5 L 10.0 217.5" stroke="#969696" fill="none" stroke-width="1px" />
<path d="M 10.0 217.5 L 0.0 207.5 L 10.0 197.5" stroke="#969696" fill="none" stroke-width="1px" />
<path d="M 10.0 197.5 L 1745.23333333 197.5" stroke="#969696" fill="none" stroke-width="1px" />
<path d="M 1745.23333333 197.5 L 1755.23333333 187.5 L 1745.23333333 177.5" stroke="#969696" fill="none" stroke-width="1px" />
<path d="M 1745.23333333 177.5 L 10.0 177.5" stroke="#969696" fill="none" stroke-width="1px" />
<path d="M 10.0 177.5 L 0.0 167.5 L 10.0 157.5" stroke="#969696" fill="none" stroke-width="1px" />
<path d="M 10.0 157.5 L 1745.23333333 157.5" stroke="#969696" fill="none" stroke-width="1px" />
<path d="M 1745.23333333 157.5 L 1755.23333333 147.5 L 1745.23333333 137.5" stroke="#969696" fill="none" stroke-width="1px" />
<path d="M 1745.23333333 137.5 L 10.0 137.5" stroke="#969696" fill="none" stroke-width="1px" />
<path d="M 10.0 137.5 L 0.0 127.5 L 10.0 117.5" stroke="#969696" fill="none" stroke-width="1px" />
<path d="M 10.0 117.5 L 1745.23333333 117.5" stroke="#969696" fill="none" stroke-width="1px" />
<path d="M 1745.23333333 117.5 L 1755.23333333 107.5 L 1745.23333333 97.5" stroke="#969696" fill="none" stroke-width="1px" />
<path d="M 1745.23333333 97.5 L 10.0 97.5" stroke="#969696" fill="none" stroke-width="1px" />
<path d="M 10.0 97.5 L 0.0 87.5 L 10.0 77.5" stroke="#969696" fill="none" stroke-width="1px" />
<path d="M 10.0 77.5 L 1745.23333333 77.5" stroke="#969696" fill="none" stroke-width="1px" />
<path d="M 1745.23333333 77.5 L 1755.23333333 67.5 L 1745.23333333 57.5" stroke="#969696" fill="none" stroke-width="1px" />
<path d="M 1745.23333333 57.5 L 10.0 57.5" stroke="#969696" fill="none" stroke-width="1px" />
<path d="M 10.0 57.5 L 0.0 47.5 L 10.0 37.5" stroke="#969696" fill="none" stroke-width="1px" />
<path d="M 10.0 37.5 L 1745.23333333 37.5" stroke="#969696" fill="none" stroke-width="1px" />
<path d="M 1745.23333333 37.5 L 1755.23333333 27.5 L 1745.23333333 17.5" stroke="#969696" fill="none" stroke-width="1px" />
<path d="M 1745.23333333 17.5 L 10.0 17.5" stroke="#969696" fill="none" stroke-width="1px" />
<path d="M 10.0 17.5 L 0.0 7.5 L 10.0 -2.5" stroke="#969696" fill="none" stroke-width="1px" />
<path d="M 10.0 -2.5 L 1745.23333333 -2.5" stroke="#969696" fill="none" stroke-width="1px" />
<path d="M 1745.23333333 -2.5 L 1755.23333333 -12.5 L 1745.23333333 -22.5" stroke="#969696" fill="none" stroke-width="1px" />
<path d="M 0.0 235.0 L 250.0 85.0" stroke="#0095FF" fill="none" stroke-width="2px" />
<path d="M 250.0 65.0 L 270.0 75.0" stroke="#0095FF" fill="none" stroke-width="2px" />
<path d="M 280.0 65.0 L 260.0 45.0" stroke="#0095FF" fill="none" stroke-width="2px" />
<path d="M 250.0 45.0 L 360.0 95.0" stroke="#0095FF" fill="none" stroke-width="2px" />
<path d="M 380.0 115.0 L 380.0 85.0" stroke="#0095FF" fill="none" stroke-width="2px" />
<path d="M 370.0 85.0 L 540.0 85.0" stroke="#0095FF" fill="none" stroke-width="2px" />
<path d="M 560.0 135.0 L 590.0 95.0" stroke="#0095FF" fill="none" stroke-width="2px" />
<path d="M 590.0 95.0 L 570.0 75.0" stroke="#0095FF" fill="none" stroke-width="2px" />
<path d="M 550.0 75.0 L 660.0 105.0" stroke="#0095FF" fill="none" stroke-width="2px" />
<path d="M 680.0 135.0 L 700.0 145.0" stroke="#0095FF" fill="none" stroke-width="2px" />
<path d="M 710.0 145.0 L 710.0 95.0" stroke="#0095FF" fill="none" stroke-width="2px" />
<path d="M 720.0 95.0 L 720.0 75.0" stroke="#0095FF" fill="none" stroke-width="2px" />
<path d="M 710.0 65.0 L 990.0 145.0" stroke="#0095FF" fill="none" stroke-width="2px" />
<path d="M 1040.0 185.0 L 1040.0 135.0" stroke="#0095FF" fill="none" stroke-width="2px" />
<path d="M 1050.0 135.0 L 1020.0 115.0" stroke="#0095FF" fill="none" stroke-width="2px" />
<path d="M 1020.0 115.0 L 1590.0 65.0" stroke="#0095FF" fill="none" stroke-width="2px" />
<path d="M 1610.0 35.0 L 1610.0 75.0" stroke="#0095FF" fill="none" stroke-width="2px" />
<path d="M 1640.0 75.0 L 1620.0 95.0" stroke="#0095FF" fill="none" stroke-width="2px" />
<path d="M 250.0 85.0 L 260.0 85.0" stroke="#FF0000" fill="none" stroke-width="4px" />
<path d="M 260.0 85.0 L 260.0 75.0" stroke="#FF0000" fill="none" stroke-width="4px" />
<path d="M 260.0 75.0 L 250.0 75.0" stroke="#FF0000" fill="none" stroke-width="4px" />
<path d="M 250.0 75.0 L 240.0 75.0" stroke="#FF0000" fill="none" stroke-width="4px" />
<path d="M 240.0 75.0 L 240.0 65.0" stroke="#FF0000" fill="none" stroke-width="4px" />
<path d="M 240.0 65.0 L 230.0 65.0" stroke="#FF0000" fill="none" stroke-width="4px" />
<path d="M 230.0 65.0 L 240.0 55.0" stroke="#FF0000" fill="none" stroke-width="4px" />
<path d="M 240.0 55.0 L 250.0 55.0" stroke="#FF0000" fill="none" stroke-width="4px" />
<path d="M 250.0 55.0 L 260.0 55.0" stroke="#FF0000" fill="none" stroke-width="4px" />
<path d="M 260.0 55.0 L 270.0 55.0" stroke="#FF0000" fill="none" stroke-width="4px" />
<path d="M 270.0 55.0 L 270.0 65.0" stroke="#FF0000" fill="none" stroke-width="4px" />
<path d="M 270.0 65.0 L 260.0 65.0" stroke="#FF0000" fill="none" stroke-width="4px" />
<path d="M 260.0 65.0 L 250.0 65.0" stroke="#FF0000" fill="none" stroke-width="4px" />
<path d="M 270.0 75.0 L 280.0 65.0" stroke="#FF0000" fill="none" stroke-width="4px" />
<path d="M 260.0 45.0 L 250.0 45.0" stroke="#FF0000" fill="none" stroke-width="4px" />
<path d="M 360.0 95.0 L 370.0 95.0" stroke="#FF0000" fill="none" stroke-width="4px" />
<path d="M 370.0 95.0 L 380.0 95.0" stroke="#FF0000" fill="none" stroke-width="4px" />
<path d="M 380.0 95.0 L 390.0 95.0" stroke="#FF0000" fill="none" stroke-width="4px" />
<path d="M 390.0 95.0 L 390.0 105.0" stroke="#FF0000" fill="none" stroke-width="4px" />
<path d="M 390.0 105.0 L 380.0 105.0" stroke="#FF0000" fill="none" stroke-width="4px" />
<path d="M 380.0 105.0 L 370.0 105.0" stroke="#FF0000" fill="none" stroke-width="4px" />
<path d="M 370.0 105.0 L 360.0 105.0" stroke="#FF0000" fill="none" stroke-width="4px" />
<path d="M 360.0 105.0 L 370.0 115.0" stroke="#FF0000" fill="none" stroke-width="4px" />
<path d="M 370.0 115.0 L 380.0 115.0" stroke="#FF0000" fill="none" stroke-width="4px" />
<path d="M 380.0 85.0 L 370.0 85.0" stroke="#FF0000" fill="none" stroke-width="4px" />
<path d="M 540.0 85.0 L 550.0 85.0" stroke="#FF0000" fill="none" stroke-width="4px" />
<path d="M 550.0 85.0 L 560.0 85.0" stroke="#FF0000" fill="none" stroke-width="4px" />
<path d="M 560.0 85.0 L 570.0 85.0" stroke="#FF0000" fill="none" stroke-width="4px" />
<path d="M 570.0 85.0 L 580.0 85.0" stroke="#FF0000" fill="none" stroke-width="4px" />
<path d="M 580.0 85.0 L 580.0 95.0" stroke="#FF0000" fill="none" stroke-width="4px" />
<path d="M 580.0 95.0 L 570.0 95.0" stroke="#FF0000" fill="none" stroke-width="4px" />
<path d="M 570.0 95.0 L 560.0 95.0" stroke="#FF0000" fill="none" stroke-width="4px" />
<path d="M 560.0 95.0 L 550.0 95.0" stroke="#FF0000" fill="none" stroke-width="4px" />
<path d="M 550.0 95.0 L 540.0 95.0" stroke="#FF0000" fill="none" stroke-width="4px" />
<path d="M 540.0 95.0 L 540.0 105.0" stroke="#FF0000" fill="none" stroke-width="4px" />
<path d="M 540.0 105.0 L 550.0 105.0" stroke="#FF0000" fill="none" stroke-width="4px" />
<path d="M 550.0 105.0 L 560.0 105.0" stroke="#FF0000" fill="none" stroke-width="4px" />
<path d="M 560.0 105.0 L 570.0 105.0" stroke="#FF0000" fill="none" stroke-width="4px" />
<path d="M 570.0 105.0 L 580.0 105.0" stroke="#FF0000" fill="none" stroke-width="4px" />
<path d="M 580.0 105.0 L 590.0 105.0" stroke="#FF0000" fill="none" stroke-width="4px" />
<path d="M 590.0 105.0 L 600.0 105.0" stroke="#FF0000" fill="none" stroke-width="4px" />
<path d="M 600.0 105.0 L 590.0 115.0" stroke="#FF0000" fill="none" stroke-width="4px" />
<path d="M 590.0 115.0 L 580.0 115.0" stroke="#FF0000" fill="none" stroke-width="4px" />
<path d="M 580.0 115.0 L 570.0 115.0" stroke="#FF0000" fill="none" stroke-width="4px" />
<path d="M 570.0 115.0 L 560.0 115.0" stroke="#FF0000" fill="none" stroke-width="4px" />
<path d="M 560.0 115.0 L 550.0 115.0" stroke="#FF0000" fill="none" stroke-width="4px" />
<path d="M 550.0 115.0 L 540.0 115.0" stroke="#FF0000" fill="none" stroke-width="4px" />
<path d="M 540.0 115.0 L 550.0 125.0" stroke="#FF0000" fill="none" stroke-width="4px" />
<path d="M 550.0 125.0 L 560.0 125.0" stroke="#FF0000" fill="none" stroke-width="4px" />
<path d="M 560.0 125.0 L 570.0 125.0" stroke="#FF0000" fill="none" stroke-width="4px" />
<path d="M 570.0 125.0 L 580.0 125.0" stroke="#FF0000" fill="none" stroke-width="4px" />
<path d="M 580.0 125.0 L 570.0 135.0" stroke="#FF0000" fill="none" stroke-width="4px" />
<path d="M 570.0 135.0 L 560.0 135.0" stroke="#FF0000" fill="none" stroke-width="4px" />
<path d="M 570.0 75.0 L 560.0 75.0" stroke="#FF0000" fill="none" stroke-width="4px" />
<path d="M 560.0 75.0 L 550.0 75.0" stroke="#FF0000" fill="none" stroke-width="4px" />
<path d="M 660.0 105.0 L 670.0 105.0" stroke="#FF0000" fill="none" stroke-width="4px" />
<path d="M 670.0 105.0 L 680.0 105.0" stroke="#FF0000" fill="none" stroke-width="4px" />
<path d="M 680.0 105.0 L 690.0 105.0" stroke="#FF0000" fill="none" stroke-width="4px" />
<path d="M 690.0 105.0 L 700.0 105.0" stroke="#FF0000" fill="none" stroke-width="4px" />
<path d="M 700.0 105.0 L 710.0 105.0" stroke="#FF0000" fill="none" stroke-width="4px" />
<path d="M 710.0 105.0 L 720.0 105.0" stroke="#FF0000" fill="none" stroke-width="4px" />
<path d="M 720.0 105.0 L 730.0 105.0" stroke="#FF0000" fill="none" stroke-width="4px" />
<path d="M 730.0 105.0 L 730.0 115.0" stroke="#FF0000" fill="none" stroke-width="4px" />
<path d="M 730.0 115.0 L 720.0 115.0" stroke="#FF0000" fill="none" stroke-width="4px" />
<path d="M 720.0 115.0 L 710.0 115.0" stroke="#FF0000" fill="none" stroke-width="4px" />
<path d="M 710.0 115.0 L 700.0 115.0" stroke="#FF0000" fill="none" stroke-width="4px" />
<path d="M 700.0 115.0 L 690.0 115.0" stroke="#FF0000" fill="none" stroke-width="4px" />
<path d="M 690.0 115.0 L 680.0 115.0" stroke="#FF0000" fill="none" stroke-width="4px" />
<path d="M 680.0 115.0 L 670.0 115.0" stroke="#FF0000" fill="none" stroke-width="4px" />
<path d="M 670.0 115.0 L 670.0 125.0" stroke="#FF0000" fill="none" stroke-width="4px" />
<path d="M 670.0 125.0 L 680.0 125.0" stroke="#FF0000" fill="none" stroke-width="4px" />
<path d="M 680.0 125.0 L 690.0 125.0" stroke="#FF0000" fill="none" stroke-width="4px" />
<path d="M 690.0 125.0 L 700.0 125.0" stroke="#FF0000" fill="none" stroke-width="4px" />
<path d="M 700.0 125.0 L 710.0 125.0" stroke="#FF0000" fill="none" stroke-width="4px" />
<path d="M 710.0 125.0 L 720.0 125.0" stroke="#FF0000" fill="none" stroke-width="4px" />
<path d="M 720.0 125.0 L 730.0 125.0" stroke="#FF0000" fill="none" stroke-width="4px" />
<path d="M 730.0 125.0 L 720.0 135.0" stroke="#FF0000" fill="none" stroke-width="4px" />
<path d="M 720.0 135.0 L 710.0 135.0" stroke="#FF0000" fill="none" stroke-width="4px" />
<path d="M 710.0 135.0 L 700.0 135.0" stroke="#FF0000" fill="none" stroke-width="4px" />
<path d="M 700.0 135.0 L 690.0 135.0" stroke="#FF0000" fill="none" stroke-width="4px" />
<path d="M 690.0 135.0 L 680.0 135.0" stroke="#FF0000" fill="none" stroke-width="4px" />
<path d="M 700.0 145.0 L 710.0 145.0" stroke="#FF0000" fill="none" stroke-width="4px" />
<path d="M 710.0 95.0 L 700.0 95.0" stroke="#FF0000" fill="none" stroke-width="4px" />
<path d="M 700.0 95.0 L 690.0 95.0" stroke="#FF0000" fill="none" stroke-width="4px" />
<path d="M 690.0 95.0 L 680.0 95.0" stroke="#FF0000" fill="none" stroke-width="4px" />
<path d="M 680.0 95.0 L 670.0 95.0" stroke="#FF0000" fill="none" stroke-width="4px" />
<path d="M 670.0 95.0 L 680.0 85.0" stroke="#FF0000" fill="none" stroke-width="4px" />
<path d="M 680.0 85.0 L 690.0 85.0" stroke="#FF0000" fill="none" stroke-width="4px" />
<path d="M 690.0 85.0 L 700.0 85.0" stroke="#FF0000" fill="none" stroke-width="4px" />
<path d="M 700.0 85.0 L 710.0 85.0" stroke="#FF0000" fill="none" stroke-width="4px" />
<path d="M 710.0 85.0 L 720.0 85.0" stroke="#FF0000" fill="none" stroke-width="4px" />
<path d="M 720.0 85.0 L 730.0 85.0" stroke="#FF0000" fill="none" stroke-width="4px" />
<path d="M 730.0 85.0 L 730.0 95.0" stroke="#FF0000" fill="none" stroke-width="4px" />
<path d="M 730.0 95.0 L 720.0 95.0" stroke="#FF0000" fill="none" stroke-width="4px" />
<path d="M 720.0 75.0 L 710.0 75.0" stroke="#FF0000" fill="none" stroke-width="4px" />
<path d="M 710.0 75.0 L 700.0 75.0" stroke="#FF0000" fill="none" stroke-width="4px" />
<path d="M 700.0 75.0 L 690.0 75.0" stroke="#FF0000" fill="none" stroke-width="4px" />
<path d="M 690.0 75.0 L 700.0 65.0" stroke="#FF0000" fill="none" stroke-width="4px" />
<path d="M 700.0 65.0 L 710.0 65.0" stroke="#FF0000" fill="none" stroke-width="4px" />
<path d="M 990.0 145.0 L 1000.0 145.0" stroke="#FF0000" fill="none" stroke-width="4px" />
<path d="M 1000.0 145.0 L 1010.0 145.0" stroke="#FF0000" fill="none" stroke-width="4px" />
<path d="M 1010.0 145.0 L 1020.0 145.0" stroke="#FF0000" fill="none" stroke-width="4px" />
<path d="M 1020.0 145.0 L 1030.0 145.0" stroke="#FF0000" fill="none" stroke-width="4px" />
<path d="M 1030.0 145.0 L 1040.0 145.0" stroke="#FF0000" fill="none" stroke-width="4px" />
<path d="M 1040.0 145.0 L 1050.0 145.0" stroke="#FF0000" fill="none" stroke-width="4px" />
<path d="M 1050.0 145.0 L 1060.0 145.0" stroke="#FF0000" fill="none" stroke-width="4px" />
<path d="M 1060.0 145.0 L 1060.0 155.0" stroke="#FF0000" fill="none" stroke-width="4px" />
<path d="M 1060.0 155.0 L 1050.0 155.0" stroke="#FF0000" fill="none" stroke-width="4px" />
<path d="M 1050.0 155.0 L 1040.0 155.0" stroke="#FF0000" fill="none" stroke-width="4px" />
<path d="M 1040.0 155.0 L 1030.0 155.0" stroke="#FF0000" fill="none" stroke-width="4px" />
<path d="M 1030.0 155.0 L 1020.0 155.0" stroke="#FF0000" fill="none" stroke-width="4px" />
<path d="M 1020.0 155.0 L 1010.0 155.0" stroke="#FF0000" fill="none" stroke-width="4px" />
<path d="M 1010.0 155.0 L 1000.0 155.0" stroke="#FF0000" fill="none" stroke-width="4px" />
<path d="M 1000.0 155.0 L 1010.0 165.0" stroke="#FF0000" fill="none" stroke-width="4px" />
<path d="M 1010.0 165.0 L 1020.0 165.0" stroke="#FF0000" fill="none" stroke-width="4px" />
<path d="M 1020.0 165.0 L 1030.0 165.0" stroke="#FF0000" fill="none" stroke-width="4px" />
<path d="M 1030.0 165.0 L 1040.0 165.0" stroke="#FF0000" fill="none" stroke-width="4px" />
<path d="M 1040.0 165.0 L 1050.0 165.0" stroke="#FF0000" fill="none" stroke-width="4px" />
<path d="M 1050.0 165.0 L 1060.0 165.0" stroke="#FF0000" fill="none" stroke-width="4px" />
<path d="M 1060.0 165.0 L 1050.0 175.0" stroke="#FF0000" fill="none" stroke-width="4px" />
<path d="M 1050.0 175.0 L 1040.0 175.0" stroke="#FF0000" fill="none" stroke-width="4px" />
<path d="M 1040.0 175.0 L 1030.0 175.0" stroke="#FF0000" fill="none" stroke-width="4px" />
<path d="M 1030.0 175.0 L 1020.0 175.0" stroke="#FF0000" fill="none" stroke-width="4px" />
<path d="M 1020.0 175.0 L 1030.0 185.0" stroke="#FF0000" fill="none" stroke-width="4px" />
<path d="M 1030.0 185.0 L 1040.0 185.0" stroke="#FF0000" fill="none" stroke-width="4px" />
<path d="M 1040.0 135.0 L 1030.0 135.0" stroke="#FF0000" fill="none" stroke-width="4px" />
<path d="M 1030.0 135.0 L 1020.0 135.0" stroke="#FF0000" fill="none" stroke-width="4px" />
<path d="M 1020.0 135.0 L 1010.0 135.0" stroke="#FF0000" fill="none" stroke-width="4px" />
<path d="M 1010.0 135.0 L 1000.0 135.0" stroke="#FF0000" fill="none" stroke-width="4px" />
<path d="M 1000.0 135.0 L 1010.0 125.0" stroke="#FF0000" fill="none" stroke-width="4px" />
<path d="M 1010.0 125.0 L 1020.0 125.0" stroke="#FF0000" fill="none" stroke-width="4px" />
<path d="M 1020.0 125.0 L 1030.0 125.0" stroke="#FF0000" fill="none" stroke-width="4px" />
<path d="M 1030.0 125.0 L 1040.0 125.0" stroke="#FF0000" fill="none" stroke-width="4px" />
<path d="M 1040.0 125.0 L 1050.0 135.0" stroke="#FF0000" fill="none" stroke-width="4px" />
<path d="M 1590.0 65.0 L 1600.0 65.0" stroke="#FF0000" fill="none" stroke-width="4px" />
<path d="M 1600.0 65.0 L 1610.0 65.0" stroke="#FF0000" fill="none" stroke-width="4px" />
<path d="M 1610.0 65.0 L 1620.0 65.0" stroke="#FF0000" fill="none" stroke-width="4px" />
<path d="M 1620.0 65.0 L 1630.0 65.0" stroke="#FF0000" fill="none" stroke-width="4px" />
<path d="M 1630.0 65.0 L 1640.0 65.0" stroke="#FF0000" fill="none" stroke-width="4px" />
<path d="M 1640.0 65.0 L 1650.0 65.0" stroke="#FF0000" fill="none" stroke-width="4px" />
<path d="M 1650.0 65.0 L 1650.0 55.0" stroke="#FF0000" fill="none" stroke-width="4px" />
<path d="M 1650.0 55.0 L 1640.0 55.0" stroke="#FF0000" fill="none" stroke-width="4px" />
<path d="M 1640.0 55.0 L 1630.0 55.0" stroke="#FF0000" fill="none" stroke-width="4px" />
<path d="M 1630.0 55.0 L 1620.0 55.0" stroke="#FF0000" fill="none" stroke-width="4px" />
<path d="M 1620.0 55.0 L 1610.0 55.0" stroke="#FF0000" fill="none" stroke-width="4px" />
<path d="M 1610.0 55.0 L 1600.0 55.0" stroke="#FF0000" fill="none" stroke-width="4px" />
<path d="M 1600.0 55.0 L 1600.0 45.0" stroke="#FF0000" fill="none" stroke-width="4px" />
<path d="M 1600.0 45.0 L 1610.0 45.0" stroke="#FF0000" fill="none" stroke-width="4px" />
<path d="M 1610.0 45.0 L 1620.0 45.0" stroke="#FF0000" fill="none" stroke-width="4px" />
<path d="M 1620.0 45.0 L 1630.0 45.0" stroke="#FF0000" fill="none" stroke-width="4px" />
<path d="M 1630.0 45.0 L 1640.0 45.0" stroke="#FF0000" fill="none" stroke-width="4px" />
<path d="M 1640.0 45.0 L 1630.0 35.0" stroke="#FF0000" fill="none" stroke-width="4px" />
<path d="M 1630.0 35.0 L 1620.0 35.0" stroke="#FF0000" fill="none" stroke-width="4px" />
<path d="M 1620.0 35.0 L 1610.0 35.0" stroke="#FF0000" fill="none" stroke-width="4px" />
<path d="M 1610.0 75.0 L 1600.0 75.0" stroke="#FF0000" fill="none" stroke-width="4px" />
<path d="M 1600.0 75.0 L 1600.0 85.0" stroke="#FF0000" fill="none" stroke-width="4px" />
<path d="M 1600.0 85.0 L 1610.0 85.0" stroke="#FF0000" fill="none" stroke-width="4px" />
<path d="M 1610.0 85.0 L 1620.0 85.0" stroke="#FF0000" fill="none" stroke-width="4px" />
<path d="M 1620.0 85.0 L 1630.0 85.0" stroke="#FF0000" fill="none" stroke-width="4px" />
<path d="M 1630.0 85.0 L 1630.0 75.0" stroke="#FF0000" fill="none" stroke-width="4px" />
<path d="M 1630.0 75.0 L 1620.0 75.0" stroke="#FF0000" fill="none" stroke-width="4px" />
<path d="M 1620.0 75.0 L 1640.0 75.0" stroke="#FF0000" fill="none" stroke-width="4px" />
<path d="M 1620.0 95.0 L 1610.0 95.0" stroke="#FF0000" fill="none" stroke-width="4px" />
</svg>