<svg width="1332.95833333" height="235.0" xmlns="http://www.w3.org/2000/svg" version="1.1">
<path d="M 0.0 235.0 L 1332.95833333 235.0 L 1332.95833333 0.0 L 0.0 0.0 L 0.0 235.0" stroke="#000000" fill="none" stroke-width="3px" />
<path d="M 10.0 257.5 L 0.0 247.5 L 10.0 237.5" stroke="#969696" fill="none" stroke-width="1px" />
<path d="M 10.0 237.5 L 1322.95833333 237.5" stroke="#969696" fill="none" stroke-width="1px" />
<path d="M 1322.95833333 237.5 L 1332.95833333 227.5 L 1322.95833333 217.5" stroke="#969696" fill="none" stroke-width="1px" />
<path d="M 1322.95833333 217.5 L 10.0 217.5" stroke="#969696" fill="none" stroke-width="1px" />
<path d="M 10.0 217.5 L 0.0 207.5 L 10.0 197.5" stroke="#969696" fill="none" stroke-width="1px" />
<path d="M 10.0 197.5 L 1322.95833333 197.5" stroke="#969696" fill="none" stroke-width="1px" />
<path d="M 1322.95833333 197.5 L 1332.95833333 187.5 L 1322.95833333 177.5" stroke="#969696" fill="none" stroke-width="1px" />
<path d="M 1322.95833333 177.5 L 10.0 177.5" stroke="#969696" fill="none" stroke-width="1px" />
<path d="M 10.0 177.5 L 0.0 167.5 L 10.0 157.5" stroke="#969696" fill="none" stroke-width="1px" />
<path d="M 10.0 157.5 L 1322.95833333 157.5" stroke="#969696" fill="none" stroke-width="1px" />
<path d="M 1322.95833333 157.5 L 1332.95833333 147.5 L 1322.95833333 137.5" stroke="#969696" fill="none" stroke-width="1px" />
<path d="M 1322.95833333 137.5 L 10.0 137.5" stroke="#969696" fill="none" stroke-width="1px" />
<path d="M 10.0 137.5 L 0.0 127.5 L 10.0 117.5" stroke="#969696" fill="none" stroke-width="1px" />
<path d="M 10.0 117.5 L 1322.95833333 117.5" stroke="#969696" fill="none" stroke-width="1px" />
<path d="M 1322.95833333 117.5 L 1332.95833333 107.5 L 1322.95833333 97.5" stroke="#969696" fill="none" stroke-width="1px" />
<path d="M 1322.95833333 97.5 L 10.0 97.5" stroke="#969696" fill="none" stroke-width="1px" />
<path d="M 10.0 97.5 L 0.0 87.5 L 10.0 77.5" stroke="#969696" fill="none" stroke-width="1px" />
<path d="M 10.0 77.5 L 1322.95833333 77.5" stroke="#969696" fill="none" stroke-width="1px" />
<path d="M 1322.95833333 77.5 L 1332.95833333 67.5 L 1322.95833333 57.5" stroke="#969696" fill="none" stroke-width="1px" />
<path d="M 1322.95833333 57.5 L 10.0 57.5" stroke="#969696" fill="none" stroke-width="1px" />
<path d="M 10.0 57.5 L 0.0 47.5 L 10.0 37.5" stroke="#969696" fill="none" stroke-width="1px" />
<path d="M 10.0 37.5 L 1322.95833333 37.5" stroke="#969696" fill="none" stroke-width="1px" />
<path d="M 1322.95833333 37.5 L 1332.95833333 27.5 L 1322.95833333 17.5" stroke="#969696" fill="none" stroke-width="1px" />
<path d="M 1322.95833333 17.5 L 10.0 17.5" stroke="#969696" fill="none" stroke-width="1px" />
<path d="M 10.0 17.5 L 0.0 7.5 L 10.0 -2.5" stroke="#969696" fill="none" stroke-width="1px" />
<path d="M 10.0 -2.5 L 1322.95833333 -2.5" stroke="#969696" fill="none" stroke-width="1px" />
<path d="M 1322.95833333 -2.5 L 1332.95833333 -12.5 L 1322.95833333 -22.5" stroke="#969696" fill="none" stroke-width="1px" />
<path d="M 0.0 235.0 L 90.0 175.0" stroke="#0095FF" fill="none" stroke-width="2px" />
<path d="M 90.0 155.0 L 110.0 165.0" stroke="#0095FF" fill="none" stroke-width="2px" />
<path d="M 110.0 165.0 L 110.0 135.0" stroke="#0095FF" fill="none" stroke-width="2px" />
<path d="M 120.0 135.0 L 100.0 115.0" stroke="#0095FF" fill="none" stroke-width="2px" />
<path d="M 100.0 115.0 L 60.0 55.0" stroke="#0095FF" fill="none" stroke-width="2px" />
<path d="M 60.0 15.0 L 60.0 -5.0" stroke="#0095FF" fill="none" stroke-width="2px" />
<path d="M 100.0 -5.0 L 110.0 15.0" stroke="#0095FF" fill="none" stroke-width="2px" />
<path d="M 100.0 25.0 L 80.0 45.0" stroke="#0095FF" fill="none" stroke-width="2px" />
<path d="M 70.0 45.0 L 310.0 115.0" stroke="#0095FF" fill="none" stroke-width="2px" />
<path d="M 330.0 145.0 L 330.0 105.0" stroke="#0095FF" fill="none" stroke-width="2px" />
<path d="M 350.0 105.0 L 550.0 105.0" stroke="#0095FF" fill="none" stroke-width="2px" />
<path d="M 570.0 135.0 L 570.0 95.0" stroke="#0095FF" fill="none" stroke-width="2px" />
<path d="M 600.0 95.0 L 580.0 75.0" stroke="#0095FF" fill="none" stroke-width="2px" />
<path d="M 570.0 75.0 L 550.0 35.0" stroke="#0095FF" fill="none" stroke-width="2px" />
<path d="M 570.0 -5.0 L 560.0 25.0" stroke="#0095FF" fill="none" stroke-width="2px" />
<path d="M 540.0 25.0 L 860.0 65.0" stroke="#0095FF" fill="none" stroke-width="2px" />
<path d="M 880.0 115.0 L 910.0 75.0" stroke="#0095FF" fill="none" stroke-width="2px" />
<path d="M 910.0 75.0 L 890.0 55.0" stroke="#0095FF" fill="none" stroke-width="2px" />
<path d="M 870.0 55.0 L 950.0 175.0" stroke="#0095FF" fill="none" stroke-width="2px" />
<path d="M 950.0 195.0 L 950.0 215.0" stroke="#0095FF" fill="none" stroke-width="2px" />
<path d="M 980.0 215.0 L 980.0 185.0" stroke="#0095FF" fill="none" stroke-width="2px" />
<path d="M 980.0 185.0 L 1160.0 135.0" stroke="#0095FF" fill="none" stroke-width="2px" />
<path d="M 1210.0 125.0 L 1190.0 145.0" stroke="#0095FF" fill="none" stroke-width="2px" />
<path d="M 1180.0 155.0 L 1180.0 105.0" stroke="#0095FF" fill="none" stroke-width="2px" />
<path d="M 1190.0 105.0 L 1190.0 55.0" stroke="#0095FF" fill="none" stroke-width="2px" />
<path d="M 1200.0 55.0 L 1220.0 35.0" stroke="#0095FF" fill="none" stroke-width="2px" />
<path d="M 1220.0 35.0 L 1200.0 15.0" stroke="#0095FF" fill="none" stroke-width="2px" />
<path d="M 90.0 175.0 L 100.0 175.0" stroke="#FF0000" fill="none" stroke-width="4px" />
<path d="M 100.0 175.0 L 100.0 165.0" stroke="#FF0000" fill="none" stroke-width="4px" />
<path d="M 100.0 165.0 L 90.0 165.0" stroke="#FF0000" fill="none" stroke-width="4px" />
<path d="M 90.0 165.0 L 80.0 165.0" stroke="#FF0000" fill="none" stroke-width="4px" />
<path d="M 80.0 165.0 L 80.0 155.0" stroke="#FF0000" fill="none" stroke-width="4px" />
<path d="M 80.0 155.0 L 70.0 155.0" stroke="#FF0000" fill="none" stroke-width="4px" />
<path d="M 70.0 155.0 L 70.0 145.0" stroke="#FF0000" fill="none" stroke-width="4px" />
<path d="M 70.0 145.0 L 80.0 145.0" stroke="#FF0000" fill="none" stroke-width="4px" />
<path d="M 80.0 145.0 L 90.0 145.0" stroke="#FF0000" fill="none" stroke-width="4px" />
<path d="M 90.0 145.0 L 100.0 145.0" stroke="#FF0000" fill="none" stroke-width="4px" />
<path d="M 100.0 145.0 L 110.0 145.0" stroke="#FF0000" fill="none" stroke-width="4px" />
<path d="M 110.0 145.0 L 120.0 145.0" stroke="#FF0000" fill="none" stroke-width="4px" />
<path d="M 120.0 145.0 L 130.0 145.0" stroke="#FF0000" fill="none" stroke-width="4px" />
<path d="M 130.0 145.0 L 120.0 155.0" stroke="#FF0000" fill="none" stroke-width="4px" />
<path d="M 120.0 155.0 L 110.0 155.0" stroke="#FF0000" fill="none" stroke-width="4px" />
<path d="M 110.0 155.0 L 100.0 155.0" stroke="#FF0000" fill="none" stroke-width="4px" />
<path d="M 100.0 155.0 L 90.0 155.0" stroke="#FF0000" fill="none" stroke-width="4px" />
<path d="M 110.0 135.0 L 100.0 135.0" stroke="#FF0000" fill="none" stroke-width="4px" />
<path d="M 100.0 135.0 L 90.0 135.0" stroke="#FF0000" fill="none" stroke-width="4px" />
<path d="M 90.0 135.0 L 80.0 135.0" stroke="#FF0000" fill="none" stroke-width="4px" />
<path d="M 80.0 135.0 L 90.0 125.0" stroke="#FF0000" fill="none" stroke-width="4px" />
<path d="M 90.0 125.0 L 100.0 125.0" stroke="#FF0000" fill="none" stroke-width="4px" />
<path d="M 100.0 125.0 L 110.0 125.0" stroke="#FF0000" fill="none" stroke-width="4px" />
<path d="M 110.0 125.0 L 120.0 135.0" stroke="#FF0000" fill="none" stroke-width="4px" />
<path d="M 60.0 55.0 L 60.0 45.0" stroke="#FF0000" fill="none" stroke-width="4px" />
<path d="M 60.0 45.0 L 50.0 45.0" stroke="#FF0000" fill="none" stroke-width="4px" />
<path d="M 50.0 45.0 L 50.0 35.0" stroke="#FF0000" fill="none" stroke-width="4px" />
<path d="M 50.0 35.0 L 60.0 35.0" stroke="#FF0000" fill="none" stroke-width="4px" />
<path d="M 60.0 35.0 L 70.0 35.0" stroke="#FF0000" fill="none" stroke-width="4px" />
<path d="M 70.0 35.0 L 80.0 35.0" stroke="#FF0000" fill="none" stroke-width="4px" />
<path d="M 80.0 35.0 L 90.0 35.0" stroke="#FF0000" fill="none" stroke-width="4px" />
<path d="M 90.0 35.0 L 90.0 25.0" stroke="#FF0000" fill="none" stroke-width="4px" />
<path d="M 90.0 25.0 L 80.0 25.0" stroke="#FF0000" fill="none" stroke-width="4px" />
<path d="M 80.0 25.0 L 70.0 25.0" stroke="#FF0000" fill="none" stroke-width="4px" />
<path d="M 70.0 25.0 L 60.0 25.0" stroke="#FF0000" fill="none" stroke-width="4px" />
<path d="M 60.0 25.0 L 50.0 25.0" stroke="#FF0000" fill="none" stroke-width="4px" />
<path d="M 50.0 25.0 L 50.0 15.0" stroke="#FF0000" fill="none" stroke-width="4px" />
<path d="M 50.0 15.0 L 40.0 15.0" stroke="#FF0000" fill="none" stroke-width="4px" />
<path d="M 40.0 15.0 L 40.0 5.0" stroke="#FF0000" fill="none" stroke-width="4px" />
<path d="M 40.0 5.0 L 50.0 5.0" stroke="#FF0000" fill="none" stroke-width="4px" />
<path d="M 50.0 5.0 L 60.0 5.0" stroke="#FF0000" fill="none" stroke-width="4px" />
<path d="M 60.0 5.0 L 70.0 5.0" stroke="#FF0000" fill="none" stroke-width="4px" />
<path d="M 70.0 5.0 L 80.0 5.0" stroke="#FF0000" fill="none" stroke-width="4px" />
<path d="M 80.0 5.0 L 90.0 5.0" stroke="#FF0000" fill="none" stroke-width="4px" />
<path d="M 90.0 5.0 L 100.0 5.0" stroke="#FF0000" fill="none" stroke-width="4px" />
<path d="M 100.0 5.0 L 100.0 15.0" stroke="#FF0000" fill="none" stroke-width="4px" />
<path d="M 100.0 15.0 L 90.0 15.0" stroke="#FF0000" fill="none" stroke-width="4px" />
<path d="M 90.0 15.0 L 80.0 15.0" stroke="#FF0000" fill="none" stroke-width="4px" />
<path d="M 80.0 15.0 L 70.0 15.0" stroke="#FF0000" fill="none" stroke-width="4px" />
<path d="M 70.0 15.0 L 60.0 15.0" stroke="#FF0000" fill="none" stroke-width="4px" />
<path d="M 60.0 -5.0 L 50.0 -5.0" stroke="#FF0000" fill="none" stroke-width="4px" />
<path d="M 50.0 -5.0 L 70.0 -5.0" stroke="#FF0000" fill="none" stroke-width="4px" />
<path d="M 70.0 -5.0 L 80.0 -5.0" stroke="#FF0000" fill="none" stroke-width="4px" />
<path d="M 80.0 -5.0 L 90.0 -5.0" stroke="#FF0000" fill="none" stroke-width="4px" />
<path d="M 90.0 -5.0 L 100.0 -5.0" stroke="#FF0000" fill="none" stroke-width="4px" />
<path d="M 110.0 15.0 L 100.0 25.0" stroke="#FF0000" fill="none" stroke-width="4px" />
<path d="M 80.0 45.0 L 70.0 45.0" stroke="#FF0000" fill="none" stroke-width="4px" />
<path d="M 310.0 115.0 L 320.0 115.0" stroke="#FF0000" fill="none" stroke-width="4px" />
<path d="M 320.0 115.0 L 330.0 115.0" stroke="#FF0000" fill="none" stroke-width="4px" />
<path d="M 330.0 115.0 L 340.0 115.0" stroke="#FF0000" fill="none" stroke-width="4px" />
<path d="M 340.0 115.0 L 350.0 115.0" stroke="#FF0000" fill="none" stroke-width="4px" />
<path d="M 350.0 115.0 L 360.0 115.0" stroke="#FF0000" fill="none" stroke-width="4px" />
<path d="M 360.0 115.0 L 360.0 125.0" stroke="#FF0000" fill="none" stroke-width="4px" />
<path d="M 360.0 125.0 L 350.0 125.0" stroke="#FF0000" fill="none" stroke-width="4px" />
<path d="M 350.0 125.0 L 340.0 125.0" stroke="#FF0000" fill="none" stroke-width="4px" />
<path d="M 340.0 125.0 L 330.0 125.0" stroke="#FF0000" fill="none" stroke-width="4px" />
<path d="M 330.0 125.0 L 320.0 125.0" stroke="#FF0000" fill="none" stroke-width="4px" />
<path d="M 320.0 125.0 L 320.0 135.0" stroke="#FF0000" fill="none" stroke-width="4px" />
<path d="M 320.0 135.0 L 330.0 135.0" stroke="#FF0000" fill="none" stroke-width="4px" />
<path d="M 330.0 135.0 L 340.0 135.0" stroke="#FF0000" fill="none" stroke-width="4px" />
<path d="M 340.0 135.0 L 350.0 135.0" stroke="#FF0000" fill="none" stroke-width="4px" />
<path d="M 350.0 135.0 L 340.0 145.0" stroke="#FF0000" fill="none" stroke-width="4px" />
<path d="M 340.0 145.0 L 330.0 145.0" stroke="#FF0000" fill="none" stroke-width="4px" />
<path d="M 330.0 105.0 L 320.0 105.0" stroke="#FF0000" fill="none" stroke-width="4px" />
<path d="M 320.0 105.0 L 330.0 95.0" stroke="#FF0000" fill="none" stroke-width="4px" />
<path d="M 330.0 95.0 L 340.0 95.0" stroke="#FF0000" fill="none" stroke-width="4px" />
<path d="M 340.0 95.0 L 340.0 105.0" stroke="#FF0000" fill="none" stroke-width="4px" />
<path d="M 340.0 105.0 L 350.0 105.0" stroke="#FF0000" fill="none" stroke-width="4px" />
<path d="M 550.0 105.0 L 560.0 105.0" stroke="#FF0000" fill="none" stroke-width="4px" />
<path d="M 560.0 105.0 L 570.0 105.0" stroke="#FF0000" fill="none" stroke-width="4px" />
<path d="M 570.0 105.0 L 580.0 105.0" stroke="#FF0000" fill="none" stroke-width="4px" />
<path d="M 580.0 105.0 L 590.0 105.0" stroke="#FF0000" fill="none" stroke-width="4px" />
<path d="M 590.0 105.0 L 600.0 105.0" stroke="#FF0000" fill="none" stroke-width="4px" />
<path d="M 600.0 105.0 L 610.0 105.0" stroke="#FF0000" fill="none" stroke-width="4px" />
<path d="M 610.0 105.0 L 610.0 115.0" stroke="#FF0000" fill="none" stroke-width="4px" />
<path d="M 610.0 115.0 L 600.0 115.0" stroke="#FF0000" fill="none" stroke-width="4px" />
<path d="M 600.0 115.0 L 590.0 115.0" stroke="#FF0000" fill="none" stroke-width="4px" />
<path d="M 590.0 115.0 L 580.0 115.0" stroke="#FF0000" fill="none" stroke-width="4px" />
<path d="M 580.0 115.0 L 570.0 115.0" stroke="#FF0000" fill="none" stroke-width="4px" />
<path d="M 570.0 115.0 L 560.0 115.0" stroke="#FF0000" fill="none" stroke-width="4px" />
<path d="M 560.0 115.0 L 550.0 115.0" stroke="#FF0000" fill="none" stroke-width="4px" />
<path d="M 550.0 115.0 L 560.0 125.0" stroke="#FF0000" fill="none" stroke-width="4px" />
<path d="M 560.0 125.0 L 570.0 125.0" stroke="#FF0000" fill="none" stroke-width="4px" />
<path d="M 570.0 125.0 L 580.0 125.0" stroke="#FF0000" fill="none" stroke-width="4px" />
<path d="M 580.0 125.0 L 590.0 125.0" stroke="#FF0000" fill="none" stroke-width="4px" />
<path d="M 590.0 125.0 L 600.0 125.0" stroke="#FF0000" fill="none" stroke-width="4px" />
<path d="M 600.0 125.0 L 590.0 135.0" stroke="#FF0000" fill="none" stroke-width="4px" />
<path d="M 590.0 135.0 L 580.0 135.0" stroke="#FF0000" fill="none" stroke-width="4px" />
<path d="M 580.0 135.0 L 570.0 135.0" stroke="#FF0000" fill="none" stroke-width="4px" />
<path d="M 570.0 95.0 L 560.0 95.0" stroke="#FF0000" fill="none" stroke-width="4px" />
<path d="M 560.0 95.0 L 550.0 95.0" stroke="#FF0000" fill="none" stroke-width="4px" />
<path d="M 550.0 95.0 L 560.0 85.0" stroke="#FF0000" fill="none" stroke-width="4px" />
<path d="M 560.0 85.0 L 570.0 85.0" stroke="#FF0000" fill="none" stroke-width="4px" />
<path d="M 570.0 85.0 L 580.0 85.0" stroke="#FF0000" fill="none" stroke-width="4px" />
<path d="M 580.0 85.0 L 590.0 85.0" stroke="#FF0000" fill="none" stroke-width="4px" />
<path d="M 590.0 85.0 L 590.0 95.0" stroke="#FF0000" fill="none" stroke-width="4px" />
<path d="M 590.0 95.0 L 580.0 95.0" stroke="#FF0000" fill="none" stroke-width="4px" />
<path d="M 580.0 95.0 L 600.0 95.0" stroke="#FF0000" fill="none" stroke-width="4px" />
<path d="M 580.0 75.0 L 570.0 75.0" stroke="#FF0000" fill="none" stroke-width="4px" />
<path d="M 550.0 35.0 L 540.0 35.0" stroke="#FF0000" fill="none" stroke-width="4px" />
<path d="M 540.0 35.0 L 530.0 35.0" stroke="#FF0000" fill="none" stroke-width="4px" />
<path d="M 530.0 35.0 L 530.0 25.0" stroke="#FF0000" fill="none" stroke-width="4px" />
<path d="M 530.0 25.0 L 520.0 25.0" stroke="#FF0000" fill="none" stroke-width="4px" />
<path d="M 520.0 25.0 L 520.0 15.0" stroke="#FF0000" fill="none" stroke-width="4px" />
<path d="M 520.0 15.0 L 530.0 15.0" stroke="#FF0000" fill="none" stroke-width="4px" />
<path d="M 530.0 15.0 L 540.0 15.0" stroke="#FF0000" fill="none" stroke-width="4px" />
<path d="M 540.0 15.0 L 550.0 15.0" stroke="#FF0000" fill="none" stroke-width="4px" />
<path d="M 550.0 15.0 L 560.0 15.0" stroke="#FF0000" fill="none" stroke-width="4px" />
<path d="M 560.0 15.0 L 570.0 15.0" stroke="#FF0000" fill="none" stroke-width="4px" />
<path d="M 570.0 15.0 L 570.0 5.0" stroke="#FF0000" fill="none" stroke-width="4px" />
<path d="M 570.0 5.0 L 560.0 5.0" stroke="#FF0000" fill="none" stroke-width="4px" />
<path d="M 560.0 5.0 L 550.0 5.0" stroke="#FF0000" fill="none" stroke-width="4px" />
<path d="M 550.0 5.0 L 540.0 5.0" stroke="#FF0000" fill="none" stroke-width="4px" />
<path d="M 540.0 5.0 L 530.0 5.0" stroke="#FF0000" fill="none" stroke-width="4px" />
<path d="M 530.0 5.0 L 520.0 5.0" stroke="#FF0000" fill="none" stroke-width="4px" />
<path d="M 520.0 5.0 L 520.0 -5.0" stroke="#FF0000" fill="none" stroke-width="4px" />
<path d="M 520.0 -5.0 L 530.0 -5.0" stroke="#FF0000" fill="none" stroke-width="4px" />
<path d="M 530.0 -5.0 L 540.0 -5.0" stroke="#FF0000" fill="none" stroke-width="4px" />
<path d="M 540.0 -5.0 L 550.0 -5.0" stroke="#FF0000" fill="none" stroke-width="4px" />
<path d="M 550.0 -5.0 L 560.0 -5.0" stroke="#FF0000" fill="none" stroke-width="4px" />
<path d="M 560.0 -5.0 L 570.0 -5.0" stroke="#FF0000" fill="none" stroke-width="4px" />
<path d="M 560.0 25.0 L 550.0 25.0" stroke="#FF0000" fill="none" stroke-width="4px" />
<path d="M 550.0 25.0 L 540.0 25.0" stroke="#FF0000" fill="none" stroke-width="4px" />
<path d="M 860.0 65.0 L 870.0 65.0" stroke="#FF0000" fill="none" stroke-width="4px" />
<path d="M 870.0 65.0 L 880.0 65.0" stroke="#FF0000" fill="none" stroke-width="4px" />
<path d="M 880.0 65.0 L 890.0 65.0" stroke="#FF0000" fill="none" stroke-width="4px" />
<path d="M 890.0 65.0 L 900.0 65.0" stroke="#FF0000" fill="none" stroke-width="4px" />
<path d="M 900.0 65.0 L 900.0 75.0" stroke="#FF0000" fill="none" stroke-width="4px" />
<path d="M 900.0 75.0 L 890.0 75.0" stroke="#FF0000" fill="none" stroke-width="4px" />
<path d="M 890.0 75.0 L 880.0 75.0" stroke="#FF0000" fill="none" stroke-width="4px" />
<path d="M 880.0 75.0 L 870.0 75.0" stroke="#FF0000" fill="none" stroke-width="4px" />
<path d="M 870.0 75.0 L 860.0 75.0" stroke="#FF0000" fill="none" stroke-width="4px" />
<path d="M 860.0 75.0 L 860.0 85.0" stroke="#FF0000" fill="none" stroke-width="4px" />
<path d="M 860.0 85.0 L 870.0 85.0" stroke="#FF0000" fill="none" stroke-width="4px" />
<path d="M 870.0 85.0 L 880.0 85.0" stroke="#FF0000" fill="none" stroke-width="4px" />
<path d="M 880.0 85.0 L 890.0 85.0" stroke="#FF0000" fill="none" stroke-width="4px" />
<path d="M 890.0 85.0 L 900.0 85.0" stroke="#FF0000" fill="none" stroke-width="4px" />
<path d="M 900.0 85.0 L 910.0 85.0" stroke="#FF0000" fill="none" stroke-width="4px" />
<path d="M 910.0 85.0 L 920.0 85.0" stroke="#FF0000" fill="none" stroke-width="4px" />
<path d="M 920.0 85.0 L 920.0 95.0" stroke="#FF0000" fill="none" stroke-width="4px" />
<path d="M 920.0 95.0 L 910.0 95.0" stroke="#FF0000" fill="none" stroke-width="4px" />
<path d="M 910.0 95.0 L 900.0 95.0" stroke="#FF0000" fill="none" stroke-width="4px" />
<path d="M 900.0 95.0 L 890.0 95.0" stroke="#FF0000" fill="none" stroke-width="4px" />
<path d="M 890.0 95.0 L 880.0 95.0" stroke="#FF0000" fill="none" stroke-width="4px" />
<path d="M 880.0 95.0 L 870.0 95.0" stroke="#FF0000" fill="none" stroke-width="4px" />
<path d="M 870.0 95.0 L 870.0 105.0" stroke="#FF0000" fill="none" stroke-width="4px" />
<path d="M 870.0 105.0 L 880.0 105.0" stroke="#FF0000" fill="none" stroke-width="4px" />
<path d="M 880.0 105.0 L 890.0 105.0" stroke="#FF0000" fill="none" stroke-width="4px" />
<path d="M 890.0 105.0 L 900.0 105.0" stroke="#FF0000" fill="none" stroke-width="4px" />
<path d="M 900.0 105.0 L 910.0 105.0" stroke="#FF0000" fill="none" stroke-width="4px" />
<path d="M 910.0 105.0 L 900.0 115.0" stroke="#FF0000" fill="none" stroke-width="4px" />
<path d="M 900.0 115.0 L 890.0 115.0" stroke="#FF0000" fill="none" stroke-width="4px" />
<path d="M 890.0 115.0 L 880.0 115.0" stroke="#FF0000" fill="none" stroke-width="4px" />
<path d="M 890.0 55.0 L 880.0 55.0" stroke="#FF0000" fill="none" stroke-width="4px" />
<path d="M 880.0 55.0 L 870.0 55.0" stroke="#FF0000" fill="none" stroke-width="4px" />
<path d="M 950.0 175.0 L 960.0 175.0" stroke="#FF0000" fill="none" stroke-width="4px" />
<path d="M 960.0 175.0 L 970.0 175.0" stroke="#FF0000" fill="none" stroke-width="4px" />
<path d="M 970.0 175.0 L 970.0 185.0" stroke="#FF0000" fill="none" stroke-width="4px" />
<path d="M 970.0 185.0 L 960.0 185.0" stroke="#FF0000" fill="none" stroke-width="4px" />
<path d="M 960.0 185.0 L 950.0 185.0" stroke="#FF0000" fill="none" stroke-width="4px" />
<path d="M 950.0 185.0 L 940.0 185.0" stroke="#FF0000" fill="none" stroke-width="4px" />
<path d="M 940.0 185.0 L 940.0 195.0" stroke="#FF0000" fill="none" stroke-width="4px" />
<path d="M 940.0 195.0 L 930.0 195.0" stroke="#FF0000" fill="none" stroke-width="4px" />
<path d="M 930.0 195.0 L 940.0 205.0" stroke="#FF0000" fill="none" stroke-width="4px" />
<path d="M 940.0 205.0 L 950.0 205.0" stroke="#FF0000" fill="none" stroke-width="4px" />
<path d="M 950.0 205.0 L 960.0 205.0" stroke="#FF0000" fill="none" stroke-width="4px" />
<path d="M 960.0 205.0 L 970.0 205.0" stroke="#FF0000" fill="none" stroke-width="4px" />
<path d="M 970.0 205.0 L 980.0 205.0" stroke="#FF0000" fill="none" stroke-width="4px" />
<path d="M 980.0 205.0 L 990.0 205.0" stroke="#FF0000" fill="none" stroke-width="4px" />
<path d="M 990.0 205.0 L 990.0 195.0" stroke="#FF0000" fill="none" stroke-width="4px" />
<path d="M 990.0 195.0 L 980.0 195.0" stroke="#FF0000" fill="none" stroke-width="4px" />
<path d="M 980.0 195.0 L 970.0 195.0" stroke="#FF0000" fill="none" stroke-width="4px" />
<path d="M 970.0 195.0 L 960.0 195.0" stroke="#FF0000" fill="none" stroke-width="4px" />
<path d="M 960.0 195.0 L 950.0 195.0" stroke="#FF0000" fill="none" stroke-width="4px" />
<path d="M 950.0 215.0 L 960.0 215.0" stroke="#FF0000" fill="none" stroke-width="4px" />
<path d="M 960.0 215.0 L 970.0 215.0" stroke="#FF0000" fill="none" stroke-width="4px" />
<path d="M 970.0 215.0 L 980.0 215.0" stroke="#FF0000" fill="none" stroke-width="4px" />
<path d="M 1160.0 135.0 L 1170.0 135.0" stroke="#FF0000" fill="none" stroke-width="4px" />
<path d="M 1170.0 135.0 L 1180.0 135.0" stroke="#FF0000" fill="none" stroke-width="4px" />
<path d="M 1180.0 135.0 L 1190.0 135.0" stroke="#FF0000" fill="none" stroke-width="4px" />
<path d="M 1190.0 135.0 L 1200.0 135.0" stroke="#FF0000" fill="none" stroke-width="4px" />
<path d="M 1200.0 135.0 L 1200.0 125.0" stroke="#FF0000" fill="none" stroke-width="4px" />
<path d="M 1200.0 125.0 L 1190.0 125.0" stroke="#FF0000" fill="none" stroke-width="4px" />
<path d="M 1190.0 125.0 L 1180.0 125.0" stroke="#FF0000" fill="none" stroke-width="4px" />
<path d="M 1180.0 125.0 L 1170.0 125.0" stroke="#FF0000" fill="none" stroke-width="4px" />
<path d="M 1170.0 125.0 L 1160.0 125.0" stroke="#FF0000" fill="none" stroke-width="4px" />
<path d="M 1160.0 125.0 L 1170.0 115.0" stroke="#FF0000" fill="none" stroke-width="4px" />
<path d="M 1170.0 115.0 L 1180.0 115.0" stroke="#FF0000" fill="none" stroke-width="4px" />
<path d="M 1180.0 115.0 L 1190.0 115.0" stroke="#FF0000" fill="none" stroke-width="4px" />
<path d="M 1190.0 115.0 L 1200.0 115.0" stroke="#FF0000" fill="none" stroke-width="4px" />
<path d="M 1200.0 115.0 L 1210.0 125.0" stroke="#FF0000" fill="none" stroke-width="4px" />
<path d="M 1190.0 145.0 L 1180.0 145.0" stroke="#FF0000" fill="none" stroke-width="4px" />
<path d="M 1180.0 145.0 L 1170.0 145.0" stroke="#FF0000" fill="none" stroke-width="4px" />
<path d="M 1170.0 145.0 L 1180.0 155.0" stroke="#FF0000" fill="none" stroke-width="4px" />
<path d="M 1180.0 105.0 L 1190.0 105.0" stroke="#FF0000" fill="none" stroke-width="4px" />
<path d="M 1190.0 55.0 L 1180.0 55.0" stroke="#FF0000" fill="none" stroke-width="4px" />
<path d="M 1180.0 55.0 L 1180.0 45.0" stroke="#FF0000" fill="none" stroke-width="4px" />
<path d="M 1180.0 45.0 L 1170.0 45.0" stroke="#FF0000" fill="none" stroke-width="4px" />
<path d="M 1170.0 45.0 L 1170.0 35.0" stroke="#FF0000" fill="none" stroke-width="4px" />
<path d="M 1170.0 35.0 L 1160.0 35.0" stroke="#FF0000" fill="none" stroke-width="4px" />
<path d="M 1160.0 35.0 L 1170.0 25.0" stroke="#FF0000" fill="none" stroke-width="4px" />
<path d="M 1170.0 25.0 L 1180.0 25.0" stroke="#FF0000" fill="none" stroke-width="4px" />
<path d="M 1180.0 25.0 L 1190.0 25.0" stroke="#FF0000" fill="none" stroke-width="4px" />
<path d="M 1190.0 25.0 L 1200.0 25.0" stroke="#FF0000" fill="none" stroke-width="4px" />
<path d="M 1200.0 25.0 L 1210.0 25.0" stroke="#FF0000" fill="none" stroke-width="4px" />
<path d="M 1210.0 25.0 L 1210.0 35.0" stroke="#FF0000" fill="none" stroke-width="4px" />
<path d="M 1210.0 35.0 L 1200.0 35.0" stroke="#FF0000" fill="none" stroke-width="4px" />
<path d="M 1200.0 35.0 L 1190.0 35.0" stroke="#FF0000" fill="none" stroke-width="4px" />
<path d="M 1190.0 35.0 L 1180.0 35.0" stroke="#FF0000" fill="none" stroke-width="4px" />
<path d="M 1180.0 35.0 L 1190.0 45.0" stroke="#FF0000" fill="none" stroke-width="4px" />
<path d="M 1190.0 45.0 L 1200.0 45.0" stroke="#FF0000" fill="none" stroke-width="4px" />
<path d="M 1200.0 45.0 L 1210.0 45.0" stroke="#FF0000" fill="none" stroke-width="4px" />
<path d="M 1210.0 45.0 L 1200.0 55.0" stroke="#FF0000" fill="none" stroke-width="4px" />
<path d="M 1200.0 15.0 L 1190.0 15.0" stroke="#FF0000" fill="none" stroke-width="4px" />
<path d="M 1190.0 15.0 L 1180.0 15.0" stroke="#FF0000" fill="none" stroke-width="4px" />
</svg>