<svg width="2472.26666667" height="235.0" xmlns="http://www.w3.org/2000/svg" version="1.1">
<path d="M 0.0 235.0 L 1930.0 235.0 L 1930.0 0.0 L 0.0 0.0 L 0.0 235.0" stroke="#000000" fill="none" stroke-width="3px" />
<path d="M 2472.26666667 235.0 L 1830.0 235.0 L 1830.0 0.0 L 2472.26666667 0.0 L 2472.26666667 235.0" stroke="#000000" fill="none" stroke-width="3px" />
<path d="M 10.0 257.5 L 0.0 247.5 L 10.0 237.5" stroke="#969696" fill="none" stroke-width="1px" />
<path d="M 10.0 237.5 L 1920.0 237.5" stroke="#969696" fill="none" stroke-width="1px" />
<path d="M 1920.0 237.5 L 1930.0 227.5 L 1920.0 217.5" stroke="#969696" fill="none" stroke-width="1px" />
<path d="M 1920.0 217.5 L 10.0 217.5" stroke="#969696" fill="none" stroke-width="1px" />
<path d="M 10.0 217.5 L 0.0 207.5 L 10.0 197.5" stroke="#969696" fill="none" stroke-width="1px" />
<path d="M 10.0 197.5 L 1920.0 197.5" stroke="#969696" fill="none" stroke-width="1px" />
<path d="M 1920.0 197.5 L 1930.0 187.5 L 1920.0 177.5" stroke="#969696" fill="none" stroke-width="1px" />
<path d="M 1920.0 177.5 L 10.0 177.5" stroke="#969696" fill="none" stroke-width="1px" />
<path d="M 10.0 177.5 L 0.0 167.5 L 10.0 157.5" stroke="#969696" fill="none" stroke-width="1px" />
<path d="M 10.0 157.5 L 1920.0 157.5" stroke="#969696" fill="none" stroke-width="1px" />
<path d="M 1920.0 157.5 L 1930.0 147.5 L 1920.0 137.5" stroke="#969696" fill="none" stroke-width="1px" />
<path d="M 1920.0 137.5 L 10.0 137.5" stroke="#969696" fill="none" stroke-width="1px" />
<path d="M 10.0 137.5 L 0.0 127.5 L 10.0 117.5" stroke="#969696" fill="none" stroke-width="1px" />
<path d="M 10.0 117.5 L 1920.0 117.5" stroke="#969696" fill="none" stroke-width="1px" />
<path d="M 1920.0 117.5 L 1930.0 107.5 L 1920.0 97.5" stroke="#969696" fill="none" stroke-width="1px" />
<path d="M 1920.0 97.5 L 10.0 97.5" stroke="#969696" fill="none" stroke-width="1px" />
<path d="M 10.0 97.5 L 0.0 87.5 L 10.0 77.5" stroke="#969696" fill="none" stroke-width="1px" />
<path d="M 10.0 77.5 L 1920.0 77.5" stroke="#969696" fill="none" stroke-width="1px" />
<path d="M 1920.0 77.5 L 1930.0 67.5 L 1920.0 57.5" stroke="#969696" fill="none" stroke-width="1px" />
<path d="M 1920.0 57.5 L 10.0 57.5" stroke="#969696" fill="none" stroke-width="1px" />
<path d="M 10.0 57.5 L 0.0 47.5 L 10.0 37.5" stroke="#969696" fill="none" stroke-width="1px" />
<path d="M 10.0 37.5 L 1920.0 37.5" stroke="#969696" fill="none" stroke-width="1px" />
<path d="M 1920.0 37.5 L 1930.0 27.5 L 1920.0 17.5" stroke="#969696" fill="none" stroke-width="1px" />
<path d="M 1920.0 17.5 L 10.0 17.5" stroke="#969696" fill="none" stroke-width="1px" />
<path d="M 10.0 17.5 L 0.0 7.5 L 10.0 -2.5" stroke="#969696" fill="none" stroke-width="1px" />
<path d="M 10.0 -2.5 L 1920.0 -2.5" stroke="#969696" fill="none" stroke-width="1px" />
<path d="M 1920.0 -2.5 L 1930.0 -12.5 L 1920.0 -22.5" stroke="#969696" fill="none" stroke-width="1px" />
<path d="M 2462.26666667 257.5 L 2472.26666667 247.5 L 2462.26666667 237.5" stroke="#969696" fill="none" stroke-width="1px" />
<path d="M 2462.26666667 237.5 L 1840.0 237.5" stroke="#969696" fill="none" stroke-width="1px" />
<path d="M 1840.0 237.5 L 1830.0 227.5 L 1840.0 217.5" stroke="#969696" fill="none" stroke-width="1px" />
<path d="M 1840.0 217.5 L 2462.26666667 217.5" stroke="#969696" fill="none" stroke-width="1px" />
<path d="M 2462.26666667 217.5 L 2472.26666667 207.5 L 2462.26666667 197.5" stroke="#969696" fill="none" stroke-width="1px" />
<path d="M 2462.26666667 197.5 L 1840.0 197.5" stroke="#969696" fill="none" stroke-width="1px" />
<path d="M 1840.0 197.5 L 1830.0 187.5 L 1840.0 177.5" stroke="#969696" fill="none" stroke-width="1px" />
<path d="M 1840.0 177.5 L 2462.26666667 177.5" stroke="#969696" fill="none" stroke-width="1px" />
<path d="M 2462.26666667 177.5 L 2472.26666667 167.5 L 2462.26666667 157.5" stroke="#969696" fill="none" stroke-width="1px" />
<path d="M 2462.26666667 157.5 L 1840.0 157.5" stroke="#969696" fill="none" stroke-width="1px" />
<path d="M 1840.0 157.5 L 1830.0 147.5 L 1840.0 137.5" stroke="#969696" fill="none" stroke-width="1px" />
<path d="M 1840.0 137.5 L 2462.26666667 137.5" stroke="#969696" fill="none" stroke-width="1px" />
<path d="M 2462.26666667 137.5 L 2472.26666667 127.5 L 2462.26666667 117.5" stroke="#969696" fill="none" stroke-width="1px" />
<path d="M 2462.26666667 117.5 L 1840.0 117.5" stroke="#969696" fill="none" stroke-width="1px" />
<path d="M 1840.0 117.5 L 1830.0 107.5 L 1840.0 97.5" stroke="#969696" fill="none" stroke-width="1px" />
<path d="M 1840.0 97.5 L 2462.26666667 97.5" stroke="#969696" fill="none" stroke-width="1px" />
<path d="M 2462.26666667 97.5 L 2472.26666667 87.5 L 2462.26666667 77.5" stroke="#969696" fill="none" stroke-width="1px" />
<path d="M 2462.26666667 77.5 L 1840.0 77.5" stroke="#969696" fill="none" stroke-width="1px" />
<path d="M 1840.0 77.5 L 1830.0 67.5 L 1840.0 57.5" stroke="#969696" fill="none" stroke-width="1px" />
<path d="M 1840.0 57.5 L 2462.26666667 57.5" stroke="#969696" fill="none" stroke-width="1px" />
<path d="M 2462.26666667 57.5 L 2472.26666667 47.5 L 2462.26666667 37.5" stroke="#969696" fill="none" stroke-width="1px" />
<path d="M 2462.26666667 37.5 L 1840.0 37.5" stroke="#969696" fill="none" stroke-width="1px" />
<path d="M 1840.0 37.5 L 1830.0 27.5 L 1840.0 17.5" stroke="#969696" fill="none" stroke-width="1px" />
<path d="M 1840.0 17.5 L 2462.26666667 17.5" stroke="#969696" fill="none" stroke-width="1px" />
<path d="M 2462.26666667 17.5 L 2472.26666667 7.5 L 2462.26666667 -2.5" stroke="#969696" fill="none" stroke-width="1px" />
<path d="M 2462.26666667 -2.5 L 1840.0 -2.5" stroke="#969696" fill="none" stroke-width="1px" />
<path d="M 1840.0 -2.5 L 1830.0 -12.5 L 1840.0 -22.5" stroke="#969696" fill="none" stroke-width="1px" />
<path d="M 0.0 235.0 L 370.0 65.0" stroke="#0095FF" fill="none" stroke-width="2px" />
<path d="M 390.0 45.0 L 390.0 75.0" stroke="#0095FF" fill="none" stroke-width="2px" />
<path d="M 380.0 75.0 L 540.0 25.0" stroke="#0095FF" fill="none" stroke-width="2px" />
<path d="M 590.0 15.0 L 580.0 -5.0" stroke="#0095FF" fill="none" stroke-width="2px" />
<path d="M 540.0 -5.0 L 550.0 35.0" stroke="#0095FF" fill="none" stroke-width="2px" />
<path d="M 570.0 35.0 L 620.0 65.0" stroke="#0095FF" fill="none" stroke-width="2px" />
<path d="M 680.0 105.0 L 690.0 75.0" stroke="#0095FF" fill="none" stroke-width="2px" />
<path d="M 690.0 75.0 L 1220.0 75.0" stroke="#0095FF" fill="none" stroke-width="2px" />
<path d="M 1250.0 105.0 L 1290.0 115.0" stroke="#0095FF" fill="none" stroke-width="2px" />
<path d="M 1310.0 115.0 L 1310.0 65.0" stroke="#0095FF" fill="none" stroke-width="2px" />
<path d="M 1240.0 45.0 L 1570.0 95.0" stroke="#0095FF" fill="none" stroke-width="2px" />
<path d="M 1600.0 125.0 L 1600.0 85.0" stroke="#0095FF" fill="none" stroke-width="2px" />
<path d="M 2472.26666667 235.0 L 2200.0 75.0" stroke="#0095FF" fill="none" stroke-width="2px" />
<path d="M 2210.0 65.0 L 2210.0 35.0" stroke="#0095FF" fill="none" stroke-width="2px" />
<path d="M 2200.0 35.0 L 2070.0 95.0" stroke="#0095FF" fill="none" stroke-width="2px" />
<path d="M 2060.0 145.0 L 2060.0 105.0" stroke="#0095FF" fill="none" stroke-width="2px" />
<path d="M 2070.0 105.0 L 2060.0 85.0" stroke="#0095FF" fill="none" stroke-width="2px" />
<path d="M 370.0 65.0 L 380.0 65.0" stroke="#FF0000" fill="none" stroke-width="4px" />
<path d="M 380.0 65.0 L 390.0 65.0" stroke="#FF0000" fill="none" stroke-width="4px" />
<path d="M 390.0 65.0 L 400.0 65.0" stroke="#FF0000" fill="none" stroke-width="4px" />
<path d="M 400.0 65.0 L 400.0 55.0" stroke="#FF0000" fill="none" stroke-width="4px" />
<path d="M 400.0 55.0 L 390.0 55.0" stroke="#FF0000" fill="none" stroke-width="4px" />
<path d="M 390.0 55.0 L 380.0 55.0" stroke="#FF0000" fill="none" stroke-width="4px" />
<path d="M 380.0 55.0 L 370.0 55.0" stroke="#FF0000" fill="none" stroke-width="4px" />
<path d="M 370.0 55.0 L 380.0 45.0" stroke="#FF0000" fill="none" stroke-width="4px" />
<path d="M 380.0 45.0 L 390.0 45.0" stroke="#FF0000" fill="none" stroke-width="4px" />
<path d="M 390.0 75.0 L 380.0 75.0" stroke="#FF0000" fill="none" stroke-width="4px" />
<path d="M 540.0 25.0 L 550.0 25.0" stroke="#FF0000" fill="none" stroke-width="4px" />
<path d="M 550.0 25.0 L 560.0 25.0" stroke="#FF0000" fill="none" stroke-width="4px" />
<path d="M 560.0 25.0 L 570.0 25.0" stroke="#FF0000" fill="none" stroke-width="4px" />
<path d="M 570.0 25.0 L 580.0 25.0" stroke="#FF0000" fill="none" stroke-width="4px" />
<path d="M 580.0 25.0 L 580.0 15.0" stroke="#FF0000" fill="none" stroke-width="4px" />
<path d="M 580.0 15.0 L 570.0 15.0" stroke="#FF0000" fill="none" stroke-width="4px" />
<path d="M 570.0 15.0 L 560.0 15.0" stroke="#FF0000" fill="none" stroke-width="4px" />
<path d="M 560.0 15.0 L 550.0 15.0" stroke="#FF0000" fill="none" stroke-width="4px" />
<path d="M 550.0 15.0 L 540.0 15.0" stroke="#FF0000" fill="none" stroke-width="4px" />
<path d="M 540.0 15.0 L 540.0 5.0" stroke="#FF0000" fill="none" stroke-width="4px" />
<path d="M 540.0 5.0 L 550.0 5.0" stroke="#FF0000" fill="none" stroke-width="4px" />
<path d="M 550.0 5.0 L 560.0 5.0" stroke="#FF0000" fill="none" stroke-width="4px" />
<path d="M 560.0 5.0 L 570.0 5.0" stroke="#FF0000" fill="none" stroke-width="4px" />
<path d="M 570.0 5.0 L 580.0 5.0" stroke="#FF0000" fill="none" stroke-width="4px" />
<path d="M 580.0 5.0 L 590.0 5.0" stroke="#FF0000" fill="none" stroke-width="4px" />
<path d="M 590.0 5.0 L 590.0 15.0" stroke="#FF0000" fill="none" stroke-width="4px" />
<path d="M 580.0 -5.0 L 570.0 -5.0" stroke="#FF0000" fill="none" stroke-width="4px" />
<path d="M 570.0 -5.0 L 560.0 -5.0" stroke="#FF0000" fill="none" stroke-width="4px" />
<path d="M 560.0 -5.0 L 550.0 -5.0" stroke="#FF0000" fill="none" stroke-width="4px" />
<path d="M 550.0 -5.0 L 540.0 -5.0" stroke="#FF0000" fill="none" stroke-width="4px" />
<path d="M 550.0 35.0 L 560.0 35.0" stroke="#FF0000" fill="none" stroke-width="4px" />
<path d="M 560.0 35.0 L 570.0 35.0" stroke="#FF0000" fill="none" stroke-width="4px" />
<path d="M 620.0 65.0 L 630.0 65.0" stroke="#FF0000" fill="none" stroke-width="4px" />
<path d="M 630.0 65.0 L 640.0 65.0" stroke="#FF0000" fill="none" stroke-width="4px" />
<path d="M 640.0 65.0 L 650.0 65.0" stroke="#FF0000" fill="none" stroke-width="4px" />
<path d="M 650.0 65.0 L 660.0 65.0" stroke="#FF0000" fill="none" stroke-width="4px" />
<path d="M 660.0 65.0 L 670.0 65.0" stroke="#FF0000" fill="none" stroke-width="4px" />
<path d="M 670.0 65.0 L 680.0 65.0" stroke="#FF0000" fill="none" stroke-width="4px" />
<path d="M 680.0 65.0 L 680.0 75.0" stroke="#FF0000" fill="none" stroke-width="4px" />
<path d="M 680.0 75.0 L 670.0 75.0" stroke="#FF0000" fill="none" stroke-width="4px" />
<path d="M 670.0 75.0 L 660.0 75.0" stroke="#FF0000" fill="none" stroke-width="4px" />
<path d="M 660.0 75.0 L 650.0 75.0" stroke="#FF0000" fill="none" stroke-width="4px" />
<path d="M 650.0 75.0 L 640.0 75.0" stroke="#FF0000" fill="none" stroke-width="4px" />
<path d="M 640.0 75.0 L 630.0 75.0" stroke="#FF0000" fill="none" stroke-width="4px" />
<path d="M 630.0 75.0 L 620.0 75.0" stroke="#FF0000" fill="none" stroke-width="4px" />
<path d="M 620.0 75.0 L 610.0 75.0" stroke="#FF0000" fill="none" stroke-width="4px" />
<path d="M 610.0 75.0 L 610.0 85.0" stroke="#FF0000" fill="none" stroke-width="4px" />
<path d="M 610.0 85.0 L 620.0 85.0" stroke="#FF0000" fill="none" stroke-width="4px" />
<path d="M 620.0 85.0 L 630.0 85.0" stroke="#FF0000" fill="none" stroke-width="4px" />
<path d="M 630.0 85.0 L 640.0 85.0" stroke="#FF0000" fill="none" stroke-width="4px" />
<path d="M 640.0 85.0 L 650.0 85.0" stroke="#FF0000" fill="none" stroke-width="4px" />
<path d="M 650.0 85.0 L 660.0 85.0" stroke="#FF0000" fill="none" stroke-width="4px" />
<path d="M 660.0 85.0 L 670.0 85.0" stroke="#FF0000" fill="none" stroke-width="4px" />
<path d="M 670.0 85.0 L 680.0 85.0" stroke="#FF0000" fill="none" stroke-width="4px" />
<path d="M 680.0 85.0 L 690.0 85.0" stroke="#FF0000" fill="none" stroke-width="4px" />
<path d="M 690.0 85.0 L 690.0 95.0" stroke="#FF0000" fill="none" stroke-width="4px" />
<path d="M 690.0 95.0 L 680.0 95.0" stroke="#FF0000" fill="none" stroke-width="4px" />
<path d="M 680.0 95.0 L 670.0 95.0" stroke="#FF0000" fill="none" stroke-width="4px" />
<path d="M 670.0 95.0 L 660.0 95.0" stroke="#FF0000" fill="none" stroke-width="4px" />
<path d="M 660.0 95.0 L 650.0 95.0" stroke="#FF0000" fill="none" stroke-width="4px" />
<path d="M 650.0 95.0 L 640.0 95.0" stroke="#FF0000" fill="none" stroke-width="4px" />
<path d="M 640.0 95.0 L 630.0 95.0" stroke="#FF0000" fill="none" stroke-width="4px" />
<path d="M 630.0 95.0 L 620.0 95.0" stroke="#FF0000" fill="none" stroke-width="4px" />
<path d="M 620.0 95.0 L 630.0 105.0" stroke="#FF0000" fill="none" stroke-width="4px" />
<path d="M 630.0 105.0 L 640.0 105.0" stroke="#FF0000" fill="none" stroke-width="4px" />
<path d="M 640.0 105.0 L 650.0 105.0" stroke="#FF0000" fill="none" stroke-width="4px" />
<path d="M 650.0 105.0 L 660.0 105.0" stroke="#FF0000" fill="none" stroke-width="4px" />
<path d="M 660.0 105.0 L 670.0 105.0" stroke="#FF0000" fill="none" stroke-width="4px" />
<path d="M 670.0 105.0 L 680.0 105.0" stroke="#FF0000" fill="none" stroke-width="4px" />
<path d="M 1220.0 75.0 L 1230.0 75.0" stroke="#FF0000" fill="none" stroke-width="4px" />
<path d="M 1230.0 75.0 L 1240.0 75.0" stroke="#FF0000" fill="none" stroke-width="4px" />
<path d="M 1240.0 75.0 L 1250.0 75.0" stroke="#FF0000" fill="none" stroke-width="4px" />
<path d="M 1250.0 75.0 L 1260.0 75.0" stroke="#FF0000" fill="none" stroke-width="4px" />
<path d="M 1260.0 75.0 L 1270.0 75.0" stroke="#FF0000" fill="none" stroke-width="4px" />
<path d="M 1270.0 75.0 L 1280.0 75.0" stroke="#FF0000" fill="none" stroke-width="4px" />
<path d="M 1280.0 75.0 L 1290.0 75.0" stroke="#FF0000" fill="none" stroke-width="4px" />
<path d="M 1290.0 75.0 L 1300.0 75.0" stroke="#FF0000" fill="none" stroke-width="4px" />
<path d="M 1300.0 75.0 L 1310.0 75.0" stroke="#FF0000" fill="none" stroke-width="4px" />
<path d="M 1310.0 75.0 L 1320.0 75.0" stroke="#FF0000" fill="none" stroke-width="4px" />
<path d="M 1320.0 75.0 L 1320.0 85.0" stroke="#FF0000" fill="none" stroke-width="4px" />
<path d="M 1320.0 85.0 L 1310.0 85.0" stroke="#FF0000" fill="none" stroke-width="4px" />
<path d="M 1310.0 85.0 L 1300.0 85.0" stroke="#FF0000" fill="none" stroke-width="4px" />
<path d="M 1300.0 85.0 L 1290.0 85.0" stroke="#FF0000" fill="none" stroke-width="4px" />
<path d="M 1290.0 85.0 L 1280.0 85.0" stroke="#FF0000" fill="none" stroke-width="4px" />
<path d="M 1280.0 85.0 L 1270.0 85.0" stroke="#FF0000" fill="none" stroke-width="4px" />
<path d="M 1270.0 85.0 L 1260.0 85.0" stroke="#FF0000" fill="none" stroke-width="4px" />
<path d="M 1260.0 85.0 L 1250.0 85.0" stroke="#FF0000" fill="none" stroke-width="4px" />
<path d="M 1250.0 85.0 L 1240.0 85.0" stroke="#FF0000" fill="none" stroke-width="4px" />
<path d="M 1240.0 85.0 L 1230.0 85.0" stroke="#FF0000" fill="none" stroke-width="4px" />
<path d="M 1230.0 85.0 L 1240.0 95.0" stroke="#FF0000" fill="none" stroke-width="4px" />
<path d="M 1240.0 95.0 L 1250.0 95.0" stroke="#FF0000" fill="none" stroke-width="4px" />
<path d="M 1250.0 95.0 L 1260.0 95.0" stroke="#FF0000" fill="none" stroke-width="4px" />
<path d="M 1260.0 95.0 L 1270.0 95.0" stroke="#FF0000" fill="none" stroke-width="4px" />
<path d="M 1270.0 95.0 L 1280.0 95.0" stroke="#FF0000" fill="none" stroke-width="4px" />
<path d="M 1280.0 95.0 L 1290.0 95.0" stroke="#FF0000" fill="none" stroke-width="4px" />
<path d="M 1290.0 95.0 L 1300.0 95.0" stroke="#FF0000" fill="none" stroke-width="4px" />
<path d="M 1300.0 95.0 L 1310.0 95.0" stroke="#FF0000" fill="none" stroke-width="4px" />
<path d="M 1310.0 95.0 L 1320.0 95.0" stroke="#FF0000" fill="none" stroke-width="4px" />
<path d="M 1320.0 95.0 L 1320.0 105.0" stroke="#FF0000" fill="none" stroke-width="4px" />
<path d="M 1320.0 105.0 L 1310.0 105.0" stroke="#FF0000" fill="none" stroke-width="4px" />
<path d="M 1310.0 105.0 L 1300.0 105.0" stroke="#FF0000" fill="none" stroke-width="4px" />
<path d="M 1300.0 105.0 L 1290.0 105.0" stroke="#FF0000" fill="none" stroke-width="4px" />
<path d="M 1290.0 105.0 L 1280.0 105.0" stroke="#FF0000" fill="none" stroke-width="4px" />
<path d="M 1280.0 105.0 L 1270.0 105.0" stroke="#FF0000" fill="none" stroke-width="4px" />
<path d="M 1270.0 105.0 L 1260.0 105.0" stroke="#FF0000" fill="none" stroke-width="4px" />
<path d="M 1260.0 105.0 L 1250.0 105.0" stroke="#FF0000" fill="none" stroke-width="4px" />
<path d="M 1290.0 115.0 L 1300.0 115.0" stroke="#FF0000" fill="none" stroke-width="4px" />
<path d="M 1300.0 115.0 L 1310.0 115.0" stroke="#FF0000" fill="none" stroke-width="4px" />
<path d="M 1310.0 65.0 L 1300.0 65.0" stroke="#FF0000" fill="none" stroke-width="4px" />
<path d="M 1300.0 65.0 L 1290.0 65.0" stroke="#FF0000" fill="none" stroke-width="4px" />
<path d="M 1290.0 65.0 L 1280.0 65.0" stroke="#FF0000" fill="none" stroke-width="4px" />
<path d="M 1280.0 65.0 L 1270.0 65.0" stroke="#FF0000" fill="none" stroke-width="4px" />
<path d="M 1270.0 65.0 L 1260.0 65.0" stroke="#FF0000" fill="none" stroke-width="4px" />
<path d="M 1260.0 65.0 L 1250.0 65.0" stroke="#FF0000" fill="none" stroke-width="4px" />
<path d="M 1250.0 65.0 L 1240.0 65.0" stroke="#FF0000" fill="none" stroke-width="4px" />
<path d="M 1240.0 65.0 L 1230.0 65.0" stroke="#FF0000" fill="none" stroke-width="4px" />
<path d="M 1230.0 65.0 L 1220.0 65.0" stroke="#FF0000" fill="none" stroke-width="4px" />
<path d="M 1220.0 65.0 L 1230.0 55.0" stroke="#FF0000" fill="none" stroke-width="4px" />
<path d="M 1230.0 55.0 L 1240.0 55.0" stroke="#FF0000" fill="none" stroke-width="4px" />
<path d="M 1240.0 55.0 L 1250.0 55.0" stroke="#FF0000" fill="none" stroke-width="4px" />
<path d="M 1250.0 55.0 L 1260.0 55.0" stroke="#FF0000" fill="none" stroke-width="4px" />
<path d="M 1260.0 55.0 L 1250.0 45.0" stroke="#FF0000" fill="none" stroke-width="4px" />
<path d="M 1250.0 45.0 L 1240.0 45.0" stroke="#FF0000" fill="none" stroke-width="4px" />
<path d="M 1570.0 95.0 L 1580.0 95.0" stroke="#FF0000" fill="none" stroke-width="4px" />
<path d="M 1580.0 95.0 L 1590.0 95.0" stroke="#FF0000" fill="none" stroke-width="4px" />
<path d="M 1590.0 95.0 L 1600.0 95.0" stroke="#FF0000" fill="none" stroke-width="4px" />
<path d="M 1600.0 95.0 L 1610.0 95.0" stroke="#FF0000" fill="none" stroke-width="4px" />
<path d="M 1610.0 95.0 L 1620.0 95.0" stroke="#FF0000" fill="none" stroke-width="4px" />
<path d="M 1620.0 95.0 L 1620.0 105.0" stroke="#FF0000" fill="none" stroke-width="4px" />
<path d="M 1620.0 105.0 L 1610.0 105.0" stroke="#FF0000" fill="none" stroke-width="4px" />
<path d="M 1610.0 105.0 L 1600.0 105.0" stroke="#FF0000" fill="none" stroke-width="4px" />
<path d="M 1600.0 105.0 L 1590.0 105.0" stroke="#FF0000" fill="none" stroke-width="4px" />
<path d="M 1590.0 105.0 L 1580.0 105.0" stroke="#FF0000" fill="none" stroke-width="4px" />
<path d="M 1580.0 105.0 L 1590.0 115.0" stroke="#FF0000" fill="none" stroke-width="4px" />
<path d="M 1590.0 115.0 L 1600.0 115.0" stroke="#FF0000" fill="none" stroke-width="4px" />
<path d="M 1600.0 115.0 L 1610.0 115.0" stroke="#FF0000" fill="none" stroke-width="4px" />
<path d="M 1610.0 115.0 L 1600.0 125.0" stroke="#FF0000" fill="none" stroke-width="4px" />
<path d="M 1600.0 85.0 L 1590.0 85.0" stroke="#FF0000" fill="none" stroke-width="4px" />
<path d="M 1590.0 85.0 L 1580.0 85.0" stroke="#FF0000" fill="none" stroke-width="4px" />
<path d="M 1580.0 85.0 L 1590.0 75.0" stroke="#FF0000" fill="none" stroke-width="4px" />
<path d="M 1590.0 75.0 L 1600.0 75.0" stroke="#FF0000" fill="none" stroke-width="4px" />
<path d="M 1600.0 75.0 L 1610.0 85.0" stroke="#FF0000" fill="none" stroke-width="4px" />
<path d="M 2200.0 75.0 L 2200.0 65.0" stroke="#FF0000" fill="none" stroke-width="4px" />
<path d="M 2200.0 65.0 L 2190.0 65.0" stroke="#FF0000" fill="none" stroke-width="4px" />
<path d="M 2190.0 65.0 L 2190.0 55.0" stroke="#FF0000" fill="none" stroke-width="4px" />
<path d="M 2190.0 55.0 L 2180.0 55.0" stroke="#FF0000" fill="none" stroke-width="4px" />
<path d="M 2180.0 55.0 L 2190.0 45.0" stroke="#FF0000" fill="none" stroke-width="4px" />
<path d="M 2190.0 45.0 L 2200.0 45.0" stroke="#FF0000" fill="none" stroke-width="4px" />
<path d="M 2200.0 45.0 L 2210.0 45.0" stroke="#FF0000" fill="none" stroke-width="4px" />
<path d="M 2210.0 45.0 L 2220.0 45.0" stroke="#FF0000" fill="none" stroke-width="4px" />
<path d="M 2220.0 45.0 L 2220.0 55.0" stroke="#FF0000" fill="none" stroke-width="4px" />
<path d="M 2220.0 55.0 L 2210.0 55.0" stroke="#FF0000" fill="none" stroke-width="4px" />
<path d="M 2210.0 55.0 L 2200.0 55.0" stroke="#FF0000" fill="none" stroke-width="4px" />
<path d="M 2200.0 55.0 L 2210.0 65.0" stroke="#FF0000" fill="none" stroke-width="4px" />
<path d="M 2210.0 35.0 L 2200.0 35.0" stroke="#FF0000" fill="none" stroke-width="4px" />
<path d="M 2070.0 95.0 L 2060.0 95.0" stroke="#FF0000" fill="none" stroke-width="4px" />
<path d="M 2060.0 95.0 L 2050.0 95.0" stroke="#FF0000" fill="none" stroke-width="4px" />
<path d="M 2050.0 95.0 L 2050.0 105.0" stroke="#FF0000" fill="none" stroke-width="4px" />
<path d="M 2050.0 105.0 L 2040.0 105.0" stroke="#FF0000" fill="none" stroke-width="4px" />
<path d="M 2040.0 105.0 L 2040.0 115.0" stroke="#FF0000" fill="none" stroke-width="4px" />
<path d="M 2040.0 115.0 L 2050.0 115.0" stroke="#FF0000" fill="none" stroke-width="4px" />
<path d="M 2050.0 115.0 L 2060.0 115.0" stroke="#FF0000" fill="none" stroke-width="4px" />
<path d="M 2060.0 115.0 L 2070.0 115.0" stroke="#FF0000" fill="none" stroke-width="4px" />
<path d="M 2070.0 115.0 L 2080.0 115.0" stroke="#FF0000" fill="none" stroke-width="4px" />
<path d="M 2080.0 115.0 L 2080.0 125.0" stroke="#FF0000" fill="none" stroke-width="4px" />
<path d="M 2080.0 125.0 L 2070.0 125.0" stroke="#FF0000" fill="none" stroke-width="4px" />
<path d="M 2070.0 125.0 L 2060.0 125.0" stroke="#FF0000" fill="none" stroke-width="4px" />
<path d="M 2060.0 125.0 L 2050.0 125.0" stroke="#FF0000" fill="none" stroke-width="4px" />
<path d="M 2050.0 125.0 L 2040.0 125.0" stroke="#FF0000" fill="none" stroke-width="4px" />
<path d="M 2040.0 125.0 L 2050.0 135.0" stroke="#FF0000" fill="none" stroke-width="4px" />
<path d="M 2050.0 135.0 L 2060.0 135.0" stroke="#FF0000" fill="none" stroke-width="4px" />
<path d="M 2060.0 135.0 L 2070.0 135.0" stroke="#FF0000" fill="none" stroke-width="4px" />
<path d="M 2070.0 135.0 L 2080.0 135.0" stroke="#FF0000" fill="none" stroke-width="4px" />
<path d="M 2080.0 135.0 L 2070.0 145.0" stroke="#FF0000" fill="none" stroke-width="4px" />
<path d="M 2070.0 145.0 L 2060.0 145.0" stroke="#FF0000" fill="none" stroke-width="4px" />
<path d="M 2060.0 105.0 L 2070.0 105.0" stroke="#FF0000" fill="none" stroke-width="4px" />
</svg>