<svg width="1383.75833333" height="235.0" xmlns="http://www.w3.org/2000/svg" version="1.1">
<path d="M 0.0 235.0 L 1383.75833333 235.0 L 1383.75833333 0.0 L 0.0 0.0 L 0.0 235.0" stroke="#000000" fill="none" stroke-width="3px" />
<path d="M 10.0 257.5 L 0.0 247.5 L 10.0 237.5" stroke="#969696" fill="none" stroke-width="1px" />
<path d="M 10.0 237.5 L 1373.75833333 237.5" stroke="#969696" fill="none" stroke-width="1px" />
<path d="M 1373.75833333 237.5 L 1383.75833333 227.5 L 1373.75833333 217.5" stroke="#969696" fill="none" stroke-width="1px" />
<path d="M 1373.75833333 217.5 L 10.0 217.5" stroke="#969696" fill="none" stroke-width="1px" />
<path d="M 10.0 217.5 L 0.0 207.5 L 10.0 197.5" stroke="#969696" fill="none" stroke-width="1px" />
<path d="M 10.0 197.5 L 1373.75833333 197.5" stroke="#969696" fill="none" stroke-width="1px" />
<path d="M 1373.75833333 197.5 L 1383.75833333 187.5 L 1373.75833333 177.5" stroke="#969696" fill="none" stroke-width="1px" />
<path d="M 1373.75833333 177.5 L 10.0 177.5" stroke="#969696" fill="none" stroke-width="1px" />
<path d="M 10.0 177.5 L 0.0 167.5 L 10.0 157.5" stroke="#969696" fill="none" stroke-width="1px" />
<path d="M 10.0 157.5 L 1373.75833333 157.5" stroke="#969696" fill="none" stroke-width="1px" />
<path d="M 1373.75833333 157.5 L 1383.75833333 147.5 L 1373.75833333 137.5" stroke="#969696" fill="none" stroke-width="1px" />
<path d="M 1373.75833333 137.5 L 10.0 137.5" stroke="#969696" fill="none" stroke-width="1px" />
<path d="M 10.0 137.5 L 0.0 127.5 L 10.0 117.5" stroke="#969696" fill="none" stroke-width="1px" />
<path d="M 10.0 117.5 L 1373.75833333 117.5" stroke="#969696" fill="none" stroke-width="1px" />
<path d="M 1373.75833333 117.5 L 1383.75833333 107.5 L 1373.75833333 97.5" stroke="#969696" fill="none" stroke-width="1px" />
<path d="M 1373.75833333 97.5 L 10.0 97.5" stroke="#969696" fill="none" stroke-width="1px" />
<path d="M 10.0 97.5 L 0.0 87.5 L 10.0 77.5" stroke="#969696" fill="none" stroke-width="1px" />
<path d="M 10.0 77.5 L 1373.75833333 77.5" stroke="#969696" fill="none" stroke-width="1px" />
<path d="M 1373.75833333 77.5 L 1383.75833333 67.5 L 1373.75833333 57.5" stroke="#969696" fill="none" stroke-width="1px" />
<path d="M 1373.75833333 57.5 L 10.0 57.5" stroke="#969696" fill="none" stroke-width="1px" />
<path d="M 10.0 57.5 L 0.0 47.5 L 10.0 37.5" stroke="#969696" fill="none" stroke-width="1px" />
<path d="M 10.0 37.5 L 1373.75833333 37.5" stroke="#969696" fill="none" stroke-width="1px" />
<path d="M 1373.75833333 37.5 L 1383.75833333 27.5 L 1373.75833333 17.5" stroke="#969696" fill="none" stroke-width="1px" />
<path d="M 1373.75833333 17.5 L 10.0 17.5" stroke="#969696" fill="none" stroke-width="1px" />
<path d="M 10.0 17.5 L 0.0 7.5 L 10.0 -2.5" stroke="#969696" fill="none" stroke-width="1px" />
<path d="M 10.0 -2.5 L 1373.75833333 -2.5" stroke="#969696" fill="none" stroke-width="1px" />
<path d="M 1373.75833333 -2.5 L 1383.75833333 -12.5 L 1373.75833333 -22.5" stroke="#969696" fill="none" stroke-width="1px" />
<path d="M 0.0 235.0 L 36.2416666653 235.0" stroke="#0095FF" fill="none" stroke-width="2px" />
<path d="M 36.2416666653 235.0 L 36.2416666653 205.0" stroke="#0095FF" fill="none" stroke-width="2px" />
<path d="M 66.2416666653 195.0 L 66.2416666653 175.0" stroke="#0095FF" fill="none" stroke-width="2px" />
<path d="M 36.2416666653 145.0 L 266.241666665 145.0" stroke="#0095FF" fill="none" stroke-width="2px" />
<path d="M 266.241666665 145.0 L 266.241666665 155.0" stroke="#0095FF" fill="none" stroke-width="2px" />
<path d="M 306.241666665 195.0 L 306.241666665 145.0" stroke="#0095FF" fill="none" stroke-width="2px" />
<path d="M 286.241666665 145.0 L 316.241666665 145.0" stroke="#0095FF" fill="none" stroke-width="2px" />
<path d="M 316.241666665 145.0 L 496.241666665 145.0" stroke="#0095FF" fill="none" stroke-width="2px" />
<path d="M 496.241666665 145.0 L 496.241666665 55.0" stroke="#0095FF" fill="none" stroke-width="2px" />
<path d="M 526.241666665 75.0 L 526.241666665 45.0" stroke="#0095FF" fill="none" stroke-width="2px" />
<path d="M 536.241666665 45.0 L 676.241666665 45.0" stroke="#0095FF" fill="none" stroke-width="2px" />
<path d="M 676.241666665 45.0 L 676.241666665 95.0" stroke="#0095FF" fill="none" stroke-width="2px" />
<path d="M 706.241666665 145.0 L 686.241666665 145.0" stroke="#0095FF" fill="none" stroke-width="2px" />
<path d="M 686.241666665 145.0 L 686.241666665 165.0" stroke="#0095FF" fill="none" stroke-width="2px" />
<path d="M 726.241666665 235.0 L 726.241666665 185.0" stroke="#0095FF" fill="none" stroke-width="2px" />
<path d="M 746.241666665 185.0 L 746.241666665 105.0" stroke="#0095FF" fill="none" stroke-width="2px" />
<path d="M 746.241666665 105.0 L 726.241666665 105.0" stroke="#0095FF" fill="none" stroke-width="2px" />
<path d="M 726.241666665 105.0 L 726.241666665 85.0" stroke="#0095FF" fill="none" stroke-width="2px" />
<path d="M 696.241666665 75.0 L 726.241666665 75.0" stroke="#0095FF" fill="none" stroke-width="2px" />
<path d="M 726.241666665 75.0 L 726.241666665 65.0" stroke="#0095FF" fill="none" stroke-width="2px" />
<path d="M 776.241666665 55.0 L 766.241666665 55.0" stroke="#0095FF" fill="none" stroke-width="2px" />
<path d="M 766.241666665 55.0 L 766.241666665 35.0" stroke="#0095FF" fill="none" stroke-width="2px" />
<path d="M 726.241666665 15.0 L 736.241666665 15.0" stroke="#0095FF" fill="none" stroke-width="2px" />
<path d="M 736.241666665 15.0 L 736.241666665 75.0" stroke="#0095FF" fill="none" stroke-width="2px" />
<path d="M 756.241666665 75.0 L 936.241666665 75.0" stroke="#0095FF" fill="none" stroke-width="2px" />
<path d="M 956.241666665 95.0 L 956.241666665 65.0" stroke="#0095FF" fill="none" stroke-width="2px" />
<path d="M 946.241666665 65.0 L 1096.24166667 65.0" stroke="#0095FF" fill="none" stroke-width="2px" />
<path d="M 1096.24166667 65.0 L 1096.24166667 45.0" stroke="#0095FF" fill="none" stroke-width="2px" />
<path d="M 1126.24166667 75.0 L 1126.24166667 35.0" stroke="#0095FF" fill="none" stroke-width="2px" />
<path d="M 1156.24166667 35.0 L 1136.24166667 35.0" stroke="#0095FF" fill="none" stroke-width="2px" />
<path d="M 1136.24166667 35.0 L 1136.24166667 15.0" stroke="#0095FF" fill="none" stroke-width="2px" />
<path d="M 1116.24166667 15.0 L 966.241666665 15.0" stroke="#0095FF" fill="none" stroke-width="2px" />
<path d="M 966.241666665 15.0 L 966.241666665 205.0" stroke="#0095FF" fill="none" stroke-width="2px" />
<path d="M 926.241666665 235.0 L 946.241666665 235.0" stroke="#0095FF" fill="none" stroke-width="2px" />
<path d="M 946.241666665 235.0 L 946.241666665 215.0" stroke="#0095FF" fill="none" stroke-width="2px" />
<path d="M 36.2416666653 205.0 L 46.2416666653 205.0" stroke="#FF0000" fill="none" stroke-width="4px" />
<path d="M 46.2416666653 205.0 L 56.2416666653 205.0" stroke="#FF0000" fill="none" stroke-width="4px" />
<path d="M 56.2416666653 205.0 L 56.2416666653 195.0" stroke="#FF0000" fill="none" stroke-width="4px" />
<path d="M 56.2416666653 195.0 L 46.2416666653 195.0" stroke="#FF0000" fill="none" stroke-width="4px" />
<path d="M 46.2416666653 195.0 L 36.2416666653 195.0" stroke="#FF0000" fill="none" stroke-width="4px" />
<path d="M 36.2416666653 195.0 L 26.2416666653 195.0" stroke="#FF0000" fill="none" stroke-width="4px" />
<path d="M 26.2416666653 195.0 L 26.2416666653 185.0" stroke="#FF0000" fill="none" stroke-width="4px" />
<path d="M 26.2416666653 185.0 L 36.2416666653 185.0" stroke="#FF0000" fill="none" stroke-width="4px" />
<path d="M 36.2416666653 185.0 L 46.2416666653 185.0" stroke="#FF0000" fill="none" stroke-width="4px" />
<path d="M 46.2416666653 185.0 L 56.2416666653 185.0" stroke="#FF0000" fill="none" stroke-width="4px" />
<path d="M 56.2416666653 185.0 L 66.2416666653 185.0" stroke="#FF0000" fill="none" stroke-width="4px" />
<path d="M 66.2416666653 185.0 L 76.2416666653 185.0" stroke="#FF0000" fill="none" stroke-width="4px" />
<path d="M 76.2416666653 185.0 L 66.2416666653 195.0" stroke="#FF0000" fill="none" stroke-width="4px" />
<path d="M 66.2416666653 175.0 L 56.2416666653 175.0" stroke="#FF0000" fill="none" stroke-width="4px" />
<path d="M 56.2416666653 175.0 L 46.2416666653 175.0" stroke="#FF0000" fill="none" stroke-width="4px" />
<path d="M 46.2416666653 175.0 L 36.2416666653 175.0" stroke="#FF0000" fill="none" stroke-width="4px" />
<path d="M 36.2416666653 175.0 L 26.2416666653 175.0" stroke="#FF0000" fill="none" stroke-width="4px" />
<path d="M 26.2416666653 175.0 L 16.2416666653 175.0" stroke="#FF0000" fill="none" stroke-width="4px" />
<path d="M 16.2416666653 175.0 L 16.2416666653 165.0" stroke="#FF0000" fill="none" stroke-width="4px" />
<path d="M 16.2416666653 165.0 L 26.2416666653 165.0" stroke="#FF0000" fill="none" stroke-width="4px" />
<path d="M 26.2416666653 165.0 L 36.2416666653 165.0" stroke="#FF0000" fill="none" stroke-width="4px" />
<path d="M 36.2416666653 165.0 L 46.2416666653 165.0" stroke="#FF0000" fill="none" stroke-width="4px" />
<path d="M 46.2416666653 165.0 L 56.2416666653 165.0" stroke="#FF0000" fill="none" stroke-width="4px" />
<path d="M 56.2416666653 165.0 L 46.2416666653 155.0" stroke="#FF0000" fill="none" stroke-width="4px" />
<path d="M 46.2416666653 155.0 L 36.2416666653 155.0" stroke="#FF0000" fill="none" stroke-width="4px" />
<path d="M 36.2416666653 155.0 L 26.2416666653 155.0" stroke="#FF0000" fill="none" stroke-width="4px" />
<path d="M 26.2416666653 155.0 L 36.2416666653 145.0" stroke="#FF0000" fill="none" stroke-width="4px" />
<path d="M 266.241666665 155.0 L 276.241666665 155.0" stroke="#FF0000" fill="none" stroke-width="4px" />
<path d="M 276.241666665 155.0 L 286.241666665 155.0" stroke="#FF0000" fill="none" stroke-width="4px" />
<path d="M 286.241666665 155.0 L 296.241666665 155.0" stroke="#FF0000" fill="none" stroke-width="4px" />
<path d="M 296.241666665 155.0 L 306.241666665 155.0" stroke="#FF0000" fill="none" stroke-width="4px" />
<path d="M 306.241666665 155.0 L 316.241666665 155.0" stroke="#FF0000" fill="none" stroke-width="4px" />
<path d="M 316.241666665 155.0 L 326.241666665 155.0" stroke="#FF0000" fill="none" stroke-width="4px" />
<path d="M 326.241666665 155.0 L 326.241666665 165.0" stroke="#FF0000" fill="none" stroke-width="4px" />
<path d="M 326.241666665 165.0 L 316.241666665 165.0" stroke="#FF0000" fill="none" stroke-width="4px" />
<path d="M 316.241666665 165.0 L 306.241666665 165.0" stroke="#FF0000" fill="none" stroke-width="4px" />
<path d="M 306.241666665 165.0 L 296.241666665 165.0" stroke="#FF0000" fill="none" stroke-width="4px" />
<path d="M 296.241666665 165.0 L 286.241666665 165.0" stroke="#FF0000" fill="none" stroke-width="4px" />
<path d="M 286.241666665 165.0 L 276.241666665 165.0" stroke="#FF0000" fill="none" stroke-width="4px" />
<path d="M 276.241666665 165.0 L 266.241666665 165.0" stroke="#FF0000" fill="none" stroke-width="4px" />
<path d="M 266.241666665 165.0 L 276.241666665 175.0" stroke="#FF0000" fill="none" stroke-width="4px" />
<path d="M 276.241666665 175.0 L 286.241666665 175.0" stroke="#FF0000" fill="none" stroke-width="4px" />
<path d="M 286.241666665 175.0 L 296.241666665 175.0" stroke="#FF0000" fill="none" stroke-width="4px" />
<path d="M 296.241666665 175.0 L 306.241666665 175.0" stroke="#FF0000" fill="none" stroke-width="4px" />
<path d="M 306.241666665 175.0 L 316.241666665 175.0" stroke="#FF0000" fill="none" stroke-width="4px" />
<path d="M 316.241666665 175.0 L 326.241666665 175.0" stroke="#FF0000" fill="none" stroke-width="4px" />
<path d="M 326.241666665 175.0 L 316.241666665 185.0" stroke="#FF0000" fill="none" stroke-width="4px" />
<path d="M 316.241666665 185.0 L 306.241666665 185.0" stroke="#FF0000" fill="none" stroke-width="4px" />
<path d="M 306.241666665 185.0 L 296.241666665 185.0" stroke="#FF0000" fill="none" stroke-width="4px" />
<path d="M 296.241666665 185.0 L 286.241666665 185.0" stroke="#FF0000" fill="none" stroke-width="4px" />
<path d="M 286.241666665 185.0 L 296.241666665 195.0" stroke="#FF0000" fill="none" stroke-width="4px" />
<path d="M 296.241666665 195.0 L 306.241666665 195.0" stroke="#FF0000" fill="none" stroke-width="4px" />
<path d="M 306.241666665 145.0 L 296.241666665 145.0" stroke="#FF0000" fill="none" stroke-width="4px" />
<path d="M 296.241666665 145.0 L 286.241666665 145.0" stroke="#FF0000" fill="none" stroke-width="4px" />
<path d="M 496.241666665 55.0 L 506.241666665 55.0" stroke="#FF0000" fill="none" stroke-width="4px" />
<path d="M 506.241666665 55.0 L 516.241666665 55.0" stroke="#FF0000" fill="none" stroke-width="4px" />
<path d="M 516.241666665 55.0 L 526.241666665 55.0" stroke="#FF0000" fill="none" stroke-width="4px" />
<path d="M 526.241666665 55.0 L 536.241666665 55.0" stroke="#FF0000" fill="none" stroke-width="4px" />
<path d="M 536.241666665 55.0 L 546.241666665 55.0" stroke="#FF0000" fill="none" stroke-width="4px" />
<path d="M 546.241666665 55.0 L 536.241666665 65.0" stroke="#FF0000" fill="none" stroke-width="4px" />
<path d="M 536.241666665 65.0 L 526.241666665 65.0" stroke="#FF0000" fill="none" stroke-width="4px" />
<path d="M 526.241666665 65.0 L 516.241666665 65.0" stroke="#FF0000" fill="none" stroke-width="4px" />
<path d="M 516.241666665 65.0 L 506.241666665 65.0" stroke="#FF0000" fill="none" stroke-width="4px" />
<path d="M 506.241666665 65.0 L 516.241666665 75.0" stroke="#FF0000" fill="none" stroke-width="4px" />
<path d="M 516.241666665 75.0 L 526.241666665 75.0" stroke="#FF0000" fill="none" stroke-width="4px" />
<path d="M 526.241666665 45.0 L 516.241666665 45.0" stroke="#FF0000" fill="none" stroke-width="4px" />
<path d="M 516.241666665 45.0 L 506.241666665 45.0" stroke="#FF0000" fill="none" stroke-width="4px" />
<path d="M 506.241666665 45.0 L 496.241666665 45.0" stroke="#FF0000" fill="none" stroke-width="4px" />
<path d="M 496.241666665 45.0 L 506.241666665 35.0" stroke="#FF0000" fill="none" stroke-width="4px" />
<path d="M 506.241666665 35.0 L 516.241666665 35.0" stroke="#FF0000" fill="none" stroke-width="4px" />
<path d="M 516.241666665 35.0 L 526.241666665 35.0" stroke="#FF0000" fill="none" stroke-width="4px" />
<path d="M 526.241666665 35.0 L 536.241666665 45.0" stroke="#FF0000" fill="none" stroke-width="4px" />
<path d="M 676.241666665 95.0 L 686.241666665 95.0" stroke="#FF0000" fill="none" stroke-width="4px" />
<path d="M 686.241666665 95.0 L 696.241666665 95.0" stroke="#FF0000" fill="none" stroke-width="4px" />
<path d="M 696.241666665 95.0 L 706.241666665 95.0" stroke="#FF0000" fill="none" stroke-width="4px" />
<path d="M 706.241666665 95.0 L 716.241666665 95.0" stroke="#FF0000" fill="none" stroke-width="4px" />
<path d="M 716.241666665 95.0 L 726.241666665 95.0" stroke="#FF0000" fill="none" stroke-width="4px" />
<path d="M 726.241666665 95.0 L 736.241666665 95.0" stroke="#FF0000" fill="none" stroke-width="4px" />
<path d="M 736.241666665 95.0 L 736.241666665 105.0" stroke="#FF0000" fill="none" stroke-width="4px" />
<path d="M 736.241666665 105.0 L 726.241666665 105.0" stroke="#FF0000" fill="none" stroke-width="4px" />
<path d="M 726.241666665 105.0 L 716.241666665 105.0" stroke="#FF0000" fill="none" stroke-width="4px" />
<path d="M 716.241666665 105.0 L 706.241666665 105.0" stroke="#FF0000" fill="none" stroke-width="4px" />
<path d="M 706.241666665 105.0 L 696.241666665 105.0" stroke="#FF0000" fill="none" stroke-width="4px" />
<path d="M 696.241666665 105.0 L 686.241666665 105.0" stroke="#FF0000" fill="none" stroke-width="4px" />
<path d="M 686.241666665 105.0 L 686.241666665 115.0" stroke="#FF0000" fill="none" stroke-width="4px" />
<path d="M 686.241666665 115.0 L 696.241666665 115.0" stroke="#FF0000" fill="none" stroke-width="4px" />
<path d="M 696.241666665 115.0 L 706.241666665 115.0" stroke="#FF0000" fill="none" stroke-width="4px" />
<path d="M 706.241666665 115.0 L 716.241666665 115.0" stroke="#FF0000" fill="none" stroke-width="4px" />
<path d="M 716.241666665 115.0 L 726.241666665 115.0" stroke="#FF0000" fill="none" stroke-width="4px" />
<path d="M 726.241666665 115.0 L 736.241666665 115.0" stroke="#FF0000" fill="none" stroke-width="4px" />
<path d="M 736.241666665 115.0 L 746.241666665 115.0" stroke="#FF0000" fill="none" stroke-width="4px" />
<path d="M 746.241666665 115.0 L 746.241666665 125.0" stroke="#FF0000" fill="none" stroke-width="4px" />
<path d="M 746.241666665 125.0 L 736.241666665 125.0" stroke="#FF0000" fill="none" stroke-width="4px" />
<path d="M 736.241666665 125.0 L 726.241666665 125.0" stroke="#FF0000" fill="none" stroke-width="4px" />
<path d="M 726.241666665 125.0 L 716.241666665 125.0" stroke="#FF0000" fill="none" stroke-width="4px" />
<path d="M 716.241666665 125.0 L 706.241666665 125.0" stroke="#FF0000" fill="none" stroke-width="4px" />
<path d="M 706.241666665 125.0 L 696.241666665 125.0" stroke="#FF0000" fill="none" stroke-width="4px" />
<path d="M 696.241666665 125.0 L 686.241666665 125.0" stroke="#FF0000" fill="none" stroke-width="4px" />
<path d="M 686.241666665 125.0 L 696.241666665 135.0" stroke="#FF0000" fill="none" stroke-width="4px" />
<path d="M 696.241666665 135.0 L 706.241666665 135.0" stroke="#FF0000" fill="none" stroke-width="4px" />
<path d="M 706.241666665 135.0 L 716.241666665 135.0" stroke="#FF0000" fill="none" stroke-width="4px" />
<path d="M 716.241666665 135.0 L 726.241666665 135.0" stroke="#FF0000" fill="none" stroke-width="4px" />
<path d="M 726.241666665 135.0 L 736.241666665 135.0" stroke="#FF0000" fill="none" stroke-width="4px" />
<path d="M 736.241666665 135.0 L 746.241666665 135.0" stroke="#FF0000" fill="none" stroke-width="4px" />
<path d="M 746.241666665 135.0 L 736.241666665 145.0" stroke="#FF0000" fill="none" stroke-width="4px" />
<path d="M 736.241666665 145.0 L 726.241666665 145.0" stroke="#FF0000" fill="none" stroke-width="4px" />
<path d="M 726.241666665 145.0 L 716.241666665 145.0" stroke="#FF0000" fill="none" stroke-width="4px" />
<path d="M 716.241666665 145.0 L 706.241666665 145.0" stroke="#FF0000" fill="none" stroke-width="4px" />
<path d="M 686.241666665 165.0 L 676.241666665 165.0" stroke="#FF0000" fill="none" stroke-width="4px" />
<path d="M 676.241666665 165.0 L 676.241666665 175.0" stroke="#FF0000" fill="none" stroke-width="4px" />
<path d="M 676.241666665 175.0 L 666.241666665 175.0" stroke="#FF0000" fill="none" stroke-width="4px" />
<path d="M 666.241666665 175.0 L 666.241666665 185.0" stroke="#FF0000" fill="none" stroke-width="4px" />
<path d="M 666.241666665 185.0 L 656.241666665 185.0" stroke="#FF0000" fill="none" stroke-width="4px" />
<path d="M 656.241666665 185.0 L 656.241666665 195.0" stroke="#FF0000" fill="none" stroke-width="4px" />
<path d="M 656.241666665 195.0 L 666.241666665 195.0" stroke="#FF0000" fill="none" stroke-width="4px" />
<path d="M 666.241666665 195.0 L 676.241666665 195.0" stroke="#FF0000" fill="none" stroke-width="4px" />
<path d="M 676.241666665 195.0 L 686.241666665 195.0" stroke="#FF0000" fill="none" stroke-width="4px" />
<path d="M 686.241666665 195.0 L 696.241666665 195.0" stroke="#FF0000" fill="none" stroke-width="4px" />
<path d="M 696.241666665 195.0 L 706.241666665 195.0" stroke="#FF0000" fill="none" stroke-width="4px" />
<path d="M 706.241666665 195.0 L 716.241666665 195.0" stroke="#FF0000" fill="none" stroke-width="4px" />
<path d="M 716.241666665 195.0 L 726.241666665 195.0" stroke="#FF0000" fill="none" stroke-width="4px" />
<path d="M 726.241666665 195.0 L 736.241666665 195.0" stroke="#FF0000" fill="none" stroke-width="4px" />
<path d="M 736.241666665 195.0 L 746.241666665 195.0" stroke="#FF0000" fill="none" stroke-width="4px" />
<path d="M 746.241666665 195.0 L 746.241666665 205.0" stroke="#FF0000" fill="none" stroke-width="4px" />
<path d="M 746.241666665 205.0 L 736.241666665 205.0" stroke="#FF0000" fill="none" stroke-width="4px" />
<path d="M 736.241666665 205.0 L 726.241666665 205.0" stroke="#FF0000" fill="none" stroke-width="4px" />
<path d="M 726.241666665 205.0 L 716.241666665 205.0" stroke="#FF0000" fill="none" stroke-width="4px" />
<path d="M 716.241666665 205.0 L 706.241666665 205.0" stroke="#FF0000" fill="none" stroke-width="4px" />
<path d="M 706.241666665 205.0 L 696.241666665 205.0" stroke="#FF0000" fill="none" stroke-width="4px" />
<path d="M 696.241666665 205.0 L 686.241666665 205.0" stroke="#FF0000" fill="none" stroke-width="4px" />
<path d="M 686.241666665 205.0 L 676.241666665 205.0" stroke="#FF0000" fill="none" stroke-width="4px" />
<path d="M 676.241666665 205.0 L 666.241666665 205.0" stroke="#FF0000" fill="none" stroke-width="4px" />
<path d="M 666.241666665 205.0 L 656.241666665 205.0" stroke="#FF0000" fill="none" stroke-width="4px" />
<path d="M 656.241666665 205.0 L 666.241666665 215.0" stroke="#FF0000" fill="none" stroke-width="4px" />
<path d="M 666.241666665 215.0 L 676.241666665 215.0" stroke="#FF0000" fill="none" stroke-width="4px" />
<path d="M 676.241666665 215.0 L 686.241666665 215.0" stroke="#FF0000" fill="none" stroke-width="4px" />
<path d="M 686.241666665 215.0 L 696.241666665 215.0" stroke="#FF0000" fill="none" stroke-width="4px" />
<path d="M 696.241666665 215.0 L 706.241666665 215.0" stroke="#FF0000" fill="none" stroke-width="4px" />
<path d="M 706.241666665 215.0 L 716.241666665 215.0" stroke="#FF0000" fill="none" stroke-width="4px" />
<path d="M 716.241666665 215.0 L 726.241666665 215.0" stroke="#FF0000" fill="none" stroke-width="4px" />
<path d="M 726.241666665 215.0 L 736.241666665 215.0" stroke="#FF0000" fill="none" stroke-width="4px" />
<path d="M 736.241666665 215.0 L 736.241666665 225.0" stroke="#FF0000" fill="none" stroke-width="4px" />
<path d="M 736.241666665 225.0 L 726.241666665 225.0" stroke="#FF0000" fill="none" stroke-width="4px" />
<path d="M 726.241666665 225.0 L 716.241666665 225.0" stroke="#FF0000" fill="none" stroke-width="4px" />
<path d="M 716.241666665 225.0 L 706.241666665 225.0" stroke="#FF0000" fill="none" stroke-width="4px" />
<path d="M 706.241666665 225.0 L 696.241666665 225.0" stroke="#FF0000" fill="none" stroke-width="4px" />
<path d="M 696.241666665 225.0 L 686.241666665 225.0" stroke="#FF0000" fill="none" stroke-width="4px" />
<path d="M 686.241666665 225.0 L 676.241666665 225.0" stroke="#FF0000" fill="none" stroke-width="4px" />
<path d="M 676.241666665 225.0 L 676.241666665 235.0" stroke="#FF0000" fill="none" stroke-width="4px" />
<path d="M 676.241666665 235.0 L 686.241666665 235.0" stroke="#FF0000" fill="none" stroke-width="4px" />
<path d="M 686.241666665 235.0 L 696.241666665 235.0" stroke="#FF0000" fill="none" stroke-width="4px" />
<path d="M 696.241666665 235.0 L 706.241666665 235.0" stroke="#FF0000" fill="none" stroke-width="4px" />
<path d="M 706.241666665 235.0 L 716.241666665 235.0" stroke="#FF0000" fill="none" stroke-width="4px" />
<path d="M 716.241666665 235.0 L 726.241666665 235.0" stroke="#FF0000" fill="none" stroke-width="4px" />
<path d="M 726.241666665 185.0 L 716.241666665 185.0" stroke="#FF0000" fill="none" stroke-width="4px" />
<path d="M 716.241666665 185.0 L 706.241666665 185.0" stroke="#FF0000" fill="none" stroke-width="4px" />
<path d="M 706.241666665 185.0 L 696.241666665 185.0" stroke="#FF0000" fill="none" stroke-width="4px" />
<path d="M 696.241666665 185.0 L 686.241666665 185.0" stroke="#FF0000" fill="none" stroke-width="4px" />
<path d="M 686.241666665 185.0 L 676.241666665 185.0" stroke="#FF0000" fill="none" stroke-width="4px" />
<path d="M 676.241666665 185.0 L 686.241666665 175.0" stroke="#FF0000" fill="none" stroke-width="4px" />
<path d="M 686.241666665 175.0 L 696.241666665 175.0" stroke="#FF0000" fill="none" stroke-width="4px" />
<path d="M 696.241666665 175.0 L 706.241666665 175.0" stroke="#FF0000" fill="none" stroke-width="4px" />
<path d="M 706.241666665 175.0 L 716.241666665 175.0" stroke="#FF0000" fill="none" stroke-width="4px" />
<path d="M 716.241666665 175.0 L 726.241666665 175.0" stroke="#FF0000" fill="none" stroke-width="4px" />
<path d="M 726.241666665 175.0 L 736.241666665 175.0" stroke="#FF0000" fill="none" stroke-width="4px" />
<path d="M 736.241666665 175.0 L 736.241666665 185.0" stroke="#FF0000" fill="none" stroke-width="4px" />
<path d="M 736.241666665 185.0 L 746.241666665 185.0" stroke="#FF0000" fill="none" stroke-width="4px" />
<path d="M 726.241666665 85.0 L 716.241666665 85.0" stroke="#FF0000" fill="none" stroke-width="4px" />
<path d="M 716.241666665 85.0 L 706.241666665 85.0" stroke="#FF0000" fill="none" stroke-width="4px" />
<path d="M 706.241666665 85.0 L 696.241666665 85.0" stroke="#FF0000" fill="none" stroke-width="4px" />
<path d="M 696.241666665 85.0 L 686.241666665 85.0" stroke="#FF0000" fill="none" stroke-width="4px" />
<path d="M 686.241666665 85.0 L 696.241666665 75.0" stroke="#FF0000" fill="none" stroke-width="4px" />
<path d="M 726.241666665 65.0 L 736.241666665 65.0" stroke="#FF0000" fill="none" stroke-width="4px" />
<path d="M 736.241666665 65.0 L 746.241666665 65.0" stroke="#FF0000" fill="none" stroke-width="4px" />
<path d="M 746.241666665 65.0 L 756.241666665 65.0" stroke="#FF0000" fill="none" stroke-width="4px" />
<path d="M 756.241666665 65.0 L 766.241666665 65.0" stroke="#FF0000" fill="none" stroke-width="4px" />
<path d="M 766.241666665 65.0 L 766.241666665 55.0" stroke="#FF0000" fill="none" stroke-width="4px" />
<path d="M 766.241666665 55.0 L 756.241666665 55.0" stroke="#FF0000" fill="none" stroke-width="4px" />
<path d="M 756.241666665 55.0 L 746.241666665 55.0" stroke="#FF0000" fill="none" stroke-width="4px" />
<path d="M 746.241666665 55.0 L 736.241666665 55.0" stroke="#FF0000" fill="none" stroke-width="4px" />
<path d="M 736.241666665 55.0 L 726.241666665 55.0" stroke="#FF0000" fill="none" stroke-width="4px" />
<path d="M 726.241666665 55.0 L 716.241666665 55.0" stroke="#FF0000" fill="none" stroke-width="4px" />
<path d="M 716.241666665 55.0 L 716.241666665 45.0" stroke="#FF0000" fill="none" stroke-width="4px" />
<path d="M 716.241666665 45.0 L 726.241666665 45.0" stroke="#FF0000" fill="none" stroke-width="4px" />
<path d="M 726.241666665 45.0 L 736.241666665 45.0" stroke="#FF0000" fill="none" stroke-width="4px" />
<path d="M 736.241666665 45.0 L 746.241666665 45.0" stroke="#FF0000" fill="none" stroke-width="4px" />
<path d="M 746.241666665 45.0 L 756.241666665 45.0" stroke="#FF0000" fill="none" stroke-width="4px" />
<path d="M 756.241666665 45.0 L 766.241666665 45.0" stroke="#FF0000" fill="none" stroke-width="4px" />
<path d="M 766.241666665 45.0 L 776.241666665 45.0" stroke="#FF0000" fill="none" stroke-width="4px" />
<path d="M 776.241666665 45.0 L 776.241666665 55.0" stroke="#FF0000" fill="none" stroke-width="4px" />
<path d="M 766.241666665 35.0 L 756.241666665 35.0" stroke="#FF0000" fill="none" stroke-width="4px" />
<path d="M 756.241666665 35.0 L 746.241666665 35.0" stroke="#FF0000" fill="none" stroke-width="4px" />
<path d="M 746.241666665 35.0 L 736.241666665 35.0" stroke="#FF0000" fill="none" stroke-width="4px" />
<path d="M 736.241666665 35.0 L 726.241666665 35.0" stroke="#FF0000" fill="none" stroke-width="4px" />
<path d="M 726.241666665 35.0 L 716.241666665 35.0" stroke="#FF0000" fill="none" stroke-width="4px" />
<path d="M 716.241666665 35.0 L 716.241666665 25.0" stroke="#FF0000" fill="none" stroke-width="4px" />
<path d="M 716.241666665 25.0 L 726.241666665 25.0" stroke="#FF0000" fill="none" stroke-width="4px" />
<path d="M 726.241666665 25.0 L 736.241666665 25.0" stroke="#FF0000" fill="none" stroke-width="4px" />
<path d="M 736.241666665 25.0 L 746.241666665 25.0" stroke="#FF0000" fill="none" stroke-width="4px" />
<path d="M 746.241666665 25.0 L 756.241666665 25.0" stroke="#FF0000" fill="none" stroke-width="4px" />
<path d="M 756.241666665 25.0 L 746.241666665 15.0" stroke="#FF0000" fill="none" stroke-width="4px" />
<path d="M 746.241666665 15.0 L 736.241666665 15.0" stroke="#FF0000" fill="none" stroke-width="4px" />
<path d="M 736.241666665 15.0 L 726.241666665 15.0" stroke="#FF0000" fill="none" stroke-width="4px" />
<path d="M 736.241666665 75.0 L 746.241666665 75.0" stroke="#FF0000" fill="none" stroke-width="4px" />
<path d="M 746.241666665 75.0 L 756.241666665 75.0" stroke="#FF0000" fill="none" stroke-width="4px" />
<path d="M 936.241666665 75.0 L 946.241666665 75.0" stroke="#FF0000" fill="none" stroke-width="4px" />
<path d="M 946.241666665 75.0 L 956.241666665 75.0" stroke="#FF0000" fill="none" stroke-width="4px" />
<path d="M 956.241666665 75.0 L 966.241666665 75.0" stroke="#FF0000" fill="none" stroke-width="4px" />
<path d="M 966.241666665 75.0 L 966.241666665 85.0" stroke="#FF0000" fill="none" stroke-width="4px" />
<path d="M 966.241666665 85.0 L 956.241666665 85.0" stroke="#FF0000" fill="none" stroke-width="4px" />
<path d="M 956.241666665 85.0 L 946.241666665 85.0" stroke="#FF0000" fill="none" stroke-width="4px" />
<path d="M 946.241666665 85.0 L 936.241666665 85.0" stroke="#FF0000" fill="none" stroke-width="4px" />
<path d="M 936.241666665 85.0 L 946.241666665 95.0" stroke="#FF0000" fill="none" stroke-width="4px" />
<path d="M 946.241666665 95.0 L 956.241666665 95.0" stroke="#FF0000" fill="none" stroke-width="4px" />
<path d="M 956.241666665 65.0 L 946.241666665 65.0" stroke="#FF0000" fill="none" stroke-width="4px" />
<path d="M 1096.24166667 45.0 L 1106.24166667 45.0" stroke="#FF0000" fill="none" stroke-width="4px" />
<path d="M 1106.24166667 45.0 L 1116.24166667 45.0" stroke="#FF0000" fill="none" stroke-width="4px" />
<path d="M 1116.24166667 45.0 L 1126.24166667 45.0" stroke="#FF0000" fill="none" stroke-width="4px" />
<path d="M 1126.24166667 45.0 L 1136.24166667 45.0" stroke="#FF0000" fill="none" stroke-width="4px" />
<path d="M 1136.24166667 45.0 L 1146.24166667 45.0" stroke="#FF0000" fill="none" stroke-width="4px" />
<path d="M 1146.24166667 45.0 L 1156.24166667 45.0" stroke="#FF0000" fill="none" stroke-width="4px" />
<path d="M 1156.24166667 45.0 L 1156.24166667 55.0" stroke="#FF0000" fill="none" stroke-width="4px" />
<path d="M 1156.24166667 55.0 L 1146.24166667 55.0" stroke="#FF0000" fill="none" stroke-width="4px" />
<path d="M 1146.24166667 55.0 L 1136.24166667 55.0" stroke="#FF0000" fill="none" stroke-width="4px" />
<path d="M 1136.24166667 55.0 L 1126.24166667 55.0" stroke="#FF0000" fill="none" stroke-width="4px" />
<path d="M 1126.24166667 55.0 L 1116.24166667 55.0" stroke="#FF0000" fill="none" stroke-width="4px" />
<path d="M 1116.24166667 55.0 L 1106.24166667 55.0" stroke="#FF0000" fill="none" stroke-width="4px" />
<path d="M 1106.24166667 55.0 L 1116.24166667 65.0" stroke="#FF0000" fill="none" stroke-width="4px" />
<path d="M 1116.24166667 65.0 L 1126.24166667 65.0" stroke="#FF0000" fill="none" stroke-width="4px" />
<path d="M 1126.24166667 65.0 L 1136.24166667 65.0" stroke="#FF0000" fill="none" stroke-width="4px" />
<path d="M 1136.24166667 65.0 L 1146.24166667 65.0" stroke="#FF0000" fill="none" stroke-width="4px" />
<path d="M 1146.24166667 65.0 L 1136.24166667 75.0" stroke="#FF0000" fill="none" stroke-width="4px" />
<path d="M 1136.24166667 75.0 L 1126.24166667 75.0" stroke="#FF0000" fill="none" stroke-width="4px" />
<path d="M 1126.24166667 35.0 L 1116.24166667 35.0" stroke="#FF0000" fill="none" stroke-width="4px" />
<path d="M 1116.24166667 35.0 L 1106.24166667 35.0" stroke="#FF0000" fill="none" stroke-width="4px" />
<path d="M 1106.24166667 35.0 L 1096.24166667 35.0" stroke="#FF0000" fill="none" stroke-width="4px" />
<path d="M 1096.24166667 35.0 L 1106.24166667 25.0" stroke="#FF0000" fill="none" stroke-width="4px" />
<path d="M 1106.24166667 25.0 L 1116.24166667 25.0" stroke="#FF0000" fill="none" stroke-width="4px" />
<path d="M 1116.24166667 25.0 L 1126.24166667 25.0" stroke="#FF0000" fill="none" stroke-width="4px" />
<path d="M 1126.24166667 25.0 L 1136.24166667 25.0" stroke="#FF0000" fill="none" stroke-width="4px" />
<path d="M 1136.24166667 25.0 L 1146.24166667 25.0" stroke="#FF0000" fill="none" stroke-width="4px" />
<path d="M 1146.24166667 25.0 L 1146.24166667 35.0" stroke="#FF0000" fill="none" stroke-width="4px" />
<path d="M 1146.24166667 35.0 L 1136.24166667 35.0" stroke="#FF0000" fill="none" stroke-width="4px" />
<path d="M 1136.24166667 35.0 L 1156.24166667 35.0" stroke="#FF0000" fill="none" stroke-width="4px" />
<path d="M 1136.24166667 15.0 L 1126.24166667 15.0" stroke="#FF0000" fill="none" stroke-width="4px" />
<path d="M 1126.24166667 15.0 L 1116.24166667 15.0" stroke="#FF0000" fill="none" stroke-width="4px" />
<path d="M 966.241666665 205.0 L 956.241666665 205.0" stroke="#FF0000" fill="none" stroke-width="4px" />
<path d="M 956.241666665 205.0 L 946.241666665 205.0" stroke="#FF0000" fill="none" stroke-width="4px" />
<path d="M 946.241666665 205.0 L 936.241666665 205.0" stroke="#FF0000" fill="none" stroke-width="4px" />
<path d="M 936.241666665 205.0 L 936.241666665 215.0" stroke="#FF0000" fill="none" stroke-width="4px" />
<path d="M 936.241666665 215.0 L 926.241666665 215.0" stroke="#FF0000" fill="none" stroke-width="4px" />
<path d="M 926.241666665 215.0 L 926.241666665 225.0" stroke="#FF0000" fill="none" stroke-width="4px" />
<path d="M 926.241666665 225.0 L 936.241666665 225.0" stroke="#FF0000" fill="none" stroke-width="4px" />
<path d="M 936.241666665 225.0 L 946.241666665 225.0" stroke="#FF0000" fill="none" stroke-width="4px" />
<path d="M 946.241666665 225.0 L 956.241666665 225.0" stroke="#FF0000" fill="none" stroke-width="4px" />
<path d="M 956.241666665 225.0 L 966.241666665 225.0" stroke="#FF0000" fill="none" stroke-width="4px" />
<path d="M 966.241666665 225.0 L 976.241666665 225.0" stroke="#FF0000" fill="none" stroke-width="4px" />
<path d="M 976.241666665 225.0 L 976.241666665 235.0" stroke="#FF0000" fill="none" stroke-width="4px" />
<path d="M 976.241666665 235.0 L 966.241666665 235.0" stroke="#FF0000" fill="none" stroke-width="4px" />
<path d="M 966.241666665 235.0 L 956.241666665 235.0" stroke="#FF0000" fill="none" stroke-width="4px" />
<path d="M 956.241666665 235.0 L 946.241666665 235.0" stroke="#FF0000" fill="none" stroke-width="4px" />
<path d="M 946.241666665 235.0 L 936.241666665 235.0" stroke="#FF0000" fill="none" stroke-width="4px" />
<path d="M 936.241666665 235.0 L 926.241666665 235.0" stroke="#FF0000" fill="none" stroke-width="4px" />
<path d="M 946.241666665 215.0 L 956.241666665 215.0" stroke="#FF0000" fill="none" stroke-width="4px" />
<path d="M 956.241666665 215.0 L 966.241666665 215.0" stroke="#FF0000" fill="none" stroke-width="4px" />
<path d="M 966.241666665 215.0 L 976.241666665 215.0" stroke="#FF0000" fill="none" stroke-width="4px" />
</svg>