<svg width="2472.26666667" height="235.0" xmlns="http://www.w3.org/2000/svg" version="1.1">
<path d="M 0.0 235.0 L 1900.0 235.0 L 1900.0 0.0 L 0.0 0.0 L 0.0 235.0" stroke="#000000" fill="none" stroke-width="3px" />
<path d="M 2472.26666667 235.0 L 1800.0 235.0 L 1800.0 0.0 L 2472.26666667 0.0 L 2472.26666667 235.0" stroke="#000000" fill="none" stroke-width="3px" />
<path d="M 10.0 257.5 L 0.0 247.5 L 10.0 237.5" stroke="#969696" fill="none" stroke-width="1px" />
<path d="M 10.0 237.5 L 1890.0 237.5" stroke="#969696" fill="none" stroke-width="1px" />
<path d="M 1890.0 237.5 L 1900.0 227.5 L 1890.0 217.5" stroke="#969696" fill="none" stroke-width="1px" />
<path d="M 1890.0 217.5 L 10.0 217.5" stroke="#969696" fill="none" stroke-width="1px" />
<path d="M 10.0 217.5 L 0.0 207.5 L 10.0 197.5" stroke="#969696" fill="none" stroke-width="1px" />
<path d="M 10.0 197.5 L 1890.0 197.5" stroke="#969696" fill="none" stroke-width="1px" />
<path d="M 1890.0 197.5 L 1900.0 187.5 L 1890.0 177.5" stroke="#969696" fill="none" stroke-width="1px" />
<path d="M 1890.0 177.5 L 10.0 177.5" stroke="#969696" fill="none" stroke-width="1px" />
<path d="M 10.0 177.5 L 0.0 167.5 L 10.0 157.5" stroke="#969696" fill="none" stroke-width="1px" />
<path d="M 10.0 157.5 L 1890.0 157.5" stroke="#969696" fill="none" stroke-width="1px" />
<path d="M 1890.0 157.5 L 1900.0 147.5 L 1890.0 137.5" stroke="#969696" fill="none" stroke-width="1px" />
<path d="M 1890.0 137.5 L 10.0 137.5" stroke="#969696" fill="none" stroke-width="1px" />
<path d="M 10.0 137.5 L 0.0 127.5 L 10.0 117.5" stroke="#969696" fill="none" stroke-width="1px" />
<path d="M 10.0 117.5 L 1890.0 117.5" stroke="#969696" fill="none" stroke-width="1px" />
<path d="M 1890.0 117.5 L 1900.0 107.5 L 1890.0 97.5" stroke="#969696" fill="none" stroke-width="1px" />
<path d="M 1890.0 97.5 L 10.0 97.5" stroke="#969696" fill="none" stroke-width="1px" />
<path d="M 10.0 97.5 L 0.0 87.5 L 10.0 77.5" stroke="#969696" fill="none" stroke-width="1px" />
<path d="M 10.0 77.5 L 1890.0 77.5" stroke="#969696" fill="none" stroke-width="1px" />
<path d="M 1890.0 77.5 L 1900.0 67.5 L 1890.0 57.5" stroke="#969696" fill="none" stroke-width="1px" />
<path d="M 1890.0 57.5 L 10.0 57.5" stroke="#969696" fill="none" stroke-width="1px" />
<path d="M 10.0 57.5 L 0.0 47.5 L 10.0 37.5" stroke="#969696" fill="none" stroke-width="1px" />
<path d="M 10.0 37.5 L 1890.0 37.5" stroke="#969696" fill="none" stroke-width="1px" />
<path d="M 1890.0 37.5 L 1900.0 27.5 L 1890.0 17.5" stroke="#969696" fill="none" stroke-width="1px" />
<path d="M 1890.0 17.5 L 10.0 17.5" stroke="#969696" fill="none" stroke-width="1px" />
<path d="M 10.0 17.5 L 0.0 7.5 L 10.0 -2.5" stroke="#969696" fill="none" stroke-width="1px" />
<path d="M 10.0 -2.5 L 1890.0 -2.5" stroke="#969696" fill="none" stroke-width="1px" />
<path d="M 1890.0 -2.5 L 1900.0 -12.5 L 1890.0 -22.5" stroke="#969696" fill="none" stroke-width="1px" />
<path d="M 2462.26666667 257.5 L 2472.26666667 247.5 L 2462.26666667 237.5" stroke="#969696" fill="none" stroke-width="1px" />
<path d="M 2462.26666667 237.5 L 1810.0 237.5" stroke="#969696" fill="none" stroke-width="1px" />
<path d="M 1810.0 237.5 L 1800.0 227.5 L 1810.0 217.5" stroke="#969696" fill="none" stroke-width="1px" />
<path d="M 1810.0 217.5 L 2462.26666667 217.5" stroke="#969696" fill="none" stroke-width="1px" />
<path d="M 2462.26666667 217.5 L 2472.26666667 207.5 L 2462.26666667 197.5" stroke="#969696" fill="none" stroke-width="1px" />
<path d="M 2462.26666667 197.5 L 1810.0 197.5" stroke="#969696" fill="none" stroke-width="1px" />
<path d="M 1810.0 197.5 L 1800.0 187.5 L 1810.0 177.5" stroke="#969696" fill="none" stroke-width="1px" />
<path d="M 1810.0 177.5 L 2462.26666667 177.5" stroke="#969696" fill="none" stroke-width="1px" />
<path d="M 2462.26666667 177.5 L 2472.26666667 167.5 L 2462.26666667 157.5" stroke="#969696" fill="none" stroke-width="1px" />
<path d="M 2462.26666667 157.5 L 1810.0 157.5" stroke="#969696" fill="none" stroke-width="1px" />
<path d="M 1810.0 157.5 L 1800.0 147.5 L 1810.0 137.5" stroke="#969696" fill="none" stroke-width="1px" />
<path d="M 1810.0 137.5 L 2462.26666667 137.5" stroke="#969696" fill="none" stroke-width="1px" />
<path d="M 2462.26666667 137.5 L 2472.26666667 127.5 L 2462.26666667 117.5" stroke="#969696" fill="none" stroke-width="1px" />
<path d="M 2462.26666667 117.5 L 1810.0 117.5" stroke="#969696" fill="none" stroke-width="1px" />
<path d="M 1810.0 117.5 L 1800.0 107.5 L 1810.0 97.5" stroke="#969696" fill="none" stroke-width="1px" />
<path d="M 1810.0 97.5 L 2462.26666667 97.5" stroke="#969696" fill="none" stroke-width="1px" />
<path d="M 2462.26666667 97.5 L 2472.26666667 87.5 L 2462.26666667 77.5" stroke="#969696" fill="none" stroke-width="1px" />
<path d="M 2462.26666667 77.5 L 1810.0 77.5" stroke="#969696" fill="none" stroke-width="1px" />
<path d="M 1810.0 77.5 L 1800.0 67.5 L 1810.0 57.5" stroke="#969696" fill="none" stroke-width="1px" />
<path d="M 1810.0 57.5 L 2462.26666667 57.5" stroke="#969696" fill="none" stroke-width="1px" />
<path d="M 2462.26666667 57.5 L 2472.26666667 47.5 L 2462.26666667 37.5" stroke="#969696" fill="none" stroke-width="1px" />
<path d="M 2462.26666667 37.5 L 1810.0 37.5" stroke="#969696" fill="none" stroke-width="1px" />
<path d="M 1810.0 37.5 L 1800.0 27.5 L 1810.0 17.5" stroke="#969696" fill="none" stroke-width="1px" />
<path d="M 1810.0 17.5 L 2462.26666667 17.5" stroke="#969696" fill="none" stroke-width="1px" />
<path d="M 2462.26666667 17.5 L 2472.26666667 7.5 L 2462.26666667 -2.5" stroke="#969696" fill="none" stroke-width="1px" />
<path d="M 2462.26666667 -2.5 L 1810.0 -2.5" stroke="#969696" fill="none" stroke-width="1px" />
<path d="M 1810.0 -2.5 L 1800.0 -12.5 L 1810.0 -22.5" stroke="#969696" fill="none" stroke-width="1px" />
<path d="M 0.0 235.0 L 420.0 235.0" stroke="#0095FF" fill="none" stroke-width="2px" />
<path d="M 420.0 235.0 L 420.0 195.0" stroke="#0095FF" fill="none" stroke-width="2px" />
<path d="M 440.0 225.0 L 460.0 225.0" stroke="#0095FF" fill="none" stroke-width="2px" />
<path d="M 460.0 225.0 L 460.0 235.0" stroke="#0095FF" fill="none" stroke-width="2px" />
<path d="M 490.0 235.0 L 490.0 185.0" stroke="#0095FF" fill="none" stroke-width="2px" />
<path d="M 520.0 185.0 L 500.0 185.0" stroke="#0095FF" fill="none" stroke-width="2px" />
<path d="M 500.0 185.0 L 500.0 165.0" stroke="#0095FF" fill="none" stroke-width="2px" />
<path d="M 450.0 145.0 L 440.0 145.0" stroke="#0095FF" fill="none" stroke-width="2px" />
<path d="M 440.0 145.0 L 440.0 75.0" stroke="#0095FF" fill="none" stroke-width="2px" />
<path d="M 450.0 65.0 L 450.0 35.0" stroke="#0095FF" fill="none" stroke-width="2px" />
<path d="M 460.0 35.0 L 390.0 35.0" stroke="#0095FF" fill="none" stroke-width="2px" />
<path d="M 390.0 35.0 L 390.0 45.0" stroke="#0095FF" fill="none" stroke-width="2px" />
<path d="M 370.0 85.0 L 370.0 35.0" stroke="#0095FF" fill="none" stroke-width="2px" />
<path d="M 380.0 35.0 L 1370.0 35.0" stroke="#0095FF" fill="none" stroke-width="2px" />
<path d="M 1370.0 35.0 L 1370.0 75.0" stroke="#0095FF" fill="none" stroke-width="2px" />
<path d="M 1400.0 105.0 L 1420.0 105.0" stroke="#0095FF" fill="none" stroke-width="2px" />
<path d="M 1420.0 105.0 L 1420.0 85.0" stroke="#0095FF" fill="none" stroke-width="2px" />
<path d="M 1420.0 85.0 L 1400.0 85.0" stroke="#0095FF" fill="none" stroke-width="2px" />
<path d="M 1400.0 85.0 L 1400.0 65.0" stroke="#0095FF" fill="none" stroke-width="2px" />
<path d="M 1380.0 65.0 L 1510.0 65.0" stroke="#0095FF" fill="none" stroke-width="2px" />
<path d="M 1510.0 65.0 L 1510.0 45.0" stroke="#0095FF" fill="none" stroke-width="2px" />
<path d="M 1560.0 25.0 L 1540.0 25.0" stroke="#0095FF" fill="none" stroke-width="2px" />
<path d="M 1540.0 25.0 L 1540.0 15.0" stroke="#0095FF" fill="none" stroke-width="2px" />
<path d="M 1530.0 5.0 L 1530.0 55.0" stroke="#0095FF" fill="none" stroke-width="2px" />
<path d="M 1540.0 55.0 L 1660.0 55.0" stroke="#0095FF" fill="none" stroke-width="2px" />
<path d="M 1660.0 55.0 L 1660.0 95.0" stroke="#0095FF" fill="none" stroke-width="2px" />
<path d="M 1680.0 135.0 L 1680.0 85.0" stroke="#0095FF" fill="none" stroke-width="2px" />
<path d="M 2472.26666667 235.0 L 2390.0 235.0" stroke="#0095FF" fill="none" stroke-width="2px" />
<path d="M 2390.0 235.0 L 2390.0 185.0" stroke="#0095FF" fill="none" stroke-width="2px" />
<path d="M 2310.0 205.0 L 2340.0 205.0" stroke="#0095FF" fill="none" stroke-width="2px" />
<path d="M 2350.0 205.0 L 2350.0 165.0" stroke="#0095FF" fill="none" stroke-width="2px" />
<path d="M 2360.0 165.0 L 2360.0 145.0" stroke="#0095FF" fill="none" stroke-width="2px" />
<path d="M 2370.0 145.0 L 2370.0 125.0" stroke="#0095FF" fill="none" stroke-width="2px" />
<path d="M 2390.0 125.0 L 2410.0 125.0" stroke="#0095FF" fill="none" stroke-width="2px" />
<path d="M 2410.0 125.0 L 2410.0 145.0" stroke="#0095FF" fill="none" stroke-width="2px" />
<path d="M 2410.0 145.0 L 2400.0 145.0" stroke="#0095FF" fill="none" stroke-width="2px" />
<path d="M 2400.0 145.0 L 2400.0 175.0" stroke="#0095FF" fill="none" stroke-width="2px" />
<path d="M 2390.0 175.0 L 2340.0 175.0" stroke="#0095FF" fill="none" stroke-width="2px" />
<path d="M 2340.0 175.0 L 2340.0 125.0" stroke="#0095FF" fill="none" stroke-width="2px" />
<path d="M 2330.0 115.0 L 2310.0 115.0" stroke="#0095FF" fill="none" stroke-width="2px" />
<path d="M 2310.0 115.0 L 2310.0 105.0" stroke="#0095FF" fill="none" stroke-width="2px" />
<path d="M 2310.0 105.0 L 2030.0 105.0" stroke="#0095FF" fill="none" stroke-width="2px" />
<path d="M 2030.0 105.0 L 2030.0 25.0" stroke="#0095FF" fill="none" stroke-width="2px" />
<path d="M 1970.0 55.0 L 1950.0 55.0" stroke="#0095FF" fill="none" stroke-width="2px" />
<path d="M 1950.0 55.0 L 1950.0 65.0" stroke="#0095FF" fill="none" stroke-width="2px" />
<path d="M 1930.0 65.0 L 1930.0 15.0" stroke="#0095FF" fill="none" stroke-width="2px" />
<path d="M 1940.0 15.0 L 1940.0 -5.0" stroke="#0095FF" fill="none" stroke-width="2px" />
<path d="M 1900.0 -5.0 L 1950.0 -5.0" stroke="#0095FF" fill="none" stroke-width="2px" />
<path d="M 420.0 195.0 L 430.0 195.0" stroke="#FF0000" fill="none" stroke-width="4px" />
<path d="M 430.0 195.0 L 440.0 195.0" stroke="#FF0000" fill="none" stroke-width="4px" />
<path d="M 440.0 195.0 L 450.0 195.0" stroke="#FF0000" fill="none" stroke-width="4px" />
<path d="M 450.0 195.0 L 460.0 195.0" stroke="#FF0000" fill="none" stroke-width="4px" />
<path d="M 460.0 195.0 L 470.0 195.0" stroke="#FF0000" fill="none" stroke-width="4px" />
<path d="M 470.0 195.0 L 480.0 195.0" stroke="#FF0000" fill="none" stroke-width="4px" />
<path d="M 480.0 195.0 L 490.0 195.0" stroke="#FF0000" fill="none" stroke-width="4px" />
<path d="M 490.0 195.0 L 500.0 195.0" stroke="#FF0000" fill="none" stroke-width="4px" />
<path d="M 500.0 195.0 L 510.0 195.0" stroke="#FF0000" fill="none" stroke-width="4px" />
<path d="M 510.0 195.0 L 520.0 195.0" stroke="#FF0000" fill="none" stroke-width="4px" />
<path d="M 520.0 195.0 L 520.0 205.0" stroke="#FF0000" fill="none" stroke-width="4px" />
<path d="M 520.0 205.0 L 510.0 205.0" stroke="#FF0000" fill="none" stroke-width="4px" />
<path d="M 510.0 205.0 L 500.0 205.0" stroke="#FF0000" fill="none" stroke-width="4px" />
<path d="M 500.0 205.0 L 490.0 205.0" stroke="#FF0000" fill="none" stroke-width="4px" />
<path d="M 490.0 205.0 L 480.0 205.0" stroke="#FF0000" fill="none" stroke-width="4px" />
<path d="M 480.0 205.0 L 470.0 205.0" stroke="#FF0000" fill="none" stroke-width="4px" />
<path d="M 470.0 205.0 L 460.0 205.0" stroke="#FF0000" fill="none" stroke-width="4px" />
<path d="M 460.0 205.0 L 450.0 205.0" stroke="#FF0000" fill="none" stroke-width="4px" />
<path d="M 450.0 205.0 L 440.0 205.0" stroke="#FF0000" fill="none" stroke-width="4px" />
<path d="M 440.0 205.0 L 430.0 205.0" stroke="#FF0000" fill="none" stroke-width="4px" />
<path d="M 430.0 205.0 L 430.0 215.0" stroke="#FF0000" fill="none" stroke-width="4px" />
<path d="M 430.0 215.0 L 440.0 215.0" stroke="#FF0000" fill="none" stroke-width="4px" />
<path d="M 440.0 215.0 L 450.0 215.0" stroke="#FF0000" fill="none" stroke-width="4px" />
<path d="M 450.0 215.0 L 460.0 215.0" stroke="#FF0000" fill="none" stroke-width="4px" />
<path d="M 460.0 215.0 L 470.0 215.0" stroke="#FF0000" fill="none" stroke-width="4px" />
<path d="M 470.0 215.0 L 480.0 215.0" stroke="#FF0000" fill="none" stroke-width="4px" />
<path d="M 480.0 215.0 L 490.0 215.0" stroke="#FF0000" fill="none" stroke-width="4px" />
<path d="M 490.0 215.0 L 500.0 215.0" stroke="#FF0000" fill="none" stroke-width="4px" />
<path d="M 500.0 215.0 L 510.0 215.0" stroke="#FF0000" fill="none" stroke-width="4px" />
<path d="M 510.0 215.0 L 500.0 225.0" stroke="#FF0000" fill="none" stroke-width="4px" />
<path d="M 500.0 225.0 L 490.0 225.0" stroke="#FF0000" fill="none" stroke-width="4px" />
<path d="M 490.0 225.0 L 480.0 225.0" stroke="#FF0000" fill="none" stroke-width="4px" />
<path d="M 480.0 225.0 L 470.0 225.0" stroke="#FF0000" fill="none" stroke-width="4px" />
<path d="M 470.0 225.0 L 460.0 225.0" stroke="#FF0000" fill="none" stroke-width="4px" />
<path d="M 460.0 225.0 L 450.0 225.0" stroke="#FF0000" fill="none" stroke-width="4px" />
<path d="M 450.0 225.0 L 440.0 225.0" stroke="#FF0000" fill="none" stroke-width="4px" />
<path d="M 460.0 235.0 L 470.0 235.0" stroke="#FF0000" fill="none" stroke-width="4px" />
<path d="M 470.0 235.0 L 480.0 235.0" stroke="#FF0000" fill="none" stroke-width="4px" />
<path d="M 480.0 235.0 L 490.0 235.0" stroke="#FF0000" fill="none" stroke-width="4px" />
<path d="M 490.0 185.0 L 480.0 185.0" stroke="#FF0000" fill="none" stroke-width="4px" />
<path d="M 480.0 185.0 L 470.0 185.0" stroke="#FF0000" fill="none" stroke-width="4px" />
<path d="M 470.0 185.0 L 460.0 185.0" stroke="#FF0000" fill="none" stroke-width="4px" />
<path d="M 460.0 185.0 L 450.0 185.0" stroke="#FF0000" fill="none" stroke-width="4px" />
<path d="M 450.0 185.0 L 440.0 185.0" stroke="#FF0000" fill="none" stroke-width="4px" />
<path d="M 440.0 185.0 L 430.0 185.0" stroke="#FF0000" fill="none" stroke-width="4px" />
<path d="M 430.0 185.0 L 420.0 185.0" stroke="#FF0000" fill="none" stroke-width="4px" />
<path d="M 420.0 185.0 L 430.0 175.0" stroke="#FF0000" fill="none" stroke-width="4px" />
<path d="M 430.0 175.0 L 440.0 175.0" stroke="#FF0000" fill="none" stroke-width="4px" />
<path d="M 440.0 175.0 L 450.0 175.0" stroke="#FF0000" fill="none" stroke-width="4px" />
<path d="M 450.0 175.0 L 460.0 175.0" stroke="#FF0000" fill="none" stroke-width="4px" />
<path d="M 460.0 175.0 L 470.0 175.0" stroke="#FF0000" fill="none" stroke-width="4px" />
<path d="M 470.0 175.0 L 480.0 175.0" stroke="#FF0000" fill="none" stroke-width="4px" />
<path d="M 480.0 175.0 L 490.0 175.0" stroke="#FF0000" fill="none" stroke-width="4px" />
<path d="M 490.0 175.0 L 500.0 175.0" stroke="#FF0000" fill="none" stroke-width="4px" />
<path d="M 500.0 175.0 L 510.0 175.0" stroke="#FF0000" fill="none" stroke-width="4px" />
<path d="M 510.0 175.0 L 510.0 185.0" stroke="#FF0000" fill="none" stroke-width="4px" />
<path d="M 510.0 185.0 L 500.0 185.0" stroke="#FF0000" fill="none" stroke-width="4px" />
<path d="M 500.0 185.0 L 520.0 185.0" stroke="#FF0000" fill="none" stroke-width="4px" />
<path d="M 500.0 165.0 L 490.0 165.0" stroke="#FF0000" fill="none" stroke-width="4px" />
<path d="M 490.0 165.0 L 480.0 165.0" stroke="#FF0000" fill="none" stroke-width="4px" />
<path d="M 480.0 165.0 L 470.0 165.0" stroke="#FF0000" fill="none" stroke-width="4px" />
<path d="M 470.0 165.0 L 460.0 165.0" stroke="#FF0000" fill="none" stroke-width="4px" />
<path d="M 460.0 165.0 L 450.0 165.0" stroke="#FF0000" fill="none" stroke-width="4px" />
<path d="M 450.0 165.0 L 440.0 165.0" stroke="#FF0000" fill="none" stroke-width="4px" />
<path d="M 440.0 165.0 L 430.0 165.0" stroke="#FF0000" fill="none" stroke-width="4px" />
<path d="M 430.0 165.0 L 440.0 155.0" stroke="#FF0000" fill="none" stroke-width="4px" />
<path d="M 440.0 155.0 L 450.0 155.0" stroke="#FF0000" fill="none" stroke-width="4px" />
<path d="M 450.0 155.0 L 460.0 155.0" stroke="#FF0000" fill="none" stroke-width="4px" />
<path d="M 460.0 155.0 L 470.0 155.0" stroke="#FF0000" fill="none" stroke-width="4px" />
<path d="M 470.0 155.0 L 480.0 155.0" stroke="#FF0000" fill="none" stroke-width="4px" />
<path d="M 480.0 155.0 L 470.0 145.0" stroke="#FF0000" fill="none" stroke-width="4px" />
<path d="M 470.0 145.0 L 460.0 145.0" stroke="#FF0000" fill="none" stroke-width="4px" />
<path d="M 460.0 145.0 L 450.0 145.0" stroke="#FF0000" fill="none" stroke-width="4px" />
<path d="M 440.0 75.0 L 430.0 75.0" stroke="#FF0000" fill="none" stroke-width="4px" />
<path d="M 430.0 75.0 L 430.0 65.0" stroke="#FF0000" fill="none" stroke-width="4px" />
<path d="M 430.0 65.0 L 420.0 65.0" stroke="#FF0000" fill="none" stroke-width="4px" />
<path d="M 420.0 65.0 L 420.0 55.0" stroke="#FF0000" fill="none" stroke-width="4px" />
<path d="M 420.0 55.0 L 410.0 55.0" stroke="#FF0000" fill="none" stroke-width="4px" />
<path d="M 410.0 55.0 L 410.0 45.0" stroke="#FF0000" fill="none" stroke-width="4px" />
<path d="M 410.0 45.0 L 420.0 45.0" stroke="#FF0000" fill="none" stroke-width="4px" />
<path d="M 420.0 45.0 L 430.0 45.0" stroke="#FF0000" fill="none" stroke-width="4px" />
<path d="M 430.0 45.0 L 440.0 45.0" stroke="#FF0000" fill="none" stroke-width="4px" />
<path d="M 440.0 45.0 L 450.0 45.0" stroke="#FF0000" fill="none" stroke-width="4px" />
<path d="M 450.0 45.0 L 460.0 45.0" stroke="#FF0000" fill="none" stroke-width="4px" />
<path d="M 460.0 45.0 L 460.0 55.0" stroke="#FF0000" fill="none" stroke-width="4px" />
<path d="M 460.0 55.0 L 450.0 55.0" stroke="#FF0000" fill="none" stroke-width="4px" />
<path d="M 450.0 55.0 L 440.0 55.0" stroke="#FF0000" fill="none" stroke-width="4px" />
<path d="M 440.0 55.0 L 430.0 55.0" stroke="#FF0000" fill="none" stroke-width="4px" />
<path d="M 430.0 55.0 L 440.0 65.0" stroke="#FF0000" fill="none" stroke-width="4px" />
<path d="M 440.0 65.0 L 450.0 65.0" stroke="#FF0000" fill="none" stroke-width="4px" />
<path d="M 450.0 35.0 L 440.0 35.0" stroke="#FF0000" fill="none" stroke-width="4px" />
<path d="M 440.0 35.0 L 430.0 35.0" stroke="#FF0000" fill="none" stroke-width="4px" />
<path d="M 430.0 35.0 L 420.0 35.0" stroke="#FF0000" fill="none" stroke-width="4px" />
<path d="M 420.0 35.0 L 430.0 25.0" stroke="#FF0000" fill="none" stroke-width="4px" />
<path d="M 430.0 25.0 L 440.0 25.0" stroke="#FF0000" fill="none" stroke-width="4px" />
<path d="M 440.0 25.0 L 450.0 25.0" stroke="#FF0000" fill="none" stroke-width="4px" />
<path d="M 450.0 25.0 L 460.0 35.0" stroke="#FF0000" fill="none" stroke-width="4px" />
<path d="M 390.0 45.0 L 380.0 45.0" stroke="#FF0000" fill="none" stroke-width="4px" />
<path d="M 380.0 45.0 L 370.0 45.0" stroke="#FF0000" fill="none" stroke-width="4px" />
<path d="M 370.0 45.0 L 360.0 45.0" stroke="#FF0000" fill="none" stroke-width="4px" />
<path d="M 360.0 45.0 L 350.0 45.0" stroke="#FF0000" fill="none" stroke-width="4px" />
<path d="M 350.0 45.0 L 350.0 55.0" stroke="#FF0000" fill="none" stroke-width="4px" />
<path d="M 350.0 55.0 L 360.0 55.0" stroke="#FF0000" fill="none" stroke-width="4px" />
<path d="M 360.0 55.0 L 370.0 55.0" stroke="#FF0000" fill="none" stroke-width="4px" />
<path d="M 370.0 55.0 L 380.0 55.0" stroke="#FF0000" fill="none" stroke-width="4px" />
<path d="M 380.0 55.0 L 390.0 55.0" stroke="#FF0000" fill="none" stroke-width="4px" />
<path d="M 390.0 55.0 L 390.0 65.0" stroke="#FF0000" fill="none" stroke-width="4px" />
<path d="M 390.0 65.0 L 380.0 65.0" stroke="#FF0000" fill="none" stroke-width="4px" />
<path d="M 380.0 65.0 L 370.0 65.0" stroke="#FF0000" fill="none" stroke-width="4px" />
<path d="M 370.0 65.0 L 360.0 65.0" stroke="#FF0000" fill="none" stroke-width="4px" />
<path d="M 360.0 65.0 L 350.0 65.0" stroke="#FF0000" fill="none" stroke-width="4px" />
<path d="M 350.0 65.0 L 360.0 75.0" stroke="#FF0000" fill="none" stroke-width="4px" />
<path d="M 360.0 75.0 L 370.0 75.0" stroke="#FF0000" fill="none" stroke-width="4px" />
<path d="M 370.0 75.0 L 380.0 75.0" stroke="#FF0000" fill="none" stroke-width="4px" />
<path d="M 380.0 75.0 L 370.0 85.0" stroke="#FF0000" fill="none" stroke-width="4px" />
<path d="M 370.0 35.0 L 360.0 35.0" stroke="#FF0000" fill="none" stroke-width="4px" />
<path d="M 360.0 35.0 L 380.0 35.0" stroke="#FF0000" fill="none" stroke-width="4px" />
<path d="M 1370.0 75.0 L 1380.0 75.0" stroke="#FF0000" fill="none" stroke-width="4px" />
<path d="M 1380.0 75.0 L 1390.0 75.0" stroke="#FF0000" fill="none" stroke-width="4px" />
<path d="M 1390.0 75.0 L 1400.0 75.0" stroke="#FF0000" fill="none" stroke-width="4px" />
<path d="M 1400.0 75.0 L 1410.0 75.0" stroke="#FF0000" fill="none" stroke-width="4px" />
<path d="M 1410.0 75.0 L 1410.0 85.0" stroke="#FF0000" fill="none" stroke-width="4px" />
<path d="M 1410.0 85.0 L 1400.0 85.0" stroke="#FF0000" fill="none" stroke-width="4px" />
<path d="M 1400.0 85.0 L 1390.0 85.0" stroke="#FF0000" fill="none" stroke-width="4px" />
<path d="M 1390.0 85.0 L 1380.0 85.0" stroke="#FF0000" fill="none" stroke-width="4px" />
<path d="M 1380.0 85.0 L 1390.0 95.0" stroke="#FF0000" fill="none" stroke-width="4px" />
<path d="M 1390.0 95.0 L 1400.0 95.0" stroke="#FF0000" fill="none" stroke-width="4px" />
<path d="M 1400.0 95.0 L 1410.0 95.0" stroke="#FF0000" fill="none" stroke-width="4px" />
<path d="M 1410.0 95.0 L 1400.0 105.0" stroke="#FF0000" fill="none" stroke-width="4px" />
<path d="M 1400.0 65.0 L 1390.0 65.0" stroke="#FF0000" fill="none" stroke-width="4px" />
<path d="M 1390.0 65.0 L 1380.0 65.0" stroke="#FF0000" fill="none" stroke-width="4px" />
<path d="M 1510.0 45.0 L 1520.0 45.0" stroke="#FF0000" fill="none" stroke-width="4px" />
<path d="M 1520.0 45.0 L 1530.0 45.0" stroke="#FF0000" fill="none" stroke-width="4px" />
<path d="M 1530.0 45.0 L 1540.0 45.0" stroke="#FF0000" fill="none" stroke-width="4px" />
<path d="M 1540.0 45.0 L 1550.0 45.0" stroke="#FF0000" fill="none" stroke-width="4px" />
<path d="M 1550.0 45.0 L 1560.0 45.0" stroke="#FF0000" fill="none" stroke-width="4px" />
<path d="M 1560.0 45.0 L 1560.0 35.0" stroke="#FF0000" fill="none" stroke-width="4px" />
<path d="M 1560.0 35.0 L 1550.0 35.0" stroke="#FF0000" fill="none" stroke-width="4px" />
<path d="M 1550.0 35.0 L 1540.0 35.0" stroke="#FF0000" fill="none" stroke-width="4px" />
<path d="M 1540.0 35.0 L 1530.0 35.0" stroke="#FF0000" fill="none" stroke-width="4px" />
<path d="M 1530.0 35.0 L 1520.0 35.0" stroke="#FF0000" fill="none" stroke-width="4px" />
<path d="M 1520.0 35.0 L 1510.0 35.0" stroke="#FF0000" fill="none" stroke-width="4px" />
<path d="M 1510.0 35.0 L 1510.0 25.0" stroke="#FF0000" fill="none" stroke-width="4px" />
<path d="M 1510.0 25.0 L 1520.0 25.0" stroke="#FF0000" fill="none" stroke-width="4px" />
<path d="M 1520.0 25.0 L 1530.0 25.0" stroke="#FF0000" fill="none" stroke-width="4px" />
<path d="M 1530.0 25.0 L 1540.0 25.0" stroke="#FF0000" fill="none" stroke-width="4px" />
<path d="M 1540.0 25.0 L 1550.0 25.0" stroke="#FF0000" fill="none" stroke-width="4px" />
<path d="M 1550.0 25.0 L 1560.0 25.0" stroke="#FF0000" fill="none" stroke-width="4px" />
<path d="M 1540.0 15.0 L 1530.0 15.0" stroke="#FF0000" fill="none" stroke-width="4px" />
<path d="M 1530.0 15.0 L 1520.0 15.0" stroke="#FF0000" fill="none" stroke-width="4px" />
<path d="M 1520.0 15.0 L 1530.0 5.0" stroke="#FF0000" fill="none" stroke-width="4px" />
<path d="M 1530.0 55.0 L 1520.0 55.0" stroke="#FF0000" fill="none" stroke-width="4px" />
<path d="M 1520.0 55.0 L 1530.0 65.0" stroke="#FF0000" fill="none" stroke-width="4px" />
<path d="M 1530.0 65.0 L 1540.0 55.0" stroke="#FF0000" fill="none" stroke-width="4px" />
<path d="M 1660.0 95.0 L 1670.0 95.0" stroke="#FF0000" fill="none" stroke-width="4px" />
<path d="M 1670.0 95.0 L 1680.0 95.0" stroke="#FF0000" fill="none" stroke-width="4px" />
<path d="M 1680.0 95.0 L 1690.0 95.0" stroke="#FF0000" fill="none" stroke-width="4px" />
<path d="M 1690.0 95.0 L 1690.0 105.0" stroke="#FF0000" fill="none" stroke-width="4px" />
<path d="M 1690.0 105.0 L 1680.0 105.0" stroke="#FF0000" fill="none" stroke-width="4px" />
<path d="M 1680.0 105.0 L 1670.0 105.0" stroke="#FF0000" fill="none" stroke-width="4px" />
<path d="M 1670.0 105.0 L 1660.0 105.0" stroke="#FF0000" fill="none" stroke-width="4px" />
<path d="M 1660.0 105.0 L 1660.0 115.0" stroke="#FF0000" fill="none" stroke-width="4px" />
<path d="M 1660.0 115.0 L 1670.0 115.0" stroke="#FF0000" fill="none" stroke-width="4px" />
<path d="M 1670.0 115.0 L 1680.0 115.0" stroke="#FF0000" fill="none" stroke-width="4px" />
<path d="M 1680.0 115.0 L 1690.0 115.0" stroke="#FF0000" fill="none" stroke-width="4px" />
<path d="M 1690.0 115.0 L 1700.0 115.0" stroke="#FF0000" fill="none" stroke-width="4px" />
<path d="M 1700.0 115.0 L 1690.0 125.0" stroke="#FF0000" fill="none" stroke-width="4px" />
<path d="M 1690.0 125.0 L 1680.0 125.0" stroke="#FF0000" fill="none" stroke-width="4px" />
<path d="M 1680.0 125.0 L 1670.0 125.0" stroke="#FF0000" fill="none" stroke-width="4px" />
<path d="M 1670.0 125.0 L 1680.0 135.0" stroke="#FF0000" fill="none" stroke-width="4px" />
<path d="M 1680.0 85.0 L 1670.0 85.0" stroke="#FF0000" fill="none" stroke-width="4px" />
<path d="M 2390.0 185.0 L 2380.0 185.0" stroke="#FF0000" fill="none" stroke-width="4px" />
<path d="M 2380.0 185.0 L 2380.0 175.0" stroke="#FF0000" fill="none" stroke-width="4px" />
<path d="M 2380.0 175.0 L 2370.0 175.0" stroke="#FF0000" fill="none" stroke-width="4px" />
<path d="M 2370.0 175.0 L 2360.0 175.0" stroke="#FF0000" fill="none" stroke-width="4px" />
<path d="M 2360.0 175.0 L 2350.0 175.0" stroke="#FF0000" fill="none" stroke-width="4px" />
<path d="M 2350.0 175.0 L 2340.0 175.0" stroke="#FF0000" fill="none" stroke-width="4px" />
<path d="M 2340.0 175.0 L 2330.0 175.0" stroke="#FF0000" fill="none" stroke-width="4px" />
<path d="M 2330.0 175.0 L 2320.0 175.0" stroke="#FF0000" fill="none" stroke-width="4px" />
<path d="M 2320.0 175.0 L 2310.0 175.0" stroke="#FF0000" fill="none" stroke-width="4px" />
<path d="M 2310.0 175.0 L 2300.0 175.0" stroke="#FF0000" fill="none" stroke-width="4px" />
<path d="M 2300.0 175.0 L 2290.0 175.0" stroke="#FF0000" fill="none" stroke-width="4px" />
<path d="M 2290.0 175.0 L 2280.0 175.0" stroke="#FF0000" fill="none" stroke-width="4px" />
<path d="M 2280.0 175.0 L 2270.0 175.0" stroke="#FF0000" fill="none" stroke-width="4px" />
<path d="M 2270.0 175.0 L 2260.0 175.0" stroke="#FF0000" fill="none" stroke-width="4px" />
<path d="M 2260.0 175.0 L 2260.0 185.0" stroke="#FF0000" fill="none" stroke-width="4px" />
<path d="M 2260.0 185.0 L 2270.0 185.0" stroke="#FF0000" fill="none" stroke-width="4px" />
<path d="M 2270.0 185.0 L 2280.0 185.0" stroke="#FF0000" fill="none" stroke-width="4px" />
<path d="M 2280.0 185.0 L 2290.0 185.0" stroke="#FF0000" fill="none" stroke-width="4px" />
<path d="M 2290.0 185.0 L 2300.0 185.0" stroke="#FF0000" fill="none" stroke-width="4px" />
<path d="M 2300.0 185.0 L 2310.0 185.0" stroke="#FF0000" fill="none" stroke-width="4px" />
<path d="M 2310.0 185.0 L 2320.0 185.0" stroke="#FF0000" fill="none" stroke-width="4px" />
<path d="M 2320.0 185.0 L 2330.0 185.0" stroke="#FF0000" fill="none" stroke-width="4px" />
<path d="M 2330.0 185.0 L 2340.0 185.0" stroke="#FF0000" fill="none" stroke-width="4px" />
<path d="M 2340.0 185.0 L 2350.0 185.0" stroke="#FF0000" fill="none" stroke-width="4px" />
<path d="M 2350.0 185.0 L 2360.0 185.0" stroke="#FF0000" fill="none" stroke-width="4px" />
<path d="M 2360.0 185.0 L 2360.0 195.0" stroke="#FF0000" fill="none" stroke-width="4px" />
<path d="M 2360.0 195.0 L 2350.0 195.0" stroke="#FF0000" fill="none" stroke-width="4px" />
<path d="M 2350.0 195.0 L 2340.0 195.0" stroke="#FF0000" fill="none" stroke-width="4px" />
<path d="M 2340.0 195.0 L 2330.0 195.0" stroke="#FF0000" fill="none" stroke-width="4px" />
<path d="M 2330.0 195.0 L 2320.0 195.0" stroke="#FF0000" fill="none" stroke-width="4px" />
<path d="M 2320.0 195.0 L 2310.0 195.0" stroke="#FF0000" fill="none" stroke-width="4px" />
<path d="M 2310.0 195.0 L 2300.0 195.0" stroke="#FF0000" fill="none" stroke-width="4px" />
<path d="M 2300.0 195.0 L 2290.0 195.0" stroke="#FF0000" fill="none" stroke-width="4px" />
<path d="M 2290.0 195.0 L 2280.0 195.0" stroke="#FF0000" fill="none" stroke-width="4px" />
<path d="M 2280.0 195.0 L 2270.0 195.0" stroke="#FF0000" fill="none" stroke-width="4px" />
<path d="M 2270.0 195.0 L 2280.0 205.0" stroke="#FF0000" fill="none" stroke-width="4px" />
<path d="M 2280.0 205.0 L 2290.0 205.0" stroke="#FF0000" fill="none" stroke-width="4px" />
<path d="M 2290.0 205.0 L 2300.0 205.0" stroke="#FF0000" fill="none" stroke-width="4px" />
<path d="M 2300.0 205.0 L 2310.0 205.0" stroke="#FF0000" fill="none" stroke-width="4px" />
<path d="M 2340.0 205.0 L 2350.0 205.0" stroke="#FF0000" fill="none" stroke-width="4px" />
<path d="M 2350.0 165.0 L 2340.0 165.0" stroke="#FF0000" fill="none" stroke-width="4px" />
<path d="M 2340.0 165.0 L 2330.0 165.0" stroke="#FF0000" fill="none" stroke-width="4px" />
<path d="M 2330.0 165.0 L 2320.0 165.0" stroke="#FF0000" fill="none" stroke-width="4px" />
<path d="M 2320.0 165.0 L 2310.0 165.0" stroke="#FF0000" fill="none" stroke-width="4px" />
<path d="M 2310.0 165.0 L 2300.0 165.0" stroke="#FF0000" fill="none" stroke-width="4px" />
<path d="M 2300.0 165.0 L 2290.0 165.0" stroke="#FF0000" fill="none" stroke-width="4px" />
<path d="M 2290.0 165.0 L 2280.0 165.0" stroke="#FF0000" fill="none" stroke-width="4px" />
<path d="M 2280.0 165.0 L 2270.0 165.0" stroke="#FF0000" fill="none" stroke-width="4px" />
<path d="M 2270.0 165.0 L 2260.0 165.0" stroke="#FF0000" fill="none" stroke-width="4px" />
<path d="M 2260.0 165.0 L 2260.0 155.0" stroke="#FF0000" fill="none" stroke-width="4px" />
<path d="M 2260.0 155.0 L 2270.0 155.0" stroke="#FF0000" fill="none" stroke-width="4px" />
<path d="M 2270.0 155.0 L 2280.0 155.0" stroke="#FF0000" fill="none" stroke-width="4px" />
<path d="M 2280.0 155.0 L 2290.0 155.0" stroke="#FF0000" fill="none" stroke-width="4px" />
<path d="M 2290.0 155.0 L 2300.0 155.0" stroke="#FF0000" fill="none" stroke-width="4px" />
<path d="M 2300.0 155.0 L 2310.0 155.0" stroke="#FF0000" fill="none" stroke-width="4px" />
<path d="M 2310.0 155.0 L 2320.0 155.0" stroke="#FF0000" fill="none" stroke-width="4px" />
<path d="M 2320.0 155.0 L 2330.0 155.0" stroke="#FF0000" fill="none" stroke-width="4px" />
<path d="M 2330.0 155.0 L 2340.0 155.0" stroke="#FF0000" fill="none" stroke-width="4px" />
<path d="M 2340.0 155.0 L 2350.0 155.0" stroke="#FF0000" fill="none" stroke-width="4px" />
<path d="M 2350.0 155.0 L 2360.0 155.0" stroke="#FF0000" fill="none" stroke-width="4px" />
<path d="M 2360.0 155.0 L 2370.0 155.0" stroke="#FF0000" fill="none" stroke-width="4px" />
<path d="M 2370.0 155.0 L 2380.0 155.0" stroke="#FF0000" fill="none" stroke-width="4px" />
<path d="M 2380.0 155.0 L 2390.0 155.0" stroke="#FF0000" fill="none" stroke-width="4px" />
<path d="M 2390.0 155.0 L 2400.0 155.0" stroke="#FF0000" fill="none" stroke-width="4px" />
<path d="M 2400.0 155.0 L 2410.0 155.0" stroke="#FF0000" fill="none" stroke-width="4px" />
<path d="M 2410.0 155.0 L 2410.0 165.0" stroke="#FF0000" fill="none" stroke-width="4px" />
<path d="M 2410.0 165.0 L 2400.0 165.0" stroke="#FF0000" fill="none" stroke-width="4px" />
<path d="M 2400.0 165.0 L 2390.0 165.0" stroke="#FF0000" fill="none" stroke-width="4px" />
<path d="M 2390.0 165.0 L 2380.0 165.0" stroke="#FF0000" fill="none" stroke-width="4px" />
<path d="M 2380.0 165.0 L 2370.0 165.0" stroke="#FF0000" fill="none" stroke-width="4px" />
<path d="M 2370.0 165.0 L 2360.0 165.0" stroke="#FF0000" fill="none" stroke-width="4px" />
<path d="M 2360.0 145.0 L 2350.0 145.0" stroke="#FF0000" fill="none" stroke-width="4px" />
<path d="M 2350.0 145.0 L 2340.0 145.0" stroke="#FF0000" fill="none" stroke-width="4px" />
<path d="M 2340.0 145.0 L 2330.0 145.0" stroke="#FF0000" fill="none" stroke-width="4px" />
<path d="M 2330.0 145.0 L 2320.0 145.0" stroke="#FF0000" fill="none" stroke-width="4px" />
<path d="M 2320.0 145.0 L 2310.0 145.0" stroke="#FF0000" fill="none" stroke-width="4px" />
<path d="M 2310.0 145.0 L 2300.0 145.0" stroke="#FF0000" fill="none" stroke-width="4px" />
<path d="M 2300.0 145.0 L 2290.0 145.0" stroke="#FF0000" fill="none" stroke-width="4px" />
<path d="M 2290.0 145.0 L 2280.0 145.0" stroke="#FF0000" fill="none" stroke-width="4px" />
<path d="M 2280.0 145.0 L 2270.0 145.0" stroke="#FF0000" fill="none" stroke-width="4px" />
<path d="M 2270.0 145.0 L 2260.0 145.0" stroke="#FF0000" fill="none" stroke-width="4px" />
<path d="M 2260.0 145.0 L 2270.0 135.0" stroke="#FF0000" fill="none" stroke-width="4px" />
<path d="M 2270.0 135.0 L 2280.0 135.0" stroke="#FF0000" fill="none" stroke-width="4px" />
<path d="M 2280.0 135.0 L 2290.0 135.0" stroke="#FF0000" fill="none" stroke-width="4px" />
<path d="M 2290.0 135.0 L 2300.0 135.0" stroke="#FF0000" fill="none" stroke-width="4px" />
<path d="M 2300.0 135.0 L 2310.0 135.0" stroke="#FF0000" fill="none" stroke-width="4px" />
<path d="M 2310.0 135.0 L 2320.0 135.0" stroke="#FF0000" fill="none" stroke-width="4px" />
<path d="M 2320.0 135.0 L 2330.0 135.0" stroke="#FF0000" fill="none" stroke-width="4px" />
<path d="M 2330.0 135.0 L 2340.0 135.0" stroke="#FF0000" fill="none" stroke-width="4px" />
<path d="M 2340.0 135.0 L 2350.0 135.0" stroke="#FF0000" fill="none" stroke-width="4px" />
<path d="M 2350.0 135.0 L 2360.0 135.0" stroke="#FF0000" fill="none" stroke-width="4px" />
<path d="M 2360.0 135.0 L 2370.0 135.0" stroke="#FF0000" fill="none" stroke-width="4px" />
<path d="M 2370.0 135.0 L 2380.0 135.0" stroke="#FF0000" fill="none" stroke-width="4px" />
<path d="M 2380.0 135.0 L 2390.0 135.0" stroke="#FF0000" fill="none" stroke-width="4px" />
<path d="M 2390.0 135.0 L 2400.0 135.0" stroke="#FF0000" fill="none" stroke-width="4px" />
<path d="M 2400.0 135.0 L 2400.0 145.0" stroke="#FF0000" fill="none" stroke-width="4px" />
<path d="M 2400.0 145.0 L 2390.0 145.0" stroke="#FF0000" fill="none" stroke-width="4px" />
<path d="M 2390.0 145.0 L 2380.0 145.0" stroke="#FF0000" fill="none" stroke-width="4px" />
<path d="M 2380.0 145.0 L 2370.0 145.0" stroke="#FF0000" fill="none" stroke-width="4px" />
<path d="M 2370.0 125.0 L 2380.0 125.0" stroke="#FF0000" fill="none" stroke-width="4px" />
<path d="M 2380.0 125.0 L 2390.0 125.0" stroke="#FF0000" fill="none" stroke-width="4px" />
<path d="M 2400.0 175.0 L 2390.0 175.0" stroke="#FF0000" fill="none" stroke-width="4px" />
<path d="M 2340.0 125.0 L 2330.0 125.0" stroke="#FF0000" fill="none" stroke-width="4px" />
<path d="M 2330.0 125.0 L 2320.0 125.0" stroke="#FF0000" fill="none" stroke-width="4px" />
<path d="M 2320.0 125.0 L 2310.0 125.0" stroke="#FF0000" fill="none" stroke-width="4px" />
<path d="M 2310.0 125.0 L 2300.0 125.0" stroke="#FF0000" fill="none" stroke-width="4px" />
<path d="M 2300.0 125.0 L 2290.0 125.0" stroke="#FF0000" fill="none" stroke-width="4px" />
<path d="M 2290.0 125.0 L 2280.0 125.0" stroke="#FF0000" fill="none" stroke-width="4px" />
<path d="M 2280.0 125.0 L 2290.0 115.0" stroke="#FF0000" fill="none" stroke-width="4px" />
<path d="M 2290.0 115.0 L 2300.0 115.0" stroke="#FF0000" fill="none" stroke-width="4px" />
<path d="M 2300.0 115.0 L 2310.0 115.0" stroke="#FF0000" fill="none" stroke-width="4px" />
<path d="M 2310.0 115.0 L 2320.0 115.0" stroke="#FF0000" fill="none" stroke-width="4px" />
<path d="M 2320.0 115.0 L 2330.0 115.0" stroke="#FF0000" fill="none" stroke-width="4px" />
<path d="M 2030.0 25.0 L 2020.0 25.0" stroke="#FF0000" fill="none" stroke-width="4px" />
<path d="M 2020.0 25.0 L 2010.0 25.0" stroke="#FF0000" fill="none" stroke-width="4px" />
<path d="M 2010.0 25.0 L 2000.0 25.0" stroke="#FF0000" fill="none" stroke-width="4px" />
<path d="M 2000.0 25.0 L 1990.0 25.0" stroke="#FF0000" fill="none" stroke-width="4px" />
<path d="M 1990.0 25.0 L 1980.0 25.0" stroke="#FF0000" fill="none" stroke-width="4px" />
<path d="M 1980.0 25.0 L 1970.0 25.0" stroke="#FF0000" fill="none" stroke-width="4px" />
<path d="M 1970.0 25.0 L 1960.0 25.0" stroke="#FF0000" fill="none" stroke-width="4px" />
<path d="M 1960.0 25.0 L 1950.0 25.0" stroke="#FF0000" fill="none" stroke-width="4px" />
<path d="M 1950.0 25.0 L 1940.0 25.0" stroke="#FF0000" fill="none" stroke-width="4px" />
<path d="M 1940.0 25.0 L 1930.0 25.0" stroke="#FF0000" fill="none" stroke-width="4px" />
<path d="M 1930.0 25.0 L 1920.0 25.0" stroke="#FF0000" fill="none" stroke-width="4px" />
<path d="M 1920.0 25.0 L 1910.0 25.0" stroke="#FF0000" fill="none" stroke-width="4px" />
<path d="M 1910.0 25.0 L 1900.0 25.0" stroke="#FF0000" fill="none" stroke-width="4px" />
<path d="M 1900.0 25.0 L 1900.0 35.0" stroke="#FF0000" fill="none" stroke-width="4px" />
<path d="M 1900.0 35.0 L 1910.0 35.0" stroke="#FF0000" fill="none" stroke-width="4px" />
<path d="M 1910.0 35.0 L 1920.0 35.0" stroke="#FF0000" fill="none" stroke-width="4px" />
<path d="M 1920.0 35.0 L 1930.0 35.0" stroke="#FF0000" fill="none" stroke-width="4px" />
<path d="M 1930.0 35.0 L 1940.0 35.0" stroke="#FF0000" fill="none" stroke-width="4px" />
<path d="M 1940.0 35.0 L 1950.0 35.0" stroke="#FF0000" fill="none" stroke-width="4px" />
<path d="M 1950.0 35.0 L 1960.0 35.0" stroke="#FF0000" fill="none" stroke-width="4px" />
<path d="M 1960.0 35.0 L 1970.0 35.0" stroke="#FF0000" fill="none" stroke-width="4px" />
<path d="M 1970.0 35.0 L 1980.0 35.0" stroke="#FF0000" fill="none" stroke-width="4px" />
<path d="M 1980.0 35.0 L 1990.0 35.0" stroke="#FF0000" fill="none" stroke-width="4px" />
<path d="M 1990.0 35.0 L 2000.0 35.0" stroke="#FF0000" fill="none" stroke-width="4px" />
<path d="M 2000.0 35.0 L 2010.0 35.0" stroke="#FF0000" fill="none" stroke-width="4px" />
<path d="M 2010.0 35.0 L 2020.0 35.0" stroke="#FF0000" fill="none" stroke-width="4px" />
<path d="M 2020.0 35.0 L 2010.0 45.0" stroke="#FF0000" fill="none" stroke-width="4px" />
<path d="M 2010.0 45.0 L 2000.0 45.0" stroke="#FF0000" fill="none" stroke-width="4px" />
<path d="M 2000.0 45.0 L 1980.0 45.0" stroke="#FF0000" fill="none" stroke-width="4px" />
<path d="M 1980.0 45.0 L 1970.0 45.0" stroke="#FF0000" fill="none" stroke-width="4px" />
<path d="M 1970.0 45.0 L 1960.0 45.0" stroke="#FF0000" fill="none" stroke-width="4px" />
<path d="M 1960.0 45.0 L 1950.0 45.0" stroke="#FF0000" fill="none" stroke-width="4px" />
<path d="M 1950.0 45.0 L 1940.0 45.0" stroke="#FF0000" fill="none" stroke-width="4px" />
<path d="M 1940.0 45.0 L 1930.0 45.0" stroke="#FF0000" fill="none" stroke-width="4px" />
<path d="M 1930.0 45.0 L 1920.0 45.0" stroke="#FF0000" fill="none" stroke-width="4px" />
<path d="M 1920.0 45.0 L 1910.0 45.0" stroke="#FF0000" fill="none" stroke-width="4px" />
<path d="M 1910.0 45.0 L 1920.0 55.0" stroke="#FF0000" fill="none" stroke-width="4px" />
<path d="M 1920.0 55.0 L 1930.0 55.0" stroke="#FF0000" fill="none" stroke-width="4px" />
<path d="M 1930.0 55.0 L 1940.0 55.0" stroke="#FF0000" fill="none" stroke-width="4px" />
<path d="M 1940.0 55.0 L 1950.0 55.0" stroke="#FF0000" fill="none" stroke-width="4px" />
<path d="M 1950.0 55.0 L 1960.0 55.0" stroke="#FF0000" fill="none" stroke-width="4px" />
<path d="M 1960.0 55.0 L 1970.0 55.0" stroke="#FF0000" fill="none" stroke-width="4px" />
<path d="M 1950.0 65.0 L 1940.0 65.0" stroke="#FF0000" fill="none" stroke-width="4px" />
<path d="M 1940.0 65.0 L 1930.0 65.0" stroke="#FF0000" fill="none" stroke-width="4px" />
<path d="M 1930.0 15.0 L 1920.0 15.0" stroke="#FF0000" fill="none" stroke-width="4px" />
<path d="M 1920.0 15.0 L 1910.0 15.0" stroke="#FF0000" fill="none" stroke-width="4px" />
<path d="M 1910.0 15.0 L 1900.0 15.0" stroke="#FF0000" fill="none" stroke-width="4px" />
<path d="M 1900.0 15.0 L 1900.0 5.0" stroke="#FF0000" fill="none" stroke-width="4px" />
<path d="M 1900.0 5.0 L 1910.0 5.0" stroke="#FF0000" fill="none" stroke-width="4px" />
<path d="M 1910.0 5.0 L 1920.0 5.0" stroke="#FF0000" fill="none" stroke-width="4px" />
<path d="M 1920.0 5.0 L 1930.0 5.0" stroke="#FF0000" fill="none" stroke-width="4px" />
<path d="M 1930.0 5.0 L 1940.0 5.0" stroke="#FF0000" fill="none" stroke-width="4px" />
<path d="M 1940.0 5.0 L 1950.0 5.0" stroke="#FF0000" fill="none" stroke-width="4px" />
<path d="M 1950.0 5.0 L 1960.0 5.0" stroke="#FF0000" fill="none" stroke-width="4px" />
<path d="M 1960.0 5.0 L 1970.0 5.0" stroke="#FF0000" fill="none" stroke-width="4px" />
<path d="M 1970.0 5.0 L 1980.0 5.0" stroke="#FF0000" fill="none" stroke-width="4px" />
<path d="M 1980.0 5.0 L 1990.0 5.0" stroke="#FF0000" fill="none" stroke-width="4px" />
<path d="M 1990.0 5.0 L 2000.0 5.0" stroke="#FF0000" fill="none" stroke-width="4px" />
<path d="M 2000.0 5.0 L 2010.0 5.0" stroke="#FF0000" fill="none" stroke-width="4px" />
<path d="M 2010.0 5.0 L 2020.0 5.0" stroke="#FF0000" fill="none" stroke-width="4px" />
<path d="M 2020.0 5.0 L 2030.0 5.0" stroke="#FF0000" fill="none" stroke-width="4px" />
<path d="M 2030.0 5.0 L 2030.0 15.0" stroke="#FF0000" fill="none" stroke-width="4px" />
<path d="M 2030.0 15.0 L 2020.0 15.0" stroke="#FF0000" fill="none" stroke-width="4px" />
<path d="M 2020.0 15.0 L 2010.0 15.0" stroke="#FF0000" fill="none" stroke-width="4px" />
<path d="M 2010.0 15.0 L 2000.0 15.0" stroke="#FF0000" fill="none" stroke-width="4px" />
<path d="M 2000.0 15.0 L 1990.0 15.0" stroke="#FF0000" fill="none" stroke-width="4px" />
<path d="M 1990.0 15.0 L 1980.0 15.0" stroke="#FF0000" fill="none" stroke-width="4px" />
<path d="M 1980.0 15.0 L 1970.0 15.0" stroke="#FF0000" fill="none" stroke-width="4px" />
<path d="M 1970.0 15.0 L 1960.0 15.0" stroke="#FF0000" fill="none" stroke-width="4px" />
<path d="M 1960.0 15.0 L 1950.0 15.0" stroke="#FF0000" fill="none" stroke-width="4px" />
<path d="M 1950.0 15.0 L 1940.0 15.0" stroke="#FF0000" fill="none" stroke-width="4px" />
<path d="M 1940.0 -5.0 L 1930.0 -5.0" stroke="#FF0000" fill="none" stroke-width="4px" />
<path d="M 1930.0 -5.0 L 1920.0 -5.0" stroke="#FF0000" fill="none" stroke-width="4px" />
<path d="M 1920.0 -5.0 L 1910.0 -5.0" stroke="#FF0000" fill="none" stroke-width="4px" />
<path d="M 1910.0 -5.0 L 1900.0 -5.0" stroke="#FF0000" fill="none" stroke-width="4px" />
<path d="M 1950.0 -5.0 L 1960.0 -5.0" stroke="#FF0000" fill="none" stroke-width="4px" />
<path d="M 1960.0 -5.0 L 1970.0 -5.0" stroke="#FF0000" fill="none" stroke-width="4px" />
<path d="M 1970.0 -5.0 L 1990.0 -5.0" stroke="#FF0000" fill="none" stroke-width="4px" />
<path d="M 1990.0 -5.0 L 2000.0 -5.0" stroke="#FF0000" fill="none" stroke-width="4px" />
<path d="M 2000.0 -5.0 L 2010.0 -5.0" stroke="#FF0000" fill="none" stroke-width="4px" />
<path d="M 2010.0 -5.0 L 2020.0 -5.0" stroke="#FF0000" fill="none" stroke-width="4px" />
<path d="M 2020.0 -5.0 L 2030.0 -5.0" stroke="#FF0000" fill="none" stroke-width="4px" />
</svg>