<svg width="1383.75833333" height="235.0" xmlns="http://www.w3.org/2000/svg" version="1.1">
<path d="M 0.0 235.0 L 1383.75833333 235.0 L 1383.75833333 0.0 L 0.0 0.0 L 0.0 235.0" stroke="#000000" fill="none" stroke-width="3px" />
<path d="M 10.0 257.5 L 0.0 247.5 L 10.0 237.5" stroke="#969696" fill="none" stroke-width="1px" />
<path d="M 10.0 237.5 L 1373.75833333 237.5" stroke="#969696" fill="none" stroke-width="1px" />
<path d="M 1373.75833333 237.5 L 1383.75833333 227.5 L 1373.75833333 217.5" stroke="#969696" fill="none" stroke-width="1px" />
<path d="M 1373.75833333 217.5 L 10.0 217.5" stroke="#969696" fill="none" stroke-width="1px" />
<path d="M 10.0 217.5 L 0.0 207.5 L 10.0 197.5" stroke="#969696" fill="none" stroke-width="1px" />
<path d="M 10.0 197.5 L 1373.75833333 197.5" stroke="#969696" fill="none" stroke-width="1px" />
<path d="M 1373.75833333 197.5 L 1383.75833333 187.5 L 1373.75833333 177.5" stroke="#969696" fill="none" stroke-width="1px" />
<path d="M 1373.75833333 177.5 L 10.0 177.5" stroke="#969696" fill="none" stroke-width="1px" />
<path d="M 10.0 177.5 L 0.0 167.5 L 10.0 157.5" stroke="#969696" fill="none" stroke-width="1px" />
<path d="M 10.0 157.5 L 1373.75833333 157.5" stroke="#969696" fill="none" stroke-width="1px" />
<path d="M 1373.75833333 157.5 L 1383.75833333 147.5 L 1373.75833333 137.5" stroke="#969696" fill="none" stroke-width="1px" />
<path d="M 1373.75833333 137.5 L 10.0 137.5" stroke="#969696" fill="none" stroke-width="1px" />
<path d="M 10.0 137.5 L 0.0 127.5 L 10.0 117.5" stroke="#969696" fill="none" stroke-width="1px" />
<path d="M 10.0 117.5 L 1373.75833333 117.5" stroke="#969696" fill="none" stroke-width="1px" />
<path d="M 1373.75833333 117.5 L 1383.75833333 107.5 L 1373.75833333 97.5" stroke="#969696" fill="none" stroke-width="1px" />
<path d="M 1373.75833333 97.5 L 10.0 97.5" stroke="#969696" fill="none" stroke-width="1px" />
<path d="M 10.0 97.5 L 0.0 87.5 L 10.0 77.5" stroke="#969696" fill="none" stroke-width="1px" />
<path d="M 10.0 77.5 L 1373.75833333 77.5" stroke="#969696" fill="none" stroke-width="1px" />
<path d="M 1373.75833333 77.5 L 1383.75833333 67.5 L 1373.75833333 57.5" stroke="#969696" fill="none" stroke-width="1px" />
<path d="M 1373.75833333 57.5 L 10.0 57.5" stroke="#969696" fill="none" stroke-width="1px" />
<path d="M 10.0 57.5 L 0.0 47.5 L 10.0 37.5" stroke="#969696" fill="none" stroke-width="1px" />
<path d="M 10.0 37.5 L 1373.75833333 37.5" stroke="#969696" fill="none" stroke-width="1px" />
<path d="M 1373.75833333 37.5 L 1383.75833333 27.5 L 1373.75833333 17.5" stroke="#969696" fill="none" stroke-width="1px" />
<path d="M 1373.75833333 17.5 L 10.0 17.5" stroke="#969696" fill="none" stroke-width="1px" />
<path d="M 10.0 17.5 L 0.0 7.5 L 10.0 -2.5" stroke="#969696" fill="none" stroke-width="1px" />
<path d="M 10.0 -2.5 L 1373.75833333 -2.5" stroke="#969696" fill="none" stroke-width="1px" />
<path d="M 1373.75833333 -2.5 L 1383.75833333 -12.5 L 1373.75833333 -22.5" stroke="#969696" fill="none" stroke-width="1px" />
<path d="M 0.0 235.0 L 107.041666666 185.0" stroke="#0095FF" fill="none" stroke-width="2px" />
<path d="M 107.041666666 165.0 L 107.041666666 145.0" stroke="#0095FF" fill="none" stroke-width="2px" />
<path d="M 117.041666666 145.0 L 117.041666666 125.0" stroke="#0095FF" fill="none" stroke-width="2px" />
<path d="M 137.041666666 125.0 L 137.041666666 105.0" stroke="#0095FF" fill="none" stroke-width="2px" />
<path d="M 127.041666666 95.0 L 147.041666666 105.0" stroke="#0095FF" fill="none" stroke-width="2px" />
<path d="M 147.041666666 105.0 L 147.041666666 75.0" stroke="#0095FF" fill="none" stroke-width="2px" />
<path d="M 137.041666666 65.0 L 167.041666666 145.0" stroke="#0095FF" fill="none" stroke-width="2px" />
<path d="M 167.041666666 145.0 L 177.041666666 175.0" stroke="#0095FF" fill="none" stroke-width="2px" />
<path d="M 177.041666666 175.0 L 157.041666666 195.0" stroke="#0095FF" fill="none" stroke-width="2px" />
<path d="M 127.041666666 205.0 L 377.041666666 185.0" stroke="#0095FF" fill="none" stroke-width="2px" />
<path d="M 407.041666666 145.0 L 407.041666666 195.0" stroke="#0095FF" fill="none" stroke-width="2px" />
<path d="M 417.041666666 195.0 L 407.041666666 85.0" stroke="#0095FF" fill="none" stroke-width="2px" />
<path d="M 377.041666666 75.0 L 377.041666666 55.0" stroke="#0095FF" fill="none" stroke-width="2px" />
<path d="M 387.041666666 55.0 L 387.041666666 35.0" stroke="#0095FF" fill="none" stroke-width="2px" />
<path d="M 377.041666666 25.0 L 397.041666666 35.0" stroke="#0095FF" fill="none" stroke-width="2px" />
<path d="M 397.041666666 35.0 L 417.041666666 55.0" stroke="#0095FF" fill="none" stroke-width="2px" />
<path d="M 417.041666666 55.0 L 787.041666666 125.0" stroke="#0095FF" fill="none" stroke-width="2px" />
<path d="M 847.041666666 165.0 L 827.041666666 175.0" stroke="#0095FF" fill="none" stroke-width="2px" />
<path d="M 847.041666666 225.0 L 847.041666666 195.0" stroke="#0095FF" fill="none" stroke-width="2px" />
<path d="M 857.041666666 195.0 L 857.041666666 115.0" stroke="#0095FF" fill="none" stroke-width="2px" />
<path d="M 847.041666666 105.0 L 1107.04166667 155.0" stroke="#0095FF" fill="none" stroke-width="2px" />
<path d="M 1127.04166667 195.0 L 1127.04166667 145.0" stroke="#0095FF" fill="none" stroke-width="2px" />
<path d="M 1147.04166667 145.0 L 1167.04166667 115.0" stroke="#0095FF" fill="none" stroke-width="2px" />
<path d="M 1157.04166667 95.0 L 1157.04166667 75.0" stroke="#0095FF" fill="none" stroke-width="2px" />
<path d="M 1167.04166667 75.0 L 1167.04166667 55.0" stroke="#0095FF" fill="none" stroke-width="2px" />
<path d="M 1177.04166667 55.0 L 1197.04166667 75.0" stroke="#0095FF" fill="none" stroke-width="2px" />
<path d="M 1197.04166667 75.0 L 1187.04166667 105.0" stroke="#0095FF" fill="none" stroke-width="2px" />
<path d="M 1187.04166667 105.0 L 1247.04166667 115.0" stroke="#0095FF" fill="none" stroke-width="2px" />
<path d="M 1267.04166667 165.0 L 1267.04166667 105.0" stroke="#0095FF" fill="none" stroke-width="2px" />
<path d="M 107.041666666 185.0 L 117.041666666 185.0" stroke="#FF0000" fill="none" stroke-width="4px" />
<path d="M 117.041666666 185.0 L 127.041666666 185.0" stroke="#FF0000" fill="none" stroke-width="4px" />
<path d="M 127.041666666 185.0 L 137.041666666 185.0" stroke="#FF0000" fill="none" stroke-width="4px" />
<path d="M 137.041666666 185.0 L 147.041666666 185.0" stroke="#FF0000" fill="none" stroke-width="4px" />
<path d="M 147.041666666 185.0 L 157.041666666 185.0" stroke="#FF0000" fill="none" stroke-width="4px" />
<path d="M 157.041666666 185.0 L 167.041666666 185.0" stroke="#FF0000" fill="none" stroke-width="4px" />
<path d="M 167.041666666 185.0 L 167.041666666 175.0" stroke="#FF0000" fill="none" stroke-width="4px" />
<path d="M 167.041666666 175.0 L 157.041666666 175.0" stroke="#FF0000" fill="none" stroke-width="4px" />
<path d="M 157.041666666 175.0 L 147.041666666 175.0" stroke="#FF0000" fill="none" stroke-width="4px" />
<path d="M 147.041666666 175.0 L 137.041666666 175.0" stroke="#FF0000" fill="none" stroke-width="4px" />
<path d="M 137.041666666 175.0 L 127.041666666 175.0" stroke="#FF0000" fill="none" stroke-width="4px" />
<path d="M 127.041666666 175.0 L 117.041666666 175.0" stroke="#FF0000" fill="none" stroke-width="4px" />
<path d="M 117.041666666 175.0 L 107.041666666 175.0" stroke="#FF0000" fill="none" stroke-width="4px" />
<path d="M 107.041666666 175.0 L 97.0416666663 175.0" stroke="#FF0000" fill="none" stroke-width="4px" />
<path d="M 97.0416666663 175.0 L 97.0416666663 165.0" stroke="#FF0000" fill="none" stroke-width="4px" />
<path d="M 97.0416666663 165.0 L 87.0416666663 165.0" stroke="#FF0000" fill="none" stroke-width="4px" />
<path d="M 87.0416666663 165.0 L 87.0416666663 155.0" stroke="#FF0000" fill="none" stroke-width="4px" />
<path d="M 87.0416666663 155.0 L 97.0416666663 155.0" stroke="#FF0000" fill="none" stroke-width="4px" />
<path d="M 97.0416666663 155.0 L 107.041666666 155.0" stroke="#FF0000" fill="none" stroke-width="4px" />
<path d="M 107.041666666 155.0 L 117.041666666 155.0" stroke="#FF0000" fill="none" stroke-width="4px" />
<path d="M 117.041666666 155.0 L 127.041666666 155.0" stroke="#FF0000" fill="none" stroke-width="4px" />
<path d="M 127.041666666 155.0 L 137.041666666 155.0" stroke="#FF0000" fill="none" stroke-width="4px" />
<path d="M 137.041666666 155.0 L 147.041666666 155.0" stroke="#FF0000" fill="none" stroke-width="4px" />
<path d="M 147.041666666 155.0 L 157.041666666 155.0" stroke="#FF0000" fill="none" stroke-width="4px" />
<path d="M 157.041666666 155.0 L 167.041666666 155.0" stroke="#FF0000" fill="none" stroke-width="4px" />
<path d="M 167.041666666 155.0 L 177.041666666 155.0" stroke="#FF0000" fill="none" stroke-width="4px" />
<path d="M 177.041666666 155.0 L 177.041666666 165.0" stroke="#FF0000" fill="none" stroke-width="4px" />
<path d="M 177.041666666 165.0 L 167.041666666 165.0" stroke="#FF0000" fill="none" stroke-width="4px" />
<path d="M 167.041666666 165.0 L 157.041666666 165.0" stroke="#FF0000" fill="none" stroke-width="4px" />
<path d="M 157.041666666 165.0 L 147.041666666 165.0" stroke="#FF0000" fill="none" stroke-width="4px" />
<path d="M 147.041666666 165.0 L 137.041666666 165.0" stroke="#FF0000" fill="none" stroke-width="4px" />
<path d="M 137.041666666 165.0 L 127.041666666 165.0" stroke="#FF0000" fill="none" stroke-width="4px" />
<path d="M 127.041666666 165.0 L 117.041666666 165.0" stroke="#FF0000" fill="none" stroke-width="4px" />
<path d="M 117.041666666 165.0 L 107.041666666 165.0" stroke="#FF0000" fill="none" stroke-width="4px" />
<path d="M 107.041666666 145.0 L 97.0416666663 145.0" stroke="#FF0000" fill="none" stroke-width="4px" />
<path d="M 97.0416666663 145.0 L 87.0416666663 145.0" stroke="#FF0000" fill="none" stroke-width="4px" />
<path d="M 87.0416666663 145.0 L 97.0416666663 135.0" stroke="#FF0000" fill="none" stroke-width="4px" />
<path d="M 97.0416666663 135.0 L 107.041666666 135.0" stroke="#FF0000" fill="none" stroke-width="4px" />
<path d="M 107.041666666 135.0 L 117.041666666 135.0" stroke="#FF0000" fill="none" stroke-width="4px" />
<path d="M 117.041666666 135.0 L 127.041666666 135.0" stroke="#FF0000" fill="none" stroke-width="4px" />
<path d="M 127.041666666 135.0 L 137.041666666 135.0" stroke="#FF0000" fill="none" stroke-width="4px" />
<path d="M 137.041666666 135.0 L 147.041666666 135.0" stroke="#FF0000" fill="none" stroke-width="4px" />
<path d="M 147.041666666 135.0 L 157.041666666 135.0" stroke="#FF0000" fill="none" stroke-width="4px" />
<path d="M 157.041666666 135.0 L 157.041666666 145.0" stroke="#FF0000" fill="none" stroke-width="4px" />
<path d="M 157.041666666 145.0 L 147.041666666 145.0" stroke="#FF0000" fill="none" stroke-width="4px" />
<path d="M 147.041666666 145.0 L 137.041666666 145.0" stroke="#FF0000" fill="none" stroke-width="4px" />
<path d="M 137.041666666 145.0 L 127.041666666 145.0" stroke="#FF0000" fill="none" stroke-width="4px" />
<path d="M 127.041666666 145.0 L 117.041666666 145.0" stroke="#FF0000" fill="none" stroke-width="4px" />
<path d="M 117.041666666 125.0 L 107.041666666 125.0" stroke="#FF0000" fill="none" stroke-width="4px" />
<path d="M 107.041666666 125.0 L 117.041666666 115.0" stroke="#FF0000" fill="none" stroke-width="4px" />
<path d="M 117.041666666 115.0 L 127.041666666 115.0" stroke="#FF0000" fill="none" stroke-width="4px" />
<path d="M 127.041666666 115.0 L 127.041666666 125.0" stroke="#FF0000" fill="none" stroke-width="4px" />
<path d="M 127.041666666 125.0 L 137.041666666 125.0" stroke="#FF0000" fill="none" stroke-width="4px" />
<path d="M 137.041666666 105.0 L 127.041666666 105.0" stroke="#FF0000" fill="none" stroke-width="4px" />
<path d="M 127.041666666 105.0 L 117.041666666 105.0" stroke="#FF0000" fill="none" stroke-width="4px" />
<path d="M 117.041666666 105.0 L 117.041666666 95.0" stroke="#FF0000" fill="none" stroke-width="4px" />
<path d="M 117.041666666 95.0 L 107.041666666 95.0" stroke="#FF0000" fill="none" stroke-width="4px" />
<path d="M 107.041666666 95.0 L 107.041666666 85.0" stroke="#FF0000" fill="none" stroke-width="4px" />
<path d="M 107.041666666 85.0 L 117.041666666 85.0" stroke="#FF0000" fill="none" stroke-width="4px" />
<path d="M 117.041666666 85.0 L 127.041666666 85.0" stroke="#FF0000" fill="none" stroke-width="4px" />
<path d="M 127.041666666 85.0 L 137.041666666 85.0" stroke="#FF0000" fill="none" stroke-width="4px" />
<path d="M 137.041666666 85.0 L 147.041666666 85.0" stroke="#FF0000" fill="none" stroke-width="4px" />
<path d="M 147.041666666 85.0 L 157.041666666 85.0" stroke="#FF0000" fill="none" stroke-width="4px" />
<path d="M 157.041666666 85.0 L 157.041666666 95.0" stroke="#FF0000" fill="none" stroke-width="4px" />
<path d="M 157.041666666 95.0 L 147.041666666 95.0" stroke="#FF0000" fill="none" stroke-width="4px" />
<path d="M 147.041666666 95.0 L 137.041666666 95.0" stroke="#FF0000" fill="none" stroke-width="4px" />
<path d="M 137.041666666 95.0 L 127.041666666 95.0" stroke="#FF0000" fill="none" stroke-width="4px" />
<path d="M 147.041666666 75.0 L 137.041666666 75.0" stroke="#FF0000" fill="none" stroke-width="4px" />
<path d="M 137.041666666 75.0 L 127.041666666 75.0" stroke="#FF0000" fill="none" stroke-width="4px" />
<path d="M 127.041666666 75.0 L 117.041666666 75.0" stroke="#FF0000" fill="none" stroke-width="4px" />
<path d="M 117.041666666 75.0 L 107.041666666 75.0" stroke="#FF0000" fill="none" stroke-width="4px" />
<path d="M 107.041666666 75.0 L 117.041666666 65.0" stroke="#FF0000" fill="none" stroke-width="4px" />
<path d="M 117.041666666 65.0 L 127.041666666 65.0" stroke="#FF0000" fill="none" stroke-width="4px" />
<path d="M 127.041666666 65.0 L 137.041666666 65.0" stroke="#FF0000" fill="none" stroke-width="4px" />
<path d="M 157.041666666 195.0 L 147.041666666 195.0" stroke="#FF0000" fill="none" stroke-width="4px" />
<path d="M 147.041666666 195.0 L 137.041666666 195.0" stroke="#FF0000" fill="none" stroke-width="4px" />
<path d="M 137.041666666 195.0 L 127.041666666 195.0" stroke="#FF0000" fill="none" stroke-width="4px" />
<path d="M 127.041666666 195.0 L 117.041666666 195.0" stroke="#FF0000" fill="none" stroke-width="4px" />
<path d="M 117.041666666 195.0 L 127.041666666 205.0" stroke="#FF0000" fill="none" stroke-width="4px" />
<path d="M 377.041666666 185.0 L 387.041666666 185.0" stroke="#FF0000" fill="none" stroke-width="4px" />
<path d="M 387.041666666 185.0 L 397.041666666 185.0" stroke="#FF0000" fill="none" stroke-width="4px" />
<path d="M 397.041666666 185.0 L 407.041666666 185.0" stroke="#FF0000" fill="none" stroke-width="4px" />
<path d="M 407.041666666 185.0 L 417.041666666 185.0" stroke="#FF0000" fill="none" stroke-width="4px" />
<path d="M 417.041666666 185.0 L 427.041666666 185.0" stroke="#FF0000" fill="none" stroke-width="4px" />
<path d="M 427.041666666 185.0 L 427.041666666 175.0" stroke="#FF0000" fill="none" stroke-width="4px" />
<path d="M 427.041666666 175.0 L 417.041666666 175.0" stroke="#FF0000" fill="none" stroke-width="4px" />
<path d="M 417.041666666 175.0 L 407.041666666 175.0" stroke="#FF0000" fill="none" stroke-width="4px" />
<path d="M 407.041666666 175.0 L 397.041666666 175.0" stroke="#FF0000" fill="none" stroke-width="4px" />
<path d="M 397.041666666 175.0 L 387.041666666 175.0" stroke="#FF0000" fill="none" stroke-width="4px" />
<path d="M 387.041666666 175.0 L 387.041666666 165.0" stroke="#FF0000" fill="none" stroke-width="4px" />
<path d="M 387.041666666 165.0 L 397.041666666 165.0" stroke="#FF0000" fill="none" stroke-width="4px" />
<path d="M 397.041666666 165.0 L 407.041666666 165.0" stroke="#FF0000" fill="none" stroke-width="4px" />
<path d="M 407.041666666 165.0 L 417.041666666 165.0" stroke="#FF0000" fill="none" stroke-width="4px" />
<path d="M 417.041666666 165.0 L 427.041666666 165.0" stroke="#FF0000" fill="none" stroke-width="4px" />
<path d="M 427.041666666 165.0 L 417.041666666 155.0" stroke="#FF0000" fill="none" stroke-width="4px" />
<path d="M 417.041666666 155.0 L 407.041666666 155.0" stroke="#FF0000" fill="none" stroke-width="4px" />
<path d="M 407.041666666 155.0 L 397.041666666 155.0" stroke="#FF0000" fill="none" stroke-width="4px" />
<path d="M 397.041666666 155.0 L 407.041666666 145.0" stroke="#FF0000" fill="none" stroke-width="4px" />
<path d="M 407.041666666 195.0 L 397.041666666 195.0" stroke="#FF0000" fill="none" stroke-width="4px" />
<path d="M 397.041666666 195.0 L 387.041666666 195.0" stroke="#FF0000" fill="none" stroke-width="4px" />
<path d="M 387.041666666 195.0 L 397.041666666 205.0" stroke="#FF0000" fill="none" stroke-width="4px" />
<path d="M 397.041666666 205.0 L 407.041666666 205.0" stroke="#FF0000" fill="none" stroke-width="4px" />
<path d="M 407.041666666 205.0 L 417.041666666 195.0" stroke="#FF0000" fill="none" stroke-width="4px" />
<path d="M 407.041666666 85.0 L 397.041666666 85.0" stroke="#FF0000" fill="none" stroke-width="4px" />
<path d="M 397.041666666 85.0 L 387.041666666 85.0" stroke="#FF0000" fill="none" stroke-width="4px" />
<path d="M 387.041666666 85.0 L 377.041666666 85.0" stroke="#FF0000" fill="none" stroke-width="4px" />
<path d="M 377.041666666 85.0 L 367.041666666 85.0" stroke="#FF0000" fill="none" stroke-width="4px" />
<path d="M 367.041666666 85.0 L 367.041666666 75.0" stroke="#FF0000" fill="none" stroke-width="4px" />
<path d="M 367.041666666 75.0 L 357.041666666 75.0" stroke="#FF0000" fill="none" stroke-width="4px" />
<path d="M 357.041666666 75.0 L 357.041666666 65.0" stroke="#FF0000" fill="none" stroke-width="4px" />
<path d="M 357.041666666 65.0 L 367.041666666 65.0" stroke="#FF0000" fill="none" stroke-width="4px" />
<path d="M 367.041666666 65.0 L 377.041666666 65.0" stroke="#FF0000" fill="none" stroke-width="4px" />
<path d="M 377.041666666 65.0 L 387.041666666 65.0" stroke="#FF0000" fill="none" stroke-width="4px" />
<path d="M 387.041666666 65.0 L 397.041666666 65.0" stroke="#FF0000" fill="none" stroke-width="4px" />
<path d="M 397.041666666 65.0 L 407.041666666 65.0" stroke="#FF0000" fill="none" stroke-width="4px" />
<path d="M 407.041666666 65.0 L 417.041666666 65.0" stroke="#FF0000" fill="none" stroke-width="4px" />
<path d="M 417.041666666 65.0 L 417.041666666 75.0" stroke="#FF0000" fill="none" stroke-width="4px" />
<path d="M 417.041666666 75.0 L 407.041666666 75.0" stroke="#FF0000" fill="none" stroke-width="4px" />
<path d="M 407.041666666 75.0 L 397.041666666 75.0" stroke="#FF0000" fill="none" stroke-width="4px" />
<path d="M 397.041666666 75.0 L 387.041666666 75.0" stroke="#FF0000" fill="none" stroke-width="4px" />
<path d="M 387.041666666 75.0 L 377.041666666 75.0" stroke="#FF0000" fill="none" stroke-width="4px" />
<path d="M 377.041666666 55.0 L 367.041666666 55.0" stroke="#FF0000" fill="none" stroke-width="4px" />
<path d="M 367.041666666 55.0 L 357.041666666 55.0" stroke="#FF0000" fill="none" stroke-width="4px" />
<path d="M 357.041666666 55.0 L 357.041666666 45.0" stroke="#FF0000" fill="none" stroke-width="4px" />
<path d="M 357.041666666 45.0 L 367.041666666 45.0" stroke="#FF0000" fill="none" stroke-width="4px" />
<path d="M 367.041666666 45.0 L 377.041666666 45.0" stroke="#FF0000" fill="none" stroke-width="4px" />
<path d="M 377.041666666 45.0 L 387.041666666 45.0" stroke="#FF0000" fill="none" stroke-width="4px" />
<path d="M 387.041666666 45.0 L 397.041666666 45.0" stroke="#FF0000" fill="none" stroke-width="4px" />
<path d="M 397.041666666 45.0 L 407.041666666 45.0" stroke="#FF0000" fill="none" stroke-width="4px" />
<path d="M 407.041666666 45.0 L 407.041666666 55.0" stroke="#FF0000" fill="none" stroke-width="4px" />
<path d="M 407.041666666 55.0 L 397.041666666 55.0" stroke="#FF0000" fill="none" stroke-width="4px" />
<path d="M 397.041666666 55.0 L 387.041666666 55.0" stroke="#FF0000" fill="none" stroke-width="4px" />
<path d="M 387.041666666 35.0 L 377.041666666 35.0" stroke="#FF0000" fill="none" stroke-width="4px" />
<path d="M 377.041666666 35.0 L 367.041666666 35.0" stroke="#FF0000" fill="none" stroke-width="4px" />
<path d="M 367.041666666 35.0 L 377.041666666 25.0" stroke="#FF0000" fill="none" stroke-width="4px" />
<path d="M 787.041666666 125.0 L 797.041666666 125.0" stroke="#FF0000" fill="none" stroke-width="4px" />
<path d="M 797.041666666 125.0 L 807.041666666 125.0" stroke="#FF0000" fill="none" stroke-width="4px" />
<path d="M 807.041666666 125.0 L 817.041666666 125.0" stroke="#FF0000" fill="none" stroke-width="4px" />
<path d="M 817.041666666 125.0 L 827.041666666 125.0" stroke="#FF0000" fill="none" stroke-width="4px" />
<path d="M 827.041666666 125.0 L 837.041666666 125.0" stroke="#FF0000" fill="none" stroke-width="4px" />
<path d="M 837.041666666 125.0 L 847.041666666 125.0" stroke="#FF0000" fill="none" stroke-width="4px" />
<path d="M 847.041666666 125.0 L 857.041666666 125.0" stroke="#FF0000" fill="none" stroke-width="4px" />
<path d="M 857.041666666 125.0 L 867.041666666 125.0" stroke="#FF0000" fill="none" stroke-width="4px" />
<path d="M 867.041666666 125.0 L 867.041666666 135.0" stroke="#FF0000" fill="none" stroke-width="4px" />
<path d="M 867.041666666 135.0 L 857.041666666 135.0" stroke="#FF0000" fill="none" stroke-width="4px" />
<path d="M 857.041666666 135.0 L 847.041666666 135.0" stroke="#FF0000" fill="none" stroke-width="4px" />
<path d="M 847.041666666 135.0 L 837.041666666 135.0" stroke="#FF0000" fill="none" stroke-width="4px" />
<path d="M 837.041666666 135.0 L 827.041666666 135.0" stroke="#FF0000" fill="none" stroke-width="4px" />
<path d="M 827.041666666 135.0 L 817.041666666 135.0" stroke="#FF0000" fill="none" stroke-width="4px" />
<path d="M 817.041666666 135.0 L 807.041666666 135.0" stroke="#FF0000" fill="none" stroke-width="4px" />
<path d="M 807.041666666 135.0 L 797.041666666 135.0" stroke="#FF0000" fill="none" stroke-width="4px" />
<path d="M 797.041666666 135.0 L 787.041666666 135.0" stroke="#FF0000" fill="none" stroke-width="4px" />
<path d="M 787.041666666 135.0 L 797.041666666 145.0" stroke="#FF0000" fill="none" stroke-width="4px" />
<path d="M 797.041666666 145.0 L 807.041666666 145.0" stroke="#FF0000" fill="none" stroke-width="4px" />
<path d="M 807.041666666 145.0 L 817.041666666 145.0" stroke="#FF0000" fill="none" stroke-width="4px" />
<path d="M 817.041666666 145.0 L 827.041666666 145.0" stroke="#FF0000" fill="none" stroke-width="4px" />
<path d="M 827.041666666 145.0 L 837.041666666 145.0" stroke="#FF0000" fill="none" stroke-width="4px" />
<path d="M 837.041666666 145.0 L 847.041666666 145.0" stroke="#FF0000" fill="none" stroke-width="4px" />
<path d="M 847.041666666 145.0 L 857.041666666 145.0" stroke="#FF0000" fill="none" stroke-width="4px" />
<path d="M 857.041666666 145.0 L 867.041666666 145.0" stroke="#FF0000" fill="none" stroke-width="4px" />
<path d="M 867.041666666 145.0 L 857.041666666 155.0" stroke="#FF0000" fill="none" stroke-width="4px" />
<path d="M 857.041666666 155.0 L 847.041666666 155.0" stroke="#FF0000" fill="none" stroke-width="4px" />
<path d="M 847.041666666 155.0 L 837.041666666 155.0" stroke="#FF0000" fill="none" stroke-width="4px" />
<path d="M 837.041666666 155.0 L 827.041666666 155.0" stroke="#FF0000" fill="none" stroke-width="4px" />
<path d="M 827.041666666 155.0 L 817.041666666 155.0" stroke="#FF0000" fill="none" stroke-width="4px" />
<path d="M 817.041666666 155.0 L 807.041666666 155.0" stroke="#FF0000" fill="none" stroke-width="4px" />
<path d="M 807.041666666 155.0 L 817.041666666 165.0" stroke="#FF0000" fill="none" stroke-width="4px" />
<path d="M 817.041666666 165.0 L 827.041666666 165.0" stroke="#FF0000" fill="none" stroke-width="4px" />
<path d="M 827.041666666 165.0 L 837.041666666 165.0" stroke="#FF0000" fill="none" stroke-width="4px" />
<path d="M 837.041666666 165.0 L 847.041666666 165.0" stroke="#FF0000" fill="none" stroke-width="4px" />
<path d="M 827.041666666 175.0 L 817.041666666 175.0" stroke="#FF0000" fill="none" stroke-width="4px" />
<path d="M 817.041666666 175.0 L 807.041666666 175.0" stroke="#FF0000" fill="none" stroke-width="4px" />
<path d="M 807.041666666 175.0 L 807.041666666 185.0" stroke="#FF0000" fill="none" stroke-width="4px" />
<path d="M 807.041666666 185.0 L 797.041666666 185.0" stroke="#FF0000" fill="none" stroke-width="4px" />
<path d="M 797.041666666 185.0 L 797.041666666 195.0" stroke="#FF0000" fill="none" stroke-width="4px" />
<path d="M 797.041666666 195.0 L 787.041666666 195.0" stroke="#FF0000" fill="none" stroke-width="4px" />
<path d="M 787.041666666 195.0 L 777.041666666 195.0" stroke="#FF0000" fill="none" stroke-width="4px" />
<path d="M 777.041666666 195.0 L 777.041666666 205.0" stroke="#FF0000" fill="none" stroke-width="4px" />
<path d="M 777.041666666 205.0 L 787.041666666 205.0" stroke="#FF0000" fill="none" stroke-width="4px" />
<path d="M 787.041666666 205.0 L 797.041666666 205.0" stroke="#FF0000" fill="none" stroke-width="4px" />
<path d="M 797.041666666 205.0 L 807.041666666 205.0" stroke="#FF0000" fill="none" stroke-width="4px" />
<path d="M 807.041666666 205.0 L 817.041666666 205.0" stroke="#FF0000" fill="none" stroke-width="4px" />
<path d="M 817.041666666 205.0 L 827.041666666 205.0" stroke="#FF0000" fill="none" stroke-width="4px" />
<path d="M 827.041666666 205.0 L 837.041666666 205.0" stroke="#FF0000" fill="none" stroke-width="4px" />
<path d="M 837.041666666 205.0 L 847.041666666 205.0" stroke="#FF0000" fill="none" stroke-width="4px" />
<path d="M 847.041666666 205.0 L 857.041666666 205.0" stroke="#FF0000" fill="none" stroke-width="4px" />
<path d="M 857.041666666 205.0 L 867.041666666 205.0" stroke="#FF0000" fill="none" stroke-width="4px" />
<path d="M 867.041666666 205.0 L 857.041666666 215.0" stroke="#FF0000" fill="none" stroke-width="4px" />
<path d="M 857.041666666 215.0 L 847.041666666 215.0" stroke="#FF0000" fill="none" stroke-width="4px" />
<path d="M 847.041666666 215.0 L 837.041666666 215.0" stroke="#FF0000" fill="none" stroke-width="4px" />
<path d="M 837.041666666 215.0 L 827.041666666 215.0" stroke="#FF0000" fill="none" stroke-width="4px" />
<path d="M 827.041666666 215.0 L 817.041666666 215.0" stroke="#FF0000" fill="none" stroke-width="4px" />
<path d="M 817.041666666 215.0 L 807.041666666 215.0" stroke="#FF0000" fill="none" stroke-width="4px" />
<path d="M 807.041666666 215.0 L 797.041666666 215.0" stroke="#FF0000" fill="none" stroke-width="4px" />
<path d="M 797.041666666 215.0 L 787.041666666 215.0" stroke="#FF0000" fill="none" stroke-width="4px" />
<path d="M 787.041666666 215.0 L 797.041666666 225.0" stroke="#FF0000" fill="none" stroke-width="4px" />
<path d="M 797.041666666 225.0 L 807.041666666 225.0" stroke="#FF0000" fill="none" stroke-width="4px" />
<path d="M 807.041666666 225.0 L 817.041666666 225.0" stroke="#FF0000" fill="none" stroke-width="4px" />
<path d="M 817.041666666 225.0 L 827.041666666 225.0" stroke="#FF0000" fill="none" stroke-width="4px" />
<path d="M 827.041666666 225.0 L 837.041666666 225.0" stroke="#FF0000" fill="none" stroke-width="4px" />
<path d="M 837.041666666 225.0 L 847.041666666 225.0" stroke="#FF0000" fill="none" stroke-width="4px" />
<path d="M 847.041666666 195.0 L 837.041666666 195.0" stroke="#FF0000" fill="none" stroke-width="4px" />
<path d="M 837.041666666 195.0 L 827.041666666 195.0" stroke="#FF0000" fill="none" stroke-width="4px" />
<path d="M 827.041666666 195.0 L 817.041666666 195.0" stroke="#FF0000" fill="none" stroke-width="4px" />
<path d="M 817.041666666 195.0 L 807.041666666 195.0" stroke="#FF0000" fill="none" stroke-width="4px" />
<path d="M 807.041666666 195.0 L 817.041666666 185.0" stroke="#FF0000" fill="none" stroke-width="4px" />
<path d="M 817.041666666 185.0 L 827.041666666 185.0" stroke="#FF0000" fill="none" stroke-width="4px" />
<path d="M 827.041666666 185.0 L 837.041666666 185.0" stroke="#FF0000" fill="none" stroke-width="4px" />
<path d="M 837.041666666 185.0 L 847.041666666 185.0" stroke="#FF0000" fill="none" stroke-width="4px" />
<path d="M 847.041666666 185.0 L 857.041666666 195.0" stroke="#FF0000" fill="none" stroke-width="4px" />
<path d="M 857.041666666 115.0 L 847.041666666 115.0" stroke="#FF0000" fill="none" stroke-width="4px" />
<path d="M 847.041666666 115.0 L 837.041666666 115.0" stroke="#FF0000" fill="none" stroke-width="4px" />
<path d="M 837.041666666 115.0 L 827.041666666 115.0" stroke="#FF0000" fill="none" stroke-width="4px" />
<path d="M 827.041666666 115.0 L 817.041666666 115.0" stroke="#FF0000" fill="none" stroke-width="4px" />
<path d="M 817.041666666 115.0 L 807.041666666 115.0" stroke="#FF0000" fill="none" stroke-width="4px" />
<path d="M 807.041666666 115.0 L 797.041666666 115.0" stroke="#FF0000" fill="none" stroke-width="4px" />
<path d="M 797.041666666 115.0 L 807.041666666 105.0" stroke="#FF0000" fill="none" stroke-width="4px" />
<path d="M 807.041666666 105.0 L 817.041666666 105.0" stroke="#FF0000" fill="none" stroke-width="4px" />
<path d="M 817.041666666 105.0 L 827.041666666 105.0" stroke="#FF0000" fill="none" stroke-width="4px" />
<path d="M 827.041666666 105.0 L 837.041666666 105.0" stroke="#FF0000" fill="none" stroke-width="4px" />
<path d="M 837.041666666 105.0 L 847.041666666 105.0" stroke="#FF0000" fill="none" stroke-width="4px" />
<path d="M 1107.04166667 155.0 L 1117.04166667 155.0" stroke="#FF0000" fill="none" stroke-width="4px" />
<path d="M 1117.04166667 155.0 L 1127.04166667 155.0" stroke="#FF0000" fill="none" stroke-width="4px" />
<path d="M 1127.04166667 155.0 L 1137.04166667 155.0" stroke="#FF0000" fill="none" stroke-width="4px" />
<path d="M 1137.04166667 155.0 L 1147.04166667 155.0" stroke="#FF0000" fill="none" stroke-width="4px" />
<path d="M 1147.04166667 155.0 L 1157.04166667 155.0" stroke="#FF0000" fill="none" stroke-width="4px" />
<path d="M 1157.04166667 155.0 L 1157.04166667 165.0" stroke="#FF0000" fill="none" stroke-width="4px" />
<path d="M 1157.04166667 165.0 L 1147.04166667 165.0" stroke="#FF0000" fill="none" stroke-width="4px" />
<path d="M 1147.04166667 165.0 L 1137.04166667 165.0" stroke="#FF0000" fill="none" stroke-width="4px" />
<path d="M 1137.04166667 165.0 L 1127.04166667 165.0" stroke="#FF0000" fill="none" stroke-width="4px" />
<path d="M 1127.04166667 165.0 L 1117.04166667 165.0" stroke="#FF0000" fill="none" stroke-width="4px" />
<path d="M 1117.04166667 165.0 L 1107.04166667 165.0" stroke="#FF0000" fill="none" stroke-width="4px" />
<path d="M 1107.04166667 165.0 L 1107.04166667 175.0" stroke="#FF0000" fill="none" stroke-width="4px" />
<path d="M 1107.04166667 175.0 L 1117.04166667 175.0" stroke="#FF0000" fill="none" stroke-width="4px" />
<path d="M 1117.04166667 175.0 L 1127.04166667 175.0" stroke="#FF0000" fill="none" stroke-width="4px" />
<path d="M 1127.04166667 175.0 L 1137.04166667 175.0" stroke="#FF0000" fill="none" stroke-width="4px" />
<path d="M 1137.04166667 175.0 L 1147.04166667 175.0" stroke="#FF0000" fill="none" stroke-width="4px" />
<path d="M 1147.04166667 175.0 L 1137.04166667 185.0" stroke="#FF0000" fill="none" stroke-width="4px" />
<path d="M 1137.04166667 185.0 L 1127.04166667 185.0" stroke="#FF0000" fill="none" stroke-width="4px" />
<path d="M 1127.04166667 185.0 L 1117.04166667 185.0" stroke="#FF0000" fill="none" stroke-width="4px" />
<path d="M 1117.04166667 185.0 L 1127.04166667 195.0" stroke="#FF0000" fill="none" stroke-width="4px" />
<path d="M 1127.04166667 145.0 L 1117.04166667 145.0" stroke="#FF0000" fill="none" stroke-width="4px" />
<path d="M 1117.04166667 145.0 L 1127.04166667 135.0" stroke="#FF0000" fill="none" stroke-width="4px" />
<path d="M 1127.04166667 135.0 L 1137.04166667 135.0" stroke="#FF0000" fill="none" stroke-width="4px" />
<path d="M 1137.04166667 135.0 L 1137.04166667 145.0" stroke="#FF0000" fill="none" stroke-width="4px" />
<path d="M 1137.04166667 145.0 L 1147.04166667 145.0" stroke="#FF0000" fill="none" stroke-width="4px" />
<path d="M 1167.04166667 115.0 L 1177.04166667 115.0" stroke="#FF0000" fill="none" stroke-width="4px" />
<path d="M 1177.04166667 115.0 L 1177.04166667 105.0" stroke="#FF0000" fill="none" stroke-width="4px" />
<path d="M 1177.04166667 105.0 L 1167.04166667 105.0" stroke="#FF0000" fill="none" stroke-width="4px" />
<path d="M 1167.04166667 105.0 L 1157.04166667 105.0" stroke="#FF0000" fill="none" stroke-width="4px" />
<path d="M 1157.04166667 105.0 L 1147.04166667 105.0" stroke="#FF0000" fill="none" stroke-width="4px" />
<path d="M 1147.04166667 105.0 L 1147.04166667 95.0" stroke="#FF0000" fill="none" stroke-width="4px" />
<path d="M 1147.04166667 95.0 L 1137.04166667 95.0" stroke="#FF0000" fill="none" stroke-width="4px" />
<path d="M 1137.04166667 95.0 L 1137.04166667 85.0" stroke="#FF0000" fill="none" stroke-width="4px" />
<path d="M 1137.04166667 85.0 L 1147.04166667 85.0" stroke="#FF0000" fill="none" stroke-width="4px" />
<path d="M 1147.04166667 85.0 L 1157.04166667 85.0" stroke="#FF0000" fill="none" stroke-width="4px" />
<path d="M 1157.04166667 85.0 L 1167.04166667 85.0" stroke="#FF0000" fill="none" stroke-width="4px" />
<path d="M 1167.04166667 85.0 L 1177.04166667 85.0" stroke="#FF0000" fill="none" stroke-width="4px" />
<path d="M 1177.04166667 85.0 L 1187.04166667 85.0" stroke="#FF0000" fill="none" stroke-width="4px" />
<path d="M 1187.04166667 85.0 L 1197.04166667 85.0" stroke="#FF0000" fill="none" stroke-width="4px" />
<path d="M 1197.04166667 85.0 L 1207.04166667 85.0" stroke="#FF0000" fill="none" stroke-width="4px" />
<path d="M 1207.04166667 85.0 L 1197.04166667 95.0" stroke="#FF0000" fill="none" stroke-width="4px" />
<path d="M 1197.04166667 95.0 L 1187.04166667 95.0" stroke="#FF0000" fill="none" stroke-width="4px" />
<path d="M 1187.04166667 95.0 L 1177.04166667 95.0" stroke="#FF0000" fill="none" stroke-width="4px" />
<path d="M 1177.04166667 95.0 L 1167.04166667 95.0" stroke="#FF0000" fill="none" stroke-width="4px" />
<path d="M 1167.04166667 95.0 L 1157.04166667 95.0" stroke="#FF0000" fill="none" stroke-width="4px" />
<path d="M 1157.04166667 75.0 L 1147.04166667 75.0" stroke="#FF0000" fill="none" stroke-width="4px" />
<path d="M 1147.04166667 75.0 L 1137.04166667 75.0" stroke="#FF0000" fill="none" stroke-width="4px" />
<path d="M 1137.04166667 75.0 L 1137.04166667 65.0" stroke="#FF0000" fill="none" stroke-width="4px" />
<path d="M 1137.04166667 65.0 L 1147.04166667 65.0" stroke="#FF0000" fill="none" stroke-width="4px" />
<path d="M 1147.04166667 65.0 L 1157.04166667 65.0" stroke="#FF0000" fill="none" stroke-width="4px" />
<path d="M 1157.04166667 65.0 L 1167.04166667 65.0" stroke="#FF0000" fill="none" stroke-width="4px" />
<path d="M 1167.04166667 65.0 L 1177.04166667 65.0" stroke="#FF0000" fill="none" stroke-width="4px" />
<path d="M 1177.04166667 65.0 L 1187.04166667 65.0" stroke="#FF0000" fill="none" stroke-width="4px" />
<path d="M 1187.04166667 65.0 L 1187.04166667 75.0" stroke="#FF0000" fill="none" stroke-width="4px" />
<path d="M 1187.04166667 75.0 L 1177.04166667 75.0" stroke="#FF0000" fill="none" stroke-width="4px" />
<path d="M 1177.04166667 75.0 L 1167.04166667 75.0" stroke="#FF0000" fill="none" stroke-width="4px" />
<path d="M 1167.04166667 55.0 L 1157.04166667 55.0" stroke="#FF0000" fill="none" stroke-width="4px" />
<path d="M 1157.04166667 55.0 L 1147.04166667 55.0" stroke="#FF0000" fill="none" stroke-width="4px" />
<path d="M 1147.04166667 55.0 L 1137.04166667 55.0" stroke="#FF0000" fill="none" stroke-width="4px" />
<path d="M 1137.04166667 55.0 L 1147.04166667 45.0" stroke="#FF0000" fill="none" stroke-width="4px" />
<path d="M 1147.04166667 45.0 L 1157.04166667 45.0" stroke="#FF0000" fill="none" stroke-width="4px" />
<path d="M 1157.04166667 45.0 L 1167.04166667 45.0" stroke="#FF0000" fill="none" stroke-width="4px" />
<path d="M 1167.04166667 45.0 L 1177.04166667 55.0" stroke="#FF0000" fill="none" stroke-width="4px" />
<path d="M 1247.04166667 115.0 L 1257.04166667 115.0" stroke="#FF0000" fill="none" stroke-width="4px" />
<path d="M 1257.04166667 115.0 L 1267.04166667 115.0" stroke="#FF0000" fill="none" stroke-width="4px" />
<path d="M 1267.04166667 115.0 L 1277.04166667 115.0" stroke="#FF0000" fill="none" stroke-width="4px" />
<path d="M 1277.04166667 115.0 L 1277.04166667 125.0" stroke="#FF0000" fill="none" stroke-width="4px" />
<path d="M 1277.04166667 125.0 L 1267.04166667 125.0" stroke="#FF0000" fill="none" stroke-width="4px" />
<path d="M 1267.04166667 125.0 L 1257.04166667 125.0" stroke="#FF0000" fill="none" stroke-width="4px" />
<path d="M 1257.04166667 125.0 L 1247.04166667 125.0" stroke="#FF0000" fill="none" stroke-width="4px" />
<path d="M 1247.04166667 125.0 L 1247.04166667 135.0" stroke="#FF0000" fill="none" stroke-width="4px" />
<path d="M 1247.04166667 135.0 L 1257.04166667 135.0" stroke="#FF0000" fill="none" stroke-width="4px" />
<path d="M 1257.04166667 135.0 L 1267.04166667 135.0" stroke="#FF0000" fill="none" stroke-width="4px" />
<path d="M 1267.04166667 135.0 L 1277.04166667 135.0" stroke="#FF0000" fill="none" stroke-width="4px" />
<path d="M 1277.04166667 135.0 L 1277.04166667 145.0" stroke="#FF0000" fill="none" stroke-width="4px" />
<path d="M 1277.04166667 145.0 L 1267.04166667 145.0" stroke="#FF0000" fill="none" stroke-width="4px" />
<path d="M 1267.04166667 145.0 L 1257.04166667 145.0" stroke="#FF0000" fill="none" stroke-width="4px" />
<path d="M 1257.04166667 145.0 L 1247.04166667 145.0" stroke="#FF0000" fill="none" stroke-width="4px" />
<path d="M 1247.04166667 145.0 L 1257.04166667 155.0" stroke="#FF0000" fill="none" stroke-width="4px" />
<path d="M 1257.04166667 155.0 L 1267.04166667 155.0" stroke="#FF0000" fill="none" stroke-width="4px" />
<path d="M 1267.04166667 155.0 L 1277.04166667 155.0" stroke="#FF0000" fill="none" stroke-width="4px" />
<path d="M 1277.04166667 155.0 L 1277.04166667 165.0" stroke="#FF0000" fill="none" stroke-width="4px" />
<path d="M 1277.04166667 165.0 L 1267.04166667 165.0" stroke="#FF0000" fill="none" stroke-width="4px" />
<path d="M 1267.04166667 105.0 L 1257.04166667 105.0" stroke="#FF0000" fill="none" stroke-width="4px" />
<path d="M 1257.04166667 105.0 L 1277.04166667 105.0" stroke="#FF0000" fill="none" stroke-width="4px" />
</svg>