<svg width="1755.23333333" height="235.0" xmlns="http://www.w3.org/2000/svg" version="1.1">
<path d="M 0.0 235.0 L 1755.23333333 235.0 L 1755.23333333 0.0 L 0.0 0.0 L 0.0 235.0" stroke="#000000" fill="none" stroke-width="3px" />
<path d="M 10.0 257.5 L 0.0 247.5 L 10.0 237.5" stroke="#969696" fill="none" stroke-width="1px" />
<path d="M 10.0 237.5 L 1745.23333333 237.5" stroke="#969696" fill="none" stroke-width="1px" />
<path d="M 1745.23333333 237.5 L 1755.23333333 227.5 L 1745.23333333 217.5" stroke="#969696" fill="none" stroke-width="1px" />
<path d="M 1745.23333333 217.5 L 10.0 217.5" stroke="#969696" fill="none" stroke-width="1px" />
<path d="M 10.0 217.5 L 0.0 207.5 L 10.0 197.5" stroke="#969696" fill="none" stroke-width="1px" />
<path d="M 10.0 197.5 L 1745.23333333 197.5" stroke="#969696" fill="none" stroke-width="1px" />
<path d="M 1745.23333333 197.5 L 1755.23333333 187.5 L 1745.23333333 177.5" stroke="#969696" fill="none" stroke-width="1px" />
<path d="M 1745.23333333 177.5 L 10.0 177.5" stroke="#969696" fill="none" stroke-width="1px" />
<path d="M 10.0 177.5 L 0.0 167.5 L 10.0 157.5" stroke="#969696" fill="none" stroke-width="1px" />
<path d="M 10.0 157.5 L 1745.23333333 157.5" stroke="#969696" fill="none" stroke-width="1px" />
<path d="M 1745.23333333 157.5 L 1755.23333333 147.5 L 1745.23333333 137.5" stroke="#969696" fill="none" stroke-width="1px" />
<path d="M 1745.23333333 137.5 L 10.0 137.5" stroke="#969696" fill="none" stroke-width="1px" />
<path d="M 10.0 137.5 L 0.0 127.5 L 10.0 117.5" stroke="#969696" fill="none" stroke-width="1px" />
<path d="M 10.0 117.5 L 1745.23333333 117.5" stroke="#969696" fill="none" stroke-width="1px" />
<path d="M 1745.23333333 117.5 L 1755.23333333 107.5 L 1745.23333333 97.5" stroke="#969696" fill="none" stroke-width="1px" />
<path d="M 1745.23333333 97.5 L 10.0 97.5" stroke="#969696" fill="none" stroke-width="1px" />
<path d="M 10.0 97.5 L 0.0 87.5 L 10.0 77.5" stroke="#969696" fill="none" stroke-width="1px" />
<path d="M 10.0 77.5 L 1745.23333333 77.5" stroke="#969696" fill="none" stroke-width="1px" />
<path d="M 1745.23333333 77.5 L 1755.23333333 67.5 L 1745.23333333 57.5" stroke="#969696" fill="none" stroke-width="1px" />
<path d="M 1745.23333333 57.5 L 10.0 57.5" stroke="#969696" fill="none" stroke-width="1px" />
<path d="M 10.0 57.5 L 0.0 47.5 L 10.0 37.5" stroke="#969696" fill="none" stroke-width="1px" />
<path d="M 10.0 37.5 L 1745.23333333 37.5" stroke="#969696" fill="none" stroke-width="1px" />
<path d="M 1745.23333333 37.5 L 1755.23333333 27.5 L 1745.23333333 17.5" stroke="#969696" fill="none" stroke-width="1px" />
<path d="M 1745.23333333 17.5 L 10.0 17.5" stroke="#969696" fill="none" stroke-width="1px" />
<path d="M 10.0 17.5 L 0.0 7.5 L 10.0 -2.5" stroke="#969696" fill="none" stroke-width="1px" />
<path d="M 10.0 -2.5 L 1745.23333333 -2.5" stroke="#969696" fill="none" stroke-width="1px" />
<path d="M 1745.23333333 -2.5 L 1755.23333333 -12.5 L 1745.23333333 -22.5" stroke="#969696" fill="none" stroke-width="1px" />
<path d="M 0.0 235.0 L 64.7666666653 115.0" stroke="#0095FF" fill="none" stroke-width="2px" />
<path d="M 84.7666666653 105.0 L 84.7666666653 85.0" stroke="#0095FF" fill="none" stroke-width="2px" />
<path d="M 74.7666666653 75.0 L 604.766666665 105.0" stroke="#0095FF" fill="none" stroke-width="2px" />
<path d="M 634.766666665 145.0 L 634.766666665 95.0" stroke="#0095FF" fill="none" stroke-width="2px" />
<path d="M 644.766666665 95.0 L 864.766666665 65.0" stroke="#0095FF" fill="none" stroke-width="2px" />
<path d="M 914.766666665 85.0 L 914.766666665 55.0" stroke="#0095FF" fill="none" stroke-width="2px" />
<path d="M 924.766666665 55.0 L 914.766666665 35.0" stroke="#0095FF" fill="none" stroke-width="2px" />
<path d="M 894.766666665 25.0 L 1294.76666667 105.0" stroke="#0095FF" fill="none" stroke-width="2px" />
<path d="M 1334.76666667 145.0 L 1334.76666667 95.0" stroke="#0095FF" fill="none" stroke-width="2px" />
<path d="M 1364.76666667 95.0 L 1344.76666667 75.0" stroke="#0095FF" fill="none" stroke-width="2px" />
<path d="M 64.7666666653 115.0 L 74.7666666653 115.0" stroke="#FF0000" fill="none" stroke-width="4px" />
<path d="M 74.7666666653 115.0 L 74.7666666653 105.0" stroke="#FF0000" fill="none" stroke-width="4px" />
<path d="M 74.7666666653 105.0 L 64.7666666653 105.0" stroke="#FF0000" fill="none" stroke-width="4px" />
<path d="M 64.7666666653 105.0 L 54.7666666653 105.0" stroke="#FF0000" fill="none" stroke-width="4px" />
<path d="M 54.7666666653 105.0 L 54.7666666653 95.0" stroke="#FF0000" fill="none" stroke-width="4px" />
<path d="M 54.7666666653 95.0 L 64.7666666653 95.0" stroke="#FF0000" fill="none" stroke-width="4px" />
<path d="M 64.7666666653 95.0 L 74.7666666653 95.0" stroke="#FF0000" fill="none" stroke-width="4px" />
<path d="M 74.7666666653 95.0 L 84.7666666653 95.0" stroke="#FF0000" fill="none" stroke-width="4px" />
<path d="M 84.7666666653 95.0 L 84.7666666653 105.0" stroke="#FF0000" fill="none" stroke-width="4px" />
<path d="M 84.7666666653 85.0 L 74.7666666653 85.0" stroke="#FF0000" fill="none" stroke-width="4px" />
<path d="M 74.7666666653 85.0 L 64.7666666653 85.0" stroke="#FF0000" fill="none" stroke-width="4px" />
<path d="M 64.7666666653 85.0 L 54.7666666653 85.0" stroke="#FF0000" fill="none" stroke-width="4px" />
<path d="M 54.7666666653 85.0 L 64.7666666653 75.0" stroke="#FF0000" fill="none" stroke-width="4px" />
<path d="M 64.7666666653 75.0 L 74.7666666653 75.0" stroke="#FF0000" fill="none" stroke-width="4px" />
<path d="M 604.766666665 105.0 L 614.766666665 105.0" stroke="#FF0000" fill="none" stroke-width="4px" />
<path d="M 614.766666665 105.0 L 624.766666665 105.0" stroke="#FF0000" fill="none" stroke-width="4px" />
<path d="M 624.766666665 105.0 L 634.766666665 105.0" stroke="#FF0000" fill="none" stroke-width="4px" />
<path d="M 634.766666665 105.0 L 644.766666665 105.0" stroke="#FF0000" fill="none" stroke-width="4px" />
<path d="M 644.766666665 105.0 L 654.766666665 105.0" stroke="#FF0000" fill="none" stroke-width="4px" />
<path d="M 654.766666665 105.0 L 654.766666665 115.0" stroke="#FF0000" fill="none" stroke-width="4px" />
<path d="M 654.766666665 115.0 L 644.766666665 115.0" stroke="#FF0000" fill="none" stroke-width="4px" />
<path d="M 644.766666665 115.0 L 634.766666665 115.0" stroke="#FF0000" fill="none" stroke-width="4px" />
<path d="M 634.766666665 115.0 L 624.766666665 115.0" stroke="#FF0000" fill="none" stroke-width="4px" />
<path d="M 624.766666665 115.0 L 614.766666665 115.0" stroke="#FF0000" fill="none" stroke-width="4px" />
<path d="M 614.766666665 115.0 L 604.766666665 115.0" stroke="#FF0000" fill="none" stroke-width="4px" />
<path d="M 604.766666665 115.0 L 604.766666665 125.0" stroke="#FF0000" fill="none" stroke-width="4px" />
<path d="M 604.766666665 125.0 L 614.766666665 125.0" stroke="#FF0000" fill="none" stroke-width="4px" />
<path d="M 614.766666665 125.0 L 624.766666665 125.0" stroke="#FF0000" fill="none" stroke-width="4px" />
<path d="M 624.766666665 125.0 L 634.766666665 125.0" stroke="#FF0000" fill="none" stroke-width="4px" />
<path d="M 634.766666665 125.0 L 644.766666665 125.0" stroke="#FF0000" fill="none" stroke-width="4px" />
<path d="M 644.766666665 125.0 L 654.766666665 125.0" stroke="#FF0000" fill="none" stroke-width="4px" />
<path d="M 654.766666665 125.0 L 644.766666665 135.0" stroke="#FF0000" fill="none" stroke-width="4px" />
<path d="M 644.766666665 135.0 L 634.766666665 135.0" stroke="#FF0000" fill="none" stroke-width="4px" />
<path d="M 634.766666665 135.0 L 624.766666665 135.0" stroke="#FF0000" fill="none" stroke-width="4px" />
<path d="M 624.766666665 135.0 L 614.766666665 135.0" stroke="#FF0000" fill="none" stroke-width="4px" />
<path d="M 614.766666665 135.0 L 624.766666665 145.0" stroke="#FF0000" fill="none" stroke-width="4px" />
<path d="M 624.766666665 145.0 L 634.766666665 145.0" stroke="#FF0000" fill="none" stroke-width="4px" />
<path d="M 634.766666665 95.0 L 624.766666665 95.0" stroke="#FF0000" fill="none" stroke-width="4px" />
<path d="M 624.766666665 95.0 L 614.766666665 95.0" stroke="#FF0000" fill="none" stroke-width="4px" />
<path d="M 614.766666665 95.0 L 624.766666665 85.0" stroke="#FF0000" fill="none" stroke-width="4px" />
<path d="M 624.766666665 85.0 L 634.766666665 85.0" stroke="#FF0000" fill="none" stroke-width="4px" />
<path d="M 634.766666665 85.0 L 644.766666665 95.0" stroke="#FF0000" fill="none" stroke-width="4px" />
<path d="M 864.766666665 65.0 L 874.766666665 65.0" stroke="#FF0000" fill="none" stroke-width="4px" />
<path d="M 874.766666665 65.0 L 884.766666665 65.0" stroke="#FF0000" fill="none" stroke-width="4px" />
<path d="M 884.766666665 65.0 L 894.766666665 65.0" stroke="#FF0000" fill="none" stroke-width="4px" />
<path d="M 894.766666665 65.0 L 904.766666665 65.0" stroke="#FF0000" fill="none" stroke-width="4px" />
<path d="M 904.766666665 65.0 L 914.766666665 65.0" stroke="#FF0000" fill="none" stroke-width="4px" />
<path d="M 914.766666665 65.0 L 924.766666665 65.0" stroke="#FF0000" fill="none" stroke-width="4px" />
<path d="M 924.766666665 65.0 L 924.766666665 75.0" stroke="#FF0000" fill="none" stroke-width="4px" />
<path d="M 924.766666665 75.0 L 914.766666665 75.0" stroke="#FF0000" fill="none" stroke-width="4px" />
<path d="M 914.766666665 75.0 L 904.766666665 75.0" stroke="#FF0000" fill="none" stroke-width="4px" />
<path d="M 904.766666665 75.0 L 894.766666665 75.0" stroke="#FF0000" fill="none" stroke-width="4px" />
<path d="M 894.766666665 75.0 L 884.766666665 75.0" stroke="#FF0000" fill="none" stroke-width="4px" />
<path d="M 884.766666665 75.0 L 874.766666665 75.0" stroke="#FF0000" fill="none" stroke-width="4px" />
<path d="M 874.766666665 75.0 L 884.766666665 85.0" stroke="#FF0000" fill="none" stroke-width="4px" />
<path d="M 884.766666665 85.0 L 894.766666665 85.0" stroke="#FF0000" fill="none" stroke-width="4px" />
<path d="M 894.766666665 85.0 L 904.766666665 85.0" stroke="#FF0000" fill="none" stroke-width="4px" />
<path d="M 904.766666665 85.0 L 914.766666665 85.0" stroke="#FF0000" fill="none" stroke-width="4px" />
<path d="M 914.766666665 55.0 L 904.766666665 55.0" stroke="#FF0000" fill="none" stroke-width="4px" />
<path d="M 904.766666665 55.0 L 894.766666665 55.0" stroke="#FF0000" fill="none" stroke-width="4px" />
<path d="M 894.766666665 55.0 L 884.766666665 55.0" stroke="#FF0000" fill="none" stroke-width="4px" />
<path d="M 884.766666665 55.0 L 874.766666665 55.0" stroke="#FF0000" fill="none" stroke-width="4px" />
<path d="M 874.766666665 55.0 L 864.766666665 55.0" stroke="#FF0000" fill="none" stroke-width="4px" />
<path d="M 864.766666665 55.0 L 864.766666665 45.0" stroke="#FF0000" fill="none" stroke-width="4px" />
<path d="M 864.766666665 45.0 L 874.766666665 45.0" stroke="#FF0000" fill="none" stroke-width="4px" />
<path d="M 874.766666665 45.0 L 884.766666665 45.0" stroke="#FF0000" fill="none" stroke-width="4px" />
<path d="M 884.766666665 45.0 L 894.766666665 45.0" stroke="#FF0000" fill="none" stroke-width="4px" />
<path d="M 894.766666665 45.0 L 904.766666665 45.0" stroke="#FF0000" fill="none" stroke-width="4px" />
<path d="M 904.766666665 45.0 L 914.766666665 45.0" stroke="#FF0000" fill="none" stroke-width="4px" />
<path d="M 914.766666665 45.0 L 924.766666665 45.0" stroke="#FF0000" fill="none" stroke-width="4px" />
<path d="M 924.766666665 45.0 L 924.766666665 55.0" stroke="#FF0000" fill="none" stroke-width="4px" />
<path d="M 914.766666665 35.0 L 904.766666665 35.0" stroke="#FF0000" fill="none" stroke-width="4px" />
<path d="M 904.766666665 35.0 L 894.766666665 35.0" stroke="#FF0000" fill="none" stroke-width="4px" />
<path d="M 894.766666665 35.0 L 884.766666665 35.0" stroke="#FF0000" fill="none" stroke-width="4px" />
<path d="M 884.766666665 35.0 L 874.766666665 35.0" stroke="#FF0000" fill="none" stroke-width="4px" />
<path d="M 874.766666665 35.0 L 864.766666665 35.0" stroke="#FF0000" fill="none" stroke-width="4px" />
<path d="M 864.766666665 35.0 L 874.766666665 25.0" stroke="#FF0000" fill="none" stroke-width="4px" />
<path d="M 874.766666665 25.0 L 884.766666665 25.0" stroke="#FF0000" fill="none" stroke-width="4px" />
<path d="M 884.766666665 25.0 L 894.766666665 25.0" stroke="#FF0000" fill="none" stroke-width="4px" />
<path d="M 1294.76666667 105.0 L 1304.76666667 105.0" stroke="#FF0000" fill="none" stroke-width="4px" />
<path d="M 1304.76666667 105.0 L 1314.76666667 105.0" stroke="#FF0000" fill="none" stroke-width="4px" />
<path d="M 1314.76666667 105.0 L 1324.76666667 105.0" stroke="#FF0000" fill="none" stroke-width="4px" />
<path d="M 1324.76666667 105.0 L 1334.76666667 105.0" stroke="#FF0000" fill="none" stroke-width="4px" />
<path d="M 1334.76666667 105.0 L 1344.76666667 105.0" stroke="#FF0000" fill="none" stroke-width="4px" />
<path d="M 1344.76666667 105.0 L 1354.76666667 105.0" stroke="#FF0000" fill="none" stroke-width="4px" />
<path d="M 1354.76666667 105.0 L 1364.76666667 105.0" stroke="#FF0000" fill="none" stroke-width="4px" />
<path d="M 1364.76666667 105.0 L 1374.76666667 105.0" stroke="#FF0000" fill="none" stroke-width="4px" />
<path d="M 1374.76666667 105.0 L 1364.76666667 115.0" stroke="#FF0000" fill="none" stroke-width="4px" />
<path d="M 1364.76666667 115.0 L 1354.76666667 115.0" stroke="#FF0000" fill="none" stroke-width="4px" />
<path d="M 1354.76666667 115.0 L 1344.76666667 115.0" stroke="#FF0000" fill="none" stroke-width="4px" />
<path d="M 1344.76666667 115.0 L 1334.76666667 115.0" stroke="#FF0000" fill="none" stroke-width="4px" />
<path d="M 1334.76666667 115.0 L 1324.76666667 115.0" stroke="#FF0000" fill="none" stroke-width="4px" />
<path d="M 1324.76666667 115.0 L 1314.76666667 115.0" stroke="#FF0000" fill="none" stroke-width="4px" />
<path d="M 1314.76666667 115.0 L 1304.76666667 115.0" stroke="#FF0000" fill="none" stroke-width="4px" />
<path d="M 1304.76666667 115.0 L 1294.76666667 115.0" stroke="#FF0000" fill="none" stroke-width="4px" />
<path d="M 1294.76666667 115.0 L 1294.76666667 125.0" stroke="#FF0000" fill="none" stroke-width="4px" />
<path d="M 1294.76666667 125.0 L 1304.76666667 125.0" stroke="#FF0000" fill="none" stroke-width="4px" />
<path d="M 1304.76666667 125.0 L 1314.76666667 125.0" stroke="#FF0000" fill="none" stroke-width="4px" />
<path d="M 1314.76666667 125.0 L 1324.76666667 125.0" stroke="#FF0000" fill="none" stroke-width="4px" />
<path d="M 1324.76666667 125.0 L 1334.76666667 125.0" stroke="#FF0000" fill="none" stroke-width="4px" />
<path d="M 1334.76666667 125.0 L 1344.76666667 125.0" stroke="#FF0000" fill="none" stroke-width="4px" />
<path d="M 1344.76666667 125.0 L 1354.76666667 125.0" stroke="#FF0000" fill="none" stroke-width="4px" />
<path d="M 1354.76666667 125.0 L 1344.76666667 135.0" stroke="#FF0000" fill="none" stroke-width="4px" />
<path d="M 1344.76666667 135.0 L 1334.76666667 135.0" stroke="#FF0000" fill="none" stroke-width="4px" />
<path d="M 1334.76666667 135.0 L 1324.76666667 135.0" stroke="#FF0000" fill="none" stroke-width="4px" />
<path d="M 1324.76666667 135.0 L 1314.76666667 135.0" stroke="#FF0000" fill="none" stroke-width="4px" />
<path d="M 1314.76666667 135.0 L 1304.76666667 135.0" stroke="#FF0000" fill="none" stroke-width="4px" />
<path d="M 1304.76666667 135.0 L 1314.76666667 145.0" stroke="#FF0000" fill="none" stroke-width="4px" />
<path d="M 1314.76666667 145.0 L 1324.76666667 145.0" stroke="#FF0000" fill="none" stroke-width="4px" />
<path d="M 1324.76666667 145.0 L 1334.76666667 145.0" stroke="#FF0000" fill="none" stroke-width="4px" />
<path d="M 1334.76666667 95.0 L 1324.76666667 95.0" stroke="#FF0000" fill="none" stroke-width="4px" />
<path d="M 1324.76666667 95.0 L 1314.76666667 95.0" stroke="#FF0000" fill="none" stroke-width="4px" />
<path d="M 1314.76666667 95.0 L 1304.76666667 95.0" stroke="#FF0000" fill="none" stroke-width="4px" />
<path d="M 1304.76666667 95.0 L 1314.76666667 85.0" stroke="#FF0000" fill="none" stroke-width="4px" />
<path d="M 1314.76666667 85.0 L 1324.76666667 85.0" stroke="#FF0000" fill="none" stroke-width="4px" />
<path d="M 1324.76666667 85.0 L 1334.76666667 85.0" stroke="#FF0000" fill="none" stroke-width="4px" />
<path d="M 1334.76666667 85.0 L 1344.76666667 85.0" stroke="#FF0000" fill="none" stroke-width="4px" />
<path d="M 1344.76666667 85.0 L 1354.76666667 85.0" stroke="#FF0000" fill="none" stroke-width="4px" />
<path d="M 1354.76666667 85.0 L 1354.76666667 95.0" stroke="#FF0000" fill="none" stroke-width="4px" />
<path d="M 1354.76666667 95.0 L 1344.76666667 95.0" stroke="#FF0000" fill="none" stroke-width="4px" />
<path d="M 1344.76666667 95.0 L 1364.76666667 95.0" stroke="#FF0000" fill="none" stroke-width="4px" />
</svg>