<svg width="2472.26666667" height="235.0" xmlns="http://www.w3.org/2000/svg" version="1.1">
<path d="M 0.0 235.0 L 1985.0 235.0 L 1985.0 0.0 L 0.0 0.0 L 0.0 235.0" stroke="#000000" fill="none" stroke-width="3px" />
<path d="M 2472.26666667 235.0 L 1885.0 235.0 L 1885.0 0.0 L 2472.26666667 0.0 L 2472.26666667 235.0" stroke="#000000" fill="none" stroke-width="3px" />
<path d="M 10.0 257.5 L 0.0 247.5 L 10.0 237.5" stroke="#969696" fill="none" stroke-width="1px" />
<path d="M 10.0 237.5 L 1975.0 237.5" stroke="#969696" fill="none" stroke-width="1px" />
<path d="M 1975.0 237.5 L 1985.0 227.5 L 1975.0 217.5" stroke="#969696" fill="none" stroke-width="1px" />
<path d="M 1975.0 217.5 L 10.0 217.5" stroke="#969696" fill="none" stroke-width="1px" />
<path d="M 10.0 217.5 L 0.0 207.5 L 10.0 197.5" stroke="#969696" fill="none" stroke-width="1px" />
<path d="M 10.0 197.5 L 1975.0 197.5" stroke="#969696" fill="none" stroke-width="1px" />
<path d="M 1975.0 197.5 L 1985.0 187.5 L 1975.0 177.5" stroke="#969696" fill="none" stroke-width="1px" />
<path d="M 1975.0 177.5 L 10.0 177.5" stroke="#969696" fill="none" stroke-width="1px" />
<path d="M 10.0 177.5 L 0.0 167.5 L 10.0 157.5" stroke="#969696" fill="none" stroke-width="1px" />
<path d="M 10.0 157.5 L 1975.0 157.5" stroke="#969696" fill="none" stroke-width="1px" />
<path d="M 1975.0 157.5 L 1985.0 147.5 L 1975.0 137.5" stroke="#969696" fill="none" stroke-width="1px" />
<path d="M 1975.0 137.5 L 10.0 137.5" stroke="#969696" fill="none" stroke-width="1px" />
<path d="M 10.0 137.5 L 0.0 127.5 L 10.0 117.5" stroke="#969696" fill="none" stroke-width="1px" />
<path d="M 10.0 117.5 L 1975.0 117.5" stroke="#969696" fill="none" stroke-width="1px" />
<path d="M 1975.0 117.5 L 1985.0 107.5 L 1975.0 97.5" stroke="#969696" fill="none" stroke-width="1px" />
<path d="M 1975.0 97.5 L 10.0 97.5" stroke="#969696" fill="none" stroke-width="1px" />
<path d="M 10.0 97.5 L 0.0 87.5 L 10.0 77.5" stroke="#969696" fill="none" stroke-width="1px" />
<path d="M 10.0 77.5 L 1975.0 77.5" stroke="#969696" fill="none" stroke-width="1px" />
<path d="M 1975.0 77.5 L 1985.0 67.5 L 1975.0 57.5" stroke="#969696" fill="none" stroke-width="1px" />
<path d="M 1975.0 57.5 L 10.0 57.5" stroke="#969696" fill="none" stroke-width="1px" />
<path d="M 10.0 57.5 L 0.0 47.5 L 10.0 37.5" stroke="#969696" fill="none" stroke-width="1px" />
<path d="M 10.0 37.5 L 1975.0 37.5" stroke="#969696" fill="none" stroke-width="1px" />
<path d="M 1975.0 37.5 L 1985.0 27.5 L 1975.0 17.5" stroke="#969696" fill="none" stroke-width="1px" />
<path d="M 1975.0 17.5 L 10.0 17.5" stroke="#969696" fill="none" stroke-width="1px" />
<path d="M 10.0 17.5 L 0.0 7.5 L 10.0 -2.5" stroke="#969696" fill="none" stroke-width="1px" />
<path d="M 10.0 -2.5 L 1975.0 -2.5" stroke="#969696" fill="none" stroke-width="1px" />
<path d="M 1975.0 -2.5 L 1985.0 -12.5 L 1975.0 -22.5" stroke="#969696" fill="none" stroke-width="1px" />
<path d="M 2462.26666667 257.5 L 2472.26666667 247.5 L 2462.26666667 237.5" stroke="#969696" fill="none" stroke-width="1px" />
<path d="M 2462.26666667 237.5 L 1895.0 237.5" stroke="#969696" fill="none" stroke-width="1px" />
<path d="M 1895.0 237.5 L 1885.0 227.5 L 1895.0 217.5" stroke="#969696" fill="none" stroke-width="1px" />
<path d="M 1895.0 217.5 L 2462.26666667 217.5" stroke="#969696" fill="none" stroke-width="1px" />
<path d="M 2462.26666667 217.5 L 2472.26666667 207.5 L 2462.26666667 197.5" stroke="#969696" fill="none" stroke-width="1px" />
<path d="M 2462.26666667 197.5 L 1895.0 197.5" stroke="#969696" fill="none" stroke-width="1px" />
<path d="M 1895.0 197.5 L 1885.0 187.5 L 1895.0 177.5" stroke="#969696" fill="none" stroke-width="1px" />
<path d="M 1895.0 177.5 L 2462.26666667 177.5" stroke="#969696" fill="none" stroke-width="1px" />
<path d="M 2462.26666667 177.5 L 2472.26666667 167.5 L 2462.26666667 157.5" stroke="#969696" fill="none" stroke-width="1px" />
<path d="M 2462.26666667 157.5 L 1895.0 157.5" stroke="#969696" fill="none" stroke-width="1px" />
<path d="M 1895.0 157.5 L 1885.0 147.5 L 1895.0 137.5" stroke="#969696" fill="none" stroke-width="1px" />
<path d="M 1895.0 137.5 L 2462.26666667 137.5" stroke="#969696" fill="none" stroke-width="1px" />
<path d="M 2462.26666667 137.5 L 2472.26666667 127.5 L 2462.26666667 117.5" stroke="#969696" fill="none" stroke-width="1px" />
<path d="M 2462.26666667 117.5 L 1895.0 117.5" stroke="#969696" fill="none" stroke-width="1px" />
<path d="M 1895.0 117.5 L 1885.0 107.5 L 1895.0 97.5" stroke="#969696" fill="none" stroke-width="1px" />
<path d="M 1895.0 97.5 L 2462.26666667 97.5" stroke="#969696" fill="none" stroke-width="1px" />
<path d="M 2462.26666667 97.5 L 2472.26666667 87.5 L 2462.26666667 77.5" stroke="#969696" fill="none" stroke-width="1px" />
<path d="M 2462.26666667 77.5 L 1895.0 77.5" stroke="#969696" fill="none" stroke-width="1px" />
<path d="M 1895.0 77.5 L 1885.0 67.5 L 1895.0 57.5" stroke="#969696" fill="none" stroke-width="1px" />
<path d="M 1895.0 57.5 L 2462.26666667 57.5" stroke="#969696" fill="none" stroke-width="1px" />
<path d="M 2462.26666667 57.5 L 2472.26666667 47.5 L 2462.26666667 37.5" stroke="#969696" fill="none" stroke-width="1px" />
<path d="M 2462.26666667 37.5 L 1895.0 37.5" stroke="#969696" fill="none" stroke-width="1px" />
<path d="M 1895.0 37.5 L 1885.0 27.5 L 1895.0 17.5" stroke="#969696" fill="none" stroke-width="1px" />
<path d="M 1895.0 17.5 L 2462.26666667 17.5" stroke="#969696" fill="none" stroke-width="1px" />
<path d="M 2462.26666667 17.5 L 2472.26666667 7.5 L 2462.26666667 -2.5" stroke="#969696" fill="none" stroke-width="1px" />
<path d="M 2462.26666667 -2.5 L 1895.0 -2.5" stroke="#969696" fill="none" stroke-width="1px" />
<path d="M 1895.0 -2.5 L 1885.0 -12.5 L 1895.0 -22.5" stroke="#969696" fill="none" stroke-width="1px" />
<path d="M 0.0 235.0 L 10.0 235.0" stroke="#0095FF" fill="none" stroke-width="2px" />
<path d="M 10.0 235.0 L 10.0 75.0" stroke="#0095FF" fill="none" stroke-width="2px" />
<path d="M 10.0 45.0 L 280.0 45.0" stroke="#0095FF" fill="none" stroke-width="2px" />
<path d="M 280.0 45.0 L 280.0 65.0" stroke="#0095FF" fill="none" stroke-width="2px" />
<path d="M 360.0 105.0 L 360.0 75.0" stroke="#0095FF" fill="none" stroke-width="2px" />
<path d="M 360.0 75.0 L 340.0 75.0" stroke="#0095FF" fill="none" stroke-width="2px" />
<path d="M 340.0 75.0 L 340.0 55.0" stroke="#0095FF" fill="none" stroke-width="2px" />
<path d="M 330.0 45.0 L 640.0 45.0" stroke="#0095FF" fill="none" stroke-width="2px" />
<path d="M 640.0 45.0 L 640.0 75.0" stroke="#0095FF" fill="none" stroke-width="2px" />
<path d="M 670.0 135.0 L 670.0 65.0" stroke="#0095FF" fill="none" stroke-width="2px" />
<path d="M 650.0 65.0 L 680.0 65.0" stroke="#0095FF" fill="none" stroke-width="2px" />
<path d="M 690.0 65.0 L 960.0 65.0" stroke="#0095FF" fill="none" stroke-width="2px" />
<path d="M 960.0 65.0 L 960.0 105.0" stroke="#0095FF" fill="none" stroke-width="2px" />
<path d="M 990.0 165.0 L 1030.0 165.0" stroke="#0095FF" fill="none" stroke-width="2px" />
<path d="M 1030.0 165.0 L 1030.0 115.0" stroke="#0095FF" fill="none" stroke-width="2px" />
<path d="M 1030.0 115.0 L 990.0 115.0" stroke="#0095FF" fill="none" stroke-width="2px" />
<path d="M 990.0 115.0 L 990.0 95.0" stroke="#0095FF" fill="none" stroke-width="2px" />
<path d="M 980.0 85.0 L 1390.0 85.0" stroke="#0095FF" fill="none" stroke-width="2px" />
<path d="M 1550.0 105.0 L 1550.0 55.0" stroke="#0095FF" fill="none" stroke-width="2px" />
<path d="M 1410.0 55.0 L 1440.0 55.0" stroke="#0095FF" fill="none" stroke-width="2px" />
<path d="M 1440.0 55.0 L 1440.0 45.0" stroke="#0095FF" fill="none" stroke-width="2px" />
<path d="M 1560.0 55.0 L 1560.0 35.0" stroke="#0095FF" fill="none" stroke-width="2px" />
<path d="M 1440.0 25.0 L 1440.0 5.0" stroke="#0095FF" fill="none" stroke-width="2px" />
<path d="M 1450.0 5.0 L 1490.0 5.0" stroke="#0095FF" fill="none" stroke-width="2px" />
<path d="M 1490.0 5.0 L 1490.0 25.0" stroke="#0095FF" fill="none" stroke-width="2px" />
<path d="M 1510.0 -5.0 L 1490.0 -5.0" stroke="#0095FF" fill="none" stroke-width="2px" />
<path d="M 1490.0 -5.0 L 1490.0 75.0" stroke="#0095FF" fill="none" stroke-width="2px" />
<path d="M 1490.0 75.0 L 1460.0 75.0" stroke="#0095FF" fill="none" stroke-width="2px" />
<path d="M 1460.0 75.0 L 1460.0 95.0" stroke="#0095FF" fill="none" stroke-width="2px" />
<path d="M 1430.0 115.0 L 1730.0 115.0" stroke="#0095FF" fill="none" stroke-width="2px" />
<path d="M 1760.0 85.0 L 1760.0 125.0" stroke="#0095FF" fill="none" stroke-width="2px" />
<path d="M 1770.0 125.0 L 1800.0 125.0" stroke="#0095FF" fill="none" stroke-width="2px" />
<path d="M 2472.26666667 235.0 L 2220.0 235.0" stroke="#0095FF" fill="none" stroke-width="2px" />
<path d="M 2220.0 235.0 L 2220.0 165.0" stroke="#0095FF" fill="none" stroke-width="2px" />
<path d="M 2190.0 105.0 L 2190.0 85.0" stroke="#0095FF" fill="none" stroke-width="2px" />
<path d="M 2180.0 65.0 L 2200.0 65.0" stroke="#0095FF" fill="none" stroke-width="2px" />
<path d="M 2200.0 65.0 L 2200.0 75.0" stroke="#0095FF" fill="none" stroke-width="2px" />
<path d="M 2210.0 75.0 L 2210.0 45.0" stroke="#0095FF" fill="none" stroke-width="2px" />
<path d="M 2200.0 35.0 L 2200.0 175.0" stroke="#0095FF" fill="none" stroke-width="2px" />
<path d="M 10.0 75.0 L 10.0 65.0" stroke="#FF0000" fill="none" stroke-width="4px" />
<path d="M 10.0 65.0 L 20.0 65.0" stroke="#FF0000" fill="none" stroke-width="4px" />
<path d="M 20.0 65.0 L 20.0 55.0" stroke="#FF0000" fill="none" stroke-width="4px" />
<path d="M 20.0 55.0 L 10.0 55.0" stroke="#FF0000" fill="none" stroke-width="4px" />
<path d="M 10.0 55.0 L 10.0 45.0" stroke="#FF0000" fill="none" stroke-width="4px" />
<path d="M 280.0 65.0 L 290.0 65.0" stroke="#FF0000" fill="none" stroke-width="4px" />
<path d="M 290.0 65.0 L 300.0 65.0" stroke="#FF0000" fill="none" stroke-width="4px" />
<path d="M 300.0 65.0 L 310.0 65.0" stroke="#FF0000" fill="none" stroke-width="4px" />
<path d="M 310.0 65.0 L 320.0 65.0" stroke="#FF0000" fill="none" stroke-width="4px" />
<path d="M 320.0 65.0 L 330.0 65.0" stroke="#FF0000" fill="none" stroke-width="4px" />
<path d="M 330.0 65.0 L 340.0 65.0" stroke="#FF0000" fill="none" stroke-width="4px" />
<path d="M 340.0 65.0 L 350.0 65.0" stroke="#FF0000" fill="none" stroke-width="4px" />
<path d="M 350.0 65.0 L 350.0 75.0" stroke="#FF0000" fill="none" stroke-width="4px" />
<path d="M 350.0 75.0 L 340.0 75.0" stroke="#FF0000" fill="none" stroke-width="4px" />
<path d="M 340.0 75.0 L 330.0 75.0" stroke="#FF0000" fill="none" stroke-width="4px" />
<path d="M 330.0 75.0 L 320.0 75.0" stroke="#FF0000" fill="none" stroke-width="4px" />
<path d="M 320.0 75.0 L 310.0 75.0" stroke="#FF0000" fill="none" stroke-width="4px" />
<path d="M 310.0 75.0 L 300.0 75.0" stroke="#FF0000" fill="none" stroke-width="4px" />
<path d="M 300.0 75.0 L 290.0 75.0" stroke="#FF0000" fill="none" stroke-width="4px" />
<path d="M 290.0 75.0 L 280.0 75.0" stroke="#FF0000" fill="none" stroke-width="4px" />
<path d="M 280.0 75.0 L 280.0 85.0" stroke="#FF0000" fill="none" stroke-width="4px" />
<path d="M 280.0 85.0 L 290.0 85.0" stroke="#FF0000" fill="none" stroke-width="4px" />
<path d="M 290.0 85.0 L 300.0 85.0" stroke="#FF0000" fill="none" stroke-width="4px" />
<path d="M 300.0 85.0 L 310.0 85.0" stroke="#FF0000" fill="none" stroke-width="4px" />
<path d="M 310.0 85.0 L 320.0 85.0" stroke="#FF0000" fill="none" stroke-width="4px" />
<path d="M 320.0 85.0 L 330.0 85.0" stroke="#FF0000" fill="none" stroke-width="4px" />
<path d="M 330.0 85.0 L 340.0 85.0" stroke="#FF0000" fill="none" stroke-width="4px" />
<path d="M 340.0 85.0 L 350.0 85.0" stroke="#FF0000" fill="none" stroke-width="4px" />
<path d="M 350.0 85.0 L 360.0 85.0" stroke="#FF0000" fill="none" stroke-width="4px" />
<path d="M 360.0 85.0 L 370.0 85.0" stroke="#FF0000" fill="none" stroke-width="4px" />
<path d="M 370.0 85.0 L 370.0 95.0" stroke="#FF0000" fill="none" stroke-width="4px" />
<path d="M 370.0 95.0 L 360.0 95.0" stroke="#FF0000" fill="none" stroke-width="4px" />
<path d="M 360.0 95.0 L 350.0 95.0" stroke="#FF0000" fill="none" stroke-width="4px" />
<path d="M 350.0 95.0 L 340.0 95.0" stroke="#FF0000" fill="none" stroke-width="4px" />
<path d="M 340.0 95.0 L 330.0 95.0" stroke="#FF0000" fill="none" stroke-width="4px" />
<path d="M 330.0 95.0 L 320.0 95.0" stroke="#FF0000" fill="none" stroke-width="4px" />
<path d="M 320.0 95.0 L 310.0 95.0" stroke="#FF0000" fill="none" stroke-width="4px" />
<path d="M 310.0 95.0 L 300.0 95.0" stroke="#FF0000" fill="none" stroke-width="4px" />
<path d="M 300.0 95.0 L 290.0 95.0" stroke="#FF0000" fill="none" stroke-width="4px" />
<path d="M 290.0 95.0 L 280.0 95.0" stroke="#FF0000" fill="none" stroke-width="4px" />
<path d="M 280.0 95.0 L 290.0 105.0" stroke="#FF0000" fill="none" stroke-width="4px" />
<path d="M 290.0 105.0 L 300.0 105.0" stroke="#FF0000" fill="none" stroke-width="4px" />
<path d="M 300.0 105.0 L 310.0 105.0" stroke="#FF0000" fill="none" stroke-width="4px" />
<path d="M 310.0 105.0 L 320.0 105.0" stroke="#FF0000" fill="none" stroke-width="4px" />
<path d="M 320.0 105.0 L 330.0 105.0" stroke="#FF0000" fill="none" stroke-width="4px" />
<path d="M 330.0 105.0 L 340.0 105.0" stroke="#FF0000" fill="none" stroke-width="4px" />
<path d="M 340.0 105.0 L 350.0 105.0" stroke="#FF0000" fill="none" stroke-width="4px" />
<path d="M 350.0 105.0 L 360.0 105.0" stroke="#FF0000" fill="none" stroke-width="4px" />
<path d="M 340.0 55.0 L 330.0 55.0" stroke="#FF0000" fill="none" stroke-width="4px" />
<path d="M 330.0 55.0 L 320.0 55.0" stroke="#FF0000" fill="none" stroke-width="4px" />
<path d="M 320.0 55.0 L 310.0 55.0" stroke="#FF0000" fill="none" stroke-width="4px" />
<path d="M 310.0 55.0 L 300.0 55.0" stroke="#FF0000" fill="none" stroke-width="4px" />
<path d="M 300.0 55.0 L 290.0 55.0" stroke="#FF0000" fill="none" stroke-width="4px" />
<path d="M 290.0 55.0 L 300.0 45.0" stroke="#FF0000" fill="none" stroke-width="4px" />
<path d="M 300.0 45.0 L 310.0 45.0" stroke="#FF0000" fill="none" stroke-width="4px" />
<path d="M 310.0 45.0 L 320.0 45.0" stroke="#FF0000" fill="none" stroke-width="4px" />
<path d="M 320.0 45.0 L 330.0 45.0" stroke="#FF0000" fill="none" stroke-width="4px" />
<path d="M 640.0 75.0 L 650.0 75.0" stroke="#FF0000" fill="none" stroke-width="4px" />
<path d="M 650.0 75.0 L 660.0 75.0" stroke="#FF0000" fill="none" stroke-width="4px" />
<path d="M 660.0 75.0 L 670.0 75.0" stroke="#FF0000" fill="none" stroke-width="4px" />
<path d="M 670.0 75.0 L 680.0 75.0" stroke="#FF0000" fill="none" stroke-width="4px" />
<path d="M 680.0 75.0 L 690.0 75.0" stroke="#FF0000" fill="none" stroke-width="4px" />
<path d="M 690.0 75.0 L 700.0 75.0" stroke="#FF0000" fill="none" stroke-width="4px" />
<path d="M 700.0 75.0 L 700.0 85.0" stroke="#FF0000" fill="none" stroke-width="4px" />
<path d="M 700.0 85.0 L 690.0 85.0" stroke="#FF0000" fill="none" stroke-width="4px" />
<path d="M 690.0 85.0 L 680.0 85.0" stroke="#FF0000" fill="none" stroke-width="4px" />
<path d="M 680.0 85.0 L 670.0 85.0" stroke="#FF0000" fill="none" stroke-width="4px" />
<path d="M 670.0 85.0 L 660.0 85.0" stroke="#FF0000" fill="none" stroke-width="4px" />
<path d="M 660.0 85.0 L 650.0 85.0" stroke="#FF0000" fill="none" stroke-width="4px" />
<path d="M 650.0 85.0 L 640.0 85.0" stroke="#FF0000" fill="none" stroke-width="4px" />
<path d="M 640.0 85.0 L 640.0 95.0" stroke="#FF0000" fill="none" stroke-width="4px" />
<path d="M 640.0 95.0 L 650.0 95.0" stroke="#FF0000" fill="none" stroke-width="4px" />
<path d="M 650.0 95.0 L 660.0 95.0" stroke="#FF0000" fill="none" stroke-width="4px" />
<path d="M 660.0 95.0 L 670.0 95.0" stroke="#FF0000" fill="none" stroke-width="4px" />
<path d="M 670.0 95.0 L 680.0 95.0" stroke="#FF0000" fill="none" stroke-width="4px" />
<path d="M 680.0 95.0 L 690.0 95.0" stroke="#FF0000" fill="none" stroke-width="4px" />
<path d="M 690.0 95.0 L 690.0 105.0" stroke="#FF0000" fill="none" stroke-width="4px" />
<path d="M 690.0 105.0 L 680.0 105.0" stroke="#FF0000" fill="none" stroke-width="4px" />
<path d="M 680.0 105.0 L 670.0 105.0" stroke="#FF0000" fill="none" stroke-width="4px" />
<path d="M 670.0 105.0 L 660.0 105.0" stroke="#FF0000" fill="none" stroke-width="4px" />
<path d="M 660.0 105.0 L 650.0 105.0" stroke="#FF0000" fill="none" stroke-width="4px" />
<path d="M 650.0 105.0 L 640.0 105.0" stroke="#FF0000" fill="none" stroke-width="4px" />
<path d="M 640.0 105.0 L 640.0 115.0" stroke="#FF0000" fill="none" stroke-width="4px" />
<path d="M 640.0 115.0 L 650.0 115.0" stroke="#FF0000" fill="none" stroke-width="4px" />
<path d="M 650.0 115.0 L 660.0 115.0" stroke="#FF0000" fill="none" stroke-width="4px" />
<path d="M 660.0 115.0 L 670.0 115.0" stroke="#FF0000" fill="none" stroke-width="4px" />
<path d="M 670.0 115.0 L 680.0 115.0" stroke="#FF0000" fill="none" stroke-width="4px" />
<path d="M 680.0 115.0 L 690.0 115.0" stroke="#FF0000" fill="none" stroke-width="4px" />
<path d="M 690.0 115.0 L 680.0 125.0" stroke="#FF0000" fill="none" stroke-width="4px" />
<path d="M 680.0 125.0 L 670.0 125.0" stroke="#FF0000" fill="none" stroke-width="4px" />
<path d="M 670.0 125.0 L 660.0 125.0" stroke="#FF0000" fill="none" stroke-width="4px" />
<path d="M 660.0 125.0 L 650.0 125.0" stroke="#FF0000" fill="none" stroke-width="4px" />
<path d="M 650.0 125.0 L 660.0 135.0" stroke="#FF0000" fill="none" stroke-width="4px" />
<path d="M 660.0 135.0 L 670.0 135.0" stroke="#FF0000" fill="none" stroke-width="4px" />
<path d="M 670.0 65.0 L 660.0 65.0" stroke="#FF0000" fill="none" stroke-width="4px" />
<path d="M 660.0 65.0 L 650.0 65.0" stroke="#FF0000" fill="none" stroke-width="4px" />
<path d="M 680.0 65.0 L 690.0 65.0" stroke="#FF0000" fill="none" stroke-width="4px" />
<path d="M 960.0 105.0 L 970.0 105.0" stroke="#FF0000" fill="none" stroke-width="4px" />
<path d="M 970.0 105.0 L 980.0 105.0" stroke="#FF0000" fill="none" stroke-width="4px" />
<path d="M 980.0 105.0 L 990.0 105.0" stroke="#FF0000" fill="none" stroke-width="4px" />
<path d="M 990.0 105.0 L 1000.0 105.0" stroke="#FF0000" fill="none" stroke-width="4px" />
<path d="M 1000.0 105.0 L 1010.0 105.0" stroke="#FF0000" fill="none" stroke-width="4px" />
<path d="M 1010.0 105.0 L 1020.0 105.0" stroke="#FF0000" fill="none" stroke-width="4px" />
<path d="M 1020.0 105.0 L 1020.0 115.0" stroke="#FF0000" fill="none" stroke-width="4px" />
<path d="M 1020.0 115.0 L 1010.0 115.0" stroke="#FF0000" fill="none" stroke-width="4px" />
<path d="M 1010.0 115.0 L 1000.0 115.0" stroke="#FF0000" fill="none" stroke-width="4px" />
<path d="M 1000.0 115.0 L 990.0 115.0" stroke="#FF0000" fill="none" stroke-width="4px" />
<path d="M 990.0 115.0 L 980.0 115.0" stroke="#FF0000" fill="none" stroke-width="4px" />
<path d="M 980.0 115.0 L 970.0 115.0" stroke="#FF0000" fill="none" stroke-width="4px" />
<path d="M 970.0 115.0 L 960.0 115.0" stroke="#FF0000" fill="none" stroke-width="4px" />
<path d="M 960.0 115.0 L 960.0 125.0" stroke="#FF0000" fill="none" stroke-width="4px" />
<path d="M 960.0 125.0 L 970.0 125.0" stroke="#FF0000" fill="none" stroke-width="4px" />
<path d="M 970.0 125.0 L 980.0 125.0" stroke="#FF0000" fill="none" stroke-width="4px" />
<path d="M 980.0 125.0 L 990.0 125.0" stroke="#FF0000" fill="none" stroke-width="4px" />
<path d="M 990.0 125.0 L 1000.0 125.0" stroke="#FF0000" fill="none" stroke-width="4px" />
<path d="M 1000.0 125.0 L 1010.0 125.0" stroke="#FF0000" fill="none" stroke-width="4px" />
<path d="M 1010.0 125.0 L 1020.0 125.0" stroke="#FF0000" fill="none" stroke-width="4px" />
<path d="M 1020.0 125.0 L 1030.0 125.0" stroke="#FF0000" fill="none" stroke-width="4px" />
<path d="M 1030.0 125.0 L 1040.0 125.0" stroke="#FF0000" fill="none" stroke-width="4px" />
<path d="M 1040.0 125.0 L 1040.0 135.0" stroke="#FF0000" fill="none" stroke-width="4px" />
<path d="M 1040.0 135.0 L 1030.0 135.0" stroke="#FF0000" fill="none" stroke-width="4px" />
<path d="M 1030.0 135.0 L 1020.0 135.0" stroke="#FF0000" fill="none" stroke-width="4px" />
<path d="M 1020.0 135.0 L 1010.0 135.0" stroke="#FF0000" fill="none" stroke-width="4px" />
<path d="M 1010.0 135.0 L 1000.0 135.0" stroke="#FF0000" fill="none" stroke-width="4px" />
<path d="M 1000.0 135.0 L 990.0 135.0" stroke="#FF0000" fill="none" stroke-width="4px" />
<path d="M 990.0 135.0 L 980.0 135.0" stroke="#FF0000" fill="none" stroke-width="4px" />
<path d="M 980.0 135.0 L 970.0 135.0" stroke="#FF0000" fill="none" stroke-width="4px" />
<path d="M 970.0 135.0 L 960.0 135.0" stroke="#FF0000" fill="none" stroke-width="4px" />
<path d="M 960.0 135.0 L 970.0 145.0" stroke="#FF0000" fill="none" stroke-width="4px" />
<path d="M 970.0 145.0 L 980.0 145.0" stroke="#FF0000" fill="none" stroke-width="4px" />
<path d="M 980.0 145.0 L 990.0 145.0" stroke="#FF0000" fill="none" stroke-width="4px" />
<path d="M 990.0 145.0 L 1000.0 145.0" stroke="#FF0000" fill="none" stroke-width="4px" />
<path d="M 1000.0 145.0 L 1010.0 145.0" stroke="#FF0000" fill="none" stroke-width="4px" />
<path d="M 1010.0 145.0 L 1020.0 145.0" stroke="#FF0000" fill="none" stroke-width="4px" />
<path d="M 1020.0 145.0 L 1030.0 145.0" stroke="#FF0000" fill="none" stroke-width="4px" />
<path d="M 1030.0 145.0 L 1020.0 155.0" stroke="#FF0000" fill="none" stroke-width="4px" />
<path d="M 1020.0 155.0 L 1010.0 155.0" stroke="#FF0000" fill="none" stroke-width="4px" />
<path d="M 1010.0 155.0 L 1000.0 155.0" stroke="#FF0000" fill="none" stroke-width="4px" />
<path d="M 1000.0 155.0 L 990.0 155.0" stroke="#FF0000" fill="none" stroke-width="4px" />
<path d="M 990.0 155.0 L 980.0 155.0" stroke="#FF0000" fill="none" stroke-width="4px" />
<path d="M 980.0 155.0 L 990.0 165.0" stroke="#FF0000" fill="none" stroke-width="4px" />
<path d="M 990.0 95.0 L 980.0 95.0" stroke="#FF0000" fill="none" stroke-width="4px" />
<path d="M 980.0 95.0 L 970.0 95.0" stroke="#FF0000" fill="none" stroke-width="4px" />
<path d="M 970.0 95.0 L 980.0 85.0" stroke="#FF0000" fill="none" stroke-width="4px" />
<path d="M 1390.0 85.0 L 1400.0 85.0" stroke="#FF0000" fill="none" stroke-width="4px" />
<path d="M 1400.0 85.0 L 1410.0 85.0" stroke="#FF0000" fill="none" stroke-width="4px" />
<path d="M 1410.0 85.0 L 1420.0 85.0" stroke="#FF0000" fill="none" stroke-width="4px" />
<path d="M 1420.0 85.0 L 1430.0 85.0" stroke="#FF0000" fill="none" stroke-width="4px" />
<path d="M 1430.0 85.0 L 1440.0 85.0" stroke="#FF0000" fill="none" stroke-width="4px" />
<path d="M 1440.0 85.0 L 1450.0 85.0" stroke="#FF0000" fill="none" stroke-width="4px" />
<path d="M 1450.0 85.0 L 1460.0 85.0" stroke="#FF0000" fill="none" stroke-width="4px" />
<path d="M 1460.0 85.0 L 1470.0 85.0" stroke="#FF0000" fill="none" stroke-width="4px" />
<path d="M 1470.0 85.0 L 1470.0 75.0" stroke="#FF0000" fill="none" stroke-width="4px" />
<path d="M 1470.0 75.0 L 1460.0 75.0" stroke="#FF0000" fill="none" stroke-width="4px" />
<path d="M 1460.0 75.0 L 1450.0 75.0" stroke="#FF0000" fill="none" stroke-width="4px" />
<path d="M 1450.0 75.0 L 1440.0 75.0" stroke="#FF0000" fill="none" stroke-width="4px" />
<path d="M 1440.0 75.0 L 1430.0 75.0" stroke="#FF0000" fill="none" stroke-width="4px" />
<path d="M 1430.0 75.0 L 1420.0 75.0" stroke="#FF0000" fill="none" stroke-width="4px" />
<path d="M 1420.0 75.0 L 1410.0 75.0" stroke="#FF0000" fill="none" stroke-width="4px" />
<path d="M 1410.0 75.0 L 1400.0 75.0" stroke="#FF0000" fill="none" stroke-width="4px" />
<path d="M 1400.0 75.0 L 1400.0 65.0" stroke="#FF0000" fill="none" stroke-width="4px" />
<path d="M 1400.0 65.0 L 1410.0 65.0" stroke="#FF0000" fill="none" stroke-width="4px" />
<path d="M 1410.0 65.0 L 1420.0 65.0" stroke="#FF0000" fill="none" stroke-width="4px" />
<path d="M 1420.0 65.0 L 1430.0 65.0" stroke="#FF0000" fill="none" stroke-width="4px" />
<path d="M 1430.0 65.0 L 1440.0 65.0" stroke="#FF0000" fill="none" stroke-width="4px" />
<path d="M 1440.0 65.0 L 1450.0 65.0" stroke="#FF0000" fill="none" stroke-width="4px" />
<path d="M 1450.0 65.0 L 1460.0 65.0" stroke="#FF0000" fill="none" stroke-width="4px" />
<path d="M 1460.0 65.0 L 1470.0 65.0" stroke="#FF0000" fill="none" stroke-width="4px" />
<path d="M 1470.0 65.0 L 1480.0 65.0" stroke="#FF0000" fill="none" stroke-width="4px" />
<path d="M 1480.0 65.0 L 1490.0 65.0" stroke="#FF0000" fill="none" stroke-width="4px" />
<path d="M 1490.0 65.0 L 1500.0 65.0" stroke="#FF0000" fill="none" stroke-width="4px" />
<path d="M 1500.0 65.0 L 1510.0 65.0" stroke="#FF0000" fill="none" stroke-width="4px" />
<path d="M 1510.0 65.0 L 1520.0 65.0" stroke="#FF0000" fill="none" stroke-width="4px" />
<path d="M 1520.0 65.0 L 1530.0 65.0" stroke="#FF0000" fill="none" stroke-width="4px" />
<path d="M 1530.0 65.0 L 1540.0 65.0" stroke="#FF0000" fill="none" stroke-width="4px" />
<path d="M 1540.0 65.0 L 1550.0 65.0" stroke="#FF0000" fill="none" stroke-width="4px" />
<path d="M 1550.0 65.0 L 1560.0 65.0" stroke="#FF0000" fill="none" stroke-width="4px" />
<path d="M 1560.0 65.0 L 1570.0 65.0" stroke="#FF0000" fill="none" stroke-width="4px" />
<path d="M 1570.0 65.0 L 1570.0 75.0" stroke="#FF0000" fill="none" stroke-width="4px" />
<path d="M 1570.0 75.0 L 1560.0 75.0" stroke="#FF0000" fill="none" stroke-width="4px" />
<path d="M 1560.0 75.0 L 1550.0 75.0" stroke="#FF0000" fill="none" stroke-width="4px" />
<path d="M 1550.0 75.0 L 1540.0 75.0" stroke="#FF0000" fill="none" stroke-width="4px" />
<path d="M 1540.0 75.0 L 1530.0 75.0" stroke="#FF0000" fill="none" stroke-width="4px" />
<path d="M 1530.0 75.0 L 1520.0 75.0" stroke="#FF0000" fill="none" stroke-width="4px" />
<path d="M 1520.0 75.0 L 1530.0 85.0" stroke="#FF0000" fill="none" stroke-width="4px" />
<path d="M 1530.0 85.0 L 1540.0 85.0" stroke="#FF0000" fill="none" stroke-width="4px" />
<path d="M 1540.0 85.0 L 1550.0 85.0" stroke="#FF0000" fill="none" stroke-width="4px" />
<path d="M 1550.0 85.0 L 1560.0 85.0" stroke="#FF0000" fill="none" stroke-width="4px" />
<path d="M 1560.0 85.0 L 1570.0 85.0" stroke="#FF0000" fill="none" stroke-width="4px" />
<path d="M 1570.0 85.0 L 1560.0 95.0" stroke="#FF0000" fill="none" stroke-width="4px" />
<path d="M 1560.0 95.0 L 1550.0 95.0" stroke="#FF0000" fill="none" stroke-width="4px" />
<path d="M 1550.0 95.0 L 1540.0 95.0" stroke="#FF0000" fill="none" stroke-width="4px" />
<path d="M 1540.0 95.0 L 1550.0 105.0" stroke="#FF0000" fill="none" stroke-width="4px" />
<path d="M 1550.0 55.0 L 1540.0 55.0" stroke="#FF0000" fill="none" stroke-width="4px" />
<path d="M 1540.0 55.0 L 1530.0 55.0" stroke="#FF0000" fill="none" stroke-width="4px" />
<path d="M 1530.0 55.0 L 1520.0 55.0" stroke="#FF0000" fill="none" stroke-width="4px" />
<path d="M 1520.0 55.0 L 1510.0 55.0" stroke="#FF0000" fill="none" stroke-width="4px" />
<path d="M 1510.0 55.0 L 1500.0 55.0" stroke="#FF0000" fill="none" stroke-width="4px" />
<path d="M 1500.0 55.0 L 1490.0 55.0" stroke="#FF0000" fill="none" stroke-width="4px" />
<path d="M 1490.0 55.0 L 1480.0 55.0" stroke="#FF0000" fill="none" stroke-width="4px" />
<path d="M 1480.0 55.0 L 1470.0 55.0" stroke="#FF0000" fill="none" stroke-width="4px" />
<path d="M 1470.0 55.0 L 1460.0 55.0" stroke="#FF0000" fill="none" stroke-width="4px" />
<path d="M 1460.0 55.0 L 1450.0 55.0" stroke="#FF0000" fill="none" stroke-width="4px" />
<path d="M 1450.0 55.0 L 1440.0 55.0" stroke="#FF0000" fill="none" stroke-width="4px" />
<path d="M 1440.0 55.0 L 1430.0 55.0" stroke="#FF0000" fill="none" stroke-width="4px" />
<path d="M 1430.0 55.0 L 1420.0 55.0" stroke="#FF0000" fill="none" stroke-width="4px" />
<path d="M 1420.0 55.0 L 1410.0 55.0" stroke="#FF0000" fill="none" stroke-width="4px" />
<path d="M 1440.0 45.0 L 1450.0 45.0" stroke="#FF0000" fill="none" stroke-width="4px" />
<path d="M 1450.0 45.0 L 1460.0 45.0" stroke="#FF0000" fill="none" stroke-width="4px" />
<path d="M 1460.0 45.0 L 1470.0 45.0" stroke="#FF0000" fill="none" stroke-width="4px" />
<path d="M 1470.0 45.0 L 1480.0 45.0" stroke="#FF0000" fill="none" stroke-width="4px" />
<path d="M 1480.0 45.0 L 1490.0 45.0" stroke="#FF0000" fill="none" stroke-width="4px" />
<path d="M 1490.0 45.0 L 1500.0 45.0" stroke="#FF0000" fill="none" stroke-width="4px" />
<path d="M 1500.0 45.0 L 1510.0 45.0" stroke="#FF0000" fill="none" stroke-width="4px" />
<path d="M 1510.0 45.0 L 1520.0 45.0" stroke="#FF0000" fill="none" stroke-width="4px" />
<path d="M 1520.0 45.0 L 1530.0 45.0" stroke="#FF0000" fill="none" stroke-width="4px" />
<path d="M 1530.0 45.0 L 1540.0 45.0" stroke="#FF0000" fill="none" stroke-width="4px" />
<path d="M 1540.0 45.0 L 1550.0 45.0" stroke="#FF0000" fill="none" stroke-width="4px" />
<path d="M 1550.0 45.0 L 1560.0 45.0" stroke="#FF0000" fill="none" stroke-width="4px" />
<path d="M 1560.0 45.0 L 1570.0 45.0" stroke="#FF0000" fill="none" stroke-width="4px" />
<path d="M 1570.0 45.0 L 1570.0 55.0" stroke="#FF0000" fill="none" stroke-width="4px" />
<path d="M 1570.0 55.0 L 1560.0 55.0" stroke="#FF0000" fill="none" stroke-width="4px" />
<path d="M 1560.0 35.0 L 1550.0 35.0" stroke="#FF0000" fill="none" stroke-width="4px" />
<path d="M 1550.0 35.0 L 1540.0 35.0" stroke="#FF0000" fill="none" stroke-width="4px" />
<path d="M 1540.0 35.0 L 1530.0 35.0" stroke="#FF0000" fill="none" stroke-width="4px" />
<path d="M 1530.0 35.0 L 1520.0 35.0" stroke="#FF0000" fill="none" stroke-width="4px" />
<path d="M 1520.0 35.0 L 1510.0 35.0" stroke="#FF0000" fill="none" stroke-width="4px" />
<path d="M 1510.0 35.0 L 1500.0 35.0" stroke="#FF0000" fill="none" stroke-width="4px" />
<path d="M 1500.0 35.0 L 1490.0 35.0" stroke="#FF0000" fill="none" stroke-width="4px" />
<path d="M 1490.0 35.0 L 1480.0 35.0" stroke="#FF0000" fill="none" stroke-width="4px" />
<path d="M 1480.0 35.0 L 1470.0 35.0" stroke="#FF0000" fill="none" stroke-width="4px" />
<path d="M 1470.0 35.0 L 1460.0 35.0" stroke="#FF0000" fill="none" stroke-width="4px" />
<path d="M 1460.0 35.0 L 1450.0 35.0" stroke="#FF0000" fill="none" stroke-width="4px" />
<path d="M 1450.0 35.0 L 1440.0 35.0" stroke="#FF0000" fill="none" stroke-width="4px" />
<path d="M 1440.0 35.0 L 1430.0 35.0" stroke="#FF0000" fill="none" stroke-width="4px" />
<path d="M 1430.0 35.0 L 1430.0 25.0" stroke="#FF0000" fill="none" stroke-width="4px" />
<path d="M 1430.0 25.0 L 1420.0 25.0" stroke="#FF0000" fill="none" stroke-width="4px" />
<path d="M 1420.0 25.0 L 1420.0 15.0" stroke="#FF0000" fill="none" stroke-width="4px" />
<path d="M 1420.0 15.0 L 1430.0 15.0" stroke="#FF0000" fill="none" stroke-width="4px" />
<path d="M 1430.0 15.0 L 1440.0 15.0" stroke="#FF0000" fill="none" stroke-width="4px" />
<path d="M 1440.0 15.0 L 1450.0 15.0" stroke="#FF0000" fill="none" stroke-width="4px" />
<path d="M 1450.0 15.0 L 1460.0 15.0" stroke="#FF0000" fill="none" stroke-width="4px" />
<path d="M 1460.0 15.0 L 1470.0 15.0" stroke="#FF0000" fill="none" stroke-width="4px" />
<path d="M 1470.0 15.0 L 1480.0 15.0" stroke="#FF0000" fill="none" stroke-width="4px" />
<path d="M 1480.0 15.0 L 1480.0 25.0" stroke="#FF0000" fill="none" stroke-width="4px" />
<path d="M 1480.0 25.0 L 1470.0 25.0" stroke="#FF0000" fill="none" stroke-width="4px" />
<path d="M 1470.0 25.0 L 1460.0 25.0" stroke="#FF0000" fill="none" stroke-width="4px" />
<path d="M 1460.0 25.0 L 1450.0 25.0" stroke="#FF0000" fill="none" stroke-width="4px" />
<path d="M 1450.0 25.0 L 1440.0 25.0" stroke="#FF0000" fill="none" stroke-width="4px" />
<path d="M 1440.0 5.0 L 1430.0 5.0" stroke="#FF0000" fill="none" stroke-width="4px" />
<path d="M 1430.0 5.0 L 1430.0 -5.0" stroke="#FF0000" fill="none" stroke-width="4px" />
<path d="M 1430.0 -5.0 L 1440.0 -5.0" stroke="#FF0000" fill="none" stroke-width="4px" />
<path d="M 1440.0 -5.0 L 1450.0 -5.0" stroke="#FF0000" fill="none" stroke-width="4px" />
<path d="M 1450.0 -5.0 L 1460.0 -5.0" stroke="#FF0000" fill="none" stroke-width="4px" />
<path d="M 1460.0 -5.0 L 1470.0 -5.0" stroke="#FF0000" fill="none" stroke-width="4px" />
<path d="M 1470.0 -5.0 L 1470.0 5.0" stroke="#FF0000" fill="none" stroke-width="4px" />
<path d="M 1470.0 5.0 L 1460.0 5.0" stroke="#FF0000" fill="none" stroke-width="4px" />
<path d="M 1460.0 5.0 L 1450.0 5.0" stroke="#FF0000" fill="none" stroke-width="4px" />
<path d="M 1490.0 25.0 L 1500.0 25.0" stroke="#FF0000" fill="none" stroke-width="4px" />
<path d="M 1500.0 25.0 L 1510.0 25.0" stroke="#FF0000" fill="none" stroke-width="4px" />
<path d="M 1510.0 25.0 L 1520.0 25.0" stroke="#FF0000" fill="none" stroke-width="4px" />
<path d="M 1520.0 25.0 L 1530.0 25.0" stroke="#FF0000" fill="none" stroke-width="4px" />
<path d="M 1530.0 25.0 L 1540.0 25.0" stroke="#FF0000" fill="none" stroke-width="4px" />
<path d="M 1540.0 25.0 L 1550.0 25.0" stroke="#FF0000" fill="none" stroke-width="4px" />
<path d="M 1550.0 25.0 L 1560.0 25.0" stroke="#FF0000" fill="none" stroke-width="4px" />
<path d="M 1560.0 25.0 L 1550.0 15.0" stroke="#FF0000" fill="none" stroke-width="4px" />
<path d="M 1550.0 15.0 L 1540.0 15.0" stroke="#FF0000" fill="none" stroke-width="4px" />
<path d="M 1540.0 15.0 L 1530.0 15.0" stroke="#FF0000" fill="none" stroke-width="4px" />
<path d="M 1530.0 15.0 L 1520.0 15.0" stroke="#FF0000" fill="none" stroke-width="4px" />
<path d="M 1520.0 15.0 L 1510.0 15.0" stroke="#FF0000" fill="none" stroke-width="4px" />
<path d="M 1510.0 15.0 L 1500.0 15.0" stroke="#FF0000" fill="none" stroke-width="4px" />
<path d="M 1500.0 15.0 L 1510.0 5.0" stroke="#FF0000" fill="none" stroke-width="4px" />
<path d="M 1510.0 5.0 L 1520.0 5.0" stroke="#FF0000" fill="none" stroke-width="4px" />
<path d="M 1520.0 5.0 L 1530.0 5.0" stroke="#FF0000" fill="none" stroke-width="4px" />
<path d="M 1530.0 5.0 L 1540.0 5.0" stroke="#FF0000" fill="none" stroke-width="4px" />
<path d="M 1540.0 5.0 L 1540.0 -5.0" stroke="#FF0000" fill="none" stroke-width="4px" />
<path d="M 1540.0 -5.0 L 1530.0 -5.0" stroke="#FF0000" fill="none" stroke-width="4px" />
<path d="M 1530.0 -5.0 L 1520.0 -5.0" stroke="#FF0000" fill="none" stroke-width="4px" />
<path d="M 1520.0 -5.0 L 1510.0 -5.0" stroke="#FF0000" fill="none" stroke-width="4px" />
<path d="M 1460.0 95.0 L 1450.0 95.0" stroke="#FF0000" fill="none" stroke-width="4px" />
<path d="M 1450.0 95.0 L 1440.0 95.0" stroke="#FF0000" fill="none" stroke-width="4px" />
<path d="M 1440.0 95.0 L 1430.0 95.0" stroke="#FF0000" fill="none" stroke-width="4px" />
<path d="M 1430.0 95.0 L 1420.0 95.0" stroke="#FF0000" fill="none" stroke-width="4px" />
<path d="M 1420.0 95.0 L 1410.0 95.0" stroke="#FF0000" fill="none" stroke-width="4px" />
<path d="M 1410.0 95.0 L 1400.0 95.0" stroke="#FF0000" fill="none" stroke-width="4px" />
<path d="M 1400.0 95.0 L 1410.0 105.0" stroke="#FF0000" fill="none" stroke-width="4px" />
<path d="M 1410.0 105.0 L 1420.0 105.0" stroke="#FF0000" fill="none" stroke-width="4px" />
<path d="M 1420.0 105.0 L 1430.0 105.0" stroke="#FF0000" fill="none" stroke-width="4px" />
<path d="M 1430.0 105.0 L 1440.0 105.0" stroke="#FF0000" fill="none" stroke-width="4px" />
<path d="M 1440.0 105.0 L 1450.0 105.0" stroke="#FF0000" fill="none" stroke-width="4px" />
<path d="M 1450.0 105.0 L 1440.0 115.0" stroke="#FF0000" fill="none" stroke-width="4px" />
<path d="M 1440.0 115.0 L 1430.0 115.0" stroke="#FF0000" fill="none" stroke-width="4px" />
<path d="M 1730.0 115.0 L 1740.0 115.0" stroke="#FF0000" fill="none" stroke-width="4px" />
<path d="M 1740.0 115.0 L 1750.0 115.0" stroke="#FF0000" fill="none" stroke-width="4px" />
<path d="M 1750.0 115.0 L 1760.0 115.0" stroke="#FF0000" fill="none" stroke-width="4px" />
<path d="M 1760.0 115.0 L 1770.0 115.0" stroke="#FF0000" fill="none" stroke-width="4px" />
<path d="M 1770.0 115.0 L 1780.0 115.0" stroke="#FF0000" fill="none" stroke-width="4px" />
<path d="M 1780.0 115.0 L 1790.0 115.0" stroke="#FF0000" fill="none" stroke-width="4px" />
<path d="M 1790.0 115.0 L 1800.0 115.0" stroke="#FF0000" fill="none" stroke-width="4px" />
<path d="M 1800.0 115.0 L 1810.0 115.0" stroke="#FF0000" fill="none" stroke-width="4px" />
<path d="M 1810.0 115.0 L 1810.0 105.0" stroke="#FF0000" fill="none" stroke-width="4px" />
<path d="M 1810.0 105.0 L 1800.0 105.0" stroke="#FF0000" fill="none" stroke-width="4px" />
<path d="M 1800.0 105.0 L 1790.0 105.0" stroke="#FF0000" fill="none" stroke-width="4px" />
<path d="M 1790.0 105.0 L 1780.0 105.0" stroke="#FF0000" fill="none" stroke-width="4px" />
<path d="M 1780.0 105.0 L 1770.0 105.0" stroke="#FF0000" fill="none" stroke-width="4px" />
<path d="M 1770.0 105.0 L 1760.0 105.0" stroke="#FF0000" fill="none" stroke-width="4px" />
<path d="M 1760.0 105.0 L 1750.0 105.0" stroke="#FF0000" fill="none" stroke-width="4px" />
<path d="M 1750.0 105.0 L 1740.0 105.0" stroke="#FF0000" fill="none" stroke-width="4px" />
<path d="M 1740.0 105.0 L 1750.0 95.0" stroke="#FF0000" fill="none" stroke-width="4px" />
<path d="M 1750.0 95.0 L 1760.0 95.0" stroke="#FF0000" fill="none" stroke-width="4px" />
<path d="M 1760.0 95.0 L 1770.0 95.0" stroke="#FF0000" fill="none" stroke-width="4px" />
<path d="M 1770.0 95.0 L 1780.0 95.0" stroke="#FF0000" fill="none" stroke-width="4px" />
<path d="M 1780.0 95.0 L 1790.0 95.0" stroke="#FF0000" fill="none" stroke-width="4px" />
<path d="M 1790.0 95.0 L 1800.0 95.0" stroke="#FF0000" fill="none" stroke-width="4px" />
<path d="M 1800.0 95.0 L 1810.0 95.0" stroke="#FF0000" fill="none" stroke-width="4px" />
<path d="M 1810.0 95.0 L 1800.0 85.0" stroke="#FF0000" fill="none" stroke-width="4px" />
<path d="M 1800.0 85.0 L 1790.0 85.0" stroke="#FF0000" fill="none" stroke-width="4px" />
<path d="M 1790.0 85.0 L 1780.0 85.0" stroke="#FF0000" fill="none" stroke-width="4px" />
<path d="M 1780.0 85.0 L 1770.0 85.0" stroke="#FF0000" fill="none" stroke-width="4px" />
<path d="M 1770.0 85.0 L 1760.0 85.0" stroke="#FF0000" fill="none" stroke-width="4px" />
<path d="M 1760.0 125.0 L 1750.0 125.0" stroke="#FF0000" fill="none" stroke-width="4px" />
<path d="M 1750.0 125.0 L 1740.0 125.0" stroke="#FF0000" fill="none" stroke-width="4px" />
<path d="M 1740.0 125.0 L 1750.0 135.0" stroke="#FF0000" fill="none" stroke-width="4px" />
<path d="M 1750.0 135.0 L 1760.0 135.0" stroke="#FF0000" fill="none" stroke-width="4px" />
<path d="M 1760.0 135.0 L 1770.0 135.0" stroke="#FF0000" fill="none" stroke-width="4px" />
<path d="M 1770.0 135.0 L 1780.0 135.0" stroke="#FF0000" fill="none" stroke-width="4px" />
<path d="M 1780.0 135.0 L 1790.0 135.0" stroke="#FF0000" fill="none" stroke-width="4px" />
<path d="M 1790.0 135.0 L 1790.0 125.0" stroke="#FF0000" fill="none" stroke-width="4px" />
<path d="M 1790.0 125.0 L 1780.0 125.0" stroke="#FF0000" fill="none" stroke-width="4px" />
<path d="M 1780.0 125.0 L 1770.0 125.0" stroke="#FF0000" fill="none" stroke-width="4px" />
<path d="M 2220.0 165.0 L 2210.0 165.0" stroke="#FF0000" fill="none" stroke-width="4px" />
<path d="M 2210.0 165.0 L 2200.0 165.0" stroke="#FF0000" fill="none" stroke-width="4px" />
<path d="M 2200.0 165.0 L 2190.0 165.0" stroke="#FF0000" fill="none" stroke-width="4px" />
<path d="M 2190.0 165.0 L 2180.0 165.0" stroke="#FF0000" fill="none" stroke-width="4px" />
<path d="M 2180.0 165.0 L 2170.0 165.0" stroke="#FF0000" fill="none" stroke-width="4px" />
<path d="M 2170.0 165.0 L 2170.0 155.0" stroke="#FF0000" fill="none" stroke-width="4px" />
<path d="M 2170.0 155.0 L 2180.0 155.0" stroke="#FF0000" fill="none" stroke-width="4px" />
<path d="M 2180.0 155.0 L 2190.0 155.0" stroke="#FF0000" fill="none" stroke-width="4px" />
<path d="M 2190.0 155.0 L 2200.0 155.0" stroke="#FF0000" fill="none" stroke-width="4px" />
<path d="M 2200.0 155.0 L 2210.0 155.0" stroke="#FF0000" fill="none" stroke-width="4px" />
<path d="M 2210.0 155.0 L 2220.0 155.0" stroke="#FF0000" fill="none" stroke-width="4px" />
<path d="M 2220.0 155.0 L 2220.0 145.0" stroke="#FF0000" fill="none" stroke-width="4px" />
<path d="M 2220.0 145.0 L 2210.0 145.0" stroke="#FF0000" fill="none" stroke-width="4px" />
<path d="M 2210.0 145.0 L 2200.0 145.0" stroke="#FF0000" fill="none" stroke-width="4px" />
<path d="M 2200.0 145.0 L 2190.0 145.0" stroke="#FF0000" fill="none" stroke-width="4px" />
<path d="M 2190.0 145.0 L 2180.0 145.0" stroke="#FF0000" fill="none" stroke-width="4px" />
<path d="M 2180.0 145.0 L 2170.0 145.0" stroke="#FF0000" fill="none" stroke-width="4px" />
<path d="M 2170.0 145.0 L 2160.0 145.0" stroke="#FF0000" fill="none" stroke-width="4px" />
<path d="M 2160.0 145.0 L 2170.0 135.0" stroke="#FF0000" fill="none" stroke-width="4px" />
<path d="M 2170.0 135.0 L 2180.0 135.0" stroke="#FF0000" fill="none" stroke-width="4px" />
<path d="M 2180.0 135.0 L 2190.0 135.0" stroke="#FF0000" fill="none" stroke-width="4px" />
<path d="M 2190.0 135.0 L 2200.0 135.0" stroke="#FF0000" fill="none" stroke-width="4px" />
<path d="M 2200.0 135.0 L 2210.0 135.0" stroke="#FF0000" fill="none" stroke-width="4px" />
<path d="M 2210.0 135.0 L 2220.0 135.0" stroke="#FF0000" fill="none" stroke-width="4px" />
<path d="M 2220.0 135.0 L 2210.0 125.0" stroke="#FF0000" fill="none" stroke-width="4px" />
<path d="M 2210.0 125.0 L 2200.0 125.0" stroke="#FF0000" fill="none" stroke-width="4px" />
<path d="M 2200.0 125.0 L 2190.0 125.0" stroke="#FF0000" fill="none" stroke-width="4px" />
<path d="M 2190.0 125.0 L 2180.0 125.0" stroke="#FF0000" fill="none" stroke-width="4px" />
<path d="M 2180.0 125.0 L 2180.0 115.0" stroke="#FF0000" fill="none" stroke-width="4px" />
<path d="M 2180.0 115.0 L 2190.0 115.0" stroke="#FF0000" fill="none" stroke-width="4px" />
<path d="M 2190.0 115.0 L 2200.0 115.0" stroke="#FF0000" fill="none" stroke-width="4px" />
<path d="M 2200.0 115.0 L 2210.0 115.0" stroke="#FF0000" fill="none" stroke-width="4px" />
<path d="M 2210.0 115.0 L 2200.0 105.0" stroke="#FF0000" fill="none" stroke-width="4px" />
<path d="M 2200.0 105.0 L 2190.0 105.0" stroke="#FF0000" fill="none" stroke-width="4px" />
<path d="M 2190.0 85.0 L 2190.0 75.0" stroke="#FF0000" fill="none" stroke-width="4px" />
<path d="M 2190.0 75.0 L 2180.0 75.0" stroke="#FF0000" fill="none" stroke-width="4px" />
<path d="M 2180.0 75.0 L 2170.0 75.0" stroke="#FF0000" fill="none" stroke-width="4px" />
<path d="M 2170.0 75.0 L 2170.0 65.0" stroke="#FF0000" fill="none" stroke-width="4px" />
<path d="M 2170.0 65.0 L 2160.0 65.0" stroke="#FF0000" fill="none" stroke-width="4px" />
<path d="M 2160.0 65.0 L 2160.0 55.0" stroke="#FF0000" fill="none" stroke-width="4px" />
<path d="M 2160.0 55.0 L 2170.0 55.0" stroke="#FF0000" fill="none" stroke-width="4px" />
<path d="M 2170.0 55.0 L 2180.0 55.0" stroke="#FF0000" fill="none" stroke-width="4px" />
<path d="M 2180.0 55.0 L 2190.0 55.0" stroke="#FF0000" fill="none" stroke-width="4px" />
<path d="M 2190.0 55.0 L 2200.0 55.0" stroke="#FF0000" fill="none" stroke-width="4px" />
<path d="M 2200.0 55.0 L 2210.0 55.0" stroke="#FF0000" fill="none" stroke-width="4px" />
<path d="M 2210.0 55.0 L 2220.0 55.0" stroke="#FF0000" fill="none" stroke-width="4px" />
<path d="M 2220.0 55.0 L 2220.0 65.0" stroke="#FF0000" fill="none" stroke-width="4px" />
<path d="M 2220.0 65.0 L 2210.0 65.0" stroke="#FF0000" fill="none" stroke-width="4px" />
<path d="M 2210.0 65.0 L 2200.0 65.0" stroke="#FF0000" fill="none" stroke-width="4px" />
<path d="M 2200.0 65.0 L 2190.0 65.0" stroke="#FF0000" fill="none" stroke-width="4px" />
<path d="M 2190.0 65.0 L 2180.0 65.0" stroke="#FF0000" fill="none" stroke-width="4px" />
<path d="M 2200.0 75.0 L 2210.0 75.0" stroke="#FF0000" fill="none" stroke-width="4px" />
<path d="M 2210.0 45.0 L 2200.0 45.0" stroke="#FF0000" fill="none" stroke-width="4px" />
<path d="M 2200.0 45.0 L 2190.0 45.0" stroke="#FF0000" fill="none" stroke-width="4px" />
<path d="M 2190.0 45.0 L 2180.0 45.0" stroke="#FF0000" fill="none" stroke-width="4px" />
<path d="M 2180.0 45.0 L 2170.0 45.0" stroke="#FF0000" fill="none" stroke-width="4px" />
<path d="M 2170.0 45.0 L 2160.0 45.0" stroke="#FF0000" fill="none" stroke-width="4px" />
<path d="M 2160.0 45.0 L 2170.0 35.0" stroke="#FF0000" fill="none" stroke-width="4px" />
<path d="M 2170.0 35.0 L 2180.0 35.0" stroke="#FF0000" fill="none" stroke-width="4px" />
<path d="M 2180.0 35.0 L 2190.0 35.0" stroke="#FF0000" fill="none" stroke-width="4px" />
<path d="M 2190.0 35.0 L 2200.0 35.0" stroke="#FF0000" fill="none" stroke-width="4px" />
<path d="M 2200.0 175.0 L 2190.0 175.0" stroke="#FF0000" fill="none" stroke-width="4px" />
<path d="M 2190.0 175.0 L 2180.0 175.0" stroke="#FF0000" fill="none" stroke-width="4px" />
<path d="M 2180.0 175.0 L 2190.0 185.0" stroke="#FF0000" fill="none" stroke-width="4px" />
<path d="M 2190.0 185.0 L 2200.0 185.0" stroke="#FF0000" fill="none" stroke-width="4px" />
<path d="M 2200.0 185.0 L 2210.0 175.0" stroke="#FF0000" fill="none" stroke-width="4px" />
</svg>