<svg width="2472.26666667" height="235.0" xmlns="http://www.w3.org/2000/svg" version="1.1">
<path d="M 0.0 235.0 L 1985.0 235.0 L 1985.0 0.0 L 0.0 0.0 L 0.0 235.0" stroke="#000000" fill="none" stroke-width="3px" />
<path d="M 2472.26666667 235.0 L 1885.0 235.0 L 1885.0 0.0 L 2472.26666667 0.0 L 2472.26666667 235.0" stroke="#000000" fill="none" stroke-width="3px" />
<path d="M 10.0 257.5 L 0.0 247.5 L 10.0 237.5" stroke="#969696" fill="none" stroke-width="1px" />
<path d="M 10.0 237.5 L 1975.0 237.5" stroke="#969696" fill="none" stroke-width="1px" />
<path d="M 1975.0 237.5 L 1985.0 227.5 L 1975.0 217.5" stroke="#969696" fill="none" stroke-width="1px" />
<path d="M 1975.0 217.5 L 10.0 217.5" stroke="#969696" fill="none" stroke-width="1px" />
<path d="M 10.0 217.5 L 0.0 207.5 L 10.0 197.5" stroke="#969696" fill="none" stroke-width="1px" />
<path d="M 10.0 197.5 L 1975.0 197.5" stroke="#969696" fill="none" stroke-width="1px" />
<path d="M 1975.0 197.5 L 1985.0 187.5 L 1975.0 177.5" stroke="#969696" fill="none" stroke-width="1px" />
<path d="M 1975.0 177.5 L 10.0 177.5" stroke="#969696" fill="none" stroke-width="1px" />
<path d="M 10.0 177.5 L 0.0 167.5 L 10.0 157.5" stroke="#969696" fill="none" stroke-width="1px" />
<path d="M 10.0 157.5 L 1975.0 157.5" stroke="#969696" fill="none" stroke-width="1px" />
<path d="M 1975.0 157.5 L 1985.0 147.5 L 1975.0 137.5" stroke="#969696" fill="none" stroke-width="1px" />
<path d="M 1975.0 137.5 L 10.0 137.5" stroke="#969696" fill="none" stroke-width="1px" />
<path d="M 10.0 137.5 L 0.0 127.5 L 10.0 117.5" stroke="#969696" fill="none" stroke-width="1px" />
<path d="M 10.0 117.5 L 1975.0 117.5" stroke="#969696" fill="none" stroke-width="1px" />
<path d="M 1975.0 117.5 L 1985.0 107.5 L 1975.0 97.5" stroke="#969696" fill="none" stroke-width="1px" />
<path d="M 1975.0 97.5 L 10.0 97.5" stroke="#969696" fill="none" stroke-width="1px" />
<path d="M 10.0 97.5 L 0.0 87.5 L 10.0 77.5" stroke="#969696" fill="none" stroke-width="1px" />
<path d="M 10.0 77.5 L 1975.0 77.5" stroke="#969696" fill="none" stroke-width="1px" />
<path d="M 1975.0 77.5 L 1985.0 67.5 L 1975.0 57.5" stroke="#969696" fill="none" stroke-width="1px" />
<path d="M 1975.0 57.5 L 10.0 57.5" stroke="#969696" fill="none" stroke-width="1px" />
<path d="M 10.0 57.5 L 0.0 47.5 L 10.0 37.5" stroke="#969696" fill="none" stroke-width="1px" />
<path d="M 10.0 37.5 L 1975.0 37.5" stroke="#969696" fill="none" stroke-width="1px" />
<path d="M 1975.0 37.5 L 1985.0 27.5 L 1975.0 17.5" stroke="#969696" fill="none" stroke-width="1px" />
<path d="M 1975.0 17.5 L 10.0 17.5" stroke="#969696" fill="none" stroke-width="1px" />
<path d="M 10.0 17.5 L 0.0 7.5 L 10.0 -2.5" stroke="#969696" fill="none" stroke-width="1px" />
<path d="M 10.0 -2.5 L 1975.0 -2.5" stroke="#969696" fill="none" stroke-width="1px" />
<path d="M 1975.0 -2.5 L 1985.0 -12.5 L 1975.0 -22.5" stroke="#969696" fill="none" stroke-width="1px" />
<path d="M 2462.26666667 257.5 L 2472.26666667 247.5 L 2462.26666667 237.5" stroke="#969696" fill="none" stroke-width="1px" />
<path d="M 2462.26666667 237.5 L 1895.0 237.5" stroke="#969696" fill="none" stroke-width="1px" />
<path d="M 1895.0 237.5 L 1885.0 227.5 L 1895.0 217.5" stroke="#969696" fill="none" stroke-width="1px" />
<path d="M 1895.0 217.5 L 2462.26666667 217.5" stroke="#969696" fill="none" stroke-width="1px" />
<path d="M 2462.26666667 217.5 L 2472.26666667 207.5 L 2462.26666667 197.5" stroke="#969696" fill="none" stroke-width="1px" />
<path d="M 2462.26666667 197.5 L 1895.0 197.5" stroke="#969696" fill="none" stroke-width="1px" />
<path d="M 1895.0 197.5 L 1885.0 187.5 L 1895.0 177.5" stroke="#969696" fill="none" stroke-width="1px" />
<path d="M 1895.0 177.5 L 2462.26666667 177.5" stroke="#969696" fill="none" stroke-width="1px" />
<path d="M 2462.26666667 177.5 L 2472.26666667 167.5 L 2462.26666667 157.5" stroke="#969696" fill="none" stroke-width="1px" />
<path d="M 2462.26666667 157.5 L 1895.0 157.5" stroke="#969696" fill="none" stroke-width="1px" />
<path d="M 1895.0 157.5 L 1885.0 147.5 L 1895.0 137.5" stroke="#969696" fill="none" stroke-width="1px" />
<path d="M 1895.0 137.5 L 2462.26666667 137.5" stroke="#969696" fill="none" stroke-width="1px" />
<path d="M 2462.26666667 137.5 L 2472.26666667 127.5 L 2462.26666667 117.5" stroke="#969696" fill="none" stroke-width="1px" />
<path d="M 2462.26666667 117.5 L 1895.0 117.5" stroke="#969696" fill="none" stroke-width="1px" />
<path d="M 1895.0 117.5 L 1885.0 107.5 L 1895.0 97.5" stroke="#969696" fill="none" stroke-width="1px" />
<path d="M 1895.0 97.5 L 2462.26666667 97.5" stroke="#969696" fill="none" stroke-width="1px" />
<path d="M 2462.26666667 97.5 L 2472.26666667 87.5 L 2462.26666667 77.5" stroke="#969696" fill="none" stroke-width="1px" />
<path d="M 2462.26666667 77.5 L 1895.0 77.5" stroke="#969696" fill="none" stroke-width="1px" />
<path d="M 1895.0 77.5 L 1885.0 67.5 L 1895.0 57.5" stroke="#969696" fill="none" stroke-width="1px" />
<path d="M 1895.0 57.5 L 2462.26666667 57.5" stroke="#969696" fill="none" stroke-width="1px" />
<path d="M 2462.26666667 57.5 L 2472.26666667 47.5 L 2462.26666667 37.5" stroke="#969696" fill="none" stroke-width="1px" />
<path d="M 2462.26666667 37.5 L 1895.0 37.5" stroke="#969696" fill="none" stroke-width="1px" />
<path d="M 1895.0 37.5 L 1885.0 27.5 L 1895.0 17.5" stroke="#969696" fill="none" stroke-width="1px" />
<path d="M 1895.0 17.5 L 2462.26666667 17.5" stroke="#969696" fill="none" stroke-width="1px" />
<path d="M 2462.26666667 17.5 L 2472.26666667 7.5 L 2462.26666667 -2.5" stroke="#969696" fill="none" stroke-width="1px" />
<path d="M 2462.26666667 -2.5 L 1895.0 -2.5" stroke="#969696" fill="none" stroke-width="1px" />
<path d="M 1895.0 -2.5 L 1885.0 -12.5 L 1895.0 -22.5" stroke="#969696" fill="none" stroke-width="1px" />
<path d="M 0.0 235.0 L 950.0 85.0" stroke="#0095FF" fill="none" stroke-width="2px" />
<path d="M 1000.0 65.0 L 1000.0 95.0" stroke="#0095FF" fill="none" stroke-width="2px" />
<path d="M 990.0 105.0 L 1440.0 45.0" stroke="#0095FF" fill="none" stroke-width="2px" />
<path d="M 1470.0 75.0 L 1510.0 85.0" stroke="#0095FF" fill="none" stroke-width="2px" />
<path d="M 1530.0 105.0 L 1530.0 75.0" stroke="#0095FF" fill="none" stroke-width="2px" />
<path d="M 1520.0 75.0 L 1500.0 35.0" stroke="#0095FF" fill="none" stroke-width="2px" />
<path d="M 1460.0 15.0 L 1620.0 55.0" stroke="#0095FF" fill="none" stroke-width="2px" />
<path d="M 1660.0 65.0 L 1650.0 85.0" stroke="#0095FF" fill="none" stroke-width="2px" />
<path d="M 1630.0 85.0 L 1630.0 45.0" stroke="#0095FF" fill="none" stroke-width="2px" />
<path d="M 1640.0 45.0 L 1710.0 115.0" stroke="#0095FF" fill="none" stroke-width="2px" />
<path d="M 1710.0 175.0 L 1710.0 135.0" stroke="#0095FF" fill="none" stroke-width="2px" />
<path d="M 2472.26666667 235.0 L 2290.0 145.0" stroke="#0095FF" fill="none" stroke-width="2px" />
<path d="M 2300.0 135.0 L 2300.0 85.0" stroke="#0095FF" fill="none" stroke-width="2px" />
<path d="M 950.0 85.0 L 960.0 85.0" stroke="#FF0000" fill="none" stroke-width="4px" />
<path d="M 960.0 85.0 L 970.0 85.0" stroke="#FF0000" fill="none" stroke-width="4px" />
<path d="M 970.0 85.0 L 980.0 85.0" stroke="#FF0000" fill="none" stroke-width="4px" />
<path d="M 980.0 85.0 L 990.0 85.0" stroke="#FF0000" fill="none" stroke-width="4px" />
<path d="M 990.0 85.0 L 1000.0 85.0" stroke="#FF0000" fill="none" stroke-width="4px" />
<path d="M 1000.0 85.0 L 1010.0 85.0" stroke="#FF0000" fill="none" stroke-width="4px" />
<path d="M 1010.0 85.0 L 1010.0 75.0" stroke="#FF0000" fill="none" stroke-width="4px" />
<path d="M 1010.0 75.0 L 1000.0 75.0" stroke="#FF0000" fill="none" stroke-width="4px" />
<path d="M 1000.0 75.0 L 990.0 75.0" stroke="#FF0000" fill="none" stroke-width="4px" />
<path d="M 990.0 75.0 L 980.0 75.0" stroke="#FF0000" fill="none" stroke-width="4px" />
<path d="M 980.0 75.0 L 970.0 75.0" stroke="#FF0000" fill="none" stroke-width="4px" />
<path d="M 970.0 75.0 L 960.0 75.0" stroke="#FF0000" fill="none" stroke-width="4px" />
<path d="M 960.0 75.0 L 970.0 65.0" stroke="#FF0000" fill="none" stroke-width="4px" />
<path d="M 970.0 65.0 L 980.0 65.0" stroke="#FF0000" fill="none" stroke-width="4px" />
<path d="M 980.0 65.0 L 990.0 65.0" stroke="#FF0000" fill="none" stroke-width="4px" />
<path d="M 990.0 65.0 L 1000.0 65.0" stroke="#FF0000" fill="none" stroke-width="4px" />
<path d="M 1000.0 95.0 L 990.0 95.0" stroke="#FF0000" fill="none" stroke-width="4px" />
<path d="M 990.0 95.0 L 980.0 95.0" stroke="#FF0000" fill="none" stroke-width="4px" />
<path d="M 980.0 95.0 L 970.0 95.0" stroke="#FF0000" fill="none" stroke-width="4px" />
<path d="M 970.0 95.0 L 960.0 95.0" stroke="#FF0000" fill="none" stroke-width="4px" />
<path d="M 960.0 95.0 L 970.0 105.0" stroke="#FF0000" fill="none" stroke-width="4px" />
<path d="M 970.0 105.0 L 980.0 105.0" stroke="#FF0000" fill="none" stroke-width="4px" />
<path d="M 980.0 105.0 L 990.0 105.0" stroke="#FF0000" fill="none" stroke-width="4px" />
<path d="M 1440.0 45.0 L 1450.0 45.0" stroke="#FF0000" fill="none" stroke-width="4px" />
<path d="M 1450.0 45.0 L 1460.0 45.0" stroke="#FF0000" fill="none" stroke-width="4px" />
<path d="M 1460.0 45.0 L 1470.0 45.0" stroke="#FF0000" fill="none" stroke-width="4px" />
<path d="M 1470.0 45.0 L 1480.0 45.0" stroke="#FF0000" fill="none" stroke-width="4px" />
<path d="M 1480.0 45.0 L 1490.0 45.0" stroke="#FF0000" fill="none" stroke-width="4px" />
<path d="M 1490.0 45.0 L 1500.0 45.0" stroke="#FF0000" fill="none" stroke-width="4px" />
<path d="M 1500.0 45.0 L 1500.0 55.0" stroke="#FF0000" fill="none" stroke-width="4px" />
<path d="M 1500.0 55.0 L 1490.0 55.0" stroke="#FF0000" fill="none" stroke-width="4px" />
<path d="M 1490.0 55.0 L 1480.0 55.0" stroke="#FF0000" fill="none" stroke-width="4px" />
<path d="M 1480.0 55.0 L 1470.0 55.0" stroke="#FF0000" fill="none" stroke-width="4px" />
<path d="M 1470.0 55.0 L 1460.0 55.0" stroke="#FF0000" fill="none" stroke-width="4px" />
<path d="M 1460.0 55.0 L 1450.0 55.0" stroke="#FF0000" fill="none" stroke-width="4px" />
<path d="M 1450.0 55.0 L 1460.0 65.0" stroke="#FF0000" fill="none" stroke-width="4px" />
<path d="M 1460.0 65.0 L 1470.0 65.0" stroke="#FF0000" fill="none" stroke-width="4px" />
<path d="M 1470.0 65.0 L 1480.0 65.0" stroke="#FF0000" fill="none" stroke-width="4px" />
<path d="M 1480.0 65.0 L 1490.0 65.0" stroke="#FF0000" fill="none" stroke-width="4px" />
<path d="M 1490.0 65.0 L 1480.0 75.0" stroke="#FF0000" fill="none" stroke-width="4px" />
<path d="M 1480.0 75.0 L 1470.0 75.0" stroke="#FF0000" fill="none" stroke-width="4px" />
<path d="M 1510.0 85.0 L 1520.0 85.0" stroke="#FF0000" fill="none" stroke-width="4px" />
<path d="M 1520.0 85.0 L 1530.0 85.0" stroke="#FF0000" fill="none" stroke-width="4px" />
<path d="M 1530.0 85.0 L 1540.0 85.0" stroke="#FF0000" fill="none" stroke-width="4px" />
<path d="M 1540.0 85.0 L 1540.0 95.0" stroke="#FF0000" fill="none" stroke-width="4px" />
<path d="M 1540.0 95.0 L 1530.0 95.0" stroke="#FF0000" fill="none" stroke-width="4px" />
<path d="M 1530.0 95.0 L 1520.0 95.0" stroke="#FF0000" fill="none" stroke-width="4px" />
<path d="M 1520.0 95.0 L 1510.0 95.0" stroke="#FF0000" fill="none" stroke-width="4px" />
<path d="M 1510.0 95.0 L 1520.0 105.0" stroke="#FF0000" fill="none" stroke-width="4px" />
<path d="M 1520.0 105.0 L 1530.0 105.0" stroke="#FF0000" fill="none" stroke-width="4px" />
<path d="M 1530.0 75.0 L 1520.0 75.0" stroke="#FF0000" fill="none" stroke-width="4px" />
<path d="M 1500.0 35.0 L 1490.0 35.0" stroke="#FF0000" fill="none" stroke-width="4px" />
<path d="M 1490.0 35.0 L 1480.0 35.0" stroke="#FF0000" fill="none" stroke-width="4px" />
<path d="M 1480.0 35.0 L 1470.0 35.0" stroke="#FF0000" fill="none" stroke-width="4px" />
<path d="M 1470.0 35.0 L 1460.0 35.0" stroke="#FF0000" fill="none" stroke-width="4px" />
<path d="M 1460.0 35.0 L 1450.0 35.0" stroke="#FF0000" fill="none" stroke-width="4px" />
<path d="M 1450.0 35.0 L 1440.0 35.0" stroke="#FF0000" fill="none" stroke-width="4px" />
<path d="M 1440.0 35.0 L 1450.0 25.0" stroke="#FF0000" fill="none" stroke-width="4px" />
<path d="M 1450.0 25.0 L 1460.0 25.0" stroke="#FF0000" fill="none" stroke-width="4px" />
<path d="M 1460.0 25.0 L 1470.0 25.0" stroke="#FF0000" fill="none" stroke-width="4px" />
<path d="M 1470.0 25.0 L 1480.0 25.0" stroke="#FF0000" fill="none" stroke-width="4px" />
<path d="M 1480.0 25.0 L 1490.0 25.0" stroke="#FF0000" fill="none" stroke-width="4px" />
<path d="M 1490.0 25.0 L 1480.0 15.0" stroke="#FF0000" fill="none" stroke-width="4px" />
<path d="M 1480.0 15.0 L 1470.0 15.0" stroke="#FF0000" fill="none" stroke-width="4px" />
<path d="M 1470.0 15.0 L 1460.0 15.0" stroke="#FF0000" fill="none" stroke-width="4px" />
<path d="M 1620.0 55.0 L 1630.0 55.0" stroke="#FF0000" fill="none" stroke-width="4px" />
<path d="M 1630.0 55.0 L 1640.0 55.0" stroke="#FF0000" fill="none" stroke-width="4px" />
<path d="M 1640.0 55.0 L 1650.0 55.0" stroke="#FF0000" fill="none" stroke-width="4px" />
<path d="M 1650.0 55.0 L 1650.0 65.0" stroke="#FF0000" fill="none" stroke-width="4px" />
<path d="M 1650.0 65.0 L 1640.0 65.0" stroke="#FF0000" fill="none" stroke-width="4px" />
<path d="M 1640.0 65.0 L 1630.0 65.0" stroke="#FF0000" fill="none" stroke-width="4px" />
<path d="M 1630.0 65.0 L 1620.0 65.0" stroke="#FF0000" fill="none" stroke-width="4px" />
<path d="M 1620.0 65.0 L 1620.0 75.0" stroke="#FF0000" fill="none" stroke-width="4px" />
<path d="M 1620.0 75.0 L 1630.0 75.0" stroke="#FF0000" fill="none" stroke-width="4px" />
<path d="M 1630.0 75.0 L 1640.0 75.0" stroke="#FF0000" fill="none" stroke-width="4px" />
<path d="M 1640.0 75.0 L 1650.0 75.0" stroke="#FF0000" fill="none" stroke-width="4px" />
<path d="M 1650.0 75.0 L 1660.0 75.0" stroke="#FF0000" fill="none" stroke-width="4px" />
<path d="M 1660.0 75.0 L 1660.0 65.0" stroke="#FF0000" fill="none" stroke-width="4px" />
<path d="M 1650.0 85.0 L 1640.0 85.0" stroke="#FF0000" fill="none" stroke-width="4px" />
<path d="M 1640.0 85.0 L 1630.0 85.0" stroke="#FF0000" fill="none" stroke-width="4px" />
<path d="M 1630.0 45.0 L 1640.0 45.0" stroke="#FF0000" fill="none" stroke-width="4px" />
<path d="M 1710.0 115.0 L 1710.0 125.0" stroke="#FF0000" fill="none" stroke-width="4px" />
<path d="M 1710.0 125.0 L 1700.0 125.0" stroke="#FF0000" fill="none" stroke-width="4px" />
<path d="M 1700.0 125.0 L 1700.0 135.0" stroke="#FF0000" fill="none" stroke-width="4px" />
<path d="M 1700.0 135.0 L 1690.0 135.0" stroke="#FF0000" fill="none" stroke-width="4px" />
<path d="M 1690.0 135.0 L 1690.0 145.0" stroke="#FF0000" fill="none" stroke-width="4px" />
<path d="M 1690.0 145.0 L 1700.0 145.0" stroke="#FF0000" fill="none" stroke-width="4px" />
<path d="M 1700.0 145.0 L 1710.0 145.0" stroke="#FF0000" fill="none" stroke-width="4px" />
<path d="M 1710.0 145.0 L 1720.0 145.0" stroke="#FF0000" fill="none" stroke-width="4px" />
<path d="M 1720.0 145.0 L 1730.0 145.0" stroke="#FF0000" fill="none" stroke-width="4px" />
<path d="M 1730.0 145.0 L 1730.0 155.0" stroke="#FF0000" fill="none" stroke-width="4px" />
<path d="M 1730.0 155.0 L 1720.0 155.0" stroke="#FF0000" fill="none" stroke-width="4px" />
<path d="M 1720.0 155.0 L 1710.0 155.0" stroke="#FF0000" fill="none" stroke-width="4px" />
<path d="M 1710.0 155.0 L 1700.0 155.0" stroke="#FF0000" fill="none" stroke-width="4px" />
<path d="M 1700.0 155.0 L 1690.0 155.0" stroke="#FF0000" fill="none" stroke-width="4px" />
<path d="M 1690.0 155.0 L 1700.0 165.0" stroke="#FF0000" fill="none" stroke-width="4px" />
<path d="M 1700.0 165.0 L 1710.0 165.0" stroke="#FF0000" fill="none" stroke-width="4px" />
<path d="M 1710.0 165.0 L 1720.0 165.0" stroke="#FF0000" fill="none" stroke-width="4px" />
<path d="M 1720.0 165.0 L 1720.0 175.0" stroke="#FF0000" fill="none" stroke-width="4px" />
<path d="M 1720.0 175.0 L 1710.0 175.0" stroke="#FF0000" fill="none" stroke-width="4px" />
<path d="M 1710.0 135.0 L 1720.0 135.0" stroke="#FF0000" fill="none" stroke-width="4px" />
<path d="M 1720.0 135.0 L 1730.0 135.0" stroke="#FF0000" fill="none" stroke-width="4px" />
<path d="M 1730.0 135.0 L 1720.0 125.0" stroke="#FF0000" fill="none" stroke-width="4px" />
<path d="M 2290.0 145.0 L 2290.0 135.0" stroke="#FF0000" fill="none" stroke-width="4px" />
<path d="M 2290.0 135.0 L 2280.0 135.0" stroke="#FF0000" fill="none" stroke-width="4px" />
<path d="M 2280.0 135.0 L 2280.0 125.0" stroke="#FF0000" fill="none" stroke-width="4px" />
<path d="M 2280.0 125.0 L 2270.0 125.0" stroke="#FF0000" fill="none" stroke-width="4px" />
<path d="M 2270.0 125.0 L 2270.0 115.0" stroke="#FF0000" fill="none" stroke-width="4px" />
<path d="M 2270.0 115.0 L 2260.0 115.0" stroke="#FF0000" fill="none" stroke-width="4px" />
<path d="M 2260.0 115.0 L 2260.0 105.0" stroke="#FF0000" fill="none" stroke-width="4px" />
<path d="M 2260.0 105.0 L 2250.0 105.0" stroke="#FF0000" fill="none" stroke-width="4px" />
<path d="M 2250.0 105.0 L 2250.0 95.0" stroke="#FF0000" fill="none" stroke-width="4px" />
<path d="M 2250.0 95.0 L 2260.0 95.0" stroke="#FF0000" fill="none" stroke-width="4px" />
<path d="M 2260.0 95.0 L 2270.0 95.0" stroke="#FF0000" fill="none" stroke-width="4px" />
<path d="M 2270.0 95.0 L 2280.0 95.0" stroke="#FF0000" fill="none" stroke-width="4px" />
<path d="M 2280.0 95.0 L 2290.0 95.0" stroke="#FF0000" fill="none" stroke-width="4px" />
<path d="M 2290.0 95.0 L 2300.0 95.0" stroke="#FF0000" fill="none" stroke-width="4px" />
<path d="M 2300.0 95.0 L 2310.0 95.0" stroke="#FF0000" fill="none" stroke-width="4px" />
<path d="M 2310.0 95.0 L 2310.0 105.0" stroke="#FF0000" fill="none" stroke-width="4px" />
<path d="M 2310.0 105.0 L 2300.0 105.0" stroke="#FF0000" fill="none" stroke-width="4px" />
<path d="M 2300.0 105.0 L 2290.0 105.0" stroke="#FF0000" fill="none" stroke-width="4px" />
<path d="M 2290.0 105.0 L 2280.0 105.0" stroke="#FF0000" fill="none" stroke-width="4px" />
<path d="M 2280.0 105.0 L 2270.0 105.0" stroke="#FF0000" fill="none" stroke-width="4px" />
<path d="M 2270.0 105.0 L 2280.0 115.0" stroke="#FF0000" fill="none" stroke-width="4px" />
<path d="M 2280.0 115.0 L 2290.0 115.0" stroke="#FF0000" fill="none" stroke-width="4px" />
<path d="M 2290.0 115.0 L 2300.0 115.0" stroke="#FF0000" fill="none" stroke-width="4px" />
<path d="M 2300.0 115.0 L 2310.0 115.0" stroke="#FF0000" fill="none" stroke-width="4px" />
<path d="M 2310.0 115.0 L 2310.0 125.0" stroke="#FF0000" fill="none" stroke-width="4px" />
<path d="M 2310.0 125.0 L 2300.0 125.0" stroke="#FF0000" fill="none" stroke-width="4px" />
<path d="M 2300.0 125.0 L 2290.0 125.0" stroke="#FF0000" fill="none" stroke-width="4px" />
<path d="M 2290.0 125.0 L 2300.0 135.0" stroke="#FF0000" fill="none" stroke-width="4px" />
<path d="M 2300.0 85.0 L 2290.0 85.0" stroke="#FF0000" fill="none" stroke-width="4px" />
<path d="M 2290.0 85.0 L 2280.0 85.0" stroke="#FF0000" fill="none" stroke-width="4px" />
<path d="M 2280.0 85.0 L 2270.0 85.0" stroke="#FF0000" fill="none" stroke-width="4px" />
<path d="M 2270.0 85.0 L 2260.0 85.0" stroke="#FF0000" fill="none" stroke-width="4px" />
<path d="M 2260.0 85.0 L 2250.0 85.0" stroke="#FF0000" fill="none" stroke-width="4px" />
<path d="M 2250.0 85.0 L 2240.0 85.0" stroke="#FF0000" fill="none" stroke-width="4px" />
<path d="M 2240.0 85.0 L 2240.0 75.0" stroke="#FF0000" fill="none" stroke-width="4px" />
<path d="M 2240.0 75.0 L 2250.0 75.0" stroke="#FF0000" fill="none" stroke-width="4px" />
<path d="M 2250.0 75.0 L 2260.0 75.0" stroke="#FF0000" fill="none" stroke-width="4px" />
<path d="M 2260.0 75.0 L 2270.0 75.0" stroke="#FF0000" fill="none" stroke-width="4px" />
<path d="M 2270.0 75.0 L 2280.0 75.0" stroke="#FF0000" fill="none" stroke-width="4px" />
<path d="M 2280.0 75.0 L 2290.0 75.0" stroke="#FF0000" fill="none" stroke-width="4px" />
<path d="M 2290.0 75.0 L 2300.0 75.0" stroke="#FF0000" fill="none" stroke-width="4px" />
<path d="M 2300.0 75.0 L 2310.0 75.0" stroke="#FF0000" fill="none" stroke-width="4px" />
<path d="M 2310.0 75.0 L 2310.0 65.0" stroke="#FF0000" fill="none" stroke-width="4px" />
<path d="M 2310.0 65.0 L 2300.0 65.0" stroke="#FF0000" fill="none" stroke-width="4px" />
<path d="M 2300.0 65.0 L 2290.0 65.0" stroke="#FF0000" fill="none" stroke-width="4px" />
<path d="M 2290.0 65.0 L 2280.0 65.0" stroke="#FF0000" fill="none" stroke-width="4px" />
<path d="M 2280.0 65.0 L 2270.0 65.0" stroke="#FF0000" fill="none" stroke-width="4px" />
<path d="M 2270.0 65.0 L 2260.0 65.0" stroke="#FF0000" fill="none" stroke-width="4px" />
<path d="M 2260.0 65.0 L 2250.0 65.0" stroke="#FF0000" fill="none" stroke-width="4px" />
<path d="M 2250.0 65.0 L 2260.0 55.0" stroke="#FF0000" fill="none" stroke-width="4px" />
<path d="M 2260.0 55.0 L 2270.0 55.0" stroke="#FF0000" fill="none" stroke-width="4px" />
<path d="M 2270.0 55.0 L 2280.0 55.0" stroke="#FF0000" fill="none" stroke-width="4px" />
<path d="M 2280.0 55.0 L 2290.0 55.0" stroke="#FF0000" fill="none" stroke-width="4px" />
<path d="M 2290.0 55.0 L 2300.0 55.0" stroke="#FF0000" fill="none" stroke-width="4px" />
<path d="M 2300.0 55.0 L 2290.0 45.0" stroke="#FF0000" fill="none" stroke-width="4px" />
<path d="M 2290.0 45.0 L 2280.0 45.0" stroke="#FF0000" fill="none" stroke-width="4px" />
<path d="M 2280.0 45.0 L 2270.0 45.0" stroke="#FF0000" fill="none" stroke-width="4px" />
</svg>