<svg width="2472.26666667" height="235.0" xmlns="http://www.w3.org/2000/svg" version="1.1">
<path d="M 0.0 235.0 L 1760.0 235.0 L 1760.0 0.0 L 0.0 0.0 L 0.0 235.0" stroke="#000000" fill="none" stroke-width="3px" />
<path d="M 2472.26666667 235.0 L 1660.0 235.0 L 1660.0 0.0 L 2472.26666667 0.0 L 2472.26666667 235.0" stroke="#000000" fill="none" stroke-width="3px" />
<path d="M 10.0 257.5 L 0.0 247.5 L 10.0 237.5" stroke="#969696" fill="none" stroke-width="1px" />
<path d="M 10.0 237.5 L 1750.0 237.5" stroke="#969696" fill="none" stroke-width="1px" />
<path d="M 1750.0 237.5 L 1760.0 227.5 L 1750.0 217.5" stroke="#969696" fill="none" stroke-width="1px" />
<path d="M 1750.0 217.5 L 10.0 217.5" stroke="#969696" fill="none" stroke-width="1px" />
<path d="M 10.0 217.5 L 0.0 207.5 L 10.0 197.5" stroke="#969696" fill="none" stroke-width="1px" />
<path d="M 10.0 197.5 L 1750.0 197.5" stroke="#969696" fill="none" stroke-width="1px" />
<path d="M 1750.0 197.5 L 1760.0 187.5 L 1750.0 177.5" stroke="#969696" fill="none" stroke-width="1px" />
<path d="M 1750.0 177.5 L 10.0 177.5" stroke="#969696" fill="none" stroke-width="1px" />
<path d="M 10.0 177.5 L 0.0 167.5 L 10.0 157.5" stroke="#969696" fill="none" stroke-width="1px" />
<path d="M 10.0 157.5 L 1750.0 157.5" stroke="#969696" fill="none" stroke-width="1px" />
<path d="M 1750.0 157.5 L 1760.0 147.5 L 1750.0 137.5" stroke="#969696" fill="none" stroke-width="1px" />
<path d="M 1750.0 137.5 L 10.0 137.5" stroke="#969696" fill="none" stroke-width="1px" />
<path d="M 10.0 137.5 L 0.0 127.5 L 10.0 117.5" stroke="#969696" fill="none" stroke-width="1px" />
<path d="M 10.0 117.5 L 1750.0 117.5" stroke="#969696" fill="none" stroke-width="1px" />
<path d="M 1750.0 117.5 L 1760.0 107.5 L 1750.0 97.5" stroke="#969696" fill="none" stroke-width="1px" />
<path d="M 1750.0 97.5 L 10.0 97.5" stroke="#969696" fill="none" stroke-width="1px" />
<path d="M 10.0 97.5 L 0.0 87.5 L 10.0 77.5" stroke="#969696" fill="none" stroke-width="1px" />
<path d="M 10.0 77.5 L 1750.0 77.5" stroke="#969696" fill="none" stroke-width="1px" />
<path d="M 1750.0 77.5 L 1760.0 67.5 L 1750.0 57.5" stroke="#969696" fill="none" stroke-width="1px" />
<path d="M 1750.0 57.5 L 10.0 57.5" stroke="#969696" fill="none" stroke-width="1px" />
<path d="M 10.0 57.5 L 0.0 47.5 L 10.0 37.5" stroke="#969696" fill="none" stroke-width="1px" />
<path d="M 10.0 37.5 L 1750.0 37.5" stroke="#969696" fill="none" stroke-width="1px" />
<path d="M 1750.0 37.5 L 1760.0 27.5 L 1750.0 17.5" stroke="#969696" fill="none" stroke-width="1px" />
<path d="M 1750.0 17.5 L 10.0 17.5" stroke="#969696" fill="none" stroke-width="1px" />
<path d="M 10.0 17.5 L 0.0 7.5 L 10.0 -2.5" stroke="#969696" fill="none" stroke-width="1px" />
<path d="M 10.0 -2.5 L 1750.0 -2.5" stroke="#969696" fill="none" stroke-width="1px" />
<path d="M 1750.0 -2.5 L 1760.0 -12.5 L 1750.0 -22.5" stroke="#969696" fill="none" stroke-width="1px" />
<path d="M 2462.26666667 257.5 L 2472.26666667 247.5 L 2462.26666667 237.5" stroke="#969696" fill="none" stroke-width="1px" />
<path d="M 2462.26666667 237.5 L 1670.0 237.5" stroke="#969696" fill="none" stroke-width="1px" />
<path d="M 1670.0 237.5 L 1660.0 227.5 L 1670.0 217.5" stroke="#969696" fill="none" stroke-width="1px" />
<path d="M 1670.0 217.5 L 2462.26666667 217.5" stroke="#969696" fill="none" stroke-width="1px" />
<path d="M 2462.26666667 217.5 L 2472.26666667 207.5 L 2462.26666667 197.5" stroke="#969696" fill="none" stroke-width="1px" />
<path d="M 2462.26666667 197.5 L 1670.0 197.5" stroke="#969696" fill="none" stroke-width="1px" />
<path d="M 1670.0 197.5 L 1660.0 187.5 L 1670.0 177.5" stroke="#969696" fill="none" stroke-width="1px" />
<path d="M 1670.0 177.5 L 2462.26666667 177.5" stroke="#969696" fill="none" stroke-width="1px" />
<path d="M 2462.26666667 177.5 L 2472.26666667 167.5 L 2462.26666667 157.5" stroke="#969696" fill="none" stroke-width="1px" />
<path d="M 2462.26666667 157.5 L 1670.0 157.5" stroke="#969696" fill="none" stroke-width="1px" />
<path d="M 1670.0 157.5 L 1660.0 147.5 L 1670.0 137.5" stroke="#969696" fill="none" stroke-width="1px" />
<path d="M 1670.0 137.5 L 2462.26666667 137.5" stroke="#969696" fill="none" stroke-width="1px" />
<path d="M 2462.26666667 137.5 L 2472.26666667 127.5 L 2462.26666667 117.5" stroke="#969696" fill="none" stroke-width="1px" />
<path d="M 2462.26666667 117.5 L 1670.0 117.5" stroke="#969696" fill="none" stroke-width="1px" />
<path d="M 1670.0 117.5 L 1660.0 107.5 L 1670.0 97.5" stroke="#969696" fill="none" stroke-width="1px" />
<path d="M 1670.0 97.5 L 2462.26666667 97.5" stroke="#969696" fill="none" stroke-width="1px" />
<path d="M 2462.26666667 97.5 L 2472.26666667 87.5 L 2462.26666667 77.5" stroke="#969696" fill="none" stroke-width="1px" />
<path d="M 2462.26666667 77.5 L 1670.0 77.5" stroke="#969696" fill="none" stroke-width="1px" />
<path d="M 1670.0 77.5 L 1660.0 67.5 L 1670.0 57.5" stroke="#969696" fill="none" stroke-width="1px" />
<path d="M 1670.0 57.5 L 2462.26666667 57.5" stroke="#969696" fill="none" stroke-width="1px" />
<path d="M 2462.26666667 57.5 L 2472.26666667 47.5 L 2462.26666667 37.5" stroke="#969696" fill="none" stroke-width="1px" />
<path d="M 2462.26666667 37.5 L 1670.0 37.5" stroke="#969696" fill="none" stroke-width="1px" />
<path d="M 1670.0 37.5 L 1660.0 27.5 L 1670.0 17.5" stroke="#969696" fill="none" stroke-width="1px" />
<path d="M 1670.0 17.5 L 2462.26666667 17.5" stroke="#969696" fill="none" stroke-width="1px" />
<path d="M 2462.26666667 17.5 L 2472.26666667 7.5 L 2462.26666667 -2.5" stroke="#969696" fill="none" stroke-width="1px" />
<path d="M 2462.26666667 -2.5 L 1670.0 -2.5" stroke="#969696" fill="none" stroke-width="1px" />
<path d="M 1670.0 -2.5 L 1660.0 -12.5 L 1670.0 -22.5" stroke="#969696" fill="none" stroke-width="1px" />
<path d="M 0.0 235.0 L 110.0 235.0" stroke="#0095FF" fill="none" stroke-width="2px" />
<path d="M 110.0 235.0 L 110.0 95.0" stroke="#0095FF" fill="none" stroke-width="2px" />
<path d="M 110.0 75.0 L 140.0 75.0" stroke="#0095FF" fill="none" stroke-width="2px" />
<path d="M 140.0 75.0 L 140.0 85.0" stroke="#0095FF" fill="none" stroke-width="2px" />
<path d="M 140.0 85.0 L 160.0 85.0" stroke="#0095FF" fill="none" stroke-width="2px" />
<path d="M 160.0 85.0 L 160.0 55.0" stroke="#0095FF" fill="none" stroke-width="2px" />
<path d="M 160.0 55.0 L 140.0 55.0" stroke="#0095FF" fill="none" stroke-width="2px" />
<path d="M 140.0 55.0 L 140.0 35.0" stroke="#0095FF" fill="none" stroke-width="2px" />
<path d="M 140.0 35.0 L 110.0 35.0" stroke="#0095FF" fill="none" stroke-width="2px" />
<path d="M 110.0 35.0 L 110.0 15.0" stroke="#0095FF" fill="none" stroke-width="2px" />
<path d="M 50.0 -5.0 L 370.0 -5.0" stroke="#0095FF" fill="none" stroke-width="2px" />
<path d="M 370.0 -5.0 L 370.0 25.0" stroke="#0095FF" fill="none" stroke-width="2px" />
<path d="M 430.0 85.0 L 440.0 85.0" stroke="#0095FF" fill="none" stroke-width="2px" />
<path d="M 440.0 85.0 L 440.0 35.0" stroke="#0095FF" fill="none" stroke-width="2px" />
<path d="M 440.0 35.0 L 420.0 35.0" stroke="#0095FF" fill="none" stroke-width="2px" />
<path d="M 420.0 35.0 L 420.0 15.0" stroke="#0095FF" fill="none" stroke-width="2px" />
<path d="M 390.0 5.0 L 660.0 5.0" stroke="#0095FF" fill="none" stroke-width="2px" />
<path d="M 660.0 5.0 L 660.0 45.0" stroke="#0095FF" fill="none" stroke-width="2px" />
<path d="M 700.0 55.0 L 690.0 55.0" stroke="#0095FF" fill="none" stroke-width="2px" />
<path d="M 690.0 55.0 L 690.0 75.0" stroke="#0095FF" fill="none" stroke-width="2px" />
<path d="M 680.0 75.0 L 680.0 35.0" stroke="#0095FF" fill="none" stroke-width="2px" />
<path d="M 670.0 35.0 L 1050.0 35.0" stroke="#0095FF" fill="none" stroke-width="2px" />
<path d="M 1050.0 35.0 L 1050.0 145.0" stroke="#0095FF" fill="none" stroke-width="2px" />
<path d="M 1120.0 225.0 L 1150.0 225.0" stroke="#0095FF" fill="none" stroke-width="2px" />
<path d="M 1150.0 225.0 L 1150.0 175.0" stroke="#0095FF" fill="none" stroke-width="2px" />
<path d="M 1150.0 175.0 L 1140.0 175.0" stroke="#0095FF" fill="none" stroke-width="2px" />
<path d="M 1140.0 175.0 L 1140.0 155.0" stroke="#0095FF" fill="none" stroke-width="2px" />
<path d="M 1140.0 155.0 L 1100.0 155.0" stroke="#0095FF" fill="none" stroke-width="2px" />
<path d="M 1100.0 155.0 L 1100.0 135.0" stroke="#0095FF" fill="none" stroke-width="2px" />
<path d="M 1090.0 125.0 L 1220.0 125.0" stroke="#0095FF" fill="none" stroke-width="2px" />
<path d="M 1220.0 125.0 L 1220.0 65.0" stroke="#0095FF" fill="none" stroke-width="2px" />
<path d="M 1280.0 55.0 L 1280.0 35.0" stroke="#0095FF" fill="none" stroke-width="2px" />
<path d="M 1210.0 25.0 L 1210.0 5.0" stroke="#0095FF" fill="none" stroke-width="2px" />
<path d="M 1220.0 5.0 L 1230.0 5.0" stroke="#0095FF" fill="none" stroke-width="2px" />
<path d="M 1230.0 5.0 L 1230.0 75.0" stroke="#0095FF" fill="none" stroke-width="2px" />
<path d="M 2472.26666667 235.0 L 2140.0 235.0" stroke="#0095FF" fill="none" stroke-width="2px" />
<path d="M 2140.0 235.0 L 2140.0 95.0" stroke="#0095FF" fill="none" stroke-width="2px" />
<path d="M 2080.0 85.0 L 2080.0 105.0" stroke="#0095FF" fill="none" stroke-width="2px" />
<path d="M 2090.0 115.0 L 2090.0 45.0" stroke="#0095FF" fill="none" stroke-width="2px" />
<path d="M 2100.0 45.0 L 2130.0 45.0" stroke="#0095FF" fill="none" stroke-width="2px" />
<path d="M 2130.0 45.0 L 2150.0 45.0" stroke="#0095FF" fill="none" stroke-width="2px" />
<path d="M 2150.0 45.0 L 2150.0 35.0" stroke="#0095FF" fill="none" stroke-width="2px" />
<path d="M 2180.0 25.0 L 2170.0 25.0" stroke="#0095FF" fill="none" stroke-width="2px" />
<path d="M 2170.0 25.0 L 2170.0 5.0" stroke="#0095FF" fill="none" stroke-width="2px" />
<path d="M 2170.0 -5.0 L 2160.0 -5.0" stroke="#0095FF" fill="none" stroke-width="2px" />
<path d="M 2160.0 -5.0 L 2160.0 45.0" stroke="#0095FF" fill="none" stroke-width="2px" />
<path d="M 110.0 95.0 L 120.0 95.0" stroke="#FF0000" fill="none" stroke-width="4px" />
<path d="M 120.0 95.0 L 130.0 95.0" stroke="#FF0000" fill="none" stroke-width="4px" />
<path d="M 130.0 95.0 L 130.0 85.0" stroke="#FF0000" fill="none" stroke-width="4px" />
<path d="M 130.0 85.0 L 120.0 85.0" stroke="#FF0000" fill="none" stroke-width="4px" />
<path d="M 120.0 85.0 L 110.0 85.0" stroke="#FF0000" fill="none" stroke-width="4px" />
<path d="M 110.0 85.0 L 100.0 85.0" stroke="#FF0000" fill="none" stroke-width="4px" />
<path d="M 100.0 85.0 L 100.0 75.0" stroke="#FF0000" fill="none" stroke-width="4px" />
<path d="M 100.0 75.0 L 90.0 75.0" stroke="#FF0000" fill="none" stroke-width="4px" />
<path d="M 90.0 75.0 L 90.0 65.0" stroke="#FF0000" fill="none" stroke-width="4px" />
<path d="M 90.0 65.0 L 80.0 65.0" stroke="#FF0000" fill="none" stroke-width="4px" />
<path d="M 80.0 65.0 L 80.0 55.0" stroke="#FF0000" fill="none" stroke-width="4px" />
<path d="M 80.0 55.0 L 70.0 55.0" stroke="#FF0000" fill="none" stroke-width="4px" />
<path d="M 70.0 55.0 L 70.0 45.0" stroke="#FF0000" fill="none" stroke-width="4px" />
<path d="M 70.0 45.0 L 60.0 45.0" stroke="#FF0000" fill="none" stroke-width="4px" />
<path d="M 60.0 45.0 L 60.0 35.0" stroke="#FF0000" fill="none" stroke-width="4px" />
<path d="M 60.0 35.0 L 50.0 35.0" stroke="#FF0000" fill="none" stroke-width="4px" />
<path d="M 50.0 35.0 L 50.0 25.0" stroke="#FF0000" fill="none" stroke-width="4px" />
<path d="M 50.0 25.0 L 60.0 25.0" stroke="#FF0000" fill="none" stroke-width="4px" />
<path d="M 60.0 25.0 L 70.0 25.0" stroke="#FF0000" fill="none" stroke-width="4px" />
<path d="M 70.0 25.0 L 80.0 25.0" stroke="#FF0000" fill="none" stroke-width="4px" />
<path d="M 80.0 25.0 L 90.0 25.0" stroke="#FF0000" fill="none" stroke-width="4px" />
<path d="M 90.0 25.0 L 100.0 25.0" stroke="#FF0000" fill="none" stroke-width="4px" />
<path d="M 100.0 25.0 L 110.0 25.0" stroke="#FF0000" fill="none" stroke-width="4px" />
<path d="M 110.0 25.0 L 120.0 25.0" stroke="#FF0000" fill="none" stroke-width="4px" />
<path d="M 120.0 25.0 L 130.0 25.0" stroke="#FF0000" fill="none" stroke-width="4px" />
<path d="M 130.0 25.0 L 130.0 35.0" stroke="#FF0000" fill="none" stroke-width="4px" />
<path d="M 130.0 35.0 L 120.0 35.0" stroke="#FF0000" fill="none" stroke-width="4px" />
<path d="M 120.0 35.0 L 110.0 35.0" stroke="#FF0000" fill="none" stroke-width="4px" />
<path d="M 110.0 35.0 L 100.0 35.0" stroke="#FF0000" fill="none" stroke-width="4px" />
<path d="M 100.0 35.0 L 90.0 35.0" stroke="#FF0000" fill="none" stroke-width="4px" />
<path d="M 90.0 35.0 L 80.0 35.0" stroke="#FF0000" fill="none" stroke-width="4px" />
<path d="M 80.0 35.0 L 70.0 35.0" stroke="#FF0000" fill="none" stroke-width="4px" />
<path d="M 70.0 35.0 L 80.0 45.0" stroke="#FF0000" fill="none" stroke-width="4px" />
<path d="M 80.0 45.0 L 90.0 45.0" stroke="#FF0000" fill="none" stroke-width="4px" />
<path d="M 90.0 45.0 L 100.0 45.0" stroke="#FF0000" fill="none" stroke-width="4px" />
<path d="M 100.0 45.0 L 110.0 45.0" stroke="#FF0000" fill="none" stroke-width="4px" />
<path d="M 110.0 45.0 L 120.0 45.0" stroke="#FF0000" fill="none" stroke-width="4px" />
<path d="M 120.0 45.0 L 130.0 45.0" stroke="#FF0000" fill="none" stroke-width="4px" />
<path d="M 130.0 45.0 L 140.0 45.0" stroke="#FF0000" fill="none" stroke-width="4px" />
<path d="M 140.0 45.0 L 150.0 45.0" stroke="#FF0000" fill="none" stroke-width="4px" />
<path d="M 150.0 45.0 L 150.0 55.0" stroke="#FF0000" fill="none" stroke-width="4px" />
<path d="M 150.0 55.0 L 140.0 55.0" stroke="#FF0000" fill="none" stroke-width="4px" />
<path d="M 140.0 55.0 L 130.0 55.0" stroke="#FF0000" fill="none" stroke-width="4px" />
<path d="M 130.0 55.0 L 120.0 55.0" stroke="#FF0000" fill="none" stroke-width="4px" />
<path d="M 120.0 55.0 L 110.0 55.0" stroke="#FF0000" fill="none" stroke-width="4px" />
<path d="M 110.0 55.0 L 100.0 55.0" stroke="#FF0000" fill="none" stroke-width="4px" />
<path d="M 100.0 55.0 L 90.0 55.0" stroke="#FF0000" fill="none" stroke-width="4px" />
<path d="M 90.0 55.0 L 100.0 65.0" stroke="#FF0000" fill="none" stroke-width="4px" />
<path d="M 100.0 65.0 L 110.0 65.0" stroke="#FF0000" fill="none" stroke-width="4px" />
<path d="M 110.0 65.0 L 120.0 65.0" stroke="#FF0000" fill="none" stroke-width="4px" />
<path d="M 120.0 65.0 L 130.0 65.0" stroke="#FF0000" fill="none" stroke-width="4px" />
<path d="M 130.0 65.0 L 140.0 65.0" stroke="#FF0000" fill="none" stroke-width="4px" />
<path d="M 140.0 65.0 L 150.0 65.0" stroke="#FF0000" fill="none" stroke-width="4px" />
<path d="M 150.0 65.0 L 150.0 75.0" stroke="#FF0000" fill="none" stroke-width="4px" />
<path d="M 150.0 75.0 L 140.0 75.0" stroke="#FF0000" fill="none" stroke-width="4px" />
<path d="M 140.0 75.0 L 130.0 75.0" stroke="#FF0000" fill="none" stroke-width="4px" />
<path d="M 130.0 75.0 L 120.0 75.0" stroke="#FF0000" fill="none" stroke-width="4px" />
<path d="M 120.0 75.0 L 110.0 75.0" stroke="#FF0000" fill="none" stroke-width="4px" />
<path d="M 110.0 15.0 L 100.0 15.0" stroke="#FF0000" fill="none" stroke-width="4px" />
<path d="M 100.0 15.0 L 90.0 15.0" stroke="#FF0000" fill="none" stroke-width="4px" />
<path d="M 90.0 15.0 L 80.0 15.0" stroke="#FF0000" fill="none" stroke-width="4px" />
<path d="M 80.0 15.0 L 70.0 15.0" stroke="#FF0000" fill="none" stroke-width="4px" />
<path d="M 70.0 15.0 L 60.0 15.0" stroke="#FF0000" fill="none" stroke-width="4px" />
<path d="M 60.0 15.0 L 50.0 15.0" stroke="#FF0000" fill="none" stroke-width="4px" />
<path d="M 50.0 15.0 L 40.0 15.0" stroke="#FF0000" fill="none" stroke-width="4px" />
<path d="M 40.0 15.0 L 40.0 5.0" stroke="#FF0000" fill="none" stroke-width="4px" />
<path d="M 40.0 5.0 L 50.0 5.0" stroke="#FF0000" fill="none" stroke-width="4px" />
<path d="M 50.0 5.0 L 60.0 5.0" stroke="#FF0000" fill="none" stroke-width="4px" />
<path d="M 60.0 5.0 L 70.0 5.0" stroke="#FF0000" fill="none" stroke-width="4px" />
<path d="M 70.0 5.0 L 80.0 5.0" stroke="#FF0000" fill="none" stroke-width="4px" />
<path d="M 80.0 5.0 L 90.0 5.0" stroke="#FF0000" fill="none" stroke-width="4px" />
<path d="M 90.0 5.0 L 100.0 5.0" stroke="#FF0000" fill="none" stroke-width="4px" />
<path d="M 100.0 5.0 L 110.0 5.0" stroke="#FF0000" fill="none" stroke-width="4px" />
<path d="M 110.0 5.0 L 110.0 -5.0" stroke="#FF0000" fill="none" stroke-width="4px" />
<path d="M 110.0 -5.0 L 100.0 -5.0" stroke="#FF0000" fill="none" stroke-width="4px" />
<path d="M 100.0 -5.0 L 90.0 -5.0" stroke="#FF0000" fill="none" stroke-width="4px" />
<path d="M 90.0 -5.0 L 80.0 -5.0" stroke="#FF0000" fill="none" stroke-width="4px" />
<path d="M 80.0 -5.0 L 70.0 -5.0" stroke="#FF0000" fill="none" stroke-width="4px" />
<path d="M 70.0 -5.0 L 60.0 -5.0" stroke="#FF0000" fill="none" stroke-width="4px" />
<path d="M 60.0 -5.0 L 50.0 -5.0" stroke="#FF0000" fill="none" stroke-width="4px" />
<path d="M 370.0 25.0 L 380.0 25.0" stroke="#FF0000" fill="none" stroke-width="4px" />
<path d="M 380.0 25.0 L 390.0 25.0" stroke="#FF0000" fill="none" stroke-width="4px" />
<path d="M 390.0 25.0 L 400.0 25.0" stroke="#FF0000" fill="none" stroke-width="4px" />
<path d="M 400.0 25.0 L 410.0 25.0" stroke="#FF0000" fill="none" stroke-width="4px" />
<path d="M 410.0 25.0 L 420.0 25.0" stroke="#FF0000" fill="none" stroke-width="4px" />
<path d="M 420.0 25.0 L 430.0 25.0" stroke="#FF0000" fill="none" stroke-width="4px" />
<path d="M 430.0 25.0 L 430.0 35.0" stroke="#FF0000" fill="none" stroke-width="4px" />
<path d="M 430.0 35.0 L 420.0 35.0" stroke="#FF0000" fill="none" stroke-width="4px" />
<path d="M 420.0 35.0 L 410.0 35.0" stroke="#FF0000" fill="none" stroke-width="4px" />
<path d="M 410.0 35.0 L 400.0 35.0" stroke="#FF0000" fill="none" stroke-width="4px" />
<path d="M 400.0 35.0 L 390.0 35.0" stroke="#FF0000" fill="none" stroke-width="4px" />
<path d="M 390.0 35.0 L 380.0 35.0" stroke="#FF0000" fill="none" stroke-width="4px" />
<path d="M 380.0 35.0 L 370.0 35.0" stroke="#FF0000" fill="none" stroke-width="4px" />
<path d="M 370.0 35.0 L 380.0 45.0" stroke="#FF0000" fill="none" stroke-width="4px" />
<path d="M 380.0 45.0 L 390.0 45.0" stroke="#FF0000" fill="none" stroke-width="4px" />
<path d="M 390.0 45.0 L 400.0 45.0" stroke="#FF0000" fill="none" stroke-width="4px" />
<path d="M 400.0 45.0 L 410.0 45.0" stroke="#FF0000" fill="none" stroke-width="4px" />
<path d="M 410.0 45.0 L 420.0 45.0" stroke="#FF0000" fill="none" stroke-width="4px" />
<path d="M 420.0 45.0 L 430.0 45.0" stroke="#FF0000" fill="none" stroke-width="4px" />
<path d="M 430.0 45.0 L 440.0 45.0" stroke="#FF0000" fill="none" stroke-width="4px" />
<path d="M 440.0 45.0 L 450.0 45.0" stroke="#FF0000" fill="none" stroke-width="4px" />
<path d="M 450.0 45.0 L 450.0 55.0" stroke="#FF0000" fill="none" stroke-width="4px" />
<path d="M 450.0 55.0 L 440.0 55.0" stroke="#FF0000" fill="none" stroke-width="4px" />
<path d="M 440.0 55.0 L 430.0 55.0" stroke="#FF0000" fill="none" stroke-width="4px" />
<path d="M 430.0 55.0 L 420.0 55.0" stroke="#FF0000" fill="none" stroke-width="4px" />
<path d="M 420.0 55.0 L 410.0 55.0" stroke="#FF0000" fill="none" stroke-width="4px" />
<path d="M 410.0 55.0 L 400.0 55.0" stroke="#FF0000" fill="none" stroke-width="4px" />
<path d="M 400.0 55.0 L 390.0 55.0" stroke="#FF0000" fill="none" stroke-width="4px" />
<path d="M 390.0 55.0 L 380.0 55.0" stroke="#FF0000" fill="none" stroke-width="4px" />
<path d="M 380.0 55.0 L 390.0 65.0" stroke="#FF0000" fill="none" stroke-width="4px" />
<path d="M 390.0 65.0 L 400.0 65.0" stroke="#FF0000" fill="none" stroke-width="4px" />
<path d="M 400.0 65.0 L 410.0 65.0" stroke="#FF0000" fill="none" stroke-width="4px" />
<path d="M 410.0 65.0 L 420.0 65.0" stroke="#FF0000" fill="none" stroke-width="4px" />
<path d="M 420.0 65.0 L 430.0 65.0" stroke="#FF0000" fill="none" stroke-width="4px" />
<path d="M 430.0 65.0 L 440.0 65.0" stroke="#FF0000" fill="none" stroke-width="4px" />
<path d="M 440.0 65.0 L 450.0 65.0" stroke="#FF0000" fill="none" stroke-width="4px" />
<path d="M 450.0 65.0 L 440.0 75.0" stroke="#FF0000" fill="none" stroke-width="4px" />
<path d="M 440.0 75.0 L 430.0 75.0" stroke="#FF0000" fill="none" stroke-width="4px" />
<path d="M 430.0 75.0 L 420.0 75.0" stroke="#FF0000" fill="none" stroke-width="4px" />
<path d="M 420.0 75.0 L 410.0 75.0" stroke="#FF0000" fill="none" stroke-width="4px" />
<path d="M 410.0 75.0 L 400.0 75.0" stroke="#FF0000" fill="none" stroke-width="4px" />
<path d="M 400.0 75.0 L 410.0 85.0" stroke="#FF0000" fill="none" stroke-width="4px" />
<path d="M 410.0 85.0 L 420.0 85.0" stroke="#FF0000" fill="none" stroke-width="4px" />
<path d="M 420.0 85.0 L 430.0 85.0" stroke="#FF0000" fill="none" stroke-width="4px" />
<path d="M 420.0 15.0 L 410.0 15.0" stroke="#FF0000" fill="none" stroke-width="4px" />
<path d="M 410.0 15.0 L 400.0 15.0" stroke="#FF0000" fill="none" stroke-width="4px" />
<path d="M 400.0 15.0 L 390.0 15.0" stroke="#FF0000" fill="none" stroke-width="4px" />
<path d="M 390.0 15.0 L 380.0 15.0" stroke="#FF0000" fill="none" stroke-width="4px" />
<path d="M 380.0 15.0 L 390.0 5.0" stroke="#FF0000" fill="none" stroke-width="4px" />
<path d="M 660.0 45.0 L 670.0 45.0" stroke="#FF0000" fill="none" stroke-width="4px" />
<path d="M 670.0 45.0 L 680.0 45.0" stroke="#FF0000" fill="none" stroke-width="4px" />
<path d="M 680.0 45.0 L 690.0 45.0" stroke="#FF0000" fill="none" stroke-width="4px" />
<path d="M 690.0 45.0 L 690.0 55.0" stroke="#FF0000" fill="none" stroke-width="4px" />
<path d="M 690.0 55.0 L 680.0 55.0" stroke="#FF0000" fill="none" stroke-width="4px" />
<path d="M 680.0 55.0 L 670.0 55.0" stroke="#FF0000" fill="none" stroke-width="4px" />
<path d="M 670.0 55.0 L 660.0 55.0" stroke="#FF0000" fill="none" stroke-width="4px" />
<path d="M 660.0 55.0 L 670.0 65.0" stroke="#FF0000" fill="none" stroke-width="4px" />
<path d="M 670.0 65.0 L 680.0 65.0" stroke="#FF0000" fill="none" stroke-width="4px" />
<path d="M 680.0 65.0 L 690.0 65.0" stroke="#FF0000" fill="none" stroke-width="4px" />
<path d="M 690.0 65.0 L 700.0 65.0" stroke="#FF0000" fill="none" stroke-width="4px" />
<path d="M 700.0 65.0 L 700.0 55.0" stroke="#FF0000" fill="none" stroke-width="4px" />
<path d="M 690.0 75.0 L 680.0 75.0" stroke="#FF0000" fill="none" stroke-width="4px" />
<path d="M 680.0 35.0 L 670.0 35.0" stroke="#FF0000" fill="none" stroke-width="4px" />
<path d="M 1050.0 145.0 L 1060.0 145.0" stroke="#FF0000" fill="none" stroke-width="4px" />
<path d="M 1060.0 145.0 L 1070.0 145.0" stroke="#FF0000" fill="none" stroke-width="4px" />
<path d="M 1070.0 145.0 L 1080.0 145.0" stroke="#FF0000" fill="none" stroke-width="4px" />
<path d="M 1080.0 145.0 L 1090.0 145.0" stroke="#FF0000" fill="none" stroke-width="4px" />
<path d="M 1090.0 145.0 L 1100.0 145.0" stroke="#FF0000" fill="none" stroke-width="4px" />
<path d="M 1100.0 145.0 L 1110.0 145.0" stroke="#FF0000" fill="none" stroke-width="4px" />
<path d="M 1110.0 145.0 L 1120.0 145.0" stroke="#FF0000" fill="none" stroke-width="4px" />
<path d="M 1120.0 145.0 L 1130.0 145.0" stroke="#FF0000" fill="none" stroke-width="4px" />
<path d="M 1130.0 145.0 L 1130.0 155.0" stroke="#FF0000" fill="none" stroke-width="4px" />
<path d="M 1130.0 155.0 L 1120.0 155.0" stroke="#FF0000" fill="none" stroke-width="4px" />
<path d="M 1120.0 155.0 L 1110.0 155.0" stroke="#FF0000" fill="none" stroke-width="4px" />
<path d="M 1110.0 155.0 L 1100.0 155.0" stroke="#FF0000" fill="none" stroke-width="4px" />
<path d="M 1100.0 155.0 L 1090.0 155.0" stroke="#FF0000" fill="none" stroke-width="4px" />
<path d="M 1090.0 155.0 L 1080.0 155.0" stroke="#FF0000" fill="none" stroke-width="4px" />
<path d="M 1080.0 155.0 L 1070.0 155.0" stroke="#FF0000" fill="none" stroke-width="4px" />
<path d="M 1070.0 155.0 L 1060.0 155.0" stroke="#FF0000" fill="none" stroke-width="4px" />
<path d="M 1060.0 155.0 L 1050.0 155.0" stroke="#FF0000" fill="none" stroke-width="4px" />
<path d="M 1050.0 155.0 L 1060.0 165.0" stroke="#FF0000" fill="none" stroke-width="4px" />
<path d="M 1060.0 165.0 L 1070.0 165.0" stroke="#FF0000" fill="none" stroke-width="4px" />
<path d="M 1070.0 165.0 L 1080.0 165.0" stroke="#FF0000" fill="none" stroke-width="4px" />
<path d="M 1080.0 165.0 L 1090.0 165.0" stroke="#FF0000" fill="none" stroke-width="4px" />
<path d="M 1090.0 165.0 L 1100.0 165.0" stroke="#FF0000" fill="none" stroke-width="4px" />
<path d="M 1100.0 165.0 L 1110.0 165.0" stroke="#FF0000" fill="none" stroke-width="4px" />
<path d="M 1110.0 165.0 L 1120.0 165.0" stroke="#FF0000" fill="none" stroke-width="4px" />
<path d="M 1120.0 165.0 L 1130.0 165.0" stroke="#FF0000" fill="none" stroke-width="4px" />
<path d="M 1130.0 165.0 L 1140.0 165.0" stroke="#FF0000" fill="none" stroke-width="4px" />
<path d="M 1140.0 165.0 L 1140.0 175.0" stroke="#FF0000" fill="none" stroke-width="4px" />
<path d="M 1140.0 175.0 L 1130.0 175.0" stroke="#FF0000" fill="none" stroke-width="4px" />
<path d="M 1130.0 175.0 L 1120.0 175.0" stroke="#FF0000" fill="none" stroke-width="4px" />
<path d="M 1120.0 175.0 L 1110.0 175.0" stroke="#FF0000" fill="none" stroke-width="4px" />
<path d="M 1110.0 175.0 L 1100.0 175.0" stroke="#FF0000" fill="none" stroke-width="4px" />
<path d="M 1100.0 175.0 L 1090.0 175.0" stroke="#FF0000" fill="none" stroke-width="4px" />
<path d="M 1090.0 175.0 L 1080.0 175.0" stroke="#FF0000" fill="none" stroke-width="4px" />
<path d="M 1080.0 175.0 L 1070.0 175.0" stroke="#FF0000" fill="none" stroke-width="4px" />
<path d="M 1070.0 175.0 L 1070.0 185.0" stroke="#FF0000" fill="none" stroke-width="4px" />
<path d="M 1070.0 185.0 L 1080.0 185.0" stroke="#FF0000" fill="none" stroke-width="4px" />
<path d="M 1080.0 185.0 L 1090.0 185.0" stroke="#FF0000" fill="none" stroke-width="4px" />
<path d="M 1090.0 185.0 L 1100.0 185.0" stroke="#FF0000" fill="none" stroke-width="4px" />
<path d="M 1100.0 185.0 L 1110.0 185.0" stroke="#FF0000" fill="none" stroke-width="4px" />
<path d="M 1110.0 185.0 L 1120.0 185.0" stroke="#FF0000" fill="none" stroke-width="4px" />
<path d="M 1120.0 185.0 L 1130.0 185.0" stroke="#FF0000" fill="none" stroke-width="4px" />
<path d="M 1130.0 185.0 L 1140.0 185.0" stroke="#FF0000" fill="none" stroke-width="4px" />
<path d="M 1140.0 185.0 L 1140.0 195.0" stroke="#FF0000" fill="none" stroke-width="4px" />
<path d="M 1140.0 195.0 L 1130.0 195.0" stroke="#FF0000" fill="none" stroke-width="4px" />
<path d="M 1130.0 195.0 L 1120.0 195.0" stroke="#FF0000" fill="none" stroke-width="4px" />
<path d="M 1120.0 195.0 L 1110.0 195.0" stroke="#FF0000" fill="none" stroke-width="4px" />
<path d="M 1110.0 195.0 L 1100.0 195.0" stroke="#FF0000" fill="none" stroke-width="4px" />
<path d="M 1100.0 195.0 L 1090.0 195.0" stroke="#FF0000" fill="none" stroke-width="4px" />
<path d="M 1090.0 195.0 L 1080.0 195.0" stroke="#FF0000" fill="none" stroke-width="4px" />
<path d="M 1080.0 195.0 L 1070.0 195.0" stroke="#FF0000" fill="none" stroke-width="4px" />
<path d="M 1070.0 195.0 L 1070.0 205.0" stroke="#FF0000" fill="none" stroke-width="4px" />
<path d="M 1070.0 205.0 L 1080.0 205.0" stroke="#FF0000" fill="none" stroke-width="4px" />
<path d="M 1080.0 205.0 L 1090.0 205.0" stroke="#FF0000" fill="none" stroke-width="4px" />
<path d="M 1090.0 205.0 L 1100.0 205.0" stroke="#FF0000" fill="none" stroke-width="4px" />
<path d="M 1100.0 205.0 L 1110.0 205.0" stroke="#FF0000" fill="none" stroke-width="4px" />
<path d="M 1110.0 205.0 L 1120.0 205.0" stroke="#FF0000" fill="none" stroke-width="4px" />
<path d="M 1120.0 205.0 L 1130.0 205.0" stroke="#FF0000" fill="none" stroke-width="4px" />
<path d="M 1130.0 205.0 L 1140.0 205.0" stroke="#FF0000" fill="none" stroke-width="4px" />
<path d="M 1140.0 205.0 L 1130.0 215.0" stroke="#FF0000" fill="none" stroke-width="4px" />
<path d="M 1130.0 215.0 L 1120.0 215.0" stroke="#FF0000" fill="none" stroke-width="4px" />
<path d="M 1120.0 215.0 L 1110.0 215.0" stroke="#FF0000" fill="none" stroke-width="4px" />
<path d="M 1110.0 215.0 L 1100.0 215.0" stroke="#FF0000" fill="none" stroke-width="4px" />
<path d="M 1100.0 215.0 L 1090.0 215.0" stroke="#FF0000" fill="none" stroke-width="4px" />
<path d="M 1090.0 215.0 L 1080.0 215.0" stroke="#FF0000" fill="none" stroke-width="4px" />
<path d="M 1080.0 215.0 L 1090.0 225.0" stroke="#FF0000" fill="none" stroke-width="4px" />
<path d="M 1090.0 225.0 L 1100.0 225.0" stroke="#FF0000" fill="none" stroke-width="4px" />
<path d="M 1100.0 225.0 L 1110.0 225.0" stroke="#FF0000" fill="none" stroke-width="4px" />
<path d="M 1110.0 225.0 L 1120.0 225.0" stroke="#FF0000" fill="none" stroke-width="4px" />
<path d="M 1100.0 135.0 L 1090.0 135.0" stroke="#FF0000" fill="none" stroke-width="4px" />
<path d="M 1090.0 135.0 L 1080.0 135.0" stroke="#FF0000" fill="none" stroke-width="4px" />
<path d="M 1080.0 135.0 L 1070.0 135.0" stroke="#FF0000" fill="none" stroke-width="4px" />
<path d="M 1070.0 135.0 L 1060.0 135.0" stroke="#FF0000" fill="none" stroke-width="4px" />
<path d="M 1060.0 135.0 L 1070.0 125.0" stroke="#FF0000" fill="none" stroke-width="4px" />
<path d="M 1070.0 125.0 L 1080.0 125.0" stroke="#FF0000" fill="none" stroke-width="4px" />
<path d="M 1080.0 125.0 L 1090.0 125.0" stroke="#FF0000" fill="none" stroke-width="4px" />
<path d="M 1220.0 65.0 L 1230.0 65.0" stroke="#FF0000" fill="none" stroke-width="4px" />
<path d="M 1230.0 65.0 L 1240.0 65.0" stroke="#FF0000" fill="none" stroke-width="4px" />
<path d="M 1240.0 65.0 L 1250.0 65.0" stroke="#FF0000" fill="none" stroke-width="4px" />
<path d="M 1250.0 65.0 L 1260.0 65.0" stroke="#FF0000" fill="none" stroke-width="4px" />
<path d="M 1260.0 65.0 L 1270.0 65.0" stroke="#FF0000" fill="none" stroke-width="4px" />
<path d="M 1270.0 65.0 L 1270.0 55.0" stroke="#FF0000" fill="none" stroke-width="4px" />
<path d="M 1270.0 55.0 L 1260.0 55.0" stroke="#FF0000" fill="none" stroke-width="4px" />
<path d="M 1260.0 55.0 L 1250.0 55.0" stroke="#FF0000" fill="none" stroke-width="4px" />
<path d="M 1250.0 55.0 L 1240.0 55.0" stroke="#FF0000" fill="none" stroke-width="4px" />
<path d="M 1240.0 55.0 L 1230.0 55.0" stroke="#FF0000" fill="none" stroke-width="4px" />
<path d="M 1230.0 55.0 L 1220.0 55.0" stroke="#FF0000" fill="none" stroke-width="4px" />
<path d="M 1220.0 55.0 L 1210.0 55.0" stroke="#FF0000" fill="none" stroke-width="4px" />
<path d="M 1210.0 55.0 L 1210.0 45.0" stroke="#FF0000" fill="none" stroke-width="4px" />
<path d="M 1210.0 45.0 L 1220.0 45.0" stroke="#FF0000" fill="none" stroke-width="4px" />
<path d="M 1220.0 45.0 L 1230.0 45.0" stroke="#FF0000" fill="none" stroke-width="4px" />
<path d="M 1230.0 45.0 L 1240.0 45.0" stroke="#FF0000" fill="none" stroke-width="4px" />
<path d="M 1240.0 45.0 L 1250.0 45.0" stroke="#FF0000" fill="none" stroke-width="4px" />
<path d="M 1250.0 45.0 L 1260.0 45.0" stroke="#FF0000" fill="none" stroke-width="4px" />
<path d="M 1260.0 45.0 L 1270.0 45.0" stroke="#FF0000" fill="none" stroke-width="4px" />
<path d="M 1270.0 45.0 L 1280.0 45.0" stroke="#FF0000" fill="none" stroke-width="4px" />
<path d="M 1280.0 45.0 L 1280.0 55.0" stroke="#FF0000" fill="none" stroke-width="4px" />
<path d="M 1280.0 35.0 L 1270.0 35.0" stroke="#FF0000" fill="none" stroke-width="4px" />
<path d="M 1270.0 35.0 L 1260.0 35.0" stroke="#FF0000" fill="none" stroke-width="4px" />
<path d="M 1260.0 35.0 L 1250.0 35.0" stroke="#FF0000" fill="none" stroke-width="4px" />
<path d="M 1250.0 35.0 L 1240.0 35.0" stroke="#FF0000" fill="none" stroke-width="4px" />
<path d="M 1240.0 35.0 L 1230.0 35.0" stroke="#FF0000" fill="none" stroke-width="4px" />
<path d="M 1230.0 35.0 L 1220.0 35.0" stroke="#FF0000" fill="none" stroke-width="4px" />
<path d="M 1220.0 35.0 L 1210.0 35.0" stroke="#FF0000" fill="none" stroke-width="4px" />
<path d="M 1210.0 35.0 L 1200.0 35.0" stroke="#FF0000" fill="none" stroke-width="4px" />
<path d="M 1200.0 35.0 L 1200.0 25.0" stroke="#FF0000" fill="none" stroke-width="4px" />
<path d="M 1200.0 25.0 L 1190.0 25.0" stroke="#FF0000" fill="none" stroke-width="4px" />
<path d="M 1190.0 25.0 L 1190.0 15.0" stroke="#FF0000" fill="none" stroke-width="4px" />
<path d="M 1190.0 15.0 L 1200.0 15.0" stroke="#FF0000" fill="none" stroke-width="4px" />
<path d="M 1200.0 15.0 L 1210.0 15.0" stroke="#FF0000" fill="none" stroke-width="4px" />
<path d="M 1210.0 15.0 L 1220.0 15.0" stroke="#FF0000" fill="none" stroke-width="4px" />
<path d="M 1220.0 15.0 L 1230.0 15.0" stroke="#FF0000" fill="none" stroke-width="4px" />
<path d="M 1230.0 15.0 L 1240.0 15.0" stroke="#FF0000" fill="none" stroke-width="4px" />
<path d="M 1240.0 15.0 L 1250.0 15.0" stroke="#FF0000" fill="none" stroke-width="4px" />
<path d="M 1250.0 15.0 L 1260.0 15.0" stroke="#FF0000" fill="none" stroke-width="4px" />
<path d="M 1260.0 15.0 L 1270.0 15.0" stroke="#FF0000" fill="none" stroke-width="4px" />
<path d="M 1270.0 15.0 L 1280.0 15.0" stroke="#FF0000" fill="none" stroke-width="4px" />
<path d="M 1280.0 15.0 L 1280.0 25.0" stroke="#FF0000" fill="none" stroke-width="4px" />
<path d="M 1280.0 25.0 L 1270.0 25.0" stroke="#FF0000" fill="none" stroke-width="4px" />
<path d="M 1270.0 25.0 L 1260.0 25.0" stroke="#FF0000" fill="none" stroke-width="4px" />
<path d="M 1260.0 25.0 L 1250.0 25.0" stroke="#FF0000" fill="none" stroke-width="4px" />
<path d="M 1250.0 25.0 L 1240.0 25.0" stroke="#FF0000" fill="none" stroke-width="4px" />
<path d="M 1240.0 25.0 L 1230.0 25.0" stroke="#FF0000" fill="none" stroke-width="4px" />
<path d="M 1230.0 25.0 L 1220.0 25.0" stroke="#FF0000" fill="none" stroke-width="4px" />
<path d="M 1220.0 25.0 L 1210.0 25.0" stroke="#FF0000" fill="none" stroke-width="4px" />
<path d="M 1210.0 5.0 L 1200.0 5.0" stroke="#FF0000" fill="none" stroke-width="4px" />
<path d="M 1200.0 5.0 L 1190.0 5.0" stroke="#FF0000" fill="none" stroke-width="4px" />
<path d="M 1190.0 5.0 L 1200.0 -5.0" stroke="#FF0000" fill="none" stroke-width="4px" />
<path d="M 1200.0 -5.0 L 1210.0 -5.0" stroke="#FF0000" fill="none" stroke-width="4px" />
<path d="M 1210.0 -5.0 L 1220.0 -5.0" stroke="#FF0000" fill="none" stroke-width="4px" />
<path d="M 1220.0 -5.0 L 1230.0 -5.0" stroke="#FF0000" fill="none" stroke-width="4px" />
<path d="M 1230.0 -5.0 L 1240.0 -5.0" stroke="#FF0000" fill="none" stroke-width="4px" />
<path d="M 1240.0 -5.0 L 1250.0 -5.0" stroke="#FF0000" fill="none" stroke-width="4px" />
<path d="M 1250.0 -5.0 L 1260.0 -5.0" stroke="#FF0000" fill="none" stroke-width="4px" />
<path d="M 1260.0 -5.0 L 1270.0 -5.0" stroke="#FF0000" fill="none" stroke-width="4px" />
<path d="M 1270.0 -5.0 L 1270.0 5.0" stroke="#FF0000" fill="none" stroke-width="4px" />
<path d="M 1270.0 5.0 L 1260.0 5.0" stroke="#FF0000" fill="none" stroke-width="4px" />
<path d="M 1260.0 5.0 L 1250.0 5.0" stroke="#FF0000" fill="none" stroke-width="4px" />
<path d="M 1250.0 5.0 L 1240.0 5.0" stroke="#FF0000" fill="none" stroke-width="4px" />
<path d="M 1240.0 5.0 L 1230.0 5.0" stroke="#FF0000" fill="none" stroke-width="4px" />
<path d="M 1230.0 5.0 L 1220.0 5.0" stroke="#FF0000" fill="none" stroke-width="4px" />
<path d="M 1230.0 75.0 L 1240.0 75.0" stroke="#FF0000" fill="none" stroke-width="4px" />
<path d="M 1240.0 75.0 L 1250.0 75.0" stroke="#FF0000" fill="none" stroke-width="4px" />
<path d="M 1250.0 75.0 L 1260.0 75.0" stroke="#FF0000" fill="none" stroke-width="4px" />
<path d="M 2140.0 95.0 L 2130.0 95.0" stroke="#FF0000" fill="none" stroke-width="4px" />
<path d="M 2130.0 95.0 L 2120.0 95.0" stroke="#FF0000" fill="none" stroke-width="4px" />
<path d="M 2120.0 95.0 L 2110.0 95.0" stroke="#FF0000" fill="none" stroke-width="4px" />
<path d="M 2110.0 95.0 L 2100.0 95.0" stroke="#FF0000" fill="none" stroke-width="4px" />
<path d="M 2100.0 95.0 L 2090.0 95.0" stroke="#FF0000" fill="none" stroke-width="4px" />
<path d="M 2090.0 95.0 L 2080.0 95.0" stroke="#FF0000" fill="none" stroke-width="4px" />
<path d="M 2080.0 95.0 L 2070.0 95.0" stroke="#FF0000" fill="none" stroke-width="4px" />
<path d="M 2070.0 95.0 L 2070.0 85.0" stroke="#FF0000" fill="none" stroke-width="4px" />
<path d="M 2070.0 85.0 L 2060.0 85.0" stroke="#FF0000" fill="none" stroke-width="4px" />
<path d="M 2060.0 85.0 L 2060.0 75.0" stroke="#FF0000" fill="none" stroke-width="4px" />
<path d="M 2060.0 75.0 L 2050.0 75.0" stroke="#FF0000" fill="none" stroke-width="4px" />
<path d="M 2050.0 75.0 L 2050.0 65.0" stroke="#FF0000" fill="none" stroke-width="4px" />
<path d="M 2050.0 65.0 L 2040.0 65.0" stroke="#FF0000" fill="none" stroke-width="4px" />
<path d="M 2040.0 65.0 L 2040.0 55.0" stroke="#FF0000" fill="none" stroke-width="4px" />
<path d="M 2040.0 55.0 L 2050.0 55.0" stroke="#FF0000" fill="none" stroke-width="4px" />
<path d="M 2050.0 55.0 L 2060.0 55.0" stroke="#FF0000" fill="none" stroke-width="4px" />
<path d="M 2060.0 55.0 L 2070.0 55.0" stroke="#FF0000" fill="none" stroke-width="4px" />
<path d="M 2070.0 55.0 L 2080.0 55.0" stroke="#FF0000" fill="none" stroke-width="4px" />
<path d="M 2080.0 55.0 L 2090.0 55.0" stroke="#FF0000" fill="none" stroke-width="4px" />
<path d="M 2090.0 55.0 L 2100.0 55.0" stroke="#FF0000" fill="none" stroke-width="4px" />
<path d="M 2100.0 55.0 L 2110.0 55.0" stroke="#FF0000" fill="none" stroke-width="4px" />
<path d="M 2110.0 55.0 L 2120.0 55.0" stroke="#FF0000" fill="none" stroke-width="4px" />
<path d="M 2120.0 55.0 L 2130.0 55.0" stroke="#FF0000" fill="none" stroke-width="4px" />
<path d="M 2130.0 55.0 L 2140.0 55.0" stroke="#FF0000" fill="none" stroke-width="4px" />
<path d="M 2140.0 55.0 L 2140.0 65.0" stroke="#FF0000" fill="none" stroke-width="4px" />
<path d="M 2140.0 65.0 L 2130.0 65.0" stroke="#FF0000" fill="none" stroke-width="4px" />
<path d="M 2130.0 65.0 L 2120.0 65.0" stroke="#FF0000" fill="none" stroke-width="4px" />
<path d="M 2120.0 65.0 L 2110.0 65.0" stroke="#FF0000" fill="none" stroke-width="4px" />
<path d="M 2110.0 65.0 L 2100.0 65.0" stroke="#FF0000" fill="none" stroke-width="4px" />
<path d="M 2100.0 65.0 L 2090.0 65.0" stroke="#FF0000" fill="none" stroke-width="4px" />
<path d="M 2090.0 65.0 L 2080.0 65.0" stroke="#FF0000" fill="none" stroke-width="4px" />
<path d="M 2080.0 65.0 L 2070.0 65.0" stroke="#FF0000" fill="none" stroke-width="4px" />
<path d="M 2070.0 65.0 L 2060.0 65.0" stroke="#FF0000" fill="none" stroke-width="4px" />
<path d="M 2060.0 65.0 L 2070.0 75.0" stroke="#FF0000" fill="none" stroke-width="4px" />
<path d="M 2070.0 75.0 L 2080.0 75.0" stroke="#FF0000" fill="none" stroke-width="4px" />
<path d="M 2080.0 75.0 L 2090.0 75.0" stroke="#FF0000" fill="none" stroke-width="4px" />
<path d="M 2090.0 75.0 L 2100.0 75.0" stroke="#FF0000" fill="none" stroke-width="4px" />
<path d="M 2100.0 75.0 L 2110.0 75.0" stroke="#FF0000" fill="none" stroke-width="4px" />
<path d="M 2110.0 75.0 L 2120.0 75.0" stroke="#FF0000" fill="none" stroke-width="4px" />
<path d="M 2120.0 75.0 L 2130.0 75.0" stroke="#FF0000" fill="none" stroke-width="4px" />
<path d="M 2130.0 75.0 L 2140.0 75.0" stroke="#FF0000" fill="none" stroke-width="4px" />
<path d="M 2140.0 75.0 L 2140.0 85.0" stroke="#FF0000" fill="none" stroke-width="4px" />
<path d="M 2140.0 85.0 L 2130.0 85.0" stroke="#FF0000" fill="none" stroke-width="4px" />
<path d="M 2130.0 85.0 L 2120.0 85.0" stroke="#FF0000" fill="none" stroke-width="4px" />
<path d="M 2120.0 85.0 L 2110.0 85.0" stroke="#FF0000" fill="none" stroke-width="4px" />
<path d="M 2110.0 85.0 L 2100.0 85.0" stroke="#FF0000" fill="none" stroke-width="4px" />
<path d="M 2100.0 85.0 L 2090.0 85.0" stroke="#FF0000" fill="none" stroke-width="4px" />
<path d="M 2090.0 85.0 L 2080.0 85.0" stroke="#FF0000" fill="none" stroke-width="4px" />
<path d="M 2080.0 105.0 L 2090.0 105.0" stroke="#FF0000" fill="none" stroke-width="4px" />
<path d="M 2090.0 105.0 L 2100.0 105.0" stroke="#FF0000" fill="none" stroke-width="4px" />
<path d="M 2100.0 105.0 L 2110.0 105.0" stroke="#FF0000" fill="none" stroke-width="4px" />
<path d="M 2110.0 105.0 L 2120.0 105.0" stroke="#FF0000" fill="none" stroke-width="4px" />
<path d="M 2120.0 105.0 L 2130.0 105.0" stroke="#FF0000" fill="none" stroke-width="4px" />
<path d="M 2130.0 105.0 L 2120.0 115.0" stroke="#FF0000" fill="none" stroke-width="4px" />
<path d="M 2120.0 115.0 L 2110.0 115.0" stroke="#FF0000" fill="none" stroke-width="4px" />
<path d="M 2110.0 115.0 L 2100.0 115.0" stroke="#FF0000" fill="none" stroke-width="4px" />
<path d="M 2100.0 115.0 L 2090.0 115.0" stroke="#FF0000" fill="none" stroke-width="4px" />
<path d="M 2090.0 45.0 L 2080.0 45.0" stroke="#FF0000" fill="none" stroke-width="4px" />
<path d="M 2080.0 45.0 L 2070.0 45.0" stroke="#FF0000" fill="none" stroke-width="4px" />
<path d="M 2070.0 45.0 L 2060.0 45.0" stroke="#FF0000" fill="none" stroke-width="4px" />
<path d="M 2060.0 45.0 L 2050.0 45.0" stroke="#FF0000" fill="none" stroke-width="4px" />
<path d="M 2050.0 45.0 L 2060.0 35.0" stroke="#FF0000" fill="none" stroke-width="4px" />
<path d="M 2060.0 35.0 L 2070.0 35.0" stroke="#FF0000" fill="none" stroke-width="4px" />
<path d="M 2070.0 35.0 L 2080.0 35.0" stroke="#FF0000" fill="none" stroke-width="4px" />
<path d="M 2080.0 35.0 L 2090.0 35.0" stroke="#FF0000" fill="none" stroke-width="4px" />
<path d="M 2090.0 35.0 L 2100.0 35.0" stroke="#FF0000" fill="none" stroke-width="4px" />
<path d="M 2100.0 35.0 L 2110.0 35.0" stroke="#FF0000" fill="none" stroke-width="4px" />
<path d="M 2110.0 35.0 L 2120.0 35.0" stroke="#FF0000" fill="none" stroke-width="4px" />
<path d="M 2120.0 35.0 L 2120.0 45.0" stroke="#FF0000" fill="none" stroke-width="4px" />
<path d="M 2120.0 45.0 L 2110.0 45.0" stroke="#FF0000" fill="none" stroke-width="4px" />
<path d="M 2110.0 45.0 L 2100.0 45.0" stroke="#FF0000" fill="none" stroke-width="4px" />
<path d="M 2150.0 35.0 L 2160.0 35.0" stroke="#FF0000" fill="none" stroke-width="4px" />
<path d="M 2160.0 35.0 L 2170.0 35.0" stroke="#FF0000" fill="none" stroke-width="4px" />
<path d="M 2170.0 35.0 L 2170.0 25.0" stroke="#FF0000" fill="none" stroke-width="4px" />
<path d="M 2170.0 25.0 L 2160.0 25.0" stroke="#FF0000" fill="none" stroke-width="4px" />
<path d="M 2160.0 25.0 L 2150.0 25.0" stroke="#FF0000" fill="none" stroke-width="4px" />
<path d="M 2150.0 25.0 L 2140.0 25.0" stroke="#FF0000" fill="none" stroke-width="4px" />
<path d="M 2140.0 25.0 L 2150.0 15.0" stroke="#FF0000" fill="none" stroke-width="4px" />
<path d="M 2150.0 15.0 L 2160.0 15.0" stroke="#FF0000" fill="none" stroke-width="4px" />
<path d="M 2160.0 15.0 L 2170.0 15.0" stroke="#FF0000" fill="none" stroke-width="4px" />
<path d="M 2170.0 15.0 L 2180.0 15.0" stroke="#FF0000" fill="none" stroke-width="4px" />
<path d="M 2180.0 15.0 L 2180.0 25.0" stroke="#FF0000" fill="none" stroke-width="4px" />
<path d="M 2170.0 5.0 L 2160.0 5.0" stroke="#FF0000" fill="none" stroke-width="4px" />
<path d="M 2160.0 5.0 L 2150.0 5.0" stroke="#FF0000" fill="none" stroke-width="4px" />
<path d="M 2150.0 5.0 L 2150.0 -5.0" stroke="#FF0000" fill="none" stroke-width="4px" />
<path d="M 2150.0 -5.0 L 2160.0 -5.0" stroke="#FF0000" fill="none" stroke-width="4px" />
<path d="M 2160.0 -5.0 L 2170.0 -5.0" stroke="#FF0000" fill="none" stroke-width="4px" />
</svg>