<svg width="1332.95833333" height="235.0" xmlns="http://www.w3.org/2000/svg" version="1.1">
<path d="M 0.0 235.0 L 1332.95833333 235.0 L 1332.95833333 0.0 L 0.0 0.0 L 0.0 235.0" stroke="#000000" fill="none" stroke-width="3px" />
<path d="M 10.0 257.5 L 0.0 247.5 L 10.0 237.5" stroke="#969696" fill="none" stroke-width="1px" />
<path d="M 10.0 237.5 L 1322.95833333 237.5" stroke="#969696" fill="none" stroke-width="1px" />
<path d="M 1322.95833333 237.5 L 1332.95833333 227.5 L 1322.95833333 217.5" stroke="#969696" fill="none" stroke-width="1px" />
<path d="M 1322.95833333 217.5 L 10.0 217.5" stroke="#969696" fill="none" stroke-width="1px" />
<path d="M 10.0 217.5 L 0.0 207.5 L 10.0 197.5" stroke="#969696" fill="none" stroke-width="1px" />
<path d="M 10.0 197.5 L 1322.95833333 197.5" stroke="#969696" fill="none" stroke-width="1px" />
<path d="M 1322.95833333 197.5 L 1332.95833333 187.5 L 1322.95833333 177.5" stroke="#969696" fill="none" stroke-width="1px" />
<path d="M 1322.95833333 177.5 L 10.0 177.5" stroke="#969696" fill="none" stroke-width="1px" />
<path d="M 10.0 177.5 L 0.0 167.5 L 10.0 157.5" stroke="#969696" fill="none" stroke-width="1px" />
<path d="M 10.0 157.5 L 1322.95833333 157.5" stroke="#969696" fill="none" stroke-width="1px" />
<path d="M 1322.95833333 157.5 L 1332.95833333 147.5 L 1322.95833333 137.5" stroke="#969696" fill="none" stroke-width="1px" />
<path d="M 1322.95833333 137.5 L 10.0 137.5" stroke="#969696" fill="none" stroke-width="1px" />
<path d="M 10.0 137.5 L 0.0 127.5 L 10.0 117.5" stroke="#969696" fill="none" stroke-width="1px" />
<path d="M 10.0 117.5 L 1322.95833333 117.5" stroke="#969696" fill="none" stroke-width="1px" />
<path d="M 1322.95833333 117.5 L 1332.95833333 107.5 L 1322.95833333 97.5" stroke="#969696" fill="none" stroke-width="1px" />
<path d="M 1322.95833333 97.5 L 10.0 97.5" stroke="#969696" fill="none" stroke-width="1px" />
<path d="M 10.0 97.5 L 0.0 87.5 L 10.0 77.5" stroke="#969696" fill="none" stroke-width="1px" />
<path d="M 10.0 77.5 L 1322.95833333 77.5" stroke="#969696" fill="none" stroke-width="1px" />
<path d="M 1322.95833333 77.5 L 1332.95833333 67.5 L 1322.95833333 57.5" stroke="#969696" fill="none" stroke-width="1px" />
<path d="M 1322.95833333 57.5 L 10.0 57.5" stroke="#969696" fill="none" stroke-width="1px" />
<path d="M 10.0 57.5 L 0.0 47.5 L 10.0 37.5" stroke="#969696" fill="none" stroke-width="1px" />
<path d="M 10.0 37.5 L 1322.95833333 37.5" stroke="#969696" fill="none" stroke-width="1px" />
<path d="M 1322.95833333 37.5 L 1332.95833333 27.5 L 1322.95833333 17.5" stroke="#969696" fill="none" stroke-width="1px" />
<path d="M 1322.95833333 17.5 L 10.0 17.5" stroke="#969696" fill="none" stroke-width="1px" />
<path d="M 10.0 17.5 L 0.0 7.5 L 10.0 -2.5" stroke="#969696" fill="none" stroke-width="1px" />
<path d="M 10.0 -2.5 L 1322.95833333 -2.5" stroke="#969696" fill="none" stroke-width="1px" />
<path d="M 1322.95833333 -2.5 L 1332.95833333 -12.5 L 1322.95833333 -22.5" stroke="#969696" fill="none" stroke-width="1px" />
<path d="M 0.0 235.0 L 197.041666666 235.0" stroke="#0095FF" fill="none" stroke-width="2px" />
<path d="M 197.041666666 235.0 L 197.041666666 105.0" stroke="#0095FF" fill="none" stroke-width="2px" />
<path d="M 197.041666666 85.0 L 197.041666666 65.0" stroke="#0095FF" fill="none" stroke-width="2px" />
<path d="M 227.041666666 65.0 L 207.041666666 65.0" stroke="#0095FF" fill="none" stroke-width="2px" />
<path d="M 207.041666666 65.0 L 207.041666666 45.0" stroke="#0095FF" fill="none" stroke-width="2px" />
<path d="M 197.041666666 45.0 L 227.041666666 45.0" stroke="#0095FF" fill="none" stroke-width="2px" />
<path d="M 227.041666666 45.0 L 227.041666666 95.0" stroke="#0095FF" fill="none" stroke-width="2px" />
<path d="M 227.041666666 95.0 L 337.041666666 95.0" stroke="#0095FF" fill="none" stroke-width="2px" />
<path d="M 337.041666666 95.0 L 337.041666666 55.0" stroke="#0095FF" fill="none" stroke-width="2px" />
<path d="M 397.041666666 65.0 L 387.041666666 65.0" stroke="#0095FF" fill="none" stroke-width="2px" />
<path d="M 387.041666666 65.0 L 387.041666666 85.0" stroke="#0095FF" fill="none" stroke-width="2px" />
<path d="M 377.041666666 95.0 L 377.041666666 45.0" stroke="#0095FF" fill="none" stroke-width="2px" />
<path d="M 387.041666666 45.0 L 367.041666666 45.0" stroke="#0095FF" fill="none" stroke-width="2px" />
<path d="M 367.041666666 45.0 L 367.041666666 25.0" stroke="#0095FF" fill="none" stroke-width="2px" />
<path d="M 347.041666666 25.0 L 557.041666666 25.0" stroke="#0095FF" fill="none" stroke-width="2px" />
<path d="M 557.041666666 25.0 L 557.041666666 65.0" stroke="#0095FF" fill="none" stroke-width="2px" />
<path d="M 607.041666666 105.0 L 607.041666666 55.0" stroke="#0095FF" fill="none" stroke-width="2px" />
<path d="M 617.041666666 55.0 L 997.041666666 55.0" stroke="#0095FF" fill="none" stroke-width="2px" />
<path d="M 997.041666666 55.0 L 997.041666666 45.0" stroke="#0095FF" fill="none" stroke-width="2px" />
<path d="M 1057.04166667 115.0 L 1087.04166667 115.0" stroke="#0095FF" fill="none" stroke-width="2px" />
<path d="M 1087.04166667 115.0 L 1087.04166667 75.0" stroke="#0095FF" fill="none" stroke-width="2px" />
<path d="M 1087.04166667 75.0 L 1057.04166667 75.0" stroke="#0095FF" fill="none" stroke-width="2px" />
<path d="M 1057.04166667 75.0 L 1057.04166667 35.0" stroke="#0095FF" fill="none" stroke-width="2px" />
<path d="M 197.041666666 105.0 L 207.041666666 105.0" stroke="#FF0000" fill="none" stroke-width="4px" />
<path d="M 207.041666666 105.0 L 217.041666666 105.0" stroke="#FF0000" fill="none" stroke-width="4px" />
<path d="M 217.041666666 105.0 L 217.041666666 95.0" stroke="#FF0000" fill="none" stroke-width="4px" />
<path d="M 217.041666666 95.0 L 207.041666666 95.0" stroke="#FF0000" fill="none" stroke-width="4px" />
<path d="M 207.041666666 95.0 L 197.041666666 95.0" stroke="#FF0000" fill="none" stroke-width="4px" />
<path d="M 197.041666666 95.0 L 187.041666666 95.0" stroke="#FF0000" fill="none" stroke-width="4px" />
<path d="M 187.041666666 95.0 L 187.041666666 85.0" stroke="#FF0000" fill="none" stroke-width="4px" />
<path d="M 187.041666666 85.0 L 177.041666666 85.0" stroke="#FF0000" fill="none" stroke-width="4px" />
<path d="M 177.041666666 85.0 L 177.041666666 75.0" stroke="#FF0000" fill="none" stroke-width="4px" />
<path d="M 177.041666666 75.0 L 187.041666666 75.0" stroke="#FF0000" fill="none" stroke-width="4px" />
<path d="M 187.041666666 75.0 L 197.041666666 75.0" stroke="#FF0000" fill="none" stroke-width="4px" />
<path d="M 197.041666666 75.0 L 207.041666666 75.0" stroke="#FF0000" fill="none" stroke-width="4px" />
<path d="M 207.041666666 75.0 L 217.041666666 75.0" stroke="#FF0000" fill="none" stroke-width="4px" />
<path d="M 217.041666666 75.0 L 227.041666666 75.0" stroke="#FF0000" fill="none" stroke-width="4px" />
<path d="M 227.041666666 75.0 L 237.041666666 75.0" stroke="#FF0000" fill="none" stroke-width="4px" />
<path d="M 237.041666666 75.0 L 237.041666666 85.0" stroke="#FF0000" fill="none" stroke-width="4px" />
<path d="M 237.041666666 85.0 L 227.041666666 85.0" stroke="#FF0000" fill="none" stroke-width="4px" />
<path d="M 227.041666666 85.0 L 217.041666666 85.0" stroke="#FF0000" fill="none" stroke-width="4px" />
<path d="M 217.041666666 85.0 L 207.041666666 85.0" stroke="#FF0000" fill="none" stroke-width="4px" />
<path d="M 207.041666666 85.0 L 197.041666666 85.0" stroke="#FF0000" fill="none" stroke-width="4px" />
<path d="M 197.041666666 65.0 L 187.041666666 65.0" stroke="#FF0000" fill="none" stroke-width="4px" />
<path d="M 187.041666666 65.0 L 177.041666666 65.0" stroke="#FF0000" fill="none" stroke-width="4px" />
<path d="M 177.041666666 65.0 L 187.041666666 55.0" stroke="#FF0000" fill="none" stroke-width="4px" />
<path d="M 187.041666666 55.0 L 197.041666666 55.0" stroke="#FF0000" fill="none" stroke-width="4px" />
<path d="M 197.041666666 55.0 L 207.041666666 55.0" stroke="#FF0000" fill="none" stroke-width="4px" />
<path d="M 207.041666666 55.0 L 217.041666666 55.0" stroke="#FF0000" fill="none" stroke-width="4px" />
<path d="M 217.041666666 55.0 L 217.041666666 65.0" stroke="#FF0000" fill="none" stroke-width="4px" />
<path d="M 217.041666666 65.0 L 207.041666666 65.0" stroke="#FF0000" fill="none" stroke-width="4px" />
<path d="M 207.041666666 65.0 L 227.041666666 65.0" stroke="#FF0000" fill="none" stroke-width="4px" />
<path d="M 207.041666666 45.0 L 197.041666666 45.0" stroke="#FF0000" fill="none" stroke-width="4px" />
<path d="M 337.041666666 55.0 L 347.041666666 55.0" stroke="#FF0000" fill="none" stroke-width="4px" />
<path d="M 347.041666666 55.0 L 357.041666666 55.0" stroke="#FF0000" fill="none" stroke-width="4px" />
<path d="M 357.041666666 55.0 L 367.041666666 55.0" stroke="#FF0000" fill="none" stroke-width="4px" />
<path d="M 367.041666666 55.0 L 377.041666666 55.0" stroke="#FF0000" fill="none" stroke-width="4px" />
<path d="M 377.041666666 55.0 L 387.041666666 55.0" stroke="#FF0000" fill="none" stroke-width="4px" />
<path d="M 387.041666666 55.0 L 387.041666666 65.0" stroke="#FF0000" fill="none" stroke-width="4px" />
<path d="M 387.041666666 65.0 L 377.041666666 65.0" stroke="#FF0000" fill="none" stroke-width="4px" />
<path d="M 377.041666666 65.0 L 367.041666666 65.0" stroke="#FF0000" fill="none" stroke-width="4px" />
<path d="M 367.041666666 65.0 L 357.041666666 65.0" stroke="#FF0000" fill="none" stroke-width="4px" />
<path d="M 357.041666666 65.0 L 347.041666666 65.0" stroke="#FF0000" fill="none" stroke-width="4px" />
<path d="M 347.041666666 65.0 L 357.041666666 75.0" stroke="#FF0000" fill="none" stroke-width="4px" />
<path d="M 357.041666666 75.0 L 367.041666666 75.0" stroke="#FF0000" fill="none" stroke-width="4px" />
<path d="M 367.041666666 75.0 L 377.041666666 75.0" stroke="#FF0000" fill="none" stroke-width="4px" />
<path d="M 377.041666666 75.0 L 387.041666666 75.0" stroke="#FF0000" fill="none" stroke-width="4px" />
<path d="M 387.041666666 75.0 L 397.041666666 75.0" stroke="#FF0000" fill="none" stroke-width="4px" />
<path d="M 397.041666666 75.0 L 397.041666666 65.0" stroke="#FF0000" fill="none" stroke-width="4px" />
<path d="M 387.041666666 85.0 L 377.041666666 85.0" stroke="#FF0000" fill="none" stroke-width="4px" />
<path d="M 377.041666666 85.0 L 367.041666666 85.0" stroke="#FF0000" fill="none" stroke-width="4px" />
<path d="M 367.041666666 85.0 L 377.041666666 95.0" stroke="#FF0000" fill="none" stroke-width="4px" />
<path d="M 377.041666666 45.0 L 367.041666666 45.0" stroke="#FF0000" fill="none" stroke-width="4px" />
<path d="M 367.041666666 45.0 L 357.041666666 45.0" stroke="#FF0000" fill="none" stroke-width="4px" />
<path d="M 357.041666666 45.0 L 347.041666666 45.0" stroke="#FF0000" fill="none" stroke-width="4px" />
<path d="M 347.041666666 45.0 L 337.041666666 45.0" stroke="#FF0000" fill="none" stroke-width="4px" />
<path d="M 337.041666666 45.0 L 337.041666666 35.0" stroke="#FF0000" fill="none" stroke-width="4px" />
<path d="M 337.041666666 35.0 L 347.041666666 35.0" stroke="#FF0000" fill="none" stroke-width="4px" />
<path d="M 347.041666666 35.0 L 357.041666666 35.0" stroke="#FF0000" fill="none" stroke-width="4px" />
<path d="M 357.041666666 35.0 L 367.041666666 35.0" stroke="#FF0000" fill="none" stroke-width="4px" />
<path d="M 367.041666666 35.0 L 377.041666666 35.0" stroke="#FF0000" fill="none" stroke-width="4px" />
<path d="M 377.041666666 35.0 L 387.041666666 45.0" stroke="#FF0000" fill="none" stroke-width="4px" />
<path d="M 367.041666666 25.0 L 357.041666666 25.0" stroke="#FF0000" fill="none" stroke-width="4px" />
<path d="M 357.041666666 25.0 L 347.041666666 25.0" stroke="#FF0000" fill="none" stroke-width="4px" />
<path d="M 557.041666666 65.0 L 567.041666666 65.0" stroke="#FF0000" fill="none" stroke-width="4px" />
<path d="M 567.041666666 65.0 L 577.041666666 65.0" stroke="#FF0000" fill="none" stroke-width="4px" />
<path d="M 577.041666666 65.0 L 587.041666666 65.0" stroke="#FF0000" fill="none" stroke-width="4px" />
<path d="M 587.041666666 65.0 L 597.041666666 65.0" stroke="#FF0000" fill="none" stroke-width="4px" />
<path d="M 597.041666666 65.0 L 607.041666666 65.0" stroke="#FF0000" fill="none" stroke-width="4px" />
<path d="M 607.041666666 65.0 L 617.041666666 65.0" stroke="#FF0000" fill="none" stroke-width="4px" />
<path d="M 617.041666666 65.0 L 627.041666666 65.0" stroke="#FF0000" fill="none" stroke-width="4px" />
<path d="M 627.041666666 65.0 L 627.041666666 75.0" stroke="#FF0000" fill="none" stroke-width="4px" />
<path d="M 627.041666666 75.0 L 617.041666666 75.0" stroke="#FF0000" fill="none" stroke-width="4px" />
<path d="M 617.041666666 75.0 L 607.041666666 75.0" stroke="#FF0000" fill="none" stroke-width="4px" />
<path d="M 607.041666666 75.0 L 597.041666666 75.0" stroke="#FF0000" fill="none" stroke-width="4px" />
<path d="M 597.041666666 75.0 L 587.041666666 75.0" stroke="#FF0000" fill="none" stroke-width="4px" />
<path d="M 587.041666666 75.0 L 577.041666666 75.0" stroke="#FF0000" fill="none" stroke-width="4px" />
<path d="M 577.041666666 75.0 L 567.041666666 75.0" stroke="#FF0000" fill="none" stroke-width="4px" />
<path d="M 567.041666666 75.0 L 557.041666666 75.0" stroke="#FF0000" fill="none" stroke-width="4px" />
<path d="M 557.041666666 75.0 L 567.041666666 85.0" stroke="#FF0000" fill="none" stroke-width="4px" />
<path d="M 567.041666666 85.0 L 577.041666666 85.0" stroke="#FF0000" fill="none" stroke-width="4px" />
<path d="M 577.041666666 85.0 L 587.041666666 85.0" stroke="#FF0000" fill="none" stroke-width="4px" />
<path d="M 587.041666666 85.0 L 597.041666666 85.0" stroke="#FF0000" fill="none" stroke-width="4px" />
<path d="M 597.041666666 85.0 L 607.041666666 85.0" stroke="#FF0000" fill="none" stroke-width="4px" />
<path d="M 607.041666666 85.0 L 617.041666666 85.0" stroke="#FF0000" fill="none" stroke-width="4px" />
<path d="M 617.041666666 85.0 L 627.041666666 85.0" stroke="#FF0000" fill="none" stroke-width="4px" />
<path d="M 627.041666666 85.0 L 617.041666666 95.0" stroke="#FF0000" fill="none" stroke-width="4px" />
<path d="M 617.041666666 95.0 L 607.041666666 95.0" stroke="#FF0000" fill="none" stroke-width="4px" />
<path d="M 607.041666666 95.0 L 597.041666666 95.0" stroke="#FF0000" fill="none" stroke-width="4px" />
<path d="M 597.041666666 95.0 L 587.041666666 95.0" stroke="#FF0000" fill="none" stroke-width="4px" />
<path d="M 587.041666666 95.0 L 577.041666666 95.0" stroke="#FF0000" fill="none" stroke-width="4px" />
<path d="M 577.041666666 95.0 L 587.041666666 105.0" stroke="#FF0000" fill="none" stroke-width="4px" />
<path d="M 587.041666666 105.0 L 597.041666666 105.0" stroke="#FF0000" fill="none" stroke-width="4px" />
<path d="M 597.041666666 105.0 L 607.041666666 105.0" stroke="#FF0000" fill="none" stroke-width="4px" />
<path d="M 607.041666666 55.0 L 597.041666666 55.0" stroke="#FF0000" fill="none" stroke-width="4px" />
<path d="M 597.041666666 55.0 L 587.041666666 55.0" stroke="#FF0000" fill="none" stroke-width="4px" />
<path d="M 587.041666666 55.0 L 577.041666666 55.0" stroke="#FF0000" fill="none" stroke-width="4px" />
<path d="M 577.041666666 55.0 L 567.041666666 55.0" stroke="#FF0000" fill="none" stroke-width="4px" />
<path d="M 567.041666666 55.0 L 577.041666666 45.0" stroke="#FF0000" fill="none" stroke-width="4px" />
<path d="M 577.041666666 45.0 L 587.041666666 45.0" stroke="#FF0000" fill="none" stroke-width="4px" />
<path d="M 587.041666666 45.0 L 597.041666666 45.0" stroke="#FF0000" fill="none" stroke-width="4px" />
<path d="M 597.041666666 45.0 L 607.041666666 45.0" stroke="#FF0000" fill="none" stroke-width="4px" />
<path d="M 607.041666666 45.0 L 617.041666666 55.0" stroke="#FF0000" fill="none" stroke-width="4px" />
<path d="M 997.041666666 45.0 L 1007.04166667 45.0" stroke="#FF0000" fill="none" stroke-width="4px" />
<path d="M 1007.04166667 45.0 L 1017.04166667 45.0" stroke="#FF0000" fill="none" stroke-width="4px" />
<path d="M 1017.04166667 45.0 L 1027.04166667 45.0" stroke="#FF0000" fill="none" stroke-width="4px" />
<path d="M 1027.04166667 45.0 L 1037.04166667 45.0" stroke="#FF0000" fill="none" stroke-width="4px" />
<path d="M 1037.04166667 45.0 L 1047.04166667 45.0" stroke="#FF0000" fill="none" stroke-width="4px" />
<path d="M 1047.04166667 45.0 L 1057.04166667 45.0" stroke="#FF0000" fill="none" stroke-width="4px" />
<path d="M 1057.04166667 45.0 L 1067.04166667 45.0" stroke="#FF0000" fill="none" stroke-width="4px" />
<path d="M 1067.04166667 45.0 L 1067.04166667 55.0" stroke="#FF0000" fill="none" stroke-width="4px" />
<path d="M 1067.04166667 55.0 L 1057.04166667 55.0" stroke="#FF0000" fill="none" stroke-width="4px" />
<path d="M 1057.04166667 55.0 L 1047.04166667 55.0" stroke="#FF0000" fill="none" stroke-width="4px" />
<path d="M 1047.04166667 55.0 L 1037.04166667 55.0" stroke="#FF0000" fill="none" stroke-width="4px" />
<path d="M 1037.04166667 55.0 L 1027.04166667 55.0" stroke="#FF0000" fill="none" stroke-width="4px" />
<path d="M 1027.04166667 55.0 L 1017.04166667 55.0" stroke="#FF0000" fill="none" stroke-width="4px" />
<path d="M 1017.04166667 55.0 L 1007.04166667 55.0" stroke="#FF0000" fill="none" stroke-width="4px" />
<path d="M 1007.04166667 55.0 L 1017.04166667 65.0" stroke="#FF0000" fill="none" stroke-width="4px" />
<path d="M 1017.04166667 65.0 L 1027.04166667 65.0" stroke="#FF0000" fill="none" stroke-width="4px" />
<path d="M 1027.04166667 65.0 L 1037.04166667 65.0" stroke="#FF0000" fill="none" stroke-width="4px" />
<path d="M 1037.04166667 65.0 L 1047.04166667 65.0" stroke="#FF0000" fill="none" stroke-width="4px" />
<path d="M 1047.04166667 65.0 L 1057.04166667 65.0" stroke="#FF0000" fill="none" stroke-width="4px" />
<path d="M 1057.04166667 65.0 L 1067.04166667 65.0" stroke="#FF0000" fill="none" stroke-width="4px" />
<path d="M 1067.04166667 65.0 L 1077.04166667 65.0" stroke="#FF0000" fill="none" stroke-width="4px" />
<path d="M 1077.04166667 65.0 L 1077.04166667 75.0" stroke="#FF0000" fill="none" stroke-width="4px" />
<path d="M 1077.04166667 75.0 L 1067.04166667 75.0" stroke="#FF0000" fill="none" stroke-width="4px" />
<path d="M 1067.04166667 75.0 L 1057.04166667 75.0" stroke="#FF0000" fill="none" stroke-width="4px" />
<path d="M 1057.04166667 75.0 L 1047.04166667 75.0" stroke="#FF0000" fill="none" stroke-width="4px" />
<path d="M 1047.04166667 75.0 L 1037.04166667 75.0" stroke="#FF0000" fill="none" stroke-width="4px" />
<path d="M 1037.04166667 75.0 L 1027.04166667 75.0" stroke="#FF0000" fill="none" stroke-width="4px" />
<path d="M 1027.04166667 75.0 L 1037.04166667 85.0" stroke="#FF0000" fill="none" stroke-width="4px" />
<path d="M 1037.04166667 85.0 L 1047.04166667 85.0" stroke="#FF0000" fill="none" stroke-width="4px" />
<path d="M 1047.04166667 85.0 L 1057.04166667 85.0" stroke="#FF0000" fill="none" stroke-width="4px" />
<path d="M 1057.04166667 85.0 L 1067.04166667 85.0" stroke="#FF0000" fill="none" stroke-width="4px" />
<path d="M 1067.04166667 85.0 L 1077.04166667 85.0" stroke="#FF0000" fill="none" stroke-width="4px" />
<path d="M 1077.04166667 85.0 L 1087.04166667 85.0" stroke="#FF0000" fill="none" stroke-width="4px" />
<path d="M 1087.04166667 85.0 L 1097.04166667 85.0" stroke="#FF0000" fill="none" stroke-width="4px" />
<path d="M 1097.04166667 85.0 L 1097.04166667 95.0" stroke="#FF0000" fill="none" stroke-width="4px" />
<path d="M 1097.04166667 95.0 L 1087.04166667 95.0" stroke="#FF0000" fill="none" stroke-width="4px" />
<path d="M 1087.04166667 95.0 L 1077.04166667 95.0" stroke="#FF0000" fill="none" stroke-width="4px" />
<path d="M 1077.04166667 95.0 L 1067.04166667 95.0" stroke="#FF0000" fill="none" stroke-width="4px" />
<path d="M 1067.04166667 95.0 L 1057.04166667 95.0" stroke="#FF0000" fill="none" stroke-width="4px" />
<path d="M 1057.04166667 95.0 L 1047.04166667 95.0" stroke="#FF0000" fill="none" stroke-width="4px" />
<path d="M 1047.04166667 95.0 L 1037.04166667 95.0" stroke="#FF0000" fill="none" stroke-width="4px" />
<path d="M 1037.04166667 95.0 L 1047.04166667 105.0" stroke="#FF0000" fill="none" stroke-width="4px" />
<path d="M 1047.04166667 105.0 L 1057.04166667 105.0" stroke="#FF0000" fill="none" stroke-width="4px" />
<path d="M 1057.04166667 105.0 L 1067.04166667 105.0" stroke="#FF0000" fill="none" stroke-width="4px" />
<path d="M 1067.04166667 105.0 L 1077.04166667 105.0" stroke="#FF0000" fill="none" stroke-width="4px" />
<path d="M 1077.04166667 105.0 L 1087.04166667 105.0" stroke="#FF0000" fill="none" stroke-width="4px" />
<path d="M 1087.04166667 105.0 L 1077.04166667 115.0" stroke="#FF0000" fill="none" stroke-width="4px" />
<path d="M 1077.04166667 115.0 L 1067.04166667 115.0" stroke="#FF0000" fill="none" stroke-width="4px" />
<path d="M 1067.04166667 115.0 L 1057.04166667 115.0" stroke="#FF0000" fill="none" stroke-width="4px" />
<path d="M 1057.04166667 35.0 L 1047.04166667 35.0" stroke="#FF0000" fill="none" stroke-width="4px" />
<path d="M 1047.04166667 35.0 L 1037.04166667 35.0" stroke="#FF0000" fill="none" stroke-width="4px" />
<path d="M 1037.04166667 35.0 L 1027.04166667 35.0" stroke="#FF0000" fill="none" stroke-width="4px" />
<path d="M 1027.04166667 35.0 L 1017.04166667 35.0" stroke="#FF0000" fill="none" stroke-width="4px" />
<path d="M 1017.04166667 35.0 L 1007.04166667 35.0" stroke="#FF0000" fill="none" stroke-width="4px" />
<path d="M 1007.04166667 35.0 L 1017.04166667 25.0" stroke="#FF0000" fill="none" stroke-width="4px" />
<path d="M 1017.04166667 25.0 L 1027.04166667 25.0" stroke="#FF0000" fill="none" stroke-width="4px" />
<path d="M 1027.04166667 25.0 L 1037.04166667 25.0" stroke="#FF0000" fill="none" stroke-width="4px" />
<path d="M 1037.04166667 25.0 L 1047.04166667 25.0" stroke="#FF0000" fill="none" stroke-width="4px" />
</svg>