<svg width="1332.95833333" height="235.0" xmlns="http://www.w3.org/2000/svg" version="1.1">
<path d="M 0.0 235.0 L 1332.95833333 235.0 L 1332.95833333 0.0 L 0.0 0.0 L 0.0 235.0" stroke="#000000" fill="none" stroke-width="3px" />
<path d="M 10.0 257.5 L 0.0 247.5 L 10.0 237.5" stroke="#969696" fill="none" stroke-width="1px" />
<path d="M 10.0 237.5 L 1322.95833333 237.5" stroke="#969696" fill="none" stroke-width="1px" />
<path d="M 1322.95833333 237.5 L 1332.95833333 227.5 L 1322.95833333 217.5" stroke="#969696" fill="none" stroke-width="1px" />
<path d="M 1322.95833333 217.5 L 10.0 217.5" stroke="#969696" fill="none" stroke-width="1px" />
<path d="M 10.0 217.5 L 0.0 207.5 L 10.0 197.5" stroke="#969696" fill="none" stroke-width="1px" />
<path d="M 10.0 197.5 L 1322.95833333 197.5" stroke="#969696" fill="none" stroke-width="1px" />
<path d="M 1322.95833333 197.5 L 1332.95833333 187.5 L 1322.95833333 177.5" stroke="#969696" fill="none" stroke-width="1px" />
<path d="M 1322.95833333 177.5 L 10.0 177.5" stroke="#969696" fill="none" stroke-width="1px" />
<path d="M 10.0 177.5 L 0.0 167.5 L 10.0 157.5" stroke="#969696" fill="none" stroke-width="1px" />
<path d="M 10.0 157.5 L 1322.95833333 157.5" stroke="#969696" fill="none" stroke-width="1px" />
<path d="M 1322.95833333 157.5 L 1332.95833333 147.5 L 1322.95833333 137.5" stroke="#969696" fill="none" stroke-width="1px" />
<path d="M 1322.95833333 137.5 L 10.0 137.5" stroke="#969696" fill="none" stroke-width="1px" />
<path d="M 10.0 137.5 L 0.0 127.5 L 10.0 117.5" stroke="#969696" fill="none" stroke-width="1px" />
<path d="M 10.0 117.5 L 1322.95833333 117.5" stroke="#969696" fill="none" stroke-width="1px" />
<path d="M 1322.95833333 117.5 L 1332.95833333 107.5 L 1322.95833333 97.5" stroke="#969696" fill="none" stroke-width="1px" />
<path d="M 1322.95833333 97.5 L 10.0 97.5" stroke="#969696" fill="none" stroke-width="1px" />
<path d="M 10.0 97.5 L 0.0 87.5 L 10.0 77.5" stroke="#969696" fill="none" stroke-width="1px" />
<path d="M 10.0 77.5 L 1322.95833333 77.5" stroke="#969696" fill="none" stroke-width="1px" />
<path d="M 1322.95833333 77.5 L 1332.95833333 67.5 L 1322.95833333 57.5" stroke="#969696" fill="none" stroke-width="1px" />
<path d="M 1322.95833333 57.5 L 10.0 57.5" stroke="#969696" fill="none" stroke-width="1px" />
<path d="M 10.0 57.5 L 0.0 47.5 L 10.0 37.5" stroke="#969696" fill="none" stroke-width="1px" />
<path d="M 10.0 37.5 L 1322.95833333 37.5" stroke="#969696" fill="none" stroke-width="1px" />
<path d="M 1322.95833333 37.5 L 1332.95833333 27.5 L 1322.95833333 17.5" stroke="#969696" fill="none" stroke-width="1px" />
<path d="M 1322.95833333 17.5 L 10.0 17.5" stroke="#969696" fill="none" stroke-width="1px" />
<path d="M 10.0 17.5 L 0.0 7.5 L 10.0 -2.5" stroke="#969696" fill="none" stroke-width="1px" />
<path d="M 10.0 -2.5 L 1322.95833333 -2.5" stroke="#969696" fill="none" stroke-width="1px" />
<path d="M 1322.95833333 -2.5 L 1332.95833333 -12.5 L 1322.95833333 -22.5" stroke="#969696" fill="none" stroke-width="1px" />
<path d="M 0.0 235.0 L 274.766666665 125.0" stroke="#0095FF" fill="none" stroke-width="2px" />
<path d="M 304.766666665 145.0 L 304.766666665 115.0" stroke="#0095FF" fill="none" stroke-width="2px" />
<path d="M 314.766666665 115.0 L 584.766666665 185.0" stroke="#0095FF" fill="none" stroke-width="2px" />
<path d="M 614.766666665 205.0 L 614.766666665 175.0" stroke="#0095FF" fill="none" stroke-width="2px" />
<path d="M 274.766666665 125.0 L 284.766666665 125.0" stroke="#FF0000" fill="none" stroke-width="4px" />
<path d="M 284.766666665 125.0 L 294.766666665 125.0" stroke="#FF0000" fill="none" stroke-width="4px" />
<path d="M 294.766666665 125.0 L 304.766666665 125.0" stroke="#FF0000" fill="none" stroke-width="4px" />
<path d="M 304.766666665 125.0 L 314.766666665 125.0" stroke="#FF0000" fill="none" stroke-width="4px" />
<path d="M 314.766666665 125.0 L 324.766666665 125.0" stroke="#FF0000" fill="none" stroke-width="4px" />
<path d="M 324.766666665 125.0 L 314.766666665 135.0" stroke="#FF0000" fill="none" stroke-width="4px" />
<path d="M 314.766666665 135.0 L 304.766666665 135.0" stroke="#FF0000" fill="none" stroke-width="4px" />
<path d="M 304.766666665 135.0 L 294.766666665 135.0" stroke="#FF0000" fill="none" stroke-width="4px" />
<path d="M 294.766666665 135.0 L 284.766666665 135.0" stroke="#FF0000" fill="none" stroke-width="4px" />
<path d="M 284.766666665 135.0 L 294.766666665 145.0" stroke="#FF0000" fill="none" stroke-width="4px" />
<path d="M 294.766666665 145.0 L 304.766666665 145.0" stroke="#FF0000" fill="none" stroke-width="4px" />
<path d="M 304.766666665 115.0 L 294.766666665 115.0" stroke="#FF0000" fill="none" stroke-width="4px" />
<path d="M 294.766666665 115.0 L 284.766666665 115.0" stroke="#FF0000" fill="none" stroke-width="4px" />
<path d="M 284.766666665 115.0 L 294.766666665 105.0" stroke="#FF0000" fill="none" stroke-width="4px" />
<path d="M 294.766666665 105.0 L 304.766666665 105.0" stroke="#FF0000" fill="none" stroke-width="4px" />
<path d="M 304.766666665 105.0 L 314.766666665 115.0" stroke="#FF0000" fill="none" stroke-width="4px" />
<path d="M 584.766666665 185.0 L 594.766666665 185.0" stroke="#FF0000" fill="none" stroke-width="4px" />
<path d="M 594.766666665 185.0 L 604.766666665 185.0" stroke="#FF0000" fill="none" stroke-width="4px" />
<path d="M 604.766666665 185.0 L 614.766666665 185.0" stroke="#FF0000" fill="none" stroke-width="4px" />
<path d="M 614.766666665 185.0 L 624.766666665 185.0" stroke="#FF0000" fill="none" stroke-width="4px" />
<path d="M 624.766666665 185.0 L 634.766666665 185.0" stroke="#FF0000" fill="none" stroke-width="4px" />
<path d="M 634.766666665 185.0 L 624.766666665 195.0" stroke="#FF0000" fill="none" stroke-width="4px" />
<path d="M 624.766666665 195.0 L 614.766666665 195.0" stroke="#FF0000" fill="none" stroke-width="4px" />
<path d="M 614.766666665 195.0 L 604.766666665 195.0" stroke="#FF0000" fill="none" stroke-width="4px" />
<path d="M 604.766666665 195.0 L 594.766666665 195.0" stroke="#FF0000" fill="none" stroke-width="4px" />
<path d="M 594.766666665 195.0 L 604.766666665 205.0" stroke="#FF0000" fill="none" stroke-width="4px" />
<path d="M 604.766666665 205.0 L 614.766666665 205.0" stroke="#FF0000" fill="none" stroke-width="4px" />
<path d="M 614.766666665 175.0 L 604.766666665 175.0" stroke="#FF0000" fill="none" stroke-width="4px" />
<path d="M 604.766666665 175.0 L 594.766666665 175.0" stroke="#FF0000" fill="none" stroke-width="4px" />
<path d="M 594.766666665 175.0 L 604.766666665 165.0" stroke="#FF0000" fill="none" stroke-width="4px" />
<path d="M 604.766666665 165.0 L 614.766666665 165.0" stroke="#FF0000" fill="none" stroke-width="4px" />
<path d="M 614.766666665 165.0 L 624.766666665 165.0" stroke="#FF0000" fill="none" stroke-width="4px" />
<path d="M 624.766666665 165.0 L 624.766666665 175.0" stroke="#FF0000" fill="none" stroke-width="4px" />
</svg>