<svg width="2472.26666667" height="235.0" xmlns="http://www.w3.org/2000/svg" version="1.1">
<path d="M 0.0 235.0 L 1985.0 235.0 L 1985.0 0.0 L 0.0 0.0 L 0.0 235.0" stroke="#000000" fill="none" stroke-width="3px" />
<path d="M 2472.26666667 235.0 L 1885.0 235.0 L 1885.0 0.0 L 2472.26666667 0.0 L 2472.26666667 235.0" stroke="#000000" fill="none" stroke-width="3px" />
<path d="M 10.0 257.5 L 0.0 247.5 L 10.0 237.5" stroke="#969696" fill="none" stroke-width="1px" />
<path d="M 10.0 237.5 L 1975.0 237.5" stroke="#969696" fill="none" stroke-width="1px" />
<path d="M 1975.0 237.5 L 1985.0 227.5 L 1975.0 217.5" stroke="#969696" fill="none" stroke-width="1px" />
<path d="M 1975.0 217.5 L 10.0 217.5" stroke="#969696" fill="none" stroke-width="1px" />
<path d="M 10.0 217.5 L 0.0 207.5 L 10.0 197.5" stroke="#969696" fill="none" stroke-width="1px" />
<path d="M 10.0 197.5 L 1975.0 197.5" stroke="#969696" fill="none" stroke-width="1px" />
<path d="M 1975.0 197.5 L 1985.0 187.5 L 1975.0 177.5" stroke="#969696" fill="none" stroke-width="1px" />
<path d="M 1975.0 177.5 L 10.0 177.5" stroke="#969696" fill="none" stroke-width="1px" />
<path d="M 10.0 177.5 L 0.0 167.5 L 10.0 157.5" stroke="#969696" fill="none" stroke-width="1px" />
<path d="M 10.0 157.5 L 1975.0 157.5" stroke="#969696" fill="none" stroke-width="1px" />
<path d="M 1975.0 157.5 L 1985.0 147.5 L 1975.0 137.5" stroke="#969696" fill="none" stroke-width="1px" />
<path d="M 1975.0 137.5 L 10.0 137.5" stroke="#969696" fill="none" stroke-width="1px" />
<path d="M 10.0 137.5 L 0.0 127.5 L 10.0 117.5" stroke="#969696" fill="none" stroke-width="1px" />
<path d="M 10.0 117.5 L 1975.0 117.5" stroke="#969696" fill="none" stroke-width="1px" />
<path d="M 1975.0 117.5 L 1985.0 107.5 L 1975.0 97.5" stroke="#969696" fill="none" stroke-width="1px" />
<path d="M 1975.0 97.5 L 10.0 97.5" stroke="#969696" fill="none" stroke-width="1px" />
<path d="M 10.0 97.5 L 0.0 87.5 L 10.0 77.5" stroke="#969696" fill="none" stroke-width="1px" />
<path d="M 10.0 77.5 L 1975.0 77.5" stroke="#969696" fill="none" stroke-width="1px" />
<path d="M 1975.0 77.5 L 1985.0 67.5 L 1975.0 57.5" stroke="#969696" fill="none" stroke-width="1px" />
<path d="M 1975.0 57.5 L 10.0 57.5" stroke="#969696" fill="none" stroke-width="1px" />
<path d="M 10.0 57.5 L 0.0 47.5 L 10.0 37.5" stroke="#969696" fill="none" stroke-width="1px" />
<path d="M 10.0 37.5 L 1975.0 37.5" stroke="#969696" fill="none" stroke-width="1px" />
<path d="M 1975.0 37.5 L 1985.0 27.5 L 1975.0 17.5" stroke="#969696" fill="none" stroke-width="1px" />
<path d="M 1975.0 17.5 L 10.0 17.5" stroke="#969696" fill="none" stroke-width="1px" />
<path d="M 10.0 17.5 L 0.0 7.5 L 10.0 -2.5" stroke="#969696" fill="none" stroke-width="1px" />
<path d="M 10.0 -2.5 L 1975.0 -2.5" stroke="#969696" fill="none" stroke-width="1px" />
<path d="M 1975.0 -2.5 L 1985.0 -12.5 L 1975.0 -22.5" stroke="#969696" fill="none" stroke-width="1px" />
<path d="M 2462.26666667 257.5 L 2472.26666667 247.5 L 2462.26666667 237.5" stroke="#969696" fill="none" stroke-width="1px" />
<path d="M 2462.26666667 237.5 L 1895.0 237.5" stroke="#969696" fill="none" stroke-width="1px" />
<path d="M 1895.0 237.5 L 1885.0 227.5 L 1895.0 217.5" stroke="#969696" fill="none" stroke-width="1px" />
<path d="M 1895.0 217.5 L 2462.26666667 217.5" stroke="#969696" fill="none" stroke-width="1px" />
<path d="M 2462.26666667 217.5 L 2472.26666667 207.5 L 2462.26666667 197.5" stroke="#969696" fill="none" stroke-width="1px" />
<path d="M 2462.26666667 197.5 L 1895.0 197.5" stroke="#969696" fill="none" stroke-width="1px" />
<path d="M 1895.0 197.5 L 1885.0 187.5 L 1895.0 177.5" stroke="#969696" fill="none" stroke-width="1px" />
<path d="M 1895.0 177.5 L 2462.26666667 177.5" stroke="#969696" fill="none" stroke-width="1px" />
<path d="M 2462.26666667 177.5 L 2472.26666667 167.5 L 2462.26666667 157.5" stroke="#969696" fill="none" stroke-width="1px" />
<path d="M 2462.26666667 157.5 L 1895.0 157.5" stroke="#969696" fill="none" stroke-width="1px" />
<path d="M 1895.0 157.5 L 1885.0 147.5 L 1895.0 137.5" stroke="#969696" fill="none" stroke-width="1px" />
<path d="M 1895.0 137.5 L 2462.26666667 137.5" stroke="#969696" fill="none" stroke-width="1px" />
<path d="M 2462.26666667 137.5 L 2472.26666667 127.5 L 2462.26666667 117.5" stroke="#969696" fill="none" stroke-width="1px" />
<path d="M 2462.26666667 117.5 L 1895.0 117.5" stroke="#969696" fill="none" stroke-width="1px" />
<path d="M 1895.0 117.5 L 1885.0 107.5 L 1895.0 97.5" stroke="#969696" fill="none" stroke-width="1px" />
<path d="M 1895.0 97.5 L 2462.26666667 97.5" stroke="#969696" fill="none" stroke-width="1px" />
<path d="M 2462.26666667 97.5 L 2472.26666667 87.5 L 2462.26666667 77.5" stroke="#969696" fill="none" stroke-width="1px" />
<path d="M 2462.26666667 77.5 L 1895.0 77.5" stroke="#969696" fill="none" stroke-width="1px" />
<path d="M 1895.0 77.5 L 1885.0 67.5 L 1895.0 57.5" stroke="#969696" fill="none" stroke-width="1px" />
<path d="M 1895.0 57.5 L 2462.26666667 57.5" stroke="#969696" fill="none" stroke-width="1px" />
<path d="M 2462.26666667 57.5 L 2472.26666667 47.5 L 2462.26666667 37.5" stroke="#969696" fill="none" stroke-width="1px" />
<path d="M 2462.26666667 37.5 L 1895.0 37.5" stroke="#969696" fill="none" stroke-width="1px" />
<path d="M 1895.0 37.5 L 1885.0 27.5 L 1895.0 17.5" stroke="#969696" fill="none" stroke-width="1px" />
<path d="M 1895.0 17.5 L 2462.26666667 17.5" stroke="#969696" fill="none" stroke-width="1px" />
<path d="M 2462.26666667 17.5 L 2472.26666667 7.5 L 2462.26666667 -2.5" stroke="#969696" fill="none" stroke-width="1px" />
<path d="M 2462.26666667 -2.5 L 1895.0 -2.5" stroke="#969696" fill="none" stroke-width="1px" />
<path d="M 1895.0 -2.5 L 1885.0 -12.5 L 1895.0 -22.5" stroke="#969696" fill="none" stroke-width="1px" />
<path d="M 0.0 235.0 L 440.0 235.0" stroke="#0095FF" fill="none" stroke-width="2px" />
<path d="M 440.0 235.0 L 440.0 205.0" stroke="#0095FF" fill="none" stroke-width="2px" />
<path d="M 480.0 155.0 L 500.0 155.0" stroke="#0095FF" fill="none" stroke-width="2px" />
<path d="M 500.0 155.0 L 500.0 145.0" stroke="#0095FF" fill="none" stroke-width="2px" />
<path d="M 530.0 115.0 L 580.0 115.0" stroke="#0095FF" fill="none" stroke-width="2px" />
<path d="M 600.0 85.0 L 600.0 125.0" stroke="#0095FF" fill="none" stroke-width="2px" />
<path d="M 620.0 125.0 L 560.0 125.0" stroke="#0095FF" fill="none" stroke-width="2px" />
<path d="M 560.0 125.0 L 560.0 175.0" stroke="#0095FF" fill="none" stroke-width="2px" />
<path d="M 560.0 175.0 L 540.0 175.0" stroke="#0095FF" fill="none" stroke-width="2px" />
<path d="M 540.0 175.0 L 540.0 195.0" stroke="#0095FF" fill="none" stroke-width="2px" />
<path d="M 530.0 195.0 L 480.0 195.0" stroke="#0095FF" fill="none" stroke-width="2px" />
<path d="M 480.0 195.0 L 480.0 215.0" stroke="#0095FF" fill="none" stroke-width="2px" />
<path d="M 450.0 215.0 L 1210.0 215.0" stroke="#0095FF" fill="none" stroke-width="2px" />
<path d="M 1210.0 215.0 L 1210.0 145.0" stroke="#0095FF" fill="none" stroke-width="2px" />
<path d="M 1240.0 175.0 L 1240.0 135.0" stroke="#0095FF" fill="none" stroke-width="2px" />
<path d="M 1250.0 135.0 L 1250.0 115.0" stroke="#0095FF" fill="none" stroke-width="2px" />
<path d="M 1270.0 115.0 L 1240.0 115.0" stroke="#0095FF" fill="none" stroke-width="2px" />
<path d="M 1240.0 115.0 L 1240.0 95.0" stroke="#0095FF" fill="none" stroke-width="2px" />
<path d="M 1230.0 95.0 L 1310.0 95.0" stroke="#0095FF" fill="none" stroke-width="2px" />
<path d="M 1310.0 95.0 L 1310.0 135.0" stroke="#0095FF" fill="none" stroke-width="2px" />
<path d="M 1330.0 145.0 L 1320.0 145.0" stroke="#0095FF" fill="none" stroke-width="2px" />
<path d="M 1320.0 145.0 L 1320.0 165.0" stroke="#0095FF" fill="none" stroke-width="2px" />
<path d="M 1310.0 175.0 L 1390.0 175.0" stroke="#0095FF" fill="none" stroke-width="2px" />
<path d="M 1390.0 175.0 L 1390.0 105.0" stroke="#0095FF" fill="none" stroke-width="2px" />
<path d="M 1360.0 75.0 L 1360.0 55.0" stroke="#0095FF" fill="none" stroke-width="2px" />
<path d="M 1370.0 55.0 L 1370.0 35.0" stroke="#0095FF" fill="none" stroke-width="2px" />
<path d="M 1360.0 35.0 L 1400.0 35.0" stroke="#0095FF" fill="none" stroke-width="2px" />
<path d="M 1400.0 35.0 L 1400.0 55.0" stroke="#0095FF" fill="none" stroke-width="2px" />
<path d="M 1400.0 55.0 L 1400.0 85.0" stroke="#0095FF" fill="none" stroke-width="2px" />
<path d="M 1410.0 85.0 L 1620.0 85.0" stroke="#0095FF" fill="none" stroke-width="2px" />
<path d="M 1620.0 85.0 L 1620.0 5.0" stroke="#0095FF" fill="none" stroke-width="2px" />
<path d="M 1660.0 55.0 L 1690.0 55.0" stroke="#0095FF" fill="none" stroke-width="2px" />
<path d="M 1690.0 55.0 L 1690.0 65.0" stroke="#0095FF" fill="none" stroke-width="2px" />
<path d="M 1710.0 105.0 L 1710.0 125.0" stroke="#0095FF" fill="none" stroke-width="2px" />
<path d="M 1720.0 125.0 L 1710.0 125.0" stroke="#0095FF" fill="none" stroke-width="2px" />
<path d="M 1710.0 125.0 L 1710.0 145.0" stroke="#0095FF" fill="none" stroke-width="2px" />
<path d="M 1710.0 145.0 L 1750.0 145.0" stroke="#0095FF" fill="none" stroke-width="2px" />
<path d="M 1750.0 145.0 L 1750.0 125.0" stroke="#0095FF" fill="none" stroke-width="2px" />
<path d="M 1750.0 125.0 L 1760.0 125.0" stroke="#0095FF" fill="none" stroke-width="2px" />
<path d="M 1760.0 125.0 L 1760.0 95.0" stroke="#0095FF" fill="none" stroke-width="2px" />
<path d="M 1760.0 95.0 L 1760.0 55.0" stroke="#0095FF" fill="none" stroke-width="2px" />
<path d="M 1760.0 55.0 L 1750.0 55.0" stroke="#0095FF" fill="none" stroke-width="2px" />
<path d="M 1750.0 55.0 L 1750.0 15.0" stroke="#0095FF" fill="none" stroke-width="2px" />
<path d="M 1750.0 15.0 L 1740.0 15.0" stroke="#0095FF" fill="none" stroke-width="2px" />
<path d="M 1740.0 15.0 L 1740.0 -5.0" stroke="#0095FF" fill="none" stroke-width="2px" />
<path d="M 2472.26666667 235.0 L 2160.0 235.0" stroke="#0095FF" fill="none" stroke-width="2px" />
<path d="M 2160.0 235.0 L 2160.0 75.0" stroke="#0095FF" fill="none" stroke-width="2px" />
<path d="M 2110.0 65.0 L 2110.0 85.0" stroke="#0095FF" fill="none" stroke-width="2px" />
<path d="M 2150.0 85.0 L 2150.0 45.0" stroke="#0095FF" fill="none" stroke-width="2px" />
<path d="M 2160.0 45.0 L 2140.0 45.0" stroke="#0095FF" fill="none" stroke-width="2px" />
<path d="M 2140.0 45.0 L 2140.0 25.0" stroke="#0095FF" fill="none" stroke-width="2px" />
<path d="M 440.0 205.0 L 450.0 205.0" stroke="#FF0000" fill="none" stroke-width="4px" />
<path d="M 450.0 205.0 L 460.0 205.0" stroke="#FF0000" fill="none" stroke-width="4px" />
<path d="M 460.0 205.0 L 470.0 205.0" stroke="#FF0000" fill="none" stroke-width="4px" />
<path d="M 470.0 205.0 L 480.0 205.0" stroke="#FF0000" fill="none" stroke-width="4px" />
<path d="M 480.0 205.0 L 490.0 205.0" stroke="#FF0000" fill="none" stroke-width="4px" />
<path d="M 490.0 205.0 L 500.0 205.0" stroke="#FF0000" fill="none" stroke-width="4px" />
<path d="M 500.0 205.0 L 510.0 205.0" stroke="#FF0000" fill="none" stroke-width="4px" />
<path d="M 510.0 205.0 L 520.0 205.0" stroke="#FF0000" fill="none" stroke-width="4px" />
<path d="M 520.0 205.0 L 520.0 195.0" stroke="#FF0000" fill="none" stroke-width="4px" />
<path d="M 520.0 195.0 L 510.0 195.0" stroke="#FF0000" fill="none" stroke-width="4px" />
<path d="M 510.0 195.0 L 500.0 195.0" stroke="#FF0000" fill="none" stroke-width="4px" />
<path d="M 500.0 195.0 L 490.0 195.0" stroke="#FF0000" fill="none" stroke-width="4px" />
<path d="M 490.0 195.0 L 480.0 195.0" stroke="#FF0000" fill="none" stroke-width="4px" />
<path d="M 480.0 195.0 L 470.0 195.0" stroke="#FF0000" fill="none" stroke-width="4px" />
<path d="M 470.0 195.0 L 460.0 195.0" stroke="#FF0000" fill="none" stroke-width="4px" />
<path d="M 460.0 195.0 L 450.0 195.0" stroke="#FF0000" fill="none" stroke-width="4px" />
<path d="M 450.0 195.0 L 440.0 195.0" stroke="#FF0000" fill="none" stroke-width="4px" />
<path d="M 440.0 195.0 L 450.0 185.0" stroke="#FF0000" fill="none" stroke-width="4px" />
<path d="M 450.0 185.0 L 460.0 185.0" stroke="#FF0000" fill="none" stroke-width="4px" />
<path d="M 460.0 185.0 L 470.0 185.0" stroke="#FF0000" fill="none" stroke-width="4px" />
<path d="M 470.0 185.0 L 480.0 185.0" stroke="#FF0000" fill="none" stroke-width="4px" />
<path d="M 480.0 185.0 L 490.0 185.0" stroke="#FF0000" fill="none" stroke-width="4px" />
<path d="M 490.0 185.0 L 500.0 185.0" stroke="#FF0000" fill="none" stroke-width="4px" />
<path d="M 500.0 185.0 L 510.0 185.0" stroke="#FF0000" fill="none" stroke-width="4px" />
<path d="M 510.0 185.0 L 520.0 185.0" stroke="#FF0000" fill="none" stroke-width="4px" />
<path d="M 520.0 185.0 L 530.0 185.0" stroke="#FF0000" fill="none" stroke-width="4px" />
<path d="M 530.0 185.0 L 540.0 185.0" stroke="#FF0000" fill="none" stroke-width="4px" />
<path d="M 540.0 185.0 L 550.0 185.0" stroke="#FF0000" fill="none" stroke-width="4px" />
<path d="M 550.0 185.0 L 550.0 175.0" stroke="#FF0000" fill="none" stroke-width="4px" />
<path d="M 550.0 175.0 L 540.0 175.0" stroke="#FF0000" fill="none" stroke-width="4px" />
<path d="M 540.0 175.0 L 530.0 175.0" stroke="#FF0000" fill="none" stroke-width="4px" />
<path d="M 530.0 175.0 L 520.0 175.0" stroke="#FF0000" fill="none" stroke-width="4px" />
<path d="M 520.0 175.0 L 510.0 175.0" stroke="#FF0000" fill="none" stroke-width="4px" />
<path d="M 510.0 175.0 L 500.0 175.0" stroke="#FF0000" fill="none" stroke-width="4px" />
<path d="M 500.0 175.0 L 490.0 175.0" stroke="#FF0000" fill="none" stroke-width="4px" />
<path d="M 490.0 175.0 L 480.0 175.0" stroke="#FF0000" fill="none" stroke-width="4px" />
<path d="M 480.0 175.0 L 470.0 175.0" stroke="#FF0000" fill="none" stroke-width="4px" />
<path d="M 470.0 175.0 L 460.0 175.0" stroke="#FF0000" fill="none" stroke-width="4px" />
<path d="M 460.0 175.0 L 470.0 165.0" stroke="#FF0000" fill="none" stroke-width="4px" />
<path d="M 470.0 165.0 L 480.0 165.0" stroke="#FF0000" fill="none" stroke-width="4px" />
<path d="M 480.0 165.0 L 490.0 165.0" stroke="#FF0000" fill="none" stroke-width="4px" />
<path d="M 490.0 165.0 L 500.0 165.0" stroke="#FF0000" fill="none" stroke-width="4px" />
<path d="M 500.0 165.0 L 510.0 165.0" stroke="#FF0000" fill="none" stroke-width="4px" />
<path d="M 510.0 165.0 L 520.0 165.0" stroke="#FF0000" fill="none" stroke-width="4px" />
<path d="M 520.0 165.0 L 530.0 165.0" stroke="#FF0000" fill="none" stroke-width="4px" />
<path d="M 530.0 165.0 L 540.0 165.0" stroke="#FF0000" fill="none" stroke-width="4px" />
<path d="M 540.0 165.0 L 550.0 165.0" stroke="#FF0000" fill="none" stroke-width="4px" />
<path d="M 550.0 165.0 L 560.0 165.0" stroke="#FF0000" fill="none" stroke-width="4px" />
<path d="M 560.0 165.0 L 570.0 165.0" stroke="#FF0000" fill="none" stroke-width="4px" />
<path d="M 570.0 165.0 L 570.0 155.0" stroke="#FF0000" fill="none" stroke-width="4px" />
<path d="M 570.0 155.0 L 560.0 155.0" stroke="#FF0000" fill="none" stroke-width="4px" />
<path d="M 560.0 155.0 L 550.0 155.0" stroke="#FF0000" fill="none" stroke-width="4px" />
<path d="M 550.0 155.0 L 540.0 155.0" stroke="#FF0000" fill="none" stroke-width="4px" />
<path d="M 540.0 155.0 L 530.0 155.0" stroke="#FF0000" fill="none" stroke-width="4px" />
<path d="M 530.0 155.0 L 520.0 155.0" stroke="#FF0000" fill="none" stroke-width="4px" />
<path d="M 520.0 155.0 L 510.0 155.0" stroke="#FF0000" fill="none" stroke-width="4px" />
<path d="M 510.0 155.0 L 500.0 155.0" stroke="#FF0000" fill="none" stroke-width="4px" />
<path d="M 500.0 155.0 L 490.0 155.0" stroke="#FF0000" fill="none" stroke-width="4px" />
<path d="M 490.0 155.0 L 480.0 155.0" stroke="#FF0000" fill="none" stroke-width="4px" />
<path d="M 500.0 145.0 L 510.0 145.0" stroke="#FF0000" fill="none" stroke-width="4px" />
<path d="M 510.0 145.0 L 520.0 145.0" stroke="#FF0000" fill="none" stroke-width="4px" />
<path d="M 520.0 145.0 L 530.0 145.0" stroke="#FF0000" fill="none" stroke-width="4px" />
<path d="M 530.0 145.0 L 540.0 145.0" stroke="#FF0000" fill="none" stroke-width="4px" />
<path d="M 540.0 145.0 L 550.0 145.0" stroke="#FF0000" fill="none" stroke-width="4px" />
<path d="M 550.0 145.0 L 560.0 145.0" stroke="#FF0000" fill="none" stroke-width="4px" />
<path d="M 560.0 145.0 L 570.0 145.0" stroke="#FF0000" fill="none" stroke-width="4px" />
<path d="M 570.0 145.0 L 570.0 135.0" stroke="#FF0000" fill="none" stroke-width="4px" />
<path d="M 570.0 135.0 L 560.0 135.0" stroke="#FF0000" fill="none" stroke-width="4px" />
<path d="M 560.0 135.0 L 550.0 135.0" stroke="#FF0000" fill="none" stroke-width="4px" />
<path d="M 550.0 135.0 L 540.0 135.0" stroke="#FF0000" fill="none" stroke-width="4px" />
<path d="M 540.0 135.0 L 530.0 135.0" stroke="#FF0000" fill="none" stroke-width="4px" />
<path d="M 530.0 135.0 L 520.0 135.0" stroke="#FF0000" fill="none" stroke-width="4px" />
<path d="M 520.0 135.0 L 510.0 135.0" stroke="#FF0000" fill="none" stroke-width="4px" />
<path d="M 510.0 135.0 L 520.0 125.0" stroke="#FF0000" fill="none" stroke-width="4px" />
<path d="M 520.0 125.0 L 530.0 125.0" stroke="#FF0000" fill="none" stroke-width="4px" />
<path d="M 530.0 125.0 L 540.0 125.0" stroke="#FF0000" fill="none" stroke-width="4px" />
<path d="M 540.0 125.0 L 550.0 125.0" stroke="#FF0000" fill="none" stroke-width="4px" />
<path d="M 550.0 125.0 L 560.0 125.0" stroke="#FF0000" fill="none" stroke-width="4px" />
<path d="M 560.0 125.0 L 570.0 125.0" stroke="#FF0000" fill="none" stroke-width="4px" />
<path d="M 570.0 125.0 L 560.0 115.0" stroke="#FF0000" fill="none" stroke-width="4px" />
<path d="M 560.0 115.0 L 550.0 115.0" stroke="#FF0000" fill="none" stroke-width="4px" />
<path d="M 550.0 115.0 L 540.0 115.0" stroke="#FF0000" fill="none" stroke-width="4px" />
<path d="M 540.0 115.0 L 530.0 115.0" stroke="#FF0000" fill="none" stroke-width="4px" />
<path d="M 580.0 115.0 L 590.0 115.0" stroke="#FF0000" fill="none" stroke-width="4px" />
<path d="M 590.0 115.0 L 600.0 115.0" stroke="#FF0000" fill="none" stroke-width="4px" />
<path d="M 600.0 115.0 L 610.0 115.0" stroke="#FF0000" fill="none" stroke-width="4px" />
<path d="M 610.0 115.0 L 620.0 115.0" stroke="#FF0000" fill="none" stroke-width="4px" />
<path d="M 620.0 115.0 L 630.0 115.0" stroke="#FF0000" fill="none" stroke-width="4px" />
<path d="M 630.0 115.0 L 630.0 105.0" stroke="#FF0000" fill="none" stroke-width="4px" />
<path d="M 630.0 105.0 L 620.0 105.0" stroke="#FF0000" fill="none" stroke-width="4px" />
<path d="M 620.0 105.0 L 610.0 105.0" stroke="#FF0000" fill="none" stroke-width="4px" />
<path d="M 610.0 105.0 L 600.0 105.0" stroke="#FF0000" fill="none" stroke-width="4px" />
<path d="M 600.0 105.0 L 590.0 105.0" stroke="#FF0000" fill="none" stroke-width="4px" />
<path d="M 590.0 105.0 L 580.0 105.0" stroke="#FF0000" fill="none" stroke-width="4px" />
<path d="M 580.0 105.0 L 590.0 95.0" stroke="#FF0000" fill="none" stroke-width="4px" />
<path d="M 590.0 95.0 L 600.0 95.0" stroke="#FF0000" fill="none" stroke-width="4px" />
<path d="M 600.0 95.0 L 610.0 95.0" stroke="#FF0000" fill="none" stroke-width="4px" />
<path d="M 610.0 95.0 L 620.0 95.0" stroke="#FF0000" fill="none" stroke-width="4px" />
<path d="M 620.0 95.0 L 610.0 85.0" stroke="#FF0000" fill="none" stroke-width="4px" />
<path d="M 610.0 85.0 L 600.0 85.0" stroke="#FF0000" fill="none" stroke-width="4px" />
<path d="M 600.0 125.0 L 590.0 125.0" stroke="#FF0000" fill="none" stroke-width="4px" />
<path d="M 590.0 125.0 L 600.0 135.0" stroke="#FF0000" fill="none" stroke-width="4px" />
<path d="M 600.0 135.0 L 610.0 135.0" stroke="#FF0000" fill="none" stroke-width="4px" />
<path d="M 610.0 135.0 L 610.0 125.0" stroke="#FF0000" fill="none" stroke-width="4px" />
<path d="M 610.0 125.0 L 620.0 125.0" stroke="#FF0000" fill="none" stroke-width="4px" />
<path d="M 540.0 195.0 L 530.0 195.0" stroke="#FF0000" fill="none" stroke-width="4px" />
<path d="M 480.0 215.0 L 470.0 215.0" stroke="#FF0000" fill="none" stroke-width="4px" />
<path d="M 470.0 215.0 L 460.0 215.0" stroke="#FF0000" fill="none" stroke-width="4px" />
<path d="M 460.0 215.0 L 450.0 215.0" stroke="#FF0000" fill="none" stroke-width="4px" />
<path d="M 1210.0 145.0 L 1220.0 145.0" stroke="#FF0000" fill="none" stroke-width="4px" />
<path d="M 1220.0 145.0 L 1230.0 145.0" stroke="#FF0000" fill="none" stroke-width="4px" />
<path d="M 1230.0 145.0 L 1240.0 145.0" stroke="#FF0000" fill="none" stroke-width="4px" />
<path d="M 1240.0 145.0 L 1250.0 145.0" stroke="#FF0000" fill="none" stroke-width="4px" />
<path d="M 1250.0 145.0 L 1260.0 145.0" stroke="#FF0000" fill="none" stroke-width="4px" />
<path d="M 1260.0 145.0 L 1270.0 145.0" stroke="#FF0000" fill="none" stroke-width="4px" />
<path d="M 1270.0 145.0 L 1270.0 155.0" stroke="#FF0000" fill="none" stroke-width="4px" />
<path d="M 1270.0 155.0 L 1260.0 155.0" stroke="#FF0000" fill="none" stroke-width="4px" />
<path d="M 1260.0 155.0 L 1250.0 155.0" stroke="#FF0000" fill="none" stroke-width="4px" />
<path d="M 1250.0 155.0 L 1240.0 155.0" stroke="#FF0000" fill="none" stroke-width="4px" />
<path d="M 1240.0 155.0 L 1230.0 155.0" stroke="#FF0000" fill="none" stroke-width="4px" />
<path d="M 1230.0 155.0 L 1220.0 155.0" stroke="#FF0000" fill="none" stroke-width="4px" />
<path d="M 1220.0 155.0 L 1230.0 165.0" stroke="#FF0000" fill="none" stroke-width="4px" />
<path d="M 1230.0 165.0 L 1240.0 165.0" stroke="#FF0000" fill="none" stroke-width="4px" />
<path d="M 1240.0 165.0 L 1250.0 165.0" stroke="#FF0000" fill="none" stroke-width="4px" />
<path d="M 1250.0 165.0 L 1260.0 165.0" stroke="#FF0000" fill="none" stroke-width="4px" />
<path d="M 1260.0 165.0 L 1250.0 175.0" stroke="#FF0000" fill="none" stroke-width="4px" />
<path d="M 1250.0 175.0 L 1240.0 175.0" stroke="#FF0000" fill="none" stroke-width="4px" />
<path d="M 1240.0 135.0 L 1230.0 135.0" stroke="#FF0000" fill="none" stroke-width="4px" />
<path d="M 1230.0 135.0 L 1220.0 135.0" stroke="#FF0000" fill="none" stroke-width="4px" />
<path d="M 1220.0 135.0 L 1210.0 135.0" stroke="#FF0000" fill="none" stroke-width="4px" />
<path d="M 1210.0 135.0 L 1210.0 125.0" stroke="#FF0000" fill="none" stroke-width="4px" />
<path d="M 1210.0 125.0 L 1220.0 125.0" stroke="#FF0000" fill="none" stroke-width="4px" />
<path d="M 1220.0 125.0 L 1230.0 125.0" stroke="#FF0000" fill="none" stroke-width="4px" />
<path d="M 1230.0 125.0 L 1240.0 125.0" stroke="#FF0000" fill="none" stroke-width="4px" />
<path d="M 1240.0 125.0 L 1250.0 125.0" stroke="#FF0000" fill="none" stroke-width="4px" />
<path d="M 1250.0 125.0 L 1260.0 125.0" stroke="#FF0000" fill="none" stroke-width="4px" />
<path d="M 1260.0 125.0 L 1270.0 125.0" stroke="#FF0000" fill="none" stroke-width="4px" />
<path d="M 1270.0 125.0 L 1280.0 125.0" stroke="#FF0000" fill="none" stroke-width="4px" />
<path d="M 1280.0 125.0 L 1280.0 135.0" stroke="#FF0000" fill="none" stroke-width="4px" />
<path d="M 1280.0 135.0 L 1270.0 135.0" stroke="#FF0000" fill="none" stroke-width="4px" />
<path d="M 1270.0 135.0 L 1260.0 135.0" stroke="#FF0000" fill="none" stroke-width="4px" />
<path d="M 1260.0 135.0 L 1250.0 135.0" stroke="#FF0000" fill="none" stroke-width="4px" />
<path d="M 1250.0 115.0 L 1240.0 115.0" stroke="#FF0000" fill="none" stroke-width="4px" />
<path d="M 1240.0 115.0 L 1230.0 115.0" stroke="#FF0000" fill="none" stroke-width="4px" />
<path d="M 1230.0 115.0 L 1220.0 115.0" stroke="#FF0000" fill="none" stroke-width="4px" />
<path d="M 1220.0 115.0 L 1210.0 115.0" stroke="#FF0000" fill="none" stroke-width="4px" />
<path d="M 1210.0 115.0 L 1220.0 105.0" stroke="#FF0000" fill="none" stroke-width="4px" />
<path d="M 1220.0 105.0 L 1230.0 105.0" stroke="#FF0000" fill="none" stroke-width="4px" />
<path d="M 1230.0 105.0 L 1240.0 105.0" stroke="#FF0000" fill="none" stroke-width="4px" />
<path d="M 1240.0 105.0 L 1250.0 105.0" stroke="#FF0000" fill="none" stroke-width="4px" />
<path d="M 1250.0 105.0 L 1260.0 105.0" stroke="#FF0000" fill="none" stroke-width="4px" />
<path d="M 1260.0 105.0 L 1260.0 115.0" stroke="#FF0000" fill="none" stroke-width="4px" />
<path d="M 1260.0 115.0 L 1270.0 115.0" stroke="#FF0000" fill="none" stroke-width="4px" />
<path d="M 1240.0 95.0 L 1230.0 95.0" stroke="#FF0000" fill="none" stroke-width="4px" />
<path d="M 1310.0 135.0 L 1320.0 135.0" stroke="#FF0000" fill="none" stroke-width="4px" />
<path d="M 1320.0 135.0 L 1320.0 145.0" stroke="#FF0000" fill="none" stroke-width="4px" />
<path d="M 1320.0 145.0 L 1310.0 145.0" stroke="#FF0000" fill="none" stroke-width="4px" />
<path d="M 1310.0 145.0 L 1300.0 145.0" stroke="#FF0000" fill="none" stroke-width="4px" />
<path d="M 1300.0 145.0 L 1300.0 155.0" stroke="#FF0000" fill="none" stroke-width="4px" />
<path d="M 1300.0 155.0 L 1310.0 155.0" stroke="#FF0000" fill="none" stroke-width="4px" />
<path d="M 1310.0 155.0 L 1320.0 155.0" stroke="#FF0000" fill="none" stroke-width="4px" />
<path d="M 1320.0 155.0 L 1330.0 155.0" stroke="#FF0000" fill="none" stroke-width="4px" />
<path d="M 1330.0 155.0 L 1330.0 145.0" stroke="#FF0000" fill="none" stroke-width="4px" />
<path d="M 1320.0 165.0 L 1310.0 165.0" stroke="#FF0000" fill="none" stroke-width="4px" />
<path d="M 1310.0 165.0 L 1310.0 175.0" stroke="#FF0000" fill="none" stroke-width="4px" />
<path d="M 1390.0 105.0 L 1390.0 95.0" stroke="#FF0000" fill="none" stroke-width="4px" />
<path d="M 1390.0 95.0 L 1380.0 95.0" stroke="#FF0000" fill="none" stroke-width="4px" />
<path d="M 1380.0 95.0 L 1380.0 85.0" stroke="#FF0000" fill="none" stroke-width="4px" />
<path d="M 1380.0 85.0 L 1370.0 85.0" stroke="#FF0000" fill="none" stroke-width="4px" />
<path d="M 1370.0 85.0 L 1360.0 85.0" stroke="#FF0000" fill="none" stroke-width="4px" />
<path d="M 1360.0 85.0 L 1350.0 85.0" stroke="#FF0000" fill="none" stroke-width="4px" />
<path d="M 1350.0 85.0 L 1350.0 75.0" stroke="#FF0000" fill="none" stroke-width="4px" />
<path d="M 1350.0 75.0 L 1340.0 75.0" stroke="#FF0000" fill="none" stroke-width="4px" />
<path d="M 1340.0 75.0 L 1340.0 65.0" stroke="#FF0000" fill="none" stroke-width="4px" />
<path d="M 1340.0 65.0 L 1350.0 65.0" stroke="#FF0000" fill="none" stroke-width="4px" />
<path d="M 1350.0 65.0 L 1360.0 65.0" stroke="#FF0000" fill="none" stroke-width="4px" />
<path d="M 1360.0 65.0 L 1370.0 65.0" stroke="#FF0000" fill="none" stroke-width="4px" />
<path d="M 1370.0 65.0 L 1380.0 65.0" stroke="#FF0000" fill="none" stroke-width="4px" />
<path d="M 1380.0 65.0 L 1390.0 65.0" stroke="#FF0000" fill="none" stroke-width="4px" />
<path d="M 1390.0 65.0 L 1400.0 65.0" stroke="#FF0000" fill="none" stroke-width="4px" />
<path d="M 1400.0 65.0 L 1410.0 65.0" stroke="#FF0000" fill="none" stroke-width="4px" />
<path d="M 1410.0 65.0 L 1410.0 75.0" stroke="#FF0000" fill="none" stroke-width="4px" />
<path d="M 1410.0 75.0 L 1400.0 75.0" stroke="#FF0000" fill="none" stroke-width="4px" />
<path d="M 1400.0 75.0 L 1390.0 75.0" stroke="#FF0000" fill="none" stroke-width="4px" />
<path d="M 1390.0 75.0 L 1380.0 75.0" stroke="#FF0000" fill="none" stroke-width="4px" />
<path d="M 1380.0 75.0 L 1370.0 75.0" stroke="#FF0000" fill="none" stroke-width="4px" />
<path d="M 1370.0 75.0 L 1360.0 75.0" stroke="#FF0000" fill="none" stroke-width="4px" />
<path d="M 1360.0 55.0 L 1350.0 55.0" stroke="#FF0000" fill="none" stroke-width="4px" />
<path d="M 1350.0 55.0 L 1340.0 55.0" stroke="#FF0000" fill="none" stroke-width="4px" />
<path d="M 1340.0 55.0 L 1350.0 45.0" stroke="#FF0000" fill="none" stroke-width="4px" />
<path d="M 1350.0 45.0 L 1360.0 45.0" stroke="#FF0000" fill="none" stroke-width="4px" />
<path d="M 1360.0 45.0 L 1370.0 45.0" stroke="#FF0000" fill="none" stroke-width="4px" />
<path d="M 1370.0 45.0 L 1380.0 45.0" stroke="#FF0000" fill="none" stroke-width="4px" />
<path d="M 1380.0 45.0 L 1390.0 45.0" stroke="#FF0000" fill="none" stroke-width="4px" />
<path d="M 1390.0 45.0 L 1390.0 55.0" stroke="#FF0000" fill="none" stroke-width="4px" />
<path d="M 1390.0 55.0 L 1380.0 55.0" stroke="#FF0000" fill="none" stroke-width="4px" />
<path d="M 1380.0 55.0 L 1370.0 55.0" stroke="#FF0000" fill="none" stroke-width="4px" />
<path d="M 1370.0 35.0 L 1360.0 35.0" stroke="#FF0000" fill="none" stroke-width="4px" />
<path d="M 1400.0 85.0 L 1390.0 85.0" stroke="#FF0000" fill="none" stroke-width="4px" />
<path d="M 1390.0 85.0 L 1400.0 95.0" stroke="#FF0000" fill="none" stroke-width="4px" />
<path d="M 1400.0 95.0 L 1410.0 85.0" stroke="#FF0000" fill="none" stroke-width="4px" />
<path d="M 1620.0 5.0 L 1630.0 5.0" stroke="#FF0000" fill="none" stroke-width="4px" />
<path d="M 1630.0 5.0 L 1640.0 5.0" stroke="#FF0000" fill="none" stroke-width="4px" />
<path d="M 1640.0 5.0 L 1650.0 5.0" stroke="#FF0000" fill="none" stroke-width="4px" />
<path d="M 1650.0 5.0 L 1660.0 5.0" stroke="#FF0000" fill="none" stroke-width="4px" />
<path d="M 1660.0 5.0 L 1670.0 5.0" stroke="#FF0000" fill="none" stroke-width="4px" />
<path d="M 1670.0 5.0 L 1680.0 5.0" stroke="#FF0000" fill="none" stroke-width="4px" />
<path d="M 1680.0 5.0 L 1690.0 5.0" stroke="#FF0000" fill="none" stroke-width="4px" />
<path d="M 1690.0 5.0 L 1700.0 5.0" stroke="#FF0000" fill="none" stroke-width="4px" />
<path d="M 1700.0 5.0 L 1710.0 5.0" stroke="#FF0000" fill="none" stroke-width="4px" />
<path d="M 1710.0 5.0 L 1720.0 5.0" stroke="#FF0000" fill="none" stroke-width="4px" />
<path d="M 1720.0 5.0 L 1730.0 5.0" stroke="#FF0000" fill="none" stroke-width="4px" />
<path d="M 1730.0 5.0 L 1740.0 5.0" stroke="#FF0000" fill="none" stroke-width="4px" />
<path d="M 1740.0 5.0 L 1740.0 15.0" stroke="#FF0000" fill="none" stroke-width="4px" />
<path d="M 1740.0 15.0 L 1730.0 15.0" stroke="#FF0000" fill="none" stroke-width="4px" />
<path d="M 1730.0 15.0 L 1720.0 15.0" stroke="#FF0000" fill="none" stroke-width="4px" />
<path d="M 1720.0 15.0 L 1710.0 15.0" stroke="#FF0000" fill="none" stroke-width="4px" />
<path d="M 1710.0 15.0 L 1700.0 15.0" stroke="#FF0000" fill="none" stroke-width="4px" />
<path d="M 1700.0 15.0 L 1690.0 15.0" stroke="#FF0000" fill="none" stroke-width="4px" />
<path d="M 1690.0 15.0 L 1680.0 15.0" stroke="#FF0000" fill="none" stroke-width="4px" />
<path d="M 1680.0 15.0 L 1670.0 15.0" stroke="#FF0000" fill="none" stroke-width="4px" />
<path d="M 1670.0 15.0 L 1660.0 15.0" stroke="#FF0000" fill="none" stroke-width="4px" />
<path d="M 1660.0 15.0 L 1650.0 15.0" stroke="#FF0000" fill="none" stroke-width="4px" />
<path d="M 1650.0 15.0 L 1640.0 15.0" stroke="#FF0000" fill="none" stroke-width="4px" />
<path d="M 1640.0 15.0 L 1630.0 15.0" stroke="#FF0000" fill="none" stroke-width="4px" />
<path d="M 1630.0 15.0 L 1640.0 25.0" stroke="#FF0000" fill="none" stroke-width="4px" />
<path d="M 1640.0 25.0 L 1650.0 25.0" stroke="#FF0000" fill="none" stroke-width="4px" />
<path d="M 1650.0 25.0 L 1660.0 25.0" stroke="#FF0000" fill="none" stroke-width="4px" />
<path d="M 1660.0 25.0 L 1670.0 25.0" stroke="#FF0000" fill="none" stroke-width="4px" />
<path d="M 1670.0 25.0 L 1680.0 25.0" stroke="#FF0000" fill="none" stroke-width="4px" />
<path d="M 1680.0 25.0 L 1690.0 25.0" stroke="#FF0000" fill="none" stroke-width="4px" />
<path d="M 1690.0 25.0 L 1700.0 25.0" stroke="#FF0000" fill="none" stroke-width="4px" />
<path d="M 1700.0 25.0 L 1710.0 25.0" stroke="#FF0000" fill="none" stroke-width="4px" />
<path d="M 1710.0 25.0 L 1720.0 25.0" stroke="#FF0000" fill="none" stroke-width="4px" />
<path d="M 1720.0 25.0 L 1730.0 25.0" stroke="#FF0000" fill="none" stroke-width="4px" />
<path d="M 1730.0 25.0 L 1740.0 25.0" stroke="#FF0000" fill="none" stroke-width="4px" />
<path d="M 1740.0 25.0 L 1750.0 25.0" stroke="#FF0000" fill="none" stroke-width="4px" />
<path d="M 1750.0 25.0 L 1750.0 35.0" stroke="#FF0000" fill="none" stroke-width="4px" />
<path d="M 1750.0 35.0 L 1740.0 35.0" stroke="#FF0000" fill="none" stroke-width="4px" />
<path d="M 1740.0 35.0 L 1730.0 35.0" stroke="#FF0000" fill="none" stroke-width="4px" />
<path d="M 1730.0 35.0 L 1720.0 35.0" stroke="#FF0000" fill="none" stroke-width="4px" />
<path d="M 1720.0 35.0 L 1710.0 35.0" stroke="#FF0000" fill="none" stroke-width="4px" />
<path d="M 1710.0 35.0 L 1700.0 35.0" stroke="#FF0000" fill="none" stroke-width="4px" />
<path d="M 1700.0 35.0 L 1690.0 35.0" stroke="#FF0000" fill="none" stroke-width="4px" />
<path d="M 1690.0 35.0 L 1680.0 35.0" stroke="#FF0000" fill="none" stroke-width="4px" />
<path d="M 1680.0 35.0 L 1670.0 35.0" stroke="#FF0000" fill="none" stroke-width="4px" />
<path d="M 1670.0 35.0 L 1660.0 35.0" stroke="#FF0000" fill="none" stroke-width="4px" />
<path d="M 1660.0 35.0 L 1650.0 35.0" stroke="#FF0000" fill="none" stroke-width="4px" />
<path d="M 1650.0 35.0 L 1650.0 45.0" stroke="#FF0000" fill="none" stroke-width="4px" />
<path d="M 1650.0 45.0 L 1660.0 45.0" stroke="#FF0000" fill="none" stroke-width="4px" />
<path d="M 1660.0 45.0 L 1670.0 45.0" stroke="#FF0000" fill="none" stroke-width="4px" />
<path d="M 1670.0 45.0 L 1680.0 45.0" stroke="#FF0000" fill="none" stroke-width="4px" />
<path d="M 1680.0 45.0 L 1690.0 45.0" stroke="#FF0000" fill="none" stroke-width="4px" />
<path d="M 1690.0 45.0 L 1700.0 45.0" stroke="#FF0000" fill="none" stroke-width="4px" />
<path d="M 1700.0 45.0 L 1710.0 45.0" stroke="#FF0000" fill="none" stroke-width="4px" />
<path d="M 1710.0 45.0 L 1720.0 45.0" stroke="#FF0000" fill="none" stroke-width="4px" />
<path d="M 1720.0 45.0 L 1730.0 45.0" stroke="#FF0000" fill="none" stroke-width="4px" />
<path d="M 1730.0 45.0 L 1740.0 45.0" stroke="#FF0000" fill="none" stroke-width="4px" />
<path d="M 1740.0 45.0 L 1750.0 45.0" stroke="#FF0000" fill="none" stroke-width="4px" />
<path d="M 1750.0 45.0 L 1750.0 55.0" stroke="#FF0000" fill="none" stroke-width="4px" />
<path d="M 1750.0 55.0 L 1740.0 55.0" stroke="#FF0000" fill="none" stroke-width="4px" />
<path d="M 1740.0 55.0 L 1730.0 55.0" stroke="#FF0000" fill="none" stroke-width="4px" />
<path d="M 1730.0 55.0 L 1720.0 55.0" stroke="#FF0000" fill="none" stroke-width="4px" />
<path d="M 1720.0 55.0 L 1710.0 55.0" stroke="#FF0000" fill="none" stroke-width="4px" />
<path d="M 1710.0 55.0 L 1700.0 55.0" stroke="#FF0000" fill="none" stroke-width="4px" />
<path d="M 1700.0 55.0 L 1690.0 55.0" stroke="#FF0000" fill="none" stroke-width="4px" />
<path d="M 1690.0 55.0 L 1680.0 55.0" stroke="#FF0000" fill="none" stroke-width="4px" />
<path d="M 1680.0 55.0 L 1670.0 55.0" stroke="#FF0000" fill="none" stroke-width="4px" />
<path d="M 1670.0 55.0 L 1660.0 55.0" stroke="#FF0000" fill="none" stroke-width="4px" />
<path d="M 1690.0 65.0 L 1700.0 65.0" stroke="#FF0000" fill="none" stroke-width="4px" />
<path d="M 1700.0 65.0 L 1710.0 65.0" stroke="#FF0000" fill="none" stroke-width="4px" />
<path d="M 1710.0 65.0 L 1720.0 65.0" stroke="#FF0000" fill="none" stroke-width="4px" />
<path d="M 1720.0 65.0 L 1730.0 65.0" stroke="#FF0000" fill="none" stroke-width="4px" />
<path d="M 1730.0 65.0 L 1740.0 65.0" stroke="#FF0000" fill="none" stroke-width="4px" />
<path d="M 1740.0 65.0 L 1750.0 65.0" stroke="#FF0000" fill="none" stroke-width="4px" />
<path d="M 1750.0 65.0 L 1740.0 75.0" stroke="#FF0000" fill="none" stroke-width="4px" />
<path d="M 1740.0 75.0 L 1730.0 75.0" stroke="#FF0000" fill="none" stroke-width="4px" />
<path d="M 1730.0 75.0 L 1720.0 75.0" stroke="#FF0000" fill="none" stroke-width="4px" />
<path d="M 1720.0 75.0 L 1710.0 75.0" stroke="#FF0000" fill="none" stroke-width="4px" />
<path d="M 1710.0 75.0 L 1700.0 75.0" stroke="#FF0000" fill="none" stroke-width="4px" />
<path d="M 1700.0 75.0 L 1710.0 85.0" stroke="#FF0000" fill="none" stroke-width="4px" />
<path d="M 1710.0 85.0 L 1720.0 85.0" stroke="#FF0000" fill="none" stroke-width="4px" />
<path d="M 1720.0 85.0 L 1730.0 85.0" stroke="#FF0000" fill="none" stroke-width="4px" />
<path d="M 1730.0 85.0 L 1740.0 85.0" stroke="#FF0000" fill="none" stroke-width="4px" />
<path d="M 1740.0 85.0 L 1750.0 85.0" stroke="#FF0000" fill="none" stroke-width="4px" />
<path d="M 1750.0 85.0 L 1750.0 95.0" stroke="#FF0000" fill="none" stroke-width="4px" />
<path d="M 1750.0 95.0 L 1740.0 95.0" stroke="#FF0000" fill="none" stroke-width="4px" />
<path d="M 1740.0 95.0 L 1730.0 95.0" stroke="#FF0000" fill="none" stroke-width="4px" />
<path d="M 1730.0 95.0 L 1720.0 95.0" stroke="#FF0000" fill="none" stroke-width="4px" />
<path d="M 1720.0 95.0 L 1710.0 95.0" stroke="#FF0000" fill="none" stroke-width="4px" />
<path d="M 1710.0 95.0 L 1700.0 95.0" stroke="#FF0000" fill="none" stroke-width="4px" />
<path d="M 1700.0 95.0 L 1700.0 105.0" stroke="#FF0000" fill="none" stroke-width="4px" />
<path d="M 1700.0 105.0 L 1690.0 105.0" stroke="#FF0000" fill="none" stroke-width="4px" />
<path d="M 1690.0 105.0 L 1690.0 115.0" stroke="#FF0000" fill="none" stroke-width="4px" />
<path d="M 1690.0 115.0 L 1700.0 115.0" stroke="#FF0000" fill="none" stroke-width="4px" />
<path d="M 1700.0 115.0 L 1710.0 115.0" stroke="#FF0000" fill="none" stroke-width="4px" />
<path d="M 1710.0 115.0 L 1720.0 115.0" stroke="#FF0000" fill="none" stroke-width="4px" />
<path d="M 1720.0 115.0 L 1730.0 115.0" stroke="#FF0000" fill="none" stroke-width="4px" />
<path d="M 1730.0 115.0 L 1740.0 115.0" stroke="#FF0000" fill="none" stroke-width="4px" />
<path d="M 1740.0 115.0 L 1750.0 115.0" stroke="#FF0000" fill="none" stroke-width="4px" />
<path d="M 1750.0 115.0 L 1760.0 115.0" stroke="#FF0000" fill="none" stroke-width="4px" />
<path d="M 1760.0 115.0 L 1760.0 105.0" stroke="#FF0000" fill="none" stroke-width="4px" />
<path d="M 1760.0 105.0 L 1750.0 105.0" stroke="#FF0000" fill="none" stroke-width="4px" />
<path d="M 1750.0 105.0 L 1740.0 105.0" stroke="#FF0000" fill="none" stroke-width="4px" />
<path d="M 1740.0 105.0 L 1730.0 105.0" stroke="#FF0000" fill="none" stroke-width="4px" />
<path d="M 1730.0 105.0 L 1720.0 105.0" stroke="#FF0000" fill="none" stroke-width="4px" />
<path d="M 1720.0 105.0 L 1710.0 105.0" stroke="#FF0000" fill="none" stroke-width="4px" />
<path d="M 1710.0 125.0 L 1700.0 125.0" stroke="#FF0000" fill="none" stroke-width="4px" />
<path d="M 1700.0 125.0 L 1690.0 125.0" stroke="#FF0000" fill="none" stroke-width="4px" />
<path d="M 1690.0 125.0 L 1700.0 135.0" stroke="#FF0000" fill="none" stroke-width="4px" />
<path d="M 1700.0 135.0 L 1710.0 135.0" stroke="#FF0000" fill="none" stroke-width="4px" />
<path d="M 1710.0 135.0 L 1720.0 135.0" stroke="#FF0000" fill="none" stroke-width="4px" />
<path d="M 1720.0 135.0 L 1730.0 135.0" stroke="#FF0000" fill="none" stroke-width="4px" />
<path d="M 1730.0 135.0 L 1740.0 135.0" stroke="#FF0000" fill="none" stroke-width="4px" />
<path d="M 1740.0 135.0 L 1740.0 125.0" stroke="#FF0000" fill="none" stroke-width="4px" />
<path d="M 1740.0 125.0 L 1730.0 125.0" stroke="#FF0000" fill="none" stroke-width="4px" />
<path d="M 1730.0 125.0 L 1720.0 125.0" stroke="#FF0000" fill="none" stroke-width="4px" />
<path d="M 1740.0 -5.0 L 1730.0 -5.0" stroke="#FF0000" fill="none" stroke-width="4px" />
<path d="M 1730.0 -5.0 L 1720.0 -5.0" stroke="#FF0000" fill="none" stroke-width="4px" />
<path d="M 1720.0 -5.0 L 1710.0 -5.0" stroke="#FF0000" fill="none" stroke-width="4px" />
<path d="M 1710.0 -5.0 L 1700.0 -5.0" stroke="#FF0000" fill="none" stroke-width="4px" />
<path d="M 1700.0 -5.0 L 1690.0 -5.0" stroke="#FF0000" fill="none" stroke-width="4px" />
<path d="M 1690.0 -5.0 L 1680.0 -5.0" stroke="#FF0000" fill="none" stroke-width="4px" />
<path d="M 1680.0 -5.0 L 1670.0 -5.0" stroke="#FF0000" fill="none" stroke-width="4px" />
<path d="M 1670.0 -5.0 L 1660.0 -5.0" stroke="#FF0000" fill="none" stroke-width="4px" />
<path d="M 1660.0 -5.0 L 1650.0 -5.0" stroke="#FF0000" fill="none" stroke-width="4px" />
<path d="M 1650.0 -5.0 L 1640.0 -5.0" stroke="#FF0000" fill="none" stroke-width="4px" />
<path d="M 1640.0 -5.0 L 1630.0 -5.0" stroke="#FF0000" fill="none" stroke-width="4px" />
<path d="M 2160.0 75.0 L 2150.0 75.0" stroke="#FF0000" fill="none" stroke-width="4px" />
<path d="M 2150.0 75.0 L 2140.0 75.0" stroke="#FF0000" fill="none" stroke-width="4px" />
<path d="M 2140.0 75.0 L 2130.0 75.0" stroke="#FF0000" fill="none" stroke-width="4px" />
<path d="M 2130.0 75.0 L 2120.0 75.0" stroke="#FF0000" fill="none" stroke-width="4px" />
<path d="M 2120.0 75.0 L 2110.0 75.0" stroke="#FF0000" fill="none" stroke-width="4px" />
<path d="M 2110.0 75.0 L 2100.0 75.0" stroke="#FF0000" fill="none" stroke-width="4px" />
<path d="M 2100.0 75.0 L 2100.0 65.0" stroke="#FF0000" fill="none" stroke-width="4px" />
<path d="M 2100.0 65.0 L 2090.0 65.0" stroke="#FF0000" fill="none" stroke-width="4px" />
<path d="M 2090.0 65.0 L 2090.0 55.0" stroke="#FF0000" fill="none" stroke-width="4px" />
<path d="M 2090.0 55.0 L 2100.0 55.0" stroke="#FF0000" fill="none" stroke-width="4px" />
<path d="M 2100.0 55.0 L 2110.0 55.0" stroke="#FF0000" fill="none" stroke-width="4px" />
<path d="M 2110.0 55.0 L 2120.0 55.0" stroke="#FF0000" fill="none" stroke-width="4px" />
<path d="M 2120.0 55.0 L 2130.0 55.0" stroke="#FF0000" fill="none" stroke-width="4px" />
<path d="M 2130.0 55.0 L 2140.0 55.0" stroke="#FF0000" fill="none" stroke-width="4px" />
<path d="M 2140.0 55.0 L 2150.0 55.0" stroke="#FF0000" fill="none" stroke-width="4px" />
<path d="M 2150.0 55.0 L 2160.0 55.0" stroke="#FF0000" fill="none" stroke-width="4px" />
<path d="M 2160.0 55.0 L 2170.0 55.0" stroke="#FF0000" fill="none" stroke-width="4px" />
<path d="M 2170.0 55.0 L 2170.0 65.0" stroke="#FF0000" fill="none" stroke-width="4px" />
<path d="M 2170.0 65.0 L 2160.0 65.0" stroke="#FF0000" fill="none" stroke-width="4px" />
<path d="M 2160.0 65.0 L 2150.0 65.0" stroke="#FF0000" fill="none" stroke-width="4px" />
<path d="M 2150.0 65.0 L 2140.0 65.0" stroke="#FF0000" fill="none" stroke-width="4px" />
<path d="M 2140.0 65.0 L 2130.0 65.0" stroke="#FF0000" fill="none" stroke-width="4px" />
<path d="M 2130.0 65.0 L 2120.0 65.0" stroke="#FF0000" fill="none" stroke-width="4px" />
<path d="M 2120.0 65.0 L 2110.0 65.0" stroke="#FF0000" fill="none" stroke-width="4px" />
<path d="M 2110.0 85.0 L 2120.0 85.0" stroke="#FF0000" fill="none" stroke-width="4px" />
<path d="M 2120.0 85.0 L 2130.0 85.0" stroke="#FF0000" fill="none" stroke-width="4px" />
<path d="M 2130.0 85.0 L 2140.0 85.0" stroke="#FF0000" fill="none" stroke-width="4px" />
<path d="M 2140.0 85.0 L 2150.0 85.0" stroke="#FF0000" fill="none" stroke-width="4px" />
<path d="M 2150.0 45.0 L 2140.0 45.0" stroke="#FF0000" fill="none" stroke-width="4px" />
<path d="M 2140.0 45.0 L 2130.0 45.0" stroke="#FF0000" fill="none" stroke-width="4px" />
<path d="M 2130.0 45.0 L 2120.0 45.0" stroke="#FF0000" fill="none" stroke-width="4px" />
<path d="M 2120.0 45.0 L 2110.0 45.0" stroke="#FF0000" fill="none" stroke-width="4px" />
<path d="M 2110.0 45.0 L 2100.0 45.0" stroke="#FF0000" fill="none" stroke-width="4px" />
<path d="M 2100.0 45.0 L 2090.0 45.0" stroke="#FF0000" fill="none" stroke-width="4px" />
<path d="M 2090.0 45.0 L 2090.0 35.0" stroke="#FF0000" fill="none" stroke-width="4px" />
<path d="M 2090.0 35.0 L 2100.0 35.0" stroke="#FF0000" fill="none" stroke-width="4px" />
<path d="M 2100.0 35.0 L 2110.0 35.0" stroke="#FF0000" fill="none" stroke-width="4px" />
<path d="M 2110.0 35.0 L 2120.0 35.0" stroke="#FF0000" fill="none" stroke-width="4px" />
<path d="M 2120.0 35.0 L 2130.0 35.0" stroke="#FF0000" fill="none" stroke-width="4px" />
<path d="M 2130.0 35.0 L 2140.0 35.0" stroke="#FF0000" fill="none" stroke-width="4px" />
<path d="M 2140.0 35.0 L 2150.0 35.0" stroke="#FF0000" fill="none" stroke-width="4px" />
<path d="M 2150.0 35.0 L 2160.0 45.0" stroke="#FF0000" fill="none" stroke-width="4px" />
<path d="M 2140.0 25.0 L 2130.0 25.0" stroke="#FF0000" fill="none" stroke-width="4px" />
<path d="M 2130.0 25.0 L 2120.0 25.0" stroke="#FF0000" fill="none" stroke-width="4px" />
<path d="M 2120.0 25.0 L 2110.0 25.0" stroke="#FF0000" fill="none" stroke-width="4px" />
<path d="M 2110.0 25.0 L 2100.0 25.0" stroke="#FF0000" fill="none" stroke-width="4px" />
<path d="M 2100.0 25.0 L 2110.0 15.0" stroke="#FF0000" fill="none" stroke-width="4px" />
<path d="M 2110.0 15.0 L 2120.0 15.0" stroke="#FF0000" fill="none" stroke-width="4px" />
<path d="M 2120.0 15.0 L 2130.0 15.0" stroke="#FF0000" fill="none" stroke-width="4px" />
<path d="M 2130.0 15.0 L 2120.0 5.0" stroke="#FF0000" fill="none" stroke-width="4px" />
</svg>