<svg width="1332.95833333" height="235.0" xmlns="http://www.w3.org/2000/svg" version="1.1">
<path d="M 0.0 235.0 L 1332.95833333 235.0 L 1332.95833333 0.0 L 0.0 0.0 L 0.0 235.0" stroke="#000000" fill="none" stroke-width="3px" />
<path d="M 10.0 257.5 L 0.0 247.5 L 10.0 237.5" stroke="#969696" fill="none" stroke-width="1px" />
<path d="M 10.0 237.5 L 1322.95833333 237.5" stroke="#969696" fill="none" stroke-width="1px" />
<path d="M 1322.95833333 237.5 L 1332.95833333 227.5 L 1322.95833333 217.5" stroke="#969696" fill="none" stroke-width="1px" />
<path d="M 1322.95833333 217.5 L 10.0 217.5" stroke="#969696" fill="none" stroke-width="1px" />
<path d="M 10.0 217.5 L 0.0 207.5 L 10.0 197.5" stroke="#969696" fill="none" stroke-width="1px" />
<path d="M 10.0 197.5 L 1322.95833333 197.5" stroke="#969696" fill="none" stroke-width="1px" />
<path d="M 1322.95833333 197.5 L 1332.95833333 187.5 L 1322.95833333 177.5" stroke="#969696" fill="none" stroke-width="1px" />
<path d="M 1322.95833333 177.5 L 10.0 177.5" stroke="#969696" fill="none" stroke-width="1px" />
<path d="M 10.0 177.5 L 0.0 167.5 L 10.0 157.5" stroke="#969696" fill="none" stroke-width="1px" />
<path d="M 10.0 157.5 L 1322.95833333 157.5" stroke="#969696" fill="none" stroke-width="1px" />
<path d="M 1322.95833333 157.5 L 1332.95833333 147.5 L 1322.95833333 137.5" stroke="#969696" fill="none" stroke-width="1px" />
<path d="M 1322.95833333 137.5 L 10.0 137.5" stroke="#969696" fill="none" stroke-width="1px" />
<path d="M 10.0 137.5 L 0.0 127.5 L 10.0 117.5" stroke="#969696" fill="none" stroke-width="1px" />
<path d="M 10.0 117.5 L 1322.95833333 117.5" stroke="#969696" fill="none" stroke-width="1px" />
<path d="M 1322.95833333 117.5 L 1332.95833333 107.5 L 1322.95833333 97.5" stroke="#969696" fill="none" stroke-width="1px" />
<path d="M 1322.95833333 97.5 L 10.0 97.5" stroke="#969696" fill="none" stroke-width="1px" />
<path d="M 10.0 97.5 L 0.0 87.5 L 10.0 77.5" stroke="#969696" fill="none" stroke-width="1px" />
<path d="M 10.0 77.5 L 1322.95833333 77.5" stroke="#969696" fill="none" stroke-width="1px" />
<path d="M 1322.95833333 77.5 L 1332.95833333 67.5 L 1322.95833333 57.5" stroke="#969696" fill="none" stroke-width="1px" />
<path d="M 1322.95833333 57.5 L 10.0 57.5" stroke="#969696" fill="none" stroke-width="1px" />
<path d="M 10.0 57.5 L 0.0 47.5 L 10.0 37.5" stroke="#969696" fill="none" stroke-width="1px" />
<path d="M 10.0 37.5 L 1322.95833333 37.5" stroke="#969696" fill="none" stroke-width="1px" />
<path d="M 1322.95833333 37.5 L 1332.95833333 27.5 L 1322.95833333 17.5" stroke="#969696" fill="none" stroke-width="1px" />
<path d="M 1322.95833333 17.5 L 10.0 17.5" stroke="#969696" fill="none" stroke-width="1px" />
<path d="M 10.0 17.5 L 0.0 7.5 L 10.0 -2.5" stroke="#969696" fill="none" stroke-width="1px" />
<path d="M 10.0 -2.5 L 1322.95833333 -2.5" stroke="#969696" fill="none" stroke-width="1px" />
<path d="M 1322.95833333 -2.5 L 1332.95833333 -12.5 L 1322.95833333 -22.5" stroke="#969696" fill="none" stroke-width="1px" />
<path d="M 0.0 235.0 L 137.041666666 165.0" stroke="#0095FF" fill="none" stroke-width="2px" />
<path d="M 147.041666666 175.0 L 147.041666666 155.0" stroke="#0095FF" fill="none" stroke-width="2px" />
<path d="M 157.041666666 155.0 L 177.041666666 145.0" stroke="#0095FF" fill="none" stroke-width="2px" />
<path d="M 207.041666666 135.0 L 187.041666666 155.0" stroke="#0095FF" fill="none" stroke-width="2px" />
<path d="M 187.041666666 155.0 L 147.041666666 135.0" stroke="#0095FF" fill="none" stroke-width="2px" />
<path d="M 137.041666666 135.0 L 187.041666666 115.0" stroke="#0095FF" fill="none" stroke-width="2px" />
<path d="M 187.041666666 115.0 L 127.041666666 35.0" stroke="#0095FF" fill="none" stroke-width="2px" />
<path d="M 137.041666666 25.0 L 137.041666666 -5.0" stroke="#0095FF" fill="none" stroke-width="2px" />
<path d="M 47.0416666663 45.0 L 67.0416666663 55.0" stroke="#0095FF" fill="none" stroke-width="2px" />
<path d="M 67.0416666663 55.0 L 67.0416666663 5.0" stroke="#0095FF" fill="none" stroke-width="2px" />
<path d="M 47.0416666663 5.0 L 77.0416666663 5.0" stroke="#0095FF" fill="none" stroke-width="2px" />
<path d="M 87.0416666663 5.0 L 147.041666666 -5.0" stroke="#0095FF" fill="none" stroke-width="2px" />
<path d="M 147.041666666 -5.0 L 447.041666666 145.0" stroke="#0095FF" fill="none" stroke-width="2px" />
<path d="M 477.041666666 185.0 L 527.041666666 165.0" stroke="#0095FF" fill="none" stroke-width="2px" />
<path d="M 527.041666666 145.0 L 527.041666666 125.0" stroke="#0095FF" fill="none" stroke-width="2px" />
<path d="M 537.041666666 125.0 L 537.041666666 105.0" stroke="#0095FF" fill="none" stroke-width="2px" />
<path d="M 567.041666666 105.0 L 597.041666666 145.0" stroke="#0095FF" fill="none" stroke-width="2px" />
<path d="M 607.041666666 155.0 L 587.041666666 175.0" stroke="#0095FF" fill="none" stroke-width="2px" />
<path d="M 577.041666666 175.0 L 647.041666666 185.0" stroke="#0095FF" fill="none" stroke-width="2px" />
<path d="M 667.041666666 205.0 L 667.041666666 175.0" stroke="#0095FF" fill="none" stroke-width="2px" />
<path d="M 677.041666666 175.0 L 677.041666666 135.0" stroke="#0095FF" fill="none" stroke-width="2px" />
<path d="M 817.041666666 165.0 L 807.041666666 185.0" stroke="#0095FF" fill="none" stroke-width="2px" />
<path d="M 797.041666666 195.0 L 797.041666666 145.0" stroke="#0095FF" fill="none" stroke-width="2px" />
<path d="M 777.041666666 145.0 L 807.041666666 115.0" stroke="#0095FF" fill="none" stroke-width="2px" />
<path d="M 837.041666666 105.0 L 837.041666666 85.0" stroke="#0095FF" fill="none" stroke-width="2px" />
<path d="M 827.041666666 75.0 L 887.041666666 95.0" stroke="#0095FF" fill="none" stroke-width="2px" />
<path d="M 907.041666666 175.0 L 977.041666666 195.0" stroke="#0095FF" fill="none" stroke-width="2px" />
<path d="M 1017.04166667 215.0 L 1047.04166667 195.0" stroke="#0095FF" fill="none" stroke-width="2px" />
<path d="M 1067.04166667 165.0 L 1067.04166667 205.0" stroke="#0095FF" fill="none" stroke-width="2px" />
<path d="M 1087.04166667 205.0 L 1017.04166667 185.0" stroke="#0095FF" fill="none" stroke-width="2px" />
<path d="M 1007.04166667 175.0 L 957.041666666 115.0" stroke="#0095FF" fill="none" stroke-width="2px" />
<path d="M 927.041666666 105.0 L 757.041666666 105.0" stroke="#0095FF" fill="none" stroke-width="2px" />
<path d="M 727.041666666 85.0 L 677.041666666 95.0" stroke="#0095FF" fill="none" stroke-width="2px" />
<path d="M 657.041666666 95.0 L 477.041666666 135.0" stroke="#0095FF" fill="none" stroke-width="2px" />
<path d="M 137.041666666 165.0 L 147.041666666 165.0" stroke="#FF0000" fill="none" stroke-width="4px" />
<path d="M 147.041666666 165.0 L 147.041666666 175.0" stroke="#FF0000" fill="none" stroke-width="4px" />
<path d="M 147.041666666 155.0 L 137.041666666 155.0" stroke="#FF0000" fill="none" stroke-width="4px" />
<path d="M 137.041666666 155.0 L 127.041666666 155.0" stroke="#FF0000" fill="none" stroke-width="4px" />
<path d="M 127.041666666 155.0 L 127.041666666 145.0" stroke="#FF0000" fill="none" stroke-width="4px" />
<path d="M 127.041666666 145.0 L 137.041666666 145.0" stroke="#FF0000" fill="none" stroke-width="4px" />
<path d="M 137.041666666 145.0 L 147.041666666 145.0" stroke="#FF0000" fill="none" stroke-width="4px" />
<path d="M 147.041666666 145.0 L 157.041666666 145.0" stroke="#FF0000" fill="none" stroke-width="4px" />
<path d="M 157.041666666 145.0 L 157.041666666 155.0" stroke="#FF0000" fill="none" stroke-width="4px" />
<path d="M 177.041666666 145.0 L 187.041666666 145.0" stroke="#FF0000" fill="none" stroke-width="4px" />
<path d="M 187.041666666 145.0 L 197.041666666 145.0" stroke="#FF0000" fill="none" stroke-width="4px" />
<path d="M 197.041666666 145.0 L 197.041666666 135.0" stroke="#FF0000" fill="none" stroke-width="4px" />
<path d="M 197.041666666 135.0 L 187.041666666 135.0" stroke="#FF0000" fill="none" stroke-width="4px" />
<path d="M 187.041666666 135.0 L 177.041666666 135.0" stroke="#FF0000" fill="none" stroke-width="4px" />
<path d="M 177.041666666 135.0 L 167.041666666 135.0" stroke="#FF0000" fill="none" stroke-width="4px" />
<path d="M 167.041666666 135.0 L 177.041666666 125.0" stroke="#FF0000" fill="none" stroke-width="4px" />
<path d="M 177.041666666 125.0 L 187.041666666 125.0" stroke="#FF0000" fill="none" stroke-width="4px" />
<path d="M 187.041666666 125.0 L 197.041666666 125.0" stroke="#FF0000" fill="none" stroke-width="4px" />
<path d="M 197.041666666 125.0 L 207.041666666 135.0" stroke="#FF0000" fill="none" stroke-width="4px" />
<path d="M 147.041666666 135.0 L 137.041666666 135.0" stroke="#FF0000" fill="none" stroke-width="4px" />
<path d="M 127.041666666 35.0 L 127.041666666 25.0" stroke="#FF0000" fill="none" stroke-width="4px" />
<path d="M 127.041666666 25.0 L 117.041666666 25.0" stroke="#FF0000" fill="none" stroke-width="4px" />
<path d="M 117.041666666 25.0 L 117.041666666 15.0" stroke="#FF0000" fill="none" stroke-width="4px" />
<path d="M 117.041666666 15.0 L 107.041666666 15.0" stroke="#FF0000" fill="none" stroke-width="4px" />
<path d="M 107.041666666 15.0 L 107.041666666 5.0" stroke="#FF0000" fill="none" stroke-width="4px" />
<path d="M 107.041666666 5.0 L 117.041666666 5.0" stroke="#FF0000" fill="none" stroke-width="4px" />
<path d="M 117.041666666 5.0 L 127.041666666 5.0" stroke="#FF0000" fill="none" stroke-width="4px" />
<path d="M 127.041666666 5.0 L 137.041666666 5.0" stroke="#FF0000" fill="none" stroke-width="4px" />
<path d="M 137.041666666 5.0 L 147.041666666 5.0" stroke="#FF0000" fill="none" stroke-width="4px" />
<path d="M 147.041666666 5.0 L 147.041666666 15.0" stroke="#FF0000" fill="none" stroke-width="4px" />
<path d="M 147.041666666 15.0 L 137.041666666 15.0" stroke="#FF0000" fill="none" stroke-width="4px" />
<path d="M 137.041666666 15.0 L 127.041666666 15.0" stroke="#FF0000" fill="none" stroke-width="4px" />
<path d="M 127.041666666 15.0 L 137.041666666 25.0" stroke="#FF0000" fill="none" stroke-width="4px" />
<path d="M 137.041666666 -5.0 L 127.041666666 -5.0" stroke="#FF0000" fill="none" stroke-width="4px" />
<path d="M 127.041666666 -5.0 L 117.041666666 -5.0" stroke="#FF0000" fill="none" stroke-width="4px" />
<path d="M 117.041666666 -5.0 L 107.041666666 -5.0" stroke="#FF0000" fill="none" stroke-width="4px" />
<path d="M 107.041666666 -5.0 L 87.0416666663 -5.0" stroke="#FF0000" fill="none" stroke-width="4px" />
<path d="M 87.0416666663 -5.0 L 77.0416666663 -5.0" stroke="#FF0000" fill="none" stroke-width="4px" />
<path d="M 77.0416666663 -5.0 L 67.0416666663 -5.0" stroke="#FF0000" fill="none" stroke-width="4px" />
<path d="M 67.0416666663 -5.0 L 57.0416666663 -5.0" stroke="#FF0000" fill="none" stroke-width="4px" />
<path d="M 57.0416666663 -5.0 L 47.0416666663 -5.0" stroke="#FF0000" fill="none" stroke-width="4px" />
<path d="M 47.0416666663 -5.0 L 37.0416666663 -5.0" stroke="#FF0000" fill="none" stroke-width="4px" />
<path d="M 37.0416666663 -5.0 L 37.0416666663 5.0" stroke="#FF0000" fill="none" stroke-width="4px" />
<path d="M 37.0416666663 5.0 L 27.0416666663 5.0" stroke="#FF0000" fill="none" stroke-width="4px" />
<path d="M 27.0416666663 5.0 L 27.0416666663 15.0" stroke="#FF0000" fill="none" stroke-width="4px" />
<path d="M 27.0416666663 15.0 L 37.0416666663 15.0" stroke="#FF0000" fill="none" stroke-width="4px" />
<path d="M 37.0416666663 15.0 L 47.0416666663 15.0" stroke="#FF0000" fill="none" stroke-width="4px" />
<path d="M 47.0416666663 15.0 L 57.0416666663 15.0" stroke="#FF0000" fill="none" stroke-width="4px" />
<path d="M 57.0416666663 15.0 L 67.0416666663 15.0" stroke="#FF0000" fill="none" stroke-width="4px" />
<path d="M 67.0416666663 15.0 L 77.0416666663 15.0" stroke="#FF0000" fill="none" stroke-width="4px" />
<path d="M 77.0416666663 15.0 L 87.0416666663 15.0" stroke="#FF0000" fill="none" stroke-width="4px" />
<path d="M 87.0416666663 15.0 L 87.0416666663 25.0" stroke="#FF0000" fill="none" stroke-width="4px" />
<path d="M 87.0416666663 25.0 L 77.0416666663 25.0" stroke="#FF0000" fill="none" stroke-width="4px" />
<path d="M 77.0416666663 25.0 L 67.0416666663 25.0" stroke="#FF0000" fill="none" stroke-width="4px" />
<path d="M 67.0416666663 25.0 L 57.0416666663 25.0" stroke="#FF0000" fill="none" stroke-width="4px" />
<path d="M 57.0416666663 25.0 L 47.0416666663 25.0" stroke="#FF0000" fill="none" stroke-width="4px" />
<path d="M 47.0416666663 25.0 L 37.0416666663 25.0" stroke="#FF0000" fill="none" stroke-width="4px" />
<path d="M 37.0416666663 25.0 L 27.0416666663 25.0" stroke="#FF0000" fill="none" stroke-width="4px" />
<path d="M 27.0416666663 25.0 L 37.0416666663 35.0" stroke="#FF0000" fill="none" stroke-width="4px" />
<path d="M 37.0416666663 35.0 L 47.0416666663 35.0" stroke="#FF0000" fill="none" stroke-width="4px" />
<path d="M 47.0416666663 35.0 L 57.0416666663 35.0" stroke="#FF0000" fill="none" stroke-width="4px" />
<path d="M 57.0416666663 35.0 L 67.0416666663 35.0" stroke="#FF0000" fill="none" stroke-width="4px" />
<path d="M 67.0416666663 35.0 L 77.0416666663 35.0" stroke="#FF0000" fill="none" stroke-width="4px" />
<path d="M 77.0416666663 35.0 L 87.0416666663 35.0" stroke="#FF0000" fill="none" stroke-width="4px" />
<path d="M 87.0416666663 35.0 L 77.0416666663 45.0" stroke="#FF0000" fill="none" stroke-width="4px" />
<path d="M 77.0416666663 45.0 L 67.0416666663 45.0" stroke="#FF0000" fill="none" stroke-width="4px" />
<path d="M 67.0416666663 45.0 L 57.0416666663 45.0" stroke="#FF0000" fill="none" stroke-width="4px" />
<path d="M 57.0416666663 45.0 L 47.0416666663 45.0" stroke="#FF0000" fill="none" stroke-width="4px" />
<path d="M 67.0416666663 5.0 L 57.0416666663 5.0" stroke="#FF0000" fill="none" stroke-width="4px" />
<path d="M 57.0416666663 5.0 L 47.0416666663 5.0" stroke="#FF0000" fill="none" stroke-width="4px" />
<path d="M 77.0416666663 5.0 L 87.0416666663 5.0" stroke="#FF0000" fill="none" stroke-width="4px" />
<path d="M 447.041666666 145.0 L 457.041666666 145.0" stroke="#FF0000" fill="none" stroke-width="4px" />
<path d="M 457.041666666 145.0 L 467.041666666 145.0" stroke="#FF0000" fill="none" stroke-width="4px" />
<path d="M 467.041666666 145.0 L 477.041666666 145.0" stroke="#FF0000" fill="none" stroke-width="4px" />
<path d="M 477.041666666 145.0 L 487.041666666 145.0" stroke="#FF0000" fill="none" stroke-width="4px" />
<path d="M 487.041666666 145.0 L 487.041666666 155.0" stroke="#FF0000" fill="none" stroke-width="4px" />
<path d="M 487.041666666 155.0 L 477.041666666 155.0" stroke="#FF0000" fill="none" stroke-width="4px" />
<path d="M 477.041666666 155.0 L 467.041666666 155.0" stroke="#FF0000" fill="none" stroke-width="4px" />
<path d="M 467.041666666 155.0 L 457.041666666 155.0" stroke="#FF0000" fill="none" stroke-width="4px" />
<path d="M 457.041666666 155.0 L 447.041666666 155.0" stroke="#FF0000" fill="none" stroke-width="4px" />
<path d="M 447.041666666 155.0 L 437.041666666 155.0" stroke="#FF0000" fill="none" stroke-width="4px" />
<path d="M 437.041666666 155.0 L 437.041666666 165.0" stroke="#FF0000" fill="none" stroke-width="4px" />
<path d="M 437.041666666 165.0 L 447.041666666 165.0" stroke="#FF0000" fill="none" stroke-width="4px" />
<path d="M 447.041666666 165.0 L 457.041666666 165.0" stroke="#FF0000" fill="none" stroke-width="4px" />
<path d="M 457.041666666 165.0 L 467.041666666 165.0" stroke="#FF0000" fill="none" stroke-width="4px" />
<path d="M 467.041666666 165.0 L 477.041666666 165.0" stroke="#FF0000" fill="none" stroke-width="4px" />
<path d="M 477.041666666 165.0 L 487.041666666 165.0" stroke="#FF0000" fill="none" stroke-width="4px" />
<path d="M 487.041666666 165.0 L 487.041666666 175.0" stroke="#FF0000" fill="none" stroke-width="4px" />
<path d="M 487.041666666 175.0 L 477.041666666 175.0" stroke="#FF0000" fill="none" stroke-width="4px" />
<path d="M 477.041666666 175.0 L 467.041666666 175.0" stroke="#FF0000" fill="none" stroke-width="4px" />
<path d="M 467.041666666 175.0 L 457.041666666 175.0" stroke="#FF0000" fill="none" stroke-width="4px" />
<path d="M 457.041666666 175.0 L 447.041666666 175.0" stroke="#FF0000" fill="none" stroke-width="4px" />
<path d="M 447.041666666 175.0 L 457.041666666 185.0" stroke="#FF0000" fill="none" stroke-width="4px" />
<path d="M 457.041666666 185.0 L 467.041666666 185.0" stroke="#FF0000" fill="none" stroke-width="4px" />
<path d="M 467.041666666 185.0 L 477.041666666 185.0" stroke="#FF0000" fill="none" stroke-width="4px" />
<path d="M 527.041666666 165.0 L 537.041666666 165.0" stroke="#FF0000" fill="none" stroke-width="4px" />
<path d="M 537.041666666 165.0 L 547.041666666 165.0" stroke="#FF0000" fill="none" stroke-width="4px" />
<path d="M 547.041666666 165.0 L 557.041666666 165.0" stroke="#FF0000" fill="none" stroke-width="4px" />
<path d="M 557.041666666 165.0 L 567.041666666 165.0" stroke="#FF0000" fill="none" stroke-width="4px" />
<path d="M 567.041666666 165.0 L 577.041666666 165.0" stroke="#FF0000" fill="none" stroke-width="4px" />
<path d="M 577.041666666 165.0 L 587.041666666 165.0" stroke="#FF0000" fill="none" stroke-width="4px" />
<path d="M 587.041666666 165.0 L 597.041666666 165.0" stroke="#FF0000" fill="none" stroke-width="4px" />
<path d="M 597.041666666 165.0 L 597.041666666 155.0" stroke="#FF0000" fill="none" stroke-width="4px" />
<path d="M 597.041666666 155.0 L 587.041666666 155.0" stroke="#FF0000" fill="none" stroke-width="4px" />
<path d="M 587.041666666 155.0 L 577.041666666 155.0" stroke="#FF0000" fill="none" stroke-width="4px" />
<path d="M 577.041666666 155.0 L 567.041666666 155.0" stroke="#FF0000" fill="none" stroke-width="4px" />
<path d="M 567.041666666 155.0 L 557.041666666 155.0" stroke="#FF0000" fill="none" stroke-width="4px" />
<path d="M 557.041666666 155.0 L 547.041666666 155.0" stroke="#FF0000" fill="none" stroke-width="4px" />
<path d="M 547.041666666 155.0 L 537.041666666 155.0" stroke="#FF0000" fill="none" stroke-width="4px" />
<path d="M 537.041666666 155.0 L 527.041666666 155.0" stroke="#FF0000" fill="none" stroke-width="4px" />
<path d="M 527.041666666 155.0 L 517.041666666 155.0" stroke="#FF0000" fill="none" stroke-width="4px" />
<path d="M 517.041666666 155.0 L 517.041666666 145.0" stroke="#FF0000" fill="none" stroke-width="4px" />
<path d="M 517.041666666 145.0 L 507.041666666 145.0" stroke="#FF0000" fill="none" stroke-width="4px" />
<path d="M 507.041666666 145.0 L 507.041666666 135.0" stroke="#FF0000" fill="none" stroke-width="4px" />
<path d="M 507.041666666 135.0 L 517.041666666 135.0" stroke="#FF0000" fill="none" stroke-width="4px" />
<path d="M 517.041666666 135.0 L 527.041666666 135.0" stroke="#FF0000" fill="none" stroke-width="4px" />
<path d="M 527.041666666 135.0 L 537.041666666 135.0" stroke="#FF0000" fill="none" stroke-width="4px" />
<path d="M 537.041666666 135.0 L 547.041666666 135.0" stroke="#FF0000" fill="none" stroke-width="4px" />
<path d="M 547.041666666 135.0 L 557.041666666 135.0" stroke="#FF0000" fill="none" stroke-width="4px" />
<path d="M 557.041666666 135.0 L 567.041666666 135.0" stroke="#FF0000" fill="none" stroke-width="4px" />
<path d="M 567.041666666 135.0 L 577.041666666 135.0" stroke="#FF0000" fill="none" stroke-width="4px" />
<path d="M 577.041666666 135.0 L 587.041666666 135.0" stroke="#FF0000" fill="none" stroke-width="4px" />
<path d="M 587.041666666 135.0 L 587.041666666 145.0" stroke="#FF0000" fill="none" stroke-width="4px" />
<path d="M 587.041666666 145.0 L 577.041666666 145.0" stroke="#FF0000" fill="none" stroke-width="4px" />
<path d="M 577.041666666 145.0 L 567.041666666 145.0" stroke="#FF0000" fill="none" stroke-width="4px" />
<path d="M 567.041666666 145.0 L 557.041666666 145.0" stroke="#FF0000" fill="none" stroke-width="4px" />
<path d="M 557.041666666 145.0 L 547.041666666 145.0" stroke="#FF0000" fill="none" stroke-width="4px" />
<path d="M 547.041666666 145.0 L 537.041666666 145.0" stroke="#FF0000" fill="none" stroke-width="4px" />
<path d="M 537.041666666 145.0 L 527.041666666 145.0" stroke="#FF0000" fill="none" stroke-width="4px" />
<path d="M 527.041666666 125.0 L 517.041666666 125.0" stroke="#FF0000" fill="none" stroke-width="4px" />
<path d="M 517.041666666 125.0 L 517.041666666 115.0" stroke="#FF0000" fill="none" stroke-width="4px" />
<path d="M 517.041666666 115.0 L 527.041666666 115.0" stroke="#FF0000" fill="none" stroke-width="4px" />
<path d="M 527.041666666 115.0 L 537.041666666 115.0" stroke="#FF0000" fill="none" stroke-width="4px" />
<path d="M 537.041666666 115.0 L 547.041666666 115.0" stroke="#FF0000" fill="none" stroke-width="4px" />
<path d="M 547.041666666 115.0 L 557.041666666 115.0" stroke="#FF0000" fill="none" stroke-width="4px" />
<path d="M 557.041666666 115.0 L 567.041666666 115.0" stroke="#FF0000" fill="none" stroke-width="4px" />
<path d="M 567.041666666 115.0 L 577.041666666 115.0" stroke="#FF0000" fill="none" stroke-width="4px" />
<path d="M 577.041666666 115.0 L 577.041666666 125.0" stroke="#FF0000" fill="none" stroke-width="4px" />
<path d="M 577.041666666 125.0 L 567.041666666 125.0" stroke="#FF0000" fill="none" stroke-width="4px" />
<path d="M 567.041666666 125.0 L 557.041666666 125.0" stroke="#FF0000" fill="none" stroke-width="4px" />
<path d="M 557.041666666 125.0 L 547.041666666 125.0" stroke="#FF0000" fill="none" stroke-width="4px" />
<path d="M 547.041666666 125.0 L 537.041666666 125.0" stroke="#FF0000" fill="none" stroke-width="4px" />
<path d="M 537.041666666 105.0 L 527.041666666 105.0" stroke="#FF0000" fill="none" stroke-width="4px" />
<path d="M 527.041666666 105.0 L 537.041666666 95.0" stroke="#FF0000" fill="none" stroke-width="4px" />
<path d="M 537.041666666 95.0 L 547.041666666 95.0" stroke="#FF0000" fill="none" stroke-width="4px" />
<path d="M 547.041666666 95.0 L 557.041666666 95.0" stroke="#FF0000" fill="none" stroke-width="4px" />
<path d="M 557.041666666 95.0 L 557.041666666 105.0" stroke="#FF0000" fill="none" stroke-width="4px" />
<path d="M 557.041666666 105.0 L 547.041666666 105.0" stroke="#FF0000" fill="none" stroke-width="4px" />
<path d="M 547.041666666 105.0 L 567.041666666 105.0" stroke="#FF0000" fill="none" stroke-width="4px" />
<path d="M 597.041666666 145.0 L 607.041666666 155.0" stroke="#FF0000" fill="none" stroke-width="4px" />
<path d="M 587.041666666 175.0 L 577.041666666 175.0" stroke="#FF0000" fill="none" stroke-width="4px" />
<path d="M 647.041666666 185.0 L 657.041666666 185.0" stroke="#FF0000" fill="none" stroke-width="4px" />
<path d="M 657.041666666 185.0 L 667.041666666 185.0" stroke="#FF0000" fill="none" stroke-width="4px" />
<path d="M 667.041666666 185.0 L 677.041666666 185.0" stroke="#FF0000" fill="none" stroke-width="4px" />
<path d="M 677.041666666 185.0 L 687.041666666 185.0" stroke="#FF0000" fill="none" stroke-width="4px" />
<path d="M 687.041666666 185.0 L 677.041666666 195.0" stroke="#FF0000" fill="none" stroke-width="4px" />
<path d="M 677.041666666 195.0 L 667.041666666 195.0" stroke="#FF0000" fill="none" stroke-width="4px" />
<path d="M 667.041666666 195.0 L 657.041666666 195.0" stroke="#FF0000" fill="none" stroke-width="4px" />
<path d="M 657.041666666 195.0 L 667.041666666 205.0" stroke="#FF0000" fill="none" stroke-width="4px" />
<path d="M 667.041666666 175.0 L 657.041666666 175.0" stroke="#FF0000" fill="none" stroke-width="4px" />
<path d="M 657.041666666 175.0 L 667.041666666 165.0" stroke="#FF0000" fill="none" stroke-width="4px" />
<path d="M 667.041666666 165.0 L 677.041666666 175.0" stroke="#FF0000" fill="none" stroke-width="4px" />
<path d="M 677.041666666 135.0 L 667.041666666 135.0" stroke="#FF0000" fill="none" stroke-width="4px" />
<path d="M 667.041666666 135.0 L 657.041666666 135.0" stroke="#FF0000" fill="none" stroke-width="4px" />
<path d="M 657.041666666 135.0 L 657.041666666 125.0" stroke="#FF0000" fill="none" stroke-width="4px" />
<path d="M 657.041666666 125.0 L 647.041666666 125.0" stroke="#FF0000" fill="none" stroke-width="4px" />
<path d="M 647.041666666 125.0 L 647.041666666 115.0" stroke="#FF0000" fill="none" stroke-width="4px" />
<path d="M 647.041666666 115.0 L 637.041666666 115.0" stroke="#FF0000" fill="none" stroke-width="4px" />
<path d="M 637.041666666 115.0 L 647.041666666 105.0" stroke="#FF0000" fill="none" stroke-width="4px" />
<path d="M 647.041666666 105.0 L 657.041666666 105.0" stroke="#FF0000" fill="none" stroke-width="4px" />
<path d="M 657.041666666 105.0 L 667.041666666 105.0" stroke="#FF0000" fill="none" stroke-width="4px" />
<path d="M 667.041666666 105.0 L 677.041666666 105.0" stroke="#FF0000" fill="none" stroke-width="4px" />
<path d="M 677.041666666 105.0 L 687.041666666 105.0" stroke="#FF0000" fill="none" stroke-width="4px" />
<path d="M 687.041666666 105.0 L 687.041666666 115.0" stroke="#FF0000" fill="none" stroke-width="4px" />
<path d="M 687.041666666 115.0 L 677.041666666 115.0" stroke="#FF0000" fill="none" stroke-width="4px" />
<path d="M 677.041666666 115.0 L 667.041666666 115.0" stroke="#FF0000" fill="none" stroke-width="4px" />
<path d="M 667.041666666 115.0 L 657.041666666 115.0" stroke="#FF0000" fill="none" stroke-width="4px" />
<path d="M 657.041666666 115.0 L 667.041666666 125.0" stroke="#FF0000" fill="none" stroke-width="4px" />
<path d="M 667.041666666 125.0 L 677.041666666 125.0" stroke="#FF0000" fill="none" stroke-width="4px" />
<path d="M 677.041666666 125.0 L 687.041666666 125.0" stroke="#FF0000" fill="none" stroke-width="4px" />
<path d="M 687.041666666 125.0 L 697.041666666 115.0" stroke="#FF0000" fill="none" stroke-width="4px" />
<path d="M 697.041666666 115.0 L 707.041666666 115.0" stroke="#FF0000" fill="none" stroke-width="4px" />
<path d="M 707.041666666 115.0 L 717.041666666 115.0" stroke="#FF0000" fill="none" stroke-width="4px" />
<path d="M 717.041666666 115.0 L 727.041666666 115.0" stroke="#FF0000" fill="none" stroke-width="4px" />
<path d="M 727.041666666 115.0 L 737.041666666 115.0" stroke="#FF0000" fill="none" stroke-width="4px" />
<path d="M 737.041666666 115.0 L 747.041666666 115.0" stroke="#FF0000" fill="none" stroke-width="4px" />
<path d="M 747.041666666 115.0 L 757.041666666 115.0" stroke="#FF0000" fill="none" stroke-width="4px" />
<path d="M 757.041666666 115.0 L 767.041666666 115.0" stroke="#FF0000" fill="none" stroke-width="4px" />
<path d="M 767.041666666 115.0 L 767.041666666 125.0" stroke="#FF0000" fill="none" stroke-width="4px" />
<path d="M 767.041666666 125.0 L 757.041666666 125.0" stroke="#FF0000" fill="none" stroke-width="4px" />
<path d="M 757.041666666 125.0 L 747.041666666 125.0" stroke="#FF0000" fill="none" stroke-width="4px" />
<path d="M 747.041666666 125.0 L 737.041666666 125.0" stroke="#FF0000" fill="none" stroke-width="4px" />
<path d="M 737.041666666 125.0 L 727.041666666 125.0" stroke="#FF0000" fill="none" stroke-width="4px" />
<path d="M 727.041666666 125.0 L 717.041666666 125.0" stroke="#FF0000" fill="none" stroke-width="4px" />
<path d="M 717.041666666 125.0 L 707.041666666 125.0" stroke="#FF0000" fill="none" stroke-width="4px" />
<path d="M 707.041666666 125.0 L 717.041666666 135.0" stroke="#FF0000" fill="none" stroke-width="4px" />
<path d="M 717.041666666 135.0 L 727.041666666 135.0" stroke="#FF0000" fill="none" stroke-width="4px" />
<path d="M 727.041666666 135.0 L 737.041666666 135.0" stroke="#FF0000" fill="none" stroke-width="4px" />
<path d="M 737.041666666 135.0 L 747.041666666 135.0" stroke="#FF0000" fill="none" stroke-width="4px" />
<path d="M 747.041666666 135.0 L 757.041666666 135.0" stroke="#FF0000" fill="none" stroke-width="4px" />
<path d="M 757.041666666 135.0 L 767.041666666 135.0" stroke="#FF0000" fill="none" stroke-width="4px" />
<path d="M 767.041666666 135.0 L 767.041666666 145.0" stroke="#FF0000" fill="none" stroke-width="4px" />
<path d="M 767.041666666 145.0 L 757.041666666 145.0" stroke="#FF0000" fill="none" stroke-width="4px" />
<path d="M 757.041666666 145.0 L 747.041666666 145.0" stroke="#FF0000" fill="none" stroke-width="4px" />
<path d="M 747.041666666 145.0 L 737.041666666 145.0" stroke="#FF0000" fill="none" stroke-width="4px" />
<path d="M 737.041666666 145.0 L 727.041666666 145.0" stroke="#FF0000" fill="none" stroke-width="4px" />
<path d="M 727.041666666 145.0 L 737.041666666 155.0" stroke="#FF0000" fill="none" stroke-width="4px" />
<path d="M 737.041666666 155.0 L 747.041666666 155.0" stroke="#FF0000" fill="none" stroke-width="4px" />
<path d="M 747.041666666 155.0 L 757.041666666 155.0" stroke="#FF0000" fill="none" stroke-width="4px" />
<path d="M 757.041666666 155.0 L 767.041666666 155.0" stroke="#FF0000" fill="none" stroke-width="4px" />
<path d="M 767.041666666 155.0 L 777.041666666 155.0" stroke="#FF0000" fill="none" stroke-width="4px" />
<path d="M 777.041666666 155.0 L 787.041666666 155.0" stroke="#FF0000" fill="none" stroke-width="4px" />
<path d="M 787.041666666 155.0 L 797.041666666 155.0" stroke="#FF0000" fill="none" stroke-width="4px" />
<path d="M 797.041666666 155.0 L 807.041666666 155.0" stroke="#FF0000" fill="none" stroke-width="4px" />
<path d="M 807.041666666 155.0 L 807.041666666 165.0" stroke="#FF0000" fill="none" stroke-width="4px" />
<path d="M 807.041666666 165.0 L 797.041666666 165.0" stroke="#FF0000" fill="none" stroke-width="4px" />
<path d="M 797.041666666 165.0 L 787.041666666 165.0" stroke="#FF0000" fill="none" stroke-width="4px" />
<path d="M 787.041666666 165.0 L 777.041666666 165.0" stroke="#FF0000" fill="none" stroke-width="4px" />
<path d="M 777.041666666 165.0 L 767.041666666 165.0" stroke="#FF0000" fill="none" stroke-width="4px" />
<path d="M 767.041666666 165.0 L 757.041666666 165.0" stroke="#FF0000" fill="none" stroke-width="4px" />
<path d="M 757.041666666 165.0 L 747.041666666 165.0" stroke="#FF0000" fill="none" stroke-width="4px" />
<path d="M 747.041666666 165.0 L 737.041666666 165.0" stroke="#FF0000" fill="none" stroke-width="4px" />
<path d="M 737.041666666 165.0 L 747.041666666 175.0" stroke="#FF0000" fill="none" stroke-width="4px" />
<path d="M 747.041666666 175.0 L 757.041666666 175.0" stroke="#FF0000" fill="none" stroke-width="4px" />
<path d="M 757.041666666 175.0 L 767.041666666 175.0" stroke="#FF0000" fill="none" stroke-width="4px" />
<path d="M 767.041666666 175.0 L 777.041666666 175.0" stroke="#FF0000" fill="none" stroke-width="4px" />
<path d="M 777.041666666 175.0 L 787.041666666 175.0" stroke="#FF0000" fill="none" stroke-width="4px" />
<path d="M 787.041666666 175.0 L 797.041666666 175.0" stroke="#FF0000" fill="none" stroke-width="4px" />
<path d="M 797.041666666 175.0 L 807.041666666 175.0" stroke="#FF0000" fill="none" stroke-width="4px" />
<path d="M 807.041666666 175.0 L 817.041666666 175.0" stroke="#FF0000" fill="none" stroke-width="4px" />
<path d="M 817.041666666 175.0 L 817.041666666 165.0" stroke="#FF0000" fill="none" stroke-width="4px" />
<path d="M 807.041666666 185.0 L 797.041666666 185.0" stroke="#FF0000" fill="none" stroke-width="4px" />
<path d="M 797.041666666 185.0 L 787.041666666 185.0" stroke="#FF0000" fill="none" stroke-width="4px" />
<path d="M 787.041666666 185.0 L 777.041666666 185.0" stroke="#FF0000" fill="none" stroke-width="4px" />
<path d="M 777.041666666 185.0 L 767.041666666 185.0" stroke="#FF0000" fill="none" stroke-width="4px" />
<path d="M 767.041666666 185.0 L 757.041666666 185.0" stroke="#FF0000" fill="none" stroke-width="4px" />
<path d="M 757.041666666 185.0 L 747.041666666 185.0" stroke="#FF0000" fill="none" stroke-width="4px" />
<path d="M 747.041666666 185.0 L 757.041666666 195.0" stroke="#FF0000" fill="none" stroke-width="4px" />
<path d="M 757.041666666 195.0 L 767.041666666 195.0" stroke="#FF0000" fill="none" stroke-width="4px" />
<path d="M 767.041666666 195.0 L 777.041666666 195.0" stroke="#FF0000" fill="none" stroke-width="4px" />
<path d="M 777.041666666 195.0 L 787.041666666 195.0" stroke="#FF0000" fill="none" stroke-width="4px" />
<path d="M 787.041666666 195.0 L 797.041666666 195.0" stroke="#FF0000" fill="none" stroke-width="4px" />
<path d="M 797.041666666 145.0 L 787.041666666 145.0" stroke="#FF0000" fill="none" stroke-width="4px" />
<path d="M 787.041666666 145.0 L 777.041666666 145.0" stroke="#FF0000" fill="none" stroke-width="4px" />
<path d="M 807.041666666 115.0 L 817.041666666 115.0" stroke="#FF0000" fill="none" stroke-width="4px" />
<path d="M 817.041666666 115.0 L 827.041666666 115.0" stroke="#FF0000" fill="none" stroke-width="4px" />
<path d="M 827.041666666 115.0 L 827.041666666 105.0" stroke="#FF0000" fill="none" stroke-width="4px" />
<path d="M 827.041666666 105.0 L 817.041666666 105.0" stroke="#FF0000" fill="none" stroke-width="4px" />
<path d="M 817.041666666 105.0 L 807.041666666 105.0" stroke="#FF0000" fill="none" stroke-width="4px" />
<path d="M 807.041666666 105.0 L 797.041666666 105.0" stroke="#FF0000" fill="none" stroke-width="4px" />
<path d="M 797.041666666 105.0 L 797.041666666 95.0" stroke="#FF0000" fill="none" stroke-width="4px" />
<path d="M 797.041666666 95.0 L 807.041666666 95.0" stroke="#FF0000" fill="none" stroke-width="4px" />
<path d="M 807.041666666 95.0 L 817.041666666 95.0" stroke="#FF0000" fill="none" stroke-width="4px" />
<path d="M 817.041666666 95.0 L 827.041666666 95.0" stroke="#FF0000" fill="none" stroke-width="4px" />
<path d="M 827.041666666 95.0 L 837.041666666 95.0" stroke="#FF0000" fill="none" stroke-width="4px" />
<path d="M 837.041666666 95.0 L 837.041666666 105.0" stroke="#FF0000" fill="none" stroke-width="4px" />
<path d="M 837.041666666 85.0 L 827.041666666 85.0" stroke="#FF0000" fill="none" stroke-width="4px" />
<path d="M 827.041666666 85.0 L 817.041666666 85.0" stroke="#FF0000" fill="none" stroke-width="4px" />
<path d="M 817.041666666 85.0 L 807.041666666 85.0" stroke="#FF0000" fill="none" stroke-width="4px" />
<path d="M 807.041666666 85.0 L 817.041666666 75.0" stroke="#FF0000" fill="none" stroke-width="4px" />
<path d="M 817.041666666 75.0 L 827.041666666 75.0" stroke="#FF0000" fill="none" stroke-width="4px" />
<path d="M 887.041666666 95.0 L 897.041666666 95.0" stroke="#FF0000" fill="none" stroke-width="4px" />
<path d="M 897.041666666 95.0 L 897.041666666 105.0" stroke="#FF0000" fill="none" stroke-width="4px" />
<path d="M 897.041666666 105.0 L 887.041666666 105.0" stroke="#FF0000" fill="none" stroke-width="4px" />
<path d="M 887.041666666 105.0 L 887.041666666 115.0" stroke="#FF0000" fill="none" stroke-width="4px" />
<path d="M 887.041666666 115.0 L 877.041666666 115.0" stroke="#FF0000" fill="none" stroke-width="4px" />
<path d="M 877.041666666 115.0 L 877.041666666 125.0" stroke="#FF0000" fill="none" stroke-width="4px" />
<path d="M 877.041666666 125.0 L 887.041666666 125.0" stroke="#FF0000" fill="none" stroke-width="4px" />
<path d="M 887.041666666 125.0 L 897.041666666 125.0" stroke="#FF0000" fill="none" stroke-width="4px" />
<path d="M 897.041666666 125.0 L 907.041666666 125.0" stroke="#FF0000" fill="none" stroke-width="4px" />
<path d="M 907.041666666 125.0 L 917.041666666 125.0" stroke="#FF0000" fill="none" stroke-width="4px" />
<path d="M 917.041666666 125.0 L 927.041666666 125.0" stroke="#FF0000" fill="none" stroke-width="4px" />
<path d="M 927.041666666 125.0 L 937.041666666 125.0" stroke="#FF0000" fill="none" stroke-width="4px" />
<path d="M 937.041666666 125.0 L 947.041666666 125.0" stroke="#FF0000" fill="none" stroke-width="4px" />
<path d="M 947.041666666 125.0 L 957.041666666 125.0" stroke="#FF0000" fill="none" stroke-width="4px" />
<path d="M 957.041666666 125.0 L 967.041666666 125.0" stroke="#FF0000" fill="none" stroke-width="4px" />
<path d="M 967.041666666 125.0 L 967.041666666 135.0" stroke="#FF0000" fill="none" stroke-width="4px" />
<path d="M 967.041666666 135.0 L 957.041666666 135.0" stroke="#FF0000" fill="none" stroke-width="4px" />
<path d="M 957.041666666 135.0 L 947.041666666 135.0" stroke="#FF0000" fill="none" stroke-width="4px" />
<path d="M 947.041666666 135.0 L 937.041666666 135.0" stroke="#FF0000" fill="none" stroke-width="4px" />
<path d="M 937.041666666 135.0 L 927.041666666 135.0" stroke="#FF0000" fill="none" stroke-width="4px" />
<path d="M 927.041666666 135.0 L 917.041666666 135.0" stroke="#FF0000" fill="none" stroke-width="4px" />
<path d="M 917.041666666 135.0 L 907.041666666 135.0" stroke="#FF0000" fill="none" stroke-width="4px" />
<path d="M 907.041666666 135.0 L 897.041666666 135.0" stroke="#FF0000" fill="none" stroke-width="4px" />
<path d="M 897.041666666 135.0 L 887.041666666 135.0" stroke="#FF0000" fill="none" stroke-width="4px" />
<path d="M 887.041666666 135.0 L 887.041666666 145.0" stroke="#FF0000" fill="none" stroke-width="4px" />
<path d="M 887.041666666 145.0 L 897.041666666 145.0" stroke="#FF0000" fill="none" stroke-width="4px" />
<path d="M 897.041666666 145.0 L 907.041666666 145.0" stroke="#FF0000" fill="none" stroke-width="4px" />
<path d="M 907.041666666 145.0 L 917.041666666 145.0" stroke="#FF0000" fill="none" stroke-width="4px" />
<path d="M 917.041666666 145.0 L 927.041666666 145.0" stroke="#FF0000" fill="none" stroke-width="4px" />
<path d="M 927.041666666 145.0 L 937.041666666 145.0" stroke="#FF0000" fill="none" stroke-width="4px" />
<path d="M 937.041666666 145.0 L 947.041666666 145.0" stroke="#FF0000" fill="none" stroke-width="4px" />
<path d="M 947.041666666 145.0 L 957.041666666 145.0" stroke="#FF0000" fill="none" stroke-width="4px" />
<path d="M 957.041666666 145.0 L 967.041666666 145.0" stroke="#FF0000" fill="none" stroke-width="4px" />
<path d="M 967.041666666 145.0 L 967.041666666 155.0" stroke="#FF0000" fill="none" stroke-width="4px" />
<path d="M 967.041666666 155.0 L 957.041666666 155.0" stroke="#FF0000" fill="none" stroke-width="4px" />
<path d="M 957.041666666 155.0 L 947.041666666 155.0" stroke="#FF0000" fill="none" stroke-width="4px" />
<path d="M 947.041666666 155.0 L 937.041666666 155.0" stroke="#FF0000" fill="none" stroke-width="4px" />
<path d="M 937.041666666 155.0 L 927.041666666 155.0" stroke="#FF0000" fill="none" stroke-width="4px" />
<path d="M 927.041666666 155.0 L 917.041666666 155.0" stroke="#FF0000" fill="none" stroke-width="4px" />
<path d="M 917.041666666 155.0 L 907.041666666 155.0" stroke="#FF0000" fill="none" stroke-width="4px" />
<path d="M 907.041666666 155.0 L 897.041666666 155.0" stroke="#FF0000" fill="none" stroke-width="4px" />
<path d="M 897.041666666 155.0 L 887.041666666 155.0" stroke="#FF0000" fill="none" stroke-width="4px" />
<path d="M 887.041666666 155.0 L 897.041666666 165.0" stroke="#FF0000" fill="none" stroke-width="4px" />
<path d="M 897.041666666 165.0 L 907.041666666 165.0" stroke="#FF0000" fill="none" stroke-width="4px" />
<path d="M 907.041666666 165.0 L 917.041666666 165.0" stroke="#FF0000" fill="none" stroke-width="4px" />
<path d="M 917.041666666 165.0 L 927.041666666 165.0" stroke="#FF0000" fill="none" stroke-width="4px" />
<path d="M 927.041666666 165.0 L 937.041666666 165.0" stroke="#FF0000" fill="none" stroke-width="4px" />
<path d="M 937.041666666 165.0 L 947.041666666 165.0" stroke="#FF0000" fill="none" stroke-width="4px" />
<path d="M 947.041666666 165.0 L 957.041666666 165.0" stroke="#FF0000" fill="none" stroke-width="4px" />
<path d="M 957.041666666 165.0 L 947.041666666 175.0" stroke="#FF0000" fill="none" stroke-width="4px" />
<path d="M 947.041666666 175.0 L 937.041666666 175.0" stroke="#FF0000" fill="none" stroke-width="4px" />
<path d="M 937.041666666 175.0 L 927.041666666 175.0" stroke="#FF0000" fill="none" stroke-width="4px" />
<path d="M 927.041666666 175.0 L 917.041666666 175.0" stroke="#FF0000" fill="none" stroke-width="4px" />
<path d="M 917.041666666 175.0 L 907.041666666 175.0" stroke="#FF0000" fill="none" stroke-width="4px" />
<path d="M 977.041666666 195.0 L 987.041666666 195.0" stroke="#FF0000" fill="none" stroke-width="4px" />
<path d="M 987.041666666 195.0 L 997.041666666 195.0" stroke="#FF0000" fill="none" stroke-width="4px" />
<path d="M 997.041666666 195.0 L 1007.04166667 195.0" stroke="#FF0000" fill="none" stroke-width="4px" />
<path d="M 1007.04166667 195.0 L 1017.04166667 195.0" stroke="#FF0000" fill="none" stroke-width="4px" />
<path d="M 1017.04166667 195.0 L 1027.04166667 195.0" stroke="#FF0000" fill="none" stroke-width="4px" />
<path d="M 1027.04166667 195.0 L 1027.04166667 205.0" stroke="#FF0000" fill="none" stroke-width="4px" />
<path d="M 1027.04166667 205.0 L 1017.04166667 205.0" stroke="#FF0000" fill="none" stroke-width="4px" />
<path d="M 1017.04166667 205.0 L 1007.04166667 205.0" stroke="#FF0000" fill="none" stroke-width="4px" />
<path d="M 1007.04166667 205.0 L 997.041666666 205.0" stroke="#FF0000" fill="none" stroke-width="4px" />
<path d="M 997.041666666 205.0 L 987.041666666 205.0" stroke="#FF0000" fill="none" stroke-width="4px" />
<path d="M 987.041666666 205.0 L 977.041666666 205.0" stroke="#FF0000" fill="none" stroke-width="4px" />
<path d="M 977.041666666 205.0 L 987.041666666 215.0" stroke="#FF0000" fill="none" stroke-width="4px" />
<path d="M 987.041666666 215.0 L 997.041666666 215.0" stroke="#FF0000" fill="none" stroke-width="4px" />
<path d="M 997.041666666 215.0 L 1007.04166667 215.0" stroke="#FF0000" fill="none" stroke-width="4px" />
<path d="M 1007.04166667 215.0 L 1017.04166667 215.0" stroke="#FF0000" fill="none" stroke-width="4px" />
<path d="M 1047.04166667 195.0 L 1057.04166667 195.0" stroke="#FF0000" fill="none" stroke-width="4px" />
<path d="M 1057.04166667 195.0 L 1067.04166667 195.0" stroke="#FF0000" fill="none" stroke-width="4px" />
<path d="M 1067.04166667 195.0 L 1077.04166667 195.0" stroke="#FF0000" fill="none" stroke-width="4px" />
<path d="M 1077.04166667 195.0 L 1087.04166667 195.0" stroke="#FF0000" fill="none" stroke-width="4px" />
<path d="M 1087.04166667 195.0 L 1097.04166667 195.0" stroke="#FF0000" fill="none" stroke-width="4px" />
<path d="M 1097.04166667 195.0 L 1097.04166667 185.0" stroke="#FF0000" fill="none" stroke-width="4px" />
<path d="M 1097.04166667 185.0 L 1087.04166667 185.0" stroke="#FF0000" fill="none" stroke-width="4px" />
<path d="M 1087.04166667 185.0 L 1077.04166667 185.0" stroke="#FF0000" fill="none" stroke-width="4px" />
<path d="M 1077.04166667 185.0 L 1067.04166667 185.0" stroke="#FF0000" fill="none" stroke-width="4px" />
<path d="M 1067.04166667 185.0 L 1057.04166667 185.0" stroke="#FF0000" fill="none" stroke-width="4px" />
<path d="M 1057.04166667 185.0 L 1057.04166667 175.0" stroke="#FF0000" fill="none" stroke-width="4px" />
<path d="M 1057.04166667 175.0 L 1067.04166667 175.0" stroke="#FF0000" fill="none" stroke-width="4px" />
<path d="M 1067.04166667 175.0 L 1077.04166667 175.0" stroke="#FF0000" fill="none" stroke-width="4px" />
<path d="M 1077.04166667 175.0 L 1087.04166667 175.0" stroke="#FF0000" fill="none" stroke-width="4px" />
<path d="M 1087.04166667 175.0 L 1097.04166667 175.0" stroke="#FF0000" fill="none" stroke-width="4px" />
<path d="M 1097.04166667 175.0 L 1087.04166667 165.0" stroke="#FF0000" fill="none" stroke-width="4px" />
<path d="M 1087.04166667 165.0 L 1077.04166667 165.0" stroke="#FF0000" fill="none" stroke-width="4px" />
<path d="M 1077.04166667 165.0 L 1067.04166667 165.0" stroke="#FF0000" fill="none" stroke-width="4px" />
<path d="M 1067.04166667 205.0 L 1057.04166667 205.0" stroke="#FF0000" fill="none" stroke-width="4px" />
<path d="M 1057.04166667 205.0 L 1067.04166667 215.0" stroke="#FF0000" fill="none" stroke-width="4px" />
<path d="M 1067.04166667 215.0 L 1077.04166667 215.0" stroke="#FF0000" fill="none" stroke-width="4px" />
<path d="M 1077.04166667 215.0 L 1077.04166667 205.0" stroke="#FF0000" fill="none" stroke-width="4px" />
<path d="M 1077.04166667 205.0 L 1087.04166667 205.0" stroke="#FF0000" fill="none" stroke-width="4px" />
<path d="M 1017.04166667 185.0 L 1007.04166667 185.0" stroke="#FF0000" fill="none" stroke-width="4px" />
<path d="M 1007.04166667 185.0 L 997.041666666 185.0" stroke="#FF0000" fill="none" stroke-width="4px" />
<path d="M 997.041666666 185.0 L 987.041666666 185.0" stroke="#FF0000" fill="none" stroke-width="4px" />
<path d="M 987.041666666 185.0 L 997.041666666 175.0" stroke="#FF0000" fill="none" stroke-width="4px" />
<path d="M 997.041666666 175.0 L 1007.04166667 175.0" stroke="#FF0000" fill="none" stroke-width="4px" />
<path d="M 957.041666666 115.0 L 947.041666666 115.0" stroke="#FF0000" fill="none" stroke-width="4px" />
<path d="M 947.041666666 115.0 L 937.041666666 115.0" stroke="#FF0000" fill="none" stroke-width="4px" />
<path d="M 937.041666666 115.0 L 927.041666666 115.0" stroke="#FF0000" fill="none" stroke-width="4px" />
<path d="M 927.041666666 115.0 L 917.041666666 115.0" stroke="#FF0000" fill="none" stroke-width="4px" />
<path d="M 917.041666666 115.0 L 907.041666666 115.0" stroke="#FF0000" fill="none" stroke-width="4px" />
<path d="M 907.041666666 115.0 L 897.041666666 115.0" stroke="#FF0000" fill="none" stroke-width="4px" />
<path d="M 897.041666666 115.0 L 907.041666666 105.0" stroke="#FF0000" fill="none" stroke-width="4px" />
<path d="M 907.041666666 105.0 L 917.041666666 105.0" stroke="#FF0000" fill="none" stroke-width="4px" />
<path d="M 917.041666666 105.0 L 927.041666666 105.0" stroke="#FF0000" fill="none" stroke-width="4px" />
<path d="M 757.041666666 105.0 L 747.041666666 105.0" stroke="#FF0000" fill="none" stroke-width="4px" />
<path d="M 747.041666666 105.0 L 737.041666666 105.0" stroke="#FF0000" fill="none" stroke-width="4px" />
<path d="M 737.041666666 105.0 L 727.041666666 105.0" stroke="#FF0000" fill="none" stroke-width="4px" />
<path d="M 727.041666666 105.0 L 717.041666666 105.0" stroke="#FF0000" fill="none" stroke-width="4px" />
<path d="M 717.041666666 105.0 L 707.041666666 105.0" stroke="#FF0000" fill="none" stroke-width="4px" />
<path d="M 707.041666666 105.0 L 717.041666666 95.0" stroke="#FF0000" fill="none" stroke-width="4px" />
<path d="M 717.041666666 95.0 L 727.041666666 95.0" stroke="#FF0000" fill="none" stroke-width="4px" />
<path d="M 727.041666666 95.0 L 737.041666666 95.0" stroke="#FF0000" fill="none" stroke-width="4px" />
<path d="M 737.041666666 95.0 L 747.041666666 95.0" stroke="#FF0000" fill="none" stroke-width="4px" />
<path d="M 747.041666666 95.0 L 737.041666666 85.0" stroke="#FF0000" fill="none" stroke-width="4px" />
<path d="M 737.041666666 85.0 L 727.041666666 85.0" stroke="#FF0000" fill="none" stroke-width="4px" />
<path d="M 677.041666666 95.0 L 667.041666666 95.0" stroke="#FF0000" fill="none" stroke-width="4px" />
<path d="M 667.041666666 95.0 L 657.041666666 95.0" stroke="#FF0000" fill="none" stroke-width="4px" />
<path d="M 477.041666666 135.0 L 467.041666666 135.0" stroke="#FF0000" fill="none" stroke-width="4px" />
<path d="M 467.041666666 135.0 L 457.041666666 135.0" stroke="#FF0000" fill="none" stroke-width="4px" />
</svg>