<svg width="2472.26666667" height="235.0" xmlns="http://www.w3.org/2000/svg" version="1.1">
<path d="M 0.0 235.0 L 1985.0 235.0 L 1985.0 0.0 L 0.0 0.0 L 0.0 235.0" stroke="#000000" fill="none" stroke-width="3px" />
<path d="M 2472.26666667 235.0 L 1885.0 235.0 L 1885.0 0.0 L 2472.26666667 0.0 L 2472.26666667 235.0" stroke="#000000" fill="none" stroke-width="3px" />
<path d="M 10.0 257.5 L 0.0 247.5 L 10.0 237.5" stroke="#969696" fill="none" stroke-width="1px" />
<path d="M 10.0 237.5 L 1975.0 237.5" stroke="#969696" fill="none" stroke-width="1px" />
<path d="M 1975.0 237.5 L 1985.0 227.5 L 1975.0 217.5" stroke="#969696" fill="none" stroke-width="1px" />
<path d="M 1975.0 217.5 L 10.0 217.5" stroke="#969696" fill="none" stroke-width="1px" />
<path d="M 10.0 217.5 L 0.0 207.5 L 10.0 197.5" stroke="#969696" fill="none" stroke-width="1px" />
<path d="M 10.0 197.5 L 1975.0 197.5" stroke="#969696" fill="none" stroke-width="1px" />
<path d="M 1975.0 197.5 L 1985.0 187.5 L 1975.0 177.5" stroke="#969696" fill="none" stroke-width="1px" />
<path d="M 1975.0 177.5 L 10.0 177.5" stroke="#969696" fill="none" stroke-width="1px" />
<path d="M 10.0 177.5 L 0.0 167.5 L 10.0 157.5" stroke="#969696" fill="none" stroke-width="1px" />
<path d="M 10.0 157.5 L 1975.0 157.5" stroke="#969696" fill="none" stroke-width="1px" />
<path d="M 1975.0 157.5 L 1985.0 147.5 L 1975.0 137.5" stroke="#969696" fill="none" stroke-width="1px" />
<path d="M 1975.0 137.5 L 10.0 137.5" stroke="#969696" fill="none" stroke-width="1px" />
<path d="M 10.0 137.5 L 0.0 127.5 L 10.0 117.5" stroke="#969696" fill="none" stroke-width="1px" />
<path d="M 10.0 117.5 L 1975.0 117.5" stroke="#969696" fill="none" stroke-width="1px" />
<path d="M 1975.0 117.5 L 1985.0 107.5 L 1975.0 97.5" stroke="#969696" fill="none" stroke-width="1px" />
<path d="M 1975.0 97.5 L 10.0 97.5" stroke="#969696" fill="none" stroke-width="1px" />
<path d="M 10.0 97.5 L 0.0 87.5 L 10.0 77.5" stroke="#969696" fill="none" stroke-width="1px" />
<path d="M 10.0 77.5 L 1975.0 77.5" stroke="#969696" fill="none" stroke-width="1px" />
<path d="M 1975.0 77.5 L 1985.0 67.5 L 1975.0 57.5" stroke="#969696" fill="none" stroke-width="1px" />
<path d="M 1975.0 57.5 L 10.0 57.5" stroke="#969696" fill="none" stroke-width="1px" />
<path d="M 10.0 57.5 L 0.0 47.5 L 10.0 37.5" stroke="#969696" fill="none" stroke-width="1px" />
<path d="M 10.0 37.5 L 1975.0 37.5" stroke="#969696" fill="none" stroke-width="1px" />
<path d="M 1975.0 37.5 L 1985.0 27.5 L 1975.0 17.5" stroke="#969696" fill="none" stroke-width="1px" />
<path d="M 1975.0 17.5 L 10.0 17.5" stroke="#969696" fill="none" stroke-width="1px" />
<path d="M 10.0 17.5 L 0.0 7.5 L 10.0 -2.5" stroke="#969696" fill="none" stroke-width="1px" />
<path d="M 10.0 -2.5 L 1975.0 -2.5" stroke="#969696" fill="none" stroke-width="1px" />
<path d="M 1975.0 -2.5 L 1985.0 -12.5 L 1975.0 -22.5" stroke="#969696" fill="none" stroke-width="1px" />
<path d="M 2462.26666667 257.5 L 2472.26666667 247.5 L 2462.26666667 237.5" stroke="#969696" fill="none" stroke-width="1px" />
<path d="M 2462.26666667 237.5 L 1895.0 237.5" stroke="#969696" fill="none" stroke-width="1px" />
<path d="M 1895.0 237.5 L 1885.0 227.5 L 1895.0 217.5" stroke="#969696" fill="none" stroke-width="1px" />
<path d="M 1895.0 217.5 L 2462.26666667 217.5" stroke="#969696" fill="none" stroke-width="1px" />
<path d="M 2462.26666667 217.5 L 2472.26666667 207.5 L 2462.26666667 197.5" stroke="#969696" fill="none" stroke-width="1px" />
<path d="M 2462.26666667 197.5 L 1895.0 197.5" stroke="#969696" fill="none" stroke-width="1px" />
<path d="M 1895.0 197.5 L 1885.0 187.5 L 1895.0 177.5" stroke="#969696" fill="none" stroke-width="1px" />
<path d="M 1895.0 177.5 L 2462.26666667 177.5" stroke="#969696" fill="none" stroke-width="1px" />
<path d="M 2462.26666667 177.5 L 2472.26666667 167.5 L 2462.26666667 157.5" stroke="#969696" fill="none" stroke-width="1px" />
<path d="M 2462.26666667 157.5 L 1895.0 157.5" stroke="#969696" fill="none" stroke-width="1px" />
<path d="M 1895.0 157.5 L 1885.0 147.5 L 1895.0 137.5" stroke="#969696" fill="none" stroke-width="1px" />
<path d="M 1895.0 137.5 L 2462.26666667 137.5" stroke="#969696" fill="none" stroke-width="1px" />
<path d="M 2462.26666667 137.5 L 2472.26666667 127.5 L 2462.26666667 117.5" stroke="#969696" fill="none" stroke-width="1px" />
<path d="M 2462.26666667 117.5 L 1895.0 117.5" stroke="#969696" fill="none" stroke-width="1px" />
<path d="M 1895.0 117.5 L 1885.0 107.5 L 1895.0 97.5" stroke="#969696" fill="none" stroke-width="1px" />
<path d="M 1895.0 97.5 L 2462.26666667 97.5" stroke="#969696" fill="none" stroke-width="1px" />
<path d="M 2462.26666667 97.5 L 2472.26666667 87.5 L 2462.26666667 77.5" stroke="#969696" fill="none" stroke-width="1px" />
<path d="M 2462.26666667 77.5 L 1895.0 77.5" stroke="#969696" fill="none" stroke-width="1px" />
<path d="M 1895.0 77.5 L 1885.0 67.5 L 1895.0 57.5" stroke="#969696" fill="none" stroke-width="1px" />
<path d="M 1895.0 57.5 L 2462.26666667 57.5" stroke="#969696" fill="none" stroke-width="1px" />
<path d="M 2462.26666667 57.5 L 2472.26666667 47.5 L 2462.26666667 37.5" stroke="#969696" fill="none" stroke-width="1px" />
<path d="M 2462.26666667 37.5 L 1895.0 37.5" stroke="#969696" fill="none" stroke-width="1px" />
<path d="M 1895.0 37.5 L 1885.0 27.5 L 1895.0 17.5" stroke="#969696" fill="none" stroke-width="1px" />
<path d="M 1895.0 17.5 L 2462.26666667 17.5" stroke="#969696" fill="none" stroke-width="1px" />
<path d="M 2462.26666667 17.5 L 2472.26666667 7.5 L 2462.26666667 -2.5" stroke="#969696" fill="none" stroke-width="1px" />
<path d="M 2462.26666667 -2.5 L 1895.0 -2.5" stroke="#969696" fill="none" stroke-width="1px" />
<path d="M 1895.0 -2.5 L 1885.0 -12.5 L 1895.0 -22.5" stroke="#969696" fill="none" stroke-width="1px" />
<path d="M 0.0 235.0 L 250.0 235.0" stroke="#0095FF" fill="none" stroke-width="2px" />
<path d="M 250.0 235.0 L 250.0 85.0" stroke="#0095FF" fill="none" stroke-width="2px" />
<path d="M 250.0 35.0 L 270.0 35.0" stroke="#0095FF" fill="none" stroke-width="2px" />
<path d="M 270.0 35.0 L 270.0 25.0" stroke="#0095FF" fill="none" stroke-width="2px" />
<path d="M 370.0 35.0 L 360.0 35.0" stroke="#0095FF" fill="none" stroke-width="2px" />
<path d="M 360.0 35.0 L 360.0 15.0" stroke="#0095FF" fill="none" stroke-width="2px" />
<path d="M 310.0 5.0 L 360.0 5.0" stroke="#0095FF" fill="none" stroke-width="2px" />
<path d="M 360.0 5.0 L 350.0 5.0" stroke="#0095FF" fill="none" stroke-width="2px" />
<path d="M 350.0 5.0 L 350.0 55.0" stroke="#0095FF" fill="none" stroke-width="2px" />
<path d="M 340.0 65.0 L 310.0 65.0" stroke="#0095FF" fill="none" stroke-width="2px" />
<path d="M 310.0 65.0 L 310.0 75.0" stroke="#0095FF" fill="none" stroke-width="2px" />
<path d="M 280.0 75.0 L 670.0 75.0" stroke="#0095FF" fill="none" stroke-width="2px" />
<path d="M 670.0 75.0 L 670.0 55.0" stroke="#0095FF" fill="none" stroke-width="2px" />
<path d="M 780.0 45.0 L 760.0 45.0" stroke="#0095FF" fill="none" stroke-width="2px" />
<path d="M 760.0 45.0 L 760.0 65.0" stroke="#0095FF" fill="none" stroke-width="2px" />
<path d="M 700.0 105.0 L 700.0 25.0" stroke="#0095FF" fill="none" stroke-width="2px" />
<path d="M 760.0 25.0 L 1260.0 25.0" stroke="#0095FF" fill="none" stroke-width="2px" />
<path d="M 1260.0 25.0 L 1260.0 115.0" stroke="#0095FF" fill="none" stroke-width="2px" />
<path d="M 1280.0 145.0 L 1280.0 105.0" stroke="#0095FF" fill="none" stroke-width="2px" />
<path d="M 1300.0 105.0 L 1700.0 105.0" stroke="#0095FF" fill="none" stroke-width="2px" />
<path d="M 1700.0 105.0 L 1700.0 35.0" stroke="#0095FF" fill="none" stroke-width="2px" />
<path d="M 1730.0 -5.0 L 1730.0 45.0" stroke="#0095FF" fill="none" stroke-width="2px" />
<path d="M 2472.26666667 235.0 L 1970.0 235.0" stroke="#0095FF" fill="none" stroke-width="2px" />
<path d="M 1970.0 235.0 L 1970.0 115.0" stroke="#0095FF" fill="none" stroke-width="2px" />
<path d="M 1880.0 225.0 L 1880.0 135.0" stroke="#0095FF" fill="none" stroke-width="2px" />
<path d="M 1920.0 135.0 L 1890.0 135.0" stroke="#0095FF" fill="none" stroke-width="2px" />
<path d="M 1890.0 135.0 L 1890.0 115.0" stroke="#0095FF" fill="none" stroke-width="2px" />
<path d="M 1880.0 105.0 L 1940.0 105.0" stroke="#0095FF" fill="none" stroke-width="2px" />
<path d="M 250.0 85.0 L 260.0 85.0" stroke="#FF0000" fill="none" stroke-width="4px" />
<path d="M 260.0 85.0 L 270.0 85.0" stroke="#FF0000" fill="none" stroke-width="4px" />
<path d="M 270.0 85.0 L 270.0 75.0" stroke="#FF0000" fill="none" stroke-width="4px" />
<path d="M 270.0 75.0 L 260.0 75.0" stroke="#FF0000" fill="none" stroke-width="4px" />
<path d="M 260.0 75.0 L 250.0 75.0" stroke="#FF0000" fill="none" stroke-width="4px" />
<path d="M 250.0 75.0 L 240.0 75.0" stroke="#FF0000" fill="none" stroke-width="4px" />
<path d="M 240.0 75.0 L 240.0 65.0" stroke="#FF0000" fill="none" stroke-width="4px" />
<path d="M 240.0 65.0 L 250.0 65.0" stroke="#FF0000" fill="none" stroke-width="4px" />
<path d="M 250.0 65.0 L 260.0 65.0" stroke="#FF0000" fill="none" stroke-width="4px" />
<path d="M 260.0 65.0 L 270.0 65.0" stroke="#FF0000" fill="none" stroke-width="4px" />
<path d="M 270.0 65.0 L 280.0 65.0" stroke="#FF0000" fill="none" stroke-width="4px" />
<path d="M 280.0 65.0 L 290.0 65.0" stroke="#FF0000" fill="none" stroke-width="4px" />
<path d="M 290.0 65.0 L 300.0 65.0" stroke="#FF0000" fill="none" stroke-width="4px" />
<path d="M 300.0 65.0 L 310.0 65.0" stroke="#FF0000" fill="none" stroke-width="4px" />
<path d="M 310.0 65.0 L 320.0 65.0" stroke="#FF0000" fill="none" stroke-width="4px" />
<path d="M 320.0 65.0 L 320.0 55.0" stroke="#FF0000" fill="none" stroke-width="4px" />
<path d="M 320.0 55.0 L 310.0 55.0" stroke="#FF0000" fill="none" stroke-width="4px" />
<path d="M 310.0 55.0 L 300.0 55.0" stroke="#FF0000" fill="none" stroke-width="4px" />
<path d="M 300.0 55.0 L 290.0 55.0" stroke="#FF0000" fill="none" stroke-width="4px" />
<path d="M 290.0 55.0 L 280.0 55.0" stroke="#FF0000" fill="none" stroke-width="4px" />
<path d="M 280.0 55.0 L 270.0 55.0" stroke="#FF0000" fill="none" stroke-width="4px" />
<path d="M 270.0 55.0 L 260.0 55.0" stroke="#FF0000" fill="none" stroke-width="4px" />
<path d="M 260.0 55.0 L 250.0 55.0" stroke="#FF0000" fill="none" stroke-width="4px" />
<path d="M 250.0 55.0 L 240.0 55.0" stroke="#FF0000" fill="none" stroke-width="4px" />
<path d="M 240.0 55.0 L 240.0 45.0" stroke="#FF0000" fill="none" stroke-width="4px" />
<path d="M 240.0 45.0 L 250.0 45.0" stroke="#FF0000" fill="none" stroke-width="4px" />
<path d="M 250.0 45.0 L 260.0 45.0" stroke="#FF0000" fill="none" stroke-width="4px" />
<path d="M 260.0 45.0 L 270.0 45.0" stroke="#FF0000" fill="none" stroke-width="4px" />
<path d="M 270.0 45.0 L 280.0 45.0" stroke="#FF0000" fill="none" stroke-width="4px" />
<path d="M 280.0 45.0 L 290.0 45.0" stroke="#FF0000" fill="none" stroke-width="4px" />
<path d="M 290.0 45.0 L 300.0 45.0" stroke="#FF0000" fill="none" stroke-width="4px" />
<path d="M 300.0 45.0 L 310.0 45.0" stroke="#FF0000" fill="none" stroke-width="4px" />
<path d="M 310.0 45.0 L 320.0 45.0" stroke="#FF0000" fill="none" stroke-width="4px" />
<path d="M 320.0 45.0 L 330.0 45.0" stroke="#FF0000" fill="none" stroke-width="4px" />
<path d="M 330.0 45.0 L 340.0 45.0" stroke="#FF0000" fill="none" stroke-width="4px" />
<path d="M 340.0 45.0 L 350.0 45.0" stroke="#FF0000" fill="none" stroke-width="4px" />
<path d="M 350.0 45.0 L 360.0 45.0" stroke="#FF0000" fill="none" stroke-width="4px" />
<path d="M 360.0 45.0 L 360.0 35.0" stroke="#FF0000" fill="none" stroke-width="4px" />
<path d="M 360.0 35.0 L 350.0 35.0" stroke="#FF0000" fill="none" stroke-width="4px" />
<path d="M 350.0 35.0 L 340.0 35.0" stroke="#FF0000" fill="none" stroke-width="4px" />
<path d="M 340.0 35.0 L 330.0 35.0" stroke="#FF0000" fill="none" stroke-width="4px" />
<path d="M 330.0 35.0 L 320.0 35.0" stroke="#FF0000" fill="none" stroke-width="4px" />
<path d="M 320.0 35.0 L 310.0 35.0" stroke="#FF0000" fill="none" stroke-width="4px" />
<path d="M 310.0 35.0 L 300.0 35.0" stroke="#FF0000" fill="none" stroke-width="4px" />
<path d="M 300.0 35.0 L 290.0 35.0" stroke="#FF0000" fill="none" stroke-width="4px" />
<path d="M 290.0 35.0 L 280.0 35.0" stroke="#FF0000" fill="none" stroke-width="4px" />
<path d="M 280.0 35.0 L 270.0 35.0" stroke="#FF0000" fill="none" stroke-width="4px" />
<path d="M 270.0 35.0 L 260.0 35.0" stroke="#FF0000" fill="none" stroke-width="4px" />
<path d="M 260.0 35.0 L 250.0 35.0" stroke="#FF0000" fill="none" stroke-width="4px" />
<path d="M 270.0 25.0 L 290.0 25.0" stroke="#FF0000" fill="none" stroke-width="4px" />
<path d="M 290.0 25.0 L 300.0 25.0" stroke="#FF0000" fill="none" stroke-width="4px" />
<path d="M 300.0 25.0 L 310.0 25.0" stroke="#FF0000" fill="none" stroke-width="4px" />
<path d="M 310.0 25.0 L 320.0 25.0" stroke="#FF0000" fill="none" stroke-width="4px" />
<path d="M 320.0 25.0 L 330.0 25.0" stroke="#FF0000" fill="none" stroke-width="4px" />
<path d="M 330.0 25.0 L 340.0 25.0" stroke="#FF0000" fill="none" stroke-width="4px" />
<path d="M 340.0 25.0 L 350.0 25.0" stroke="#FF0000" fill="none" stroke-width="4px" />
<path d="M 350.0 25.0 L 360.0 25.0" stroke="#FF0000" fill="none" stroke-width="4px" />
<path d="M 360.0 25.0 L 370.0 25.0" stroke="#FF0000" fill="none" stroke-width="4px" />
<path d="M 370.0 25.0 L 370.0 35.0" stroke="#FF0000" fill="none" stroke-width="4px" />
<path d="M 360.0 15.0 L 350.0 15.0" stroke="#FF0000" fill="none" stroke-width="4px" />
<path d="M 350.0 15.0 L 340.0 15.0" stroke="#FF0000" fill="none" stroke-width="4px" />
<path d="M 340.0 15.0 L 330.0 15.0" stroke="#FF0000" fill="none" stroke-width="4px" />
<path d="M 330.0 15.0 L 320.0 15.0" stroke="#FF0000" fill="none" stroke-width="4px" />
<path d="M 320.0 15.0 L 310.0 15.0" stroke="#FF0000" fill="none" stroke-width="4px" />
<path d="M 310.0 15.0 L 300.0 15.0" stroke="#FF0000" fill="none" stroke-width="4px" />
<path d="M 300.0 15.0 L 300.0 5.0" stroke="#FF0000" fill="none" stroke-width="4px" />
<path d="M 300.0 5.0 L 290.0 5.0" stroke="#FF0000" fill="none" stroke-width="4px" />
<path d="M 290.0 5.0 L 300.0 -5.0" stroke="#FF0000" fill="none" stroke-width="4px" />
<path d="M 300.0 -5.0 L 310.0 -5.0" stroke="#FF0000" fill="none" stroke-width="4px" />
<path d="M 310.0 -5.0 L 320.0 -5.0" stroke="#FF0000" fill="none" stroke-width="4px" />
<path d="M 320.0 -5.0 L 330.0 -5.0" stroke="#FF0000" fill="none" stroke-width="4px" />
<path d="M 330.0 -5.0 L 340.0 -5.0" stroke="#FF0000" fill="none" stroke-width="4px" />
<path d="M 340.0 -5.0 L 350.0 -5.0" stroke="#FF0000" fill="none" stroke-width="4px" />
<path d="M 350.0 -5.0 L 350.0 5.0" stroke="#FF0000" fill="none" stroke-width="4px" />
<path d="M 350.0 5.0 L 340.0 5.0" stroke="#FF0000" fill="none" stroke-width="4px" />
<path d="M 340.0 5.0 L 330.0 5.0" stroke="#FF0000" fill="none" stroke-width="4px" />
<path d="M 330.0 5.0 L 320.0 5.0" stroke="#FF0000" fill="none" stroke-width="4px" />
<path d="M 320.0 5.0 L 310.0 5.0" stroke="#FF0000" fill="none" stroke-width="4px" />
<path d="M 350.0 55.0 L 340.0 55.0" stroke="#FF0000" fill="none" stroke-width="4px" />
<path d="M 340.0 55.0 L 330.0 55.0" stroke="#FF0000" fill="none" stroke-width="4px" />
<path d="M 330.0 55.0 L 340.0 65.0" stroke="#FF0000" fill="none" stroke-width="4px" />
<path d="M 310.0 75.0 L 300.0 75.0" stroke="#FF0000" fill="none" stroke-width="4px" />
<path d="M 300.0 75.0 L 280.0 75.0" stroke="#FF0000" fill="none" stroke-width="4px" />
<path d="M 670.0 55.0 L 680.0 55.0" stroke="#FF0000" fill="none" stroke-width="4px" />
<path d="M 680.0 55.0 L 690.0 55.0" stroke="#FF0000" fill="none" stroke-width="4px" />
<path d="M 690.0 55.0 L 700.0 55.0" stroke="#FF0000" fill="none" stroke-width="4px" />
<path d="M 700.0 55.0 L 710.0 55.0" stroke="#FF0000" fill="none" stroke-width="4px" />
<path d="M 710.0 55.0 L 720.0 55.0" stroke="#FF0000" fill="none" stroke-width="4px" />
<path d="M 720.0 55.0 L 730.0 55.0" stroke="#FF0000" fill="none" stroke-width="4px" />
<path d="M 730.0 55.0 L 740.0 55.0" stroke="#FF0000" fill="none" stroke-width="4px" />
<path d="M 740.0 55.0 L 750.0 55.0" stroke="#FF0000" fill="none" stroke-width="4px" />
<path d="M 750.0 55.0 L 760.0 55.0" stroke="#FF0000" fill="none" stroke-width="4px" />
<path d="M 760.0 55.0 L 770.0 55.0" stroke="#FF0000" fill="none" stroke-width="4px" />
<path d="M 770.0 55.0 L 770.0 45.0" stroke="#FF0000" fill="none" stroke-width="4px" />
<path d="M 770.0 45.0 L 760.0 45.0" stroke="#FF0000" fill="none" stroke-width="4px" />
<path d="M 760.0 45.0 L 750.0 45.0" stroke="#FF0000" fill="none" stroke-width="4px" />
<path d="M 750.0 45.0 L 740.0 45.0" stroke="#FF0000" fill="none" stroke-width="4px" />
<path d="M 740.0 45.0 L 730.0 45.0" stroke="#FF0000" fill="none" stroke-width="4px" />
<path d="M 730.0 45.0 L 720.0 45.0" stroke="#FF0000" fill="none" stroke-width="4px" />
<path d="M 720.0 45.0 L 710.0 45.0" stroke="#FF0000" fill="none" stroke-width="4px" />
<path d="M 710.0 45.0 L 700.0 45.0" stroke="#FF0000" fill="none" stroke-width="4px" />
<path d="M 700.0 45.0 L 690.0 45.0" stroke="#FF0000" fill="none" stroke-width="4px" />
<path d="M 690.0 45.0 L 680.0 45.0" stroke="#FF0000" fill="none" stroke-width="4px" />
<path d="M 680.0 45.0 L 680.0 35.0" stroke="#FF0000" fill="none" stroke-width="4px" />
<path d="M 680.0 35.0 L 690.0 35.0" stroke="#FF0000" fill="none" stroke-width="4px" />
<path d="M 690.0 35.0 L 700.0 35.0" stroke="#FF0000" fill="none" stroke-width="4px" />
<path d="M 700.0 35.0 L 710.0 35.0" stroke="#FF0000" fill="none" stroke-width="4px" />
<path d="M 710.0 35.0 L 720.0 35.0" stroke="#FF0000" fill="none" stroke-width="4px" />
<path d="M 720.0 35.0 L 730.0 35.0" stroke="#FF0000" fill="none" stroke-width="4px" />
<path d="M 730.0 35.0 L 740.0 35.0" stroke="#FF0000" fill="none" stroke-width="4px" />
<path d="M 740.0 35.0 L 750.0 35.0" stroke="#FF0000" fill="none" stroke-width="4px" />
<path d="M 750.0 35.0 L 760.0 35.0" stroke="#FF0000" fill="none" stroke-width="4px" />
<path d="M 760.0 35.0 L 770.0 35.0" stroke="#FF0000" fill="none" stroke-width="4px" />
<path d="M 770.0 35.0 L 780.0 45.0" stroke="#FF0000" fill="none" stroke-width="4px" />
<path d="M 760.0 65.0 L 750.0 65.0" stroke="#FF0000" fill="none" stroke-width="4px" />
<path d="M 750.0 65.0 L 740.0 65.0" stroke="#FF0000" fill="none" stroke-width="4px" />
<path d="M 740.0 65.0 L 730.0 65.0" stroke="#FF0000" fill="none" stroke-width="4px" />
<path d="M 730.0 65.0 L 720.0 65.0" stroke="#FF0000" fill="none" stroke-width="4px" />
<path d="M 720.0 65.0 L 710.0 65.0" stroke="#FF0000" fill="none" stroke-width="4px" />
<path d="M 710.0 65.0 L 700.0 65.0" stroke="#FF0000" fill="none" stroke-width="4px" />
<path d="M 700.0 65.0 L 690.0 65.0" stroke="#FF0000" fill="none" stroke-width="4px" />
<path d="M 690.0 65.0 L 680.0 65.0" stroke="#FF0000" fill="none" stroke-width="4px" />
<path d="M 680.0 65.0 L 680.0 75.0" stroke="#FF0000" fill="none" stroke-width="4px" />
<path d="M 680.0 75.0 L 690.0 75.0" stroke="#FF0000" fill="none" stroke-width="4px" />
<path d="M 690.0 75.0 L 700.0 75.0" stroke="#FF0000" fill="none" stroke-width="4px" />
<path d="M 700.0 75.0 L 710.0 75.0" stroke="#FF0000" fill="none" stroke-width="4px" />
<path d="M 710.0 75.0 L 720.0 75.0" stroke="#FF0000" fill="none" stroke-width="4px" />
<path d="M 720.0 75.0 L 730.0 75.0" stroke="#FF0000" fill="none" stroke-width="4px" />
<path d="M 730.0 75.0 L 740.0 75.0" stroke="#FF0000" fill="none" stroke-width="4px" />
<path d="M 740.0 75.0 L 750.0 75.0" stroke="#FF0000" fill="none" stroke-width="4px" />
<path d="M 750.0 75.0 L 750.0 85.0" stroke="#FF0000" fill="none" stroke-width="4px" />
<path d="M 750.0 85.0 L 740.0 85.0" stroke="#FF0000" fill="none" stroke-width="4px" />
<path d="M 740.0 85.0 L 730.0 85.0" stroke="#FF0000" fill="none" stroke-width="4px" />
<path d="M 730.0 85.0 L 720.0 85.0" stroke="#FF0000" fill="none" stroke-width="4px" />
<path d="M 720.0 85.0 L 710.0 85.0" stroke="#FF0000" fill="none" stroke-width="4px" />
<path d="M 710.0 85.0 L 700.0 85.0" stroke="#FF0000" fill="none" stroke-width="4px" />
<path d="M 700.0 85.0 L 690.0 85.0" stroke="#FF0000" fill="none" stroke-width="4px" />
<path d="M 690.0 85.0 L 700.0 95.0" stroke="#FF0000" fill="none" stroke-width="4px" />
<path d="M 700.0 95.0 L 710.0 95.0" stroke="#FF0000" fill="none" stroke-width="4px" />
<path d="M 710.0 95.0 L 720.0 95.0" stroke="#FF0000" fill="none" stroke-width="4px" />
<path d="M 720.0 95.0 L 730.0 95.0" stroke="#FF0000" fill="none" stroke-width="4px" />
<path d="M 730.0 95.0 L 740.0 95.0" stroke="#FF0000" fill="none" stroke-width="4px" />
<path d="M 740.0 95.0 L 730.0 105.0" stroke="#FF0000" fill="none" stroke-width="4px" />
<path d="M 730.0 105.0 L 720.0 105.0" stroke="#FF0000" fill="none" stroke-width="4px" />
<path d="M 720.0 105.0 L 710.0 105.0" stroke="#FF0000" fill="none" stroke-width="4px" />
<path d="M 710.0 105.0 L 700.0 105.0" stroke="#FF0000" fill="none" stroke-width="4px" />
<path d="M 700.0 25.0 L 690.0 25.0" stroke="#FF0000" fill="none" stroke-width="4px" />
<path d="M 690.0 25.0 L 700.0 15.0" stroke="#FF0000" fill="none" stroke-width="4px" />
<path d="M 700.0 15.0 L 710.0 15.0" stroke="#FF0000" fill="none" stroke-width="4px" />
<path d="M 710.0 15.0 L 720.0 15.0" stroke="#FF0000" fill="none" stroke-width="4px" />
<path d="M 720.0 15.0 L 720.0 25.0" stroke="#FF0000" fill="none" stroke-width="4px" />
<path d="M 720.0 25.0 L 710.0 25.0" stroke="#FF0000" fill="none" stroke-width="4px" />
<path d="M 710.0 25.0 L 730.0 25.0" stroke="#FF0000" fill="none" stroke-width="4px" />
<path d="M 730.0 25.0 L 740.0 25.0" stroke="#FF0000" fill="none" stroke-width="4px" />
<path d="M 740.0 25.0 L 750.0 25.0" stroke="#FF0000" fill="none" stroke-width="4px" />
<path d="M 750.0 25.0 L 760.0 25.0" stroke="#FF0000" fill="none" stroke-width="4px" />
<path d="M 1260.0 115.0 L 1270.0 115.0" stroke="#FF0000" fill="none" stroke-width="4px" />
<path d="M 1270.0 115.0 L 1280.0 115.0" stroke="#FF0000" fill="none" stroke-width="4px" />
<path d="M 1280.0 115.0 L 1290.0 115.0" stroke="#FF0000" fill="none" stroke-width="4px" />
<path d="M 1290.0 115.0 L 1300.0 115.0" stroke="#FF0000" fill="none" stroke-width="4px" />
<path d="M 1300.0 115.0 L 1310.0 115.0" stroke="#FF0000" fill="none" stroke-width="4px" />
<path d="M 1310.0 115.0 L 1310.0 125.0" stroke="#FF0000" fill="none" stroke-width="4px" />
<path d="M 1310.0 125.0 L 1300.0 125.0" stroke="#FF0000" fill="none" stroke-width="4px" />
<path d="M 1300.0 125.0 L 1290.0 125.0" stroke="#FF0000" fill="none" stroke-width="4px" />
<path d="M 1290.0 125.0 L 1280.0 125.0" stroke="#FF0000" fill="none" stroke-width="4px" />
<path d="M 1280.0 125.0 L 1270.0 125.0" stroke="#FF0000" fill="none" stroke-width="4px" />
<path d="M 1270.0 125.0 L 1260.0 125.0" stroke="#FF0000" fill="none" stroke-width="4px" />
<path d="M 1260.0 125.0 L 1270.0 135.0" stroke="#FF0000" fill="none" stroke-width="4px" />
<path d="M 1270.0 135.0 L 1280.0 135.0" stroke="#FF0000" fill="none" stroke-width="4px" />
<path d="M 1280.0 135.0 L 1290.0 135.0" stroke="#FF0000" fill="none" stroke-width="4px" />
<path d="M 1290.0 135.0 L 1300.0 135.0" stroke="#FF0000" fill="none" stroke-width="4px" />
<path d="M 1300.0 135.0 L 1290.0 145.0" stroke="#FF0000" fill="none" stroke-width="4px" />
<path d="M 1290.0 145.0 L 1280.0 145.0" stroke="#FF0000" fill="none" stroke-width="4px" />
<path d="M 1280.0 105.0 L 1270.0 105.0" stroke="#FF0000" fill="none" stroke-width="4px" />
<path d="M 1270.0 105.0 L 1280.0 95.0" stroke="#FF0000" fill="none" stroke-width="4px" />
<path d="M 1280.0 95.0 L 1290.0 95.0" stroke="#FF0000" fill="none" stroke-width="4px" />
<path d="M 1290.0 95.0 L 1290.0 105.0" stroke="#FF0000" fill="none" stroke-width="4px" />
<path d="M 1290.0 105.0 L 1300.0 105.0" stroke="#FF0000" fill="none" stroke-width="4px" />
<path d="M 1700.0 35.0 L 1710.0 35.0" stroke="#FF0000" fill="none" stroke-width="4px" />
<path d="M 1710.0 35.0 L 1720.0 35.0" stroke="#FF0000" fill="none" stroke-width="4px" />
<path d="M 1720.0 35.0 L 1730.0 35.0" stroke="#FF0000" fill="none" stroke-width="4px" />
<path d="M 1730.0 35.0 L 1740.0 35.0" stroke="#FF0000" fill="none" stroke-width="4px" />
<path d="M 1740.0 35.0 L 1750.0 35.0" stroke="#FF0000" fill="none" stroke-width="4px" />
<path d="M 1750.0 35.0 L 1750.0 25.0" stroke="#FF0000" fill="none" stroke-width="4px" />
<path d="M 1750.0 25.0 L 1740.0 25.0" stroke="#FF0000" fill="none" stroke-width="4px" />
<path d="M 1740.0 25.0 L 1730.0 25.0" stroke="#FF0000" fill="none" stroke-width="4px" />
<path d="M 1730.0 25.0 L 1720.0 25.0" stroke="#FF0000" fill="none" stroke-width="4px" />
<path d="M 1720.0 25.0 L 1710.0 25.0" stroke="#FF0000" fill="none" stroke-width="4px" />
<path d="M 1710.0 25.0 L 1700.0 25.0" stroke="#FF0000" fill="none" stroke-width="4px" />
<path d="M 1700.0 25.0 L 1700.0 15.0" stroke="#FF0000" fill="none" stroke-width="4px" />
<path d="M 1700.0 15.0 L 1710.0 15.0" stroke="#FF0000" fill="none" stroke-width="4px" />
<path d="M 1710.0 15.0 L 1720.0 15.0" stroke="#FF0000" fill="none" stroke-width="4px" />
<path d="M 1720.0 15.0 L 1730.0 15.0" stroke="#FF0000" fill="none" stroke-width="4px" />
<path d="M 1730.0 15.0 L 1740.0 15.0" stroke="#FF0000" fill="none" stroke-width="4px" />
<path d="M 1740.0 15.0 L 1730.0 5.0" stroke="#FF0000" fill="none" stroke-width="4px" />
<path d="M 1730.0 5.0 L 1720.0 5.0" stroke="#FF0000" fill="none" stroke-width="4px" />
<path d="M 1720.0 5.0 L 1710.0 5.0" stroke="#FF0000" fill="none" stroke-width="4px" />
<path d="M 1710.0 5.0 L 1710.0 -5.0" stroke="#FF0000" fill="none" stroke-width="4px" />
<path d="M 1710.0 -5.0 L 1720.0 -5.0" stroke="#FF0000" fill="none" stroke-width="4px" />
<path d="M 1720.0 -5.0 L 1730.0 -5.0" stroke="#FF0000" fill="none" stroke-width="4px" />
<path d="M 1730.0 45.0 L 1720.0 45.0" stroke="#FF0000" fill="none" stroke-width="4px" />
<path d="M 1720.0 45.0 L 1710.0 45.0" stroke="#FF0000" fill="none" stroke-width="4px" />
<path d="M 1710.0 45.0 L 1720.0 55.0" stroke="#FF0000" fill="none" stroke-width="4px" />
<path d="M 1720.0 55.0 L 1730.0 55.0" stroke="#FF0000" fill="none" stroke-width="4px" />
<path d="M 1730.0 55.0 L 1740.0 45.0" stroke="#FF0000" fill="none" stroke-width="4px" />
<path d="M 1970.0 115.0 L 1960.0 115.0" stroke="#FF0000" fill="none" stroke-width="4px" />
<path d="M 1960.0 115.0 L 1950.0 115.0" stroke="#FF0000" fill="none" stroke-width="4px" />
<path d="M 1950.0 115.0 L 1940.0 115.0" stroke="#FF0000" fill="none" stroke-width="4px" />
<path d="M 1940.0 115.0 L 1930.0 115.0" stroke="#FF0000" fill="none" stroke-width="4px" />
<path d="M 1930.0 115.0 L 1930.0 125.0" stroke="#FF0000" fill="none" stroke-width="4px" />
<path d="M 1930.0 125.0 L 1940.0 125.0" stroke="#FF0000" fill="none" stroke-width="4px" />
<path d="M 1940.0 125.0 L 1950.0 125.0" stroke="#FF0000" fill="none" stroke-width="4px" />
<path d="M 1950.0 125.0 L 1960.0 125.0" stroke="#FF0000" fill="none" stroke-width="4px" />
<path d="M 1960.0 125.0 L 1950.0 135.0" stroke="#FF0000" fill="none" stroke-width="4px" />
<path d="M 1950.0 135.0 L 1940.0 135.0" stroke="#FF0000" fill="none" stroke-width="4px" />
<path d="M 1940.0 135.0 L 1930.0 145.0" stroke="#FF0000" fill="none" stroke-width="4px" />
<path d="M 1930.0 145.0 L 1920.0 145.0" stroke="#FF0000" fill="none" stroke-width="4px" />
<path d="M 1920.0 145.0 L 1910.0 145.0" stroke="#FF0000" fill="none" stroke-width="4px" />
<path d="M 1910.0 145.0 L 1900.0 145.0" stroke="#FF0000" fill="none" stroke-width="4px" />
<path d="M 1900.0 145.0 L 1890.0 145.0" stroke="#FF0000" fill="none" stroke-width="4px" />
<path d="M 1890.0 145.0 L 1880.0 145.0" stroke="#FF0000" fill="none" stroke-width="4px" />
<path d="M 1880.0 145.0 L 1870.0 145.0" stroke="#FF0000" fill="none" stroke-width="4px" />
<path d="M 1870.0 145.0 L 1860.0 145.0" stroke="#FF0000" fill="none" stroke-width="4px" />
<path d="M 1860.0 145.0 L 1850.0 145.0" stroke="#FF0000" fill="none" stroke-width="4px" />
<path d="M 1850.0 145.0 L 1850.0 155.0" stroke="#FF0000" fill="none" stroke-width="4px" />
<path d="M 1850.0 155.0 L 1860.0 155.0" stroke="#FF0000" fill="none" stroke-width="4px" />
<path d="M 1860.0 155.0 L 1870.0 155.0" stroke="#FF0000" fill="none" stroke-width="4px" />
<path d="M 1870.0 155.0 L 1880.0 155.0" stroke="#FF0000" fill="none" stroke-width="4px" />
<path d="M 1880.0 155.0 L 1890.0 155.0" stroke="#FF0000" fill="none" stroke-width="4px" />
<path d="M 1890.0 155.0 L 1900.0 155.0" stroke="#FF0000" fill="none" stroke-width="4px" />
<path d="M 1900.0 155.0 L 1910.0 155.0" stroke="#FF0000" fill="none" stroke-width="4px" />
<path d="M 1910.0 155.0 L 1920.0 155.0" stroke="#FF0000" fill="none" stroke-width="4px" />
<path d="M 1920.0 155.0 L 1930.0 155.0" stroke="#FF0000" fill="none" stroke-width="4px" />
<path d="M 1930.0 155.0 L 1940.0 155.0" stroke="#FF0000" fill="none" stroke-width="4px" />
<path d="M 1940.0 155.0 L 1940.0 165.0" stroke="#FF0000" fill="none" stroke-width="4px" />
<path d="M 1940.0 165.0 L 1930.0 165.0" stroke="#FF0000" fill="none" stroke-width="4px" />
<path d="M 1930.0 165.0 L 1920.0 165.0" stroke="#FF0000" fill="none" stroke-width="4px" />
<path d="M 1920.0 165.0 L 1910.0 165.0" stroke="#FF0000" fill="none" stroke-width="4px" />
<path d="M 1910.0 165.0 L 1900.0 165.0" stroke="#FF0000" fill="none" stroke-width="4px" />
<path d="M 1900.0 165.0 L 1890.0 165.0" stroke="#FF0000" fill="none" stroke-width="4px" />
<path d="M 1890.0 165.0 L 1880.0 165.0" stroke="#FF0000" fill="none" stroke-width="4px" />
<path d="M 1880.0 165.0 L 1870.0 165.0" stroke="#FF0000" fill="none" stroke-width="4px" />
<path d="M 1870.0 165.0 L 1860.0 165.0" stroke="#FF0000" fill="none" stroke-width="4px" />
<path d="M 1860.0 165.0 L 1850.0 165.0" stroke="#FF0000" fill="none" stroke-width="4px" />
<path d="M 1850.0 165.0 L 1850.0 175.0" stroke="#FF0000" fill="none" stroke-width="4px" />
<path d="M 1850.0 175.0 L 1860.0 175.0" stroke="#FF0000" fill="none" stroke-width="4px" />
<path d="M 1860.0 175.0 L 1870.0 175.0" stroke="#FF0000" fill="none" stroke-width="4px" />
<path d="M 1870.0 175.0 L 1880.0 175.0" stroke="#FF0000" fill="none" stroke-width="4px" />
<path d="M 1880.0 175.0 L 1890.0 175.0" stroke="#FF0000" fill="none" stroke-width="4px" />
<path d="M 1890.0 175.0 L 1900.0 175.0" stroke="#FF0000" fill="none" stroke-width="4px" />
<path d="M 1900.0 175.0 L 1910.0 175.0" stroke="#FF0000" fill="none" stroke-width="4px" />
<path d="M 1910.0 175.0 L 1920.0 175.0" stroke="#FF0000" fill="none" stroke-width="4px" />
<path d="M 1920.0 175.0 L 1930.0 175.0" stroke="#FF0000" fill="none" stroke-width="4px" />
<path d="M 1930.0 175.0 L 1940.0 175.0" stroke="#FF0000" fill="none" stroke-width="4px" />
<path d="M 1940.0 175.0 L 1930.0 185.0" stroke="#FF0000" fill="none" stroke-width="4px" />
<path d="M 1930.0 185.0 L 1920.0 185.0" stroke="#FF0000" fill="none" stroke-width="4px" />
<path d="M 1920.0 185.0 L 1910.0 185.0" stroke="#FF0000" fill="none" stroke-width="4px" />
<path d="M 1910.0 185.0 L 1900.0 185.0" stroke="#FF0000" fill="none" stroke-width="4px" />
<path d="M 1900.0 185.0 L 1890.0 185.0" stroke="#FF0000" fill="none" stroke-width="4px" />
<path d="M 1890.0 185.0 L 1880.0 185.0" stroke="#FF0000" fill="none" stroke-width="4px" />
<path d="M 1880.0 185.0 L 1870.0 185.0" stroke="#FF0000" fill="none" stroke-width="4px" />
<path d="M 1870.0 185.0 L 1860.0 185.0" stroke="#FF0000" fill="none" stroke-width="4px" />
<path d="M 1860.0 185.0 L 1860.0 195.0" stroke="#FF0000" fill="none" stroke-width="4px" />
<path d="M 1860.0 195.0 L 1870.0 195.0" stroke="#FF0000" fill="none" stroke-width="4px" />
<path d="M 1870.0 195.0 L 1880.0 195.0" stroke="#FF0000" fill="none" stroke-width="4px" />
<path d="M 1880.0 195.0 L 1890.0 195.0" stroke="#FF0000" fill="none" stroke-width="4px" />
<path d="M 1890.0 195.0 L 1900.0 195.0" stroke="#FF0000" fill="none" stroke-width="4px" />
<path d="M 1900.0 195.0 L 1910.0 195.0" stroke="#FF0000" fill="none" stroke-width="4px" />
<path d="M 1910.0 195.0 L 1920.0 195.0" stroke="#FF0000" fill="none" stroke-width="4px" />
<path d="M 1920.0 195.0 L 1910.0 205.0" stroke="#FF0000" fill="none" stroke-width="4px" />
<path d="M 1910.0 205.0 L 1900.0 205.0" stroke="#FF0000" fill="none" stroke-width="4px" />
<path d="M 1900.0 205.0 L 1890.0 205.0" stroke="#FF0000" fill="none" stroke-width="4px" />
<path d="M 1890.0 205.0 L 1880.0 205.0" stroke="#FF0000" fill="none" stroke-width="4px" />
<path d="M 1880.0 205.0 L 1870.0 205.0" stroke="#FF0000" fill="none" stroke-width="4px" />
<path d="M 1870.0 205.0 L 1870.0 215.0" stroke="#FF0000" fill="none" stroke-width="4px" />
<path d="M 1870.0 215.0 L 1880.0 215.0" stroke="#FF0000" fill="none" stroke-width="4px" />
<path d="M 1880.0 215.0 L 1890.0 215.0" stroke="#FF0000" fill="none" stroke-width="4px" />
<path d="M 1890.0 215.0 L 1900.0 215.0" stroke="#FF0000" fill="none" stroke-width="4px" />
<path d="M 1900.0 215.0 L 1890.0 225.0" stroke="#FF0000" fill="none" stroke-width="4px" />
<path d="M 1890.0 225.0 L 1880.0 225.0" stroke="#FF0000" fill="none" stroke-width="4px" />
<path d="M 1880.0 135.0 L 1870.0 135.0" stroke="#FF0000" fill="none" stroke-width="4px" />
<path d="M 1870.0 135.0 L 1860.0 135.0" stroke="#FF0000" fill="none" stroke-width="4px" />
<path d="M 1860.0 135.0 L 1850.0 135.0" stroke="#FF0000" fill="none" stroke-width="4px" />
<path d="M 1850.0 135.0 L 1850.0 125.0" stroke="#FF0000" fill="none" stroke-width="4px" />
<path d="M 1850.0 125.0 L 1860.0 125.0" stroke="#FF0000" fill="none" stroke-width="4px" />
<path d="M 1860.0 125.0 L 1870.0 125.0" stroke="#FF0000" fill="none" stroke-width="4px" />
<path d="M 1870.0 125.0 L 1880.0 125.0" stroke="#FF0000" fill="none" stroke-width="4px" />
<path d="M 1880.0 125.0 L 1890.0 125.0" stroke="#FF0000" fill="none" stroke-width="4px" />
<path d="M 1890.0 125.0 L 1900.0 125.0" stroke="#FF0000" fill="none" stroke-width="4px" />
<path d="M 1900.0 125.0 L 1900.0 135.0" stroke="#FF0000" fill="none" stroke-width="4px" />
<path d="M 1900.0 135.0 L 1890.0 135.0" stroke="#FF0000" fill="none" stroke-width="4px" />
<path d="M 1890.0 135.0 L 1910.0 135.0" stroke="#FF0000" fill="none" stroke-width="4px" />
<path d="M 1910.0 135.0 L 1920.0 135.0" stroke="#FF0000" fill="none" stroke-width="4px" />
<path d="M 1890.0 115.0 L 1880.0 115.0" stroke="#FF0000" fill="none" stroke-width="4px" />
<path d="M 1880.0 115.0 L 1870.0 115.0" stroke="#FF0000" fill="none" stroke-width="4px" />
<path d="M 1870.0 115.0 L 1860.0 115.0" stroke="#FF0000" fill="none" stroke-width="4px" />
<path d="M 1860.0 115.0 L 1850.0 115.0" stroke="#FF0000" fill="none" stroke-width="4px" />
<path d="M 1850.0 115.0 L 1860.0 105.0" stroke="#FF0000" fill="none" stroke-width="4px" />
<path d="M 1860.0 105.0 L 1870.0 105.0" stroke="#FF0000" fill="none" stroke-width="4px" />
<path d="M 1870.0 105.0 L 1880.0 105.0" stroke="#FF0000" fill="none" stroke-width="4px" />
<path d="M 1940.0 105.0 L 1950.0 105.0" stroke="#FF0000" fill="none" stroke-width="4px" />
<path d="M 1950.0 105.0 L 1960.0 105.0" stroke="#FF0000" fill="none" stroke-width="4px" />
<path d="M 1960.0 105.0 L 1950.0 95.0" stroke="#FF0000" fill="none" stroke-width="4px" />
</svg>