<svg width="2472.26666667" height="235.0" xmlns="http://www.w3.org/2000/svg" version="1.1">
<path d="M 0.0 235.0 L 1985.0 235.0 L 1985.0 0.0 L 0.0 0.0 L 0.0 235.0" stroke="#000000" fill="none" stroke-width="3px" />
<path d="M 2472.26666667 235.0 L 1885.0 235.0 L 1885.0 0.0 L 2472.26666667 0.0 L 2472.26666667 235.0" stroke="#000000" fill="none" stroke-width="3px" />
<path d="M 10.0 257.5 L 0.0 247.5 L 10.0 237.5" stroke="#969696" fill="none" stroke-width="1px" />
<path d="M 10.0 237.5 L 1975.0 237.5" stroke="#969696" fill="none" stroke-width="1px" />
<path d="M 1975.0 237.5 L 1985.0 227.5 L 1975.0 217.5" stroke="#969696" fill="none" stroke-width="1px" />
<path d="M 1975.0 217.5 L 10.0 217.5" stroke="#969696" fill="none" stroke-width="1px" />
<path d="M 10.0 217.5 L 0.0 207.5 L 10.0 197.5" stroke="#969696" fill="none" stroke-width="1px" />
<path d="M 10.0 197.5 L 1975.0 197.5" stroke="#969696" fill="none" stroke-width="1px" />
<path d="M 1975.0 197.5 L 1985.0 187.5 L 1975.0 177.5" stroke="#969696" fill="none" stroke-width="1px" />
<path d="M 1975.0 177.5 L 10.0 177.5" stroke="#969696" fill="none" stroke-width="1px" />
<path d="M 10.0 177.5 L 0.0 167.5 L 10.0 157.5" stroke="#969696" fill="none" stroke-width="1px" />
<path d="M 10.0 157.5 L 1975.0 157.5" stroke="#969696" fill="none" stroke-width="1px" />
<path d="M 1975.0 157.5 L 1985.0 147.5 L 1975.0 137.5" stroke="#969696" fill="none" stroke-width="1px" />
<path d="M 1975.0 137.5 L 10.0 137.5" stroke="#969696" fill="none" stroke-width="1px" />
<path d="M 10.0 137.5 L 0.0 127.5 L 10.0 117.5" stroke="#969696" fill="none" stroke-width="1px" />
<path d="M 10.0 117.5 L 1975.0 117.5" stroke="#969696" fill="none" stroke-width="1px" />
<path d="M 1975.0 117.5 L 1985.0 107.5 L 1975.0 97.5" stroke="#969696" fill="none" stroke-width="1px" />
<path d="M 1975.0 97.5 L 10.0 97.5" stroke="#969696" fill="none" stroke-width="1px" />
<path d="M 10.0 97.5 L 0.0 87.5 L 10.0 77.5" stroke="#969696" fill="none" stroke-width="1px" />
<path d="M 10.0 77.5 L 1975.0 77.5" stroke="#969696" fill="none" stroke-width="1px" />
<path d="M 1975.0 77.5 L 1985.0 67.5 L 1975.0 57.5" stroke="#969696" fill="none" stroke-width="1px" />
<path d="M 1975.0 57.5 L 10.0 57.5" stroke="#969696" fill="none" stroke-width="1px" />
<path d="M 10.0 57.5 L 0.0 47.5 L 10.0 37.5" stroke="#969696" fill="none" stroke-width="1px" />
<path d="M 10.0 37.5 L 1975.0 37.5" stroke="#969696" fill="none" stroke-width="1px" />
<path d="M 1975.0 37.5 L 1985.0 27.5 L 1975.0 17.5" stroke="#969696" fill="none" stroke-width="1px" />
<path d="M 1975.0 17.5 L 10.0 17.5" stroke="#969696" fill="none" stroke-width="1px" />
<path d="M 10.0 17.5 L 0.0 7.5 L 10.0 -2.5" stroke="#969696" fill="none" stroke-width="1px" />
<path d="M 10.0 -2.5 L 1975.0 -2.5" stroke="#969696" fill="none" stroke-width="1px" />
<path d="M 1975.0 -2.5 L 1985.0 -12.5 L 1975.0 -22.5" stroke="#969696" fill="none" stroke-width="1px" />
<path d="M 2462.26666667 257.5 L 2472.26666667 247.5 L 2462.26666667 237.5" stroke="#969696" fill="none" stroke-width="1px" />
<path d="M 2462.26666667 237.5 L 1895.0 237.5" stroke="#969696" fill="none" stroke-width="1px" />
<path d="M 1895.0 237.5 L 1885.0 227.5 L 1895.0 217.5" stroke="#969696" fill="none" stroke-width="1px" />
<path d="M 1895.0 217.5 L 2462.26666667 217.5" stroke="#969696" fill="none" stroke-width="1px" />
<path d="M 2462.26666667 217.5 L 2472.26666667 207.5 L 2462.26666667 197.5" stroke="#969696" fill="none" stroke-width="1px" />
<path d="M 2462.26666667 197.5 L 1895.0 197.5" stroke="#969696" fill="none" stroke-width="1px" />
<path d="M 1895.0 197.5 L 1885.0 187.5 L 1895.0 177.5" stroke="#969696" fill="none" stroke-width="1px" />
<path d="M 1895.0 177.5 L 2462.26666667 177.5" stroke="#969696" fill="none" stroke-width="1px" />
<path d="M 2462.26666667 177.5 L 2472.26666667 167.5 L 2462.26666667 157.5" stroke="#969696" fill="none" stroke-width="1px" />
<path d="M 2462.26666667 157.5 L 1895.0 157.5" stroke="#969696" fill="none" stroke-width="1px" />
<path d="M 1895.0 157.5 L 1885.0 147.5 L 1895.0 137.5" stroke="#969696" fill="none" stroke-width="1px" />
<path d="M 1895.0 137.5 L 2462.26666667 137.5" stroke="#969696" fill="none" stroke-width="1px" />
<path d="M 2462.26666667 137.5 L 2472.26666667 127.5 L 2462.26666667 117.5" stroke="#969696" fill="none" stroke-width="1px" />
<path d="M 2462.26666667 117.5 L 1895.0 117.5" stroke="#969696" fill="none" stroke-width="1px" />
<path d="M 1895.0 117.5 L 1885.0 107.5 L 1895.0 97.5" stroke="#969696" fill="none" stroke-width="1px" />
<path d="M 1895.0 97.5 L 2462.26666667 97.5" stroke="#969696" fill="none" stroke-width="1px" />
<path d="M 2462.26666667 97.5 L 2472.26666667 87.5 L 2462.26666667 77.5" stroke="#969696" fill="none" stroke-width="1px" />
<path d="M 2462.26666667 77.5 L 1895.0 77.5" stroke="#969696" fill="none" stroke-width="1px" />
<path d="M 1895.0 77.5 L 1885.0 67.5 L 1895.0 57.5" stroke="#969696" fill="none" stroke-width="1px" />
<path d="M 1895.0 57.5 L 2462.26666667 57.5" stroke="#969696" fill="none" stroke-width="1px" />
<path d="M 2462.26666667 57.5 L 2472.26666667 47.5 L 2462.26666667 37.5" stroke="#969696" fill="none" stroke-width="1px" />
<path d="M 2462.26666667 37.5 L 1895.0 37.5" stroke="#969696" fill="none" stroke-width="1px" />
<path d="M 1895.0 37.5 L 1885.0 27.5 L 1895.0 17.5" stroke="#969696" fill="none" stroke-width="1px" />
<path d="M 1895.0 17.5 L 2462.26666667 17.5" stroke="#969696" fill="none" stroke-width="1px" />
<path d="M 2462.26666667 17.5 L 2472.26666667 7.5 L 2462.26666667 -2.5" stroke="#969696" fill="none" stroke-width="1px" />
<path d="M 2462.26666667 -2.5 L 1895.0 -2.5" stroke="#969696" fill="none" stroke-width="1px" />
<path d="M 1895.0 -2.5 L 1885.0 -12.5 L 1895.0 -22.5" stroke="#969696" fill="none" stroke-width="1px" />
<path d="M 80.0 205.0 L 80.0 185.0" stroke="#0095FF" fill="none" stroke-width="2px" />
<path d="M 80.0 145.0 L 80.0 125.0" stroke="#0095FF" fill="none" stroke-width="2px" />
<path d="M 70.0 115.0 L 160.0 115.0" stroke="#0095FF" fill="none" stroke-width="2px" />
<path d="M 240.0 85.0 L 220.0 85.0" stroke="#0095FF" fill="none" stroke-width="2px" />
<path d="M 220.0 85.0 L 220.0 65.0" stroke="#0095FF" fill="none" stroke-width="2px" />
<path d="M 200.0 65.0 L 200.0 125.0" stroke="#0095FF" fill="none" stroke-width="2px" />
<path d="M 240.0 175.0 L 250.0 175.0" stroke="#0095FF" fill="none" stroke-width="2px" />
<path d="M 250.0 175.0 L 250.0 145.0" stroke="#0095FF" fill="none" stroke-width="2px" />
<path d="M 250.0 145.0 L 220.0 145.0" stroke="#0095FF" fill="none" stroke-width="2px" />
<path d="M 220.0 145.0 L 220.0 125.0" stroke="#0095FF" fill="none" stroke-width="2px" />
<path d="M 210.0 125.0 L 560.0 125.0" stroke="#0095FF" fill="none" stroke-width="2px" />
<path d="M 610.0 65.0 L 590.0 65.0" stroke="#0095FF" fill="none" stroke-width="2px" />
<path d="M 590.0 65.0 L 590.0 55.0" stroke="#0095FF" fill="none" stroke-width="2px" />
<path d="M 580.0 35.0 L 610.0 35.0" stroke="#0095FF" fill="none" stroke-width="2px" />
<path d="M 610.0 35.0 L 610.0 95.0" stroke="#0095FF" fill="none" stroke-width="2px" />
<path d="M 610.0 95.0 L 580.0 95.0" stroke="#0095FF" fill="none" stroke-width="2px" />
<path d="M 580.0 95.0 L 580.0 135.0" stroke="#0095FF" fill="none" stroke-width="2px" />
<path d="M 570.0 135.0 L 680.0 135.0" stroke="#0095FF" fill="none" stroke-width="2px" />
<path d="M 720.0 75.0 L 730.0 75.0" stroke="#0095FF" fill="none" stroke-width="2px" />
<path d="M 730.0 75.0 L 730.0 45.0" stroke="#0095FF" fill="none" stroke-width="2px" />
<path d="M 730.0 25.0 L 750.0 25.0" stroke="#0095FF" fill="none" stroke-width="2px" />
<path d="M 750.0 25.0 L 750.0 35.0" stroke="#0095FF" fill="none" stroke-width="2px" />
<path d="M 750.0 35.0 L 750.0 5.0" stroke="#0095FF" fill="none" stroke-width="2px" />
<path d="M 740.0 -5.0 L 810.0 -5.0" stroke="#0095FF" fill="none" stroke-width="2px" />
<path d="M 810.0 -5.0 L 810.0 35.0" stroke="#0095FF" fill="none" stroke-width="2px" />
<path d="M 810.0 65.0 L 840.0 65.0" stroke="#0095FF" fill="none" stroke-width="2px" />
<path d="M 840.0 65.0 L 840.0 45.0" stroke="#0095FF" fill="none" stroke-width="2px" />
<path d="M 840.0 45.0 L 820.0 45.0" stroke="#0095FF" fill="none" stroke-width="2px" />
<path d="M 820.0 45.0 L 820.0 25.0" stroke="#0095FF" fill="none" stroke-width="2px" />
<path d="M 820.0 25.0 L 730.0 25.0" stroke="#0095FF" fill="none" stroke-width="2px" />
<path d="M 730.0 25.0 L 730.0 145.0" stroke="#0095FF" fill="none" stroke-width="2px" />
<path d="M 710.0 155.0 L 1620.0 155.0" stroke="#0095FF" fill="none" stroke-width="2px" />
<path d="M 1620.0 155.0 L 1620.0 85.0" stroke="#0095FF" fill="none" stroke-width="2px" />
<path d="M 1640.0 45.0 L 1640.0 95.0" stroke="#0095FF" fill="none" stroke-width="2px" />
<path d="M 2472.26666667 235.0 L 2300.0 235.0" stroke="#0095FF" fill="none" stroke-width="2px" />
<path d="M 2300.0 235.0 L 2300.0 125.0" stroke="#0095FF" fill="none" stroke-width="2px" />
<path d="M 2300.0 65.0 L 2300.0 115.0" stroke="#0095FF" fill="none" stroke-width="2px" />
<path d="M 2310.0 115.0 L 2190.0 115.0" stroke="#0095FF" fill="none" stroke-width="2px" />
<path d="M 2190.0 115.0 L 2190.0 85.0" stroke="#0095FF" fill="none" stroke-width="2px" />
<path d="M 2170.0 55.0 L 2170.0 95.0" stroke="#0095FF" fill="none" stroke-width="2px" />
<path d="M 0.0 235.0 L 10.0 235.0" stroke="#FF0000" fill="none" stroke-width="4px" />
<path d="M 10.0 235.0 L 20.0 235.0" stroke="#FF0000" fill="none" stroke-width="4px" />
<path d="M 20.0 235.0 L 30.0 235.0" stroke="#FF0000" fill="none" stroke-width="4px" />
<path d="M 30.0 235.0 L 30.0 225.0" stroke="#FF0000" fill="none" stroke-width="4px" />
<path d="M 30.0 225.0 L 20.0 225.0" stroke="#FF0000" fill="none" stroke-width="4px" />
<path d="M 20.0 225.0 L 10.0 225.0" stroke="#FF0000" fill="none" stroke-width="4px" />
<path d="M 10.0 225.0 L 10.0 215.0" stroke="#FF0000" fill="none" stroke-width="4px" />
<path d="M 10.0 215.0 L 20.0 215.0" stroke="#FF0000" fill="none" stroke-width="4px" />
<path d="M 20.0 215.0 L 30.0 215.0" stroke="#FF0000" fill="none" stroke-width="4px" />
<path d="M 30.0 215.0 L 40.0 215.0" stroke="#FF0000" fill="none" stroke-width="4px" />
<path d="M 40.0 215.0 L 50.0 215.0" stroke="#FF0000" fill="none" stroke-width="4px" />
<path d="M 50.0 215.0 L 60.0 215.0" stroke="#FF0000" fill="none" stroke-width="4px" />
<path d="M 60.0 215.0 L 70.0 215.0" stroke="#FF0000" fill="none" stroke-width="4px" />
<path d="M 70.0 215.0 L 70.0 205.0" stroke="#FF0000" fill="none" stroke-width="4px" />
<path d="M 70.0 205.0 L 60.0 205.0" stroke="#FF0000" fill="none" stroke-width="4px" />
<path d="M 60.0 205.0 L 50.0 205.0" stroke="#FF0000" fill="none" stroke-width="4px" />
<path d="M 50.0 205.0 L 40.0 205.0" stroke="#FF0000" fill="none" stroke-width="4px" />
<path d="M 40.0 205.0 L 30.0 205.0" stroke="#FF0000" fill="none" stroke-width="4px" />
<path d="M 30.0 205.0 L 20.0 205.0" stroke="#FF0000" fill="none" stroke-width="4px" />
<path d="M 20.0 205.0 L 10.0 205.0" stroke="#FF0000" fill="none" stroke-width="4px" />
<path d="M 10.0 205.0 L 10.0 195.0" stroke="#FF0000" fill="none" stroke-width="4px" />
<path d="M 10.0 195.0 L 20.0 195.0" stroke="#FF0000" fill="none" stroke-width="4px" />
<path d="M 20.0 195.0 L 30.0 195.0" stroke="#FF0000" fill="none" stroke-width="4px" />
<path d="M 30.0 195.0 L 40.0 195.0" stroke="#FF0000" fill="none" stroke-width="4px" />
<path d="M 40.0 195.0 L 50.0 195.0" stroke="#FF0000" fill="none" stroke-width="4px" />
<path d="M 50.0 195.0 L 60.0 195.0" stroke="#FF0000" fill="none" stroke-width="4px" />
<path d="M 60.0 195.0 L 70.0 195.0" stroke="#FF0000" fill="none" stroke-width="4px" />
<path d="M 70.0 195.0 L 80.0 195.0" stroke="#FF0000" fill="none" stroke-width="4px" />
<path d="M 80.0 195.0 L 90.0 195.0" stroke="#FF0000" fill="none" stroke-width="4px" />
<path d="M 90.0 195.0 L 80.0 205.0" stroke="#FF0000" fill="none" stroke-width="4px" />
<path d="M 80.0 185.0 L 70.0 185.0" stroke="#FF0000" fill="none" stroke-width="4px" />
<path d="M 70.0 185.0 L 60.0 185.0" stroke="#FF0000" fill="none" stroke-width="4px" />
<path d="M 60.0 185.0 L 50.0 185.0" stroke="#FF0000" fill="none" stroke-width="4px" />
<path d="M 50.0 185.0 L 40.0 185.0" stroke="#FF0000" fill="none" stroke-width="4px" />
<path d="M 40.0 185.0 L 30.0 185.0" stroke="#FF0000" fill="none" stroke-width="4px" />
<path d="M 30.0 185.0 L 20.0 185.0" stroke="#FF0000" fill="none" stroke-width="4px" />
<path d="M 20.0 185.0 L 10.0 185.0" stroke="#FF0000" fill="none" stroke-width="4px" />
<path d="M 10.0 185.0 L 10.0 175.0" stroke="#FF0000" fill="none" stroke-width="4px" />
<path d="M 10.0 175.0 L 20.0 175.0" stroke="#FF0000" fill="none" stroke-width="4px" />
<path d="M 20.0 175.0 L 30.0 175.0" stroke="#FF0000" fill="none" stroke-width="4px" />
<path d="M 30.0 175.0 L 40.0 175.0" stroke="#FF0000" fill="none" stroke-width="4px" />
<path d="M 40.0 175.0 L 50.0 175.0" stroke="#FF0000" fill="none" stroke-width="4px" />
<path d="M 50.0 175.0 L 60.0 175.0" stroke="#FF0000" fill="none" stroke-width="4px" />
<path d="M 60.0 175.0 L 70.0 175.0" stroke="#FF0000" fill="none" stroke-width="4px" />
<path d="M 70.0 175.0 L 70.0 165.0" stroke="#FF0000" fill="none" stroke-width="4px" />
<path d="M 70.0 165.0 L 60.0 165.0" stroke="#FF0000" fill="none" stroke-width="4px" />
<path d="M 60.0 165.0 L 50.0 165.0" stroke="#FF0000" fill="none" stroke-width="4px" />
<path d="M 50.0 165.0 L 40.0 165.0" stroke="#FF0000" fill="none" stroke-width="4px" />
<path d="M 40.0 165.0 L 30.0 165.0" stroke="#FF0000" fill="none" stroke-width="4px" />
<path d="M 30.0 165.0 L 20.0 165.0" stroke="#FF0000" fill="none" stroke-width="4px" />
<path d="M 20.0 165.0 L 10.0 165.0" stroke="#FF0000" fill="none" stroke-width="4px" />
<path d="M 10.0 165.0 L 10.0 155.0" stroke="#FF0000" fill="none" stroke-width="4px" />
<path d="M 10.0 155.0 L 20.0 155.0" stroke="#FF0000" fill="none" stroke-width="4px" />
<path d="M 20.0 155.0 L 30.0 155.0" stroke="#FF0000" fill="none" stroke-width="4px" />
<path d="M 30.0 155.0 L 40.0 155.0" stroke="#FF0000" fill="none" stroke-width="4px" />
<path d="M 40.0 155.0 L 50.0 155.0" stroke="#FF0000" fill="none" stroke-width="4px" />
<path d="M 50.0 155.0 L 60.0 155.0" stroke="#FF0000" fill="none" stroke-width="4px" />
<path d="M 60.0 155.0 L 70.0 155.0" stroke="#FF0000" fill="none" stroke-width="4px" />
<path d="M 70.0 155.0 L 70.0 145.0" stroke="#FF0000" fill="none" stroke-width="4px" />
<path d="M 70.0 145.0 L 60.0 145.0" stroke="#FF0000" fill="none" stroke-width="4px" />
<path d="M 60.0 145.0 L 50.0 145.0" stroke="#FF0000" fill="none" stroke-width="4px" />
<path d="M 50.0 145.0 L 40.0 145.0" stroke="#FF0000" fill="none" stroke-width="4px" />
<path d="M 40.0 145.0 L 30.0 145.0" stroke="#FF0000" fill="none" stroke-width="4px" />
<path d="M 30.0 145.0 L 20.0 145.0" stroke="#FF0000" fill="none" stroke-width="4px" />
<path d="M 20.0 145.0 L 30.0 135.0" stroke="#FF0000" fill="none" stroke-width="4px" />
<path d="M 30.0 135.0 L 40.0 135.0" stroke="#FF0000" fill="none" stroke-width="4px" />
<path d="M 40.0 135.0 L 50.0 135.0" stroke="#FF0000" fill="none" stroke-width="4px" />
<path d="M 50.0 135.0 L 60.0 135.0" stroke="#FF0000" fill="none" stroke-width="4px" />
<path d="M 60.0 135.0 L 70.0 135.0" stroke="#FF0000" fill="none" stroke-width="4px" />
<path d="M 70.0 135.0 L 80.0 135.0" stroke="#FF0000" fill="none" stroke-width="4px" />
<path d="M 80.0 135.0 L 90.0 135.0" stroke="#FF0000" fill="none" stroke-width="4px" />
<path d="M 90.0 135.0 L 80.0 145.0" stroke="#FF0000" fill="none" stroke-width="4px" />
<path d="M 80.0 125.0 L 70.0 125.0" stroke="#FF0000" fill="none" stroke-width="4px" />
<path d="M 70.0 125.0 L 60.0 125.0" stroke="#FF0000" fill="none" stroke-width="4px" />
<path d="M 60.0 125.0 L 50.0 125.0" stroke="#FF0000" fill="none" stroke-width="4px" />
<path d="M 50.0 125.0 L 40.0 125.0" stroke="#FF0000" fill="none" stroke-width="4px" />
<path d="M 40.0 125.0 L 50.0 115.0" stroke="#FF0000" fill="none" stroke-width="4px" />
<path d="M 50.0 115.0 L 60.0 115.0" stroke="#FF0000" fill="none" stroke-width="4px" />
<path d="M 60.0 115.0 L 70.0 115.0" stroke="#FF0000" fill="none" stroke-width="4px" />
<path d="M 160.0 115.0 L 170.0 115.0" stroke="#FF0000" fill="none" stroke-width="4px" />
<path d="M 170.0 115.0 L 180.0 115.0" stroke="#FF0000" fill="none" stroke-width="4px" />
<path d="M 180.0 115.0 L 190.0 115.0" stroke="#FF0000" fill="none" stroke-width="4px" />
<path d="M 190.0 115.0 L 200.0 115.0" stroke="#FF0000" fill="none" stroke-width="4px" />
<path d="M 200.0 115.0 L 210.0 115.0" stroke="#FF0000" fill="none" stroke-width="4px" />
<path d="M 210.0 115.0 L 220.0 115.0" stroke="#FF0000" fill="none" stroke-width="4px" />
<path d="M 220.0 115.0 L 230.0 115.0" stroke="#FF0000" fill="none" stroke-width="4px" />
<path d="M 230.0 115.0 L 230.0 105.0" stroke="#FF0000" fill="none" stroke-width="4px" />
<path d="M 230.0 105.0 L 220.0 105.0" stroke="#FF0000" fill="none" stroke-width="4px" />
<path d="M 220.0 105.0 L 210.0 105.0" stroke="#FF0000" fill="none" stroke-width="4px" />
<path d="M 210.0 105.0 L 200.0 105.0" stroke="#FF0000" fill="none" stroke-width="4px" />
<path d="M 200.0 105.0 L 190.0 105.0" stroke="#FF0000" fill="none" stroke-width="4px" />
<path d="M 190.0 105.0 L 180.0 105.0" stroke="#FF0000" fill="none" stroke-width="4px" />
<path d="M 180.0 105.0 L 170.0 105.0" stroke="#FF0000" fill="none" stroke-width="4px" />
<path d="M 170.0 105.0 L 160.0 105.0" stroke="#FF0000" fill="none" stroke-width="4px" />
<path d="M 160.0 105.0 L 160.0 95.0" stroke="#FF0000" fill="none" stroke-width="4px" />
<path d="M 160.0 95.0 L 170.0 95.0" stroke="#FF0000" fill="none" stroke-width="4px" />
<path d="M 170.0 95.0 L 180.0 95.0" stroke="#FF0000" fill="none" stroke-width="4px" />
<path d="M 180.0 95.0 L 190.0 95.0" stroke="#FF0000" fill="none" stroke-width="4px" />
<path d="M 190.0 95.0 L 200.0 95.0" stroke="#FF0000" fill="none" stroke-width="4px" />
<path d="M 200.0 95.0 L 210.0 95.0" stroke="#FF0000" fill="none" stroke-width="4px" />
<path d="M 210.0 95.0 L 220.0 95.0" stroke="#FF0000" fill="none" stroke-width="4px" />
<path d="M 220.0 95.0 L 230.0 95.0" stroke="#FF0000" fill="none" stroke-width="4px" />
<path d="M 230.0 95.0 L 230.0 85.0" stroke="#FF0000" fill="none" stroke-width="4px" />
<path d="M 230.0 85.0 L 220.0 85.0" stroke="#FF0000" fill="none" stroke-width="4px" />
<path d="M 220.0 85.0 L 210.0 85.0" stroke="#FF0000" fill="none" stroke-width="4px" />
<path d="M 210.0 85.0 L 200.0 85.0" stroke="#FF0000" fill="none" stroke-width="4px" />
<path d="M 200.0 85.0 L 190.0 85.0" stroke="#FF0000" fill="none" stroke-width="4px" />
<path d="M 190.0 85.0 L 180.0 85.0" stroke="#FF0000" fill="none" stroke-width="4px" />
<path d="M 180.0 85.0 L 170.0 85.0" stroke="#FF0000" fill="none" stroke-width="4px" />
<path d="M 170.0 85.0 L 180.0 75.0" stroke="#FF0000" fill="none" stroke-width="4px" />
<path d="M 180.0 75.0 L 190.0 75.0" stroke="#FF0000" fill="none" stroke-width="4px" />
<path d="M 190.0 75.0 L 200.0 75.0" stroke="#FF0000" fill="none" stroke-width="4px" />
<path d="M 200.0 75.0 L 210.0 75.0" stroke="#FF0000" fill="none" stroke-width="4px" />
<path d="M 210.0 75.0 L 220.0 75.0" stroke="#FF0000" fill="none" stroke-width="4px" />
<path d="M 220.0 75.0 L 230.0 75.0" stroke="#FF0000" fill="none" stroke-width="4px" />
<path d="M 230.0 75.0 L 240.0 85.0" stroke="#FF0000" fill="none" stroke-width="4px" />
<path d="M 220.0 65.0 L 210.0 65.0" stroke="#FF0000" fill="none" stroke-width="4px" />
<path d="M 210.0 65.0 L 200.0 65.0" stroke="#FF0000" fill="none" stroke-width="4px" />
<path d="M 200.0 125.0 L 190.0 125.0" stroke="#FF0000" fill="none" stroke-width="4px" />
<path d="M 190.0 125.0 L 180.0 125.0" stroke="#FF0000" fill="none" stroke-width="4px" />
<path d="M 180.0 125.0 L 170.0 125.0" stroke="#FF0000" fill="none" stroke-width="4px" />
<path d="M 170.0 125.0 L 160.0 125.0" stroke="#FF0000" fill="none" stroke-width="4px" />
<path d="M 160.0 125.0 L 160.0 135.0" stroke="#FF0000" fill="none" stroke-width="4px" />
<path d="M 160.0 135.0 L 170.0 135.0" stroke="#FF0000" fill="none" stroke-width="4px" />
<path d="M 170.0 135.0 L 180.0 135.0" stroke="#FF0000" fill="none" stroke-width="4px" />
<path d="M 180.0 135.0 L 190.0 135.0" stroke="#FF0000" fill="none" stroke-width="4px" />
<path d="M 190.0 135.0 L 200.0 135.0" stroke="#FF0000" fill="none" stroke-width="4px" />
<path d="M 200.0 135.0 L 210.0 135.0" stroke="#FF0000" fill="none" stroke-width="4px" />
<path d="M 210.0 135.0 L 220.0 135.0" stroke="#FF0000" fill="none" stroke-width="4px" />
<path d="M 220.0 135.0 L 230.0 135.0" stroke="#FF0000" fill="none" stroke-width="4px" />
<path d="M 230.0 135.0 L 240.0 135.0" stroke="#FF0000" fill="none" stroke-width="4px" />
<path d="M 240.0 135.0 L 240.0 145.0" stroke="#FF0000" fill="none" stroke-width="4px" />
<path d="M 240.0 145.0 L 230.0 145.0" stroke="#FF0000" fill="none" stroke-width="4px" />
<path d="M 230.0 145.0 L 220.0 145.0" stroke="#FF0000" fill="none" stroke-width="4px" />
<path d="M 220.0 145.0 L 210.0 145.0" stroke="#FF0000" fill="none" stroke-width="4px" />
<path d="M 210.0 145.0 L 200.0 145.0" stroke="#FF0000" fill="none" stroke-width="4px" />
<path d="M 200.0 145.0 L 190.0 145.0" stroke="#FF0000" fill="none" stroke-width="4px" />
<path d="M 190.0 145.0 L 180.0 145.0" stroke="#FF0000" fill="none" stroke-width="4px" />
<path d="M 180.0 145.0 L 170.0 145.0" stroke="#FF0000" fill="none" stroke-width="4px" />
<path d="M 170.0 145.0 L 160.0 145.0" stroke="#FF0000" fill="none" stroke-width="4px" />
<path d="M 160.0 145.0 L 170.0 155.0" stroke="#FF0000" fill="none" stroke-width="4px" />
<path d="M 170.0 155.0 L 180.0 155.0" stroke="#FF0000" fill="none" stroke-width="4px" />
<path d="M 180.0 155.0 L 190.0 155.0" stroke="#FF0000" fill="none" stroke-width="4px" />
<path d="M 190.0 155.0 L 200.0 155.0" stroke="#FF0000" fill="none" stroke-width="4px" />
<path d="M 200.0 155.0 L 210.0 155.0" stroke="#FF0000" fill="none" stroke-width="4px" />
<path d="M 210.0 155.0 L 220.0 155.0" stroke="#FF0000" fill="none" stroke-width="4px" />
<path d="M 220.0 155.0 L 230.0 155.0" stroke="#FF0000" fill="none" stroke-width="4px" />
<path d="M 230.0 155.0 L 240.0 155.0" stroke="#FF0000" fill="none" stroke-width="4px" />
<path d="M 240.0 155.0 L 250.0 155.0" stroke="#FF0000" fill="none" stroke-width="4px" />
<path d="M 250.0 155.0 L 260.0 155.0" stroke="#FF0000" fill="none" stroke-width="4px" />
<path d="M 260.0 155.0 L 250.0 165.0" stroke="#FF0000" fill="none" stroke-width="4px" />
<path d="M 250.0 165.0 L 240.0 165.0" stroke="#FF0000" fill="none" stroke-width="4px" />
<path d="M 240.0 165.0 L 230.0 165.0" stroke="#FF0000" fill="none" stroke-width="4px" />
<path d="M 230.0 165.0 L 220.0 165.0" stroke="#FF0000" fill="none" stroke-width="4px" />
<path d="M 220.0 165.0 L 210.0 165.0" stroke="#FF0000" fill="none" stroke-width="4px" />
<path d="M 210.0 165.0 L 200.0 165.0" stroke="#FF0000" fill="none" stroke-width="4px" />
<path d="M 200.0 165.0 L 190.0 165.0" stroke="#FF0000" fill="none" stroke-width="4px" />
<path d="M 190.0 165.0 L 180.0 165.0" stroke="#FF0000" fill="none" stroke-width="4px" />
<path d="M 180.0 165.0 L 190.0 175.0" stroke="#FF0000" fill="none" stroke-width="4px" />
<path d="M 190.0 175.0 L 200.0 175.0" stroke="#FF0000" fill="none" stroke-width="4px" />
<path d="M 200.0 175.0 L 210.0 175.0" stroke="#FF0000" fill="none" stroke-width="4px" />
<path d="M 210.0 175.0 L 220.0 175.0" stroke="#FF0000" fill="none" stroke-width="4px" />
<path d="M 220.0 175.0 L 230.0 175.0" stroke="#FF0000" fill="none" stroke-width="4px" />
<path d="M 230.0 175.0 L 240.0 175.0" stroke="#FF0000" fill="none" stroke-width="4px" />
<path d="M 220.0 125.0 L 210.0 125.0" stroke="#FF0000" fill="none" stroke-width="4px" />
<path d="M 560.0 125.0 L 570.0 125.0" stroke="#FF0000" fill="none" stroke-width="4px" />
<path d="M 570.0 125.0 L 580.0 125.0" stroke="#FF0000" fill="none" stroke-width="4px" />
<path d="M 580.0 125.0 L 590.0 125.0" stroke="#FF0000" fill="none" stroke-width="4px" />
<path d="M 590.0 125.0 L 590.0 115.0" stroke="#FF0000" fill="none" stroke-width="4px" />
<path d="M 590.0 115.0 L 580.0 115.0" stroke="#FF0000" fill="none" stroke-width="4px" />
<path d="M 580.0 115.0 L 570.0 115.0" stroke="#FF0000" fill="none" stroke-width="4px" />
<path d="M 570.0 115.0 L 560.0 115.0" stroke="#FF0000" fill="none" stroke-width="4px" />
<path d="M 560.0 115.0 L 560.0 105.0" stroke="#FF0000" fill="none" stroke-width="4px" />
<path d="M 560.0 105.0 L 570.0 105.0" stroke="#FF0000" fill="none" stroke-width="4px" />
<path d="M 570.0 105.0 L 580.0 105.0" stroke="#FF0000" fill="none" stroke-width="4px" />
<path d="M 580.0 105.0 L 590.0 105.0" stroke="#FF0000" fill="none" stroke-width="4px" />
<path d="M 590.0 105.0 L 600.0 105.0" stroke="#FF0000" fill="none" stroke-width="4px" />
<path d="M 600.0 105.0 L 600.0 95.0" stroke="#FF0000" fill="none" stroke-width="4px" />
<path d="M 600.0 95.0 L 590.0 95.0" stroke="#FF0000" fill="none" stroke-width="4px" />
<path d="M 590.0 95.0 L 580.0 95.0" stroke="#FF0000" fill="none" stroke-width="4px" />
<path d="M 580.0 95.0 L 570.0 95.0" stroke="#FF0000" fill="none" stroke-width="4px" />
<path d="M 570.0 95.0 L 580.0 85.0" stroke="#FF0000" fill="none" stroke-width="4px" />
<path d="M 580.0 85.0 L 590.0 85.0" stroke="#FF0000" fill="none" stroke-width="4px" />
<path d="M 590.0 85.0 L 600.0 85.0" stroke="#FF0000" fill="none" stroke-width="4px" />
<path d="M 600.0 85.0 L 610.0 85.0" stroke="#FF0000" fill="none" stroke-width="4px" />
<path d="M 610.0 85.0 L 620.0 85.0" stroke="#FF0000" fill="none" stroke-width="4px" />
<path d="M 620.0 85.0 L 620.0 75.0" stroke="#FF0000" fill="none" stroke-width="4px" />
<path d="M 620.0 75.0 L 610.0 75.0" stroke="#FF0000" fill="none" stroke-width="4px" />
<path d="M 610.0 75.0 L 600.0 75.0" stroke="#FF0000" fill="none" stroke-width="4px" />
<path d="M 600.0 75.0 L 590.0 75.0" stroke="#FF0000" fill="none" stroke-width="4px" />
<path d="M 590.0 75.0 L 580.0 75.0" stroke="#FF0000" fill="none" stroke-width="4px" />
<path d="M 580.0 75.0 L 570.0 75.0" stroke="#FF0000" fill="none" stroke-width="4px" />
<path d="M 570.0 75.0 L 570.0 65.0" stroke="#FF0000" fill="none" stroke-width="4px" />
<path d="M 570.0 65.0 L 580.0 65.0" stroke="#FF0000" fill="none" stroke-width="4px" />
<path d="M 580.0 65.0 L 590.0 65.0" stroke="#FF0000" fill="none" stroke-width="4px" />
<path d="M 590.0 65.0 L 600.0 65.0" stroke="#FF0000" fill="none" stroke-width="4px" />
<path d="M 600.0 65.0 L 610.0 65.0" stroke="#FF0000" fill="none" stroke-width="4px" />
<path d="M 590.0 55.0 L 580.0 55.0" stroke="#FF0000" fill="none" stroke-width="4px" />
<path d="M 580.0 55.0 L 570.0 55.0" stroke="#FF0000" fill="none" stroke-width="4px" />
<path d="M 570.0 55.0 L 560.0 55.0" stroke="#FF0000" fill="none" stroke-width="4px" />
<path d="M 560.0 55.0 L 570.0 45.0" stroke="#FF0000" fill="none" stroke-width="4px" />
<path d="M 570.0 45.0 L 580.0 45.0" stroke="#FF0000" fill="none" stroke-width="4px" />
<path d="M 580.0 45.0 L 590.0 45.0" stroke="#FF0000" fill="none" stroke-width="4px" />
<path d="M 590.0 45.0 L 580.0 35.0" stroke="#FF0000" fill="none" stroke-width="4px" />
<path d="M 580.0 135.0 L 570.0 135.0" stroke="#FF0000" fill="none" stroke-width="4px" />
<path d="M 680.0 135.0 L 690.0 135.0" stroke="#FF0000" fill="none" stroke-width="4px" />
<path d="M 690.0 135.0 L 700.0 135.0" stroke="#FF0000" fill="none" stroke-width="4px" />
<path d="M 700.0 135.0 L 710.0 135.0" stroke="#FF0000" fill="none" stroke-width="4px" />
<path d="M 710.0 135.0 L 720.0 135.0" stroke="#FF0000" fill="none" stroke-width="4px" />
<path d="M 720.0 135.0 L 730.0 135.0" stroke="#FF0000" fill="none" stroke-width="4px" />
<path d="M 730.0 135.0 L 740.0 135.0" stroke="#FF0000" fill="none" stroke-width="4px" />
<path d="M 740.0 135.0 L 740.0 125.0" stroke="#FF0000" fill="none" stroke-width="4px" />
<path d="M 740.0 125.0 L 730.0 125.0" stroke="#FF0000" fill="none" stroke-width="4px" />
<path d="M 730.0 125.0 L 720.0 125.0" stroke="#FF0000" fill="none" stroke-width="4px" />
<path d="M 720.0 125.0 L 710.0 125.0" stroke="#FF0000" fill="none" stroke-width="4px" />
<path d="M 710.0 125.0 L 700.0 125.0" stroke="#FF0000" fill="none" stroke-width="4px" />
<path d="M 700.0 125.0 L 690.0 125.0" stroke="#FF0000" fill="none" stroke-width="4px" />
<path d="M 690.0 125.0 L 680.0 125.0" stroke="#FF0000" fill="none" stroke-width="4px" />
<path d="M 680.0 125.0 L 680.0 115.0" stroke="#FF0000" fill="none" stroke-width="4px" />
<path d="M 680.0 115.0 L 690.0 115.0" stroke="#FF0000" fill="none" stroke-width="4px" />
<path d="M 690.0 115.0 L 700.0 115.0" stroke="#FF0000" fill="none" stroke-width="4px" />
<path d="M 700.0 115.0 L 710.0 115.0" stroke="#FF0000" fill="none" stroke-width="4px" />
<path d="M 710.0 115.0 L 720.0 115.0" stroke="#FF0000" fill="none" stroke-width="4px" />
<path d="M 720.0 115.0 L 730.0 115.0" stroke="#FF0000" fill="none" stroke-width="4px" />
<path d="M 730.0 115.0 L 740.0 115.0" stroke="#FF0000" fill="none" stroke-width="4px" />
<path d="M 740.0 115.0 L 730.0 105.0" stroke="#FF0000" fill="none" stroke-width="4px" />
<path d="M 730.0 105.0 L 720.0 105.0" stroke="#FF0000" fill="none" stroke-width="4px" />
<path d="M 720.0 105.0 L 710.0 105.0" stroke="#FF0000" fill="none" stroke-width="4px" />
<path d="M 710.0 105.0 L 700.0 105.0" stroke="#FF0000" fill="none" stroke-width="4px" />
<path d="M 700.0 105.0 L 690.0 105.0" stroke="#FF0000" fill="none" stroke-width="4px" />
<path d="M 690.0 105.0 L 680.0 105.0" stroke="#FF0000" fill="none" stroke-width="4px" />
<path d="M 680.0 105.0 L 680.0 95.0" stroke="#FF0000" fill="none" stroke-width="4px" />
<path d="M 680.0 95.0 L 690.0 95.0" stroke="#FF0000" fill="none" stroke-width="4px" />
<path d="M 690.0 95.0 L 700.0 95.0" stroke="#FF0000" fill="none" stroke-width="4px" />
<path d="M 700.0 95.0 L 710.0 95.0" stroke="#FF0000" fill="none" stroke-width="4px" />
<path d="M 710.0 95.0 L 720.0 95.0" stroke="#FF0000" fill="none" stroke-width="4px" />
<path d="M 720.0 95.0 L 730.0 95.0" stroke="#FF0000" fill="none" stroke-width="4px" />
<path d="M 730.0 95.0 L 730.0 85.0" stroke="#FF0000" fill="none" stroke-width="4px" />
<path d="M 730.0 85.0 L 720.0 85.0" stroke="#FF0000" fill="none" stroke-width="4px" />
<path d="M 720.0 85.0 L 710.0 85.0" stroke="#FF0000" fill="none" stroke-width="4px" />
<path d="M 710.0 85.0 L 700.0 85.0" stroke="#FF0000" fill="none" stroke-width="4px" />
<path d="M 700.0 85.0 L 690.0 85.0" stroke="#FF0000" fill="none" stroke-width="4px" />
<path d="M 690.0 85.0 L 700.0 75.0" stroke="#FF0000" fill="none" stroke-width="4px" />
<path d="M 700.0 75.0 L 710.0 75.0" stroke="#FF0000" fill="none" stroke-width="4px" />
<path d="M 710.0 75.0 L 720.0 75.0" stroke="#FF0000" fill="none" stroke-width="4px" />
<path d="M 730.0 45.0 L 740.0 45.0" stroke="#FF0000" fill="none" stroke-width="4px" />
<path d="M 740.0 45.0 L 740.0 35.0" stroke="#FF0000" fill="none" stroke-width="4px" />
<path d="M 740.0 35.0 L 730.0 35.0" stroke="#FF0000" fill="none" stroke-width="4px" />
<path d="M 730.0 35.0 L 720.0 35.0" stroke="#FF0000" fill="none" stroke-width="4px" />
<path d="M 720.0 35.0 L 720.0 25.0" stroke="#FF0000" fill="none" stroke-width="4px" />
<path d="M 720.0 25.0 L 710.0 25.0" stroke="#FF0000" fill="none" stroke-width="4px" />
<path d="M 710.0 25.0 L 710.0 15.0" stroke="#FF0000" fill="none" stroke-width="4px" />
<path d="M 710.0 15.0 L 720.0 15.0" stroke="#FF0000" fill="none" stroke-width="4px" />
<path d="M 720.0 15.0 L 730.0 15.0" stroke="#FF0000" fill="none" stroke-width="4px" />
<path d="M 730.0 15.0 L 740.0 15.0" stroke="#FF0000" fill="none" stroke-width="4px" />
<path d="M 740.0 15.0 L 750.0 15.0" stroke="#FF0000" fill="none" stroke-width="4px" />
<path d="M 750.0 15.0 L 760.0 15.0" stroke="#FF0000" fill="none" stroke-width="4px" />
<path d="M 760.0 15.0 L 760.0 25.0" stroke="#FF0000" fill="none" stroke-width="4px" />
<path d="M 760.0 25.0 L 750.0 25.0" stroke="#FF0000" fill="none" stroke-width="4px" />
<path d="M 750.0 25.0 L 740.0 25.0" stroke="#FF0000" fill="none" stroke-width="4px" />
<path d="M 740.0 25.0 L 730.0 25.0" stroke="#FF0000" fill="none" stroke-width="4px" />
<path d="M 750.0 5.0 L 740.0 5.0" stroke="#FF0000" fill="none" stroke-width="4px" />
<path d="M 740.0 5.0 L 730.0 5.0" stroke="#FF0000" fill="none" stroke-width="4px" />
<path d="M 730.0 5.0 L 720.0 5.0" stroke="#FF0000" fill="none" stroke-width="4px" />
<path d="M 720.0 5.0 L 710.0 5.0" stroke="#FF0000" fill="none" stroke-width="4px" />
<path d="M 710.0 5.0 L 710.0 -5.0" stroke="#FF0000" fill="none" stroke-width="4px" />
<path d="M 710.0 -5.0 L 720.0 -5.0" stroke="#FF0000" fill="none" stroke-width="4px" />
<path d="M 720.0 -5.0 L 730.0 -5.0" stroke="#FF0000" fill="none" stroke-width="4px" />
<path d="M 730.0 -5.0 L 740.0 -5.0" stroke="#FF0000" fill="none" stroke-width="4px" />
<path d="M 810.0 35.0 L 820.0 35.0" stroke="#FF0000" fill="none" stroke-width="4px" />
<path d="M 820.0 35.0 L 830.0 35.0" stroke="#FF0000" fill="none" stroke-width="4px" />
<path d="M 830.0 35.0 L 830.0 45.0" stroke="#FF0000" fill="none" stroke-width="4px" />
<path d="M 830.0 45.0 L 820.0 45.0" stroke="#FF0000" fill="none" stroke-width="4px" />
<path d="M 820.0 45.0 L 810.0 45.0" stroke="#FF0000" fill="none" stroke-width="4px" />
<path d="M 810.0 45.0 L 800.0 45.0" stroke="#FF0000" fill="none" stroke-width="4px" />
<path d="M 800.0 45.0 L 800.0 55.0" stroke="#FF0000" fill="none" stroke-width="4px" />
<path d="M 800.0 55.0 L 810.0 55.0" stroke="#FF0000" fill="none" stroke-width="4px" />
<path d="M 810.0 55.0 L 820.0 55.0" stroke="#FF0000" fill="none" stroke-width="4px" />
<path d="M 820.0 55.0 L 830.0 55.0" stroke="#FF0000" fill="none" stroke-width="4px" />
<path d="M 830.0 55.0 L 820.0 65.0" stroke="#FF0000" fill="none" stroke-width="4px" />
<path d="M 820.0 65.0 L 810.0 65.0" stroke="#FF0000" fill="none" stroke-width="4px" />
<path d="M 730.0 145.0 L 720.0 145.0" stroke="#FF0000" fill="none" stroke-width="4px" />
<path d="M 720.0 145.0 L 710.0 145.0" stroke="#FF0000" fill="none" stroke-width="4px" />
<path d="M 710.0 145.0 L 700.0 145.0" stroke="#FF0000" fill="none" stroke-width="4px" />
<path d="M 700.0 145.0 L 690.0 145.0" stroke="#FF0000" fill="none" stroke-width="4px" />
<path d="M 690.0 145.0 L 700.0 155.0" stroke="#FF0000" fill="none" stroke-width="4px" />
<path d="M 700.0 155.0 L 710.0 155.0" stroke="#FF0000" fill="none" stroke-width="4px" />
<path d="M 1620.0 85.0 L 1630.0 85.0" stroke="#FF0000" fill="none" stroke-width="4px" />
<path d="M 1630.0 85.0 L 1640.0 85.0" stroke="#FF0000" fill="none" stroke-width="4px" />
<path d="M 1640.0 85.0 L 1650.0 85.0" stroke="#FF0000" fill="none" stroke-width="4px" />
<path d="M 1650.0 85.0 L 1660.0 85.0" stroke="#FF0000" fill="none" stroke-width="4px" />
<path d="M 1660.0 85.0 L 1670.0 85.0" stroke="#FF0000" fill="none" stroke-width="4px" />
<path d="M 1670.0 85.0 L 1670.0 75.0" stroke="#FF0000" fill="none" stroke-width="4px" />
<path d="M 1670.0 75.0 L 1660.0 75.0" stroke="#FF0000" fill="none" stroke-width="4px" />
<path d="M 1660.0 75.0 L 1650.0 75.0" stroke="#FF0000" fill="none" stroke-width="4px" />
<path d="M 1650.0 75.0 L 1640.0 75.0" stroke="#FF0000" fill="none" stroke-width="4px" />
<path d="M 1640.0 75.0 L 1630.0 75.0" stroke="#FF0000" fill="none" stroke-width="4px" />
<path d="M 1630.0 75.0 L 1620.0 75.0" stroke="#FF0000" fill="none" stroke-width="4px" />
<path d="M 1620.0 75.0 L 1620.0 65.0" stroke="#FF0000" fill="none" stroke-width="4px" />
<path d="M 1620.0 65.0 L 1630.0 65.0" stroke="#FF0000" fill="none" stroke-width="4px" />
<path d="M 1630.0 65.0 L 1640.0 65.0" stroke="#FF0000" fill="none" stroke-width="4px" />
<path d="M 1640.0 65.0 L 1650.0 65.0" stroke="#FF0000" fill="none" stroke-width="4px" />
<path d="M 1650.0 65.0 L 1660.0 65.0" stroke="#FF0000" fill="none" stroke-width="4px" />
<path d="M 1660.0 65.0 L 1650.0 55.0" stroke="#FF0000" fill="none" stroke-width="4px" />
<path d="M 1650.0 55.0 L 1640.0 55.0" stroke="#FF0000" fill="none" stroke-width="4px" />
<path d="M 1640.0 55.0 L 1630.0 55.0" stroke="#FF0000" fill="none" stroke-width="4px" />
<path d="M 1630.0 55.0 L 1620.0 55.0" stroke="#FF0000" fill="none" stroke-width="4px" />
<path d="M 1620.0 55.0 L 1630.0 45.0" stroke="#FF0000" fill="none" stroke-width="4px" />
<path d="M 1630.0 45.0 L 1640.0 45.0" stroke="#FF0000" fill="none" stroke-width="4px" />
<path d="M 1640.0 95.0 L 1630.0 95.0" stroke="#FF0000" fill="none" stroke-width="4px" />
<path d="M 1630.0 95.0 L 1640.0 105.0" stroke="#FF0000" fill="none" stroke-width="4px" />
<path d="M 1640.0 105.0 L 1650.0 105.0" stroke="#FF0000" fill="none" stroke-width="4px" />
<path d="M 1650.0 105.0 L 1650.0 95.0" stroke="#FF0000" fill="none" stroke-width="4px" />
<path d="M 1650.0 95.0 L 1660.0 95.0" stroke="#FF0000" fill="none" stroke-width="4px" />
<path d="M 2300.0 125.0 L 2290.0 125.0" stroke="#FF0000" fill="none" stroke-width="4px" />
<path d="M 2290.0 125.0 L 2290.0 115.0" stroke="#FF0000" fill="none" stroke-width="4px" />
<path d="M 2290.0 115.0 L 2280.0 115.0" stroke="#FF0000" fill="none" stroke-width="4px" />
<path d="M 2280.0 115.0 L 2280.0 105.0" stroke="#FF0000" fill="none" stroke-width="4px" />
<path d="M 2280.0 105.0 L 2290.0 105.0" stroke="#FF0000" fill="none" stroke-width="4px" />
<path d="M 2290.0 105.0 L 2300.0 105.0" stroke="#FF0000" fill="none" stroke-width="4px" />
<path d="M 2300.0 105.0 L 2310.0 105.0" stroke="#FF0000" fill="none" stroke-width="4px" />
<path d="M 2310.0 105.0 L 2320.0 105.0" stroke="#FF0000" fill="none" stroke-width="4px" />
<path d="M 2320.0 105.0 L 2320.0 95.0" stroke="#FF0000" fill="none" stroke-width="4px" />
<path d="M 2320.0 95.0 L 2310.0 95.0" stroke="#FF0000" fill="none" stroke-width="4px" />
<path d="M 2310.0 95.0 L 2300.0 95.0" stroke="#FF0000" fill="none" stroke-width="4px" />
<path d="M 2300.0 95.0 L 2290.0 95.0" stroke="#FF0000" fill="none" stroke-width="4px" />
<path d="M 2290.0 95.0 L 2280.0 95.0" stroke="#FF0000" fill="none" stroke-width="4px" />
<path d="M 2280.0 95.0 L 2280.0 85.0" stroke="#FF0000" fill="none" stroke-width="4px" />
<path d="M 2280.0 85.0 L 2290.0 85.0" stroke="#FF0000" fill="none" stroke-width="4px" />
<path d="M 2290.0 85.0 L 2300.0 85.0" stroke="#FF0000" fill="none" stroke-width="4px" />
<path d="M 2300.0 85.0 L 2310.0 85.0" stroke="#FF0000" fill="none" stroke-width="4px" />
<path d="M 2310.0 85.0 L 2320.0 85.0" stroke="#FF0000" fill="none" stroke-width="4px" />
<path d="M 2320.0 85.0 L 2310.0 75.0" stroke="#FF0000" fill="none" stroke-width="4px" />
<path d="M 2310.0 75.0 L 2300.0 75.0" stroke="#FF0000" fill="none" stroke-width="4px" />
<path d="M 2300.0 75.0 L 2290.0 75.0" stroke="#FF0000" fill="none" stroke-width="4px" />
<path d="M 2290.0 75.0 L 2300.0 65.0" stroke="#FF0000" fill="none" stroke-width="4px" />
<path d="M 2300.0 115.0 L 2310.0 115.0" stroke="#FF0000" fill="none" stroke-width="4px" />
<path d="M 2190.0 85.0 L 2180.0 85.0" stroke="#FF0000" fill="none" stroke-width="4px" />
<path d="M 2180.0 85.0 L 2170.0 85.0" stroke="#FF0000" fill="none" stroke-width="4px" />
<path d="M 2170.0 85.0 L 2160.0 85.0" stroke="#FF0000" fill="none" stroke-width="4px" />
<path d="M 2160.0 85.0 L 2150.0 85.0" stroke="#FF0000" fill="none" stroke-width="4px" />
<path d="M 2150.0 85.0 L 2150.0 75.0" stroke="#FF0000" fill="none" stroke-width="4px" />
<path d="M 2150.0 75.0 L 2160.0 75.0" stroke="#FF0000" fill="none" stroke-width="4px" />
<path d="M 2160.0 75.0 L 2170.0 75.0" stroke="#FF0000" fill="none" stroke-width="4px" />
<path d="M 2170.0 75.0 L 2180.0 75.0" stroke="#FF0000" fill="none" stroke-width="4px" />
<path d="M 2180.0 75.0 L 2190.0 75.0" stroke="#FF0000" fill="none" stroke-width="4px" />
<path d="M 2190.0 75.0 L 2180.0 65.0" stroke="#FF0000" fill="none" stroke-width="4px" />
<path d="M 2180.0 65.0 L 2170.0 65.0" stroke="#FF0000" fill="none" stroke-width="4px" />
<path d="M 2170.0 65.0 L 2160.0 65.0" stroke="#FF0000" fill="none" stroke-width="4px" />
<path d="M 2160.0 65.0 L 2150.0 65.0" stroke="#FF0000" fill="none" stroke-width="4px" />
<path d="M 2150.0 65.0 L 2160.0 55.0" stroke="#FF0000" fill="none" stroke-width="4px" />
<path d="M 2160.0 55.0 L 2170.0 55.0" stroke="#FF0000" fill="none" stroke-width="4px" />
<path d="M 2170.0 95.0 L 2160.0 95.0" stroke="#FF0000" fill="none" stroke-width="4px" />
<path d="M 2160.0 95.0 L 2170.0 105.0" stroke="#FF0000" fill="none" stroke-width="4px" />
<path d="M 2170.0 105.0 L 2180.0 95.0" stroke="#FF0000" fill="none" stroke-width="4px" />
</svg>