<svg width="2472.26666667" height="235.0" xmlns="http://www.w3.org/2000/svg" version="1.1">
<path d="M 0.0 235.0 L 1985.0 235.0 L 1985.0 0.0 L 0.0 0.0 L 0.0 235.0" stroke="#000000" fill="none" stroke-width="3px" />
<path d="M 2472.26666667 235.0 L 1885.0 235.0 L 1885.0 0.0 L 2472.26666667 0.0 L 2472.26666667 235.0" stroke="#000000" fill="none" stroke-width="3px" />
<path d="M 10.0 257.5 L 0.0 247.5 L 10.0 237.5" stroke="#969696" fill="none" stroke-width="1px" />
<path d="M 10.0 237.5 L 1975.0 237.5" stroke="#969696" fill="none" stroke-width="1px" />
<path d="M 1975.0 237.5 L 1985.0 227.5 L 1975.0 217.5" stroke="#969696" fill="none" stroke-width="1px" />
<path d="M 1975.0 217.5 L 10.0 217.5" stroke="#969696" fill="none" stroke-width="1px" />
<path d="M 10.0 217.5 L 0.0 207.5 L 10.0 197.5" stroke="#969696" fill="none" stroke-width="1px" />
<path d="M 10.0 197.5 L 1975.0 197.5" stroke="#969696" fill="none" stroke-width="1px" />
<path d="M 1975.0 197.5 L 1985.0 187.5 L 1975.0 177.5" stroke="#969696" fill="none" stroke-width="1px" />
<path d="M 1975.0 177.5 L 10.0 177.5" stroke="#969696" fill="none" stroke-width="1px" />
<path d="M 10.0 177.5 L 0.0 167.5 L 10.0 157.5" stroke="#969696" fill="none" stroke-width="1px" />
<path d="M 10.0 157.5 L 1975.0 157.5" stroke="#969696" fill="none" stroke-width="1px" />
<path d="M 1975.0 157.5 L 1985.0 147.5 L 1975.0 137.5" stroke="#969696" fill="none" stroke-width="1px" />
<path d="M 1975.0 137.5 L 10.0 137.5" stroke="#969696" fill="none" stroke-width="1px" />
<path d="M 10.0 137.5 L 0.0 127.5 L 10.0 117.5" stroke="#969696" fill="none" stroke-width="1px" />
<path d="M 10.0 117.5 L 1975.0 117.5" stroke="#969696" fill="none" stroke-width="1px" />
<path d="M 1975.0 117.5 L 1985.0 107.5 L 1975.0 97.5" stroke="#969696" fill="none" stroke-width="1px" />
<path d="M 1975.0 97.5 L 10.0 97.5" stroke="#969696" fill="none" stroke-width="1px" />
<path d="M 10.0 97.5 L 0.0 87.5 L 10.0 77.5" stroke="#969696" fill="none" stroke-width="1px" />
<path d="M 10.0 77.5 L 1975.0 77.5" stroke="#969696" fill="none" stroke-width="1px" />
<path d="M 1975.0 77.5 L 1985.0 67.5 L 1975.0 57.5" stroke="#969696" fill="none" stroke-width="1px" />
<path d="M 1975.0 57.5 L 10.0 57.5" stroke="#969696" fill="none" stroke-width="1px" />
<path d="M 10.0 57.5 L 0.0 47.5 L 10.0 37.5" stroke="#969696" fill="none" stroke-width="1px" />
<path d="M 10.0 37.5 L 1975.0 37.5" stroke="#969696" fill="none" stroke-width="1px" />
<path d="M 1975.0 37.5 L 1985.0 27.5 L 1975.0 17.5" stroke="#969696" fill="none" stroke-width="1px" />
<path d="M 1975.0 17.5 L 10.0 17.5" stroke="#969696" fill="none" stroke-width="1px" />
<path d="M 10.0 17.5 L 0.0 7.5 L 10.0 -2.5" stroke="#969696" fill="none" stroke-width="1px" />
<path d="M 10.0 -2.5 L 1975.0 -2.5" stroke="#969696" fill="none" stroke-width="1px" />
<path d="M 1975.0 -2.5 L 1985.0 -12.5 L 1975.0 -22.5" stroke="#969696" fill="none" stroke-width="1px" />
<path d="M 2462.26666667 257.5 L 2472.26666667 247.5 L 2462.26666667 237.5" stroke="#969696" fill="none" stroke-width="1px" />
<path d="M 2462.26666667 237.5 L 1895.0 237.5" stroke="#969696" fill="none" stroke-width="1px" />
<path d="M 1895.0 237.5 L 1885.0 227.5 L 1895.0 217.5" stroke="#969696" fill="none" stroke-width="1px" />
<path d="M 1895.0 217.5 L 2462.26666667 217.5" stroke="#969696" fill="none" stroke-width="1px" />
<path d="M 2462.26666667 217.5 L 2472.26666667 207.5 L 2462.26666667 197.5" stroke="#969696" fill="none" stroke-width="1px" />
<path d="M 2462.26666667 197.5 L 1895.0 197.5" stroke="#969696" fill="none" stroke-width="1px" />
<path d="M 1895.0 197.5 L 1885.0 187.5 L 1895.0 177.5" stroke="#969696" fill="none" stroke-width="1px" />
<path d="M 1895.0 177.5 L 2462.26666667 177.5" stroke="#969696" fill="none" stroke-width="1px" />
<path d="M 2462.26666667 177.5 L 2472.26666667 167.5 L 2462.26666667 157.5" stroke="#969696" fill="none" stroke-width="1px" />
<path d="M 2462.26666667 157.5 L 1895.0 157.5" stroke="#969696" fill="none" stroke-width="1px" />
<path d="M 1895.0 157.5 L 1885.0 147.5 L 1895.0 137.5" stroke="#969696" fill="none" stroke-width="1px" />
<path d="M 1895.0 137.5 L 2462.26666667 137.5" stroke="#969696" fill="none" stroke-width="1px" />
<path d="M 2462.26666667 137.5 L 2472.26666667 127.5 L 2462.26666667 117.5" stroke="#969696" fill="none" stroke-width="1px" />
<path d="M 2462.26666667 117.5 L 1895.0 117.5" stroke="#969696" fill="none" stroke-width="1px" />
<path d="M 1895.0 117.5 L 1885.0 107.5 L 1895.0 97.5" stroke="#969696" fill="none" stroke-width="1px" />
<path d="M 1895.0 97.5 L 2462.26666667 97.5" stroke="#969696" fill="none" stroke-width="1px" />
<path d="M 2462.26666667 97.5 L 2472.26666667 87.5 L 2462.26666667 77.5" stroke="#969696" fill="none" stroke-width="1px" />
<path d="M 2462.26666667 77.5 L 1895.0 77.5" stroke="#969696" fill="none" stroke-width="1px" />
<path d="M 1895.0 77.5 L 1885.0 67.5 L 1895.0 57.5" stroke="#969696" fill="none" stroke-width="1px" />
<path d="M 1895.0 57.5 L 2462.26666667 57.5" stroke="#969696" fill="none" stroke-width="1px" />
<path d="M 2462.26666667 57.5 L 2472.26666667 47.5 L 2462.26666667 37.5" stroke="#969696" fill="none" stroke-width="1px" />
<path d="M 2462.26666667 37.5 L 1895.0 37.5" stroke="#969696" fill="none" stroke-width="1px" />
<path d="M 1895.0 37.5 L 1885.0 27.5 L 1895.0 17.5" stroke="#969696" fill="none" stroke-width="1px" />
<path d="M 1895.0 17.5 L 2462.26666667 17.5" stroke="#969696" fill="none" stroke-width="1px" />
<path d="M 2462.26666667 17.5 L 2472.26666667 7.5 L 2462.26666667 -2.5" stroke="#969696" fill="none" stroke-width="1px" />
<path d="M 2462.26666667 -2.5 L 1895.0 -2.5" stroke="#969696" fill="none" stroke-width="1px" />
<path d="M 1895.0 -2.5 L 1885.0 -12.5 L 1895.0 -22.5" stroke="#969696" fill="none" stroke-width="1px" />
<path d="M 0.0 235.0 L 110.0 235.0" stroke="#0095FF" fill="none" stroke-width="2px" />
<path d="M 110.0 235.0 L 110.0 185.0" stroke="#0095FF" fill="none" stroke-width="2px" />
<path d="M 110.0 135.0 L 140.0 135.0" stroke="#0095FF" fill="none" stroke-width="2px" />
<path d="M 140.0 135.0 L 140.0 175.0" stroke="#0095FF" fill="none" stroke-width="2px" />
<path d="M 140.0 175.0 L 120.0 175.0" stroke="#0095FF" fill="none" stroke-width="2px" />
<path d="M 120.0 175.0 L 120.0 195.0" stroke="#0095FF" fill="none" stroke-width="2px" />
<path d="M 120.0 195.0 L 880.0 195.0" stroke="#0095FF" fill="none" stroke-width="2px" />
<path d="M 880.0 195.0 L 880.0 175.0" stroke="#0095FF" fill="none" stroke-width="2px" />
<path d="M 920.0 135.0 L 900.0 135.0" stroke="#0095FF" fill="none" stroke-width="2px" />
<path d="M 900.0 135.0 L 900.0 125.0" stroke="#0095FF" fill="none" stroke-width="2px" />
<path d="M 890.0 125.0 L 890.0 185.0" stroke="#0095FF" fill="none" stroke-width="2px" />
<path d="M 900.0 195.0 L 1240.0 195.0" stroke="#0095FF" fill="none" stroke-width="2px" />
<path d="M 1240.0 195.0 L 1240.0 35.0" stroke="#0095FF" fill="none" stroke-width="2px" />
<path d="M 1370.0 25.0 L 1370.0 5.0" stroke="#0095FF" fill="none" stroke-width="2px" />
<path d="M 1360.0 -5.0 L 1350.0 -5.0" stroke="#0095FF" fill="none" stroke-width="2px" />
<path d="M 1350.0 -5.0 L 1350.0 45.0" stroke="#0095FF" fill="none" stroke-width="2px" />
<path d="M 1330.0 45.0 L 1300.0 45.0" stroke="#0095FF" fill="none" stroke-width="2px" />
<path d="M 1290.0 55.0 L 1600.0 55.0" stroke="#0095FF" fill="none" stroke-width="2px" />
<path d="M 1600.0 55.0 L 1600.0 155.0" stroke="#0095FF" fill="none" stroke-width="2px" />
<path d="M 1630.0 205.0 L 1650.0 205.0" stroke="#0095FF" fill="none" stroke-width="2px" />
<path d="M 1650.0 205.0 L 1650.0 215.0" stroke="#0095FF" fill="none" stroke-width="2px" />
<path d="M 1760.0 235.0 L 1770.0 235.0" stroke="#0095FF" fill="none" stroke-width="2px" />
<path d="M 1770.0 235.0 L 1770.0 205.0" stroke="#0095FF" fill="none" stroke-width="2px" />
<path d="M 1770.0 205.0 L 1750.0 205.0" stroke="#0095FF" fill="none" stroke-width="2px" />
<path d="M 1750.0 205.0 L 1750.0 185.0" stroke="#0095FF" fill="none" stroke-width="2px" />
<path d="M 1750.0 185.0 L 1720.0 185.0" stroke="#0095FF" fill="none" stroke-width="2px" />
<path d="M 1720.0 185.0 L 1720.0 165.0" stroke="#0095FF" fill="none" stroke-width="2px" />
<path d="M 1720.0 165.0 L 1700.0 165.0" stroke="#0095FF" fill="none" stroke-width="2px" />
<path d="M 1700.0 165.0 L 1700.0 145.0" stroke="#0095FF" fill="none" stroke-width="2px" />
<path d="M 1630.0 125.0 L 1680.0 125.0" stroke="#0095FF" fill="none" stroke-width="2px" />
<path d="M 1680.0 125.0 L 1680.0 135.0" stroke="#0095FF" fill="none" stroke-width="2px" />
<path d="M 1680.0 135.0 L 1670.0 135.0" stroke="#0095FF" fill="none" stroke-width="2px" />
<path d="M 1670.0 135.0 L 1670.0 225.0" stroke="#0095FF" fill="none" stroke-width="2px" />
<path d="M 2472.26666667 235.0 L 2370.0 235.0" stroke="#0095FF" fill="none" stroke-width="2px" />
<path d="M 2370.0 235.0 L 2370.0 75.0" stroke="#0095FF" fill="none" stroke-width="2px" />
<path d="M 2390.0 55.0 L 2370.0 55.0" stroke="#0095FF" fill="none" stroke-width="2px" />
<path d="M 2370.0 55.0 L 2370.0 35.0" stroke="#0095FF" fill="none" stroke-width="2px" />
<path d="M 2300.0 35.0 L 2340.0 35.0" stroke="#0095FF" fill="none" stroke-width="2px" />
<path d="M 2340.0 35.0 L 2340.0 25.0" stroke="#0095FF" fill="none" stroke-width="2px" />
<path d="M 2360.0 25.0 L 2340.0 25.0" stroke="#0095FF" fill="none" stroke-width="2px" />
<path d="M 2340.0 25.0 L 2340.0 85.0" stroke="#0095FF" fill="none" stroke-width="2px" />
<path d="M 2320.0 85.0 L 2230.0 85.0" stroke="#0095FF" fill="none" stroke-width="2px" />
<path d="M 2230.0 85.0 L 2230.0 135.0" stroke="#0095FF" fill="none" stroke-width="2px" />
<path d="M 2180.0 175.0 L 2200.0 175.0" stroke="#0095FF" fill="none" stroke-width="2px" />
<path d="M 2200.0 175.0 L 2200.0 185.0" stroke="#0095FF" fill="none" stroke-width="2px" />
<path d="M 2210.0 195.0 L 2210.0 125.0" stroke="#0095FF" fill="none" stroke-width="2px" />
<path d="M 110.0 185.0 L 120.0 185.0" stroke="#FF0000" fill="none" stroke-width="4px" />
<path d="M 120.0 185.0 L 130.0 185.0" stroke="#FF0000" fill="none" stroke-width="4px" />
<path d="M 130.0 185.0 L 130.0 175.0" stroke="#FF0000" fill="none" stroke-width="4px" />
<path d="M 130.0 175.0 L 120.0 175.0" stroke="#FF0000" fill="none" stroke-width="4px" />
<path d="M 120.0 175.0 L 110.0 175.0" stroke="#FF0000" fill="none" stroke-width="4px" />
<path d="M 110.0 175.0 L 100.0 175.0" stroke="#FF0000" fill="none" stroke-width="4px" />
<path d="M 100.0 175.0 L 100.0 165.0" stroke="#FF0000" fill="none" stroke-width="4px" />
<path d="M 100.0 165.0 L 110.0 165.0" stroke="#FF0000" fill="none" stroke-width="4px" />
<path d="M 110.0 165.0 L 120.0 165.0" stroke="#FF0000" fill="none" stroke-width="4px" />
<path d="M 120.0 165.0 L 130.0 165.0" stroke="#FF0000" fill="none" stroke-width="4px" />
<path d="M 130.0 165.0 L 140.0 165.0" stroke="#FF0000" fill="none" stroke-width="4px" />
<path d="M 140.0 165.0 L 150.0 165.0" stroke="#FF0000" fill="none" stroke-width="4px" />
<path d="M 150.0 165.0 L 150.0 155.0" stroke="#FF0000" fill="none" stroke-width="4px" />
<path d="M 150.0 155.0 L 140.0 155.0" stroke="#FF0000" fill="none" stroke-width="4px" />
<path d="M 140.0 155.0 L 130.0 155.0" stroke="#FF0000" fill="none" stroke-width="4px" />
<path d="M 130.0 155.0 L 120.0 155.0" stroke="#FF0000" fill="none" stroke-width="4px" />
<path d="M 120.0 155.0 L 110.0 155.0" stroke="#FF0000" fill="none" stroke-width="4px" />
<path d="M 110.0 155.0 L 100.0 155.0" stroke="#FF0000" fill="none" stroke-width="4px" />
<path d="M 100.0 155.0 L 100.0 145.0" stroke="#FF0000" fill="none" stroke-width="4px" />
<path d="M 100.0 145.0 L 110.0 145.0" stroke="#FF0000" fill="none" stroke-width="4px" />
<path d="M 110.0 145.0 L 120.0 145.0" stroke="#FF0000" fill="none" stroke-width="4px" />
<path d="M 120.0 145.0 L 130.0 145.0" stroke="#FF0000" fill="none" stroke-width="4px" />
<path d="M 130.0 145.0 L 140.0 145.0" stroke="#FF0000" fill="none" stroke-width="4px" />
<path d="M 140.0 145.0 L 130.0 135.0" stroke="#FF0000" fill="none" stroke-width="4px" />
<path d="M 130.0 135.0 L 120.0 135.0" stroke="#FF0000" fill="none" stroke-width="4px" />
<path d="M 120.0 135.0 L 110.0 135.0" stroke="#FF0000" fill="none" stroke-width="4px" />
<path d="M 880.0 175.0 L 890.0 175.0" stroke="#FF0000" fill="none" stroke-width="4px" />
<path d="M 890.0 175.0 L 900.0 175.0" stroke="#FF0000" fill="none" stroke-width="4px" />
<path d="M 900.0 175.0 L 910.0 175.0" stroke="#FF0000" fill="none" stroke-width="4px" />
<path d="M 910.0 175.0 L 920.0 175.0" stroke="#FF0000" fill="none" stroke-width="4px" />
<path d="M 920.0 175.0 L 930.0 175.0" stroke="#FF0000" fill="none" stroke-width="4px" />
<path d="M 930.0 175.0 L 930.0 165.0" stroke="#FF0000" fill="none" stroke-width="4px" />
<path d="M 930.0 165.0 L 920.0 165.0" stroke="#FF0000" fill="none" stroke-width="4px" />
<path d="M 920.0 165.0 L 910.0 165.0" stroke="#FF0000" fill="none" stroke-width="4px" />
<path d="M 910.0 165.0 L 900.0 165.0" stroke="#FF0000" fill="none" stroke-width="4px" />
<path d="M 900.0 165.0 L 890.0 165.0" stroke="#FF0000" fill="none" stroke-width="4px" />
<path d="M 890.0 165.0 L 880.0 165.0" stroke="#FF0000" fill="none" stroke-width="4px" />
<path d="M 880.0 165.0 L 880.0 155.0" stroke="#FF0000" fill="none" stroke-width="4px" />
<path d="M 880.0 155.0 L 890.0 155.0" stroke="#FF0000" fill="none" stroke-width="4px" />
<path d="M 890.0 155.0 L 900.0 155.0" stroke="#FF0000" fill="none" stroke-width="4px" />
<path d="M 900.0 155.0 L 910.0 155.0" stroke="#FF0000" fill="none" stroke-width="4px" />
<path d="M 910.0 155.0 L 920.0 155.0" stroke="#FF0000" fill="none" stroke-width="4px" />
<path d="M 920.0 155.0 L 930.0 155.0" stroke="#FF0000" fill="none" stroke-width="4px" />
<path d="M 930.0 155.0 L 920.0 145.0" stroke="#FF0000" fill="none" stroke-width="4px" />
<path d="M 920.0 145.0 L 910.0 145.0" stroke="#FF0000" fill="none" stroke-width="4px" />
<path d="M 910.0 145.0 L 900.0 145.0" stroke="#FF0000" fill="none" stroke-width="4px" />
<path d="M 900.0 145.0 L 890.0 145.0" stroke="#FF0000" fill="none" stroke-width="4px" />
<path d="M 890.0 145.0 L 880.0 145.0" stroke="#FF0000" fill="none" stroke-width="4px" />
<path d="M 880.0 145.0 L 880.0 135.0" stroke="#FF0000" fill="none" stroke-width="4px" />
<path d="M 880.0 135.0 L 890.0 135.0" stroke="#FF0000" fill="none" stroke-width="4px" />
<path d="M 890.0 135.0 L 900.0 135.0" stroke="#FF0000" fill="none" stroke-width="4px" />
<path d="M 900.0 135.0 L 910.0 135.0" stroke="#FF0000" fill="none" stroke-width="4px" />
<path d="M 910.0 135.0 L 920.0 135.0" stroke="#FF0000" fill="none" stroke-width="4px" />
<path d="M 900.0 125.0 L 890.0 125.0" stroke="#FF0000" fill="none" stroke-width="4px" />
<path d="M 890.0 185.0 L 900.0 185.0" stroke="#FF0000" fill="none" stroke-width="4px" />
<path d="M 900.0 185.0 L 910.0 185.0" stroke="#FF0000" fill="none" stroke-width="4px" />
<path d="M 910.0 185.0 L 920.0 185.0" stroke="#FF0000" fill="none" stroke-width="4px" />
<path d="M 920.0 185.0 L 910.0 195.0" stroke="#FF0000" fill="none" stroke-width="4px" />
<path d="M 910.0 195.0 L 900.0 195.0" stroke="#FF0000" fill="none" stroke-width="4px" />
<path d="M 1240.0 35.0 L 1250.0 35.0" stroke="#FF0000" fill="none" stroke-width="4px" />
<path d="M 1250.0 35.0 L 1260.0 35.0" stroke="#FF0000" fill="none" stroke-width="4px" />
<path d="M 1260.0 35.0 L 1270.0 35.0" stroke="#FF0000" fill="none" stroke-width="4px" />
<path d="M 1270.0 35.0 L 1280.0 35.0" stroke="#FF0000" fill="none" stroke-width="4px" />
<path d="M 1280.0 35.0 L 1290.0 35.0" stroke="#FF0000" fill="none" stroke-width="4px" />
<path d="M 1290.0 35.0 L 1300.0 35.0" stroke="#FF0000" fill="none" stroke-width="4px" />
<path d="M 1300.0 35.0 L 1310.0 35.0" stroke="#FF0000" fill="none" stroke-width="4px" />
<path d="M 1310.0 35.0 L 1320.0 35.0" stroke="#FF0000" fill="none" stroke-width="4px" />
<path d="M 1320.0 35.0 L 1330.0 35.0" stroke="#FF0000" fill="none" stroke-width="4px" />
<path d="M 1330.0 35.0 L 1340.0 35.0" stroke="#FF0000" fill="none" stroke-width="4px" />
<path d="M 1340.0 35.0 L 1350.0 35.0" stroke="#FF0000" fill="none" stroke-width="4px" />
<path d="M 1350.0 35.0 L 1360.0 35.0" stroke="#FF0000" fill="none" stroke-width="4px" />
<path d="M 1360.0 35.0 L 1360.0 25.0" stroke="#FF0000" fill="none" stroke-width="4px" />
<path d="M 1360.0 25.0 L 1350.0 25.0" stroke="#FF0000" fill="none" stroke-width="4px" />
<path d="M 1350.0 25.0 L 1340.0 25.0" stroke="#FF0000" fill="none" stroke-width="4px" />
<path d="M 1340.0 25.0 L 1330.0 25.0" stroke="#FF0000" fill="none" stroke-width="4px" />
<path d="M 1330.0 25.0 L 1320.0 25.0" stroke="#FF0000" fill="none" stroke-width="4px" />
<path d="M 1320.0 25.0 L 1310.0 25.0" stroke="#FF0000" fill="none" stroke-width="4px" />
<path d="M 1310.0 25.0 L 1300.0 25.0" stroke="#FF0000" fill="none" stroke-width="4px" />
<path d="M 1300.0 25.0 L 1290.0 25.0" stroke="#FF0000" fill="none" stroke-width="4px" />
<path d="M 1290.0 25.0 L 1280.0 25.0" stroke="#FF0000" fill="none" stroke-width="4px" />
<path d="M 1280.0 25.0 L 1270.0 25.0" stroke="#FF0000" fill="none" stroke-width="4px" />
<path d="M 1270.0 25.0 L 1260.0 25.0" stroke="#FF0000" fill="none" stroke-width="4px" />
<path d="M 1260.0 25.0 L 1250.0 25.0" stroke="#FF0000" fill="none" stroke-width="4px" />
<path d="M 1250.0 25.0 L 1240.0 25.0" stroke="#FF0000" fill="none" stroke-width="4px" />
<path d="M 1240.0 25.0 L 1240.0 15.0" stroke="#FF0000" fill="none" stroke-width="4px" />
<path d="M 1240.0 15.0 L 1250.0 15.0" stroke="#FF0000" fill="none" stroke-width="4px" />
<path d="M 1250.0 15.0 L 1260.0 15.0" stroke="#FF0000" fill="none" stroke-width="4px" />
<path d="M 1260.0 15.0 L 1270.0 15.0" stroke="#FF0000" fill="none" stroke-width="4px" />
<path d="M 1270.0 15.0 L 1280.0 15.0" stroke="#FF0000" fill="none" stroke-width="4px" />
<path d="M 1280.0 15.0 L 1290.0 15.0" stroke="#FF0000" fill="none" stroke-width="4px" />
<path d="M 1290.0 15.0 L 1300.0 15.0" stroke="#FF0000" fill="none" stroke-width="4px" />
<path d="M 1300.0 15.0 L 1310.0 15.0" stroke="#FF0000" fill="none" stroke-width="4px" />
<path d="M 1310.0 15.0 L 1320.0 15.0" stroke="#FF0000" fill="none" stroke-width="4px" />
<path d="M 1320.0 15.0 L 1330.0 15.0" stroke="#FF0000" fill="none" stroke-width="4px" />
<path d="M 1330.0 15.0 L 1340.0 15.0" stroke="#FF0000" fill="none" stroke-width="4px" />
<path d="M 1340.0 15.0 L 1350.0 15.0" stroke="#FF0000" fill="none" stroke-width="4px" />
<path d="M 1350.0 15.0 L 1360.0 15.0" stroke="#FF0000" fill="none" stroke-width="4px" />
<path d="M 1360.0 15.0 L 1370.0 15.0" stroke="#FF0000" fill="none" stroke-width="4px" />
<path d="M 1370.0 15.0 L 1370.0 25.0" stroke="#FF0000" fill="none" stroke-width="4px" />
<path d="M 1370.0 5.0 L 1360.0 5.0" stroke="#FF0000" fill="none" stroke-width="4px" />
<path d="M 1360.0 5.0 L 1350.0 5.0" stroke="#FF0000" fill="none" stroke-width="4px" />
<path d="M 1350.0 5.0 L 1340.0 5.0" stroke="#FF0000" fill="none" stroke-width="4px" />
<path d="M 1340.0 5.0 L 1330.0 5.0" stroke="#FF0000" fill="none" stroke-width="4px" />
<path d="M 1330.0 5.0 L 1320.0 5.0" stroke="#FF0000" fill="none" stroke-width="4px" />
<path d="M 1320.0 5.0 L 1310.0 5.0" stroke="#FF0000" fill="none" stroke-width="4px" />
<path d="M 1310.0 5.0 L 1300.0 5.0" stroke="#FF0000" fill="none" stroke-width="4px" />
<path d="M 1300.0 5.0 L 1290.0 5.0" stroke="#FF0000" fill="none" stroke-width="4px" />
<path d="M 1290.0 5.0 L 1280.0 5.0" stroke="#FF0000" fill="none" stroke-width="4px" />
<path d="M 1280.0 5.0 L 1270.0 5.0" stroke="#FF0000" fill="none" stroke-width="4px" />
<path d="M 1270.0 5.0 L 1260.0 5.0" stroke="#FF0000" fill="none" stroke-width="4px" />
<path d="M 1260.0 5.0 L 1250.0 5.0" stroke="#FF0000" fill="none" stroke-width="4px" />
<path d="M 1250.0 5.0 L 1260.0 -5.0" stroke="#FF0000" fill="none" stroke-width="4px" />
<path d="M 1260.0 -5.0 L 1270.0 -5.0" stroke="#FF0000" fill="none" stroke-width="4px" />
<path d="M 1270.0 -5.0 L 1280.0 -5.0" stroke="#FF0000" fill="none" stroke-width="4px" />
<path d="M 1280.0 -5.0 L 1290.0 -5.0" stroke="#FF0000" fill="none" stroke-width="4px" />
<path d="M 1290.0 -5.0 L 1300.0 -5.0" stroke="#FF0000" fill="none" stroke-width="4px" />
<path d="M 1300.0 -5.0 L 1320.0 -5.0" stroke="#FF0000" fill="none" stroke-width="4px" />
<path d="M 1320.0 -5.0 L 1330.0 -5.0" stroke="#FF0000" fill="none" stroke-width="4px" />
<path d="M 1330.0 -5.0 L 1340.0 -5.0" stroke="#FF0000" fill="none" stroke-width="4px" />
<path d="M 1340.0 -5.0 L 1350.0 -5.0" stroke="#FF0000" fill="none" stroke-width="4px" />
<path d="M 1350.0 -5.0 L 1360.0 -5.0" stroke="#FF0000" fill="none" stroke-width="4px" />
<path d="M 1350.0 45.0 L 1340.0 45.0" stroke="#FF0000" fill="none" stroke-width="4px" />
<path d="M 1340.0 45.0 L 1330.0 45.0" stroke="#FF0000" fill="none" stroke-width="4px" />
<path d="M 1300.0 45.0 L 1290.0 45.0" stroke="#FF0000" fill="none" stroke-width="4px" />
<path d="M 1290.0 45.0 L 1280.0 45.0" stroke="#FF0000" fill="none" stroke-width="4px" />
<path d="M 1280.0 45.0 L 1270.0 45.0" stroke="#FF0000" fill="none" stroke-width="4px" />
<path d="M 1270.0 45.0 L 1260.0 45.0" stroke="#FF0000" fill="none" stroke-width="4px" />
<path d="M 1260.0 45.0 L 1250.0 45.0" stroke="#FF0000" fill="none" stroke-width="4px" />
<path d="M 1250.0 45.0 L 1260.0 55.0" stroke="#FF0000" fill="none" stroke-width="4px" />
<path d="M 1260.0 55.0 L 1270.0 55.0" stroke="#FF0000" fill="none" stroke-width="4px" />
<path d="M 1270.0 55.0 L 1280.0 55.0" stroke="#FF0000" fill="none" stroke-width="4px" />
<path d="M 1280.0 55.0 L 1290.0 55.0" stroke="#FF0000" fill="none" stroke-width="4px" />
<path d="M 1600.0 155.0 L 1610.0 155.0" stroke="#FF0000" fill="none" stroke-width="4px" />
<path d="M 1610.0 155.0 L 1620.0 155.0" stroke="#FF0000" fill="none" stroke-width="4px" />
<path d="M 1620.0 155.0 L 1630.0 155.0" stroke="#FF0000" fill="none" stroke-width="4px" />
<path d="M 1630.0 155.0 L 1640.0 155.0" stroke="#FF0000" fill="none" stroke-width="4px" />
<path d="M 1640.0 155.0 L 1650.0 155.0" stroke="#FF0000" fill="none" stroke-width="4px" />
<path d="M 1650.0 155.0 L 1660.0 155.0" stroke="#FF0000" fill="none" stroke-width="4px" />
<path d="M 1660.0 155.0 L 1670.0 155.0" stroke="#FF0000" fill="none" stroke-width="4px" />
<path d="M 1670.0 155.0 L 1680.0 155.0" stroke="#FF0000" fill="none" stroke-width="4px" />
<path d="M 1680.0 155.0 L 1690.0 155.0" stroke="#FF0000" fill="none" stroke-width="4px" />
<path d="M 1690.0 155.0 L 1700.0 155.0" stroke="#FF0000" fill="none" stroke-width="4px" />
<path d="M 1700.0 155.0 L 1710.0 155.0" stroke="#FF0000" fill="none" stroke-width="4px" />
<path d="M 1710.0 155.0 L 1710.0 165.0" stroke="#FF0000" fill="none" stroke-width="4px" />
<path d="M 1710.0 165.0 L 1700.0 165.0" stroke="#FF0000" fill="none" stroke-width="4px" />
<path d="M 1700.0 165.0 L 1690.0 165.0" stroke="#FF0000" fill="none" stroke-width="4px" />
<path d="M 1690.0 165.0 L 1680.0 165.0" stroke="#FF0000" fill="none" stroke-width="4px" />
<path d="M 1680.0 165.0 L 1670.0 165.0" stroke="#FF0000" fill="none" stroke-width="4px" />
<path d="M 1670.0 165.0 L 1660.0 165.0" stroke="#FF0000" fill="none" stroke-width="4px" />
<path d="M 1660.0 165.0 L 1650.0 165.0" stroke="#FF0000" fill="none" stroke-width="4px" />
<path d="M 1650.0 165.0 L 1640.0 165.0" stroke="#FF0000" fill="none" stroke-width="4px" />
<path d="M 1640.0 165.0 L 1630.0 165.0" stroke="#FF0000" fill="none" stroke-width="4px" />
<path d="M 1630.0 165.0 L 1620.0 165.0" stroke="#FF0000" fill="none" stroke-width="4px" />
<path d="M 1620.0 165.0 L 1610.0 165.0" stroke="#FF0000" fill="none" stroke-width="4px" />
<path d="M 1610.0 165.0 L 1600.0 165.0" stroke="#FF0000" fill="none" stroke-width="4px" />
<path d="M 1600.0 165.0 L 1600.0 175.0" stroke="#FF0000" fill="none" stroke-width="4px" />
<path d="M 1600.0 175.0 L 1610.0 175.0" stroke="#FF0000" fill="none" stroke-width="4px" />
<path d="M 1610.0 175.0 L 1620.0 175.0" stroke="#FF0000" fill="none" stroke-width="4px" />
<path d="M 1620.0 175.0 L 1630.0 175.0" stroke="#FF0000" fill="none" stroke-width="4px" />
<path d="M 1630.0 175.0 L 1640.0 175.0" stroke="#FF0000" fill="none" stroke-width="4px" />
<path d="M 1640.0 175.0 L 1650.0 175.0" stroke="#FF0000" fill="none" stroke-width="4px" />
<path d="M 1650.0 175.0 L 1660.0 175.0" stroke="#FF0000" fill="none" stroke-width="4px" />
<path d="M 1660.0 175.0 L 1670.0 175.0" stroke="#FF0000" fill="none" stroke-width="4px" />
<path d="M 1670.0 175.0 L 1680.0 175.0" stroke="#FF0000" fill="none" stroke-width="4px" />
<path d="M 1680.0 175.0 L 1690.0 175.0" stroke="#FF0000" fill="none" stroke-width="4px" />
<path d="M 1690.0 175.0 L 1700.0 175.0" stroke="#FF0000" fill="none" stroke-width="4px" />
<path d="M 1700.0 175.0 L 1710.0 175.0" stroke="#FF0000" fill="none" stroke-width="4px" />
<path d="M 1710.0 175.0 L 1720.0 175.0" stroke="#FF0000" fill="none" stroke-width="4px" />
<path d="M 1720.0 175.0 L 1730.0 175.0" stroke="#FF0000" fill="none" stroke-width="4px" />
<path d="M 1730.0 175.0 L 1740.0 175.0" stroke="#FF0000" fill="none" stroke-width="4px" />
<path d="M 1740.0 175.0 L 1740.0 185.0" stroke="#FF0000" fill="none" stroke-width="4px" />
<path d="M 1740.0 185.0 L 1730.0 185.0" stroke="#FF0000" fill="none" stroke-width="4px" />
<path d="M 1730.0 185.0 L 1720.0 185.0" stroke="#FF0000" fill="none" stroke-width="4px" />
<path d="M 1720.0 185.0 L 1710.0 185.0" stroke="#FF0000" fill="none" stroke-width="4px" />
<path d="M 1710.0 185.0 L 1700.0 185.0" stroke="#FF0000" fill="none" stroke-width="4px" />
<path d="M 1700.0 185.0 L 1690.0 185.0" stroke="#FF0000" fill="none" stroke-width="4px" />
<path d="M 1690.0 185.0 L 1680.0 185.0" stroke="#FF0000" fill="none" stroke-width="4px" />
<path d="M 1680.0 185.0 L 1670.0 185.0" stroke="#FF0000" fill="none" stroke-width="4px" />
<path d="M 1670.0 185.0 L 1660.0 185.0" stroke="#FF0000" fill="none" stroke-width="4px" />
<path d="M 1660.0 185.0 L 1650.0 185.0" stroke="#FF0000" fill="none" stroke-width="4px" />
<path d="M 1650.0 185.0 L 1640.0 185.0" stroke="#FF0000" fill="none" stroke-width="4px" />
<path d="M 1640.0 185.0 L 1630.0 185.0" stroke="#FF0000" fill="none" stroke-width="4px" />
<path d="M 1630.0 185.0 L 1620.0 185.0" stroke="#FF0000" fill="none" stroke-width="4px" />
<path d="M 1620.0 185.0 L 1610.0 185.0" stroke="#FF0000" fill="none" stroke-width="4px" />
<path d="M 1610.0 185.0 L 1620.0 195.0" stroke="#FF0000" fill="none" stroke-width="4px" />
<path d="M 1620.0 195.0 L 1630.0 195.0" stroke="#FF0000" fill="none" stroke-width="4px" />
<path d="M 1630.0 195.0 L 1640.0 195.0" stroke="#FF0000" fill="none" stroke-width="4px" />
<path d="M 1640.0 195.0 L 1650.0 195.0" stroke="#FF0000" fill="none" stroke-width="4px" />
<path d="M 1650.0 195.0 L 1660.0 195.0" stroke="#FF0000" fill="none" stroke-width="4px" />
<path d="M 1660.0 195.0 L 1670.0 195.0" stroke="#FF0000" fill="none" stroke-width="4px" />
<path d="M 1670.0 195.0 L 1680.0 195.0" stroke="#FF0000" fill="none" stroke-width="4px" />
<path d="M 1680.0 195.0 L 1690.0 195.0" stroke="#FF0000" fill="none" stroke-width="4px" />
<path d="M 1690.0 195.0 L 1700.0 195.0" stroke="#FF0000" fill="none" stroke-width="4px" />
<path d="M 1700.0 195.0 L 1710.0 195.0" stroke="#FF0000" fill="none" stroke-width="4px" />
<path d="M 1710.0 195.0 L 1720.0 195.0" stroke="#FF0000" fill="none" stroke-width="4px" />
<path d="M 1720.0 195.0 L 1730.0 195.0" stroke="#FF0000" fill="none" stroke-width="4px" />
<path d="M 1730.0 195.0 L 1740.0 195.0" stroke="#FF0000" fill="none" stroke-width="4px" />
<path d="M 1740.0 195.0 L 1750.0 195.0" stroke="#FF0000" fill="none" stroke-width="4px" />
<path d="M 1750.0 195.0 L 1760.0 195.0" stroke="#FF0000" fill="none" stroke-width="4px" />
<path d="M 1760.0 195.0 L 1760.0 205.0" stroke="#FF0000" fill="none" stroke-width="4px" />
<path d="M 1760.0 205.0 L 1750.0 205.0" stroke="#FF0000" fill="none" stroke-width="4px" />
<path d="M 1750.0 205.0 L 1740.0 205.0" stroke="#FF0000" fill="none" stroke-width="4px" />
<path d="M 1740.0 205.0 L 1730.0 205.0" stroke="#FF0000" fill="none" stroke-width="4px" />
<path d="M 1730.0 205.0 L 1720.0 205.0" stroke="#FF0000" fill="none" stroke-width="4px" />
<path d="M 1720.0 205.0 L 1710.0 205.0" stroke="#FF0000" fill="none" stroke-width="4px" />
<path d="M 1710.0 205.0 L 1700.0 205.0" stroke="#FF0000" fill="none" stroke-width="4px" />
<path d="M 1700.0 205.0 L 1690.0 205.0" stroke="#FF0000" fill="none" stroke-width="4px" />
<path d="M 1690.0 205.0 L 1680.0 205.0" stroke="#FF0000" fill="none" stroke-width="4px" />
<path d="M 1680.0 205.0 L 1670.0 205.0" stroke="#FF0000" fill="none" stroke-width="4px" />
<path d="M 1670.0 205.0 L 1660.0 205.0" stroke="#FF0000" fill="none" stroke-width="4px" />
<path d="M 1660.0 205.0 L 1650.0 205.0" stroke="#FF0000" fill="none" stroke-width="4px" />
<path d="M 1650.0 205.0 L 1640.0 205.0" stroke="#FF0000" fill="none" stroke-width="4px" />
<path d="M 1640.0 205.0 L 1630.0 205.0" stroke="#FF0000" fill="none" stroke-width="4px" />
<path d="M 1650.0 215.0 L 1660.0 215.0" stroke="#FF0000" fill="none" stroke-width="4px" />
<path d="M 1660.0 215.0 L 1670.0 215.0" stroke="#FF0000" fill="none" stroke-width="4px" />
<path d="M 1670.0 215.0 L 1680.0 215.0" stroke="#FF0000" fill="none" stroke-width="4px" />
<path d="M 1680.0 215.0 L 1690.0 215.0" stroke="#FF0000" fill="none" stroke-width="4px" />
<path d="M 1690.0 215.0 L 1710.0 215.0" stroke="#FF0000" fill="none" stroke-width="4px" />
<path d="M 1710.0 215.0 L 1720.0 215.0" stroke="#FF0000" fill="none" stroke-width="4px" />
<path d="M 1720.0 215.0 L 1730.0 215.0" stroke="#FF0000" fill="none" stroke-width="4px" />
<path d="M 1730.0 215.0 L 1740.0 215.0" stroke="#FF0000" fill="none" stroke-width="4px" />
<path d="M 1740.0 215.0 L 1750.0 215.0" stroke="#FF0000" fill="none" stroke-width="4px" />
<path d="M 1750.0 215.0 L 1760.0 215.0" stroke="#FF0000" fill="none" stroke-width="4px" />
<path d="M 1760.0 215.0 L 1770.0 215.0" stroke="#FF0000" fill="none" stroke-width="4px" />
<path d="M 1770.0 215.0 L 1780.0 215.0" stroke="#FF0000" fill="none" stroke-width="4px" />
<path d="M 1780.0 215.0 L 1770.0 225.0" stroke="#FF0000" fill="none" stroke-width="4px" />
<path d="M 1770.0 225.0 L 1760.0 225.0" stroke="#FF0000" fill="none" stroke-width="4px" />
<path d="M 1760.0 225.0 L 1750.0 225.0" stroke="#FF0000" fill="none" stroke-width="4px" />
<path d="M 1750.0 225.0 L 1740.0 225.0" stroke="#FF0000" fill="none" stroke-width="4px" />
<path d="M 1740.0 225.0 L 1750.0 235.0" stroke="#FF0000" fill="none" stroke-width="4px" />
<path d="M 1750.0 235.0 L 1760.0 235.0" stroke="#FF0000" fill="none" stroke-width="4px" />
<path d="M 1700.0 145.0 L 1690.0 145.0" stroke="#FF0000" fill="none" stroke-width="4px" />
<path d="M 1690.0 145.0 L 1680.0 145.0" stroke="#FF0000" fill="none" stroke-width="4px" />
<path d="M 1680.0 145.0 L 1670.0 145.0" stroke="#FF0000" fill="none" stroke-width="4px" />
<path d="M 1670.0 145.0 L 1660.0 145.0" stroke="#FF0000" fill="none" stroke-width="4px" />
<path d="M 1660.0 145.0 L 1650.0 145.0" stroke="#FF0000" fill="none" stroke-width="4px" />
<path d="M 1650.0 145.0 L 1640.0 145.0" stroke="#FF0000" fill="none" stroke-width="4px" />
<path d="M 1640.0 145.0 L 1630.0 145.0" stroke="#FF0000" fill="none" stroke-width="4px" />
<path d="M 1630.0 145.0 L 1620.0 145.0" stroke="#FF0000" fill="none" stroke-width="4px" />
<path d="M 1620.0 145.0 L 1610.0 145.0" stroke="#FF0000" fill="none" stroke-width="4px" />
<path d="M 1610.0 145.0 L 1620.0 135.0" stroke="#FF0000" fill="none" stroke-width="4px" />
<path d="M 1620.0 135.0 L 1630.0 135.0" stroke="#FF0000" fill="none" stroke-width="4px" />
<path d="M 1630.0 135.0 L 1640.0 135.0" stroke="#FF0000" fill="none" stroke-width="4px" />
<path d="M 1640.0 135.0 L 1650.0 135.0" stroke="#FF0000" fill="none" stroke-width="4px" />
<path d="M 1650.0 135.0 L 1660.0 135.0" stroke="#FF0000" fill="none" stroke-width="4px" />
<path d="M 1660.0 135.0 L 1650.0 125.0" stroke="#FF0000" fill="none" stroke-width="4px" />
<path d="M 1650.0 125.0 L 1640.0 125.0" stroke="#FF0000" fill="none" stroke-width="4px" />
<path d="M 1640.0 125.0 L 1630.0 125.0" stroke="#FF0000" fill="none" stroke-width="4px" />
<path d="M 1670.0 225.0 L 1660.0 225.0" stroke="#FF0000" fill="none" stroke-width="4px" />
<path d="M 2370.0 75.0 L 2360.0 75.0" stroke="#FF0000" fill="none" stroke-width="4px" />
<path d="M 2360.0 75.0 L 2350.0 75.0" stroke="#FF0000" fill="none" stroke-width="4px" />
<path d="M 2350.0 75.0 L 2340.0 75.0" stroke="#FF0000" fill="none" stroke-width="4px" />
<path d="M 2340.0 75.0 L 2330.0 75.0" stroke="#FF0000" fill="none" stroke-width="4px" />
<path d="M 2330.0 75.0 L 2320.0 75.0" stroke="#FF0000" fill="none" stroke-width="4px" />
<path d="M 2320.0 75.0 L 2310.0 75.0" stroke="#FF0000" fill="none" stroke-width="4px" />
<path d="M 2310.0 75.0 L 2310.0 65.0" stroke="#FF0000" fill="none" stroke-width="4px" />
<path d="M 2310.0 65.0 L 2300.0 65.0" stroke="#FF0000" fill="none" stroke-width="4px" />
<path d="M 2300.0 65.0 L 2300.0 55.0" stroke="#FF0000" fill="none" stroke-width="4px" />
<path d="M 2300.0 55.0 L 2290.0 55.0" stroke="#FF0000" fill="none" stroke-width="4px" />
<path d="M 2290.0 55.0 L 2290.0 45.0" stroke="#FF0000" fill="none" stroke-width="4px" />
<path d="M 2290.0 45.0 L 2300.0 45.0" stroke="#FF0000" fill="none" stroke-width="4px" />
<path d="M 2300.0 45.0 L 2310.0 45.0" stroke="#FF0000" fill="none" stroke-width="4px" />
<path d="M 2310.0 45.0 L 2320.0 45.0" stroke="#FF0000" fill="none" stroke-width="4px" />
<path d="M 2320.0 45.0 L 2330.0 45.0" stroke="#FF0000" fill="none" stroke-width="4px" />
<path d="M 2330.0 45.0 L 2340.0 45.0" stroke="#FF0000" fill="none" stroke-width="4px" />
<path d="M 2340.0 45.0 L 2350.0 45.0" stroke="#FF0000" fill="none" stroke-width="4px" />
<path d="M 2350.0 45.0 L 2360.0 45.0" stroke="#FF0000" fill="none" stroke-width="4px" />
<path d="M 2360.0 45.0 L 2370.0 45.0" stroke="#FF0000" fill="none" stroke-width="4px" />
<path d="M 2370.0 45.0 L 2380.0 45.0" stroke="#FF0000" fill="none" stroke-width="4px" />
<path d="M 2380.0 45.0 L 2380.0 55.0" stroke="#FF0000" fill="none" stroke-width="4px" />
<path d="M 2380.0 55.0 L 2370.0 55.0" stroke="#FF0000" fill="none" stroke-width="4px" />
<path d="M 2370.0 55.0 L 2360.0 55.0" stroke="#FF0000" fill="none" stroke-width="4px" />
<path d="M 2360.0 55.0 L 2350.0 55.0" stroke="#FF0000" fill="none" stroke-width="4px" />
<path d="M 2350.0 55.0 L 2340.0 55.0" stroke="#FF0000" fill="none" stroke-width="4px" />
<path d="M 2340.0 55.0 L 2330.0 55.0" stroke="#FF0000" fill="none" stroke-width="4px" />
<path d="M 2330.0 55.0 L 2320.0 55.0" stroke="#FF0000" fill="none" stroke-width="4px" />
<path d="M 2320.0 55.0 L 2310.0 55.0" stroke="#FF0000" fill="none" stroke-width="4px" />
<path d="M 2310.0 55.0 L 2320.0 65.0" stroke="#FF0000" fill="none" stroke-width="4px" />
<path d="M 2320.0 65.0 L 2330.0 65.0" stroke="#FF0000" fill="none" stroke-width="4px" />
<path d="M 2330.0 65.0 L 2340.0 65.0" stroke="#FF0000" fill="none" stroke-width="4px" />
<path d="M 2340.0 65.0 L 2350.0 65.0" stroke="#FF0000" fill="none" stroke-width="4px" />
<path d="M 2350.0 65.0 L 2360.0 65.0" stroke="#FF0000" fill="none" stroke-width="4px" />
<path d="M 2360.0 65.0 L 2370.0 65.0" stroke="#FF0000" fill="none" stroke-width="4px" />
<path d="M 2370.0 65.0 L 2380.0 65.0" stroke="#FF0000" fill="none" stroke-width="4px" />
<path d="M 2380.0 65.0 L 2390.0 55.0" stroke="#FF0000" fill="none" stroke-width="4px" />
<path d="M 2370.0 35.0 L 2360.0 35.0" stroke="#FF0000" fill="none" stroke-width="4px" />
<path d="M 2360.0 35.0 L 2350.0 35.0" stroke="#FF0000" fill="none" stroke-width="4px" />
<path d="M 2350.0 35.0 L 2340.0 35.0" stroke="#FF0000" fill="none" stroke-width="4px" />
<path d="M 2340.0 35.0 L 2330.0 35.0" stroke="#FF0000" fill="none" stroke-width="4px" />
<path d="M 2330.0 35.0 L 2320.0 35.0" stroke="#FF0000" fill="none" stroke-width="4px" />
<path d="M 2320.0 35.0 L 2310.0 35.0" stroke="#FF0000" fill="none" stroke-width="4px" />
<path d="M 2310.0 35.0 L 2300.0 35.0" stroke="#FF0000" fill="none" stroke-width="4px" />
<path d="M 2340.0 25.0 L 2350.0 25.0" stroke="#FF0000" fill="none" stroke-width="4px" />
<path d="M 2350.0 25.0 L 2360.0 25.0" stroke="#FF0000" fill="none" stroke-width="4px" />
<path d="M 2340.0 85.0 L 2330.0 85.0" stroke="#FF0000" fill="none" stroke-width="4px" />
<path d="M 2330.0 85.0 L 2320.0 85.0" stroke="#FF0000" fill="none" stroke-width="4px" />
<path d="M 2230.0 135.0 L 2220.0 135.0" stroke="#FF0000" fill="none" stroke-width="4px" />
<path d="M 2220.0 135.0 L 2210.0 135.0" stroke="#FF0000" fill="none" stroke-width="4px" />
<path d="M 2210.0 135.0 L 2200.0 135.0" stroke="#FF0000" fill="none" stroke-width="4px" />
<path d="M 2200.0 135.0 L 2190.0 135.0" stroke="#FF0000" fill="none" stroke-width="4px" />
<path d="M 2190.0 135.0 L 2180.0 135.0" stroke="#FF0000" fill="none" stroke-width="4px" />
<path d="M 2180.0 135.0 L 2170.0 135.0" stroke="#FF0000" fill="none" stroke-width="4px" />
<path d="M 2170.0 135.0 L 2160.0 135.0" stroke="#FF0000" fill="none" stroke-width="4px" />
<path d="M 2160.0 135.0 L 2150.0 135.0" stroke="#FF0000" fill="none" stroke-width="4px" />
<path d="M 2150.0 135.0 L 2150.0 145.0" stroke="#FF0000" fill="none" stroke-width="4px" />
<path d="M 2150.0 145.0 L 2160.0 145.0" stroke="#FF0000" fill="none" stroke-width="4px" />
<path d="M 2160.0 145.0 L 2170.0 145.0" stroke="#FF0000" fill="none" stroke-width="4px" />
<path d="M 2170.0 145.0 L 2180.0 145.0" stroke="#FF0000" fill="none" stroke-width="4px" />
<path d="M 2180.0 145.0 L 2190.0 145.0" stroke="#FF0000" fill="none" stroke-width="4px" />
<path d="M 2190.0 145.0 L 2200.0 145.0" stroke="#FF0000" fill="none" stroke-width="4px" />
<path d="M 2200.0 145.0 L 2210.0 145.0" stroke="#FF0000" fill="none" stroke-width="4px" />
<path d="M 2210.0 145.0 L 2220.0 145.0" stroke="#FF0000" fill="none" stroke-width="4px" />
<path d="M 2220.0 145.0 L 2230.0 145.0" stroke="#FF0000" fill="none" stroke-width="4px" />
<path d="M 2230.0 145.0 L 2230.0 155.0" stroke="#FF0000" fill="none" stroke-width="4px" />
<path d="M 2230.0 155.0 L 2220.0 155.0" stroke="#FF0000" fill="none" stroke-width="4px" />
<path d="M 2220.0 155.0 L 2210.0 155.0" stroke="#FF0000" fill="none" stroke-width="4px" />
<path d="M 2210.0 155.0 L 2200.0 155.0" stroke="#FF0000" fill="none" stroke-width="4px" />
<path d="M 2200.0 155.0 L 2190.0 155.0" stroke="#FF0000" fill="none" stroke-width="4px" />
<path d="M 2190.0 155.0 L 2180.0 155.0" stroke="#FF0000" fill="none" stroke-width="4px" />
<path d="M 2180.0 155.0 L 2170.0 155.0" stroke="#FF0000" fill="none" stroke-width="4px" />
<path d="M 2170.0 155.0 L 2160.0 155.0" stroke="#FF0000" fill="none" stroke-width="4px" />
<path d="M 2160.0 155.0 L 2170.0 165.0" stroke="#FF0000" fill="none" stroke-width="4px" />
<path d="M 2170.0 165.0 L 2180.0 165.0" stroke="#FF0000" fill="none" stroke-width="4px" />
<path d="M 2180.0 165.0 L 2190.0 165.0" stroke="#FF0000" fill="none" stroke-width="4px" />
<path d="M 2190.0 165.0 L 2200.0 165.0" stroke="#FF0000" fill="none" stroke-width="4px" />
<path d="M 2200.0 165.0 L 2210.0 165.0" stroke="#FF0000" fill="none" stroke-width="4px" />
<path d="M 2210.0 165.0 L 2220.0 165.0" stroke="#FF0000" fill="none" stroke-width="4px" />
<path d="M 2220.0 165.0 L 2230.0 165.0" stroke="#FF0000" fill="none" stroke-width="4px" />
<path d="M 2230.0 165.0 L 2230.0 175.0" stroke="#FF0000" fill="none" stroke-width="4px" />
<path d="M 2230.0 175.0 L 2220.0 175.0" stroke="#FF0000" fill="none" stroke-width="4px" />
<path d="M 2220.0 175.0 L 2210.0 175.0" stroke="#FF0000" fill="none" stroke-width="4px" />
<path d="M 2210.0 175.0 L 2200.0 175.0" stroke="#FF0000" fill="none" stroke-width="4px" />
<path d="M 2200.0 175.0 L 2190.0 175.0" stroke="#FF0000" fill="none" stroke-width="4px" />
<path d="M 2190.0 175.0 L 2180.0 175.0" stroke="#FF0000" fill="none" stroke-width="4px" />
<path d="M 2200.0 185.0 L 2210.0 185.0" stroke="#FF0000" fill="none" stroke-width="4px" />
<path d="M 2210.0 185.0 L 2220.0 185.0" stroke="#FF0000" fill="none" stroke-width="4px" />
<path d="M 2220.0 185.0 L 2210.0 195.0" stroke="#FF0000" fill="none" stroke-width="4px" />
<path d="M 2210.0 125.0 L 2200.0 125.0" stroke="#FF0000" fill="none" stroke-width="4px" />
<path d="M 2200.0 125.0 L 2190.0 125.0" stroke="#FF0000" fill="none" stroke-width="4px" />
<path d="M 2190.0 125.0 L 2180.0 125.0" stroke="#FF0000" fill="none" stroke-width="4px" />
<path d="M 2180.0 125.0 L 2170.0 125.0" stroke="#FF0000" fill="none" stroke-width="4px" />
<path d="M 2170.0 125.0 L 2160.0 125.0" stroke="#FF0000" fill="none" stroke-width="4px" />
<path d="M 2160.0 125.0 L 2150.0 125.0" stroke="#FF0000" fill="none" stroke-width="4px" />
<path d="M 2150.0 125.0 L 2160.0 115.0" stroke="#FF0000" fill="none" stroke-width="4px" />
<path d="M 2160.0 115.0 L 2170.0 115.0" stroke="#FF0000" fill="none" stroke-width="4px" />
<path d="M 2170.0 115.0 L 2180.0 115.0" stroke="#FF0000" fill="none" stroke-width="4px" />
<path d="M 2180.0 115.0 L 2190.0 115.0" stroke="#FF0000" fill="none" stroke-width="4px" />
<path d="M 2190.0 115.0 L 2200.0 115.0" stroke="#FF0000" fill="none" stroke-width="4px" />
<path d="M 2200.0 115.0 L 2210.0 115.0" stroke="#FF0000" fill="none" stroke-width="4px" />
<path d="M 2210.0 115.0 L 2220.0 125.0" stroke="#FF0000" fill="none" stroke-width="4px" />
</svg>