<svg width="1332.95833333" height="235.0" xmlns="http://www.w3.org/2000/svg" version="1.1">
<path d="M 0.0 235.0 L 1332.95833333 235.0 L 1332.95833333 0.0 L 0.0 0.0 L 0.0 235.0" stroke="#000000" fill="none" stroke-width="3px" />
<path d="M 10.0 257.5 L 0.0 247.5 L 10.0 237.5" stroke="#969696" fill="none" stroke-width="1px" />
<path d="M 10.0 237.5 L 1322.95833333 237.5" stroke="#969696" fill="none" stroke-width="1px" />
<path d="M 1322.95833333 237.5 L 1332.95833333 227.5 L 1322.95833333 217.5" stroke="#969696" fill="none" stroke-width="1px" />
<path d="M 1322.95833333 217.5 L 10.0 217.5" stroke="#969696" fill="none" stroke-width="1px" />
<path d="M 10.0 217.5 L 0.0 207.5 L 10.0 197.5" stroke="#969696" fill="none" stroke-width="1px" />
<path d="M 10.0 197.5 L 1322.95833333 197.5" stroke="#969696" fill="none" stroke-width="1px" />
<path d="M 1322.95833333 197.5 L 1332.95833333 187.5 L 1322.95833333 177.5" stroke="#969696" fill="none" stroke-width="1px" />
<path d="M 1322.95833333 177.5 L 10.0 177.5" stroke="#969696" fill="none" stroke-width="1px" />
<path d="M 10.0 177.5 L 0.0 167.5 L 10.0 157.5" stroke="#969696" fill="none" stroke-width="1px" />
<path d="M 10.0 157.5 L 1322.95833333 157.5" stroke="#969696" fill="none" stroke-width="1px" />
<path d="M 1322.95833333 157.5 L 1332.95833333 147.5 L 1322.95833333 137.5" stroke="#969696" fill="none" stroke-width="1px" />
<path d="M 1322.95833333 137.5 L 10.0 137.5" stroke="#969696" fill="none" stroke-width="1px" />
<path d="M 10.0 137.5 L 0.0 127.5 L 10.0 117.5" stroke="#969696" fill="none" stroke-width="1px" />
<path d="M 10.0 117.5 L 1322.95833333 117.5" stroke="#969696" fill="none" stroke-width="1px" />
<path d="M 1322.95833333 117.5 L 1332.95833333 107.5 L 1322.95833333 97.5" stroke="#969696" fill="none" stroke-width="1px" />
<path d="M 1322.95833333 97.5 L 10.0 97.5" stroke="#969696" fill="none" stroke-width="1px" />
<path d="M 10.0 97.5 L 0.0 87.5 L 10.0 77.5" stroke="#969696" fill="none" stroke-width="1px" />
<path d="M 10.0 77.5 L 1322.95833333 77.5" stroke="#969696" fill="none" stroke-width="1px" />
<path d="M 1322.95833333 77.5 L 1332.95833333 67.5 L 1322.95833333 57.5" stroke="#969696" fill="none" stroke-width="1px" />
<path d="M 1322.95833333 57.5 L 10.0 57.5" stroke="#969696" fill="none" stroke-width="1px" />
<path d="M 10.0 57.5 L 0.0 47.5 L 10.0 37.5" stroke="#969696" fill="none" stroke-width="1px" />
<path d="M 10.0 37.5 L 1322.95833333 37.5" stroke="#969696" fill="none" stroke-width="1px" />
<path d="M 1322.95833333 37.5 L 1332.95833333 27.5 L 1322.95833333 17.5" stroke="#969696" fill="none" stroke-width="1px" />
<path d="M 1322.95833333 17.5 L 10.0 17.5" stroke="#969696" fill="none" stroke-width="1px" />
<path d="M 10.0 17.5 L 0.0 7.5 L 10.0 -2.5" stroke="#969696" fill="none" stroke-width="1px" />
<path d="M 10.0 -2.5 L 1322.95833333 -2.5" stroke="#969696" fill="none" stroke-width="1px" />
<path d="M 1322.95833333 -2.5 L 1332.95833333 -12.5 L 1322.95833333 -22.5" stroke="#969696" fill="none" stroke-width="1px" />
<path d="M 0.0 235.0 L 430.0 105.0" stroke="#0095FF" fill="none" stroke-width="2px" />
<path d="M 440.0 75.0 L 440.0 115.0" stroke="#0095FF" fill="none" stroke-width="2px" />
<path d="M 450.0 125.0 L 550.0 125.0" stroke="#0095FF" fill="none" stroke-width="2px" />
<path d="M 580.0 165.0 L 580.0 115.0" stroke="#0095FF" fill="none" stroke-width="2px" />
<path d="M 560.0 115.0 L 690.0 105.0" stroke="#0095FF" fill="none" stroke-width="2px" />
<path d="M 710.0 125.0 L 710.0 95.0" stroke="#0095FF" fill="none" stroke-width="2px" />
<path d="M 720.0 95.0 L 910.0 115.0" stroke="#0095FF" fill="none" stroke-width="2px" />
<path d="M 940.0 135.0 L 940.0 105.0" stroke="#0095FF" fill="none" stroke-width="2px" />
<path d="M 930.0 95.0 L 1170.0 35.0" stroke="#0095FF" fill="none" stroke-width="2px" />
<path d="M 1190.0 65.0 L 1220.0 75.0" stroke="#0095FF" fill="none" stroke-width="2px" />
<path d="M 1220.0 75.0 L 1220.0 25.0" stroke="#0095FF" fill="none" stroke-width="2px" />
<path d="M 1230.0 25.0 L 1230.0 5.0" stroke="#0095FF" fill="none" stroke-width="2px" />
<path d="M 430.0 105.0 L 440.0 105.0" stroke="#FF0000" fill="none" stroke-width="4px" />
<path d="M 440.0 105.0 L 450.0 105.0" stroke="#FF0000" fill="none" stroke-width="4px" />
<path d="M 450.0 105.0 L 460.0 105.0" stroke="#FF0000" fill="none" stroke-width="4px" />
<path d="M 460.0 105.0 L 470.0 105.0" stroke="#FF0000" fill="none" stroke-width="4px" />
<path d="M 470.0 105.0 L 480.0 105.0" stroke="#FF0000" fill="none" stroke-width="4px" />
<path d="M 480.0 105.0 L 480.0 95.0" stroke="#FF0000" fill="none" stroke-width="4px" />
<path d="M 480.0 95.0 L 470.0 95.0" stroke="#FF0000" fill="none" stroke-width="4px" />
<path d="M 470.0 95.0 L 460.0 95.0" stroke="#FF0000" fill="none" stroke-width="4px" />
<path d="M 460.0 95.0 L 450.0 95.0" stroke="#FF0000" fill="none" stroke-width="4px" />
<path d="M 450.0 95.0 L 440.0 95.0" stroke="#FF0000" fill="none" stroke-width="4px" />
<path d="M 440.0 95.0 L 430.0 95.0" stroke="#FF0000" fill="none" stroke-width="4px" />
<path d="M 430.0 95.0 L 430.0 85.0" stroke="#FF0000" fill="none" stroke-width="4px" />
<path d="M 430.0 85.0 L 440.0 85.0" stroke="#FF0000" fill="none" stroke-width="4px" />
<path d="M 440.0 85.0 L 450.0 85.0" stroke="#FF0000" fill="none" stroke-width="4px" />
<path d="M 450.0 85.0 L 460.0 85.0" stroke="#FF0000" fill="none" stroke-width="4px" />
<path d="M 460.0 85.0 L 470.0 85.0" stroke="#FF0000" fill="none" stroke-width="4px" />
<path d="M 470.0 85.0 L 460.0 75.0" stroke="#FF0000" fill="none" stroke-width="4px" />
<path d="M 460.0 75.0 L 450.0 75.0" stroke="#FF0000" fill="none" stroke-width="4px" />
<path d="M 450.0 75.0 L 440.0 75.0" stroke="#FF0000" fill="none" stroke-width="4px" />
<path d="M 440.0 115.0 L 450.0 115.0" stroke="#FF0000" fill="none" stroke-width="4px" />
<path d="M 450.0 115.0 L 460.0 115.0" stroke="#FF0000" fill="none" stroke-width="4px" />
<path d="M 460.0 115.0 L 470.0 115.0" stroke="#FF0000" fill="none" stroke-width="4px" />
<path d="M 470.0 115.0 L 460.0 125.0" stroke="#FF0000" fill="none" stroke-width="4px" />
<path d="M 460.0 125.0 L 450.0 125.0" stroke="#FF0000" fill="none" stroke-width="4px" />
<path d="M 550.0 125.0 L 560.0 125.0" stroke="#FF0000" fill="none" stroke-width="4px" />
<path d="M 560.0 125.0 L 570.0 125.0" stroke="#FF0000" fill="none" stroke-width="4px" />
<path d="M 570.0 125.0 L 580.0 125.0" stroke="#FF0000" fill="none" stroke-width="4px" />
<path d="M 580.0 125.0 L 590.0 125.0" stroke="#FF0000" fill="none" stroke-width="4px" />
<path d="M 590.0 125.0 L 590.0 135.0" stroke="#FF0000" fill="none" stroke-width="4px" />
<path d="M 590.0 135.0 L 580.0 135.0" stroke="#FF0000" fill="none" stroke-width="4px" />
<path d="M 580.0 135.0 L 570.0 135.0" stroke="#FF0000" fill="none" stroke-width="4px" />
<path d="M 570.0 135.0 L 560.0 135.0" stroke="#FF0000" fill="none" stroke-width="4px" />
<path d="M 560.0 135.0 L 550.0 135.0" stroke="#FF0000" fill="none" stroke-width="4px" />
<path d="M 550.0 135.0 L 550.0 145.0" stroke="#FF0000" fill="none" stroke-width="4px" />
<path d="M 550.0 145.0 L 560.0 145.0" stroke="#FF0000" fill="none" stroke-width="4px" />
<path d="M 560.0 145.0 L 570.0 145.0" stroke="#FF0000" fill="none" stroke-width="4px" />
<path d="M 570.0 145.0 L 580.0 145.0" stroke="#FF0000" fill="none" stroke-width="4px" />
<path d="M 580.0 145.0 L 590.0 145.0" stroke="#FF0000" fill="none" stroke-width="4px" />
<path d="M 590.0 145.0 L 600.0 145.0" stroke="#FF0000" fill="none" stroke-width="4px" />
<path d="M 600.0 145.0 L 590.0 155.0" stroke="#FF0000" fill="none" stroke-width="4px" />
<path d="M 590.0 155.0 L 580.0 155.0" stroke="#FF0000" fill="none" stroke-width="4px" />
<path d="M 580.0 155.0 L 570.0 155.0" stroke="#FF0000" fill="none" stroke-width="4px" />
<path d="M 570.0 155.0 L 560.0 155.0" stroke="#FF0000" fill="none" stroke-width="4px" />
<path d="M 560.0 155.0 L 570.0 165.0" stroke="#FF0000" fill="none" stroke-width="4px" />
<path d="M 570.0 165.0 L 580.0 165.0" stroke="#FF0000" fill="none" stroke-width="4px" />
<path d="M 580.0 115.0 L 570.0 115.0" stroke="#FF0000" fill="none" stroke-width="4px" />
<path d="M 570.0 115.0 L 560.0 115.0" stroke="#FF0000" fill="none" stroke-width="4px" />
<path d="M 690.0 105.0 L 700.0 105.0" stroke="#FF0000" fill="none" stroke-width="4px" />
<path d="M 700.0 105.0 L 710.0 105.0" stroke="#FF0000" fill="none" stroke-width="4px" />
<path d="M 710.0 105.0 L 720.0 105.0" stroke="#FF0000" fill="none" stroke-width="4px" />
<path d="M 720.0 105.0 L 730.0 105.0" stroke="#FF0000" fill="none" stroke-width="4px" />
<path d="M 730.0 105.0 L 720.0 115.0" stroke="#FF0000" fill="none" stroke-width="4px" />
<path d="M 720.0 115.0 L 710.0 115.0" stroke="#FF0000" fill="none" stroke-width="4px" />
<path d="M 710.0 115.0 L 700.0 115.0" stroke="#FF0000" fill="none" stroke-width="4px" />
<path d="M 700.0 115.0 L 710.0 125.0" stroke="#FF0000" fill="none" stroke-width="4px" />
<path d="M 710.0 95.0 L 700.0 95.0" stroke="#FF0000" fill="none" stroke-width="4px" />
<path d="M 700.0 95.0 L 710.0 85.0" stroke="#FF0000" fill="none" stroke-width="4px" />
<path d="M 710.0 85.0 L 720.0 95.0" stroke="#FF0000" fill="none" stroke-width="4px" />
<path d="M 910.0 115.0 L 920.0 115.0" stroke="#FF0000" fill="none" stroke-width="4px" />
<path d="M 920.0 115.0 L 930.0 115.0" stroke="#FF0000" fill="none" stroke-width="4px" />
<path d="M 930.0 115.0 L 940.0 115.0" stroke="#FF0000" fill="none" stroke-width="4px" />
<path d="M 940.0 115.0 L 950.0 115.0" stroke="#FF0000" fill="none" stroke-width="4px" />
<path d="M 950.0 115.0 L 950.0 125.0" stroke="#FF0000" fill="none" stroke-width="4px" />
<path d="M 950.0 125.0 L 940.0 125.0" stroke="#FF0000" fill="none" stroke-width="4px" />
<path d="M 940.0 125.0 L 930.0 125.0" stroke="#FF0000" fill="none" stroke-width="4px" />
<path d="M 930.0 125.0 L 920.0 125.0" stroke="#FF0000" fill="none" stroke-width="4px" />
<path d="M 920.0 125.0 L 930.0 135.0" stroke="#FF0000" fill="none" stroke-width="4px" />
<path d="M 930.0 135.0 L 940.0 135.0" stroke="#FF0000" fill="none" stroke-width="4px" />
<path d="M 940.0 105.0 L 930.0 105.0" stroke="#FF0000" fill="none" stroke-width="4px" />
<path d="M 930.0 105.0 L 920.0 105.0" stroke="#FF0000" fill="none" stroke-width="4px" />
<path d="M 920.0 105.0 L 930.0 95.0" stroke="#FF0000" fill="none" stroke-width="4px" />
<path d="M 1170.0 35.0 L 1180.0 35.0" stroke="#FF0000" fill="none" stroke-width="4px" />
<path d="M 1180.0 35.0 L 1190.0 35.0" stroke="#FF0000" fill="none" stroke-width="4px" />
<path d="M 1190.0 35.0 L 1200.0 35.0" stroke="#FF0000" fill="none" stroke-width="4px" />
<path d="M 1200.0 35.0 L 1210.0 35.0" stroke="#FF0000" fill="none" stroke-width="4px" />
<path d="M 1210.0 35.0 L 1220.0 35.0" stroke="#FF0000" fill="none" stroke-width="4px" />
<path d="M 1220.0 35.0 L 1230.0 35.0" stroke="#FF0000" fill="none" stroke-width="4px" />
<path d="M 1230.0 35.0 L 1230.0 45.0" stroke="#FF0000" fill="none" stroke-width="4px" />
<path d="M 1230.0 45.0 L 1220.0 45.0" stroke="#FF0000" fill="none" stroke-width="4px" />
<path d="M 1220.0 45.0 L 1210.0 45.0" stroke="#FF0000" fill="none" stroke-width="4px" />
<path d="M 1210.0 45.0 L 1200.0 45.0" stroke="#FF0000" fill="none" stroke-width="4px" />
<path d="M 1200.0 45.0 L 1190.0 45.0" stroke="#FF0000" fill="none" stroke-width="4px" />
<path d="M 1190.0 45.0 L 1180.0 45.0" stroke="#FF0000" fill="none" stroke-width="4px" />
<path d="M 1180.0 45.0 L 1180.0 55.0" stroke="#FF0000" fill="none" stroke-width="4px" />
<path d="M 1180.0 55.0 L 1190.0 55.0" stroke="#FF0000" fill="none" stroke-width="4px" />
<path d="M 1190.0 55.0 L 1200.0 55.0" stroke="#FF0000" fill="none" stroke-width="4px" />
<path d="M 1200.0 55.0 L 1210.0 55.0" stroke="#FF0000" fill="none" stroke-width="4px" />
<path d="M 1210.0 55.0 L 1220.0 55.0" stroke="#FF0000" fill="none" stroke-width="4px" />
<path d="M 1220.0 55.0 L 1230.0 55.0" stroke="#FF0000" fill="none" stroke-width="4px" />
<path d="M 1230.0 55.0 L 1230.0 65.0" stroke="#FF0000" fill="none" stroke-width="4px" />
<path d="M 1230.0 65.0 L 1220.0 65.0" stroke="#FF0000" fill="none" stroke-width="4px" />
<path d="M 1220.0 65.0 L 1210.0 65.0" stroke="#FF0000" fill="none" stroke-width="4px" />
<path d="M 1210.0 65.0 L 1200.0 65.0" stroke="#FF0000" fill="none" stroke-width="4px" />
<path d="M 1200.0 65.0 L 1190.0 65.0" stroke="#FF0000" fill="none" stroke-width="4px" />
<path d="M 1220.0 25.0 L 1210.0 25.0" stroke="#FF0000" fill="none" stroke-width="4px" />
<path d="M 1210.0 25.0 L 1200.0 25.0" stroke="#FF0000" fill="none" stroke-width="4px" />
<path d="M 1200.0 25.0 L 1190.0 25.0" stroke="#FF0000" fill="none" stroke-width="4px" />
<path d="M 1190.0 25.0 L 1180.0 25.0" stroke="#FF0000" fill="none" stroke-width="4px" />
<path d="M 1180.0 25.0 L 1170.0 25.0" stroke="#FF0000" fill="none" stroke-width="4px" />
<path d="M 1170.0 25.0 L 1170.0 15.0" stroke="#FF0000" fill="none" stroke-width="4px" />
<path d="M 1170.0 15.0 L 1180.0 15.0" stroke="#FF0000" fill="none" stroke-width="4px" />
<path d="M 1180.0 15.0 L 1190.0 15.0" stroke="#FF0000" fill="none" stroke-width="4px" />
<path d="M 1190.0 15.0 L 1200.0 15.0" stroke="#FF0000" fill="none" stroke-width="4px" />
<path d="M 1200.0 15.0 L 1210.0 15.0" stroke="#FF0000" fill="none" stroke-width="4px" />
<path d="M 1210.0 15.0 L 1220.0 15.0" stroke="#FF0000" fill="none" stroke-width="4px" />
<path d="M 1220.0 15.0 L 1230.0 15.0" stroke="#FF0000" fill="none" stroke-width="4px" />
<path d="M 1230.0 15.0 L 1230.0 25.0" stroke="#FF0000" fill="none" stroke-width="4px" />
<path d="M 1230.0 5.0 L 1220.0 5.0" stroke="#FF0000" fill="none" stroke-width="4px" />
<path d="M 1220.0 5.0 L 1210.0 5.0" stroke="#FF0000" fill="none" stroke-width="4px" />
<path d="M 1210.0 5.0 L 1200.0 5.0" stroke="#FF0000" fill="none" stroke-width="4px" />
<path d="M 1200.0 5.0 L 1190.0 5.0" stroke="#FF0000" fill="none" stroke-width="4px" />
<path d="M 1190.0 5.0 L 1180.0 5.0" stroke="#FF0000" fill="none" stroke-width="4px" />
<path d="M 1180.0 5.0 L 1180.0 -5.0" stroke="#FF0000" fill="none" stroke-width="4px" />
<path d="M 1180.0 -5.0 L 1190.0 -5.0" stroke="#FF0000" fill="none" stroke-width="4px" />
<path d="M 1190.0 -5.0 L 1200.0 -5.0" stroke="#FF0000" fill="none" stroke-width="4px" />
<path d="M 1200.0 -5.0 L 1210.0 -5.0" stroke="#FF0000" fill="none" stroke-width="4px" />
<path d="M 1210.0 -5.0 L 1220.0 -5.0" stroke="#FF0000" fill="none" stroke-width="4px" />
</svg>