<svg width="2894.54166667" height="235.0" xmlns="http://www.w3.org/2000/svg" version="1.1">
<path d="M 0.0 235.0 L 1670.0 235.0 L 1670.0 0.0 L 0.0 0.0 L 0.0 235.0" stroke="#000000" fill="none" stroke-width="3px" />
<path d="M 2894.54166667 235.0 L 1570.0 235.0 L 1570.0 0.0 L 2894.54166667 0.0 L 2894.54166667 235.0" stroke="#000000" fill="none" stroke-width="3px" />
<path d="M 10.0 257.5 L 0.0 247.5 L 10.0 237.5" stroke="#969696" fill="none" stroke-width="1px" />
<path d="M 10.0 237.5 L 1660.0 237.5" stroke="#969696" fill="none" stroke-width="1px" />
<path d="M 1660.0 237.5 L 1670.0 227.5 L 1660.0 217.5" stroke="#969696" fill="none" stroke-width="1px" />
<path d="M 1660.0 217.5 L 10.0 217.5" stroke="#969696" fill="none" stroke-width="1px" />
<path d="M 10.0 217.5 L 0.0 207.5 L 10.0 197.5" stroke="#969696" fill="none" stroke-width="1px" />
<path d="M 10.0 197.5 L 1660.0 197.5" stroke="#969696" fill="none" stroke-width="1px" />
<path d="M 1660.0 197.5 L 1670.0 187.5 L 1660.0 177.5" stroke="#969696" fill="none" stroke-width="1px" />
<path d="M 1660.0 177.5 L 10.0 177.5" stroke="#969696" fill="none" stroke-width="1px" />
<path d="M 10.0 177.5 L 0.0 167.5 L 10.0 157.5" stroke="#969696" fill="none" stroke-width="1px" />
<path d="M 10.0 157.5 L 1660.0 157.5" stroke="#969696" fill="none" stroke-width="1px" />
<path d="M 1660.0 157.5 L 1670.0 147.5 L 1660.0 137.5" stroke="#969696" fill="none" stroke-width="1px" />
<path d="M 1660.0 137.5 L 10.0 137.5" stroke="#969696" fill="none" stroke-width="1px" />
<path d="M 10.0 137.5 L 0.0 127.5 L 10.0 117.5" stroke="#969696" fill="none" stroke-width="1px" />
<path d="M 10.0 117.5 L 1660.0 117.5" stroke="#969696" fill="none" stroke-width="1px" />
<path d="M 1660.0 117.5 L 1670.0 107.5 L 1660.0 97.5" stroke="#969696" fill="none" stroke-width="1px" />
<path d="M 1660.0 97.5 L 10.0 97.5" stroke="#969696" fill="none" stroke-width="1px" />
<path d="M 10.0 97.5 L 0.0 87.5 L 10.0 77.5" stroke="#969696" fill="none" stroke-width="1px" />
<path d="M 10.0 77.5 L 1660.0 77.5" stroke="#969696" fill="none" stroke-width="1px" />
<path d="M 1660.0 77.5 L 1670.0 67.5 L 1660.0 57.5" stroke="#969696" fill="none" stroke-width="1px" />
<path d="M 1660.0 57.5 L 10.0 57.5" stroke="#969696" fill="none" stroke-width="1px" />
<path d="M 10.0 57.5 L 0.0 47.5 L 10.0 37.5" stroke="#969696" fill="none" stroke-width="1px" />
<path d="M 10.0 37.5 L 1660.0 37.5" stroke="#969696" fill="none" stroke-width="1px" />
<path d="M 1660.0 37.5 L 1670.0 27.5 L 1660.0 17.5" stroke="#969696" fill="none" stroke-width="1px" />
<path d="M 1660.0 17.5 L 10.0 17.5" stroke="#969696" fill="none" stroke-width="1px" />
<path d="M 10.0 17.5 L 0.0 7.5 L 10.0 -2.5" stroke="#969696" fill="none" stroke-width="1px" />
<path d="M 10.0 -2.5 L 1660.0 -2.5" stroke="#969696" fill="none" stroke-width="1px" />
<path d="M 1660.0 -2.5 L 1670.0 -12.5 L 1660.0 -22.5" stroke="#969696" fill="none" stroke-width="1px" />
<path d="M 2884.54166667 257.5 L 2894.54166667 247.5 L 2884.54166667 237.5" stroke="#969696" fill="none" stroke-width="1px" />
<path d="M 2884.54166667 237.5 L 1580.0 237.5" stroke="#969696" fill="none" stroke-width="1px" />
<path d="M 1580.0 237.5 L 1570.0 227.5 L 1580.0 217.5" stroke="#969696" fill="none" stroke-width="1px" />
<path d="M 1580.0 217.5 L 2884.54166667 217.5" stroke="#969696" fill="none" stroke-width="1px" />
<path d="M 2884.54166667 217.5 L 2894.54166667 207.5 L 2884.54166667 197.5" stroke="#969696" fill="none" stroke-width="1px" />
<path d="M 2884.54166667 197.5 L 1580.0 197.5" stroke="#969696" fill="none" stroke-width="1px" />
<path d="M 1580.0 197.5 L 1570.0 187.5 L 1580.0 177.5" stroke="#969696" fill="none" stroke-width="1px" />
<path d="M 1580.0 177.5 L 2884.54166667 177.5" stroke="#969696" fill="none" stroke-width="1px" />
<path d="M 2884.54166667 177.5 L 2894.54166667 167.5 L 2884.54166667 157.5" stroke="#969696" fill="none" stroke-width="1px" />
<path d="M 2884.54166667 157.5 L 1580.0 157.5" stroke="#969696" fill="none" stroke-width="1px" />
<path d="M 1580.0 157.5 L 1570.0 147.5 L 1580.0 137.5" stroke="#969696" fill="none" stroke-width="1px" />
<path d="M 1580.0 137.5 L 2884.54166667 137.5" stroke="#969696" fill="none" stroke-width="1px" />
<path d="M 2884.54166667 137.5 L 2894.54166667 127.5 L 2884.54166667 117.5" stroke="#969696" fill="none" stroke-width="1px" />
<path d="M 2884.54166667 117.5 L 1580.0 117.5" stroke="#969696" fill="none" stroke-width="1px" />
<path d="M 1580.0 117.5 L 1570.0 107.5 L 1580.0 97.5" stroke="#969696" fill="none" stroke-width="1px" />
<path d="M 1580.0 97.5 L 2884.54166667 97.5" stroke="#969696" fill="none" stroke-width="1px" />
<path d="M 2884.54166667 97.5 L 2894.54166667 87.5 L 2884.54166667 77.5" stroke="#969696" fill="none" stroke-width="1px" />
<path d="M 2884.54166667 77.5 L 1580.0 77.5" stroke="#969696" fill="none" stroke-width="1px" />
<path d="M 1580.0 77.5 L 1570.0 67.5 L 1580.0 57.5" stroke="#969696" fill="none" stroke-width="1px" />
<path d="M 1580.0 57.5 L 2884.54166667 57.5" stroke="#969696" fill="none" stroke-width="1px" />
<path d="M 2884.54166667 57.5 L 2894.54166667 47.5 L 2884.54166667 37.5" stroke="#969696" fill="none" stroke-width="1px" />
<path d="M 2884.54166667 37.5 L 1580.0 37.5" stroke="#969696" fill="none" stroke-width="1px" />
<path d="M 1580.0 37.5 L 1570.0 27.5 L 1580.0 17.5" stroke="#969696" fill="none" stroke-width="1px" />
<path d="M 1580.0 17.5 L 2884.54166667 17.5" stroke="#969696" fill="none" stroke-width="1px" />
<path d="M 2884.54166667 17.5 L 2894.54166667 7.5 L 2884.54166667 -2.5" stroke="#969696" fill="none" stroke-width="1px" />
<path d="M 2884.54166667 -2.5 L 1580.0 -2.5" stroke="#969696" fill="none" stroke-width="1px" />
<path d="M 1580.0 -2.5 L 1570.0 -12.5 L 1580.0 -22.5" stroke="#969696" fill="none" stroke-width="1px" />
<path d="M 0.0 235.0 L 280.0 145.0" stroke="#0095FF" fill="none" stroke-width="2px" />
<path d="M 330.0 185.0 L 330.0 135.0" stroke="#0095FF" fill="none" stroke-width="2px" />
<path d="M 350.0 135.0 L 330.0 115.0" stroke="#0095FF" fill="none" stroke-width="2px" />
<path d="M 300.0 115.0 L 320.0 105.0" stroke="#0095FF" fill="none" stroke-width="2px" />
<path d="M 320.0 105.0 L 680.0 135.0" stroke="#0095FF" fill="none" stroke-width="2px" />
<path d="M 700.0 155.0 L 700.0 125.0" stroke="#0095FF" fill="none" stroke-width="2px" />
<path d="M 2894.54166667 235.0 L 2480.0 145.0" stroke="#0095FF" fill="none" stroke-width="2px" />
<path d="M 2470.0 95.0 L 2470.0 155.0" stroke="#0095FF" fill="none" stroke-width="2px" />
<path d="M 280.0 145.0 L 290.0 145.0" stroke="#FF0000" fill="none" stroke-width="4px" />
<path d="M 290.0 145.0 L 300.0 145.0" stroke="#FF0000" fill="none" stroke-width="4px" />
<path d="M 300.0 145.0 L 310.0 145.0" stroke="#FF0000" fill="none" stroke-width="4px" />
<path d="M 310.0 145.0 L 320.0 145.0" stroke="#FF0000" fill="none" stroke-width="4px" />
<path d="M 320.0 145.0 L 330.0 145.0" stroke="#FF0000" fill="none" stroke-width="4px" />
<path d="M 330.0 145.0 L 340.0 145.0" stroke="#FF0000" fill="none" stroke-width="4px" />
<path d="M 340.0 145.0 L 350.0 145.0" stroke="#FF0000" fill="none" stroke-width="4px" />
<path d="M 350.0 145.0 L 350.0 155.0" stroke="#FF0000" fill="none" stroke-width="4px" />
<path d="M 350.0 155.0 L 340.0 155.0" stroke="#FF0000" fill="none" stroke-width="4px" />
<path d="M 340.0 155.0 L 330.0 155.0" stroke="#FF0000" fill="none" stroke-width="4px" />
<path d="M 330.0 155.0 L 320.0 155.0" stroke="#FF0000" fill="none" stroke-width="4px" />
<path d="M 320.0 155.0 L 310.0 155.0" stroke="#FF0000" fill="none" stroke-width="4px" />
<path d="M 310.0 155.0 L 300.0 155.0" stroke="#FF0000" fill="none" stroke-width="4px" />
<path d="M 300.0 155.0 L 290.0 155.0" stroke="#FF0000" fill="none" stroke-width="4px" />
<path d="M 290.0 155.0 L 300.0 165.0" stroke="#FF0000" fill="none" stroke-width="4px" />
<path d="M 300.0 165.0 L 310.0 165.0" stroke="#FF0000" fill="none" stroke-width="4px" />
<path d="M 310.0 165.0 L 320.0 165.0" stroke="#FF0000" fill="none" stroke-width="4px" />
<path d="M 320.0 165.0 L 330.0 165.0" stroke="#FF0000" fill="none" stroke-width="4px" />
<path d="M 330.0 165.0 L 340.0 165.0" stroke="#FF0000" fill="none" stroke-width="4px" />
<path d="M 340.0 165.0 L 350.0 165.0" stroke="#FF0000" fill="none" stroke-width="4px" />
<path d="M 350.0 165.0 L 340.0 175.0" stroke="#FF0000" fill="none" stroke-width="4px" />
<path d="M 340.0 175.0 L 330.0 175.0" stroke="#FF0000" fill="none" stroke-width="4px" />
<path d="M 330.0 175.0 L 320.0 175.0" stroke="#FF0000" fill="none" stroke-width="4px" />
<path d="M 320.0 175.0 L 310.0 175.0" stroke="#FF0000" fill="none" stroke-width="4px" />
<path d="M 310.0 175.0 L 320.0 185.0" stroke="#FF0000" fill="none" stroke-width="4px" />
<path d="M 320.0 185.0 L 330.0 185.0" stroke="#FF0000" fill="none" stroke-width="4px" />
<path d="M 330.0 135.0 L 320.0 135.0" stroke="#FF0000" fill="none" stroke-width="4px" />
<path d="M 320.0 135.0 L 310.0 135.0" stroke="#FF0000" fill="none" stroke-width="4px" />
<path d="M 310.0 135.0 L 300.0 135.0" stroke="#FF0000" fill="none" stroke-width="4px" />
<path d="M 300.0 135.0 L 290.0 135.0" stroke="#FF0000" fill="none" stroke-width="4px" />
<path d="M 290.0 135.0 L 280.0 135.0" stroke="#FF0000" fill="none" stroke-width="4px" />
<path d="M 280.0 135.0 L 290.0 125.0" stroke="#FF0000" fill="none" stroke-width="4px" />
<path d="M 290.0 125.0 L 300.0 125.0" stroke="#FF0000" fill="none" stroke-width="4px" />
<path d="M 300.0 125.0 L 310.0 125.0" stroke="#FF0000" fill="none" stroke-width="4px" />
<path d="M 310.0 125.0 L 320.0 125.0" stroke="#FF0000" fill="none" stroke-width="4px" />
<path d="M 320.0 125.0 L 330.0 125.0" stroke="#FF0000" fill="none" stroke-width="4px" />
<path d="M 330.0 125.0 L 340.0 125.0" stroke="#FF0000" fill="none" stroke-width="4px" />
<path d="M 340.0 125.0 L 340.0 135.0" stroke="#FF0000" fill="none" stroke-width="4px" />
<path d="M 340.0 135.0 L 350.0 135.0" stroke="#FF0000" fill="none" stroke-width="4px" />
<path d="M 330.0 115.0 L 320.0 115.0" stroke="#FF0000" fill="none" stroke-width="4px" />
<path d="M 320.0 115.0 L 310.0 115.0" stroke="#FF0000" fill="none" stroke-width="4px" />
<path d="M 310.0 115.0 L 300.0 115.0" stroke="#FF0000" fill="none" stroke-width="4px" />
<path d="M 680.0 135.0 L 690.0 135.0" stroke="#FF0000" fill="none" stroke-width="4px" />
<path d="M 690.0 135.0 L 700.0 135.0" stroke="#FF0000" fill="none" stroke-width="4px" />
<path d="M 700.0 135.0 L 710.0 135.0" stroke="#FF0000" fill="none" stroke-width="4px" />
<path d="M 710.0 135.0 L 710.0 145.0" stroke="#FF0000" fill="none" stroke-width="4px" />
<path d="M 710.0 145.0 L 700.0 145.0" stroke="#FF0000" fill="none" stroke-width="4px" />
<path d="M 700.0 145.0 L 690.0 145.0" stroke="#FF0000" fill="none" stroke-width="4px" />
<path d="M 690.0 145.0 L 680.0 145.0" stroke="#FF0000" fill="none" stroke-width="4px" />
<path d="M 680.0 145.0 L 690.0 155.0" stroke="#FF0000" fill="none" stroke-width="4px" />
<path d="M 690.0 155.0 L 700.0 155.0" stroke="#FF0000" fill="none" stroke-width="4px" />
<path d="M 700.0 125.0 L 690.0 125.0" stroke="#FF0000" fill="none" stroke-width="4px" />
<path d="M 2480.0 145.0 L 2470.0 145.0" stroke="#FF0000" fill="none" stroke-width="4px" />
<path d="M 2470.0 145.0 L 2460.0 145.0" stroke="#FF0000" fill="none" stroke-width="4px" />
<path d="M 2460.0 145.0 L 2450.0 145.0" stroke="#FF0000" fill="none" stroke-width="4px" />
<path d="M 2450.0 145.0 L 2440.0 145.0" stroke="#FF0000" fill="none" stroke-width="4px" />
<path d="M 2440.0 145.0 L 2440.0 135.0" stroke="#FF0000" fill="none" stroke-width="4px" />
<path d="M 2440.0 135.0 L 2450.0 135.0" stroke="#FF0000" fill="none" stroke-width="4px" />
<path d="M 2450.0 135.0 L 2460.0 135.0" stroke="#FF0000" fill="none" stroke-width="4px" />
<path d="M 2460.0 135.0 L 2470.0 135.0" stroke="#FF0000" fill="none" stroke-width="4px" />
<path d="M 2470.0 135.0 L 2480.0 135.0" stroke="#FF0000" fill="none" stroke-width="4px" />
<path d="M 2480.0 135.0 L 2480.0 125.0" stroke="#FF0000" fill="none" stroke-width="4px" />
<path d="M 2480.0 125.0 L 2470.0 125.0" stroke="#FF0000" fill="none" stroke-width="4px" />
<path d="M 2470.0 125.0 L 2460.0 125.0" stroke="#FF0000" fill="none" stroke-width="4px" />
<path d="M 2460.0 125.0 L 2450.0 125.0" stroke="#FF0000" fill="none" stroke-width="4px" />
<path d="M 2450.0 125.0 L 2440.0 125.0" stroke="#FF0000" fill="none" stroke-width="4px" />
<path d="M 2440.0 125.0 L 2430.0 125.0" stroke="#FF0000" fill="none" stroke-width="4px" />
<path d="M 2430.0 125.0 L 2430.0 115.0" stroke="#FF0000" fill="none" stroke-width="4px" />
<path d="M 2430.0 115.0 L 2440.0 115.0" stroke="#FF0000" fill="none" stroke-width="4px" />
<path d="M 2440.0 115.0 L 2450.0 115.0" stroke="#FF0000" fill="none" stroke-width="4px" />
<path d="M 2450.0 115.0 L 2460.0 115.0" stroke="#FF0000" fill="none" stroke-width="4px" />
<path d="M 2460.0 115.0 L 2470.0 115.0" stroke="#FF0000" fill="none" stroke-width="4px" />
<path d="M 2470.0 115.0 L 2480.0 115.0" stroke="#FF0000" fill="none" stroke-width="4px" />
<path d="M 2480.0 115.0 L 2490.0 115.0" stroke="#FF0000" fill="none" stroke-width="4px" />
<path d="M 2490.0 115.0 L 2480.0 105.0" stroke="#FF0000" fill="none" stroke-width="4px" />
<path d="M 2480.0 105.0 L 2470.0 105.0" stroke="#FF0000" fill="none" stroke-width="4px" />
<path d="M 2470.0 105.0 L 2460.0 105.0" stroke="#FF0000" fill="none" stroke-width="4px" />
<path d="M 2460.0 105.0 L 2450.0 105.0" stroke="#FF0000" fill="none" stroke-width="4px" />
<path d="M 2450.0 105.0 L 2440.0 105.0" stroke="#FF0000" fill="none" stroke-width="4px" />
<path d="M 2440.0 105.0 L 2450.0 95.0" stroke="#FF0000" fill="none" stroke-width="4px" />
<path d="M 2450.0 95.0 L 2460.0 95.0" stroke="#FF0000" fill="none" stroke-width="4px" />
<path d="M 2460.0 95.0 L 2470.0 95.0" stroke="#FF0000" fill="none" stroke-width="4px" />
<path d="M 2470.0 155.0 L 2460.0 155.0" stroke="#FF0000" fill="none" stroke-width="4px" />
<path d="M 2460.0 155.0 L 2450.0 155.0" stroke="#FF0000" fill="none" stroke-width="4px" />
<path d="M 2450.0 155.0 L 2460.0 165.0" stroke="#FF0000" fill="none" stroke-width="4px" />
</svg>