<svg width="2523.06666667" height="235.0" xmlns="http://www.w3.org/2000/svg" version="1.1">
<path d="M 0.0 235.0 L 1985.0 235.0 L 1985.0 0.0 L 0.0 0.0 L 0.0 235.0" stroke="#000000" fill="none" stroke-width="3px" />
<path d="M 2523.06666667 235.0 L 1885.0 235.0 L 1885.0 0.0 L 2523.06666667 0.0 L 2523.06666667 235.0" stroke="#000000" fill="none" stroke-width="3px" />
<path d="M 10.0 257.5 L 0.0 247.5 L 10.0 237.5" stroke="#969696" fill="none" stroke-width="1px" />
<path d="M 10.0 237.5 L 1975.0 237.5" stroke="#969696" fill="none" stroke-width="1px" />
<path d="M 1975.0 237.5 L 1985.0 227.5 L 1975.0 217.5" stroke="#969696" fill="none" stroke-width="1px" />
<path d="M 1975.0 217.5 L 10.0 217.5" stroke="#969696" fill="none" stroke-width="1px" />
<path d="M 10.0 217.5 L 0.0 207.5 L 10.0 197.5" stroke="#969696" fill="none" stroke-width="1px" />
<path d="M 10.0 197.5 L 1975.0 197.5" stroke="#969696" fill="none" stroke-width="1px" />
<path d="M 1975.0 197.5 L 1985.0 187.5 L 1975.0 177.5" stroke="#969696" fill="none" stroke-width="1px" />
<path d="M 1975.0 177.5 L 10.0 177.5" stroke="#969696" fill="none" stroke-width="1px" />
<path d="M 10.0 177.5 L 0.0 167.5 L 10.0 157.5" stroke="#969696" fill="none" stroke-width="1px" />
<path d="M 10.0 157.5 L 1975.0 157.5" stroke="#969696" fill="none" stroke-width="1px" />
<path d="M 1975.0 157.5 L 1985.0 147.5 L 1975.0 137.5" stroke="#969696" fill="none" stroke-width="1px" />
<path d="M 1975.0 137.5 L 10.0 137.5" stroke="#969696" fill="none" stroke-width="1px" />
<path d="M 10.0 137.5 L 0.0 127.5 L 10.0 117.5" stroke="#969696" fill="none" stroke-width="1px" />
<path d="M 10.0 117.5 L 1975.0 117.5" stroke="#969696" fill="none" stroke-width="1px" />
<path d="M 1975.0 117.5 L 1985.0 107.5 L 1975.0 97.5" stroke="#969696" fill="none" stroke-width="1px" />
<path d="M 1975.0 97.5 L 10.0 97.5" stroke="#969696" fill="none" stroke-width="1px" />
<path d="M 10.0 97.5 L 0.0 87.5 L 10.0 77.5" stroke="#969696" fill="none" stroke-width="1px" />
<path d="M 10.0 77.5 L 1975.0 77.5" stroke="#969696" fill="none" stroke-width="1px" />
<path d="M 1975.0 77.5 L 1985.0 67.5 L 1975.0 57.5" stroke="#969696" fill="none" stroke-width="1px" />
<path d="M 1975.0 57.5 L 10.0 57.5" stroke="#969696" fill="none" stroke-width="1px" />
<path d="M 10.0 57.5 L 0.0 47.5 L 10.0 37.5" stroke="#969696" fill="none" stroke-width="1px" />
<path d="M 10.0 37.5 L 1975.0 37.5" stroke="#969696" fill="none" stroke-width="1px" />
<path d="M 1975.0 37.5 L 1985.0 27.5 L 1975.0 17.5" stroke="#969696" fill="none" stroke-width="1px" />
<path d="M 1975.0 17.5 L 10.0 17.5" stroke="#969696" fill="none" stroke-width="1px" />
<path d="M 10.0 17.5 L 0.0 7.5 L 10.0 -2.5" stroke="#969696" fill="none" stroke-width="1px" />
<path d="M 10.0 -2.5 L 1975.0 -2.5" stroke="#969696" fill="none" stroke-width="1px" />
<path d="M 1975.0 -2.5 L 1985.0 -12.5 L 1975.0 -22.5" stroke="#969696" fill="none" stroke-width="1px" />
<path d="M 2513.06666667 257.5 L 2523.06666667 247.5 L 2513.06666667 237.5" stroke="#969696" fill="none" stroke-width="1px" />
<path d="M 2513.06666667 237.5 L 1895.0 237.5" stroke="#969696" fill="none" stroke-width="1px" />
<path d="M 1895.0 237.5 L 1885.0 227.5 L 1895.0 217.5" stroke="#969696" fill="none" stroke-width="1px" />
<path d="M 1895.0 217.5 L 2513.06666667 217.5" stroke="#969696" fill="none" stroke-width="1px" />
<path d="M 2513.06666667 217.5 L 2523.06666667 207.5 L 2513.06666667 197.5" stroke="#969696" fill="none" stroke-width="1px" />
<path d="M 2513.06666667 197.5 L 1895.0 197.5" stroke="#969696" fill="none" stroke-width="1px" />
<path d="M 1895.0 197.5 L 1885.0 187.5 L 1895.0 177.5" stroke="#969696" fill="none" stroke-width="1px" />
<path d="M 1895.0 177.5 L 2513.06666667 177.5" stroke="#969696" fill="none" stroke-width="1px" />
<path d="M 2513.06666667 177.5 L 2523.06666667 167.5 L 2513.06666667 157.5" stroke="#969696" fill="none" stroke-width="1px" />
<path d="M 2513.06666667 157.5 L 1895.0 157.5" stroke="#969696" fill="none" stroke-width="1px" />
<path d="M 1895.0 157.5 L 1885.0 147.5 L 1895.0 137.5" stroke="#969696" fill="none" stroke-width="1px" />
<path d="M 1895.0 137.5 L 2513.06666667 137.5" stroke="#969696" fill="none" stroke-width="1px" />
<path d="M 2513.06666667 137.5 L 2523.06666667 127.5 L 2513.06666667 117.5" stroke="#969696" fill="none" stroke-width="1px" />
<path d="M 2513.06666667 117.5 L 1895.0 117.5" stroke="#969696" fill="none" stroke-width="1px" />
<path d="M 1895.0 117.5 L 1885.0 107.5 L 1895.0 97.5" stroke="#969696" fill="none" stroke-width="1px" />
<path d="M 1895.0 97.5 L 2513.06666667 97.5" stroke="#969696" fill="none" stroke-width="1px" />
<path d="M 2513.06666667 97.5 L 2523.06666667 87.5 L 2513.06666667 77.5" stroke="#969696" fill="none" stroke-width="1px" />
<path d="M 2513.06666667 77.5 L 1895.0 77.5" stroke="#969696" fill="none" stroke-width="1px" />
<path d="M 1895.0 77.5 L 1885.0 67.5 L 1895.0 57.5" stroke="#969696" fill="none" stroke-width="1px" />
<path d="M 1895.0 57.5 L 2513.06666667 57.5" stroke="#969696" fill="none" stroke-width="1px" />
<path d="M 2513.06666667 57.5 L 2523.06666667 47.5 L 2513.06666667 37.5" stroke="#969696" fill="none" stroke-width="1px" />
<path d="M 2513.06666667 37.5 L 1895.0 37.5" stroke="#969696" fill="none" stroke-width="1px" />
<path d="M 1895.0 37.5 L 1885.0 27.5 L 1895.0 17.5" stroke="#969696" fill="none" stroke-width="1px" />
<path d="M 1895.0 17.5 L 2513.06666667 17.5" stroke="#969696" fill="none" stroke-width="1px" />
<path d="M 2513.06666667 17.5 L 2523.06666667 7.5 L 2513.06666667 -2.5" stroke="#969696" fill="none" stroke-width="1px" />
<path d="M 2513.06666667 -2.5 L 1895.0 -2.5" stroke="#969696" fill="none" stroke-width="1px" />
<path d="M 1895.0 -2.5 L 1885.0 -12.5 L 1895.0 -22.5" stroke="#969696" fill="none" stroke-width="1px" />
<path d="M 0.0 235.0 L 120.0 125.0" stroke="#0095FF" fill="none" stroke-width="2px" />
<path d="M 140.0 115.0 L 120.0 95.0" stroke="#0095FF" fill="none" stroke-width="2px" />
<path d="M 120.0 95.0 L 150.0 75.0" stroke="#0095FF" fill="none" stroke-width="2px" />
<path d="M 200.0 125.0 L 220.0 85.0" stroke="#0095FF" fill="none" stroke-width="2px" />
<path d="M 220.0 85.0 L 200.0 65.0" stroke="#0095FF" fill="none" stroke-width="2px" />
<path d="M 180.0 35.0 L 160.0 25.0" stroke="#0095FF" fill="none" stroke-width="2px" />
<path d="M 160.0 25.0 L 310.0 105.0" stroke="#0095FF" fill="none" stroke-width="2px" />
<path d="M 310.0 125.0 L 330.0 115.0" stroke="#0095FF" fill="none" stroke-width="2px" />
<path d="M 340.0 125.0 L 320.0 145.0" stroke="#0095FF" fill="none" stroke-width="2px" />
<path d="M 310.0 145.0 L 380.0 145.0" stroke="#0095FF" fill="none" stroke-width="2px" />
<path d="M 410.0 165.0 L 410.0 135.0" stroke="#0095FF" fill="none" stroke-width="2px" />
<path d="M 430.0 135.0 L 460.0 125.0" stroke="#0095FF" fill="none" stroke-width="2px" />
<path d="M 460.0 105.0 L 480.0 115.0" stroke="#0095FF" fill="none" stroke-width="2px" />
<path d="M 490.0 105.0 L 480.0 85.0" stroke="#0095FF" fill="none" stroke-width="2px" />
<path d="M 470.0 75.0 L 540.0 75.0" stroke="#0095FF" fill="none" stroke-width="2px" />
<path d="M 580.0 155.0 L 600.0 145.0" stroke="#0095FF" fill="none" stroke-width="2px" />
<path d="M 600.0 145.0 L 630.0 165.0" stroke="#0095FF" fill="none" stroke-width="2px" />
<path d="M 660.0 205.0 L 660.0 155.0" stroke="#0095FF" fill="none" stroke-width="2px" />
<path d="M 650.0 145.0 L 600.0 175.0" stroke="#0095FF" fill="none" stroke-width="2px" />
<path d="M 590.0 185.0 L 590.0 65.0" stroke="#0095FF" fill="none" stroke-width="2px" />
<path d="M 550.0 65.0 L 600.0 65.0" stroke="#0095FF" fill="none" stroke-width="2px" />
<path d="M 600.0 65.0 L 410.0 115.0" stroke="#0095FF" fill="none" stroke-width="2px" />
<path d="M 410.0 115.0 L 940.0 95.0" stroke="#0095FF" fill="none" stroke-width="2px" />
<path d="M 960.0 55.0 L 960.0 105.0" stroke="#0095FF" fill="none" stroke-width="2px" />
<path d="M 990.0 105.0 L 1100.0 105.0" stroke="#0095FF" fill="none" stroke-width="2px" />
<path d="M 1120.0 75.0 L 1120.0 115.0" stroke="#0095FF" fill="none" stroke-width="2px" />
<path d="M 1130.0 115.0 L 1370.0 115.0" stroke="#0095FF" fill="none" stroke-width="2px" />
<path d="M 1390.0 145.0 L 1390.0 105.0" stroke="#0095FF" fill="none" stroke-width="2px" />
<path d="M 1410.0 105.0 L 1510.0 55.0" stroke="#0095FF" fill="none" stroke-width="2px" />
<path d="M 1560.0 45.0 L 1560.0 25.0" stroke="#0095FF" fill="none" stroke-width="2px" />
<path d="M 1560.0 -5.0 L 1630.0 75.0" stroke="#0095FF" fill="none" stroke-width="2px" />
<path d="M 1650.0 115.0 L 1650.0 85.0" stroke="#0095FF" fill="none" stroke-width="2px" />
<path d="M 1650.0 85.0 L 1920.0 115.0" stroke="#0095FF" fill="none" stroke-width="2px" />
<path d="M 1940.0 135.0 L 1940.0 105.0" stroke="#0095FF" fill="none" stroke-width="2px" />
<path d="M 2523.06666667 235.0 L 2020.0 85.0" stroke="#0095FF" fill="none" stroke-width="2px" />
<path d="M 1990.0 35.0 L 1990.0 95.0" stroke="#0095FF" fill="none" stroke-width="2px" />
<path d="M 120.0 125.0 L 130.0 125.0" stroke="#FF0000" fill="none" stroke-width="4px" />
<path d="M 130.0 125.0 L 130.0 115.0" stroke="#FF0000" fill="none" stroke-width="4px" />
<path d="M 130.0 115.0 L 120.0 115.0" stroke="#FF0000" fill="none" stroke-width="4px" />
<path d="M 120.0 115.0 L 110.0 115.0" stroke="#FF0000" fill="none" stroke-width="4px" />
<path d="M 110.0 115.0 L 110.0 105.0" stroke="#FF0000" fill="none" stroke-width="4px" />
<path d="M 110.0 105.0 L 120.0 105.0" stroke="#FF0000" fill="none" stroke-width="4px" />
<path d="M 120.0 105.0 L 130.0 105.0" stroke="#FF0000" fill="none" stroke-width="4px" />
<path d="M 130.0 105.0 L 140.0 115.0" stroke="#FF0000" fill="none" stroke-width="4px" />
<path d="M 150.0 75.0 L 160.0 75.0" stroke="#FF0000" fill="none" stroke-width="4px" />
<path d="M 160.0 75.0 L 170.0 75.0" stroke="#FF0000" fill="none" stroke-width="4px" />
<path d="M 170.0 75.0 L 180.0 75.0" stroke="#FF0000" fill="none" stroke-width="4px" />
<path d="M 180.0 75.0 L 190.0 75.0" stroke="#FF0000" fill="none" stroke-width="4px" />
<path d="M 190.0 75.0 L 200.0 75.0" stroke="#FF0000" fill="none" stroke-width="4px" />
<path d="M 200.0 75.0 L 210.0 75.0" stroke="#FF0000" fill="none" stroke-width="4px" />
<path d="M 210.0 75.0 L 210.0 85.0" stroke="#FF0000" fill="none" stroke-width="4px" />
<path d="M 210.0 85.0 L 200.0 85.0" stroke="#FF0000" fill="none" stroke-width="4px" />
<path d="M 200.0 85.0 L 190.0 85.0" stroke="#FF0000" fill="none" stroke-width="4px" />
<path d="M 190.0 85.0 L 180.0 85.0" stroke="#FF0000" fill="none" stroke-width="4px" />
<path d="M 180.0 85.0 L 170.0 85.0" stroke="#FF0000" fill="none" stroke-width="4px" />
<path d="M 170.0 85.0 L 160.0 85.0" stroke="#FF0000" fill="none" stroke-width="4px" />
<path d="M 160.0 85.0 L 170.0 95.0" stroke="#FF0000" fill="none" stroke-width="4px" />
<path d="M 170.0 95.0 L 180.0 95.0" stroke="#FF0000" fill="none" stroke-width="4px" />
<path d="M 180.0 95.0 L 190.0 95.0" stroke="#FF0000" fill="none" stroke-width="4px" />
<path d="M 190.0 95.0 L 200.0 95.0" stroke="#FF0000" fill="none" stroke-width="4px" />
<path d="M 200.0 95.0 L 210.0 95.0" stroke="#FF0000" fill="none" stroke-width="4px" />
<path d="M 210.0 95.0 L 220.0 95.0" stroke="#FF0000" fill="none" stroke-width="4px" />
<path d="M 220.0 95.0 L 230.0 95.0" stroke="#FF0000" fill="none" stroke-width="4px" />
<path d="M 230.0 95.0 L 230.0 105.0" stroke="#FF0000" fill="none" stroke-width="4px" />
<path d="M 230.0 105.0 L 220.0 105.0" stroke="#FF0000" fill="none" stroke-width="4px" />
<path d="M 220.0 105.0 L 210.0 105.0" stroke="#FF0000" fill="none" stroke-width="4px" />
<path d="M 210.0 105.0 L 200.0 105.0" stroke="#FF0000" fill="none" stroke-width="4px" />
<path d="M 200.0 105.0 L 190.0 105.0" stroke="#FF0000" fill="none" stroke-width="4px" />
<path d="M 190.0 105.0 L 180.0 105.0" stroke="#FF0000" fill="none" stroke-width="4px" />
<path d="M 180.0 105.0 L 190.0 115.0" stroke="#FF0000" fill="none" stroke-width="4px" />
<path d="M 190.0 115.0 L 200.0 115.0" stroke="#FF0000" fill="none" stroke-width="4px" />
<path d="M 200.0 115.0 L 210.0 115.0" stroke="#FF0000" fill="none" stroke-width="4px" />
<path d="M 210.0 115.0 L 220.0 115.0" stroke="#FF0000" fill="none" stroke-width="4px" />
<path d="M 220.0 115.0 L 210.0 125.0" stroke="#FF0000" fill="none" stroke-width="4px" />
<path d="M 210.0 125.0 L 200.0 125.0" stroke="#FF0000" fill="none" stroke-width="4px" />
<path d="M 200.0 65.0 L 190.0 65.0" stroke="#FF0000" fill="none" stroke-width="4px" />
<path d="M 190.0 65.0 L 180.0 65.0" stroke="#FF0000" fill="none" stroke-width="4px" />
<path d="M 180.0 65.0 L 170.0 65.0" stroke="#FF0000" fill="none" stroke-width="4px" />
<path d="M 170.0 65.0 L 160.0 65.0" stroke="#FF0000" fill="none" stroke-width="4px" />
<path d="M 160.0 65.0 L 150.0 65.0" stroke="#FF0000" fill="none" stroke-width="4px" />
<path d="M 150.0 65.0 L 140.0 65.0" stroke="#FF0000" fill="none" stroke-width="4px" />
<path d="M 140.0 65.0 L 140.0 55.0" stroke="#FF0000" fill="none" stroke-width="4px" />
<path d="M 140.0 55.0 L 150.0 55.0" stroke="#FF0000" fill="none" stroke-width="4px" />
<path d="M 150.0 55.0 L 160.0 55.0" stroke="#FF0000" fill="none" stroke-width="4px" />
<path d="M 160.0 55.0 L 170.0 55.0" stroke="#FF0000" fill="none" stroke-width="4px" />
<path d="M 170.0 55.0 L 180.0 55.0" stroke="#FF0000" fill="none" stroke-width="4px" />
<path d="M 180.0 55.0 L 190.0 55.0" stroke="#FF0000" fill="none" stroke-width="4px" />
<path d="M 190.0 55.0 L 200.0 55.0" stroke="#FF0000" fill="none" stroke-width="4px" />
<path d="M 200.0 55.0 L 190.0 45.0" stroke="#FF0000" fill="none" stroke-width="4px" />
<path d="M 190.0 45.0 L 180.0 45.0" stroke="#FF0000" fill="none" stroke-width="4px" />
<path d="M 180.0 45.0 L 170.0 45.0" stroke="#FF0000" fill="none" stroke-width="4px" />
<path d="M 170.0 45.0 L 160.0 45.0" stroke="#FF0000" fill="none" stroke-width="4px" />
<path d="M 160.0 45.0 L 150.0 45.0" stroke="#FF0000" fill="none" stroke-width="4px" />
<path d="M 150.0 45.0 L 140.0 45.0" stroke="#FF0000" fill="none" stroke-width="4px" />
<path d="M 140.0 45.0 L 150.0 35.0" stroke="#FF0000" fill="none" stroke-width="4px" />
<path d="M 150.0 35.0 L 160.0 35.0" stroke="#FF0000" fill="none" stroke-width="4px" />
<path d="M 160.0 35.0 L 170.0 35.0" stroke="#FF0000" fill="none" stroke-width="4px" />
<path d="M 170.0 35.0 L 180.0 35.0" stroke="#FF0000" fill="none" stroke-width="4px" />
<path d="M 310.0 105.0 L 320.0 105.0" stroke="#FF0000" fill="none" stroke-width="4px" />
<path d="M 320.0 105.0 L 320.0 115.0" stroke="#FF0000" fill="none" stroke-width="4px" />
<path d="M 320.0 115.0 L 310.0 115.0" stroke="#FF0000" fill="none" stroke-width="4px" />
<path d="M 310.0 115.0 L 300.0 115.0" stroke="#FF0000" fill="none" stroke-width="4px" />
<path d="M 300.0 115.0 L 300.0 125.0" stroke="#FF0000" fill="none" stroke-width="4px" />
<path d="M 300.0 125.0 L 290.0 125.0" stroke="#FF0000" fill="none" stroke-width="4px" />
<path d="M 290.0 125.0 L 300.0 135.0" stroke="#FF0000" fill="none" stroke-width="4px" />
<path d="M 300.0 135.0 L 310.0 135.0" stroke="#FF0000" fill="none" stroke-width="4px" />
<path d="M 310.0 135.0 L 320.0 135.0" stroke="#FF0000" fill="none" stroke-width="4px" />
<path d="M 320.0 135.0 L 330.0 135.0" stroke="#FF0000" fill="none" stroke-width="4px" />
<path d="M 330.0 135.0 L 330.0 125.0" stroke="#FF0000" fill="none" stroke-width="4px" />
<path d="M 330.0 125.0 L 320.0 125.0" stroke="#FF0000" fill="none" stroke-width="4px" />
<path d="M 320.0 125.0 L 310.0 125.0" stroke="#FF0000" fill="none" stroke-width="4px" />
<path d="M 330.0 115.0 L 340.0 125.0" stroke="#FF0000" fill="none" stroke-width="4px" />
<path d="M 320.0 145.0 L 310.0 145.0" stroke="#FF0000" fill="none" stroke-width="4px" />
<path d="M 380.0 145.0 L 390.0 145.0" stroke="#FF0000" fill="none" stroke-width="4px" />
<path d="M 390.0 145.0 L 400.0 145.0" stroke="#FF0000" fill="none" stroke-width="4px" />
<path d="M 400.0 145.0 L 410.0 145.0" stroke="#FF0000" fill="none" stroke-width="4px" />
<path d="M 410.0 145.0 L 420.0 145.0" stroke="#FF0000" fill="none" stroke-width="4px" />
<path d="M 420.0 145.0 L 420.0 155.0" stroke="#FF0000" fill="none" stroke-width="4px" />
<path d="M 420.0 155.0 L 410.0 155.0" stroke="#FF0000" fill="none" stroke-width="4px" />
<path d="M 410.0 155.0 L 400.0 155.0" stroke="#FF0000" fill="none" stroke-width="4px" />
<path d="M 400.0 155.0 L 390.0 155.0" stroke="#FF0000" fill="none" stroke-width="4px" />
<path d="M 390.0 155.0 L 400.0 165.0" stroke="#FF0000" fill="none" stroke-width="4px" />
<path d="M 400.0 165.0 L 410.0 165.0" stroke="#FF0000" fill="none" stroke-width="4px" />
<path d="M 410.0 135.0 L 400.0 135.0" stroke="#FF0000" fill="none" stroke-width="4px" />
<path d="M 400.0 135.0 L 390.0 135.0" stroke="#FF0000" fill="none" stroke-width="4px" />
<path d="M 390.0 135.0 L 400.0 125.0" stroke="#FF0000" fill="none" stroke-width="4px" />
<path d="M 400.0 125.0 L 410.0 125.0" stroke="#FF0000" fill="none" stroke-width="4px" />
<path d="M 410.0 125.0 L 420.0 125.0" stroke="#FF0000" fill="none" stroke-width="4px" />
<path d="M 420.0 125.0 L 420.0 135.0" stroke="#FF0000" fill="none" stroke-width="4px" />
<path d="M 420.0 135.0 L 430.0 135.0" stroke="#FF0000" fill="none" stroke-width="4px" />
<path d="M 460.0 125.0 L 470.0 125.0" stroke="#FF0000" fill="none" stroke-width="4px" />
<path d="M 470.0 125.0 L 470.0 115.0" stroke="#FF0000" fill="none" stroke-width="4px" />
<path d="M 470.0 115.0 L 460.0 115.0" stroke="#FF0000" fill="none" stroke-width="4px" />
<path d="M 460.0 115.0 L 450.0 115.0" stroke="#FF0000" fill="none" stroke-width="4px" />
<path d="M 450.0 115.0 L 450.0 105.0" stroke="#FF0000" fill="none" stroke-width="4px" />
<path d="M 450.0 105.0 L 440.0 105.0" stroke="#FF0000" fill="none" stroke-width="4px" />
<path d="M 440.0 105.0 L 440.0 95.0" stroke="#FF0000" fill="none" stroke-width="4px" />
<path d="M 440.0 95.0 L 450.0 95.0" stroke="#FF0000" fill="none" stroke-width="4px" />
<path d="M 450.0 95.0 L 460.0 95.0" stroke="#FF0000" fill="none" stroke-width="4px" />
<path d="M 460.0 95.0 L 470.0 95.0" stroke="#FF0000" fill="none" stroke-width="4px" />
<path d="M 470.0 95.0 L 480.0 95.0" stroke="#FF0000" fill="none" stroke-width="4px" />
<path d="M 480.0 95.0 L 480.0 105.0" stroke="#FF0000" fill="none" stroke-width="4px" />
<path d="M 480.0 105.0 L 470.0 105.0" stroke="#FF0000" fill="none" stroke-width="4px" />
<path d="M 470.0 105.0 L 460.0 105.0" stroke="#FF0000" fill="none" stroke-width="4px" />
<path d="M 480.0 115.0 L 490.0 105.0" stroke="#FF0000" fill="none" stroke-width="4px" />
<path d="M 480.0 85.0 L 470.0 85.0" stroke="#FF0000" fill="none" stroke-width="4px" />
<path d="M 470.0 85.0 L 460.0 85.0" stroke="#FF0000" fill="none" stroke-width="4px" />
<path d="M 460.0 85.0 L 450.0 85.0" stroke="#FF0000" fill="none" stroke-width="4px" />
<path d="M 450.0 85.0 L 440.0 85.0" stroke="#FF0000" fill="none" stroke-width="4px" />
<path d="M 440.0 85.0 L 450.0 75.0" stroke="#FF0000" fill="none" stroke-width="4px" />
<path d="M 450.0 75.0 L 460.0 75.0" stroke="#FF0000" fill="none" stroke-width="4px" />
<path d="M 460.0 75.0 L 470.0 75.0" stroke="#FF0000" fill="none" stroke-width="4px" />
<path d="M 540.0 75.0 L 550.0 75.0" stroke="#FF0000" fill="none" stroke-width="4px" />
<path d="M 550.0 75.0 L 560.0 75.0" stroke="#FF0000" fill="none" stroke-width="4px" />
<path d="M 560.0 75.0 L 570.0 75.0" stroke="#FF0000" fill="none" stroke-width="4px" />
<path d="M 570.0 75.0 L 580.0 75.0" stroke="#FF0000" fill="none" stroke-width="4px" />
<path d="M 580.0 75.0 L 590.0 75.0" stroke="#FF0000" fill="none" stroke-width="4px" />
<path d="M 590.0 75.0 L 600.0 75.0" stroke="#FF0000" fill="none" stroke-width="4px" />
<path d="M 600.0 75.0 L 610.0 75.0" stroke="#FF0000" fill="none" stroke-width="4px" />
<path d="M 610.0 75.0 L 610.0 85.0" stroke="#FF0000" fill="none" stroke-width="4px" />
<path d="M 610.0 85.0 L 600.0 85.0" stroke="#FF0000" fill="none" stroke-width="4px" />
<path d="M 600.0 85.0 L 590.0 85.0" stroke="#FF0000" fill="none" stroke-width="4px" />
<path d="M 590.0 85.0 L 580.0 85.0" stroke="#FF0000" fill="none" stroke-width="4px" />
<path d="M 580.0 85.0 L 570.0 85.0" stroke="#FF0000" fill="none" stroke-width="4px" />
<path d="M 570.0 85.0 L 560.0 85.0" stroke="#FF0000" fill="none" stroke-width="4px" />
<path d="M 560.0 85.0 L 550.0 85.0" stroke="#FF0000" fill="none" stroke-width="4px" />
<path d="M 550.0 85.0 L 540.0 85.0" stroke="#FF0000" fill="none" stroke-width="4px" />
<path d="M 540.0 85.0 L 540.0 95.0" stroke="#FF0000" fill="none" stroke-width="4px" />
<path d="M 540.0 95.0 L 550.0 95.0" stroke="#FF0000" fill="none" stroke-width="4px" />
<path d="M 550.0 95.0 L 560.0 95.0" stroke="#FF0000" fill="none" stroke-width="4px" />
<path d="M 560.0 95.0 L 570.0 95.0" stroke="#FF0000" fill="none" stroke-width="4px" />
<path d="M 570.0 95.0 L 580.0 95.0" stroke="#FF0000" fill="none" stroke-width="4px" />
<path d="M 580.0 95.0 L 590.0 95.0" stroke="#FF0000" fill="none" stroke-width="4px" />
<path d="M 590.0 95.0 L 600.0 95.0" stroke="#FF0000" fill="none" stroke-width="4px" />
<path d="M 600.0 95.0 L 610.0 95.0" stroke="#FF0000" fill="none" stroke-width="4px" />
<path d="M 610.0 95.0 L 620.0 95.0" stroke="#FF0000" fill="none" stroke-width="4px" />
<path d="M 620.0 95.0 L 620.0 105.0" stroke="#FF0000" fill="none" stroke-width="4px" />
<path d="M 620.0 105.0 L 610.0 105.0" stroke="#FF0000" fill="none" stroke-width="4px" />
<path d="M 610.0 105.0 L 600.0 105.0" stroke="#FF0000" fill="none" stroke-width="4px" />
<path d="M 600.0 105.0 L 590.0 105.0" stroke="#FF0000" fill="none" stroke-width="4px" />
<path d="M 590.0 105.0 L 580.0 105.0" stroke="#FF0000" fill="none" stroke-width="4px" />
<path d="M 580.0 105.0 L 570.0 105.0" stroke="#FF0000" fill="none" stroke-width="4px" />
<path d="M 570.0 105.0 L 560.0 105.0" stroke="#FF0000" fill="none" stroke-width="4px" />
<path d="M 560.0 105.0 L 550.0 105.0" stroke="#FF0000" fill="none" stroke-width="4px" />
<path d="M 550.0 105.0 L 560.0 115.0" stroke="#FF0000" fill="none" stroke-width="4px" />
<path d="M 560.0 115.0 L 570.0 115.0" stroke="#FF0000" fill="none" stroke-width="4px" />
<path d="M 570.0 115.0 L 580.0 115.0" stroke="#FF0000" fill="none" stroke-width="4px" />
<path d="M 580.0 115.0 L 590.0 115.0" stroke="#FF0000" fill="none" stroke-width="4px" />
<path d="M 590.0 115.0 L 600.0 115.0" stroke="#FF0000" fill="none" stroke-width="4px" />
<path d="M 600.0 115.0 L 610.0 115.0" stroke="#FF0000" fill="none" stroke-width="4px" />
<path d="M 610.0 115.0 L 620.0 115.0" stroke="#FF0000" fill="none" stroke-width="4px" />
<path d="M 620.0 115.0 L 610.0 125.0" stroke="#FF0000" fill="none" stroke-width="4px" />
<path d="M 610.0 125.0 L 600.0 125.0" stroke="#FF0000" fill="none" stroke-width="4px" />
<path d="M 600.0 125.0 L 590.0 125.0" stroke="#FF0000" fill="none" stroke-width="4px" />
<path d="M 590.0 125.0 L 580.0 125.0" stroke="#FF0000" fill="none" stroke-width="4px" />
<path d="M 580.0 125.0 L 570.0 125.0" stroke="#FF0000" fill="none" stroke-width="4px" />
<path d="M 570.0 125.0 L 580.0 135.0" stroke="#FF0000" fill="none" stroke-width="4px" />
<path d="M 580.0 135.0 L 590.0 135.0" stroke="#FF0000" fill="none" stroke-width="4px" />
<path d="M 590.0 135.0 L 590.0 145.0" stroke="#FF0000" fill="none" stroke-width="4px" />
<path d="M 590.0 145.0 L 580.0 145.0" stroke="#FF0000" fill="none" stroke-width="4px" />
<path d="M 580.0 145.0 L 570.0 145.0" stroke="#FF0000" fill="none" stroke-width="4px" />
<path d="M 570.0 145.0 L 570.0 155.0" stroke="#FF0000" fill="none" stroke-width="4px" />
<path d="M 570.0 155.0 L 560.0 155.0" stroke="#FF0000" fill="none" stroke-width="4px" />
<path d="M 560.0 155.0 L 560.0 165.0" stroke="#FF0000" fill="none" stroke-width="4px" />
<path d="M 560.0 165.0 L 570.0 165.0" stroke="#FF0000" fill="none" stroke-width="4px" />
<path d="M 570.0 165.0 L 580.0 165.0" stroke="#FF0000" fill="none" stroke-width="4px" />
<path d="M 580.0 165.0 L 590.0 165.0" stroke="#FF0000" fill="none" stroke-width="4px" />
<path d="M 590.0 165.0 L 600.0 165.0" stroke="#FF0000" fill="none" stroke-width="4px" />
<path d="M 600.0 165.0 L 610.0 165.0" stroke="#FF0000" fill="none" stroke-width="4px" />
<path d="M 610.0 165.0 L 610.0 155.0" stroke="#FF0000" fill="none" stroke-width="4px" />
<path d="M 610.0 155.0 L 600.0 155.0" stroke="#FF0000" fill="none" stroke-width="4px" />
<path d="M 600.0 155.0 L 590.0 155.0" stroke="#FF0000" fill="none" stroke-width="4px" />
<path d="M 590.0 155.0 L 580.0 155.0" stroke="#FF0000" fill="none" stroke-width="4px" />
<path d="M 630.0 165.0 L 640.0 165.0" stroke="#FF0000" fill="none" stroke-width="4px" />
<path d="M 640.0 165.0 L 650.0 165.0" stroke="#FF0000" fill="none" stroke-width="4px" />
<path d="M 650.0 165.0 L 660.0 165.0" stroke="#FF0000" fill="none" stroke-width="4px" />
<path d="M 660.0 165.0 L 670.0 165.0" stroke="#FF0000" fill="none" stroke-width="4px" />
<path d="M 670.0 165.0 L 670.0 175.0" stroke="#FF0000" fill="none" stroke-width="4px" />
<path d="M 670.0 175.0 L 660.0 175.0" stroke="#FF0000" fill="none" stroke-width="4px" />
<path d="M 660.0 175.0 L 650.0 175.0" stroke="#FF0000" fill="none" stroke-width="4px" />
<path d="M 650.0 175.0 L 640.0 175.0" stroke="#FF0000" fill="none" stroke-width="4px" />
<path d="M 640.0 175.0 L 630.0 175.0" stroke="#FF0000" fill="none" stroke-width="4px" />
<path d="M 630.0 175.0 L 630.0 185.0" stroke="#FF0000" fill="none" stroke-width="4px" />
<path d="M 630.0 185.0 L 640.0 185.0" stroke="#FF0000" fill="none" stroke-width="4px" />
<path d="M 640.0 185.0 L 650.0 185.0" stroke="#FF0000" fill="none" stroke-width="4px" />
<path d="M 650.0 185.0 L 660.0 185.0" stroke="#FF0000" fill="none" stroke-width="4px" />
<path d="M 660.0 185.0 L 670.0 185.0" stroke="#FF0000" fill="none" stroke-width="4px" />
<path d="M 670.0 185.0 L 670.0 195.0" stroke="#FF0000" fill="none" stroke-width="4px" />
<path d="M 670.0 195.0 L 660.0 195.0" stroke="#FF0000" fill="none" stroke-width="4px" />
<path d="M 660.0 195.0 L 650.0 195.0" stroke="#FF0000" fill="none" stroke-width="4px" />
<path d="M 650.0 195.0 L 640.0 195.0" stroke="#FF0000" fill="none" stroke-width="4px" />
<path d="M 640.0 195.0 L 650.0 205.0" stroke="#FF0000" fill="none" stroke-width="4px" />
<path d="M 650.0 205.0 L 660.0 205.0" stroke="#FF0000" fill="none" stroke-width="4px" />
<path d="M 660.0 155.0 L 650.0 155.0" stroke="#FF0000" fill="none" stroke-width="4px" />
<path d="M 650.0 155.0 L 640.0 155.0" stroke="#FF0000" fill="none" stroke-width="4px" />
<path d="M 640.0 155.0 L 650.0 145.0" stroke="#FF0000" fill="none" stroke-width="4px" />
<path d="M 600.0 175.0 L 590.0 175.0" stroke="#FF0000" fill="none" stroke-width="4px" />
<path d="M 590.0 175.0 L 580.0 175.0" stroke="#FF0000" fill="none" stroke-width="4px" />
<path d="M 580.0 175.0 L 570.0 175.0" stroke="#FF0000" fill="none" stroke-width="4px" />
<path d="M 570.0 175.0 L 580.0 185.0" stroke="#FF0000" fill="none" stroke-width="4px" />
<path d="M 580.0 185.0 L 590.0 185.0" stroke="#FF0000" fill="none" stroke-width="4px" />
<path d="M 590.0 65.0 L 580.0 65.0" stroke="#FF0000" fill="none" stroke-width="4px" />
<path d="M 580.0 65.0 L 570.0 65.0" stroke="#FF0000" fill="none" stroke-width="4px" />
<path d="M 570.0 65.0 L 560.0 65.0" stroke="#FF0000" fill="none" stroke-width="4px" />
<path d="M 560.0 65.0 L 550.0 65.0" stroke="#FF0000" fill="none" stroke-width="4px" />
<path d="M 940.0 95.0 L 950.0 95.0" stroke="#FF0000" fill="none" stroke-width="4px" />
<path d="M 950.0 95.0 L 960.0 95.0" stroke="#FF0000" fill="none" stroke-width="4px" />
<path d="M 960.0 95.0 L 970.0 95.0" stroke="#FF0000" fill="none" stroke-width="4px" />
<path d="M 970.0 95.0 L 980.0 95.0" stroke="#FF0000" fill="none" stroke-width="4px" />
<path d="M 980.0 95.0 L 990.0 95.0" stroke="#FF0000" fill="none" stroke-width="4px" />
<path d="M 990.0 95.0 L 1000.0 95.0" stroke="#FF0000" fill="none" stroke-width="4px" />
<path d="M 1000.0 95.0 L 1000.0 85.0" stroke="#FF0000" fill="none" stroke-width="4px" />
<path d="M 1000.0 85.0 L 990.0 85.0" stroke="#FF0000" fill="none" stroke-width="4px" />
<path d="M 990.0 85.0 L 980.0 85.0" stroke="#FF0000" fill="none" stroke-width="4px" />
<path d="M 980.0 85.0 L 970.0 85.0" stroke="#FF0000" fill="none" stroke-width="4px" />
<path d="M 970.0 85.0 L 960.0 85.0" stroke="#FF0000" fill="none" stroke-width="4px" />
<path d="M 960.0 85.0 L 950.0 85.0" stroke="#FF0000" fill="none" stroke-width="4px" />
<path d="M 950.0 85.0 L 940.0 85.0" stroke="#FF0000" fill="none" stroke-width="4px" />
<path d="M 940.0 85.0 L 940.0 75.0" stroke="#FF0000" fill="none" stroke-width="4px" />
<path d="M 940.0 75.0 L 950.0 75.0" stroke="#FF0000" fill="none" stroke-width="4px" />
<path d="M 950.0 75.0 L 960.0 75.0" stroke="#FF0000" fill="none" stroke-width="4px" />
<path d="M 960.0 75.0 L 970.0 75.0" stroke="#FF0000" fill="none" stroke-width="4px" />
<path d="M 970.0 75.0 L 980.0 75.0" stroke="#FF0000" fill="none" stroke-width="4px" />
<path d="M 980.0 75.0 L 990.0 75.0" stroke="#FF0000" fill="none" stroke-width="4px" />
<path d="M 990.0 75.0 L 980.0 65.0" stroke="#FF0000" fill="none" stroke-width="4px" />
<path d="M 980.0 65.0 L 970.0 65.0" stroke="#FF0000" fill="none" stroke-width="4px" />
<path d="M 970.0 65.0 L 960.0 65.0" stroke="#FF0000" fill="none" stroke-width="4px" />
<path d="M 960.0 65.0 L 950.0 65.0" stroke="#FF0000" fill="none" stroke-width="4px" />
<path d="M 950.0 65.0 L 960.0 55.0" stroke="#FF0000" fill="none" stroke-width="4px" />
<path d="M 960.0 105.0 L 950.0 105.0" stroke="#FF0000" fill="none" stroke-width="4px" />
<path d="M 950.0 105.0 L 960.0 115.0" stroke="#FF0000" fill="none" stroke-width="4px" />
<path d="M 960.0 115.0 L 970.0 115.0" stroke="#FF0000" fill="none" stroke-width="4px" />
<path d="M 970.0 115.0 L 980.0 115.0" stroke="#FF0000" fill="none" stroke-width="4px" />
<path d="M 980.0 115.0 L 980.0 105.0" stroke="#FF0000" fill="none" stroke-width="4px" />
<path d="M 980.0 105.0 L 970.0 105.0" stroke="#FF0000" fill="none" stroke-width="4px" />
<path d="M 970.0 105.0 L 990.0 105.0" stroke="#FF0000" fill="none" stroke-width="4px" />
<path d="M 1100.0 105.0 L 1110.0 105.0" stroke="#FF0000" fill="none" stroke-width="4px" />
<path d="M 1110.0 105.0 L 1120.0 105.0" stroke="#FF0000" fill="none" stroke-width="4px" />
<path d="M 1120.0 105.0 L 1130.0 105.0" stroke="#FF0000" fill="none" stroke-width="4px" />
<path d="M 1130.0 105.0 L 1140.0 105.0" stroke="#FF0000" fill="none" stroke-width="4px" />
<path d="M 1140.0 105.0 L 1140.0 95.0" stroke="#FF0000" fill="none" stroke-width="4px" />
<path d="M 1140.0 95.0 L 1130.0 95.0" stroke="#FF0000" fill="none" stroke-width="4px" />
<path d="M 1130.0 95.0 L 1120.0 95.0" stroke="#FF0000" fill="none" stroke-width="4px" />
<path d="M 1120.0 95.0 L 1110.0 95.0" stroke="#FF0000" fill="none" stroke-width="4px" />
<path d="M 1110.0 95.0 L 1100.0 95.0" stroke="#FF0000" fill="none" stroke-width="4px" />
<path d="M 1100.0 95.0 L 1110.0 85.0" stroke="#FF0000" fill="none" stroke-width="4px" />
<path d="M 1110.0 85.0 L 1120.0 85.0" stroke="#FF0000" fill="none" stroke-width="4px" />
<path d="M 1120.0 85.0 L 1130.0 85.0" stroke="#FF0000" fill="none" stroke-width="4px" />
<path d="M 1130.0 85.0 L 1120.0 75.0" stroke="#FF0000" fill="none" stroke-width="4px" />
<path d="M 1120.0 115.0 L 1110.0 115.0" stroke="#FF0000" fill="none" stroke-width="4px" />
<path d="M 1110.0 115.0 L 1120.0 125.0" stroke="#FF0000" fill="none" stroke-width="4px" />
<path d="M 1120.0 125.0 L 1130.0 115.0" stroke="#FF0000" fill="none" stroke-width="4px" />
<path d="M 1370.0 115.0 L 1380.0 115.0" stroke="#FF0000" fill="none" stroke-width="4px" />
<path d="M 1380.0 115.0 L 1390.0 115.0" stroke="#FF0000" fill="none" stroke-width="4px" />
<path d="M 1390.0 115.0 L 1400.0 115.0" stroke="#FF0000" fill="none" stroke-width="4px" />
<path d="M 1400.0 115.0 L 1410.0 115.0" stroke="#FF0000" fill="none" stroke-width="4px" />
<path d="M 1410.0 115.0 L 1420.0 115.0" stroke="#FF0000" fill="none" stroke-width="4px" />
<path d="M 1420.0 115.0 L 1420.0 125.0" stroke="#FF0000" fill="none" stroke-width="4px" />
<path d="M 1420.0 125.0 L 1410.0 125.0" stroke="#FF0000" fill="none" stroke-width="4px" />
<path d="M 1410.0 125.0 L 1400.0 125.0" stroke="#FF0000" fill="none" stroke-width="4px" />
<path d="M 1400.0 125.0 L 1390.0 125.0" stroke="#FF0000" fill="none" stroke-width="4px" />
<path d="M 1390.0 125.0 L 1380.0 125.0" stroke="#FF0000" fill="none" stroke-width="4px" />
<path d="M 1380.0 125.0 L 1380.0 135.0" stroke="#FF0000" fill="none" stroke-width="4px" />
<path d="M 1380.0 135.0 L 1390.0 135.0" stroke="#FF0000" fill="none" stroke-width="4px" />
<path d="M 1390.0 135.0 L 1400.0 135.0" stroke="#FF0000" fill="none" stroke-width="4px" />
<path d="M 1400.0 135.0 L 1410.0 135.0" stroke="#FF0000" fill="none" stroke-width="4px" />
<path d="M 1410.0 135.0 L 1400.0 145.0" stroke="#FF0000" fill="none" stroke-width="4px" />
<path d="M 1400.0 145.0 L 1390.0 145.0" stroke="#FF0000" fill="none" stroke-width="4px" />
<path d="M 1390.0 105.0 L 1380.0 105.0" stroke="#FF0000" fill="none" stroke-width="4px" />
<path d="M 1380.0 105.0 L 1390.0 95.0" stroke="#FF0000" fill="none" stroke-width="4px" />
<path d="M 1390.0 95.0 L 1400.0 95.0" stroke="#FF0000" fill="none" stroke-width="4px" />
<path d="M 1400.0 95.0 L 1400.0 105.0" stroke="#FF0000" fill="none" stroke-width="4px" />
<path d="M 1400.0 105.0 L 1410.0 105.0" stroke="#FF0000" fill="none" stroke-width="4px" />
<path d="M 1510.0 55.0 L 1520.0 55.0" stroke="#FF0000" fill="none" stroke-width="4px" />
<path d="M 1520.0 55.0 L 1530.0 55.0" stroke="#FF0000" fill="none" stroke-width="4px" />
<path d="M 1530.0 55.0 L 1540.0 55.0" stroke="#FF0000" fill="none" stroke-width="4px" />
<path d="M 1540.0 55.0 L 1550.0 55.0" stroke="#FF0000" fill="none" stroke-width="4px" />
<path d="M 1550.0 55.0 L 1550.0 45.0" stroke="#FF0000" fill="none" stroke-width="4px" />
<path d="M 1550.0 45.0 L 1540.0 45.0" stroke="#FF0000" fill="none" stroke-width="4px" />
<path d="M 1540.0 45.0 L 1530.0 45.0" stroke="#FF0000" fill="none" stroke-width="4px" />
<path d="M 1530.0 45.0 L 1520.0 45.0" stroke="#FF0000" fill="none" stroke-width="4px" />
<path d="M 1520.0 45.0 L 1510.0 45.0" stroke="#FF0000" fill="none" stroke-width="4px" />
<path d="M 1510.0 45.0 L 1500.0 45.0" stroke="#FF0000" fill="none" stroke-width="4px" />
<path d="M 1500.0 45.0 L 1500.0 35.0" stroke="#FF0000" fill="none" stroke-width="4px" />
<path d="M 1500.0 35.0 L 1510.0 35.0" stroke="#FF0000" fill="none" stroke-width="4px" />
<path d="M 1510.0 35.0 L 1520.0 35.0" stroke="#FF0000" fill="none" stroke-width="4px" />
<path d="M 1520.0 35.0 L 1530.0 35.0" stroke="#FF0000" fill="none" stroke-width="4px" />
<path d="M 1530.0 35.0 L 1540.0 35.0" stroke="#FF0000" fill="none" stroke-width="4px" />
<path d="M 1540.0 35.0 L 1550.0 35.0" stroke="#FF0000" fill="none" stroke-width="4px" />
<path d="M 1550.0 35.0 L 1560.0 35.0" stroke="#FF0000" fill="none" stroke-width="4px" />
<path d="M 1560.0 35.0 L 1570.0 35.0" stroke="#FF0000" fill="none" stroke-width="4px" />
<path d="M 1570.0 35.0 L 1560.0 45.0" stroke="#FF0000" fill="none" stroke-width="4px" />
<path d="M 1560.0 25.0 L 1550.0 25.0" stroke="#FF0000" fill="none" stroke-width="4px" />
<path d="M 1550.0 25.0 L 1540.0 25.0" stroke="#FF0000" fill="none" stroke-width="4px" />
<path d="M 1540.0 25.0 L 1530.0 25.0" stroke="#FF0000" fill="none" stroke-width="4px" />
<path d="M 1530.0 25.0 L 1520.0 25.0" stroke="#FF0000" fill="none" stroke-width="4px" />
<path d="M 1520.0 25.0 L 1510.0 25.0" stroke="#FF0000" fill="none" stroke-width="4px" />
<path d="M 1510.0 25.0 L 1500.0 25.0" stroke="#FF0000" fill="none" stroke-width="4px" />
<path d="M 1500.0 25.0 L 1500.0 15.0" stroke="#FF0000" fill="none" stroke-width="4px" />
<path d="M 1500.0 15.0 L 1510.0 15.0" stroke="#FF0000" fill="none" stroke-width="4px" />
<path d="M 1510.0 15.0 L 1520.0 15.0" stroke="#FF0000" fill="none" stroke-width="4px" />
<path d="M 1520.0 15.0 L 1530.0 15.0" stroke="#FF0000" fill="none" stroke-width="4px" />
<path d="M 1530.0 15.0 L 1540.0 15.0" stroke="#FF0000" fill="none" stroke-width="4px" />
<path d="M 1540.0 15.0 L 1550.0 15.0" stroke="#FF0000" fill="none" stroke-width="4px" />
<path d="M 1550.0 15.0 L 1560.0 15.0" stroke="#FF0000" fill="none" stroke-width="4px" />
<path d="M 1560.0 15.0 L 1560.0 5.0" stroke="#FF0000" fill="none" stroke-width="4px" />
<path d="M 1560.0 5.0 L 1550.0 5.0" stroke="#FF0000" fill="none" stroke-width="4px" />
<path d="M 1550.0 5.0 L 1540.0 5.0" stroke="#FF0000" fill="none" stroke-width="4px" />
<path d="M 1540.0 5.0 L 1530.0 5.0" stroke="#FF0000" fill="none" stroke-width="4px" />
<path d="M 1530.0 5.0 L 1520.0 5.0" stroke="#FF0000" fill="none" stroke-width="4px" />
<path d="M 1520.0 5.0 L 1510.0 5.0" stroke="#FF0000" fill="none" stroke-width="4px" />
<path d="M 1510.0 5.0 L 1500.0 5.0" stroke="#FF0000" fill="none" stroke-width="4px" />
<path d="M 1500.0 5.0 L 1500.0 -5.0" stroke="#FF0000" fill="none" stroke-width="4px" />
<path d="M 1500.0 -5.0 L 1510.0 -5.0" stroke="#FF0000" fill="none" stroke-width="4px" />
<path d="M 1510.0 -5.0 L 1520.0 -5.0" stroke="#FF0000" fill="none" stroke-width="4px" />
<path d="M 1520.0 -5.0 L 1530.0 -5.0" stroke="#FF0000" fill="none" stroke-width="4px" />
<path d="M 1530.0 -5.0 L 1540.0 -5.0" stroke="#FF0000" fill="none" stroke-width="4px" />
<path d="M 1540.0 -5.0 L 1550.0 -5.0" stroke="#FF0000" fill="none" stroke-width="4px" />
<path d="M 1550.0 -5.0 L 1560.0 -5.0" stroke="#FF0000" fill="none" stroke-width="4px" />
<path d="M 1630.0 75.0 L 1640.0 75.0" stroke="#FF0000" fill="none" stroke-width="4px" />
<path d="M 1640.0 75.0 L 1640.0 85.0" stroke="#FF0000" fill="none" stroke-width="4px" />
<path d="M 1640.0 85.0 L 1630.0 85.0" stroke="#FF0000" fill="none" stroke-width="4px" />
<path d="M 1630.0 85.0 L 1620.0 85.0" stroke="#FF0000" fill="none" stroke-width="4px" />
<path d="M 1620.0 85.0 L 1620.0 95.0" stroke="#FF0000" fill="none" stroke-width="4px" />
<path d="M 1620.0 95.0 L 1630.0 95.0" stroke="#FF0000" fill="none" stroke-width="4px" />
<path d="M 1630.0 95.0 L 1640.0 95.0" stroke="#FF0000" fill="none" stroke-width="4px" />
<path d="M 1640.0 95.0 L 1650.0 95.0" stroke="#FF0000" fill="none" stroke-width="4px" />
<path d="M 1650.0 95.0 L 1660.0 95.0" stroke="#FF0000" fill="none" stroke-width="4px" />
<path d="M 1660.0 95.0 L 1660.0 105.0" stroke="#FF0000" fill="none" stroke-width="4px" />
<path d="M 1660.0 105.0 L 1650.0 105.0" stroke="#FF0000" fill="none" stroke-width="4px" />
<path d="M 1650.0 105.0 L 1640.0 105.0" stroke="#FF0000" fill="none" stroke-width="4px" />
<path d="M 1640.0 105.0 L 1630.0 105.0" stroke="#FF0000" fill="none" stroke-width="4px" />
<path d="M 1630.0 105.0 L 1620.0 105.0" stroke="#FF0000" fill="none" stroke-width="4px" />
<path d="M 1620.0 105.0 L 1630.0 115.0" stroke="#FF0000" fill="none" stroke-width="4px" />
<path d="M 1630.0 115.0 L 1640.0 115.0" stroke="#FF0000" fill="none" stroke-width="4px" />
<path d="M 1640.0 115.0 L 1650.0 115.0" stroke="#FF0000" fill="none" stroke-width="4px" />
<path d="M 1920.0 115.0 L 1930.0 115.0" stroke="#FF0000" fill="none" stroke-width="4px" />
<path d="M 1930.0 115.0 L 1940.0 115.0" stroke="#FF0000" fill="none" stroke-width="4px" />
<path d="M 1940.0 115.0 L 1950.0 115.0" stroke="#FF0000" fill="none" stroke-width="4px" />
<path d="M 1950.0 115.0 L 1960.0 115.0" stroke="#FF0000" fill="none" stroke-width="4px" />
<path d="M 1960.0 115.0 L 1950.0 125.0" stroke="#FF0000" fill="none" stroke-width="4px" />
<path d="M 1950.0 125.0 L 1940.0 125.0" stroke="#FF0000" fill="none" stroke-width="4px" />
<path d="M 1940.0 125.0 L 1930.0 125.0" stroke="#FF0000" fill="none" stroke-width="4px" />
<path d="M 1930.0 125.0 L 1940.0 135.0" stroke="#FF0000" fill="none" stroke-width="4px" />
<path d="M 1940.0 105.0 L 1930.0 105.0" stroke="#FF0000" fill="none" stroke-width="4px" />
<path d="M 1930.0 105.0 L 1940.0 95.0" stroke="#FF0000" fill="none" stroke-width="4px" />
<path d="M 1940.0 95.0 L 1950.0 95.0" stroke="#FF0000" fill="none" stroke-width="4px" />
<path d="M 1950.0 95.0 L 1950.0 105.0" stroke="#FF0000" fill="none" stroke-width="4px" />
<path d="M 2020.0 85.0 L 2010.0 85.0" stroke="#FF0000" fill="none" stroke-width="4px" />
<path d="M 2010.0 85.0 L 2000.0 85.0" stroke="#FF0000" fill="none" stroke-width="4px" />
<path d="M 2000.0 85.0 L 1990.0 85.0" stroke="#FF0000" fill="none" stroke-width="4px" />
<path d="M 1990.0 85.0 L 1980.0 85.0" stroke="#FF0000" fill="none" stroke-width="4px" />
<path d="M 1980.0 85.0 L 1970.0 85.0" stroke="#FF0000" fill="none" stroke-width="4px" />
<path d="M 1970.0 85.0 L 1970.0 75.0" stroke="#FF0000" fill="none" stroke-width="4px" />
<path d="M 1970.0 75.0 L 1980.0 75.0" stroke="#FF0000" fill="none" stroke-width="4px" />
<path d="M 1980.0 75.0 L 1990.0 75.0" stroke="#FF0000" fill="none" stroke-width="4px" />
<path d="M 1990.0 75.0 L 2000.0 75.0" stroke="#FF0000" fill="none" stroke-width="4px" />
<path d="M 2000.0 75.0 L 2010.0 75.0" stroke="#FF0000" fill="none" stroke-width="4px" />
<path d="M 2010.0 75.0 L 2020.0 75.0" stroke="#FF0000" fill="none" stroke-width="4px" />
<path d="M 2020.0 75.0 L 2020.0 65.0" stroke="#FF0000" fill="none" stroke-width="4px" />
<path d="M 2020.0 65.0 L 2010.0 65.0" stroke="#FF0000" fill="none" stroke-width="4px" />
<path d="M 2010.0 65.0 L 2000.0 65.0" stroke="#FF0000" fill="none" stroke-width="4px" />
<path d="M 2000.0 65.0 L 1990.0 65.0" stroke="#FF0000" fill="none" stroke-width="4px" />
<path d="M 1990.0 65.0 L 1980.0 65.0" stroke="#FF0000" fill="none" stroke-width="4px" />
<path d="M 1980.0 65.0 L 1970.0 65.0" stroke="#FF0000" fill="none" stroke-width="4px" />
<path d="M 1970.0 65.0 L 1960.0 65.0" stroke="#FF0000" fill="none" stroke-width="4px" />
<path d="M 1960.0 65.0 L 1970.0 55.0" stroke="#FF0000" fill="none" stroke-width="4px" />
<path d="M 1970.0 55.0 L 1980.0 55.0" stroke="#FF0000" fill="none" stroke-width="4px" />
<path d="M 1980.0 55.0 L 1990.0 55.0" stroke="#FF0000" fill="none" stroke-width="4px" />
<path d="M 1990.0 55.0 L 2000.0 55.0" stroke="#FF0000" fill="none" stroke-width="4px" />
<path d="M 2000.0 55.0 L 2010.0 55.0" stroke="#FF0000" fill="none" stroke-width="4px" />
<path d="M 2010.0 55.0 L 2000.0 45.0" stroke="#FF0000" fill="none" stroke-width="4px" />
<path d="M 2000.0 45.0 L 1990.0 45.0" stroke="#FF0000" fill="none" stroke-width="4px" />
<path d="M 1990.0 45.0 L 1980.0 45.0" stroke="#FF0000" fill="none" stroke-width="4px" />
<path d="M 1980.0 45.0 L 1990.0 35.0" stroke="#FF0000" fill="none" stroke-width="4px" />
<path d="M 1990.0 95.0 L 1980.0 95.0" stroke="#FF0000" fill="none" stroke-width="4px" />
<path d="M 1980.0 95.0 L 1990.0 105.0" stroke="#FF0000" fill="none" stroke-width="4px" />
<path d="M 1990.0 105.0 L 2000.0 105.0" stroke="#FF0000" fill="none" stroke-width="4px" />
<path d="M 2000.0 105.0 L 2000.0 95.0" stroke="#FF0000" fill="none" stroke-width="4px" />
<path d="M 2000.0 95.0 L 2010.0 95.0" stroke="#FF0000" fill="none" stroke-width="4px" />
</svg>