<svg width="1755.23333333" height="235.0" xmlns="http://www.w3.org/2000/svg" version="1.1">
<path d="M 0.0 235.0 L 1755.23333333 235.0 L 1755.23333333 0.0 L 0.0 0.0 L 0.0 235.0" stroke="#000000" fill="none" stroke-width="3px" />
<path d="M 10.0 257.5 L 0.0 247.5 L 10.0 237.5" stroke="#969696" fill="none" stroke-width="1px" />
<path d="M 10.0 237.5 L 1745.23333333 237.5" stroke="#969696" fill="none" stroke-width="1px" />
<path d="M 1745.23333333 237.5 L 1755.23333333 227.5 L 1745.23333333 217.5" stroke="#969696" fill="none" stroke-width="1px" />
<path d="M 1745.23333333 217.5 L 10.0 217.5" stroke="#969696" fill="none" stroke-width="1px" />
<path d="M 10.0 217.5 L 0.0 207.5 L 10.0 197.5" stroke="#969696" fill="none" stroke-width="1px" />
<path d="M 10.0 197.5 L 1745.23333333 197.5" stroke="#969696" fill="none" stroke-width="1px" />
<path d="M 1745.23333333 197.5 L 1755.23333333 187.5 L 1745.23333333 177.5" stroke="#969696" fill="none" stroke-width="1px" />
<path d="M 1745.23333333 177.5 L 10.0 177.5" stroke="#969696" fill="none" stroke-width="1px" />
<path d="M 10.0 177.5 L 0.0 167.5 L 10.0 157.5" stroke="#969696" fill="none" stroke-width="1px" />
<path d="M 10.0 157.5 L 1745.23333333 157.5" stroke="#969696" fill="none" stroke-width="1px" />
<path d="M 1745.23333333 157.5 L 1755.23333333 147.5 L 1745.23333333 137.5" stroke="#969696" fill="none" stroke-width="1px" />
<path d="M 1745.23333333 137.5 L 10.0 137.5" stroke="#969696" fill="none" stroke-width="1px" />
<path d="M 10.0 137.5 L 0.0 127.5 L 10.0 117.5" stroke="#969696" fill="none" stroke-width="1px" />
<path d="M 10.0 117.5 L 1745.23333333 117.5" stroke="#969696" fill="none" stroke-width="1px" />
<path d="M 1745.23333333 117.5 L 1755.23333333 107.5 L 1745.23333333 97.5" stroke="#969696" fill="none" stroke-width="1px" />
<path d="M 1745.23333333 97.5 L 10.0 97.5" stroke="#969696" fill="none" stroke-width="1px" />
<path d="M 10.0 97.5 L 0.0 87.5 L 10.0 77.5" stroke="#969696" fill="none" stroke-width="1px" />
<path d="M 10.0 77.5 L 1745.23333333 77.5" stroke="#969696" fill="none" stroke-width="1px" />
<path d="M 1745.23333333 77.5 L 1755.23333333 67.5 L 1745.23333333 57.5" stroke="#969696" fill="none" stroke-width="1px" />
<path d="M 1745.23333333 57.5 L 10.0 57.5" stroke="#969696" fill="none" stroke-width="1px" />
<path d="M 10.0 57.5 L 0.0 47.5 L 10.0 37.5" stroke="#969696" fill="none" stroke-width="1px" />
<path d="M 10.0 37.5 L 1745.23333333 37.5" stroke="#969696" fill="none" stroke-width="1px" />
<path d="M 1745.23333333 37.5 L 1755.23333333 27.5 L 1745.23333333 17.5" stroke="#969696" fill="none" stroke-width="1px" />
<path d="M 1745.23333333 17.5 L 10.0 17.5" stroke="#969696" fill="none" stroke-width="1px" />
<path d="M 10.0 17.5 L 0.0 7.5 L 10.0 -2.5" stroke="#969696" fill="none" stroke-width="1px" />
<path d="M 10.0 -2.5 L 1745.23333333 -2.5" stroke="#969696" fill="none" stroke-width="1px" />
<path d="M 1745.23333333 -2.5 L 1755.23333333 -12.5 L 1745.23333333 -22.5" stroke="#969696" fill="none" stroke-width="1px" />
<path d="M 0.0 235.0 L 344.766666665 155.0" stroke="#0095FF" fill="none" stroke-width="2px" />
<path d="M 394.766666665 145.0 L 374.766666665 165.0" stroke="#0095FF" fill="none" stroke-width="2px" />
<path d="M 364.766666665 175.0 L 364.766666665 105.0" stroke="#0095FF" fill="none" stroke-width="2px" />
<path d="M 344.766666665 85.0 L 374.766666665 95.0" stroke="#0095FF" fill="none" stroke-width="2px" />
<path d="M 374.766666665 105.0 L 384.766666665 85.0" stroke="#0095FF" fill="none" stroke-width="2px" />
<path d="M 404.766666665 85.0 L 424.766666665 105.0" stroke="#0095FF" fill="none" stroke-width="2px" />
<path d="M 424.766666665 105.0 L 394.766666665 35.0" stroke="#0095FF" fill="none" stroke-width="2px" />
<path d="M 414.766666665 -5.0 L 404.766666665 25.0" stroke="#0095FF" fill="none" stroke-width="2px" />
<path d="M 394.766666665 25.0 L 594.766666665 65.0" stroke="#0095FF" fill="none" stroke-width="2px" />
<path d="M 634.766666665 105.0 L 684.766666665 125.0" stroke="#0095FF" fill="none" stroke-width="2px" />
<path d="M 744.766666665 195.0 L 784.766666665 195.0" stroke="#0095FF" fill="none" stroke-width="2px" />
<path d="M 814.766666665 215.0 L 844.766666665 215.0" stroke="#0095FF" fill="none" stroke-width="2px" />
<path d="M 874.766666665 215.0 L 874.766666665 185.0" stroke="#0095FF" fill="none" stroke-width="2px" />
<path d="M 884.766666665 185.0 L 864.766666665 165.0" stroke="#0095FF" fill="none" stroke-width="2px" />
<path d="M 844.766666665 165.0 L 824.766666665 155.0" stroke="#0095FF" fill="none" stroke-width="2px" />
<path d="M 794.766666665 145.0 L 794.766666665 165.0" stroke="#0095FF" fill="none" stroke-width="2px" />
<path d="M 814.766666665 165.0 L 764.766666665 155.0" stroke="#0095FF" fill="none" stroke-width="2px" />
<path d="M 764.766666665 155.0 L 774.766666665 125.0" stroke="#0095FF" fill="none" stroke-width="2px" />
<path d="M 804.766666665 105.0 L 724.766666665 135.0" stroke="#0095FF" fill="none" stroke-width="2px" />
<path d="M 724.766666665 135.0 L 704.766666665 115.0" stroke="#0095FF" fill="none" stroke-width="2px" />
<path d="M 694.766666665 115.0 L 644.766666665 55.0" stroke="#0095FF" fill="none" stroke-width="2px" />
<path d="M 634.766666665 45.0 L 1554.76666667 185.0" stroke="#0095FF" fill="none" stroke-width="2px" />
<path d="M 1584.76666667 225.0 L 1584.76666667 175.0" stroke="#0095FF" fill="none" stroke-width="2px" />
<path d="M 1574.76666667 165.0 L 1594.76666667 175.0" stroke="#0095FF" fill="none" stroke-width="2px" />
<path d="M 344.766666665 155.0 L 354.766666665 155.0" stroke="#FF0000" fill="none" stroke-width="4px" />
<path d="M 354.766666665 155.0 L 364.766666665 155.0" stroke="#FF0000" fill="none" stroke-width="4px" />
<path d="M 364.766666665 155.0 L 374.766666665 155.0" stroke="#FF0000" fill="none" stroke-width="4px" />
<path d="M 374.766666665 155.0 L 384.766666665 155.0" stroke="#FF0000" fill="none" stroke-width="4px" />
<path d="M 384.766666665 155.0 L 384.766666665 145.0" stroke="#FF0000" fill="none" stroke-width="4px" />
<path d="M 384.766666665 145.0 L 374.766666665 145.0" stroke="#FF0000" fill="none" stroke-width="4px" />
<path d="M 374.766666665 145.0 L 364.766666665 145.0" stroke="#FF0000" fill="none" stroke-width="4px" />
<path d="M 364.766666665 145.0 L 354.766666665 145.0" stroke="#FF0000" fill="none" stroke-width="4px" />
<path d="M 354.766666665 145.0 L 354.766666665 135.0" stroke="#FF0000" fill="none" stroke-width="4px" />
<path d="M 354.766666665 135.0 L 344.766666665 135.0" stroke="#FF0000" fill="none" stroke-width="4px" />
<path d="M 344.766666665 135.0 L 344.766666665 125.0" stroke="#FF0000" fill="none" stroke-width="4px" />
<path d="M 344.766666665 125.0 L 334.766666665 125.0" stroke="#FF0000" fill="none" stroke-width="4px" />
<path d="M 334.766666665 125.0 L 334.766666665 115.0" stroke="#FF0000" fill="none" stroke-width="4px" />
<path d="M 334.766666665 115.0 L 344.766666665 115.0" stroke="#FF0000" fill="none" stroke-width="4px" />
<path d="M 344.766666665 115.0 L 354.766666665 115.0" stroke="#FF0000" fill="none" stroke-width="4px" />
<path d="M 354.766666665 115.0 L 364.766666665 115.0" stroke="#FF0000" fill="none" stroke-width="4px" />
<path d="M 364.766666665 115.0 L 374.766666665 115.0" stroke="#FF0000" fill="none" stroke-width="4px" />
<path d="M 374.766666665 115.0 L 384.766666665 115.0" stroke="#FF0000" fill="none" stroke-width="4px" />
<path d="M 384.766666665 115.0 L 394.766666665 115.0" stroke="#FF0000" fill="none" stroke-width="4px" />
<path d="M 394.766666665 115.0 L 404.766666665 115.0" stroke="#FF0000" fill="none" stroke-width="4px" />
<path d="M 404.766666665 115.0 L 414.766666665 115.0" stroke="#FF0000" fill="none" stroke-width="4px" />
<path d="M 414.766666665 115.0 L 424.766666665 115.0" stroke="#FF0000" fill="none" stroke-width="4px" />
<path d="M 424.766666665 115.0 L 424.766666665 125.0" stroke="#FF0000" fill="none" stroke-width="4px" />
<path d="M 424.766666665 125.0 L 414.766666665 125.0" stroke="#FF0000" fill="none" stroke-width="4px" />
<path d="M 414.766666665 125.0 L 404.766666665 125.0" stroke="#FF0000" fill="none" stroke-width="4px" />
<path d="M 404.766666665 125.0 L 394.766666665 125.0" stroke="#FF0000" fill="none" stroke-width="4px" />
<path d="M 394.766666665 125.0 L 384.766666665 125.0" stroke="#FF0000" fill="none" stroke-width="4px" />
<path d="M 384.766666665 125.0 L 374.766666665 125.0" stroke="#FF0000" fill="none" stroke-width="4px" />
<path d="M 374.766666665 125.0 L 364.766666665 125.0" stroke="#FF0000" fill="none" stroke-width="4px" />
<path d="M 364.766666665 125.0 L 354.766666665 125.0" stroke="#FF0000" fill="none" stroke-width="4px" />
<path d="M 354.766666665 125.0 L 364.766666665 135.0" stroke="#FF0000" fill="none" stroke-width="4px" />
<path d="M 364.766666665 135.0 L 374.766666665 135.0" stroke="#FF0000" fill="none" stroke-width="4px" />
<path d="M 374.766666665 135.0 L 384.766666665 135.0" stroke="#FF0000" fill="none" stroke-width="4px" />
<path d="M 384.766666665 135.0 L 394.766666665 135.0" stroke="#FF0000" fill="none" stroke-width="4px" />
<path d="M 394.766666665 135.0 L 404.766666665 135.0" stroke="#FF0000" fill="none" stroke-width="4px" />
<path d="M 404.766666665 135.0 L 414.766666665 135.0" stroke="#FF0000" fill="none" stroke-width="4px" />
<path d="M 414.766666665 135.0 L 424.766666665 135.0" stroke="#FF0000" fill="none" stroke-width="4px" />
<path d="M 424.766666665 135.0 L 414.766666665 145.0" stroke="#FF0000" fill="none" stroke-width="4px" />
<path d="M 414.766666665 145.0 L 404.766666665 145.0" stroke="#FF0000" fill="none" stroke-width="4px" />
<path d="M 404.766666665 145.0 L 394.766666665 145.0" stroke="#FF0000" fill="none" stroke-width="4px" />
<path d="M 374.766666665 165.0 L 364.766666665 165.0" stroke="#FF0000" fill="none" stroke-width="4px" />
<path d="M 364.766666665 165.0 L 354.766666665 165.0" stroke="#FF0000" fill="none" stroke-width="4px" />
<path d="M 354.766666665 165.0 L 364.766666665 175.0" stroke="#FF0000" fill="none" stroke-width="4px" />
<path d="M 364.766666665 105.0 L 354.766666665 105.0" stroke="#FF0000" fill="none" stroke-width="4px" />
<path d="M 354.766666665 105.0 L 344.766666665 105.0" stroke="#FF0000" fill="none" stroke-width="4px" />
<path d="M 344.766666665 105.0 L 334.766666665 105.0" stroke="#FF0000" fill="none" stroke-width="4px" />
<path d="M 334.766666665 105.0 L 324.766666665 105.0" stroke="#FF0000" fill="none" stroke-width="4px" />
<path d="M 324.766666665 105.0 L 334.766666665 95.0" stroke="#FF0000" fill="none" stroke-width="4px" />
<path d="M 334.766666665 95.0 L 344.766666665 95.0" stroke="#FF0000" fill="none" stroke-width="4px" />
<path d="M 344.766666665 95.0 L 354.766666665 95.0" stroke="#FF0000" fill="none" stroke-width="4px" />
<path d="M 354.766666665 95.0 L 344.766666665 85.0" stroke="#FF0000" fill="none" stroke-width="4px" />
<path d="M 374.766666665 95.0 L 384.766666665 95.0" stroke="#FF0000" fill="none" stroke-width="4px" />
<path d="M 384.766666665 95.0 L 394.766666665 95.0" stroke="#FF0000" fill="none" stroke-width="4px" />
<path d="M 394.766666665 95.0 L 404.766666665 95.0" stroke="#FF0000" fill="none" stroke-width="4px" />
<path d="M 404.766666665 95.0 L 414.766666665 95.0" stroke="#FF0000" fill="none" stroke-width="4px" />
<path d="M 414.766666665 95.0 L 414.766666665 105.0" stroke="#FF0000" fill="none" stroke-width="4px" />
<path d="M 414.766666665 105.0 L 404.766666665 105.0" stroke="#FF0000" fill="none" stroke-width="4px" />
<path d="M 404.766666665 105.0 L 394.766666665 105.0" stroke="#FF0000" fill="none" stroke-width="4px" />
<path d="M 394.766666665 105.0 L 384.766666665 105.0" stroke="#FF0000" fill="none" stroke-width="4px" />
<path d="M 384.766666665 105.0 L 374.766666665 105.0" stroke="#FF0000" fill="none" stroke-width="4px" />
<path d="M 384.766666665 85.0 L 394.766666665 85.0" stroke="#FF0000" fill="none" stroke-width="4px" />
<path d="M 394.766666665 85.0 L 404.766666665 85.0" stroke="#FF0000" fill="none" stroke-width="4px" />
<path d="M 394.766666665 35.0 L 384.766666665 35.0" stroke="#FF0000" fill="none" stroke-width="4px" />
<path d="M 384.766666665 35.0 L 384.766666665 25.0" stroke="#FF0000" fill="none" stroke-width="4px" />
<path d="M 384.766666665 25.0 L 374.766666665 25.0" stroke="#FF0000" fill="none" stroke-width="4px" />
<path d="M 374.766666665 25.0 L 374.766666665 15.0" stroke="#FF0000" fill="none" stroke-width="4px" />
<path d="M 374.766666665 15.0 L 384.766666665 15.0" stroke="#FF0000" fill="none" stroke-width="4px" />
<path d="M 384.766666665 15.0 L 394.766666665 15.0" stroke="#FF0000" fill="none" stroke-width="4px" />
<path d="M 394.766666665 15.0 L 404.766666665 15.0" stroke="#FF0000" fill="none" stroke-width="4px" />
<path d="M 404.766666665 15.0 L 414.766666665 15.0" stroke="#FF0000" fill="none" stroke-width="4px" />
<path d="M 414.766666665 15.0 L 414.766666665 5.0" stroke="#FF0000" fill="none" stroke-width="4px" />
<path d="M 414.766666665 5.0 L 404.766666665 5.0" stroke="#FF0000" fill="none" stroke-width="4px" />
<path d="M 404.766666665 5.0 L 394.766666665 5.0" stroke="#FF0000" fill="none" stroke-width="4px" />
<path d="M 394.766666665 5.0 L 384.766666665 5.0" stroke="#FF0000" fill="none" stroke-width="4px" />
<path d="M 384.766666665 5.0 L 374.766666665 5.0" stroke="#FF0000" fill="none" stroke-width="4px" />
<path d="M 374.766666665 5.0 L 374.766666665 -5.0" stroke="#FF0000" fill="none" stroke-width="4px" />
<path d="M 374.766666665 -5.0 L 384.766666665 -5.0" stroke="#FF0000" fill="none" stroke-width="4px" />
<path d="M 384.766666665 -5.0 L 394.766666665 -5.0" stroke="#FF0000" fill="none" stroke-width="4px" />
<path d="M 394.766666665 -5.0 L 404.766666665 -5.0" stroke="#FF0000" fill="none" stroke-width="4px" />
<path d="M 404.766666665 -5.0 L 414.766666665 -5.0" stroke="#FF0000" fill="none" stroke-width="4px" />
<path d="M 404.766666665 25.0 L 394.766666665 25.0" stroke="#FF0000" fill="none" stroke-width="4px" />
<path d="M 594.766666665 65.0 L 604.766666665 65.0" stroke="#FF0000" fill="none" stroke-width="4px" />
<path d="M 604.766666665 65.0 L 614.766666665 65.0" stroke="#FF0000" fill="none" stroke-width="4px" />
<path d="M 614.766666665 65.0 L 624.766666665 65.0" stroke="#FF0000" fill="none" stroke-width="4px" />
<path d="M 624.766666665 65.0 L 634.766666665 65.0" stroke="#FF0000" fill="none" stroke-width="4px" />
<path d="M 634.766666665 65.0 L 644.766666665 65.0" stroke="#FF0000" fill="none" stroke-width="4px" />
<path d="M 644.766666665 65.0 L 654.766666665 65.0" stroke="#FF0000" fill="none" stroke-width="4px" />
<path d="M 654.766666665 65.0 L 654.766666665 75.0" stroke="#FF0000" fill="none" stroke-width="4px" />
<path d="M 654.766666665 75.0 L 644.766666665 75.0" stroke="#FF0000" fill="none" stroke-width="4px" />
<path d="M 644.766666665 75.0 L 634.766666665 75.0" stroke="#FF0000" fill="none" stroke-width="4px" />
<path d="M 634.766666665 75.0 L 624.766666665 75.0" stroke="#FF0000" fill="none" stroke-width="4px" />
<path d="M 624.766666665 75.0 L 614.766666665 75.0" stroke="#FF0000" fill="none" stroke-width="4px" />
<path d="M 614.766666665 75.0 L 604.766666665 75.0" stroke="#FF0000" fill="none" stroke-width="4px" />
<path d="M 604.766666665 75.0 L 594.766666665 75.0" stroke="#FF0000" fill="none" stroke-width="4px" />
<path d="M 594.766666665 75.0 L 594.766666665 85.0" stroke="#FF0000" fill="none" stroke-width="4px" />
<path d="M 594.766666665 85.0 L 604.766666665 85.0" stroke="#FF0000" fill="none" stroke-width="4px" />
<path d="M 604.766666665 85.0 L 614.766666665 85.0" stroke="#FF0000" fill="none" stroke-width="4px" />
<path d="M 614.766666665 85.0 L 624.766666665 85.0" stroke="#FF0000" fill="none" stroke-width="4px" />
<path d="M 624.766666665 85.0 L 634.766666665 85.0" stroke="#FF0000" fill="none" stroke-width="4px" />
<path d="M 634.766666665 85.0 L 644.766666665 85.0" stroke="#FF0000" fill="none" stroke-width="4px" />
<path d="M 644.766666665 85.0 L 654.766666665 85.0" stroke="#FF0000" fill="none" stroke-width="4px" />
<path d="M 654.766666665 85.0 L 644.766666665 95.0" stroke="#FF0000" fill="none" stroke-width="4px" />
<path d="M 644.766666665 95.0 L 634.766666665 95.0" stroke="#FF0000" fill="none" stroke-width="4px" />
<path d="M 634.766666665 95.0 L 624.766666665 95.0" stroke="#FF0000" fill="none" stroke-width="4px" />
<path d="M 624.766666665 95.0 L 614.766666665 95.0" stroke="#FF0000" fill="none" stroke-width="4px" />
<path d="M 614.766666665 95.0 L 604.766666665 95.0" stroke="#FF0000" fill="none" stroke-width="4px" />
<path d="M 604.766666665 95.0 L 614.766666665 105.0" stroke="#FF0000" fill="none" stroke-width="4px" />
<path d="M 614.766666665 105.0 L 624.766666665 105.0" stroke="#FF0000" fill="none" stroke-width="4px" />
<path d="M 624.766666665 105.0 L 634.766666665 105.0" stroke="#FF0000" fill="none" stroke-width="4px" />
<path d="M 684.766666665 125.0 L 694.766666665 125.0" stroke="#FF0000" fill="none" stroke-width="4px" />
<path d="M 694.766666665 125.0 L 704.766666665 125.0" stroke="#FF0000" fill="none" stroke-width="4px" />
<path d="M 704.766666665 125.0 L 714.766666665 125.0" stroke="#FF0000" fill="none" stroke-width="4px" />
<path d="M 714.766666665 125.0 L 714.766666665 135.0" stroke="#FF0000" fill="none" stroke-width="4px" />
<path d="M 714.766666665 135.0 L 704.766666665 135.0" stroke="#FF0000" fill="none" stroke-width="4px" />
<path d="M 704.766666665 135.0 L 694.766666665 135.0" stroke="#FF0000" fill="none" stroke-width="4px" />
<path d="M 694.766666665 135.0 L 684.766666665 135.0" stroke="#FF0000" fill="none" stroke-width="4px" />
<path d="M 684.766666665 135.0 L 684.766666665 145.0" stroke="#FF0000" fill="none" stroke-width="4px" />
<path d="M 684.766666665 145.0 L 694.766666665 145.0" stroke="#FF0000" fill="none" stroke-width="4px" />
<path d="M 694.766666665 145.0 L 704.766666665 145.0" stroke="#FF0000" fill="none" stroke-width="4px" />
<path d="M 704.766666665 145.0 L 714.766666665 145.0" stroke="#FF0000" fill="none" stroke-width="4px" />
<path d="M 714.766666665 145.0 L 724.766666665 145.0" stroke="#FF0000" fill="none" stroke-width="4px" />
<path d="M 724.766666665 145.0 L 734.766666665 145.0" stroke="#FF0000" fill="none" stroke-width="4px" />
<path d="M 734.766666665 145.0 L 744.766666665 145.0" stroke="#FF0000" fill="none" stroke-width="4px" />
<path d="M 744.766666665 145.0 L 754.766666665 145.0" stroke="#FF0000" fill="none" stroke-width="4px" />
<path d="M 754.766666665 145.0 L 754.766666665 155.0" stroke="#FF0000" fill="none" stroke-width="4px" />
<path d="M 754.766666665 155.0 L 744.766666665 155.0" stroke="#FF0000" fill="none" stroke-width="4px" />
<path d="M 744.766666665 155.0 L 734.766666665 155.0" stroke="#FF0000" fill="none" stroke-width="4px" />
<path d="M 734.766666665 155.0 L 724.766666665 155.0" stroke="#FF0000" fill="none" stroke-width="4px" />
<path d="M 724.766666665 155.0 L 714.766666665 155.0" stroke="#FF0000" fill="none" stroke-width="4px" />
<path d="M 714.766666665 155.0 L 704.766666665 155.0" stroke="#FF0000" fill="none" stroke-width="4px" />
<path d="M 704.766666665 155.0 L 694.766666665 155.0" stroke="#FF0000" fill="none" stroke-width="4px" />
<path d="M 694.766666665 155.0 L 704.766666665 165.0" stroke="#FF0000" fill="none" stroke-width="4px" />
<path d="M 704.766666665 165.0 L 714.766666665 165.0" stroke="#FF0000" fill="none" stroke-width="4px" />
<path d="M 714.766666665 165.0 L 724.766666665 165.0" stroke="#FF0000" fill="none" stroke-width="4px" />
<path d="M 724.766666665 165.0 L 734.766666665 165.0" stroke="#FF0000" fill="none" stroke-width="4px" />
<path d="M 734.766666665 165.0 L 744.766666665 165.0" stroke="#FF0000" fill="none" stroke-width="4px" />
<path d="M 744.766666665 165.0 L 754.766666665 165.0" stroke="#FF0000" fill="none" stroke-width="4px" />
<path d="M 754.766666665 165.0 L 764.766666665 165.0" stroke="#FF0000" fill="none" stroke-width="4px" />
<path d="M 764.766666665 165.0 L 764.766666665 175.0" stroke="#FF0000" fill="none" stroke-width="4px" />
<path d="M 764.766666665 175.0 L 754.766666665 175.0" stroke="#FF0000" fill="none" stroke-width="4px" />
<path d="M 754.766666665 175.0 L 744.766666665 175.0" stroke="#FF0000" fill="none" stroke-width="4px" />
<path d="M 744.766666665 175.0 L 734.766666665 175.0" stroke="#FF0000" fill="none" stroke-width="4px" />
<path d="M 734.766666665 175.0 L 724.766666665 175.0" stroke="#FF0000" fill="none" stroke-width="4px" />
<path d="M 724.766666665 175.0 L 734.766666665 185.0" stroke="#FF0000" fill="none" stroke-width="4px" />
<path d="M 734.766666665 185.0 L 744.766666665 185.0" stroke="#FF0000" fill="none" stroke-width="4px" />
<path d="M 744.766666665 185.0 L 754.766666665 185.0" stroke="#FF0000" fill="none" stroke-width="4px" />
<path d="M 754.766666665 185.0 L 744.766666665 195.0" stroke="#FF0000" fill="none" stroke-width="4px" />
<path d="M 784.766666665 195.0 L 794.766666665 195.0" stroke="#FF0000" fill="none" stroke-width="4px" />
<path d="M 794.766666665 195.0 L 804.766666665 195.0" stroke="#FF0000" fill="none" stroke-width="4px" />
<path d="M 804.766666665 195.0 L 814.766666665 195.0" stroke="#FF0000" fill="none" stroke-width="4px" />
<path d="M 814.766666665 195.0 L 824.766666665 195.0" stroke="#FF0000" fill="none" stroke-width="4px" />
<path d="M 824.766666665 195.0 L 834.766666665 195.0" stroke="#FF0000" fill="none" stroke-width="4px" />
<path d="M 834.766666665 195.0 L 844.766666665 195.0" stroke="#FF0000" fill="none" stroke-width="4px" />
<path d="M 844.766666665 195.0 L 854.766666665 195.0" stroke="#FF0000" fill="none" stroke-width="4px" />
<path d="M 854.766666665 195.0 L 864.766666665 195.0" stroke="#FF0000" fill="none" stroke-width="4px" />
<path d="M 864.766666665 195.0 L 874.766666665 195.0" stroke="#FF0000" fill="none" stroke-width="4px" />
<path d="M 874.766666665 195.0 L 884.766666665 195.0" stroke="#FF0000" fill="none" stroke-width="4px" />
<path d="M 884.766666665 195.0 L 894.766666665 195.0" stroke="#FF0000" fill="none" stroke-width="4px" />
<path d="M 894.766666665 195.0 L 884.766666665 205.0" stroke="#FF0000" fill="none" stroke-width="4px" />
<path d="M 884.766666665 205.0 L 874.766666665 205.0" stroke="#FF0000" fill="none" stroke-width="4px" />
<path d="M 874.766666665 205.0 L 864.766666665 205.0" stroke="#FF0000" fill="none" stroke-width="4px" />
<path d="M 864.766666665 205.0 L 854.766666665 205.0" stroke="#FF0000" fill="none" stroke-width="4px" />
<path d="M 854.766666665 205.0 L 844.766666665 205.0" stroke="#FF0000" fill="none" stroke-width="4px" />
<path d="M 844.766666665 205.0 L 834.766666665 205.0" stroke="#FF0000" fill="none" stroke-width="4px" />
<path d="M 834.766666665 205.0 L 824.766666665 205.0" stroke="#FF0000" fill="none" stroke-width="4px" />
<path d="M 824.766666665 205.0 L 814.766666665 205.0" stroke="#FF0000" fill="none" stroke-width="4px" />
<path d="M 814.766666665 205.0 L 804.766666665 205.0" stroke="#FF0000" fill="none" stroke-width="4px" />
<path d="M 804.766666665 205.0 L 794.766666665 205.0" stroke="#FF0000" fill="none" stroke-width="4px" />
<path d="M 794.766666665 205.0 L 804.766666665 215.0" stroke="#FF0000" fill="none" stroke-width="4px" />
<path d="M 804.766666665 215.0 L 814.766666665 215.0" stroke="#FF0000" fill="none" stroke-width="4px" />
<path d="M 844.766666665 215.0 L 854.766666665 215.0" stroke="#FF0000" fill="none" stroke-width="4px" />
<path d="M 854.766666665 215.0 L 864.766666665 215.0" stroke="#FF0000" fill="none" stroke-width="4px" />
<path d="M 864.766666665 215.0 L 874.766666665 215.0" stroke="#FF0000" fill="none" stroke-width="4px" />
<path d="M 874.766666665 185.0 L 864.766666665 185.0" stroke="#FF0000" fill="none" stroke-width="4px" />
<path d="M 864.766666665 185.0 L 854.766666665 185.0" stroke="#FF0000" fill="none" stroke-width="4px" />
<path d="M 854.766666665 185.0 L 844.766666665 185.0" stroke="#FF0000" fill="none" stroke-width="4px" />
<path d="M 844.766666665 185.0 L 834.766666665 185.0" stroke="#FF0000" fill="none" stroke-width="4px" />
<path d="M 834.766666665 185.0 L 824.766666665 185.0" stroke="#FF0000" fill="none" stroke-width="4px" />
<path d="M 824.766666665 185.0 L 814.766666665 185.0" stroke="#FF0000" fill="none" stroke-width="4px" />
<path d="M 814.766666665 185.0 L 804.766666665 185.0" stroke="#FF0000" fill="none" stroke-width="4px" />
<path d="M 804.766666665 185.0 L 794.766666665 185.0" stroke="#FF0000" fill="none" stroke-width="4px" />
<path d="M 794.766666665 185.0 L 784.766666665 185.0" stroke="#FF0000" fill="none" stroke-width="4px" />
<path d="M 784.766666665 185.0 L 794.766666665 175.0" stroke="#FF0000" fill="none" stroke-width="4px" />
<path d="M 794.766666665 175.0 L 804.766666665 175.0" stroke="#FF0000" fill="none" stroke-width="4px" />
<path d="M 804.766666665 175.0 L 814.766666665 175.0" stroke="#FF0000" fill="none" stroke-width="4px" />
<path d="M 814.766666665 175.0 L 824.766666665 175.0" stroke="#FF0000" fill="none" stroke-width="4px" />
<path d="M 824.766666665 175.0 L 834.766666665 175.0" stroke="#FF0000" fill="none" stroke-width="4px" />
<path d="M 834.766666665 175.0 L 844.766666665 175.0" stroke="#FF0000" fill="none" stroke-width="4px" />
<path d="M 844.766666665 175.0 L 854.766666665 175.0" stroke="#FF0000" fill="none" stroke-width="4px" />
<path d="M 854.766666665 175.0 L 864.766666665 175.0" stroke="#FF0000" fill="none" stroke-width="4px" />
<path d="M 864.766666665 175.0 L 874.766666665 175.0" stroke="#FF0000" fill="none" stroke-width="4px" />
<path d="M 874.766666665 175.0 L 884.766666665 185.0" stroke="#FF0000" fill="none" stroke-width="4px" />
<path d="M 864.766666665 165.0 L 854.766666665 165.0" stroke="#FF0000" fill="none" stroke-width="4px" />
<path d="M 854.766666665 165.0 L 844.766666665 165.0" stroke="#FF0000" fill="none" stroke-width="4px" />
<path d="M 824.766666665 155.0 L 814.766666665 155.0" stroke="#FF0000" fill="none" stroke-width="4px" />
<path d="M 814.766666665 155.0 L 804.766666665 155.0" stroke="#FF0000" fill="none" stroke-width="4px" />
<path d="M 804.766666665 155.0 L 794.766666665 155.0" stroke="#FF0000" fill="none" stroke-width="4px" />
<path d="M 794.766666665 155.0 L 784.766666665 155.0" stroke="#FF0000" fill="none" stroke-width="4px" />
<path d="M 784.766666665 155.0 L 784.766666665 145.0" stroke="#FF0000" fill="none" stroke-width="4px" />
<path d="M 784.766666665 145.0 L 774.766666665 145.0" stroke="#FF0000" fill="none" stroke-width="4px" />
<path d="M 774.766666665 145.0 L 774.766666665 135.0" stroke="#FF0000" fill="none" stroke-width="4px" />
<path d="M 774.766666665 135.0 L 784.766666665 135.0" stroke="#FF0000" fill="none" stroke-width="4px" />
<path d="M 784.766666665 135.0 L 794.766666665 135.0" stroke="#FF0000" fill="none" stroke-width="4px" />
<path d="M 794.766666665 135.0 L 804.766666665 135.0" stroke="#FF0000" fill="none" stroke-width="4px" />
<path d="M 804.766666665 135.0 L 814.766666665 135.0" stroke="#FF0000" fill="none" stroke-width="4px" />
<path d="M 814.766666665 135.0 L 824.766666665 135.0" stroke="#FF0000" fill="none" stroke-width="4px" />
<path d="M 824.766666665 135.0 L 834.766666665 135.0" stroke="#FF0000" fill="none" stroke-width="4px" />
<path d="M 834.766666665 135.0 L 834.766666665 145.0" stroke="#FF0000" fill="none" stroke-width="4px" />
<path d="M 834.766666665 145.0 L 824.766666665 145.0" stroke="#FF0000" fill="none" stroke-width="4px" />
<path d="M 824.766666665 145.0 L 814.766666665 145.0" stroke="#FF0000" fill="none" stroke-width="4px" />
<path d="M 814.766666665 145.0 L 804.766666665 145.0" stroke="#FF0000" fill="none" stroke-width="4px" />
<path d="M 804.766666665 145.0 L 794.766666665 145.0" stroke="#FF0000" fill="none" stroke-width="4px" />
<path d="M 794.766666665 165.0 L 804.766666665 165.0" stroke="#FF0000" fill="none" stroke-width="4px" />
<path d="M 804.766666665 165.0 L 814.766666665 165.0" stroke="#FF0000" fill="none" stroke-width="4px" />
<path d="M 774.766666665 125.0 L 784.766666665 125.0" stroke="#FF0000" fill="none" stroke-width="4px" />
<path d="M 784.766666665 125.0 L 794.766666665 125.0" stroke="#FF0000" fill="none" stroke-width="4px" />
<path d="M 794.766666665 125.0 L 804.766666665 125.0" stroke="#FF0000" fill="none" stroke-width="4px" />
<path d="M 804.766666665 125.0 L 814.766666665 125.0" stroke="#FF0000" fill="none" stroke-width="4px" />
<path d="M 814.766666665 125.0 L 824.766666665 125.0" stroke="#FF0000" fill="none" stroke-width="4px" />
<path d="M 824.766666665 125.0 L 814.766666665 115.0" stroke="#FF0000" fill="none" stroke-width="4px" />
<path d="M 814.766666665 115.0 L 804.766666665 115.0" stroke="#FF0000" fill="none" stroke-width="4px" />
<path d="M 804.766666665 115.0 L 794.766666665 115.0" stroke="#FF0000" fill="none" stroke-width="4px" />
<path d="M 794.766666665 115.0 L 784.766666665 115.0" stroke="#FF0000" fill="none" stroke-width="4px" />
<path d="M 784.766666665 115.0 L 774.766666665 115.0" stroke="#FF0000" fill="none" stroke-width="4px" />
<path d="M 774.766666665 115.0 L 784.766666665 105.0" stroke="#FF0000" fill="none" stroke-width="4px" />
<path d="M 784.766666665 105.0 L 794.766666665 105.0" stroke="#FF0000" fill="none" stroke-width="4px" />
<path d="M 794.766666665 105.0 L 804.766666665 105.0" stroke="#FF0000" fill="none" stroke-width="4px" />
<path d="M 704.766666665 115.0 L 694.766666665 115.0" stroke="#FF0000" fill="none" stroke-width="4px" />
<path d="M 644.766666665 55.0 L 634.766666665 55.0" stroke="#FF0000" fill="none" stroke-width="4px" />
<path d="M 634.766666665 55.0 L 624.766666665 55.0" stroke="#FF0000" fill="none" stroke-width="4px" />
<path d="M 624.766666665 55.0 L 614.766666665 55.0" stroke="#FF0000" fill="none" stroke-width="4px" />
<path d="M 614.766666665 55.0 L 604.766666665 55.0" stroke="#FF0000" fill="none" stroke-width="4px" />
<path d="M 604.766666665 55.0 L 614.766666665 45.0" stroke="#FF0000" fill="none" stroke-width="4px" />
<path d="M 614.766666665 45.0 L 624.766666665 45.0" stroke="#FF0000" fill="none" stroke-width="4px" />
<path d="M 624.766666665 45.0 L 634.766666665 45.0" stroke="#FF0000" fill="none" stroke-width="4px" />
<path d="M 1554.76666667 185.0 L 1564.76666667 185.0" stroke="#FF0000" fill="none" stroke-width="4px" />
<path d="M 1564.76666667 185.0 L 1574.76666667 185.0" stroke="#FF0000" fill="none" stroke-width="4px" />
<path d="M 1574.76666667 185.0 L 1584.76666667 185.0" stroke="#FF0000" fill="none" stroke-width="4px" />
<path d="M 1584.76666667 185.0 L 1594.76666667 185.0" stroke="#FF0000" fill="none" stroke-width="4px" />
<path d="M 1594.76666667 185.0 L 1604.76666667 185.0" stroke="#FF0000" fill="none" stroke-width="4px" />
<path d="M 1604.76666667 185.0 L 1604.76666667 195.0" stroke="#FF0000" fill="none" stroke-width="4px" />
<path d="M 1604.76666667 195.0 L 1594.76666667 195.0" stroke="#FF0000" fill="none" stroke-width="4px" />
<path d="M 1594.76666667 195.0 L 1584.76666667 195.0" stroke="#FF0000" fill="none" stroke-width="4px" />
<path d="M 1584.76666667 195.0 L 1574.76666667 195.0" stroke="#FF0000" fill="none" stroke-width="4px" />
<path d="M 1574.76666667 195.0 L 1564.76666667 195.0" stroke="#FF0000" fill="none" stroke-width="4px" />
<path d="M 1564.76666667 195.0 L 1554.76666667 195.0" stroke="#FF0000" fill="none" stroke-width="4px" />
<path d="M 1554.76666667 195.0 L 1564.76666667 205.0" stroke="#FF0000" fill="none" stroke-width="4px" />
<path d="M 1564.76666667 205.0 L 1574.76666667 205.0" stroke="#FF0000" fill="none" stroke-width="4px" />
<path d="M 1574.76666667 205.0 L 1584.76666667 205.0" stroke="#FF0000" fill="none" stroke-width="4px" />
<path d="M 1584.76666667 205.0 L 1594.76666667 205.0" stroke="#FF0000" fill="none" stroke-width="4px" />
<path d="M 1594.76666667 205.0 L 1604.76666667 205.0" stroke="#FF0000" fill="none" stroke-width="4px" />
<path d="M 1604.76666667 205.0 L 1594.76666667 215.0" stroke="#FF0000" fill="none" stroke-width="4px" />
<path d="M 1594.76666667 215.0 L 1584.76666667 215.0" stroke="#FF0000" fill="none" stroke-width="4px" />
<path d="M 1584.76666667 215.0 L 1574.76666667 215.0" stroke="#FF0000" fill="none" stroke-width="4px" />
<path d="M 1574.76666667 215.0 L 1584.76666667 225.0" stroke="#FF0000" fill="none" stroke-width="4px" />
<path d="M 1584.76666667 175.0 L 1574.76666667 175.0" stroke="#FF0000" fill="none" stroke-width="4px" />
<path d="M 1574.76666667 175.0 L 1564.76666667 175.0" stroke="#FF0000" fill="none" stroke-width="4px" />
<path d="M 1564.76666667 175.0 L 1574.76666667 165.0" stroke="#FF0000" fill="none" stroke-width="4px" />
</svg>