<svg width="2523.06666667" height="235.0" xmlns="http://www.w3.org/2000/svg" version="1.1">
<path d="M 0.0 235.0 L 1865.0 235.0 L 1865.0 0.0 L 0.0 0.0 L 0.0 235.0" stroke="#000000" fill="none" stroke-width="3px" />
<path d="M 2523.06666667 235.0 L 1765.0 235.0 L 1765.0 0.0 L 2523.06666667 0.0 L 2523.06666667 235.0" stroke="#000000" fill="none" stroke-width="3px" />
<path d="M 10.0 257.5 L 0.0 247.5 L 10.0 237.5" stroke="#969696" fill="none" stroke-width="1px" />
<path d="M 10.0 237.5 L 1855.0 237.5" stroke="#969696" fill="none" stroke-width="1px" />
<path d="M 1855.0 237.5 L 1865.0 227.5 L 1855.0 217.5" stroke="#969696" fill="none" stroke-width="1px" />
<path d="M 1855.0 217.5 L 10.0 217.5" stroke="#969696" fill="none" stroke-width="1px" />
<path d="M 10.0 217.5 L 0.0 207.5 L 10.0 197.5" stroke="#969696" fill="none" stroke-width="1px" />
<path d="M 10.0 197.5 L 1855.0 197.5" stroke="#969696" fill="none" stroke-width="1px" />
<path d="M 1855.0 197.5 L 1865.0 187.5 L 1855.0 177.5" stroke="#969696" fill="none" stroke-width="1px" />
<path d="M 1855.0 177.5 L 10.0 177.5" stroke="#969696" fill="none" stroke-width="1px" />
<path d="M 10.0 177.5 L 0.0 167.5 L 10.0 157.5" stroke="#969696" fill="none" stroke-width="1px" />
<path d="M 10.0 157.5 L 1855.0 157.5" stroke="#969696" fill="none" stroke-width="1px" />
<path d="M 1855.0 157.5 L 1865.0 147.5 L 1855.0 137.5" stroke="#969696" fill="none" stroke-width="1px" />
<path d="M 1855.0 137.5 L 10.0 137.5" stroke="#969696" fill="none" stroke-width="1px" />
<path d="M 10.0 137.5 L 0.0 127.5 L 10.0 117.5" stroke="#969696" fill="none" stroke-width="1px" />
<path d="M 10.0 117.5 L 1855.0 117.5" stroke="#969696" fill="none" stroke-width="1px" />
<path d="M 1855.0 117.5 L 1865.0 107.5 L 1855.0 97.5" stroke="#969696" fill="none" stroke-width="1px" />
<path d="M 1855.0 97.5 L 10.0 97.5" stroke="#969696" fill="none" stroke-width="1px" />
<path d="M 10.0 97.5 L 0.0 87.5 L 10.0 77.5" stroke="#969696" fill="none" stroke-width="1px" />
<path d="M 10.0 77.5 L 1855.0 77.5" stroke="#969696" fill="none" stroke-width="1px" />
<path d="M 1855.0 77.5 L 1865.0 67.5 L 1855.0 57.5" stroke="#969696" fill="none" stroke-width="1px" />
<path d="M 1855.0 57.5 L 10.0 57.5" stroke="#969696" fill="none" stroke-width="1px" />
<path d="M 10.0 57.5 L 0.0 47.5 L 10.0 37.5" stroke="#969696" fill="none" stroke-width="1px" />
<path d="M 10.0 37.5 L 1855.0 37.5" stroke="#969696" fill="none" stroke-width="1px" />
<path d="M 1855.0 37.5 L 1865.0 27.5 L 1855.0 17.5" stroke="#969696" fill="none" stroke-width="1px" />
<path d="M 1855.0 17.5 L 10.0 17.5" stroke="#969696" fill="none" stroke-width="1px" />
<path d="M 10.0 17.5 L 0.0 7.5 L 10.0 -2.5" stroke="#969696" fill="none" stroke-width="1px" />
<path d="M 10.0 -2.5 L 1855.0 -2.5" stroke="#969696" fill="none" stroke-width="1px" />
<path d="M 1855.0 -2.5 L 1865.0 -12.5 L 1855.0 -22.5" stroke="#969696" fill="none" stroke-width="1px" />
<path d="M 2513.06666667 257.5 L 2523.06666667 247.5 L 2513.06666667 237.5" stroke="#969696" fill="none" stroke-width="1px" />
<path d="M 2513.06666667 237.5 L 1775.0 237.5" stroke="#969696" fill="none" stroke-width="1px" />
<path d="M 1775.0 237.5 L 1765.0 227.5 L 1775.0 217.5" stroke="#969696" fill="none" stroke-width="1px" />
<path d="M 1775.0 217.5 L 2513.06666667 217.5" stroke="#969696" fill="none" stroke-width="1px" />
<path d="M 2513.06666667 217.5 L 2523.06666667 207.5 L 2513.06666667 197.5" stroke="#969696" fill="none" stroke-width="1px" />
<path d="M 2513.06666667 197.5 L 1775.0 197.5" stroke="#969696" fill="none" stroke-width="1px" />
<path d="M 1775.0 197.5 L 1765.0 187.5 L 1775.0 177.5" stroke="#969696" fill="none" stroke-width="1px" />
<path d="M 1775.0 177.5 L 2513.06666667 177.5" stroke="#969696" fill="none" stroke-width="1px" />
<path d="M 2513.06666667 177.5 L 2523.06666667 167.5 L 2513.06666667 157.5" stroke="#969696" fill="none" stroke-width="1px" />
<path d="M 2513.06666667 157.5 L 1775.0 157.5" stroke="#969696" fill="none" stroke-width="1px" />
<path d="M 1775.0 157.5 L 1765.0 147.5 L 1775.0 137.5" stroke="#969696" fill="none" stroke-width="1px" />
<path d="M 1775.0 137.5 L 2513.06666667 137.5" stroke="#969696" fill="none" stroke-width="1px" />
<path d="M 2513.06666667 137.5 L 2523.06666667 127.5 L 2513.06666667 117.5" stroke="#969696" fill="none" stroke-width="1px" />
<path d="M 2513.06666667 117.5 L 1775.0 117.5" stroke="#969696" fill="none" stroke-width="1px" />
<path d="M 1775.0 117.5 L 1765.0 107.5 L 1775.0 97.5" stroke="#969696" fill="none" stroke-width="1px" />
<path d="M 1775.0 97.5 L 2513.06666667 97.5" stroke="#969696" fill="none" stroke-width="1px" />
<path d="M 2513.06666667 97.5 L 2523.06666667 87.5 L 2513.06666667 77.5" stroke="#969696" fill="none" stroke-width="1px" />
<path d="M 2513.06666667 77.5 L 1775.0 77.5" stroke="#969696" fill="none" stroke-width="1px" />
<path d="M 1775.0 77.5 L 1765.0 67.5 L 1775.0 57.5" stroke="#969696" fill="none" stroke-width="1px" />
<path d="M 1775.0 57.5 L 2513.06666667 57.5" stroke="#969696" fill="none" stroke-width="1px" />
<path d="M 2513.06666667 57.5 L 2523.06666667 47.5 L 2513.06666667 37.5" stroke="#969696" fill="none" stroke-width="1px" />
<path d="M 2513.06666667 37.5 L 1775.0 37.5" stroke="#969696" fill="none" stroke-width="1px" />
<path d="M 1775.0 37.5 L 1765.0 27.5 L 1775.0 17.5" stroke="#969696" fill="none" stroke-width="1px" />
<path d="M 1775.0 17.5 L 2513.06666667 17.5" stroke="#969696" fill="none" stroke-width="1px" />
<path d="M 2513.06666667 17.5 L 2523.06666667 7.5 L 2513.06666667 -2.5" stroke="#969696" fill="none" stroke-width="1px" />
<path d="M 2513.06666667 -2.5 L 1775.0 -2.5" stroke="#969696" fill="none" stroke-width="1px" />
<path d="M 1775.0 -2.5 L 1765.0 -12.5 L 1775.0 -22.5" stroke="#969696" fill="none" stroke-width="1px" />
<path d="M 0.0 235.0 L 340.0 85.0" stroke="#0095FF" fill="none" stroke-width="2px" />
<path d="M 350.0 55.0 L 350.0 95.0" stroke="#0095FF" fill="none" stroke-width="2px" />
<path d="M 360.0 105.0 L 430.0 55.0" stroke="#0095FF" fill="none" stroke-width="2px" />
<path d="M 430.0 35.0 L 430.0 15.0" stroke="#0095FF" fill="none" stroke-width="2px" />
<path d="M 440.0 15.0 L 440.0 -5.0" stroke="#0095FF" fill="none" stroke-width="2px" />
<path d="M 420.0 -5.0 L 450.0 -5.0" stroke="#0095FF" fill="none" stroke-width="2px" />
<path d="M 470.0 -5.0 L 500.0 35.0" stroke="#0095FF" fill="none" stroke-width="2px" />
<path d="M 490.0 45.0 L 470.0 65.0" stroke="#0095FF" fill="none" stroke-width="2px" />
<path d="M 470.0 65.0 L 740.0 145.0" stroke="#0095FF" fill="none" stroke-width="2px" />
<path d="M 760.0 205.0 L 760.0 165.0" stroke="#0095FF" fill="none" stroke-width="2px" />
<path d="M 850.0 155.0 L 830.0 135.0" stroke="#0095FF" fill="none" stroke-width="2px" />
<path d="M 800.0 105.0 L 1080.0 55.0" stroke="#0095FF" fill="none" stroke-width="2px" />
<path d="M 1200.0 115.0 L 1200.0 85.0" stroke="#0095FF" fill="none" stroke-width="2px" />
<path d="M 1210.0 85.0 L 1210.0 65.0" stroke="#0095FF" fill="none" stroke-width="2px" />
<path d="M 1170.0 65.0 L 1190.0 55.0" stroke="#0095FF" fill="none" stroke-width="2px" />
<path d="M 1220.0 35.0 L 1220.0 65.0" stroke="#0095FF" fill="none" stroke-width="2px" />
<path d="M 1220.0 65.0 L 1150.0 105.0" stroke="#0095FF" fill="none" stroke-width="2px" />
<path d="M 1140.0 115.0 L 1130.0 45.0" stroke="#0095FF" fill="none" stroke-width="2px" />
<path d="M 1120.0 35.0 L 1500.0 105.0" stroke="#0095FF" fill="none" stroke-width="2px" />
<path d="M 1590.0 115.0 L 1580.0 135.0" stroke="#0095FF" fill="none" stroke-width="2px" />
<path d="M 1510.0 135.0 L 1530.0 145.0" stroke="#0095FF" fill="none" stroke-width="2px" />
<path d="M 1570.0 145.0 L 1570.0 95.0" stroke="#0095FF" fill="none" stroke-width="2px" />
<path d="M 2523.06666667 235.0 L 2280.0 105.0" stroke="#0095FF" fill="none" stroke-width="2px" />
<path d="M 2250.0 75.0 L 2250.0 55.0" stroke="#0095FF" fill="none" stroke-width="2px" />
<path d="M 2260.0 55.0 L 2260.0 35.0" stroke="#0095FF" fill="none" stroke-width="2px" />
<path d="M 2290.0 35.0 L 2310.0 55.0" stroke="#0095FF" fill="none" stroke-width="2px" />
<path d="M 2310.0 55.0 L 2300.0 85.0" stroke="#0095FF" fill="none" stroke-width="2px" />
<path d="M 2290.0 95.0 L 2030.0 35.0" stroke="#0095FF" fill="none" stroke-width="2px" />
<path d="M 1960.0 25.0 L 1960.0 45.0" stroke="#0095FF" fill="none" stroke-width="2px" />
<path d="M 1970.0 55.0 L 1990.0 65.0" stroke="#0095FF" fill="none" stroke-width="2px" />
<path d="M 2000.0 65.0 L 2000.0 5.0" stroke="#0095FF" fill="none" stroke-width="2px" />
<path d="M 340.0 85.0 L 350.0 85.0" stroke="#FF0000" fill="none" stroke-width="4px" />
<path d="M 350.0 85.0 L 360.0 85.0" stroke="#FF0000" fill="none" stroke-width="4px" />
<path d="M 360.0 85.0 L 370.0 85.0" stroke="#FF0000" fill="none" stroke-width="4px" />
<path d="M 370.0 85.0 L 380.0 85.0" stroke="#FF0000" fill="none" stroke-width="4px" />
<path d="M 380.0 85.0 L 380.0 75.0" stroke="#FF0000" fill="none" stroke-width="4px" />
<path d="M 380.0 75.0 L 370.0 75.0" stroke="#FF0000" fill="none" stroke-width="4px" />
<path d="M 370.0 75.0 L 360.0 75.0" stroke="#FF0000" fill="none" stroke-width="4px" />
<path d="M 360.0 75.0 L 350.0 75.0" stroke="#FF0000" fill="none" stroke-width="4px" />
<path d="M 350.0 75.0 L 340.0 75.0" stroke="#FF0000" fill="none" stroke-width="4px" />
<path d="M 340.0 75.0 L 340.0 65.0" stroke="#FF0000" fill="none" stroke-width="4px" />
<path d="M 340.0 65.0 L 350.0 65.0" stroke="#FF0000" fill="none" stroke-width="4px" />
<path d="M 350.0 65.0 L 360.0 65.0" stroke="#FF0000" fill="none" stroke-width="4px" />
<path d="M 360.0 65.0 L 370.0 65.0" stroke="#FF0000" fill="none" stroke-width="4px" />
<path d="M 370.0 65.0 L 380.0 65.0" stroke="#FF0000" fill="none" stroke-width="4px" />
<path d="M 380.0 65.0 L 370.0 55.0" stroke="#FF0000" fill="none" stroke-width="4px" />
<path d="M 370.0 55.0 L 360.0 55.0" stroke="#FF0000" fill="none" stroke-width="4px" />
<path d="M 360.0 55.0 L 350.0 55.0" stroke="#FF0000" fill="none" stroke-width="4px" />
<path d="M 350.0 95.0 L 360.0 95.0" stroke="#FF0000" fill="none" stroke-width="4px" />
<path d="M 360.0 95.0 L 370.0 95.0" stroke="#FF0000" fill="none" stroke-width="4px" />
<path d="M 370.0 95.0 L 360.0 105.0" stroke="#FF0000" fill="none" stroke-width="4px" />
<path d="M 430.0 55.0 L 440.0 55.0" stroke="#FF0000" fill="none" stroke-width="4px" />
<path d="M 440.0 55.0 L 450.0 55.0" stroke="#FF0000" fill="none" stroke-width="4px" />
<path d="M 450.0 55.0 L 460.0 55.0" stroke="#FF0000" fill="none" stroke-width="4px" />
<path d="M 460.0 55.0 L 470.0 55.0" stroke="#FF0000" fill="none" stroke-width="4px" />
<path d="M 470.0 55.0 L 480.0 55.0" stroke="#FF0000" fill="none" stroke-width="4px" />
<path d="M 480.0 55.0 L 480.0 45.0" stroke="#FF0000" fill="none" stroke-width="4px" />
<path d="M 480.0 45.0 L 470.0 45.0" stroke="#FF0000" fill="none" stroke-width="4px" />
<path d="M 470.0 45.0 L 460.0 45.0" stroke="#FF0000" fill="none" stroke-width="4px" />
<path d="M 460.0 45.0 L 450.0 45.0" stroke="#FF0000" fill="none" stroke-width="4px" />
<path d="M 450.0 45.0 L 440.0 45.0" stroke="#FF0000" fill="none" stroke-width="4px" />
<path d="M 440.0 45.0 L 430.0 45.0" stroke="#FF0000" fill="none" stroke-width="4px" />
<path d="M 430.0 45.0 L 420.0 45.0" stroke="#FF0000" fill="none" stroke-width="4px" />
<path d="M 420.0 45.0 L 420.0 35.0" stroke="#FF0000" fill="none" stroke-width="4px" />
<path d="M 420.0 35.0 L 410.0 35.0" stroke="#FF0000" fill="none" stroke-width="4px" />
<path d="M 410.0 35.0 L 410.0 25.0" stroke="#FF0000" fill="none" stroke-width="4px" />
<path d="M 410.0 25.0 L 420.0 25.0" stroke="#FF0000" fill="none" stroke-width="4px" />
<path d="M 420.0 25.0 L 430.0 25.0" stroke="#FF0000" fill="none" stroke-width="4px" />
<path d="M 430.0 25.0 L 440.0 25.0" stroke="#FF0000" fill="none" stroke-width="4px" />
<path d="M 440.0 25.0 L 450.0 25.0" stroke="#FF0000" fill="none" stroke-width="4px" />
<path d="M 450.0 25.0 L 460.0 25.0" stroke="#FF0000" fill="none" stroke-width="4px" />
<path d="M 460.0 25.0 L 470.0 25.0" stroke="#FF0000" fill="none" stroke-width="4px" />
<path d="M 470.0 25.0 L 480.0 25.0" stroke="#FF0000" fill="none" stroke-width="4px" />
<path d="M 480.0 25.0 L 490.0 25.0" stroke="#FF0000" fill="none" stroke-width="4px" />
<path d="M 490.0 25.0 L 490.0 35.0" stroke="#FF0000" fill="none" stroke-width="4px" />
<path d="M 490.0 35.0 L 480.0 35.0" stroke="#FF0000" fill="none" stroke-width="4px" />
<path d="M 480.0 35.0 L 470.0 35.0" stroke="#FF0000" fill="none" stroke-width="4px" />
<path d="M 470.0 35.0 L 460.0 35.0" stroke="#FF0000" fill="none" stroke-width="4px" />
<path d="M 460.0 35.0 L 450.0 35.0" stroke="#FF0000" fill="none" stroke-width="4px" />
<path d="M 450.0 35.0 L 440.0 35.0" stroke="#FF0000" fill="none" stroke-width="4px" />
<path d="M 440.0 35.0 L 430.0 35.0" stroke="#FF0000" fill="none" stroke-width="4px" />
<path d="M 430.0 15.0 L 420.0 15.0" stroke="#FF0000" fill="none" stroke-width="4px" />
<path d="M 420.0 15.0 L 410.0 15.0" stroke="#FF0000" fill="none" stroke-width="4px" />
<path d="M 410.0 15.0 L 420.0 5.0" stroke="#FF0000" fill="none" stroke-width="4px" />
<path d="M 420.0 5.0 L 430.0 5.0" stroke="#FF0000" fill="none" stroke-width="4px" />
<path d="M 430.0 5.0 L 440.0 5.0" stroke="#FF0000" fill="none" stroke-width="4px" />
<path d="M 440.0 5.0 L 450.0 5.0" stroke="#FF0000" fill="none" stroke-width="4px" />
<path d="M 450.0 5.0 L 460.0 5.0" stroke="#FF0000" fill="none" stroke-width="4px" />
<path d="M 460.0 5.0 L 470.0 5.0" stroke="#FF0000" fill="none" stroke-width="4px" />
<path d="M 470.0 5.0 L 480.0 5.0" stroke="#FF0000" fill="none" stroke-width="4px" />
<path d="M 480.0 5.0 L 480.0 15.0" stroke="#FF0000" fill="none" stroke-width="4px" />
<path d="M 480.0 15.0 L 470.0 15.0" stroke="#FF0000" fill="none" stroke-width="4px" />
<path d="M 470.0 15.0 L 460.0 15.0" stroke="#FF0000" fill="none" stroke-width="4px" />
<path d="M 460.0 15.0 L 450.0 15.0" stroke="#FF0000" fill="none" stroke-width="4px" />
<path d="M 450.0 15.0 L 440.0 15.0" stroke="#FF0000" fill="none" stroke-width="4px" />
<path d="M 440.0 -5.0 L 430.0 -5.0" stroke="#FF0000" fill="none" stroke-width="4px" />
<path d="M 430.0 -5.0 L 420.0 -5.0" stroke="#FF0000" fill="none" stroke-width="4px" />
<path d="M 450.0 -5.0 L 460.0 -5.0" stroke="#FF0000" fill="none" stroke-width="4px" />
<path d="M 460.0 -5.0 L 470.0 -5.0" stroke="#FF0000" fill="none" stroke-width="4px" />
<path d="M 500.0 35.0 L 490.0 45.0" stroke="#FF0000" fill="none" stroke-width="4px" />
<path d="M 740.0 145.0 L 750.0 145.0" stroke="#FF0000" fill="none" stroke-width="4px" />
<path d="M 750.0 145.0 L 760.0 145.0" stroke="#FF0000" fill="none" stroke-width="4px" />
<path d="M 760.0 145.0 L 770.0 145.0" stroke="#FF0000" fill="none" stroke-width="4px" />
<path d="M 770.0 145.0 L 780.0 145.0" stroke="#FF0000" fill="none" stroke-width="4px" />
<path d="M 780.0 145.0 L 790.0 145.0" stroke="#FF0000" fill="none" stroke-width="4px" />
<path d="M 790.0 145.0 L 800.0 145.0" stroke="#FF0000" fill="none" stroke-width="4px" />
<path d="M 800.0 145.0 L 810.0 145.0" stroke="#FF0000" fill="none" stroke-width="4px" />
<path d="M 810.0 145.0 L 820.0 145.0" stroke="#FF0000" fill="none" stroke-width="4px" />
<path d="M 820.0 145.0 L 830.0 145.0" stroke="#FF0000" fill="none" stroke-width="4px" />
<path d="M 830.0 145.0 L 840.0 145.0" stroke="#FF0000" fill="none" stroke-width="4px" />
<path d="M 840.0 145.0 L 840.0 155.0" stroke="#FF0000" fill="none" stroke-width="4px" />
<path d="M 840.0 155.0 L 830.0 155.0" stroke="#FF0000" fill="none" stroke-width="4px" />
<path d="M 830.0 155.0 L 820.0 155.0" stroke="#FF0000" fill="none" stroke-width="4px" />
<path d="M 820.0 155.0 L 810.0 155.0" stroke="#FF0000" fill="none" stroke-width="4px" />
<path d="M 810.0 155.0 L 800.0 155.0" stroke="#FF0000" fill="none" stroke-width="4px" />
<path d="M 800.0 155.0 L 790.0 155.0" stroke="#FF0000" fill="none" stroke-width="4px" />
<path d="M 790.0 155.0 L 780.0 155.0" stroke="#FF0000" fill="none" stroke-width="4px" />
<path d="M 780.0 155.0 L 770.0 155.0" stroke="#FF0000" fill="none" stroke-width="4px" />
<path d="M 770.0 155.0 L 760.0 155.0" stroke="#FF0000" fill="none" stroke-width="4px" />
<path d="M 760.0 155.0 L 750.0 155.0" stroke="#FF0000" fill="none" stroke-width="4px" />
<path d="M 750.0 155.0 L 740.0 155.0" stroke="#FF0000" fill="none" stroke-width="4px" />
<path d="M 740.0 155.0 L 740.0 165.0" stroke="#FF0000" fill="none" stroke-width="4px" />
<path d="M 740.0 165.0 L 730.0 165.0" stroke="#FF0000" fill="none" stroke-width="4px" />
<path d="M 730.0 165.0 L 730.0 175.0" stroke="#FF0000" fill="none" stroke-width="4px" />
<path d="M 730.0 175.0 L 740.0 175.0" stroke="#FF0000" fill="none" stroke-width="4px" />
<path d="M 740.0 175.0 L 750.0 175.0" stroke="#FF0000" fill="none" stroke-width="4px" />
<path d="M 750.0 175.0 L 760.0 175.0" stroke="#FF0000" fill="none" stroke-width="4px" />
<path d="M 760.0 175.0 L 770.0 175.0" stroke="#FF0000" fill="none" stroke-width="4px" />
<path d="M 770.0 175.0 L 780.0 175.0" stroke="#FF0000" fill="none" stroke-width="4px" />
<path d="M 780.0 175.0 L 790.0 175.0" stroke="#FF0000" fill="none" stroke-width="4px" />
<path d="M 790.0 175.0 L 800.0 175.0" stroke="#FF0000" fill="none" stroke-width="4px" />
<path d="M 800.0 175.0 L 810.0 175.0" stroke="#FF0000" fill="none" stroke-width="4px" />
<path d="M 810.0 175.0 L 820.0 175.0" stroke="#FF0000" fill="none" stroke-width="4px" />
<path d="M 820.0 175.0 L 830.0 175.0" stroke="#FF0000" fill="none" stroke-width="4px" />
<path d="M 830.0 175.0 L 840.0 175.0" stroke="#FF0000" fill="none" stroke-width="4px" />
<path d="M 840.0 175.0 L 840.0 185.0" stroke="#FF0000" fill="none" stroke-width="4px" />
<path d="M 840.0 185.0 L 830.0 185.0" stroke="#FF0000" fill="none" stroke-width="4px" />
<path d="M 830.0 185.0 L 820.0 185.0" stroke="#FF0000" fill="none" stroke-width="4px" />
<path d="M 820.0 185.0 L 810.0 185.0" stroke="#FF0000" fill="none" stroke-width="4px" />
<path d="M 810.0 185.0 L 800.0 185.0" stroke="#FF0000" fill="none" stroke-width="4px" />
<path d="M 800.0 185.0 L 790.0 185.0" stroke="#FF0000" fill="none" stroke-width="4px" />
<path d="M 790.0 185.0 L 780.0 185.0" stroke="#FF0000" fill="none" stroke-width="4px" />
<path d="M 780.0 185.0 L 770.0 185.0" stroke="#FF0000" fill="none" stroke-width="4px" />
<path d="M 770.0 185.0 L 760.0 185.0" stroke="#FF0000" fill="none" stroke-width="4px" />
<path d="M 760.0 185.0 L 750.0 185.0" stroke="#FF0000" fill="none" stroke-width="4px" />
<path d="M 750.0 185.0 L 740.0 185.0" stroke="#FF0000" fill="none" stroke-width="4px" />
<path d="M 740.0 185.0 L 750.0 195.0" stroke="#FF0000" fill="none" stroke-width="4px" />
<path d="M 750.0 195.0 L 760.0 195.0" stroke="#FF0000" fill="none" stroke-width="4px" />
<path d="M 760.0 195.0 L 770.0 195.0" stroke="#FF0000" fill="none" stroke-width="4px" />
<path d="M 770.0 195.0 L 780.0 195.0" stroke="#FF0000" fill="none" stroke-width="4px" />
<path d="M 780.0 195.0 L 790.0 195.0" stroke="#FF0000" fill="none" stroke-width="4px" />
<path d="M 790.0 195.0 L 800.0 195.0" stroke="#FF0000" fill="none" stroke-width="4px" />
<path d="M 800.0 195.0 L 810.0 195.0" stroke="#FF0000" fill="none" stroke-width="4px" />
<path d="M 810.0 195.0 L 820.0 195.0" stroke="#FF0000" fill="none" stroke-width="4px" />
<path d="M 820.0 195.0 L 830.0 195.0" stroke="#FF0000" fill="none" stroke-width="4px" />
<path d="M 830.0 195.0 L 820.0 205.0" stroke="#FF0000" fill="none" stroke-width="4px" />
<path d="M 820.0 205.0 L 810.0 205.0" stroke="#FF0000" fill="none" stroke-width="4px" />
<path d="M 810.0 205.0 L 800.0 205.0" stroke="#FF0000" fill="none" stroke-width="4px" />
<path d="M 800.0 205.0 L 790.0 205.0" stroke="#FF0000" fill="none" stroke-width="4px" />
<path d="M 790.0 205.0 L 780.0 205.0" stroke="#FF0000" fill="none" stroke-width="4px" />
<path d="M 780.0 205.0 L 770.0 205.0" stroke="#FF0000" fill="none" stroke-width="4px" />
<path d="M 770.0 205.0 L 760.0 205.0" stroke="#FF0000" fill="none" stroke-width="4px" />
<path d="M 760.0 165.0 L 750.0 165.0" stroke="#FF0000" fill="none" stroke-width="4px" />
<path d="M 750.0 165.0 L 770.0 165.0" stroke="#FF0000" fill="none" stroke-width="4px" />
<path d="M 770.0 165.0 L 780.0 165.0" stroke="#FF0000" fill="none" stroke-width="4px" />
<path d="M 780.0 165.0 L 790.0 165.0" stroke="#FF0000" fill="none" stroke-width="4px" />
<path d="M 790.0 165.0 L 800.0 165.0" stroke="#FF0000" fill="none" stroke-width="4px" />
<path d="M 800.0 165.0 L 810.0 165.0" stroke="#FF0000" fill="none" stroke-width="4px" />
<path d="M 810.0 165.0 L 820.0 165.0" stroke="#FF0000" fill="none" stroke-width="4px" />
<path d="M 820.0 165.0 L 830.0 165.0" stroke="#FF0000" fill="none" stroke-width="4px" />
<path d="M 830.0 165.0 L 840.0 165.0" stroke="#FF0000" fill="none" stroke-width="4px" />
<path d="M 840.0 165.0 L 850.0 165.0" stroke="#FF0000" fill="none" stroke-width="4px" />
<path d="M 850.0 165.0 L 850.0 155.0" stroke="#FF0000" fill="none" stroke-width="4px" />
<path d="M 830.0 135.0 L 820.0 135.0" stroke="#FF0000" fill="none" stroke-width="4px" />
<path d="M 820.0 135.0 L 810.0 135.0" stroke="#FF0000" fill="none" stroke-width="4px" />
<path d="M 810.0 135.0 L 800.0 135.0" stroke="#FF0000" fill="none" stroke-width="4px" />
<path d="M 800.0 135.0 L 790.0 135.0" stroke="#FF0000" fill="none" stroke-width="4px" />
<path d="M 790.0 135.0 L 780.0 135.0" stroke="#FF0000" fill="none" stroke-width="4px" />
<path d="M 780.0 135.0 L 770.0 135.0" stroke="#FF0000" fill="none" stroke-width="4px" />
<path d="M 770.0 135.0 L 760.0 135.0" stroke="#FF0000" fill="none" stroke-width="4px" />
<path d="M 760.0 135.0 L 750.0 135.0" stroke="#FF0000" fill="none" stroke-width="4px" />
<path d="M 750.0 135.0 L 760.0 125.0" stroke="#FF0000" fill="none" stroke-width="4px" />
<path d="M 760.0 125.0 L 770.0 125.0" stroke="#FF0000" fill="none" stroke-width="4px" />
<path d="M 770.0 125.0 L 780.0 125.0" stroke="#FF0000" fill="none" stroke-width="4px" />
<path d="M 780.0 125.0 L 790.0 125.0" stroke="#FF0000" fill="none" stroke-width="4px" />
<path d="M 790.0 125.0 L 800.0 125.0" stroke="#FF0000" fill="none" stroke-width="4px" />
<path d="M 800.0 125.0 L 810.0 125.0" stroke="#FF0000" fill="none" stroke-width="4px" />
<path d="M 810.0 125.0 L 820.0 125.0" stroke="#FF0000" fill="none" stroke-width="4px" />
<path d="M 820.0 125.0 L 810.0 115.0" stroke="#FF0000" fill="none" stroke-width="4px" />
<path d="M 810.0 115.0 L 800.0 115.0" stroke="#FF0000" fill="none" stroke-width="4px" />
<path d="M 800.0 115.0 L 790.0 115.0" stroke="#FF0000" fill="none" stroke-width="4px" />
<path d="M 790.0 115.0 L 780.0 115.0" stroke="#FF0000" fill="none" stroke-width="4px" />
<path d="M 780.0 115.0 L 770.0 115.0" stroke="#FF0000" fill="none" stroke-width="4px" />
<path d="M 770.0 115.0 L 780.0 105.0" stroke="#FF0000" fill="none" stroke-width="4px" />
<path d="M 780.0 105.0 L 790.0 105.0" stroke="#FF0000" fill="none" stroke-width="4px" />
<path d="M 790.0 105.0 L 800.0 105.0" stroke="#FF0000" fill="none" stroke-width="4px" />
<path d="M 1080.0 55.0 L 1090.0 55.0" stroke="#FF0000" fill="none" stroke-width="4px" />
<path d="M 1090.0 55.0 L 1100.0 55.0" stroke="#FF0000" fill="none" stroke-width="4px" />
<path d="M 1100.0 55.0 L 1110.0 55.0" stroke="#FF0000" fill="none" stroke-width="4px" />
<path d="M 1110.0 55.0 L 1120.0 55.0" stroke="#FF0000" fill="none" stroke-width="4px" />
<path d="M 1120.0 55.0 L 1130.0 55.0" stroke="#FF0000" fill="none" stroke-width="4px" />
<path d="M 1130.0 55.0 L 1140.0 55.0" stroke="#FF0000" fill="none" stroke-width="4px" />
<path d="M 1140.0 55.0 L 1140.0 65.0" stroke="#FF0000" fill="none" stroke-width="4px" />
<path d="M 1140.0 65.0 L 1130.0 65.0" stroke="#FF0000" fill="none" stroke-width="4px" />
<path d="M 1130.0 65.0 L 1120.0 65.0" stroke="#FF0000" fill="none" stroke-width="4px" />
<path d="M 1120.0 65.0 L 1110.0 65.0" stroke="#FF0000" fill="none" stroke-width="4px" />
<path d="M 1110.0 65.0 L 1100.0 65.0" stroke="#FF0000" fill="none" stroke-width="4px" />
<path d="M 1100.0 65.0 L 1090.0 65.0" stroke="#FF0000" fill="none" stroke-width="4px" />
<path d="M 1090.0 65.0 L 1090.0 75.0" stroke="#FF0000" fill="none" stroke-width="4px" />
<path d="M 1090.0 75.0 L 1100.0 75.0" stroke="#FF0000" fill="none" stroke-width="4px" />
<path d="M 1100.0 75.0 L 1110.0 75.0" stroke="#FF0000" fill="none" stroke-width="4px" />
<path d="M 1110.0 75.0 L 1120.0 75.0" stroke="#FF0000" fill="none" stroke-width="4px" />
<path d="M 1120.0 75.0 L 1130.0 75.0" stroke="#FF0000" fill="none" stroke-width="4px" />
<path d="M 1130.0 75.0 L 1140.0 75.0" stroke="#FF0000" fill="none" stroke-width="4px" />
<path d="M 1140.0 75.0 L 1140.0 85.0" stroke="#FF0000" fill="none" stroke-width="4px" />
<path d="M 1140.0 85.0 L 1130.0 85.0" stroke="#FF0000" fill="none" stroke-width="4px" />
<path d="M 1130.0 85.0 L 1120.0 85.0" stroke="#FF0000" fill="none" stroke-width="4px" />
<path d="M 1120.0 85.0 L 1110.0 85.0" stroke="#FF0000" fill="none" stroke-width="4px" />
<path d="M 1110.0 85.0 L 1100.0 85.0" stroke="#FF0000" fill="none" stroke-width="4px" />
<path d="M 1100.0 85.0 L 1110.0 95.0" stroke="#FF0000" fill="none" stroke-width="4px" />
<path d="M 1110.0 95.0 L 1120.0 95.0" stroke="#FF0000" fill="none" stroke-width="4px" />
<path d="M 1120.0 95.0 L 1130.0 95.0" stroke="#FF0000" fill="none" stroke-width="4px" />
<path d="M 1130.0 95.0 L 1140.0 95.0" stroke="#FF0000" fill="none" stroke-width="4px" />
<path d="M 1140.0 95.0 L 1150.0 95.0" stroke="#FF0000" fill="none" stroke-width="4px" />
<path d="M 1150.0 95.0 L 1160.0 95.0" stroke="#FF0000" fill="none" stroke-width="4px" />
<path d="M 1160.0 95.0 L 1170.0 95.0" stroke="#FF0000" fill="none" stroke-width="4px" />
<path d="M 1170.0 95.0 L 1180.0 95.0" stroke="#FF0000" fill="none" stroke-width="4px" />
<path d="M 1180.0 95.0 L 1190.0 95.0" stroke="#FF0000" fill="none" stroke-width="4px" />
<path d="M 1190.0 95.0 L 1200.0 95.0" stroke="#FF0000" fill="none" stroke-width="4px" />
<path d="M 1200.0 95.0 L 1210.0 95.0" stroke="#FF0000" fill="none" stroke-width="4px" />
<path d="M 1210.0 95.0 L 1210.0 105.0" stroke="#FF0000" fill="none" stroke-width="4px" />
<path d="M 1210.0 105.0 L 1200.0 105.0" stroke="#FF0000" fill="none" stroke-width="4px" />
<path d="M 1200.0 105.0 L 1190.0 105.0" stroke="#FF0000" fill="none" stroke-width="4px" />
<path d="M 1190.0 105.0 L 1180.0 105.0" stroke="#FF0000" fill="none" stroke-width="4px" />
<path d="M 1180.0 105.0 L 1170.0 105.0" stroke="#FF0000" fill="none" stroke-width="4px" />
<path d="M 1170.0 105.0 L 1180.0 115.0" stroke="#FF0000" fill="none" stroke-width="4px" />
<path d="M 1180.0 115.0 L 1190.0 115.0" stroke="#FF0000" fill="none" stroke-width="4px" />
<path d="M 1190.0 115.0 L 1200.0 115.0" stroke="#FF0000" fill="none" stroke-width="4px" />
<path d="M 1200.0 85.0 L 1190.0 85.0" stroke="#FF0000" fill="none" stroke-width="4px" />
<path d="M 1190.0 85.0 L 1180.0 85.0" stroke="#FF0000" fill="none" stroke-width="4px" />
<path d="M 1180.0 85.0 L 1170.0 85.0" stroke="#FF0000" fill="none" stroke-width="4px" />
<path d="M 1170.0 85.0 L 1160.0 85.0" stroke="#FF0000" fill="none" stroke-width="4px" />
<path d="M 1160.0 85.0 L 1150.0 85.0" stroke="#FF0000" fill="none" stroke-width="4px" />
<path d="M 1150.0 85.0 L 1160.0 75.0" stroke="#FF0000" fill="none" stroke-width="4px" />
<path d="M 1160.0 75.0 L 1170.0 75.0" stroke="#FF0000" fill="none" stroke-width="4px" />
<path d="M 1170.0 75.0 L 1180.0 75.0" stroke="#FF0000" fill="none" stroke-width="4px" />
<path d="M 1180.0 75.0 L 1190.0 75.0" stroke="#FF0000" fill="none" stroke-width="4px" />
<path d="M 1190.0 75.0 L 1200.0 75.0" stroke="#FF0000" fill="none" stroke-width="4px" />
<path d="M 1200.0 75.0 L 1210.0 75.0" stroke="#FF0000" fill="none" stroke-width="4px" />
<path d="M 1210.0 75.0 L 1210.0 85.0" stroke="#FF0000" fill="none" stroke-width="4px" />
<path d="M 1210.0 65.0 L 1200.0 65.0" stroke="#FF0000" fill="none" stroke-width="4px" />
<path d="M 1200.0 65.0 L 1190.0 65.0" stroke="#FF0000" fill="none" stroke-width="4px" />
<path d="M 1190.0 65.0 L 1180.0 65.0" stroke="#FF0000" fill="none" stroke-width="4px" />
<path d="M 1180.0 65.0 L 1170.0 65.0" stroke="#FF0000" fill="none" stroke-width="4px" />
<path d="M 1190.0 55.0 L 1200.0 55.0" stroke="#FF0000" fill="none" stroke-width="4px" />
<path d="M 1200.0 55.0 L 1210.0 55.0" stroke="#FF0000" fill="none" stroke-width="4px" />
<path d="M 1210.0 55.0 L 1220.0 55.0" stroke="#FF0000" fill="none" stroke-width="4px" />
<path d="M 1220.0 55.0 L 1230.0 55.0" stroke="#FF0000" fill="none" stroke-width="4px" />
<path d="M 1230.0 55.0 L 1230.0 45.0" stroke="#FF0000" fill="none" stroke-width="4px" />
<path d="M 1230.0 45.0 L 1220.0 45.0" stroke="#FF0000" fill="none" stroke-width="4px" />
<path d="M 1220.0 45.0 L 1210.0 45.0" stroke="#FF0000" fill="none" stroke-width="4px" />
<path d="M 1210.0 45.0 L 1220.0 35.0" stroke="#FF0000" fill="none" stroke-width="4px" />
<path d="M 1150.0 105.0 L 1140.0 105.0" stroke="#FF0000" fill="none" stroke-width="4px" />
<path d="M 1140.0 105.0 L 1130.0 105.0" stroke="#FF0000" fill="none" stroke-width="4px" />
<path d="M 1130.0 105.0 L 1120.0 105.0" stroke="#FF0000" fill="none" stroke-width="4px" />
<path d="M 1120.0 105.0 L 1130.0 115.0" stroke="#FF0000" fill="none" stroke-width="4px" />
<path d="M 1130.0 115.0 L 1140.0 115.0" stroke="#FF0000" fill="none" stroke-width="4px" />
<path d="M 1130.0 45.0 L 1120.0 45.0" stroke="#FF0000" fill="none" stroke-width="4px" />
<path d="M 1120.0 45.0 L 1110.0 45.0" stroke="#FF0000" fill="none" stroke-width="4px" />
<path d="M 1110.0 45.0 L 1100.0 45.0" stroke="#FF0000" fill="none" stroke-width="4px" />
<path d="M 1100.0 45.0 L 1090.0 45.0" stroke="#FF0000" fill="none" stroke-width="4px" />
<path d="M 1090.0 45.0 L 1080.0 45.0" stroke="#FF0000" fill="none" stroke-width="4px" />
<path d="M 1080.0 45.0 L 1090.0 35.0" stroke="#FF0000" fill="none" stroke-width="4px" />
<path d="M 1090.0 35.0 L 1100.0 35.0" stroke="#FF0000" fill="none" stroke-width="4px" />
<path d="M 1100.0 35.0 L 1110.0 35.0" stroke="#FF0000" fill="none" stroke-width="4px" />
<path d="M 1110.0 35.0 L 1120.0 35.0" stroke="#FF0000" fill="none" stroke-width="4px" />
<path d="M 1500.0 105.0 L 1510.0 105.0" stroke="#FF0000" fill="none" stroke-width="4px" />
<path d="M 1510.0 105.0 L 1520.0 105.0" stroke="#FF0000" fill="none" stroke-width="4px" />
<path d="M 1520.0 105.0 L 1530.0 105.0" stroke="#FF0000" fill="none" stroke-width="4px" />
<path d="M 1530.0 105.0 L 1540.0 105.0" stroke="#FF0000" fill="none" stroke-width="4px" />
<path d="M 1540.0 105.0 L 1550.0 105.0" stroke="#FF0000" fill="none" stroke-width="4px" />
<path d="M 1550.0 105.0 L 1560.0 105.0" stroke="#FF0000" fill="none" stroke-width="4px" />
<path d="M 1560.0 105.0 L 1570.0 105.0" stroke="#FF0000" fill="none" stroke-width="4px" />
<path d="M 1570.0 105.0 L 1580.0 105.0" stroke="#FF0000" fill="none" stroke-width="4px" />
<path d="M 1580.0 105.0 L 1580.0 115.0" stroke="#FF0000" fill="none" stroke-width="4px" />
<path d="M 1580.0 115.0 L 1570.0 115.0" stroke="#FF0000" fill="none" stroke-width="4px" />
<path d="M 1570.0 115.0 L 1560.0 115.0" stroke="#FF0000" fill="none" stroke-width="4px" />
<path d="M 1560.0 115.0 L 1550.0 115.0" stroke="#FF0000" fill="none" stroke-width="4px" />
<path d="M 1550.0 115.0 L 1540.0 115.0" stroke="#FF0000" fill="none" stroke-width="4px" />
<path d="M 1540.0 115.0 L 1530.0 115.0" stroke="#FF0000" fill="none" stroke-width="4px" />
<path d="M 1530.0 115.0 L 1520.0 115.0" stroke="#FF0000" fill="none" stroke-width="4px" />
<path d="M 1520.0 115.0 L 1510.0 115.0" stroke="#FF0000" fill="none" stroke-width="4px" />
<path d="M 1510.0 115.0 L 1500.0 115.0" stroke="#FF0000" fill="none" stroke-width="4px" />
<path d="M 1500.0 115.0 L 1500.0 125.0" stroke="#FF0000" fill="none" stroke-width="4px" />
<path d="M 1500.0 125.0 L 1510.0 125.0" stroke="#FF0000" fill="none" stroke-width="4px" />
<path d="M 1510.0 125.0 L 1520.0 125.0" stroke="#FF0000" fill="none" stroke-width="4px" />
<path d="M 1520.0 125.0 L 1530.0 125.0" stroke="#FF0000" fill="none" stroke-width="4px" />
<path d="M 1530.0 125.0 L 1540.0 125.0" stroke="#FF0000" fill="none" stroke-width="4px" />
<path d="M 1540.0 125.0 L 1550.0 125.0" stroke="#FF0000" fill="none" stroke-width="4px" />
<path d="M 1550.0 125.0 L 1560.0 125.0" stroke="#FF0000" fill="none" stroke-width="4px" />
<path d="M 1560.0 125.0 L 1570.0 125.0" stroke="#FF0000" fill="none" stroke-width="4px" />
<path d="M 1570.0 125.0 L 1580.0 125.0" stroke="#FF0000" fill="none" stroke-width="4px" />
<path d="M 1580.0 125.0 L 1590.0 125.0" stroke="#FF0000" fill="none" stroke-width="4px" />
<path d="M 1590.0 125.0 L 1590.0 115.0" stroke="#FF0000" fill="none" stroke-width="4px" />
<path d="M 1580.0 135.0 L 1570.0 135.0" stroke="#FF0000" fill="none" stroke-width="4px" />
<path d="M 1570.0 135.0 L 1560.0 135.0" stroke="#FF0000" fill="none" stroke-width="4px" />
<path d="M 1560.0 135.0 L 1550.0 135.0" stroke="#FF0000" fill="none" stroke-width="4px" />
<path d="M 1550.0 135.0 L 1540.0 135.0" stroke="#FF0000" fill="none" stroke-width="4px" />
<path d="M 1540.0 135.0 L 1530.0 135.0" stroke="#FF0000" fill="none" stroke-width="4px" />
<path d="M 1530.0 135.0 L 1520.0 135.0" stroke="#FF0000" fill="none" stroke-width="4px" />
<path d="M 1520.0 135.0 L 1510.0 135.0" stroke="#FF0000" fill="none" stroke-width="4px" />
<path d="M 1530.0 145.0 L 1550.0 145.0" stroke="#FF0000" fill="none" stroke-width="4px" />
<path d="M 1550.0 145.0 L 1560.0 145.0" stroke="#FF0000" fill="none" stroke-width="4px" />
<path d="M 1560.0 145.0 L 1570.0 145.0" stroke="#FF0000" fill="none" stroke-width="4px" />
<path d="M 1570.0 95.0 L 1560.0 95.0" stroke="#FF0000" fill="none" stroke-width="4px" />
<path d="M 1560.0 95.0 L 1550.0 95.0" stroke="#FF0000" fill="none" stroke-width="4px" />
<path d="M 1550.0 95.0 L 1540.0 95.0" stroke="#FF0000" fill="none" stroke-width="4px" />
<path d="M 1540.0 95.0 L 1530.0 95.0" stroke="#FF0000" fill="none" stroke-width="4px" />
<path d="M 1530.0 95.0 L 1520.0 95.0" stroke="#FF0000" fill="none" stroke-width="4px" />
<path d="M 1520.0 95.0 L 1510.0 95.0" stroke="#FF0000" fill="none" stroke-width="4px" />
<path d="M 1510.0 95.0 L 1520.0 85.0" stroke="#FF0000" fill="none" stroke-width="4px" />
<path d="M 1520.0 85.0 L 1530.0 85.0" stroke="#FF0000" fill="none" stroke-width="4px" />
<path d="M 1530.0 85.0 L 1540.0 85.0" stroke="#FF0000" fill="none" stroke-width="4px" />
<path d="M 1540.0 85.0 L 1550.0 85.0" stroke="#FF0000" fill="none" stroke-width="4px" />
<path d="M 1550.0 85.0 L 1560.0 85.0" stroke="#FF0000" fill="none" stroke-width="4px" />
<path d="M 2280.0 105.0 L 2280.0 95.0" stroke="#FF0000" fill="none" stroke-width="4px" />
<path d="M 2280.0 95.0 L 2270.0 95.0" stroke="#FF0000" fill="none" stroke-width="4px" />
<path d="M 2270.0 95.0 L 2270.0 85.0" stroke="#FF0000" fill="none" stroke-width="4px" />
<path d="M 2270.0 85.0 L 2260.0 85.0" stroke="#FF0000" fill="none" stroke-width="4px" />
<path d="M 2260.0 85.0 L 2250.0 85.0" stroke="#FF0000" fill="none" stroke-width="4px" />
<path d="M 2250.0 85.0 L 2240.0 85.0" stroke="#FF0000" fill="none" stroke-width="4px" />
<path d="M 2240.0 85.0 L 2240.0 75.0" stroke="#FF0000" fill="none" stroke-width="4px" />
<path d="M 2240.0 75.0 L 2230.0 75.0" stroke="#FF0000" fill="none" stroke-width="4px" />
<path d="M 2230.0 75.0 L 2230.0 65.0" stroke="#FF0000" fill="none" stroke-width="4px" />
<path d="M 2230.0 65.0 L 2240.0 65.0" stroke="#FF0000" fill="none" stroke-width="4px" />
<path d="M 2240.0 65.0 L 2250.0 65.0" stroke="#FF0000" fill="none" stroke-width="4px" />
<path d="M 2250.0 65.0 L 2260.0 65.0" stroke="#FF0000" fill="none" stroke-width="4px" />
<path d="M 2260.0 65.0 L 2270.0 65.0" stroke="#FF0000" fill="none" stroke-width="4px" />
<path d="M 2270.0 65.0 L 2280.0 65.0" stroke="#FF0000" fill="none" stroke-width="4px" />
<path d="M 2280.0 65.0 L 2290.0 65.0" stroke="#FF0000" fill="none" stroke-width="4px" />
<path d="M 2290.0 65.0 L 2300.0 65.0" stroke="#FF0000" fill="none" stroke-width="4px" />
<path d="M 2300.0 65.0 L 2310.0 65.0" stroke="#FF0000" fill="none" stroke-width="4px" />
<path d="M 2310.0 65.0 L 2310.0 75.0" stroke="#FF0000" fill="none" stroke-width="4px" />
<path d="M 2310.0 75.0 L 2300.0 75.0" stroke="#FF0000" fill="none" stroke-width="4px" />
<path d="M 2300.0 75.0 L 2290.0 75.0" stroke="#FF0000" fill="none" stroke-width="4px" />
<path d="M 2290.0 75.0 L 2280.0 75.0" stroke="#FF0000" fill="none" stroke-width="4px" />
<path d="M 2280.0 75.0 L 2270.0 75.0" stroke="#FF0000" fill="none" stroke-width="4px" />
<path d="M 2270.0 75.0 L 2260.0 75.0" stroke="#FF0000" fill="none" stroke-width="4px" />
<path d="M 2260.0 75.0 L 2250.0 75.0" stroke="#FF0000" fill="none" stroke-width="4px" />
<path d="M 2250.0 55.0 L 2240.0 55.0" stroke="#FF0000" fill="none" stroke-width="4px" />
<path d="M 2240.0 55.0 L 2230.0 55.0" stroke="#FF0000" fill="none" stroke-width="4px" />
<path d="M 2230.0 55.0 L 2240.0 45.0" stroke="#FF0000" fill="none" stroke-width="4px" />
<path d="M 2240.0 45.0 L 2250.0 45.0" stroke="#FF0000" fill="none" stroke-width="4px" />
<path d="M 2250.0 45.0 L 2260.0 45.0" stroke="#FF0000" fill="none" stroke-width="4px" />
<path d="M 2260.0 45.0 L 2270.0 45.0" stroke="#FF0000" fill="none" stroke-width="4px" />
<path d="M 2270.0 45.0 L 2280.0 45.0" stroke="#FF0000" fill="none" stroke-width="4px" />
<path d="M 2280.0 45.0 L 2290.0 45.0" stroke="#FF0000" fill="none" stroke-width="4px" />
<path d="M 2290.0 45.0 L 2300.0 45.0" stroke="#FF0000" fill="none" stroke-width="4px" />
<path d="M 2300.0 45.0 L 2300.0 55.0" stroke="#FF0000" fill="none" stroke-width="4px" />
<path d="M 2300.0 55.0 L 2290.0 55.0" stroke="#FF0000" fill="none" stroke-width="4px" />
<path d="M 2290.0 55.0 L 2280.0 55.0" stroke="#FF0000" fill="none" stroke-width="4px" />
<path d="M 2280.0 55.0 L 2270.0 55.0" stroke="#FF0000" fill="none" stroke-width="4px" />
<path d="M 2270.0 55.0 L 2260.0 55.0" stroke="#FF0000" fill="none" stroke-width="4px" />
<path d="M 2260.0 35.0 L 2250.0 35.0" stroke="#FF0000" fill="none" stroke-width="4px" />
<path d="M 2250.0 35.0 L 2260.0 25.0" stroke="#FF0000" fill="none" stroke-width="4px" />
<path d="M 2260.0 25.0 L 2270.0 25.0" stroke="#FF0000" fill="none" stroke-width="4px" />
<path d="M 2270.0 25.0 L 2270.0 35.0" stroke="#FF0000" fill="none" stroke-width="4px" />
<path d="M 2270.0 35.0 L 2280.0 35.0" stroke="#FF0000" fill="none" stroke-width="4px" />
<path d="M 2280.0 35.0 L 2290.0 35.0" stroke="#FF0000" fill="none" stroke-width="4px" />
<path d="M 2300.0 85.0 L 2290.0 85.0" stroke="#FF0000" fill="none" stroke-width="4px" />
<path d="M 2290.0 85.0 L 2280.0 85.0" stroke="#FF0000" fill="none" stroke-width="4px" />
<path d="M 2280.0 85.0 L 2290.0 95.0" stroke="#FF0000" fill="none" stroke-width="4px" />
<path d="M 2030.0 35.0 L 2020.0 35.0" stroke="#FF0000" fill="none" stroke-width="4px" />
<path d="M 2020.0 35.0 L 2010.0 35.0" stroke="#FF0000" fill="none" stroke-width="4px" />
<path d="M 2010.0 35.0 L 2000.0 35.0" stroke="#FF0000" fill="none" stroke-width="4px" />
<path d="M 2000.0 35.0 L 1990.0 35.0" stroke="#FF0000" fill="none" stroke-width="4px" />
<path d="M 1990.0 35.0 L 1980.0 35.0" stroke="#FF0000" fill="none" stroke-width="4px" />
<path d="M 1980.0 35.0 L 1970.0 35.0" stroke="#FF0000" fill="none" stroke-width="4px" />
<path d="M 1970.0 35.0 L 1960.0 35.0" stroke="#FF0000" fill="none" stroke-width="4px" />
<path d="M 1960.0 35.0 L 1950.0 35.0" stroke="#FF0000" fill="none" stroke-width="4px" />
<path d="M 1950.0 35.0 L 1950.0 25.0" stroke="#FF0000" fill="none" stroke-width="4px" />
<path d="M 1950.0 25.0 L 1940.0 25.0" stroke="#FF0000" fill="none" stroke-width="4px" />
<path d="M 1940.0 25.0 L 1940.0 15.0" stroke="#FF0000" fill="none" stroke-width="4px" />
<path d="M 1940.0 15.0 L 1950.0 15.0" stroke="#FF0000" fill="none" stroke-width="4px" />
<path d="M 1950.0 15.0 L 1960.0 15.0" stroke="#FF0000" fill="none" stroke-width="4px" />
<path d="M 1960.0 15.0 L 1970.0 15.0" stroke="#FF0000" fill="none" stroke-width="4px" />
<path d="M 1970.0 15.0 L 1980.0 15.0" stroke="#FF0000" fill="none" stroke-width="4px" />
<path d="M 1980.0 15.0 L 1990.0 15.0" stroke="#FF0000" fill="none" stroke-width="4px" />
<path d="M 1990.0 15.0 L 2000.0 15.0" stroke="#FF0000" fill="none" stroke-width="4px" />
<path d="M 2000.0 15.0 L 2010.0 15.0" stroke="#FF0000" fill="none" stroke-width="4px" />
<path d="M 2010.0 15.0 L 2020.0 15.0" stroke="#FF0000" fill="none" stroke-width="4px" />
<path d="M 2020.0 15.0 L 2030.0 15.0" stroke="#FF0000" fill="none" stroke-width="4px" />
<path d="M 2030.0 15.0 L 2030.0 25.0" stroke="#FF0000" fill="none" stroke-width="4px" />
<path d="M 2030.0 25.0 L 2020.0 25.0" stroke="#FF0000" fill="none" stroke-width="4px" />
<path d="M 2020.0 25.0 L 2010.0 25.0" stroke="#FF0000" fill="none" stroke-width="4px" />
<path d="M 2010.0 25.0 L 2000.0 25.0" stroke="#FF0000" fill="none" stroke-width="4px" />
<path d="M 2000.0 25.0 L 1990.0 25.0" stroke="#FF0000" fill="none" stroke-width="4px" />
<path d="M 1990.0 25.0 L 1980.0 25.0" stroke="#FF0000" fill="none" stroke-width="4px" />
<path d="M 1980.0 25.0 L 1970.0 25.0" stroke="#FF0000" fill="none" stroke-width="4px" />
<path d="M 1970.0 25.0 L 1960.0 25.0" stroke="#FF0000" fill="none" stroke-width="4px" />
<path d="M 1960.0 45.0 L 1970.0 45.0" stroke="#FF0000" fill="none" stroke-width="4px" />
<path d="M 1970.0 45.0 L 1980.0 45.0" stroke="#FF0000" fill="none" stroke-width="4px" />
<path d="M 1980.0 45.0 L 1990.0 45.0" stroke="#FF0000" fill="none" stroke-width="4px" />
<path d="M 1990.0 45.0 L 2000.0 45.0" stroke="#FF0000" fill="none" stroke-width="4px" />
<path d="M 2000.0 45.0 L 2010.0 45.0" stroke="#FF0000" fill="none" stroke-width="4px" />
<path d="M 2010.0 45.0 L 2020.0 45.0" stroke="#FF0000" fill="none" stroke-width="4px" />
<path d="M 2020.0 45.0 L 2020.0 55.0" stroke="#FF0000" fill="none" stroke-width="4px" />
<path d="M 2020.0 55.0 L 2010.0 55.0" stroke="#FF0000" fill="none" stroke-width="4px" />
<path d="M 2010.0 55.0 L 2000.0 55.0" stroke="#FF0000" fill="none" stroke-width="4px" />
<path d="M 2000.0 55.0 L 1990.0 55.0" stroke="#FF0000" fill="none" stroke-width="4px" />
<path d="M 1990.0 55.0 L 1980.0 55.0" stroke="#FF0000" fill="none" stroke-width="4px" />
<path d="M 1980.0 55.0 L 1970.0 55.0" stroke="#FF0000" fill="none" stroke-width="4px" />
<path d="M 1990.0 65.0 L 2000.0 65.0" stroke="#FF0000" fill="none" stroke-width="4px" />
<path d="M 2000.0 5.0 L 1990.0 5.0" stroke="#FF0000" fill="none" stroke-width="4px" />
<path d="M 1990.0 5.0 L 1980.0 5.0" stroke="#FF0000" fill="none" stroke-width="4px" />
<path d="M 1980.0 5.0 L 1970.0 5.0" stroke="#FF0000" fill="none" stroke-width="4px" />
<path d="M 1970.0 5.0 L 1960.0 5.0" stroke="#FF0000" fill="none" stroke-width="4px" />
<path d="M 1960.0 5.0 L 1950.0 5.0" stroke="#FF0000" fill="none" stroke-width="4px" />
<path d="M 1950.0 5.0 L 1940.0 5.0" stroke="#FF0000" fill="none" stroke-width="4px" />
<path d="M 1940.0 5.0 L 1940.0 -5.0" stroke="#FF0000" fill="none" stroke-width="4px" />
<path d="M 1940.0 -5.0 L 1950.0 -5.0" stroke="#FF0000" fill="none" stroke-width="4px" />
<path d="M 1950.0 -5.0 L 1960.0 -5.0" stroke="#FF0000" fill="none" stroke-width="4px" />
<path d="M 1960.0 -5.0 L 1970.0 -5.0" stroke="#FF0000" fill="none" stroke-width="4px" />
<path d="M 1970.0 -5.0 L 1980.0 -5.0" stroke="#FF0000" fill="none" stroke-width="4px" />
<path d="M 1980.0 -5.0 L 1990.0 -5.0" stroke="#FF0000" fill="none" stroke-width="4px" />
<path d="M 1990.0 -5.0 L 2000.0 -5.0" stroke="#FF0000" fill="none" stroke-width="4px" />
<path d="M 2000.0 -5.0 L 2010.0 -5.0" stroke="#FF0000" fill="none" stroke-width="4px" />
<path d="M 2010.0 -5.0 L 2020.0 -5.0" stroke="#FF0000" fill="none" stroke-width="4px" />
<path d="M 2020.0 -5.0 L 2020.0 5.0" stroke="#FF0000" fill="none" stroke-width="4px" />
<path d="M 2020.0 5.0 L 2010.0 5.0" stroke="#FF0000" fill="none" stroke-width="4px" />
</svg>