<svg width="1332.95833333" height="235.0" xmlns="http://www.w3.org/2000/svg" version="1.1">
<path d="M 0.0 235.0 L 1332.95833333 235.0 L 1332.95833333 0.0 L 0.0 0.0 L 0.0 235.0" stroke="#000000" fill="none" stroke-width="3px" />
<path d="M 10.0 257.5 L 0.0 247.5 L 10.0 237.5" stroke="#969696" fill="none" stroke-width="1px" />
<path d="M 10.0 237.5 L 1322.95833333 237.5" stroke="#969696" fill="none" stroke-width="1px" />
<path d="M 1322.95833333 237.5 L 1332.95833333 227.5 L 1322.95833333 217.5" stroke="#969696" fill="none" stroke-width="1px" />
<path d="M 1322.95833333 217.5 L 10.0 217.5" stroke="#969696" fill="none" stroke-width="1px" />
<path d="M 10.0 217.5 L 0.0 207.5 L 10.0 197.5" stroke="#969696" fill="none" stroke-width="1px" />
<path d="M 10.0 197.5 L 1322.95833333 197.5" stroke="#969696" fill="none" stroke-width="1px" />
<path d="M 1322.95833333 197.5 L 1332.95833333 187.5 L 1322.95833333 177.5" stroke="#969696" fill="none" stroke-width="1px" />
<path d="M 1322.95833333 177.5 L 10.0 177.5" stroke="#969696" fill="none" stroke-width="1px" />
<path d="M 10.0 177.5 L 0.0 167.5 L 10.0 157.5" stroke="#969696" fill="none" stroke-width="1px" />
<path d="M 10.0 157.5 L 1322.95833333 157.5" stroke="#969696" fill="none" stroke-width="1px" />
<path d="M 1322.95833333 157.5 L 1332.95833333 147.5 L 1322.95833333 137.5" stroke="#969696" fill="none" stroke-width="1px" />
<path d="M 1322.95833333 137.5 L 10.0 137.5" stroke="#969696" fill="none" stroke-width="1px" />
<path d="M 10.0 137.5 L 0.0 127.5 L 10.0 117.5" stroke="#969696" fill="none" stroke-width="1px" />
<path d="M 10.0 117.5 L 1322.95833333 117.5" stroke="#969696" fill="none" stroke-width="1px" />
<path d="M 1322.95833333 117.5 L 1332.95833333 107.5 L 1322.95833333 97.5" stroke="#969696" fill="none" stroke-width="1px" />
<path d="M 1322.95833333 97.5 L 10.0 97.5" stroke="#969696" fill="none" stroke-width="1px" />
<path d="M 10.0 97.5 L 0.0 87.5 L 10.0 77.5" stroke="#969696" fill="none" stroke-width="1px" />
<path d="M 10.0 77.5 L 1322.95833333 77.5" stroke="#969696" fill="none" stroke-width="1px" />
<path d="M 1322.95833333 77.5 L 1332.95833333 67.5 L 1322.95833333 57.5" stroke="#969696" fill="none" stroke-width="1px" />
<path d="M 1322.95833333 57.5 L 10.0 57.5" stroke="#969696" fill="none" stroke-width="1px" />
<path d="M 10.0 57.5 L 0.0 47.5 L 10.0 37.5" stroke="#969696" fill="none" stroke-width="1px" />
<path d="M 10.0 37.5 L 1322.95833333 37.5" stroke="#969696" fill="none" stroke-width="1px" />
<path d="M 1322.95833333 37.5 L 1332.95833333 27.5 L 1322.95833333 17.5" stroke="#969696" fill="none" stroke-width="1px" />
<path d="M 1322.95833333 17.5 L 10.0 17.5" stroke="#969696" fill="none" stroke-width="1px" />
<path d="M 10.0 17.5 L 0.0 7.5 L 10.0 -2.5" stroke="#969696" fill="none" stroke-width="1px" />
<path d="M 10.0 -2.5 L 1322.95833333 -2.5" stroke="#969696" fill="none" stroke-width="1px" />
<path d="M 1322.95833333 -2.5 L 1332.95833333 -12.5 L 1322.95833333 -22.5" stroke="#969696" fill="none" stroke-width="1px" />
<path d="M 0.0 235.0 L 230.0 105.0" stroke="#0095FF" fill="none" stroke-width="2px" />
<path d="M 250.0 115.0 L 270.0 125.0" stroke="#0095FF" fill="none" stroke-width="2px" />
<path d="M 290.0 135.0 L 290.0 95.0" stroke="#0095FF" fill="none" stroke-width="2px" />
<path d="M 240.0 85.0 L 240.0 65.0" stroke="#0095FF" fill="none" stroke-width="2px" />
<path d="M 290.0 65.0 L 310.0 85.0" stroke="#0095FF" fill="none" stroke-width="2px" />
<path d="M 300.0 95.0 L 790.0 165.0" stroke="#0095FF" fill="none" stroke-width="2px" />
<path d="M 810.0 195.0 L 810.0 155.0" stroke="#0095FF" fill="none" stroke-width="2px" />
<path d="M 820.0 155.0 L 850.0 155.0" stroke="#0095FF" fill="none" stroke-width="2px" />
<path d="M 850.0 155.0 L 900.0 95.0" stroke="#0095FF" fill="none" stroke-width="2px" />
<path d="M 910.0 35.0 L 940.0 25.0" stroke="#0095FF" fill="none" stroke-width="2px" />
<path d="M 950.0 25.0 L 950.0 75.0" stroke="#0095FF" fill="none" stroke-width="2px" />
<path d="M 900.0 75.0 L 920.0 85.0" stroke="#0095FF" fill="none" stroke-width="2px" />
<path d="M 940.0 85.0 L 1020.0 145.0" stroke="#0095FF" fill="none" stroke-width="2px" />
<path d="M 1030.0 215.0 L 1030.0 165.0" stroke="#0095FF" fill="none" stroke-width="2px" />
<path d="M 1040.0 165.0 L 1100.0 95.0" stroke="#0095FF" fill="none" stroke-width="2px" />
<path d="M 1130.0 85.0 L 1120.0 65.0" stroke="#0095FF" fill="none" stroke-width="2px" />
<path d="M 1120.0 65.0 L 1100.0 45.0" stroke="#0095FF" fill="none" stroke-width="2px" />
<path d="M 230.0 105.0 L 240.0 105.0" stroke="#FF0000" fill="none" stroke-width="4px" />
<path d="M 240.0 105.0 L 250.0 105.0" stroke="#FF0000" fill="none" stroke-width="4px" />
<path d="M 250.0 105.0 L 260.0 105.0" stroke="#FF0000" fill="none" stroke-width="4px" />
<path d="M 260.0 105.0 L 270.0 105.0" stroke="#FF0000" fill="none" stroke-width="4px" />
<path d="M 270.0 105.0 L 280.0 105.0" stroke="#FF0000" fill="none" stroke-width="4px" />
<path d="M 280.0 105.0 L 290.0 105.0" stroke="#FF0000" fill="none" stroke-width="4px" />
<path d="M 290.0 105.0 L 300.0 105.0" stroke="#FF0000" fill="none" stroke-width="4px" />
<path d="M 300.0 105.0 L 310.0 105.0" stroke="#FF0000" fill="none" stroke-width="4px" />
<path d="M 310.0 105.0 L 310.0 115.0" stroke="#FF0000" fill="none" stroke-width="4px" />
<path d="M 310.0 115.0 L 300.0 115.0" stroke="#FF0000" fill="none" stroke-width="4px" />
<path d="M 300.0 115.0 L 290.0 115.0" stroke="#FF0000" fill="none" stroke-width="4px" />
<path d="M 290.0 115.0 L 280.0 115.0" stroke="#FF0000" fill="none" stroke-width="4px" />
<path d="M 280.0 115.0 L 270.0 115.0" stroke="#FF0000" fill="none" stroke-width="4px" />
<path d="M 270.0 115.0 L 260.0 115.0" stroke="#FF0000" fill="none" stroke-width="4px" />
<path d="M 260.0 115.0 L 250.0 115.0" stroke="#FF0000" fill="none" stroke-width="4px" />
<path d="M 270.0 125.0 L 280.0 125.0" stroke="#FF0000" fill="none" stroke-width="4px" />
<path d="M 280.0 125.0 L 290.0 125.0" stroke="#FF0000" fill="none" stroke-width="4px" />
<path d="M 290.0 125.0 L 300.0 125.0" stroke="#FF0000" fill="none" stroke-width="4px" />
<path d="M 300.0 125.0 L 290.0 135.0" stroke="#FF0000" fill="none" stroke-width="4px" />
<path d="M 290.0 95.0 L 280.0 95.0" stroke="#FF0000" fill="none" stroke-width="4px" />
<path d="M 280.0 95.0 L 270.0 95.0" stroke="#FF0000" fill="none" stroke-width="4px" />
<path d="M 270.0 95.0 L 260.0 95.0" stroke="#FF0000" fill="none" stroke-width="4px" />
<path d="M 260.0 95.0 L 250.0 95.0" stroke="#FF0000" fill="none" stroke-width="4px" />
<path d="M 250.0 95.0 L 240.0 95.0" stroke="#FF0000" fill="none" stroke-width="4px" />
<path d="M 240.0 95.0 L 230.0 95.0" stroke="#FF0000" fill="none" stroke-width="4px" />
<path d="M 230.0 95.0 L 230.0 85.0" stroke="#FF0000" fill="none" stroke-width="4px" />
<path d="M 230.0 85.0 L 220.0 85.0" stroke="#FF0000" fill="none" stroke-width="4px" />
<path d="M 220.0 85.0 L 230.0 75.0" stroke="#FF0000" fill="none" stroke-width="4px" />
<path d="M 230.0 75.0 L 240.0 75.0" stroke="#FF0000" fill="none" stroke-width="4px" />
<path d="M 240.0 75.0 L 250.0 75.0" stroke="#FF0000" fill="none" stroke-width="4px" />
<path d="M 250.0 75.0 L 260.0 75.0" stroke="#FF0000" fill="none" stroke-width="4px" />
<path d="M 260.0 75.0 L 270.0 75.0" stroke="#FF0000" fill="none" stroke-width="4px" />
<path d="M 270.0 75.0 L 280.0 75.0" stroke="#FF0000" fill="none" stroke-width="4px" />
<path d="M 280.0 75.0 L 290.0 75.0" stroke="#FF0000" fill="none" stroke-width="4px" />
<path d="M 290.0 75.0 L 300.0 75.0" stroke="#FF0000" fill="none" stroke-width="4px" />
<path d="M 300.0 75.0 L 300.0 85.0" stroke="#FF0000" fill="none" stroke-width="4px" />
<path d="M 300.0 85.0 L 290.0 85.0" stroke="#FF0000" fill="none" stroke-width="4px" />
<path d="M 290.0 85.0 L 280.0 85.0" stroke="#FF0000" fill="none" stroke-width="4px" />
<path d="M 280.0 85.0 L 270.0 85.0" stroke="#FF0000" fill="none" stroke-width="4px" />
<path d="M 270.0 85.0 L 260.0 85.0" stroke="#FF0000" fill="none" stroke-width="4px" />
<path d="M 260.0 85.0 L 250.0 85.0" stroke="#FF0000" fill="none" stroke-width="4px" />
<path d="M 250.0 85.0 L 240.0 85.0" stroke="#FF0000" fill="none" stroke-width="4px" />
<path d="M 240.0 65.0 L 250.0 65.0" stroke="#FF0000" fill="none" stroke-width="4px" />
<path d="M 250.0 65.0 L 260.0 65.0" stroke="#FF0000" fill="none" stroke-width="4px" />
<path d="M 260.0 65.0 L 270.0 65.0" stroke="#FF0000" fill="none" stroke-width="4px" />
<path d="M 270.0 65.0 L 280.0 65.0" stroke="#FF0000" fill="none" stroke-width="4px" />
<path d="M 280.0 65.0 L 290.0 65.0" stroke="#FF0000" fill="none" stroke-width="4px" />
<path d="M 310.0 85.0 L 310.0 95.0" stroke="#FF0000" fill="none" stroke-width="4px" />
<path d="M 310.0 95.0 L 300.0 95.0" stroke="#FF0000" fill="none" stroke-width="4px" />
<path d="M 790.0 165.0 L 800.0 165.0" stroke="#FF0000" fill="none" stroke-width="4px" />
<path d="M 800.0 165.0 L 810.0 165.0" stroke="#FF0000" fill="none" stroke-width="4px" />
<path d="M 810.0 165.0 L 820.0 165.0" stroke="#FF0000" fill="none" stroke-width="4px" />
<path d="M 820.0 165.0 L 830.0 165.0" stroke="#FF0000" fill="none" stroke-width="4px" />
<path d="M 830.0 165.0 L 840.0 165.0" stroke="#FF0000" fill="none" stroke-width="4px" />
<path d="M 840.0 165.0 L 850.0 165.0" stroke="#FF0000" fill="none" stroke-width="4px" />
<path d="M 850.0 165.0 L 850.0 175.0" stroke="#FF0000" fill="none" stroke-width="4px" />
<path d="M 850.0 175.0 L 840.0 175.0" stroke="#FF0000" fill="none" stroke-width="4px" />
<path d="M 840.0 175.0 L 830.0 175.0" stroke="#FF0000" fill="none" stroke-width="4px" />
<path d="M 830.0 175.0 L 820.0 175.0" stroke="#FF0000" fill="none" stroke-width="4px" />
<path d="M 820.0 175.0 L 810.0 175.0" stroke="#FF0000" fill="none" stroke-width="4px" />
<path d="M 810.0 175.0 L 800.0 175.0" stroke="#FF0000" fill="none" stroke-width="4px" />
<path d="M 800.0 175.0 L 790.0 175.0" stroke="#FF0000" fill="none" stroke-width="4px" />
<path d="M 790.0 175.0 L 800.0 185.0" stroke="#FF0000" fill="none" stroke-width="4px" />
<path d="M 800.0 185.0 L 810.0 185.0" stroke="#FF0000" fill="none" stroke-width="4px" />
<path d="M 810.0 185.0 L 820.0 185.0" stroke="#FF0000" fill="none" stroke-width="4px" />
<path d="M 820.0 185.0 L 830.0 185.0" stroke="#FF0000" fill="none" stroke-width="4px" />
<path d="M 830.0 185.0 L 840.0 185.0" stroke="#FF0000" fill="none" stroke-width="4px" />
<path d="M 840.0 185.0 L 830.0 195.0" stroke="#FF0000" fill="none" stroke-width="4px" />
<path d="M 830.0 195.0 L 820.0 195.0" stroke="#FF0000" fill="none" stroke-width="4px" />
<path d="M 820.0 195.0 L 810.0 195.0" stroke="#FF0000" fill="none" stroke-width="4px" />
<path d="M 810.0 155.0 L 800.0 155.0" stroke="#FF0000" fill="none" stroke-width="4px" />
<path d="M 800.0 155.0 L 810.0 145.0" stroke="#FF0000" fill="none" stroke-width="4px" />
<path d="M 810.0 145.0 L 820.0 145.0" stroke="#FF0000" fill="none" stroke-width="4px" />
<path d="M 820.0 145.0 L 830.0 145.0" stroke="#FF0000" fill="none" stroke-width="4px" />
<path d="M 830.0 145.0 L 840.0 145.0" stroke="#FF0000" fill="none" stroke-width="4px" />
<path d="M 840.0 145.0 L 840.0 155.0" stroke="#FF0000" fill="none" stroke-width="4px" />
<path d="M 840.0 155.0 L 830.0 155.0" stroke="#FF0000" fill="none" stroke-width="4px" />
<path d="M 830.0 155.0 L 820.0 155.0" stroke="#FF0000" fill="none" stroke-width="4px" />
<path d="M 900.0 95.0 L 910.0 95.0" stroke="#FF0000" fill="none" stroke-width="4px" />
<path d="M 910.0 95.0 L 910.0 85.0" stroke="#FF0000" fill="none" stroke-width="4px" />
<path d="M 910.0 85.0 L 900.0 85.0" stroke="#FF0000" fill="none" stroke-width="4px" />
<path d="M 900.0 85.0 L 890.0 85.0" stroke="#FF0000" fill="none" stroke-width="4px" />
<path d="M 890.0 85.0 L 890.0 75.0" stroke="#FF0000" fill="none" stroke-width="4px" />
<path d="M 890.0 75.0 L 880.0 75.0" stroke="#FF0000" fill="none" stroke-width="4px" />
<path d="M 880.0 75.0 L 880.0 65.0" stroke="#FF0000" fill="none" stroke-width="4px" />
<path d="M 880.0 65.0 L 890.0 65.0" stroke="#FF0000" fill="none" stroke-width="4px" />
<path d="M 890.0 65.0 L 900.0 65.0" stroke="#FF0000" fill="none" stroke-width="4px" />
<path d="M 900.0 65.0 L 910.0 65.0" stroke="#FF0000" fill="none" stroke-width="4px" />
<path d="M 910.0 65.0 L 920.0 65.0" stroke="#FF0000" fill="none" stroke-width="4px" />
<path d="M 920.0 65.0 L 930.0 65.0" stroke="#FF0000" fill="none" stroke-width="4px" />
<path d="M 930.0 65.0 L 940.0 65.0" stroke="#FF0000" fill="none" stroke-width="4px" />
<path d="M 940.0 65.0 L 950.0 65.0" stroke="#FF0000" fill="none" stroke-width="4px" />
<path d="M 950.0 65.0 L 960.0 65.0" stroke="#FF0000" fill="none" stroke-width="4px" />
<path d="M 960.0 65.0 L 960.0 55.0" stroke="#FF0000" fill="none" stroke-width="4px" />
<path d="M 960.0 55.0 L 950.0 55.0" stroke="#FF0000" fill="none" stroke-width="4px" />
<path d="M 950.0 55.0 L 940.0 55.0" stroke="#FF0000" fill="none" stroke-width="4px" />
<path d="M 940.0 55.0 L 930.0 55.0" stroke="#FF0000" fill="none" stroke-width="4px" />
<path d="M 930.0 55.0 L 920.0 55.0" stroke="#FF0000" fill="none" stroke-width="4px" />
<path d="M 920.0 55.0 L 910.0 55.0" stroke="#FF0000" fill="none" stroke-width="4px" />
<path d="M 910.0 55.0 L 900.0 55.0" stroke="#FF0000" fill="none" stroke-width="4px" />
<path d="M 900.0 55.0 L 890.0 55.0" stroke="#FF0000" fill="none" stroke-width="4px" />
<path d="M 890.0 55.0 L 900.0 45.0" stroke="#FF0000" fill="none" stroke-width="4px" />
<path d="M 900.0 45.0 L 910.0 45.0" stroke="#FF0000" fill="none" stroke-width="4px" />
<path d="M 910.0 45.0 L 920.0 45.0" stroke="#FF0000" fill="none" stroke-width="4px" />
<path d="M 920.0 45.0 L 930.0 45.0" stroke="#FF0000" fill="none" stroke-width="4px" />
<path d="M 930.0 45.0 L 940.0 45.0" stroke="#FF0000" fill="none" stroke-width="4px" />
<path d="M 940.0 45.0 L 950.0 45.0" stroke="#FF0000" fill="none" stroke-width="4px" />
<path d="M 950.0 45.0 L 960.0 45.0" stroke="#FF0000" fill="none" stroke-width="4px" />
<path d="M 960.0 45.0 L 970.0 45.0" stroke="#FF0000" fill="none" stroke-width="4px" />
<path d="M 970.0 45.0 L 960.0 35.0" stroke="#FF0000" fill="none" stroke-width="4px" />
<path d="M 960.0 35.0 L 950.0 35.0" stroke="#FF0000" fill="none" stroke-width="4px" />
<path d="M 950.0 35.0 L 940.0 35.0" stroke="#FF0000" fill="none" stroke-width="4px" />
<path d="M 940.0 35.0 L 930.0 35.0" stroke="#FF0000" fill="none" stroke-width="4px" />
<path d="M 930.0 35.0 L 920.0 35.0" stroke="#FF0000" fill="none" stroke-width="4px" />
<path d="M 920.0 35.0 L 910.0 35.0" stroke="#FF0000" fill="none" stroke-width="4px" />
<path d="M 940.0 25.0 L 950.0 25.0" stroke="#FF0000" fill="none" stroke-width="4px" />
<path d="M 950.0 75.0 L 940.0 75.0" stroke="#FF0000" fill="none" stroke-width="4px" />
<path d="M 940.0 75.0 L 930.0 75.0" stroke="#FF0000" fill="none" stroke-width="4px" />
<path d="M 930.0 75.0 L 920.0 75.0" stroke="#FF0000" fill="none" stroke-width="4px" />
<path d="M 920.0 75.0 L 910.0 75.0" stroke="#FF0000" fill="none" stroke-width="4px" />
<path d="M 910.0 75.0 L 900.0 75.0" stroke="#FF0000" fill="none" stroke-width="4px" />
<path d="M 920.0 85.0 L 930.0 85.0" stroke="#FF0000" fill="none" stroke-width="4px" />
<path d="M 930.0 85.0 L 940.0 85.0" stroke="#FF0000" fill="none" stroke-width="4px" />
<path d="M 1020.0 145.0 L 1020.0 155.0" stroke="#FF0000" fill="none" stroke-width="4px" />
<path d="M 1020.0 155.0 L 1010.0 155.0" stroke="#FF0000" fill="none" stroke-width="4px" />
<path d="M 1010.0 155.0 L 1010.0 165.0" stroke="#FF0000" fill="none" stroke-width="4px" />
<path d="M 1010.0 165.0 L 1000.0 165.0" stroke="#FF0000" fill="none" stroke-width="4px" />
<path d="M 1000.0 165.0 L 1000.0 175.0" stroke="#FF0000" fill="none" stroke-width="4px" />
<path d="M 1000.0 175.0 L 1010.0 175.0" stroke="#FF0000" fill="none" stroke-width="4px" />
<path d="M 1010.0 175.0 L 1020.0 175.0" stroke="#FF0000" fill="none" stroke-width="4px" />
<path d="M 1020.0 175.0 L 1030.0 175.0" stroke="#FF0000" fill="none" stroke-width="4px" />
<path d="M 1030.0 175.0 L 1040.0 175.0" stroke="#FF0000" fill="none" stroke-width="4px" />
<path d="M 1040.0 175.0 L 1050.0 175.0" stroke="#FF0000" fill="none" stroke-width="4px" />
<path d="M 1050.0 175.0 L 1050.0 185.0" stroke="#FF0000" fill="none" stroke-width="4px" />
<path d="M 1050.0 185.0 L 1040.0 185.0" stroke="#FF0000" fill="none" stroke-width="4px" />
<path d="M 1040.0 185.0 L 1030.0 185.0" stroke="#FF0000" fill="none" stroke-width="4px" />
<path d="M 1030.0 185.0 L 1020.0 185.0" stroke="#FF0000" fill="none" stroke-width="4px" />
<path d="M 1020.0 185.0 L 1010.0 185.0" stroke="#FF0000" fill="none" stroke-width="4px" />
<path d="M 1010.0 185.0 L 1000.0 185.0" stroke="#FF0000" fill="none" stroke-width="4px" />
<path d="M 1000.0 185.0 L 1010.0 195.0" stroke="#FF0000" fill="none" stroke-width="4px" />
<path d="M 1010.0 195.0 L 1020.0 195.0" stroke="#FF0000" fill="none" stroke-width="4px" />
<path d="M 1020.0 195.0 L 1030.0 195.0" stroke="#FF0000" fill="none" stroke-width="4px" />
<path d="M 1030.0 195.0 L 1040.0 195.0" stroke="#FF0000" fill="none" stroke-width="4px" />
<path d="M 1040.0 195.0 L 1050.0 195.0" stroke="#FF0000" fill="none" stroke-width="4px" />
<path d="M 1050.0 195.0 L 1040.0 205.0" stroke="#FF0000" fill="none" stroke-width="4px" />
<path d="M 1040.0 205.0 L 1030.0 205.0" stroke="#FF0000" fill="none" stroke-width="4px" />
<path d="M 1030.0 205.0 L 1020.0 205.0" stroke="#FF0000" fill="none" stroke-width="4px" />
<path d="M 1020.0 205.0 L 1030.0 215.0" stroke="#FF0000" fill="none" stroke-width="4px" />
<path d="M 1030.0 165.0 L 1020.0 165.0" stroke="#FF0000" fill="none" stroke-width="4px" />
<path d="M 1020.0 165.0 L 1030.0 155.0" stroke="#FF0000" fill="none" stroke-width="4px" />
<path d="M 1030.0 155.0 L 1040.0 165.0" stroke="#FF0000" fill="none" stroke-width="4px" />
<path d="M 1100.0 95.0 L 1110.0 95.0" stroke="#FF0000" fill="none" stroke-width="4px" />
<path d="M 1110.0 95.0 L 1120.0 95.0" stroke="#FF0000" fill="none" stroke-width="4px" />
<path d="M 1120.0 95.0 L 1120.0 85.0" stroke="#FF0000" fill="none" stroke-width="4px" />
<path d="M 1120.0 85.0 L 1110.0 85.0" stroke="#FF0000" fill="none" stroke-width="4px" />
<path d="M 1110.0 85.0 L 1100.0 85.0" stroke="#FF0000" fill="none" stroke-width="4px" />
<path d="M 1100.0 85.0 L 1090.0 85.0" stroke="#FF0000" fill="none" stroke-width="4px" />
<path d="M 1090.0 85.0 L 1090.0 75.0" stroke="#FF0000" fill="none" stroke-width="4px" />
<path d="M 1090.0 75.0 L 1080.0 75.0" stroke="#FF0000" fill="none" stroke-width="4px" />
<path d="M 1080.0 75.0 L 1080.0 65.0" stroke="#FF0000" fill="none" stroke-width="4px" />
<path d="M 1080.0 65.0 L 1070.0 65.0" stroke="#FF0000" fill="none" stroke-width="4px" />
<path d="M 1070.0 65.0 L 1080.0 55.0" stroke="#FF0000" fill="none" stroke-width="4px" />
<path d="M 1080.0 55.0 L 1090.0 55.0" stroke="#FF0000" fill="none" stroke-width="4px" />
<path d="M 1090.0 55.0 L 1100.0 55.0" stroke="#FF0000" fill="none" stroke-width="4px" />
<path d="M 1100.0 55.0 L 1110.0 55.0" stroke="#FF0000" fill="none" stroke-width="4px" />
<path d="M 1110.0 55.0 L 1110.0 65.0" stroke="#FF0000" fill="none" stroke-width="4px" />
<path d="M 1110.0 65.0 L 1100.0 65.0" stroke="#FF0000" fill="none" stroke-width="4px" />
<path d="M 1100.0 65.0 L 1090.0 65.0" stroke="#FF0000" fill="none" stroke-width="4px" />
<path d="M 1090.0 65.0 L 1100.0 75.0" stroke="#FF0000" fill="none" stroke-width="4px" />
<path d="M 1100.0 75.0 L 1110.0 75.0" stroke="#FF0000" fill="none" stroke-width="4px" />
<path d="M 1110.0 75.0 L 1120.0 75.0" stroke="#FF0000" fill="none" stroke-width="4px" />
<path d="M 1120.0 75.0 L 1130.0 75.0" stroke="#FF0000" fill="none" stroke-width="4px" />
<path d="M 1130.0 75.0 L 1130.0 85.0" stroke="#FF0000" fill="none" stroke-width="4px" />
<path d="M 1100.0 45.0 L 1090.0 45.0" stroke="#FF0000" fill="none" stroke-width="4px" />
</svg>