<svg width="2472.26666667" height="235.0" xmlns="http://www.w3.org/2000/svg" version="1.1">
<path d="M 0.0 235.0 L 1985.0 235.0 L 1985.0 0.0 L 0.0 0.0 L 0.0 235.0" stroke="#000000" fill="none" stroke-width="3px" />
<path d="M 2472.26666667 235.0 L 1885.0 235.0 L 1885.0 0.0 L 2472.26666667 0.0 L 2472.26666667 235.0" stroke="#000000" fill="none" stroke-width="3px" />
<path d="M 10.0 257.5 L 0.0 247.5 L 10.0 237.5" stroke="#969696" fill="none" stroke-width="1px" />
<path d="M 10.0 237.5 L 1975.0 237.5" stroke="#969696" fill="none" stroke-width="1px" />
<path d="M 1975.0 237.5 L 1985.0 227.5 L 1975.0 217.5" stroke="#969696" fill="none" stroke-width="1px" />
<path d="M 1975.0 217.5 L 10.0 217.5" stroke="#969696" fill="none" stroke-width="1px" />
<path d="M 10.0 217.5 L 0.0 207.5 L 10.0 197.5" stroke="#969696" fill="none" stroke-width="1px" />
<path d="M 10.0 197.5 L 1975.0 197.5" stroke="#969696" fill="none" stroke-width="1px" />
<path d="M 1975.0 197.5 L 1985.0 187.5 L 1975.0 177.5" stroke="#969696" fill="none" stroke-width="1px" />
<path d="M 1975.0 177.5 L 10.0 177.5" stroke="#969696" fill="none" stroke-width="1px" />
<path d="M 10.0 177.5 L 0.0 167.5 L 10.0 157.5" stroke="#969696" fill="none" stroke-width="1px" />
<path d="M 10.0 157.5 L 1975.0 157.5" stroke="#969696" fill="none" stroke-width="1px" />
<path d="M 1975.0 157.5 L 1985.0 147.5 L 1975.0 137.5" stroke="#969696" fill="none" stroke-width="1px" />
<path d="M 1975.0 137.5 L 10.0 137.5" stroke="#969696" fill="none" stroke-width="1px" />
<path d="M 10.0 137.5 L 0.0 127.5 L 10.0 117.5" stroke="#969696" fill="none" stroke-width="1px" />
<path d="M 10.0 117.5 L 1975.0 117.5" stroke="#969696" fill="none" stroke-width="1px" />
<path d="M 1975.0 117.5 L 1985.0 107.5 L 1975.0 97.5" stroke="#969696" fill="none" stroke-width="1px" />
<path d="M 1975.0 97.5 L 10.0 97.5" stroke="#969696" fill="none" stroke-width="1px" />
<path d="M 10.0 97.5 L 0.0 87.5 L 10.0 77.5" stroke="#969696" fill="none" stroke-width="1px" />
<path d="M 10.0 77.5 L 1975.0 77.5" stroke="#969696" fill="none" stroke-width="1px" />
<path d="M 1975.0 77.5 L 1985.0 67.5 L 1975.0 57.5" stroke="#969696" fill="none" stroke-width="1px" />
<path d="M 1975.0 57.5 L 10.0 57.5" stroke="#969696" fill="none" stroke-width="1px" />
<path d="M 10.0 57.5 L 0.0 47.5 L 10.0 37.5" stroke="#969696" fill="none" stroke-width="1px" />
<path d="M 10.0 37.5 L 1975.0 37.5" stroke="#969696" fill="none" stroke-width="1px" />
<path d="M 1975.0 37.5 L 1985.0 27.5 L 1975.0 17.5" stroke="#969696" fill="none" stroke-width="1px" />
<path d="M 1975.0 17.5 L 10.0 17.5" stroke="#969696" fill="none" stroke-width="1px" />
<path d="M 10.0 17.5 L 0.0 7.5 L 10.0 -2.5" stroke="#969696" fill="none" stroke-width="1px" />
<path d="M 10.0 -2.5 L 1975.0 -2.5" stroke="#969696" fill="none" stroke-width="1px" />
<path d="M 1975.0 -2.5 L 1985.0 -12.5 L 1975.0 -22.5" stroke="#969696" fill="none" stroke-width="1px" />
<path d="M 2462.26666667 257.5 L 2472.26666667 247.5 L 2462.26666667 237.5" stroke="#969696" fill="none" stroke-width="1px" />
<path d="M 2462.26666667 237.5 L 1895.0 237.5" stroke="#969696" fill="none" stroke-width="1px" />
<path d="M 1895.0 237.5 L 1885.0 227.5 L 1895.0 217.5" stroke="#969696" fill="none" stroke-width="1px" />
<path d="M 1895.0 217.5 L 2462.26666667 217.5" stroke="#969696" fill="none" stroke-width="1px" />
<path d="M 2462.26666667 217.5 L 2472.26666667 207.5 L 2462.26666667 197.5" stroke="#969696" fill="none" stroke-width="1px" />
<path d="M 2462.26666667 197.5 L 1895.0 197.5" stroke="#969696" fill="none" stroke-width="1px" />
<path d="M 1895.0 197.5 L 1885.0 187.5 L 1895.0 177.5" stroke="#969696" fill="none" stroke-width="1px" />
<path d="M 1895.0 177.5 L 2462.26666667 177.5" stroke="#969696" fill="none" stroke-width="1px" />
<path d="M 2462.26666667 177.5 L 2472.26666667 167.5 L 2462.26666667 157.5" stroke="#969696" fill="none" stroke-width="1px" />
<path d="M 2462.26666667 157.5 L 1895.0 157.5" stroke="#969696" fill="none" stroke-width="1px" />
<path d="M 1895.0 157.5 L 1885.0 147.5 L 1895.0 137.5" stroke="#969696" fill="none" stroke-width="1px" />
<path d="M 1895.0 137.5 L 2462.26666667 137.5" stroke="#969696" fill="none" stroke-width="1px" />
<path d="M 2462.26666667 137.5 L 2472.26666667 127.5 L 2462.26666667 117.5" stroke="#969696" fill="none" stroke-width="1px" />
<path d="M 2462.26666667 117.5 L 1895.0 117.5" stroke="#969696" fill="none" stroke-width="1px" />
<path d="M 1895.0 117.5 L 1885.0 107.5 L 1895.0 97.5" stroke="#969696" fill="none" stroke-width="1px" />
<path d="M 1895.0 97.5 L 2462.26666667 97.5" stroke="#969696" fill="none" stroke-width="1px" />
<path d="M 2462.26666667 97.5 L 2472.26666667 87.5 L 2462.26666667 77.5" stroke="#969696" fill="none" stroke-width="1px" />
<path d="M 2462.26666667 77.5 L 1895.0 77.5" stroke="#969696" fill="none" stroke-width="1px" />
<path d="M 1895.0 77.5 L 1885.0 67.5 L 1895.0 57.5" stroke="#969696" fill="none" stroke-width="1px" />
<path d="M 1895.0 57.5 L 2462.26666667 57.5" stroke="#969696" fill="none" stroke-width="1px" />
<path d="M 2462.26666667 57.5 L 2472.26666667 47.5 L 2462.26666667 37.5" stroke="#969696" fill="none" stroke-width="1px" />
<path d="M 2462.26666667 37.5 L 1895.0 37.5" stroke="#969696" fill="none" stroke-width="1px" />
<path d="M 1895.0 37.5 L 1885.0 27.5 L 1895.0 17.5" stroke="#969696" fill="none" stroke-width="1px" />
<path d="M 1895.0 17.5 L 2462.26666667 17.5" stroke="#969696" fill="none" stroke-width="1px" />
<path d="M 2462.26666667 17.5 L 2472.26666667 7.5 L 2462.26666667 -2.5" stroke="#969696" fill="none" stroke-width="1px" />
<path d="M 2462.26666667 -2.5 L 1895.0 -2.5" stroke="#969696" fill="none" stroke-width="1px" />
<path d="M 1895.0 -2.5 L 1885.0 -12.5 L 1895.0 -22.5" stroke="#969696" fill="none" stroke-width="1px" />
<path d="M 0.0 235.0 L 270.0 105.0" stroke="#0095FF" fill="none" stroke-width="2px" />
<path d="M 290.0 125.0 L 290.0 95.0" stroke="#0095FF" fill="none" stroke-width="2px" />
<path d="M 270.0 105.0 L 280.0 105.0" stroke="#FF0000" fill="none" stroke-width="4px" />
<path d="M 280.0 105.0 L 290.0 105.0" stroke="#FF0000" fill="none" stroke-width="4px" />
<path d="M 290.0 105.0 L 300.0 105.0" stroke="#FF0000" fill="none" stroke-width="4px" />
<path d="M 300.0 105.0 L 300.0 115.0" stroke="#FF0000" fill="none" stroke-width="4px" />
<path d="M 300.0 115.0 L 290.0 115.0" stroke="#FF0000" fill="none" stroke-width="4px" />
<path d="M 290.0 115.0 L 280.0 115.0" stroke="#FF0000" fill="none" stroke-width="4px" />
<path d="M 280.0 115.0 L 290.0 125.0" stroke="#FF0000" fill="none" stroke-width="4px" />
<path d="M 290.0 95.0 L 280.0 95.0" stroke="#FF0000" fill="none" stroke-width="4px" />
<path d="M 280.0 95.0 L 290.0 85.0" stroke="#FF0000" fill="none" stroke-width="4px" />
<path d="M 290.0 85.0 L 300.0 95.0" stroke="#FF0000" fill="none" stroke-width="4px" />
</svg>