<svg width="1332.95833333" height="235.0" xmlns="http://www.w3.org/2000/svg" version="1.1">
<path d="M 0.0 235.0 L 1332.95833333 235.0 L 1332.95833333 0.0 L 0.0 0.0 L 0.0 235.0" stroke="#000000" fill="none" stroke-width="3px" />
<path d="M 10.0 257.5 L 0.0 247.5 L 10.0 237.5" stroke="#969696" fill="none" stroke-width="1px" />
<path d="M 10.0 237.5 L 1322.95833333 237.5" stroke="#969696" fill="none" stroke-width="1px" />
<path d="M 1322.95833333 237.5 L 1332.95833333 227.5 L 1322.95833333 217.5" stroke="#969696" fill="none" stroke-width="1px" />
<path d="M 1322.95833333 217.5 L 10.0 217.5" stroke="#969696" fill="none" stroke-width="1px" />
<path d="M 10.0 217.5 L 0.0 207.5 L 10.0 197.5" stroke="#969696" fill="none" stroke-width="1px" />
<path d="M 10.0 197.5 L 1322.95833333 197.5" stroke="#969696" fill="none" stroke-width="1px" />
<path d="M 1322.95833333 197.5 L 1332.95833333 187.5 L 1322.95833333 177.5" stroke="#969696" fill="none" stroke-width="1px" />
<path d="M 1322.95833333 177.5 L 10.0 177.5" stroke="#969696" fill="none" stroke-width="1px" />
<path d="M 10.0 177.5 L 0.0 167.5 L 10.0 157.5" stroke="#969696" fill="none" stroke-width="1px" />
<path d="M 10.0 157.5 L 1322.95833333 157.5" stroke="#969696" fill="none" stroke-width="1px" />
<path d="M 1322.95833333 157.5 L 1332.95833333 147.5 L 1322.95833333 137.5" stroke="#969696" fill="none" stroke-width="1px" />
<path d="M 1322.95833333 137.5 L 10.0 137.5" stroke="#969696" fill="none" stroke-width="1px" />
<path d="M 10.0 137.5 L 0.0 127.5 L 10.0 117.5" stroke="#969696" fill="none" stroke-width="1px" />
<path d="M 10.0 117.5 L 1322.95833333 117.5" stroke="#969696" fill="none" stroke-width="1px" />
<path d="M 1322.95833333 117.5 L 1332.95833333 107.5 L 1322.95833333 97.5" stroke="#969696" fill="none" stroke-width="1px" />
<path d="M 1322.95833333 97.5 L 10.0 97.5" stroke="#969696" fill="none" stroke-width="1px" />
<path d="M 10.0 97.5 L 0.0 87.5 L 10.0 77.5" stroke="#969696" fill="none" stroke-width="1px" />
<path d="M 10.0 77.5 L 1322.95833333 77.5" stroke="#969696" fill="none" stroke-width="1px" />
<path d="M 1322.95833333 77.5 L 1332.95833333 67.5 L 1322.95833333 57.5" stroke="#969696" fill="none" stroke-width="1px" />
<path d="M 1322.95833333 57.5 L 10.0 57.5" stroke="#969696" fill="none" stroke-width="1px" />
<path d="M 10.0 57.5 L 0.0 47.5 L 10.0 37.5" stroke="#969696" fill="none" stroke-width="1px" />
<path d="M 10.0 37.5 L 1322.95833333 37.5" stroke="#969696" fill="none" stroke-width="1px" />
<path d="M 1322.95833333 37.5 L 1332.95833333 27.5 L 1322.95833333 17.5" stroke="#969696" fill="none" stroke-width="1px" />
<path d="M 1322.95833333 17.5 L 10.0 17.5" stroke="#969696" fill="none" stroke-width="1px" />
<path d="M 10.0 17.5 L 0.0 7.5 L 10.0 -2.5" stroke="#969696" fill="none" stroke-width="1px" />
<path d="M 10.0 -2.5 L 1322.95833333 -2.5" stroke="#969696" fill="none" stroke-width="1px" />
<path d="M 1322.95833333 -2.5 L 1332.95833333 -12.5 L 1322.95833333 -22.5" stroke="#969696" fill="none" stroke-width="1px" />
<path d="M 0.0 235.0 L 40.0 235.0" stroke="#0095FF" fill="none" stroke-width="2px" />
<path d="M 40.0 235.0 L 40.0 105.0" stroke="#0095FF" fill="none" stroke-width="2px" />
<path d="M 50.0 95.0 L 50.0 65.0" stroke="#0095FF" fill="none" stroke-width="2px" />
<path d="M 40.0 65.0 L 150.0 65.0" stroke="#0095FF" fill="none" stroke-width="2px" />
<path d="M 150.0 65.0 L 150.0 115.0" stroke="#0095FF" fill="none" stroke-width="2px" />
<path d="M 190.0 185.0 L 190.0 145.0" stroke="#0095FF" fill="none" stroke-width="2px" />
<path d="M 200.0 145.0 L 170.0 145.0" stroke="#0095FF" fill="none" stroke-width="2px" />
<path d="M 170.0 145.0 L 170.0 125.0" stroke="#0095FF" fill="none" stroke-width="2px" />
<path d="M 170.0 125.0 L 350.0 125.0" stroke="#0095FF" fill="none" stroke-width="2px" />
<path d="M 350.0 125.0 L 350.0 105.0" stroke="#0095FF" fill="none" stroke-width="2px" />
<path d="M 420.0 115.0 L 410.0 115.0" stroke="#0095FF" fill="none" stroke-width="2px" />
<path d="M 410.0 115.0 L 410.0 135.0" stroke="#0095FF" fill="none" stroke-width="2px" />
<path d="M 380.0 135.0 L 380.0 95.0" stroke="#0095FF" fill="none" stroke-width="2px" />
<path d="M 410.0 95.0 L 390.0 95.0" stroke="#0095FF" fill="none" stroke-width="2px" />
<path d="M 390.0 95.0 L 390.0 75.0" stroke="#0095FF" fill="none" stroke-width="2px" />
<path d="M 370.0 75.0 L 620.0 75.0" stroke="#0095FF" fill="none" stroke-width="2px" />
<path d="M 620.0 75.0 L 620.0 55.0" stroke="#0095FF" fill="none" stroke-width="2px" />
<path d="M 680.0 75.0 L 660.0 75.0" stroke="#0095FF" fill="none" stroke-width="2px" />
<path d="M 660.0 75.0 L 660.0 85.0" stroke="#0095FF" fill="none" stroke-width="2px" />
<path d="M 640.0 85.0 L 640.0 45.0" stroke="#0095FF" fill="none" stroke-width="2px" />
<path d="M 650.0 45.0 L 690.0 45.0" stroke="#0095FF" fill="none" stroke-width="2px" />
<path d="M 690.0 45.0 L 1050.0 45.0" stroke="#0095FF" fill="none" stroke-width="2px" />
<path d="M 1050.0 45.0 L 1050.0 65.0" stroke="#0095FF" fill="none" stroke-width="2px" />
<path d="M 1110.0 75.0 L 1100.0 75.0" stroke="#0095FF" fill="none" stroke-width="2px" />
<path d="M 1100.0 75.0 L 1100.0 95.0" stroke="#0095FF" fill="none" stroke-width="2px" />
<path d="M 1100.0 105.0 L 1090.0 105.0" stroke="#0095FF" fill="none" stroke-width="2px" />
<path d="M 1090.0 105.0 L 1090.0 55.0" stroke="#0095FF" fill="none" stroke-width="2px" />
<path d="M 40.0 105.0 L 40.0 95.0" stroke="#FF0000" fill="none" stroke-width="4px" />
<path d="M 40.0 95.0 L 30.0 95.0" stroke="#FF0000" fill="none" stroke-width="4px" />
<path d="M 30.0 95.0 L 30.0 85.0" stroke="#FF0000" fill="none" stroke-width="4px" />
<path d="M 30.0 85.0 L 20.0 85.0" stroke="#FF0000" fill="none" stroke-width="4px" />
<path d="M 20.0 85.0 L 30.0 75.0" stroke="#FF0000" fill="none" stroke-width="4px" />
<path d="M 30.0 75.0 L 40.0 75.0" stroke="#FF0000" fill="none" stroke-width="4px" />
<path d="M 40.0 75.0 L 50.0 75.0" stroke="#FF0000" fill="none" stroke-width="4px" />
<path d="M 50.0 75.0 L 60.0 75.0" stroke="#FF0000" fill="none" stroke-width="4px" />
<path d="M 60.0 75.0 L 60.0 85.0" stroke="#FF0000" fill="none" stroke-width="4px" />
<path d="M 60.0 85.0 L 50.0 85.0" stroke="#FF0000" fill="none" stroke-width="4px" />
<path d="M 50.0 85.0 L 40.0 85.0" stroke="#FF0000" fill="none" stroke-width="4px" />
<path d="M 40.0 85.0 L 50.0 95.0" stroke="#FF0000" fill="none" stroke-width="4px" />
<path d="M 50.0 65.0 L 40.0 65.0" stroke="#FF0000" fill="none" stroke-width="4px" />
<path d="M 150.0 115.0 L 160.0 115.0" stroke="#FF0000" fill="none" stroke-width="4px" />
<path d="M 160.0 115.0 L 160.0 125.0" stroke="#FF0000" fill="none" stroke-width="4px" />
<path d="M 160.0 125.0 L 150.0 125.0" stroke="#FF0000" fill="none" stroke-width="4px" />
<path d="M 150.0 125.0 L 140.0 125.0" stroke="#FF0000" fill="none" stroke-width="4px" />
<path d="M 140.0 125.0 L 140.0 135.0" stroke="#FF0000" fill="none" stroke-width="4px" />
<path d="M 140.0 135.0 L 150.0 135.0" stroke="#FF0000" fill="none" stroke-width="4px" />
<path d="M 150.0 135.0 L 160.0 135.0" stroke="#FF0000" fill="none" stroke-width="4px" />
<path d="M 160.0 135.0 L 170.0 135.0" stroke="#FF0000" fill="none" stroke-width="4px" />
<path d="M 170.0 135.0 L 170.0 145.0" stroke="#FF0000" fill="none" stroke-width="4px" />
<path d="M 170.0 145.0 L 160.0 145.0" stroke="#FF0000" fill="none" stroke-width="4px" />
<path d="M 160.0 145.0 L 150.0 145.0" stroke="#FF0000" fill="none" stroke-width="4px" />
<path d="M 150.0 145.0 L 160.0 155.0" stroke="#FF0000" fill="none" stroke-width="4px" />
<path d="M 160.0 155.0 L 170.0 155.0" stroke="#FF0000" fill="none" stroke-width="4px" />
<path d="M 170.0 155.0 L 180.0 155.0" stroke="#FF0000" fill="none" stroke-width="4px" />
<path d="M 180.0 155.0 L 190.0 155.0" stroke="#FF0000" fill="none" stroke-width="4px" />
<path d="M 190.0 155.0 L 200.0 155.0" stroke="#FF0000" fill="none" stroke-width="4px" />
<path d="M 200.0 155.0 L 210.0 155.0" stroke="#FF0000" fill="none" stroke-width="4px" />
<path d="M 210.0 155.0 L 210.0 165.0" stroke="#FF0000" fill="none" stroke-width="4px" />
<path d="M 210.0 165.0 L 200.0 165.0" stroke="#FF0000" fill="none" stroke-width="4px" />
<path d="M 200.0 165.0 L 190.0 165.0" stroke="#FF0000" fill="none" stroke-width="4px" />
<path d="M 190.0 165.0 L 180.0 165.0" stroke="#FF0000" fill="none" stroke-width="4px" />
<path d="M 180.0 165.0 L 170.0 165.0" stroke="#FF0000" fill="none" stroke-width="4px" />
<path d="M 170.0 165.0 L 160.0 165.0" stroke="#FF0000" fill="none" stroke-width="4px" />
<path d="M 160.0 165.0 L 170.0 175.0" stroke="#FF0000" fill="none" stroke-width="4px" />
<path d="M 170.0 175.0 L 180.0 175.0" stroke="#FF0000" fill="none" stroke-width="4px" />
<path d="M 180.0 175.0 L 190.0 175.0" stroke="#FF0000" fill="none" stroke-width="4px" />
<path d="M 190.0 175.0 L 200.0 175.0" stroke="#FF0000" fill="none" stroke-width="4px" />
<path d="M 200.0 175.0 L 210.0 175.0" stroke="#FF0000" fill="none" stroke-width="4px" />
<path d="M 210.0 175.0 L 200.0 185.0" stroke="#FF0000" fill="none" stroke-width="4px" />
<path d="M 200.0 185.0 L 190.0 185.0" stroke="#FF0000" fill="none" stroke-width="4px" />
<path d="M 190.0 145.0 L 180.0 145.0" stroke="#FF0000" fill="none" stroke-width="4px" />
<path d="M 180.0 145.0 L 200.0 145.0" stroke="#FF0000" fill="none" stroke-width="4px" />
<path d="M 350.0 105.0 L 360.0 105.0" stroke="#FF0000" fill="none" stroke-width="4px" />
<path d="M 360.0 105.0 L 370.0 105.0" stroke="#FF0000" fill="none" stroke-width="4px" />
<path d="M 370.0 105.0 L 380.0 105.0" stroke="#FF0000" fill="none" stroke-width="4px" />
<path d="M 380.0 105.0 L 390.0 105.0" stroke="#FF0000" fill="none" stroke-width="4px" />
<path d="M 390.0 105.0 L 400.0 105.0" stroke="#FF0000" fill="none" stroke-width="4px" />
<path d="M 400.0 105.0 L 410.0 105.0" stroke="#FF0000" fill="none" stroke-width="4px" />
<path d="M 410.0 105.0 L 410.0 115.0" stroke="#FF0000" fill="none" stroke-width="4px" />
<path d="M 410.0 115.0 L 400.0 115.0" stroke="#FF0000" fill="none" stroke-width="4px" />
<path d="M 400.0 115.0 L 390.0 115.0" stroke="#FF0000" fill="none" stroke-width="4px" />
<path d="M 390.0 115.0 L 380.0 115.0" stroke="#FF0000" fill="none" stroke-width="4px" />
<path d="M 380.0 115.0 L 370.0 115.0" stroke="#FF0000" fill="none" stroke-width="4px" />
<path d="M 370.0 115.0 L 360.0 115.0" stroke="#FF0000" fill="none" stroke-width="4px" />
<path d="M 360.0 115.0 L 370.0 125.0" stroke="#FF0000" fill="none" stroke-width="4px" />
<path d="M 370.0 125.0 L 380.0 125.0" stroke="#FF0000" fill="none" stroke-width="4px" />
<path d="M 380.0 125.0 L 390.0 125.0" stroke="#FF0000" fill="none" stroke-width="4px" />
<path d="M 390.0 125.0 L 400.0 125.0" stroke="#FF0000" fill="none" stroke-width="4px" />
<path d="M 400.0 125.0 L 410.0 125.0" stroke="#FF0000" fill="none" stroke-width="4px" />
<path d="M 410.0 125.0 L 420.0 125.0" stroke="#FF0000" fill="none" stroke-width="4px" />
<path d="M 420.0 125.0 L 420.0 115.0" stroke="#FF0000" fill="none" stroke-width="4px" />
<path d="M 410.0 135.0 L 400.0 135.0" stroke="#FF0000" fill="none" stroke-width="4px" />
<path d="M 400.0 135.0 L 390.0 135.0" stroke="#FF0000" fill="none" stroke-width="4px" />
<path d="M 390.0 135.0 L 380.0 135.0" stroke="#FF0000" fill="none" stroke-width="4px" />
<path d="M 380.0 95.0 L 370.0 95.0" stroke="#FF0000" fill="none" stroke-width="4px" />
<path d="M 370.0 95.0 L 360.0 95.0" stroke="#FF0000" fill="none" stroke-width="4px" />
<path d="M 360.0 95.0 L 350.0 95.0" stroke="#FF0000" fill="none" stroke-width="4px" />
<path d="M 350.0 95.0 L 360.0 85.0" stroke="#FF0000" fill="none" stroke-width="4px" />
<path d="M 360.0 85.0 L 370.0 85.0" stroke="#FF0000" fill="none" stroke-width="4px" />
<path d="M 370.0 85.0 L 380.0 85.0" stroke="#FF0000" fill="none" stroke-width="4px" />
<path d="M 380.0 85.0 L 390.0 85.0" stroke="#FF0000" fill="none" stroke-width="4px" />
<path d="M 390.0 85.0 L 400.0 85.0" stroke="#FF0000" fill="none" stroke-width="4px" />
<path d="M 400.0 85.0 L 400.0 95.0" stroke="#FF0000" fill="none" stroke-width="4px" />
<path d="M 400.0 95.0 L 390.0 95.0" stroke="#FF0000" fill="none" stroke-width="4px" />
<path d="M 390.0 95.0 L 410.0 95.0" stroke="#FF0000" fill="none" stroke-width="4px" />
<path d="M 390.0 75.0 L 380.0 75.0" stroke="#FF0000" fill="none" stroke-width="4px" />
<path d="M 380.0 75.0 L 370.0 75.0" stroke="#FF0000" fill="none" stroke-width="4px" />
<path d="M 620.0 55.0 L 630.0 55.0" stroke="#FF0000" fill="none" stroke-width="4px" />
<path d="M 630.0 55.0 L 640.0 55.0" stroke="#FF0000" fill="none" stroke-width="4px" />
<path d="M 640.0 55.0 L 650.0 55.0" stroke="#FF0000" fill="none" stroke-width="4px" />
<path d="M 650.0 55.0 L 660.0 55.0" stroke="#FF0000" fill="none" stroke-width="4px" />
<path d="M 660.0 55.0 L 670.0 55.0" stroke="#FF0000" fill="none" stroke-width="4px" />
<path d="M 670.0 55.0 L 680.0 55.0" stroke="#FF0000" fill="none" stroke-width="4px" />
<path d="M 680.0 55.0 L 690.0 55.0" stroke="#FF0000" fill="none" stroke-width="4px" />
<path d="M 690.0 55.0 L 690.0 65.0" stroke="#FF0000" fill="none" stroke-width="4px" />
<path d="M 690.0 65.0 L 680.0 65.0" stroke="#FF0000" fill="none" stroke-width="4px" />
<path d="M 680.0 65.0 L 670.0 65.0" stroke="#FF0000" fill="none" stroke-width="4px" />
<path d="M 670.0 65.0 L 660.0 65.0" stroke="#FF0000" fill="none" stroke-width="4px" />
<path d="M 660.0 65.0 L 650.0 65.0" stroke="#FF0000" fill="none" stroke-width="4px" />
<path d="M 650.0 65.0 L 640.0 65.0" stroke="#FF0000" fill="none" stroke-width="4px" />
<path d="M 640.0 65.0 L 630.0 65.0" stroke="#FF0000" fill="none" stroke-width="4px" />
<path d="M 630.0 65.0 L 630.0 75.0" stroke="#FF0000" fill="none" stroke-width="4px" />
<path d="M 630.0 75.0 L 640.0 75.0" stroke="#FF0000" fill="none" stroke-width="4px" />
<path d="M 640.0 75.0 L 650.0 75.0" stroke="#FF0000" fill="none" stroke-width="4px" />
<path d="M 650.0 75.0 L 660.0 75.0" stroke="#FF0000" fill="none" stroke-width="4px" />
<path d="M 660.0 75.0 L 670.0 75.0" stroke="#FF0000" fill="none" stroke-width="4px" />
<path d="M 670.0 75.0 L 680.0 75.0" stroke="#FF0000" fill="none" stroke-width="4px" />
<path d="M 660.0 85.0 L 650.0 85.0" stroke="#FF0000" fill="none" stroke-width="4px" />
<path d="M 650.0 85.0 L 640.0 85.0" stroke="#FF0000" fill="none" stroke-width="4px" />
<path d="M 640.0 45.0 L 630.0 45.0" stroke="#FF0000" fill="none" stroke-width="4px" />
<path d="M 630.0 45.0 L 620.0 45.0" stroke="#FF0000" fill="none" stroke-width="4px" />
<path d="M 620.0 45.0 L 630.0 35.0" stroke="#FF0000" fill="none" stroke-width="4px" />
<path d="M 630.0 35.0 L 640.0 35.0" stroke="#FF0000" fill="none" stroke-width="4px" />
<path d="M 640.0 35.0 L 650.0 35.0" stroke="#FF0000" fill="none" stroke-width="4px" />
<path d="M 650.0 35.0 L 660.0 35.0" stroke="#FF0000" fill="none" stroke-width="4px" />
<path d="M 660.0 35.0 L 670.0 35.0" stroke="#FF0000" fill="none" stroke-width="4px" />
<path d="M 670.0 35.0 L 680.0 35.0" stroke="#FF0000" fill="none" stroke-width="4px" />
<path d="M 680.0 35.0 L 680.0 45.0" stroke="#FF0000" fill="none" stroke-width="4px" />
<path d="M 680.0 45.0 L 670.0 45.0" stroke="#FF0000" fill="none" stroke-width="4px" />
<path d="M 670.0 45.0 L 660.0 45.0" stroke="#FF0000" fill="none" stroke-width="4px" />
<path d="M 660.0 45.0 L 650.0 45.0" stroke="#FF0000" fill="none" stroke-width="4px" />
<path d="M 1050.0 65.0 L 1060.0 65.0" stroke="#FF0000" fill="none" stroke-width="4px" />
<path d="M 1060.0 65.0 L 1070.0 65.0" stroke="#FF0000" fill="none" stroke-width="4px" />
<path d="M 1070.0 65.0 L 1080.0 65.0" stroke="#FF0000" fill="none" stroke-width="4px" />
<path d="M 1080.0 65.0 L 1090.0 65.0" stroke="#FF0000" fill="none" stroke-width="4px" />
<path d="M 1090.0 65.0 L 1100.0 65.0" stroke="#FF0000" fill="none" stroke-width="4px" />
<path d="M 1100.0 65.0 L 1100.0 75.0" stroke="#FF0000" fill="none" stroke-width="4px" />
<path d="M 1100.0 75.0 L 1090.0 75.0" stroke="#FF0000" fill="none" stroke-width="4px" />
<path d="M 1090.0 75.0 L 1080.0 75.0" stroke="#FF0000" fill="none" stroke-width="4px" />
<path d="M 1080.0 75.0 L 1070.0 75.0" stroke="#FF0000" fill="none" stroke-width="4px" />
<path d="M 1070.0 75.0 L 1060.0 75.0" stroke="#FF0000" fill="none" stroke-width="4px" />
<path d="M 1060.0 75.0 L 1050.0 75.0" stroke="#FF0000" fill="none" stroke-width="4px" />
<path d="M 1050.0 75.0 L 1060.0 85.0" stroke="#FF0000" fill="none" stroke-width="4px" />
<path d="M 1060.0 85.0 L 1070.0 85.0" stroke="#FF0000" fill="none" stroke-width="4px" />
<path d="M 1070.0 85.0 L 1080.0 85.0" stroke="#FF0000" fill="none" stroke-width="4px" />
<path d="M 1080.0 85.0 L 1090.0 85.0" stroke="#FF0000" fill="none" stroke-width="4px" />
<path d="M 1090.0 85.0 L 1100.0 85.0" stroke="#FF0000" fill="none" stroke-width="4px" />
<path d="M 1100.0 85.0 L 1110.0 85.0" stroke="#FF0000" fill="none" stroke-width="4px" />
<path d="M 1110.0 85.0 L 1110.0 75.0" stroke="#FF0000" fill="none" stroke-width="4px" />
<path d="M 1100.0 95.0 L 1090.0 95.0" stroke="#FF0000" fill="none" stroke-width="4px" />
<path d="M 1090.0 95.0 L 1080.0 95.0" stroke="#FF0000" fill="none" stroke-width="4px" />
<path d="M 1080.0 95.0 L 1070.0 95.0" stroke="#FF0000" fill="none" stroke-width="4px" />
<path d="M 1070.0 95.0 L 1060.0 95.0" stroke="#FF0000" fill="none" stroke-width="4px" />
<path d="M 1060.0 95.0 L 1070.0 105.0" stroke="#FF0000" fill="none" stroke-width="4px" />
<path d="M 1070.0 105.0 L 1080.0 105.0" stroke="#FF0000" fill="none" stroke-width="4px" />
<path d="M 1080.0 105.0 L 1090.0 105.0" stroke="#FF0000" fill="none" stroke-width="4px" />
<path d="M 1090.0 105.0 L 1100.0 105.0" stroke="#FF0000" fill="none" stroke-width="4px" />
<path d="M 1090.0 55.0 L 1080.0 55.0" stroke="#FF0000" fill="none" stroke-width="4px" />
<path d="M 1080.0 55.0 L 1070.0 55.0" stroke="#FF0000" fill="none" stroke-width="4px" />
<path d="M 1070.0 55.0 L 1060.0 55.0" stroke="#FF0000" fill="none" stroke-width="4px" />
<path d="M 1060.0 55.0 L 1070.0 45.0" stroke="#FF0000" fill="none" stroke-width="4px" />
<path d="M 1070.0 45.0 L 1080.0 45.0" stroke="#FF0000" fill="none" stroke-width="4px" />
</svg>