<svg width="2523.06666667" height="235.0" xmlns="http://www.w3.org/2000/svg" version="1.1">
<path d="M 0.0 235.0 L 1985.0 235.0 L 1985.0 0.0 L 0.0 0.0 L 0.0 235.0" stroke="#000000" fill="none" stroke-width="3px" />
<path d="M 2523.06666667 235.0 L 1885.0 235.0 L 1885.0 0.0 L 2523.06666667 0.0 L 2523.06666667 235.0" stroke="#000000" fill="none" stroke-width="3px" />
<path d="M 10.0 257.5 L 0.0 247.5 L 10.0 237.5" stroke="#969696" fill="none" stroke-width="1px" />
<path d="M 10.0 237.5 L 1975.0 237.5" stroke="#969696" fill="none" stroke-width="1px" />
<path d="M 1975.0 237.5 L 1985.0 227.5 L 1975.0 217.5" stroke="#969696" fill="none" stroke-width="1px" />
<path d="M 1975.0 217.5 L 10.0 217.5" stroke="#969696" fill="none" stroke-width="1px" />
<path d="M 10.0 217.5 L 0.0 207.5 L 10.0 197.5" stroke="#969696" fill="none" stroke-width="1px" />
<path d="M 10.0 197.5 L 1975.0 197.5" stroke="#969696" fill="none" stroke-width="1px" />
<path d="M 1975.0 197.5 L 1985.0 187.5 L 1975.0 177.5" stroke="#969696" fill="none" stroke-width="1px" />
<path d="M 1975.0 177.5 L 10.0 177.5" stroke="#969696" fill="none" stroke-width="1px" />
<path d="M 10.0 177.5 L 0.0 167.5 L 10.0 157.5" stroke="#969696" fill="none" stroke-width="1px" />
<path d="M 10.0 157.5 L 1975.0 157.5" stroke="#969696" fill="none" stroke-width="1px" />
<path d="M 1975.0 157.5 L 1985.0 147.5 L 1975.0 137.5" stroke="#969696" fill="none" stroke-width="1px" />
<path d="M 1975.0 137.5 L 10.0 137.5" stroke="#969696" fill="none" stroke-width="1px" />
<path d="M 10.0 137.5 L 0.0 127.5 L 10.0 117.5" stroke="#969696" fill="none" stroke-width="1px" />
<path d="M 10.0 117.5 L 1975.0 117.5" stroke="#969696" fill="none" stroke-width="1px" />
<path d="M 1975.0 117.5 L 1985.0 107.5 L 1975.0 97.5" stroke="#969696" fill="none" stroke-width="1px" />
<path d="M 1975.0 97.5 L 10.0 97.5" stroke="#969696" fill="none" stroke-width="1px" />
<path d="M 10.0 97.5 L 0.0 87.5 L 10.0 77.5" stroke="#969696" fill="none" stroke-width="1px" />
<path d="M 10.0 77.5 L 1975.0 77.5" stroke="#969696" fill="none" stroke-width="1px" />
<path d="M 1975.0 77.5 L 1985.0 67.5 L 1975.0 57.5" stroke="#969696" fill="none" stroke-width="1px" />
<path d="M 1975.0 57.5 L 10.0 57.5" stroke="#969696" fill="none" stroke-width="1px" />
<path d="M 10.0 57.5 L 0.0 47.5 L 10.0 37.5" stroke="#969696" fill="none" stroke-width="1px" />
<path d="M 10.0 37.5 L 1975.0 37.5" stroke="#969696" fill="none" stroke-width="1px" />
<path d="M 1975.0 37.5 L 1985.0 27.5 L 1975.0 17.5" stroke="#969696" fill="none" stroke-width="1px" />
<path d="M 1975.0 17.5 L 10.0 17.5" stroke="#969696" fill="none" stroke-width="1px" />
<path d="M 10.0 17.5 L 0.0 7.5 L 10.0 -2.5" stroke="#969696" fill="none" stroke-width="1px" />
<path d="M 10.0 -2.5 L 1975.0 -2.5" stroke="#969696" fill="none" stroke-width="1px" />
<path d="M 1975.0 -2.5 L 1985.0 -12.5 L 1975.0 -22.5" stroke="#969696" fill="none" stroke-width="1px" />
<path d="M 2513.06666667 257.5 L 2523.06666667 247.5 L 2513.06666667 237.5" stroke="#969696" fill="none" stroke-width="1px" />
<path d="M 2513.06666667 237.5 L 1895.0 237.5" stroke="#969696" fill="none" stroke-width="1px" />
<path d="M 1895.0 237.5 L 1885.0 227.5 L 1895.0 217.5" stroke="#969696" fill="none" stroke-width="1px" />
<path d="M 1895.0 217.5 L 2513.06666667 217.5" stroke="#969696" fill="none" stroke-width="1px" />
<path d="M 2513.06666667 217.5 L 2523.06666667 207.5 L 2513.06666667 197.5" stroke="#969696" fill="none" stroke-width="1px" />
<path d="M 2513.06666667 197.5 L 1895.0 197.5" stroke="#969696" fill="none" stroke-width="1px" />
<path d="M 1895.0 197.5 L 1885.0 187.5 L 1895.0 177.5" stroke="#969696" fill="none" stroke-width="1px" />
<path d="M 1895.0 177.5 L 2513.06666667 177.5" stroke="#969696" fill="none" stroke-width="1px" />
<path d="M 2513.06666667 177.5 L 2523.06666667 167.5 L 2513.06666667 157.5" stroke="#969696" fill="none" stroke-width="1px" />
<path d="M 2513.06666667 157.5 L 1895.0 157.5" stroke="#969696" fill="none" stroke-width="1px" />
<path d="M 1895.0 157.5 L 1885.0 147.5 L 1895.0 137.5" stroke="#969696" fill="none" stroke-width="1px" />
<path d="M 1895.0 137.5 L 2513.06666667 137.5" stroke="#969696" fill="none" stroke-width="1px" />
<path d="M 2513.06666667 137.5 L 2523.06666667 127.5 L 2513.06666667 117.5" stroke="#969696" fill="none" stroke-width="1px" />
<path d="M 2513.06666667 117.5 L 1895.0 117.5" stroke="#969696" fill="none" stroke-width="1px" />
<path d="M 1895.0 117.5 L 1885.0 107.5 L 1895.0 97.5" stroke="#969696" fill="none" stroke-width="1px" />
<path d="M 1895.0 97.5 L 2513.06666667 97.5" stroke="#969696" fill="none" stroke-width="1px" />
<path d="M 2513.06666667 97.5 L 2523.06666667 87.5 L 2513.06666667 77.5" stroke="#969696" fill="none" stroke-width="1px" />
<path d="M 2513.06666667 77.5 L 1895.0 77.5" stroke="#969696" fill="none" stroke-width="1px" />
<path d="M 1895.0 77.5 L 1885.0 67.5 L 1895.0 57.5" stroke="#969696" fill="none" stroke-width="1px" />
<path d="M 1895.0 57.5 L 2513.06666667 57.5" stroke="#969696" fill="none" stroke-width="1px" />
<path d="M 2513.06666667 57.5 L 2523.06666667 47.5 L 2513.06666667 37.5" stroke="#969696" fill="none" stroke-width="1px" />
<path d="M 2513.06666667 37.5 L 1895.0 37.5" stroke="#969696" fill="none" stroke-width="1px" />
<path d="M 1895.0 37.5 L 1885.0 27.5 L 1895.0 17.5" stroke="#969696" fill="none" stroke-width="1px" />
<path d="M 1895.0 17.5 L 2513.06666667 17.5" stroke="#969696" fill="none" stroke-width="1px" />
<path d="M 2513.06666667 17.5 L 2523.06666667 7.5 L 2513.06666667 -2.5" stroke="#969696" fill="none" stroke-width="1px" />
<path d="M 2513.06666667 -2.5 L 1895.0 -2.5" stroke="#969696" fill="none" stroke-width="1px" />
<path d="M 1895.0 -2.5 L 1885.0 -12.5 L 1895.0 -22.5" stroke="#969696" fill="none" stroke-width="1px" />
<path d="M 0.0 235.0 L 20.0 145.0" stroke="#0095FF" fill="none" stroke-width="2px" />
<path d="M 40.0 135.0 L 40.0 115.0" stroke="#0095FF" fill="none" stroke-width="2px" />
<path d="M 60.0 95.0 L 60.0 75.0" stroke="#0095FF" fill="none" stroke-width="2px" />
<path d="M 50.0 65.0 L 190.0 85.0" stroke="#0095FF" fill="none" stroke-width="2px" />
<path d="M 210.0 135.0 L 240.0 95.0" stroke="#0095FF" fill="none" stroke-width="2px" />
<path d="M 240.0 95.0 L 220.0 75.0" stroke="#0095FF" fill="none" stroke-width="2px" />
<path d="M 210.0 65.0 L 320.0 135.0" stroke="#0095FF" fill="none" stroke-width="2px" />
<path d="M 320.0 155.0 L 320.0 175.0" stroke="#0095FF" fill="none" stroke-width="2px" />
<path d="M 330.0 185.0 L 350.0 145.0" stroke="#0095FF" fill="none" stroke-width="2px" />
<path d="M 350.0 145.0 L 570.0 115.0" stroke="#0095FF" fill="none" stroke-width="2px" />
<path d="M 600.0 145.0 L 600.0 105.0" stroke="#0095FF" fill="none" stroke-width="2px" />
<path d="M 610.0 105.0 L 740.0 95.0" stroke="#0095FF" fill="none" stroke-width="2px" />
<path d="M 760.0 65.0 L 760.0 105.0" stroke="#0095FF" fill="none" stroke-width="2px" />
<path d="M 770.0 115.0 L 1100.0 165.0" stroke="#0095FF" fill="none" stroke-width="2px" />
<path d="M 1140.0 235.0 L 1140.0 155.0" stroke="#0095FF" fill="none" stroke-width="2px" />
<path d="M 1150.0 155.0 L 1150.0 135.0" stroke="#0095FF" fill="none" stroke-width="2px" />
<path d="M 1130.0 135.0 L 1160.0 135.0" stroke="#0095FF" fill="none" stroke-width="2px" />
<path d="M 1160.0 135.0 L 1180.0 155.0" stroke="#0095FF" fill="none" stroke-width="2px" />
<path d="M 1180.0 155.0 L 1630.0 105.0" stroke="#0095FF" fill="none" stroke-width="2px" />
<path d="M 1650.0 35.0 L 1690.0 95.0" stroke="#0095FF" fill="none" stroke-width="2px" />
<path d="M 1690.0 95.0 L 1670.0 115.0" stroke="#0095FF" fill="none" stroke-width="2px" />
<path d="M 2523.06666667 235.0 L 2220.0 55.0" stroke="#0095FF" fill="none" stroke-width="2px" />
<path d="M 2180.0 85.0 L 2150.0 95.0" stroke="#0095FF" fill="none" stroke-width="2px" />
<path d="M 2140.0 105.0 L 2140.0 45.0" stroke="#0095FF" fill="none" stroke-width="2px" />
<path d="M 2150.0 45.0 L 2150.0 25.0" stroke="#0095FF" fill="none" stroke-width="2px" />
<path d="M 2160.0 25.0 L 2190.0 25.0" stroke="#0095FF" fill="none" stroke-width="2px" />
<path d="M 2210.0 5.0 L 2140.0 5.0" stroke="#0095FF" fill="none" stroke-width="2px" />
<path d="M 20.0 145.0 L 30.0 145.0" stroke="#FF0000" fill="none" stroke-width="4px" />
<path d="M 30.0 145.0 L 30.0 135.0" stroke="#FF0000" fill="none" stroke-width="4px" />
<path d="M 30.0 135.0 L 20.0 135.0" stroke="#FF0000" fill="none" stroke-width="4px" />
<path d="M 20.0 135.0 L 10.0 135.0" stroke="#FF0000" fill="none" stroke-width="4px" />
<path d="M 10.0 135.0 L 10.0 125.0" stroke="#FF0000" fill="none" stroke-width="4px" />
<path d="M 10.0 125.0 L 20.0 125.0" stroke="#FF0000" fill="none" stroke-width="4px" />
<path d="M 20.0 125.0 L 30.0 125.0" stroke="#FF0000" fill="none" stroke-width="4px" />
<path d="M 30.0 125.0 L 40.0 125.0" stroke="#FF0000" fill="none" stroke-width="4px" />
<path d="M 40.0 125.0 L 40.0 135.0" stroke="#FF0000" fill="none" stroke-width="4px" />
<path d="M 40.0 115.0 L 30.0 115.0" stroke="#FF0000" fill="none" stroke-width="4px" />
<path d="M 30.0 115.0 L 20.0 115.0" stroke="#FF0000" fill="none" stroke-width="4px" />
<path d="M 20.0 115.0 L 10.0 115.0" stroke="#FF0000" fill="none" stroke-width="4px" />
<path d="M 10.0 115.0 L 10.0 105.0" stroke="#FF0000" fill="none" stroke-width="4px" />
<path d="M 10.0 105.0 L 20.0 105.0" stroke="#FF0000" fill="none" stroke-width="4px" />
<path d="M 20.0 105.0 L 30.0 105.0" stroke="#FF0000" fill="none" stroke-width="4px" />
<path d="M 30.0 105.0 L 40.0 105.0" stroke="#FF0000" fill="none" stroke-width="4px" />
<path d="M 40.0 105.0 L 50.0 105.0" stroke="#FF0000" fill="none" stroke-width="4px" />
<path d="M 50.0 105.0 L 50.0 95.0" stroke="#FF0000" fill="none" stroke-width="4px" />
<path d="M 50.0 95.0 L 40.0 95.0" stroke="#FF0000" fill="none" stroke-width="4px" />
<path d="M 40.0 95.0 L 30.0 95.0" stroke="#FF0000" fill="none" stroke-width="4px" />
<path d="M 30.0 95.0 L 20.0 95.0" stroke="#FF0000" fill="none" stroke-width="4px" />
<path d="M 20.0 95.0 L 20.0 85.0" stroke="#FF0000" fill="none" stroke-width="4px" />
<path d="M 20.0 85.0 L 30.0 85.0" stroke="#FF0000" fill="none" stroke-width="4px" />
<path d="M 30.0 85.0 L 40.0 85.0" stroke="#FF0000" fill="none" stroke-width="4px" />
<path d="M 40.0 85.0 L 50.0 85.0" stroke="#FF0000" fill="none" stroke-width="4px" />
<path d="M 50.0 85.0 L 60.0 85.0" stroke="#FF0000" fill="none" stroke-width="4px" />
<path d="M 60.0 85.0 L 70.0 85.0" stroke="#FF0000" fill="none" stroke-width="4px" />
<path d="M 70.0 85.0 L 60.0 95.0" stroke="#FF0000" fill="none" stroke-width="4px" />
<path d="M 60.0 75.0 L 50.0 75.0" stroke="#FF0000" fill="none" stroke-width="4px" />
<path d="M 50.0 75.0 L 40.0 75.0" stroke="#FF0000" fill="none" stroke-width="4px" />
<path d="M 40.0 75.0 L 30.0 75.0" stroke="#FF0000" fill="none" stroke-width="4px" />
<path d="M 30.0 75.0 L 40.0 65.0" stroke="#FF0000" fill="none" stroke-width="4px" />
<path d="M 40.0 65.0 L 50.0 65.0" stroke="#FF0000" fill="none" stroke-width="4px" />
<path d="M 190.0 85.0 L 200.0 85.0" stroke="#FF0000" fill="none" stroke-width="4px" />
<path d="M 200.0 85.0 L 210.0 85.0" stroke="#FF0000" fill="none" stroke-width="4px" />
<path d="M 210.0 85.0 L 220.0 85.0" stroke="#FF0000" fill="none" stroke-width="4px" />
<path d="M 220.0 85.0 L 230.0 85.0" stroke="#FF0000" fill="none" stroke-width="4px" />
<path d="M 230.0 85.0 L 230.0 95.0" stroke="#FF0000" fill="none" stroke-width="4px" />
<path d="M 230.0 95.0 L 220.0 95.0" stroke="#FF0000" fill="none" stroke-width="4px" />
<path d="M 220.0 95.0 L 210.0 95.0" stroke="#FF0000" fill="none" stroke-width="4px" />
<path d="M 210.0 95.0 L 200.0 95.0" stroke="#FF0000" fill="none" stroke-width="4px" />
<path d="M 200.0 95.0 L 190.0 95.0" stroke="#FF0000" fill="none" stroke-width="4px" />
<path d="M 190.0 95.0 L 190.0 105.0" stroke="#FF0000" fill="none" stroke-width="4px" />
<path d="M 190.0 105.0 L 200.0 105.0" stroke="#FF0000" fill="none" stroke-width="4px" />
<path d="M 200.0 105.0 L 210.0 105.0" stroke="#FF0000" fill="none" stroke-width="4px" />
<path d="M 210.0 105.0 L 220.0 105.0" stroke="#FF0000" fill="none" stroke-width="4px" />
<path d="M 220.0 105.0 L 230.0 105.0" stroke="#FF0000" fill="none" stroke-width="4px" />
<path d="M 230.0 105.0 L 240.0 105.0" stroke="#FF0000" fill="none" stroke-width="4px" />
<path d="M 240.0 105.0 L 250.0 105.0" stroke="#FF0000" fill="none" stroke-width="4px" />
<path d="M 250.0 105.0 L 250.0 115.0" stroke="#FF0000" fill="none" stroke-width="4px" />
<path d="M 250.0 115.0 L 240.0 115.0" stroke="#FF0000" fill="none" stroke-width="4px" />
<path d="M 240.0 115.0 L 230.0 115.0" stroke="#FF0000" fill="none" stroke-width="4px" />
<path d="M 230.0 115.0 L 220.0 115.0" stroke="#FF0000" fill="none" stroke-width="4px" />
<path d="M 220.0 115.0 L 210.0 115.0" stroke="#FF0000" fill="none" stroke-width="4px" />
<path d="M 210.0 115.0 L 200.0 115.0" stroke="#FF0000" fill="none" stroke-width="4px" />
<path d="M 200.0 115.0 L 200.0 125.0" stroke="#FF0000" fill="none" stroke-width="4px" />
<path d="M 200.0 125.0 L 210.0 125.0" stroke="#FF0000" fill="none" stroke-width="4px" />
<path d="M 210.0 125.0 L 220.0 125.0" stroke="#FF0000" fill="none" stroke-width="4px" />
<path d="M 220.0 125.0 L 230.0 125.0" stroke="#FF0000" fill="none" stroke-width="4px" />
<path d="M 230.0 125.0 L 240.0 125.0" stroke="#FF0000" fill="none" stroke-width="4px" />
<path d="M 240.0 125.0 L 230.0 135.0" stroke="#FF0000" fill="none" stroke-width="4px" />
<path d="M 230.0 135.0 L 220.0 135.0" stroke="#FF0000" fill="none" stroke-width="4px" />
<path d="M 220.0 135.0 L 210.0 135.0" stroke="#FF0000" fill="none" stroke-width="4px" />
<path d="M 220.0 75.0 L 210.0 75.0" stroke="#FF0000" fill="none" stroke-width="4px" />
<path d="M 210.0 75.0 L 200.0 75.0" stroke="#FF0000" fill="none" stroke-width="4px" />
<path d="M 200.0 75.0 L 210.0 65.0" stroke="#FF0000" fill="none" stroke-width="4px" />
<path d="M 320.0 135.0 L 330.0 135.0" stroke="#FF0000" fill="none" stroke-width="4px" />
<path d="M 330.0 135.0 L 340.0 135.0" stroke="#FF0000" fill="none" stroke-width="4px" />
<path d="M 340.0 135.0 L 340.0 145.0" stroke="#FF0000" fill="none" stroke-width="4px" />
<path d="M 340.0 145.0 L 330.0 145.0" stroke="#FF0000" fill="none" stroke-width="4px" />
<path d="M 330.0 145.0 L 320.0 145.0" stroke="#FF0000" fill="none" stroke-width="4px" />
<path d="M 320.0 145.0 L 310.0 145.0" stroke="#FF0000" fill="none" stroke-width="4px" />
<path d="M 310.0 145.0 L 310.0 155.0" stroke="#FF0000" fill="none" stroke-width="4px" />
<path d="M 310.0 155.0 L 300.0 155.0" stroke="#FF0000" fill="none" stroke-width="4px" />
<path d="M 300.0 155.0 L 310.0 165.0" stroke="#FF0000" fill="none" stroke-width="4px" />
<path d="M 310.0 165.0 L 320.0 165.0" stroke="#FF0000" fill="none" stroke-width="4px" />
<path d="M 320.0 165.0 L 330.0 165.0" stroke="#FF0000" fill="none" stroke-width="4px" />
<path d="M 330.0 165.0 L 340.0 165.0" stroke="#FF0000" fill="none" stroke-width="4px" />
<path d="M 340.0 165.0 L 350.0 165.0" stroke="#FF0000" fill="none" stroke-width="4px" />
<path d="M 350.0 165.0 L 360.0 165.0" stroke="#FF0000" fill="none" stroke-width="4px" />
<path d="M 360.0 165.0 L 360.0 155.0" stroke="#FF0000" fill="none" stroke-width="4px" />
<path d="M 360.0 155.0 L 350.0 155.0" stroke="#FF0000" fill="none" stroke-width="4px" />
<path d="M 350.0 155.0 L 340.0 155.0" stroke="#FF0000" fill="none" stroke-width="4px" />
<path d="M 340.0 155.0 L 330.0 155.0" stroke="#FF0000" fill="none" stroke-width="4px" />
<path d="M 330.0 155.0 L 320.0 155.0" stroke="#FF0000" fill="none" stroke-width="4px" />
<path d="M 320.0 175.0 L 330.0 175.0" stroke="#FF0000" fill="none" stroke-width="4px" />
<path d="M 330.0 175.0 L 340.0 175.0" stroke="#FF0000" fill="none" stroke-width="4px" />
<path d="M 340.0 175.0 L 350.0 175.0" stroke="#FF0000" fill="none" stroke-width="4px" />
<path d="M 350.0 175.0 L 340.0 185.0" stroke="#FF0000" fill="none" stroke-width="4px" />
<path d="M 340.0 185.0 L 330.0 185.0" stroke="#FF0000" fill="none" stroke-width="4px" />
<path d="M 570.0 115.0 L 580.0 115.0" stroke="#FF0000" fill="none" stroke-width="4px" />
<path d="M 580.0 115.0 L 590.0 115.0" stroke="#FF0000" fill="none" stroke-width="4px" />
<path d="M 590.0 115.0 L 600.0 115.0" stroke="#FF0000" fill="none" stroke-width="4px" />
<path d="M 600.0 115.0 L 610.0 115.0" stroke="#FF0000" fill="none" stroke-width="4px" />
<path d="M 610.0 115.0 L 620.0 115.0" stroke="#FF0000" fill="none" stroke-width="4px" />
<path d="M 620.0 115.0 L 620.0 125.0" stroke="#FF0000" fill="none" stroke-width="4px" />
<path d="M 620.0 125.0 L 610.0 125.0" stroke="#FF0000" fill="none" stroke-width="4px" />
<path d="M 610.0 125.0 L 600.0 125.0" stroke="#FF0000" fill="none" stroke-width="4px" />
<path d="M 600.0 125.0 L 590.0 125.0" stroke="#FF0000" fill="none" stroke-width="4px" />
<path d="M 590.0 125.0 L 580.0 125.0" stroke="#FF0000" fill="none" stroke-width="4px" />
<path d="M 580.0 125.0 L 590.0 135.0" stroke="#FF0000" fill="none" stroke-width="4px" />
<path d="M 590.0 135.0 L 600.0 135.0" stroke="#FF0000" fill="none" stroke-width="4px" />
<path d="M 600.0 135.0 L 610.0 135.0" stroke="#FF0000" fill="none" stroke-width="4px" />
<path d="M 610.0 135.0 L 600.0 145.0" stroke="#FF0000" fill="none" stroke-width="4px" />
<path d="M 600.0 105.0 L 590.0 105.0" stroke="#FF0000" fill="none" stroke-width="4px" />
<path d="M 590.0 105.0 L 580.0 105.0" stroke="#FF0000" fill="none" stroke-width="4px" />
<path d="M 580.0 105.0 L 590.0 95.0" stroke="#FF0000" fill="none" stroke-width="4px" />
<path d="M 590.0 95.0 L 600.0 95.0" stroke="#FF0000" fill="none" stroke-width="4px" />
<path d="M 600.0 95.0 L 610.0 105.0" stroke="#FF0000" fill="none" stroke-width="4px" />
<path d="M 740.0 95.0 L 750.0 95.0" stroke="#FF0000" fill="none" stroke-width="4px" />
<path d="M 750.0 95.0 L 760.0 95.0" stroke="#FF0000" fill="none" stroke-width="4px" />
<path d="M 760.0 95.0 L 770.0 95.0" stroke="#FF0000" fill="none" stroke-width="4px" />
<path d="M 770.0 95.0 L 780.0 95.0" stroke="#FF0000" fill="none" stroke-width="4px" />
<path d="M 780.0 95.0 L 790.0 95.0" stroke="#FF0000" fill="none" stroke-width="4px" />
<path d="M 790.0 95.0 L 790.0 85.0" stroke="#FF0000" fill="none" stroke-width="4px" />
<path d="M 790.0 85.0 L 780.0 85.0" stroke="#FF0000" fill="none" stroke-width="4px" />
<path d="M 780.0 85.0 L 770.0 85.0" stroke="#FF0000" fill="none" stroke-width="4px" />
<path d="M 770.0 85.0 L 760.0 85.0" stroke="#FF0000" fill="none" stroke-width="4px" />
<path d="M 760.0 85.0 L 750.0 85.0" stroke="#FF0000" fill="none" stroke-width="4px" />
<path d="M 750.0 85.0 L 740.0 85.0" stroke="#FF0000" fill="none" stroke-width="4px" />
<path d="M 740.0 85.0 L 750.0 75.0" stroke="#FF0000" fill="none" stroke-width="4px" />
<path d="M 750.0 75.0 L 760.0 75.0" stroke="#FF0000" fill="none" stroke-width="4px" />
<path d="M 760.0 75.0 L 770.0 75.0" stroke="#FF0000" fill="none" stroke-width="4px" />
<path d="M 770.0 75.0 L 780.0 75.0" stroke="#FF0000" fill="none" stroke-width="4px" />
<path d="M 780.0 75.0 L 770.0 65.0" stroke="#FF0000" fill="none" stroke-width="4px" />
<path d="M 770.0 65.0 L 760.0 65.0" stroke="#FF0000" fill="none" stroke-width="4px" />
<path d="M 760.0 105.0 L 750.0 105.0" stroke="#FF0000" fill="none" stroke-width="4px" />
<path d="M 750.0 105.0 L 770.0 105.0" stroke="#FF0000" fill="none" stroke-width="4px" />
<path d="M 770.0 105.0 L 780.0 105.0" stroke="#FF0000" fill="none" stroke-width="4px" />
<path d="M 780.0 105.0 L 770.0 115.0" stroke="#FF0000" fill="none" stroke-width="4px" />
<path d="M 1100.0 165.0 L 1110.0 165.0" stroke="#FF0000" fill="none" stroke-width="4px" />
<path d="M 1110.0 165.0 L 1120.0 165.0" stroke="#FF0000" fill="none" stroke-width="4px" />
<path d="M 1120.0 165.0 L 1130.0 165.0" stroke="#FF0000" fill="none" stroke-width="4px" />
<path d="M 1130.0 165.0 L 1140.0 165.0" stroke="#FF0000" fill="none" stroke-width="4px" />
<path d="M 1140.0 165.0 L 1150.0 165.0" stroke="#FF0000" fill="none" stroke-width="4px" />
<path d="M 1150.0 165.0 L 1160.0 165.0" stroke="#FF0000" fill="none" stroke-width="4px" />
<path d="M 1160.0 165.0 L 1170.0 165.0" stroke="#FF0000" fill="none" stroke-width="4px" />
<path d="M 1170.0 165.0 L 1180.0 165.0" stroke="#FF0000" fill="none" stroke-width="4px" />
<path d="M 1180.0 165.0 L 1190.0 165.0" stroke="#FF0000" fill="none" stroke-width="4px" />
<path d="M 1190.0 165.0 L 1190.0 175.0" stroke="#FF0000" fill="none" stroke-width="4px" />
<path d="M 1190.0 175.0 L 1180.0 175.0" stroke="#FF0000" fill="none" stroke-width="4px" />
<path d="M 1180.0 175.0 L 1170.0 175.0" stroke="#FF0000" fill="none" stroke-width="4px" />
<path d="M 1170.0 175.0 L 1160.0 175.0" stroke="#FF0000" fill="none" stroke-width="4px" />
<path d="M 1160.0 175.0 L 1150.0 175.0" stroke="#FF0000" fill="none" stroke-width="4px" />
<path d="M 1150.0 175.0 L 1140.0 175.0" stroke="#FF0000" fill="none" stroke-width="4px" />
<path d="M 1140.0 175.0 L 1130.0 175.0" stroke="#FF0000" fill="none" stroke-width="4px" />
<path d="M 1130.0 175.0 L 1120.0 175.0" stroke="#FF0000" fill="none" stroke-width="4px" />
<path d="M 1120.0 175.0 L 1110.0 175.0" stroke="#FF0000" fill="none" stroke-width="4px" />
<path d="M 1110.0 175.0 L 1100.0 175.0" stroke="#FF0000" fill="none" stroke-width="4px" />
<path d="M 1100.0 175.0 L 1100.0 185.0" stroke="#FF0000" fill="none" stroke-width="4px" />
<path d="M 1100.0 185.0 L 1110.0 185.0" stroke="#FF0000" fill="none" stroke-width="4px" />
<path d="M 1110.0 185.0 L 1120.0 185.0" stroke="#FF0000" fill="none" stroke-width="4px" />
<path d="M 1120.0 185.0 L 1130.0 185.0" stroke="#FF0000" fill="none" stroke-width="4px" />
<path d="M 1130.0 185.0 L 1140.0 185.0" stroke="#FF0000" fill="none" stroke-width="4px" />
<path d="M 1140.0 185.0 L 1150.0 185.0" stroke="#FF0000" fill="none" stroke-width="4px" />
<path d="M 1150.0 185.0 L 1160.0 185.0" stroke="#FF0000" fill="none" stroke-width="4px" />
<path d="M 1160.0 185.0 L 1170.0 185.0" stroke="#FF0000" fill="none" stroke-width="4px" />
<path d="M 1170.0 185.0 L 1180.0 185.0" stroke="#FF0000" fill="none" stroke-width="4px" />
<path d="M 1180.0 185.0 L 1190.0 185.0" stroke="#FF0000" fill="none" stroke-width="4px" />
<path d="M 1190.0 185.0 L 1200.0 185.0" stroke="#FF0000" fill="none" stroke-width="4px" />
<path d="M 1200.0 185.0 L 1200.0 195.0" stroke="#FF0000" fill="none" stroke-width="4px" />
<path d="M 1200.0 195.0 L 1190.0 195.0" stroke="#FF0000" fill="none" stroke-width="4px" />
<path d="M 1190.0 195.0 L 1180.0 195.0" stroke="#FF0000" fill="none" stroke-width="4px" />
<path d="M 1180.0 195.0 L 1170.0 195.0" stroke="#FF0000" fill="none" stroke-width="4px" />
<path d="M 1170.0 195.0 L 1160.0 195.0" stroke="#FF0000" fill="none" stroke-width="4px" />
<path d="M 1160.0 195.0 L 1150.0 195.0" stroke="#FF0000" fill="none" stroke-width="4px" />
<path d="M 1150.0 195.0 L 1140.0 195.0" stroke="#FF0000" fill="none" stroke-width="4px" />
<path d="M 1140.0 195.0 L 1130.0 195.0" stroke="#FF0000" fill="none" stroke-width="4px" />
<path d="M 1130.0 195.0 L 1120.0 195.0" stroke="#FF0000" fill="none" stroke-width="4px" />
<path d="M 1120.0 195.0 L 1110.0 195.0" stroke="#FF0000" fill="none" stroke-width="4px" />
<path d="M 1110.0 195.0 L 1120.0 205.0" stroke="#FF0000" fill="none" stroke-width="4px" />
<path d="M 1120.0 205.0 L 1130.0 205.0" stroke="#FF0000" fill="none" stroke-width="4px" />
<path d="M 1130.0 205.0 L 1140.0 205.0" stroke="#FF0000" fill="none" stroke-width="4px" />
<path d="M 1140.0 205.0 L 1150.0 205.0" stroke="#FF0000" fill="none" stroke-width="4px" />
<path d="M 1150.0 205.0 L 1160.0 205.0" stroke="#FF0000" fill="none" stroke-width="4px" />
<path d="M 1160.0 205.0 L 1170.0 205.0" stroke="#FF0000" fill="none" stroke-width="4px" />
<path d="M 1170.0 205.0 L 1180.0 205.0" stroke="#FF0000" fill="none" stroke-width="4px" />
<path d="M 1180.0 205.0 L 1190.0 205.0" stroke="#FF0000" fill="none" stroke-width="4px" />
<path d="M 1190.0 205.0 L 1200.0 205.0" stroke="#FF0000" fill="none" stroke-width="4px" />
<path d="M 1200.0 205.0 L 1190.0 215.0" stroke="#FF0000" fill="none" stroke-width="4px" />
<path d="M 1190.0 215.0 L 1180.0 215.0" stroke="#FF0000" fill="none" stroke-width="4px" />
<path d="M 1180.0 215.0 L 1170.0 215.0" stroke="#FF0000" fill="none" stroke-width="4px" />
<path d="M 1170.0 215.0 L 1160.0 215.0" stroke="#FF0000" fill="none" stroke-width="4px" />
<path d="M 1160.0 215.0 L 1150.0 215.0" stroke="#FF0000" fill="none" stroke-width="4px" />
<path d="M 1150.0 215.0 L 1140.0 215.0" stroke="#FF0000" fill="none" stroke-width="4px" />
<path d="M 1140.0 215.0 L 1130.0 215.0" stroke="#FF0000" fill="none" stroke-width="4px" />
<path d="M 1130.0 215.0 L 1120.0 215.0" stroke="#FF0000" fill="none" stroke-width="4px" />
<path d="M 1120.0 215.0 L 1130.0 225.0" stroke="#FF0000" fill="none" stroke-width="4px" />
<path d="M 1130.0 225.0 L 1140.0 225.0" stroke="#FF0000" fill="none" stroke-width="4px" />
<path d="M 1140.0 225.0 L 1150.0 225.0" stroke="#FF0000" fill="none" stroke-width="4px" />
<path d="M 1150.0 225.0 L 1160.0 225.0" stroke="#FF0000" fill="none" stroke-width="4px" />
<path d="M 1160.0 225.0 L 1170.0 225.0" stroke="#FF0000" fill="none" stroke-width="4px" />
<path d="M 1170.0 225.0 L 1180.0 225.0" stroke="#FF0000" fill="none" stroke-width="4px" />
<path d="M 1180.0 225.0 L 1170.0 235.0" stroke="#FF0000" fill="none" stroke-width="4px" />
<path d="M 1170.0 235.0 L 1160.0 235.0" stroke="#FF0000" fill="none" stroke-width="4px" />
<path d="M 1160.0 235.0 L 1150.0 235.0" stroke="#FF0000" fill="none" stroke-width="4px" />
<path d="M 1150.0 235.0 L 1140.0 235.0" stroke="#FF0000" fill="none" stroke-width="4px" />
<path d="M 1140.0 155.0 L 1130.0 155.0" stroke="#FF0000" fill="none" stroke-width="4px" />
<path d="M 1130.0 155.0 L 1120.0 155.0" stroke="#FF0000" fill="none" stroke-width="4px" />
<path d="M 1120.0 155.0 L 1110.0 155.0" stroke="#FF0000" fill="none" stroke-width="4px" />
<path d="M 1110.0 155.0 L 1120.0 145.0" stroke="#FF0000" fill="none" stroke-width="4px" />
<path d="M 1120.0 145.0 L 1130.0 145.0" stroke="#FF0000" fill="none" stroke-width="4px" />
<path d="M 1130.0 145.0 L 1140.0 145.0" stroke="#FF0000" fill="none" stroke-width="4px" />
<path d="M 1140.0 145.0 L 1150.0 145.0" stroke="#FF0000" fill="none" stroke-width="4px" />
<path d="M 1150.0 145.0 L 1160.0 145.0" stroke="#FF0000" fill="none" stroke-width="4px" />
<path d="M 1160.0 145.0 L 1170.0 145.0" stroke="#FF0000" fill="none" stroke-width="4px" />
<path d="M 1170.0 145.0 L 1170.0 155.0" stroke="#FF0000" fill="none" stroke-width="4px" />
<path d="M 1170.0 155.0 L 1160.0 155.0" stroke="#FF0000" fill="none" stroke-width="4px" />
<path d="M 1160.0 155.0 L 1150.0 155.0" stroke="#FF0000" fill="none" stroke-width="4px" />
<path d="M 1150.0 135.0 L 1140.0 135.0" stroke="#FF0000" fill="none" stroke-width="4px" />
<path d="M 1140.0 135.0 L 1130.0 135.0" stroke="#FF0000" fill="none" stroke-width="4px" />
<path d="M 1630.0 105.0 L 1640.0 105.0" stroke="#FF0000" fill="none" stroke-width="4px" />
<path d="M 1640.0 105.0 L 1650.0 105.0" stroke="#FF0000" fill="none" stroke-width="4px" />
<path d="M 1650.0 105.0 L 1660.0 105.0" stroke="#FF0000" fill="none" stroke-width="4px" />
<path d="M 1660.0 105.0 L 1670.0 105.0" stroke="#FF0000" fill="none" stroke-width="4px" />
<path d="M 1670.0 105.0 L 1680.0 105.0" stroke="#FF0000" fill="none" stroke-width="4px" />
<path d="M 1680.0 105.0 L 1680.0 95.0" stroke="#FF0000" fill="none" stroke-width="4px" />
<path d="M 1680.0 95.0 L 1670.0 95.0" stroke="#FF0000" fill="none" stroke-width="4px" />
<path d="M 1670.0 95.0 L 1660.0 95.0" stroke="#FF0000" fill="none" stroke-width="4px" />
<path d="M 1660.0 95.0 L 1650.0 95.0" stroke="#FF0000" fill="none" stroke-width="4px" />
<path d="M 1650.0 95.0 L 1640.0 95.0" stroke="#FF0000" fill="none" stroke-width="4px" />
<path d="M 1640.0 95.0 L 1630.0 95.0" stroke="#FF0000" fill="none" stroke-width="4px" />
<path d="M 1630.0 95.0 L 1630.0 85.0" stroke="#FF0000" fill="none" stroke-width="4px" />
<path d="M 1630.0 85.0 L 1640.0 85.0" stroke="#FF0000" fill="none" stroke-width="4px" />
<path d="M 1640.0 85.0 L 1650.0 85.0" stroke="#FF0000" fill="none" stroke-width="4px" />
<path d="M 1650.0 85.0 L 1660.0 85.0" stroke="#FF0000" fill="none" stroke-width="4px" />
<path d="M 1660.0 85.0 L 1670.0 85.0" stroke="#FF0000" fill="none" stroke-width="4px" />
<path d="M 1670.0 85.0 L 1680.0 85.0" stroke="#FF0000" fill="none" stroke-width="4px" />
<path d="M 1680.0 85.0 L 1690.0 85.0" stroke="#FF0000" fill="none" stroke-width="4px" />
<path d="M 1690.0 85.0 L 1700.0 85.0" stroke="#FF0000" fill="none" stroke-width="4px" />
<path d="M 1700.0 85.0 L 1700.0 75.0" stroke="#FF0000" fill="none" stroke-width="4px" />
<path d="M 1700.0 75.0 L 1690.0 75.0" stroke="#FF0000" fill="none" stroke-width="4px" />
<path d="M 1690.0 75.0 L 1680.0 75.0" stroke="#FF0000" fill="none" stroke-width="4px" />
<path d="M 1680.0 75.0 L 1670.0 75.0" stroke="#FF0000" fill="none" stroke-width="4px" />
<path d="M 1670.0 75.0 L 1660.0 75.0" stroke="#FF0000" fill="none" stroke-width="4px" />
<path d="M 1660.0 75.0 L 1650.0 75.0" stroke="#FF0000" fill="none" stroke-width="4px" />
<path d="M 1650.0 75.0 L 1640.0 75.0" stroke="#FF0000" fill="none" stroke-width="4px" />
<path d="M 1640.0 75.0 L 1630.0 75.0" stroke="#FF0000" fill="none" stroke-width="4px" />
<path d="M 1630.0 75.0 L 1630.0 65.0" stroke="#FF0000" fill="none" stroke-width="4px" />
<path d="M 1630.0 65.0 L 1640.0 65.0" stroke="#FF0000" fill="none" stroke-width="4px" />
<path d="M 1640.0 65.0 L 1650.0 65.0" stroke="#FF0000" fill="none" stroke-width="4px" />
<path d="M 1650.0 65.0 L 1660.0 65.0" stroke="#FF0000" fill="none" stroke-width="4px" />
<path d="M 1660.0 65.0 L 1670.0 65.0" stroke="#FF0000" fill="none" stroke-width="4px" />
<path d="M 1670.0 65.0 L 1680.0 65.0" stroke="#FF0000" fill="none" stroke-width="4px" />
<path d="M 1680.0 65.0 L 1690.0 65.0" stroke="#FF0000" fill="none" stroke-width="4px" />
<path d="M 1690.0 65.0 L 1700.0 65.0" stroke="#FF0000" fill="none" stroke-width="4px" />
<path d="M 1700.0 65.0 L 1700.0 55.0" stroke="#FF0000" fill="none" stroke-width="4px" />
<path d="M 1700.0 55.0 L 1690.0 55.0" stroke="#FF0000" fill="none" stroke-width="4px" />
<path d="M 1690.0 55.0 L 1680.0 55.0" stroke="#FF0000" fill="none" stroke-width="4px" />
<path d="M 1680.0 55.0 L 1670.0 55.0" stroke="#FF0000" fill="none" stroke-width="4px" />
<path d="M 1670.0 55.0 L 1660.0 55.0" stroke="#FF0000" fill="none" stroke-width="4px" />
<path d="M 1660.0 55.0 L 1650.0 55.0" stroke="#FF0000" fill="none" stroke-width="4px" />
<path d="M 1650.0 55.0 L 1640.0 55.0" stroke="#FF0000" fill="none" stroke-width="4px" />
<path d="M 1640.0 55.0 L 1630.0 55.0" stroke="#FF0000" fill="none" stroke-width="4px" />
<path d="M 1630.0 55.0 L 1640.0 45.0" stroke="#FF0000" fill="none" stroke-width="4px" />
<path d="M 1640.0 45.0 L 1650.0 45.0" stroke="#FF0000" fill="none" stroke-width="4px" />
<path d="M 1650.0 45.0 L 1660.0 45.0" stroke="#FF0000" fill="none" stroke-width="4px" />
<path d="M 1660.0 45.0 L 1670.0 45.0" stroke="#FF0000" fill="none" stroke-width="4px" />
<path d="M 1670.0 45.0 L 1680.0 45.0" stroke="#FF0000" fill="none" stroke-width="4px" />
<path d="M 1680.0 45.0 L 1690.0 45.0" stroke="#FF0000" fill="none" stroke-width="4px" />
<path d="M 1690.0 45.0 L 1680.0 35.0" stroke="#FF0000" fill="none" stroke-width="4px" />
<path d="M 1680.0 35.0 L 1670.0 35.0" stroke="#FF0000" fill="none" stroke-width="4px" />
<path d="M 1670.0 35.0 L 1660.0 35.0" stroke="#FF0000" fill="none" stroke-width="4px" />
<path d="M 1660.0 35.0 L 1650.0 35.0" stroke="#FF0000" fill="none" stroke-width="4px" />
<path d="M 1670.0 115.0 L 1660.0 115.0" stroke="#FF0000" fill="none" stroke-width="4px" />
<path d="M 1660.0 115.0 L 1650.0 115.0" stroke="#FF0000" fill="none" stroke-width="4px" />
<path d="M 1650.0 115.0 L 1640.0 115.0" stroke="#FF0000" fill="none" stroke-width="4px" />
<path d="M 1640.0 115.0 L 1650.0 125.0" stroke="#FF0000" fill="none" stroke-width="4px" />
<path d="M 2220.0 55.0 L 2210.0 55.0" stroke="#FF0000" fill="none" stroke-width="4px" />
<path d="M 2210.0 55.0 L 2200.0 55.0" stroke="#FF0000" fill="none" stroke-width="4px" />
<path d="M 2200.0 55.0 L 2190.0 55.0" stroke="#FF0000" fill="none" stroke-width="4px" />
<path d="M 2190.0 55.0 L 2180.0 55.0" stroke="#FF0000" fill="none" stroke-width="4px" />
<path d="M 2180.0 55.0 L 2170.0 55.0" stroke="#FF0000" fill="none" stroke-width="4px" />
<path d="M 2170.0 55.0 L 2160.0 55.0" stroke="#FF0000" fill="none" stroke-width="4px" />
<path d="M 2160.0 55.0 L 2150.0 55.0" stroke="#FF0000" fill="none" stroke-width="4px" />
<path d="M 2150.0 55.0 L 2140.0 55.0" stroke="#FF0000" fill="none" stroke-width="4px" />
<path d="M 2140.0 55.0 L 2130.0 55.0" stroke="#FF0000" fill="none" stroke-width="4px" />
<path d="M 2130.0 55.0 L 2120.0 55.0" stroke="#FF0000" fill="none" stroke-width="4px" />
<path d="M 2120.0 55.0 L 2110.0 55.0" stroke="#FF0000" fill="none" stroke-width="4px" />
<path d="M 2110.0 55.0 L 2100.0 55.0" stroke="#FF0000" fill="none" stroke-width="4px" />
<path d="M 2100.0 55.0 L 2100.0 65.0" stroke="#FF0000" fill="none" stroke-width="4px" />
<path d="M 2100.0 65.0 L 2110.0 65.0" stroke="#FF0000" fill="none" stroke-width="4px" />
<path d="M 2110.0 65.0 L 2120.0 65.0" stroke="#FF0000" fill="none" stroke-width="4px" />
<path d="M 2120.0 65.0 L 2130.0 65.0" stroke="#FF0000" fill="none" stroke-width="4px" />
<path d="M 2130.0 65.0 L 2140.0 65.0" stroke="#FF0000" fill="none" stroke-width="4px" />
<path d="M 2140.0 65.0 L 2150.0 65.0" stroke="#FF0000" fill="none" stroke-width="4px" />
<path d="M 2150.0 65.0 L 2160.0 65.0" stroke="#FF0000" fill="none" stroke-width="4px" />
<path d="M 2160.0 65.0 L 2170.0 65.0" stroke="#FF0000" fill="none" stroke-width="4px" />
<path d="M 2170.0 65.0 L 2180.0 65.0" stroke="#FF0000" fill="none" stroke-width="4px" />
<path d="M 2180.0 65.0 L 2190.0 65.0" stroke="#FF0000" fill="none" stroke-width="4px" />
<path d="M 2190.0 65.0 L 2200.0 65.0" stroke="#FF0000" fill="none" stroke-width="4px" />
<path d="M 2200.0 65.0 L 2190.0 75.0" stroke="#FF0000" fill="none" stroke-width="4px" />
<path d="M 2190.0 75.0 L 2180.0 75.0" stroke="#FF0000" fill="none" stroke-width="4px" />
<path d="M 2180.0 75.0 L 2170.0 75.0" stroke="#FF0000" fill="none" stroke-width="4px" />
<path d="M 2170.0 75.0 L 2160.0 75.0" stroke="#FF0000" fill="none" stroke-width="4px" />
<path d="M 2160.0 75.0 L 2150.0 75.0" stroke="#FF0000" fill="none" stroke-width="4px" />
<path d="M 2150.0 75.0 L 2140.0 75.0" stroke="#FF0000" fill="none" stroke-width="4px" />
<path d="M 2140.0 75.0 L 2130.0 75.0" stroke="#FF0000" fill="none" stroke-width="4px" />
<path d="M 2130.0 75.0 L 2120.0 75.0" stroke="#FF0000" fill="none" stroke-width="4px" />
<path d="M 2120.0 75.0 L 2110.0 75.0" stroke="#FF0000" fill="none" stroke-width="4px" />
<path d="M 2110.0 75.0 L 2120.0 85.0" stroke="#FF0000" fill="none" stroke-width="4px" />
<path d="M 2120.0 85.0 L 2130.0 85.0" stroke="#FF0000" fill="none" stroke-width="4px" />
<path d="M 2130.0 85.0 L 2140.0 85.0" stroke="#FF0000" fill="none" stroke-width="4px" />
<path d="M 2140.0 85.0 L 2150.0 85.0" stroke="#FF0000" fill="none" stroke-width="4px" />
<path d="M 2150.0 85.0 L 2160.0 85.0" stroke="#FF0000" fill="none" stroke-width="4px" />
<path d="M 2160.0 85.0 L 2170.0 85.0" stroke="#FF0000" fill="none" stroke-width="4px" />
<path d="M 2170.0 85.0 L 2180.0 85.0" stroke="#FF0000" fill="none" stroke-width="4px" />
<path d="M 2150.0 95.0 L 2140.0 95.0" stroke="#FF0000" fill="none" stroke-width="4px" />
<path d="M 2140.0 95.0 L 2130.0 95.0" stroke="#FF0000" fill="none" stroke-width="4px" />
<path d="M 2130.0 95.0 L 2140.0 105.0" stroke="#FF0000" fill="none" stroke-width="4px" />
<path d="M 2140.0 45.0 L 2130.0 45.0" stroke="#FF0000" fill="none" stroke-width="4px" />
<path d="M 2130.0 45.0 L 2120.0 45.0" stroke="#FF0000" fill="none" stroke-width="4px" />
<path d="M 2120.0 45.0 L 2110.0 45.0" stroke="#FF0000" fill="none" stroke-width="4px" />
<path d="M 2110.0 45.0 L 2100.0 45.0" stroke="#FF0000" fill="none" stroke-width="4px" />
<path d="M 2100.0 45.0 L 2100.0 35.0" stroke="#FF0000" fill="none" stroke-width="4px" />
<path d="M 2100.0 35.0 L 2110.0 35.0" stroke="#FF0000" fill="none" stroke-width="4px" />
<path d="M 2110.0 35.0 L 2120.0 35.0" stroke="#FF0000" fill="none" stroke-width="4px" />
<path d="M 2120.0 35.0 L 2130.0 35.0" stroke="#FF0000" fill="none" stroke-width="4px" />
<path d="M 2130.0 35.0 L 2140.0 35.0" stroke="#FF0000" fill="none" stroke-width="4px" />
<path d="M 2140.0 35.0 L 2150.0 35.0" stroke="#FF0000" fill="none" stroke-width="4px" />
<path d="M 2150.0 35.0 L 2160.0 35.0" stroke="#FF0000" fill="none" stroke-width="4px" />
<path d="M 2160.0 35.0 L 2170.0 35.0" stroke="#FF0000" fill="none" stroke-width="4px" />
<path d="M 2170.0 35.0 L 2180.0 35.0" stroke="#FF0000" fill="none" stroke-width="4px" />
<path d="M 2180.0 35.0 L 2190.0 35.0" stroke="#FF0000" fill="none" stroke-width="4px" />
<path d="M 2190.0 35.0 L 2200.0 35.0" stroke="#FF0000" fill="none" stroke-width="4px" />
<path d="M 2200.0 35.0 L 2210.0 35.0" stroke="#FF0000" fill="none" stroke-width="4px" />
<path d="M 2210.0 35.0 L 2220.0 35.0" stroke="#FF0000" fill="none" stroke-width="4px" />
<path d="M 2220.0 35.0 L 2230.0 35.0" stroke="#FF0000" fill="none" stroke-width="4px" />
<path d="M 2230.0 35.0 L 2230.0 45.0" stroke="#FF0000" fill="none" stroke-width="4px" />
<path d="M 2230.0 45.0 L 2220.0 45.0" stroke="#FF0000" fill="none" stroke-width="4px" />
<path d="M 2220.0 45.0 L 2210.0 45.0" stroke="#FF0000" fill="none" stroke-width="4px" />
<path d="M 2210.0 45.0 L 2200.0 45.0" stroke="#FF0000" fill="none" stroke-width="4px" />
<path d="M 2200.0 45.0 L 2190.0 45.0" stroke="#FF0000" fill="none" stroke-width="4px" />
<path d="M 2190.0 45.0 L 2180.0 45.0" stroke="#FF0000" fill="none" stroke-width="4px" />
<path d="M 2180.0 45.0 L 2170.0 45.0" stroke="#FF0000" fill="none" stroke-width="4px" />
<path d="M 2170.0 45.0 L 2160.0 45.0" stroke="#FF0000" fill="none" stroke-width="4px" />
<path d="M 2160.0 45.0 L 2150.0 45.0" stroke="#FF0000" fill="none" stroke-width="4px" />
<path d="M 2150.0 25.0 L 2140.0 25.0" stroke="#FF0000" fill="none" stroke-width="4px" />
<path d="M 2140.0 25.0 L 2130.0 25.0" stroke="#FF0000" fill="none" stroke-width="4px" />
<path d="M 2130.0 25.0 L 2120.0 25.0" stroke="#FF0000" fill="none" stroke-width="4px" />
<path d="M 2120.0 25.0 L 2110.0 25.0" stroke="#FF0000" fill="none" stroke-width="4px" />
<path d="M 2110.0 25.0 L 2100.0 25.0" stroke="#FF0000" fill="none" stroke-width="4px" />
<path d="M 2100.0 25.0 L 2100.0 15.0" stroke="#FF0000" fill="none" stroke-width="4px" />
<path d="M 2100.0 15.0 L 2110.0 15.0" stroke="#FF0000" fill="none" stroke-width="4px" />
<path d="M 2110.0 15.0 L 2120.0 15.0" stroke="#FF0000" fill="none" stroke-width="4px" />
<path d="M 2120.0 15.0 L 2130.0 15.0" stroke="#FF0000" fill="none" stroke-width="4px" />
<path d="M 2130.0 15.0 L 2140.0 15.0" stroke="#FF0000" fill="none" stroke-width="4px" />
<path d="M 2140.0 15.0 L 2150.0 15.0" stroke="#FF0000" fill="none" stroke-width="4px" />
<path d="M 2150.0 15.0 L 2160.0 25.0" stroke="#FF0000" fill="none" stroke-width="4px" />
<path d="M 2190.0 25.0 L 2200.0 25.0" stroke="#FF0000" fill="none" stroke-width="4px" />
<path d="M 2200.0 25.0 L 2210.0 25.0" stroke="#FF0000" fill="none" stroke-width="4px" />
<path d="M 2210.0 25.0 L 2220.0 25.0" stroke="#FF0000" fill="none" stroke-width="4px" />
<path d="M 2220.0 25.0 L 2230.0 25.0" stroke="#FF0000" fill="none" stroke-width="4px" />
<path d="M 2230.0 25.0 L 2220.0 15.0" stroke="#FF0000" fill="none" stroke-width="4px" />
<path d="M 2220.0 15.0 L 2210.0 15.0" stroke="#FF0000" fill="none" stroke-width="4px" />
<path d="M 2210.0 15.0 L 2200.0 15.0" stroke="#FF0000" fill="none" stroke-width="4px" />
<path d="M 2200.0 15.0 L 2210.0 5.0" stroke="#FF0000" fill="none" stroke-width="4px" />
<path d="M 2140.0 5.0 L 2130.0 5.0" stroke="#FF0000" fill="none" stroke-width="4px" />
<path d="M 2130.0 5.0 L 2120.0 5.0" stroke="#FF0000" fill="none" stroke-width="4px" />
<path d="M 2120.0 5.0 L 2110.0 5.0" stroke="#FF0000" fill="none" stroke-width="4px" />
<path d="M 2110.0 5.0 L 2100.0 5.0" stroke="#FF0000" fill="none" stroke-width="4px" />
<path d="M 2100.0 5.0 L 2110.0 -5.0" stroke="#FF0000" fill="none" stroke-width="4px" />
<path d="M 2110.0 -5.0 L 2120.0 -5.0" stroke="#FF0000" fill="none" stroke-width="4px" />
<path d="M 2120.0 -5.0 L 2130.0 -5.0" stroke="#FF0000" fill="none" stroke-width="4px" />
<path d="M 2130.0 -5.0 L 2140.0 -5.0" stroke="#FF0000" fill="none" stroke-width="4px" />
</svg>