<svg width="2472.26666667" height="235.0" xmlns="http://www.w3.org/2000/svg" version="1.1">
<path d="M 0.0 235.0 L 1880.0 235.0 L 1880.0 0.0 L 0.0 0.0 L 0.0 235.0" stroke="#000000" fill="none" stroke-width="3px" />
<path d="M 2472.26666667 235.0 L 1780.0 235.0 L 1780.0 0.0 L 2472.26666667 0.0 L 2472.26666667 235.0" stroke="#000000" fill="none" stroke-width="3px" />
<path d="M 10.0 257.5 L 0.0 247.5 L 10.0 237.5" stroke="#969696" fill="none" stroke-width="1px" />
<path d="M 10.0 237.5 L 1870.0 237.5" stroke="#969696" fill="none" stroke-width="1px" />
<path d="M 1870.0 237.5 L 1880.0 227.5 L 1870.0 217.5" stroke="#969696" fill="none" stroke-width="1px" />
<path d="M 1870.0 217.5 L 10.0 217.5" stroke="#969696" fill="none" stroke-width="1px" />
<path d="M 10.0 217.5 L 0.0 207.5 L 10.0 197.5" stroke="#969696" fill="none" stroke-width="1px" />
<path d="M 10.0 197.5 L 1870.0 197.5" stroke="#969696" fill="none" stroke-width="1px" />
<path d="M 1870.0 197.5 L 1880.0 187.5 L 1870.0 177.5" stroke="#969696" fill="none" stroke-width="1px" />
<path d="M 1870.0 177.5 L 10.0 177.5" stroke="#969696" fill="none" stroke-width="1px" />
<path d="M 10.0 177.5 L 0.0 167.5 L 10.0 157.5" stroke="#969696" fill="none" stroke-width="1px" />
<path d="M 10.0 157.5 L 1870.0 157.5" stroke="#969696" fill="none" stroke-width="1px" />
<path d="M 1870.0 157.5 L 1880.0 147.5 L 1870.0 137.5" stroke="#969696" fill="none" stroke-width="1px" />
<path d="M 1870.0 137.5 L 10.0 137.5" stroke="#969696" fill="none" stroke-width="1px" />
<path d="M 10.0 137.5 L 0.0 127.5 L 10.0 117.5" stroke="#969696" fill="none" stroke-width="1px" />
<path d="M 10.0 117.5 L 1870.0 117.5" stroke="#969696" fill="none" stroke-width="1px" />
<path d="M 1870.0 117.5 L 1880.0 107.5 L 1870.0 97.5" stroke="#969696" fill="none" stroke-width="1px" />
<path d="M 1870.0 97.5 L 10.0 97.5" stroke="#969696" fill="none" stroke-width="1px" />
<path d="M 10.0 97.5 L 0.0 87.5 L 10.0 77.5" stroke="#969696" fill="none" stroke-width="1px" />
<path d="M 10.0 77.5 L 1870.0 77.5" stroke="#969696" fill="none" stroke-width="1px" />
<path d="M 1870.0 77.5 L 1880.0 67.5 L 1870.0 57.5" stroke="#969696" fill="none" stroke-width="1px" />
<path d="M 1870.0 57.5 L 10.0 57.5" stroke="#969696" fill="none" stroke-width="1px" />
<path d="M 10.0 57.5 L 0.0 47.5 L 10.0 37.5" stroke="#969696" fill="none" stroke-width="1px" />
<path d="M 10.0 37.5 L 1870.0 37.5" stroke="#969696" fill="none" stroke-width="1px" />
<path d="M 1870.0 37.5 L 1880.0 27.5 L 1870.0 17.5" stroke="#969696" fill="none" stroke-width="1px" />
<path d="M 1870.0 17.5 L 10.0 17.5" stroke="#969696" fill="none" stroke-width="1px" />
<path d="M 10.0 17.5 L 0.0 7.5 L 10.0 -2.5" stroke="#969696" fill="none" stroke-width="1px" />
<path d="M 10.0 -2.5 L 1870.0 -2.5" stroke="#969696" fill="none" stroke-width="1px" />
<path d="M 1870.0 -2.5 L 1880.0 -12.5 L 1870.0 -22.5" stroke="#969696" fill="none" stroke-width="1px" />
<path d="M 2462.26666667 257.5 L 2472.26666667 247.5 L 2462.26666667 237.5" stroke="#969696" fill="none" stroke-width="1px" />
<path d="M 2462.26666667 237.5 L 1790.0 237.5" stroke="#969696" fill="none" stroke-width="1px" />
<path d="M 1790.0 237.5 L 1780.0 227.5 L 1790.0 217.5" stroke="#969696" fill="none" stroke-width="1px" />
<path d="M 1790.0 217.5 L 2462.26666667 217.5" stroke="#969696" fill="none" stroke-width="1px" />
<path d="M 2462.26666667 217.5 L 2472.26666667 207.5 L 2462.26666667 197.5" stroke="#969696" fill="none" stroke-width="1px" />
<path d="M 2462.26666667 197.5 L 1790.0 197.5" stroke="#969696" fill="none" stroke-width="1px" />
<path d="M 1790.0 197.5 L 1780.0 187.5 L 1790.0 177.5" stroke="#969696" fill="none" stroke-width="1px" />
<path d="M 1790.0 177.5 L 2462.26666667 177.5" stroke="#969696" fill="none" stroke-width="1px" />
<path d="M 2462.26666667 177.5 L 2472.26666667 167.5 L 2462.26666667 157.5" stroke="#969696" fill="none" stroke-width="1px" />
<path d="M 2462.26666667 157.5 L 1790.0 157.5" stroke="#969696" fill="none" stroke-width="1px" />
<path d="M 1790.0 157.5 L 1780.0 147.5 L 1790.0 137.5" stroke="#969696" fill="none" stroke-width="1px" />
<path d="M 1790.0 137.5 L 2462.26666667 137.5" stroke="#969696" fill="none" stroke-width="1px" />
<path d="M 2462.26666667 137.5 L 2472.26666667 127.5 L 2462.26666667 117.5" stroke="#969696" fill="none" stroke-width="1px" />
<path d="M 2462.26666667 117.5 L 1790.0 117.5" stroke="#969696" fill="none" stroke-width="1px" />
<path d="M 1790.0 117.5 L 1780.0 107.5 L 1790.0 97.5" stroke="#969696" fill="none" stroke-width="1px" />
<path d="M 1790.0 97.5 L 2462.26666667 97.5" stroke="#969696" fill="none" stroke-width="1px" />
<path d="M 2462.26666667 97.5 L 2472.26666667 87.5 L 2462.26666667 77.5" stroke="#969696" fill="none" stroke-width="1px" />
<path d="M 2462.26666667 77.5 L 1790.0 77.5" stroke="#969696" fill="none" stroke-width="1px" />
<path d="M 1790.0 77.5 L 1780.0 67.5 L 1790.0 57.5" stroke="#969696" fill="none" stroke-width="1px" />
<path d="M 1790.0 57.5 L 2462.26666667 57.5" stroke="#969696" fill="none" stroke-width="1px" />
<path d="M 2462.26666667 57.5 L 2472.26666667 47.5 L 2462.26666667 37.5" stroke="#969696" fill="none" stroke-width="1px" />
<path d="M 2462.26666667 37.5 L 1790.0 37.5" stroke="#969696" fill="none" stroke-width="1px" />
<path d="M 1790.0 37.5 L 1780.0 27.5 L 1790.0 17.5" stroke="#969696" fill="none" stroke-width="1px" />
<path d="M 1790.0 17.5 L 2462.26666667 17.5" stroke="#969696" fill="none" stroke-width="1px" />
<path d="M 2462.26666667 17.5 L 2472.26666667 7.5 L 2462.26666667 -2.5" stroke="#969696" fill="none" stroke-width="1px" />
<path d="M 2462.26666667 -2.5 L 1790.0 -2.5" stroke="#969696" fill="none" stroke-width="1px" />
<path d="M 1790.0 -2.5 L 1780.0 -12.5 L 1790.0 -22.5" stroke="#969696" fill="none" stroke-width="1px" />
<path d="M 0.0 235.0 L 60.0 235.0" stroke="#0095FF" fill="none" stroke-width="2px" />
<path d="M 60.0 235.0 L 60.0 115.0" stroke="#0095FF" fill="none" stroke-width="2px" />
<path d="M 80.0 105.0 L 70.0 105.0" stroke="#0095FF" fill="none" stroke-width="2px" />
<path d="M 70.0 105.0 L 70.0 85.0" stroke="#0095FF" fill="none" stroke-width="2px" />
<path d="M 60.0 85.0 L 910.0 85.0" stroke="#0095FF" fill="none" stroke-width="2px" />
<path d="M 910.0 85.0 L 910.0 75.0" stroke="#0095FF" fill="none" stroke-width="2px" />
<path d="M 930.0 55.0 L 930.0 85.0" stroke="#0095FF" fill="none" stroke-width="2px" />
<path d="M 920.0 85.0 L 1260.0 85.0" stroke="#0095FF" fill="none" stroke-width="2px" />
<path d="M 1260.0 85.0 L 1260.0 65.0" stroke="#0095FF" fill="none" stroke-width="2px" />
<path d="M 1300.0 105.0 L 1300.0 55.0" stroke="#0095FF" fill="none" stroke-width="2px" />
<path d="M 1320.0 55.0 L 1300.0 55.0" stroke="#0095FF" fill="none" stroke-width="2px" />
<path d="M 1300.0 55.0 L 1300.0 35.0" stroke="#0095FF" fill="none" stroke-width="2px" />
<path d="M 2472.26666667 235.0 L 2280.0 235.0" stroke="#0095FF" fill="none" stroke-width="2px" />
<path d="M 2280.0 235.0 L 2280.0 85.0" stroke="#0095FF" fill="none" stroke-width="2px" />
<path d="M 2290.0 75.0 L 2280.0 75.0" stroke="#0095FF" fill="none" stroke-width="2px" />
<path d="M 2280.0 75.0 L 2280.0 45.0" stroke="#0095FF" fill="none" stroke-width="2px" />
<path d="M 60.0 115.0 L 70.0 115.0" stroke="#FF0000" fill="none" stroke-width="4px" />
<path d="M 70.0 115.0 L 70.0 105.0" stroke="#FF0000" fill="none" stroke-width="4px" />
<path d="M 70.0 105.0 L 60.0 105.0" stroke="#FF0000" fill="none" stroke-width="4px" />
<path d="M 60.0 105.0 L 50.0 105.0" stroke="#FF0000" fill="none" stroke-width="4px" />
<path d="M 50.0 105.0 L 50.0 95.0" stroke="#FF0000" fill="none" stroke-width="4px" />
<path d="M 50.0 95.0 L 60.0 95.0" stroke="#FF0000" fill="none" stroke-width="4px" />
<path d="M 60.0 95.0 L 70.0 95.0" stroke="#FF0000" fill="none" stroke-width="4px" />
<path d="M 70.0 95.0 L 80.0 95.0" stroke="#FF0000" fill="none" stroke-width="4px" />
<path d="M 80.0 95.0 L 80.0 105.0" stroke="#FF0000" fill="none" stroke-width="4px" />
<path d="M 70.0 85.0 L 60.0 85.0" stroke="#FF0000" fill="none" stroke-width="4px" />
<path d="M 910.0 75.0 L 920.0 75.0" stroke="#FF0000" fill="none" stroke-width="4px" />
<path d="M 920.0 75.0 L 930.0 75.0" stroke="#FF0000" fill="none" stroke-width="4px" />
<path d="M 930.0 75.0 L 940.0 75.0" stroke="#FF0000" fill="none" stroke-width="4px" />
<path d="M 940.0 75.0 L 940.0 65.0" stroke="#FF0000" fill="none" stroke-width="4px" />
<path d="M 940.0 65.0 L 930.0 65.0" stroke="#FF0000" fill="none" stroke-width="4px" />
<path d="M 930.0 65.0 L 920.0 65.0" stroke="#FF0000" fill="none" stroke-width="4px" />
<path d="M 920.0 65.0 L 910.0 65.0" stroke="#FF0000" fill="none" stroke-width="4px" />
<path d="M 910.0 65.0 L 920.0 55.0" stroke="#FF0000" fill="none" stroke-width="4px" />
<path d="M 920.0 55.0 L 930.0 55.0" stroke="#FF0000" fill="none" stroke-width="4px" />
<path d="M 930.0 85.0 L 920.0 85.0" stroke="#FF0000" fill="none" stroke-width="4px" />
<path d="M 1260.0 65.0 L 1270.0 65.0" stroke="#FF0000" fill="none" stroke-width="4px" />
<path d="M 1270.0 65.0 L 1280.0 65.0" stroke="#FF0000" fill="none" stroke-width="4px" />
<path d="M 1280.0 65.0 L 1290.0 65.0" stroke="#FF0000" fill="none" stroke-width="4px" />
<path d="M 1290.0 65.0 L 1300.0 65.0" stroke="#FF0000" fill="none" stroke-width="4px" />
<path d="M 1300.0 65.0 L 1310.0 65.0" stroke="#FF0000" fill="none" stroke-width="4px" />
<path d="M 1310.0 65.0 L 1320.0 65.0" stroke="#FF0000" fill="none" stroke-width="4px" />
<path d="M 1320.0 65.0 L 1330.0 65.0" stroke="#FF0000" fill="none" stroke-width="4px" />
<path d="M 1330.0 65.0 L 1330.0 75.0" stroke="#FF0000" fill="none" stroke-width="4px" />
<path d="M 1330.0 75.0 L 1320.0 75.0" stroke="#FF0000" fill="none" stroke-width="4px" />
<path d="M 1320.0 75.0 L 1310.0 75.0" stroke="#FF0000" fill="none" stroke-width="4px" />
<path d="M 1310.0 75.0 L 1300.0 75.0" stroke="#FF0000" fill="none" stroke-width="4px" />
<path d="M 1300.0 75.0 L 1290.0 75.0" stroke="#FF0000" fill="none" stroke-width="4px" />
<path d="M 1290.0 75.0 L 1280.0 75.0" stroke="#FF0000" fill="none" stroke-width="4px" />
<path d="M 1280.0 75.0 L 1270.0 75.0" stroke="#FF0000" fill="none" stroke-width="4px" />
<path d="M 1270.0 75.0 L 1280.0 85.0" stroke="#FF0000" fill="none" stroke-width="4px" />
<path d="M 1280.0 85.0 L 1290.0 85.0" stroke="#FF0000" fill="none" stroke-width="4px" />
<path d="M 1290.0 85.0 L 1300.0 85.0" stroke="#FF0000" fill="none" stroke-width="4px" />
<path d="M 1300.0 85.0 L 1310.0 85.0" stroke="#FF0000" fill="none" stroke-width="4px" />
<path d="M 1310.0 85.0 L 1320.0 85.0" stroke="#FF0000" fill="none" stroke-width="4px" />
<path d="M 1320.0 85.0 L 1310.0 95.0" stroke="#FF0000" fill="none" stroke-width="4px" />
<path d="M 1310.0 95.0 L 1300.0 95.0" stroke="#FF0000" fill="none" stroke-width="4px" />
<path d="M 1300.0 95.0 L 1290.0 95.0" stroke="#FF0000" fill="none" stroke-width="4px" />
<path d="M 1290.0 95.0 L 1300.0 105.0" stroke="#FF0000" fill="none" stroke-width="4px" />
<path d="M 1300.0 55.0 L 1290.0 55.0" stroke="#FF0000" fill="none" stroke-width="4px" />
<path d="M 1290.0 55.0 L 1280.0 55.0" stroke="#FF0000" fill="none" stroke-width="4px" />
<path d="M 1280.0 55.0 L 1270.0 55.0" stroke="#FF0000" fill="none" stroke-width="4px" />
<path d="M 1270.0 55.0 L 1280.0 45.0" stroke="#FF0000" fill="none" stroke-width="4px" />
<path d="M 1280.0 45.0 L 1290.0 45.0" stroke="#FF0000" fill="none" stroke-width="4px" />
<path d="M 1290.0 45.0 L 1300.0 45.0" stroke="#FF0000" fill="none" stroke-width="4px" />
<path d="M 1300.0 45.0 L 1310.0 45.0" stroke="#FF0000" fill="none" stroke-width="4px" />
<path d="M 1310.0 45.0 L 1310.0 55.0" stroke="#FF0000" fill="none" stroke-width="4px" />
<path d="M 1310.0 55.0 L 1320.0 55.0" stroke="#FF0000" fill="none" stroke-width="4px" />
<path d="M 1300.0 35.0 L 1290.0 35.0" stroke="#FF0000" fill="none" stroke-width="4px" />
<path d="M 2280.0 85.0 L 2270.0 85.0" stroke="#FF0000" fill="none" stroke-width="4px" />
<path d="M 2270.0 85.0 L 2260.0 85.0" stroke="#FF0000" fill="none" stroke-width="4px" />
<path d="M 2260.0 85.0 L 2250.0 85.0" stroke="#FF0000" fill="none" stroke-width="4px" />
<path d="M 2250.0 85.0 L 2250.0 75.0" stroke="#FF0000" fill="none" stroke-width="4px" />
<path d="M 2250.0 75.0 L 2240.0 75.0" stroke="#FF0000" fill="none" stroke-width="4px" />
<path d="M 2240.0 75.0 L 2240.0 65.0" stroke="#FF0000" fill="none" stroke-width="4px" />
<path d="M 2240.0 65.0 L 2230.0 65.0" stroke="#FF0000" fill="none" stroke-width="4px" />
<path d="M 2230.0 65.0 L 2240.0 55.0" stroke="#FF0000" fill="none" stroke-width="4px" />
<path d="M 2240.0 55.0 L 2250.0 55.0" stroke="#FF0000" fill="none" stroke-width="4px" />
<path d="M 2250.0 55.0 L 2260.0 55.0" stroke="#FF0000" fill="none" stroke-width="4px" />
<path d="M 2260.0 55.0 L 2270.0 55.0" stroke="#FF0000" fill="none" stroke-width="4px" />
<path d="M 2270.0 55.0 L 2280.0 55.0" stroke="#FF0000" fill="none" stroke-width="4px" />
<path d="M 2280.0 55.0 L 2290.0 55.0" stroke="#FF0000" fill="none" stroke-width="4px" />
<path d="M 2290.0 55.0 L 2290.0 65.0" stroke="#FF0000" fill="none" stroke-width="4px" />
<path d="M 2290.0 65.0 L 2280.0 65.0" stroke="#FF0000" fill="none" stroke-width="4px" />
<path d="M 2280.0 65.0 L 2270.0 65.0" stroke="#FF0000" fill="none" stroke-width="4px" />
<path d="M 2270.0 65.0 L 2260.0 65.0" stroke="#FF0000" fill="none" stroke-width="4px" />
<path d="M 2260.0 65.0 L 2250.0 65.0" stroke="#FF0000" fill="none" stroke-width="4px" />
<path d="M 2250.0 65.0 L 2260.0 75.0" stroke="#FF0000" fill="none" stroke-width="4px" />
<path d="M 2260.0 75.0 L 2270.0 75.0" stroke="#FF0000" fill="none" stroke-width="4px" />
<path d="M 2270.0 75.0 L 2280.0 75.0" stroke="#FF0000" fill="none" stroke-width="4px" />
<path d="M 2280.0 75.0 L 2290.0 75.0" stroke="#FF0000" fill="none" stroke-width="4px" />
<path d="M 2280.0 45.0 L 2270.0 45.0" stroke="#FF0000" fill="none" stroke-width="4px" />
<path d="M 2270.0 45.0 L 2260.0 45.0" stroke="#FF0000" fill="none" stroke-width="4px" />
<path d="M 2260.0 45.0 L 2250.0 45.0" stroke="#FF0000" fill="none" stroke-width="4px" />
<path d="M 2250.0 45.0 L 2260.0 35.0" stroke="#FF0000" fill="none" stroke-width="4px" />
<path d="M 2260.0 35.0 L 2270.0 35.0" stroke="#FF0000" fill="none" stroke-width="4px" />
</svg>