<svg width="2894.54166667" height="235.0" xmlns="http://www.w3.org/2000/svg" version="1.1">
<path d="M 0.0 235.0 L 1985.0 235.0 L 1985.0 0.0 L 0.0 0.0 L 0.0 235.0" stroke="#000000" fill="none" stroke-width="3px" />
<path d="M 2894.54166667 235.0 L 1885.0 235.0 L 1885.0 0.0 L 2894.54166667 0.0 L 2894.54166667 235.0" stroke="#000000" fill="none" stroke-width="3px" />
<path d="M 10.0 257.5 L 0.0 247.5 L 10.0 237.5" stroke="#969696" fill="none" stroke-width="1px" />
<path d="M 10.0 237.5 L 1975.0 237.5" stroke="#969696" fill="none" stroke-width="1px" />
<path d="M 1975.0 237.5 L 1985.0 227.5 L 1975.0 217.5" stroke="#969696" fill="none" stroke-width="1px" />
<path d="M 1975.0 217.5 L 10.0 217.5" stroke="#969696" fill="none" stroke-width="1px" />
<path d="M 10.0 217.5 L 0.0 207.5 L 10.0 197.5" stroke="#969696" fill="none" stroke-width="1px" />
<path d="M 10.0 197.5 L 1975.0 197.5" stroke="#969696" fill="none" stroke-width="1px" />
<path d="M 1975.0 197.5 L 1985.0 187.5 L 1975.0 177.5" stroke="#969696" fill="none" stroke-width="1px" />
<path d="M 1975.0 177.5 L 10.0 177.5" stroke="#969696" fill="none" stroke-width="1px" />
<path d="M 10.0 177.5 L 0.0 167.5 L 10.0 157.5" stroke="#969696" fill="none" stroke-width="1px" />
<path d="M 10.0 157.5 L 1975.0 157.5" stroke="#969696" fill="none" stroke-width="1px" />
<path d="M 1975.0 157.5 L 1985.0 147.5 L 1975.0 137.5" stroke="#969696" fill="none" stroke-width="1px" />
<path d="M 1975.0 137.5 L 10.0 137.5" stroke="#969696" fill="none" stroke-width="1px" />
<path d="M 10.0 137.5 L 0.0 127.5 L 10.0 117.5" stroke="#969696" fill="none" stroke-width="1px" />
<path d="M 10.0 117.5 L 1975.0 117.5" stroke="#969696" fill="none" stroke-width="1px" />
<path d="M 1975.0 117.5 L 1985.0 107.5 L 1975.0 97.5" stroke="#969696" fill="none" stroke-width="1px" />
<path d="M 1975.0 97.5 L 10.0 97.5" stroke="#969696" fill="none" stroke-width="1px" />
<path d="M 10.0 97.5 L 0.0 87.5 L 10.0 77.5" stroke="#969696" fill="none" stroke-width="1px" />
<path d="M 10.0 77.5 L 1975.0 77.5" stroke="#969696" fill="none" stroke-width="1px" />
<path d="M 1975.0 77.5 L 1985.0 67.5 L 1975.0 57.5" stroke="#969696" fill="none" stroke-width="1px" />
<path d="M 1975.0 57.5 L 10.0 57.5" stroke="#969696" fill="none" stroke-width="1px" />
<path d="M 10.0 57.5 L 0.0 47.5 L 10.0 37.5" stroke="#969696" fill="none" stroke-width="1px" />
<path d="M 10.0 37.5 L 1975.0 37.5" stroke="#969696" fill="none" stroke-width="1px" />
<path d="M 1975.0 37.5 L 1985.0 27.5 L 1975.0 17.5" stroke="#969696" fill="none" stroke-width="1px" />
<path d="M 1975.0 17.5 L 10.0 17.5" stroke="#969696" fill="none" stroke-width="1px" />
<path d="M 10.0 17.5 L 0.0 7.5 L 10.0 -2.5" stroke="#969696" fill="none" stroke-width="1px" />
<path d="M 10.0 -2.5 L 1975.0 -2.5" stroke="#969696" fill="none" stroke-width="1px" />
<path d="M 1975.0 -2.5 L 1985.0 -12.5 L 1975.0 -22.5" stroke="#969696" fill="none" stroke-width="1px" />
<path d="M 2884.54166667 257.5 L 2894.54166667 247.5 L 2884.54166667 237.5" stroke="#969696" fill="none" stroke-width="1px" />
<path d="M 2884.54166667 237.5 L 1895.0 237.5" stroke="#969696" fill="none" stroke-width="1px" />
<path d="M 1895.0 237.5 L 1885.0 227.5 L 1895.0 217.5" stroke="#969696" fill="none" stroke-width="1px" />
<path d="M 1895.0 217.5 L 2884.54166667 217.5" stroke="#969696" fill="none" stroke-width="1px" />
<path d="M 2884.54166667 217.5 L 2894.54166667 207.5 L 2884.54166667 197.5" stroke="#969696" fill="none" stroke-width="1px" />
<path d="M 2884.54166667 197.5 L 1895.0 197.5" stroke="#969696" fill="none" stroke-width="1px" />
<path d="M 1895.0 197.5 L 1885.0 187.5 L 1895.0 177.5" stroke="#969696" fill="none" stroke-width="1px" />
<path d="M 1895.0 177.5 L 2884.54166667 177.5" stroke="#969696" fill="none" stroke-width="1px" />
<path d="M 2884.54166667 177.5 L 2894.54166667 167.5 L 2884.54166667 157.5" stroke="#969696" fill="none" stroke-width="1px" />
<path d="M 2884.54166667 157.5 L 1895.0 157.5" stroke="#969696" fill="none" stroke-width="1px" />
<path d="M 1895.0 157.5 L 1885.0 147.5 L 1895.0 137.5" stroke="#969696" fill="none" stroke-width="1px" />
<path d="M 1895.0 137.5 L 2884.54166667 137.5" stroke="#969696" fill="none" stroke-width="1px" />
<path d="M 2884.54166667 137.5 L 2894.54166667 127.5 L 2884.54166667 117.5" stroke="#969696" fill="none" stroke-width="1px" />
<path d="M 2884.54166667 117.5 L 1895.0 117.5" stroke="#969696" fill="none" stroke-width="1px" />
<path d="M 1895.0 117.5 L 1885.0 107.5 L 1895.0 97.5" stroke="#969696" fill="none" stroke-width="1px" />
<path d="M 1895.0 97.5 L 2884.54166667 97.5" stroke="#969696" fill="none" stroke-width="1px" />
<path d="M 2884.54166667 97.5 L 2894.54166667 87.5 L 2884.54166667 77.5" stroke="#969696" fill="none" stroke-width="1px" />
<path d="M 2884.54166667 77.5 L 1895.0 77.5" stroke="#969696" fill="none" stroke-width="1px" />
<path d="M 1895.0 77.5 L 1885.0 67.5 L 1895.0 57.5" stroke="#969696" fill="none" stroke-width="1px" />
<path d="M 1895.0 57.5 L 2884.54166667 57.5" stroke="#969696" fill="none" stroke-width="1px" />
<path d="M 2884.54166667 57.5 L 2894.54166667 47.5 L 2884.54166667 37.5" stroke="#969696" fill="none" stroke-width="1px" />
<path d="M 2884.54166667 37.5 L 1895.0 37.5" stroke="#969696" fill="none" stroke-width="1px" />
<path d="M 1895.0 37.5 L 1885.0 27.5 L 1895.0 17.5" stroke="#969696" fill="none" stroke-width="1px" />
<path d="M 1895.0 17.5 L 2884.54166667 17.5" stroke="#969696" fill="none" stroke-width="1px" />
<path d="M 2884.54166667 17.5 L 2894.54166667 7.5 L 2884.54166667 -2.5" stroke="#969696" fill="none" stroke-width="1px" />
<path d="M 2884.54166667 -2.5 L 1895.0 -2.5" stroke="#969696" fill="none" stroke-width="1px" />
<path d="M 1895.0 -2.5 L 1885.0 -12.5 L 1895.0 -22.5" stroke="#969696" fill="none" stroke-width="1px" />
<path d="M 0.0 235.0 L 710.0 235.0" stroke="#0095FF" fill="none" stroke-width="2px" />
<path d="M 710.0 235.0 L 710.0 85.0" stroke="#0095FF" fill="none" stroke-width="2px" />
<path d="M 740.0 115.0 L 740.0 75.0" stroke="#0095FF" fill="none" stroke-width="2px" />
<path d="M 770.0 75.0 L 750.0 75.0" stroke="#0095FF" fill="none" stroke-width="2px" />
<path d="M 750.0 75.0 L 750.0 55.0" stroke="#0095FF" fill="none" stroke-width="2px" />
<path d="M 740.0 45.0 L 810.0 45.0" stroke="#0095FF" fill="none" stroke-width="2px" />
<path d="M 810.0 45.0 L 810.0 65.0" stroke="#0095FF" fill="none" stroke-width="2px" />
<path d="M 830.0 85.0 L 830.0 55.0" stroke="#0095FF" fill="none" stroke-width="2px" />
<path d="M 840.0 55.0 L 1600.0 55.0" stroke="#0095FF" fill="none" stroke-width="2px" />
<path d="M 1600.0 55.0 L 1600.0 75.0" stroke="#0095FF" fill="none" stroke-width="2px" />
<path d="M 1630.0 115.0 L 1660.0 115.0" stroke="#0095FF" fill="none" stroke-width="2px" />
<path d="M 1660.0 115.0 L 1660.0 105.0" stroke="#0095FF" fill="none" stroke-width="2px" />
<path d="M 1700.0 95.0 L 1690.0 95.0" stroke="#0095FF" fill="none" stroke-width="2px" />
<path d="M 1690.0 95.0 L 1690.0 75.0" stroke="#0095FF" fill="none" stroke-width="2px" />
<path d="M 1680.0 65.0 L 1630.0 65.0" stroke="#0095FF" fill="none" stroke-width="2px" />
<path d="M 1610.0 65.0 L 1670.0 65.0" stroke="#0095FF" fill="none" stroke-width="2px" />
<path d="M 1670.0 65.0 L 1670.0 115.0" stroke="#0095FF" fill="none" stroke-width="2px" />
<path d="M 2894.54166667 235.0 L 2710.0 235.0" stroke="#0095FF" fill="none" stroke-width="2px" />
<path d="M 2710.0 235.0 L 2710.0 175.0" stroke="#0095FF" fill="none" stroke-width="2px" />
<path d="M 2690.0 165.0 L 2690.0 185.0" stroke="#0095FF" fill="none" stroke-width="2px" />
<path d="M 2700.0 185.0 L 2700.0 145.0" stroke="#0095FF" fill="none" stroke-width="2px" />
<path d="M 2710.0 145.0 L 2700.0 145.0" stroke="#0095FF" fill="none" stroke-width="2px" />
<path d="M 2700.0 145.0 L 2700.0 125.0" stroke="#0095FF" fill="none" stroke-width="2px" />
<path d="M 2700.0 125.0 L 2640.0 125.0" stroke="#0095FF" fill="none" stroke-width="2px" />
<path d="M 2620.0 185.0 L 2620.0 115.0" stroke="#0095FF" fill="none" stroke-width="2px" />
<path d="M 2630.0 115.0 L 2630.0 95.0" stroke="#0095FF" fill="none" stroke-width="2px" />
<path d="M 2640.0 95.0 L 2520.0 95.0" stroke="#0095FF" fill="none" stroke-width="2px" />
<path d="M 2520.0 95.0 L 2520.0 45.0" stroke="#0095FF" fill="none" stroke-width="2px" />
<path d="M 2490.0 75.0 L 2490.0 35.0" stroke="#0095FF" fill="none" stroke-width="2px" />
<path d="M 2520.0 35.0 L 2500.0 35.0" stroke="#0095FF" fill="none" stroke-width="2px" />
<path d="M 2500.0 35.0 L 2500.0 15.0" stroke="#0095FF" fill="none" stroke-width="2px" />
<path d="M 2480.0 15.0 L 2310.0 15.0" stroke="#0095FF" fill="none" stroke-width="2px" />
<path d="M 2310.0 15.0 L 2310.0 45.0" stroke="#0095FF" fill="none" stroke-width="2px" />
<path d="M 2200.0 85.0 L 2240.0 85.0" stroke="#0095FF" fill="none" stroke-width="2px" />
<path d="M 2240.0 85.0 L 2240.0 95.0" stroke="#0095FF" fill="none" stroke-width="2px" />
<path d="M 2250.0 105.0 L 2250.0 35.0" stroke="#0095FF" fill="none" stroke-width="2px" />
<path d="M 2200.0 15.0 L 2250.0 15.0" stroke="#0095FF" fill="none" stroke-width="2px" />
<path d="M 2250.0 15.0 L 2250.0 25.0" stroke="#0095FF" fill="none" stroke-width="2px" />
<path d="M 2260.0 35.0 L 2260.0 15.0" stroke="#0095FF" fill="none" stroke-width="2px" />
<path d="M 2280.0 15.0 L 2300.0 15.0" stroke="#0095FF" fill="none" stroke-width="2px" />
<path d="M 2300.0 15.0 L 2300.0 35.0" stroke="#0095FF" fill="none" stroke-width="2px" />
<path d="M 710.0 85.0 L 720.0 85.0" stroke="#FF0000" fill="none" stroke-width="4px" />
<path d="M 720.0 85.0 L 730.0 85.0" stroke="#FF0000" fill="none" stroke-width="4px" />
<path d="M 730.0 85.0 L 740.0 85.0" stroke="#FF0000" fill="none" stroke-width="4px" />
<path d="M 740.0 85.0 L 750.0 85.0" stroke="#FF0000" fill="none" stroke-width="4px" />
<path d="M 750.0 85.0 L 760.0 85.0" stroke="#FF0000" fill="none" stroke-width="4px" />
<path d="M 760.0 85.0 L 770.0 85.0" stroke="#FF0000" fill="none" stroke-width="4px" />
<path d="M 770.0 85.0 L 780.0 85.0" stroke="#FF0000" fill="none" stroke-width="4px" />
<path d="M 780.0 85.0 L 780.0 95.0" stroke="#FF0000" fill="none" stroke-width="4px" />
<path d="M 780.0 95.0 L 770.0 95.0" stroke="#FF0000" fill="none" stroke-width="4px" />
<path d="M 770.0 95.0 L 760.0 95.0" stroke="#FF0000" fill="none" stroke-width="4px" />
<path d="M 760.0 95.0 L 750.0 95.0" stroke="#FF0000" fill="none" stroke-width="4px" />
<path d="M 750.0 95.0 L 740.0 95.0" stroke="#FF0000" fill="none" stroke-width="4px" />
<path d="M 740.0 95.0 L 730.0 95.0" stroke="#FF0000" fill="none" stroke-width="4px" />
<path d="M 730.0 95.0 L 720.0 95.0" stroke="#FF0000" fill="none" stroke-width="4px" />
<path d="M 720.0 95.0 L 730.0 105.0" stroke="#FF0000" fill="none" stroke-width="4px" />
<path d="M 730.0 105.0 L 740.0 105.0" stroke="#FF0000" fill="none" stroke-width="4px" />
<path d="M 740.0 105.0 L 750.0 105.0" stroke="#FF0000" fill="none" stroke-width="4px" />
<path d="M 750.0 105.0 L 760.0 105.0" stroke="#FF0000" fill="none" stroke-width="4px" />
<path d="M 760.0 105.0 L 770.0 105.0" stroke="#FF0000" fill="none" stroke-width="4px" />
<path d="M 770.0 105.0 L 760.0 115.0" stroke="#FF0000" fill="none" stroke-width="4px" />
<path d="M 760.0 115.0 L 750.0 115.0" stroke="#FF0000" fill="none" stroke-width="4px" />
<path d="M 750.0 115.0 L 740.0 115.0" stroke="#FF0000" fill="none" stroke-width="4px" />
<path d="M 740.0 75.0 L 730.0 75.0" stroke="#FF0000" fill="none" stroke-width="4px" />
<path d="M 730.0 75.0 L 720.0 75.0" stroke="#FF0000" fill="none" stroke-width="4px" />
<path d="M 720.0 75.0 L 710.0 75.0" stroke="#FF0000" fill="none" stroke-width="4px" />
<path d="M 710.0 75.0 L 710.0 65.0" stroke="#FF0000" fill="none" stroke-width="4px" />
<path d="M 710.0 65.0 L 720.0 65.0" stroke="#FF0000" fill="none" stroke-width="4px" />
<path d="M 720.0 65.0 L 730.0 65.0" stroke="#FF0000" fill="none" stroke-width="4px" />
<path d="M 730.0 65.0 L 740.0 65.0" stroke="#FF0000" fill="none" stroke-width="4px" />
<path d="M 740.0 65.0 L 750.0 65.0" stroke="#FF0000" fill="none" stroke-width="4px" />
<path d="M 750.0 65.0 L 760.0 65.0" stroke="#FF0000" fill="none" stroke-width="4px" />
<path d="M 760.0 65.0 L 760.0 75.0" stroke="#FF0000" fill="none" stroke-width="4px" />
<path d="M 760.0 75.0 L 750.0 75.0" stroke="#FF0000" fill="none" stroke-width="4px" />
<path d="M 750.0 75.0 L 770.0 75.0" stroke="#FF0000" fill="none" stroke-width="4px" />
<path d="M 750.0 55.0 L 740.0 55.0" stroke="#FF0000" fill="none" stroke-width="4px" />
<path d="M 740.0 55.0 L 730.0 55.0" stroke="#FF0000" fill="none" stroke-width="4px" />
<path d="M 730.0 55.0 L 720.0 55.0" stroke="#FF0000" fill="none" stroke-width="4px" />
<path d="M 720.0 55.0 L 710.0 55.0" stroke="#FF0000" fill="none" stroke-width="4px" />
<path d="M 710.0 55.0 L 720.0 45.0" stroke="#FF0000" fill="none" stroke-width="4px" />
<path d="M 720.0 45.0 L 730.0 45.0" stroke="#FF0000" fill="none" stroke-width="4px" />
<path d="M 730.0 45.0 L 740.0 45.0" stroke="#FF0000" fill="none" stroke-width="4px" />
<path d="M 810.0 65.0 L 820.0 65.0" stroke="#FF0000" fill="none" stroke-width="4px" />
<path d="M 820.0 65.0 L 830.0 65.0" stroke="#FF0000" fill="none" stroke-width="4px" />
<path d="M 830.0 65.0 L 840.0 65.0" stroke="#FF0000" fill="none" stroke-width="4px" />
<path d="M 840.0 65.0 L 850.0 65.0" stroke="#FF0000" fill="none" stroke-width="4px" />
<path d="M 850.0 65.0 L 840.0 75.0" stroke="#FF0000" fill="none" stroke-width="4px" />
<path d="M 840.0 75.0 L 830.0 75.0" stroke="#FF0000" fill="none" stroke-width="4px" />
<path d="M 830.0 75.0 L 820.0 75.0" stroke="#FF0000" fill="none" stroke-width="4px" />
<path d="M 820.0 75.0 L 810.0 75.0" stroke="#FF0000" fill="none" stroke-width="4px" />
<path d="M 810.0 75.0 L 820.0 85.0" stroke="#FF0000" fill="none" stroke-width="4px" />
<path d="M 820.0 85.0 L 830.0 85.0" stroke="#FF0000" fill="none" stroke-width="4px" />
<path d="M 830.0 55.0 L 820.0 55.0" stroke="#FF0000" fill="none" stroke-width="4px" />
<path d="M 820.0 55.0 L 830.0 45.0" stroke="#FF0000" fill="none" stroke-width="4px" />
<path d="M 830.0 45.0 L 840.0 55.0" stroke="#FF0000" fill="none" stroke-width="4px" />
<path d="M 1600.0 75.0 L 1610.0 75.0" stroke="#FF0000" fill="none" stroke-width="4px" />
<path d="M 1610.0 75.0 L 1620.0 75.0" stroke="#FF0000" fill="none" stroke-width="4px" />
<path d="M 1620.0 75.0 L 1630.0 75.0" stroke="#FF0000" fill="none" stroke-width="4px" />
<path d="M 1630.0 75.0 L 1640.0 75.0" stroke="#FF0000" fill="none" stroke-width="4px" />
<path d="M 1640.0 75.0 L 1640.0 85.0" stroke="#FF0000" fill="none" stroke-width="4px" />
<path d="M 1640.0 85.0 L 1630.0 85.0" stroke="#FF0000" fill="none" stroke-width="4px" />
<path d="M 1630.0 85.0 L 1620.0 85.0" stroke="#FF0000" fill="none" stroke-width="4px" />
<path d="M 1620.0 85.0 L 1610.0 85.0" stroke="#FF0000" fill="none" stroke-width="4px" />
<path d="M 1610.0 85.0 L 1600.0 85.0" stroke="#FF0000" fill="none" stroke-width="4px" />
<path d="M 1600.0 85.0 L 1600.0 95.0" stroke="#FF0000" fill="none" stroke-width="4px" />
<path d="M 1600.0 95.0 L 1610.0 95.0" stroke="#FF0000" fill="none" stroke-width="4px" />
<path d="M 1610.0 95.0 L 1620.0 95.0" stroke="#FF0000" fill="none" stroke-width="4px" />
<path d="M 1620.0 95.0 L 1630.0 95.0" stroke="#FF0000" fill="none" stroke-width="4px" />
<path d="M 1630.0 95.0 L 1640.0 95.0" stroke="#FF0000" fill="none" stroke-width="4px" />
<path d="M 1640.0 95.0 L 1640.0 105.0" stroke="#FF0000" fill="none" stroke-width="4px" />
<path d="M 1640.0 105.0 L 1630.0 105.0" stroke="#FF0000" fill="none" stroke-width="4px" />
<path d="M 1630.0 105.0 L 1620.0 105.0" stroke="#FF0000" fill="none" stroke-width="4px" />
<path d="M 1620.0 105.0 L 1610.0 105.0" stroke="#FF0000" fill="none" stroke-width="4px" />
<path d="M 1610.0 105.0 L 1620.0 115.0" stroke="#FF0000" fill="none" stroke-width="4px" />
<path d="M 1620.0 115.0 L 1630.0 115.0" stroke="#FF0000" fill="none" stroke-width="4px" />
<path d="M 1660.0 105.0 L 1670.0 105.0" stroke="#FF0000" fill="none" stroke-width="4px" />
<path d="M 1670.0 105.0 L 1680.0 105.0" stroke="#FF0000" fill="none" stroke-width="4px" />
<path d="M 1680.0 105.0 L 1690.0 105.0" stroke="#FF0000" fill="none" stroke-width="4px" />
<path d="M 1690.0 105.0 L 1690.0 95.0" stroke="#FF0000" fill="none" stroke-width="4px" />
<path d="M 1690.0 95.0 L 1680.0 95.0" stroke="#FF0000" fill="none" stroke-width="4px" />
<path d="M 1680.0 95.0 L 1670.0 95.0" stroke="#FF0000" fill="none" stroke-width="4px" />
<path d="M 1670.0 95.0 L 1660.0 95.0" stroke="#FF0000" fill="none" stroke-width="4px" />
<path d="M 1660.0 95.0 L 1660.0 85.0" stroke="#FF0000" fill="none" stroke-width="4px" />
<path d="M 1660.0 85.0 L 1650.0 85.0" stroke="#FF0000" fill="none" stroke-width="4px" />
<path d="M 1650.0 85.0 L 1670.0 85.0" stroke="#FF0000" fill="none" stroke-width="4px" />
<path d="M 1670.0 85.0 L 1680.0 85.0" stroke="#FF0000" fill="none" stroke-width="4px" />
<path d="M 1680.0 85.0 L 1690.0 85.0" stroke="#FF0000" fill="none" stroke-width="4px" />
<path d="M 1690.0 85.0 L 1700.0 85.0" stroke="#FF0000" fill="none" stroke-width="4px" />
<path d="M 1700.0 85.0 L 1700.0 95.0" stroke="#FF0000" fill="none" stroke-width="4px" />
<path d="M 1690.0 75.0 L 1680.0 75.0" stroke="#FF0000" fill="none" stroke-width="4px" />
<path d="M 1680.0 75.0 L 1670.0 75.0" stroke="#FF0000" fill="none" stroke-width="4px" />
<path d="M 1670.0 75.0 L 1680.0 65.0" stroke="#FF0000" fill="none" stroke-width="4px" />
<path d="M 1630.0 65.0 L 1620.0 65.0" stroke="#FF0000" fill="none" stroke-width="4px" />
<path d="M 1620.0 65.0 L 1610.0 65.0" stroke="#FF0000" fill="none" stroke-width="4px" />
<path d="M 1670.0 115.0 L 1680.0 115.0" stroke="#FF0000" fill="none" stroke-width="4px" />
<path d="M 2710.0 175.0 L 2700.0 175.0" stroke="#FF0000" fill="none" stroke-width="4px" />
<path d="M 2700.0 175.0 L 2690.0 175.0" stroke="#FF0000" fill="none" stroke-width="4px" />
<path d="M 2690.0 175.0 L 2680.0 175.0" stroke="#FF0000" fill="none" stroke-width="4px" />
<path d="M 2680.0 175.0 L 2680.0 165.0" stroke="#FF0000" fill="none" stroke-width="4px" />
<path d="M 2680.0 165.0 L 2670.0 165.0" stroke="#FF0000" fill="none" stroke-width="4px" />
<path d="M 2670.0 165.0 L 2670.0 155.0" stroke="#FF0000" fill="none" stroke-width="4px" />
<path d="M 2670.0 155.0 L 2680.0 155.0" stroke="#FF0000" fill="none" stroke-width="4px" />
<path d="M 2680.0 155.0 L 2690.0 155.0" stroke="#FF0000" fill="none" stroke-width="4px" />
<path d="M 2690.0 155.0 L 2700.0 155.0" stroke="#FF0000" fill="none" stroke-width="4px" />
<path d="M 2700.0 155.0 L 2710.0 155.0" stroke="#FF0000" fill="none" stroke-width="4px" />
<path d="M 2710.0 155.0 L 2710.0 165.0" stroke="#FF0000" fill="none" stroke-width="4px" />
<path d="M 2710.0 165.0 L 2700.0 165.0" stroke="#FF0000" fill="none" stroke-width="4px" />
<path d="M 2700.0 165.0 L 2690.0 165.0" stroke="#FF0000" fill="none" stroke-width="4px" />
<path d="M 2690.0 185.0 L 2700.0 185.0" stroke="#FF0000" fill="none" stroke-width="4px" />
<path d="M 2700.0 145.0 L 2690.0 145.0" stroke="#FF0000" fill="none" stroke-width="4px" />
<path d="M 2690.0 145.0 L 2680.0 145.0" stroke="#FF0000" fill="none" stroke-width="4px" />
<path d="M 2680.0 145.0 L 2690.0 135.0" stroke="#FF0000" fill="none" stroke-width="4px" />
<path d="M 2690.0 135.0 L 2700.0 135.0" stroke="#FF0000" fill="none" stroke-width="4px" />
<path d="M 2700.0 135.0 L 2710.0 135.0" stroke="#FF0000" fill="none" stroke-width="4px" />
<path d="M 2710.0 135.0 L 2710.0 145.0" stroke="#FF0000" fill="none" stroke-width="4px" />
<path d="M 2640.0 125.0 L 2630.0 125.0" stroke="#FF0000" fill="none" stroke-width="4px" />
<path d="M 2630.0 125.0 L 2620.0 125.0" stroke="#FF0000" fill="none" stroke-width="4px" />
<path d="M 2620.0 125.0 L 2610.0 125.0" stroke="#FF0000" fill="none" stroke-width="4px" />
<path d="M 2610.0 125.0 L 2600.0 125.0" stroke="#FF0000" fill="none" stroke-width="4px" />
<path d="M 2600.0 125.0 L 2590.0 125.0" stroke="#FF0000" fill="none" stroke-width="4px" />
<path d="M 2590.0 125.0 L 2590.0 135.0" stroke="#FF0000" fill="none" stroke-width="4px" />
<path d="M 2590.0 135.0 L 2600.0 135.0" stroke="#FF0000" fill="none" stroke-width="4px" />
<path d="M 2600.0 135.0 L 2610.0 135.0" stroke="#FF0000" fill="none" stroke-width="4px" />
<path d="M 2610.0 135.0 L 2620.0 135.0" stroke="#FF0000" fill="none" stroke-width="4px" />
<path d="M 2620.0 135.0 L 2630.0 135.0" stroke="#FF0000" fill="none" stroke-width="4px" />
<path d="M 2630.0 135.0 L 2640.0 135.0" stroke="#FF0000" fill="none" stroke-width="4px" />
<path d="M 2640.0 135.0 L 2640.0 145.0" stroke="#FF0000" fill="none" stroke-width="4px" />
<path d="M 2640.0 145.0 L 2630.0 145.0" stroke="#FF0000" fill="none" stroke-width="4px" />
<path d="M 2630.0 145.0 L 2620.0 145.0" stroke="#FF0000" fill="none" stroke-width="4px" />
<path d="M 2620.0 145.0 L 2610.0 145.0" stroke="#FF0000" fill="none" stroke-width="4px" />
<path d="M 2610.0 145.0 L 2600.0 145.0" stroke="#FF0000" fill="none" stroke-width="4px" />
<path d="M 2600.0 145.0 L 2590.0 145.0" stroke="#FF0000" fill="none" stroke-width="4px" />
<path d="M 2590.0 145.0 L 2590.0 155.0" stroke="#FF0000" fill="none" stroke-width="4px" />
<path d="M 2590.0 155.0 L 2600.0 155.0" stroke="#FF0000" fill="none" stroke-width="4px" />
<path d="M 2600.0 155.0 L 2610.0 155.0" stroke="#FF0000" fill="none" stroke-width="4px" />
<path d="M 2610.0 155.0 L 2620.0 155.0" stroke="#FF0000" fill="none" stroke-width="4px" />
<path d="M 2620.0 155.0 L 2630.0 155.0" stroke="#FF0000" fill="none" stroke-width="4px" />
<path d="M 2630.0 155.0 L 2640.0 155.0" stroke="#FF0000" fill="none" stroke-width="4px" />
<path d="M 2640.0 155.0 L 2650.0 155.0" stroke="#FF0000" fill="none" stroke-width="4px" />
<path d="M 2650.0 155.0 L 2640.0 165.0" stroke="#FF0000" fill="none" stroke-width="4px" />
<path d="M 2640.0 165.0 L 2630.0 165.0" stroke="#FF0000" fill="none" stroke-width="4px" />
<path d="M 2630.0 165.0 L 2620.0 165.0" stroke="#FF0000" fill="none" stroke-width="4px" />
<path d="M 2620.0 165.0 L 2610.0 165.0" stroke="#FF0000" fill="none" stroke-width="4px" />
<path d="M 2610.0 165.0 L 2600.0 165.0" stroke="#FF0000" fill="none" stroke-width="4px" />
<path d="M 2600.0 165.0 L 2610.0 175.0" stroke="#FF0000" fill="none" stroke-width="4px" />
<path d="M 2610.0 175.0 L 2620.0 175.0" stroke="#FF0000" fill="none" stroke-width="4px" />
<path d="M 2620.0 175.0 L 2630.0 175.0" stroke="#FF0000" fill="none" stroke-width="4px" />
<path d="M 2630.0 175.0 L 2640.0 175.0" stroke="#FF0000" fill="none" stroke-width="4px" />
<path d="M 2640.0 175.0 L 2630.0 185.0" stroke="#FF0000" fill="none" stroke-width="4px" />
<path d="M 2630.0 185.0 L 2620.0 185.0" stroke="#FF0000" fill="none" stroke-width="4px" />
<path d="M 2620.0 115.0 L 2610.0 115.0" stroke="#FF0000" fill="none" stroke-width="4px" />
<path d="M 2610.0 115.0 L 2600.0 115.0" stroke="#FF0000" fill="none" stroke-width="4px" />
<path d="M 2600.0 115.0 L 2590.0 115.0" stroke="#FF0000" fill="none" stroke-width="4px" />
<path d="M 2590.0 115.0 L 2600.0 105.0" stroke="#FF0000" fill="none" stroke-width="4px" />
<path d="M 2600.0 105.0 L 2610.0 105.0" stroke="#FF0000" fill="none" stroke-width="4px" />
<path d="M 2610.0 105.0 L 2620.0 105.0" stroke="#FF0000" fill="none" stroke-width="4px" />
<path d="M 2620.0 105.0 L 2630.0 105.0" stroke="#FF0000" fill="none" stroke-width="4px" />
<path d="M 2630.0 105.0 L 2640.0 105.0" stroke="#FF0000" fill="none" stroke-width="4px" />
<path d="M 2640.0 105.0 L 2640.0 115.0" stroke="#FF0000" fill="none" stroke-width="4px" />
<path d="M 2640.0 115.0 L 2630.0 115.0" stroke="#FF0000" fill="none" stroke-width="4px" />
<path d="M 2630.0 95.0 L 2620.0 95.0" stroke="#FF0000" fill="none" stroke-width="4px" />
<path d="M 2620.0 95.0 L 2610.0 95.0" stroke="#FF0000" fill="none" stroke-width="4px" />
<path d="M 2610.0 95.0 L 2620.0 85.0" stroke="#FF0000" fill="none" stroke-width="4px" />
<path d="M 2620.0 85.0 L 2630.0 85.0" stroke="#FF0000" fill="none" stroke-width="4px" />
<path d="M 2630.0 85.0 L 2640.0 95.0" stroke="#FF0000" fill="none" stroke-width="4px" />
<path d="M 2520.0 45.0 L 2510.0 45.0" stroke="#FF0000" fill="none" stroke-width="4px" />
<path d="M 2510.0 45.0 L 2500.0 45.0" stroke="#FF0000" fill="none" stroke-width="4px" />
<path d="M 2500.0 45.0 L 2490.0 45.0" stroke="#FF0000" fill="none" stroke-width="4px" />
<path d="M 2490.0 45.0 L 2480.0 45.0" stroke="#FF0000" fill="none" stroke-width="4px" />
<path d="M 2480.0 45.0 L 2470.0 45.0" stroke="#FF0000" fill="none" stroke-width="4px" />
<path d="M 2470.0 45.0 L 2470.0 55.0" stroke="#FF0000" fill="none" stroke-width="4px" />
<path d="M 2470.0 55.0 L 2480.0 55.0" stroke="#FF0000" fill="none" stroke-width="4px" />
<path d="M 2480.0 55.0 L 2490.0 55.0" stroke="#FF0000" fill="none" stroke-width="4px" />
<path d="M 2490.0 55.0 L 2500.0 55.0" stroke="#FF0000" fill="none" stroke-width="4px" />
<path d="M 2500.0 55.0 L 2510.0 55.0" stroke="#FF0000" fill="none" stroke-width="4px" />
<path d="M 2510.0 55.0 L 2500.0 65.0" stroke="#FF0000" fill="none" stroke-width="4px" />
<path d="M 2500.0 65.0 L 2490.0 65.0" stroke="#FF0000" fill="none" stroke-width="4px" />
<path d="M 2490.0 65.0 L 2480.0 65.0" stroke="#FF0000" fill="none" stroke-width="4px" />
<path d="M 2480.0 65.0 L 2490.0 75.0" stroke="#FF0000" fill="none" stroke-width="4px" />
<path d="M 2490.0 35.0 L 2480.0 35.0" stroke="#FF0000" fill="none" stroke-width="4px" />
<path d="M 2480.0 35.0 L 2470.0 35.0" stroke="#FF0000" fill="none" stroke-width="4px" />
<path d="M 2470.0 35.0 L 2470.0 25.0" stroke="#FF0000" fill="none" stroke-width="4px" />
<path d="M 2470.0 25.0 L 2480.0 25.0" stroke="#FF0000" fill="none" stroke-width="4px" />
<path d="M 2480.0 25.0 L 2490.0 25.0" stroke="#FF0000" fill="none" stroke-width="4px" />
<path d="M 2490.0 25.0 L 2500.0 25.0" stroke="#FF0000" fill="none" stroke-width="4px" />
<path d="M 2500.0 25.0 L 2510.0 25.0" stroke="#FF0000" fill="none" stroke-width="4px" />
<path d="M 2510.0 25.0 L 2510.0 35.0" stroke="#FF0000" fill="none" stroke-width="4px" />
<path d="M 2510.0 35.0 L 2500.0 35.0" stroke="#FF0000" fill="none" stroke-width="4px" />
<path d="M 2500.0 35.0 L 2520.0 35.0" stroke="#FF0000" fill="none" stroke-width="4px" />
<path d="M 2500.0 15.0 L 2490.0 15.0" stroke="#FF0000" fill="none" stroke-width="4px" />
<path d="M 2490.0 15.0 L 2480.0 15.0" stroke="#FF0000" fill="none" stroke-width="4px" />
<path d="M 2310.0 45.0 L 2300.0 45.0" stroke="#FF0000" fill="none" stroke-width="4px" />
<path d="M 2300.0 45.0 L 2290.0 45.0" stroke="#FF0000" fill="none" stroke-width="4px" />
<path d="M 2290.0 45.0 L 2280.0 45.0" stroke="#FF0000" fill="none" stroke-width="4px" />
<path d="M 2280.0 45.0 L 2270.0 45.0" stroke="#FF0000" fill="none" stroke-width="4px" />
<path d="M 2270.0 45.0 L 2260.0 45.0" stroke="#FF0000" fill="none" stroke-width="4px" />
<path d="M 2260.0 45.0 L 2250.0 45.0" stroke="#FF0000" fill="none" stroke-width="4px" />
<path d="M 2250.0 45.0 L 2240.0 45.0" stroke="#FF0000" fill="none" stroke-width="4px" />
<path d="M 2240.0 45.0 L 2230.0 45.0" stroke="#FF0000" fill="none" stroke-width="4px" />
<path d="M 2230.0 45.0 L 2220.0 45.0" stroke="#FF0000" fill="none" stroke-width="4px" />
<path d="M 2220.0 45.0 L 2210.0 45.0" stroke="#FF0000" fill="none" stroke-width="4px" />
<path d="M 2210.0 45.0 L 2200.0 45.0" stroke="#FF0000" fill="none" stroke-width="4px" />
<path d="M 2200.0 45.0 L 2190.0 45.0" stroke="#FF0000" fill="none" stroke-width="4px" />
<path d="M 2190.0 45.0 L 2180.0 45.0" stroke="#FF0000" fill="none" stroke-width="4px" />
<path d="M 2180.0 45.0 L 2180.0 55.0" stroke="#FF0000" fill="none" stroke-width="4px" />
<path d="M 2180.0 55.0 L 2190.0 55.0" stroke="#FF0000" fill="none" stroke-width="4px" />
<path d="M 2190.0 55.0 L 2200.0 55.0" stroke="#FF0000" fill="none" stroke-width="4px" />
<path d="M 2200.0 55.0 L 2210.0 55.0" stroke="#FF0000" fill="none" stroke-width="4px" />
<path d="M 2210.0 55.0 L 2220.0 55.0" stroke="#FF0000" fill="none" stroke-width="4px" />
<path d="M 2220.0 55.0 L 2230.0 55.0" stroke="#FF0000" fill="none" stroke-width="4px" />
<path d="M 2230.0 55.0 L 2240.0 55.0" stroke="#FF0000" fill="none" stroke-width="4px" />
<path d="M 2240.0 55.0 L 2250.0 55.0" stroke="#FF0000" fill="none" stroke-width="4px" />
<path d="M 2250.0 55.0 L 2260.0 55.0" stroke="#FF0000" fill="none" stroke-width="4px" />
<path d="M 2260.0 55.0 L 2270.0 55.0" stroke="#FF0000" fill="none" stroke-width="4px" />
<path d="M 2270.0 55.0 L 2280.0 55.0" stroke="#FF0000" fill="none" stroke-width="4px" />
<path d="M 2280.0 55.0 L 2290.0 55.0" stroke="#FF0000" fill="none" stroke-width="4px" />
<path d="M 2290.0 55.0 L 2300.0 55.0" stroke="#FF0000" fill="none" stroke-width="4px" />
<path d="M 2300.0 55.0 L 2310.0 55.0" stroke="#FF0000" fill="none" stroke-width="4px" />
<path d="M 2310.0 55.0 L 2300.0 65.0" stroke="#FF0000" fill="none" stroke-width="4px" />
<path d="M 2300.0 65.0 L 2290.0 65.0" stroke="#FF0000" fill="none" stroke-width="4px" />
<path d="M 2290.0 65.0 L 2280.0 65.0" stroke="#FF0000" fill="none" stroke-width="4px" />
<path d="M 2280.0 65.0 L 2270.0 65.0" stroke="#FF0000" fill="none" stroke-width="4px" />
<path d="M 2270.0 65.0 L 2260.0 65.0" stroke="#FF0000" fill="none" stroke-width="4px" />
<path d="M 2260.0 65.0 L 2250.0 65.0" stroke="#FF0000" fill="none" stroke-width="4px" />
<path d="M 2250.0 65.0 L 2240.0 65.0" stroke="#FF0000" fill="none" stroke-width="4px" />
<path d="M 2240.0 65.0 L 2230.0 65.0" stroke="#FF0000" fill="none" stroke-width="4px" />
<path d="M 2230.0 65.0 L 2220.0 65.0" stroke="#FF0000" fill="none" stroke-width="4px" />
<path d="M 2220.0 65.0 L 2210.0 65.0" stroke="#FF0000" fill="none" stroke-width="4px" />
<path d="M 2210.0 65.0 L 2200.0 65.0" stroke="#FF0000" fill="none" stroke-width="4px" />
<path d="M 2200.0 65.0 L 2190.0 65.0" stroke="#FF0000" fill="none" stroke-width="4px" />
<path d="M 2190.0 65.0 L 2180.0 65.0" stroke="#FF0000" fill="none" stroke-width="4px" />
<path d="M 2180.0 65.0 L 2190.0 75.0" stroke="#FF0000" fill="none" stroke-width="4px" />
<path d="M 2190.0 75.0 L 2200.0 75.0" stroke="#FF0000" fill="none" stroke-width="4px" />
<path d="M 2200.0 75.0 L 2210.0 75.0" stroke="#FF0000" fill="none" stroke-width="4px" />
<path d="M 2210.0 75.0 L 2220.0 75.0" stroke="#FF0000" fill="none" stroke-width="4px" />
<path d="M 2220.0 75.0 L 2230.0 75.0" stroke="#FF0000" fill="none" stroke-width="4px" />
<path d="M 2230.0 75.0 L 2240.0 75.0" stroke="#FF0000" fill="none" stroke-width="4px" />
<path d="M 2240.0 75.0 L 2250.0 75.0" stroke="#FF0000" fill="none" stroke-width="4px" />
<path d="M 2250.0 75.0 L 2260.0 75.0" stroke="#FF0000" fill="none" stroke-width="4px" />
<path d="M 2260.0 75.0 L 2270.0 75.0" stroke="#FF0000" fill="none" stroke-width="4px" />
<path d="M 2270.0 75.0 L 2280.0 75.0" stroke="#FF0000" fill="none" stroke-width="4px" />
<path d="M 2280.0 75.0 L 2290.0 75.0" stroke="#FF0000" fill="none" stroke-width="4px" />
<path d="M 2290.0 75.0 L 2280.0 85.0" stroke="#FF0000" fill="none" stroke-width="4px" />
<path d="M 2280.0 85.0 L 2270.0 85.0" stroke="#FF0000" fill="none" stroke-width="4px" />
<path d="M 2270.0 85.0 L 2260.0 85.0" stroke="#FF0000" fill="none" stroke-width="4px" />
<path d="M 2260.0 85.0 L 2250.0 85.0" stroke="#FF0000" fill="none" stroke-width="4px" />
<path d="M 2250.0 85.0 L 2240.0 85.0" stroke="#FF0000" fill="none" stroke-width="4px" />
<path d="M 2240.0 85.0 L 2230.0 85.0" stroke="#FF0000" fill="none" stroke-width="4px" />
<path d="M 2230.0 85.0 L 2220.0 85.0" stroke="#FF0000" fill="none" stroke-width="4px" />
<path d="M 2220.0 85.0 L 2210.0 85.0" stroke="#FF0000" fill="none" stroke-width="4px" />
<path d="M 2210.0 85.0 L 2200.0 85.0" stroke="#FF0000" fill="none" stroke-width="4px" />
<path d="M 2240.0 95.0 L 2250.0 95.0" stroke="#FF0000" fill="none" stroke-width="4px" />
<path d="M 2250.0 95.0 L 2260.0 95.0" stroke="#FF0000" fill="none" stroke-width="4px" />
<path d="M 2260.0 95.0 L 2270.0 95.0" stroke="#FF0000" fill="none" stroke-width="4px" />
<path d="M 2270.0 95.0 L 2260.0 105.0" stroke="#FF0000" fill="none" stroke-width="4px" />
<path d="M 2260.0 105.0 L 2250.0 105.0" stroke="#FF0000" fill="none" stroke-width="4px" />
<path d="M 2250.0 35.0 L 2240.0 35.0" stroke="#FF0000" fill="none" stroke-width="4px" />
<path d="M 2240.0 35.0 L 2230.0 35.0" stroke="#FF0000" fill="none" stroke-width="4px" />
<path d="M 2230.0 35.0 L 2220.0 35.0" stroke="#FF0000" fill="none" stroke-width="4px" />
<path d="M 2220.0 35.0 L 2210.0 35.0" stroke="#FF0000" fill="none" stroke-width="4px" />
<path d="M 2210.0 35.0 L 2200.0 35.0" stroke="#FF0000" fill="none" stroke-width="4px" />
<path d="M 2200.0 35.0 L 2190.0 35.0" stroke="#FF0000" fill="none" stroke-width="4px" />
<path d="M 2190.0 35.0 L 2180.0 35.0" stroke="#FF0000" fill="none" stroke-width="4px" />
<path d="M 2180.0 35.0 L 2190.0 25.0" stroke="#FF0000" fill="none" stroke-width="4px" />
<path d="M 2190.0 25.0 L 2200.0 25.0" stroke="#FF0000" fill="none" stroke-width="4px" />
<path d="M 2200.0 25.0 L 2210.0 25.0" stroke="#FF0000" fill="none" stroke-width="4px" />
<path d="M 2210.0 25.0 L 2220.0 25.0" stroke="#FF0000" fill="none" stroke-width="4px" />
<path d="M 2220.0 25.0 L 2230.0 25.0" stroke="#FF0000" fill="none" stroke-width="4px" />
<path d="M 2230.0 25.0 L 2220.0 15.0" stroke="#FF0000" fill="none" stroke-width="4px" />
<path d="M 2220.0 15.0 L 2210.0 15.0" stroke="#FF0000" fill="none" stroke-width="4px" />
<path d="M 2210.0 15.0 L 2200.0 15.0" stroke="#FF0000" fill="none" stroke-width="4px" />
<path d="M 2250.0 25.0 L 2260.0 25.0" stroke="#FF0000" fill="none" stroke-width="4px" />
<path d="M 2260.0 25.0 L 2270.0 25.0" stroke="#FF0000" fill="none" stroke-width="4px" />
<path d="M 2270.0 25.0 L 2280.0 25.0" stroke="#FF0000" fill="none" stroke-width="4px" />
<path d="M 2280.0 25.0 L 2290.0 25.0" stroke="#FF0000" fill="none" stroke-width="4px" />
<path d="M 2290.0 25.0 L 2290.0 35.0" stroke="#FF0000" fill="none" stroke-width="4px" />
<path d="M 2290.0 35.0 L 2280.0 35.0" stroke="#FF0000" fill="none" stroke-width="4px" />
<path d="M 2280.0 35.0 L 2270.0 35.0" stroke="#FF0000" fill="none" stroke-width="4px" />
<path d="M 2270.0 35.0 L 2260.0 35.0" stroke="#FF0000" fill="none" stroke-width="4px" />
<path d="M 2260.0 15.0 L 2270.0 15.0" stroke="#FF0000" fill="none" stroke-width="4px" />
<path d="M 2270.0 15.0 L 2280.0 15.0" stroke="#FF0000" fill="none" stroke-width="4px" />
</svg>