<svg width="1332.95833333" height="235.0" xmlns="http://www.w3.org/2000/svg" version="1.1">
<path d="M 0.0 235.0 L 1332.95833333 235.0 L 1332.95833333 0.0 L 0.0 0.0 L 0.0 235.0" stroke="#000000" fill="none" stroke-width="3px" />
<path d="M 10.0 257.5 L 0.0 247.5 L 10.0 237.5" stroke="#969696" fill="none" stroke-width="1px" />
<path d="M 10.0 237.5 L 1322.95833333 237.5" stroke="#969696" fill="none" stroke-width="1px" />
<path d="M 1322.95833333 237.5 L 1332.95833333 227.5 L 1322.95833333 217.5" stroke="#969696" fill="none" stroke-width="1px" />
<path d="M 1322.95833333 217.5 L 10.0 217.5" stroke="#969696" fill="none" stroke-width="1px" />
<path d="M 10.0 217.5 L 0.0 207.5 L 10.0 197.5" stroke="#969696" fill="none" stroke-width="1px" />
<path d="M 10.0 197.5 L 1322.95833333 197.5" stroke="#969696" fill="none" stroke-width="1px" />
<path d="M 1322.95833333 197.5 L 1332.95833333 187.5 L 1322.95833333 177.5" stroke="#969696" fill="none" stroke-width="1px" />
<path d="M 1322.95833333 177.5 L 10.0 177.5" stroke="#969696" fill="none" stroke-width="1px" />
<path d="M 10.0 177.5 L 0.0 167.5 L 10.0 157.5" stroke="#969696" fill="none" stroke-width="1px" />
<path d="M 10.0 157.5 L 1322.95833333 157.5" stroke="#969696" fill="none" stroke-width="1px" />
<path d="M 1322.95833333 157.5 L 1332.95833333 147.5 L 1322.95833333 137.5" stroke="#969696" fill="none" stroke-width="1px" />
<path d="M 1322.95833333 137.5 L 10.0 137.5" stroke="#969696" fill="none" stroke-width="1px" />
<path d="M 10.0 137.5 L 0.0 127.5 L 10.0 117.5" stroke="#969696" fill="none" stroke-width="1px" />
<path d="M 10.0 117.5 L 1322.95833333 117.5" stroke="#969696" fill="none" stroke-width="1px" />
<path d="M 1322.95833333 117.5 L 1332.95833333 107.5 L 1322.95833333 97.5" stroke="#969696" fill="none" stroke-width="1px" />
<path d="M 1322.95833333 97.5 L 10.0 97.5" stroke="#969696" fill="none" stroke-width="1px" />
<path d="M 10.0 97.5 L 0.0 87.5 L 10.0 77.5" stroke="#969696" fill="none" stroke-width="1px" />
<path d="M 10.0 77.5 L 1322.95833333 77.5" stroke="#969696" fill="none" stroke-width="1px" />
<path d="M 1322.95833333 77.5 L 1332.95833333 67.5 L 1322.95833333 57.5" stroke="#969696" fill="none" stroke-width="1px" />
<path d="M 1322.95833333 57.5 L 10.0 57.5" stroke="#969696" fill="none" stroke-width="1px" />
<path d="M 10.0 57.5 L 0.0 47.5 L 10.0 37.5" stroke="#969696" fill="none" stroke-width="1px" />
<path d="M 10.0 37.5 L 1322.95833333 37.5" stroke="#969696" fill="none" stroke-width="1px" />
<path d="M 1322.95833333 37.5 L 1332.95833333 27.5 L 1322.95833333 17.5" stroke="#969696" fill="none" stroke-width="1px" />
<path d="M 1322.95833333 17.5 L 10.0 17.5" stroke="#969696" fill="none" stroke-width="1px" />
<path d="M 10.0 17.5 L 0.0 7.5 L 10.0 -2.5" stroke="#969696" fill="none" stroke-width="1px" />
<path d="M 10.0 -2.5 L 1322.95833333 -2.5" stroke="#969696" fill="none" stroke-width="1px" />
<path d="M 1322.95833333 -2.5 L 1332.95833333 -12.5 L 1322.95833333 -22.5" stroke="#969696" fill="none" stroke-width="1px" />
<path d="M 0.0 235.0 L 220.0 235.0" stroke="#0095FF" fill="none" stroke-width="2px" />
<path d="M 220.0 235.0 L 220.0 185.0" stroke="#0095FF" fill="none" stroke-width="2px" />
<path d="M 310.0 235.0 L 320.0 235.0" stroke="#0095FF" fill="none" stroke-width="2px" />
<path d="M 320.0 235.0 L 320.0 195.0" stroke="#0095FF" fill="none" stroke-width="2px" />
<path d="M 320.0 195.0 L 300.0 195.0" stroke="#0095FF" fill="none" stroke-width="2px" />
<path d="M 300.0 195.0 L 300.0 175.0" stroke="#0095FF" fill="none" stroke-width="2px" />
<path d="M 250.0 155.0 L 310.0 155.0" stroke="#0095FF" fill="none" stroke-width="2px" />
<path d="M 310.0 155.0 L 310.0 115.0" stroke="#0095FF" fill="none" stroke-width="2px" />
<path d="M 370.0 85.0 L 360.0 85.0" stroke="#0095FF" fill="none" stroke-width="2px" />
<path d="M 360.0 85.0 L 360.0 105.0" stroke="#0095FF" fill="none" stroke-width="2px" />
<path d="M 360.0 105.0 L 350.0 105.0" stroke="#0095FF" fill="none" stroke-width="2px" />
<path d="M 350.0 105.0 L 350.0 65.0" stroke="#0095FF" fill="none" stroke-width="2px" />
<path d="M 300.0 65.0 L 1170.0 65.0" stroke="#0095FF" fill="none" stroke-width="2px" />
<path d="M 1170.0 65.0 L 1170.0 195.0" stroke="#0095FF" fill="none" stroke-width="2px" />
<path d="M 1220.0 215.0 L 1200.0 215.0" stroke="#0095FF" fill="none" stroke-width="2px" />
<path d="M 1200.0 215.0 L 1200.0 225.0" stroke="#0095FF" fill="none" stroke-width="2px" />
<path d="M 1190.0 225.0 L 1190.0 185.0" stroke="#0095FF" fill="none" stroke-width="2px" />
<path d="M 1200.0 185.0 L 1230.0 185.0" stroke="#0095FF" fill="none" stroke-width="2px" />
<path d="M 220.0 185.0 L 230.0 185.0" stroke="#FF0000" fill="none" stroke-width="4px" />
<path d="M 230.0 185.0 L 240.0 185.0" stroke="#FF0000" fill="none" stroke-width="4px" />
<path d="M 240.0 185.0 L 250.0 185.0" stroke="#FF0000" fill="none" stroke-width="4px" />
<path d="M 250.0 185.0 L 260.0 185.0" stroke="#FF0000" fill="none" stroke-width="4px" />
<path d="M 260.0 185.0 L 270.0 185.0" stroke="#FF0000" fill="none" stroke-width="4px" />
<path d="M 270.0 185.0 L 280.0 185.0" stroke="#FF0000" fill="none" stroke-width="4px" />
<path d="M 280.0 185.0 L 290.0 185.0" stroke="#FF0000" fill="none" stroke-width="4px" />
<path d="M 290.0 185.0 L 300.0 185.0" stroke="#FF0000" fill="none" stroke-width="4px" />
<path d="M 300.0 185.0 L 310.0 185.0" stroke="#FF0000" fill="none" stroke-width="4px" />
<path d="M 310.0 185.0 L 310.0 195.0" stroke="#FF0000" fill="none" stroke-width="4px" />
<path d="M 310.0 195.0 L 300.0 195.0" stroke="#FF0000" fill="none" stroke-width="4px" />
<path d="M 300.0 195.0 L 290.0 195.0" stroke="#FF0000" fill="none" stroke-width="4px" />
<path d="M 290.0 195.0 L 280.0 195.0" stroke="#FF0000" fill="none" stroke-width="4px" />
<path d="M 280.0 195.0 L 270.0 195.0" stroke="#FF0000" fill="none" stroke-width="4px" />
<path d="M 270.0 195.0 L 260.0 195.0" stroke="#FF0000" fill="none" stroke-width="4px" />
<path d="M 260.0 195.0 L 250.0 195.0" stroke="#FF0000" fill="none" stroke-width="4px" />
<path d="M 250.0 195.0 L 240.0 195.0" stroke="#FF0000" fill="none" stroke-width="4px" />
<path d="M 240.0 195.0 L 230.0 195.0" stroke="#FF0000" fill="none" stroke-width="4px" />
<path d="M 230.0 195.0 L 240.0 205.0" stroke="#FF0000" fill="none" stroke-width="4px" />
<path d="M 240.0 205.0 L 250.0 205.0" stroke="#FF0000" fill="none" stroke-width="4px" />
<path d="M 250.0 205.0 L 260.0 205.0" stroke="#FF0000" fill="none" stroke-width="4px" />
<path d="M 260.0 205.0 L 270.0 205.0" stroke="#FF0000" fill="none" stroke-width="4px" />
<path d="M 270.0 205.0 L 280.0 205.0" stroke="#FF0000" fill="none" stroke-width="4px" />
<path d="M 280.0 205.0 L 290.0 205.0" stroke="#FF0000" fill="none" stroke-width="4px" />
<path d="M 290.0 205.0 L 300.0 205.0" stroke="#FF0000" fill="none" stroke-width="4px" />
<path d="M 300.0 205.0 L 310.0 205.0" stroke="#FF0000" fill="none" stroke-width="4px" />
<path d="M 310.0 205.0 L 320.0 205.0" stroke="#FF0000" fill="none" stroke-width="4px" />
<path d="M 320.0 205.0 L 330.0 205.0" stroke="#FF0000" fill="none" stroke-width="4px" />
<path d="M 330.0 205.0 L 330.0 215.0" stroke="#FF0000" fill="none" stroke-width="4px" />
<path d="M 330.0 215.0 L 320.0 215.0" stroke="#FF0000" fill="none" stroke-width="4px" />
<path d="M 320.0 215.0 L 310.0 215.0" stroke="#FF0000" fill="none" stroke-width="4px" />
<path d="M 310.0 215.0 L 300.0 215.0" stroke="#FF0000" fill="none" stroke-width="4px" />
<path d="M 300.0 215.0 L 290.0 215.0" stroke="#FF0000" fill="none" stroke-width="4px" />
<path d="M 290.0 215.0 L 300.0 225.0" stroke="#FF0000" fill="none" stroke-width="4px" />
<path d="M 300.0 225.0 L 310.0 225.0" stroke="#FF0000" fill="none" stroke-width="4px" />
<path d="M 310.0 225.0 L 320.0 225.0" stroke="#FF0000" fill="none" stroke-width="4px" />
<path d="M 320.0 225.0 L 310.0 235.0" stroke="#FF0000" fill="none" stroke-width="4px" />
<path d="M 300.0 175.0 L 290.0 175.0" stroke="#FF0000" fill="none" stroke-width="4px" />
<path d="M 290.0 175.0 L 280.0 175.0" stroke="#FF0000" fill="none" stroke-width="4px" />
<path d="M 280.0 175.0 L 270.0 175.0" stroke="#FF0000" fill="none" stroke-width="4px" />
<path d="M 270.0 175.0 L 260.0 175.0" stroke="#FF0000" fill="none" stroke-width="4px" />
<path d="M 260.0 175.0 L 250.0 175.0" stroke="#FF0000" fill="none" stroke-width="4px" />
<path d="M 250.0 175.0 L 240.0 175.0" stroke="#FF0000" fill="none" stroke-width="4px" />
<path d="M 240.0 175.0 L 230.0 175.0" stroke="#FF0000" fill="none" stroke-width="4px" />
<path d="M 230.0 175.0 L 240.0 165.0" stroke="#FF0000" fill="none" stroke-width="4px" />
<path d="M 240.0 165.0 L 250.0 165.0" stroke="#FF0000" fill="none" stroke-width="4px" />
<path d="M 250.0 165.0 L 260.0 165.0" stroke="#FF0000" fill="none" stroke-width="4px" />
<path d="M 260.0 165.0 L 270.0 165.0" stroke="#FF0000" fill="none" stroke-width="4px" />
<path d="M 270.0 165.0 L 280.0 165.0" stroke="#FF0000" fill="none" stroke-width="4px" />
<path d="M 280.0 165.0 L 270.0 155.0" stroke="#FF0000" fill="none" stroke-width="4px" />
<path d="M 270.0 155.0 L 260.0 155.0" stroke="#FF0000" fill="none" stroke-width="4px" />
<path d="M 260.0 155.0 L 250.0 155.0" stroke="#FF0000" fill="none" stroke-width="4px" />
<path d="M 310.0 115.0 L 320.0 115.0" stroke="#FF0000" fill="none" stroke-width="4px" />
<path d="M 320.0 115.0 L 330.0 115.0" stroke="#FF0000" fill="none" stroke-width="4px" />
<path d="M 330.0 115.0 L 340.0 115.0" stroke="#FF0000" fill="none" stroke-width="4px" />
<path d="M 340.0 115.0 L 350.0 115.0" stroke="#FF0000" fill="none" stroke-width="4px" />
<path d="M 350.0 115.0 L 350.0 105.0" stroke="#FF0000" fill="none" stroke-width="4px" />
<path d="M 350.0 105.0 L 340.0 105.0" stroke="#FF0000" fill="none" stroke-width="4px" />
<path d="M 340.0 105.0 L 330.0 105.0" stroke="#FF0000" fill="none" stroke-width="4px" />
<path d="M 330.0 105.0 L 320.0 105.0" stroke="#FF0000" fill="none" stroke-width="4px" />
<path d="M 320.0 105.0 L 310.0 105.0" stroke="#FF0000" fill="none" stroke-width="4px" />
<path d="M 310.0 105.0 L 300.0 105.0" stroke="#FF0000" fill="none" stroke-width="4px" />
<path d="M 300.0 105.0 L 300.0 95.0" stroke="#FF0000" fill="none" stroke-width="4px" />
<path d="M 300.0 95.0 L 290.0 95.0" stroke="#FF0000" fill="none" stroke-width="4px" />
<path d="M 290.0 95.0 L 290.0 85.0" stroke="#FF0000" fill="none" stroke-width="4px" />
<path d="M 290.0 85.0 L 280.0 85.0" stroke="#FF0000" fill="none" stroke-width="4px" />
<path d="M 280.0 85.0 L 290.0 75.0" stroke="#FF0000" fill="none" stroke-width="4px" />
<path d="M 290.0 75.0 L 300.0 75.0" stroke="#FF0000" fill="none" stroke-width="4px" />
<path d="M 300.0 75.0 L 310.0 75.0" stroke="#FF0000" fill="none" stroke-width="4px" />
<path d="M 310.0 75.0 L 320.0 75.0" stroke="#FF0000" fill="none" stroke-width="4px" />
<path d="M 320.0 75.0 L 330.0 75.0" stroke="#FF0000" fill="none" stroke-width="4px" />
<path d="M 330.0 75.0 L 340.0 75.0" stroke="#FF0000" fill="none" stroke-width="4px" />
<path d="M 340.0 75.0 L 350.0 75.0" stroke="#FF0000" fill="none" stroke-width="4px" />
<path d="M 350.0 75.0 L 360.0 75.0" stroke="#FF0000" fill="none" stroke-width="4px" />
<path d="M 360.0 75.0 L 360.0 85.0" stroke="#FF0000" fill="none" stroke-width="4px" />
<path d="M 360.0 85.0 L 350.0 85.0" stroke="#FF0000" fill="none" stroke-width="4px" />
<path d="M 350.0 85.0 L 340.0 85.0" stroke="#FF0000" fill="none" stroke-width="4px" />
<path d="M 340.0 85.0 L 330.0 85.0" stroke="#FF0000" fill="none" stroke-width="4px" />
<path d="M 330.0 85.0 L 320.0 85.0" stroke="#FF0000" fill="none" stroke-width="4px" />
<path d="M 320.0 85.0 L 310.0 85.0" stroke="#FF0000" fill="none" stroke-width="4px" />
<path d="M 310.0 85.0 L 300.0 85.0" stroke="#FF0000" fill="none" stroke-width="4px" />
<path d="M 300.0 85.0 L 310.0 95.0" stroke="#FF0000" fill="none" stroke-width="4px" />
<path d="M 310.0 95.0 L 320.0 95.0" stroke="#FF0000" fill="none" stroke-width="4px" />
<path d="M 320.0 95.0 L 330.0 95.0" stroke="#FF0000" fill="none" stroke-width="4px" />
<path d="M 330.0 95.0 L 340.0 95.0" stroke="#FF0000" fill="none" stroke-width="4px" />
<path d="M 340.0 95.0 L 350.0 95.0" stroke="#FF0000" fill="none" stroke-width="4px" />
<path d="M 350.0 95.0 L 360.0 95.0" stroke="#FF0000" fill="none" stroke-width="4px" />
<path d="M 360.0 95.0 L 370.0 95.0" stroke="#FF0000" fill="none" stroke-width="4px" />
<path d="M 370.0 95.0 L 370.0 85.0" stroke="#FF0000" fill="none" stroke-width="4px" />
<path d="M 350.0 65.0 L 340.0 65.0" stroke="#FF0000" fill="none" stroke-width="4px" />
<path d="M 340.0 65.0 L 330.0 65.0" stroke="#FF0000" fill="none" stroke-width="4px" />
<path d="M 330.0 65.0 L 320.0 65.0" stroke="#FF0000" fill="none" stroke-width="4px" />
<path d="M 320.0 65.0 L 310.0 65.0" stroke="#FF0000" fill="none" stroke-width="4px" />
<path d="M 310.0 65.0 L 300.0 65.0" stroke="#FF0000" fill="none" stroke-width="4px" />
<path d="M 1170.0 195.0 L 1180.0 195.0" stroke="#FF0000" fill="none" stroke-width="4px" />
<path d="M 1180.0 195.0 L 1190.0 195.0" stroke="#FF0000" fill="none" stroke-width="4px" />
<path d="M 1190.0 195.0 L 1200.0 195.0" stroke="#FF0000" fill="none" stroke-width="4px" />
<path d="M 1200.0 195.0 L 1210.0 195.0" stroke="#FF0000" fill="none" stroke-width="4px" />
<path d="M 1210.0 195.0 L 1220.0 195.0" stroke="#FF0000" fill="none" stroke-width="4px" />
<path d="M 1220.0 195.0 L 1230.0 195.0" stroke="#FF0000" fill="none" stroke-width="4px" />
<path d="M 1230.0 195.0 L 1230.0 205.0" stroke="#FF0000" fill="none" stroke-width="4px" />
<path d="M 1230.0 205.0 L 1220.0 205.0" stroke="#FF0000" fill="none" stroke-width="4px" />
<path d="M 1220.0 205.0 L 1210.0 205.0" stroke="#FF0000" fill="none" stroke-width="4px" />
<path d="M 1210.0 205.0 L 1200.0 205.0" stroke="#FF0000" fill="none" stroke-width="4px" />
<path d="M 1200.0 205.0 L 1190.0 205.0" stroke="#FF0000" fill="none" stroke-width="4px" />
<path d="M 1190.0 205.0 L 1180.0 205.0" stroke="#FF0000" fill="none" stroke-width="4px" />
<path d="M 1180.0 205.0 L 1170.0 205.0" stroke="#FF0000" fill="none" stroke-width="4px" />
<path d="M 1170.0 205.0 L 1170.0 215.0" stroke="#FF0000" fill="none" stroke-width="4px" />
<path d="M 1170.0 215.0 L 1180.0 215.0" stroke="#FF0000" fill="none" stroke-width="4px" />
<path d="M 1180.0 215.0 L 1190.0 215.0" stroke="#FF0000" fill="none" stroke-width="4px" />
<path d="M 1190.0 215.0 L 1200.0 215.0" stroke="#FF0000" fill="none" stroke-width="4px" />
<path d="M 1200.0 215.0 L 1210.0 215.0" stroke="#FF0000" fill="none" stroke-width="4px" />
<path d="M 1210.0 215.0 L 1220.0 215.0" stroke="#FF0000" fill="none" stroke-width="4px" />
<path d="M 1200.0 225.0 L 1190.0 225.0" stroke="#FF0000" fill="none" stroke-width="4px" />
<path d="M 1190.0 185.0 L 1180.0 185.0" stroke="#FF0000" fill="none" stroke-width="4px" />
<path d="M 1180.0 185.0 L 1190.0 175.0" stroke="#FF0000" fill="none" stroke-width="4px" />
<path d="M 1190.0 175.0 L 1200.0 175.0" stroke="#FF0000" fill="none" stroke-width="4px" />
<path d="M 1200.0 175.0 L 1210.0 175.0" stroke="#FF0000" fill="none" stroke-width="4px" />
<path d="M 1210.0 175.0 L 1220.0 175.0" stroke="#FF0000" fill="none" stroke-width="4px" />
<path d="M 1220.0 175.0 L 1220.0 185.0" stroke="#FF0000" fill="none" stroke-width="4px" />
<path d="M 1220.0 185.0 L 1210.0 185.0" stroke="#FF0000" fill="none" stroke-width="4px" />
<path d="M 1210.0 185.0 L 1200.0 185.0" stroke="#FF0000" fill="none" stroke-width="4px" />
</svg>