<svg width="1755.23333333" height="235.0" xmlns="http://www.w3.org/2000/svg" version="1.1">
<path d="M 0.0 235.0 L 1755.23333333 235.0 L 1755.23333333 0.0 L 0.0 0.0 L 0.0 235.0" stroke="#000000" fill="none" stroke-width="3px" />
<path d="M 10.0 257.5 L 0.0 247.5 L 10.0 237.5" stroke="#969696" fill="none" stroke-width="1px" />
<path d="M 10.0 237.5 L 1745.23333333 237.5" stroke="#969696" fill="none" stroke-width="1px" />
<path d="M 1745.23333333 237.5 L 1755.23333333 227.5 L 1745.23333333 217.5" stroke="#969696" fill="none" stroke-width="1px" />
<path d="M 1745.23333333 217.5 L 10.0 217.5" stroke="#969696" fill="none" stroke-width="1px" />
<path d="M 10.0 217.5 L 0.0 207.5 L 10.0 197.5" stroke="#969696" fill="none" stroke-width="1px" />
<path d="M 10.0 197.5 L 1745.23333333 197.5" stroke="#969696" fill="none" stroke-width="1px" />
<path d="M 1745.23333333 197.5 L 1755.23333333 187.5 L 1745.23333333 177.5" stroke="#969696" fill="none" stroke-width="1px" />
<path d="M 1745.23333333 177.5 L 10.0 177.5" stroke="#969696" fill="none" stroke-width="1px" />
<path d="M 10.0 177.5 L 0.0 167.5 L 10.0 157.5" stroke="#969696" fill="none" stroke-width="1px" />
<path d="M 10.0 157.5 L 1745.23333333 157.5" stroke="#969696" fill="none" stroke-width="1px" />
<path d="M 1745.23333333 157.5 L 1755.23333333 147.5 L 1745.23333333 137.5" stroke="#969696" fill="none" stroke-width="1px" />
<path d="M 1745.23333333 137.5 L 10.0 137.5" stroke="#969696" fill="none" stroke-width="1px" />
<path d="M 10.0 137.5 L 0.0 127.5 L 10.0 117.5" stroke="#969696" fill="none" stroke-width="1px" />
<path d="M 10.0 117.5 L 1745.23333333 117.5" stroke="#969696" fill="none" stroke-width="1px" />
<path d="M 1745.23333333 117.5 L 1755.23333333 107.5 L 1745.23333333 97.5" stroke="#969696" fill="none" stroke-width="1px" />
<path d="M 1745.23333333 97.5 L 10.0 97.5" stroke="#969696" fill="none" stroke-width="1px" />
<path d="M 10.0 97.5 L 0.0 87.5 L 10.0 77.5" stroke="#969696" fill="none" stroke-width="1px" />
<path d="M 10.0 77.5 L 1745.23333333 77.5" stroke="#969696" fill="none" stroke-width="1px" />
<path d="M 1745.23333333 77.5 L 1755.23333333 67.5 L 1745.23333333 57.5" stroke="#969696" fill="none" stroke-width="1px" />
<path d="M 1745.23333333 57.5 L 10.0 57.5" stroke="#969696" fill="none" stroke-width="1px" />
<path d="M 10.0 57.5 L 0.0 47.5 L 10.0 37.5" stroke="#969696" fill="none" stroke-width="1px" />
<path d="M 10.0 37.5 L 1745.23333333 37.5" stroke="#969696" fill="none" stroke-width="1px" />
<path d="M 1745.23333333 37.5 L 1755.23333333 27.5 L 1745.23333333 17.5" stroke="#969696" fill="none" stroke-width="1px" />
<path d="M 1745.23333333 17.5 L 10.0 17.5" stroke="#969696" fill="none" stroke-width="1px" />
<path d="M 10.0 17.5 L 0.0 7.5 L 10.0 -2.5" stroke="#969696" fill="none" stroke-width="1px" />
<path d="M 10.0 -2.5 L 1745.23333333 -2.5" stroke="#969696" fill="none" stroke-width="1px" />
<path d="M 1745.23333333 -2.5 L 1755.23333333 -12.5 L 1745.23333333 -22.5" stroke="#969696" fill="none" stroke-width="1px" />
<path d="M 0.0 235.0 L 20.0 235.0" stroke="#0095FF" fill="none" stroke-width="2px" />
<path d="M 20.0 235.0 L 20.0 225.0" stroke="#0095FF" fill="none" stroke-width="2px" />
<path d="M 30.0 205.0 L 30.0 185.0" stroke="#0095FF" fill="none" stroke-width="2px" />
<path d="M 40.0 185.0 L 40.0 165.0" stroke="#0095FF" fill="none" stroke-width="2px" />
<path d="M 50.0 155.0 L 120.0 155.0" stroke="#0095FF" fill="none" stroke-width="2px" />
<path d="M 120.0 155.0 L 120.0 135.0" stroke="#0095FF" fill="none" stroke-width="2px" />
<path d="M 190.0 125.0 L 180.0 125.0" stroke="#0095FF" fill="none" stroke-width="2px" />
<path d="M 180.0 125.0 L 180.0 105.0" stroke="#0095FF" fill="none" stroke-width="2px" />
<path d="M 170.0 95.0 L 170.0 145.0" stroke="#0095FF" fill="none" stroke-width="2px" />
<path d="M 150.0 165.0 L 120.0 165.0" stroke="#0095FF" fill="none" stroke-width="2px" />
<path d="M 120.0 165.0 L 120.0 215.0" stroke="#0095FF" fill="none" stroke-width="2px" />
<path d="M 120.0 215.0 L 100.0 215.0" stroke="#0095FF" fill="none" stroke-width="2px" />
<path d="M 100.0 215.0 L 100.0 235.0" stroke="#0095FF" fill="none" stroke-width="2px" />
<path d="M 30.0 235.0 L 80.0 235.0" stroke="#0095FF" fill="none" stroke-width="2px" />
<path d="M 80.0 235.0 L 80.0 75.0" stroke="#0095FF" fill="none" stroke-width="2px" />
<path d="M 70.0 55.0 L 70.0 35.0" stroke="#0095FF" fill="none" stroke-width="2px" />
<path d="M 100.0 35.0 L 120.0 35.0" stroke="#0095FF" fill="none" stroke-width="2px" />
<path d="M 120.0 35.0 L 120.0 55.0" stroke="#0095FF" fill="none" stroke-width="2px" />
<path d="M 110.0 65.0 L 80.0 65.0" stroke="#0095FF" fill="none" stroke-width="2px" />
<path d="M 80.0 65.0 L 80.0 15.0" stroke="#0095FF" fill="none" stroke-width="2px" />
<path d="M 60.0 15.0 L 480.0 15.0" stroke="#0095FF" fill="none" stroke-width="2px" />
<path d="M 480.0 15.0 L 480.0 175.0" stroke="#0095FF" fill="none" stroke-width="2px" />
<path d="M 490.0 165.0 L 490.0 185.0" stroke="#0095FF" fill="none" stroke-width="2px" />
<path d="M 580.0 195.0 L 560.0 195.0" stroke="#0095FF" fill="none" stroke-width="2px" />
<path d="M 560.0 195.0 L 560.0 215.0" stroke="#0095FF" fill="none" stroke-width="2px" />
<path d="M 500.0 235.0 L 530.0 235.0" stroke="#0095FF" fill="none" stroke-width="2px" />
<path d="M 530.0 235.0 L 530.0 155.0" stroke="#0095FF" fill="none" stroke-width="2px" />
<path d="M 620.0 145.0 L 610.0 145.0" stroke="#0095FF" fill="none" stroke-width="2px" />
<path d="M 610.0 145.0 L 610.0 125.0" stroke="#0095FF" fill="none" stroke-width="2px" />
<path d="M 590.0 75.0 L 630.0 75.0" stroke="#0095FF" fill="none" stroke-width="2px" />
<path d="M 630.0 75.0 L 630.0 105.0" stroke="#0095FF" fill="none" stroke-width="2px" />
<path d="M 620.0 105.0 L 570.0 105.0" stroke="#0095FF" fill="none" stroke-width="2px" />
<path d="M 570.0 105.0 L 570.0 125.0" stroke="#0095FF" fill="none" stroke-width="2px" />
<path d="M 560.0 115.0 L 600.0 115.0" stroke="#0095FF" fill="none" stroke-width="2px" />
<path d="M 600.0 115.0 L 600.0 165.0" stroke="#0095FF" fill="none" stroke-width="2px" />
<path d="M 600.0 165.0 L 710.0 165.0" stroke="#0095FF" fill="none" stroke-width="2px" />
<path d="M 710.0 165.0 L 710.0 105.0" stroke="#0095FF" fill="none" stroke-width="2px" />
<path d="M 780.0 95.0 L 770.0 95.0" stroke="#0095FF" fill="none" stroke-width="2px" />
<path d="M 770.0 95.0 L 770.0 75.0" stroke="#0095FF" fill="none" stroke-width="2px" />
<path d="M 760.0 65.0 L 760.0 115.0" stroke="#0095FF" fill="none" stroke-width="2px" />
<path d="M 720.0 115.0 L 1350.0 115.0" stroke="#0095FF" fill="none" stroke-width="2px" />
<path d="M 1350.0 115.0 L 1350.0 135.0" stroke="#0095FF" fill="none" stroke-width="2px" />
<path d="M 1380.0 105.0 L 1410.0 105.0" stroke="#0095FF" fill="none" stroke-width="2px" />
<path d="M 1410.0 105.0 L 1410.0 95.0" stroke="#0095FF" fill="none" stroke-width="2px" />
<path d="M 1420.0 85.0 L 1450.0 85.0" stroke="#0095FF" fill="none" stroke-width="2px" />
<path d="M 1450.0 85.0 L 1450.0 125.0" stroke="#0095FF" fill="none" stroke-width="2px" />
<path d="M 1450.0 125.0 L 1420.0 125.0" stroke="#0095FF" fill="none" stroke-width="2px" />
<path d="M 1420.0 125.0 L 1420.0 145.0" stroke="#0095FF" fill="none" stroke-width="2px" />
<path d="M 20.0 225.0 L 30.0 225.0" stroke="#FF0000" fill="none" stroke-width="4px" />
<path d="M 30.0 225.0 L 40.0 225.0" stroke="#FF0000" fill="none" stroke-width="4px" />
<path d="M 40.0 225.0 L 50.0 225.0" stroke="#FF0000" fill="none" stroke-width="4px" />
<path d="M 50.0 225.0 L 60.0 225.0" stroke="#FF0000" fill="none" stroke-width="4px" />
<path d="M 60.0 225.0 L 70.0 225.0" stroke="#FF0000" fill="none" stroke-width="4px" />
<path d="M 70.0 225.0 L 80.0 225.0" stroke="#FF0000" fill="none" stroke-width="4px" />
<path d="M 80.0 225.0 L 90.0 225.0" stroke="#FF0000" fill="none" stroke-width="4px" />
<path d="M 90.0 225.0 L 100.0 225.0" stroke="#FF0000" fill="none" stroke-width="4px" />
<path d="M 100.0 225.0 L 110.0 225.0" stroke="#FF0000" fill="none" stroke-width="4px" />
<path d="M 110.0 225.0 L 110.0 215.0" stroke="#FF0000" fill="none" stroke-width="4px" />
<path d="M 110.0 215.0 L 100.0 215.0" stroke="#FF0000" fill="none" stroke-width="4px" />
<path d="M 100.0 215.0 L 90.0 215.0" stroke="#FF0000" fill="none" stroke-width="4px" />
<path d="M 90.0 215.0 L 80.0 215.0" stroke="#FF0000" fill="none" stroke-width="4px" />
<path d="M 80.0 215.0 L 70.0 215.0" stroke="#FF0000" fill="none" stroke-width="4px" />
<path d="M 70.0 215.0 L 60.0 215.0" stroke="#FF0000" fill="none" stroke-width="4px" />
<path d="M 60.0 215.0 L 50.0 215.0" stroke="#FF0000" fill="none" stroke-width="4px" />
<path d="M 50.0 215.0 L 40.0 215.0" stroke="#FF0000" fill="none" stroke-width="4px" />
<path d="M 40.0 215.0 L 30.0 215.0" stroke="#FF0000" fill="none" stroke-width="4px" />
<path d="M 30.0 215.0 L 20.0 215.0" stroke="#FF0000" fill="none" stroke-width="4px" />
<path d="M 20.0 215.0 L 20.0 205.0" stroke="#FF0000" fill="none" stroke-width="4px" />
<path d="M 20.0 205.0 L 10.0 205.0" stroke="#FF0000" fill="none" stroke-width="4px" />
<path d="M 10.0 205.0 L 20.0 195.0" stroke="#FF0000" fill="none" stroke-width="4px" />
<path d="M 20.0 195.0 L 30.0 195.0" stroke="#FF0000" fill="none" stroke-width="4px" />
<path d="M 30.0 195.0 L 40.0 195.0" stroke="#FF0000" fill="none" stroke-width="4px" />
<path d="M 40.0 195.0 L 50.0 195.0" stroke="#FF0000" fill="none" stroke-width="4px" />
<path d="M 50.0 195.0 L 60.0 195.0" stroke="#FF0000" fill="none" stroke-width="4px" />
<path d="M 60.0 195.0 L 70.0 195.0" stroke="#FF0000" fill="none" stroke-width="4px" />
<path d="M 70.0 195.0 L 80.0 195.0" stroke="#FF0000" fill="none" stroke-width="4px" />
<path d="M 80.0 195.0 L 90.0 195.0" stroke="#FF0000" fill="none" stroke-width="4px" />
<path d="M 90.0 195.0 L 100.0 195.0" stroke="#FF0000" fill="none" stroke-width="4px" />
<path d="M 100.0 195.0 L 110.0 195.0" stroke="#FF0000" fill="none" stroke-width="4px" />
<path d="M 110.0 195.0 L 120.0 195.0" stroke="#FF0000" fill="none" stroke-width="4px" />
<path d="M 120.0 195.0 L 120.0 205.0" stroke="#FF0000" fill="none" stroke-width="4px" />
<path d="M 120.0 205.0 L 110.0 205.0" stroke="#FF0000" fill="none" stroke-width="4px" />
<path d="M 110.0 205.0 L 100.0 205.0" stroke="#FF0000" fill="none" stroke-width="4px" />
<path d="M 100.0 205.0 L 90.0 205.0" stroke="#FF0000" fill="none" stroke-width="4px" />
<path d="M 90.0 205.0 L 80.0 205.0" stroke="#FF0000" fill="none" stroke-width="4px" />
<path d="M 80.0 205.0 L 70.0 205.0" stroke="#FF0000" fill="none" stroke-width="4px" />
<path d="M 70.0 205.0 L 60.0 205.0" stroke="#FF0000" fill="none" stroke-width="4px" />
<path d="M 60.0 205.0 L 50.0 205.0" stroke="#FF0000" fill="none" stroke-width="4px" />
<path d="M 50.0 205.0 L 40.0 205.0" stroke="#FF0000" fill="none" stroke-width="4px" />
<path d="M 40.0 205.0 L 30.0 205.0" stroke="#FF0000" fill="none" stroke-width="4px" />
<path d="M 30.0 185.0 L 20.0 185.0" stroke="#FF0000" fill="none" stroke-width="4px" />
<path d="M 20.0 185.0 L 20.0 175.0" stroke="#FF0000" fill="none" stroke-width="4px" />
<path d="M 20.0 175.0 L 30.0 175.0" stroke="#FF0000" fill="none" stroke-width="4px" />
<path d="M 30.0 175.0 L 40.0 175.0" stroke="#FF0000" fill="none" stroke-width="4px" />
<path d="M 40.0 175.0 L 50.0 175.0" stroke="#FF0000" fill="none" stroke-width="4px" />
<path d="M 50.0 175.0 L 60.0 175.0" stroke="#FF0000" fill="none" stroke-width="4px" />
<path d="M 60.0 175.0 L 70.0 175.0" stroke="#FF0000" fill="none" stroke-width="4px" />
<path d="M 70.0 175.0 L 80.0 175.0" stroke="#FF0000" fill="none" stroke-width="4px" />
<path d="M 80.0 175.0 L 90.0 175.0" stroke="#FF0000" fill="none" stroke-width="4px" />
<path d="M 90.0 175.0 L 100.0 175.0" stroke="#FF0000" fill="none" stroke-width="4px" />
<path d="M 100.0 175.0 L 110.0 175.0" stroke="#FF0000" fill="none" stroke-width="4px" />
<path d="M 110.0 175.0 L 120.0 175.0" stroke="#FF0000" fill="none" stroke-width="4px" />
<path d="M 120.0 175.0 L 120.0 185.0" stroke="#FF0000" fill="none" stroke-width="4px" />
<path d="M 120.0 185.0 L 110.0 185.0" stroke="#FF0000" fill="none" stroke-width="4px" />
<path d="M 110.0 185.0 L 100.0 185.0" stroke="#FF0000" fill="none" stroke-width="4px" />
<path d="M 100.0 185.0 L 90.0 185.0" stroke="#FF0000" fill="none" stroke-width="4px" />
<path d="M 90.0 185.0 L 80.0 185.0" stroke="#FF0000" fill="none" stroke-width="4px" />
<path d="M 80.0 185.0 L 70.0 185.0" stroke="#FF0000" fill="none" stroke-width="4px" />
<path d="M 70.0 185.0 L 60.0 185.0" stroke="#FF0000" fill="none" stroke-width="4px" />
<path d="M 60.0 185.0 L 50.0 185.0" stroke="#FF0000" fill="none" stroke-width="4px" />
<path d="M 50.0 185.0 L 40.0 185.0" stroke="#FF0000" fill="none" stroke-width="4px" />
<path d="M 40.0 165.0 L 30.0 165.0" stroke="#FF0000" fill="none" stroke-width="4px" />
<path d="M 30.0 165.0 L 50.0 165.0" stroke="#FF0000" fill="none" stroke-width="4px" />
<path d="M 50.0 165.0 L 60.0 165.0" stroke="#FF0000" fill="none" stroke-width="4px" />
<path d="M 60.0 165.0 L 70.0 165.0" stroke="#FF0000" fill="none" stroke-width="4px" />
<path d="M 70.0 165.0 L 80.0 165.0" stroke="#FF0000" fill="none" stroke-width="4px" />
<path d="M 80.0 165.0 L 90.0 165.0" stroke="#FF0000" fill="none" stroke-width="4px" />
<path d="M 90.0 165.0 L 100.0 165.0" stroke="#FF0000" fill="none" stroke-width="4px" />
<path d="M 100.0 165.0 L 110.0 165.0" stroke="#FF0000" fill="none" stroke-width="4px" />
<path d="M 110.0 165.0 L 120.0 165.0" stroke="#FF0000" fill="none" stroke-width="4px" />
<path d="M 120.0 165.0 L 110.0 155.0" stroke="#FF0000" fill="none" stroke-width="4px" />
<path d="M 110.0 155.0 L 100.0 155.0" stroke="#FF0000" fill="none" stroke-width="4px" />
<path d="M 100.0 155.0 L 90.0 155.0" stroke="#FF0000" fill="none" stroke-width="4px" />
<path d="M 90.0 155.0 L 80.0 155.0" stroke="#FF0000" fill="none" stroke-width="4px" />
<path d="M 80.0 155.0 L 70.0 155.0" stroke="#FF0000" fill="none" stroke-width="4px" />
<path d="M 70.0 155.0 L 60.0 155.0" stroke="#FF0000" fill="none" stroke-width="4px" />
<path d="M 60.0 155.0 L 50.0 155.0" stroke="#FF0000" fill="none" stroke-width="4px" />
<path d="M 120.0 135.0 L 130.0 135.0" stroke="#FF0000" fill="none" stroke-width="4px" />
<path d="M 130.0 135.0 L 140.0 135.0" stroke="#FF0000" fill="none" stroke-width="4px" />
<path d="M 140.0 135.0 L 150.0 135.0" stroke="#FF0000" fill="none" stroke-width="4px" />
<path d="M 150.0 135.0 L 160.0 135.0" stroke="#FF0000" fill="none" stroke-width="4px" />
<path d="M 160.0 135.0 L 170.0 135.0" stroke="#FF0000" fill="none" stroke-width="4px" />
<path d="M 170.0 135.0 L 180.0 135.0" stroke="#FF0000" fill="none" stroke-width="4px" />
<path d="M 180.0 135.0 L 180.0 125.0" stroke="#FF0000" fill="none" stroke-width="4px" />
<path d="M 180.0 125.0 L 170.0 125.0" stroke="#FF0000" fill="none" stroke-width="4px" />
<path d="M 170.0 125.0 L 160.0 125.0" stroke="#FF0000" fill="none" stroke-width="4px" />
<path d="M 160.0 125.0 L 150.0 125.0" stroke="#FF0000" fill="none" stroke-width="4px" />
<path d="M 150.0 125.0 L 140.0 125.0" stroke="#FF0000" fill="none" stroke-width="4px" />
<path d="M 140.0 125.0 L 130.0 125.0" stroke="#FF0000" fill="none" stroke-width="4px" />
<path d="M 130.0 125.0 L 130.0 115.0" stroke="#FF0000" fill="none" stroke-width="4px" />
<path d="M 130.0 115.0 L 140.0 115.0" stroke="#FF0000" fill="none" stroke-width="4px" />
<path d="M 140.0 115.0 L 150.0 115.0" stroke="#FF0000" fill="none" stroke-width="4px" />
<path d="M 150.0 115.0 L 160.0 115.0" stroke="#FF0000" fill="none" stroke-width="4px" />
<path d="M 160.0 115.0 L 170.0 115.0" stroke="#FF0000" fill="none" stroke-width="4px" />
<path d="M 170.0 115.0 L 180.0 115.0" stroke="#FF0000" fill="none" stroke-width="4px" />
<path d="M 180.0 115.0 L 190.0 115.0" stroke="#FF0000" fill="none" stroke-width="4px" />
<path d="M 190.0 115.0 L 190.0 125.0" stroke="#FF0000" fill="none" stroke-width="4px" />
<path d="M 180.0 105.0 L 170.0 105.0" stroke="#FF0000" fill="none" stroke-width="4px" />
<path d="M 170.0 105.0 L 160.0 105.0" stroke="#FF0000" fill="none" stroke-width="4px" />
<path d="M 160.0 105.0 L 150.0 105.0" stroke="#FF0000" fill="none" stroke-width="4px" />
<path d="M 150.0 105.0 L 140.0 105.0" stroke="#FF0000" fill="none" stroke-width="4px" />
<path d="M 140.0 105.0 L 150.0 95.0" stroke="#FF0000" fill="none" stroke-width="4px" />
<path d="M 150.0 95.0 L 160.0 95.0" stroke="#FF0000" fill="none" stroke-width="4px" />
<path d="M 160.0 95.0 L 170.0 95.0" stroke="#FF0000" fill="none" stroke-width="4px" />
<path d="M 170.0 145.0 L 160.0 145.0" stroke="#FF0000" fill="none" stroke-width="4px" />
<path d="M 160.0 145.0 L 150.0 145.0" stroke="#FF0000" fill="none" stroke-width="4px" />
<path d="M 150.0 145.0 L 140.0 145.0" stroke="#FF0000" fill="none" stroke-width="4px" />
<path d="M 140.0 145.0 L 130.0 145.0" stroke="#FF0000" fill="none" stroke-width="4px" />
<path d="M 130.0 145.0 L 140.0 155.0" stroke="#FF0000" fill="none" stroke-width="4px" />
<path d="M 140.0 155.0 L 150.0 155.0" stroke="#FF0000" fill="none" stroke-width="4px" />
<path d="M 150.0 155.0 L 160.0 155.0" stroke="#FF0000" fill="none" stroke-width="4px" />
<path d="M 160.0 155.0 L 170.0 155.0" stroke="#FF0000" fill="none" stroke-width="4px" />
<path d="M 170.0 155.0 L 160.0 165.0" stroke="#FF0000" fill="none" stroke-width="4px" />
<path d="M 160.0 165.0 L 150.0 165.0" stroke="#FF0000" fill="none" stroke-width="4px" />
<path d="M 100.0 235.0 L 90.0 235.0" stroke="#FF0000" fill="none" stroke-width="4px" />
<path d="M 90.0 235.0 L 80.0 235.0" stroke="#FF0000" fill="none" stroke-width="4px" />
<path d="M 80.0 235.0 L 70.0 235.0" stroke="#FF0000" fill="none" stroke-width="4px" />
<path d="M 70.0 235.0 L 60.0 235.0" stroke="#FF0000" fill="none" stroke-width="4px" />
<path d="M 60.0 235.0 L 50.0 235.0" stroke="#FF0000" fill="none" stroke-width="4px" />
<path d="M 50.0 235.0 L 40.0 235.0" stroke="#FF0000" fill="none" stroke-width="4px" />
<path d="M 40.0 235.0 L 30.0 235.0" stroke="#FF0000" fill="none" stroke-width="4px" />
<path d="M 80.0 75.0 L 90.0 75.0" stroke="#FF0000" fill="none" stroke-width="4px" />
<path d="M 90.0 75.0 L 100.0 75.0" stroke="#FF0000" fill="none" stroke-width="4px" />
<path d="M 100.0 75.0 L 100.0 65.0" stroke="#FF0000" fill="none" stroke-width="4px" />
<path d="M 100.0 65.0 L 90.0 65.0" stroke="#FF0000" fill="none" stroke-width="4px" />
<path d="M 90.0 65.0 L 80.0 65.0" stroke="#FF0000" fill="none" stroke-width="4px" />
<path d="M 80.0 65.0 L 70.0 65.0" stroke="#FF0000" fill="none" stroke-width="4px" />
<path d="M 70.0 65.0 L 60.0 65.0" stroke="#FF0000" fill="none" stroke-width="4px" />
<path d="M 60.0 65.0 L 60.0 55.0" stroke="#FF0000" fill="none" stroke-width="4px" />
<path d="M 60.0 55.0 L 50.0 55.0" stroke="#FF0000" fill="none" stroke-width="4px" />
<path d="M 50.0 55.0 L 50.0 45.0" stroke="#FF0000" fill="none" stroke-width="4px" />
<path d="M 50.0 45.0 L 60.0 45.0" stroke="#FF0000" fill="none" stroke-width="4px" />
<path d="M 60.0 45.0 L 70.0 45.0" stroke="#FF0000" fill="none" stroke-width="4px" />
<path d="M 70.0 45.0 L 80.0 45.0" stroke="#FF0000" fill="none" stroke-width="4px" />
<path d="M 80.0 45.0 L 90.0 45.0" stroke="#FF0000" fill="none" stroke-width="4px" />
<path d="M 90.0 45.0 L 100.0 45.0" stroke="#FF0000" fill="none" stroke-width="4px" />
<path d="M 100.0 45.0 L 110.0 45.0" stroke="#FF0000" fill="none" stroke-width="4px" />
<path d="M 110.0 45.0 L 110.0 55.0" stroke="#FF0000" fill="none" stroke-width="4px" />
<path d="M 110.0 55.0 L 100.0 55.0" stroke="#FF0000" fill="none" stroke-width="4px" />
<path d="M 100.0 55.0 L 90.0 55.0" stroke="#FF0000" fill="none" stroke-width="4px" />
<path d="M 90.0 55.0 L 80.0 55.0" stroke="#FF0000" fill="none" stroke-width="4px" />
<path d="M 80.0 55.0 L 70.0 55.0" stroke="#FF0000" fill="none" stroke-width="4px" />
<path d="M 70.0 35.0 L 60.0 35.0" stroke="#FF0000" fill="none" stroke-width="4px" />
<path d="M 60.0 35.0 L 50.0 35.0" stroke="#FF0000" fill="none" stroke-width="4px" />
<path d="M 50.0 35.0 L 50.0 25.0" stroke="#FF0000" fill="none" stroke-width="4px" />
<path d="M 50.0 25.0 L 60.0 25.0" stroke="#FF0000" fill="none" stroke-width="4px" />
<path d="M 60.0 25.0 L 70.0 25.0" stroke="#FF0000" fill="none" stroke-width="4px" />
<path d="M 70.0 25.0 L 80.0 25.0" stroke="#FF0000" fill="none" stroke-width="4px" />
<path d="M 80.0 25.0 L 90.0 25.0" stroke="#FF0000" fill="none" stroke-width="4px" />
<path d="M 90.0 25.0 L 90.0 35.0" stroke="#FF0000" fill="none" stroke-width="4px" />
<path d="M 90.0 35.0 L 80.0 35.0" stroke="#FF0000" fill="none" stroke-width="4px" />
<path d="M 80.0 35.0 L 100.0 35.0" stroke="#FF0000" fill="none" stroke-width="4px" />
<path d="M 120.0 55.0 L 110.0 65.0" stroke="#FF0000" fill="none" stroke-width="4px" />
<path d="M 80.0 15.0 L 70.0 15.0" stroke="#FF0000" fill="none" stroke-width="4px" />
<path d="M 70.0 15.0 L 60.0 15.0" stroke="#FF0000" fill="none" stroke-width="4px" />
<path d="M 480.0 175.0 L 490.0 175.0" stroke="#FF0000" fill="none" stroke-width="4px" />
<path d="M 490.0 175.0 L 500.0 175.0" stroke="#FF0000" fill="none" stroke-width="4px" />
<path d="M 500.0 175.0 L 510.0 175.0" stroke="#FF0000" fill="none" stroke-width="4px" />
<path d="M 510.0 175.0 L 520.0 175.0" stroke="#FF0000" fill="none" stroke-width="4px" />
<path d="M 520.0 175.0 L 530.0 175.0" stroke="#FF0000" fill="none" stroke-width="4px" />
<path d="M 530.0 175.0 L 540.0 175.0" stroke="#FF0000" fill="none" stroke-width="4px" />
<path d="M 540.0 175.0 L 550.0 175.0" stroke="#FF0000" fill="none" stroke-width="4px" />
<path d="M 550.0 175.0 L 560.0 175.0" stroke="#FF0000" fill="none" stroke-width="4px" />
<path d="M 560.0 175.0 L 570.0 175.0" stroke="#FF0000" fill="none" stroke-width="4px" />
<path d="M 570.0 175.0 L 580.0 175.0" stroke="#FF0000" fill="none" stroke-width="4px" />
<path d="M 580.0 175.0 L 590.0 175.0" stroke="#FF0000" fill="none" stroke-width="4px" />
<path d="M 590.0 175.0 L 590.0 165.0" stroke="#FF0000" fill="none" stroke-width="4px" />
<path d="M 590.0 165.0 L 580.0 165.0" stroke="#FF0000" fill="none" stroke-width="4px" />
<path d="M 580.0 165.0 L 570.0 165.0" stroke="#FF0000" fill="none" stroke-width="4px" />
<path d="M 570.0 165.0 L 560.0 165.0" stroke="#FF0000" fill="none" stroke-width="4px" />
<path d="M 560.0 165.0 L 550.0 165.0" stroke="#FF0000" fill="none" stroke-width="4px" />
<path d="M 550.0 165.0 L 540.0 165.0" stroke="#FF0000" fill="none" stroke-width="4px" />
<path d="M 540.0 165.0 L 530.0 165.0" stroke="#FF0000" fill="none" stroke-width="4px" />
<path d="M 530.0 165.0 L 520.0 165.0" stroke="#FF0000" fill="none" stroke-width="4px" />
<path d="M 520.0 165.0 L 510.0 165.0" stroke="#FF0000" fill="none" stroke-width="4px" />
<path d="M 510.0 165.0 L 500.0 165.0" stroke="#FF0000" fill="none" stroke-width="4px" />
<path d="M 500.0 165.0 L 490.0 165.0" stroke="#FF0000" fill="none" stroke-width="4px" />
<path d="M 490.0 185.0 L 480.0 185.0" stroke="#FF0000" fill="none" stroke-width="4px" />
<path d="M 480.0 185.0 L 480.0 195.0" stroke="#FF0000" fill="none" stroke-width="4px" />
<path d="M 480.0 195.0 L 470.0 195.0" stroke="#FF0000" fill="none" stroke-width="4px" />
<path d="M 470.0 195.0 L 470.0 205.0" stroke="#FF0000" fill="none" stroke-width="4px" />
<path d="M 470.0 205.0 L 480.0 205.0" stroke="#FF0000" fill="none" stroke-width="4px" />
<path d="M 480.0 205.0 L 490.0 205.0" stroke="#FF0000" fill="none" stroke-width="4px" />
<path d="M 490.0 205.0 L 500.0 205.0" stroke="#FF0000" fill="none" stroke-width="4px" />
<path d="M 500.0 205.0 L 510.0 205.0" stroke="#FF0000" fill="none" stroke-width="4px" />
<path d="M 510.0 205.0 L 520.0 205.0" stroke="#FF0000" fill="none" stroke-width="4px" />
<path d="M 520.0 205.0 L 530.0 205.0" stroke="#FF0000" fill="none" stroke-width="4px" />
<path d="M 530.0 205.0 L 540.0 205.0" stroke="#FF0000" fill="none" stroke-width="4px" />
<path d="M 540.0 205.0 L 550.0 205.0" stroke="#FF0000" fill="none" stroke-width="4px" />
<path d="M 550.0 205.0 L 560.0 205.0" stroke="#FF0000" fill="none" stroke-width="4px" />
<path d="M 560.0 205.0 L 570.0 205.0" stroke="#FF0000" fill="none" stroke-width="4px" />
<path d="M 570.0 205.0 L 570.0 195.0" stroke="#FF0000" fill="none" stroke-width="4px" />
<path d="M 570.0 195.0 L 560.0 195.0" stroke="#FF0000" fill="none" stroke-width="4px" />
<path d="M 560.0 195.0 L 550.0 195.0" stroke="#FF0000" fill="none" stroke-width="4px" />
<path d="M 550.0 195.0 L 540.0 195.0" stroke="#FF0000" fill="none" stroke-width="4px" />
<path d="M 540.0 195.0 L 530.0 195.0" stroke="#FF0000" fill="none" stroke-width="4px" />
<path d="M 530.0 195.0 L 520.0 195.0" stroke="#FF0000" fill="none" stroke-width="4px" />
<path d="M 520.0 195.0 L 510.0 195.0" stroke="#FF0000" fill="none" stroke-width="4px" />
<path d="M 510.0 195.0 L 500.0 195.0" stroke="#FF0000" fill="none" stroke-width="4px" />
<path d="M 500.0 195.0 L 490.0 195.0" stroke="#FF0000" fill="none" stroke-width="4px" />
<path d="M 490.0 195.0 L 500.0 185.0" stroke="#FF0000" fill="none" stroke-width="4px" />
<path d="M 500.0 185.0 L 510.0 185.0" stroke="#FF0000" fill="none" stroke-width="4px" />
<path d="M 510.0 185.0 L 520.0 185.0" stroke="#FF0000" fill="none" stroke-width="4px" />
<path d="M 520.0 185.0 L 530.0 185.0" stroke="#FF0000" fill="none" stroke-width="4px" />
<path d="M 530.0 185.0 L 540.0 185.0" stroke="#FF0000" fill="none" stroke-width="4px" />
<path d="M 540.0 185.0 L 550.0 185.0" stroke="#FF0000" fill="none" stroke-width="4px" />
<path d="M 550.0 185.0 L 560.0 185.0" stroke="#FF0000" fill="none" stroke-width="4px" />
<path d="M 560.0 185.0 L 570.0 185.0" stroke="#FF0000" fill="none" stroke-width="4px" />
<path d="M 570.0 185.0 L 580.0 185.0" stroke="#FF0000" fill="none" stroke-width="4px" />
<path d="M 580.0 185.0 L 580.0 195.0" stroke="#FF0000" fill="none" stroke-width="4px" />
<path d="M 560.0 215.0 L 550.0 215.0" stroke="#FF0000" fill="none" stroke-width="4px" />
<path d="M 550.0 215.0 L 540.0 215.0" stroke="#FF0000" fill="none" stroke-width="4px" />
<path d="M 540.0 215.0 L 530.0 215.0" stroke="#FF0000" fill="none" stroke-width="4px" />
<path d="M 530.0 215.0 L 520.0 215.0" stroke="#FF0000" fill="none" stroke-width="4px" />
<path d="M 520.0 215.0 L 510.0 215.0" stroke="#FF0000" fill="none" stroke-width="4px" />
<path d="M 510.0 215.0 L 500.0 215.0" stroke="#FF0000" fill="none" stroke-width="4px" />
<path d="M 500.0 215.0 L 490.0 215.0" stroke="#FF0000" fill="none" stroke-width="4px" />
<path d="M 490.0 215.0 L 480.0 215.0" stroke="#FF0000" fill="none" stroke-width="4px" />
<path d="M 480.0 215.0 L 490.0 225.0" stroke="#FF0000" fill="none" stroke-width="4px" />
<path d="M 490.0 225.0 L 500.0 225.0" stroke="#FF0000" fill="none" stroke-width="4px" />
<path d="M 500.0 225.0 L 510.0 225.0" stroke="#FF0000" fill="none" stroke-width="4px" />
<path d="M 510.0 225.0 L 520.0 225.0" stroke="#FF0000" fill="none" stroke-width="4px" />
<path d="M 520.0 225.0 L 510.0 235.0" stroke="#FF0000" fill="none" stroke-width="4px" />
<path d="M 510.0 235.0 L 500.0 235.0" stroke="#FF0000" fill="none" stroke-width="4px" />
<path d="M 530.0 155.0 L 540.0 155.0" stroke="#FF0000" fill="none" stroke-width="4px" />
<path d="M 540.0 155.0 L 550.0 155.0" stroke="#FF0000" fill="none" stroke-width="4px" />
<path d="M 550.0 155.0 L 560.0 155.0" stroke="#FF0000" fill="none" stroke-width="4px" />
<path d="M 560.0 155.0 L 570.0 155.0" stroke="#FF0000" fill="none" stroke-width="4px" />
<path d="M 570.0 155.0 L 580.0 155.0" stroke="#FF0000" fill="none" stroke-width="4px" />
<path d="M 580.0 155.0 L 590.0 155.0" stroke="#FF0000" fill="none" stroke-width="4px" />
<path d="M 590.0 155.0 L 600.0 155.0" stroke="#FF0000" fill="none" stroke-width="4px" />
<path d="M 600.0 155.0 L 610.0 155.0" stroke="#FF0000" fill="none" stroke-width="4px" />
<path d="M 610.0 155.0 L 610.0 145.0" stroke="#FF0000" fill="none" stroke-width="4px" />
<path d="M 610.0 145.0 L 600.0 145.0" stroke="#FF0000" fill="none" stroke-width="4px" />
<path d="M 600.0 145.0 L 590.0 145.0" stroke="#FF0000" fill="none" stroke-width="4px" />
<path d="M 590.0 145.0 L 580.0 145.0" stroke="#FF0000" fill="none" stroke-width="4px" />
<path d="M 580.0 145.0 L 570.0 145.0" stroke="#FF0000" fill="none" stroke-width="4px" />
<path d="M 570.0 145.0 L 560.0 145.0" stroke="#FF0000" fill="none" stroke-width="4px" />
<path d="M 560.0 145.0 L 550.0 145.0" stroke="#FF0000" fill="none" stroke-width="4px" />
<path d="M 550.0 145.0 L 540.0 145.0" stroke="#FF0000" fill="none" stroke-width="4px" />
<path d="M 540.0 145.0 L 530.0 145.0" stroke="#FF0000" fill="none" stroke-width="4px" />
<path d="M 530.0 145.0 L 520.0 145.0" stroke="#FF0000" fill="none" stroke-width="4px" />
<path d="M 520.0 145.0 L 520.0 135.0" stroke="#FF0000" fill="none" stroke-width="4px" />
<path d="M 520.0 135.0 L 530.0 135.0" stroke="#FF0000" fill="none" stroke-width="4px" />
<path d="M 530.0 135.0 L 540.0 135.0" stroke="#FF0000" fill="none" stroke-width="4px" />
<path d="M 540.0 135.0 L 550.0 135.0" stroke="#FF0000" fill="none" stroke-width="4px" />
<path d="M 550.0 135.0 L 560.0 135.0" stroke="#FF0000" fill="none" stroke-width="4px" />
<path d="M 560.0 135.0 L 570.0 135.0" stroke="#FF0000" fill="none" stroke-width="4px" />
<path d="M 570.0 135.0 L 580.0 135.0" stroke="#FF0000" fill="none" stroke-width="4px" />
<path d="M 580.0 135.0 L 590.0 135.0" stroke="#FF0000" fill="none" stroke-width="4px" />
<path d="M 590.0 135.0 L 600.0 135.0" stroke="#FF0000" fill="none" stroke-width="4px" />
<path d="M 600.0 135.0 L 610.0 135.0" stroke="#FF0000" fill="none" stroke-width="4px" />
<path d="M 610.0 135.0 L 620.0 135.0" stroke="#FF0000" fill="none" stroke-width="4px" />
<path d="M 620.0 135.0 L 620.0 145.0" stroke="#FF0000" fill="none" stroke-width="4px" />
<path d="M 610.0 125.0 L 600.0 125.0" stroke="#FF0000" fill="none" stroke-width="4px" />
<path d="M 600.0 125.0 L 590.0 125.0" stroke="#FF0000" fill="none" stroke-width="4px" />
<path d="M 590.0 125.0 L 600.0 115.0" stroke="#FF0000" fill="none" stroke-width="4px" />
<path d="M 600.0 115.0 L 610.0 115.0" stroke="#FF0000" fill="none" stroke-width="4px" />
<path d="M 610.0 115.0 L 610.0 105.0" stroke="#FF0000" fill="none" stroke-width="4px" />
<path d="M 610.0 105.0 L 600.0 105.0" stroke="#FF0000" fill="none" stroke-width="4px" />
<path d="M 600.0 105.0 L 590.0 105.0" stroke="#FF0000" fill="none" stroke-width="4px" />
<path d="M 590.0 105.0 L 590.0 95.0" stroke="#FF0000" fill="none" stroke-width="4px" />
<path d="M 590.0 95.0 L 600.0 95.0" stroke="#FF0000" fill="none" stroke-width="4px" />
<path d="M 600.0 95.0 L 610.0 95.0" stroke="#FF0000" fill="none" stroke-width="4px" />
<path d="M 610.0 95.0 L 620.0 95.0" stroke="#FF0000" fill="none" stroke-width="4px" />
<path d="M 620.0 95.0 L 630.0 95.0" stroke="#FF0000" fill="none" stroke-width="4px" />
<path d="M 630.0 95.0 L 640.0 95.0" stroke="#FF0000" fill="none" stroke-width="4px" />
<path d="M 640.0 95.0 L 640.0 85.0" stroke="#FF0000" fill="none" stroke-width="4px" />
<path d="M 640.0 85.0 L 630.0 85.0" stroke="#FF0000" fill="none" stroke-width="4px" />
<path d="M 630.0 85.0 L 620.0 85.0" stroke="#FF0000" fill="none" stroke-width="4px" />
<path d="M 620.0 85.0 L 610.0 85.0" stroke="#FF0000" fill="none" stroke-width="4px" />
<path d="M 610.0 85.0 L 600.0 85.0" stroke="#FF0000" fill="none" stroke-width="4px" />
<path d="M 600.0 85.0 L 590.0 85.0" stroke="#FF0000" fill="none" stroke-width="4px" />
<path d="M 590.0 85.0 L 580.0 85.0" stroke="#FF0000" fill="none" stroke-width="4px" />
<path d="M 580.0 85.0 L 580.0 75.0" stroke="#FF0000" fill="none" stroke-width="4px" />
<path d="M 580.0 75.0 L 570.0 75.0" stroke="#FF0000" fill="none" stroke-width="4px" />
<path d="M 570.0 75.0 L 580.0 65.0" stroke="#FF0000" fill="none" stroke-width="4px" />
<path d="M 580.0 65.0 L 590.0 65.0" stroke="#FF0000" fill="none" stroke-width="4px" />
<path d="M 590.0 65.0 L 600.0 65.0" stroke="#FF0000" fill="none" stroke-width="4px" />
<path d="M 600.0 65.0 L 610.0 65.0" stroke="#FF0000" fill="none" stroke-width="4px" />
<path d="M 610.0 65.0 L 620.0 65.0" stroke="#FF0000" fill="none" stroke-width="4px" />
<path d="M 620.0 65.0 L 620.0 75.0" stroke="#FF0000" fill="none" stroke-width="4px" />
<path d="M 620.0 75.0 L 610.0 75.0" stroke="#FF0000" fill="none" stroke-width="4px" />
<path d="M 610.0 75.0 L 600.0 75.0" stroke="#FF0000" fill="none" stroke-width="4px" />
<path d="M 600.0 75.0 L 590.0 75.0" stroke="#FF0000" fill="none" stroke-width="4px" />
<path d="M 630.0 105.0 L 620.0 105.0" stroke="#FF0000" fill="none" stroke-width="4px" />
<path d="M 570.0 125.0 L 560.0 125.0" stroke="#FF0000" fill="none" stroke-width="4px" />
<path d="M 560.0 125.0 L 550.0 125.0" stroke="#FF0000" fill="none" stroke-width="4px" />
<path d="M 550.0 125.0 L 540.0 125.0" stroke="#FF0000" fill="none" stroke-width="4px" />
<path d="M 540.0 125.0 L 530.0 125.0" stroke="#FF0000" fill="none" stroke-width="4px" />
<path d="M 530.0 125.0 L 540.0 115.0" stroke="#FF0000" fill="none" stroke-width="4px" />
<path d="M 540.0 115.0 L 550.0 115.0" stroke="#FF0000" fill="none" stroke-width="4px" />
<path d="M 550.0 115.0 L 560.0 115.0" stroke="#FF0000" fill="none" stroke-width="4px" />
<path d="M 710.0 105.0 L 720.0 105.0" stroke="#FF0000" fill="none" stroke-width="4px" />
<path d="M 720.0 105.0 L 730.0 105.0" stroke="#FF0000" fill="none" stroke-width="4px" />
<path d="M 730.0 105.0 L 740.0 105.0" stroke="#FF0000" fill="none" stroke-width="4px" />
<path d="M 740.0 105.0 L 750.0 105.0" stroke="#FF0000" fill="none" stroke-width="4px" />
<path d="M 750.0 105.0 L 760.0 105.0" stroke="#FF0000" fill="none" stroke-width="4px" />
<path d="M 760.0 105.0 L 770.0 105.0" stroke="#FF0000" fill="none" stroke-width="4px" />
<path d="M 770.0 105.0 L 770.0 95.0" stroke="#FF0000" fill="none" stroke-width="4px" />
<path d="M 770.0 95.0 L 760.0 95.0" stroke="#FF0000" fill="none" stroke-width="4px" />
<path d="M 760.0 95.0 L 750.0 95.0" stroke="#FF0000" fill="none" stroke-width="4px" />
<path d="M 750.0 95.0 L 740.0 95.0" stroke="#FF0000" fill="none" stroke-width="4px" />
<path d="M 740.0 95.0 L 730.0 95.0" stroke="#FF0000" fill="none" stroke-width="4px" />
<path d="M 730.0 95.0 L 720.0 95.0" stroke="#FF0000" fill="none" stroke-width="4px" />
<path d="M 720.0 95.0 L 710.0 95.0" stroke="#FF0000" fill="none" stroke-width="4px" />
<path d="M 710.0 95.0 L 710.0 85.0" stroke="#FF0000" fill="none" stroke-width="4px" />
<path d="M 710.0 85.0 L 720.0 85.0" stroke="#FF0000" fill="none" stroke-width="4px" />
<path d="M 720.0 85.0 L 730.0 85.0" stroke="#FF0000" fill="none" stroke-width="4px" />
<path d="M 730.0 85.0 L 740.0 85.0" stroke="#FF0000" fill="none" stroke-width="4px" />
<path d="M 740.0 85.0 L 750.0 85.0" stroke="#FF0000" fill="none" stroke-width="4px" />
<path d="M 750.0 85.0 L 760.0 85.0" stroke="#FF0000" fill="none" stroke-width="4px" />
<path d="M 760.0 85.0 L 770.0 85.0" stroke="#FF0000" fill="none" stroke-width="4px" />
<path d="M 770.0 85.0 L 780.0 85.0" stroke="#FF0000" fill="none" stroke-width="4px" />
<path d="M 780.0 85.0 L 780.0 95.0" stroke="#FF0000" fill="none" stroke-width="4px" />
<path d="M 770.0 75.0 L 760.0 75.0" stroke="#FF0000" fill="none" stroke-width="4px" />
<path d="M 760.0 75.0 L 750.0 75.0" stroke="#FF0000" fill="none" stroke-width="4px" />
<path d="M 750.0 75.0 L 740.0 75.0" stroke="#FF0000" fill="none" stroke-width="4px" />
<path d="M 740.0 75.0 L 730.0 75.0" stroke="#FF0000" fill="none" stroke-width="4px" />
<path d="M 730.0 75.0 L 720.0 75.0" stroke="#FF0000" fill="none" stroke-width="4px" />
<path d="M 720.0 75.0 L 710.0 75.0" stroke="#FF0000" fill="none" stroke-width="4px" />
<path d="M 710.0 75.0 L 720.0 65.0" stroke="#FF0000" fill="none" stroke-width="4px" />
<path d="M 720.0 65.0 L 730.0 65.0" stroke="#FF0000" fill="none" stroke-width="4px" />
<path d="M 730.0 65.0 L 740.0 65.0" stroke="#FF0000" fill="none" stroke-width="4px" />
<path d="M 740.0 65.0 L 750.0 65.0" stroke="#FF0000" fill="none" stroke-width="4px" />
<path d="M 750.0 65.0 L 760.0 65.0" stroke="#FF0000" fill="none" stroke-width="4px" />
<path d="M 760.0 115.0 L 750.0 115.0" stroke="#FF0000" fill="none" stroke-width="4px" />
<path d="M 750.0 115.0 L 740.0 115.0" stroke="#FF0000" fill="none" stroke-width="4px" />
<path d="M 740.0 115.0 L 730.0 115.0" stroke="#FF0000" fill="none" stroke-width="4px" />
<path d="M 730.0 115.0 L 720.0 115.0" stroke="#FF0000" fill="none" stroke-width="4px" />
<path d="M 1350.0 135.0 L 1360.0 135.0" stroke="#FF0000" fill="none" stroke-width="4px" />
<path d="M 1360.0 135.0 L 1370.0 135.0" stroke="#FF0000" fill="none" stroke-width="4px" />
<path d="M 1370.0 135.0 L 1380.0 135.0" stroke="#FF0000" fill="none" stroke-width="4px" />
<path d="M 1380.0 135.0 L 1390.0 135.0" stroke="#FF0000" fill="none" stroke-width="4px" />
<path d="M 1390.0 135.0 L 1400.0 135.0" stroke="#FF0000" fill="none" stroke-width="4px" />
<path d="M 1400.0 135.0 L 1410.0 135.0" stroke="#FF0000" fill="none" stroke-width="4px" />
<path d="M 1410.0 135.0 L 1420.0 135.0" stroke="#FF0000" fill="none" stroke-width="4px" />
<path d="M 1420.0 135.0 L 1430.0 135.0" stroke="#FF0000" fill="none" stroke-width="4px" />
<path d="M 1430.0 135.0 L 1440.0 135.0" stroke="#FF0000" fill="none" stroke-width="4px" />
<path d="M 1440.0 135.0 L 1440.0 125.0" stroke="#FF0000" fill="none" stroke-width="4px" />
<path d="M 1440.0 125.0 L 1430.0 125.0" stroke="#FF0000" fill="none" stroke-width="4px" />
<path d="M 1430.0 125.0 L 1420.0 125.0" stroke="#FF0000" fill="none" stroke-width="4px" />
<path d="M 1420.0 125.0 L 1410.0 125.0" stroke="#FF0000" fill="none" stroke-width="4px" />
<path d="M 1410.0 125.0 L 1400.0 125.0" stroke="#FF0000" fill="none" stroke-width="4px" />
<path d="M 1400.0 125.0 L 1390.0 125.0" stroke="#FF0000" fill="none" stroke-width="4px" />
<path d="M 1390.0 125.0 L 1380.0 125.0" stroke="#FF0000" fill="none" stroke-width="4px" />
<path d="M 1380.0 125.0 L 1370.0 125.0" stroke="#FF0000" fill="none" stroke-width="4px" />
<path d="M 1370.0 125.0 L 1360.0 125.0" stroke="#FF0000" fill="none" stroke-width="4px" />
<path d="M 1360.0 125.0 L 1370.0 115.0" stroke="#FF0000" fill="none" stroke-width="4px" />
<path d="M 1370.0 115.0 L 1380.0 115.0" stroke="#FF0000" fill="none" stroke-width="4px" />
<path d="M 1380.0 115.0 L 1390.0 115.0" stroke="#FF0000" fill="none" stroke-width="4px" />
<path d="M 1390.0 115.0 L 1400.0 115.0" stroke="#FF0000" fill="none" stroke-width="4px" />
<path d="M 1400.0 115.0 L 1410.0 115.0" stroke="#FF0000" fill="none" stroke-width="4px" />
<path d="M 1410.0 115.0 L 1420.0 115.0" stroke="#FF0000" fill="none" stroke-width="4px" />
<path d="M 1420.0 115.0 L 1430.0 115.0" stroke="#FF0000" fill="none" stroke-width="4px" />
<path d="M 1430.0 115.0 L 1440.0 115.0" stroke="#FF0000" fill="none" stroke-width="4px" />
<path d="M 1440.0 115.0 L 1450.0 115.0" stroke="#FF0000" fill="none" stroke-width="4px" />
<path d="M 1450.0 115.0 L 1460.0 115.0" stroke="#FF0000" fill="none" stroke-width="4px" />
<path d="M 1460.0 115.0 L 1460.0 105.0" stroke="#FF0000" fill="none" stroke-width="4px" />
<path d="M 1460.0 105.0 L 1450.0 105.0" stroke="#FF0000" fill="none" stroke-width="4px" />
<path d="M 1450.0 105.0 L 1440.0 105.0" stroke="#FF0000" fill="none" stroke-width="4px" />
<path d="M 1440.0 105.0 L 1430.0 105.0" stroke="#FF0000" fill="none" stroke-width="4px" />
<path d="M 1430.0 105.0 L 1420.0 105.0" stroke="#FF0000" fill="none" stroke-width="4px" />
<path d="M 1420.0 105.0 L 1410.0 105.0" stroke="#FF0000" fill="none" stroke-width="4px" />
<path d="M 1410.0 105.0 L 1400.0 105.0" stroke="#FF0000" fill="none" stroke-width="4px" />
<path d="M 1400.0 105.0 L 1390.0 105.0" stroke="#FF0000" fill="none" stroke-width="4px" />
<path d="M 1390.0 105.0 L 1380.0 105.0" stroke="#FF0000" fill="none" stroke-width="4px" />
<path d="M 1410.0 95.0 L 1420.0 95.0" stroke="#FF0000" fill="none" stroke-width="4px" />
<path d="M 1420.0 95.0 L 1430.0 95.0" stroke="#FF0000" fill="none" stroke-width="4px" />
<path d="M 1430.0 95.0 L 1440.0 95.0" stroke="#FF0000" fill="none" stroke-width="4px" />
<path d="M 1440.0 95.0 L 1450.0 95.0" stroke="#FF0000" fill="none" stroke-width="4px" />
<path d="M 1450.0 95.0 L 1460.0 95.0" stroke="#FF0000" fill="none" stroke-width="4px" />
<path d="M 1460.0 95.0 L 1450.0 85.0" stroke="#FF0000" fill="none" stroke-width="4px" />
<path d="M 1450.0 85.0 L 1440.0 85.0" stroke="#FF0000" fill="none" stroke-width="4px" />
<path d="M 1440.0 85.0 L 1430.0 85.0" stroke="#FF0000" fill="none" stroke-width="4px" />
<path d="M 1430.0 85.0 L 1420.0 85.0" stroke="#FF0000" fill="none" stroke-width="4px" />
<path d="M 1420.0 145.0 L 1410.0 145.0" stroke="#FF0000" fill="none" stroke-width="4px" />
<path d="M 1410.0 145.0 L 1400.0 145.0" stroke="#FF0000" fill="none" stroke-width="4px" />
<path d="M 1400.0 145.0 L 1390.0 145.0" stroke="#FF0000" fill="none" stroke-width="4px" />
<path d="M 1390.0 145.0 L 1380.0 145.0" stroke="#FF0000" fill="none" stroke-width="4px" />
<path d="M 1380.0 145.0 L 1370.0 145.0" stroke="#FF0000" fill="none" stroke-width="4px" />
<path d="M 1370.0 145.0 L 1360.0 145.0" stroke="#FF0000" fill="none" stroke-width="4px" />
<path d="M 1360.0 145.0 L 1350.0 145.0" stroke="#FF0000" fill="none" stroke-width="4px" />
<path d="M 1350.0 145.0 L 1350.0 155.0" stroke="#FF0000" fill="none" stroke-width="4px" />
<path d="M 1350.0 155.0 L 1360.0 155.0" stroke="#FF0000" fill="none" stroke-width="4px" />
<path d="M 1360.0 155.0 L 1370.0 155.0" stroke="#FF0000" fill="none" stroke-width="4px" />
<path d="M 1370.0 155.0 L 1380.0 155.0" stroke="#FF0000" fill="none" stroke-width="4px" />
<path d="M 1380.0 155.0 L 1390.0 155.0" stroke="#FF0000" fill="none" stroke-width="4px" />
<path d="M 1390.0 155.0 L 1400.0 155.0" stroke="#FF0000" fill="none" stroke-width="4px" />
<path d="M 1400.0 155.0 L 1410.0 155.0" stroke="#FF0000" fill="none" stroke-width="4px" />
<path d="M 1410.0 155.0 L 1420.0 155.0" stroke="#FF0000" fill="none" stroke-width="4px" />
<path d="M 1420.0 155.0 L 1410.0 165.0" stroke="#FF0000" fill="none" stroke-width="4px" />
<path d="M 1410.0 165.0 L 1400.0 165.0" stroke="#FF0000" fill="none" stroke-width="4px" />
<path d="M 1400.0 165.0 L 1390.0 165.0" stroke="#FF0000" fill="none" stroke-width="4px" />
<path d="M 1390.0 165.0 L 1380.0 165.0" stroke="#FF0000" fill="none" stroke-width="4px" />
<path d="M 1380.0 165.0 L 1370.0 165.0" stroke="#FF0000" fill="none" stroke-width="4px" />
<path d="M 1370.0 165.0 L 1360.0 165.0" stroke="#FF0000" fill="none" stroke-width="4px" />
<path d="M 1360.0 165.0 L 1350.0 165.0" stroke="#FF0000" fill="none" stroke-width="4px" />
<path d="M 1350.0 165.0 L 1350.0 175.0" stroke="#FF0000" fill="none" stroke-width="4px" />
<path d="M 1350.0 175.0 L 1360.0 175.0" stroke="#FF0000" fill="none" stroke-width="4px" />
<path d="M 1360.0 175.0 L 1370.0 175.0" stroke="#FF0000" fill="none" stroke-width="4px" />
<path d="M 1370.0 175.0 L 1380.0 175.0" stroke="#FF0000" fill="none" stroke-width="4px" />
<path d="M 1380.0 175.0 L 1390.0 175.0" stroke="#FF0000" fill="none" stroke-width="4px" />
<path d="M 1390.0 175.0 L 1400.0 175.0" stroke="#FF0000" fill="none" stroke-width="4px" />
<path d="M 1400.0 175.0 L 1410.0 175.0" stroke="#FF0000" fill="none" stroke-width="4px" />
<path d="M 1410.0 175.0 L 1400.0 185.0" stroke="#FF0000" fill="none" stroke-width="4px" />
<path d="M 1400.0 185.0 L 1390.0 185.0" stroke="#FF0000" fill="none" stroke-width="4px" />
<path d="M 1390.0 185.0 L 1380.0 185.0" stroke="#FF0000" fill="none" stroke-width="4px" />
<path d="M 1380.0 185.0 L 1370.0 185.0" stroke="#FF0000" fill="none" stroke-width="4px" />
<path d="M 1370.0 185.0 L 1360.0 185.0" stroke="#FF0000" fill="none" stroke-width="4px" />
<path d="M 1360.0 185.0 L 1370.0 195.0" stroke="#FF0000" fill="none" stroke-width="4px" />
<path d="M 1370.0 195.0 L 1380.0 195.0" stroke="#FF0000" fill="none" stroke-width="4px" />
<path d="M 1380.0 195.0 L 1390.0 195.0" stroke="#FF0000" fill="none" stroke-width="4px" />
</svg>