<svg width="1755.23333333" height="235.0" xmlns="http://www.w3.org/2000/svg" version="1.1">
<path d="M 0.0 235.0 L 1755.23333333 235.0 L 1755.23333333 0.0 L 0.0 0.0 L 0.0 235.0" stroke="#000000" fill="none" stroke-width="3px" />
<path d="M 10.0 257.5 L 0.0 247.5 L 10.0 237.5" stroke="#969696" fill="none" stroke-width="1px" />
<path d="M 10.0 237.5 L 1745.23333333 237.5" stroke="#969696" fill="none" stroke-width="1px" />
<path d="M 1745.23333333 237.5 L 1755.23333333 227.5 L 1745.23333333 217.5" stroke="#969696" fill="none" stroke-width="1px" />
<path d="M 1745.23333333 217.5 L 10.0 217.5" stroke="#969696" fill="none" stroke-width="1px" />
<path d="M 10.0 217.5 L 0.0 207.5 L 10.0 197.5" stroke="#969696" fill="none" stroke-width="1px" />
<path d="M 10.0 197.5 L 1745.23333333 197.5" stroke="#969696" fill="none" stroke-width="1px" />
<path d="M 1745.23333333 197.5 L 1755.23333333 187.5 L 1745.23333333 177.5" stroke="#969696" fill="none" stroke-width="1px" />
<path d="M 1745.23333333 177.5 L 10.0 177.5" stroke="#969696" fill="none" stroke-width="1px" />
<path d="M 10.0 177.5 L 0.0 167.5 L 10.0 157.5" stroke="#969696" fill="none" stroke-width="1px" />
<path d="M 10.0 157.5 L 1745.23333333 157.5" stroke="#969696" fill="none" stroke-width="1px" />
<path d="M 1745.23333333 157.5 L 1755.23333333 147.5 L 1745.23333333 137.5" stroke="#969696" fill="none" stroke-width="1px" />
<path d="M 1745.23333333 137.5 L 10.0 137.5" stroke="#969696" fill="none" stroke-width="1px" />
<path d="M 10.0 137.5 L 0.0 127.5 L 10.0 117.5" stroke="#969696" fill="none" stroke-width="1px" />
<path d="M 10.0 117.5 L 1745.23333333 117.5" stroke="#969696" fill="none" stroke-width="1px" />
<path d="M 1745.23333333 117.5 L 1755.23333333 107.5 L 1745.23333333 97.5" stroke="#969696" fill="none" stroke-width="1px" />
<path d="M 1745.23333333 97.5 L 10.0 97.5" stroke="#969696" fill="none" stroke-width="1px" />
<path d="M 10.0 97.5 L 0.0 87.5 L 10.0 77.5" stroke="#969696" fill="none" stroke-width="1px" />
<path d="M 10.0 77.5 L 1745.23333333 77.5" stroke="#969696" fill="none" stroke-width="1px" />
<path d="M 1745.23333333 77.5 L 1755.23333333 67.5 L 1745.23333333 57.5" stroke="#969696" fill="none" stroke-width="1px" />
<path d="M 1745.23333333 57.5 L 10.0 57.5" stroke="#969696" fill="none" stroke-width="1px" />
<path d="M 10.0 57.5 L 0.0 47.5 L 10.0 37.5" stroke="#969696" fill="none" stroke-width="1px" />
<path d="M 10.0 37.5 L 1745.23333333 37.5" stroke="#969696" fill="none" stroke-width="1px" />
<path d="M 1745.23333333 37.5 L 1755.23333333 27.5 L 1745.23333333 17.5" stroke="#969696" fill="none" stroke-width="1px" />
<path d="M 1745.23333333 17.5 L 10.0 17.5" stroke="#969696" fill="none" stroke-width="1px" />
<path d="M 10.0 17.5 L 0.0 7.5 L 10.0 -2.5" stroke="#969696" fill="none" stroke-width="1px" />
<path d="M 10.0 -2.5 L 1745.23333333 -2.5" stroke="#969696" fill="none" stroke-width="1px" />
<path d="M 1745.23333333 -2.5 L 1755.23333333 -12.5 L 1745.23333333 -22.5" stroke="#969696" fill="none" stroke-width="1px" />
<path d="M 0.0 235.0 L 10.0 135.0" stroke="#0095FF" fill="none" stroke-width="2px" />
<path d="M 10.0 75.0 L 40.0 65.0" stroke="#0095FF" fill="none" stroke-width="2px" />
<path d="M 40.0 65.0 L 20.0 45.0" stroke="#0095FF" fill="none" stroke-width="2px" />
<path d="M 40.0 25.0 L 30.0 5.0" stroke="#0095FF" fill="none" stroke-width="2px" />
<path d="M 20.0 -5.0 L 130.0 55.0" stroke="#0095FF" fill="none" stroke-width="2px" />
<path d="M 140.0 105.0 L 170.0 65.0" stroke="#0095FF" fill="none" stroke-width="2px" />
<path d="M 170.0 65.0 L 150.0 45.0" stroke="#0095FF" fill="none" stroke-width="2px" />
<path d="M 150.0 45.0 L 50.0 115.0" stroke="#0095FF" fill="none" stroke-width="2px" />
<path d="M 30.0 115.0 L 410.0 115.0" stroke="#0095FF" fill="none" stroke-width="2px" />
<path d="M 430.0 165.0 L 430.0 105.0" stroke="#0095FF" fill="none" stroke-width="2px" />
<path d="M 440.0 105.0 L 440.0 85.0" stroke="#0095FF" fill="none" stroke-width="2px" />
<path d="M 460.0 85.0 L 480.0 105.0" stroke="#0095FF" fill="none" stroke-width="2px" />
<path d="M 480.0 105.0 L 480.0 55.0" stroke="#0095FF" fill="none" stroke-width="2px" />
<path d="M 450.0 5.0 L 460.0 35.0" stroke="#0095FF" fill="none" stroke-width="2px" />
<path d="M 470.0 45.0 L 500.0 5.0" stroke="#0095FF" fill="none" stroke-width="2px" />
<path d="M 500.0 5.0 L 570.0 75.0" stroke="#0095FF" fill="none" stroke-width="2px" />
<path d="M 570.0 95.0 L 590.0 85.0" stroke="#0095FF" fill="none" stroke-width="2px" />
<path d="M 590.0 85.0 L 620.0 105.0" stroke="#0095FF" fill="none" stroke-width="2px" />
<path d="M 630.0 165.0 L 630.0 125.0" stroke="#0095FF" fill="none" stroke-width="2px" />
<path d="M 650.0 115.0 L 580.0 115.0" stroke="#0095FF" fill="none" stroke-width="2px" />
<path d="M 570.0 115.0 L 970.0 85.0" stroke="#0095FF" fill="none" stroke-width="2px" />
<path d="M 1000.0 105.0 L 1000.0 75.0" stroke="#0095FF" fill="none" stroke-width="2px" />
<path d="M 1010.0 75.0 L 1000.0 55.0" stroke="#0095FF" fill="none" stroke-width="2px" />
<path d="M 1000.0 45.0 L 1000.0 15.0" stroke="#0095FF" fill="none" stroke-width="2px" />
<path d="M 1010.0 15.0 L 1010.0 -5.0" stroke="#0095FF" fill="none" stroke-width="2px" />
<path d="M 960.0 -5.0 L 1110.0 115.0" stroke="#0095FF" fill="none" stroke-width="2px" />
<path d="M 1120.0 165.0 L 1140.0 125.0" stroke="#0095FF" fill="none" stroke-width="2px" />
<path d="M 1140.0 125.0 L 1210.0 145.0" stroke="#0095FF" fill="none" stroke-width="2px" />
<path d="M 1230.0 165.0 L 1230.0 135.0" stroke="#0095FF" fill="none" stroke-width="2px" />
<path d="M 1240.0 135.0 L 1320.0 115.0" stroke="#0095FF" fill="none" stroke-width="2px" />
<path d="M 1370.0 105.0 L 1350.0 125.0" stroke="#0095FF" fill="none" stroke-width="2px" />
<path d="M 1340.0 135.0 L 1340.0 85.0" stroke="#0095FF" fill="none" stroke-width="2px" />
<path d="M 1350.0 85.0 L 1610.0 175.0" stroke="#0095FF" fill="none" stroke-width="2px" />
<path d="M 1630.0 225.0 L 1630.0 165.0" stroke="#0095FF" fill="none" stroke-width="2px" />
<path d="M 10.0 135.0 L 10.0 125.0" stroke="#FF0000" fill="none" stroke-width="4px" />
<path d="M 10.0 125.0 L 20.0 125.0" stroke="#FF0000" fill="none" stroke-width="4px" />
<path d="M 20.0 125.0 L 20.0 115.0" stroke="#FF0000" fill="none" stroke-width="4px" />
<path d="M 20.0 115.0 L 10.0 115.0" stroke="#FF0000" fill="none" stroke-width="4px" />
<path d="M 10.0 115.0 L 10.0 105.0" stroke="#FF0000" fill="none" stroke-width="4px" />
<path d="M 10.0 105.0 L 20.0 105.0" stroke="#FF0000" fill="none" stroke-width="4px" />
<path d="M 20.0 105.0 L 30.0 105.0" stroke="#FF0000" fill="none" stroke-width="4px" />
<path d="M 30.0 105.0 L 40.0 105.0" stroke="#FF0000" fill="none" stroke-width="4px" />
<path d="M 40.0 105.0 L 50.0 105.0" stroke="#FF0000" fill="none" stroke-width="4px" />
<path d="M 50.0 105.0 L 60.0 105.0" stroke="#FF0000" fill="none" stroke-width="4px" />
<path d="M 60.0 105.0 L 60.0 95.0" stroke="#FF0000" fill="none" stroke-width="4px" />
<path d="M 60.0 95.0 L 50.0 95.0" stroke="#FF0000" fill="none" stroke-width="4px" />
<path d="M 50.0 95.0 L 40.0 95.0" stroke="#FF0000" fill="none" stroke-width="4px" />
<path d="M 40.0 95.0 L 30.0 95.0" stroke="#FF0000" fill="none" stroke-width="4px" />
<path d="M 30.0 95.0 L 20.0 95.0" stroke="#FF0000" fill="none" stroke-width="4px" />
<path d="M 20.0 95.0 L 10.0 95.0" stroke="#FF0000" fill="none" stroke-width="4px" />
<path d="M 10.0 95.0 L 10.0 85.0" stroke="#FF0000" fill="none" stroke-width="4px" />
<path d="M 10.0 85.0 L 20.0 85.0" stroke="#FF0000" fill="none" stroke-width="4px" />
<path d="M 20.0 85.0 L 30.0 85.0" stroke="#FF0000" fill="none" stroke-width="4px" />
<path d="M 30.0 85.0 L 40.0 85.0" stroke="#FF0000" fill="none" stroke-width="4px" />
<path d="M 40.0 85.0 L 50.0 85.0" stroke="#FF0000" fill="none" stroke-width="4px" />
<path d="M 50.0 85.0 L 60.0 85.0" stroke="#FF0000" fill="none" stroke-width="4px" />
<path d="M 60.0 85.0 L 50.0 75.0" stroke="#FF0000" fill="none" stroke-width="4px" />
<path d="M 50.0 75.0 L 40.0 75.0" stroke="#FF0000" fill="none" stroke-width="4px" />
<path d="M 40.0 75.0 L 30.0 75.0" stroke="#FF0000" fill="none" stroke-width="4px" />
<path d="M 30.0 75.0 L 20.0 75.0" stroke="#FF0000" fill="none" stroke-width="4px" />
<path d="M 20.0 75.0 L 10.0 75.0" stroke="#FF0000" fill="none" stroke-width="4px" />
<path d="M 20.0 45.0 L 10.0 45.0" stroke="#FF0000" fill="none" stroke-width="4px" />
<path d="M 10.0 45.0 L 10.0 35.0" stroke="#FF0000" fill="none" stroke-width="4px" />
<path d="M 10.0 35.0 L 20.0 35.0" stroke="#FF0000" fill="none" stroke-width="4px" />
<path d="M 20.0 35.0 L 30.0 35.0" stroke="#FF0000" fill="none" stroke-width="4px" />
<path d="M 30.0 35.0 L 30.0 25.0" stroke="#FF0000" fill="none" stroke-width="4px" />
<path d="M 30.0 25.0 L 20.0 25.0" stroke="#FF0000" fill="none" stroke-width="4px" />
<path d="M 20.0 25.0 L 10.0 25.0" stroke="#FF0000" fill="none" stroke-width="4px" />
<path d="M 10.0 25.0 L 10.0 15.0" stroke="#FF0000" fill="none" stroke-width="4px" />
<path d="M 10.0 15.0 L 20.0 15.0" stroke="#FF0000" fill="none" stroke-width="4px" />
<path d="M 20.0 15.0 L 30.0 15.0" stroke="#FF0000" fill="none" stroke-width="4px" />
<path d="M 30.0 15.0 L 40.0 15.0" stroke="#FF0000" fill="none" stroke-width="4px" />
<path d="M 40.0 15.0 L 40.0 25.0" stroke="#FF0000" fill="none" stroke-width="4px" />
<path d="M 30.0 5.0 L 20.0 5.0" stroke="#FF0000" fill="none" stroke-width="4px" />
<path d="M 20.0 5.0 L 10.0 5.0" stroke="#FF0000" fill="none" stroke-width="4px" />
<path d="M 10.0 5.0 L 10.0 -5.0" stroke="#FF0000" fill="none" stroke-width="4px" />
<path d="M 10.0 -5.0 L 20.0 -5.0" stroke="#FF0000" fill="none" stroke-width="4px" />
<path d="M 130.0 55.0 L 140.0 55.0" stroke="#FF0000" fill="none" stroke-width="4px" />
<path d="M 140.0 55.0 L 150.0 55.0" stroke="#FF0000" fill="none" stroke-width="4px" />
<path d="M 150.0 55.0 L 160.0 55.0" stroke="#FF0000" fill="none" stroke-width="4px" />
<path d="M 160.0 55.0 L 160.0 65.0" stroke="#FF0000" fill="none" stroke-width="4px" />
<path d="M 160.0 65.0 L 150.0 65.0" stroke="#FF0000" fill="none" stroke-width="4px" />
<path d="M 150.0 65.0 L 140.0 65.0" stroke="#FF0000" fill="none" stroke-width="4px" />
<path d="M 140.0 65.0 L 130.0 65.0" stroke="#FF0000" fill="none" stroke-width="4px" />
<path d="M 130.0 65.0 L 120.0 65.0" stroke="#FF0000" fill="none" stroke-width="4px" />
<path d="M 120.0 65.0 L 120.0 75.0" stroke="#FF0000" fill="none" stroke-width="4px" />
<path d="M 120.0 75.0 L 130.0 75.0" stroke="#FF0000" fill="none" stroke-width="4px" />
<path d="M 130.0 75.0 L 140.0 75.0" stroke="#FF0000" fill="none" stroke-width="4px" />
<path d="M 140.0 75.0 L 150.0 75.0" stroke="#FF0000" fill="none" stroke-width="4px" />
<path d="M 150.0 75.0 L 160.0 75.0" stroke="#FF0000" fill="none" stroke-width="4px" />
<path d="M 160.0 75.0 L 170.0 75.0" stroke="#FF0000" fill="none" stroke-width="4px" />
<path d="M 170.0 75.0 L 180.0 75.0" stroke="#FF0000" fill="none" stroke-width="4px" />
<path d="M 180.0 75.0 L 180.0 85.0" stroke="#FF0000" fill="none" stroke-width="4px" />
<path d="M 180.0 85.0 L 170.0 85.0" stroke="#FF0000" fill="none" stroke-width="4px" />
<path d="M 170.0 85.0 L 160.0 85.0" stroke="#FF0000" fill="none" stroke-width="4px" />
<path d="M 160.0 85.0 L 150.0 85.0" stroke="#FF0000" fill="none" stroke-width="4px" />
<path d="M 150.0 85.0 L 140.0 85.0" stroke="#FF0000" fill="none" stroke-width="4px" />
<path d="M 140.0 85.0 L 130.0 85.0" stroke="#FF0000" fill="none" stroke-width="4px" />
<path d="M 130.0 85.0 L 120.0 85.0" stroke="#FF0000" fill="none" stroke-width="4px" />
<path d="M 120.0 85.0 L 130.0 95.0" stroke="#FF0000" fill="none" stroke-width="4px" />
<path d="M 130.0 95.0 L 140.0 95.0" stroke="#FF0000" fill="none" stroke-width="4px" />
<path d="M 140.0 95.0 L 150.0 95.0" stroke="#FF0000" fill="none" stroke-width="4px" />
<path d="M 150.0 95.0 L 160.0 95.0" stroke="#FF0000" fill="none" stroke-width="4px" />
<path d="M 160.0 95.0 L 170.0 95.0" stroke="#FF0000" fill="none" stroke-width="4px" />
<path d="M 170.0 95.0 L 160.0 105.0" stroke="#FF0000" fill="none" stroke-width="4px" />
<path d="M 160.0 105.0 L 150.0 105.0" stroke="#FF0000" fill="none" stroke-width="4px" />
<path d="M 150.0 105.0 L 140.0 105.0" stroke="#FF0000" fill="none" stroke-width="4px" />
<path d="M 50.0 115.0 L 40.0 115.0" stroke="#FF0000" fill="none" stroke-width="4px" />
<path d="M 40.0 115.0 L 30.0 115.0" stroke="#FF0000" fill="none" stroke-width="4px" />
<path d="M 410.0 115.0 L 420.0 115.0" stroke="#FF0000" fill="none" stroke-width="4px" />
<path d="M 420.0 115.0 L 430.0 115.0" stroke="#FF0000" fill="none" stroke-width="4px" />
<path d="M 430.0 115.0 L 440.0 115.0" stroke="#FF0000" fill="none" stroke-width="4px" />
<path d="M 440.0 115.0 L 450.0 115.0" stroke="#FF0000" fill="none" stroke-width="4px" />
<path d="M 450.0 115.0 L 460.0 115.0" stroke="#FF0000" fill="none" stroke-width="4px" />
<path d="M 460.0 115.0 L 470.0 115.0" stroke="#FF0000" fill="none" stroke-width="4px" />
<path d="M 470.0 115.0 L 480.0 115.0" stroke="#FF0000" fill="none" stroke-width="4px" />
<path d="M 480.0 115.0 L 480.0 125.0" stroke="#FF0000" fill="none" stroke-width="4px" />
<path d="M 480.0 125.0 L 470.0 125.0" stroke="#FF0000" fill="none" stroke-width="4px" />
<path d="M 470.0 125.0 L 460.0 125.0" stroke="#FF0000" fill="none" stroke-width="4px" />
<path d="M 460.0 125.0 L 450.0 125.0" stroke="#FF0000" fill="none" stroke-width="4px" />
<path d="M 450.0 125.0 L 440.0 125.0" stroke="#FF0000" fill="none" stroke-width="4px" />
<path d="M 440.0 125.0 L 430.0 125.0" stroke="#FF0000" fill="none" stroke-width="4px" />
<path d="M 430.0 125.0 L 420.0 125.0" stroke="#FF0000" fill="none" stroke-width="4px" />
<path d="M 420.0 125.0 L 410.0 125.0" stroke="#FF0000" fill="none" stroke-width="4px" />
<path d="M 410.0 125.0 L 410.0 135.0" stroke="#FF0000" fill="none" stroke-width="4px" />
<path d="M 410.0 135.0 L 420.0 135.0" stroke="#FF0000" fill="none" stroke-width="4px" />
<path d="M 420.0 135.0 L 430.0 135.0" stroke="#FF0000" fill="none" stroke-width="4px" />
<path d="M 430.0 135.0 L 440.0 135.0" stroke="#FF0000" fill="none" stroke-width="4px" />
<path d="M 440.0 135.0 L 450.0 135.0" stroke="#FF0000" fill="none" stroke-width="4px" />
<path d="M 450.0 135.0 L 460.0 135.0" stroke="#FF0000" fill="none" stroke-width="4px" />
<path d="M 460.0 135.0 L 470.0 135.0" stroke="#FF0000" fill="none" stroke-width="4px" />
<path d="M 470.0 135.0 L 480.0 135.0" stroke="#FF0000" fill="none" stroke-width="4px" />
<path d="M 480.0 135.0 L 470.0 145.0" stroke="#FF0000" fill="none" stroke-width="4px" />
<path d="M 470.0 145.0 L 460.0 145.0" stroke="#FF0000" fill="none" stroke-width="4px" />
<path d="M 460.0 145.0 L 450.0 145.0" stroke="#FF0000" fill="none" stroke-width="4px" />
<path d="M 450.0 145.0 L 440.0 145.0" stroke="#FF0000" fill="none" stroke-width="4px" />
<path d="M 440.0 145.0 L 430.0 145.0" stroke="#FF0000" fill="none" stroke-width="4px" />
<path d="M 430.0 145.0 L 420.0 145.0" stroke="#FF0000" fill="none" stroke-width="4px" />
<path d="M 420.0 145.0 L 410.0 145.0" stroke="#FF0000" fill="none" stroke-width="4px" />
<path d="M 410.0 145.0 L 420.0 155.0" stroke="#FF0000" fill="none" stroke-width="4px" />
<path d="M 420.0 155.0 L 430.0 155.0" stroke="#FF0000" fill="none" stroke-width="4px" />
<path d="M 430.0 155.0 L 440.0 155.0" stroke="#FF0000" fill="none" stroke-width="4px" />
<path d="M 440.0 155.0 L 450.0 155.0" stroke="#FF0000" fill="none" stroke-width="4px" />
<path d="M 450.0 155.0 L 460.0 155.0" stroke="#FF0000" fill="none" stroke-width="4px" />
<path d="M 460.0 155.0 L 450.0 165.0" stroke="#FF0000" fill="none" stroke-width="4px" />
<path d="M 450.0 165.0 L 440.0 165.0" stroke="#FF0000" fill="none" stroke-width="4px" />
<path d="M 440.0 165.0 L 430.0 165.0" stroke="#FF0000" fill="none" stroke-width="4px" />
<path d="M 430.0 105.0 L 420.0 105.0" stroke="#FF0000" fill="none" stroke-width="4px" />
<path d="M 420.0 105.0 L 430.0 95.0" stroke="#FF0000" fill="none" stroke-width="4px" />
<path d="M 430.0 95.0 L 440.0 95.0" stroke="#FF0000" fill="none" stroke-width="4px" />
<path d="M 440.0 95.0 L 450.0 95.0" stroke="#FF0000" fill="none" stroke-width="4px" />
<path d="M 450.0 95.0 L 460.0 95.0" stroke="#FF0000" fill="none" stroke-width="4px" />
<path d="M 460.0 95.0 L 470.0 95.0" stroke="#FF0000" fill="none" stroke-width="4px" />
<path d="M 470.0 95.0 L 470.0 105.0" stroke="#FF0000" fill="none" stroke-width="4px" />
<path d="M 470.0 105.0 L 460.0 105.0" stroke="#FF0000" fill="none" stroke-width="4px" />
<path d="M 460.0 105.0 L 450.0 105.0" stroke="#FF0000" fill="none" stroke-width="4px" />
<path d="M 450.0 105.0 L 440.0 105.0" stroke="#FF0000" fill="none" stroke-width="4px" />
<path d="M 440.0 85.0 L 450.0 85.0" stroke="#FF0000" fill="none" stroke-width="4px" />
<path d="M 450.0 85.0 L 460.0 85.0" stroke="#FF0000" fill="none" stroke-width="4px" />
<path d="M 480.0 55.0 L 470.0 55.0" stroke="#FF0000" fill="none" stroke-width="4px" />
<path d="M 470.0 55.0 L 460.0 55.0" stroke="#FF0000" fill="none" stroke-width="4px" />
<path d="M 460.0 55.0 L 460.0 45.0" stroke="#FF0000" fill="none" stroke-width="4px" />
<path d="M 460.0 45.0 L 450.0 45.0" stroke="#FF0000" fill="none" stroke-width="4px" />
<path d="M 450.0 45.0 L 450.0 35.0" stroke="#FF0000" fill="none" stroke-width="4px" />
<path d="M 450.0 35.0 L 440.0 35.0" stroke="#FF0000" fill="none" stroke-width="4px" />
<path d="M 440.0 35.0 L 440.0 25.0" stroke="#FF0000" fill="none" stroke-width="4px" />
<path d="M 440.0 25.0 L 450.0 25.0" stroke="#FF0000" fill="none" stroke-width="4px" />
<path d="M 450.0 25.0 L 460.0 25.0" stroke="#FF0000" fill="none" stroke-width="4px" />
<path d="M 460.0 25.0 L 470.0 25.0" stroke="#FF0000" fill="none" stroke-width="4px" />
<path d="M 470.0 25.0 L 480.0 25.0" stroke="#FF0000" fill="none" stroke-width="4px" />
<path d="M 480.0 25.0 L 490.0 25.0" stroke="#FF0000" fill="none" stroke-width="4px" />
<path d="M 490.0 25.0 L 500.0 25.0" stroke="#FF0000" fill="none" stroke-width="4px" />
<path d="M 500.0 25.0 L 510.0 25.0" stroke="#FF0000" fill="none" stroke-width="4px" />
<path d="M 510.0 25.0 L 510.0 15.0" stroke="#FF0000" fill="none" stroke-width="4px" />
<path d="M 510.0 15.0 L 500.0 15.0" stroke="#FF0000" fill="none" stroke-width="4px" />
<path d="M 500.0 15.0 L 490.0 15.0" stroke="#FF0000" fill="none" stroke-width="4px" />
<path d="M 490.0 15.0 L 480.0 15.0" stroke="#FF0000" fill="none" stroke-width="4px" />
<path d="M 480.0 15.0 L 470.0 15.0" stroke="#FF0000" fill="none" stroke-width="4px" />
<path d="M 470.0 15.0 L 460.0 15.0" stroke="#FF0000" fill="none" stroke-width="4px" />
<path d="M 460.0 15.0 L 450.0 15.0" stroke="#FF0000" fill="none" stroke-width="4px" />
<path d="M 450.0 15.0 L 440.0 15.0" stroke="#FF0000" fill="none" stroke-width="4px" />
<path d="M 440.0 15.0 L 440.0 5.0" stroke="#FF0000" fill="none" stroke-width="4px" />
<path d="M 440.0 5.0 L 430.0 5.0" stroke="#FF0000" fill="none" stroke-width="4px" />
<path d="M 430.0 5.0 L 440.0 -5.0" stroke="#FF0000" fill="none" stroke-width="4px" />
<path d="M 440.0 -5.0 L 450.0 -5.0" stroke="#FF0000" fill="none" stroke-width="4px" />
<path d="M 450.0 -5.0 L 460.0 -5.0" stroke="#FF0000" fill="none" stroke-width="4px" />
<path d="M 460.0 -5.0 L 470.0 -5.0" stroke="#FF0000" fill="none" stroke-width="4px" />
<path d="M 470.0 -5.0 L 480.0 -5.0" stroke="#FF0000" fill="none" stroke-width="4px" />
<path d="M 480.0 -5.0 L 490.0 -5.0" stroke="#FF0000" fill="none" stroke-width="4px" />
<path d="M 490.0 -5.0 L 490.0 5.0" stroke="#FF0000" fill="none" stroke-width="4px" />
<path d="M 490.0 5.0 L 480.0 5.0" stroke="#FF0000" fill="none" stroke-width="4px" />
<path d="M 480.0 5.0 L 470.0 5.0" stroke="#FF0000" fill="none" stroke-width="4px" />
<path d="M 470.0 5.0 L 460.0 5.0" stroke="#FF0000" fill="none" stroke-width="4px" />
<path d="M 460.0 5.0 L 450.0 5.0" stroke="#FF0000" fill="none" stroke-width="4px" />
<path d="M 460.0 35.0 L 470.0 35.0" stroke="#FF0000" fill="none" stroke-width="4px" />
<path d="M 470.0 35.0 L 480.0 35.0" stroke="#FF0000" fill="none" stroke-width="4px" />
<path d="M 480.0 35.0 L 490.0 35.0" stroke="#FF0000" fill="none" stroke-width="4px" />
<path d="M 490.0 35.0 L 500.0 35.0" stroke="#FF0000" fill="none" stroke-width="4px" />
<path d="M 500.0 35.0 L 490.0 45.0" stroke="#FF0000" fill="none" stroke-width="4px" />
<path d="M 490.0 45.0 L 480.0 45.0" stroke="#FF0000" fill="none" stroke-width="4px" />
<path d="M 480.0 45.0 L 470.0 45.0" stroke="#FF0000" fill="none" stroke-width="4px" />
<path d="M 570.0 75.0 L 580.0 75.0" stroke="#FF0000" fill="none" stroke-width="4px" />
<path d="M 580.0 75.0 L 580.0 85.0" stroke="#FF0000" fill="none" stroke-width="4px" />
<path d="M 580.0 85.0 L 570.0 85.0" stroke="#FF0000" fill="none" stroke-width="4px" />
<path d="M 570.0 85.0 L 560.0 85.0" stroke="#FF0000" fill="none" stroke-width="4px" />
<path d="M 560.0 85.0 L 560.0 95.0" stroke="#FF0000" fill="none" stroke-width="4px" />
<path d="M 560.0 95.0 L 550.0 95.0" stroke="#FF0000" fill="none" stroke-width="4px" />
<path d="M 550.0 95.0 L 560.0 105.0" stroke="#FF0000" fill="none" stroke-width="4px" />
<path d="M 560.0 105.0 L 570.0 105.0" stroke="#FF0000" fill="none" stroke-width="4px" />
<path d="M 570.0 105.0 L 580.0 105.0" stroke="#FF0000" fill="none" stroke-width="4px" />
<path d="M 580.0 105.0 L 590.0 105.0" stroke="#FF0000" fill="none" stroke-width="4px" />
<path d="M 590.0 105.0 L 590.0 95.0" stroke="#FF0000" fill="none" stroke-width="4px" />
<path d="M 590.0 95.0 L 580.0 95.0" stroke="#FF0000" fill="none" stroke-width="4px" />
<path d="M 580.0 95.0 L 570.0 95.0" stroke="#FF0000" fill="none" stroke-width="4px" />
<path d="M 620.0 105.0 L 630.0 105.0" stroke="#FF0000" fill="none" stroke-width="4px" />
<path d="M 630.0 105.0 L 640.0 105.0" stroke="#FF0000" fill="none" stroke-width="4px" />
<path d="M 640.0 105.0 L 640.0 115.0" stroke="#FF0000" fill="none" stroke-width="4px" />
<path d="M 640.0 115.0 L 630.0 115.0" stroke="#FF0000" fill="none" stroke-width="4px" />
<path d="M 630.0 115.0 L 620.0 115.0" stroke="#FF0000" fill="none" stroke-width="4px" />
<path d="M 620.0 115.0 L 610.0 115.0" stroke="#FF0000" fill="none" stroke-width="4px" />
<path d="M 610.0 115.0 L 610.0 125.0" stroke="#FF0000" fill="none" stroke-width="4px" />
<path d="M 610.0 125.0 L 600.0 125.0" stroke="#FF0000" fill="none" stroke-width="4px" />
<path d="M 600.0 125.0 L 600.0 135.0" stroke="#FF0000" fill="none" stroke-width="4px" />
<path d="M 600.0 135.0 L 610.0 135.0" stroke="#FF0000" fill="none" stroke-width="4px" />
<path d="M 610.0 135.0 L 620.0 135.0" stroke="#FF0000" fill="none" stroke-width="4px" />
<path d="M 620.0 135.0 L 630.0 135.0" stroke="#FF0000" fill="none" stroke-width="4px" />
<path d="M 630.0 135.0 L 640.0 135.0" stroke="#FF0000" fill="none" stroke-width="4px" />
<path d="M 640.0 135.0 L 650.0 135.0" stroke="#FF0000" fill="none" stroke-width="4px" />
<path d="M 650.0 135.0 L 660.0 135.0" stroke="#FF0000" fill="none" stroke-width="4px" />
<path d="M 660.0 135.0 L 660.0 145.0" stroke="#FF0000" fill="none" stroke-width="4px" />
<path d="M 660.0 145.0 L 650.0 145.0" stroke="#FF0000" fill="none" stroke-width="4px" />
<path d="M 650.0 145.0 L 640.0 145.0" stroke="#FF0000" fill="none" stroke-width="4px" />
<path d="M 640.0 145.0 L 630.0 145.0" stroke="#FF0000" fill="none" stroke-width="4px" />
<path d="M 630.0 145.0 L 620.0 145.0" stroke="#FF0000" fill="none" stroke-width="4px" />
<path d="M 620.0 145.0 L 610.0 145.0" stroke="#FF0000" fill="none" stroke-width="4px" />
<path d="M 610.0 145.0 L 620.0 155.0" stroke="#FF0000" fill="none" stroke-width="4px" />
<path d="M 620.0 155.0 L 630.0 155.0" stroke="#FF0000" fill="none" stroke-width="4px" />
<path d="M 630.0 155.0 L 640.0 155.0" stroke="#FF0000" fill="none" stroke-width="4px" />
<path d="M 640.0 155.0 L 650.0 155.0" stroke="#FF0000" fill="none" stroke-width="4px" />
<path d="M 650.0 155.0 L 640.0 165.0" stroke="#FF0000" fill="none" stroke-width="4px" />
<path d="M 640.0 165.0 L 630.0 165.0" stroke="#FF0000" fill="none" stroke-width="4px" />
<path d="M 630.0 125.0 L 620.0 125.0" stroke="#FF0000" fill="none" stroke-width="4px" />
<path d="M 620.0 125.0 L 640.0 125.0" stroke="#FF0000" fill="none" stroke-width="4px" />
<path d="M 640.0 125.0 L 650.0 125.0" stroke="#FF0000" fill="none" stroke-width="4px" />
<path d="M 650.0 125.0 L 660.0 125.0" stroke="#FF0000" fill="none" stroke-width="4px" />
<path d="M 660.0 125.0 L 650.0 115.0" stroke="#FF0000" fill="none" stroke-width="4px" />
<path d="M 580.0 115.0 L 570.0 115.0" stroke="#FF0000" fill="none" stroke-width="4px" />
<path d="M 970.0 85.0 L 980.0 85.0" stroke="#FF0000" fill="none" stroke-width="4px" />
<path d="M 980.0 85.0 L 990.0 85.0" stroke="#FF0000" fill="none" stroke-width="4px" />
<path d="M 990.0 85.0 L 1000.0 85.0" stroke="#FF0000" fill="none" stroke-width="4px" />
<path d="M 1000.0 85.0 L 1010.0 85.0" stroke="#FF0000" fill="none" stroke-width="4px" />
<path d="M 1010.0 85.0 L 1020.0 85.0" stroke="#FF0000" fill="none" stroke-width="4px" />
<path d="M 1020.0 85.0 L 1010.0 95.0" stroke="#FF0000" fill="none" stroke-width="4px" />
<path d="M 1010.0 95.0 L 1000.0 95.0" stroke="#FF0000" fill="none" stroke-width="4px" />
<path d="M 1000.0 95.0 L 990.0 95.0" stroke="#FF0000" fill="none" stroke-width="4px" />
<path d="M 990.0 95.0 L 980.0 95.0" stroke="#FF0000" fill="none" stroke-width="4px" />
<path d="M 980.0 95.0 L 990.0 105.0" stroke="#FF0000" fill="none" stroke-width="4px" />
<path d="M 990.0 105.0 L 1000.0 105.0" stroke="#FF0000" fill="none" stroke-width="4px" />
<path d="M 1000.0 75.0 L 990.0 75.0" stroke="#FF0000" fill="none" stroke-width="4px" />
<path d="M 990.0 75.0 L 980.0 75.0" stroke="#FF0000" fill="none" stroke-width="4px" />
<path d="M 980.0 75.0 L 970.0 75.0" stroke="#FF0000" fill="none" stroke-width="4px" />
<path d="M 970.0 75.0 L 970.0 65.0" stroke="#FF0000" fill="none" stroke-width="4px" />
<path d="M 970.0 65.0 L 980.0 65.0" stroke="#FF0000" fill="none" stroke-width="4px" />
<path d="M 980.0 65.0 L 990.0 65.0" stroke="#FF0000" fill="none" stroke-width="4px" />
<path d="M 990.0 65.0 L 1000.0 65.0" stroke="#FF0000" fill="none" stroke-width="4px" />
<path d="M 1000.0 65.0 L 1010.0 65.0" stroke="#FF0000" fill="none" stroke-width="4px" />
<path d="M 1010.0 65.0 L 1010.0 75.0" stroke="#FF0000" fill="none" stroke-width="4px" />
<path d="M 1000.0 55.0 L 990.0 55.0" stroke="#FF0000" fill="none" stroke-width="4px" />
<path d="M 990.0 55.0 L 980.0 55.0" stroke="#FF0000" fill="none" stroke-width="4px" />
<path d="M 980.0 55.0 L 980.0 45.0" stroke="#FF0000" fill="none" stroke-width="4px" />
<path d="M 980.0 45.0 L 970.0 45.0" stroke="#FF0000" fill="none" stroke-width="4px" />
<path d="M 970.0 45.0 L 970.0 35.0" stroke="#FF0000" fill="none" stroke-width="4px" />
<path d="M 970.0 35.0 L 960.0 35.0" stroke="#FF0000" fill="none" stroke-width="4px" />
<path d="M 960.0 35.0 L 960.0 25.0" stroke="#FF0000" fill="none" stroke-width="4px" />
<path d="M 960.0 25.0 L 970.0 25.0" stroke="#FF0000" fill="none" stroke-width="4px" />
<path d="M 970.0 25.0 L 980.0 25.0" stroke="#FF0000" fill="none" stroke-width="4px" />
<path d="M 980.0 25.0 L 990.0 25.0" stroke="#FF0000" fill="none" stroke-width="4px" />
<path d="M 990.0 25.0 L 1000.0 25.0" stroke="#FF0000" fill="none" stroke-width="4px" />
<path d="M 1000.0 25.0 L 1010.0 25.0" stroke="#FF0000" fill="none" stroke-width="4px" />
<path d="M 1010.0 25.0 L 1010.0 35.0" stroke="#FF0000" fill="none" stroke-width="4px" />
<path d="M 1010.0 35.0 L 1000.0 35.0" stroke="#FF0000" fill="none" stroke-width="4px" />
<path d="M 1000.0 35.0 L 990.0 35.0" stroke="#FF0000" fill="none" stroke-width="4px" />
<path d="M 990.0 35.0 L 980.0 35.0" stroke="#FF0000" fill="none" stroke-width="4px" />
<path d="M 980.0 35.0 L 990.0 45.0" stroke="#FF0000" fill="none" stroke-width="4px" />
<path d="M 990.0 45.0 L 1000.0 45.0" stroke="#FF0000" fill="none" stroke-width="4px" />
<path d="M 1000.0 15.0 L 990.0 15.0" stroke="#FF0000" fill="none" stroke-width="4px" />
<path d="M 990.0 15.0 L 980.0 15.0" stroke="#FF0000" fill="none" stroke-width="4px" />
<path d="M 980.0 15.0 L 970.0 15.0" stroke="#FF0000" fill="none" stroke-width="4px" />
<path d="M 970.0 15.0 L 960.0 15.0" stroke="#FF0000" fill="none" stroke-width="4px" />
<path d="M 960.0 15.0 L 960.0 5.0" stroke="#FF0000" fill="none" stroke-width="4px" />
<path d="M 960.0 5.0 L 970.0 5.0" stroke="#FF0000" fill="none" stroke-width="4px" />
<path d="M 970.0 5.0 L 980.0 5.0" stroke="#FF0000" fill="none" stroke-width="4px" />
<path d="M 980.0 5.0 L 990.0 5.0" stroke="#FF0000" fill="none" stroke-width="4px" />
<path d="M 990.0 5.0 L 1000.0 5.0" stroke="#FF0000" fill="none" stroke-width="4px" />
<path d="M 1000.0 5.0 L 1010.0 5.0" stroke="#FF0000" fill="none" stroke-width="4px" />
<path d="M 1010.0 5.0 L 1010.0 15.0" stroke="#FF0000" fill="none" stroke-width="4px" />
<path d="M 1010.0 -5.0 L 1000.0 -5.0" stroke="#FF0000" fill="none" stroke-width="4px" />
<path d="M 1000.0 -5.0 L 990.0 -5.0" stroke="#FF0000" fill="none" stroke-width="4px" />
<path d="M 990.0 -5.0 L 980.0 -5.0" stroke="#FF0000" fill="none" stroke-width="4px" />
<path d="M 980.0 -5.0 L 970.0 -5.0" stroke="#FF0000" fill="none" stroke-width="4px" />
<path d="M 970.0 -5.0 L 960.0 -5.0" stroke="#FF0000" fill="none" stroke-width="4px" />
<path d="M 1110.0 115.0 L 1120.0 115.0" stroke="#FF0000" fill="none" stroke-width="4px" />
<path d="M 1120.0 115.0 L 1130.0 115.0" stroke="#FF0000" fill="none" stroke-width="4px" />
<path d="M 1130.0 115.0 L 1130.0 125.0" stroke="#FF0000" fill="none" stroke-width="4px" />
<path d="M 1130.0 125.0 L 1120.0 125.0" stroke="#FF0000" fill="none" stroke-width="4px" />
<path d="M 1120.0 125.0 L 1110.0 125.0" stroke="#FF0000" fill="none" stroke-width="4px" />
<path d="M 1110.0 125.0 L 1100.0 125.0" stroke="#FF0000" fill="none" stroke-width="4px" />
<path d="M 1100.0 125.0 L 1100.0 135.0" stroke="#FF0000" fill="none" stroke-width="4px" />
<path d="M 1100.0 135.0 L 1110.0 135.0" stroke="#FF0000" fill="none" stroke-width="4px" />
<path d="M 1110.0 135.0 L 1120.0 135.0" stroke="#FF0000" fill="none" stroke-width="4px" />
<path d="M 1120.0 135.0 L 1130.0 135.0" stroke="#FF0000" fill="none" stroke-width="4px" />
<path d="M 1130.0 135.0 L 1140.0 135.0" stroke="#FF0000" fill="none" stroke-width="4px" />
<path d="M 1140.0 135.0 L 1150.0 135.0" stroke="#FF0000" fill="none" stroke-width="4px" />
<path d="M 1150.0 135.0 L 1150.0 145.0" stroke="#FF0000" fill="none" stroke-width="4px" />
<path d="M 1150.0 145.0 L 1140.0 145.0" stroke="#FF0000" fill="none" stroke-width="4px" />
<path d="M 1140.0 145.0 L 1130.0 145.0" stroke="#FF0000" fill="none" stroke-width="4px" />
<path d="M 1130.0 145.0 L 1120.0 145.0" stroke="#FF0000" fill="none" stroke-width="4px" />
<path d="M 1120.0 145.0 L 1110.0 145.0" stroke="#FF0000" fill="none" stroke-width="4px" />
<path d="M 1110.0 145.0 L 1100.0 145.0" stroke="#FF0000" fill="none" stroke-width="4px" />
<path d="M 1100.0 145.0 L 1110.0 155.0" stroke="#FF0000" fill="none" stroke-width="4px" />
<path d="M 1110.0 155.0 L 1120.0 155.0" stroke="#FF0000" fill="none" stroke-width="4px" />
<path d="M 1120.0 155.0 L 1130.0 155.0" stroke="#FF0000" fill="none" stroke-width="4px" />
<path d="M 1130.0 155.0 L 1140.0 155.0" stroke="#FF0000" fill="none" stroke-width="4px" />
<path d="M 1140.0 155.0 L 1150.0 155.0" stroke="#FF0000" fill="none" stroke-width="4px" />
<path d="M 1150.0 155.0 L 1140.0 165.0" stroke="#FF0000" fill="none" stroke-width="4px" />
<path d="M 1140.0 165.0 L 1130.0 165.0" stroke="#FF0000" fill="none" stroke-width="4px" />
<path d="M 1130.0 165.0 L 1120.0 165.0" stroke="#FF0000" fill="none" stroke-width="4px" />
<path d="M 1210.0 145.0 L 1220.0 145.0" stroke="#FF0000" fill="none" stroke-width="4px" />
<path d="M 1220.0 145.0 L 1230.0 145.0" stroke="#FF0000" fill="none" stroke-width="4px" />
<path d="M 1230.0 145.0 L 1240.0 145.0" stroke="#FF0000" fill="none" stroke-width="4px" />
<path d="M 1240.0 145.0 L 1250.0 145.0" stroke="#FF0000" fill="none" stroke-width="4px" />
<path d="M 1250.0 145.0 L 1240.0 155.0" stroke="#FF0000" fill="none" stroke-width="4px" />
<path d="M 1240.0 155.0 L 1230.0 155.0" stroke="#FF0000" fill="none" stroke-width="4px" />
<path d="M 1230.0 155.0 L 1220.0 155.0" stroke="#FF0000" fill="none" stroke-width="4px" />
<path d="M 1220.0 155.0 L 1210.0 155.0" stroke="#FF0000" fill="none" stroke-width="4px" />
<path d="M 1210.0 155.0 L 1220.0 165.0" stroke="#FF0000" fill="none" stroke-width="4px" />
<path d="M 1220.0 165.0 L 1230.0 165.0" stroke="#FF0000" fill="none" stroke-width="4px" />
<path d="M 1230.0 135.0 L 1220.0 135.0" stroke="#FF0000" fill="none" stroke-width="4px" />
<path d="M 1220.0 135.0 L 1230.0 125.0" stroke="#FF0000" fill="none" stroke-width="4px" />
<path d="M 1230.0 125.0 L 1240.0 135.0" stroke="#FF0000" fill="none" stroke-width="4px" />
<path d="M 1320.0 115.0 L 1330.0 115.0" stroke="#FF0000" fill="none" stroke-width="4px" />
<path d="M 1330.0 115.0 L 1340.0 115.0" stroke="#FF0000" fill="none" stroke-width="4px" />
<path d="M 1340.0 115.0 L 1350.0 115.0" stroke="#FF0000" fill="none" stroke-width="4px" />
<path d="M 1350.0 115.0 L 1360.0 115.0" stroke="#FF0000" fill="none" stroke-width="4px" />
<path d="M 1360.0 115.0 L 1360.0 105.0" stroke="#FF0000" fill="none" stroke-width="4px" />
<path d="M 1360.0 105.0 L 1350.0 105.0" stroke="#FF0000" fill="none" stroke-width="4px" />
<path d="M 1350.0 105.0 L 1340.0 105.0" stroke="#FF0000" fill="none" stroke-width="4px" />
<path d="M 1340.0 105.0 L 1330.0 105.0" stroke="#FF0000" fill="none" stroke-width="4px" />
<path d="M 1330.0 105.0 L 1320.0 105.0" stroke="#FF0000" fill="none" stroke-width="4px" />
<path d="M 1320.0 105.0 L 1320.0 95.0" stroke="#FF0000" fill="none" stroke-width="4px" />
<path d="M 1320.0 95.0 L 1330.0 95.0" stroke="#FF0000" fill="none" stroke-width="4px" />
<path d="M 1330.0 95.0 L 1340.0 95.0" stroke="#FF0000" fill="none" stroke-width="4px" />
<path d="M 1340.0 95.0 L 1350.0 95.0" stroke="#FF0000" fill="none" stroke-width="4px" />
<path d="M 1350.0 95.0 L 1360.0 95.0" stroke="#FF0000" fill="none" stroke-width="4px" />
<path d="M 1360.0 95.0 L 1370.0 105.0" stroke="#FF0000" fill="none" stroke-width="4px" />
<path d="M 1350.0 125.0 L 1340.0 125.0" stroke="#FF0000" fill="none" stroke-width="4px" />
<path d="M 1340.0 125.0 L 1330.0 125.0" stroke="#FF0000" fill="none" stroke-width="4px" />
<path d="M 1330.0 125.0 L 1340.0 135.0" stroke="#FF0000" fill="none" stroke-width="4px" />
<path d="M 1340.0 85.0 L 1330.0 85.0" stroke="#FF0000" fill="none" stroke-width="4px" />
<path d="M 1330.0 85.0 L 1340.0 75.0" stroke="#FF0000" fill="none" stroke-width="4px" />
<path d="M 1340.0 75.0 L 1350.0 85.0" stroke="#FF0000" fill="none" stroke-width="4px" />
<path d="M 1610.0 175.0 L 1620.0 175.0" stroke="#FF0000" fill="none" stroke-width="4px" />
<path d="M 1620.0 175.0 L 1630.0 175.0" stroke="#FF0000" fill="none" stroke-width="4px" />
<path d="M 1630.0 175.0 L 1640.0 175.0" stroke="#FF0000" fill="none" stroke-width="4px" />
<path d="M 1640.0 175.0 L 1650.0 175.0" stroke="#FF0000" fill="none" stroke-width="4px" />
<path d="M 1650.0 175.0 L 1650.0 185.0" stroke="#FF0000" fill="none" stroke-width="4px" />
<path d="M 1650.0 185.0 L 1640.0 185.0" stroke="#FF0000" fill="none" stroke-width="4px" />
<path d="M 1640.0 185.0 L 1630.0 185.0" stroke="#FF0000" fill="none" stroke-width="4px" />
<path d="M 1630.0 185.0 L 1620.0 185.0" stroke="#FF0000" fill="none" stroke-width="4px" />
<path d="M 1620.0 185.0 L 1610.0 185.0" stroke="#FF0000" fill="none" stroke-width="4px" />
<path d="M 1610.0 185.0 L 1610.0 195.0" stroke="#FF0000" fill="none" stroke-width="4px" />
<path d="M 1610.0 195.0 L 1620.0 195.0" stroke="#FF0000" fill="none" stroke-width="4px" />
<path d="M 1620.0 195.0 L 1630.0 195.0" stroke="#FF0000" fill="none" stroke-width="4px" />
<path d="M 1630.0 195.0 L 1640.0 195.0" stroke="#FF0000" fill="none" stroke-width="4px" />
<path d="M 1640.0 195.0 L 1650.0 195.0" stroke="#FF0000" fill="none" stroke-width="4px" />
<path d="M 1650.0 195.0 L 1650.0 205.0" stroke="#FF0000" fill="none" stroke-width="4px" />
<path d="M 1650.0 205.0 L 1640.0 205.0" stroke="#FF0000" fill="none" stroke-width="4px" />
<path d="M 1640.0 205.0 L 1630.0 205.0" stroke="#FF0000" fill="none" stroke-width="4px" />
<path d="M 1630.0 205.0 L 1620.0 205.0" stroke="#FF0000" fill="none" stroke-width="4px" />
<path d="M 1620.0 205.0 L 1610.0 205.0" stroke="#FF0000" fill="none" stroke-width="4px" />
<path d="M 1610.0 205.0 L 1620.0 215.0" stroke="#FF0000" fill="none" stroke-width="4px" />
<path d="M 1620.0 215.0 L 1630.0 215.0" stroke="#FF0000" fill="none" stroke-width="4px" />
<path d="M 1630.0 215.0 L 1640.0 215.0" stroke="#FF0000" fill="none" stroke-width="4px" />
<path d="M 1640.0 215.0 L 1650.0 215.0" stroke="#FF0000" fill="none" stroke-width="4px" />
<path d="M 1650.0 215.0 L 1650.0 225.0" stroke="#FF0000" fill="none" stroke-width="4px" />
<path d="M 1650.0 225.0 L 1640.0 225.0" stroke="#FF0000" fill="none" stroke-width="4px" />
<path d="M 1640.0 225.0 L 1630.0 225.0" stroke="#FF0000" fill="none" stroke-width="4px" />
<path d="M 1630.0 165.0 L 1620.0 165.0" stroke="#FF0000" fill="none" stroke-width="4px" />
<path d="M 1620.0 165.0 L 1630.0 155.0" stroke="#FF0000" fill="none" stroke-width="4px" />
<path d="M 1630.0 155.0 L 1640.0 155.0" stroke="#FF0000" fill="none" stroke-width="4px" />
<path d="M 1640.0 155.0 L 1650.0 155.0" stroke="#FF0000" fill="none" stroke-width="4px" />
<path d="M 1650.0 155.0 L 1650.0 165.0" stroke="#FF0000" fill="none" stroke-width="4px" />
<path d="M 1650.0 165.0 L 1640.0 165.0" stroke="#FF0000" fill="none" stroke-width="4px" />
</svg>