<svg width="2472.26666667" height="235.0" xmlns="http://www.w3.org/2000/svg" version="1.1">
<path d="M 0.0 235.0 L 1985.0 235.0 L 1985.0 0.0 L 0.0 0.0 L 0.0 235.0" stroke="#000000" fill="none" stroke-width="3px" />
<path d="M 2472.26666667 235.0 L 1885.0 235.0 L 1885.0 0.0 L 2472.26666667 0.0 L 2472.26666667 235.0" stroke="#000000" fill="none" stroke-width="3px" />
<path d="M 10.0 257.5 L 0.0 247.5 L 10.0 237.5" stroke="#969696" fill="none" stroke-width="1px" />
<path d="M 10.0 237.5 L 1975.0 237.5" stroke="#969696" fill="none" stroke-width="1px" />
<path d="M 1975.0 237.5 L 1985.0 227.5 L 1975.0 217.5" stroke="#969696" fill="none" stroke-width="1px" />
<path d="M 1975.0 217.5 L 10.0 217.5" stroke="#969696" fill="none" stroke-width="1px" />
<path d="M 10.0 217.5 L 0.0 207.5 L 10.0 197.5" stroke="#969696" fill="none" stroke-width="1px" />
<path d="M 10.0 197.5 L 1975.0 197.5" stroke="#969696" fill="none" stroke-width="1px" />
<path d="M 1975.0 197.5 L 1985.0 187.5 L 1975.0 177.5" stroke="#969696" fill="none" stroke-width="1px" />
<path d="M 1975.0 177.5 L 10.0 177.5" stroke="#969696" fill="none" stroke-width="1px" />
<path d="M 10.0 177.5 L 0.0 167.5 L 10.0 157.5" stroke="#969696" fill="none" stroke-width="1px" />
<path d="M 10.0 157.5 L 1975.0 157.5" stroke="#969696" fill="none" stroke-width="1px" />
<path d="M 1975.0 157.5 L 1985.0 147.5 L 1975.0 137.5" stroke="#969696" fill="none" stroke-width="1px" />
<path d="M 1975.0 137.5 L 10.0 137.5" stroke="#969696" fill="none" stroke-width="1px" />
<path d="M 10.0 137.5 L 0.0 127.5 L 10.0 117.5" stroke="#969696" fill="none" stroke-width="1px" />
<path d="M 10.0 117.5 L 1975.0 117.5" stroke="#969696" fill="none" stroke-width="1px" />
<path d="M 1975.0 117.5 L 1985.0 107.5 L 1975.0 97.5" stroke="#969696" fill="none" stroke-width="1px" />
<path d="M 1975.0 97.5 L 10.0 97.5" stroke="#969696" fill="none" stroke-width="1px" />
<path d="M 10.0 97.5 L 0.0 87.5 L 10.0 77.5" stroke="#969696" fill="none" stroke-width="1px" />
<path d="M 10.0 77.5 L 1975.0 77.5" stroke="#969696" fill="none" stroke-width="1px" />
<path d="M 1975.0 77.5 L 1985.0 67.5 L 1975.0 57.5" stroke="#969696" fill="none" stroke-width="1px" />
<path d="M 1975.0 57.5 L 10.0 57.5" stroke="#969696" fill="none" stroke-width="1px" />
<path d="M 10.0 57.5 L 0.0 47.5 L 10.0 37.5" stroke="#969696" fill="none" stroke-width="1px" />
<path d="M 10.0 37.5 L 1975.0 37.5" stroke="#969696" fill="none" stroke-width="1px" />
<path d="M 1975.0 37.5 L 1985.0 27.5 L 1975.0 17.5" stroke="#969696" fill="none" stroke-width="1px" />
<path d="M 1975.0 17.5 L 10.0 17.5" stroke="#969696" fill="none" stroke-width="1px" />
<path d="M 10.0 17.5 L 0.0 7.5 L 10.0 -2.5" stroke="#969696" fill="none" stroke-width="1px" />
<path d="M 10.0 -2.5 L 1975.0 -2.5" stroke="#969696" fill="none" stroke-width="1px" />
<path d="M 1975.0 -2.5 L 1985.0 -12.5 L 1975.0 -22.5" stroke="#969696" fill="none" stroke-width="1px" />
<path d="M 2462.26666667 257.5 L 2472.26666667 247.5 L 2462.26666667 237.5" stroke="#969696" fill="none" stroke-width="1px" />
<path d="M 2462.26666667 237.5 L 1895.0 237.5" stroke="#969696" fill="none" stroke-width="1px" />
<path d="M 1895.0 237.5 L 1885.0 227.5 L 1895.0 217.5" stroke="#969696" fill="none" stroke-width="1px" />
<path d="M 1895.0 217.5 L 2462.26666667 217.5" stroke="#969696" fill="none" stroke-width="1px" />
<path d="M 2462.26666667 217.5 L 2472.26666667 207.5 L 2462.26666667 197.5" stroke="#969696" fill="none" stroke-width="1px" />
<path d="M 2462.26666667 197.5 L 1895.0 197.5" stroke="#969696" fill="none" stroke-width="1px" />
<path d="M 1895.0 197.5 L 1885.0 187.5 L 1895.0 177.5" stroke="#969696" fill="none" stroke-width="1px" />
<path d="M 1895.0 177.5 L 2462.26666667 177.5" stroke="#969696" fill="none" stroke-width="1px" />
<path d="M 2462.26666667 177.5 L 2472.26666667 167.5 L 2462.26666667 157.5" stroke="#969696" fill="none" stroke-width="1px" />
<path d="M 2462.26666667 157.5 L 1895.0 157.5" stroke="#969696" fill="none" stroke-width="1px" />
<path d="M 1895.0 157.5 L 1885.0 147.5 L 1895.0 137.5" stroke="#969696" fill="none" stroke-width="1px" />
<path d="M 1895.0 137.5 L 2462.26666667 137.5" stroke="#969696" fill="none" stroke-width="1px" />
<path d="M 2462.26666667 137.5 L 2472.26666667 127.5 L 2462.26666667 117.5" stroke="#969696" fill="none" stroke-width="1px" />
<path d="M 2462.26666667 117.5 L 1895.0 117.5" stroke="#969696" fill="none" stroke-width="1px" />
<path d="M 1895.0 117.5 L 1885.0 107.5 L 1895.0 97.5" stroke="#969696" fill="none" stroke-width="1px" />
<path d="M 1895.0 97.5 L 2462.26666667 97.5" stroke="#969696" fill="none" stroke-width="1px" />
<path d="M 2462.26666667 97.5 L 2472.26666667 87.5 L 2462.26666667 77.5" stroke="#969696" fill="none" stroke-width="1px" />
<path d="M 2462.26666667 77.5 L 1895.0 77.5" stroke="#969696" fill="none" stroke-width="1px" />
<path d="M 1895.0 77.5 L 1885.0 67.5 L 1895.0 57.5" stroke="#969696" fill="none" stroke-width="1px" />
<path d="M 1895.0 57.5 L 2462.26666667 57.5" stroke="#969696" fill="none" stroke-width="1px" />
<path d="M 2462.26666667 57.5 L 2472.26666667 47.5 L 2462.26666667 37.5" stroke="#969696" fill="none" stroke-width="1px" />
<path d="M 2462.26666667 37.5 L 1895.0 37.5" stroke="#969696" fill="none" stroke-width="1px" />
<path d="M 1895.0 37.5 L 1885.0 27.5 L 1895.0 17.5" stroke="#969696" fill="none" stroke-width="1px" />
<path d="M 1895.0 17.5 L 2462.26666667 17.5" stroke="#969696" fill="none" stroke-width="1px" />
<path d="M 2462.26666667 17.5 L 2472.26666667 7.5 L 2462.26666667 -2.5" stroke="#969696" fill="none" stroke-width="1px" />
<path d="M 2462.26666667 -2.5 L 1895.0 -2.5" stroke="#969696" fill="none" stroke-width="1px" />
<path d="M 1895.0 -2.5 L 1885.0 -12.5 L 1895.0 -22.5" stroke="#969696" fill="none" stroke-width="1px" />
<path d="M 0.0 235.0 L 460.0 235.0" stroke="#0095FF" fill="none" stroke-width="2px" />
<path d="M 460.0 235.0 L 460.0 105.0" stroke="#0095FF" fill="none" stroke-width="2px" />
<path d="M 490.0 135.0 L 490.0 95.0" stroke="#0095FF" fill="none" stroke-width="2px" />
<path d="M 500.0 95.0 L 480.0 95.0" stroke="#0095FF" fill="none" stroke-width="2px" />
<path d="M 480.0 95.0 L 480.0 75.0" stroke="#0095FF" fill="none" stroke-width="2px" />
<path d="M 480.0 75.0 L 850.0 75.0" stroke="#0095FF" fill="none" stroke-width="2px" />
<path d="M 870.0 35.0 L 890.0 35.0" stroke="#0095FF" fill="none" stroke-width="2px" />
<path d="M 890.0 35.0 L 890.0 65.0" stroke="#0095FF" fill="none" stroke-width="2px" />
<path d="M 890.0 65.0 L 870.0 65.0" stroke="#0095FF" fill="none" stroke-width="2px" />
<path d="M 870.0 65.0 L 870.0 85.0" stroke="#0095FF" fill="none" stroke-width="2px" />
<path d="M 860.0 85.0 L 890.0 85.0" stroke="#0095FF" fill="none" stroke-width="2px" />
<path d="M 890.0 85.0 L 890.0 105.0" stroke="#0095FF" fill="none" stroke-width="2px" />
<path d="M 920.0 125.0 L 920.0 95.0" stroke="#0095FF" fill="none" stroke-width="2px" />
<path d="M 910.0 85.0 L 960.0 85.0" stroke="#0095FF" fill="none" stroke-width="2px" />
<path d="M 960.0 85.0 L 960.0 95.0" stroke="#0095FF" fill="none" stroke-width="2px" />
<path d="M 990.0 105.0 L 980.0 105.0" stroke="#0095FF" fill="none" stroke-width="2px" />
<path d="M 980.0 105.0 L 980.0 125.0" stroke="#0095FF" fill="none" stroke-width="2px" />
<path d="M 970.0 125.0 L 970.0 85.0" stroke="#0095FF" fill="none" stroke-width="2px" />
<path d="M 970.0 85.0 L 1460.0 85.0" stroke="#0095FF" fill="none" stroke-width="2px" />
<path d="M 1500.0 105.0 L 1480.0 105.0" stroke="#0095FF" fill="none" stroke-width="2px" />
<path d="M 1480.0 105.0 L 1480.0 115.0" stroke="#0095FF" fill="none" stroke-width="2px" />
<path d="M 1480.0 115.0 L 1480.0 75.0" stroke="#0095FF" fill="none" stroke-width="2px" />
<path d="M 1500.0 75.0 L 1720.0 75.0" stroke="#0095FF" fill="none" stroke-width="2px" />
<path d="M 1720.0 75.0 L 1720.0 55.0" stroke="#0095FF" fill="none" stroke-width="2px" />
<path d="M 1750.0 75.0 L 1780.0 75.0" stroke="#0095FF" fill="none" stroke-width="2px" />
<path d="M 1800.0 105.0 L 1830.0 105.0" stroke="#0095FF" fill="none" stroke-width="2px" />
<path d="M 1830.0 105.0 L 1830.0 65.0" stroke="#0095FF" fill="none" stroke-width="2px" />
<path d="M 1830.0 65.0 L 1810.0 65.0" stroke="#0095FF" fill="none" stroke-width="2px" />
<path d="M 1810.0 65.0 L 1810.0 45.0" stroke="#0095FF" fill="none" stroke-width="2px" />
<path d="M 1790.0 45.0 L 1760.0 45.0" stroke="#0095FF" fill="none" stroke-width="2px" />
<path d="M 2440.0 215.0 L 2440.0 235.0" stroke="#0095FF" fill="none" stroke-width="2px" />
<path d="M 2450.0 235.0 L 2450.0 195.0" stroke="#0095FF" fill="none" stroke-width="2px" />
<path d="M 2470.0 195.0 L 2450.0 195.0" stroke="#0095FF" fill="none" stroke-width="2px" />
<path d="M 2450.0 195.0 L 2450.0 175.0" stroke="#0095FF" fill="none" stroke-width="2px" />
<path d="M 2440.0 165.0 L 2440.0 145.0" stroke="#0095FF" fill="none" stroke-width="2px" />
<path d="M 2440.0 135.0 L 2440.0 95.0" stroke="#0095FF" fill="none" stroke-width="2px" />
<path d="M 2450.0 95.0 L 2450.0 75.0" stroke="#0095FF" fill="none" stroke-width="2px" />
<path d="M 2460.0 75.0 L 2440.0 75.0" stroke="#0095FF" fill="none" stroke-width="2px" />
<path d="M 2440.0 75.0 L 2440.0 55.0" stroke="#0095FF" fill="none" stroke-width="2px" />
<path d="M 2430.0 45.0 L 2430.0 25.0" stroke="#0095FF" fill="none" stroke-width="2px" />
<path d="M 2440.0 15.0 L 2280.0 15.0" stroke="#0095FF" fill="none" stroke-width="2px" />
<path d="M 2280.0 15.0 L 2280.0 35.0" stroke="#0095FF" fill="none" stroke-width="2px" />
<path d="M 2250.0 75.0 L 2250.0 25.0" stroke="#0095FF" fill="none" stroke-width="2px" />
<path d="M 2270.0 25.0 L 2080.0 25.0" stroke="#0095FF" fill="none" stroke-width="2px" />
<path d="M 2080.0 25.0 L 2080.0 125.0" stroke="#0095FF" fill="none" stroke-width="2px" />
<path d="M 2100.0 145.0 L 2080.0 145.0" stroke="#0095FF" fill="none" stroke-width="2px" />
<path d="M 2080.0 145.0 L 2080.0 165.0" stroke="#0095FF" fill="none" stroke-width="2px" />
<path d="M 2070.0 165.0 L 2000.0 165.0" stroke="#0095FF" fill="none" stroke-width="2px" />
<path d="M 2000.0 165.0 L 2000.0 135.0" stroke="#0095FF" fill="none" stroke-width="2px" />
<path d="M 1990.0 125.0 L 1990.0 105.0" stroke="#0095FF" fill="none" stroke-width="2px" />
<path d="M 2010.0 105.0 L 1990.0 105.0" stroke="#0095FF" fill="none" stroke-width="2px" />
<path d="M 1990.0 105.0 L 1990.0 85.0" stroke="#0095FF" fill="none" stroke-width="2px" />
<path d="M 1990.0 85.0 L 1970.0 85.0" stroke="#0095FF" fill="none" stroke-width="2px" />
<path d="M 1970.0 85.0 L 1970.0 75.0" stroke="#0095FF" fill="none" stroke-width="2px" />
<path d="M 1980.0 65.0 L 1960.0 65.0" stroke="#0095FF" fill="none" stroke-width="2px" />
<path d="M 1960.0 65.0 L 1960.0 45.0" stroke="#0095FF" fill="none" stroke-width="2px" />
<path d="M 460.0 105.0 L 470.0 105.0" stroke="#FF0000" fill="none" stroke-width="4px" />
<path d="M 470.0 105.0 L 480.0 105.0" stroke="#FF0000" fill="none" stroke-width="4px" />
<path d="M 480.0 105.0 L 490.0 105.0" stroke="#FF0000" fill="none" stroke-width="4px" />
<path d="M 490.0 105.0 L 500.0 105.0" stroke="#FF0000" fill="none" stroke-width="4px" />
<path d="M 500.0 105.0 L 510.0 105.0" stroke="#FF0000" fill="none" stroke-width="4px" />
<path d="M 510.0 105.0 L 510.0 115.0" stroke="#FF0000" fill="none" stroke-width="4px" />
<path d="M 510.0 115.0 L 500.0 115.0" stroke="#FF0000" fill="none" stroke-width="4px" />
<path d="M 500.0 115.0 L 490.0 115.0" stroke="#FF0000" fill="none" stroke-width="4px" />
<path d="M 490.0 115.0 L 480.0 115.0" stroke="#FF0000" fill="none" stroke-width="4px" />
<path d="M 480.0 115.0 L 470.0 115.0" stroke="#FF0000" fill="none" stroke-width="4px" />
<path d="M 470.0 115.0 L 480.0 125.0" stroke="#FF0000" fill="none" stroke-width="4px" />
<path d="M 480.0 125.0 L 490.0 125.0" stroke="#FF0000" fill="none" stroke-width="4px" />
<path d="M 490.0 125.0 L 500.0 125.0" stroke="#FF0000" fill="none" stroke-width="4px" />
<path d="M 500.0 125.0 L 510.0 125.0" stroke="#FF0000" fill="none" stroke-width="4px" />
<path d="M 510.0 125.0 L 500.0 135.0" stroke="#FF0000" fill="none" stroke-width="4px" />
<path d="M 500.0 135.0 L 490.0 135.0" stroke="#FF0000" fill="none" stroke-width="4px" />
<path d="M 490.0 95.0 L 480.0 95.0" stroke="#FF0000" fill="none" stroke-width="4px" />
<path d="M 480.0 95.0 L 470.0 95.0" stroke="#FF0000" fill="none" stroke-width="4px" />
<path d="M 470.0 95.0 L 460.0 95.0" stroke="#FF0000" fill="none" stroke-width="4px" />
<path d="M 460.0 95.0 L 470.0 85.0" stroke="#FF0000" fill="none" stroke-width="4px" />
<path d="M 470.0 85.0 L 480.0 85.0" stroke="#FF0000" fill="none" stroke-width="4px" />
<path d="M 480.0 85.0 L 490.0 85.0" stroke="#FF0000" fill="none" stroke-width="4px" />
<path d="M 490.0 85.0 L 500.0 95.0" stroke="#FF0000" fill="none" stroke-width="4px" />
<path d="M 850.0 75.0 L 860.0 75.0" stroke="#FF0000" fill="none" stroke-width="4px" />
<path d="M 860.0 75.0 L 870.0 75.0" stroke="#FF0000" fill="none" stroke-width="4px" />
<path d="M 870.0 75.0 L 880.0 75.0" stroke="#FF0000" fill="none" stroke-width="4px" />
<path d="M 880.0 75.0 L 880.0 65.0" stroke="#FF0000" fill="none" stroke-width="4px" />
<path d="M 880.0 65.0 L 870.0 65.0" stroke="#FF0000" fill="none" stroke-width="4px" />
<path d="M 870.0 65.0 L 860.0 65.0" stroke="#FF0000" fill="none" stroke-width="4px" />
<path d="M 860.0 65.0 L 850.0 65.0" stroke="#FF0000" fill="none" stroke-width="4px" />
<path d="M 850.0 65.0 L 850.0 55.0" stroke="#FF0000" fill="none" stroke-width="4px" />
<path d="M 850.0 55.0 L 860.0 55.0" stroke="#FF0000" fill="none" stroke-width="4px" />
<path d="M 860.0 55.0 L 870.0 55.0" stroke="#FF0000" fill="none" stroke-width="4px" />
<path d="M 870.0 55.0 L 880.0 55.0" stroke="#FF0000" fill="none" stroke-width="4px" />
<path d="M 880.0 55.0 L 880.0 45.0" stroke="#FF0000" fill="none" stroke-width="4px" />
<path d="M 880.0 45.0 L 870.0 45.0" stroke="#FF0000" fill="none" stroke-width="4px" />
<path d="M 870.0 45.0 L 860.0 45.0" stroke="#FF0000" fill="none" stroke-width="4px" />
<path d="M 860.0 45.0 L 850.0 45.0" stroke="#FF0000" fill="none" stroke-width="4px" />
<path d="M 850.0 45.0 L 860.0 35.0" stroke="#FF0000" fill="none" stroke-width="4px" />
<path d="M 860.0 35.0 L 870.0 35.0" stroke="#FF0000" fill="none" stroke-width="4px" />
<path d="M 870.0 85.0 L 860.0 85.0" stroke="#FF0000" fill="none" stroke-width="4px" />
<path d="M 890.0 105.0 L 900.0 105.0" stroke="#FF0000" fill="none" stroke-width="4px" />
<path d="M 900.0 105.0 L 910.0 105.0" stroke="#FF0000" fill="none" stroke-width="4px" />
<path d="M 910.0 105.0 L 920.0 105.0" stroke="#FF0000" fill="none" stroke-width="4px" />
<path d="M 920.0 105.0 L 930.0 105.0" stroke="#FF0000" fill="none" stroke-width="4px" />
<path d="M 930.0 105.0 L 930.0 115.0" stroke="#FF0000" fill="none" stroke-width="4px" />
<path d="M 930.0 115.0 L 920.0 115.0" stroke="#FF0000" fill="none" stroke-width="4px" />
<path d="M 920.0 115.0 L 910.0 115.0" stroke="#FF0000" fill="none" stroke-width="4px" />
<path d="M 910.0 115.0 L 900.0 115.0" stroke="#FF0000" fill="none" stroke-width="4px" />
<path d="M 900.0 115.0 L 910.0 125.0" stroke="#FF0000" fill="none" stroke-width="4px" />
<path d="M 910.0 125.0 L 920.0 125.0" stroke="#FF0000" fill="none" stroke-width="4px" />
<path d="M 920.0 95.0 L 910.0 95.0" stroke="#FF0000" fill="none" stroke-width="4px" />
<path d="M 910.0 95.0 L 900.0 95.0" stroke="#FF0000" fill="none" stroke-width="4px" />
<path d="M 900.0 95.0 L 910.0 85.0" stroke="#FF0000" fill="none" stroke-width="4px" />
<path d="M 960.0 95.0 L 970.0 95.0" stroke="#FF0000" fill="none" stroke-width="4px" />
<path d="M 970.0 95.0 L 980.0 95.0" stroke="#FF0000" fill="none" stroke-width="4px" />
<path d="M 980.0 95.0 L 980.0 105.0" stroke="#FF0000" fill="none" stroke-width="4px" />
<path d="M 980.0 105.0 L 970.0 105.0" stroke="#FF0000" fill="none" stroke-width="4px" />
<path d="M 970.0 105.0 L 960.0 105.0" stroke="#FF0000" fill="none" stroke-width="4px" />
<path d="M 960.0 105.0 L 960.0 115.0" stroke="#FF0000" fill="none" stroke-width="4px" />
<path d="M 960.0 115.0 L 970.0 115.0" stroke="#FF0000" fill="none" stroke-width="4px" />
<path d="M 970.0 115.0 L 980.0 115.0" stroke="#FF0000" fill="none" stroke-width="4px" />
<path d="M 980.0 115.0 L 990.0 115.0" stroke="#FF0000" fill="none" stroke-width="4px" />
<path d="M 990.0 115.0 L 990.0 105.0" stroke="#FF0000" fill="none" stroke-width="4px" />
<path d="M 980.0 125.0 L 970.0 125.0" stroke="#FF0000" fill="none" stroke-width="4px" />
<path d="M 1460.0 85.0 L 1470.0 85.0" stroke="#FF0000" fill="none" stroke-width="4px" />
<path d="M 1470.0 85.0 L 1480.0 85.0" stroke="#FF0000" fill="none" stroke-width="4px" />
<path d="M 1480.0 85.0 L 1490.0 85.0" stroke="#FF0000" fill="none" stroke-width="4px" />
<path d="M 1490.0 85.0 L 1500.0 85.0" stroke="#FF0000" fill="none" stroke-width="4px" />
<path d="M 1500.0 85.0 L 1510.0 85.0" stroke="#FF0000" fill="none" stroke-width="4px" />
<path d="M 1510.0 85.0 L 1510.0 95.0" stroke="#FF0000" fill="none" stroke-width="4px" />
<path d="M 1510.0 95.0 L 1500.0 95.0" stroke="#FF0000" fill="none" stroke-width="4px" />
<path d="M 1500.0 95.0 L 1490.0 95.0" stroke="#FF0000" fill="none" stroke-width="4px" />
<path d="M 1490.0 95.0 L 1480.0 95.0" stroke="#FF0000" fill="none" stroke-width="4px" />
<path d="M 1480.0 95.0 L 1470.0 95.0" stroke="#FF0000" fill="none" stroke-width="4px" />
<path d="M 1470.0 95.0 L 1460.0 95.0" stroke="#FF0000" fill="none" stroke-width="4px" />
<path d="M 1460.0 95.0 L 1470.0 105.0" stroke="#FF0000" fill="none" stroke-width="4px" />
<path d="M 1470.0 105.0 L 1480.0 105.0" stroke="#FF0000" fill="none" stroke-width="4px" />
<path d="M 1480.0 105.0 L 1490.0 105.0" stroke="#FF0000" fill="none" stroke-width="4px" />
<path d="M 1490.0 105.0 L 1500.0 105.0" stroke="#FF0000" fill="none" stroke-width="4px" />
<path d="M 1480.0 75.0 L 1470.0 75.0" stroke="#FF0000" fill="none" stroke-width="4px" />
<path d="M 1470.0 75.0 L 1460.0 75.0" stroke="#FF0000" fill="none" stroke-width="4px" />
<path d="M 1460.0 75.0 L 1470.0 65.0" stroke="#FF0000" fill="none" stroke-width="4px" />
<path d="M 1470.0 65.0 L 1480.0 65.0" stroke="#FF0000" fill="none" stroke-width="4px" />
<path d="M 1480.0 65.0 L 1490.0 65.0" stroke="#FF0000" fill="none" stroke-width="4px" />
<path d="M 1490.0 65.0 L 1490.0 75.0" stroke="#FF0000" fill="none" stroke-width="4px" />
<path d="M 1490.0 75.0 L 1500.0 75.0" stroke="#FF0000" fill="none" stroke-width="4px" />
<path d="M 1720.0 55.0 L 1730.0 55.0" stroke="#FF0000" fill="none" stroke-width="4px" />
<path d="M 1730.0 55.0 L 1740.0 55.0" stroke="#FF0000" fill="none" stroke-width="4px" />
<path d="M 1740.0 55.0 L 1750.0 55.0" stroke="#FF0000" fill="none" stroke-width="4px" />
<path d="M 1750.0 55.0 L 1760.0 55.0" stroke="#FF0000" fill="none" stroke-width="4px" />
<path d="M 1760.0 55.0 L 1770.0 55.0" stroke="#FF0000" fill="none" stroke-width="4px" />
<path d="M 1770.0 55.0 L 1780.0 55.0" stroke="#FF0000" fill="none" stroke-width="4px" />
<path d="M 1780.0 55.0 L 1790.0 55.0" stroke="#FF0000" fill="none" stroke-width="4px" />
<path d="M 1790.0 55.0 L 1800.0 55.0" stroke="#FF0000" fill="none" stroke-width="4px" />
<path d="M 1800.0 55.0 L 1810.0 55.0" stroke="#FF0000" fill="none" stroke-width="4px" />
<path d="M 1810.0 55.0 L 1820.0 55.0" stroke="#FF0000" fill="none" stroke-width="4px" />
<path d="M 1820.0 55.0 L 1820.0 65.0" stroke="#FF0000" fill="none" stroke-width="4px" />
<path d="M 1820.0 65.0 L 1810.0 65.0" stroke="#FF0000" fill="none" stroke-width="4px" />
<path d="M 1810.0 65.0 L 1800.0 65.0" stroke="#FF0000" fill="none" stroke-width="4px" />
<path d="M 1800.0 65.0 L 1790.0 65.0" stroke="#FF0000" fill="none" stroke-width="4px" />
<path d="M 1790.0 65.0 L 1780.0 65.0" stroke="#FF0000" fill="none" stroke-width="4px" />
<path d="M 1780.0 65.0 L 1770.0 65.0" stroke="#FF0000" fill="none" stroke-width="4px" />
<path d="M 1770.0 65.0 L 1760.0 65.0" stroke="#FF0000" fill="none" stroke-width="4px" />
<path d="M 1760.0 65.0 L 1750.0 65.0" stroke="#FF0000" fill="none" stroke-width="4px" />
<path d="M 1750.0 65.0 L 1740.0 65.0" stroke="#FF0000" fill="none" stroke-width="4px" />
<path d="M 1740.0 65.0 L 1730.0 65.0" stroke="#FF0000" fill="none" stroke-width="4px" />
<path d="M 1730.0 65.0 L 1740.0 75.0" stroke="#FF0000" fill="none" stroke-width="4px" />
<path d="M 1740.0 75.0 L 1750.0 75.0" stroke="#FF0000" fill="none" stroke-width="4px" />
<path d="M 1780.0 75.0 L 1790.0 75.0" stroke="#FF0000" fill="none" stroke-width="4px" />
<path d="M 1790.0 75.0 L 1800.0 75.0" stroke="#FF0000" fill="none" stroke-width="4px" />
<path d="M 1800.0 75.0 L 1810.0 75.0" stroke="#FF0000" fill="none" stroke-width="4px" />
<path d="M 1810.0 75.0 L 1820.0 75.0" stroke="#FF0000" fill="none" stroke-width="4px" />
<path d="M 1820.0 75.0 L 1830.0 75.0" stroke="#FF0000" fill="none" stroke-width="4px" />
<path d="M 1830.0 75.0 L 1830.0 85.0" stroke="#FF0000" fill="none" stroke-width="4px" />
<path d="M 1830.0 85.0 L 1820.0 85.0" stroke="#FF0000" fill="none" stroke-width="4px" />
<path d="M 1820.0 85.0 L 1810.0 85.0" stroke="#FF0000" fill="none" stroke-width="4px" />
<path d="M 1810.0 85.0 L 1800.0 85.0" stroke="#FF0000" fill="none" stroke-width="4px" />
<path d="M 1800.0 85.0 L 1790.0 85.0" stroke="#FF0000" fill="none" stroke-width="4px" />
<path d="M 1790.0 85.0 L 1780.0 85.0" stroke="#FF0000" fill="none" stroke-width="4px" />
<path d="M 1780.0 85.0 L 1790.0 95.0" stroke="#FF0000" fill="none" stroke-width="4px" />
<path d="M 1790.0 95.0 L 1800.0 95.0" stroke="#FF0000" fill="none" stroke-width="4px" />
<path d="M 1800.0 95.0 L 1810.0 95.0" stroke="#FF0000" fill="none" stroke-width="4px" />
<path d="M 1810.0 95.0 L 1820.0 95.0" stroke="#FF0000" fill="none" stroke-width="4px" />
<path d="M 1820.0 95.0 L 1810.0 105.0" stroke="#FF0000" fill="none" stroke-width="4px" />
<path d="M 1810.0 105.0 L 1800.0 105.0" stroke="#FF0000" fill="none" stroke-width="4px" />
<path d="M 1810.0 45.0 L 1800.0 45.0" stroke="#FF0000" fill="none" stroke-width="4px" />
<path d="M 1800.0 45.0 L 1790.0 45.0" stroke="#FF0000" fill="none" stroke-width="4px" />
<path d="M 1760.0 45.0 L 1750.0 45.0" stroke="#FF0000" fill="none" stroke-width="4px" />
<path d="M 1750.0 45.0 L 1740.0 45.0" stroke="#FF0000" fill="none" stroke-width="4px" />
<path d="M 1740.0 45.0 L 1730.0 45.0" stroke="#FF0000" fill="none" stroke-width="4px" />
<path d="M 1730.0 45.0 L 1720.0 45.0" stroke="#FF0000" fill="none" stroke-width="4px" />
<path d="M 1720.0 45.0 L 1720.0 35.0" stroke="#FF0000" fill="none" stroke-width="4px" />
<path d="M 1720.0 35.0 L 1730.0 35.0" stroke="#FF0000" fill="none" stroke-width="4px" />
<path d="M 1730.0 35.0 L 1740.0 35.0" stroke="#FF0000" fill="none" stroke-width="4px" />
<path d="M 1740.0 35.0 L 1750.0 35.0" stroke="#FF0000" fill="none" stroke-width="4px" />
<path d="M 1750.0 35.0 L 1760.0 35.0" stroke="#FF0000" fill="none" stroke-width="4px" />
<path d="M 1760.0 35.0 L 1750.0 25.0" stroke="#FF0000" fill="none" stroke-width="4px" />
<path d="M 1750.0 25.0 L 1740.0 25.0" stroke="#FF0000" fill="none" stroke-width="4px" />
<path d="M 1740.0 25.0 L 1730.0 25.0" stroke="#FF0000" fill="none" stroke-width="4px" />
<path d="M 2472.26666667 235.0 L 2460.0 225.0" stroke="#FF0000" fill="none" stroke-width="4px" />
<path d="M 2460.0 225.0 L 2450.0 225.0" stroke="#FF0000" fill="none" stroke-width="4px" />
<path d="M 2450.0 225.0 L 2440.0 225.0" stroke="#FF0000" fill="none" stroke-width="4px" />
<path d="M 2440.0 225.0 L 2430.0 225.0" stroke="#FF0000" fill="none" stroke-width="4px" />
<path d="M 2430.0 225.0 L 2430.0 215.0" stroke="#FF0000" fill="none" stroke-width="4px" />
<path d="M 2430.0 215.0 L 2420.0 215.0" stroke="#FF0000" fill="none" stroke-width="4px" />
<path d="M 2420.0 215.0 L 2420.0 205.0" stroke="#FF0000" fill="none" stroke-width="4px" />
<path d="M 2420.0 205.0 L 2430.0 205.0" stroke="#FF0000" fill="none" stroke-width="4px" />
<path d="M 2430.0 205.0 L 2440.0 205.0" stroke="#FF0000" fill="none" stroke-width="4px" />
<path d="M 2440.0 205.0 L 2450.0 205.0" stroke="#FF0000" fill="none" stroke-width="4px" />
<path d="M 2450.0 205.0 L 2460.0 205.0" stroke="#FF0000" fill="none" stroke-width="4px" />
<path d="M 2460.0 205.0 L 2470.0 205.0" stroke="#FF0000" fill="none" stroke-width="4px" />
<path d="M 2470.0 205.0 L 2470.0 215.0" stroke="#FF0000" fill="none" stroke-width="4px" />
<path d="M 2470.0 215.0 L 2460.0 215.0" stroke="#FF0000" fill="none" stroke-width="4px" />
<path d="M 2460.0 215.0 L 2450.0 215.0" stroke="#FF0000" fill="none" stroke-width="4px" />
<path d="M 2450.0 215.0 L 2440.0 215.0" stroke="#FF0000" fill="none" stroke-width="4px" />
<path d="M 2440.0 235.0 L 2450.0 235.0" stroke="#FF0000" fill="none" stroke-width="4px" />
<path d="M 2450.0 195.0 L 2440.0 195.0" stroke="#FF0000" fill="none" stroke-width="4px" />
<path d="M 2440.0 195.0 L 2430.0 195.0" stroke="#FF0000" fill="none" stroke-width="4px" />
<path d="M 2430.0 195.0 L 2420.0 195.0" stroke="#FF0000" fill="none" stroke-width="4px" />
<path d="M 2420.0 195.0 L 2420.0 185.0" stroke="#FF0000" fill="none" stroke-width="4px" />
<path d="M 2420.0 185.0 L 2430.0 185.0" stroke="#FF0000" fill="none" stroke-width="4px" />
<path d="M 2430.0 185.0 L 2440.0 185.0" stroke="#FF0000" fill="none" stroke-width="4px" />
<path d="M 2440.0 185.0 L 2450.0 185.0" stroke="#FF0000" fill="none" stroke-width="4px" />
<path d="M 2450.0 185.0 L 2460.0 185.0" stroke="#FF0000" fill="none" stroke-width="4px" />
<path d="M 2460.0 185.0 L 2460.0 195.0" stroke="#FF0000" fill="none" stroke-width="4px" />
<path d="M 2460.0 195.0 L 2470.0 195.0" stroke="#FF0000" fill="none" stroke-width="4px" />
<path d="M 2450.0 175.0 L 2440.0 175.0" stroke="#FF0000" fill="none" stroke-width="4px" />
<path d="M 2440.0 175.0 L 2430.0 175.0" stroke="#FF0000" fill="none" stroke-width="4px" />
<path d="M 2430.0 175.0 L 2420.0 175.0" stroke="#FF0000" fill="none" stroke-width="4px" />
<path d="M 2420.0 175.0 L 2430.0 165.0" stroke="#FF0000" fill="none" stroke-width="4px" />
<path d="M 2430.0 165.0 L 2440.0 165.0" stroke="#FF0000" fill="none" stroke-width="4px" />
<path d="M 2440.0 145.0 L 2430.0 145.0" stroke="#FF0000" fill="none" stroke-width="4px" />
<path d="M 2430.0 145.0 L 2430.0 135.0" stroke="#FF0000" fill="none" stroke-width="4px" />
<path d="M 2430.0 135.0 L 2420.0 135.0" stroke="#FF0000" fill="none" stroke-width="4px" />
<path d="M 2420.0 135.0 L 2420.0 125.0" stroke="#FF0000" fill="none" stroke-width="4px" />
<path d="M 2420.0 125.0 L 2410.0 125.0" stroke="#FF0000" fill="none" stroke-width="4px" />
<path d="M 2410.0 125.0 L 2410.0 115.0" stroke="#FF0000" fill="none" stroke-width="4px" />
<path d="M 2410.0 115.0 L 2400.0 115.0" stroke="#FF0000" fill="none" stroke-width="4px" />
<path d="M 2400.0 115.0 L 2410.0 105.0" stroke="#FF0000" fill="none" stroke-width="4px" />
<path d="M 2410.0 105.0 L 2420.0 105.0" stroke="#FF0000" fill="none" stroke-width="4px" />
<path d="M 2420.0 105.0 L 2430.0 105.0" stroke="#FF0000" fill="none" stroke-width="4px" />
<path d="M 2430.0 105.0 L 2440.0 105.0" stroke="#FF0000" fill="none" stroke-width="4px" />
<path d="M 2440.0 105.0 L 2450.0 105.0" stroke="#FF0000" fill="none" stroke-width="4px" />
<path d="M 2450.0 105.0 L 2460.0 105.0" stroke="#FF0000" fill="none" stroke-width="4px" />
<path d="M 2460.0 105.0 L 2470.0 105.0" stroke="#FF0000" fill="none" stroke-width="4px" />
<path d="M 2470.0 105.0 L 2470.0 115.0" stroke="#FF0000" fill="none" stroke-width="4px" />
<path d="M 2470.0 115.0 L 2460.0 115.0" stroke="#FF0000" fill="none" stroke-width="4px" />
<path d="M 2460.0 115.0 L 2450.0 115.0" stroke="#FF0000" fill="none" stroke-width="4px" />
<path d="M 2450.0 115.0 L 2440.0 115.0" stroke="#FF0000" fill="none" stroke-width="4px" />
<path d="M 2440.0 115.0 L 2430.0 115.0" stroke="#FF0000" fill="none" stroke-width="4px" />
<path d="M 2430.0 115.0 L 2420.0 115.0" stroke="#FF0000" fill="none" stroke-width="4px" />
<path d="M 2420.0 115.0 L 2430.0 125.0" stroke="#FF0000" fill="none" stroke-width="4px" />
<path d="M 2430.0 125.0 L 2440.0 125.0" stroke="#FF0000" fill="none" stroke-width="4px" />
<path d="M 2440.0 125.0 L 2450.0 125.0" stroke="#FF0000" fill="none" stroke-width="4px" />
<path d="M 2450.0 125.0 L 2460.0 125.0" stroke="#FF0000" fill="none" stroke-width="4px" />
<path d="M 2460.0 125.0 L 2450.0 135.0" stroke="#FF0000" fill="none" stroke-width="4px" />
<path d="M 2450.0 135.0 L 2440.0 135.0" stroke="#FF0000" fill="none" stroke-width="4px" />
<path d="M 2440.0 95.0 L 2430.0 95.0" stroke="#FF0000" fill="none" stroke-width="4px" />
<path d="M 2430.0 95.0 L 2420.0 95.0" stroke="#FF0000" fill="none" stroke-width="4px" />
<path d="M 2420.0 95.0 L 2420.0 85.0" stroke="#FF0000" fill="none" stroke-width="4px" />
<path d="M 2420.0 85.0 L 2430.0 85.0" stroke="#FF0000" fill="none" stroke-width="4px" />
<path d="M 2430.0 85.0 L 2440.0 85.0" stroke="#FF0000" fill="none" stroke-width="4px" />
<path d="M 2440.0 85.0 L 2450.0 85.0" stroke="#FF0000" fill="none" stroke-width="4px" />
<path d="M 2450.0 85.0 L 2460.0 85.0" stroke="#FF0000" fill="none" stroke-width="4px" />
<path d="M 2460.0 85.0 L 2470.0 85.0" stroke="#FF0000" fill="none" stroke-width="4px" />
<path d="M 2470.0 85.0 L 2470.0 95.0" stroke="#FF0000" fill="none" stroke-width="4px" />
<path d="M 2470.0 95.0 L 2460.0 95.0" stroke="#FF0000" fill="none" stroke-width="4px" />
<path d="M 2460.0 95.0 L 2450.0 95.0" stroke="#FF0000" fill="none" stroke-width="4px" />
<path d="M 2450.0 75.0 L 2440.0 75.0" stroke="#FF0000" fill="none" stroke-width="4px" />
<path d="M 2440.0 75.0 L 2430.0 75.0" stroke="#FF0000" fill="none" stroke-width="4px" />
<path d="M 2430.0 75.0 L 2420.0 75.0" stroke="#FF0000" fill="none" stroke-width="4px" />
<path d="M 2420.0 75.0 L 2430.0 65.0" stroke="#FF0000" fill="none" stroke-width="4px" />
<path d="M 2430.0 65.0 L 2440.0 65.0" stroke="#FF0000" fill="none" stroke-width="4px" />
<path d="M 2440.0 65.0 L 2450.0 65.0" stroke="#FF0000" fill="none" stroke-width="4px" />
<path d="M 2450.0 65.0 L 2460.0 75.0" stroke="#FF0000" fill="none" stroke-width="4px" />
<path d="M 2440.0 55.0 L 2430.0 55.0" stroke="#FF0000" fill="none" stroke-width="4px" />
<path d="M 2430.0 55.0 L 2420.0 55.0" stroke="#FF0000" fill="none" stroke-width="4px" />
<path d="M 2420.0 55.0 L 2420.0 45.0" stroke="#FF0000" fill="none" stroke-width="4px" />
<path d="M 2420.0 45.0 L 2410.0 45.0" stroke="#FF0000" fill="none" stroke-width="4px" />
<path d="M 2410.0 45.0 L 2420.0 35.0" stroke="#FF0000" fill="none" stroke-width="4px" />
<path d="M 2420.0 35.0 L 2430.0 35.0" stroke="#FF0000" fill="none" stroke-width="4px" />
<path d="M 2430.0 35.0 L 2440.0 35.0" stroke="#FF0000" fill="none" stroke-width="4px" />
<path d="M 2440.0 35.0 L 2450.0 35.0" stroke="#FF0000" fill="none" stroke-width="4px" />
<path d="M 2450.0 35.0 L 2460.0 35.0" stroke="#FF0000" fill="none" stroke-width="4px" />
<path d="M 2460.0 35.0 L 2450.0 45.0" stroke="#FF0000" fill="none" stroke-width="4px" />
<path d="M 2450.0 45.0 L 2440.0 45.0" stroke="#FF0000" fill="none" stroke-width="4px" />
<path d="M 2440.0 45.0 L 2430.0 45.0" stroke="#FF0000" fill="none" stroke-width="4px" />
<path d="M 2430.0 25.0 L 2440.0 25.0" stroke="#FF0000" fill="none" stroke-width="4px" />
<path d="M 2440.0 25.0 L 2450.0 25.0" stroke="#FF0000" fill="none" stroke-width="4px" />
<path d="M 2450.0 25.0 L 2440.0 15.0" stroke="#FF0000" fill="none" stroke-width="4px" />
<path d="M 2280.0 35.0 L 2270.0 35.0" stroke="#FF0000" fill="none" stroke-width="4px" />
<path d="M 2270.0 35.0 L 2260.0 35.0" stroke="#FF0000" fill="none" stroke-width="4px" />
<path d="M 2260.0 35.0 L 2250.0 35.0" stroke="#FF0000" fill="none" stroke-width="4px" />
<path d="M 2250.0 35.0 L 2240.0 35.0" stroke="#FF0000" fill="none" stroke-width="4px" />
<path d="M 2240.0 35.0 L 2230.0 35.0" stroke="#FF0000" fill="none" stroke-width="4px" />
<path d="M 2230.0 35.0 L 2230.0 45.0" stroke="#FF0000" fill="none" stroke-width="4px" />
<path d="M 2230.0 45.0 L 2240.0 45.0" stroke="#FF0000" fill="none" stroke-width="4px" />
<path d="M 2240.0 45.0 L 2250.0 45.0" stroke="#FF0000" fill="none" stroke-width="4px" />
<path d="M 2250.0 45.0 L 2260.0 45.0" stroke="#FF0000" fill="none" stroke-width="4px" />
<path d="M 2260.0 45.0 L 2270.0 45.0" stroke="#FF0000" fill="none" stroke-width="4px" />
<path d="M 2270.0 45.0 L 2280.0 45.0" stroke="#FF0000" fill="none" stroke-width="4px" />
<path d="M 2280.0 45.0 L 2280.0 55.0" stroke="#FF0000" fill="none" stroke-width="4px" />
<path d="M 2280.0 55.0 L 2270.0 55.0" stroke="#FF0000" fill="none" stroke-width="4px" />
<path d="M 2270.0 55.0 L 2260.0 55.0" stroke="#FF0000" fill="none" stroke-width="4px" />
<path d="M 2260.0 55.0 L 2250.0 55.0" stroke="#FF0000" fill="none" stroke-width="4px" />
<path d="M 2250.0 55.0 L 2240.0 55.0" stroke="#FF0000" fill="none" stroke-width="4px" />
<path d="M 2240.0 55.0 L 2230.0 55.0" stroke="#FF0000" fill="none" stroke-width="4px" />
<path d="M 2230.0 55.0 L 2240.0 65.0" stroke="#FF0000" fill="none" stroke-width="4px" />
<path d="M 2240.0 65.0 L 2250.0 65.0" stroke="#FF0000" fill="none" stroke-width="4px" />
<path d="M 2250.0 65.0 L 2260.0 65.0" stroke="#FF0000" fill="none" stroke-width="4px" />
<path d="M 2260.0 65.0 L 2270.0 65.0" stroke="#FF0000" fill="none" stroke-width="4px" />
<path d="M 2270.0 65.0 L 2260.0 75.0" stroke="#FF0000" fill="none" stroke-width="4px" />
<path d="M 2260.0 75.0 L 2250.0 75.0" stroke="#FF0000" fill="none" stroke-width="4px" />
<path d="M 2250.0 25.0 L 2240.0 25.0" stroke="#FF0000" fill="none" stroke-width="4px" />
<path d="M 2240.0 25.0 L 2260.0 25.0" stroke="#FF0000" fill="none" stroke-width="4px" />
<path d="M 2260.0 25.0 L 2270.0 25.0" stroke="#FF0000" fill="none" stroke-width="4px" />
<path d="M 2080.0 125.0 L 2080.0 135.0" stroke="#FF0000" fill="none" stroke-width="4px" />
<path d="M 2080.0 135.0 L 2070.0 135.0" stroke="#FF0000" fill="none" stroke-width="4px" />
<path d="M 2070.0 135.0 L 2070.0 145.0" stroke="#FF0000" fill="none" stroke-width="4px" />
<path d="M 2070.0 145.0 L 2060.0 145.0" stroke="#FF0000" fill="none" stroke-width="4px" />
<path d="M 2060.0 145.0 L 2060.0 155.0" stroke="#FF0000" fill="none" stroke-width="4px" />
<path d="M 2060.0 155.0 L 2070.0 155.0" stroke="#FF0000" fill="none" stroke-width="4px" />
<path d="M 2070.0 155.0 L 2080.0 155.0" stroke="#FF0000" fill="none" stroke-width="4px" />
<path d="M 2080.0 155.0 L 2090.0 155.0" stroke="#FF0000" fill="none" stroke-width="4px" />
<path d="M 2090.0 155.0 L 2090.0 145.0" stroke="#FF0000" fill="none" stroke-width="4px" />
<path d="M 2090.0 145.0 L 2080.0 145.0" stroke="#FF0000" fill="none" stroke-width="4px" />
<path d="M 2080.0 145.0 L 2090.0 135.0" stroke="#FF0000" fill="none" stroke-width="4px" />
<path d="M 2090.0 135.0 L 2100.0 145.0" stroke="#FF0000" fill="none" stroke-width="4px" />
<path d="M 2080.0 165.0 L 2070.0 165.0" stroke="#FF0000" fill="none" stroke-width="4px" />
<path d="M 2000.0 135.0 L 1990.0 135.0" stroke="#FF0000" fill="none" stroke-width="4px" />
<path d="M 1990.0 135.0 L 1980.0 135.0" stroke="#FF0000" fill="none" stroke-width="4px" />
<path d="M 1980.0 135.0 L 1980.0 125.0" stroke="#FF0000" fill="none" stroke-width="4px" />
<path d="M 1980.0 125.0 L 1970.0 125.0" stroke="#FF0000" fill="none" stroke-width="4px" />
<path d="M 1970.0 125.0 L 1970.0 115.0" stroke="#FF0000" fill="none" stroke-width="4px" />
<path d="M 1970.0 115.0 L 1980.0 115.0" stroke="#FF0000" fill="none" stroke-width="4px" />
<path d="M 1980.0 115.0 L 1990.0 115.0" stroke="#FF0000" fill="none" stroke-width="4px" />
<path d="M 1990.0 115.0 L 2000.0 115.0" stroke="#FF0000" fill="none" stroke-width="4px" />
<path d="M 2000.0 115.0 L 2010.0 115.0" stroke="#FF0000" fill="none" stroke-width="4px" />
<path d="M 2010.0 115.0 L 2010.0 125.0" stroke="#FF0000" fill="none" stroke-width="4px" />
<path d="M 2010.0 125.0 L 2000.0 125.0" stroke="#FF0000" fill="none" stroke-width="4px" />
<path d="M 2000.0 125.0 L 1990.0 125.0" stroke="#FF0000" fill="none" stroke-width="4px" />
<path d="M 1990.0 105.0 L 1980.0 105.0" stroke="#FF0000" fill="none" stroke-width="4px" />
<path d="M 1980.0 105.0 L 1970.0 105.0" stroke="#FF0000" fill="none" stroke-width="4px" />
<path d="M 1970.0 105.0 L 1980.0 95.0" stroke="#FF0000" fill="none" stroke-width="4px" />
<path d="M 1980.0 95.0 L 1990.0 95.0" stroke="#FF0000" fill="none" stroke-width="4px" />
<path d="M 1990.0 95.0 L 2000.0 95.0" stroke="#FF0000" fill="none" stroke-width="4px" />
<path d="M 2000.0 95.0 L 2000.0 105.0" stroke="#FF0000" fill="none" stroke-width="4px" />
<path d="M 2000.0 105.0 L 2010.0 105.0" stroke="#FF0000" fill="none" stroke-width="4px" />
<path d="M 1970.0 75.0 L 1960.0 75.0" stroke="#FF0000" fill="none" stroke-width="4px" />
<path d="M 1960.0 75.0 L 1950.0 75.0" stroke="#FF0000" fill="none" stroke-width="4px" />
<path d="M 1950.0 75.0 L 1950.0 65.0" stroke="#FF0000" fill="none" stroke-width="4px" />
<path d="M 1950.0 65.0 L 1940.0 65.0" stroke="#FF0000" fill="none" stroke-width="4px" />
<path d="M 1940.0 65.0 L 1940.0 55.0" stroke="#FF0000" fill="none" stroke-width="4px" />
<path d="M 1940.0 55.0 L 1950.0 55.0" stroke="#FF0000" fill="none" stroke-width="4px" />
<path d="M 1950.0 55.0 L 1960.0 55.0" stroke="#FF0000" fill="none" stroke-width="4px" />
<path d="M 1960.0 55.0 L 1970.0 55.0" stroke="#FF0000" fill="none" stroke-width="4px" />
<path d="M 1970.0 55.0 L 1970.0 65.0" stroke="#FF0000" fill="none" stroke-width="4px" />
<path d="M 1970.0 65.0 L 1960.0 65.0" stroke="#FF0000" fill="none" stroke-width="4px" />
<path d="M 1960.0 65.0 L 1980.0 65.0" stroke="#FF0000" fill="none" stroke-width="4px" />
<path d="M 1960.0 45.0 L 1950.0 45.0" stroke="#FF0000" fill="none" stroke-width="4px" />
</svg>