<svg width="2472.26666667" height="235.0" xmlns="http://www.w3.org/2000/svg" version="1.1">
<path d="M 0.0 235.0 L 1985.0 235.0 L 1985.0 0.0 L 0.0 0.0 L 0.0 235.0" stroke="#000000" fill="none" stroke-width="3px" />
<path d="M 2472.26666667 235.0 L 1885.0 235.0 L 1885.0 0.0 L 2472.26666667 0.0 L 2472.26666667 235.0" stroke="#000000" fill="none" stroke-width="3px" />
<path d="M 10.0 257.5 L 0.0 247.5 L 10.0 237.5" stroke="#969696" fill="none" stroke-width="1px" />
<path d="M 10.0 237.5 L 1975.0 237.5" stroke="#969696" fill="none" stroke-width="1px" />
<path d="M 1975.0 237.5 L 1985.0 227.5 L 1975.0 217.5" stroke="#969696" fill="none" stroke-width="1px" />
<path d="M 1975.0 217.5 L 10.0 217.5" stroke="#969696" fill="none" stroke-width="1px" />
<path d="M 10.0 217.5 L 0.0 207.5 L 10.0 197.5" stroke="#969696" fill="none" stroke-width="1px" />
<path d="M 10.0 197.5 L 1975.0 197.5" stroke="#969696" fill="none" stroke-width="1px" />
<path d="M 1975.0 197.5 L 1985.0 187.5 L 1975.0 177.5" stroke="#969696" fill="none" stroke-width="1px" />
<path d="M 1975.0 177.5 L 10.0 177.5" stroke="#969696" fill="none" stroke-width="1px" />
<path d="M 10.0 177.5 L 0.0 167.5 L 10.0 157.5" stroke="#969696" fill="none" stroke-width="1px" />
<path d="M 10.0 157.5 L 1975.0 157.5" stroke="#969696" fill="none" stroke-width="1px" />
<path d="M 1975.0 157.5 L 1985.0 147.5 L 1975.0 137.5" stroke="#969696" fill="none" stroke-width="1px" />
<path d="M 1975.0 137.5 L 10.0 137.5" stroke="#969696" fill="none" stroke-width="1px" />
<path d="M 10.0 137.5 L 0.0 127.5 L 10.0 117.5" stroke="#969696" fill="none" stroke-width="1px" />
<path d="M 10.0 117.5 L 1975.0 117.5" stroke="#969696" fill="none" stroke-width="1px" />
<path d="M 1975.0 117.5 L 1985.0 107.5 L 1975.0 97.5" stroke="#969696" fill="none" stroke-width="1px" />
<path d="M 1975.0 97.5 L 10.0 97.5" stroke="#969696" fill="none" stroke-width="1px" />
<path d="M 10.0 97.5 L 0.0 87.5 L 10.0 77.5" stroke="#969696" fill="none" stroke-width="1px" />
<path d="M 10.0 77.5 L 1975.0 77.5" stroke="#969696" fill="none" stroke-width="1px" />
<path d="M 1975.0 77.5 L 1985.0 67.5 L 1975.0 57.5" stroke="#969696" fill="none" stroke-width="1px" />
<path d="M 1975.0 57.5 L 10.0 57.5" stroke="#969696" fill="none" stroke-width="1px" />
<path d="M 10.0 57.5 L 0.0 47.5 L 10.0 37.5" stroke="#969696" fill="none" stroke-width="1px" />
<path d="M 10.0 37.5 L 1975.0 37.5" stroke="#969696" fill="none" stroke-width="1px" />
<path d="M 1975.0 37.5 L 1985.0 27.5 L 1975.0 17.5" stroke="#969696" fill="none" stroke-width="1px" />
<path d="M 1975.0 17.5 L 10.0 17.5" stroke="#969696" fill="none" stroke-width="1px" />
<path d="M 10.0 17.5 L 0.0 7.5 L 10.0 -2.5" stroke="#969696" fill="none" stroke-width="1px" />
<path d="M 10.0 -2.5 L 1975.0 -2.5" stroke="#969696" fill="none" stroke-width="1px" />
<path d="M 1975.0 -2.5 L 1985.0 -12.5 L 1975.0 -22.5" stroke="#969696" fill="none" stroke-width="1px" />
<path d="M 2462.26666667 257.5 L 2472.26666667 247.5 L 2462.26666667 237.5" stroke="#969696" fill="none" stroke-width="1px" />
<path d="M 2462.26666667 237.5 L 1895.0 237.5" stroke="#969696" fill="none" stroke-width="1px" />
<path d="M 1895.0 237.5 L 1885.0 227.5 L 1895.0 217.5" stroke="#969696" fill="none" stroke-width="1px" />
<path d="M 1895.0 217.5 L 2462.26666667 217.5" stroke="#969696" fill="none" stroke-width="1px" />
<path d="M 2462.26666667 217.5 L 2472.26666667 207.5 L 2462.26666667 197.5" stroke="#969696" fill="none" stroke-width="1px" />
<path d="M 2462.26666667 197.5 L 1895.0 197.5" stroke="#969696" fill="none" stroke-width="1px" />
<path d="M 1895.0 197.5 L 1885.0 187.5 L 1895.0 177.5" stroke="#969696" fill="none" stroke-width="1px" />
<path d="M 1895.0 177.5 L 2462.26666667 177.5" stroke="#969696" fill="none" stroke-width="1px" />
<path d="M 2462.26666667 177.5 L 2472.26666667 167.5 L 2462.26666667 157.5" stroke="#969696" fill="none" stroke-width="1px" />
<path d="M 2462.26666667 157.5 L 1895.0 157.5" stroke="#969696" fill="none" stroke-width="1px" />
<path d="M 1895.0 157.5 L 1885.0 147.5 L 1895.0 137.5" stroke="#969696" fill="none" stroke-width="1px" />
<path d="M 1895.0 137.5 L 2462.26666667 137.5" stroke="#969696" fill="none" stroke-width="1px" />
<path d="M 2462.26666667 137.5 L 2472.26666667 127.5 L 2462.26666667 117.5" stroke="#969696" fill="none" stroke-width="1px" />
<path d="M 2462.26666667 117.5 L 1895.0 117.5" stroke="#969696" fill="none" stroke-width="1px" />
<path d="M 1895.0 117.5 L 1885.0 107.5 L 1895.0 97.5" stroke="#969696" fill="none" stroke-width="1px" />
<path d="M 1895.0 97.5 L 2462.26666667 97.5" stroke="#969696" fill="none" stroke-width="1px" />
<path d="M 2462.26666667 97.5 L 2472.26666667 87.5 L 2462.26666667 77.5" stroke="#969696" fill="none" stroke-width="1px" />
<path d="M 2462.26666667 77.5 L 1895.0 77.5" stroke="#969696" fill="none" stroke-width="1px" />
<path d="M 1895.0 77.5 L 1885.0 67.5 L 1895.0 57.5" stroke="#969696" fill="none" stroke-width="1px" />
<path d="M 1895.0 57.5 L 2462.26666667 57.5" stroke="#969696" fill="none" stroke-width="1px" />
<path d="M 2462.26666667 57.5 L 2472.26666667 47.5 L 2462.26666667 37.5" stroke="#969696" fill="none" stroke-width="1px" />
<path d="M 2462.26666667 37.5 L 1895.0 37.5" stroke="#969696" fill="none" stroke-width="1px" />
<path d="M 1895.0 37.5 L 1885.0 27.5 L 1895.0 17.5" stroke="#969696" fill="none" stroke-width="1px" />
<path d="M 1895.0 17.5 L 2462.26666667 17.5" stroke="#969696" fill="none" stroke-width="1px" />
<path d="M 2462.26666667 17.5 L 2472.26666667 7.5 L 2462.26666667 -2.5" stroke="#969696" fill="none" stroke-width="1px" />
<path d="M 2462.26666667 -2.5 L 1895.0 -2.5" stroke="#969696" fill="none" stroke-width="1px" />
<path d="M 1895.0 -2.5 L 1885.0 -12.5 L 1895.0 -22.5" stroke="#969696" fill="none" stroke-width="1px" />
<path d="M 0.0 235.0 L 310.0 235.0" stroke="#0095FF" fill="none" stroke-width="2px" />
<path d="M 310.0 235.0 L 310.0 135.0" stroke="#0095FF" fill="none" stroke-width="2px" />
<path d="M 300.0 15.0 L 300.0 65.0" stroke="#0095FF" fill="none" stroke-width="2px" />
<path d="M 320.0 85.0 L 320.0 65.0" stroke="#0095FF" fill="none" stroke-width="2px" />
<path d="M 330.0 65.0 L 370.0 65.0" stroke="#0095FF" fill="none" stroke-width="2px" />
<path d="M 370.0 65.0 L 370.0 85.0" stroke="#0095FF" fill="none" stroke-width="2px" />
<path d="M 370.0 85.0 L 370.0 115.0" stroke="#0095FF" fill="none" stroke-width="2px" />
<path d="M 320.0 115.0 L 290.0 115.0" stroke="#0095FF" fill="none" stroke-width="2px" />
<path d="M 290.0 115.0 L 290.0 95.0" stroke="#0095FF" fill="none" stroke-width="2px" />
<path d="M 280.0 95.0 L 320.0 95.0" stroke="#0095FF" fill="none" stroke-width="2px" />
<path d="M 320.0 95.0 L 320.0 145.0" stroke="#0095FF" fill="none" stroke-width="2px" />
<path d="M 350.0 145.0 L 370.0 145.0" stroke="#0095FF" fill="none" stroke-width="2px" />
<path d="M 370.0 145.0 L 370.0 125.0" stroke="#0095FF" fill="none" stroke-width="2px" />
<path d="M 370.0 125.0 L 720.0 125.0" stroke="#0095FF" fill="none" stroke-width="2px" />
<path d="M 720.0 125.0 L 720.0 155.0" stroke="#0095FF" fill="none" stroke-width="2px" />
<path d="M 760.0 215.0 L 810.0 215.0" stroke="#0095FF" fill="none" stroke-width="2px" />
<path d="M 810.0 215.0 L 810.0 165.0" stroke="#0095FF" fill="none" stroke-width="2px" />
<path d="M 810.0 165.0 L 790.0 165.0" stroke="#0095FF" fill="none" stroke-width="2px" />
<path d="M 790.0 165.0 L 790.0 145.0" stroke="#0095FF" fill="none" stroke-width="2px" />
<path d="M 780.0 135.0 L 1490.0 135.0" stroke="#0095FF" fill="none" stroke-width="2px" />
<path d="M 1490.0 135.0 L 1490.0 75.0" stroke="#0095FF" fill="none" stroke-width="2px" />
<path d="M 1550.0 35.0 L 1550.0 85.0" stroke="#0095FF" fill="none" stroke-width="2px" />
<path d="M 2472.26666667 235.0 L 2350.0 235.0" stroke="#0095FF" fill="none" stroke-width="2px" />
<path d="M 2350.0 235.0 L 2350.0 175.0" stroke="#0095FF" fill="none" stroke-width="2px" />
<path d="M 2310.0 165.0 L 2310.0 185.0" stroke="#0095FF" fill="none" stroke-width="2px" />
<path d="M 2330.0 195.0 L 2330.0 145.0" stroke="#0095FF" fill="none" stroke-width="2px" />
<path d="M 2330.0 105.0 L 2340.0 105.0" stroke="#0095FF" fill="none" stroke-width="2px" />
<path d="M 2340.0 105.0 L 2340.0 145.0" stroke="#0095FF" fill="none" stroke-width="2px" />
<path d="M 2360.0 145.0 L 2380.0 145.0" stroke="#0095FF" fill="none" stroke-width="2px" />
<path d="M 2380.0 145.0 L 2380.0 75.0" stroke="#0095FF" fill="none" stroke-width="2px" />
<path d="M 2360.0 45.0 L 2380.0 45.0" stroke="#0095FF" fill="none" stroke-width="2px" />
<path d="M 2380.0 45.0 L 2380.0 55.0" stroke="#0095FF" fill="none" stroke-width="2px" />
<path d="M 2410.0 65.0 L 2410.0 25.0" stroke="#0095FF" fill="none" stroke-width="2px" />
<path d="M 2390.0 -5.0 L 2160.0 -5.0" stroke="#0095FF" fill="none" stroke-width="2px" />
<path d="M 2160.0 -5.0 L 2160.0 35.0" stroke="#0095FF" fill="none" stroke-width="2px" />
<path d="M 2140.0 55.0 L 2140.0 25.0" stroke="#0095FF" fill="none" stroke-width="2px" />
<path d="M 2150.0 25.0 L 2040.0 25.0" stroke="#0095FF" fill="none" stroke-width="2px" />
<path d="M 2040.0 25.0 L 2040.0 35.0" stroke="#0095FF" fill="none" stroke-width="2px" />
<path d="M 2020.0 55.0 L 2020.0 25.0" stroke="#0095FF" fill="none" stroke-width="2px" />
<path d="M 2030.0 25.0 L 1950.0 25.0" stroke="#0095FF" fill="none" stroke-width="2px" />
<path d="M 1950.0 25.0 L 1950.0 55.0" stroke="#0095FF" fill="none" stroke-width="2px" />
<path d="M 1940.0 85.0 L 1940.0 45.0" stroke="#0095FF" fill="none" stroke-width="2px" />
<path d="M 1930.0 35.0 L 2060.0 35.0" stroke="#0095FF" fill="none" stroke-width="2px" />
<path d="M 2060.0 35.0 L 2060.0 145.0" stroke="#0095FF" fill="none" stroke-width="2px" />
<path d="M 2050.0 205.0 L 2060.0 205.0" stroke="#0095FF" fill="none" stroke-width="2px" />
<path d="M 2060.0 205.0 L 2060.0 165.0" stroke="#0095FF" fill="none" stroke-width="2px" />
<path d="M 310.0 135.0 L 320.0 135.0" stroke="#FF0000" fill="none" stroke-width="4px" />
<path d="M 320.0 135.0 L 330.0 135.0" stroke="#FF0000" fill="none" stroke-width="4px" />
<path d="M 330.0 135.0 L 340.0 135.0" stroke="#FF0000" fill="none" stroke-width="4px" />
<path d="M 340.0 135.0 L 350.0 135.0" stroke="#FF0000" fill="none" stroke-width="4px" />
<path d="M 350.0 135.0 L 360.0 135.0" stroke="#FF0000" fill="none" stroke-width="4px" />
<path d="M 360.0 135.0 L 360.0 125.0" stroke="#FF0000" fill="none" stroke-width="4px" />
<path d="M 360.0 125.0 L 350.0 125.0" stroke="#FF0000" fill="none" stroke-width="4px" />
<path d="M 350.0 125.0 L 340.0 125.0" stroke="#FF0000" fill="none" stroke-width="4px" />
<path d="M 340.0 125.0 L 330.0 125.0" stroke="#FF0000" fill="none" stroke-width="4px" />
<path d="M 330.0 125.0 L 320.0 125.0" stroke="#FF0000" fill="none" stroke-width="4px" />
<path d="M 320.0 125.0 L 310.0 125.0" stroke="#FF0000" fill="none" stroke-width="4px" />
<path d="M 310.0 125.0 L 310.0 115.0" stroke="#FF0000" fill="none" stroke-width="4px" />
<path d="M 310.0 115.0 L 300.0 115.0" stroke="#FF0000" fill="none" stroke-width="4px" />
<path d="M 300.0 115.0 L 310.0 105.0" stroke="#FF0000" fill="none" stroke-width="4px" />
<path d="M 310.0 105.0 L 320.0 105.0" stroke="#FF0000" fill="none" stroke-width="4px" />
<path d="M 320.0 105.0 L 330.0 105.0" stroke="#FF0000" fill="none" stroke-width="4px" />
<path d="M 330.0 105.0 L 340.0 105.0" stroke="#FF0000" fill="none" stroke-width="4px" />
<path d="M 340.0 105.0 L 350.0 105.0" stroke="#FF0000" fill="none" stroke-width="4px" />
<path d="M 350.0 105.0 L 360.0 105.0" stroke="#FF0000" fill="none" stroke-width="4px" />
<path d="M 360.0 105.0 L 370.0 105.0" stroke="#FF0000" fill="none" stroke-width="4px" />
<path d="M 370.0 105.0 L 380.0 105.0" stroke="#FF0000" fill="none" stroke-width="4px" />
<path d="M 380.0 105.0 L 380.0 95.0" stroke="#FF0000" fill="none" stroke-width="4px" />
<path d="M 380.0 95.0 L 370.0 95.0" stroke="#FF0000" fill="none" stroke-width="4px" />
<path d="M 370.0 95.0 L 360.0 95.0" stroke="#FF0000" fill="none" stroke-width="4px" />
<path d="M 360.0 95.0 L 350.0 95.0" stroke="#FF0000" fill="none" stroke-width="4px" />
<path d="M 350.0 95.0 L 340.0 95.0" stroke="#FF0000" fill="none" stroke-width="4px" />
<path d="M 340.0 95.0 L 330.0 95.0" stroke="#FF0000" fill="none" stroke-width="4px" />
<path d="M 330.0 95.0 L 320.0 95.0" stroke="#FF0000" fill="none" stroke-width="4px" />
<path d="M 320.0 95.0 L 310.0 95.0" stroke="#FF0000" fill="none" stroke-width="4px" />
<path d="M 310.0 95.0 L 300.0 85.0" stroke="#FF0000" fill="none" stroke-width="4px" />
<path d="M 300.0 85.0 L 290.0 85.0" stroke="#FF0000" fill="none" stroke-width="4px" />
<path d="M 290.0 85.0 L 280.0 85.0" stroke="#FF0000" fill="none" stroke-width="4px" />
<path d="M 280.0 85.0 L 270.0 85.0" stroke="#FF0000" fill="none" stroke-width="4px" />
<path d="M 270.0 85.0 L 270.0 75.0" stroke="#FF0000" fill="none" stroke-width="4px" />
<path d="M 270.0 75.0 L 260.0 75.0" stroke="#FF0000" fill="none" stroke-width="4px" />
<path d="M 260.0 75.0 L 260.0 65.0" stroke="#FF0000" fill="none" stroke-width="4px" />
<path d="M 260.0 65.0 L 250.0 65.0" stroke="#FF0000" fill="none" stroke-width="4px" />
<path d="M 250.0 65.0 L 250.0 55.0" stroke="#FF0000" fill="none" stroke-width="4px" />
<path d="M 250.0 55.0 L 260.0 55.0" stroke="#FF0000" fill="none" stroke-width="4px" />
<path d="M 260.0 55.0 L 270.0 55.0" stroke="#FF0000" fill="none" stroke-width="4px" />
<path d="M 270.0 55.0 L 280.0 55.0" stroke="#FF0000" fill="none" stroke-width="4px" />
<path d="M 280.0 55.0 L 290.0 55.0" stroke="#FF0000" fill="none" stroke-width="4px" />
<path d="M 290.0 55.0 L 300.0 55.0" stroke="#FF0000" fill="none" stroke-width="4px" />
<path d="M 300.0 55.0 L 310.0 55.0" stroke="#FF0000" fill="none" stroke-width="4px" />
<path d="M 310.0 55.0 L 320.0 55.0" stroke="#FF0000" fill="none" stroke-width="4px" />
<path d="M 320.0 55.0 L 330.0 55.0" stroke="#FF0000" fill="none" stroke-width="4px" />
<path d="M 330.0 55.0 L 340.0 55.0" stroke="#FF0000" fill="none" stroke-width="4px" />
<path d="M 340.0 55.0 L 340.0 45.0" stroke="#FF0000" fill="none" stroke-width="4px" />
<path d="M 340.0 45.0 L 330.0 45.0" stroke="#FF0000" fill="none" stroke-width="4px" />
<path d="M 330.0 45.0 L 320.0 45.0" stroke="#FF0000" fill="none" stroke-width="4px" />
<path d="M 320.0 45.0 L 310.0 45.0" stroke="#FF0000" fill="none" stroke-width="4px" />
<path d="M 310.0 45.0 L 300.0 45.0" stroke="#FF0000" fill="none" stroke-width="4px" />
<path d="M 300.0 45.0 L 290.0 45.0" stroke="#FF0000" fill="none" stroke-width="4px" />
<path d="M 290.0 45.0 L 280.0 45.0" stroke="#FF0000" fill="none" stroke-width="4px" />
<path d="M 280.0 45.0 L 270.0 45.0" stroke="#FF0000" fill="none" stroke-width="4px" />
<path d="M 270.0 45.0 L 260.0 45.0" stroke="#FF0000" fill="none" stroke-width="4px" />
<path d="M 260.0 45.0 L 250.0 45.0" stroke="#FF0000" fill="none" stroke-width="4px" />
<path d="M 250.0 45.0 L 250.0 35.0" stroke="#FF0000" fill="none" stroke-width="4px" />
<path d="M 250.0 35.0 L 260.0 35.0" stroke="#FF0000" fill="none" stroke-width="4px" />
<path d="M 260.0 35.0 L 270.0 35.0" stroke="#FF0000" fill="none" stroke-width="4px" />
<path d="M 270.0 35.0 L 280.0 35.0" stroke="#FF0000" fill="none" stroke-width="4px" />
<path d="M 280.0 35.0 L 290.0 35.0" stroke="#FF0000" fill="none" stroke-width="4px" />
<path d="M 290.0 35.0 L 300.0 35.0" stroke="#FF0000" fill="none" stroke-width="4px" />
<path d="M 300.0 35.0 L 310.0 35.0" stroke="#FF0000" fill="none" stroke-width="4px" />
<path d="M 310.0 35.0 L 320.0 35.0" stroke="#FF0000" fill="none" stroke-width="4px" />
<path d="M 320.0 35.0 L 330.0 35.0" stroke="#FF0000" fill="none" stroke-width="4px" />
<path d="M 330.0 35.0 L 320.0 25.0" stroke="#FF0000" fill="none" stroke-width="4px" />
<path d="M 320.0 25.0 L 310.0 25.0" stroke="#FF0000" fill="none" stroke-width="4px" />
<path d="M 310.0 25.0 L 300.0 25.0" stroke="#FF0000" fill="none" stroke-width="4px" />
<path d="M 300.0 25.0 L 290.0 25.0" stroke="#FF0000" fill="none" stroke-width="4px" />
<path d="M 290.0 25.0 L 280.0 25.0" stroke="#FF0000" fill="none" stroke-width="4px" />
<path d="M 280.0 25.0 L 270.0 25.0" stroke="#FF0000" fill="none" stroke-width="4px" />
<path d="M 270.0 25.0 L 260.0 25.0" stroke="#FF0000" fill="none" stroke-width="4px" />
<path d="M 260.0 25.0 L 270.0 15.0" stroke="#FF0000" fill="none" stroke-width="4px" />
<path d="M 270.0 15.0 L 280.0 15.0" stroke="#FF0000" fill="none" stroke-width="4px" />
<path d="M 280.0 15.0 L 290.0 15.0" stroke="#FF0000" fill="none" stroke-width="4px" />
<path d="M 290.0 15.0 L 300.0 15.0" stroke="#FF0000" fill="none" stroke-width="4px" />
<path d="M 300.0 65.0 L 290.0 65.0" stroke="#FF0000" fill="none" stroke-width="4px" />
<path d="M 290.0 65.0 L 280.0 65.0" stroke="#FF0000" fill="none" stroke-width="4px" />
<path d="M 280.0 65.0 L 270.0 65.0" stroke="#FF0000" fill="none" stroke-width="4px" />
<path d="M 270.0 65.0 L 280.0 75.0" stroke="#FF0000" fill="none" stroke-width="4px" />
<path d="M 280.0 75.0 L 290.0 75.0" stroke="#FF0000" fill="none" stroke-width="4px" />
<path d="M 290.0 75.0 L 300.0 75.0" stroke="#FF0000" fill="none" stroke-width="4px" />
<path d="M 300.0 75.0 L 310.0 75.0" stroke="#FF0000" fill="none" stroke-width="4px" />
<path d="M 310.0 75.0 L 320.0 75.0" stroke="#FF0000" fill="none" stroke-width="4px" />
<path d="M 320.0 75.0 L 330.0 75.0" stroke="#FF0000" fill="none" stroke-width="4px" />
<path d="M 330.0 75.0 L 340.0 75.0" stroke="#FF0000" fill="none" stroke-width="4px" />
<path d="M 340.0 75.0 L 350.0 75.0" stroke="#FF0000" fill="none" stroke-width="4px" />
<path d="M 350.0 75.0 L 360.0 75.0" stroke="#FF0000" fill="none" stroke-width="4px" />
<path d="M 360.0 75.0 L 360.0 85.0" stroke="#FF0000" fill="none" stroke-width="4px" />
<path d="M 360.0 85.0 L 350.0 85.0" stroke="#FF0000" fill="none" stroke-width="4px" />
<path d="M 350.0 85.0 L 340.0 85.0" stroke="#FF0000" fill="none" stroke-width="4px" />
<path d="M 340.0 85.0 L 330.0 85.0" stroke="#FF0000" fill="none" stroke-width="4px" />
<path d="M 330.0 85.0 L 320.0 85.0" stroke="#FF0000" fill="none" stroke-width="4px" />
<path d="M 320.0 65.0 L 310.0 65.0" stroke="#FF0000" fill="none" stroke-width="4px" />
<path d="M 310.0 65.0 L 330.0 65.0" stroke="#FF0000" fill="none" stroke-width="4px" />
<path d="M 370.0 115.0 L 360.0 115.0" stroke="#FF0000" fill="none" stroke-width="4px" />
<path d="M 360.0 115.0 L 350.0 115.0" stroke="#FF0000" fill="none" stroke-width="4px" />
<path d="M 350.0 115.0 L 340.0 115.0" stroke="#FF0000" fill="none" stroke-width="4px" />
<path d="M 340.0 115.0 L 330.0 115.0" stroke="#FF0000" fill="none" stroke-width="4px" />
<path d="M 330.0 115.0 L 320.0 115.0" stroke="#FF0000" fill="none" stroke-width="4px" />
<path d="M 290.0 95.0 L 280.0 95.0" stroke="#FF0000" fill="none" stroke-width="4px" />
<path d="M 320.0 145.0 L 330.0 145.0" stroke="#FF0000" fill="none" stroke-width="4px" />
<path d="M 330.0 145.0 L 340.0 145.0" stroke="#FF0000" fill="none" stroke-width="4px" />
<path d="M 340.0 145.0 L 350.0 145.0" stroke="#FF0000" fill="none" stroke-width="4px" />
<path d="M 720.0 155.0 L 730.0 155.0" stroke="#FF0000" fill="none" stroke-width="4px" />
<path d="M 730.0 155.0 L 740.0 155.0" stroke="#FF0000" fill="none" stroke-width="4px" />
<path d="M 740.0 155.0 L 750.0 155.0" stroke="#FF0000" fill="none" stroke-width="4px" />
<path d="M 750.0 155.0 L 760.0 155.0" stroke="#FF0000" fill="none" stroke-width="4px" />
<path d="M 760.0 155.0 L 770.0 155.0" stroke="#FF0000" fill="none" stroke-width="4px" />
<path d="M 770.0 155.0 L 780.0 155.0" stroke="#FF0000" fill="none" stroke-width="4px" />
<path d="M 780.0 155.0 L 790.0 155.0" stroke="#FF0000" fill="none" stroke-width="4px" />
<path d="M 790.0 155.0 L 800.0 155.0" stroke="#FF0000" fill="none" stroke-width="4px" />
<path d="M 800.0 155.0 L 800.0 165.0" stroke="#FF0000" fill="none" stroke-width="4px" />
<path d="M 800.0 165.0 L 790.0 165.0" stroke="#FF0000" fill="none" stroke-width="4px" />
<path d="M 790.0 165.0 L 780.0 165.0" stroke="#FF0000" fill="none" stroke-width="4px" />
<path d="M 780.0 165.0 L 770.0 165.0" stroke="#FF0000" fill="none" stroke-width="4px" />
<path d="M 770.0 165.0 L 760.0 165.0" stroke="#FF0000" fill="none" stroke-width="4px" />
<path d="M 760.0 165.0 L 750.0 165.0" stroke="#FF0000" fill="none" stroke-width="4px" />
<path d="M 750.0 165.0 L 740.0 165.0" stroke="#FF0000" fill="none" stroke-width="4px" />
<path d="M 740.0 165.0 L 730.0 165.0" stroke="#FF0000" fill="none" stroke-width="4px" />
<path d="M 730.0 165.0 L 720.0 165.0" stroke="#FF0000" fill="none" stroke-width="4px" />
<path d="M 720.0 165.0 L 730.0 175.0" stroke="#FF0000" fill="none" stroke-width="4px" />
<path d="M 730.0 175.0 L 740.0 175.0" stroke="#FF0000" fill="none" stroke-width="4px" />
<path d="M 740.0 175.0 L 750.0 175.0" stroke="#FF0000" fill="none" stroke-width="4px" />
<path d="M 750.0 175.0 L 760.0 175.0" stroke="#FF0000" fill="none" stroke-width="4px" />
<path d="M 760.0 175.0 L 770.0 175.0" stroke="#FF0000" fill="none" stroke-width="4px" />
<path d="M 770.0 175.0 L 780.0 175.0" stroke="#FF0000" fill="none" stroke-width="4px" />
<path d="M 780.0 175.0 L 790.0 175.0" stroke="#FF0000" fill="none" stroke-width="4px" />
<path d="M 790.0 175.0 L 800.0 175.0" stroke="#FF0000" fill="none" stroke-width="4px" />
<path d="M 800.0 175.0 L 800.0 185.0" stroke="#FF0000" fill="none" stroke-width="4px" />
<path d="M 800.0 185.0 L 790.0 185.0" stroke="#FF0000" fill="none" stroke-width="4px" />
<path d="M 790.0 185.0 L 780.0 185.0" stroke="#FF0000" fill="none" stroke-width="4px" />
<path d="M 780.0 185.0 L 770.0 185.0" stroke="#FF0000" fill="none" stroke-width="4px" />
<path d="M 770.0 185.0 L 760.0 185.0" stroke="#FF0000" fill="none" stroke-width="4px" />
<path d="M 760.0 185.0 L 750.0 185.0" stroke="#FF0000" fill="none" stroke-width="4px" />
<path d="M 750.0 185.0 L 740.0 185.0" stroke="#FF0000" fill="none" stroke-width="4px" />
<path d="M 740.0 185.0 L 740.0 195.0" stroke="#FF0000" fill="none" stroke-width="4px" />
<path d="M 740.0 195.0 L 750.0 195.0" stroke="#FF0000" fill="none" stroke-width="4px" />
<path d="M 750.0 195.0 L 760.0 195.0" stroke="#FF0000" fill="none" stroke-width="4px" />
<path d="M 760.0 195.0 L 770.0 195.0" stroke="#FF0000" fill="none" stroke-width="4px" />
<path d="M 770.0 195.0 L 780.0 195.0" stroke="#FF0000" fill="none" stroke-width="4px" />
<path d="M 780.0 195.0 L 790.0 195.0" stroke="#FF0000" fill="none" stroke-width="4px" />
<path d="M 790.0 195.0 L 780.0 205.0" stroke="#FF0000" fill="none" stroke-width="4px" />
<path d="M 780.0 205.0 L 770.0 205.0" stroke="#FF0000" fill="none" stroke-width="4px" />
<path d="M 770.0 205.0 L 760.0 205.0" stroke="#FF0000" fill="none" stroke-width="4px" />
<path d="M 760.0 205.0 L 750.0 205.0" stroke="#FF0000" fill="none" stroke-width="4px" />
<path d="M 750.0 205.0 L 760.0 215.0" stroke="#FF0000" fill="none" stroke-width="4px" />
<path d="M 790.0 145.0 L 780.0 145.0" stroke="#FF0000" fill="none" stroke-width="4px" />
<path d="M 780.0 145.0 L 770.0 145.0" stroke="#FF0000" fill="none" stroke-width="4px" />
<path d="M 770.0 145.0 L 760.0 145.0" stroke="#FF0000" fill="none" stroke-width="4px" />
<path d="M 760.0 145.0 L 750.0 145.0" stroke="#FF0000" fill="none" stroke-width="4px" />
<path d="M 750.0 145.0 L 740.0 145.0" stroke="#FF0000" fill="none" stroke-width="4px" />
<path d="M 740.0 145.0 L 730.0 145.0" stroke="#FF0000" fill="none" stroke-width="4px" />
<path d="M 730.0 145.0 L 740.0 135.0" stroke="#FF0000" fill="none" stroke-width="4px" />
<path d="M 740.0 135.0 L 750.0 135.0" stroke="#FF0000" fill="none" stroke-width="4px" />
<path d="M 750.0 135.0 L 760.0 135.0" stroke="#FF0000" fill="none" stroke-width="4px" />
<path d="M 760.0 135.0 L 770.0 135.0" stroke="#FF0000" fill="none" stroke-width="4px" />
<path d="M 770.0 135.0 L 780.0 135.0" stroke="#FF0000" fill="none" stroke-width="4px" />
<path d="M 1490.0 75.0 L 1500.0 75.0" stroke="#FF0000" fill="none" stroke-width="4px" />
<path d="M 1500.0 75.0 L 1510.0 75.0" stroke="#FF0000" fill="none" stroke-width="4px" />
<path d="M 1510.0 75.0 L 1520.0 75.0" stroke="#FF0000" fill="none" stroke-width="4px" />
<path d="M 1520.0 75.0 L 1530.0 75.0" stroke="#FF0000" fill="none" stroke-width="4px" />
<path d="M 1530.0 75.0 L 1540.0 75.0" stroke="#FF0000" fill="none" stroke-width="4px" />
<path d="M 1540.0 75.0 L 1550.0 75.0" stroke="#FF0000" fill="none" stroke-width="4px" />
<path d="M 1550.0 75.0 L 1560.0 75.0" stroke="#FF0000" fill="none" stroke-width="4px" />
<path d="M 1560.0 75.0 L 1560.0 65.0" stroke="#FF0000" fill="none" stroke-width="4px" />
<path d="M 1560.0 65.0 L 1550.0 65.0" stroke="#FF0000" fill="none" stroke-width="4px" />
<path d="M 1550.0 65.0 L 1540.0 65.0" stroke="#FF0000" fill="none" stroke-width="4px" />
<path d="M 1540.0 65.0 L 1530.0 65.0" stroke="#FF0000" fill="none" stroke-width="4px" />
<path d="M 1530.0 65.0 L 1520.0 65.0" stroke="#FF0000" fill="none" stroke-width="4px" />
<path d="M 1520.0 65.0 L 1510.0 65.0" stroke="#FF0000" fill="none" stroke-width="4px" />
<path d="M 1510.0 65.0 L 1500.0 65.0" stroke="#FF0000" fill="none" stroke-width="4px" />
<path d="M 1500.0 65.0 L 1490.0 65.0" stroke="#FF0000" fill="none" stroke-width="4px" />
<path d="M 1490.0 65.0 L 1490.0 55.0" stroke="#FF0000" fill="none" stroke-width="4px" />
<path d="M 1490.0 55.0 L 1500.0 55.0" stroke="#FF0000" fill="none" stroke-width="4px" />
<path d="M 1500.0 55.0 L 1510.0 55.0" stroke="#FF0000" fill="none" stroke-width="4px" />
<path d="M 1510.0 55.0 L 1520.0 55.0" stroke="#FF0000" fill="none" stroke-width="4px" />
<path d="M 1520.0 55.0 L 1530.0 55.0" stroke="#FF0000" fill="none" stroke-width="4px" />
<path d="M 1530.0 55.0 L 1540.0 55.0" stroke="#FF0000" fill="none" stroke-width="4px" />
<path d="M 1540.0 55.0 L 1550.0 55.0" stroke="#FF0000" fill="none" stroke-width="4px" />
<path d="M 1550.0 55.0 L 1560.0 55.0" stroke="#FF0000" fill="none" stroke-width="4px" />
<path d="M 1560.0 55.0 L 1570.0 55.0" stroke="#FF0000" fill="none" stroke-width="4px" />
<path d="M 1570.0 55.0 L 1560.0 45.0" stroke="#FF0000" fill="none" stroke-width="4px" />
<path d="M 1560.0 45.0 L 1550.0 45.0" stroke="#FF0000" fill="none" stroke-width="4px" />
<path d="M 1550.0 45.0 L 1540.0 45.0" stroke="#FF0000" fill="none" stroke-width="4px" />
<path d="M 1540.0 45.0 L 1530.0 45.0" stroke="#FF0000" fill="none" stroke-width="4px" />
<path d="M 1530.0 45.0 L 1520.0 45.0" stroke="#FF0000" fill="none" stroke-width="4px" />
<path d="M 1520.0 45.0 L 1510.0 45.0" stroke="#FF0000" fill="none" stroke-width="4px" />
<path d="M 1510.0 45.0 L 1500.0 45.0" stroke="#FF0000" fill="none" stroke-width="4px" />
<path d="M 1500.0 45.0 L 1510.0 35.0" stroke="#FF0000" fill="none" stroke-width="4px" />
<path d="M 1510.0 35.0 L 1520.0 35.0" stroke="#FF0000" fill="none" stroke-width="4px" />
<path d="M 1520.0 35.0 L 1530.0 35.0" stroke="#FF0000" fill="none" stroke-width="4px" />
<path d="M 1530.0 35.0 L 1540.0 35.0" stroke="#FF0000" fill="none" stroke-width="4px" />
<path d="M 1540.0 35.0 L 1550.0 35.0" stroke="#FF0000" fill="none" stroke-width="4px" />
<path d="M 1550.0 85.0 L 1540.0 85.0" stroke="#FF0000" fill="none" stroke-width="4px" />
<path d="M 1540.0 85.0 L 1530.0 85.0" stroke="#FF0000" fill="none" stroke-width="4px" />
<path d="M 1530.0 85.0 L 1520.0 85.0" stroke="#FF0000" fill="none" stroke-width="4px" />
<path d="M 1520.0 85.0 L 1510.0 85.0" stroke="#FF0000" fill="none" stroke-width="4px" />
<path d="M 1510.0 85.0 L 1500.0 85.0" stroke="#FF0000" fill="none" stroke-width="4px" />
<path d="M 1500.0 85.0 L 1510.0 95.0" stroke="#FF0000" fill="none" stroke-width="4px" />
<path d="M 2350.0 175.0 L 2340.0 175.0" stroke="#FF0000" fill="none" stroke-width="4px" />
<path d="M 2340.0 175.0 L 2330.0 175.0" stroke="#FF0000" fill="none" stroke-width="4px" />
<path d="M 2330.0 175.0 L 2320.0 175.0" stroke="#FF0000" fill="none" stroke-width="4px" />
<path d="M 2320.0 175.0 L 2310.0 175.0" stroke="#FF0000" fill="none" stroke-width="4px" />
<path d="M 2310.0 175.0 L 2300.0 175.0" stroke="#FF0000" fill="none" stroke-width="4px" />
<path d="M 2300.0 175.0 L 2300.0 165.0" stroke="#FF0000" fill="none" stroke-width="4px" />
<path d="M 2300.0 165.0 L 2290.0 165.0" stroke="#FF0000" fill="none" stroke-width="4px" />
<path d="M 2290.0 165.0 L 2290.0 155.0" stroke="#FF0000" fill="none" stroke-width="4px" />
<path d="M 2290.0 155.0 L 2300.0 155.0" stroke="#FF0000" fill="none" stroke-width="4px" />
<path d="M 2300.0 155.0 L 2310.0 155.0" stroke="#FF0000" fill="none" stroke-width="4px" />
<path d="M 2310.0 155.0 L 2320.0 155.0" stroke="#FF0000" fill="none" stroke-width="4px" />
<path d="M 2320.0 155.0 L 2330.0 155.0" stroke="#FF0000" fill="none" stroke-width="4px" />
<path d="M 2330.0 155.0 L 2340.0 155.0" stroke="#FF0000" fill="none" stroke-width="4px" />
<path d="M 2340.0 155.0 L 2350.0 155.0" stroke="#FF0000" fill="none" stroke-width="4px" />
<path d="M 2350.0 155.0 L 2360.0 155.0" stroke="#FF0000" fill="none" stroke-width="4px" />
<path d="M 2360.0 155.0 L 2360.0 165.0" stroke="#FF0000" fill="none" stroke-width="4px" />
<path d="M 2360.0 165.0 L 2350.0 165.0" stroke="#FF0000" fill="none" stroke-width="4px" />
<path d="M 2350.0 165.0 L 2340.0 165.0" stroke="#FF0000" fill="none" stroke-width="4px" />
<path d="M 2340.0 165.0 L 2330.0 165.0" stroke="#FF0000" fill="none" stroke-width="4px" />
<path d="M 2330.0 165.0 L 2320.0 165.0" stroke="#FF0000" fill="none" stroke-width="4px" />
<path d="M 2320.0 165.0 L 2310.0 165.0" stroke="#FF0000" fill="none" stroke-width="4px" />
<path d="M 2310.0 185.0 L 2320.0 185.0" stroke="#FF0000" fill="none" stroke-width="4px" />
<path d="M 2320.0 185.0 L 2330.0 185.0" stroke="#FF0000" fill="none" stroke-width="4px" />
<path d="M 2330.0 185.0 L 2340.0 185.0" stroke="#FF0000" fill="none" stroke-width="4px" />
<path d="M 2340.0 185.0 L 2330.0 195.0" stroke="#FF0000" fill="none" stroke-width="4px" />
<path d="M 2330.0 145.0 L 2320.0 145.0" stroke="#FF0000" fill="none" stroke-width="4px" />
<path d="M 2320.0 145.0 L 2310.0 145.0" stroke="#FF0000" fill="none" stroke-width="4px" />
<path d="M 2310.0 145.0 L 2300.0 145.0" stroke="#FF0000" fill="none" stroke-width="4px" />
<path d="M 2300.0 145.0 L 2300.0 135.0" stroke="#FF0000" fill="none" stroke-width="4px" />
<path d="M 2300.0 135.0 L 2310.0 135.0" stroke="#FF0000" fill="none" stroke-width="4px" />
<path d="M 2310.0 135.0 L 2320.0 135.0" stroke="#FF0000" fill="none" stroke-width="4px" />
<path d="M 2320.0 135.0 L 2330.0 135.0" stroke="#FF0000" fill="none" stroke-width="4px" />
<path d="M 2330.0 135.0 L 2340.0 135.0" stroke="#FF0000" fill="none" stroke-width="4px" />
<path d="M 2340.0 135.0 L 2350.0 135.0" stroke="#FF0000" fill="none" stroke-width="4px" />
<path d="M 2350.0 135.0 L 2360.0 135.0" stroke="#FF0000" fill="none" stroke-width="4px" />
<path d="M 2360.0 135.0 L 2370.0 135.0" stroke="#FF0000" fill="none" stroke-width="4px" />
<path d="M 2370.0 135.0 L 2370.0 125.0" stroke="#FF0000" fill="none" stroke-width="4px" />
<path d="M 2370.0 125.0 L 2360.0 125.0" stroke="#FF0000" fill="none" stroke-width="4px" />
<path d="M 2360.0 125.0 L 2350.0 125.0" stroke="#FF0000" fill="none" stroke-width="4px" />
<path d="M 2350.0 125.0 L 2340.0 125.0" stroke="#FF0000" fill="none" stroke-width="4px" />
<path d="M 2340.0 125.0 L 2330.0 125.0" stroke="#FF0000" fill="none" stroke-width="4px" />
<path d="M 2330.0 125.0 L 2320.0 125.0" stroke="#FF0000" fill="none" stroke-width="4px" />
<path d="M 2320.0 125.0 L 2310.0 125.0" stroke="#FF0000" fill="none" stroke-width="4px" />
<path d="M 2310.0 125.0 L 2320.0 115.0" stroke="#FF0000" fill="none" stroke-width="4px" />
<path d="M 2320.0 115.0 L 2330.0 115.0" stroke="#FF0000" fill="none" stroke-width="4px" />
<path d="M 2330.0 115.0 L 2340.0 115.0" stroke="#FF0000" fill="none" stroke-width="4px" />
<path d="M 2340.0 115.0 L 2350.0 115.0" stroke="#FF0000" fill="none" stroke-width="4px" />
<path d="M 2350.0 115.0 L 2360.0 115.0" stroke="#FF0000" fill="none" stroke-width="4px" />
<path d="M 2360.0 115.0 L 2350.0 105.0" stroke="#FF0000" fill="none" stroke-width="4px" />
<path d="M 2350.0 105.0 L 2340.0 105.0" stroke="#FF0000" fill="none" stroke-width="4px" />
<path d="M 2340.0 105.0 L 2330.0 105.0" stroke="#FF0000" fill="none" stroke-width="4px" />
<path d="M 2340.0 145.0 L 2350.0 145.0" stroke="#FF0000" fill="none" stroke-width="4px" />
<path d="M 2350.0 145.0 L 2360.0 145.0" stroke="#FF0000" fill="none" stroke-width="4px" />
<path d="M 2380.0 75.0 L 2390.0 75.0" stroke="#FF0000" fill="none" stroke-width="4px" />
<path d="M 2390.0 75.0 L 2400.0 75.0" stroke="#FF0000" fill="none" stroke-width="4px" />
<path d="M 2400.0 75.0 L 2400.0 65.0" stroke="#FF0000" fill="none" stroke-width="4px" />
<path d="M 2400.0 65.0 L 2390.0 65.0" stroke="#FF0000" fill="none" stroke-width="4px" />
<path d="M 2390.0 65.0 L 2380.0 65.0" stroke="#FF0000" fill="none" stroke-width="4px" />
<path d="M 2380.0 65.0 L 2370.0 65.0" stroke="#FF0000" fill="none" stroke-width="4px" />
<path d="M 2370.0 65.0 L 2370.0 55.0" stroke="#FF0000" fill="none" stroke-width="4px" />
<path d="M 2370.0 55.0 L 2360.0 55.0" stroke="#FF0000" fill="none" stroke-width="4px" />
<path d="M 2360.0 55.0 L 2350.0 55.0" stroke="#FF0000" fill="none" stroke-width="4px" />
<path d="M 2350.0 55.0 L 2350.0 45.0" stroke="#FF0000" fill="none" stroke-width="4px" />
<path d="M 2350.0 45.0 L 2340.0 45.0" stroke="#FF0000" fill="none" stroke-width="4px" />
<path d="M 2340.0 45.0 L 2340.0 35.0" stroke="#FF0000" fill="none" stroke-width="4px" />
<path d="M 2340.0 35.0 L 2350.0 35.0" stroke="#FF0000" fill="none" stroke-width="4px" />
<path d="M 2350.0 35.0 L 2360.0 35.0" stroke="#FF0000" fill="none" stroke-width="4px" />
<path d="M 2360.0 35.0 L 2370.0 35.0" stroke="#FF0000" fill="none" stroke-width="4px" />
<path d="M 2370.0 35.0 L 2380.0 35.0" stroke="#FF0000" fill="none" stroke-width="4px" />
<path d="M 2380.0 35.0 L 2390.0 35.0" stroke="#FF0000" fill="none" stroke-width="4px" />
<path d="M 2390.0 35.0 L 2400.0 35.0" stroke="#FF0000" fill="none" stroke-width="4px" />
<path d="M 2400.0 35.0 L 2410.0 35.0" stroke="#FF0000" fill="none" stroke-width="4px" />
<path d="M 2410.0 35.0 L 2420.0 35.0" stroke="#FF0000" fill="none" stroke-width="4px" />
<path d="M 2420.0 35.0 L 2420.0 45.0" stroke="#FF0000" fill="none" stroke-width="4px" />
<path d="M 2420.0 45.0 L 2410.0 45.0" stroke="#FF0000" fill="none" stroke-width="4px" />
<path d="M 2410.0 45.0 L 2400.0 45.0" stroke="#FF0000" fill="none" stroke-width="4px" />
<path d="M 2400.0 45.0 L 2390.0 45.0" stroke="#FF0000" fill="none" stroke-width="4px" />
<path d="M 2390.0 45.0 L 2380.0 45.0" stroke="#FF0000" fill="none" stroke-width="4px" />
<path d="M 2380.0 45.0 L 2370.0 45.0" stroke="#FF0000" fill="none" stroke-width="4px" />
<path d="M 2370.0 45.0 L 2360.0 45.0" stroke="#FF0000" fill="none" stroke-width="4px" />
<path d="M 2380.0 55.0 L 2390.0 55.0" stroke="#FF0000" fill="none" stroke-width="4px" />
<path d="M 2390.0 55.0 L 2400.0 55.0" stroke="#FF0000" fill="none" stroke-width="4px" />
<path d="M 2400.0 55.0 L 2410.0 55.0" stroke="#FF0000" fill="none" stroke-width="4px" />
<path d="M 2410.0 55.0 L 2420.0 55.0" stroke="#FF0000" fill="none" stroke-width="4px" />
<path d="M 2420.0 55.0 L 2410.0 65.0" stroke="#FF0000" fill="none" stroke-width="4px" />
<path d="M 2410.0 25.0 L 2400.0 25.0" stroke="#FF0000" fill="none" stroke-width="4px" />
<path d="M 2400.0 25.0 L 2390.0 25.0" stroke="#FF0000" fill="none" stroke-width="4px" />
<path d="M 2390.0 25.0 L 2380.0 25.0" stroke="#FF0000" fill="none" stroke-width="4px" />
<path d="M 2380.0 25.0 L 2370.0 25.0" stroke="#FF0000" fill="none" stroke-width="4px" />
<path d="M 2370.0 25.0 L 2360.0 25.0" stroke="#FF0000" fill="none" stroke-width="4px" />
<path d="M 2360.0 25.0 L 2350.0 25.0" stroke="#FF0000" fill="none" stroke-width="4px" />
<path d="M 2350.0 25.0 L 2360.0 15.0" stroke="#FF0000" fill="none" stroke-width="4px" />
<path d="M 2360.0 15.0 L 2370.0 15.0" stroke="#FF0000" fill="none" stroke-width="4px" />
<path d="M 2370.0 15.0 L 2380.0 15.0" stroke="#FF0000" fill="none" stroke-width="4px" />
<path d="M 2380.0 15.0 L 2390.0 15.0" stroke="#FF0000" fill="none" stroke-width="4px" />
<path d="M 2390.0 15.0 L 2400.0 15.0" stroke="#FF0000" fill="none" stroke-width="4px" />
<path d="M 2400.0 15.0 L 2410.0 15.0" stroke="#FF0000" fill="none" stroke-width="4px" />
<path d="M 2410.0 15.0 L 2400.0 5.0" stroke="#FF0000" fill="none" stroke-width="4px" />
<path d="M 2400.0 5.0 L 2390.0 5.0" stroke="#FF0000" fill="none" stroke-width="4px" />
<path d="M 2390.0 5.0 L 2380.0 5.0" stroke="#FF0000" fill="none" stroke-width="4px" />
<path d="M 2380.0 5.0 L 2370.0 5.0" stroke="#FF0000" fill="none" stroke-width="4px" />
<path d="M 2370.0 5.0 L 2380.0 -5.0" stroke="#FF0000" fill="none" stroke-width="4px" />
<path d="M 2380.0 -5.0 L 2390.0 -5.0" stroke="#FF0000" fill="none" stroke-width="4px" />
<path d="M 2160.0 35.0 L 2150.0 35.0" stroke="#FF0000" fill="none" stroke-width="4px" />
<path d="M 2150.0 35.0 L 2140.0 35.0" stroke="#FF0000" fill="none" stroke-width="4px" />
<path d="M 2140.0 35.0 L 2130.0 35.0" stroke="#FF0000" fill="none" stroke-width="4px" />
<path d="M 2130.0 35.0 L 2130.0 45.0" stroke="#FF0000" fill="none" stroke-width="4px" />
<path d="M 2130.0 45.0 L 2140.0 45.0" stroke="#FF0000" fill="none" stroke-width="4px" />
<path d="M 2140.0 45.0 L 2150.0 45.0" stroke="#FF0000" fill="none" stroke-width="4px" />
<path d="M 2150.0 45.0 L 2160.0 45.0" stroke="#FF0000" fill="none" stroke-width="4px" />
<path d="M 2160.0 45.0 L 2150.0 55.0" stroke="#FF0000" fill="none" stroke-width="4px" />
<path d="M 2150.0 55.0 L 2140.0 55.0" stroke="#FF0000" fill="none" stroke-width="4px" />
<path d="M 2140.0 25.0 L 2150.0 25.0" stroke="#FF0000" fill="none" stroke-width="4px" />
<path d="M 2040.0 35.0 L 2030.0 35.0" stroke="#FF0000" fill="none" stroke-width="4px" />
<path d="M 2030.0 35.0 L 2020.0 35.0" stroke="#FF0000" fill="none" stroke-width="4px" />
<path d="M 2020.0 35.0 L 2010.0 35.0" stroke="#FF0000" fill="none" stroke-width="4px" />
<path d="M 2010.0 35.0 L 2010.0 45.0" stroke="#FF0000" fill="none" stroke-width="4px" />
<path d="M 2010.0 45.0 L 2020.0 45.0" stroke="#FF0000" fill="none" stroke-width="4px" />
<path d="M 2020.0 45.0 L 2030.0 45.0" stroke="#FF0000" fill="none" stroke-width="4px" />
<path d="M 2030.0 45.0 L 2040.0 45.0" stroke="#FF0000" fill="none" stroke-width="4px" />
<path d="M 2040.0 45.0 L 2030.0 55.0" stroke="#FF0000" fill="none" stroke-width="4px" />
<path d="M 2030.0 55.0 L 2020.0 55.0" stroke="#FF0000" fill="none" stroke-width="4px" />
<path d="M 2020.0 25.0 L 2030.0 25.0" stroke="#FF0000" fill="none" stroke-width="4px" />
<path d="M 1950.0 55.0 L 1940.0 55.0" stroke="#FF0000" fill="none" stroke-width="4px" />
<path d="M 1940.0 55.0 L 1930.0 55.0" stroke="#FF0000" fill="none" stroke-width="4px" />
<path d="M 1930.0 55.0 L 1920.0 55.0" stroke="#FF0000" fill="none" stroke-width="4px" />
<path d="M 1920.0 55.0 L 1910.0 55.0" stroke="#FF0000" fill="none" stroke-width="4px" />
<path d="M 1910.0 55.0 L 1900.0 55.0" stroke="#FF0000" fill="none" stroke-width="4px" />
<path d="M 1900.0 55.0 L 1890.0 55.0" stroke="#FF0000" fill="none" stroke-width="4px" />
<path d="M 1890.0 55.0 L 1880.0 55.0" stroke="#FF0000" fill="none" stroke-width="4px" />
<path d="M 1880.0 55.0 L 1890.0 65.0" stroke="#FF0000" fill="none" stroke-width="4px" />
<path d="M 1890.0 65.0 L 1900.0 65.0" stroke="#FF0000" fill="none" stroke-width="4px" />
<path d="M 1900.0 65.0 L 1910.0 65.0" stroke="#FF0000" fill="none" stroke-width="4px" />
<path d="M 1910.0 65.0 L 1920.0 65.0" stroke="#FF0000" fill="none" stroke-width="4px" />
<path d="M 1920.0 65.0 L 1930.0 65.0" stroke="#FF0000" fill="none" stroke-width="4px" />
<path d="M 1930.0 65.0 L 1940.0 65.0" stroke="#FF0000" fill="none" stroke-width="4px" />
<path d="M 1940.0 65.0 L 1950.0 65.0" stroke="#FF0000" fill="none" stroke-width="4px" />
<path d="M 1950.0 65.0 L 1950.0 75.0" stroke="#FF0000" fill="none" stroke-width="4px" />
<path d="M 1950.0 75.0 L 1940.0 75.0" stroke="#FF0000" fill="none" stroke-width="4px" />
<path d="M 1940.0 75.0 L 1930.0 75.0" stroke="#FF0000" fill="none" stroke-width="4px" />
<path d="M 1930.0 75.0 L 1920.0 75.0" stroke="#FF0000" fill="none" stroke-width="4px" />
<path d="M 1920.0 75.0 L 1910.0 75.0" stroke="#FF0000" fill="none" stroke-width="4px" />
<path d="M 1910.0 75.0 L 1900.0 75.0" stroke="#FF0000" fill="none" stroke-width="4px" />
<path d="M 1900.0 75.0 L 1910.0 85.0" stroke="#FF0000" fill="none" stroke-width="4px" />
<path d="M 1910.0 85.0 L 1920.0 85.0" stroke="#FF0000" fill="none" stroke-width="4px" />
<path d="M 1920.0 85.0 L 1930.0 85.0" stroke="#FF0000" fill="none" stroke-width="4px" />
<path d="M 1930.0 85.0 L 1940.0 85.0" stroke="#FF0000" fill="none" stroke-width="4px" />
<path d="M 1940.0 45.0 L 1930.0 45.0" stroke="#FF0000" fill="none" stroke-width="4px" />
<path d="M 1930.0 45.0 L 1920.0 45.0" stroke="#FF0000" fill="none" stroke-width="4px" />
<path d="M 1920.0 45.0 L 1910.0 45.0" stroke="#FF0000" fill="none" stroke-width="4px" />
<path d="M 1910.0 45.0 L 1900.0 45.0" stroke="#FF0000" fill="none" stroke-width="4px" />
<path d="M 1900.0 45.0 L 1890.0 45.0" stroke="#FF0000" fill="none" stroke-width="4px" />
<path d="M 1890.0 45.0 L 1900.0 35.0" stroke="#FF0000" fill="none" stroke-width="4px" />
<path d="M 1900.0 35.0 L 1910.0 35.0" stroke="#FF0000" fill="none" stroke-width="4px" />
<path d="M 1910.0 35.0 L 1920.0 35.0" stroke="#FF0000" fill="none" stroke-width="4px" />
<path d="M 1920.0 35.0 L 1930.0 35.0" stroke="#FF0000" fill="none" stroke-width="4px" />
<path d="M 2060.0 145.0 L 2060.0 155.0" stroke="#FF0000" fill="none" stroke-width="4px" />
<path d="M 2060.0 155.0 L 2050.0 155.0" stroke="#FF0000" fill="none" stroke-width="4px" />
<path d="M 2050.0 155.0 L 2050.0 165.0" stroke="#FF0000" fill="none" stroke-width="4px" />
<path d="M 2050.0 165.0 L 2040.0 165.0" stroke="#FF0000" fill="none" stroke-width="4px" />
<path d="M 2040.0 165.0 L 2040.0 175.0" stroke="#FF0000" fill="none" stroke-width="4px" />
<path d="M 2040.0 175.0 L 2050.0 175.0" stroke="#FF0000" fill="none" stroke-width="4px" />
<path d="M 2050.0 175.0 L 2060.0 175.0" stroke="#FF0000" fill="none" stroke-width="4px" />
<path d="M 2060.0 175.0 L 2070.0 175.0" stroke="#FF0000" fill="none" stroke-width="4px" />
<path d="M 2070.0 175.0 L 2080.0 175.0" stroke="#FF0000" fill="none" stroke-width="4px" />
<path d="M 2080.0 175.0 L 2090.0 175.0" stroke="#FF0000" fill="none" stroke-width="4px" />
<path d="M 2090.0 175.0 L 2090.0 185.0" stroke="#FF0000" fill="none" stroke-width="4px" />
<path d="M 2090.0 185.0 L 2080.0 185.0" stroke="#FF0000" fill="none" stroke-width="4px" />
<path d="M 2080.0 185.0 L 2070.0 185.0" stroke="#FF0000" fill="none" stroke-width="4px" />
<path d="M 2070.0 185.0 L 2060.0 185.0" stroke="#FF0000" fill="none" stroke-width="4px" />
<path d="M 2060.0 185.0 L 2050.0 185.0" stroke="#FF0000" fill="none" stroke-width="4px" />
<path d="M 2050.0 185.0 L 2040.0 185.0" stroke="#FF0000" fill="none" stroke-width="4px" />
<path d="M 2040.0 185.0 L 2040.0 195.0" stroke="#FF0000" fill="none" stroke-width="4px" />
<path d="M 2040.0 195.0 L 2050.0 195.0" stroke="#FF0000" fill="none" stroke-width="4px" />
<path d="M 2050.0 195.0 L 2060.0 195.0" stroke="#FF0000" fill="none" stroke-width="4px" />
<path d="M 2060.0 195.0 L 2070.0 195.0" stroke="#FF0000" fill="none" stroke-width="4px" />
<path d="M 2070.0 195.0 L 2080.0 195.0" stroke="#FF0000" fill="none" stroke-width="4px" />
<path d="M 2080.0 195.0 L 2070.0 205.0" stroke="#FF0000" fill="none" stroke-width="4px" />
<path d="M 2070.0 205.0 L 2060.0 205.0" stroke="#FF0000" fill="none" stroke-width="4px" />
<path d="M 2060.0 205.0 L 2050.0 205.0" stroke="#FF0000" fill="none" stroke-width="4px" />
<path d="M 2060.0 165.0 L 2070.0 165.0" stroke="#FF0000" fill="none" stroke-width="4px" />
<path d="M 2070.0 165.0 L 2080.0 165.0" stroke="#FF0000" fill="none" stroke-width="4px" />
<path d="M 2080.0 165.0 L 2070.0 155.0" stroke="#FF0000" fill="none" stroke-width="4px" />
</svg>