<svg width="2472.26666667" height="235.0" xmlns="http://www.w3.org/2000/svg" version="1.1">
<path d="M 0.0 235.0 L 1985.0 235.0 L 1985.0 0.0 L 0.0 0.0 L 0.0 235.0" stroke="#000000" fill="none" stroke-width="3px" />
<path d="M 2472.26666667 235.0 L 1885.0 235.0 L 1885.0 0.0 L 2472.26666667 0.0 L 2472.26666667 235.0" stroke="#000000" fill="none" stroke-width="3px" />
<path d="M 10.0 257.5 L 0.0 247.5 L 10.0 237.5" stroke="#969696" fill="none" stroke-width="1px" />
<path d="M 10.0 237.5 L 1975.0 237.5" stroke="#969696" fill="none" stroke-width="1px" />
<path d="M 1975.0 237.5 L 1985.0 227.5 L 1975.0 217.5" stroke="#969696" fill="none" stroke-width="1px" />
<path d="M 1975.0 217.5 L 10.0 217.5" stroke="#969696" fill="none" stroke-width="1px" />
<path d="M 10.0 217.5 L 0.0 207.5 L 10.0 197.5" stroke="#969696" fill="none" stroke-width="1px" />
<path d="M 10.0 197.5 L 1975.0 197.5" stroke="#969696" fill="none" stroke-width="1px" />
<path d="M 1975.0 197.5 L 1985.0 187.5 L 1975.0 177.5" stroke="#969696" fill="none" stroke-width="1px" />
<path d="M 1975.0 177.5 L 10.0 177.5" stroke="#969696" fill="none" stroke-width="1px" />
<path d="M 10.0 177.5 L 0.0 167.5 L 10.0 157.5" stroke="#969696" fill="none" stroke-width="1px" />
<path d="M 10.0 157.5 L 1975.0 157.5" stroke="#969696" fill="none" stroke-width="1px" />
<path d="M 1975.0 157.5 L 1985.0 147.5 L 1975.0 137.5" stroke="#969696" fill="none" stroke-width="1px" />
<path d="M 1975.0 137.5 L 10.0 137.5" stroke="#969696" fill="none" stroke-width="1px" />
<path d="M 10.0 137.5 L 0.0 127.5 L 10.0 117.5" stroke="#969696" fill="none" stroke-width="1px" />
<path d="M 10.0 117.5 L 1975.0 117.5" stroke="#969696" fill="none" stroke-width="1px" />
<path d="M 1975.0 117.5 L 1985.0 107.5 L 1975.0 97.5" stroke="#969696" fill="none" stroke-width="1px" />
<path d="M 1975.0 97.5 L 10.0 97.5" stroke="#969696" fill="none" stroke-width="1px" />
<path d="M 10.0 97.5 L 0.0 87.5 L 10.0 77.5" stroke="#969696" fill="none" stroke-width="1px" />
<path d="M 10.0 77.5 L 1975.0 77.5" stroke="#969696" fill="none" stroke-width="1px" />
<path d="M 1975.0 77.5 L 1985.0 67.5 L 1975.0 57.5" stroke="#969696" fill="none" stroke-width="1px" />
<path d="M 1975.0 57.5 L 10.0 57.5" stroke="#969696" fill="none" stroke-width="1px" />
<path d="M 10.0 57.5 L 0.0 47.5 L 10.0 37.5" stroke="#969696" fill="none" stroke-width="1px" />
<path d="M 10.0 37.5 L 1975.0 37.5" stroke="#969696" fill="none" stroke-width="1px" />
<path d="M 1975.0 37.5 L 1985.0 27.5 L 1975.0 17.5" stroke="#969696" fill="none" stroke-width="1px" />
<path d="M 1975.0 17.5 L 10.0 17.5" stroke="#969696" fill="none" stroke-width="1px" />
<path d="M 10.0 17.5 L 0.0 7.5 L 10.0 -2.5" stroke="#969696" fill="none" stroke-width="1px" />
<path d="M 10.0 -2.5 L 1975.0 -2.5" stroke="#969696" fill="none" stroke-width="1px" />
<path d="M 1975.0 -2.5 L 1985.0 -12.5 L 1975.0 -22.5" stroke="#969696" fill="none" stroke-width="1px" />
<path d="M 2462.26666667 257.5 L 2472.26666667 247.5 L 2462.26666667 237.5" stroke="#969696" fill="none" stroke-width="1px" />
<path d="M 2462.26666667 237.5 L 1895.0 237.5" stroke="#969696" fill="none" stroke-width="1px" />
<path d="M 1895.0 237.5 L 1885.0 227.5 L 1895.0 217.5" stroke="#969696" fill="none" stroke-width="1px" />
<path d="M 1895.0 217.5 L 2462.26666667 217.5" stroke="#969696" fill="none" stroke-width="1px" />
<path d="M 2462.26666667 217.5 L 2472.26666667 207.5 L 2462.26666667 197.5" stroke="#969696" fill="none" stroke-width="1px" />
<path d="M 2462.26666667 197.5 L 1895.0 197.5" stroke="#969696" fill="none" stroke-width="1px" />
<path d="M 1895.0 197.5 L 1885.0 187.5 L 1895.0 177.5" stroke="#969696" fill="none" stroke-width="1px" />
<path d="M 1895.0 177.5 L 2462.26666667 177.5" stroke="#969696" fill="none" stroke-width="1px" />
<path d="M 2462.26666667 177.5 L 2472.26666667 167.5 L 2462.26666667 157.5" stroke="#969696" fill="none" stroke-width="1px" />
<path d="M 2462.26666667 157.5 L 1895.0 157.5" stroke="#969696" fill="none" stroke-width="1px" />
<path d="M 1895.0 157.5 L 1885.0 147.5 L 1895.0 137.5" stroke="#969696" fill="none" stroke-width="1px" />
<path d="M 1895.0 137.5 L 2462.26666667 137.5" stroke="#969696" fill="none" stroke-width="1px" />
<path d="M 2462.26666667 137.5 L 2472.26666667 127.5 L 2462.26666667 117.5" stroke="#969696" fill="none" stroke-width="1px" />
<path d="M 2462.26666667 117.5 L 1895.0 117.5" stroke="#969696" fill="none" stroke-width="1px" />
<path d="M 1895.0 117.5 L 1885.0 107.5 L 1895.0 97.5" stroke="#969696" fill="none" stroke-width="1px" />
<path d="M 1895.0 97.5 L 2462.26666667 97.5" stroke="#969696" fill="none" stroke-width="1px" />
<path d="M 2462.26666667 97.5 L 2472.26666667 87.5 L 2462.26666667 77.5" stroke="#969696" fill="none" stroke-width="1px" />
<path d="M 2462.26666667 77.5 L 1895.0 77.5" stroke="#969696" fill="none" stroke-width="1px" />
<path d="M 1895.0 77.5 L 1885.0 67.5 L 1895.0 57.5" stroke="#969696" fill="none" stroke-width="1px" />
<path d="M 1895.0 57.5 L 2462.26666667 57.5" stroke="#969696" fill="none" stroke-width="1px" />
<path d="M 2462.26666667 57.5 L 2472.26666667 47.5 L 2462.26666667 37.5" stroke="#969696" fill="none" stroke-width="1px" />
<path d="M 2462.26666667 37.5 L 1895.0 37.5" stroke="#969696" fill="none" stroke-width="1px" />
<path d="M 1895.0 37.5 L 1885.0 27.5 L 1895.0 17.5" stroke="#969696" fill="none" stroke-width="1px" />
<path d="M 1895.0 17.5 L 2462.26666667 17.5" stroke="#969696" fill="none" stroke-width="1px" />
<path d="M 2462.26666667 17.5 L 2472.26666667 7.5 L 2462.26666667 -2.5" stroke="#969696" fill="none" stroke-width="1px" />
<path d="M 2462.26666667 -2.5 L 1895.0 -2.5" stroke="#969696" fill="none" stroke-width="1px" />
<path d="M 1895.0 -2.5 L 1885.0 -12.5 L 1895.0 -22.5" stroke="#969696" fill="none" stroke-width="1px" />
<path d="M 0.0 235.0 L 10.0 235.0" stroke="#0095FF" fill="none" stroke-width="2px" />
<path d="M 10.0 235.0 L 10.0 65.0" stroke="#0095FF" fill="none" stroke-width="2px" />
<path d="M 30.0 45.0 L 20.0 45.0" stroke="#0095FF" fill="none" stroke-width="2px" />
<path d="M 20.0 45.0 L 20.0 25.0" stroke="#0095FF" fill="none" stroke-width="2px" />
<path d="M 10.0 15.0 L 300.0 15.0" stroke="#0095FF" fill="none" stroke-width="2px" />
<path d="M 300.0 15.0 L 300.0 105.0" stroke="#0095FF" fill="none" stroke-width="2px" />
<path d="M 370.0 115.0 L 360.0 115.0" stroke="#0095FF" fill="none" stroke-width="2px" />
<path d="M 360.0 115.0 L 360.0 135.0" stroke="#0095FF" fill="none" stroke-width="2px" />
<path d="M 350.0 145.0 L 350.0 95.0" stroke="#0095FF" fill="none" stroke-width="2px" />
<path d="M 340.0 85.0 L 930.0 85.0" stroke="#0095FF" fill="none" stroke-width="2px" />
<path d="M 930.0 85.0 L 930.0 145.0" stroke="#0095FF" fill="none" stroke-width="2px" />
<path d="M 980.0 185.0 L 980.0 135.0" stroke="#0095FF" fill="none" stroke-width="2px" />
<path d="M 1000.0 135.0 L 980.0 135.0" stroke="#0095FF" fill="none" stroke-width="2px" />
<path d="M 980.0 135.0 L 980.0 115.0" stroke="#0095FF" fill="none" stroke-width="2px" />
<path d="M 960.0 115.0 L 1020.0 115.0" stroke="#0095FF" fill="none" stroke-width="2px" />
<path d="M 1020.0 115.0 L 1020.0 85.0" stroke="#0095FF" fill="none" stroke-width="2px" />
<path d="M 1040.0 105.0 L 1040.0 75.0" stroke="#0095FF" fill="none" stroke-width="2px" />
<path d="M 1050.0 75.0 L 1260.0 75.0" stroke="#0095FF" fill="none" stroke-width="2px" />
<path d="M 1260.0 75.0 L 1260.0 135.0" stroke="#0095FF" fill="none" stroke-width="2px" />
<path d="M 1300.0 175.0 L 1310.0 175.0" stroke="#0095FF" fill="none" stroke-width="2px" />
<path d="M 1310.0 175.0 L 1310.0 145.0" stroke="#0095FF" fill="none" stroke-width="2px" />
<path d="M 1310.0 145.0 L 1290.0 145.0" stroke="#0095FF" fill="none" stroke-width="2px" />
<path d="M 1290.0 145.0 L 1290.0 125.0" stroke="#0095FF" fill="none" stroke-width="2px" />
<path d="M 1280.0 115.0 L 1640.0 115.0" stroke="#0095FF" fill="none" stroke-width="2px" />
<path d="M 1640.0 115.0 L 1640.0 85.0" stroke="#0095FF" fill="none" stroke-width="2px" />
<path d="M 1680.0 125.0 L 1680.0 75.0" stroke="#0095FF" fill="none" stroke-width="2px" />
<path d="M 2472.26666667 235.0 L 2260.0 235.0" stroke="#0095FF" fill="none" stroke-width="2px" />
<path d="M 2260.0 235.0 L 2260.0 125.0" stroke="#0095FF" fill="none" stroke-width="2px" />
<path d="M 2230.0 95.0 L 2250.0 95.0" stroke="#0095FF" fill="none" stroke-width="2px" />
<path d="M 2250.0 95.0 L 2250.0 105.0" stroke="#0095FF" fill="none" stroke-width="2px" />
<path d="M 2260.0 115.0 L 2260.0 75.0" stroke="#0095FF" fill="none" stroke-width="2px" />
<path d="M 2280.0 75.0 L 2250.0 75.0" stroke="#0095FF" fill="none" stroke-width="2px" />
<path d="M 2250.0 75.0 L 2250.0 55.0" stroke="#0095FF" fill="none" stroke-width="2px" />
<path d="M 10.0 65.0 L 10.0 55.0" stroke="#FF0000" fill="none" stroke-width="4px" />
<path d="M 10.0 55.0 L 20.0 55.0" stroke="#FF0000" fill="none" stroke-width="4px" />
<path d="M 20.0 55.0 L 20.0 45.0" stroke="#FF0000" fill="none" stroke-width="4px" />
<path d="M 20.0 45.0 L 10.0 45.0" stroke="#FF0000" fill="none" stroke-width="4px" />
<path d="M 10.0 45.0 L 10.0 35.0" stroke="#FF0000" fill="none" stroke-width="4px" />
<path d="M 10.0 35.0 L 20.0 35.0" stroke="#FF0000" fill="none" stroke-width="4px" />
<path d="M 20.0 35.0 L 30.0 35.0" stroke="#FF0000" fill="none" stroke-width="4px" />
<path d="M 30.0 35.0 L 30.0 45.0" stroke="#FF0000" fill="none" stroke-width="4px" />
<path d="M 20.0 25.0 L 10.0 25.0" stroke="#FF0000" fill="none" stroke-width="4px" />
<path d="M 10.0 25.0 L 10.0 15.0" stroke="#FF0000" fill="none" stroke-width="4px" />
<path d="M 300.0 105.0 L 310.0 105.0" stroke="#FF0000" fill="none" stroke-width="4px" />
<path d="M 310.0 105.0 L 320.0 105.0" stroke="#FF0000" fill="none" stroke-width="4px" />
<path d="M 320.0 105.0 L 330.0 105.0" stroke="#FF0000" fill="none" stroke-width="4px" />
<path d="M 330.0 105.0 L 340.0 105.0" stroke="#FF0000" fill="none" stroke-width="4px" />
<path d="M 340.0 105.0 L 350.0 105.0" stroke="#FF0000" fill="none" stroke-width="4px" />
<path d="M 350.0 105.0 L 360.0 105.0" stroke="#FF0000" fill="none" stroke-width="4px" />
<path d="M 360.0 105.0 L 360.0 115.0" stroke="#FF0000" fill="none" stroke-width="4px" />
<path d="M 360.0 115.0 L 350.0 115.0" stroke="#FF0000" fill="none" stroke-width="4px" />
<path d="M 350.0 115.0 L 340.0 115.0" stroke="#FF0000" fill="none" stroke-width="4px" />
<path d="M 340.0 115.0 L 330.0 115.0" stroke="#FF0000" fill="none" stroke-width="4px" />
<path d="M 330.0 115.0 L 320.0 115.0" stroke="#FF0000" fill="none" stroke-width="4px" />
<path d="M 320.0 115.0 L 310.0 115.0" stroke="#FF0000" fill="none" stroke-width="4px" />
<path d="M 310.0 115.0 L 300.0 115.0" stroke="#FF0000" fill="none" stroke-width="4px" />
<path d="M 300.0 115.0 L 300.0 125.0" stroke="#FF0000" fill="none" stroke-width="4px" />
<path d="M 300.0 125.0 L 310.0 125.0" stroke="#FF0000" fill="none" stroke-width="4px" />
<path d="M 310.0 125.0 L 320.0 125.0" stroke="#FF0000" fill="none" stroke-width="4px" />
<path d="M 320.0 125.0 L 330.0 125.0" stroke="#FF0000" fill="none" stroke-width="4px" />
<path d="M 330.0 125.0 L 340.0 125.0" stroke="#FF0000" fill="none" stroke-width="4px" />
<path d="M 340.0 125.0 L 350.0 125.0" stroke="#FF0000" fill="none" stroke-width="4px" />
<path d="M 350.0 125.0 L 360.0 125.0" stroke="#FF0000" fill="none" stroke-width="4px" />
<path d="M 360.0 125.0 L 370.0 125.0" stroke="#FF0000" fill="none" stroke-width="4px" />
<path d="M 370.0 125.0 L 370.0 115.0" stroke="#FF0000" fill="none" stroke-width="4px" />
<path d="M 360.0 135.0 L 350.0 135.0" stroke="#FF0000" fill="none" stroke-width="4px" />
<path d="M 350.0 135.0 L 340.0 135.0" stroke="#FF0000" fill="none" stroke-width="4px" />
<path d="M 340.0 135.0 L 330.0 135.0" stroke="#FF0000" fill="none" stroke-width="4px" />
<path d="M 330.0 135.0 L 320.0 135.0" stroke="#FF0000" fill="none" stroke-width="4px" />
<path d="M 320.0 135.0 L 310.0 135.0" stroke="#FF0000" fill="none" stroke-width="4px" />
<path d="M 310.0 135.0 L 320.0 145.0" stroke="#FF0000" fill="none" stroke-width="4px" />
<path d="M 320.0 145.0 L 330.0 145.0" stroke="#FF0000" fill="none" stroke-width="4px" />
<path d="M 330.0 145.0 L 340.0 145.0" stroke="#FF0000" fill="none" stroke-width="4px" />
<path d="M 340.0 145.0 L 350.0 145.0" stroke="#FF0000" fill="none" stroke-width="4px" />
<path d="M 350.0 95.0 L 340.0 95.0" stroke="#FF0000" fill="none" stroke-width="4px" />
<path d="M 340.0 95.0 L 330.0 95.0" stroke="#FF0000" fill="none" stroke-width="4px" />
<path d="M 330.0 95.0 L 320.0 95.0" stroke="#FF0000" fill="none" stroke-width="4px" />
<path d="M 320.0 95.0 L 310.0 95.0" stroke="#FF0000" fill="none" stroke-width="4px" />
<path d="M 310.0 95.0 L 320.0 85.0" stroke="#FF0000" fill="none" stroke-width="4px" />
<path d="M 320.0 85.0 L 330.0 85.0" stroke="#FF0000" fill="none" stroke-width="4px" />
<path d="M 330.0 85.0 L 340.0 85.0" stroke="#FF0000" fill="none" stroke-width="4px" />
<path d="M 930.0 145.0 L 940.0 145.0" stroke="#FF0000" fill="none" stroke-width="4px" />
<path d="M 940.0 145.0 L 950.0 145.0" stroke="#FF0000" fill="none" stroke-width="4px" />
<path d="M 950.0 145.0 L 960.0 145.0" stroke="#FF0000" fill="none" stroke-width="4px" />
<path d="M 960.0 145.0 L 970.0 145.0" stroke="#FF0000" fill="none" stroke-width="4px" />
<path d="M 970.0 145.0 L 980.0 145.0" stroke="#FF0000" fill="none" stroke-width="4px" />
<path d="M 980.0 145.0 L 990.0 145.0" stroke="#FF0000" fill="none" stroke-width="4px" />
<path d="M 990.0 145.0 L 1000.0 145.0" stroke="#FF0000" fill="none" stroke-width="4px" />
<path d="M 1000.0 145.0 L 1000.0 155.0" stroke="#FF0000" fill="none" stroke-width="4px" />
<path d="M 1000.0 155.0 L 990.0 155.0" stroke="#FF0000" fill="none" stroke-width="4px" />
<path d="M 990.0 155.0 L 980.0 155.0" stroke="#FF0000" fill="none" stroke-width="4px" />
<path d="M 980.0 155.0 L 970.0 155.0" stroke="#FF0000" fill="none" stroke-width="4px" />
<path d="M 970.0 155.0 L 960.0 155.0" stroke="#FF0000" fill="none" stroke-width="4px" />
<path d="M 960.0 155.0 L 950.0 155.0" stroke="#FF0000" fill="none" stroke-width="4px" />
<path d="M 950.0 155.0 L 940.0 155.0" stroke="#FF0000" fill="none" stroke-width="4px" />
<path d="M 940.0 155.0 L 930.0 155.0" stroke="#FF0000" fill="none" stroke-width="4px" />
<path d="M 930.0 155.0 L 930.0 165.0" stroke="#FF0000" fill="none" stroke-width="4px" />
<path d="M 930.0 165.0 L 940.0 165.0" stroke="#FF0000" fill="none" stroke-width="4px" />
<path d="M 940.0 165.0 L 950.0 165.0" stroke="#FF0000" fill="none" stroke-width="4px" />
<path d="M 950.0 165.0 L 960.0 165.0" stroke="#FF0000" fill="none" stroke-width="4px" />
<path d="M 960.0 165.0 L 970.0 165.0" stroke="#FF0000" fill="none" stroke-width="4px" />
<path d="M 970.0 165.0 L 980.0 165.0" stroke="#FF0000" fill="none" stroke-width="4px" />
<path d="M 980.0 165.0 L 990.0 165.0" stroke="#FF0000" fill="none" stroke-width="4px" />
<path d="M 990.0 165.0 L 1000.0 165.0" stroke="#FF0000" fill="none" stroke-width="4px" />
<path d="M 1000.0 165.0 L 990.0 175.0" stroke="#FF0000" fill="none" stroke-width="4px" />
<path d="M 990.0 175.0 L 980.0 175.0" stroke="#FF0000" fill="none" stroke-width="4px" />
<path d="M 980.0 175.0 L 970.0 175.0" stroke="#FF0000" fill="none" stroke-width="4px" />
<path d="M 970.0 175.0 L 960.0 175.0" stroke="#FF0000" fill="none" stroke-width="4px" />
<path d="M 960.0 175.0 L 950.0 175.0" stroke="#FF0000" fill="none" stroke-width="4px" />
<path d="M 950.0 175.0 L 940.0 175.0" stroke="#FF0000" fill="none" stroke-width="4px" />
<path d="M 940.0 175.0 L 950.0 185.0" stroke="#FF0000" fill="none" stroke-width="4px" />
<path d="M 950.0 185.0 L 960.0 185.0" stroke="#FF0000" fill="none" stroke-width="4px" />
<path d="M 960.0 185.0 L 970.0 185.0" stroke="#FF0000" fill="none" stroke-width="4px" />
<path d="M 970.0 185.0 L 980.0 185.0" stroke="#FF0000" fill="none" stroke-width="4px" />
<path d="M 980.0 135.0 L 970.0 135.0" stroke="#FF0000" fill="none" stroke-width="4px" />
<path d="M 970.0 135.0 L 960.0 135.0" stroke="#FF0000" fill="none" stroke-width="4px" />
<path d="M 960.0 135.0 L 950.0 135.0" stroke="#FF0000" fill="none" stroke-width="4px" />
<path d="M 950.0 135.0 L 940.0 135.0" stroke="#FF0000" fill="none" stroke-width="4px" />
<path d="M 940.0 135.0 L 950.0 125.0" stroke="#FF0000" fill="none" stroke-width="4px" />
<path d="M 950.0 125.0 L 960.0 125.0" stroke="#FF0000" fill="none" stroke-width="4px" />
<path d="M 960.0 125.0 L 970.0 125.0" stroke="#FF0000" fill="none" stroke-width="4px" />
<path d="M 970.0 125.0 L 980.0 125.0" stroke="#FF0000" fill="none" stroke-width="4px" />
<path d="M 980.0 125.0 L 990.0 125.0" stroke="#FF0000" fill="none" stroke-width="4px" />
<path d="M 990.0 125.0 L 990.0 135.0" stroke="#FF0000" fill="none" stroke-width="4px" />
<path d="M 990.0 135.0 L 1000.0 135.0" stroke="#FF0000" fill="none" stroke-width="4px" />
<path d="M 980.0 115.0 L 970.0 115.0" stroke="#FF0000" fill="none" stroke-width="4px" />
<path d="M 970.0 115.0 L 960.0 115.0" stroke="#FF0000" fill="none" stroke-width="4px" />
<path d="M 1020.0 85.0 L 1030.0 85.0" stroke="#FF0000" fill="none" stroke-width="4px" />
<path d="M 1030.0 85.0 L 1040.0 85.0" stroke="#FF0000" fill="none" stroke-width="4px" />
<path d="M 1040.0 85.0 L 1050.0 85.0" stroke="#FF0000" fill="none" stroke-width="4px" />
<path d="M 1050.0 85.0 L 1060.0 85.0" stroke="#FF0000" fill="none" stroke-width="4px" />
<path d="M 1060.0 85.0 L 1050.0 95.0" stroke="#FF0000" fill="none" stroke-width="4px" />
<path d="M 1050.0 95.0 L 1040.0 95.0" stroke="#FF0000" fill="none" stroke-width="4px" />
<path d="M 1040.0 95.0 L 1030.0 95.0" stroke="#FF0000" fill="none" stroke-width="4px" />
<path d="M 1030.0 95.0 L 1040.0 105.0" stroke="#FF0000" fill="none" stroke-width="4px" />
<path d="M 1040.0 75.0 L 1030.0 75.0" stroke="#FF0000" fill="none" stroke-width="4px" />
<path d="M 1030.0 75.0 L 1020.0 75.0" stroke="#FF0000" fill="none" stroke-width="4px" />
<path d="M 1020.0 75.0 L 1030.0 65.0" stroke="#FF0000" fill="none" stroke-width="4px" />
<path d="M 1030.0 65.0 L 1040.0 65.0" stroke="#FF0000" fill="none" stroke-width="4px" />
<path d="M 1040.0 65.0 L 1050.0 75.0" stroke="#FF0000" fill="none" stroke-width="4px" />
<path d="M 1260.0 135.0 L 1270.0 135.0" stroke="#FF0000" fill="none" stroke-width="4px" />
<path d="M 1270.0 135.0 L 1280.0 135.0" stroke="#FF0000" fill="none" stroke-width="4px" />
<path d="M 1280.0 135.0 L 1290.0 135.0" stroke="#FF0000" fill="none" stroke-width="4px" />
<path d="M 1290.0 135.0 L 1300.0 135.0" stroke="#FF0000" fill="none" stroke-width="4px" />
<path d="M 1300.0 135.0 L 1300.0 145.0" stroke="#FF0000" fill="none" stroke-width="4px" />
<path d="M 1300.0 145.0 L 1290.0 145.0" stroke="#FF0000" fill="none" stroke-width="4px" />
<path d="M 1290.0 145.0 L 1280.0 145.0" stroke="#FF0000" fill="none" stroke-width="4px" />
<path d="M 1280.0 145.0 L 1270.0 145.0" stroke="#FF0000" fill="none" stroke-width="4px" />
<path d="M 1270.0 145.0 L 1260.0 145.0" stroke="#FF0000" fill="none" stroke-width="4px" />
<path d="M 1260.0 145.0 L 1260.0 155.0" stroke="#FF0000" fill="none" stroke-width="4px" />
<path d="M 1260.0 155.0 L 1270.0 155.0" stroke="#FF0000" fill="none" stroke-width="4px" />
<path d="M 1270.0 155.0 L 1280.0 155.0" stroke="#FF0000" fill="none" stroke-width="4px" />
<path d="M 1280.0 155.0 L 1290.0 155.0" stroke="#FF0000" fill="none" stroke-width="4px" />
<path d="M 1290.0 155.0 L 1300.0 155.0" stroke="#FF0000" fill="none" stroke-width="4px" />
<path d="M 1300.0 155.0 L 1310.0 155.0" stroke="#FF0000" fill="none" stroke-width="4px" />
<path d="M 1310.0 155.0 L 1320.0 155.0" stroke="#FF0000" fill="none" stroke-width="4px" />
<path d="M 1320.0 155.0 L 1310.0 165.0" stroke="#FF0000" fill="none" stroke-width="4px" />
<path d="M 1310.0 165.0 L 1300.0 165.0" stroke="#FF0000" fill="none" stroke-width="4px" />
<path d="M 1300.0 165.0 L 1290.0 165.0" stroke="#FF0000" fill="none" stroke-width="4px" />
<path d="M 1290.0 165.0 L 1280.0 165.0" stroke="#FF0000" fill="none" stroke-width="4px" />
<path d="M 1280.0 165.0 L 1270.0 165.0" stroke="#FF0000" fill="none" stroke-width="4px" />
<path d="M 1270.0 165.0 L 1280.0 175.0" stroke="#FF0000" fill="none" stroke-width="4px" />
<path d="M 1280.0 175.0 L 1290.0 175.0" stroke="#FF0000" fill="none" stroke-width="4px" />
<path d="M 1290.0 175.0 L 1300.0 175.0" stroke="#FF0000" fill="none" stroke-width="4px" />
<path d="M 1290.0 125.0 L 1280.0 125.0" stroke="#FF0000" fill="none" stroke-width="4px" />
<path d="M 1280.0 125.0 L 1270.0 125.0" stroke="#FF0000" fill="none" stroke-width="4px" />
<path d="M 1270.0 125.0 L 1280.0 115.0" stroke="#FF0000" fill="none" stroke-width="4px" />
<path d="M 1640.0 85.0 L 1650.0 85.0" stroke="#FF0000" fill="none" stroke-width="4px" />
<path d="M 1650.0 85.0 L 1660.0 85.0" stroke="#FF0000" fill="none" stroke-width="4px" />
<path d="M 1660.0 85.0 L 1670.0 85.0" stroke="#FF0000" fill="none" stroke-width="4px" />
<path d="M 1670.0 85.0 L 1680.0 85.0" stroke="#FF0000" fill="none" stroke-width="4px" />
<path d="M 1680.0 85.0 L 1690.0 85.0" stroke="#FF0000" fill="none" stroke-width="4px" />
<path d="M 1690.0 85.0 L 1700.0 85.0" stroke="#FF0000" fill="none" stroke-width="4px" />
<path d="M 1700.0 85.0 L 1710.0 85.0" stroke="#FF0000" fill="none" stroke-width="4px" />
<path d="M 1710.0 85.0 L 1720.0 85.0" stroke="#FF0000" fill="none" stroke-width="4px" />
<path d="M 1720.0 85.0 L 1720.0 95.0" stroke="#FF0000" fill="none" stroke-width="4px" />
<path d="M 1720.0 95.0 L 1710.0 95.0" stroke="#FF0000" fill="none" stroke-width="4px" />
<path d="M 1710.0 95.0 L 1700.0 95.0" stroke="#FF0000" fill="none" stroke-width="4px" />
<path d="M 1700.0 95.0 L 1690.0 95.0" stroke="#FF0000" fill="none" stroke-width="4px" />
<path d="M 1690.0 95.0 L 1680.0 95.0" stroke="#FF0000" fill="none" stroke-width="4px" />
<path d="M 1680.0 95.0 L 1670.0 95.0" stroke="#FF0000" fill="none" stroke-width="4px" />
<path d="M 1670.0 95.0 L 1660.0 95.0" stroke="#FF0000" fill="none" stroke-width="4px" />
<path d="M 1660.0 95.0 L 1650.0 95.0" stroke="#FF0000" fill="none" stroke-width="4px" />
<path d="M 1650.0 95.0 L 1660.0 105.0" stroke="#FF0000" fill="none" stroke-width="4px" />
<path d="M 1660.0 105.0 L 1670.0 105.0" stroke="#FF0000" fill="none" stroke-width="4px" />
<path d="M 1670.0 105.0 L 1680.0 105.0" stroke="#FF0000" fill="none" stroke-width="4px" />
<path d="M 1680.0 105.0 L 1690.0 105.0" stroke="#FF0000" fill="none" stroke-width="4px" />
<path d="M 1690.0 105.0 L 1700.0 105.0" stroke="#FF0000" fill="none" stroke-width="4px" />
<path d="M 1700.0 105.0 L 1710.0 105.0" stroke="#FF0000" fill="none" stroke-width="4px" />
<path d="M 1710.0 105.0 L 1700.0 115.0" stroke="#FF0000" fill="none" stroke-width="4px" />
<path d="M 1700.0 115.0 L 1690.0 115.0" stroke="#FF0000" fill="none" stroke-width="4px" />
<path d="M 1690.0 115.0 L 1680.0 115.0" stroke="#FF0000" fill="none" stroke-width="4px" />
<path d="M 1680.0 115.0 L 1670.0 115.0" stroke="#FF0000" fill="none" stroke-width="4px" />
<path d="M 1670.0 115.0 L 1680.0 125.0" stroke="#FF0000" fill="none" stroke-width="4px" />
<path d="M 1680.0 75.0 L 1670.0 75.0" stroke="#FF0000" fill="none" stroke-width="4px" />
<path d="M 1670.0 75.0 L 1660.0 75.0" stroke="#FF0000" fill="none" stroke-width="4px" />
<path d="M 1660.0 75.0 L 1650.0 75.0" stroke="#FF0000" fill="none" stroke-width="4px" />
<path d="M 1650.0 75.0 L 1660.0 65.0" stroke="#FF0000" fill="none" stroke-width="4px" />
<path d="M 1660.0 65.0 L 1670.0 65.0" stroke="#FF0000" fill="none" stroke-width="4px" />
<path d="M 1670.0 65.0 L 1680.0 65.0" stroke="#FF0000" fill="none" stroke-width="4px" />
<path d="M 1680.0 65.0 L 1690.0 65.0" stroke="#FF0000" fill="none" stroke-width="4px" />
<path d="M 1690.0 65.0 L 1700.0 65.0" stroke="#FF0000" fill="none" stroke-width="4px" />
<path d="M 1700.0 65.0 L 1700.0 75.0" stroke="#FF0000" fill="none" stroke-width="4px" />
<path d="M 1700.0 75.0 L 1690.0 75.0" stroke="#FF0000" fill="none" stroke-width="4px" />
<path d="M 1690.0 75.0 L 1710.0 75.0" stroke="#FF0000" fill="none" stroke-width="4px" />
<path d="M 2260.0 125.0 L 2250.0 125.0" stroke="#FF0000" fill="none" stroke-width="4px" />
<path d="M 2250.0 125.0 L 2250.0 115.0" stroke="#FF0000" fill="none" stroke-width="4px" />
<path d="M 2250.0 115.0 L 2240.0 115.0" stroke="#FF0000" fill="none" stroke-width="4px" />
<path d="M 2240.0 115.0 L 2240.0 105.0" stroke="#FF0000" fill="none" stroke-width="4px" />
<path d="M 2240.0 105.0 L 2230.0 105.0" stroke="#FF0000" fill="none" stroke-width="4px" />
<path d="M 2230.0 105.0 L 2220.0 105.0" stroke="#FF0000" fill="none" stroke-width="4px" />
<path d="M 2220.0 105.0 L 2220.0 95.0" stroke="#FF0000" fill="none" stroke-width="4px" />
<path d="M 2220.0 95.0 L 2210.0 95.0" stroke="#FF0000" fill="none" stroke-width="4px" />
<path d="M 2210.0 95.0 L 2210.0 85.0" stroke="#FF0000" fill="none" stroke-width="4px" />
<path d="M 2210.0 85.0 L 2220.0 85.0" stroke="#FF0000" fill="none" stroke-width="4px" />
<path d="M 2220.0 85.0 L 2230.0 85.0" stroke="#FF0000" fill="none" stroke-width="4px" />
<path d="M 2230.0 85.0 L 2240.0 85.0" stroke="#FF0000" fill="none" stroke-width="4px" />
<path d="M 2240.0 85.0 L 2250.0 85.0" stroke="#FF0000" fill="none" stroke-width="4px" />
<path d="M 2250.0 85.0 L 2260.0 85.0" stroke="#FF0000" fill="none" stroke-width="4px" />
<path d="M 2260.0 85.0 L 2270.0 85.0" stroke="#FF0000" fill="none" stroke-width="4px" />
<path d="M 2270.0 85.0 L 2280.0 85.0" stroke="#FF0000" fill="none" stroke-width="4px" />
<path d="M 2280.0 85.0 L 2290.0 85.0" stroke="#FF0000" fill="none" stroke-width="4px" />
<path d="M 2290.0 85.0 L 2290.0 95.0" stroke="#FF0000" fill="none" stroke-width="4px" />
<path d="M 2290.0 95.0 L 2280.0 95.0" stroke="#FF0000" fill="none" stroke-width="4px" />
<path d="M 2280.0 95.0 L 2270.0 95.0" stroke="#FF0000" fill="none" stroke-width="4px" />
<path d="M 2270.0 95.0 L 2260.0 95.0" stroke="#FF0000" fill="none" stroke-width="4px" />
<path d="M 2260.0 95.0 L 2250.0 95.0" stroke="#FF0000" fill="none" stroke-width="4px" />
<path d="M 2250.0 95.0 L 2240.0 95.0" stroke="#FF0000" fill="none" stroke-width="4px" />
<path d="M 2240.0 95.0 L 2230.0 95.0" stroke="#FF0000" fill="none" stroke-width="4px" />
<path d="M 2250.0 105.0 L 2260.0 105.0" stroke="#FF0000" fill="none" stroke-width="4px" />
<path d="M 2260.0 105.0 L 2270.0 105.0" stroke="#FF0000" fill="none" stroke-width="4px" />
<path d="M 2270.0 105.0 L 2280.0 105.0" stroke="#FF0000" fill="none" stroke-width="4px" />
<path d="M 2280.0 105.0 L 2270.0 115.0" stroke="#FF0000" fill="none" stroke-width="4px" />
<path d="M 2270.0 115.0 L 2260.0 115.0" stroke="#FF0000" fill="none" stroke-width="4px" />
<path d="M 2260.0 75.0 L 2250.0 75.0" stroke="#FF0000" fill="none" stroke-width="4px" />
<path d="M 2250.0 75.0 L 2240.0 75.0" stroke="#FF0000" fill="none" stroke-width="4px" />
<path d="M 2240.0 75.0 L 2230.0 75.0" stroke="#FF0000" fill="none" stroke-width="4px" />
<path d="M 2230.0 75.0 L 2220.0 75.0" stroke="#FF0000" fill="none" stroke-width="4px" />
<path d="M 2220.0 75.0 L 2210.0 75.0" stroke="#FF0000" fill="none" stroke-width="4px" />
<path d="M 2210.0 75.0 L 2210.0 65.0" stroke="#FF0000" fill="none" stroke-width="4px" />
<path d="M 2210.0 65.0 L 2220.0 65.0" stroke="#FF0000" fill="none" stroke-width="4px" />
<path d="M 2220.0 65.0 L 2230.0 65.0" stroke="#FF0000" fill="none" stroke-width="4px" />
<path d="M 2230.0 65.0 L 2240.0 65.0" stroke="#FF0000" fill="none" stroke-width="4px" />
<path d="M 2240.0 65.0 L 2250.0 65.0" stroke="#FF0000" fill="none" stroke-width="4px" />
<path d="M 2250.0 65.0 L 2260.0 65.0" stroke="#FF0000" fill="none" stroke-width="4px" />
<path d="M 2260.0 65.0 L 2270.0 65.0" stroke="#FF0000" fill="none" stroke-width="4px" />
<path d="M 2270.0 65.0 L 2270.0 75.0" stroke="#FF0000" fill="none" stroke-width="4px" />
<path d="M 2270.0 75.0 L 2280.0 75.0" stroke="#FF0000" fill="none" stroke-width="4px" />
<path d="M 2250.0 55.0 L 2240.0 55.0" stroke="#FF0000" fill="none" stroke-width="4px" />
<path d="M 2240.0 55.0 L 2230.0 55.0" stroke="#FF0000" fill="none" stroke-width="4px" />
<path d="M 2230.0 55.0 L 2220.0 55.0" stroke="#FF0000" fill="none" stroke-width="4px" />
</svg>