<svg width="2894.54166667" height="235.0" xmlns="http://www.w3.org/2000/svg" version="1.1">
<path d="M 0.0 235.0 L 1875.0 235.0 L 1875.0 0.0 L 0.0 0.0 L 0.0 235.0" stroke="#000000" fill="none" stroke-width="3px" />
<path d="M 2894.54166667 235.0 L 1775.0 235.0 L 1775.0 0.0 L 2894.54166667 0.0 L 2894.54166667 235.0" stroke="#000000" fill="none" stroke-width="3px" />
<path d="M 10.0 257.5 L 0.0 247.5 L 10.0 237.5" stroke="#969696" fill="none" stroke-width="1px" />
<path d="M 10.0 237.5 L 1865.0 237.5" stroke="#969696" fill="none" stroke-width="1px" />
<path d="M 1865.0 237.5 L 1875.0 227.5 L 1865.0 217.5" stroke="#969696" fill="none" stroke-width="1px" />
<path d="M 1865.0 217.5 L 10.0 217.5" stroke="#969696" fill="none" stroke-width="1px" />
<path d="M 10.0 217.5 L 0.0 207.5 L 10.0 197.5" stroke="#969696" fill="none" stroke-width="1px" />
<path d="M 10.0 197.5 L 1865.0 197.5" stroke="#969696" fill="none" stroke-width="1px" />
<path d="M 1865.0 197.5 L 1875.0 187.5 L 1865.0 177.5" stroke="#969696" fill="none" stroke-width="1px" />
<path d="M 1865.0 177.5 L 10.0 177.5" stroke="#969696" fill="none" stroke-width="1px" />
<path d="M 10.0 177.5 L 0.0 167.5 L 10.0 157.5" stroke="#969696" fill="none" stroke-width="1px" />
<path d="M 10.0 157.5 L 1865.0 157.5" stroke="#969696" fill="none" stroke-width="1px" />
<path d="M 1865.0 157.5 L 1875.0 147.5 L 1865.0 137.5" stroke="#969696" fill="none" stroke-width="1px" />
<path d="M 1865.0 137.5 L 10.0 137.5" stroke="#969696" fill="none" stroke-width="1px" />
<path d="M 10.0 137.5 L 0.0 127.5 L 10.0 117.5" stroke="#969696" fill="none" stroke-width="1px" />
<path d="M 10.0 117.5 L 1865.0 117.5" stroke="#969696" fill="none" stroke-width="1px" />
<path d="M 1865.0 117.5 L 1875.0 107.5 L 1865.0 97.5" stroke="#969696" fill="none" stroke-width="1px" />
<path d="M 1865.0 97.5 L 10.0 97.5" stroke="#969696" fill="none" stroke-width="1px" />
<path d="M 10.0 97.5 L 0.0 87.5 L 10.0 77.5" stroke="#969696" fill="none" stroke-width="1px" />
<path d="M 10.0 77.5 L 1865.0 77.5" stroke="#969696" fill="none" stroke-width="1px" />
<path d="M 1865.0 77.5 L 1875.0 67.5 L 1865.0 57.5" stroke="#969696" fill="none" stroke-width="1px" />
<path d="M 1865.0 57.5 L 10.0 57.5" stroke="#969696" fill="none" stroke-width="1px" />
<path d="M 10.0 57.5 L 0.0 47.5 L 10.0 37.5" stroke="#969696" fill="none" stroke-width="1px" />
<path d="M 10.0 37.5 L 1865.0 37.5" stroke="#969696" fill="none" stroke-width="1px" />
<path d="M 1865.0 37.5 L 1875.0 27.5 L 1865.0 17.5" stroke="#969696" fill="none" stroke-width="1px" />
<path d="M 1865.0 17.5 L 10.0 17.5" stroke="#969696" fill="none" stroke-width="1px" />
<path d="M 10.0 17.5 L 0.0 7.5 L 10.0 -2.5" stroke="#969696" fill="none" stroke-width="1px" />
<path d="M 10.0 -2.5 L 1865.0 -2.5" stroke="#969696" fill="none" stroke-width="1px" />
<path d="M 1865.0 -2.5 L 1875.0 -12.5 L 1865.0 -22.5" stroke="#969696" fill="none" stroke-width="1px" />
<path d="M 2884.54166667 257.5 L 2894.54166667 247.5 L 2884.54166667 237.5" stroke="#969696" fill="none" stroke-width="1px" />
<path d="M 2884.54166667 237.5 L 1785.0 237.5" stroke="#969696" fill="none" stroke-width="1px" />
<path d="M 1785.0 237.5 L 1775.0 227.5 L 1785.0 217.5" stroke="#969696" fill="none" stroke-width="1px" />
<path d="M 1785.0 217.5 L 2884.54166667 217.5" stroke="#969696" fill="none" stroke-width="1px" />
<path d="M 2884.54166667 217.5 L 2894.54166667 207.5 L 2884.54166667 197.5" stroke="#969696" fill="none" stroke-width="1px" />
<path d="M 2884.54166667 197.5 L 1785.0 197.5" stroke="#969696" fill="none" stroke-width="1px" />
<path d="M 1785.0 197.5 L 1775.0 187.5 L 1785.0 177.5" stroke="#969696" fill="none" stroke-width="1px" />
<path d="M 1785.0 177.5 L 2884.54166667 177.5" stroke="#969696" fill="none" stroke-width="1px" />
<path d="M 2884.54166667 177.5 L 2894.54166667 167.5 L 2884.54166667 157.5" stroke="#969696" fill="none" stroke-width="1px" />
<path d="M 2884.54166667 157.5 L 1785.0 157.5" stroke="#969696" fill="none" stroke-width="1px" />
<path d="M 1785.0 157.5 L 1775.0 147.5 L 1785.0 137.5" stroke="#969696" fill="none" stroke-width="1px" />
<path d="M 1785.0 137.5 L 2884.54166667 137.5" stroke="#969696" fill="none" stroke-width="1px" />
<path d="M 2884.54166667 137.5 L 2894.54166667 127.5 L 2884.54166667 117.5" stroke="#969696" fill="none" stroke-width="1px" />
<path d="M 2884.54166667 117.5 L 1785.0 117.5" stroke="#969696" fill="none" stroke-width="1px" />
<path d="M 1785.0 117.5 L 1775.0 107.5 L 1785.0 97.5" stroke="#969696" fill="none" stroke-width="1px" />
<path d="M 1785.0 97.5 L 2884.54166667 97.5" stroke="#969696" fill="none" stroke-width="1px" />
<path d="M 2884.54166667 97.5 L 2894.54166667 87.5 L 2884.54166667 77.5" stroke="#969696" fill="none" stroke-width="1px" />
<path d="M 2884.54166667 77.5 L 1785.0 77.5" stroke="#969696" fill="none" stroke-width="1px" />
<path d="M 1785.0 77.5 L 1775.0 67.5 L 1785.0 57.5" stroke="#969696" fill="none" stroke-width="1px" />
<path d="M 1785.0 57.5 L 2884.54166667 57.5" stroke="#969696" fill="none" stroke-width="1px" />
<path d="M 2884.54166667 57.5 L 2894.54166667 47.5 L 2884.54166667 37.5" stroke="#969696" fill="none" stroke-width="1px" />
<path d="M 2884.54166667 37.5 L 1785.0 37.5" stroke="#969696" fill="none" stroke-width="1px" />
<path d="M 1785.0 37.5 L 1775.0 27.5 L 1785.0 17.5" stroke="#969696" fill="none" stroke-width="1px" />
<path d="M 1785.0 17.5 L 2884.54166667 17.5" stroke="#969696" fill="none" stroke-width="1px" />
<path d="M 2884.54166667 17.5 L 2894.54166667 7.5 L 2884.54166667 -2.5" stroke="#969696" fill="none" stroke-width="1px" />
<path d="M 2884.54166667 -2.5 L 1785.0 -2.5" stroke="#969696" fill="none" stroke-width="1px" />
<path d="M 1785.0 -2.5 L 1775.0 -12.5 L 1785.0 -22.5" stroke="#969696" fill="none" stroke-width="1px" />
<path d="M 0.0 235.0 L 650.0 105.0" stroke="#0095FF" fill="none" stroke-width="2px" />
<path d="M 660.0 115.0 L 680.0 125.0" stroke="#0095FF" fill="none" stroke-width="2px" />
<path d="M 700.0 125.0 L 700.0 95.0" stroke="#0095FF" fill="none" stroke-width="2px" />
<path d="M 710.0 95.0 L 690.0 75.0" stroke="#0095FF" fill="none" stroke-width="2px" />
<path d="M 670.0 75.0 L 770.0 95.0" stroke="#0095FF" fill="none" stroke-width="2px" />
<path d="M 790.0 125.0 L 790.0 85.0" stroke="#0095FF" fill="none" stroke-width="2px" />
<path d="M 2894.54166667 235.0 L 2750.0 135.0" stroke="#0095FF" fill="none" stroke-width="2px" />
<path d="M 2760.0 125.0 L 2740.0 105.0" stroke="#0095FF" fill="none" stroke-width="2px" />
<path d="M 650.0 105.0 L 660.0 105.0" stroke="#FF0000" fill="none" stroke-width="4px" />
<path d="M 660.0 105.0 L 670.0 105.0" stroke="#FF0000" fill="none" stroke-width="4px" />
<path d="M 670.0 105.0 L 680.0 105.0" stroke="#FF0000" fill="none" stroke-width="4px" />
<path d="M 680.0 105.0 L 690.0 105.0" stroke="#FF0000" fill="none" stroke-width="4px" />
<path d="M 690.0 105.0 L 700.0 105.0" stroke="#FF0000" fill="none" stroke-width="4px" />
<path d="M 700.0 105.0 L 710.0 105.0" stroke="#FF0000" fill="none" stroke-width="4px" />
<path d="M 710.0 105.0 L 710.0 115.0" stroke="#FF0000" fill="none" stroke-width="4px" />
<path d="M 710.0 115.0 L 700.0 115.0" stroke="#FF0000" fill="none" stroke-width="4px" />
<path d="M 700.0 115.0 L 690.0 115.0" stroke="#FF0000" fill="none" stroke-width="4px" />
<path d="M 690.0 115.0 L 680.0 115.0" stroke="#FF0000" fill="none" stroke-width="4px" />
<path d="M 680.0 115.0 L 670.0 115.0" stroke="#FF0000" fill="none" stroke-width="4px" />
<path d="M 670.0 115.0 L 660.0 115.0" stroke="#FF0000" fill="none" stroke-width="4px" />
<path d="M 680.0 125.0 L 690.0 125.0" stroke="#FF0000" fill="none" stroke-width="4px" />
<path d="M 690.0 125.0 L 700.0 125.0" stroke="#FF0000" fill="none" stroke-width="4px" />
<path d="M 700.0 95.0 L 690.0 95.0" stroke="#FF0000" fill="none" stroke-width="4px" />
<path d="M 690.0 95.0 L 680.0 95.0" stroke="#FF0000" fill="none" stroke-width="4px" />
<path d="M 680.0 95.0 L 670.0 95.0" stroke="#FF0000" fill="none" stroke-width="4px" />
<path d="M 670.0 95.0 L 660.0 95.0" stroke="#FF0000" fill="none" stroke-width="4px" />
<path d="M 660.0 95.0 L 650.0 95.0" stroke="#FF0000" fill="none" stroke-width="4px" />
<path d="M 650.0 95.0 L 660.0 85.0" stroke="#FF0000" fill="none" stroke-width="4px" />
<path d="M 660.0 85.0 L 670.0 85.0" stroke="#FF0000" fill="none" stroke-width="4px" />
<path d="M 670.0 85.0 L 680.0 85.0" stroke="#FF0000" fill="none" stroke-width="4px" />
<path d="M 680.0 85.0 L 690.0 85.0" stroke="#FF0000" fill="none" stroke-width="4px" />
<path d="M 690.0 85.0 L 700.0 85.0" stroke="#FF0000" fill="none" stroke-width="4px" />
<path d="M 700.0 85.0 L 710.0 95.0" stroke="#FF0000" fill="none" stroke-width="4px" />
<path d="M 690.0 75.0 L 680.0 75.0" stroke="#FF0000" fill="none" stroke-width="4px" />
<path d="M 680.0 75.0 L 670.0 75.0" stroke="#FF0000" fill="none" stroke-width="4px" />
<path d="M 770.0 95.0 L 780.0 95.0" stroke="#FF0000" fill="none" stroke-width="4px" />
<path d="M 780.0 95.0 L 790.0 95.0" stroke="#FF0000" fill="none" stroke-width="4px" />
<path d="M 790.0 95.0 L 800.0 95.0" stroke="#FF0000" fill="none" stroke-width="4px" />
<path d="M 800.0 95.0 L 810.0 95.0" stroke="#FF0000" fill="none" stroke-width="4px" />
<path d="M 810.0 95.0 L 820.0 95.0" stroke="#FF0000" fill="none" stroke-width="4px" />
<path d="M 820.0 95.0 L 820.0 105.0" stroke="#FF0000" fill="none" stroke-width="4px" />
<path d="M 820.0 105.0 L 810.0 105.0" stroke="#FF0000" fill="none" stroke-width="4px" />
<path d="M 810.0 105.0 L 800.0 105.0" stroke="#FF0000" fill="none" stroke-width="4px" />
<path d="M 800.0 105.0 L 790.0 105.0" stroke="#FF0000" fill="none" stroke-width="4px" />
<path d="M 790.0 105.0 L 780.0 105.0" stroke="#FF0000" fill="none" stroke-width="4px" />
<path d="M 780.0 105.0 L 770.0 105.0" stroke="#FF0000" fill="none" stroke-width="4px" />
<path d="M 770.0 105.0 L 780.0 115.0" stroke="#FF0000" fill="none" stroke-width="4px" />
<path d="M 780.0 115.0 L 790.0 115.0" stroke="#FF0000" fill="none" stroke-width="4px" />
<path d="M 790.0 115.0 L 800.0 115.0" stroke="#FF0000" fill="none" stroke-width="4px" />
<path d="M 800.0 115.0 L 810.0 115.0" stroke="#FF0000" fill="none" stroke-width="4px" />
<path d="M 810.0 115.0 L 800.0 125.0" stroke="#FF0000" fill="none" stroke-width="4px" />
<path d="M 800.0 125.0 L 790.0 125.0" stroke="#FF0000" fill="none" stroke-width="4px" />
<path d="M 790.0 85.0 L 780.0 85.0" stroke="#FF0000" fill="none" stroke-width="4px" />
<path d="M 780.0 85.0 L 790.0 75.0" stroke="#FF0000" fill="none" stroke-width="4px" />
<path d="M 790.0 75.0 L 800.0 75.0" stroke="#FF0000" fill="none" stroke-width="4px" />
<path d="M 800.0 75.0 L 810.0 75.0" stroke="#FF0000" fill="none" stroke-width="4px" />
<path d="M 810.0 75.0 L 810.0 85.0" stroke="#FF0000" fill="none" stroke-width="4px" />
<path d="M 810.0 85.0 L 800.0 85.0" stroke="#FF0000" fill="none" stroke-width="4px" />
<path d="M 800.0 85.0 L 820.0 85.0" stroke="#FF0000" fill="none" stroke-width="4px" />
<path d="M 2750.0 135.0 L 2740.0 135.0" stroke="#FF0000" fill="none" stroke-width="4px" />
<path d="M 2740.0 135.0 L 2740.0 125.0" stroke="#FF0000" fill="none" stroke-width="4px" />
<path d="M 2740.0 125.0 L 2730.0 125.0" stroke="#FF0000" fill="none" stroke-width="4px" />
<path d="M 2730.0 125.0 L 2730.0 115.0" stroke="#FF0000" fill="none" stroke-width="4px" />
<path d="M 2730.0 115.0 L 2740.0 115.0" stroke="#FF0000" fill="none" stroke-width="4px" />
<path d="M 2740.0 115.0 L 2750.0 115.0" stroke="#FF0000" fill="none" stroke-width="4px" />
<path d="M 2750.0 115.0 L 2750.0 125.0" stroke="#FF0000" fill="none" stroke-width="4px" />
<path d="M 2750.0 125.0 L 2760.0 125.0" stroke="#FF0000" fill="none" stroke-width="4px" />
</svg>