<svg width="2523.06666667" height="235.0" xmlns="http://www.w3.org/2000/svg" version="1.1">
<path d="M 0.0 235.0 L 1985.0 235.0 L 1985.0 0.0 L 0.0 0.0 L 0.0 235.0" stroke="#000000" fill="none" stroke-width="3px" />
<path d="M 2523.06666667 235.0 L 1885.0 235.0 L 1885.0 0.0 L 2523.06666667 0.0 L 2523.06666667 235.0" stroke="#000000" fill="none" stroke-width="3px" />
<path d="M 10.0 257.5 L 0.0 247.5 L 10.0 237.5" stroke="#969696" fill="none" stroke-width="1px" />
<path d="M 10.0 237.5 L 1975.0 237.5" stroke="#969696" fill="none" stroke-width="1px" />
<path d="M 1975.0 237.5 L 1985.0 227.5 L 1975.0 217.5" stroke="#969696" fill="none" stroke-width="1px" />
<path d="M 1975.0 217.5 L 10.0 217.5" stroke="#969696" fill="none" stroke-width="1px" />
<path d="M 10.0 217.5 L 0.0 207.5 L 10.0 197.5" stroke="#969696" fill="none" stroke-width="1px" />
<path d="M 10.0 197.5 L 1975.0 197.5" stroke="#969696" fill="none" stroke-width="1px" />
<path d="M 1975.0 197.5 L 1985.0 187.5 L 1975.0 177.5" stroke="#969696" fill="none" stroke-width="1px" />
<path d="M 1975.0 177.5 L 10.0 177.5" stroke="#969696" fill="none" stroke-width="1px" />
<path d="M 10.0 177.5 L 0.0 167.5 L 10.0 157.5" stroke="#969696" fill="none" stroke-width="1px" />
<path d="M 10.0 157.5 L 1975.0 157.5" stroke="#969696" fill="none" stroke-width="1px" />
<path d="M 1975.0 157.5 L 1985.0 147.5 L 1975.0 137.5" stroke="#969696" fill="none" stroke-width="1px" />
<path d="M 1975.0 137.5 L 10.0 137.5" stroke="#969696" fill="none" stroke-width="1px" />
<path d="M 10.0 137.5 L 0.0 127.5 L 10.0 117.5" stroke="#969696" fill="none" stroke-width="1px" />
<path d="M 10.0 117.5 L 1975.0 117.5" stroke="#969696" fill="none" stroke-width="1px" />
<path d="M 1975.0 117.5 L 1985.0 107.5 L 1975.0 97.5" stroke="#969696" fill="none" stroke-width="1px" />
<path d="M 1975.0 97.5 L 10.0 97.5" stroke="#969696" fill="none" stroke-width="1px" />
<path d="M 10.0 97.5 L 0.0 87.5 L 10.0 77.5" stroke="#969696" fill="none" stroke-width="1px" />
<path d="M 10.0 77.5 L 1975.0 77.5" stroke="#969696" fill="none" stroke-width="1px" />
<path d="M 1975.0 77.5 L 1985.0 67.5 L 1975.0 57.5" stroke="#969696" fill="none" stroke-width="1px" />
<path d="M 1975.0 57.5 L 10.0 57.5" stroke="#969696" fill="none" stroke-width="1px" />
<path d="M 10.0 57.5 L 0.0 47.5 L 10.0 37.5" stroke="#969696" fill="none" stroke-width="1px" />
<path d="M 10.0 37.5 L 1975.0 37.5" stroke="#969696" fill="none" stroke-width="1px" />
<path d="M 1975.0 37.5 L 1985.0 27.5 L 1975.0 17.5" stroke="#969696" fill="none" stroke-width="1px" />
<path d="M 1975.0 17.5 L 10.0 17.5" stroke="#969696" fill="none" stroke-width="1px" />
<path d="M 10.0 17.5 L 0.0 7.5 L 10.0 -2.5" stroke="#969696" fill="none" stroke-width="1px" />
<path d="M 10.0 -2.5 L 1975.0 -2.5" stroke="#969696" fill="none" stroke-width="1px" />
<path d="M 1975.0 -2.5 L 1985.0 -12.5 L 1975.0 -22.5" stroke="#969696" fill="none" stroke-width="1px" />
<path d="M 2513.06666667 257.5 L 2523.06666667 247.5 L 2513.06666667 237.5" stroke="#969696" fill="none" stroke-width="1px" />
<path d="M 2513.06666667 237.5 L 1895.0 237.5" stroke="#969696" fill="none" stroke-width="1px" />
<path d="M 1895.0 237.5 L 1885.0 227.5 L 1895.0 217.5" stroke="#969696" fill="none" stroke-width="1px" />
<path d="M 1895.0 217.5 L 2513.06666667 217.5" stroke="#969696" fill="none" stroke-width="1px" />
<path d="M 2513.06666667 217.5 L 2523.06666667 207.5 L 2513.06666667 197.5" stroke="#969696" fill="none" stroke-width="1px" />
<path d="M 2513.06666667 197.5 L 1895.0 197.5" stroke="#969696" fill="none" stroke-width="1px" />
<path d="M 1895.0 197.5 L 1885.0 187.5 L 1895.0 177.5" stroke="#969696" fill="none" stroke-width="1px" />
<path d="M 1895.0 177.5 L 2513.06666667 177.5" stroke="#969696" fill="none" stroke-width="1px" />
<path d="M 2513.06666667 177.5 L 2523.06666667 167.5 L 2513.06666667 157.5" stroke="#969696" fill="none" stroke-width="1px" />
<path d="M 2513.06666667 157.5 L 1895.0 157.5" stroke="#969696" fill="none" stroke-width="1px" />
<path d="M 1895.0 157.5 L 1885.0 147.5 L 1895.0 137.5" stroke="#969696" fill="none" stroke-width="1px" />
<path d="M 1895.0 137.5 L 2513.06666667 137.5" stroke="#969696" fill="none" stroke-width="1px" />
<path d="M 2513.06666667 137.5 L 2523.06666667 127.5 L 2513.06666667 117.5" stroke="#969696" fill="none" stroke-width="1px" />
<path d="M 2513.06666667 117.5 L 1895.0 117.5" stroke="#969696" fill="none" stroke-width="1px" />
<path d="M 1895.0 117.5 L 1885.0 107.5 L 1895.0 97.5" stroke="#969696" fill="none" stroke-width="1px" />
<path d="M 1895.0 97.5 L 2513.06666667 97.5" stroke="#969696" fill="none" stroke-width="1px" />
<path d="M 2513.06666667 97.5 L 2523.06666667 87.5 L 2513.06666667 77.5" stroke="#969696" fill="none" stroke-width="1px" />
<path d="M 2513.06666667 77.5 L 1895.0 77.5" stroke="#969696" fill="none" stroke-width="1px" />
<path d="M 1895.0 77.5 L 1885.0 67.5 L 1895.0 57.5" stroke="#969696" fill="none" stroke-width="1px" />
<path d="M 1895.0 57.5 L 2513.06666667 57.5" stroke="#969696" fill="none" stroke-width="1px" />
<path d="M 2513.06666667 57.5 L 2523.06666667 47.5 L 2513.06666667 37.5" stroke="#969696" fill="none" stroke-width="1px" />
<path d="M 2513.06666667 37.5 L 1895.0 37.5" stroke="#969696" fill="none" stroke-width="1px" />
<path d="M 1895.0 37.5 L 1885.0 27.5 L 1895.0 17.5" stroke="#969696" fill="none" stroke-width="1px" />
<path d="M 1895.0 17.5 L 2513.06666667 17.5" stroke="#969696" fill="none" stroke-width="1px" />
<path d="M 2513.06666667 17.5 L 2523.06666667 7.5 L 2513.06666667 -2.5" stroke="#969696" fill="none" stroke-width="1px" />
<path d="M 2513.06666667 -2.5 L 1895.0 -2.5" stroke="#969696" fill="none" stroke-width="1px" />
<path d="M 1895.0 -2.5 L 1885.0 -12.5 L 1895.0 -22.5" stroke="#969696" fill="none" stroke-width="1px" />
<path d="M 0.0 235.0 L 160.0 155.0" stroke="#0095FF" fill="none" stroke-width="2px" />
<path d="M 200.0 145.0 L 210.0 125.0" stroke="#0095FF" fill="none" stroke-width="2px" />
<path d="M 210.0 125.0 L 190.0 105.0" stroke="#0095FF" fill="none" stroke-width="2px" />
<path d="M 140.0 85.0 L 170.0 165.0" stroke="#0095FF" fill="none" stroke-width="2px" />
<path d="M 170.0 165.0 L 250.0 165.0" stroke="#0095FF" fill="none" stroke-width="2px" />
<path d="M 270.0 195.0 L 290.0 175.0" stroke="#0095FF" fill="none" stroke-width="2px" />
<path d="M 290.0 175.0 L 270.0 155.0" stroke="#0095FF" fill="none" stroke-width="2px" />
<path d="M 260.0 155.0 L 290.0 145.0" stroke="#0095FF" fill="none" stroke-width="2px" />
<path d="M 300.0 135.0 L 300.0 105.0" stroke="#0095FF" fill="none" stroke-width="2px" />
<path d="M 300.0 95.0 L 680.0 175.0" stroke="#0095FF" fill="none" stroke-width="2px" />
<path d="M 710.0 195.0 L 710.0 165.0" stroke="#0095FF" fill="none" stroke-width="2px" />
<path d="M 710.0 125.0 L 720.0 165.0" stroke="#0095FF" fill="none" stroke-width="2px" />
<path d="M 720.0 165.0 L 770.0 195.0" stroke="#0095FF" fill="none" stroke-width="2px" />
<path d="M 810.0 235.0 L 810.0 185.0" stroke="#0095FF" fill="none" stroke-width="2px" />
<path d="M 800.0 175.0 L 800.0 65.0" stroke="#0095FF" fill="none" stroke-width="2px" />
<path d="M 810.0 65.0 L 810.0 25.0" stroke="#0095FF" fill="none" stroke-width="2px" />
<path d="M 820.0 25.0 L 790.0 5.0" stroke="#0095FF" fill="none" stroke-width="2px" />
<path d="M 780.0 5.0 L 1290.0 175.0" stroke="#0095FF" fill="none" stroke-width="2px" />
<path d="M 1300.0 195.0 L 1300.0 215.0" stroke="#0095FF" fill="none" stroke-width="2px" />
<path d="M 1320.0 215.0 L 1340.0 195.0" stroke="#0095FF" fill="none" stroke-width="2px" />
<path d="M 1340.0 185.0 L 1320.0 165.0" stroke="#0095FF" fill="none" stroke-width="2px" />
<path d="M 1300.0 165.0 L 1700.0 135.0" stroke="#0095FF" fill="none" stroke-width="2px" />
<path d="M 1820.0 165.0 L 1810.0 185.0" stroke="#0095FF" fill="none" stroke-width="2px" />
<path d="M 1850.0 215.0 L 1840.0 235.0" stroke="#0095FF" fill="none" stroke-width="2px" />
<path d="M 1830.0 235.0 L 1830.0 195.0" stroke="#0095FF" fill="none" stroke-width="2px" />
<path d="M 1820.0 195.0 L 1810.0 145.0" stroke="#0095FF" fill="none" stroke-width="2px" />
<path d="M 1810.0 145.0 L 1800.0 125.0" stroke="#0095FF" fill="none" stroke-width="2px" />
<path d="M 1740.0 85.0 L 1810.0 45.0" stroke="#0095FF" fill="none" stroke-width="2px" />
<path d="M 1830.0 -5.0 L 1850.0 35.0" stroke="#0095FF" fill="none" stroke-width="2px" />
<path d="M 1850.0 35.0 L 1830.0 55.0" stroke="#0095FF" fill="none" stroke-width="2px" />
<path d="M 1820.0 55.0 L 1720.0 165.0" stroke="#0095FF" fill="none" stroke-width="2px" />
<path d="M 2523.06666667 235.0 L 2460.0 115.0" stroke="#0095FF" fill="none" stroke-width="2px" />
<path d="M 2450.0 105.0 L 2450.0 65.0" stroke="#0095FF" fill="none" stroke-width="2px" />
<path d="M 2460.0 65.0 L 2460.0 45.0" stroke="#0095FF" fill="none" stroke-width="2px" />
<path d="M 2440.0 45.0 L 2460.0 35.0" stroke="#0095FF" fill="none" stroke-width="2px" />
<path d="M 2470.0 45.0 L 2160.0 95.0" stroke="#0095FF" fill="none" stroke-width="2px" />
<path d="M 2130.0 115.0 L 2130.0 85.0" stroke="#0095FF" fill="none" stroke-width="2px" />
<path d="M 160.0 155.0 L 170.0 155.0" stroke="#FF0000" fill="none" stroke-width="4px" />
<path d="M 170.0 155.0 L 180.0 155.0" stroke="#FF0000" fill="none" stroke-width="4px" />
<path d="M 180.0 155.0 L 190.0 155.0" stroke="#FF0000" fill="none" stroke-width="4px" />
<path d="M 190.0 155.0 L 190.0 145.0" stroke="#FF0000" fill="none" stroke-width="4px" />
<path d="M 190.0 145.0 L 180.0 145.0" stroke="#FF0000" fill="none" stroke-width="4px" />
<path d="M 180.0 145.0 L 170.0 145.0" stroke="#FF0000" fill="none" stroke-width="4px" />
<path d="M 170.0 145.0 L 160.0 145.0" stroke="#FF0000" fill="none" stroke-width="4px" />
<path d="M 160.0 145.0 L 150.0 145.0" stroke="#FF0000" fill="none" stroke-width="4px" />
<path d="M 150.0 145.0 L 150.0 135.0" stroke="#FF0000" fill="none" stroke-width="4px" />
<path d="M 150.0 135.0 L 140.0 135.0" stroke="#FF0000" fill="none" stroke-width="4px" />
<path d="M 140.0 135.0 L 140.0 125.0" stroke="#FF0000" fill="none" stroke-width="4px" />
<path d="M 140.0 125.0 L 130.0 125.0" stroke="#FF0000" fill="none" stroke-width="4px" />
<path d="M 130.0 125.0 L 130.0 115.0" stroke="#FF0000" fill="none" stroke-width="4px" />
<path d="M 130.0 115.0 L 140.0 115.0" stroke="#FF0000" fill="none" stroke-width="4px" />
<path d="M 140.0 115.0 L 150.0 115.0" stroke="#FF0000" fill="none" stroke-width="4px" />
<path d="M 150.0 115.0 L 160.0 115.0" stroke="#FF0000" fill="none" stroke-width="4px" />
<path d="M 160.0 115.0 L 170.0 115.0" stroke="#FF0000" fill="none" stroke-width="4px" />
<path d="M 170.0 115.0 L 180.0 115.0" stroke="#FF0000" fill="none" stroke-width="4px" />
<path d="M 180.0 115.0 L 190.0 115.0" stroke="#FF0000" fill="none" stroke-width="4px" />
<path d="M 190.0 115.0 L 200.0 115.0" stroke="#FF0000" fill="none" stroke-width="4px" />
<path d="M 200.0 115.0 L 200.0 125.0" stroke="#FF0000" fill="none" stroke-width="4px" />
<path d="M 200.0 125.0 L 190.0 125.0" stroke="#FF0000" fill="none" stroke-width="4px" />
<path d="M 190.0 125.0 L 180.0 125.0" stroke="#FF0000" fill="none" stroke-width="4px" />
<path d="M 180.0 125.0 L 170.0 125.0" stroke="#FF0000" fill="none" stroke-width="4px" />
<path d="M 170.0 125.0 L 160.0 125.0" stroke="#FF0000" fill="none" stroke-width="4px" />
<path d="M 160.0 125.0 L 150.0 125.0" stroke="#FF0000" fill="none" stroke-width="4px" />
<path d="M 150.0 125.0 L 160.0 135.0" stroke="#FF0000" fill="none" stroke-width="4px" />
<path d="M 160.0 135.0 L 170.0 135.0" stroke="#FF0000" fill="none" stroke-width="4px" />
<path d="M 170.0 135.0 L 180.0 135.0" stroke="#FF0000" fill="none" stroke-width="4px" />
<path d="M 180.0 135.0 L 190.0 135.0" stroke="#FF0000" fill="none" stroke-width="4px" />
<path d="M 190.0 135.0 L 200.0 135.0" stroke="#FF0000" fill="none" stroke-width="4px" />
<path d="M 200.0 135.0 L 200.0 145.0" stroke="#FF0000" fill="none" stroke-width="4px" />
<path d="M 190.0 105.0 L 180.0 105.0" stroke="#FF0000" fill="none" stroke-width="4px" />
<path d="M 180.0 105.0 L 170.0 105.0" stroke="#FF0000" fill="none" stroke-width="4px" />
<path d="M 170.0 105.0 L 160.0 105.0" stroke="#FF0000" fill="none" stroke-width="4px" />
<path d="M 160.0 105.0 L 150.0 105.0" stroke="#FF0000" fill="none" stroke-width="4px" />
<path d="M 150.0 105.0 L 140.0 105.0" stroke="#FF0000" fill="none" stroke-width="4px" />
<path d="M 140.0 105.0 L 130.0 105.0" stroke="#FF0000" fill="none" stroke-width="4px" />
<path d="M 130.0 105.0 L 130.0 95.0" stroke="#FF0000" fill="none" stroke-width="4px" />
<path d="M 130.0 95.0 L 140.0 95.0" stroke="#FF0000" fill="none" stroke-width="4px" />
<path d="M 140.0 95.0 L 150.0 95.0" stroke="#FF0000" fill="none" stroke-width="4px" />
<path d="M 150.0 95.0 L 160.0 95.0" stroke="#FF0000" fill="none" stroke-width="4px" />
<path d="M 160.0 95.0 L 170.0 95.0" stroke="#FF0000" fill="none" stroke-width="4px" />
<path d="M 170.0 95.0 L 180.0 95.0" stroke="#FF0000" fill="none" stroke-width="4px" />
<path d="M 180.0 95.0 L 170.0 85.0" stroke="#FF0000" fill="none" stroke-width="4px" />
<path d="M 170.0 85.0 L 160.0 85.0" stroke="#FF0000" fill="none" stroke-width="4px" />
<path d="M 160.0 85.0 L 150.0 85.0" stroke="#FF0000" fill="none" stroke-width="4px" />
<path d="M 150.0 85.0 L 140.0 85.0" stroke="#FF0000" fill="none" stroke-width="4px" />
<path d="M 250.0 165.0 L 260.0 165.0" stroke="#FF0000" fill="none" stroke-width="4px" />
<path d="M 260.0 165.0 L 270.0 165.0" stroke="#FF0000" fill="none" stroke-width="4px" />
<path d="M 270.0 165.0 L 280.0 165.0" stroke="#FF0000" fill="none" stroke-width="4px" />
<path d="M 280.0 165.0 L 280.0 175.0" stroke="#FF0000" fill="none" stroke-width="4px" />
<path d="M 280.0 175.0 L 270.0 175.0" stroke="#FF0000" fill="none" stroke-width="4px" />
<path d="M 270.0 175.0 L 260.0 175.0" stroke="#FF0000" fill="none" stroke-width="4px" />
<path d="M 260.0 175.0 L 250.0 175.0" stroke="#FF0000" fill="none" stroke-width="4px" />
<path d="M 250.0 175.0 L 260.0 185.0" stroke="#FF0000" fill="none" stroke-width="4px" />
<path d="M 260.0 185.0 L 270.0 185.0" stroke="#FF0000" fill="none" stroke-width="4px" />
<path d="M 270.0 185.0 L 280.0 185.0" stroke="#FF0000" fill="none" stroke-width="4px" />
<path d="M 280.0 185.0 L 270.0 195.0" stroke="#FF0000" fill="none" stroke-width="4px" />
<path d="M 270.0 155.0 L 260.0 155.0" stroke="#FF0000" fill="none" stroke-width="4px" />
<path d="M 290.0 145.0 L 290.0 135.0" stroke="#FF0000" fill="none" stroke-width="4px" />
<path d="M 290.0 135.0 L 280.0 135.0" stroke="#FF0000" fill="none" stroke-width="4px" />
<path d="M 280.0 135.0 L 280.0 125.0" stroke="#FF0000" fill="none" stroke-width="4px" />
<path d="M 280.0 125.0 L 270.0 125.0" stroke="#FF0000" fill="none" stroke-width="4px" />
<path d="M 270.0 125.0 L 270.0 115.0" stroke="#FF0000" fill="none" stroke-width="4px" />
<path d="M 270.0 115.0 L 280.0 115.0" stroke="#FF0000" fill="none" stroke-width="4px" />
<path d="M 280.0 115.0 L 290.0 115.0" stroke="#FF0000" fill="none" stroke-width="4px" />
<path d="M 290.0 115.0 L 300.0 115.0" stroke="#FF0000" fill="none" stroke-width="4px" />
<path d="M 300.0 115.0 L 310.0 115.0" stroke="#FF0000" fill="none" stroke-width="4px" />
<path d="M 310.0 115.0 L 310.0 125.0" stroke="#FF0000" fill="none" stroke-width="4px" />
<path d="M 310.0 125.0 L 300.0 125.0" stroke="#FF0000" fill="none" stroke-width="4px" />
<path d="M 300.0 125.0 L 290.0 125.0" stroke="#FF0000" fill="none" stroke-width="4px" />
<path d="M 290.0 125.0 L 300.0 135.0" stroke="#FF0000" fill="none" stroke-width="4px" />
<path d="M 300.0 105.0 L 290.0 105.0" stroke="#FF0000" fill="none" stroke-width="4px" />
<path d="M 290.0 105.0 L 280.0 105.0" stroke="#FF0000" fill="none" stroke-width="4px" />
<path d="M 280.0 105.0 L 290.0 95.0" stroke="#FF0000" fill="none" stroke-width="4px" />
<path d="M 290.0 95.0 L 300.0 95.0" stroke="#FF0000" fill="none" stroke-width="4px" />
<path d="M 680.0 175.0 L 690.0 175.0" stroke="#FF0000" fill="none" stroke-width="4px" />
<path d="M 690.0 175.0 L 700.0 175.0" stroke="#FF0000" fill="none" stroke-width="4px" />
<path d="M 700.0 175.0 L 710.0 175.0" stroke="#FF0000" fill="none" stroke-width="4px" />
<path d="M 710.0 175.0 L 720.0 175.0" stroke="#FF0000" fill="none" stroke-width="4px" />
<path d="M 720.0 175.0 L 730.0 175.0" stroke="#FF0000" fill="none" stroke-width="4px" />
<path d="M 730.0 175.0 L 730.0 185.0" stroke="#FF0000" fill="none" stroke-width="4px" />
<path d="M 730.0 185.0 L 720.0 185.0" stroke="#FF0000" fill="none" stroke-width="4px" />
<path d="M 720.0 185.0 L 710.0 185.0" stroke="#FF0000" fill="none" stroke-width="4px" />
<path d="M 710.0 185.0 L 700.0 185.0" stroke="#FF0000" fill="none" stroke-width="4px" />
<path d="M 700.0 185.0 L 690.0 185.0" stroke="#FF0000" fill="none" stroke-width="4px" />
<path d="M 690.0 185.0 L 700.0 195.0" stroke="#FF0000" fill="none" stroke-width="4px" />
<path d="M 700.0 195.0 L 710.0 195.0" stroke="#FF0000" fill="none" stroke-width="4px" />
<path d="M 710.0 165.0 L 700.0 165.0" stroke="#FF0000" fill="none" stroke-width="4px" />
<path d="M 700.0 165.0 L 690.0 165.0" stroke="#FF0000" fill="none" stroke-width="4px" />
<path d="M 690.0 165.0 L 700.0 155.0" stroke="#FF0000" fill="none" stroke-width="4px" />
<path d="M 700.0 155.0 L 710.0 155.0" stroke="#FF0000" fill="none" stroke-width="4px" />
<path d="M 710.0 155.0 L 720.0 155.0" stroke="#FF0000" fill="none" stroke-width="4px" />
<path d="M 720.0 155.0 L 730.0 155.0" stroke="#FF0000" fill="none" stroke-width="4px" />
<path d="M 730.0 155.0 L 730.0 145.0" stroke="#FF0000" fill="none" stroke-width="4px" />
<path d="M 730.0 145.0 L 720.0 145.0" stroke="#FF0000" fill="none" stroke-width="4px" />
<path d="M 720.0 145.0 L 710.0 145.0" stroke="#FF0000" fill="none" stroke-width="4px" />
<path d="M 710.0 145.0 L 700.0 145.0" stroke="#FF0000" fill="none" stroke-width="4px" />
<path d="M 700.0 145.0 L 700.0 135.0" stroke="#FF0000" fill="none" stroke-width="4px" />
<path d="M 700.0 135.0 L 710.0 135.0" stroke="#FF0000" fill="none" stroke-width="4px" />
<path d="M 710.0 135.0 L 720.0 135.0" stroke="#FF0000" fill="none" stroke-width="4px" />
<path d="M 720.0 135.0 L 730.0 135.0" stroke="#FF0000" fill="none" stroke-width="4px" />
<path d="M 730.0 135.0 L 720.0 125.0" stroke="#FF0000" fill="none" stroke-width="4px" />
<path d="M 720.0 125.0 L 710.0 125.0" stroke="#FF0000" fill="none" stroke-width="4px" />
<path d="M 770.0 195.0 L 780.0 195.0" stroke="#FF0000" fill="none" stroke-width="4px" />
<path d="M 780.0 195.0 L 790.0 195.0" stroke="#FF0000" fill="none" stroke-width="4px" />
<path d="M 790.0 195.0 L 800.0 195.0" stroke="#FF0000" fill="none" stroke-width="4px" />
<path d="M 800.0 195.0 L 810.0 195.0" stroke="#FF0000" fill="none" stroke-width="4px" />
<path d="M 810.0 195.0 L 820.0 195.0" stroke="#FF0000" fill="none" stroke-width="4px" />
<path d="M 820.0 195.0 L 820.0 205.0" stroke="#FF0000" fill="none" stroke-width="4px" />
<path d="M 820.0 205.0 L 810.0 205.0" stroke="#FF0000" fill="none" stroke-width="4px" />
<path d="M 810.0 205.0 L 800.0 205.0" stroke="#FF0000" fill="none" stroke-width="4px" />
<path d="M 800.0 205.0 L 790.0 205.0" stroke="#FF0000" fill="none" stroke-width="4px" />
<path d="M 790.0 205.0 L 780.0 205.0" stroke="#FF0000" fill="none" stroke-width="4px" />
<path d="M 780.0 205.0 L 770.0 205.0" stroke="#FF0000" fill="none" stroke-width="4px" />
<path d="M 770.0 205.0 L 770.0 215.0" stroke="#FF0000" fill="none" stroke-width="4px" />
<path d="M 770.0 215.0 L 780.0 215.0" stroke="#FF0000" fill="none" stroke-width="4px" />
<path d="M 780.0 215.0 L 790.0 215.0" stroke="#FF0000" fill="none" stroke-width="4px" />
<path d="M 790.0 215.0 L 800.0 215.0" stroke="#FF0000" fill="none" stroke-width="4px" />
<path d="M 800.0 215.0 L 810.0 215.0" stroke="#FF0000" fill="none" stroke-width="4px" />
<path d="M 810.0 215.0 L 820.0 215.0" stroke="#FF0000" fill="none" stroke-width="4px" />
<path d="M 820.0 215.0 L 820.0 225.0" stroke="#FF0000" fill="none" stroke-width="4px" />
<path d="M 820.0 225.0 L 810.0 225.0" stroke="#FF0000" fill="none" stroke-width="4px" />
<path d="M 810.0 225.0 L 800.0 225.0" stroke="#FF0000" fill="none" stroke-width="4px" />
<path d="M 800.0 225.0 L 790.0 225.0" stroke="#FF0000" fill="none" stroke-width="4px" />
<path d="M 790.0 225.0 L 780.0 225.0" stroke="#FF0000" fill="none" stroke-width="4px" />
<path d="M 780.0 225.0 L 790.0 235.0" stroke="#FF0000" fill="none" stroke-width="4px" />
<path d="M 790.0 235.0 L 800.0 235.0" stroke="#FF0000" fill="none" stroke-width="4px" />
<path d="M 800.0 235.0 L 810.0 235.0" stroke="#FF0000" fill="none" stroke-width="4px" />
<path d="M 810.0 185.0 L 800.0 185.0" stroke="#FF0000" fill="none" stroke-width="4px" />
<path d="M 800.0 185.0 L 790.0 185.0" stroke="#FF0000" fill="none" stroke-width="4px" />
<path d="M 790.0 185.0 L 780.0 185.0" stroke="#FF0000" fill="none" stroke-width="4px" />
<path d="M 780.0 185.0 L 790.0 175.0" stroke="#FF0000" fill="none" stroke-width="4px" />
<path d="M 790.0 175.0 L 800.0 175.0" stroke="#FF0000" fill="none" stroke-width="4px" />
<path d="M 800.0 65.0 L 790.0 65.0" stroke="#FF0000" fill="none" stroke-width="4px" />
<path d="M 790.0 65.0 L 780.0 65.0" stroke="#FF0000" fill="none" stroke-width="4px" />
<path d="M 780.0 65.0 L 780.0 55.0" stroke="#FF0000" fill="none" stroke-width="4px" />
<path d="M 780.0 55.0 L 770.0 55.0" stroke="#FF0000" fill="none" stroke-width="4px" />
<path d="M 770.0 55.0 L 770.0 45.0" stroke="#FF0000" fill="none" stroke-width="4px" />
<path d="M 770.0 45.0 L 760.0 45.0" stroke="#FF0000" fill="none" stroke-width="4px" />
<path d="M 760.0 45.0 L 760.0 35.0" stroke="#FF0000" fill="none" stroke-width="4px" />
<path d="M 760.0 35.0 L 770.0 35.0" stroke="#FF0000" fill="none" stroke-width="4px" />
<path d="M 770.0 35.0 L 780.0 35.0" stroke="#FF0000" fill="none" stroke-width="4px" />
<path d="M 780.0 35.0 L 790.0 35.0" stroke="#FF0000" fill="none" stroke-width="4px" />
<path d="M 790.0 35.0 L 800.0 35.0" stroke="#FF0000" fill="none" stroke-width="4px" />
<path d="M 800.0 35.0 L 810.0 35.0" stroke="#FF0000" fill="none" stroke-width="4px" />
<path d="M 810.0 35.0 L 820.0 35.0" stroke="#FF0000" fill="none" stroke-width="4px" />
<path d="M 820.0 35.0 L 820.0 45.0" stroke="#FF0000" fill="none" stroke-width="4px" />
<path d="M 820.0 45.0 L 810.0 45.0" stroke="#FF0000" fill="none" stroke-width="4px" />
<path d="M 810.0 45.0 L 800.0 45.0" stroke="#FF0000" fill="none" stroke-width="4px" />
<path d="M 800.0 45.0 L 790.0 45.0" stroke="#FF0000" fill="none" stroke-width="4px" />
<path d="M 790.0 45.0 L 780.0 45.0" stroke="#FF0000" fill="none" stroke-width="4px" />
<path d="M 780.0 45.0 L 790.0 55.0" stroke="#FF0000" fill="none" stroke-width="4px" />
<path d="M 790.0 55.0 L 800.0 55.0" stroke="#FF0000" fill="none" stroke-width="4px" />
<path d="M 800.0 55.0 L 810.0 55.0" stroke="#FF0000" fill="none" stroke-width="4px" />
<path d="M 810.0 55.0 L 820.0 55.0" stroke="#FF0000" fill="none" stroke-width="4px" />
<path d="M 820.0 55.0 L 810.0 65.0" stroke="#FF0000" fill="none" stroke-width="4px" />
<path d="M 810.0 25.0 L 800.0 25.0" stroke="#FF0000" fill="none" stroke-width="4px" />
<path d="M 800.0 25.0 L 790.0 25.0" stroke="#FF0000" fill="none" stroke-width="4px" />
<path d="M 790.0 25.0 L 780.0 25.0" stroke="#FF0000" fill="none" stroke-width="4px" />
<path d="M 780.0 25.0 L 770.0 25.0" stroke="#FF0000" fill="none" stroke-width="4px" />
<path d="M 770.0 25.0 L 760.0 25.0" stroke="#FF0000" fill="none" stroke-width="4px" />
<path d="M 760.0 25.0 L 770.0 15.0" stroke="#FF0000" fill="none" stroke-width="4px" />
<path d="M 770.0 15.0 L 780.0 15.0" stroke="#FF0000" fill="none" stroke-width="4px" />
<path d="M 780.0 15.0 L 790.0 15.0" stroke="#FF0000" fill="none" stroke-width="4px" />
<path d="M 790.0 15.0 L 800.0 15.0" stroke="#FF0000" fill="none" stroke-width="4px" />
<path d="M 800.0 15.0 L 810.0 15.0" stroke="#FF0000" fill="none" stroke-width="4px" />
<path d="M 810.0 15.0 L 820.0 25.0" stroke="#FF0000" fill="none" stroke-width="4px" />
<path d="M 790.0 5.0 L 780.0 5.0" stroke="#FF0000" fill="none" stroke-width="4px" />
<path d="M 1290.0 175.0 L 1300.0 175.0" stroke="#FF0000" fill="none" stroke-width="4px" />
<path d="M 1300.0 175.0 L 1310.0 175.0" stroke="#FF0000" fill="none" stroke-width="4px" />
<path d="M 1310.0 175.0 L 1320.0 175.0" stroke="#FF0000" fill="none" stroke-width="4px" />
<path d="M 1320.0 175.0 L 1330.0 175.0" stroke="#FF0000" fill="none" stroke-width="4px" />
<path d="M 1330.0 175.0 L 1330.0 185.0" stroke="#FF0000" fill="none" stroke-width="4px" />
<path d="M 1330.0 185.0 L 1320.0 185.0" stroke="#FF0000" fill="none" stroke-width="4px" />
<path d="M 1320.0 185.0 L 1310.0 185.0" stroke="#FF0000" fill="none" stroke-width="4px" />
<path d="M 1310.0 185.0 L 1300.0 185.0" stroke="#FF0000" fill="none" stroke-width="4px" />
<path d="M 1300.0 185.0 L 1290.0 185.0" stroke="#FF0000" fill="none" stroke-width="4px" />
<path d="M 1290.0 185.0 L 1290.0 195.0" stroke="#FF0000" fill="none" stroke-width="4px" />
<path d="M 1290.0 195.0 L 1280.0 195.0" stroke="#FF0000" fill="none" stroke-width="4px" />
<path d="M 1280.0 195.0 L 1290.0 205.0" stroke="#FF0000" fill="none" stroke-width="4px" />
<path d="M 1290.0 205.0 L 1300.0 205.0" stroke="#FF0000" fill="none" stroke-width="4px" />
<path d="M 1300.0 205.0 L 1310.0 205.0" stroke="#FF0000" fill="none" stroke-width="4px" />
<path d="M 1310.0 205.0 L 1320.0 205.0" stroke="#FF0000" fill="none" stroke-width="4px" />
<path d="M 1320.0 205.0 L 1330.0 205.0" stroke="#FF0000" fill="none" stroke-width="4px" />
<path d="M 1330.0 205.0 L 1330.0 195.0" stroke="#FF0000" fill="none" stroke-width="4px" />
<path d="M 1330.0 195.0 L 1320.0 195.0" stroke="#FF0000" fill="none" stroke-width="4px" />
<path d="M 1320.0 195.0 L 1310.0 195.0" stroke="#FF0000" fill="none" stroke-width="4px" />
<path d="M 1310.0 195.0 L 1300.0 195.0" stroke="#FF0000" fill="none" stroke-width="4px" />
<path d="M 1300.0 215.0 L 1310.0 215.0" stroke="#FF0000" fill="none" stroke-width="4px" />
<path d="M 1310.0 215.0 L 1320.0 215.0" stroke="#FF0000" fill="none" stroke-width="4px" />
<path d="M 1340.0 195.0 L 1340.0 185.0" stroke="#FF0000" fill="none" stroke-width="4px" />
<path d="M 1320.0 165.0 L 1310.0 165.0" stroke="#FF0000" fill="none" stroke-width="4px" />
<path d="M 1310.0 165.0 L 1300.0 165.0" stroke="#FF0000" fill="none" stroke-width="4px" />
<path d="M 1700.0 135.0 L 1710.0 135.0" stroke="#FF0000" fill="none" stroke-width="4px" />
<path d="M 1710.0 135.0 L 1720.0 135.0" stroke="#FF0000" fill="none" stroke-width="4px" />
<path d="M 1720.0 135.0 L 1730.0 135.0" stroke="#FF0000" fill="none" stroke-width="4px" />
<path d="M 1730.0 135.0 L 1740.0 135.0" stroke="#FF0000" fill="none" stroke-width="4px" />
<path d="M 1740.0 135.0 L 1750.0 135.0" stroke="#FF0000" fill="none" stroke-width="4px" />
<path d="M 1750.0 135.0 L 1760.0 135.0" stroke="#FF0000" fill="none" stroke-width="4px" />
<path d="M 1760.0 135.0 L 1770.0 135.0" stroke="#FF0000" fill="none" stroke-width="4px" />
<path d="M 1770.0 135.0 L 1780.0 135.0" stroke="#FF0000" fill="none" stroke-width="4px" />
<path d="M 1780.0 135.0 L 1790.0 135.0" stroke="#FF0000" fill="none" stroke-width="4px" />
<path d="M 1790.0 135.0 L 1800.0 135.0" stroke="#FF0000" fill="none" stroke-width="4px" />
<path d="M 1800.0 135.0 L 1800.0 145.0" stroke="#FF0000" fill="none" stroke-width="4px" />
<path d="M 1800.0 145.0 L 1790.0 145.0" stroke="#FF0000" fill="none" stroke-width="4px" />
<path d="M 1790.0 145.0 L 1780.0 145.0" stroke="#FF0000" fill="none" stroke-width="4px" />
<path d="M 1780.0 145.0 L 1770.0 145.0" stroke="#FF0000" fill="none" stroke-width="4px" />
<path d="M 1770.0 145.0 L 1760.0 145.0" stroke="#FF0000" fill="none" stroke-width="4px" />
<path d="M 1760.0 145.0 L 1750.0 145.0" stroke="#FF0000" fill="none" stroke-width="4px" />
<path d="M 1750.0 145.0 L 1740.0 145.0" stroke="#FF0000" fill="none" stroke-width="4px" />
<path d="M 1740.0 145.0 L 1730.0 145.0" stroke="#FF0000" fill="none" stroke-width="4px" />
<path d="M 1730.0 145.0 L 1720.0 145.0" stroke="#FF0000" fill="none" stroke-width="4px" />
<path d="M 1720.0 145.0 L 1710.0 145.0" stroke="#FF0000" fill="none" stroke-width="4px" />
<path d="M 1710.0 145.0 L 1710.0 155.0" stroke="#FF0000" fill="none" stroke-width="4px" />
<path d="M 1710.0 155.0 L 1720.0 155.0" stroke="#FF0000" fill="none" stroke-width="4px" />
<path d="M 1720.0 155.0 L 1730.0 155.0" stroke="#FF0000" fill="none" stroke-width="4px" />
<path d="M 1730.0 155.0 L 1740.0 155.0" stroke="#FF0000" fill="none" stroke-width="4px" />
<path d="M 1740.0 155.0 L 1750.0 155.0" stroke="#FF0000" fill="none" stroke-width="4px" />
<path d="M 1750.0 155.0 L 1760.0 155.0" stroke="#FF0000" fill="none" stroke-width="4px" />
<path d="M 1760.0 155.0 L 1770.0 155.0" stroke="#FF0000" fill="none" stroke-width="4px" />
<path d="M 1770.0 155.0 L 1780.0 155.0" stroke="#FF0000" fill="none" stroke-width="4px" />
<path d="M 1780.0 155.0 L 1790.0 155.0" stroke="#FF0000" fill="none" stroke-width="4px" />
<path d="M 1790.0 155.0 L 1800.0 155.0" stroke="#FF0000" fill="none" stroke-width="4px" />
<path d="M 1800.0 155.0 L 1810.0 155.0" stroke="#FF0000" fill="none" stroke-width="4px" />
<path d="M 1810.0 155.0 L 1810.0 165.0" stroke="#FF0000" fill="none" stroke-width="4px" />
<path d="M 1810.0 165.0 L 1800.0 165.0" stroke="#FF0000" fill="none" stroke-width="4px" />
<path d="M 1800.0 165.0 L 1790.0 165.0" stroke="#FF0000" fill="none" stroke-width="4px" />
<path d="M 1790.0 165.0 L 1780.0 165.0" stroke="#FF0000" fill="none" stroke-width="4px" />
<path d="M 1780.0 165.0 L 1770.0 165.0" stroke="#FF0000" fill="none" stroke-width="4px" />
<path d="M 1770.0 165.0 L 1780.0 175.0" stroke="#FF0000" fill="none" stroke-width="4px" />
<path d="M 1780.0 175.0 L 1790.0 175.0" stroke="#FF0000" fill="none" stroke-width="4px" />
<path d="M 1790.0 175.0 L 1800.0 175.0" stroke="#FF0000" fill="none" stroke-width="4px" />
<path d="M 1800.0 175.0 L 1810.0 175.0" stroke="#FF0000" fill="none" stroke-width="4px" />
<path d="M 1810.0 175.0 L 1820.0 175.0" stroke="#FF0000" fill="none" stroke-width="4px" />
<path d="M 1820.0 175.0 L 1820.0 165.0" stroke="#FF0000" fill="none" stroke-width="4px" />
<path d="M 1810.0 185.0 L 1800.0 185.0" stroke="#FF0000" fill="none" stroke-width="4px" />
<path d="M 1800.0 185.0 L 1790.0 185.0" stroke="#FF0000" fill="none" stroke-width="4px" />
<path d="M 1790.0 185.0 L 1800.0 195.0" stroke="#FF0000" fill="none" stroke-width="4px" />
<path d="M 1800.0 195.0 L 1810.0 205.0" stroke="#FF0000" fill="none" stroke-width="4px" />
<path d="M 1810.0 205.0 L 1820.0 205.0" stroke="#FF0000" fill="none" stroke-width="4px" />
<path d="M 1820.0 205.0 L 1830.0 205.0" stroke="#FF0000" fill="none" stroke-width="4px" />
<path d="M 1830.0 205.0 L 1840.0 205.0" stroke="#FF0000" fill="none" stroke-width="4px" />
<path d="M 1840.0 205.0 L 1840.0 215.0" stroke="#FF0000" fill="none" stroke-width="4px" />
<path d="M 1840.0 215.0 L 1830.0 215.0" stroke="#FF0000" fill="none" stroke-width="4px" />
<path d="M 1830.0 215.0 L 1820.0 215.0" stroke="#FF0000" fill="none" stroke-width="4px" />
<path d="M 1820.0 215.0 L 1810.0 215.0" stroke="#FF0000" fill="none" stroke-width="4px" />
<path d="M 1810.0 215.0 L 1820.0 225.0" stroke="#FF0000" fill="none" stroke-width="4px" />
<path d="M 1820.0 225.0 L 1830.0 225.0" stroke="#FF0000" fill="none" stroke-width="4px" />
<path d="M 1830.0 225.0 L 1840.0 225.0" stroke="#FF0000" fill="none" stroke-width="4px" />
<path d="M 1840.0 225.0 L 1850.0 225.0" stroke="#FF0000" fill="none" stroke-width="4px" />
<path d="M 1850.0 225.0 L 1850.0 215.0" stroke="#FF0000" fill="none" stroke-width="4px" />
<path d="M 1840.0 235.0 L 1830.0 235.0" stroke="#FF0000" fill="none" stroke-width="4px" />
<path d="M 1830.0 195.0 L 1820.0 195.0" stroke="#FF0000" fill="none" stroke-width="4px" />
<path d="M 1800.0 125.0 L 1790.0 125.0" stroke="#FF0000" fill="none" stroke-width="4px" />
<path d="M 1790.0 125.0 L 1780.0 125.0" stroke="#FF0000" fill="none" stroke-width="4px" />
<path d="M 1780.0 125.0 L 1770.0 125.0" stroke="#FF0000" fill="none" stroke-width="4px" />
<path d="M 1770.0 125.0 L 1760.0 125.0" stroke="#FF0000" fill="none" stroke-width="4px" />
<path d="M 1760.0 125.0 L 1750.0 125.0" stroke="#FF0000" fill="none" stroke-width="4px" />
<path d="M 1750.0 125.0 L 1740.0 125.0" stroke="#FF0000" fill="none" stroke-width="4px" />
<path d="M 1740.0 125.0 L 1730.0 125.0" stroke="#FF0000" fill="none" stroke-width="4px" />
<path d="M 1730.0 125.0 L 1720.0 125.0" stroke="#FF0000" fill="none" stroke-width="4px" />
<path d="M 1720.0 125.0 L 1710.0 125.0" stroke="#FF0000" fill="none" stroke-width="4px" />
<path d="M 1710.0 125.0 L 1710.0 115.0" stroke="#FF0000" fill="none" stroke-width="4px" />
<path d="M 1710.0 115.0 L 1720.0 115.0" stroke="#FF0000" fill="none" stroke-width="4px" />
<path d="M 1720.0 115.0 L 1730.0 115.0" stroke="#FF0000" fill="none" stroke-width="4px" />
<path d="M 1730.0 115.0 L 1740.0 115.0" stroke="#FF0000" fill="none" stroke-width="4px" />
<path d="M 1740.0 115.0 L 1750.0 115.0" stroke="#FF0000" fill="none" stroke-width="4px" />
<path d="M 1750.0 115.0 L 1760.0 115.0" stroke="#FF0000" fill="none" stroke-width="4px" />
<path d="M 1760.0 115.0 L 1770.0 115.0" stroke="#FF0000" fill="none" stroke-width="4px" />
<path d="M 1770.0 115.0 L 1780.0 115.0" stroke="#FF0000" fill="none" stroke-width="4px" />
<path d="M 1780.0 115.0 L 1790.0 115.0" stroke="#FF0000" fill="none" stroke-width="4px" />
<path d="M 1790.0 115.0 L 1780.0 105.0" stroke="#FF0000" fill="none" stroke-width="4px" />
<path d="M 1780.0 105.0 L 1770.0 105.0" stroke="#FF0000" fill="none" stroke-width="4px" />
<path d="M 1770.0 105.0 L 1760.0 105.0" stroke="#FF0000" fill="none" stroke-width="4px" />
<path d="M 1760.0 105.0 L 1750.0 105.0" stroke="#FF0000" fill="none" stroke-width="4px" />
<path d="M 1750.0 105.0 L 1740.0 105.0" stroke="#FF0000" fill="none" stroke-width="4px" />
<path d="M 1740.0 105.0 L 1730.0 105.0" stroke="#FF0000" fill="none" stroke-width="4px" />
<path d="M 1730.0 105.0 L 1720.0 105.0" stroke="#FF0000" fill="none" stroke-width="4px" />
<path d="M 1720.0 105.0 L 1720.0 95.0" stroke="#FF0000" fill="none" stroke-width="4px" />
<path d="M 1720.0 95.0 L 1730.0 95.0" stroke="#FF0000" fill="none" stroke-width="4px" />
<path d="M 1730.0 95.0 L 1740.0 95.0" stroke="#FF0000" fill="none" stroke-width="4px" />
<path d="M 1740.0 95.0 L 1750.0 95.0" stroke="#FF0000" fill="none" stroke-width="4px" />
<path d="M 1750.0 95.0 L 1740.0 85.0" stroke="#FF0000" fill="none" stroke-width="4px" />
<path d="M 1810.0 45.0 L 1820.0 45.0" stroke="#FF0000" fill="none" stroke-width="4px" />
<path d="M 1820.0 45.0 L 1830.0 45.0" stroke="#FF0000" fill="none" stroke-width="4px" />
<path d="M 1830.0 45.0 L 1840.0 45.0" stroke="#FF0000" fill="none" stroke-width="4px" />
<path d="M 1840.0 45.0 L 1840.0 35.0" stroke="#FF0000" fill="none" stroke-width="4px" />
<path d="M 1840.0 35.0 L 1830.0 35.0" stroke="#FF0000" fill="none" stroke-width="4px" />
<path d="M 1830.0 35.0 L 1820.0 35.0" stroke="#FF0000" fill="none" stroke-width="4px" />
<path d="M 1820.0 35.0 L 1810.0 35.0" stroke="#FF0000" fill="none" stroke-width="4px" />
<path d="M 1810.0 35.0 L 1810.0 25.0" stroke="#FF0000" fill="none" stroke-width="4px" />
<path d="M 1810.0 25.0 L 1820.0 25.0" stroke="#FF0000" fill="none" stroke-width="4px" />
<path d="M 1820.0 25.0 L 1830.0 25.0" stroke="#FF0000" fill="none" stroke-width="4px" />
<path d="M 1830.0 25.0 L 1840.0 25.0" stroke="#FF0000" fill="none" stroke-width="4px" />
<path d="M 1840.0 25.0 L 1850.0 25.0" stroke="#FF0000" fill="none" stroke-width="4px" />
<path d="M 1850.0 25.0 L 1860.0 25.0" stroke="#FF0000" fill="none" stroke-width="4px" />
<path d="M 1860.0 25.0 L 1860.0 15.0" stroke="#FF0000" fill="none" stroke-width="4px" />
<path d="M 1860.0 15.0 L 1850.0 15.0" stroke="#FF0000" fill="none" stroke-width="4px" />
<path d="M 1850.0 15.0 L 1840.0 15.0" stroke="#FF0000" fill="none" stroke-width="4px" />
<path d="M 1840.0 15.0 L 1830.0 15.0" stroke="#FF0000" fill="none" stroke-width="4px" />
<path d="M 1830.0 15.0 L 1820.0 15.0" stroke="#FF0000" fill="none" stroke-width="4px" />
<path d="M 1820.0 15.0 L 1810.0 15.0" stroke="#FF0000" fill="none" stroke-width="4px" />
<path d="M 1810.0 15.0 L 1820.0 5.0" stroke="#FF0000" fill="none" stroke-width="4px" />
<path d="M 1820.0 5.0 L 1830.0 5.0" stroke="#FF0000" fill="none" stroke-width="4px" />
<path d="M 1830.0 5.0 L 1840.0 5.0" stroke="#FF0000" fill="none" stroke-width="4px" />
<path d="M 1840.0 5.0 L 1850.0 5.0" stroke="#FF0000" fill="none" stroke-width="4px" />
<path d="M 1850.0 5.0 L 1850.0 -5.0" stroke="#FF0000" fill="none" stroke-width="4px" />
<path d="M 1850.0 -5.0 L 1840.0 -5.0" stroke="#FF0000" fill="none" stroke-width="4px" />
<path d="M 1840.0 -5.0 L 1830.0 -5.0" stroke="#FF0000" fill="none" stroke-width="4px" />
<path d="M 1830.0 55.0 L 1820.0 55.0" stroke="#FF0000" fill="none" stroke-width="4px" />
<path d="M 2460.0 115.0 L 2450.0 115.0" stroke="#FF0000" fill="none" stroke-width="4px" />
<path d="M 2450.0 115.0 L 2440.0 115.0" stroke="#FF0000" fill="none" stroke-width="4px" />
<path d="M 2440.0 115.0 L 2440.0 105.0" stroke="#FF0000" fill="none" stroke-width="4px" />
<path d="M 2440.0 105.0 L 2430.0 105.0" stroke="#FF0000" fill="none" stroke-width="4px" />
<path d="M 2430.0 105.0 L 2420.0 105.0" stroke="#FF0000" fill="none" stroke-width="4px" />
<path d="M 2420.0 105.0 L 2420.0 95.0" stroke="#FF0000" fill="none" stroke-width="4px" />
<path d="M 2420.0 95.0 L 2410.0 95.0" stroke="#FF0000" fill="none" stroke-width="4px" />
<path d="M 2410.0 95.0 L 2410.0 85.0" stroke="#FF0000" fill="none" stroke-width="4px" />
<path d="M 2410.0 85.0 L 2400.0 85.0" stroke="#FF0000" fill="none" stroke-width="4px" />
<path d="M 2400.0 85.0 L 2410.0 75.0" stroke="#FF0000" fill="none" stroke-width="4px" />
<path d="M 2410.0 75.0 L 2420.0 75.0" stroke="#FF0000" fill="none" stroke-width="4px" />
<path d="M 2420.0 75.0 L 2430.0 75.0" stroke="#FF0000" fill="none" stroke-width="4px" />
<path d="M 2430.0 75.0 L 2440.0 75.0" stroke="#FF0000" fill="none" stroke-width="4px" />
<path d="M 2440.0 75.0 L 2450.0 75.0" stroke="#FF0000" fill="none" stroke-width="4px" />
<path d="M 2450.0 75.0 L 2460.0 75.0" stroke="#FF0000" fill="none" stroke-width="4px" />
<path d="M 2460.0 75.0 L 2470.0 75.0" stroke="#FF0000" fill="none" stroke-width="4px" />
<path d="M 2470.0 75.0 L 2480.0 75.0" stroke="#FF0000" fill="none" stroke-width="4px" />
<path d="M 2480.0 75.0 L 2480.0 85.0" stroke="#FF0000" fill="none" stroke-width="4px" />
<path d="M 2480.0 85.0 L 2470.0 85.0" stroke="#FF0000" fill="none" stroke-width="4px" />
<path d="M 2470.0 85.0 L 2460.0 85.0" stroke="#FF0000" fill="none" stroke-width="4px" />
<path d="M 2460.0 85.0 L 2450.0 85.0" stroke="#FF0000" fill="none" stroke-width="4px" />
<path d="M 2450.0 85.0 L 2440.0 85.0" stroke="#FF0000" fill="none" stroke-width="4px" />
<path d="M 2440.0 85.0 L 2430.0 85.0" stroke="#FF0000" fill="none" stroke-width="4px" />
<path d="M 2430.0 85.0 L 2420.0 85.0" stroke="#FF0000" fill="none" stroke-width="4px" />
<path d="M 2420.0 85.0 L 2430.0 95.0" stroke="#FF0000" fill="none" stroke-width="4px" />
<path d="M 2430.0 95.0 L 2440.0 95.0" stroke="#FF0000" fill="none" stroke-width="4px" />
<path d="M 2440.0 95.0 L 2450.0 95.0" stroke="#FF0000" fill="none" stroke-width="4px" />
<path d="M 2450.0 95.0 L 2460.0 95.0" stroke="#FF0000" fill="none" stroke-width="4px" />
<path d="M 2460.0 95.0 L 2470.0 95.0" stroke="#FF0000" fill="none" stroke-width="4px" />
<path d="M 2470.0 95.0 L 2480.0 95.0" stroke="#FF0000" fill="none" stroke-width="4px" />
<path d="M 2480.0 95.0 L 2470.0 105.0" stroke="#FF0000" fill="none" stroke-width="4px" />
<path d="M 2470.0 105.0 L 2460.0 105.0" stroke="#FF0000" fill="none" stroke-width="4px" />
<path d="M 2460.0 105.0 L 2450.0 105.0" stroke="#FF0000" fill="none" stroke-width="4px" />
<path d="M 2450.0 65.0 L 2440.0 65.0" stroke="#FF0000" fill="none" stroke-width="4px" />
<path d="M 2440.0 65.0 L 2430.0 65.0" stroke="#FF0000" fill="none" stroke-width="4px" />
<path d="M 2430.0 65.0 L 2420.0 65.0" stroke="#FF0000" fill="none" stroke-width="4px" />
<path d="M 2420.0 65.0 L 2430.0 55.0" stroke="#FF0000" fill="none" stroke-width="4px" />
<path d="M 2430.0 55.0 L 2440.0 55.0" stroke="#FF0000" fill="none" stroke-width="4px" />
<path d="M 2440.0 55.0 L 2450.0 55.0" stroke="#FF0000" fill="none" stroke-width="4px" />
<path d="M 2450.0 55.0 L 2460.0 55.0" stroke="#FF0000" fill="none" stroke-width="4px" />
<path d="M 2460.0 55.0 L 2470.0 55.0" stroke="#FF0000" fill="none" stroke-width="4px" />
<path d="M 2470.0 55.0 L 2480.0 55.0" stroke="#FF0000" fill="none" stroke-width="4px" />
<path d="M 2480.0 55.0 L 2480.0 65.0" stroke="#FF0000" fill="none" stroke-width="4px" />
<path d="M 2480.0 65.0 L 2470.0 65.0" stroke="#FF0000" fill="none" stroke-width="4px" />
<path d="M 2470.0 65.0 L 2460.0 65.0" stroke="#FF0000" fill="none" stroke-width="4px" />
<path d="M 2460.0 45.0 L 2450.0 45.0" stroke="#FF0000" fill="none" stroke-width="4px" />
<path d="M 2450.0 45.0 L 2440.0 45.0" stroke="#FF0000" fill="none" stroke-width="4px" />
<path d="M 2460.0 35.0 L 2470.0 45.0" stroke="#FF0000" fill="none" stroke-width="4px" />
<path d="M 2160.0 95.0 L 2150.0 95.0" stroke="#FF0000" fill="none" stroke-width="4px" />
<path d="M 2150.0 95.0 L 2140.0 95.0" stroke="#FF0000" fill="none" stroke-width="4px" />
<path d="M 2140.0 95.0 L 2130.0 95.0" stroke="#FF0000" fill="none" stroke-width="4px" />
<path d="M 2130.0 95.0 L 2120.0 95.0" stroke="#FF0000" fill="none" stroke-width="4px" />
<path d="M 2120.0 95.0 L 2120.0 105.0" stroke="#FF0000" fill="none" stroke-width="4px" />
<path d="M 2120.0 105.0 L 2130.0 105.0" stroke="#FF0000" fill="none" stroke-width="4px" />
<path d="M 2130.0 105.0 L 2140.0 105.0" stroke="#FF0000" fill="none" stroke-width="4px" />
<path d="M 2140.0 105.0 L 2150.0 105.0" stroke="#FF0000" fill="none" stroke-width="4px" />
<path d="M 2150.0 105.0 L 2140.0 115.0" stroke="#FF0000" fill="none" stroke-width="4px" />
<path d="M 2140.0 115.0 L 2130.0 115.0" stroke="#FF0000" fill="none" stroke-width="4px" />
<path d="M 2130.0 85.0 L 2120.0 85.0" stroke="#FF0000" fill="none" stroke-width="4px" />
<path d="M 2120.0 85.0 L 2130.0 75.0" stroke="#FF0000" fill="none" stroke-width="4px" />
<path d="M 2130.0 75.0 L 2140.0 75.0" stroke="#FF0000" fill="none" stroke-width="4px" />
<path d="M 2140.0 75.0 L 2140.0 85.0" stroke="#FF0000" fill="none" stroke-width="4px" />
<path d="M 2140.0 85.0 L 2150.0 85.0" stroke="#FF0000" fill="none" stroke-width="4px" />
</svg>