<svg width="2472.26666667" height="235.0" xmlns="http://www.w3.org/2000/svg" version="1.1">
<path d="M 0.0 235.0 L 1985.0 235.0 L 1985.0 0.0 L 0.0 0.0 L 0.0 235.0" stroke="#000000" fill="none" stroke-width="3px" />
<path d="M 2472.26666667 235.0 L 1885.0 235.0 L 1885.0 0.0 L 2472.26666667 0.0 L 2472.26666667 235.0" stroke="#000000" fill="none" stroke-width="3px" />
<path d="M 10.0 257.5 L 0.0 247.5 L 10.0 237.5" stroke="#969696" fill="none" stroke-width="1px" />
<path d="M 10.0 237.5 L 1975.0 237.5" stroke="#969696" fill="none" stroke-width="1px" />
<path d="M 1975.0 237.5 L 1985.0 227.5 L 1975.0 217.5" stroke="#969696" fill="none" stroke-width="1px" />
<path d="M 1975.0 217.5 L 10.0 217.5" stroke="#969696" fill="none" stroke-width="1px" />
<path d="M 10.0 217.5 L 0.0 207.5 L 10.0 197.5" stroke="#969696" fill="none" stroke-width="1px" />
<path d="M 10.0 197.5 L 1975.0 197.5" stroke="#969696" fill="none" stroke-width="1px" />
<path d="M 1975.0 197.5 L 1985.0 187.5 L 1975.0 177.5" stroke="#969696" fill="none" stroke-width="1px" />
<path d="M 1975.0 177.5 L 10.0 177.5" stroke="#969696" fill="none" stroke-width="1px" />
<path d="M 10.0 177.5 L 0.0 167.5 L 10.0 157.5" stroke="#969696" fill="none" stroke-width="1px" />
<path d="M 10.0 157.5 L 1975.0 157.5" stroke="#969696" fill="none" stroke-width="1px" />
<path d="M 1975.0 157.5 L 1985.0 147.5 L 1975.0 137.5" stroke="#969696" fill="none" stroke-width="1px" />
<path d="M 1975.0 137.5 L 10.0 137.5" stroke="#969696" fill="none" stroke-width="1px" />
<path d="M 10.0 137.5 L 0.0 127.5 L 10.0 117.5" stroke="#969696" fill="none" stroke-width="1px" />
<path d="M 10.0 117.5 L 1975.0 117.5" stroke="#969696" fill="none" stroke-width="1px" />
<path d="M 1975.0 117.5 L 1985.0 107.5 L 1975.0 97.5" stroke="#969696" fill="none" stroke-width="1px" />
<path d="M 1975.0 97.5 L 10.0 97.5" stroke="#969696" fill="none" stroke-width="1px" />
<path d="M 10.0 97.5 L 0.0 87.5 L 10.0 77.5" stroke="#969696" fill="none" stroke-width="1px" />
<path d="M 10.0 77.5 L 1975.0 77.5" stroke="#969696" fill="none" stroke-width="1px" />
<path d="M 1975.0 77.5 L 1985.0 67.5 L 1975.0 57.5" stroke="#969696" fill="none" stroke-width="1px" />
<path d="M 1975.0 57.5 L 10.0 57.5" stroke="#969696" fill="none" stroke-width="1px" />
<path d="M 10.0 57.5 L 0.0 47.5 L 10.0 37.5" stroke="#969696" fill="none" stroke-width="1px" />
<path d="M 10.0 37.5 L 1975.0 37.5" stroke="#969696" fill="none" stroke-width="1px" />
<path d="M 1975.0 37.5 L 1985.0 27.5 L 1975.0 17.5" stroke="#969696" fill="none" stroke-width="1px" />
<path d="M 1975.0 17.5 L 10.0 17.5" stroke="#969696" fill="none" stroke-width="1px" />
<path d="M 10.0 17.5 L 0.0 7.5 L 10.0 -2.5" stroke="#969696" fill="none" stroke-width="1px" />
<path d="M 10.0 -2.5 L 1975.0 -2.5" stroke="#969696" fill="none" stroke-width="1px" />
<path d="M 1975.0 -2.5 L 1985.0 -12.5 L 1975.0 -22.5" stroke="#969696" fill="none" stroke-width="1px" />
<path d="M 2462.26666667 257.5 L 2472.26666667 247.5 L 2462.26666667 237.5" stroke="#969696" fill="none" stroke-width="1px" />
<path d="M 2462.26666667 237.5 L 1895.0 237.5" stroke="#969696" fill="none" stroke-width="1px" />
<path d="M 1895.0 237.5 L 1885.0 227.5 L 1895.0 217.5" stroke="#969696" fill="none" stroke-width="1px" />
<path d="M 1895.0 217.5 L 2462.26666667 217.5" stroke="#969696" fill="none" stroke-width="1px" />
<path d="M 2462.26666667 217.5 L 2472.26666667 207.5 L 2462.26666667 197.5" stroke="#969696" fill="none" stroke-width="1px" />
<path d="M 2462.26666667 197.5 L 1895.0 197.5" stroke="#969696" fill="none" stroke-width="1px" />
<path d="M 1895.0 197.5 L 1885.0 187.5 L 1895.0 177.5" stroke="#969696" fill="none" stroke-width="1px" />
<path d="M 1895.0 177.5 L 2462.26666667 177.5" stroke="#969696" fill="none" stroke-width="1px" />
<path d="M 2462.26666667 177.5 L 2472.26666667 167.5 L 2462.26666667 157.5" stroke="#969696" fill="none" stroke-width="1px" />
<path d="M 2462.26666667 157.5 L 1895.0 157.5" stroke="#969696" fill="none" stroke-width="1px" />
<path d="M 1895.0 157.5 L 1885.0 147.5 L 1895.0 137.5" stroke="#969696" fill="none" stroke-width="1px" />
<path d="M 1895.0 137.5 L 2462.26666667 137.5" stroke="#969696" fill="none" stroke-width="1px" />
<path d="M 2462.26666667 137.5 L 2472.26666667 127.5 L 2462.26666667 117.5" stroke="#969696" fill="none" stroke-width="1px" />
<path d="M 2462.26666667 117.5 L 1895.0 117.5" stroke="#969696" fill="none" stroke-width="1px" />
<path d="M 1895.0 117.5 L 1885.0 107.5 L 1895.0 97.5" stroke="#969696" fill="none" stroke-width="1px" />
<path d="M 1895.0 97.5 L 2462.26666667 97.5" stroke="#969696" fill="none" stroke-width="1px" />
<path d="M 2462.26666667 97.5 L 2472.26666667 87.5 L 2462.26666667 77.5" stroke="#969696" fill="none" stroke-width="1px" />
<path d="M 2462.26666667 77.5 L 1895.0 77.5" stroke="#969696" fill="none" stroke-width="1px" />
<path d="M 1895.0 77.5 L 1885.0 67.5 L 1895.0 57.5" stroke="#969696" fill="none" stroke-width="1px" />
<path d="M 1895.0 57.5 L 2462.26666667 57.5" stroke="#969696" fill="none" stroke-width="1px" />
<path d="M 2462.26666667 57.5 L 2472.26666667 47.5 L 2462.26666667 37.5" stroke="#969696" fill="none" stroke-width="1px" />
<path d="M 2462.26666667 37.5 L 1895.0 37.5" stroke="#969696" fill="none" stroke-width="1px" />
<path d="M 1895.0 37.5 L 1885.0 27.5 L 1895.0 17.5" stroke="#969696" fill="none" stroke-width="1px" />
<path d="M 1895.0 17.5 L 2462.26666667 17.5" stroke="#969696" fill="none" stroke-width="1px" />
<path d="M 2462.26666667 17.5 L 2472.26666667 7.5 L 2462.26666667 -2.5" stroke="#969696" fill="none" stroke-width="1px" />
<path d="M 2462.26666667 -2.5 L 1895.0 -2.5" stroke="#969696" fill="none" stroke-width="1px" />
<path d="M 1895.0 -2.5 L 1885.0 -12.5 L 1895.0 -22.5" stroke="#969696" fill="none" stroke-width="1px" />
<path d="M 0.0 235.0 L 50.0 235.0" stroke="#0095FF" fill="none" stroke-width="2px" />
<path d="M 50.0 235.0 L 50.0 125.0" stroke="#0095FF" fill="none" stroke-width="2px" />
<path d="M 70.0 115.0 L 70.0 95.0" stroke="#0095FF" fill="none" stroke-width="2px" />
<path d="M 60.0 85.0 L 330.0 85.0" stroke="#0095FF" fill="none" stroke-width="2px" />
<path d="M 330.0 85.0 L 330.0 115.0" stroke="#0095FF" fill="none" stroke-width="2px" />
<path d="M 350.0 165.0 L 370.0 165.0" stroke="#0095FF" fill="none" stroke-width="2px" />
<path d="M 370.0 165.0 L 370.0 125.0" stroke="#0095FF" fill="none" stroke-width="2px" />
<path d="M 370.0 125.0 L 350.0 125.0" stroke="#0095FF" fill="none" stroke-width="2px" />
<path d="M 350.0 125.0 L 350.0 105.0" stroke="#0095FF" fill="none" stroke-width="2px" />
<path d="M 340.0 105.0 L 710.0 105.0" stroke="#0095FF" fill="none" stroke-width="2px" />
<path d="M 710.0 105.0 L 710.0 145.0" stroke="#0095FF" fill="none" stroke-width="2px" />
<path d="M 720.0 175.0 L 720.0 135.0" stroke="#0095FF" fill="none" stroke-width="2px" />
<path d="M 740.0 115.0 L 950.0 115.0" stroke="#0095FF" fill="none" stroke-width="2px" />
<path d="M 950.0 115.0 L 950.0 185.0" stroke="#0095FF" fill="none" stroke-width="2px" />
<path d="M 970.0 205.0 L 970.0 175.0" stroke="#0095FF" fill="none" stroke-width="2px" />
<path d="M 960.0 175.0 L 1060.0 175.0" stroke="#0095FF" fill="none" stroke-width="2px" />
<path d="M 1060.0 175.0 L 1060.0 145.0" stroke="#0095FF" fill="none" stroke-width="2px" />
<path d="M 1120.0 135.0 L 1100.0 135.0" stroke="#0095FF" fill="none" stroke-width="2px" />
<path d="M 1100.0 135.0 L 1100.0 155.0" stroke="#0095FF" fill="none" stroke-width="2px" />
<path d="M 1090.0 165.0 L 1090.0 115.0" stroke="#0095FF" fill="none" stroke-width="2px" />
<path d="M 1100.0 115.0 L 1080.0 115.0" stroke="#0095FF" fill="none" stroke-width="2px" />
<path d="M 1080.0 115.0 L 1080.0 95.0" stroke="#0095FF" fill="none" stroke-width="2px" />
<path d="M 1070.0 95.0 L 1350.0 95.0" stroke="#0095FF" fill="none" stroke-width="2px" />
<path d="M 1350.0 95.0 L 1350.0 115.0" stroke="#0095FF" fill="none" stroke-width="2px" />
<path d="M 1380.0 145.0 L 1380.0 105.0" stroke="#0095FF" fill="none" stroke-width="2px" />
<path d="M 1400.0 105.0 L 1380.0 105.0" stroke="#0095FF" fill="none" stroke-width="2px" />
<path d="M 1380.0 105.0 L 1380.0 85.0" stroke="#0095FF" fill="none" stroke-width="2px" />
<path d="M 1370.0 85.0 L 1760.0 85.0" stroke="#0095FF" fill="none" stroke-width="2px" />
<path d="M 1810.0 145.0 L 1840.0 145.0" stroke="#0095FF" fill="none" stroke-width="2px" />
<path d="M 1840.0 145.0 L 1840.0 115.0" stroke="#0095FF" fill="none" stroke-width="2px" />
<path d="M 1840.0 115.0 L 1820.0 115.0" stroke="#0095FF" fill="none" stroke-width="2px" />
<path d="M 1820.0 115.0 L 1820.0 95.0" stroke="#0095FF" fill="none" stroke-width="2px" />
<path d="M 1820.0 95.0 L 1790.0 95.0" stroke="#0095FF" fill="none" stroke-width="2px" />
<path d="M 1790.0 95.0 L 1790.0 75.0" stroke="#0095FF" fill="none" stroke-width="2px" />
<path d="M 50.0 125.0 L 60.0 125.0" stroke="#FF0000" fill="none" stroke-width="4px" />
<path d="M 60.0 125.0 L 60.0 115.0" stroke="#FF0000" fill="none" stroke-width="4px" />
<path d="M 60.0 115.0 L 50.0 115.0" stroke="#FF0000" fill="none" stroke-width="4px" />
<path d="M 50.0 115.0 L 40.0 115.0" stroke="#FF0000" fill="none" stroke-width="4px" />
<path d="M 40.0 115.0 L 40.0 105.0" stroke="#FF0000" fill="none" stroke-width="4px" />
<path d="M 40.0 105.0 L 50.0 105.0" stroke="#FF0000" fill="none" stroke-width="4px" />
<path d="M 50.0 105.0 L 60.0 105.0" stroke="#FF0000" fill="none" stroke-width="4px" />
<path d="M 60.0 105.0 L 70.0 105.0" stroke="#FF0000" fill="none" stroke-width="4px" />
<path d="M 70.0 105.0 L 70.0 115.0" stroke="#FF0000" fill="none" stroke-width="4px" />
<path d="M 70.0 95.0 L 60.0 95.0" stroke="#FF0000" fill="none" stroke-width="4px" />
<path d="M 60.0 95.0 L 50.0 95.0" stroke="#FF0000" fill="none" stroke-width="4px" />
<path d="M 50.0 95.0 L 40.0 95.0" stroke="#FF0000" fill="none" stroke-width="4px" />
<path d="M 40.0 95.0 L 50.0 85.0" stroke="#FF0000" fill="none" stroke-width="4px" />
<path d="M 50.0 85.0 L 60.0 85.0" stroke="#FF0000" fill="none" stroke-width="4px" />
<path d="M 330.0 115.0 L 340.0 115.0" stroke="#FF0000" fill="none" stroke-width="4px" />
<path d="M 340.0 115.0 L 350.0 115.0" stroke="#FF0000" fill="none" stroke-width="4px" />
<path d="M 350.0 115.0 L 360.0 115.0" stroke="#FF0000" fill="none" stroke-width="4px" />
<path d="M 360.0 115.0 L 360.0 125.0" stroke="#FF0000" fill="none" stroke-width="4px" />
<path d="M 360.0 125.0 L 350.0 125.0" stroke="#FF0000" fill="none" stroke-width="4px" />
<path d="M 350.0 125.0 L 340.0 125.0" stroke="#FF0000" fill="none" stroke-width="4px" />
<path d="M 340.0 125.0 L 330.0 125.0" stroke="#FF0000" fill="none" stroke-width="4px" />
<path d="M 330.0 125.0 L 330.0 135.0" stroke="#FF0000" fill="none" stroke-width="4px" />
<path d="M 330.0 135.0 L 340.0 135.0" stroke="#FF0000" fill="none" stroke-width="4px" />
<path d="M 340.0 135.0 L 350.0 135.0" stroke="#FF0000" fill="none" stroke-width="4px" />
<path d="M 350.0 135.0 L 360.0 135.0" stroke="#FF0000" fill="none" stroke-width="4px" />
<path d="M 360.0 135.0 L 370.0 135.0" stroke="#FF0000" fill="none" stroke-width="4px" />
<path d="M 370.0 135.0 L 380.0 135.0" stroke="#FF0000" fill="none" stroke-width="4px" />
<path d="M 380.0 135.0 L 370.0 145.0" stroke="#FF0000" fill="none" stroke-width="4px" />
<path d="M 370.0 145.0 L 360.0 145.0" stroke="#FF0000" fill="none" stroke-width="4px" />
<path d="M 360.0 145.0 L 350.0 145.0" stroke="#FF0000" fill="none" stroke-width="4px" />
<path d="M 350.0 145.0 L 340.0 145.0" stroke="#FF0000" fill="none" stroke-width="4px" />
<path d="M 340.0 145.0 L 330.0 145.0" stroke="#FF0000" fill="none" stroke-width="4px" />
<path d="M 330.0 145.0 L 340.0 155.0" stroke="#FF0000" fill="none" stroke-width="4px" />
<path d="M 340.0 155.0 L 350.0 155.0" stroke="#FF0000" fill="none" stroke-width="4px" />
<path d="M 350.0 155.0 L 360.0 155.0" stroke="#FF0000" fill="none" stroke-width="4px" />
<path d="M 360.0 155.0 L 350.0 165.0" stroke="#FF0000" fill="none" stroke-width="4px" />
<path d="M 350.0 105.0 L 340.0 105.0" stroke="#FF0000" fill="none" stroke-width="4px" />
<path d="M 710.0 145.0 L 720.0 145.0" stroke="#FF0000" fill="none" stroke-width="4px" />
<path d="M 720.0 145.0 L 730.0 145.0" stroke="#FF0000" fill="none" stroke-width="4px" />
<path d="M 730.0 145.0 L 740.0 145.0" stroke="#FF0000" fill="none" stroke-width="4px" />
<path d="M 740.0 145.0 L 750.0 145.0" stroke="#FF0000" fill="none" stroke-width="4px" />
<path d="M 750.0 145.0 L 760.0 145.0" stroke="#FF0000" fill="none" stroke-width="4px" />
<path d="M 760.0 145.0 L 760.0 155.0" stroke="#FF0000" fill="none" stroke-width="4px" />
<path d="M 760.0 155.0 L 750.0 155.0" stroke="#FF0000" fill="none" stroke-width="4px" />
<path d="M 750.0 155.0 L 740.0 155.0" stroke="#FF0000" fill="none" stroke-width="4px" />
<path d="M 740.0 155.0 L 730.0 155.0" stroke="#FF0000" fill="none" stroke-width="4px" />
<path d="M 730.0 155.0 L 720.0 155.0" stroke="#FF0000" fill="none" stroke-width="4px" />
<path d="M 720.0 155.0 L 710.0 155.0" stroke="#FF0000" fill="none" stroke-width="4px" />
<path d="M 710.0 155.0 L 710.0 165.0" stroke="#FF0000" fill="none" stroke-width="4px" />
<path d="M 710.0 165.0 L 720.0 165.0" stroke="#FF0000" fill="none" stroke-width="4px" />
<path d="M 720.0 165.0 L 730.0 165.0" stroke="#FF0000" fill="none" stroke-width="4px" />
<path d="M 730.0 165.0 L 740.0 165.0" stroke="#FF0000" fill="none" stroke-width="4px" />
<path d="M 740.0 165.0 L 750.0 165.0" stroke="#FF0000" fill="none" stroke-width="4px" />
<path d="M 750.0 165.0 L 760.0 165.0" stroke="#FF0000" fill="none" stroke-width="4px" />
<path d="M 760.0 165.0 L 750.0 175.0" stroke="#FF0000" fill="none" stroke-width="4px" />
<path d="M 750.0 175.0 L 740.0 175.0" stroke="#FF0000" fill="none" stroke-width="4px" />
<path d="M 740.0 175.0 L 730.0 175.0" stroke="#FF0000" fill="none" stroke-width="4px" />
<path d="M 730.0 175.0 L 720.0 175.0" stroke="#FF0000" fill="none" stroke-width="4px" />
<path d="M 720.0 135.0 L 730.0 135.0" stroke="#FF0000" fill="none" stroke-width="4px" />
<path d="M 730.0 135.0 L 740.0 135.0" stroke="#FF0000" fill="none" stroke-width="4px" />
<path d="M 740.0 135.0 L 750.0 135.0" stroke="#FF0000" fill="none" stroke-width="4px" />
<path d="M 750.0 135.0 L 760.0 135.0" stroke="#FF0000" fill="none" stroke-width="4px" />
<path d="M 760.0 135.0 L 750.0 125.0" stroke="#FF0000" fill="none" stroke-width="4px" />
<path d="M 750.0 125.0 L 740.0 125.0" stroke="#FF0000" fill="none" stroke-width="4px" />
<path d="M 740.0 125.0 L 730.0 125.0" stroke="#FF0000" fill="none" stroke-width="4px" />
<path d="M 730.0 125.0 L 740.0 115.0" stroke="#FF0000" fill="none" stroke-width="4px" />
<path d="M 950.0 185.0 L 960.0 185.0" stroke="#FF0000" fill="none" stroke-width="4px" />
<path d="M 960.0 185.0 L 970.0 185.0" stroke="#FF0000" fill="none" stroke-width="4px" />
<path d="M 970.0 185.0 L 980.0 185.0" stroke="#FF0000" fill="none" stroke-width="4px" />
<path d="M 980.0 185.0 L 980.0 195.0" stroke="#FF0000" fill="none" stroke-width="4px" />
<path d="M 980.0 195.0 L 970.0 195.0" stroke="#FF0000" fill="none" stroke-width="4px" />
<path d="M 970.0 195.0 L 960.0 195.0" stroke="#FF0000" fill="none" stroke-width="4px" />
<path d="M 960.0 195.0 L 950.0 195.0" stroke="#FF0000" fill="none" stroke-width="4px" />
<path d="M 950.0 195.0 L 960.0 205.0" stroke="#FF0000" fill="none" stroke-width="4px" />
<path d="M 960.0 205.0 L 970.0 205.0" stroke="#FF0000" fill="none" stroke-width="4px" />
<path d="M 970.0 175.0 L 960.0 175.0" stroke="#FF0000" fill="none" stroke-width="4px" />
<path d="M 1060.0 145.0 L 1070.0 145.0" stroke="#FF0000" fill="none" stroke-width="4px" />
<path d="M 1070.0 145.0 L 1080.0 145.0" stroke="#FF0000" fill="none" stroke-width="4px" />
<path d="M 1080.0 145.0 L 1090.0 145.0" stroke="#FF0000" fill="none" stroke-width="4px" />
<path d="M 1090.0 145.0 L 1100.0 145.0" stroke="#FF0000" fill="none" stroke-width="4px" />
<path d="M 1100.0 145.0 L 1110.0 145.0" stroke="#FF0000" fill="none" stroke-width="4px" />
<path d="M 1110.0 145.0 L 1110.0 135.0" stroke="#FF0000" fill="none" stroke-width="4px" />
<path d="M 1110.0 135.0 L 1100.0 135.0" stroke="#FF0000" fill="none" stroke-width="4px" />
<path d="M 1100.0 135.0 L 1090.0 135.0" stroke="#FF0000" fill="none" stroke-width="4px" />
<path d="M 1090.0 135.0 L 1080.0 135.0" stroke="#FF0000" fill="none" stroke-width="4px" />
<path d="M 1080.0 135.0 L 1070.0 135.0" stroke="#FF0000" fill="none" stroke-width="4px" />
<path d="M 1070.0 135.0 L 1060.0 135.0" stroke="#FF0000" fill="none" stroke-width="4px" />
<path d="M 1060.0 135.0 L 1060.0 125.0" stroke="#FF0000" fill="none" stroke-width="4px" />
<path d="M 1060.0 125.0 L 1070.0 125.0" stroke="#FF0000" fill="none" stroke-width="4px" />
<path d="M 1070.0 125.0 L 1080.0 125.0" stroke="#FF0000" fill="none" stroke-width="4px" />
<path d="M 1080.0 125.0 L 1090.0 125.0" stroke="#FF0000" fill="none" stroke-width="4px" />
<path d="M 1090.0 125.0 L 1100.0 125.0" stroke="#FF0000" fill="none" stroke-width="4px" />
<path d="M 1100.0 125.0 L 1110.0 125.0" stroke="#FF0000" fill="none" stroke-width="4px" />
<path d="M 1110.0 125.0 L 1120.0 135.0" stroke="#FF0000" fill="none" stroke-width="4px" />
<path d="M 1100.0 155.0 L 1090.0 155.0" stroke="#FF0000" fill="none" stroke-width="4px" />
<path d="M 1090.0 155.0 L 1080.0 155.0" stroke="#FF0000" fill="none" stroke-width="4px" />
<path d="M 1080.0 155.0 L 1070.0 155.0" stroke="#FF0000" fill="none" stroke-width="4px" />
<path d="M 1070.0 155.0 L 1080.0 165.0" stroke="#FF0000" fill="none" stroke-width="4px" />
<path d="M 1080.0 165.0 L 1090.0 165.0" stroke="#FF0000" fill="none" stroke-width="4px" />
<path d="M 1090.0 115.0 L 1080.0 115.0" stroke="#FF0000" fill="none" stroke-width="4px" />
<path d="M 1080.0 115.0 L 1070.0 115.0" stroke="#FF0000" fill="none" stroke-width="4px" />
<path d="M 1070.0 115.0 L 1060.0 115.0" stroke="#FF0000" fill="none" stroke-width="4px" />
<path d="M 1060.0 115.0 L 1070.0 105.0" stroke="#FF0000" fill="none" stroke-width="4px" />
<path d="M 1070.0 105.0 L 1080.0 105.0" stroke="#FF0000" fill="none" stroke-width="4px" />
<path d="M 1080.0 105.0 L 1090.0 105.0" stroke="#FF0000" fill="none" stroke-width="4px" />
<path d="M 1090.0 105.0 L 1100.0 115.0" stroke="#FF0000" fill="none" stroke-width="4px" />
<path d="M 1080.0 95.0 L 1070.0 95.0" stroke="#FF0000" fill="none" stroke-width="4px" />
<path d="M 1350.0 115.0 L 1360.0 115.0" stroke="#FF0000" fill="none" stroke-width="4px" />
<path d="M 1360.0 115.0 L 1370.0 115.0" stroke="#FF0000" fill="none" stroke-width="4px" />
<path d="M 1370.0 115.0 L 1380.0 115.0" stroke="#FF0000" fill="none" stroke-width="4px" />
<path d="M 1380.0 115.0 L 1390.0 115.0" stroke="#FF0000" fill="none" stroke-width="4px" />
<path d="M 1390.0 115.0 L 1400.0 115.0" stroke="#FF0000" fill="none" stroke-width="4px" />
<path d="M 1400.0 115.0 L 1400.0 125.0" stroke="#FF0000" fill="none" stroke-width="4px" />
<path d="M 1400.0 125.0 L 1390.0 125.0" stroke="#FF0000" fill="none" stroke-width="4px" />
<path d="M 1390.0 125.0 L 1380.0 125.0" stroke="#FF0000" fill="none" stroke-width="4px" />
<path d="M 1380.0 125.0 L 1370.0 125.0" stroke="#FF0000" fill="none" stroke-width="4px" />
<path d="M 1370.0 125.0 L 1360.0 125.0" stroke="#FF0000" fill="none" stroke-width="4px" />
<path d="M 1360.0 125.0 L 1370.0 135.0" stroke="#FF0000" fill="none" stroke-width="4px" />
<path d="M 1370.0 135.0 L 1380.0 135.0" stroke="#FF0000" fill="none" stroke-width="4px" />
<path d="M 1380.0 135.0 L 1390.0 135.0" stroke="#FF0000" fill="none" stroke-width="4px" />
<path d="M 1390.0 135.0 L 1400.0 135.0" stroke="#FF0000" fill="none" stroke-width="4px" />
<path d="M 1400.0 135.0 L 1390.0 145.0" stroke="#FF0000" fill="none" stroke-width="4px" />
<path d="M 1390.0 145.0 L 1380.0 145.0" stroke="#FF0000" fill="none" stroke-width="4px" />
<path d="M 1380.0 105.0 L 1370.0 105.0" stroke="#FF0000" fill="none" stroke-width="4px" />
<path d="M 1370.0 105.0 L 1360.0 105.0" stroke="#FF0000" fill="none" stroke-width="4px" />
<path d="M 1360.0 105.0 L 1360.0 95.0" stroke="#FF0000" fill="none" stroke-width="4px" />
<path d="M 1360.0 95.0 L 1370.0 95.0" stroke="#FF0000" fill="none" stroke-width="4px" />
<path d="M 1370.0 95.0 L 1380.0 95.0" stroke="#FF0000" fill="none" stroke-width="4px" />
<path d="M 1380.0 95.0 L 1390.0 95.0" stroke="#FF0000" fill="none" stroke-width="4px" />
<path d="M 1390.0 95.0 L 1390.0 105.0" stroke="#FF0000" fill="none" stroke-width="4px" />
<path d="M 1390.0 105.0 L 1400.0 105.0" stroke="#FF0000" fill="none" stroke-width="4px" />
<path d="M 1380.0 85.0 L 1370.0 85.0" stroke="#FF0000" fill="none" stroke-width="4px" />
<path d="M 1760.0 85.0 L 1770.0 85.0" stroke="#FF0000" fill="none" stroke-width="4px" />
<path d="M 1770.0 85.0 L 1780.0 85.0" stroke="#FF0000" fill="none" stroke-width="4px" />
<path d="M 1780.0 85.0 L 1790.0 85.0" stroke="#FF0000" fill="none" stroke-width="4px" />
<path d="M 1790.0 85.0 L 1800.0 85.0" stroke="#FF0000" fill="none" stroke-width="4px" />
<path d="M 1800.0 85.0 L 1810.0 85.0" stroke="#FF0000" fill="none" stroke-width="4px" />
<path d="M 1810.0 85.0 L 1810.0 95.0" stroke="#FF0000" fill="none" stroke-width="4px" />
<path d="M 1810.0 95.0 L 1800.0 95.0" stroke="#FF0000" fill="none" stroke-width="4px" />
<path d="M 1800.0 95.0 L 1790.0 95.0" stroke="#FF0000" fill="none" stroke-width="4px" />
<path d="M 1790.0 95.0 L 1780.0 95.0" stroke="#FF0000" fill="none" stroke-width="4px" />
<path d="M 1780.0 95.0 L 1770.0 95.0" stroke="#FF0000" fill="none" stroke-width="4px" />
<path d="M 1770.0 95.0 L 1760.0 95.0" stroke="#FF0000" fill="none" stroke-width="4px" />
<path d="M 1760.0 95.0 L 1760.0 105.0" stroke="#FF0000" fill="none" stroke-width="4px" />
<path d="M 1760.0 105.0 L 1770.0 105.0" stroke="#FF0000" fill="none" stroke-width="4px" />
<path d="M 1770.0 105.0 L 1780.0 105.0" stroke="#FF0000" fill="none" stroke-width="4px" />
<path d="M 1780.0 105.0 L 1790.0 105.0" stroke="#FF0000" fill="none" stroke-width="4px" />
<path d="M 1790.0 105.0 L 1800.0 105.0" stroke="#FF0000" fill="none" stroke-width="4px" />
<path d="M 1800.0 105.0 L 1810.0 105.0" stroke="#FF0000" fill="none" stroke-width="4px" />
<path d="M 1810.0 105.0 L 1820.0 105.0" stroke="#FF0000" fill="none" stroke-width="4px" />
<path d="M 1820.0 105.0 L 1830.0 105.0" stroke="#FF0000" fill="none" stroke-width="4px" />
<path d="M 1830.0 105.0 L 1830.0 115.0" stroke="#FF0000" fill="none" stroke-width="4px" />
<path d="M 1830.0 115.0 L 1820.0 115.0" stroke="#FF0000" fill="none" stroke-width="4px" />
<path d="M 1820.0 115.0 L 1810.0 115.0" stroke="#FF0000" fill="none" stroke-width="4px" />
<path d="M 1810.0 115.0 L 1800.0 115.0" stroke="#FF0000" fill="none" stroke-width="4px" />
<path d="M 1800.0 115.0 L 1790.0 115.0" stroke="#FF0000" fill="none" stroke-width="4px" />
<path d="M 1790.0 115.0 L 1780.0 115.0" stroke="#FF0000" fill="none" stroke-width="4px" />
<path d="M 1780.0 115.0 L 1770.0 115.0" stroke="#FF0000" fill="none" stroke-width="4px" />
<path d="M 1770.0 115.0 L 1760.0 115.0" stroke="#FF0000" fill="none" stroke-width="4px" />
<path d="M 1760.0 115.0 L 1760.0 125.0" stroke="#FF0000" fill="none" stroke-width="4px" />
<path d="M 1760.0 125.0 L 1770.0 125.0" stroke="#FF0000" fill="none" stroke-width="4px" />
<path d="M 1770.0 125.0 L 1780.0 125.0" stroke="#FF0000" fill="none" stroke-width="4px" />
<path d="M 1780.0 125.0 L 1790.0 125.0" stroke="#FF0000" fill="none" stroke-width="4px" />
<path d="M 1790.0 125.0 L 1800.0 125.0" stroke="#FF0000" fill="none" stroke-width="4px" />
<path d="M 1800.0 125.0 L 1810.0 125.0" stroke="#FF0000" fill="none" stroke-width="4px" />
<path d="M 1810.0 125.0 L 1820.0 125.0" stroke="#FF0000" fill="none" stroke-width="4px" />
<path d="M 1820.0 125.0 L 1830.0 125.0" stroke="#FF0000" fill="none" stroke-width="4px" />
<path d="M 1830.0 125.0 L 1820.0 135.0" stroke="#FF0000" fill="none" stroke-width="4px" />
<path d="M 1820.0 135.0 L 1810.0 135.0" stroke="#FF0000" fill="none" stroke-width="4px" />
<path d="M 1810.0 135.0 L 1800.0 135.0" stroke="#FF0000" fill="none" stroke-width="4px" />
<path d="M 1800.0 135.0 L 1790.0 135.0" stroke="#FF0000" fill="none" stroke-width="4px" />
<path d="M 1790.0 135.0 L 1780.0 135.0" stroke="#FF0000" fill="none" stroke-width="4px" />
<path d="M 1780.0 135.0 L 1770.0 135.0" stroke="#FF0000" fill="none" stroke-width="4px" />
<path d="M 1770.0 135.0 L 1780.0 145.0" stroke="#FF0000" fill="none" stroke-width="4px" />
<path d="M 1780.0 145.0 L 1790.0 145.0" stroke="#FF0000" fill="none" stroke-width="4px" />
<path d="M 1790.0 145.0 L 1800.0 145.0" stroke="#FF0000" fill="none" stroke-width="4px" />
<path d="M 1800.0 145.0 L 1810.0 145.0" stroke="#FF0000" fill="none" stroke-width="4px" />
<path d="M 1790.0 75.0 L 1780.0 75.0" stroke="#FF0000" fill="none" stroke-width="4px" />
<path d="M 1780.0 75.0 L 1770.0 75.0" stroke="#FF0000" fill="none" stroke-width="4px" />
</svg>