<svg width="1383.75833333" height="235.0" xmlns="http://www.w3.org/2000/svg" version="1.1">
<path d="M 0.0 235.0 L 1383.75833333 235.0 L 1383.75833333 0.0 L 0.0 0.0 L 0.0 235.0" stroke="#000000" fill="none" stroke-width="3px" />
<path d="M 10.0 257.5 L 0.0 247.5 L 10.0 237.5" stroke="#969696" fill="none" stroke-width="1px" />
<path d="M 10.0 237.5 L 1373.75833333 237.5" stroke="#969696" fill="none" stroke-width="1px" />
<path d="M 1373.75833333 237.5 L 1383.75833333 227.5 L 1373.75833333 217.5" stroke="#969696" fill="none" stroke-width="1px" />
<path d="M 1373.75833333 217.5 L 10.0 217.5" stroke="#969696" fill="none" stroke-width="1px" />
<path d="M 10.0 217.5 L 0.0 207.5 L 10.0 197.5" stroke="#969696" fill="none" stroke-width="1px" />
<path d="M 10.0 197.5 L 1373.75833333 197.5" stroke="#969696" fill="none" stroke-width="1px" />
<path d="M 1373.75833333 197.5 L 1383.75833333 187.5 L 1373.75833333 177.5" stroke="#969696" fill="none" stroke-width="1px" />
<path d="M 1373.75833333 177.5 L 10.0 177.5" stroke="#969696" fill="none" stroke-width="1px" />
<path d="M 10.0 177.5 L 0.0 167.5 L 10.0 157.5" stroke="#969696" fill="none" stroke-width="1px" />
<path d="M 10.0 157.5 L 1373.75833333 157.5" stroke="#969696" fill="none" stroke-width="1px" />
<path d="M 1373.75833333 157.5 L 1383.75833333 147.5 L 1373.75833333 137.5" stroke="#969696" fill="none" stroke-width="1px" />
<path d="M 1373.75833333 137.5 L 10.0 137.5" stroke="#969696" fill="none" stroke-width="1px" />
<path d="M 10.0 137.5 L 0.0 127.5 L 10.0 117.5" stroke="#969696" fill="none" stroke-width="1px" />
<path d="M 10.0 117.5 L 1373.75833333 117.5" stroke="#969696" fill="none" stroke-width="1px" />
<path d="M 1373.75833333 117.5 L 1383.75833333 107.5 L 1373.75833333 97.5" stroke="#969696" fill="none" stroke-width="1px" />
<path d="M 1373.75833333 97.5 L 10.0 97.5" stroke="#969696" fill="none" stroke-width="1px" />
<path d="M 10.0 97.5 L 0.0 87.5 L 10.0 77.5" stroke="#969696" fill="none" stroke-width="1px" />
<path d="M 10.0 77.5 L 1373.75833333 77.5" stroke="#969696" fill="none" stroke-width="1px" />
<path d="M 1373.75833333 77.5 L 1383.75833333 67.5 L 1373.75833333 57.5" stroke="#969696" fill="none" stroke-width="1px" />
<path d="M 1373.75833333 57.5 L 10.0 57.5" stroke="#969696" fill="none" stroke-width="1px" />
<path d="M 10.0 57.5 L 0.0 47.5 L 10.0 37.5" stroke="#969696" fill="none" stroke-width="1px" />
<path d="M 10.0 37.5 L 1373.75833333 37.5" stroke="#969696" fill="none" stroke-width="1px" />
<path d="M 1373.75833333 37.5 L 1383.75833333 27.5 L 1373.75833333 17.5" stroke="#969696" fill="none" stroke-width="1px" />
<path d="M 1373.75833333 17.5 L 10.0 17.5" stroke="#969696" fill="none" stroke-width="1px" />
<path d="M 10.0 17.5 L 0.0 7.5 L 10.0 -2.5" stroke="#969696" fill="none" stroke-width="1px" />
<path d="M 10.0 -2.5 L 1373.75833333 -2.5" stroke="#969696" fill="none" stroke-width="1px" />
<path d="M 1373.75833333 -2.5 L 1383.75833333 -12.5 L 1373.75833333 -22.5" stroke="#969696" fill="none" stroke-width="1px" />
<path d="M 0.0 235.0 L 270.0 145.0" stroke="#0095FF" fill="none" stroke-width="2px" />
<path d="M 360.0 135.0 L 350.0 115.0" stroke="#0095FF" fill="none" stroke-width="2px" />
<path d="M 320.0 85.0 L 320.0 155.0" stroke="#0095FF" fill="none" stroke-width="2px" />
<path d="M 340.0 155.0 L 660.0 65.0" stroke="#0095FF" fill="none" stroke-width="2px" />
<path d="M 690.0 115.0 L 690.0 55.0" stroke="#0095FF" fill="none" stroke-width="2px" />
<path d="M 700.0 55.0 L 700.0 15.0" stroke="#0095FF" fill="none" stroke-width="2px" />
<path d="M 720.0 -5.0 L 680.0 15.0" stroke="#0095FF" fill="none" stroke-width="2px" />
<path d="M 660.0 15.0 L 750.0 35.0" stroke="#0095FF" fill="none" stroke-width="2px" />
<path d="M 750.0 35.0 L 770.0 165.0" stroke="#0095FF" fill="none" stroke-width="2px" />
<path d="M 790.0 175.0 L 780.0 195.0" stroke="#0095FF" fill="none" stroke-width="2px" />
<path d="M 770.0 195.0 L 1120.0 145.0" stroke="#0095FF" fill="none" stroke-width="2px" />
<path d="M 1260.0 135.0 L 1260.0 115.0" stroke="#0095FF" fill="none" stroke-width="2px" />
<path d="M 1240.0 85.0 L 1210.0 75.0" stroke="#0095FF" fill="none" stroke-width="2px" />
<path d="M 1140.0 115.0 L 1140.0 155.0" stroke="#0095FF" fill="none" stroke-width="2px" />
<path d="M 1150.0 155.0 L 1150.0 175.0" stroke="#0095FF" fill="none" stroke-width="2px" />
<path d="M 1160.0 175.0 L 1160.0 195.0" stroke="#0095FF" fill="none" stroke-width="2px" />
<path d="M 1190.0 195.0 L 1220.0 175.0" stroke="#0095FF" fill="none" stroke-width="2px" />
<path d="M 1220.0 175.0 L 1240.0 155.0" stroke="#0095FF" fill="none" stroke-width="2px" />
<path d="M 1240.0 155.0 L 1210.0 65.0" stroke="#0095FF" fill="none" stroke-width="2px" />
<path d="M 1130.0 55.0 L 1130.0 35.0" stroke="#0095FF" fill="none" stroke-width="2px" />
<path d="M 270.0 145.0 L 280.0 145.0" stroke="#FF0000" fill="none" stroke-width="4px" />
<path d="M 280.0 145.0 L 290.0 145.0" stroke="#FF0000" fill="none" stroke-width="4px" />
<path d="M 290.0 145.0 L 300.0 145.0" stroke="#FF0000" fill="none" stroke-width="4px" />
<path d="M 300.0 145.0 L 310.0 145.0" stroke="#FF0000" fill="none" stroke-width="4px" />
<path d="M 310.0 145.0 L 320.0 145.0" stroke="#FF0000" fill="none" stroke-width="4px" />
<path d="M 320.0 145.0 L 330.0 145.0" stroke="#FF0000" fill="none" stroke-width="4px" />
<path d="M 330.0 145.0 L 340.0 145.0" stroke="#FF0000" fill="none" stroke-width="4px" />
<path d="M 340.0 145.0 L 350.0 145.0" stroke="#FF0000" fill="none" stroke-width="4px" />
<path d="M 350.0 145.0 L 350.0 135.0" stroke="#FF0000" fill="none" stroke-width="4px" />
<path d="M 350.0 135.0 L 340.0 135.0" stroke="#FF0000" fill="none" stroke-width="4px" />
<path d="M 340.0 135.0 L 330.0 135.0" stroke="#FF0000" fill="none" stroke-width="4px" />
<path d="M 330.0 135.0 L 320.0 135.0" stroke="#FF0000" fill="none" stroke-width="4px" />
<path d="M 320.0 135.0 L 310.0 135.0" stroke="#FF0000" fill="none" stroke-width="4px" />
<path d="M 310.0 135.0 L 300.0 135.0" stroke="#FF0000" fill="none" stroke-width="4px" />
<path d="M 300.0 135.0 L 290.0 135.0" stroke="#FF0000" fill="none" stroke-width="4px" />
<path d="M 290.0 135.0 L 280.0 135.0" stroke="#FF0000" fill="none" stroke-width="4px" />
<path d="M 280.0 135.0 L 270.0 135.0" stroke="#FF0000" fill="none" stroke-width="4px" />
<path d="M 270.0 135.0 L 270.0 125.0" stroke="#FF0000" fill="none" stroke-width="4px" />
<path d="M 270.0 125.0 L 280.0 125.0" stroke="#FF0000" fill="none" stroke-width="4px" />
<path d="M 280.0 125.0 L 290.0 125.0" stroke="#FF0000" fill="none" stroke-width="4px" />
<path d="M 290.0 125.0 L 300.0 125.0" stroke="#FF0000" fill="none" stroke-width="4px" />
<path d="M 300.0 125.0 L 310.0 125.0" stroke="#FF0000" fill="none" stroke-width="4px" />
<path d="M 310.0 125.0 L 320.0 125.0" stroke="#FF0000" fill="none" stroke-width="4px" />
<path d="M 320.0 125.0 L 330.0 125.0" stroke="#FF0000" fill="none" stroke-width="4px" />
<path d="M 330.0 125.0 L 340.0 125.0" stroke="#FF0000" fill="none" stroke-width="4px" />
<path d="M 340.0 125.0 L 350.0 125.0" stroke="#FF0000" fill="none" stroke-width="4px" />
<path d="M 350.0 125.0 L 360.0 125.0" stroke="#FF0000" fill="none" stroke-width="4px" />
<path d="M 360.0 125.0 L 360.0 135.0" stroke="#FF0000" fill="none" stroke-width="4px" />
<path d="M 350.0 115.0 L 340.0 115.0" stroke="#FF0000" fill="none" stroke-width="4px" />
<path d="M 340.0 115.0 L 330.0 115.0" stroke="#FF0000" fill="none" stroke-width="4px" />
<path d="M 330.0 115.0 L 320.0 115.0" stroke="#FF0000" fill="none" stroke-width="4px" />
<path d="M 320.0 115.0 L 310.0 115.0" stroke="#FF0000" fill="none" stroke-width="4px" />
<path d="M 310.0 115.0 L 300.0 115.0" stroke="#FF0000" fill="none" stroke-width="4px" />
<path d="M 300.0 115.0 L 290.0 115.0" stroke="#FF0000" fill="none" stroke-width="4px" />
<path d="M 290.0 115.0 L 280.0 115.0" stroke="#FF0000" fill="none" stroke-width="4px" />
<path d="M 280.0 115.0 L 270.0 115.0" stroke="#FF0000" fill="none" stroke-width="4px" />
<path d="M 270.0 115.0 L 270.0 105.0" stroke="#FF0000" fill="none" stroke-width="4px" />
<path d="M 270.0 105.0 L 280.0 105.0" stroke="#FF0000" fill="none" stroke-width="4px" />
<path d="M 280.0 105.0 L 290.0 105.0" stroke="#FF0000" fill="none" stroke-width="4px" />
<path d="M 290.0 105.0 L 300.0 105.0" stroke="#FF0000" fill="none" stroke-width="4px" />
<path d="M 300.0 105.0 L 310.0 105.0" stroke="#FF0000" fill="none" stroke-width="4px" />
<path d="M 310.0 105.0 L 320.0 105.0" stroke="#FF0000" fill="none" stroke-width="4px" />
<path d="M 320.0 105.0 L 330.0 105.0" stroke="#FF0000" fill="none" stroke-width="4px" />
<path d="M 330.0 105.0 L 340.0 105.0" stroke="#FF0000" fill="none" stroke-width="4px" />
<path d="M 340.0 105.0 L 330.0 95.0" stroke="#FF0000" fill="none" stroke-width="4px" />
<path d="M 330.0 95.0 L 320.0 95.0" stroke="#FF0000" fill="none" stroke-width="4px" />
<path d="M 320.0 95.0 L 310.0 95.0" stroke="#FF0000" fill="none" stroke-width="4px" />
<path d="M 310.0 95.0 L 300.0 95.0" stroke="#FF0000" fill="none" stroke-width="4px" />
<path d="M 300.0 95.0 L 290.0 95.0" stroke="#FF0000" fill="none" stroke-width="4px" />
<path d="M 290.0 95.0 L 280.0 95.0" stroke="#FF0000" fill="none" stroke-width="4px" />
<path d="M 280.0 95.0 L 290.0 85.0" stroke="#FF0000" fill="none" stroke-width="4px" />
<path d="M 290.0 85.0 L 300.0 85.0" stroke="#FF0000" fill="none" stroke-width="4px" />
<path d="M 300.0 85.0 L 310.0 85.0" stroke="#FF0000" fill="none" stroke-width="4px" />
<path d="M 310.0 85.0 L 320.0 85.0" stroke="#FF0000" fill="none" stroke-width="4px" />
<path d="M 320.0 155.0 L 310.0 155.0" stroke="#FF0000" fill="none" stroke-width="4px" />
<path d="M 310.0 155.0 L 300.0 155.0" stroke="#FF0000" fill="none" stroke-width="4px" />
<path d="M 300.0 155.0 L 290.0 155.0" stroke="#FF0000" fill="none" stroke-width="4px" />
<path d="M 290.0 155.0 L 300.0 165.0" stroke="#FF0000" fill="none" stroke-width="4px" />
<path d="M 300.0 165.0 L 310.0 165.0" stroke="#FF0000" fill="none" stroke-width="4px" />
<path d="M 310.0 165.0 L 320.0 165.0" stroke="#FF0000" fill="none" stroke-width="4px" />
<path d="M 320.0 165.0 L 330.0 165.0" stroke="#FF0000" fill="none" stroke-width="4px" />
<path d="M 330.0 165.0 L 330.0 155.0" stroke="#FF0000" fill="none" stroke-width="4px" />
<path d="M 330.0 155.0 L 340.0 155.0" stroke="#FF0000" fill="none" stroke-width="4px" />
<path d="M 660.0 65.0 L 670.0 65.0" stroke="#FF0000" fill="none" stroke-width="4px" />
<path d="M 670.0 65.0 L 680.0 65.0" stroke="#FF0000" fill="none" stroke-width="4px" />
<path d="M 680.0 65.0 L 690.0 65.0" stroke="#FF0000" fill="none" stroke-width="4px" />
<path d="M 690.0 65.0 L 700.0 65.0" stroke="#FF0000" fill="none" stroke-width="4px" />
<path d="M 700.0 65.0 L 710.0 65.0" stroke="#FF0000" fill="none" stroke-width="4px" />
<path d="M 710.0 65.0 L 720.0 65.0" stroke="#FF0000" fill="none" stroke-width="4px" />
<path d="M 720.0 65.0 L 730.0 65.0" stroke="#FF0000" fill="none" stroke-width="4px" />
<path d="M 730.0 65.0 L 730.0 75.0" stroke="#FF0000" fill="none" stroke-width="4px" />
<path d="M 730.0 75.0 L 720.0 75.0" stroke="#FF0000" fill="none" stroke-width="4px" />
<path d="M 720.0 75.0 L 710.0 75.0" stroke="#FF0000" fill="none" stroke-width="4px" />
<path d="M 710.0 75.0 L 700.0 75.0" stroke="#FF0000" fill="none" stroke-width="4px" />
<path d="M 700.0 75.0 L 690.0 75.0" stroke="#FF0000" fill="none" stroke-width="4px" />
<path d="M 690.0 75.0 L 680.0 75.0" stroke="#FF0000" fill="none" stroke-width="4px" />
<path d="M 680.0 75.0 L 670.0 75.0" stroke="#FF0000" fill="none" stroke-width="4px" />
<path d="M 670.0 75.0 L 670.0 85.0" stroke="#FF0000" fill="none" stroke-width="4px" />
<path d="M 670.0 85.0 L 680.0 85.0" stroke="#FF0000" fill="none" stroke-width="4px" />
<path d="M 680.0 85.0 L 690.0 85.0" stroke="#FF0000" fill="none" stroke-width="4px" />
<path d="M 690.0 85.0 L 700.0 85.0" stroke="#FF0000" fill="none" stroke-width="4px" />
<path d="M 700.0 85.0 L 710.0 85.0" stroke="#FF0000" fill="none" stroke-width="4px" />
<path d="M 710.0 85.0 L 720.0 85.0" stroke="#FF0000" fill="none" stroke-width="4px" />
<path d="M 720.0 85.0 L 730.0 85.0" stroke="#FF0000" fill="none" stroke-width="4px" />
<path d="M 730.0 85.0 L 730.0 95.0" stroke="#FF0000" fill="none" stroke-width="4px" />
<path d="M 730.0 95.0 L 720.0 95.0" stroke="#FF0000" fill="none" stroke-width="4px" />
<path d="M 720.0 95.0 L 710.0 95.0" stroke="#FF0000" fill="none" stroke-width="4px" />
<path d="M 710.0 95.0 L 700.0 95.0" stroke="#FF0000" fill="none" stroke-width="4px" />
<path d="M 700.0 95.0 L 690.0 95.0" stroke="#FF0000" fill="none" stroke-width="4px" />
<path d="M 690.0 95.0 L 680.0 95.0" stroke="#FF0000" fill="none" stroke-width="4px" />
<path d="M 680.0 95.0 L 680.0 105.0" stroke="#FF0000" fill="none" stroke-width="4px" />
<path d="M 680.0 105.0 L 690.0 105.0" stroke="#FF0000" fill="none" stroke-width="4px" />
<path d="M 690.0 105.0 L 700.0 105.0" stroke="#FF0000" fill="none" stroke-width="4px" />
<path d="M 700.0 105.0 L 710.0 105.0" stroke="#FF0000" fill="none" stroke-width="4px" />
<path d="M 710.0 105.0 L 720.0 105.0" stroke="#FF0000" fill="none" stroke-width="4px" />
<path d="M 720.0 105.0 L 730.0 105.0" stroke="#FF0000" fill="none" stroke-width="4px" />
<path d="M 730.0 105.0 L 720.0 115.0" stroke="#FF0000" fill="none" stroke-width="4px" />
<path d="M 720.0 115.0 L 710.0 115.0" stroke="#FF0000" fill="none" stroke-width="4px" />
<path d="M 710.0 115.0 L 700.0 115.0" stroke="#FF0000" fill="none" stroke-width="4px" />
<path d="M 700.0 115.0 L 690.0 115.0" stroke="#FF0000" fill="none" stroke-width="4px" />
<path d="M 690.0 55.0 L 680.0 55.0" stroke="#FF0000" fill="none" stroke-width="4px" />
<path d="M 680.0 55.0 L 670.0 55.0" stroke="#FF0000" fill="none" stroke-width="4px" />
<path d="M 670.0 55.0 L 660.0 55.0" stroke="#FF0000" fill="none" stroke-width="4px" />
<path d="M 660.0 55.0 L 660.0 45.0" stroke="#FF0000" fill="none" stroke-width="4px" />
<path d="M 660.0 45.0 L 650.0 45.0" stroke="#FF0000" fill="none" stroke-width="4px" />
<path d="M 650.0 45.0 L 650.0 35.0" stroke="#FF0000" fill="none" stroke-width="4px" />
<path d="M 650.0 35.0 L 640.0 35.0" stroke="#FF0000" fill="none" stroke-width="4px" />
<path d="M 640.0 35.0 L 650.0 25.0" stroke="#FF0000" fill="none" stroke-width="4px" />
<path d="M 650.0 25.0 L 660.0 25.0" stroke="#FF0000" fill="none" stroke-width="4px" />
<path d="M 660.0 25.0 L 670.0 25.0" stroke="#FF0000" fill="none" stroke-width="4px" />
<path d="M 670.0 25.0 L 680.0 25.0" stroke="#FF0000" fill="none" stroke-width="4px" />
<path d="M 680.0 25.0 L 690.0 25.0" stroke="#FF0000" fill="none" stroke-width="4px" />
<path d="M 690.0 25.0 L 700.0 25.0" stroke="#FF0000" fill="none" stroke-width="4px" />
<path d="M 700.0 25.0 L 710.0 25.0" stroke="#FF0000" fill="none" stroke-width="4px" />
<path d="M 710.0 25.0 L 720.0 25.0" stroke="#FF0000" fill="none" stroke-width="4px" />
<path d="M 720.0 25.0 L 730.0 25.0" stroke="#FF0000" fill="none" stroke-width="4px" />
<path d="M 730.0 25.0 L 740.0 25.0" stroke="#FF0000" fill="none" stroke-width="4px" />
<path d="M 740.0 25.0 L 740.0 35.0" stroke="#FF0000" fill="none" stroke-width="4px" />
<path d="M 740.0 35.0 L 730.0 35.0" stroke="#FF0000" fill="none" stroke-width="4px" />
<path d="M 730.0 35.0 L 720.0 35.0" stroke="#FF0000" fill="none" stroke-width="4px" />
<path d="M 720.0 35.0 L 710.0 35.0" stroke="#FF0000" fill="none" stroke-width="4px" />
<path d="M 710.0 35.0 L 700.0 35.0" stroke="#FF0000" fill="none" stroke-width="4px" />
<path d="M 700.0 35.0 L 690.0 35.0" stroke="#FF0000" fill="none" stroke-width="4px" />
<path d="M 690.0 35.0 L 680.0 35.0" stroke="#FF0000" fill="none" stroke-width="4px" />
<path d="M 680.0 35.0 L 670.0 35.0" stroke="#FF0000" fill="none" stroke-width="4px" />
<path d="M 670.0 35.0 L 660.0 35.0" stroke="#FF0000" fill="none" stroke-width="4px" />
<path d="M 660.0 35.0 L 670.0 45.0" stroke="#FF0000" fill="none" stroke-width="4px" />
<path d="M 670.0 45.0 L 680.0 45.0" stroke="#FF0000" fill="none" stroke-width="4px" />
<path d="M 680.0 45.0 L 690.0 45.0" stroke="#FF0000" fill="none" stroke-width="4px" />
<path d="M 690.0 45.0 L 700.0 45.0" stroke="#FF0000" fill="none" stroke-width="4px" />
<path d="M 700.0 45.0 L 710.0 45.0" stroke="#FF0000" fill="none" stroke-width="4px" />
<path d="M 710.0 45.0 L 720.0 45.0" stroke="#FF0000" fill="none" stroke-width="4px" />
<path d="M 720.0 45.0 L 730.0 45.0" stroke="#FF0000" fill="none" stroke-width="4px" />
<path d="M 730.0 45.0 L 740.0 45.0" stroke="#FF0000" fill="none" stroke-width="4px" />
<path d="M 740.0 45.0 L 730.0 55.0" stroke="#FF0000" fill="none" stroke-width="4px" />
<path d="M 730.0 55.0 L 720.0 55.0" stroke="#FF0000" fill="none" stroke-width="4px" />
<path d="M 720.0 55.0 L 710.0 55.0" stroke="#FF0000" fill="none" stroke-width="4px" />
<path d="M 710.0 55.0 L 700.0 55.0" stroke="#FF0000" fill="none" stroke-width="4px" />
<path d="M 700.0 15.0 L 710.0 15.0" stroke="#FF0000" fill="none" stroke-width="4px" />
<path d="M 710.0 15.0 L 720.0 15.0" stroke="#FF0000" fill="none" stroke-width="4px" />
<path d="M 720.0 15.0 L 730.0 15.0" stroke="#FF0000" fill="none" stroke-width="4px" />
<path d="M 730.0 15.0 L 740.0 15.0" stroke="#FF0000" fill="none" stroke-width="4px" />
<path d="M 740.0 15.0 L 730.0 5.0" stroke="#FF0000" fill="none" stroke-width="4px" />
<path d="M 730.0 5.0 L 720.0 5.0" stroke="#FF0000" fill="none" stroke-width="4px" />
<path d="M 720.0 5.0 L 710.0 5.0" stroke="#FF0000" fill="none" stroke-width="4px" />
<path d="M 710.0 5.0 L 710.0 -5.0" stroke="#FF0000" fill="none" stroke-width="4px" />
<path d="M 710.0 -5.0 L 720.0 -5.0" stroke="#FF0000" fill="none" stroke-width="4px" />
<path d="M 680.0 15.0 L 670.0 15.0" stroke="#FF0000" fill="none" stroke-width="4px" />
<path d="M 670.0 15.0 L 660.0 15.0" stroke="#FF0000" fill="none" stroke-width="4px" />
<path d="M 770.0 165.0 L 780.0 165.0" stroke="#FF0000" fill="none" stroke-width="4px" />
<path d="M 780.0 165.0 L 780.0 175.0" stroke="#FF0000" fill="none" stroke-width="4px" />
<path d="M 780.0 175.0 L 770.0 175.0" stroke="#FF0000" fill="none" stroke-width="4px" />
<path d="M 770.0 175.0 L 760.0 175.0" stroke="#FF0000" fill="none" stroke-width="4px" />
<path d="M 760.0 175.0 L 760.0 185.0" stroke="#FF0000" fill="none" stroke-width="4px" />
<path d="M 760.0 185.0 L 770.0 185.0" stroke="#FF0000" fill="none" stroke-width="4px" />
<path d="M 770.0 185.0 L 780.0 185.0" stroke="#FF0000" fill="none" stroke-width="4px" />
<path d="M 780.0 185.0 L 790.0 185.0" stroke="#FF0000" fill="none" stroke-width="4px" />
<path d="M 790.0 185.0 L 790.0 175.0" stroke="#FF0000" fill="none" stroke-width="4px" />
<path d="M 780.0 195.0 L 770.0 195.0" stroke="#FF0000" fill="none" stroke-width="4px" />
<path d="M 1120.0 145.0 L 1130.0 145.0" stroke="#FF0000" fill="none" stroke-width="4px" />
<path d="M 1130.0 145.0 L 1140.0 145.0" stroke="#FF0000" fill="none" stroke-width="4px" />
<path d="M 1140.0 145.0 L 1150.0 145.0" stroke="#FF0000" fill="none" stroke-width="4px" />
<path d="M 1150.0 145.0 L 1160.0 145.0" stroke="#FF0000" fill="none" stroke-width="4px" />
<path d="M 1160.0 145.0 L 1170.0 145.0" stroke="#FF0000" fill="none" stroke-width="4px" />
<path d="M 1170.0 145.0 L 1180.0 145.0" stroke="#FF0000" fill="none" stroke-width="4px" />
<path d="M 1180.0 145.0 L 1190.0 145.0" stroke="#FF0000" fill="none" stroke-width="4px" />
<path d="M 1190.0 145.0 L 1200.0 145.0" stroke="#FF0000" fill="none" stroke-width="4px" />
<path d="M 1200.0 145.0 L 1210.0 145.0" stroke="#FF0000" fill="none" stroke-width="4px" />
<path d="M 1210.0 145.0 L 1220.0 145.0" stroke="#FF0000" fill="none" stroke-width="4px" />
<path d="M 1220.0 145.0 L 1230.0 145.0" stroke="#FF0000" fill="none" stroke-width="4px" />
<path d="M 1230.0 145.0 L 1240.0 145.0" stroke="#FF0000" fill="none" stroke-width="4px" />
<path d="M 1240.0 145.0 L 1250.0 145.0" stroke="#FF0000" fill="none" stroke-width="4px" />
<path d="M 1250.0 145.0 L 1250.0 135.0" stroke="#FF0000" fill="none" stroke-width="4px" />
<path d="M 1250.0 135.0 L 1240.0 135.0" stroke="#FF0000" fill="none" stroke-width="4px" />
<path d="M 1240.0 135.0 L 1230.0 135.0" stroke="#FF0000" fill="none" stroke-width="4px" />
<path d="M 1230.0 135.0 L 1220.0 135.0" stroke="#FF0000" fill="none" stroke-width="4px" />
<path d="M 1220.0 135.0 L 1210.0 135.0" stroke="#FF0000" fill="none" stroke-width="4px" />
<path d="M 1210.0 135.0 L 1200.0 135.0" stroke="#FF0000" fill="none" stroke-width="4px" />
<path d="M 1200.0 135.0 L 1190.0 135.0" stroke="#FF0000" fill="none" stroke-width="4px" />
<path d="M 1190.0 135.0 L 1180.0 135.0" stroke="#FF0000" fill="none" stroke-width="4px" />
<path d="M 1180.0 135.0 L 1170.0 135.0" stroke="#FF0000" fill="none" stroke-width="4px" />
<path d="M 1170.0 135.0 L 1160.0 135.0" stroke="#FF0000" fill="none" stroke-width="4px" />
<path d="M 1160.0 135.0 L 1150.0 135.0" stroke="#FF0000" fill="none" stroke-width="4px" />
<path d="M 1150.0 135.0 L 1140.0 135.0" stroke="#FF0000" fill="none" stroke-width="4px" />
<path d="M 1140.0 135.0 L 1130.0 135.0" stroke="#FF0000" fill="none" stroke-width="4px" />
<path d="M 1130.0 135.0 L 1120.0 135.0" stroke="#FF0000" fill="none" stroke-width="4px" />
<path d="M 1120.0 135.0 L 1130.0 125.0" stroke="#FF0000" fill="none" stroke-width="4px" />
<path d="M 1130.0 125.0 L 1140.0 125.0" stroke="#FF0000" fill="none" stroke-width="4px" />
<path d="M 1140.0 125.0 L 1150.0 125.0" stroke="#FF0000" fill="none" stroke-width="4px" />
<path d="M 1150.0 125.0 L 1160.0 125.0" stroke="#FF0000" fill="none" stroke-width="4px" />
<path d="M 1160.0 125.0 L 1170.0 125.0" stroke="#FF0000" fill="none" stroke-width="4px" />
<path d="M 1170.0 125.0 L 1180.0 125.0" stroke="#FF0000" fill="none" stroke-width="4px" />
<path d="M 1180.0 125.0 L 1190.0 125.0" stroke="#FF0000" fill="none" stroke-width="4px" />
<path d="M 1190.0 125.0 L 1200.0 125.0" stroke="#FF0000" fill="none" stroke-width="4px" />
<path d="M 1200.0 125.0 L 1210.0 125.0" stroke="#FF0000" fill="none" stroke-width="4px" />
<path d="M 1210.0 125.0 L 1220.0 125.0" stroke="#FF0000" fill="none" stroke-width="4px" />
<path d="M 1220.0 125.0 L 1230.0 125.0" stroke="#FF0000" fill="none" stroke-width="4px" />
<path d="M 1230.0 125.0 L 1240.0 125.0" stroke="#FF0000" fill="none" stroke-width="4px" />
<path d="M 1240.0 125.0 L 1250.0 125.0" stroke="#FF0000" fill="none" stroke-width="4px" />
<path d="M 1250.0 125.0 L 1260.0 125.0" stroke="#FF0000" fill="none" stroke-width="4px" />
<path d="M 1260.0 125.0 L 1270.0 125.0" stroke="#FF0000" fill="none" stroke-width="4px" />
<path d="M 1270.0 125.0 L 1260.0 135.0" stroke="#FF0000" fill="none" stroke-width="4px" />
<path d="M 1260.0 115.0 L 1250.0 115.0" stroke="#FF0000" fill="none" stroke-width="4px" />
<path d="M 1250.0 115.0 L 1240.0 115.0" stroke="#FF0000" fill="none" stroke-width="4px" />
<path d="M 1240.0 115.0 L 1230.0 115.0" stroke="#FF0000" fill="none" stroke-width="4px" />
<path d="M 1230.0 115.0 L 1220.0 115.0" stroke="#FF0000" fill="none" stroke-width="4px" />
<path d="M 1220.0 115.0 L 1210.0 115.0" stroke="#FF0000" fill="none" stroke-width="4px" />
<path d="M 1210.0 115.0 L 1210.0 105.0" stroke="#FF0000" fill="none" stroke-width="4px" />
<path d="M 1210.0 105.0 L 1220.0 105.0" stroke="#FF0000" fill="none" stroke-width="4px" />
<path d="M 1220.0 105.0 L 1230.0 105.0" stroke="#FF0000" fill="none" stroke-width="4px" />
<path d="M 1230.0 105.0 L 1240.0 105.0" stroke="#FF0000" fill="none" stroke-width="4px" />
<path d="M 1240.0 105.0 L 1250.0 105.0" stroke="#FF0000" fill="none" stroke-width="4px" />
<path d="M 1250.0 105.0 L 1260.0 105.0" stroke="#FF0000" fill="none" stroke-width="4px" />
<path d="M 1260.0 105.0 L 1250.0 95.0" stroke="#FF0000" fill="none" stroke-width="4px" />
<path d="M 1250.0 95.0 L 1240.0 95.0" stroke="#FF0000" fill="none" stroke-width="4px" />
<path d="M 1240.0 95.0 L 1230.0 95.0" stroke="#FF0000" fill="none" stroke-width="4px" />
<path d="M 1230.0 95.0 L 1220.0 95.0" stroke="#FF0000" fill="none" stroke-width="4px" />
<path d="M 1220.0 95.0 L 1230.0 85.0" stroke="#FF0000" fill="none" stroke-width="4px" />
<path d="M 1230.0 85.0 L 1240.0 85.0" stroke="#FF0000" fill="none" stroke-width="4px" />
<path d="M 1210.0 75.0 L 1200.0 75.0" stroke="#FF0000" fill="none" stroke-width="4px" />
<path d="M 1200.0 75.0 L 1190.0 75.0" stroke="#FF0000" fill="none" stroke-width="4px" />
<path d="M 1190.0 75.0 L 1180.0 75.0" stroke="#FF0000" fill="none" stroke-width="4px" />
<path d="M 1180.0 75.0 L 1170.0 75.0" stroke="#FF0000" fill="none" stroke-width="4px" />
<path d="M 1170.0 75.0 L 1160.0 75.0" stroke="#FF0000" fill="none" stroke-width="4px" />
<path d="M 1160.0 75.0 L 1150.0 75.0" stroke="#FF0000" fill="none" stroke-width="4px" />
<path d="M 1150.0 75.0 L 1140.0 75.0" stroke="#FF0000" fill="none" stroke-width="4px" />
<path d="M 1140.0 75.0 L 1130.0 75.0" stroke="#FF0000" fill="none" stroke-width="4px" />
<path d="M 1130.0 75.0 L 1130.0 85.0" stroke="#FF0000" fill="none" stroke-width="4px" />
<path d="M 1130.0 85.0 L 1140.0 85.0" stroke="#FF0000" fill="none" stroke-width="4px" />
<path d="M 1140.0 85.0 L 1150.0 85.0" stroke="#FF0000" fill="none" stroke-width="4px" />
<path d="M 1150.0 85.0 L 1160.0 85.0" stroke="#FF0000" fill="none" stroke-width="4px" />
<path d="M 1160.0 85.0 L 1170.0 85.0" stroke="#FF0000" fill="none" stroke-width="4px" />
<path d="M 1170.0 85.0 L 1180.0 85.0" stroke="#FF0000" fill="none" stroke-width="4px" />
<path d="M 1180.0 85.0 L 1190.0 85.0" stroke="#FF0000" fill="none" stroke-width="4px" />
<path d="M 1190.0 85.0 L 1200.0 85.0" stroke="#FF0000" fill="none" stroke-width="4px" />
<path d="M 1200.0 85.0 L 1190.0 95.0" stroke="#FF0000" fill="none" stroke-width="4px" />
<path d="M 1190.0 95.0 L 1180.0 95.0" stroke="#FF0000" fill="none" stroke-width="4px" />
<path d="M 1180.0 95.0 L 1170.0 95.0" stroke="#FF0000" fill="none" stroke-width="4px" />
<path d="M 1170.0 95.0 L 1160.0 95.0" stroke="#FF0000" fill="none" stroke-width="4px" />
<path d="M 1160.0 95.0 L 1150.0 95.0" stroke="#FF0000" fill="none" stroke-width="4px" />
<path d="M 1150.0 95.0 L 1140.0 95.0" stroke="#FF0000" fill="none" stroke-width="4px" />
<path d="M 1140.0 95.0 L 1150.0 105.0" stroke="#FF0000" fill="none" stroke-width="4px" />
<path d="M 1150.0 105.0 L 1160.0 105.0" stroke="#FF0000" fill="none" stroke-width="4px" />
<path d="M 1160.0 105.0 L 1170.0 105.0" stroke="#FF0000" fill="none" stroke-width="4px" />
<path d="M 1170.0 105.0 L 1180.0 105.0" stroke="#FF0000" fill="none" stroke-width="4px" />
<path d="M 1180.0 105.0 L 1170.0 115.0" stroke="#FF0000" fill="none" stroke-width="4px" />
<path d="M 1170.0 115.0 L 1160.0 115.0" stroke="#FF0000" fill="none" stroke-width="4px" />
<path d="M 1160.0 115.0 L 1150.0 115.0" stroke="#FF0000" fill="none" stroke-width="4px" />
<path d="M 1150.0 115.0 L 1140.0 115.0" stroke="#FF0000" fill="none" stroke-width="4px" />
<path d="M 1140.0 155.0 L 1130.0 155.0" stroke="#FF0000" fill="none" stroke-width="4px" />
<path d="M 1130.0 155.0 L 1130.0 165.0" stroke="#FF0000" fill="none" stroke-width="4px" />
<path d="M 1130.0 165.0 L 1140.0 165.0" stroke="#FF0000" fill="none" stroke-width="4px" />
<path d="M 1140.0 165.0 L 1150.0 165.0" stroke="#FF0000" fill="none" stroke-width="4px" />
<path d="M 1150.0 165.0 L 1160.0 165.0" stroke="#FF0000" fill="none" stroke-width="4px" />
<path d="M 1160.0 165.0 L 1170.0 165.0" stroke="#FF0000" fill="none" stroke-width="4px" />
<path d="M 1170.0 165.0 L 1180.0 165.0" stroke="#FF0000" fill="none" stroke-width="4px" />
<path d="M 1180.0 165.0 L 1190.0 165.0" stroke="#FF0000" fill="none" stroke-width="4px" />
<path d="M 1190.0 165.0 L 1200.0 165.0" stroke="#FF0000" fill="none" stroke-width="4px" />
<path d="M 1200.0 165.0 L 1210.0 165.0" stroke="#FF0000" fill="none" stroke-width="4px" />
<path d="M 1210.0 165.0 L 1220.0 165.0" stroke="#FF0000" fill="none" stroke-width="4px" />
<path d="M 1220.0 165.0 L 1230.0 165.0" stroke="#FF0000" fill="none" stroke-width="4px" />
<path d="M 1230.0 165.0 L 1230.0 155.0" stroke="#FF0000" fill="none" stroke-width="4px" />
<path d="M 1230.0 155.0 L 1220.0 155.0" stroke="#FF0000" fill="none" stroke-width="4px" />
<path d="M 1220.0 155.0 L 1210.0 155.0" stroke="#FF0000" fill="none" stroke-width="4px" />
<path d="M 1210.0 155.0 L 1200.0 155.0" stroke="#FF0000" fill="none" stroke-width="4px" />
<path d="M 1200.0 155.0 L 1190.0 155.0" stroke="#FF0000" fill="none" stroke-width="4px" />
<path d="M 1190.0 155.0 L 1180.0 155.0" stroke="#FF0000" fill="none" stroke-width="4px" />
<path d="M 1180.0 155.0 L 1170.0 155.0" stroke="#FF0000" fill="none" stroke-width="4px" />
<path d="M 1170.0 155.0 L 1160.0 155.0" stroke="#FF0000" fill="none" stroke-width="4px" />
<path d="M 1160.0 155.0 L 1150.0 155.0" stroke="#FF0000" fill="none" stroke-width="4px" />
<path d="M 1150.0 175.0 L 1140.0 175.0" stroke="#FF0000" fill="none" stroke-width="4px" />
<path d="M 1140.0 175.0 L 1150.0 185.0" stroke="#FF0000" fill="none" stroke-width="4px" />
<path d="M 1150.0 185.0 L 1160.0 185.0" stroke="#FF0000" fill="none" stroke-width="4px" />
<path d="M 1160.0 185.0 L 1170.0 185.0" stroke="#FF0000" fill="none" stroke-width="4px" />
<path d="M 1170.0 185.0 L 1180.0 185.0" stroke="#FF0000" fill="none" stroke-width="4px" />
<path d="M 1180.0 185.0 L 1190.0 185.0" stroke="#FF0000" fill="none" stroke-width="4px" />
<path d="M 1190.0 185.0 L 1200.0 185.0" stroke="#FF0000" fill="none" stroke-width="4px" />
<path d="M 1200.0 185.0 L 1210.0 185.0" stroke="#FF0000" fill="none" stroke-width="4px" />
<path d="M 1210.0 185.0 L 1210.0 175.0" stroke="#FF0000" fill="none" stroke-width="4px" />
<path d="M 1210.0 175.0 L 1200.0 175.0" stroke="#FF0000" fill="none" stroke-width="4px" />
<path d="M 1200.0 175.0 L 1190.0 175.0" stroke="#FF0000" fill="none" stroke-width="4px" />
<path d="M 1190.0 175.0 L 1180.0 175.0" stroke="#FF0000" fill="none" stroke-width="4px" />
<path d="M 1180.0 175.0 L 1170.0 175.0" stroke="#FF0000" fill="none" stroke-width="4px" />
<path d="M 1170.0 175.0 L 1160.0 175.0" stroke="#FF0000" fill="none" stroke-width="4px" />
<path d="M 1160.0 195.0 L 1150.0 195.0" stroke="#FF0000" fill="none" stroke-width="4px" />
<path d="M 1150.0 195.0 L 1160.0 205.0" stroke="#FF0000" fill="none" stroke-width="4px" />
<path d="M 1160.0 205.0 L 1170.0 205.0" stroke="#FF0000" fill="none" stroke-width="4px" />
<path d="M 1170.0 205.0 L 1180.0 205.0" stroke="#FF0000" fill="none" stroke-width="4px" />
<path d="M 1180.0 205.0 L 1180.0 195.0" stroke="#FF0000" fill="none" stroke-width="4px" />
<path d="M 1180.0 195.0 L 1170.0 195.0" stroke="#FF0000" fill="none" stroke-width="4px" />
<path d="M 1170.0 195.0 L 1190.0 195.0" stroke="#FF0000" fill="none" stroke-width="4px" />
<path d="M 1210.0 65.0 L 1200.0 65.0" stroke="#FF0000" fill="none" stroke-width="4px" />
<path d="M 1200.0 65.0 L 1190.0 65.0" stroke="#FF0000" fill="none" stroke-width="4px" />
<path d="M 1190.0 65.0 L 1180.0 65.0" stroke="#FF0000" fill="none" stroke-width="4px" />
<path d="M 1180.0 65.0 L 1170.0 65.0" stroke="#FF0000" fill="none" stroke-width="4px" />
<path d="M 1170.0 65.0 L 1160.0 65.0" stroke="#FF0000" fill="none" stroke-width="4px" />
<path d="M 1160.0 65.0 L 1150.0 65.0" stroke="#FF0000" fill="none" stroke-width="4px" />
<path d="M 1150.0 65.0 L 1140.0 65.0" stroke="#FF0000" fill="none" stroke-width="4px" />
<path d="M 1140.0 65.0 L 1130.0 65.0" stroke="#FF0000" fill="none" stroke-width="4px" />
<path d="M 1130.0 65.0 L 1120.0 65.0" stroke="#FF0000" fill="none" stroke-width="4px" />
<path d="M 1120.0 65.0 L 1120.0 55.0" stroke="#FF0000" fill="none" stroke-width="4px" />
<path d="M 1120.0 55.0 L 1110.0 55.0" stroke="#FF0000" fill="none" stroke-width="4px" />
<path d="M 1110.0 55.0 L 1110.0 45.0" stroke="#FF0000" fill="none" stroke-width="4px" />
<path d="M 1110.0 45.0 L 1120.0 45.0" stroke="#FF0000" fill="none" stroke-width="4px" />
<path d="M 1120.0 45.0 L 1130.0 45.0" stroke="#FF0000" fill="none" stroke-width="4px" />
<path d="M 1130.0 45.0 L 1140.0 45.0" stroke="#FF0000" fill="none" stroke-width="4px" />
<path d="M 1140.0 45.0 L 1150.0 45.0" stroke="#FF0000" fill="none" stroke-width="4px" />
<path d="M 1150.0 45.0 L 1160.0 45.0" stroke="#FF0000" fill="none" stroke-width="4px" />
<path d="M 1160.0 45.0 L 1170.0 45.0" stroke="#FF0000" fill="none" stroke-width="4px" />
<path d="M 1170.0 45.0 L 1180.0 45.0" stroke="#FF0000" fill="none" stroke-width="4px" />
<path d="M 1180.0 45.0 L 1190.0 45.0" stroke="#FF0000" fill="none" stroke-width="4px" />
<path d="M 1190.0 45.0 L 1200.0 45.0" stroke="#FF0000" fill="none" stroke-width="4px" />
<path d="M 1200.0 45.0 L 1210.0 45.0" stroke="#FF0000" fill="none" stroke-width="4px" />
<path d="M 1210.0 45.0 L 1210.0 55.0" stroke="#FF0000" fill="none" stroke-width="4px" />
<path d="M 1210.0 55.0 L 1200.0 55.0" stroke="#FF0000" fill="none" stroke-width="4px" />
<path d="M 1200.0 55.0 L 1190.0 55.0" stroke="#FF0000" fill="none" stroke-width="4px" />
<path d="M 1190.0 55.0 L 1180.0 55.0" stroke="#FF0000" fill="none" stroke-width="4px" />
<path d="M 1180.0 55.0 L 1170.0 55.0" stroke="#FF0000" fill="none" stroke-width="4px" />
<path d="M 1170.0 55.0 L 1160.0 55.0" stroke="#FF0000" fill="none" stroke-width="4px" />
<path d="M 1160.0 55.0 L 1150.0 55.0" stroke="#FF0000" fill="none" stroke-width="4px" />
<path d="M 1150.0 55.0 L 1140.0 55.0" stroke="#FF0000" fill="none" stroke-width="4px" />
<path d="M 1140.0 55.0 L 1130.0 55.0" stroke="#FF0000" fill="none" stroke-width="4px" />
<path d="M 1130.0 35.0 L 1120.0 35.0" stroke="#FF0000" fill="none" stroke-width="4px" />
<path d="M 1120.0 35.0 L 1140.0 35.0" stroke="#FF0000" fill="none" stroke-width="4px" />
<path d="M 1140.0 35.0 L 1150.0 35.0" stroke="#FF0000" fill="none" stroke-width="4px" />
<path d="M 1150.0 35.0 L 1160.0 35.0" stroke="#FF0000" fill="none" stroke-width="4px" />
<path d="M 1160.0 35.0 L 1170.0 35.0" stroke="#FF0000" fill="none" stroke-width="4px" />
<path d="M 1170.0 35.0 L 1180.0 35.0" stroke="#FF0000" fill="none" stroke-width="4px" />
<path d="M 1180.0 35.0 L 1190.0 35.0" stroke="#FF0000" fill="none" stroke-width="4px" />
<path d="M 1190.0 35.0 L 1200.0 35.0" stroke="#FF0000" fill="none" stroke-width="4px" />
</svg>