<svg width="2894.54166667" height="235.0" xmlns="http://www.w3.org/2000/svg" version="1.1">
<path d="M 0.0 235.0 L 1585.0 235.0 L 1585.0 0.0 L 0.0 0.0 L 0.0 235.0" stroke="#000000" fill="none" stroke-width="3px" />
<path d="M 2894.54166667 235.0 L 1485.0 235.0 L 1485.0 0.0 L 2894.54166667 0.0 L 2894.54166667 235.0" stroke="#000000" fill="none" stroke-width="3px" />
<path d="M 10.0 257.5 L 0.0 247.5 L 10.0 237.5" stroke="#969696" fill="none" stroke-width="1px" />
<path d="M 10.0 237.5 L 1575.0 237.5" stroke="#969696" fill="none" stroke-width="1px" />
<path d="M 1575.0 237.5 L 1585.0 227.5 L 1575.0 217.5" stroke="#969696" fill="none" stroke-width="1px" />
<path d="M 1575.0 217.5 L 10.0 217.5" stroke="#969696" fill="none" stroke-width="1px" />
<path d="M 10.0 217.5 L 0.0 207.5 L 10.0 197.5" stroke="#969696" fill="none" stroke-width="1px" />
<path d="M 10.0 197.5 L 1575.0 197.5" stroke="#969696" fill="none" stroke-width="1px" />
<path d="M 1575.0 197.5 L 1585.0 187.5 L 1575.0 177.5" stroke="#969696" fill="none" stroke-width="1px" />
<path d="M 1575.0 177.5 L 10.0 177.5" stroke="#969696" fill="none" stroke-width="1px" />
<path d="M 10.0 177.5 L 0.0 167.5 L 10.0 157.5" stroke="#969696" fill="none" stroke-width="1px" />
<path d="M 10.0 157.5 L 1575.0 157.5" stroke="#969696" fill="none" stroke-width="1px" />
<path d="M 1575.0 157.5 L 1585.0 147.5 L 1575.0 137.5" stroke="#969696" fill="none" stroke-width="1px" />
<path d="M 1575.0 137.5 L 10.0 137.5" stroke="#969696" fill="none" stroke-width="1px" />
<path d="M 10.0 137.5 L 0.0 127.5 L 10.0 117.5" stroke="#969696" fill="none" stroke-width="1px" />
<path d="M 10.0 117.5 L 1575.0 117.5" stroke="#969696" fill="none" stroke-width="1px" />
<path d="M 1575.0 117.5 L 1585.0 107.5 L 1575.0 97.5" stroke="#969696" fill="none" stroke-width="1px" />
<path d="M 1575.0 97.5 L 10.0 97.5" stroke="#969696" fill="none" stroke-width="1px" />
<path d="M 10.0 97.5 L 0.0 87.5 L 10.0 77.5" stroke="#969696" fill="none" stroke-width="1px" />
<path d="M 10.0 77.5 L 1575.0 77.5" stroke="#969696" fill="none" stroke-width="1px" />
<path d="M 1575.0 77.5 L 1585.0 67.5 L 1575.0 57.5" stroke="#969696" fill="none" stroke-width="1px" />
<path d="M 1575.0 57.5 L 10.0 57.5" stroke="#969696" fill="none" stroke-width="1px" />
<path d="M 10.0 57.5 L 0.0 47.5 L 10.0 37.5" stroke="#969696" fill="none" stroke-width="1px" />
<path d="M 10.0 37.5 L 1575.0 37.5" stroke="#969696" fill="none" stroke-width="1px" />
<path d="M 1575.0 37.5 L 1585.0 27.5 L 1575.0 17.5" stroke="#969696" fill="none" stroke-width="1px" />
<path d="M 1575.0 17.5 L 10.0 17.5" stroke="#969696" fill="none" stroke-width="1px" />
<path d="M 10.0 17.5 L 0.0 7.5 L 10.0 -2.5" stroke="#969696" fill="none" stroke-width="1px" />
<path d="M 10.0 -2.5 L 1575.0 -2.5" stroke="#969696" fill="none" stroke-width="1px" />
<path d="M 1575.0 -2.5 L 1585.0 -12.5 L 1575.0 -22.5" stroke="#969696" fill="none" stroke-width="1px" />
<path d="M 2884.54166667 257.5 L 2894.54166667 247.5 L 2884.54166667 237.5" stroke="#969696" fill="none" stroke-width="1px" />
<path d="M 2884.54166667 237.5 L 1495.0 237.5" stroke="#969696" fill="none" stroke-width="1px" />
<path d="M 1495.0 237.5 L 1485.0 227.5 L 1495.0 217.5" stroke="#969696" fill="none" stroke-width="1px" />
<path d="M 1495.0 217.5 L 2884.54166667 217.5" stroke="#969696" fill="none" stroke-width="1px" />
<path d="M 2884.54166667 217.5 L 2894.54166667 207.5 L 2884.54166667 197.5" stroke="#969696" fill="none" stroke-width="1px" />
<path d="M 2884.54166667 197.5 L 1495.0 197.5" stroke="#969696" fill="none" stroke-width="1px" />
<path d="M 1495.0 197.5 L 1485.0 187.5 L 1495.0 177.5" stroke="#969696" fill="none" stroke-width="1px" />
<path d="M 1495.0 177.5 L 2884.54166667 177.5" stroke="#969696" fill="none" stroke-width="1px" />
<path d="M 2884.54166667 177.5 L 2894.54166667 167.5 L 2884.54166667 157.5" stroke="#969696" fill="none" stroke-width="1px" />
<path d="M 2884.54166667 157.5 L 1495.0 157.5" stroke="#969696" fill="none" stroke-width="1px" />
<path d="M 1495.0 157.5 L 1485.0 147.5 L 1495.0 137.5" stroke="#969696" fill="none" stroke-width="1px" />
<path d="M 1495.0 137.5 L 2884.54166667 137.5" stroke="#969696" fill="none" stroke-width="1px" />
<path d="M 2884.54166667 137.5 L 2894.54166667 127.5 L 2884.54166667 117.5" stroke="#969696" fill="none" stroke-width="1px" />
<path d="M 2884.54166667 117.5 L 1495.0 117.5" stroke="#969696" fill="none" stroke-width="1px" />
<path d="M 1495.0 117.5 L 1485.0 107.5 L 1495.0 97.5" stroke="#969696" fill="none" stroke-width="1px" />
<path d="M 1495.0 97.5 L 2884.54166667 97.5" stroke="#969696" fill="none" stroke-width="1px" />
<path d="M 2884.54166667 97.5 L 2894.54166667 87.5 L 2884.54166667 77.5" stroke="#969696" fill="none" stroke-width="1px" />
<path d="M 2884.54166667 77.5 L 1495.0 77.5" stroke="#969696" fill="none" stroke-width="1px" />
<path d="M 1495.0 77.5 L 1485.0 67.5 L 1495.0 57.5" stroke="#969696" fill="none" stroke-width="1px" />
<path d="M 1495.0 57.5 L 2884.54166667 57.5" stroke="#969696" fill="none" stroke-width="1px" />
<path d="M 2884.54166667 57.5 L 2894.54166667 47.5 L 2884.54166667 37.5" stroke="#969696" fill="none" stroke-width="1px" />
<path d="M 2884.54166667 37.5 L 1495.0 37.5" stroke="#969696" fill="none" stroke-width="1px" />
<path d="M 1495.0 37.5 L 1485.0 27.5 L 1495.0 17.5" stroke="#969696" fill="none" stroke-width="1px" />
<path d="M 1495.0 17.5 L 2884.54166667 17.5" stroke="#969696" fill="none" stroke-width="1px" />
<path d="M 2884.54166667 17.5 L 2894.54166667 7.5 L 2884.54166667 -2.5" stroke="#969696" fill="none" stroke-width="1px" />
<path d="M 2884.54166667 -2.5 L 1495.0 -2.5" stroke="#969696" fill="none" stroke-width="1px" />
<path d="M 1495.0 -2.5 L 1485.0 -12.5 L 1495.0 -22.5" stroke="#969696" fill="none" stroke-width="1px" />
<path d="M 0.0 235.0 L 10.0 125.0" stroke="#0095FF" fill="none" stroke-width="2px" />
<path d="M 10.0 95.0 L 590.0 85.0" stroke="#0095FF" fill="none" stroke-width="2px" />
<path d="M 610.0 45.0 L 610.0 95.0" stroke="#0095FF" fill="none" stroke-width="2px" />
<path d="M 2894.54166667 235.0 L 2620.0 125.0" stroke="#0095FF" fill="none" stroke-width="2px" />
<path d="M 2590.0 85.0 L 2590.0 135.0" stroke="#0095FF" fill="none" stroke-width="2px" />
<path d="M 2610.0 135.0 L 2390.0 175.0" stroke="#0095FF" fill="none" stroke-width="2px" />
<path d="M 2360.0 195.0 L 2360.0 165.0" stroke="#0095FF" fill="none" stroke-width="2px" />
<path d="M 10.0 125.0 L 10.0 115.0" stroke="#FF0000" fill="none" stroke-width="4px" />
<path d="M 10.0 115.0 L 20.0 115.0" stroke="#FF0000" fill="none" stroke-width="4px" />
<path d="M 20.0 115.0 L 20.0 105.0" stroke="#FF0000" fill="none" stroke-width="4px" />
<path d="M 20.0 105.0 L 10.0 105.0" stroke="#FF0000" fill="none" stroke-width="4px" />
<path d="M 10.0 105.0 L 10.0 95.0" stroke="#FF0000" fill="none" stroke-width="4px" />
<path d="M 590.0 85.0 L 600.0 85.0" stroke="#FF0000" fill="none" stroke-width="4px" />
<path d="M 600.0 85.0 L 610.0 85.0" stroke="#FF0000" fill="none" stroke-width="4px" />
<path d="M 610.0 85.0 L 620.0 85.0" stroke="#FF0000" fill="none" stroke-width="4px" />
<path d="M 620.0 85.0 L 630.0 85.0" stroke="#FF0000" fill="none" stroke-width="4px" />
<path d="M 630.0 85.0 L 630.0 75.0" stroke="#FF0000" fill="none" stroke-width="4px" />
<path d="M 630.0 75.0 L 620.0 75.0" stroke="#FF0000" fill="none" stroke-width="4px" />
<path d="M 620.0 75.0 L 610.0 75.0" stroke="#FF0000" fill="none" stroke-width="4px" />
<path d="M 610.0 75.0 L 600.0 75.0" stroke="#FF0000" fill="none" stroke-width="4px" />
<path d="M 600.0 75.0 L 590.0 75.0" stroke="#FF0000" fill="none" stroke-width="4px" />
<path d="M 590.0 75.0 L 590.0 65.0" stroke="#FF0000" fill="none" stroke-width="4px" />
<path d="M 590.0 65.0 L 600.0 65.0" stroke="#FF0000" fill="none" stroke-width="4px" />
<path d="M 600.0 65.0 L 610.0 65.0" stroke="#FF0000" fill="none" stroke-width="4px" />
<path d="M 610.0 65.0 L 620.0 65.0" stroke="#FF0000" fill="none" stroke-width="4px" />
<path d="M 620.0 65.0 L 630.0 65.0" stroke="#FF0000" fill="none" stroke-width="4px" />
<path d="M 630.0 65.0 L 620.0 55.0" stroke="#FF0000" fill="none" stroke-width="4px" />
<path d="M 620.0 55.0 L 610.0 55.0" stroke="#FF0000" fill="none" stroke-width="4px" />
<path d="M 610.0 55.0 L 600.0 55.0" stroke="#FF0000" fill="none" stroke-width="4px" />
<path d="M 600.0 55.0 L 610.0 45.0" stroke="#FF0000" fill="none" stroke-width="4px" />
<path d="M 610.0 95.0 L 600.0 95.0" stroke="#FF0000" fill="none" stroke-width="4px" />
<path d="M 600.0 95.0 L 610.0 105.0" stroke="#FF0000" fill="none" stroke-width="4px" />
<path d="M 610.0 105.0 L 620.0 95.0" stroke="#FF0000" fill="none" stroke-width="4px" />
<path d="M 2620.0 125.0 L 2610.0 125.0" stroke="#FF0000" fill="none" stroke-width="4px" />
<path d="M 2610.0 125.0 L 2600.0 125.0" stroke="#FF0000" fill="none" stroke-width="4px" />
<path d="M 2600.0 125.0 L 2590.0 125.0" stroke="#FF0000" fill="none" stroke-width="4px" />
<path d="M 2590.0 125.0 L 2580.0 125.0" stroke="#FF0000" fill="none" stroke-width="4px" />
<path d="M 2580.0 125.0 L 2570.0 125.0" stroke="#FF0000" fill="none" stroke-width="4px" />
<path d="M 2570.0 125.0 L 2570.0 115.0" stroke="#FF0000" fill="none" stroke-width="4px" />
<path d="M 2570.0 115.0 L 2580.0 115.0" stroke="#FF0000" fill="none" stroke-width="4px" />
<path d="M 2580.0 115.0 L 2590.0 115.0" stroke="#FF0000" fill="none" stroke-width="4px" />
<path d="M 2590.0 115.0 L 2600.0 115.0" stroke="#FF0000" fill="none" stroke-width="4px" />
<path d="M 2600.0 115.0 L 2610.0 115.0" stroke="#FF0000" fill="none" stroke-width="4px" />
<path d="M 2610.0 115.0 L 2620.0 115.0" stroke="#FF0000" fill="none" stroke-width="4px" />
<path d="M 2620.0 115.0 L 2620.0 105.0" stroke="#FF0000" fill="none" stroke-width="4px" />
<path d="M 2620.0 105.0 L 2610.0 105.0" stroke="#FF0000" fill="none" stroke-width="4px" />
<path d="M 2610.0 105.0 L 2600.0 105.0" stroke="#FF0000" fill="none" stroke-width="4px" />
<path d="M 2600.0 105.0 L 2590.0 105.0" stroke="#FF0000" fill="none" stroke-width="4px" />
<path d="M 2590.0 105.0 L 2580.0 105.0" stroke="#FF0000" fill="none" stroke-width="4px" />
<path d="M 2580.0 105.0 L 2580.0 95.0" stroke="#FF0000" fill="none" stroke-width="4px" />
<path d="M 2580.0 95.0 L 2590.0 95.0" stroke="#FF0000" fill="none" stroke-width="4px" />
<path d="M 2590.0 95.0 L 2600.0 95.0" stroke="#FF0000" fill="none" stroke-width="4px" />
<path d="M 2600.0 95.0 L 2610.0 95.0" stroke="#FF0000" fill="none" stroke-width="4px" />
<path d="M 2610.0 95.0 L 2600.0 85.0" stroke="#FF0000" fill="none" stroke-width="4px" />
<path d="M 2600.0 85.0 L 2590.0 85.0" stroke="#FF0000" fill="none" stroke-width="4px" />
<path d="M 2590.0 135.0 L 2580.0 135.0" stroke="#FF0000" fill="none" stroke-width="4px" />
<path d="M 2580.0 135.0 L 2590.0 145.0" stroke="#FF0000" fill="none" stroke-width="4px" />
<path d="M 2590.0 145.0 L 2600.0 145.0" stroke="#FF0000" fill="none" stroke-width="4px" />
<path d="M 2600.0 145.0 L 2600.0 135.0" stroke="#FF0000" fill="none" stroke-width="4px" />
<path d="M 2600.0 135.0 L 2610.0 135.0" stroke="#FF0000" fill="none" stroke-width="4px" />
<path d="M 2390.0 175.0 L 2380.0 175.0" stroke="#FF0000" fill="none" stroke-width="4px" />
<path d="M 2380.0 175.0 L 2370.0 175.0" stroke="#FF0000" fill="none" stroke-width="4px" />
<path d="M 2370.0 175.0 L 2360.0 175.0" stroke="#FF0000" fill="none" stroke-width="4px" />
<path d="M 2360.0 175.0 L 2350.0 175.0" stroke="#FF0000" fill="none" stroke-width="4px" />
<path d="M 2350.0 175.0 L 2340.0 175.0" stroke="#FF0000" fill="none" stroke-width="4px" />
<path d="M 2340.0 175.0 L 2350.0 185.0" stroke="#FF0000" fill="none" stroke-width="4px" />
<path d="M 2350.0 185.0 L 2360.0 185.0" stroke="#FF0000" fill="none" stroke-width="4px" />
<path d="M 2360.0 185.0 L 2370.0 185.0" stroke="#FF0000" fill="none" stroke-width="4px" />
<path d="M 2370.0 185.0 L 2380.0 185.0" stroke="#FF0000" fill="none" stroke-width="4px" />
<path d="M 2380.0 185.0 L 2370.0 195.0" stroke="#FF0000" fill="none" stroke-width="4px" />
<path d="M 2370.0 195.0 L 2360.0 195.0" stroke="#FF0000" fill="none" stroke-width="4px" />
<path d="M 2360.0 165.0 L 2350.0 165.0" stroke="#FF0000" fill="none" stroke-width="4px" />
<path d="M 2350.0 165.0 L 2360.0 155.0" stroke="#FF0000" fill="none" stroke-width="4px" />
<path d="M 2360.0 155.0 L 2370.0 155.0" stroke="#FF0000" fill="none" stroke-width="4px" />
<path d="M 2370.0 155.0 L 2370.0 165.0" stroke="#FF0000" fill="none" stroke-width="4px" />
<path d="M 2370.0 165.0 L 2380.0 165.0" stroke="#FF0000" fill="none" stroke-width="4px" />
</svg>