<svg width="2523.06666667" height="235.0" xmlns="http://www.w3.org/2000/svg" version="1.1">
<path d="M 0.0 235.0 L 1945.0 235.0 L 1945.0 0.0 L 0.0 0.0 L 0.0 235.0" stroke="#000000" fill="none" stroke-width="3px" />
<path d="M 2523.06666667 235.0 L 1845.0 235.0 L 1845.0 0.0 L 2523.06666667 0.0 L 2523.06666667 235.0" stroke="#000000" fill="none" stroke-width="3px" />
<path d="M 10.0 257.5 L 0.0 247.5 L 10.0 237.5" stroke="#969696" fill="none" stroke-width="1px" />
<path d="M 10.0 237.5 L 1935.0 237.5" stroke="#969696" fill="none" stroke-width="1px" />
<path d="M 1935.0 237.5 L 1945.0 227.5 L 1935.0 217.5" stroke="#969696" fill="none" stroke-width="1px" />
<path d="M 1935.0 217.5 L 10.0 217.5" stroke="#969696" fill="none" stroke-width="1px" />
<path d="M 10.0 217.5 L 0.0 207.5 L 10.0 197.5" stroke="#969696" fill="none" stroke-width="1px" />
<path d="M 10.0 197.5 L 1935.0 197.5" stroke="#969696" fill="none" stroke-width="1px" />
<path d="M 1935.0 197.5 L 1945.0 187.5 L 1935.0 177.5" stroke="#969696" fill="none" stroke-width="1px" />
<path d="M 1935.0 177.5 L 10.0 177.5" stroke="#969696" fill="none" stroke-width="1px" />
<path d="M 10.0 177.5 L 0.0 167.5 L 10.0 157.5" stroke="#969696" fill="none" stroke-width="1px" />
<path d="M 10.0 157.5 L 1935.0 157.5" stroke="#969696" fill="none" stroke-width="1px" />
<path d="M 1935.0 157.5 L 1945.0 147.5 L 1935.0 137.5" stroke="#969696" fill="none" stroke-width="1px" />
<path d="M 1935.0 137.5 L 10.0 137.5" stroke="#969696" fill="none" stroke-width="1px" />
<path d="M 10.0 137.5 L 0.0 127.5 L 10.0 117.5" stroke="#969696" fill="none" stroke-width="1px" />
<path d="M 10.0 117.5 L 1935.0 117.5" stroke="#969696" fill="none" stroke-width="1px" />
<path d="M 1935.0 117.5 L 1945.0 107.5 L 1935.0 97.5" stroke="#969696" fill="none" stroke-width="1px" />
<path d="M 1935.0 97.5 L 10.0 97.5" stroke="#969696" fill="none" stroke-width="1px" />
<path d="M 10.0 97.5 L 0.0 87.5 L 10.0 77.5" stroke="#969696" fill="none" stroke-width="1px" />
<path d="M 10.0 77.5 L 1935.0 77.5" stroke="#969696" fill="none" stroke-width="1px" />
<path d="M 1935.0 77.5 L 1945.0 67.5 L 1935.0 57.5" stroke="#969696" fill="none" stroke-width="1px" />
<path d="M 1935.0 57.5 L 10.0 57.5" stroke="#969696" fill="none" stroke-width="1px" />
<path d="M 10.0 57.5 L 0.0 47.5 L 10.0 37.5" stroke="#969696" fill="none" stroke-width="1px" />
<path d="M 10.0 37.5 L 1935.0 37.5" stroke="#969696" fill="none" stroke-width="1px" />
<path d="M 1935.0 37.5 L 1945.0 27.5 L 1935.0 17.5" stroke="#969696" fill="none" stroke-width="1px" />
<path d="M 1935.0 17.5 L 10.0 17.5" stroke="#969696" fill="none" stroke-width="1px" />
<path d="M 10.0 17.5 L 0.0 7.5 L 10.0 -2.5" stroke="#969696" fill="none" stroke-width="1px" />
<path d="M 10.0 -2.5 L 1935.0 -2.5" stroke="#969696" fill="none" stroke-width="1px" />
<path d="M 1935.0 -2.5 L 1945.0 -12.5 L 1935.0 -22.5" stroke="#969696" fill="none" stroke-width="1px" />
<path d="M 2513.06666667 257.5 L 2523.06666667 247.5 L 2513.06666667 237.5" stroke="#969696" fill="none" stroke-width="1px" />
<path d="M 2513.06666667 237.5 L 1855.0 237.5" stroke="#969696" fill="none" stroke-width="1px" />
<path d="M 1855.0 237.5 L 1845.0 227.5 L 1855.0 217.5" stroke="#969696" fill="none" stroke-width="1px" />
<path d="M 1855.0 217.5 L 2513.06666667 217.5" stroke="#969696" fill="none" stroke-width="1px" />
<path d="M 2513.06666667 217.5 L 2523.06666667 207.5 L 2513.06666667 197.5" stroke="#969696" fill="none" stroke-width="1px" />
<path d="M 2513.06666667 197.5 L 1855.0 197.5" stroke="#969696" fill="none" stroke-width="1px" />
<path d="M 1855.0 197.5 L 1845.0 187.5 L 1855.0 177.5" stroke="#969696" fill="none" stroke-width="1px" />
<path d="M 1855.0 177.5 L 2513.06666667 177.5" stroke="#969696" fill="none" stroke-width="1px" />
<path d="M 2513.06666667 177.5 L 2523.06666667 167.5 L 2513.06666667 157.5" stroke="#969696" fill="none" stroke-width="1px" />
<path d="M 2513.06666667 157.5 L 1855.0 157.5" stroke="#969696" fill="none" stroke-width="1px" />
<path d="M 1855.0 157.5 L 1845.0 147.5 L 1855.0 137.5" stroke="#969696" fill="none" stroke-width="1px" />
<path d="M 1855.0 137.5 L 2513.06666667 137.5" stroke="#969696" fill="none" stroke-width="1px" />
<path d="M 2513.06666667 137.5 L 2523.06666667 127.5 L 2513.06666667 117.5" stroke="#969696" fill="none" stroke-width="1px" />
<path d="M 2513.06666667 117.5 L 1855.0 117.5" stroke="#969696" fill="none" stroke-width="1px" />
<path d="M 1855.0 117.5 L 1845.0 107.5 L 1855.0 97.5" stroke="#969696" fill="none" stroke-width="1px" />
<path d="M 1855.0 97.5 L 2513.06666667 97.5" stroke="#969696" fill="none" stroke-width="1px" />
<path d="M 2513.06666667 97.5 L 2523.06666667 87.5 L 2513.06666667 77.5" stroke="#969696" fill="none" stroke-width="1px" />
<path d="M 2513.06666667 77.5 L 1855.0 77.5" stroke="#969696" fill="none" stroke-width="1px" />
<path d="M 1855.0 77.5 L 1845.0 67.5 L 1855.0 57.5" stroke="#969696" fill="none" stroke-width="1px" />
<path d="M 1855.0 57.5 L 2513.06666667 57.5" stroke="#969696" fill="none" stroke-width="1px" />
<path d="M 2513.06666667 57.5 L 2523.06666667 47.5 L 2513.06666667 37.5" stroke="#969696" fill="none" stroke-width="1px" />
<path d="M 2513.06666667 37.5 L 1855.0 37.5" stroke="#969696" fill="none" stroke-width="1px" />
<path d="M 1855.0 37.5 L 1845.0 27.5 L 1855.0 17.5" stroke="#969696" fill="none" stroke-width="1px" />
<path d="M 1855.0 17.5 L 2513.06666667 17.5" stroke="#969696" fill="none" stroke-width="1px" />
<path d="M 2513.06666667 17.5 L 2523.06666667 7.5 L 2513.06666667 -2.5" stroke="#969696" fill="none" stroke-width="1px" />
<path d="M 2513.06666667 -2.5 L 1855.0 -2.5" stroke="#969696" fill="none" stroke-width="1px" />
<path d="M 1855.0 -2.5 L 1845.0 -12.5 L 1855.0 -22.5" stroke="#969696" fill="none" stroke-width="1px" />
<path d="M 0.0 235.0 L 370.0 235.0" stroke="#0095FF" fill="none" stroke-width="2px" />
<path d="M 370.0 235.0 L 370.0 185.0" stroke="#0095FF" fill="none" stroke-width="2px" />
<path d="M 420.0 175.0 L 410.0 175.0" stroke="#0095FF" fill="none" stroke-width="2px" />
<path d="M 410.0 175.0 L 410.0 155.0" stroke="#0095FF" fill="none" stroke-width="2px" />
<path d="M 400.0 145.0 L 400.0 195.0" stroke="#0095FF" fill="none" stroke-width="2px" />
<path d="M 390.0 205.0 L 480.0 205.0" stroke="#0095FF" fill="none" stroke-width="2px" />
<path d="M 480.0 205.0 L 480.0 65.0" stroke="#0095FF" fill="none" stroke-width="2px" />
<path d="M 510.0 55.0 L 510.0 35.0" stroke="#0095FF" fill="none" stroke-width="2px" />
<path d="M 510.0 35.0 L 540.0 35.0" stroke="#0095FF" fill="none" stroke-width="2px" />
<path d="M 560.0 55.0 L 560.0 25.0" stroke="#0095FF" fill="none" stroke-width="2px" />
<path d="M 550.0 25.0 L 490.0 25.0" stroke="#0095FF" fill="none" stroke-width="2px" />
<path d="M 490.0 25.0 L 490.0 15.0" stroke="#0095FF" fill="none" stroke-width="2px" />
<path d="M 450.0 -5.0 L 950.0 -5.0" stroke="#0095FF" fill="none" stroke-width="2px" />
<path d="M 950.0 -5.0 L 950.0 95.0" stroke="#0095FF" fill="none" stroke-width="2px" />
<path d="M 970.0 125.0 L 970.0 85.0" stroke="#0095FF" fill="none" stroke-width="2px" />
<path d="M 1010.0 85.0 L 1030.0 85.0" stroke="#0095FF" fill="none" stroke-width="2px" />
<path d="M 1030.0 85.0 L 1030.0 75.0" stroke="#0095FF" fill="none" stroke-width="2px" />
<path d="M 1060.0 65.0 L 1040.0 65.0" stroke="#0095FF" fill="none" stroke-width="2px" />
<path d="M 1040.0 65.0 L 1040.0 85.0" stroke="#0095FF" fill="none" stroke-width="2px" />
<path d="M 1040.0 85.0 L 1040.0 45.0" stroke="#0095FF" fill="none" stroke-width="2px" />
<path d="M 1040.0 45.0 L 980.0 45.0" stroke="#0095FF" fill="none" stroke-width="2px" />
<path d="M 980.0 45.0 L 980.0 65.0" stroke="#0095FF" fill="none" stroke-width="2px" />
<path d="M 980.0 65.0 L 1430.0 65.0" stroke="#0095FF" fill="none" stroke-width="2px" />
<path d="M 1430.0 65.0 L 1430.0 55.0" stroke="#0095FF" fill="none" stroke-width="2px" />
<path d="M 1580.0 135.0 L 1580.0 115.0" stroke="#0095FF" fill="none" stroke-width="2px" />
<path d="M 1530.0 115.0 L 1530.0 155.0" stroke="#0095FF" fill="none" stroke-width="2px" />
<path d="M 1500.0 165.0 L 1500.0 185.0" stroke="#0095FF" fill="none" stroke-width="2px" />
<path d="M 1570.0 215.0 L 1570.0 175.0" stroke="#0095FF" fill="none" stroke-width="2px" />
<path d="M 1590.0 175.0 L 1540.0 175.0" stroke="#0095FF" fill="none" stroke-width="2px" />
<path d="M 1540.0 175.0 L 1540.0 45.0" stroke="#0095FF" fill="none" stroke-width="2px" />
<path d="M 1520.0 35.0 L 1480.0 35.0" stroke="#0095FF" fill="none" stroke-width="2px" />
<path d="M 1480.0 45.0 L 1470.0 45.0" stroke="#0095FF" fill="none" stroke-width="2px" />
<path d="M 1470.0 45.0 L 1470.0 65.0" stroke="#0095FF" fill="none" stroke-width="2px" />
<path d="M 1440.0 65.0 L 1440.0 25.0" stroke="#0095FF" fill="none" stroke-width="2px" />
<path d="M 1470.0 25.0 L 1450.0 25.0" stroke="#0095FF" fill="none" stroke-width="2px" />
<path d="M 1450.0 25.0 L 1450.0 5.0" stroke="#0095FF" fill="none" stroke-width="2px" />
<path d="M 2523.06666667 235.0 L 2360.0 235.0" stroke="#0095FF" fill="none" stroke-width="2px" />
<path d="M 2360.0 235.0 L 2360.0 135.0" stroke="#0095FF" fill="none" stroke-width="2px" />
<path d="M 2380.0 105.0 L 2370.0 105.0" stroke="#0095FF" fill="none" stroke-width="2px" />
<path d="M 2370.0 105.0 L 2370.0 125.0" stroke="#0095FF" fill="none" stroke-width="2px" />
<path d="M 2350.0 125.0 L 2350.0 85.0" stroke="#0095FF" fill="none" stroke-width="2px" />
<path d="M 2360.0 85.0 L 2350.0 85.0" stroke="#0095FF" fill="none" stroke-width="2px" />
<path d="M 2350.0 85.0 L 2350.0 65.0" stroke="#0095FF" fill="none" stroke-width="2px" />
<path d="M 2320.0 65.0 L 2200.0 65.0" stroke="#0095FF" fill="none" stroke-width="2px" />
<path d="M 2200.0 65.0 L 2200.0 95.0" stroke="#0095FF" fill="none" stroke-width="2px" />
<path d="M 2180.0 145.0 L 2160.0 145.0" stroke="#0095FF" fill="none" stroke-width="2px" />
<path d="M 2160.0 145.0 L 2160.0 155.0" stroke="#0095FF" fill="none" stroke-width="2px" />
<path d="M 2160.0 155.0 L 2140.0 155.0" stroke="#0095FF" fill="none" stroke-width="2px" />
<path d="M 2140.0 155.0 L 2140.0 175.0" stroke="#0095FF" fill="none" stroke-width="2px" />
<path d="M 2120.0 175.0 L 2120.0 85.0" stroke="#0095FF" fill="none" stroke-width="2px" />
<path d="M 370.0 185.0 L 380.0 185.0" stroke="#FF0000" fill="none" stroke-width="4px" />
<path d="M 380.0 185.0 L 390.0 185.0" stroke="#FF0000" fill="none" stroke-width="4px" />
<path d="M 390.0 185.0 L 400.0 185.0" stroke="#FF0000" fill="none" stroke-width="4px" />
<path d="M 400.0 185.0 L 410.0 185.0" stroke="#FF0000" fill="none" stroke-width="4px" />
<path d="M 410.0 185.0 L 410.0 175.0" stroke="#FF0000" fill="none" stroke-width="4px" />
<path d="M 410.0 175.0 L 400.0 175.0" stroke="#FF0000" fill="none" stroke-width="4px" />
<path d="M 400.0 175.0 L 390.0 175.0" stroke="#FF0000" fill="none" stroke-width="4px" />
<path d="M 390.0 175.0 L 380.0 175.0" stroke="#FF0000" fill="none" stroke-width="4px" />
<path d="M 380.0 175.0 L 370.0 175.0" stroke="#FF0000" fill="none" stroke-width="4px" />
<path d="M 370.0 175.0 L 370.0 165.0" stroke="#FF0000" fill="none" stroke-width="4px" />
<path d="M 370.0 165.0 L 380.0 165.0" stroke="#FF0000" fill="none" stroke-width="4px" />
<path d="M 380.0 165.0 L 390.0 165.0" stroke="#FF0000" fill="none" stroke-width="4px" />
<path d="M 390.0 165.0 L 400.0 165.0" stroke="#FF0000" fill="none" stroke-width="4px" />
<path d="M 400.0 165.0 L 410.0 165.0" stroke="#FF0000" fill="none" stroke-width="4px" />
<path d="M 410.0 165.0 L 420.0 165.0" stroke="#FF0000" fill="none" stroke-width="4px" />
<path d="M 420.0 165.0 L 420.0 175.0" stroke="#FF0000" fill="none" stroke-width="4px" />
<path d="M 410.0 155.0 L 400.0 155.0" stroke="#FF0000" fill="none" stroke-width="4px" />
<path d="M 400.0 155.0 L 390.0 155.0" stroke="#FF0000" fill="none" stroke-width="4px" />
<path d="M 390.0 155.0 L 380.0 155.0" stroke="#FF0000" fill="none" stroke-width="4px" />
<path d="M 380.0 155.0 L 390.0 145.0" stroke="#FF0000" fill="none" stroke-width="4px" />
<path d="M 390.0 145.0 L 400.0 145.0" stroke="#FF0000" fill="none" stroke-width="4px" />
<path d="M 400.0 195.0 L 390.0 195.0" stroke="#FF0000" fill="none" stroke-width="4px" />
<path d="M 390.0 195.0 L 380.0 195.0" stroke="#FF0000" fill="none" stroke-width="4px" />
<path d="M 380.0 195.0 L 390.0 205.0" stroke="#FF0000" fill="none" stroke-width="4px" />
<path d="M 480.0 65.0 L 490.0 65.0" stroke="#FF0000" fill="none" stroke-width="4px" />
<path d="M 490.0 65.0 L 500.0 65.0" stroke="#FF0000" fill="none" stroke-width="4px" />
<path d="M 500.0 65.0 L 500.0 55.0" stroke="#FF0000" fill="none" stroke-width="4px" />
<path d="M 500.0 55.0 L 490.0 55.0" stroke="#FF0000" fill="none" stroke-width="4px" />
<path d="M 490.0 55.0 L 480.0 55.0" stroke="#FF0000" fill="none" stroke-width="4px" />
<path d="M 480.0 55.0 L 470.0 55.0" stroke="#FF0000" fill="none" stroke-width="4px" />
<path d="M 470.0 55.0 L 460.0 55.0" stroke="#FF0000" fill="none" stroke-width="4px" />
<path d="M 460.0 55.0 L 460.0 45.0" stroke="#FF0000" fill="none" stroke-width="4px" />
<path d="M 460.0 45.0 L 450.0 45.0" stroke="#FF0000" fill="none" stroke-width="4px" />
<path d="M 450.0 45.0 L 450.0 35.0" stroke="#FF0000" fill="none" stroke-width="4px" />
<path d="M 450.0 35.0 L 440.0 35.0" stroke="#FF0000" fill="none" stroke-width="4px" />
<path d="M 440.0 35.0 L 440.0 25.0" stroke="#FF0000" fill="none" stroke-width="4px" />
<path d="M 440.0 25.0 L 450.0 25.0" stroke="#FF0000" fill="none" stroke-width="4px" />
<path d="M 450.0 25.0 L 460.0 25.0" stroke="#FF0000" fill="none" stroke-width="4px" />
<path d="M 460.0 25.0 L 470.0 25.0" stroke="#FF0000" fill="none" stroke-width="4px" />
<path d="M 470.0 25.0 L 480.0 25.0" stroke="#FF0000" fill="none" stroke-width="4px" />
<path d="M 480.0 25.0 L 490.0 25.0" stroke="#FF0000" fill="none" stroke-width="4px" />
<path d="M 490.0 25.0 L 500.0 25.0" stroke="#FF0000" fill="none" stroke-width="4px" />
<path d="M 500.0 25.0 L 500.0 35.0" stroke="#FF0000" fill="none" stroke-width="4px" />
<path d="M 500.0 35.0 L 490.0 35.0" stroke="#FF0000" fill="none" stroke-width="4px" />
<path d="M 490.0 35.0 L 480.0 35.0" stroke="#FF0000" fill="none" stroke-width="4px" />
<path d="M 480.0 35.0 L 470.0 35.0" stroke="#FF0000" fill="none" stroke-width="4px" />
<path d="M 470.0 35.0 L 460.0 35.0" stroke="#FF0000" fill="none" stroke-width="4px" />
<path d="M 460.0 35.0 L 470.0 45.0" stroke="#FF0000" fill="none" stroke-width="4px" />
<path d="M 470.0 45.0 L 480.0 45.0" stroke="#FF0000" fill="none" stroke-width="4px" />
<path d="M 480.0 45.0 L 490.0 45.0" stroke="#FF0000" fill="none" stroke-width="4px" />
<path d="M 490.0 45.0 L 500.0 45.0" stroke="#FF0000" fill="none" stroke-width="4px" />
<path d="M 500.0 45.0 L 510.0 45.0" stroke="#FF0000" fill="none" stroke-width="4px" />
<path d="M 510.0 45.0 L 510.0 55.0" stroke="#FF0000" fill="none" stroke-width="4px" />
<path d="M 540.0 35.0 L 550.0 35.0" stroke="#FF0000" fill="none" stroke-width="4px" />
<path d="M 550.0 35.0 L 560.0 35.0" stroke="#FF0000" fill="none" stroke-width="4px" />
<path d="M 560.0 35.0 L 570.0 35.0" stroke="#FF0000" fill="none" stroke-width="4px" />
<path d="M 570.0 35.0 L 570.0 45.0" stroke="#FF0000" fill="none" stroke-width="4px" />
<path d="M 570.0 45.0 L 560.0 45.0" stroke="#FF0000" fill="none" stroke-width="4px" />
<path d="M 560.0 45.0 L 550.0 45.0" stroke="#FF0000" fill="none" stroke-width="4px" />
<path d="M 550.0 45.0 L 540.0 45.0" stroke="#FF0000" fill="none" stroke-width="4px" />
<path d="M 540.0 45.0 L 550.0 55.0" stroke="#FF0000" fill="none" stroke-width="4px" />
<path d="M 550.0 55.0 L 560.0 55.0" stroke="#FF0000" fill="none" stroke-width="4px" />
<path d="M 560.0 25.0 L 550.0 25.0" stroke="#FF0000" fill="none" stroke-width="4px" />
<path d="M 490.0 15.0 L 480.0 15.0" stroke="#FF0000" fill="none" stroke-width="4px" />
<path d="M 480.0 15.0 L 470.0 15.0" stroke="#FF0000" fill="none" stroke-width="4px" />
<path d="M 470.0 15.0 L 460.0 15.0" stroke="#FF0000" fill="none" stroke-width="4px" />
<path d="M 460.0 15.0 L 450.0 15.0" stroke="#FF0000" fill="none" stroke-width="4px" />
<path d="M 450.0 15.0 L 440.0 15.0" stroke="#FF0000" fill="none" stroke-width="4px" />
<path d="M 440.0 15.0 L 450.0 5.0" stroke="#FF0000" fill="none" stroke-width="4px" />
<path d="M 450.0 5.0 L 460.0 5.0" stroke="#FF0000" fill="none" stroke-width="4px" />
<path d="M 460.0 5.0 L 470.0 5.0" stroke="#FF0000" fill="none" stroke-width="4px" />
<path d="M 470.0 5.0 L 470.0 -5.0" stroke="#FF0000" fill="none" stroke-width="4px" />
<path d="M 470.0 -5.0 L 460.0 -5.0" stroke="#FF0000" fill="none" stroke-width="4px" />
<path d="M 460.0 -5.0 L 450.0 -5.0" stroke="#FF0000" fill="none" stroke-width="4px" />
<path d="M 950.0 95.0 L 960.0 95.0" stroke="#FF0000" fill="none" stroke-width="4px" />
<path d="M 960.0 95.0 L 970.0 95.0" stroke="#FF0000" fill="none" stroke-width="4px" />
<path d="M 970.0 95.0 L 980.0 95.0" stroke="#FF0000" fill="none" stroke-width="4px" />
<path d="M 980.0 95.0 L 990.0 95.0" stroke="#FF0000" fill="none" stroke-width="4px" />
<path d="M 990.0 95.0 L 1000.0 95.0" stroke="#FF0000" fill="none" stroke-width="4px" />
<path d="M 1000.0 95.0 L 1010.0 95.0" stroke="#FF0000" fill="none" stroke-width="4px" />
<path d="M 1010.0 95.0 L 1010.0 105.0" stroke="#FF0000" fill="none" stroke-width="4px" />
<path d="M 1010.0 105.0 L 1000.0 105.0" stroke="#FF0000" fill="none" stroke-width="4px" />
<path d="M 1000.0 105.0 L 990.0 105.0" stroke="#FF0000" fill="none" stroke-width="4px" />
<path d="M 990.0 105.0 L 980.0 105.0" stroke="#FF0000" fill="none" stroke-width="4px" />
<path d="M 980.0 105.0 L 970.0 105.0" stroke="#FF0000" fill="none" stroke-width="4px" />
<path d="M 970.0 105.0 L 960.0 105.0" stroke="#FF0000" fill="none" stroke-width="4px" />
<path d="M 960.0 105.0 L 950.0 105.0" stroke="#FF0000" fill="none" stroke-width="4px" />
<path d="M 950.0 105.0 L 960.0 115.0" stroke="#FF0000" fill="none" stroke-width="4px" />
<path d="M 960.0 115.0 L 970.0 115.0" stroke="#FF0000" fill="none" stroke-width="4px" />
<path d="M 970.0 115.0 L 980.0 115.0" stroke="#FF0000" fill="none" stroke-width="4px" />
<path d="M 980.0 115.0 L 990.0 115.0" stroke="#FF0000" fill="none" stroke-width="4px" />
<path d="M 990.0 115.0 L 1000.0 115.0" stroke="#FF0000" fill="none" stroke-width="4px" />
<path d="M 1000.0 115.0 L 990.0 125.0" stroke="#FF0000" fill="none" stroke-width="4px" />
<path d="M 990.0 125.0 L 980.0 125.0" stroke="#FF0000" fill="none" stroke-width="4px" />
<path d="M 980.0 125.0 L 970.0 125.0" stroke="#FF0000" fill="none" stroke-width="4px" />
<path d="M 970.0 85.0 L 960.0 85.0" stroke="#FF0000" fill="none" stroke-width="4px" />
<path d="M 960.0 85.0 L 970.0 75.0" stroke="#FF0000" fill="none" stroke-width="4px" />
<path d="M 970.0 75.0 L 980.0 75.0" stroke="#FF0000" fill="none" stroke-width="4px" />
<path d="M 980.0 75.0 L 990.0 75.0" stroke="#FF0000" fill="none" stroke-width="4px" />
<path d="M 990.0 75.0 L 990.0 85.0" stroke="#FF0000" fill="none" stroke-width="4px" />
<path d="M 990.0 85.0 L 980.0 85.0" stroke="#FF0000" fill="none" stroke-width="4px" />
<path d="M 980.0 85.0 L 1000.0 85.0" stroke="#FF0000" fill="none" stroke-width="4px" />
<path d="M 1000.0 85.0 L 1010.0 85.0" stroke="#FF0000" fill="none" stroke-width="4px" />
<path d="M 1030.0 75.0 L 1040.0 75.0" stroke="#FF0000" fill="none" stroke-width="4px" />
<path d="M 1040.0 75.0 L 1050.0 75.0" stroke="#FF0000" fill="none" stroke-width="4px" />
<path d="M 1050.0 75.0 L 1050.0 65.0" stroke="#FF0000" fill="none" stroke-width="4px" />
<path d="M 1050.0 65.0 L 1040.0 65.0" stroke="#FF0000" fill="none" stroke-width="4px" />
<path d="M 1040.0 65.0 L 1030.0 65.0" stroke="#FF0000" fill="none" stroke-width="4px" />
<path d="M 1030.0 65.0 L 1020.0 65.0" stroke="#FF0000" fill="none" stroke-width="4px" />
<path d="M 1020.0 65.0 L 1030.0 55.0" stroke="#FF0000" fill="none" stroke-width="4px" />
<path d="M 1030.0 55.0 L 1040.0 55.0" stroke="#FF0000" fill="none" stroke-width="4px" />
<path d="M 1040.0 55.0 L 1050.0 55.0" stroke="#FF0000" fill="none" stroke-width="4px" />
<path d="M 1050.0 55.0 L 1060.0 65.0" stroke="#FF0000" fill="none" stroke-width="4px" />
<path d="M 1430.0 55.0 L 1440.0 55.0" stroke="#FF0000" fill="none" stroke-width="4px" />
<path d="M 1440.0 55.0 L 1450.0 55.0" stroke="#FF0000" fill="none" stroke-width="4px" />
<path d="M 1450.0 55.0 L 1460.0 55.0" stroke="#FF0000" fill="none" stroke-width="4px" />
<path d="M 1460.0 55.0 L 1470.0 55.0" stroke="#FF0000" fill="none" stroke-width="4px" />
<path d="M 1470.0 55.0 L 1480.0 55.0" stroke="#FF0000" fill="none" stroke-width="4px" />
<path d="M 1480.0 55.0 L 1490.0 55.0" stroke="#FF0000" fill="none" stroke-width="4px" />
<path d="M 1490.0 55.0 L 1500.0 55.0" stroke="#FF0000" fill="none" stroke-width="4px" />
<path d="M 1500.0 55.0 L 1510.0 55.0" stroke="#FF0000" fill="none" stroke-width="4px" />
<path d="M 1510.0 55.0 L 1520.0 55.0" stroke="#FF0000" fill="none" stroke-width="4px" />
<path d="M 1520.0 55.0 L 1530.0 55.0" stroke="#FF0000" fill="none" stroke-width="4px" />
<path d="M 1530.0 55.0 L 1540.0 55.0" stroke="#FF0000" fill="none" stroke-width="4px" />
<path d="M 1540.0 55.0 L 1550.0 55.0" stroke="#FF0000" fill="none" stroke-width="4px" />
<path d="M 1550.0 55.0 L 1560.0 55.0" stroke="#FF0000" fill="none" stroke-width="4px" />
<path d="M 1560.0 55.0 L 1560.0 65.0" stroke="#FF0000" fill="none" stroke-width="4px" />
<path d="M 1560.0 65.0 L 1550.0 65.0" stroke="#FF0000" fill="none" stroke-width="4px" />
<path d="M 1550.0 65.0 L 1540.0 65.0" stroke="#FF0000" fill="none" stroke-width="4px" />
<path d="M 1540.0 65.0 L 1530.0 65.0" stroke="#FF0000" fill="none" stroke-width="4px" />
<path d="M 1530.0 65.0 L 1520.0 65.0" stroke="#FF0000" fill="none" stroke-width="4px" />
<path d="M 1520.0 65.0 L 1510.0 65.0" stroke="#FF0000" fill="none" stroke-width="4px" />
<path d="M 1510.0 65.0 L 1500.0 65.0" stroke="#FF0000" fill="none" stroke-width="4px" />
<path d="M 1500.0 65.0 L 1490.0 65.0" stroke="#FF0000" fill="none" stroke-width="4px" />
<path d="M 1490.0 65.0 L 1490.0 75.0" stroke="#FF0000" fill="none" stroke-width="4px" />
<path d="M 1490.0 75.0 L 1500.0 75.0" stroke="#FF0000" fill="none" stroke-width="4px" />
<path d="M 1500.0 75.0 L 1510.0 75.0" stroke="#FF0000" fill="none" stroke-width="4px" />
<path d="M 1510.0 75.0 L 1520.0 75.0" stroke="#FF0000" fill="none" stroke-width="4px" />
<path d="M 1520.0 75.0 L 1530.0 75.0" stroke="#FF0000" fill="none" stroke-width="4px" />
<path d="M 1530.0 75.0 L 1540.0 75.0" stroke="#FF0000" fill="none" stroke-width="4px" />
<path d="M 1540.0 75.0 L 1550.0 75.0" stroke="#FF0000" fill="none" stroke-width="4px" />
<path d="M 1550.0 75.0 L 1560.0 75.0" stroke="#FF0000" fill="none" stroke-width="4px" />
<path d="M 1560.0 75.0 L 1570.0 75.0" stroke="#FF0000" fill="none" stroke-width="4px" />
<path d="M 1570.0 75.0 L 1560.0 85.0" stroke="#FF0000" fill="none" stroke-width="4px" />
<path d="M 1560.0 85.0 L 1550.0 85.0" stroke="#FF0000" fill="none" stroke-width="4px" />
<path d="M 1550.0 85.0 L 1540.0 85.0" stroke="#FF0000" fill="none" stroke-width="4px" />
<path d="M 1540.0 85.0 L 1530.0 85.0" stroke="#FF0000" fill="none" stroke-width="4px" />
<path d="M 1530.0 85.0 L 1520.0 85.0" stroke="#FF0000" fill="none" stroke-width="4px" />
<path d="M 1520.0 85.0 L 1510.0 85.0" stroke="#FF0000" fill="none" stroke-width="4px" />
<path d="M 1510.0 85.0 L 1500.0 85.0" stroke="#FF0000" fill="none" stroke-width="4px" />
<path d="M 1500.0 85.0 L 1490.0 85.0" stroke="#FF0000" fill="none" stroke-width="4px" />
<path d="M 1490.0 85.0 L 1500.0 95.0" stroke="#FF0000" fill="none" stroke-width="4px" />
<path d="M 1500.0 95.0 L 1510.0 95.0" stroke="#FF0000" fill="none" stroke-width="4px" />
<path d="M 1510.0 95.0 L 1520.0 95.0" stroke="#FF0000" fill="none" stroke-width="4px" />
<path d="M 1520.0 95.0 L 1530.0 95.0" stroke="#FF0000" fill="none" stroke-width="4px" />
<path d="M 1530.0 95.0 L 1540.0 95.0" stroke="#FF0000" fill="none" stroke-width="4px" />
<path d="M 1540.0 95.0 L 1550.0 95.0" stroke="#FF0000" fill="none" stroke-width="4px" />
<path d="M 1550.0 95.0 L 1560.0 95.0" stroke="#FF0000" fill="none" stroke-width="4px" />
<path d="M 1560.0 95.0 L 1570.0 95.0" stroke="#FF0000" fill="none" stroke-width="4px" />
<path d="M 1570.0 95.0 L 1570.0 105.0" stroke="#FF0000" fill="none" stroke-width="4px" />
<path d="M 1570.0 105.0 L 1560.0 105.0" stroke="#FF0000" fill="none" stroke-width="4px" />
<path d="M 1560.0 105.0 L 1550.0 105.0" stroke="#FF0000" fill="none" stroke-width="4px" />
<path d="M 1550.0 105.0 L 1540.0 105.0" stroke="#FF0000" fill="none" stroke-width="4px" />
<path d="M 1540.0 105.0 L 1530.0 105.0" stroke="#FF0000" fill="none" stroke-width="4px" />
<path d="M 1530.0 105.0 L 1520.0 105.0" stroke="#FF0000" fill="none" stroke-width="4px" />
<path d="M 1520.0 105.0 L 1520.0 115.0" stroke="#FF0000" fill="none" stroke-width="4px" />
<path d="M 1520.0 115.0 L 1510.0 115.0" stroke="#FF0000" fill="none" stroke-width="4px" />
<path d="M 1510.0 115.0 L 1510.0 125.0" stroke="#FF0000" fill="none" stroke-width="4px" />
<path d="M 1510.0 125.0 L 1500.0 125.0" stroke="#FF0000" fill="none" stroke-width="4px" />
<path d="M 1500.0 125.0 L 1500.0 135.0" stroke="#FF0000" fill="none" stroke-width="4px" />
<path d="M 1500.0 135.0 L 1490.0 135.0" stroke="#FF0000" fill="none" stroke-width="4px" />
<path d="M 1490.0 135.0 L 1490.0 145.0" stroke="#FF0000" fill="none" stroke-width="4px" />
<path d="M 1490.0 145.0 L 1500.0 145.0" stroke="#FF0000" fill="none" stroke-width="4px" />
<path d="M 1500.0 145.0 L 1510.0 145.0" stroke="#FF0000" fill="none" stroke-width="4px" />
<path d="M 1510.0 145.0 L 1520.0 145.0" stroke="#FF0000" fill="none" stroke-width="4px" />
<path d="M 1520.0 145.0 L 1530.0 145.0" stroke="#FF0000" fill="none" stroke-width="4px" />
<path d="M 1530.0 145.0 L 1540.0 145.0" stroke="#FF0000" fill="none" stroke-width="4px" />
<path d="M 1540.0 145.0 L 1550.0 145.0" stroke="#FF0000" fill="none" stroke-width="4px" />
<path d="M 1550.0 145.0 L 1560.0 145.0" stroke="#FF0000" fill="none" stroke-width="4px" />
<path d="M 1560.0 145.0 L 1570.0 145.0" stroke="#FF0000" fill="none" stroke-width="4px" />
<path d="M 1570.0 145.0 L 1570.0 135.0" stroke="#FF0000" fill="none" stroke-width="4px" />
<path d="M 1570.0 135.0 L 1560.0 135.0" stroke="#FF0000" fill="none" stroke-width="4px" />
<path d="M 1560.0 135.0 L 1550.0 135.0" stroke="#FF0000" fill="none" stroke-width="4px" />
<path d="M 1550.0 135.0 L 1540.0 135.0" stroke="#FF0000" fill="none" stroke-width="4px" />
<path d="M 1540.0 135.0 L 1530.0 135.0" stroke="#FF0000" fill="none" stroke-width="4px" />
<path d="M 1530.0 135.0 L 1520.0 135.0" stroke="#FF0000" fill="none" stroke-width="4px" />
<path d="M 1520.0 135.0 L 1510.0 135.0" stroke="#FF0000" fill="none" stroke-width="4px" />
<path d="M 1510.0 135.0 L 1520.0 125.0" stroke="#FF0000" fill="none" stroke-width="4px" />
<path d="M 1520.0 125.0 L 1530.0 125.0" stroke="#FF0000" fill="none" stroke-width="4px" />
<path d="M 1530.0 125.0 L 1540.0 125.0" stroke="#FF0000" fill="none" stroke-width="4px" />
<path d="M 1540.0 125.0 L 1550.0 125.0" stroke="#FF0000" fill="none" stroke-width="4px" />
<path d="M 1550.0 125.0 L 1560.0 125.0" stroke="#FF0000" fill="none" stroke-width="4px" />
<path d="M 1560.0 125.0 L 1570.0 125.0" stroke="#FF0000" fill="none" stroke-width="4px" />
<path d="M 1570.0 125.0 L 1580.0 125.0" stroke="#FF0000" fill="none" stroke-width="4px" />
<path d="M 1580.0 125.0 L 1580.0 135.0" stroke="#FF0000" fill="none" stroke-width="4px" />
<path d="M 1580.0 115.0 L 1570.0 115.0" stroke="#FF0000" fill="none" stroke-width="4px" />
<path d="M 1570.0 115.0 L 1560.0 115.0" stroke="#FF0000" fill="none" stroke-width="4px" />
<path d="M 1560.0 115.0 L 1550.0 115.0" stroke="#FF0000" fill="none" stroke-width="4px" />
<path d="M 1550.0 115.0 L 1540.0 115.0" stroke="#FF0000" fill="none" stroke-width="4px" />
<path d="M 1540.0 115.0 L 1530.0 115.0" stroke="#FF0000" fill="none" stroke-width="4px" />
<path d="M 1530.0 155.0 L 1520.0 155.0" stroke="#FF0000" fill="none" stroke-width="4px" />
<path d="M 1520.0 155.0 L 1510.0 155.0" stroke="#FF0000" fill="none" stroke-width="4px" />
<path d="M 1510.0 155.0 L 1500.0 155.0" stroke="#FF0000" fill="none" stroke-width="4px" />
<path d="M 1500.0 155.0 L 1490.0 155.0" stroke="#FF0000" fill="none" stroke-width="4px" />
<path d="M 1490.0 155.0 L 1490.0 165.0" stroke="#FF0000" fill="none" stroke-width="4px" />
<path d="M 1490.0 165.0 L 1480.0 165.0" stroke="#FF0000" fill="none" stroke-width="4px" />
<path d="M 1480.0 165.0 L 1490.0 175.0" stroke="#FF0000" fill="none" stroke-width="4px" />
<path d="M 1490.0 175.0 L 1500.0 175.0" stroke="#FF0000" fill="none" stroke-width="4px" />
<path d="M 1500.0 175.0 L 1510.0 175.0" stroke="#FF0000" fill="none" stroke-width="4px" />
<path d="M 1510.0 175.0 L 1520.0 175.0" stroke="#FF0000" fill="none" stroke-width="4px" />
<path d="M 1520.0 175.0 L 1530.0 175.0" stroke="#FF0000" fill="none" stroke-width="4px" />
<path d="M 1530.0 175.0 L 1530.0 165.0" stroke="#FF0000" fill="none" stroke-width="4px" />
<path d="M 1530.0 165.0 L 1520.0 165.0" stroke="#FF0000" fill="none" stroke-width="4px" />
<path d="M 1520.0 165.0 L 1510.0 165.0" stroke="#FF0000" fill="none" stroke-width="4px" />
<path d="M 1510.0 165.0 L 1500.0 165.0" stroke="#FF0000" fill="none" stroke-width="4px" />
<path d="M 1500.0 185.0 L 1490.0 185.0" stroke="#FF0000" fill="none" stroke-width="4px" />
<path d="M 1490.0 185.0 L 1500.0 195.0" stroke="#FF0000" fill="none" stroke-width="4px" />
<path d="M 1500.0 195.0 L 1510.0 195.0" stroke="#FF0000" fill="none" stroke-width="4px" />
<path d="M 1510.0 195.0 L 1510.0 185.0" stroke="#FF0000" fill="none" stroke-width="4px" />
<path d="M 1510.0 185.0 L 1520.0 185.0" stroke="#FF0000" fill="none" stroke-width="4px" />
<path d="M 1520.0 185.0 L 1540.0 185.0" stroke="#FF0000" fill="none" stroke-width="4px" />
<path d="M 1540.0 185.0 L 1550.0 185.0" stroke="#FF0000" fill="none" stroke-width="4px" />
<path d="M 1550.0 185.0 L 1560.0 185.0" stroke="#FF0000" fill="none" stroke-width="4px" />
<path d="M 1560.0 185.0 L 1570.0 185.0" stroke="#FF0000" fill="none" stroke-width="4px" />
<path d="M 1570.0 185.0 L 1580.0 185.0" stroke="#FF0000" fill="none" stroke-width="4px" />
<path d="M 1580.0 185.0 L 1590.0 185.0" stroke="#FF0000" fill="none" stroke-width="4px" />
<path d="M 1590.0 185.0 L 1590.0 195.0" stroke="#FF0000" fill="none" stroke-width="4px" />
<path d="M 1590.0 195.0 L 1580.0 195.0" stroke="#FF0000" fill="none" stroke-width="4px" />
<path d="M 1580.0 195.0 L 1570.0 195.0" stroke="#FF0000" fill="none" stroke-width="4px" />
<path d="M 1570.0 195.0 L 1560.0 195.0" stroke="#FF0000" fill="none" stroke-width="4px" />
<path d="M 1560.0 195.0 L 1550.0 195.0" stroke="#FF0000" fill="none" stroke-width="4px" />
<path d="M 1550.0 195.0 L 1560.0 205.0" stroke="#FF0000" fill="none" stroke-width="4px" />
<path d="M 1560.0 205.0 L 1570.0 205.0" stroke="#FF0000" fill="none" stroke-width="4px" />
<path d="M 1570.0 205.0 L 1580.0 205.0" stroke="#FF0000" fill="none" stroke-width="4px" />
<path d="M 1580.0 205.0 L 1590.0 205.0" stroke="#FF0000" fill="none" stroke-width="4px" />
<path d="M 1590.0 205.0 L 1580.0 215.0" stroke="#FF0000" fill="none" stroke-width="4px" />
<path d="M 1580.0 215.0 L 1570.0 215.0" stroke="#FF0000" fill="none" stroke-width="4px" />
<path d="M 1570.0 175.0 L 1560.0 175.0" stroke="#FF0000" fill="none" stroke-width="4px" />
<path d="M 1560.0 175.0 L 1550.0 175.0" stroke="#FF0000" fill="none" stroke-width="4px" />
<path d="M 1550.0 175.0 L 1550.0 165.0" stroke="#FF0000" fill="none" stroke-width="4px" />
<path d="M 1550.0 165.0 L 1540.0 165.0" stroke="#FF0000" fill="none" stroke-width="4px" />
<path d="M 1540.0 165.0 L 1540.0 155.0" stroke="#FF0000" fill="none" stroke-width="4px" />
<path d="M 1540.0 155.0 L 1550.0 155.0" stroke="#FF0000" fill="none" stroke-width="4px" />
<path d="M 1550.0 155.0 L 1560.0 155.0" stroke="#FF0000" fill="none" stroke-width="4px" />
<path d="M 1560.0 155.0 L 1560.0 165.0" stroke="#FF0000" fill="none" stroke-width="4px" />
<path d="M 1560.0 165.0 L 1570.0 165.0" stroke="#FF0000" fill="none" stroke-width="4px" />
<path d="M 1570.0 165.0 L 1580.0 165.0" stroke="#FF0000" fill="none" stroke-width="4px" />
<path d="M 1580.0 165.0 L 1580.0 175.0" stroke="#FF0000" fill="none" stroke-width="4px" />
<path d="M 1580.0 175.0 L 1590.0 175.0" stroke="#FF0000" fill="none" stroke-width="4px" />
<path d="M 1540.0 45.0 L 1530.0 45.0" stroke="#FF0000" fill="none" stroke-width="4px" />
<path d="M 1530.0 45.0 L 1520.0 45.0" stroke="#FF0000" fill="none" stroke-width="4px" />
<path d="M 1520.0 45.0 L 1510.0 45.0" stroke="#FF0000" fill="none" stroke-width="4px" />
<path d="M 1510.0 45.0 L 1500.0 45.0" stroke="#FF0000" fill="none" stroke-width="4px" />
<path d="M 1500.0 45.0 L 1510.0 35.0" stroke="#FF0000" fill="none" stroke-width="4px" />
<path d="M 1510.0 35.0 L 1520.0 35.0" stroke="#FF0000" fill="none" stroke-width="4px" />
<path d="M 1480.0 35.0 L 1470.0 35.0" stroke="#FF0000" fill="none" stroke-width="4px" />
<path d="M 1470.0 35.0 L 1460.0 35.0" stroke="#FF0000" fill="none" stroke-width="4px" />
<path d="M 1460.0 35.0 L 1450.0 35.0" stroke="#FF0000" fill="none" stroke-width="4px" />
<path d="M 1450.0 35.0 L 1440.0 35.0" stroke="#FF0000" fill="none" stroke-width="4px" />
<path d="M 1440.0 35.0 L 1430.0 35.0" stroke="#FF0000" fill="none" stroke-width="4px" />
<path d="M 1430.0 35.0 L 1430.0 45.0" stroke="#FF0000" fill="none" stroke-width="4px" />
<path d="M 1430.0 45.0 L 1440.0 45.0" stroke="#FF0000" fill="none" stroke-width="4px" />
<path d="M 1440.0 45.0 L 1450.0 45.0" stroke="#FF0000" fill="none" stroke-width="4px" />
<path d="M 1450.0 45.0 L 1460.0 45.0" stroke="#FF0000" fill="none" stroke-width="4px" />
<path d="M 1460.0 45.0 L 1470.0 45.0" stroke="#FF0000" fill="none" stroke-width="4px" />
<path d="M 1470.0 45.0 L 1480.0 45.0" stroke="#FF0000" fill="none" stroke-width="4px" />
<path d="M 1470.0 65.0 L 1460.0 65.0" stroke="#FF0000" fill="none" stroke-width="4px" />
<path d="M 1460.0 65.0 L 1450.0 65.0" stroke="#FF0000" fill="none" stroke-width="4px" />
<path d="M 1450.0 65.0 L 1440.0 65.0" stroke="#FF0000" fill="none" stroke-width="4px" />
<path d="M 1440.0 25.0 L 1430.0 25.0" stroke="#FF0000" fill="none" stroke-width="4px" />
<path d="M 1430.0 25.0 L 1440.0 15.0" stroke="#FF0000" fill="none" stroke-width="4px" />
<path d="M 1440.0 15.0 L 1450.0 15.0" stroke="#FF0000" fill="none" stroke-width="4px" />
<path d="M 1450.0 15.0 L 1460.0 15.0" stroke="#FF0000" fill="none" stroke-width="4px" />
<path d="M 1460.0 15.0 L 1460.0 25.0" stroke="#FF0000" fill="none" stroke-width="4px" />
<path d="M 1460.0 25.0 L 1450.0 25.0" stroke="#FF0000" fill="none" stroke-width="4px" />
<path d="M 1450.0 25.0 L 1470.0 25.0" stroke="#FF0000" fill="none" stroke-width="4px" />
<path d="M 2360.0 135.0 L 2350.0 135.0" stroke="#FF0000" fill="none" stroke-width="4px" />
<path d="M 2350.0 135.0 L 2340.0 135.0" stroke="#FF0000" fill="none" stroke-width="4px" />
<path d="M 2340.0 135.0 L 2340.0 125.0" stroke="#FF0000" fill="none" stroke-width="4px" />
<path d="M 2340.0 125.0 L 2330.0 125.0" stroke="#FF0000" fill="none" stroke-width="4px" />
<path d="M 2330.0 125.0 L 2330.0 115.0" stroke="#FF0000" fill="none" stroke-width="4px" />
<path d="M 2330.0 115.0 L 2320.0 115.0" stroke="#FF0000" fill="none" stroke-width="4px" />
<path d="M 2320.0 115.0 L 2320.0 105.0" stroke="#FF0000" fill="none" stroke-width="4px" />
<path d="M 2320.0 105.0 L 2310.0 105.0" stroke="#FF0000" fill="none" stroke-width="4px" />
<path d="M 2310.0 105.0 L 2310.0 95.0" stroke="#FF0000" fill="none" stroke-width="4px" />
<path d="M 2310.0 95.0 L 2320.0 95.0" stroke="#FF0000" fill="none" stroke-width="4px" />
<path d="M 2320.0 95.0 L 2330.0 95.0" stroke="#FF0000" fill="none" stroke-width="4px" />
<path d="M 2330.0 95.0 L 2340.0 95.0" stroke="#FF0000" fill="none" stroke-width="4px" />
<path d="M 2340.0 95.0 L 2350.0 95.0" stroke="#FF0000" fill="none" stroke-width="4px" />
<path d="M 2350.0 95.0 L 2360.0 95.0" stroke="#FF0000" fill="none" stroke-width="4px" />
<path d="M 2360.0 95.0 L 2370.0 95.0" stroke="#FF0000" fill="none" stroke-width="4px" />
<path d="M 2370.0 95.0 L 2370.0 105.0" stroke="#FF0000" fill="none" stroke-width="4px" />
<path d="M 2370.0 105.0 L 2360.0 105.0" stroke="#FF0000" fill="none" stroke-width="4px" />
<path d="M 2360.0 105.0 L 2350.0 105.0" stroke="#FF0000" fill="none" stroke-width="4px" />
<path d="M 2350.0 105.0 L 2340.0 105.0" stroke="#FF0000" fill="none" stroke-width="4px" />
<path d="M 2340.0 105.0 L 2330.0 105.0" stroke="#FF0000" fill="none" stroke-width="4px" />
<path d="M 2330.0 105.0 L 2340.0 115.0" stroke="#FF0000" fill="none" stroke-width="4px" />
<path d="M 2340.0 115.0 L 2350.0 115.0" stroke="#FF0000" fill="none" stroke-width="4px" />
<path d="M 2350.0 115.0 L 2360.0 115.0" stroke="#FF0000" fill="none" stroke-width="4px" />
<path d="M 2360.0 115.0 L 2370.0 115.0" stroke="#FF0000" fill="none" stroke-width="4px" />
<path d="M 2370.0 115.0 L 2380.0 115.0" stroke="#FF0000" fill="none" stroke-width="4px" />
<path d="M 2380.0 115.0 L 2380.0 105.0" stroke="#FF0000" fill="none" stroke-width="4px" />
<path d="M 2370.0 125.0 L 2360.0 125.0" stroke="#FF0000" fill="none" stroke-width="4px" />
<path d="M 2360.0 125.0 L 2350.0 125.0" stroke="#FF0000" fill="none" stroke-width="4px" />
<path d="M 2350.0 85.0 L 2340.0 85.0" stroke="#FF0000" fill="none" stroke-width="4px" />
<path d="M 2340.0 85.0 L 2330.0 85.0" stroke="#FF0000" fill="none" stroke-width="4px" />
<path d="M 2330.0 85.0 L 2320.0 85.0" stroke="#FF0000" fill="none" stroke-width="4px" />
<path d="M 2320.0 85.0 L 2310.0 85.0" stroke="#FF0000" fill="none" stroke-width="4px" />
<path d="M 2310.0 85.0 L 2310.0 75.0" stroke="#FF0000" fill="none" stroke-width="4px" />
<path d="M 2310.0 75.0 L 2320.0 75.0" stroke="#FF0000" fill="none" stroke-width="4px" />
<path d="M 2320.0 75.0 L 2330.0 75.0" stroke="#FF0000" fill="none" stroke-width="4px" />
<path d="M 2330.0 75.0 L 2340.0 75.0" stroke="#FF0000" fill="none" stroke-width="4px" />
<path d="M 2340.0 75.0 L 2350.0 75.0" stroke="#FF0000" fill="none" stroke-width="4px" />
<path d="M 2350.0 75.0 L 2360.0 75.0" stroke="#FF0000" fill="none" stroke-width="4px" />
<path d="M 2360.0 75.0 L 2360.0 85.0" stroke="#FF0000" fill="none" stroke-width="4px" />
<path d="M 2350.0 65.0 L 2340.0 65.0" stroke="#FF0000" fill="none" stroke-width="4px" />
<path d="M 2340.0 65.0 L 2330.0 65.0" stroke="#FF0000" fill="none" stroke-width="4px" />
<path d="M 2330.0 65.0 L 2320.0 65.0" stroke="#FF0000" fill="none" stroke-width="4px" />
<path d="M 2200.0 95.0 L 2190.0 95.0" stroke="#FF0000" fill="none" stroke-width="4px" />
<path d="M 2190.0 95.0 L 2180.0 95.0" stroke="#FF0000" fill="none" stroke-width="4px" />
<path d="M 2180.0 95.0 L 2170.0 95.0" stroke="#FF0000" fill="none" stroke-width="4px" />
<path d="M 2170.0 95.0 L 2160.0 95.0" stroke="#FF0000" fill="none" stroke-width="4px" />
<path d="M 2160.0 95.0 L 2150.0 95.0" stroke="#FF0000" fill="none" stroke-width="4px" />
<path d="M 2150.0 95.0 L 2140.0 95.0" stroke="#FF0000" fill="none" stroke-width="4px" />
<path d="M 2140.0 95.0 L 2130.0 95.0" stroke="#FF0000" fill="none" stroke-width="4px" />
<path d="M 2130.0 95.0 L 2130.0 105.0" stroke="#FF0000" fill="none" stroke-width="4px" />
<path d="M 2130.0 105.0 L 2140.0 105.0" stroke="#FF0000" fill="none" stroke-width="4px" />
<path d="M 2140.0 105.0 L 2150.0 105.0" stroke="#FF0000" fill="none" stroke-width="4px" />
<path d="M 2150.0 105.0 L 2160.0 105.0" stroke="#FF0000" fill="none" stroke-width="4px" />
<path d="M 2160.0 105.0 L 2170.0 105.0" stroke="#FF0000" fill="none" stroke-width="4px" />
<path d="M 2170.0 105.0 L 2180.0 105.0" stroke="#FF0000" fill="none" stroke-width="4px" />
<path d="M 2180.0 105.0 L 2190.0 105.0" stroke="#FF0000" fill="none" stroke-width="4px" />
<path d="M 2190.0 105.0 L 2200.0 105.0" stroke="#FF0000" fill="none" stroke-width="4px" />
<path d="M 2200.0 105.0 L 2200.0 115.0" stroke="#FF0000" fill="none" stroke-width="4px" />
<path d="M 2200.0 115.0 L 2190.0 115.0" stroke="#FF0000" fill="none" stroke-width="4px" />
<path d="M 2190.0 115.0 L 2180.0 115.0" stroke="#FF0000" fill="none" stroke-width="4px" />
<path d="M 2180.0 115.0 L 2170.0 115.0" stroke="#FF0000" fill="none" stroke-width="4px" />
<path d="M 2170.0 115.0 L 2160.0 115.0" stroke="#FF0000" fill="none" stroke-width="4px" />
<path d="M 2160.0 115.0 L 2150.0 115.0" stroke="#FF0000" fill="none" stroke-width="4px" />
<path d="M 2150.0 115.0 L 2140.0 115.0" stroke="#FF0000" fill="none" stroke-width="4px" />
<path d="M 2140.0 115.0 L 2130.0 115.0" stroke="#FF0000" fill="none" stroke-width="4px" />
<path d="M 2130.0 115.0 L 2130.0 125.0" stroke="#FF0000" fill="none" stroke-width="4px" />
<path d="M 2130.0 125.0 L 2140.0 125.0" stroke="#FF0000" fill="none" stroke-width="4px" />
<path d="M 2140.0 125.0 L 2150.0 125.0" stroke="#FF0000" fill="none" stroke-width="4px" />
<path d="M 2150.0 125.0 L 2160.0 125.0" stroke="#FF0000" fill="none" stroke-width="4px" />
<path d="M 2160.0 125.0 L 2170.0 125.0" stroke="#FF0000" fill="none" stroke-width="4px" />
<path d="M 2170.0 125.0 L 2180.0 125.0" stroke="#FF0000" fill="none" stroke-width="4px" />
<path d="M 2180.0 125.0 L 2190.0 125.0" stroke="#FF0000" fill="none" stroke-width="4px" />
<path d="M 2190.0 125.0 L 2190.0 135.0" stroke="#FF0000" fill="none" stroke-width="4px" />
<path d="M 2190.0 135.0 L 2180.0 135.0" stroke="#FF0000" fill="none" stroke-width="4px" />
<path d="M 2180.0 135.0 L 2170.0 135.0" stroke="#FF0000" fill="none" stroke-width="4px" />
<path d="M 2170.0 135.0 L 2160.0 135.0" stroke="#FF0000" fill="none" stroke-width="4px" />
<path d="M 2160.0 135.0 L 2150.0 135.0" stroke="#FF0000" fill="none" stroke-width="4px" />
<path d="M 2150.0 135.0 L 2140.0 135.0" stroke="#FF0000" fill="none" stroke-width="4px" />
<path d="M 2140.0 135.0 L 2130.0 135.0" stroke="#FF0000" fill="none" stroke-width="4px" />
<path d="M 2130.0 135.0 L 2120.0 135.0" stroke="#FF0000" fill="none" stroke-width="4px" />
<path d="M 2120.0 135.0 L 2120.0 145.0" stroke="#FF0000" fill="none" stroke-width="4px" />
<path d="M 2120.0 145.0 L 2110.0 145.0" stroke="#FF0000" fill="none" stroke-width="4px" />
<path d="M 2110.0 145.0 L 2110.0 155.0" stroke="#FF0000" fill="none" stroke-width="4px" />
<path d="M 2110.0 155.0 L 2100.0 155.0" stroke="#FF0000" fill="none" stroke-width="4px" />
<path d="M 2100.0 155.0 L 2110.0 165.0" stroke="#FF0000" fill="none" stroke-width="4px" />
<path d="M 2110.0 165.0 L 2120.0 165.0" stroke="#FF0000" fill="none" stroke-width="4px" />
<path d="M 2120.0 165.0 L 2130.0 165.0" stroke="#FF0000" fill="none" stroke-width="4px" />
<path d="M 2130.0 165.0 L 2140.0 165.0" stroke="#FF0000" fill="none" stroke-width="4px" />
<path d="M 2140.0 165.0 L 2150.0 165.0" stroke="#FF0000" fill="none" stroke-width="4px" />
<path d="M 2150.0 165.0 L 2150.0 155.0" stroke="#FF0000" fill="none" stroke-width="4px" />
<path d="M 2150.0 155.0 L 2140.0 155.0" stroke="#FF0000" fill="none" stroke-width="4px" />
<path d="M 2140.0 155.0 L 2130.0 155.0" stroke="#FF0000" fill="none" stroke-width="4px" />
<path d="M 2130.0 155.0 L 2120.0 155.0" stroke="#FF0000" fill="none" stroke-width="4px" />
<path d="M 2120.0 155.0 L 2130.0 145.0" stroke="#FF0000" fill="none" stroke-width="4px" />
<path d="M 2130.0 145.0 L 2140.0 145.0" stroke="#FF0000" fill="none" stroke-width="4px" />
<path d="M 2140.0 145.0 L 2150.0 145.0" stroke="#FF0000" fill="none" stroke-width="4px" />
<path d="M 2150.0 145.0 L 2160.0 145.0" stroke="#FF0000" fill="none" stroke-width="4px" />
<path d="M 2160.0 145.0 L 2170.0 145.0" stroke="#FF0000" fill="none" stroke-width="4px" />
<path d="M 2170.0 145.0 L 2180.0 145.0" stroke="#FF0000" fill="none" stroke-width="4px" />
<path d="M 2140.0 175.0 L 2130.0 175.0" stroke="#FF0000" fill="none" stroke-width="4px" />
<path d="M 2130.0 175.0 L 2120.0 175.0" stroke="#FF0000" fill="none" stroke-width="4px" />
<path d="M 2120.0 85.0 L 2130.0 85.0" stroke="#FF0000" fill="none" stroke-width="4px" />
<path d="M 2130.0 85.0 L 2140.0 85.0" stroke="#FF0000" fill="none" stroke-width="4px" />
<path d="M 2140.0 85.0 L 2150.0 85.0" stroke="#FF0000" fill="none" stroke-width="4px" />
<path d="M 2150.0 85.0 L 2160.0 85.0" stroke="#FF0000" fill="none" stroke-width="4px" />
<path d="M 2160.0 85.0 L 2170.0 85.0" stroke="#FF0000" fill="none" stroke-width="4px" />
<path d="M 2170.0 85.0 L 2180.0 85.0" stroke="#FF0000" fill="none" stroke-width="4px" />
<path d="M 2180.0 85.0 L 2190.0 85.0" stroke="#FF0000" fill="none" stroke-width="4px" />
<path d="M 2190.0 85.0 L 2180.0 75.0" stroke="#FF0000" fill="none" stroke-width="4px" />
<path d="M 2180.0 75.0 L 2170.0 75.0" stroke="#FF0000" fill="none" stroke-width="4px" />
<path d="M 2170.0 75.0 L 2160.0 75.0" stroke="#FF0000" fill="none" stroke-width="4px" />
<path d="M 2160.0 75.0 L 2150.0 75.0" stroke="#FF0000" fill="none" stroke-width="4px" />
<path d="M 2150.0 75.0 L 2140.0 75.0" stroke="#FF0000" fill="none" stroke-width="4px" />
<path d="M 2140.0 75.0 L 2130.0 75.0" stroke="#FF0000" fill="none" stroke-width="4px" />
<path d="M 2130.0 75.0 L 2140.0 65.0" stroke="#FF0000" fill="none" stroke-width="4px" />
<path d="M 2140.0 65.0 L 2150.0 65.0" stroke="#FF0000" fill="none" stroke-width="4px" />
<path d="M 2150.0 65.0 L 2160.0 65.0" stroke="#FF0000" fill="none" stroke-width="4px" />
<path d="M 2160.0 65.0 L 2170.0 65.0" stroke="#FF0000" fill="none" stroke-width="4px" />
</svg>