<svg width="2894.54166667" height="235.0" xmlns="http://www.w3.org/2000/svg" version="1.1">
<path d="M 0.0 235.0 L 1730.0 235.0 L 1730.0 0.0 L 0.0 0.0 L 0.0 235.0" stroke="#000000" fill="none" stroke-width="3px" />
<path d="M 2894.54166667 235.0 L 1630.0 235.0 L 1630.0 0.0 L 2894.54166667 0.0 L 2894.54166667 235.0" stroke="#000000" fill="none" stroke-width="3px" />
<path d="M 10.0 257.5 L 0.0 247.5 L 10.0 237.5" stroke="#969696" fill="none" stroke-width="1px" />
<path d="M 10.0 237.5 L 1720.0 237.5" stroke="#969696" fill="none" stroke-width="1px" />
<path d="M 1720.0 237.5 L 1730.0 227.5 L 1720.0 217.5" stroke="#969696" fill="none" stroke-width="1px" />
<path d="M 1720.0 217.5 L 10.0 217.5" stroke="#969696" fill="none" stroke-width="1px" />
<path d="M 10.0 217.5 L 0.0 207.5 L 10.0 197.5" stroke="#969696" fill="none" stroke-width="1px" />
<path d="M 10.0 197.5 L 1720.0 197.5" stroke="#969696" fill="none" stroke-width="1px" />
<path d="M 1720.0 197.5 L 1730.0 187.5 L 1720.0 177.5" stroke="#969696" fill="none" stroke-width="1px" />
<path d="M 1720.0 177.5 L 10.0 177.5" stroke="#969696" fill="none" stroke-width="1px" />
<path d="M 10.0 177.5 L 0.0 167.5 L 10.0 157.5" stroke="#969696" fill="none" stroke-width="1px" />
<path d="M 10.0 157.5 L 1720.0 157.5" stroke="#969696" fill="none" stroke-width="1px" />
<path d="M 1720.0 157.5 L 1730.0 147.5 L 1720.0 137.5" stroke="#969696" fill="none" stroke-width="1px" />
<path d="M 1720.0 137.5 L 10.0 137.5" stroke="#969696" fill="none" stroke-width="1px" />
<path d="M 10.0 137.5 L 0.0 127.5 L 10.0 117.5" stroke="#969696" fill="none" stroke-width="1px" />
<path d="M 10.0 117.5 L 1720.0 117.5" stroke="#969696" fill="none" stroke-width="1px" />
<path d="M 1720.0 117.5 L 1730.0 107.5 L 1720.0 97.5" stroke="#969696" fill="none" stroke-width="1px" />
<path d="M 1720.0 97.5 L 10.0 97.5" stroke="#969696" fill="none" stroke-width="1px" />
<path d="M 10.0 97.5 L 0.0 87.5 L 10.0 77.5" stroke="#969696" fill="none" stroke-width="1px" />
<path d="M 10.0 77.5 L 1720.0 77.5" stroke="#969696" fill="none" stroke-width="1px" />
<path d="M 1720.0 77.5 L 1730.0 67.5 L 1720.0 57.5" stroke="#969696" fill="none" stroke-width="1px" />
<path d="M 1720.0 57.5 L 10.0 57.5" stroke="#969696" fill="none" stroke-width="1px" />
<path d="M 10.0 57.5 L 0.0 47.5 L 10.0 37.5" stroke="#969696" fill="none" stroke-width="1px" />
<path d="M 10.0 37.5 L 1720.0 37.5" stroke="#969696" fill="none" stroke-width="1px" />
<path d="M 1720.0 37.5 L 1730.0 27.5 L 1720.0 17.5" stroke="#969696" fill="none" stroke-width="1px" />
<path d="M 1720.0 17.5 L 10.0 17.5" stroke="#969696" fill="none" stroke-width="1px" />
<path d="M 10.0 17.5 L 0.0 7.5 L 10.0 -2.5" stroke="#969696" fill="none" stroke-width="1px" />
<path d="M 10.0 -2.5 L 1720.0 -2.5" stroke="#969696" fill="none" stroke-width="1px" />
<path d="M 1720.0 -2.5 L 1730.0 -12.5 L 1720.0 -22.5" stroke="#969696" fill="none" stroke-width="1px" />
<path d="M 2884.54166667 257.5 L 2894.54166667 247.5 L 2884.54166667 237.5" stroke="#969696" fill="none" stroke-width="1px" />
<path d="M 2884.54166667 237.5 L 1640.0 237.5" stroke="#969696" fill="none" stroke-width="1px" />
<path d="M 1640.0 237.5 L 1630.0 227.5 L 1640.0 217.5" stroke="#969696" fill="none" stroke-width="1px" />
<path d="M 1640.0 217.5 L 2884.54166667 217.5" stroke="#969696" fill="none" stroke-width="1px" />
<path d="M 2884.54166667 217.5 L 2894.54166667 207.5 L 2884.54166667 197.5" stroke="#969696" fill="none" stroke-width="1px" />
<path d="M 2884.54166667 197.5 L 1640.0 197.5" stroke="#969696" fill="none" stroke-width="1px" />
<path d="M 1640.0 197.5 L 1630.0 187.5 L 1640.0 177.5" stroke="#969696" fill="none" stroke-width="1px" />
<path d="M 1640.0 177.5 L 2884.54166667 177.5" stroke="#969696" fill="none" stroke-width="1px" />
<path d="M 2884.54166667 177.5 L 2894.54166667 167.5 L 2884.54166667 157.5" stroke="#969696" fill="none" stroke-width="1px" />
<path d="M 2884.54166667 157.5 L 1640.0 157.5" stroke="#969696" fill="none" stroke-width="1px" />
<path d="M 1640.0 157.5 L 1630.0 147.5 L 1640.0 137.5" stroke="#969696" fill="none" stroke-width="1px" />
<path d="M 1640.0 137.5 L 2884.54166667 137.5" stroke="#969696" fill="none" stroke-width="1px" />
<path d="M 2884.54166667 137.5 L 2894.54166667 127.5 L 2884.54166667 117.5" stroke="#969696" fill="none" stroke-width="1px" />
<path d="M 2884.54166667 117.5 L 1640.0 117.5" stroke="#969696" fill="none" stroke-width="1px" />
<path d="M 1640.0 117.5 L 1630.0 107.5 L 1640.0 97.5" stroke="#969696" fill="none" stroke-width="1px" />
<path d="M 1640.0 97.5 L 2884.54166667 97.5" stroke="#969696" fill="none" stroke-width="1px" />
<path d="M 2884.54166667 97.5 L 2894.54166667 87.5 L 2884.54166667 77.5" stroke="#969696" fill="none" stroke-width="1px" />
<path d="M 2884.54166667 77.5 L 1640.0 77.5" stroke="#969696" fill="none" stroke-width="1px" />
<path d="M 1640.0 77.5 L 1630.0 67.5 L 1640.0 57.5" stroke="#969696" fill="none" stroke-width="1px" />
<path d="M 1640.0 57.5 L 2884.54166667 57.5" stroke="#969696" fill="none" stroke-width="1px" />
<path d="M 2884.54166667 57.5 L 2894.54166667 47.5 L 2884.54166667 37.5" stroke="#969696" fill="none" stroke-width="1px" />
<path d="M 2884.54166667 37.5 L 1640.0 37.5" stroke="#969696" fill="none" stroke-width="1px" />
<path d="M 1640.0 37.5 L 1630.0 27.5 L 1640.0 17.5" stroke="#969696" fill="none" stroke-width="1px" />
<path d="M 1640.0 17.5 L 2884.54166667 17.5" stroke="#969696" fill="none" stroke-width="1px" />
<path d="M 2884.54166667 17.5 L 2894.54166667 7.5 L 2884.54166667 -2.5" stroke="#969696" fill="none" stroke-width="1px" />
<path d="M 2884.54166667 -2.5 L 1640.0 -2.5" stroke="#969696" fill="none" stroke-width="1px" />
<path d="M 1640.0 -2.5 L 1630.0 -12.5 L 1640.0 -22.5" stroke="#969696" fill="none" stroke-width="1px" />
<path d="M 0.0 235.0 L 10.0 65.0" stroke="#0095FF" fill="none" stroke-width="2px" />
<path d="M 10.0 35.0 L 490.0 175.0" stroke="#0095FF" fill="none" stroke-width="2px" />
<path d="M 530.0 195.0 L 530.0 165.0" stroke="#0095FF" fill="none" stroke-width="2px" />
<path d="M 540.0 165.0 L 1090.0 145.0" stroke="#0095FF" fill="none" stroke-width="2px" />
<path d="M 1140.0 205.0 L 1160.0 155.0" stroke="#0095FF" fill="none" stroke-width="2px" />
<path d="M 1160.0 155.0 L 1140.0 135.0" stroke="#0095FF" fill="none" stroke-width="2px" />
<path d="M 2894.54166667 235.0 L 2870.0 205.0" stroke="#0095FF" fill="none" stroke-width="2px" />
<path d="M 2890.0 175.0 L 2880.0 195.0" stroke="#0095FF" fill="none" stroke-width="2px" />
<path d="M 2870.0 195.0 L 2870.0 155.0" stroke="#0095FF" fill="none" stroke-width="2px" />
<path d="M 2860.0 85.0 L 2880.0 155.0" stroke="#0095FF" fill="none" stroke-width="2px" />
<path d="M 2880.0 155.0 L 2700.0 135.0" stroke="#0095FF" fill="none" stroke-width="2px" />
<path d="M 2680.0 155.0 L 2680.0 125.0" stroke="#0095FF" fill="none" stroke-width="2px" />
<path d="M 2690.0 125.0 L 2400.0 135.0" stroke="#0095FF" fill="none" stroke-width="2px" />
<path d="M 2380.0 165.0 L 2380.0 125.0" stroke="#0095FF" fill="none" stroke-width="2px" />
<path d="M 2390.0 125.0 L 2170.0 75.0" stroke="#0095FF" fill="none" stroke-width="2px" />
<path d="M 2170.0 35.0 L 2170.0 15.0" stroke="#0095FF" fill="none" stroke-width="2px" />
<path d="M 2150.0 -5.0 L 2150.0 85.0" stroke="#0095FF" fill="none" stroke-width="2px" />
<path d="M 2110.0 85.0 L 2160.0 85.0" stroke="#0095FF" fill="none" stroke-width="2px" />
<path d="M 10.0 65.0 L 10.0 55.0" stroke="#FF0000" fill="none" stroke-width="4px" />
<path d="M 10.0 55.0 L 20.0 55.0" stroke="#FF0000" fill="none" stroke-width="4px" />
<path d="M 20.0 55.0 L 20.0 45.0" stroke="#FF0000" fill="none" stroke-width="4px" />
<path d="M 20.0 45.0 L 10.0 45.0" stroke="#FF0000" fill="none" stroke-width="4px" />
<path d="M 10.0 45.0 L 10.0 35.0" stroke="#FF0000" fill="none" stroke-width="4px" />
<path d="M 490.0 175.0 L 500.0 175.0" stroke="#FF0000" fill="none" stroke-width="4px" />
<path d="M 500.0 175.0 L 510.0 175.0" stroke="#FF0000" fill="none" stroke-width="4px" />
<path d="M 510.0 175.0 L 520.0 175.0" stroke="#FF0000" fill="none" stroke-width="4px" />
<path d="M 520.0 175.0 L 530.0 175.0" stroke="#FF0000" fill="none" stroke-width="4px" />
<path d="M 530.0 175.0 L 540.0 175.0" stroke="#FF0000" fill="none" stroke-width="4px" />
<path d="M 540.0 175.0 L 540.0 185.0" stroke="#FF0000" fill="none" stroke-width="4px" />
<path d="M 540.0 185.0 L 530.0 185.0" stroke="#FF0000" fill="none" stroke-width="4px" />
<path d="M 530.0 185.0 L 520.0 185.0" stroke="#FF0000" fill="none" stroke-width="4px" />
<path d="M 520.0 185.0 L 510.0 185.0" stroke="#FF0000" fill="none" stroke-width="4px" />
<path d="M 510.0 185.0 L 500.0 185.0" stroke="#FF0000" fill="none" stroke-width="4px" />
<path d="M 500.0 185.0 L 510.0 195.0" stroke="#FF0000" fill="none" stroke-width="4px" />
<path d="M 510.0 195.0 L 520.0 195.0" stroke="#FF0000" fill="none" stroke-width="4px" />
<path d="M 520.0 195.0 L 530.0 195.0" stroke="#FF0000" fill="none" stroke-width="4px" />
<path d="M 530.0 165.0 L 520.0 165.0" stroke="#FF0000" fill="none" stroke-width="4px" />
<path d="M 520.0 165.0 L 510.0 165.0" stroke="#FF0000" fill="none" stroke-width="4px" />
<path d="M 510.0 165.0 L 500.0 165.0" stroke="#FF0000" fill="none" stroke-width="4px" />
<path d="M 500.0 165.0 L 510.0 155.0" stroke="#FF0000" fill="none" stroke-width="4px" />
<path d="M 510.0 155.0 L 520.0 155.0" stroke="#FF0000" fill="none" stroke-width="4px" />
<path d="M 520.0 155.0 L 530.0 155.0" stroke="#FF0000" fill="none" stroke-width="4px" />
<path d="M 530.0 155.0 L 540.0 165.0" stroke="#FF0000" fill="none" stroke-width="4px" />
<path d="M 1090.0 145.0 L 1100.0 145.0" stroke="#FF0000" fill="none" stroke-width="4px" />
<path d="M 1100.0 145.0 L 1110.0 145.0" stroke="#FF0000" fill="none" stroke-width="4px" />
<path d="M 1110.0 145.0 L 1120.0 145.0" stroke="#FF0000" fill="none" stroke-width="4px" />
<path d="M 1120.0 145.0 L 1130.0 145.0" stroke="#FF0000" fill="none" stroke-width="4px" />
<path d="M 1130.0 145.0 L 1140.0 145.0" stroke="#FF0000" fill="none" stroke-width="4px" />
<path d="M 1140.0 145.0 L 1150.0 145.0" stroke="#FF0000" fill="none" stroke-width="4px" />
<path d="M 1150.0 145.0 L 1150.0 155.0" stroke="#FF0000" fill="none" stroke-width="4px" />
<path d="M 1150.0 155.0 L 1140.0 155.0" stroke="#FF0000" fill="none" stroke-width="4px" />
<path d="M 1140.0 155.0 L 1130.0 155.0" stroke="#FF0000" fill="none" stroke-width="4px" />
<path d="M 1130.0 155.0 L 1120.0 155.0" stroke="#FF0000" fill="none" stroke-width="4px" />
<path d="M 1120.0 155.0 L 1110.0 155.0" stroke="#FF0000" fill="none" stroke-width="4px" />
<path d="M 1110.0 155.0 L 1100.0 155.0" stroke="#FF0000" fill="none" stroke-width="4px" />
<path d="M 1100.0 155.0 L 1100.0 165.0" stroke="#FF0000" fill="none" stroke-width="4px" />
<path d="M 1100.0 165.0 L 1110.0 165.0" stroke="#FF0000" fill="none" stroke-width="4px" />
<path d="M 1110.0 165.0 L 1120.0 165.0" stroke="#FF0000" fill="none" stroke-width="4px" />
<path d="M 1120.0 165.0 L 1130.0 165.0" stroke="#FF0000" fill="none" stroke-width="4px" />
<path d="M 1130.0 165.0 L 1140.0 165.0" stroke="#FF0000" fill="none" stroke-width="4px" />
<path d="M 1140.0 165.0 L 1150.0 165.0" stroke="#FF0000" fill="none" stroke-width="4px" />
<path d="M 1150.0 165.0 L 1160.0 165.0" stroke="#FF0000" fill="none" stroke-width="4px" />
<path d="M 1160.0 165.0 L 1160.0 175.0" stroke="#FF0000" fill="none" stroke-width="4px" />
<path d="M 1160.0 175.0 L 1150.0 175.0" stroke="#FF0000" fill="none" stroke-width="4px" />
<path d="M 1150.0 175.0 L 1140.0 175.0" stroke="#FF0000" fill="none" stroke-width="4px" />
<path d="M 1140.0 175.0 L 1130.0 175.0" stroke="#FF0000" fill="none" stroke-width="4px" />
<path d="M 1130.0 175.0 L 1120.0 175.0" stroke="#FF0000" fill="none" stroke-width="4px" />
<path d="M 1120.0 175.0 L 1110.0 175.0" stroke="#FF0000" fill="none" stroke-width="4px" />
<path d="M 1110.0 175.0 L 1100.0 175.0" stroke="#FF0000" fill="none" stroke-width="4px" />
<path d="M 1100.0 175.0 L 1100.0 185.0" stroke="#FF0000" fill="none" stroke-width="4px" />
<path d="M 1100.0 185.0 L 1110.0 185.0" stroke="#FF0000" fill="none" stroke-width="4px" />
<path d="M 1110.0 185.0 L 1120.0 185.0" stroke="#FF0000" fill="none" stroke-width="4px" />
<path d="M 1120.0 185.0 L 1130.0 185.0" stroke="#FF0000" fill="none" stroke-width="4px" />
<path d="M 1130.0 185.0 L 1140.0 185.0" stroke="#FF0000" fill="none" stroke-width="4px" />
<path d="M 1140.0 185.0 L 1150.0 185.0" stroke="#FF0000" fill="none" stroke-width="4px" />
<path d="M 1150.0 185.0 L 1150.0 195.0" stroke="#FF0000" fill="none" stroke-width="4px" />
<path d="M 1150.0 195.0 L 1140.0 195.0" stroke="#FF0000" fill="none" stroke-width="4px" />
<path d="M 1140.0 195.0 L 1130.0 195.0" stroke="#FF0000" fill="none" stroke-width="4px" />
<path d="M 1130.0 195.0 L 1120.0 195.0" stroke="#FF0000" fill="none" stroke-width="4px" />
<path d="M 1120.0 195.0 L 1110.0 195.0" stroke="#FF0000" fill="none" stroke-width="4px" />
<path d="M 1110.0 195.0 L 1120.0 205.0" stroke="#FF0000" fill="none" stroke-width="4px" />
<path d="M 1120.0 205.0 L 1130.0 205.0" stroke="#FF0000" fill="none" stroke-width="4px" />
<path d="M 1130.0 205.0 L 1140.0 205.0" stroke="#FF0000" fill="none" stroke-width="4px" />
<path d="M 1140.0 135.0 L 1130.0 135.0" stroke="#FF0000" fill="none" stroke-width="4px" />
<path d="M 1130.0 135.0 L 1120.0 135.0" stroke="#FF0000" fill="none" stroke-width="4px" />
<path d="M 1120.0 135.0 L 1110.0 135.0" stroke="#FF0000" fill="none" stroke-width="4px" />
<path d="M 1110.0 135.0 L 1100.0 135.0" stroke="#FF0000" fill="none" stroke-width="4px" />
<path d="M 1100.0 135.0 L 1110.0 125.0" stroke="#FF0000" fill="none" stroke-width="4px" />
<path d="M 1110.0 125.0 L 1120.0 125.0" stroke="#FF0000" fill="none" stroke-width="4px" />
<path d="M 1120.0 125.0 L 1130.0 125.0" stroke="#FF0000" fill="none" stroke-width="4px" />
<path d="M 2870.0 205.0 L 2860.0 205.0" stroke="#FF0000" fill="none" stroke-width="4px" />
<path d="M 2860.0 205.0 L 2860.0 195.0" stroke="#FF0000" fill="none" stroke-width="4px" />
<path d="M 2860.0 195.0 L 2850.0 195.0" stroke="#FF0000" fill="none" stroke-width="4px" />
<path d="M 2850.0 195.0 L 2850.0 185.0" stroke="#FF0000" fill="none" stroke-width="4px" />
<path d="M 2850.0 185.0 L 2840.0 185.0" stroke="#FF0000" fill="none" stroke-width="4px" />
<path d="M 2840.0 185.0 L 2840.0 175.0" stroke="#FF0000" fill="none" stroke-width="4px" />
<path d="M 2840.0 175.0 L 2830.0 175.0" stroke="#FF0000" fill="none" stroke-width="4px" />
<path d="M 2830.0 175.0 L 2830.0 165.0" stroke="#FF0000" fill="none" stroke-width="4px" />
<path d="M 2830.0 165.0 L 2840.0 165.0" stroke="#FF0000" fill="none" stroke-width="4px" />
<path d="M 2840.0 165.0 L 2850.0 165.0" stroke="#FF0000" fill="none" stroke-width="4px" />
<path d="M 2850.0 165.0 L 2860.0 165.0" stroke="#FF0000" fill="none" stroke-width="4px" />
<path d="M 2860.0 165.0 L 2870.0 165.0" stroke="#FF0000" fill="none" stroke-width="4px" />
<path d="M 2870.0 165.0 L 2880.0 165.0" stroke="#FF0000" fill="none" stroke-width="4px" />
<path d="M 2880.0 165.0 L 2880.0 175.0" stroke="#FF0000" fill="none" stroke-width="4px" />
<path d="M 2880.0 175.0 L 2870.0 175.0" stroke="#FF0000" fill="none" stroke-width="4px" />
<path d="M 2870.0 175.0 L 2860.0 175.0" stroke="#FF0000" fill="none" stroke-width="4px" />
<path d="M 2860.0 175.0 L 2850.0 175.0" stroke="#FF0000" fill="none" stroke-width="4px" />
<path d="M 2850.0 175.0 L 2860.0 185.0" stroke="#FF0000" fill="none" stroke-width="4px" />
<path d="M 2860.0 185.0 L 2870.0 185.0" stroke="#FF0000" fill="none" stroke-width="4px" />
<path d="M 2870.0 185.0 L 2880.0 185.0" stroke="#FF0000" fill="none" stroke-width="4px" />
<path d="M 2880.0 185.0 L 2890.0 185.0" stroke="#FF0000" fill="none" stroke-width="4px" />
<path d="M 2890.0 185.0 L 2890.0 175.0" stroke="#FF0000" fill="none" stroke-width="4px" />
<path d="M 2880.0 195.0 L 2870.0 195.0" stroke="#FF0000" fill="none" stroke-width="4px" />
<path d="M 2870.0 155.0 L 2860.0 155.0" stroke="#FF0000" fill="none" stroke-width="4px" />
<path d="M 2860.0 155.0 L 2850.0 155.0" stroke="#FF0000" fill="none" stroke-width="4px" />
<path d="M 2850.0 155.0 L 2840.0 155.0" stroke="#FF0000" fill="none" stroke-width="4px" />
<path d="M 2840.0 155.0 L 2830.0 155.0" stroke="#FF0000" fill="none" stroke-width="4px" />
<path d="M 2830.0 155.0 L 2820.0 155.0" stroke="#FF0000" fill="none" stroke-width="4px" />
<path d="M 2820.0 155.0 L 2820.0 145.0" stroke="#FF0000" fill="none" stroke-width="4px" />
<path d="M 2820.0 145.0 L 2830.0 145.0" stroke="#FF0000" fill="none" stroke-width="4px" />
<path d="M 2830.0 145.0 L 2840.0 145.0" stroke="#FF0000" fill="none" stroke-width="4px" />
<path d="M 2840.0 145.0 L 2850.0 145.0" stroke="#FF0000" fill="none" stroke-width="4px" />
<path d="M 2850.0 145.0 L 2860.0 145.0" stroke="#FF0000" fill="none" stroke-width="4px" />
<path d="M 2860.0 145.0 L 2870.0 145.0" stroke="#FF0000" fill="none" stroke-width="4px" />
<path d="M 2870.0 145.0 L 2870.0 135.0" stroke="#FF0000" fill="none" stroke-width="4px" />
<path d="M 2870.0 135.0 L 2860.0 135.0" stroke="#FF0000" fill="none" stroke-width="4px" />
<path d="M 2860.0 135.0 L 2850.0 135.0" stroke="#FF0000" fill="none" stroke-width="4px" />
<path d="M 2850.0 135.0 L 2840.0 135.0" stroke="#FF0000" fill="none" stroke-width="4px" />
<path d="M 2840.0 135.0 L 2830.0 135.0" stroke="#FF0000" fill="none" stroke-width="4px" />
<path d="M 2830.0 135.0 L 2820.0 135.0" stroke="#FF0000" fill="none" stroke-width="4px" />
<path d="M 2820.0 135.0 L 2830.0 125.0" stroke="#FF0000" fill="none" stroke-width="4px" />
<path d="M 2830.0 125.0 L 2840.0 125.0" stroke="#FF0000" fill="none" stroke-width="4px" />
<path d="M 2840.0 125.0 L 2850.0 125.0" stroke="#FF0000" fill="none" stroke-width="4px" />
<path d="M 2850.0 125.0 L 2860.0 125.0" stroke="#FF0000" fill="none" stroke-width="4px" />
<path d="M 2860.0 125.0 L 2870.0 125.0" stroke="#FF0000" fill="none" stroke-width="4px" />
<path d="M 2870.0 125.0 L 2870.0 115.0" stroke="#FF0000" fill="none" stroke-width="4px" />
<path d="M 2870.0 115.0 L 2860.0 115.0" stroke="#FF0000" fill="none" stroke-width="4px" />
<path d="M 2860.0 115.0 L 2850.0 115.0" stroke="#FF0000" fill="none" stroke-width="4px" />
<path d="M 2850.0 115.0 L 2840.0 115.0" stroke="#FF0000" fill="none" stroke-width="4px" />
<path d="M 2840.0 115.0 L 2830.0 115.0" stroke="#FF0000" fill="none" stroke-width="4px" />
<path d="M 2830.0 115.0 L 2820.0 115.0" stroke="#FF0000" fill="none" stroke-width="4px" />
<path d="M 2820.0 115.0 L 2820.0 105.0" stroke="#FF0000" fill="none" stroke-width="4px" />
<path d="M 2820.0 105.0 L 2830.0 105.0" stroke="#FF0000" fill="none" stroke-width="4px" />
<path d="M 2830.0 105.0 L 2840.0 105.0" stroke="#FF0000" fill="none" stroke-width="4px" />
<path d="M 2840.0 105.0 L 2850.0 105.0" stroke="#FF0000" fill="none" stroke-width="4px" />
<path d="M 2850.0 105.0 L 2860.0 105.0" stroke="#FF0000" fill="none" stroke-width="4px" />
<path d="M 2860.0 105.0 L 2870.0 105.0" stroke="#FF0000" fill="none" stroke-width="4px" />
<path d="M 2870.0 105.0 L 2880.0 105.0" stroke="#FF0000" fill="none" stroke-width="4px" />
<path d="M 2880.0 105.0 L 2870.0 95.0" stroke="#FF0000" fill="none" stroke-width="4px" />
<path d="M 2870.0 95.0 L 2860.0 95.0" stroke="#FF0000" fill="none" stroke-width="4px" />
<path d="M 2860.0 95.0 L 2850.0 95.0" stroke="#FF0000" fill="none" stroke-width="4px" />
<path d="M 2850.0 95.0 L 2840.0 95.0" stroke="#FF0000" fill="none" stroke-width="4px" />
<path d="M 2840.0 95.0 L 2830.0 95.0" stroke="#FF0000" fill="none" stroke-width="4px" />
<path d="M 2830.0 95.0 L 2840.0 85.0" stroke="#FF0000" fill="none" stroke-width="4px" />
<path d="M 2840.0 85.0 L 2850.0 85.0" stroke="#FF0000" fill="none" stroke-width="4px" />
<path d="M 2850.0 85.0 L 2860.0 85.0" stroke="#FF0000" fill="none" stroke-width="4px" />
<path d="M 2700.0 135.0 L 2690.0 135.0" stroke="#FF0000" fill="none" stroke-width="4px" />
<path d="M 2690.0 135.0 L 2680.0 135.0" stroke="#FF0000" fill="none" stroke-width="4px" />
<path d="M 2680.0 135.0 L 2670.0 135.0" stroke="#FF0000" fill="none" stroke-width="4px" />
<path d="M 2670.0 135.0 L 2660.0 135.0" stroke="#FF0000" fill="none" stroke-width="4px" />
<path d="M 2660.0 135.0 L 2670.0 145.0" stroke="#FF0000" fill="none" stroke-width="4px" />
<path d="M 2670.0 145.0 L 2680.0 145.0" stroke="#FF0000" fill="none" stroke-width="4px" />
<path d="M 2680.0 145.0 L 2690.0 145.0" stroke="#FF0000" fill="none" stroke-width="4px" />
<path d="M 2690.0 145.0 L 2680.0 155.0" stroke="#FF0000" fill="none" stroke-width="4px" />
<path d="M 2680.0 125.0 L 2670.0 125.0" stroke="#FF0000" fill="none" stroke-width="4px" />
<path d="M 2670.0 125.0 L 2680.0 115.0" stroke="#FF0000" fill="none" stroke-width="4px" />
<path d="M 2680.0 115.0 L 2690.0 125.0" stroke="#FF0000" fill="none" stroke-width="4px" />
<path d="M 2400.0 135.0 L 2390.0 135.0" stroke="#FF0000" fill="none" stroke-width="4px" />
<path d="M 2390.0 135.0 L 2380.0 135.0" stroke="#FF0000" fill="none" stroke-width="4px" />
<path d="M 2380.0 135.0 L 2370.0 135.0" stroke="#FF0000" fill="none" stroke-width="4px" />
<path d="M 2370.0 135.0 L 2360.0 135.0" stroke="#FF0000" fill="none" stroke-width="4px" />
<path d="M 2360.0 135.0 L 2350.0 135.0" stroke="#FF0000" fill="none" stroke-width="4px" />
<path d="M 2350.0 135.0 L 2340.0 135.0" stroke="#FF0000" fill="none" stroke-width="4px" />
<path d="M 2340.0 135.0 L 2330.0 135.0" stroke="#FF0000" fill="none" stroke-width="4px" />
<path d="M 2330.0 135.0 L 2340.0 145.0" stroke="#FF0000" fill="none" stroke-width="4px" />
<path d="M 2340.0 145.0 L 2350.0 145.0" stroke="#FF0000" fill="none" stroke-width="4px" />
<path d="M 2350.0 145.0 L 2360.0 145.0" stroke="#FF0000" fill="none" stroke-width="4px" />
<path d="M 2360.0 145.0 L 2370.0 145.0" stroke="#FF0000" fill="none" stroke-width="4px" />
<path d="M 2370.0 145.0 L 2380.0 145.0" stroke="#FF0000" fill="none" stroke-width="4px" />
<path d="M 2380.0 145.0 L 2390.0 145.0" stroke="#FF0000" fill="none" stroke-width="4px" />
<path d="M 2390.0 145.0 L 2400.0 145.0" stroke="#FF0000" fill="none" stroke-width="4px" />
<path d="M 2400.0 145.0 L 2390.0 155.0" stroke="#FF0000" fill="none" stroke-width="4px" />
<path d="M 2390.0 155.0 L 2380.0 155.0" stroke="#FF0000" fill="none" stroke-width="4px" />
<path d="M 2380.0 155.0 L 2370.0 155.0" stroke="#FF0000" fill="none" stroke-width="4px" />
<path d="M 2370.0 155.0 L 2360.0 155.0" stroke="#FF0000" fill="none" stroke-width="4px" />
<path d="M 2360.0 155.0 L 2350.0 155.0" stroke="#FF0000" fill="none" stroke-width="4px" />
<path d="M 2350.0 155.0 L 2340.0 155.0" stroke="#FF0000" fill="none" stroke-width="4px" />
<path d="M 2340.0 155.0 L 2350.0 165.0" stroke="#FF0000" fill="none" stroke-width="4px" />
<path d="M 2350.0 165.0 L 2360.0 165.0" stroke="#FF0000" fill="none" stroke-width="4px" />
<path d="M 2360.0 165.0 L 2370.0 165.0" stroke="#FF0000" fill="none" stroke-width="4px" />
<path d="M 2370.0 165.0 L 2380.0 165.0" stroke="#FF0000" fill="none" stroke-width="4px" />
<path d="M 2380.0 125.0 L 2370.0 125.0" stroke="#FF0000" fill="none" stroke-width="4px" />
<path d="M 2370.0 125.0 L 2360.0 125.0" stroke="#FF0000" fill="none" stroke-width="4px" />
<path d="M 2360.0 125.0 L 2350.0 125.0" stroke="#FF0000" fill="none" stroke-width="4px" />
<path d="M 2350.0 125.0 L 2340.0 125.0" stroke="#FF0000" fill="none" stroke-width="4px" />
<path d="M 2340.0 125.0 L 2350.0 115.0" stroke="#FF0000" fill="none" stroke-width="4px" />
<path d="M 2350.0 115.0 L 2360.0 115.0" stroke="#FF0000" fill="none" stroke-width="4px" />
<path d="M 2360.0 115.0 L 2370.0 115.0" stroke="#FF0000" fill="none" stroke-width="4px" />
<path d="M 2370.0 115.0 L 2380.0 115.0" stroke="#FF0000" fill="none" stroke-width="4px" />
<path d="M 2380.0 115.0 L 2390.0 125.0" stroke="#FF0000" fill="none" stroke-width="4px" />
<path d="M 2170.0 75.0 L 2160.0 75.0" stroke="#FF0000" fill="none" stroke-width="4px" />
<path d="M 2160.0 75.0 L 2150.0 75.0" stroke="#FF0000" fill="none" stroke-width="4px" />
<path d="M 2150.0 75.0 L 2140.0 75.0" stroke="#FF0000" fill="none" stroke-width="4px" />
<path d="M 2140.0 75.0 L 2130.0 75.0" stroke="#FF0000" fill="none" stroke-width="4px" />
<path d="M 2130.0 75.0 L 2120.0 75.0" stroke="#FF0000" fill="none" stroke-width="4px" />
<path d="M 2120.0 75.0 L 2110.0 75.0" stroke="#FF0000" fill="none" stroke-width="4px" />
<path d="M 2110.0 75.0 L 2100.0 75.0" stroke="#FF0000" fill="none" stroke-width="4px" />
<path d="M 2100.0 75.0 L 2100.0 65.0" stroke="#FF0000" fill="none" stroke-width="4px" />
<path d="M 2100.0 65.0 L 2110.0 65.0" stroke="#FF0000" fill="none" stroke-width="4px" />
<path d="M 2110.0 65.0 L 2120.0 65.0" stroke="#FF0000" fill="none" stroke-width="4px" />
<path d="M 2120.0 65.0 L 2130.0 65.0" stroke="#FF0000" fill="none" stroke-width="4px" />
<path d="M 2130.0 65.0 L 2140.0 65.0" stroke="#FF0000" fill="none" stroke-width="4px" />
<path d="M 2140.0 65.0 L 2150.0 65.0" stroke="#FF0000" fill="none" stroke-width="4px" />
<path d="M 2150.0 65.0 L 2160.0 65.0" stroke="#FF0000" fill="none" stroke-width="4px" />
<path d="M 2160.0 65.0 L 2170.0 65.0" stroke="#FF0000" fill="none" stroke-width="4px" />
<path d="M 2170.0 65.0 L 2170.0 55.0" stroke="#FF0000" fill="none" stroke-width="4px" />
<path d="M 2170.0 55.0 L 2160.0 55.0" stroke="#FF0000" fill="none" stroke-width="4px" />
<path d="M 2160.0 55.0 L 2150.0 55.0" stroke="#FF0000" fill="none" stroke-width="4px" />
<path d="M 2150.0 55.0 L 2140.0 55.0" stroke="#FF0000" fill="none" stroke-width="4px" />
<path d="M 2140.0 55.0 L 2130.0 55.0" stroke="#FF0000" fill="none" stroke-width="4px" />
<path d="M 2130.0 55.0 L 2120.0 55.0" stroke="#FF0000" fill="none" stroke-width="4px" />
<path d="M 2120.0 55.0 L 2110.0 55.0" stroke="#FF0000" fill="none" stroke-width="4px" />
<path d="M 2110.0 55.0 L 2110.0 45.0" stroke="#FF0000" fill="none" stroke-width="4px" />
<path d="M 2110.0 45.0 L 2120.0 45.0" stroke="#FF0000" fill="none" stroke-width="4px" />
<path d="M 2120.0 45.0 L 2130.0 45.0" stroke="#FF0000" fill="none" stroke-width="4px" />
<path d="M 2130.0 45.0 L 2140.0 45.0" stroke="#FF0000" fill="none" stroke-width="4px" />
<path d="M 2140.0 45.0 L 2150.0 45.0" stroke="#FF0000" fill="none" stroke-width="4px" />
<path d="M 2150.0 45.0 L 2160.0 45.0" stroke="#FF0000" fill="none" stroke-width="4px" />
<path d="M 2160.0 45.0 L 2160.0 35.0" stroke="#FF0000" fill="none" stroke-width="4px" />
<path d="M 2160.0 35.0 L 2150.0 35.0" stroke="#FF0000" fill="none" stroke-width="4px" />
<path d="M 2150.0 35.0 L 2140.0 35.0" stroke="#FF0000" fill="none" stroke-width="4px" />
<path d="M 2140.0 35.0 L 2130.0 35.0" stroke="#FF0000" fill="none" stroke-width="4px" />
<path d="M 2130.0 35.0 L 2120.0 35.0" stroke="#FF0000" fill="none" stroke-width="4px" />
<path d="M 2120.0 35.0 L 2130.0 25.0" stroke="#FF0000" fill="none" stroke-width="4px" />
<path d="M 2130.0 25.0 L 2140.0 25.0" stroke="#FF0000" fill="none" stroke-width="4px" />
<path d="M 2140.0 25.0 L 2150.0 25.0" stroke="#FF0000" fill="none" stroke-width="4px" />
<path d="M 2150.0 25.0 L 2160.0 25.0" stroke="#FF0000" fill="none" stroke-width="4px" />
<path d="M 2160.0 25.0 L 2170.0 25.0" stroke="#FF0000" fill="none" stroke-width="4px" />
<path d="M 2170.0 25.0 L 2170.0 35.0" stroke="#FF0000" fill="none" stroke-width="4px" />
<path d="M 2170.0 15.0 L 2160.0 15.0" stroke="#FF0000" fill="none" stroke-width="4px" />
<path d="M 2160.0 15.0 L 2150.0 15.0" stroke="#FF0000" fill="none" stroke-width="4px" />
<path d="M 2150.0 15.0 L 2140.0 15.0" stroke="#FF0000" fill="none" stroke-width="4px" />
<path d="M 2140.0 15.0 L 2150.0 5.0" stroke="#FF0000" fill="none" stroke-width="4px" />
<path d="M 2150.0 5.0 L 2160.0 5.0" stroke="#FF0000" fill="none" stroke-width="4px" />
<path d="M 2160.0 5.0 L 2160.0 -5.0" stroke="#FF0000" fill="none" stroke-width="4px" />
<path d="M 2160.0 -5.0 L 2150.0 -5.0" stroke="#FF0000" fill="none" stroke-width="4px" />
<path d="M 2150.0 85.0 L 2140.0 85.0" stroke="#FF0000" fill="none" stroke-width="4px" />
<path d="M 2140.0 85.0 L 2130.0 85.0" stroke="#FF0000" fill="none" stroke-width="4px" />
<path d="M 2130.0 85.0 L 2120.0 85.0" stroke="#FF0000" fill="none" stroke-width="4px" />
<path d="M 2120.0 85.0 L 2110.0 85.0" stroke="#FF0000" fill="none" stroke-width="4px" />
</svg>