<svg width="1755.23333333" height="235.0" xmlns="http://www.w3.org/2000/svg" version="1.1">
<path d="M 0.0 235.0 L 1755.23333333 235.0 L 1755.23333333 0.0 L 0.0 0.0 L 0.0 235.0" stroke="#000000" fill="none" stroke-width="3px" />
<path d="M 10.0 257.5 L 0.0 247.5 L 10.0 237.5" stroke="#969696" fill="none" stroke-width="1px" />
<path d="M 10.0 237.5 L 1745.23333333 237.5" stroke="#969696" fill="none" stroke-width="1px" />
<path d="M 1745.23333333 237.5 L 1755.23333333 227.5 L 1745.23333333 217.5" stroke="#969696" fill="none" stroke-width="1px" />
<path d="M 1745.23333333 217.5 L 10.0 217.5" stroke="#969696" fill="none" stroke-width="1px" />
<path d="M 10.0 217.5 L 0.0 207.5 L 10.0 197.5" stroke="#969696" fill="none" stroke-width="1px" />
<path d="M 10.0 197.5 L 1745.23333333 197.5" stroke="#969696" fill="none" stroke-width="1px" />
<path d="M 1745.23333333 197.5 L 1755.23333333 187.5 L 1745.23333333 177.5" stroke="#969696" fill="none" stroke-width="1px" />
<path d="M 1745.23333333 177.5 L 10.0 177.5" stroke="#969696" fill="none" stroke-width="1px" />
<path d="M 10.0 177.5 L 0.0 167.5 L 10.0 157.5" stroke="#969696" fill="none" stroke-width="1px" />
<path d="M 10.0 157.5 L 1745.23333333 157.5" stroke="#969696" fill="none" stroke-width="1px" />
<path d="M 1745.23333333 157.5 L 1755.23333333 147.5 L 1745.23333333 137.5" stroke="#969696" fill="none" stroke-width="1px" />
<path d="M 1745.23333333 137.5 L 10.0 137.5" stroke="#969696" fill="none" stroke-width="1px" />
<path d="M 10.0 137.5 L 0.0 127.5 L 10.0 117.5" stroke="#969696" fill="none" stroke-width="1px" />
<path d="M 10.0 117.5 L 1745.23333333 117.5" stroke="#969696" fill="none" stroke-width="1px" />
<path d="M 1745.23333333 117.5 L 1755.23333333 107.5 L 1745.23333333 97.5" stroke="#969696" fill="none" stroke-width="1px" />
<path d="M 1745.23333333 97.5 L 10.0 97.5" stroke="#969696" fill="none" stroke-width="1px" />
<path d="M 10.0 97.5 L 0.0 87.5 L 10.0 77.5" stroke="#969696" fill="none" stroke-width="1px" />
<path d="M 10.0 77.5 L 1745.23333333 77.5" stroke="#969696" fill="none" stroke-width="1px" />
<path d="M 1745.23333333 77.5 L 1755.23333333 67.5 L 1745.23333333 57.5" stroke="#969696" fill="none" stroke-width="1px" />
<path d="M 1745.23333333 57.5 L 10.0 57.5" stroke="#969696" fill="none" stroke-width="1px" />
<path d="M 10.0 57.5 L 0.0 47.5 L 10.0 37.5" stroke="#969696" fill="none" stroke-width="1px" />
<path d="M 10.0 37.5 L 1745.23333333 37.5" stroke="#969696" fill="none" stroke-width="1px" />
<path d="M 1745.23333333 37.5 L 1755.23333333 27.5 L 1745.23333333 17.5" stroke="#969696" fill="none" stroke-width="1px" />
<path d="M 1745.23333333 17.5 L 10.0 17.5" stroke="#969696" fill="none" stroke-width="1px" />
<path d="M 10.0 17.5 L 0.0 7.5 L 10.0 -2.5" stroke="#969696" fill="none" stroke-width="1px" />
<path d="M 10.0 -2.5 L 1745.23333333 -2.5" stroke="#969696" fill="none" stroke-width="1px" />
<path d="M 1745.23333333 -2.5 L 1755.23333333 -12.5 L 1745.23333333 -22.5" stroke="#969696" fill="none" stroke-width="1px" />
<path d="M 0.0 235.0 L 20.0 235.0" stroke="#0095FF" fill="none" stroke-width="2px" />
<path d="M 20.0 235.0 L 20.0 135.0" stroke="#0095FF" fill="none" stroke-width="2px" />
<path d="M 30.0 75.0 L 10.0 75.0" stroke="#0095FF" fill="none" stroke-width="2px" />
<path d="M 10.0 75.0 L 10.0 65.0" stroke="#0095FF" fill="none" stroke-width="2px" />
<path d="M 10.0 65.0 L 50.0 65.0" stroke="#0095FF" fill="none" stroke-width="2px" />
<path d="M 50.0 65.0 L 50.0 125.0" stroke="#0095FF" fill="none" stroke-width="2px" />
<path d="M 50.0 125.0 L 340.0 125.0" stroke="#0095FF" fill="none" stroke-width="2px" />
<path d="M 340.0 125.0 L 340.0 165.0" stroke="#0095FF" fill="none" stroke-width="2px" />
<path d="M 400.0 175.0 L 390.0 175.0" stroke="#0095FF" fill="none" stroke-width="2px" />
<path d="M 390.0 175.0 L 390.0 195.0" stroke="#0095FF" fill="none" stroke-width="2px" />
<path d="M 380.0 205.0 L 380.0 155.0" stroke="#0095FF" fill="none" stroke-width="2px" />
<path d="M 370.0 145.0 L 420.0 145.0" stroke="#0095FF" fill="none" stroke-width="2px" />
<path d="M 460.0 105.0 L 460.0 75.0" stroke="#0095FF" fill="none" stroke-width="2px" />
<path d="M 480.0 55.0 L 460.0 55.0" stroke="#0095FF" fill="none" stroke-width="2px" />
<path d="M 460.0 55.0 L 460.0 35.0" stroke="#0095FF" fill="none" stroke-width="2px" />
<path d="M 460.0 35.0 L 570.0 35.0" stroke="#0095FF" fill="none" stroke-width="2px" />
<path d="M 570.0 35.0 L 570.0 95.0" stroke="#0095FF" fill="none" stroke-width="2px" />
<path d="M 540.0 195.0 L 590.0 195.0" stroke="#0095FF" fill="none" stroke-width="2px" />
<path d="M 590.0 195.0 L 590.0 145.0" stroke="#0095FF" fill="none" stroke-width="2px" />
<path d="M 580.0 135.0 L 610.0 135.0" stroke="#0095FF" fill="none" stroke-width="2px" />
<path d="M 630.0 175.0 L 630.0 135.0" stroke="#0095FF" fill="none" stroke-width="2px" />
<path d="M 640.0 125.0 L 610.0 125.0" stroke="#0095FF" fill="none" stroke-width="2px" />
<path d="M 610.0 125.0 L 610.0 105.0" stroke="#0095FF" fill="none" stroke-width="2px" />
<path d="M 610.0 105.0 L 590.0 105.0" stroke="#0095FF" fill="none" stroke-width="2px" />
<path d="M 590.0 105.0 L 590.0 85.0" stroke="#0095FF" fill="none" stroke-width="2px" />
<path d="M 580.0 85.0 L 540.0 85.0" stroke="#0095FF" fill="none" stroke-width="2px" />
<path d="M 540.0 85.0 L 540.0 125.0" stroke="#0095FF" fill="none" stroke-width="2px" />
<path d="M 520.0 125.0 L 470.0 125.0" stroke="#0095FF" fill="none" stroke-width="2px" />
<path d="M 470.0 125.0 L 470.0 155.0" stroke="#0095FF" fill="none" stroke-width="2px" />
<path d="M 440.0 175.0 L 740.0 175.0" stroke="#0095FF" fill="none" stroke-width="2px" />
<path d="M 780.0 225.0 L 820.0 225.0" stroke="#0095FF" fill="none" stroke-width="2px" />
<path d="M 820.0 225.0 L 820.0 185.0" stroke="#0095FF" fill="none" stroke-width="2px" />
<path d="M 820.0 185.0 L 800.0 185.0" stroke="#0095FF" fill="none" stroke-width="2px" />
<path d="M 800.0 185.0 L 800.0 165.0" stroke="#0095FF" fill="none" stroke-width="2px" />
<path d="M 780.0 115.0 L 780.0 95.0" stroke="#0095FF" fill="none" stroke-width="2px" />
<path d="M 810.0 95.0 L 810.0 145.0" stroke="#0095FF" fill="none" stroke-width="2px" />
<path d="M 810.0 145.0 L 920.0 145.0" stroke="#0095FF" fill="none" stroke-width="2px" />
<path d="M 920.0 145.0 L 920.0 115.0" stroke="#0095FF" fill="none" stroke-width="2px" />
<path d="M 980.0 155.0 L 960.0 155.0" stroke="#0095FF" fill="none" stroke-width="2px" />
<path d="M 960.0 155.0 L 960.0 165.0" stroke="#0095FF" fill="none" stroke-width="2px" />
<path d="M 960.0 165.0 L 960.0 105.0" stroke="#0095FF" fill="none" stroke-width="2px" />
<path d="M 970.0 105.0 L 970.0 85.0" stroke="#0095FF" fill="none" stroke-width="2px" />
<path d="M 960.0 75.0 L 980.0 75.0" stroke="#0095FF" fill="none" stroke-width="2px" />
<path d="M 980.0 75.0 L 980.0 85.0" stroke="#0095FF" fill="none" stroke-width="2px" />
<path d="M 980.0 85.0 L 1000.0 85.0" stroke="#0095FF" fill="none" stroke-width="2px" />
<path d="M 1000.0 85.0 L 1000.0 105.0" stroke="#0095FF" fill="none" stroke-width="2px" />
<path d="M 1000.0 105.0 L 1460.0 105.0" stroke="#0095FF" fill="none" stroke-width="2px" />
<path d="M 1550.0 205.0 L 1560.0 205.0" stroke="#0095FF" fill="none" stroke-width="2px" />
<path d="M 1560.0 205.0 L 1560.0 155.0" stroke="#0095FF" fill="none" stroke-width="2px" />
<path d="M 1560.0 155.0 L 1530.0 155.0" stroke="#0095FF" fill="none" stroke-width="2px" />
<path d="M 1530.0 155.0 L 1530.0 115.0" stroke="#0095FF" fill="none" stroke-width="2px" />
<path d="M 1530.0 115.0 L 1510.0 115.0" stroke="#0095FF" fill="none" stroke-width="2px" />
<path d="M 1510.0 115.0 L 1510.0 95.0" stroke="#0095FF" fill="none" stroke-width="2px" />
<path d="M 20.0 135.0 L 30.0 135.0" stroke="#FF0000" fill="none" stroke-width="4px" />
<path d="M 30.0 135.0 L 40.0 135.0" stroke="#FF0000" fill="none" stroke-width="4px" />
<path d="M 40.0 135.0 L 40.0 125.0" stroke="#FF0000" fill="none" stroke-width="4px" />
<path d="M 40.0 125.0 L 30.0 125.0" stroke="#FF0000" fill="none" stroke-width="4px" />
<path d="M 30.0 125.0 L 20.0 125.0" stroke="#FF0000" fill="none" stroke-width="4px" />
<path d="M 20.0 125.0 L 10.0 125.0" stroke="#FF0000" fill="none" stroke-width="4px" />
<path d="M 10.0 125.0 L 10.0 115.0" stroke="#FF0000" fill="none" stroke-width="4px" />
<path d="M 10.0 115.0 L 20.0 115.0" stroke="#FF0000" fill="none" stroke-width="4px" />
<path d="M 20.0 115.0 L 30.0 115.0" stroke="#FF0000" fill="none" stroke-width="4px" />
<path d="M 30.0 115.0 L 40.0 115.0" stroke="#FF0000" fill="none" stroke-width="4px" />
<path d="M 40.0 115.0 L 50.0 115.0" stroke="#FF0000" fill="none" stroke-width="4px" />
<path d="M 50.0 115.0 L 60.0 115.0" stroke="#FF0000" fill="none" stroke-width="4px" />
<path d="M 60.0 115.0 L 60.0 105.0" stroke="#FF0000" fill="none" stroke-width="4px" />
<path d="M 60.0 105.0 L 50.0 105.0" stroke="#FF0000" fill="none" stroke-width="4px" />
<path d="M 50.0 105.0 L 40.0 105.0" stroke="#FF0000" fill="none" stroke-width="4px" />
<path d="M 40.0 105.0 L 30.0 105.0" stroke="#FF0000" fill="none" stroke-width="4px" />
<path d="M 30.0 105.0 L 20.0 105.0" stroke="#FF0000" fill="none" stroke-width="4px" />
<path d="M 20.0 105.0 L 10.0 105.0" stroke="#FF0000" fill="none" stroke-width="4px" />
<path d="M 10.0 105.0 L 10.0 95.0" stroke="#FF0000" fill="none" stroke-width="4px" />
<path d="M 10.0 95.0 L 20.0 95.0" stroke="#FF0000" fill="none" stroke-width="4px" />
<path d="M 20.0 95.0 L 30.0 95.0" stroke="#FF0000" fill="none" stroke-width="4px" />
<path d="M 30.0 95.0 L 40.0 95.0" stroke="#FF0000" fill="none" stroke-width="4px" />
<path d="M 40.0 95.0 L 50.0 95.0" stroke="#FF0000" fill="none" stroke-width="4px" />
<path d="M 50.0 95.0 L 40.0 85.0" stroke="#FF0000" fill="none" stroke-width="4px" />
<path d="M 40.0 85.0 L 30.0 85.0" stroke="#FF0000" fill="none" stroke-width="4px" />
<path d="M 30.0 85.0 L 20.0 85.0" stroke="#FF0000" fill="none" stroke-width="4px" />
<path d="M 20.0 85.0 L 10.0 85.0" stroke="#FF0000" fill="none" stroke-width="4px" />
<path d="M 10.0 85.0 L 10.0 75.0" stroke="#FF0000" fill="none" stroke-width="4px" />
<path d="M 10.0 75.0 L 20.0 75.0" stroke="#FF0000" fill="none" stroke-width="4px" />
<path d="M 20.0 75.0 L 30.0 75.0" stroke="#FF0000" fill="none" stroke-width="4px" />
<path d="M 340.0 165.0 L 350.0 165.0" stroke="#FF0000" fill="none" stroke-width="4px" />
<path d="M 350.0 165.0 L 360.0 165.0" stroke="#FF0000" fill="none" stroke-width="4px" />
<path d="M 360.0 165.0 L 370.0 165.0" stroke="#FF0000" fill="none" stroke-width="4px" />
<path d="M 370.0 165.0 L 380.0 165.0" stroke="#FF0000" fill="none" stroke-width="4px" />
<path d="M 380.0 165.0 L 390.0 165.0" stroke="#FF0000" fill="none" stroke-width="4px" />
<path d="M 390.0 165.0 L 390.0 175.0" stroke="#FF0000" fill="none" stroke-width="4px" />
<path d="M 390.0 175.0 L 380.0 175.0" stroke="#FF0000" fill="none" stroke-width="4px" />
<path d="M 380.0 175.0 L 370.0 175.0" stroke="#FF0000" fill="none" stroke-width="4px" />
<path d="M 370.0 175.0 L 360.0 175.0" stroke="#FF0000" fill="none" stroke-width="4px" />
<path d="M 360.0 175.0 L 350.0 175.0" stroke="#FF0000" fill="none" stroke-width="4px" />
<path d="M 350.0 175.0 L 340.0 175.0" stroke="#FF0000" fill="none" stroke-width="4px" />
<path d="M 340.0 175.0 L 340.0 185.0" stroke="#FF0000" fill="none" stroke-width="4px" />
<path d="M 340.0 185.0 L 350.0 185.0" stroke="#FF0000" fill="none" stroke-width="4px" />
<path d="M 350.0 185.0 L 360.0 185.0" stroke="#FF0000" fill="none" stroke-width="4px" />
<path d="M 360.0 185.0 L 370.0 185.0" stroke="#FF0000" fill="none" stroke-width="4px" />
<path d="M 370.0 185.0 L 380.0 185.0" stroke="#FF0000" fill="none" stroke-width="4px" />
<path d="M 380.0 185.0 L 390.0 185.0" stroke="#FF0000" fill="none" stroke-width="4px" />
<path d="M 390.0 185.0 L 400.0 185.0" stroke="#FF0000" fill="none" stroke-width="4px" />
<path d="M 400.0 185.0 L 400.0 175.0" stroke="#FF0000" fill="none" stroke-width="4px" />
<path d="M 390.0 195.0 L 380.0 195.0" stroke="#FF0000" fill="none" stroke-width="4px" />
<path d="M 380.0 195.0 L 370.0 195.0" stroke="#FF0000" fill="none" stroke-width="4px" />
<path d="M 370.0 195.0 L 360.0 195.0" stroke="#FF0000" fill="none" stroke-width="4px" />
<path d="M 360.0 195.0 L 350.0 195.0" stroke="#FF0000" fill="none" stroke-width="4px" />
<path d="M 350.0 195.0 L 360.0 205.0" stroke="#FF0000" fill="none" stroke-width="4px" />
<path d="M 360.0 205.0 L 370.0 205.0" stroke="#FF0000" fill="none" stroke-width="4px" />
<path d="M 370.0 205.0 L 380.0 205.0" stroke="#FF0000" fill="none" stroke-width="4px" />
<path d="M 380.0 155.0 L 370.0 155.0" stroke="#FF0000" fill="none" stroke-width="4px" />
<path d="M 370.0 155.0 L 360.0 155.0" stroke="#FF0000" fill="none" stroke-width="4px" />
<path d="M 360.0 155.0 L 350.0 155.0" stroke="#FF0000" fill="none" stroke-width="4px" />
<path d="M 350.0 155.0 L 360.0 145.0" stroke="#FF0000" fill="none" stroke-width="4px" />
<path d="M 360.0 145.0 L 370.0 145.0" stroke="#FF0000" fill="none" stroke-width="4px" />
<path d="M 420.0 145.0 L 430.0 145.0" stroke="#FF0000" fill="none" stroke-width="4px" />
<path d="M 430.0 145.0 L 440.0 145.0" stroke="#FF0000" fill="none" stroke-width="4px" />
<path d="M 440.0 145.0 L 450.0 145.0" stroke="#FF0000" fill="none" stroke-width="4px" />
<path d="M 450.0 145.0 L 460.0 145.0" stroke="#FF0000" fill="none" stroke-width="4px" />
<path d="M 460.0 145.0 L 470.0 145.0" stroke="#FF0000" fill="none" stroke-width="4px" />
<path d="M 470.0 145.0 L 480.0 145.0" stroke="#FF0000" fill="none" stroke-width="4px" />
<path d="M 480.0 145.0 L 480.0 135.0" stroke="#FF0000" fill="none" stroke-width="4px" />
<path d="M 480.0 135.0 L 470.0 135.0" stroke="#FF0000" fill="none" stroke-width="4px" />
<path d="M 470.0 135.0 L 460.0 135.0" stroke="#FF0000" fill="none" stroke-width="4px" />
<path d="M 460.0 135.0 L 450.0 135.0" stroke="#FF0000" fill="none" stroke-width="4px" />
<path d="M 450.0 135.0 L 440.0 135.0" stroke="#FF0000" fill="none" stroke-width="4px" />
<path d="M 440.0 135.0 L 430.0 135.0" stroke="#FF0000" fill="none" stroke-width="4px" />
<path d="M 430.0 135.0 L 420.0 135.0" stroke="#FF0000" fill="none" stroke-width="4px" />
<path d="M 420.0 135.0 L 420.0 125.0" stroke="#FF0000" fill="none" stroke-width="4px" />
<path d="M 420.0 125.0 L 430.0 125.0" stroke="#FF0000" fill="none" stroke-width="4px" />
<path d="M 430.0 125.0 L 440.0 125.0" stroke="#FF0000" fill="none" stroke-width="4px" />
<path d="M 440.0 125.0 L 450.0 125.0" stroke="#FF0000" fill="none" stroke-width="4px" />
<path d="M 450.0 125.0 L 460.0 125.0" stroke="#FF0000" fill="none" stroke-width="4px" />
<path d="M 460.0 125.0 L 470.0 125.0" stroke="#FF0000" fill="none" stroke-width="4px" />
<path d="M 470.0 125.0 L 480.0 125.0" stroke="#FF0000" fill="none" stroke-width="4px" />
<path d="M 480.0 125.0 L 470.0 115.0" stroke="#FF0000" fill="none" stroke-width="4px" />
<path d="M 470.0 115.0 L 460.0 115.0" stroke="#FF0000" fill="none" stroke-width="4px" />
<path d="M 460.0 115.0 L 450.0 115.0" stroke="#FF0000" fill="none" stroke-width="4px" />
<path d="M 450.0 115.0 L 440.0 115.0" stroke="#FF0000" fill="none" stroke-width="4px" />
<path d="M 440.0 115.0 L 430.0 115.0" stroke="#FF0000" fill="none" stroke-width="4px" />
<path d="M 430.0 115.0 L 440.0 105.0" stroke="#FF0000" fill="none" stroke-width="4px" />
<path d="M 440.0 105.0 L 450.0 105.0" stroke="#FF0000" fill="none" stroke-width="4px" />
<path d="M 450.0 105.0 L 460.0 105.0" stroke="#FF0000" fill="none" stroke-width="4px" />
<path d="M 460.0 75.0 L 460.0 65.0" stroke="#FF0000" fill="none" stroke-width="4px" />
<path d="M 460.0 65.0 L 450.0 65.0" stroke="#FF0000" fill="none" stroke-width="4px" />
<path d="M 450.0 65.0 L 450.0 55.0" stroke="#FF0000" fill="none" stroke-width="4px" />
<path d="M 450.0 55.0 L 440.0 55.0" stroke="#FF0000" fill="none" stroke-width="4px" />
<path d="M 440.0 55.0 L 450.0 45.0" stroke="#FF0000" fill="none" stroke-width="4px" />
<path d="M 450.0 45.0 L 460.0 45.0" stroke="#FF0000" fill="none" stroke-width="4px" />
<path d="M 460.0 45.0 L 470.0 45.0" stroke="#FF0000" fill="none" stroke-width="4px" />
<path d="M 470.0 45.0 L 470.0 55.0" stroke="#FF0000" fill="none" stroke-width="4px" />
<path d="M 470.0 55.0 L 460.0 55.0" stroke="#FF0000" fill="none" stroke-width="4px" />
<path d="M 460.0 55.0 L 470.0 65.0" stroke="#FF0000" fill="none" stroke-width="4px" />
<path d="M 470.0 65.0 L 480.0 55.0" stroke="#FF0000" fill="none" stroke-width="4px" />
<path d="M 570.0 95.0 L 580.0 95.0" stroke="#FF0000" fill="none" stroke-width="4px" />
<path d="M 580.0 95.0 L 590.0 95.0" stroke="#FF0000" fill="none" stroke-width="4px" />
<path d="M 590.0 95.0 L 600.0 95.0" stroke="#FF0000" fill="none" stroke-width="4px" />
<path d="M 600.0 95.0 L 600.0 105.0" stroke="#FF0000" fill="none" stroke-width="4px" />
<path d="M 600.0 105.0 L 590.0 105.0" stroke="#FF0000" fill="none" stroke-width="4px" />
<path d="M 590.0 105.0 L 580.0 105.0" stroke="#FF0000" fill="none" stroke-width="4px" />
<path d="M 580.0 105.0 L 570.0 105.0" stroke="#FF0000" fill="none" stroke-width="4px" />
<path d="M 570.0 105.0 L 560.0 105.0" stroke="#FF0000" fill="none" stroke-width="4px" />
<path d="M 560.0 105.0 L 560.0 115.0" stroke="#FF0000" fill="none" stroke-width="4px" />
<path d="M 560.0 115.0 L 570.0 115.0" stroke="#FF0000" fill="none" stroke-width="4px" />
<path d="M 570.0 115.0 L 580.0 115.0" stroke="#FF0000" fill="none" stroke-width="4px" />
<path d="M 580.0 115.0 L 590.0 115.0" stroke="#FF0000" fill="none" stroke-width="4px" />
<path d="M 590.0 115.0 L 600.0 115.0" stroke="#FF0000" fill="none" stroke-width="4px" />
<path d="M 600.0 115.0 L 610.0 115.0" stroke="#FF0000" fill="none" stroke-width="4px" />
<path d="M 610.0 115.0 L 620.0 115.0" stroke="#FF0000" fill="none" stroke-width="4px" />
<path d="M 620.0 115.0 L 620.0 125.0" stroke="#FF0000" fill="none" stroke-width="4px" />
<path d="M 620.0 125.0 L 610.0 125.0" stroke="#FF0000" fill="none" stroke-width="4px" />
<path d="M 610.0 125.0 L 600.0 125.0" stroke="#FF0000" fill="none" stroke-width="4px" />
<path d="M 600.0 125.0 L 590.0 125.0" stroke="#FF0000" fill="none" stroke-width="4px" />
<path d="M 590.0 125.0 L 580.0 125.0" stroke="#FF0000" fill="none" stroke-width="4px" />
<path d="M 580.0 125.0 L 570.0 125.0" stroke="#FF0000" fill="none" stroke-width="4px" />
<path d="M 570.0 125.0 L 560.0 135.0" stroke="#FF0000" fill="none" stroke-width="4px" />
<path d="M 560.0 135.0 L 550.0 135.0" stroke="#FF0000" fill="none" stroke-width="4px" />
<path d="M 550.0 135.0 L 540.0 135.0" stroke="#FF0000" fill="none" stroke-width="4px" />
<path d="M 540.0 135.0 L 530.0 135.0" stroke="#FF0000" fill="none" stroke-width="4px" />
<path d="M 530.0 135.0 L 520.0 135.0" stroke="#FF0000" fill="none" stroke-width="4px" />
<path d="M 520.0 135.0 L 510.0 135.0" stroke="#FF0000" fill="none" stroke-width="4px" />
<path d="M 510.0 135.0 L 510.0 145.0" stroke="#FF0000" fill="none" stroke-width="4px" />
<path d="M 510.0 145.0 L 520.0 145.0" stroke="#FF0000" fill="none" stroke-width="4px" />
<path d="M 520.0 145.0 L 530.0 145.0" stroke="#FF0000" fill="none" stroke-width="4px" />
<path d="M 530.0 145.0 L 540.0 145.0" stroke="#FF0000" fill="none" stroke-width="4px" />
<path d="M 540.0 145.0 L 550.0 145.0" stroke="#FF0000" fill="none" stroke-width="4px" />
<path d="M 550.0 145.0 L 560.0 145.0" stroke="#FF0000" fill="none" stroke-width="4px" />
<path d="M 560.0 145.0 L 570.0 145.0" stroke="#FF0000" fill="none" stroke-width="4px" />
<path d="M 570.0 145.0 L 570.0 155.0" stroke="#FF0000" fill="none" stroke-width="4px" />
<path d="M 570.0 155.0 L 560.0 155.0" stroke="#FF0000" fill="none" stroke-width="4px" />
<path d="M 560.0 155.0 L 550.0 155.0" stroke="#FF0000" fill="none" stroke-width="4px" />
<path d="M 550.0 155.0 L 540.0 155.0" stroke="#FF0000" fill="none" stroke-width="4px" />
<path d="M 540.0 155.0 L 530.0 155.0" stroke="#FF0000" fill="none" stroke-width="4px" />
<path d="M 530.0 155.0 L 520.0 155.0" stroke="#FF0000" fill="none" stroke-width="4px" />
<path d="M 520.0 155.0 L 510.0 155.0" stroke="#FF0000" fill="none" stroke-width="4px" />
<path d="M 510.0 155.0 L 520.0 165.0" stroke="#FF0000" fill="none" stroke-width="4px" />
<path d="M 520.0 165.0 L 530.0 165.0" stroke="#FF0000" fill="none" stroke-width="4px" />
<path d="M 530.0 165.0 L 540.0 165.0" stroke="#FF0000" fill="none" stroke-width="4px" />
<path d="M 540.0 165.0 L 550.0 165.0" stroke="#FF0000" fill="none" stroke-width="4px" />
<path d="M 550.0 165.0 L 560.0 165.0" stroke="#FF0000" fill="none" stroke-width="4px" />
<path d="M 560.0 165.0 L 570.0 165.0" stroke="#FF0000" fill="none" stroke-width="4px" />
<path d="M 570.0 165.0 L 580.0 165.0" stroke="#FF0000" fill="none" stroke-width="4px" />
<path d="M 580.0 165.0 L 580.0 175.0" stroke="#FF0000" fill="none" stroke-width="4px" />
<path d="M 580.0 175.0 L 570.0 175.0" stroke="#FF0000" fill="none" stroke-width="4px" />
<path d="M 570.0 175.0 L 560.0 175.0" stroke="#FF0000" fill="none" stroke-width="4px" />
<path d="M 560.0 175.0 L 550.0 175.0" stroke="#FF0000" fill="none" stroke-width="4px" />
<path d="M 550.0 175.0 L 540.0 175.0" stroke="#FF0000" fill="none" stroke-width="4px" />
<path d="M 540.0 175.0 L 530.0 175.0" stroke="#FF0000" fill="none" stroke-width="4px" />
<path d="M 530.0 175.0 L 520.0 175.0" stroke="#FF0000" fill="none" stroke-width="4px" />
<path d="M 520.0 175.0 L 530.0 185.0" stroke="#FF0000" fill="none" stroke-width="4px" />
<path d="M 530.0 185.0 L 540.0 185.0" stroke="#FF0000" fill="none" stroke-width="4px" />
<path d="M 540.0 185.0 L 550.0 185.0" stroke="#FF0000" fill="none" stroke-width="4px" />
<path d="M 550.0 185.0 L 560.0 185.0" stroke="#FF0000" fill="none" stroke-width="4px" />
<path d="M 560.0 185.0 L 570.0 185.0" stroke="#FF0000" fill="none" stroke-width="4px" />
<path d="M 570.0 185.0 L 560.0 195.0" stroke="#FF0000" fill="none" stroke-width="4px" />
<path d="M 560.0 195.0 L 550.0 195.0" stroke="#FF0000" fill="none" stroke-width="4px" />
<path d="M 550.0 195.0 L 540.0 195.0" stroke="#FF0000" fill="none" stroke-width="4px" />
<path d="M 590.0 145.0 L 600.0 145.0" stroke="#FF0000" fill="none" stroke-width="4px" />
<path d="M 600.0 145.0 L 600.0 135.0" stroke="#FF0000" fill="none" stroke-width="4px" />
<path d="M 600.0 135.0 L 590.0 135.0" stroke="#FF0000" fill="none" stroke-width="4px" />
<path d="M 590.0 135.0 L 580.0 135.0" stroke="#FF0000" fill="none" stroke-width="4px" />
<path d="M 610.0 135.0 L 620.0 145.0" stroke="#FF0000" fill="none" stroke-width="4px" />
<path d="M 620.0 145.0 L 630.0 145.0" stroke="#FF0000" fill="none" stroke-width="4px" />
<path d="M 630.0 145.0 L 640.0 145.0" stroke="#FF0000" fill="none" stroke-width="4px" />
<path d="M 640.0 145.0 L 650.0 145.0" stroke="#FF0000" fill="none" stroke-width="4px" />
<path d="M 650.0 145.0 L 660.0 145.0" stroke="#FF0000" fill="none" stroke-width="4px" />
<path d="M 660.0 145.0 L 670.0 145.0" stroke="#FF0000" fill="none" stroke-width="4px" />
<path d="M 670.0 145.0 L 670.0 155.0" stroke="#FF0000" fill="none" stroke-width="4px" />
<path d="M 670.0 155.0 L 660.0 155.0" stroke="#FF0000" fill="none" stroke-width="4px" />
<path d="M 660.0 155.0 L 650.0 155.0" stroke="#FF0000" fill="none" stroke-width="4px" />
<path d="M 650.0 155.0 L 640.0 155.0" stroke="#FF0000" fill="none" stroke-width="4px" />
<path d="M 640.0 155.0 L 630.0 155.0" stroke="#FF0000" fill="none" stroke-width="4px" />
<path d="M 630.0 155.0 L 620.0 155.0" stroke="#FF0000" fill="none" stroke-width="4px" />
<path d="M 620.0 155.0 L 630.0 165.0" stroke="#FF0000" fill="none" stroke-width="4px" />
<path d="M 630.0 165.0 L 640.0 165.0" stroke="#FF0000" fill="none" stroke-width="4px" />
<path d="M 640.0 165.0 L 650.0 165.0" stroke="#FF0000" fill="none" stroke-width="4px" />
<path d="M 650.0 165.0 L 660.0 165.0" stroke="#FF0000" fill="none" stroke-width="4px" />
<path d="M 660.0 165.0 L 650.0 175.0" stroke="#FF0000" fill="none" stroke-width="4px" />
<path d="M 650.0 175.0 L 640.0 175.0" stroke="#FF0000" fill="none" stroke-width="4px" />
<path d="M 640.0 175.0 L 630.0 175.0" stroke="#FF0000" fill="none" stroke-width="4px" />
<path d="M 630.0 135.0 L 640.0 135.0" stroke="#FF0000" fill="none" stroke-width="4px" />
<path d="M 640.0 135.0 L 650.0 135.0" stroke="#FF0000" fill="none" stroke-width="4px" />
<path d="M 650.0 135.0 L 660.0 135.0" stroke="#FF0000" fill="none" stroke-width="4px" />
<path d="M 660.0 135.0 L 650.0 125.0" stroke="#FF0000" fill="none" stroke-width="4px" />
<path d="M 650.0 125.0 L 640.0 125.0" stroke="#FF0000" fill="none" stroke-width="4px" />
<path d="M 590.0 85.0 L 580.0 85.0" stroke="#FF0000" fill="none" stroke-width="4px" />
<path d="M 540.0 125.0 L 530.0 125.0" stroke="#FF0000" fill="none" stroke-width="4px" />
<path d="M 530.0 125.0 L 520.0 125.0" stroke="#FF0000" fill="none" stroke-width="4px" />
<path d="M 470.0 155.0 L 460.0 155.0" stroke="#FF0000" fill="none" stroke-width="4px" />
<path d="M 460.0 155.0 L 450.0 155.0" stroke="#FF0000" fill="none" stroke-width="4px" />
<path d="M 450.0 155.0 L 440.0 155.0" stroke="#FF0000" fill="none" stroke-width="4px" />
<path d="M 440.0 155.0 L 430.0 155.0" stroke="#FF0000" fill="none" stroke-width="4px" />
<path d="M 430.0 155.0 L 420.0 155.0" stroke="#FF0000" fill="none" stroke-width="4px" />
<path d="M 420.0 155.0 L 430.0 165.0" stroke="#FF0000" fill="none" stroke-width="4px" />
<path d="M 430.0 165.0 L 440.0 165.0" stroke="#FF0000" fill="none" stroke-width="4px" />
<path d="M 440.0 165.0 L 450.0 165.0" stroke="#FF0000" fill="none" stroke-width="4px" />
<path d="M 450.0 165.0 L 460.0 165.0" stroke="#FF0000" fill="none" stroke-width="4px" />
<path d="M 460.0 165.0 L 450.0 175.0" stroke="#FF0000" fill="none" stroke-width="4px" />
<path d="M 450.0 175.0 L 440.0 175.0" stroke="#FF0000" fill="none" stroke-width="4px" />
<path d="M 740.0 175.0 L 750.0 175.0" stroke="#FF0000" fill="none" stroke-width="4px" />
<path d="M 750.0 175.0 L 760.0 175.0" stroke="#FF0000" fill="none" stroke-width="4px" />
<path d="M 760.0 175.0 L 770.0 175.0" stroke="#FF0000" fill="none" stroke-width="4px" />
<path d="M 770.0 175.0 L 780.0 175.0" stroke="#FF0000" fill="none" stroke-width="4px" />
<path d="M 780.0 175.0 L 790.0 175.0" stroke="#FF0000" fill="none" stroke-width="4px" />
<path d="M 790.0 175.0 L 800.0 175.0" stroke="#FF0000" fill="none" stroke-width="4px" />
<path d="M 800.0 175.0 L 810.0 175.0" stroke="#FF0000" fill="none" stroke-width="4px" />
<path d="M 810.0 175.0 L 810.0 185.0" stroke="#FF0000" fill="none" stroke-width="4px" />
<path d="M 810.0 185.0 L 800.0 185.0" stroke="#FF0000" fill="none" stroke-width="4px" />
<path d="M 800.0 185.0 L 790.0 185.0" stroke="#FF0000" fill="none" stroke-width="4px" />
<path d="M 790.0 185.0 L 780.0 185.0" stroke="#FF0000" fill="none" stroke-width="4px" />
<path d="M 780.0 185.0 L 770.0 185.0" stroke="#FF0000" fill="none" stroke-width="4px" />
<path d="M 770.0 185.0 L 760.0 185.0" stroke="#FF0000" fill="none" stroke-width="4px" />
<path d="M 760.0 185.0 L 750.0 185.0" stroke="#FF0000" fill="none" stroke-width="4px" />
<path d="M 750.0 185.0 L 760.0 195.0" stroke="#FF0000" fill="none" stroke-width="4px" />
<path d="M 760.0 195.0 L 770.0 195.0" stroke="#FF0000" fill="none" stroke-width="4px" />
<path d="M 770.0 195.0 L 780.0 195.0" stroke="#FF0000" fill="none" stroke-width="4px" />
<path d="M 780.0 195.0 L 790.0 195.0" stroke="#FF0000" fill="none" stroke-width="4px" />
<path d="M 790.0 195.0 L 800.0 195.0" stroke="#FF0000" fill="none" stroke-width="4px" />
<path d="M 800.0 195.0 L 810.0 195.0" stroke="#FF0000" fill="none" stroke-width="4px" />
<path d="M 810.0 195.0 L 820.0 195.0" stroke="#FF0000" fill="none" stroke-width="4px" />
<path d="M 820.0 195.0 L 820.0 205.0" stroke="#FF0000" fill="none" stroke-width="4px" />
<path d="M 820.0 205.0 L 810.0 205.0" stroke="#FF0000" fill="none" stroke-width="4px" />
<path d="M 810.0 205.0 L 800.0 205.0" stroke="#FF0000" fill="none" stroke-width="4px" />
<path d="M 800.0 205.0 L 790.0 205.0" stroke="#FF0000" fill="none" stroke-width="4px" />
<path d="M 790.0 205.0 L 780.0 205.0" stroke="#FF0000" fill="none" stroke-width="4px" />
<path d="M 780.0 205.0 L 770.0 205.0" stroke="#FF0000" fill="none" stroke-width="4px" />
<path d="M 770.0 205.0 L 770.0 215.0" stroke="#FF0000" fill="none" stroke-width="4px" />
<path d="M 770.0 215.0 L 780.0 215.0" stroke="#FF0000" fill="none" stroke-width="4px" />
<path d="M 780.0 215.0 L 790.0 215.0" stroke="#FF0000" fill="none" stroke-width="4px" />
<path d="M 790.0 215.0 L 800.0 215.0" stroke="#FF0000" fill="none" stroke-width="4px" />
<path d="M 800.0 215.0 L 810.0 215.0" stroke="#FF0000" fill="none" stroke-width="4px" />
<path d="M 810.0 215.0 L 820.0 215.0" stroke="#FF0000" fill="none" stroke-width="4px" />
<path d="M 820.0 215.0 L 810.0 225.0" stroke="#FF0000" fill="none" stroke-width="4px" />
<path d="M 810.0 225.0 L 800.0 225.0" stroke="#FF0000" fill="none" stroke-width="4px" />
<path d="M 800.0 225.0 L 790.0 225.0" stroke="#FF0000" fill="none" stroke-width="4px" />
<path d="M 790.0 225.0 L 780.0 225.0" stroke="#FF0000" fill="none" stroke-width="4px" />
<path d="M 800.0 165.0 L 790.0 165.0" stroke="#FF0000" fill="none" stroke-width="4px" />
<path d="M 790.0 165.0 L 780.0 165.0" stroke="#FF0000" fill="none" stroke-width="4px" />
<path d="M 780.0 165.0 L 770.0 165.0" stroke="#FF0000" fill="none" stroke-width="4px" />
<path d="M 770.0 165.0 L 760.0 165.0" stroke="#FF0000" fill="none" stroke-width="4px" />
<path d="M 760.0 165.0 L 750.0 165.0" stroke="#FF0000" fill="none" stroke-width="4px" />
<path d="M 750.0 165.0 L 740.0 165.0" stroke="#FF0000" fill="none" stroke-width="4px" />
<path d="M 740.0 165.0 L 750.0 155.0" stroke="#FF0000" fill="none" stroke-width="4px" />
<path d="M 750.0 155.0 L 760.0 155.0" stroke="#FF0000" fill="none" stroke-width="4px" />
<path d="M 760.0 155.0 L 770.0 155.0" stroke="#FF0000" fill="none" stroke-width="4px" />
<path d="M 770.0 155.0 L 780.0 155.0" stroke="#FF0000" fill="none" stroke-width="4px" />
<path d="M 780.0 155.0 L 790.0 155.0" stroke="#FF0000" fill="none" stroke-width="4px" />
<path d="M 790.0 155.0 L 800.0 155.0" stroke="#FF0000" fill="none" stroke-width="4px" />
<path d="M 800.0 155.0 L 800.0 145.0" stroke="#FF0000" fill="none" stroke-width="4px" />
<path d="M 800.0 145.0 L 790.0 145.0" stroke="#FF0000" fill="none" stroke-width="4px" />
<path d="M 790.0 145.0 L 780.0 145.0" stroke="#FF0000" fill="none" stroke-width="4px" />
<path d="M 780.0 145.0 L 770.0 145.0" stroke="#FF0000" fill="none" stroke-width="4px" />
<path d="M 770.0 145.0 L 760.0 145.0" stroke="#FF0000" fill="none" stroke-width="4px" />
<path d="M 760.0 145.0 L 770.0 135.0" stroke="#FF0000" fill="none" stroke-width="4px" />
<path d="M 770.0 135.0 L 780.0 135.0" stroke="#FF0000" fill="none" stroke-width="4px" />
<path d="M 780.0 135.0 L 790.0 135.0" stroke="#FF0000" fill="none" stroke-width="4px" />
<path d="M 790.0 135.0 L 800.0 135.0" stroke="#FF0000" fill="none" stroke-width="4px" />
<path d="M 800.0 135.0 L 810.0 135.0" stroke="#FF0000" fill="none" stroke-width="4px" />
<path d="M 810.0 135.0 L 820.0 135.0" stroke="#FF0000" fill="none" stroke-width="4px" />
<path d="M 820.0 135.0 L 820.0 125.0" stroke="#FF0000" fill="none" stroke-width="4px" />
<path d="M 820.0 125.0 L 810.0 125.0" stroke="#FF0000" fill="none" stroke-width="4px" />
<path d="M 810.0 125.0 L 800.0 125.0" stroke="#FF0000" fill="none" stroke-width="4px" />
<path d="M 800.0 125.0 L 790.0 125.0" stroke="#FF0000" fill="none" stroke-width="4px" />
<path d="M 790.0 125.0 L 780.0 125.0" stroke="#FF0000" fill="none" stroke-width="4px" />
<path d="M 780.0 125.0 L 770.0 125.0" stroke="#FF0000" fill="none" stroke-width="4px" />
<path d="M 770.0 125.0 L 770.0 115.0" stroke="#FF0000" fill="none" stroke-width="4px" />
<path d="M 770.0 115.0 L 760.0 115.0" stroke="#FF0000" fill="none" stroke-width="4px" />
<path d="M 760.0 115.0 L 760.0 105.0" stroke="#FF0000" fill="none" stroke-width="4px" />
<path d="M 760.0 105.0 L 770.0 105.0" stroke="#FF0000" fill="none" stroke-width="4px" />
<path d="M 770.0 105.0 L 780.0 105.0" stroke="#FF0000" fill="none" stroke-width="4px" />
<path d="M 780.0 105.0 L 790.0 105.0" stroke="#FF0000" fill="none" stroke-width="4px" />
<path d="M 790.0 105.0 L 800.0 105.0" stroke="#FF0000" fill="none" stroke-width="4px" />
<path d="M 800.0 105.0 L 810.0 105.0" stroke="#FF0000" fill="none" stroke-width="4px" />
<path d="M 810.0 105.0 L 820.0 105.0" stroke="#FF0000" fill="none" stroke-width="4px" />
<path d="M 820.0 105.0 L 820.0 115.0" stroke="#FF0000" fill="none" stroke-width="4px" />
<path d="M 820.0 115.0 L 810.0 115.0" stroke="#FF0000" fill="none" stroke-width="4px" />
<path d="M 810.0 115.0 L 800.0 115.0" stroke="#FF0000" fill="none" stroke-width="4px" />
<path d="M 800.0 115.0 L 790.0 115.0" stroke="#FF0000" fill="none" stroke-width="4px" />
<path d="M 790.0 115.0 L 780.0 115.0" stroke="#FF0000" fill="none" stroke-width="4px" />
<path d="M 780.0 95.0 L 770.0 95.0" stroke="#FF0000" fill="none" stroke-width="4px" />
<path d="M 770.0 95.0 L 760.0 95.0" stroke="#FF0000" fill="none" stroke-width="4px" />
<path d="M 760.0 95.0 L 770.0 85.0" stroke="#FF0000" fill="none" stroke-width="4px" />
<path d="M 770.0 85.0 L 780.0 85.0" stroke="#FF0000" fill="none" stroke-width="4px" />
<path d="M 780.0 85.0 L 790.0 85.0" stroke="#FF0000" fill="none" stroke-width="4px" />
<path d="M 790.0 85.0 L 800.0 85.0" stroke="#FF0000" fill="none" stroke-width="4px" />
<path d="M 800.0 85.0 L 800.0 95.0" stroke="#FF0000" fill="none" stroke-width="4px" />
<path d="M 800.0 95.0 L 790.0 95.0" stroke="#FF0000" fill="none" stroke-width="4px" />
<path d="M 790.0 95.0 L 810.0 95.0" stroke="#FF0000" fill="none" stroke-width="4px" />
<path d="M 920.0 115.0 L 930.0 115.0" stroke="#FF0000" fill="none" stroke-width="4px" />
<path d="M 930.0 115.0 L 940.0 115.0" stroke="#FF0000" fill="none" stroke-width="4px" />
<path d="M 940.0 115.0 L 950.0 115.0" stroke="#FF0000" fill="none" stroke-width="4px" />
<path d="M 950.0 115.0 L 960.0 115.0" stroke="#FF0000" fill="none" stroke-width="4px" />
<path d="M 960.0 115.0 L 970.0 115.0" stroke="#FF0000" fill="none" stroke-width="4px" />
<path d="M 970.0 115.0 L 980.0 115.0" stroke="#FF0000" fill="none" stroke-width="4px" />
<path d="M 980.0 115.0 L 990.0 115.0" stroke="#FF0000" fill="none" stroke-width="4px" />
<path d="M 990.0 115.0 L 1000.0 115.0" stroke="#FF0000" fill="none" stroke-width="4px" />
<path d="M 1000.0 115.0 L 1010.0 115.0" stroke="#FF0000" fill="none" stroke-width="4px" />
<path d="M 1010.0 115.0 L 1000.0 125.0" stroke="#FF0000" fill="none" stroke-width="4px" />
<path d="M 1000.0 125.0 L 990.0 125.0" stroke="#FF0000" fill="none" stroke-width="4px" />
<path d="M 990.0 125.0 L 980.0 125.0" stroke="#FF0000" fill="none" stroke-width="4px" />
<path d="M 980.0 125.0 L 970.0 125.0" stroke="#FF0000" fill="none" stroke-width="4px" />
<path d="M 970.0 125.0 L 960.0 125.0" stroke="#FF0000" fill="none" stroke-width="4px" />
<path d="M 960.0 125.0 L 950.0 125.0" stroke="#FF0000" fill="none" stroke-width="4px" />
<path d="M 950.0 125.0 L 940.0 125.0" stroke="#FF0000" fill="none" stroke-width="4px" />
<path d="M 940.0 125.0 L 930.0 125.0" stroke="#FF0000" fill="none" stroke-width="4px" />
<path d="M 930.0 125.0 L 930.0 135.0" stroke="#FF0000" fill="none" stroke-width="4px" />
<path d="M 930.0 135.0 L 940.0 135.0" stroke="#FF0000" fill="none" stroke-width="4px" />
<path d="M 940.0 135.0 L 950.0 135.0" stroke="#FF0000" fill="none" stroke-width="4px" />
<path d="M 950.0 135.0 L 960.0 135.0" stroke="#FF0000" fill="none" stroke-width="4px" />
<path d="M 960.0 135.0 L 970.0 135.0" stroke="#FF0000" fill="none" stroke-width="4px" />
<path d="M 970.0 135.0 L 980.0 135.0" stroke="#FF0000" fill="none" stroke-width="4px" />
<path d="M 980.0 135.0 L 990.0 135.0" stroke="#FF0000" fill="none" stroke-width="4px" />
<path d="M 990.0 135.0 L 1000.0 135.0" stroke="#FF0000" fill="none" stroke-width="4px" />
<path d="M 1000.0 135.0 L 990.0 145.0" stroke="#FF0000" fill="none" stroke-width="4px" />
<path d="M 990.0 145.0 L 980.0 145.0" stroke="#FF0000" fill="none" stroke-width="4px" />
<path d="M 980.0 145.0 L 970.0 145.0" stroke="#FF0000" fill="none" stroke-width="4px" />
<path d="M 970.0 145.0 L 960.0 145.0" stroke="#FF0000" fill="none" stroke-width="4px" />
<path d="M 960.0 145.0 L 950.0 145.0" stroke="#FF0000" fill="none" stroke-width="4px" />
<path d="M 950.0 145.0 L 940.0 145.0" stroke="#FF0000" fill="none" stroke-width="4px" />
<path d="M 940.0 145.0 L 950.0 155.0" stroke="#FF0000" fill="none" stroke-width="4px" />
<path d="M 950.0 155.0 L 960.0 155.0" stroke="#FF0000" fill="none" stroke-width="4px" />
<path d="M 960.0 155.0 L 970.0 155.0" stroke="#FF0000" fill="none" stroke-width="4px" />
<path d="M 970.0 155.0 L 980.0 155.0" stroke="#FF0000" fill="none" stroke-width="4px" />
<path d="M 960.0 105.0 L 950.0 105.0" stroke="#FF0000" fill="none" stroke-width="4px" />
<path d="M 950.0 105.0 L 940.0 105.0" stroke="#FF0000" fill="none" stroke-width="4px" />
<path d="M 940.0 105.0 L 930.0 105.0" stroke="#FF0000" fill="none" stroke-width="4px" />
<path d="M 930.0 105.0 L 920.0 105.0" stroke="#FF0000" fill="none" stroke-width="4px" />
<path d="M 920.0 105.0 L 920.0 95.0" stroke="#FF0000" fill="none" stroke-width="4px" />
<path d="M 920.0 95.0 L 930.0 95.0" stroke="#FF0000" fill="none" stroke-width="4px" />
<path d="M 930.0 95.0 L 940.0 95.0" stroke="#FF0000" fill="none" stroke-width="4px" />
<path d="M 940.0 95.0 L 950.0 95.0" stroke="#FF0000" fill="none" stroke-width="4px" />
<path d="M 950.0 95.0 L 960.0 95.0" stroke="#FF0000" fill="none" stroke-width="4px" />
<path d="M 960.0 95.0 L 970.0 95.0" stroke="#FF0000" fill="none" stroke-width="4px" />
<path d="M 970.0 95.0 L 980.0 95.0" stroke="#FF0000" fill="none" stroke-width="4px" />
<path d="M 980.0 95.0 L 990.0 95.0" stroke="#FF0000" fill="none" stroke-width="4px" />
<path d="M 990.0 95.0 L 990.0 105.0" stroke="#FF0000" fill="none" stroke-width="4px" />
<path d="M 990.0 105.0 L 980.0 105.0" stroke="#FF0000" fill="none" stroke-width="4px" />
<path d="M 980.0 105.0 L 970.0 105.0" stroke="#FF0000" fill="none" stroke-width="4px" />
<path d="M 970.0 85.0 L 960.0 85.0" stroke="#FF0000" fill="none" stroke-width="4px" />
<path d="M 960.0 85.0 L 950.0 85.0" stroke="#FF0000" fill="none" stroke-width="4px" />
<path d="M 950.0 85.0 L 940.0 85.0" stroke="#FF0000" fill="none" stroke-width="4px" />
<path d="M 940.0 85.0 L 930.0 85.0" stroke="#FF0000" fill="none" stroke-width="4px" />
<path d="M 930.0 85.0 L 940.0 75.0" stroke="#FF0000" fill="none" stroke-width="4px" />
<path d="M 940.0 75.0 L 950.0 75.0" stroke="#FF0000" fill="none" stroke-width="4px" />
<path d="M 950.0 75.0 L 960.0 75.0" stroke="#FF0000" fill="none" stroke-width="4px" />
<path d="M 1460.0 105.0 L 1470.0 105.0" stroke="#FF0000" fill="none" stroke-width="4px" />
<path d="M 1470.0 105.0 L 1480.0 105.0" stroke="#FF0000" fill="none" stroke-width="4px" />
<path d="M 1480.0 105.0 L 1490.0 105.0" stroke="#FF0000" fill="none" stroke-width="4px" />
<path d="M 1490.0 105.0 L 1500.0 105.0" stroke="#FF0000" fill="none" stroke-width="4px" />
<path d="M 1500.0 105.0 L 1510.0 105.0" stroke="#FF0000" fill="none" stroke-width="4px" />
<path d="M 1510.0 105.0 L 1520.0 105.0" stroke="#FF0000" fill="none" stroke-width="4px" />
<path d="M 1520.0 105.0 L 1520.0 115.0" stroke="#FF0000" fill="none" stroke-width="4px" />
<path d="M 1520.0 115.0 L 1510.0 115.0" stroke="#FF0000" fill="none" stroke-width="4px" />
<path d="M 1510.0 115.0 L 1500.0 115.0" stroke="#FF0000" fill="none" stroke-width="4px" />
<path d="M 1500.0 115.0 L 1490.0 115.0" stroke="#FF0000" fill="none" stroke-width="4px" />
<path d="M 1490.0 115.0 L 1480.0 115.0" stroke="#FF0000" fill="none" stroke-width="4px" />
<path d="M 1480.0 115.0 L 1470.0 115.0" stroke="#FF0000" fill="none" stroke-width="4px" />
<path d="M 1470.0 115.0 L 1460.0 115.0" stroke="#FF0000" fill="none" stroke-width="4px" />
<path d="M 1460.0 115.0 L 1470.0 125.0" stroke="#FF0000" fill="none" stroke-width="4px" />
<path d="M 1470.0 125.0 L 1480.0 125.0" stroke="#FF0000" fill="none" stroke-width="4px" />
<path d="M 1480.0 125.0 L 1490.0 125.0" stroke="#FF0000" fill="none" stroke-width="4px" />
<path d="M 1490.0 125.0 L 1500.0 125.0" stroke="#FF0000" fill="none" stroke-width="4px" />
<path d="M 1500.0 125.0 L 1510.0 125.0" stroke="#FF0000" fill="none" stroke-width="4px" />
<path d="M 1510.0 125.0 L 1520.0 125.0" stroke="#FF0000" fill="none" stroke-width="4px" />
<path d="M 1520.0 125.0 L 1530.0 125.0" stroke="#FF0000" fill="none" stroke-width="4px" />
<path d="M 1530.0 125.0 L 1540.0 125.0" stroke="#FF0000" fill="none" stroke-width="4px" />
<path d="M 1540.0 125.0 L 1540.0 135.0" stroke="#FF0000" fill="none" stroke-width="4px" />
<path d="M 1540.0 135.0 L 1530.0 135.0" stroke="#FF0000" fill="none" stroke-width="4px" />
<path d="M 1530.0 135.0 L 1520.0 135.0" stroke="#FF0000" fill="none" stroke-width="4px" />
<path d="M 1520.0 135.0 L 1510.0 135.0" stroke="#FF0000" fill="none" stroke-width="4px" />
<path d="M 1510.0 135.0 L 1500.0 135.0" stroke="#FF0000" fill="none" stroke-width="4px" />
<path d="M 1500.0 135.0 L 1490.0 135.0" stroke="#FF0000" fill="none" stroke-width="4px" />
<path d="M 1490.0 135.0 L 1480.0 135.0" stroke="#FF0000" fill="none" stroke-width="4px" />
<path d="M 1480.0 135.0 L 1480.0 145.0" stroke="#FF0000" fill="none" stroke-width="4px" />
<path d="M 1480.0 145.0 L 1490.0 145.0" stroke="#FF0000" fill="none" stroke-width="4px" />
<path d="M 1490.0 145.0 L 1500.0 145.0" stroke="#FF0000" fill="none" stroke-width="4px" />
<path d="M 1500.0 145.0 L 1510.0 145.0" stroke="#FF0000" fill="none" stroke-width="4px" />
<path d="M 1510.0 145.0 L 1520.0 145.0" stroke="#FF0000" fill="none" stroke-width="4px" />
<path d="M 1520.0 145.0 L 1530.0 145.0" stroke="#FF0000" fill="none" stroke-width="4px" />
<path d="M 1530.0 145.0 L 1540.0 145.0" stroke="#FF0000" fill="none" stroke-width="4px" />
<path d="M 1540.0 145.0 L 1550.0 145.0" stroke="#FF0000" fill="none" stroke-width="4px" />
<path d="M 1550.0 145.0 L 1550.0 155.0" stroke="#FF0000" fill="none" stroke-width="4px" />
<path d="M 1550.0 155.0 L 1540.0 155.0" stroke="#FF0000" fill="none" stroke-width="4px" />
<path d="M 1540.0 155.0 L 1530.0 155.0" stroke="#FF0000" fill="none" stroke-width="4px" />
<path d="M 1530.0 155.0 L 1520.0 155.0" stroke="#FF0000" fill="none" stroke-width="4px" />
<path d="M 1520.0 155.0 L 1510.0 155.0" stroke="#FF0000" fill="none" stroke-width="4px" />
<path d="M 1510.0 155.0 L 1500.0 155.0" stroke="#FF0000" fill="none" stroke-width="4px" />
<path d="M 1500.0 155.0 L 1490.0 155.0" stroke="#FF0000" fill="none" stroke-width="4px" />
<path d="M 1490.0 155.0 L 1480.0 155.0" stroke="#FF0000" fill="none" stroke-width="4px" />
<path d="M 1480.0 155.0 L 1490.0 165.0" stroke="#FF0000" fill="none" stroke-width="4px" />
<path d="M 1490.0 165.0 L 1500.0 165.0" stroke="#FF0000" fill="none" stroke-width="4px" />
<path d="M 1500.0 165.0 L 1510.0 165.0" stroke="#FF0000" fill="none" stroke-width="4px" />
<path d="M 1510.0 165.0 L 1520.0 165.0" stroke="#FF0000" fill="none" stroke-width="4px" />
<path d="M 1520.0 165.0 L 1530.0 165.0" stroke="#FF0000" fill="none" stroke-width="4px" />
<path d="M 1530.0 165.0 L 1540.0 165.0" stroke="#FF0000" fill="none" stroke-width="4px" />
<path d="M 1540.0 165.0 L 1550.0 165.0" stroke="#FF0000" fill="none" stroke-width="4px" />
<path d="M 1550.0 165.0 L 1560.0 165.0" stroke="#FF0000" fill="none" stroke-width="4px" />
<path d="M 1560.0 165.0 L 1570.0 165.0" stroke="#FF0000" fill="none" stroke-width="4px" />
<path d="M 1570.0 165.0 L 1570.0 175.0" stroke="#FF0000" fill="none" stroke-width="4px" />
<path d="M 1570.0 175.0 L 1560.0 175.0" stroke="#FF0000" fill="none" stroke-width="4px" />
<path d="M 1560.0 175.0 L 1550.0 175.0" stroke="#FF0000" fill="none" stroke-width="4px" />
<path d="M 1550.0 175.0 L 1540.0 175.0" stroke="#FF0000" fill="none" stroke-width="4px" />
<path d="M 1540.0 175.0 L 1530.0 175.0" stroke="#FF0000" fill="none" stroke-width="4px" />
<path d="M 1530.0 175.0 L 1520.0 175.0" stroke="#FF0000" fill="none" stroke-width="4px" />
<path d="M 1520.0 175.0 L 1510.0 175.0" stroke="#FF0000" fill="none" stroke-width="4px" />
<path d="M 1510.0 175.0 L 1500.0 175.0" stroke="#FF0000" fill="none" stroke-width="4px" />
<path d="M 1500.0 175.0 L 1510.0 185.0" stroke="#FF0000" fill="none" stroke-width="4px" />
<path d="M 1510.0 185.0 L 1520.0 185.0" stroke="#FF0000" fill="none" stroke-width="4px" />
<path d="M 1520.0 185.0 L 1530.0 185.0" stroke="#FF0000" fill="none" stroke-width="4px" />
<path d="M 1530.0 185.0 L 1540.0 185.0" stroke="#FF0000" fill="none" stroke-width="4px" />
<path d="M 1540.0 185.0 L 1550.0 185.0" stroke="#FF0000" fill="none" stroke-width="4px" />
<path d="M 1550.0 185.0 L 1560.0 185.0" stroke="#FF0000" fill="none" stroke-width="4px" />
<path d="M 1560.0 185.0 L 1570.0 185.0" stroke="#FF0000" fill="none" stroke-width="4px" />
<path d="M 1570.0 185.0 L 1560.0 195.0" stroke="#FF0000" fill="none" stroke-width="4px" />
<path d="M 1560.0 195.0 L 1550.0 195.0" stroke="#FF0000" fill="none" stroke-width="4px" />
<path d="M 1550.0 195.0 L 1540.0 195.0" stroke="#FF0000" fill="none" stroke-width="4px" />
<path d="M 1540.0 195.0 L 1530.0 195.0" stroke="#FF0000" fill="none" stroke-width="4px" />
<path d="M 1530.0 195.0 L 1520.0 195.0" stroke="#FF0000" fill="none" stroke-width="4px" />
<path d="M 1520.0 195.0 L 1510.0 195.0" stroke="#FF0000" fill="none" stroke-width="4px" />
<path d="M 1510.0 195.0 L 1520.0 205.0" stroke="#FF0000" fill="none" stroke-width="4px" />
<path d="M 1520.0 205.0 L 1530.0 205.0" stroke="#FF0000" fill="none" stroke-width="4px" />
<path d="M 1530.0 205.0 L 1540.0 205.0" stroke="#FF0000" fill="none" stroke-width="4px" />
<path d="M 1540.0 205.0 L 1550.0 205.0" stroke="#FF0000" fill="none" stroke-width="4px" />
<path d="M 1510.0 95.0 L 1500.0 95.0" stroke="#FF0000" fill="none" stroke-width="4px" />
<path d="M 1500.0 95.0 L 1490.0 95.0" stroke="#FF0000" fill="none" stroke-width="4px" />
<path d="M 1490.0 95.0 L 1480.0 95.0" stroke="#FF0000" fill="none" stroke-width="4px" />
<path d="M 1480.0 95.0 L 1470.0 95.0" stroke="#FF0000" fill="none" stroke-width="4px" />
<path d="M 1470.0 95.0 L 1480.0 85.0" stroke="#FF0000" fill="none" stroke-width="4px" />
<path d="M 1480.0 85.0 L 1490.0 85.0" stroke="#FF0000" fill="none" stroke-width="4px" />
<path d="M 1490.0 85.0 L 1500.0 85.0" stroke="#FF0000" fill="none" stroke-width="4px" />
</svg>