<svg width="1383.75833333" height="235.0" xmlns="http://www.w3.org/2000/svg" version="1.1">
<path d="M 0.0 235.0 L 1383.75833333 235.0 L 1383.75833333 0.0 L 0.0 0.0 L 0.0 235.0" stroke="#000000" fill="none" stroke-width="3px" />
<path d="M 10.0 257.5 L 0.0 247.5 L 10.0 237.5" stroke="#969696" fill="none" stroke-width="1px" />
<path d="M 10.0 237.5 L 1373.75833333 237.5" stroke="#969696" fill="none" stroke-width="1px" />
<path d="M 1373.75833333 237.5 L 1383.75833333 227.5 L 1373.75833333 217.5" stroke="#969696" fill="none" stroke-width="1px" />
<path d="M 1373.75833333 217.5 L 10.0 217.5" stroke="#969696" fill="none" stroke-width="1px" />
<path d="M 10.0 217.5 L 0.0 207.5 L 10.0 197.5" stroke="#969696" fill="none" stroke-width="1px" />
<path d="M 10.0 197.5 L 1373.75833333 197.5" stroke="#969696" fill="none" stroke-width="1px" />
<path d="M 1373.75833333 197.5 L 1383.75833333 187.5 L 1373.75833333 177.5" stroke="#969696" fill="none" stroke-width="1px" />
<path d="M 1373.75833333 177.5 L 10.0 177.5" stroke="#969696" fill="none" stroke-width="1px" />
<path d="M 10.0 177.5 L 0.0 167.5 L 10.0 157.5" stroke="#969696" fill="none" stroke-width="1px" />
<path d="M 10.0 157.5 L 1373.75833333 157.5" stroke="#969696" fill="none" stroke-width="1px" />
<path d="M 1373.75833333 157.5 L 1383.75833333 147.5 L 1373.75833333 137.5" stroke="#969696" fill="none" stroke-width="1px" />
<path d="M 1373.75833333 137.5 L 10.0 137.5" stroke="#969696" fill="none" stroke-width="1px" />
<path d="M 10.0 137.5 L 0.0 127.5 L 10.0 117.5" stroke="#969696" fill="none" stroke-width="1px" />
<path d="M 10.0 117.5 L 1373.75833333 117.5" stroke="#969696" fill="none" stroke-width="1px" />
<path d="M 1373.75833333 117.5 L 1383.75833333 107.5 L 1373.75833333 97.5" stroke="#969696" fill="none" stroke-width="1px" />
<path d="M 1373.75833333 97.5 L 10.0 97.5" stroke="#969696" fill="none" stroke-width="1px" />
<path d="M 10.0 97.5 L 0.0 87.5 L 10.0 77.5" stroke="#969696" fill="none" stroke-width="1px" />
<path d="M 10.0 77.5 L 1373.75833333 77.5" stroke="#969696" fill="none" stroke-width="1px" />
<path d="M 1373.75833333 77.5 L 1383.75833333 67.5 L 1373.75833333 57.5" stroke="#969696" fill="none" stroke-width="1px" />
<path d="M 1373.75833333 57.5 L 10.0 57.5" stroke="#969696" fill="none" stroke-width="1px" />
<path d="M 10.0 57.5 L 0.0 47.5 L 10.0 37.5" stroke="#969696" fill="none" stroke-width="1px" />
<path d="M 10.0 37.5 L 1373.75833333 37.5" stroke="#969696" fill="none" stroke-width="1px" />
<path d="M 1373.75833333 37.5 L 1383.75833333 27.5 L 1373.75833333 17.5" stroke="#969696" fill="none" stroke-width="1px" />
<path d="M 1373.75833333 17.5 L 10.0 17.5" stroke="#969696" fill="none" stroke-width="1px" />
<path d="M 10.0 17.5 L 0.0 7.5 L 10.0 -2.5" stroke="#969696" fill="none" stroke-width="1px" />
<path d="M 10.0 -2.5 L 1373.75833333 -2.5" stroke="#969696" fill="none" stroke-width="1px" />
<path d="M 1373.75833333 -2.5 L 1383.75833333 -12.5 L 1373.75833333 -22.5" stroke="#969696" fill="none" stroke-width="1px" />
<path d="M 0.0 235.0 L 306.241666665 235.0" stroke="#0095FF" fill="none" stroke-width="2px" />
<path d="M 306.241666665 235.0 L 306.241666665 185.0" stroke="#0095FF" fill="none" stroke-width="2px" />
<path d="M 356.241666665 135.0 L 356.241666665 195.0" stroke="#0095FF" fill="none" stroke-width="2px" />
<path d="M 386.241666665 195.0 L 346.241666665 195.0" stroke="#0095FF" fill="none" stroke-width="2px" />
<path d="M 346.241666665 195.0 L 346.241666665 215.0" stroke="#0095FF" fill="none" stroke-width="2px" />
<path d="M 326.241666665 215.0 L 816.241666665 215.0" stroke="#0095FF" fill="none" stroke-width="2px" />
<path d="M 816.241666665 215.0 L 816.241666665 195.0" stroke="#0095FF" fill="none" stroke-width="2px" />
<path d="M 906.241666665 235.0 L 906.241666665 185.0" stroke="#0095FF" fill="none" stroke-width="2px" />
<path d="M 916.241666665 185.0 L 896.241666665 185.0" stroke="#0095FF" fill="none" stroke-width="2px" />
<path d="M 896.241666665 185.0 L 896.241666665 165.0" stroke="#0095FF" fill="none" stroke-width="2px" />
<path d="M 866.241666665 145.0 L 876.241666665 145.0" stroke="#0095FF" fill="none" stroke-width="2px" />
<path d="M 876.241666665 145.0 L 876.241666665 55.0" stroke="#0095FF" fill="none" stroke-width="2px" />
<path d="M 876.241666665 35.0 L 896.241666665 35.0" stroke="#0095FF" fill="none" stroke-width="2px" />
<path d="M 896.241666665 35.0 L 896.241666665 45.0" stroke="#0095FF" fill="none" stroke-width="2px" />
<path d="M 896.241666665 45.0 L 896.241666665 15.0" stroke="#0095FF" fill="none" stroke-width="2px" />
<path d="M 906.241666665 15.0 L 886.241666665 15.0" stroke="#0095FF" fill="none" stroke-width="2px" />
<path d="M 886.241666665 15.0 L 886.241666665 -5.0" stroke="#0095FF" fill="none" stroke-width="2px" />
<path d="M 876.241666665 -5.0 L 1026.24166667 -5.0" stroke="#0095FF" fill="none" stroke-width="2px" />
<path d="M 1026.24166667 -5.0 L 1026.24166667 45.0" stroke="#0095FF" fill="none" stroke-width="2px" />
<path d="M 1046.24166667 65.0 L 1046.24166667 35.0" stroke="#0095FF" fill="none" stroke-width="2px" />
<path d="M 306.241666665 185.0 L 316.241666665 185.0" stroke="#FF0000" fill="none" stroke-width="4px" />
<path d="M 316.241666665 185.0 L 326.241666665 185.0" stroke="#FF0000" fill="none" stroke-width="4px" />
<path d="M 326.241666665 185.0 L 336.241666665 185.0" stroke="#FF0000" fill="none" stroke-width="4px" />
<path d="M 336.241666665 185.0 L 346.241666665 185.0" stroke="#FF0000" fill="none" stroke-width="4px" />
<path d="M 346.241666665 185.0 L 356.241666665 185.0" stroke="#FF0000" fill="none" stroke-width="4px" />
<path d="M 356.241666665 185.0 L 366.241666665 185.0" stroke="#FF0000" fill="none" stroke-width="4px" />
<path d="M 366.241666665 185.0 L 376.241666665 185.0" stroke="#FF0000" fill="none" stroke-width="4px" />
<path d="M 376.241666665 185.0 L 386.241666665 185.0" stroke="#FF0000" fill="none" stroke-width="4px" />
<path d="M 386.241666665 185.0 L 396.241666665 185.0" stroke="#FF0000" fill="none" stroke-width="4px" />
<path d="M 396.241666665 185.0 L 396.241666665 175.0" stroke="#FF0000" fill="none" stroke-width="4px" />
<path d="M 396.241666665 175.0 L 386.241666665 175.0" stroke="#FF0000" fill="none" stroke-width="4px" />
<path d="M 386.241666665 175.0 L 376.241666665 175.0" stroke="#FF0000" fill="none" stroke-width="4px" />
<path d="M 376.241666665 175.0 L 366.241666665 175.0" stroke="#FF0000" fill="none" stroke-width="4px" />
<path d="M 366.241666665 175.0 L 356.241666665 175.0" stroke="#FF0000" fill="none" stroke-width="4px" />
<path d="M 356.241666665 175.0 L 346.241666665 175.0" stroke="#FF0000" fill="none" stroke-width="4px" />
<path d="M 346.241666665 175.0 L 336.241666665 175.0" stroke="#FF0000" fill="none" stroke-width="4px" />
<path d="M 336.241666665 175.0 L 326.241666665 175.0" stroke="#FF0000" fill="none" stroke-width="4px" />
<path d="M 326.241666665 175.0 L 316.241666665 175.0" stroke="#FF0000" fill="none" stroke-width="4px" />
<path d="M 316.241666665 175.0 L 306.241666665 175.0" stroke="#FF0000" fill="none" stroke-width="4px" />
<path d="M 306.241666665 175.0 L 306.241666665 165.0" stroke="#FF0000" fill="none" stroke-width="4px" />
<path d="M 306.241666665 165.0 L 316.241666665 165.0" stroke="#FF0000" fill="none" stroke-width="4px" />
<path d="M 316.241666665 165.0 L 326.241666665 165.0" stroke="#FF0000" fill="none" stroke-width="4px" />
<path d="M 326.241666665 165.0 L 336.241666665 165.0" stroke="#FF0000" fill="none" stroke-width="4px" />
<path d="M 336.241666665 165.0 L 346.241666665 165.0" stroke="#FF0000" fill="none" stroke-width="4px" />
<path d="M 346.241666665 165.0 L 356.241666665 165.0" stroke="#FF0000" fill="none" stroke-width="4px" />
<path d="M 356.241666665 165.0 L 366.241666665 165.0" stroke="#FF0000" fill="none" stroke-width="4px" />
<path d="M 366.241666665 165.0 L 376.241666665 165.0" stroke="#FF0000" fill="none" stroke-width="4px" />
<path d="M 376.241666665 165.0 L 386.241666665 165.0" stroke="#FF0000" fill="none" stroke-width="4px" />
<path d="M 386.241666665 165.0 L 396.241666665 165.0" stroke="#FF0000" fill="none" stroke-width="4px" />
<path d="M 396.241666665 165.0 L 406.241666665 165.0" stroke="#FF0000" fill="none" stroke-width="4px" />
<path d="M 406.241666665 165.0 L 406.241666665 155.0" stroke="#FF0000" fill="none" stroke-width="4px" />
<path d="M 406.241666665 155.0 L 396.241666665 155.0" stroke="#FF0000" fill="none" stroke-width="4px" />
<path d="M 396.241666665 155.0 L 386.241666665 155.0" stroke="#FF0000" fill="none" stroke-width="4px" />
<path d="M 386.241666665 155.0 L 376.241666665 155.0" stroke="#FF0000" fill="none" stroke-width="4px" />
<path d="M 376.241666665 155.0 L 366.241666665 155.0" stroke="#FF0000" fill="none" stroke-width="4px" />
<path d="M 366.241666665 155.0 L 356.241666665 155.0" stroke="#FF0000" fill="none" stroke-width="4px" />
<path d="M 356.241666665 155.0 L 346.241666665 155.0" stroke="#FF0000" fill="none" stroke-width="4px" />
<path d="M 346.241666665 155.0 L 336.241666665 155.0" stroke="#FF0000" fill="none" stroke-width="4px" />
<path d="M 336.241666665 155.0 L 326.241666665 155.0" stroke="#FF0000" fill="none" stroke-width="4px" />
<path d="M 326.241666665 155.0 L 316.241666665 155.0" stroke="#FF0000" fill="none" stroke-width="4px" />
<path d="M 316.241666665 155.0 L 326.241666665 145.0" stroke="#FF0000" fill="none" stroke-width="4px" />
<path d="M 326.241666665 145.0 L 336.241666665 145.0" stroke="#FF0000" fill="none" stroke-width="4px" />
<path d="M 336.241666665 145.0 L 346.241666665 145.0" stroke="#FF0000" fill="none" stroke-width="4px" />
<path d="M 346.241666665 145.0 L 356.241666665 145.0" stroke="#FF0000" fill="none" stroke-width="4px" />
<path d="M 356.241666665 145.0 L 366.241666665 145.0" stroke="#FF0000" fill="none" stroke-width="4px" />
<path d="M 366.241666665 145.0 L 376.241666665 145.0" stroke="#FF0000" fill="none" stroke-width="4px" />
<path d="M 376.241666665 145.0 L 386.241666665 145.0" stroke="#FF0000" fill="none" stroke-width="4px" />
<path d="M 386.241666665 145.0 L 396.241666665 145.0" stroke="#FF0000" fill="none" stroke-width="4px" />
<path d="M 396.241666665 145.0 L 386.241666665 135.0" stroke="#FF0000" fill="none" stroke-width="4px" />
<path d="M 386.241666665 135.0 L 376.241666665 135.0" stroke="#FF0000" fill="none" stroke-width="4px" />
<path d="M 376.241666665 135.0 L 366.241666665 135.0" stroke="#FF0000" fill="none" stroke-width="4px" />
<path d="M 366.241666665 135.0 L 356.241666665 135.0" stroke="#FF0000" fill="none" stroke-width="4px" />
<path d="M 356.241666665 195.0 L 346.241666665 195.0" stroke="#FF0000" fill="none" stroke-width="4px" />
<path d="M 346.241666665 195.0 L 336.241666665 195.0" stroke="#FF0000" fill="none" stroke-width="4px" />
<path d="M 336.241666665 195.0 L 326.241666665 195.0" stroke="#FF0000" fill="none" stroke-width="4px" />
<path d="M 326.241666665 195.0 L 316.241666665 195.0" stroke="#FF0000" fill="none" stroke-width="4px" />
<path d="M 316.241666665 195.0 L 316.241666665 205.0" stroke="#FF0000" fill="none" stroke-width="4px" />
<path d="M 316.241666665 205.0 L 326.241666665 205.0" stroke="#FF0000" fill="none" stroke-width="4px" />
<path d="M 326.241666665 205.0 L 336.241666665 205.0" stroke="#FF0000" fill="none" stroke-width="4px" />
<path d="M 336.241666665 205.0 L 346.241666665 205.0" stroke="#FF0000" fill="none" stroke-width="4px" />
<path d="M 346.241666665 205.0 L 356.241666665 205.0" stroke="#FF0000" fill="none" stroke-width="4px" />
<path d="M 356.241666665 205.0 L 366.241666665 205.0" stroke="#FF0000" fill="none" stroke-width="4px" />
<path d="M 366.241666665 205.0 L 376.241666665 205.0" stroke="#FF0000" fill="none" stroke-width="4px" />
<path d="M 376.241666665 205.0 L 376.241666665 195.0" stroke="#FF0000" fill="none" stroke-width="4px" />
<path d="M 376.241666665 195.0 L 366.241666665 195.0" stroke="#FF0000" fill="none" stroke-width="4px" />
<path d="M 366.241666665 195.0 L 386.241666665 195.0" stroke="#FF0000" fill="none" stroke-width="4px" />
<path d="M 346.241666665 215.0 L 336.241666665 215.0" stroke="#FF0000" fill="none" stroke-width="4px" />
<path d="M 336.241666665 215.0 L 326.241666665 215.0" stroke="#FF0000" fill="none" stroke-width="4px" />
<path d="M 816.241666665 195.0 L 826.241666665 195.0" stroke="#FF0000" fill="none" stroke-width="4px" />
<path d="M 826.241666665 195.0 L 836.241666665 195.0" stroke="#FF0000" fill="none" stroke-width="4px" />
<path d="M 836.241666665 195.0 L 846.241666665 195.0" stroke="#FF0000" fill="none" stroke-width="4px" />
<path d="M 846.241666665 195.0 L 856.241666665 195.0" stroke="#FF0000" fill="none" stroke-width="4px" />
<path d="M 856.241666665 195.0 L 866.241666665 195.0" stroke="#FF0000" fill="none" stroke-width="4px" />
<path d="M 866.241666665 195.0 L 876.241666665 195.0" stroke="#FF0000" fill="none" stroke-width="4px" />
<path d="M 876.241666665 195.0 L 886.241666665 195.0" stroke="#FF0000" fill="none" stroke-width="4px" />
<path d="M 886.241666665 195.0 L 896.241666665 195.0" stroke="#FF0000" fill="none" stroke-width="4px" />
<path d="M 896.241666665 195.0 L 906.241666665 195.0" stroke="#FF0000" fill="none" stroke-width="4px" />
<path d="M 906.241666665 195.0 L 916.241666665 195.0" stroke="#FF0000" fill="none" stroke-width="4px" />
<path d="M 916.241666665 195.0 L 916.241666665 205.0" stroke="#FF0000" fill="none" stroke-width="4px" />
<path d="M 916.241666665 205.0 L 906.241666665 205.0" stroke="#FF0000" fill="none" stroke-width="4px" />
<path d="M 906.241666665 205.0 L 896.241666665 205.0" stroke="#FF0000" fill="none" stroke-width="4px" />
<path d="M 896.241666665 205.0 L 886.241666665 205.0" stroke="#FF0000" fill="none" stroke-width="4px" />
<path d="M 886.241666665 205.0 L 876.241666665 205.0" stroke="#FF0000" fill="none" stroke-width="4px" />
<path d="M 876.241666665 205.0 L 866.241666665 205.0" stroke="#FF0000" fill="none" stroke-width="4px" />
<path d="M 866.241666665 205.0 L 856.241666665 205.0" stroke="#FF0000" fill="none" stroke-width="4px" />
<path d="M 856.241666665 205.0 L 846.241666665 205.0" stroke="#FF0000" fill="none" stroke-width="4px" />
<path d="M 846.241666665 205.0 L 836.241666665 205.0" stroke="#FF0000" fill="none" stroke-width="4px" />
<path d="M 836.241666665 205.0 L 826.241666665 205.0" stroke="#FF0000" fill="none" stroke-width="4px" />
<path d="M 826.241666665 205.0 L 826.241666665 215.0" stroke="#FF0000" fill="none" stroke-width="4px" />
<path d="M 826.241666665 215.0 L 836.241666665 215.0" stroke="#FF0000" fill="none" stroke-width="4px" />
<path d="M 836.241666665 215.0 L 846.241666665 215.0" stroke="#FF0000" fill="none" stroke-width="4px" />
<path d="M 846.241666665 215.0 L 856.241666665 215.0" stroke="#FF0000" fill="none" stroke-width="4px" />
<path d="M 856.241666665 215.0 L 866.241666665 215.0" stroke="#FF0000" fill="none" stroke-width="4px" />
<path d="M 866.241666665 215.0 L 876.241666665 215.0" stroke="#FF0000" fill="none" stroke-width="4px" />
<path d="M 876.241666665 215.0 L 886.241666665 215.0" stroke="#FF0000" fill="none" stroke-width="4px" />
<path d="M 886.241666665 215.0 L 896.241666665 215.0" stroke="#FF0000" fill="none" stroke-width="4px" />
<path d="M 896.241666665 215.0 L 906.241666665 215.0" stroke="#FF0000" fill="none" stroke-width="4px" />
<path d="M 906.241666665 215.0 L 916.241666665 215.0" stroke="#FF0000" fill="none" stroke-width="4px" />
<path d="M 916.241666665 215.0 L 916.241666665 225.0" stroke="#FF0000" fill="none" stroke-width="4px" />
<path d="M 916.241666665 225.0 L 906.241666665 225.0" stroke="#FF0000" fill="none" stroke-width="4px" />
<path d="M 906.241666665 225.0 L 896.241666665 225.0" stroke="#FF0000" fill="none" stroke-width="4px" />
<path d="M 896.241666665 225.0 L 886.241666665 225.0" stroke="#FF0000" fill="none" stroke-width="4px" />
<path d="M 886.241666665 225.0 L 876.241666665 225.0" stroke="#FF0000" fill="none" stroke-width="4px" />
<path d="M 876.241666665 225.0 L 866.241666665 225.0" stroke="#FF0000" fill="none" stroke-width="4px" />
<path d="M 866.241666665 225.0 L 856.241666665 225.0" stroke="#FF0000" fill="none" stroke-width="4px" />
<path d="M 856.241666665 225.0 L 846.241666665 225.0" stroke="#FF0000" fill="none" stroke-width="4px" />
<path d="M 846.241666665 225.0 L 836.241666665 225.0" stroke="#FF0000" fill="none" stroke-width="4px" />
<path d="M 836.241666665 225.0 L 846.241666665 235.0" stroke="#FF0000" fill="none" stroke-width="4px" />
<path d="M 846.241666665 235.0 L 856.241666665 235.0" stroke="#FF0000" fill="none" stroke-width="4px" />
<path d="M 856.241666665 235.0 L 866.241666665 235.0" stroke="#FF0000" fill="none" stroke-width="4px" />
<path d="M 866.241666665 235.0 L 876.241666665 235.0" stroke="#FF0000" fill="none" stroke-width="4px" />
<path d="M 876.241666665 235.0 L 886.241666665 235.0" stroke="#FF0000" fill="none" stroke-width="4px" />
<path d="M 886.241666665 235.0 L 896.241666665 235.0" stroke="#FF0000" fill="none" stroke-width="4px" />
<path d="M 896.241666665 235.0 L 906.241666665 235.0" stroke="#FF0000" fill="none" stroke-width="4px" />
<path d="M 906.241666665 185.0 L 896.241666665 185.0" stroke="#FF0000" fill="none" stroke-width="4px" />
<path d="M 896.241666665 185.0 L 886.241666665 185.0" stroke="#FF0000" fill="none" stroke-width="4px" />
<path d="M 886.241666665 185.0 L 876.241666665 185.0" stroke="#FF0000" fill="none" stroke-width="4px" />
<path d="M 876.241666665 185.0 L 866.241666665 185.0" stroke="#FF0000" fill="none" stroke-width="4px" />
<path d="M 866.241666665 185.0 L 856.241666665 185.0" stroke="#FF0000" fill="none" stroke-width="4px" />
<path d="M 856.241666665 185.0 L 846.241666665 185.0" stroke="#FF0000" fill="none" stroke-width="4px" />
<path d="M 846.241666665 185.0 L 836.241666665 185.0" stroke="#FF0000" fill="none" stroke-width="4px" />
<path d="M 836.241666665 185.0 L 826.241666665 185.0" stroke="#FF0000" fill="none" stroke-width="4px" />
<path d="M 826.241666665 185.0 L 836.241666665 175.0" stroke="#FF0000" fill="none" stroke-width="4px" />
<path d="M 836.241666665 175.0 L 846.241666665 175.0" stroke="#FF0000" fill="none" stroke-width="4px" />
<path d="M 846.241666665 175.0 L 856.241666665 175.0" stroke="#FF0000" fill="none" stroke-width="4px" />
<path d="M 856.241666665 175.0 L 866.241666665 175.0" stroke="#FF0000" fill="none" stroke-width="4px" />
<path d="M 866.241666665 175.0 L 876.241666665 175.0" stroke="#FF0000" fill="none" stroke-width="4px" />
<path d="M 876.241666665 175.0 L 886.241666665 175.0" stroke="#FF0000" fill="none" stroke-width="4px" />
<path d="M 886.241666665 175.0 L 896.241666665 175.0" stroke="#FF0000" fill="none" stroke-width="4px" />
<path d="M 896.241666665 175.0 L 906.241666665 175.0" stroke="#FF0000" fill="none" stroke-width="4px" />
<path d="M 906.241666665 175.0 L 916.241666665 185.0" stroke="#FF0000" fill="none" stroke-width="4px" />
<path d="M 896.241666665 165.0 L 886.241666665 165.0" stroke="#FF0000" fill="none" stroke-width="4px" />
<path d="M 886.241666665 165.0 L 876.241666665 165.0" stroke="#FF0000" fill="none" stroke-width="4px" />
<path d="M 876.241666665 165.0 L 866.241666665 165.0" stroke="#FF0000" fill="none" stroke-width="4px" />
<path d="M 866.241666665 165.0 L 856.241666665 165.0" stroke="#FF0000" fill="none" stroke-width="4px" />
<path d="M 856.241666665 165.0 L 846.241666665 165.0" stroke="#FF0000" fill="none" stroke-width="4px" />
<path d="M 846.241666665 165.0 L 856.241666665 155.0" stroke="#FF0000" fill="none" stroke-width="4px" />
<path d="M 856.241666665 155.0 L 866.241666665 155.0" stroke="#FF0000" fill="none" stroke-width="4px" />
<path d="M 866.241666665 155.0 L 876.241666665 155.0" stroke="#FF0000" fill="none" stroke-width="4px" />
<path d="M 876.241666665 155.0 L 886.241666665 155.0" stroke="#FF0000" fill="none" stroke-width="4px" />
<path d="M 886.241666665 155.0 L 876.241666665 145.0" stroke="#FF0000" fill="none" stroke-width="4px" />
<path d="M 876.241666665 145.0 L 866.241666665 145.0" stroke="#FF0000" fill="none" stroke-width="4px" />
<path d="M 876.241666665 55.0 L 886.241666665 55.0" stroke="#FF0000" fill="none" stroke-width="4px" />
<path d="M 886.241666665 55.0 L 886.241666665 45.0" stroke="#FF0000" fill="none" stroke-width="4px" />
<path d="M 886.241666665 45.0 L 876.241666665 45.0" stroke="#FF0000" fill="none" stroke-width="4px" />
<path d="M 876.241666665 45.0 L 866.241666665 45.0" stroke="#FF0000" fill="none" stroke-width="4px" />
<path d="M 866.241666665 45.0 L 866.241666665 35.0" stroke="#FF0000" fill="none" stroke-width="4px" />
<path d="M 866.241666665 35.0 L 856.241666665 35.0" stroke="#FF0000" fill="none" stroke-width="4px" />
<path d="M 856.241666665 35.0 L 856.241666665 25.0" stroke="#FF0000" fill="none" stroke-width="4px" />
<path d="M 856.241666665 25.0 L 866.241666665 25.0" stroke="#FF0000" fill="none" stroke-width="4px" />
<path d="M 866.241666665 25.0 L 876.241666665 25.0" stroke="#FF0000" fill="none" stroke-width="4px" />
<path d="M 876.241666665 25.0 L 886.241666665 25.0" stroke="#FF0000" fill="none" stroke-width="4px" />
<path d="M 886.241666665 25.0 L 896.241666665 25.0" stroke="#FF0000" fill="none" stroke-width="4px" />
<path d="M 896.241666665 25.0 L 906.241666665 25.0" stroke="#FF0000" fill="none" stroke-width="4px" />
<path d="M 906.241666665 25.0 L 906.241666665 35.0" stroke="#FF0000" fill="none" stroke-width="4px" />
<path d="M 906.241666665 35.0 L 896.241666665 35.0" stroke="#FF0000" fill="none" stroke-width="4px" />
<path d="M 896.241666665 35.0 L 886.241666665 35.0" stroke="#FF0000" fill="none" stroke-width="4px" />
<path d="M 886.241666665 35.0 L 876.241666665 35.0" stroke="#FF0000" fill="none" stroke-width="4px" />
<path d="M 896.241666665 15.0 L 886.241666665 15.0" stroke="#FF0000" fill="none" stroke-width="4px" />
<path d="M 886.241666665 15.0 L 876.241666665 15.0" stroke="#FF0000" fill="none" stroke-width="4px" />
<path d="M 876.241666665 15.0 L 866.241666665 15.0" stroke="#FF0000" fill="none" stroke-width="4px" />
<path d="M 866.241666665 15.0 L 856.241666665 15.0" stroke="#FF0000" fill="none" stroke-width="4px" />
<path d="M 856.241666665 15.0 L 866.241666665 5.0" stroke="#FF0000" fill="none" stroke-width="4px" />
<path d="M 866.241666665 5.0 L 876.241666665 5.0" stroke="#FF0000" fill="none" stroke-width="4px" />
<path d="M 876.241666665 5.0 L 886.241666665 5.0" stroke="#FF0000" fill="none" stroke-width="4px" />
<path d="M 886.241666665 5.0 L 896.241666665 5.0" stroke="#FF0000" fill="none" stroke-width="4px" />
<path d="M 896.241666665 5.0 L 906.241666665 15.0" stroke="#FF0000" fill="none" stroke-width="4px" />
<path d="M 886.241666665 -5.0 L 876.241666665 -5.0" stroke="#FF0000" fill="none" stroke-width="4px" />
<path d="M 1026.24166667 45.0 L 1036.24166667 45.0" stroke="#FF0000" fill="none" stroke-width="4px" />
<path d="M 1036.24166667 45.0 L 1046.24166667 45.0" stroke="#FF0000" fill="none" stroke-width="4px" />
<path d="M 1046.24166667 45.0 L 1056.24166667 45.0" stroke="#FF0000" fill="none" stroke-width="4px" />
<path d="M 1056.24166667 45.0 L 1056.24166667 55.0" stroke="#FF0000" fill="none" stroke-width="4px" />
<path d="M 1056.24166667 55.0 L 1046.24166667 55.0" stroke="#FF0000" fill="none" stroke-width="4px" />
<path d="M 1046.24166667 55.0 L 1036.24166667 55.0" stroke="#FF0000" fill="none" stroke-width="4px" />
<path d="M 1036.24166667 55.0 L 1026.24166667 55.0" stroke="#FF0000" fill="none" stroke-width="4px" />
<path d="M 1026.24166667 55.0 L 1036.24166667 65.0" stroke="#FF0000" fill="none" stroke-width="4px" />
<path d="M 1036.24166667 65.0 L 1046.24166667 65.0" stroke="#FF0000" fill="none" stroke-width="4px" />
<path d="M 1046.24166667 35.0 L 1036.24166667 35.0" stroke="#FF0000" fill="none" stroke-width="4px" />
</svg>