<svg width="2472.26666667" height="235.0" xmlns="http://www.w3.org/2000/svg" version="1.1">
<path d="M 0.0 235.0 L 1435.0 235.0 L 1435.0 0.0 L 0.0 0.0 L 0.0 235.0" stroke="#000000" fill="none" stroke-width="3px" />
<path d="M 2472.26666667 235.0 L 1335.0 235.0 L 1335.0 0.0 L 2472.26666667 0.0 L 2472.26666667 235.0" stroke="#000000" fill="none" stroke-width="3px" />
<path d="M 10.0 257.5 L 0.0 247.5 L 10.0 237.5" stroke="#969696" fill="none" stroke-width="1px" />
<path d="M 10.0 237.5 L 1425.0 237.5" stroke="#969696" fill="none" stroke-width="1px" />
<path d="M 1425.0 237.5 L 1435.0 227.5 L 1425.0 217.5" stroke="#969696" fill="none" stroke-width="1px" />
<path d="M 1425.0 217.5 L 10.0 217.5" stroke="#969696" fill="none" stroke-width="1px" />
<path d="M 10.0 217.5 L 0.0 207.5 L 10.0 197.5" stroke="#969696" fill="none" stroke-width="1px" />
<path d="M 10.0 197.5 L 1425.0 197.5" stroke="#969696" fill="none" stroke-width="1px" />
<path d="M 1425.0 197.5 L 1435.0 187.5 L 1425.0 177.5" stroke="#969696" fill="none" stroke-width="1px" />
<path d="M 1425.0 177.5 L 10.0 177.5" stroke="#969696" fill="none" stroke-width="1px" />
<path d="M 10.0 177.5 L 0.0 167.5 L 10.0 157.5" stroke="#969696" fill="none" stroke-width="1px" />
<path d="M 10.0 157.5 L 1425.0 157.5" stroke="#969696" fill="none" stroke-width="1px" />
<path d="M 1425.0 157.5 L 1435.0 147.5 L 1425.0 137.5" stroke="#969696" fill="none" stroke-width="1px" />
<path d="M 1425.0 137.5 L 10.0 137.5" stroke="#969696" fill="none" stroke-width="1px" />
<path d="M 10.0 137.5 L 0.0 127.5 L 10.0 117.5" stroke="#969696" fill="none" stroke-width="1px" />
<path d="M 10.0 117.5 L 1425.0 117.5" stroke="#969696" fill="none" stroke-width="1px" />
<path d="M 1425.0 117.5 L 1435.0 107.5 L 1425.0 97.5" stroke="#969696" fill="none" stroke-width="1px" />
<path d="M 1425.0 97.5 L 10.0 97.5" stroke="#969696" fill="none" stroke-width="1px" />
<path d="M 10.0 97.5 L 0.0 87.5 L 10.0 77.5" stroke="#969696" fill="none" stroke-width="1px" />
<path d="M 10.0 77.5 L 1425.0 77.5" stroke="#969696" fill="none" stroke-width="1px" />
<path d="M 1425.0 77.5 L 1435.0 67.5 L 1425.0 57.5" stroke="#969696" fill="none" stroke-width="1px" />
<path d="M 1425.0 57.5 L 10.0 57.5" stroke="#969696" fill="none" stroke-width="1px" />
<path d="M 10.0 57.5 L 0.0 47.5 L 10.0 37.5" stroke="#969696" fill="none" stroke-width="1px" />
<path d="M 10.0 37.5 L 1425.0 37.5" stroke="#969696" fill="none" stroke-width="1px" />
<path d="M 1425.0 37.5 L 1435.0 27.5 L 1425.0 17.5" stroke="#969696" fill="none" stroke-width="1px" />
<path d="M 1425.0 17.5 L 10.0 17.5" stroke="#969696" fill="none" stroke-width="1px" />
<path d="M 10.0 17.5 L 0.0 7.5 L 10.0 -2.5" stroke="#969696" fill="none" stroke-width="1px" />
<path d="M 10.0 -2.5 L 1425.0 -2.5" stroke="#969696" fill="none" stroke-width="1px" />
<path d="M 1425.0 -2.5 L 1435.0 -12.5 L 1425.0 -22.5" stroke="#969696" fill="none" stroke-width="1px" />
<path d="M 2462.26666667 257.5 L 2472.26666667 247.5 L 2462.26666667 237.5" stroke="#969696" fill="none" stroke-width="1px" />
<path d="M 2462.26666667 237.5 L 1345.0 237.5" stroke="#969696" fill="none" stroke-width="1px" />
<path d="M 1345.0 237.5 L 1335.0 227.5 L 1345.0 217.5" stroke="#969696" fill="none" stroke-width="1px" />
<path d="M 1345.0 217.5 L 2462.26666667 217.5" stroke="#969696" fill="none" stroke-width="1px" />
<path d="M 2462.26666667 217.5 L 2472.26666667 207.5 L 2462.26666667 197.5" stroke="#969696" fill="none" stroke-width="1px" />
<path d="M 2462.26666667 197.5 L 1345.0 197.5" stroke="#969696" fill="none" stroke-width="1px" />
<path d="M 1345.0 197.5 L 1335.0 187.5 L 1345.0 177.5" stroke="#969696" fill="none" stroke-width="1px" />
<path d="M 1345.0 177.5 L 2462.26666667 177.5" stroke="#969696" fill="none" stroke-width="1px" />
<path d="M 2462.26666667 177.5 L 2472.26666667 167.5 L 2462.26666667 157.5" stroke="#969696" fill="none" stroke-width="1px" />
<path d="M 2462.26666667 157.5 L 1345.0 157.5" stroke="#969696" fill="none" stroke-width="1px" />
<path d="M 1345.0 157.5 L 1335.0 147.5 L 1345.0 137.5" stroke="#969696" fill="none" stroke-width="1px" />
<path d="M 1345.0 137.5 L 2462.26666667 137.5" stroke="#969696" fill="none" stroke-width="1px" />
<path d="M 2462.26666667 137.5 L 2472.26666667 127.5 L 2462.26666667 117.5" stroke="#969696" fill="none" stroke-width="1px" />
<path d="M 2462.26666667 117.5 L 1345.0 117.5" stroke="#969696" fill="none" stroke-width="1px" />
<path d="M 1345.0 117.5 L 1335.0 107.5 L 1345.0 97.5" stroke="#969696" fill="none" stroke-width="1px" />
<path d="M 1345.0 97.5 L 2462.26666667 97.5" stroke="#969696" fill="none" stroke-width="1px" />
<path d="M 2462.26666667 97.5 L 2472.26666667 87.5 L 2462.26666667 77.5" stroke="#969696" fill="none" stroke-width="1px" />
<path d="M 2462.26666667 77.5 L 1345.0 77.5" stroke="#969696" fill="none" stroke-width="1px" />
<path d="M 1345.0 77.5 L 1335.0 67.5 L 1345.0 57.5" stroke="#969696" fill="none" stroke-width="1px" />
<path d="M 1345.0 57.5 L 2462.26666667 57.5" stroke="#969696" fill="none" stroke-width="1px" />
<path d="M 2462.26666667 57.5 L 2472.26666667 47.5 L 2462.26666667 37.5" stroke="#969696" fill="none" stroke-width="1px" />
<path d="M 2462.26666667 37.5 L 1345.0 37.5" stroke="#969696" fill="none" stroke-width="1px" />
<path d="M 1345.0 37.5 L 1335.0 27.5 L 1345.0 17.5" stroke="#969696" fill="none" stroke-width="1px" />
<path d="M 1345.0 17.5 L 2462.26666667 17.5" stroke="#969696" fill="none" stroke-width="1px" />
<path d="M 2462.26666667 17.5 L 2472.26666667 7.5 L 2462.26666667 -2.5" stroke="#969696" fill="none" stroke-width="1px" />
<path d="M 2462.26666667 -2.5 L 1345.0 -2.5" stroke="#969696" fill="none" stroke-width="1px" />
<path d="M 1345.0 -2.5 L 1335.0 -12.5 L 1345.0 -22.5" stroke="#969696" fill="none" stroke-width="1px" />
<path d="M 0.0 235.0 L 50.0 235.0" stroke="#0095FF" fill="none" stroke-width="2px" />
<path d="M 50.0 235.0 L 50.0 115.0" stroke="#0095FF" fill="none" stroke-width="2px" />
<path d="M 50.0 95.0 L 70.0 95.0" stroke="#0095FF" fill="none" stroke-width="2px" />
<path d="M 70.0 95.0 L 70.0 105.0" stroke="#0095FF" fill="none" stroke-width="2px" />
<path d="M 70.0 105.0 L 70.0 75.0" stroke="#0095FF" fill="none" stroke-width="2px" />
<path d="M 50.0 75.0 L 160.0 75.0" stroke="#0095FF" fill="none" stroke-width="2px" />
<path d="M 180.0 125.0 L 240.0 125.0" stroke="#0095FF" fill="none" stroke-width="2px" />
<path d="M 260.0 105.0 L 260.0 135.0" stroke="#0095FF" fill="none" stroke-width="2px" />
<path d="M 250.0 135.0 L 320.0 135.0" stroke="#0095FF" fill="none" stroke-width="2px" />
<path d="M 320.0 135.0 L 320.0 95.0" stroke="#0095FF" fill="none" stroke-width="2px" />
<path d="M 330.0 75.0 L 330.0 105.0" stroke="#0095FF" fill="none" stroke-width="2px" />
<path d="M 330.0 105.0 L 390.0 105.0" stroke="#0095FF" fill="none" stroke-width="2px" />
<path d="M 390.0 105.0 L 390.0 75.0" stroke="#0095FF" fill="none" stroke-width="2px" />
<path d="M 390.0 55.0 L 390.0 35.0" stroke="#0095FF" fill="none" stroke-width="2px" />
<path d="M 400.0 35.0 L 420.0 35.0" stroke="#0095FF" fill="none" stroke-width="2px" />
<path d="M 420.0 35.0 L 420.0 15.0" stroke="#0095FF" fill="none" stroke-width="2px" />
<path d="M 420.0 15.0 L 440.0 15.0" stroke="#0095FF" fill="none" stroke-width="2px" />
<path d="M 440.0 15.0 L 440.0 35.0" stroke="#0095FF" fill="none" stroke-width="2px" />
<path d="M 440.0 35.0 L 430.0 35.0" stroke="#0095FF" fill="none" stroke-width="2px" />
<path d="M 430.0 35.0 L 430.0 65.0" stroke="#0095FF" fill="none" stroke-width="2px" />
<path d="M 430.0 65.0 L 610.0 65.0" stroke="#0095FF" fill="none" stroke-width="2px" />
<path d="M 610.0 65.0 L 610.0 105.0" stroke="#0095FF" fill="none" stroke-width="2px" />
<path d="M 670.0 145.0 L 700.0 145.0" stroke="#0095FF" fill="none" stroke-width="2px" />
<path d="M 700.0 145.0 L 700.0 115.0" stroke="#0095FF" fill="none" stroke-width="2px" />
<path d="M 700.0 115.0 L 690.0 115.0" stroke="#0095FF" fill="none" stroke-width="2px" />
<path d="M 690.0 115.0 L 690.0 95.0" stroke="#0095FF" fill="none" stroke-width="2px" />
<path d="M 650.0 65.0 L 210.0 65.0" stroke="#0095FF" fill="none" stroke-width="2px" />
<path d="M 2472.26666667 235.0 L 2050.0 235.0" stroke="#0095FF" fill="none" stroke-width="2px" />
<path d="M 2050.0 235.0 L 2050.0 135.0" stroke="#0095FF" fill="none" stroke-width="2px" />
<path d="M 1990.0 125.0 L 1990.0 145.0" stroke="#0095FF" fill="none" stroke-width="2px" />
<path d="M 2020.0 165.0 L 2020.0 105.0" stroke="#0095FF" fill="none" stroke-width="2px" />
<path d="M 2050.0 105.0 L 2030.0 105.0" stroke="#0095FF" fill="none" stroke-width="2px" />
<path d="M 2030.0 105.0 L 2030.0 85.0" stroke="#0095FF" fill="none" stroke-width="2px" />
<path d="M 2050.0 45.0 L 2040.0 45.0" stroke="#0095FF" fill="none" stroke-width="2px" />
<path d="M 2040.0 45.0 L 2040.0 65.0" stroke="#0095FF" fill="none" stroke-width="2px" />
<path d="M 2040.0 65.0 L 2040.0 25.0" stroke="#0095FF" fill="none" stroke-width="2px" />
<path d="M 50.0 115.0 L 60.0 115.0" stroke="#FF0000" fill="none" stroke-width="4px" />
<path d="M 60.0 115.0 L 60.0 105.0" stroke="#FF0000" fill="none" stroke-width="4px" />
<path d="M 60.0 105.0 L 50.0 105.0" stroke="#FF0000" fill="none" stroke-width="4px" />
<path d="M 50.0 105.0 L 40.0 105.0" stroke="#FF0000" fill="none" stroke-width="4px" />
<path d="M 40.0 105.0 L 40.0 95.0" stroke="#FF0000" fill="none" stroke-width="4px" />
<path d="M 40.0 95.0 L 30.0 95.0" stroke="#FF0000" fill="none" stroke-width="4px" />
<path d="M 30.0 95.0 L 40.0 85.0" stroke="#FF0000" fill="none" stroke-width="4px" />
<path d="M 40.0 85.0 L 50.0 85.0" stroke="#FF0000" fill="none" stroke-width="4px" />
<path d="M 50.0 85.0 L 60.0 85.0" stroke="#FF0000" fill="none" stroke-width="4px" />
<path d="M 60.0 85.0 L 70.0 85.0" stroke="#FF0000" fill="none" stroke-width="4px" />
<path d="M 70.0 85.0 L 80.0 85.0" stroke="#FF0000" fill="none" stroke-width="4px" />
<path d="M 80.0 85.0 L 80.0 95.0" stroke="#FF0000" fill="none" stroke-width="4px" />
<path d="M 80.0 95.0 L 70.0 95.0" stroke="#FF0000" fill="none" stroke-width="4px" />
<path d="M 70.0 95.0 L 60.0 95.0" stroke="#FF0000" fill="none" stroke-width="4px" />
<path d="M 60.0 95.0 L 50.0 95.0" stroke="#FF0000" fill="none" stroke-width="4px" />
<path d="M 70.0 75.0 L 60.0 75.0" stroke="#FF0000" fill="none" stroke-width="4px" />
<path d="M 60.0 75.0 L 50.0 75.0" stroke="#FF0000" fill="none" stroke-width="4px" />
<path d="M 160.0 75.0 L 170.0 75.0" stroke="#FF0000" fill="none" stroke-width="4px" />
<path d="M 170.0 75.0 L 180.0 75.0" stroke="#FF0000" fill="none" stroke-width="4px" />
<path d="M 180.0 75.0 L 190.0 75.0" stroke="#FF0000" fill="none" stroke-width="4px" />
<path d="M 190.0 75.0 L 200.0 75.0" stroke="#FF0000" fill="none" stroke-width="4px" />
<path d="M 200.0 75.0 L 210.0 75.0" stroke="#FF0000" fill="none" stroke-width="4px" />
<path d="M 210.0 75.0 L 220.0 75.0" stroke="#FF0000" fill="none" stroke-width="4px" />
<path d="M 220.0 75.0 L 220.0 85.0" stroke="#FF0000" fill="none" stroke-width="4px" />
<path d="M 220.0 85.0 L 210.0 85.0" stroke="#FF0000" fill="none" stroke-width="4px" />
<path d="M 210.0 85.0 L 200.0 85.0" stroke="#FF0000" fill="none" stroke-width="4px" />
<path d="M 200.0 85.0 L 190.0 85.0" stroke="#FF0000" fill="none" stroke-width="4px" />
<path d="M 190.0 85.0 L 180.0 85.0" stroke="#FF0000" fill="none" stroke-width="4px" />
<path d="M 180.0 85.0 L 170.0 85.0" stroke="#FF0000" fill="none" stroke-width="4px" />
<path d="M 170.0 85.0 L 160.0 85.0" stroke="#FF0000" fill="none" stroke-width="4px" />
<path d="M 160.0 85.0 L 160.0 95.0" stroke="#FF0000" fill="none" stroke-width="4px" />
<path d="M 160.0 95.0 L 170.0 95.0" stroke="#FF0000" fill="none" stroke-width="4px" />
<path d="M 170.0 95.0 L 180.0 95.0" stroke="#FF0000" fill="none" stroke-width="4px" />
<path d="M 180.0 95.0 L 190.0 95.0" stroke="#FF0000" fill="none" stroke-width="4px" />
<path d="M 190.0 95.0 L 200.0 95.0" stroke="#FF0000" fill="none" stroke-width="4px" />
<path d="M 200.0 95.0 L 210.0 95.0" stroke="#FF0000" fill="none" stroke-width="4px" />
<path d="M 210.0 95.0 L 220.0 95.0" stroke="#FF0000" fill="none" stroke-width="4px" />
<path d="M 220.0 95.0 L 230.0 95.0" stroke="#FF0000" fill="none" stroke-width="4px" />
<path d="M 230.0 95.0 L 230.0 105.0" stroke="#FF0000" fill="none" stroke-width="4px" />
<path d="M 230.0 105.0 L 220.0 105.0" stroke="#FF0000" fill="none" stroke-width="4px" />
<path d="M 220.0 105.0 L 210.0 105.0" stroke="#FF0000" fill="none" stroke-width="4px" />
<path d="M 210.0 105.0 L 200.0 105.0" stroke="#FF0000" fill="none" stroke-width="4px" />
<path d="M 200.0 105.0 L 190.0 105.0" stroke="#FF0000" fill="none" stroke-width="4px" />
<path d="M 190.0 105.0 L 180.0 105.0" stroke="#FF0000" fill="none" stroke-width="4px" />
<path d="M 180.0 105.0 L 170.0 105.0" stroke="#FF0000" fill="none" stroke-width="4px" />
<path d="M 170.0 105.0 L 160.0 105.0" stroke="#FF0000" fill="none" stroke-width="4px" />
<path d="M 160.0 105.0 L 170.0 115.0" stroke="#FF0000" fill="none" stroke-width="4px" />
<path d="M 170.0 115.0 L 180.0 115.0" stroke="#FF0000" fill="none" stroke-width="4px" />
<path d="M 180.0 115.0 L 190.0 115.0" stroke="#FF0000" fill="none" stroke-width="4px" />
<path d="M 190.0 115.0 L 200.0 115.0" stroke="#FF0000" fill="none" stroke-width="4px" />
<path d="M 200.0 115.0 L 210.0 115.0" stroke="#FF0000" fill="none" stroke-width="4px" />
<path d="M 210.0 115.0 L 220.0 115.0" stroke="#FF0000" fill="none" stroke-width="4px" />
<path d="M 220.0 115.0 L 210.0 125.0" stroke="#FF0000" fill="none" stroke-width="4px" />
<path d="M 210.0 125.0 L 200.0 125.0" stroke="#FF0000" fill="none" stroke-width="4px" />
<path d="M 200.0 125.0 L 190.0 125.0" stroke="#FF0000" fill="none" stroke-width="4px" />
<path d="M 190.0 125.0 L 180.0 125.0" stroke="#FF0000" fill="none" stroke-width="4px" />
<path d="M 240.0 125.0 L 250.0 125.0" stroke="#FF0000" fill="none" stroke-width="4px" />
<path d="M 250.0 125.0 L 260.0 125.0" stroke="#FF0000" fill="none" stroke-width="4px" />
<path d="M 260.0 125.0 L 270.0 125.0" stroke="#FF0000" fill="none" stroke-width="4px" />
<path d="M 270.0 125.0 L 270.0 115.0" stroke="#FF0000" fill="none" stroke-width="4px" />
<path d="M 270.0 115.0 L 260.0 115.0" stroke="#FF0000" fill="none" stroke-width="4px" />
<path d="M 260.0 115.0 L 250.0 115.0" stroke="#FF0000" fill="none" stroke-width="4px" />
<path d="M 250.0 115.0 L 240.0 115.0" stroke="#FF0000" fill="none" stroke-width="4px" />
<path d="M 240.0 115.0 L 250.0 105.0" stroke="#FF0000" fill="none" stroke-width="4px" />
<path d="M 250.0 105.0 L 260.0 105.0" stroke="#FF0000" fill="none" stroke-width="4px" />
<path d="M 260.0 135.0 L 250.0 135.0" stroke="#FF0000" fill="none" stroke-width="4px" />
<path d="M 320.0 95.0 L 330.0 95.0" stroke="#FF0000" fill="none" stroke-width="4px" />
<path d="M 330.0 95.0 L 340.0 95.0" stroke="#FF0000" fill="none" stroke-width="4px" />
<path d="M 340.0 95.0 L 340.0 85.0" stroke="#FF0000" fill="none" stroke-width="4px" />
<path d="M 340.0 85.0 L 330.0 85.0" stroke="#FF0000" fill="none" stroke-width="4px" />
<path d="M 330.0 85.0 L 320.0 85.0" stroke="#FF0000" fill="none" stroke-width="4px" />
<path d="M 320.0 85.0 L 310.0 85.0" stroke="#FF0000" fill="none" stroke-width="4px" />
<path d="M 310.0 85.0 L 320.0 75.0" stroke="#FF0000" fill="none" stroke-width="4px" />
<path d="M 320.0 75.0 L 330.0 75.0" stroke="#FF0000" fill="none" stroke-width="4px" />
<path d="M 390.0 75.0 L 400.0 75.0" stroke="#FF0000" fill="none" stroke-width="4px" />
<path d="M 400.0 75.0 L 410.0 75.0" stroke="#FF0000" fill="none" stroke-width="4px" />
<path d="M 410.0 75.0 L 420.0 75.0" stroke="#FF0000" fill="none" stroke-width="4px" />
<path d="M 420.0 75.0 L 420.0 65.0" stroke="#FF0000" fill="none" stroke-width="4px" />
<path d="M 420.0 65.0 L 410.0 65.0" stroke="#FF0000" fill="none" stroke-width="4px" />
<path d="M 410.0 65.0 L 400.0 65.0" stroke="#FF0000" fill="none" stroke-width="4px" />
<path d="M 400.0 65.0 L 390.0 65.0" stroke="#FF0000" fill="none" stroke-width="4px" />
<path d="M 390.0 65.0 L 380.0 65.0" stroke="#FF0000" fill="none" stroke-width="4px" />
<path d="M 380.0 65.0 L 380.0 55.0" stroke="#FF0000" fill="none" stroke-width="4px" />
<path d="M 380.0 55.0 L 370.0 55.0" stroke="#FF0000" fill="none" stroke-width="4px" />
<path d="M 370.0 55.0 L 370.0 45.0" stroke="#FF0000" fill="none" stroke-width="4px" />
<path d="M 370.0 45.0 L 380.0 45.0" stroke="#FF0000" fill="none" stroke-width="4px" />
<path d="M 380.0 45.0 L 390.0 45.0" stroke="#FF0000" fill="none" stroke-width="4px" />
<path d="M 390.0 45.0 L 400.0 45.0" stroke="#FF0000" fill="none" stroke-width="4px" />
<path d="M 400.0 45.0 L 410.0 45.0" stroke="#FF0000" fill="none" stroke-width="4px" />
<path d="M 410.0 45.0 L 420.0 45.0" stroke="#FF0000" fill="none" stroke-width="4px" />
<path d="M 420.0 45.0 L 430.0 45.0" stroke="#FF0000" fill="none" stroke-width="4px" />
<path d="M 430.0 45.0 L 440.0 45.0" stroke="#FF0000" fill="none" stroke-width="4px" />
<path d="M 440.0 45.0 L 440.0 55.0" stroke="#FF0000" fill="none" stroke-width="4px" />
<path d="M 440.0 55.0 L 430.0 55.0" stroke="#FF0000" fill="none" stroke-width="4px" />
<path d="M 430.0 55.0 L 420.0 55.0" stroke="#FF0000" fill="none" stroke-width="4px" />
<path d="M 420.0 55.0 L 410.0 55.0" stroke="#FF0000" fill="none" stroke-width="4px" />
<path d="M 410.0 55.0 L 400.0 55.0" stroke="#FF0000" fill="none" stroke-width="4px" />
<path d="M 400.0 55.0 L 390.0 55.0" stroke="#FF0000" fill="none" stroke-width="4px" />
<path d="M 390.0 35.0 L 380.0 35.0" stroke="#FF0000" fill="none" stroke-width="4px" />
<path d="M 380.0 35.0 L 390.0 25.0" stroke="#FF0000" fill="none" stroke-width="4px" />
<path d="M 390.0 25.0 L 400.0 25.0" stroke="#FF0000" fill="none" stroke-width="4px" />
<path d="M 400.0 25.0 L 410.0 25.0" stroke="#FF0000" fill="none" stroke-width="4px" />
<path d="M 410.0 25.0 L 420.0 25.0" stroke="#FF0000" fill="none" stroke-width="4px" />
<path d="M 420.0 25.0 L 430.0 25.0" stroke="#FF0000" fill="none" stroke-width="4px" />
<path d="M 430.0 25.0 L 430.0 35.0" stroke="#FF0000" fill="none" stroke-width="4px" />
<path d="M 430.0 35.0 L 420.0 35.0" stroke="#FF0000" fill="none" stroke-width="4px" />
<path d="M 420.0 35.0 L 410.0 35.0" stroke="#FF0000" fill="none" stroke-width="4px" />
<path d="M 410.0 35.0 L 400.0 35.0" stroke="#FF0000" fill="none" stroke-width="4px" />
<path d="M 610.0 105.0 L 620.0 105.0" stroke="#FF0000" fill="none" stroke-width="4px" />
<path d="M 620.0 105.0 L 630.0 105.0" stroke="#FF0000" fill="none" stroke-width="4px" />
<path d="M 630.0 105.0 L 640.0 105.0" stroke="#FF0000" fill="none" stroke-width="4px" />
<path d="M 640.0 105.0 L 650.0 105.0" stroke="#FF0000" fill="none" stroke-width="4px" />
<path d="M 650.0 105.0 L 660.0 105.0" stroke="#FF0000" fill="none" stroke-width="4px" />
<path d="M 660.0 105.0 L 670.0 105.0" stroke="#FF0000" fill="none" stroke-width="4px" />
<path d="M 670.0 105.0 L 680.0 105.0" stroke="#FF0000" fill="none" stroke-width="4px" />
<path d="M 680.0 105.0 L 690.0 105.0" stroke="#FF0000" fill="none" stroke-width="4px" />
<path d="M 690.0 105.0 L 690.0 115.0" stroke="#FF0000" fill="none" stroke-width="4px" />
<path d="M 690.0 115.0 L 680.0 115.0" stroke="#FF0000" fill="none" stroke-width="4px" />
<path d="M 680.0 115.0 L 670.0 115.0" stroke="#FF0000" fill="none" stroke-width="4px" />
<path d="M 670.0 115.0 L 660.0 115.0" stroke="#FF0000" fill="none" stroke-width="4px" />
<path d="M 660.0 115.0 L 650.0 115.0" stroke="#FF0000" fill="none" stroke-width="4px" />
<path d="M 650.0 115.0 L 640.0 115.0" stroke="#FF0000" fill="none" stroke-width="4px" />
<path d="M 640.0 115.0 L 630.0 115.0" stroke="#FF0000" fill="none" stroke-width="4px" />
<path d="M 630.0 115.0 L 620.0 115.0" stroke="#FF0000" fill="none" stroke-width="4px" />
<path d="M 620.0 115.0 L 610.0 115.0" stroke="#FF0000" fill="none" stroke-width="4px" />
<path d="M 610.0 115.0 L 610.0 125.0" stroke="#FF0000" fill="none" stroke-width="4px" />
<path d="M 610.0 125.0 L 620.0 125.0" stroke="#FF0000" fill="none" stroke-width="4px" />
<path d="M 620.0 125.0 L 630.0 125.0" stroke="#FF0000" fill="none" stroke-width="4px" />
<path d="M 630.0 125.0 L 640.0 125.0" stroke="#FF0000" fill="none" stroke-width="4px" />
<path d="M 640.0 125.0 L 650.0 125.0" stroke="#FF0000" fill="none" stroke-width="4px" />
<path d="M 650.0 125.0 L 660.0 125.0" stroke="#FF0000" fill="none" stroke-width="4px" />
<path d="M 660.0 125.0 L 670.0 125.0" stroke="#FF0000" fill="none" stroke-width="4px" />
<path d="M 670.0 125.0 L 680.0 125.0" stroke="#FF0000" fill="none" stroke-width="4px" />
<path d="M 680.0 125.0 L 690.0 125.0" stroke="#FF0000" fill="none" stroke-width="4px" />
<path d="M 690.0 125.0 L 680.0 135.0" stroke="#FF0000" fill="none" stroke-width="4px" />
<path d="M 680.0 135.0 L 670.0 135.0" stroke="#FF0000" fill="none" stroke-width="4px" />
<path d="M 670.0 135.0 L 660.0 135.0" stroke="#FF0000" fill="none" stroke-width="4px" />
<path d="M 660.0 135.0 L 650.0 135.0" stroke="#FF0000" fill="none" stroke-width="4px" />
<path d="M 650.0 135.0 L 640.0 135.0" stroke="#FF0000" fill="none" stroke-width="4px" />
<path d="M 640.0 135.0 L 630.0 135.0" stroke="#FF0000" fill="none" stroke-width="4px" />
<path d="M 630.0 135.0 L 620.0 135.0" stroke="#FF0000" fill="none" stroke-width="4px" />
<path d="M 620.0 135.0 L 630.0 145.0" stroke="#FF0000" fill="none" stroke-width="4px" />
<path d="M 630.0 145.0 L 640.0 145.0" stroke="#FF0000" fill="none" stroke-width="4px" />
<path d="M 640.0 145.0 L 650.0 145.0" stroke="#FF0000" fill="none" stroke-width="4px" />
<path d="M 650.0 145.0 L 660.0 145.0" stroke="#FF0000" fill="none" stroke-width="4px" />
<path d="M 660.0 145.0 L 670.0 145.0" stroke="#FF0000" fill="none" stroke-width="4px" />
<path d="M 690.0 95.0 L 680.0 95.0" stroke="#FF0000" fill="none" stroke-width="4px" />
<path d="M 680.0 95.0 L 670.0 95.0" stroke="#FF0000" fill="none" stroke-width="4px" />
<path d="M 670.0 95.0 L 660.0 95.0" stroke="#FF0000" fill="none" stroke-width="4px" />
<path d="M 660.0 95.0 L 650.0 95.0" stroke="#FF0000" fill="none" stroke-width="4px" />
<path d="M 650.0 95.0 L 640.0 95.0" stroke="#FF0000" fill="none" stroke-width="4px" />
<path d="M 640.0 95.0 L 630.0 95.0" stroke="#FF0000" fill="none" stroke-width="4px" />
<path d="M 630.0 95.0 L 620.0 95.0" stroke="#FF0000" fill="none" stroke-width="4px" />
<path d="M 620.0 95.0 L 620.0 85.0" stroke="#FF0000" fill="none" stroke-width="4px" />
<path d="M 620.0 85.0 L 630.0 85.0" stroke="#FF0000" fill="none" stroke-width="4px" />
<path d="M 630.0 85.0 L 640.0 85.0" stroke="#FF0000" fill="none" stroke-width="4px" />
<path d="M 640.0 85.0 L 650.0 85.0" stroke="#FF0000" fill="none" stroke-width="4px" />
<path d="M 650.0 85.0 L 660.0 85.0" stroke="#FF0000" fill="none" stroke-width="4px" />
<path d="M 660.0 85.0 L 670.0 85.0" stroke="#FF0000" fill="none" stroke-width="4px" />
<path d="M 670.0 85.0 L 680.0 85.0" stroke="#FF0000" fill="none" stroke-width="4px" />
<path d="M 680.0 85.0 L 670.0 75.0" stroke="#FF0000" fill="none" stroke-width="4px" />
<path d="M 670.0 75.0 L 660.0 75.0" stroke="#FF0000" fill="none" stroke-width="4px" />
<path d="M 660.0 75.0 L 650.0 75.0" stroke="#FF0000" fill="none" stroke-width="4px" />
<path d="M 650.0 75.0 L 640.0 75.0" stroke="#FF0000" fill="none" stroke-width="4px" />
<path d="M 640.0 75.0 L 630.0 75.0" stroke="#FF0000" fill="none" stroke-width="4px" />
<path d="M 630.0 75.0 L 640.0 65.0" stroke="#FF0000" fill="none" stroke-width="4px" />
<path d="M 640.0 65.0 L 650.0 65.0" stroke="#FF0000" fill="none" stroke-width="4px" />
<path d="M 210.0 65.0 L 200.0 65.0" stroke="#FF0000" fill="none" stroke-width="4px" />
<path d="M 200.0 65.0 L 190.0 65.0" stroke="#FF0000" fill="none" stroke-width="4px" />
<path d="M 190.0 65.0 L 180.0 65.0" stroke="#FF0000" fill="none" stroke-width="4px" />
<path d="M 180.0 65.0 L 170.0 65.0" stroke="#FF0000" fill="none" stroke-width="4px" />
<path d="M 170.0 65.0 L 160.0 65.0" stroke="#FF0000" fill="none" stroke-width="4px" />
<path d="M 160.0 65.0 L 170.0 55.0" stroke="#FF0000" fill="none" stroke-width="4px" />
<path d="M 170.0 55.0 L 180.0 55.0" stroke="#FF0000" fill="none" stroke-width="4px" />
<path d="M 180.0 55.0 L 190.0 55.0" stroke="#FF0000" fill="none" stroke-width="4px" />
<path d="M 190.0 55.0 L 200.0 55.0" stroke="#FF0000" fill="none" stroke-width="4px" />
<path d="M 200.0 55.0 L 190.0 45.0" stroke="#FF0000" fill="none" stroke-width="4px" />
<path d="M 190.0 45.0 L 180.0 45.0" stroke="#FF0000" fill="none" stroke-width="4px" />
<path d="M 2050.0 135.0 L 2040.0 135.0" stroke="#FF0000" fill="none" stroke-width="4px" />
<path d="M 2040.0 135.0 L 2030.0 135.0" stroke="#FF0000" fill="none" stroke-width="4px" />
<path d="M 2030.0 135.0 L 2020.0 135.0" stroke="#FF0000" fill="none" stroke-width="4px" />
<path d="M 2020.0 135.0 L 2010.0 135.0" stroke="#FF0000" fill="none" stroke-width="4px" />
<path d="M 2010.0 135.0 L 2000.0 135.0" stroke="#FF0000" fill="none" stroke-width="4px" />
<path d="M 2000.0 135.0 L 1990.0 135.0" stroke="#FF0000" fill="none" stroke-width="4px" />
<path d="M 1990.0 135.0 L 1980.0 135.0" stroke="#FF0000" fill="none" stroke-width="4px" />
<path d="M 1980.0 135.0 L 1980.0 125.0" stroke="#FF0000" fill="none" stroke-width="4px" />
<path d="M 1980.0 125.0 L 1970.0 125.0" stroke="#FF0000" fill="none" stroke-width="4px" />
<path d="M 1970.0 125.0 L 1980.0 115.0" stroke="#FF0000" fill="none" stroke-width="4px" />
<path d="M 1980.0 115.0 L 1990.0 115.0" stroke="#FF0000" fill="none" stroke-width="4px" />
<path d="M 1990.0 115.0 L 2000.0 115.0" stroke="#FF0000" fill="none" stroke-width="4px" />
<path d="M 2000.0 115.0 L 2010.0 115.0" stroke="#FF0000" fill="none" stroke-width="4px" />
<path d="M 2010.0 115.0 L 2020.0 115.0" stroke="#FF0000" fill="none" stroke-width="4px" />
<path d="M 2020.0 115.0 L 2030.0 115.0" stroke="#FF0000" fill="none" stroke-width="4px" />
<path d="M 2030.0 115.0 L 2040.0 115.0" stroke="#FF0000" fill="none" stroke-width="4px" />
<path d="M 2040.0 115.0 L 2050.0 115.0" stroke="#FF0000" fill="none" stroke-width="4px" />
<path d="M 2050.0 115.0 L 2050.0 125.0" stroke="#FF0000" fill="none" stroke-width="4px" />
<path d="M 2050.0 125.0 L 2040.0 125.0" stroke="#FF0000" fill="none" stroke-width="4px" />
<path d="M 2040.0 125.0 L 2030.0 125.0" stroke="#FF0000" fill="none" stroke-width="4px" />
<path d="M 2030.0 125.0 L 2020.0 125.0" stroke="#FF0000" fill="none" stroke-width="4px" />
<path d="M 2020.0 125.0 L 2010.0 125.0" stroke="#FF0000" fill="none" stroke-width="4px" />
<path d="M 2010.0 125.0 L 2000.0 125.0" stroke="#FF0000" fill="none" stroke-width="4px" />
<path d="M 2000.0 125.0 L 1990.0 125.0" stroke="#FF0000" fill="none" stroke-width="4px" />
<path d="M 1990.0 145.0 L 2000.0 145.0" stroke="#FF0000" fill="none" stroke-width="4px" />
<path d="M 2000.0 145.0 L 2010.0 145.0" stroke="#FF0000" fill="none" stroke-width="4px" />
<path d="M 2010.0 145.0 L 2020.0 145.0" stroke="#FF0000" fill="none" stroke-width="4px" />
<path d="M 2020.0 145.0 L 2030.0 145.0" stroke="#FF0000" fill="none" stroke-width="4px" />
<path d="M 2030.0 145.0 L 2040.0 145.0" stroke="#FF0000" fill="none" stroke-width="4px" />
<path d="M 2040.0 145.0 L 2030.0 155.0" stroke="#FF0000" fill="none" stroke-width="4px" />
<path d="M 2030.0 155.0 L 2020.0 155.0" stroke="#FF0000" fill="none" stroke-width="4px" />
<path d="M 2020.0 155.0 L 2010.0 155.0" stroke="#FF0000" fill="none" stroke-width="4px" />
<path d="M 2010.0 155.0 L 2000.0 155.0" stroke="#FF0000" fill="none" stroke-width="4px" />
<path d="M 2000.0 155.0 L 2010.0 165.0" stroke="#FF0000" fill="none" stroke-width="4px" />
<path d="M 2010.0 165.0 L 2020.0 165.0" stroke="#FF0000" fill="none" stroke-width="4px" />
<path d="M 2020.0 105.0 L 2010.0 105.0" stroke="#FF0000" fill="none" stroke-width="4px" />
<path d="M 2010.0 105.0 L 2000.0 105.0" stroke="#FF0000" fill="none" stroke-width="4px" />
<path d="M 2000.0 105.0 L 1990.0 105.0" stroke="#FF0000" fill="none" stroke-width="4px" />
<path d="M 1990.0 105.0 L 2000.0 95.0" stroke="#FF0000" fill="none" stroke-width="4px" />
<path d="M 2000.0 95.0 L 2010.0 95.0" stroke="#FF0000" fill="none" stroke-width="4px" />
<path d="M 2010.0 95.0 L 2020.0 95.0" stroke="#FF0000" fill="none" stroke-width="4px" />
<path d="M 2020.0 95.0 L 2030.0 95.0" stroke="#FF0000" fill="none" stroke-width="4px" />
<path d="M 2030.0 95.0 L 2040.0 95.0" stroke="#FF0000" fill="none" stroke-width="4px" />
<path d="M 2040.0 95.0 L 2040.0 105.0" stroke="#FF0000" fill="none" stroke-width="4px" />
<path d="M 2040.0 105.0 L 2030.0 105.0" stroke="#FF0000" fill="none" stroke-width="4px" />
<path d="M 2030.0 105.0 L 2050.0 105.0" stroke="#FF0000" fill="none" stroke-width="4px" />
<path d="M 2030.0 85.0 L 2020.0 85.0" stroke="#FF0000" fill="none" stroke-width="4px" />
<path d="M 2020.0 85.0 L 2030.0 75.0" stroke="#FF0000" fill="none" stroke-width="4px" />
<path d="M 2030.0 75.0 L 2030.0 65.0" stroke="#FF0000" fill="none" stroke-width="4px" />
<path d="M 2030.0 65.0 L 2020.0 65.0" stroke="#FF0000" fill="none" stroke-width="4px" />
<path d="M 2020.0 65.0 L 2010.0 65.0" stroke="#FF0000" fill="none" stroke-width="4px" />
<path d="M 2010.0 65.0 L 2010.0 55.0" stroke="#FF0000" fill="none" stroke-width="4px" />
<path d="M 2010.0 55.0 L 2000.0 55.0" stroke="#FF0000" fill="none" stroke-width="4px" />
<path d="M 2000.0 55.0 L 2000.0 45.0" stroke="#FF0000" fill="none" stroke-width="4px" />
<path d="M 2000.0 45.0 L 1990.0 45.0" stroke="#FF0000" fill="none" stroke-width="4px" />
<path d="M 1990.0 45.0 L 1990.0 35.0" stroke="#FF0000" fill="none" stroke-width="4px" />
<path d="M 1990.0 35.0 L 2000.0 35.0" stroke="#FF0000" fill="none" stroke-width="4px" />
<path d="M 2000.0 35.0 L 2010.0 35.0" stroke="#FF0000" fill="none" stroke-width="4px" />
<path d="M 2010.0 35.0 L 2020.0 35.0" stroke="#FF0000" fill="none" stroke-width="4px" />
<path d="M 2020.0 35.0 L 2030.0 35.0" stroke="#FF0000" fill="none" stroke-width="4px" />
<path d="M 2030.0 35.0 L 2040.0 35.0" stroke="#FF0000" fill="none" stroke-width="4px" />
<path d="M 2040.0 35.0 L 2040.0 45.0" stroke="#FF0000" fill="none" stroke-width="4px" />
<path d="M 2040.0 45.0 L 2030.0 45.0" stroke="#FF0000" fill="none" stroke-width="4px" />
<path d="M 2030.0 45.0 L 2020.0 45.0" stroke="#FF0000" fill="none" stroke-width="4px" />
<path d="M 2020.0 45.0 L 2010.0 45.0" stroke="#FF0000" fill="none" stroke-width="4px" />
<path d="M 2010.0 45.0 L 2020.0 55.0" stroke="#FF0000" fill="none" stroke-width="4px" />
<path d="M 2020.0 55.0 L 2030.0 55.0" stroke="#FF0000" fill="none" stroke-width="4px" />
<path d="M 2030.0 55.0 L 2040.0 55.0" stroke="#FF0000" fill="none" stroke-width="4px" />
<path d="M 2040.0 55.0 L 2050.0 55.0" stroke="#FF0000" fill="none" stroke-width="4px" />
<path d="M 2050.0 55.0 L 2050.0 45.0" stroke="#FF0000" fill="none" stroke-width="4px" />
<path d="M 2040.0 25.0 L 2030.0 25.0" stroke="#FF0000" fill="none" stroke-width="4px" />
<path d="M 2030.0 25.0 L 2020.0 25.0" stroke="#FF0000" fill="none" stroke-width="4px" />
<path d="M 2020.0 25.0 L 2010.0 25.0" stroke="#FF0000" fill="none" stroke-width="4px" />
<path d="M 2010.0 25.0 L 2000.0 25.0" stroke="#FF0000" fill="none" stroke-width="4px" />
<path d="M 2000.0 25.0 L 2010.0 15.0" stroke="#FF0000" fill="none" stroke-width="4px" />
<path d="M 2010.0 15.0 L 2020.0 15.0" stroke="#FF0000" fill="none" stroke-width="4px" />
<path d="M 2020.0 15.0 L 2030.0 15.0" stroke="#FF0000" fill="none" stroke-width="4px" />
</svg>