<svg width="1755.23333333" height="235.0" xmlns="http://www.w3.org/2000/svg" version="1.1">
<path d="M 0.0 235.0 L 1755.23333333 235.0 L 1755.23333333 0.0 L 0.0 0.0 L 0.0 235.0" stroke="#000000" fill="none" stroke-width="3px" />
<path d="M 10.0 257.5 L 0.0 247.5 L 10.0 237.5" stroke="#969696" fill="none" stroke-width="1px" />
<path d="M 10.0 237.5 L 1745.23333333 237.5" stroke="#969696" fill="none" stroke-width="1px" />
<path d="M 1745.23333333 237.5 L 1755.23333333 227.5 L 1745.23333333 217.5" stroke="#969696" fill="none" stroke-width="1px" />
<path d="M 1745.23333333 217.5 L 10.0 217.5" stroke="#969696" fill="none" stroke-width="1px" />
<path d="M 10.0 217.5 L 0.0 207.5 L 10.0 197.5" stroke="#969696" fill="none" stroke-width="1px" />
<path d="M 10.0 197.5 L 1745.23333333 197.5" stroke="#969696" fill="none" stroke-width="1px" />
<path d="M 1745.23333333 197.5 L 1755.23333333 187.5 L 1745.23333333 177.5" stroke="#969696" fill="none" stroke-width="1px" />
<path d="M 1745.23333333 177.5 L 10.0 177.5" stroke="#969696" fill="none" stroke-width="1px" />
<path d="M 10.0 177.5 L 0.0 167.5 L 10.0 157.5" stroke="#969696" fill="none" stroke-width="1px" />
<path d="M 10.0 157.5 L 1745.23333333 157.5" stroke="#969696" fill="none" stroke-width="1px" />
<path d="M 1745.23333333 157.5 L 1755.23333333 147.5 L 1745.23333333 137.5" stroke="#969696" fill="none" stroke-width="1px" />
<path d="M 1745.23333333 137.5 L 10.0 137.5" stroke="#969696" fill="none" stroke-width="1px" />
<path d="M 10.0 137.5 L 0.0 127.5 L 10.0 117.5" stroke="#969696" fill="none" stroke-width="1px" />
<path d="M 10.0 117.5 L 1745.23333333 117.5" stroke="#969696" fill="none" stroke-width="1px" />
<path d="M 1745.23333333 117.5 L 1755.23333333 107.5 L 1745.23333333 97.5" stroke="#969696" fill="none" stroke-width="1px" />
<path d="M 1745.23333333 97.5 L 10.0 97.5" stroke="#969696" fill="none" stroke-width="1px" />
<path d="M 10.0 97.5 L 0.0 87.5 L 10.0 77.5" stroke="#969696" fill="none" stroke-width="1px" />
<path d="M 10.0 77.5 L 1745.23333333 77.5" stroke="#969696" fill="none" stroke-width="1px" />
<path d="M 1745.23333333 77.5 L 1755.23333333 67.5 L 1745.23333333 57.5" stroke="#969696" fill="none" stroke-width="1px" />
<path d="M 1745.23333333 57.5 L 10.0 57.5" stroke="#969696" fill="none" stroke-width="1px" />
<path d="M 10.0 57.5 L 0.0 47.5 L 10.0 37.5" stroke="#969696" fill="none" stroke-width="1px" />
<path d="M 10.0 37.5 L 1745.23333333 37.5" stroke="#969696" fill="none" stroke-width="1px" />
<path d="M 1745.23333333 37.5 L 1755.23333333 27.5 L 1745.23333333 17.5" stroke="#969696" fill="none" stroke-width="1px" />
<path d="M 1745.23333333 17.5 L 10.0 17.5" stroke="#969696" fill="none" stroke-width="1px" />
<path d="M 10.0 17.5 L 0.0 7.5 L 10.0 -2.5" stroke="#969696" fill="none" stroke-width="1px" />
<path d="M 10.0 -2.5 L 1745.23333333 -2.5" stroke="#969696" fill="none" stroke-width="1px" />
<path d="M 1745.23333333 -2.5 L 1755.23333333 -12.5 L 1745.23333333 -22.5" stroke="#969696" fill="none" stroke-width="1px" />
<path d="M 0.0 235.0 L 280.0 235.0" stroke="#0095FF" fill="none" stroke-width="2px" />
<path d="M 280.0 235.0 L 280.0 125.0" stroke="#0095FF" fill="none" stroke-width="2px" />
<path d="M 310.0 155.0 L 310.0 115.0" stroke="#0095FF" fill="none" stroke-width="2px" />
<path d="M 330.0 115.0 L 350.0 115.0" stroke="#0095FF" fill="none" stroke-width="2px" />
<path d="M 350.0 115.0 L 350.0 95.0" stroke="#0095FF" fill="none" stroke-width="2px" />
<path d="M 410.0 165.0 L 420.0 165.0" stroke="#0095FF" fill="none" stroke-width="2px" />
<path d="M 420.0 165.0 L 420.0 105.0" stroke="#0095FF" fill="none" stroke-width="2px" />
<path d="M 420.0 105.0 L 400.0 105.0" stroke="#0095FF" fill="none" stroke-width="2px" />
<path d="M 400.0 105.0 L 400.0 85.0" stroke="#0095FF" fill="none" stroke-width="2px" />
<path d="M 400.0 85.0 L 370.0 85.0" stroke="#0095FF" fill="none" stroke-width="2px" />
<path d="M 370.0 85.0 L 370.0 65.0" stroke="#0095FF" fill="none" stroke-width="2px" />
<path d="M 370.0 65.0 L 350.0 65.0" stroke="#0095FF" fill="none" stroke-width="2px" />
<path d="M 350.0 65.0 L 350.0 45.0" stroke="#0095FF" fill="none" stroke-width="2px" />
<path d="M 340.0 35.0 L 370.0 35.0" stroke="#0095FF" fill="none" stroke-width="2px" />
<path d="M 370.0 35.0 L 370.0 25.0" stroke="#0095FF" fill="none" stroke-width="2px" />
<path d="M 410.0 45.0 L 410.0 15.0" stroke="#0095FF" fill="none" stroke-width="2px" />
<path d="M 380.0 -5.0 L 420.0 -5.0" stroke="#0095FF" fill="none" stroke-width="2px" />
<path d="M 420.0 -5.0 L 420.0 15.0" stroke="#0095FF" fill="none" stroke-width="2px" />
<path d="M 420.0 15.0 L 300.0 15.0" stroke="#0095FF" fill="none" stroke-width="2px" />
<path d="M 300.0 15.0 L 300.0 95.0" stroke="#0095FF" fill="none" stroke-width="2px" />
<path d="M 300.0 95.0 L 690.0 95.0" stroke="#0095FF" fill="none" stroke-width="2px" />
<path d="M 690.0 95.0 L 690.0 55.0" stroke="#0095FF" fill="none" stroke-width="2px" />
<path d="M 800.0 65.0 L 790.0 65.0" stroke="#0095FF" fill="none" stroke-width="2px" />
<path d="M 790.0 65.0 L 790.0 85.0" stroke="#0095FF" fill="none" stroke-width="2px" />
<path d="M 730.0 85.0 L 750.0 85.0" stroke="#0095FF" fill="none" stroke-width="2px" />
<path d="M 750.0 85.0 L 750.0 95.0" stroke="#0095FF" fill="none" stroke-width="2px" />
<path d="M 770.0 105.0 L 780.0 105.0" stroke="#0095FF" fill="none" stroke-width="2px" />
<path d="M 780.0 105.0 L 780.0 125.0" stroke="#0095FF" fill="none" stroke-width="2px" />
<path d="M 710.0 225.0 L 710.0 185.0" stroke="#0095FF" fill="none" stroke-width="2px" />
<path d="M 720.0 185.0 L 720.0 165.0" stroke="#0095FF" fill="none" stroke-width="2px" />
<path d="M 730.0 155.0 L 740.0 155.0" stroke="#0095FF" fill="none" stroke-width="2px" />
<path d="M 740.0 155.0 L 740.0 135.0" stroke="#0095FF" fill="none" stroke-width="2px" />
<path d="M 750.0 135.0 L 780.0 135.0" stroke="#0095FF" fill="none" stroke-width="2px" />
<path d="M 780.0 135.0 L 780.0 145.0" stroke="#0095FF" fill="none" stroke-width="2px" />
<path d="M 790.0 135.0 L 820.0 135.0" stroke="#0095FF" fill="none" stroke-width="2px" />
<path d="M 820.0 135.0 L 820.0 185.0" stroke="#0095FF" fill="none" stroke-width="2px" />
<path d="M 820.0 185.0 L 820.0 215.0" stroke="#0095FF" fill="none" stroke-width="2px" />
<path d="M 770.0 215.0 L 790.0 215.0" stroke="#0095FF" fill="none" stroke-width="2px" />
<path d="M 790.0 215.0 L 790.0 225.0" stroke="#0095FF" fill="none" stroke-width="2px" />
<path d="M 810.0 225.0 L 780.0 225.0" stroke="#0095FF" fill="none" stroke-width="2px" />
<path d="M 780.0 225.0 L 780.0 45.0" stroke="#0095FF" fill="none" stroke-width="2px" />
<path d="M 730.0 15.0 L 1310.0 15.0" stroke="#0095FF" fill="none" stroke-width="2px" />
<path d="M 1310.0 15.0 L 1310.0 45.0" stroke="#0095FF" fill="none" stroke-width="2px" />
<path d="M 1380.0 215.0 L 1420.0 215.0" stroke="#0095FF" fill="none" stroke-width="2px" />
<path d="M 1420.0 215.0 L 1420.0 145.0" stroke="#0095FF" fill="none" stroke-width="2px" />
<path d="M 1420.0 145.0 L 1390.0 145.0" stroke="#0095FF" fill="none" stroke-width="2px" />
<path d="M 1390.0 145.0 L 1390.0 125.0" stroke="#0095FF" fill="none" stroke-width="2px" />
<path d="M 1340.0 105.0 L 1340.0 35.0" stroke="#0095FF" fill="none" stroke-width="2px" />
<path d="M 1350.0 35.0 L 1390.0 35.0" stroke="#0095FF" fill="none" stroke-width="2px" />
<path d="M 1390.0 35.0 L 1610.0 35.0" stroke="#0095FF" fill="none" stroke-width="2px" />
<path d="M 1640.0 55.0 L 1640.0 25.0" stroke="#0095FF" fill="none" stroke-width="2px" />
<path d="M 1650.0 25.0 L 1640.0 25.0" stroke="#0095FF" fill="none" stroke-width="2px" />
<path d="M 1640.0 25.0 L 1640.0 5.0" stroke="#0095FF" fill="none" stroke-width="2px" />
<path d="M 280.0 125.0 L 290.0 125.0" stroke="#FF0000" fill="none" stroke-width="4px" />
<path d="M 290.0 125.0 L 300.0 125.0" stroke="#FF0000" fill="none" stroke-width="4px" />
<path d="M 300.0 125.0 L 310.0 125.0" stroke="#FF0000" fill="none" stroke-width="4px" />
<path d="M 310.0 125.0 L 320.0 125.0" stroke="#FF0000" fill="none" stroke-width="4px" />
<path d="M 320.0 125.0 L 330.0 125.0" stroke="#FF0000" fill="none" stroke-width="4px" />
<path d="M 330.0 125.0 L 340.0 125.0" stroke="#FF0000" fill="none" stroke-width="4px" />
<path d="M 340.0 125.0 L 340.0 135.0" stroke="#FF0000" fill="none" stroke-width="4px" />
<path d="M 340.0 135.0 L 330.0 135.0" stroke="#FF0000" fill="none" stroke-width="4px" />
<path d="M 330.0 135.0 L 320.0 135.0" stroke="#FF0000" fill="none" stroke-width="4px" />
<path d="M 320.0 135.0 L 310.0 135.0" stroke="#FF0000" fill="none" stroke-width="4px" />
<path d="M 310.0 135.0 L 300.0 135.0" stroke="#FF0000" fill="none" stroke-width="4px" />
<path d="M 300.0 135.0 L 290.0 135.0" stroke="#FF0000" fill="none" stroke-width="4px" />
<path d="M 290.0 135.0 L 300.0 145.0" stroke="#FF0000" fill="none" stroke-width="4px" />
<path d="M 300.0 145.0 L 310.0 145.0" stroke="#FF0000" fill="none" stroke-width="4px" />
<path d="M 310.0 145.0 L 320.0 145.0" stroke="#FF0000" fill="none" stroke-width="4px" />
<path d="M 320.0 145.0 L 330.0 145.0" stroke="#FF0000" fill="none" stroke-width="4px" />
<path d="M 330.0 145.0 L 320.0 155.0" stroke="#FF0000" fill="none" stroke-width="4px" />
<path d="M 320.0 155.0 L 310.0 155.0" stroke="#FF0000" fill="none" stroke-width="4px" />
<path d="M 310.0 115.0 L 300.0 115.0" stroke="#FF0000" fill="none" stroke-width="4px" />
<path d="M 300.0 115.0 L 290.0 115.0" stroke="#FF0000" fill="none" stroke-width="4px" />
<path d="M 290.0 115.0 L 280.0 115.0" stroke="#FF0000" fill="none" stroke-width="4px" />
<path d="M 280.0 115.0 L 290.0 105.0" stroke="#FF0000" fill="none" stroke-width="4px" />
<path d="M 290.0 105.0 L 300.0 105.0" stroke="#FF0000" fill="none" stroke-width="4px" />
<path d="M 300.0 105.0 L 310.0 105.0" stroke="#FF0000" fill="none" stroke-width="4px" />
<path d="M 310.0 105.0 L 320.0 105.0" stroke="#FF0000" fill="none" stroke-width="4px" />
<path d="M 320.0 105.0 L 320.0 115.0" stroke="#FF0000" fill="none" stroke-width="4px" />
<path d="M 320.0 115.0 L 330.0 115.0" stroke="#FF0000" fill="none" stroke-width="4px" />
<path d="M 350.0 95.0 L 350.0 85.0" stroke="#FF0000" fill="none" stroke-width="4px" />
<path d="M 350.0 85.0 L 340.0 85.0" stroke="#FF0000" fill="none" stroke-width="4px" />
<path d="M 340.0 85.0 L 340.0 75.0" stroke="#FF0000" fill="none" stroke-width="4px" />
<path d="M 340.0 75.0 L 330.0 75.0" stroke="#FF0000" fill="none" stroke-width="4px" />
<path d="M 330.0 75.0 L 330.0 65.0" stroke="#FF0000" fill="none" stroke-width="4px" />
<path d="M 330.0 65.0 L 320.0 65.0" stroke="#FF0000" fill="none" stroke-width="4px" />
<path d="M 320.0 65.0 L 320.0 55.0" stroke="#FF0000" fill="none" stroke-width="4px" />
<path d="M 320.0 55.0 L 330.0 55.0" stroke="#FF0000" fill="none" stroke-width="4px" />
<path d="M 330.0 55.0 L 340.0 55.0" stroke="#FF0000" fill="none" stroke-width="4px" />
<path d="M 340.0 55.0 L 350.0 55.0" stroke="#FF0000" fill="none" stroke-width="4px" />
<path d="M 350.0 55.0 L 360.0 55.0" stroke="#FF0000" fill="none" stroke-width="4px" />
<path d="M 360.0 55.0 L 360.0 65.0" stroke="#FF0000" fill="none" stroke-width="4px" />
<path d="M 360.0 65.0 L 350.0 65.0" stroke="#FF0000" fill="none" stroke-width="4px" />
<path d="M 350.0 65.0 L 340.0 65.0" stroke="#FF0000" fill="none" stroke-width="4px" />
<path d="M 340.0 65.0 L 350.0 75.0" stroke="#FF0000" fill="none" stroke-width="4px" />
<path d="M 350.0 75.0 L 360.0 75.0" stroke="#FF0000" fill="none" stroke-width="4px" />
<path d="M 360.0 75.0 L 370.0 75.0" stroke="#FF0000" fill="none" stroke-width="4px" />
<path d="M 370.0 75.0 L 380.0 75.0" stroke="#FF0000" fill="none" stroke-width="4px" />
<path d="M 380.0 75.0 L 390.0 75.0" stroke="#FF0000" fill="none" stroke-width="4px" />
<path d="M 390.0 75.0 L 390.0 85.0" stroke="#FF0000" fill="none" stroke-width="4px" />
<path d="M 390.0 85.0 L 380.0 85.0" stroke="#FF0000" fill="none" stroke-width="4px" />
<path d="M 380.0 85.0 L 370.0 85.0" stroke="#FF0000" fill="none" stroke-width="4px" />
<path d="M 370.0 85.0 L 360.0 85.0" stroke="#FF0000" fill="none" stroke-width="4px" />
<path d="M 360.0 85.0 L 370.0 95.0" stroke="#FF0000" fill="none" stroke-width="4px" />
<path d="M 370.0 95.0 L 380.0 95.0" stroke="#FF0000" fill="none" stroke-width="4px" />
<path d="M 380.0 95.0 L 390.0 95.0" stroke="#FF0000" fill="none" stroke-width="4px" />
<path d="M 390.0 95.0 L 400.0 95.0" stroke="#FF0000" fill="none" stroke-width="4px" />
<path d="M 400.0 95.0 L 410.0 95.0" stroke="#FF0000" fill="none" stroke-width="4px" />
<path d="M 410.0 95.0 L 410.0 105.0" stroke="#FF0000" fill="none" stroke-width="4px" />
<path d="M 410.0 105.0 L 400.0 105.0" stroke="#FF0000" fill="none" stroke-width="4px" />
<path d="M 400.0 105.0 L 390.0 105.0" stroke="#FF0000" fill="none" stroke-width="4px" />
<path d="M 390.0 105.0 L 380.0 105.0" stroke="#FF0000" fill="none" stroke-width="4px" />
<path d="M 380.0 105.0 L 370.0 105.0" stroke="#FF0000" fill="none" stroke-width="4px" />
<path d="M 370.0 105.0 L 370.0 115.0" stroke="#FF0000" fill="none" stroke-width="4px" />
<path d="M 370.0 115.0 L 380.0 115.0" stroke="#FF0000" fill="none" stroke-width="4px" />
<path d="M 380.0 115.0 L 390.0 115.0" stroke="#FF0000" fill="none" stroke-width="4px" />
<path d="M 390.0 115.0 L 400.0 115.0" stroke="#FF0000" fill="none" stroke-width="4px" />
<path d="M 400.0 115.0 L 410.0 115.0" stroke="#FF0000" fill="none" stroke-width="4px" />
<path d="M 410.0 115.0 L 420.0 115.0" stroke="#FF0000" fill="none" stroke-width="4px" />
<path d="M 420.0 115.0 L 420.0 125.0" stroke="#FF0000" fill="none" stroke-width="4px" />
<path d="M 420.0 125.0 L 410.0 125.0" stroke="#FF0000" fill="none" stroke-width="4px" />
<path d="M 410.0 125.0 L 400.0 125.0" stroke="#FF0000" fill="none" stroke-width="4px" />
<path d="M 400.0 125.0 L 390.0 125.0" stroke="#FF0000" fill="none" stroke-width="4px" />
<path d="M 390.0 125.0 L 380.0 125.0" stroke="#FF0000" fill="none" stroke-width="4px" />
<path d="M 380.0 125.0 L 380.0 135.0" stroke="#FF0000" fill="none" stroke-width="4px" />
<path d="M 380.0 135.0 L 390.0 135.0" stroke="#FF0000" fill="none" stroke-width="4px" />
<path d="M 390.0 135.0 L 400.0 135.0" stroke="#FF0000" fill="none" stroke-width="4px" />
<path d="M 400.0 135.0 L 410.0 135.0" stroke="#FF0000" fill="none" stroke-width="4px" />
<path d="M 410.0 135.0 L 420.0 135.0" stroke="#FF0000" fill="none" stroke-width="4px" />
<path d="M 420.0 135.0 L 420.0 145.0" stroke="#FF0000" fill="none" stroke-width="4px" />
<path d="M 420.0 145.0 L 410.0 145.0" stroke="#FF0000" fill="none" stroke-width="4px" />
<path d="M 410.0 145.0 L 400.0 145.0" stroke="#FF0000" fill="none" stroke-width="4px" />
<path d="M 400.0 145.0 L 390.0 145.0" stroke="#FF0000" fill="none" stroke-width="4px" />
<path d="M 390.0 145.0 L 400.0 155.0" stroke="#FF0000" fill="none" stroke-width="4px" />
<path d="M 400.0 155.0 L 410.0 155.0" stroke="#FF0000" fill="none" stroke-width="4px" />
<path d="M 410.0 155.0 L 420.0 155.0" stroke="#FF0000" fill="none" stroke-width="4px" />
<path d="M 420.0 155.0 L 410.0 165.0" stroke="#FF0000" fill="none" stroke-width="4px" />
<path d="M 350.0 45.0 L 340.0 45.0" stroke="#FF0000" fill="none" stroke-width="4px" />
<path d="M 340.0 45.0 L 330.0 45.0" stroke="#FF0000" fill="none" stroke-width="4px" />
<path d="M 330.0 45.0 L 340.0 35.0" stroke="#FF0000" fill="none" stroke-width="4px" />
<path d="M 370.0 25.0 L 380.0 25.0" stroke="#FF0000" fill="none" stroke-width="4px" />
<path d="M 380.0 25.0 L 390.0 25.0" stroke="#FF0000" fill="none" stroke-width="4px" />
<path d="M 390.0 25.0 L 400.0 25.0" stroke="#FF0000" fill="none" stroke-width="4px" />
<path d="M 400.0 25.0 L 410.0 25.0" stroke="#FF0000" fill="none" stroke-width="4px" />
<path d="M 410.0 25.0 L 420.0 25.0" stroke="#FF0000" fill="none" stroke-width="4px" />
<path d="M 420.0 25.0 L 420.0 35.0" stroke="#FF0000" fill="none" stroke-width="4px" />
<path d="M 420.0 35.0 L 410.0 35.0" stroke="#FF0000" fill="none" stroke-width="4px" />
<path d="M 410.0 35.0 L 400.0 35.0" stroke="#FF0000" fill="none" stroke-width="4px" />
<path d="M 400.0 35.0 L 390.0 35.0" stroke="#FF0000" fill="none" stroke-width="4px" />
<path d="M 390.0 35.0 L 380.0 35.0" stroke="#FF0000" fill="none" stroke-width="4px" />
<path d="M 380.0 35.0 L 390.0 45.0" stroke="#FF0000" fill="none" stroke-width="4px" />
<path d="M 390.0 45.0 L 400.0 45.0" stroke="#FF0000" fill="none" stroke-width="4px" />
<path d="M 400.0 45.0 L 410.0 45.0" stroke="#FF0000" fill="none" stroke-width="4px" />
<path d="M 410.0 15.0 L 400.0 15.0" stroke="#FF0000" fill="none" stroke-width="4px" />
<path d="M 400.0 15.0 L 390.0 15.0" stroke="#FF0000" fill="none" stroke-width="4px" />
<path d="M 390.0 15.0 L 380.0 15.0" stroke="#FF0000" fill="none" stroke-width="4px" />
<path d="M 380.0 15.0 L 370.0 15.0" stroke="#FF0000" fill="none" stroke-width="4px" />
<path d="M 370.0 15.0 L 380.0 5.0" stroke="#FF0000" fill="none" stroke-width="4px" />
<path d="M 380.0 5.0 L 390.0 5.0" stroke="#FF0000" fill="none" stroke-width="4px" />
<path d="M 390.0 5.0 L 400.0 5.0" stroke="#FF0000" fill="none" stroke-width="4px" />
<path d="M 400.0 5.0 L 410.0 5.0" stroke="#FF0000" fill="none" stroke-width="4px" />
<path d="M 410.0 5.0 L 410.0 -5.0" stroke="#FF0000" fill="none" stroke-width="4px" />
<path d="M 410.0 -5.0 L 400.0 -5.0" stroke="#FF0000" fill="none" stroke-width="4px" />
<path d="M 400.0 -5.0 L 390.0 -5.0" stroke="#FF0000" fill="none" stroke-width="4px" />
<path d="M 390.0 -5.0 L 380.0 -5.0" stroke="#FF0000" fill="none" stroke-width="4px" />
<path d="M 690.0 55.0 L 700.0 55.0" stroke="#FF0000" fill="none" stroke-width="4px" />
<path d="M 700.0 55.0 L 710.0 55.0" stroke="#FF0000" fill="none" stroke-width="4px" />
<path d="M 710.0 55.0 L 720.0 55.0" stroke="#FF0000" fill="none" stroke-width="4px" />
<path d="M 720.0 55.0 L 730.0 55.0" stroke="#FF0000" fill="none" stroke-width="4px" />
<path d="M 730.0 55.0 L 740.0 55.0" stroke="#FF0000" fill="none" stroke-width="4px" />
<path d="M 740.0 55.0 L 750.0 55.0" stroke="#FF0000" fill="none" stroke-width="4px" />
<path d="M 750.0 55.0 L 760.0 55.0" stroke="#FF0000" fill="none" stroke-width="4px" />
<path d="M 760.0 55.0 L 770.0 55.0" stroke="#FF0000" fill="none" stroke-width="4px" />
<path d="M 770.0 55.0 L 780.0 55.0" stroke="#FF0000" fill="none" stroke-width="4px" />
<path d="M 780.0 55.0 L 790.0 55.0" stroke="#FF0000" fill="none" stroke-width="4px" />
<path d="M 790.0 55.0 L 790.0 65.0" stroke="#FF0000" fill="none" stroke-width="4px" />
<path d="M 790.0 65.0 L 780.0 65.0" stroke="#FF0000" fill="none" stroke-width="4px" />
<path d="M 780.0 65.0 L 770.0 65.0" stroke="#FF0000" fill="none" stroke-width="4px" />
<path d="M 770.0 65.0 L 760.0 65.0" stroke="#FF0000" fill="none" stroke-width="4px" />
<path d="M 760.0 65.0 L 750.0 65.0" stroke="#FF0000" fill="none" stroke-width="4px" />
<path d="M 750.0 65.0 L 740.0 65.0" stroke="#FF0000" fill="none" stroke-width="4px" />
<path d="M 740.0 65.0 L 730.0 65.0" stroke="#FF0000" fill="none" stroke-width="4px" />
<path d="M 730.0 65.0 L 720.0 65.0" stroke="#FF0000" fill="none" stroke-width="4px" />
<path d="M 720.0 65.0 L 710.0 65.0" stroke="#FF0000" fill="none" stroke-width="4px" />
<path d="M 710.0 65.0 L 700.0 65.0" stroke="#FF0000" fill="none" stroke-width="4px" />
<path d="M 700.0 65.0 L 710.0 75.0" stroke="#FF0000" fill="none" stroke-width="4px" />
<path d="M 710.0 75.0 L 720.0 75.0" stroke="#FF0000" fill="none" stroke-width="4px" />
<path d="M 720.0 75.0 L 730.0 75.0" stroke="#FF0000" fill="none" stroke-width="4px" />
<path d="M 730.0 75.0 L 740.0 75.0" stroke="#FF0000" fill="none" stroke-width="4px" />
<path d="M 740.0 75.0 L 750.0 75.0" stroke="#FF0000" fill="none" stroke-width="4px" />
<path d="M 750.0 75.0 L 760.0 75.0" stroke="#FF0000" fill="none" stroke-width="4px" />
<path d="M 760.0 75.0 L 770.0 75.0" stroke="#FF0000" fill="none" stroke-width="4px" />
<path d="M 770.0 75.0 L 780.0 75.0" stroke="#FF0000" fill="none" stroke-width="4px" />
<path d="M 780.0 75.0 L 790.0 75.0" stroke="#FF0000" fill="none" stroke-width="4px" />
<path d="M 790.0 75.0 L 800.0 75.0" stroke="#FF0000" fill="none" stroke-width="4px" />
<path d="M 800.0 75.0 L 800.0 65.0" stroke="#FF0000" fill="none" stroke-width="4px" />
<path d="M 790.0 85.0 L 780.0 85.0" stroke="#FF0000" fill="none" stroke-width="4px" />
<path d="M 780.0 85.0 L 770.0 85.0" stroke="#FF0000" fill="none" stroke-width="4px" />
<path d="M 770.0 85.0 L 760.0 85.0" stroke="#FF0000" fill="none" stroke-width="4px" />
<path d="M 760.0 85.0 L 750.0 85.0" stroke="#FF0000" fill="none" stroke-width="4px" />
<path d="M 750.0 85.0 L 740.0 85.0" stroke="#FF0000" fill="none" stroke-width="4px" />
<path d="M 740.0 85.0 L 730.0 85.0" stroke="#FF0000" fill="none" stroke-width="4px" />
<path d="M 750.0 95.0 L 760.0 95.0" stroke="#FF0000" fill="none" stroke-width="4px" />
<path d="M 760.0 95.0 L 770.0 95.0" stroke="#FF0000" fill="none" stroke-width="4px" />
<path d="M 770.0 95.0 L 780.0 95.0" stroke="#FF0000" fill="none" stroke-width="4px" />
<path d="M 780.0 95.0 L 770.0 105.0" stroke="#FF0000" fill="none" stroke-width="4px" />
<path d="M 780.0 125.0 L 780.0 135.0" stroke="#FF0000" fill="none" stroke-width="4px" />
<path d="M 780.0 135.0 L 770.0 135.0" stroke="#FF0000" fill="none" stroke-width="4px" />
<path d="M 770.0 135.0 L 770.0 145.0" stroke="#FF0000" fill="none" stroke-width="4px" />
<path d="M 770.0 145.0 L 760.0 145.0" stroke="#FF0000" fill="none" stroke-width="4px" />
<path d="M 760.0 145.0 L 750.0 145.0" stroke="#FF0000" fill="none" stroke-width="4px" />
<path d="M 750.0 145.0 L 740.0 145.0" stroke="#FF0000" fill="none" stroke-width="4px" />
<path d="M 740.0 145.0 L 730.0 145.0" stroke="#FF0000" fill="none" stroke-width="4px" />
<path d="M 730.0 145.0 L 720.0 145.0" stroke="#FF0000" fill="none" stroke-width="4px" />
<path d="M 720.0 145.0 L 720.0 155.0" stroke="#FF0000" fill="none" stroke-width="4px" />
<path d="M 720.0 155.0 L 710.0 155.0" stroke="#FF0000" fill="none" stroke-width="4px" />
<path d="M 710.0 155.0 L 710.0 165.0" stroke="#FF0000" fill="none" stroke-width="4px" />
<path d="M 710.0 165.0 L 700.0 165.0" stroke="#FF0000" fill="none" stroke-width="4px" />
<path d="M 700.0 165.0 L 700.0 175.0" stroke="#FF0000" fill="none" stroke-width="4px" />
<path d="M 700.0 175.0 L 690.0 175.0" stroke="#FF0000" fill="none" stroke-width="4px" />
<path d="M 690.0 175.0 L 690.0 185.0" stroke="#FF0000" fill="none" stroke-width="4px" />
<path d="M 690.0 185.0 L 680.0 185.0" stroke="#FF0000" fill="none" stroke-width="4px" />
<path d="M 680.0 185.0 L 690.0 195.0" stroke="#FF0000" fill="none" stroke-width="4px" />
<path d="M 690.0 195.0 L 700.0 195.0" stroke="#FF0000" fill="none" stroke-width="4px" />
<path d="M 700.0 195.0 L 710.0 195.0" stroke="#FF0000" fill="none" stroke-width="4px" />
<path d="M 710.0 195.0 L 720.0 195.0" stroke="#FF0000" fill="none" stroke-width="4px" />
<path d="M 720.0 195.0 L 730.0 195.0" stroke="#FF0000" fill="none" stroke-width="4px" />
<path d="M 730.0 195.0 L 740.0 195.0" stroke="#FF0000" fill="none" stroke-width="4px" />
<path d="M 740.0 195.0 L 750.0 195.0" stroke="#FF0000" fill="none" stroke-width="4px" />
<path d="M 750.0 195.0 L 760.0 195.0" stroke="#FF0000" fill="none" stroke-width="4px" />
<path d="M 760.0 195.0 L 770.0 195.0" stroke="#FF0000" fill="none" stroke-width="4px" />
<path d="M 770.0 195.0 L 780.0 195.0" stroke="#FF0000" fill="none" stroke-width="4px" />
<path d="M 780.0 195.0 L 790.0 195.0" stroke="#FF0000" fill="none" stroke-width="4px" />
<path d="M 790.0 195.0 L 800.0 195.0" stroke="#FF0000" fill="none" stroke-width="4px" />
<path d="M 800.0 195.0 L 810.0 195.0" stroke="#FF0000" fill="none" stroke-width="4px" />
<path d="M 810.0 195.0 L 820.0 195.0" stroke="#FF0000" fill="none" stroke-width="4px" />
<path d="M 820.0 195.0 L 820.0 205.0" stroke="#FF0000" fill="none" stroke-width="4px" />
<path d="M 820.0 205.0 L 810.0 205.0" stroke="#FF0000" fill="none" stroke-width="4px" />
<path d="M 810.0 205.0 L 800.0 205.0" stroke="#FF0000" fill="none" stroke-width="4px" />
<path d="M 800.0 205.0 L 790.0 205.0" stroke="#FF0000" fill="none" stroke-width="4px" />
<path d="M 790.0 205.0 L 780.0 205.0" stroke="#FF0000" fill="none" stroke-width="4px" />
<path d="M 780.0 205.0 L 770.0 205.0" stroke="#FF0000" fill="none" stroke-width="4px" />
<path d="M 770.0 205.0 L 760.0 205.0" stroke="#FF0000" fill="none" stroke-width="4px" />
<path d="M 760.0 205.0 L 750.0 205.0" stroke="#FF0000" fill="none" stroke-width="4px" />
<path d="M 750.0 205.0 L 740.0 205.0" stroke="#FF0000" fill="none" stroke-width="4px" />
<path d="M 740.0 205.0 L 730.0 205.0" stroke="#FF0000" fill="none" stroke-width="4px" />
<path d="M 730.0 205.0 L 720.0 205.0" stroke="#FF0000" fill="none" stroke-width="4px" />
<path d="M 720.0 205.0 L 710.0 205.0" stroke="#FF0000" fill="none" stroke-width="4px" />
<path d="M 710.0 205.0 L 700.0 205.0" stroke="#FF0000" fill="none" stroke-width="4px" />
<path d="M 700.0 205.0 L 690.0 205.0" stroke="#FF0000" fill="none" stroke-width="4px" />
<path d="M 690.0 205.0 L 700.0 215.0" stroke="#FF0000" fill="none" stroke-width="4px" />
<path d="M 700.0 215.0 L 710.0 215.0" stroke="#FF0000" fill="none" stroke-width="4px" />
<path d="M 710.0 215.0 L 720.0 215.0" stroke="#FF0000" fill="none" stroke-width="4px" />
<path d="M 720.0 215.0 L 730.0 215.0" stroke="#FF0000" fill="none" stroke-width="4px" />
<path d="M 730.0 215.0 L 740.0 215.0" stroke="#FF0000" fill="none" stroke-width="4px" />
<path d="M 740.0 215.0 L 730.0 225.0" stroke="#FF0000" fill="none" stroke-width="4px" />
<path d="M 730.0 225.0 L 720.0 225.0" stroke="#FF0000" fill="none" stroke-width="4px" />
<path d="M 720.0 225.0 L 710.0 225.0" stroke="#FF0000" fill="none" stroke-width="4px" />
<path d="M 710.0 185.0 L 700.0 185.0" stroke="#FF0000" fill="none" stroke-width="4px" />
<path d="M 700.0 185.0 L 710.0 175.0" stroke="#FF0000" fill="none" stroke-width="4px" />
<path d="M 710.0 175.0 L 720.0 175.0" stroke="#FF0000" fill="none" stroke-width="4px" />
<path d="M 720.0 175.0 L 730.0 175.0" stroke="#FF0000" fill="none" stroke-width="4px" />
<path d="M 730.0 175.0 L 740.0 175.0" stroke="#FF0000" fill="none" stroke-width="4px" />
<path d="M 740.0 175.0 L 750.0 175.0" stroke="#FF0000" fill="none" stroke-width="4px" />
<path d="M 750.0 175.0 L 760.0 175.0" stroke="#FF0000" fill="none" stroke-width="4px" />
<path d="M 760.0 175.0 L 770.0 175.0" stroke="#FF0000" fill="none" stroke-width="4px" />
<path d="M 770.0 175.0 L 780.0 175.0" stroke="#FF0000" fill="none" stroke-width="4px" />
<path d="M 780.0 175.0 L 790.0 175.0" stroke="#FF0000" fill="none" stroke-width="4px" />
<path d="M 790.0 175.0 L 800.0 175.0" stroke="#FF0000" fill="none" stroke-width="4px" />
<path d="M 800.0 175.0 L 810.0 175.0" stroke="#FF0000" fill="none" stroke-width="4px" />
<path d="M 810.0 175.0 L 810.0 185.0" stroke="#FF0000" fill="none" stroke-width="4px" />
<path d="M 810.0 185.0 L 800.0 185.0" stroke="#FF0000" fill="none" stroke-width="4px" />
<path d="M 800.0 185.0 L 790.0 185.0" stroke="#FF0000" fill="none" stroke-width="4px" />
<path d="M 790.0 185.0 L 780.0 185.0" stroke="#FF0000" fill="none" stroke-width="4px" />
<path d="M 780.0 185.0 L 770.0 185.0" stroke="#FF0000" fill="none" stroke-width="4px" />
<path d="M 770.0 185.0 L 760.0 185.0" stroke="#FF0000" fill="none" stroke-width="4px" />
<path d="M 760.0 185.0 L 750.0 185.0" stroke="#FF0000" fill="none" stroke-width="4px" />
<path d="M 750.0 185.0 L 740.0 185.0" stroke="#FF0000" fill="none" stroke-width="4px" />
<path d="M 740.0 185.0 L 730.0 185.0" stroke="#FF0000" fill="none" stroke-width="4px" />
<path d="M 730.0 185.0 L 720.0 185.0" stroke="#FF0000" fill="none" stroke-width="4px" />
<path d="M 720.0 165.0 L 730.0 165.0" stroke="#FF0000" fill="none" stroke-width="4px" />
<path d="M 730.0 165.0 L 740.0 165.0" stroke="#FF0000" fill="none" stroke-width="4px" />
<path d="M 740.0 165.0 L 750.0 165.0" stroke="#FF0000" fill="none" stroke-width="4px" />
<path d="M 750.0 165.0 L 760.0 165.0" stroke="#FF0000" fill="none" stroke-width="4px" />
<path d="M 760.0 165.0 L 770.0 165.0" stroke="#FF0000" fill="none" stroke-width="4px" />
<path d="M 770.0 165.0 L 780.0 165.0" stroke="#FF0000" fill="none" stroke-width="4px" />
<path d="M 780.0 165.0 L 790.0 165.0" stroke="#FF0000" fill="none" stroke-width="4px" />
<path d="M 790.0 165.0 L 800.0 165.0" stroke="#FF0000" fill="none" stroke-width="4px" />
<path d="M 800.0 165.0 L 800.0 155.0" stroke="#FF0000" fill="none" stroke-width="4px" />
<path d="M 800.0 155.0 L 790.0 155.0" stroke="#FF0000" fill="none" stroke-width="4px" />
<path d="M 790.0 155.0 L 780.0 155.0" stroke="#FF0000" fill="none" stroke-width="4px" />
<path d="M 780.0 155.0 L 770.0 155.0" stroke="#FF0000" fill="none" stroke-width="4px" />
<path d="M 770.0 155.0 L 760.0 155.0" stroke="#FF0000" fill="none" stroke-width="4px" />
<path d="M 760.0 155.0 L 750.0 155.0" stroke="#FF0000" fill="none" stroke-width="4px" />
<path d="M 750.0 155.0 L 740.0 155.0" stroke="#FF0000" fill="none" stroke-width="4px" />
<path d="M 740.0 155.0 L 730.0 155.0" stroke="#FF0000" fill="none" stroke-width="4px" />
<path d="M 740.0 135.0 L 750.0 135.0" stroke="#FF0000" fill="none" stroke-width="4px" />
<path d="M 780.0 145.0 L 790.0 145.0" stroke="#FF0000" fill="none" stroke-width="4px" />
<path d="M 790.0 145.0 L 790.0 135.0" stroke="#FF0000" fill="none" stroke-width="4px" />
<path d="M 820.0 215.0 L 810.0 215.0" stroke="#FF0000" fill="none" stroke-width="4px" />
<path d="M 810.0 215.0 L 800.0 215.0" stroke="#FF0000" fill="none" stroke-width="4px" />
<path d="M 800.0 215.0 L 790.0 215.0" stroke="#FF0000" fill="none" stroke-width="4px" />
<path d="M 790.0 215.0 L 780.0 215.0" stroke="#FF0000" fill="none" stroke-width="4px" />
<path d="M 780.0 215.0 L 770.0 215.0" stroke="#FF0000" fill="none" stroke-width="4px" />
<path d="M 790.0 225.0 L 800.0 225.0" stroke="#FF0000" fill="none" stroke-width="4px" />
<path d="M 800.0 225.0 L 810.0 225.0" stroke="#FF0000" fill="none" stroke-width="4px" />
<path d="M 780.0 45.0 L 770.0 45.0" stroke="#FF0000" fill="none" stroke-width="4px" />
<path d="M 770.0 45.0 L 760.0 45.0" stroke="#FF0000" fill="none" stroke-width="4px" />
<path d="M 760.0 45.0 L 750.0 45.0" stroke="#FF0000" fill="none" stroke-width="4px" />
<path d="M 750.0 45.0 L 740.0 45.0" stroke="#FF0000" fill="none" stroke-width="4px" />
<path d="M 740.0 45.0 L 730.0 45.0" stroke="#FF0000" fill="none" stroke-width="4px" />
<path d="M 730.0 45.0 L 720.0 45.0" stroke="#FF0000" fill="none" stroke-width="4px" />
<path d="M 720.0 45.0 L 710.0 45.0" stroke="#FF0000" fill="none" stroke-width="4px" />
<path d="M 710.0 45.0 L 700.0 45.0" stroke="#FF0000" fill="none" stroke-width="4px" />
<path d="M 700.0 45.0 L 690.0 45.0" stroke="#FF0000" fill="none" stroke-width="4px" />
<path d="M 690.0 45.0 L 690.0 35.0" stroke="#FF0000" fill="none" stroke-width="4px" />
<path d="M 690.0 35.0 L 700.0 35.0" stroke="#FF0000" fill="none" stroke-width="4px" />
<path d="M 700.0 35.0 L 710.0 35.0" stroke="#FF0000" fill="none" stroke-width="4px" />
<path d="M 710.0 35.0 L 720.0 35.0" stroke="#FF0000" fill="none" stroke-width="4px" />
<path d="M 720.0 35.0 L 730.0 35.0" stroke="#FF0000" fill="none" stroke-width="4px" />
<path d="M 730.0 35.0 L 740.0 35.0" stroke="#FF0000" fill="none" stroke-width="4px" />
<path d="M 740.0 35.0 L 750.0 35.0" stroke="#FF0000" fill="none" stroke-width="4px" />
<path d="M 750.0 35.0 L 740.0 25.0" stroke="#FF0000" fill="none" stroke-width="4px" />
<path d="M 740.0 25.0 L 730.0 25.0" stroke="#FF0000" fill="none" stroke-width="4px" />
<path d="M 730.0 25.0 L 720.0 25.0" stroke="#FF0000" fill="none" stroke-width="4px" />
<path d="M 720.0 25.0 L 710.0 25.0" stroke="#FF0000" fill="none" stroke-width="4px" />
<path d="M 710.0 25.0 L 700.0 25.0" stroke="#FF0000" fill="none" stroke-width="4px" />
<path d="M 700.0 25.0 L 710.0 15.0" stroke="#FF0000" fill="none" stroke-width="4px" />
<path d="M 710.0 15.0 L 720.0 15.0" stroke="#FF0000" fill="none" stroke-width="4px" />
<path d="M 720.0 15.0 L 730.0 15.0" stroke="#FF0000" fill="none" stroke-width="4px" />
<path d="M 1310.0 45.0 L 1320.0 45.0" stroke="#FF0000" fill="none" stroke-width="4px" />
<path d="M 1320.0 45.0 L 1330.0 45.0" stroke="#FF0000" fill="none" stroke-width="4px" />
<path d="M 1330.0 45.0 L 1340.0 45.0" stroke="#FF0000" fill="none" stroke-width="4px" />
<path d="M 1340.0 45.0 L 1350.0 45.0" stroke="#FF0000" fill="none" stroke-width="4px" />
<path d="M 1350.0 45.0 L 1360.0 45.0" stroke="#FF0000" fill="none" stroke-width="4px" />
<path d="M 1360.0 45.0 L 1370.0 45.0" stroke="#FF0000" fill="none" stroke-width="4px" />
<path d="M 1370.0 45.0 L 1380.0 45.0" stroke="#FF0000" fill="none" stroke-width="4px" />
<path d="M 1380.0 45.0 L 1390.0 45.0" stroke="#FF0000" fill="none" stroke-width="4px" />
<path d="M 1390.0 45.0 L 1390.0 55.0" stroke="#FF0000" fill="none" stroke-width="4px" />
<path d="M 1390.0 55.0 L 1380.0 55.0" stroke="#FF0000" fill="none" stroke-width="4px" />
<path d="M 1380.0 55.0 L 1370.0 55.0" stroke="#FF0000" fill="none" stroke-width="4px" />
<path d="M 1370.0 55.0 L 1360.0 55.0" stroke="#FF0000" fill="none" stroke-width="4px" />
<path d="M 1360.0 55.0 L 1350.0 55.0" stroke="#FF0000" fill="none" stroke-width="4px" />
<path d="M 1350.0 55.0 L 1340.0 55.0" stroke="#FF0000" fill="none" stroke-width="4px" />
<path d="M 1340.0 55.0 L 1330.0 55.0" stroke="#FF0000" fill="none" stroke-width="4px" />
<path d="M 1330.0 55.0 L 1320.0 55.0" stroke="#FF0000" fill="none" stroke-width="4px" />
<path d="M 1320.0 55.0 L 1310.0 55.0" stroke="#FF0000" fill="none" stroke-width="4px" />
<path d="M 1310.0 55.0 L 1310.0 65.0" stroke="#FF0000" fill="none" stroke-width="4px" />
<path d="M 1310.0 65.0 L 1320.0 65.0" stroke="#FF0000" fill="none" stroke-width="4px" />
<path d="M 1320.0 65.0 L 1330.0 65.0" stroke="#FF0000" fill="none" stroke-width="4px" />
<path d="M 1330.0 65.0 L 1340.0 65.0" stroke="#FF0000" fill="none" stroke-width="4px" />
<path d="M 1340.0 65.0 L 1350.0 65.0" stroke="#FF0000" fill="none" stroke-width="4px" />
<path d="M 1350.0 65.0 L 1360.0 65.0" stroke="#FF0000" fill="none" stroke-width="4px" />
<path d="M 1360.0 65.0 L 1370.0 65.0" stroke="#FF0000" fill="none" stroke-width="4px" />
<path d="M 1370.0 65.0 L 1380.0 65.0" stroke="#FF0000" fill="none" stroke-width="4px" />
<path d="M 1380.0 65.0 L 1390.0 65.0" stroke="#FF0000" fill="none" stroke-width="4px" />
<path d="M 1390.0 65.0 L 1380.0 75.0" stroke="#FF0000" fill="none" stroke-width="4px" />
<path d="M 1380.0 75.0 L 1370.0 75.0" stroke="#FF0000" fill="none" stroke-width="4px" />
<path d="M 1370.0 75.0 L 1360.0 75.0" stroke="#FF0000" fill="none" stroke-width="4px" />
<path d="M 1360.0 75.0 L 1350.0 75.0" stroke="#FF0000" fill="none" stroke-width="4px" />
<path d="M 1350.0 75.0 L 1340.0 75.0" stroke="#FF0000" fill="none" stroke-width="4px" />
<path d="M 1340.0 75.0 L 1330.0 75.0" stroke="#FF0000" fill="none" stroke-width="4px" />
<path d="M 1330.0 75.0 L 1320.0 75.0" stroke="#FF0000" fill="none" stroke-width="4px" />
<path d="M 1320.0 75.0 L 1310.0 75.0" stroke="#FF0000" fill="none" stroke-width="4px" />
<path d="M 1310.0 75.0 L 1320.0 85.0" stroke="#FF0000" fill="none" stroke-width="4px" />
<path d="M 1320.0 85.0 L 1330.0 85.0" stroke="#FF0000" fill="none" stroke-width="4px" />
<path d="M 1330.0 85.0 L 1340.0 85.0" stroke="#FF0000" fill="none" stroke-width="4px" />
<path d="M 1340.0 85.0 L 1350.0 85.0" stroke="#FF0000" fill="none" stroke-width="4px" />
<path d="M 1350.0 85.0 L 1360.0 85.0" stroke="#FF0000" fill="none" stroke-width="4px" />
<path d="M 1360.0 85.0 L 1370.0 85.0" stroke="#FF0000" fill="none" stroke-width="4px" />
<path d="M 1370.0 85.0 L 1370.0 95.0" stroke="#FF0000" fill="none" stroke-width="4px" />
<path d="M 1370.0 95.0 L 1360.0 95.0" stroke="#FF0000" fill="none" stroke-width="4px" />
<path d="M 1360.0 95.0 L 1350.0 95.0" stroke="#FF0000" fill="none" stroke-width="4px" />
<path d="M 1350.0 95.0 L 1340.0 95.0" stroke="#FF0000" fill="none" stroke-width="4px" />
<path d="M 1340.0 95.0 L 1330.0 95.0" stroke="#FF0000" fill="none" stroke-width="4px" />
<path d="M 1330.0 95.0 L 1330.0 105.0" stroke="#FF0000" fill="none" stroke-width="4px" />
<path d="M 1330.0 105.0 L 1320.0 105.0" stroke="#FF0000" fill="none" stroke-width="4px" />
<path d="M 1320.0 105.0 L 1320.0 115.0" stroke="#FF0000" fill="none" stroke-width="4px" />
<path d="M 1320.0 115.0 L 1310.0 115.0" stroke="#FF0000" fill="none" stroke-width="4px" />
<path d="M 1310.0 115.0 L 1310.0 125.0" stroke="#FF0000" fill="none" stroke-width="4px" />
<path d="M 1310.0 125.0 L 1300.0 125.0" stroke="#FF0000" fill="none" stroke-width="4px" />
<path d="M 1300.0 125.0 L 1300.0 135.0" stroke="#FF0000" fill="none" stroke-width="4px" />
<path d="M 1300.0 135.0 L 1310.0 135.0" stroke="#FF0000" fill="none" stroke-width="4px" />
<path d="M 1310.0 135.0 L 1320.0 135.0" stroke="#FF0000" fill="none" stroke-width="4px" />
<path d="M 1320.0 135.0 L 1330.0 135.0" stroke="#FF0000" fill="none" stroke-width="4px" />
<path d="M 1330.0 135.0 L 1340.0 135.0" stroke="#FF0000" fill="none" stroke-width="4px" />
<path d="M 1340.0 135.0 L 1350.0 135.0" stroke="#FF0000" fill="none" stroke-width="4px" />
<path d="M 1350.0 135.0 L 1360.0 135.0" stroke="#FF0000" fill="none" stroke-width="4px" />
<path d="M 1360.0 135.0 L 1370.0 135.0" stroke="#FF0000" fill="none" stroke-width="4px" />
<path d="M 1370.0 135.0 L 1380.0 135.0" stroke="#FF0000" fill="none" stroke-width="4px" />
<path d="M 1380.0 135.0 L 1390.0 135.0" stroke="#FF0000" fill="none" stroke-width="4px" />
<path d="M 1390.0 135.0 L 1400.0 135.0" stroke="#FF0000" fill="none" stroke-width="4px" />
<path d="M 1400.0 135.0 L 1410.0 135.0" stroke="#FF0000" fill="none" stroke-width="4px" />
<path d="M 1410.0 135.0 L 1410.0 145.0" stroke="#FF0000" fill="none" stroke-width="4px" />
<path d="M 1410.0 145.0 L 1400.0 145.0" stroke="#FF0000" fill="none" stroke-width="4px" />
<path d="M 1400.0 145.0 L 1390.0 145.0" stroke="#FF0000" fill="none" stroke-width="4px" />
<path d="M 1390.0 145.0 L 1380.0 145.0" stroke="#FF0000" fill="none" stroke-width="4px" />
<path d="M 1380.0 145.0 L 1370.0 145.0" stroke="#FF0000" fill="none" stroke-width="4px" />
<path d="M 1370.0 145.0 L 1360.0 145.0" stroke="#FF0000" fill="none" stroke-width="4px" />
<path d="M 1360.0 145.0 L 1350.0 145.0" stroke="#FF0000" fill="none" stroke-width="4px" />
<path d="M 1350.0 145.0 L 1340.0 145.0" stroke="#FF0000" fill="none" stroke-width="4px" />
<path d="M 1340.0 145.0 L 1330.0 145.0" stroke="#FF0000" fill="none" stroke-width="4px" />
<path d="M 1330.0 145.0 L 1320.0 145.0" stroke="#FF0000" fill="none" stroke-width="4px" />
<path d="M 1320.0 145.0 L 1310.0 145.0" stroke="#FF0000" fill="none" stroke-width="4px" />
<path d="M 1310.0 145.0 L 1300.0 145.0" stroke="#FF0000" fill="none" stroke-width="4px" />
<path d="M 1300.0 145.0 L 1290.0 145.0" stroke="#FF0000" fill="none" stroke-width="4px" />
<path d="M 1290.0 145.0 L 1290.0 155.0" stroke="#FF0000" fill="none" stroke-width="4px" />
<path d="M 1290.0 155.0 L 1300.0 155.0" stroke="#FF0000" fill="none" stroke-width="4px" />
<path d="M 1300.0 155.0 L 1310.0 155.0" stroke="#FF0000" fill="none" stroke-width="4px" />
<path d="M 1310.0 155.0 L 1320.0 155.0" stroke="#FF0000" fill="none" stroke-width="4px" />
<path d="M 1320.0 155.0 L 1330.0 155.0" stroke="#FF0000" fill="none" stroke-width="4px" />
<path d="M 1330.0 155.0 L 1340.0 155.0" stroke="#FF0000" fill="none" stroke-width="4px" />
<path d="M 1340.0 155.0 L 1350.0 155.0" stroke="#FF0000" fill="none" stroke-width="4px" />
<path d="M 1350.0 155.0 L 1360.0 155.0" stroke="#FF0000" fill="none" stroke-width="4px" />
<path d="M 1360.0 155.0 L 1370.0 155.0" stroke="#FF0000" fill="none" stroke-width="4px" />
<path d="M 1370.0 155.0 L 1380.0 155.0" stroke="#FF0000" fill="none" stroke-width="4px" />
<path d="M 1380.0 155.0 L 1390.0 155.0" stroke="#FF0000" fill="none" stroke-width="4px" />
<path d="M 1390.0 155.0 L 1400.0 155.0" stroke="#FF0000" fill="none" stroke-width="4px" />
<path d="M 1400.0 155.0 L 1410.0 155.0" stroke="#FF0000" fill="none" stroke-width="4px" />
<path d="M 1410.0 155.0 L 1420.0 155.0" stroke="#FF0000" fill="none" stroke-width="4px" />
<path d="M 1420.0 155.0 L 1420.0 165.0" stroke="#FF0000" fill="none" stroke-width="4px" />
<path d="M 1420.0 165.0 L 1410.0 165.0" stroke="#FF0000" fill="none" stroke-width="4px" />
<path d="M 1410.0 165.0 L 1400.0 165.0" stroke="#FF0000" fill="none" stroke-width="4px" />
<path d="M 1400.0 165.0 L 1390.0 165.0" stroke="#FF0000" fill="none" stroke-width="4px" />
<path d="M 1390.0 165.0 L 1380.0 165.0" stroke="#FF0000" fill="none" stroke-width="4px" />
<path d="M 1380.0 165.0 L 1370.0 165.0" stroke="#FF0000" fill="none" stroke-width="4px" />
<path d="M 1370.0 165.0 L 1360.0 165.0" stroke="#FF0000" fill="none" stroke-width="4px" />
<path d="M 1360.0 165.0 L 1350.0 165.0" stroke="#FF0000" fill="none" stroke-width="4px" />
<path d="M 1350.0 165.0 L 1340.0 165.0" stroke="#FF0000" fill="none" stroke-width="4px" />
<path d="M 1340.0 165.0 L 1330.0 165.0" stroke="#FF0000" fill="none" stroke-width="4px" />
<path d="M 1330.0 165.0 L 1320.0 165.0" stroke="#FF0000" fill="none" stroke-width="4px" />
<path d="M 1320.0 165.0 L 1310.0 165.0" stroke="#FF0000" fill="none" stroke-width="4px" />
<path d="M 1310.0 165.0 L 1300.0 165.0" stroke="#FF0000" fill="none" stroke-width="4px" />
<path d="M 1300.0 165.0 L 1300.0 175.0" stroke="#FF0000" fill="none" stroke-width="4px" />
<path d="M 1300.0 175.0 L 1310.0 175.0" stroke="#FF0000" fill="none" stroke-width="4px" />
<path d="M 1310.0 175.0 L 1320.0 175.0" stroke="#FF0000" fill="none" stroke-width="4px" />
<path d="M 1320.0 175.0 L 1330.0 175.0" stroke="#FF0000" fill="none" stroke-width="4px" />
<path d="M 1330.0 175.0 L 1340.0 175.0" stroke="#FF0000" fill="none" stroke-width="4px" />
<path d="M 1340.0 175.0 L 1350.0 175.0" stroke="#FF0000" fill="none" stroke-width="4px" />
<path d="M 1350.0 175.0 L 1360.0 175.0" stroke="#FF0000" fill="none" stroke-width="4px" />
<path d="M 1360.0 175.0 L 1370.0 175.0" stroke="#FF0000" fill="none" stroke-width="4px" />
<path d="M 1370.0 175.0 L 1380.0 175.0" stroke="#FF0000" fill="none" stroke-width="4px" />
<path d="M 1380.0 175.0 L 1390.0 175.0" stroke="#FF0000" fill="none" stroke-width="4px" />
<path d="M 1390.0 175.0 L 1400.0 175.0" stroke="#FF0000" fill="none" stroke-width="4px" />
<path d="M 1400.0 175.0 L 1410.0 175.0" stroke="#FF0000" fill="none" stroke-width="4px" />
<path d="M 1410.0 175.0 L 1420.0 175.0" stroke="#FF0000" fill="none" stroke-width="4px" />
<path d="M 1420.0 175.0 L 1410.0 185.0" stroke="#FF0000" fill="none" stroke-width="4px" />
<path d="M 1410.0 185.0 L 1400.0 185.0" stroke="#FF0000" fill="none" stroke-width="4px" />
<path d="M 1400.0 185.0 L 1390.0 185.0" stroke="#FF0000" fill="none" stroke-width="4px" />
<path d="M 1390.0 185.0 L 1380.0 185.0" stroke="#FF0000" fill="none" stroke-width="4px" />
<path d="M 1380.0 185.0 L 1370.0 185.0" stroke="#FF0000" fill="none" stroke-width="4px" />
<path d="M 1370.0 185.0 L 1360.0 185.0" stroke="#FF0000" fill="none" stroke-width="4px" />
<path d="M 1360.0 185.0 L 1350.0 185.0" stroke="#FF0000" fill="none" stroke-width="4px" />
<path d="M 1350.0 185.0 L 1340.0 185.0" stroke="#FF0000" fill="none" stroke-width="4px" />
<path d="M 1340.0 185.0 L 1330.0 185.0" stroke="#FF0000" fill="none" stroke-width="4px" />
<path d="M 1330.0 185.0 L 1320.0 185.0" stroke="#FF0000" fill="none" stroke-width="4px" />
<path d="M 1320.0 185.0 L 1310.0 185.0" stroke="#FF0000" fill="none" stroke-width="4px" />
<path d="M 1310.0 185.0 L 1320.0 195.0" stroke="#FF0000" fill="none" stroke-width="4px" />
<path d="M 1320.0 195.0 L 1330.0 195.0" stroke="#FF0000" fill="none" stroke-width="4px" />
<path d="M 1330.0 195.0 L 1340.0 195.0" stroke="#FF0000" fill="none" stroke-width="4px" />
<path d="M 1340.0 195.0 L 1350.0 195.0" stroke="#FF0000" fill="none" stroke-width="4px" />
<path d="M 1350.0 195.0 L 1360.0 195.0" stroke="#FF0000" fill="none" stroke-width="4px" />
<path d="M 1360.0 195.0 L 1370.0 195.0" stroke="#FF0000" fill="none" stroke-width="4px" />
<path d="M 1370.0 195.0 L 1380.0 195.0" stroke="#FF0000" fill="none" stroke-width="4px" />
<path d="M 1380.0 195.0 L 1390.0 195.0" stroke="#FF0000" fill="none" stroke-width="4px" />
<path d="M 1390.0 195.0 L 1400.0 195.0" stroke="#FF0000" fill="none" stroke-width="4px" />
<path d="M 1400.0 195.0 L 1390.0 205.0" stroke="#FF0000" fill="none" stroke-width="4px" />
<path d="M 1390.0 205.0 L 1380.0 205.0" stroke="#FF0000" fill="none" stroke-width="4px" />
<path d="M 1380.0 205.0 L 1370.0 205.0" stroke="#FF0000" fill="none" stroke-width="4px" />
<path d="M 1370.0 205.0 L 1360.0 205.0" stroke="#FF0000" fill="none" stroke-width="4px" />
<path d="M 1360.0 205.0 L 1350.0 205.0" stroke="#FF0000" fill="none" stroke-width="4px" />
<path d="M 1350.0 205.0 L 1340.0 205.0" stroke="#FF0000" fill="none" stroke-width="4px" />
<path d="M 1340.0 205.0 L 1330.0 205.0" stroke="#FF0000" fill="none" stroke-width="4px" />
<path d="M 1330.0 205.0 L 1340.0 215.0" stroke="#FF0000" fill="none" stroke-width="4px" />
<path d="M 1340.0 215.0 L 1350.0 215.0" stroke="#FF0000" fill="none" stroke-width="4px" />
<path d="M 1350.0 215.0 L 1360.0 215.0" stroke="#FF0000" fill="none" stroke-width="4px" />
<path d="M 1360.0 215.0 L 1370.0 215.0" stroke="#FF0000" fill="none" stroke-width="4px" />
<path d="M 1370.0 215.0 L 1380.0 215.0" stroke="#FF0000" fill="none" stroke-width="4px" />
<path d="M 1390.0 125.0 L 1380.0 125.0" stroke="#FF0000" fill="none" stroke-width="4px" />
<path d="M 1380.0 125.0 L 1370.0 125.0" stroke="#FF0000" fill="none" stroke-width="4px" />
<path d="M 1370.0 125.0 L 1360.0 125.0" stroke="#FF0000" fill="none" stroke-width="4px" />
<path d="M 1360.0 125.0 L 1350.0 125.0" stroke="#FF0000" fill="none" stroke-width="4px" />
<path d="M 1350.0 125.0 L 1340.0 125.0" stroke="#FF0000" fill="none" stroke-width="4px" />
<path d="M 1340.0 125.0 L 1330.0 125.0" stroke="#FF0000" fill="none" stroke-width="4px" />
<path d="M 1330.0 125.0 L 1320.0 125.0" stroke="#FF0000" fill="none" stroke-width="4px" />
<path d="M 1320.0 125.0 L 1330.0 115.0" stroke="#FF0000" fill="none" stroke-width="4px" />
<path d="M 1330.0 115.0 L 1340.0 115.0" stroke="#FF0000" fill="none" stroke-width="4px" />
<path d="M 1340.0 115.0 L 1350.0 115.0" stroke="#FF0000" fill="none" stroke-width="4px" />
<path d="M 1350.0 115.0 L 1360.0 115.0" stroke="#FF0000" fill="none" stroke-width="4px" />
<path d="M 1360.0 115.0 L 1370.0 115.0" stroke="#FF0000" fill="none" stroke-width="4px" />
<path d="M 1370.0 115.0 L 1380.0 115.0" stroke="#FF0000" fill="none" stroke-width="4px" />
<path d="M 1380.0 115.0 L 1390.0 115.0" stroke="#FF0000" fill="none" stroke-width="4px" />
<path d="M 1390.0 115.0 L 1380.0 105.0" stroke="#FF0000" fill="none" stroke-width="4px" />
<path d="M 1380.0 105.0 L 1370.0 105.0" stroke="#FF0000" fill="none" stroke-width="4px" />
<path d="M 1370.0 105.0 L 1360.0 105.0" stroke="#FF0000" fill="none" stroke-width="4px" />
<path d="M 1360.0 105.0 L 1350.0 105.0" stroke="#FF0000" fill="none" stroke-width="4px" />
<path d="M 1350.0 105.0 L 1340.0 105.0" stroke="#FF0000" fill="none" stroke-width="4px" />
<path d="M 1340.0 35.0 L 1330.0 35.0" stroke="#FF0000" fill="none" stroke-width="4px" />
<path d="M 1330.0 35.0 L 1320.0 35.0" stroke="#FF0000" fill="none" stroke-width="4px" />
<path d="M 1320.0 35.0 L 1330.0 25.0" stroke="#FF0000" fill="none" stroke-width="4px" />
<path d="M 1330.0 25.0 L 1340.0 25.0" stroke="#FF0000" fill="none" stroke-width="4px" />
<path d="M 1340.0 25.0 L 1350.0 25.0" stroke="#FF0000" fill="none" stroke-width="4px" />
<path d="M 1350.0 25.0 L 1360.0 25.0" stroke="#FF0000" fill="none" stroke-width="4px" />
<path d="M 1360.0 25.0 L 1370.0 25.0" stroke="#FF0000" fill="none" stroke-width="4px" />
<path d="M 1370.0 25.0 L 1380.0 25.0" stroke="#FF0000" fill="none" stroke-width="4px" />
<path d="M 1380.0 25.0 L 1380.0 35.0" stroke="#FF0000" fill="none" stroke-width="4px" />
<path d="M 1380.0 35.0 L 1370.0 35.0" stroke="#FF0000" fill="none" stroke-width="4px" />
<path d="M 1370.0 35.0 L 1360.0 35.0" stroke="#FF0000" fill="none" stroke-width="4px" />
<path d="M 1360.0 35.0 L 1350.0 35.0" stroke="#FF0000" fill="none" stroke-width="4px" />
<path d="M 1610.0 35.0 L 1620.0 35.0" stroke="#FF0000" fill="none" stroke-width="4px" />
<path d="M 1620.0 35.0 L 1630.0 35.0" stroke="#FF0000" fill="none" stroke-width="4px" />
<path d="M 1630.0 35.0 L 1640.0 35.0" stroke="#FF0000" fill="none" stroke-width="4px" />
<path d="M 1640.0 35.0 L 1650.0 35.0" stroke="#FF0000" fill="none" stroke-width="4px" />
<path d="M 1650.0 35.0 L 1650.0 45.0" stroke="#FF0000" fill="none" stroke-width="4px" />
<path d="M 1650.0 45.0 L 1640.0 45.0" stroke="#FF0000" fill="none" stroke-width="4px" />
<path d="M 1640.0 45.0 L 1630.0 45.0" stroke="#FF0000" fill="none" stroke-width="4px" />
<path d="M 1630.0 45.0 L 1620.0 45.0" stroke="#FF0000" fill="none" stroke-width="4px" />
<path d="M 1620.0 45.0 L 1630.0 55.0" stroke="#FF0000" fill="none" stroke-width="4px" />
<path d="M 1630.0 55.0 L 1640.0 55.0" stroke="#FF0000" fill="none" stroke-width="4px" />
<path d="M 1640.0 25.0 L 1630.0 25.0" stroke="#FF0000" fill="none" stroke-width="4px" />
<path d="M 1630.0 25.0 L 1620.0 25.0" stroke="#FF0000" fill="none" stroke-width="4px" />
<path d="M 1620.0 25.0 L 1630.0 15.0" stroke="#FF0000" fill="none" stroke-width="4px" />
<path d="M 1630.0 15.0 L 1640.0 15.0" stroke="#FF0000" fill="none" stroke-width="4px" />
<path d="M 1640.0 15.0 L 1650.0 15.0" stroke="#FF0000" fill="none" stroke-width="4px" />
<path d="M 1650.0 15.0 L 1650.0 25.0" stroke="#FF0000" fill="none" stroke-width="4px" />
</svg>