<svg width="2472.26666667" height="235.0" xmlns="http://www.w3.org/2000/svg" version="1.1">
<path d="M 0.0 235.0 L 1985.0 235.0 L 1985.0 0.0 L 0.0 0.0 L 0.0 235.0" stroke="#000000" fill="none" stroke-width="3px" />
<path d="M 2472.26666667 235.0 L 1885.0 235.0 L 1885.0 0.0 L 2472.26666667 0.0 L 2472.26666667 235.0" stroke="#000000" fill="none" stroke-width="3px" />
<path d="M 10.0 257.5 L 0.0 247.5 L 10.0 237.5" stroke="#969696" fill="none" stroke-width="1px" />
<path d="M 10.0 237.5 L 1975.0 237.5" stroke="#969696" fill="none" stroke-width="1px" />
<path d="M 1975.0 237.5 L 1985.0 227.5 L 1975.0 217.5" stroke="#969696" fill="none" stroke-width="1px" />
<path d="M 1975.0 217.5 L 10.0 217.5" stroke="#969696" fill="none" stroke-width="1px" />
<path d="M 10.0 217.5 L 0.0 207.5 L 10.0 197.5" stroke="#969696" fill="none" stroke-width="1px" />
<path d="M 10.0 197.5 L 1975.0 197.5" stroke="#969696" fill="none" stroke-width="1px" />
<path d="M 1975.0 197.5 L 1985.0 187.5 L 1975.0 177.5" stroke="#969696" fill="none" stroke-width="1px" />
<path d="M 1975.0 177.5 L 10.0 177.5" stroke="#969696" fill="none" stroke-width="1px" />
<path d="M 10.0 177.5 L 0.0 167.5 L 10.0 157.5" stroke="#969696" fill="none" stroke-width="1px" />
<path d="M 10.0 157.5 L 1975.0 157.5" stroke="#969696" fill="none" stroke-width="1px" />
<path d="M 1975.0 157.5 L 1985.0 147.5 L 1975.0 137.5" stroke="#969696" fill="none" stroke-width="1px" />
<path d="M 1975.0 137.5 L 10.0 137.5" stroke="#969696" fill="none" stroke-width="1px" />
<path d="M 10.0 137.5 L 0.0 127.5 L 10.0 117.5" stroke="#969696" fill="none" stroke-width="1px" />
<path d="M 10.0 117.5 L 1975.0 117.5" stroke="#969696" fill="none" stroke-width="1px" />
<path d="M 1975.0 117.5 L 1985.0 107.5 L 1975.0 97.5" stroke="#969696" fill="none" stroke-width="1px" />
<path d="M 1975.0 97.5 L 10.0 97.5" stroke="#969696" fill="none" stroke-width="1px" />
<path d="M 10.0 97.5 L 0.0 87.5 L 10.0 77.5" stroke="#969696" fill="none" stroke-width="1px" />
<path d="M 10.0 77.5 L 1975.0 77.5" stroke="#969696" fill="none" stroke-width="1px" />
<path d="M 1975.0 77.5 L 1985.0 67.5 L 1975.0 57.5" stroke="#969696" fill="none" stroke-width="1px" />
<path d="M 1975.0 57.5 L 10.0 57.5" stroke="#969696" fill="none" stroke-width="1px" />
<path d="M 10.0 57.5 L 0.0 47.5 L 10.0 37.5" stroke="#969696" fill="none" stroke-width="1px" />
<path d="M 10.0 37.5 L 1975.0 37.5" stroke="#969696" fill="none" stroke-width="1px" />
<path d="M 1975.0 37.5 L 1985.0 27.5 L 1975.0 17.5" stroke="#969696" fill="none" stroke-width="1px" />
<path d="M 1975.0 17.5 L 10.0 17.5" stroke="#969696" fill="none" stroke-width="1px" />
<path d="M 10.0 17.5 L 0.0 7.5 L 10.0 -2.5" stroke="#969696" fill="none" stroke-width="1px" />
<path d="M 10.0 -2.5 L 1975.0 -2.5" stroke="#969696" fill="none" stroke-width="1px" />
<path d="M 1975.0 -2.5 L 1985.0 -12.5 L 1975.0 -22.5" stroke="#969696" fill="none" stroke-width="1px" />
<path d="M 2462.26666667 257.5 L 2472.26666667 247.5 L 2462.26666667 237.5" stroke="#969696" fill="none" stroke-width="1px" />
<path d="M 2462.26666667 237.5 L 1895.0 237.5" stroke="#969696" fill="none" stroke-width="1px" />
<path d="M 1895.0 237.5 L 1885.0 227.5 L 1895.0 217.5" stroke="#969696" fill="none" stroke-width="1px" />
<path d="M 1895.0 217.5 L 2462.26666667 217.5" stroke="#969696" fill="none" stroke-width="1px" />
<path d="M 2462.26666667 217.5 L 2472.26666667 207.5 L 2462.26666667 197.5" stroke="#969696" fill="none" stroke-width="1px" />
<path d="M 2462.26666667 197.5 L 1895.0 197.5" stroke="#969696" fill="none" stroke-width="1px" />
<path d="M 1895.0 197.5 L 1885.0 187.5 L 1895.0 177.5" stroke="#969696" fill="none" stroke-width="1px" />
<path d="M 1895.0 177.5 L 2462.26666667 177.5" stroke="#969696" fill="none" stroke-width="1px" />
<path d="M 2462.26666667 177.5 L 2472.26666667 167.5 L 2462.26666667 157.5" stroke="#969696" fill="none" stroke-width="1px" />
<path d="M 2462.26666667 157.5 L 1895.0 157.5" stroke="#969696" fill="none" stroke-width="1px" />
<path d="M 1895.0 157.5 L 1885.0 147.5 L 1895.0 137.5" stroke="#969696" fill="none" stroke-width="1px" />
<path d="M 1895.0 137.5 L 2462.26666667 137.5" stroke="#969696" fill="none" stroke-width="1px" />
<path d="M 2462.26666667 137.5 L 2472.26666667 127.5 L 2462.26666667 117.5" stroke="#969696" fill="none" stroke-width="1px" />
<path d="M 2462.26666667 117.5 L 1895.0 117.5" stroke="#969696" fill="none" stroke-width="1px" />
<path d="M 1895.0 117.5 L 1885.0 107.5 L 1895.0 97.5" stroke="#969696" fill="none" stroke-width="1px" />
<path d="M 1895.0 97.5 L 2462.26666667 97.5" stroke="#969696" fill="none" stroke-width="1px" />
<path d="M 2462.26666667 97.5 L 2472.26666667 87.5 L 2462.26666667 77.5" stroke="#969696" fill="none" stroke-width="1px" />
<path d="M 2462.26666667 77.5 L 1895.0 77.5" stroke="#969696" fill="none" stroke-width="1px" />
<path d="M 1895.0 77.5 L 1885.0 67.5 L 1895.0 57.5" stroke="#969696" fill="none" stroke-width="1px" />
<path d="M 1895.0 57.5 L 2462.26666667 57.5" stroke="#969696" fill="none" stroke-width="1px" />
<path d="M 2462.26666667 57.5 L 2472.26666667 47.5 L 2462.26666667 37.5" stroke="#969696" fill="none" stroke-width="1px" />
<path d="M 2462.26666667 37.5 L 1895.0 37.5" stroke="#969696" fill="none" stroke-width="1px" />
<path d="M 1895.0 37.5 L 1885.0 27.5 L 1895.0 17.5" stroke="#969696" fill="none" stroke-width="1px" />
<path d="M 1895.0 17.5 L 2462.26666667 17.5" stroke="#969696" fill="none" stroke-width="1px" />
<path d="M 2462.26666667 17.5 L 2472.26666667 7.5 L 2462.26666667 -2.5" stroke="#969696" fill="none" stroke-width="1px" />
<path d="M 2462.26666667 -2.5 L 1895.0 -2.5" stroke="#969696" fill="none" stroke-width="1px" />
<path d="M 1895.0 -2.5 L 1885.0 -12.5 L 1895.0 -22.5" stroke="#969696" fill="none" stroke-width="1px" />
<path d="M 40.0 215.0 L 20.0 215.0" stroke="#0095FF" fill="none" stroke-width="2px" />
<path d="M 20.0 215.0 L 20.0 235.0" stroke="#0095FF" fill="none" stroke-width="2px" />
<path d="M 20.0 235.0 L 20.0 195.0" stroke="#0095FF" fill="none" stroke-width="2px" />
<path d="M 20.0 195.0 L 60.0 195.0" stroke="#0095FF" fill="none" stroke-width="2px" />
<path d="M 60.0 195.0 L 60.0 135.0" stroke="#0095FF" fill="none" stroke-width="2px" />
<path d="M 100.0 125.0 L 100.0 105.0" stroke="#0095FF" fill="none" stroke-width="2px" />
<path d="M 70.0 85.0 L 220.0 85.0" stroke="#0095FF" fill="none" stroke-width="2px" />
<path d="M 220.0 85.0 L 220.0 115.0" stroke="#0095FF" fill="none" stroke-width="2px" />
<path d="M 230.0 145.0 L 230.0 105.0" stroke="#0095FF" fill="none" stroke-width="2px" />
<path d="M 240.0 95.0 L 310.0 95.0" stroke="#0095FF" fill="none" stroke-width="2px" />
<path d="M 310.0 95.0 L 310.0 125.0" stroke="#0095FF" fill="none" stroke-width="2px" />
<path d="M 330.0 205.0 L 350.0 205.0" stroke="#0095FF" fill="none" stroke-width="2px" />
<path d="M 350.0 205.0 L 350.0 135.0" stroke="#0095FF" fill="none" stroke-width="2px" />
<path d="M 350.0 135.0 L 330.0 135.0" stroke="#0095FF" fill="none" stroke-width="2px" />
<path d="M 330.0 135.0 L 330.0 115.0" stroke="#0095FF" fill="none" stroke-width="2px" />
<path d="M 320.0 115.0 L 320.0 55.0" stroke="#0095FF" fill="none" stroke-width="2px" />
<path d="M 340.0 35.0 L 320.0 35.0" stroke="#0095FF" fill="none" stroke-width="2px" />
<path d="M 320.0 35.0 L 320.0 15.0" stroke="#0095FF" fill="none" stroke-width="2px" />
<path d="M 320.0 15.0 L 470.0 15.0" stroke="#0095FF" fill="none" stroke-width="2px" />
<path d="M 470.0 15.0 L 470.0 25.0" stroke="#0095FF" fill="none" stroke-width="2px" />
<path d="M 510.0 55.0 L 510.0 15.0" stroke="#0095FF" fill="none" stroke-width="2px" />
<path d="M 520.0 15.0 L 520.0 -5.0" stroke="#0095FF" fill="none" stroke-width="2px" />
<path d="M 490.0 -5.0 L 780.0 -5.0" stroke="#0095FF" fill="none" stroke-width="2px" />
<path d="M 780.0 -5.0 L 780.0 145.0" stroke="#0095FF" fill="none" stroke-width="2px" />
<path d="M 820.0 185.0 L 820.0 135.0" stroke="#0095FF" fill="none" stroke-width="2px" />
<path d="M 830.0 135.0 L 1490.0 135.0" stroke="#0095FF" fill="none" stroke-width="2px" />
<path d="M 1490.0 135.0 L 1490.0 35.0" stroke="#0095FF" fill="none" stroke-width="2px" />
<path d="M 1550.0 25.0 L 1530.0 25.0" stroke="#0095FF" fill="none" stroke-width="2px" />
<path d="M 1530.0 25.0 L 1530.0 45.0" stroke="#0095FF" fill="none" stroke-width="2px" />
<path d="M 1500.0 45.0 L 1500.0 5.0" stroke="#0095FF" fill="none" stroke-width="2px" />
<path d="M 1500.0 -5.0 L 1530.0 -5.0" stroke="#0095FF" fill="none" stroke-width="2px" />
<path d="M 1530.0 -5.0 L 1530.0 5.0" stroke="#0095FF" fill="none" stroke-width="2px" />
<path d="M 1530.0 5.0 L 1720.0 5.0" stroke="#0095FF" fill="none" stroke-width="2px" />
<path d="M 1720.0 5.0 L 1720.0 75.0" stroke="#0095FF" fill="none" stroke-width="2px" />
<path d="M 1730.0 105.0 L 1750.0 105.0" stroke="#0095FF" fill="none" stroke-width="2px" />
<path d="M 1750.0 105.0 L 1750.0 115.0" stroke="#0095FF" fill="none" stroke-width="2px" />
<path d="M 1750.0 115.0 L 1780.0 115.0" stroke="#0095FF" fill="none" stroke-width="2px" />
<path d="M 1780.0 115.0 L 1780.0 85.0" stroke="#0095FF" fill="none" stroke-width="2px" />
<path d="M 1780.0 85.0 L 1760.0 85.0" stroke="#0095FF" fill="none" stroke-width="2px" />
<path d="M 1760.0 85.0 L 1760.0 65.0" stroke="#0095FF" fill="none" stroke-width="2px" />
<path d="M 2472.26666667 235.0 L 2320.0 235.0" stroke="#0095FF" fill="none" stroke-width="2px" />
<path d="M 2320.0 235.0 L 2320.0 125.0" stroke="#0095FF" fill="none" stroke-width="2px" />
<path d="M 2330.0 115.0 L 2320.0 115.0" stroke="#0095FF" fill="none" stroke-width="2px" />
<path d="M 2320.0 115.0 L 2320.0 85.0" stroke="#0095FF" fill="none" stroke-width="2px" />
<path d="M 2310.0 75.0 L 2250.0 75.0" stroke="#0095FF" fill="none" stroke-width="2px" />
<path d="M 2250.0 75.0 L 2250.0 45.0" stroke="#0095FF" fill="none" stroke-width="2px" />
<path d="M 2230.0 35.0 L 2230.0 55.0" stroke="#0095FF" fill="none" stroke-width="2px" />
<path d="M 2240.0 55.0 L 2240.0 15.0" stroke="#0095FF" fill="none" stroke-width="2px" />
<path d="M 2230.0 15.0 L 1960.0 15.0" stroke="#0095FF" fill="none" stroke-width="2px" />
<path d="M 1960.0 15.0 L 1960.0 95.0" stroke="#0095FF" fill="none" stroke-width="2px" />
<path d="M 1930.0 135.0 L 1930.0 85.0" stroke="#0095FF" fill="none" stroke-width="2px" />
<path d="M 1900.0 85.0 L 1920.0 85.0" stroke="#0095FF" fill="none" stroke-width="2px" />
<path d="M 1920.0 85.0 L 1920.0 75.0" stroke="#0095FF" fill="none" stroke-width="2px" />
<path d="M 0.0 235.0 L 10.0 225.0" stroke="#FF0000" fill="none" stroke-width="4px" />
<path d="M 10.0 225.0 L 20.0 225.0" stroke="#FF0000" fill="none" stroke-width="4px" />
<path d="M 20.0 225.0 L 30.0 225.0" stroke="#FF0000" fill="none" stroke-width="4px" />
<path d="M 30.0 225.0 L 30.0 215.0" stroke="#FF0000" fill="none" stroke-width="4px" />
<path d="M 30.0 215.0 L 20.0 215.0" stroke="#FF0000" fill="none" stroke-width="4px" />
<path d="M 20.0 215.0 L 10.0 215.0" stroke="#FF0000" fill="none" stroke-width="4px" />
<path d="M 10.0 215.0 L 10.0 205.0" stroke="#FF0000" fill="none" stroke-width="4px" />
<path d="M 10.0 205.0 L 20.0 205.0" stroke="#FF0000" fill="none" stroke-width="4px" />
<path d="M 20.0 205.0 L 30.0 205.0" stroke="#FF0000" fill="none" stroke-width="4px" />
<path d="M 30.0 205.0 L 40.0 215.0" stroke="#FF0000" fill="none" stroke-width="4px" />
<path d="M 60.0 135.0 L 70.0 135.0" stroke="#FF0000" fill="none" stroke-width="4px" />
<path d="M 70.0 135.0 L 80.0 135.0" stroke="#FF0000" fill="none" stroke-width="4px" />
<path d="M 80.0 135.0 L 80.0 125.0" stroke="#FF0000" fill="none" stroke-width="4px" />
<path d="M 80.0 125.0 L 70.0 125.0" stroke="#FF0000" fill="none" stroke-width="4px" />
<path d="M 70.0 125.0 L 60.0 125.0" stroke="#FF0000" fill="none" stroke-width="4px" />
<path d="M 60.0 125.0 L 50.0 125.0" stroke="#FF0000" fill="none" stroke-width="4px" />
<path d="M 50.0 125.0 L 50.0 115.0" stroke="#FF0000" fill="none" stroke-width="4px" />
<path d="M 50.0 115.0 L 60.0 115.0" stroke="#FF0000" fill="none" stroke-width="4px" />
<path d="M 60.0 115.0 L 70.0 115.0" stroke="#FF0000" fill="none" stroke-width="4px" />
<path d="M 70.0 115.0 L 80.0 115.0" stroke="#FF0000" fill="none" stroke-width="4px" />
<path d="M 80.0 115.0 L 90.0 115.0" stroke="#FF0000" fill="none" stroke-width="4px" />
<path d="M 90.0 115.0 L 90.0 125.0" stroke="#FF0000" fill="none" stroke-width="4px" />
<path d="M 90.0 125.0 L 100.0 125.0" stroke="#FF0000" fill="none" stroke-width="4px" />
<path d="M 100.0 105.0 L 90.0 105.0" stroke="#FF0000" fill="none" stroke-width="4px" />
<path d="M 90.0 105.0 L 80.0 105.0" stroke="#FF0000" fill="none" stroke-width="4px" />
<path d="M 80.0 105.0 L 70.0 105.0" stroke="#FF0000" fill="none" stroke-width="4px" />
<path d="M 70.0 105.0 L 60.0 105.0" stroke="#FF0000" fill="none" stroke-width="4px" />
<path d="M 60.0 105.0 L 60.0 95.0" stroke="#FF0000" fill="none" stroke-width="4px" />
<path d="M 60.0 95.0 L 70.0 95.0" stroke="#FF0000" fill="none" stroke-width="4px" />
<path d="M 70.0 95.0 L 80.0 95.0" stroke="#FF0000" fill="none" stroke-width="4px" />
<path d="M 80.0 95.0 L 90.0 95.0" stroke="#FF0000" fill="none" stroke-width="4px" />
<path d="M 90.0 95.0 L 80.0 85.0" stroke="#FF0000" fill="none" stroke-width="4px" />
<path d="M 80.0 85.0 L 70.0 85.0" stroke="#FF0000" fill="none" stroke-width="4px" />
<path d="M 220.0 115.0 L 230.0 115.0" stroke="#FF0000" fill="none" stroke-width="4px" />
<path d="M 230.0 115.0 L 240.0 115.0" stroke="#FF0000" fill="none" stroke-width="4px" />
<path d="M 240.0 115.0 L 250.0 115.0" stroke="#FF0000" fill="none" stroke-width="4px" />
<path d="M 250.0 115.0 L 260.0 115.0" stroke="#FF0000" fill="none" stroke-width="4px" />
<path d="M 260.0 115.0 L 270.0 115.0" stroke="#FF0000" fill="none" stroke-width="4px" />
<path d="M 270.0 115.0 L 280.0 115.0" stroke="#FF0000" fill="none" stroke-width="4px" />
<path d="M 280.0 115.0 L 280.0 125.0" stroke="#FF0000" fill="none" stroke-width="4px" />
<path d="M 280.0 125.0 L 270.0 125.0" stroke="#FF0000" fill="none" stroke-width="4px" />
<path d="M 270.0 125.0 L 260.0 125.0" stroke="#FF0000" fill="none" stroke-width="4px" />
<path d="M 260.0 125.0 L 250.0 125.0" stroke="#FF0000" fill="none" stroke-width="4px" />
<path d="M 250.0 125.0 L 240.0 125.0" stroke="#FF0000" fill="none" stroke-width="4px" />
<path d="M 240.0 125.0 L 230.0 125.0" stroke="#FF0000" fill="none" stroke-width="4px" />
<path d="M 230.0 125.0 L 220.0 125.0" stroke="#FF0000" fill="none" stroke-width="4px" />
<path d="M 220.0 125.0 L 220.0 135.0" stroke="#FF0000" fill="none" stroke-width="4px" />
<path d="M 220.0 135.0 L 230.0 135.0" stroke="#FF0000" fill="none" stroke-width="4px" />
<path d="M 230.0 135.0 L 240.0 135.0" stroke="#FF0000" fill="none" stroke-width="4px" />
<path d="M 240.0 135.0 L 250.0 135.0" stroke="#FF0000" fill="none" stroke-width="4px" />
<path d="M 250.0 135.0 L 260.0 135.0" stroke="#FF0000" fill="none" stroke-width="4px" />
<path d="M 260.0 135.0 L 270.0 135.0" stroke="#FF0000" fill="none" stroke-width="4px" />
<path d="M 270.0 135.0 L 260.0 145.0" stroke="#FF0000" fill="none" stroke-width="4px" />
<path d="M 260.0 145.0 L 250.0 145.0" stroke="#FF0000" fill="none" stroke-width="4px" />
<path d="M 250.0 145.0 L 240.0 145.0" stroke="#FF0000" fill="none" stroke-width="4px" />
<path d="M 240.0 145.0 L 230.0 145.0" stroke="#FF0000" fill="none" stroke-width="4px" />
<path d="M 230.0 105.0 L 240.0 105.0" stroke="#FF0000" fill="none" stroke-width="4px" />
<path d="M 240.0 105.0 L 250.0 105.0" stroke="#FF0000" fill="none" stroke-width="4px" />
<path d="M 250.0 105.0 L 260.0 105.0" stroke="#FF0000" fill="none" stroke-width="4px" />
<path d="M 260.0 105.0 L 270.0 105.0" stroke="#FF0000" fill="none" stroke-width="4px" />
<path d="M 270.0 105.0 L 260.0 95.0" stroke="#FF0000" fill="none" stroke-width="4px" />
<path d="M 260.0 95.0 L 250.0 95.0" stroke="#FF0000" fill="none" stroke-width="4px" />
<path d="M 250.0 95.0 L 240.0 95.0" stroke="#FF0000" fill="none" stroke-width="4px" />
<path d="M 310.0 125.0 L 320.0 125.0" stroke="#FF0000" fill="none" stroke-width="4px" />
<path d="M 320.0 125.0 L 330.0 125.0" stroke="#FF0000" fill="none" stroke-width="4px" />
<path d="M 330.0 125.0 L 340.0 125.0" stroke="#FF0000" fill="none" stroke-width="4px" />
<path d="M 340.0 125.0 L 340.0 135.0" stroke="#FF0000" fill="none" stroke-width="4px" />
<path d="M 340.0 135.0 L 330.0 135.0" stroke="#FF0000" fill="none" stroke-width="4px" />
<path d="M 330.0 135.0 L 320.0 135.0" stroke="#FF0000" fill="none" stroke-width="4px" />
<path d="M 320.0 135.0 L 310.0 135.0" stroke="#FF0000" fill="none" stroke-width="4px" />
<path d="M 310.0 135.0 L 300.0 135.0" stroke="#FF0000" fill="none" stroke-width="4px" />
<path d="M 300.0 135.0 L 300.0 145.0" stroke="#FF0000" fill="none" stroke-width="4px" />
<path d="M 300.0 145.0 L 310.0 145.0" stroke="#FF0000" fill="none" stroke-width="4px" />
<path d="M 310.0 145.0 L 320.0 145.0" stroke="#FF0000" fill="none" stroke-width="4px" />
<path d="M 320.0 145.0 L 330.0 145.0" stroke="#FF0000" fill="none" stroke-width="4px" />
<path d="M 330.0 145.0 L 340.0 145.0" stroke="#FF0000" fill="none" stroke-width="4px" />
<path d="M 340.0 145.0 L 350.0 145.0" stroke="#FF0000" fill="none" stroke-width="4px" />
<path d="M 350.0 145.0 L 350.0 155.0" stroke="#FF0000" fill="none" stroke-width="4px" />
<path d="M 350.0 155.0 L 340.0 155.0" stroke="#FF0000" fill="none" stroke-width="4px" />
<path d="M 340.0 155.0 L 330.0 155.0" stroke="#FF0000" fill="none" stroke-width="4px" />
<path d="M 330.0 155.0 L 320.0 155.0" stroke="#FF0000" fill="none" stroke-width="4px" />
<path d="M 320.0 155.0 L 310.0 155.0" stroke="#FF0000" fill="none" stroke-width="4px" />
<path d="M 310.0 155.0 L 300.0 155.0" stroke="#FF0000" fill="none" stroke-width="4px" />
<path d="M 300.0 155.0 L 290.0 155.0" stroke="#FF0000" fill="none" stroke-width="4px" />
<path d="M 290.0 155.0 L 300.0 165.0" stroke="#FF0000" fill="none" stroke-width="4px" />
<path d="M 300.0 165.0 L 310.0 165.0" stroke="#FF0000" fill="none" stroke-width="4px" />
<path d="M 310.0 165.0 L 320.0 165.0" stroke="#FF0000" fill="none" stroke-width="4px" />
<path d="M 320.0 165.0 L 330.0 165.0" stroke="#FF0000" fill="none" stroke-width="4px" />
<path d="M 330.0 165.0 L 340.0 165.0" stroke="#FF0000" fill="none" stroke-width="4px" />
<path d="M 340.0 165.0 L 350.0 165.0" stroke="#FF0000" fill="none" stroke-width="4px" />
<path d="M 350.0 165.0 L 350.0 175.0" stroke="#FF0000" fill="none" stroke-width="4px" />
<path d="M 350.0 175.0 L 340.0 175.0" stroke="#FF0000" fill="none" stroke-width="4px" />
<path d="M 340.0 175.0 L 330.0 175.0" stroke="#FF0000" fill="none" stroke-width="4px" />
<path d="M 330.0 175.0 L 320.0 175.0" stroke="#FF0000" fill="none" stroke-width="4px" />
<path d="M 320.0 175.0 L 310.0 175.0" stroke="#FF0000" fill="none" stroke-width="4px" />
<path d="M 310.0 175.0 L 300.0 175.0" stroke="#FF0000" fill="none" stroke-width="4px" />
<path d="M 300.0 175.0 L 290.0 175.0" stroke="#FF0000" fill="none" stroke-width="4px" />
<path d="M 290.0 175.0 L 300.0 185.0" stroke="#FF0000" fill="none" stroke-width="4px" />
<path d="M 300.0 185.0 L 310.0 185.0" stroke="#FF0000" fill="none" stroke-width="4px" />
<path d="M 310.0 185.0 L 320.0 185.0" stroke="#FF0000" fill="none" stroke-width="4px" />
<path d="M 320.0 185.0 L 330.0 185.0" stroke="#FF0000" fill="none" stroke-width="4px" />
<path d="M 330.0 185.0 L 340.0 185.0" stroke="#FF0000" fill="none" stroke-width="4px" />
<path d="M 340.0 185.0 L 350.0 185.0" stroke="#FF0000" fill="none" stroke-width="4px" />
<path d="M 350.0 185.0 L 340.0 195.0" stroke="#FF0000" fill="none" stroke-width="4px" />
<path d="M 340.0 195.0 L 330.0 195.0" stroke="#FF0000" fill="none" stroke-width="4px" />
<path d="M 330.0 195.0 L 320.0 195.0" stroke="#FF0000" fill="none" stroke-width="4px" />
<path d="M 320.0 195.0 L 310.0 195.0" stroke="#FF0000" fill="none" stroke-width="4px" />
<path d="M 310.0 195.0 L 300.0 195.0" stroke="#FF0000" fill="none" stroke-width="4px" />
<path d="M 300.0 195.0 L 310.0 205.0" stroke="#FF0000" fill="none" stroke-width="4px" />
<path d="M 310.0 205.0 L 320.0 205.0" stroke="#FF0000" fill="none" stroke-width="4px" />
<path d="M 320.0 205.0 L 330.0 205.0" stroke="#FF0000" fill="none" stroke-width="4px" />
<path d="M 330.0 115.0 L 320.0 115.0" stroke="#FF0000" fill="none" stroke-width="4px" />
<path d="M 320.0 55.0 L 320.0 45.0" stroke="#FF0000" fill="none" stroke-width="4px" />
<path d="M 320.0 45.0 L 310.0 45.0" stroke="#FF0000" fill="none" stroke-width="4px" />
<path d="M 310.0 45.0 L 310.0 35.0" stroke="#FF0000" fill="none" stroke-width="4px" />
<path d="M 310.0 35.0 L 300.0 35.0" stroke="#FF0000" fill="none" stroke-width="4px" />
<path d="M 300.0 35.0 L 310.0 25.0" stroke="#FF0000" fill="none" stroke-width="4px" />
<path d="M 310.0 25.0 L 320.0 25.0" stroke="#FF0000" fill="none" stroke-width="4px" />
<path d="M 320.0 25.0 L 330.0 25.0" stroke="#FF0000" fill="none" stroke-width="4px" />
<path d="M 330.0 25.0 L 330.0 35.0" stroke="#FF0000" fill="none" stroke-width="4px" />
<path d="M 330.0 35.0 L 320.0 35.0" stroke="#FF0000" fill="none" stroke-width="4px" />
<path d="M 320.0 35.0 L 330.0 45.0" stroke="#FF0000" fill="none" stroke-width="4px" />
<path d="M 330.0 45.0 L 340.0 35.0" stroke="#FF0000" fill="none" stroke-width="4px" />
<path d="M 470.0 25.0 L 480.0 25.0" stroke="#FF0000" fill="none" stroke-width="4px" />
<path d="M 480.0 25.0 L 490.0 25.0" stroke="#FF0000" fill="none" stroke-width="4px" />
<path d="M 490.0 25.0 L 500.0 25.0" stroke="#FF0000" fill="none" stroke-width="4px" />
<path d="M 500.0 25.0 L 510.0 25.0" stroke="#FF0000" fill="none" stroke-width="4px" />
<path d="M 510.0 25.0 L 520.0 25.0" stroke="#FF0000" fill="none" stroke-width="4px" />
<path d="M 520.0 25.0 L 530.0 25.0" stroke="#FF0000" fill="none" stroke-width="4px" />
<path d="M 530.0 25.0 L 530.0 35.0" stroke="#FF0000" fill="none" stroke-width="4px" />
<path d="M 530.0 35.0 L 520.0 35.0" stroke="#FF0000" fill="none" stroke-width="4px" />
<path d="M 520.0 35.0 L 510.0 35.0" stroke="#FF0000" fill="none" stroke-width="4px" />
<path d="M 510.0 35.0 L 500.0 35.0" stroke="#FF0000" fill="none" stroke-width="4px" />
<path d="M 500.0 35.0 L 490.0 35.0" stroke="#FF0000" fill="none" stroke-width="4px" />
<path d="M 490.0 35.0 L 480.0 35.0" stroke="#FF0000" fill="none" stroke-width="4px" />
<path d="M 480.0 35.0 L 490.0 45.0" stroke="#FF0000" fill="none" stroke-width="4px" />
<path d="M 490.0 45.0 L 500.0 45.0" stroke="#FF0000" fill="none" stroke-width="4px" />
<path d="M 500.0 45.0 L 510.0 45.0" stroke="#FF0000" fill="none" stroke-width="4px" />
<path d="M 510.0 45.0 L 520.0 45.0" stroke="#FF0000" fill="none" stroke-width="4px" />
<path d="M 520.0 45.0 L 510.0 55.0" stroke="#FF0000" fill="none" stroke-width="4px" />
<path d="M 510.0 15.0 L 500.0 15.0" stroke="#FF0000" fill="none" stroke-width="4px" />
<path d="M 500.0 15.0 L 490.0 15.0" stroke="#FF0000" fill="none" stroke-width="4px" />
<path d="M 490.0 15.0 L 480.0 15.0" stroke="#FF0000" fill="none" stroke-width="4px" />
<path d="M 480.0 15.0 L 490.0 5.0" stroke="#FF0000" fill="none" stroke-width="4px" />
<path d="M 490.0 5.0 L 500.0 5.0" stroke="#FF0000" fill="none" stroke-width="4px" />
<path d="M 500.0 5.0 L 510.0 5.0" stroke="#FF0000" fill="none" stroke-width="4px" />
<path d="M 510.0 5.0 L 520.0 5.0" stroke="#FF0000" fill="none" stroke-width="4px" />
<path d="M 520.0 5.0 L 530.0 5.0" stroke="#FF0000" fill="none" stroke-width="4px" />
<path d="M 530.0 5.0 L 530.0 15.0" stroke="#FF0000" fill="none" stroke-width="4px" />
<path d="M 530.0 15.0 L 520.0 15.0" stroke="#FF0000" fill="none" stroke-width="4px" />
<path d="M 520.0 -5.0 L 510.0 -5.0" stroke="#FF0000" fill="none" stroke-width="4px" />
<path d="M 510.0 -5.0 L 500.0 -5.0" stroke="#FF0000" fill="none" stroke-width="4px" />
<path d="M 500.0 -5.0 L 490.0 -5.0" stroke="#FF0000" fill="none" stroke-width="4px" />
<path d="M 780.0 145.0 L 790.0 145.0" stroke="#FF0000" fill="none" stroke-width="4px" />
<path d="M 790.0 145.0 L 800.0 145.0" stroke="#FF0000" fill="none" stroke-width="4px" />
<path d="M 800.0 145.0 L 810.0 145.0" stroke="#FF0000" fill="none" stroke-width="4px" />
<path d="M 810.0 145.0 L 820.0 145.0" stroke="#FF0000" fill="none" stroke-width="4px" />
<path d="M 820.0 145.0 L 830.0 145.0" stroke="#FF0000" fill="none" stroke-width="4px" />
<path d="M 830.0 145.0 L 840.0 145.0" stroke="#FF0000" fill="none" stroke-width="4px" />
<path d="M 840.0 145.0 L 840.0 155.0" stroke="#FF0000" fill="none" stroke-width="4px" />
<path d="M 840.0 155.0 L 830.0 155.0" stroke="#FF0000" fill="none" stroke-width="4px" />
<path d="M 830.0 155.0 L 820.0 155.0" stroke="#FF0000" fill="none" stroke-width="4px" />
<path d="M 820.0 155.0 L 810.0 155.0" stroke="#FF0000" fill="none" stroke-width="4px" />
<path d="M 810.0 155.0 L 800.0 155.0" stroke="#FF0000" fill="none" stroke-width="4px" />
<path d="M 800.0 155.0 L 790.0 155.0" stroke="#FF0000" fill="none" stroke-width="4px" />
<path d="M 790.0 155.0 L 780.0 155.0" stroke="#FF0000" fill="none" stroke-width="4px" />
<path d="M 780.0 155.0 L 780.0 165.0" stroke="#FF0000" fill="none" stroke-width="4px" />
<path d="M 780.0 165.0 L 790.0 165.0" stroke="#FF0000" fill="none" stroke-width="4px" />
<path d="M 790.0 165.0 L 800.0 165.0" stroke="#FF0000" fill="none" stroke-width="4px" />
<path d="M 800.0 165.0 L 810.0 165.0" stroke="#FF0000" fill="none" stroke-width="4px" />
<path d="M 810.0 165.0 L 820.0 165.0" stroke="#FF0000" fill="none" stroke-width="4px" />
<path d="M 820.0 165.0 L 830.0 165.0" stroke="#FF0000" fill="none" stroke-width="4px" />
<path d="M 830.0 165.0 L 840.0 165.0" stroke="#FF0000" fill="none" stroke-width="4px" />
<path d="M 840.0 165.0 L 830.0 175.0" stroke="#FF0000" fill="none" stroke-width="4px" />
<path d="M 830.0 175.0 L 820.0 175.0" stroke="#FF0000" fill="none" stroke-width="4px" />
<path d="M 820.0 175.0 L 810.0 175.0" stroke="#FF0000" fill="none" stroke-width="4px" />
<path d="M 810.0 175.0 L 800.0 175.0" stroke="#FF0000" fill="none" stroke-width="4px" />
<path d="M 800.0 175.0 L 790.0 175.0" stroke="#FF0000" fill="none" stroke-width="4px" />
<path d="M 790.0 175.0 L 800.0 185.0" stroke="#FF0000" fill="none" stroke-width="4px" />
<path d="M 800.0 185.0 L 810.0 185.0" stroke="#FF0000" fill="none" stroke-width="4px" />
<path d="M 810.0 185.0 L 820.0 185.0" stroke="#FF0000" fill="none" stroke-width="4px" />
<path d="M 820.0 135.0 L 810.0 135.0" stroke="#FF0000" fill="none" stroke-width="4px" />
<path d="M 810.0 135.0 L 800.0 135.0" stroke="#FF0000" fill="none" stroke-width="4px" />
<path d="M 800.0 135.0 L 790.0 135.0" stroke="#FF0000" fill="none" stroke-width="4px" />
<path d="M 790.0 135.0 L 800.0 125.0" stroke="#FF0000" fill="none" stroke-width="4px" />
<path d="M 800.0 125.0 L 810.0 125.0" stroke="#FF0000" fill="none" stroke-width="4px" />
<path d="M 810.0 125.0 L 820.0 125.0" stroke="#FF0000" fill="none" stroke-width="4px" />
<path d="M 820.0 125.0 L 830.0 135.0" stroke="#FF0000" fill="none" stroke-width="4px" />
<path d="M 1490.0 35.0 L 1500.0 35.0" stroke="#FF0000" fill="none" stroke-width="4px" />
<path d="M 1500.0 35.0 L 1510.0 35.0" stroke="#FF0000" fill="none" stroke-width="4px" />
<path d="M 1510.0 35.0 L 1520.0 35.0" stroke="#FF0000" fill="none" stroke-width="4px" />
<path d="M 1520.0 35.0 L 1530.0 35.0" stroke="#FF0000" fill="none" stroke-width="4px" />
<path d="M 1530.0 35.0 L 1540.0 35.0" stroke="#FF0000" fill="none" stroke-width="4px" />
<path d="M 1540.0 35.0 L 1540.0 25.0" stroke="#FF0000" fill="none" stroke-width="4px" />
<path d="M 1540.0 25.0 L 1530.0 25.0" stroke="#FF0000" fill="none" stroke-width="4px" />
<path d="M 1530.0 25.0 L 1520.0 25.0" stroke="#FF0000" fill="none" stroke-width="4px" />
<path d="M 1520.0 25.0 L 1510.0 25.0" stroke="#FF0000" fill="none" stroke-width="4px" />
<path d="M 1510.0 25.0 L 1500.0 25.0" stroke="#FF0000" fill="none" stroke-width="4px" />
<path d="M 1500.0 25.0 L 1490.0 25.0" stroke="#FF0000" fill="none" stroke-width="4px" />
<path d="M 1490.0 25.0 L 1490.0 15.0" stroke="#FF0000" fill="none" stroke-width="4px" />
<path d="M 1490.0 15.0 L 1500.0 15.0" stroke="#FF0000" fill="none" stroke-width="4px" />
<path d="M 1500.0 15.0 L 1510.0 15.0" stroke="#FF0000" fill="none" stroke-width="4px" />
<path d="M 1510.0 15.0 L 1520.0 15.0" stroke="#FF0000" fill="none" stroke-width="4px" />
<path d="M 1520.0 15.0 L 1530.0 15.0" stroke="#FF0000" fill="none" stroke-width="4px" />
<path d="M 1530.0 15.0 L 1540.0 15.0" stroke="#FF0000" fill="none" stroke-width="4px" />
<path d="M 1540.0 15.0 L 1550.0 25.0" stroke="#FF0000" fill="none" stroke-width="4px" />
<path d="M 1530.0 45.0 L 1510.0 45.0" stroke="#FF0000" fill="none" stroke-width="4px" />
<path d="M 1510.0 45.0 L 1500.0 45.0" stroke="#FF0000" fill="none" stroke-width="4px" />
<path d="M 1500.0 5.0 L 1510.0 5.0" stroke="#FF0000" fill="none" stroke-width="4px" />
<path d="M 1510.0 5.0 L 1510.0 -5.0" stroke="#FF0000" fill="none" stroke-width="4px" />
<path d="M 1510.0 -5.0 L 1500.0 -5.0" stroke="#FF0000" fill="none" stroke-width="4px" />
<path d="M 1720.0 75.0 L 1730.0 75.0" stroke="#FF0000" fill="none" stroke-width="4px" />
<path d="M 1730.0 75.0 L 1740.0 75.0" stroke="#FF0000" fill="none" stroke-width="4px" />
<path d="M 1740.0 75.0 L 1750.0 75.0" stroke="#FF0000" fill="none" stroke-width="4px" />
<path d="M 1750.0 75.0 L 1760.0 75.0" stroke="#FF0000" fill="none" stroke-width="4px" />
<path d="M 1760.0 75.0 L 1770.0 75.0" stroke="#FF0000" fill="none" stroke-width="4px" />
<path d="M 1770.0 75.0 L 1770.0 85.0" stroke="#FF0000" fill="none" stroke-width="4px" />
<path d="M 1770.0 85.0 L 1760.0 85.0" stroke="#FF0000" fill="none" stroke-width="4px" />
<path d="M 1760.0 85.0 L 1750.0 85.0" stroke="#FF0000" fill="none" stroke-width="4px" />
<path d="M 1750.0 85.0 L 1740.0 85.0" stroke="#FF0000" fill="none" stroke-width="4px" />
<path d="M 1740.0 85.0 L 1730.0 85.0" stroke="#FF0000" fill="none" stroke-width="4px" />
<path d="M 1730.0 85.0 L 1720.0 85.0" stroke="#FF0000" fill="none" stroke-width="4px" />
<path d="M 1720.0 85.0 L 1720.0 95.0" stroke="#FF0000" fill="none" stroke-width="4px" />
<path d="M 1720.0 95.0 L 1730.0 95.0" stroke="#FF0000" fill="none" stroke-width="4px" />
<path d="M 1730.0 95.0 L 1740.0 95.0" stroke="#FF0000" fill="none" stroke-width="4px" />
<path d="M 1740.0 95.0 L 1750.0 95.0" stroke="#FF0000" fill="none" stroke-width="4px" />
<path d="M 1750.0 95.0 L 1760.0 95.0" stroke="#FF0000" fill="none" stroke-width="4px" />
<path d="M 1760.0 95.0 L 1770.0 95.0" stroke="#FF0000" fill="none" stroke-width="4px" />
<path d="M 1770.0 95.0 L 1760.0 105.0" stroke="#FF0000" fill="none" stroke-width="4px" />
<path d="M 1760.0 105.0 L 1750.0 105.0" stroke="#FF0000" fill="none" stroke-width="4px" />
<path d="M 1750.0 105.0 L 1740.0 105.0" stroke="#FF0000" fill="none" stroke-width="4px" />
<path d="M 1740.0 105.0 L 1730.0 105.0" stroke="#FF0000" fill="none" stroke-width="4px" />
<path d="M 1760.0 65.0 L 1750.0 65.0" stroke="#FF0000" fill="none" stroke-width="4px" />
<path d="M 1750.0 65.0 L 1740.0 65.0" stroke="#FF0000" fill="none" stroke-width="4px" />
<path d="M 1740.0 65.0 L 1730.0 65.0" stroke="#FF0000" fill="none" stroke-width="4px" />
<path d="M 1730.0 65.0 L 1740.0 55.0" stroke="#FF0000" fill="none" stroke-width="4px" />
<path d="M 1740.0 55.0 L 1750.0 55.0" stroke="#FF0000" fill="none" stroke-width="4px" />
<path d="M 2320.0 125.0 L 2310.0 125.0" stroke="#FF0000" fill="none" stroke-width="4px" />
<path d="M 2310.0 125.0 L 2310.0 115.0" stroke="#FF0000" fill="none" stroke-width="4px" />
<path d="M 2310.0 115.0 L 2300.0 115.0" stroke="#FF0000" fill="none" stroke-width="4px" />
<path d="M 2300.0 115.0 L 2300.0 105.0" stroke="#FF0000" fill="none" stroke-width="4px" />
<path d="M 2300.0 105.0 L 2290.0 105.0" stroke="#FF0000" fill="none" stroke-width="4px" />
<path d="M 2290.0 105.0 L 2290.0 95.0" stroke="#FF0000" fill="none" stroke-width="4px" />
<path d="M 2290.0 95.0 L 2300.0 95.0" stroke="#FF0000" fill="none" stroke-width="4px" />
<path d="M 2300.0 95.0 L 2310.0 95.0" stroke="#FF0000" fill="none" stroke-width="4px" />
<path d="M 2310.0 95.0 L 2320.0 95.0" stroke="#FF0000" fill="none" stroke-width="4px" />
<path d="M 2320.0 95.0 L 2330.0 95.0" stroke="#FF0000" fill="none" stroke-width="4px" />
<path d="M 2330.0 95.0 L 2330.0 105.0" stroke="#FF0000" fill="none" stroke-width="4px" />
<path d="M 2330.0 105.0 L 2320.0 105.0" stroke="#FF0000" fill="none" stroke-width="4px" />
<path d="M 2320.0 105.0 L 2310.0 105.0" stroke="#FF0000" fill="none" stroke-width="4px" />
<path d="M 2310.0 105.0 L 2320.0 115.0" stroke="#FF0000" fill="none" stroke-width="4px" />
<path d="M 2320.0 115.0 L 2330.0 115.0" stroke="#FF0000" fill="none" stroke-width="4px" />
<path d="M 2320.0 85.0 L 2310.0 85.0" stroke="#FF0000" fill="none" stroke-width="4px" />
<path d="M 2310.0 85.0 L 2300.0 85.0" stroke="#FF0000" fill="none" stroke-width="4px" />
<path d="M 2300.0 85.0 L 2310.0 75.0" stroke="#FF0000" fill="none" stroke-width="4px" />
<path d="M 2250.0 45.0 L 2240.0 45.0" stroke="#FF0000" fill="none" stroke-width="4px" />
<path d="M 2240.0 45.0 L 2230.0 45.0" stroke="#FF0000" fill="none" stroke-width="4px" />
<path d="M 2230.0 45.0 L 2220.0 45.0" stroke="#FF0000" fill="none" stroke-width="4px" />
<path d="M 2220.0 45.0 L 2220.0 35.0" stroke="#FF0000" fill="none" stroke-width="4px" />
<path d="M 2220.0 35.0 L 2210.0 35.0" stroke="#FF0000" fill="none" stroke-width="4px" />
<path d="M 2210.0 35.0 L 2220.0 25.0" stroke="#FF0000" fill="none" stroke-width="4px" />
<path d="M 2220.0 25.0 L 2230.0 25.0" stroke="#FF0000" fill="none" stroke-width="4px" />
<path d="M 2230.0 25.0 L 2240.0 25.0" stroke="#FF0000" fill="none" stroke-width="4px" />
<path d="M 2240.0 25.0 L 2250.0 25.0" stroke="#FF0000" fill="none" stroke-width="4px" />
<path d="M 2250.0 25.0 L 2250.0 35.0" stroke="#FF0000" fill="none" stroke-width="4px" />
<path d="M 2250.0 35.0 L 2240.0 35.0" stroke="#FF0000" fill="none" stroke-width="4px" />
<path d="M 2240.0 35.0 L 2230.0 35.0" stroke="#FF0000" fill="none" stroke-width="4px" />
<path d="M 2230.0 55.0 L 2240.0 55.0" stroke="#FF0000" fill="none" stroke-width="4px" />
<path d="M 2240.0 15.0 L 2230.0 15.0" stroke="#FF0000" fill="none" stroke-width="4px" />
<path d="M 1960.0 95.0 L 1950.0 95.0" stroke="#FF0000" fill="none" stroke-width="4px" />
<path d="M 1950.0 95.0 L 1940.0 95.0" stroke="#FF0000" fill="none" stroke-width="4px" />
<path d="M 1940.0 95.0 L 1930.0 95.0" stroke="#FF0000" fill="none" stroke-width="4px" />
<path d="M 1930.0 95.0 L 1920.0 95.0" stroke="#FF0000" fill="none" stroke-width="4px" />
<path d="M 1920.0 95.0 L 1910.0 95.0" stroke="#FF0000" fill="none" stroke-width="4px" />
<path d="M 1910.0 95.0 L 1900.0 95.0" stroke="#FF0000" fill="none" stroke-width="4px" />
<path d="M 1900.0 95.0 L 1890.0 95.0" stroke="#FF0000" fill="none" stroke-width="4px" />
<path d="M 1890.0 95.0 L 1890.0 105.0" stroke="#FF0000" fill="none" stroke-width="4px" />
<path d="M 1890.0 105.0 L 1900.0 105.0" stroke="#FF0000" fill="none" stroke-width="4px" />
<path d="M 1900.0 105.0 L 1910.0 105.0" stroke="#FF0000" fill="none" stroke-width="4px" />
<path d="M 1910.0 105.0 L 1920.0 105.0" stroke="#FF0000" fill="none" stroke-width="4px" />
<path d="M 1920.0 105.0 L 1930.0 105.0" stroke="#FF0000" fill="none" stroke-width="4px" />
<path d="M 1930.0 105.0 L 1940.0 105.0" stroke="#FF0000" fill="none" stroke-width="4px" />
<path d="M 1940.0 105.0 L 1950.0 105.0" stroke="#FF0000" fill="none" stroke-width="4px" />
<path d="M 1950.0 105.0 L 1960.0 105.0" stroke="#FF0000" fill="none" stroke-width="4px" />
<path d="M 1960.0 105.0 L 1960.0 115.0" stroke="#FF0000" fill="none" stroke-width="4px" />
<path d="M 1960.0 115.0 L 1950.0 115.0" stroke="#FF0000" fill="none" stroke-width="4px" />
<path d="M 1950.0 115.0 L 1940.0 115.0" stroke="#FF0000" fill="none" stroke-width="4px" />
<path d="M 1940.0 115.0 L 1930.0 115.0" stroke="#FF0000" fill="none" stroke-width="4px" />
<path d="M 1930.0 115.0 L 1920.0 115.0" stroke="#FF0000" fill="none" stroke-width="4px" />
<path d="M 1920.0 115.0 L 1910.0 115.0" stroke="#FF0000" fill="none" stroke-width="4px" />
<path d="M 1910.0 115.0 L 1900.0 115.0" stroke="#FF0000" fill="none" stroke-width="4px" />
<path d="M 1900.0 115.0 L 1890.0 115.0" stroke="#FF0000" fill="none" stroke-width="4px" />
<path d="M 1890.0 115.0 L 1900.0 125.0" stroke="#FF0000" fill="none" stroke-width="4px" />
<path d="M 1900.0 125.0 L 1910.0 125.0" stroke="#FF0000" fill="none" stroke-width="4px" />
<path d="M 1910.0 125.0 L 1920.0 125.0" stroke="#FF0000" fill="none" stroke-width="4px" />
<path d="M 1920.0 125.0 L 1930.0 125.0" stroke="#FF0000" fill="none" stroke-width="4px" />
<path d="M 1930.0 125.0 L 1940.0 125.0" stroke="#FF0000" fill="none" stroke-width="4px" />
<path d="M 1940.0 125.0 L 1950.0 125.0" stroke="#FF0000" fill="none" stroke-width="4px" />
<path d="M 1950.0 125.0 L 1940.0 135.0" stroke="#FF0000" fill="none" stroke-width="4px" />
<path d="M 1940.0 135.0 L 1930.0 135.0" stroke="#FF0000" fill="none" stroke-width="4px" />
<path d="M 1930.0 85.0 L 1920.0 85.0" stroke="#FF0000" fill="none" stroke-width="4px" />
<path d="M 1920.0 85.0 L 1910.0 85.0" stroke="#FF0000" fill="none" stroke-width="4px" />
<path d="M 1910.0 85.0 L 1900.0 85.0" stroke="#FF0000" fill="none" stroke-width="4px" />
<path d="M 1920.0 75.0 L 1930.0 75.0" stroke="#FF0000" fill="none" stroke-width="4px" />
<path d="M 1930.0 75.0 L 1940.0 75.0" stroke="#FF0000" fill="none" stroke-width="4px" />
<path d="M 1940.0 75.0 L 1940.0 85.0" stroke="#FF0000" fill="none" stroke-width="4px" />
<path d="M 1940.0 85.0 L 1950.0 85.0" stroke="#FF0000" fill="none" stroke-width="4px" />
</svg>