<svg width="2472.26666667" height="235.0" xmlns="http://www.w3.org/2000/svg" version="1.1">
<path d="M 0.0 235.0 L 1985.0 235.0 L 1985.0 0.0 L 0.0 0.0 L 0.0 235.0" stroke="#000000" fill="none" stroke-width="3px" />
<path d="M 2472.26666667 235.0 L 1885.0 235.0 L 1885.0 0.0 L 2472.26666667 0.0 L 2472.26666667 235.0" stroke="#000000" fill="none" stroke-width="3px" />
<path d="M 10.0 257.5 L 0.0 247.5 L 10.0 237.5" stroke="#969696" fill="none" stroke-width="1px" />
<path d="M 10.0 237.5 L 1975.0 237.5" stroke="#969696" fill="none" stroke-width="1px" />
<path d="M 1975.0 237.5 L 1985.0 227.5 L 1975.0 217.5" stroke="#969696" fill="none" stroke-width="1px" />
<path d="M 1975.0 217.5 L 10.0 217.5" stroke="#969696" fill="none" stroke-width="1px" />
<path d="M 10.0 217.5 L 0.0 207.5 L 10.0 197.5" stroke="#969696" fill="none" stroke-width="1px" />
<path d="M 10.0 197.5 L 1975.0 197.5" stroke="#969696" fill="none" stroke-width="1px" />
<path d="M 1975.0 197.5 L 1985.0 187.5 L 1975.0 177.5" stroke="#969696" fill="none" stroke-width="1px" />
<path d="M 1975.0 177.5 L 10.0 177.5" stroke="#969696" fill="none" stroke-width="1px" />
<path d="M 10.0 177.5 L 0.0 167.5 L 10.0 157.5" stroke="#969696" fill="none" stroke-width="1px" />
<path d="M 10.0 157.5 L 1975.0 157.5" stroke="#969696" fill="none" stroke-width="1px" />
<path d="M 1975.0 157.5 L 1985.0 147.5 L 1975.0 137.5" stroke="#969696" fill="none" stroke-width="1px" />
<path d="M 1975.0 137.5 L 10.0 137.5" stroke="#969696" fill="none" stroke-width="1px" />
<path d="M 10.0 137.5 L 0.0 127.5 L 10.0 117.5" stroke="#969696" fill="none" stroke-width="1px" />
<path d="M 10.0 117.5 L 1975.0 117.5" stroke="#969696" fill="none" stroke-width="1px" />
<path d="M 1975.0 117.5 L 1985.0 107.5 L 1975.0 97.5" stroke="#969696" fill="none" stroke-width="1px" />
<path d="M 1975.0 97.5 L 10.0 97.5" stroke="#969696" fill="none" stroke-width="1px" />
<path d="M 10.0 97.5 L 0.0 87.5 L 10.0 77.5" stroke="#969696" fill="none" stroke-width="1px" />
<path d="M 10.0 77.5 L 1975.0 77.5" stroke="#969696" fill="none" stroke-width="1px" />
<path d="M 1975.0 77.5 L 1985.0 67.5 L 1975.0 57.5" stroke="#969696" fill="none" stroke-width="1px" />
<path d="M 1975.0 57.5 L 10.0 57.5" stroke="#969696" fill="none" stroke-width="1px" />
<path d="M 10.0 57.5 L 0.0 47.5 L 10.0 37.5" stroke="#969696" fill="none" stroke-width="1px" />
<path d="M 10.0 37.5 L 1975.0 37.5" stroke="#969696" fill="none" stroke-width="1px" />
<path d="M 1975.0 37.5 L 1985.0 27.5 L 1975.0 17.5" stroke="#969696" fill="none" stroke-width="1px" />
<path d="M 1975.0 17.5 L 10.0 17.5" stroke="#969696" fill="none" stroke-width="1px" />
<path d="M 10.0 17.5 L 0.0 7.5 L 10.0 -2.5" stroke="#969696" fill="none" stroke-width="1px" />
<path d="M 10.0 -2.5 L 1975.0 -2.5" stroke="#969696" fill="none" stroke-width="1px" />
<path d="M 1975.0 -2.5 L 1985.0 -12.5 L 1975.0 -22.5" stroke="#969696" fill="none" stroke-width="1px" />
<path d="M 2462.26666667 257.5 L 2472.26666667 247.5 L 2462.26666667 237.5" stroke="#969696" fill="none" stroke-width="1px" />
<path d="M 2462.26666667 237.5 L 1895.0 237.5" stroke="#969696" fill="none" stroke-width="1px" />
<path d="M 1895.0 237.5 L 1885.0 227.5 L 1895.0 217.5" stroke="#969696" fill="none" stroke-width="1px" />
<path d="M 1895.0 217.5 L 2462.26666667 217.5" stroke="#969696" fill="none" stroke-width="1px" />
<path d="M 2462.26666667 217.5 L 2472.26666667 207.5 L 2462.26666667 197.5" stroke="#969696" fill="none" stroke-width="1px" />
<path d="M 2462.26666667 197.5 L 1895.0 197.5" stroke="#969696" fill="none" stroke-width="1px" />
<path d="M 1895.0 197.5 L 1885.0 187.5 L 1895.0 177.5" stroke="#969696" fill="none" stroke-width="1px" />
<path d="M 1895.0 177.5 L 2462.26666667 177.5" stroke="#969696" fill="none" stroke-width="1px" />
<path d="M 2462.26666667 177.5 L 2472.26666667 167.5 L 2462.26666667 157.5" stroke="#969696" fill="none" stroke-width="1px" />
<path d="M 2462.26666667 157.5 L 1895.0 157.5" stroke="#969696" fill="none" stroke-width="1px" />
<path d="M 1895.0 157.5 L 1885.0 147.5 L 1895.0 137.5" stroke="#969696" fill="none" stroke-width="1px" />
<path d="M 1895.0 137.5 L 2462.26666667 137.5" stroke="#969696" fill="none" stroke-width="1px" />
<path d="M 2462.26666667 137.5 L 2472.26666667 127.5 L 2462.26666667 117.5" stroke="#969696" fill="none" stroke-width="1px" />
<path d="M 2462.26666667 117.5 L 1895.0 117.5" stroke="#969696" fill="none" stroke-width="1px" />
<path d="M 1895.0 117.5 L 1885.0 107.5 L 1895.0 97.5" stroke="#969696" fill="none" stroke-width="1px" />
<path d="M 1895.0 97.5 L 2462.26666667 97.5" stroke="#969696" fill="none" stroke-width="1px" />
<path d="M 2462.26666667 97.5 L 2472.26666667 87.5 L 2462.26666667 77.5" stroke="#969696" fill="none" stroke-width="1px" />
<path d="M 2462.26666667 77.5 L 1895.0 77.5" stroke="#969696" fill="none" stroke-width="1px" />
<path d="M 1895.0 77.5 L 1885.0 67.5 L 1895.0 57.5" stroke="#969696" fill="none" stroke-width="1px" />
<path d="M 1895.0 57.5 L 2462.26666667 57.5" stroke="#969696" fill="none" stroke-width="1px" />
<path d="M 2462.26666667 57.5 L 2472.26666667 47.5 L 2462.26666667 37.5" stroke="#969696" fill="none" stroke-width="1px" />
<path d="M 2462.26666667 37.5 L 1895.0 37.5" stroke="#969696" fill="none" stroke-width="1px" />
<path d="M 1895.0 37.5 L 1885.0 27.5 L 1895.0 17.5" stroke="#969696" fill="none" stroke-width="1px" />
<path d="M 1895.0 17.5 L 2462.26666667 17.5" stroke="#969696" fill="none" stroke-width="1px" />
<path d="M 2462.26666667 17.5 L 2472.26666667 7.5 L 2462.26666667 -2.5" stroke="#969696" fill="none" stroke-width="1px" />
<path d="M 2462.26666667 -2.5 L 1895.0 -2.5" stroke="#969696" fill="none" stroke-width="1px" />
<path d="M 1895.0 -2.5 L 1885.0 -12.5 L 1895.0 -22.5" stroke="#969696" fill="none" stroke-width="1px" />
<path d="M 0.0 235.0 L 10.0 215.0" stroke="#0095FF" fill="none" stroke-width="2px" />
<path d="M 10.0 165.0 L 1070.0 165.0" stroke="#0095FF" fill="none" stroke-width="2px" />
<path d="M 1140.0 235.0 L 1110.0 215.0" stroke="#0095FF" fill="none" stroke-width="2px" />
<path d="M 1100.0 215.0 L 1160.0 175.0" stroke="#0095FF" fill="none" stroke-width="2px" />
<path d="M 1160.0 175.0 L 1140.0 155.0" stroke="#0095FF" fill="none" stroke-width="2px" />
<path d="M 1130.0 145.0 L 1110.0 135.0" stroke="#0095FF" fill="none" stroke-width="2px" />
<path d="M 1100.0 125.0 L 1130.0 105.0" stroke="#0095FF" fill="none" stroke-width="2px" />
<path d="M 1130.0 85.0 L 1130.0 65.0" stroke="#0095FF" fill="none" stroke-width="2px" />
<path d="M 1140.0 65.0 L 1350.0 125.0" stroke="#0095FF" fill="none" stroke-width="2px" />
<path d="M 1380.0 145.0 L 1360.0 165.0" stroke="#0095FF" fill="none" stroke-width="2px" />
<path d="M 1360.0 165.0 L 1360.0 115.0" stroke="#0095FF" fill="none" stroke-width="2px" />
<path d="M 1370.0 115.0 L 1510.0 205.0" stroke="#0095FF" fill="none" stroke-width="2px" />
<path d="M 1560.0 215.0 L 1550.0 235.0" stroke="#0095FF" fill="none" stroke-width="2px" />
<path d="M 1500.0 235.0 L 1530.0 195.0" stroke="#0095FF" fill="none" stroke-width="2px" />
<path d="M 1540.0 195.0 L 1730.0 55.0" stroke="#0095FF" fill="none" stroke-width="2px" />
<path d="M 1740.0 35.0 L 1740.0 15.0" stroke="#0095FF" fill="none" stroke-width="2px" />
<path d="M 1750.0 15.0 L 1750.0 -5.0" stroke="#0095FF" fill="none" stroke-width="2px" />
<path d="M 1780.0 -5.0 L 1820.0 15.0" stroke="#0095FF" fill="none" stroke-width="2px" />
<path d="M 1850.0 55.0 L 1790.0 35.0" stroke="#0095FF" fill="none" stroke-width="2px" />
<path d="M 1790.0 35.0 L 1780.0 65.0" stroke="#0095FF" fill="none" stroke-width="2px" />
<path d="M 1770.0 75.0 L 1830.0 5.0" stroke="#0095FF" fill="none" stroke-width="2px" />
<path d="M 1830.0 -5.0 L 1910.0 165.0" stroke="#0095FF" fill="none" stroke-width="2px" />
<path d="M 1910.0 195.0 L 1930.0 205.0" stroke="#0095FF" fill="none" stroke-width="2px" />
<path d="M 1960.0 195.0 L 1950.0 215.0" stroke="#0095FF" fill="none" stroke-width="2px" />
<path d="M 1940.0 215.0 L 1930.0 175.0" stroke="#0095FF" fill="none" stroke-width="2px" />
<path d="M 2472.26666667 235.0 L 2400.0 195.0" stroke="#0095FF" fill="none" stroke-width="2px" />
<path d="M 2410.0 185.0 L 2410.0 155.0" stroke="#0095FF" fill="none" stroke-width="2px" />
<path d="M 10.0 215.0 L 10.0 205.0" stroke="#FF0000" fill="none" stroke-width="4px" />
<path d="M 10.0 205.0 L 20.0 205.0" stroke="#FF0000" fill="none" stroke-width="4px" />
<path d="M 20.0 205.0 L 20.0 195.0" stroke="#FF0000" fill="none" stroke-width="4px" />
<path d="M 20.0 195.0 L 10.0 195.0" stroke="#FF0000" fill="none" stroke-width="4px" />
<path d="M 10.0 195.0 L 10.0 185.0" stroke="#FF0000" fill="none" stroke-width="4px" />
<path d="M 10.0 185.0 L 20.0 185.0" stroke="#FF0000" fill="none" stroke-width="4px" />
<path d="M 20.0 185.0 L 20.0 175.0" stroke="#FF0000" fill="none" stroke-width="4px" />
<path d="M 20.0 175.0 L 10.0 175.0" stroke="#FF0000" fill="none" stroke-width="4px" />
<path d="M 10.0 175.0 L 10.0 165.0" stroke="#FF0000" fill="none" stroke-width="4px" />
<path d="M 1070.0 165.0 L 1080.0 165.0" stroke="#FF0000" fill="none" stroke-width="4px" />
<path d="M 1080.0 165.0 L 1090.0 165.0" stroke="#FF0000" fill="none" stroke-width="4px" />
<path d="M 1090.0 165.0 L 1100.0 165.0" stroke="#FF0000" fill="none" stroke-width="4px" />
<path d="M 1100.0 165.0 L 1110.0 165.0" stroke="#FF0000" fill="none" stroke-width="4px" />
<path d="M 1110.0 165.0 L 1120.0 165.0" stroke="#FF0000" fill="none" stroke-width="4px" />
<path d="M 1120.0 165.0 L 1130.0 165.0" stroke="#FF0000" fill="none" stroke-width="4px" />
<path d="M 1130.0 165.0 L 1140.0 165.0" stroke="#FF0000" fill="none" stroke-width="4px" />
<path d="M 1140.0 165.0 L 1150.0 165.0" stroke="#FF0000" fill="none" stroke-width="4px" />
<path d="M 1150.0 165.0 L 1150.0 175.0" stroke="#FF0000" fill="none" stroke-width="4px" />
<path d="M 1150.0 175.0 L 1140.0 175.0" stroke="#FF0000" fill="none" stroke-width="4px" />
<path d="M 1140.0 175.0 L 1130.0 175.0" stroke="#FF0000" fill="none" stroke-width="4px" />
<path d="M 1130.0 175.0 L 1120.0 175.0" stroke="#FF0000" fill="none" stroke-width="4px" />
<path d="M 1120.0 175.0 L 1110.0 175.0" stroke="#FF0000" fill="none" stroke-width="4px" />
<path d="M 1110.0 175.0 L 1100.0 175.0" stroke="#FF0000" fill="none" stroke-width="4px" />
<path d="M 1100.0 175.0 L 1090.0 175.0" stroke="#FF0000" fill="none" stroke-width="4px" />
<path d="M 1090.0 175.0 L 1080.0 175.0" stroke="#FF0000" fill="none" stroke-width="4px" />
<path d="M 1080.0 175.0 L 1090.0 185.0" stroke="#FF0000" fill="none" stroke-width="4px" />
<path d="M 1090.0 185.0 L 1100.0 185.0" stroke="#FF0000" fill="none" stroke-width="4px" />
<path d="M 1100.0 185.0 L 1110.0 185.0" stroke="#FF0000" fill="none" stroke-width="4px" />
<path d="M 1110.0 185.0 L 1120.0 185.0" stroke="#FF0000" fill="none" stroke-width="4px" />
<path d="M 1120.0 185.0 L 1130.0 185.0" stroke="#FF0000" fill="none" stroke-width="4px" />
<path d="M 1130.0 185.0 L 1140.0 185.0" stroke="#FF0000" fill="none" stroke-width="4px" />
<path d="M 1140.0 185.0 L 1150.0 185.0" stroke="#FF0000" fill="none" stroke-width="4px" />
<path d="M 1150.0 185.0 L 1160.0 185.0" stroke="#FF0000" fill="none" stroke-width="4px" />
<path d="M 1160.0 185.0 L 1170.0 185.0" stroke="#FF0000" fill="none" stroke-width="4px" />
<path d="M 1170.0 185.0 L 1170.0 195.0" stroke="#FF0000" fill="none" stroke-width="4px" />
<path d="M 1170.0 195.0 L 1160.0 195.0" stroke="#FF0000" fill="none" stroke-width="4px" />
<path d="M 1160.0 195.0 L 1150.0 195.0" stroke="#FF0000" fill="none" stroke-width="4px" />
<path d="M 1150.0 195.0 L 1140.0 195.0" stroke="#FF0000" fill="none" stroke-width="4px" />
<path d="M 1140.0 195.0 L 1130.0 195.0" stroke="#FF0000" fill="none" stroke-width="4px" />
<path d="M 1130.0 195.0 L 1120.0 195.0" stroke="#FF0000" fill="none" stroke-width="4px" />
<path d="M 1120.0 195.0 L 1110.0 195.0" stroke="#FF0000" fill="none" stroke-width="4px" />
<path d="M 1110.0 195.0 L 1100.0 195.0" stroke="#FF0000" fill="none" stroke-width="4px" />
<path d="M 1100.0 195.0 L 1090.0 195.0" stroke="#FF0000" fill="none" stroke-width="4px" />
<path d="M 1090.0 195.0 L 1090.0 205.0" stroke="#FF0000" fill="none" stroke-width="4px" />
<path d="M 1090.0 205.0 L 1100.0 205.0" stroke="#FF0000" fill="none" stroke-width="4px" />
<path d="M 1100.0 205.0 L 1110.0 205.0" stroke="#FF0000" fill="none" stroke-width="4px" />
<path d="M 1110.0 205.0 L 1120.0 205.0" stroke="#FF0000" fill="none" stroke-width="4px" />
<path d="M 1120.0 205.0 L 1130.0 205.0" stroke="#FF0000" fill="none" stroke-width="4px" />
<path d="M 1130.0 205.0 L 1140.0 205.0" stroke="#FF0000" fill="none" stroke-width="4px" />
<path d="M 1140.0 205.0 L 1150.0 205.0" stroke="#FF0000" fill="none" stroke-width="4px" />
<path d="M 1150.0 205.0 L 1160.0 205.0" stroke="#FF0000" fill="none" stroke-width="4px" />
<path d="M 1160.0 205.0 L 1170.0 205.0" stroke="#FF0000" fill="none" stroke-width="4px" />
<path d="M 1170.0 205.0 L 1170.0 215.0" stroke="#FF0000" fill="none" stroke-width="4px" />
<path d="M 1170.0 215.0 L 1160.0 215.0" stroke="#FF0000" fill="none" stroke-width="4px" />
<path d="M 1160.0 215.0 L 1150.0 215.0" stroke="#FF0000" fill="none" stroke-width="4px" />
<path d="M 1150.0 215.0 L 1140.0 215.0" stroke="#FF0000" fill="none" stroke-width="4px" />
<path d="M 1140.0 215.0 L 1130.0 215.0" stroke="#FF0000" fill="none" stroke-width="4px" />
<path d="M 1130.0 215.0 L 1130.0 225.0" stroke="#FF0000" fill="none" stroke-width="4px" />
<path d="M 1130.0 225.0 L 1140.0 225.0" stroke="#FF0000" fill="none" stroke-width="4px" />
<path d="M 1140.0 225.0 L 1150.0 225.0" stroke="#FF0000" fill="none" stroke-width="4px" />
<path d="M 1150.0 225.0 L 1160.0 225.0" stroke="#FF0000" fill="none" stroke-width="4px" />
<path d="M 1160.0 225.0 L 1150.0 235.0" stroke="#FF0000" fill="none" stroke-width="4px" />
<path d="M 1150.0 235.0 L 1140.0 235.0" stroke="#FF0000" fill="none" stroke-width="4px" />
<path d="M 1110.0 215.0 L 1100.0 215.0" stroke="#FF0000" fill="none" stroke-width="4px" />
<path d="M 1140.0 155.0 L 1130.0 155.0" stroke="#FF0000" fill="none" stroke-width="4px" />
<path d="M 1130.0 155.0 L 1120.0 155.0" stroke="#FF0000" fill="none" stroke-width="4px" />
<path d="M 1120.0 155.0 L 1110.0 155.0" stroke="#FF0000" fill="none" stroke-width="4px" />
<path d="M 1110.0 155.0 L 1100.0 155.0" stroke="#FF0000" fill="none" stroke-width="4px" />
<path d="M 1100.0 155.0 L 1090.0 155.0" stroke="#FF0000" fill="none" stroke-width="4px" />
<path d="M 1090.0 155.0 L 1080.0 155.0" stroke="#FF0000" fill="none" stroke-width="4px" />
<path d="M 1080.0 155.0 L 1070.0 155.0" stroke="#FF0000" fill="none" stroke-width="4px" />
<path d="M 1070.0 155.0 L 1070.0 145.0" stroke="#FF0000" fill="none" stroke-width="4px" />
<path d="M 1070.0 145.0 L 1080.0 145.0" stroke="#FF0000" fill="none" stroke-width="4px" />
<path d="M 1080.0 145.0 L 1090.0 145.0" stroke="#FF0000" fill="none" stroke-width="4px" />
<path d="M 1090.0 145.0 L 1100.0 145.0" stroke="#FF0000" fill="none" stroke-width="4px" />
<path d="M 1100.0 145.0 L 1110.0 145.0" stroke="#FF0000" fill="none" stroke-width="4px" />
<path d="M 1110.0 145.0 L 1120.0 145.0" stroke="#FF0000" fill="none" stroke-width="4px" />
<path d="M 1120.0 145.0 L 1130.0 145.0" stroke="#FF0000" fill="none" stroke-width="4px" />
<path d="M 1110.0 135.0 L 1100.0 135.0" stroke="#FF0000" fill="none" stroke-width="4px" />
<path d="M 1100.0 135.0 L 1090.0 135.0" stroke="#FF0000" fill="none" stroke-width="4px" />
<path d="M 1090.0 135.0 L 1080.0 135.0" stroke="#FF0000" fill="none" stroke-width="4px" />
<path d="M 1080.0 135.0 L 1090.0 125.0" stroke="#FF0000" fill="none" stroke-width="4px" />
<path d="M 1090.0 125.0 L 1100.0 125.0" stroke="#FF0000" fill="none" stroke-width="4px" />
<path d="M 1130.0 105.0 L 1140.0 105.0" stroke="#FF0000" fill="none" stroke-width="4px" />
<path d="M 1140.0 105.0 L 1140.0 95.0" stroke="#FF0000" fill="none" stroke-width="4px" />
<path d="M 1140.0 95.0 L 1130.0 95.0" stroke="#FF0000" fill="none" stroke-width="4px" />
<path d="M 1130.0 95.0 L 1120.0 95.0" stroke="#FF0000" fill="none" stroke-width="4px" />
<path d="M 1120.0 95.0 L 1120.0 85.0" stroke="#FF0000" fill="none" stroke-width="4px" />
<path d="M 1120.0 85.0 L 1110.0 85.0" stroke="#FF0000" fill="none" stroke-width="4px" />
<path d="M 1110.0 85.0 L 1120.0 75.0" stroke="#FF0000" fill="none" stroke-width="4px" />
<path d="M 1120.0 75.0 L 1130.0 75.0" stroke="#FF0000" fill="none" stroke-width="4px" />
<path d="M 1130.0 75.0 L 1140.0 75.0" stroke="#FF0000" fill="none" stroke-width="4px" />
<path d="M 1140.0 75.0 L 1150.0 75.0" stroke="#FF0000" fill="none" stroke-width="4px" />
<path d="M 1150.0 75.0 L 1150.0 85.0" stroke="#FF0000" fill="none" stroke-width="4px" />
<path d="M 1150.0 85.0 L 1140.0 85.0" stroke="#FF0000" fill="none" stroke-width="4px" />
<path d="M 1140.0 85.0 L 1130.0 85.0" stroke="#FF0000" fill="none" stroke-width="4px" />
<path d="M 1130.0 65.0 L 1140.0 65.0" stroke="#FF0000" fill="none" stroke-width="4px" />
<path d="M 1350.0 125.0 L 1360.0 125.0" stroke="#FF0000" fill="none" stroke-width="4px" />
<path d="M 1360.0 125.0 L 1370.0 125.0" stroke="#FF0000" fill="none" stroke-width="4px" />
<path d="M 1370.0 125.0 L 1380.0 125.0" stroke="#FF0000" fill="none" stroke-width="4px" />
<path d="M 1380.0 125.0 L 1380.0 135.0" stroke="#FF0000" fill="none" stroke-width="4px" />
<path d="M 1380.0 135.0 L 1370.0 135.0" stroke="#FF0000" fill="none" stroke-width="4px" />
<path d="M 1370.0 135.0 L 1360.0 135.0" stroke="#FF0000" fill="none" stroke-width="4px" />
<path d="M 1360.0 135.0 L 1350.0 135.0" stroke="#FF0000" fill="none" stroke-width="4px" />
<path d="M 1350.0 135.0 L 1350.0 145.0" stroke="#FF0000" fill="none" stroke-width="4px" />
<path d="M 1350.0 145.0 L 1340.0 145.0" stroke="#FF0000" fill="none" stroke-width="4px" />
<path d="M 1340.0 145.0 L 1350.0 155.0" stroke="#FF0000" fill="none" stroke-width="4px" />
<path d="M 1350.0 155.0 L 1360.0 155.0" stroke="#FF0000" fill="none" stroke-width="4px" />
<path d="M 1360.0 155.0 L 1370.0 155.0" stroke="#FF0000" fill="none" stroke-width="4px" />
<path d="M 1370.0 155.0 L 1370.0 145.0" stroke="#FF0000" fill="none" stroke-width="4px" />
<path d="M 1370.0 145.0 L 1360.0 145.0" stroke="#FF0000" fill="none" stroke-width="4px" />
<path d="M 1360.0 145.0 L 1380.0 145.0" stroke="#FF0000" fill="none" stroke-width="4px" />
<path d="M 1360.0 115.0 L 1370.0 115.0" stroke="#FF0000" fill="none" stroke-width="4px" />
<path d="M 1510.0 205.0 L 1520.0 205.0" stroke="#FF0000" fill="none" stroke-width="4px" />
<path d="M 1520.0 205.0 L 1530.0 205.0" stroke="#FF0000" fill="none" stroke-width="4px" />
<path d="M 1530.0 205.0 L 1540.0 205.0" stroke="#FF0000" fill="none" stroke-width="4px" />
<path d="M 1540.0 205.0 L 1550.0 205.0" stroke="#FF0000" fill="none" stroke-width="4px" />
<path d="M 1550.0 205.0 L 1550.0 215.0" stroke="#FF0000" fill="none" stroke-width="4px" />
<path d="M 1550.0 215.0 L 1540.0 215.0" stroke="#FF0000" fill="none" stroke-width="4px" />
<path d="M 1540.0 215.0 L 1530.0 215.0" stroke="#FF0000" fill="none" stroke-width="4px" />
<path d="M 1530.0 215.0 L 1520.0 215.0" stroke="#FF0000" fill="none" stroke-width="4px" />
<path d="M 1520.0 215.0 L 1510.0 215.0" stroke="#FF0000" fill="none" stroke-width="4px" />
<path d="M 1510.0 215.0 L 1500.0 215.0" stroke="#FF0000" fill="none" stroke-width="4px" />
<path d="M 1500.0 215.0 L 1500.0 225.0" stroke="#FF0000" fill="none" stroke-width="4px" />
<path d="M 1500.0 225.0 L 1510.0 225.0" stroke="#FF0000" fill="none" stroke-width="4px" />
<path d="M 1510.0 225.0 L 1520.0 225.0" stroke="#FF0000" fill="none" stroke-width="4px" />
<path d="M 1520.0 225.0 L 1530.0 225.0" stroke="#FF0000" fill="none" stroke-width="4px" />
<path d="M 1530.0 225.0 L 1540.0 225.0" stroke="#FF0000" fill="none" stroke-width="4px" />
<path d="M 1540.0 225.0 L 1550.0 225.0" stroke="#FF0000" fill="none" stroke-width="4px" />
<path d="M 1550.0 225.0 L 1560.0 225.0" stroke="#FF0000" fill="none" stroke-width="4px" />
<path d="M 1560.0 225.0 L 1560.0 215.0" stroke="#FF0000" fill="none" stroke-width="4px" />
<path d="M 1550.0 235.0 L 1540.0 235.0" stroke="#FF0000" fill="none" stroke-width="4px" />
<path d="M 1540.0 235.0 L 1530.0 235.0" stroke="#FF0000" fill="none" stroke-width="4px" />
<path d="M 1530.0 235.0 L 1520.0 235.0" stroke="#FF0000" fill="none" stroke-width="4px" />
<path d="M 1520.0 235.0 L 1510.0 235.0" stroke="#FF0000" fill="none" stroke-width="4px" />
<path d="M 1510.0 235.0 L 1500.0 235.0" stroke="#FF0000" fill="none" stroke-width="4px" />
<path d="M 1530.0 195.0 L 1540.0 195.0" stroke="#FF0000" fill="none" stroke-width="4px" />
<path d="M 1730.0 55.0 L 1740.0 55.0" stroke="#FF0000" fill="none" stroke-width="4px" />
<path d="M 1740.0 55.0 L 1750.0 55.0" stroke="#FF0000" fill="none" stroke-width="4px" />
<path d="M 1750.0 55.0 L 1760.0 55.0" stroke="#FF0000" fill="none" stroke-width="4px" />
<path d="M 1760.0 55.0 L 1770.0 55.0" stroke="#FF0000" fill="none" stroke-width="4px" />
<path d="M 1770.0 55.0 L 1780.0 55.0" stroke="#FF0000" fill="none" stroke-width="4px" />
<path d="M 1780.0 55.0 L 1790.0 55.0" stroke="#FF0000" fill="none" stroke-width="4px" />
<path d="M 1790.0 55.0 L 1790.0 45.0" stroke="#FF0000" fill="none" stroke-width="4px" />
<path d="M 1790.0 45.0 L 1780.0 45.0" stroke="#FF0000" fill="none" stroke-width="4px" />
<path d="M 1780.0 45.0 L 1770.0 45.0" stroke="#FF0000" fill="none" stroke-width="4px" />
<path d="M 1770.0 45.0 L 1760.0 45.0" stroke="#FF0000" fill="none" stroke-width="4px" />
<path d="M 1760.0 45.0 L 1750.0 45.0" stroke="#FF0000" fill="none" stroke-width="4px" />
<path d="M 1750.0 45.0 L 1740.0 45.0" stroke="#FF0000" fill="none" stroke-width="4px" />
<path d="M 1740.0 45.0 L 1730.0 45.0" stroke="#FF0000" fill="none" stroke-width="4px" />
<path d="M 1730.0 45.0 L 1730.0 35.0" stroke="#FF0000" fill="none" stroke-width="4px" />
<path d="M 1730.0 35.0 L 1720.0 35.0" stroke="#FF0000" fill="none" stroke-width="4px" />
<path d="M 1720.0 35.0 L 1730.0 25.0" stroke="#FF0000" fill="none" stroke-width="4px" />
<path d="M 1730.0 25.0 L 1740.0 25.0" stroke="#FF0000" fill="none" stroke-width="4px" />
<path d="M 1740.0 25.0 L 1750.0 25.0" stroke="#FF0000" fill="none" stroke-width="4px" />
<path d="M 1750.0 25.0 L 1760.0 25.0" stroke="#FF0000" fill="none" stroke-width="4px" />
<path d="M 1760.0 25.0 L 1770.0 25.0" stroke="#FF0000" fill="none" stroke-width="4px" />
<path d="M 1770.0 25.0 L 1780.0 25.0" stroke="#FF0000" fill="none" stroke-width="4px" />
<path d="M 1780.0 25.0 L 1780.0 35.0" stroke="#FF0000" fill="none" stroke-width="4px" />
<path d="M 1780.0 35.0 L 1770.0 35.0" stroke="#FF0000" fill="none" stroke-width="4px" />
<path d="M 1770.0 35.0 L 1760.0 35.0" stroke="#FF0000" fill="none" stroke-width="4px" />
<path d="M 1760.0 35.0 L 1750.0 35.0" stroke="#FF0000" fill="none" stroke-width="4px" />
<path d="M 1750.0 35.0 L 1740.0 35.0" stroke="#FF0000" fill="none" stroke-width="4px" />
<path d="M 1740.0 15.0 L 1730.0 15.0" stroke="#FF0000" fill="none" stroke-width="4px" />
<path d="M 1730.0 15.0 L 1740.0 5.0" stroke="#FF0000" fill="none" stroke-width="4px" />
<path d="M 1740.0 5.0 L 1750.0 5.0" stroke="#FF0000" fill="none" stroke-width="4px" />
<path d="M 1750.0 5.0 L 1760.0 5.0" stroke="#FF0000" fill="none" stroke-width="4px" />
<path d="M 1760.0 5.0 L 1770.0 5.0" stroke="#FF0000" fill="none" stroke-width="4px" />
<path d="M 1770.0 5.0 L 1780.0 5.0" stroke="#FF0000" fill="none" stroke-width="4px" />
<path d="M 1780.0 5.0 L 1780.0 15.0" stroke="#FF0000" fill="none" stroke-width="4px" />
<path d="M 1780.0 15.0 L 1770.0 15.0" stroke="#FF0000" fill="none" stroke-width="4px" />
<path d="M 1770.0 15.0 L 1760.0 15.0" stroke="#FF0000" fill="none" stroke-width="4px" />
<path d="M 1760.0 15.0 L 1750.0 15.0" stroke="#FF0000" fill="none" stroke-width="4px" />
<path d="M 1750.0 -5.0 L 1740.0 -5.0" stroke="#FF0000" fill="none" stroke-width="4px" />
<path d="M 1740.0 -5.0 L 1760.0 -5.0" stroke="#FF0000" fill="none" stroke-width="4px" />
<path d="M 1760.0 -5.0 L 1770.0 -5.0" stroke="#FF0000" fill="none" stroke-width="4px" />
<path d="M 1770.0 -5.0 L 1780.0 -5.0" stroke="#FF0000" fill="none" stroke-width="4px" />
<path d="M 1820.0 15.0 L 1830.0 15.0" stroke="#FF0000" fill="none" stroke-width="4px" />
<path d="M 1830.0 15.0 L 1840.0 15.0" stroke="#FF0000" fill="none" stroke-width="4px" />
<path d="M 1840.0 15.0 L 1850.0 15.0" stroke="#FF0000" fill="none" stroke-width="4px" />
<path d="M 1850.0 15.0 L 1860.0 15.0" stroke="#FF0000" fill="none" stroke-width="4px" />
<path d="M 1860.0 15.0 L 1870.0 15.0" stroke="#FF0000" fill="none" stroke-width="4px" />
<path d="M 1870.0 15.0 L 1880.0 15.0" stroke="#FF0000" fill="none" stroke-width="4px" />
<path d="M 1880.0 15.0 L 1880.0 25.0" stroke="#FF0000" fill="none" stroke-width="4px" />
<path d="M 1880.0 25.0 L 1870.0 25.0" stroke="#FF0000" fill="none" stroke-width="4px" />
<path d="M 1870.0 25.0 L 1860.0 25.0" stroke="#FF0000" fill="none" stroke-width="4px" />
<path d="M 1860.0 25.0 L 1850.0 25.0" stroke="#FF0000" fill="none" stroke-width="4px" />
<path d="M 1850.0 25.0 L 1840.0 25.0" stroke="#FF0000" fill="none" stroke-width="4px" />
<path d="M 1840.0 25.0 L 1830.0 25.0" stroke="#FF0000" fill="none" stroke-width="4px" />
<path d="M 1830.0 25.0 L 1820.0 25.0" stroke="#FF0000" fill="none" stroke-width="4px" />
<path d="M 1820.0 25.0 L 1810.0 25.0" stroke="#FF0000" fill="none" stroke-width="4px" />
<path d="M 1810.0 25.0 L 1810.0 35.0" stroke="#FF0000" fill="none" stroke-width="4px" />
<path d="M 1810.0 35.0 L 1820.0 35.0" stroke="#FF0000" fill="none" stroke-width="4px" />
<path d="M 1820.0 35.0 L 1830.0 35.0" stroke="#FF0000" fill="none" stroke-width="4px" />
<path d="M 1830.0 35.0 L 1840.0 35.0" stroke="#FF0000" fill="none" stroke-width="4px" />
<path d="M 1840.0 35.0 L 1850.0 35.0" stroke="#FF0000" fill="none" stroke-width="4px" />
<path d="M 1850.0 35.0 L 1860.0 35.0" stroke="#FF0000" fill="none" stroke-width="4px" />
<path d="M 1860.0 35.0 L 1870.0 35.0" stroke="#FF0000" fill="none" stroke-width="4px" />
<path d="M 1870.0 35.0 L 1860.0 45.0" stroke="#FF0000" fill="none" stroke-width="4px" />
<path d="M 1860.0 45.0 L 1850.0 45.0" stroke="#FF0000" fill="none" stroke-width="4px" />
<path d="M 1850.0 45.0 L 1840.0 45.0" stroke="#FF0000" fill="none" stroke-width="4px" />
<path d="M 1840.0 45.0 L 1830.0 45.0" stroke="#FF0000" fill="none" stroke-width="4px" />
<path d="M 1830.0 45.0 L 1820.0 45.0" stroke="#FF0000" fill="none" stroke-width="4px" />
<path d="M 1820.0 45.0 L 1810.0 45.0" stroke="#FF0000" fill="none" stroke-width="4px" />
<path d="M 1810.0 45.0 L 1820.0 55.0" stroke="#FF0000" fill="none" stroke-width="4px" />
<path d="M 1820.0 55.0 L 1830.0 55.0" stroke="#FF0000" fill="none" stroke-width="4px" />
<path d="M 1830.0 55.0 L 1840.0 55.0" stroke="#FF0000" fill="none" stroke-width="4px" />
<path d="M 1840.0 55.0 L 1850.0 55.0" stroke="#FF0000" fill="none" stroke-width="4px" />
<path d="M 1780.0 65.0 L 1770.0 65.0" stroke="#FF0000" fill="none" stroke-width="4px" />
<path d="M 1770.0 65.0 L 1760.0 65.0" stroke="#FF0000" fill="none" stroke-width="4px" />
<path d="M 1760.0 65.0 L 1750.0 65.0" stroke="#FF0000" fill="none" stroke-width="4px" />
<path d="M 1750.0 65.0 L 1760.0 75.0" stroke="#FF0000" fill="none" stroke-width="4px" />
<path d="M 1760.0 75.0 L 1770.0 75.0" stroke="#FF0000" fill="none" stroke-width="4px" />
<path d="M 1830.0 5.0 L 1840.0 5.0" stroke="#FF0000" fill="none" stroke-width="4px" />
<path d="M 1840.0 5.0 L 1850.0 5.0" stroke="#FF0000" fill="none" stroke-width="4px" />
<path d="M 1850.0 5.0 L 1860.0 5.0" stroke="#FF0000" fill="none" stroke-width="4px" />
<path d="M 1860.0 5.0 L 1870.0 5.0" stroke="#FF0000" fill="none" stroke-width="4px" />
<path d="M 1870.0 5.0 L 1870.0 -5.0" stroke="#FF0000" fill="none" stroke-width="4px" />
<path d="M 1870.0 -5.0 L 1860.0 -5.0" stroke="#FF0000" fill="none" stroke-width="4px" />
<path d="M 1860.0 -5.0 L 1850.0 -5.0" stroke="#FF0000" fill="none" stroke-width="4px" />
<path d="M 1850.0 -5.0 L 1840.0 -5.0" stroke="#FF0000" fill="none" stroke-width="4px" />
<path d="M 1840.0 -5.0 L 1830.0 -5.0" stroke="#FF0000" fill="none" stroke-width="4px" />
<path d="M 1910.0 165.0 L 1920.0 165.0" stroke="#FF0000" fill="none" stroke-width="4px" />
<path d="M 1920.0 165.0 L 1920.0 175.0" stroke="#FF0000" fill="none" stroke-width="4px" />
<path d="M 1920.0 175.0 L 1910.0 175.0" stroke="#FF0000" fill="none" stroke-width="4px" />
<path d="M 1910.0 175.0 L 1900.0 175.0" stroke="#FF0000" fill="none" stroke-width="4px" />
<path d="M 1900.0 175.0 L 1900.0 185.0" stroke="#FF0000" fill="none" stroke-width="4px" />
<path d="M 1900.0 185.0 L 1910.0 185.0" stroke="#FF0000" fill="none" stroke-width="4px" />
<path d="M 1910.0 185.0 L 1920.0 185.0" stroke="#FF0000" fill="none" stroke-width="4px" />
<path d="M 1920.0 185.0 L 1930.0 185.0" stroke="#FF0000" fill="none" stroke-width="4px" />
<path d="M 1930.0 185.0 L 1940.0 185.0" stroke="#FF0000" fill="none" stroke-width="4px" />
<path d="M 1940.0 185.0 L 1950.0 185.0" stroke="#FF0000" fill="none" stroke-width="4px" />
<path d="M 1950.0 185.0 L 1950.0 195.0" stroke="#FF0000" fill="none" stroke-width="4px" />
<path d="M 1950.0 195.0 L 1940.0 195.0" stroke="#FF0000" fill="none" stroke-width="4px" />
<path d="M 1940.0 195.0 L 1930.0 195.0" stroke="#FF0000" fill="none" stroke-width="4px" />
<path d="M 1930.0 195.0 L 1920.0 195.0" stroke="#FF0000" fill="none" stroke-width="4px" />
<path d="M 1920.0 195.0 L 1910.0 195.0" stroke="#FF0000" fill="none" stroke-width="4px" />
<path d="M 1930.0 205.0 L 1940.0 205.0" stroke="#FF0000" fill="none" stroke-width="4px" />
<path d="M 1940.0 205.0 L 1950.0 205.0" stroke="#FF0000" fill="none" stroke-width="4px" />
<path d="M 1950.0 205.0 L 1960.0 205.0" stroke="#FF0000" fill="none" stroke-width="4px" />
<path d="M 1960.0 205.0 L 1960.0 195.0" stroke="#FF0000" fill="none" stroke-width="4px" />
<path d="M 1950.0 215.0 L 1940.0 215.0" stroke="#FF0000" fill="none" stroke-width="4px" />
<path d="M 2400.0 195.0 L 2400.0 185.0" stroke="#FF0000" fill="none" stroke-width="4px" />
<path d="M 2400.0 185.0 L 2390.0 185.0" stroke="#FF0000" fill="none" stroke-width="4px" />
<path d="M 2390.0 185.0 L 2390.0 175.0" stroke="#FF0000" fill="none" stroke-width="4px" />
<path d="M 2390.0 175.0 L 2380.0 175.0" stroke="#FF0000" fill="none" stroke-width="4px" />
<path d="M 2380.0 175.0 L 2380.0 165.0" stroke="#FF0000" fill="none" stroke-width="4px" />
<path d="M 2380.0 165.0 L 2390.0 165.0" stroke="#FF0000" fill="none" stroke-width="4px" />
<path d="M 2390.0 165.0 L 2400.0 165.0" stroke="#FF0000" fill="none" stroke-width="4px" />
<path d="M 2400.0 165.0 L 2410.0 165.0" stroke="#FF0000" fill="none" stroke-width="4px" />
<path d="M 2410.0 165.0 L 2420.0 165.0" stroke="#FF0000" fill="none" stroke-width="4px" />
<path d="M 2420.0 165.0 L 2420.0 175.0" stroke="#FF0000" fill="none" stroke-width="4px" />
<path d="M 2420.0 175.0 L 2410.0 175.0" stroke="#FF0000" fill="none" stroke-width="4px" />
<path d="M 2410.0 175.0 L 2400.0 175.0" stroke="#FF0000" fill="none" stroke-width="4px" />
<path d="M 2400.0 175.0 L 2410.0 185.0" stroke="#FF0000" fill="none" stroke-width="4px" />
<path d="M 2410.0 155.0 L 2400.0 155.0" stroke="#FF0000" fill="none" stroke-width="4px" />
<path d="M 2400.0 155.0 L 2390.0 155.0" stroke="#FF0000" fill="none" stroke-width="4px" />
<path d="M 2390.0 155.0 L 2380.0 155.0" stroke="#FF0000" fill="none" stroke-width="4px" />
<path d="M 2380.0 155.0 L 2390.0 145.0" stroke="#FF0000" fill="none" stroke-width="4px" />
<path d="M 2390.0 145.0 L 2400.0 145.0" stroke="#FF0000" fill="none" stroke-width="4px" />
<path d="M 2400.0 145.0 L 2410.0 145.0" stroke="#FF0000" fill="none" stroke-width="4px" />
<path d="M 2410.0 145.0 L 2420.0 155.0" stroke="#FF0000" fill="none" stroke-width="4px" />
</svg>