<svg width="2894.54166667" height="235.0" xmlns="http://www.w3.org/2000/svg" version="1.1">
<path d="M 0.0 235.0 L 1985.0 235.0 L 1985.0 0.0 L 0.0 0.0 L 0.0 235.0" stroke="#000000" fill="none" stroke-width="3px" />
<path d="M 2894.54166667 235.0 L 1885.0 235.0 L 1885.0 0.0 L 2894.54166667 0.0 L 2894.54166667 235.0" stroke="#000000" fill="none" stroke-width="3px" />
<path d="M 10.0 257.5 L 0.0 247.5 L 10.0 237.5" stroke="#969696" fill="none" stroke-width="1px" />
<path d="M 10.0 237.5 L 1975.0 237.5" stroke="#969696" fill="none" stroke-width="1px" />
<path d="M 1975.0 237.5 L 1985.0 227.5 L 1975.0 217.5" stroke="#969696" fill="none" stroke-width="1px" />
<path d="M 1975.0 217.5 L 10.0 217.5" stroke="#969696" fill="none" stroke-width="1px" />
<path d="M 10.0 217.5 L 0.0 207.5 L 10.0 197.5" stroke="#969696" fill="none" stroke-width="1px" />
<path d="M 10.0 197.5 L 1975.0 197.5" stroke="#969696" fill="none" stroke-width="1px" />
<path d="M 1975.0 197.5 L 1985.0 187.5 L 1975.0 177.5" stroke="#969696" fill="none" stroke-width="1px" />
<path d="M 1975.0 177.5 L 10.0 177.5" stroke="#969696" fill="none" stroke-width="1px" />
<path d="M 10.0 177.5 L 0.0 167.5 L 10.0 157.5" stroke="#969696" fill="none" stroke-width="1px" />
<path d="M 10.0 157.5 L 1975.0 157.5" stroke="#969696" fill="none" stroke-width="1px" />
<path d="M 1975.0 157.5 L 1985.0 147.5 L 1975.0 137.5" stroke="#969696" fill="none" stroke-width="1px" />
<path d="M 1975.0 137.5 L 10.0 137.5" stroke="#969696" fill="none" stroke-width="1px" />
<path d="M 10.0 137.5 L 0.0 127.5 L 10.0 117.5" stroke="#969696" fill="none" stroke-width="1px" />
<path d="M 10.0 117.5 L 1975.0 117.5" stroke="#969696" fill="none" stroke-width="1px" />
<path d="M 1975.0 117.5 L 1985.0 107.5 L 1975.0 97.5" stroke="#969696" fill="none" stroke-width="1px" />
<path d="M 1975.0 97.5 L 10.0 97.5" stroke="#969696" fill="none" stroke-width="1px" />
<path d="M 10.0 97.5 L 0.0 87.5 L 10.0 77.5" stroke="#969696" fill="none" stroke-width="1px" />
<path d="M 10.0 77.5 L 1975.0 77.5" stroke="#969696" fill="none" stroke-width="1px" />
<path d="M 1975.0 77.5 L 1985.0 67.5 L 1975.0 57.5" stroke="#969696" fill="none" stroke-width="1px" />
<path d="M 1975.0 57.5 L 10.0 57.5" stroke="#969696" fill="none" stroke-width="1px" />
<path d="M 10.0 57.5 L 0.0 47.5 L 10.0 37.5" stroke="#969696" fill="none" stroke-width="1px" />
<path d="M 10.0 37.5 L 1975.0 37.5" stroke="#969696" fill="none" stroke-width="1px" />
<path d="M 1975.0 37.5 L 1985.0 27.5 L 1975.0 17.5" stroke="#969696" fill="none" stroke-width="1px" />
<path d="M 1975.0 17.5 L 10.0 17.5" stroke="#969696" fill="none" stroke-width="1px" />
<path d="M 10.0 17.5 L 0.0 7.5 L 10.0 -2.5" stroke="#969696" fill="none" stroke-width="1px" />
<path d="M 10.0 -2.5 L 1975.0 -2.5" stroke="#969696" fill="none" stroke-width="1px" />
<path d="M 1975.0 -2.5 L 1985.0 -12.5 L 1975.0 -22.5" stroke="#969696" fill="none" stroke-width="1px" />
<path d="M 2884.54166667 257.5 L 2894.54166667 247.5 L 2884.54166667 237.5" stroke="#969696" fill="none" stroke-width="1px" />
<path d="M 2884.54166667 237.5 L 1895.0 237.5" stroke="#969696" fill="none" stroke-width="1px" />
<path d="M 1895.0 237.5 L 1885.0 227.5 L 1895.0 217.5" stroke="#969696" fill="none" stroke-width="1px" />
<path d="M 1895.0 217.5 L 2884.54166667 217.5" stroke="#969696" fill="none" stroke-width="1px" />
<path d="M 2884.54166667 217.5 L 2894.54166667 207.5 L 2884.54166667 197.5" stroke="#969696" fill="none" stroke-width="1px" />
<path d="M 2884.54166667 197.5 L 1895.0 197.5" stroke="#969696" fill="none" stroke-width="1px" />
<path d="M 1895.0 197.5 L 1885.0 187.5 L 1895.0 177.5" stroke="#969696" fill="none" stroke-width="1px" />
<path d="M 1895.0 177.5 L 2884.54166667 177.5" stroke="#969696" fill="none" stroke-width="1px" />
<path d="M 2884.54166667 177.5 L 2894.54166667 167.5 L 2884.54166667 157.5" stroke="#969696" fill="none" stroke-width="1px" />
<path d="M 2884.54166667 157.5 L 1895.0 157.5" stroke="#969696" fill="none" stroke-width="1px" />
<path d="M 1895.0 157.5 L 1885.0 147.5 L 1895.0 137.5" stroke="#969696" fill="none" stroke-width="1px" />
<path d="M 1895.0 137.5 L 2884.54166667 137.5" stroke="#969696" fill="none" stroke-width="1px" />
<path d="M 2884.54166667 137.5 L 2894.54166667 127.5 L 2884.54166667 117.5" stroke="#969696" fill="none" stroke-width="1px" />
<path d="M 2884.54166667 117.5 L 1895.0 117.5" stroke="#969696" fill="none" stroke-width="1px" />
<path d="M 1895.0 117.5 L 1885.0 107.5 L 1895.0 97.5" stroke="#969696" fill="none" stroke-width="1px" />
<path d="M 1895.0 97.5 L 2884.54166667 97.5" stroke="#969696" fill="none" stroke-width="1px" />
<path d="M 2884.54166667 97.5 L 2894.54166667 87.5 L 2884.54166667 77.5" stroke="#969696" fill="none" stroke-width="1px" />
<path d="M 2884.54166667 77.5 L 1895.0 77.5" stroke="#969696" fill="none" stroke-width="1px" />
<path d="M 1895.0 77.5 L 1885.0 67.5 L 1895.0 57.5" stroke="#969696" fill="none" stroke-width="1px" />
<path d="M 1895.0 57.5 L 2884.54166667 57.5" stroke="#969696" fill="none" stroke-width="1px" />
<path d="M 2884.54166667 57.5 L 2894.54166667 47.5 L 2884.54166667 37.5" stroke="#969696" fill="none" stroke-width="1px" />
<path d="M 2884.54166667 37.5 L 1895.0 37.5" stroke="#969696" fill="none" stroke-width="1px" />
<path d="M 1895.0 37.5 L 1885.0 27.5 L 1895.0 17.5" stroke="#969696" fill="none" stroke-width="1px" />
<path d="M 1895.0 17.5 L 2884.54166667 17.5" stroke="#969696" fill="none" stroke-width="1px" />
<path d="M 2884.54166667 17.5 L 2894.54166667 7.5 L 2884.54166667 -2.5" stroke="#969696" fill="none" stroke-width="1px" />
<path d="M 2884.54166667 -2.5 L 1895.0 -2.5" stroke="#969696" fill="none" stroke-width="1px" />
<path d="M 1895.0 -2.5 L 1885.0 -12.5 L 1895.0 -22.5" stroke="#969696" fill="none" stroke-width="1px" />
<path d="M 0.0 235.0 L 680.0 155.0" stroke="#0095FF" fill="none" stroke-width="2px" />
<path d="M 720.0 145.0 L 700.0 165.0" stroke="#0095FF" fill="none" stroke-width="2px" />
<path d="M 690.0 165.0 L 700.0 125.0" stroke="#0095FF" fill="none" stroke-width="2px" />
<path d="M 700.0 125.0 L 750.0 95.0" stroke="#0095FF" fill="none" stroke-width="2px" />
<path d="M 760.0 85.0 L 760.0 55.0" stroke="#0095FF" fill="none" stroke-width="2px" />
<path d="M 750.0 45.0 L 1890.0 55.0" stroke="#0095FF" fill="none" stroke-width="2px" />
<path d="M 1930.0 65.0 L 1920.0 85.0" stroke="#0095FF" fill="none" stroke-width="2px" />
<path d="M 1900.0 85.0 L 1900.0 45.0" stroke="#0095FF" fill="none" stroke-width="2px" />
<path d="M 1910.0 45.0 L 1910.0 125.0" stroke="#0095FF" fill="none" stroke-width="2px" />
<path d="M 1920.0 165.0 L 1920.0 135.0" stroke="#0095FF" fill="none" stroke-width="2px" />
<path d="M 2894.54166667 235.0 L 2070.0 115.0" stroke="#0095FF" fill="none" stroke-width="2px" />
<path d="M 2070.0 95.0 L 2060.0 125.0" stroke="#0095FF" fill="none" stroke-width="2px" />
<path d="M 2040.0 125.0 L 2030.0 75.0" stroke="#0095FF" fill="none" stroke-width="2px" />
<path d="M 680.0 155.0 L 690.0 155.0" stroke="#FF0000" fill="none" stroke-width="4px" />
<path d="M 690.0 155.0 L 700.0 155.0" stroke="#FF0000" fill="none" stroke-width="4px" />
<path d="M 700.0 155.0 L 710.0 155.0" stroke="#FF0000" fill="none" stroke-width="4px" />
<path d="M 710.0 155.0 L 710.0 145.0" stroke="#FF0000" fill="none" stroke-width="4px" />
<path d="M 710.0 145.0 L 700.0 145.0" stroke="#FF0000" fill="none" stroke-width="4px" />
<path d="M 700.0 145.0 L 690.0 145.0" stroke="#FF0000" fill="none" stroke-width="4px" />
<path d="M 690.0 145.0 L 680.0 145.0" stroke="#FF0000" fill="none" stroke-width="4px" />
<path d="M 680.0 145.0 L 690.0 135.0" stroke="#FF0000" fill="none" stroke-width="4px" />
<path d="M 690.0 135.0 L 700.0 135.0" stroke="#FF0000" fill="none" stroke-width="4px" />
<path d="M 700.0 135.0 L 710.0 135.0" stroke="#FF0000" fill="none" stroke-width="4px" />
<path d="M 710.0 135.0 L 720.0 145.0" stroke="#FF0000" fill="none" stroke-width="4px" />
<path d="M 700.0 165.0 L 690.0 165.0" stroke="#FF0000" fill="none" stroke-width="4px" />
<path d="M 750.0 95.0 L 750.0 85.0" stroke="#FF0000" fill="none" stroke-width="4px" />
<path d="M 750.0 85.0 L 740.0 85.0" stroke="#FF0000" fill="none" stroke-width="4px" />
<path d="M 740.0 85.0 L 740.0 75.0" stroke="#FF0000" fill="none" stroke-width="4px" />
<path d="M 740.0 75.0 L 730.0 75.0" stroke="#FF0000" fill="none" stroke-width="4px" />
<path d="M 730.0 75.0 L 730.0 65.0" stroke="#FF0000" fill="none" stroke-width="4px" />
<path d="M 730.0 65.0 L 740.0 65.0" stroke="#FF0000" fill="none" stroke-width="4px" />
<path d="M 740.0 65.0 L 750.0 65.0" stroke="#FF0000" fill="none" stroke-width="4px" />
<path d="M 750.0 65.0 L 760.0 65.0" stroke="#FF0000" fill="none" stroke-width="4px" />
<path d="M 760.0 65.0 L 760.0 75.0" stroke="#FF0000" fill="none" stroke-width="4px" />
<path d="M 760.0 75.0 L 750.0 75.0" stroke="#FF0000" fill="none" stroke-width="4px" />
<path d="M 750.0 75.0 L 760.0 85.0" stroke="#FF0000" fill="none" stroke-width="4px" />
<path d="M 760.0 55.0 L 750.0 55.0" stroke="#FF0000" fill="none" stroke-width="4px" />
<path d="M 750.0 55.0 L 740.0 55.0" stroke="#FF0000" fill="none" stroke-width="4px" />
<path d="M 740.0 55.0 L 730.0 55.0" stroke="#FF0000" fill="none" stroke-width="4px" />
<path d="M 730.0 55.0 L 740.0 45.0" stroke="#FF0000" fill="none" stroke-width="4px" />
<path d="M 740.0 45.0 L 750.0 45.0" stroke="#FF0000" fill="none" stroke-width="4px" />
<path d="M 1890.0 55.0 L 1900.0 55.0" stroke="#FF0000" fill="none" stroke-width="4px" />
<path d="M 1900.0 55.0 L 1910.0 55.0" stroke="#FF0000" fill="none" stroke-width="4px" />
<path d="M 1910.0 55.0 L 1920.0 55.0" stroke="#FF0000" fill="none" stroke-width="4px" />
<path d="M 1920.0 55.0 L 1920.0 65.0" stroke="#FF0000" fill="none" stroke-width="4px" />
<path d="M 1920.0 65.0 L 1910.0 65.0" stroke="#FF0000" fill="none" stroke-width="4px" />
<path d="M 1910.0 65.0 L 1900.0 65.0" stroke="#FF0000" fill="none" stroke-width="4px" />
<path d="M 1900.0 65.0 L 1890.0 65.0" stroke="#FF0000" fill="none" stroke-width="4px" />
<path d="M 1890.0 65.0 L 1890.0 75.0" stroke="#FF0000" fill="none" stroke-width="4px" />
<path d="M 1890.0 75.0 L 1900.0 75.0" stroke="#FF0000" fill="none" stroke-width="4px" />
<path d="M 1900.0 75.0 L 1910.0 75.0" stroke="#FF0000" fill="none" stroke-width="4px" />
<path d="M 1910.0 75.0 L 1920.0 75.0" stroke="#FF0000" fill="none" stroke-width="4px" />
<path d="M 1920.0 75.0 L 1930.0 75.0" stroke="#FF0000" fill="none" stroke-width="4px" />
<path d="M 1930.0 75.0 L 1930.0 65.0" stroke="#FF0000" fill="none" stroke-width="4px" />
<path d="M 1920.0 85.0 L 1910.0 85.0" stroke="#FF0000" fill="none" stroke-width="4px" />
<path d="M 1910.0 85.0 L 1900.0 85.0" stroke="#FF0000" fill="none" stroke-width="4px" />
<path d="M 1900.0 45.0 L 1910.0 45.0" stroke="#FF0000" fill="none" stroke-width="4px" />
<path d="M 1910.0 125.0 L 1900.0 125.0" stroke="#FF0000" fill="none" stroke-width="4px" />
<path d="M 1900.0 125.0 L 1900.0 135.0" stroke="#FF0000" fill="none" stroke-width="4px" />
<path d="M 1900.0 135.0 L 1890.0 135.0" stroke="#FF0000" fill="none" stroke-width="4px" />
<path d="M 1890.0 135.0 L 1890.0 145.0" stroke="#FF0000" fill="none" stroke-width="4px" />
<path d="M 1890.0 145.0 L 1900.0 145.0" stroke="#FF0000" fill="none" stroke-width="4px" />
<path d="M 1900.0 145.0 L 1910.0 145.0" stroke="#FF0000" fill="none" stroke-width="4px" />
<path d="M 1910.0 145.0 L 1920.0 145.0" stroke="#FF0000" fill="none" stroke-width="4px" />
<path d="M 1920.0 145.0 L 1930.0 145.0" stroke="#FF0000" fill="none" stroke-width="4px" />
<path d="M 1930.0 145.0 L 1930.0 155.0" stroke="#FF0000" fill="none" stroke-width="4px" />
<path d="M 1930.0 155.0 L 1920.0 155.0" stroke="#FF0000" fill="none" stroke-width="4px" />
<path d="M 1920.0 155.0 L 1910.0 155.0" stroke="#FF0000" fill="none" stroke-width="4px" />
<path d="M 1910.0 155.0 L 1900.0 155.0" stroke="#FF0000" fill="none" stroke-width="4px" />
<path d="M 1900.0 155.0 L 1890.0 155.0" stroke="#FF0000" fill="none" stroke-width="4px" />
<path d="M 1890.0 155.0 L 1900.0 165.0" stroke="#FF0000" fill="none" stroke-width="4px" />
<path d="M 1900.0 165.0 L 1910.0 165.0" stroke="#FF0000" fill="none" stroke-width="4px" />
<path d="M 1910.0 165.0 L 1920.0 165.0" stroke="#FF0000" fill="none" stroke-width="4px" />
<path d="M 1920.0 135.0 L 1910.0 135.0" stroke="#FF0000" fill="none" stroke-width="4px" />
<path d="M 2070.0 115.0 L 2060.0 115.0" stroke="#FF0000" fill="none" stroke-width="4px" />
<path d="M 2060.0 115.0 L 2050.0 115.0" stroke="#FF0000" fill="none" stroke-width="4px" />
<path d="M 2050.0 115.0 L 2040.0 115.0" stroke="#FF0000" fill="none" stroke-width="4px" />
<path d="M 2040.0 115.0 L 2030.0 115.0" stroke="#FF0000" fill="none" stroke-width="4px" />
<path d="M 2030.0 115.0 L 2030.0 105.0" stroke="#FF0000" fill="none" stroke-width="4px" />
<path d="M 2030.0 105.0 L 2020.0 105.0" stroke="#FF0000" fill="none" stroke-width="4px" />
<path d="M 2020.0 105.0 L 2020.0 95.0" stroke="#FF0000" fill="none" stroke-width="4px" />
<path d="M 2020.0 95.0 L 2010.0 95.0" stroke="#FF0000" fill="none" stroke-width="4px" />
<path d="M 2010.0 95.0 L 2020.0 85.0" stroke="#FF0000" fill="none" stroke-width="4px" />
<path d="M 2020.0 85.0 L 2030.0 85.0" stroke="#FF0000" fill="none" stroke-width="4px" />
<path d="M 2030.0 85.0 L 2040.0 85.0" stroke="#FF0000" fill="none" stroke-width="4px" />
<path d="M 2040.0 85.0 L 2050.0 85.0" stroke="#FF0000" fill="none" stroke-width="4px" />
<path d="M 2050.0 85.0 L 2060.0 85.0" stroke="#FF0000" fill="none" stroke-width="4px" />
<path d="M 2060.0 85.0 L 2060.0 95.0" stroke="#FF0000" fill="none" stroke-width="4px" />
<path d="M 2060.0 95.0 L 2050.0 95.0" stroke="#FF0000" fill="none" stroke-width="4px" />
<path d="M 2050.0 95.0 L 2040.0 95.0" stroke="#FF0000" fill="none" stroke-width="4px" />
<path d="M 2040.0 95.0 L 2030.0 95.0" stroke="#FF0000" fill="none" stroke-width="4px" />
<path d="M 2030.0 95.0 L 2040.0 105.0" stroke="#FF0000" fill="none" stroke-width="4px" />
<path d="M 2040.0 105.0 L 2050.0 105.0" stroke="#FF0000" fill="none" stroke-width="4px" />
<path d="M 2050.0 105.0 L 2060.0 105.0" stroke="#FF0000" fill="none" stroke-width="4px" />
<path d="M 2060.0 105.0 L 2070.0 105.0" stroke="#FF0000" fill="none" stroke-width="4px" />
<path d="M 2070.0 105.0 L 2070.0 95.0" stroke="#FF0000" fill="none" stroke-width="4px" />
<path d="M 2060.0 125.0 L 2050.0 125.0" stroke="#FF0000" fill="none" stroke-width="4px" />
<path d="M 2050.0 125.0 L 2040.0 125.0" stroke="#FF0000" fill="none" stroke-width="4px" />
</svg>