<svg width="1332.95833333" height="235.0" xmlns="http://www.w3.org/2000/svg" version="1.1">
<path d="M 0.0 235.0 L 1332.95833333 235.0 L 1332.95833333 0.0 L 0.0 0.0 L 0.0 235.0" stroke="#000000" fill="none" stroke-width="3px" />
<path d="M 10.0 257.5 L 0.0 247.5 L 10.0 237.5" stroke="#969696" fill="none" stroke-width="1px" />
<path d="M 10.0 237.5 L 1322.95833333 237.5" stroke="#969696" fill="none" stroke-width="1px" />
<path d="M 1322.95833333 237.5 L 1332.95833333 227.5 L 1322.95833333 217.5" stroke="#969696" fill="none" stroke-width="1px" />
<path d="M 1322.95833333 217.5 L 10.0 217.5" stroke="#969696" fill="none" stroke-width="1px" />
<path d="M 10.0 217.5 L 0.0 207.5 L 10.0 197.5" stroke="#969696" fill="none" stroke-width="1px" />
<path d="M 10.0 197.5 L 1322.95833333 197.5" stroke="#969696" fill="none" stroke-width="1px" />
<path d="M 1322.95833333 197.5 L 1332.95833333 187.5 L 1322.95833333 177.5" stroke="#969696" fill="none" stroke-width="1px" />
<path d="M 1322.95833333 177.5 L 10.0 177.5" stroke="#969696" fill="none" stroke-width="1px" />
<path d="M 10.0 177.5 L 0.0 167.5 L 10.0 157.5" stroke="#969696" fill="none" stroke-width="1px" />
<path d="M 10.0 157.5 L 1322.95833333 157.5" stroke="#969696" fill="none" stroke-width="1px" />
<path d="M 1322.95833333 157.5 L 1332.95833333 147.5 L 1322.95833333 137.5" stroke="#969696" fill="none" stroke-width="1px" />
<path d="M 1322.95833333 137.5 L 10.0 137.5" stroke="#969696" fill="none" stroke-width="1px" />
<path d="M 10.0 137.5 L 0.0 127.5 L 10.0 117.5" stroke="#969696" fill="none" stroke-width="1px" />
<path d="M 10.0 117.5 L 1322.95833333 117.5" stroke="#969696" fill="none" stroke-width="1px" />
<path d="M 1322.95833333 117.5 L 1332.95833333 107.5 L 1322.95833333 97.5" stroke="#969696" fill="none" stroke-width="1px" />
<path d="M 1322.95833333 97.5 L 10.0 97.5" stroke="#969696" fill="none" stroke-width="1px" />
<path d="M 10.0 97.5 L 0.0 87.5 L 10.0 77.5" stroke="#969696" fill="none" stroke-width="1px" />
<path d="M 10.0 77.5 L 1322.95833333 77.5" stroke="#969696" fill="none" stroke-width="1px" />
<path d="M 1322.95833333 77.5 L 1332.95833333 67.5 L 1322.95833333 57.5" stroke="#969696" fill="none" stroke-width="1px" />
<path d="M 1322.95833333 57.5 L 10.0 57.5" stroke="#969696" fill="none" stroke-width="1px" />
<path d="M 10.0 57.5 L 0.0 47.5 L 10.0 37.5" stroke="#969696" fill="none" stroke-width="1px" />
<path d="M 10.0 37.5 L 1322.95833333 37.5" stroke="#969696" fill="none" stroke-width="1px" />
<path d="M 1322.95833333 37.5 L 1332.95833333 27.5 L 1322.95833333 17.5" stroke="#969696" fill="none" stroke-width="1px" />
<path d="M 1322.95833333 17.5 L 10.0 17.5" stroke="#969696" fill="none" stroke-width="1px" />
<path d="M 10.0 17.5 L 0.0 7.5 L 10.0 -2.5" stroke="#969696" fill="none" stroke-width="1px" />
<path d="M 10.0 -2.5 L 1322.95833333 -2.5" stroke="#969696" fill="none" stroke-width="1px" />
<path d="M 1322.95833333 -2.5 L 1332.95833333 -12.5 L 1322.95833333 -22.5" stroke="#969696" fill="none" stroke-width="1px" />
<path d="M 24.7666666653 215.0 L 24.7666666653 195.0" stroke="#0095FF" fill="none" stroke-width="2px" />
<path d="M 14.7666666653 165.0 L 144.766666665 165.0" stroke="#0095FF" fill="none" stroke-width="2px" />
<path d="M 144.766666665 165.0 L 144.766666665 85.0" stroke="#0095FF" fill="none" stroke-width="2px" />
<path d="M 144.766666665 65.0 L 144.766666665 45.0" stroke="#0095FF" fill="none" stroke-width="2px" />
<path d="M 164.766666665 45.0 L 184.766666665 45.0" stroke="#0095FF" fill="none" stroke-width="2px" />
<path d="M 184.766666665 45.0 L 184.766666665 65.0" stroke="#0095FF" fill="none" stroke-width="2px" />
<path d="M 174.766666665 75.0 L 294.766666665 75.0" stroke="#0095FF" fill="none" stroke-width="2px" />
<path d="M 294.766666665 75.0 L 294.766666665 165.0" stroke="#0095FF" fill="none" stroke-width="2px" />
<path d="M 314.766666665 175.0 L 304.766666665 175.0" stroke="#0095FF" fill="none" stroke-width="2px" />
<path d="M 304.766666665 175.0 L 304.766666665 195.0" stroke="#0095FF" fill="none" stroke-width="2px" />
<path d="M 304.766666665 195.0 L 284.766666665 195.0" stroke="#0095FF" fill="none" stroke-width="2px" />
<path d="M 284.766666665 195.0 L 284.766666665 215.0" stroke="#0095FF" fill="none" stroke-width="2px" />
<path d="M 274.766666665 215.0 L 484.766666665 215.0" stroke="#0095FF" fill="none" stroke-width="2px" />
<path d="M 484.766666665 215.0 L 484.766666665 115.0" stroke="#0095FF" fill="none" stroke-width="2px" />
<path d="M 494.766666665 95.0 L 494.766666665 75.0" stroke="#0095FF" fill="none" stroke-width="2px" />
<path d="M 524.766666665 75.0 L 524.766666665 125.0" stroke="#0095FF" fill="none" stroke-width="2px" />
<path d="M 514.766666665 135.0 L 634.766666665 135.0" stroke="#0095FF" fill="none" stroke-width="2px" />
<path d="M 694.766666665 75.0 L 694.766666665 125.0" stroke="#0095FF" fill="none" stroke-width="2px" />
<path d="M 694.766666665 125.0 L 674.766666665 125.0" stroke="#0095FF" fill="none" stroke-width="2px" />
<path d="M 674.766666665 125.0 L 674.766666665 145.0" stroke="#0095FF" fill="none" stroke-width="2px" />
<path d="M 664.766666665 155.0 L 974.766666665 155.0" stroke="#0095FF" fill="none" stroke-width="2px" />
<path d="M 1014.76666667 95.0 L 1014.76666667 75.0" stroke="#0095FF" fill="none" stroke-width="2px" />
<path d="M 1024.76666667 75.0 L 1054.76666667 75.0" stroke="#0095FF" fill="none" stroke-width="2px" />
<path d="M 1064.76666667 105.0 L 1084.76666667 105.0" stroke="#0095FF" fill="none" stroke-width="2px" />
<path d="M 1084.76666667 105.0 L 1084.76666667 95.0" stroke="#0095FF" fill="none" stroke-width="2px" />
<path d="M 1094.76666667 105.0 L 1094.76666667 65.0" stroke="#0095FF" fill="none" stroke-width="2px" />
<path d="M 1104.76666667 65.0 L 1104.76666667 45.0" stroke="#0095FF" fill="none" stroke-width="2px" />
<path d="M 1114.76666667 45.0 L 1134.76666667 45.0" stroke="#0095FF" fill="none" stroke-width="2px" />
<path d="M 1134.76666667 45.0 L 1134.76666667 65.0" stroke="#0095FF" fill="none" stroke-width="2px" />
<path d="M 1134.76666667 65.0 L 1034.76666667 65.0" stroke="#0095FF" fill="none" stroke-width="2px" />
<path d="M 1034.76666667 65.0 L 1034.76666667 145.0" stroke="#0095FF" fill="none" stroke-width="2px" />
<path d="M 1034.76666667 145.0 L 1014.76666667 145.0" stroke="#0095FF" fill="none" stroke-width="2px" />
<path d="M 1014.76666667 145.0 L 1014.76666667 165.0" stroke="#0095FF" fill="none" stroke-width="2px" />
<path d="M 0.0 235.0 L 4.76666666531 225.0" stroke="#FF0000" fill="none" stroke-width="4px" />
<path d="M 4.76666666531 225.0 L 14.7666666653 225.0" stroke="#FF0000" fill="none" stroke-width="4px" />
<path d="M 14.7666666653 225.0 L 14.7666666653 215.0" stroke="#FF0000" fill="none" stroke-width="4px" />
<path d="M 14.7666666653 215.0 L 4.76666666531 215.0" stroke="#FF0000" fill="none" stroke-width="4px" />
<path d="M 4.76666666531 215.0 L 4.76666666531 205.0" stroke="#FF0000" fill="none" stroke-width="4px" />
<path d="M 4.76666666531 205.0 L 14.7666666653 205.0" stroke="#FF0000" fill="none" stroke-width="4px" />
<path d="M 14.7666666653 205.0 L 24.7666666653 205.0" stroke="#FF0000" fill="none" stroke-width="4px" />
<path d="M 24.7666666653 205.0 L 24.7666666653 215.0" stroke="#FF0000" fill="none" stroke-width="4px" />
<path d="M 24.7666666653 195.0 L 14.7666666653 195.0" stroke="#FF0000" fill="none" stroke-width="4px" />
<path d="M 14.7666666653 195.0 L 4.76666666531 195.0" stroke="#FF0000" fill="none" stroke-width="4px" />
<path d="M 4.76666666531 195.0 L 4.76666666531 185.0" stroke="#FF0000" fill="none" stroke-width="4px" />
<path d="M 4.76666666531 185.0 L 14.7666666653 185.0" stroke="#FF0000" fill="none" stroke-width="4px" />
<path d="M 14.7666666653 185.0 L 24.7666666653 185.0" stroke="#FF0000" fill="none" stroke-width="4px" />
<path d="M 24.7666666653 185.0 L 24.7666666653 175.0" stroke="#FF0000" fill="none" stroke-width="4px" />
<path d="M 24.7666666653 175.0 L 14.7666666653 175.0" stroke="#FF0000" fill="none" stroke-width="4px" />
<path d="M 14.7666666653 175.0 L 4.76666666531 175.0" stroke="#FF0000" fill="none" stroke-width="4px" />
<path d="M 4.76666666531 175.0 L 4.76666666531 165.0" stroke="#FF0000" fill="none" stroke-width="4px" />
<path d="M 4.76666666531 165.0 L 14.7666666653 165.0" stroke="#FF0000" fill="none" stroke-width="4px" />
<path d="M 144.766666665 85.0 L 154.766666665 85.0" stroke="#FF0000" fill="none" stroke-width="4px" />
<path d="M 154.766666665 85.0 L 164.766666665 85.0" stroke="#FF0000" fill="none" stroke-width="4px" />
<path d="M 164.766666665 85.0 L 164.766666665 75.0" stroke="#FF0000" fill="none" stroke-width="4px" />
<path d="M 164.766666665 75.0 L 154.766666665 75.0" stroke="#FF0000" fill="none" stroke-width="4px" />
<path d="M 154.766666665 75.0 L 144.766666665 75.0" stroke="#FF0000" fill="none" stroke-width="4px" />
<path d="M 144.766666665 75.0 L 134.766666665 75.0" stroke="#FF0000" fill="none" stroke-width="4px" />
<path d="M 134.766666665 75.0 L 134.766666665 65.0" stroke="#FF0000" fill="none" stroke-width="4px" />
<path d="M 134.766666665 65.0 L 124.766666665 65.0" stroke="#FF0000" fill="none" stroke-width="4px" />
<path d="M 124.766666665 65.0 L 124.766666665 55.0" stroke="#FF0000" fill="none" stroke-width="4px" />
<path d="M 124.766666665 55.0 L 134.766666665 55.0" stroke="#FF0000" fill="none" stroke-width="4px" />
<path d="M 134.766666665 55.0 L 144.766666665 55.0" stroke="#FF0000" fill="none" stroke-width="4px" />
<path d="M 144.766666665 55.0 L 154.766666665 55.0" stroke="#FF0000" fill="none" stroke-width="4px" />
<path d="M 154.766666665 55.0 L 164.766666665 55.0" stroke="#FF0000" fill="none" stroke-width="4px" />
<path d="M 164.766666665 55.0 L 174.766666665 55.0" stroke="#FF0000" fill="none" stroke-width="4px" />
<path d="M 174.766666665 55.0 L 174.766666665 65.0" stroke="#FF0000" fill="none" stroke-width="4px" />
<path d="M 174.766666665 65.0 L 164.766666665 65.0" stroke="#FF0000" fill="none" stroke-width="4px" />
<path d="M 164.766666665 65.0 L 154.766666665 65.0" stroke="#FF0000" fill="none" stroke-width="4px" />
<path d="M 154.766666665 65.0 L 144.766666665 65.0" stroke="#FF0000" fill="none" stroke-width="4px" />
<path d="M 144.766666665 45.0 L 134.766666665 45.0" stroke="#FF0000" fill="none" stroke-width="4px" />
<path d="M 134.766666665 45.0 L 144.766666665 35.0" stroke="#FF0000" fill="none" stroke-width="4px" />
<path d="M 144.766666665 35.0 L 154.766666665 35.0" stroke="#FF0000" fill="none" stroke-width="4px" />
<path d="M 154.766666665 35.0 L 154.766666665 45.0" stroke="#FF0000" fill="none" stroke-width="4px" />
<path d="M 154.766666665 45.0 L 164.766666665 45.0" stroke="#FF0000" fill="none" stroke-width="4px" />
<path d="M 184.766666665 65.0 L 174.766666665 75.0" stroke="#FF0000" fill="none" stroke-width="4px" />
<path d="M 294.766666665 165.0 L 304.766666665 165.0" stroke="#FF0000" fill="none" stroke-width="4px" />
<path d="M 304.766666665 165.0 L 304.766666665 175.0" stroke="#FF0000" fill="none" stroke-width="4px" />
<path d="M 304.766666665 175.0 L 294.766666665 175.0" stroke="#FF0000" fill="none" stroke-width="4px" />
<path d="M 294.766666665 175.0 L 284.766666665 175.0" stroke="#FF0000" fill="none" stroke-width="4px" />
<path d="M 284.766666665 175.0 L 284.766666665 185.0" stroke="#FF0000" fill="none" stroke-width="4px" />
<path d="M 284.766666665 185.0 L 274.766666665 185.0" stroke="#FF0000" fill="none" stroke-width="4px" />
<path d="M 274.766666665 185.0 L 274.766666665 195.0" stroke="#FF0000" fill="none" stroke-width="4px" />
<path d="M 274.766666665 195.0 L 264.766666665 195.0" stroke="#FF0000" fill="none" stroke-width="4px" />
<path d="M 264.766666665 195.0 L 254.766666665 195.0" stroke="#FF0000" fill="none" stroke-width="4px" />
<path d="M 254.766666665 195.0 L 264.766666665 205.0" stroke="#FF0000" fill="none" stroke-width="4px" />
<path d="M 264.766666665 205.0 L 274.766666665 205.0" stroke="#FF0000" fill="none" stroke-width="4px" />
<path d="M 274.766666665 205.0 L 284.766666665 205.0" stroke="#FF0000" fill="none" stroke-width="4px" />
<path d="M 284.766666665 205.0 L 294.766666665 205.0" stroke="#FF0000" fill="none" stroke-width="4px" />
<path d="M 294.766666665 205.0 L 294.766666665 195.0" stroke="#FF0000" fill="none" stroke-width="4px" />
<path d="M 294.766666665 195.0 L 284.766666665 195.0" stroke="#FF0000" fill="none" stroke-width="4px" />
<path d="M 284.766666665 195.0 L 294.766666665 185.0" stroke="#FF0000" fill="none" stroke-width="4px" />
<path d="M 294.766666665 185.0 L 304.766666665 185.0" stroke="#FF0000" fill="none" stroke-width="4px" />
<path d="M 304.766666665 185.0 L 314.766666665 185.0" stroke="#FF0000" fill="none" stroke-width="4px" />
<path d="M 314.766666665 185.0 L 314.766666665 175.0" stroke="#FF0000" fill="none" stroke-width="4px" />
<path d="M 284.766666665 215.0 L 274.766666665 215.0" stroke="#FF0000" fill="none" stroke-width="4px" />
<path d="M 484.766666665 115.0 L 494.766666665 115.0" stroke="#FF0000" fill="none" stroke-width="4px" />
<path d="M 494.766666665 115.0 L 504.766666665 115.0" stroke="#FF0000" fill="none" stroke-width="4px" />
<path d="M 504.766666665 115.0 L 514.766666665 115.0" stroke="#FF0000" fill="none" stroke-width="4px" />
<path d="M 514.766666665 115.0 L 524.766666665 115.0" stroke="#FF0000" fill="none" stroke-width="4px" />
<path d="M 524.766666665 115.0 L 534.766666665 115.0" stroke="#FF0000" fill="none" stroke-width="4px" />
<path d="M 534.766666665 115.0 L 534.766666665 105.0" stroke="#FF0000" fill="none" stroke-width="4px" />
<path d="M 534.766666665 105.0 L 524.766666665 105.0" stroke="#FF0000" fill="none" stroke-width="4px" />
<path d="M 524.766666665 105.0 L 514.766666665 105.0" stroke="#FF0000" fill="none" stroke-width="4px" />
<path d="M 514.766666665 105.0 L 504.766666665 105.0" stroke="#FF0000" fill="none" stroke-width="4px" />
<path d="M 504.766666665 105.0 L 494.766666665 105.0" stroke="#FF0000" fill="none" stroke-width="4px" />
<path d="M 494.766666665 105.0 L 484.766666665 105.0" stroke="#FF0000" fill="none" stroke-width="4px" />
<path d="M 484.766666665 105.0 L 484.766666665 95.0" stroke="#FF0000" fill="none" stroke-width="4px" />
<path d="M 484.766666665 95.0 L 474.766666665 95.0" stroke="#FF0000" fill="none" stroke-width="4px" />
<path d="M 474.766666665 95.0 L 474.766666665 85.0" stroke="#FF0000" fill="none" stroke-width="4px" />
<path d="M 474.766666665 85.0 L 484.766666665 85.0" stroke="#FF0000" fill="none" stroke-width="4px" />
<path d="M 484.766666665 85.0 L 494.766666665 85.0" stroke="#FF0000" fill="none" stroke-width="4px" />
<path d="M 494.766666665 85.0 L 504.766666665 85.0" stroke="#FF0000" fill="none" stroke-width="4px" />
<path d="M 504.766666665 85.0 L 514.766666665 85.0" stroke="#FF0000" fill="none" stroke-width="4px" />
<path d="M 514.766666665 85.0 L 524.766666665 85.0" stroke="#FF0000" fill="none" stroke-width="4px" />
<path d="M 524.766666665 85.0 L 534.766666665 85.0" stroke="#FF0000" fill="none" stroke-width="4px" />
<path d="M 534.766666665 85.0 L 534.766666665 95.0" stroke="#FF0000" fill="none" stroke-width="4px" />
<path d="M 534.766666665 95.0 L 524.766666665 95.0" stroke="#FF0000" fill="none" stroke-width="4px" />
<path d="M 524.766666665 95.0 L 514.766666665 95.0" stroke="#FF0000" fill="none" stroke-width="4px" />
<path d="M 514.766666665 95.0 L 504.766666665 95.0" stroke="#FF0000" fill="none" stroke-width="4px" />
<path d="M 504.766666665 95.0 L 494.766666665 95.0" stroke="#FF0000" fill="none" stroke-width="4px" />
<path d="M 494.766666665 75.0 L 484.766666665 75.0" stroke="#FF0000" fill="none" stroke-width="4px" />
<path d="M 484.766666665 75.0 L 474.766666665 75.0" stroke="#FF0000" fill="none" stroke-width="4px" />
<path d="M 474.766666665 75.0 L 484.766666665 65.0" stroke="#FF0000" fill="none" stroke-width="4px" />
<path d="M 484.766666665 65.0 L 494.766666665 65.0" stroke="#FF0000" fill="none" stroke-width="4px" />
<path d="M 494.766666665 65.0 L 504.766666665 65.0" stroke="#FF0000" fill="none" stroke-width="4px" />
<path d="M 504.766666665 65.0 L 514.766666665 65.0" stroke="#FF0000" fill="none" stroke-width="4px" />
<path d="M 514.766666665 65.0 L 514.766666665 75.0" stroke="#FF0000" fill="none" stroke-width="4px" />
<path d="M 514.766666665 75.0 L 504.766666665 75.0" stroke="#FF0000" fill="none" stroke-width="4px" />
<path d="M 504.766666665 75.0 L 524.766666665 75.0" stroke="#FF0000" fill="none" stroke-width="4px" />
<path d="M 524.766666665 125.0 L 514.766666665 125.0" stroke="#FF0000" fill="none" stroke-width="4px" />
<path d="M 514.766666665 125.0 L 504.766666665 125.0" stroke="#FF0000" fill="none" stroke-width="4px" />
<path d="M 504.766666665 125.0 L 494.766666665 125.0" stroke="#FF0000" fill="none" stroke-width="4px" />
<path d="M 494.766666665 125.0 L 504.766666665 135.0" stroke="#FF0000" fill="none" stroke-width="4px" />
<path d="M 504.766666665 135.0 L 514.766666665 135.0" stroke="#FF0000" fill="none" stroke-width="4px" />
<path d="M 634.766666665 135.0 L 644.766666665 135.0" stroke="#FF0000" fill="none" stroke-width="4px" />
<path d="M 644.766666665 135.0 L 654.766666665 135.0" stroke="#FF0000" fill="none" stroke-width="4px" />
<path d="M 654.766666665 135.0 L 664.766666665 135.0" stroke="#FF0000" fill="none" stroke-width="4px" />
<path d="M 664.766666665 135.0 L 674.766666665 135.0" stroke="#FF0000" fill="none" stroke-width="4px" />
<path d="M 674.766666665 135.0 L 684.766666665 135.0" stroke="#FF0000" fill="none" stroke-width="4px" />
<path d="M 684.766666665 135.0 L 684.766666665 125.0" stroke="#FF0000" fill="none" stroke-width="4px" />
<path d="M 684.766666665 125.0 L 674.766666665 125.0" stroke="#FF0000" fill="none" stroke-width="4px" />
<path d="M 674.766666665 125.0 L 664.766666665 125.0" stroke="#FF0000" fill="none" stroke-width="4px" />
<path d="M 664.766666665 125.0 L 654.766666665 125.0" stroke="#FF0000" fill="none" stroke-width="4px" />
<path d="M 654.766666665 125.0 L 644.766666665 125.0" stroke="#FF0000" fill="none" stroke-width="4px" />
<path d="M 644.766666665 125.0 L 634.766666665 125.0" stroke="#FF0000" fill="none" stroke-width="4px" />
<path d="M 634.766666665 125.0 L 644.766666665 115.0" stroke="#FF0000" fill="none" stroke-width="4px" />
<path d="M 644.766666665 115.0 L 654.766666665 115.0" stroke="#FF0000" fill="none" stroke-width="4px" />
<path d="M 654.766666665 115.0 L 664.766666665 115.0" stroke="#FF0000" fill="none" stroke-width="4px" />
<path d="M 664.766666665 115.0 L 674.766666665 115.0" stroke="#FF0000" fill="none" stroke-width="4px" />
<path d="M 674.766666665 115.0 L 684.766666665 115.0" stroke="#FF0000" fill="none" stroke-width="4px" />
<path d="M 684.766666665 115.0 L 694.766666665 115.0" stroke="#FF0000" fill="none" stroke-width="4px" />
<path d="M 694.766666665 115.0 L 704.766666665 115.0" stroke="#FF0000" fill="none" stroke-width="4px" />
<path d="M 704.766666665 115.0 L 704.766666665 105.0" stroke="#FF0000" fill="none" stroke-width="4px" />
<path d="M 704.766666665 105.0 L 694.766666665 105.0" stroke="#FF0000" fill="none" stroke-width="4px" />
<path d="M 694.766666665 105.0 L 684.766666665 105.0" stroke="#FF0000" fill="none" stroke-width="4px" />
<path d="M 684.766666665 105.0 L 674.766666665 105.0" stroke="#FF0000" fill="none" stroke-width="4px" />
<path d="M 674.766666665 105.0 L 664.766666665 105.0" stroke="#FF0000" fill="none" stroke-width="4px" />
<path d="M 664.766666665 105.0 L 654.766666665 105.0" stroke="#FF0000" fill="none" stroke-width="4px" />
<path d="M 654.766666665 105.0 L 644.766666665 105.0" stroke="#FF0000" fill="none" stroke-width="4px" />
<path d="M 644.766666665 105.0 L 654.766666665 95.0" stroke="#FF0000" fill="none" stroke-width="4px" />
<path d="M 654.766666665 95.0 L 664.766666665 95.0" stroke="#FF0000" fill="none" stroke-width="4px" />
<path d="M 664.766666665 95.0 L 674.766666665 95.0" stroke="#FF0000" fill="none" stroke-width="4px" />
<path d="M 674.766666665 95.0 L 684.766666665 95.0" stroke="#FF0000" fill="none" stroke-width="4px" />
<path d="M 684.766666665 95.0 L 694.766666665 95.0" stroke="#FF0000" fill="none" stroke-width="4px" />
<path d="M 694.766666665 95.0 L 704.766666665 95.0" stroke="#FF0000" fill="none" stroke-width="4px" />
<path d="M 704.766666665 95.0 L 704.766666665 85.0" stroke="#FF0000" fill="none" stroke-width="4px" />
<path d="M 704.766666665 85.0 L 694.766666665 85.0" stroke="#FF0000" fill="none" stroke-width="4px" />
<path d="M 694.766666665 85.0 L 684.766666665 85.0" stroke="#FF0000" fill="none" stroke-width="4px" />
<path d="M 684.766666665 85.0 L 674.766666665 85.0" stroke="#FF0000" fill="none" stroke-width="4px" />
<path d="M 674.766666665 85.0 L 664.766666665 85.0" stroke="#FF0000" fill="none" stroke-width="4px" />
<path d="M 664.766666665 85.0 L 674.766666665 75.0" stroke="#FF0000" fill="none" stroke-width="4px" />
<path d="M 674.766666665 75.0 L 684.766666665 75.0" stroke="#FF0000" fill="none" stroke-width="4px" />
<path d="M 684.766666665 75.0 L 694.766666665 75.0" stroke="#FF0000" fill="none" stroke-width="4px" />
<path d="M 674.766666665 145.0 L 664.766666665 145.0" stroke="#FF0000" fill="none" stroke-width="4px" />
<path d="M 664.766666665 145.0 L 654.766666665 145.0" stroke="#FF0000" fill="none" stroke-width="4px" />
<path d="M 654.766666665 145.0 L 644.766666665 145.0" stroke="#FF0000" fill="none" stroke-width="4px" />
<path d="M 644.766666665 145.0 L 654.766666665 155.0" stroke="#FF0000" fill="none" stroke-width="4px" />
<path d="M 654.766666665 155.0 L 664.766666665 155.0" stroke="#FF0000" fill="none" stroke-width="4px" />
<path d="M 974.766666665 155.0 L 984.766666665 155.0" stroke="#FF0000" fill="none" stroke-width="4px" />
<path d="M 984.766666665 155.0 L 994.766666665 155.0" stroke="#FF0000" fill="none" stroke-width="4px" />
<path d="M 994.766666665 155.0 L 1004.76666667 155.0" stroke="#FF0000" fill="none" stroke-width="4px" />
<path d="M 1004.76666667 155.0 L 1014.76666667 155.0" stroke="#FF0000" fill="none" stroke-width="4px" />
<path d="M 1014.76666667 155.0 L 1024.76666667 155.0" stroke="#FF0000" fill="none" stroke-width="4px" />
<path d="M 1024.76666667 155.0 L 1024.76666667 145.0" stroke="#FF0000" fill="none" stroke-width="4px" />
<path d="M 1024.76666667 145.0 L 1014.76666667 145.0" stroke="#FF0000" fill="none" stroke-width="4px" />
<path d="M 1014.76666667 145.0 L 1004.76666667 145.0" stroke="#FF0000" fill="none" stroke-width="4px" />
<path d="M 1004.76666667 145.0 L 994.766666665 145.0" stroke="#FF0000" fill="none" stroke-width="4px" />
<path d="M 994.766666665 145.0 L 984.766666665 145.0" stroke="#FF0000" fill="none" stroke-width="4px" />
<path d="M 984.766666665 145.0 L 994.766666665 135.0" stroke="#FF0000" fill="none" stroke-width="4px" />
<path d="M 994.766666665 135.0 L 1004.76666667 135.0" stroke="#FF0000" fill="none" stroke-width="4px" />
<path d="M 1004.76666667 135.0 L 1014.76666667 135.0" stroke="#FF0000" fill="none" stroke-width="4px" />
<path d="M 1014.76666667 135.0 L 1024.76666667 135.0" stroke="#FF0000" fill="none" stroke-width="4px" />
<path d="M 1024.76666667 135.0 L 1034.76666667 135.0" stroke="#FF0000" fill="none" stroke-width="4px" />
<path d="M 1034.76666667 135.0 L 1044.76666667 135.0" stroke="#FF0000" fill="none" stroke-width="4px" />
<path d="M 1044.76666667 135.0 L 1044.76666667 125.0" stroke="#FF0000" fill="none" stroke-width="4px" />
<path d="M 1044.76666667 125.0 L 1034.76666667 125.0" stroke="#FF0000" fill="none" stroke-width="4px" />
<path d="M 1034.76666667 125.0 L 1024.76666667 125.0" stroke="#FF0000" fill="none" stroke-width="4px" />
<path d="M 1024.76666667 125.0 L 1014.76666667 125.0" stroke="#FF0000" fill="none" stroke-width="4px" />
<path d="M 1014.76666667 125.0 L 1004.76666667 125.0" stroke="#FF0000" fill="none" stroke-width="4px" />
<path d="M 1004.76666667 125.0 L 994.766666665 125.0" stroke="#FF0000" fill="none" stroke-width="4px" />
<path d="M 994.766666665 125.0 L 994.766666665 115.0" stroke="#FF0000" fill="none" stroke-width="4px" />
<path d="M 994.766666665 115.0 L 1004.76666667 115.0" stroke="#FF0000" fill="none" stroke-width="4px" />
<path d="M 1004.76666667 115.0 L 1014.76666667 115.0" stroke="#FF0000" fill="none" stroke-width="4px" />
<path d="M 1014.76666667 115.0 L 1024.76666667 115.0" stroke="#FF0000" fill="none" stroke-width="4px" />
<path d="M 1024.76666667 115.0 L 1034.76666667 115.0" stroke="#FF0000" fill="none" stroke-width="4px" />
<path d="M 1034.76666667 115.0 L 1044.76666667 115.0" stroke="#FF0000" fill="none" stroke-width="4px" />
<path d="M 1044.76666667 115.0 L 1054.76666667 115.0" stroke="#FF0000" fill="none" stroke-width="4px" />
<path d="M 1054.76666667 115.0 L 1054.76666667 105.0" stroke="#FF0000" fill="none" stroke-width="4px" />
<path d="M 1054.76666667 105.0 L 1044.76666667 105.0" stroke="#FF0000" fill="none" stroke-width="4px" />
<path d="M 1044.76666667 105.0 L 1034.76666667 105.0" stroke="#FF0000" fill="none" stroke-width="4px" />
<path d="M 1034.76666667 105.0 L 1024.76666667 105.0" stroke="#FF0000" fill="none" stroke-width="4px" />
<path d="M 1024.76666667 105.0 L 1014.76666667 105.0" stroke="#FF0000" fill="none" stroke-width="4px" />
<path d="M 1014.76666667 105.0 L 1004.76666667 105.0" stroke="#FF0000" fill="none" stroke-width="4px" />
<path d="M 1004.76666667 105.0 L 1004.76666667 95.0" stroke="#FF0000" fill="none" stroke-width="4px" />
<path d="M 1004.76666667 95.0 L 994.766666665 95.0" stroke="#FF0000" fill="none" stroke-width="4px" />
<path d="M 994.766666665 95.0 L 994.766666665 85.0" stroke="#FF0000" fill="none" stroke-width="4px" />
<path d="M 994.766666665 85.0 L 1004.76666667 85.0" stroke="#FF0000" fill="none" stroke-width="4px" />
<path d="M 1004.76666667 85.0 L 1014.76666667 85.0" stroke="#FF0000" fill="none" stroke-width="4px" />
<path d="M 1014.76666667 85.0 L 1024.76666667 85.0" stroke="#FF0000" fill="none" stroke-width="4px" />
<path d="M 1024.76666667 85.0 L 1034.76666667 85.0" stroke="#FF0000" fill="none" stroke-width="4px" />
<path d="M 1034.76666667 85.0 L 1044.76666667 85.0" stroke="#FF0000" fill="none" stroke-width="4px" />
<path d="M 1044.76666667 85.0 L 1054.76666667 85.0" stroke="#FF0000" fill="none" stroke-width="4px" />
<path d="M 1054.76666667 85.0 L 1054.76666667 95.0" stroke="#FF0000" fill="none" stroke-width="4px" />
<path d="M 1054.76666667 95.0 L 1044.76666667 95.0" stroke="#FF0000" fill="none" stroke-width="4px" />
<path d="M 1044.76666667 95.0 L 1034.76666667 95.0" stroke="#FF0000" fill="none" stroke-width="4px" />
<path d="M 1034.76666667 95.0 L 1024.76666667 95.0" stroke="#FF0000" fill="none" stroke-width="4px" />
<path d="M 1024.76666667 95.0 L 1014.76666667 95.0" stroke="#FF0000" fill="none" stroke-width="4px" />
<path d="M 1014.76666667 75.0 L 1004.76666667 75.0" stroke="#FF0000" fill="none" stroke-width="4px" />
<path d="M 1004.76666667 75.0 L 994.766666665 75.0" stroke="#FF0000" fill="none" stroke-width="4px" />
<path d="M 994.766666665 75.0 L 1004.76666667 65.0" stroke="#FF0000" fill="none" stroke-width="4px" />
<path d="M 1004.76666667 65.0 L 1014.76666667 65.0" stroke="#FF0000" fill="none" stroke-width="4px" />
<path d="M 1014.76666667 65.0 L 1024.76666667 65.0" stroke="#FF0000" fill="none" stroke-width="4px" />
<path d="M 1024.76666667 65.0 L 1034.76666667 65.0" stroke="#FF0000" fill="none" stroke-width="4px" />
<path d="M 1034.76666667 65.0 L 1044.76666667 65.0" stroke="#FF0000" fill="none" stroke-width="4px" />
<path d="M 1044.76666667 65.0 L 1044.76666667 75.0" stroke="#FF0000" fill="none" stroke-width="4px" />
<path d="M 1044.76666667 75.0 L 1034.76666667 75.0" stroke="#FF0000" fill="none" stroke-width="4px" />
<path d="M 1034.76666667 75.0 L 1024.76666667 75.0" stroke="#FF0000" fill="none" stroke-width="4px" />
<path d="M 1054.76666667 75.0 L 1074.76666667 75.0" stroke="#FF0000" fill="none" stroke-width="4px" />
<path d="M 1074.76666667 75.0 L 1084.76666667 75.0" stroke="#FF0000" fill="none" stroke-width="4px" />
<path d="M 1084.76666667 75.0 L 1094.76666667 75.0" stroke="#FF0000" fill="none" stroke-width="4px" />
<path d="M 1094.76666667 75.0 L 1104.76666667 75.0" stroke="#FF0000" fill="none" stroke-width="4px" />
<path d="M 1104.76666667 75.0 L 1114.76666667 75.0" stroke="#FF0000" fill="none" stroke-width="4px" />
<path d="M 1114.76666667 75.0 L 1124.76666667 75.0" stroke="#FF0000" fill="none" stroke-width="4px" />
<path d="M 1124.76666667 75.0 L 1134.76666667 75.0" stroke="#FF0000" fill="none" stroke-width="4px" />
<path d="M 1134.76666667 75.0 L 1134.76666667 85.0" stroke="#FF0000" fill="none" stroke-width="4px" />
<path d="M 1134.76666667 85.0 L 1124.76666667 85.0" stroke="#FF0000" fill="none" stroke-width="4px" />
<path d="M 1124.76666667 85.0 L 1114.76666667 85.0" stroke="#FF0000" fill="none" stroke-width="4px" />
<path d="M 1114.76666667 85.0 L 1104.76666667 85.0" stroke="#FF0000" fill="none" stroke-width="4px" />
<path d="M 1104.76666667 85.0 L 1094.76666667 85.0" stroke="#FF0000" fill="none" stroke-width="4px" />
<path d="M 1094.76666667 85.0 L 1084.76666667 85.0" stroke="#FF0000" fill="none" stroke-width="4px" />
<path d="M 1084.76666667 85.0 L 1074.76666667 85.0" stroke="#FF0000" fill="none" stroke-width="4px" />
<path d="M 1074.76666667 85.0 L 1064.76666667 95.0" stroke="#FF0000" fill="none" stroke-width="4px" />
<path d="M 1064.76666667 95.0 L 1064.76666667 105.0" stroke="#FF0000" fill="none" stroke-width="4px" />
<path d="M 1084.76666667 95.0 L 1094.76666667 95.0" stroke="#FF0000" fill="none" stroke-width="4px" />
<path d="M 1094.76666667 95.0 L 1104.76666667 95.0" stroke="#FF0000" fill="none" stroke-width="4px" />
<path d="M 1104.76666667 95.0 L 1114.76666667 95.0" stroke="#FF0000" fill="none" stroke-width="4px" />
<path d="M 1114.76666667 95.0 L 1124.76666667 95.0" stroke="#FF0000" fill="none" stroke-width="4px" />
<path d="M 1124.76666667 95.0 L 1114.76666667 105.0" stroke="#FF0000" fill="none" stroke-width="4px" />
<path d="M 1114.76666667 105.0 L 1104.76666667 105.0" stroke="#FF0000" fill="none" stroke-width="4px" />
<path d="M 1104.76666667 105.0 L 1094.76666667 105.0" stroke="#FF0000" fill="none" stroke-width="4px" />
<path d="M 1094.76666667 65.0 L 1084.76666667 65.0" stroke="#FF0000" fill="none" stroke-width="4px" />
<path d="M 1084.76666667 65.0 L 1074.76666667 65.0" stroke="#FF0000" fill="none" stroke-width="4px" />
<path d="M 1074.76666667 65.0 L 1084.76666667 55.0" stroke="#FF0000" fill="none" stroke-width="4px" />
<path d="M 1084.76666667 55.0 L 1094.76666667 55.0" stroke="#FF0000" fill="none" stroke-width="4px" />
<path d="M 1094.76666667 55.0 L 1104.76666667 55.0" stroke="#FF0000" fill="none" stroke-width="4px" />
<path d="M 1104.76666667 55.0 L 1114.76666667 55.0" stroke="#FF0000" fill="none" stroke-width="4px" />
<path d="M 1114.76666667 55.0 L 1124.76666667 55.0" stroke="#FF0000" fill="none" stroke-width="4px" />
<path d="M 1124.76666667 55.0 L 1124.76666667 65.0" stroke="#FF0000" fill="none" stroke-width="4px" />
<path d="M 1124.76666667 65.0 L 1114.76666667 65.0" stroke="#FF0000" fill="none" stroke-width="4px" />
<path d="M 1114.76666667 65.0 L 1104.76666667 65.0" stroke="#FF0000" fill="none" stroke-width="4px" />
<path d="M 1104.76666667 45.0 L 1094.76666667 45.0" stroke="#FF0000" fill="none" stroke-width="4px" />
<path d="M 1094.76666667 45.0 L 1114.76666667 45.0" stroke="#FF0000" fill="none" stroke-width="4px" />
<path d="M 1014.76666667 165.0 L 1004.76666667 165.0" stroke="#FF0000" fill="none" stroke-width="4px" />
<path d="M 1004.76666667 165.0 L 994.766666665 165.0" stroke="#FF0000" fill="none" stroke-width="4px" />
<path d="M 994.766666665 165.0 L 984.766666665 165.0" stroke="#FF0000" fill="none" stroke-width="4px" />
<path d="M 984.766666665 165.0 L 974.766666665 165.0" stroke="#FF0000" fill="none" stroke-width="4px" />
<path d="M 974.766666665 165.0 L 984.766666665 175.0" stroke="#FF0000" fill="none" stroke-width="4px" />
<path d="M 984.766666665 175.0 L 994.766666665 175.0" stroke="#FF0000" fill="none" stroke-width="4px" />
<path d="M 994.766666665 175.0 L 1004.76666667 175.0" stroke="#FF0000" fill="none" stroke-width="4px" />
</svg>