<svg width="2523.06666667" height="235.0" xmlns="http://www.w3.org/2000/svg" version="1.1">
<path d="M 0.0 235.0 L 1985.0 235.0 L 1985.0 0.0 L 0.0 0.0 L 0.0 235.0" stroke="#000000" fill="none" stroke-width="3px" />
<path d="M 2523.06666667 235.0 L 1885.0 235.0 L 1885.0 0.0 L 2523.06666667 0.0 L 2523.06666667 235.0" stroke="#000000" fill="none" stroke-width="3px" />
<path d="M 10.0 257.5 L 0.0 247.5 L 10.0 237.5" stroke="#969696" fill="none" stroke-width="1px" />
<path d="M 10.0 237.5 L 1975.0 237.5" stroke="#969696" fill="none" stroke-width="1px" />
<path d="M 1975.0 237.5 L 1985.0 227.5 L 1975.0 217.5" stroke="#969696" fill="none" stroke-width="1px" />
<path d="M 1975.0 217.5 L 10.0 217.5" stroke="#969696" fill="none" stroke-width="1px" />
<path d="M 10.0 217.5 L 0.0 207.5 L 10.0 197.5" stroke="#969696" fill="none" stroke-width="1px" />
<path d="M 10.0 197.5 L 1975.0 197.5" stroke="#969696" fill="none" stroke-width="1px" />
<path d="M 1975.0 197.5 L 1985.0 187.5 L 1975.0 177.5" stroke="#969696" fill="none" stroke-width="1px" />
<path d="M 1975.0 177.5 L 10.0 177.5" stroke="#969696" fill="none" stroke-width="1px" />
<path d="M 10.0 177.5 L 0.0 167.5 L 10.0 157.5" stroke="#969696" fill="none" stroke-width="1px" />
<path d="M 10.0 157.5 L 1975.0 157.5" stroke="#969696" fill="none" stroke-width="1px" />
<path d="M 1975.0 157.5 L 1985.0 147.5 L 1975.0 137.5" stroke="#969696" fill="none" stroke-width="1px" />
<path d="M 1975.0 137.5 L 10.0 137.5" stroke="#969696" fill="none" stroke-width="1px" />
<path d="M 10.0 137.5 L 0.0 127.5 L 10.0 117.5" stroke="#969696" fill="none" stroke-width="1px" />
<path d="M 10.0 117.5 L 1975.0 117.5" stroke="#969696" fill="none" stroke-width="1px" />
<path d="M 1975.0 117.5 L 1985.0 107.5 L 1975.0 97.5" stroke="#969696" fill="none" stroke-width="1px" />
<path d="M 1975.0 97.5 L 10.0 97.5" stroke="#969696" fill="none" stroke-width="1px" />
<path d="M 10.0 97.5 L 0.0 87.5 L 10.0 77.5" stroke="#969696" fill="none" stroke-width="1px" />
<path d="M 10.0 77.5 L 1975.0 77.5" stroke="#969696" fill="none" stroke-width="1px" />
<path d="M 1975.0 77.5 L 1985.0 67.5 L 1975.0 57.5" stroke="#969696" fill="none" stroke-width="1px" />
<path d="M 1975.0 57.5 L 10.0 57.5" stroke="#969696" fill="none" stroke-width="1px" />
<path d="M 10.0 57.5 L 0.0 47.5 L 10.0 37.5" stroke="#969696" fill="none" stroke-width="1px" />
<path d="M 10.0 37.5 L 1975.0 37.5" stroke="#969696" fill="none" stroke-width="1px" />
<path d="M 1975.0 37.5 L 1985.0 27.5 L 1975.0 17.5" stroke="#969696" fill="none" stroke-width="1px" />
<path d="M 1975.0 17.5 L 10.0 17.5" stroke="#969696" fill="none" stroke-width="1px" />
<path d="M 10.0 17.5 L 0.0 7.5 L 10.0 -2.5" stroke="#969696" fill="none" stroke-width="1px" />
<path d="M 10.0 -2.5 L 1975.0 -2.5" stroke="#969696" fill="none" stroke-width="1px" />
<path d="M 1975.0 -2.5 L 1985.0 -12.5 L 1975.0 -22.5" stroke="#969696" fill="none" stroke-width="1px" />
<path d="M 2513.06666667 257.5 L 2523.06666667 247.5 L 2513.06666667 237.5" stroke="#969696" fill="none" stroke-width="1px" />
<path d="M 2513.06666667 237.5 L 1895.0 237.5" stroke="#969696" fill="none" stroke-width="1px" />
<path d="M 1895.0 237.5 L 1885.0 227.5 L 1895.0 217.5" stroke="#969696" fill="none" stroke-width="1px" />
<path d="M 1895.0 217.5 L 2513.06666667 217.5" stroke="#969696" fill="none" stroke-width="1px" />
<path d="M 2513.06666667 217.5 L 2523.06666667 207.5 L 2513.06666667 197.5" stroke="#969696" fill="none" stroke-width="1px" />
<path d="M 2513.06666667 197.5 L 1895.0 197.5" stroke="#969696" fill="none" stroke-width="1px" />
<path d="M 1895.0 197.5 L 1885.0 187.5 L 1895.0 177.5" stroke="#969696" fill="none" stroke-width="1px" />
<path d="M 1895.0 177.5 L 2513.06666667 177.5" stroke="#969696" fill="none" stroke-width="1px" />
<path d="M 2513.06666667 177.5 L 2523.06666667 167.5 L 2513.06666667 157.5" stroke="#969696" fill="none" stroke-width="1px" />
<path d="M 2513.06666667 157.5 L 1895.0 157.5" stroke="#969696" fill="none" stroke-width="1px" />
<path d="M 1895.0 157.5 L 1885.0 147.5 L 1895.0 137.5" stroke="#969696" fill="none" stroke-width="1px" />
<path d="M 1895.0 137.5 L 2513.06666667 137.5" stroke="#969696" fill="none" stroke-width="1px" />
<path d="M 2513.06666667 137.5 L 2523.06666667 127.5 L 2513.06666667 117.5" stroke="#969696" fill="none" stroke-width="1px" />
<path d="M 2513.06666667 117.5 L 1895.0 117.5" stroke="#969696" fill="none" stroke-width="1px" />
<path d="M 1895.0 117.5 L 1885.0 107.5 L 1895.0 97.5" stroke="#969696" fill="none" stroke-width="1px" />
<path d="M 1895.0 97.5 L 2513.06666667 97.5" stroke="#969696" fill="none" stroke-width="1px" />
<path d="M 2513.06666667 97.5 L 2523.06666667 87.5 L 2513.06666667 77.5" stroke="#969696" fill="none" stroke-width="1px" />
<path d="M 2513.06666667 77.5 L 1895.0 77.5" stroke="#969696" fill="none" stroke-width="1px" />
<path d="M 1895.0 77.5 L 1885.0 67.5 L 1895.0 57.5" stroke="#969696" fill="none" stroke-width="1px" />
<path d="M 1895.0 57.5 L 2513.06666667 57.5" stroke="#969696" fill="none" stroke-width="1px" />
<path d="M 2513.06666667 57.5 L 2523.06666667 47.5 L 2513.06666667 37.5" stroke="#969696" fill="none" stroke-width="1px" />
<path d="M 2513.06666667 37.5 L 1895.0 37.5" stroke="#969696" fill="none" stroke-width="1px" />
<path d="M 1895.0 37.5 L 1885.0 27.5 L 1895.0 17.5" stroke="#969696" fill="none" stroke-width="1px" />
<path d="M 1895.0 17.5 L 2513.06666667 17.5" stroke="#969696" fill="none" stroke-width="1px" />
<path d="M 2513.06666667 17.5 L 2523.06666667 7.5 L 2513.06666667 -2.5" stroke="#969696" fill="none" stroke-width="1px" />
<path d="M 2513.06666667 -2.5 L 1895.0 -2.5" stroke="#969696" fill="none" stroke-width="1px" />
<path d="M 1895.0 -2.5 L 1885.0 -12.5 L 1895.0 -22.5" stroke="#969696" fill="none" stroke-width="1px" />
<path d="M 0.0 235.0 L 300.0 75.0" stroke="#0095FF" fill="none" stroke-width="2px" />
<path d="M 330.0 65.0 L 330.0 45.0" stroke="#0095FF" fill="none" stroke-width="2px" />
<path d="M 300.0 15.0 L 380.0 25.0" stroke="#0095FF" fill="none" stroke-width="2px" />
<path d="M 420.0 105.0 L 460.0 35.0" stroke="#0095FF" fill="none" stroke-width="2px" />
<path d="M 460.0 35.0 L 440.0 15.0" stroke="#0095FF" fill="none" stroke-width="2px" />
<path d="M 430.0 5.0 L 730.0 125.0" stroke="#0095FF" fill="none" stroke-width="2px" />
<path d="M 750.0 155.0 L 750.0 115.0" stroke="#0095FF" fill="none" stroke-width="2px" />
<path d="M 780.0 115.0 L 830.0 85.0" stroke="#0095FF" fill="none" stroke-width="2px" />
<path d="M 850.0 15.0 L 880.0 75.0" stroke="#0095FF" fill="none" stroke-width="2px" />
<path d="M 880.0 75.0 L 850.0 95.0" stroke="#0095FF" fill="none" stroke-width="2px" />
<path d="M 850.0 105.0 L 940.0 85.0" stroke="#0095FF" fill="none" stroke-width="2px" />
<path d="M 1000.0 185.0 L 1020.0 195.0" stroke="#0095FF" fill="none" stroke-width="2px" />
<path d="M 1030.0 205.0 L 1040.0 165.0" stroke="#0095FF" fill="none" stroke-width="2px" />
<path d="M 1040.0 165.0 L 1020.0 145.0" stroke="#0095FF" fill="none" stroke-width="2px" />
<path d="M 1020.0 145.0 L 1010.0 95.0" stroke="#0095FF" fill="none" stroke-width="2px" />
<path d="M 1010.0 95.0 L 990.0 75.0" stroke="#0095FF" fill="none" stroke-width="2px" />
<path d="M 980.0 65.0 L 1600.0 95.0" stroke="#0095FF" fill="none" stroke-width="2px" />
<path d="M 1630.0 65.0 L 1630.0 105.0" stroke="#0095FF" fill="none" stroke-width="2px" />
<path d="M 1650.0 105.0 L 1630.0 125.0" stroke="#0095FF" fill="none" stroke-width="2px" />
<path d="M 2523.06666667 235.0 L 2520.0 215.0" stroke="#0095FF" fill="none" stroke-width="2px" />
<path d="M 2510.0 125.0 L 2400.0 125.0" stroke="#0095FF" fill="none" stroke-width="2px" />
<path d="M 2360.0 155.0 L 2360.0 115.0" stroke="#0095FF" fill="none" stroke-width="2px" />
<path d="M 2370.0 115.0 L 2370.0 95.0" stroke="#0095FF" fill="none" stroke-width="2px" />
<path d="M 2380.0 95.0 L 2380.0 75.0" stroke="#0095FF" fill="none" stroke-width="2px" />
<path d="M 300.0 75.0 L 310.0 75.0" stroke="#FF0000" fill="none" stroke-width="4px" />
<path d="M 310.0 75.0 L 320.0 75.0" stroke="#FF0000" fill="none" stroke-width="4px" />
<path d="M 320.0 75.0 L 320.0 65.0" stroke="#FF0000" fill="none" stroke-width="4px" />
<path d="M 320.0 65.0 L 310.0 65.0" stroke="#FF0000" fill="none" stroke-width="4px" />
<path d="M 310.0 65.0 L 300.0 65.0" stroke="#FF0000" fill="none" stroke-width="4px" />
<path d="M 300.0 65.0 L 290.0 65.0" stroke="#FF0000" fill="none" stroke-width="4px" />
<path d="M 290.0 65.0 L 290.0 55.0" stroke="#FF0000" fill="none" stroke-width="4px" />
<path d="M 290.0 55.0 L 300.0 55.0" stroke="#FF0000" fill="none" stroke-width="4px" />
<path d="M 300.0 55.0 L 310.0 55.0" stroke="#FF0000" fill="none" stroke-width="4px" />
<path d="M 310.0 55.0 L 320.0 55.0" stroke="#FF0000" fill="none" stroke-width="4px" />
<path d="M 320.0 55.0 L 330.0 55.0" stroke="#FF0000" fill="none" stroke-width="4px" />
<path d="M 330.0 55.0 L 340.0 55.0" stroke="#FF0000" fill="none" stroke-width="4px" />
<path d="M 340.0 55.0 L 330.0 65.0" stroke="#FF0000" fill="none" stroke-width="4px" />
<path d="M 330.0 45.0 L 320.0 45.0" stroke="#FF0000" fill="none" stroke-width="4px" />
<path d="M 320.0 45.0 L 310.0 45.0" stroke="#FF0000" fill="none" stroke-width="4px" />
<path d="M 310.0 45.0 L 300.0 45.0" stroke="#FF0000" fill="none" stroke-width="4px" />
<path d="M 300.0 45.0 L 290.0 45.0" stroke="#FF0000" fill="none" stroke-width="4px" />
<path d="M 290.0 45.0 L 280.0 45.0" stroke="#FF0000" fill="none" stroke-width="4px" />
<path d="M 280.0 45.0 L 280.0 35.0" stroke="#FF0000" fill="none" stroke-width="4px" />
<path d="M 280.0 35.0 L 290.0 35.0" stroke="#FF0000" fill="none" stroke-width="4px" />
<path d="M 290.0 35.0 L 300.0 35.0" stroke="#FF0000" fill="none" stroke-width="4px" />
<path d="M 300.0 35.0 L 310.0 35.0" stroke="#FF0000" fill="none" stroke-width="4px" />
<path d="M 310.0 35.0 L 320.0 35.0" stroke="#FF0000" fill="none" stroke-width="4px" />
<path d="M 320.0 35.0 L 310.0 25.0" stroke="#FF0000" fill="none" stroke-width="4px" />
<path d="M 310.0 25.0 L 300.0 25.0" stroke="#FF0000" fill="none" stroke-width="4px" />
<path d="M 300.0 25.0 L 290.0 25.0" stroke="#FF0000" fill="none" stroke-width="4px" />
<path d="M 290.0 25.0 L 300.0 15.0" stroke="#FF0000" fill="none" stroke-width="4px" />
<path d="M 380.0 25.0 L 390.0 25.0" stroke="#FF0000" fill="none" stroke-width="4px" />
<path d="M 390.0 25.0 L 400.0 25.0" stroke="#FF0000" fill="none" stroke-width="4px" />
<path d="M 400.0 25.0 L 410.0 25.0" stroke="#FF0000" fill="none" stroke-width="4px" />
<path d="M 410.0 25.0 L 420.0 25.0" stroke="#FF0000" fill="none" stroke-width="4px" />
<path d="M 420.0 25.0 L 430.0 25.0" stroke="#FF0000" fill="none" stroke-width="4px" />
<path d="M 430.0 25.0 L 440.0 25.0" stroke="#FF0000" fill="none" stroke-width="4px" />
<path d="M 440.0 25.0 L 450.0 25.0" stroke="#FF0000" fill="none" stroke-width="4px" />
<path d="M 450.0 25.0 L 450.0 35.0" stroke="#FF0000" fill="none" stroke-width="4px" />
<path d="M 450.0 35.0 L 440.0 35.0" stroke="#FF0000" fill="none" stroke-width="4px" />
<path d="M 440.0 35.0 L 430.0 35.0" stroke="#FF0000" fill="none" stroke-width="4px" />
<path d="M 430.0 35.0 L 420.0 35.0" stroke="#FF0000" fill="none" stroke-width="4px" />
<path d="M 420.0 35.0 L 410.0 35.0" stroke="#FF0000" fill="none" stroke-width="4px" />
<path d="M 410.0 35.0 L 400.0 35.0" stroke="#FF0000" fill="none" stroke-width="4px" />
<path d="M 400.0 35.0 L 390.0 35.0" stroke="#FF0000" fill="none" stroke-width="4px" />
<path d="M 390.0 35.0 L 380.0 35.0" stroke="#FF0000" fill="none" stroke-width="4px" />
<path d="M 380.0 35.0 L 380.0 45.0" stroke="#FF0000" fill="none" stroke-width="4px" />
<path d="M 380.0 45.0 L 390.0 45.0" stroke="#FF0000" fill="none" stroke-width="4px" />
<path d="M 390.0 45.0 L 400.0 45.0" stroke="#FF0000" fill="none" stroke-width="4px" />
<path d="M 400.0 45.0 L 410.0 45.0" stroke="#FF0000" fill="none" stroke-width="4px" />
<path d="M 410.0 45.0 L 420.0 45.0" stroke="#FF0000" fill="none" stroke-width="4px" />
<path d="M 420.0 45.0 L 430.0 45.0" stroke="#FF0000" fill="none" stroke-width="4px" />
<path d="M 430.0 45.0 L 440.0 45.0" stroke="#FF0000" fill="none" stroke-width="4px" />
<path d="M 440.0 45.0 L 450.0 45.0" stroke="#FF0000" fill="none" stroke-width="4px" />
<path d="M 450.0 45.0 L 460.0 45.0" stroke="#FF0000" fill="none" stroke-width="4px" />
<path d="M 460.0 45.0 L 460.0 55.0" stroke="#FF0000" fill="none" stroke-width="4px" />
<path d="M 460.0 55.0 L 450.0 55.0" stroke="#FF0000" fill="none" stroke-width="4px" />
<path d="M 450.0 55.0 L 440.0 55.0" stroke="#FF0000" fill="none" stroke-width="4px" />
<path d="M 440.0 55.0 L 430.0 55.0" stroke="#FF0000" fill="none" stroke-width="4px" />
<path d="M 430.0 55.0 L 420.0 55.0" stroke="#FF0000" fill="none" stroke-width="4px" />
<path d="M 420.0 55.0 L 410.0 55.0" stroke="#FF0000" fill="none" stroke-width="4px" />
<path d="M 410.0 55.0 L 400.0 55.0" stroke="#FF0000" fill="none" stroke-width="4px" />
<path d="M 400.0 55.0 L 390.0 55.0" stroke="#FF0000" fill="none" stroke-width="4px" />
<path d="M 390.0 55.0 L 380.0 55.0" stroke="#FF0000" fill="none" stroke-width="4px" />
<path d="M 380.0 55.0 L 390.0 65.0" stroke="#FF0000" fill="none" stroke-width="4px" />
<path d="M 390.0 65.0 L 400.0 65.0" stroke="#FF0000" fill="none" stroke-width="4px" />
<path d="M 400.0 65.0 L 410.0 65.0" stroke="#FF0000" fill="none" stroke-width="4px" />
<path d="M 410.0 65.0 L 420.0 65.0" stroke="#FF0000" fill="none" stroke-width="4px" />
<path d="M 420.0 65.0 L 430.0 65.0" stroke="#FF0000" fill="none" stroke-width="4px" />
<path d="M 430.0 65.0 L 440.0 65.0" stroke="#FF0000" fill="none" stroke-width="4px" />
<path d="M 440.0 65.0 L 450.0 65.0" stroke="#FF0000" fill="none" stroke-width="4px" />
<path d="M 450.0 65.0 L 450.0 75.0" stroke="#FF0000" fill="none" stroke-width="4px" />
<path d="M 450.0 75.0 L 440.0 75.0" stroke="#FF0000" fill="none" stroke-width="4px" />
<path d="M 440.0 75.0 L 430.0 75.0" stroke="#FF0000" fill="none" stroke-width="4px" />
<path d="M 430.0 75.0 L 420.0 75.0" stroke="#FF0000" fill="none" stroke-width="4px" />
<path d="M 420.0 75.0 L 410.0 75.0" stroke="#FF0000" fill="none" stroke-width="4px" />
<path d="M 410.0 75.0 L 400.0 75.0" stroke="#FF0000" fill="none" stroke-width="4px" />
<path d="M 400.0 75.0 L 390.0 75.0" stroke="#FF0000" fill="none" stroke-width="4px" />
<path d="M 390.0 75.0 L 390.0 85.0" stroke="#FF0000" fill="none" stroke-width="4px" />
<path d="M 390.0 85.0 L 400.0 85.0" stroke="#FF0000" fill="none" stroke-width="4px" />
<path d="M 400.0 85.0 L 410.0 85.0" stroke="#FF0000" fill="none" stroke-width="4px" />
<path d="M 410.0 85.0 L 420.0 85.0" stroke="#FF0000" fill="none" stroke-width="4px" />
<path d="M 420.0 85.0 L 430.0 85.0" stroke="#FF0000" fill="none" stroke-width="4px" />
<path d="M 430.0 85.0 L 440.0 85.0" stroke="#FF0000" fill="none" stroke-width="4px" />
<path d="M 440.0 85.0 L 430.0 95.0" stroke="#FF0000" fill="none" stroke-width="4px" />
<path d="M 430.0 95.0 L 420.0 95.0" stroke="#FF0000" fill="none" stroke-width="4px" />
<path d="M 420.0 95.0 L 410.0 95.0" stroke="#FF0000" fill="none" stroke-width="4px" />
<path d="M 410.0 95.0 L 400.0 95.0" stroke="#FF0000" fill="none" stroke-width="4px" />
<path d="M 400.0 95.0 L 410.0 105.0" stroke="#FF0000" fill="none" stroke-width="4px" />
<path d="M 410.0 105.0 L 420.0 105.0" stroke="#FF0000" fill="none" stroke-width="4px" />
<path d="M 440.0 15.0 L 430.0 15.0" stroke="#FF0000" fill="none" stroke-width="4px" />
<path d="M 430.0 15.0 L 420.0 15.0" stroke="#FF0000" fill="none" stroke-width="4px" />
<path d="M 420.0 15.0 L 410.0 15.0" stroke="#FF0000" fill="none" stroke-width="4px" />
<path d="M 410.0 15.0 L 400.0 15.0" stroke="#FF0000" fill="none" stroke-width="4px" />
<path d="M 400.0 15.0 L 390.0 15.0" stroke="#FF0000" fill="none" stroke-width="4px" />
<path d="M 390.0 15.0 L 400.0 5.0" stroke="#FF0000" fill="none" stroke-width="4px" />
<path d="M 400.0 5.0 L 410.0 5.0" stroke="#FF0000" fill="none" stroke-width="4px" />
<path d="M 410.0 5.0 L 420.0 5.0" stroke="#FF0000" fill="none" stroke-width="4px" />
<path d="M 420.0 5.0 L 430.0 5.0" stroke="#FF0000" fill="none" stroke-width="4px" />
<path d="M 730.0 125.0 L 740.0 125.0" stroke="#FF0000" fill="none" stroke-width="4px" />
<path d="M 740.0 125.0 L 750.0 125.0" stroke="#FF0000" fill="none" stroke-width="4px" />
<path d="M 750.0 125.0 L 760.0 125.0" stroke="#FF0000" fill="none" stroke-width="4px" />
<path d="M 760.0 125.0 L 770.0 125.0" stroke="#FF0000" fill="none" stroke-width="4px" />
<path d="M 770.0 125.0 L 780.0 125.0" stroke="#FF0000" fill="none" stroke-width="4px" />
<path d="M 780.0 125.0 L 780.0 135.0" stroke="#FF0000" fill="none" stroke-width="4px" />
<path d="M 780.0 135.0 L 770.0 135.0" stroke="#FF0000" fill="none" stroke-width="4px" />
<path d="M 770.0 135.0 L 760.0 135.0" stroke="#FF0000" fill="none" stroke-width="4px" />
<path d="M 760.0 135.0 L 750.0 135.0" stroke="#FF0000" fill="none" stroke-width="4px" />
<path d="M 750.0 135.0 L 740.0 135.0" stroke="#FF0000" fill="none" stroke-width="4px" />
<path d="M 740.0 135.0 L 730.0 135.0" stroke="#FF0000" fill="none" stroke-width="4px" />
<path d="M 730.0 135.0 L 740.0 145.0" stroke="#FF0000" fill="none" stroke-width="4px" />
<path d="M 740.0 145.0 L 750.0 145.0" stroke="#FF0000" fill="none" stroke-width="4px" />
<path d="M 750.0 145.0 L 760.0 145.0" stroke="#FF0000" fill="none" stroke-width="4px" />
<path d="M 760.0 145.0 L 770.0 145.0" stroke="#FF0000" fill="none" stroke-width="4px" />
<path d="M 770.0 145.0 L 780.0 145.0" stroke="#FF0000" fill="none" stroke-width="4px" />
<path d="M 780.0 145.0 L 770.0 155.0" stroke="#FF0000" fill="none" stroke-width="4px" />
<path d="M 770.0 155.0 L 760.0 155.0" stroke="#FF0000" fill="none" stroke-width="4px" />
<path d="M 760.0 155.0 L 750.0 155.0" stroke="#FF0000" fill="none" stroke-width="4px" />
<path d="M 750.0 115.0 L 740.0 115.0" stroke="#FF0000" fill="none" stroke-width="4px" />
<path d="M 740.0 115.0 L 750.0 105.0" stroke="#FF0000" fill="none" stroke-width="4px" />
<path d="M 750.0 105.0 L 760.0 105.0" stroke="#FF0000" fill="none" stroke-width="4px" />
<path d="M 760.0 105.0 L 770.0 105.0" stroke="#FF0000" fill="none" stroke-width="4px" />
<path d="M 770.0 105.0 L 770.0 115.0" stroke="#FF0000" fill="none" stroke-width="4px" />
<path d="M 770.0 115.0 L 760.0 115.0" stroke="#FF0000" fill="none" stroke-width="4px" />
<path d="M 760.0 115.0 L 780.0 115.0" stroke="#FF0000" fill="none" stroke-width="4px" />
<path d="M 830.0 85.0 L 840.0 85.0" stroke="#FF0000" fill="none" stroke-width="4px" />
<path d="M 840.0 85.0 L 850.0 85.0" stroke="#FF0000" fill="none" stroke-width="4px" />
<path d="M 850.0 85.0 L 860.0 85.0" stroke="#FF0000" fill="none" stroke-width="4px" />
<path d="M 860.0 85.0 L 870.0 85.0" stroke="#FF0000" fill="none" stroke-width="4px" />
<path d="M 870.0 85.0 L 870.0 75.0" stroke="#FF0000" fill="none" stroke-width="4px" />
<path d="M 870.0 75.0 L 860.0 75.0" stroke="#FF0000" fill="none" stroke-width="4px" />
<path d="M 860.0 75.0 L 850.0 75.0" stroke="#FF0000" fill="none" stroke-width="4px" />
<path d="M 850.0 75.0 L 840.0 75.0" stroke="#FF0000" fill="none" stroke-width="4px" />
<path d="M 840.0 75.0 L 830.0 75.0" stroke="#FF0000" fill="none" stroke-width="4px" />
<path d="M 830.0 75.0 L 830.0 65.0" stroke="#FF0000" fill="none" stroke-width="4px" />
<path d="M 830.0 65.0 L 840.0 65.0" stroke="#FF0000" fill="none" stroke-width="4px" />
<path d="M 840.0 65.0 L 850.0 65.0" stroke="#FF0000" fill="none" stroke-width="4px" />
<path d="M 850.0 65.0 L 860.0 65.0" stroke="#FF0000" fill="none" stroke-width="4px" />
<path d="M 860.0 65.0 L 870.0 65.0" stroke="#FF0000" fill="none" stroke-width="4px" />
<path d="M 870.0 65.0 L 880.0 65.0" stroke="#FF0000" fill="none" stroke-width="4px" />
<path d="M 880.0 65.0 L 890.0 65.0" stroke="#FF0000" fill="none" stroke-width="4px" />
<path d="M 890.0 65.0 L 890.0 55.0" stroke="#FF0000" fill="none" stroke-width="4px" />
<path d="M 890.0 55.0 L 880.0 55.0" stroke="#FF0000" fill="none" stroke-width="4px" />
<path d="M 880.0 55.0 L 870.0 55.0" stroke="#FF0000" fill="none" stroke-width="4px" />
<path d="M 870.0 55.0 L 860.0 55.0" stroke="#FF0000" fill="none" stroke-width="4px" />
<path d="M 860.0 55.0 L 850.0 55.0" stroke="#FF0000" fill="none" stroke-width="4px" />
<path d="M 850.0 55.0 L 840.0 55.0" stroke="#FF0000" fill="none" stroke-width="4px" />
<path d="M 840.0 55.0 L 830.0 55.0" stroke="#FF0000" fill="none" stroke-width="4px" />
<path d="M 830.0 55.0 L 830.0 45.0" stroke="#FF0000" fill="none" stroke-width="4px" />
<path d="M 830.0 45.0 L 840.0 45.0" stroke="#FF0000" fill="none" stroke-width="4px" />
<path d="M 840.0 45.0 L 850.0 45.0" stroke="#FF0000" fill="none" stroke-width="4px" />
<path d="M 850.0 45.0 L 860.0 45.0" stroke="#FF0000" fill="none" stroke-width="4px" />
<path d="M 860.0 45.0 L 870.0 45.0" stroke="#FF0000" fill="none" stroke-width="4px" />
<path d="M 870.0 45.0 L 880.0 45.0" stroke="#FF0000" fill="none" stroke-width="4px" />
<path d="M 880.0 45.0 L 890.0 45.0" stroke="#FF0000" fill="none" stroke-width="4px" />
<path d="M 890.0 45.0 L 890.0 35.0" stroke="#FF0000" fill="none" stroke-width="4px" />
<path d="M 890.0 35.0 L 880.0 35.0" stroke="#FF0000" fill="none" stroke-width="4px" />
<path d="M 880.0 35.0 L 870.0 35.0" stroke="#FF0000" fill="none" stroke-width="4px" />
<path d="M 870.0 35.0 L 860.0 35.0" stroke="#FF0000" fill="none" stroke-width="4px" />
<path d="M 860.0 35.0 L 850.0 35.0" stroke="#FF0000" fill="none" stroke-width="4px" />
<path d="M 850.0 35.0 L 840.0 35.0" stroke="#FF0000" fill="none" stroke-width="4px" />
<path d="M 840.0 35.0 L 830.0 35.0" stroke="#FF0000" fill="none" stroke-width="4px" />
<path d="M 830.0 35.0 L 840.0 25.0" stroke="#FF0000" fill="none" stroke-width="4px" />
<path d="M 840.0 25.0 L 850.0 25.0" stroke="#FF0000" fill="none" stroke-width="4px" />
<path d="M 850.0 25.0 L 860.0 25.0" stroke="#FF0000" fill="none" stroke-width="4px" />
<path d="M 860.0 25.0 L 870.0 25.0" stroke="#FF0000" fill="none" stroke-width="4px" />
<path d="M 870.0 25.0 L 880.0 25.0" stroke="#FF0000" fill="none" stroke-width="4px" />
<path d="M 880.0 25.0 L 890.0 25.0" stroke="#FF0000" fill="none" stroke-width="4px" />
<path d="M 890.0 25.0 L 880.0 15.0" stroke="#FF0000" fill="none" stroke-width="4px" />
<path d="M 880.0 15.0 L 870.0 15.0" stroke="#FF0000" fill="none" stroke-width="4px" />
<path d="M 870.0 15.0 L 860.0 15.0" stroke="#FF0000" fill="none" stroke-width="4px" />
<path d="M 860.0 15.0 L 850.0 15.0" stroke="#FF0000" fill="none" stroke-width="4px" />
<path d="M 850.0 95.0 L 840.0 95.0" stroke="#FF0000" fill="none" stroke-width="4px" />
<path d="M 840.0 95.0 L 850.0 105.0" stroke="#FF0000" fill="none" stroke-width="4px" />
<path d="M 940.0 85.0 L 950.0 85.0" stroke="#FF0000" fill="none" stroke-width="4px" />
<path d="M 950.0 85.0 L 960.0 85.0" stroke="#FF0000" fill="none" stroke-width="4px" />
<path d="M 960.0 85.0 L 970.0 85.0" stroke="#FF0000" fill="none" stroke-width="4px" />
<path d="M 970.0 85.0 L 980.0 85.0" stroke="#FF0000" fill="none" stroke-width="4px" />
<path d="M 980.0 85.0 L 990.0 85.0" stroke="#FF0000" fill="none" stroke-width="4px" />
<path d="M 990.0 85.0 L 1000.0 85.0" stroke="#FF0000" fill="none" stroke-width="4px" />
<path d="M 1000.0 85.0 L 1000.0 95.0" stroke="#FF0000" fill="none" stroke-width="4px" />
<path d="M 1000.0 95.0 L 990.0 95.0" stroke="#FF0000" fill="none" stroke-width="4px" />
<path d="M 990.0 95.0 L 980.0 95.0" stroke="#FF0000" fill="none" stroke-width="4px" />
<path d="M 980.0 95.0 L 970.0 95.0" stroke="#FF0000" fill="none" stroke-width="4px" />
<path d="M 970.0 95.0 L 960.0 95.0" stroke="#FF0000" fill="none" stroke-width="4px" />
<path d="M 960.0 95.0 L 950.0 95.0" stroke="#FF0000" fill="none" stroke-width="4px" />
<path d="M 950.0 95.0 L 960.0 105.0" stroke="#FF0000" fill="none" stroke-width="4px" />
<path d="M 960.0 105.0 L 970.0 105.0" stroke="#FF0000" fill="none" stroke-width="4px" />
<path d="M 970.0 105.0 L 980.0 105.0" stroke="#FF0000" fill="none" stroke-width="4px" />
<path d="M 980.0 105.0 L 990.0 105.0" stroke="#FF0000" fill="none" stroke-width="4px" />
<path d="M 990.0 105.0 L 1000.0 105.0" stroke="#FF0000" fill="none" stroke-width="4px" />
<path d="M 1000.0 105.0 L 1010.0 105.0" stroke="#FF0000" fill="none" stroke-width="4px" />
<path d="M 1010.0 105.0 L 1010.0 115.0" stroke="#FF0000" fill="none" stroke-width="4px" />
<path d="M 1010.0 115.0 L 1000.0 115.0" stroke="#FF0000" fill="none" stroke-width="4px" />
<path d="M 1000.0 115.0 L 990.0 115.0" stroke="#FF0000" fill="none" stroke-width="4px" />
<path d="M 990.0 115.0 L 980.0 115.0" stroke="#FF0000" fill="none" stroke-width="4px" />
<path d="M 980.0 115.0 L 970.0 115.0" stroke="#FF0000" fill="none" stroke-width="4px" />
<path d="M 970.0 115.0 L 960.0 115.0" stroke="#FF0000" fill="none" stroke-width="4px" />
<path d="M 960.0 115.0 L 970.0 125.0" stroke="#FF0000" fill="none" stroke-width="4px" />
<path d="M 970.0 125.0 L 980.0 125.0" stroke="#FF0000" fill="none" stroke-width="4px" />
<path d="M 980.0 125.0 L 990.0 125.0" stroke="#FF0000" fill="none" stroke-width="4px" />
<path d="M 990.0 125.0 L 1000.0 125.0" stroke="#FF0000" fill="none" stroke-width="4px" />
<path d="M 1000.0 125.0 L 1010.0 125.0" stroke="#FF0000" fill="none" stroke-width="4px" />
<path d="M 1010.0 125.0 L 1010.0 135.0" stroke="#FF0000" fill="none" stroke-width="4px" />
<path d="M 1010.0 135.0 L 1000.0 135.0" stroke="#FF0000" fill="none" stroke-width="4px" />
<path d="M 1000.0 135.0 L 990.0 135.0" stroke="#FF0000" fill="none" stroke-width="4px" />
<path d="M 990.0 135.0 L 980.0 135.0" stroke="#FF0000" fill="none" stroke-width="4px" />
<path d="M 980.0 135.0 L 990.0 145.0" stroke="#FF0000" fill="none" stroke-width="4px" />
<path d="M 990.0 145.0 L 1000.0 145.0" stroke="#FF0000" fill="none" stroke-width="4px" />
<path d="M 1000.0 145.0 L 1010.0 155.0" stroke="#FF0000" fill="none" stroke-width="4px" />
<path d="M 1010.0 155.0 L 1020.0 155.0" stroke="#FF0000" fill="none" stroke-width="4px" />
<path d="M 1020.0 155.0 L 1030.0 155.0" stroke="#FF0000" fill="none" stroke-width="4px" />
<path d="M 1030.0 155.0 L 1030.0 165.0" stroke="#FF0000" fill="none" stroke-width="4px" />
<path d="M 1030.0 165.0 L 1020.0 165.0" stroke="#FF0000" fill="none" stroke-width="4px" />
<path d="M 1020.0 165.0 L 1010.0 165.0" stroke="#FF0000" fill="none" stroke-width="4px" />
<path d="M 1010.0 165.0 L 1000.0 165.0" stroke="#FF0000" fill="none" stroke-width="4px" />
<path d="M 1000.0 165.0 L 1000.0 175.0" stroke="#FF0000" fill="none" stroke-width="4px" />
<path d="M 1000.0 175.0 L 1010.0 175.0" stroke="#FF0000" fill="none" stroke-width="4px" />
<path d="M 1010.0 175.0 L 1020.0 175.0" stroke="#FF0000" fill="none" stroke-width="4px" />
<path d="M 1020.0 175.0 L 1030.0 175.0" stroke="#FF0000" fill="none" stroke-width="4px" />
<path d="M 1030.0 175.0 L 1040.0 175.0" stroke="#FF0000" fill="none" stroke-width="4px" />
<path d="M 1040.0 175.0 L 1050.0 175.0" stroke="#FF0000" fill="none" stroke-width="4px" />
<path d="M 1050.0 175.0 L 1050.0 185.0" stroke="#FF0000" fill="none" stroke-width="4px" />
<path d="M 1050.0 185.0 L 1040.0 185.0" stroke="#FF0000" fill="none" stroke-width="4px" />
<path d="M 1040.0 185.0 L 1030.0 185.0" stroke="#FF0000" fill="none" stroke-width="4px" />
<path d="M 1030.0 185.0 L 1020.0 185.0" stroke="#FF0000" fill="none" stroke-width="4px" />
<path d="M 1020.0 185.0 L 1010.0 185.0" stroke="#FF0000" fill="none" stroke-width="4px" />
<path d="M 1010.0 185.0 L 1000.0 185.0" stroke="#FF0000" fill="none" stroke-width="4px" />
<path d="M 1020.0 195.0 L 1030.0 195.0" stroke="#FF0000" fill="none" stroke-width="4px" />
<path d="M 1030.0 195.0 L 1040.0 195.0" stroke="#FF0000" fill="none" stroke-width="4px" />
<path d="M 1040.0 195.0 L 1030.0 205.0" stroke="#FF0000" fill="none" stroke-width="4px" />
<path d="M 990.0 75.0 L 980.0 75.0" stroke="#FF0000" fill="none" stroke-width="4px" />
<path d="M 980.0 75.0 L 970.0 75.0" stroke="#FF0000" fill="none" stroke-width="4px" />
<path d="M 970.0 75.0 L 960.0 75.0" stroke="#FF0000" fill="none" stroke-width="4px" />
<path d="M 960.0 75.0 L 950.0 75.0" stroke="#FF0000" fill="none" stroke-width="4px" />
<path d="M 950.0 75.0 L 940.0 75.0" stroke="#FF0000" fill="none" stroke-width="4px" />
<path d="M 940.0 75.0 L 950.0 65.0" stroke="#FF0000" fill="none" stroke-width="4px" />
<path d="M 950.0 65.0 L 960.0 65.0" stroke="#FF0000" fill="none" stroke-width="4px" />
<path d="M 960.0 65.0 L 970.0 65.0" stroke="#FF0000" fill="none" stroke-width="4px" />
<path d="M 970.0 65.0 L 980.0 65.0" stroke="#FF0000" fill="none" stroke-width="4px" />
<path d="M 1600.0 95.0 L 1610.0 95.0" stroke="#FF0000" fill="none" stroke-width="4px" />
<path d="M 1610.0 95.0 L 1620.0 95.0" stroke="#FF0000" fill="none" stroke-width="4px" />
<path d="M 1620.0 95.0 L 1630.0 95.0" stroke="#FF0000" fill="none" stroke-width="4px" />
<path d="M 1630.0 95.0 L 1640.0 95.0" stroke="#FF0000" fill="none" stroke-width="4px" />
<path d="M 1640.0 95.0 L 1650.0 95.0" stroke="#FF0000" fill="none" stroke-width="4px" />
<path d="M 1650.0 95.0 L 1660.0 95.0" stroke="#FF0000" fill="none" stroke-width="4px" />
<path d="M 1660.0 95.0 L 1660.0 85.0" stroke="#FF0000" fill="none" stroke-width="4px" />
<path d="M 1660.0 85.0 L 1650.0 85.0" stroke="#FF0000" fill="none" stroke-width="4px" />
<path d="M 1650.0 85.0 L 1640.0 85.0" stroke="#FF0000" fill="none" stroke-width="4px" />
<path d="M 1640.0 85.0 L 1630.0 85.0" stroke="#FF0000" fill="none" stroke-width="4px" />
<path d="M 1630.0 85.0 L 1620.0 85.0" stroke="#FF0000" fill="none" stroke-width="4px" />
<path d="M 1620.0 85.0 L 1610.0 85.0" stroke="#FF0000" fill="none" stroke-width="4px" />
<path d="M 1610.0 85.0 L 1620.0 75.0" stroke="#FF0000" fill="none" stroke-width="4px" />
<path d="M 1620.0 75.0 L 1630.0 75.0" stroke="#FF0000" fill="none" stroke-width="4px" />
<path d="M 1630.0 75.0 L 1640.0 75.0" stroke="#FF0000" fill="none" stroke-width="4px" />
<path d="M 1640.0 75.0 L 1650.0 75.0" stroke="#FF0000" fill="none" stroke-width="4px" />
<path d="M 1650.0 75.0 L 1640.0 65.0" stroke="#FF0000" fill="none" stroke-width="4px" />
<path d="M 1640.0 65.0 L 1630.0 65.0" stroke="#FF0000" fill="none" stroke-width="4px" />
<path d="M 1630.0 105.0 L 1620.0 105.0" stroke="#FF0000" fill="none" stroke-width="4px" />
<path d="M 1620.0 105.0 L 1610.0 105.0" stroke="#FF0000" fill="none" stroke-width="4px" />
<path d="M 1610.0 105.0 L 1600.0 105.0" stroke="#FF0000" fill="none" stroke-width="4px" />
<path d="M 1600.0 105.0 L 1610.0 115.0" stroke="#FF0000" fill="none" stroke-width="4px" />
<path d="M 1610.0 115.0 L 1620.0 115.0" stroke="#FF0000" fill="none" stroke-width="4px" />
<path d="M 1620.0 115.0 L 1630.0 115.0" stroke="#FF0000" fill="none" stroke-width="4px" />
<path d="M 1630.0 115.0 L 1640.0 115.0" stroke="#FF0000" fill="none" stroke-width="4px" />
<path d="M 1640.0 115.0 L 1640.0 105.0" stroke="#FF0000" fill="none" stroke-width="4px" />
<path d="M 1640.0 105.0 L 1650.0 105.0" stroke="#FF0000" fill="none" stroke-width="4px" />
<path d="M 1630.0 125.0 L 1620.0 125.0" stroke="#FF0000" fill="none" stroke-width="4px" />
<path d="M 2520.0 215.0 L 2520.0 205.0" stroke="#FF0000" fill="none" stroke-width="4px" />
<path d="M 2520.0 205.0 L 2510.0 205.0" stroke="#FF0000" fill="none" stroke-width="4px" />
<path d="M 2510.0 205.0 L 2510.0 195.0" stroke="#FF0000" fill="none" stroke-width="4px" />
<path d="M 2510.0 195.0 L 2520.0 195.0" stroke="#FF0000" fill="none" stroke-width="4px" />
<path d="M 2520.0 195.0 L 2520.0 185.0" stroke="#FF0000" fill="none" stroke-width="4px" />
<path d="M 2520.0 185.0 L 2510.0 185.0" stroke="#FF0000" fill="none" stroke-width="4px" />
<path d="M 2510.0 185.0 L 2500.0 185.0" stroke="#FF0000" fill="none" stroke-width="4px" />
<path d="M 2500.0 185.0 L 2500.0 175.0" stroke="#FF0000" fill="none" stroke-width="4px" />
<path d="M 2500.0 175.0 L 2510.0 175.0" stroke="#FF0000" fill="none" stroke-width="4px" />
<path d="M 2510.0 175.0 L 2520.0 175.0" stroke="#FF0000" fill="none" stroke-width="4px" />
<path d="M 2520.0 175.0 L 2520.0 165.0" stroke="#FF0000" fill="none" stroke-width="4px" />
<path d="M 2520.0 165.0 L 2510.0 165.0" stroke="#FF0000" fill="none" stroke-width="4px" />
<path d="M 2510.0 165.0 L 2500.0 165.0" stroke="#FF0000" fill="none" stroke-width="4px" />
<path d="M 2500.0 165.0 L 2500.0 155.0" stroke="#FF0000" fill="none" stroke-width="4px" />
<path d="M 2500.0 155.0 L 2510.0 155.0" stroke="#FF0000" fill="none" stroke-width="4px" />
<path d="M 2510.0 155.0 L 2520.0 155.0" stroke="#FF0000" fill="none" stroke-width="4px" />
<path d="M 2520.0 155.0 L 2520.0 145.0" stroke="#FF0000" fill="none" stroke-width="4px" />
<path d="M 2520.0 145.0 L 2510.0 145.0" stroke="#FF0000" fill="none" stroke-width="4px" />
<path d="M 2510.0 145.0 L 2500.0 145.0" stroke="#FF0000" fill="none" stroke-width="4px" />
<path d="M 2500.0 145.0 L 2500.0 135.0" stroke="#FF0000" fill="none" stroke-width="4px" />
<path d="M 2500.0 135.0 L 2510.0 135.0" stroke="#FF0000" fill="none" stroke-width="4px" />
<path d="M 2510.0 135.0 L 2520.0 135.0" stroke="#FF0000" fill="none" stroke-width="4px" />
<path d="M 2520.0 135.0 L 2520.0 125.0" stroke="#FF0000" fill="none" stroke-width="4px" />
<path d="M 2520.0 125.0 L 2510.0 125.0" stroke="#FF0000" fill="none" stroke-width="4px" />
<path d="M 2400.0 125.0 L 2390.0 125.0" stroke="#FF0000" fill="none" stroke-width="4px" />
<path d="M 2390.0 125.0 L 2380.0 125.0" stroke="#FF0000" fill="none" stroke-width="4px" />
<path d="M 2380.0 125.0 L 2370.0 125.0" stroke="#FF0000" fill="none" stroke-width="4px" />
<path d="M 2370.0 125.0 L 2360.0 125.0" stroke="#FF0000" fill="none" stroke-width="4px" />
<path d="M 2360.0 125.0 L 2350.0 125.0" stroke="#FF0000" fill="none" stroke-width="4px" />
<path d="M 2350.0 125.0 L 2340.0 125.0" stroke="#FF0000" fill="none" stroke-width="4px" />
<path d="M 2340.0 125.0 L 2340.0 135.0" stroke="#FF0000" fill="none" stroke-width="4px" />
<path d="M 2340.0 135.0 L 2350.0 135.0" stroke="#FF0000" fill="none" stroke-width="4px" />
<path d="M 2350.0 135.0 L 2360.0 135.0" stroke="#FF0000" fill="none" stroke-width="4px" />
<path d="M 2360.0 135.0 L 2370.0 135.0" stroke="#FF0000" fill="none" stroke-width="4px" />
<path d="M 2370.0 135.0 L 2380.0 135.0" stroke="#FF0000" fill="none" stroke-width="4px" />
<path d="M 2380.0 135.0 L 2390.0 135.0" stroke="#FF0000" fill="none" stroke-width="4px" />
<path d="M 2390.0 135.0 L 2380.0 145.0" stroke="#FF0000" fill="none" stroke-width="4px" />
<path d="M 2380.0 145.0 L 2370.0 145.0" stroke="#FF0000" fill="none" stroke-width="4px" />
<path d="M 2370.0 145.0 L 2360.0 145.0" stroke="#FF0000" fill="none" stroke-width="4px" />
<path d="M 2360.0 145.0 L 2350.0 145.0" stroke="#FF0000" fill="none" stroke-width="4px" />
<path d="M 2350.0 145.0 L 2360.0 155.0" stroke="#FF0000" fill="none" stroke-width="4px" />
<path d="M 2360.0 115.0 L 2350.0 115.0" stroke="#FF0000" fill="none" stroke-width="4px" />
<path d="M 2350.0 115.0 L 2340.0 115.0" stroke="#FF0000" fill="none" stroke-width="4px" />
<path d="M 2340.0 115.0 L 2340.0 105.0" stroke="#FF0000" fill="none" stroke-width="4px" />
<path d="M 2340.0 105.0 L 2350.0 105.0" stroke="#FF0000" fill="none" stroke-width="4px" />
<path d="M 2350.0 105.0 L 2360.0 105.0" stroke="#FF0000" fill="none" stroke-width="4px" />
<path d="M 2360.0 105.0 L 2370.0 105.0" stroke="#FF0000" fill="none" stroke-width="4px" />
<path d="M 2370.0 105.0 L 2380.0 105.0" stroke="#FF0000" fill="none" stroke-width="4px" />
<path d="M 2380.0 105.0 L 2390.0 105.0" stroke="#FF0000" fill="none" stroke-width="4px" />
<path d="M 2390.0 105.0 L 2400.0 105.0" stroke="#FF0000" fill="none" stroke-width="4px" />
<path d="M 2400.0 105.0 L 2400.0 115.0" stroke="#FF0000" fill="none" stroke-width="4px" />
<path d="M 2400.0 115.0 L 2390.0 115.0" stroke="#FF0000" fill="none" stroke-width="4px" />
<path d="M 2390.0 115.0 L 2380.0 115.0" stroke="#FF0000" fill="none" stroke-width="4px" />
<path d="M 2380.0 115.0 L 2370.0 115.0" stroke="#FF0000" fill="none" stroke-width="4px" />
<path d="M 2370.0 95.0 L 2360.0 95.0" stroke="#FF0000" fill="none" stroke-width="4px" />
<path d="M 2360.0 95.0 L 2350.0 95.0" stroke="#FF0000" fill="none" stroke-width="4px" />
<path d="M 2350.0 95.0 L 2340.0 95.0" stroke="#FF0000" fill="none" stroke-width="4px" />
<path d="M 2340.0 95.0 L 2340.0 85.0" stroke="#FF0000" fill="none" stroke-width="4px" />
<path d="M 2340.0 85.0 L 2350.0 85.0" stroke="#FF0000" fill="none" stroke-width="4px" />
<path d="M 2350.0 85.0 L 2360.0 85.0" stroke="#FF0000" fill="none" stroke-width="4px" />
<path d="M 2360.0 85.0 L 2370.0 85.0" stroke="#FF0000" fill="none" stroke-width="4px" />
<path d="M 2370.0 85.0 L 2380.0 85.0" stroke="#FF0000" fill="none" stroke-width="4px" />
<path d="M 2380.0 85.0 L 2390.0 85.0" stroke="#FF0000" fill="none" stroke-width="4px" />
<path d="M 2390.0 85.0 L 2390.0 95.0" stroke="#FF0000" fill="none" stroke-width="4px" />
<path d="M 2390.0 95.0 L 2380.0 95.0" stroke="#FF0000" fill="none" stroke-width="4px" />
<path d="M 2380.0 75.0 L 2370.0 75.0" stroke="#FF0000" fill="none" stroke-width="4px" />
<path d="M 2370.0 75.0 L 2360.0 75.0" stroke="#FF0000" fill="none" stroke-width="4px" />
<path d="M 2360.0 75.0 L 2350.0 75.0" stroke="#FF0000" fill="none" stroke-width="4px" />
</svg>