<svg width="1332.95833333" height="235.0" xmlns="http://www.w3.org/2000/svg" version="1.1">
<path d="M 0.0 235.0 L 1332.95833333 235.0 L 1332.95833333 0.0 L 0.0 0.0 L 0.0 235.0" stroke="#000000" fill="none" stroke-width="3px" />
<path d="M 10.0 257.5 L 0.0 247.5 L 10.0 237.5" stroke="#969696" fill="none" stroke-width="1px" />
<path d="M 10.0 237.5 L 1322.95833333 237.5" stroke="#969696" fill="none" stroke-width="1px" />
<path d="M 1322.95833333 237.5 L 1332.95833333 227.5 L 1322.95833333 217.5" stroke="#969696" fill="none" stroke-width="1px" />
<path d="M 1322.95833333 217.5 L 10.0 217.5" stroke="#969696" fill="none" stroke-width="1px" />
<path d="M 10.0 217.5 L 0.0 207.5 L 10.0 197.5" stroke="#969696" fill="none" stroke-width="1px" />
<path d="M 10.0 197.5 L 1322.95833333 197.5" stroke="#969696" fill="none" stroke-width="1px" />
<path d="M 1322.95833333 197.5 L 1332.95833333 187.5 L 1322.95833333 177.5" stroke="#969696" fill="none" stroke-width="1px" />
<path d="M 1322.95833333 177.5 L 10.0 177.5" stroke="#969696" fill="none" stroke-width="1px" />
<path d="M 10.0 177.5 L 0.0 167.5 L 10.0 157.5" stroke="#969696" fill="none" stroke-width="1px" />
<path d="M 10.0 157.5 L 1322.95833333 157.5" stroke="#969696" fill="none" stroke-width="1px" />
<path d="M 1322.95833333 157.5 L 1332.95833333 147.5 L 1322.95833333 137.5" stroke="#969696" fill="none" stroke-width="1px" />
<path d="M 1322.95833333 137.5 L 10.0 137.5" stroke="#969696" fill="none" stroke-width="1px" />
<path d="M 10.0 137.5 L 0.0 127.5 L 10.0 117.5" stroke="#969696" fill="none" stroke-width="1px" />
<path d="M 10.0 117.5 L 1322.95833333 117.5" stroke="#969696" fill="none" stroke-width="1px" />
<path d="M 1322.95833333 117.5 L 1332.95833333 107.5 L 1322.95833333 97.5" stroke="#969696" fill="none" stroke-width="1px" />
<path d="M 1322.95833333 97.5 L 10.0 97.5" stroke="#969696" fill="none" stroke-width="1px" />
<path d="M 10.0 97.5 L 0.0 87.5 L 10.0 77.5" stroke="#969696" fill="none" stroke-width="1px" />
<path d="M 10.0 77.5 L 1322.95833333 77.5" stroke="#969696" fill="none" stroke-width="1px" />
<path d="M 1322.95833333 77.5 L 1332.95833333 67.5 L 1322.95833333 57.5" stroke="#969696" fill="none" stroke-width="1px" />
<path d="M 1322.95833333 57.5 L 10.0 57.5" stroke="#969696" fill="none" stroke-width="1px" />
<path d="M 10.0 57.5 L 0.0 47.5 L 10.0 37.5" stroke="#969696" fill="none" stroke-width="1px" />
<path d="M 10.0 37.5 L 1322.95833333 37.5" stroke="#969696" fill="none" stroke-width="1px" />
<path d="M 1322.95833333 37.5 L 1332.95833333 27.5 L 1322.95833333 17.5" stroke="#969696" fill="none" stroke-width="1px" />
<path d="M 1322.95833333 17.5 L 10.0 17.5" stroke="#969696" fill="none" stroke-width="1px" />
<path d="M 10.0 17.5 L 0.0 7.5 L 10.0 -2.5" stroke="#969696" fill="none" stroke-width="1px" />
<path d="M 10.0 -2.5 L 1322.95833333 -2.5" stroke="#969696" fill="none" stroke-width="1px" />
<path d="M 1322.95833333 -2.5 L 1332.95833333 -12.5 L 1322.95833333 -22.5" stroke="#969696" fill="none" stroke-width="1px" />
<path d="M 0.0 235.0 L 140.0 235.0" stroke="#0095FF" fill="none" stroke-width="2px" />
<path d="M 140.0 235.0 L 140.0 95.0" stroke="#0095FF" fill="none" stroke-width="2px" />
<path d="M 140.0 75.0 L 160.0 75.0" stroke="#0095FF" fill="none" stroke-width="2px" />
<path d="M 160.0 75.0 L 160.0 85.0" stroke="#0095FF" fill="none" stroke-width="2px" />
<path d="M 160.0 85.0 L 160.0 55.0" stroke="#0095FF" fill="none" stroke-width="2px" />
<path d="M 160.0 55.0 L 150.0 55.0" stroke="#0095FF" fill="none" stroke-width="2px" />
<path d="M 150.0 55.0 L 150.0 35.0" stroke="#0095FF" fill="none" stroke-width="2px" />
<path d="M 110.0 15.0 L 280.0 15.0" stroke="#0095FF" fill="none" stroke-width="2px" />
<path d="M 280.0 15.0 L 280.0 85.0" stroke="#0095FF" fill="none" stroke-width="2px" />
<path d="M 340.0 95.0 L 330.0 95.0" stroke="#0095FF" fill="none" stroke-width="2px" />
<path d="M 330.0 95.0 L 330.0 115.0" stroke="#0095FF" fill="none" stroke-width="2px" />
<path d="M 320.0 125.0 L 320.0 75.0" stroke="#0095FF" fill="none" stroke-width="2px" />
<path d="M 290.0 75.0 L 410.0 75.0" stroke="#0095FF" fill="none" stroke-width="2px" />
<path d="M 410.0 75.0 L 410.0 95.0" stroke="#0095FF" fill="none" stroke-width="2px" />
<path d="M 440.0 145.0 L 440.0 115.0" stroke="#0095FF" fill="none" stroke-width="2px" />
<path d="M 420.0 115.0 L 450.0 115.0" stroke="#0095FF" fill="none" stroke-width="2px" />
<path d="M 450.0 115.0 L 440.0 115.0" stroke="#0095FF" fill="none" stroke-width="2px" />
<path d="M 440.0 115.0 L 440.0 85.0" stroke="#0095FF" fill="none" stroke-width="2px" />
<path d="M 430.0 55.0 L 430.0 35.0" stroke="#0095FF" fill="none" stroke-width="2px" />
<path d="M 440.0 35.0 L 440.0 15.0" stroke="#0095FF" fill="none" stroke-width="2px" />
<path d="M 470.0 15.0 L 470.0 65.0" stroke="#0095FF" fill="none" stroke-width="2px" />
<path d="M 470.0 65.0 L 580.0 65.0" stroke="#0095FF" fill="none" stroke-width="2px" />
<path d="M 580.0 65.0 L 580.0 165.0" stroke="#0095FF" fill="none" stroke-width="2px" />
<path d="M 570.0 205.0 L 580.0 205.0" stroke="#0095FF" fill="none" stroke-width="2px" />
<path d="M 580.0 205.0 L 580.0 185.0" stroke="#0095FF" fill="none" stroke-width="2px" />
<path d="M 600.0 175.0 L 600.0 215.0" stroke="#0095FF" fill="none" stroke-width="2px" />
<path d="M 610.0 225.0 L 650.0 225.0" stroke="#0095FF" fill="none" stroke-width="2px" />
<path d="M 650.0 225.0 L 650.0 205.0" stroke="#0095FF" fill="none" stroke-width="2px" />
<path d="M 650.0 205.0 L 710.0 205.0" stroke="#0095FF" fill="none" stroke-width="2px" />
<path d="M 710.0 205.0 L 710.0 185.0" stroke="#0095FF" fill="none" stroke-width="2px" />
<path d="M 750.0 205.0 L 750.0 175.0" stroke="#0095FF" fill="none" stroke-width="2px" />
<path d="M 760.0 175.0 L 750.0 175.0" stroke="#0095FF" fill="none" stroke-width="2px" />
<path d="M 750.0 175.0 L 750.0 155.0" stroke="#0095FF" fill="none" stroke-width="2px" />
<path d="M 740.0 145.0 L 740.0 85.0" stroke="#0095FF" fill="none" stroke-width="2px" />
<path d="M 730.0 75.0 L 750.0 75.0" stroke="#0095FF" fill="none" stroke-width="2px" />
<path d="M 750.0 75.0 L 750.0 85.0" stroke="#0095FF" fill="none" stroke-width="2px" />
<path d="M 750.0 85.0 L 750.0 55.0" stroke="#0095FF" fill="none" stroke-width="2px" />
<path d="M 760.0 55.0 L 740.0 55.0" stroke="#0095FF" fill="none" stroke-width="2px" />
<path d="M 740.0 55.0 L 740.0 35.0" stroke="#0095FF" fill="none" stroke-width="2px" />
<path d="M 720.0 35.0 L 960.0 35.0" stroke="#0095FF" fill="none" stroke-width="2px" />
<path d="M 960.0 35.0 L 960.0 85.0" stroke="#0095FF" fill="none" stroke-width="2px" />
<path d="M 990.0 145.0 L 990.0 105.0" stroke="#0095FF" fill="none" stroke-width="2px" />
<path d="M 970.0 105.0 L 1000.0 105.0" stroke="#0095FF" fill="none" stroke-width="2px" />
<path d="M 1010.0 95.0 L 990.0 95.0" stroke="#0095FF" fill="none" stroke-width="2px" />
<path d="M 990.0 95.0 L 990.0 75.0" stroke="#0095FF" fill="none" stroke-width="2px" />
<path d="M 970.0 75.0 L 1120.0 75.0" stroke="#0095FF" fill="none" stroke-width="2px" />
<path d="M 1120.0 75.0 L 1120.0 145.0" stroke="#0095FF" fill="none" stroke-width="2px" />
<path d="M 1140.0 195.0 L 1170.0 195.0" stroke="#0095FF" fill="none" stroke-width="2px" />
<path d="M 1170.0 195.0 L 1170.0 155.0" stroke="#0095FF" fill="none" stroke-width="2px" />
<path d="M 1170.0 155.0 L 1150.0 155.0" stroke="#0095FF" fill="none" stroke-width="2px" />
<path d="M 1150.0 155.0 L 1150.0 135.0" stroke="#0095FF" fill="none" stroke-width="2px" />
<path d="M 1130.0 135.0 L 1170.0 135.0" stroke="#0095FF" fill="none" stroke-width="2px" />
<path d="M 1170.0 135.0 L 1170.0 105.0" stroke="#0095FF" fill="none" stroke-width="2px" />
<path d="M 1220.0 95.0 L 1220.0 75.0" stroke="#0095FF" fill="none" stroke-width="2px" />
<path d="M 1220.0 75.0 L 1200.0 75.0" stroke="#0095FF" fill="none" stroke-width="2px" />
<path d="M 1200.0 75.0 L 1200.0 55.0" stroke="#0095FF" fill="none" stroke-width="2px" />
<path d="M 1190.0 45.0 L 1190.0 115.0" stroke="#0095FF" fill="none" stroke-width="2px" />
<path d="M 140.0 95.0 L 150.0 95.0" stroke="#FF0000" fill="none" stroke-width="4px" />
<path d="M 150.0 95.0 L 150.0 85.0" stroke="#FF0000" fill="none" stroke-width="4px" />
<path d="M 150.0 85.0 L 140.0 85.0" stroke="#FF0000" fill="none" stroke-width="4px" />
<path d="M 140.0 85.0 L 130.0 85.0" stroke="#FF0000" fill="none" stroke-width="4px" />
<path d="M 130.0 85.0 L 130.0 75.0" stroke="#FF0000" fill="none" stroke-width="4px" />
<path d="M 130.0 75.0 L 120.0 75.0" stroke="#FF0000" fill="none" stroke-width="4px" />
<path d="M 120.0 75.0 L 120.0 65.0" stroke="#FF0000" fill="none" stroke-width="4px" />
<path d="M 120.0 65.0 L 110.0 65.0" stroke="#FF0000" fill="none" stroke-width="4px" />
<path d="M 110.0 65.0 L 110.0 55.0" stroke="#FF0000" fill="none" stroke-width="4px" />
<path d="M 110.0 55.0 L 100.0 55.0" stroke="#FF0000" fill="none" stroke-width="4px" />
<path d="M 100.0 55.0 L 100.0 45.0" stroke="#FF0000" fill="none" stroke-width="4px" />
<path d="M 100.0 45.0 L 110.0 45.0" stroke="#FF0000" fill="none" stroke-width="4px" />
<path d="M 110.0 45.0 L 120.0 45.0" stroke="#FF0000" fill="none" stroke-width="4px" />
<path d="M 120.0 45.0 L 130.0 45.0" stroke="#FF0000" fill="none" stroke-width="4px" />
<path d="M 130.0 45.0 L 140.0 45.0" stroke="#FF0000" fill="none" stroke-width="4px" />
<path d="M 140.0 45.0 L 150.0 45.0" stroke="#FF0000" fill="none" stroke-width="4px" />
<path d="M 150.0 45.0 L 150.0 55.0" stroke="#FF0000" fill="none" stroke-width="4px" />
<path d="M 150.0 55.0 L 140.0 55.0" stroke="#FF0000" fill="none" stroke-width="4px" />
<path d="M 140.0 55.0 L 130.0 55.0" stroke="#FF0000" fill="none" stroke-width="4px" />
<path d="M 130.0 55.0 L 120.0 55.0" stroke="#FF0000" fill="none" stroke-width="4px" />
<path d="M 120.0 55.0 L 130.0 65.0" stroke="#FF0000" fill="none" stroke-width="4px" />
<path d="M 130.0 65.0 L 140.0 65.0" stroke="#FF0000" fill="none" stroke-width="4px" />
<path d="M 140.0 65.0 L 150.0 65.0" stroke="#FF0000" fill="none" stroke-width="4px" />
<path d="M 150.0 65.0 L 160.0 65.0" stroke="#FF0000" fill="none" stroke-width="4px" />
<path d="M 160.0 65.0 L 160.0 75.0" stroke="#FF0000" fill="none" stroke-width="4px" />
<path d="M 160.0 75.0 L 150.0 75.0" stroke="#FF0000" fill="none" stroke-width="4px" />
<path d="M 150.0 75.0 L 140.0 75.0" stroke="#FF0000" fill="none" stroke-width="4px" />
<path d="M 150.0 35.0 L 140.0 35.0" stroke="#FF0000" fill="none" stroke-width="4px" />
<path d="M 140.0 35.0 L 130.0 35.0" stroke="#FF0000" fill="none" stroke-width="4px" />
<path d="M 130.0 35.0 L 120.0 35.0" stroke="#FF0000" fill="none" stroke-width="4px" />
<path d="M 120.0 35.0 L 110.0 35.0" stroke="#FF0000" fill="none" stroke-width="4px" />
<path d="M 110.0 35.0 L 100.0 35.0" stroke="#FF0000" fill="none" stroke-width="4px" />
<path d="M 100.0 35.0 L 100.0 25.0" stroke="#FF0000" fill="none" stroke-width="4px" />
<path d="M 100.0 25.0 L 110.0 25.0" stroke="#FF0000" fill="none" stroke-width="4px" />
<path d="M 110.0 25.0 L 120.0 25.0" stroke="#FF0000" fill="none" stroke-width="4px" />
<path d="M 120.0 25.0 L 130.0 25.0" stroke="#FF0000" fill="none" stroke-width="4px" />
<path d="M 130.0 25.0 L 140.0 25.0" stroke="#FF0000" fill="none" stroke-width="4px" />
<path d="M 140.0 25.0 L 130.0 15.0" stroke="#FF0000" fill="none" stroke-width="4px" />
<path d="M 130.0 15.0 L 120.0 15.0" stroke="#FF0000" fill="none" stroke-width="4px" />
<path d="M 120.0 15.0 L 110.0 15.0" stroke="#FF0000" fill="none" stroke-width="4px" />
<path d="M 280.0 85.0 L 290.0 85.0" stroke="#FF0000" fill="none" stroke-width="4px" />
<path d="M 290.0 85.0 L 300.0 85.0" stroke="#FF0000" fill="none" stroke-width="4px" />
<path d="M 300.0 85.0 L 310.0 85.0" stroke="#FF0000" fill="none" stroke-width="4px" />
<path d="M 310.0 85.0 L 320.0 85.0" stroke="#FF0000" fill="none" stroke-width="4px" />
<path d="M 320.0 85.0 L 330.0 85.0" stroke="#FF0000" fill="none" stroke-width="4px" />
<path d="M 330.0 85.0 L 330.0 95.0" stroke="#FF0000" fill="none" stroke-width="4px" />
<path d="M 330.0 95.0 L 320.0 95.0" stroke="#FF0000" fill="none" stroke-width="4px" />
<path d="M 320.0 95.0 L 310.0 95.0" stroke="#FF0000" fill="none" stroke-width="4px" />
<path d="M 310.0 95.0 L 300.0 95.0" stroke="#FF0000" fill="none" stroke-width="4px" />
<path d="M 300.0 95.0 L 290.0 95.0" stroke="#FF0000" fill="none" stroke-width="4px" />
<path d="M 290.0 95.0 L 280.0 95.0" stroke="#FF0000" fill="none" stroke-width="4px" />
<path d="M 280.0 95.0 L 290.0 105.0" stroke="#FF0000" fill="none" stroke-width="4px" />
<path d="M 290.0 105.0 L 300.0 105.0" stroke="#FF0000" fill="none" stroke-width="4px" />
<path d="M 300.0 105.0 L 310.0 105.0" stroke="#FF0000" fill="none" stroke-width="4px" />
<path d="M 310.0 105.0 L 320.0 105.0" stroke="#FF0000" fill="none" stroke-width="4px" />
<path d="M 320.0 105.0 L 330.0 105.0" stroke="#FF0000" fill="none" stroke-width="4px" />
<path d="M 330.0 105.0 L 340.0 105.0" stroke="#FF0000" fill="none" stroke-width="4px" />
<path d="M 340.0 105.0 L 340.0 95.0" stroke="#FF0000" fill="none" stroke-width="4px" />
<path d="M 330.0 115.0 L 320.0 115.0" stroke="#FF0000" fill="none" stroke-width="4px" />
<path d="M 320.0 115.0 L 310.0 115.0" stroke="#FF0000" fill="none" stroke-width="4px" />
<path d="M 310.0 115.0 L 300.0 115.0" stroke="#FF0000" fill="none" stroke-width="4px" />
<path d="M 300.0 115.0 L 310.0 125.0" stroke="#FF0000" fill="none" stroke-width="4px" />
<path d="M 310.0 125.0 L 320.0 125.0" stroke="#FF0000" fill="none" stroke-width="4px" />
<path d="M 320.0 75.0 L 310.0 75.0" stroke="#FF0000" fill="none" stroke-width="4px" />
<path d="M 310.0 75.0 L 300.0 75.0" stroke="#FF0000" fill="none" stroke-width="4px" />
<path d="M 300.0 75.0 L 290.0 75.0" stroke="#FF0000" fill="none" stroke-width="4px" />
<path d="M 410.0 95.0 L 420.0 95.0" stroke="#FF0000" fill="none" stroke-width="4px" />
<path d="M 420.0 95.0 L 430.0 95.0" stroke="#FF0000" fill="none" stroke-width="4px" />
<path d="M 430.0 95.0 L 440.0 95.0" stroke="#FF0000" fill="none" stroke-width="4px" />
<path d="M 440.0 95.0 L 450.0 95.0" stroke="#FF0000" fill="none" stroke-width="4px" />
<path d="M 450.0 95.0 L 450.0 105.0" stroke="#FF0000" fill="none" stroke-width="4px" />
<path d="M 450.0 105.0 L 440.0 105.0" stroke="#FF0000" fill="none" stroke-width="4px" />
<path d="M 440.0 105.0 L 430.0 105.0" stroke="#FF0000" fill="none" stroke-width="4px" />
<path d="M 430.0 105.0 L 420.0 105.0" stroke="#FF0000" fill="none" stroke-width="4px" />
<path d="M 420.0 105.0 L 410.0 105.0" stroke="#FF0000" fill="none" stroke-width="4px" />
<path d="M 410.0 105.0 L 410.0 115.0" stroke="#FF0000" fill="none" stroke-width="4px" />
<path d="M 410.0 115.0 L 400.0 115.0" stroke="#FF0000" fill="none" stroke-width="4px" />
<path d="M 400.0 115.0 L 410.0 125.0" stroke="#FF0000" fill="none" stroke-width="4px" />
<path d="M 410.0 125.0 L 420.0 125.0" stroke="#FF0000" fill="none" stroke-width="4px" />
<path d="M 420.0 125.0 L 430.0 125.0" stroke="#FF0000" fill="none" stroke-width="4px" />
<path d="M 430.0 125.0 L 440.0 125.0" stroke="#FF0000" fill="none" stroke-width="4px" />
<path d="M 440.0 125.0 L 450.0 125.0" stroke="#FF0000" fill="none" stroke-width="4px" />
<path d="M 450.0 125.0 L 450.0 135.0" stroke="#FF0000" fill="none" stroke-width="4px" />
<path d="M 450.0 135.0 L 440.0 135.0" stroke="#FF0000" fill="none" stroke-width="4px" />
<path d="M 440.0 135.0 L 430.0 135.0" stroke="#FF0000" fill="none" stroke-width="4px" />
<path d="M 430.0 135.0 L 420.0 135.0" stroke="#FF0000" fill="none" stroke-width="4px" />
<path d="M 420.0 135.0 L 430.0 145.0" stroke="#FF0000" fill="none" stroke-width="4px" />
<path d="M 430.0 145.0 L 440.0 145.0" stroke="#FF0000" fill="none" stroke-width="4px" />
<path d="M 440.0 115.0 L 430.0 115.0" stroke="#FF0000" fill="none" stroke-width="4px" />
<path d="M 430.0 115.0 L 420.0 115.0" stroke="#FF0000" fill="none" stroke-width="4px" />
<path d="M 440.0 85.0 L 430.0 85.0" stroke="#FF0000" fill="none" stroke-width="4px" />
<path d="M 430.0 85.0 L 420.0 85.0" stroke="#FF0000" fill="none" stroke-width="4px" />
<path d="M 420.0 85.0 L 430.0 75.0" stroke="#FF0000" fill="none" stroke-width="4px" />
<path d="M 430.0 75.0 L 440.0 75.0" stroke="#FF0000" fill="none" stroke-width="4px" />
<path d="M 440.0 75.0 L 450.0 75.0" stroke="#FF0000" fill="none" stroke-width="4px" />
<path d="M 450.0 75.0 L 460.0 75.0" stroke="#FF0000" fill="none" stroke-width="4px" />
<path d="M 460.0 75.0 L 460.0 65.0" stroke="#FF0000" fill="none" stroke-width="4px" />
<path d="M 460.0 65.0 L 450.0 65.0" stroke="#FF0000" fill="none" stroke-width="4px" />
<path d="M 450.0 65.0 L 440.0 65.0" stroke="#FF0000" fill="none" stroke-width="4px" />
<path d="M 440.0 65.0 L 430.0 65.0" stroke="#FF0000" fill="none" stroke-width="4px" />
<path d="M 430.0 65.0 L 420.0 65.0" stroke="#FF0000" fill="none" stroke-width="4px" />
<path d="M 420.0 65.0 L 420.0 55.0" stroke="#FF0000" fill="none" stroke-width="4px" />
<path d="M 420.0 55.0 L 410.0 55.0" stroke="#FF0000" fill="none" stroke-width="4px" />
<path d="M 410.0 55.0 L 410.0 45.0" stroke="#FF0000" fill="none" stroke-width="4px" />
<path d="M 410.0 45.0 L 420.0 45.0" stroke="#FF0000" fill="none" stroke-width="4px" />
<path d="M 420.0 45.0 L 430.0 45.0" stroke="#FF0000" fill="none" stroke-width="4px" />
<path d="M 430.0 45.0 L 440.0 45.0" stroke="#FF0000" fill="none" stroke-width="4px" />
<path d="M 440.0 45.0 L 450.0 45.0" stroke="#FF0000" fill="none" stroke-width="4px" />
<path d="M 450.0 45.0 L 460.0 45.0" stroke="#FF0000" fill="none" stroke-width="4px" />
<path d="M 460.0 45.0 L 470.0 45.0" stroke="#FF0000" fill="none" stroke-width="4px" />
<path d="M 470.0 45.0 L 480.0 45.0" stroke="#FF0000" fill="none" stroke-width="4px" />
<path d="M 480.0 45.0 L 480.0 55.0" stroke="#FF0000" fill="none" stroke-width="4px" />
<path d="M 480.0 55.0 L 470.0 55.0" stroke="#FF0000" fill="none" stroke-width="4px" />
<path d="M 470.0 55.0 L 460.0 55.0" stroke="#FF0000" fill="none" stroke-width="4px" />
<path d="M 460.0 55.0 L 450.0 55.0" stroke="#FF0000" fill="none" stroke-width="4px" />
<path d="M 450.0 55.0 L 440.0 55.0" stroke="#FF0000" fill="none" stroke-width="4px" />
<path d="M 440.0 55.0 L 430.0 55.0" stroke="#FF0000" fill="none" stroke-width="4px" />
<path d="M 430.0 35.0 L 420.0 35.0" stroke="#FF0000" fill="none" stroke-width="4px" />
<path d="M 420.0 35.0 L 410.0 35.0" stroke="#FF0000" fill="none" stroke-width="4px" />
<path d="M 410.0 35.0 L 410.0 25.0" stroke="#FF0000" fill="none" stroke-width="4px" />
<path d="M 410.0 25.0 L 420.0 25.0" stroke="#FF0000" fill="none" stroke-width="4px" />
<path d="M 420.0 25.0 L 430.0 25.0" stroke="#FF0000" fill="none" stroke-width="4px" />
<path d="M 430.0 25.0 L 440.0 25.0" stroke="#FF0000" fill="none" stroke-width="4px" />
<path d="M 440.0 25.0 L 450.0 25.0" stroke="#FF0000" fill="none" stroke-width="4px" />
<path d="M 450.0 25.0 L 460.0 25.0" stroke="#FF0000" fill="none" stroke-width="4px" />
<path d="M 460.0 25.0 L 470.0 25.0" stroke="#FF0000" fill="none" stroke-width="4px" />
<path d="M 470.0 25.0 L 480.0 25.0" stroke="#FF0000" fill="none" stroke-width="4px" />
<path d="M 480.0 25.0 L 480.0 35.0" stroke="#FF0000" fill="none" stroke-width="4px" />
<path d="M 480.0 35.0 L 470.0 35.0" stroke="#FF0000" fill="none" stroke-width="4px" />
<path d="M 470.0 35.0 L 460.0 35.0" stroke="#FF0000" fill="none" stroke-width="4px" />
<path d="M 460.0 35.0 L 450.0 35.0" stroke="#FF0000" fill="none" stroke-width="4px" />
<path d="M 450.0 35.0 L 440.0 35.0" stroke="#FF0000" fill="none" stroke-width="4px" />
<path d="M 440.0 15.0 L 430.0 15.0" stroke="#FF0000" fill="none" stroke-width="4px" />
<path d="M 430.0 15.0 L 420.0 15.0" stroke="#FF0000" fill="none" stroke-width="4px" />
<path d="M 420.0 15.0 L 430.0 5.0" stroke="#FF0000" fill="none" stroke-width="4px" />
<path d="M 430.0 5.0 L 440.0 5.0" stroke="#FF0000" fill="none" stroke-width="4px" />
<path d="M 440.0 5.0 L 450.0 5.0" stroke="#FF0000" fill="none" stroke-width="4px" />
<path d="M 450.0 5.0 L 450.0 15.0" stroke="#FF0000" fill="none" stroke-width="4px" />
<path d="M 450.0 15.0 L 460.0 15.0" stroke="#FF0000" fill="none" stroke-width="4px" />
<path d="M 460.0 15.0 L 470.0 15.0" stroke="#FF0000" fill="none" stroke-width="4px" />
<path d="M 580.0 165.0 L 590.0 165.0" stroke="#FF0000" fill="none" stroke-width="4px" />
<path d="M 590.0 165.0 L 590.0 175.0" stroke="#FF0000" fill="none" stroke-width="4px" />
<path d="M 590.0 175.0 L 580.0 175.0" stroke="#FF0000" fill="none" stroke-width="4px" />
<path d="M 580.0 175.0 L 570.0 175.0" stroke="#FF0000" fill="none" stroke-width="4px" />
<path d="M 570.0 175.0 L 570.0 185.0" stroke="#FF0000" fill="none" stroke-width="4px" />
<path d="M 570.0 185.0 L 560.0 185.0" stroke="#FF0000" fill="none" stroke-width="4px" />
<path d="M 560.0 185.0 L 560.0 195.0" stroke="#FF0000" fill="none" stroke-width="4px" />
<path d="M 560.0 195.0 L 570.0 195.0" stroke="#FF0000" fill="none" stroke-width="4px" />
<path d="M 570.0 195.0 L 580.0 195.0" stroke="#FF0000" fill="none" stroke-width="4px" />
<path d="M 580.0 195.0 L 590.0 195.0" stroke="#FF0000" fill="none" stroke-width="4px" />
<path d="M 590.0 195.0 L 600.0 195.0" stroke="#FF0000" fill="none" stroke-width="4px" />
<path d="M 600.0 195.0 L 610.0 195.0" stroke="#FF0000" fill="none" stroke-width="4px" />
<path d="M 610.0 195.0 L 620.0 195.0" stroke="#FF0000" fill="none" stroke-width="4px" />
<path d="M 620.0 195.0 L 630.0 195.0" stroke="#FF0000" fill="none" stroke-width="4px" />
<path d="M 630.0 195.0 L 640.0 195.0" stroke="#FF0000" fill="none" stroke-width="4px" />
<path d="M 640.0 195.0 L 640.0 205.0" stroke="#FF0000" fill="none" stroke-width="4px" />
<path d="M 640.0 205.0 L 630.0 205.0" stroke="#FF0000" fill="none" stroke-width="4px" />
<path d="M 630.0 205.0 L 620.0 205.0" stroke="#FF0000" fill="none" stroke-width="4px" />
<path d="M 620.0 205.0 L 610.0 205.0" stroke="#FF0000" fill="none" stroke-width="4px" />
<path d="M 610.0 205.0 L 600.0 205.0" stroke="#FF0000" fill="none" stroke-width="4px" />
<path d="M 600.0 205.0 L 590.0 205.0" stroke="#FF0000" fill="none" stroke-width="4px" />
<path d="M 590.0 205.0 L 580.0 205.0" stroke="#FF0000" fill="none" stroke-width="4px" />
<path d="M 580.0 205.0 L 570.0 205.0" stroke="#FF0000" fill="none" stroke-width="4px" />
<path d="M 580.0 185.0 L 590.0 185.0" stroke="#FF0000" fill="none" stroke-width="4px" />
<path d="M 590.0 185.0 L 600.0 185.0" stroke="#FF0000" fill="none" stroke-width="4px" />
<path d="M 600.0 185.0 L 610.0 185.0" stroke="#FF0000" fill="none" stroke-width="4px" />
<path d="M 610.0 185.0 L 620.0 185.0" stroke="#FF0000" fill="none" stroke-width="4px" />
<path d="M 620.0 185.0 L 630.0 185.0" stroke="#FF0000" fill="none" stroke-width="4px" />
<path d="M 630.0 185.0 L 620.0 175.0" stroke="#FF0000" fill="none" stroke-width="4px" />
<path d="M 620.0 175.0 L 610.0 175.0" stroke="#FF0000" fill="none" stroke-width="4px" />
<path d="M 610.0 175.0 L 600.0 175.0" stroke="#FF0000" fill="none" stroke-width="4px" />
<path d="M 600.0 215.0 L 610.0 215.0" stroke="#FF0000" fill="none" stroke-width="4px" />
<path d="M 610.0 215.0 L 620.0 215.0" stroke="#FF0000" fill="none" stroke-width="4px" />
<path d="M 620.0 215.0 L 630.0 215.0" stroke="#FF0000" fill="none" stroke-width="4px" />
<path d="M 630.0 215.0 L 640.0 215.0" stroke="#FF0000" fill="none" stroke-width="4px" />
<path d="M 640.0 215.0 L 630.0 225.0" stroke="#FF0000" fill="none" stroke-width="4px" />
<path d="M 630.0 225.0 L 620.0 225.0" stroke="#FF0000" fill="none" stroke-width="4px" />
<path d="M 620.0 225.0 L 610.0 225.0" stroke="#FF0000" fill="none" stroke-width="4px" />
<path d="M 710.0 185.0 L 720.0 185.0" stroke="#FF0000" fill="none" stroke-width="4px" />
<path d="M 720.0 185.0 L 730.0 185.0" stroke="#FF0000" fill="none" stroke-width="4px" />
<path d="M 730.0 185.0 L 740.0 185.0" stroke="#FF0000" fill="none" stroke-width="4px" />
<path d="M 740.0 185.0 L 750.0 185.0" stroke="#FF0000" fill="none" stroke-width="4px" />
<path d="M 750.0 185.0 L 760.0 185.0" stroke="#FF0000" fill="none" stroke-width="4px" />
<path d="M 760.0 185.0 L 760.0 195.0" stroke="#FF0000" fill="none" stroke-width="4px" />
<path d="M 760.0 195.0 L 750.0 195.0" stroke="#FF0000" fill="none" stroke-width="4px" />
<path d="M 750.0 195.0 L 740.0 195.0" stroke="#FF0000" fill="none" stroke-width="4px" />
<path d="M 740.0 195.0 L 730.0 195.0" stroke="#FF0000" fill="none" stroke-width="4px" />
<path d="M 730.0 195.0 L 720.0 195.0" stroke="#FF0000" fill="none" stroke-width="4px" />
<path d="M 720.0 195.0 L 730.0 205.0" stroke="#FF0000" fill="none" stroke-width="4px" />
<path d="M 730.0 205.0 L 740.0 205.0" stroke="#FF0000" fill="none" stroke-width="4px" />
<path d="M 740.0 205.0 L 750.0 205.0" stroke="#FF0000" fill="none" stroke-width="4px" />
<path d="M 750.0 175.0 L 740.0 175.0" stroke="#FF0000" fill="none" stroke-width="4px" />
<path d="M 740.0 175.0 L 730.0 175.0" stroke="#FF0000" fill="none" stroke-width="4px" />
<path d="M 730.0 175.0 L 720.0 175.0" stroke="#FF0000" fill="none" stroke-width="4px" />
<path d="M 720.0 175.0 L 710.0 175.0" stroke="#FF0000" fill="none" stroke-width="4px" />
<path d="M 710.0 175.0 L 710.0 165.0" stroke="#FF0000" fill="none" stroke-width="4px" />
<path d="M 710.0 165.0 L 720.0 165.0" stroke="#FF0000" fill="none" stroke-width="4px" />
<path d="M 720.0 165.0 L 730.0 165.0" stroke="#FF0000" fill="none" stroke-width="4px" />
<path d="M 730.0 165.0 L 740.0 165.0" stroke="#FF0000" fill="none" stroke-width="4px" />
<path d="M 740.0 165.0 L 750.0 165.0" stroke="#FF0000" fill="none" stroke-width="4px" />
<path d="M 750.0 165.0 L 760.0 165.0" stroke="#FF0000" fill="none" stroke-width="4px" />
<path d="M 760.0 165.0 L 760.0 175.0" stroke="#FF0000" fill="none" stroke-width="4px" />
<path d="M 750.0 155.0 L 740.0 155.0" stroke="#FF0000" fill="none" stroke-width="4px" />
<path d="M 740.0 155.0 L 730.0 155.0" stroke="#FF0000" fill="none" stroke-width="4px" />
<path d="M 730.0 155.0 L 720.0 155.0" stroke="#FF0000" fill="none" stroke-width="4px" />
<path d="M 720.0 155.0 L 730.0 145.0" stroke="#FF0000" fill="none" stroke-width="4px" />
<path d="M 730.0 145.0 L 740.0 145.0" stroke="#FF0000" fill="none" stroke-width="4px" />
<path d="M 740.0 85.0 L 730.0 85.0" stroke="#FF0000" fill="none" stroke-width="4px" />
<path d="M 730.0 85.0 L 720.0 85.0" stroke="#FF0000" fill="none" stroke-width="4px" />
<path d="M 720.0 85.0 L 720.0 75.0" stroke="#FF0000" fill="none" stroke-width="4px" />
<path d="M 720.0 75.0 L 710.0 75.0" stroke="#FF0000" fill="none" stroke-width="4px" />
<path d="M 710.0 75.0 L 710.0 65.0" stroke="#FF0000" fill="none" stroke-width="4px" />
<path d="M 710.0 65.0 L 720.0 65.0" stroke="#FF0000" fill="none" stroke-width="4px" />
<path d="M 720.0 65.0 L 730.0 65.0" stroke="#FF0000" fill="none" stroke-width="4px" />
<path d="M 730.0 65.0 L 740.0 65.0" stroke="#FF0000" fill="none" stroke-width="4px" />
<path d="M 740.0 65.0 L 750.0 65.0" stroke="#FF0000" fill="none" stroke-width="4px" />
<path d="M 750.0 65.0 L 760.0 65.0" stroke="#FF0000" fill="none" stroke-width="4px" />
<path d="M 760.0 65.0 L 760.0 75.0" stroke="#FF0000" fill="none" stroke-width="4px" />
<path d="M 760.0 75.0 L 750.0 75.0" stroke="#FF0000" fill="none" stroke-width="4px" />
<path d="M 750.0 75.0 L 740.0 75.0" stroke="#FF0000" fill="none" stroke-width="4px" />
<path d="M 740.0 75.0 L 730.0 75.0" stroke="#FF0000" fill="none" stroke-width="4px" />
<path d="M 750.0 55.0 L 740.0 55.0" stroke="#FF0000" fill="none" stroke-width="4px" />
<path d="M 740.0 55.0 L 730.0 55.0" stroke="#FF0000" fill="none" stroke-width="4px" />
<path d="M 730.0 55.0 L 720.0 55.0" stroke="#FF0000" fill="none" stroke-width="4px" />
<path d="M 720.0 55.0 L 710.0 55.0" stroke="#FF0000" fill="none" stroke-width="4px" />
<path d="M 710.0 55.0 L 700.0 55.0" stroke="#FF0000" fill="none" stroke-width="4px" />
<path d="M 700.0 55.0 L 710.0 45.0" stroke="#FF0000" fill="none" stroke-width="4px" />
<path d="M 710.0 45.0 L 720.0 45.0" stroke="#FF0000" fill="none" stroke-width="4px" />
<path d="M 720.0 45.0 L 730.0 45.0" stroke="#FF0000" fill="none" stroke-width="4px" />
<path d="M 730.0 45.0 L 740.0 45.0" stroke="#FF0000" fill="none" stroke-width="4px" />
<path d="M 740.0 45.0 L 750.0 45.0" stroke="#FF0000" fill="none" stroke-width="4px" />
<path d="M 750.0 45.0 L 760.0 55.0" stroke="#FF0000" fill="none" stroke-width="4px" />
<path d="M 740.0 35.0 L 730.0 35.0" stroke="#FF0000" fill="none" stroke-width="4px" />
<path d="M 730.0 35.0 L 720.0 35.0" stroke="#FF0000" fill="none" stroke-width="4px" />
<path d="M 960.0 85.0 L 970.0 85.0" stroke="#FF0000" fill="none" stroke-width="4px" />
<path d="M 970.0 85.0 L 980.0 85.0" stroke="#FF0000" fill="none" stroke-width="4px" />
<path d="M 980.0 85.0 L 990.0 85.0" stroke="#FF0000" fill="none" stroke-width="4px" />
<path d="M 990.0 85.0 L 1000.0 85.0" stroke="#FF0000" fill="none" stroke-width="4px" />
<path d="M 1000.0 85.0 L 1000.0 95.0" stroke="#FF0000" fill="none" stroke-width="4px" />
<path d="M 1000.0 95.0 L 990.0 95.0" stroke="#FF0000" fill="none" stroke-width="4px" />
<path d="M 990.0 95.0 L 980.0 95.0" stroke="#FF0000" fill="none" stroke-width="4px" />
<path d="M 980.0 95.0 L 970.0 95.0" stroke="#FF0000" fill="none" stroke-width="4px" />
<path d="M 970.0 95.0 L 960.0 95.0" stroke="#FF0000" fill="none" stroke-width="4px" />
<path d="M 960.0 95.0 L 960.0 105.0" stroke="#FF0000" fill="none" stroke-width="4px" />
<path d="M 960.0 105.0 L 950.0 105.0" stroke="#FF0000" fill="none" stroke-width="4px" />
<path d="M 950.0 105.0 L 960.0 115.0" stroke="#FF0000" fill="none" stroke-width="4px" />
<path d="M 960.0 115.0 L 970.0 115.0" stroke="#FF0000" fill="none" stroke-width="4px" />
<path d="M 970.0 115.0 L 980.0 115.0" stroke="#FF0000" fill="none" stroke-width="4px" />
<path d="M 980.0 115.0 L 990.0 115.0" stroke="#FF0000" fill="none" stroke-width="4px" />
<path d="M 990.0 115.0 L 1000.0 115.0" stroke="#FF0000" fill="none" stroke-width="4px" />
<path d="M 1000.0 115.0 L 1010.0 115.0" stroke="#FF0000" fill="none" stroke-width="4px" />
<path d="M 1010.0 115.0 L 1020.0 115.0" stroke="#FF0000" fill="none" stroke-width="4px" />
<path d="M 1020.0 115.0 L 1010.0 125.0" stroke="#FF0000" fill="none" stroke-width="4px" />
<path d="M 1010.0 125.0 L 1000.0 125.0" stroke="#FF0000" fill="none" stroke-width="4px" />
<path d="M 1000.0 125.0 L 990.0 125.0" stroke="#FF0000" fill="none" stroke-width="4px" />
<path d="M 990.0 125.0 L 980.0 125.0" stroke="#FF0000" fill="none" stroke-width="4px" />
<path d="M 980.0 125.0 L 970.0 125.0" stroke="#FF0000" fill="none" stroke-width="4px" />
<path d="M 970.0 125.0 L 960.0 125.0" stroke="#FF0000" fill="none" stroke-width="4px" />
<path d="M 960.0 125.0 L 970.0 135.0" stroke="#FF0000" fill="none" stroke-width="4px" />
<path d="M 970.0 135.0 L 980.0 135.0" stroke="#FF0000" fill="none" stroke-width="4px" />
<path d="M 980.0 135.0 L 990.0 135.0" stroke="#FF0000" fill="none" stroke-width="4px" />
<path d="M 990.0 135.0 L 1000.0 135.0" stroke="#FF0000" fill="none" stroke-width="4px" />
<path d="M 1000.0 135.0 L 1010.0 135.0" stroke="#FF0000" fill="none" stroke-width="4px" />
<path d="M 1010.0 135.0 L 1000.0 145.0" stroke="#FF0000" fill="none" stroke-width="4px" />
<path d="M 1000.0 145.0 L 990.0 145.0" stroke="#FF0000" fill="none" stroke-width="4px" />
<path d="M 990.0 105.0 L 980.0 105.0" stroke="#FF0000" fill="none" stroke-width="4px" />
<path d="M 980.0 105.0 L 970.0 105.0" stroke="#FF0000" fill="none" stroke-width="4px" />
<path d="M 1000.0 105.0 L 1010.0 105.0" stroke="#FF0000" fill="none" stroke-width="4px" />
<path d="M 1010.0 105.0 L 1010.0 95.0" stroke="#FF0000" fill="none" stroke-width="4px" />
<path d="M 990.0 75.0 L 980.0 75.0" stroke="#FF0000" fill="none" stroke-width="4px" />
<path d="M 980.0 75.0 L 970.0 75.0" stroke="#FF0000" fill="none" stroke-width="4px" />
<path d="M 1120.0 145.0 L 1130.0 145.0" stroke="#FF0000" fill="none" stroke-width="4px" />
<path d="M 1130.0 145.0 L 1140.0 145.0" stroke="#FF0000" fill="none" stroke-width="4px" />
<path d="M 1140.0 145.0 L 1150.0 145.0" stroke="#FF0000" fill="none" stroke-width="4px" />
<path d="M 1150.0 145.0 L 1160.0 145.0" stroke="#FF0000" fill="none" stroke-width="4px" />
<path d="M 1160.0 145.0 L 1160.0 155.0" stroke="#FF0000" fill="none" stroke-width="4px" />
<path d="M 1160.0 155.0 L 1150.0 155.0" stroke="#FF0000" fill="none" stroke-width="4px" />
<path d="M 1150.0 155.0 L 1140.0 155.0" stroke="#FF0000" fill="none" stroke-width="4px" />
<path d="M 1140.0 155.0 L 1130.0 155.0" stroke="#FF0000" fill="none" stroke-width="4px" />
<path d="M 1130.0 155.0 L 1120.0 155.0" stroke="#FF0000" fill="none" stroke-width="4px" />
<path d="M 1120.0 155.0 L 1120.0 165.0" stroke="#FF0000" fill="none" stroke-width="4px" />
<path d="M 1120.0 165.0 L 1130.0 165.0" stroke="#FF0000" fill="none" stroke-width="4px" />
<path d="M 1130.0 165.0 L 1140.0 165.0" stroke="#FF0000" fill="none" stroke-width="4px" />
<path d="M 1140.0 165.0 L 1150.0 165.0" stroke="#FF0000" fill="none" stroke-width="4px" />
<path d="M 1150.0 165.0 L 1160.0 165.0" stroke="#FF0000" fill="none" stroke-width="4px" />
<path d="M 1160.0 165.0 L 1170.0 165.0" stroke="#FF0000" fill="none" stroke-width="4px" />
<path d="M 1170.0 165.0 L 1180.0 165.0" stroke="#FF0000" fill="none" stroke-width="4px" />
<path d="M 1180.0 165.0 L 1170.0 175.0" stroke="#FF0000" fill="none" stroke-width="4px" />
<path d="M 1170.0 175.0 L 1160.0 175.0" stroke="#FF0000" fill="none" stroke-width="4px" />
<path d="M 1160.0 175.0 L 1150.0 175.0" stroke="#FF0000" fill="none" stroke-width="4px" />
<path d="M 1150.0 175.0 L 1140.0 175.0" stroke="#FF0000" fill="none" stroke-width="4px" />
<path d="M 1140.0 175.0 L 1130.0 175.0" stroke="#FF0000" fill="none" stroke-width="4px" />
<path d="M 1130.0 175.0 L 1120.0 175.0" stroke="#FF0000" fill="none" stroke-width="4px" />
<path d="M 1120.0 175.0 L 1130.0 185.0" stroke="#FF0000" fill="none" stroke-width="4px" />
<path d="M 1130.0 185.0 L 1140.0 185.0" stroke="#FF0000" fill="none" stroke-width="4px" />
<path d="M 1140.0 185.0 L 1150.0 185.0" stroke="#FF0000" fill="none" stroke-width="4px" />
<path d="M 1150.0 185.0 L 1160.0 185.0" stroke="#FF0000" fill="none" stroke-width="4px" />
<path d="M 1160.0 185.0 L 1170.0 185.0" stroke="#FF0000" fill="none" stroke-width="4px" />
<path d="M 1170.0 185.0 L 1160.0 195.0" stroke="#FF0000" fill="none" stroke-width="4px" />
<path d="M 1160.0 195.0 L 1150.0 195.0" stroke="#FF0000" fill="none" stroke-width="4px" />
<path d="M 1150.0 195.0 L 1140.0 195.0" stroke="#FF0000" fill="none" stroke-width="4px" />
<path d="M 1150.0 135.0 L 1140.0 135.0" stroke="#FF0000" fill="none" stroke-width="4px" />
<path d="M 1140.0 135.0 L 1130.0 135.0" stroke="#FF0000" fill="none" stroke-width="4px" />
<path d="M 1170.0 105.0 L 1180.0 105.0" stroke="#FF0000" fill="none" stroke-width="4px" />
<path d="M 1180.0 105.0 L 1190.0 105.0" stroke="#FF0000" fill="none" stroke-width="4px" />
<path d="M 1190.0 105.0 L 1200.0 105.0" stroke="#FF0000" fill="none" stroke-width="4px" />
<path d="M 1200.0 105.0 L 1210.0 105.0" stroke="#FF0000" fill="none" stroke-width="4px" />
<path d="M 1210.0 105.0 L 1210.0 95.0" stroke="#FF0000" fill="none" stroke-width="4px" />
<path d="M 1210.0 95.0 L 1200.0 95.0" stroke="#FF0000" fill="none" stroke-width="4px" />
<path d="M 1200.0 95.0 L 1190.0 95.0" stroke="#FF0000" fill="none" stroke-width="4px" />
<path d="M 1190.0 95.0 L 1180.0 95.0" stroke="#FF0000" fill="none" stroke-width="4px" />
<path d="M 1180.0 95.0 L 1170.0 95.0" stroke="#FF0000" fill="none" stroke-width="4px" />
<path d="M 1170.0 95.0 L 1170.0 85.0" stroke="#FF0000" fill="none" stroke-width="4px" />
<path d="M 1170.0 85.0 L 1160.0 85.0" stroke="#FF0000" fill="none" stroke-width="4px" />
<path d="M 1160.0 85.0 L 1160.0 75.0" stroke="#FF0000" fill="none" stroke-width="4px" />
<path d="M 1160.0 75.0 L 1150.0 75.0" stroke="#FF0000" fill="none" stroke-width="4px" />
<path d="M 1150.0 75.0 L 1150.0 65.0" stroke="#FF0000" fill="none" stroke-width="4px" />
<path d="M 1150.0 65.0 L 1160.0 65.0" stroke="#FF0000" fill="none" stroke-width="4px" />
<path d="M 1160.0 65.0 L 1170.0 65.0" stroke="#FF0000" fill="none" stroke-width="4px" />
<path d="M 1170.0 65.0 L 1180.0 65.0" stroke="#FF0000" fill="none" stroke-width="4px" />
<path d="M 1180.0 65.0 L 1190.0 65.0" stroke="#FF0000" fill="none" stroke-width="4px" />
<path d="M 1190.0 65.0 L 1200.0 65.0" stroke="#FF0000" fill="none" stroke-width="4px" />
<path d="M 1200.0 65.0 L 1210.0 65.0" stroke="#FF0000" fill="none" stroke-width="4px" />
<path d="M 1210.0 65.0 L 1210.0 75.0" stroke="#FF0000" fill="none" stroke-width="4px" />
<path d="M 1210.0 75.0 L 1200.0 75.0" stroke="#FF0000" fill="none" stroke-width="4px" />
<path d="M 1200.0 75.0 L 1190.0 75.0" stroke="#FF0000" fill="none" stroke-width="4px" />
<path d="M 1190.0 75.0 L 1180.0 75.0" stroke="#FF0000" fill="none" stroke-width="4px" />
<path d="M 1180.0 75.0 L 1170.0 75.0" stroke="#FF0000" fill="none" stroke-width="4px" />
<path d="M 1170.0 75.0 L 1180.0 85.0" stroke="#FF0000" fill="none" stroke-width="4px" />
<path d="M 1180.0 85.0 L 1190.0 85.0" stroke="#FF0000" fill="none" stroke-width="4px" />
<path d="M 1190.0 85.0 L 1200.0 85.0" stroke="#FF0000" fill="none" stroke-width="4px" />
<path d="M 1200.0 85.0 L 1210.0 85.0" stroke="#FF0000" fill="none" stroke-width="4px" />
<path d="M 1210.0 85.0 L 1220.0 85.0" stroke="#FF0000" fill="none" stroke-width="4px" />
<path d="M 1220.0 85.0 L 1220.0 95.0" stroke="#FF0000" fill="none" stroke-width="4px" />
<path d="M 1200.0 55.0 L 1190.0 55.0" stroke="#FF0000" fill="none" stroke-width="4px" />
<path d="M 1190.0 55.0 L 1180.0 55.0" stroke="#FF0000" fill="none" stroke-width="4px" />
<path d="M 1180.0 55.0 L 1170.0 55.0" stroke="#FF0000" fill="none" stroke-width="4px" />
<path d="M 1170.0 55.0 L 1160.0 55.0" stroke="#FF0000" fill="none" stroke-width="4px" />
<path d="M 1160.0 55.0 L 1170.0 45.0" stroke="#FF0000" fill="none" stroke-width="4px" />
<path d="M 1170.0 45.0 L 1180.0 45.0" stroke="#FF0000" fill="none" stroke-width="4px" />
<path d="M 1180.0 45.0 L 1190.0 45.0" stroke="#FF0000" fill="none" stroke-width="4px" />
<path d="M 1190.0 115.0 L 1200.0 115.0" stroke="#FF0000" fill="none" stroke-width="4px" />
</svg>