<svg width="1332.95833333" height="235.0" xmlns="http://www.w3.org/2000/svg" version="1.1">
<path d="M 0.0 235.0 L 1332.95833333 235.0 L 1332.95833333 0.0 L 0.0 0.0 L 0.0 235.0" stroke="#000000" fill="none" stroke-width="3px" />
<path d="M 10.0 257.5 L 0.0 247.5 L 10.0 237.5" stroke="#969696" fill="none" stroke-width="1px" />
<path d="M 10.0 237.5 L 1322.95833333 237.5" stroke="#969696" fill="none" stroke-width="1px" />
<path d="M 1322.95833333 237.5 L 1332.95833333 227.5 L 1322.95833333 217.5" stroke="#969696" fill="none" stroke-width="1px" />
<path d="M 1322.95833333 217.5 L 10.0 217.5" stroke="#969696" fill="none" stroke-width="1px" />
<path d="M 10.0 217.5 L 0.0 207.5 L 10.0 197.5" stroke="#969696" fill="none" stroke-width="1px" />
<path d="M 10.0 197.5 L 1322.95833333 197.5" stroke="#969696" fill="none" stroke-width="1px" />
<path d="M 1322.95833333 197.5 L 1332.95833333 187.5 L 1322.95833333 177.5" stroke="#969696" fill="none" stroke-width="1px" />
<path d="M 1322.95833333 177.5 L 10.0 177.5" stroke="#969696" fill="none" stroke-width="1px" />
<path d="M 10.0 177.5 L 0.0 167.5 L 10.0 157.5" stroke="#969696" fill="none" stroke-width="1px" />
<path d="M 10.0 157.5 L 1322.95833333 157.5" stroke="#969696" fill="none" stroke-width="1px" />
<path d="M 1322.95833333 157.5 L 1332.95833333 147.5 L 1322.95833333 137.5" stroke="#969696" fill="none" stroke-width="1px" />
<path d="M 1322.95833333 137.5 L 10.0 137.5" stroke="#969696" fill="none" stroke-width="1px" />
<path d="M 10.0 137.5 L 0.0 127.5 L 10.0 117.5" stroke="#969696" fill="none" stroke-width="1px" />
<path d="M 10.0 117.5 L 1322.95833333 117.5" stroke="#969696" fill="none" stroke-width="1px" />
<path d="M 1322.95833333 117.5 L 1332.95833333 107.5 L 1322.95833333 97.5" stroke="#969696" fill="none" stroke-width="1px" />
<path d="M 1322.95833333 97.5 L 10.0 97.5" stroke="#969696" fill="none" stroke-width="1px" />
<path d="M 10.0 97.5 L 0.0 87.5 L 10.0 77.5" stroke="#969696" fill="none" stroke-width="1px" />
<path d="M 10.0 77.5 L 1322.95833333 77.5" stroke="#969696" fill="none" stroke-width="1px" />
<path d="M 1322.95833333 77.5 L 1332.95833333 67.5 L 1322.95833333 57.5" stroke="#969696" fill="none" stroke-width="1px" />
<path d="M 1322.95833333 57.5 L 10.0 57.5" stroke="#969696" fill="none" stroke-width="1px" />
<path d="M 10.0 57.5 L 0.0 47.5 L 10.0 37.5" stroke="#969696" fill="none" stroke-width="1px" />
<path d="M 10.0 37.5 L 1322.95833333 37.5" stroke="#969696" fill="none" stroke-width="1px" />
<path d="M 1322.95833333 37.5 L 1332.95833333 27.5 L 1322.95833333 17.5" stroke="#969696" fill="none" stroke-width="1px" />
<path d="M 1322.95833333 17.5 L 10.0 17.5" stroke="#969696" fill="none" stroke-width="1px" />
<path d="M 10.0 17.5 L 0.0 7.5 L 10.0 -2.5" stroke="#969696" fill="none" stroke-width="1px" />
<path d="M 10.0 -2.5 L 1322.95833333 -2.5" stroke="#969696" fill="none" stroke-width="1px" />
<path d="M 1322.95833333 -2.5 L 1332.95833333 -12.5 L 1322.95833333 -22.5" stroke="#969696" fill="none" stroke-width="1px" />
<path d="M 0.0 235.0 L 10.0 75.0" stroke="#0095FF" fill="none" stroke-width="2px" />
<path d="M 40.0 65.0 L 40.0 45.0" stroke="#0095FF" fill="none" stroke-width="2px" />
<path d="M 20.0 -5.0 L 70.0 15.0" stroke="#0095FF" fill="none" stroke-width="2px" />
<path d="M 80.0 45.0 L 110.0 25.0" stroke="#0095FF" fill="none" stroke-width="2px" />
<path d="M 110.0 25.0 L 90.0 5.0" stroke="#0095FF" fill="none" stroke-width="2px" />
<path d="M 80.0 5.0 L 620.0 125.0" stroke="#0095FF" fill="none" stroke-width="2px" />
<path d="M 710.0 135.0 L 700.0 155.0" stroke="#0095FF" fill="none" stroke-width="2px" />
<path d="M 680.0 185.0 L 680.0 115.0" stroke="#0095FF" fill="none" stroke-width="2px" />
<path d="M 700.0 115.0 L 660.0 95.0" stroke="#0095FF" fill="none" stroke-width="2px" />
<path d="M 640.0 95.0 L 1090.0 35.0" stroke="#0095FF" fill="none" stroke-width="2px" />
<path d="M 1110.0 55.0 L 1110.0 25.0" stroke="#0095FF" fill="none" stroke-width="2px" />
<path d="M 1120.0 25.0 L 1110.0 5.0" stroke="#0095FF" fill="none" stroke-width="2px" />
<path d="M 10.0 75.0 L 20.0 75.0" stroke="#FF0000" fill="none" stroke-width="4px" />
<path d="M 20.0 75.0 L 30.0 75.0" stroke="#FF0000" fill="none" stroke-width="4px" />
<path d="M 30.0 75.0 L 30.0 65.0" stroke="#FF0000" fill="none" stroke-width="4px" />
<path d="M 30.0 65.0 L 20.0 65.0" stroke="#FF0000" fill="none" stroke-width="4px" />
<path d="M 20.0 65.0 L 10.0 65.0" stroke="#FF0000" fill="none" stroke-width="4px" />
<path d="M 10.0 65.0 L 10.0 55.0" stroke="#FF0000" fill="none" stroke-width="4px" />
<path d="M 10.0 55.0 L 20.0 55.0" stroke="#FF0000" fill="none" stroke-width="4px" />
<path d="M 20.0 55.0 L 30.0 55.0" stroke="#FF0000" fill="none" stroke-width="4px" />
<path d="M 30.0 55.0 L 40.0 55.0" stroke="#FF0000" fill="none" stroke-width="4px" />
<path d="M 40.0 55.0 L 40.0 65.0" stroke="#FF0000" fill="none" stroke-width="4px" />
<path d="M 40.0 45.0 L 30.0 45.0" stroke="#FF0000" fill="none" stroke-width="4px" />
<path d="M 30.0 45.0 L 20.0 45.0" stroke="#FF0000" fill="none" stroke-width="4px" />
<path d="M 20.0 45.0 L 10.0 45.0" stroke="#FF0000" fill="none" stroke-width="4px" />
<path d="M 10.0 45.0 L 10.0 35.0" stroke="#FF0000" fill="none" stroke-width="4px" />
<path d="M 10.0 35.0 L 20.0 35.0" stroke="#FF0000" fill="none" stroke-width="4px" />
<path d="M 20.0 35.0 L 30.0 35.0" stroke="#FF0000" fill="none" stroke-width="4px" />
<path d="M 30.0 35.0 L 40.0 35.0" stroke="#FF0000" fill="none" stroke-width="4px" />
<path d="M 40.0 35.0 L 40.0 25.0" stroke="#FF0000" fill="none" stroke-width="4px" />
<path d="M 40.0 25.0 L 30.0 25.0" stroke="#FF0000" fill="none" stroke-width="4px" />
<path d="M 30.0 25.0 L 20.0 25.0" stroke="#FF0000" fill="none" stroke-width="4px" />
<path d="M 20.0 25.0 L 10.0 25.0" stroke="#FF0000" fill="none" stroke-width="4px" />
<path d="M 10.0 25.0 L 10.0 15.0" stroke="#FF0000" fill="none" stroke-width="4px" />
<path d="M 10.0 15.0 L 20.0 15.0" stroke="#FF0000" fill="none" stroke-width="4px" />
<path d="M 20.0 15.0 L 30.0 15.0" stroke="#FF0000" fill="none" stroke-width="4px" />
<path d="M 30.0 15.0 L 20.0 5.0" stroke="#FF0000" fill="none" stroke-width="4px" />
<path d="M 20.0 5.0 L 10.0 5.0" stroke="#FF0000" fill="none" stroke-width="4px" />
<path d="M 10.0 5.0 L 10.0 -5.0" stroke="#FF0000" fill="none" stroke-width="4px" />
<path d="M 10.0 -5.0 L 20.0 -5.0" stroke="#FF0000" fill="none" stroke-width="4px" />
<path d="M 70.0 15.0 L 80.0 15.0" stroke="#FF0000" fill="none" stroke-width="4px" />
<path d="M 80.0 15.0 L 90.0 15.0" stroke="#FF0000" fill="none" stroke-width="4px" />
<path d="M 90.0 15.0 L 100.0 15.0" stroke="#FF0000" fill="none" stroke-width="4px" />
<path d="M 100.0 15.0 L 100.0 25.0" stroke="#FF0000" fill="none" stroke-width="4px" />
<path d="M 100.0 25.0 L 90.0 25.0" stroke="#FF0000" fill="none" stroke-width="4px" />
<path d="M 90.0 25.0 L 80.0 25.0" stroke="#FF0000" fill="none" stroke-width="4px" />
<path d="M 80.0 25.0 L 70.0 25.0" stroke="#FF0000" fill="none" stroke-width="4px" />
<path d="M 70.0 25.0 L 60.0 25.0" stroke="#FF0000" fill="none" stroke-width="4px" />
<path d="M 60.0 25.0 L 70.0 35.0" stroke="#FF0000" fill="none" stroke-width="4px" />
<path d="M 70.0 35.0 L 80.0 35.0" stroke="#FF0000" fill="none" stroke-width="4px" />
<path d="M 80.0 35.0 L 90.0 35.0" stroke="#FF0000" fill="none" stroke-width="4px" />
<path d="M 90.0 35.0 L 100.0 35.0" stroke="#FF0000" fill="none" stroke-width="4px" />
<path d="M 100.0 35.0 L 90.0 45.0" stroke="#FF0000" fill="none" stroke-width="4px" />
<path d="M 90.0 45.0 L 80.0 45.0" stroke="#FF0000" fill="none" stroke-width="4px" />
<path d="M 90.0 5.0 L 80.0 5.0" stroke="#FF0000" fill="none" stroke-width="4px" />
<path d="M 620.0 125.0 L 630.0 125.0" stroke="#FF0000" fill="none" stroke-width="4px" />
<path d="M 630.0 125.0 L 640.0 125.0" stroke="#FF0000" fill="none" stroke-width="4px" />
<path d="M 640.0 125.0 L 650.0 125.0" stroke="#FF0000" fill="none" stroke-width="4px" />
<path d="M 650.0 125.0 L 660.0 125.0" stroke="#FF0000" fill="none" stroke-width="4px" />
<path d="M 660.0 125.0 L 670.0 125.0" stroke="#FF0000" fill="none" stroke-width="4px" />
<path d="M 670.0 125.0 L 680.0 125.0" stroke="#FF0000" fill="none" stroke-width="4px" />
<path d="M 680.0 125.0 L 690.0 125.0" stroke="#FF0000" fill="none" stroke-width="4px" />
<path d="M 690.0 125.0 L 700.0 125.0" stroke="#FF0000" fill="none" stroke-width="4px" />
<path d="M 700.0 125.0 L 700.0 135.0" stroke="#FF0000" fill="none" stroke-width="4px" />
<path d="M 700.0 135.0 L 690.0 135.0" stroke="#FF0000" fill="none" stroke-width="4px" />
<path d="M 690.0 135.0 L 680.0 135.0" stroke="#FF0000" fill="none" stroke-width="4px" />
<path d="M 680.0 135.0 L 670.0 135.0" stroke="#FF0000" fill="none" stroke-width="4px" />
<path d="M 670.0 135.0 L 660.0 135.0" stroke="#FF0000" fill="none" stroke-width="4px" />
<path d="M 660.0 135.0 L 650.0 135.0" stroke="#FF0000" fill="none" stroke-width="4px" />
<path d="M 650.0 135.0 L 640.0 135.0" stroke="#FF0000" fill="none" stroke-width="4px" />
<path d="M 640.0 135.0 L 630.0 135.0" stroke="#FF0000" fill="none" stroke-width="4px" />
<path d="M 630.0 135.0 L 620.0 135.0" stroke="#FF0000" fill="none" stroke-width="4px" />
<path d="M 620.0 135.0 L 620.0 145.0" stroke="#FF0000" fill="none" stroke-width="4px" />
<path d="M 620.0 145.0 L 630.0 145.0" stroke="#FF0000" fill="none" stroke-width="4px" />
<path d="M 630.0 145.0 L 640.0 145.0" stroke="#FF0000" fill="none" stroke-width="4px" />
<path d="M 640.0 145.0 L 650.0 145.0" stroke="#FF0000" fill="none" stroke-width="4px" />
<path d="M 650.0 145.0 L 660.0 145.0" stroke="#FF0000" fill="none" stroke-width="4px" />
<path d="M 660.0 145.0 L 670.0 145.0" stroke="#FF0000" fill="none" stroke-width="4px" />
<path d="M 670.0 145.0 L 680.0 145.0" stroke="#FF0000" fill="none" stroke-width="4px" />
<path d="M 680.0 145.0 L 690.0 145.0" stroke="#FF0000" fill="none" stroke-width="4px" />
<path d="M 690.0 145.0 L 700.0 145.0" stroke="#FF0000" fill="none" stroke-width="4px" />
<path d="M 700.0 145.0 L 710.0 145.0" stroke="#FF0000" fill="none" stroke-width="4px" />
<path d="M 710.0 145.0 L 710.0 135.0" stroke="#FF0000" fill="none" stroke-width="4px" />
<path d="M 700.0 155.0 L 690.0 155.0" stroke="#FF0000" fill="none" stroke-width="4px" />
<path d="M 690.0 155.0 L 680.0 155.0" stroke="#FF0000" fill="none" stroke-width="4px" />
<path d="M 680.0 155.0 L 670.0 155.0" stroke="#FF0000" fill="none" stroke-width="4px" />
<path d="M 670.0 155.0 L 660.0 155.0" stroke="#FF0000" fill="none" stroke-width="4px" />
<path d="M 660.0 155.0 L 650.0 155.0" stroke="#FF0000" fill="none" stroke-width="4px" />
<path d="M 650.0 155.0 L 640.0 155.0" stroke="#FF0000" fill="none" stroke-width="4px" />
<path d="M 640.0 155.0 L 630.0 155.0" stroke="#FF0000" fill="none" stroke-width="4px" />
<path d="M 630.0 155.0 L 620.0 155.0" stroke="#FF0000" fill="none" stroke-width="4px" />
<path d="M 620.0 155.0 L 630.0 165.0" stroke="#FF0000" fill="none" stroke-width="4px" />
<path d="M 630.0 165.0 L 640.0 165.0" stroke="#FF0000" fill="none" stroke-width="4px" />
<path d="M 640.0 165.0 L 650.0 165.0" stroke="#FF0000" fill="none" stroke-width="4px" />
<path d="M 650.0 165.0 L 660.0 165.0" stroke="#FF0000" fill="none" stroke-width="4px" />
<path d="M 660.0 165.0 L 670.0 165.0" stroke="#FF0000" fill="none" stroke-width="4px" />
<path d="M 670.0 165.0 L 680.0 165.0" stroke="#FF0000" fill="none" stroke-width="4px" />
<path d="M 680.0 165.0 L 690.0 165.0" stroke="#FF0000" fill="none" stroke-width="4px" />
<path d="M 690.0 165.0 L 700.0 165.0" stroke="#FF0000" fill="none" stroke-width="4px" />
<path d="M 700.0 165.0 L 690.0 175.0" stroke="#FF0000" fill="none" stroke-width="4px" />
<path d="M 690.0 175.0 L 680.0 175.0" stroke="#FF0000" fill="none" stroke-width="4px" />
<path d="M 680.0 175.0 L 670.0 175.0" stroke="#FF0000" fill="none" stroke-width="4px" />
<path d="M 670.0 175.0 L 660.0 175.0" stroke="#FF0000" fill="none" stroke-width="4px" />
<path d="M 660.0 175.0 L 650.0 175.0" stroke="#FF0000" fill="none" stroke-width="4px" />
<path d="M 650.0 175.0 L 640.0 175.0" stroke="#FF0000" fill="none" stroke-width="4px" />
<path d="M 640.0 175.0 L 650.0 185.0" stroke="#FF0000" fill="none" stroke-width="4px" />
<path d="M 650.0 185.0 L 660.0 185.0" stroke="#FF0000" fill="none" stroke-width="4px" />
<path d="M 660.0 185.0 L 670.0 185.0" stroke="#FF0000" fill="none" stroke-width="4px" />
<path d="M 670.0 185.0 L 680.0 185.0" stroke="#FF0000" fill="none" stroke-width="4px" />
<path d="M 680.0 115.0 L 670.0 115.0" stroke="#FF0000" fill="none" stroke-width="4px" />
<path d="M 670.0 115.0 L 660.0 115.0" stroke="#FF0000" fill="none" stroke-width="4px" />
<path d="M 660.0 115.0 L 650.0 115.0" stroke="#FF0000" fill="none" stroke-width="4px" />
<path d="M 650.0 115.0 L 640.0 115.0" stroke="#FF0000" fill="none" stroke-width="4px" />
<path d="M 640.0 115.0 L 630.0 115.0" stroke="#FF0000" fill="none" stroke-width="4px" />
<path d="M 630.0 115.0 L 640.0 105.0" stroke="#FF0000" fill="none" stroke-width="4px" />
<path d="M 640.0 105.0 L 650.0 105.0" stroke="#FF0000" fill="none" stroke-width="4px" />
<path d="M 650.0 105.0 L 660.0 105.0" stroke="#FF0000" fill="none" stroke-width="4px" />
<path d="M 660.0 105.0 L 670.0 105.0" stroke="#FF0000" fill="none" stroke-width="4px" />
<path d="M 670.0 105.0 L 680.0 105.0" stroke="#FF0000" fill="none" stroke-width="4px" />
<path d="M 680.0 105.0 L 690.0 105.0" stroke="#FF0000" fill="none" stroke-width="4px" />
<path d="M 690.0 105.0 L 690.0 115.0" stroke="#FF0000" fill="none" stroke-width="4px" />
<path d="M 690.0 115.0 L 700.0 115.0" stroke="#FF0000" fill="none" stroke-width="4px" />
<path d="M 660.0 95.0 L 650.0 95.0" stroke="#FF0000" fill="none" stroke-width="4px" />
<path d="M 650.0 95.0 L 640.0 95.0" stroke="#FF0000" fill="none" stroke-width="4px" />
<path d="M 1090.0 35.0 L 1100.0 35.0" stroke="#FF0000" fill="none" stroke-width="4px" />
<path d="M 1100.0 35.0 L 1110.0 35.0" stroke="#FF0000" fill="none" stroke-width="4px" />
<path d="M 1110.0 35.0 L 1120.0 35.0" stroke="#FF0000" fill="none" stroke-width="4px" />
<path d="M 1120.0 35.0 L 1130.0 35.0" stroke="#FF0000" fill="none" stroke-width="4px" />
<path d="M 1130.0 35.0 L 1120.0 45.0" stroke="#FF0000" fill="none" stroke-width="4px" />
<path d="M 1120.0 45.0 L 1110.0 45.0" stroke="#FF0000" fill="none" stroke-width="4px" />
<path d="M 1110.0 45.0 L 1100.0 45.0" stroke="#FF0000" fill="none" stroke-width="4px" />
<path d="M 1100.0 45.0 L 1110.0 55.0" stroke="#FF0000" fill="none" stroke-width="4px" />
<path d="M 1110.0 25.0 L 1100.0 25.0" stroke="#FF0000" fill="none" stroke-width="4px" />
<path d="M 1100.0 25.0 L 1090.0 25.0" stroke="#FF0000" fill="none" stroke-width="4px" />
<path d="M 1090.0 25.0 L 1090.0 15.0" stroke="#FF0000" fill="none" stroke-width="4px" />
<path d="M 1090.0 15.0 L 1100.0 15.0" stroke="#FF0000" fill="none" stroke-width="4px" />
<path d="M 1100.0 15.0 L 1110.0 15.0" stroke="#FF0000" fill="none" stroke-width="4px" />
<path d="M 1110.0 15.0 L 1120.0 15.0" stroke="#FF0000" fill="none" stroke-width="4px" />
<path d="M 1120.0 15.0 L 1120.0 25.0" stroke="#FF0000" fill="none" stroke-width="4px" />
<path d="M 1110.0 5.0 L 1100.0 5.0" stroke="#FF0000" fill="none" stroke-width="4px" />
<path d="M 1100.0 5.0 L 1100.0 -5.0" stroke="#FF0000" fill="none" stroke-width="4px" />
<path d="M 1100.0 -5.0 L 1110.0 -5.0" stroke="#FF0000" fill="none" stroke-width="4px" />
</svg>