<svg width="2494.78700208" height="235.0" xmlns="http://www.w3.org/2000/svg" version="1.1">
<path d="M 0.0 235.0 L 1765.0 235.0 L 1765.0 0.0 L 0.0 0.0 L 0.0 235.0" stroke="#000000" fill="none" stroke-width="3px" />
<path d="M 2494.78700208 235.0 L 1665.0 235.0 L 1665.0 0.0 L 2494.78700208 0.0 L 2494.78700208 235.0" stroke="#000000" fill="none" stroke-width="3px" />
<path d="M 10.0 257.5 L 0.0 247.5 L 10.0 237.5" stroke="#969696" fill="none" stroke-width="1px" />
<path d="M 10.0 237.5 L 1755.0 237.5" stroke="#969696" fill="none" stroke-width="1px" />
<path d="M 1755.0 237.5 L 1765.0 227.5 L 1755.0 217.5" stroke="#969696" fill="none" stroke-width="1px" />
<path d="M 1755.0 217.5 L 10.0 217.5" stroke="#969696" fill="none" stroke-width="1px" />
<path d="M 10.0 217.5 L 0.0 207.5 L 10.0 197.5" stroke="#969696" fill="none" stroke-width="1px" />
<path d="M 10.0 197.5 L 1755.0 197.5" stroke="#969696" fill="none" stroke-width="1px" />
<path d="M 1755.0 197.5 L 1765.0 187.5 L 1755.0 177.5" stroke="#969696" fill="none" stroke-width="1px" />
<path d="M 1755.0 177.5 L 10.0 177.5" stroke="#969696" fill="none" stroke-width="1px" />
<path d="M 10.0 177.5 L 0.0 167.5 L 10.0 157.5" stroke="#969696" fill="none" stroke-width="1px" />
<path d="M 10.0 157.5 L 1755.0 157.5" stroke="#969696" fill="none" stroke-width="1px" />
<path d="M 1755.0 157.5 L 1765.0 147.5 L 1755.0 137.5" stroke="#969696" fill="none" stroke-width="1px" />
<path d="M 1755.0 137.5 L 10.0 137.5" stroke="#969696" fill="none" stroke-width="1px" />
<path d="M 10.0 137.5 L 0.0 127.5 L 10.0 117.5" stroke="#969696" fill="none" stroke-width="1px" />
<path d="M 10.0 117.5 L 1755.0 117.5" stroke="#969696" fill="none" stroke-width="1px" />
<path d="M 1755.0 117.5 L 1765.0 107.5 L 1755.0 97.5" stroke="#969696" fill="none" stroke-width="1px" />
<path d="M 1755.0 97.5 L 10.0 97.5" stroke="#969696" fill="none" stroke-width="1px" />
<path d="M 10.0 97.5 L 0.0 87.5 L 10.0 77.5" stroke="#969696" fill="none" stroke-width="1px" />
<path d="M 10.0 77.5 L 1755.0 77.5" stroke="#969696" fill="none" stroke-width="1px" />
<path d="M 1755.0 77.5 L 1765.0 67.5 L 1755.0 57.5" stroke="#969696" fill="none" stroke-width="1px" />
<path d="M 1755.0 57.5 L 10.0 57.5" stroke="#969696" fill="none" stroke-width="1px" />
<path d="M 10.0 57.5 L 0.0 47.5 L 10.0 37.5" stroke="#969696" fill="none" stroke-width="1px" />
<path d="M 10.0 37.5 L 1755.0 37.5" stroke="#969696" fill="none" stroke-width="1px" />
<path d="M 1755.0 37.5 L 1765.0 27.5 L 1755.0 17.5" stroke="#969696" fill="none" stroke-width="1px" />
<path d="M 1755.0 17.5 L 10.0 17.5" stroke="#969696" fill="none" stroke-width="1px" />
<path d="M 10.0 17.5 L 0.0 7.5 L 10.0 -2.5" stroke="#969696" fill="none" stroke-width="1px" />
<path d="M 10.0 -2.5 L 1755.0 -2.5" stroke="#969696" fill="none" stroke-width="1px" />
<path d="M 1755.0 -2.5 L 1765.0 -12.5 L 1755.0 -22.5" stroke="#969696" fill="none" stroke-width="1px" />
<path d="M 2484.78700208 257.5 L 2494.78700208 247.5 L 2484.78700208 237.5" stroke="#969696" fill="none" stroke-width="1px" />
<path d="M 2484.78700208 237.5 L 1675.0 237.5" stroke="#969696" fill="none" stroke-width="1px" />
<path d="M 1675.0 237.5 L 1665.0 227.5 L 1675.0 217.5" stroke="#969696" fill="none" stroke-width="1px" />
<path d="M 1675.0 217.5 L 2484.78700208 217.5" stroke="#969696" fill="none" stroke-width="1px" />
<path d="M 2484.78700208 217.5 L 2494.78700208 207.5 L 2484.78700208 197.5" stroke="#969696" fill="none" stroke-width="1px" />
<path d="M 2484.78700208 197.5 L 1675.0 197.5" stroke="#969696" fill="none" stroke-width="1px" />
<path d="M 1675.0 197.5 L 1665.0 187.5 L 1675.0 177.5" stroke="#969696" fill="none" stroke-width="1px" />
<path d="M 1675.0 177.5 L 2484.78700208 177.5" stroke="#969696" fill="none" stroke-width="1px" />
<path d="M 2484.78700208 177.5 L 2494.78700208 167.5 L 2484.78700208 157.5" stroke="#969696" fill="none" stroke-width="1px" />
<path d="M 2484.78700208 157.5 L 1675.0 157.5" stroke="#969696" fill="none" stroke-width="1px" />
<path d="M 1675.0 157.5 L 1665.0 147.5 L 1675.0 137.5" stroke="#969696" fill="none" stroke-width="1px" />
<path d="M 1675.0 137.5 L 2484.78700208 137.5" stroke="#969696" fill="none" stroke-width="1px" />
<path d="M 2484.78700208 137.5 L 2494.78700208 127.5 L 2484.78700208 117.5" stroke="#969696" fill="none" stroke-width="1px" />
<path d="M 2484.78700208 117.5 L 1675.0 117.5" stroke="#969696" fill="none" stroke-width="1px" />
<path d="M 1675.0 117.5 L 1665.0 107.5 L 1675.0 97.5" stroke="#969696" fill="none" stroke-width="1px" />
<path d="M 1675.0 97.5 L 2484.78700208 97.5" stroke="#969696" fill="none" stroke-width="1px" />
<path d="M 2484.78700208 97.5 L 2494.78700208 87.5 L 2484.78700208 77.5" stroke="#969696" fill="none" stroke-width="1px" />
<path d="M 2484.78700208 77.5 L 1675.0 77.5" stroke="#969696" fill="none" stroke-width="1px" />
<path d="M 1675.0 77.5 L 1665.0 67.5 L 1675.0 57.5" stroke="#969696" fill="none" stroke-width="1px" />
<path d="M 1675.0 57.5 L 2484.78700208 57.5" stroke="#969696" fill="none" stroke-width="1px" />
<path d="M 2484.78700208 57.5 L 2494.78700208 47.5 L 2484.78700208 37.5" stroke="#969696" fill="none" stroke-width="1px" />
<path d="M 2484.78700208 37.5 L 1675.0 37.5" stroke="#969696" fill="none" stroke-width="1px" />
<path d="M 1675.0 37.5 L 1665.0 27.5 L 1675.0 17.5" stroke="#969696" fill="none" stroke-width="1px" />
<path d="M 1675.0 17.5 L 2484.78700208 17.5" stroke="#969696" fill="none" stroke-width="1px" />
<path d="M 2484.78700208 17.5 L 2494.78700208 7.5 L 2484.78700208 -2.5" stroke="#969696" fill="none" stroke-width="1px" />
<path d="M 2484.78700208 -2.5 L 1675.0 -2.5" stroke="#969696" fill="none" stroke-width="1px" />
<path d="M 1675.0 -2.5 L 1665.0 -12.5 L 1675.0 -22.5" stroke="#969696" fill="none" stroke-width="1px" />
<path d="M 0.0 235.0 L 1250.0 115.0" stroke="#0095FF" fill="none" stroke-width="2px" />
<path d="M 1260.0 85.0 L 1260.0 125.0" stroke="#0095FF" fill="none" stroke-width="2px" />
<path d="M 2494.78700208 235.0 L 2080.0 125.0" stroke="#0095FF" fill="none" stroke-width="2px" />
<path d="M 2060.0 145.0 L 2060.0 115.0" stroke="#0095FF" fill="none" stroke-width="2px" />
<path d="M 1250.0 115.0 L 1260.0 115.0" stroke="#FF0000" fill="none" stroke-width="4px" />
<path d="M 1260.0 115.0 L 1270.0 115.0" stroke="#FF0000" fill="none" stroke-width="4px" />
<path d="M 1270.0 115.0 L 1280.0 115.0" stroke="#FF0000" fill="none" stroke-width="4px" />
<path d="M 1280.0 115.0 L 1290.0 115.0" stroke="#FF0000" fill="none" stroke-width="4px" />
<path d="M 1290.0 115.0 L 1290.0 105.0" stroke="#FF0000" fill="none" stroke-width="4px" />
<path d="M 1290.0 105.0 L 1280.0 105.0" stroke="#FF0000" fill="none" stroke-width="4px" />
<path d="M 1280.0 105.0 L 1270.0 105.0" stroke="#FF0000" fill="none" stroke-width="4px" />
<path d="M 1270.0 105.0 L 1260.0 105.0" stroke="#FF0000" fill="none" stroke-width="4px" />
<path d="M 1260.0 105.0 L 1250.0 105.0" stroke="#FF0000" fill="none" stroke-width="4px" />
<path d="M 1250.0 105.0 L 1250.0 95.0" stroke="#FF0000" fill="none" stroke-width="4px" />
<path d="M 1250.0 95.0 L 1260.0 95.0" stroke="#FF0000" fill="none" stroke-width="4px" />
<path d="M 1260.0 95.0 L 1270.0 95.0" stroke="#FF0000" fill="none" stroke-width="4px" />
<path d="M 1270.0 95.0 L 1280.0 95.0" stroke="#FF0000" fill="none" stroke-width="4px" />
<path d="M 1280.0 95.0 L 1290.0 95.0" stroke="#FF0000" fill="none" stroke-width="4px" />
<path d="M 1290.0 95.0 L 1280.0 85.0" stroke="#FF0000" fill="none" stroke-width="4px" />
<path d="M 1280.0 85.0 L 1270.0 85.0" stroke="#FF0000" fill="none" stroke-width="4px" />
<path d="M 1270.0 85.0 L 1260.0 85.0" stroke="#FF0000" fill="none" stroke-width="4px" />
<path d="M 1260.0 125.0 L 1270.0 125.0" stroke="#FF0000" fill="none" stroke-width="4px" />
<path d="M 1270.0 125.0 L 1280.0 125.0" stroke="#FF0000" fill="none" stroke-width="4px" />
<path d="M 1280.0 125.0 L 1270.0 135.0" stroke="#FF0000" fill="none" stroke-width="4px" />
<path d="M 2080.0 125.0 L 2070.0 125.0" stroke="#FF0000" fill="none" stroke-width="4px" />
<path d="M 2070.0 125.0 L 2060.0 125.0" stroke="#FF0000" fill="none" stroke-width="4px" />
<path d="M 2060.0 125.0 L 2050.0 125.0" stroke="#FF0000" fill="none" stroke-width="4px" />
<path d="M 2050.0 125.0 L 2040.0 125.0" stroke="#FF0000" fill="none" stroke-width="4px" />
<path d="M 2040.0 125.0 L 2050.0 135.0" stroke="#FF0000" fill="none" stroke-width="4px" />
<path d="M 2050.0 135.0 L 2060.0 135.0" stroke="#FF0000" fill="none" stroke-width="4px" />
<path d="M 2060.0 135.0 L 2070.0 135.0" stroke="#FF0000" fill="none" stroke-width="4px" />
<path d="M 2070.0 135.0 L 2060.0 145.0" stroke="#FF0000" fill="none" stroke-width="4px" />
<path d="M 2060.0 115.0 L 2050.0 115.0" stroke="#FF0000" fill="none" stroke-width="4px" />
<path d="M 2050.0 115.0 L 2060.0 105.0" stroke="#FF0000" fill="none" stroke-width="4px" />
<path d="M 2060.0 105.0 L 2070.0 115.0" stroke="#FF0000" fill="none" stroke-width="4px" />
</svg>