<svg width="1383.75833333" height="235.0" xmlns="http://www.w3.org/2000/svg" version="1.1">
<path d="M 0.0 235.0 L 1383.75833333 235.0 L 1383.75833333 0.0 L 0.0 0.0 L 0.0 235.0" stroke="#000000" fill="none" stroke-width="3px" />
<path d="M 10.0 257.5 L 0.0 247.5 L 10.0 237.5" stroke="#969696" fill="none" stroke-width="1px" />
<path d="M 10.0 237.5 L 1373.75833333 237.5" stroke="#969696" fill="none" stroke-width="1px" />
<path d="M 1373.75833333 237.5 L 1383.75833333 227.5 L 1373.75833333 217.5" stroke="#969696" fill="none" stroke-width="1px" />
<path d="M 1373.75833333 217.5 L 10.0 217.5" stroke="#969696" fill="none" stroke-width="1px" />
<path d="M 10.0 217.5 L 0.0 207.5 L 10.0 197.5" stroke="#969696" fill="none" stroke-width="1px" />
<path d="M 10.0 197.5 L 1373.75833333 197.5" stroke="#969696" fill="none" stroke-width="1px" />
<path d="M 1373.75833333 197.5 L 1383.75833333 187.5 L 1373.75833333 177.5" stroke="#969696" fill="none" stroke-width="1px" />
<path d="M 1373.75833333 177.5 L 10.0 177.5" stroke="#969696" fill="none" stroke-width="1px" />
<path d="M 10.0 177.5 L 0.0 167.5 L 10.0 157.5" stroke="#969696" fill="none" stroke-width="1px" />
<path d="M 10.0 157.5 L 1373.75833333 157.5" stroke="#969696" fill="none" stroke-width="1px" />
<path d="M 1373.75833333 157.5 L 1383.75833333 147.5 L 1373.75833333 137.5" stroke="#969696" fill="none" stroke-width="1px" />
<path d="M 1373.75833333 137.5 L 10.0 137.5" stroke="#969696" fill="none" stroke-width="1px" />
<path d="M 10.0 137.5 L 0.0 127.5 L 10.0 117.5" stroke="#969696" fill="none" stroke-width="1px" />
<path d="M 10.0 117.5 L 1373.75833333 117.5" stroke="#969696" fill="none" stroke-width="1px" />
<path d="M 1373.75833333 117.5 L 1383.75833333 107.5 L 1373.75833333 97.5" stroke="#969696" fill="none" stroke-width="1px" />
<path d="M 1373.75833333 97.5 L 10.0 97.5" stroke="#969696" fill="none" stroke-width="1px" />
<path d="M 10.0 97.5 L 0.0 87.5 L 10.0 77.5" stroke="#969696" fill="none" stroke-width="1px" />
<path d="M 10.0 77.5 L 1373.75833333 77.5" stroke="#969696" fill="none" stroke-width="1px" />
<path d="M 1373.75833333 77.5 L 1383.75833333 67.5 L 1373.75833333 57.5" stroke="#969696" fill="none" stroke-width="1px" />
<path d="M 1373.75833333 57.5 L 10.0 57.5" stroke="#969696" fill="none" stroke-width="1px" />
<path d="M 10.0 57.5 L 0.0 47.5 L 10.0 37.5" stroke="#969696" fill="none" stroke-width="1px" />
<path d="M 10.0 37.5 L 1373.75833333 37.5" stroke="#969696" fill="none" stroke-width="1px" />
<path d="M 1373.75833333 37.5 L 1383.75833333 27.5 L 1373.75833333 17.5" stroke="#969696" fill="none" stroke-width="1px" />
<path d="M 1373.75833333 17.5 L 10.0 17.5" stroke="#969696" fill="none" stroke-width="1px" />
<path d="M 10.0 17.5 L 0.0 7.5 L 10.0 -2.5" stroke="#969696" fill="none" stroke-width="1px" />
<path d="M 10.0 -2.5 L 1373.75833333 -2.5" stroke="#969696" fill="none" stroke-width="1px" />
<path d="M 1373.75833333 -2.5 L 1383.75833333 -12.5 L 1373.75833333 -22.5" stroke="#969696" fill="none" stroke-width="1px" />
<path d="M 0.0 235.0 L 40.0 235.0" stroke="#0095FF" fill="none" stroke-width="2px" />
<path d="M 40.0 235.0 L 40.0 215.0" stroke="#0095FF" fill="none" stroke-width="2px" />
<path d="M 80.0 205.0 L 70.0 205.0" stroke="#0095FF" fill="none" stroke-width="2px" />
<path d="M 70.0 205.0 L 70.0 185.0" stroke="#0095FF" fill="none" stroke-width="2px" />
<path d="M 50.0 165.0 L 150.0 165.0" stroke="#0095FF" fill="none" stroke-width="2px" />
<path d="M 150.0 165.0 L 150.0 155.0" stroke="#0095FF" fill="none" stroke-width="2px" />
<path d="M 220.0 195.0 L 200.0 195.0" stroke="#0095FF" fill="none" stroke-width="2px" />
<path d="M 200.0 195.0 L 200.0 205.0" stroke="#0095FF" fill="none" stroke-width="2px" />
<path d="M 190.0 205.0 L 190.0 145.0" stroke="#0095FF" fill="none" stroke-width="2px" />
<path d="M 200.0 145.0 L 200.0 125.0" stroke="#0095FF" fill="none" stroke-width="2px" />
<path d="M 170.0 125.0 L 230.0 125.0" stroke="#0095FF" fill="none" stroke-width="2px" />
<path d="M 230.0 125.0 L 230.0 145.0" stroke="#0095FF" fill="none" stroke-width="2px" />
<path d="M 230.0 145.0 L 480.0 145.0" stroke="#0095FF" fill="none" stroke-width="2px" />
<path d="M 480.0 145.0 L 480.0 175.0" stroke="#0095FF" fill="none" stroke-width="2px" />
<path d="M 530.0 235.0 L 560.0 235.0" stroke="#0095FF" fill="none" stroke-width="2px" />
<path d="M 560.0 235.0 L 560.0 185.0" stroke="#0095FF" fill="none" stroke-width="2px" />
<path d="M 560.0 185.0 L 520.0 185.0" stroke="#0095FF" fill="none" stroke-width="2px" />
<path d="M 520.0 185.0 L 520.0 165.0" stroke="#0095FF" fill="none" stroke-width="2px" />
<path d="M 490.0 165.0 L 550.0 165.0" stroke="#0095FF" fill="none" stroke-width="2px" />
<path d="M 550.0 165.0 L 550.0 85.0" stroke="#0095FF" fill="none" stroke-width="2px" />
<path d="M 610.0 55.0 L 600.0 55.0" stroke="#0095FF" fill="none" stroke-width="2px" />
<path d="M 600.0 55.0 L 600.0 75.0" stroke="#0095FF" fill="none" stroke-width="2px" />
<path d="M 600.0 75.0 L 590.0 75.0" stroke="#0095FF" fill="none" stroke-width="2px" />
<path d="M 590.0 75.0 L 590.0 35.0" stroke="#0095FF" fill="none" stroke-width="2px" />
<path d="M 580.0 25.0 L 560.0 25.0" stroke="#0095FF" fill="none" stroke-width="2px" />
<path d="M 560.0 25.0 L 560.0 15.0" stroke="#0095FF" fill="none" stroke-width="2px" />
<path d="M 530.0 15.0 L 850.0 15.0" stroke="#0095FF" fill="none" stroke-width="2px" />
<path d="M 850.0 15.0 L 850.0 45.0" stroke="#0095FF" fill="none" stroke-width="2px" />
<path d="M 920.0 105.0 L 930.0 105.0" stroke="#0095FF" fill="none" stroke-width="2px" />
<path d="M 930.0 105.0 L 930.0 55.0" stroke="#0095FF" fill="none" stroke-width="2px" />
<path d="M 930.0 55.0 L 910.0 55.0" stroke="#0095FF" fill="none" stroke-width="2px" />
<path d="M 910.0 55.0 L 910.0 35.0" stroke="#0095FF" fill="none" stroke-width="2px" />
<path d="M 880.0 25.0 L 860.0 25.0" stroke="#0095FF" fill="none" stroke-width="2px" />
<path d="M 860.0 25.0 L 860.0 185.0" stroke="#0095FF" fill="none" stroke-width="2px" />
<path d="M 880.0 235.0 L 880.0 205.0" stroke="#0095FF" fill="none" stroke-width="2px" />
<path d="M 890.0 205.0 L 1180.0 205.0" stroke="#0095FF" fill="none" stroke-width="2px" />
<path d="M 1180.0 205.0 L 1180.0 85.0" stroke="#0095FF" fill="none" stroke-width="2px" />
<path d="M 1200.0 65.0 L 1200.0 95.0" stroke="#0095FF" fill="none" stroke-width="2px" />
<path d="M 40.0 215.0 L 50.0 215.0" stroke="#FF0000" fill="none" stroke-width="4px" />
<path d="M 50.0 215.0 L 60.0 215.0" stroke="#FF0000" fill="none" stroke-width="4px" />
<path d="M 60.0 215.0 L 70.0 215.0" stroke="#FF0000" fill="none" stroke-width="4px" />
<path d="M 70.0 215.0 L 70.0 205.0" stroke="#FF0000" fill="none" stroke-width="4px" />
<path d="M 70.0 205.0 L 60.0 205.0" stroke="#FF0000" fill="none" stroke-width="4px" />
<path d="M 60.0 205.0 L 50.0 205.0" stroke="#FF0000" fill="none" stroke-width="4px" />
<path d="M 50.0 205.0 L 40.0 205.0" stroke="#FF0000" fill="none" stroke-width="4px" />
<path d="M 40.0 205.0 L 30.0 205.0" stroke="#FF0000" fill="none" stroke-width="4px" />
<path d="M 30.0 205.0 L 30.0 195.0" stroke="#FF0000" fill="none" stroke-width="4px" />
<path d="M 30.0 195.0 L 40.0 195.0" stroke="#FF0000" fill="none" stroke-width="4px" />
<path d="M 40.0 195.0 L 50.0 195.0" stroke="#FF0000" fill="none" stroke-width="4px" />
<path d="M 50.0 195.0 L 60.0 195.0" stroke="#FF0000" fill="none" stroke-width="4px" />
<path d="M 60.0 195.0 L 70.0 195.0" stroke="#FF0000" fill="none" stroke-width="4px" />
<path d="M 70.0 195.0 L 80.0 195.0" stroke="#FF0000" fill="none" stroke-width="4px" />
<path d="M 80.0 195.0 L 80.0 205.0" stroke="#FF0000" fill="none" stroke-width="4px" />
<path d="M 70.0 185.0 L 60.0 185.0" stroke="#FF0000" fill="none" stroke-width="4px" />
<path d="M 60.0 185.0 L 50.0 185.0" stroke="#FF0000" fill="none" stroke-width="4px" />
<path d="M 50.0 185.0 L 40.0 185.0" stroke="#FF0000" fill="none" stroke-width="4px" />
<path d="M 40.0 185.0 L 30.0 185.0" stroke="#FF0000" fill="none" stroke-width="4px" />
<path d="M 30.0 185.0 L 40.0 175.0" stroke="#FF0000" fill="none" stroke-width="4px" />
<path d="M 40.0 175.0 L 50.0 175.0" stroke="#FF0000" fill="none" stroke-width="4px" />
<path d="M 50.0 175.0 L 60.0 175.0" stroke="#FF0000" fill="none" stroke-width="4px" />
<path d="M 60.0 175.0 L 50.0 165.0" stroke="#FF0000" fill="none" stroke-width="4px" />
<path d="M 150.0 155.0 L 160.0 155.0" stroke="#FF0000" fill="none" stroke-width="4px" />
<path d="M 160.0 155.0 L 170.0 155.0" stroke="#FF0000" fill="none" stroke-width="4px" />
<path d="M 170.0 155.0 L 180.0 155.0" stroke="#FF0000" fill="none" stroke-width="4px" />
<path d="M 180.0 155.0 L 190.0 155.0" stroke="#FF0000" fill="none" stroke-width="4px" />
<path d="M 190.0 155.0 L 200.0 155.0" stroke="#FF0000" fill="none" stroke-width="4px" />
<path d="M 200.0 155.0 L 210.0 155.0" stroke="#FF0000" fill="none" stroke-width="4px" />
<path d="M 210.0 155.0 L 220.0 155.0" stroke="#FF0000" fill="none" stroke-width="4px" />
<path d="M 220.0 155.0 L 230.0 155.0" stroke="#FF0000" fill="none" stroke-width="4px" />
<path d="M 230.0 155.0 L 230.0 165.0" stroke="#FF0000" fill="none" stroke-width="4px" />
<path d="M 230.0 165.0 L 220.0 165.0" stroke="#FF0000" fill="none" stroke-width="4px" />
<path d="M 220.0 165.0 L 210.0 165.0" stroke="#FF0000" fill="none" stroke-width="4px" />
<path d="M 210.0 165.0 L 200.0 165.0" stroke="#FF0000" fill="none" stroke-width="4px" />
<path d="M 200.0 165.0 L 190.0 165.0" stroke="#FF0000" fill="none" stroke-width="4px" />
<path d="M 190.0 165.0 L 180.0 165.0" stroke="#FF0000" fill="none" stroke-width="4px" />
<path d="M 180.0 165.0 L 170.0 165.0" stroke="#FF0000" fill="none" stroke-width="4px" />
<path d="M 170.0 165.0 L 160.0 165.0" stroke="#FF0000" fill="none" stroke-width="4px" />
<path d="M 160.0 165.0 L 160.0 175.0" stroke="#FF0000" fill="none" stroke-width="4px" />
<path d="M 160.0 175.0 L 170.0 175.0" stroke="#FF0000" fill="none" stroke-width="4px" />
<path d="M 170.0 175.0 L 180.0 175.0" stroke="#FF0000" fill="none" stroke-width="4px" />
<path d="M 180.0 175.0 L 190.0 175.0" stroke="#FF0000" fill="none" stroke-width="4px" />
<path d="M 190.0 175.0 L 200.0 175.0" stroke="#FF0000" fill="none" stroke-width="4px" />
<path d="M 200.0 175.0 L 210.0 175.0" stroke="#FF0000" fill="none" stroke-width="4px" />
<path d="M 210.0 175.0 L 220.0 175.0" stroke="#FF0000" fill="none" stroke-width="4px" />
<path d="M 220.0 175.0 L 230.0 175.0" stroke="#FF0000" fill="none" stroke-width="4px" />
<path d="M 230.0 175.0 L 230.0 185.0" stroke="#FF0000" fill="none" stroke-width="4px" />
<path d="M 230.0 185.0 L 220.0 185.0" stroke="#FF0000" fill="none" stroke-width="4px" />
<path d="M 220.0 185.0 L 210.0 185.0" stroke="#FF0000" fill="none" stroke-width="4px" />
<path d="M 210.0 185.0 L 200.0 185.0" stroke="#FF0000" fill="none" stroke-width="4px" />
<path d="M 200.0 185.0 L 190.0 185.0" stroke="#FF0000" fill="none" stroke-width="4px" />
<path d="M 190.0 185.0 L 180.0 185.0" stroke="#FF0000" fill="none" stroke-width="4px" />
<path d="M 180.0 185.0 L 170.0 185.0" stroke="#FF0000" fill="none" stroke-width="4px" />
<path d="M 170.0 185.0 L 180.0 195.0" stroke="#FF0000" fill="none" stroke-width="4px" />
<path d="M 180.0 195.0 L 190.0 195.0" stroke="#FF0000" fill="none" stroke-width="4px" />
<path d="M 190.0 195.0 L 200.0 195.0" stroke="#FF0000" fill="none" stroke-width="4px" />
<path d="M 200.0 195.0 L 210.0 195.0" stroke="#FF0000" fill="none" stroke-width="4px" />
<path d="M 210.0 195.0 L 220.0 195.0" stroke="#FF0000" fill="none" stroke-width="4px" />
<path d="M 200.0 205.0 L 190.0 205.0" stroke="#FF0000" fill="none" stroke-width="4px" />
<path d="M 190.0 145.0 L 180.0 145.0" stroke="#FF0000" fill="none" stroke-width="4px" />
<path d="M 180.0 145.0 L 170.0 145.0" stroke="#FF0000" fill="none" stroke-width="4px" />
<path d="M 170.0 145.0 L 160.0 145.0" stroke="#FF0000" fill="none" stroke-width="4px" />
<path d="M 160.0 145.0 L 160.0 135.0" stroke="#FF0000" fill="none" stroke-width="4px" />
<path d="M 160.0 135.0 L 170.0 135.0" stroke="#FF0000" fill="none" stroke-width="4px" />
<path d="M 170.0 135.0 L 180.0 135.0" stroke="#FF0000" fill="none" stroke-width="4px" />
<path d="M 180.0 135.0 L 190.0 135.0" stroke="#FF0000" fill="none" stroke-width="4px" />
<path d="M 190.0 135.0 L 200.0 135.0" stroke="#FF0000" fill="none" stroke-width="4px" />
<path d="M 200.0 135.0 L 210.0 135.0" stroke="#FF0000" fill="none" stroke-width="4px" />
<path d="M 210.0 135.0 L 220.0 135.0" stroke="#FF0000" fill="none" stroke-width="4px" />
<path d="M 220.0 135.0 L 220.0 145.0" stroke="#FF0000" fill="none" stroke-width="4px" />
<path d="M 220.0 145.0 L 210.0 145.0" stroke="#FF0000" fill="none" stroke-width="4px" />
<path d="M 210.0 145.0 L 200.0 145.0" stroke="#FF0000" fill="none" stroke-width="4px" />
<path d="M 200.0 125.0 L 190.0 125.0" stroke="#FF0000" fill="none" stroke-width="4px" />
<path d="M 190.0 125.0 L 180.0 125.0" stroke="#FF0000" fill="none" stroke-width="4px" />
<path d="M 180.0 125.0 L 170.0 125.0" stroke="#FF0000" fill="none" stroke-width="4px" />
<path d="M 480.0 175.0 L 490.0 175.0" stroke="#FF0000" fill="none" stroke-width="4px" />
<path d="M 490.0 175.0 L 500.0 175.0" stroke="#FF0000" fill="none" stroke-width="4px" />
<path d="M 500.0 175.0 L 510.0 175.0" stroke="#FF0000" fill="none" stroke-width="4px" />
<path d="M 510.0 175.0 L 520.0 175.0" stroke="#FF0000" fill="none" stroke-width="4px" />
<path d="M 520.0 175.0 L 530.0 175.0" stroke="#FF0000" fill="none" stroke-width="4px" />
<path d="M 530.0 175.0 L 540.0 175.0" stroke="#FF0000" fill="none" stroke-width="4px" />
<path d="M 540.0 175.0 L 550.0 175.0" stroke="#FF0000" fill="none" stroke-width="4px" />
<path d="M 550.0 175.0 L 550.0 185.0" stroke="#FF0000" fill="none" stroke-width="4px" />
<path d="M 550.0 185.0 L 540.0 185.0" stroke="#FF0000" fill="none" stroke-width="4px" />
<path d="M 540.0 185.0 L 530.0 185.0" stroke="#FF0000" fill="none" stroke-width="4px" />
<path d="M 530.0 185.0 L 520.0 185.0" stroke="#FF0000" fill="none" stroke-width="4px" />
<path d="M 520.0 185.0 L 510.0 185.0" stroke="#FF0000" fill="none" stroke-width="4px" />
<path d="M 510.0 185.0 L 500.0 185.0" stroke="#FF0000" fill="none" stroke-width="4px" />
<path d="M 500.0 185.0 L 490.0 185.0" stroke="#FF0000" fill="none" stroke-width="4px" />
<path d="M 490.0 185.0 L 480.0 185.0" stroke="#FF0000" fill="none" stroke-width="4px" />
<path d="M 480.0 185.0 L 480.0 195.0" stroke="#FF0000" fill="none" stroke-width="4px" />
<path d="M 480.0 195.0 L 490.0 195.0" stroke="#FF0000" fill="none" stroke-width="4px" />
<path d="M 490.0 195.0 L 500.0 195.0" stroke="#FF0000" fill="none" stroke-width="4px" />
<path d="M 500.0 195.0 L 510.0 195.0" stroke="#FF0000" fill="none" stroke-width="4px" />
<path d="M 510.0 195.0 L 520.0 195.0" stroke="#FF0000" fill="none" stroke-width="4px" />
<path d="M 520.0 195.0 L 530.0 195.0" stroke="#FF0000" fill="none" stroke-width="4px" />
<path d="M 530.0 195.0 L 540.0 195.0" stroke="#FF0000" fill="none" stroke-width="4px" />
<path d="M 540.0 195.0 L 550.0 195.0" stroke="#FF0000" fill="none" stroke-width="4px" />
<path d="M 550.0 195.0 L 560.0 195.0" stroke="#FF0000" fill="none" stroke-width="4px" />
<path d="M 560.0 195.0 L 570.0 195.0" stroke="#FF0000" fill="none" stroke-width="4px" />
<path d="M 570.0 195.0 L 570.0 205.0" stroke="#FF0000" fill="none" stroke-width="4px" />
<path d="M 570.0 205.0 L 560.0 205.0" stroke="#FF0000" fill="none" stroke-width="4px" />
<path d="M 560.0 205.0 L 550.0 205.0" stroke="#FF0000" fill="none" stroke-width="4px" />
<path d="M 550.0 205.0 L 540.0 205.0" stroke="#FF0000" fill="none" stroke-width="4px" />
<path d="M 540.0 205.0 L 530.0 205.0" stroke="#FF0000" fill="none" stroke-width="4px" />
<path d="M 530.0 205.0 L 520.0 205.0" stroke="#FF0000" fill="none" stroke-width="4px" />
<path d="M 520.0 205.0 L 510.0 205.0" stroke="#FF0000" fill="none" stroke-width="4px" />
<path d="M 510.0 205.0 L 500.0 205.0" stroke="#FF0000" fill="none" stroke-width="4px" />
<path d="M 500.0 205.0 L 490.0 205.0" stroke="#FF0000" fill="none" stroke-width="4px" />
<path d="M 490.0 205.0 L 480.0 205.0" stroke="#FF0000" fill="none" stroke-width="4px" />
<path d="M 480.0 205.0 L 490.0 215.0" stroke="#FF0000" fill="none" stroke-width="4px" />
<path d="M 490.0 215.0 L 500.0 215.0" stroke="#FF0000" fill="none" stroke-width="4px" />
<path d="M 500.0 215.0 L 510.0 215.0" stroke="#FF0000" fill="none" stroke-width="4px" />
<path d="M 510.0 215.0 L 520.0 215.0" stroke="#FF0000" fill="none" stroke-width="4px" />
<path d="M 520.0 215.0 L 530.0 215.0" stroke="#FF0000" fill="none" stroke-width="4px" />
<path d="M 530.0 215.0 L 540.0 215.0" stroke="#FF0000" fill="none" stroke-width="4px" />
<path d="M 540.0 215.0 L 550.0 215.0" stroke="#FF0000" fill="none" stroke-width="4px" />
<path d="M 550.0 215.0 L 560.0 215.0" stroke="#FF0000" fill="none" stroke-width="4px" />
<path d="M 560.0 215.0 L 570.0 215.0" stroke="#FF0000" fill="none" stroke-width="4px" />
<path d="M 570.0 215.0 L 560.0 225.0" stroke="#FF0000" fill="none" stroke-width="4px" />
<path d="M 560.0 225.0 L 550.0 225.0" stroke="#FF0000" fill="none" stroke-width="4px" />
<path d="M 550.0 225.0 L 540.0 225.0" stroke="#FF0000" fill="none" stroke-width="4px" />
<path d="M 540.0 225.0 L 530.0 225.0" stroke="#FF0000" fill="none" stroke-width="4px" />
<path d="M 530.0 225.0 L 520.0 225.0" stroke="#FF0000" fill="none" stroke-width="4px" />
<path d="M 520.0 225.0 L 510.0 225.0" stroke="#FF0000" fill="none" stroke-width="4px" />
<path d="M 510.0 225.0 L 510.0 235.0" stroke="#FF0000" fill="none" stroke-width="4px" />
<path d="M 510.0 235.0 L 520.0 235.0" stroke="#FF0000" fill="none" stroke-width="4px" />
<path d="M 520.0 235.0 L 530.0 235.0" stroke="#FF0000" fill="none" stroke-width="4px" />
<path d="M 520.0 165.0 L 510.0 165.0" stroke="#FF0000" fill="none" stroke-width="4px" />
<path d="M 510.0 165.0 L 500.0 165.0" stroke="#FF0000" fill="none" stroke-width="4px" />
<path d="M 500.0 165.0 L 490.0 165.0" stroke="#FF0000" fill="none" stroke-width="4px" />
<path d="M 550.0 85.0 L 560.0 85.0" stroke="#FF0000" fill="none" stroke-width="4px" />
<path d="M 560.0 85.0 L 570.0 85.0" stroke="#FF0000" fill="none" stroke-width="4px" />
<path d="M 570.0 85.0 L 580.0 85.0" stroke="#FF0000" fill="none" stroke-width="4px" />
<path d="M 580.0 85.0 L 590.0 85.0" stroke="#FF0000" fill="none" stroke-width="4px" />
<path d="M 590.0 85.0 L 590.0 75.0" stroke="#FF0000" fill="none" stroke-width="4px" />
<path d="M 590.0 75.0 L 580.0 75.0" stroke="#FF0000" fill="none" stroke-width="4px" />
<path d="M 580.0 75.0 L 570.0 75.0" stroke="#FF0000" fill="none" stroke-width="4px" />
<path d="M 570.0 75.0 L 560.0 75.0" stroke="#FF0000" fill="none" stroke-width="4px" />
<path d="M 560.0 75.0 L 550.0 75.0" stroke="#FF0000" fill="none" stroke-width="4px" />
<path d="M 550.0 75.0 L 540.0 75.0" stroke="#FF0000" fill="none" stroke-width="4px" />
<path d="M 540.0 75.0 L 540.0 65.0" stroke="#FF0000" fill="none" stroke-width="4px" />
<path d="M 540.0 65.0 L 530.0 65.0" stroke="#FF0000" fill="none" stroke-width="4px" />
<path d="M 530.0 65.0 L 530.0 55.0" stroke="#FF0000" fill="none" stroke-width="4px" />
<path d="M 530.0 55.0 L 520.0 55.0" stroke="#FF0000" fill="none" stroke-width="4px" />
<path d="M 520.0 55.0 L 520.0 45.0" stroke="#FF0000" fill="none" stroke-width="4px" />
<path d="M 520.0 45.0 L 530.0 45.0" stroke="#FF0000" fill="none" stroke-width="4px" />
<path d="M 530.0 45.0 L 540.0 45.0" stroke="#FF0000" fill="none" stroke-width="4px" />
<path d="M 540.0 45.0 L 550.0 45.0" stroke="#FF0000" fill="none" stroke-width="4px" />
<path d="M 550.0 45.0 L 560.0 45.0" stroke="#FF0000" fill="none" stroke-width="4px" />
<path d="M 560.0 45.0 L 570.0 45.0" stroke="#FF0000" fill="none" stroke-width="4px" />
<path d="M 570.0 45.0 L 580.0 45.0" stroke="#FF0000" fill="none" stroke-width="4px" />
<path d="M 580.0 45.0 L 590.0 45.0" stroke="#FF0000" fill="none" stroke-width="4px" />
<path d="M 590.0 45.0 L 600.0 45.0" stroke="#FF0000" fill="none" stroke-width="4px" />
<path d="M 600.0 45.0 L 600.0 55.0" stroke="#FF0000" fill="none" stroke-width="4px" />
<path d="M 600.0 55.0 L 590.0 55.0" stroke="#FF0000" fill="none" stroke-width="4px" />
<path d="M 590.0 55.0 L 580.0 55.0" stroke="#FF0000" fill="none" stroke-width="4px" />
<path d="M 580.0 55.0 L 570.0 55.0" stroke="#FF0000" fill="none" stroke-width="4px" />
<path d="M 570.0 55.0 L 560.0 55.0" stroke="#FF0000" fill="none" stroke-width="4px" />
<path d="M 560.0 55.0 L 550.0 55.0" stroke="#FF0000" fill="none" stroke-width="4px" />
<path d="M 550.0 55.0 L 540.0 55.0" stroke="#FF0000" fill="none" stroke-width="4px" />
<path d="M 540.0 55.0 L 550.0 65.0" stroke="#FF0000" fill="none" stroke-width="4px" />
<path d="M 550.0 65.0 L 560.0 65.0" stroke="#FF0000" fill="none" stroke-width="4px" />
<path d="M 560.0 65.0 L 570.0 65.0" stroke="#FF0000" fill="none" stroke-width="4px" />
<path d="M 570.0 65.0 L 580.0 65.0" stroke="#FF0000" fill="none" stroke-width="4px" />
<path d="M 580.0 65.0 L 590.0 65.0" stroke="#FF0000" fill="none" stroke-width="4px" />
<path d="M 590.0 65.0 L 600.0 65.0" stroke="#FF0000" fill="none" stroke-width="4px" />
<path d="M 600.0 65.0 L 610.0 65.0" stroke="#FF0000" fill="none" stroke-width="4px" />
<path d="M 610.0 65.0 L 610.0 55.0" stroke="#FF0000" fill="none" stroke-width="4px" />
<path d="M 590.0 35.0 L 580.0 35.0" stroke="#FF0000" fill="none" stroke-width="4px" />
<path d="M 580.0 35.0 L 570.0 35.0" stroke="#FF0000" fill="none" stroke-width="4px" />
<path d="M 570.0 35.0 L 560.0 35.0" stroke="#FF0000" fill="none" stroke-width="4px" />
<path d="M 560.0 35.0 L 550.0 35.0" stroke="#FF0000" fill="none" stroke-width="4px" />
<path d="M 550.0 35.0 L 540.0 35.0" stroke="#FF0000" fill="none" stroke-width="4px" />
<path d="M 540.0 35.0 L 530.0 35.0" stroke="#FF0000" fill="none" stroke-width="4px" />
<path d="M 530.0 35.0 L 520.0 35.0" stroke="#FF0000" fill="none" stroke-width="4px" />
<path d="M 520.0 35.0 L 520.0 25.0" stroke="#FF0000" fill="none" stroke-width="4px" />
<path d="M 520.0 25.0 L 530.0 25.0" stroke="#FF0000" fill="none" stroke-width="4px" />
<path d="M 530.0 25.0 L 540.0 25.0" stroke="#FF0000" fill="none" stroke-width="4px" />
<path d="M 540.0 25.0 L 550.0 25.0" stroke="#FF0000" fill="none" stroke-width="4px" />
<path d="M 550.0 25.0 L 560.0 25.0" stroke="#FF0000" fill="none" stroke-width="4px" />
<path d="M 560.0 25.0 L 570.0 25.0" stroke="#FF0000" fill="none" stroke-width="4px" />
<path d="M 570.0 25.0 L 580.0 25.0" stroke="#FF0000" fill="none" stroke-width="4px" />
<path d="M 560.0 15.0 L 550.0 15.0" stroke="#FF0000" fill="none" stroke-width="4px" />
<path d="M 550.0 15.0 L 540.0 15.0" stroke="#FF0000" fill="none" stroke-width="4px" />
<path d="M 540.0 15.0 L 530.0 15.0" stroke="#FF0000" fill="none" stroke-width="4px" />
<path d="M 850.0 45.0 L 860.0 45.0" stroke="#FF0000" fill="none" stroke-width="4px" />
<path d="M 860.0 45.0 L 870.0 45.0" stroke="#FF0000" fill="none" stroke-width="4px" />
<path d="M 870.0 45.0 L 880.0 45.0" stroke="#FF0000" fill="none" stroke-width="4px" />
<path d="M 880.0 45.0 L 890.0 45.0" stroke="#FF0000" fill="none" stroke-width="4px" />
<path d="M 890.0 45.0 L 900.0 45.0" stroke="#FF0000" fill="none" stroke-width="4px" />
<path d="M 900.0 45.0 L 910.0 45.0" stroke="#FF0000" fill="none" stroke-width="4px" />
<path d="M 910.0 45.0 L 920.0 45.0" stroke="#FF0000" fill="none" stroke-width="4px" />
<path d="M 920.0 45.0 L 920.0 55.0" stroke="#FF0000" fill="none" stroke-width="4px" />
<path d="M 920.0 55.0 L 910.0 55.0" stroke="#FF0000" fill="none" stroke-width="4px" />
<path d="M 910.0 55.0 L 900.0 55.0" stroke="#FF0000" fill="none" stroke-width="4px" />
<path d="M 900.0 55.0 L 890.0 55.0" stroke="#FF0000" fill="none" stroke-width="4px" />
<path d="M 890.0 55.0 L 880.0 55.0" stroke="#FF0000" fill="none" stroke-width="4px" />
<path d="M 880.0 55.0 L 870.0 55.0" stroke="#FF0000" fill="none" stroke-width="4px" />
<path d="M 870.0 55.0 L 860.0 55.0" stroke="#FF0000" fill="none" stroke-width="4px" />
<path d="M 860.0 55.0 L 850.0 55.0" stroke="#FF0000" fill="none" stroke-width="4px" />
<path d="M 850.0 55.0 L 850.0 65.0" stroke="#FF0000" fill="none" stroke-width="4px" />
<path d="M 850.0 65.0 L 860.0 65.0" stroke="#FF0000" fill="none" stroke-width="4px" />
<path d="M 860.0 65.0 L 870.0 65.0" stroke="#FF0000" fill="none" stroke-width="4px" />
<path d="M 870.0 65.0 L 880.0 65.0" stroke="#FF0000" fill="none" stroke-width="4px" />
<path d="M 880.0 65.0 L 890.0 65.0" stroke="#FF0000" fill="none" stroke-width="4px" />
<path d="M 890.0 65.0 L 900.0 65.0" stroke="#FF0000" fill="none" stroke-width="4px" />
<path d="M 900.0 65.0 L 910.0 65.0" stroke="#FF0000" fill="none" stroke-width="4px" />
<path d="M 910.0 65.0 L 920.0 65.0" stroke="#FF0000" fill="none" stroke-width="4px" />
<path d="M 920.0 65.0 L 930.0 65.0" stroke="#FF0000" fill="none" stroke-width="4px" />
<path d="M 930.0 65.0 L 940.0 65.0" stroke="#FF0000" fill="none" stroke-width="4px" />
<path d="M 940.0 65.0 L 940.0 75.0" stroke="#FF0000" fill="none" stroke-width="4px" />
<path d="M 940.0 75.0 L 930.0 75.0" stroke="#FF0000" fill="none" stroke-width="4px" />
<path d="M 930.0 75.0 L 920.0 75.0" stroke="#FF0000" fill="none" stroke-width="4px" />
<path d="M 920.0 75.0 L 910.0 75.0" stroke="#FF0000" fill="none" stroke-width="4px" />
<path d="M 910.0 75.0 L 900.0 75.0" stroke="#FF0000" fill="none" stroke-width="4px" />
<path d="M 900.0 75.0 L 890.0 75.0" stroke="#FF0000" fill="none" stroke-width="4px" />
<path d="M 890.0 75.0 L 880.0 75.0" stroke="#FF0000" fill="none" stroke-width="4px" />
<path d="M 880.0 75.0 L 870.0 75.0" stroke="#FF0000" fill="none" stroke-width="4px" />
<path d="M 870.0 75.0 L 860.0 75.0" stroke="#FF0000" fill="none" stroke-width="4px" />
<path d="M 860.0 75.0 L 870.0 85.0" stroke="#FF0000" fill="none" stroke-width="4px" />
<path d="M 870.0 85.0 L 880.0 85.0" stroke="#FF0000" fill="none" stroke-width="4px" />
<path d="M 880.0 85.0 L 890.0 85.0" stroke="#FF0000" fill="none" stroke-width="4px" />
<path d="M 890.0 85.0 L 900.0 85.0" stroke="#FF0000" fill="none" stroke-width="4px" />
<path d="M 900.0 85.0 L 910.0 85.0" stroke="#FF0000" fill="none" stroke-width="4px" />
<path d="M 910.0 85.0 L 920.0 85.0" stroke="#FF0000" fill="none" stroke-width="4px" />
<path d="M 920.0 85.0 L 930.0 85.0" stroke="#FF0000" fill="none" stroke-width="4px" />
<path d="M 930.0 85.0 L 930.0 95.0" stroke="#FF0000" fill="none" stroke-width="4px" />
<path d="M 930.0 95.0 L 920.0 95.0" stroke="#FF0000" fill="none" stroke-width="4px" />
<path d="M 920.0 95.0 L 910.0 95.0" stroke="#FF0000" fill="none" stroke-width="4px" />
<path d="M 910.0 95.0 L 900.0 95.0" stroke="#FF0000" fill="none" stroke-width="4px" />
<path d="M 900.0 95.0 L 890.0 95.0" stroke="#FF0000" fill="none" stroke-width="4px" />
<path d="M 890.0 95.0 L 880.0 95.0" stroke="#FF0000" fill="none" stroke-width="4px" />
<path d="M 880.0 95.0 L 890.0 105.0" stroke="#FF0000" fill="none" stroke-width="4px" />
<path d="M 890.0 105.0 L 900.0 105.0" stroke="#FF0000" fill="none" stroke-width="4px" />
<path d="M 900.0 105.0 L 910.0 105.0" stroke="#FF0000" fill="none" stroke-width="4px" />
<path d="M 910.0 105.0 L 920.0 105.0" stroke="#FF0000" fill="none" stroke-width="4px" />
<path d="M 910.0 35.0 L 900.0 35.0" stroke="#FF0000" fill="none" stroke-width="4px" />
<path d="M 900.0 35.0 L 890.0 35.0" stroke="#FF0000" fill="none" stroke-width="4px" />
<path d="M 890.0 35.0 L 880.0 35.0" stroke="#FF0000" fill="none" stroke-width="4px" />
<path d="M 880.0 35.0 L 870.0 35.0" stroke="#FF0000" fill="none" stroke-width="4px" />
<path d="M 870.0 35.0 L 860.0 35.0" stroke="#FF0000" fill="none" stroke-width="4px" />
<path d="M 860.0 35.0 L 870.0 25.0" stroke="#FF0000" fill="none" stroke-width="4px" />
<path d="M 870.0 25.0 L 880.0 25.0" stroke="#FF0000" fill="none" stroke-width="4px" />
<path d="M 860.0 185.0 L 860.0 195.0" stroke="#FF0000" fill="none" stroke-width="4px" />
<path d="M 860.0 195.0 L 850.0 195.0" stroke="#FF0000" fill="none" stroke-width="4px" />
<path d="M 850.0 195.0 L 850.0 205.0" stroke="#FF0000" fill="none" stroke-width="4px" />
<path d="M 850.0 205.0 L 840.0 205.0" stroke="#FF0000" fill="none" stroke-width="4px" />
<path d="M 840.0 205.0 L 850.0 215.0" stroke="#FF0000" fill="none" stroke-width="4px" />
<path d="M 850.0 215.0 L 860.0 215.0" stroke="#FF0000" fill="none" stroke-width="4px" />
<path d="M 860.0 215.0 L 870.0 215.0" stroke="#FF0000" fill="none" stroke-width="4px" />
<path d="M 870.0 215.0 L 880.0 215.0" stroke="#FF0000" fill="none" stroke-width="4px" />
<path d="M 880.0 215.0 L 890.0 215.0" stroke="#FF0000" fill="none" stroke-width="4px" />
<path d="M 890.0 215.0 L 900.0 215.0" stroke="#FF0000" fill="none" stroke-width="4px" />
<path d="M 900.0 215.0 L 890.0 225.0" stroke="#FF0000" fill="none" stroke-width="4px" />
<path d="M 890.0 225.0 L 880.0 225.0" stroke="#FF0000" fill="none" stroke-width="4px" />
<path d="M 880.0 225.0 L 870.0 225.0" stroke="#FF0000" fill="none" stroke-width="4px" />
<path d="M 870.0 225.0 L 860.0 225.0" stroke="#FF0000" fill="none" stroke-width="4px" />
<path d="M 860.0 225.0 L 870.0 235.0" stroke="#FF0000" fill="none" stroke-width="4px" />
<path d="M 870.0 235.0 L 880.0 235.0" stroke="#FF0000" fill="none" stroke-width="4px" />
<path d="M 880.0 205.0 L 870.0 205.0" stroke="#FF0000" fill="none" stroke-width="4px" />
<path d="M 870.0 205.0 L 860.0 205.0" stroke="#FF0000" fill="none" stroke-width="4px" />
<path d="M 860.0 205.0 L 870.0 195.0" stroke="#FF0000" fill="none" stroke-width="4px" />
<path d="M 870.0 195.0 L 880.0 195.0" stroke="#FF0000" fill="none" stroke-width="4px" />
<path d="M 880.0 195.0 L 890.0 205.0" stroke="#FF0000" fill="none" stroke-width="4px" />
<path d="M 1180.0 85.0 L 1190.0 85.0" stroke="#FF0000" fill="none" stroke-width="4px" />
<path d="M 1190.0 85.0 L 1200.0 85.0" stroke="#FF0000" fill="none" stroke-width="4px" />
<path d="M 1200.0 85.0 L 1210.0 85.0" stroke="#FF0000" fill="none" stroke-width="4px" />
<path d="M 1210.0 85.0 L 1210.0 75.0" stroke="#FF0000" fill="none" stroke-width="4px" />
<path d="M 1210.0 75.0 L 1200.0 75.0" stroke="#FF0000" fill="none" stroke-width="4px" />
<path d="M 1200.0 75.0 L 1190.0 75.0" stroke="#FF0000" fill="none" stroke-width="4px" />
<path d="M 1190.0 75.0 L 1180.0 75.0" stroke="#FF0000" fill="none" stroke-width="4px" />
<path d="M 1180.0 75.0 L 1190.0 65.0" stroke="#FF0000" fill="none" stroke-width="4px" />
<path d="M 1190.0 65.0 L 1200.0 65.0" stroke="#FF0000" fill="none" stroke-width="4px" />
<path d="M 1200.0 95.0 L 1190.0 95.0" stroke="#FF0000" fill="none" stroke-width="4px" />
</svg>