<svg width="1332.95833333" height="235.0" xmlns="http://www.w3.org/2000/svg" version="1.1">
<path d="M 0.0 235.0 L 1332.95833333 235.0 L 1332.95833333 0.0 L 0.0 0.0 L 0.0 235.0" stroke="#000000" fill="none" stroke-width="3px" />
<path d="M 10.0 257.5 L 0.0 247.5 L 10.0 237.5" stroke="#969696" fill="none" stroke-width="1px" />
<path d="M 10.0 237.5 L 1322.95833333 237.5" stroke="#969696" fill="none" stroke-width="1px" />
<path d="M 1322.95833333 237.5 L 1332.95833333 227.5 L 1322.95833333 217.5" stroke="#969696" fill="none" stroke-width="1px" />
<path d="M 1322.95833333 217.5 L 10.0 217.5" stroke="#969696" fill="none" stroke-width="1px" />
<path d="M 10.0 217.5 L 0.0 207.5 L 10.0 197.5" stroke="#969696" fill="none" stroke-width="1px" />
<path d="M 10.0 197.5 L 1322.95833333 197.5" stroke="#969696" fill="none" stroke-width="1px" />
<path d="M 1322.95833333 197.5 L 1332.95833333 187.5 L 1322.95833333 177.5" stroke="#969696" fill="none" stroke-width="1px" />
<path d="M 1322.95833333 177.5 L 10.0 177.5" stroke="#969696" fill="none" stroke-width="1px" />
<path d="M 10.0 177.5 L 0.0 167.5 L 10.0 157.5" stroke="#969696" fill="none" stroke-width="1px" />
<path d="M 10.0 157.5 L 1322.95833333 157.5" stroke="#969696" fill="none" stroke-width="1px" />
<path d="M 1322.95833333 157.5 L 1332.95833333 147.5 L 1322.95833333 137.5" stroke="#969696" fill="none" stroke-width="1px" />
<path d="M 1322.95833333 137.5 L 10.0 137.5" stroke="#969696" fill="none" stroke-width="1px" />
<path d="M 10.0 137.5 L 0.0 127.5 L 10.0 117.5" stroke="#969696" fill="none" stroke-width="1px" />
<path d="M 10.0 117.5 L 1322.95833333 117.5" stroke="#969696" fill="none" stroke-width="1px" />
<path d="M 1322.95833333 117.5 L 1332.95833333 107.5 L 1322.95833333 97.5" stroke="#969696" fill="none" stroke-width="1px" />
<path d="M 1322.95833333 97.5 L 10.0 97.5" stroke="#969696" fill="none" stroke-width="1px" />
<path d="M 10.0 97.5 L 0.0 87.5 L 10.0 77.5" stroke="#969696" fill="none" stroke-width="1px" />
<path d="M 10.0 77.5 L 1322.95833333 77.5" stroke="#969696" fill="none" stroke-width="1px" />
<path d="M 1322.95833333 77.5 L 1332.95833333 67.5 L 1322.95833333 57.5" stroke="#969696" fill="none" stroke-width="1px" />
<path d="M 1322.95833333 57.5 L 10.0 57.5" stroke="#969696" fill="none" stroke-width="1px" />
<path d="M 10.0 57.5 L 0.0 47.5 L 10.0 37.5" stroke="#969696" fill="none" stroke-width="1px" />
<path d="M 10.0 37.5 L 1322.95833333 37.5" stroke="#969696" fill="none" stroke-width="1px" />
<path d="M 1322.95833333 37.5 L 1332.95833333 27.5 L 1322.95833333 17.5" stroke="#969696" fill="none" stroke-width="1px" />
<path d="M 1322.95833333 17.5 L 10.0 17.5" stroke="#969696" fill="none" stroke-width="1px" />
<path d="M 10.0 17.5 L 0.0 7.5 L 10.0 -2.5" stroke="#969696" fill="none" stroke-width="1px" />
<path d="M 10.0 -2.5 L 1322.95833333 -2.5" stroke="#969696" fill="none" stroke-width="1px" />
<path d="M 1322.95833333 -2.5 L 1332.95833333 -12.5 L 1322.95833333 -22.5" stroke="#969696" fill="none" stroke-width="1px" />
<path d="M 0.0 235.0 L 237.041666666 145.0" stroke="#0095FF" fill="none" stroke-width="2px" />
<path d="M 287.041666666 135.0 L 277.041666666 115.0" stroke="#0095FF" fill="none" stroke-width="2px" />
<path d="M 267.041666666 105.0 L 267.041666666 155.0" stroke="#0095FF" fill="none" stroke-width="2px" />
<path d="M 257.041666666 165.0 L 637.041666666 45.0" stroke="#0095FF" fill="none" stroke-width="2px" />
<path d="M 647.041666666 55.0 L 647.041666666 35.0" stroke="#0095FF" fill="none" stroke-width="2px" />
<path d="M 657.041666666 35.0 L 657.041666666 15.0" stroke="#0095FF" fill="none" stroke-width="2px" />
<path d="M 667.041666666 15.0 L 667.041666666 -5.0" stroke="#0095FF" fill="none" stroke-width="2px" />
<path d="M 677.041666666 -5.0 L 697.041666666 15.0" stroke="#0095FF" fill="none" stroke-width="2px" />
<path d="M 697.041666666 15.0 L 727.041666666 15.0" stroke="#0095FF" fill="none" stroke-width="2px" />
<path d="M 747.041666666 45.0 L 727.041666666 55.0" stroke="#0095FF" fill="none" stroke-width="2px" />
<path d="M 707.041666666 75.0 L 737.041666666 5.0" stroke="#0095FF" fill="none" stroke-width="2px" />
<path d="M 747.041666666 -5.0 L 1027.04166667 145.0" stroke="#0095FF" fill="none" stroke-width="2px" />
<path d="M 1017.04166667 215.0 L 1017.04166667 175.0" stroke="#0095FF" fill="none" stroke-width="2px" />
<path d="M 1027.04166667 165.0 L 1057.04166667 155.0" stroke="#0095FF" fill="none" stroke-width="2px" />
<path d="M 237.041666666 145.0 L 247.041666666 145.0" stroke="#FF0000" fill="none" stroke-width="4px" />
<path d="M 247.041666666 145.0 L 257.041666666 145.0" stroke="#FF0000" fill="none" stroke-width="4px" />
<path d="M 257.041666666 145.0 L 267.041666666 145.0" stroke="#FF0000" fill="none" stroke-width="4px" />
<path d="M 267.041666666 145.0 L 277.041666666 145.0" stroke="#FF0000" fill="none" stroke-width="4px" />
<path d="M 277.041666666 145.0 L 277.041666666 135.0" stroke="#FF0000" fill="none" stroke-width="4px" />
<path d="M 277.041666666 135.0 L 267.041666666 135.0" stroke="#FF0000" fill="none" stroke-width="4px" />
<path d="M 267.041666666 135.0 L 257.041666666 135.0" stroke="#FF0000" fill="none" stroke-width="4px" />
<path d="M 257.041666666 135.0 L 247.041666666 135.0" stroke="#FF0000" fill="none" stroke-width="4px" />
<path d="M 247.041666666 135.0 L 237.041666666 135.0" stroke="#FF0000" fill="none" stroke-width="4px" />
<path d="M 237.041666666 135.0 L 237.041666666 125.0" stroke="#FF0000" fill="none" stroke-width="4px" />
<path d="M 237.041666666 125.0 L 247.041666666 125.0" stroke="#FF0000" fill="none" stroke-width="4px" />
<path d="M 247.041666666 125.0 L 257.041666666 125.0" stroke="#FF0000" fill="none" stroke-width="4px" />
<path d="M 257.041666666 125.0 L 267.041666666 125.0" stroke="#FF0000" fill="none" stroke-width="4px" />
<path d="M 267.041666666 125.0 L 277.041666666 125.0" stroke="#FF0000" fill="none" stroke-width="4px" />
<path d="M 277.041666666 125.0 L 287.041666666 125.0" stroke="#FF0000" fill="none" stroke-width="4px" />
<path d="M 287.041666666 125.0 L 287.041666666 135.0" stroke="#FF0000" fill="none" stroke-width="4px" />
<path d="M 277.041666666 115.0 L 267.041666666 115.0" stroke="#FF0000" fill="none" stroke-width="4px" />
<path d="M 267.041666666 115.0 L 257.041666666 115.0" stroke="#FF0000" fill="none" stroke-width="4px" />
<path d="M 257.041666666 115.0 L 247.041666666 115.0" stroke="#FF0000" fill="none" stroke-width="4px" />
<path d="M 247.041666666 115.0 L 257.041666666 105.0" stroke="#FF0000" fill="none" stroke-width="4px" />
<path d="M 257.041666666 105.0 L 267.041666666 105.0" stroke="#FF0000" fill="none" stroke-width="4px" />
<path d="M 267.041666666 155.0 L 257.041666666 155.0" stroke="#FF0000" fill="none" stroke-width="4px" />
<path d="M 257.041666666 155.0 L 247.041666666 155.0" stroke="#FF0000" fill="none" stroke-width="4px" />
<path d="M 247.041666666 155.0 L 257.041666666 165.0" stroke="#FF0000" fill="none" stroke-width="4px" />
<path d="M 637.041666666 45.0 L 647.041666666 45.0" stroke="#FF0000" fill="none" stroke-width="4px" />
<path d="M 647.041666666 45.0 L 657.041666666 45.0" stroke="#FF0000" fill="none" stroke-width="4px" />
<path d="M 657.041666666 45.0 L 667.041666666 45.0" stroke="#FF0000" fill="none" stroke-width="4px" />
<path d="M 667.041666666 45.0 L 677.041666666 45.0" stroke="#FF0000" fill="none" stroke-width="4px" />
<path d="M 677.041666666 45.0 L 687.041666666 45.0" stroke="#FF0000" fill="none" stroke-width="4px" />
<path d="M 687.041666666 45.0 L 697.041666666 45.0" stroke="#FF0000" fill="none" stroke-width="4px" />
<path d="M 697.041666666 45.0 L 707.041666666 45.0" stroke="#FF0000" fill="none" stroke-width="4px" />
<path d="M 707.041666666 45.0 L 717.041666666 45.0" stroke="#FF0000" fill="none" stroke-width="4px" />
<path d="M 717.041666666 45.0 L 717.041666666 55.0" stroke="#FF0000" fill="none" stroke-width="4px" />
<path d="M 717.041666666 55.0 L 707.041666666 55.0" stroke="#FF0000" fill="none" stroke-width="4px" />
<path d="M 707.041666666 55.0 L 697.041666666 55.0" stroke="#FF0000" fill="none" stroke-width="4px" />
<path d="M 697.041666666 55.0 L 687.041666666 55.0" stroke="#FF0000" fill="none" stroke-width="4px" />
<path d="M 687.041666666 55.0 L 677.041666666 55.0" stroke="#FF0000" fill="none" stroke-width="4px" />
<path d="M 677.041666666 55.0 L 667.041666666 55.0" stroke="#FF0000" fill="none" stroke-width="4px" />
<path d="M 667.041666666 55.0 L 657.041666666 55.0" stroke="#FF0000" fill="none" stroke-width="4px" />
<path d="M 657.041666666 55.0 L 647.041666666 55.0" stroke="#FF0000" fill="none" stroke-width="4px" />
<path d="M 647.041666666 35.0 L 637.041666666 35.0" stroke="#FF0000" fill="none" stroke-width="4px" />
<path d="M 637.041666666 35.0 L 637.041666666 25.0" stroke="#FF0000" fill="none" stroke-width="4px" />
<path d="M 637.041666666 25.0 L 647.041666666 25.0" stroke="#FF0000" fill="none" stroke-width="4px" />
<path d="M 647.041666666 25.0 L 657.041666666 25.0" stroke="#FF0000" fill="none" stroke-width="4px" />
<path d="M 657.041666666 25.0 L 667.041666666 25.0" stroke="#FF0000" fill="none" stroke-width="4px" />
<path d="M 667.041666666 25.0 L 677.041666666 25.0" stroke="#FF0000" fill="none" stroke-width="4px" />
<path d="M 677.041666666 25.0 L 687.041666666 25.0" stroke="#FF0000" fill="none" stroke-width="4px" />
<path d="M 687.041666666 25.0 L 697.041666666 25.0" stroke="#FF0000" fill="none" stroke-width="4px" />
<path d="M 697.041666666 25.0 L 707.041666666 25.0" stroke="#FF0000" fill="none" stroke-width="4px" />
<path d="M 707.041666666 25.0 L 707.041666666 35.0" stroke="#FF0000" fill="none" stroke-width="4px" />
<path d="M 707.041666666 35.0 L 697.041666666 35.0" stroke="#FF0000" fill="none" stroke-width="4px" />
<path d="M 697.041666666 35.0 L 687.041666666 35.0" stroke="#FF0000" fill="none" stroke-width="4px" />
<path d="M 687.041666666 35.0 L 677.041666666 35.0" stroke="#FF0000" fill="none" stroke-width="4px" />
<path d="M 677.041666666 35.0 L 667.041666666 35.0" stroke="#FF0000" fill="none" stroke-width="4px" />
<path d="M 667.041666666 35.0 L 657.041666666 35.0" stroke="#FF0000" fill="none" stroke-width="4px" />
<path d="M 657.041666666 15.0 L 647.041666666 15.0" stroke="#FF0000" fill="none" stroke-width="4px" />
<path d="M 647.041666666 15.0 L 637.041666666 15.0" stroke="#FF0000" fill="none" stroke-width="4px" />
<path d="M 637.041666666 15.0 L 647.041666666 5.0" stroke="#FF0000" fill="none" stroke-width="4px" />
<path d="M 647.041666666 5.0 L 657.041666666 5.0" stroke="#FF0000" fill="none" stroke-width="4px" />
<path d="M 657.041666666 5.0 L 667.041666666 5.0" stroke="#FF0000" fill="none" stroke-width="4px" />
<path d="M 667.041666666 5.0 L 677.041666666 5.0" stroke="#FF0000" fill="none" stroke-width="4px" />
<path d="M 677.041666666 5.0 L 687.041666666 5.0" stroke="#FF0000" fill="none" stroke-width="4px" />
<path d="M 687.041666666 5.0 L 687.041666666 15.0" stroke="#FF0000" fill="none" stroke-width="4px" />
<path d="M 687.041666666 15.0 L 677.041666666 15.0" stroke="#FF0000" fill="none" stroke-width="4px" />
<path d="M 677.041666666 15.0 L 667.041666666 15.0" stroke="#FF0000" fill="none" stroke-width="4px" />
<path d="M 667.041666666 -5.0 L 657.041666666 -5.0" stroke="#FF0000" fill="none" stroke-width="4px" />
<path d="M 657.041666666 -5.0 L 677.041666666 -5.0" stroke="#FF0000" fill="none" stroke-width="4px" />
<path d="M 727.041666666 15.0 L 737.041666666 15.0" stroke="#FF0000" fill="none" stroke-width="4px" />
<path d="M 737.041666666 15.0 L 747.041666666 15.0" stroke="#FF0000" fill="none" stroke-width="4px" />
<path d="M 747.041666666 15.0 L 757.041666666 15.0" stroke="#FF0000" fill="none" stroke-width="4px" />
<path d="M 757.041666666 15.0 L 767.041666666 15.0" stroke="#FF0000" fill="none" stroke-width="4px" />
<path d="M 767.041666666 15.0 L 777.041666666 15.0" stroke="#FF0000" fill="none" stroke-width="4px" />
<path d="M 777.041666666 15.0 L 777.041666666 25.0" stroke="#FF0000" fill="none" stroke-width="4px" />
<path d="M 777.041666666 25.0 L 767.041666666 25.0" stroke="#FF0000" fill="none" stroke-width="4px" />
<path d="M 767.041666666 25.0 L 757.041666666 25.0" stroke="#FF0000" fill="none" stroke-width="4px" />
<path d="M 757.041666666 25.0 L 747.041666666 25.0" stroke="#FF0000" fill="none" stroke-width="4px" />
<path d="M 747.041666666 25.0 L 737.041666666 25.0" stroke="#FF0000" fill="none" stroke-width="4px" />
<path d="M 737.041666666 25.0 L 727.041666666 25.0" stroke="#FF0000" fill="none" stroke-width="4px" />
<path d="M 727.041666666 25.0 L 717.041666666 35.0" stroke="#FF0000" fill="none" stroke-width="4px" />
<path d="M 717.041666666 35.0 L 737.041666666 35.0" stroke="#FF0000" fill="none" stroke-width="4px" />
<path d="M 737.041666666 35.0 L 747.041666666 35.0" stroke="#FF0000" fill="none" stroke-width="4px" />
<path d="M 747.041666666 35.0 L 757.041666666 35.0" stroke="#FF0000" fill="none" stroke-width="4px" />
<path d="M 757.041666666 35.0 L 767.041666666 35.0" stroke="#FF0000" fill="none" stroke-width="4px" />
<path d="M 767.041666666 35.0 L 757.041666666 45.0" stroke="#FF0000" fill="none" stroke-width="4px" />
<path d="M 757.041666666 45.0 L 747.041666666 45.0" stroke="#FF0000" fill="none" stroke-width="4px" />
<path d="M 727.041666666 55.0 L 717.041666666 65.0" stroke="#FF0000" fill="none" stroke-width="4px" />
<path d="M 717.041666666 65.0 L 707.041666666 65.0" stroke="#FF0000" fill="none" stroke-width="4px" />
<path d="M 707.041666666 65.0 L 697.041666666 65.0" stroke="#FF0000" fill="none" stroke-width="4px" />
<path d="M 697.041666666 65.0 L 687.041666666 65.0" stroke="#FF0000" fill="none" stroke-width="4px" />
<path d="M 687.041666666 65.0 L 697.041666666 75.0" stroke="#FF0000" fill="none" stroke-width="4px" />
<path d="M 697.041666666 75.0 L 707.041666666 75.0" stroke="#FF0000" fill="none" stroke-width="4px" />
<path d="M 737.041666666 5.0 L 747.041666666 5.0" stroke="#FF0000" fill="none" stroke-width="4px" />
<path d="M 747.041666666 5.0 L 757.041666666 5.0" stroke="#FF0000" fill="none" stroke-width="4px" />
<path d="M 757.041666666 5.0 L 767.041666666 5.0" stroke="#FF0000" fill="none" stroke-width="4px" />
<path d="M 767.041666666 5.0 L 757.041666666 -5.0" stroke="#FF0000" fill="none" stroke-width="4px" />
<path d="M 757.041666666 -5.0 L 747.041666666 -5.0" stroke="#FF0000" fill="none" stroke-width="4px" />
<path d="M 1027.04166667 145.0 L 1037.04166667 145.0" stroke="#FF0000" fill="none" stroke-width="4px" />
<path d="M 1037.04166667 145.0 L 1047.04166667 145.0" stroke="#FF0000" fill="none" stroke-width="4px" />
<path d="M 1047.04166667 145.0 L 1047.04166667 155.0" stroke="#FF0000" fill="none" stroke-width="4px" />
<path d="M 1047.04166667 155.0 L 1037.04166667 155.0" stroke="#FF0000" fill="none" stroke-width="4px" />
<path d="M 1037.04166667 155.0 L 1027.04166667 155.0" stroke="#FF0000" fill="none" stroke-width="4px" />
<path d="M 1027.04166667 155.0 L 1017.04166667 155.0" stroke="#FF0000" fill="none" stroke-width="4px" />
<path d="M 1017.04166667 155.0 L 1017.04166667 165.0" stroke="#FF0000" fill="none" stroke-width="4px" />
<path d="M 1017.04166667 165.0 L 1007.04166667 165.0" stroke="#FF0000" fill="none" stroke-width="4px" />
<path d="M 1007.04166667 165.0 L 1007.04166667 175.0" stroke="#FF0000" fill="none" stroke-width="4px" />
<path d="M 1007.04166667 175.0 L 997.041666666 175.0" stroke="#FF0000" fill="none" stroke-width="4px" />
<path d="M 997.041666666 175.0 L 997.041666666 185.0" stroke="#FF0000" fill="none" stroke-width="4px" />
<path d="M 997.041666666 185.0 L 1007.04166667 185.0" stroke="#FF0000" fill="none" stroke-width="4px" />
<path d="M 1007.04166667 185.0 L 1017.04166667 185.0" stroke="#FF0000" fill="none" stroke-width="4px" />
<path d="M 1017.04166667 185.0 L 1027.04166667 185.0" stroke="#FF0000" fill="none" stroke-width="4px" />
<path d="M 1027.04166667 185.0 L 1037.04166667 185.0" stroke="#FF0000" fill="none" stroke-width="4px" />
<path d="M 1037.04166667 185.0 L 1047.04166667 185.0" stroke="#FF0000" fill="none" stroke-width="4px" />
<path d="M 1047.04166667 185.0 L 1057.04166667 185.0" stroke="#FF0000" fill="none" stroke-width="4px" />
<path d="M 1057.04166667 185.0 L 1067.04166667 185.0" stroke="#FF0000" fill="none" stroke-width="4px" />
<path d="M 1067.04166667 185.0 L 1077.04166667 185.0" stroke="#FF0000" fill="none" stroke-width="4px" />
<path d="M 1077.04166667 185.0 L 1077.04166667 195.0" stroke="#FF0000" fill="none" stroke-width="4px" />
<path d="M 1077.04166667 195.0 L 1067.04166667 195.0" stroke="#FF0000" fill="none" stroke-width="4px" />
<path d="M 1067.04166667 195.0 L 1057.04166667 195.0" stroke="#FF0000" fill="none" stroke-width="4px" />
<path d="M 1057.04166667 195.0 L 1047.04166667 195.0" stroke="#FF0000" fill="none" stroke-width="4px" />
<path d="M 1047.04166667 195.0 L 1037.04166667 195.0" stroke="#FF0000" fill="none" stroke-width="4px" />
<path d="M 1037.04166667 195.0 L 1027.04166667 195.0" stroke="#FF0000" fill="none" stroke-width="4px" />
<path d="M 1027.04166667 195.0 L 1017.04166667 195.0" stroke="#FF0000" fill="none" stroke-width="4px" />
<path d="M 1017.04166667 195.0 L 1007.04166667 195.0" stroke="#FF0000" fill="none" stroke-width="4px" />
<path d="M 1007.04166667 195.0 L 1007.04166667 205.0" stroke="#FF0000" fill="none" stroke-width="4px" />
<path d="M 1007.04166667 205.0 L 1017.04166667 205.0" stroke="#FF0000" fill="none" stroke-width="4px" />
<path d="M 1017.04166667 205.0 L 1027.04166667 205.0" stroke="#FF0000" fill="none" stroke-width="4px" />
<path d="M 1027.04166667 205.0 L 1037.04166667 205.0" stroke="#FF0000" fill="none" stroke-width="4px" />
<path d="M 1037.04166667 205.0 L 1047.04166667 205.0" stroke="#FF0000" fill="none" stroke-width="4px" />
<path d="M 1047.04166667 205.0 L 1057.04166667 205.0" stroke="#FF0000" fill="none" stroke-width="4px" />
<path d="M 1057.04166667 205.0 L 1067.04166667 205.0" stroke="#FF0000" fill="none" stroke-width="4px" />
<path d="M 1067.04166667 205.0 L 1057.04166667 215.0" stroke="#FF0000" fill="none" stroke-width="4px" />
<path d="M 1057.04166667 215.0 L 1047.04166667 215.0" stroke="#FF0000" fill="none" stroke-width="4px" />
<path d="M 1047.04166667 215.0 L 1037.04166667 215.0" stroke="#FF0000" fill="none" stroke-width="4px" />
<path d="M 1037.04166667 215.0 L 1027.04166667 215.0" stroke="#FF0000" fill="none" stroke-width="4px" />
<path d="M 1027.04166667 215.0 L 1017.04166667 215.0" stroke="#FF0000" fill="none" stroke-width="4px" />
<path d="M 1017.04166667 175.0 L 1027.04166667 175.0" stroke="#FF0000" fill="none" stroke-width="4px" />
<path d="M 1027.04166667 175.0 L 1037.04166667 175.0" stroke="#FF0000" fill="none" stroke-width="4px" />
<path d="M 1037.04166667 175.0 L 1047.04166667 175.0" stroke="#FF0000" fill="none" stroke-width="4px" />
<path d="M 1047.04166667 175.0 L 1057.04166667 175.0" stroke="#FF0000" fill="none" stroke-width="4px" />
<path d="M 1057.04166667 175.0 L 1067.04166667 175.0" stroke="#FF0000" fill="none" stroke-width="4px" />
<path d="M 1067.04166667 175.0 L 1077.04166667 175.0" stroke="#FF0000" fill="none" stroke-width="4px" />
<path d="M 1077.04166667 175.0 L 1067.04166667 165.0" stroke="#FF0000" fill="none" stroke-width="4px" />
<path d="M 1067.04166667 165.0 L 1057.04166667 165.0" stroke="#FF0000" fill="none" stroke-width="4px" />
<path d="M 1057.04166667 165.0 L 1047.04166667 165.0" stroke="#FF0000" fill="none" stroke-width="4px" />
<path d="M 1047.04166667 165.0 L 1037.04166667 165.0" stroke="#FF0000" fill="none" stroke-width="4px" />
<path d="M 1037.04166667 165.0 L 1027.04166667 165.0" stroke="#FF0000" fill="none" stroke-width="4px" />
</svg>