<svg width="1332.95833333" height="235.0" xmlns="http://www.w3.org/2000/svg" version="1.1">
<path d="M 0.0 235.0 L 1332.95833333 235.0 L 1332.95833333 0.0 L 0.0 0.0 L 0.0 235.0" stroke="#000000" fill="none" stroke-width="3px" />
<path d="M 10.0 257.5 L 0.0 247.5 L 10.0 237.5" stroke="#969696" fill="none" stroke-width="1px" />
<path d="M 10.0 237.5 L 1322.95833333 237.5" stroke="#969696" fill="none" stroke-width="1px" />
<path d="M 1322.95833333 237.5 L 1332.95833333 227.5 L 1322.95833333 217.5" stroke="#969696" fill="none" stroke-width="1px" />
<path d="M 1322.95833333 217.5 L 10.0 217.5" stroke="#969696" fill="none" stroke-width="1px" />
<path d="M 10.0 217.5 L 0.0 207.5 L 10.0 197.5" stroke="#969696" fill="none" stroke-width="1px" />
<path d="M 10.0 197.5 L 1322.95833333 197.5" stroke="#969696" fill="none" stroke-width="1px" />
<path d="M 1322.95833333 197.5 L 1332.95833333 187.5 L 1322.95833333 177.5" stroke="#969696" fill="none" stroke-width="1px" />
<path d="M 1322.95833333 177.5 L 10.0 177.5" stroke="#969696" fill="none" stroke-width="1px" />
<path d="M 10.0 177.5 L 0.0 167.5 L 10.0 157.5" stroke="#969696" fill="none" stroke-width="1px" />
<path d="M 10.0 157.5 L 1322.95833333 157.5" stroke="#969696" fill="none" stroke-width="1px" />
<path d="M 1322.95833333 157.5 L 1332.95833333 147.5 L 1322.95833333 137.5" stroke="#969696" fill="none" stroke-width="1px" />
<path d="M 1322.95833333 137.5 L 10.0 137.5" stroke="#969696" fill="none" stroke-width="1px" />
<path d="M 10.0 137.5 L 0.0 127.5 L 10.0 117.5" stroke="#969696" fill="none" stroke-width="1px" />
<path d="M 10.0 117.5 L 1322.95833333 117.5" stroke="#969696" fill="none" stroke-width="1px" />
<path d="M 1322.95833333 117.5 L 1332.95833333 107.5 L 1322.95833333 97.5" stroke="#969696" fill="none" stroke-width="1px" />
<path d="M 1322.95833333 97.5 L 10.0 97.5" stroke="#969696" fill="none" stroke-width="1px" />
<path d="M 10.0 97.5 L 0.0 87.5 L 10.0 77.5" stroke="#969696" fill="none" stroke-width="1px" />
<path d="M 10.0 77.5 L 1322.95833333 77.5" stroke="#969696" fill="none" stroke-width="1px" />
<path d="M 1322.95833333 77.5 L 1332.95833333 67.5 L 1322.95833333 57.5" stroke="#969696" fill="none" stroke-width="1px" />
<path d="M 1322.95833333 57.5 L 10.0 57.5" stroke="#969696" fill="none" stroke-width="1px" />
<path d="M 10.0 57.5 L 0.0 47.5 L 10.0 37.5" stroke="#969696" fill="none" stroke-width="1px" />
<path d="M 10.0 37.5 L 1322.95833333 37.5" stroke="#969696" fill="none" stroke-width="1px" />
<path d="M 1322.95833333 37.5 L 1332.95833333 27.5 L 1322.95833333 17.5" stroke="#969696" fill="none" stroke-width="1px" />
<path d="M 1322.95833333 17.5 L 10.0 17.5" stroke="#969696" fill="none" stroke-width="1px" />
<path d="M 10.0 17.5 L 0.0 7.5 L 10.0 -2.5" stroke="#969696" fill="none" stroke-width="1px" />
<path d="M 10.0 -2.5 L 1322.95833333 -2.5" stroke="#969696" fill="none" stroke-width="1px" />
<path d="M 1322.95833333 -2.5 L 1332.95833333 -12.5 L 1322.95833333 -22.5" stroke="#969696" fill="none" stroke-width="1px" />
<path d="M 0.0 235.0 L 70.0 195.0" stroke="#0095FF" fill="none" stroke-width="2px" />
<path d="M 90.0 125.0 L 90.0 95.0" stroke="#0095FF" fill="none" stroke-width="2px" />
<path d="M 100.0 95.0 L 80.0 75.0" stroke="#0095FF" fill="none" stroke-width="2px" />
<path d="M 70.0 75.0 L 100.0 185.0" stroke="#0095FF" fill="none" stroke-width="2px" />
<path d="M 100.0 185.0 L 400.0 105.0" stroke="#0095FF" fill="none" stroke-width="2px" />
<path d="M 450.0 45.0 L 460.0 95.0" stroke="#0095FF" fill="none" stroke-width="2px" />
<path d="M 460.0 95.0 L 430.0 115.0" stroke="#0095FF" fill="none" stroke-width="2px" />
<path d="M 410.0 115.0 L 1100.0 65.0" stroke="#0095FF" fill="none" stroke-width="2px" />
<path d="M 1160.0 85.0 L 1160.0 55.0" stroke="#0095FF" fill="none" stroke-width="2px" />
<path d="M 1170.0 55.0 L 1170.0 35.0" stroke="#0095FF" fill="none" stroke-width="2px" />
<path d="M 1140.0 15.0 L 1170.0 5.0" stroke="#0095FF" fill="none" stroke-width="2px" />
<path d="M 1220.0 15.0 L 1220.0 -5.0" stroke="#0095FF" fill="none" stroke-width="2px" />
<path d="M 1180.0 -5.0 L 1180.0 35.0" stroke="#0095FF" fill="none" stroke-width="2px" />
<path d="M 70.0 195.0 L 80.0 195.0" stroke="#FF0000" fill="none" stroke-width="4px" />
<path d="M 80.0 195.0 L 90.0 195.0" stroke="#FF0000" fill="none" stroke-width="4px" />
<path d="M 90.0 195.0 L 90.0 185.0" stroke="#FF0000" fill="none" stroke-width="4px" />
<path d="M 90.0 185.0 L 80.0 185.0" stroke="#FF0000" fill="none" stroke-width="4px" />
<path d="M 80.0 185.0 L 70.0 185.0" stroke="#FF0000" fill="none" stroke-width="4px" />
<path d="M 70.0 185.0 L 60.0 185.0" stroke="#FF0000" fill="none" stroke-width="4px" />
<path d="M 60.0 185.0 L 60.0 175.0" stroke="#FF0000" fill="none" stroke-width="4px" />
<path d="M 60.0 175.0 L 70.0 175.0" stroke="#FF0000" fill="none" stroke-width="4px" />
<path d="M 70.0 175.0 L 80.0 175.0" stroke="#FF0000" fill="none" stroke-width="4px" />
<path d="M 80.0 175.0 L 90.0 175.0" stroke="#FF0000" fill="none" stroke-width="4px" />
<path d="M 90.0 175.0 L 100.0 175.0" stroke="#FF0000" fill="none" stroke-width="4px" />
<path d="M 100.0 175.0 L 110.0 175.0" stroke="#FF0000" fill="none" stroke-width="4px" />
<path d="M 110.0 175.0 L 110.0 165.0" stroke="#FF0000" fill="none" stroke-width="4px" />
<path d="M 110.0 165.0 L 100.0 165.0" stroke="#FF0000" fill="none" stroke-width="4px" />
<path d="M 100.0 165.0 L 90.0 165.0" stroke="#FF0000" fill="none" stroke-width="4px" />
<path d="M 90.0 165.0 L 80.0 165.0" stroke="#FF0000" fill="none" stroke-width="4px" />
<path d="M 80.0 165.0 L 70.0 165.0" stroke="#FF0000" fill="none" stroke-width="4px" />
<path d="M 70.0 165.0 L 60.0 165.0" stroke="#FF0000" fill="none" stroke-width="4px" />
<path d="M 60.0 165.0 L 70.0 155.0" stroke="#FF0000" fill="none" stroke-width="4px" />
<path d="M 70.0 155.0 L 80.0 155.0" stroke="#FF0000" fill="none" stroke-width="4px" />
<path d="M 80.0 155.0 L 90.0 155.0" stroke="#FF0000" fill="none" stroke-width="4px" />
<path d="M 90.0 155.0 L 100.0 155.0" stroke="#FF0000" fill="none" stroke-width="4px" />
<path d="M 100.0 155.0 L 90.0 145.0" stroke="#FF0000" fill="none" stroke-width="4px" />
<path d="M 90.0 145.0 L 80.0 145.0" stroke="#FF0000" fill="none" stroke-width="4px" />
<path d="M 80.0 145.0 L 80.0 135.0" stroke="#FF0000" fill="none" stroke-width="4px" />
<path d="M 80.0 135.0 L 70.0 135.0" stroke="#FF0000" fill="none" stroke-width="4px" />
<path d="M 70.0 135.0 L 70.0 125.0" stroke="#FF0000" fill="none" stroke-width="4px" />
<path d="M 70.0 125.0 L 60.0 125.0" stroke="#FF0000" fill="none" stroke-width="4px" />
<path d="M 60.0 125.0 L 60.0 115.0" stroke="#FF0000" fill="none" stroke-width="4px" />
<path d="M 60.0 115.0 L 50.0 115.0" stroke="#FF0000" fill="none" stroke-width="4px" />
<path d="M 50.0 115.0 L 50.0 105.0" stroke="#FF0000" fill="none" stroke-width="4px" />
<path d="M 50.0 105.0 L 60.0 105.0" stroke="#FF0000" fill="none" stroke-width="4px" />
<path d="M 60.0 105.0 L 70.0 105.0" stroke="#FF0000" fill="none" stroke-width="4px" />
<path d="M 70.0 105.0 L 80.0 105.0" stroke="#FF0000" fill="none" stroke-width="4px" />
<path d="M 80.0 105.0 L 90.0 105.0" stroke="#FF0000" fill="none" stroke-width="4px" />
<path d="M 90.0 105.0 L 100.0 105.0" stroke="#FF0000" fill="none" stroke-width="4px" />
<path d="M 100.0 105.0 L 100.0 115.0" stroke="#FF0000" fill="none" stroke-width="4px" />
<path d="M 100.0 115.0 L 90.0 115.0" stroke="#FF0000" fill="none" stroke-width="4px" />
<path d="M 90.0 115.0 L 80.0 115.0" stroke="#FF0000" fill="none" stroke-width="4px" />
<path d="M 80.0 115.0 L 70.0 115.0" stroke="#FF0000" fill="none" stroke-width="4px" />
<path d="M 70.0 115.0 L 80.0 125.0" stroke="#FF0000" fill="none" stroke-width="4px" />
<path d="M 80.0 125.0 L 90.0 125.0" stroke="#FF0000" fill="none" stroke-width="4px" />
<path d="M 90.0 95.0 L 80.0 95.0" stroke="#FF0000" fill="none" stroke-width="4px" />
<path d="M 80.0 95.0 L 70.0 95.0" stroke="#FF0000" fill="none" stroke-width="4px" />
<path d="M 70.0 95.0 L 60.0 95.0" stroke="#FF0000" fill="none" stroke-width="4px" />
<path d="M 60.0 95.0 L 50.0 95.0" stroke="#FF0000" fill="none" stroke-width="4px" />
<path d="M 50.0 95.0 L 60.0 85.0" stroke="#FF0000" fill="none" stroke-width="4px" />
<path d="M 60.0 85.0 L 70.0 85.0" stroke="#FF0000" fill="none" stroke-width="4px" />
<path d="M 70.0 85.0 L 80.0 85.0" stroke="#FF0000" fill="none" stroke-width="4px" />
<path d="M 80.0 85.0 L 90.0 85.0" stroke="#FF0000" fill="none" stroke-width="4px" />
<path d="M 90.0 85.0 L 100.0 95.0" stroke="#FF0000" fill="none" stroke-width="4px" />
<path d="M 80.0 75.0 L 70.0 75.0" stroke="#FF0000" fill="none" stroke-width="4px" />
<path d="M 400.0 105.0 L 410.0 105.0" stroke="#FF0000" fill="none" stroke-width="4px" />
<path d="M 410.0 105.0 L 420.0 105.0" stroke="#FF0000" fill="none" stroke-width="4px" />
<path d="M 420.0 105.0 L 430.0 105.0" stroke="#FF0000" fill="none" stroke-width="4px" />
<path d="M 430.0 105.0 L 440.0 105.0" stroke="#FF0000" fill="none" stroke-width="4px" />
<path d="M 440.0 105.0 L 450.0 105.0" stroke="#FF0000" fill="none" stroke-width="4px" />
<path d="M 450.0 105.0 L 450.0 95.0" stroke="#FF0000" fill="none" stroke-width="4px" />
<path d="M 450.0 95.0 L 440.0 95.0" stroke="#FF0000" fill="none" stroke-width="4px" />
<path d="M 440.0 95.0 L 430.0 95.0" stroke="#FF0000" fill="none" stroke-width="4px" />
<path d="M 430.0 95.0 L 420.0 95.0" stroke="#FF0000" fill="none" stroke-width="4px" />
<path d="M 420.0 95.0 L 410.0 95.0" stroke="#FF0000" fill="none" stroke-width="4px" />
<path d="M 410.0 95.0 L 400.0 95.0" stroke="#FF0000" fill="none" stroke-width="4px" />
<path d="M 400.0 95.0 L 400.0 85.0" stroke="#FF0000" fill="none" stroke-width="4px" />
<path d="M 400.0 85.0 L 410.0 85.0" stroke="#FF0000" fill="none" stroke-width="4px" />
<path d="M 410.0 85.0 L 420.0 85.0" stroke="#FF0000" fill="none" stroke-width="4px" />
<path d="M 420.0 85.0 L 430.0 85.0" stroke="#FF0000" fill="none" stroke-width="4px" />
<path d="M 430.0 85.0 L 440.0 85.0" stroke="#FF0000" fill="none" stroke-width="4px" />
<path d="M 440.0 85.0 L 450.0 85.0" stroke="#FF0000" fill="none" stroke-width="4px" />
<path d="M 450.0 85.0 L 460.0 85.0" stroke="#FF0000" fill="none" stroke-width="4px" />
<path d="M 460.0 85.0 L 470.0 85.0" stroke="#FF0000" fill="none" stroke-width="4px" />
<path d="M 470.0 85.0 L 470.0 75.0" stroke="#FF0000" fill="none" stroke-width="4px" />
<path d="M 470.0 75.0 L 460.0 75.0" stroke="#FF0000" fill="none" stroke-width="4px" />
<path d="M 460.0 75.0 L 450.0 75.0" stroke="#FF0000" fill="none" stroke-width="4px" />
<path d="M 450.0 75.0 L 440.0 75.0" stroke="#FF0000" fill="none" stroke-width="4px" />
<path d="M 440.0 75.0 L 430.0 75.0" stroke="#FF0000" fill="none" stroke-width="4px" />
<path d="M 430.0 75.0 L 420.0 75.0" stroke="#FF0000" fill="none" stroke-width="4px" />
<path d="M 420.0 75.0 L 410.0 75.0" stroke="#FF0000" fill="none" stroke-width="4px" />
<path d="M 410.0 75.0 L 400.0 75.0" stroke="#FF0000" fill="none" stroke-width="4px" />
<path d="M 400.0 75.0 L 410.0 65.0" stroke="#FF0000" fill="none" stroke-width="4px" />
<path d="M 410.0 65.0 L 420.0 65.0" stroke="#FF0000" fill="none" stroke-width="4px" />
<path d="M 420.0 65.0 L 430.0 65.0" stroke="#FF0000" fill="none" stroke-width="4px" />
<path d="M 430.0 65.0 L 440.0 65.0" stroke="#FF0000" fill="none" stroke-width="4px" />
<path d="M 440.0 65.0 L 450.0 65.0" stroke="#FF0000" fill="none" stroke-width="4px" />
<path d="M 450.0 65.0 L 460.0 65.0" stroke="#FF0000" fill="none" stroke-width="4px" />
<path d="M 460.0 65.0 L 470.0 65.0" stroke="#FF0000" fill="none" stroke-width="4px" />
<path d="M 470.0 65.0 L 460.0 55.0" stroke="#FF0000" fill="none" stroke-width="4px" />
<path d="M 460.0 55.0 L 450.0 55.0" stroke="#FF0000" fill="none" stroke-width="4px" />
<path d="M 450.0 55.0 L 440.0 55.0" stroke="#FF0000" fill="none" stroke-width="4px" />
<path d="M 440.0 55.0 L 430.0 55.0" stroke="#FF0000" fill="none" stroke-width="4px" />
<path d="M 430.0 55.0 L 420.0 55.0" stroke="#FF0000" fill="none" stroke-width="4px" />
<path d="M 420.0 55.0 L 430.0 45.0" stroke="#FF0000" fill="none" stroke-width="4px" />
<path d="M 430.0 45.0 L 440.0 45.0" stroke="#FF0000" fill="none" stroke-width="4px" />
<path d="M 440.0 45.0 L 450.0 45.0" stroke="#FF0000" fill="none" stroke-width="4px" />
<path d="M 430.0 115.0 L 420.0 115.0" stroke="#FF0000" fill="none" stroke-width="4px" />
<path d="M 420.0 115.0 L 410.0 115.0" stroke="#FF0000" fill="none" stroke-width="4px" />
<path d="M 1100.0 65.0 L 1110.0 65.0" stroke="#FF0000" fill="none" stroke-width="4px" />
<path d="M 1110.0 65.0 L 1120.0 65.0" stroke="#FF0000" fill="none" stroke-width="4px" />
<path d="M 1120.0 65.0 L 1130.0 65.0" stroke="#FF0000" fill="none" stroke-width="4px" />
<path d="M 1130.0 65.0 L 1140.0 65.0" stroke="#FF0000" fill="none" stroke-width="4px" />
<path d="M 1140.0 65.0 L 1150.0 65.0" stroke="#FF0000" fill="none" stroke-width="4px" />
<path d="M 1150.0 65.0 L 1160.0 65.0" stroke="#FF0000" fill="none" stroke-width="4px" />
<path d="M 1160.0 65.0 L 1170.0 65.0" stroke="#FF0000" fill="none" stroke-width="4px" />
<path d="M 1170.0 65.0 L 1170.0 75.0" stroke="#FF0000" fill="none" stroke-width="4px" />
<path d="M 1170.0 75.0 L 1160.0 75.0" stroke="#FF0000" fill="none" stroke-width="4px" />
<path d="M 1160.0 75.0 L 1150.0 75.0" stroke="#FF0000" fill="none" stroke-width="4px" />
<path d="M 1150.0 75.0 L 1140.0 75.0" stroke="#FF0000" fill="none" stroke-width="4px" />
<path d="M 1140.0 75.0 L 1130.0 75.0" stroke="#FF0000" fill="none" stroke-width="4px" />
<path d="M 1130.0 75.0 L 1120.0 75.0" stroke="#FF0000" fill="none" stroke-width="4px" />
<path d="M 1120.0 75.0 L 1110.0 75.0" stroke="#FF0000" fill="none" stroke-width="4px" />
<path d="M 1110.0 75.0 L 1120.0 85.0" stroke="#FF0000" fill="none" stroke-width="4px" />
<path d="M 1120.0 85.0 L 1130.0 85.0" stroke="#FF0000" fill="none" stroke-width="4px" />
<path d="M 1130.0 85.0 L 1140.0 85.0" stroke="#FF0000" fill="none" stroke-width="4px" />
<path d="M 1140.0 85.0 L 1150.0 85.0" stroke="#FF0000" fill="none" stroke-width="4px" />
<path d="M 1150.0 85.0 L 1160.0 85.0" stroke="#FF0000" fill="none" stroke-width="4px" />
<path d="M 1160.0 55.0 L 1150.0 55.0" stroke="#FF0000" fill="none" stroke-width="4px" />
<path d="M 1150.0 55.0 L 1140.0 55.0" stroke="#FF0000" fill="none" stroke-width="4px" />
<path d="M 1140.0 55.0 L 1130.0 55.0" stroke="#FF0000" fill="none" stroke-width="4px" />
<path d="M 1130.0 55.0 L 1120.0 55.0" stroke="#FF0000" fill="none" stroke-width="4px" />
<path d="M 1120.0 55.0 L 1110.0 55.0" stroke="#FF0000" fill="none" stroke-width="4px" />
<path d="M 1110.0 55.0 L 1100.0 55.0" stroke="#FF0000" fill="none" stroke-width="4px" />
<path d="M 1100.0 55.0 L 1110.0 45.0" stroke="#FF0000" fill="none" stroke-width="4px" />
<path d="M 1110.0 45.0 L 1120.0 45.0" stroke="#FF0000" fill="none" stroke-width="4px" />
<path d="M 1120.0 45.0 L 1130.0 45.0" stroke="#FF0000" fill="none" stroke-width="4px" />
<path d="M 1130.0 45.0 L 1140.0 45.0" stroke="#FF0000" fill="none" stroke-width="4px" />
<path d="M 1140.0 45.0 L 1150.0 45.0" stroke="#FF0000" fill="none" stroke-width="4px" />
<path d="M 1150.0 45.0 L 1160.0 45.0" stroke="#FF0000" fill="none" stroke-width="4px" />
<path d="M 1160.0 45.0 L 1170.0 45.0" stroke="#FF0000" fill="none" stroke-width="4px" />
<path d="M 1170.0 45.0 L 1180.0 45.0" stroke="#FF0000" fill="none" stroke-width="4px" />
<path d="M 1180.0 45.0 L 1180.0 55.0" stroke="#FF0000" fill="none" stroke-width="4px" />
<path d="M 1180.0 55.0 L 1170.0 55.0" stroke="#FF0000" fill="none" stroke-width="4px" />
<path d="M 1170.0 35.0 L 1160.0 35.0" stroke="#FF0000" fill="none" stroke-width="4px" />
<path d="M 1160.0 35.0 L 1150.0 35.0" stroke="#FF0000" fill="none" stroke-width="4px" />
<path d="M 1150.0 35.0 L 1140.0 35.0" stroke="#FF0000" fill="none" stroke-width="4px" />
<path d="M 1140.0 35.0 L 1130.0 35.0" stroke="#FF0000" fill="none" stroke-width="4px" />
<path d="M 1130.0 35.0 L 1120.0 35.0" stroke="#FF0000" fill="none" stroke-width="4px" />
<path d="M 1120.0 35.0 L 1130.0 25.0" stroke="#FF0000" fill="none" stroke-width="4px" />
<path d="M 1130.0 25.0 L 1140.0 25.0" stroke="#FF0000" fill="none" stroke-width="4px" />
<path d="M 1140.0 25.0 L 1150.0 25.0" stroke="#FF0000" fill="none" stroke-width="4px" />
<path d="M 1150.0 25.0 L 1160.0 25.0" stroke="#FF0000" fill="none" stroke-width="4px" />
<path d="M 1160.0 25.0 L 1170.0 25.0" stroke="#FF0000" fill="none" stroke-width="4px" />
<path d="M 1170.0 25.0 L 1180.0 25.0" stroke="#FF0000" fill="none" stroke-width="4px" />
<path d="M 1180.0 25.0 L 1190.0 25.0" stroke="#FF0000" fill="none" stroke-width="4px" />
<path d="M 1190.0 25.0 L 1200.0 25.0" stroke="#FF0000" fill="none" stroke-width="4px" />
<path d="M 1200.0 25.0 L 1210.0 25.0" stroke="#FF0000" fill="none" stroke-width="4px" />
<path d="M 1210.0 25.0 L 1210.0 15.0" stroke="#FF0000" fill="none" stroke-width="4px" />
<path d="M 1210.0 15.0 L 1200.0 15.0" stroke="#FF0000" fill="none" stroke-width="4px" />
<path d="M 1200.0 15.0 L 1190.0 15.0" stroke="#FF0000" fill="none" stroke-width="4px" />
<path d="M 1190.0 15.0 L 1180.0 15.0" stroke="#FF0000" fill="none" stroke-width="4px" />
<path d="M 1180.0 15.0 L 1170.0 15.0" stroke="#FF0000" fill="none" stroke-width="4px" />
<path d="M 1170.0 15.0 L 1160.0 15.0" stroke="#FF0000" fill="none" stroke-width="4px" />
<path d="M 1160.0 15.0 L 1150.0 15.0" stroke="#FF0000" fill="none" stroke-width="4px" />
<path d="M 1150.0 15.0 L 1140.0 15.0" stroke="#FF0000" fill="none" stroke-width="4px" />
<path d="M 1170.0 5.0 L 1180.0 5.0" stroke="#FF0000" fill="none" stroke-width="4px" />
<path d="M 1180.0 5.0 L 1190.0 5.0" stroke="#FF0000" fill="none" stroke-width="4px" />
<path d="M 1190.0 5.0 L 1200.0 5.0" stroke="#FF0000" fill="none" stroke-width="4px" />
<path d="M 1200.0 5.0 L 1210.0 5.0" stroke="#FF0000" fill="none" stroke-width="4px" />
<path d="M 1210.0 5.0 L 1220.0 5.0" stroke="#FF0000" fill="none" stroke-width="4px" />
<path d="M 1220.0 5.0 L 1230.0 5.0" stroke="#FF0000" fill="none" stroke-width="4px" />
<path d="M 1230.0 5.0 L 1220.0 15.0" stroke="#FF0000" fill="none" stroke-width="4px" />
<path d="M 1220.0 -5.0 L 1210.0 -5.0" stroke="#FF0000" fill="none" stroke-width="4px" />
<path d="M 1210.0 -5.0 L 1200.0 -5.0" stroke="#FF0000" fill="none" stroke-width="4px" />
<path d="M 1200.0 -5.0 L 1190.0 -5.0" stroke="#FF0000" fill="none" stroke-width="4px" />
<path d="M 1190.0 -5.0 L 1180.0 -5.0" stroke="#FF0000" fill="none" stroke-width="4px" />
<path d="M 1180.0 35.0 L 1190.0 35.0" stroke="#FF0000" fill="none" stroke-width="4px" />
<path d="M 1190.0 35.0 L 1200.0 35.0" stroke="#FF0000" fill="none" stroke-width="4px" />
</svg>