<svg width="2472.26666667" height="235.0" xmlns="http://www.w3.org/2000/svg" version="1.1">
<path d="M 0.0 235.0 L 1985.0 235.0 L 1985.0 0.0 L 0.0 0.0 L 0.0 235.0" stroke="#000000" fill="none" stroke-width="3px" />
<path d="M 2472.26666667 235.0 L 1885.0 235.0 L 1885.0 0.0 L 2472.26666667 0.0 L 2472.26666667 235.0" stroke="#000000" fill="none" stroke-width="3px" />
<path d="M 10.0 257.5 L 0.0 247.5 L 10.0 237.5" stroke="#969696" fill="none" stroke-width="1px" />
<path d="M 10.0 237.5 L 1975.0 237.5" stroke="#969696" fill="none" stroke-width="1px" />
<path d="M 1975.0 237.5 L 1985.0 227.5 L 1975.0 217.5" stroke="#969696" fill="none" stroke-width="1px" />
<path d="M 1975.0 217.5 L 10.0 217.5" stroke="#969696" fill="none" stroke-width="1px" />
<path d="M 10.0 217.5 L 0.0 207.5 L 10.0 197.5" stroke="#969696" fill="none" stroke-width="1px" />
<path d="M 10.0 197.5 L 1975.0 197.5" stroke="#969696" fill="none" stroke-width="1px" />
<path d="M 1975.0 197.5 L 1985.0 187.5 L 1975.0 177.5" stroke="#969696" fill="none" stroke-width="1px" />
<path d="M 1975.0 177.5 L 10.0 177.5" stroke="#969696" fill="none" stroke-width="1px" />
<path d="M 10.0 177.5 L 0.0 167.5 L 10.0 157.5" stroke="#969696" fill="none" stroke-width="1px" />
<path d="M 10.0 157.5 L 1975.0 157.5" stroke="#969696" fill="none" stroke-width="1px" />
<path d="M 1975.0 157.5 L 1985.0 147.5 L 1975.0 137.5" stroke="#969696" fill="none" stroke-width="1px" />
<path d="M 1975.0 137.5 L 10.0 137.5" stroke="#969696" fill="none" stroke-width="1px" />
<path d="M 10.0 137.5 L 0.0 127.5 L 10.0 117.5" stroke="#969696" fill="none" stroke-width="1px" />
<path d="M 10.0 117.5 L 1975.0 117.5" stroke="#969696" fill="none" stroke-width="1px" />
<path d="M 1975.0 117.5 L 1985.0 107.5 L 1975.0 97.5" stroke="#969696" fill="none" stroke-width="1px" />
<path d="M 1975.0 97.5 L 10.0 97.5" stroke="#969696" fill="none" stroke-width="1px" />
<path d="M 10.0 97.5 L 0.0 87.5 L 10.0 77.5" stroke="#969696" fill="none" stroke-width="1px" />
<path d="M 10.0 77.5 L 1975.0 77.5" stroke="#969696" fill="none" stroke-width="1px" />
<path d="M 1975.0 77.5 L 1985.0 67.5 L 1975.0 57.5" stroke="#969696" fill="none" stroke-width="1px" />
<path d="M 1975.0 57.5 L 10.0 57.5" stroke="#969696" fill="none" stroke-width="1px" />
<path d="M 10.0 57.5 L 0.0 47.5 L 10.0 37.5" stroke="#969696" fill="none" stroke-width="1px" />
<path d="M 10.0 37.5 L 1975.0 37.5" stroke="#969696" fill="none" stroke-width="1px" />
<path d="M 1975.0 37.5 L 1985.0 27.5 L 1975.0 17.5" stroke="#969696" fill="none" stroke-width="1px" />
<path d="M 1975.0 17.5 L 10.0 17.5" stroke="#969696" fill="none" stroke-width="1px" />
<path d="M 10.0 17.5 L 0.0 7.5 L 10.0 -2.5" stroke="#969696" fill="none" stroke-width="1px" />
<path d="M 10.0 -2.5 L 1975.0 -2.5" stroke="#969696" fill="none" stroke-width="1px" />
<path d="M 1975.0 -2.5 L 1985.0 -12.5 L 1975.0 -22.5" stroke="#969696" fill="none" stroke-width="1px" />
<path d="M 2462.26666667 257.5 L 2472.26666667 247.5 L 2462.26666667 237.5" stroke="#969696" fill="none" stroke-width="1px" />
<path d="M 2462.26666667 237.5 L 1895.0 237.5" stroke="#969696" fill="none" stroke-width="1px" />
<path d="M 1895.0 237.5 L 1885.0 227.5 L 1895.0 217.5" stroke="#969696" fill="none" stroke-width="1px" />
<path d="M 1895.0 217.5 L 2462.26666667 217.5" stroke="#969696" fill="none" stroke-width="1px" />
<path d="M 2462.26666667 217.5 L 2472.26666667 207.5 L 2462.26666667 197.5" stroke="#969696" fill="none" stroke-width="1px" />
<path d="M 2462.26666667 197.5 L 1895.0 197.5" stroke="#969696" fill="none" stroke-width="1px" />
<path d="M 1895.0 197.5 L 1885.0 187.5 L 1895.0 177.5" stroke="#969696" fill="none" stroke-width="1px" />
<path d="M 1895.0 177.5 L 2462.26666667 177.5" stroke="#969696" fill="none" stroke-width="1px" />
<path d="M 2462.26666667 177.5 L 2472.26666667 167.5 L 2462.26666667 157.5" stroke="#969696" fill="none" stroke-width="1px" />
<path d="M 2462.26666667 157.5 L 1895.0 157.5" stroke="#969696" fill="none" stroke-width="1px" />
<path d="M 1895.0 157.5 L 1885.0 147.5 L 1895.0 137.5" stroke="#969696" fill="none" stroke-width="1px" />
<path d="M 1895.0 137.5 L 2462.26666667 137.5" stroke="#969696" fill="none" stroke-width="1px" />
<path d="M 2462.26666667 137.5 L 2472.26666667 127.5 L 2462.26666667 117.5" stroke="#969696" fill="none" stroke-width="1px" />
<path d="M 2462.26666667 117.5 L 1895.0 117.5" stroke="#969696" fill="none" stroke-width="1px" />
<path d="M 1895.0 117.5 L 1885.0 107.5 L 1895.0 97.5" stroke="#969696" fill="none" stroke-width="1px" />
<path d="M 1895.0 97.5 L 2462.26666667 97.5" stroke="#969696" fill="none" stroke-width="1px" />
<path d="M 2462.26666667 97.5 L 2472.26666667 87.5 L 2462.26666667 77.5" stroke="#969696" fill="none" stroke-width="1px" />
<path d="M 2462.26666667 77.5 L 1895.0 77.5" stroke="#969696" fill="none" stroke-width="1px" />
<path d="M 1895.0 77.5 L 1885.0 67.5 L 1895.0 57.5" stroke="#969696" fill="none" stroke-width="1px" />
<path d="M 1895.0 57.5 L 2462.26666667 57.5" stroke="#969696" fill="none" stroke-width="1px" />
<path d="M 2462.26666667 57.5 L 2472.26666667 47.5 L 2462.26666667 37.5" stroke="#969696" fill="none" stroke-width="1px" />
<path d="M 2462.26666667 37.5 L 1895.0 37.5" stroke="#969696" fill="none" stroke-width="1px" />
<path d="M 1895.0 37.5 L 1885.0 27.5 L 1895.0 17.5" stroke="#969696" fill="none" stroke-width="1px" />
<path d="M 1895.0 17.5 L 2462.26666667 17.5" stroke="#969696" fill="none" stroke-width="1px" />
<path d="M 2462.26666667 17.5 L 2472.26666667 7.5 L 2462.26666667 -2.5" stroke="#969696" fill="none" stroke-width="1px" />
<path d="M 2462.26666667 -2.5 L 1895.0 -2.5" stroke="#969696" fill="none" stroke-width="1px" />
<path d="M 1895.0 -2.5 L 1885.0 -12.5 L 1895.0 -22.5" stroke="#969696" fill="none" stroke-width="1px" />
<path d="M 0.0 235.0 L 340.0 95.0" stroke="#0095FF" fill="none" stroke-width="2px" />
<path d="M 360.0 75.0 L 360.0 105.0" stroke="#0095FF" fill="none" stroke-width="2px" />
<path d="M 350.0 105.0 L 450.0 135.0" stroke="#0095FF" fill="none" stroke-width="2px" />
<path d="M 460.0 165.0 L 460.0 125.0" stroke="#0095FF" fill="none" stroke-width="2px" />
<path d="M 470.0 115.0 L 500.0 105.0" stroke="#0095FF" fill="none" stroke-width="2px" />
<path d="M 520.0 95.0 L 510.0 75.0" stroke="#0095FF" fill="none" stroke-width="2px" />
<path d="M 500.0 75.0 L 540.0 55.0" stroke="#0095FF" fill="none" stroke-width="2px" />
<path d="M 550.0 45.0 L 550.0 15.0" stroke="#0095FF" fill="none" stroke-width="2px" />
<path d="M 560.0 15.0 L 540.0 -5.0" stroke="#0095FF" fill="none" stroke-width="2px" />
<path d="M 530.0 -5.0 L 750.0 145.0" stroke="#0095FF" fill="none" stroke-width="2px" />
<path d="M 770.0 205.0 L 790.0 155.0" stroke="#0095FF" fill="none" stroke-width="2px" />
<path d="M 790.0 155.0 L 860.0 165.0" stroke="#0095FF" fill="none" stroke-width="2px" />
<path d="M 890.0 195.0 L 890.0 155.0" stroke="#0095FF" fill="none" stroke-width="2px" />
<path d="M 910.0 155.0 L 1470.0 95.0" stroke="#0095FF" fill="none" stroke-width="2px" />
<path d="M 1520.0 135.0 L 1520.0 85.0" stroke="#0095FF" fill="none" stroke-width="2px" />
<path d="M 1510.0 75.0 L 1530.0 85.0" stroke="#0095FF" fill="none" stroke-width="2px" />
<path d="M 1530.0 85.0 L 1630.0 105.0" stroke="#0095FF" fill="none" stroke-width="2px" />
<path d="M 1660.0 145.0 L 1660.0 95.0" stroke="#0095FF" fill="none" stroke-width="2px" />
<path d="M 1670.0 95.0 L 1790.0 55.0" stroke="#0095FF" fill="none" stroke-width="2px" />
<path d="M 1820.0 85.0 L 1820.0 45.0" stroke="#0095FF" fill="none" stroke-width="2px" />
<path d="M 1830.0 45.0 L 1920.0 145.0" stroke="#0095FF" fill="none" stroke-width="2px" />
<path d="M 1970.0 125.0 L 1970.0 155.0" stroke="#0095FF" fill="none" stroke-width="2px" />
<path d="M 2472.26666667 235.0 L 2040.0 65.0" stroke="#0095FF" fill="none" stroke-width="2px" />
<path d="M 2020.0 35.0 L 2020.0 75.0" stroke="#0095FF" fill="none" stroke-width="2px" />
<path d="M 340.0 95.0 L 350.0 95.0" stroke="#FF0000" fill="none" stroke-width="4px" />
<path d="M 350.0 95.0 L 360.0 95.0" stroke="#FF0000" fill="none" stroke-width="4px" />
<path d="M 360.0 95.0 L 370.0 95.0" stroke="#FF0000" fill="none" stroke-width="4px" />
<path d="M 370.0 95.0 L 370.0 85.0" stroke="#FF0000" fill="none" stroke-width="4px" />
<path d="M 370.0 85.0 L 360.0 85.0" stroke="#FF0000" fill="none" stroke-width="4px" />
<path d="M 360.0 85.0 L 350.0 85.0" stroke="#FF0000" fill="none" stroke-width="4px" />
<path d="M 350.0 85.0 L 340.0 85.0" stroke="#FF0000" fill="none" stroke-width="4px" />
<path d="M 340.0 85.0 L 350.0 75.0" stroke="#FF0000" fill="none" stroke-width="4px" />
<path d="M 350.0 75.0 L 360.0 75.0" stroke="#FF0000" fill="none" stroke-width="4px" />
<path d="M 360.0 105.0 L 350.0 105.0" stroke="#FF0000" fill="none" stroke-width="4px" />
<path d="M 450.0 135.0 L 460.0 135.0" stroke="#FF0000" fill="none" stroke-width="4px" />
<path d="M 460.0 135.0 L 470.0 135.0" stroke="#FF0000" fill="none" stroke-width="4px" />
<path d="M 470.0 135.0 L 480.0 135.0" stroke="#FF0000" fill="none" stroke-width="4px" />
<path d="M 480.0 135.0 L 490.0 135.0" stroke="#FF0000" fill="none" stroke-width="4px" />
<path d="M 490.0 135.0 L 490.0 145.0" stroke="#FF0000" fill="none" stroke-width="4px" />
<path d="M 490.0 145.0 L 480.0 145.0" stroke="#FF0000" fill="none" stroke-width="4px" />
<path d="M 480.0 145.0 L 470.0 145.0" stroke="#FF0000" fill="none" stroke-width="4px" />
<path d="M 470.0 145.0 L 460.0 145.0" stroke="#FF0000" fill="none" stroke-width="4px" />
<path d="M 460.0 145.0 L 450.0 145.0" stroke="#FF0000" fill="none" stroke-width="4px" />
<path d="M 450.0 145.0 L 450.0 155.0" stroke="#FF0000" fill="none" stroke-width="4px" />
<path d="M 450.0 155.0 L 460.0 155.0" stroke="#FF0000" fill="none" stroke-width="4px" />
<path d="M 460.0 155.0 L 470.0 155.0" stroke="#FF0000" fill="none" stroke-width="4px" />
<path d="M 470.0 155.0 L 480.0 155.0" stroke="#FF0000" fill="none" stroke-width="4px" />
<path d="M 480.0 155.0 L 490.0 155.0" stroke="#FF0000" fill="none" stroke-width="4px" />
<path d="M 490.0 155.0 L 480.0 165.0" stroke="#FF0000" fill="none" stroke-width="4px" />
<path d="M 480.0 165.0 L 470.0 165.0" stroke="#FF0000" fill="none" stroke-width="4px" />
<path d="M 470.0 165.0 L 460.0 165.0" stroke="#FF0000" fill="none" stroke-width="4px" />
<path d="M 460.0 125.0 L 470.0 125.0" stroke="#FF0000" fill="none" stroke-width="4px" />
<path d="M 470.0 125.0 L 480.0 125.0" stroke="#FF0000" fill="none" stroke-width="4px" />
<path d="M 480.0 125.0 L 470.0 115.0" stroke="#FF0000" fill="none" stroke-width="4px" />
<path d="M 500.0 105.0 L 510.0 105.0" stroke="#FF0000" fill="none" stroke-width="4px" />
<path d="M 510.0 105.0 L 510.0 95.0" stroke="#FF0000" fill="none" stroke-width="4px" />
<path d="M 510.0 95.0 L 500.0 95.0" stroke="#FF0000" fill="none" stroke-width="4px" />
<path d="M 500.0 95.0 L 490.0 95.0" stroke="#FF0000" fill="none" stroke-width="4px" />
<path d="M 490.0 95.0 L 490.0 85.0" stroke="#FF0000" fill="none" stroke-width="4px" />
<path d="M 490.0 85.0 L 500.0 85.0" stroke="#FF0000" fill="none" stroke-width="4px" />
<path d="M 500.0 85.0 L 510.0 85.0" stroke="#FF0000" fill="none" stroke-width="4px" />
<path d="M 510.0 85.0 L 520.0 85.0" stroke="#FF0000" fill="none" stroke-width="4px" />
<path d="M 520.0 85.0 L 520.0 95.0" stroke="#FF0000" fill="none" stroke-width="4px" />
<path d="M 510.0 75.0 L 500.0 75.0" stroke="#FF0000" fill="none" stroke-width="4px" />
<path d="M 540.0 55.0 L 540.0 45.0" stroke="#FF0000" fill="none" stroke-width="4px" />
<path d="M 540.0 45.0 L 530.0 45.0" stroke="#FF0000" fill="none" stroke-width="4px" />
<path d="M 530.0 45.0 L 530.0 35.0" stroke="#FF0000" fill="none" stroke-width="4px" />
<path d="M 530.0 35.0 L 520.0 35.0" stroke="#FF0000" fill="none" stroke-width="4px" />
<path d="M 520.0 35.0 L 520.0 25.0" stroke="#FF0000" fill="none" stroke-width="4px" />
<path d="M 520.0 25.0 L 530.0 25.0" stroke="#FF0000" fill="none" stroke-width="4px" />
<path d="M 530.0 25.0 L 540.0 25.0" stroke="#FF0000" fill="none" stroke-width="4px" />
<path d="M 540.0 25.0 L 550.0 25.0" stroke="#FF0000" fill="none" stroke-width="4px" />
<path d="M 550.0 25.0 L 560.0 25.0" stroke="#FF0000" fill="none" stroke-width="4px" />
<path d="M 560.0 25.0 L 560.0 35.0" stroke="#FF0000" fill="none" stroke-width="4px" />
<path d="M 560.0 35.0 L 550.0 35.0" stroke="#FF0000" fill="none" stroke-width="4px" />
<path d="M 550.0 35.0 L 540.0 35.0" stroke="#FF0000" fill="none" stroke-width="4px" />
<path d="M 540.0 35.0 L 550.0 45.0" stroke="#FF0000" fill="none" stroke-width="4px" />
<path d="M 550.0 15.0 L 540.0 15.0" stroke="#FF0000" fill="none" stroke-width="4px" />
<path d="M 540.0 15.0 L 530.0 15.0" stroke="#FF0000" fill="none" stroke-width="4px" />
<path d="M 530.0 15.0 L 520.0 15.0" stroke="#FF0000" fill="none" stroke-width="4px" />
<path d="M 520.0 15.0 L 530.0 5.0" stroke="#FF0000" fill="none" stroke-width="4px" />
<path d="M 530.0 5.0 L 540.0 5.0" stroke="#FF0000" fill="none" stroke-width="4px" />
<path d="M 540.0 5.0 L 550.0 5.0" stroke="#FF0000" fill="none" stroke-width="4px" />
<path d="M 550.0 5.0 L 560.0 15.0" stroke="#FF0000" fill="none" stroke-width="4px" />
<path d="M 540.0 -5.0 L 530.0 -5.0" stroke="#FF0000" fill="none" stroke-width="4px" />
<path d="M 750.0 145.0 L 760.0 145.0" stroke="#FF0000" fill="none" stroke-width="4px" />
<path d="M 760.0 145.0 L 770.0 145.0" stroke="#FF0000" fill="none" stroke-width="4px" />
<path d="M 770.0 145.0 L 780.0 145.0" stroke="#FF0000" fill="none" stroke-width="4px" />
<path d="M 780.0 145.0 L 780.0 155.0" stroke="#FF0000" fill="none" stroke-width="4px" />
<path d="M 780.0 155.0 L 770.0 155.0" stroke="#FF0000" fill="none" stroke-width="4px" />
<path d="M 770.0 155.0 L 760.0 155.0" stroke="#FF0000" fill="none" stroke-width="4px" />
<path d="M 760.0 155.0 L 750.0 155.0" stroke="#FF0000" fill="none" stroke-width="4px" />
<path d="M 750.0 155.0 L 740.0 155.0" stroke="#FF0000" fill="none" stroke-width="4px" />
<path d="M 740.0 155.0 L 740.0 165.0" stroke="#FF0000" fill="none" stroke-width="4px" />
<path d="M 740.0 165.0 L 750.0 165.0" stroke="#FF0000" fill="none" stroke-width="4px" />
<path d="M 750.0 165.0 L 760.0 165.0" stroke="#FF0000" fill="none" stroke-width="4px" />
<path d="M 760.0 165.0 L 770.0 165.0" stroke="#FF0000" fill="none" stroke-width="4px" />
<path d="M 770.0 165.0 L 780.0 165.0" stroke="#FF0000" fill="none" stroke-width="4px" />
<path d="M 780.0 165.0 L 790.0 165.0" stroke="#FF0000" fill="none" stroke-width="4px" />
<path d="M 790.0 165.0 L 790.0 175.0" stroke="#FF0000" fill="none" stroke-width="4px" />
<path d="M 790.0 175.0 L 780.0 175.0" stroke="#FF0000" fill="none" stroke-width="4px" />
<path d="M 780.0 175.0 L 770.0 175.0" stroke="#FF0000" fill="none" stroke-width="4px" />
<path d="M 770.0 175.0 L 760.0 175.0" stroke="#FF0000" fill="none" stroke-width="4px" />
<path d="M 760.0 175.0 L 750.0 175.0" stroke="#FF0000" fill="none" stroke-width="4px" />
<path d="M 750.0 175.0 L 740.0 175.0" stroke="#FF0000" fill="none" stroke-width="4px" />
<path d="M 740.0 175.0 L 740.0 185.0" stroke="#FF0000" fill="none" stroke-width="4px" />
<path d="M 740.0 185.0 L 750.0 185.0" stroke="#FF0000" fill="none" stroke-width="4px" />
<path d="M 750.0 185.0 L 760.0 185.0" stroke="#FF0000" fill="none" stroke-width="4px" />
<path d="M 760.0 185.0 L 770.0 185.0" stroke="#FF0000" fill="none" stroke-width="4px" />
<path d="M 770.0 185.0 L 780.0 185.0" stroke="#FF0000" fill="none" stroke-width="4px" />
<path d="M 780.0 185.0 L 790.0 185.0" stroke="#FF0000" fill="none" stroke-width="4px" />
<path d="M 790.0 185.0 L 780.0 195.0" stroke="#FF0000" fill="none" stroke-width="4px" />
<path d="M 780.0 195.0 L 770.0 195.0" stroke="#FF0000" fill="none" stroke-width="4px" />
<path d="M 770.0 195.0 L 760.0 195.0" stroke="#FF0000" fill="none" stroke-width="4px" />
<path d="M 760.0 195.0 L 750.0 195.0" stroke="#FF0000" fill="none" stroke-width="4px" />
<path d="M 750.0 195.0 L 740.0 195.0" stroke="#FF0000" fill="none" stroke-width="4px" />
<path d="M 740.0 195.0 L 750.0 205.0" stroke="#FF0000" fill="none" stroke-width="4px" />
<path d="M 750.0 205.0 L 760.0 205.0" stroke="#FF0000" fill="none" stroke-width="4px" />
<path d="M 760.0 205.0 L 770.0 205.0" stroke="#FF0000" fill="none" stroke-width="4px" />
<path d="M 860.0 165.0 L 870.0 165.0" stroke="#FF0000" fill="none" stroke-width="4px" />
<path d="M 870.0 165.0 L 880.0 165.0" stroke="#FF0000" fill="none" stroke-width="4px" />
<path d="M 880.0 165.0 L 890.0 165.0" stroke="#FF0000" fill="none" stroke-width="4px" />
<path d="M 890.0 165.0 L 900.0 165.0" stroke="#FF0000" fill="none" stroke-width="4px" />
<path d="M 900.0 165.0 L 910.0 165.0" stroke="#FF0000" fill="none" stroke-width="4px" />
<path d="M 910.0 165.0 L 920.0 165.0" stroke="#FF0000" fill="none" stroke-width="4px" />
<path d="M 920.0 165.0 L 920.0 175.0" stroke="#FF0000" fill="none" stroke-width="4px" />
<path d="M 920.0 175.0 L 910.0 175.0" stroke="#FF0000" fill="none" stroke-width="4px" />
<path d="M 910.0 175.0 L 900.0 175.0" stroke="#FF0000" fill="none" stroke-width="4px" />
<path d="M 900.0 175.0 L 890.0 175.0" stroke="#FF0000" fill="none" stroke-width="4px" />
<path d="M 890.0 175.0 L 880.0 175.0" stroke="#FF0000" fill="none" stroke-width="4px" />
<path d="M 880.0 175.0 L 870.0 175.0" stroke="#FF0000" fill="none" stroke-width="4px" />
<path d="M 870.0 175.0 L 880.0 185.0" stroke="#FF0000" fill="none" stroke-width="4px" />
<path d="M 880.0 185.0 L 890.0 185.0" stroke="#FF0000" fill="none" stroke-width="4px" />
<path d="M 890.0 185.0 L 900.0 185.0" stroke="#FF0000" fill="none" stroke-width="4px" />
<path d="M 900.0 185.0 L 890.0 195.0" stroke="#FF0000" fill="none" stroke-width="4px" />
<path d="M 890.0 155.0 L 880.0 155.0" stroke="#FF0000" fill="none" stroke-width="4px" />
<path d="M 880.0 155.0 L 870.0 155.0" stroke="#FF0000" fill="none" stroke-width="4px" />
<path d="M 870.0 155.0 L 880.0 145.0" stroke="#FF0000" fill="none" stroke-width="4px" />
<path d="M 880.0 145.0 L 890.0 145.0" stroke="#FF0000" fill="none" stroke-width="4px" />
<path d="M 890.0 145.0 L 900.0 145.0" stroke="#FF0000" fill="none" stroke-width="4px" />
<path d="M 900.0 145.0 L 900.0 155.0" stroke="#FF0000" fill="none" stroke-width="4px" />
<path d="M 900.0 155.0 L 910.0 155.0" stroke="#FF0000" fill="none" stroke-width="4px" />
<path d="M 1470.0 95.0 L 1480.0 95.0" stroke="#FF0000" fill="none" stroke-width="4px" />
<path d="M 1480.0 95.0 L 1490.0 95.0" stroke="#FF0000" fill="none" stroke-width="4px" />
<path d="M 1490.0 95.0 L 1500.0 95.0" stroke="#FF0000" fill="none" stroke-width="4px" />
<path d="M 1500.0 95.0 L 1510.0 95.0" stroke="#FF0000" fill="none" stroke-width="4px" />
<path d="M 1510.0 95.0 L 1520.0 95.0" stroke="#FF0000" fill="none" stroke-width="4px" />
<path d="M 1520.0 95.0 L 1530.0 95.0" stroke="#FF0000" fill="none" stroke-width="4px" />
<path d="M 1530.0 95.0 L 1540.0 95.0" stroke="#FF0000" fill="none" stroke-width="4px" />
<path d="M 1540.0 95.0 L 1540.0 105.0" stroke="#FF0000" fill="none" stroke-width="4px" />
<path d="M 1540.0 105.0 L 1530.0 105.0" stroke="#FF0000" fill="none" stroke-width="4px" />
<path d="M 1530.0 105.0 L 1520.0 105.0" stroke="#FF0000" fill="none" stroke-width="4px" />
<path d="M 1520.0 105.0 L 1510.0 105.0" stroke="#FF0000" fill="none" stroke-width="4px" />
<path d="M 1510.0 105.0 L 1500.0 105.0" stroke="#FF0000" fill="none" stroke-width="4px" />
<path d="M 1500.0 105.0 L 1490.0 105.0" stroke="#FF0000" fill="none" stroke-width="4px" />
<path d="M 1490.0 105.0 L 1480.0 105.0" stroke="#FF0000" fill="none" stroke-width="4px" />
<path d="M 1480.0 105.0 L 1490.0 115.0" stroke="#FF0000" fill="none" stroke-width="4px" />
<path d="M 1490.0 115.0 L 1500.0 115.0" stroke="#FF0000" fill="none" stroke-width="4px" />
<path d="M 1500.0 115.0 L 1510.0 115.0" stroke="#FF0000" fill="none" stroke-width="4px" />
<path d="M 1510.0 115.0 L 1520.0 115.0" stroke="#FF0000" fill="none" stroke-width="4px" />
<path d="M 1520.0 115.0 L 1530.0 115.0" stroke="#FF0000" fill="none" stroke-width="4px" />
<path d="M 1530.0 115.0 L 1540.0 115.0" stroke="#FF0000" fill="none" stroke-width="4px" />
<path d="M 1540.0 115.0 L 1530.0 125.0" stroke="#FF0000" fill="none" stroke-width="4px" />
<path d="M 1530.0 125.0 L 1520.0 125.0" stroke="#FF0000" fill="none" stroke-width="4px" />
<path d="M 1520.0 125.0 L 1510.0 125.0" stroke="#FF0000" fill="none" stroke-width="4px" />
<path d="M 1510.0 125.0 L 1520.0 135.0" stroke="#FF0000" fill="none" stroke-width="4px" />
<path d="M 1520.0 85.0 L 1510.0 85.0" stroke="#FF0000" fill="none" stroke-width="4px" />
<path d="M 1510.0 85.0 L 1500.0 85.0" stroke="#FF0000" fill="none" stroke-width="4px" />
<path d="M 1500.0 85.0 L 1490.0 85.0" stroke="#FF0000" fill="none" stroke-width="4px" />
<path d="M 1490.0 85.0 L 1480.0 85.0" stroke="#FF0000" fill="none" stroke-width="4px" />
<path d="M 1480.0 85.0 L 1490.0 75.0" stroke="#FF0000" fill="none" stroke-width="4px" />
<path d="M 1490.0 75.0 L 1500.0 75.0" stroke="#FF0000" fill="none" stroke-width="4px" />
<path d="M 1500.0 75.0 L 1510.0 75.0" stroke="#FF0000" fill="none" stroke-width="4px" />
<path d="M 1630.0 105.0 L 1640.0 105.0" stroke="#FF0000" fill="none" stroke-width="4px" />
<path d="M 1640.0 105.0 L 1650.0 105.0" stroke="#FF0000" fill="none" stroke-width="4px" />
<path d="M 1650.0 105.0 L 1660.0 105.0" stroke="#FF0000" fill="none" stroke-width="4px" />
<path d="M 1660.0 105.0 L 1670.0 105.0" stroke="#FF0000" fill="none" stroke-width="4px" />
<path d="M 1670.0 105.0 L 1680.0 105.0" stroke="#FF0000" fill="none" stroke-width="4px" />
<path d="M 1680.0 105.0 L 1670.0 115.0" stroke="#FF0000" fill="none" stroke-width="4px" />
<path d="M 1670.0 115.0 L 1660.0 115.0" stroke="#FF0000" fill="none" stroke-width="4px" />
<path d="M 1660.0 115.0 L 1650.0 115.0" stroke="#FF0000" fill="none" stroke-width="4px" />
<path d="M 1650.0 115.0 L 1640.0 115.0" stroke="#FF0000" fill="none" stroke-width="4px" />
<path d="M 1640.0 115.0 L 1630.0 115.0" stroke="#FF0000" fill="none" stroke-width="4px" />
<path d="M 1630.0 115.0 L 1630.0 125.0" stroke="#FF0000" fill="none" stroke-width="4px" />
<path d="M 1630.0 125.0 L 1640.0 125.0" stroke="#FF0000" fill="none" stroke-width="4px" />
<path d="M 1640.0 125.0 L 1650.0 125.0" stroke="#FF0000" fill="none" stroke-width="4px" />
<path d="M 1650.0 125.0 L 1660.0 125.0" stroke="#FF0000" fill="none" stroke-width="4px" />
<path d="M 1660.0 125.0 L 1670.0 125.0" stroke="#FF0000" fill="none" stroke-width="4px" />
<path d="M 1670.0 125.0 L 1670.0 135.0" stroke="#FF0000" fill="none" stroke-width="4px" />
<path d="M 1670.0 135.0 L 1660.0 135.0" stroke="#FF0000" fill="none" stroke-width="4px" />
<path d="M 1660.0 135.0 L 1650.0 135.0" stroke="#FF0000" fill="none" stroke-width="4px" />
<path d="M 1650.0 135.0 L 1640.0 135.0" stroke="#FF0000" fill="none" stroke-width="4px" />
<path d="M 1640.0 135.0 L 1650.0 145.0" stroke="#FF0000" fill="none" stroke-width="4px" />
<path d="M 1650.0 145.0 L 1660.0 145.0" stroke="#FF0000" fill="none" stroke-width="4px" />
<path d="M 1660.0 95.0 L 1650.0 95.0" stroke="#FF0000" fill="none" stroke-width="4px" />
<path d="M 1650.0 95.0 L 1640.0 95.0" stroke="#FF0000" fill="none" stroke-width="4px" />
<path d="M 1640.0 95.0 L 1650.0 85.0" stroke="#FF0000" fill="none" stroke-width="4px" />
<path d="M 1650.0 85.0 L 1660.0 85.0" stroke="#FF0000" fill="none" stroke-width="4px" />
<path d="M 1660.0 85.0 L 1670.0 95.0" stroke="#FF0000" fill="none" stroke-width="4px" />
<path d="M 1790.0 55.0 L 1800.0 55.0" stroke="#FF0000" fill="none" stroke-width="4px" />
<path d="M 1800.0 55.0 L 1810.0 55.0" stroke="#FF0000" fill="none" stroke-width="4px" />
<path d="M 1810.0 55.0 L 1820.0 55.0" stroke="#FF0000" fill="none" stroke-width="4px" />
<path d="M 1820.0 55.0 L 1830.0 55.0" stroke="#FF0000" fill="none" stroke-width="4px" />
<path d="M 1830.0 55.0 L 1840.0 55.0" stroke="#FF0000" fill="none" stroke-width="4px" />
<path d="M 1840.0 55.0 L 1840.0 65.0" stroke="#FF0000" fill="none" stroke-width="4px" />
<path d="M 1840.0 65.0 L 1830.0 65.0" stroke="#FF0000" fill="none" stroke-width="4px" />
<path d="M 1830.0 65.0 L 1820.0 65.0" stroke="#FF0000" fill="none" stroke-width="4px" />
<path d="M 1820.0 65.0 L 1810.0 65.0" stroke="#FF0000" fill="none" stroke-width="4px" />
<path d="M 1810.0 65.0 L 1800.0 65.0" stroke="#FF0000" fill="none" stroke-width="4px" />
<path d="M 1800.0 65.0 L 1810.0 75.0" stroke="#FF0000" fill="none" stroke-width="4px" />
<path d="M 1810.0 75.0 L 1820.0 75.0" stroke="#FF0000" fill="none" stroke-width="4px" />
<path d="M 1820.0 75.0 L 1830.0 75.0" stroke="#FF0000" fill="none" stroke-width="4px" />
<path d="M 1830.0 75.0 L 1840.0 75.0" stroke="#FF0000" fill="none" stroke-width="4px" />
<path d="M 1840.0 75.0 L 1830.0 85.0" stroke="#FF0000" fill="none" stroke-width="4px" />
<path d="M 1830.0 85.0 L 1820.0 85.0" stroke="#FF0000" fill="none" stroke-width="4px" />
<path d="M 1820.0 45.0 L 1810.0 45.0" stroke="#FF0000" fill="none" stroke-width="4px" />
<path d="M 1810.0 45.0 L 1800.0 45.0" stroke="#FF0000" fill="none" stroke-width="4px" />
<path d="M 1800.0 45.0 L 1810.0 35.0" stroke="#FF0000" fill="none" stroke-width="4px" />
<path d="M 1810.0 35.0 L 1820.0 35.0" stroke="#FF0000" fill="none" stroke-width="4px" />
<path d="M 1820.0 35.0 L 1830.0 45.0" stroke="#FF0000" fill="none" stroke-width="4px" />
<path d="M 1920.0 145.0 L 1930.0 145.0" stroke="#FF0000" fill="none" stroke-width="4px" />
<path d="M 1930.0 145.0 L 1940.0 145.0" stroke="#FF0000" fill="none" stroke-width="4px" />
<path d="M 1940.0 145.0 L 1950.0 145.0" stroke="#FF0000" fill="none" stroke-width="4px" />
<path d="M 1950.0 145.0 L 1960.0 145.0" stroke="#FF0000" fill="none" stroke-width="4px" />
<path d="M 1960.0 145.0 L 1970.0 145.0" stroke="#FF0000" fill="none" stroke-width="4px" />
<path d="M 1970.0 145.0 L 1980.0 145.0" stroke="#FF0000" fill="none" stroke-width="4px" />
<path d="M 1980.0 145.0 L 1980.0 135.0" stroke="#FF0000" fill="none" stroke-width="4px" />
<path d="M 1980.0 135.0 L 1970.0 135.0" stroke="#FF0000" fill="none" stroke-width="4px" />
<path d="M 1970.0 135.0 L 1960.0 135.0" stroke="#FF0000" fill="none" stroke-width="4px" />
<path d="M 1960.0 135.0 L 1950.0 135.0" stroke="#FF0000" fill="none" stroke-width="4px" />
<path d="M 1950.0 135.0 L 1960.0 125.0" stroke="#FF0000" fill="none" stroke-width="4px" />
<path d="M 1960.0 125.0 L 1970.0 125.0" stroke="#FF0000" fill="none" stroke-width="4px" />
<path d="M 1970.0 155.0 L 1960.0 155.0" stroke="#FF0000" fill="none" stroke-width="4px" />
<path d="M 1960.0 155.0 L 1950.0 155.0" stroke="#FF0000" fill="none" stroke-width="4px" />
<path d="M 1950.0 155.0 L 1940.0 155.0" stroke="#FF0000" fill="none" stroke-width="4px" />
<path d="M 1940.0 155.0 L 1930.0 155.0" stroke="#FF0000" fill="none" stroke-width="4px" />
<path d="M 1930.0 155.0 L 1920.0 155.0" stroke="#FF0000" fill="none" stroke-width="4px" />
<path d="M 1920.0 155.0 L 1910.0 155.0" stroke="#FF0000" fill="none" stroke-width="4px" />
<path d="M 1910.0 155.0 L 1910.0 165.0" stroke="#FF0000" fill="none" stroke-width="4px" />
<path d="M 1910.0 165.0 L 1920.0 165.0" stroke="#FF0000" fill="none" stroke-width="4px" />
<path d="M 1920.0 165.0 L 1930.0 165.0" stroke="#FF0000" fill="none" stroke-width="4px" />
<path d="M 1930.0 165.0 L 1940.0 165.0" stroke="#FF0000" fill="none" stroke-width="4px" />
<path d="M 1940.0 165.0 L 1950.0 165.0" stroke="#FF0000" fill="none" stroke-width="4px" />
<path d="M 1950.0 165.0 L 1960.0 165.0" stroke="#FF0000" fill="none" stroke-width="4px" />
<path d="M 1960.0 165.0 L 1960.0 175.0" stroke="#FF0000" fill="none" stroke-width="4px" />
<path d="M 1960.0 175.0 L 1950.0 175.0" stroke="#FF0000" fill="none" stroke-width="4px" />
<path d="M 1950.0 175.0 L 1940.0 175.0" stroke="#FF0000" fill="none" stroke-width="4px" />
<path d="M 1940.0 175.0 L 1930.0 175.0" stroke="#FF0000" fill="none" stroke-width="4px" />
<path d="M 1930.0 175.0 L 1920.0 175.0" stroke="#FF0000" fill="none" stroke-width="4px" />
<path d="M 1920.0 175.0 L 1910.0 175.0" stroke="#FF0000" fill="none" stroke-width="4px" />
<path d="M 1910.0 175.0 L 1920.0 185.0" stroke="#FF0000" fill="none" stroke-width="4px" />
<path d="M 1920.0 185.0 L 1930.0 185.0" stroke="#FF0000" fill="none" stroke-width="4px" />
<path d="M 1930.0 185.0 L 1940.0 185.0" stroke="#FF0000" fill="none" stroke-width="4px" />
<path d="M 1940.0 185.0 L 1950.0 185.0" stroke="#FF0000" fill="none" stroke-width="4px" />
<path d="M 1950.0 185.0 L 1940.0 195.0" stroke="#FF0000" fill="none" stroke-width="4px" />
<path d="M 1940.0 195.0 L 1930.0 195.0" stroke="#FF0000" fill="none" stroke-width="4px" />
<path d="M 2040.0 65.0 L 2030.0 65.0" stroke="#FF0000" fill="none" stroke-width="4px" />
<path d="M 2030.0 65.0 L 2020.0 65.0" stroke="#FF0000" fill="none" stroke-width="4px" />
<path d="M 2020.0 65.0 L 2010.0 65.0" stroke="#FF0000" fill="none" stroke-width="4px" />
<path d="M 2010.0 65.0 L 2000.0 65.0" stroke="#FF0000" fill="none" stroke-width="4px" />
<path d="M 2000.0 65.0 L 1990.0 65.0" stroke="#FF0000" fill="none" stroke-width="4px" />
<path d="M 1990.0 65.0 L 1980.0 65.0" stroke="#FF0000" fill="none" stroke-width="4px" />
<path d="M 1980.0 65.0 L 1970.0 65.0" stroke="#FF0000" fill="none" stroke-width="4px" />
<path d="M 1970.0 65.0 L 1970.0 55.0" stroke="#FF0000" fill="none" stroke-width="4px" />
<path d="M 1970.0 55.0 L 1980.0 55.0" stroke="#FF0000" fill="none" stroke-width="4px" />
<path d="M 1980.0 55.0 L 1990.0 55.0" stroke="#FF0000" fill="none" stroke-width="4px" />
<path d="M 1990.0 55.0 L 2000.0 55.0" stroke="#FF0000" fill="none" stroke-width="4px" />
<path d="M 2000.0 55.0 L 2010.0 55.0" stroke="#FF0000" fill="none" stroke-width="4px" />
<path d="M 2010.0 55.0 L 2020.0 55.0" stroke="#FF0000" fill="none" stroke-width="4px" />
<path d="M 2020.0 55.0 L 2030.0 55.0" stroke="#FF0000" fill="none" stroke-width="4px" />
<path d="M 2030.0 55.0 L 2040.0 55.0" stroke="#FF0000" fill="none" stroke-width="4px" />
<path d="M 2040.0 55.0 L 2030.0 45.0" stroke="#FF0000" fill="none" stroke-width="4px" />
<path d="M 2030.0 45.0 L 2020.0 45.0" stroke="#FF0000" fill="none" stroke-width="4px" />
<path d="M 2020.0 45.0 L 2010.0 45.0" stroke="#FF0000" fill="none" stroke-width="4px" />
<path d="M 2010.0 45.0 L 2000.0 45.0" stroke="#FF0000" fill="none" stroke-width="4px" />
<path d="M 2000.0 45.0 L 1990.0 45.0" stroke="#FF0000" fill="none" stroke-width="4px" />
<path d="M 1990.0 45.0 L 1980.0 45.0" stroke="#FF0000" fill="none" stroke-width="4px" />
<path d="M 1980.0 45.0 L 1990.0 35.0" stroke="#FF0000" fill="none" stroke-width="4px" />
<path d="M 1990.0 35.0 L 2000.0 35.0" stroke="#FF0000" fill="none" stroke-width="4px" />
<path d="M 2000.0 35.0 L 2010.0 35.0" stroke="#FF0000" fill="none" stroke-width="4px" />
<path d="M 2010.0 35.0 L 2020.0 35.0" stroke="#FF0000" fill="none" stroke-width="4px" />
<path d="M 2020.0 75.0 L 2010.0 75.0" stroke="#FF0000" fill="none" stroke-width="4px" />
<path d="M 2010.0 75.0 L 2000.0 75.0" stroke="#FF0000" fill="none" stroke-width="4px" />
<path d="M 2000.0 75.0 L 1990.0 75.0" stroke="#FF0000" fill="none" stroke-width="4px" />
<path d="M 1990.0 75.0 L 1980.0 75.0" stroke="#FF0000" fill="none" stroke-width="4px" />
<path d="M 1980.0 75.0 L 1990.0 85.0" stroke="#FF0000" fill="none" stroke-width="4px" />
<path d="M 1990.0 85.0 L 2000.0 85.0" stroke="#FF0000" fill="none" stroke-width="4px" />
<path d="M 2000.0 85.0 L 2010.0 85.0" stroke="#FF0000" fill="none" stroke-width="4px" />
<path d="M 2010.0 85.0 L 2020.0 85.0" stroke="#FF0000" fill="none" stroke-width="4px" />
<path d="M 2020.0 85.0 L 2030.0 75.0" stroke="#FF0000" fill="none" stroke-width="4px" />
</svg>