<svg width="1755.23333333" height="235.0" xmlns="http://www.w3.org/2000/svg" version="1.1">
<path d="M 0.0 235.0 L 1755.23333333 235.0 L 1755.23333333 0.0 L 0.0 0.0 L 0.0 235.0" stroke="#000000" fill="none" stroke-width="3px" />
<path d="M 10.0 257.5 L 0.0 247.5 L 10.0 237.5" stroke="#969696" fill="none" stroke-width="1px" />
<path d="M 10.0 237.5 L 1745.23333333 237.5" stroke="#969696" fill="none" stroke-width="1px" />
<path d="M 1745.23333333 237.5 L 1755.23333333 227.5 L 1745.23333333 217.5" stroke="#969696" fill="none" stroke-width="1px" />
<path d="M 1745.23333333 217.5 L 10.0 217.5" stroke="#969696" fill="none" stroke-width="1px" />
<path d="M 10.0 217.5 L 0.0 207.5 L 10.0 197.5" stroke="#969696" fill="none" stroke-width="1px" />
<path d="M 10.0 197.5 L 1745.23333333 197.5" stroke="#969696" fill="none" stroke-width="1px" />
<path d="M 1745.23333333 197.5 L 1755.23333333 187.5 L 1745.23333333 177.5" stroke="#969696" fill="none" stroke-width="1px" />
<path d="M 1745.23333333 177.5 L 10.0 177.5" stroke="#969696" fill="none" stroke-width="1px" />
<path d="M 10.0 177.5 L 0.0 167.5 L 10.0 157.5" stroke="#969696" fill="none" stroke-width="1px" />
<path d="M 10.0 157.5 L 1745.23333333 157.5" stroke="#969696" fill="none" stroke-width="1px" />
<path d="M 1745.23333333 157.5 L 1755.23333333 147.5 L 1745.23333333 137.5" stroke="#969696" fill="none" stroke-width="1px" />
<path d="M 1745.23333333 137.5 L 10.0 137.5" stroke="#969696" fill="none" stroke-width="1px" />
<path d="M 10.0 137.5 L 0.0 127.5 L 10.0 117.5" stroke="#969696" fill="none" stroke-width="1px" />
<path d="M 10.0 117.5 L 1745.23333333 117.5" stroke="#969696" fill="none" stroke-width="1px" />
<path d="M 1745.23333333 117.5 L 1755.23333333 107.5 L 1745.23333333 97.5" stroke="#969696" fill="none" stroke-width="1px" />
<path d="M 1745.23333333 97.5 L 10.0 97.5" stroke="#969696" fill="none" stroke-width="1px" />
<path d="M 10.0 97.5 L 0.0 87.5 L 10.0 77.5" stroke="#969696" fill="none" stroke-width="1px" />
<path d="M 10.0 77.5 L 1745.23333333 77.5" stroke="#969696" fill="none" stroke-width="1px" />
<path d="M 1745.23333333 77.5 L 1755.23333333 67.5 L 1745.23333333 57.5" stroke="#969696" fill="none" stroke-width="1px" />
<path d="M 1745.23333333 57.5 L 10.0 57.5" stroke="#969696" fill="none" stroke-width="1px" />
<path d="M 10.0 57.5 L 0.0 47.5 L 10.0 37.5" stroke="#969696" fill="none" stroke-width="1px" />
<path d="M 10.0 37.5 L 1745.23333333 37.5" stroke="#969696" fill="none" stroke-width="1px" />
<path d="M 1745.23333333 37.5 L 1755.23333333 27.5 L 1745.23333333 17.5" stroke="#969696" fill="none" stroke-width="1px" />
<path d="M 1745.23333333 17.5 L 10.0 17.5" stroke="#969696" fill="none" stroke-width="1px" />
<path d="M 10.0 17.5 L 0.0 7.5 L 10.0 -2.5" stroke="#969696" fill="none" stroke-width="1px" />
<path d="M 10.0 -2.5 L 1745.23333333 -2.5" stroke="#969696" fill="none" stroke-width="1px" />
<path d="M 1745.23333333 -2.5 L 1755.23333333 -12.5 L 1745.23333333 -22.5" stroke="#969696" fill="none" stroke-width="1px" />
<path d="M 0.0 235.0 L 150.0 85.0" stroke="#0095FF" fill="none" stroke-width="2px" />
<path d="M 170.0 75.0 L 160.0 55.0" stroke="#0095FF" fill="none" stroke-width="2px" />
<path d="M 180.0 35.0 L 160.0 15.0" stroke="#0095FF" fill="none" stroke-width="2px" />
<path d="M 160.0 15.0 L 530.0 25.0" stroke="#0095FF" fill="none" stroke-width="2px" />
<path d="M 540.0 -5.0 L 540.0 35.0" stroke="#0095FF" fill="none" stroke-width="2px" />
<path d="M 550.0 45.0 L 1560.0 55.0" stroke="#0095FF" fill="none" stroke-width="2px" />
<path d="M 1620.0 65.0 L 1600.0 45.0" stroke="#0095FF" fill="none" stroke-width="2px" />
<path d="M 150.0 85.0 L 160.0 85.0" stroke="#FF0000" fill="none" stroke-width="4px" />
<path d="M 160.0 85.0 L 160.0 75.0" stroke="#FF0000" fill="none" stroke-width="4px" />
<path d="M 160.0 75.0 L 150.0 75.0" stroke="#FF0000" fill="none" stroke-width="4px" />
<path d="M 150.0 75.0 L 140.0 75.0" stroke="#FF0000" fill="none" stroke-width="4px" />
<path d="M 140.0 75.0 L 140.0 65.0" stroke="#FF0000" fill="none" stroke-width="4px" />
<path d="M 140.0 65.0 L 150.0 65.0" stroke="#FF0000" fill="none" stroke-width="4px" />
<path d="M 150.0 65.0 L 160.0 65.0" stroke="#FF0000" fill="none" stroke-width="4px" />
<path d="M 160.0 65.0 L 170.0 65.0" stroke="#FF0000" fill="none" stroke-width="4px" />
<path d="M 170.0 65.0 L 170.0 75.0" stroke="#FF0000" fill="none" stroke-width="4px" />
<path d="M 160.0 55.0 L 150.0 55.0" stroke="#FF0000" fill="none" stroke-width="4px" />
<path d="M 150.0 55.0 L 150.0 45.0" stroke="#FF0000" fill="none" stroke-width="4px" />
<path d="M 150.0 45.0 L 160.0 45.0" stroke="#FF0000" fill="none" stroke-width="4px" />
<path d="M 160.0 45.0 L 170.0 45.0" stroke="#FF0000" fill="none" stroke-width="4px" />
<path d="M 170.0 45.0 L 170.0 35.0" stroke="#FF0000" fill="none" stroke-width="4px" />
<path d="M 170.0 35.0 L 160.0 35.0" stroke="#FF0000" fill="none" stroke-width="4px" />
<path d="M 160.0 35.0 L 150.0 35.0" stroke="#FF0000" fill="none" stroke-width="4px" />
<path d="M 150.0 35.0 L 140.0 35.0" stroke="#FF0000" fill="none" stroke-width="4px" />
<path d="M 140.0 35.0 L 150.0 25.0" stroke="#FF0000" fill="none" stroke-width="4px" />
<path d="M 150.0 25.0 L 160.0 25.0" stroke="#FF0000" fill="none" stroke-width="4px" />
<path d="M 160.0 25.0 L 170.0 25.0" stroke="#FF0000" fill="none" stroke-width="4px" />
<path d="M 170.0 25.0 L 180.0 35.0" stroke="#FF0000" fill="none" stroke-width="4px" />
<path d="M 530.0 25.0 L 540.0 25.0" stroke="#FF0000" fill="none" stroke-width="4px" />
<path d="M 540.0 25.0 L 550.0 25.0" stroke="#FF0000" fill="none" stroke-width="4px" />
<path d="M 550.0 25.0 L 560.0 25.0" stroke="#FF0000" fill="none" stroke-width="4px" />
<path d="M 560.0 25.0 L 570.0 25.0" stroke="#FF0000" fill="none" stroke-width="4px" />
<path d="M 570.0 25.0 L 570.0 15.0" stroke="#FF0000" fill="none" stroke-width="4px" />
<path d="M 570.0 15.0 L 560.0 15.0" stroke="#FF0000" fill="none" stroke-width="4px" />
<path d="M 560.0 15.0 L 550.0 15.0" stroke="#FF0000" fill="none" stroke-width="4px" />
<path d="M 550.0 15.0 L 540.0 15.0" stroke="#FF0000" fill="none" stroke-width="4px" />
<path d="M 540.0 15.0 L 540.0 5.0" stroke="#FF0000" fill="none" stroke-width="4px" />
<path d="M 540.0 5.0 L 550.0 5.0" stroke="#FF0000" fill="none" stroke-width="4px" />
<path d="M 550.0 5.0 L 560.0 5.0" stroke="#FF0000" fill="none" stroke-width="4px" />
<path d="M 560.0 5.0 L 570.0 5.0" stroke="#FF0000" fill="none" stroke-width="4px" />
<path d="M 570.0 5.0 L 560.0 -5.0" stroke="#FF0000" fill="none" stroke-width="4px" />
<path d="M 560.0 -5.0 L 550.0 -5.0" stroke="#FF0000" fill="none" stroke-width="4px" />
<path d="M 550.0 -5.0 L 540.0 -5.0" stroke="#FF0000" fill="none" stroke-width="4px" />
<path d="M 540.0 35.0 L 550.0 35.0" stroke="#FF0000" fill="none" stroke-width="4px" />
<path d="M 550.0 35.0 L 560.0 35.0" stroke="#FF0000" fill="none" stroke-width="4px" />
<path d="M 560.0 35.0 L 550.0 45.0" stroke="#FF0000" fill="none" stroke-width="4px" />
<path d="M 1560.0 55.0 L 1570.0 55.0" stroke="#FF0000" fill="none" stroke-width="4px" />
<path d="M 1570.0 55.0 L 1580.0 55.0" stroke="#FF0000" fill="none" stroke-width="4px" />
<path d="M 1580.0 55.0 L 1590.0 55.0" stroke="#FF0000" fill="none" stroke-width="4px" />
<path d="M 1590.0 55.0 L 1600.0 55.0" stroke="#FF0000" fill="none" stroke-width="4px" />
<path d="M 1600.0 55.0 L 1610.0 55.0" stroke="#FF0000" fill="none" stroke-width="4px" />
<path d="M 1610.0 55.0 L 1610.0 65.0" stroke="#FF0000" fill="none" stroke-width="4px" />
<path d="M 1610.0 65.0 L 1600.0 65.0" stroke="#FF0000" fill="none" stroke-width="4px" />
<path d="M 1600.0 65.0 L 1590.0 65.0" stroke="#FF0000" fill="none" stroke-width="4px" />
<path d="M 1590.0 65.0 L 1580.0 65.0" stroke="#FF0000" fill="none" stroke-width="4px" />
<path d="M 1580.0 65.0 L 1570.0 65.0" stroke="#FF0000" fill="none" stroke-width="4px" />
<path d="M 1570.0 65.0 L 1560.0 65.0" stroke="#FF0000" fill="none" stroke-width="4px" />
<path d="M 1560.0 65.0 L 1570.0 75.0" stroke="#FF0000" fill="none" stroke-width="4px" />
<path d="M 1570.0 75.0 L 1580.0 75.0" stroke="#FF0000" fill="none" stroke-width="4px" />
<path d="M 1580.0 75.0 L 1590.0 75.0" stroke="#FF0000" fill="none" stroke-width="4px" />
<path d="M 1590.0 75.0 L 1600.0 75.0" stroke="#FF0000" fill="none" stroke-width="4px" />
<path d="M 1600.0 75.0 L 1610.0 75.0" stroke="#FF0000" fill="none" stroke-width="4px" />
<path d="M 1610.0 75.0 L 1620.0 65.0" stroke="#FF0000" fill="none" stroke-width="4px" />
<path d="M 1600.0 45.0 L 1590.0 45.0" stroke="#FF0000" fill="none" stroke-width="4px" />
<path d="M 1590.0 45.0 L 1580.0 45.0" stroke="#FF0000" fill="none" stroke-width="4px" />
<path d="M 1580.0 45.0 L 1570.0 45.0" stroke="#FF0000" fill="none" stroke-width="4px" />
<path d="M 1570.0 45.0 L 1580.0 35.0" stroke="#FF0000" fill="none" stroke-width="4px" />
<path d="M 1580.0 35.0 L 1590.0 35.0" stroke="#FF0000" fill="none" stroke-width="4px" />
</svg>