<svg width="2472.26666667" height="235.0" xmlns="http://www.w3.org/2000/svg" version="1.1">
<path d="M 0.0 235.0 L 1985.0 235.0 L 1985.0 0.0 L 0.0 0.0 L 0.0 235.0" stroke="#000000" fill="none" stroke-width="3px" />
<path d="M 2472.26666667 235.0 L 1885.0 235.0 L 1885.0 0.0 L 2472.26666667 0.0 L 2472.26666667 235.0" stroke="#000000" fill="none" stroke-width="3px" />
<path d="M 10.0 257.5 L 0.0 247.5 L 10.0 237.5" stroke="#969696" fill="none" stroke-width="1px" />
<path d="M 10.0 237.5 L 1975.0 237.5" stroke="#969696" fill="none" stroke-width="1px" />
<path d="M 1975.0 237.5 L 1985.0 227.5 L 1975.0 217.5" stroke="#969696" fill="none" stroke-width="1px" />
<path d="M 1975.0 217.5 L 10.0 217.5" stroke="#969696" fill="none" stroke-width="1px" />
<path d="M 10.0 217.5 L 0.0 207.5 L 10.0 197.5" stroke="#969696" fill="none" stroke-width="1px" />
<path d="M 10.0 197.5 L 1975.0 197.5" stroke="#969696" fill="none" stroke-width="1px" />
<path d="M 1975.0 197.5 L 1985.0 187.5 L 1975.0 177.5" stroke="#969696" fill="none" stroke-width="1px" />
<path d="M 1975.0 177.5 L 10.0 177.5" stroke="#969696" fill="none" stroke-width="1px" />
<path d="M 10.0 177.5 L 0.0 167.5 L 10.0 157.5" stroke="#969696" fill="none" stroke-width="1px" />
<path d="M 10.0 157.5 L 1975.0 157.5" stroke="#969696" fill="none" stroke-width="1px" />
<path d="M 1975.0 157.5 L 1985.0 147.5 L 1975.0 137.5" stroke="#969696" fill="none" stroke-width="1px" />
<path d="M 1975.0 137.5 L 10.0 137.5" stroke="#969696" fill="none" stroke-width="1px" />
<path d="M 10.0 137.5 L 0.0 127.5 L 10.0 117.5" stroke="#969696" fill="none" stroke-width="1px" />
<path d="M 10.0 117.5 L 1975.0 117.5" stroke="#969696" fill="none" stroke-width="1px" />
<path d="M 1975.0 117.5 L 1985.0 107.5 L 1975.0 97.5" stroke="#969696" fill="none" stroke-width="1px" />
<path d="M 1975.0 97.5 L 10.0 97.5" stroke="#969696" fill="none" stroke-width="1px" />
<path d="M 10.0 97.5 L 0.0 87.5 L 10.0 77.5" stroke="#969696" fill="none" stroke-width="1px" />
<path d="M 10.0 77.5 L 1975.0 77.5" stroke="#969696" fill="none" stroke-width="1px" />
<path d="M 1975.0 77.5 L 1985.0 67.5 L 1975.0 57.5" stroke="#969696" fill="none" stroke-width="1px" />
<path d="M 1975.0 57.5 L 10.0 57.5" stroke="#969696" fill="none" stroke-width="1px" />
<path d="M 10.0 57.5 L 0.0 47.5 L 10.0 37.5" stroke="#969696" fill="none" stroke-width="1px" />
<path d="M 10.0 37.5 L 1975.0 37.5" stroke="#969696" fill="none" stroke-width="1px" />
<path d="M 1975.0 37.5 L 1985.0 27.5 L 1975.0 17.5" stroke="#969696" fill="none" stroke-width="1px" />
<path d="M 1975.0 17.5 L 10.0 17.5" stroke="#969696" fill="none" stroke-width="1px" />
<path d="M 10.0 17.5 L 0.0 7.5 L 10.0 -2.5" stroke="#969696" fill="none" stroke-width="1px" />
<path d="M 10.0 -2.5 L 1975.0 -2.5" stroke="#969696" fill="none" stroke-width="1px" />
<path d="M 1975.0 -2.5 L 1985.0 -12.5 L 1975.0 -22.5" stroke="#969696" fill="none" stroke-width="1px" />
<path d="M 2462.26666667 257.5 L 2472.26666667 247.5 L 2462.26666667 237.5" stroke="#969696" fill="none" stroke-width="1px" />
<path d="M 2462.26666667 237.5 L 1895.0 237.5" stroke="#969696" fill="none" stroke-width="1px" />
<path d="M 1895.0 237.5 L 1885.0 227.5 L 1895.0 217.5" stroke="#969696" fill="none" stroke-width="1px" />
<path d="M 1895.0 217.5 L 2462.26666667 217.5" stroke="#969696" fill="none" stroke-width="1px" />
<path d="M 2462.26666667 217.5 L 2472.26666667 207.5 L 2462.26666667 197.5" stroke="#969696" fill="none" stroke-width="1px" />
<path d="M 2462.26666667 197.5 L 1895.0 197.5" stroke="#969696" fill="none" stroke-width="1px" />
<path d="M 1895.0 197.5 L 1885.0 187.5 L 1895.0 177.5" stroke="#969696" fill="none" stroke-width="1px" />
<path d="M 1895.0 177.5 L 2462.26666667 177.5" stroke="#969696" fill="none" stroke-width="1px" />
<path d="M 2462.26666667 177.5 L 2472.26666667 167.5 L 2462.26666667 157.5" stroke="#969696" fill="none" stroke-width="1px" />
<path d="M 2462.26666667 157.5 L 1895.0 157.5" stroke="#969696" fill="none" stroke-width="1px" />
<path d="M 1895.0 157.5 L 1885.0 147.5 L 1895.0 137.5" stroke="#969696" fill="none" stroke-width="1px" />
<path d="M 1895.0 137.5 L 2462.26666667 137.5" stroke="#969696" fill="none" stroke-width="1px" />
<path d="M 2462.26666667 137.5 L 2472.26666667 127.5 L 2462.26666667 117.5" stroke="#969696" fill="none" stroke-width="1px" />
<path d="M 2462.26666667 117.5 L 1895.0 117.5" stroke="#969696" fill="none" stroke-width="1px" />
<path d="M 1895.0 117.5 L 1885.0 107.5 L 1895.0 97.5" stroke="#969696" fill="none" stroke-width="1px" />
<path d="M 1895.0 97.5 L 2462.26666667 97.5" stroke="#969696" fill="none" stroke-width="1px" />
<path d="M 2462.26666667 97.5 L 2472.26666667 87.5 L 2462.26666667 77.5" stroke="#969696" fill="none" stroke-width="1px" />
<path d="M 2462.26666667 77.5 L 1895.0 77.5" stroke="#969696" fill="none" stroke-width="1px" />
<path d="M 1895.0 77.5 L 1885.0 67.5 L 1895.0 57.5" stroke="#969696" fill="none" stroke-width="1px" />
<path d="M 1895.0 57.5 L 2462.26666667 57.5" stroke="#969696" fill="none" stroke-width="1px" />
<path d="M 2462.26666667 57.5 L 2472.26666667 47.5 L 2462.26666667 37.5" stroke="#969696" fill="none" stroke-width="1px" />
<path d="M 2462.26666667 37.5 L 1895.0 37.5" stroke="#969696" fill="none" stroke-width="1px" />
<path d="M 1895.0 37.5 L 1885.0 27.5 L 1895.0 17.5" stroke="#969696" fill="none" stroke-width="1px" />
<path d="M 1895.0 17.5 L 2462.26666667 17.5" stroke="#969696" fill="none" stroke-width="1px" />
<path d="M 2462.26666667 17.5 L 2472.26666667 7.5 L 2462.26666667 -2.5" stroke="#969696" fill="none" stroke-width="1px" />
<path d="M 2462.26666667 -2.5 L 1895.0 -2.5" stroke="#969696" fill="none" stroke-width="1px" />
<path d="M 1895.0 -2.5 L 1885.0 -12.5 L 1895.0 -22.5" stroke="#969696" fill="none" stroke-width="1px" />
<path d="M 0.0 235.0 L 210.0 235.0" stroke="#0095FF" fill="none" stroke-width="2px" />
<path d="M 210.0 235.0 L 210.0 215.0" stroke="#0095FF" fill="none" stroke-width="2px" />
<path d="M 290.0 205.0 L 290.0 185.0" stroke="#0095FF" fill="none" stroke-width="2px" />
<path d="M 230.0 185.0 L 260.0 185.0" stroke="#0095FF" fill="none" stroke-width="2px" />
<path d="M 260.0 185.0 L 260.0 175.0" stroke="#0095FF" fill="none" stroke-width="2px" />
<path d="M 280.0 175.0 L 270.0 175.0" stroke="#0095FF" fill="none" stroke-width="2px" />
<path d="M 270.0 175.0 L 270.0 225.0" stroke="#0095FF" fill="none" stroke-width="2px" />
<path d="M 260.0 235.0 L 520.0 235.0" stroke="#0095FF" fill="none" stroke-width="2px" />
<path d="M 520.0 235.0 L 520.0 135.0" stroke="#0095FF" fill="none" stroke-width="2px" />
<path d="M 550.0 165.0 L 550.0 125.0" stroke="#0095FF" fill="none" stroke-width="2px" />
<path d="M 570.0 125.0 L 790.0 125.0" stroke="#0095FF" fill="none" stroke-width="2px" />
<path d="M 790.0 125.0 L 790.0 105.0" stroke="#0095FF" fill="none" stroke-width="2px" />
<path d="M 840.0 125.0 L 820.0 125.0" stroke="#0095FF" fill="none" stroke-width="2px" />
<path d="M 820.0 125.0 L 820.0 135.0" stroke="#0095FF" fill="none" stroke-width="2px" />
<path d="M 820.0 135.0 L 820.0 95.0" stroke="#0095FF" fill="none" stroke-width="2px" />
<path d="M 870.0 75.0 L 850.0 75.0" stroke="#0095FF" fill="none" stroke-width="2px" />
<path d="M 850.0 75.0 L 850.0 95.0" stroke="#0095FF" fill="none" stroke-width="2px" />
<path d="M 830.0 95.0 L 830.0 35.0" stroke="#0095FF" fill="none" stroke-width="2px" />
<path d="M 790.0 35.0 L 840.0 35.0" stroke="#0095FF" fill="none" stroke-width="2px" />
<path d="M 850.0 35.0 L 1670.0 35.0" stroke="#0095FF" fill="none" stroke-width="2px" />
<path d="M 1670.0 35.0 L 1670.0 135.0" stroke="#0095FF" fill="none" stroke-width="2px" />
<path d="M 1710.0 215.0 L 1710.0 125.0" stroke="#0095FF" fill="none" stroke-width="2px" />
<path d="M 1720.0 125.0 L 1720.0 105.0" stroke="#0095FF" fill="none" stroke-width="2px" />
<path d="M 210.0 215.0 L 220.0 215.0" stroke="#FF0000" fill="none" stroke-width="4px" />
<path d="M 220.0 215.0 L 230.0 215.0" stroke="#FF0000" fill="none" stroke-width="4px" />
<path d="M 230.0 215.0 L 240.0 215.0" stroke="#FF0000" fill="none" stroke-width="4px" />
<path d="M 240.0 215.0 L 250.0 215.0" stroke="#FF0000" fill="none" stroke-width="4px" />
<path d="M 250.0 215.0 L 260.0 215.0" stroke="#FF0000" fill="none" stroke-width="4px" />
<path d="M 260.0 215.0 L 270.0 215.0" stroke="#FF0000" fill="none" stroke-width="4px" />
<path d="M 270.0 215.0 L 280.0 215.0" stroke="#FF0000" fill="none" stroke-width="4px" />
<path d="M 280.0 215.0 L 280.0 205.0" stroke="#FF0000" fill="none" stroke-width="4px" />
<path d="M 280.0 205.0 L 270.0 205.0" stroke="#FF0000" fill="none" stroke-width="4px" />
<path d="M 270.0 205.0 L 260.0 205.0" stroke="#FF0000" fill="none" stroke-width="4px" />
<path d="M 260.0 205.0 L 250.0 205.0" stroke="#FF0000" fill="none" stroke-width="4px" />
<path d="M 250.0 205.0 L 240.0 205.0" stroke="#FF0000" fill="none" stroke-width="4px" />
<path d="M 240.0 205.0 L 230.0 205.0" stroke="#FF0000" fill="none" stroke-width="4px" />
<path d="M 230.0 205.0 L 220.0 205.0" stroke="#FF0000" fill="none" stroke-width="4px" />
<path d="M 220.0 205.0 L 210.0 205.0" stroke="#FF0000" fill="none" stroke-width="4px" />
<path d="M 210.0 205.0 L 220.0 195.0" stroke="#FF0000" fill="none" stroke-width="4px" />
<path d="M 220.0 195.0 L 230.0 195.0" stroke="#FF0000" fill="none" stroke-width="4px" />
<path d="M 230.0 195.0 L 240.0 195.0" stroke="#FF0000" fill="none" stroke-width="4px" />
<path d="M 240.0 195.0 L 250.0 195.0" stroke="#FF0000" fill="none" stroke-width="4px" />
<path d="M 250.0 195.0 L 260.0 195.0" stroke="#FF0000" fill="none" stroke-width="4px" />
<path d="M 260.0 195.0 L 270.0 195.0" stroke="#FF0000" fill="none" stroke-width="4px" />
<path d="M 270.0 195.0 L 280.0 195.0" stroke="#FF0000" fill="none" stroke-width="4px" />
<path d="M 280.0 195.0 L 290.0 195.0" stroke="#FF0000" fill="none" stroke-width="4px" />
<path d="M 290.0 195.0 L 300.0 195.0" stroke="#FF0000" fill="none" stroke-width="4px" />
<path d="M 300.0 195.0 L 290.0 205.0" stroke="#FF0000" fill="none" stroke-width="4px" />
<path d="M 290.0 185.0 L 280.0 185.0" stroke="#FF0000" fill="none" stroke-width="4px" />
<path d="M 280.0 185.0 L 270.0 185.0" stroke="#FF0000" fill="none" stroke-width="4px" />
<path d="M 270.0 185.0 L 260.0 185.0" stroke="#FF0000" fill="none" stroke-width="4px" />
<path d="M 260.0 185.0 L 250.0 185.0" stroke="#FF0000" fill="none" stroke-width="4px" />
<path d="M 250.0 185.0 L 240.0 185.0" stroke="#FF0000" fill="none" stroke-width="4px" />
<path d="M 240.0 185.0 L 230.0 185.0" stroke="#FF0000" fill="none" stroke-width="4px" />
<path d="M 260.0 175.0 L 270.0 175.0" stroke="#FF0000" fill="none" stroke-width="4px" />
<path d="M 270.0 175.0 L 280.0 175.0" stroke="#FF0000" fill="none" stroke-width="4px" />
<path d="M 270.0 225.0 L 260.0 225.0" stroke="#FF0000" fill="none" stroke-width="4px" />
<path d="M 260.0 225.0 L 250.0 225.0" stroke="#FF0000" fill="none" stroke-width="4px" />
<path d="M 250.0 225.0 L 240.0 225.0" stroke="#FF0000" fill="none" stroke-width="4px" />
<path d="M 240.0 225.0 L 230.0 225.0" stroke="#FF0000" fill="none" stroke-width="4px" />
<path d="M 230.0 225.0 L 220.0 225.0" stroke="#FF0000" fill="none" stroke-width="4px" />
<path d="M 220.0 225.0 L 220.0 235.0" stroke="#FF0000" fill="none" stroke-width="4px" />
<path d="M 220.0 235.0 L 230.0 235.0" stroke="#FF0000" fill="none" stroke-width="4px" />
<path d="M 230.0 235.0 L 240.0 235.0" stroke="#FF0000" fill="none" stroke-width="4px" />
<path d="M 240.0 235.0 L 250.0 235.0" stroke="#FF0000" fill="none" stroke-width="4px" />
<path d="M 250.0 235.0 L 260.0 235.0" stroke="#FF0000" fill="none" stroke-width="4px" />
<path d="M 520.0 135.0 L 530.0 135.0" stroke="#FF0000" fill="none" stroke-width="4px" />
<path d="M 530.0 135.0 L 540.0 135.0" stroke="#FF0000" fill="none" stroke-width="4px" />
<path d="M 540.0 135.0 L 550.0 135.0" stroke="#FF0000" fill="none" stroke-width="4px" />
<path d="M 550.0 135.0 L 560.0 135.0" stroke="#FF0000" fill="none" stroke-width="4px" />
<path d="M 560.0 135.0 L 570.0 135.0" stroke="#FF0000" fill="none" stroke-width="4px" />
<path d="M 570.0 135.0 L 580.0 135.0" stroke="#FF0000" fill="none" stroke-width="4px" />
<path d="M 580.0 135.0 L 580.0 145.0" stroke="#FF0000" fill="none" stroke-width="4px" />
<path d="M 580.0 145.0 L 570.0 145.0" stroke="#FF0000" fill="none" stroke-width="4px" />
<path d="M 570.0 145.0 L 560.0 145.0" stroke="#FF0000" fill="none" stroke-width="4px" />
<path d="M 560.0 145.0 L 550.0 145.0" stroke="#FF0000" fill="none" stroke-width="4px" />
<path d="M 550.0 145.0 L 540.0 145.0" stroke="#FF0000" fill="none" stroke-width="4px" />
<path d="M 540.0 145.0 L 530.0 145.0" stroke="#FF0000" fill="none" stroke-width="4px" />
<path d="M 530.0 145.0 L 540.0 155.0" stroke="#FF0000" fill="none" stroke-width="4px" />
<path d="M 540.0 155.0 L 550.0 155.0" stroke="#FF0000" fill="none" stroke-width="4px" />
<path d="M 550.0 155.0 L 560.0 155.0" stroke="#FF0000" fill="none" stroke-width="4px" />
<path d="M 560.0 155.0 L 570.0 155.0" stroke="#FF0000" fill="none" stroke-width="4px" />
<path d="M 570.0 155.0 L 560.0 165.0" stroke="#FF0000" fill="none" stroke-width="4px" />
<path d="M 560.0 165.0 L 550.0 165.0" stroke="#FF0000" fill="none" stroke-width="4px" />
<path d="M 550.0 125.0 L 540.0 125.0" stroke="#FF0000" fill="none" stroke-width="4px" />
<path d="M 540.0 125.0 L 530.0 125.0" stroke="#FF0000" fill="none" stroke-width="4px" />
<path d="M 530.0 125.0 L 540.0 115.0" stroke="#FF0000" fill="none" stroke-width="4px" />
<path d="M 540.0 115.0 L 550.0 115.0" stroke="#FF0000" fill="none" stroke-width="4px" />
<path d="M 550.0 115.0 L 560.0 115.0" stroke="#FF0000" fill="none" stroke-width="4px" />
<path d="M 560.0 115.0 L 560.0 125.0" stroke="#FF0000" fill="none" stroke-width="4px" />
<path d="M 560.0 125.0 L 570.0 125.0" stroke="#FF0000" fill="none" stroke-width="4px" />
<path d="M 790.0 105.0 L 800.0 105.0" stroke="#FF0000" fill="none" stroke-width="4px" />
<path d="M 800.0 105.0 L 810.0 105.0" stroke="#FF0000" fill="none" stroke-width="4px" />
<path d="M 810.0 105.0 L 820.0 105.0" stroke="#FF0000" fill="none" stroke-width="4px" />
<path d="M 820.0 105.0 L 830.0 105.0" stroke="#FF0000" fill="none" stroke-width="4px" />
<path d="M 830.0 105.0 L 840.0 105.0" stroke="#FF0000" fill="none" stroke-width="4px" />
<path d="M 840.0 105.0 L 850.0 105.0" stroke="#FF0000" fill="none" stroke-width="4px" />
<path d="M 850.0 105.0 L 850.0 115.0" stroke="#FF0000" fill="none" stroke-width="4px" />
<path d="M 850.0 115.0 L 840.0 115.0" stroke="#FF0000" fill="none" stroke-width="4px" />
<path d="M 840.0 115.0 L 830.0 115.0" stroke="#FF0000" fill="none" stroke-width="4px" />
<path d="M 830.0 115.0 L 820.0 115.0" stroke="#FF0000" fill="none" stroke-width="4px" />
<path d="M 820.0 115.0 L 810.0 115.0" stroke="#FF0000" fill="none" stroke-width="4px" />
<path d="M 810.0 115.0 L 800.0 115.0" stroke="#FF0000" fill="none" stroke-width="4px" />
<path d="M 800.0 115.0 L 810.0 125.0" stroke="#FF0000" fill="none" stroke-width="4px" />
<path d="M 810.0 125.0 L 820.0 125.0" stroke="#FF0000" fill="none" stroke-width="4px" />
<path d="M 820.0 125.0 L 830.0 125.0" stroke="#FF0000" fill="none" stroke-width="4px" />
<path d="M 830.0 125.0 L 840.0 125.0" stroke="#FF0000" fill="none" stroke-width="4px" />
<path d="M 820.0 95.0 L 810.0 95.0" stroke="#FF0000" fill="none" stroke-width="4px" />
<path d="M 810.0 95.0 L 800.0 95.0" stroke="#FF0000" fill="none" stroke-width="4px" />
<path d="M 800.0 95.0 L 790.0 95.0" stroke="#FF0000" fill="none" stroke-width="4px" />
<path d="M 790.0 95.0 L 790.0 85.0" stroke="#FF0000" fill="none" stroke-width="4px" />
<path d="M 790.0 85.0 L 800.0 85.0" stroke="#FF0000" fill="none" stroke-width="4px" />
<path d="M 800.0 85.0 L 810.0 85.0" stroke="#FF0000" fill="none" stroke-width="4px" />
<path d="M 810.0 85.0 L 820.0 85.0" stroke="#FF0000" fill="none" stroke-width="4px" />
<path d="M 820.0 85.0 L 830.0 85.0" stroke="#FF0000" fill="none" stroke-width="4px" />
<path d="M 830.0 85.0 L 840.0 85.0" stroke="#FF0000" fill="none" stroke-width="4px" />
<path d="M 840.0 85.0 L 850.0 85.0" stroke="#FF0000" fill="none" stroke-width="4px" />
<path d="M 850.0 85.0 L 860.0 85.0" stroke="#FF0000" fill="none" stroke-width="4px" />
<path d="M 860.0 85.0 L 860.0 75.0" stroke="#FF0000" fill="none" stroke-width="4px" />
<path d="M 860.0 75.0 L 850.0 75.0" stroke="#FF0000" fill="none" stroke-width="4px" />
<path d="M 850.0 75.0 L 840.0 75.0" stroke="#FF0000" fill="none" stroke-width="4px" />
<path d="M 840.0 75.0 L 830.0 75.0" stroke="#FF0000" fill="none" stroke-width="4px" />
<path d="M 830.0 75.0 L 820.0 75.0" stroke="#FF0000" fill="none" stroke-width="4px" />
<path d="M 820.0 75.0 L 810.0 75.0" stroke="#FF0000" fill="none" stroke-width="4px" />
<path d="M 810.0 75.0 L 800.0 75.0" stroke="#FF0000" fill="none" stroke-width="4px" />
<path d="M 800.0 75.0 L 790.0 75.0" stroke="#FF0000" fill="none" stroke-width="4px" />
<path d="M 790.0 75.0 L 790.0 65.0" stroke="#FF0000" fill="none" stroke-width="4px" />
<path d="M 790.0 65.0 L 780.0 65.0" stroke="#FF0000" fill="none" stroke-width="4px" />
<path d="M 780.0 65.0 L 780.0 55.0" stroke="#FF0000" fill="none" stroke-width="4px" />
<path d="M 780.0 55.0 L 770.0 55.0" stroke="#FF0000" fill="none" stroke-width="4px" />
<path d="M 770.0 55.0 L 780.0 45.0" stroke="#FF0000" fill="none" stroke-width="4px" />
<path d="M 780.0 45.0 L 790.0 45.0" stroke="#FF0000" fill="none" stroke-width="4px" />
<path d="M 790.0 45.0 L 800.0 45.0" stroke="#FF0000" fill="none" stroke-width="4px" />
<path d="M 800.0 45.0 L 810.0 45.0" stroke="#FF0000" fill="none" stroke-width="4px" />
<path d="M 810.0 45.0 L 820.0 45.0" stroke="#FF0000" fill="none" stroke-width="4px" />
<path d="M 820.0 45.0 L 830.0 45.0" stroke="#FF0000" fill="none" stroke-width="4px" />
<path d="M 830.0 45.0 L 840.0 45.0" stroke="#FF0000" fill="none" stroke-width="4px" />
<path d="M 840.0 45.0 L 850.0 45.0" stroke="#FF0000" fill="none" stroke-width="4px" />
<path d="M 850.0 45.0 L 860.0 45.0" stroke="#FF0000" fill="none" stroke-width="4px" />
<path d="M 860.0 45.0 L 860.0 55.0" stroke="#FF0000" fill="none" stroke-width="4px" />
<path d="M 860.0 55.0 L 850.0 55.0" stroke="#FF0000" fill="none" stroke-width="4px" />
<path d="M 850.0 55.0 L 840.0 55.0" stroke="#FF0000" fill="none" stroke-width="4px" />
<path d="M 840.0 55.0 L 830.0 55.0" stroke="#FF0000" fill="none" stroke-width="4px" />
<path d="M 830.0 55.0 L 820.0 55.0" stroke="#FF0000" fill="none" stroke-width="4px" />
<path d="M 820.0 55.0 L 810.0 55.0" stroke="#FF0000" fill="none" stroke-width="4px" />
<path d="M 810.0 55.0 L 800.0 55.0" stroke="#FF0000" fill="none" stroke-width="4px" />
<path d="M 800.0 55.0 L 790.0 55.0" stroke="#FF0000" fill="none" stroke-width="4px" />
<path d="M 790.0 55.0 L 800.0 65.0" stroke="#FF0000" fill="none" stroke-width="4px" />
<path d="M 800.0 65.0 L 810.0 65.0" stroke="#FF0000" fill="none" stroke-width="4px" />
<path d="M 810.0 65.0 L 820.0 65.0" stroke="#FF0000" fill="none" stroke-width="4px" />
<path d="M 820.0 65.0 L 830.0 65.0" stroke="#FF0000" fill="none" stroke-width="4px" />
<path d="M 830.0 65.0 L 840.0 65.0" stroke="#FF0000" fill="none" stroke-width="4px" />
<path d="M 840.0 65.0 L 850.0 65.0" stroke="#FF0000" fill="none" stroke-width="4px" />
<path d="M 850.0 65.0 L 860.0 65.0" stroke="#FF0000" fill="none" stroke-width="4px" />
<path d="M 860.0 65.0 L 870.0 65.0" stroke="#FF0000" fill="none" stroke-width="4px" />
<path d="M 870.0 65.0 L 870.0 75.0" stroke="#FF0000" fill="none" stroke-width="4px" />
<path d="M 850.0 95.0 L 840.0 95.0" stroke="#FF0000" fill="none" stroke-width="4px" />
<path d="M 840.0 95.0 L 830.0 95.0" stroke="#FF0000" fill="none" stroke-width="4px" />
<path d="M 830.0 35.0 L 820.0 35.0" stroke="#FF0000" fill="none" stroke-width="4px" />
<path d="M 820.0 35.0 L 810.0 35.0" stroke="#FF0000" fill="none" stroke-width="4px" />
<path d="M 810.0 35.0 L 800.0 35.0" stroke="#FF0000" fill="none" stroke-width="4px" />
<path d="M 800.0 35.0 L 790.0 35.0" stroke="#FF0000" fill="none" stroke-width="4px" />
<path d="M 840.0 35.0 L 850.0 35.0" stroke="#FF0000" fill="none" stroke-width="4px" />
<path d="M 1670.0 135.0 L 1680.0 135.0" stroke="#FF0000" fill="none" stroke-width="4px" />
<path d="M 1680.0 135.0 L 1690.0 135.0" stroke="#FF0000" fill="none" stroke-width="4px" />
<path d="M 1690.0 135.0 L 1700.0 135.0" stroke="#FF0000" fill="none" stroke-width="4px" />
<path d="M 1700.0 135.0 L 1710.0 135.0" stroke="#FF0000" fill="none" stroke-width="4px" />
<path d="M 1710.0 135.0 L 1720.0 135.0" stroke="#FF0000" fill="none" stroke-width="4px" />
<path d="M 1720.0 135.0 L 1730.0 135.0" stroke="#FF0000" fill="none" stroke-width="4px" />
<path d="M 1730.0 135.0 L 1740.0 135.0" stroke="#FF0000" fill="none" stroke-width="4px" />
<path d="M 1740.0 135.0 L 1750.0 135.0" stroke="#FF0000" fill="none" stroke-width="4px" />
<path d="M 1750.0 135.0 L 1750.0 145.0" stroke="#FF0000" fill="none" stroke-width="4px" />
<path d="M 1750.0 145.0 L 1740.0 145.0" stroke="#FF0000" fill="none" stroke-width="4px" />
<path d="M 1740.0 145.0 L 1730.0 145.0" stroke="#FF0000" fill="none" stroke-width="4px" />
<path d="M 1730.0 145.0 L 1720.0 145.0" stroke="#FF0000" fill="none" stroke-width="4px" />
<path d="M 1720.0 145.0 L 1710.0 145.0" stroke="#FF0000" fill="none" stroke-width="4px" />
<path d="M 1710.0 145.0 L 1700.0 145.0" stroke="#FF0000" fill="none" stroke-width="4px" />
<path d="M 1700.0 145.0 L 1690.0 145.0" stroke="#FF0000" fill="none" stroke-width="4px" />
<path d="M 1690.0 145.0 L 1680.0 145.0" stroke="#FF0000" fill="none" stroke-width="4px" />
<path d="M 1680.0 145.0 L 1670.0 145.0" stroke="#FF0000" fill="none" stroke-width="4px" />
<path d="M 1670.0 145.0 L 1680.0 155.0" stroke="#FF0000" fill="none" stroke-width="4px" />
<path d="M 1680.0 155.0 L 1690.0 155.0" stroke="#FF0000" fill="none" stroke-width="4px" />
<path d="M 1690.0 155.0 L 1700.0 155.0" stroke="#FF0000" fill="none" stroke-width="4px" />
<path d="M 1700.0 155.0 L 1710.0 155.0" stroke="#FF0000" fill="none" stroke-width="4px" />
<path d="M 1710.0 155.0 L 1720.0 155.0" stroke="#FF0000" fill="none" stroke-width="4px" />
<path d="M 1720.0 155.0 L 1730.0 155.0" stroke="#FF0000" fill="none" stroke-width="4px" />
<path d="M 1730.0 155.0 L 1740.0 155.0" stroke="#FF0000" fill="none" stroke-width="4px" />
<path d="M 1740.0 155.0 L 1730.0 165.0" stroke="#FF0000" fill="none" stroke-width="4px" />
<path d="M 1730.0 165.0 L 1720.0 165.0" stroke="#FF0000" fill="none" stroke-width="4px" />
<path d="M 1720.0 165.0 L 1710.0 165.0" stroke="#FF0000" fill="none" stroke-width="4px" />
<path d="M 1710.0 165.0 L 1700.0 165.0" stroke="#FF0000" fill="none" stroke-width="4px" />
<path d="M 1700.0 165.0 L 1690.0 165.0" stroke="#FF0000" fill="none" stroke-width="4px" />
<path d="M 1690.0 165.0 L 1680.0 165.0" stroke="#FF0000" fill="none" stroke-width="4px" />
<path d="M 1680.0 165.0 L 1680.0 175.0" stroke="#FF0000" fill="none" stroke-width="4px" />
<path d="M 1680.0 175.0 L 1690.0 175.0" stroke="#FF0000" fill="none" stroke-width="4px" />
<path d="M 1690.0 175.0 L 1700.0 175.0" stroke="#FF0000" fill="none" stroke-width="4px" />
<path d="M 1700.0 175.0 L 1710.0 175.0" stroke="#FF0000" fill="none" stroke-width="4px" />
<path d="M 1710.0 175.0 L 1720.0 175.0" stroke="#FF0000" fill="none" stroke-width="4px" />
<path d="M 1720.0 175.0 L 1720.0 185.0" stroke="#FF0000" fill="none" stroke-width="4px" />
<path d="M 1720.0 185.0 L 1710.0 185.0" stroke="#FF0000" fill="none" stroke-width="4px" />
<path d="M 1710.0 185.0 L 1700.0 185.0" stroke="#FF0000" fill="none" stroke-width="4px" />
<path d="M 1700.0 185.0 L 1690.0 185.0" stroke="#FF0000" fill="none" stroke-width="4px" />
<path d="M 1690.0 185.0 L 1680.0 185.0" stroke="#FF0000" fill="none" stroke-width="4px" />
<path d="M 1680.0 185.0 L 1670.0 185.0" stroke="#FF0000" fill="none" stroke-width="4px" />
<path d="M 1670.0 185.0 L 1670.0 195.0" stroke="#FF0000" fill="none" stroke-width="4px" />
<path d="M 1670.0 195.0 L 1680.0 195.0" stroke="#FF0000" fill="none" stroke-width="4px" />
<path d="M 1680.0 195.0 L 1690.0 195.0" stroke="#FF0000" fill="none" stroke-width="4px" />
<path d="M 1690.0 195.0 L 1700.0 195.0" stroke="#FF0000" fill="none" stroke-width="4px" />
<path d="M 1700.0 195.0 L 1710.0 195.0" stroke="#FF0000" fill="none" stroke-width="4px" />
<path d="M 1710.0 195.0 L 1720.0 195.0" stroke="#FF0000" fill="none" stroke-width="4px" />
<path d="M 1720.0 195.0 L 1730.0 195.0" stroke="#FF0000" fill="none" stroke-width="4px" />
<path d="M 1730.0 195.0 L 1720.0 205.0" stroke="#FF0000" fill="none" stroke-width="4px" />
<path d="M 1720.0 205.0 L 1710.0 205.0" stroke="#FF0000" fill="none" stroke-width="4px" />
<path d="M 1710.0 205.0 L 1700.0 205.0" stroke="#FF0000" fill="none" stroke-width="4px" />
<path d="M 1700.0 205.0 L 1690.0 205.0" stroke="#FF0000" fill="none" stroke-width="4px" />
<path d="M 1690.0 205.0 L 1680.0 205.0" stroke="#FF0000" fill="none" stroke-width="4px" />
<path d="M 1680.0 205.0 L 1680.0 215.0" stroke="#FF0000" fill="none" stroke-width="4px" />
<path d="M 1680.0 215.0 L 1670.0 215.0" stroke="#FF0000" fill="none" stroke-width="4px" />
<path d="M 1670.0 215.0 L 1670.0 225.0" stroke="#FF0000" fill="none" stroke-width="4px" />
<path d="M 1670.0 225.0 L 1660.0 225.0" stroke="#FF0000" fill="none" stroke-width="4px" />
<path d="M 1660.0 225.0 L 1660.0 235.0" stroke="#FF0000" fill="none" stroke-width="4px" />
<path d="M 1660.0 235.0 L 1670.0 235.0" stroke="#FF0000" fill="none" stroke-width="4px" />
<path d="M 1670.0 235.0 L 1680.0 235.0" stroke="#FF0000" fill="none" stroke-width="4px" />
<path d="M 1680.0 235.0 L 1690.0 235.0" stroke="#FF0000" fill="none" stroke-width="4px" />
<path d="M 1690.0 235.0 L 1700.0 235.0" stroke="#FF0000" fill="none" stroke-width="4px" />
<path d="M 1700.0 235.0 L 1700.0 225.0" stroke="#FF0000" fill="none" stroke-width="4px" />
<path d="M 1700.0 225.0 L 1690.0 225.0" stroke="#FF0000" fill="none" stroke-width="4px" />
<path d="M 1690.0 225.0 L 1680.0 225.0" stroke="#FF0000" fill="none" stroke-width="4px" />
<path d="M 1680.0 225.0 L 1690.0 215.0" stroke="#FF0000" fill="none" stroke-width="4px" />
<path d="M 1690.0 215.0 L 1700.0 215.0" stroke="#FF0000" fill="none" stroke-width="4px" />
<path d="M 1700.0 215.0 L 1710.0 215.0" stroke="#FF0000" fill="none" stroke-width="4px" />
<path d="M 1710.0 125.0 L 1700.0 125.0" stroke="#FF0000" fill="none" stroke-width="4px" />
<path d="M 1700.0 125.0 L 1690.0 125.0" stroke="#FF0000" fill="none" stroke-width="4px" />
<path d="M 1690.0 125.0 L 1680.0 125.0" stroke="#FF0000" fill="none" stroke-width="4px" />
<path d="M 1680.0 125.0 L 1690.0 115.0" stroke="#FF0000" fill="none" stroke-width="4px" />
<path d="M 1690.0 115.0 L 1700.0 115.0" stroke="#FF0000" fill="none" stroke-width="4px" />
<path d="M 1700.0 115.0 L 1710.0 115.0" stroke="#FF0000" fill="none" stroke-width="4px" />
<path d="M 1710.0 115.0 L 1720.0 115.0" stroke="#FF0000" fill="none" stroke-width="4px" />
<path d="M 1720.0 115.0 L 1730.0 115.0" stroke="#FF0000" fill="none" stroke-width="4px" />
<path d="M 1730.0 115.0 L 1740.0 115.0" stroke="#FF0000" fill="none" stroke-width="4px" />
<path d="M 1740.0 115.0 L 1750.0 115.0" stroke="#FF0000" fill="none" stroke-width="4px" />
<path d="M 1750.0 115.0 L 1750.0 125.0" stroke="#FF0000" fill="none" stroke-width="4px" />
<path d="M 1750.0 125.0 L 1740.0 125.0" stroke="#FF0000" fill="none" stroke-width="4px" />
<path d="M 1740.0 125.0 L 1730.0 125.0" stroke="#FF0000" fill="none" stroke-width="4px" />
<path d="M 1730.0 125.0 L 1720.0 125.0" stroke="#FF0000" fill="none" stroke-width="4px" />
<path d="M 1720.0 105.0 L 1710.0 105.0" stroke="#FF0000" fill="none" stroke-width="4px" />
<path d="M 1710.0 105.0 L 1720.0 95.0" stroke="#FF0000" fill="none" stroke-width="4px" />
<path d="M 1720.0 95.0 L 1730.0 95.0" stroke="#FF0000" fill="none" stroke-width="4px" />
<path d="M 1730.0 95.0 L 1730.0 105.0" stroke="#FF0000" fill="none" stroke-width="4px" />
<path d="M 1730.0 105.0 L 1740.0 105.0" stroke="#FF0000" fill="none" stroke-width="4px" />
</svg>