<svg width="1383.75833333" height="235.0" xmlns="http://www.w3.org/2000/svg" version="1.1">
<path d="M 0.0 235.0 L 1383.75833333 235.0 L 1383.75833333 0.0 L 0.0 0.0 L 0.0 235.0" stroke="#000000" fill="none" stroke-width="3px" />
<path d="M 10.0 257.5 L 0.0 247.5 L 10.0 237.5" stroke="#969696" fill="none" stroke-width="1px" />
<path d="M 10.0 237.5 L 1373.75833333 237.5" stroke="#969696" fill="none" stroke-width="1px" />
<path d="M 1373.75833333 237.5 L 1383.75833333 227.5 L 1373.75833333 217.5" stroke="#969696" fill="none" stroke-width="1px" />
<path d="M 1373.75833333 217.5 L 10.0 217.5" stroke="#969696" fill="none" stroke-width="1px" />
<path d="M 10.0 217.5 L 0.0 207.5 L 10.0 197.5" stroke="#969696" fill="none" stroke-width="1px" />
<path d="M 10.0 197.5 L 1373.75833333 197.5" stroke="#969696" fill="none" stroke-width="1px" />
<path d="M 1373.75833333 197.5 L 1383.75833333 187.5 L 1373.75833333 177.5" stroke="#969696" fill="none" stroke-width="1px" />
<path d="M 1373.75833333 177.5 L 10.0 177.5" stroke="#969696" fill="none" stroke-width="1px" />
<path d="M 10.0 177.5 L 0.0 167.5 L 10.0 157.5" stroke="#969696" fill="none" stroke-width="1px" />
<path d="M 10.0 157.5 L 1373.75833333 157.5" stroke="#969696" fill="none" stroke-width="1px" />
<path d="M 1373.75833333 157.5 L 1383.75833333 147.5 L 1373.75833333 137.5" stroke="#969696" fill="none" stroke-width="1px" />
<path d="M 1373.75833333 137.5 L 10.0 137.5" stroke="#969696" fill="none" stroke-width="1px" />
<path d="M 10.0 137.5 L 0.0 127.5 L 10.0 117.5" stroke="#969696" fill="none" stroke-width="1px" />
<path d="M 10.0 117.5 L 1373.75833333 117.5" stroke="#969696" fill="none" stroke-width="1px" />
<path d="M 1373.75833333 117.5 L 1383.75833333 107.5 L 1373.75833333 97.5" stroke="#969696" fill="none" stroke-width="1px" />
<path d="M 1373.75833333 97.5 L 10.0 97.5" stroke="#969696" fill="none" stroke-width="1px" />
<path d="M 10.0 97.5 L 0.0 87.5 L 10.0 77.5" stroke="#969696" fill="none" stroke-width="1px" />
<path d="M 10.0 77.5 L 1373.75833333 77.5" stroke="#969696" fill="none" stroke-width="1px" />
<path d="M 1373.75833333 77.5 L 1383.75833333 67.5 L 1373.75833333 57.5" stroke="#969696" fill="none" stroke-width="1px" />
<path d="M 1373.75833333 57.5 L 10.0 57.5" stroke="#969696" fill="none" stroke-width="1px" />
<path d="M 10.0 57.5 L 0.0 47.5 L 10.0 37.5" stroke="#969696" fill="none" stroke-width="1px" />
<path d="M 10.0 37.5 L 1373.75833333 37.5" stroke="#969696" fill="none" stroke-width="1px" />
<path d="M 1373.75833333 37.5 L 1383.75833333 27.5 L 1373.75833333 17.5" stroke="#969696" fill="none" stroke-width="1px" />
<path d="M 1373.75833333 17.5 L 10.0 17.5" stroke="#969696" fill="none" stroke-width="1px" />
<path d="M 10.0 17.5 L 0.0 7.5 L 10.0 -2.5" stroke="#969696" fill="none" stroke-width="1px" />
<path d="M 10.0 -2.5 L 1373.75833333 -2.5" stroke="#969696" fill="none" stroke-width="1px" />
<path d="M 1373.75833333 -2.5 L 1383.75833333 -12.5 L 1373.75833333 -22.5" stroke="#969696" fill="none" stroke-width="1px" />
<path d="M 0.0 235.0 L 40.0 105.0" stroke="#0095FF" fill="none" stroke-width="2px" />
<path d="M 50.0 95.0 L 50.0 65.0" stroke="#0095FF" fill="none" stroke-width="2px" />
<path d="M 60.0 65.0 L 40.0 45.0" stroke="#0095FF" fill="none" stroke-width="2px" />
<path d="M 40.0 45.0 L 300.0 35.0" stroke="#0095FF" fill="none" stroke-width="2px" />
<path d="M 380.0 -5.0 L 370.0 45.0" stroke="#0095FF" fill="none" stroke-width="2px" />
<path d="M 360.0 175.0 L 360.0 195.0" stroke="#0095FF" fill="none" stroke-width="2px" />
<path d="M 390.0 195.0 L 370.0 215.0" stroke="#0095FF" fill="none" stroke-width="2px" />
<path d="M 350.0 215.0 L 370.0 145.0" stroke="#0095FF" fill="none" stroke-width="2px" />
<path d="M 400.0 135.0 L 450.0 135.0" stroke="#0095FF" fill="none" stroke-width="2px" />
<path d="M 470.0 165.0 L 470.0 125.0" stroke="#0095FF" fill="none" stroke-width="2px" />
<path d="M 480.0 125.0 L 480.0 105.0" stroke="#0095FF" fill="none" stroke-width="2px" />
<path d="M 490.0 105.0 L 490.0 85.0" stroke="#0095FF" fill="none" stroke-width="2px" />
<path d="M 500.0 85.0 L 520.0 105.0" stroke="#0095FF" fill="none" stroke-width="2px" />
<path d="M 520.0 105.0 L 390.0 65.0" stroke="#0095FF" fill="none" stroke-width="2px" />
<path d="M 390.0 65.0 L 690.0 125.0" stroke="#0095FF" fill="none" stroke-width="2px" />
<path d="M 710.0 165.0 L 740.0 135.0" stroke="#0095FF" fill="none" stroke-width="2px" />
<path d="M 740.0 135.0 L 720.0 115.0" stroke="#0095FF" fill="none" stroke-width="2px" />
<path d="M 700.0 115.0 L 790.0 55.0" stroke="#0095FF" fill="none" stroke-width="2px" />
<path d="M 820.0 85.0 L 840.0 95.0" stroke="#0095FF" fill="none" stroke-width="2px" />
<path d="M 840.0 105.0 L 860.0 125.0" stroke="#0095FF" fill="none" stroke-width="2px" />
<path d="M 890.0 155.0 L 880.0 175.0" stroke="#0095FF" fill="none" stroke-width="2px" />
<path d="M 860.0 235.0 L 890.0 195.0" stroke="#0095FF" fill="none" stroke-width="2px" />
<path d="M 890.0 195.0 L 880.0 135.0" stroke="#0095FF" fill="none" stroke-width="2px" />
<path d="M 880.0 135.0 L 880.0 65.0" stroke="#0095FF" fill="none" stroke-width="2px" />
<path d="M 880.0 65.0 L 870.0 45.0" stroke="#0095FF" fill="none" stroke-width="2px" />
<path d="M 40.0 105.0 L 40.0 95.0" stroke="#FF0000" fill="none" stroke-width="4px" />
<path d="M 40.0 95.0 L 30.0 95.0" stroke="#FF0000" fill="none" stroke-width="4px" />
<path d="M 30.0 95.0 L 30.0 85.0" stroke="#FF0000" fill="none" stroke-width="4px" />
<path d="M 30.0 85.0 L 20.0 85.0" stroke="#FF0000" fill="none" stroke-width="4px" />
<path d="M 20.0 85.0 L 20.0 75.0" stroke="#FF0000" fill="none" stroke-width="4px" />
<path d="M 20.0 75.0 L 30.0 75.0" stroke="#FF0000" fill="none" stroke-width="4px" />
<path d="M 30.0 75.0 L 40.0 75.0" stroke="#FF0000" fill="none" stroke-width="4px" />
<path d="M 40.0 75.0 L 50.0 75.0" stroke="#FF0000" fill="none" stroke-width="4px" />
<path d="M 50.0 75.0 L 60.0 75.0" stroke="#FF0000" fill="none" stroke-width="4px" />
<path d="M 60.0 75.0 L 60.0 85.0" stroke="#FF0000" fill="none" stroke-width="4px" />
<path d="M 60.0 85.0 L 50.0 85.0" stroke="#FF0000" fill="none" stroke-width="4px" />
<path d="M 50.0 85.0 L 40.0 85.0" stroke="#FF0000" fill="none" stroke-width="4px" />
<path d="M 40.0 85.0 L 50.0 95.0" stroke="#FF0000" fill="none" stroke-width="4px" />
<path d="M 50.0 65.0 L 40.0 65.0" stroke="#FF0000" fill="none" stroke-width="4px" />
<path d="M 40.0 65.0 L 30.0 65.0" stroke="#FF0000" fill="none" stroke-width="4px" />
<path d="M 30.0 65.0 L 20.0 65.0" stroke="#FF0000" fill="none" stroke-width="4px" />
<path d="M 20.0 65.0 L 30.0 55.0" stroke="#FF0000" fill="none" stroke-width="4px" />
<path d="M 30.0 55.0 L 40.0 55.0" stroke="#FF0000" fill="none" stroke-width="4px" />
<path d="M 40.0 55.0 L 50.0 55.0" stroke="#FF0000" fill="none" stroke-width="4px" />
<path d="M 50.0 55.0 L 60.0 65.0" stroke="#FF0000" fill="none" stroke-width="4px" />
<path d="M 300.0 35.0 L 310.0 35.0" stroke="#FF0000" fill="none" stroke-width="4px" />
<path d="M 310.0 35.0 L 320.0 35.0" stroke="#FF0000" fill="none" stroke-width="4px" />
<path d="M 320.0 35.0 L 330.0 35.0" stroke="#FF0000" fill="none" stroke-width="4px" />
<path d="M 330.0 35.0 L 340.0 35.0" stroke="#FF0000" fill="none" stroke-width="4px" />
<path d="M 340.0 35.0 L 350.0 35.0" stroke="#FF0000" fill="none" stroke-width="4px" />
<path d="M 350.0 35.0 L 360.0 35.0" stroke="#FF0000" fill="none" stroke-width="4px" />
<path d="M 360.0 35.0 L 370.0 35.0" stroke="#FF0000" fill="none" stroke-width="4px" />
<path d="M 370.0 35.0 L 380.0 35.0" stroke="#FF0000" fill="none" stroke-width="4px" />
<path d="M 380.0 35.0 L 380.0 25.0" stroke="#FF0000" fill="none" stroke-width="4px" />
<path d="M 380.0 25.0 L 370.0 25.0" stroke="#FF0000" fill="none" stroke-width="4px" />
<path d="M 370.0 25.0 L 360.0 25.0" stroke="#FF0000" fill="none" stroke-width="4px" />
<path d="M 360.0 25.0 L 350.0 25.0" stroke="#FF0000" fill="none" stroke-width="4px" />
<path d="M 350.0 25.0 L 340.0 25.0" stroke="#FF0000" fill="none" stroke-width="4px" />
<path d="M 340.0 25.0 L 330.0 25.0" stroke="#FF0000" fill="none" stroke-width="4px" />
<path d="M 330.0 25.0 L 320.0 25.0" stroke="#FF0000" fill="none" stroke-width="4px" />
<path d="M 320.0 25.0 L 310.0 25.0" stroke="#FF0000" fill="none" stroke-width="4px" />
<path d="M 310.0 25.0 L 310.0 15.0" stroke="#FF0000" fill="none" stroke-width="4px" />
<path d="M 310.0 15.0 L 320.0 15.0" stroke="#FF0000" fill="none" stroke-width="4px" />
<path d="M 320.0 15.0 L 330.0 15.0" stroke="#FF0000" fill="none" stroke-width="4px" />
<path d="M 330.0 15.0 L 340.0 15.0" stroke="#FF0000" fill="none" stroke-width="4px" />
<path d="M 340.0 15.0 L 350.0 15.0" stroke="#FF0000" fill="none" stroke-width="4px" />
<path d="M 350.0 15.0 L 360.0 15.0" stroke="#FF0000" fill="none" stroke-width="4px" />
<path d="M 360.0 15.0 L 370.0 15.0" stroke="#FF0000" fill="none" stroke-width="4px" />
<path d="M 370.0 15.0 L 380.0 15.0" stroke="#FF0000" fill="none" stroke-width="4px" />
<path d="M 380.0 15.0 L 390.0 15.0" stroke="#FF0000" fill="none" stroke-width="4px" />
<path d="M 390.0 15.0 L 380.0 5.0" stroke="#FF0000" fill="none" stroke-width="4px" />
<path d="M 380.0 5.0 L 370.0 5.0" stroke="#FF0000" fill="none" stroke-width="4px" />
<path d="M 370.0 5.0 L 360.0 5.0" stroke="#FF0000" fill="none" stroke-width="4px" />
<path d="M 360.0 5.0 L 350.0 5.0" stroke="#FF0000" fill="none" stroke-width="4px" />
<path d="M 350.0 5.0 L 340.0 5.0" stroke="#FF0000" fill="none" stroke-width="4px" />
<path d="M 340.0 5.0 L 330.0 5.0" stroke="#FF0000" fill="none" stroke-width="4px" />
<path d="M 330.0 5.0 L 320.0 5.0" stroke="#FF0000" fill="none" stroke-width="4px" />
<path d="M 320.0 5.0 L 320.0 -5.0" stroke="#FF0000" fill="none" stroke-width="4px" />
<path d="M 320.0 -5.0 L 330.0 -5.0" stroke="#FF0000" fill="none" stroke-width="4px" />
<path d="M 330.0 -5.0 L 340.0 -5.0" stroke="#FF0000" fill="none" stroke-width="4px" />
<path d="M 340.0 -5.0 L 350.0 -5.0" stroke="#FF0000" fill="none" stroke-width="4px" />
<path d="M 350.0 -5.0 L 360.0 -5.0" stroke="#FF0000" fill="none" stroke-width="4px" />
<path d="M 360.0 -5.0 L 370.0 -5.0" stroke="#FF0000" fill="none" stroke-width="4px" />
<path d="M 370.0 -5.0 L 380.0 -5.0" stroke="#FF0000" fill="none" stroke-width="4px" />
<path d="M 370.0 45.0 L 360.0 45.0" stroke="#FF0000" fill="none" stroke-width="4px" />
<path d="M 360.0 45.0 L 350.0 45.0" stroke="#FF0000" fill="none" stroke-width="4px" />
<path d="M 350.0 45.0 L 340.0 45.0" stroke="#FF0000" fill="none" stroke-width="4px" />
<path d="M 340.0 45.0 L 330.0 45.0" stroke="#FF0000" fill="none" stroke-width="4px" />
<path d="M 330.0 45.0 L 320.0 45.0" stroke="#FF0000" fill="none" stroke-width="4px" />
<path d="M 320.0 45.0 L 310.0 45.0" stroke="#FF0000" fill="none" stroke-width="4px" />
<path d="M 310.0 45.0 L 320.0 55.0" stroke="#FF0000" fill="none" stroke-width="4px" />
<path d="M 320.0 55.0 L 330.0 55.0" stroke="#FF0000" fill="none" stroke-width="4px" />
<path d="M 330.0 55.0 L 340.0 55.0" stroke="#FF0000" fill="none" stroke-width="4px" />
<path d="M 340.0 55.0 L 350.0 55.0" stroke="#FF0000" fill="none" stroke-width="4px" />
<path d="M 350.0 55.0 L 360.0 55.0" stroke="#FF0000" fill="none" stroke-width="4px" />
<path d="M 360.0 55.0 L 370.0 55.0" stroke="#FF0000" fill="none" stroke-width="4px" />
<path d="M 370.0 55.0 L 380.0 55.0" stroke="#FF0000" fill="none" stroke-width="4px" />
<path d="M 380.0 55.0 L 380.0 65.0" stroke="#FF0000" fill="none" stroke-width="4px" />
<path d="M 380.0 65.0 L 370.0 65.0" stroke="#FF0000" fill="none" stroke-width="4px" />
<path d="M 370.0 65.0 L 360.0 65.0" stroke="#FF0000" fill="none" stroke-width="4px" />
<path d="M 360.0 65.0 L 350.0 65.0" stroke="#FF0000" fill="none" stroke-width="4px" />
<path d="M 350.0 65.0 L 340.0 65.0" stroke="#FF0000" fill="none" stroke-width="4px" />
<path d="M 340.0 65.0 L 330.0 65.0" stroke="#FF0000" fill="none" stroke-width="4px" />
<path d="M 330.0 65.0 L 320.0 65.0" stroke="#FF0000" fill="none" stroke-width="4px" />
<path d="M 320.0 65.0 L 320.0 75.0" stroke="#FF0000" fill="none" stroke-width="4px" />
<path d="M 320.0 75.0 L 330.0 75.0" stroke="#FF0000" fill="none" stroke-width="4px" />
<path d="M 330.0 75.0 L 340.0 75.0" stroke="#FF0000" fill="none" stroke-width="4px" />
<path d="M 340.0 75.0 L 350.0 75.0" stroke="#FF0000" fill="none" stroke-width="4px" />
<path d="M 350.0 75.0 L 360.0 75.0" stroke="#FF0000" fill="none" stroke-width="4px" />
<path d="M 360.0 75.0 L 370.0 75.0" stroke="#FF0000" fill="none" stroke-width="4px" />
<path d="M 370.0 75.0 L 380.0 75.0" stroke="#FF0000" fill="none" stroke-width="4px" />
<path d="M 380.0 75.0 L 390.0 75.0" stroke="#FF0000" fill="none" stroke-width="4px" />
<path d="M 390.0 75.0 L 400.0 75.0" stroke="#FF0000" fill="none" stroke-width="4px" />
<path d="M 400.0 75.0 L 400.0 85.0" stroke="#FF0000" fill="none" stroke-width="4px" />
<path d="M 400.0 85.0 L 390.0 85.0" stroke="#FF0000" fill="none" stroke-width="4px" />
<path d="M 390.0 85.0 L 380.0 85.0" stroke="#FF0000" fill="none" stroke-width="4px" />
<path d="M 380.0 85.0 L 370.0 85.0" stroke="#FF0000" fill="none" stroke-width="4px" />
<path d="M 370.0 85.0 L 360.0 85.0" stroke="#FF0000" fill="none" stroke-width="4px" />
<path d="M 360.0 85.0 L 350.0 85.0" stroke="#FF0000" fill="none" stroke-width="4px" />
<path d="M 350.0 85.0 L 340.0 85.0" stroke="#FF0000" fill="none" stroke-width="4px" />
<path d="M 340.0 85.0 L 330.0 85.0" stroke="#FF0000" fill="none" stroke-width="4px" />
<path d="M 330.0 85.0 L 320.0 85.0" stroke="#FF0000" fill="none" stroke-width="4px" />
<path d="M 320.0 85.0 L 330.0 95.0" stroke="#FF0000" fill="none" stroke-width="4px" />
<path d="M 330.0 95.0 L 340.0 95.0" stroke="#FF0000" fill="none" stroke-width="4px" />
<path d="M 340.0 95.0 L 350.0 95.0" stroke="#FF0000" fill="none" stroke-width="4px" />
<path d="M 350.0 95.0 L 360.0 95.0" stroke="#FF0000" fill="none" stroke-width="4px" />
<path d="M 360.0 95.0 L 370.0 95.0" stroke="#FF0000" fill="none" stroke-width="4px" />
<path d="M 370.0 95.0 L 380.0 95.0" stroke="#FF0000" fill="none" stroke-width="4px" />
<path d="M 380.0 95.0 L 390.0 95.0" stroke="#FF0000" fill="none" stroke-width="4px" />
<path d="M 390.0 95.0 L 400.0 95.0" stroke="#FF0000" fill="none" stroke-width="4px" />
<path d="M 400.0 95.0 L 390.0 105.0" stroke="#FF0000" fill="none" stroke-width="4px" />
<path d="M 390.0 105.0 L 380.0 105.0" stroke="#FF0000" fill="none" stroke-width="4px" />
<path d="M 380.0 105.0 L 370.0 105.0" stroke="#FF0000" fill="none" stroke-width="4px" />
<path d="M 370.0 105.0 L 360.0 105.0" stroke="#FF0000" fill="none" stroke-width="4px" />
<path d="M 360.0 105.0 L 350.0 105.0" stroke="#FF0000" fill="none" stroke-width="4px" />
<path d="M 350.0 105.0 L 340.0 105.0" stroke="#FF0000" fill="none" stroke-width="4px" />
<path d="M 340.0 105.0 L 350.0 115.0" stroke="#FF0000" fill="none" stroke-width="4px" />
<path d="M 350.0 115.0 L 360.0 115.0" stroke="#FF0000" fill="none" stroke-width="4px" />
<path d="M 360.0 115.0 L 370.0 115.0" stroke="#FF0000" fill="none" stroke-width="4px" />
<path d="M 370.0 115.0 L 380.0 115.0" stroke="#FF0000" fill="none" stroke-width="4px" />
<path d="M 380.0 115.0 L 380.0 125.0" stroke="#FF0000" fill="none" stroke-width="4px" />
<path d="M 380.0 125.0 L 390.0 125.0" stroke="#FF0000" fill="none" stroke-width="4px" />
<path d="M 390.0 125.0 L 390.0 135.0" stroke="#FF0000" fill="none" stroke-width="4px" />
<path d="M 390.0 135.0 L 380.0 135.0" stroke="#FF0000" fill="none" stroke-width="4px" />
<path d="M 380.0 135.0 L 370.0 135.0" stroke="#FF0000" fill="none" stroke-width="4px" />
<path d="M 370.0 135.0 L 360.0 135.0" stroke="#FF0000" fill="none" stroke-width="4px" />
<path d="M 360.0 135.0 L 360.0 145.0" stroke="#FF0000" fill="none" stroke-width="4px" />
<path d="M 360.0 145.0 L 350.0 145.0" stroke="#FF0000" fill="none" stroke-width="4px" />
<path d="M 350.0 145.0 L 350.0 155.0" stroke="#FF0000" fill="none" stroke-width="4px" />
<path d="M 350.0 155.0 L 360.0 155.0" stroke="#FF0000" fill="none" stroke-width="4px" />
<path d="M 360.0 155.0 L 370.0 155.0" stroke="#FF0000" fill="none" stroke-width="4px" />
<path d="M 370.0 155.0 L 380.0 155.0" stroke="#FF0000" fill="none" stroke-width="4px" />
<path d="M 380.0 155.0 L 390.0 155.0" stroke="#FF0000" fill="none" stroke-width="4px" />
<path d="M 390.0 155.0 L 400.0 155.0" stroke="#FF0000" fill="none" stroke-width="4px" />
<path d="M 400.0 155.0 L 410.0 155.0" stroke="#FF0000" fill="none" stroke-width="4px" />
<path d="M 410.0 155.0 L 410.0 165.0" stroke="#FF0000" fill="none" stroke-width="4px" />
<path d="M 410.0 165.0 L 400.0 165.0" stroke="#FF0000" fill="none" stroke-width="4px" />
<path d="M 400.0 165.0 L 390.0 165.0" stroke="#FF0000" fill="none" stroke-width="4px" />
<path d="M 390.0 165.0 L 380.0 165.0" stroke="#FF0000" fill="none" stroke-width="4px" />
<path d="M 380.0 165.0 L 370.0 165.0" stroke="#FF0000" fill="none" stroke-width="4px" />
<path d="M 370.0 165.0 L 360.0 165.0" stroke="#FF0000" fill="none" stroke-width="4px" />
<path d="M 360.0 165.0 L 350.0 165.0" stroke="#FF0000" fill="none" stroke-width="4px" />
<path d="M 350.0 165.0 L 350.0 175.0" stroke="#FF0000" fill="none" stroke-width="4px" />
<path d="M 350.0 175.0 L 340.0 175.0" stroke="#FF0000" fill="none" stroke-width="4px" />
<path d="M 340.0 175.0 L 340.0 185.0" stroke="#FF0000" fill="none" stroke-width="4px" />
<path d="M 340.0 185.0 L 350.0 185.0" stroke="#FF0000" fill="none" stroke-width="4px" />
<path d="M 350.0 185.0 L 360.0 185.0" stroke="#FF0000" fill="none" stroke-width="4px" />
<path d="M 360.0 185.0 L 370.0 185.0" stroke="#FF0000" fill="none" stroke-width="4px" />
<path d="M 370.0 185.0 L 380.0 185.0" stroke="#FF0000" fill="none" stroke-width="4px" />
<path d="M 380.0 185.0 L 390.0 185.0" stroke="#FF0000" fill="none" stroke-width="4px" />
<path d="M 390.0 185.0 L 400.0 185.0" stroke="#FF0000" fill="none" stroke-width="4px" />
<path d="M 400.0 185.0 L 400.0 175.0" stroke="#FF0000" fill="none" stroke-width="4px" />
<path d="M 400.0 175.0 L 390.0 175.0" stroke="#FF0000" fill="none" stroke-width="4px" />
<path d="M 390.0 175.0 L 380.0 175.0" stroke="#FF0000" fill="none" stroke-width="4px" />
<path d="M 380.0 175.0 L 370.0 175.0" stroke="#FF0000" fill="none" stroke-width="4px" />
<path d="M 370.0 175.0 L 360.0 175.0" stroke="#FF0000" fill="none" stroke-width="4px" />
<path d="M 360.0 195.0 L 350.0 195.0" stroke="#FF0000" fill="none" stroke-width="4px" />
<path d="M 350.0 195.0 L 340.0 195.0" stroke="#FF0000" fill="none" stroke-width="4px" />
<path d="M 340.0 195.0 L 340.0 205.0" stroke="#FF0000" fill="none" stroke-width="4px" />
<path d="M 340.0 205.0 L 350.0 205.0" stroke="#FF0000" fill="none" stroke-width="4px" />
<path d="M 350.0 205.0 L 360.0 205.0" stroke="#FF0000" fill="none" stroke-width="4px" />
<path d="M 360.0 205.0 L 370.0 205.0" stroke="#FF0000" fill="none" stroke-width="4px" />
<path d="M 370.0 205.0 L 380.0 205.0" stroke="#FF0000" fill="none" stroke-width="4px" />
<path d="M 380.0 205.0 L 380.0 195.0" stroke="#FF0000" fill="none" stroke-width="4px" />
<path d="M 380.0 195.0 L 370.0 195.0" stroke="#FF0000" fill="none" stroke-width="4px" />
<path d="M 370.0 195.0 L 390.0 195.0" stroke="#FF0000" fill="none" stroke-width="4px" />
<path d="M 370.0 215.0 L 360.0 215.0" stroke="#FF0000" fill="none" stroke-width="4px" />
<path d="M 360.0 215.0 L 350.0 215.0" stroke="#FF0000" fill="none" stroke-width="4px" />
<path d="M 370.0 145.0 L 380.0 145.0" stroke="#FF0000" fill="none" stroke-width="4px" />
<path d="M 380.0 145.0 L 390.0 145.0" stroke="#FF0000" fill="none" stroke-width="4px" />
<path d="M 390.0 145.0 L 400.0 145.0" stroke="#FF0000" fill="none" stroke-width="4px" />
<path d="M 400.0 145.0 L 410.0 145.0" stroke="#FF0000" fill="none" stroke-width="4px" />
<path d="M 410.0 145.0 L 400.0 135.0" stroke="#FF0000" fill="none" stroke-width="4px" />
<path d="M 450.0 135.0 L 460.0 135.0" stroke="#FF0000" fill="none" stroke-width="4px" />
<path d="M 460.0 135.0 L 470.0 135.0" stroke="#FF0000" fill="none" stroke-width="4px" />
<path d="M 470.0 135.0 L 480.0 135.0" stroke="#FF0000" fill="none" stroke-width="4px" />
<path d="M 480.0 135.0 L 490.0 135.0" stroke="#FF0000" fill="none" stroke-width="4px" />
<path d="M 490.0 135.0 L 500.0 135.0" stroke="#FF0000" fill="none" stroke-width="4px" />
<path d="M 500.0 135.0 L 510.0 135.0" stroke="#FF0000" fill="none" stroke-width="4px" />
<path d="M 510.0 135.0 L 510.0 145.0" stroke="#FF0000" fill="none" stroke-width="4px" />
<path d="M 510.0 145.0 L 500.0 145.0" stroke="#FF0000" fill="none" stroke-width="4px" />
<path d="M 500.0 145.0 L 490.0 145.0" stroke="#FF0000" fill="none" stroke-width="4px" />
<path d="M 490.0 145.0 L 480.0 145.0" stroke="#FF0000" fill="none" stroke-width="4px" />
<path d="M 480.0 145.0 L 470.0 145.0" stroke="#FF0000" fill="none" stroke-width="4px" />
<path d="M 470.0 145.0 L 460.0 145.0" stroke="#FF0000" fill="none" stroke-width="4px" />
<path d="M 460.0 145.0 L 450.0 145.0" stroke="#FF0000" fill="none" stroke-width="4px" />
<path d="M 450.0 145.0 L 460.0 155.0" stroke="#FF0000" fill="none" stroke-width="4px" />
<path d="M 460.0 155.0 L 470.0 155.0" stroke="#FF0000" fill="none" stroke-width="4px" />
<path d="M 470.0 155.0 L 480.0 155.0" stroke="#FF0000" fill="none" stroke-width="4px" />
<path d="M 480.0 155.0 L 490.0 155.0" stroke="#FF0000" fill="none" stroke-width="4px" />
<path d="M 490.0 155.0 L 500.0 155.0" stroke="#FF0000" fill="none" stroke-width="4px" />
<path d="M 500.0 155.0 L 490.0 165.0" stroke="#FF0000" fill="none" stroke-width="4px" />
<path d="M 490.0 165.0 L 480.0 165.0" stroke="#FF0000" fill="none" stroke-width="4px" />
<path d="M 480.0 165.0 L 470.0 165.0" stroke="#FF0000" fill="none" stroke-width="4px" />
<path d="M 470.0 125.0 L 460.0 125.0" stroke="#FF0000" fill="none" stroke-width="4px" />
<path d="M 460.0 125.0 L 450.0 125.0" stroke="#FF0000" fill="none" stroke-width="4px" />
<path d="M 450.0 125.0 L 460.0 115.0" stroke="#FF0000" fill="none" stroke-width="4px" />
<path d="M 460.0 115.0 L 470.0 115.0" stroke="#FF0000" fill="none" stroke-width="4px" />
<path d="M 470.0 115.0 L 480.0 115.0" stroke="#FF0000" fill="none" stroke-width="4px" />
<path d="M 480.0 115.0 L 490.0 115.0" stroke="#FF0000" fill="none" stroke-width="4px" />
<path d="M 490.0 115.0 L 500.0 115.0" stroke="#FF0000" fill="none" stroke-width="4px" />
<path d="M 500.0 115.0 L 510.0 115.0" stroke="#FF0000" fill="none" stroke-width="4px" />
<path d="M 510.0 115.0 L 520.0 115.0" stroke="#FF0000" fill="none" stroke-width="4px" />
<path d="M 520.0 115.0 L 520.0 125.0" stroke="#FF0000" fill="none" stroke-width="4px" />
<path d="M 520.0 125.0 L 510.0 125.0" stroke="#FF0000" fill="none" stroke-width="4px" />
<path d="M 510.0 125.0 L 500.0 125.0" stroke="#FF0000" fill="none" stroke-width="4px" />
<path d="M 500.0 125.0 L 490.0 125.0" stroke="#FF0000" fill="none" stroke-width="4px" />
<path d="M 490.0 125.0 L 480.0 125.0" stroke="#FF0000" fill="none" stroke-width="4px" />
<path d="M 480.0 105.0 L 470.0 105.0" stroke="#FF0000" fill="none" stroke-width="4px" />
<path d="M 470.0 105.0 L 480.0 95.0" stroke="#FF0000" fill="none" stroke-width="4px" />
<path d="M 480.0 95.0 L 490.0 95.0" stroke="#FF0000" fill="none" stroke-width="4px" />
<path d="M 490.0 95.0 L 500.0 95.0" stroke="#FF0000" fill="none" stroke-width="4px" />
<path d="M 500.0 95.0 L 510.0 95.0" stroke="#FF0000" fill="none" stroke-width="4px" />
<path d="M 510.0 95.0 L 510.0 105.0" stroke="#FF0000" fill="none" stroke-width="4px" />
<path d="M 510.0 105.0 L 500.0 105.0" stroke="#FF0000" fill="none" stroke-width="4px" />
<path d="M 500.0 105.0 L 490.0 105.0" stroke="#FF0000" fill="none" stroke-width="4px" />
<path d="M 490.0 85.0 L 500.0 85.0" stroke="#FF0000" fill="none" stroke-width="4px" />
<path d="M 690.0 125.0 L 700.0 125.0" stroke="#FF0000" fill="none" stroke-width="4px" />
<path d="M 700.0 125.0 L 710.0 125.0" stroke="#FF0000" fill="none" stroke-width="4px" />
<path d="M 710.0 125.0 L 720.0 125.0" stroke="#FF0000" fill="none" stroke-width="4px" />
<path d="M 720.0 125.0 L 730.0 125.0" stroke="#FF0000" fill="none" stroke-width="4px" />
<path d="M 730.0 125.0 L 730.0 135.0" stroke="#FF0000" fill="none" stroke-width="4px" />
<path d="M 730.0 135.0 L 720.0 135.0" stroke="#FF0000" fill="none" stroke-width="4px" />
<path d="M 720.0 135.0 L 710.0 135.0" stroke="#FF0000" fill="none" stroke-width="4px" />
<path d="M 710.0 135.0 L 700.0 135.0" stroke="#FF0000" fill="none" stroke-width="4px" />
<path d="M 700.0 135.0 L 690.0 135.0" stroke="#FF0000" fill="none" stroke-width="4px" />
<path d="M 690.0 135.0 L 690.0 145.0" stroke="#FF0000" fill="none" stroke-width="4px" />
<path d="M 690.0 145.0 L 700.0 145.0" stroke="#FF0000" fill="none" stroke-width="4px" />
<path d="M 700.0 145.0 L 710.0 145.0" stroke="#FF0000" fill="none" stroke-width="4px" />
<path d="M 710.0 145.0 L 720.0 145.0" stroke="#FF0000" fill="none" stroke-width="4px" />
<path d="M 720.0 145.0 L 730.0 145.0" stroke="#FF0000" fill="none" stroke-width="4px" />
<path d="M 730.0 145.0 L 720.0 155.0" stroke="#FF0000" fill="none" stroke-width="4px" />
<path d="M 720.0 155.0 L 710.0 155.0" stroke="#FF0000" fill="none" stroke-width="4px" />
<path d="M 710.0 155.0 L 700.0 155.0" stroke="#FF0000" fill="none" stroke-width="4px" />
<path d="M 700.0 155.0 L 710.0 165.0" stroke="#FF0000" fill="none" stroke-width="4px" />
<path d="M 720.0 115.0 L 710.0 115.0" stroke="#FF0000" fill="none" stroke-width="4px" />
<path d="M 710.0 115.0 L 700.0 115.0" stroke="#FF0000" fill="none" stroke-width="4px" />
<path d="M 790.0 55.0 L 800.0 55.0" stroke="#FF0000" fill="none" stroke-width="4px" />
<path d="M 800.0 55.0 L 810.0 55.0" stroke="#FF0000" fill="none" stroke-width="4px" />
<path d="M 810.0 55.0 L 820.0 55.0" stroke="#FF0000" fill="none" stroke-width="4px" />
<path d="M 820.0 55.0 L 830.0 55.0" stroke="#FF0000" fill="none" stroke-width="4px" />
<path d="M 830.0 55.0 L 840.0 55.0" stroke="#FF0000" fill="none" stroke-width="4px" />
<path d="M 840.0 55.0 L 850.0 55.0" stroke="#FF0000" fill="none" stroke-width="4px" />
<path d="M 850.0 55.0 L 860.0 55.0" stroke="#FF0000" fill="none" stroke-width="4px" />
<path d="M 860.0 55.0 L 870.0 55.0" stroke="#FF0000" fill="none" stroke-width="4px" />
<path d="M 870.0 55.0 L 870.0 65.0" stroke="#FF0000" fill="none" stroke-width="4px" />
<path d="M 870.0 65.0 L 860.0 65.0" stroke="#FF0000" fill="none" stroke-width="4px" />
<path d="M 860.0 65.0 L 850.0 65.0" stroke="#FF0000" fill="none" stroke-width="4px" />
<path d="M 850.0 65.0 L 840.0 65.0" stroke="#FF0000" fill="none" stroke-width="4px" />
<path d="M 840.0 65.0 L 830.0 65.0" stroke="#FF0000" fill="none" stroke-width="4px" />
<path d="M 830.0 65.0 L 820.0 65.0" stroke="#FF0000" fill="none" stroke-width="4px" />
<path d="M 820.0 65.0 L 810.0 65.0" stroke="#FF0000" fill="none" stroke-width="4px" />
<path d="M 810.0 65.0 L 820.0 75.0" stroke="#FF0000" fill="none" stroke-width="4px" />
<path d="M 820.0 75.0 L 830.0 75.0" stroke="#FF0000" fill="none" stroke-width="4px" />
<path d="M 830.0 75.0 L 840.0 75.0" stroke="#FF0000" fill="none" stroke-width="4px" />
<path d="M 840.0 75.0 L 850.0 75.0" stroke="#FF0000" fill="none" stroke-width="4px" />
<path d="M 850.0 75.0 L 860.0 75.0" stroke="#FF0000" fill="none" stroke-width="4px" />
<path d="M 860.0 75.0 L 870.0 75.0" stroke="#FF0000" fill="none" stroke-width="4px" />
<path d="M 870.0 75.0 L 880.0 75.0" stroke="#FF0000" fill="none" stroke-width="4px" />
<path d="M 880.0 75.0 L 880.0 85.0" stroke="#FF0000" fill="none" stroke-width="4px" />
<path d="M 880.0 85.0 L 870.0 85.0" stroke="#FF0000" fill="none" stroke-width="4px" />
<path d="M 870.0 85.0 L 860.0 85.0" stroke="#FF0000" fill="none" stroke-width="4px" />
<path d="M 860.0 85.0 L 850.0 85.0" stroke="#FF0000" fill="none" stroke-width="4px" />
<path d="M 850.0 85.0 L 840.0 85.0" stroke="#FF0000" fill="none" stroke-width="4px" />
<path d="M 840.0 85.0 L 830.0 85.0" stroke="#FF0000" fill="none" stroke-width="4px" />
<path d="M 830.0 85.0 L 820.0 85.0" stroke="#FF0000" fill="none" stroke-width="4px" />
<path d="M 840.0 95.0 L 850.0 95.0" stroke="#FF0000" fill="none" stroke-width="4px" />
<path d="M 850.0 95.0 L 860.0 95.0" stroke="#FF0000" fill="none" stroke-width="4px" />
<path d="M 860.0 95.0 L 870.0 95.0" stroke="#FF0000" fill="none" stroke-width="4px" />
<path d="M 870.0 95.0 L 860.0 105.0" stroke="#FF0000" fill="none" stroke-width="4px" />
<path d="M 860.0 105.0 L 850.0 105.0" stroke="#FF0000" fill="none" stroke-width="4px" />
<path d="M 850.0 105.0 L 840.0 105.0" stroke="#FF0000" fill="none" stroke-width="4px" />
<path d="M 860.0 125.0 L 870.0 125.0" stroke="#FF0000" fill="none" stroke-width="4px" />
<path d="M 870.0 125.0 L 870.0 135.0" stroke="#FF0000" fill="none" stroke-width="4px" />
<path d="M 870.0 135.0 L 860.0 135.0" stroke="#FF0000" fill="none" stroke-width="4px" />
<path d="M 860.0 135.0 L 850.0 135.0" stroke="#FF0000" fill="none" stroke-width="4px" />
<path d="M 850.0 135.0 L 850.0 145.0" stroke="#FF0000" fill="none" stroke-width="4px" />
<path d="M 850.0 145.0 L 860.0 145.0" stroke="#FF0000" fill="none" stroke-width="4px" />
<path d="M 860.0 145.0 L 870.0 145.0" stroke="#FF0000" fill="none" stroke-width="4px" />
<path d="M 870.0 145.0 L 880.0 145.0" stroke="#FF0000" fill="none" stroke-width="4px" />
<path d="M 880.0 145.0 L 880.0 155.0" stroke="#FF0000" fill="none" stroke-width="4px" />
<path d="M 880.0 155.0 L 870.0 155.0" stroke="#FF0000" fill="none" stroke-width="4px" />
<path d="M 870.0 155.0 L 860.0 155.0" stroke="#FF0000" fill="none" stroke-width="4px" />
<path d="M 860.0 155.0 L 850.0 155.0" stroke="#FF0000" fill="none" stroke-width="4px" />
<path d="M 850.0 155.0 L 840.0 155.0" stroke="#FF0000" fill="none" stroke-width="4px" />
<path d="M 840.0 155.0 L 840.0 165.0" stroke="#FF0000" fill="none" stroke-width="4px" />
<path d="M 840.0 165.0 L 850.0 165.0" stroke="#FF0000" fill="none" stroke-width="4px" />
<path d="M 850.0 165.0 L 860.0 165.0" stroke="#FF0000" fill="none" stroke-width="4px" />
<path d="M 860.0 165.0 L 870.0 165.0" stroke="#FF0000" fill="none" stroke-width="4px" />
<path d="M 870.0 165.0 L 880.0 165.0" stroke="#FF0000" fill="none" stroke-width="4px" />
<path d="M 880.0 165.0 L 890.0 165.0" stroke="#FF0000" fill="none" stroke-width="4px" />
<path d="M 890.0 165.0 L 890.0 155.0" stroke="#FF0000" fill="none" stroke-width="4px" />
<path d="M 880.0 175.0 L 870.0 175.0" stroke="#FF0000" fill="none" stroke-width="4px" />
<path d="M 870.0 175.0 L 860.0 175.0" stroke="#FF0000" fill="none" stroke-width="4px" />
<path d="M 860.0 175.0 L 850.0 175.0" stroke="#FF0000" fill="none" stroke-width="4px" />
<path d="M 850.0 175.0 L 850.0 185.0" stroke="#FF0000" fill="none" stroke-width="4px" />
<path d="M 850.0 185.0 L 860.0 185.0" stroke="#FF0000" fill="none" stroke-width="4px" />
<path d="M 860.0 185.0 L 870.0 185.0" stroke="#FF0000" fill="none" stroke-width="4px" />
<path d="M 870.0 185.0 L 880.0 185.0" stroke="#FF0000" fill="none" stroke-width="4px" />
<path d="M 880.0 185.0 L 880.0 195.0" stroke="#FF0000" fill="none" stroke-width="4px" />
<path d="M 880.0 195.0 L 870.0 195.0" stroke="#FF0000" fill="none" stroke-width="4px" />
<path d="M 870.0 195.0 L 860.0 195.0" stroke="#FF0000" fill="none" stroke-width="4px" />
<path d="M 860.0 195.0 L 850.0 195.0" stroke="#FF0000" fill="none" stroke-width="4px" />
<path d="M 850.0 195.0 L 840.0 195.0" stroke="#FF0000" fill="none" stroke-width="4px" />
<path d="M 840.0 195.0 L 840.0 205.0" stroke="#FF0000" fill="none" stroke-width="4px" />
<path d="M 840.0 205.0 L 850.0 205.0" stroke="#FF0000" fill="none" stroke-width="4px" />
<path d="M 850.0 205.0 L 860.0 205.0" stroke="#FF0000" fill="none" stroke-width="4px" />
<path d="M 860.0 205.0 L 870.0 205.0" stroke="#FF0000" fill="none" stroke-width="4px" />
<path d="M 870.0 205.0 L 880.0 205.0" stroke="#FF0000" fill="none" stroke-width="4px" />
<path d="M 880.0 205.0 L 890.0 205.0" stroke="#FF0000" fill="none" stroke-width="4px" />
<path d="M 890.0 205.0 L 890.0 215.0" stroke="#FF0000" fill="none" stroke-width="4px" />
<path d="M 890.0 215.0 L 880.0 215.0" stroke="#FF0000" fill="none" stroke-width="4px" />
<path d="M 880.0 215.0 L 870.0 215.0" stroke="#FF0000" fill="none" stroke-width="4px" />
<path d="M 870.0 215.0 L 860.0 215.0" stroke="#FF0000" fill="none" stroke-width="4px" />
<path d="M 860.0 215.0 L 850.0 215.0" stroke="#FF0000" fill="none" stroke-width="4px" />
<path d="M 850.0 215.0 L 850.0 225.0" stroke="#FF0000" fill="none" stroke-width="4px" />
<path d="M 850.0 225.0 L 860.0 225.0" stroke="#FF0000" fill="none" stroke-width="4px" />
<path d="M 860.0 225.0 L 870.0 225.0" stroke="#FF0000" fill="none" stroke-width="4px" />
<path d="M 870.0 225.0 L 880.0 225.0" stroke="#FF0000" fill="none" stroke-width="4px" />
<path d="M 880.0 225.0 L 890.0 225.0" stroke="#FF0000" fill="none" stroke-width="4px" />
<path d="M 890.0 225.0 L 890.0 235.0" stroke="#FF0000" fill="none" stroke-width="4px" />
<path d="M 890.0 235.0 L 880.0 235.0" stroke="#FF0000" fill="none" stroke-width="4px" />
<path d="M 880.0 235.0 L 870.0 235.0" stroke="#FF0000" fill="none" stroke-width="4px" />
<path d="M 870.0 235.0 L 860.0 235.0" stroke="#FF0000" fill="none" stroke-width="4px" />
<path d="M 870.0 45.0 L 860.0 45.0" stroke="#FF0000" fill="none" stroke-width="4px" />
<path d="M 860.0 45.0 L 850.0 45.0" stroke="#FF0000" fill="none" stroke-width="4px" />
<path d="M 850.0 45.0 L 840.0 45.0" stroke="#FF0000" fill="none" stroke-width="4px" />
<path d="M 840.0 45.0 L 830.0 45.0" stroke="#FF0000" fill="none" stroke-width="4px" />
<path d="M 830.0 45.0 L 820.0 45.0" stroke="#FF0000" fill="none" stroke-width="4px" />
<path d="M 820.0 45.0 L 810.0 45.0" stroke="#FF0000" fill="none" stroke-width="4px" />
<path d="M 810.0 45.0 L 800.0 45.0" stroke="#FF0000" fill="none" stroke-width="4px" />
<path d="M 800.0 45.0 L 790.0 45.0" stroke="#FF0000" fill="none" stroke-width="4px" />
<path d="M 790.0 45.0 L 780.0 45.0" stroke="#FF0000" fill="none" stroke-width="4px" />
<path d="M 780.0 45.0 L 780.0 35.0" stroke="#FF0000" fill="none" stroke-width="4px" />
<path d="M 780.0 35.0 L 790.0 35.0" stroke="#FF0000" fill="none" stroke-width="4px" />
<path d="M 790.0 35.0 L 800.0 35.0" stroke="#FF0000" fill="none" stroke-width="4px" />
<path d="M 800.0 35.0 L 810.0 35.0" stroke="#FF0000" fill="none" stroke-width="4px" />
<path d="M 810.0 35.0 L 820.0 35.0" stroke="#FF0000" fill="none" stroke-width="4px" />
<path d="M 820.0 35.0 L 830.0 35.0" stroke="#FF0000" fill="none" stroke-width="4px" />
<path d="M 830.0 35.0 L 840.0 35.0" stroke="#FF0000" fill="none" stroke-width="4px" />
<path d="M 840.0 35.0 L 850.0 35.0" stroke="#FF0000" fill="none" stroke-width="4px" />
<path d="M 850.0 35.0 L 860.0 35.0" stroke="#FF0000" fill="none" stroke-width="4px" />
<path d="M 860.0 35.0 L 870.0 35.0" stroke="#FF0000" fill="none" stroke-width="4px" />
<path d="M 870.0 35.0 L 870.0 25.0" stroke="#FF0000" fill="none" stroke-width="4px" />
<path d="M 870.0 25.0 L 860.0 25.0" stroke="#FF0000" fill="none" stroke-width="4px" />
<path d="M 860.0 25.0 L 850.0 25.0" stroke="#FF0000" fill="none" stroke-width="4px" />
<path d="M 850.0 25.0 L 840.0 25.0" stroke="#FF0000" fill="none" stroke-width="4px" />
<path d="M 840.0 25.0 L 830.0 25.0" stroke="#FF0000" fill="none" stroke-width="4px" />
<path d="M 830.0 25.0 L 820.0 25.0" stroke="#FF0000" fill="none" stroke-width="4px" />
<path d="M 820.0 25.0 L 810.0 25.0" stroke="#FF0000" fill="none" stroke-width="4px" />
<path d="M 810.0 25.0 L 800.0 25.0" stroke="#FF0000" fill="none" stroke-width="4px" />
<path d="M 800.0 25.0 L 790.0 25.0" stroke="#FF0000" fill="none" stroke-width="4px" />
<path d="M 790.0 25.0 L 800.0 15.0" stroke="#FF0000" fill="none" stroke-width="4px" />
<path d="M 800.0 15.0 L 820.0 15.0" stroke="#FF0000" fill="none" stroke-width="4px" />
<path d="M 820.0 15.0 L 830.0 15.0" stroke="#FF0000" fill="none" stroke-width="4px" />
<path d="M 830.0 15.0 L 840.0 15.0" stroke="#FF0000" fill="none" stroke-width="4px" />
<path d="M 840.0 15.0 L 850.0 15.0" stroke="#FF0000" fill="none" stroke-width="4px" />
<path d="M 850.0 15.0 L 860.0 15.0" stroke="#FF0000" fill="none" stroke-width="4px" />
<path d="M 860.0 15.0 L 870.0 15.0" stroke="#FF0000" fill="none" stroke-width="4px" />
<path d="M 870.0 15.0 L 870.0 5.0" stroke="#FF0000" fill="none" stroke-width="4px" />
<path d="M 870.0 5.0 L 860.0 5.0" stroke="#FF0000" fill="none" stroke-width="4px" />
<path d="M 860.0 5.0 L 850.0 5.0" stroke="#FF0000" fill="none" stroke-width="4px" />
<path d="M 850.0 5.0 L 840.0 5.0" stroke="#FF0000" fill="none" stroke-width="4px" />
<path d="M 840.0 5.0 L 830.0 5.0" stroke="#FF0000" fill="none" stroke-width="4px" />
<path d="M 830.0 5.0 L 820.0 5.0" stroke="#FF0000" fill="none" stroke-width="4px" />
<path d="M 820.0 5.0 L 830.0 -5.0" stroke="#FF0000" fill="none" stroke-width="4px" />
<path d="M 830.0 -5.0 L 840.0 -5.0" stroke="#FF0000" fill="none" stroke-width="4px" />
<path d="M 840.0 -5.0 L 850.0 -5.0" stroke="#FF0000" fill="none" stroke-width="4px" />
<path d="M 850.0 -5.0 L 860.0 -5.0" stroke="#FF0000" fill="none" stroke-width="4px" />
<path d="M 860.0 -5.0 L 870.0 -5.0" stroke="#FF0000" fill="none" stroke-width="4px" />
</svg>