<svg width="2523.06666667" height="235.0" xmlns="http://www.w3.org/2000/svg" version="1.1">
<path d="M 0.0 235.0 L 1980.0 235.0 L 1980.0 0.0 L 0.0 0.0 L 0.0 235.0" stroke="#000000" fill="none" stroke-width="3px" />
<path d="M 2523.06666667 235.0 L 1880.0 235.0 L 1880.0 0.0 L 2523.06666667 0.0 L 2523.06666667 235.0" stroke="#000000" fill="none" stroke-width="3px" />
<path d="M 10.0 257.5 L 0.0 247.5 L 10.0 237.5" stroke="#969696" fill="none" stroke-width="1px" />
<path d="M 10.0 237.5 L 1970.0 237.5" stroke="#969696" fill="none" stroke-width="1px" />
<path d="M 1970.0 237.5 L 1980.0 227.5 L 1970.0 217.5" stroke="#969696" fill="none" stroke-width="1px" />
<path d="M 1970.0 217.5 L 10.0 217.5" stroke="#969696" fill="none" stroke-width="1px" />
<path d="M 10.0 217.5 L 0.0 207.5 L 10.0 197.5" stroke="#969696" fill="none" stroke-width="1px" />
<path d="M 10.0 197.5 L 1970.0 197.5" stroke="#969696" fill="none" stroke-width="1px" />
<path d="M 1970.0 197.5 L 1980.0 187.5 L 1970.0 177.5" stroke="#969696" fill="none" stroke-width="1px" />
<path d="M 1970.0 177.5 L 10.0 177.5" stroke="#969696" fill="none" stroke-width="1px" />
<path d="M 10.0 177.5 L 0.0 167.5 L 10.0 157.5" stroke="#969696" fill="none" stroke-width="1px" />
<path d="M 10.0 157.5 L 1970.0 157.5" stroke="#969696" fill="none" stroke-width="1px" />
<path d="M 1970.0 157.5 L 1980.0 147.5 L 1970.0 137.5" stroke="#969696" fill="none" stroke-width="1px" />
<path d="M 1970.0 137.5 L 10.0 137.5" stroke="#969696" fill="none" stroke-width="1px" />
<path d="M 10.0 137.5 L 0.0 127.5 L 10.0 117.5" stroke="#969696" fill="none" stroke-width="1px" />
<path d="M 10.0 117.5 L 1970.0 117.5" stroke="#969696" fill="none" stroke-width="1px" />
<path d="M 1970.0 117.5 L 1980.0 107.5 L 1970.0 97.5" stroke="#969696" fill="none" stroke-width="1px" />
<path d="M 1970.0 97.5 L 10.0 97.5" stroke="#969696" fill="none" stroke-width="1px" />
<path d="M 10.0 97.5 L 0.0 87.5 L 10.0 77.5" stroke="#969696" fill="none" stroke-width="1px" />
<path d="M 10.0 77.5 L 1970.0 77.5" stroke="#969696" fill="none" stroke-width="1px" />
<path d="M 1970.0 77.5 L 1980.0 67.5 L 1970.0 57.5" stroke="#969696" fill="none" stroke-width="1px" />
<path d="M 1970.0 57.5 L 10.0 57.5" stroke="#969696" fill="none" stroke-width="1px" />
<path d="M 10.0 57.5 L 0.0 47.5 L 10.0 37.5" stroke="#969696" fill="none" stroke-width="1px" />
<path d="M 10.0 37.5 L 1970.0 37.5" stroke="#969696" fill="none" stroke-width="1px" />
<path d="M 1970.0 37.5 L 1980.0 27.5 L 1970.0 17.5" stroke="#969696" fill="none" stroke-width="1px" />
<path d="M 1970.0 17.5 L 10.0 17.5" stroke="#969696" fill="none" stroke-width="1px" />
<path d="M 10.0 17.5 L 0.0 7.5 L 10.0 -2.5" stroke="#969696" fill="none" stroke-width="1px" />
<path d="M 10.0 -2.5 L 1970.0 -2.5" stroke="#969696" fill="none" stroke-width="1px" />
<path d="M 1970.0 -2.5 L 1980.0 -12.5 L 1970.0 -22.5" stroke="#969696" fill="none" stroke-width="1px" />
<path d="M 2513.06666667 257.5 L 2523.06666667 247.5 L 2513.06666667 237.5" stroke="#969696" fill="none" stroke-width="1px" />
<path d="M 2513.06666667 237.5 L 1890.0 237.5" stroke="#969696" fill="none" stroke-width="1px" />
<path d="M 1890.0 237.5 L 1880.0 227.5 L 1890.0 217.5" stroke="#969696" fill="none" stroke-width="1px" />
<path d="M 1890.0 217.5 L 2513.06666667 217.5" stroke="#969696" fill="none" stroke-width="1px" />
<path d="M 2513.06666667 217.5 L 2523.06666667 207.5 L 2513.06666667 197.5" stroke="#969696" fill="none" stroke-width="1px" />
<path d="M 2513.06666667 197.5 L 1890.0 197.5" stroke="#969696" fill="none" stroke-width="1px" />
<path d="M 1890.0 197.5 L 1880.0 187.5 L 1890.0 177.5" stroke="#969696" fill="none" stroke-width="1px" />
<path d="M 1890.0 177.5 L 2513.06666667 177.5" stroke="#969696" fill="none" stroke-width="1px" />
<path d="M 2513.06666667 177.5 L 2523.06666667 167.5 L 2513.06666667 157.5" stroke="#969696" fill="none" stroke-width="1px" />
<path d="M 2513.06666667 157.5 L 1890.0 157.5" stroke="#969696" fill="none" stroke-width="1px" />
<path d="M 1890.0 157.5 L 1880.0 147.5 L 1890.0 137.5" stroke="#969696" fill="none" stroke-width="1px" />
<path d="M 1890.0 137.5 L 2513.06666667 137.5" stroke="#969696" fill="none" stroke-width="1px" />
<path d="M 2513.06666667 137.5 L 2523.06666667 127.5 L 2513.06666667 117.5" stroke="#969696" fill="none" stroke-width="1px" />
<path d="M 2513.06666667 117.5 L 1890.0 117.5" stroke="#969696" fill="none" stroke-width="1px" />
<path d="M 1890.0 117.5 L 1880.0 107.5 L 1890.0 97.5" stroke="#969696" fill="none" stroke-width="1px" />
<path d="M 1890.0 97.5 L 2513.06666667 97.5" stroke="#969696" fill="none" stroke-width="1px" />
<path d="M 2513.06666667 97.5 L 2523.06666667 87.5 L 2513.06666667 77.5" stroke="#969696" fill="none" stroke-width="1px" />
<path d="M 2513.06666667 77.5 L 1890.0 77.5" stroke="#969696" fill="none" stroke-width="1px" />
<path d="M 1890.0 77.5 L 1880.0 67.5 L 1890.0 57.5" stroke="#969696" fill="none" stroke-width="1px" />
<path d="M 1890.0 57.5 L 2513.06666667 57.5" stroke="#969696" fill="none" stroke-width="1px" />
<path d="M 2513.06666667 57.5 L 2523.06666667 47.5 L 2513.06666667 37.5" stroke="#969696" fill="none" stroke-width="1px" />
<path d="M 2513.06666667 37.5 L 1890.0 37.5" stroke="#969696" fill="none" stroke-width="1px" />
<path d="M 1890.0 37.5 L 1880.0 27.5 L 1890.0 17.5" stroke="#969696" fill="none" stroke-width="1px" />
<path d="M 1890.0 17.5 L 2513.06666667 17.5" stroke="#969696" fill="none" stroke-width="1px" />
<path d="M 2513.06666667 17.5 L 2523.06666667 7.5 L 2513.06666667 -2.5" stroke="#969696" fill="none" stroke-width="1px" />
<path d="M 2513.06666667 -2.5 L 1890.0 -2.5" stroke="#969696" fill="none" stroke-width="1px" />
<path d="M 1890.0 -2.5 L 1880.0 -12.5 L 1890.0 -22.5" stroke="#969696" fill="none" stroke-width="1px" />
<path d="M 0.0 235.0 L 410.0 195.0" stroke="#0095FF" fill="none" stroke-width="2px" />
<path d="M 420.0 165.0 L 440.0 155.0" stroke="#0095FF" fill="none" stroke-width="2px" />
<path d="M 460.0 145.0 L 490.0 185.0" stroke="#0095FF" fill="none" stroke-width="2px" />
<path d="M 490.0 185.0 L 470.0 205.0" stroke="#0095FF" fill="none" stroke-width="2px" />
<path d="M 440.0 215.0 L 1670.0 115.0" stroke="#0095FF" fill="none" stroke-width="2px" />
<path d="M 1680.0 85.0 L 1680.0 125.0" stroke="#0095FF" fill="none" stroke-width="2px" />
<path d="M 2523.06666667 235.0 L 2390.0 165.0" stroke="#0095FF" fill="none" stroke-width="2px" />
<path d="M 2310.0 175.0 L 2310.0 195.0" stroke="#0095FF" fill="none" stroke-width="2px" />
<path d="M 2360.0 195.0 L 2380.0 175.0" stroke="#0095FF" fill="none" stroke-width="2px" />
<path d="M 2380.0 175.0 L 2380.0 155.0" stroke="#0095FF" fill="none" stroke-width="2px" />
<path d="M 2310.0 155.0 L 2330.0 145.0" stroke="#0095FF" fill="none" stroke-width="2px" />
<path d="M 2360.0 115.0 L 2380.0 105.0" stroke="#0095FF" fill="none" stroke-width="2px" />
<path d="M 2380.0 105.0 L 2390.0 155.0" stroke="#0095FF" fill="none" stroke-width="2px" />
<path d="M 2400.0 155.0 L 2220.0 135.0" stroke="#0095FF" fill="none" stroke-width="2px" />
<path d="M 2070.0 155.0 L 2070.0 175.0" stroke="#0095FF" fill="none" stroke-width="2px" />
<path d="M 2080.0 175.0 L 2080.0 195.0" stroke="#0095FF" fill="none" stroke-width="2px" />
<path d="M 2130.0 195.0 L 2160.0 175.0" stroke="#0095FF" fill="none" stroke-width="2px" />
<path d="M 2160.0 175.0 L 2180.0 155.0" stroke="#0095FF" fill="none" stroke-width="2px" />
<path d="M 2140.0 145.0 L 2140.0 125.0" stroke="#0095FF" fill="none" stroke-width="2px" />
<path d="M 2160.0 105.0 L 2200.0 85.0" stroke="#0095FF" fill="none" stroke-width="2px" />
<path d="M 2200.0 85.0 L 2180.0 65.0" stroke="#0095FF" fill="none" stroke-width="2px" />
<path d="M 2150.0 55.0 L 2070.0 135.0" stroke="#0095FF" fill="none" stroke-width="2px" />
<path d="M 2070.0 135.0 L 2050.0 215.0" stroke="#0095FF" fill="none" stroke-width="2px" />
<path d="M 2050.0 215.0 L 2210.0 145.0" stroke="#0095FF" fill="none" stroke-width="2px" />
<path d="M 410.0 195.0 L 420.0 195.0" stroke="#FF0000" fill="none" stroke-width="4px" />
<path d="M 420.0 195.0 L 430.0 195.0" stroke="#FF0000" fill="none" stroke-width="4px" />
<path d="M 430.0 195.0 L 440.0 195.0" stroke="#FF0000" fill="none" stroke-width="4px" />
<path d="M 440.0 195.0 L 450.0 195.0" stroke="#FF0000" fill="none" stroke-width="4px" />
<path d="M 450.0 195.0 L 460.0 195.0" stroke="#FF0000" fill="none" stroke-width="4px" />
<path d="M 460.0 195.0 L 470.0 195.0" stroke="#FF0000" fill="none" stroke-width="4px" />
<path d="M 470.0 195.0 L 480.0 195.0" stroke="#FF0000" fill="none" stroke-width="4px" />
<path d="M 480.0 195.0 L 480.0 185.0" stroke="#FF0000" fill="none" stroke-width="4px" />
<path d="M 480.0 185.0 L 470.0 185.0" stroke="#FF0000" fill="none" stroke-width="4px" />
<path d="M 470.0 185.0 L 460.0 185.0" stroke="#FF0000" fill="none" stroke-width="4px" />
<path d="M 460.0 185.0 L 450.0 185.0" stroke="#FF0000" fill="none" stroke-width="4px" />
<path d="M 450.0 185.0 L 440.0 185.0" stroke="#FF0000" fill="none" stroke-width="4px" />
<path d="M 440.0 185.0 L 430.0 185.0" stroke="#FF0000" fill="none" stroke-width="4px" />
<path d="M 430.0 185.0 L 420.0 185.0" stroke="#FF0000" fill="none" stroke-width="4px" />
<path d="M 420.0 185.0 L 410.0 185.0" stroke="#FF0000" fill="none" stroke-width="4px" />
<path d="M 410.0 185.0 L 410.0 175.0" stroke="#FF0000" fill="none" stroke-width="4px" />
<path d="M 410.0 175.0 L 420.0 175.0" stroke="#FF0000" fill="none" stroke-width="4px" />
<path d="M 420.0 175.0 L 430.0 175.0" stroke="#FF0000" fill="none" stroke-width="4px" />
<path d="M 430.0 175.0 L 440.0 175.0" stroke="#FF0000" fill="none" stroke-width="4px" />
<path d="M 440.0 175.0 L 450.0 175.0" stroke="#FF0000" fill="none" stroke-width="4px" />
<path d="M 450.0 175.0 L 460.0 175.0" stroke="#FF0000" fill="none" stroke-width="4px" />
<path d="M 460.0 175.0 L 470.0 175.0" stroke="#FF0000" fill="none" stroke-width="4px" />
<path d="M 470.0 175.0 L 480.0 175.0" stroke="#FF0000" fill="none" stroke-width="4px" />
<path d="M 480.0 175.0 L 490.0 175.0" stroke="#FF0000" fill="none" stroke-width="4px" />
<path d="M 490.0 175.0 L 500.0 175.0" stroke="#FF0000" fill="none" stroke-width="4px" />
<path d="M 500.0 175.0 L 500.0 165.0" stroke="#FF0000" fill="none" stroke-width="4px" />
<path d="M 500.0 165.0 L 490.0 165.0" stroke="#FF0000" fill="none" stroke-width="4px" />
<path d="M 490.0 165.0 L 480.0 165.0" stroke="#FF0000" fill="none" stroke-width="4px" />
<path d="M 480.0 165.0 L 470.0 165.0" stroke="#FF0000" fill="none" stroke-width="4px" />
<path d="M 470.0 165.0 L 460.0 165.0" stroke="#FF0000" fill="none" stroke-width="4px" />
<path d="M 460.0 165.0 L 450.0 165.0" stroke="#FF0000" fill="none" stroke-width="4px" />
<path d="M 450.0 165.0 L 440.0 165.0" stroke="#FF0000" fill="none" stroke-width="4px" />
<path d="M 440.0 165.0 L 430.0 165.0" stroke="#FF0000" fill="none" stroke-width="4px" />
<path d="M 430.0 165.0 L 420.0 165.0" stroke="#FF0000" fill="none" stroke-width="4px" />
<path d="M 440.0 155.0 L 450.0 155.0" stroke="#FF0000" fill="none" stroke-width="4px" />
<path d="M 450.0 155.0 L 460.0 155.0" stroke="#FF0000" fill="none" stroke-width="4px" />
<path d="M 460.0 155.0 L 470.0 155.0" stroke="#FF0000" fill="none" stroke-width="4px" />
<path d="M 470.0 155.0 L 480.0 155.0" stroke="#FF0000" fill="none" stroke-width="4px" />
<path d="M 480.0 155.0 L 490.0 155.0" stroke="#FF0000" fill="none" stroke-width="4px" />
<path d="M 490.0 155.0 L 480.0 145.0" stroke="#FF0000" fill="none" stroke-width="4px" />
<path d="M 480.0 145.0 L 470.0 145.0" stroke="#FF0000" fill="none" stroke-width="4px" />
<path d="M 470.0 145.0 L 460.0 145.0" stroke="#FF0000" fill="none" stroke-width="4px" />
<path d="M 470.0 205.0 L 460.0 205.0" stroke="#FF0000" fill="none" stroke-width="4px" />
<path d="M 460.0 205.0 L 450.0 205.0" stroke="#FF0000" fill="none" stroke-width="4px" />
<path d="M 450.0 205.0 L 440.0 205.0" stroke="#FF0000" fill="none" stroke-width="4px" />
<path d="M 440.0 205.0 L 430.0 205.0" stroke="#FF0000" fill="none" stroke-width="4px" />
<path d="M 430.0 205.0 L 420.0 205.0" stroke="#FF0000" fill="none" stroke-width="4px" />
<path d="M 420.0 205.0 L 430.0 215.0" stroke="#FF0000" fill="none" stroke-width="4px" />
<path d="M 430.0 215.0 L 440.0 215.0" stroke="#FF0000" fill="none" stroke-width="4px" />
<path d="M 1670.0 115.0 L 1680.0 115.0" stroke="#FF0000" fill="none" stroke-width="4px" />
<path d="M 1680.0 115.0 L 1690.0 115.0" stroke="#FF0000" fill="none" stroke-width="4px" />
<path d="M 1690.0 115.0 L 1700.0 115.0" stroke="#FF0000" fill="none" stroke-width="4px" />
<path d="M 1700.0 115.0 L 1710.0 115.0" stroke="#FF0000" fill="none" stroke-width="4px" />
<path d="M 1710.0 115.0 L 1720.0 115.0" stroke="#FF0000" fill="none" stroke-width="4px" />
<path d="M 1720.0 115.0 L 1720.0 105.0" stroke="#FF0000" fill="none" stroke-width="4px" />
<path d="M 1720.0 105.0 L 1710.0 105.0" stroke="#FF0000" fill="none" stroke-width="4px" />
<path d="M 1710.0 105.0 L 1700.0 105.0" stroke="#FF0000" fill="none" stroke-width="4px" />
<path d="M 1700.0 105.0 L 1690.0 105.0" stroke="#FF0000" fill="none" stroke-width="4px" />
<path d="M 1690.0 105.0 L 1680.0 105.0" stroke="#FF0000" fill="none" stroke-width="4px" />
<path d="M 1680.0 105.0 L 1670.0 105.0" stroke="#FF0000" fill="none" stroke-width="4px" />
<path d="M 1670.0 105.0 L 1670.0 95.0" stroke="#FF0000" fill="none" stroke-width="4px" />
<path d="M 1670.0 95.0 L 1680.0 95.0" stroke="#FF0000" fill="none" stroke-width="4px" />
<path d="M 1680.0 95.0 L 1690.0 95.0" stroke="#FF0000" fill="none" stroke-width="4px" />
<path d="M 1690.0 95.0 L 1700.0 95.0" stroke="#FF0000" fill="none" stroke-width="4px" />
<path d="M 1700.0 95.0 L 1710.0 95.0" stroke="#FF0000" fill="none" stroke-width="4px" />
<path d="M 1710.0 95.0 L 1700.0 85.0" stroke="#FF0000" fill="none" stroke-width="4px" />
<path d="M 1700.0 85.0 L 1690.0 85.0" stroke="#FF0000" fill="none" stroke-width="4px" />
<path d="M 1690.0 85.0 L 1680.0 85.0" stroke="#FF0000" fill="none" stroke-width="4px" />
<path d="M 1680.0 125.0 L 1690.0 125.0" stroke="#FF0000" fill="none" stroke-width="4px" />
<path d="M 1690.0 125.0 L 1700.0 125.0" stroke="#FF0000" fill="none" stroke-width="4px" />
<path d="M 1700.0 125.0 L 1710.0 125.0" stroke="#FF0000" fill="none" stroke-width="4px" />
<path d="M 1710.0 125.0 L 1700.0 135.0" stroke="#FF0000" fill="none" stroke-width="4px" />
<path d="M 1700.0 135.0 L 1690.0 135.0" stroke="#FF0000" fill="none" stroke-width="4px" />
<path d="M 2390.0 165.0 L 2380.0 165.0" stroke="#FF0000" fill="none" stroke-width="4px" />
<path d="M 2380.0 165.0 L 2370.0 165.0" stroke="#FF0000" fill="none" stroke-width="4px" />
<path d="M 2370.0 165.0 L 2360.0 165.0" stroke="#FF0000" fill="none" stroke-width="4px" />
<path d="M 2360.0 165.0 L 2350.0 165.0" stroke="#FF0000" fill="none" stroke-width="4px" />
<path d="M 2350.0 165.0 L 2340.0 165.0" stroke="#FF0000" fill="none" stroke-width="4px" />
<path d="M 2340.0 165.0 L 2330.0 165.0" stroke="#FF0000" fill="none" stroke-width="4px" />
<path d="M 2330.0 165.0 L 2320.0 165.0" stroke="#FF0000" fill="none" stroke-width="4px" />
<path d="M 2320.0 165.0 L 2310.0 165.0" stroke="#FF0000" fill="none" stroke-width="4px" />
<path d="M 2310.0 165.0 L 2300.0 165.0" stroke="#FF0000" fill="none" stroke-width="4px" />
<path d="M 2300.0 165.0 L 2300.0 175.0" stroke="#FF0000" fill="none" stroke-width="4px" />
<path d="M 2300.0 175.0 L 2290.0 175.0" stroke="#FF0000" fill="none" stroke-width="4px" />
<path d="M 2290.0 175.0 L 2290.0 185.0" stroke="#FF0000" fill="none" stroke-width="4px" />
<path d="M 2290.0 185.0 L 2300.0 185.0" stroke="#FF0000" fill="none" stroke-width="4px" />
<path d="M 2300.0 185.0 L 2310.0 185.0" stroke="#FF0000" fill="none" stroke-width="4px" />
<path d="M 2310.0 185.0 L 2320.0 185.0" stroke="#FF0000" fill="none" stroke-width="4px" />
<path d="M 2320.0 185.0 L 2330.0 185.0" stroke="#FF0000" fill="none" stroke-width="4px" />
<path d="M 2330.0 185.0 L 2340.0 185.0" stroke="#FF0000" fill="none" stroke-width="4px" />
<path d="M 2340.0 185.0 L 2350.0 185.0" stroke="#FF0000" fill="none" stroke-width="4px" />
<path d="M 2350.0 185.0 L 2360.0 185.0" stroke="#FF0000" fill="none" stroke-width="4px" />
<path d="M 2360.0 185.0 L 2370.0 185.0" stroke="#FF0000" fill="none" stroke-width="4px" />
<path d="M 2370.0 185.0 L 2370.0 175.0" stroke="#FF0000" fill="none" stroke-width="4px" />
<path d="M 2370.0 175.0 L 2360.0 175.0" stroke="#FF0000" fill="none" stroke-width="4px" />
<path d="M 2360.0 175.0 L 2350.0 175.0" stroke="#FF0000" fill="none" stroke-width="4px" />
<path d="M 2350.0 175.0 L 2340.0 175.0" stroke="#FF0000" fill="none" stroke-width="4px" />
<path d="M 2340.0 175.0 L 2330.0 175.0" stroke="#FF0000" fill="none" stroke-width="4px" />
<path d="M 2330.0 175.0 L 2320.0 175.0" stroke="#FF0000" fill="none" stroke-width="4px" />
<path d="M 2320.0 175.0 L 2310.0 175.0" stroke="#FF0000" fill="none" stroke-width="4px" />
<path d="M 2310.0 195.0 L 2300.0 195.0" stroke="#FF0000" fill="none" stroke-width="4px" />
<path d="M 2300.0 195.0 L 2320.0 195.0" stroke="#FF0000" fill="none" stroke-width="4px" />
<path d="M 2320.0 195.0 L 2340.0 195.0" stroke="#FF0000" fill="none" stroke-width="4px" />
<path d="M 2340.0 195.0 L 2350.0 195.0" stroke="#FF0000" fill="none" stroke-width="4px" />
<path d="M 2350.0 195.0 L 2360.0 195.0" stroke="#FF0000" fill="none" stroke-width="4px" />
<path d="M 2380.0 155.0 L 2370.0 155.0" stroke="#FF0000" fill="none" stroke-width="4px" />
<path d="M 2370.0 155.0 L 2360.0 155.0" stroke="#FF0000" fill="none" stroke-width="4px" />
<path d="M 2360.0 155.0 L 2350.0 155.0" stroke="#FF0000" fill="none" stroke-width="4px" />
<path d="M 2350.0 155.0 L 2340.0 155.0" stroke="#FF0000" fill="none" stroke-width="4px" />
<path d="M 2340.0 155.0 L 2330.0 155.0" stroke="#FF0000" fill="none" stroke-width="4px" />
<path d="M 2330.0 155.0 L 2320.0 155.0" stroke="#FF0000" fill="none" stroke-width="4px" />
<path d="M 2320.0 155.0 L 2310.0 155.0" stroke="#FF0000" fill="none" stroke-width="4px" />
<path d="M 2330.0 145.0 L 2340.0 145.0" stroke="#FF0000" fill="none" stroke-width="4px" />
<path d="M 2340.0 145.0 L 2350.0 145.0" stroke="#FF0000" fill="none" stroke-width="4px" />
<path d="M 2350.0 145.0 L 2360.0 145.0" stroke="#FF0000" fill="none" stroke-width="4px" />
<path d="M 2360.0 145.0 L 2370.0 145.0" stroke="#FF0000" fill="none" stroke-width="4px" />
<path d="M 2370.0 145.0 L 2380.0 145.0" stroke="#FF0000" fill="none" stroke-width="4px" />
<path d="M 2380.0 145.0 L 2390.0 145.0" stroke="#FF0000" fill="none" stroke-width="4px" />
<path d="M 2390.0 145.0 L 2400.0 145.0" stroke="#FF0000" fill="none" stroke-width="4px" />
<path d="M 2400.0 145.0 L 2410.0 145.0" stroke="#FF0000" fill="none" stroke-width="4px" />
<path d="M 2410.0 145.0 L 2410.0 135.0" stroke="#FF0000" fill="none" stroke-width="4px" />
<path d="M 2410.0 135.0 L 2400.0 135.0" stroke="#FF0000" fill="none" stroke-width="4px" />
<path d="M 2400.0 135.0 L 2390.0 135.0" stroke="#FF0000" fill="none" stroke-width="4px" />
<path d="M 2390.0 135.0 L 2380.0 135.0" stroke="#FF0000" fill="none" stroke-width="4px" />
<path d="M 2380.0 135.0 L 2370.0 135.0" stroke="#FF0000" fill="none" stroke-width="4px" />
<path d="M 2370.0 135.0 L 2360.0 135.0" stroke="#FF0000" fill="none" stroke-width="4px" />
<path d="M 2360.0 135.0 L 2350.0 135.0" stroke="#FF0000" fill="none" stroke-width="4px" />
<path d="M 2350.0 135.0 L 2340.0 135.0" stroke="#FF0000" fill="none" stroke-width="4px" />
<path d="M 2340.0 135.0 L 2350.0 125.0" stroke="#FF0000" fill="none" stroke-width="4px" />
<path d="M 2350.0 125.0 L 2360.0 125.0" stroke="#FF0000" fill="none" stroke-width="4px" />
<path d="M 2360.0 125.0 L 2370.0 125.0" stroke="#FF0000" fill="none" stroke-width="4px" />
<path d="M 2370.0 125.0 L 2380.0 125.0" stroke="#FF0000" fill="none" stroke-width="4px" />
<path d="M 2380.0 125.0 L 2390.0 125.0" stroke="#FF0000" fill="none" stroke-width="4px" />
<path d="M 2390.0 125.0 L 2400.0 125.0" stroke="#FF0000" fill="none" stroke-width="4px" />
<path d="M 2400.0 125.0 L 2390.0 115.0" stroke="#FF0000" fill="none" stroke-width="4px" />
<path d="M 2390.0 115.0 L 2380.0 115.0" stroke="#FF0000" fill="none" stroke-width="4px" />
<path d="M 2380.0 115.0 L 2370.0 115.0" stroke="#FF0000" fill="none" stroke-width="4px" />
<path d="M 2370.0 115.0 L 2360.0 115.0" stroke="#FF0000" fill="none" stroke-width="4px" />
<path d="M 2390.0 155.0 L 2400.0 155.0" stroke="#FF0000" fill="none" stroke-width="4px" />
<path d="M 2220.0 135.0 L 2210.0 135.0" stroke="#FF0000" fill="none" stroke-width="4px" />
<path d="M 2210.0 135.0 L 2200.0 135.0" stroke="#FF0000" fill="none" stroke-width="4px" />
<path d="M 2200.0 135.0 L 2190.0 135.0" stroke="#FF0000" fill="none" stroke-width="4px" />
<path d="M 2190.0 135.0 L 2180.0 135.0" stroke="#FF0000" fill="none" stroke-width="4px" />
<path d="M 2180.0 135.0 L 2170.0 135.0" stroke="#FF0000" fill="none" stroke-width="4px" />
<path d="M 2170.0 135.0 L 2160.0 135.0" stroke="#FF0000" fill="none" stroke-width="4px" />
<path d="M 2160.0 135.0 L 2150.0 135.0" stroke="#FF0000" fill="none" stroke-width="4px" />
<path d="M 2150.0 135.0 L 2140.0 135.0" stroke="#FF0000" fill="none" stroke-width="4px" />
<path d="M 2140.0 135.0 L 2130.0 135.0" stroke="#FF0000" fill="none" stroke-width="4px" />
<path d="M 2130.0 135.0 L 2130.0 145.0" stroke="#FF0000" fill="none" stroke-width="4px" />
<path d="M 2130.0 145.0 L 2120.0 145.0" stroke="#FF0000" fill="none" stroke-width="4px" />
<path d="M 2120.0 145.0 L 2110.0 145.0" stroke="#FF0000" fill="none" stroke-width="4px" />
<path d="M 2110.0 145.0 L 2100.0 145.0" stroke="#FF0000" fill="none" stroke-width="4px" />
<path d="M 2100.0 145.0 L 2090.0 145.0" stroke="#FF0000" fill="none" stroke-width="4px" />
<path d="M 2090.0 145.0 L 2080.0 145.0" stroke="#FF0000" fill="none" stroke-width="4px" />
<path d="M 2080.0 145.0 L 2070.0 145.0" stroke="#FF0000" fill="none" stroke-width="4px" />
<path d="M 2070.0 145.0 L 2060.0 145.0" stroke="#FF0000" fill="none" stroke-width="4px" />
<path d="M 2060.0 145.0 L 2060.0 155.0" stroke="#FF0000" fill="none" stroke-width="4px" />
<path d="M 2060.0 155.0 L 2050.0 155.0" stroke="#FF0000" fill="none" stroke-width="4px" />
<path d="M 2050.0 155.0 L 2050.0 165.0" stroke="#FF0000" fill="none" stroke-width="4px" />
<path d="M 2050.0 165.0 L 2060.0 165.0" stroke="#FF0000" fill="none" stroke-width="4px" />
<path d="M 2060.0 165.0 L 2070.0 165.0" stroke="#FF0000" fill="none" stroke-width="4px" />
<path d="M 2070.0 165.0 L 2080.0 165.0" stroke="#FF0000" fill="none" stroke-width="4px" />
<path d="M 2080.0 165.0 L 2090.0 165.0" stroke="#FF0000" fill="none" stroke-width="4px" />
<path d="M 2090.0 165.0 L 2100.0 165.0" stroke="#FF0000" fill="none" stroke-width="4px" />
<path d="M 2100.0 165.0 L 2110.0 165.0" stroke="#FF0000" fill="none" stroke-width="4px" />
<path d="M 2110.0 165.0 L 2120.0 165.0" stroke="#FF0000" fill="none" stroke-width="4px" />
<path d="M 2120.0 165.0 L 2130.0 165.0" stroke="#FF0000" fill="none" stroke-width="4px" />
<path d="M 2130.0 165.0 L 2140.0 165.0" stroke="#FF0000" fill="none" stroke-width="4px" />
<path d="M 2140.0 165.0 L 2150.0 165.0" stroke="#FF0000" fill="none" stroke-width="4px" />
<path d="M 2150.0 165.0 L 2160.0 165.0" stroke="#FF0000" fill="none" stroke-width="4px" />
<path d="M 2160.0 165.0 L 2170.0 165.0" stroke="#FF0000" fill="none" stroke-width="4px" />
<path d="M 2170.0 165.0 L 2170.0 155.0" stroke="#FF0000" fill="none" stroke-width="4px" />
<path d="M 2170.0 155.0 L 2160.0 155.0" stroke="#FF0000" fill="none" stroke-width="4px" />
<path d="M 2160.0 155.0 L 2150.0 155.0" stroke="#FF0000" fill="none" stroke-width="4px" />
<path d="M 2150.0 155.0 L 2140.0 155.0" stroke="#FF0000" fill="none" stroke-width="4px" />
<path d="M 2140.0 155.0 L 2130.0 155.0" stroke="#FF0000" fill="none" stroke-width="4px" />
<path d="M 2130.0 155.0 L 2120.0 155.0" stroke="#FF0000" fill="none" stroke-width="4px" />
<path d="M 2120.0 155.0 L 2110.0 155.0" stroke="#FF0000" fill="none" stroke-width="4px" />
<path d="M 2110.0 155.0 L 2100.0 155.0" stroke="#FF0000" fill="none" stroke-width="4px" />
<path d="M 2100.0 155.0 L 2090.0 155.0" stroke="#FF0000" fill="none" stroke-width="4px" />
<path d="M 2090.0 155.0 L 2080.0 155.0" stroke="#FF0000" fill="none" stroke-width="4px" />
<path d="M 2080.0 155.0 L 2070.0 155.0" stroke="#FF0000" fill="none" stroke-width="4px" />
<path d="M 2070.0 175.0 L 2060.0 175.0" stroke="#FF0000" fill="none" stroke-width="4px" />
<path d="M 2060.0 175.0 L 2050.0 175.0" stroke="#FF0000" fill="none" stroke-width="4px" />
<path d="M 2050.0 175.0 L 2050.0 185.0" stroke="#FF0000" fill="none" stroke-width="4px" />
<path d="M 2050.0 185.0 L 2060.0 185.0" stroke="#FF0000" fill="none" stroke-width="4px" />
<path d="M 2060.0 185.0 L 2070.0 185.0" stroke="#FF0000" fill="none" stroke-width="4px" />
<path d="M 2070.0 185.0 L 2080.0 185.0" stroke="#FF0000" fill="none" stroke-width="4px" />
<path d="M 2080.0 185.0 L 2090.0 185.0" stroke="#FF0000" fill="none" stroke-width="4px" />
<path d="M 2090.0 185.0 L 2100.0 185.0" stroke="#FF0000" fill="none" stroke-width="4px" />
<path d="M 2100.0 185.0 L 2110.0 185.0" stroke="#FF0000" fill="none" stroke-width="4px" />
<path d="M 2110.0 185.0 L 2120.0 185.0" stroke="#FF0000" fill="none" stroke-width="4px" />
<path d="M 2120.0 185.0 L 2130.0 185.0" stroke="#FF0000" fill="none" stroke-width="4px" />
<path d="M 2130.0 185.0 L 2140.0 185.0" stroke="#FF0000" fill="none" stroke-width="4px" />
<path d="M 2140.0 185.0 L 2150.0 185.0" stroke="#FF0000" fill="none" stroke-width="4px" />
<path d="M 2150.0 185.0 L 2150.0 175.0" stroke="#FF0000" fill="none" stroke-width="4px" />
<path d="M 2150.0 175.0 L 2140.0 175.0" stroke="#FF0000" fill="none" stroke-width="4px" />
<path d="M 2140.0 175.0 L 2130.0 175.0" stroke="#FF0000" fill="none" stroke-width="4px" />
<path d="M 2130.0 175.0 L 2120.0 175.0" stroke="#FF0000" fill="none" stroke-width="4px" />
<path d="M 2120.0 175.0 L 2110.0 175.0" stroke="#FF0000" fill="none" stroke-width="4px" />
<path d="M 2110.0 175.0 L 2100.0 175.0" stroke="#FF0000" fill="none" stroke-width="4px" />
<path d="M 2100.0 175.0 L 2090.0 175.0" stroke="#FF0000" fill="none" stroke-width="4px" />
<path d="M 2090.0 175.0 L 2080.0 175.0" stroke="#FF0000" fill="none" stroke-width="4px" />
<path d="M 2080.0 195.0 L 2070.0 195.0" stroke="#FF0000" fill="none" stroke-width="4px" />
<path d="M 2070.0 195.0 L 2060.0 195.0" stroke="#FF0000" fill="none" stroke-width="4px" />
<path d="M 2060.0 195.0 L 2050.0 195.0" stroke="#FF0000" fill="none" stroke-width="4px" />
<path d="M 2050.0 195.0 L 2040.0 195.0" stroke="#FF0000" fill="none" stroke-width="4px" />
<path d="M 2040.0 195.0 L 2040.0 205.0" stroke="#FF0000" fill="none" stroke-width="4px" />
<path d="M 2040.0 205.0 L 2050.0 205.0" stroke="#FF0000" fill="none" stroke-width="4px" />
<path d="M 2050.0 205.0 L 2060.0 205.0" stroke="#FF0000" fill="none" stroke-width="4px" />
<path d="M 2060.0 205.0 L 2070.0 205.0" stroke="#FF0000" fill="none" stroke-width="4px" />
<path d="M 2070.0 205.0 L 2080.0 205.0" stroke="#FF0000" fill="none" stroke-width="4px" />
<path d="M 2080.0 205.0 L 2090.0 195.0" stroke="#FF0000" fill="none" stroke-width="4px" />
<path d="M 2090.0 195.0 L 2100.0 195.0" stroke="#FF0000" fill="none" stroke-width="4px" />
<path d="M 2100.0 195.0 L 2110.0 195.0" stroke="#FF0000" fill="none" stroke-width="4px" />
<path d="M 2110.0 195.0 L 2130.0 195.0" stroke="#FF0000" fill="none" stroke-width="4px" />
<path d="M 2180.0 155.0 L 2190.0 155.0" stroke="#FF0000" fill="none" stroke-width="4px" />
<path d="M 2190.0 155.0 L 2200.0 155.0" stroke="#FF0000" fill="none" stroke-width="4px" />
<path d="M 2200.0 155.0 L 2200.0 145.0" stroke="#FF0000" fill="none" stroke-width="4px" />
<path d="M 2200.0 145.0 L 2190.0 145.0" stroke="#FF0000" fill="none" stroke-width="4px" />
<path d="M 2190.0 145.0 L 2180.0 145.0" stroke="#FF0000" fill="none" stroke-width="4px" />
<path d="M 2180.0 145.0 L 2170.0 145.0" stroke="#FF0000" fill="none" stroke-width="4px" />
<path d="M 2170.0 145.0 L 2160.0 145.0" stroke="#FF0000" fill="none" stroke-width="4px" />
<path d="M 2160.0 145.0 L 2150.0 145.0" stroke="#FF0000" fill="none" stroke-width="4px" />
<path d="M 2150.0 145.0 L 2140.0 145.0" stroke="#FF0000" fill="none" stroke-width="4px" />
<path d="M 2140.0 125.0 L 2150.0 125.0" stroke="#FF0000" fill="none" stroke-width="4px" />
<path d="M 2150.0 125.0 L 2160.0 125.0" stroke="#FF0000" fill="none" stroke-width="4px" />
<path d="M 2160.0 125.0 L 2170.0 125.0" stroke="#FF0000" fill="none" stroke-width="4px" />
<path d="M 2170.0 125.0 L 2180.0 125.0" stroke="#FF0000" fill="none" stroke-width="4px" />
<path d="M 2180.0 125.0 L 2190.0 125.0" stroke="#FF0000" fill="none" stroke-width="4px" />
<path d="M 2190.0 125.0 L 2200.0 125.0" stroke="#FF0000" fill="none" stroke-width="4px" />
<path d="M 2200.0 125.0 L 2210.0 125.0" stroke="#FF0000" fill="none" stroke-width="4px" />
<path d="M 2210.0 125.0 L 2220.0 125.0" stroke="#FF0000" fill="none" stroke-width="4px" />
<path d="M 2220.0 125.0 L 2210.0 115.0" stroke="#FF0000" fill="none" stroke-width="4px" />
<path d="M 2210.0 115.0 L 2200.0 115.0" stroke="#FF0000" fill="none" stroke-width="4px" />
<path d="M 2200.0 115.0 L 2190.0 115.0" stroke="#FF0000" fill="none" stroke-width="4px" />
<path d="M 2190.0 115.0 L 2180.0 115.0" stroke="#FF0000" fill="none" stroke-width="4px" />
<path d="M 2180.0 115.0 L 2170.0 115.0" stroke="#FF0000" fill="none" stroke-width="4px" />
<path d="M 2170.0 115.0 L 2160.0 115.0" stroke="#FF0000" fill="none" stroke-width="4px" />
<path d="M 2160.0 115.0 L 2150.0 115.0" stroke="#FF0000" fill="none" stroke-width="4px" />
<path d="M 2150.0 115.0 L 2150.0 105.0" stroke="#FF0000" fill="none" stroke-width="4px" />
<path d="M 2150.0 105.0 L 2140.0 105.0" stroke="#FF0000" fill="none" stroke-width="4px" />
<path d="M 2140.0 105.0 L 2140.0 95.0" stroke="#FF0000" fill="none" stroke-width="4px" />
<path d="M 2140.0 95.0 L 2130.0 95.0" stroke="#FF0000" fill="none" stroke-width="4px" />
<path d="M 2130.0 95.0 L 2130.0 85.0" stroke="#FF0000" fill="none" stroke-width="4px" />
<path d="M 2130.0 85.0 L 2120.0 85.0" stroke="#FF0000" fill="none" stroke-width="4px" />
<path d="M 2120.0 85.0 L 2120.0 75.0" stroke="#FF0000" fill="none" stroke-width="4px" />
<path d="M 2120.0 75.0 L 2130.0 75.0" stroke="#FF0000" fill="none" stroke-width="4px" />
<path d="M 2130.0 75.0 L 2140.0 75.0" stroke="#FF0000" fill="none" stroke-width="4px" />
<path d="M 2140.0 75.0 L 2150.0 75.0" stroke="#FF0000" fill="none" stroke-width="4px" />
<path d="M 2150.0 75.0 L 2160.0 75.0" stroke="#FF0000" fill="none" stroke-width="4px" />
<path d="M 2160.0 75.0 L 2170.0 75.0" stroke="#FF0000" fill="none" stroke-width="4px" />
<path d="M 2170.0 75.0 L 2180.0 75.0" stroke="#FF0000" fill="none" stroke-width="4px" />
<path d="M 2180.0 75.0 L 2190.0 75.0" stroke="#FF0000" fill="none" stroke-width="4px" />
<path d="M 2190.0 75.0 L 2190.0 85.0" stroke="#FF0000" fill="none" stroke-width="4px" />
<path d="M 2190.0 85.0 L 2180.0 85.0" stroke="#FF0000" fill="none" stroke-width="4px" />
<path d="M 2180.0 85.0 L 2170.0 85.0" stroke="#FF0000" fill="none" stroke-width="4px" />
<path d="M 2170.0 85.0 L 2160.0 85.0" stroke="#FF0000" fill="none" stroke-width="4px" />
<path d="M 2160.0 85.0 L 2150.0 85.0" stroke="#FF0000" fill="none" stroke-width="4px" />
<path d="M 2150.0 85.0 L 2140.0 85.0" stroke="#FF0000" fill="none" stroke-width="4px" />
<path d="M 2140.0 85.0 L 2150.0 95.0" stroke="#FF0000" fill="none" stroke-width="4px" />
<path d="M 2150.0 95.0 L 2160.0 95.0" stroke="#FF0000" fill="none" stroke-width="4px" />
<path d="M 2160.0 95.0 L 2170.0 95.0" stroke="#FF0000" fill="none" stroke-width="4px" />
<path d="M 2170.0 95.0 L 2180.0 95.0" stroke="#FF0000" fill="none" stroke-width="4px" />
<path d="M 2180.0 95.0 L 2190.0 95.0" stroke="#FF0000" fill="none" stroke-width="4px" />
<path d="M 2190.0 95.0 L 2200.0 95.0" stroke="#FF0000" fill="none" stroke-width="4px" />
<path d="M 2200.0 95.0 L 2210.0 95.0" stroke="#FF0000" fill="none" stroke-width="4px" />
<path d="M 2210.0 95.0 L 2210.0 105.0" stroke="#FF0000" fill="none" stroke-width="4px" />
<path d="M 2210.0 105.0 L 2200.0 105.0" stroke="#FF0000" fill="none" stroke-width="4px" />
<path d="M 2200.0 105.0 L 2190.0 105.0" stroke="#FF0000" fill="none" stroke-width="4px" />
<path d="M 2190.0 105.0 L 2180.0 105.0" stroke="#FF0000" fill="none" stroke-width="4px" />
<path d="M 2180.0 105.0 L 2170.0 105.0" stroke="#FF0000" fill="none" stroke-width="4px" />
<path d="M 2170.0 105.0 L 2160.0 105.0" stroke="#FF0000" fill="none" stroke-width="4px" />
<path d="M 2180.0 65.0 L 2170.0 65.0" stroke="#FF0000" fill="none" stroke-width="4px" />
<path d="M 2170.0 65.0 L 2160.0 65.0" stroke="#FF0000" fill="none" stroke-width="4px" />
<path d="M 2160.0 65.0 L 2150.0 65.0" stroke="#FF0000" fill="none" stroke-width="4px" />
<path d="M 2150.0 65.0 L 2140.0 65.0" stroke="#FF0000" fill="none" stroke-width="4px" />
<path d="M 2140.0 65.0 L 2130.0 65.0" stroke="#FF0000" fill="none" stroke-width="4px" />
<path d="M 2130.0 65.0 L 2120.0 65.0" stroke="#FF0000" fill="none" stroke-width="4px" />
<path d="M 2120.0 65.0 L 2130.0 55.0" stroke="#FF0000" fill="none" stroke-width="4px" />
<path d="M 2130.0 55.0 L 2140.0 55.0" stroke="#FF0000" fill="none" stroke-width="4px" />
<path d="M 2140.0 55.0 L 2150.0 55.0" stroke="#FF0000" fill="none" stroke-width="4px" />
</svg>