  0
SECTION
  2
HEADER
  9
$ACADVER
  1
AC1014
  9
$ACADMAINTVER
 70
     9
  9
$DWGCODEPAGE
  3
ANSI_1252
  9
$INSBASE
 10
0.0
 20
0.0
 30
0.0
  9
$EXTMIN
 10
1.000000000000000E+20
 20
1.000000000000000E+20
 30
1.000000000000000E+20
  9
$EXTMAX
 10
-1.000000000000000E+20
 20
-1.000000000000000E+20
 30
-1.000000000000000E+20
  9
$LIMMIN
 10
0.0
 20
0.0
  9
$LIMMAX
 10
12.0
 20
9.0
  9
$ORTHOMODE
 70
     0
  9
$REGENMODE
 70
     1
  9
$FILLMODE
 70
     1
  9
$QTEXTMODE
 70
     0
  9
$MIRRTEXT
 70
     1
  9
$DRAGMODE
 70
     2
  9
$LTSCALE
 40
1.0
  9
$OSMODE
 70
    37
  9
$ATTMODE
 70
     1
  9
$TEXTSIZE
 40
0.2
  9
$TRACEWID
 40
0.05
  9
$TEXTSTYLE
  7
STANDARD
  9
$CLAYER
  8
0
  9
$CELTYPE
  6
BYLAYER
  9
$CECOLOR
 62
   256
  9
$CELTSCALE
 40
1.0
  9
$DELOBJ
 70
     1
  9
$DISPSILH
 70
     0
  9
$DIMSCALE
 40
1.0
  9
$DIMASZ
 40
0.18
  9
$DIMEXO
 40
0.0625
  9
$DIMDLI
 40
0.38
  9
$DIMRND
 40
0.0
  9
$DIMDLE
 40
0.0
  9
$DIMEXE
 40
0.18
  9
$DIMTP
 40
0.0
  9
$DIMTM
 40
0.0
  9
$DIMTXT
 40
0.18
  9
$DIMCEN
 40
0.09
  9
$DIMTSZ
 40
0.0
  9
$DIMTOL
 70
     0
  9
$DIMLIM
 70
     0
  9
$DIMTIH
 70
     1
  9
$DIMTOH
 70
     1
  9
$DIMSE1
 70
     0
  9
$DIMSE2
 70
     0
  9
$DIMTAD
 70
     0
  9
$DIMZIN
 70
     0
  9
$DIMBLK
  1

  9
$DIMASO
 70
     1
  9
$DIMSHO
 70
     1
  9
$DIMPOST
  1

  9
$DIMAPOST
  1

  9
$DIMALT
 70
     0
  9
$DIMALTD
 70
     2
  9
$DIMALTF
 40
25.4
  9
$DIMLFAC
 40
1.0
  9
$DIMTOFL
 70
     0
  9
$DIMTVP
 40
0.0
  9
$DIMTIX
 70
     0
  9
$DIMSOXD
 70
     0
  9
$DIMSAH
 70
     0
  9
$DIMBLK1
  1

  9
$DIMBLK2
  1

  9
$DIMSTYLE
  2
STANDARD
  9
$DIMCLRD
 70
     0
  9
$DIMCLRE
 70
     0
  9
$DIMCLRT
 70
     0
  9
$DIMTFAC
 40
1.0
  9
$DIMGAP
 40
0.09
  9
$DIMJUST
 70
     0
  9
$DIMSD1
 70
     0
  9
$DIMSD2
 70
     0
  9
$DIMTOLJ
 70
     1
  9
$DIMTZIN
 70
     0
  9
$DIMALTZ
 70
     0
  9
$DIMALTTZ
 70
     0
  9
$DIMFIT
 70
     3
  9
$DIMUPT
 70
     0
  9
$DIMUNIT
 70
     2
  9
$DIMDEC
 70
     4
  9
$DIMTDEC
 70
     4
  9
$DIMALTU
 70
     2
  9
$DIMALTTD
 70
     2
  9
$DIMTXSTY
  7
STANDARD
  9
$DIMAUNIT
 70
     0
  9
$LUNITS
 70
     2
  9
$LUPREC
 70
     4
  9
$SKETCHINC
 40
0.1
  9
$FILLETRAD
 40
0.5
  9
$AUNITS
 70
     0
  9
$AUPREC
 70
     0
  9
$MENU
  1
.
  9
$ELEVATION
 40
0.0
  9
$PELEVATION
 40
0.0
  9
$THICKNESS
 40
0.0
  9
$LIMCHECK
 70
     0
  9
$CHAMFERA
 40
0.5
  9
$CHAMFERB
 40
0.5
  9
$CHAMFERC
 40
1.0
  9
$CHAMFERD
 40
0.0
  9
$SKPOLY
 70
     0
  9
$TDCREATE
 40
2457640.473997859
  9
$TDUPDATE
 40
2457640.473997928
  9
$TDINDWG
 40
0.0000000116
  9
$TDUSRTIMER
 40
0.0000000116
  9
$USRTIMER
 70
     1
  9
$ANGBASE
 50
0.0
  9
$ANGDIR
 70
     0
  9
$PDMODE
 70
     0
  9
$PDSIZE
 40
0.0
  9
$PLINEWID
 40
0.0
  9
$COORDS
 70
     1
  9
$SPLFRAME
 70
     0
  9
$SPLINETYPE
 70
     6
  9
$SPLINESEGS
 70
     8
  9
$ATTDIA
 70
     0
  9
$ATTREQ
 70
     1
  9
$HANDLING
 70
     1
  9
$HANDSEED
  5
3C1
  9
$SURFTAB1
 70
     6
  9
$SURFTAB2
 70
     6
  9
$SURFTYPE
 70
     6
  9
$SURFU
 70
     6
  9
$SURFV
 70
     6
  9
$UCSNAME
  2

  9
$UCSORG
 10
0.0
 20
0.0
 30
0.0
  9
$UCSXDIR
 10
1.0
 20
0.0
 30
0.0
  9
$UCSYDIR
 10
0.0
 20
1.0
 30
0.0
  9
$PUCSNAME
  2

  9
$PUCSORG
 10
0.0
 20
0.0
 30
0.0
  9
$PUCSXDIR
 10
1.0
 20
0.0
 30
0.0
  9
$PUCSYDIR
 10
0.0
 20
1.0
 30
0.0
  9
$USERI1
 70
     0
  9
$USERI2
 70
     0
  9
$USERI3
 70
     0
  9
$USERI4
 70
     0
  9
$USERI5
 70
     0
  9
$USERR1
 40
0.0
  9
$USERR2
 40
0.0
  9
$USERR3
 40
0.0
  9
$USERR4
 40
0.0
  9
$USERR5
 40
0.0
  9
$WORLDVIEW
 70
     1
  9
$SHADEDGE
 70
     3
  9
$SHADEDIF
 70
    70
  9
$TILEMODE
 70
     1
  9
$MAXACTVP
 70
    64
  9
$PINSBASE
 10
0.0
 20
0.0
 30
0.0
  9
$PLIMCHECK
 70
     0
  9
$PEXTMIN
 10
1.000000000000000E+20
 20
1.000000000000000E+20
 30
1.000000000000000E+20
  9
$PEXTMAX
 10
-1.000000000000000E+20
 20
-1.000000000000000E+20
 30
-1.000000000000000E+20
  9
$PLIMMIN
 10
0.0
 20
0.0
  9
$PLIMMAX
 10
12.0
 20
9.0
  9
$UNITMODE
 70
     0
  9
$VISRETAIN
 70
     1
  9
$PLINEGEN
 70
     0
  9
$PSLTSCALE
 70
     1
  9
$TREEDEPTH
 70
  3020
  9
$PICKSTYLE
 70
     1
  9
$CMLSTYLE
  2
STANDARD
  9
$CMLJUST
 70
     0
  9
$CMLSCALE
 40
1.0
  9
$PROXYGRAPHICS
 70
     1
  9
$MEASUREMENT
 70
     0
  0
ENDSEC
  0
SECTION
  2
CLASSES
  0
CLASS
  1
ACDBDICTIONARYWDFLT
  2
AcDbDictionaryWithDefault
  3
ObjectDBX Classes
 90
        0
280
     0
281
     0
  0
CLASS
  1
VISUALSTYLE
  2
AcDbVisualStyle
  3
ObjectDBX Classes
 90
     4095
280
     0
281
     0
  0
CLASS
  1
MATERIAL
  2
AcDbMaterial
  3
ObjectDBX Classes
 90
     1153
280
     0
281
     0
  0
CLASS
  1
SUN
  2
AcDbSun
  3
SCENEOE
 90
     1024
280
     0
281
     0
  0
CLASS
  1
DICTIONARYVAR
  2
AcDbDictionaryVar
  3
ObjectDBX Classes
 90
        0
280
     0
281
     0
  0
CLASS
  1
XRECORD
  2
AcDbXrecord
  3
AutoCAD 2000
 90
        0
280
     0
281
     0
  0
CLASS
  1
LWPOLYLINE
  2
AcDbPolyline
  3
AutoCAD 2000
 90
        0
280
     0
281
     1
  0
CLASS
  1
HATCH
  2
AcDbHatch
  3
AutoCAD 2000
 90
        0
280
     0
281
     1
  0
CLASS
  1
ACDBPLACEHOLDER
  2
AcDbPlaceHolder
  3
ObjectDBX Classes
 90
        0
280
     0
281
     0
  0
CLASS
  1
LAYOUT
  2
AcDbLayout
  3
ObjectDBX Classes
 90
        0
280
     0
281
     0
  0
ENDSEC
  0
SECTION
  2
TABLES
  0
TABLE
  2
VPORT
  5
8
330
0
100
AcDbSymbolTable
 70
     1
  0
VPORT
  5
29
330
8
100
AcDbSymbolTableRecord
100
AcDbViewportTableRecord
  2
*ACTIVE
 70
     0
 10
0.0
 20
0.0
 11
1.0
 21
1.0
 12
0.0
 22
0.0
 13
0.0
 23
0.0
 14
0.5
 24
0.5
 15
0.5
 25
0.5
 16
0.0
 26
0.0
 36
1.0
 17
1000.0
 27
200.0
 37
0.0
 40
400.0
 41
5.0
 42
50.0
 43
0.0
 44
0.0
 50
0.0
 51
0.0
 71
     0
 72
   100
 73
     1
 74
     3
 75
     0
 76
     0
 77
     0
 78
     0
  0
ENDTAB
  0
TABLE
  2
LTYPE
  5
5
330
0
100
AcDbSymbolTable
 70
     1
  0
LTYPE
  5
14
330
5
100
AcDbSymbolTableRecord
100
AcDbLinetypeTableRecord
  2
BYBLOCK
 70
     0
  3

 72
    65
 73
     0
 40
0.0
  0
LTYPE
  5
15
330
5
100
AcDbSymbolTableRecord
100
AcDbLinetypeTableRecord
  2
BYLAYER
 70
     0
  3

 72
    65
 73
     0
 40
0.0
  0
LTYPE
  5
16
330
5
100
AcDbSymbolTableRecord
100
AcDbLinetypeTableRecord
  2
CONTINUOUS
 70
     0
  3
Solid line
 72
    65
 73
     0
 40
0.0
  0
ENDTAB
  0
TABLE
  2
LAYER
  5
2
330
0
100
AcDbSymbolTable
 70
     5
  0
LAYER
  5
10
330
2
100
AcDbSymbolTableRecord
100
AcDbLayerTableRecord
  2
0
 70
     0
 62
     7
  6
CONTINUOUS
  0
LAYER
  5
44
330
2
100
AcDbSymbolTableRecord
100
AcDbLayerTableRecord
  2
1
 70
     0
 62
     7
  6
CONTINUOUS
  0
LAYER
  5
1E8
330
2
100
AcDbSymbolTableRecord
100
AcDbLayerTableRecord
  2
2
 70
     0
 62
     7
  6
CONTINUOUS
  0
LAYER
  5
1ED
330
2
100
AcDbSymbolTableRecord
100
AcDbLayerTableRecord
  2
3
 70
     0
 62
     7
  6
CONTINUOUS
  0
LAYER
  5
391
330
2
100
AcDbSymbolTableRecord
100
AcDbLayerTableRecord
  2
4
 70
     0
 62
     7
  6
CONTINUOUS
  0
ENDTAB
  0
TABLE
  2
STYLE
  5
3
330
0
100
AcDbSymbolTable
 70
     1
  0
STYLE
  5
11
330
3
100
AcDbSymbolTableRecord
100
AcDbTextStyleTableRecord
  2
STANDARD
 70
     0
 40
0.0
 41
1.0
 50
0.0
 71
     0
 42
0.2
  3
txt
  4

  0
ENDTAB
  0
TABLE
  2
VIEW
  5
6
330
0
100
AcDbSymbolTable
 70
     0
  0
ENDTAB
  0
TABLE
  2
UCS
  5
7
330
0
100
AcDbSymbolTable
 70
     0
  0
ENDTAB
  0
TABLE
  2
APPID
  5
9
330
0
100
AcDbSymbolTable
 70
     1
  0
APPID
  5
12
330
9
100
AcDbSymbolTableRecord
100
AcDbRegAppTableRecord
  2
ACAD
 70
     0
  0
ENDTAB
  0
TABLE
  2
DIMSTYLE
  5
A
330
0
100
AcDbSymbolTable
 70
     1
  0
DIMSTYLE
105
27
330
A
100
AcDbSymbolTableRecord
100
AcDbDimStyleTableRecord
  2
STANDARD
 70
     0
  3

  4

  5

  6

  7

 40
1.0
 41
0.18
 42
0.0625
 43
0.38
 44
0.18
 45
0.0
 46
0.0
 47
0.0
 48
0.0
140
0.18
141
0.09
142
0.0
143
25.4
144
1.0
145
0.0
146
1.0
147
0.09
 71
     0
 72
     0
 73
     1
 74
     1
 75
     0
 76
     0
 77
     0
 78
     0
170
     0
171
     2
172
     0
173
     0
174
     0
175
     0
176
     0
177
     0
178
     0
270
     2
271
     4
272
     4
273
     2
274
     2
340
11
275
     0
280
     0
281
     0
282
     0
283
     1
284
     0
285
     0
286
     0
287
     3
288
     0
  0
ENDTAB
  0
TABLE
  2
BLOCK_RECORD
  5
1
330
0
100
AcDbSymbolTable
 70
     1
  0
BLOCK_RECORD
  5
1F
330
1
100
AcDbSymbolTableRecord
100
AcDbBlockTableRecord
  2
*MODEL_SPACE
  0
BLOCK_RECORD
  5
1B
330
1
100
AcDbSymbolTableRecord
100
AcDbBlockTableRecord
  2
*PAPER_SPACE
  0
ENDTAB
  0
ENDSEC
  0
SECTION
  2
BLOCKS
  0
BLOCK
  5
20
330
1F
100
AcDbEntity
  8
0
100
AcDbBlockBegin
  2
*MODEL_SPACE
 70
     0
 10
0.0
 20
0.0
 30
0.0
  3
*MODEL_SPACE
  1

  0
ENDBLK
  5
21
330
1F
100
AcDbEntity
  8
0
100
AcDbBlockEnd
  0
BLOCK
  5
1C
330
1B
100
AcDbEntity
 67
     1
  8
0
100
AcDbBlockBegin
  2
*PAPER_SPACE
 70
     0
 10
0.0
 20
0.0
 30
0.0
  3
*PAPER_SPACE
  1

  0
ENDBLK
  5
1D
330
1B
100
AcDbEntity
 67
     1
  8
0
100
AcDbBlockEnd
  0
ENDSEC
  0
SECTION
  2
ENTITIES
  0
POLYLINE
  5
40
330
1F
100
AcDbEntity
  8
0
 62
   250
100
AcDb2dPolyline
 66
     1
 10
0.0
 20
0.0
 30
0.0
  0
VERTEX
  5
41
330
40
100
AcDbEntity
  8
0
 62
   250
100
AcDbVertex
100
AcDb2dVertex
 10
0.0
 20
0.0
 30
0.0
  0
VERTEX
  5
42
330
40
100
AcDbEntity
  8
0
 62
   250
100
AcDbVertex
100
AcDb2dVertex
 10
50.0
 20
50.0
 30
0.0
  0
SEQEND
  5
43
330
40
100
AcDbEntity
  8
0
 62
   250
  0
POLYLINE
  5
45
330
1F
100
AcDbEntity
  8
1
 62
     1
100
AcDb2dPolyline
 66
     1
 10
0.0
 20
0.0
 30
0.0
  0
VERTEX
  5
46
330
45
100
AcDbEntity
  8
1
 62
     1
100
AcDbVertex
100
AcDb2dVertex
 10
50.0
 20
50.0
 30
0.0
  0
VERTEX
  5
47
330
45
100
AcDbEntity
  8
1
 62
     1
100
AcDbVertex
100
AcDb2dVertex
 10
54.5440673828125
 20
50.7171630859375
 30
0.0
  0
VERTEX
  5
48
330
45
100
AcDbEntity
  8
1
 62
     1
100
AcDbVertex
100
AcDb2dVertex
 10
58.8134765625
 20
52.8076171875
 30
0.0
  0
VERTEX
  5
49
330
45
100
AcDbEntity
  8
1
 62
     1
100
AcDbVertex
100
AcDb2dVertex
 10
62.8265380859375
 20
56.1798095703125
 30
0.0
  0
VERTEX
  5
4A
330
45
100
AcDbEntity
  8
1
 62
     1
100
AcDbVertex
100
AcDb2dVertex
 10
66.6015625
 20
60.7421875
 30
0.0
  0
VERTEX
  5
4B
330
45
100
AcDbEntity
  8
1
 62
     1
100
AcDbVertex
100
AcDb2dVertex
 10
70.1568603515625
 20
66.4031982421875
 30
0.0
  0
VERTEX
  5
4C
330
45
100
AcDbEntity
  8
1
 62
     1
100
AcDbVertex
100
AcDb2dVertex
 10
73.5107421875
 20
73.0712890625
 30
0.0
  0
VERTEX
  5
4D
330
45
100
AcDbEntity
  8
1
 62
     1
100
AcDbVertex
100
AcDb2dVertex
 10
76.6815185546875
 20
80.6549072265625
 30
0.0
  0
VERTEX
  5
4E
330
45
100
AcDbEntity
  8
1
 62
     1
100
AcDbVertex
100
AcDb2dVertex
 10
79.6875
 20
89.0625
 30
0.0
  0
VERTEX
  5
4F
330
45
100
AcDbEntity
  8
1
 62
     1
100
AcDbVertex
100
AcDb2dVertex
 10
82.5469970703125
 20
98.2025146484375
 30
0.0
  0
VERTEX
  5
50
330
45
100
AcDbEntity
  8
1
 62
     1
100
AcDbVertex
100
AcDb2dVertex
 10
85.2783203125
 20
107.9833984375
 30
0.0
  0
VERTEX
  5
51
330
45
100
AcDbEntity
  8
1
 62
     1
100
AcDbVertex
100
AcDb2dVertex
 10
87.8997802734375
 20
118.3135986328125
 30
0.0
  0
VERTEX
  5
52
330
45
100
AcDbEntity
  8
1
 62
     1
100
AcDbVertex
100
AcDb2dVertex
 10
90.4296875
 20
129.1015625
 30
0.0
  0
VERTEX
  5
53
330
45
100
AcDbEntity
  8
1
 62
     1
100
AcDbVertex
100
AcDb2dVertex
 10
92.8863525390625
 20
140.2557373046875
 30
0.0
  0
VERTEX
  5
54
330
45
100
AcDbEntity
  8
1
 62
     1
100
AcDbVertex
100
AcDb2dVertex
 10
95.2880859375
 20
151.6845703125
 30
0.0
  0
VERTEX
  5
55
330
45
100
AcDbEntity
  8
1
 62
     1
100
AcDbVertex
100
AcDb2dVertex
 10
97.6531982421875
 20
163.2965087890625
 30
0.0
  0
VERTEX
  5
56
330
45
100
AcDbEntity
  8
1
 62
     1
100
AcDbVertex
100
AcDb2dVertex
 10
100.0
 20
175.0
 30
0.0
  0
VERTEX
  5
57
330
45
100
AcDbEntity
  8
1
 62
     1
100
AcDbVertex
100
AcDb2dVertex
 10
102.3468017578125
 20
186.7034912109375
 30
0.0
  0
VERTEX
  5
58
330
45
100
AcDbEntity
  8
1
 62
     1
100
AcDbVertex
100
AcDb2dVertex
 10
104.7119140625
 20
198.3154296875
 30
0.0
  0
VERTEX
  5
59
330
45
100
AcDbEntity
  8
1
 62
     1
100
AcDbVertex
100
AcDb2dVertex
 10
107.1136474609375
 20
209.7442626953125
 30
0.0
  0
VERTEX
  5
5A
330
45
100
AcDbEntity
  8
1
 62
     1
100
AcDbVertex
100
AcDb2dVertex
 10
109.5703125
 20
220.8984375
 30
0.0
  0
VERTEX
  5
5B
330
45
100
AcDbEntity
  8
1
 62
     1
100
AcDbVertex
100
AcDb2dVertex
 10
112.1002197265625
 20
231.6864013671875
 30
0.0
  0
VERTEX
  5
5C
330
45
100
AcDbEntity
  8
1
 62
     1
100
AcDbVertex
100
AcDb2dVertex
 10
114.7216796875
 20
242.0166015625
 30
0.0
  0
VERTEX
  5
5D
330
45
100
AcDbEntity
  8
1
 62
     1
100
AcDbVertex
100
AcDb2dVertex
 10
117.4530029296875
 20
251.7974853515625
 30
0.0
  0
VERTEX
  5
5E
330
45
100
AcDbEntity
  8
1
 62
     1
100
AcDbVertex
100
AcDb2dVertex
 10
120.3125
 20
260.9375
 30
0.0
  0
VERTEX
  5
5F
330
45
100
AcDbEntity
  8
1
 62
     1
100
AcDbVertex
100
AcDb2dVertex
 10
123.3184814453125
 20
269.3450927734375
 30
0.0
  0
VERTEX
  5
60
330
45
100
AcDbEntity
  8
1
 62
     1
100
AcDbVertex
100
AcDb2dVertex
 10
126.4892578125
 20
276.9287109375
 30
0.0
  0
VERTEX
  5
61
330
45
100
AcDbEntity
  8
1
 62
     1
100
AcDbVertex
100
AcDb2dVertex
 10
129.8431396484375
 20
283.5968017578125
 30
0.0
  0
VERTEX
  5
62
330
45
100
AcDbEntity
  8
1
 62
     1
100
AcDbVertex
100
AcDb2dVertex
 10
133.3984375
 20
289.2578125
 30
0.0
  0
VERTEX
  5
63
330
45
100
AcDbEntity
  8
1
 62
     1
100
AcDbVertex
100
AcDb2dVertex
 10
137.1734619140625
 20
293.8201904296875
 30
0.0
  0
VERTEX
  5
64
330
45
100
AcDbEntity
  8
1
 62
     1
100
AcDbVertex
100
AcDb2dVertex
 10
141.1865234375
 20
297.1923828125
 30
0.0
  0
VERTEX
  5
65
330
45
100
AcDbEntity
  8
1
 62
     1
100
AcDbVertex
100
AcDb2dVertex
 10
145.4559326171875
 20
299.2828369140625
 30
0.0
  0
VERTEX
  5
66
330
45
100
AcDbEntity
  8
1
 62
     1
100
AcDbVertex
100
AcDb2dVertex
 10
150.0
 20
300.0
 30
0.0
  0
VERTEX
  5
67
330
45
100
AcDbEntity
  8
1
 62
     1
100
AcDbVertex
100
AcDb2dVertex
 10
154.5440673828125
 20
299.2828369140625
 30
0.0
  0
VERTEX
  5
68
330
45
100
AcDbEntity
  8
1
 62
     1
100
AcDbVertex
100
AcDb2dVertex
 10
158.8134765625
 20
297.1923828125
 30
0.0
  0
VERTEX
  5
69
330
45
100
AcDbEntity
  8
1
 62
     1
100
AcDbVertex
100
AcDb2dVertex
 10
162.8265380859375
 20
293.8201904296875
 30
0.0
  0
VERTEX
  5
6A
330
45
100
AcDbEntity
  8
1
 62
     1
100
AcDbVertex
100
AcDb2dVertex
 10
166.6015625
 20
289.2578125
 30
0.0
  0
VERTEX
  5
6B
330
45
100
AcDbEntity
  8
1
 62
     1
100
AcDbVertex
100
AcDb2dVertex
 10
170.1568603515625
 20
283.5968017578125
 30
0.0
  0
VERTEX
  5
6C
330
45
100
AcDbEntity
  8
1
 62
     1
100
AcDbVertex
100
AcDb2dVertex
 10
173.5107421875
 20
276.9287109375
 30
0.0
  0
VERTEX
  5
6D
330
45
100
AcDbEntity
  8
1
 62
     1
100
AcDbVertex
100
AcDb2dVertex
 10
176.6815185546875
 20
269.3450927734375
 30
0.0
  0
VERTEX
  5
6E
330
45
100
AcDbEntity
  8
1
 62
     1
100
AcDbVertex
100
AcDb2dVertex
 10
179.6875
 20
260.9375
 30
0.0
  0
VERTEX
  5
6F
330
45
100
AcDbEntity
  8
1
 62
     1
100
AcDbVertex
100
AcDb2dVertex
 10
182.5469970703125
 20
251.7974853515625
 30
0.0
  0
VERTEX
  5
70
330
45
100
AcDbEntity
  8
1
 62
     1
100
AcDbVertex
100
AcDb2dVertex
 10
185.2783203125
 20
242.0166015625
 30
0.0
  0
VERTEX
  5
71
330
45
100
AcDbEntity
  8
1
 62
     1
100
AcDbVertex
100
AcDb2dVertex
 10
187.8997802734375
 20
231.6864013671875
 30
0.0
  0
VERTEX
  5
72
330
45
100
AcDbEntity
  8
1
 62
     1
100
AcDbVertex
100
AcDb2dVertex
 10
190.4296875
 20
220.8984375
 30
0.0
  0
VERTEX
  5
73
330
45
100
AcDbEntity
  8
1
 62
     1
100
AcDbVertex
100
AcDb2dVertex
 10
192.8863525390625
 20
209.7442626953125
 30
0.0
  0
VERTEX
  5
74
330
45
100
AcDbEntity
  8
1
 62
     1
100
AcDbVertex
100
AcDb2dVertex
 10
195.2880859375
 20
198.3154296875
 30
0.0
  0
VERTEX
  5
75
330
45
100
AcDbEntity
  8
1
 62
     1
100
AcDbVertex
100
AcDb2dVertex
 10
197.6531982421875
 20
186.7034912109375
 30
0.0
  0
VERTEX
  5
76
330
45
100
AcDbEntity
  8
1
 62
     1
100
AcDbVertex
100
AcDb2dVertex
 10
200.0
 20
175.0
 30
0.0
  0
VERTEX
  5
77
330
45
100
AcDbEntity
  8
1
 62
     1
100
AcDbVertex
100
AcDb2dVertex
 10
202.3468017578125
 20
163.2965087890625
 30
0.0
  0
VERTEX
  5
78
330
45
100
AcDbEntity
  8
1
 62
     1
100
AcDbVertex
100
AcDb2dVertex
 10
204.7119140625
 20
151.6845703125
 30
0.0
  0
VERTEX
  5
79
330
45
100
AcDbEntity
  8
1
 62
     1
100
AcDbVertex
100
AcDb2dVertex
 10
207.1136474609375
 20
140.2557373046875
 30
0.0
  0
VERTEX
  5
7A
330
45
100
AcDbEntity
  8
1
 62
     1
100
AcDbVertex
100
AcDb2dVertex
 10
209.5703125
 20
129.1015625
 30
0.0
  0
VERTEX
  5
7B
330
45
100
AcDbEntity
  8
1
 62
     1
100
AcDbVertex
100
AcDb2dVertex
 10
212.1002197265625
 20
118.3135986328125
 30
0.0
  0
VERTEX
  5
7C
330
45
100
AcDbEntity
  8
1
 62
     1
100
AcDbVertex
100
AcDb2dVertex
 10
214.7216796875
 20
107.9833984375
 30
0.0
  0
VERTEX
  5
7D
330
45
100
AcDbEntity
  8
1
 62
     1
100
AcDbVertex
100
AcDb2dVertex
 10
217.4530029296875
 20
98.2025146484375
 30
0.0
  0
VERTEX
  5
7E
330
45
100
AcDbEntity
  8
1
 62
     1
100
AcDbVertex
100
AcDb2dVertex
 10
220.3125
 20
89.0625
 30
0.0
  0
VERTEX
  5
7F
330
45
100
AcDbEntity
  8
1
 62
     1
100
AcDbVertex
100
AcDb2dVertex
 10
223.3184814453125
 20
80.6549072265625
 30
0.0
  0
VERTEX
  5
80
330
45
100
AcDbEntity
  8
1
 62
     1
100
AcDbVertex
100
AcDb2dVertex
 10
226.4892578125
 20
73.0712890625
 30
0.0
  0
VERTEX
  5
81
330
45
100
AcDbEntity
  8
1
 62
     1
100
AcDbVertex
100
AcDb2dVertex
 10
229.8431396484375
 20
66.4031982421875
 30
0.0
  0
VERTEX
  5
82
330
45
100
AcDbEntity
  8
1
 62
     1
100
AcDbVertex
100
AcDb2dVertex
 10
233.3984375
 20
60.7421875
 30
0.0
  0
VERTEX
  5
83
330
45
100
AcDbEntity
  8
1
 62
     1
100
AcDbVertex
100
AcDb2dVertex
 10
237.1734619140625
 20
56.1798095703125
 30
0.0
  0
VERTEX
  5
84
330
45
100
AcDbEntity
  8
1
 62
     1
100
AcDbVertex
100
AcDb2dVertex
 10
241.1865234375
 20
52.8076171875
 30
0.0
  0
VERTEX
  5
85
330
45
100
AcDbEntity
  8
1
 62
     1
100
AcDbVertex
100
AcDb2dVertex
 10
245.4559326171875
 20
50.7171630859375
 30
0.0
  0
VERTEX
  5
86
330
45
100
AcDbEntity
  8
1
 62
     1
100
AcDbVertex
100
AcDb2dVertex
 10
250.0
 20
50.0
 30
0.0
  0
VERTEX
  5
87
330
45
100
AcDbEntity
  8
1
 62
     1
100
AcDbVertex
100
AcDb2dVertex
 10
254.5440673828125
 20
50.7171630859375
 30
0.0
  0
VERTEX
  5
88
330
45
100
AcDbEntity
  8
1
 62
     1
100
AcDbVertex
100
AcDb2dVertex
 10
258.8134765625
 20
52.8076171875
 30
0.0
  0
VERTEX
  5
89
330
45
100
AcDbEntity
  8
1
 62
     1
100
AcDbVertex
100
AcDb2dVertex
 10
262.8265380859375
 20
56.1798095703125
 30
0.0
  0
VERTEX
  5
8A
330
45
100
AcDbEntity
  8
1
 62
     1
100
AcDbVertex
100
AcDb2dVertex
 10
266.6015625
 20
60.7421875
 30
0.0
  0
VERTEX
  5
8B
330
45
100
AcDbEntity
  8
1
 62
     1
100
AcDbVertex
100
AcDb2dVertex
 10
270.1568603515625
 20
66.4031982421875
 30
0.0
  0
VERTEX
  5
8C
330
45
100
AcDbEntity
  8
1
 62
     1
100
AcDbVertex
100
AcDb2dVertex
 10
273.5107421875
 20
73.0712890625
 30
0.0
  0
VERTEX
  5
8D
330
45
100
AcDbEntity
  8
1
 62
     1
100
AcDbVertex
100
AcDb2dVertex
 10
276.6815185546875
 20
80.6549072265625
 30
0.0
  0
VERTEX
  5
8E
330
45
100
AcDbEntity
  8
1
 62
     1
100
AcDbVertex
100
AcDb2dVertex
 10
279.6875
 20
89.0625
 30
0.0
  0
VERTEX
  5
8F
330
45
100
AcDbEntity
  8
1
 62
     1
100
AcDbVertex
100
AcDb2dVertex
 10
282.5469970703125
 20
98.2025146484375
 30
0.0
  0
VERTEX
  5
90
330
45
100
AcDbEntity
  8
1
 62
     1
100
AcDbVertex
100
AcDb2dVertex
 10
285.2783203125
 20
107.9833984375
 30
0.0
  0
VERTEX
  5
91
330
45
100
AcDbEntity
  8
1
 62
     1
100
AcDbVertex
100
AcDb2dVertex
 10
287.8997802734375
 20
118.3135986328125
 30
0.0
  0
VERTEX
  5
92
330
45
100
AcDbEntity
  8
1
 62
     1
100
AcDbVertex
100
AcDb2dVertex
 10
290.4296875
 20
129.1015625
 30
0.0
  0
VERTEX
  5
93
330
45
100
AcDbEntity
  8
1
 62
     1
100
AcDbVertex
100
AcDb2dVertex
 10
292.8863525390625
 20
140.2557373046875
 30
0.0
  0
VERTEX
  5
94
330
45
100
AcDbEntity
  8
1
 62
     1
100
AcDbVertex
100
AcDb2dVertex
 10
295.2880859375
 20
151.6845703125
 30
0.0
  0
VERTEX
  5
95
330
45
100
AcDbEntity
  8
1
 62
     1
100
AcDbVertex
100
AcDb2dVertex
 10
297.6531982421875
 20
163.2965087890625
 30
0.0
  0
VERTEX
  5
96
330
45
100
AcDbEntity
  8
1
 62
     1
100
AcDbVertex
100
AcDb2dVertex
 10
300.0
 20
175.0
 30
0.0
  0
VERTEX
  5
97
330
45
100
AcDbEntity
  8
1
 62
     1
100
AcDbVertex
100
AcDb2dVertex
 10
302.3468017578125
 20
186.7034912109375
 30
0.0
  0
VERTEX
  5
98
330
45
100
AcDbEntity
  8
1
 62
     1
100
AcDbVertex
100
AcDb2dVertex
 10
304.7119140625
 20
198.3154296875
 30
0.0
  0
VERTEX
  5
99
330
45
100
AcDbEntity
  8
1
 62
     1
100
AcDbVertex
100
AcDb2dVertex
 10
307.1136474609375
 20
209.7442626953125
 30
0.0
  0
VERTEX
  5
9A
330
45
100
AcDbEntity
  8
1
 62
     1
100
AcDbVertex
100
AcDb2dVertex
 10
309.5703125
 20
220.8984375
 30
0.0
  0
VERTEX
  5
9B
330
45
100
AcDbEntity
  8
1
 62
     1
100
AcDbVertex
100
AcDb2dVertex
 10
312.1002197265625
 20
231.6864013671875
 30
0.0
  0
VERTEX
  5
9C
330
45
100
AcDbEntity
  8
1
 62
     1
100
AcDbVertex
100
AcDb2dVertex
 10
314.7216796875
 20
242.0166015625
 30
0.0
  0
VERTEX
  5
9D
330
45
100
AcDbEntity
  8
1
 62
     1
100
AcDbVertex
100
AcDb2dVertex
 10
317.4530029296875
 20
251.7974853515625
 30
0.0
  0
VERTEX
  5
9E
330
45
100
AcDbEntity
  8
1
 62
     1
100
AcDbVertex
100
AcDb2dVertex
 10
320.3125
 20
260.9375
 30
0.0
  0
VERTEX
  5
9F
330
45
100
AcDbEntity
  8
1
 62
     1
100
AcDbVertex
100
AcDb2dVertex
 10
323.3184814453125
 20
269.3450927734375
 30
0.0
  0
VERTEX
  5
A0
330
45
100
AcDbEntity
  8
1
 62
     1
100
AcDbVertex
100
AcDb2dVertex
 10
326.4892578125
 20
276.9287109375
 30
0.0
  0
VERTEX
  5
A1
330
45
100
AcDbEntity
  8
1
 62
     1
100
AcDbVertex
100
AcDb2dVertex
 10
329.8431396484375
 20
283.5968017578125
 30
0.0
  0
VERTEX
  5
A2
330
45
100
AcDbEntity
  8
1
 62
     1
100
AcDbVertex
100
AcDb2dVertex
 10
333.3984375
 20
289.2578125
 30
0.0
  0
VERTEX
  5
A3
330
45
100
AcDbEntity
  8
1
 62
     1
100
AcDbVertex
100
AcDb2dVertex
 10
337.1734619140625
 20
293.8201904296875
 30
0.0
  0
VERTEX
  5
A4
330
45
100
AcDbEntity
  8
1
 62
     1
100
AcDbVertex
100
AcDb2dVertex
 10
341.1865234375
 20
297.1923828125
 30
0.0
  0
VERTEX
  5
A5
330
45
100
AcDbEntity
  8
1
 62
     1
100
AcDbVertex
100
AcDb2dVertex
 10
345.4559326171875
 20
299.2828369140625
 30
0.0
  0
VERTEX
  5
A6
330
45
100
AcDbEntity
  8
1
 62
     1
100
AcDbVertex
100
AcDb2dVertex
 10
350.0
 20
300.0
 30
0.0
  0
VERTEX
  5
A7
330
45
100
AcDbEntity
  8
1
 62
     1
100
AcDbVertex
100
AcDb2dVertex
 10
354.5440673828125
 20
299.2828369140625
 30
0.0
  0
VERTEX
  5
A8
330
45
100
AcDbEntity
  8
1
 62
     1
100
AcDbVertex
100
AcDb2dVertex
 10
358.8134765625
 20
297.1923828125
 30
0.0
  0
VERTEX
  5
A9
330
45
100
AcDbEntity
  8
1
 62
     1
100
AcDbVertex
100
AcDb2dVertex
 10
362.8265380859375
 20
293.8201904296875
 30
0.0
  0
VERTEX
  5
AA
330
45
100
AcDbEntity
  8
1
 62
     1
100
AcDbVertex
100
AcDb2dVertex
 10
366.6015625
 20
289.2578125
 30
0.0
  0
VERTEX
  5
AB
330
45
100
AcDbEntity
  8
1
 62
     1
100
AcDbVertex
100
AcDb2dVertex
 10
370.1568603515625
 20
283.5968017578125
 30
0.0
  0
VERTEX
  5
AC
330
45
100
AcDbEntity
  8
1
 62
     1
100
AcDbVertex
100
AcDb2dVertex
 10
373.5107421875
 20
276.9287109375
 30
0.0
  0
VERTEX
  5
AD
330
45
100
AcDbEntity
  8
1
 62
     1
100
AcDbVertex
100
AcDb2dVertex
 10
376.6815185546875
 20
269.3450927734375
 30
0.0
  0
VERTEX
  5
AE
330
45
100
AcDbEntity
  8
1
 62
     1
100
AcDbVertex
100
AcDb2dVertex
 10
379.6875
 20
260.9375
 30
0.0
  0
VERTEX
  5
AF
330
45
100
AcDbEntity
  8
1
 62
     1
100
AcDbVertex
100
AcDb2dVertex
 10
382.5469970703125
 20
251.7974853515625
 30
0.0
  0
VERTEX
  5
B0
330
45
100
AcDbEntity
  8
1
 62
     1
100
AcDbVertex
100
AcDb2dVertex
 10
385.2783203125
 20
242.0166015625
 30
0.0
  0
VERTEX
  5
B1
330
45
100
AcDbEntity
  8
1
 62
     1
100
AcDbVertex
100
AcDb2dVertex
 10
387.8997802734375
 20
231.6864013671875
 30
0.0
  0
VERTEX
  5
B2
330
45
100
AcDbEntity
  8
1
 62
     1
100
AcDbVertex
100
AcDb2dVertex
 10
390.4296875
 20
220.8984375
 30
0.0
  0
VERTEX
  5
B3
330
45
100
AcDbEntity
  8
1
 62
     1
100
AcDbVertex
100
AcDb2dVertex
 10
392.8863525390625
 20
209.7442626953125
 30
0.0
  0
VERTEX
  5
B4
330
45
100
AcDbEntity
  8
1
 62
     1
100
AcDbVertex
100
AcDb2dVertex
 10
395.2880859375
 20
198.3154296875
 30
0.0
  0
VERTEX
  5
B5
330
45
100
AcDbEntity
  8
1
 62
     1
100
AcDbVertex
100
AcDb2dVertex
 10
397.6531982421875
 20
186.7034912109375
 30
0.0
  0
VERTEX
  5
B6
330
45
100
AcDbEntity
  8
1
 62
     1
100
AcDbVertex
100
AcDb2dVertex
 10
400.0
 20
175.0
 30
0.0
  0
VERTEX
  5
B7
330
45
100
AcDbEntity
  8
1
 62
     1
100
AcDbVertex
100
AcDb2dVertex
 10
402.3468017578125
 20
163.2965087890625
 30
0.0
  0
VERTEX
  5
B8
330
45
100
AcDbEntity
  8
1
 62
     1
100
AcDbVertex
100
AcDb2dVertex
 10
404.7119140625
 20
151.6845703125
 30
0.0
  0
VERTEX
  5
B9
330
45
100
AcDbEntity
  8
1
 62
     1
100
AcDbVertex
100
AcDb2dVertex
 10
407.1136474609375
 20
140.2557373046875
 30
0.0
  0
VERTEX
  5
BA
330
45
100
AcDbEntity
  8
1
 62
     1
100
AcDbVertex
100
AcDb2dVertex
 10
409.5703125
 20
129.1015625
 30
0.0
  0
VERTEX
  5
BB
330
45
100
AcDbEntity
  8
1
 62
     1
100
AcDbVertex
100
AcDb2dVertex
 10
412.1002197265625
 20
118.3135986328125
 30
0.0
  0
VERTEX
  5
BC
330
45
100
AcDbEntity
  8
1
 62
     1
100
AcDbVertex
100
AcDb2dVertex
 10
414.7216796875
 20
107.9833984375
 30
0.0
  0
VERTEX
  5
BD
330
45
100
AcDbEntity
  8
1
 62
     1
100
AcDbVertex
100
AcDb2dVertex
 10
417.4530029296875
 20
98.2025146484375
 30
0.0
  0
VERTEX
  5
BE
330
45
100
AcDbEntity
  8
1
 62
     1
100
AcDbVertex
100
AcDb2dVertex
 10
420.3125
 20
89.0625
 30
0.0
  0
VERTEX
  5
BF
330
45
100
AcDbEntity
  8
1
 62
     1
100
AcDbVertex
100
AcDb2dVertex
 10
423.3184814453125
 20
80.6549072265625
 30
0.0
  0
VERTEX
  5
C0
330
45
100
AcDbEntity
  8
1
 62
     1
100
AcDbVertex
100
AcDb2dVertex
 10
426.4892578125
 20
73.0712890625
 30
0.0
  0
VERTEX
  5
C1
330
45
100
AcDbEntity
  8
1
 62
     1
100
AcDbVertex
100
AcDb2dVertex
 10
429.8431396484375
 20
66.4031982421875
 30
0.0
  0
VERTEX
  5
C2
330
45
100
AcDbEntity
  8
1
 62
     1
100
AcDbVertex
100
AcDb2dVertex
 10
433.3984375
 20
60.7421875
 30
0.0
  0
VERTEX
  5
C3
330
45
100
AcDbEntity
  8
1
 62
     1
100
AcDbVertex
100
AcDb2dVertex
 10
437.1734619140625
 20
56.1798095703125
 30
0.0
  0
VERTEX
  5
C4
330
45
100
AcDbEntity
  8
1
 62
     1
100
AcDbVertex
100
AcDb2dVertex
 10
441.1865234375
 20
52.8076171875
 30
0.0
  0
VERTEX
  5
C5
330
45
100
AcDbEntity
  8
1
 62
     1
100
AcDbVertex
100
AcDb2dVertex
 10
445.4559326171875
 20
50.7171630859375
 30
0.0
  0
VERTEX
  5
C6
330
45
100
AcDbEntity
  8
1
 62
     1
100
AcDbVertex
100
AcDb2dVertex
 10
450.0
 20
50.0
 30
0.0
  0
VERTEX
  5
C7
330
45
100
AcDbEntity
  8
1
 62
     1
100
AcDbVertex
100
AcDb2dVertex
 10
454.5440673828125
 20
50.7171630859375
 30
0.0
  0
VERTEX
  5
C8
330
45
100
AcDbEntity
  8
1
 62
     1
100
AcDbVertex
100
AcDb2dVertex
 10
458.8134765625
 20
52.8076171875
 30
0.0
  0
VERTEX
  5
C9
330
45
100
AcDbEntity
  8
1
 62
     1
100
AcDbVertex
100
AcDb2dVertex
 10
462.8265380859375
 20
56.1798095703125
 30
0.0
  0
VERTEX
  5
CA
330
45
100
AcDbEntity
  8
1
 62
     1
100
AcDbVertex
100
AcDb2dVertex
 10
466.6015625
 20
60.7421875
 30
0.0
  0
VERTEX
  5
CB
330
45
100
AcDbEntity
  8
1
 62
     1
100
AcDbVertex
100
AcDb2dVertex
 10
470.1568603515625
 20
66.4031982421875
 30
0.0
  0
VERTEX
  5
CC
330
45
100
AcDbEntity
  8
1
 62
     1
100
AcDbVertex
100
AcDb2dVertex
 10
473.5107421875
 20
73.0712890625
 30
0.0
  0
VERTEX
  5
CD
330
45
100
AcDbEntity
  8
1
 62
     1
100
AcDbVertex
100
AcDb2dVertex
 10
476.6815185546875
 20
80.6549072265625
 30
0.0
  0
VERTEX
  5
CE
330
45
100
AcDbEntity
  8
1
 62
     1
100
AcDbVertex
100
AcDb2dVertex
 10
479.6875
 20
89.0625
 30
0.0
  0
VERTEX
  5
CF
330
45
100
AcDbEntity
  8
1
 62
     1
100
AcDbVertex
100
AcDb2dVertex
 10
482.5469970703125
 20
98.2025146484375
 30
0.0
  0
VERTEX
  5
D0
330
45
100
AcDbEntity
  8
1
 62
     1
100
AcDbVertex
100
AcDb2dVertex
 10
485.2783203125
 20
107.9833984375
 30
0.0
  0
VERTEX
  5
D1
330
45
100
AcDbEntity
  8
1
 62
     1
100
AcDbVertex
100
AcDb2dVertex
 10
487.8997802734375
 20
118.3135986328125
 30
0.0
  0
VERTEX
  5
D2
330
45
100
AcDbEntity
  8
1
 62
     1
100
AcDbVertex
100
AcDb2dVertex
 10
490.4296875
 20
129.1015625
 30
0.0
  0
VERTEX
  5
D3
330
45
100
AcDbEntity
  8
1
 62
     1
100
AcDbVertex
100
AcDb2dVertex
 10
492.8863525390625
 20
140.2557373046875
 30
0.0
  0
VERTEX
  5
D4
330
45
100
AcDbEntity
  8
1
 62
     1
100
AcDbVertex
100
AcDb2dVertex
 10
495.2880859375
 20
151.6845703125
 30
0.0
  0
VERTEX
  5
D5
330
45
100
AcDbEntity
  8
1
 62
     1
100
AcDbVertex
100
AcDb2dVertex
 10
497.6531982421875
 20
163.2965087890625
 30
0.0
  0
VERTEX
  5
D6
330
45
100
AcDbEntity
  8
1
 62
     1
100
AcDbVertex
100
AcDb2dVertex
 10
500.0
 20
175.0
 30
0.0
  0
VERTEX
  5
D7
330
45
100
AcDbEntity
  8
1
 62
     1
100
AcDbVertex
100
AcDb2dVertex
 10
502.3468017578125
 20
186.7034912109375
 30
0.0
  0
VERTEX
  5
D8
330
45
100
AcDbEntity
  8
1
 62
     1
100
AcDbVertex
100
AcDb2dVertex
 10
504.7119140625
 20
198.3154296875
 30
0.0
  0
VERTEX
  5
D9
330
45
100
AcDbEntity
  8
1
 62
     1
100
AcDbVertex
100
AcDb2dVertex
 10
507.1136474609375
 20
209.7442626953125
 30
0.0
  0
VERTEX
  5
DA
330
45
100
AcDbEntity
  8
1
 62
     1
100
AcDbVertex
100
AcDb2dVertex
 10
509.5703125
 20
220.8984375
 30
0.0
  0
VERTEX
  5
DB
330
45
100
AcDbEntity
  8
1
 62
     1
100
AcDbVertex
100
AcDb2dVertex
 10
512.1002197265625
 20
231.6864013671875
 30
0.0
  0
VERTEX
  5
DC
330
45
100
AcDbEntity
  8
1
 62
     1
100
AcDbVertex
100
AcDb2dVertex
 10
514.7216796875
 20
242.0166015625
 30
0.0
  0
VERTEX
  5
DD
330
45
100
AcDbEntity
  8
1
 62
     1
100
AcDbVertex
100
AcDb2dVertex
 10
517.4530029296875
 20
251.7974853515625
 30
0.0
  0
VERTEX
  5
DE
330
45
100
AcDbEntity
  8
1
 62
     1
100
AcDbVertex
100
AcDb2dVertex
 10
520.3125
 20
260.9375
 30
0.0
  0
VERTEX
  5
DF
330
45
100
AcDbEntity
  8
1
 62
     1
100
AcDbVertex
100
AcDb2dVertex
 10
523.3184814453125
 20
269.3450927734375
 30
0.0
  0
VERTEX
  5
E0
330
45
100
AcDbEntity
  8
1
 62
     1
100
AcDbVertex
100
AcDb2dVertex
 10
526.4892578125
 20
276.9287109375
 30
0.0
  0
VERTEX
  5
E1
330
45
100
AcDbEntity
  8
1
 62
     1
100
AcDbVertex
100
AcDb2dVertex
 10
529.8431396484375
 20
283.5968017578125
 30
0.0
  0
VERTEX
  5
E2
330
45
100
AcDbEntity
  8
1
 62
     1
100
AcDbVertex
100
AcDb2dVertex
 10
533.3984375
 20
289.2578125
 30
0.0
  0
VERTEX
  5
E3
330
45
100
AcDbEntity
  8
1
 62
     1
100
AcDbVertex
100
AcDb2dVertex
 10
537.1734619140625
 20
293.8201904296875
 30
0.0
  0
VERTEX
  5
E4
330
45
100
AcDbEntity
  8
1
 62
     1
100
AcDbVertex
100
AcDb2dVertex
 10
541.1865234375
 20
297.1923828125
 30
0.0
  0
VERTEX
  5
E5
330
45
100
AcDbEntity
  8
1
 62
     1
100
AcDbVertex
100
AcDb2dVertex
 10
545.4559326171875
 20
299.2828369140625
 30
0.0
  0
VERTEX
  5
E6
330
45
100
AcDbEntity
  8
1
 62
     1
100
AcDbVertex
100
AcDb2dVertex
 10
550.0
 20
300.0
 30
0.0
  0
VERTEX
  5
E7
330
45
100
AcDbEntity
  8
1
 62
     1
100
AcDbVertex
100
AcDb2dVertex
 10
554.5440673828125
 20
299.2828369140625
 30
0.0
  0
VERTEX
  5
E8
330
45
100
AcDbEntity
  8
1
 62
     1
100
AcDbVertex
100
AcDb2dVertex
 10
558.8134765625
 20
297.1923828125
 30
0.0
  0
VERTEX
  5
E9
330
45
100
AcDbEntity
  8
1
 62
     1
100
AcDbVertex
100
AcDb2dVertex
 10
562.8265380859375
 20
293.8201904296875
 30
0.0
  0
VERTEX
  5
EA
330
45
100
AcDbEntity
  8
1
 62
     1
100
AcDbVertex
100
AcDb2dVertex
 10
566.6015625
 20
289.2578125
 30
0.0
  0
VERTEX
  5
EB
330
45
100
AcDbEntity
  8
1
 62
     1
100
AcDbVertex
100
AcDb2dVertex
 10
570.1568603515625
 20
283.5968017578125
 30
0.0
  0
VERTEX
  5
EC
330
45
100
AcDbEntity
  8
1
 62
     1
100
AcDbVertex
100
AcDb2dVertex
 10
573.5107421875
 20
276.9287109375
 30
0.0
  0
VERTEX
  5
ED
330
45
100
AcDbEntity
  8
1
 62
     1
100
AcDbVertex
100
AcDb2dVertex
 10
576.6815185546875
 20
269.3450927734375
 30
0.0
  0
VERTEX
  5
EE
330
45
100
AcDbEntity
  8
1
 62
     1
100
AcDbVertex
100
AcDb2dVertex
 10
579.6875
 20
260.9375
 30
0.0
  0
VERTEX
  5
EF
330
45
100
AcDbEntity
  8
1
 62
     1
100
AcDbVertex
100
AcDb2dVertex
 10
582.5469970703125
 20
251.7974853515625
 30
0.0
  0
VERTEX
  5
F0
330
45
100
AcDbEntity
  8
1
 62
     1
100
AcDbVertex
100
AcDb2dVertex
 10
585.2783203125
 20
242.0166015625
 30
0.0
  0
VERTEX
  5
F1
330
45
100
AcDbEntity
  8
1
 62
     1
100
AcDbVertex
100
AcDb2dVertex
 10
587.8997802734375
 20
231.6864013671875
 30
0.0
  0
VERTEX
  5
F2
330
45
100
AcDbEntity
  8
1
 62
     1
100
AcDbVertex
100
AcDb2dVertex
 10
590.4296875
 20
220.8984375
 30
0.0
  0
VERTEX
  5
F3
330
45
100
AcDbEntity
  8
1
 62
     1
100
AcDbVertex
100
AcDb2dVertex
 10
592.8863525390625
 20
209.7442626953125
 30
0.0
  0
VERTEX
  5
F4
330
45
100
AcDbEntity
  8
1
 62
     1
100
AcDbVertex
100
AcDb2dVertex
 10
595.2880859375
 20
198.3154296875
 30
0.0
  0
VERTEX
  5
F5
330
45
100
AcDbEntity
  8
1
 62
     1
100
AcDbVertex
100
AcDb2dVertex
 10
597.6531982421875
 20
186.7034912109375
 30
0.0
  0
VERTEX
  5
F6
330
45
100
AcDbEntity
  8
1
 62
     1
100
AcDbVertex
100
AcDb2dVertex
 10
600.0
 20
175.0
 30
0.0
  0
VERTEX
  5
F7
330
45
100
AcDbEntity
  8
1
 62
     1
100
AcDbVertex
100
AcDb2dVertex
 10
602.3468017578125
 20
163.2965087890625
 30
0.0
  0
VERTEX
  5
F8
330
45
100
AcDbEntity
  8
1
 62
     1
100
AcDbVertex
100
AcDb2dVertex
 10
604.7119140625
 20
151.6845703125
 30
0.0
  0
VERTEX
  5
F9
330
45
100
AcDbEntity
  8
1
 62
     1
100
AcDbVertex
100
AcDb2dVertex
 10
607.1136474609375
 20
140.2557373046875
 30
0.0
  0
VERTEX
  5
FA
330
45
100
AcDbEntity
  8
1
 62
     1
100
AcDbVertex
100
AcDb2dVertex
 10
609.5703125
 20
129.1015625
 30
0.0
  0
VERTEX
  5
FB
330
45
100
AcDbEntity
  8
1
 62
     1
100
AcDbVertex
100
AcDb2dVertex
 10
612.1002197265625
 20
118.3135986328125
 30
0.0
  0
VERTEX
  5
FC
330
45
100
AcDbEntity
  8
1
 62
     1
100
AcDbVertex
100
AcDb2dVertex
 10
614.7216796875
 20
107.9833984375
 30
0.0
  0
VERTEX
  5
FD
330
45
100
AcDbEntity
  8
1
 62
     1
100
AcDbVertex
100
AcDb2dVertex
 10
617.4530029296875
 20
98.2025146484375
 30
0.0
  0
VERTEX
  5
FE
330
45
100
AcDbEntity
  8
1
 62
     1
100
AcDbVertex
100
AcDb2dVertex
 10
620.3125
 20
89.0625
 30
0.0
  0
VERTEX
  5
FF
330
45
100
AcDbEntity
  8
1
 62
     1
100
AcDbVertex
100
AcDb2dVertex
 10
623.3184814453125
 20
80.6549072265625
 30
0.0
  0
VERTEX
  5
100
330
45
100
AcDbEntity
  8
1
 62
     1
100
AcDbVertex
100
AcDb2dVertex
 10
626.4892578125
 20
73.0712890625
 30
0.0
  0
VERTEX
  5
101
330
45
100
AcDbEntity
  8
1
 62
     1
100
AcDbVertex
100
AcDb2dVertex
 10
629.8431396484375
 20
66.4031982421875
 30
0.0
  0
VERTEX
  5
102
330
45
100
AcDbEntity
  8
1
 62
     1
100
AcDbVertex
100
AcDb2dVertex
 10
633.3984375
 20
60.7421875
 30
0.0
  0
VERTEX
  5
103
330
45
100
AcDbEntity
  8
1
 62
     1
100
AcDbVertex
100
AcDb2dVertex
 10
637.1734619140625
 20
56.1798095703125
 30
0.0
  0
VERTEX
  5
104
330
45
100
AcDbEntity
  8
1
 62
     1
100
AcDbVertex
100
AcDb2dVertex
 10
641.1865234375
 20
52.8076171875
 30
0.0
  0
VERTEX
  5
105
330
45
100
AcDbEntity
  8
1
 62
     1
100
AcDbVertex
100
AcDb2dVertex
 10
645.4559326171875
 20
50.7171630859375
 30
0.0
  0
VERTEX
  5
106
330
45
100
AcDbEntity
  8
1
 62
     1
100
AcDbVertex
100
AcDb2dVertex
 10
650.0
 20
50.0
 30
0.0
  0
VERTEX
  5
107
330
45
100
AcDbEntity
  8
1
 62
     1
100
AcDbVertex
100
AcDb2dVertex
 10
654.5440673828125
 20
50.7171630859375
 30
0.0
  0
VERTEX
  5
108
330
45
100
AcDbEntity
  8
1
 62
     1
100
AcDbVertex
100
AcDb2dVertex
 10
658.8134765625
 20
52.8076171875
 30
0.0
  0
VERTEX
  5
109
330
45
100
AcDbEntity
  8
1
 62
     1
100
AcDbVertex
100
AcDb2dVertex
 10
662.8265380859375
 20
56.1798095703125
 30
0.0
  0
VERTEX
  5
10A
330
45
100
AcDbEntity
  8
1
 62
     1
100
AcDbVertex
100
AcDb2dVertex
 10
666.6015625
 20
60.7421875
 30
0.0
  0
VERTEX
  5
10B
330
45
100
AcDbEntity
  8
1
 62
     1
100
AcDbVertex
100
AcDb2dVertex
 10
670.1568603515625
 20
66.4031982421875
 30
0.0
  0
VERTEX
  5
10C
330
45
100
AcDbEntity
  8
1
 62
     1
100
AcDbVertex
100
AcDb2dVertex
 10
673.5107421875
 20
73.0712890625
 30
0.0
  0
VERTEX
  5
10D
330
45
100
AcDbEntity
  8
1
 62
     1
100
AcDbVertex
100
AcDb2dVertex
 10
676.6815185546875
 20
80.6549072265625
 30
0.0
  0
VERTEX
  5
10E
330
45
100
AcDbEntity
  8
1
 62
     1
100
AcDbVertex
100
AcDb2dVertex
 10
679.6875
 20
89.0625
 30
0.0
  0
VERTEX
  5
10F
330
45
100
AcDbEntity
  8
1
 62
     1
100
AcDbVertex
100
AcDb2dVertex
 10
682.5469970703125
 20
98.2025146484375
 30
0.0
  0
VERTEX
  5
110
330
45
100
AcDbEntity
  8
1
 62
     1
100
AcDbVertex
100
AcDb2dVertex
 10
685.2783203125
 20
107.9833984375
 30
0.0
  0
VERTEX
  5
111
330
45
100
AcDbEntity
  8
1
 62
     1
100
AcDbVertex
100
AcDb2dVertex
 10
687.8997802734375
 20
118.3135986328125
 30
0.0
  0
VERTEX
  5
112
330
45
100
AcDbEntity
  8
1
 62
     1
100
AcDbVertex
100
AcDb2dVertex
 10
690.4296875
 20
129.1015625
 30
0.0
  0
VERTEX
  5
113
330
45
100
AcDbEntity
  8
1
 62
     1
100
AcDbVertex
100
AcDb2dVertex
 10
692.8863525390625
 20
140.2557373046875
 30
0.0
  0
VERTEX
  5
114
330
45
100
AcDbEntity
  8
1
 62
     1
100
AcDbVertex
100
AcDb2dVertex
 10
695.2880859375
 20
151.6845703125
 30
0.0
  0
VERTEX
  5
115
330
45
100
AcDbEntity
  8
1
 62
     1
100
AcDbVertex
100
AcDb2dVertex
 10
697.6531982421875
 20
163.2965087890625
 30
0.0
  0
VERTEX
  5
116
330
45
100
AcDbEntity
  8
1
 62
     1
100
AcDbVertex
100
AcDb2dVertex
 10
700.0
 20
175.0
 30
0.0
  0
VERTEX
  5
117
330
45
100
AcDbEntity
  8
1
 62
     1
100
AcDbVertex
100
AcDb2dVertex
 10
702.3468017578125
 20
186.7034912109375
 30
0.0
  0
VERTEX
  5
118
330
45
100
AcDbEntity
  8
1
 62
     1
100
AcDbVertex
100
AcDb2dVertex
 10
704.7119140625
 20
198.3154296875
 30
0.0
  0
VERTEX
  5
119
330
45
100
AcDbEntity
  8
1
 62
     1
100
AcDbVertex
100
AcDb2dVertex
 10
707.1136474609375
 20
209.7442626953125
 30
0.0
  0
VERTEX
  5
11A
330
45
100
AcDbEntity
  8
1
 62
     1
100
AcDbVertex
100
AcDb2dVertex
 10
709.5703125
 20
220.8984375
 30
0.0
  0
VERTEX
  5
11B
330
45
100
AcDbEntity
  8
1
 62
     1
100
AcDbVertex
100
AcDb2dVertex
 10
712.1002197265625
 20
231.6864013671875
 30
0.0
  0
VERTEX
  5
11C
330
45
100
AcDbEntity
  8
1
 62
     1
100
AcDbVertex
100
AcDb2dVertex
 10
714.7216796875
 20
242.0166015625
 30
0.0
  0
VERTEX
  5
11D
330
45
100
AcDbEntity
  8
1
 62
     1
100
AcDbVertex
100
AcDb2dVertex
 10
717.4530029296875
 20
251.7974853515625
 30
0.0
  0
VERTEX
  5
11E
330
45
100
AcDbEntity
  8
1
 62
     1
100
AcDbVertex
100
AcDb2dVertex
 10
720.3125
 20
260.9375
 30
0.0
  0
VERTEX
  5
11F
330
45
100
AcDbEntity
  8
1
 62
     1
100
AcDbVertex
100
AcDb2dVertex
 10
723.3184814453125
 20
269.3450927734375
 30
0.0
  0
VERTEX
  5
120
330
45
100
AcDbEntity
  8
1
 62
     1
100
AcDbVertex
100
AcDb2dVertex
 10
726.4892578125
 20
276.9287109375
 30
0.0
  0
VERTEX
  5
121
330
45
100
AcDbEntity
  8
1
 62
     1
100
AcDbVertex
100
AcDb2dVertex
 10
729.8431396484375
 20
283.5968017578125
 30
0.0
  0
VERTEX
  5
122
330
45
100
AcDbEntity
  8
1
 62
     1
100
AcDbVertex
100
AcDb2dVertex
 10
733.3984375
 20
289.2578125
 30
0.0
  0
VERTEX
  5
123
330
45
100
AcDbEntity
  8
1
 62
     1
100
AcDbVertex
100
AcDb2dVertex
 10
737.1734619140625
 20
293.8201904296875
 30
0.0
  0
VERTEX
  5
124
330
45
100
AcDbEntity
  8
1
 62
     1
100
AcDbVertex
100
AcDb2dVertex
 10
741.1865234375
 20
297.1923828125
 30
0.0
  0
VERTEX
  5
125
330
45
100
AcDbEntity
  8
1
 62
     1
100
AcDbVertex
100
AcDb2dVertex
 10
745.4559326171875
 20
299.2828369140625
 30
0.0
  0
VERTEX
  5
126
330
45
100
AcDbEntity
  8
1
 62
     1
100
AcDbVertex
100
AcDb2dVertex
 10
750.0
 20
300.0
 30
0.0
  0
VERTEX
  5
127
330
45
100
AcDbEntity
  8
1
 62
     1
100
AcDbVertex
100
AcDb2dVertex
 10
754.5440673828125
 20
299.2828369140625
 30
0.0
  0
VERTEX
  5
128
330
45
100
AcDbEntity
  8
1
 62
     1
100
AcDbVertex
100
AcDb2dVertex
 10
758.8134765625
 20
297.1923828125
 30
0.0
  0
VERTEX
  5
129
330
45
100
AcDbEntity
  8
1
 62
     1
100
AcDbVertex
100
AcDb2dVertex
 10
762.8265380859375
 20
293.8201904296875
 30
0.0
  0
VERTEX
  5
12A
330
45
100
AcDbEntity
  8
1
 62
     1
100
AcDbVertex
100
AcDb2dVertex
 10
766.6015625
 20
289.2578125
 30
0.0
  0
VERTEX
  5
12B
330
45
100
AcDbEntity
  8
1
 62
     1
100
AcDbVertex
100
AcDb2dVertex
 10
770.1568603515625
 20
283.5968017578125
 30
0.0
  0
VERTEX
  5
12C
330
45
100
AcDbEntity
  8
1
 62
     1
100
AcDbVertex
100
AcDb2dVertex
 10
773.5107421875
 20
276.9287109375
 30
0.0
  0
VERTEX
  5
12D
330
45
100
AcDbEntity
  8
1
 62
     1
100
AcDbVertex
100
AcDb2dVertex
 10
776.6815185546875
 20
269.3450927734375
 30
0.0
  0
VERTEX
  5
12E
330
45
100
AcDbEntity
  8
1
 62
     1
100
AcDbVertex
100
AcDb2dVertex
 10
779.6875
 20
260.9375
 30
0.0
  0
VERTEX
  5
12F
330
45
100
AcDbEntity
  8
1
 62
     1
100
AcDbVertex
100
AcDb2dVertex
 10
782.5469970703125
 20
251.7974853515625
 30
0.0
  0
VERTEX
  5
130
330
45
100
AcDbEntity
  8
1
 62
     1
100
AcDbVertex
100
AcDb2dVertex
 10
785.2783203125
 20
242.0166015625
 30
0.0
  0
VERTEX
  5
131
330
45
100
AcDbEntity
  8
1
 62
     1
100
AcDbVertex
100
AcDb2dVertex
 10
787.8997802734375
 20
231.6864013671875
 30
0.0
  0
VERTEX
  5
132
330
45
100
AcDbEntity
  8
1
 62
     1
100
AcDbVertex
100
AcDb2dVertex
 10
790.4296875
 20
220.8984375
 30
0.0
  0
VERTEX
  5
133
330
45
100
AcDbEntity
  8
1
 62
     1
100
AcDbVertex
100
AcDb2dVertex
 10
792.8863525390625
 20
209.7442626953125
 30
0.0
  0
VERTEX
  5
134
330
45
100
AcDbEntity
  8
1
 62
     1
100
AcDbVertex
100
AcDb2dVertex
 10
795.2880859375
 20
198.3154296875
 30
0.0
  0
VERTEX
  5
135
330
45
100
AcDbEntity
  8
1
 62
     1
100
AcDbVertex
100
AcDb2dVertex
 10
797.6531982421875
 20
186.7034912109375
 30
0.0
  0
VERTEX
  5
136
330
45
100
AcDbEntity
  8
1
 62
     1
100
AcDbVertex
100
AcDb2dVertex
 10
800.0
 20
175.0
 30
0.0
  0
VERTEX
  5
137
330
45
100
AcDbEntity
  8
1
 62
     1
100
AcDbVertex
100
AcDb2dVertex
 10
802.3468017578125
 20
163.2965087890625
 30
0.0
  0
VERTEX
  5
138
330
45
100
AcDbEntity
  8
1
 62
     1
100
AcDbVertex
100
AcDb2dVertex
 10
804.7119140625
 20
151.6845703125
 30
0.0
  0
VERTEX
  5
139
330
45
100
AcDbEntity
  8
1
 62
     1
100
AcDbVertex
100
AcDb2dVertex
 10
807.1136474609375
 20
140.2557373046875
 30
0.0
  0
VERTEX
  5
13A
330
45
100
AcDbEntity
  8
1
 62
     1
100
AcDbVertex
100
AcDb2dVertex
 10
809.5703125
 20
129.1015625
 30
0.0
  0
VERTEX
  5
13B
330
45
100
AcDbEntity
  8
1
 62
     1
100
AcDbVertex
100
AcDb2dVertex
 10
812.1002197265625
 20
118.3135986328125
 30
0.0
  0
VERTEX
  5
13C
330
45
100
AcDbEntity
  8
1
 62
     1
100
AcDbVertex
100
AcDb2dVertex
 10
814.7216796875
 20
107.9833984375
 30
0.0
  0
VERTEX
  5
13D
330
45
100
AcDbEntity
  8
1
 62
     1
100
AcDbVertex
100
AcDb2dVertex
 10
817.4530029296875
 20
98.2025146484375
 30
0.0
  0
VERTEX
  5
13E
330
45
100
AcDbEntity
  8
1
 62
     1
100
AcDbVertex
100
AcDb2dVertex
 10
820.3125
 20
89.0625
 30
0.0
  0
VERTEX
  5
13F
330
45
100
AcDbEntity
  8
1
 62
     1
100
AcDbVertex
100
AcDb2dVertex
 10
823.3184814453125
 20
80.6549072265625
 30
0.0
  0
VERTEX
  5
140
330
45
100
AcDbEntity
  8
1
 62
     1
100
AcDbVertex
100
AcDb2dVertex
 10
826.4892578125
 20
73.0712890625
 30
0.0
  0
VERTEX
  5
141
330
45
100
AcDbEntity
  8
1
 62
     1
100
AcDbVertex
100
AcDb2dVertex
 10
829.8431396484375
 20
66.4031982421875
 30
0.0
  0
VERTEX
  5
142
330
45
100
AcDbEntity
  8
1
 62
     1
100
AcDbVertex
100
AcDb2dVertex
 10
833.3984375
 20
60.7421875
 30
0.0
  0
VERTEX
  5
143
330
45
100
AcDbEntity
  8
1
 62
     1
100
AcDbVertex
100
AcDb2dVertex
 10
837.1734619140625
 20
56.1798095703125
 30
0.0
  0
VERTEX
  5
144
330
45
100
AcDbEntity
  8
1
 62
     1
100
AcDbVertex
100
AcDb2dVertex
 10
841.1865234375
 20
52.8076171875
 30
0.0
  0
VERTEX
  5
145
330
45
100
AcDbEntity
  8
1
 62
     1
100
AcDbVertex
100
AcDb2dVertex
 10
845.4559326171875
 20
50.7171630859375
 30
0.0
  0
VERTEX
  5
146
330
45
100
AcDbEntity
  8
1
 62
     1
100
AcDbVertex
100
AcDb2dVertex
 10
850.0
 20
50.0
 30
0.0
  0
VERTEX
  5
147
330
45
100
AcDbEntity
  8
1
 62
     1
100
AcDbVertex
100
AcDb2dVertex
 10
854.5440673828125
 20
50.7171630859375
 30
0.0
  0
VERTEX
  5
148
330
45
100
AcDbEntity
  8
1
 62
     1
100
AcDbVertex
100
AcDb2dVertex
 10
858.8134765625
 20
52.8076171875
 30
0.0
  0
VERTEX
  5
149
330
45
100
AcDbEntity
  8
1
 62
     1
100
AcDbVertex
100
AcDb2dVertex
 10
862.8265380859375
 20
56.1798095703125
 30
0.0
  0
VERTEX
  5
14A
330
45
100
AcDbEntity
  8
1
 62
     1
100
AcDbVertex
100
AcDb2dVertex
 10
866.6015625
 20
60.7421875
 30
0.0
  0
VERTEX
  5
14B
330
45
100
AcDbEntity
  8
1
 62
     1
100
AcDbVertex
100
AcDb2dVertex
 10
870.1568603515625
 20
66.4031982421875
 30
0.0
  0
VERTEX
  5
14C
330
45
100
AcDbEntity
  8
1
 62
     1
100
AcDbVertex
100
AcDb2dVertex
 10
873.5107421875
 20
73.0712890625
 30
0.0
  0
VERTEX
  5
14D
330
45
100
AcDbEntity
  8
1
 62
     1
100
AcDbVertex
100
AcDb2dVertex
 10
876.6815185546875
 20
80.6549072265625
 30
0.0
  0
VERTEX
  5
14E
330
45
100
AcDbEntity
  8
1
 62
     1
100
AcDbVertex
100
AcDb2dVertex
 10
879.6875
 20
89.0625
 30
0.0
  0
VERTEX
  5
14F
330
45
100
AcDbEntity
  8
1
 62
     1
100
AcDbVertex
100
AcDb2dVertex
 10
882.5469970703125
 20
98.2025146484375
 30
0.0
  0
VERTEX
  5
150
330
45
100
AcDbEntity
  8
1
 62
     1
100
AcDbVertex
100
AcDb2dVertex
 10
885.2783203125
 20
107.9833984375
 30
0.0
  0
VERTEX
  5
151
330
45
100
AcDbEntity
  8
1
 62
     1
100
AcDbVertex
100
AcDb2dVertex
 10
887.8997802734375
 20
118.3135986328125
 30
0.0
  0
VERTEX
  5
152
330
45
100
AcDbEntity
  8
1
 62
     1
100
AcDbVertex
100
AcDb2dVertex
 10
890.4296875
 20
129.1015625
 30
0.0
  0
VERTEX
  5
153
330
45
100
AcDbEntity
  8
1
 62
     1
100
AcDbVertex
100
AcDb2dVertex
 10
892.8863525390625
 20
140.2557373046875
 30
0.0
  0
VERTEX
  5
154
330
45
100
AcDbEntity
  8
1
 62
     1
100
AcDbVertex
100
AcDb2dVertex
 10
895.2880859375
 20
151.6845703125
 30
0.0
  0
VERTEX
  5
155
330
45
100
AcDbEntity
  8
1
 62
     1
100
AcDbVertex
100
AcDb2dVertex
 10
897.6531982421875
 20
163.2965087890625
 30
0.0
  0
VERTEX
  5
156
330
45
100
AcDbEntity
  8
1
 62
     1
100
AcDbVertex
100
AcDb2dVertex
 10
900.0
 20
175.0
 30
0.0
  0
VERTEX
  5
157
330
45
100
AcDbEntity
  8
1
 62
     1
100
AcDbVertex
100
AcDb2dVertex
 10
902.3468017578125
 20
186.7034912109375
 30
0.0
  0
VERTEX
  5
158
330
45
100
AcDbEntity
  8
1
 62
     1
100
AcDbVertex
100
AcDb2dVertex
 10
904.7119140625
 20
198.3154296875
 30
0.0
  0
VERTEX
  5
159
330
45
100
AcDbEntity
  8
1
 62
     1
100
AcDbVertex
100
AcDb2dVertex
 10
907.1136474609375
 20
209.7442626953125
 30
0.0
  0
VERTEX
  5
15A
330
45
100
AcDbEntity
  8
1
 62
     1
100
AcDbVertex
100
AcDb2dVertex
 10
909.5703125
 20
220.8984375
 30
0.0
  0
VERTEX
  5
15B
330
45
100
AcDbEntity
  8
1
 62
     1
100
AcDbVertex
100
AcDb2dVertex
 10
912.1002197265625
 20
231.6864013671875
 30
0.0
  0
VERTEX
  5
15C
330
45
100
AcDbEntity
  8
1
 62
     1
100
AcDbVertex
100
AcDb2dVertex
 10
914.7216796875
 20
242.0166015625
 30
0.0
  0
VERTEX
  5
15D
330
45
100
AcDbEntity
  8
1
 62
     1
100
AcDbVertex
100
AcDb2dVertex
 10
917.4530029296875
 20
251.7974853515625
 30
0.0
  0
VERTEX
  5
15E
330
45
100
AcDbEntity
  8
1
 62
     1
100
AcDbVertex
100
AcDb2dVertex
 10
920.3125
 20
260.9375
 30
0.0
  0
VERTEX
  5
15F
330
45
100
AcDbEntity
  8
1
 62
     1
100
AcDbVertex
100
AcDb2dVertex
 10
923.3184814453125
 20
269.3450927734375
 30
0.0
  0
VERTEX
  5
160
330
45
100
AcDbEntity
  8
1
 62
     1
100
AcDbVertex
100
AcDb2dVertex
 10
926.4892578125
 20
276.9287109375
 30
0.0
  0
VERTEX
  5
161
330
45
100
AcDbEntity
  8
1
 62
     1
100
AcDbVertex
100
AcDb2dVertex
 10
929.8431396484375
 20
283.5968017578125
 30
0.0
  0
VERTEX
  5
162
330
45
100
AcDbEntity
  8
1
 62
     1
100
AcDbVertex
100
AcDb2dVertex
 10
933.3984375
 20
289.2578125
 30
0.0
  0
VERTEX
  5
163
330
45
100
AcDbEntity
  8
1
 62
     1
100
AcDbVertex
100
AcDb2dVertex
 10
937.1734619140625
 20
293.8201904296875
 30
0.0
  0
VERTEX
  5
164
330
45
100
AcDbEntity
  8
1
 62
     1
100
AcDbVertex
100
AcDb2dVertex
 10
941.1865234375
 20
297.1923828125
 30
0.0
  0
VERTEX
  5
165
330
45
100
AcDbEntity
  8
1
 62
     1
100
AcDbVertex
100
AcDb2dVertex
 10
945.4559326171875
 20
299.2828369140625
 30
0.0
  0
VERTEX
  5
166
330
45
100
AcDbEntity
  8
1
 62
     1
100
AcDbVertex
100
AcDb2dVertex
 10
950.0
 20
300.0
 30
0.0
  0
VERTEX
  5
167
330
45
100
AcDbEntity
  8
1
 62
     1
100
AcDbVertex
100
AcDb2dVertex
 10
954.5440673828125
 20
299.2828369140625
 30
0.0
  0
VERTEX
  5
168
330
45
100
AcDbEntity
  8
1
 62
     1
100
AcDbVertex
100
AcDb2dVertex
 10
958.8134765625
 20
297.1923828125
 30
0.0
  0
VERTEX
  5
169
330
45
100
AcDbEntity
  8
1
 62
     1
100
AcDbVertex
100
AcDb2dVertex
 10
962.8265380859375
 20
293.8201904296875
 30
0.0
  0
VERTEX
  5
16A
330
45
100
AcDbEntity
  8
1
 62
     1
100
AcDbVertex
100
AcDb2dVertex
 10
966.6015625
 20
289.2578125
 30
0.0
  0
VERTEX
  5
16B
330
45
100
AcDbEntity
  8
1
 62
     1
100
AcDbVertex
100
AcDb2dVertex
 10
970.1568603515625
 20
283.5968017578125
 30
0.0
  0
VERTEX
  5
16C
330
45
100
AcDbEntity
  8
1
 62
     1
100
AcDbVertex
100
AcDb2dVertex
 10
973.5107421875
 20
276.9287109375
 30
0.0
  0
VERTEX
  5
16D
330
45
100
AcDbEntity
  8
1
 62
     1
100
AcDbVertex
100
AcDb2dVertex
 10
976.6815185546875
 20
269.3450927734375
 30
0.0
  0
VERTEX
  5
16E
330
45
100
AcDbEntity
  8
1
 62
     1
100
AcDbVertex
100
AcDb2dVertex
 10
979.6875
 20
260.9375
 30
0.0
  0
VERTEX
  5
16F
330
45
100
AcDbEntity
  8
1
 62
     1
100
AcDbVertex
100
AcDb2dVertex
 10
982.5469970703125
 20
251.7974853515625
 30
0.0
  0
VERTEX
  5
170
330
45
100
AcDbEntity
  8
1
 62
     1
100
AcDbVertex
100
AcDb2dVertex
 10
985.2783203125
 20
242.0166015625
 30
0.0
  0
VERTEX
  5
171
330
45
100
AcDbEntity
  8
1
 62
     1
100
AcDbVertex
100
AcDb2dVertex
 10
987.8997802734375
 20
231.6864013671875
 30
0.0
  0
VERTEX
  5
172
330
45
100
AcDbEntity
  8
1
 62
     1
100
AcDbVertex
100
AcDb2dVertex
 10
990.4296875
 20
220.8984375
 30
0.0
  0
VERTEX
  5
173
330
45
100
AcDbEntity
  8
1
 62
     1
100
AcDbVertex
100
AcDb2dVertex
 10
992.8863525390625
 20
209.7442626953125
 30
0.0
  0
VERTEX
  5
174
330
45
100
AcDbEntity
  8
1
 62
     1
100
AcDbVertex
100
AcDb2dVertex
 10
995.2880859375
 20
198.3154296875
 30
0.0
  0
VERTEX
  5
175
330
45
100
AcDbEntity
  8
1
 62
     1
100
AcDbVertex
100
AcDb2dVertex
 10
997.6531982421875
 20
186.7034912109375
 30
0.0
  0
VERTEX
  5
176
330
45
100
AcDbEntity
  8
1
 62
     1
100
AcDbVertex
100
AcDb2dVertex
 10
1000.0
 20
175.0
 30
0.0
  0
VERTEX
  5
177
330
45
100
AcDbEntity
  8
1
 62
     1
100
AcDbVertex
100
AcDb2dVertex
 10
1002.346801757812
 20
163.2965087890625
 30
0.0
  0
VERTEX
  5
178
330
45
100
AcDbEntity
  8
1
 62
     1
100
AcDbVertex
100
AcDb2dVertex
 10
1004.7119140625
 20
151.6845703125
 30
0.0
  0
VERTEX
  5
179
330
45
100
AcDbEntity
  8
1
 62
     1
100
AcDbVertex
100
AcDb2dVertex
 10
1007.113647460938
 20
140.2557373046875
 30
0.0
  0
VERTEX
  5
17A
330
45
100
AcDbEntity
  8
1
 62
     1
100
AcDbVertex
100
AcDb2dVertex
 10
1009.5703125
 20
129.1015625
 30
0.0
  0
VERTEX
  5
17B
330
45
100
AcDbEntity
  8
1
 62
     1
100
AcDbVertex
100
AcDb2dVertex
 10
1012.100219726562
 20
118.3135986328125
 30
0.0
  0
VERTEX
  5
17C
330
45
100
AcDbEntity
  8
1
 62
     1
100
AcDbVertex
100
AcDb2dVertex
 10
1014.7216796875
 20
107.9833984375
 30
0.0
  0
VERTEX
  5
17D
330
45
100
AcDbEntity
  8
1
 62
     1
100
AcDbVertex
100
AcDb2dVertex
 10
1017.453002929688
 20
98.2025146484375
 30
0.0
  0
VERTEX
  5
17E
330
45
100
AcDbEntity
  8
1
 62
     1
100
AcDbVertex
100
AcDb2dVertex
 10
1020.3125
 20
89.0625
 30
0.0
  0
VERTEX
  5
17F
330
45
100
AcDbEntity
  8
1
 62
     1
100
AcDbVertex
100
AcDb2dVertex
 10
1023.318481445312
 20
80.6549072265625
 30
0.0
  0
VERTEX
  5
180
330
45
100
AcDbEntity
  8
1
 62
     1
100
AcDbVertex
100
AcDb2dVertex
 10
1026.4892578125
 20
73.0712890625
 30
0.0
  0
VERTEX
  5
181
330
45
100
AcDbEntity
  8
1
 62
     1
100
AcDbVertex
100
AcDb2dVertex
 10
1029.843139648438
 20
66.4031982421875
 30
0.0
  0
VERTEX
  5
182
330
45
100
AcDbEntity
  8
1
 62
     1
100
AcDbVertex
100
AcDb2dVertex
 10
1033.3984375
 20
60.7421875
 30
0.0
  0
VERTEX
  5
183
330
45
100
AcDbEntity
  8
1
 62
     1
100
AcDbVertex
100
AcDb2dVertex
 10
1037.173461914062
 20
56.1798095703125
 30
0.0
  0
VERTEX
  5
184
330
45
100
AcDbEntity
  8
1
 62
     1
100
AcDbVertex
100
AcDb2dVertex
 10
1041.1865234375
 20
52.8076171875
 30
0.0
  0
VERTEX
  5
185
330
45
100
AcDbEntity
  8
1
 62
     1
100
AcDbVertex
100
AcDb2dVertex
 10
1045.455932617188
 20
50.7171630859375
 30
0.0
  0
VERTEX
  5
186
330
45
100
AcDbEntity
  8
1
 62
     1
100
AcDbVertex
100
AcDb2dVertex
 10
1050.0
 20
50.0
 30
0.0
  0
VERTEX
  5
187
330
45
100
AcDbEntity
  8
1
 62
     1
100
AcDbVertex
100
AcDb2dVertex
 10
1054.544067382812
 20
50.7171630859375
 30
0.0
  0
VERTEX
  5
188
330
45
100
AcDbEntity
  8
1
 62
     1
100
AcDbVertex
100
AcDb2dVertex
 10
1058.8134765625
 20
52.8076171875
 30
0.0
  0
VERTEX
  5
189
330
45
100
AcDbEntity
  8
1
 62
     1
100
AcDbVertex
100
AcDb2dVertex
 10
1062.826538085938
 20
56.1798095703125
 30
0.0
  0
VERTEX
  5
18A
330
45
100
AcDbEntity
  8
1
 62
     1
100
AcDbVertex
100
AcDb2dVertex
 10
1066.6015625
 20
60.7421875
 30
0.0
  0
VERTEX
  5
18B
330
45
100
AcDbEntity
  8
1
 62
     1
100
AcDbVertex
100
AcDb2dVertex
 10
1070.156860351562
 20
66.4031982421875
 30
0.0
  0
VERTEX
  5
18C
330
45
100
AcDbEntity
  8
1
 62
     1
100
AcDbVertex
100
AcDb2dVertex
 10
1073.5107421875
 20
73.0712890625
 30
0.0
  0
VERTEX
  5
18D
330
45
100
AcDbEntity
  8
1
 62
     1
100
AcDbVertex
100
AcDb2dVertex
 10
1076.681518554688
 20
80.6549072265625
 30
0.0
  0
VERTEX
  5
18E
330
45
100
AcDbEntity
  8
1
 62
     1
100
AcDbVertex
100
AcDb2dVertex
 10
1079.6875
 20
89.0625
 30
0.0
  0
VERTEX
  5
18F
330
45
100
AcDbEntity
  8
1
 62
     1
100
AcDbVertex
100
AcDb2dVertex
 10
1082.546997070312
 20
98.2025146484375
 30
0.0
  0
VERTEX
  5
190
330
45
100
AcDbEntity
  8
1
 62
     1
100
AcDbVertex
100
AcDb2dVertex
 10
1085.2783203125
 20
107.9833984375
 30
0.0
  0
VERTEX
  5
191
330
45
100
AcDbEntity
  8
1
 62
     1
100
AcDbVertex
100
AcDb2dVertex
 10
1087.899780273438
 20
118.3135986328125
 30
0.0
  0
VERTEX
  5
192
330
45
100
AcDbEntity
  8
1
 62
     1
100
AcDbVertex
100
AcDb2dVertex
 10
1090.4296875
 20
129.1015625
 30
0.0
  0
VERTEX
  5
193
330
45
100
AcDbEntity
  8
1
 62
     1
100
AcDbVertex
100
AcDb2dVertex
 10
1092.886352539062
 20
140.2557373046875
 30
0.0
  0
VERTEX
  5
194
330
45
100
AcDbEntity
  8
1
 62
     1
100
AcDbVertex
100
AcDb2dVertex
 10
1095.2880859375
 20
151.6845703125
 30
0.0
  0
VERTEX
  5
195
330
45
100
AcDbEntity
  8
1
 62
     1
100
AcDbVertex
100
AcDb2dVertex
 10
1097.653198242188
 20
163.2965087890625
 30
0.0
  0
VERTEX
  5
196
330
45
100
AcDbEntity
  8
1
 62
     1
100
AcDbVertex
100
AcDb2dVertex
 10
1100.0
 20
175.0
 30
0.0
  0
VERTEX
  5
197
330
45
100
AcDbEntity
  8
1
 62
     1
100
AcDbVertex
100
AcDb2dVertex
 10
1102.346801757812
 20
186.7034912109375
 30
0.0
  0
VERTEX
  5
198
330
45
100
AcDbEntity
  8
1
 62
     1
100
AcDbVertex
100
AcDb2dVertex
 10
1104.7119140625
 20
198.3154296875
 30
0.0
  0
VERTEX
  5
199
330
45
100
AcDbEntity
  8
1
 62
     1
100
AcDbVertex
100
AcDb2dVertex
 10
1107.113647460938
 20
209.7442626953125
 30
0.0
  0
VERTEX
  5
19A
330
45
100
AcDbEntity
  8
1
 62
     1
100
AcDbVertex
100
AcDb2dVertex
 10
1109.5703125
 20
220.8984375
 30
0.0
  0
VERTEX
  5
19B
330
45
100
AcDbEntity
  8
1
 62
     1
100
AcDbVertex
100
AcDb2dVertex
 10
1112.100219726562
 20
231.6864013671875
 30
0.0
  0
VERTEX
  5
19C
330
45
100
AcDbEntity
  8
1
 62
     1
100
AcDbVertex
100
AcDb2dVertex
 10
1114.7216796875
 20
242.0166015625
 30
0.0
  0
VERTEX
  5
19D
330
45
100
AcDbEntity
  8
1
 62
     1
100
AcDbVertex
100
AcDb2dVertex
 10
1117.453002929688
 20
251.7974853515625
 30
0.0
  0
VERTEX
  5
19E
330
45
100
AcDbEntity
  8
1
 62
     1
100
AcDbVertex
100
AcDb2dVertex
 10
1120.3125
 20
260.9375
 30
0.0
  0
VERTEX
  5
19F
330
45
100
AcDbEntity
  8
1
 62
     1
100
AcDbVertex
100
AcDb2dVertex
 10
1123.318481445312
 20
269.3450927734375
 30
0.0
  0
VERTEX
  5
1A0
330
45
100
AcDbEntity
  8
1
 62
     1
100
AcDbVertex
100
AcDb2dVertex
 10
1126.4892578125
 20
276.9287109375
 30
0.0
  0
VERTEX
  5
1A1
330
45
100
AcDbEntity
  8
1
 62
     1
100
AcDbVertex
100
AcDb2dVertex
 10
1129.843139648438
 20
283.5968017578125
 30
0.0
  0
VERTEX
  5
1A2
330
45
100
AcDbEntity
  8
1
 62
     1
100
AcDbVertex
100
AcDb2dVertex
 10
1133.3984375
 20
289.2578125
 30
0.0
  0
VERTEX
  5
1A3
330
45
100
AcDbEntity
  8
1
 62
     1
100
AcDbVertex
100
AcDb2dVertex
 10
1137.173461914062
 20
293.8201904296875
 30
0.0
  0
VERTEX
  5
1A4
330
45
100
AcDbEntity
  8
1
 62
     1
100
AcDbVertex
100
AcDb2dVertex
 10
1141.1865234375
 20
297.1923828125
 30
0.0
  0
VERTEX
  5
1A5
330
45
100
AcDbEntity
  8
1
 62
     1
100
AcDbVertex
100
AcDb2dVertex
 10
1145.455932617188
 20
299.2828369140625
 30
0.0
  0
VERTEX
  5
1A6
330
45
100
AcDbEntity
  8
1
 62
     1
100
AcDbVertex
100
AcDb2dVertex
 10
1150.0
 20
300.0
 30
0.0
  0
VERTEX
  5
1A7
330
45
100
AcDbEntity
  8
1
 62
     1
100
AcDbVertex
100
AcDb2dVertex
 10
1154.544067382812
 20
299.2828369140625
 30
0.0
  0
VERTEX
  5
1A8
330
45
100
AcDbEntity
  8
1
 62
     1
100
AcDbVertex
100
AcDb2dVertex
 10
1158.8134765625
 20
297.1923828125
 30
0.0
  0
VERTEX
  5
1A9
330
45
100
AcDbEntity
  8
1
 62
     1
100
AcDbVertex
100
AcDb2dVertex
 10
1162.826538085938
 20
293.8201904296875
 30
0.0
  0
VERTEX
  5
1AA
330
45
100
AcDbEntity
  8
1
 62
     1
100
AcDbVertex
100
AcDb2dVertex
 10
1166.6015625
 20
289.2578125
 30
0.0
  0
VERTEX
  5
1AB
330
45
100
AcDbEntity
  8
1
 62
     1
100
AcDbVertex
100
AcDb2dVertex
 10
1170.156860351562
 20
283.5968017578125
 30
0.0
  0
VERTEX
  5
1AC
330
45
100
AcDbEntity
  8
1
 62
     1
100
AcDbVertex
100
AcDb2dVertex
 10
1173.5107421875
 20
276.9287109375
 30
0.0
  0
VERTEX
  5
1AD
330
45
100
AcDbEntity
  8
1
 62
     1
100
AcDbVertex
100
AcDb2dVertex
 10
1176.681518554688
 20
269.3450927734375
 30
0.0
  0
VERTEX
  5
1AE
330
45
100
AcDbEntity
  8
1
 62
     1
100
AcDbVertex
100
AcDb2dVertex
 10
1179.6875
 20
260.9375
 30
0.0
  0
VERTEX
  5
1AF
330
45
100
AcDbEntity
  8
1
 62
     1
100
AcDbVertex
100
AcDb2dVertex
 10
1182.546997070312
 20
251.7974853515625
 30
0.0
  0
VERTEX
  5
1B0
330
45
100
AcDbEntity
  8
1
 62
     1
100
AcDbVertex
100
AcDb2dVertex
 10
1185.2783203125
 20
242.0166015625
 30
0.0
  0
VERTEX
  5
1B1
330
45
100
AcDbEntity
  8
1
 62
     1
100
AcDbVertex
100
AcDb2dVertex
 10
1187.899780273438
 20
231.6864013671875
 30
0.0
  0
VERTEX
  5
1B2
330
45
100
AcDbEntity
  8
1
 62
     1
100
AcDbVertex
100
AcDb2dVertex
 10
1190.4296875
 20
220.8984375
 30
0.0
  0
VERTEX
  5
1B3
330
45
100
AcDbEntity
  8
1
 62
     1
100
AcDbVertex
100
AcDb2dVertex
 10
1192.886352539062
 20
209.7442626953125
 30
0.0
  0
VERTEX
  5
1B4
330
45
100
AcDbEntity
  8
1
 62
     1
100
AcDbVertex
100
AcDb2dVertex
 10
1195.2880859375
 20
198.3154296875
 30
0.0
  0
VERTEX
  5
1B5
330
45
100
AcDbEntity
  8
1
 62
     1
100
AcDbVertex
100
AcDb2dVertex
 10
1197.653198242188
 20
186.7034912109375
 30
0.0
  0
VERTEX
  5
1B6
330
45
100
AcDbEntity
  8
1
 62
     1
100
AcDbVertex
100
AcDb2dVertex
 10
1200.0
 20
175.0
 30
0.0
  0
VERTEX
  5
1B7
330
45
100
AcDbEntity
  8
1
 62
     1
100
AcDbVertex
100
AcDb2dVertex
 10
1202.346801757812
 20
163.2965087890625
 30
0.0
  0
VERTEX
  5
1B8
330
45
100
AcDbEntity
  8
1
 62
     1
100
AcDbVertex
100
AcDb2dVertex
 10
1204.7119140625
 20
151.6845703125
 30
0.0
  0
VERTEX
  5
1B9
330
45
100
AcDbEntity
  8
1
 62
     1
100
AcDbVertex
100
AcDb2dVertex
 10
1207.113647460938
 20
140.2557373046875
 30
0.0
  0
VERTEX
  5
1BA
330
45
100
AcDbEntity
  8
1
 62
     1
100
AcDbVertex
100
AcDb2dVertex
 10
1209.5703125
 20
129.1015625
 30
0.0
  0
VERTEX
  5
1BB
330
45
100
AcDbEntity
  8
1
 62
     1
100
AcDbVertex
100
AcDb2dVertex
 10
1212.100219726562
 20
118.3135986328125
 30
0.0
  0
VERTEX
  5
1BC
330
45
100
AcDbEntity
  8
1
 62
     1
100
AcDbVertex
100
AcDb2dVertex
 10
1214.7216796875
 20
107.9833984375
 30
0.0
  0
VERTEX
  5
1BD
330
45
100
AcDbEntity
  8
1
 62
     1
100
AcDbVertex
100
AcDb2dVertex
 10
1217.453002929688
 20
98.2025146484375
 30
0.0
  0
VERTEX
  5
1BE
330
45
100
AcDbEntity
  8
1
 62
     1
100
AcDbVertex
100
AcDb2dVertex
 10
1220.3125
 20
89.0625
 30
0.0
  0
VERTEX
  5
1BF
330
45
100
AcDbEntity
  8
1
 62
     1
100
AcDbVertex
100
AcDb2dVertex
 10
1223.318481445312
 20
80.6549072265625
 30
0.0
  0
VERTEX
  5
1C0
330
45
100
AcDbEntity
  8
1
 62
     1
100
AcDbVertex
100
AcDb2dVertex
 10
1226.4892578125
 20
73.0712890625
 30
0.0
  0
VERTEX
  5
1C1
330
45
100
AcDbEntity
  8
1
 62
     1
100
AcDbVertex
100
AcDb2dVertex
 10
1229.843139648438
 20
66.4031982421875
 30
0.0
  0
VERTEX
  5
1C2
330
45
100
AcDbEntity
  8
1
 62
     1
100
AcDbVertex
100
AcDb2dVertex
 10
1233.3984375
 20
60.7421875
 30
0.0
  0
VERTEX
  5
1C3
330
45
100
AcDbEntity
  8
1
 62
     1
100
AcDbVertex
100
AcDb2dVertex
 10
1237.173461914062
 20
56.1798095703125
 30
0.0
  0
VERTEX
  5
1C4
330
45
100
AcDbEntity
  8
1
 62
     1
100
AcDbVertex
100
AcDb2dVertex
 10
1241.1865234375
 20
52.8076171875
 30
0.0
  0
VERTEX
  5
1C5
330
45
100
AcDbEntity
  8
1
 62
     1
100
AcDbVertex
100
AcDb2dVertex
 10
1245.455932617188
 20
50.7171630859375
 30
0.0
  0
VERTEX
  5
1C6
330
45
100
AcDbEntity
  8
1
 62
     1
100
AcDbVertex
100
AcDb2dVertex
 10
1250.0
 20
50.0
 30
0.0
  0
VERTEX
  5
1C7
330
45
100
AcDbEntity
  8
1
 62
     1
100
AcDbVertex
100
AcDb2dVertex
 10
1254.544067382812
 20
50.7171630859375
 30
0.0
  0
VERTEX
  5
1C8
330
45
100
AcDbEntity
  8
1
 62
     1
100
AcDbVertex
100
AcDb2dVertex
 10
1258.8134765625
 20
52.8076171875
 30
0.0
  0
VERTEX
  5
1C9
330
45
100
AcDbEntity
  8
1
 62
     1
100
AcDbVertex
100
AcDb2dVertex
 10
1262.826538085938
 20
56.1798095703125
 30
0.0
  0
VERTEX
  5
1CA
330
45
100
AcDbEntity
  8
1
 62
     1
100
AcDbVertex
100
AcDb2dVertex
 10
1266.6015625
 20
60.7421875
 30
0.0
  0
VERTEX
  5
1CB
330
45
100
AcDbEntity
  8
1
 62
     1
100
AcDbVertex
100
AcDb2dVertex
 10
1270.156860351562
 20
66.4031982421875
 30
0.0
  0
VERTEX
  5
1CC
330
45
100
AcDbEntity
  8
1
 62
     1
100
AcDbVertex
100
AcDb2dVertex
 10
1273.5107421875
 20
73.0712890625
 30
0.0
  0
VERTEX
  5
1CD
330
45
100
AcDbEntity
  8
1
 62
     1
100
AcDbVertex
100
AcDb2dVertex
 10
1276.681518554688
 20
80.6549072265625
 30
0.0
  0
VERTEX
  5
1CE
330
45
100
AcDbEntity
  8
1
 62
     1
100
AcDbVertex
100
AcDb2dVertex
 10
1279.6875
 20
89.0625
 30
0.0
  0
VERTEX
  5
1CF
330
45
100
AcDbEntity
  8
1
 62
     1
100
AcDbVertex
100
AcDb2dVertex
 10
1282.546997070312
 20
98.2025146484375
 30
0.0
  0
VERTEX
  5
1D0
330
45
100
AcDbEntity
  8
1
 62
     1
100
AcDbVertex
100
AcDb2dVertex
 10
1285.2783203125
 20
107.9833984375
 30
0.0
  0
VERTEX
  5
1D1
330
45
100
AcDbEntity
  8
1
 62
     1
100
AcDbVertex
100
AcDb2dVertex
 10
1287.899780273438
 20
118.3135986328125
 30
0.0
  0
VERTEX
  5
1D2
330
45
100
AcDbEntity
  8
1
 62
     1
100
AcDbVertex
100
AcDb2dVertex
 10
1290.4296875
 20
129.1015625
 30
0.0
  0
VERTEX
  5
1D3
330
45
100
AcDbEntity
  8
1
 62
     1
100
AcDbVertex
100
AcDb2dVertex
 10
1292.886352539062
 20
140.2557373046875
 30
0.0
  0
VERTEX
  5
1D4
330
45
100
AcDbEntity
  8
1
 62
     1
100
AcDbVertex
100
AcDb2dVertex
 10
1295.2880859375
 20
151.6845703125
 30
0.0
  0
VERTEX
  5
1D5
330
45
100
AcDbEntity
  8
1
 62
     1
100
AcDbVertex
100
AcDb2dVertex
 10
1297.653198242188
 20
163.2965087890625
 30
0.0
  0
VERTEX
  5
1D6
330
45
100
AcDbEntity
  8
1
 62
     1
100
AcDbVertex
100
AcDb2dVertex
 10
1300.0
 20
175.0
 30
0.0
  0
VERTEX
  5
1D7
330
45
100
AcDbEntity
  8
1
 62
     1
100
AcDbVertex
100
AcDb2dVertex
 10
1302.346801757812
 20
186.7034912109375
 30
0.0
  0
VERTEX
  5
1D8
330
45
100
AcDbEntity
  8
1
 62
     1
100
AcDbVertex
100
AcDb2dVertex
 10
1304.7119140625
 20
198.3154296875
 30
0.0
  0
VERTEX
  5
1D9
330
45
100
AcDbEntity
  8
1
 62
     1
100
AcDbVertex
100
AcDb2dVertex
 10
1307.113647460938
 20
209.7442626953125
 30
0.0
  0
VERTEX
  5
1DA
330
45
100
AcDbEntity
  8
1
 62
     1
100
AcDbVertex
100
AcDb2dVertex
 10
1309.5703125
 20
220.8984375
 30
0.0
  0
VERTEX
  5
1DB
330
45
100
AcDbEntity
  8
1
 62
     1
100
AcDbVertex
100
AcDb2dVertex
 10
1312.100219726562
 20
231.6864013671875
 30
0.0
  0
VERTEX
  5
1DC
330
45
100
AcDbEntity
  8
1
 62
     1
100
AcDbVertex
100
AcDb2dVertex
 10
1314.7216796875
 20
242.0166015625
 30
0.0
  0
VERTEX
  5
1DD
330
45
100
AcDbEntity
  8
1
 62
     1
100
AcDbVertex
100
AcDb2dVertex
 10
1317.453002929688
 20
251.7974853515625
 30
0.0
  0
VERTEX
  5
1DE
330
45
100
AcDbEntity
  8
1
 62
     1
100
AcDbVertex
100
AcDb2dVertex
 10
1320.3125
 20
260.9375
 30
0.0
  0
VERTEX
  5
1DF
330
45
100
AcDbEntity
  8
1
 62
     1
100
AcDbVertex
100
AcDb2dVertex
 10
1323.318481445312
 20
269.3450927734375
 30
0.0
  0
VERTEX
  5
1E0
330
45
100
AcDbEntity
  8
1
 62
     1
100
AcDbVertex
100
AcDb2dVertex
 10
1326.4892578125
 20
276.9287109375
 30
0.0
  0
VERTEX
  5
1E1
330
45
100
AcDbEntity
  8
1
 62
     1
100
AcDbVertex
100
AcDb2dVertex
 10
1329.843139648438
 20
283.5968017578125
 30
0.0
  0
VERTEX
  5
1E2
330
45
100
AcDbEntity
  8
1
 62
     1
100
AcDbVertex
100
AcDb2dVertex
 10
1333.3984375
 20
289.2578125
 30
0.0
  0
VERTEX
  5
1E3
330
45
100
AcDbEntity
  8
1
 62
     1
100
AcDbVertex
100
AcDb2dVertex
 10
1337.173461914062
 20
293.8201904296875
 30
0.0
  0
VERTEX
  5
1E4
330
45
100
AcDbEntity
  8
1
 62
     1
100
AcDbVertex
100
AcDb2dVertex
 10
1341.1865234375
 20
297.1923828125
 30
0.0
  0
VERTEX
  5
1E5
330
45
100
AcDbEntity
  8
1
 62
     1
100
AcDbVertex
100
AcDb2dVertex
 10
1345.455932617188
 20
299.2828369140625
 30
0.0
  0
VERTEX
  5
1E6
330
45
100
AcDbEntity
  8
1
 62
     1
100
AcDbVertex
100
AcDb2dVertex
 10
1350.0
 20
300.0
 30
0.0
  0
SEQEND
  5
1E7
330
45
100
AcDbEntity
  8
1
 62
     1
  0
POLYLINE
  5
1E9
330
1F
100
AcDbEntity
  8
2
 62
   250
100
AcDb2dPolyline
 66
     1
 10
0.0
 20
0.0
 30
0.0
  0
VERTEX
  5
1EA
330
1E9
100
AcDbEntity
  8
2
 62
   250
100
AcDbVertex
100
AcDb2dVertex
 10
1350.0
 20
300.0
 30
0.0
  0
VERTEX
  5
1EB
330
1E9
100
AcDbEntity
  8
2
 62
   250
100
AcDbVertex
100
AcDb2dVertex
 10
1350.0
 20
150.0
 30
0.0
  0
SEQEND
  5
1EC
330
1E9
100
AcDbEntity
  8
2
 62
   250
  0
POLYLINE
  5
1EE
330
1F
100
AcDbEntity
  8
3
 62
   174
100
AcDb2dPolyline
 66
     1
 10
0.0
 20
0.0
 30
0.0
  0
VERTEX
  5
1EF
330
1EE
100
AcDbEntity
  8
3
 62
   174
100
AcDbVertex
100
AcDb2dVertex
 10
1350.0
 20
150.0
 30
0.0
  0
VERTEX
  5
1F0
330
1EE
100
AcDbEntity
  8
3
 62
   174
100
AcDbVertex
100
AcDb2dVertex
 10
1341.748046875
 20
150.5615234375
 30
0.0
  0
VERTEX
  5
1F1
330
1EE
100
AcDbEntity
  8
3
 62
   174
100
AcDbVertex
100
AcDb2dVertex
 10
1335.546875
 20
152.1484375
 30
0.0
  0
VERTEX
  5
1F2
330
1EE
100
AcDbEntity
  8
3
 62
   174
100
AcDbVertex
100
AcDb2dVertex
 10
1331.103515625
 20
154.6142578125
 30
0.0
  0
VERTEX
  5
1F3
330
1EE
100
AcDbEntity
  8
3
 62
   174
100
AcDbVertex
100
AcDb2dVertex
 10
1328.125
 20
157.8125
 30
0.0
  0
VERTEX
  5
1F4
330
1EE
100
AcDbEntity
  8
3
 62
   174
100
AcDbVertex
100
AcDb2dVertex
 10
1326.318359375
 20
161.5966796875
 30
0.0
  0
VERTEX
  5
1F5
330
1EE
100
AcDbEntity
  8
3
 62
   174
100
AcDbVertex
100
AcDb2dVertex
 10
1325.390625
 20
165.8203125
 30
0.0
  0
VERTEX
  5
1F6
330
1EE
100
AcDbEntity
  8
3
 62
   174
100
AcDbVertex
100
AcDb2dVertex
 10
1325.048828125
 20
170.3369140625
 30
0.0
  0
VERTEX
  5
1F7
330
1EE
100
AcDbEntity
  8
3
 62
   174
100
AcDbVertex
100
AcDb2dVertex
 10
1325.0
 20
175.0
 30
0.0
  0
VERTEX
  5
1F8
330
1EE
100
AcDbEntity
  8
3
 62
   174
100
AcDbVertex
100
AcDb2dVertex
 10
1324.951171875
 20
179.6630859375
 30
0.0
  0
VERTEX
  5
1F9
330
1EE
100
AcDbEntity
  8
3
 62
   174
100
AcDbVertex
100
AcDb2dVertex
 10
1324.609375
 20
184.1796875
 30
0.0
  0
VERTEX
  5
1FA
330
1EE
100
AcDbEntity
  8
3
 62
   174
100
AcDbVertex
100
AcDb2dVertex
 10
1323.681640625
 20
188.4033203125
 30
0.0
  0
VERTEX
  5
1FB
330
1EE
100
AcDbEntity
  8
3
 62
   174
100
AcDbVertex
100
AcDb2dVertex
 10
1321.875
 20
192.1875
 30
0.0
  0
VERTEX
  5
1FC
330
1EE
100
AcDbEntity
  8
3
 62
   174
100
AcDbVertex
100
AcDb2dVertex
 10
1318.896484375
 20
195.3857421875
 30
0.0
  0
VERTEX
  5
1FD
330
1EE
100
AcDbEntity
  8
3
 62
   174
100
AcDbVertex
100
AcDb2dVertex
 10
1314.453125
 20
197.8515625
 30
0.0
  0
VERTEX
  5
1FE
330
1EE
100
AcDbEntity
  8
3
 62
   174
100
AcDbVertex
100
AcDb2dVertex
 10
1308.251953125
 20
199.4384765625
 30
0.0
  0
VERTEX
  5
1FF
330
1EE
100
AcDbEntity
  8
3
 62
   174
100
AcDbVertex
100
AcDb2dVertex
 10
1300.0
 20
200.0
 30
0.0
  0
VERTEX
  5
200
330
1EE
100
AcDbEntity
  8
3
 62
   174
100
AcDbVertex
100
AcDb2dVertex
 10
1291.748046875
 20
199.4384765625
 30
0.0
  0
VERTEX
  5
201
330
1EE
100
AcDbEntity
  8
3
 62
   174
100
AcDbVertex
100
AcDb2dVertex
 10
1285.546875
 20
197.8515625
 30
0.0
  0
VERTEX
  5
202
330
1EE
100
AcDbEntity
  8
3
 62
   174
100
AcDbVertex
100
AcDb2dVertex
 10
1281.103515625
 20
195.3857421875
 30
0.0
  0
VERTEX
  5
203
330
1EE
100
AcDbEntity
  8
3
 62
   174
100
AcDbVertex
100
AcDb2dVertex
 10
1278.125
 20
192.1875
 30
0.0
  0
VERTEX
  5
204
330
1EE
100
AcDbEntity
  8
3
 62
   174
100
AcDbVertex
100
AcDb2dVertex
 10
1276.318359375
 20
188.4033203125
 30
0.0
  0
VERTEX
  5
205
330
1EE
100
AcDbEntity
  8
3
 62
   174
100
AcDbVertex
100
AcDb2dVertex
 10
1275.390625
 20
184.1796875
 30
0.0
  0
VERTEX
  5
206
330
1EE
100
AcDbEntity
  8
3
 62
   174
100
AcDbVertex
100
AcDb2dVertex
 10
1275.048828125
 20
179.6630859375
 30
0.0
  0
VERTEX
  5
207
330
1EE
100
AcDbEntity
  8
3
 62
   174
100
AcDbVertex
100
AcDb2dVertex
 10
1275.0
 20
175.0
 30
0.0
  0
VERTEX
  5
208
330
1EE
100
AcDbEntity
  8
3
 62
   174
100
AcDbVertex
100
AcDb2dVertex
 10
1274.951171875
 20
170.3369140625
 30
0.0
  0
VERTEX
  5
209
330
1EE
100
AcDbEntity
  8
3
 62
   174
100
AcDbVertex
100
AcDb2dVertex
 10
1274.609375
 20
165.8203125
 30
0.0
  0
VERTEX
  5
20A
330
1EE
100
AcDbEntity
  8
3
 62
   174
100
AcDbVertex
100
AcDb2dVertex
 10
1273.681640625
 20
161.5966796875
 30
0.0
  0
VERTEX
  5
20B
330
1EE
100
AcDbEntity
  8
3
 62
   174
100
AcDbVertex
100
AcDb2dVertex
 10
1271.875
 20
157.8125
 30
0.0
  0
VERTEX
  5
20C
330
1EE
100
AcDbEntity
  8
3
 62
   174
100
AcDbVertex
100
AcDb2dVertex
 10
1268.896484375
 20
154.6142578125
 30
0.0
  0
VERTEX
  5
20D
330
1EE
100
AcDbEntity
  8
3
 62
   174
100
AcDbVertex
100
AcDb2dVertex
 10
1264.453125
 20
152.1484375
 30
0.0
  0
VERTEX
  5
20E
330
1EE
100
AcDbEntity
  8
3
 62
   174
100
AcDbVertex
100
AcDb2dVertex
 10
1258.251953125
 20
150.5615234375
 30
0.0
  0
VERTEX
  5
20F
330
1EE
100
AcDbEntity
  8
3
 62
   174
100
AcDbVertex
100
AcDb2dVertex
 10
1250.0
 20
150.0
 30
0.0
  0
VERTEX
  5
210
330
1EE
100
AcDbEntity
  8
3
 62
   174
100
AcDbVertex
100
AcDb2dVertex
 10
1241.748046875
 20
150.5615234375
 30
0.0
  0
VERTEX
  5
211
330
1EE
100
AcDbEntity
  8
3
 62
   174
100
AcDbVertex
100
AcDb2dVertex
 10
1235.546875
 20
152.1484375
 30
0.0
  0
VERTEX
  5
212
330
1EE
100
AcDbEntity
  8
3
 62
   174
100
AcDbVertex
100
AcDb2dVertex
 10
1231.103515625
 20
154.6142578125
 30
0.0
  0
VERTEX
  5
213
330
1EE
100
AcDbEntity
  8
3
 62
   174
100
AcDbVertex
100
AcDb2dVertex
 10
1228.125
 20
157.8125
 30
0.0
  0
VERTEX
  5
214
330
1EE
100
AcDbEntity
  8
3
 62
   174
100
AcDbVertex
100
AcDb2dVertex
 10
1226.318359375
 20
161.5966796875
 30
0.0
  0
VERTEX
  5
215
330
1EE
100
AcDbEntity
  8
3
 62
   174
100
AcDbVertex
100
AcDb2dVertex
 10
1225.390625
 20
165.8203125
 30
0.0
  0
VERTEX
  5
216
330
1EE
100
AcDbEntity
  8
3
 62
   174
100
AcDbVertex
100
AcDb2dVertex
 10
1225.048828125
 20
170.3369140625
 30
0.0
  0
VERTEX
  5
217
330
1EE
100
AcDbEntity
  8
3
 62
   174
100
AcDbVertex
100
AcDb2dVertex
 10
1225.0
 20
175.0
 30
0.0
  0
VERTEX
  5
218
330
1EE
100
AcDbEntity
  8
3
 62
   174
100
AcDbVertex
100
AcDb2dVertex
 10
1224.951171875
 20
179.6630859375
 30
0.0
  0
VERTEX
  5
219
330
1EE
100
AcDbEntity
  8
3
 62
   174
100
AcDbVertex
100
AcDb2dVertex
 10
1224.609375
 20
184.1796875
 30
0.0
  0
VERTEX
  5
21A
330
1EE
100
AcDbEntity
  8
3
 62
   174
100
AcDbVertex
100
AcDb2dVertex
 10
1223.681640625
 20
188.4033203125
 30
0.0
  0
VERTEX
  5
21B
330
1EE
100
AcDbEntity
  8
3
 62
   174
100
AcDbVertex
100
AcDb2dVertex
 10
1221.875
 20
192.1875
 30
0.0
  0
VERTEX
  5
21C
330
1EE
100
AcDbEntity
  8
3
 62
   174
100
AcDbVertex
100
AcDb2dVertex
 10
1218.896484375
 20
195.3857421875
 30
0.0
  0
VERTEX
  5
21D
330
1EE
100
AcDbEntity
  8
3
 62
   174
100
AcDbVertex
100
AcDb2dVertex
 10
1214.453125
 20
197.8515625
 30
0.0
  0
VERTEX
  5
21E
330
1EE
100
AcDbEntity
  8
3
 62
   174
100
AcDbVertex
100
AcDb2dVertex
 10
1208.251953125
 20
199.4384765625
 30
0.0
  0
VERTEX
  5
21F
330
1EE
100
AcDbEntity
  8
3
 62
   174
100
AcDbVertex
100
AcDb2dVertex
 10
1200.0
 20
200.0
 30
0.0
  0
VERTEX
  5
220
330
1EE
100
AcDbEntity
  8
3
 62
   174
100
AcDbVertex
100
AcDb2dVertex
 10
1191.748046875
 20
199.4384765625
 30
0.0
  0
VERTEX
  5
221
330
1EE
100
AcDbEntity
  8
3
 62
   174
100
AcDbVertex
100
AcDb2dVertex
 10
1185.546875
 20
197.8515625
 30
0.0
  0
VERTEX
  5
222
330
1EE
100
AcDbEntity
  8
3
 62
   174
100
AcDbVertex
100
AcDb2dVertex
 10
1181.103515625
 20
195.3857421875
 30
0.0
  0
VERTEX
  5
223
330
1EE
100
AcDbEntity
  8
3
 62
   174
100
AcDbVertex
100
AcDb2dVertex
 10
1178.125
 20
192.1875
 30
0.0
  0
VERTEX
  5
224
330
1EE
100
AcDbEntity
  8
3
 62
   174
100
AcDbVertex
100
AcDb2dVertex
 10
1176.318359375
 20
188.4033203125
 30
0.0
  0
VERTEX
  5
225
330
1EE
100
AcDbEntity
  8
3
 62
   174
100
AcDbVertex
100
AcDb2dVertex
 10
1175.390625
 20
184.1796875
 30
0.0
  0
VERTEX
  5
226
330
1EE
100
AcDbEntity
  8
3
 62
   174
100
AcDbVertex
100
AcDb2dVertex
 10
1175.048828125
 20
179.6630859375
 30
0.0
  0
VERTEX
  5
227
330
1EE
100
AcDbEntity
  8
3
 62
   174
100
AcDbVertex
100
AcDb2dVertex
 10
1175.0
 20
175.0
 30
0.0
  0
VERTEX
  5
228
330
1EE
100
AcDbEntity
  8
3
 62
   174
100
AcDbVertex
100
AcDb2dVertex
 10
1174.951171875
 20
170.3369140625
 30
0.0
  0
VERTEX
  5
229
330
1EE
100
AcDbEntity
  8
3
 62
   174
100
AcDbVertex
100
AcDb2dVertex
 10
1174.609375
 20
165.8203125
 30
0.0
  0
VERTEX
  5
22A
330
1EE
100
AcDbEntity
  8
3
 62
   174
100
AcDbVertex
100
AcDb2dVertex
 10
1173.681640625
 20
161.5966796875
 30
0.0
  0
VERTEX
  5
22B
330
1EE
100
AcDbEntity
  8
3
 62
   174
100
AcDbVertex
100
AcDb2dVertex
 10
1171.875
 20
157.8125
 30
0.0
  0
VERTEX
  5
22C
330
1EE
100
AcDbEntity
  8
3
 62
   174
100
AcDbVertex
100
AcDb2dVertex
 10
1168.896484375
 20
154.6142578125
 30
0.0
  0
VERTEX
  5
22D
330
1EE
100
AcDbEntity
  8
3
 62
   174
100
AcDbVertex
100
AcDb2dVertex
 10
1164.453125
 20
152.1484375
 30
0.0
  0
VERTEX
  5
22E
330
1EE
100
AcDbEntity
  8
3
 62
   174
100
AcDbVertex
100
AcDb2dVertex
 10
1158.251953125
 20
150.5615234375
 30
0.0
  0
VERTEX
  5
22F
330
1EE
100
AcDbEntity
  8
3
 62
   174
100
AcDbVertex
100
AcDb2dVertex
 10
1150.0
 20
150.0
 30
0.0
  0
VERTEX
  5
230
330
1EE
100
AcDbEntity
  8
3
 62
   174
100
AcDbVertex
100
AcDb2dVertex
 10
1141.748046875
 20
150.5615234375
 30
0.0
  0
VERTEX
  5
231
330
1EE
100
AcDbEntity
  8
3
 62
   174
100
AcDbVertex
100
AcDb2dVertex
 10
1135.546875
 20
152.1484375
 30
0.0
  0
VERTEX
  5
232
330
1EE
100
AcDbEntity
  8
3
 62
   174
100
AcDbVertex
100
AcDb2dVertex
 10
1131.103515625
 20
154.6142578125
 30
0.0
  0
VERTEX
  5
233
330
1EE
100
AcDbEntity
  8
3
 62
   174
100
AcDbVertex
100
AcDb2dVertex
 10
1128.125
 20
157.8125
 30
0.0
  0
VERTEX
  5
234
330
1EE
100
AcDbEntity
  8
3
 62
   174
100
AcDbVertex
100
AcDb2dVertex
 10
1126.318359375
 20
161.5966796875
 30
0.0
  0
VERTEX
  5
235
330
1EE
100
AcDbEntity
  8
3
 62
   174
100
AcDbVertex
100
AcDb2dVertex
 10
1125.390625
 20
165.8203125
 30
0.0
  0
VERTEX
  5
236
330
1EE
100
AcDbEntity
  8
3
 62
   174
100
AcDbVertex
100
AcDb2dVertex
 10
1125.048828125
 20
170.3369140625
 30
0.0
  0
VERTEX
  5
237
330
1EE
100
AcDbEntity
  8
3
 62
   174
100
AcDbVertex
100
AcDb2dVertex
 10
1125.0
 20
175.0
 30
0.0
  0
VERTEX
  5
238
330
1EE
100
AcDbEntity
  8
3
 62
   174
100
AcDbVertex
100
AcDb2dVertex
 10
1124.951171875
 20
179.6630859375
 30
0.0
  0
VERTEX
  5
239
330
1EE
100
AcDbEntity
  8
3
 62
   174
100
AcDbVertex
100
AcDb2dVertex
 10
1124.609375
 20
184.1796875
 30
0.0
  0
VERTEX
  5
23A
330
1EE
100
AcDbEntity
  8
3
 62
   174
100
AcDbVertex
100
AcDb2dVertex
 10
1123.681640625
 20
188.4033203125
 30
0.0
  0
VERTEX
  5
23B
330
1EE
100
AcDbEntity
  8
3
 62
   174
100
AcDbVertex
100
AcDb2dVertex
 10
1121.875
 20
192.1875
 30
0.0
  0
VERTEX
  5
23C
330
1EE
100
AcDbEntity
  8
3
 62
   174
100
AcDbVertex
100
AcDb2dVertex
 10
1118.896484375
 20
195.3857421875
 30
0.0
  0
VERTEX
  5
23D
330
1EE
100
AcDbEntity
  8
3
 62
   174
100
AcDbVertex
100
AcDb2dVertex
 10
1114.453125
 20
197.8515625
 30
0.0
  0
VERTEX
  5
23E
330
1EE
100
AcDbEntity
  8
3
 62
   174
100
AcDbVertex
100
AcDb2dVertex
 10
1108.251953125
 20
199.4384765625
 30
0.0
  0
VERTEX
  5
23F
330
1EE
100
AcDbEntity
  8
3
 62
   174
100
AcDbVertex
100
AcDb2dVertex
 10
1100.0
 20
200.0
 30
0.0
  0
VERTEX
  5
240
330
1EE
100
AcDbEntity
  8
3
 62
   174
100
AcDbVertex
100
AcDb2dVertex
 10
1091.748046875
 20
199.4384765625
 30
0.0
  0
VERTEX
  5
241
330
1EE
100
AcDbEntity
  8
3
 62
   174
100
AcDbVertex
100
AcDb2dVertex
 10
1085.546875
 20
197.8515625
 30
0.0
  0
VERTEX
  5
242
330
1EE
100
AcDbEntity
  8
3
 62
   174
100
AcDbVertex
100
AcDb2dVertex
 10
1081.103515625
 20
195.3857421875
 30
0.0
  0
VERTEX
  5
243
330
1EE
100
AcDbEntity
  8
3
 62
   174
100
AcDbVertex
100
AcDb2dVertex
 10
1078.125
 20
192.1875
 30
0.0
  0
VERTEX
  5
244
330
1EE
100
AcDbEntity
  8
3
 62
   174
100
AcDbVertex
100
AcDb2dVertex
 10
1076.318359375
 20
188.4033203125
 30
0.0
  0
VERTEX
  5
245
330
1EE
100
AcDbEntity
  8
3
 62
   174
100
AcDbVertex
100
AcDb2dVertex
 10
1075.390625
 20
184.1796875
 30
0.0
  0
VERTEX
  5
246
330
1EE
100
AcDbEntity
  8
3
 62
   174
100
AcDbVertex
100
AcDb2dVertex
 10
1075.048828125
 20
179.6630859375
 30
0.0
  0
VERTEX
  5
247
330
1EE
100
AcDbEntity
  8
3
 62
   174
100
AcDbVertex
100
AcDb2dVertex
 10
1075.0
 20
175.0
 30
0.0
  0
VERTEX
  5
248
330
1EE
100
AcDbEntity
  8
3
 62
   174
100
AcDbVertex
100
AcDb2dVertex
 10
1074.951171875
 20
170.3369140625
 30
0.0
  0
VERTEX
  5
249
330
1EE
100
AcDbEntity
  8
3
 62
   174
100
AcDbVertex
100
AcDb2dVertex
 10
1074.609375
 20
165.8203125
 30
0.0
  0
VERTEX
  5
24A
330
1EE
100
AcDbEntity
  8
3
 62
   174
100
AcDbVertex
100
AcDb2dVertex
 10
1073.681640625
 20
161.5966796875
 30
0.0
  0
VERTEX
  5
24B
330
1EE
100
AcDbEntity
  8
3
 62
   174
100
AcDbVertex
100
AcDb2dVertex
 10
1071.875
 20
157.8125
 30
0.0
  0
VERTEX
  5
24C
330
1EE
100
AcDbEntity
  8
3
 62
   174
100
AcDbVertex
100
AcDb2dVertex
 10
1068.896484375
 20
154.6142578125
 30
0.0
  0
VERTEX
  5
24D
330
1EE
100
AcDbEntity
  8
3
 62
   174
100
AcDbVertex
100
AcDb2dVertex
 10
1064.453125
 20
152.1484375
 30
0.0
  0
VERTEX
  5
24E
330
1EE
100
AcDbEntity
  8
3
 62
   174
100
AcDbVertex
100
AcDb2dVertex
 10
1058.251953125
 20
150.5615234375
 30
0.0
  0
VERTEX
  5
24F
330
1EE
100
AcDbEntity
  8
3
 62
   174
100
AcDbVertex
100
AcDb2dVertex
 10
1050.0
 20
150.0
 30
0.0
  0
VERTEX
  5
250
330
1EE
100
AcDbEntity
  8
3
 62
   174
100
AcDbVertex
100
AcDb2dVertex
 10
1041.748046875
 20
150.5615234375
 30
0.0
  0
VERTEX
  5
251
330
1EE
100
AcDbEntity
  8
3
 62
   174
100
AcDbVertex
100
AcDb2dVertex
 10
1035.546875
 20
152.1484375
 30
0.0
  0
VERTEX
  5
252
330
1EE
100
AcDbEntity
  8
3
 62
   174
100
AcDbVertex
100
AcDb2dVertex
 10
1031.103515625
 20
154.6142578125
 30
0.0
  0
VERTEX
  5
253
330
1EE
100
AcDbEntity
  8
3
 62
   174
100
AcDbVertex
100
AcDb2dVertex
 10
1028.125
 20
157.8125
 30
0.0
  0
VERTEX
  5
254
330
1EE
100
AcDbEntity
  8
3
 62
   174
100
AcDbVertex
100
AcDb2dVertex
 10
1026.318359375
 20
161.5966796875
 30
0.0
  0
VERTEX
  5
255
330
1EE
100
AcDbEntity
  8
3
 62
   174
100
AcDbVertex
100
AcDb2dVertex
 10
1025.390625
 20
165.8203125
 30
0.0
  0
VERTEX
  5
256
330
1EE
100
AcDbEntity
  8
3
 62
   174
100
AcDbVertex
100
AcDb2dVertex
 10
1025.048828125
 20
170.3369140625
 30
0.0
  0
VERTEX
  5
257
330
1EE
100
AcDbEntity
  8
3
 62
   174
100
AcDbVertex
100
AcDb2dVertex
 10
1025.0
 20
175.0
 30
0.0
  0
VERTEX
  5
258
330
1EE
100
AcDbEntity
  8
3
 62
   174
100
AcDbVertex
100
AcDb2dVertex
 10
1024.951171875
 20
179.6630859375
 30
0.0
  0
VERTEX
  5
259
330
1EE
100
AcDbEntity
  8
3
 62
   174
100
AcDbVertex
100
AcDb2dVertex
 10
1024.609375
 20
184.1796875
 30
0.0
  0
VERTEX
  5
25A
330
1EE
100
AcDbEntity
  8
3
 62
   174
100
AcDbVertex
100
AcDb2dVertex
 10
1023.681640625
 20
188.4033203125
 30
0.0
  0
VERTEX
  5
25B
330
1EE
100
AcDbEntity
  8
3
 62
   174
100
AcDbVertex
100
AcDb2dVertex
 10
1021.875
 20
192.1875
 30
0.0
  0
VERTEX
  5
25C
330
1EE
100
AcDbEntity
  8
3
 62
   174
100
AcDbVertex
100
AcDb2dVertex
 10
1018.896484375
 20
195.3857421875
 30
0.0
  0
VERTEX
  5
25D
330
1EE
100
AcDbEntity
  8
3
 62
   174
100
AcDbVertex
100
AcDb2dVertex
 10
1014.453125
 20
197.8515625
 30
0.0
  0
VERTEX
  5
25E
330
1EE
100
AcDbEntity
  8
3
 62
   174
100
AcDbVertex
100
AcDb2dVertex
 10
1008.251953125
 20
199.4384765625
 30
0.0
  0
VERTEX
  5
25F
330
1EE
100
AcDbEntity
  8
3
 62
   174
100
AcDbVertex
100
AcDb2dVertex
 10
1000.0
 20
200.0
 30
0.0
  0
VERTEX
  5
260
330
1EE
100
AcDbEntity
  8
3
 62
   174
100
AcDbVertex
100
AcDb2dVertex
 10
991.748046875
 20
199.4384765625
 30
0.0
  0
VERTEX
  5
261
330
1EE
100
AcDbEntity
  8
3
 62
   174
100
AcDbVertex
100
AcDb2dVertex
 10
985.546875
 20
197.8515625
 30
0.0
  0
VERTEX
  5
262
330
1EE
100
AcDbEntity
  8
3
 62
   174
100
AcDbVertex
100
AcDb2dVertex
 10
981.103515625
 20
195.3857421875
 30
0.0
  0
VERTEX
  5
263
330
1EE
100
AcDbEntity
  8
3
 62
   174
100
AcDbVertex
100
AcDb2dVertex
 10
978.125
 20
192.1875
 30
0.0
  0
VERTEX
  5
264
330
1EE
100
AcDbEntity
  8
3
 62
   174
100
AcDbVertex
100
AcDb2dVertex
 10
976.318359375
 20
188.4033203125
 30
0.0
  0
VERTEX
  5
265
330
1EE
100
AcDbEntity
  8
3
 62
   174
100
AcDbVertex
100
AcDb2dVertex
 10
975.390625
 20
184.1796875
 30
0.0
  0
VERTEX
  5
266
330
1EE
100
AcDbEntity
  8
3
 62
   174
100
AcDbVertex
100
AcDb2dVertex
 10
975.048828125
 20
179.6630859375
 30
0.0
  0
VERTEX
  5
267
330
1EE
100
AcDbEntity
  8
3
 62
   174
100
AcDbVertex
100
AcDb2dVertex
 10
975.0
 20
175.0
 30
0.0
  0
VERTEX
  5
268
330
1EE
100
AcDbEntity
  8
3
 62
   174
100
AcDbVertex
100
AcDb2dVertex
 10
974.951171875
 20
170.3369140625
 30
0.0
  0
VERTEX
  5
269
330
1EE
100
AcDbEntity
  8
3
 62
   174
100
AcDbVertex
100
AcDb2dVertex
 10
974.609375
 20
165.8203125
 30
0.0
  0
VERTEX
  5
26A
330
1EE
100
AcDbEntity
  8
3
 62
   174
100
AcDbVertex
100
AcDb2dVertex
 10
973.681640625
 20
161.5966796875
 30
0.0
  0
VERTEX
  5
26B
330
1EE
100
AcDbEntity
  8
3
 62
   174
100
AcDbVertex
100
AcDb2dVertex
 10
971.875
 20
157.8125
 30
0.0
  0
VERTEX
  5
26C
330
1EE
100
AcDbEntity
  8
3
 62
   174
100
AcDbVertex
100
AcDb2dVertex
 10
968.896484375
 20
154.6142578125
 30
0.0
  0
VERTEX
  5
26D
330
1EE
100
AcDbEntity
  8
3
 62
   174
100
AcDbVertex
100
AcDb2dVertex
 10
964.453125
 20
152.1484375
 30
0.0
  0
VERTEX
  5
26E
330
1EE
100
AcDbEntity
  8
3
 62
   174
100
AcDbVertex
100
AcDb2dVertex
 10
958.251953125
 20
150.5615234375
 30
0.0
  0
VERTEX
  5
26F
330
1EE
100
AcDbEntity
  8
3
 62
   174
100
AcDbVertex
100
AcDb2dVertex
 10
950.0
 20
150.0
 30
0.0
  0
VERTEX
  5
270
330
1EE
100
AcDbEntity
  8
3
 62
   174
100
AcDbVertex
100
AcDb2dVertex
 10
941.748046875
 20
150.5615234375
 30
0.0
  0
VERTEX
  5
271
330
1EE
100
AcDbEntity
  8
3
 62
   174
100
AcDbVertex
100
AcDb2dVertex
 10
935.546875
 20
152.1484375
 30
0.0
  0
VERTEX
  5
272
330
1EE
100
AcDbEntity
  8
3
 62
   174
100
AcDbVertex
100
AcDb2dVertex
 10
931.103515625
 20
154.6142578125
 30
0.0
  0
VERTEX
  5
273
330
1EE
100
AcDbEntity
  8
3
 62
   174
100
AcDbVertex
100
AcDb2dVertex
 10
928.125
 20
157.8125
 30
0.0
  0
VERTEX
  5
274
330
1EE
100
AcDbEntity
  8
3
 62
   174
100
AcDbVertex
100
AcDb2dVertex
 10
926.318359375
 20
161.5966796875
 30
0.0
  0
VERTEX
  5
275
330
1EE
100
AcDbEntity
  8
3
 62
   174
100
AcDbVertex
100
AcDb2dVertex
 10
925.390625
 20
165.8203125
 30
0.0
  0
VERTEX
  5
276
330
1EE
100
AcDbEntity
  8
3
 62
   174
100
AcDbVertex
100
AcDb2dVertex
 10
925.048828125
 20
170.3369140625
 30
0.0
  0
VERTEX
  5
277
330
1EE
100
AcDbEntity
  8
3
 62
   174
100
AcDbVertex
100
AcDb2dVertex
 10
925.0
 20
175.0
 30
0.0
  0
VERTEX
  5
278
330
1EE
100
AcDbEntity
  8
3
 62
   174
100
AcDbVertex
100
AcDb2dVertex
 10
924.951171875
 20
179.6630859375
 30
0.0
  0
VERTEX
  5
279
330
1EE
100
AcDbEntity
  8
3
 62
   174
100
AcDbVertex
100
AcDb2dVertex
 10
924.609375
 20
184.1796875
 30
0.0
  0
VERTEX
  5
27A
330
1EE
100
AcDbEntity
  8
3
 62
   174
100
AcDbVertex
100
AcDb2dVertex
 10
923.681640625
 20
188.4033203125
 30
0.0
  0
VERTEX
  5
27B
330
1EE
100
AcDbEntity
  8
3
 62
   174
100
AcDbVertex
100
AcDb2dVertex
 10
921.875
 20
192.1875
 30
0.0
  0
VERTEX
  5
27C
330
1EE
100
AcDbEntity
  8
3
 62
   174
100
AcDbVertex
100
AcDb2dVertex
 10
918.896484375
 20
195.3857421875
 30
0.0
  0
VERTEX
  5
27D
330
1EE
100
AcDbEntity
  8
3
 62
   174
100
AcDbVertex
100
AcDb2dVertex
 10
914.453125
 20
197.8515625
 30
0.0
  0
VERTEX
  5
27E
330
1EE
100
AcDbEntity
  8
3
 62
   174
100
AcDbVertex
100
AcDb2dVertex
 10
908.251953125
 20
199.4384765625
 30
0.0
  0
VERTEX
  5
27F
330
1EE
100
AcDbEntity
  8
3
 62
   174
100
AcDbVertex
100
AcDb2dVertex
 10
900.0
 20
200.0
 30
0.0
  0
VERTEX
  5
280
330
1EE
100
AcDbEntity
  8
3
 62
   174
100
AcDbVertex
100
AcDb2dVertex
 10
891.748046875
 20
199.4384765625
 30
0.0
  0
VERTEX
  5
281
330
1EE
100
AcDbEntity
  8
3
 62
   174
100
AcDbVertex
100
AcDb2dVertex
 10
885.546875
 20
197.8515625
 30
0.0
  0
VERTEX
  5
282
330
1EE
100
AcDbEntity
  8
3
 62
   174
100
AcDbVertex
100
AcDb2dVertex
 10
881.103515625
 20
195.3857421875
 30
0.0
  0
VERTEX
  5
283
330
1EE
100
AcDbEntity
  8
3
 62
   174
100
AcDbVertex
100
AcDb2dVertex
 10
878.125
 20
192.1875
 30
0.0
  0
VERTEX
  5
284
330
1EE
100
AcDbEntity
  8
3
 62
   174
100
AcDbVertex
100
AcDb2dVertex
 10
876.318359375
 20
188.4033203125
 30
0.0
  0
VERTEX
  5
285
330
1EE
100
AcDbEntity
  8
3
 62
   174
100
AcDbVertex
100
AcDb2dVertex
 10
875.390625
 20
184.1796875
 30
0.0
  0
VERTEX
  5
286
330
1EE
100
AcDbEntity
  8
3
 62
   174
100
AcDbVertex
100
AcDb2dVertex
 10
875.048828125
 20
179.6630859375
 30
0.0
  0
VERTEX
  5
287
330
1EE
100
AcDbEntity
  8
3
 62
   174
100
AcDbVertex
100
AcDb2dVertex
 10
875.0
 20
175.0
 30
0.0
  0
VERTEX
  5
288
330
1EE
100
AcDbEntity
  8
3
 62
   174
100
AcDbVertex
100
AcDb2dVertex
 10
874.951171875
 20
170.3369140625
 30
0.0
  0
VERTEX
  5
289
330
1EE
100
AcDbEntity
  8
3
 62
   174
100
AcDbVertex
100
AcDb2dVertex
 10
874.609375
 20
165.8203125
 30
0.0
  0
VERTEX
  5
28A
330
1EE
100
AcDbEntity
  8
3
 62
   174
100
AcDbVertex
100
AcDb2dVertex
 10
873.681640625
 20
161.5966796875
 30
0.0
  0
VERTEX
  5
28B
330
1EE
100
AcDbEntity
  8
3
 62
   174
100
AcDbVertex
100
AcDb2dVertex
 10
871.875
 20
157.8125
 30
0.0
  0
VERTEX
  5
28C
330
1EE
100
AcDbEntity
  8
3
 62
   174
100
AcDbVertex
100
AcDb2dVertex
 10
868.896484375
 20
154.6142578125
 30
0.0
  0
VERTEX
  5
28D
330
1EE
100
AcDbEntity
  8
3
 62
   174
100
AcDbVertex
100
AcDb2dVertex
 10
864.453125
 20
152.1484375
 30
0.0
  0
VERTEX
  5
28E
330
1EE
100
AcDbEntity
  8
3
 62
   174
100
AcDbVertex
100
AcDb2dVertex
 10
858.251953125
 20
150.5615234375
 30
0.0
  0
VERTEX
  5
28F
330
1EE
100
AcDbEntity
  8
3
 62
   174
100
AcDbVertex
100
AcDb2dVertex
 10
850.0
 20
150.0
 30
0.0
  0
VERTEX
  5
290
330
1EE
100
AcDbEntity
  8
3
 62
   174
100
AcDbVertex
100
AcDb2dVertex
 10
841.748046875
 20
150.5615234375
 30
0.0
  0
VERTEX
  5
291
330
1EE
100
AcDbEntity
  8
3
 62
   174
100
AcDbVertex
100
AcDb2dVertex
 10
835.546875
 20
152.1484375
 30
0.0
  0
VERTEX
  5
292
330
1EE
100
AcDbEntity
  8
3
 62
   174
100
AcDbVertex
100
AcDb2dVertex
 10
831.103515625
 20
154.6142578125
 30
0.0
  0
VERTEX
  5
293
330
1EE
100
AcDbEntity
  8
3
 62
   174
100
AcDbVertex
100
AcDb2dVertex
 10
828.125
 20
157.8125
 30
0.0
  0
VERTEX
  5
294
330
1EE
100
AcDbEntity
  8
3
 62
   174
100
AcDbVertex
100
AcDb2dVertex
 10
826.318359375
 20
161.5966796875
 30
0.0
  0
VERTEX
  5
295
330
1EE
100
AcDbEntity
  8
3
 62
   174
100
AcDbVertex
100
AcDb2dVertex
 10
825.390625
 20
165.8203125
 30
0.0
  0
VERTEX
  5
296
330
1EE
100
AcDbEntity
  8
3
 62
   174
100
AcDbVertex
100
AcDb2dVertex
 10
825.048828125
 20
170.3369140625
 30
0.0
  0
VERTEX
  5
297
330
1EE
100
AcDbEntity
  8
3
 62
   174
100
AcDbVertex
100
AcDb2dVertex
 10
825.0
 20
175.0
 30
0.0
  0
VERTEX
  5
298
330
1EE
100
AcDbEntity
  8
3
 62
   174
100
AcDbVertex
100
AcDb2dVertex
 10
824.951171875
 20
179.6630859375
 30
0.0
  0
VERTEX
  5
299
330
1EE
100
AcDbEntity
  8
3
 62
   174
100
AcDbVertex
100
AcDb2dVertex
 10
824.609375
 20
184.1796875
 30
0.0
  0
VERTEX
  5
29A
330
1EE
100
AcDbEntity
  8
3
 62
   174
100
AcDbVertex
100
AcDb2dVertex
 10
823.681640625
 20
188.4033203125
 30
0.0
  0
VERTEX
  5
29B
330
1EE
100
AcDbEntity
  8
3
 62
   174
100
AcDbVertex
100
AcDb2dVertex
 10
821.875
 20
192.1875
 30
0.0
  0
VERTEX
  5
29C
330
1EE
100
AcDbEntity
  8
3
 62
   174
100
AcDbVertex
100
AcDb2dVertex
 10
818.896484375
 20
195.3857421875
 30
0.0
  0
VERTEX
  5
29D
330
1EE
100
AcDbEntity
  8
3
 62
   174
100
AcDbVertex
100
AcDb2dVertex
 10
814.453125
 20
197.8515625
 30
0.0
  0
VERTEX
  5
29E
330
1EE
100
AcDbEntity
  8
3
 62
   174
100
AcDbVertex
100
AcDb2dVertex
 10
808.251953125
 20
199.4384765625
 30
0.0
  0
VERTEX
  5
29F
330
1EE
100
AcDbEntity
  8
3
 62
   174
100
AcDbVertex
100
AcDb2dVertex
 10
800.0
 20
200.0
 30
0.0
  0
VERTEX
  5
2A0
330
1EE
100
AcDbEntity
  8
3
 62
   174
100
AcDbVertex
100
AcDb2dVertex
 10
791.748046875
 20
199.4384765625
 30
0.0
  0
VERTEX
  5
2A1
330
1EE
100
AcDbEntity
  8
3
 62
   174
100
AcDbVertex
100
AcDb2dVertex
 10
785.546875
 20
197.8515625
 30
0.0
  0
VERTEX
  5
2A2
330
1EE
100
AcDbEntity
  8
3
 62
   174
100
AcDbVertex
100
AcDb2dVertex
 10
781.103515625
 20
195.3857421875
 30
0.0
  0
VERTEX
  5
2A3
330
1EE
100
AcDbEntity
  8
3
 62
   174
100
AcDbVertex
100
AcDb2dVertex
 10
778.125
 20
192.1875
 30
0.0
  0
VERTEX
  5
2A4
330
1EE
100
AcDbEntity
  8
3
 62
   174
100
AcDbVertex
100
AcDb2dVertex
 10
776.318359375
 20
188.4033203125
 30
0.0
  0
VERTEX
  5
2A5
330
1EE
100
AcDbEntity
  8
3
 62
   174
100
AcDbVertex
100
AcDb2dVertex
 10
775.390625
 20
184.1796875
 30
0.0
  0
VERTEX
  5
2A6
330
1EE
100
AcDbEntity
  8
3
 62
   174
100
AcDbVertex
100
AcDb2dVertex
 10
775.048828125
 20
179.6630859375
 30
0.0
  0
VERTEX
  5
2A7
330
1EE
100
AcDbEntity
  8
3
 62
   174
100
AcDbVertex
100
AcDb2dVertex
 10
775.0
 20
175.0
 30
0.0
  0
VERTEX
  5
2A8
330
1EE
100
AcDbEntity
  8
3
 62
   174
100
AcDbVertex
100
AcDb2dVertex
 10
774.951171875
 20
170.3369140625
 30
0.0
  0
VERTEX
  5
2A9
330
1EE
100
AcDbEntity
  8
3
 62
   174
100
AcDbVertex
100
AcDb2dVertex
 10
774.609375
 20
165.8203125
 30
0.0
  0
VERTEX
  5
2AA
330
1EE
100
AcDbEntity
  8
3
 62
   174
100
AcDbVertex
100
AcDb2dVertex
 10
773.681640625
 20
161.5966796875
 30
0.0
  0
VERTEX
  5
2AB
330
1EE
100
AcDbEntity
  8
3
 62
   174
100
AcDbVertex
100
AcDb2dVertex
 10
771.875
 20
157.8125
 30
0.0
  0
VERTEX
  5
2AC
330
1EE
100
AcDbEntity
  8
3
 62
   174
100
AcDbVertex
100
AcDb2dVertex
 10
768.896484375
 20
154.6142578125
 30
0.0
  0
VERTEX
  5
2AD
330
1EE
100
AcDbEntity
  8
3
 62
   174
100
AcDbVertex
100
AcDb2dVertex
 10
764.453125
 20
152.1484375
 30
0.0
  0
VERTEX
  5
2AE
330
1EE
100
AcDbEntity
  8
3
 62
   174
100
AcDbVertex
100
AcDb2dVertex
 10
758.251953125
 20
150.5615234375
 30
0.0
  0
VERTEX
  5
2AF
330
1EE
100
AcDbEntity
  8
3
 62
   174
100
AcDbVertex
100
AcDb2dVertex
 10
750.0
 20
150.0
 30
0.0
  0
VERTEX
  5
2B0
330
1EE
100
AcDbEntity
  8
3
 62
   174
100
AcDbVertex
100
AcDb2dVertex
 10
741.748046875
 20
150.5615234375
 30
0.0
  0
VERTEX
  5
2B1
330
1EE
100
AcDbEntity
  8
3
 62
   174
100
AcDbVertex
100
AcDb2dVertex
 10
735.546875
 20
152.1484375
 30
0.0
  0
VERTEX
  5
2B2
330
1EE
100
AcDbEntity
  8
3
 62
   174
100
AcDbVertex
100
AcDb2dVertex
 10
731.103515625
 20
154.6142578125
 30
0.0
  0
VERTEX
  5
2B3
330
1EE
100
AcDbEntity
  8
3
 62
   174
100
AcDbVertex
100
AcDb2dVertex
 10
728.125
 20
157.8125
 30
0.0
  0
VERTEX
  5
2B4
330
1EE
100
AcDbEntity
  8
3
 62
   174
100
AcDbVertex
100
AcDb2dVertex
 10
726.318359375
 20
161.5966796875
 30
0.0
  0
VERTEX
  5
2B5
330
1EE
100
AcDbEntity
  8
3
 62
   174
100
AcDbVertex
100
AcDb2dVertex
 10
725.390625
 20
165.8203125
 30
0.0
  0
VERTEX
  5
2B6
330
1EE
100
AcDbEntity
  8
3
 62
   174
100
AcDbVertex
100
AcDb2dVertex
 10
725.048828125
 20
170.3369140625
 30
0.0
  0
VERTEX
  5
2B7
330
1EE
100
AcDbEntity
  8
3
 62
   174
100
AcDbVertex
100
AcDb2dVertex
 10
725.0
 20
175.0
 30
0.0
  0
VERTEX
  5
2B8
330
1EE
100
AcDbEntity
  8
3
 62
   174
100
AcDbVertex
100
AcDb2dVertex
 10
724.951171875
 20
179.6630859375
 30
0.0
  0
VERTEX
  5
2B9
330
1EE
100
AcDbEntity
  8
3
 62
   174
100
AcDbVertex
100
AcDb2dVertex
 10
724.609375
 20
184.1796875
 30
0.0
  0
VERTEX
  5
2BA
330
1EE
100
AcDbEntity
  8
3
 62
   174
100
AcDbVertex
100
AcDb2dVertex
 10
723.681640625
 20
188.4033203125
 30
0.0
  0
VERTEX
  5
2BB
330
1EE
100
AcDbEntity
  8
3
 62
   174
100
AcDbVertex
100
AcDb2dVertex
 10
721.875
 20
192.1875
 30
0.0
  0
VERTEX
  5
2BC
330
1EE
100
AcDbEntity
  8
3
 62
   174
100
AcDbVertex
100
AcDb2dVertex
 10
718.896484375
 20
195.3857421875
 30
0.0
  0
VERTEX
  5
2BD
330
1EE
100
AcDbEntity
  8
3
 62
   174
100
AcDbVertex
100
AcDb2dVertex
 10
714.453125
 20
197.8515625
 30
0.0
  0
VERTEX
  5
2BE
330
1EE
100
AcDbEntity
  8
3
 62
   174
100
AcDbVertex
100
AcDb2dVertex
 10
708.251953125
 20
199.4384765625
 30
0.0
  0
VERTEX
  5
2BF
330
1EE
100
AcDbEntity
  8
3
 62
   174
100
AcDbVertex
100
AcDb2dVertex
 10
700.0
 20
200.0
 30
0.0
  0
VERTEX
  5
2C0
330
1EE
100
AcDbEntity
  8
3
 62
   174
100
AcDbVertex
100
AcDb2dVertex
 10
691.748046875
 20
199.4384765625
 30
0.0
  0
VERTEX
  5
2C1
330
1EE
100
AcDbEntity
  8
3
 62
   174
100
AcDbVertex
100
AcDb2dVertex
 10
685.546875
 20
197.8515625
 30
0.0
  0
VERTEX
  5
2C2
330
1EE
100
AcDbEntity
  8
3
 62
   174
100
AcDbVertex
100
AcDb2dVertex
 10
681.103515625
 20
195.3857421875
 30
0.0
  0
VERTEX
  5
2C3
330
1EE
100
AcDbEntity
  8
3
 62
   174
100
AcDbVertex
100
AcDb2dVertex
 10
678.125
 20
192.1875
 30
0.0
  0
VERTEX
  5
2C4
330
1EE
100
AcDbEntity
  8
3
 62
   174
100
AcDbVertex
100
AcDb2dVertex
 10
676.318359375
 20
188.4033203125
 30
0.0
  0
VERTEX
  5
2C5
330
1EE
100
AcDbEntity
  8
3
 62
   174
100
AcDbVertex
100
AcDb2dVertex
 10
675.390625
 20
184.1796875
 30
0.0
  0
VERTEX
  5
2C6
330
1EE
100
AcDbEntity
  8
3
 62
   174
100
AcDbVertex
100
AcDb2dVertex
 10
675.048828125
 20
179.6630859375
 30
0.0
  0
VERTEX
  5
2C7
330
1EE
100
AcDbEntity
  8
3
 62
   174
100
AcDbVertex
100
AcDb2dVertex
 10
675.0
 20
175.0
 30
0.0
  0
VERTEX
  5
2C8
330
1EE
100
AcDbEntity
  8
3
 62
   174
100
AcDbVertex
100
AcDb2dVertex
 10
674.951171875
 20
170.3369140625
 30
0.0
  0
VERTEX
  5
2C9
330
1EE
100
AcDbEntity
  8
3
 62
   174
100
AcDbVertex
100
AcDb2dVertex
 10
674.609375
 20
165.8203125
 30
0.0
  0
VERTEX
  5
2CA
330
1EE
100
AcDbEntity
  8
3
 62
   174
100
AcDbVertex
100
AcDb2dVertex
 10
673.681640625
 20
161.5966796875
 30
0.0
  0
VERTEX
  5
2CB
330
1EE
100
AcDbEntity
  8
3
 62
   174
100
AcDbVertex
100
AcDb2dVertex
 10
671.875
 20
157.8125
 30
0.0
  0
VERTEX
  5
2CC
330
1EE
100
AcDbEntity
  8
3
 62
   174
100
AcDbVertex
100
AcDb2dVertex
 10
668.896484375
 20
154.6142578125
 30
0.0
  0
VERTEX
  5
2CD
330
1EE
100
AcDbEntity
  8
3
 62
   174
100
AcDbVertex
100
AcDb2dVertex
 10
664.453125
 20
152.1484375
 30
0.0
  0
VERTEX
  5
2CE
330
1EE
100
AcDbEntity
  8
3
 62
   174
100
AcDbVertex
100
AcDb2dVertex
 10
658.251953125
 20
150.5615234375
 30
0.0
  0
VERTEX
  5
2CF
330
1EE
100
AcDbEntity
  8
3
 62
   174
100
AcDbVertex
100
AcDb2dVertex
 10
650.0
 20
150.0
 30
0.0
  0
VERTEX
  5
2D0
330
1EE
100
AcDbEntity
  8
3
 62
   174
100
AcDbVertex
100
AcDb2dVertex
 10
641.748046875
 20
150.5615234375
 30
0.0
  0
VERTEX
  5
2D1
330
1EE
100
AcDbEntity
  8
3
 62
   174
100
AcDbVertex
100
AcDb2dVertex
 10
635.546875
 20
152.1484375
 30
0.0
  0
VERTEX
  5
2D2
330
1EE
100
AcDbEntity
  8
3
 62
   174
100
AcDbVertex
100
AcDb2dVertex
 10
631.103515625
 20
154.6142578125
 30
0.0
  0
VERTEX
  5
2D3
330
1EE
100
AcDbEntity
  8
3
 62
   174
100
AcDbVertex
100
AcDb2dVertex
 10
628.125
 20
157.8125
 30
0.0
  0
VERTEX
  5
2D4
330
1EE
100
AcDbEntity
  8
3
 62
   174
100
AcDbVertex
100
AcDb2dVertex
 10
626.318359375
 20
161.5966796875
 30
0.0
  0
VERTEX
  5
2D5
330
1EE
100
AcDbEntity
  8
3
 62
   174
100
AcDbVertex
100
AcDb2dVertex
 10
625.390625
 20
165.8203125
 30
0.0
  0
VERTEX
  5
2D6
330
1EE
100
AcDbEntity
  8
3
 62
   174
100
AcDbVertex
100
AcDb2dVertex
 10
625.048828125
 20
170.3369140625
 30
0.0
  0
VERTEX
  5
2D7
330
1EE
100
AcDbEntity
  8
3
 62
   174
100
AcDbVertex
100
AcDb2dVertex
 10
625.0
 20
175.0
 30
0.0
  0
VERTEX
  5
2D8
330
1EE
100
AcDbEntity
  8
3
 62
   174
100
AcDbVertex
100
AcDb2dVertex
 10
624.951171875
 20
179.6630859375
 30
0.0
  0
VERTEX
  5
2D9
330
1EE
100
AcDbEntity
  8
3
 62
   174
100
AcDbVertex
100
AcDb2dVertex
 10
624.609375
 20
184.1796875
 30
0.0
  0
VERTEX
  5
2DA
330
1EE
100
AcDbEntity
  8
3
 62
   174
100
AcDbVertex
100
AcDb2dVertex
 10
623.681640625
 20
188.4033203125
 30
0.0
  0
VERTEX
  5
2DB
330
1EE
100
AcDbEntity
  8
3
 62
   174
100
AcDbVertex
100
AcDb2dVertex
 10
621.875
 20
192.1875
 30
0.0
  0
VERTEX
  5
2DC
330
1EE
100
AcDbEntity
  8
3
 62
   174
100
AcDbVertex
100
AcDb2dVertex
 10
618.896484375
 20
195.3857421875
 30
0.0
  0
VERTEX
  5
2DD
330
1EE
100
AcDbEntity
  8
3
 62
   174
100
AcDbVertex
100
AcDb2dVertex
 10
614.453125
 20
197.8515625
 30
0.0
  0
VERTEX
  5
2DE
330
1EE
100
AcDbEntity
  8
3
 62
   174
100
AcDbVertex
100
AcDb2dVertex
 10
608.251953125
 20
199.4384765625
 30
0.0
  0
VERTEX
  5
2DF
330
1EE
100
AcDbEntity
  8
3
 62
   174
100
AcDbVertex
100
AcDb2dVertex
 10
600.0
 20
200.0
 30
0.0
  0
VERTEX
  5
2E0
330
1EE
100
AcDbEntity
  8
3
 62
   174
100
AcDbVertex
100
AcDb2dVertex
 10
591.748046875
 20
199.4384765625
 30
0.0
  0
VERTEX
  5
2E1
330
1EE
100
AcDbEntity
  8
3
 62
   174
100
AcDbVertex
100
AcDb2dVertex
 10
585.546875
 20
197.8515625
 30
0.0
  0
VERTEX
  5
2E2
330
1EE
100
AcDbEntity
  8
3
 62
   174
100
AcDbVertex
100
AcDb2dVertex
 10
581.103515625
 20
195.3857421875
 30
0.0
  0
VERTEX
  5
2E3
330
1EE
100
AcDbEntity
  8
3
 62
   174
100
AcDbVertex
100
AcDb2dVertex
 10
578.125
 20
192.1875
 30
0.0
  0
VERTEX
  5
2E4
330
1EE
100
AcDbEntity
  8
3
 62
   174
100
AcDbVertex
100
AcDb2dVertex
 10
576.318359375
 20
188.4033203125
 30
0.0
  0
VERTEX
  5
2E5
330
1EE
100
AcDbEntity
  8
3
 62
   174
100
AcDbVertex
100
AcDb2dVertex
 10
575.390625
 20
184.1796875
 30
0.0
  0
VERTEX
  5
2E6
330
1EE
100
AcDbEntity
  8
3
 62
   174
100
AcDbVertex
100
AcDb2dVertex
 10
575.048828125
 20
179.6630859375
 30
0.0
  0
VERTEX
  5
2E7
330
1EE
100
AcDbEntity
  8
3
 62
   174
100
AcDbVertex
100
AcDb2dVertex
 10
575.0
 20
175.0
 30
0.0
  0
VERTEX
  5
2E8
330
1EE
100
AcDbEntity
  8
3
 62
   174
100
AcDbVertex
100
AcDb2dVertex
 10
574.951171875
 20
170.3369140625
 30
0.0
  0
VERTEX
  5
2E9
330
1EE
100
AcDbEntity
  8
3
 62
   174
100
AcDbVertex
100
AcDb2dVertex
 10
574.609375
 20
165.8203125
 30
0.0
  0
VERTEX
  5
2EA
330
1EE
100
AcDbEntity
  8
3
 62
   174
100
AcDbVertex
100
AcDb2dVertex
 10
573.681640625
 20
161.5966796875
 30
0.0
  0
VERTEX
  5
2EB
330
1EE
100
AcDbEntity
  8
3
 62
   174
100
AcDbVertex
100
AcDb2dVertex
 10
571.875
 20
157.8125
 30
0.0
  0
VERTEX
  5
2EC
330
1EE
100
AcDbEntity
  8
3
 62
   174
100
AcDbVertex
100
AcDb2dVertex
 10
568.896484375
 20
154.6142578125
 30
0.0
  0
VERTEX
  5
2ED
330
1EE
100
AcDbEntity
  8
3
 62
   174
100
AcDbVertex
100
AcDb2dVertex
 10
564.453125
 20
152.1484375
 30
0.0
  0
VERTEX
  5
2EE
330
1EE
100
AcDbEntity
  8
3
 62
   174
100
AcDbVertex
100
AcDb2dVertex
 10
558.251953125
 20
150.5615234375
 30
0.0
  0
VERTEX
  5
2EF
330
1EE
100
AcDbEntity
  8
3
 62
   174
100
AcDbVertex
100
AcDb2dVertex
 10
550.0
 20
150.0
 30
0.0
  0
VERTEX
  5
2F0
330
1EE
100
AcDbEntity
  8
3
 62
   174
100
AcDbVertex
100
AcDb2dVertex
 10
541.748046875
 20
150.5615234375
 30
0.0
  0
VERTEX
  5
2F1
330
1EE
100
AcDbEntity
  8
3
 62
   174
100
AcDbVertex
100
AcDb2dVertex
 10
535.546875
 20
152.1484375
 30
0.0
  0
VERTEX
  5
2F2
330
1EE
100
AcDbEntity
  8
3
 62
   174
100
AcDbVertex
100
AcDb2dVertex
 10
531.103515625
 20
154.6142578125
 30
0.0
  0
VERTEX
  5
2F3
330
1EE
100
AcDbEntity
  8
3
 62
   174
100
AcDbVertex
100
AcDb2dVertex
 10
528.125
 20
157.8125
 30
0.0
  0
VERTEX
  5
2F4
330
1EE
100
AcDbEntity
  8
3
 62
   174
100
AcDbVertex
100
AcDb2dVertex
 10
526.318359375
 20
161.5966796875
 30
0.0
  0
VERTEX
  5
2F5
330
1EE
100
AcDbEntity
  8
3
 62
   174
100
AcDbVertex
100
AcDb2dVertex
 10
525.390625
 20
165.8203125
 30
0.0
  0
VERTEX
  5
2F6
330
1EE
100
AcDbEntity
  8
3
 62
   174
100
AcDbVertex
100
AcDb2dVertex
 10
525.048828125
 20
170.3369140625
 30
0.0
  0
VERTEX
  5
2F7
330
1EE
100
AcDbEntity
  8
3
 62
   174
100
AcDbVertex
100
AcDb2dVertex
 10
525.0
 20
175.0
 30
0.0
  0
VERTEX
  5
2F8
330
1EE
100
AcDbEntity
  8
3
 62
   174
100
AcDbVertex
100
AcDb2dVertex
 10
524.951171875
 20
179.6630859375
 30
0.0
  0
VERTEX
  5
2F9
330
1EE
100
AcDbEntity
  8
3
 62
   174
100
AcDbVertex
100
AcDb2dVertex
 10
524.609375
 20
184.1796875
 30
0.0
  0
VERTEX
  5
2FA
330
1EE
100
AcDbEntity
  8
3
 62
   174
100
AcDbVertex
100
AcDb2dVertex
 10
523.681640625
 20
188.4033203125
 30
0.0
  0
VERTEX
  5
2FB
330
1EE
100
AcDbEntity
  8
3
 62
   174
100
AcDbVertex
100
AcDb2dVertex
 10
521.875
 20
192.1875
 30
0.0
  0
VERTEX
  5
2FC
330
1EE
100
AcDbEntity
  8
3
 62
   174
100
AcDbVertex
100
AcDb2dVertex
 10
518.896484375
 20
195.3857421875
 30
0.0
  0
VERTEX
  5
2FD
330
1EE
100
AcDbEntity
  8
3
 62
   174
100
AcDbVertex
100
AcDb2dVertex
 10
514.453125
 20
197.8515625
 30
0.0
  0
VERTEX
  5
2FE
330
1EE
100
AcDbEntity
  8
3
 62
   174
100
AcDbVertex
100
AcDb2dVertex
 10
508.251953125
 20
199.4384765625
 30
0.0
  0
VERTEX
  5
2FF
330
1EE
100
AcDbEntity
  8
3
 62
   174
100
AcDbVertex
100
AcDb2dVertex
 10
500.0
 20
200.0
 30
0.0
  0
VERTEX
  5
300
330
1EE
100
AcDbEntity
  8
3
 62
   174
100
AcDbVertex
100
AcDb2dVertex
 10
491.748046875
 20
199.4384765625
 30
0.0
  0
VERTEX
  5
301
330
1EE
100
AcDbEntity
  8
3
 62
   174
100
AcDbVertex
100
AcDb2dVertex
 10
485.546875
 20
197.8515625
 30
0.0
  0
VERTEX
  5
302
330
1EE
100
AcDbEntity
  8
3
 62
   174
100
AcDbVertex
100
AcDb2dVertex
 10
481.103515625
 20
195.3857421875
 30
0.0
  0
VERTEX
  5
303
330
1EE
100
AcDbEntity
  8
3
 62
   174
100
AcDbVertex
100
AcDb2dVertex
 10
478.125
 20
192.1875
 30
0.0
  0
VERTEX
  5
304
330
1EE
100
AcDbEntity
  8
3
 62
   174
100
AcDbVertex
100
AcDb2dVertex
 10
476.318359375
 20
188.4033203125
 30
0.0
  0
VERTEX
  5
305
330
1EE
100
AcDbEntity
  8
3
 62
   174
100
AcDbVertex
100
AcDb2dVertex
 10
475.390625
 20
184.1796875
 30
0.0
  0
VERTEX
  5
306
330
1EE
100
AcDbEntity
  8
3
 62
   174
100
AcDbVertex
100
AcDb2dVertex
 10
475.048828125
 20
179.6630859375
 30
0.0
  0
VERTEX
  5
307
330
1EE
100
AcDbEntity
  8
3
 62
   174
100
AcDbVertex
100
AcDb2dVertex
 10
475.0
 20
175.0
 30
0.0
  0
VERTEX
  5
308
330
1EE
100
AcDbEntity
  8
3
 62
   174
100
AcDbVertex
100
AcDb2dVertex
 10
474.951171875
 20
170.3369140625
 30
0.0
  0
VERTEX
  5
309
330
1EE
100
AcDbEntity
  8
3
 62
   174
100
AcDbVertex
100
AcDb2dVertex
 10
474.609375
 20
165.8203125
 30
0.0
  0
VERTEX
  5
30A
330
1EE
100
AcDbEntity
  8
3
 62
   174
100
AcDbVertex
100
AcDb2dVertex
 10
473.681640625
 20
161.5966796875
 30
0.0
  0
VERTEX
  5
30B
330
1EE
100
AcDbEntity
  8
3
 62
   174
100
AcDbVertex
100
AcDb2dVertex
 10
471.875
 20
157.8125
 30
0.0
  0
VERTEX
  5
30C
330
1EE
100
AcDbEntity
  8
3
 62
   174
100
AcDbVertex
100
AcDb2dVertex
 10
468.896484375
 20
154.6142578125
 30
0.0
  0
VERTEX
  5
30D
330
1EE
100
AcDbEntity
  8
3
 62
   174
100
AcDbVertex
100
AcDb2dVertex
 10
464.453125
 20
152.1484375
 30
0.0
  0
VERTEX
  5
30E
330
1EE
100
AcDbEntity
  8
3
 62
   174
100
AcDbVertex
100
AcDb2dVertex
 10
458.251953125
 20
150.5615234375
 30
0.0
  0
VERTEX
  5
30F
330
1EE
100
AcDbEntity
  8
3
 62
   174
100
AcDbVertex
100
AcDb2dVertex
 10
450.0
 20
150.0
 30
0.0
  0
VERTEX
  5
310
330
1EE
100
AcDbEntity
  8
3
 62
   174
100
AcDbVertex
100
AcDb2dVertex
 10
441.748046875
 20
150.5615234375
 30
0.0
  0
VERTEX
  5
311
330
1EE
100
AcDbEntity
  8
3
 62
   174
100
AcDbVertex
100
AcDb2dVertex
 10
435.546875
 20
152.1484375
 30
0.0
  0
VERTEX
  5
312
330
1EE
100
AcDbEntity
  8
3
 62
   174
100
AcDbVertex
100
AcDb2dVertex
 10
431.103515625
 20
154.6142578125
 30
0.0
  0
VERTEX
  5
313
330
1EE
100
AcDbEntity
  8
3
 62
   174
100
AcDbVertex
100
AcDb2dVertex
 10
428.125
 20
157.8125
 30
0.0
  0
VERTEX
  5
314
330
1EE
100
AcDbEntity
  8
3
 62
   174
100
AcDbVertex
100
AcDb2dVertex
 10
426.318359375
 20
161.5966796875
 30
0.0
  0
VERTEX
  5
315
330
1EE
100
AcDbEntity
  8
3
 62
   174
100
AcDbVertex
100
AcDb2dVertex
 10
425.390625
 20
165.8203125
 30
0.0
  0
VERTEX
  5
316
330
1EE
100
AcDbEntity
  8
3
 62
   174
100
AcDbVertex
100
AcDb2dVertex
 10
425.048828125
 20
170.3369140625
 30
0.0
  0
VERTEX
  5
317
330
1EE
100
AcDbEntity
  8
3
 62
   174
100
AcDbVertex
100
AcDb2dVertex
 10
425.0
 20
175.0
 30
0.0
  0
VERTEX
  5
318
330
1EE
100
AcDbEntity
  8
3
 62
   174
100
AcDbVertex
100
AcDb2dVertex
 10
424.951171875
 20
179.6630859375
 30
0.0
  0
VERTEX
  5
319
330
1EE
100
AcDbEntity
  8
3
 62
   174
100
AcDbVertex
100
AcDb2dVertex
 10
424.609375
 20
184.1796875
 30
0.0
  0
VERTEX
  5
31A
330
1EE
100
AcDbEntity
  8
3
 62
   174
100
AcDbVertex
100
AcDb2dVertex
 10
423.681640625
 20
188.4033203125
 30
0.0
  0
VERTEX
  5
31B
330
1EE
100
AcDbEntity
  8
3
 62
   174
100
AcDbVertex
100
AcDb2dVertex
 10
421.875
 20
192.1875
 30
0.0
  0
VERTEX
  5
31C
330
1EE
100
AcDbEntity
  8
3
 62
   174
100
AcDbVertex
100
AcDb2dVertex
 10
418.896484375
 20
195.3857421875
 30
0.0
  0
VERTEX
  5
31D
330
1EE
100
AcDbEntity
  8
3
 62
   174
100
AcDbVertex
100
AcDb2dVertex
 10
414.453125
 20
197.8515625
 30
0.0
  0
VERTEX
  5
31E
330
1EE
100
AcDbEntity
  8
3
 62
   174
100
AcDbVertex
100
AcDb2dVertex
 10
408.251953125
 20
199.4384765625
 30
0.0
  0
VERTEX
  5
31F
330
1EE
100
AcDbEntity
  8
3
 62
   174
100
AcDbVertex
100
AcDb2dVertex
 10
400.0
 20
200.0
 30
0.0
  0
VERTEX
  5
320
330
1EE
100
AcDbEntity
  8
3
 62
   174
100
AcDbVertex
100
AcDb2dVertex
 10
391.748046875
 20
199.4384765625
 30
0.0
  0
VERTEX
  5
321
330
1EE
100
AcDbEntity
  8
3
 62
   174
100
AcDbVertex
100
AcDb2dVertex
 10
385.546875
 20
197.8515625
 30
0.0
  0
VERTEX
  5
322
330
1EE
100
AcDbEntity
  8
3
 62
   174
100
AcDbVertex
100
AcDb2dVertex
 10
381.103515625
 20
195.3857421875
 30
0.0
  0
VERTEX
  5
323
330
1EE
100
AcDbEntity
  8
3
 62
   174
100
AcDbVertex
100
AcDb2dVertex
 10
378.125
 20
192.1875
 30
0.0
  0
VERTEX
  5
324
330
1EE
100
AcDbEntity
  8
3
 62
   174
100
AcDbVertex
100
AcDb2dVertex
 10
376.318359375
 20
188.4033203125
 30
0.0
  0
VERTEX
  5
325
330
1EE
100
AcDbEntity
  8
3
 62
   174
100
AcDbVertex
100
AcDb2dVertex
 10
375.390625
 20
184.1796875
 30
0.0
  0
VERTEX
  5
326
330
1EE
100
AcDbEntity
  8
3
 62
   174
100
AcDbVertex
100
AcDb2dVertex
 10
375.048828125
 20
179.6630859375
 30
0.0
  0
VERTEX
  5
327
330
1EE
100
AcDbEntity
  8
3
 62
   174
100
AcDbVertex
100
AcDb2dVertex
 10
375.0
 20
175.0
 30
0.0
  0
VERTEX
  5
328
330
1EE
100
AcDbEntity
  8
3
 62
   174
100
AcDbVertex
100
AcDb2dVertex
 10
374.951171875
 20
170.3369140625
 30
0.0
  0
VERTEX
  5
329
330
1EE
100
AcDbEntity
  8
3
 62
   174
100
AcDbVertex
100
AcDb2dVertex
 10
374.609375
 20
165.8203125
 30
0.0
  0
VERTEX
  5
32A
330
1EE
100
AcDbEntity
  8
3
 62
   174
100
AcDbVertex
100
AcDb2dVertex
 10
373.681640625
 20
161.5966796875
 30
0.0
  0
VERTEX
  5
32B
330
1EE
100
AcDbEntity
  8
3
 62
   174
100
AcDbVertex
100
AcDb2dVertex
 10
371.875
 20
157.8125
 30
0.0
  0
VERTEX
  5
32C
330
1EE
100
AcDbEntity
  8
3
 62
   174
100
AcDbVertex
100
AcDb2dVertex
 10
368.896484375
 20
154.6142578125
 30
0.0
  0
VERTEX
  5
32D
330
1EE
100
AcDbEntity
  8
3
 62
   174
100
AcDbVertex
100
AcDb2dVertex
 10
364.453125
 20
152.1484375
 30
0.0
  0
VERTEX
  5
32E
330
1EE
100
AcDbEntity
  8
3
 62
   174
100
AcDbVertex
100
AcDb2dVertex
 10
358.251953125
 20
150.5615234375
 30
0.0
  0
VERTEX
  5
32F
330
1EE
100
AcDbEntity
  8
3
 62
   174
100
AcDbVertex
100
AcDb2dVertex
 10
350.0
 20
150.0
 30
0.0
  0
VERTEX
  5
330
330
1EE
100
AcDbEntity
  8
3
 62
   174
100
AcDbVertex
100
AcDb2dVertex
 10
341.748046875
 20
150.5615234375
 30
0.0
  0
VERTEX
  5
331
330
1EE
100
AcDbEntity
  8
3
 62
   174
100
AcDbVertex
100
AcDb2dVertex
 10
335.546875
 20
152.1484375
 30
0.0
  0
VERTEX
  5
332
330
1EE
100
AcDbEntity
  8
3
 62
   174
100
AcDbVertex
100
AcDb2dVertex
 10
331.103515625
 20
154.6142578125
 30
0.0
  0
VERTEX
  5
333
330
1EE
100
AcDbEntity
  8
3
 62
   174
100
AcDbVertex
100
AcDb2dVertex
 10
328.125
 20
157.8125
 30
0.0
  0
VERTEX
  5
334
330
1EE
100
AcDbEntity
  8
3
 62
   174
100
AcDbVertex
100
AcDb2dVertex
 10
326.318359375
 20
161.5966796875
 30
0.0
  0
VERTEX
  5
335
330
1EE
100
AcDbEntity
  8
3
 62
   174
100
AcDbVertex
100
AcDb2dVertex
 10
325.390625
 20
165.8203125
 30
0.0
  0
VERTEX
  5
336
330
1EE
100
AcDbEntity
  8
3
 62
   174
100
AcDbVertex
100
AcDb2dVertex
 10
325.048828125
 20
170.3369140625
 30
0.0
  0
VERTEX
  5
337
330
1EE
100
AcDbEntity
  8
3
 62
   174
100
AcDbVertex
100
AcDb2dVertex
 10
325.0
 20
175.0
 30
0.0
  0
VERTEX
  5
338
330
1EE
100
AcDbEntity
  8
3
 62
   174
100
AcDbVertex
100
AcDb2dVertex
 10
324.951171875
 20
179.6630859375
 30
0.0
  0
VERTEX
  5
339
330
1EE
100
AcDbEntity
  8
3
 62
   174
100
AcDbVertex
100
AcDb2dVertex
 10
324.609375
 20
184.1796875
 30
0.0
  0
VERTEX
  5
33A
330
1EE
100
AcDbEntity
  8
3
 62
   174
100
AcDbVertex
100
AcDb2dVertex
 10
323.681640625
 20
188.4033203125
 30
0.0
  0
VERTEX
  5
33B
330
1EE
100
AcDbEntity
  8
3
 62
   174
100
AcDbVertex
100
AcDb2dVertex
 10
321.875
 20
192.1875
 30
0.0
  0
VERTEX
  5
33C
330
1EE
100
AcDbEntity
  8
3
 62
   174
100
AcDbVertex
100
AcDb2dVertex
 10
318.896484375
 20
195.3857421875
 30
0.0
  0
VERTEX
  5
33D
330
1EE
100
AcDbEntity
  8
3
 62
   174
100
AcDbVertex
100
AcDb2dVertex
 10
314.453125
 20
197.8515625
 30
0.0
  0
VERTEX
  5
33E
330
1EE
100
AcDbEntity
  8
3
 62
   174
100
AcDbVertex
100
AcDb2dVertex
 10
308.251953125
 20
199.4384765625
 30
0.0
  0
VERTEX
  5
33F
330
1EE
100
AcDbEntity
  8
3
 62
   174
100
AcDbVertex
100
AcDb2dVertex
 10
300.0
 20
200.0
 30
0.0
  0
VERTEX
  5
340
330
1EE
100
AcDbEntity
  8
3
 62
   174
100
AcDbVertex
100
AcDb2dVertex
 10
291.748046875
 20
199.4384765625
 30
0.0
  0
VERTEX
  5
341
330
1EE
100
AcDbEntity
  8
3
 62
   174
100
AcDbVertex
100
AcDb2dVertex
 10
285.546875
 20
197.8515625
 30
0.0
  0
VERTEX
  5
342
330
1EE
100
AcDbEntity
  8
3
 62
   174
100
AcDbVertex
100
AcDb2dVertex
 10
281.103515625
 20
195.3857421875
 30
0.0
  0
VERTEX
  5
343
330
1EE
100
AcDbEntity
  8
3
 62
   174
100
AcDbVertex
100
AcDb2dVertex
 10
278.125
 20
192.1875
 30
0.0
  0
VERTEX
  5
344
330
1EE
100
AcDbEntity
  8
3
 62
   174
100
AcDbVertex
100
AcDb2dVertex
 10
276.318359375
 20
188.4033203125
 30
0.0
  0
VERTEX
  5
345
330
1EE
100
AcDbEntity
  8
3
 62
   174
100
AcDbVertex
100
AcDb2dVertex
 10
275.390625
 20
184.1796875
 30
0.0
  0
VERTEX
  5
346
330
1EE
100
AcDbEntity
  8
3
 62
   174
100
AcDbVertex
100
AcDb2dVertex
 10
275.048828125
 20
179.6630859375
 30
0.0
  0
VERTEX
  5
347
330
1EE
100
AcDbEntity
  8
3
 62
   174
100
AcDbVertex
100
AcDb2dVertex
 10
275.0
 20
175.0
 30
0.0
  0
VERTEX
  5
348
330
1EE
100
AcDbEntity
  8
3
 62
   174
100
AcDbVertex
100
AcDb2dVertex
 10
274.951171875
 20
170.3369140625
 30
0.0
  0
VERTEX
  5
349
330
1EE
100
AcDbEntity
  8
3
 62
   174
100
AcDbVertex
100
AcDb2dVertex
 10
274.609375
 20
165.8203125
 30
0.0
  0
VERTEX
  5
34A
330
1EE
100
AcDbEntity
  8
3
 62
   174
100
AcDbVertex
100
AcDb2dVertex
 10
273.681640625
 20
161.5966796875
 30
0.0
  0
VERTEX
  5
34B
330
1EE
100
AcDbEntity
  8
3
 62
   174
100
AcDbVertex
100
AcDb2dVertex
 10
271.875
 20
157.8125
 30
0.0
  0
VERTEX
  5
34C
330
1EE
100
AcDbEntity
  8
3
 62
   174
100
AcDbVertex
100
AcDb2dVertex
 10
268.896484375
 20
154.6142578125
 30
0.0
  0
VERTEX
  5
34D
330
1EE
100
AcDbEntity
  8
3
 62
   174
100
AcDbVertex
100
AcDb2dVertex
 10
264.453125
 20
152.1484375
 30
0.0
  0
VERTEX
  5
34E
330
1EE
100
AcDbEntity
  8
3
 62
   174
100
AcDbVertex
100
AcDb2dVertex
 10
258.251953125
 20
150.5615234375
 30
0.0
  0
VERTEX
  5
34F
330
1EE
100
AcDbEntity
  8
3
 62
   174
100
AcDbVertex
100
AcDb2dVertex
 10
250.0
 20
150.0
 30
0.0
  0
VERTEX
  5
350
330
1EE
100
AcDbEntity
  8
3
 62
   174
100
AcDbVertex
100
AcDb2dVertex
 10
241.748046875
 20
150.5615234375
 30
0.0
  0
VERTEX
  5
351
330
1EE
100
AcDbEntity
  8
3
 62
   174
100
AcDbVertex
100
AcDb2dVertex
 10
235.546875
 20
152.1484375
 30
0.0
  0
VERTEX
  5
352
330
1EE
100
AcDbEntity
  8
3
 62
   174
100
AcDbVertex
100
AcDb2dVertex
 10
231.103515625
 20
154.6142578125
 30
0.0
  0
VERTEX
  5
353
330
1EE
100
AcDbEntity
  8
3
 62
   174
100
AcDbVertex
100
AcDb2dVertex
 10
228.125
 20
157.8125
 30
0.0
  0
VERTEX
  5
354
330
1EE
100
AcDbEntity
  8
3
 62
   174
100
AcDbVertex
100
AcDb2dVertex
 10
226.318359375
 20
161.5966796875
 30
0.0
  0
VERTEX
  5
355
330
1EE
100
AcDbEntity
  8
3
 62
   174
100
AcDbVertex
100
AcDb2dVertex
 10
225.390625
 20
165.8203125
 30
0.0
  0
VERTEX
  5
356
330
1EE
100
AcDbEntity
  8
3
 62
   174
100
AcDbVertex
100
AcDb2dVertex
 10
225.048828125
 20
170.3369140625
 30
0.0
  0
VERTEX
  5
357
330
1EE
100
AcDbEntity
  8
3
 62
   174
100
AcDbVertex
100
AcDb2dVertex
 10
225.0
 20
175.0
 30
0.0
  0
VERTEX
  5
358
330
1EE
100
AcDbEntity
  8
3
 62
   174
100
AcDbVertex
100
AcDb2dVertex
 10
224.951171875
 20
179.6630859375
 30
0.0
  0
VERTEX
  5
359
330
1EE
100
AcDbEntity
  8
3
 62
   174
100
AcDbVertex
100
AcDb2dVertex
 10
224.609375
 20
184.1796875
 30
0.0
  0
VERTEX
  5
35A
330
1EE
100
AcDbEntity
  8
3
 62
   174
100
AcDbVertex
100
AcDb2dVertex
 10
223.681640625
 20
188.4033203125
 30
0.0
  0
VERTEX
  5
35B
330
1EE
100
AcDbEntity
  8
3
 62
   174
100
AcDbVertex
100
AcDb2dVertex
 10
221.875
 20
192.1875
 30
0.0
  0
VERTEX
  5
35C
330
1EE
100
AcDbEntity
  8
3
 62
   174
100
AcDbVertex
100
AcDb2dVertex
 10
218.896484375
 20
195.3857421875
 30
0.0
  0
VERTEX
  5
35D
330
1EE
100
AcDbEntity
  8
3
 62
   174
100
AcDbVertex
100
AcDb2dVertex
 10
214.453125
 20
197.8515625
 30
0.0
  0
VERTEX
  5
35E
330
1EE
100
AcDbEntity
  8
3
 62
   174
100
AcDbVertex
100
AcDb2dVertex
 10
208.251953125
 20
199.4384765625
 30
0.0
  0
VERTEX
  5
35F
330
1EE
100
AcDbEntity
  8
3
 62
   174
100
AcDbVertex
100
AcDb2dVertex
 10
200.0
 20
200.0
 30
0.0
  0
VERTEX
  5
360
330
1EE
100
AcDbEntity
  8
3
 62
   174
100
AcDbVertex
100
AcDb2dVertex
 10
191.748046875
 20
199.4384765625
 30
0.0
  0
VERTEX
  5
361
330
1EE
100
AcDbEntity
  8
3
 62
   174
100
AcDbVertex
100
AcDb2dVertex
 10
185.546875
 20
197.8515625
 30
0.0
  0
VERTEX
  5
362
330
1EE
100
AcDbEntity
  8
3
 62
   174
100
AcDbVertex
100
AcDb2dVertex
 10
181.103515625
 20
195.3857421875
 30
0.0
  0
VERTEX
  5
363
330
1EE
100
AcDbEntity
  8
3
 62
   174
100
AcDbVertex
100
AcDb2dVertex
 10
178.125
 20
192.1875
 30
0.0
  0
VERTEX
  5
364
330
1EE
100
AcDbEntity
  8
3
 62
   174
100
AcDbVertex
100
AcDb2dVertex
 10
176.318359375
 20
188.4033203125
 30
0.0
  0
VERTEX
  5
365
330
1EE
100
AcDbEntity
  8
3
 62
   174
100
AcDbVertex
100
AcDb2dVertex
 10
175.390625
 20
184.1796875
 30
0.0
  0
VERTEX
  5
366
330
1EE
100
AcDbEntity
  8
3
 62
   174
100
AcDbVertex
100
AcDb2dVertex
 10
175.048828125
 20
179.6630859375
 30
0.0
  0
VERTEX
  5
367
330
1EE
100
AcDbEntity
  8
3
 62
   174
100
AcDbVertex
100
AcDb2dVertex
 10
175.0
 20
175.0
 30
0.0
  0
VERTEX
  5
368
330
1EE
100
AcDbEntity
  8
3
 62
   174
100
AcDbVertex
100
AcDb2dVertex
 10
174.951171875
 20
170.3369140625
 30
0.0
  0
VERTEX
  5
369
330
1EE
100
AcDbEntity
  8
3
 62
   174
100
AcDbVertex
100
AcDb2dVertex
 10
174.609375
 20
165.8203125
 30
0.0
  0
VERTEX
  5
36A
330
1EE
100
AcDbEntity
  8
3
 62
   174
100
AcDbVertex
100
AcDb2dVertex
 10
173.681640625
 20
161.5966796875
 30
0.0
  0
VERTEX
  5
36B
330
1EE
100
AcDbEntity
  8
3
 62
   174
100
AcDbVertex
100
AcDb2dVertex
 10
171.875
 20
157.8125
 30
0.0
  0
VERTEX
  5
36C
330
1EE
100
AcDbEntity
  8
3
 62
   174
100
AcDbVertex
100
AcDb2dVertex
 10
168.896484375
 20
154.6142578125
 30
0.0
  0
VERTEX
  5
36D
330
1EE
100
AcDbEntity
  8
3
 62
   174
100
AcDbVertex
100
AcDb2dVertex
 10
164.453125
 20
152.1484375
 30
0.0
  0
VERTEX
  5
36E
330
1EE
100
AcDbEntity
  8
3
 62
   174
100
AcDbVertex
100
AcDb2dVertex
 10
158.251953125
 20
150.5615234375
 30
0.0
  0
VERTEX
  5
36F
330
1EE
100
AcDbEntity
  8
3
 62
   174
100
AcDbVertex
100
AcDb2dVertex
 10
150.0
 20
150.0
 30
0.0
  0
VERTEX
  5
370
330
1EE
100
AcDbEntity
  8
3
 62
   174
100
AcDbVertex
100
AcDb2dVertex
 10
141.748046875
 20
150.5615234375
 30
0.0
  0
VERTEX
  5
371
330
1EE
100
AcDbEntity
  8
3
 62
   174
100
AcDbVertex
100
AcDb2dVertex
 10
135.546875
 20
152.1484375
 30
0.0
  0
VERTEX
  5
372
330
1EE
100
AcDbEntity
  8
3
 62
   174
100
AcDbVertex
100
AcDb2dVertex
 10
131.103515625
 20
154.6142578125
 30
0.0
  0
VERTEX
  5
373
330
1EE
100
AcDbEntity
  8
3
 62
   174
100
AcDbVertex
100
AcDb2dVertex
 10
128.125
 20
157.8125
 30
0.0
  0
VERTEX
  5
374
330
1EE
100
AcDbEntity
  8
3
 62
   174
100
AcDbVertex
100
AcDb2dVertex
 10
126.318359375
 20
161.5966796875
 30
0.0
  0
VERTEX
  5
375
330
1EE
100
AcDbEntity
  8
3
 62
   174
100
AcDbVertex
100
AcDb2dVertex
 10
125.390625
 20
165.8203125
 30
0.0
  0
VERTEX
  5
376
330
1EE
100
AcDbEntity
  8
3
 62
   174
100
AcDbVertex
100
AcDb2dVertex
 10
125.048828125
 20
170.3369140625
 30
0.0
  0
VERTEX
  5
377
330
1EE
100
AcDbEntity
  8
3
 62
   174
100
AcDbVertex
100
AcDb2dVertex
 10
125.0
 20
175.0
 30
0.0
  0
VERTEX
  5
378
330
1EE
100
AcDbEntity
  8
3
 62
   174
100
AcDbVertex
100
AcDb2dVertex
 10
124.951171875
 20
179.6630859375
 30
0.0
  0
VERTEX
  5
379
330
1EE
100
AcDbEntity
  8
3
 62
   174
100
AcDbVertex
100
AcDb2dVertex
 10
124.609375
 20
184.1796875
 30
0.0
  0
VERTEX
  5
37A
330
1EE
100
AcDbEntity
  8
3
 62
   174
100
AcDbVertex
100
AcDb2dVertex
 10
123.681640625
 20
188.4033203125
 30
0.0
  0
VERTEX
  5
37B
330
1EE
100
AcDbEntity
  8
3
 62
   174
100
AcDbVertex
100
AcDb2dVertex
 10
121.875
 20
192.1875
 30
0.0
  0
VERTEX
  5
37C
330
1EE
100
AcDbEntity
  8
3
 62
   174
100
AcDbVertex
100
AcDb2dVertex
 10
118.896484375
 20
195.3857421875
 30
0.0
  0
VERTEX
  5
37D
330
1EE
100
AcDbEntity
  8
3
 62
   174
100
AcDbVertex
100
AcDb2dVertex
 10
114.453125
 20
197.8515625
 30
0.0
  0
VERTEX
  5
37E
330
1EE
100
AcDbEntity
  8
3
 62
   174
100
AcDbVertex
100
AcDb2dVertex
 10
108.251953125
 20
199.4384765625
 30
0.0
  0
VERTEX
  5
37F
330
1EE
100
AcDbEntity
  8
3
 62
   174
100
AcDbVertex
100
AcDb2dVertex
 10
100.0
 20
200.0
 30
0.0
  0
VERTEX
  5
380
330
1EE
100
AcDbEntity
  8
3
 62
   174
100
AcDbVertex
100
AcDb2dVertex
 10
91.748046875
 20
199.4384765625
 30
0.0
  0
VERTEX
  5
381
330
1EE
100
AcDbEntity
  8
3
 62
   174
100
AcDbVertex
100
AcDb2dVertex
 10
85.546875
 20
197.8515625
 30
0.0
  0
VERTEX
  5
382
330
1EE
100
AcDbEntity
  8
3
 62
   174
100
AcDbVertex
100
AcDb2dVertex
 10
81.103515625
 20
195.3857421875
 30
0.0
  0
VERTEX
  5
383
330
1EE
100
AcDbEntity
  8
3
 62
   174
100
AcDbVertex
100
AcDb2dVertex
 10
78.125
 20
192.1875
 30
0.0
  0
VERTEX
  5
384
330
1EE
100
AcDbEntity
  8
3
 62
   174
100
AcDbVertex
100
AcDb2dVertex
 10
76.318359375
 20
188.4033203125
 30
0.0
  0
VERTEX
  5
385
330
1EE
100
AcDbEntity
  8
3
 62
   174
100
AcDbVertex
100
AcDb2dVertex
 10
75.390625
 20
184.1796875
 30
0.0
  0
VERTEX
  5
386
330
1EE
100
AcDbEntity
  8
3
 62
   174
100
AcDbVertex
100
AcDb2dVertex
 10
75.048828125
 20
179.6630859375
 30
0.0
  0
VERTEX
  5
387
330
1EE
100
AcDbEntity
  8
3
 62
   174
100
AcDbVertex
100
AcDb2dVertex
 10
75.0
 20
175.0
 30
0.0
  0
VERTEX
  5
388
330
1EE
100
AcDbEntity
  8
3
 62
   174
100
AcDbVertex
100
AcDb2dVertex
 10
74.951171875
 20
170.3369140625
 30
0.0
  0
VERTEX
  5
389
330
1EE
100
AcDbEntity
  8
3
 62
   174
100
AcDbVertex
100
AcDb2dVertex
 10
74.609375
 20
165.8203125
 30
0.0
  0
VERTEX
  5
38A
330
1EE
100
AcDbEntity
  8
3
 62
   174
100
AcDbVertex
100
AcDb2dVertex
 10
73.681640625
 20
161.5966796875
 30
0.0
  0
VERTEX
  5
38B
330
1EE
100
AcDbEntity
  8
3
 62
   174
100
AcDbVertex
100
AcDb2dVertex
 10
71.875
 20
157.8125
 30
0.0
  0
VERTEX
  5
38C
330
1EE
100
AcDbEntity
  8
3
 62
   174
100
AcDbVertex
100
AcDb2dVertex
 10
68.896484375
 20
154.6142578125
 30
0.0
  0
VERTEX
  5
38D
330
1EE
100
AcDbEntity
  8
3
 62
   174
100
AcDbVertex
100
AcDb2dVertex
 10
64.453125
 20
152.1484375
 30
0.0
  0
VERTEX
  5
38E
330
1EE
100
AcDbEntity
  8
3
 62
   174
100
AcDbVertex
100
AcDb2dVertex
 10
58.251953125
 20
150.5615234375
 30
0.0
  0
VERTEX
  5
38F
330
1EE
100
AcDbEntity
  8
3
 62
   174
100
AcDbVertex
100
AcDb2dVertex
 10
50.0
 20
150.0
 30
0.0
  0
SEQEND
  5
390
330
1EE
100
AcDbEntity
  8
3
 62
   174
  0
POLYLINE
  5
392
330
1F
100
AcDbEntity
  8
4
 62
   250
100
AcDb2dPolyline
 66
     1
 10
0.0
 20
0.0
 30
0.0
  0
VERTEX
  5
393
330
392
100
AcDbEntity
  8
4
 62
   250
100
AcDbVertex
100
AcDb2dVertex
 10
50.0
 20
150.0
 30
0.0
  0
VERTEX
  5
394
330
392
100
AcDbEntity
  8
4
 62
   250
100
AcDbVertex
100
AcDb2dVertex
 10
0.0
 20
0.0
 30
0.0
  0
SEQEND
  5
395
330
392
100
AcDbEntity
  8
4
 62
   250
  0
ENDSEC
  0
SECTION
  2
OBJECTS
  0
DICTIONARY
  5
C
330
0
100
AcDbDictionary
  3
ACAD_GROUP
350
D
  3
ACAD_LAYOUT
350
1A
  3
ACAD_MATERIAL
350
3B
  3
ACAD_MLEADERSTYLE
350
3B8
  3
ACAD_MLINESTYLE
350
17
  3
ACAD_PLOTSETTINGS
350
19
  3
ACAD_VISUALSTYLE
350
2A
  3
ACDBHEADERROUNDTRIPXREC
350
396
  3
ACDBVARIABLEDICTIONARY
350
3B6
  0
DICTIONARY
  5
D
102
{ACAD_REACTORS
330
C
102
}
330
C
100
AcDbDictionary
  0
DICTIONARY
  5
1A
102
{ACAD_REACTORS
330
C
102
}
330
C
100
AcDbDictionary
  0
DICTIONARY
  5
3B
102
{ACAD_REACTORS
330
C
102
}
330
C
100
AcDbDictionary
  3
BYBLOCK
350
3D
  3
BYLAYER
350
3C
  3
GLOBAL
350
3E
  0
DICTIONARY
  5
3B8
102
{ACAD_REACTORS
330
C
102
}
330
C
100
AcDbDictionary
  0
DICTIONARY
  5
17
102
{ACAD_REACTORS
330
C
102
}
330
C
100
AcDbDictionary
  3
STANDARD
350
18
  0
DICTIONARY
  5
19
102
{ACAD_REACTORS
330
C
102
}
330
C
100
AcDbDictionary
  0
DICTIONARY
  5
2A
102
{ACAD_REACTORS
330
C
102
}
330
C
100
AcDbDictionary
  3
2DWIREFRAME
350
2F
  3
3D_HIDDEN
350
31
  3
3DWIREFRAME
350
30
  3
BASIC
350
32
  3
BRIGHTEN
350
36
  3
COLORCHANGE
350
3A
  3
CONCEPTUAL
350
34
  3
DIM
350
35
  3
FACEPATTERN
350
39
  3
FLAT
350
2B
  3
FLATWITHEDGES
350
2C
  3
GOURAUD
350
2D
  3
GOURAUDWITHEDGES
350
2E
  3
LINEPATTERN
350
38
  3
REALISTIC
350
33
  3
THICKEN
350
37
  0
DICTIONARY
  5
396
102
{ACAD_REACTORS
330
C
102
}
330
C
100
AcDbDictionary
  3
CEPSNTYPE
350
39F
  3
DIMSTYLEDATA
350
3B5
  3
FINGERPRINTGUID
350
3A0
  3
HYPERLINKBASE
350
399
  3
INSUNITS
350
39E
  3
LAYOUTDICT
350
39B
  3
LWETCUNION
350
39D
  3
PLOTSETDICT
350
39C
  3
PSVPSCALE
350
3A2
  3
PUCSBASE
350
3A5
  3
PUCSORGBACK
350
3AB
  3
PUCSORGBOTTOM
350
3A7
  3
PUCSORGFRONT
350
3AA
  3
PUCSORGLEFT
350
3A8
  3
PUCSORGRIGHT
350
3A9
  3
PUCSORGTOP
350
3A6
  3
PUCSORTHOREF
350
3A3
  3
PUCSORTHOVIEW
350
3A4
  3
STYLESHEET
350
39A
  3
TSTACKALIGN
350
397
  3
TSTACKSIZE
350
398
  3
UCSBASE
350
3AE
  3
UCSORGBACK
350
3B4
  3
UCSORGBOTTOM
350
3B0
  3
UCSORGFRONT
350
3B3
  3
UCSORGLEFT
350
3B1
  3
UCSORGRIGHT
350
3B2
  3
UCSORGTOP
350
3AF
  3
UCSORTHOREF
350
3AC
  3
UCSORTHOVIEW
350
3AD
  3
VERSIONGUID
350
3A1
  0
DICTIONARY
  5
3B6
102
{ACAD_REACTORS
330
C
102
}
330
C
100
AcDbDictionary
  3
DIMASSOC
350
3B9
  3
HIDETEXT
350
3BA
  0
MATERIAL
  5
3D
102
{ACAD_REACTORS
330
3B
102
}
102
{ACAD_XDICTIONARY
360
3BD
102
}
330
3B
100
AcDbMaterial
  1
ByBlock
  0
MATERIAL
  5
3C
102
{ACAD_REACTORS
330
3B
102
}
102
{ACAD_XDICTIONARY
360
3BB
102
}
330
3B
100
AcDbMaterial
  1
ByLayer
  0
MATERIAL
  5
3E
102
{ACAD_REACTORS
330
3B
102
}
102
{ACAD_XDICTIONARY
360
3BF
102
}
330
3B
100
AcDbMaterial
  1
Global
  0
MLINESTYLE
  5
18
102
{ACAD_REACTORS
330
17
102
}
330
17
100
AcDbMlineStyle
  2
Standard
 70
     0
  3

 62
   256
 51
90.0
 52
90.0
 71
     2
 49
0.5
 62
   256
  6
BYLAYER
 49
-0.5
 62
   256
  6
BYLAYER
  0
ACAD_PROXY_OBJECT
  5
2F
102
{ACAD_REACTORS
330
2A
102
}
330
2A
100
AcDbProxyObject
 90
      499
 91
      501
 93
      436
310
42CC9915DA5C99599C985B595049028333333333333E3BF0000000000000FB0107901411070040501600405405064090741402480A0340
1001
ACAD
1000
AcDbSavedByObjectVersion
1070
     0
  0
ACAD_PROXY_OBJECT
  5
31
102
{ACAD_REACTORS
330
2A
102
}
330
2A
100
AcDbProxyObject
 90
      499
 91
      501
 93
      500
310
424CD108121A5919195B90640502408333333333333E3BF0000000000000FB01079024090700405020000000000001110200405405064090740C02480A0340
1001
ACAD
1000
AcDbSavedByObjectVersion
1070
     0
  0
ACAD_PROXY_OBJECT
  5
30
102
{ACAD_REACTORS
330
2A
102
}
330
2A
100
AcDbProxyObject
 90
      499
 91
      501
 93
      436
310
42CCD915DA5C99599C985B595059028333333333333E3BF0000000000000FB0107901411070040501600405405064090741402480A0340
1001
ACAD
1000
AcDbSavedByObjectVersion
1070
     0
  0
ACAD_PROXY_OBJECT
  5
32
102
{ACAD_REACTORS
330
2A
102
}
330
2A
100
AcDbProxyObject
 90
      499
 91
      501
 93
      388
310
4150985CDA58D07406404333333333333E3BF0000000000000FB0107A41107004050150841D405064090741402480A0350
1001
ACAD
1000
AcDbSavedByObjectVersion
1070
     0
  0
ACAD_PROXY_OBJECT
  5
36
102
{ACAD_REACTORS
330
2A
102
}
330
2A
100
AcDbProxyObject
 90
      499
 91
      501
 93
      428
310
42109C9A59DA1D195B90C409028333333333333E3BF0000000000000FB010790141107004050150841D405064090741402480A029950
1001
ACAD
1000
AcDbSavedByObjectVersion
1070
     0
  0
ACAD_PROXY_OBJECT
  5
3A
102
{ACAD_REACTORS
330
2A
102
}
330
2A
100
AcDbProxyObject
 90
      499
 91
      501
 93
      452
310
42D0DBDB1BDC90DA185B99D95104090240C333333333333E3BF0000000000000FB0108901411070040501508421405064090741402480A0350
1001
ACAD
1000
AcDbSavedByObjectVersion
1070
     0
  0
ACAD_PROXY_OBJECT
  5
34
102
{ACAD_REACTORS
330
2A
102
}
330
2A
100
AcDbProxyObject
 90
      499
 91
      501
 93
      500
310
4290DBDB98D95C1D1D585B10940D028333333333333E3BF0000000000000FB0107902409070040501000000000000111010841D405064090740C02480A0340
1001
ACAD
1000
AcDbSavedByObjectVersion
1070
     0
  0
ACAD_PROXY_OBJECT
  5
35
102
{ACAD_REACTORS
330
2A
102
}
330
2A
100
AcDbProxyObject
 90
      499
 91
      501
 93
      412
310
40D11A5B50B409028333333333333E3BF0000000000000FB010790141107004050150841D405064090741402480A02677FFFFFD0
1001
ACAD
1000
AcDbSavedByObjectVersion
1070
     0
  0
ACAD_PROXY_OBJECT
  5
39
102
{ACAD_REACTORS
330
2A
102
}
330
2A
100
AcDbProxyObject
 90
      499
 91
      501
 93
      444
310
42D19858D95C185D1D195C9B90F409028333333333333E3BF0000000000000FB010790141107004050150841D405064090741402480A0350
1001
ACAD
1000
AcDbSavedByObjectVersion
1070
     0
  0
ACAD_PROXY_OBJECT
  5
2B
102
{ACAD_REACTORS
330
2A
102
}
330
2A
100
AcDbProxyObject
 90
      499
 91
      501
 93
      388
310
41119B185D240901404333333333333E3BF0000000000000F9010740A41107004050150841D405064090741402480A1B50
1001
ACAD
1000
AcDbSavedByObjectVersion
1070
     0
  0
ACAD_PROXY_OBJECT
  5
2C
102
{ACAD_REACTORS
330
2A
102
}
330
2A
100
AcDbProxyObject
 90
      499
 91
      501
 93
      476
310
43519B185D15DA5D1A115919D95CD0140901404333333333333E3BF0000000000000F9010740901411070040501600405405064090741402480A1B50
1001
ACAD
1000
AcDbSavedByObjectVersion
1070
     0
  0
ACAD_PROXY_OBJECT
  5
2D
102
{ACAD_REACTORS
330
2A
102
}
330
2A
100
AcDbProxyObject
 90
      499
 91
      501
 93
      412
310
41D1DBDD5C985D5910240902404333333333333E3BF0000000000000F9010740A411070040501641D405064090741402480A1B50
1001
ACAD
1000
AcDbSavedByObjectVersion
1070
     0
  0
ACAD_PROXY_OBJECT
  5
2E
102
{ACAD_REACTORS
330
2A
102
}
330
2A
100
AcDbProxyObject
 90
      499
 91
      501
 93
      500
310
4411DBDD5C985D5915DA5D1A115919D95CD0340902404333333333333E3BF0000000000000F9010740901411070040501600405405064090741402480A1B50
1001
ACAD
1000
AcDbSavedByObjectVersion
1070
     0
  0
ACAD_PROXY_OBJECT
  5
38
102
{ACAD_REACTORS
330
2A
102
}
330
2A
100
AcDbProxyObject
 90
      499
 91
      501
 93
      444
310
42D31A5B995C185D1D195C9B90E409028333333333333E3BF0000000000000FB010790141107004050750841D405064090741402483A0350
1001
ACAD
1000
AcDbSavedByObjectVersion
1070
     0
  0
ACAD_PROXY_OBJECT
  5
33
102
{ACAD_REACTORS
330
2A
102
}
330
2A
100
AcDbProxyObject
 90
      499
 91
      501
 93
      420
310
425499585B1A5CDD1A58D08409028333333333333E3BF0000000000000FB01079019070040501508421405064090741402480A1B40
1001
ACAD
1000
AcDbSavedByObjectVersion
1070
     0
  0
ACAD_PROXY_OBJECT
  5
37
102
{ACAD_REACTORS
330
2A
102
}
330
2A
100
AcDbProxyObject
 90
      499
 91
      501
 93
      412
310
41D51A1A58DAD95B90D409028333333333333E3BF0000000000000FB010790141107004050150C41D405064090741402480A0350
1001
ACAD
1000
AcDbSavedByObjectVersion
1070
     0
  0
XRECORD
  5
39F
102
{ACAD_REACTORS
330
396
102
}
330
396
100
AcDbXrecord
 90
        0
  0
XRECORD
  5
3B5
102
{ACAD_REACTORS
330
396
102
}
330
396
100
AcDbXrecord
1000
DSTYLE
1002
{
1070
   340
340
11
1002
}
  0
XRECORD
  5
3A0
102
{ACAD_REACTORS
330
396
102
}
330
396
100
AcDbXrecord
  1
{9FA5E3C3-CF8A-4310-BDF2-976B63E6DC72}
  0
XRECORD
  5
399
102
{ACAD_REACTORS
330
396
102
}
330
396
100
AcDbXrecord
  1

  0
XRECORD
  5
39E
102
{ACAD_REACTORS
330
396
102
}
330
396
100
AcDbXrecord
 90
        1
  0
XRECORD
  5
39B
102
{ACAD_REACTORS
330
396
102
}
330
396
100
AcDbXrecord
340
1A
  0
XRECORD
  5
39D
102
{ACAD_REACTORS
330
396
102
}
330
396
100
AcDbXrecord
 90
    10269
  0
XRECORD
  5
39C
102
{ACAD_REACTORS
330
396
102
}
330
396
100
AcDbXrecord
340
19
  0
XRECORD
  5
3A2
102
{ACAD_REACTORS
330
396
102
}
330
396
100
AcDbXrecord
 40
0.0
  0
XRECORD
  5
3A5
102
{ACAD_REACTORS
330
396
102
}
330
396
100
AcDbXrecord
340
0
  0
XRECORD
  5
3AB
102
{ACAD_REACTORS
330
396
102
}
330
396
100
AcDbXrecord
 10
0.0
 20
0.0
 30
0.0
  0
XRECORD
  5
3A7
102
{ACAD_REACTORS
330
396
102
}
330
396
100
AcDbXrecord
 10
0.0
 20
0.0
 30
0.0
  0
XRECORD
  5
3AA
102
{ACAD_REACTORS
330
396
102
}
330
396
100
AcDbXrecord
 10
0.0
 20
0.0
 30
0.0
  0
XRECORD
  5
3A8
102
{ACAD_REACTORS
330
396
102
}
330
396
100
AcDbXrecord
 10
0.0
 20
0.0
 30
0.0
  0
XRECORD
  5
3A9
102
{ACAD_REACTORS
330
396
102
}
330
396
100
AcDbXrecord
 10
0.0
 20
0.0
 30
0.0
  0
XRECORD
  5
3A6
102
{ACAD_REACTORS
330
396
102
}
330
396
100
AcDbXrecord
 10
0.0
 20
0.0
 30
0.0
  0
XRECORD
  5
3A3
102
{ACAD_REACTORS
330
396
102
}
330
396
100
AcDbXrecord
340
0
  0
XRECORD
  5
3A4
102
{ACAD_REACTORS
330
396
102
}
330
396
100
AcDbXrecord
 70
     0
  0
XRECORD
  5
39A
102
{ACAD_REACTORS
330
396
102
}
330
396
100
AcDbXrecord
  1

  0
XRECORD
  5
397
102
{ACAD_REACTORS
330
396
102
}
330
396
100
AcDbXrecord
 90
        1
  0
XRECORD
  5
398
102
{ACAD_REACTORS
330
396
102
}
330
396
100
AcDbXrecord
 90
       70
  0
XRECORD
  5
3AE
102
{ACAD_REACTORS
330
396
102
}
330
396
100
AcDbXrecord
340
0
  0
XRECORD
  5
3B4
102
{ACAD_REACTORS
330
396
102
}
330
396
100
AcDbXrecord
 10
0.0
 20
0.0
 30
0.0
  0
XRECORD
  5
3B0
102
{ACAD_REACTORS
330
396
102
}
330
396
100
AcDbXrecord
 10
0.0
 20
0.0
 30
0.0
  0
XRECORD
  5
3B3
102
{ACAD_REACTORS
330
396
102
}
330
396
100
AcDbXrecord
 10
0.0
 20
0.0
 30
0.0
  0
XRECORD
  5
3B1
102
{ACAD_REACTORS
330
396
102
}
330
396
100
AcDbXrecord
 10
0.0
 20
0.0
 30
0.0
  0
XRECORD
  5
3B2
102
{ACAD_REACTORS
330
396
102
}
330
396
100
AcDbXrecord
 10
0.0
 20
0.0
 30
0.0
  0
XRECORD
  5
3AF
102
{ACAD_REACTORS
330
396
102
}
330
396
100
AcDbXrecord
 10
0.0
 20
0.0
 30
0.0
  0
XRECORD
  5
3AC
102
{ACAD_REACTORS
330
396
102
}
330
396
100
AcDbXrecord
340
0
  0
XRECORD
  5
3AD
102
{ACAD_REACTORS
330
396
102
}
330
396
100
AcDbXrecord
 70
     0
  0
XRECORD
  5
3A1
102
{ACAD_REACTORS
330
396
102
}
330
396
100
AcDbXrecord
  1
{FAEB1C32-E019-11D5-929B-00C0DF256EC4}
  0
DICTIONARYVAR
  5
3B9
102
{ACAD_REACTORS
330
3B6
102
}
330
3B6
100
DictionaryVariables
280
     0
  1
2
  0
DICTIONARYVAR
  5
3BA
102
{ACAD_REACTORS
330
3B6
102
}
330
3B6
100
DictionaryVariables
280
     0
  1
1
  0
DICTIONARY
  5
3BD
330
3D
100
AcDbDictionary
280
     1
  3
ACAD_XREC_ROUNDTRIP
360
3BE
  0
DICTIONARY
  5
3BB
330
3C
100
AcDbDictionary
280
     1
  3
ACAD_XREC_ROUNDTRIP
360
3BC
  0
DICTIONARY
  5
3BF
330
3E
100
AcDbDictionary
280
     1
  3
ACAD_XREC_ROUNDTRIP
360
3C0
  0
XRECORD
  5
3BE
102
{ACAD_REACTORS
330
3BD
102
}
330
3BD
100
AcDbXrecord
102
MATERIAL
148
0.0
149
0.0
149
0.0
 93
        0
 94
      127
282
     0
 72
     1
 77
     1
171
     1
175
     1
179
     1
273
     0
  0
XRECORD
  5
3BC
102
{ACAD_REACTORS
330
3BB
102
}
330
3BB
100
AcDbXrecord
102
MATERIAL
148
0.0
149
0.0
149
0.0
 93
        0
 94
      127
282
     0
 72
     1
 77
     1
171
     1
175
     1
179
     1
273
     0
  0
XRECORD
  5
3C0
102
{ACAD_REACTORS
330
3BF
102
}
330
3BF
100
AcDbXrecord
102
MATERIAL
148
0.0
149
0.0
149
0.0
 93
        0
 94
      127
282
     0
 72
     1
 77
     1
171
     1
175
     1
179
     1
273
     0
  0
ENDSEC
  0
EOF
