  0
SECTION
  2
HEADER
  9
$ACADVER
  1
AC1009
  9
$INSBASE
 10
0.0
 20
0.0
 30
0.0
  9
$EXTMIN
 10
0.0
 20
0.0
 30
0.0
  9
$EXTMAX
 10
667.33258672108764
 20
271.69752920960758
 30
0.0
  9
$LIMMIN
 10
0.0
 20
0.0
  9
$LIMMAX
 10
12.0
 20
9.0
  9
$ORTHOMODE
 70
     0
  9
$REGENMODE
 70
     1
  9
$FILLMODE
 70
     1
  9
$QTEXTMODE
 70
     0
  9
$MIRRTEXT
 70
     1
  9
$DRAGMODE
 70
     2
  9
$LTSCALE
 40
1.0
  9
$OSMODE
 70
    37
  9
$ATTMODE
 70
     1
  9
$TEXTSIZE
 40
0.2
  9
$TRACEWID
 40
0.05
  9
$TEXTSTYLE
  7
STANDARD
  9
$CLAYER
  8
0
  9
$CELTYPE
  6
BYLAYER
  9
$CECOLOR
 62
   256
  9
$DIMSCALE
 40
1.0
  9
$DIMASZ
 40
0.18
  9
$DIMEXO
 40
0.0625
  9
$DIMDLI
 40
0.38
  9
$DIMRND
 40
0.0
  9
$DIMDLE
 40
0.0
  9
$DIMEXE
 40
0.18
  9
$DIMTP
 40
0.0
  9
$DIMTM
 40
0.0
  9
$DIMTXT
 40
0.18
  9
$DIMCEN
 40
0.09
  9
$DIMTSZ
 40
0.0
  9
$DIMTOL
 70
     0
  9
$DIMLIM
 70
     0
  9
$DIMTIH
 70
     1
  9
$DIMTOH
 70
     1
  9
$DIMSE1
 70
     0
  9
$DIMSE2
 70
     0
  9
$DIMTAD
 70
     0
  9
$DIMZIN
 70
     0
  9
$DIMBLK
  1

  9
$DIMASO
 70
     1
  9
$DIMSHO
 70
     1
  9
$DIMPOST
  1

  9
$DIMAPOST
  1

  9
$DIMALT
 70
     0
  9
$DIMALTD
 70
     2
  9
$DIMALTF
 40
25.399999999999999
  9
$DIMLFAC
 40
1.0
  9
$DIMTOFL
 70
     0
  9
$DIMTVP
 40
0.0
  9
$DIMTIX
 70
     0
  9
$DIMSOXD
 70
     0
  9
$DIMSAH
 70
     0
  9
$DIMBLK1
  1

  9
$DIMBLK2
  1

  9
$DIMSTYLE
  2
STANDARD
  9
$DIMCLRD
 70
     0
  9
$DIMCLRE
 70
     0
  9
$DIMCLRT
 70
     0
  9
$DIMTFAC
 40
1.0
  9
$DIMGAP
 40
0.09
  9
$LUNITS
 70
     2
  9
$LUPREC
 70
     3
  9
$SKETCHINC
 40
0.1
  9
$FILLETRAD
 40
0.5
  9
$AUNITS
 70
     0
  9
$AUPREC
 70
     0
  9
$MENU
  1
.
  9
$ELEVATION
 40
0.0
  9
$PELEVATION
 40
0.0
  9
$THICKNESS
 40
0.0
  9
$LIMCHECK
 70
     0
  9
$BLIPMODE
 70
     0
  9
$CHAMFERA
 40
0.0
  9
$CHAMFERB
 40
0.0
  9
$SKPOLY
 70
     0
  9
$TDCREATE
 40
2457630.5485293409
  9
$TDUPDATE
 40
2457640.4621183798
  9
$TDINDWG
 40
0.0022912847
  9
$TDUSRTIMER
 40
0.0022912616
  9
$USRTIMER
 70
     1
  9
$ANGBASE
 50
0.0
  9
$ANGDIR
 70
     0
  9
$PDMODE
 70
     0
  9
$PDSIZE
 40
0.0
  9
$PLINEWID
 40
0.0
  9
$COORDS
 70
     1
  9
$SPLFRAME
 70
     0
  9
$SPLINETYPE
 70
     6
  9
$SPLINESEGS
 70
     8
  9
$ATTDIA
 70
     1
  9
$ATTREQ
 70
     1
  9
$HANDLING
 70
     1
  9
$HANDSEED
  5
DCC
  9
$SURFTAB1
 70
     6
  9
$SURFTAB2
 70
     6
  9
$SURFTYPE
 70
     6
  9
$SURFU
 70
     6
  9
$SURFV
 70
     6
  9
$UCSNAME
  2

  9
$UCSORG
 10
0.0
 20
0.0
 30
0.0
  9
$UCSXDIR
 10
1.0
 20
0.0
 30
0.0
  9
$UCSYDIR
 10
0.0
 20
1.0
 30
0.0
  9
$PUCSNAME
  2

  9
$PUCSORG
 10
0.0
 20
0.0
 30
0.0
  9
$PUCSXDIR
 10
1.0
 20
0.0
 30
0.0
  9
$PUCSYDIR
 10
0.0
 20
1.0
 30
0.0
  9
$USERI1
 70
     0
  9
$USERI2
 70
     0
  9
$USERI3
 70
     0
  9
$USERI4
 70
     0
  9
$USERI5
 70
     0
  9
$USERR1
 40
0.0
  9
$USERR2
 40
0.0
  9
$USERR3
 40
0.0
  9
$USERR4
 40
0.0
  9
$USERR5
 40
0.0
  9
$WORLDVIEW
 70
     1
  9
$SHADEDGE
 70
     3
  9
$SHADEDIF
 70
    70
  9
$TILEMODE
 70
     1
  9
$MAXACTVP
 70
    64
  9
$PLIMCHECK
 70
     0
  9
$PEXTMIN
 10
1.0000000000000000E+020
 20
1.0000000000000000E+020
 30
1.0000000000000000E+020
  9
$PEXTMAX
 10
-1.0000000000000000E+020
 20
-1.0000000000000000E+020
 30
-1.0000000000000000E+020
  9
$PLIMMIN
 10
0.0
 20
0.0
  9
$PLIMMAX
 10
12.0
 20
9.0
  9
$UNITMODE
 70
     0
  9
$VISRETAIN
 70
     1
  9
$PLINEGEN
 70
     0
  9
$PSLTSCALE
 70
     1
  0
ENDSEC
  0
SECTION
  2
TABLES
  0
TABLE
  2
VPORT
 70
     1
  0
VPORT
  2
*ACTIVE
 70
     0
 10
0.0
 20
0.0
 11
1.0
 21
1.0
 12
351.49235150190327
 22
119.6666542553796
 13
0.0
 23
0.0
 14
0.5
 24
0.5
 15
0.5
 25
0.5
 16
0.0
 26
0.0
 36
1.0
 17
0.0
 27
0.0
 37
0.0
 40
492.85043110198097
 41
2.132075471698113
 42
50.0
 43
0.0
 44
0.0
 50
0.0
 51
0.0
 71
     0
 72
   100
 73
     1
 74
     3
 75
     0
 76
     0
 77
     0
 78
     0
  0
ENDTAB
  0
TABLE
  2
LTYPE
 70
     1
  0
LTYPE
  2
CONTINUOUS
 70
     0
  3
Solid line
 72
    65
 73
     0
 40
0.0
  0
ENDTAB
  0
TABLE
  2
LAYER
 70
     2
  0
LAYER
  2
0
 70
     0
 62
     7
  6
CONTINUOUS
  0
LAYER
  2
1
 70
     0
 62
    12
  6
CONTINUOUS
  0
ENDTAB
  0
TABLE
  2
STYLE
 70
     2
  0
STYLE
  2
STANDARD
 70
     0
 40
0.0
 41
1.0
 50
0.0
 71
     0
 42
0.2
  3
txt
  4

  0
STYLE
  2
ANNOTATIVE
 70
     0
 40
0.0
 41
1.0
 50
0.0
 71
     0
 42
0.2
  3
txt
  4

  0
ENDTAB
  0
TABLE
  2
VIEW
 70
     0
  0
ENDTAB
  0
TABLE
  2
UCS
 70
     0
  0
ENDTAB
  0
TABLE
  2
APPID
 70
     4
  0
APPID
  2
ACAD
 70
     0
  0
APPID
  2
ACADANNOTATIVE
 70
     0
  0
APPID
  2
ACAD_NAV_VCDISPLAY
 70
     0
  0
APPID
  2
ACAD_MLEADERVER
 70
     0
  0
ENDTAB
  0
TABLE
  2
DIMSTYLE
 70
     2
  0
DIMSTYLE
  2
STANDARD
 70
     0
  3

  4

  5

  6

  7

 40
1.0
 41
0.18
 42
0.0625
 43
0.38
 44
0.18
 45
0.0
 46
0.0
 47
0.0
 48
0.0
140
0.18
141
0.09
142
0.0
143
25.399999999999999
144
1.0
145
0.0
146
1.0
147
0.09
 71
     0
 72
     0
 73
     1
 74
     1
 75
     0
 76
     0
 77
     0
 78
     0
170
     0
171
     2
172
     0
173
     0
174
     0
175
     0
176
     0
177
     0
178
     0
  0
DIMSTYLE
  2
ANNOTATIVE
 70
     0
  3

  4

  5

  6

  7

 40
1.0
 41
0.18
 42
0.0625
 43
0.38
 44
0.18
 45
0.0
 46
0.0
 47
0.0
 48
0.0
140
0.18
141
0.09
142
0.0
143
25.399999999999999
144
1.0
145
0.0
146
1.0
147
0.09
 71
     0
 72
     0
 73
     1
 74
     1
 75
     0
 76
     0
 77
     0
 78
     0
170
     0
171
     2
172
     0
173
     0
174
     0
175
     0
176
     0
177
     0
178
     0
  0
ENDTAB
  0
ENDSEC
  0
SECTION
  2
BLOCKS
  0
BLOCK
  8
0
  2
$MODEL_SPACE
 70
     0
 10
0.0
 20
0.0
 30
0.0
  3
$MODEL_SPACE
  1

  0
ENDBLK
  5
80A
  8
0
  0
BLOCK
 67
     1
  8
0
  2
$PAPER_SPACE
 70
     0
 10
0.0
 20
0.0
 30
0.0
  3
$PAPER_SPACE
  1

  0
ENDBLK
  5
806
 67
     1
  8
0
  0
ENDSEC
  0
SECTION
  2
ENTITIES
  0
LINE
  5
6C3
  8
1
 62
     2
 10
667.33258672108764
 20
1.991554775952167
 30
0.0
 11
0.0
 21
0.0
 31
0.0
  0
POLYLINE
  8
0
  5
86A
  62
1
  66
     1
 10
0.000000
 20
0.000000
 30
0.000000
  70
     8
  0
VERTEX
  8
0
  5
86B
 10
0.000000
 20
0.000000
 30
0.000000
  70
    32
  0
VERTEX
  8
0
  5
86C
 10
1.06092
 20
1.56433
 30
0.000000
  70
    32
  0
VERTEX
  8
0
  5
86D
 10
2.12171
 20
3.12875
 30
0.000000
  70
    32
  0
VERTEX
  8
0
  5
86E
 10
3.18223
 20
4.69336
 30
0.000000
  70
    32
  0
VERTEX
  8
0
  5
86F
 10
4.24234
 20
6.25826
 30
0.000000
  70
    32
  0
VERTEX
  8
0
  5
870
 10
5.30190
 20
7.82352
 30
0.000000
  70
    32
  0
VERTEX
  8
0
  5
871
 10
6.36079
 20
9.38926
 30
0.000000
  70
    32
  0
VERTEX
  8
0
  5
872
 10
7.41886
 20
10.9556
 30
0.000000
  70
    32
  0
VERTEX
  8
0
  5
873
 10
8.47597
 20
12.5225
 30
0.000000
  70
    32
  0
VERTEX
  8
0
  5
874
 10
9.53201
 20
14.0902
 30
0.000000
  70
    32
  0
VERTEX
  8
0
  5
875
 10
10.5868
 20
15.6588
 30
0.000000
  70
    32
  0
VERTEX
  8
0
  5
876
 10
11.6403
 20
17.2283
 30
0.000000
  70
    32
  0
VERTEX
  8
0
  5
877
 10
12.6922
 20
18.7988
 30
0.000000
  70
    32
  0
VERTEX
  8
0
  5
878
 10
13.7425
 20
20.3704
 30
0.000000
  70
    32
  0
VERTEX
  8
0
  5
879
 10
14.7911
 20
21.9433
 30
0.000000
  70
    32
  0
VERTEX
  8
0
  5
87A
 10
15.8377
 20
23.5175
 30
0.000000
  70
    32
  0
VERTEX
  8
0
  5
87B
 10
16.8824
 20
25.0931
 30
0.000000
  70
    32
  0
VERTEX
  8
0
  5
87C
 10
17.9248
 20
26.6702
 30
0.000000
  70
    32
  0
VERTEX
  8
0
  5
87D
 10
18.9649
 20
28.2489
 30
0.000000
  70
    32
  0
VERTEX
  8
0
  5
87E
 10
20.0026
 20
29.8293
 30
0.000000
  70
    32
  0
VERTEX
  8
0
  5
87F
 10
21.0377
 20
31.4114
 30
0.000000
  70
    32
  0
VERTEX
  8
0
  5
880
 10
22.0701
 20
32.9955
 30
0.000000
  70
    32
  0
VERTEX
  8
0
  5
881
 10
23.0996
 20
34.5815
 30
0.000000
  70
    32
  0
VERTEX
  8
0
  5
882
 10
24.1262
 20
36.1696
 30
0.000000
  70
    32
  0
VERTEX
  8
0
  5
883
 10
25.1496
 20
37.7598
 30
0.000000
  70
    32
  0
VERTEX
  8
0
  5
884
 10
26.1697
 20
39.3523
 30
0.000000
  70
    32
  0
VERTEX
  8
0
  5
885
 10
27.1865
 20
40.9471
 30
0.000000
  70
    32
  0
VERTEX
  8
0
  5
886
 10
28.1997
 20
42.5444
 30
0.000000
  70
    32
  0
VERTEX
  8
0
  5
887
 10
29.2093
 20
44.1442
 30
0.000000
  70
    32
  0
VERTEX
  8
0
  5
888
 10
30.2150
 20
45.7467
 30
0.000000
  70
    32
  0
VERTEX
  8
0
  5
889
 10
31.2168
 20
47.3518
 30
0.000000
  70
    32
  0
VERTEX
  8
0
  5
88A
 10
32.2145
 20
48.9598
 30
0.000000
  70
    32
  0
VERTEX
  8
0
  5
88B
 10
33.2081
 20
50.5707
 30
0.000000
  70
    32
  0
VERTEX
  8
0
  5
88C
 10
34.1972
 20
52.1846
 30
0.000000
  70
    32
  0
VERTEX
  8
0
  5
88D
 10
35.1819
 20
53.8016
 30
0.000000
  70
    32
  0
VERTEX
  8
0
  5
88E
 10
36.1620
 20
55.4218
 30
0.000000
  70
    32
  0
VERTEX
  8
0
  5
88F
 10
37.1373
 20
57.0453
 30
0.000000
  70
    32
  0
VERTEX
  8
0
  5
890
 10
38.1077
 20
58.6721
 30
0.000000
  70
    32
  0
VERTEX
  8
0
  5
891
 10
39.0731
 20
60.3024
 30
0.000000
  70
    32
  0
VERTEX
  8
0
  5
892
 10
40.0333
 20
61.9363
 30
0.000000
  70
    32
  0
VERTEX
  8
0
  5
893
 10
40.9882
 20
63.5739
 30
0.000000
  70
    32
  0
VERTEX
  8
0
  5
894
 10
41.9377
 20
65.2152
 30
0.000000
  70
    32
  0
VERTEX
  8
0
  5
895
 10
42.8816
 20
66.8603
 30
0.000000
  70
    32
  0
VERTEX
  8
0
  5
896
 10
43.8198
 20
68.5094
 30
0.000000
  70
    32
  0
VERTEX
  8
0
  5
897
 10
44.7521
 20
70.1626
 30
0.000000
  70
    32
  0
VERTEX
  8
0
  5
898
 10
45.6785
 20
71.8198
 30
0.000000
  70
    32
  0
VERTEX
  8
0
  5
899
 10
46.5988
 20
73.4813
 30
0.000000
  70
    32
  0
VERTEX
  8
0
  5
89A
 10
47.5128
 20
75.1471
 30
0.000000
  70
    32
  0
VERTEX
  8
0
  5
89B
 10
48.4204
 20
76.8174
 30
0.000000
  70
    32
  0
VERTEX
  8
0
  5
89C
 10
49.3215
 20
78.4921
 30
0.000000
  70
    32
  0
VERTEX
  8
0
  5
89D
 10
50.2160
 20
80.1714
 30
0.000000
  70
    32
  0
VERTEX
  8
0
  5
89E
 10
51.1036
 20
81.8554
 30
0.000000
  70
    32
  0
VERTEX
  8
0
  5
89F
 10
51.9843
 20
83.5442
 30
0.000000
  70
    32
  0
VERTEX
  8
0
  5
8A0
 10
52.8580
 20
85.2379
 30
0.000000
  70
    32
  0
VERTEX
  8
0
  5
8A1
 10
53.7244
 20
86.9366
 30
0.000000
  70
    32
  0
VERTEX
  8
0
  5
8A2
 10
54.5835
 20
88.6403
 30
0.000000
  70
    32
  0
VERTEX
  8
0
  5
8A3
 10
55.4351
 20
90.3492
 30
0.000000
  70
    32
  0
VERTEX
  8
0
  5
8A4
 10
56.2792
 20
92.0634
 30
0.000000
  70
    32
  0
VERTEX
  8
0
  5
8A5
 10
57.1154
 20
93.7829
 30
0.000000
  70
    32
  0
VERTEX
  8
0
  5
8A6
 10
57.9438
 20
95.5078
 30
0.000000
  70
    32
  0
VERTEX
  8
0
  5
8A7
 10
58.7642
 20
97.2383
 30
0.000000
  70
    32
  0
VERTEX
  8
0
  5
8A8
 10
59.5764
 20
98.9745
 30
0.000000
  70
    32
  0
VERTEX
  8
0
  5
8A9
 10
60.3803
 20
100.716
 30
0.000000
  70
    32
  0
VERTEX
  8
0
  5
8AA
 10
61.1758
 20
102.464
 30
0.000000
  70
    32
  0
VERTEX
  8
0
  5
8AB
 10
61.9628
 20
104.218
 30
0.000000
  70
    32
  0
VERTEX
  8
0
  5
8AC
 10
62.7411
 20
105.977
 30
0.000000
  70
    32
  0
VERTEX
  8
0
  5
8AD
 10
63.5106
 20
107.742
 30
0.000000
  70
    32
  0
VERTEX
  8
0
  5
8AE
 10
64.2714
 20
109.512
 30
0.000000
  70
    32
  0
VERTEX
  8
0
  5
8AF
 10
65.0232
 20
111.287
 30
0.000000
  70
    32
  0
VERTEX
  8
0
  5
8B0
 10
65.7661
 20
113.068
 30
0.000000
  70
    32
  0
VERTEX
  8
0
  5
8B1
 10
66.4999
 20
114.853
 30
0.000000
  70
    32
  0
VERTEX
  8
0
  5
8B2
 10
67.2246
 20
116.643
 30
0.000000
  70
    32
  0
VERTEX
  8
0
  5
8B3
 10
67.9400
 20
118.437
 30
0.000000
  70
    32
  0
VERTEX
  8
0
  5
8B4
 10
68.6461
 20
120.235
 30
0.000000
  70
    32
  0
VERTEX
  8
0
  5
8B5
 10
69.3428
 20
122.038
 30
0.000000
  70
    32
  0
VERTEX
  8
0
  5
8B6
 10
70.0300
 20
123.844
 30
0.000000
  70
    32
  0
VERTEX
  8
0
  5
8B7
 10
70.7077
 20
125.654
 30
0.000000
  70
    32
  0
VERTEX
  8
0
  5
8B8
 10
71.3757
 20
127.468
 30
0.000000
  70
    32
  0
VERTEX
  8
0
  5
8B9
 10
72.0340
 20
129.285
 30
0.000000
  70
    32
  0
VERTEX
  8
0
  5
8BA
 10
72.6825
 20
131.104
 30
0.000000
  70
    32
  0
VERTEX
  8
0
  5
8BB
 10
73.3211
 20
132.927
 30
0.000000
  70
    32
  0
VERTEX
  8
0
  5
8BC
 10
73.9497
 20
134.753
 30
0.000000
  70
    32
  0
VERTEX
  8
0
  5
8BD
 10
74.5683
 20
136.581
 30
0.000000
  70
    32
  0
VERTEX
  8
0
  5
8BE
 10
75.1767
 20
138.411
 30
0.000000
  70
    32
  0
VERTEX
  8
0
  5
8BF
 10
75.7748
 20
140.244
 30
0.000000
  70
    32
  0
VERTEX
  8
0
  5
8C0
 10
76.3627
 20
142.078
 30
0.000000
  70
    32
  0
VERTEX
  8
0
  5
8C1
 10
76.9402
 20
143.915
 30
0.000000
  70
    32
  0
VERTEX
  8
0
  5
8C2
 10
77.5072
 20
145.753
 30
0.000000
  70
    32
  0
VERTEX
  8
0
  5
8C3
 10
78.0636
 20
147.592
 30
0.000000
  70
    32
  0
VERTEX
  8
0
  5
8C4
 10
78.6094
 20
149.432
 30
0.000000
  70
    32
  0
VERTEX
  8
0
  5
8C5
 10
79.1445
 20
151.274
 30
0.000000
  70
    32
  0
VERTEX
  8
0
  5
8C6
 10
79.6687
 20
153.116
 30
0.000000
  70
    32
  0
VERTEX
  8
0
  5
8C7
 10
80.1821
 20
154.959
 30
0.000000
  70
    32
  0
VERTEX
  8
0
  5
8C8
 10
80.6845
 20
156.803
 30
0.000000
  70
    32
  0
VERTEX
  8
0
  5
8C9
 10
81.1758
 20
158.647
 30
0.000000
  70
    32
  0
VERTEX
  8
0
  5
8CA
 10
81.6560
 20
160.490
 30
0.000000
  70
    32
  0
VERTEX
  8
0
  5
8CB
 10
82.1249
 20
162.334
 30
0.000000
  70
    32
  0
VERTEX
  8
0
  5
8CC
 10
82.5826
 20
164.178
 30
0.000000
  70
    32
  0
VERTEX
  8
0
  5
8CD
 10
83.0288
 20
166.020
 30
0.000000
  70
    32
  0
VERTEX
  8
0
  5
8CE
 10
83.4636
 20
167.863
 30
0.000000
  70
    32
  0
VERTEX
  8
0
  5
8CF
 10
83.8868
 20
169.704
 30
0.000000
  70
    32
  0
VERTEX
  8
0
  5
8D0
 10
84.2984
 20
171.544
 30
0.000000
  70
    32
  0
VERTEX
  8
0
  5
8D1
 10
84.6983
 20
173.383
 30
0.000000
  70
    32
  0
VERTEX
  8
0
  5
8D2
 10
85.0864
 20
175.221
 30
0.000000
  70
    32
  0
VERTEX
  8
0
  5
8D3
 10
85.4625
 20
177.057
 30
0.000000
  70
    32
  0
VERTEX
  8
0
  5
8D4
 10
85.8267
 20
178.891
 30
0.000000
  70
    32
  0
VERTEX
  8
0
  5
8D5
 10
86.1789
 20
180.724
 30
0.000000
  70
    32
  0
VERTEX
  8
0
  5
8D6
 10
86.5189
 20
182.554
 30
0.000000
  70
    32
  0
VERTEX
  8
0
  5
8D7
 10
86.8466
 20
184.381
 30
0.000000
  70
    32
  0
VERTEX
  8
0
  5
8D8
 10
87.1621
 20
186.206
 30
0.000000
  70
    32
  0
VERTEX
  8
0
  5
8D9
 10
87.4652
 20
188.029
 30
0.000000
  70
    32
  0
VERTEX
  8
0
  5
8DA
 10
87.7558
 20
189.848
 30
0.000000
  70
    32
  0
VERTEX
  8
0
  5
8DB
 10
88.0339
 20
191.664
 30
0.000000
  70
    32
  0
VERTEX
  8
0
  5
8DC
 10
88.2993
 20
193.477
 30
0.000000
  70
    32
  0
VERTEX
  8
0
  5
8DD
 10
88.5520
 20
195.287
 30
0.000000
  70
    32
  0
VERTEX
  8
0
  5
8DE
 10
88.7919
 20
197.092
 30
0.000000
  70
    32
  0
VERTEX
  8
0
  5
8DF
 10
89.0189
 20
198.894
 30
0.000000
  70
    32
  0
VERTEX
  8
0
  5
8E0
 10
89.2324
 20
200.692
 30
0.000000
  70
    32
  0
VERTEX
  8
0
  5
8E1
 10
89.4308
 20
202.487
 30
0.000000
  70
    32
  0
VERTEX
  8
0
  5
8E2
 10
89.6125
 20
204.279
 30
0.000000
  70
    32
  0
VERTEX
  8
0
  5
8E3
 10
89.7758
 20
206.070
 30
0.000000
  70
    32
  0
VERTEX
  8
0
  5
8E4
 10
89.9189
 20
207.859
 30
0.000000
  70
    32
  0
VERTEX
  8
0
  5
8E5
 10
90.0402
 20
209.648
 30
0.000000
  70
    32
  0
VERTEX
  8
0
  5
8E6
 10
90.1381
 20
211.438
 30
0.000000
  70
    32
  0
VERTEX
  8
0
  5
8E7
 10
90.2108
 20
213.228
 30
0.000000
  70
    32
  0
VERTEX
  8
0
  5
8E8
 10
90.2566
 20
215.020
 30
0.000000
  70
    32
  0
VERTEX
  8
0
  5
8E9
 10
90.2739
 20
216.814
 30
0.000000
  70
    32
  0
VERTEX
  8
0
  5
8EA
 10
90.2610
 20
218.612
 30
0.000000
  70
    32
  0
VERTEX
  8
0
  5
8EB
 10
90.2162
 20
220.413
 30
0.000000
  70
    32
  0
VERTEX
  8
0
  5
8EC
 10
90.1378
 20
222.218
 30
0.000000
  70
    32
  0
VERTEX
  8
0
  5
8ED
 10
90.0242
 20
224.029
 30
0.000000
  70
    32
  0
VERTEX
  8
0
  5
8EE
 10
89.8736
 20
225.845
 30
0.000000
  70
    32
  0
VERTEX
  8
0
  5
8EF
 10
89.6844
 20
227.668
 30
0.000000
  70
    32
  0
VERTEX
  8
0
  5
8F0
 10
89.4549
 20
229.498
 30
0.000000
  70
    32
  0
VERTEX
  8
0
  5
8F1
 10
89.1834
 20
231.335
 30
0.000000
  70
    32
  0
VERTEX
  8
0
  5
8F2
 10
88.8682
 20
233.182
 30
0.000000
  70
    32
  0
VERTEX
  8
0
  5
8F3
 10
88.5077
 20
235.037
 30
0.000000
  70
    32
  0
VERTEX
  8
0
  5
8F4
 10
88.1001
 20
236.902
 30
0.000000
  70
    32
  0
VERTEX
  8
0
  5
8F5
 10
87.6439
 20
238.778
 30
0.000000
  70
    32
  0
VERTEX
  8
0
  5
8F6
 10
87.1372
 20
240.666
 30
0.000000
  70
    32
  0
VERTEX
  8
0
  5
8F7
 10
86.5784
 20
242.565
 30
0.000000
  70
    32
  0
VERTEX
  8
0
  5
8F8
 10
85.9659
 20
244.477
 30
0.000000
  70
    32
  0
VERTEX
  8
0
  5
8F9
 10
85.2979
 20
246.402
 30
0.000000
  70
    32
  0
VERTEX
  8
0
  5
8FA
 10
84.5728
 20
248.341
 30
0.000000
  70
    32
  0
VERTEX
  8
0
  5
8FB
 10
83.7888
 20
250.295
 30
0.000000
  70
    32
  0
VERTEX
  8
0
  5
8FC
 10
82.9444
 20
252.264
 30
0.000000
  70
    32
  0
VERTEX
  8
0
  5
8FD
 10
82.0378
 20
254.250
 30
0.000000
  70
    32
  0
VERTEX
  8
0
  5
8FE
 10
81.0673
 20
256.252
 30
0.000000
  70
    32
  0
VERTEX
  8
0
  5
8FF
 10
80.0313
 20
258.271
 30
0.000000
  70
    32
  0
VERTEX
  8
0
  5
900
 10
78.9281
 20
260.309
 30
0.000000
  70
    32
  0
VERTEX
  8
0
  5
901
 10
77.7559
 20
262.366
 30
0.000000
  70
    32
  0
VERTEX
  8
0
  5
902
 10
76.5169
 20
264.423
 30
0.000000
  70
    32
  0
VERTEX
  8
0
  5
903
 10
75.2262
 20
266.399
 30
0.000000
  70
    32
  0
VERTEX
  8
0
  5
904
 10
73.9016
 20
268.196
 30
0.000000
  70
    32
  0
VERTEX
  8
0
  5
905
 10
72.5611
 20
269.718
 30
0.000000
  70
    32
  0
VERTEX
  8
0
  5
906
 10
71.2225
 20
270.869
 30
0.000000
  70
    32
  0
VERTEX
  8
0
  5
907
 10
69.9037
 20
271.551
 30
0.000000
  70
    32
  0
VERTEX
  8
0
  5
908
 10
68.6227
 20
271.668
 30
0.000000
  70
    32
  0
VERTEX
  8
0
  5
909
 10
67.3919
 20
271.176
 30
0.000000
  70
    32
  0
VERTEX
  8
0
  5
90A
 10
66.2110
 20
270.153
 30
0.000000
  70
    32
  0
VERTEX
  8
0
  5
90B
 10
65.0782
 20
268.693
 30
0.000000
  70
    32
  0
VERTEX
  8
0
  5
90C
 10
63.9912
 20
266.893
 30
0.000000
  70
    32
  0
VERTEX
  8
0
  5
90D
 10
62.9482
 20
264.847
 30
0.000000
  70
    32
  0
VERTEX
  8
0
  5
90E
 10
61.9470
 20
262.651
 30
0.000000
  70
    32
  0
VERTEX
  8
0
  5
90F
 10
60.9857
 20
260.400
 30
0.000000
  70
    32
  0
VERTEX
  8
0
  5
910
 10
60.0627
 20
258.153
 30
0.000000
  70
    32
  0
VERTEX
  8
0
  5
911
 10
59.1775
 20
255.917
 30
0.000000
  70
    32
  0
VERTEX
  8
0
  5
912
 10
58.3295
 20
253.690
 30
0.000000
  70
    32
  0
VERTEX
  8
0
  5
913
 10
57.5182
 20
251.473
 30
0.000000
  70
    32
  0
VERTEX
  8
0
  5
914
 10
56.7429
 20
249.266
 30
0.000000
  70
    32
  0
VERTEX
  8
0
  5
915
 10
56.0032
 20
247.068
 30
0.000000
  70
    32
  0
VERTEX
  8
0
  5
916
 10
55.2986
 20
244.880
 30
0.000000
  70
    32
  0
VERTEX
  8
0
  5
917
 10
54.6284
 20
242.701
 30
0.000000
  70
    32
  0
VERTEX
  8
0
  5
918
 10
53.9921
 20
240.532
 30
0.000000
  70
    32
  0
VERTEX
  8
0
  5
919
 10
53.3893
 20
238.372
 30
0.000000
  70
    32
  0
VERTEX
  8
0
  5
91A
 10
52.8193
 20
236.222
 30
0.000000
  70
    32
  0
VERTEX
  8
0
  5
91B
 10
52.2815
 20
234.081
 30
0.000000
  70
    32
  0
VERTEX
  8
0
  5
91C
 10
51.7755
 20
231.950
 30
0.000000
  70
    32
  0
VERTEX
  8
0
  5
91D
 10
51.3008
 20
229.827
 30
0.000000
  70
    32
  0
VERTEX
  8
0
  5
91E
 10
50.8567
 20
227.714
 30
0.000000
  70
    32
  0
VERTEX
  8
0
  5
91F
 10
50.4427
 20
225.611
 30
0.000000
  70
    32
  0
VERTEX
  8
0
  5
920
 10
50.0583
 20
223.516
 30
0.000000
  70
    32
  0
VERTEX
  8
0
  5
921
 10
49.7029
 20
221.431
 30
0.000000
  70
    32
  0
VERTEX
  8
0
  5
922
 10
49.3760
 20
219.354
 30
0.000000
  70
    32
  0
VERTEX
  8
0
  5
923
 10
49.0770
 20
217.287
 30
0.000000
  70
    32
  0
VERTEX
  8
0
  5
924
 10
48.8054
 20
215.229
 30
0.000000
  70
    32
  0
VERTEX
  8
0
  5
925
 10
48.5607
 20
213.179
 30
0.000000
  70
    32
  0
VERTEX
  8
0
  5
926
 10
48.3423
 20
211.139
 30
0.000000
  70
    32
  0
VERTEX
  8
0
  5
927
 10
48.1497
 20
209.107
 30
0.000000
  70
    32
  0
VERTEX
  8
0
  5
928
 10
47.9822
 20
207.085
 30
0.000000
  70
    32
  0
VERTEX
  8
0
  5
929
 10
47.8395
 20
205.071
 30
0.000000
  70
    32
  0
VERTEX
  8
0
  5
92A
 10
47.7208
 20
203.066
 30
0.000000
  70
    32
  0
VERTEX
  8
0
  5
92B
 10
47.6258
 20
201.069
 30
0.000000
  70
    32
  0
VERTEX
  8
0
  5
92C
 10
47.5537
 20
199.081
 30
0.000000
  70
    32
  0
VERTEX
  8
0
  5
92D
 10
47.5042
 20
197.102
 30
0.000000
  70
    32
  0
VERTEX
  8
0
  5
92E
 10
47.4766
 20
195.132
 30
0.000000
  70
    32
  0
VERTEX
  8
0
  5
92F
 10
47.4704
 20
193.170
 30
0.000000
  70
    32
  0
VERTEX
  8
0
  5
930
 10
47.4851
 20
191.216
 30
0.000000
  70
    32
  0
VERTEX
  8
0
  5
931
 10
47.5201
 20
189.271
 30
0.000000
  70
    32
  0
VERTEX
  8
0
  5
932
 10
47.5749
 20
187.335
 30
0.000000
  70
    32
  0
VERTEX
  8
0
  5
933
 10
47.6489
 20
185.407
 30
0.000000
  70
    32
  0
VERTEX
  8
0
  5
934
 10
47.7415
 20
183.487
 30
0.000000
  70
    32
  0
VERTEX
  8
0
  5
935
 10
47.8523
 20
181.575
 30
0.000000
  70
    32
  0
VERTEX
  8
0
  5
936
 10
47.9807
 20
179.672
 30
0.000000
  70
    32
  0
VERTEX
  8
0
  5
937
 10
48.1262
 20
177.777
 30
0.000000
  70
    32
  0
VERTEX
  8
0
  5
938
 10
48.2881
 20
175.890
 30
0.000000
  70
    32
  0
VERTEX
  8
0
  5
939
 10
48.4660
 20
174.011
 30
0.000000
  70
    32
  0
VERTEX
  8
0
  5
93A
 10
48.6593
 20
172.140
 30
0.000000
  70
    32
  0
VERTEX
  8
0
  5
93B
 10
48.8675
 20
170.278
 30
0.000000
  70
    32
  0
VERTEX
  8
0
  5
93C
 10
49.0900
 20
168.423
 30
0.000000
  70
    32
  0
VERTEX
  8
0
  5
93D
 10
49.3262
 20
166.576
 30
0.000000
  70
    32
  0
VERTEX
  8
0
  5
93E
 10
49.5757
 20
164.737
 30
0.000000
  70
    32
  0
VERTEX
  8
0
  5
93F
 10
49.8379
 20
162.906
 30
0.000000
  70
    32
  0
VERTEX
  8
0
  5
940
 10
50.1122
 20
161.083
 30
0.000000
  70
    32
  0
VERTEX
  8
0
  5
941
 10
50.3982
 20
159.268
 30
0.000000
  70
    32
  0
VERTEX
  8
0
  5
942
 10
50.6952
 20
157.461
 30
0.000000
  70
    32
  0
VERTEX
  8
0
  5
943
 10
51.0026
 20
155.661
 30
0.000000
  70
    32
  0
VERTEX
  8
0
  5
944
 10
51.3201
 20
153.869
 30
0.000000
  70
    32
  0
VERTEX
  8
0
  5
945
 10
51.6470
 20
152.084
 30
0.000000
  70
    32
  0
VERTEX
  8
0
  5
946
 10
51.9827
 20
150.307
 30
0.000000
  70
    32
  0
VERTEX
  8
0
  5
947
 10
52.3268
 20
148.538
 30
0.000000
  70
    32
  0
VERTEX
  8
0
  5
948
 10
52.6787
 20
146.776
 30
0.000000
  70
    32
  0
VERTEX
  8
0
  5
949
 10
53.0378
 20
145.022
 30
0.000000
  70
    32
  0
VERTEX
  8
0
  5
94A
 10
53.4036
 20
143.275
 30
0.000000
  70
    32
  0
VERTEX
  8
0
  5
94B
 10
53.7755
 20
141.535
 30
0.000000
  70
    32
  0
VERTEX
  8
0
  5
94C
 10
54.1531
 20
139.803
 30
0.000000
  70
    32
  0
VERTEX
  8
0
  5
94D
 10
54.5357
 20
138.078
 30
0.000000
  70
    32
  0
VERTEX
  8
0
  5
94E
 10
54.9229
 20
136.360
 30
0.000000
  70
    32
  0
VERTEX
  8
0
  5
94F
 10
55.3140
 20
134.650
 30
0.000000
  70
    32
  0
VERTEX
  8
0
  5
950
 10
55.7085
 20
132.946
 30
0.000000
  70
    32
  0
VERTEX
  8
0
  5
951
 10
56.1059
 20
131.250
 30
0.000000
  70
    32
  0
VERTEX
  8
0
  5
952
 10
56.5057
 20
129.561
 30
0.000000
  70
    32
  0
VERTEX
  8
0
  5
953
 10
56.9073
 20
127.879
 30
0.000000
  70
    32
  0
VERTEX
  8
0
  5
954
 10
57.3101
 20
126.204
 30
0.000000
  70
    32
  0
VERTEX
  8
0
  5
955
 10
57.7136
 20
124.536
 30
0.000000
  70
    32
  0
VERTEX
  8
0
  5
956
 10
58.1172
 20
122.874
 30
0.000000
  70
    32
  0
VERTEX
  8
0
  5
957
 10
58.5205
 20
121.220
 30
0.000000
  70
    32
  0
VERTEX
  8
0
  5
958
 10
58.9229
 20
119.573
 30
0.000000
  70
    32
  0
VERTEX
  8
0
  5
959
 10
59.3238
 20
117.932
 30
0.000000
  70
    32
  0
VERTEX
  8
0
  5
95A
 10
59.7226
 20
116.298
 30
0.000000
  70
    32
  0
VERTEX
  8
0
  5
95B
 10
60.1189
 20
114.671
 30
0.000000
  70
    32
  0
VERTEX
  8
0
  5
95C
 10
60.5121
 20
113.050
 30
0.000000
  70
    32
  0
VERTEX
  8
0
  5
95D
 10
60.9016
 20
111.436
 30
0.000000
  70
    32
  0
VERTEX
  8
0
  5
95E
 10
61.2870
 20
109.829
 30
0.000000
  70
    32
  0
VERTEX
  8
0
  5
95F
 10
61.6676
 20
108.228
 30
0.000000
  70
    32
  0
VERTEX
  8
0
  5
960
 10
62.0429
 20
106.634
 30
0.000000
  70
    32
  0
VERTEX
  8
0
  5
961
 10
62.4123
 20
105.046
 30
0.000000
  70
    32
  0
VERTEX
  8
0
  5
962
 10
62.7755
 20
103.464
 30
0.000000
  70
    32
  0
VERTEX
  8
0
  5
963
 10
63.1322
 20
101.889
 30
0.000000
  70
    32
  0
VERTEX
  8
0
  5
964
 10
63.4830
 20
100.318
 30
0.000000
  70
    32
  0
VERTEX
  8
0
  5
965
 10
63.8284
 20
98.7504
 30
0.000000
  70
    32
  0
VERTEX
  8
0
  5
966
 10
64.1687
 20
97.1854
 30
0.000000
  70
    32
  0
VERTEX
  8
0
  5
967
 10
64.5045
 20
95.6218
 30
0.000000
  70
    32
  0
VERTEX
  8
0
  5
968
 10
64.8361
 20
94.0583
 30
0.000000
  70
    32
  0
VERTEX
  8
0
  5
969
 10
65.1641
 20
92.4939
 30
0.000000
  70
    32
  0
VERTEX
  8
0
  5
96A
 10
65.4890
 20
90.9275
 30
0.000000
  70
    32
  0
VERTEX
  8
0
  5
96B
 10
65.8111
 20
89.3579
 30
0.000000
  70
    32
  0
VERTEX
  8
0
  5
96C
 10
66.1309
 20
87.7841
 30
0.000000
  70
    32
  0
VERTEX
  8
0
  5
96D
 10
66.4489
 20
86.2048
 30
0.000000
  70
    32
  0
VERTEX
  8
0
  5
96E
 10
66.7655
 20
84.6190
 30
0.000000
  70
    32
  0
VERTEX
  8
0
  5
96F
 10
67.0812
 20
83.0256
 30
0.000000
  70
    32
  0
VERTEX
  8
0
  5
970
 10
67.3965
 20
81.4234
 30
0.000000
  70
    32
  0
VERTEX
  8
0
  5
971
 10
67.7118
 20
79.8113
 30
0.000000
  70
    32
  0
VERTEX
  8
0
  5
972
 10
68.0275
 20
78.1882
 30
0.000000
  70
    32
  0
VERTEX
  8
0
  5
973
 10
68.3441
 20
76.5530
 30
0.000000
  70
    32
  0
VERTEX
  8
0
  5
974
 10
68.6622
 20
74.9046
 30
0.000000
  70
    32
  0
VERTEX
  8
0
  5
975
 10
68.9821
 20
73.2418
 30
0.000000
  70
    32
  0
VERTEX
  8
0
  5
976
 10
69.3042
 20
71.5635
 30
0.000000
  70
    32
  0
VERTEX
  8
0
  5
977
 10
69.6291
 20
69.8685
 30
0.000000
  70
    32
  0
VERTEX
  8
0
  5
978
 10
69.9572
 20
68.1559
 30
0.000000
  70
    32
  0
VERTEX
  8
0
  5
979
 10
70.2890
 20
66.4244
 30
0.000000
  70
    32
  0
VERTEX
  8
0
  5
97A
 10
70.6249
 20
64.6730
 30
0.000000
  70
    32
  0
VERTEX
  8
0
  5
97B
 10
70.9653
 20
62.9004
 30
0.000000
  70
    32
  0
VERTEX
  8
0
  5
97C
 10
71.3108
 20
61.1057
 30
0.000000
  70
    32
  0
VERTEX
  8
0
  5
97D
 10
71.6618
 20
59.2876
 30
0.000000
  70
    32
  0
VERTEX
  8
0
  5
97E
 10
72.0187
 20
57.4451
 30
0.000000
  70
    32
  0
VERTEX
  8
0
  5
97F
 10
72.3821
 20
55.5770
 30
0.000000
  70
    32
  0
VERTEX
  8
0
  5
980
 10
72.7522
 20
53.6822
 30
0.000000
  70
    32
  0
VERTEX
  8
0
  5
981
 10
73.1297
 20
51.7596
 30
0.000000
  70
    32
  0
VERTEX
  8
0
  5
982
 10
73.5150
 20
49.8081
 30
0.000000
  70
    32
  0
VERTEX
  8
0
  5
983
 10
73.9085
 20
47.8265
 30
0.000000
  70
    32
  0
VERTEX
  8
0
  5
984
 10
74.3107
 20
45.8137
 30
0.000000
  70
    32
  0
VERTEX
  8
0
  5
985
 10
74.7220
 20
43.7687
 30
0.000000
  70
    32
  0
VERTEX
  8
0
  5
986
 10
75.1429
 20
41.6902
 30
0.000000
  70
    32
  0
VERTEX
  8
0
  5
987
 10
75.5739
 20
39.5772
 30
0.000000
  70
    32
  0
VERTEX
  8
0
  5
988
 10
76.0154
 20
37.4286
 30
0.000000
  70
    32
  0
VERTEX
  8
0
  5
989
 10
76.4678
 20
35.2431
 30
0.000000
  70
    32
  0
VERTEX
  8
0
  5
98A
 10
76.9317
 20
33.0198
 30
0.000000
  70
    32
  0
VERTEX
  8
0
  5
98B
 10
77.4075
 20
30.7575
 30
0.000000
  70
    32
  0
VERTEX
  8
0
  5
98C
 10
77.8956
 20
28.4550
 30
0.000000
  70
    32
  0
VERTEX
  8
0
  5
98D
 10
78.3965
 20
26.1113
 30
0.000000
  70
    32
  0
VERTEX
  8
0
  5
98E
 10
78.9106
 20
23.7252
 30
0.000000
  70
    32
  0
VERTEX
  8
0
  5
98F
 10
79.4385
 20
21.2956
 30
0.000000
  70
    32
  0
VERTEX
  8
0
  5
990
 10
79.9805
 20
18.8214
 30
0.000000
  70
    32
  0
VERTEX
  8
0
  5
991
 10
80.5372
 20
16.3015
 30
0.000000
  70
    32
  0
VERTEX
  8
0
  5
992
 10
81.1088
 20
13.7391
 30
0.000000
  70
    32
  0
VERTEX
  8
0
  5
993
 10
81.6946
 20
11.1853
 30
0.000000
  70
    32
  0
VERTEX
  8
0
  5
994
 10
82.2931
 20
8.71955
 30
0.000000
  70
    32
  0
VERTEX
  8
0
  5
995
 10
82.9029
 20
6.42195
 30
0.000000
  70
    32
  0
VERTEX
  8
0
  5
996
 10
83.5224
 20
4.37249
 30
0.000000
  70
    32
  0
VERTEX
  8
0
  5
997
 10
84.1502
 20
2.65117
 30
0.000000
  70
    32
  0
VERTEX
  8
0
  5
998
 10
84.7849
 20
1.33800
 30
0.000000
  70
    32
  0
VERTEX
  8
0
  5
999
 10
85.4248
 20
0.512993
 30
0.000000
  70
    32
  0
VERTEX
  8
0
  5
99A
 10
86.0686
 20
0.256023
 30
0.000000
  70
    32
  0
VERTEX
  8
0
  5
99B
 10
86.7133
 20
0.606360
 30
0.000000
  70
    32
  0
VERTEX
  8
0
  5
99C
 10
87.3524
 20
1.50583
 30
0.000000
  70
    32
  0
VERTEX
  8
0
  5
99D
 10
87.9788
 20
2.88193
 30
0.000000
  70
    32
  0
VERTEX
  8
0
  5
99E
 10
88.5856
 20
4.66218
 30
0.000000
  70
    32
  0
VERTEX
  8
0
  5
99F
 10
89.1657
 20
6.77407
 30
0.000000
  70
    32
  0
VERTEX
  8
0
  5
9A0
 10
89.7122
 20
9.14511
 30
0.000000
  70
    32
  0
VERTEX
  8
0
  5
9A1
 10
90.2179
 20
11.7028
 30
0.000000
  70
    32
  0
VERTEX
  8
0
  5
9A2
 10
90.6759
 20
14.3747
 30
0.000000
  70
    32
  0
VERTEX
  8
0
  5
9A3
 10
91.0792
 20
17.0884
 30
0.000000
  70
    32
  0
VERTEX
  8
0
  5
9A4
 10
91.4238
 20
19.7951
 30
0.000000
  70
    32
  0
VERTEX
  8
0
  5
9A5
 10
91.7120
 20
22.4893
 30
0.000000
  70
    32
  0
VERTEX
  8
0
  5
9A6
 10
91.9461
 20
25.1701
 30
0.000000
  70
    32
  0
VERTEX
  8
0
  5
9A7
 10
92.1289
 20
27.8368
 30
0.000000
  70
    32
  0
VERTEX
  8
0
  5
9A8
 10
92.2630
 20
30.4886
 30
0.000000
  70
    32
  0
VERTEX
  8
0
  5
9A9
 10
92.3509
 20
33.1246
 30
0.000000
  70
    32
  0
VERTEX
  8
0
  5
9AA
 10
92.3954
 20
35.7442
 30
0.000000
  70
    32
  0
VERTEX
  8
0
  5
9AB
 10
92.3990
 20
38.3464
 30
0.000000
  70
    32
  0
VERTEX
  8
0
  5
9AC
 10
92.3644
 20
40.9305
 30
0.000000
  70
    32
  0
VERTEX
  8
0
  5
9AD
 10
92.2941
 20
43.4957
 30
0.000000
  70
    32
  0
VERTEX
  8
0
  5
9AE
 10
92.1908
 20
46.0412
 30
0.000000
  70
    32
  0
VERTEX
  8
0
  5
9AF
 10
92.0572
 20
48.5663
 30
0.000000
  70
    32
  0
VERTEX
  8
0
  5
9B0
 10
91.8957
 20
51.0700
 30
0.000000
  70
    32
  0
VERTEX
  8
0
  5
9B1
 10
91.7091
 20
53.5517
 30
0.000000
  70
    32
  0
VERTEX
  8
0
  5
9B2
 10
91.5000
 20
56.0105
 30
0.000000
  70
    32
  0
VERTEX
  8
0
  5
9B3
 10
91.2710
 20
58.4457
 30
0.000000
  70
    32
  0
VERTEX
  8
0
  5
9B4
 10
91.0247
 20
60.8564
 30
0.000000
  70
    32
  0
VERTEX
  8
0
  5
9B5
 10
90.7637
 20
63.2418
 30
0.000000
  70
    32
  0
VERTEX
  8
0
  5
9B6
 10
90.4906
 20
65.6012
 30
0.000000
  70
    32
  0
VERTEX
  8
0
  5
9B7
 10
90.2081
 20
67.9338
 30
0.000000
  70
    32
  0
VERTEX
  8
0
  5
9B8
 10
89.9188
 20
70.2387
 30
0.000000
  70
    32
  0
VERTEX
  8
0
  5
9B9
 10
89.6254
 20
72.5153
 30
0.000000
  70
    32
  0
VERTEX
  8
0
  5
9BA
 10
89.3303
 20
74.7626
 30
0.000000
  70
    32
  0
VERTEX
  8
0
  5
9BB
 10
89.0363
 20
76.9798
 30
0.000000
  70
    32
  0
VERTEX
  8
0
  5
9BC
 10
88.7459
 20
79.1663
 30
0.000000
  70
    32
  0
VERTEX
  8
0
  5
9BD
 10
88.4619
 20
81.3212
 30
0.000000
  70
    32
  0
VERTEX
  8
0
  5
9BE
 10
88.1867
 20
83.4437
 30
0.000000
  70
    32
  0
VERTEX
  8
0
  5
9BF
 10
87.9231
 20
85.5330
 30
0.000000
  70
    32
  0
VERTEX
  8
0
  5
9C0
 10
87.6736
 20
87.5883
 30
0.000000
  70
    32
  0
VERTEX
  8
0
  5
9C1
 10
87.4409
 20
89.6089
 30
0.000000
  70
    32
  0
VERTEX
  8
0
  5
9C2
 10
87.2275
 20
91.5939
 30
0.000000
  70
    32
  0
VERTEX
  8
0
  5
9C3
 10
87.0362
 20
93.5425
 30
0.000000
  70
    32
  0
VERTEX
  8
0
  5
9C4
 10
86.8695
 20
95.4539
 30
0.000000
  70
    32
  0
VERTEX
  8
0
  5
9C5
 10
86.7300
 20
97.3274
 30
0.000000
  70
    32
  0
VERTEX
  8
0
  5
9C6
 10
86.6204
 20
99.1622
 30
0.000000
  70
    32
  0
VERTEX
  8
0
  5
9C7
 10
86.5432
 20
100.957
 30
0.000000
  70
    32
  0
VERTEX
  8
0
  5
9C8
 10
86.5012
 20
102.712
 30
0.000000
  70
    32
  0
VERTEX
  8
0
  5
9C9
 10
86.4969
 20
104.426
 30
0.000000
  70
    32
  0
VERTEX
  8
0
  5
9CA
 10
86.5329
 20
106.098
 30
0.000000
  70
    32
  0
VERTEX
  8
0
  5
9CB
 10
86.6119
 20
107.727
 30
0.000000
  70
    32
  0
VERTEX
  8
0
  5
9CC
 10
86.7365
 20
109.313
 30
0.000000
  70
    32
  0
VERTEX
  8
0
  5
9CD
 10
86.9093
 20
110.854
 30
0.000000
  70
    32
  0
VERTEX
  8
0
  5
9CE
 10
87.1329
 20
112.350
 30
0.000000
  70
    32
  0
VERTEX
  8
0
  5
9CF
 10
87.4099
 20
113.801
 30
0.000000
  70
    32
  0
VERTEX
  8
0
  5
9D0
 10
87.7430
 20
115.204
 30
0.000000
  70
    32
  0
VERTEX
  8
0
  5
9D1
 10
88.1347
 20
116.561
 30
0.000000
  70
    32
  0
VERTEX
  8
0
  5
9D2
 10
88.5878
 20
117.868
 30
0.000000
  70
    32
  0
VERTEX
  8
0
  5
9D3
 10
89.1048
 20
119.127
 30
0.000000
  70
    32
  0
VERTEX
  8
0
  5
9D4
 10
89.6883
 20
120.336
 30
0.000000
  70
    32
  0
VERTEX
  8
0
  5
9D5
 10
90.3410
 20
121.495
 30
0.000000
  70
    32
  0
VERTEX
  8
0
  5
9D6
 10
91.0654
 20
122.602
 30
0.000000
  70
    32
  0
VERTEX
  8
0
  5
9D7
 10
91.8643
 20
123.656
 30
0.000000
  70
    32
  0
VERTEX
  8
0
  5
9D8
 10
92.7401
 20
124.658
 30
0.000000
  70
    32
  0
VERTEX
  8
0
  5
9D9
 10
93.6956
 20
125.606
 30
0.000000
  70
    32
  0
VERTEX
  8
0
  5
9DA
 10
94.7334
 20
126.499
 30
0.000000
  70
    32
  0
VERTEX
  8
0
  5
9DB
 10
95.8560
 20
127.337
 30
0.000000
  70
    32
  0
VERTEX
  8
0
  5
9DC
 10
97.0661
 20
128.118
 30
0.000000
  70
    32
  0
VERTEX
  8
0
  5
9DD
 10
98.3664
 20
128.843
 30
0.000000
  70
    32
  0
VERTEX
  8
0
  5
9DE
 10
99.7593
 20
129.510
 30
0.000000
  70
    32
  0
VERTEX
  8
0
  5
9DF
 10
101.248
 20
130.118
 30
0.000000
  70
    32
  0
VERTEX
  8
0
  5
9E0
 10
102.832
 20
130.667
 30
0.000000
  70
    32
  0
VERTEX
  8
0
  5
9E1
 10
104.505
 20
131.155
 30
0.000000
  70
    32
  0
VERTEX
  8
0
  5
9E2
 10
106.257
 20
131.582
 30
0.000000
  70
    32
  0
VERTEX
  8
0
  5
9E3
 10
108.079
 20
131.947
 30
0.000000
  70
    32
  0
VERTEX
  8
0
  5
9E4
 10
109.959
 20
132.249
 30
0.000000
  70
    32
  0
VERTEX
  8
0
  5
9E5
 10
111.889
 20
132.487
 30
0.000000
  70
    32
  0
VERTEX
  8
0
  5
9E6
 10
113.858
 20
132.660
 30
0.000000
  70
    32
  0
VERTEX
  8
0
  5
9E7
 10
115.857
 20
132.767
 30
0.000000
  70
    32
  0
VERTEX
  8
0
  5
9E8
 10
117.876
 20
132.806
 30
0.000000
  70
    32
  0
VERTEX
  8
0
  5
9E9
 10
119.904
 20
132.778
 30
0.000000
  70
    32
  0
VERTEX
  8
0
  5
9EA
 10
121.933
 20
132.682
 30
0.000000
  70
    32
  0
VERTEX
  8
0
  5
9EB
 10
123.953
 20
132.515
 30
0.000000
  70
    32
  0
VERTEX
  8
0
  5
9EC
 10
125.952
 20
132.278
 30
0.000000
  70
    32
  0
VERTEX
  8
0
  5
9ED
 10
127.923
 20
131.969
 30
0.000000
  70
    32
  0
VERTEX
  8
0
  5
9EE
 10
129.854
 20
131.588
 30
0.000000
  70
    32
  0
VERTEX
  8
0
  5
9EF
 10
131.737
 20
131.133
 30
0.000000
  70
    32
  0
VERTEX
  8
0
  5
9F0
 10
133.560
 20
130.604
 30
0.000000
  70
    32
  0
VERTEX
  8
0
  5
9F1
 10
135.315
 20
129.999
 30
0.000000
  70
    32
  0
VERTEX
  8
0
  5
9F2
 10
136.994
 20
129.318
 30
0.000000
  70
    32
  0
VERTEX
  8
0
  5
9F3
 10
138.597
 20
128.564
 30
0.000000
  70
    32
  0
VERTEX
  8
0
  5
9F4
 10
140.128
 20
127.737
 30
0.000000
  70
    32
  0
VERTEX
  8
0
  5
9F5
 10
141.589
 20
126.839
 30
0.000000
  70
    32
  0
VERTEX
  8
0
  5
9F6
 10
142.982
 20
125.872
 30
0.000000
  70
    32
  0
VERTEX
  8
0
  5
9F7
 10
144.310
 20
124.839
 30
0.000000
  70
    32
  0
VERTEX
  8
0
  5
9F8
 10
145.576
 20
123.741
 30
0.000000
  70
    32
  0
VERTEX
  8
0
  5
9F9
 10
146.781
 20
122.579
 30
0.000000
  70
    32
  0
VERTEX
  8
0
  5
9FA
 10
147.928
 20
121.357
 30
0.000000
  70
    32
  0
VERTEX
  8
0
  5
9FB
 10
149.020
 20
120.075
 30
0.000000
  70
    32
  0
VERTEX
  8
0
  5
9FC
 10
150.059
 20
118.735
 30
0.000000
  70
    32
  0
VERTEX
  8
0
  5
9FD
 10
151.048
 20
117.340
 30
0.000000
  70
    32
  0
VERTEX
  8
0
  5
9FE
 10
151.989
 20
115.890
 30
0.000000
  70
    32
  0
VERTEX
  8
0
  5
9FF
 10
152.884
 20
114.389
 30
0.000000
  70
    32
  0
VERTEX
  8
0
  5
A00
 10
153.737
 20
112.838
 30
0.000000
  70
    32
  0
VERTEX
  8
0
  5
A01
 10
154.549
 20
111.238
 30
0.000000
  70
    32
  0
VERTEX
  8
0
  5
A02
 10
155.324
 20
109.592
 30
0.000000
  70
    32
  0
VERTEX
  8
0
  5
A03
 10
156.063
 20
107.901
 30
0.000000
  70
    32
  0
VERTEX
  8
0
  5
A04
 10
156.769
 20
106.167
 30
0.000000
  70
    32
  0
VERTEX
  8
0
  5
A05
 10
157.444
 20
104.393
 30
0.000000
  70
    32
  0
VERTEX
  8
0
  5
A06
 10
158.092
 20
102.580
 30
0.000000
  70
    32
  0
VERTEX
  8
0
  5
A07
 10
158.714
 20
100.729
 30
0.000000
  70
    32
  0
VERTEX
  8
0
  5
A08
 10
159.313
 20
98.8431
 30
0.000000
  70
    32
  0
VERTEX
  8
0
  5
A09
 10
159.891
 20
96.9238
 30
0.000000
  70
    32
  0
VERTEX
  8
0
  5
A0A
 10
160.451
 20
94.9729
 30
0.000000
  70
    32
  0
VERTEX
  8
0
  5
A0B
 10
160.996
 20
92.9922
 30
0.000000
  70
    32
  0
VERTEX
  8
0
  5
A0C
 10
161.528
 20
90.9836
 30
0.000000
  70
    32
  0
VERTEX
  8
0
  5
A0D
 10
162.049
 20
88.9490
 30
0.000000
  70
    32
  0
VERTEX
  8
0
  5
A0E
 10
162.561
 20
86.8902
 30
0.000000
  70
    32
  0
VERTEX
  8
0
  5
A0F
 10
163.068
 20
84.8091
 30
0.000000
  70
    32
  0
VERTEX
  8
0
  5
A10
 10
163.572
 20
82.7075
 30
0.000000
  70
    32
  0
VERTEX
  8
0
  5
A11
 10
164.075
 20
80.5873
 30
0.000000
  70
    32
  0
VERTEX
  8
0
  5
A12
 10
164.580
 20
78.4503
 30
0.000000
  70
    32
  0
VERTEX
  8
0
  5
A13
 10
165.090
 20
76.2985
 30
0.000000
  70
    32
  0
VERTEX
  8
0
  5
A14
 10
165.605
 20
74.1335
 30
0.000000
  70
    32
  0
VERTEX
  8
0
  5
A15
 10
166.131
 20
71.9574
 30
0.000000
  70
    32
  0
VERTEX
  8
0
  5
A16
 10
166.667
 20
69.7719
 30
0.000000
  70
    32
  0
VERTEX
  8
0
  5
A17
 10
167.218
 20
67.5790
 30
0.000000
  70
    32
  0
VERTEX
  8
0
  5
A18
 10
167.786
 20
65.3804
 30
0.000000
  70
    32
  0
VERTEX
  8
0
  5
A19
 10
168.372
 20
63.1781
 30
0.000000
  70
    32
  0
VERTEX
  8
0
  5
A1A
 10
168.981
 20
60.9738
 30
0.000000
  70
    32
  0
VERTEX
  8
0
  5
A1B
 10
169.613
 20
58.7695
 30
0.000000
  70
    32
  0
VERTEX
  8
0
  5
A1C
 10
170.272
 20
56.5669
 30
0.000000
  70
    32
  0
VERTEX
  8
0
  5
A1D
 10
170.960
 20
54.3680
 30
0.000000
  70
    32
  0
VERTEX
  8
0
  5
A1E
 10
171.678
 20
52.1752
 30
0.000000
  70
    32
  0
VERTEX
  8
0
  5
A1F
 10
172.425
 20
49.9911
 30
0.000000
  70
    32
  0
VERTEX
  8
0
  5
A20
 10
173.201
 20
47.8185
 30
0.000000
  70
    32
  0
VERTEX
  8
0
  5
A21
 10
174.007
 20
45.6602
 30
0.000000
  70
    32
  0
VERTEX
  8
0
  5
A22
 10
174.840
 20
43.5190
 30
0.000000
  70
    32
  0
VERTEX
  8
0
  5
A23
 10
175.702
 20
41.3975
 30
0.000000
  70
    32
  0
VERTEX
  8
0
  5
A24
 10
176.591
 20
39.2986
 30
0.000000
  70
    32
  0
VERTEX
  8
0
  5
A25
 10
177.507
 20
37.2250
 30
0.000000
  70
    32
  0
VERTEX
  8
0
  5
A26
 10
178.450
 20
35.1795
 30
0.000000
  70
    32
  0
VERTEX
  8
0
  5
A27
 10
179.420
 20
33.1647
 30
0.000000
  70
    32
  0
VERTEX
  8
0
  5
A28
 10
180.416
 20
31.1836
 30
0.000000
  70
    32
  0
VERTEX
  8
0
  5
A29
 10
181.437
 20
29.2387
 30
0.000000
  70
    32
  0
VERTEX
  8
0
  5
A2A
 10
182.484
 20
27.3330
 30
0.000000
  70
    32
  0
VERTEX
  8
0
  5
A2B
 10
183.555
 20
25.4691
 30
0.000000
  70
    32
  0
VERTEX
  8
0
  5
A2C
 10
184.652
 20
23.6498
 30
0.000000
  70
    32
  0
VERTEX
  8
0
  5
A2D
 10
185.772
 20
21.8779
 30
0.000000
  70
    32
  0
VERTEX
  8
0
  5
A2E
 10
186.916
 20
20.1561
 30
0.000000
  70
    32
  0
VERTEX
  8
0
  5
A2F
 10
188.083
 20
18.4871
 30
0.000000
  70
    32
  0
VERTEX
  8
0
  5
A30
 10
189.274
 20
16.8738
 30
0.000000
  70
    32
  0
VERTEX
  8
0
  5
A31
 10
190.487
 20
15.3189
 30
0.000000
  70
    32
  0
VERTEX
  8
0
  5
A32
 10
191.722
 20
13.8251
 30
0.000000
  70
    32
  0
VERTEX
  8
0
  5
A33
 10
192.980
 20
12.3952
 30
0.000000
  70
    32
  0
VERTEX
  8
0
  5
A34
 10
194.258
 20
11.0319
 30
0.000000
  70
    32
  0
VERTEX
  8
0
  5
A35
 10
195.558
 20
9.73810
 30
0.000000
  70
    32
  0
VERTEX
  8
0
  5
A36
 10
196.878
 20
8.51644
 30
0.000000
  70
    32
  0
VERTEX
  8
0
  5
A37
 10
198.219
 20
7.36969
 30
0.000000
  70
    32
  0
VERTEX
  8
0
  5
A38
 10
199.580
 20
6.30063
 30
0.000000
  70
    32
  0
VERTEX
  8
0
  5
A39
 10
200.960
 20
5.31200
 30
0.000000
  70
    32
  0
VERTEX
  8
0
  5
A3A
 10
202.359
 20
4.40657
 30
0.000000
  70
    32
  0
VERTEX
  8
0
  5
A3B
 10
203.778
 20
3.58708
 30
0.000000
  70
    32
  0
VERTEX
  8
0
  5
A3C
 10
205.214
 20
2.85631
 30
0.000000
  70
    32
  0
VERTEX
  8
0
  5
A3D
 10
206.669
 20
2.21699
 30
0.000000
  70
    32
  0
VERTEX
  8
0
  5
A3E
 10
208.141
 20
1.67190
 30
0.000000
  70
    32
  0
VERTEX
  8
0
  5
A3F
 10
209.630
 20
1.22378
 30
0.000000
  70
    32
  0
VERTEX
  8
0
  5
A40
 10
211.137
 20
0.875392
 30
0.000000
  70
    32
  0
VERTEX
  8
0
  5
A41
 10
212.660
 20
0.629496
 30
0.000000
  70
    32
  0
VERTEX
  8
0
  5
A42
 10
214.198
 20
0.487816
 30
0.000000
  70
    32
  0
VERTEX
  8
0
  5
A43
 10
215.752
 20
0.448276
 30
0.000000
  70
    32
  0
VERTEX
  8
0
  5
A44
 10
217.320
 20
0.507913
 30
0.000000
  70
    32
  0
VERTEX
  8
0
  5
A45
 10
218.900
 20
0.663770
 30
0.000000
  70
    32
  0
VERTEX
  8
0
  5
A46
 10
220.491
 20
0.912885
 30
0.000000
  70
    32
  0
VERTEX
  8
0
  5
A47
 10
222.093
 20
1.25230
 30
0.000000
  70
    32
  0
VERTEX
  8
0
  5
A48
 10
223.703
 20
1.67905
 30
0.000000
  70
    32
  0
VERTEX
  8
0
  5
A49
 10
225.322
 20
2.19018
 30
0.000000
  70
    32
  0
VERTEX
  8
0
  5
A4A
 10
226.948
 20
2.78274
 30
0.000000
  70
    32
  0
VERTEX
  8
0
  5
A4B
 10
228.579
 20
3.45375
 30
0.000000
  70
    32
  0
VERTEX
  8
0
  5
A4C
 10
230.214
 20
4.20026
 30
0.000000
  70
    32
  0
VERTEX
  8
0
  5
A4D
 10
231.853
 20
5.01931
 30
0.000000
  70
    32
  0
VERTEX
  8
0
  5
A4E
 10
233.494
 20
5.90794
 30
0.000000
  70
    32
  0
VERTEX
  8
0
  5
A4F
 10
235.135
 20
6.86319
 30
0.000000
  70
    32
  0
VERTEX
  8
0
  5
A50
 10
236.777
 20
7.88210
 30
0.000000
  70
    32
  0
VERTEX
  8
0
  5
A51
 10
238.417
 20
8.96171
 30
0.000000
  70
    32
  0
VERTEX
  8
0
  5
A52
 10
240.054
 20
10.0991
 30
0.000000
  70
    32
  0
VERTEX
  8
0
  5
A53
 10
241.688
 20
11.2912
 30
0.000000
  70
    32
  0
VERTEX
  8
0
  5
A54
 10
243.317
 20
12.5351
 30
0.000000
  70
    32
  0
VERTEX
  8
0
  5
A55
 10
244.940
 20
13.8279
 30
0.000000
  70
    32
  0
VERTEX
  8
0
  5
A56
 10
246.555
 20
15.1667
 30
0.000000
  70
    32
  0
VERTEX
  8
0
  5
A57
 10
248.163
 20
16.5483
 30
0.000000
  70
    32
  0
VERTEX
  8
0
  5
A58
 10
249.760
 20
17.9699
 30
0.000000
  70
    32
  0
VERTEX
  8
0
  5
A59
 10
251.347
 20
19.4286
 30
0.000000
  70
    32
  0
VERTEX
  8
0
  5
A5A
 10
252.922
 20
20.9213
 30
0.000000
  70
    32
  0
VERTEX
  8
0
  5
A5B
 10
254.484
 20
22.4451
 30
0.000000
  70
    32
  0
VERTEX
  8
0
  5
A5C
 10
256.032
 20
23.9971
 30
0.000000
  70
    32
  0
VERTEX
  8
0
  5
A5D
 10
257.564
 20
25.5742
 30
0.000000
  70
    32
  0
VERTEX
  8
0
  5
A5E
 10
259.080
 20
27.1736
 30
0.000000
  70
    32
  0
VERTEX
  8
0
  5
A5F
 10
260.578
 20
28.7922
 30
0.000000
  70
    32
  0
VERTEX
  8
0
  5
A60
 10
262.057
 20
30.4271
 30
0.000000
  70
    32
  0
VERTEX
  8
0
  5
A61
 10
263.516
 20
32.0754
 30
0.000000
  70
    32
  0
VERTEX
  8
0
  5
A62
 10
264.954
 20
33.7340
 30
0.000000
  70
    32
  0
VERTEX
  8
0
  5
A63
 10
266.370
 20
35.4001
 30
0.000000
  70
    32
  0
VERTEX
  8
0
  5
A64
 10
267.762
 20
37.0706
 30
0.000000
  70
    32
  0
VERTEX
  8
0
  5
A65
 10
269.129
 20
38.7427
 30
0.000000
  70
    32
  0
VERTEX
  8
0
  5
A66
 10
270.470
 20
40.4133
 30
0.000000
  70
    32
  0
VERTEX
  8
0
  5
A67
 10
271.779
 20
42.0824
 30
0.000000
  70
    32
  0
VERTEX
  8
0
  5
A68
 10
273.047
 20
43.7522
 30
0.000000
  70
    32
  0
VERTEX
  8
0
  5
A69
 10
274.262
 20
45.4255
 30
0.000000
  70
    32
  0
VERTEX
  8
0
  5
A6A
 10
275.413
 20
47.1049
 30
0.000000
  70
    32
  0
VERTEX
  8
0
  5
A6B
 10
276.490
 20
48.7930
 30
0.000000
  70
    32
  0
VERTEX
  8
0
  5
A6C
 10
277.483
 20
50.4924
 30
0.000000
  70
    32
  0
VERTEX
  8
0
  5
A6D
 10
278.381
 20
52.2058
 30
0.000000
  70
    32
  0
VERTEX
  8
0
  5
A6E
 10
279.173
 20
53.9358
 30
0.000000
  70
    32
  0
VERTEX
  8
0
  5
A6F
 10
279.849
 20
55.6850
 30
0.000000
  70
    32
  0
VERTEX
  8
0
  5
A70
 10
280.397
 20
57.4561
 30
0.000000
  70
    32
  0
VERTEX
  8
0
  5
A71
 10
280.808
 20
59.2516
 30
0.000000
  70
    32
  0
VERTEX
  8
0
  5
A72
 10
281.071
 20
61.0743
 30
0.000000
  70
    32
  0
VERTEX
  8
0
  5
A73
 10
281.175
 20
62.9267
 30
0.000000
  70
    32
  0
VERTEX
  8
0
  5
A74
 10
281.109
 20
64.8115
 30
0.000000
  70
    32
  0
VERTEX
  8
0
  5
A75
 10
280.863
 20
66.7312
 30
0.000000
  70
    32
  0
VERTEX
  8
0
  5
A76
 10
280.434
 20
68.6818
 30
0.000000
  70
    32
  0
VERTEX
  8
0
  5
A77
 10
279.831
 20
70.6444
 30
0.000000
  70
    32
  0
VERTEX
  8
0
  5
A78
 10
279.069
 20
72.5983
 30
0.000000
  70
    32
  0
VERTEX
  8
0
  5
A79
 10
278.160
 20
74.5227
 30
0.000000
  70
    32
  0
VERTEX
  8
0
  5
A7A
 10
277.118
 20
76.3969
 30
0.000000
  70
    32
  0
VERTEX
  8
0
  5
A7B
 10
275.955
 20
78.2001
 30
0.000000
  70
    32
  0
VERTEX
  8
0
  5
A7C
 10
274.684
 20
79.9115
 30
0.000000
  70
    32
  0
VERTEX
  8
0
  5
A7D
 10
273.319
 20
81.5104
 30
0.000000
  70
    32
  0
VERTEX
  8
0
  5
A7E
 10
271.872
 20
82.9760
 30
0.000000
  70
    32
  0
VERTEX
  8
0
  5
A7F
 10
270.357
 20
84.2876
 30
0.000000
  70
    32
  0
VERTEX
  8
0
  5
A80
 10
268.787
 20
85.4243
 30
0.000000
  70
    32
  0
VERTEX
  8
0
  5
A81
 10
267.174
 20
86.3656
 30
0.000000
  70
    32
  0
VERTEX
  8
0
  5
A82
 10
265.531
 20
87.0905
 30
0.000000
  70
    32
  0
VERTEX
  8
0
  5
A83
 10
263.873
 20
87.5783
 30
0.000000
  70
    32
  0
VERTEX
  8
0
  5
A84
 10
262.211
 20
87.8089
 30
0.000000
  70
    32
  0
VERTEX
  8
0
  5
A85
 10
260.555
 20
87.7782
 30
0.000000
  70
    32
  0
VERTEX
  8
0
  5
A86
 10
258.912
 20
87.5004
 30
0.000000
  70
    32
  0
VERTEX
  8
0
  5
A87
 10
257.289
 20
86.9907
 30
0.000000
  70
    32
  0
VERTEX
  8
0
  5
A88
 10
255.690
 20
86.2644
 30
0.000000
  70
    32
  0
VERTEX
  8
0
  5
A89
 10
254.124
 20
85.3365
 30
0.000000
  70
    32
  0
VERTEX
  8
0
  5
A8A
 10
252.595
 20
84.2222
 30
0.000000
  70
    32
  0
VERTEX
  8
0
  5
A8B
 10
251.109
 20
82.9368
 30
0.000000
  70
    32
  0
VERTEX
  8
0
  5
A8C
 10
249.674
 20
81.4954
 30
0.000000
  70
    32
  0
VERTEX
  8
0
  5
A8D
 10
248.296
 20
79.9132
 30
0.000000
  70
    32
  0
VERTEX
  8
0
  5
A8E
 10
246.979
 20
78.2053
 30
0.000000
  70
    32
  0
VERTEX
  8
0
  5
A8F
 10
245.732
 20
76.3871
 30
0.000000
  70
    32
  0
VERTEX
  8
0
  5
A90
 10
244.559
 20
74.4736
 30
0.000000
  70
    32
  0
VERTEX
  8
0
  5
A91
 10
243.468
 20
72.4800
 30
0.000000
  70
    32
  0
VERTEX
  8
0
  5
A92
 10
242.464
 20
70.4215
 30
0.000000
  70
    32
  0
VERTEX
  8
0
  5
A93
 10
241.554
 20
68.3132
 30
0.000000
  70
    32
  0
VERTEX
  8
0
  5
A94
 10
240.743
 20
66.1705
 30
0.000000
  70
    32
  0
VERTEX
  8
0
  5
A95
 10
240.039
 20
64.0084
 30
0.000000
  70
    32
  0
VERTEX
  8
0
  5
A96
 10
239.446
 20
61.8421
 30
0.000000
  70
    32
  0
VERTEX
  8
0
  5
A97
 10
238.969
 20
59.6823
 30
0.000000
  70
    32
  0
VERTEX
  8
0
  5
A98
 10
238.605
 20
57.5330
 30
0.000000
  70
    32
  0
VERTEX
  8
0
  5
A99
 10
238.351
 20
55.3974
 30
0.000000
  70
    32
  0
VERTEX
  8
0
  5
A9A
 10
238.205
 20
53.2786
 30
0.000000
  70
    32
  0
VERTEX
  8
0
  5
A9B
 10
238.163
 20
51.1800
 30
0.000000
  70
    32
  0
VERTEX
  8
0
  5
A9C
 10
238.224
 20
49.1048
 30
0.000000
  70
    32
  0
VERTEX
  8
0
  5
A9D
 10
238.385
 20
47.0562
 30
0.000000
  70
    32
  0
VERTEX
  8
0
  5
A9E
 10
238.643
 20
45.0375
 30
0.000000
  70
    32
  0
VERTEX
  8
0
  5
A9F
 10
238.996
 20
43.0518
 30
0.000000
  70
    32
  0
VERTEX
  8
0
  5
AA0
 10
239.440
 20
41.1025
 30
0.000000
  70
    32
  0
VERTEX
  8
0
  5
AA1
 10
239.974
 20
39.1927
 30
0.000000
  70
    32
  0
VERTEX
  8
0
  5
AA2
 10
240.594
 20
37.3257
 30
0.000000
  70
    32
  0
VERTEX
  8
0
  5
AA3
 10
241.298
 20
35.5048
 30
0.000000
  70
    32
  0
VERTEX
  8
0
  5
AA4
 10
242.084
 20
33.7331
 30
0.000000
  70
    32
  0
VERTEX
  8
0
  5
AA5
 10
242.948
 20
32.0139
 30
0.000000
  70
    32
  0
VERTEX
  8
0
  5
AA6
 10
243.888
 20
30.3505
 30
0.000000
  70
    32
  0
VERTEX
  8
0
  5
AA7
 10
244.901
 20
28.7460
 30
0.000000
  70
    32
  0
VERTEX
  8
0
  5
AA8
 10
245.985
 20
27.2038
 30
0.000000
  70
    32
  0
VERTEX
  8
0
  5
AA9
 10
247.138
 20
25.7270
 30
0.000000
  70
    32
  0
VERTEX
  8
0
  5
AAA
 10
248.355
 20
24.3189
 30
0.000000
  70
    32
  0
VERTEX
  8
0
  5
AAB
 10
249.636
 20
22.9827
 30
0.000000
  70
    32
  0
VERTEX
  8
0
  5
AAC
 10
250.977
 20
21.7216
 30
0.000000
  70
    32
  0
VERTEX
  8
0
  5
AAD
 10
252.375
 20
20.5384
 30
0.000000
  70
    32
  0
VERTEX
  8
0
  5
AAE
 10
253.828
 20
19.4312
 30
0.000000
  70
    32
  0
VERTEX
  8
0
  5
AAF
 10
255.333
 20
18.3957
 30
0.000000
  70
    32
  0
VERTEX
  8
0
  5
AB0
 10
256.888
 20
17.4277
 30
0.000000
  70
    32
  0
VERTEX
  8
0
  5
AB1
 10
258.488
 20
16.5232
 30
0.000000
  70
    32
  0
VERTEX
  8
0
  5
AB2
 10
260.133
 20
15.6778
 30
0.000000
  70
    32
  0
VERTEX
  8
0
  5
AB3
 10
261.818
 20
14.8874
 30
0.000000
  70
    32
  0
VERTEX
  8
0
  5
AB4
 10
263.542
 20
14.1479
 30
0.000000
  70
    32
  0
VERTEX
  8
0
  5
AB5
 10
265.301
 20
13.4549
 30
0.000000
  70
    32
  0
VERTEX
  8
0
  5
AB6
 10
267.092
 20
12.8044
 30
0.000000
  70
    32
  0
VERTEX
  8
0
  5
AB7
 10
268.913
 20
12.1921
 30
0.000000
  70
    32
  0
VERTEX
  8
0
  5
AB8
 10
270.761
 20
11.6139
 30
0.000000
  70
    32
  0
VERTEX
  8
0
  5
AB9
 10
272.634
 20
11.0655
 30
0.000000
  70
    32
  0
VERTEX
  8
0
  5
ABA
 10
274.528
 20
10.5428
 30
0.000000
  70
    32
  0
VERTEX
  8
0
  5
ABB
 10
276.440
 20
10.0416
 30
0.000000
  70
    32
  0
VERTEX
  8
0
  5
ABC
 10
278.369
 20
9.55769
 30
0.000000
  70
    32
  0
VERTEX
  8
0
  5
ABD
 10
280.310
 20
9.08686
 30
0.000000
  70
    32
  0
VERTEX
  8
0
  5
ABE
 10
282.262
 20
8.62493
 30
0.000000
  70
    32
  0
VERTEX
  8
0
  5
ABF
 10
284.221
 20
8.16772
 30
0.000000
  70
    32
  0
VERTEX
  8
0
  5
AC0
 10
286.185
 20
7.71122
 30
0.000000
  70
    32
  0
VERTEX
  8
0
  5
AC1
 10
288.151
 20
7.25598
 30
0.000000
  70
    32
  0
VERTEX
  8
0
  5
AC2
 10
290.117
 20
6.80743
 30
0.000000
  70
    32
  0
VERTEX
  8
0
  5
AC3
 10
292.078
 20
6.37124
 30
0.000000
  70
    32
  0
VERTEX
  8
0
  5
AC4
 10
294.034
 20
5.95308
 30
0.000000
  70
    32
  0
VERTEX
  8
0
  5
AC5
 10
295.981
 20
5.55862
 30
0.000000
  70
    32
  0
VERTEX
  8
0
  5
AC6
 10
297.915
 20
5.19352
 30
0.000000
  70
    32
  0
VERTEX
  8
0
  5
AC7
 10
299.836
 20
4.86347
 30
0.000000
  70
    32
  0
VERTEX
  8
0
  5
AC8
 10
301.739
 20
4.57412
 30
0.000000
  70
    32
  0
VERTEX
  8
0
  5
AC9
 10
303.622
 20
4.33115
 30
0.000000
  70
    32
  0
VERTEX
  8
0
  5
ACA
 10
305.483
 20
4.14023
 30
0.000000
  70
    32
  0
VERTEX
  8
0
  5
ACB
 10
307.318
 20
4.00702
 30
0.000000
  70
    32
  0
VERTEX
  8
0
  5
ACC
 10
309.124
 20
3.93719
 30
0.000000
  70
    32
  0
VERTEX
  8
0
  5
ACD
 10
310.900
 20
3.93642
 30
0.000000
  70
    32
  0
VERTEX
  8
0
  5
ACE
 10
312.642
 20
4.01037
 30
0.000000
  70
    32
  0
VERTEX
  8
0
  5
ACF
 10
314.348
 20
4.16472
 30
0.000000
  70
    32
  0
VERTEX
  8
0
  5
AD0
 10
316.015
 20
4.40421
 30
0.000000
  70
    32
  0
VERTEX
  8
0
  5
AD1
 10
317.643
 20
4.72865
 30
0.000000
  70
    32
  0
VERTEX
  8
0
  5
AD2
 10
319.232
 20
5.13618
 30
0.000000
  70
    32
  0
VERTEX
  8
0
  5
AD3
 10
320.784
 20
5.62495
 30
0.000000
  70
    32
  0
VERTEX
  8
0
  5
AD4
 10
322.298
 20
6.19310
 30
0.000000
  70
    32
  0
VERTEX
  8
0
  5
AD5
 10
323.776
 20
6.83877
 30
0.000000
  70
    32
  0
VERTEX
  8
0
  5
AD6
 10
325.218
 20
7.56010
 30
0.000000
  70
    32
  0
VERTEX
  8
0
  5
AD7
 10
326.625
 20
8.35524
 30
0.000000
  70
    32
  0
VERTEX
  8
0
  5
AD8
 10
327.996
 20
9.22233
 30
0.000000
  70
    32
  0
VERTEX
  8
0
  5
AD9
 10
329.333
 20
10.1595
 30
0.000000
  70
    32
  0
VERTEX
  8
0
  5
ADA
 10
330.637
 20
11.1649
 30
0.000000
  70
    32
  0
VERTEX
  8
0
  5
ADB
 10
331.907
 20
12.2367
 30
0.000000
  70
    32
  0
VERTEX
  8
0
  5
ADC
 10
333.145
 20
13.3730
 30
0.000000
  70
    32
  0
VERTEX
  8
0
  5
ADD
 10
334.351
 20
14.5720
 30
0.000000
  70
    32
  0
VERTEX
  8
0
  5
ADE
 10
335.526
 20
15.8318
 30
0.000000
  70
    32
  0
VERTEX
  8
0
  5
ADF
 10
336.670
 20
17.1505
 30
0.000000
  70
    32
  0
VERTEX
  8
0
  5
AE0
 10
337.784
 20
18.5263
 30
0.000000
  70
    32
  0
VERTEX
  8
0
  5
AE1
 10
338.868
 20
19.9574
 30
0.000000
  70
    32
  0
VERTEX
  8
0
  5
AE2
 10
339.922
 20
21.4418
 30
0.000000
  70
    32
  0
VERTEX
  8
0
  5
AE3
 10
340.949
 20
22.9778
 30
0.000000
  70
    32
  0
VERTEX
  8
0
  5
AE4
 10
341.948
 20
24.5634
 30
0.000000
  70
    32
  0
VERTEX
  8
0
  5
AE5
 10
342.919
 20
26.1968
 30
0.000000
  70
    32
  0
VERTEX
  8
0
  5
AE6
 10
343.864
 20
27.8762
 30
0.000000
  70
    32
  0
VERTEX
  8
0
  5
AE7
 10
344.782
 20
29.5996
 30
0.000000
  70
    32
  0
VERTEX
  8
0
  5
AE8
 10
345.675
 20
31.3653
 30
0.000000
  70
    32
  0
VERTEX
  8
0
  5
AE9
 10
346.543
 20
33.1714
 30
0.000000
  70
    32
  0
VERTEX
  8
0
  5
AEA
 10
347.387
 20
35.0159
 30
0.000000
  70
    32
  0
VERTEX
  8
0
  5
AEB
 10
348.207
 20
36.8972
 30
0.000000
  70
    32
  0
VERTEX
  8
0
  5
AEC
 10
349.003
 20
38.8132
 30
0.000000
  70
    32
  0
VERTEX
  8
0
  5
AED
 10
349.778
 20
40.7622
 30
0.000000
  70
    32
  0
VERTEX
  8
0
  5
AEE
 10
350.530
 20
42.7422
 30
0.000000
  70
    32
  0
VERTEX
  8
0
  5
AEF
 10
351.260
 20
44.7515
 30
0.000000
  70
    32
  0
VERTEX
  8
0
  5
AF0
 10
351.970
 20
46.7882
 30
0.000000
  70
    32
  0
VERTEX
  8
0
  5
AF1
 10
352.659
 20
48.8504
 30
0.000000
  70
    32
  0
VERTEX
  8
0
  5
AF2
 10
353.329
 20
50.9363
 30
0.000000
  70
    32
  0
VERTEX
  8
0
  5
AF3
 10
353.979
 20
53.0439
 30
0.000000
  70
    32
  0
VERTEX
  8
0
  5
AF4
 10
354.611
 20
55.1715
 30
0.000000
  70
    32
  0
VERTEX
  8
0
  5
AF5
 10
355.225
 20
57.3172
 30
0.000000
  70
    32
  0
VERTEX
  8
0
  5
AF6
 10
355.822
 20
59.4791
 30
0.000000
  70
    32
  0
VERTEX
  8
0
  5
AF7
 10
356.402
 20
61.6554
 30
0.000000
  70
    32
  0
VERTEX
  8
0
  5
AF8
 10
356.966
 20
63.8442
 30
0.000000
  70
    32
  0
VERTEX
  8
0
  5
AF9
 10
357.514
 20
66.0436
 30
0.000000
  70
    32
  0
VERTEX
  8
0
  5
AFA
 10
358.047
 20
68.2519
 30
0.000000
  70
    32
  0
VERTEX
  8
0
  5
AFB
 10
358.565
 20
70.4671
 30
0.000000
  70
    32
  0
VERTEX
  8
0
  5
AFC
 10
359.070
 20
72.6873
 30
0.000000
  70
    32
  0
VERTEX
  8
0
  5
AFD
 10
359.561
 20
74.9108
 30
0.000000
  70
    32
  0
VERTEX
  8
0
  5
AFE
 10
360.040
 20
77.1357
 30
0.000000
  70
    32
  0
VERTEX
  8
0
  5
AFF
 10
360.506
 20
79.3601
 30
0.000000
  70
    32
  0
VERTEX
  8
0
  5
B00
 10
360.961
 20
81.5822
 30
0.000000
  70
    32
  0
VERTEX
  8
0
  5
B01
 10
361.405
 20
83.8000
 30
0.000000
  70
    32
  0
VERTEX
  8
0
  5
B02
 10
361.839
 20
86.0118
 30
0.000000
  70
    32
  0
VERTEX
  8
0
  5
B03
 10
362.263
 20
88.2157
 30
0.000000
  70
    32
  0
VERTEX
  8
0
  5
B04
 10
362.678
 20
90.4098
 30
0.000000
  70
    32
  0
VERTEX
  8
0
  5
B05
 10
363.084
 20
92.5922
 30
0.000000
  70
    32
  0
VERTEX
  8
0
  5
B06
 10
363.481
 20
94.7612
 30
0.000000
  70
    32
  0
VERTEX
  8
0
  5
B07
 10
363.872
 20
96.9148
 30
0.000000
  70
    32
  0
VERTEX
  8
0
  5
B08
 10
364.256
 20
99.0513
 30
0.000000
  70
    32
  0
VERTEX
  8
0
  5
B09
 10
364.633
 20
101.169
 30
0.000000
  70
    32
  0
VERTEX
  8
0
  5
B0A
 10
365.004
 20
103.265
 30
0.000000
  70
    32
  0
VERTEX
  8
0
  5
B0B
 10
365.371
 20
105.339
 30
0.000000
  70
    32
  0
VERTEX
  8
0
  5
B0C
 10
365.733
 20
107.388
 30
0.000000
  70
    32
  0
VERTEX
  8
0
  5
B0D
 10
366.091
 20
109.410
 30
0.000000
  70
    32
  0
VERTEX
  8
0
  5
B0E
 10
366.445
 20
111.405
 30
0.000000
  70
    32
  0
VERTEX
  8
0
  5
B0F
 10
366.797
 20
113.369
 30
0.000000
  70
    32
  0
VERTEX
  8
0
  5
B10
 10
367.146
 20
115.303
 30
0.000000
  70
    32
  0
VERTEX
  8
0
  5
B11
 10
367.491
 20
117.209
 30
0.000000
  70
    32
  0
VERTEX
  8
0
  5
B12
 10
367.831
 20
119.089
 30
0.000000
  70
    32
  0
VERTEX
  8
0
  5
B13
 10
368.166
 20
120.945
 30
0.000000
  70
    32
  0
VERTEX
  8
0
  5
B14
 10
368.495
 20
122.779
 30
0.000000
  70
    32
  0
VERTEX
  8
0
  5
B15
 10
368.817
 20
124.592
 30
0.000000
  70
    32
  0
VERTEX
  8
0
  5
B16
 10
369.132
 20
126.388
 30
0.000000
  70
    32
  0
VERTEX
  8
0
  5
B17
 10
369.438
 20
128.168
 30
0.000000
  70
    32
  0
VERTEX
  8
0
  5
B18
 10
369.734
 20
129.933
 30
0.000000
  70
    32
  0
VERTEX
  8
0
  5
B19
 10
370.021
 20
131.686
 30
0.000000
  70
    32
  0
VERTEX
  8
0
  5
B1A
 10
370.296
 20
133.430
 30
0.000000
  70
    32
  0
VERTEX
  8
0
  5
B1B
 10
370.560
 20
135.165
 30
0.000000
  70
    32
  0
VERTEX
  8
0
  5
B1C
 10
370.812
 20
136.894
 30
0.000000
  70
    32
  0
VERTEX
  8
0
  5
B1D
 10
371.050
 20
138.618
 30
0.000000
  70
    32
  0
VERTEX
  8
0
  5
B1E
 10
371.274
 20
140.341
 30
0.000000
  70
    32
  0
VERTEX
  8
0
  5
B1F
 10
371.483
 20
142.063
 30
0.000000
  70
    32
  0
VERTEX
  8
0
  5
B20
 10
371.676
 20
143.787
 30
0.000000
  70
    32
  0
VERTEX
  8
0
  5
B21
 10
371.853
 20
145.515
 30
0.000000
  70
    32
  0
VERTEX
  8
0
  5
B22
 10
372.013
 20
147.249
 30
0.000000
  70
    32
  0
VERTEX
  8
0
  5
B23
 10
372.155
 20
148.990
 30
0.000000
  70
    32
  0
VERTEX
  8
0
  5
B24
 10
372.278
 20
150.741
 30
0.000000
  70
    32
  0
VERTEX
  8
0
  5
B25
 10
372.381
 20
152.504
 30
0.000000
  70
    32
  0
VERTEX
  8
0
  5
B26
 10
372.464
 20
154.281
 30
0.000000
  70
    32
  0
VERTEX
  8
0
  5
B27
 10
372.525
 20
156.073
 30
0.000000
  70
    32
  0
VERTEX
  8
0
  5
B28
 10
372.565
 20
157.883
 30
0.000000
  70
    32
  0
VERTEX
  8
0
  5
B29
 10
372.582
 20
159.713
 30
0.000000
  70
    32
  0
VERTEX
  8
0
  5
B2A
 10
372.575
 20
161.565
 30
0.000000
  70
    32
  0
VERTEX
  8
0
  5
B2B
 10
372.544
 20
163.440
 30
0.000000
  70
    32
  0
VERTEX
  8
0
  5
B2C
 10
372.487
 20
165.341
 30
0.000000
  70
    32
  0
VERTEX
  8
0
  5
B2D
 10
372.404
 20
167.269
 30
0.000000
  70
    32
  0
VERTEX
  8
0
  5
B2E
 10
372.295
 20
169.227
 30
0.000000
  70
    32
  0
VERTEX
  8
0
  5
B2F
 10
372.158
 20
171.217
 30
0.000000
  70
    32
  0
VERTEX
  8
0
  5
B30
 10
371.993
 20
173.241
 30
0.000000
  70
    32
  0
VERTEX
  8
0
  5
B31
 10
371.798
 20
175.300
 30
0.000000
  70
    32
  0
VERTEX
  8
0
  5
B32
 10
371.574
 20
177.396
 30
0.000000
  70
    32
  0
VERTEX
  8
0
  5
B33
 10
371.319
 20
179.533
 30
0.000000
  70
    32
  0
VERTEX
  8
0
  5
B34
 10
371.032
 20
181.711
 30
0.000000
  70
    32
  0
VERTEX
  8
0
  5
B35
 10
370.713
 20
183.932
 30
0.000000
  70
    32
  0
VERTEX
  8
0
  5
B36
 10
370.360
 20
186.199
 30
0.000000
  70
    32
  0
VERTEX
  8
0
  5
B37
 10
369.974
 20
188.514
 30
0.000000
  70
    32
  0
VERTEX
  8
0
  5
B38
 10
369.553
 20
190.878
 30
0.000000
  70
    32
  0
VERTEX
  8
0
  5
B39
 10
369.097
 20
193.292
 30
0.000000
  70
    32
  0
VERTEX
  8
0
  5
B3A
 10
368.607
 20
195.750
 30
0.000000
  70
    32
  0
VERTEX
  8
0
  5
B3B
 10
368.086
 20
198.242
 30
0.000000
  70
    32
  0
VERTEX
  8
0
  5
B3C
 10
367.537
 20
200.759
 30
0.000000
  70
    32
  0
VERTEX
  8
0
  5
B3D
 10
366.962
 20
203.291
 30
0.000000
  70
    32
  0
VERTEX
  8
0
  5
B3E
 10
366.364
 20
205.828
 30
0.000000
  70
    32
  0
VERTEX
  8
0
  5
B3F
 10
365.744
 20
208.361
 30
0.000000
  70
    32
  0
VERTEX
  8
0
  5
B40
 10
365.107
 20
210.881
 30
0.000000
  70
    32
  0
VERTEX
  8
0
  5
B41
 10
364.453
 20
213.377
 30
0.000000
  70
    32
  0
VERTEX
  8
0
  5
B42
 10
363.787
 20
215.841
 30
0.000000
  70
    32
  0
VERTEX
  8
0
  5
B43
 10
363.109
 20
218.263
 30
0.000000
  70
    32
  0
VERTEX
  8
0
  5
B44
 10
362.423
 20
220.633
 30
0.000000
  70
    32
  0
VERTEX
  8
0
  5
B45
 10
361.732
 20
222.942
 30
0.000000
  70
    32
  0
VERTEX
  8
0
  5
B46
 10
361.037
 20
225.181
 30
0.000000
  70
    32
  0
VERTEX
  8
0
  5
B47
 10
360.342
 20
227.339
 30
0.000000
  70
    32
  0
VERTEX
  8
0
  5
B48
 10
359.649
 20
229.407
 30
0.000000
  70
    32
  0
VERTEX
  8
0
  5
B49
 10
358.960
 20
231.376
 30
0.000000
  70
    32
  0
VERTEX
  8
0
  5
B4A
 10
358.278
 20
233.236
 30
0.000000
  70
    32
  0
VERTEX
  8
0
  5
B4B
 10
357.605
 20
234.977
 30
0.000000
  70
    32
  0
VERTEX
  8
0
  5
B4C
 10
356.944
 20
236.591
 30
0.000000
  70
    32
  0
VERTEX
  8
0
  5
B4D
 10
356.298
 20
238.067
 30
0.000000
  70
    32
  0
VERTEX
  8
0
  5
B4E
 10
355.669
 20
239.396
 30
0.000000
  70
    32
  0
VERTEX
  8
0
  5
B4F
 10
355.059
 20
240.569
 30
0.000000
  70
    32
  0
VERTEX
  8
0
  5
B50
 10
354.472
 20
241.576
 30
0.000000
  70
    32
  0
VERTEX
  8
0
  5
B51
 10
353.909
 20
242.407
 30
0.000000
  70
    32
  0
VERTEX
  8
0
  5
B52
 10
353.373
 20
243.053
 30
0.000000
  70
    32
  0
VERTEX
  8
0
  5
B53
 10
352.867
 20
243.505
 30
0.000000
  70
    32
  0
VERTEX
  8
0
  5
B54
 10
352.393
 20
243.752
 30
0.000000
  70
    32
  0
VERTEX
  8
0
  5
B55
 10
351.954
 20
243.786
 30
0.000000
  70
    32
  0
VERTEX
  8
0
  5
B56
 10
351.551
 20
243.597
 30
0.000000
  70
    32
  0
VERTEX
  8
0
  5
B57
 10
351.187
 20
243.187
 30
0.000000
  70
    32
  0
VERTEX
  8
0
  5
B58
 10
350.858
 20
242.566
 30
0.000000
  70
    32
  0
VERTEX
  8
0
  5
B59
 10
350.564
 20
241.744
 30
0.000000
  70
    32
  0
VERTEX
  8
0
  5
B5A
 10
350.304
 20
240.731
 30
0.000000
  70
    32
  0
VERTEX
  8
0
  5
B5B
 10
350.076
 20
239.536
 30
0.000000
  70
    32
  0
VERTEX
  8
0
  5
B5C
 10
349.879
 20
238.170
 30
0.000000
  70
    32
  0
VERTEX
  8
0
  5
B5D
 10
349.712
 20
236.643
 30
0.000000
  70
    32
  0
VERTEX
  8
0
  5
B5E
 10
349.574
 20
234.964
 30
0.000000
  70
    32
  0
VERTEX
  8
0
  5
B5F
 10
349.462
 20
233.143
 30
0.000000
  70
    32
  0
VERTEX
  8
0
  5
B60
 10
349.376
 20
231.191
 30
0.000000
  70
    32
  0
VERTEX
  8
0
  5
B61
 10
349.315
 20
229.117
 30
0.000000
  70
    32
  0
VERTEX
  8
0
  5
B62
 10
349.277
 20
226.932
 30
0.000000
  70
    32
  0
VERTEX
  8
0
  5
B63
 10
349.262
 20
224.645
 30
0.000000
  70
    32
  0
VERTEX
  8
0
  5
B64
 10
349.266
 20
222.266
 30
0.000000
  70
    32
  0
VERTEX
  8
0
  5
B65
 10
349.291
 20
219.805
 30
0.000000
  70
    32
  0
VERTEX
  8
0
  5
B66
 10
349.333
 20
217.272
 30
0.000000
  70
    32
  0
VERTEX
  8
0
  5
B67
 10
349.392
 20
214.677
 30
0.000000
  70
    32
  0
VERTEX
  8
0
  5
B68
 10
349.467
 20
212.030
 30
0.000000
  70
    32
  0
VERTEX
  8
0
  5
B69
 10
349.556
 20
209.341
 30
0.000000
  70
    32
  0
VERTEX
  8
0
  5
B6A
 10
349.658
 20
206.619
 30
0.000000
  70
    32
  0
VERTEX
  8
0
  5
B6B
 10
349.771
 20
203.876
 30
0.000000
  70
    32
  0
VERTEX
  8
0
  5
B6C
 10
349.895
 20
201.120
 30
0.000000
  70
    32
  0
VERTEX
  8
0
  5
B6D
 10
350.029
 20
198.361
 30
0.000000
  70
    32
  0
VERTEX
  8
0
  5
B6E
 10
350.171
 20
195.601
 30
0.000000
  70
    32
  0
VERTEX
  8
0
  5
B6F
 10
350.321
 20
192.842
 30
0.000000
  70
    32
  0
VERTEX
  8
0
  5
B70
 10
350.481
 20
190.084
 30
0.000000
  70
    32
  0
VERTEX
  8
0
  5
B71
 10
350.649
 20
187.326
 30
0.000000
  70
    32
  0
VERTEX
  8
0
  5
B72
 10
350.825
 20
184.571
 30
0.000000
  70
    32
  0
VERTEX
  8
0
  5
B73
 10
351.010
 20
181.818
 30
0.000000
  70
    32
  0
VERTEX
  8
0
  5
B74
 10
351.204
 20
179.067
 30
0.000000
  70
    32
  0
VERTEX
  8
0
  5
B75
 10
351.405
 20
176.320
 30
0.000000
  70
    32
  0
VERTEX
  8
0
  5
B76
 10
351.615
 20
173.576
 30
0.000000
  70
    32
  0
VERTEX
  8
0
  5
B77
 10
351.834
 20
170.836
 30
0.000000
  70
    32
  0
VERTEX
  8
0
  5
B78
 10
352.060
 20
168.101
 30
0.000000
  70
    32
  0
VERTEX
  8
0
  5
B79
 10
352.295
 20
165.371
 30
0.000000
  70
    32
  0
VERTEX
  8
0
  5
B7A
 10
352.537
 20
162.647
 30
0.000000
  70
    32
  0
VERTEX
  8
0
  5
B7B
 10
352.788
 20
159.929
 30
0.000000
  70
    32
  0
VERTEX
  8
0
  5
B7C
 10
353.046
 20
157.218
 30
0.000000
  70
    32
  0
VERTEX
  8
0
  5
B7D
 10
353.312
 20
154.513
 30
0.000000
  70
    32
  0
VERTEX
  8
0
  5
B7E
 10
353.586
 20
151.816
 30
0.000000
  70
    32
  0
VERTEX
  8
0
  5
B7F
 10
353.868
 20
149.127
 30
0.000000
  70
    32
  0
VERTEX
  8
0
  5
B80
 10
354.157
 20
146.447
 30
0.000000
  70
    32
  0
VERTEX
  8
0
  5
B81
 10
354.454
 20
143.776
 30
0.000000
  70
    32
  0
VERTEX
  8
0
  5
B82
 10
354.758
 20
141.114
 30
0.000000
  70
    32
  0
VERTEX
  8
0
  5
B83
 10
355.069
 20
138.462
 30
0.000000
  70
    32
  0
VERTEX
  8
0
  5
B84
 10
355.388
 20
135.821
 30
0.000000
  70
    32
  0
VERTEX
  8
0
  5
B85
 10
355.715
 20
133.190
 30
0.000000
  70
    32
  0
VERTEX
  8
0
  5
B86
 10
356.048
 20
130.571
 30
0.000000
  70
    32
  0
VERTEX
  8
0
  5
B87
 10
356.389
 20
127.964
 30
0.000000
  70
    32
  0
VERTEX
  8
0
  5
B88
 10
356.737
 20
125.370
 30
0.000000
  70
    32
  0
VERTEX
  8
0
  5
B89
 10
357.092
 20
122.788
 30
0.000000
  70
    32
  0
VERTEX
  8
0
  5
B8A
 10
357.453
 20
120.220
 30
0.000000
  70
    32
  0
VERTEX
  8
0
  5
B8B
 10
357.822
 20
117.665
 30
0.000000
  70
    32
  0
VERTEX
  8
0
  5
B8C
 10
358.198
 20
115.125
 30
0.000000
  70
    32
  0
VERTEX
  8
0
  5
B8D
 10
358.580
 20
112.600
 30
0.000000
  70
    32
  0
VERTEX
  8
0
  5
B8E
 10
358.969
 20
110.090
 30
0.000000
  70
    32
  0
VERTEX
  8
0
  5
B8F
 10
359.365
 20
107.596
 30
0.000000
  70
    32
  0
VERTEX
  8
0
  5
B90
 10
359.767
 20
105.119
 30
0.000000
  70
    32
  0
VERTEX
  8
0
  5
B91
 10
360.175
 20
102.658
 30
0.000000
  70
    32
  0
VERTEX
  8
0
  5
B92
 10
360.591
 20
100.214
 30
0.000000
  70
    32
  0
VERTEX
  8
0
  5
B93
 10
361.012
 20
97.7887
 30
0.000000
  70
    32
  0
VERTEX
  8
0
  5
B94
 10
361.440
 20
95.3811
 30
0.000000
  70
    32
  0
VERTEX
  8
0
  5
B95
 10
361.874
 20
92.9924
 30
0.000000
  70
    32
  0
VERTEX
  8
0
  5
B96
 10
362.314
 20
90.6229
 30
0.000000
  70
    32
  0
VERTEX
  8
0
  5
B97
 10
362.760
 20
88.2731
 30
0.000000
  70
    32
  0
VERTEX
  8
0
  5
B98
 10
363.213
 20
85.9435
 30
0.000000
  70
    32
  0
VERTEX
  8
0
  5
B99
 10
363.671
 20
83.6346
 30
0.000000
  70
    32
  0
VERTEX
  8
0
  5
B9A
 10
364.135
 20
81.3469
 30
0.000000
  70
    32
  0
VERTEX
  8
0
  5
B9B
 10
364.605
 20
79.0809
 30
0.000000
  70
    32
  0
VERTEX
  8
0
  5
B9C
 10
365.081
 20
76.8371
 30
0.000000
  70
    32
  0
VERTEX
  8
0
  5
B9D
 10
365.563
 20
74.6159
 30
0.000000
  70
    32
  0
VERTEX
  8
0
  5
B9E
 10
366.050
 20
72.4178
 30
0.000000
  70
    32
  0
VERTEX
  8
0
  5
B9F
 10
366.543
 20
70.2433
 30
0.000000
  70
    32
  0
VERTEX
  8
0
  5
BA0
 10
367.041
 20
68.0930
 30
0.000000
  70
    32
  0
VERTEX
  8
0
  5
BA1
 10
367.545
 20
65.9672
 30
0.000000
  70
    32
  0
VERTEX
  8
0
  5
BA2
 10
368.054
 20
63.8666
 30
0.000000
  70
    32
  0
VERTEX
  8
0
  5
BA3
 10
368.569
 20
61.7915
 30
0.000000
  70
    32
  0
VERTEX
  8
0
  5
BA4
 10
369.088
 20
59.7424
 30
0.000000
  70
    32
  0
VERTEX
  8
0
  5
BA5
 10
369.613
 20
57.7199
 30
0.000000
  70
    32
  0
VERTEX
  8
0
  5
BA6
 10
370.143
 20
55.7244
 30
0.000000
  70
    32
  0
VERTEX
  8
0
  5
BA7
 10
370.678
 20
53.7565
 30
0.000000
  70
    32
  0
VERTEX
  8
0
  5
BA8
 10
371.218
 20
51.8165
 30
0.000000
  70
    32
  0
VERTEX
  8
0
  5
BA9
 10
371.763
 20
49.9051
 30
0.000000
  70
    32
  0
VERTEX
  8
0
  5
BAA
 10
372.313
 20
48.0226
 30
0.000000
  70
    32
  0
VERTEX
  8
0
  5
BAB
 10
372.868
 20
46.1695
 30
0.000000
  70
    32
  0
VERTEX
  8
0
  5
BAC
 10
373.427
 20
44.3464
 30
0.000000
  70
    32
  0
VERTEX
  8
0
  5
BAD
 10
373.991
 20
42.5538
 30
0.000000
  70
    32
  0
VERTEX
  8
0
  5
BAE
 10
374.560
 20
40.7921
 30
0.000000
  70
    32
  0
VERTEX
  8
0
  5
BAF
 10
375.133
 20
39.0618
 30
0.000000
  70
    32
  0
VERTEX
  8
0
  5
BB0
 10
375.710
 20
37.3633
 30
0.000000
  70
    32
  0
VERTEX
  8
0
  5
BB1
 10
376.292
 20
35.6973
 30
0.000000
  70
    32
  0
VERTEX
  8
0
  5
BB2
 10
376.879
 20
34.0641
 30
0.000000
  70
    32
  0
VERTEX
  8
0
  5
BB3
 10
377.469
 20
32.4643
 30
0.000000
  70
    32
  0
VERTEX
  8
0
  5
BB4
 10
378.064
 20
30.8984
 30
0.000000
  70
    32
  0
VERTEX
  8
0
  5
BB5
 10
378.663
 20
29.3667
 30
0.000000
  70
    32
  0
VERTEX
  8
0
  5
BB6
 10
379.266
 20
27.8699
 30
0.000000
  70
    32
  0
VERTEX
  8
0
  5
BB7
 10
379.873
 20
26.4084
 30
0.000000
  70
    32
  0
VERTEX
  8
0
  5
BB8
 10
380.484
 20
24.9827
 30
0.000000
  70
    32
  0
VERTEX
  8
0
  5
BB9
 10
381.098
 20
23.5932
 30
0.000000
  70
    32
  0
VERTEX
  8
0
  5
BBA
 10
381.717
 20
22.2405
 30
0.000000
  70
    32
  0
VERTEX
  8
0
  5
BBB
 10
382.339
 20
20.9251
 30
0.000000
  70
    32
  0
VERTEX
  8
0
  5
BBC
 10
382.965
 20
19.6474
 30
0.000000
  70
    32
  0
VERTEX
  8
0
  5
BBD
 10
383.595
 20
18.4079
 30
0.000000
  70
    32
  0
VERTEX
  8
0
  5
BBE
 10
384.228
 20
17.2072
 30
0.000000
  70
    32
  0
VERTEX
  8
0
  5
BBF
 10
384.865
 20
16.0456
 30
0.000000
  70
    32
  0
VERTEX
  8
0
  5
BC0
 10
385.505
 20
14.9237
 30
0.000000
  70
    32
  0
VERTEX
  8
0
  5
BC1
 10
386.148
 20
13.8420
 30
0.000000
  70
    32
  0
VERTEX
  8
0
  5
BC2
 10
386.794
 20
12.8010
 30
0.000000
  70
    32
  0
VERTEX
  8
0
  5
BC3
 10
387.444
 20
11.8011
 30
0.000000
  70
    32
  0
VERTEX
  8
0
  5
BC4
 10
388.097
 20
10.8428
 30
0.000000
  70
    32
  0
VERTEX
  8
0
  5
BC5
 10
388.753
 20
9.92664
 30
0.000000
  70
    32
  0
VERTEX
  8
0
  5
BC6
 10
389.412
 20
9.05310
 30
0.000000
  70
    32
  0
VERTEX
  8
0
  5
BC7
 10
390.074
 20
8.22264
 30
0.000000
  70
    32
  0
VERTEX
  8
0
  5
BC8
 10
390.739
 20
7.43577
 30
0.000000
  70
    32
  0
VERTEX
  8
0
  5
BC9
 10
391.407
 20
6.69296
 30
0.000000
  70
    32
  0
VERTEX
  8
0
  5
BCA
 10
392.077
 20
5.99471
 30
0.000000
  70
    32
  0
VERTEX
  8
0
  5
BCB
 10
392.751
 20
5.34149
 30
0.000000
  70
    32
  0
VERTEX
  8
0
  5
BCC
 10
393.426
 20
4.73380
 30
0.000000
  70
    32
  0
VERTEX
  8
0
  5
BCD
 10
394.105
 20
4.17212
 30
0.000000
  70
    32
  0
VERTEX
  8
0
  5
BCE
 10
394.785
 20
3.65694
 30
0.000000
  70
    32
  0
VERTEX
  8
0
  5
BCF
 10
395.469
 20
3.18875
 30
0.000000
  70
    32
  0
VERTEX
  8
0
  5
BD0
 10
396.154
 20
2.76803
 30
0.000000
  70
    32
  0
VERTEX
  8
0
  5
BD1
 10
396.842
 20
2.39528
 30
0.000000
  70
    32
  0
VERTEX
  8
0
  5
BD2
 10
397.532
 20
2.07097
 30
0.000000
  70
    32
  0
VERTEX
  8
0
  5
BD3
 10
398.224
 20
1.79559
 30
0.000000
  70
    32
  0
VERTEX
  8
0
  5
BD4
 10
398.919
 20
1.56963
 30
0.000000
  70
    32
  0
VERTEX
  8
0
  5
BD5
 10
399.615
 20
1.39358
 30
0.000000
  70
    32
  0
VERTEX
  8
0
  5
BD6
 10
400.313
 20
1.26793
 30
0.000000
  70
    32
  0
VERTEX
  8
0
  5
BD7
 10
401.014
 20
1.19315
 30
0.000000
  70
    32
  0
VERTEX
  8
0
  5
BD8
 10
401.716
 20
1.16975
 30
0.000000
  70
    32
  0
VERTEX
  8
0
  5
BD9
 10
402.419
 20
1.19819
 30
0.000000
  70
    32
  0
VERTEX
  8
0
  5
BDA
 10
403.125
 20
1.27884
 30
0.000000
  70
    32
  0
VERTEX
  8
0
  5
BDB
 10
403.832
 20
1.41137
 30
0.000000
  70
    32
  0
VERTEX
  8
0
  5
BDC
 10
404.540
 20
1.59526
 30
0.000000
  70
    32
  0
VERTEX
  8
0
  5
BDD
 10
405.250
 20
1.83000
 30
0.000000
  70
    32
  0
VERTEX
  8
0
  5
BDE
 10
405.960
 20
2.11508
 30
0.000000
  70
    32
  0
VERTEX
  8
0
  5
BDF
 10
406.671
 20
2.44999
 30
0.000000
  70
    32
  0
VERTEX
  8
0
  5
BE0
 10
407.383
 20
2.83421
 30
0.000000
  70
    32
  0
VERTEX
  8
0
  5
BE1
 10
408.095
 20
3.26722
 30
0.000000
  70
    32
  0
VERTEX
  8
0
  5
BE2
 10
408.808
 20
3.74852
 30
0.000000
  70
    32
  0
VERTEX
  8
0
  5
BE3
 10
409.520
 20
4.27759
 30
0.000000
  70
    32
  0
VERTEX
  8
0
  5
BE4
 10
410.232
 20
4.85392
 30
0.000000
  70
    32
  0
VERTEX
  8
0
  5
BE5
 10
410.944
 20
5.47700
 30
0.000000
  70
    32
  0
VERTEX
  8
0
  5
BE6
 10
411.656
 20
6.14630
 30
0.000000
  70
    32
  0
VERTEX
  8
0
  5
BE7
 10
412.367
 20
6.86132
 30
0.000000
  70
    32
  0
VERTEX
  8
0
  5
BE8
 10
413.076
 20
7.62154
 30
0.000000
  70
    32
  0
VERTEX
  8
0
  5
BE9
 10
413.785
 20
8.42645
 30
0.000000
  70
    32
  0
VERTEX
  8
0
  5
BEA
 10
414.493
 20
9.27554
 30
0.000000
  70
    32
  0
VERTEX
  8
0
  5
BEB
 10
415.199
 20
10.1683
 30
0.000000
  70
    32
  0
VERTEX
  8
0
  5
BEC
 10
415.903
 20
11.1042
 30
0.000000
  70
    32
  0
VERTEX
  8
0
  5
BED
 10
416.605
 20
12.0827
 30
0.000000
  70
    32
  0
VERTEX
  8
0
  5
BEE
 10
417.306
 20
13.1034
 30
0.000000
  70
    32
  0
VERTEX
  8
0
  5
BEF
 10
418.004
 20
14.1656
 30
0.000000
  70
    32
  0
VERTEX
  8
0
  5
BF0
 10
418.700
 20
15.2690
 30
0.000000
  70
    32
  0
VERTEX
  8
0
  5
BF1
 10
419.394
 20
16.4129
 30
0.000000
  70
    32
  0
VERTEX
  8
0
  5
BF2
 10
420.084
 20
17.5969
 30
0.000000
  70
    32
  0
VERTEX
  8
0
  5
BF3
 10
420.772
 20
18.8205
 30
0.000000
  70
    32
  0
VERTEX
  8
0
  5
BF4
 10
421.456
 20
20.0831
 30
0.000000
  70
    32
  0
VERTEX
  8
0
  5
BF5
 10
422.138
 20
21.3842
 30
0.000000
  70
    32
  0
VERTEX
  8
0
  5
BF6
 10
422.815
 20
22.7234
 30
0.000000
  70
    32
  0
VERTEX
  8
0
  5
BF7
 10
423.489
 20
24.1000
 30
0.000000
  70
    32
  0
VERTEX
  8
0
  5
BF8
 10
424.160
 20
25.5137
 30
0.000000
  70
    32
  0
VERTEX
  8
0
  5
BF9
 10
424.826
 20
26.9638
 30
0.000000
  70
    32
  0
VERTEX
  8
0
  5
BFA
 10
425.488
 20
28.4498
 30
0.000000
  70
    32
  0
VERTEX
  8
0
  5
BFB
 10
426.145
 20
29.9713
 30
0.000000
  70
    32
  0
VERTEX
  8
0
  5
BFC
 10
426.798
 20
31.5278
 30
0.000000
  70
    32
  0
VERTEX
  8
0
  5
BFD
 10
427.446
 20
33.1186
 30
0.000000
  70
    32
  0
VERTEX
  8
0
  5
BFE
 10
428.089
 20
34.7434
 30
0.000000
  70
    32
  0
VERTEX
  8
0
  5
BFF
 10
428.727
 20
36.4015
 30
0.000000
  70
    32
  0
VERTEX
  8
0
  5
C00
 10
429.360
 20
38.0926
 30
0.000000
  70
    32
  0
VERTEX
  8
0
  5
C01
 10
429.987
 20
39.8160
 30
0.000000
  70
    32
  0
VERTEX
  8
0
  5
C02
 10
430.608
 20
41.5712
 30
0.000000
  70
    32
  0
VERTEX
  8
0
  5
C03
 10
431.223
 20
43.3578
 30
0.000000
  70
    32
  0
VERTEX
  8
0
  5
C04
 10
431.833
 20
45.1752
 30
0.000000
  70
    32
  0
VERTEX
  8
0
  5
C05
 10
432.436
 20
47.0229
 30
0.000000
  70
    32
  0
VERTEX
  8
0
  5
C06
 10
433.032
 20
48.9005
 30
0.000000
  70
    32
  0
VERTEX
  8
0
  5
C07
 10
433.622
 20
50.8073
 30
0.000000
  70
    32
  0
VERTEX
  8
0
  5
C08
 10
434.205
 20
52.7428
 30
0.000000
  70
    32
  0
VERTEX
  8
0
  5
C09
 10
434.781
 20
54.7066
 30
0.000000
  70
    32
  0
VERTEX
  8
0
  5
C0A
 10
435.350
 20
56.6982
 30
0.000000
  70
    32
  0
VERTEX
  8
0
  5
C0B
 10
435.911
 20
58.7170
 30
0.000000
  70
    32
  0
VERTEX
  8
0
  5
C0C
 10
436.465
 20
60.7625
 30
0.000000
  70
    32
  0
VERTEX
  8
0
  5
C0D
 10
437.011
 20
62.8342
 30
0.000000
  70
    32
  0
VERTEX
  8
0
  5
C0E
 10
437.549
 20
64.9316
 30
0.000000
  70
    32
  0
VERTEX
  8
0
  5
C0F
 10
438.079
 20
67.0542
 30
0.000000
  70
    32
  0
VERTEX
  8
0
  5
C10
 10
438.601
 20
69.2015
 30
0.000000
  70
    32
  0
VERTEX
  8
0
  5
C11
 10
439.114
 20
71.3728
 30
0.000000
  70
    32
  0
VERTEX
  8
0
  5
C12
 10
439.618
 20
73.5679
 30
0.000000
  70
    32
  0
VERTEX
  8
0
  5
C13
 10
440.114
 20
75.7860
 30
0.000000
  70
    32
  0
VERTEX
  8
0
  5
C14
 10
440.600
 20
78.0268
 30
0.000000
  70
    32
  0
VERTEX
  8
0
  5
C15
 10
441.078
 20
80.2896
 30
0.000000
  70
    32
  0
VERTEX
  8
0
  5
C16
 10
441.545
 20
82.5740
 30
0.000000
  70
    32
  0
VERTEX
  8
0
  5
C17
 10
442.004
 20
84.8795
 30
0.000000
  70
    32
  0
VERTEX
  8
0
  5
C18
 10
442.452
 20
87.2056
 30
0.000000
  70
    32
  0
VERTEX
  8
0
  5
C19
 10
442.890
 20
89.5516
 30
0.000000
  70
    32
  0
VERTEX
  8
0
  5
C1A
 10
443.318
 20
91.9172
 30
0.000000
  70
    32
  0
VERTEX
  8
0
  5
C1B
 10
443.736
 20
94.3019
 30
0.000000
  70
    32
  0
VERTEX
  8
0
  5
C1C
 10
444.143
 20
96.7050
 30
0.000000
  70
    32
  0
VERTEX
  8
0
  5
C1D
 10
444.540
 20
99.1261
 30
0.000000
  70
    32
  0
VERTEX
  8
0
  5
C1E
 10
444.925
 20
101.565
 30
0.000000
  70
    32
  0
VERTEX
  8
0
  5
C1F
 10
445.300
 20
104.020
 30
0.000000
  70
    32
  0
VERTEX
  8
0
  5
C20
 10
445.663
 20
106.492
 30
0.000000
  70
    32
  0
VERTEX
  8
0
  5
C21
 10
446.015
 20
108.980
 30
0.000000
  70
    32
  0
VERTEX
  8
0
  5
C22
 10
446.355
 20
111.483
 30
0.000000
  70
    32
  0
VERTEX
  8
0
  5
C23
 10
446.683
 20
114.002
 30
0.000000
  70
    32
  0
VERTEX
  8
0
  5
C24
 10
446.999
 20
116.534
 30
0.000000
  70
    32
  0
VERTEX
  8
0
  5
C25
 10
447.303
 20
119.081
 30
0.000000
  70
    32
  0
VERTEX
  8
0
  5
C26
 10
447.594
 20
121.641
 30
0.000000
  70
    32
  0
VERTEX
  8
0
  5
C27
 10
447.873
 20
124.213
 30
0.000000
  70
    32
  0
VERTEX
  8
0
  5
C28
 10
448.139
 20
126.798
 30
0.000000
  70
    32
  0
VERTEX
  8
0
  5
C29
 10
448.393
 20
129.395
 30
0.000000
  70
    32
  0
VERTEX
  8
0
  5
C2A
 10
448.633
 20
132.003
 30
0.000000
  70
    32
  0
VERTEX
  8
0
  5
C2B
 10
448.859
 20
134.622
 30
0.000000
  70
    32
  0
VERTEX
  8
0
  5
C2C
 10
449.072
 20
137.252
 30
0.000000
  70
    32
  0
VERTEX
  8
0
  5
C2D
 10
449.272
 20
139.891
 30
0.000000
  70
    32
  0
VERTEX
  8
0
  5
C2E
 10
449.457
 20
142.539
 30
0.000000
  70
    32
  0
VERTEX
  8
0
  5
C2F
 10
449.629
 20
145.196
 30
0.000000
  70
    32
  0
VERTEX
  8
0
  5
C30
 10
449.786
 20
147.861
 30
0.000000
  70
    32
  0
VERTEX
  8
0
  5
C31
 10
449.929
 20
150.534
 30
0.000000
  70
    32
  0
VERTEX
  8
0
  5
C32
 10
450.057
 20
153.214
 30
0.000000
  70
    32
  0
VERTEX
  8
0
  5
C33
 10
450.170
 20
155.901
 30
0.000000
  70
    32
  0
VERTEX
  8
0
  5
C34
 10
450.268
 20
158.594
 30
0.000000
  70
    32
  0
VERTEX
  8
0
  5
C35
 10
450.351
 20
161.293
 30
0.000000
  70
    32
  0
VERTEX
  8
0
  5
C36
 10
450.419
 20
163.997
 30
0.000000
  70
    32
  0
VERTEX
  8
0
  5
C37
 10
450.471
 20
166.705
 30
0.000000
  70
    32
  0
VERTEX
  8
0
  5
C38
 10
450.507
 20
169.418
 30
0.000000
  70
    32
  0
VERTEX
  8
0
  5
C39
 10
450.528
 20
172.134
 30
0.000000
  70
    32
  0
VERTEX
  8
0
  5
C3A
 10
450.532
 20
174.853
 30
0.000000
  70
    32
  0
VERTEX
  8
0
  5
C3B
 10
450.520
 20
177.575
 30
0.000000
  70
    32
  0
VERTEX
  8
0
  5
C3C
 10
450.491
 20
180.299
 30
0.000000
  70
    32
  0
VERTEX
  8
0
  5
C3D
 10
450.446
 20
183.025
 30
0.000000
  70
    32
  0
VERTEX
  8
0
  5
C3E
 10
450.384
 20
185.751
 30
0.000000
  70
    32
  0
VERTEX
  8
0
  5
C3F
 10
450.305
 20
188.478
 30
0.000000
  70
    32
  0
VERTEX
  8
0
  5
C40
 10
450.209
 20
191.202
 30
0.000000
  70
    32
  0
VERTEX
  8
0
  5
C41
 10
450.096
 20
193.914
 30
0.000000
  70
    32
  0
VERTEX
  8
0
  5
C42
 10
449.968
 20
196.603
 30
0.000000
  70
    32
  0
VERTEX
  8
0
  5
C43
 10
449.825
 20
199.259
 30
0.000000
  70
    32
  0
VERTEX
  8
0
  5
C44
 10
449.668
 20
201.873
 30
0.000000
  70
    32
  0
VERTEX
  8
0
  5
C45
 10
449.498
 20
204.433
 30
0.000000
  70
    32
  0
VERTEX
  8
0
  5
C46
 10
449.314
 20
206.931
 30
0.000000
  70
    32
  0
VERTEX
  8
0
  5
C47
 10
449.118
 20
209.355
 30
0.000000
  70
    32
  0
VERTEX
  8
0
  5
C48
 10
448.911
 20
211.696
 30
0.000000
  70
    32
  0
VERTEX
  8
0
  5
C49
 10
448.694
 20
213.944
 30
0.000000
  70
    32
  0
VERTEX
  8
0
  5
C4A
 10
448.466
 20
216.088
 30
0.000000
  70
    32
  0
VERTEX
  8
0
  5
C4B
 10
448.229
 20
218.119
 30
0.000000
  70
    32
  0
VERTEX
  8
0
  5
C4C
 10
447.983
 20
220.026
 30
0.000000
  70
    32
  0
VERTEX
  8
0
  5
C4D
 10
447.730
 20
221.799
 30
0.000000
  70
    32
  0
VERTEX
  8
0
  5
C4E
 10
447.469
 20
223.428
 30
0.000000
  70
    32
  0
VERTEX
  8
0
  5
C4F
 10
447.202
 20
224.903
 30
0.000000
  70
    32
  0
VERTEX
  8
0
  5
C50
 10
446.929
 20
226.213
 30
0.000000
  70
    32
  0
VERTEX
  8
0
  5
C51
 10
446.651
 20
227.350
 30
0.000000
  70
    32
  0
VERTEX
  8
0
  5
C52
 10
446.369
 20
228.302
 30
0.000000
  70
    32
  0
VERTEX
  8
0
  5
C53
 10
446.083
 20
229.059
 30
0.000000
  70
    32
  0
VERTEX
  8
0
  5
C54
 10
445.794
 20
229.611
 30
0.000000
  70
    32
  0
VERTEX
  8
0
  5
C55
 10
445.502
 20
229.949
 30
0.000000
  70
    32
  0
VERTEX
  8
0
  5
C56
 10
445.209
 20
230.064
 30
0.000000
  70
    32
  0
VERTEX
  8
0
  5
C57
 10
444.915
 20
229.959
 30
0.000000
  70
    32
  0
VERTEX
  8
0
  5
C58
 10
444.620
 20
229.642
 30
0.000000
  70
    32
  0
VERTEX
  8
0
  5
C59
 10
444.324
 20
229.123
 30
0.000000
  70
    32
  0
VERTEX
  8
0
  5
C5A
 10
444.028
 20
228.408
 30
0.000000
  70
    32
  0
VERTEX
  8
0
  5
C5B
 10
443.732
 20
227.508
 30
0.000000
  70
    32
  0
VERTEX
  8
0
  5
C5C
 10
443.435
 20
226.429
 30
0.000000
  70
    32
  0
VERTEX
  8
0
  5
C5D
 10
443.139
 20
225.180
 30
0.000000
  70
    32
  0
VERTEX
  8
0
  5
C5E
 10
442.843
 20
223.770
 30
0.000000
  70
    32
  0
VERTEX
  8
0
  5
C5F
 10
442.549
 20
222.207
 30
0.000000
  70
    32
  0
VERTEX
  8
0
  5
C60
 10
442.255
 20
220.499
 30
0.000000
  70
    32
  0
VERTEX
  8
0
  5
C61
 10
441.963
 20
218.655
 30
0.000000
  70
    32
  0
VERTEX
  8
0
  5
C62
 10
441.672
 20
216.682
 30
0.000000
  70
    32
  0
VERTEX
  8
0
  5
C63
 10
441.384
 20
214.589
 30
0.000000
  70
    32
  0
VERTEX
  8
0
  5
C64
 10
441.097
 20
212.385
 30
0.000000
  70
    32
  0
VERTEX
  8
0
  5
C65
 10
440.813
 20
210.078
 30
0.000000
  70
    32
  0
VERTEX
  8
0
  5
C66
 10
440.531
 20
207.675
 30
0.000000
  70
    32
  0
VERTEX
  8
0
  5
C67
 10
440.253
 20
205.186
 30
0.000000
  70
    32
  0
VERTEX
  8
0
  5
C68
 10
439.977
 20
202.619
 30
0.000000
  70
    32
  0
VERTEX
  8
0
  5
C69
 10
439.705
 20
199.982
 30
0.000000
  70
    32
  0
VERTEX
  8
0
  5
C6A
 10
439.437
 20
197.283
 30
0.000000
  70
    32
  0
VERTEX
  8
0
  5
C6B
 10
439.173
 20
194.530
 30
0.000000
  70
    32
  0
VERTEX
  8
0
  5
C6C
 10
438.913
 20
191.733
 30
0.000000
  70
    32
  0
VERTEX
  8
0
  5
C6D
 10
438.657
 20
188.899
 30
0.000000
  70
    32
  0
VERTEX
  8
0
  5
C6E
 10
438.406
 20
186.036
 30
0.000000
  70
    32
  0
VERTEX
  8
0
  5
C6F
 10
438.160
 20
183.153
 30
0.000000
  70
    32
  0
VERTEX
  8
0
  5
C70
 10
437.920
 20
180.259
 30
0.000000
  70
    32
  0
VERTEX
  8
0
  5
C71
 10
437.685
 20
177.361
 30
0.000000
  70
    32
  0
VERTEX
  8
0
  5
C72
 10
437.455
 20
174.464
 30
0.000000
  70
    32
  0
VERTEX
  8
0
  5
C73
 10
437.232
 20
171.569
 30
0.000000
  70
    32
  0
VERTEX
  8
0
  5
C74
 10
437.015
 20
168.677
 30
0.000000
  70
    32
  0
VERTEX
  8
0
  5
C75
 10
436.804
 20
165.788
 30
0.000000
  70
    32
  0
VERTEX
  8
0
  5
C76
 10
436.600
 20
162.904
 30
0.000000
  70
    32
  0
VERTEX
  8
0
  5
C77
 10
436.402
 20
160.023
 30
0.000000
  70
    32
  0
VERTEX
  8
0
  5
C78
 10
436.212
 20
157.149
 30
0.000000
  70
    32
  0
VERTEX
  8
0
  5
C79
 10
436.028
 20
154.280
 30
0.000000
  70
    32
  0
VERTEX
  8
0
  5
C7A
 10
435.853
 20
151.419
 30
0.000000
  70
    32
  0
VERTEX
  8
0
  5
C7B
 10
435.684
 20
148.565
 30
0.000000
  70
    32
  0
VERTEX
  8
0
  5
C7C
 10
435.524
 20
145.719
 30
0.000000
  70
    32
  0
VERTEX
  8
0
  5
C7D
 10
435.372
 20
142.882
 30
0.000000
  70
    32
  0
VERTEX
  8
0
  5
C7E
 10
435.227
 20
140.054
 30
0.000000
  70
    32
  0
VERTEX
  8
0
  5
C7F
 10
435.092
 20
137.237
 30
0.000000
  70
    32
  0
VERTEX
  8
0
  5
C80
 10
434.965
 20
134.430
 30
0.000000
  70
    32
  0
VERTEX
  8
0
  5
C81
 10
434.847
 20
131.636
 30
0.000000
  70
    32
  0
VERTEX
  8
0
  5
C82
 10
434.738
 20
128.853
 30
0.000000
  70
    32
  0
VERTEX
  8
0
  5
C83
 10
434.638
 20
126.084
 30
0.000000
  70
    32
  0
VERTEX
  8
0
  5
C84
 10
434.547
 20
123.328
 30
0.000000
  70
    32
  0
VERTEX
  8
0
  5
C85
 10
434.467
 20
120.587
 30
0.000000
  70
    32
  0
VERTEX
  8
0
  5
C86
 10
434.396
 20
117.861
 30
0.000000
  70
    32
  0
VERTEX
  8
0
  5
C87
 10
434.335
 20
115.150
 30
0.000000
  70
    32
  0
VERTEX
  8
0
  5
C88
 10
434.285
 20
112.456
 30
0.000000
  70
    32
  0
VERTEX
  8
0
  5
C89
 10
434.245
 20
109.780
 30
0.000000
  70
    32
  0
VERTEX
  8
0
  5
C8A
 10
434.216
 20
107.120
 30
0.000000
  70
    32
  0
VERTEX
  8
0
  5
C8B
 10
434.198
 20
104.480
 30
0.000000
  70
    32
  0
VERTEX
  8
0
  5
C8C
 10
434.191
 20
101.859
 30
0.000000
  70
    32
  0
VERTEX
  8
0
  5
C8D
 10
434.196
 20
99.2571
 30
0.000000
  70
    32
  0
VERTEX
  8
0
  5
C8E
 10
434.212
 20
96.6762
 30
0.000000
  70
    32
  0
VERTEX
  8
0
  5
C8F
 10
434.239
 20
94.1166
 30
0.000000
  70
    32
  0
VERTEX
  8
0
  5
C90
 10
434.279
 20
91.5789
 30
0.000000
  70
    32
  0
VERTEX
  8
0
  5
C91
 10
434.331
 20
89.0639
 30
0.000000
  70
    32
  0
VERTEX
  8
0
  5
C92
 10
434.395
 20
86.5722
 30
0.000000
  70
    32
  0
VERTEX
  8
0
  5
C93
 10
434.472
 20
84.1046
 30
0.000000
  70
    32
  0
VERTEX
  8
0
  5
C94
 10
434.562
 20
81.6616
 30
0.000000
  70
    32
  0
VERTEX
  8
0
  5
C95
 10
434.665
 20
79.2440
 30
0.000000
  70
    32
  0
VERTEX
  8
0
  5
C96
 10
434.781
 20
76.8525
 30
0.000000
  70
    32
  0
VERTEX
  8
0
  5
C97
 10
434.910
 20
74.4878
 30
0.000000
  70
    32
  0
VERTEX
  8
0
  5
C98
 10
435.053
 20
72.1505
 30
0.000000
  70
    32
  0
VERTEX
  8
0
  5
C99
 10
435.210
 20
69.8414
 30
0.000000
  70
    32
  0
VERTEX
  8
0
  5
C9A
 10
435.381
 20
67.5611
 30
0.000000
  70
    32
  0
VERTEX
  8
0
  5
C9B
 10
435.566
 20
65.3104
 30
0.000000
  70
    32
  0
VERTEX
  8
0
  5
C9C
 10
435.765
 20
63.0898
 30
0.000000
  70
    32
  0
VERTEX
  8
0
  5
C9D
 10
435.980
 20
60.9002
 30
0.000000
  70
    32
  0
VERTEX
  8
0
  5
C9E
 10
436.209
 20
58.7421
 30
0.000000
  70
    32
  0
VERTEX
  8
0
  5
C9F
 10
436.453
 20
56.6163
 30
0.000000
  70
    32
  0
VERTEX
  8
0
  5
CA0
 10
436.713
 20
54.5235
 30
0.000000
  70
    32
  0
VERTEX
  8
0
  5
CA1
 10
436.988
 20
52.4643
 30
0.000000
  70
    32
  0
VERTEX
  8
0
  5
CA2
 10
437.279
 20
50.4395
 30
0.000000
  70
    32
  0
VERTEX
  8
0
  5
CA3
 10
437.585
 20
48.4497
 30
0.000000
  70
    32
  0
VERTEX
  8
0
  5
CA4
 10
437.908
 20
46.4956
 30
0.000000
  70
    32
  0
VERTEX
  8
0
  5
CA5
 10
438.247
 20
44.5780
 30
0.000000
  70
    32
  0
VERTEX
  8
0
  5
CA6
 10
438.603
 20
42.6974
 30
0.000000
  70
    32
  0
VERTEX
  8
0
  5
CA7
 10
438.975
 20
40.8546
 30
0.000000
  70
    32
  0
VERTEX
  8
0
  5
CA8
 10
439.365
 20
39.0503
 30
0.000000
  70
    32
  0
VERTEX
  8
0
  5
CA9
 10
439.771
 20
37.2851
 30
0.000000
  70
    32
  0
VERTEX
  8
0
  5
CAA
 10
440.195
 20
35.5598
 30
0.000000
  70
    32
  0
VERTEX
  8
0
  5
CAB
 10
440.637
 20
33.8750
 30
0.000000
  70
    32
  0
VERTEX
  8
0
  5
CAC
 10
441.096
 20
32.2314
 30
0.000000
  70
    32
  0
VERTEX
  8
0
  5
CAD
 10
441.573
 20
30.6297
 30
0.000000
  70
    32
  0
VERTEX
  8
0
  5
CAE
 10
442.069
 20
29.0707
 30
0.000000
  70
    32
  0
VERTEX
  8
0
  5
CAF
 10
442.583
 20
27.5549
 30
0.000000
  70
    32
  0
VERTEX
  8
0
  5
CB0
 10
443.115
 20
26.0831
 30
0.000000
  70
    32
  0
VERTEX
  8
0
  5
CB1
 10
443.666
 20
24.6560
 30
0.000000
  70
    32
  0
VERTEX
  8
0
  5
CB2
 10
444.237
 20
23.2742
 30
0.000000
  70
    32
  0
VERTEX
  8
0
  5
CB3
 10
444.826
 20
21.9385
 30
0.000000
  70
    32
  0
VERTEX
  8
0
  5
CB4
 10
445.435
 20
20.6495
 30
0.000000
  70
    32
  0
VERTEX
  8
0
  5
CB5
 10
446.064
 20
19.4079
 30
0.000000
  70
    32
  0
VERTEX
  8
0
  5
CB6
 10
446.713
 20
18.2144
 30
0.000000
  70
    32
  0
VERTEX
  8
0
  5
CB7
 10
447.381
 20
17.0697
 30
0.000000
  70
    32
  0
VERTEX
  8
0
  5
CB8
 10
448.070
 20
15.9745
 30
0.000000
  70
    32
  0
VERTEX
  8
0
  5
CB9
 10
448.779
 20
14.9294
 30
0.000000
  70
    32
  0
VERTEX
  8
0
  5
CBA
 10
449.509
 20
13.9353
 30
0.000000
  70
    32
  0
VERTEX
  8
0
  5
CBB
 10
450.260
 20
12.9926
 30
0.000000
  70
    32
  0
VERTEX
  8
0
  5
CBC
 10
451.032
 20
12.1022
 30
0.000000
  70
    32
  0
VERTEX
  8
0
  5
CBD
 10
451.826
 20
11.2647
 30
0.000000
  70
    32
  0
VERTEX
  8
0
  5
CBE
 10
452.641
 20
10.4809
 30
0.000000
  70
    32
  0
VERTEX
  8
0
  5
CBF
 10
453.477
 20
9.75129
 30
0.000000
  70
    32
  0
VERTEX
  8
0
  5
CC0
 10
454.336
 20
9.07671
 30
0.000000
  70
    32
  0
VERTEX
  8
0
  5
CC1
 10
455.217
 20
8.45780
 30
0.000000
  70
    32
  0
VERTEX
  8
0
  5
CC2
 10
456.120
 20
7.89525
 30
0.000000
  70
    32
  0
VERTEX
  8
0
  5
CC3
 10
457.045
 20
7.38975
 30
0.000000
  70
    32
  0
VERTEX
  8
0
  5
CC4
 10
457.994
 20
6.94200
 30
0.000000
  70
    32
  0
VERTEX
  8
0
  5
CC5
 10
458.965
 20
6.55267
 30
0.000000
  70
    32
  0
VERTEX
  8
0
  5
CC6
 10
459.959
 20
6.22246
 30
0.000000
  70
    32
  0
VERTEX
  8
0
  5
CC7
 10
460.977
 20
5.95206
 30
0.000000
  70
    32
  0
VERTEX
  8
0
  5
CC8
 10
462.019
 20
5.74215
 30
0.000000
  70
    32
  0
VERTEX
  8
0
  5
CC9
 10
463.084
 20
5.59341
 30
0.000000
  70
    32
  0
VERTEX
  8
0
  5
CCA
 10
464.173
 20
5.50655
 30
0.000000
  70
    32
  0
VERTEX
  8
0
  5
CCB
 10
465.287
 20
5.48225
 30
0.000000
  70
    32
  0
VERTEX
  8
0
  5
CCC
 10
466.425
 20
5.52119
 30
0.000000
  70
    32
  0
VERTEX
  8
0
  5
CCD
 10
467.587
 20
5.62406
 30
0.000000
  70
    32
  0
VERTEX
  8
0
  5
CCE
 10
468.775
 20
5.79131
 30
0.000000
  70
    32
  0
VERTEX
  8
0
  5
CCF
 10
469.987
 20
6.02115
 30
0.000000
  70
    32
  0
VERTEX
  8
0
  5
CD0
 10
471.225
 20
6.31059
 30
0.000000
  70
    32
  0
VERTEX
  8
0
  5
CD1
 10
472.490
 20
6.65667
 30
0.000000
  70
    32
  0
VERTEX
  8
0
  5
CD2
 10
473.780
 20
7.05639
 30
0.000000
  70
    32
  0
VERTEX
  8
0
  5
CD3
 10
475.097
 20
7.50677
 30
0.000000
  70
    32
  0
VERTEX
  8
0
  5
CD4
 10
476.441
 20
8.00484
 30
0.000000
  70
    32
  0
VERTEX
  8
0
  5
CD5
 10
477.813
 20
8.54759
 30
0.000000
  70
    32
  0
VERTEX
  8
0
  5
CD6
 10
479.212
 20
9.13206
 30
0.000000
  70
    32
  0
VERTEX
  8
0
  5
CD7
 10
480.639
 20
9.75526
 30
0.000000
  70
    32
  0
VERTEX
  8
0
  5
CD8
 10
482.095
 20
10.4142
 30
0.000000
  70
    32
  0
VERTEX
  8
0
  5
CD9
 10
483.580
 20
11.1059
 30
0.000000
  70
    32
  0
VERTEX
  8
0
  5
CDA
 10
485.095
 20
11.8274
 30
0.000000
  70
    32
  0
VERTEX
  8
0
  5
CDB
 10
486.639
 20
12.5757
 30
0.000000
  70
    32
  0
VERTEX
  8
0
  5
CDC
 10
488.213
 20
13.3478
 30
0.000000
  70
    32
  0
VERTEX
  8
0
  5
CDD
 10
489.817
 20
14.1407
 30
0.000000
  70
    32
  0
VERTEX
  8
0
  5
CDE
 10
491.453
 20
14.9514
 30
0.000000
  70
    32
  0
VERTEX
  8
0
  5
CDF
 10
493.119
 20
15.7771
 30
0.000000
  70
    32
  0
VERTEX
  8
0
  5
CE0
 10
494.817
 20
16.6146
 30
0.000000
  70
    32
  0
VERTEX
  8
0
  5
CE1
 10
496.548
 20
17.4610
 30
0.000000
  70
    32
  0
VERTEX
  8
0
  5
CE2
 10
498.310
 20
18.3133
 30
0.000000
  70
    32
  0
VERTEX
  8
0
  5
CE3
 10
500.105
 20
19.1685
 30
0.000000
  70
    32
  0
VERTEX
  8
0
  5
CE4
 10
501.933
 20
20.0237
 30
0.000000
  70
    32
  0
VERTEX
  8
0
  5
CE5
 10
503.795
 20
20.8759
 30
0.000000
  70
    32
  0
VERTEX
  8
0
  5
CE6
 10
505.690
 20
21.7220
 30
0.000000
  70
    32
  0
VERTEX
  8
0
  5
CE7
 10
507.620
 20
22.5591
 30
0.000000
  70
    32
  0
VERTEX
  8
0
  5
CE8
 10
509.584
 20
23.3842
 30
0.000000
  70
    32
  0
VERTEX
  8
0
  5
CE9
 10
511.584
 20
24.1944
 30
0.000000
  70
    32
  0
VERTEX
  8
0
  5
CEA
 10
513.618
 20
24.9866
 30
0.000000
  70
    32
  0
VERTEX
  8
0
  5
CEB
 10
515.689
 20
25.7579
 30
0.000000
  70
    32
  0
VERTEX
  8
0
  5
CEC
 10
517.795
 20
26.5052
 30
0.000000
  70
    32
  0
VERTEX
  8
0
  5
CED
 10
519.938
 20
27.2257
 30
0.000000
  70
    32
  0
VERTEX
  8
0
  5
CEE
 10
522.118
 20
27.9162
 30
0.000000
  70
    32
  0
VERTEX
  8
0
  5
CEF
 10
524.334
 20
28.5739
 30
0.000000
  70
    32
  0
VERTEX
  8
0
  5
CF0
 10
526.589
 20
29.1957
 30
0.000000
  70
    32
  0
VERTEX
  8
0
  5
CF1
 10
528.882
 20
29.7787
 30
0.000000
  70
    32
  0
VERTEX
  8
0
  5
CF2
 10
531.212
 20
30.3199
 30
0.000000
  70
    32
  0
VERTEX
  8
0
  5
CF3
 10
533.582
 20
30.8162
 30
0.000000
  70
    32
  0
VERTEX
  8
0
  5
CF4
 10
535.991
 20
31.2648
 30
0.000000
  70
    32
  0
VERTEX
  8
0
  5
CF5
 10
538.439
 20
31.6626
 30
0.000000
  70
    32
  0
VERTEX
  8
0
  5
CF6
 10
540.925
 20
32.0062
 30
0.000000
  70
    32
  0
VERTEX
  8
0
  5
CF7
 10
543.430
 20
32.2890
 30
0.000000
  70
    32
  0
VERTEX
  8
0
  5
CF8
 10
545.929
 20
32.5034
 30
0.000000
  70
    32
  0
VERTEX
  8
0
  5
CF9
 10
548.398
 20
32.6415
 30
0.000000
  70
    32
  0
VERTEX
  8
0
  5
CFA
 10
550.812
 20
32.6956
 30
0.000000
  70
    32
  0
VERTEX
  8
0
  5
CFB
 10
553.146
 20
32.6578
 30
0.000000
  70
    32
  0
VERTEX
  8
0
  5
CFC
 10
555.376
 20
32.5205
 30
0.000000
  70
    32
  0
VERTEX
  8
0
  5
CFD
 10
557.476
 20
32.2758
 30
0.000000
  70
    32
  0
VERTEX
  8
0
  5
CFE
 10
559.421
 20
31.9161
 30
0.000000
  70
    32
  0
VERTEX
  8
0
  5
CFF
 10
561.188
 20
31.4334
 30
0.000000
  70
    32
  0
VERTEX
  8
0
  5
D00
 10
562.750
 20
30.8200
 30
0.000000
  70
    32
  0
VERTEX
  8
0
  5
D01
 10
564.084
 20
30.0682
 30
0.000000
  70
    32
  0
VERTEX
  8
0
  5
D02
 10
565.164
 20
29.1703
 30
0.000000
  70
    32
  0
VERTEX
  8
0
  5
D03
 10
565.966
 20
28.1183
 30
0.000000
  70
    32
  0
VERTEX
  8
0
  5
D04
 10
566.465
 20
26.9046
 30
0.000000
  70
    32
  0
VERTEX
  8
0
  5
D05
 10
566.645
 20
25.5286
 30
0.000000
  70
    32
  0
VERTEX
  8
0
  5
D06
 10
566.524
 20
24.0152
 30
0.000000
  70
    32
  0
VERTEX
  8
0
  5
D07
 10
566.124
 20
22.3942
 30
0.000000
  70
    32
  0
VERTEX
  8
0
  5
D08
 10
565.469
 20
20.6957
 30
0.000000
  70
    32
  0
VERTEX
  8
0
  5
D09
 10
564.584
 20
18.9498
 30
0.000000
  70
    32
  0
VERTEX
  8
0
  5
D0A
 10
563.491
 20
17.1865
 30
0.000000
  70
    32
  0
VERTEX
  8
0
  5
D0B
 10
562.214
 20
15.4360
 30
0.000000
  70
    32
  0
VERTEX
  8
0
  5
D0C
 10
560.777
 20
13.7281
 30
0.000000
  70
    32
  0
VERTEX
  8
0
  5
D0D
 10
559.204
 20
12.0929
 30
0.000000
  70
    32
  0
VERTEX
  8
0
  5
D0E
 10
557.518
 20
10.5606
 30
0.000000
  70
    32
  0
VERTEX
  8
0
  5
D0F
 10
555.742
 20
9.16115
 30
0.000000
  70
    32
  0
VERTEX
  8
0
  5
D10
 10
553.901
 20
7.92456
 30
0.000000
  70
    32
  0
VERTEX
  8
0
  5
D11
 10
552.017
 20
6.88092
 30
0.000000
  70
    32
  0
VERTEX
  8
0
  5
D12
 10
550.114
 20
6.05780
 30
0.000000
  70
    32
  0
VERTEX
  8
0
  5
D13
 10
548.202
 20
5.45861
 30
0.000000
  70
    32
  0
VERTEX
  8
0
  5
D14
 10
546.286
 20
5.07292
 30
0.000000
  70
    32
  0
VERTEX
  8
0
  5
D15
 10
544.369
 20
4.89019
 30
0.000000
  70
    32
  0
VERTEX
  8
0
  5
D16
 10
542.455
 20
4.89984
 30
0.000000
  70
    32
  0
VERTEX
  8
0
  5
D17
 10
540.549
 20
5.09132
 30
0.000000
  70
    32
  0
VERTEX
  8
0
  5
D18
 10
538.654
 20
5.45405
 30
0.000000
  70
    32
  0
VERTEX
  8
0
  5
D19
 10
536.775
 20
5.97749
 30
0.000000
  70
    32
  0
VERTEX
  8
0
  5
D1A
 10
534.916
 20
6.65107
 30
0.000000
  70
    32
  0
VERTEX
  8
0
  5
D1B
 10
533.081
 20
7.46422
 30
0.000000
  70
    32
  0
VERTEX
  8
0
  5
D1C
 10
531.273
 20
8.40638
 30
0.000000
  70
    32
  0
VERTEX
  8
0
  5
D1D
 10
529.498
 20
9.46698
 30
0.000000
  70
    32
  0
VERTEX
  8
0
  5
D1E
 10
527.758
 20
10.6355
 30
0.000000
  70
    32
  0
VERTEX
  8
0
  5
D1F
 10
526.059
 20
11.9013
 30
0.000000
  70
    32
  0
VERTEX
  8
0
  5
D20
 10
524.404
 20
13.2539
 30
0.000000
  70
    32
  0
VERTEX
  8
0
  5
D21
 10
522.798
 20
14.6826
 30
0.000000
  70
    32
  0
VERTEX
  8
0
  5
D22
 10
521.244
 20
16.1770
 30
0.000000
  70
    32
  0
VERTEX
  8
0
  5
D23
 10
519.746
 20
17.7265
 30
0.000000
  70
    32
  0
VERTEX
  8
0
  5
D24
 10
518.309
 20
19.3205
 30
0.000000
  70
    32
  0
VERTEX
  8
0
  5
D25
 10
516.936
 20
20.9484
 30
0.000000
  70
    32
  0
VERTEX
  8
0
  5
D26
 10
515.633
 20
22.5997
 30
0.000000
  70
    32
  0
VERTEX
  8
0
  5
D27
 10
514.401
 20
24.2653
 30
0.000000
  70
    32
  0
VERTEX
  8
0
  5
D28
 10
513.241
 20
25.9431
 30
0.000000
  70
    32
  0
VERTEX
  8
0
  5
D29
 10
512.153
 20
27.6334
 30
0.000000
  70
    32
  0
VERTEX
  8
0
  5
D2A
 10
511.136
 20
29.3364
 30
0.000000
  70
    32
  0
VERTEX
  8
0
  5
D2B
 10
510.187
 20
31.0525
 30
0.000000
  70
    32
  0
VERTEX
  8
0
  5
D2C
 10
509.308
 20
32.7818
 30
0.000000
  70
    32
  0
VERTEX
  8
0
  5
D2D
 10
508.496
 20
34.5246
 30
0.000000
  70
    32
  0
VERTEX
  8
0
  5
D2E
 10
507.750
 20
36.2811
 30
0.000000
  70
    32
  0
VERTEX
  8
0
  5
D2F
 10
507.071
 20
38.0516
 30
0.000000
  70
    32
  0
VERTEX
  8
0
  5
D30
 10
506.456
 20
39.8364
 30
0.000000
  70
    32
  0
VERTEX
  8
0
  5
D31
 10
505.905
 20
41.6356
 30
0.000000
  70
    32
  0
VERTEX
  8
0
  5
D32
 10
505.418
 20
43.4496
 30
0.000000
  70
    32
  0
VERTEX
  8
0
  5
D33
 10
504.992
 20
45.2785
 30
0.000000
  70
    32
  0
VERTEX
  8
0
  5
D34
 10
504.628
 20
47.1227
 30
0.000000
  70
    32
  0
VERTEX
  8
0
  5
D35
 10
504.323
 20
48.9824
 30
0.000000
  70
    32
  0
VERTEX
  8
0
  5
D36
 10
504.079
 20
50.8578
 30
0.000000
  70
    32
  0
VERTEX
  8
0
  5
D37
 10
503.892
 20
52.7491
 30
0.000000
  70
    32
  0
VERTEX
  8
0
  5
D38
 10
503.763
 20
54.6567
 30
0.000000
  70
    32
  0
VERTEX
  8
0
  5
D39
 10
503.691
 20
56.5807
 30
0.000000
  70
    32
  0
VERTEX
  8
0
  5
D3A
 10
503.674
 20
58.5215
 30
0.000000
  70
    32
  0
VERTEX
  8
0
  5
D3B
 10
503.712
 20
60.4792
 30
0.000000
  70
    32
  0
VERTEX
  8
0
  5
D3C
 10
503.803
 20
62.4541
 30
0.000000
  70
    32
  0
VERTEX
  8
0
  5
D3D
 10
503.948
 20
64.4465
 30
0.000000
  70
    32
  0
VERTEX
  8
0
  5
D3E
 10
504.144
 20
66.4567
 30
0.000000
  70
    32
  0
VERTEX
  8
0
  5
D3F
 10
504.392
 20
68.4847
 30
0.000000
  70
    32
  0
VERTEX
  8
0
  5
D40
 10
504.689
 20
70.5310
 30
0.000000
  70
    32
  0
VERTEX
  8
0
  5
D41
 10
505.036
 20
72.5957
 30
0.000000
  70
    32
  0
VERTEX
  8
0
  5
D42
 10
505.431
 20
74.6791
 30
0.000000
  70
    32
  0
VERTEX
  8
0
  5
D43
 10
505.873
 20
76.7787
 30
0.000000
  70
    32
  0
VERTEX
  8
0
  5
D44
 10
506.363
 20
78.8892
 30
0.000000
  70
    32
  0
VERTEX
  8
0
  5
D45
 10
506.899
 20
81.0050
 30
0.000000
  70
    32
  0
VERTEX
  8
0
  5
D46
 10
507.480
 20
83.1205
 30
0.000000
  70
    32
  0
VERTEX
  8
0
  5
D47
 10
508.108
 20
85.2299
 30
0.000000
  70
    32
  0
VERTEX
  8
0
  5
D48
 10
508.780
 20
87.3278
 30
0.000000
  70
    32
  0
VERTEX
  8
0
  5
D49
 10
509.497
 20
89.4085
 30
0.000000
  70
    32
  0
VERTEX
  8
0
  5
D4A
 10
510.257
 20
91.4664
 30
0.000000
  70
    32
  0
VERTEX
  8
0
  5
D4B
 10
511.062
 20
93.4958
 30
0.000000
  70
    32
  0
VERTEX
  8
0
  5
D4C
 10
511.909
 20
95.4912
 30
0.000000
  70
    32
  0
VERTEX
  8
0
  5
D4D
 10
512.798
 20
97.4470
 30
0.000000
  70
    32
  0
VERTEX
  8
0
  5
D4E
 10
513.729
 20
99.3575
 30
0.000000
  70
    32
  0
VERTEX
  8
0
  5
D4F
 10
514.702
 20
101.217
 30
0.000000
  70
    32
  0
VERTEX
  8
0
  5
D50
 10
515.715
 20
103.020
 30
0.000000
  70
    32
  0
VERTEX
  8
0
  5
D51
 10
516.769
 20
104.761
 30
0.000000
  70
    32
  0
VERTEX
  8
0
  5
D52
 10
517.863
 20
106.435
 30
0.000000
  70
    32
  0
VERTEX
  8
0
  5
D53
 10
518.996
 20
108.035
 30
0.000000
  70
    32
  0
VERTEX
  8
0
  5
D54
 10
520.168
 20
109.556
 30
0.000000
  70
    32
  0
VERTEX
  8
0
  5
D55
 10
521.378
 20
110.992
 30
0.000000
  70
    32
  0
VERTEX
  8
0
  5
D56
 10
522.627
 20
112.338
 30
0.000000
  70
    32
  0
VERTEX
  8
0
  5
D57
 10
523.912
 20
113.589
 30
0.000000
  70
    32
  0
VERTEX
  8
0
  5
D58
 10
525.234
 20
114.738
 30
0.000000
  70
    32
  0
VERTEX
  8
0
  5
D59
 10
526.593
 20
115.780
 30
0.000000
  70
    32
  0
VERTEX
  8
0
  5
D5A
 10
527.987
 20
116.710
 30
0.000000
  70
    32
  0
VERTEX
  8
0
  5
D5B
 10
529.417
 20
117.521
 30
0.000000
  70
    32
  0
VERTEX
  8
0
  5
D5C
 10
530.881
 20
118.208
 30
0.000000
  70
    32
  0
VERTEX
  8
0
  5
D5D
 10
532.379
 20
118.766
 30
0.000000
  70
    32
  0
VERTEX
  8
0
  5
D5E
 10
533.912
 20
119.189
 30
0.000000
  70
    32
  0
VERTEX
  8
0
  5
D5F
 10
535.477
 20
119.474
 30
0.000000
  70
    32
  0
VERTEX
  8
0
  5
D60
 10
537.072
 20
119.626
 30
0.000000
  70
    32
  0
VERTEX
  8
0
  5
D61
 10
538.694
 20
119.649
 30
0.000000
  70
    32
  0
VERTEX
  8
0
  5
D62
 10
540.341
 20
119.548
 30
0.000000
  70
    32
  0
VERTEX
  8
0
  5
D63
 10
542.011
 20
119.329
 30
0.000000
  70
    32
  0
VERTEX
  8
0
  5
D64
 10
543.700
 20
118.996
 30
0.000000
  70
    32
  0
VERTEX
  8
0
  5
D65
 10
545.405
 20
118.554
 30
0.000000
  70
    32
  0
VERTEX
  8
0
  5
D66
 10
547.125
 20
118.008
 30
0.000000
  70
    32
  0
VERTEX
  8
0
  5
D67
 10
548.856
 20
117.363
 30
0.000000
  70
    32
  0
VERTEX
  8
0
  5
D68
 10
550.595
 20
116.624
 30
0.000000
  70
    32
  0
VERTEX
  8
0
  5
D69
 10
552.341
 20
115.796
 30
0.000000
  70
    32
  0
VERTEX
  8
0
  5
D6A
 10
554.090
 20
114.884
 30
0.000000
  70
    32
  0
VERTEX
  8
0
  5
D6B
 10
555.840
 20
113.892
 30
0.000000
  70
    32
  0
VERTEX
  8
0
  5
D6C
 10
557.588
 20
112.826
 30
0.000000
  70
    32
  0
VERTEX
  8
0
  5
D6D
 10
559.332
 20
111.691
 30
0.000000
  70
    32
  0
VERTEX
  8
0
  5
D6E
 10
561.068
 20
110.492
 30
0.000000
  70
    32
  0
VERTEX
  8
0
  5
D6F
 10
562.794
 20
109.232
 30
0.000000
  70
    32
  0
VERTEX
  8
0
  5
D70
 10
564.507
 20
107.919
 30
0.000000
  70
    32
  0
VERTEX
  8
0
  5
D71
 10
566.205
 20
106.555
 30
0.000000
  70
    32
  0
VERTEX
  8
0
  5
D72
 10
567.885
 20
105.147
 30
0.000000
  70
    32
  0
VERTEX
  8
0
  5
D73
 10
569.545
 20
103.700
 30
0.000000
  70
    32
  0
VERTEX
  8
0
  5
D74
 10
571.181
 20
102.217
 30
0.000000
  70
    32
  0
VERTEX
  8
0
  5
D75
 10
572.791
 20
100.705
 30
0.000000
  70
    32
  0
VERTEX
  8
0
  5
D76
 10
574.373
 20
99.1673
 30
0.000000
  70
    32
  0
VERTEX
  8
0
  5
D77
 10
575.923
 20
97.6099
 30
0.000000
  70
    32
  0
VERTEX
  8
0
  5
D78
 10
577.439
 20
96.0374
 30
0.000000
  70
    32
  0
VERTEX
  8
0
  5
D79
 10
578.919
 20
94.4547
 30
0.000000
  70
    32
  0
VERTEX
  8
0
  5
D7A
 10
580.360
 20
92.8645
 30
0.000000
  70
    32
  0
VERTEX
  8
0
  5
D7B
 10
581.761
 20
91.2666
 30
0.000000
  70
    32
  0
VERTEX
  8
0
  5
D7C
 10
583.122
 20
89.6606
 30
0.000000
  70
    32
  0
VERTEX
  8
0
  5
D7D
 10
584.441
 20
88.0461
 30
0.000000
  70
    32
  0
VERTEX
  8
0
  5
D7E
 10
585.718
 20
86.4228
 30
0.000000
  70
    32
  0
VERTEX
  8
0
  5
D7F
 10
586.951
 20
84.7902
 30
0.000000
  70
    32
  0
VERTEX
  8
0
  5
D80
 10
588.141
 20
83.1480
 30
0.000000
  70
    32
  0
VERTEX
  8
0
  5
D81
 10
589.285
 20
81.4958
 30
0.000000
  70
    32
  0
VERTEX
  8
0
  5
D82
 10
590.383
 20
79.8332
 30
0.000000
  70
    32
  0
VERTEX
  8
0
  5
D83
 10
591.434
 20
78.1598
 30
0.000000
  70
    32
  0
VERTEX
  8
0
  5
D84
 10
592.436
 20
76.4753
 30
0.000000
  70
    32
  0
VERTEX
  8
0
  5
D85
 10
593.390
 20
74.7792
 30
0.000000
  70
    32
  0
VERTEX
  8
0
  5
D86
 10
594.294
 20
73.0712
 30
0.000000
  70
    32
  0
VERTEX
  8
0
  5
D87
 10
595.148
 20
71.3509
 30
0.000000
  70
    32
  0
VERTEX
  8
0
  5
D88
 10
595.949
 20
69.6179
 30
0.000000
  70
    32
  0
VERTEX
  8
0
  5
D89
 10
596.698
 20
67.8718
 30
0.000000
  70
    32
  0
VERTEX
  8
0
  5
D8A
 10
597.393
 20
66.1122
 30
0.000000
  70
    32
  0
VERTEX
  8
0
  5
D8B
 10
598.033
 20
64.3388
 30
0.000000
  70
    32
  0
VERTEX
  8
0
  5
D8C
 10
598.619
 20
62.5512
 30
0.000000
  70
    32
  0
VERTEX
  8
0
  5
D8D
 10
599.147
 20
60.7490
 30
0.000000
  70
    32
  0
VERTEX
  8
0
  5
D8E
 10
599.618
 20
58.9318
 30
0.000000
  70
    32
  0
VERTEX
  8
0
  5
D8F
 10
600.031
 20
57.0991
 30
0.000000
  70
    32
  0
VERTEX
  8
0
  5
D90
 10
600.385
 20
55.2508
 30
0.000000
  70
    32
  0
VERTEX
  8
0
  5
D91
 10
600.679
 20
53.3862
 30
0.000000
  70
    32
  0
VERTEX
  8
0
  5
D92
 10
600.911
 20
51.5052
 30
0.000000
  70
    32
  0
VERTEX
  8
0
  5
D93
 10
601.081
 20
49.6072
 30
0.000000
  70
    32
  0
VERTEX
  8
0
  5
D94
 10
601.189
 20
47.6919
 30
0.000000
  70
    32
  0
VERTEX
  8
0
  5
D95
 10
601.232
 20
45.7590
 30
0.000000
  70
    32
  0
VERTEX
  8
0
  5
D96
 10
601.211
 20
43.8080
 30
0.000000
  70
    32
  0
VERTEX
  8
0
  5
D97
 10
601.124
 20
41.8385
 30
0.000000
  70
    32
  0
VERTEX
  8
0
  5
D98
 10
600.970
 20
39.8502
 30
0.000000
  70
    32
  0
VERTEX
  8
0
  5
D99
 10
600.749
 20
37.8427
 30
0.000000
  70
    32
  0
VERTEX
  8
0
  5
D9A
 10
600.458
 20
35.8155
 30
0.000000
  70
    32
  0
VERTEX
  8
0
  5
D9B
 10
600.104
 20
33.7707
 30
0.000000
  70
    32
  0
VERTEX
  8
0
  5
D9C
 10
599.712
 20
31.7195
 30
0.000000
  70
    32
  0
VERTEX
  8
0
  5
D9D
 10
599.312
 20
29.6755
 30
0.000000
  70
    32
  0
VERTEX
  8
0
  5
D9E
 10
598.937
 20
27.6522
 30
0.000000
  70
    32
  0
VERTEX
  8
0
  5
D9F
 10
598.618
 20
25.6633
 30
0.000000
  70
    32
  0
VERTEX
  8
0
  5
DA0
 10
598.387
 20
23.7224
 30
0.000000
  70
    32
  0
VERTEX
  8
0
  5
DA1
 10
598.273
 20
21.8430
 30
0.000000
  70
    32
  0
VERTEX
  8
0
  5
DA2
 10
598.310
 20
20.0387
 30
0.000000
  70
    32
  0
VERTEX
  8
0
  5
DA3
 10
598.528
 20
18.3231
 30
0.000000
  70
    32
  0
VERTEX
  8
0
  5
DA4
 10
598.959
 20
16.7099
 30
0.000000
  70
    32
  0
VERTEX
  8
0
  5
DA5
 10
599.632
 20
15.2123
 30
0.000000
  70
    32
  0
VERTEX
  8
0
  5
DA6
 10
600.554
 20
13.8342
 30
0.000000
  70
    32
  0
VERTEX
  8
0
  5
DA7
 10
601.701
 20
12.5695
 30
0.000000
  70
    32
  0
VERTEX
  8
0
  5
DA8
 10
603.049
 20
11.4116
 30
0.000000
  70
    32
  0
VERTEX
  8
0
  5
DA9
 10
604.573
 20
10.3537
 30
0.000000
  70
    32
  0
VERTEX
  8
0
  5
DAA
 10
606.250
 20
9.38910
 30
0.000000
  70
    32
  0
VERTEX
  8
0
  5
DAB
 10
608.055
 20
8.51124
 30
0.000000
  70
    32
  0
VERTEX
  8
0
  5
DAC
 10
609.964
 20
7.71337
 30
0.000000
  70
    32
  0
VERTEX
  8
0
  5
DAD
 10
611.953
 20
6.98883
 30
0.000000
  70
    32
  0
VERTEX
  8
0
  5
DAE
 10
613.997
 20
6.33092
 30
0.000000
  70
    32
  0
VERTEX
  8
0
  5
DAF
 10
616.071
 20
5.73298
 30
0.000000
  70
    32
  0
VERTEX
  8
0
  5
DB0
 10
618.153
 20
5.18832
 30
0.000000
  70
    32
  0
VERTEX
  8
0
  5
DB1
 10
620.220
 20
4.69074
 30
0.000000
  70
    32
  0
VERTEX
  8
0
  5
DB2
 10
622.266
 20
4.23725
 30
0.000000
  70
    32
  0
VERTEX
  8
0
  5
DB3
 10
624.292
 20
3.82606
 30
0.000000
  70
    32
  0
VERTEX
  8
0
  5
DB4
 10
626.299
 20
3.45542
 30
0.000000
  70
    32
  0
VERTEX
  8
0
  5
DB5
 10
628.288
 20
3.12357
 30
0.000000
  70
    32
  0
VERTEX
  8
0
  5
DB6
 10
630.260
 20
2.82873
 30
0.000000
  70
    32
  0
VERTEX
  8
0
  5
DB7
 10
632.216
 20
2.56916
 30
0.000000
  70
    32
  0
VERTEX
  8
0
  5
DB8
 10
634.155
 20
2.34308
 30
0.000000
  70
    32
  0
VERTEX
  8
0
  5
DB9
 10
636.080
 20
2.14873
 30
0.000000
  70
    32
  0
VERTEX
  8
0
  5
DBA
 10
637.991
 20
1.98435
 30
0.000000
  70
    32
  0
VERTEX
  8
0
  5
DBB
 10
639.889
 20
1.84817
 30
0.000000
  70
    32
  0
VERTEX
  8
0
  5
DBC
 10
641.774
 20
1.73844
 30
0.000000
  70
    32
  0
VERTEX
  8
0
  5
DBD
 10
643.648
 20
1.65339
 30
0.000000
  70
    32
  0
VERTEX
  8
0
  5
DBE
 10
645.511
 20
1.59126
 30
0.000000
  70
    32
  0
VERTEX
  8
0
  5
DBF
 10
647.364
 20
1.55028
 30
0.000000
  70
    32
  0
VERTEX
  8
0
  5
DC0
 10
649.208
 20
1.52870
 30
0.000000
  70
    32
  0
VERTEX
  8
0
  5
DC1
 10
651.044
 20
1.52474
 30
0.000000
  70
    32
  0
VERTEX
  8
0
  5
DC2
 10
652.873
 20
1.53665
 30
0.000000
  70
    32
  0
VERTEX
  8
0
  5
DC3
 10
654.695
 20
1.56266
 30
0.000000
  70
    32
  0
VERTEX
  8
0
  5
DC4
 10
656.511
 20
1.60101
 30
0.000000
  70
    32
  0
VERTEX
  8
0
  5
DC5
 10
658.322
 20
1.64994
 30
0.000000
  70
    32
  0
VERTEX
  8
0
  5
DC6
 10
660.129
 20
1.70769
 30
0.000000
  70
    32
  0
VERTEX
  8
0
  5
DC7
 10
661.933
 20
1.77249
 30
0.000000
  70
    32
  0
VERTEX
  8
0
  5
DC8
 10
663.734
 20
1.84257
 30
0.000000
  70
    32
  0
VERTEX
  8
0
  5
DC9
 10
665.534
 20
1.91618
 30
0.000000
  70
    32
  0
VERTEX
  8
0
  5
DCA
 10
667.333
 20
1.99155
 30
0.000000
  70
    32
  0
SEQEND
  8
0
  5
DCB
  0
ENDSEC
  0
EOF
