  0
SECTION
  2
HEADER
  9
$ACADVER
  1
AC1009
  9
$DWGCODEPAGE
  3
ansi_1252
  9
$INSBASE
 10
0.0
 20
0.0
 30
0.0
  9
$EXTMIN
 10
0.0
 20
0.0
 30
0.0
  9
$EXTMAX
 10
290.0
 20
100.0000000000005
 30
0.0
  9
$LIMMIN
 10
0.0
 20
0.0
  9
$LIMMAX
 10
12.0
 20
9.0
  9
$ORTHOMODE
 70
     0
  9
$REGENMODE
 70
     1
  9
$FILLMODE
 70
     1
  9
$QTEXTMODE
 70
     0
  9
$MIRRTEXT
 70
     1
  9
$DRAGMODE
 70
     2
  9
$LTSCALE
 40
1.0
  9
$OSMODE
 70
    37
  9
$ATTMODE
 70
     1
  9
$TEXTSIZE
 40
0.2
  9
$TRACEWID
 40
0.05
  9
$TEXTSTYLE
  7
STANDARD
  9
$CLAYER
  8
0
  9
$CELTYPE
  6
BYLAYER
  9
$CECOLOR
 62
   256
  9
$DIMSCALE
 40
1.0
  9
$DIMASZ
 40
0.18
  9
$DIMEXO
 40
0.0625
  9
$DIMDLI
 40
0.38
  9
$DIMRND
 40
0.0
  9
$DIMDLE
 40
0.0
  9
$DIMEXE
 40
0.18
  9
$DIMTP
 40
0.0
  9
$DIMTM
 40
0.0
  9
$DIMTXT
 40
0.18
  9
$DIMCEN
 40
0.09
  9
$DIMTSZ
 40
0.0
  9
$DIMTOL
 70
     0
  9
$DIMLIM
 70
     0
  9
$DIMTIH
 70
     1
  9
$DIMTOH
 70
     1
  9
$DIMSE1
 70
     0
  9
$DIMSE2
 70
     0
  9
$DIMTAD
 70
     0
  9
$DIMZIN
 70
     0
  9
$DIMBLK
  1

  9
$DIMASO
 70
     1
  9
$DIMSHO
 70
     1
  9
$DIMPOST
  1

  9
$DIMAPOST
  1

  9
$DIMALT
 70
     0
  9
$DIMALTD
 70
     2
  9
$DIMALTF
 40
25.4
  9
$DIMLFAC
 40
1.0
  9
$DIMTOFL
 70
     0
  9
$DIMTVP
 40
0.0
  9
$DIMTIX
 70
     0
  9
$DIMSOXD
 70
     0
  9
$DIMSAH
 70
     0
  9
$DIMBLK1
  1

  9
$DIMBLK2
  1

  9
$DIMSTYLE
  2
STANDARD
  9
$DIMCLRD
 70
     0
  9
$DIMCLRE
 70
     0
  9
$DIMCLRT
 70
     0
  9
$DIMTFAC
 40
1.0
  9
$DIMGAP
 40
0.09
  9
$LUNITS
 70
     2
  9
$LUPREC
 70
     3
  9
$SKETCHINC
 40
0.1
  9
$FILLETRAD
 40
0.5
  9
$AUNITS
 70
     0
  9
$AUPREC
 70
     0
  9
$MENU
  1
.
  9
$ELEVATION
 40
0.0
  9
$PELEVATION
 40
0.0
  9
$THICKNESS
 40
0.0
  9
$LIMCHECK
 70
     0
  9
$CHAMFERA
 40
0.0
  9
$CHAMFERB
 40
0.0
  9
$SKPOLY
 70
     0
  9
$TDCREATE
 40
2457630.549772014
  9
$TDUPDATE
 40
2457630.549788785
  9
$TDINDWG
 40
0.0000000116
  9
$TDUSRTIMER
 40
0.0000000116
  9
$USRTIMER
 70
     1
  9
$ANGBASE
 50
0.0
  9
$ANGDIR
 70
     0
  9
$PDMODE
 70
     0
  9
$PDSIZE
 40
0.0
  9
$PLINEWID
 40
0.0
  9
$COORDS
 70
     1
  9
$SPLFRAME
 70
     0
  9
$SPLINETYPE
 70
     6
  9
$SPLINESEGS
 70
     8
  9
$ATTDIA
 70
     0
  9
$ATTREQ
 70
     1
  9
$HANDLING
 70
     1
  9
$HANDSEED
  5
A7
  9
$SURFTAB1
 70
     6
  9
$SURFTAB2
 70
     6
  9
$SURFTYPE
 70
     6
  9
$SURFU
 70
     6
  9
$SURFV
 70
     6
  9
$UCSNAME
  2

  9
$UCSORG
 10
0.0
 20
0.0
 30
0.0
  9
$UCSXDIR
 10
1.0
 20
0.0
 30
0.0
  9
$UCSYDIR
 10
0.0
 20
1.0
 30
0.0
  9
$PUCSNAME
  2

  9
$PUCSORG
 10
0.0
 20
0.0
 30
0.0
  9
$PUCSXDIR
 10
1.0
 20
0.0
 30
0.0
  9
$PUCSYDIR
 10
0.0
 20
1.0
 30
0.0
  9
$USERI1
 70
     0
  9
$USERI2
 70
     0
  9
$USERI3
 70
     0
  9
$USERI4
 70
     0
  9
$USERI5
 70
     0
  9
$USERR1
 40
0.0
  9
$USERR2
 40
0.0
  9
$USERR3
 40
0.0
  9
$USERR4
 40
0.0
  9
$USERR5
 40
0.0
  9
$WORLDVIEW
 70
     1
  9
$SHADEDGE
 70
     3
  9
$SHADEDIF
 70
    70
  9
$TILEMODE
 70
     1
  9
$MAXACTVP
 70
    64
  9
$PLIMCHECK
 70
     0
  9
$PEXTMIN
 10
1.000000000000000E+20
 20
1.000000000000000E+20
 30
1.000000000000000E+20
  9
$PEXTMAX
 10
-1.000000000000000E+20
 20
-1.000000000000000E+20
 30
-1.000000000000000E+20
  9
$PLIMMIN
 10
0.0
 20
0.0
  9
$PLIMMAX
 10
12.0
 20
9.0
  9
$UNITMODE
 70
     0
  9
$VISRETAIN
 70
     1
  9
$PLINEGEN
 70
     0
  9
$PSLTSCALE
 70
     1
  0
ENDSEC
  0
SECTION
  2
TABLES
  0
TABLE
  2
VPORT
 70
     1
  0
VPORT
  2
*ACTIVE
 70
     0
 10
0.0
 20
0.0
 11
1.0
 21
1.0
 12
145.0
 22
50.00000000000027
 13
0.0
 23
0.0
 14
0.5
 24
0.5
 15
0.5
 25
0.5
 16
0.0
 26
0.0
 36
1.0
 17
0.0
 27
0.0
 37
0.0
 40
102.0000000000006
 41
2.899999999999984
 42
50.0
 43
0.0
 44
0.0
 50
0.0
 51
0.0
 71
     0
 72
   100
 73
     1
 74
     3
 75
     0
 76
     0
 77
     0
 78
     0
  0
ENDTAB
  0
TABLE
  2
LTYPE
 70
     1
  0
LTYPE
  2
CONTINUOUS
 70
     0
  3
Solid line
 72
    65
 73
     0
 40
0.0
  0
ENDTAB
  0
TABLE
  2
LAYER
 70
    11
  0
LAYER
  2
0
 70
     0
 62
     7
  6
CONTINUOUS
  0
LAYER
  2
9
 70
     0
 62
   133
  6
CONTINUOUS
  0
LAYER
  2
10
 70
     0
 62
    11
  6
CONTINUOUS
  0
LAYER
  2
8
 70
     0
 62
   240
  6
CONTINUOUS
  0
LAYER
  2
7
 70
     0
 62
    63
  6
CONTINUOUS
  0
LAYER
  2
6
 70
     0
 62
     4
  6
CONTINUOUS
  0
LAYER
  2
5
 70
     0
 62
     6
  6
CONTINUOUS
  0
LAYER
  2
4
 70
     0
 62
    96
  6
CONTINUOUS
  0
LAYER
  2
3
 70
     0
 62
     5
  6
CONTINUOUS
  0
LAYER
  2
2
 70
     0
 62
   192
  6
CONTINUOUS
  0
LAYER
  2
1
 70
     0
 62
    12
  6
CONTINUOUS
  0
ENDTAB
  0
TABLE
  2
STYLE
 70
     1
  0
STYLE
  2
STANDARD
 70
     0
 40
0.0
 41
1.0
 50
0.0
 71
     0
 42
0.2
  3
txt
  4

  0
ENDTAB
  0
TABLE
  2
VIEW
 70
     0
  0
ENDTAB
  0
TABLE
  2
UCS
 70
     0
  0
ENDTAB
  0
TABLE
  2
APPID
 70
     1
  0
APPID
  2
ACAD
 70
     0
  0
ENDTAB
  0
TABLE
  2
DIMSTYLE
 70
     1
  0
DIMSTYLE
  2
STANDARD
 70
     0
  3

  4

  5

  6

  7

 40
1.0
 41
0.18
 42
0.0625
 43
0.38
 44
0.18
 45
0.0
 46
0.0
 47
0.0
 48
0.0
140
0.18
141
0.09
142
0.0
143
25.4
144
1.0
145
0.0
146
1.0
147
0.09
 71
     0
 72
     0
 73
     1
 74
     1
 75
     0
 76
     0
 77
     0
 78
     0
170
     0
171
     2
172
     0
173
     0
174
     0
175
     0
176
     0
177
     0
178
     0
  0
ENDTAB
  0
ENDSEC
  0
SECTION
  2
BLOCKS
  0
BLOCK
  8
0
  2
$MODEL_SPACE
 70
     0
 10
0.0
 20
0.0
 30
0.0
  3
$MODEL_SPACE
  1

  0
ENDBLK
  5
21
  8
0
  0
BLOCK
 67
     1
  8
0
  2
$PAPER_SPACE
 70
     0
 10
0.0
 20
0.0
 30
0.0
  3
$PAPER_SPACE
  1

  0
ENDBLK
  5
1D
 67
     1
  8
0
  0
ENDSEC
  0
SECTION
  2
ENTITIES
  0
POINT
  5
6F
  8
9
 62
     7
 10
290.0
 20
0.0
 30
0.0
  0
LINE
  5
71
  8
10
 62
     7
 10
290.0
 20
0.0
 30
0.0
 11
250.0
 21
20.0
 31
0.0
  0
LINE
  5
72
  8
10
 62
     7
 10
250.0
 20
20.0
 30
0.0
 11
210.0
 21
0.0
 31
0.0
  0
LINE
  5
73
  8
10
 62
     7
 10
210.0
 20
0.0
 30
0.0
 11
170.0
 21
20.0
 31
0.0
  0
LINE
  5
74
  8
10
 62
     7
 10
170.0
 20
20.0
 30
0.0
 11
130.0
 21
0.0
 31
0.0
  0
LINE
  5
75
  8
10
 62
     7
 10
130.0
 20
0.0
 30
0.0
 11
90.0
 21
20.0
 31
0.0
  0
LINE
  5
76
  8
10
 62
     7
 10
90.0
 20
20.0
 30
0.0
 11
0.0
 21
0.0000000000000061
 31
0.0
  0
LINE
  5
77
  8
9
 62
     2
 10
270.0
 20
39.99999999999998
 30
0.0
 11
290.0
 21
0.0
 31
0.0
  0
ARC
  5
78
  8
9
 62
     1
 10
270.0
 20
60.0
 30
0.0
 40
20.0
 50
90.0
 51
270.0
  0
ARC
  5
7A
  8
8
 62
     1
 10
270.0
 20
60.0
 30
0.0
 40
20.0
 50
270.0
 51
90.0
  0
LINE
  5
7B
  8
8
 62
     2
 10
250.0
 20
40.0
 30
0.0
 11
270.0
 21
40.0
 31
0.0
  0
ARC
  5
7C
  8
8
 62
     1
 10
250.0
 20
60.0
 30
0.0
 40
19.99999999999997
 50
90.0
 51
270.0
  0
ARC
  5
7E
  8
7
 62
     1
 10
250.0
 20
60.0
 30
0.0
 40
19.99999999999999
 50
270.0
 51
90.0
  0
LINE
  5
7F
  8
7
 62
     2
 10
230.0
 20
40.0
 30
0.0
 11
250.0
 21
40.0
 31
0.0
  0
ARC
  5
80
  8
7
 62
     1
 10
230.0
 20
60.0
 30
0.0
 40
19.99999999999999
 50
90.0
 51
270.0
  0
ARC
  5
82
  8
6
 62
     1
 10
230.0
 20
60.0
 30
0.0
 40
19.99999999999999
 50
270.0
 51
90.0
  0
LINE
  5
83
  8
6
 62
     2
 10
210.0
 20
40.0
 30
0.0
 11
230.0
 21
40.0
 31
0.0
  0
ARC
  5
84
  8
6
 62
     1
 10
210.0
 20
60.0
 30
0.0
 40
19.99999999999999
 50
90.0
 51
270.0
  0
ARC
  5
86
  8
5
 62
     1
 10
210.0
 20
60.0
 30
0.0
 40
19.99999999999999
 50
269.9999999999996
 51
90.0
  0
LINE
  5
87
  8
5
 62
     2
 10
190.0
 20
40.00000000000055
 30
0.0
 11
210.0
 21
40.0
 31
0.0
  0
ARC
  5
88
  8
5
 62
     1
 10
190.0
 20
60.00000000000028
 30
0.0
 40
19.9999999999997
 50
89.99999999999919
 51
270.0
  0
ARC
  5
8A
  8
4
 62
     1
 10
190.0000000000003
 20
60.0
 30
0.0
 40
19.9999999999997
 50
0.0
 51
90.00000000000082
  0
ARC
  5
8B
  8
4
 62
     1
 10
170.0
 20
60.0
 30
0.0
 40
40.0
 50
270.0
 51
0.0000000000000204
  0
LINE
  5
8C
  8
4
 62
     2
 10
150.0
 20
20.0
 30
0.0
 11
170.0
 21
20.0
 31
0.0
  0
ARC
  5
8D
  8
4
 62
     1
 10
150.0
 20
60.00000000000028
 30
0.0
 40
40.00000000000027
 50
90.0
 51
270.0
  0
ARC
  5
8F
  8
3
 62
     1
 10
150.0
 20
60.00000000000028
 30
0.0
 40
40.00000000000027
 50
269.9999999999996
 51
90.0
  0
LINE
  5
90
  8
3
 62
     2
 10
130.0
 20
20.0
 30
0.0
 11
150.0
 21
20.0
 31
0.0
  0
ARC
  5
91
  8
3
 62
     1
 10
130.0
 20
60.0
 30
0.0
 40
39.99999999999995
 50
90.0
 51
270.0
  0
ARC
  5
93
  8
2
 62
     1
 10
130.0
 20
60.0
 30
0.0
 40
40.0
 50
270.0
 51
90.0
  0
LINE
  5
94
  8
2
 62
     2
 10
110.0000000000002
 20
20.0
 30
0.0
 11
130.0
 21
20.0
 31
0.0
  0
ARC
  5
95
  8
2
 62
     1
 10
110.0
 20
60.0
 30
0.0
 40
40.0
 50
180.0000000000004
 51
270.0000000000004
  0
ARC
  5
97
  8
1
 62
     1
 10
110.0
 20
60.0
 30
0.0
 40
40.0
 50
89.99999999999957
 51
180.0
  0
ARC
  5
98
  8
1
 62
     1
 10
110.0
 20
60.0
 30
0.0
 40
40.0
 50
0.0000000000004071
 51
90.0
  0
ARC
  5
99
  8
1
 62
     1
 10
110.0
 20
60.0
 30
0.0
 40
40.0
 50
270.0000000000004
 51
0.0
  0
LINE
  5
9A
  8
1
 62
     2
 10
90.0
 20
20.0
 30
0.0
 11
110.0
 21
20.0
 31
0.0
  0
ARC
  5
9B
  8
1
 62
     1
 10
90.0
 20
60.0
 30
0.0
 40
40.0
 50
90.0
 51
269.9999999999996
  0
ARC
  5
9C
  8
0
 62
     1
 10
90.0
 20
60.0
 30
0.0
 40
40.0
 50
269.9999999999996
 51
89.99999999999999
  0
POINT
  5
9D
  8
0
 62
     1
 10
90.0
 20
20.0
 30
0.0
  0
LINE
  5
9E
  8
0
 62
     7
 10
0.0
 20
0.0000000000000061
 30
0.0
 11
90.0
 21
20.0
 31
0.0
  0
POINT
  5
9F
  8
0
 62
     7
 10
0.0
 20
0.0000000000000061
 30
0.0
  0
ENDSEC
  0
EOF
