  0
SECTION
  2
HEADER
  9
$ACADVER
  1
AC1009
  9
$INSBASE
 10
0.0
 20
0.0
 30
0.0
  9
$EXTMIN
 10
0.0
 20
-0.0000000000000064
 30
0.0
  9
$EXTMAX
 10
418.17199999999991
 20
151.4212
 30
0.0
  9
$LIMMIN
 10
0.0
 20
0.0
  9
$LIMMAX
 10
12.0
 20
9.0
  9
$ORTHOMODE
 70
     0
  9
$REGENMODE
 70
     1
  9
$FILLMODE
 70
     1
  9
$QTEXTMODE
 70
     0
  9
$MIRRTEXT
 70
     1
  9
$DRAGMODE
 70
     2
  9
$LTSCALE
 40
1.0
  9
$OSMODE
 70
    37
  9
$ATTMODE
 70
     1
  9
$TEXTSIZE
 40
0.2
  9
$TRACEWID
 40
0.05
  9
$TEXTSTYLE
  7
STANDARD
  9
$CLAYER
  8
0
  9
$CELTYPE
  6
BYLAYER
  9
$CECOLOR
 62
   256
  9
$DIMSCALE
 40
1.0
  9
$DIMASZ
 40
0.18
  9
$DIMEXO
 40
0.0625
  9
$DIMDLI
 40
0.38
  9
$DIMRND
 40
0.0
  9
$DIMDLE
 40
0.0
  9
$DIMEXE
 40
0.18
  9
$DIMTP
 40
0.0
  9
$DIMTM
 40
0.0
  9
$DIMTXT
 40
0.18
  9
$DIMCEN
 40
0.09
  9
$DIMTSZ
 40
0.0
  9
$DIMTOL
 70
     0
  9
$DIMLIM
 70
     0
  9
$DIMTIH
 70
     1
  9
$DIMTOH
 70
     1
  9
$DIMSE1
 70
     0
  9
$DIMSE2
 70
     0
  9
$DIMTAD
 70
     0
  9
$DIMZIN
 70
     0
  9
$DIMBLK
  1

  9
$DIMASO
 70
     1
  9
$DIMSHO
 70
     1
  9
$DIMPOST
  1

  9
$DIMAPOST
  1

  9
$DIMALT
 70
     0
  9
$DIMALTD
 70
     2
  9
$DIMALTF
 40
25.399999999999999
  9
$DIMLFAC
 40
1.0
  9
$DIMTOFL
 70
     0
  9
$DIMTVP
 40
0.0
  9
$DIMTIX
 70
     0
  9
$DIMSOXD
 70
     0
  9
$DIMSAH
 70
     0
  9
$DIMBLK1
  1

  9
$DIMBLK2
  1

  9
$DIMSTYLE
  2
STANDARD
  9
$DIMCLRD
 70
     0
  9
$DIMCLRE
 70
     0
  9
$DIMCLRT
 70
     0
  9
$DIMTFAC
 40
1.0
  9
$DIMGAP
 40
0.09
  9
$LUNITS
 70
     2
  9
$LUPREC
 70
     3
  9
$SKETCHINC
 40
0.1
  9
$FILLETRAD
 40
0.5
  9
$AUNITS
 70
     0
  9
$AUPREC
 70
     0
  9
$MENU
  1
.
  9
$ELEVATION
 40
0.0
  9
$PELEVATION
 40
0.0
  9
$THICKNESS
 40
0.0
  9
$LIMCHECK
 70
     0
  9
$BLIPMODE
 70
     0
  9
$CHAMFERA
 40
0.0
  9
$CHAMFERB
 40
0.0
  9
$SKPOLY
 70
     0
  9
$TDCREATE
 40
2457617.722761435
  9
$TDUPDATE
 40
2457630.5281534959
  9
$TDINDWG
 40
0.0223686574
  9
$TDUSRTIMER
 40
0.0223675463
  9
$USRTIMER
 70
     1
  9
$ANGBASE
 50
0.0
  9
$ANGDIR
 70
     0
  9
$PDMODE
 70
     0
  9
$PDSIZE
 40
0.0
  9
$PLINEWID
 40
0.0
  9
$COORDS
 70
     1
  9
$SPLFRAME
 70
     0
  9
$SPLINETYPE
 70
     6
  9
$SPLINESEGS
 70
     8
  9
$ATTDIA
 70
     1
  9
$ATTREQ
 70
     1
  9
$HANDLING
 70
     1
  9
$HANDSEED
  5
D71
  9
$SURFTAB1
 70
     6
  9
$SURFTAB2
 70
     6
  9
$SURFTYPE
 70
     6
  9
$SURFU
 70
     6
  9
$SURFV
 70
     6
  9
$UCSNAME
  2

  9
$UCSORG
 10
0.0
 20
0.0
 30
0.0
  9
$UCSXDIR
 10
1.0
 20
0.0
 30
0.0
  9
$UCSYDIR
 10
0.0
 20
1.0
 30
0.0
  9
$PUCSNAME
  2

  9
$PUCSORG
 10
0.0
 20
0.0
 30
0.0
  9
$PUCSXDIR
 10
1.0
 20
0.0
 30
0.0
  9
$PUCSYDIR
 10
0.0
 20
1.0
 30
0.0
  9
$USERI1
 70
     0
  9
$USERI2
 70
     0
  9
$USERI3
 70
     0
  9
$USERI4
 70
     0
  9
$USERI5
 70
     0
  9
$USERR1
 40
0.0
  9
$USERR2
 40
0.0
  9
$USERR3
 40
0.0
  9
$USERR4
 40
0.0
  9
$USERR5
 40
0.0
  9
$WORLDVIEW
 70
     1
  9
$SHADEDGE
 70
     3
  9
$SHADEDIF
 70
    70
  9
$TILEMODE
 70
     1
  9
$MAXACTVP
 70
    64
  9
$PLIMCHECK
 70
     0
  9
$PEXTMIN
 10
1.0000000000000000E+020
 20
1.0000000000000000E+020
 30
1.0000000000000000E+020
  9
$PEXTMAX
 10
-1.0000000000000000E+020
 20
-1.0000000000000000E+020
 30
-1.0000000000000000E+020
  9
$PLIMMIN
 10
0.0
 20
0.0
  9
$PLIMMAX
 10
12.0
 20
9.0
  9
$UNITMODE
 70
     0
  9
$VISRETAIN
 70
     1
  9
$PLINEGEN
 70
     0
  9
$PSLTSCALE
 70
     1
  0
ENDSEC
  0
SECTION
  2
TABLES
  0
TABLE
  2
VPORT
 70
     1
  0
VPORT
  2
*ACTIVE
 70
     0
 10
0.0
 20
0.0
 11
1.0
 21
1.0
 12
42.561589937103797
 22
-23.649942996231289
 13
0.0
 23
0.0
 14
0.5
 24
0.5
 15
0.5
 25
0.5
 16
0.0
 26
0.0
 36
1.0
 17
0.0
 27
0.0
 37
0.0
 40
230.0644100893002
 41
2.4285714285714279
 42
50.0
 43
0.0
 44
0.0
 50
0.0
 51
0.0
 71
     0
 72
   100
 73
     1
 74
     3
 75
     0
 76
     0
 77
     0
 78
     0
  0
ENDTAB
  0
TABLE
  2
LTYPE
 70
     1
  0
LTYPE
  2
CONTINUOUS
 70
     0
  3
Solid line
 72
    65
 73
     0
 40
0.0
  0
ENDTAB
  0
TABLE
  2
LAYER
 70
     7
  0
LAYER
  2
0
 70
     0
 62
     7
  6
CONTINUOUS
  0
LAYER
  2
6
 70
     0
 62
     7
  6
CONTINUOUS
  0
LAYER
  2
4
 70
     0
 62
    96
  6
CONTINUOUS
  0
LAYER
  2
5
 70
     0
 62
     7
  6
CONTINUOUS
  0
LAYER
  2
3
 70
     0
 62
     5
  6
CONTINUOUS
  0
LAYER
  2
1
 70
     0
 62
    12
  6
CONTINUOUS
  0
LAYER
  2
2
 70
     0
 62
   192
  6
CONTINUOUS
  0
ENDTAB
  0
TABLE
  2
STYLE
 70
     2
  0
STYLE
  2
STANDARD
 70
     0
 40
0.0
 41
1.0
 50
0.0
 71
     0
 42
0.2
  3
txt
  4

  0
STYLE
  2
ANNOTATIVE
 70
     0
 40
0.0
 41
1.0
 50
0.0
 71
     0
 42
0.2
  3
txt
  4

  0
ENDTAB
  0
TABLE
  2
VIEW
 70
     0
  0
ENDTAB
  0
TABLE
  2
UCS
 70
     0
  0
ENDTAB
  0
TABLE
  2
APPID
 70
     7
  0
APPID
  2
ACAD
 70
     0
  0
APPID
  2
ACADANNOTATIVE
 70
     0
  0
APPID
  2
ACAD_MLEADERVER
 70
     0
  0
APPID
  2
ACAD_EXEMPT_FROM_CAD_STANDARDS
 70
     0
  0
APPID
  2
ACAD_NAV_VCDISPLAY
 70
     0
  0
APPID
  2
ACAECLAYERSTANDARD
 70
     0
  0
APPID
  2
ACCMTRANSPARENCY
 70
     0
  0
ENDTAB
  0
TABLE
  2
DIMSTYLE
 70
     2
  0
DIMSTYLE
  2
STANDARD
 70
     0
  3

  4

  5

  6

  7

 40
1.0
 41
0.18
 42
0.0625
 43
0.38
 44
0.18
 45
0.0
 46
0.0
 47
0.0
 48
0.0
140
0.18
141
0.09
142
0.0
143
25.399999999999999
144
1.0
145
0.0
146
1.0
147
0.09
 71
     0
 72
     0
 73
     1
 74
     1
 75
     0
 76
     0
 77
     0
 78
     0
170
     0
171
     2
172
     0
173
     0
174
     0
175
     0
176
     0
177
     0
178
     0
  0
DIMSTYLE
  2
ANNOTATIVE
 70
     0
  3

  4

  5

  6

  7

 40
1.0
 41
0.18
 42
0.0625
 43
0.38
 44
0.18
 45
0.0
 46
0.0
 47
0.0
 48
0.0
140
0.18
141
0.09
142
0.0
143
25.399999999999999
144
1.0
145
0.0
146
1.0
147
0.09
 71
     0
 72
     0
 73
     1
 74
     1
 75
     0
 76
     0
 77
     0
 78
     0
170
     0
171
     2
172
     0
173
     0
174
     0
175
     0
176
     0
177
     0
178
     0
  0
ENDTAB
  0
ENDSEC
  0
SECTION
  2
BLOCKS
  0
BLOCK
  8
0
  2
$MODEL_SPACE
 70
     0
 10
0.0
 20
0.0
 30
0.0
  3
$MODEL_SPACE
  1

  0
ENDBLK
  5
D00
  8
0
  0
BLOCK
 67
     1
  8
0
  2
$PAPER_SPACE
 70
     0
 10
0.0
 20
0.0
 30
0.0
  3
$PAPER_SPACE
  1

  0
ENDBLK
  5
CFC
 67
     1
  8
0
  0
ENDSEC
  0
SECTION
  2
ENTITIES
  0
POINT
  5
725
  8
0
 62
     1
 10
0.0
 20
0.0
 30
0.0
  0
LINE
  5
726
  8
1
 62
     4
 10
415.25241078032928
 20
-0.0000000000000064
 30
0.0
 11
0.0000000000000268
 21
0.0000000000000448
 31
0.0
  0
POLYLINE
  5
7CE
  8
0
 62
     2
 66
     1
 10
0.0
 20
0.0
 30
0.0
 70
     8
  0
VERTEX
  5
7CF
  8
0
 62
     2
 10
0.0000000000000268
 20
0.0000000000000448
 30
0.0
 70
    32
  0
VERTEX
  5
7D0
  8
0
 62
     2
 10
4.6227199999999993
 20
11.300879999999999
 30
0.0
 70
    32
  0
VERTEX
  5
7D1
  8
0
 62
     2
 10
8.9306000000000001
 20
22.003319999999999
 30
0.0
 70
    32
  0
VERTEX
  5
7D2
  8
0
 62
     2
 10
12.933160000000001
 20
32.123559999999998
 30
0.0
 70
    32
  0
VERTEX
  5
7D3
  8
0
 62
     2
 10
16.640039999999999
 20
41.67799999999999
 30
0.0
 70
    32
  0
VERTEX
  5
7D4
  8
0
 62
     2
 10
20.060759999999998
 20
50.6828
 30
0.0
 70
    32
  0
VERTEX
  5
7D5
  8
0
 62
     2
 10
23.204920000000001
 20
59.154000000000003
 30
0.0
 70
    32
  0
VERTEX
  5
7D6
  8
0
 62
     2
 10
26.082159999999998
 20
67.108800000000002
 30
0.0
 70
    32
  0
VERTEX
  5
7D7
  8
0
 62
     2
 10
28.70196
 20
74.562399999999997
 30
0.0
 70
    32
  0
VERTEX
  5
7D8
  8
0
 62
     2
 10
31.074000000000002
 20
81.531599999999983
 30
0.0
 70
    32
  0
VERTEX
  5
7D9
  8
0
 62
     2
 10
33.207799999999999
 20
88.032799999999995
 30
0.0
 70
    32
  0
VERTEX
  5
7DA
  8
0
 62
     2
 10
35.112960000000001
 20
94.081599999999995
 30
0.0
 70
    32
  0
VERTEX
  5
7DB
  8
0
 62
     2
 10
36.799039999999998
 20
99.695200000000014
 30
0.0
 70
    32
  0
VERTEX
  5
7DC
  8
0
 62
     2
 10
38.275640000000003
 20
104.8896
 30
0.0
 70
    32
  0
VERTEX
  5
7DD
  8
0
 62
     2
 10
39.55236
 20
109.6808
 30
0.0
 70
    32
  0
VERTEX
  5
7DE
  8
0
 62
     2
 10
40.638800000000003
 20
114.0852
 30
0.0
 70
    32
  0
VERTEX
  5
7DF
  8
0
 62
     2
 10
41.544400000000003
 20
118.11960000000001
 30
0.0
 70
    32
  0
VERTEX
  5
7E0
  8
0
 62
     2
 10
42.27879999999999
 20
121.7992
 30
0.0
 70
    32
  0
VERTEX
  5
7E1
  8
0
 62
     2
 10
42.85199999999999
 20
125.1412
 30
0.0
 70
    32
  0
VERTEX
  5
7E2
  8
0
 62
     2
 10
43.272799999999997
 20
128.16159999999999
 30
0.0
 70
    32
  0
VERTEX
  5
7E3
  8
0
 62
     2
 10
43.551200000000001
 20
130.8768
 30
0.0
 70
    32
  0
VERTEX
  5
7E4
  8
0
 62
     2
 10
43.696800000000003
 20
133.30279999999999
 30
0.0
 70
    32
  0
VERTEX
  5
7E5
  8
0
 62
     2
 10
43.719200000000001
 20
135.45599999999999
 30
0.0
 70
    32
  0
VERTEX
  5
7E6
  8
0
 62
     2
 10
43.628
 20
137.3528
 30
0.0
 70
    32
  0
VERTEX
  5
7E7
  8
0
 62
     2
 10
43.4328
 20
139.00960000000001
 30
0.0
 70
    32
  0
VERTEX
  5
7E8
  8
0
 62
     2
 10
43.142800000000001
 20
140.44239999999999
 30
0.0
 70
    32
  0
VERTEX
  5
7E9
  8
0
 62
     2
 10
42.768000000000001
 20
141.66759999999999
 30
0.0
 70
    32
  0
VERTEX
  5
7EA
  8
0
 62
     2
 10
42.317999999999991
 20
142.7012
 30
0.0
 70
    32
  0
VERTEX
  5
7EB
  8
0
 62
     2
 10
41.802
 20
143.56
 30
0.0
 70
    32
  0
VERTEX
  5
7EC
  8
0
 62
     2
 10
41.229999999999997
 20
144.25999999999999
 30
0.0
 70
    32
  0
VERTEX
  5
7ED
  8
0
 62
     2
 10
40.61119999999999
 20
144.8176
 30
0.0
 70
    32
  0
VERTEX
  5
7EE
  8
0
 62
     2
 10
39.955680000000001
 20
145.2492
 30
0.0
 70
    32
  0
VERTEX
  5
7EF
  8
0
 62
     2
 10
39.27252
 20
145.57079999999999
 30
0.0
 70
    32
  0
VERTEX
  5
7F0
  8
0
 62
     2
 10
38.57152
 20
145.7988
 30
0.0
 70
    32
  0
VERTEX
  5
7F1
  8
0
 62
     2
 10
37.86224
 20
145.94919999999999
 30
0.0
 70
    32
  0
VERTEX
  5
7F2
  8
0
 62
     2
 10
37.154240000000001
 20
146.03880000000001
 30
0.0
 70
    32
  0
VERTEX
  5
7F3
  8
0
 62
     2
 10
36.453879999999998
 20
146.07759999999999
 30
0.0
 70
    32
  0
VERTEX
  5
7F4
  8
0
 62
     2
 10
35.761920000000011
 20
146.06559999999999
 30
0.0
 70
    32
  0
VERTEX
  5
7F5
  8
0
 62
     2
 10
35.078679999999999
 20
146.00200000000001
 30
0.0
 70
    32
  0
VERTEX
  5
7F6
  8
0
 62
     2
 10
34.404359999999997
 20
145.88560000000001
 30
0.0
 70
    32
  0
VERTEX
  5
7F7
  8
0
 62
     2
 10
33.739199999999997
 20
145.71559999999999
 30
0.0
 70
    32
  0
VERTEX
  5
7F8
  8
0
 62
     2
 10
33.083399999999997
 20
145.49080000000001
 30
0.0
 70
    32
  0
VERTEX
  5
7F9
  8
0
 62
     2
 10
32.437199999999997
 20
145.21039999999999
 30
0.0
 70
    32
  0
VERTEX
  5
7FA
  8
0
 62
     2
 10
31.800879999999999
 20
144.87280000000001
 30
0.0
 70
    32
  0
VERTEX
  5
7FB
  8
0
 62
     2
 10
31.174679999999999
 20
144.4776
 30
0.0
 70
    32
  0
VERTEX
  5
7FC
  8
0
 62
     2
 10
30.558759999999999
 20
144.024
 30
0.0
 70
    32
  0
VERTEX
  5
7FD
  8
0
 62
     2
 10
29.953399999999998
 20
143.50999999999999
 30
0.0
 70
    32
  0
VERTEX
  5
7FE
  8
0
 62
     2
 10
29.358840000000001
 20
142.93559999999999
 30
0.0
 70
    32
  0
VERTEX
  5
7FF
  8
0
 62
     2
 10
28.775320000000001
 20
142.29920000000001
 30
0.0
 70
    32
  0
VERTEX
  5
800
  8
0
 62
     2
 10
28.203040000000001
 20
141.59999999999999
 30
0.0
 70
    32
  0
VERTEX
  5
801
  8
0
 62
     2
 10
27.64228
 20
140.8372
 30
0.0
 70
    32
  0
VERTEX
  5
802
  8
0
 62
     2
 10
27.093240000000002
 20
140.00919999999999
 30
0.0
 70
    32
  0
VERTEX
  5
803
  8
0
 62
     2
 10
26.556159999999998
 20
139.1156
 30
0.0
 70
    32
  0
VERTEX
  5
804
  8
0
 62
     2
 10
26.031279999999999
 20
138.15479999999999
 30
0.0
 70
    32
  0
VERTEX
  5
805
  8
0
 62
     2
 10
25.518840000000001
 20
137.12639999999999
 30
0.0
 70
    32
  0
VERTEX
  5
806
  8
0
 62
     2
 10
25.019079999999999
 20
136.0292
 30
0.0
 70
    32
  0
VERTEX
  5
807
  8
0
 62
     2
 10
24.532240000000002
 20
134.86160000000001
 30
0.0
 70
    32
  0
VERTEX
  5
808
  8
0
 62
     2
 10
24.058479999999999
 20
133.62360000000001
 30
0.0
 70
    32
  0
VERTEX
  5
809
  8
0
 62
     2
 10
23.59816
 20
132.31319999999999
 30
0.0
 70
    32
  0
VERTEX
  5
80A
  8
0
 62
     2
 10
23.151399999999999
 20
130.93039999999999
 30
0.0
 70
    32
  0
VERTEX
  5
80B
  8
0
 62
     2
 10
22.718520000000002
 20
129.47319999999999
 30
0.0
 70
    32
  0
VERTEX
  5
80C
  8
0
 62
     2
 10
22.299679999999999
 20
127.94119999999999
 30
0.0
 70
    32
  0
VERTEX
  5
80D
  8
0
 62
     2
 10
21.895160000000001
 20
126.33320000000001
 30
0.0
 70
    32
  0
VERTEX
  5
80E
  8
0
 62
     2
 10
21.505199999999999
 20
124.6484
 30
0.0
 70
    32
  0
VERTEX
  5
80F
  8
0
 62
     2
 10
21.130040000000001
 20
122.8856
 30
0.0
 70
    32
  0
VERTEX
  5
810
  8
0
 62
     2
 10
20.769839999999999
 20
121.0436
 30
0.0
 70
    32
  0
VERTEX
  5
811
  8
0
 62
     2
 10
20.42492
 20
119.1216
 30
0.0
 70
    32
  0
VERTEX
  5
812
  8
0
 62
     2
 10
20.09552
 20
117.11839999999999
 30
0.0
 70
    32
  0
VERTEX
  5
813
  8
0
 62
     2
 10
19.7818
 20
115.03360000000001
 30
0.0
 70
    32
  0
VERTEX
  5
814
  8
0
 62
     2
 10
19.48404
 20
112.8652
 30
0.0
 70
    32
  0
VERTEX
  5
815
  8
0
 62
     2
 10
19.202439999999999
 20
110.61360000000001
 30
0.0
 70
    32
  0
VERTEX
  5
816
  8
0
 62
     2
 10
18.93704
 20
108.2804
 30
0.0
 70
    32
  0
VERTEX
  5
817
  8
0
 62
     2
 10
18.687639999999998
 20
105.872
 30
0.0
 70
    32
  0
VERTEX
  5
818
  8
0
 62
     2
 10
18.454000000000001
 20
103.39400000000001
 30
0.0
 70
    32
  0
VERTEX
  5
819
  8
0
 62
     2
 10
18.235959999999999
 20
100.8524
 30
0.0
 70
    32
  0
VERTEX
  5
81A
  8
0
 62
     2
 10
18.03332
 20
98.252399999999994
 30
0.0
 70
    32
  0
VERTEX
  5
81B
  8
0
 62
     2
 10
17.845880000000001
 20
95.600800000000007
 30
0.0
 70
    32
  0
VERTEX
  5
81C
  8
0
 62
     2
 10
17.673480000000001
 20
92.9024
 30
0.0
 70
    32
  0
VERTEX
  5
81D
  8
0
 62
     2
 10
17.515879999999999
 20
90.163200000000003
 30
0.0
 70
    32
  0
VERTEX
  5
81E
  8
0
 62
     2
 10
17.372920000000001
 20
87.389600000000002
 30
0.0
 70
    32
  0
VERTEX
  5
81F
  8
0
 62
     2
 10
17.24436
 20
84.586799999999997
 30
0.0
 70
    32
  0
VERTEX
  5
820
  8
0
 62
     2
 10
17.13008
 20
81.760800000000003
 30
0.0
 70
    32
  0
VERTEX
  5
821
  8
0
 62
     2
 10
17.02984
 20
78.917599999999993
 30
0.0
 70
    32
  0
VERTEX
  5
822
  8
0
 62
     2
 10
16.9434
 20
76.062799999999996
 30
0.0
 70
    32
  0
VERTEX
  5
823
  8
0
 62
     2
 10
16.870640000000002
 20
73.201999999999984
 30
0.0
 70
    32
  0
VERTEX
  5
824
  8
0
 62
     2
 10
16.811360000000001
 20
70.341200000000001
 30
0.0
 70
    32
  0
VERTEX
  5
825
  8
0
 62
     2
 10
16.765319999999999
 20
67.486400000000003
 30
0.0
 70
    32
  0
VERTEX
  5
826
  8
0
 62
     2
 10
16.73236
 20
64.642799999999994
 30
0.0
 70
    32
  0
VERTEX
  5
827
  8
0
 62
     2
 10
16.71228
 20
61.816800000000001
 30
0.0
 70
    32
  0
VERTEX
  5
828
  8
0
 62
     2
 10
16.704920000000001
 20
59.014000000000003
 30
0.0
 70
    32
  0
VERTEX
  5
829
  8
0
 62
     2
 10
16.710000000000001
 20
56.240400000000001
 30
0.0
 70
    32
  0
VERTEX
  5
82A
  8
0
 62
     2
 10
16.727399999999999
 20
53.501199999999997
 30
0.0
 70
    32
  0
VERTEX
  5
82B
  8
0
 62
     2
 10
16.756879999999999
 20
50.802799999999998
 30
0.0
 70
    32
  0
VERTEX
  5
82C
  8
0
 62
     2
 10
16.798279999999998
 20
48.150799999999997
 30
0.0
 70
    32
  0
VERTEX
  5
82D
  8
0
 62
     2
 10
16.851400000000002
 20
45.550800000000002
 30
0.0
 70
    32
  0
VERTEX
  5
82E
  8
0
 62
     2
 10
16.916
 20
43.008800000000001
 30
0.0
 70
    32
  0
VERTEX
  5
82F
  8
0
 62
     2
 10
16.991959999999999
 20
40.5304
 30
0.0
 70
    32
  0
VERTEX
  5
830
  8
0
 62
     2
 10
17.079039999999999
 20
38.121960000000001
 30
0.0
 70
    32
  0
VERTEX
  5
831
  8
0
 62
     2
 10
17.17708
 20
35.788719999999998
 30
0.0
 70
    32
  0
VERTEX
  5
832
  8
0
 62
     2
 10
17.28584
 20
33.536640000000013
 30
0.0
 70
    32
  0
VERTEX
  5
833
  8
0
 62
     2
 10
17.405159999999999
 20
31.371479999999998
 30
0.0
 70
    32
  0
VERTEX
  5
834
  8
0
 62
     2
 10
17.534800000000001
 20
29.299119999999998
 30
0.0
 70
    32
  0
VERTEX
  5
835
  8
0
 62
     2
 10
17.67464
 20
27.325320000000001
 30
0.0
 70
    32
  0
VERTEX
  5
836
  8
0
 62
     2
 10
17.824400000000001
 20
25.455839999999998
 30
0.0
 70
    32
  0
VERTEX
  5
837
  8
0
 62
     2
 10
17.98396
 20
23.696560000000002
 30
0.0
 70
    32
  0
VERTEX
  5
838
  8
0
 62
     2
 10
18.153079999999999
 20
22.05228
 30
0.0
 70
    32
  0
VERTEX
  5
839
  8
0
 62
     2
 10
18.331240000000001
 20
20.522480000000002
 30
0.0
 70
    32
  0
VERTEX
  5
83A
  8
0
 62
     2
 10
18.517959999999999
 20
19.104320000000001
 30
0.0
 70
    32
  0
VERTEX
  5
83B
  8
0
 62
     2
 10
18.71264
 20
17.795120000000001
 30
0.0
 70
    32
  0
VERTEX
  5
83C
  8
0
 62
     2
 10
18.914719999999999
 20
16.592120000000001
 30
0.0
 70
    32
  0
VERTEX
  5
83D
  8
0
 62
     2
 10
19.123719999999999
 20
15.492599999999999
 30
0.0
 70
    32
  0
VERTEX
  5
83E
  8
0
 62
     2
 10
19.339040000000001
 20
14.4938
 30
0.0
 70
    32
  0
VERTEX
  5
83F
  8
0
 62
     2
 10
19.560120000000001
 20
13.59296
 30
0.0
 70
    32
  0
VERTEX
  5
840
  8
0
 62
     2
 10
19.786439999999999
 20
12.78736
 30
0.0
 70
    32
  0
VERTEX
  5
841
  8
0
 62
     2
 10
20.017399999999999
 20
12.07424
 30
0.0
 70
    32
  0
VERTEX
  5
842
  8
0
 62
     2
 10
20.252520000000001
 20
11.45092
 30
0.0
 70
    32
  0
VERTEX
  5
843
  8
0
 62
     2
 10
20.491240000000001
 20
10.91456
 30
0.0
 70
    32
  0
VERTEX
  5
844
  8
0
 62
     2
 10
20.732959999999999
 20
10.46252
 30
0.0
 70
    32
  0
VERTEX
  5
845
  8
0
 62
     2
 10
20.977119999999999
 20
10.09196
 30
0.0
 70
    32
  0
VERTEX
  5
846
  8
0
 62
     2
 10
21.223240000000001
 20
9.8002399999999987
 30
0.0
 70
    32
  0
VERTEX
  5
847
  8
0
 62
     2
 10
21.470759999999999
 20
9.5845199999999995
 30
0.0
 70
    32
  0
VERTEX
  5
848
  8
0
 62
     2
 10
21.719080000000002
 20
9.4421199999999992
 30
0.0
 70
    32
  0
VERTEX
  5
849
  8
0
 62
     2
 10
21.967680000000001
 20
9.3703199999999995
 30
0.0
 70
    32
  0
VERTEX
  5
84A
  8
0
 62
     2
 10
22.216000000000001
 20
9.3662799999999997
 30
0.0
 70
    32
  0
VERTEX
  5
84B
  8
0
 62
     2
 10
22.463480000000001
 20
9.4273600000000002
 30
0.0
 70
    32
  0
VERTEX
  5
84C
  8
0
 62
     2
 10
22.709599999999998
 20
9.5507600000000004
 30
0.0
 70
    32
  0
VERTEX
  5
84D
  8
0
 62
     2
 10
22.953800000000001
 20
9.7337600000000002
 30
0.0
 70
    32
  0
VERTEX
  5
84E
  8
0
 62
     2
 10
23.195519999999998
 20
9.9736399999999996
 30
0.0
 70
    32
  0
VERTEX
  5
84F
  8
0
 62
     2
 10
23.434200000000001
 20
10.2676
 30
0.0
 70
    32
  0
VERTEX
  5
850
  8
0
 62
     2
 10
23.669319999999999
 20
10.612959999999999
 30
0.0
 70
    32
  0
VERTEX
  5
851
  8
0
 62
     2
 10
23.900320000000001
 20
11.006919999999999
 30
0.0
 70
    32
  0
VERTEX
  5
852
  8
0
 62
     2
 10
24.126639999999998
 20
11.4468
 30
0.0
 70
    32
  0
VERTEX
  5
853
  8
0
 62
     2
 10
24.34772000000001
 20
11.9298
 30
0.0
 70
    32
  0
VERTEX
  5
854
  8
0
 62
     2
 10
24.563040000000001
 20
12.453200000000001
 30
0.0
 70
    32
  0
VERTEX
  5
855
  8
0
 62
     2
 10
24.771999999999998
 20
13.014279999999999
 30
0.0
 70
    32
  0
VERTEX
  5
856
  8
0
 62
     2
 10
24.97412000000001
 20
13.610279999999999
 30
0.0
 70
    32
  0
VERTEX
  5
857
  8
0
 62
     2
 10
25.168800000000001
 20
14.238479999999999
 30
0.0
 70
    32
  0
VERTEX
  5
858
  8
0
 62
     2
 10
25.35548
 20
14.89612
 30
0.0
 70
    32
  0
VERTEX
  5
859
  8
0
 62
     2
 10
25.53368
 20
15.580439999999999
 30
0.0
 70
    32
  0
VERTEX
  5
85A
  8
0
 62
     2
 10
25.702760000000001
 20
16.288720000000001
 30
0.0
 70
    32
  0
VERTEX
  5
85B
  8
0
 62
     2
 10
25.8626
 20
17.018599999999999
 30
0.0
 70
    32
  0
VERTEX
  5
85C
  8
0
 62
     2
 10
26.013920000000009
 20
17.76896
 30
0.0
 70
    32
  0
VERTEX
  5
85D
  8
0
 62
     2
 10
26.157640000000001
 20
18.538640000000001
 30
0.0
 70
    32
  0
VERTEX
  5
85E
  8
0
 62
     2
 10
26.294640000000001
 20
19.32668
 30
0.0
 70
    32
  0
VERTEX
  5
85F
  8
0
 62
     2
 10
26.425840000000001
 20
20.132000000000001
 30
0.0
 70
    32
  0
VERTEX
  5
860
  8
0
 62
     2
 10
26.552160000000001
 20
20.95356
 30
0.0
 70
    32
  0
VERTEX
  5
861
  8
0
 62
     2
 10
26.674520000000001
 20
21.790320000000001
 30
0.0
 70
    32
  0
VERTEX
  5
862
  8
0
 62
     2
 10
26.793800000000001
 20
22.641200000000001
 30
0.0
 70
    32
  0
VERTEX
  5
863
  8
0
 62
     2
 10
26.910879999999999
 20
23.505240000000001
 30
0.0
 70
    32
  0
VERTEX
  5
864
  8
0
 62
     2
 10
27.026720000000001
 20
24.381360000000001
 30
0.0
 70
    32
  0
VERTEX
  5
865
  8
0
 62
     2
 10
27.142199999999999
 20
25.26848
 30
0.0
 70
    32
  0
VERTEX
  5
866
  8
0
 62
     2
 10
27.258199999999999
 20
26.165600000000001
 30
0.0
 70
    32
  0
VERTEX
  5
867
  8
0
 62
     2
 10
27.375679999999999
 20
27.071640000000009
 30
0.0
 70
    32
  0
VERTEX
  5
868
  8
0
 62
     2
 10
27.495519999999999
 20
27.985600000000002
 30
0.0
 70
    32
  0
VERTEX
  5
869
  8
0
 62
     2
 10
27.618600000000001
 20
28.906400000000001
 30
0.0
 70
    32
  0
VERTEX
  5
86A
  8
0
 62
     2
 10
27.74588
 20
29.83304
 30
0.0
 70
    32
  0
VERTEX
  5
86B
  8
0
 62
     2
 10
27.878240000000002
 20
30.76444
 30
0.0
 70
    32
  0
VERTEX
  5
86C
  8
0
 62
     2
 10
28.016559999999998
 20
31.699560000000002
 30
0.0
 70
    32
  0
VERTEX
  5
86D
  8
0
 62
     2
 10
28.161799999999999
 20
32.6374
 30
0.0
 70
    32
  0
VERTEX
  5
86E
  8
0
 62
     2
 10
28.314840000000011
 20
33.576840000000011
 30
0.0
 70
    32
  0
VERTEX
  5
86F
  8
0
 62
     2
 10
28.476559999999999
 20
34.516919999999999
 30
0.0
 70
    32
  0
VERTEX
  5
870
  8
0
 62
     2
 10
28.647880000000001
 20
35.456519999999998
 30
0.0
 70
    32
  0
VERTEX
  5
871
  8
0
 62
     2
 10
28.829719999999998
 20
36.394640000000003
 30
0.0
 70
    32
  0
VERTEX
  5
872
  8
0
 62
     2
 10
29.023
 20
37.330280000000002
 30
0.0
 70
    32
  0
VERTEX
  5
873
  8
0
 62
     2
 10
29.2286
 20
38.262279999999997
 30
0.0
 70
    32
  0
VERTEX
  5
874
  8
0
 62
     2
 10
29.44744
 20
39.189720000000001
 30
0.0
 70
    32
  0
VERTEX
  5
875
  8
0
 62
     2
 10
29.680440000000001
 20
40.111600000000003
 30
0.0
 70
    32
  0
VERTEX
  5
876
  8
0
 62
     2
 10
29.928439999999998
 20
41.026400000000002
 30
0.0
 70
    32
  0
VERTEX
  5
877
  8
0
 62
     2
 10
30.192399999999999
 20
41.93399999999999
 30
0.0
 70
    32
  0
VERTEX
  5
878
  8
0
 62
     2
 10
30.473240000000011
 20
42.8324
 30
0.0
 70
    32
  0
VERTEX
  5
879
  8
0
 62
     2
 10
30.771840000000001
 20
43.721200000000003
 30
0.0
 70
    32
  0
VERTEX
  5
87A
  8
0
 62
     2
 10
31.089120000000001
 20
44.598799999999997
 30
0.0
 70
    32
  0
VERTEX
  5
87B
  8
0
 62
     2
 10
31.42596
 20
45.46479999999999
 30
0.0
 70
    32
  0
VERTEX
  5
87C
  8
0
 62
     2
 10
31.783280000000001
 20
46.317599999999992
 30
0.0
 70
    32
  0
VERTEX
  5
87D
  8
0
 62
     2
 10
32.161960000000001
 20
47.15679999999999
 30
0.0
 70
    32
  0
VERTEX
  5
87E
  8
0
 62
     2
 10
32.562159999999999
 20
47.980800000000002
 30
0.0
 70
    32
  0
VERTEX
  5
87F
  8
0
 62
     2
 10
32.98312
 20
48.7896
 30
0.0
 70
    32
  0
VERTEX
  5
880
  8
0
 62
     2
 10
33.423999999999999
 20
49.582000000000001
 30
0.0
 70
    32
  0
VERTEX
  5
881
  8
0
 62
     2
 10
33.884039999999999
 20
50.357599999999991
 30
0.0
 70
    32
  0
VERTEX
  5
882
  8
0
 62
     2
 10
34.362360000000002
 20
51.116
 30
0.0
 70
    32
  0
VERTEX
  5
883
  8
0
 62
     2
 10
34.858240000000002
 20
51.856400000000001
 30
0.0
 70
    32
  0
VERTEX
  5
884
  8
0
 62
     2
 10
35.370800000000003
 20
52.578000000000003
 30
0.0
 70
    32
  0
VERTEX
  5
885
  8
0
 62
     2
 10
35.899279999999997
 20
53.2804
 30
0.0
 70
    32
  0
VERTEX
  5
886
  8
0
 62
     2
 10
36.442840000000011
 20
53.962800000000001
 30
0.0
 70
    32
  0
VERTEX
  5
887
  8
0
 62
     2
 10
37.000640000000011
 20
54.6248
 30
0.0
 70
    32
  0
VERTEX
  5
888
  8
0
 62
     2
 10
37.571959999999997
 20
55.265599999999992
 30
0.0
 70
    32
  0
VERTEX
  5
889
  8
0
 62
     2
 10
38.155920000000002
 20
55.884799999999998
 30
0.0
 70
    32
  0
VERTEX
  5
88A
  8
0
 62
     2
 10
38.751719999999999
 20
56.481200000000001
 30
0.0
 70
    32
  0
VERTEX
  5
88B
  8
0
 62
     2
 10
39.358600000000003
 20
57.0548
 30
0.0
 70
    32
  0
VERTEX
  5
88C
  8
0
 62
     2
 10
39.975679999999997
 20
57.604399999999998
 30
0.0
 70
    32
  0
VERTEX
  5
88D
  8
0
 62
     2
 10
40.601999999999997
 20
58.130000000000003
 30
0.0
 70
    32
  0
VERTEX
  5
88E
  8
0
 62
     2
 10
41.237200000000001
 20
58.630400000000002
 30
0.0
 70
    32
  0
VERTEX
  5
88F
  8
0
 62
     2
 10
41.880399999999987
 20
59.105200000000004
 30
0.0
 70
    32
  0
VERTEX
  5
890
  8
0
 62
     2
 10
42.530000000000001
 20
59.554000000000002
 30
0.0
 70
    32
  0
VERTEX
  5
891
  8
0
 62
     2
 10
43.186399999999999
 20
59.9756
 30
0.0
 70
    32
  0
VERTEX
  5
892
  8
0
 62
     2
 10
43.847599999999993
 20
60.36999999999999
 30
0.0
 70
    32
  0
VERTEX
  5
893
  8
0
 62
     2
 10
44.514000000000003
 20
60.73640000000001
 30
0.0
 70
    32
  0
VERTEX
  5
894
  8
0
 62
     2
 10
45.183599999999998
 20
61.073999999999998
 30
0.0
 70
    32
  0
VERTEX
  5
895
  8
0
 62
     2
 10
45.856400000000001
 20
61.381999999999998
 30
0.0
 70
    32
  0
VERTEX
  5
896
  8
0
 62
     2
 10
46.53159999999999
 20
61.659999999999997
 30
0.0
 70
    32
  0
VERTEX
  5
897
  8
0
 62
     2
 10
47.207599999999999
 20
61.907600000000002
 30
0.0
 70
    32
  0
VERTEX
  5
898
  8
0
 62
     2
 10
47.884399999999999
 20
62.124000000000002
 30
0.0
 70
    32
  0
VERTEX
  5
899
  8
0
 62
     2
 10
48.5608
 20
62.308
 30
0.0
 70
    32
  0
VERTEX
  5
89A
  8
0
 62
     2
 10
49.236400000000003
 20
62.460000000000001
 30
0.0
 70
    32
  0
VERTEX
  5
89B
  8
0
 62
     2
 10
49.909999999999989
 20
62.578800000000001
 30
0.0
 70
    32
  0
VERTEX
  5
89C
  8
0
 62
     2
 10
50.580800000000004
 20
62.663600000000002
 30
0.0
 70
    32
  0
VERTEX
  5
89D
  8
0
 62
     2
 10
51.247999999999998
 20
62.713999999999992
 30
0.0
 70
    32
  0
VERTEX
  5
89E
  8
0
 62
     2
 10
51.910800000000002
 20
62.729199999999999
 30
0.0
 70
    32
  0
VERTEX
  5
89F
  8
0
 62
     2
 10
52.568800000000003
 20
62.709200000000003
 30
0.0
 70
    32
  0
VERTEX
  5
8A0
  8
0
 62
     2
 10
53.220399999999998
 20
62.6524
 30
0.0
 70
    32
  0
VERTEX
  5
8A1
  8
0
 62
     2
 10
53.866
 20
62.560000000000002
 30
0.0
 70
    32
  0
VERTEX
  5
8A2
  8
0
 62
     2
 10
54.504800000000003
 20
62.431600000000003
 30
0.0
 70
    32
  0
VERTEX
  5
8A3
  8
0
 62
     2
 10
55.136800000000001
 20
62.2684
 30
0.0
 70
    32
  0
VERTEX
  5
8A4
  8
0
 62
     2
 10
55.761600000000001
 20
62.070399999999999
 30
0.0
 70
    32
  0
VERTEX
  5
8A5
  8
0
 62
     2
 10
56.378799999999998
 20
61.8384
 30
0.0
 70
    32
  0
VERTEX
  5
8A6
  8
0
 62
     2
 10
56.988399999999999
 20
61.572800000000001
 30
0.0
 70
    32
  0
VERTEX
  5
8A7
  8
0
 62
     2
 10
57.590000000000003
 20
61.274000000000001
 30
0.0
 70
    32
  0
VERTEX
  5
8A8
  8
0
 62
     2
 10
58.183199999999992
 20
60.942799999999998
 30
0.0
 70
    32
  0
VERTEX
  5
8A9
  8
0
 62
     2
 10
58.767600000000002
 20
60.579599999999999
 30
0.0
 70
    32
  0
VERTEX
  5
8AA
  8
0
 62
     2
 10
59.343600000000002
 20
60.184800000000003
 30
0.0
 70
    32
  0
VERTEX
  5
8AB
  8
0
 62
     2
 10
59.909999999999989
 20
59.758800000000001
 30
0.0
 70
    32
  0
VERTEX
  5
8AC
  8
0
 62
     2
 10
60.467199999999998
 20
59.302399999999999
 30
0.0
 70
    32
  0
VERTEX
  5
8AD
  8
0
 62
     2
 10
61.014800000000001
 20
58.816000000000003
 30
0.0
 70
    32
  0
VERTEX
  5
8AE
  8
0
 62
     2
 10
61.552399999999999
 20
58.299999999999997
 30
0.0
 70
    32
  0
VERTEX
  5
8AF
  8
0
 62
     2
 10
62.079599999999992
 20
57.755200000000002
 30
0.0
 70
    32
  0
VERTEX
  5
8B0
  8
0
 62
     2
 10
62.596800000000002
 20
57.18160000000001
 30
0.0
 70
    32
  0
VERTEX
  5
8B1
  8
0
 62
     2
 10
63.102800000000002
 20
56.58039999999999
 30
0.0
 70
    32
  0
VERTEX
  5
8B2
  8
0
 62
     2
 10
63.597999999999992
 20
55.951599999999992
 30
0.0
 70
    32
  0
VERTEX
  5
8B3
  8
0
 62
     2
 10
64.081599999999995
 20
55.2956
 30
0.0
 70
    32
  0
VERTEX
  5
8B4
  8
0
 62
     2
 10
64.553600000000003
 20
54.613599999999991
 30
0.0
 70
    32
  0
VERTEX
  5
8B5
  8
0
 62
     2
 10
65.013999999999996
 20
53.905200000000001
 30
0.0
 70
    32
  0
VERTEX
  5
8B6
  8
0
 62
     2
 10
65.462000000000003
 20
53.171599999999998
 30
0.0
 70
    32
  0
VERTEX
  5
8B7
  8
0
 62
     2
 10
65.897599999999997
 20
52.413200000000003
 30
0.0
 70
    32
  0
VERTEX
  5
8B8
  8
0
 62
     2
 10
66.320800000000006
 20
51.630000000000003
 30
0.0
 70
    32
  0
VERTEX
  5
8B9
  8
0
 62
     2
 10
66.730400000000003
 20
50.8232
 30
0.0
 70
    32
  0
VERTEX
  5
8BA
  8
0
 62
     2
 10
67.127200000000002
 20
49.992800000000003
 30
0.0
 70
    32
  0
VERTEX
  5
8BB
  8
0
 62
     2
 10
67.510400000000004
 20
49.139600000000002
 30
0.0
 70
    32
  0
VERTEX
  5
8BC
  8
0
 62
     2
 10
67.879999999999995
 20
48.264000000000003
 30
0.0
 70
    32
  0
VERTEX
  5
8BD
  8
0
 62
     2
 10
68.235200000000006
 20
47.366799999999991
 30
0.0
 70
    32
  0
VERTEX
  5
8BE
  8
0
 62
     2
 10
68.576400000000007
 20
46.448
 30
0.0
 70
    32
  0
VERTEX
  5
8BF
  8
0
 62
     2
 10
68.9024
 20
45.508399999999988
 30
0.0
 70
    32
  0
VERTEX
  5
8C0
  8
0
 62
     2
 10
69.213999999999999
 20
44.548399999999987
 30
0.0
 70
    32
  0
VERTEX
  5
8C1
  8
0
 62
     2
 10
69.510400000000004
 20
43.568800000000003
 30
0.0
 70
    32
  0
VERTEX
  5
8C2
  8
0
 62
     2
 10
69.791200000000003
 20
42.569600000000001
 30
0.0
 70
    32
  0
VERTEX
  5
8C3
  8
0
 62
     2
 10
70.056399999999996
 20
41.551999999999992
 30
0.0
 70
    32
  0
VERTEX
  5
8C4
  8
0
 62
     2
 10
70.307199999999995
 20
40.516800000000003
 30
0.0
 70
    32
  0
VERTEX
  5
8C5
  8
0
 62
     2
 10
70.544399999999996
 20
39.466520000000003
 30
0.0
 70
    32
  0
VERTEX
  5
8C6
  8
0
 62
     2
 10
70.769599999999997
 20
38.402279999999998
 30
0.0
 70
    32
  0
VERTEX
  5
8C7
  8
0
 62
     2
 10
70.983199999999997
 20
37.325800000000001
 30
0.0
 70
    32
  0
VERTEX
  5
8C8
  8
0
 62
     2
 10
71.187200000000004
 20
36.238759999999999
 30
0.0
 70
    32
  0
VERTEX
  5
8C9
  8
0
 62
     2
 10
71.382400000000004
 20
35.142800000000001
 30
0.0
 70
    32
  0
VERTEX
  5
8CA
  8
0
 62
     2
 10
71.569599999999994
 20
34.039559999999987
 30
0.0
 70
    32
  0
VERTEX
  5
8CB
  8
0
 62
     2
 10
71.750799999999998
 20
32.930759999999999
 30
0.0
 70
    32
  0
VERTEX
  5
8CC
  8
0
 62
     2
 10
71.926000000000002
 20
31.817959999999999
 30
0.0
 70
    32
  0
VERTEX
  5
8CD
  8
0
 62
     2
 10
72.097200000000001
 20
30.702839999999998
 30
0.0
 70
    32
  0
VERTEX
  5
8CE
  8
0
 62
     2
 10
72.265600000000006
 20
29.587039999999998
 30
0.0
 70
    32
  0
VERTEX
  5
8CF
  8
0
 62
     2
 10
72.431600000000003
 20
28.472280000000001
 30
0.0
 70
    32
  0
VERTEX
  5
8D0
  8
0
 62
     2
 10
72.597200000000001
 20
27.360119999999998
 30
0.0
 70
    32
  0
VERTEX
  5
8D1
  8
0
 62
     2
 10
72.762799999999984
 20
26.252240000000011
 30
0.0
 70
    32
  0
VERTEX
  5
8D2
  8
0
 62
     2
 10
72.930000000000007
 20
25.150320000000001
 30
0.0
 70
    32
  0
VERTEX
  5
8D3
  8
0
 62
     2
 10
73.099999999999994
 20
24.055959999999999
 30
0.0
 70
    32
  0
VERTEX
  5
8D4
  8
0
 62
     2
 10
73.273600000000002
 20
22.970839999999999
 30
0.0
 70
    32
  0
VERTEX
  5
8D5
  8
0
 62
     2
 10
73.452399999999997
 20
21.896599999999999
 30
0.0
 70
    32
  0
VERTEX
  5
8D6
  8
0
 62
     2
 10
73.637200000000007
 20
20.83492
 30
0.0
 70
    32
  0
VERTEX
  5
8D7
  8
0
 62
     2
 10
73.8292
 20
19.787400000000002
 30
0.0
 70
    32
  0
VERTEX
  5
8D8
  8
0
 62
     2
 10
74.029600000000002
 20
18.75572
 30
0.0
 70
    32
  0
VERTEX
  5
8D9
  8
0
 62
     2
 10
74.239599999999996
 20
17.741520000000001
 30
0.0
 70
    32
  0
VERTEX
  5
8DA
  8
0
 62
     2
 10
74.459999999999994
 20
16.746479999999998
 30
0.0
 70
    32
  0
VERTEX
  5
8DB
  8
0
 62
     2
 10
74.692800000000005
 20
15.7722
 30
0.0
 70
    32
  0
VERTEX
  5
8DC
  8
0
 62
     2
 10
74.938000000000002
 20
14.820360000000001
 30
0.0
 70
    32
  0
VERTEX
  5
8DD
  8
0
 62
     2
 10
75.197999999999993
 20
13.8926
 30
0.0
 70
    32
  0
VERTEX
  5
8DE
  8
0
 62
     2
 10
75.472800000000007
 20
12.99056
 30
0.0
 70
    32
  0
VERTEX
  5
8DF
  8
0
 62
     2
 10
75.763999999999996
 20
12.115919999999999
 30
0.0
 70
    32
  0
VERTEX
  5
8E0
  8
0
 62
     2
 10
76.0732
 20
11.27032
 30
0.0
 70
    32
  0
VERTEX
  5
8E1
  8
0
 62
     2
 10
76.400800000000004
 20
10.455399999999999
 30
0.0
 70
    32
  0
VERTEX
  5
8E2
  8
0
 62
     2
 10
76.748400000000004
 20
9.6728000000000005
 30
0.0
 70
    32
  0
VERTEX
  5
8E3
  8
0
 62
     2
 10
77.116799999999998
 20
8.9242000000000008
 30
0.0
 70
    32
  0
VERTEX
  5
8E4
  8
0
 62
     2
 10
77.507599999999996
 20
8.2111999999999998
 30
0.0
 70
    32
  0
VERTEX
  5
8E5
  8
0
 62
     2
 10
77.921999999999997
 20
7.5355199999999991
 30
0.0
 70
    32
  0
VERTEX
  5
8E6
  8
0
 62
     2
 10
78.359999999999999
 20
6.8980399999999991
 30
0.0
 70
    32
  0
VERTEX
  5
8E7
  8
0
 62
     2
 10
78.821200000000005
 20
6.2986000000000004
 30
0.0
 70
    32
  0
VERTEX
  5
8E8
  8
0
 62
     2
 10
79.305599999999984
 20
5.7368399999999991
 30
0.0
 70
    32
  0
VERTEX
  5
8E9
  8
0
 62
     2
 10
79.811999999999998
 20
5.2124399999999991
 30
0.0
 70
    32
  0
VERTEX
  5
8EA
  8
0
 62
     2
 10
80.340400000000002
 20
4.725039999999999
 30
0.0
 70
    32
  0
VERTEX
  5
8EB
  8
0
 62
     2
 10
80.889600000000002
 20
4.2743199999999986
 30
0.0
 70
    32
  0
VERTEX
  5
8EC
  8
0
 62
     2
 10
81.459599999999995
 20
3.859939999999999
 30
0.0
 70
    32
  0
VERTEX
  5
8ED
  8
0
 62
     2
 10
82.049199999999985
 20
3.481544
 30
0.0
 70
    32
  0
VERTEX
  5
8EE
  8
0
 62
     2
 10
82.6584
 20
3.138803999999999
 30
0.0
 70
    32
  0
VERTEX
  5
8EF
  8
0
 62
     2
 10
83.2864
 20
2.8313799999999989
 30
0.0
 70
    32
  0
VERTEX
  5
8F0
  8
0
 62
     2
 10
83.932400000000001
 20
2.5589360000000001
 30
0.0
 70
    32
  0
VERTEX
  5
8F1
  8
0
 62
     2
 10
84.596000000000004
 20
2.321127999999999
 30
0.0
 70
    32
  0
VERTEX
  5
8F2
  8
0
 62
     2
 10
85.277199999999993
 20
2.117627999999999
 30
0.0
 70
    32
  0
VERTEX
  5
8F3
  8
0
 62
     2
 10
85.974400000000003
 20
1.948088
 30
0.0
 70
    32
  0
VERTEX
  5
8F4
  8
0
 62
     2
 10
86.687600000000003
 20
1.8121719999999999
 30
0.0
 70
    32
  0
VERTEX
  5
8F5
  8
0
 62
     2
 10
87.415999999999997
 20
1.7095400000000001
 30
0.0
 70
    32
  0
VERTEX
  5
8F6
  8
0
 62
     2
 10
88.159599999999998
 20
1.639856
 30
0.0
 70
    32
  0
VERTEX
  5
8F7
  8
0
 62
     2
 10
88.916799999999995
 20
1.6027839999999991
 30
0.0
 70
    32
  0
VERTEX
  5
8F8
  8
0
 62
     2
 10
89.687999999999988
 20
1.5979799999999991
 30
0.0
 70
    32
  0
VERTEX
  5
8F9
  8
0
 62
     2
 10
90.471999999999994
 20
1.6251079999999991
 30
0.0
 70
    32
  0
VERTEX
  5
8FA
  8
0
 62
     2
 10
91.268399999999986
 20
1.683827999999999
 30
0.0
 70
    32
  0
VERTEX
  5
8FB
  8
0
 62
     2
 10
92.076800000000006
 20
1.7738039999999999
 30
0.0
 70
    32
  0
VERTEX
  5
8FC
  8
0
 62
     2
 10
92.896799999999999
 20
1.894695999999999
 30
0.0
 70
    32
  0
VERTEX
  5
8FD
  8
0
 62
     2
 10
93.727199999999996
 20
2.0461680000000002
 30
0.0
 70
    32
  0
VERTEX
  5
8FE
  8
0
 62
     2
 10
94.567599999999999
 20
2.2278759999999989
 30
0.0
 70
    32
  0
VERTEX
  5
8FF
  8
0
 62
     2
 10
95.417599999999993
 20
2.4394879999999999
 30
0.0
 70
    32
  0
VERTEX
  5
900
  8
0
 62
     2
 10
96.276799999999994
 20
2.68066
 30
0.0
 70
    32
  0
VERTEX
  5
901
  8
0
 62
     2
 10
97.144000000000005
 20
2.9510519999999998
 30
0.0
 70
    32
  0
VERTEX
  5
902
  8
0
 62
     2
 10
98.019199999999998
 20
3.250335999999999
 30
0.0
 70
    32
  0
VERTEX
  5
903
  8
0
 62
     2
 10
98.902000000000001
 20
3.57816
 30
0.0
 70
    32
  0
VERTEX
  5
904
  8
0
 62
     2
 10
99.791200000000003
 20
3.934196
 30
0.0
 70
    32
  0
VERTEX
  5
905
  8
0
 62
     2
 10
100.68640000000001
 20
4.3181199999999986
 30
0.0
 70
    32
  0
VERTEX
  5
906
  8
0
 62
     2
 10
101.5872
 20
4.7295199999999991
 30
0.0
 70
    32
  0
VERTEX
  5
907
  8
0
 62
     2
 10
102.4928
 20
5.1681599999999994
 30
0.0
 70
    32
  0
VERTEX
  5
908
  8
0
 62
     2
 10
103.4028
 20
5.6336399999999989
 30
0.0
 70
    32
  0
VERTEX
  5
909
  8
0
 62
     2
 10
104.3168
 20
6.1253999999999991
 30
0.0
 70
    32
  0
VERTEX
  5
90A
  8
0
 62
     2
 10
105.23399999999999
 20
6.6426800000000004
 30
0.0
 70
    32
  0
VERTEX
  5
90B
  8
0
 62
     2
 10
106.1544
 20
7.1847599999999998
 30
0.0
 70
    32
  0
VERTEX
  5
90C
  8
0
 62
     2
 10
107.0776
 20
7.7508800000000004
 30
0.0
 70
    32
  0
VERTEX
  5
90D
  8
0
 62
     2
 10
108.00279999999999
 20
8.3402799999999981
 30
0.0
 70
    32
  0
VERTEX
  5
90E
  8
0
 62
     2
 10
108.93000000000001
 20
8.9522399999999998
 30
0.0
 70
    32
  0
VERTEX
  5
90F
  8
0
 62
     2
 10
109.8584
 20
9.5860399999999988
 30
0.0
 70
    32
  0
VERTEX
  5
910
  8
0
 62
     2
 10
110.788
 20
10.240880000000001
 30
0.0
 70
    32
  0
VERTEX
  5
911
  8
0
 62
     2
 10
111.718
 20
10.916040000000001
 30
0.0
 70
    32
  0
VERTEX
  5
912
  8
0
 62
     2
 10
112.648
 20
11.610799999999999
 30
0.0
 70
    32
  0
VERTEX
  5
913
  8
0
 62
     2
 10
113.578
 20
12.32436
 30
0.0
 70
    32
  0
VERTEX
  5
914
  8
0
 62
     2
 10
114.5072
 20
13.055999999999999
 30
0.0
 70
    32
  0
VERTEX
  5
915
  8
0
 62
     2
 10
115.43559999999999
 20
13.804959999999999
 30
0.0
 70
    32
  0
VERTEX
  5
916
  8
0
 62
     2
 10
116.36199999999999
 20
14.57056
 30
0.0
 70
    32
  0
VERTEX
  5
917
  8
0
 62
     2
 10
117.2868
 20
15.35196
 30
0.0
 70
    32
  0
VERTEX
  5
918
  8
0
 62
     2
 10
118.2092
 20
16.148479999999999
 30
0.0
 70
    32
  0
VERTEX
  5
919
  8
0
 62
     2
 10
119.1288
 20
16.959320000000002
 30
0.0
 70
    32
  0
VERTEX
  5
91A
  8
0
 62
     2
 10
120.04519999999999
 20
17.783799999999999
 30
0.0
 70
    32
  0
VERTEX
  5
91B
  8
0
 62
     2
 10
120.958
 20
18.621120000000001
 30
0.0
 70
    32
  0
VERTEX
  5
91C
  8
0
 62
     2
 10
121.8672
 20
19.470559999999999
 30
0.0
 70
    32
  0
VERTEX
  5
91D
  8
0
 62
     2
 10
122.77160000000001
 20
20.33136
 30
0.0
 70
    32
  0
VERTEX
  5
91E
  8
0
 62
     2
 10
123.6712
 20
21.2028
 30
0.0
 70
    32
  0
VERTEX
  5
91F
  8
0
 62
     2
 10
124.566
 20
22.084119999999999
 30
0.0
 70
    32
  0
VERTEX
  5
920
  8
0
 62
     2
 10
125.45480000000001
 20
22.97456
 30
0.0
 70
    32
  0
VERTEX
  5
921
  8
0
 62
     2
 10
126.33759999999999
 20
23.8734
 30
0.0
 70
    32
  0
VERTEX
  5
922
  8
0
 62
     2
 10
127.2136
 20
24.779879999999999
 30
0.0
 70
    32
  0
VERTEX
  5
923
  8
0
 62
     2
 10
128.08320000000001
 20
25.693239999999999
 30
0.0
 70
    32
  0
VERTEX
  5
924
  8
0
 62
     2
 10
128.9452
 20
26.612760000000002
 30
0.0
 70
    32
  0
VERTEX
  5
925
  8
0
 62
     2
 10
129.80000000000001
 20
27.537680000000002
 30
0.0
 70
    32
  0
VERTEX
  5
926
  8
0
 62
     2
 10
130.64599999999999
 20
28.467279999999999
 30
0.0
 70
    32
  0
VERTEX
  5
927
  8
0
 62
     2
 10
131.48400000000001
 20
29.400759999999998
 30
0.0
 70
    32
  0
VERTEX
  5
928
  8
0
 62
     2
 10
132.31280000000001
 20
30.337440000000001
 30
0.0
 70
    32
  0
VERTEX
  5
929
  8
0
 62
     2
 10
133.13239999999999
 20
31.276520000000001
 30
0.0
 70
    32
  0
VERTEX
  5
92A
  8
0
 62
     2
 10
133.94200000000001
 20
32.217280000000009
 30
0.0
 70
    32
  0
VERTEX
  5
92B
  8
0
 62
     2
 10
134.74119999999999
 20
33.15896
 30
0.0
 70
    32
  0
VERTEX
  5
92C
  8
0
 62
     2
 10
135.52879999999999
 20
34.100879999999997
 30
0.0
 70
    32
  0
VERTEX
  5
92D
  8
0
 62
     2
 10
136.30240000000001
 20
35.04224
 30
0.0
 70
    32
  0
VERTEX
  5
92E
  8
0
 62
     2
 10
137.0608
 20
35.98236
 30
0.0
 70
    32
  0
VERTEX
  5
92F
  8
0
 62
     2
 10
137.80160000000001
 20
36.920520000000003
 30
0.0
 70
    32
  0
VERTEX
  5
930
  8
0
 62
     2
 10
138.52359999999999
 20
37.855960000000003
 30
0.0
 70
    32
  0
VERTEX
  5
931
  8
0
 62
     2
 10
139.22399999999999
 20
38.787999999999997
 30
0.0
 70
    32
  0
VERTEX
  5
932
  8
0
 62
     2
 10
139.9016
 20
39.715879999999999
 30
0.0
 70
    32
  0
VERTEX
  5
933
  8
0
 62
     2
 10
140.55439999999999
 20
40.638800000000003
 30
0.0
 70
    32
  0
VERTEX
  5
934
  8
0
 62
     2
 10
141.18039999999999
 20
41.556399999999996
 30
0.0
 70
    32
  0
VERTEX
  5
935
  8
0
 62
     2
 10
141.7784
 20
42.467199999999991
 30
0.0
 70
    32
  0
VERTEX
  5
936
  8
0
 62
     2
 10
142.34559999999999
 20
43.371200000000002
 30
0.0
 70
    32
  0
VERTEX
  5
937
  8
0
 62
     2
 10
142.88079999999999
 20
44.267600000000002
 30
0.0
 70
    32
  0
VERTEX
  5
938
  8
0
 62
     2
 10
143.38159999999999
 20
45.155200000000001
 30
0.0
 70
    32
  0
VERTEX
  5
939
  8
0
 62
     2
 10
143.8468
 20
46.033999999999992
 30
0.0
 70
    32
  0
VERTEX
  5
93A
  8
0
 62
     2
 10
144.27440000000001
 20
46.9024
 30
0.0
 70
    32
  0
VERTEX
  5
93B
  8
0
 62
     2
 10
144.66200000000001
 20
47.760399999999997
 30
0.0
 70
    32
  0
VERTEX
  5
93C
  8
0
 62
     2
 10
145.00839999999999
 20
48.6068
 30
0.0
 70
    32
  0
VERTEX
  5
93D
  8
0
 62
     2
 10
145.31120000000001
 20
49.441200000000002
 30
0.0
 70
    32
  0
VERTEX
  5
93E
  8
0
 62
     2
 10
145.5692
 20
50.262799999999991
 30
0.0
 70
    32
  0
VERTEX
  5
93F
  8
0
 62
     2
 10
145.78
 20
51.070399999999999
 30
0.0
 70
    32
  0
VERTEX
  5
940
  8
0
 62
     2
 10
145.94200000000001
 20
51.86399999999999
 30
0.0
 70
    32
  0
VERTEX
  5
941
  8
0
 62
     2
 10
146.0532
 20
52.642800000000001
 30
0.0
 70
    32
  0
VERTEX
  5
942
  8
0
 62
     2
 10
146.11199999999999
 20
53.405599999999993
 30
0.0
 70
    32
  0
VERTEX
  5
943
  8
0
 62
     2
 10
146.11600000000001
 20
54.152000000000001
 30
0.0
 70
    32
  0
VERTEX
  5
944
  8
0
 62
     2
 10
146.06399999999999
 20
54.8812
 30
0.0
 70
    32
  0
VERTEX
  5
945
  8
0
 62
     2
 10
145.95400000000001
 20
55.592399999999991
 30
0.0
 70
    32
  0
VERTEX
  5
946
  8
0
 62
     2
 10
145.78399999999999
 20
56.28479999999999
 30
0.0
 70
    32
  0
VERTEX
  5
947
  8
0
 62
     2
 10
145.55199999999999
 20
56.957999999999998
 30
0.0
 70
    32
  0
VERTEX
  5
948
  8
0
 62
     2
 10
145.25640000000001
 20
57.611199999999997
 30
0.0
 70
    32
  0
VERTEX
  5
949
  8
0
 62
     2
 10
144.89519999999999
 20
58.243200000000002
 30
0.0
 70
    32
  0
VERTEX
  5
94A
  8
0
 62
     2
 10
144.46680000000001
 20
58.853999999999999
 30
0.0
 70
    32
  0
VERTEX
  5
94B
  8
0
 62
     2
 10
143.96879999999999
 20
59.442399999999999
 30
0.0
 70
    32
  0
VERTEX
  5
94C
  8
0
 62
     2
 10
143.40000000000001
 20
60.007599999999989
 30
0.0
 70
    32
  0
VERTEX
  5
94D
  8
0
 62
     2
 10
142.75800000000001
 20
60.549599999999998
 30
0.0
 70
    32
  0
VERTEX
  5
94E
  8
0
 62
     2
 10
142.04320000000001
 20
61.066800000000001
 30
0.0
 70
    32
  0
VERTEX
  5
94F
  8
0
 62
     2
 10
141.25800000000001
 20
61.558799999999991
 30
0.0
 70
    32
  0
VERTEX
  5
950
  8
0
 62
     2
 10
140.40639999999999
 20
62.025599999999997
 30
0.0
 70
    32
  0
VERTEX
  5
951
  8
0
 62
     2
 10
139.4932
 20
62.4664
 30
0.0
 70
    32
  0
VERTEX
  5
952
  8
0
 62
     2
 10
138.52119999999999
 20
62.880400000000002
 30
0.0
 70
    32
  0
VERTEX
  5
953
  8
0
 62
     2
 10
137.49520000000001
 20
63.267200000000003
 30
0.0
 70
    32
  0
VERTEX
  5
954
  8
0
 62
     2
 10
136.4188
 20
63.625999999999998
 30
0.0
 70
    32
  0
VERTEX
  5
955
  8
0
 62
     2
 10
135.29599999999999
 20
63.9572
 30
0.0
 70
    32
  0
VERTEX
  5
956
  8
0
 62
     2
 10
134.13040000000001
 20
64.258799999999994
 30
0.0
 70
    32
  0
VERTEX
  5
957
  8
0
 62
     2
 10
132.9264
 20
64.531599999999997
 30
0.0
 70
    32
  0
VERTEX
  5
958
  8
0
 62
     2
 10
131.6876
 20
64.7744
 30
0.0
 70
    32
  0
VERTEX
  5
959
  8
0
 62
     2
 10
130.41800000000001
 20
64.986400000000003
 30
0.0
 70
    32
  0
VERTEX
  5
95A
  8
0
 62
     2
 10
129.1216
 20
65.167599999999993
 30
0.0
 70
    32
  0
VERTEX
  5
95B
  8
0
 62
     2
 10
127.80240000000001
 20
65.317199999999985
 30
0.0
 70
    32
  0
VERTEX
  5
95C
  8
0
 62
     2
 10
126.464
 20
65.434799999999996
 30
0.0
 70
    32
  0
VERTEX
  5
95D
  8
0
 62
     2
 10
125.1108
 20
65.519599999999997
 30
0.0
 70
    32
  0
VERTEX
  5
95E
  8
0
 62
     2
 10
123.74639999999999
 20
65.571200000000005
 30
0.0
 70
    32
  0
VERTEX
  5
95F
  8
0
 62
     2
 10
122.37439999999999
 20
65.589200000000005
 30
0.0
 70
    32
  0
VERTEX
  5
960
  8
0
 62
     2
 10
120.9996
 20
65.572800000000001
 30
0.0
 70
    32
  0
VERTEX
  5
961
  8
0
 62
     2
 10
119.62520000000001
 20
65.521199999999993
 30
0.0
 70
    32
  0
VERTEX
  5
962
  8
0
 62
     2
 10
118.2556
 20
65.434399999999997
 30
0.0
 70
    32
  0
VERTEX
  5
963
  8
0
 62
     2
 10
116.8944
 20
65.311999999999998
 30
0.0
 70
    32
  0
VERTEX
  5
964
  8
0
 62
     2
 10
115.54559999999999
 20
65.152799999999999
 30
0.0
 70
    32
  0
VERTEX
  5
965
  8
0
 62
     2
 10
114.2132
 20
64.956400000000002
 30
0.0
 70
    32
  0
VERTEX
  5
966
  8
0
 62
     2
 10
112.9012
 20
64.722399999999993
 30
0.0
 70
    32
  0
VERTEX
  5
967
  8
0
 62
     2
 10
111.61360000000001
 20
64.450400000000002
 30
0.0
 70
    32
  0
VERTEX
  5
968
  8
0
 62
     2
 10
110.3536
 20
64.139600000000002
 30
0.0
 70
    32
  0
VERTEX
  5
969
  8
0
 62
     2
 10
109.126
 20
63.7896
 30
0.0
 70
    32
  0
VERTEX
  5
96A
  8
0
 62
     2
 10
107.9344
 20
63.3996
 30
0.0
 70
    32
  0
VERTEX
  5
96B
  8
0
 62
     2
 10
106.78279999999999
 20
62.9696
 30
0.0
 70
    32
  0
VERTEX
  5
96C
  8
0
 62
     2
 10
105.6748
 20
62.49839999999999
 30
0.0
 70
    32
  0
VERTEX
  5
96D
  8
0
 62
     2
 10
104.6148
 20
61.985599999999998
 30
0.0
 70
    32
  0
VERTEX
  5
96E
  8
0
 62
     2
 10
103.60639999999999
 20
61.43119999999999
 30
0.0
 70
    32
  0
VERTEX
  5
96F
  8
0
 62
     2
 10
102.6536
 20
60.83400000000001
 30
0.0
 70
    32
  0
VERTEX
  5
970
  8
0
 62
     2
 10
101.7604
 20
60.194000000000003
 30
0.0
 70
    32
  0
VERTEX
  5
971
  8
0
 62
     2
 10
100.9284
 20
59.511200000000002
 30
0.0
 70
    32
  0
VERTEX
  5
972
  8
0
 62
     2
 10
100.1564
 20
58.787599999999991
 30
0.0
 70
    32
  0
VERTEX
  5
973
  8
0
 62
     2
 10
99.442800000000005
 20
58.02559999999999
 30
0.0
 70
    32
  0
VERTEX
  5
974
  8
0
 62
     2
 10
98.786800000000014
 20
57.226399999999998
 30
0.0
 70
    32
  0
VERTEX
  5
975
  8
0
 62
     2
 10
98.186800000000005
 20
56.392400000000002
 30
0.0
 70
    32
  0
VERTEX
  5
976
  8
0
 62
     2
 10
97.641599999999997
 20
55.52559999999999
 30
0.0
 70
    32
  0
VERTEX
  5
977
  8
0
 62
     2
 10
97.150400000000005
 20
54.627600000000001
 30
0.0
 70
    32
  0
VERTEX
  5
978
  8
0
 62
     2
 10
96.711200000000005
 20
53.700400000000002
 30
0.0
 70
    32
  0
VERTEX
  5
979
  8
0
 62
     2
 10
96.322800000000015
 20
52.74560000000001
 30
0.0
 70
    32
  0
VERTEX
  5
97A
  8
0
 62
     2
 10
95.984399999999994
 20
51.765999999999998
 30
0.0
 70
    32
  0
VERTEX
  5
97B
  8
0
 62
     2
 10
95.694400000000002
 20
50.7624
 30
0.0
 70
    32
  0
VERTEX
  5
97C
  8
0
 62
     2
 10
95.451599999999999
 20
49.7376
 30
0.0
 70
    32
  0
VERTEX
  5
97D
  8
0
 62
     2
 10
95.254400000000004
 20
48.693199999999997
 30
0.0
 70
    32
  0
VERTEX
  5
97E
  8
0
 62
     2
 10
95.102000000000004
 20
47.630800000000001
 30
0.0
 70
    32
  0
VERTEX
  5
97F
  8
0
 62
     2
 10
94.992800000000003
 20
46.552799999999998
 30
0.0
 70
    32
  0
VERTEX
  5
980
  8
0
 62
     2
 10
94.926000000000016
 20
45.461199999999998
 30
0.0
 70
    32
  0
VERTEX
  5
981
  8
0
 62
     2
 10
94.899600000000007
 20
44.357199999999992
 30
0.0
 70
    32
  0
VERTEX
  5
982
  8
0
 62
     2
 10
94.912800000000004
 20
43.243200000000002
 30
0.0
 70
    32
  0
VERTEX
  5
983
  8
0
 62
     2
 10
94.963999999999984
 20
42.121599999999987
 30
0.0
 70
    32
  0
VERTEX
  5
984
  8
0
 62
     2
 10
95.052400000000006
 20
40.993200000000002
 30
0.0
 70
    32
  0
VERTEX
  5
985
  8
0
 62
     2
 10
95.175999999999988
 20
39.860720000000001
 30
0.0
 70
    32
  0
VERTEX
  5
986
  8
0
 62
     2
 10
95.334400000000002
 20
38.725840000000012
 30
0.0
 70
    32
  0
VERTEX
  5
987
  8
0
 62
     2
 10
95.525599999999983
 20
37.590519999999998
 30
0.0
 70
    32
  0
VERTEX
  5
988
  8
0
 62
     2
 10
95.748400000000004
 20
36.45664
 30
0.0
 70
    32
  0
VERTEX
  5
989
  8
0
 62
     2
 10
96.001999999999995
 20
35.326120000000003
 30
0.0
 70
    32
  0
VERTEX
  5
98A
  8
0
 62
     2
 10
96.284800000000004
 20
34.200879999999998
 30
0.0
 70
    32
  0
VERTEX
  5
98B
  8
0
 62
     2
 10
96.595600000000005
 20
33.082839999999997
 30
0.0
 70
    32
  0
VERTEX
  5
98C
  8
0
 62
     2
 10
96.932800000000015
 20
31.97392
 30
0.0
 70
    32
  0
VERTEX
  5
98D
  8
0
 62
     2
 10
97.295599999999993
 20
30.876000000000001
 30
0.0
 70
    32
  0
VERTEX
  5
98E
  8
0
 62
     2
 10
97.682000000000002
 20
29.791039999999999
 30
0.0
 70
    32
  0
VERTEX
  5
98F
  8
0
 62
     2
 10
98.0916
 20
28.72092
 30
0.0
 70
    32
  0
VERTEX
  5
990
  8
0
 62
     2
 10
98.522800000000004
 20
27.667560000000002
 30
0.0
 70
    32
  0
VERTEX
  5
991
  8
0
 62
     2
 10
98.974000000000004
 20
26.63288
 30
0.0
 70
    32
  0
VERTEX
  5
992
  8
0
 62
     2
 10
99.444400000000002
 20
25.618839999999999
 30
0.0
 70
    32
  0
VERTEX
  5
993
  8
0
 62
     2
 10
99.932400000000001
 20
24.62716
 30
0.0
 70
    32
  0
VERTEX
  5
994
  8
0
 62
     2
 10
100.4376
 20
23.658840000000001
 30
0.0
 70
    32
  0
VERTEX
  5
995
  8
0
 62
     2
 10
100.95959999999999
 20
22.714120000000001
 30
0.0
 70
    32
  0
VERTEX
  5
996
  8
0
 62
     2
 10
101.4988
 20
21.79336
 30
0.0
 70
    32
  0
VERTEX
  5
997
  8
0
 62
     2
 10
102.054
 20
20.896920000000001
 30
0.0
 70
    32
  0
VERTEX
  5
998
  8
0
 62
     2
 10
102.626
 20
20.02516
 30
0.0
 70
    32
  0
VERTEX
  5
999
  8
0
 62
     2
 10
103.214
 20
19.178319999999999
 30
0.0
 70
    32
  0
VERTEX
  5
99A
  8
0
 62
     2
 10
103.8184
 20
18.356839999999998
 30
0.0
 70
    32
  0
VERTEX
  5
99B
  8
0
 62
     2
 10
104.4384
 20
17.561
 30
0.0
 70
    32
  0
VERTEX
  5
99C
  8
0
 62
     2
 10
105.0736
 20
16.791119999999999
 30
0.0
 70
    32
  0
VERTEX
  5
99D
  8
0
 62
     2
 10
105.7248
 20
16.047599999999999
 30
0.0
 70
    32
  0
VERTEX
  5
99E
  8
0
 62
     2
 10
106.3908
 20
15.330679999999999
 30
0.0
 70
    32
  0
VERTEX
  5
99F
  8
0
 62
     2
 10
107.0724
 20
14.6408
 30
0.0
 70
    32
  0
VERTEX
  5
9A0
  8
0
 62
     2
 10
107.7684
 20
13.97824
 30
0.0
 70
    32
  0
VERTEX
  5
9A1
  8
0
 62
     2
 10
108.47920000000001
 20
13.34332
 30
0.0
 70
    32
  0
VERTEX
  5
9A2
  8
0
 62
     2
 10
109.20440000000001
 20
12.73644
 30
0.0
 70
    32
  0
VERTEX
  5
9A3
  8
0
 62
     2
 10
109.944
 20
12.15788
 30
0.0
 70
    32
  0
VERTEX
  5
9A4
  8
0
 62
     2
 10
110.69759999999999
 20
11.60796
 30
0.0
 70
    32
  0
VERTEX
  5
9A5
  8
0
 62
     2
 10
111.4648
 20
11.08708
 30
0.0
 70
    32
  0
VERTEX
  5
9A6
  8
0
 62
     2
 10
112.246
 20
10.59552
 30
0.0
 70
    32
  0
VERTEX
  5
9A7
  8
0
 62
     2
 10
113.0408
 20
10.13364
 30
0.0
 70
    32
  0
VERTEX
  5
9A8
  8
0
 62
     2
 10
113.8488
 20
9.7018000000000004
 30
0.0
 70
    32
  0
VERTEX
  5
9A9
  8
0
 62
     2
 10
114.6696
 20
9.3002800000000008
 30
0.0
 70
    32
  0
VERTEX
  5
9AA
  8
0
 62
     2
 10
115.50360000000001
 20
8.9294399999999996
 30
0.0
 70
    32
  0
VERTEX
  5
9AB
  8
0
 62
     2
 10
116.35039999999999
 20
8.5896399999999993
 30
0.0
 70
    32
  0
VERTEX
  5
9AC
  8
0
 62
     2
 10
117.20959999999999
 20
8.2811599999999999
 30
0.0
 70
    32
  0
VERTEX
  5
9AD
  8
0
 62
     2
 10
118.0812
 20
8.0044000000000004
 30
0.0
 70
    32
  0
VERTEX
  5
9AE
  8
0
 62
     2
 10
118.9648
 20
7.7596399999999992
 30
0.0
 70
    32
  0
VERTEX
  5
9AF
  8
0
 62
     2
 10
119.8604
 20
7.5472799999999998
 30
0.0
 70
    32
  0
VERTEX
  5
9B0
  8
0
 62
     2
 10
120.768
 20
7.3675600000000001
 30
0.0
 70
    32
  0
VERTEX
  5
9B1
  8
0
 62
     2
 10
121.68680000000001
 20
7.2209199999999987
 30
0.0
 70
    32
  0
VERTEX
  5
9B2
  8
0
 62
     2
 10
122.6172
 20
7.1076399999999991
 30
0.0
 70
    32
  0
VERTEX
  5
9B3
  8
0
 62
     2
 10
123.55880000000001
 20
7.028039999999999
 30
0.0
 70
    32
  0
VERTEX
  5
9B4
  8
0
 62
     2
 10
124.5112
 20
6.9825200000000001
 30
0.0
 70
    32
  0
VERTEX
  5
9B5
  8
0
 62
     2
 10
125.4744
 20
6.9713199999999986
 30
0.0
 70
    32
  0
VERTEX
  5
9B6
  8
0
 62
     2
 10
126.44840000000001
 20
6.9950399999999986
 30
0.0
 70
    32
  0
VERTEX
  5
9B7
  8
0
 62
     2
 10
127.4324
 20
7.0548399999999987
 30
0.0
 70
    32
  0
VERTEX
  5
9B8
  8
0
 62
     2
 10
128.4264
 20
7.1520799999999998
 30
0.0
 70
    32
  0
VERTEX
  5
9B9
  8
0
 62
     2
 10
129.43000000000001
 20
7.2881999999999989
 30
0.0
 70
    32
  0
VERTEX
  5
9BA
  8
0
 62
     2
 10
130.44319999999999
 20
7.46448
 30
0.0
 70
    32
  0
VERTEX
  5
9BB
  8
0
 62
     2
 10
131.4648
 20
7.6823600000000001
 30
0.0
 70
    32
  0
VERTEX
  5
9BC
  8
0
 62
     2
 10
132.4956
 20
7.9432
 30
0.0
 70
    32
  0
VERTEX
  5
9BD
  8
0
 62
     2
 10
133.53399999999999
 20
8.2484000000000002
 30
0.0
 70
    32
  0
VERTEX
  5
9BE
  8
0
 62
     2
 10
134.58080000000001
 20
8.5992800000000003
 30
0.0
 70
    32
  0
VERTEX
  5
9BF
  8
0
 62
     2
 10
135.6352
 20
8.9972799999999982
 30
0.0
 70
    32
  0
VERTEX
  5
9C0
  8
0
 62
     2
 10
136.6968
 20
9.443719999999999
 30
0.0
 70
    32
  0
VERTEX
  5
9C1
  8
0
 62
     2
 10
137.76519999999999
 20
9.939960000000001
 30
0.0
 70
    32
  0
VERTEX
  5
9C2
  8
0
 62
     2
 10
138.84039999999999
 20
10.487439999999999
 30
0.0
 70
    32
  0
VERTEX
  5
9C3
  8
0
 62
     2
 10
139.92160000000001
 20
11.08752
 30
0.0
 70
    32
  0
VERTEX
  5
9C4
  8
0
 62
     2
 10
141.00880000000001
 20
11.74156
 30
0.0
 70
    32
  0
VERTEX
  5
9C5
  8
0
 62
     2
 10
142.102
 20
12.45092
 30
0.0
 70
    32
  0
VERTEX
  5
9C6
  8
0
 62
     2
 10
143.19999999999999
 20
13.217000000000001
 30
0.0
 70
    32
  0
VERTEX
  5
9C7
  8
0
 62
     2
 10
144.3032
 20
14.04116
 30
0.0
 70
    32
  0
VERTEX
  5
9C8
  8
0
 62
     2
 10
145.41120000000001
 20
14.924799999999999
 30
0.0
 70
    32
  0
VERTEX
  5
9C9
  8
0
 62
     2
 10
146.5232
 20
15.86924
 30
0.0
 70
    32
  0
VERTEX
  5
9CA
  8
0
 62
     2
 10
147.63919999999999
 20
16.875920000000001
 30
0.0
 70
    32
  0
VERTEX
  5
9CB
  8
0
 62
     2
 10
148.75880000000001
 20
17.946159999999999
 30
0.0
 70
    32
  0
VERTEX
  5
9CC
  8
0
 62
     2
 10
149.88159999999999
 20
19.081399999999999
 30
0.0
 70
    32
  0
VERTEX
  5
9CD
  8
0
 62
     2
 10
151.0076
 20
20.282959999999999
 30
0.0
 70
    32
  0
VERTEX
  5
9CE
  8
0
 62
     2
 10
152.136
 20
21.552240000000001
 30
0.0
 70
    32
  0
VERTEX
  5
9CF
  8
0
 62
     2
 10
153.26679999999999
 20
22.890560000000001
 30
0.0
 70
    32
  0
VERTEX
  5
9D0
  8
0
 62
     2
 10
154.39959999999999
 20
24.299399999999999
 30
0.0
 70
    32
  0
VERTEX
  5
9D1
  8
0
 62
     2
 10
155.53399999999999
 20
25.78004
 30
0.0
 70
    32
  0
VERTEX
  5
9D2
  8
0
 62
     2
 10
156.66999999999999
 20
27.333919999999999
 30
0.0
 70
    32
  0
VERTEX
  5
9D3
  8
0
 62
     2
 10
157.8064
 20
28.96236
 30
0.0
 70
    32
  0
VERTEX
  5
9D4
  8
0
 62
     2
 10
158.9436
 20
30.666799999999999
 30
0.0
 70
    32
  0
VERTEX
  5
9D5
  8
0
 62
     2
 10
160.0812
 20
32.448520000000002
 30
0.0
 70
    32
  0
VERTEX
  5
9D6
  8
0
 62
     2
 10
161.21879999999999
 20
34.308999999999997
 30
0.0
 70
    32
  0
VERTEX
  5
9D7
  8
0
 62
     2
 10
162.35599999999999
 20
36.249560000000002
 30
0.0
 70
    32
  0
VERTEX
  5
9D8
  8
0
 62
     2
 10
163.49279999999999
 20
38.271520000000002
 30
0.0
 70
    32
  0
VERTEX
  5
9D9
  8
0
 62
     2
 10
164.6276
 20
40.374000000000002
 30
0.0
 70
    32
  0
VERTEX
  5
9DA
  8
0
 62
     2
 10
165.75999999999999
 20
42.552799999999991
 30
0.0
 70
    32
  0
VERTEX
  5
9DB
  8
0
 62
     2
 10
166.88800000000001
 20
44.80319999999999
 30
0.0
 70
    32
  0
VERTEX
  5
9DC
  8
0
 62
     2
 10
168.0104
 20
47.119599999999998
 30
0.0
 70
    32
  0
VERTEX
  5
9DD
  8
0
 62
     2
 10
169.126
 20
49.497199999999999
 30
0.0
 70
    32
  0
VERTEX
  5
9DE
  8
0
 62
     2
 10
170.2328
 20
51.931600000000003
 30
0.0
 70
    32
  0
VERTEX
  5
9DF
  8
0
 62
     2
 10
171.3296
 20
54.417999999999999
 30
0.0
 70
    32
  0
VERTEX
  5
9E0
  8
0
 62
     2
 10
172.4152
 20
56.950800000000001
 30
0.0
 70
    32
  0
VERTEX
  5
9E1
  8
0
 62
     2
 10
173.48759999999999
 20
59.525599999999997
 30
0.0
 70
    32
  0
VERTEX
  5
9E2
  8
0
 62
     2
 10
174.54599999999999
 20
62.1372
 30
0.0
 70
    32
  0
VERTEX
  5
9E3
  8
0
 62
     2
 10
175.58879999999999
 20
64.781199999999998
 30
0.0
 70
    32
  0
VERTEX
  5
9E4
  8
0
 62
     2
 10
176.614
 20
67.451999999999998
 30
0.0
 70
    32
  0
VERTEX
  5
9E5
  8
0
 62
     2
 10
177.6208
 20
70.145600000000002
 30
0.0
 70
    32
  0
VERTEX
  5
9E6
  8
0
 62
     2
 10
178.608
 20
72.855999999999995
 30
0.0
 70
    32
  0
VERTEX
  5
9E7
  8
0
 62
     2
 10
179.57320000000001
 20
75.5792
 30
0.0
 70
    32
  0
VERTEX
  5
9E8
  8
0
 62
     2
 10
180.51599999999999
 20
78.310000000000002
 30
0.0
 70
    32
  0
VERTEX
  5
9E9
  8
0
 62
     2
 10
181.434
 20
81.043599999999984
 30
0.0
 70
    32
  0
VERTEX
  5
9EA
  8
0
 62
     2
 10
182.32640000000001
 20
83.775199999999998
 30
0.0
 70
    32
  0
VERTEX
  5
9EB
  8
0
 62
     2
 10
183.19159999999999
 20
86.499199999999988
 30
0.0
 70
    32
  0
VERTEX
  5
9EC
  8
0
 62
     2
 10
184.0284
 20
89.211600000000004
 30
0.0
 70
    32
  0
VERTEX
  5
9ED
  8
0
 62
     2
 10
184.8348
 20
91.906800000000004
 30
0.0
 70
    32
  0
VERTEX
  5
9EE
  8
0
 62
     2
 10
185.61000000000001
 20
94.580399999999997
 30
0.0
 70
    32
  0
VERTEX
  5
9EF
  8
0
 62
     2
 10
186.352
 20
97.227599999999995
 30
0.0
 70
    32
  0
VERTEX
  5
9F0
  8
0
 62
     2
 10
187.05959999999999
 20
99.842799999999997
 30
0.0
 70
    32
  0
VERTEX
  5
9F1
  8
0
 62
     2
 10
187.73159999999999
 20
102.422
 30
0.0
 70
    32
  0
VERTEX
  5
9F2
  8
0
 62
     2
 10
188.36600000000001
 20
104.95959999999999
 30
0.0
 70
    32
  0
VERTEX
  5
9F3
  8
0
 62
     2
 10
188.96199999999999
 20
107.4508
 30
0.0
 70
    32
  0
VERTEX
  5
9F4
  8
0
 62
     2
 10
189.51759999999999
 20
109.8908
 30
0.0
 70
    32
  0
VERTEX
  5
9F5
  8
0
 62
     2
 10
190.03200000000001
 20
112.2752
 30
0.0
 70
    32
  0
VERTEX
  5
9F6
  8
0
 62
     2
 10
190.50319999999999
 20
114.5984
 30
0.0
 70
    32
  0
VERTEX
  5
9F7
  8
0
 62
     2
 10
190.93000000000001
 20
116.8556
 30
0.0
 70
    32
  0
VERTEX
  5
9F8
  8
0
 62
     2
 10
191.3108
 20
119.042
 30
0.0
 70
    32
  0
VERTEX
  5
9F9
  8
0
 62
     2
 10
191.64439999999999
 20
121.1532
 30
0.0
 70
    32
  0
VERTEX
  5
9FA
  8
0
 62
     2
 10
191.92920000000001
 20
123.1836
 30
0.0
 70
    32
  0
VERTEX
  5
9FB
  8
0
 62
     2
 10
192.16399999999999
 20
125.1288
 30
0.0
 70
    32
  0
VERTEX
  5
9FC
  8
0
 62
     2
 10
192.34880000000001
 20
126.9876
 30
0.0
 70
    32
  0
VERTEX
  5
9FD
  8
0
 62
     2
 10
192.48519999999999
 20
128.76159999999999
 30
0.0
 70
    32
  0
VERTEX
  5
9FE
  8
0
 62
     2
 10
192.5752
 20
130.4528
 30
0.0
 70
    32
  0
VERTEX
  5
9FF
  8
0
 62
     2
 10
192.62
 20
132.06280000000001
 30
0.0
 70
    32
  0
VERTEX
  5
A00
  8
0
 62
     2
 10
192.6216
 20
133.59360000000001
 30
0.0
 70
    32
  0
VERTEX
  5
A01
  8
0
 62
     2
 10
192.5812
 20
135.04640000000001
 30
0.0
 70
    32
  0
VERTEX
  5
A02
  8
0
 62
     2
 10
192.50040000000001
 20
136.42359999999999
 30
0.0
 70
    32
  0
VERTEX
  5
A03
  8
0
 62
     2
 10
192.38120000000001
 20
137.72640000000001
 30
0.0
 70
    32
  0
VERTEX
  5
A04
  8
0
 62
     2
 10
192.2252
 20
138.9572
 30
0.0
 70
    32
  0
VERTEX
  5
A05
  8
0
 62
     2
 10
192.03319999999999
 20
140.11760000000001
 30
0.0
 70
    32
  0
VERTEX
  5
A06
  8
0
 62
     2
 10
191.80799999999999
 20
141.2088
 30
0.0
 70
    32
  0
VERTEX
  5
A07
  8
0
 62
     2
 10
191.5504
 20
142.23320000000001
 30
0.0
 70
    32
  0
VERTEX
  5
A08
  8
0
 62
     2
 10
191.262
 20
143.19280000000001
 30
0.0
 70
    32
  0
VERTEX
  5
A09
  8
0
 62
     2
 10
190.94479999999999
 20
144.08840000000001
 30
0.0
 70
    32
  0
VERTEX
  5
A0A
  8
0
 62
     2
 10
190.60040000000001
 20
144.9228
 30
0.0
 70
    32
  0
VERTEX
  5
A0B
  8
0
 62
     2
 10
190.22999999999999
 20
145.6968
 30
0.0
 70
    32
  0
VERTEX
  5
A0C
  8
0
 62
     2
 10
189.8356
 20
146.41319999999999
 30
0.0
 70
    32
  0
VERTEX
  5
A0D
  8
0
 62
     2
 10
189.4188
 20
147.07320000000001
 30
0.0
 70
    32
  0
VERTEX
  5
A0E
  8
0
 62
     2
 10
188.98079999999999
 20
147.67840000000001
 30
0.0
 70
    32
  0
VERTEX
  5
A0F
  8
0
 62
     2
 10
188.52359999999999
 20
148.2312
 30
0.0
 70
    32
  0
VERTEX
  5
A10
  8
0
 62
     2
 10
188.0488
 20
148.7328
 30
0.0
 70
    32
  0
VERTEX
  5
A11
  8
0
 62
     2
 10
187.55760000000001
 20
149.18520000000001
 30
0.0
 70
    32
  0
VERTEX
  5
A12
  8
0
 62
     2
 10
187.05240000000001
 20
149.59
 30
0.0
 70
    32
  0
VERTEX
  5
A13
  8
0
 62
     2
 10
186.53399999999999
 20
149.94919999999999
 30
0.0
 70
    32
  0
VERTEX
  5
A14
  8
0
 62
     2
 10
186.0044
 20
150.26480000000001
 30
0.0
 70
    32
  0
VERTEX
  5
A15
  8
0
 62
     2
 10
185.46520000000001
 20
150.53800000000001
 30
0.0
 70
    32
  0
VERTEX
  5
A16
  8
0
 62
     2
 10
184.91759999999999
 20
150.77119999999999
 30
0.0
 70
    32
  0
VERTEX
  5
A17
  8
0
 62
     2
 10
184.364
 20
150.96559999999999
 30
0.0
 70
    32
  0
VERTEX
  5
A18
  8
0
 62
     2
 10
183.80520000000001
 20
151.1232
 30
0.0
 70
    32
  0
VERTEX
  5
A19
  8
0
 62
     2
 10
183.24359999999999
 20
151.2456
 30
0.0
 70
    32
  0
VERTEX
  5
A1A
  8
0
 62
     2
 10
182.68000000000001
 20
151.3348
 30
0.0
 70
    32
  0
VERTEX
  5
A1B
  8
0
 62
     2
 10
182.11680000000001
 20
151.39279999999999
 30
0.0
 70
    32
  0
VERTEX
  5
A1C
  8
0
 62
     2
 10
181.5548
 20
151.4212
 30
0.0
 70
    32
  0
VERTEX
  5
A1D
  8
0
 62
     2
 10
180.99639999999999
 20
151.4212
 30
0.0
 70
    32
  0
VERTEX
  5
A1E
  8
0
 62
     2
 10
180.44239999999999
 20
151.39519999999999
 30
0.0
 70
    32
  0
VERTEX
  5
A1F
  8
0
 62
     2
 10
179.89439999999999
 20
151.34119999999999
 30
0.0
 70
    32
  0
VERTEX
  5
A20
  8
0
 62
     2
 10
179.3528
 20
151.2568
 30
0.0
 70
    32
  0
VERTEX
  5
A21
  8
0
 62
     2
 10
178.81800000000001
 20
151.14080000000001
 30
0.0
 70
    32
  0
VERTEX
  5
A22
  8
0
 62
     2
 10
178.2912
 20
150.99000000000001
 30
0.0
 70
    32
  0
VERTEX
  5
A23
  8
0
 62
     2
 10
177.7732
 20
150.80240000000001
 30
0.0
 70
    32
  0
VERTEX
  5
A24
  8
0
 62
     2
 10
177.26439999999999
 20
150.57599999999999
 30
0.0
 70
    32
  0
VERTEX
  5
A25
  8
0
 62
     2
 10
176.76599999999999
 20
150.30879999999999
 30
0.0
 70
    32
  0
VERTEX
  5
A26
  8
0
 62
     2
 10
176.27799999999999
 20
149.99799999999999
 30
0.0
 70
    32
  0
VERTEX
  5
A27
  8
0
 62
     2
 10
175.80160000000001
 20
149.6412
 30
0.0
 70
    32
  0
VERTEX
  5
A28
  8
0
 62
     2
 10
175.33799999999999
 20
149.2372
 30
0.0
 70
    32
  0
VERTEX
  5
A29
  8
0
 62
     2
 10
174.88679999999999
 20
148.78280000000001
 30
0.0
 70
    32
  0
VERTEX
  5
A2A
  8
0
 62
     2
 10
174.4496
 20
148.2764
 30
0.0
 70
    32
  0
VERTEX
  5
A2B
  8
0
 62
     2
 10
174.02680000000001
 20
147.71520000000001
 30
0.0
 70
    32
  0
VERTEX
  5
A2C
  8
0
 62
     2
 10
173.61959999999999
 20
147.0976
 30
0.0
 70
    32
  0
VERTEX
  5
A2D
  8
0
 62
     2
 10
173.22800000000001
 20
146.42080000000001
 30
0.0
 70
    32
  0
VERTEX
  5
A2E
  8
0
 62
     2
 10
172.85319999999999
 20
145.6827999999999
 30
0.0
 70
    32
  0
VERTEX
  5
A2F
  8
0
 62
     2
 10
172.49600000000001
 20
144.88159999999999
 30
0.0
 70
    32
  0
VERTEX
  5
A30
  8
0
 62
     2
 10
172.1568
 20
144.01480000000001
 30
0.0
 70
    32
  0
VERTEX
  5
A31
  8
0
 62
     2
 10
171.8364
 20
143.0804
 30
0.0
 70
    32
  0
VERTEX
  5
A32
  8
0
 62
     2
 10
171.53559999999999
 20
142.07560000000001
 30
0.0
 70
    32
  0
VERTEX
  5
A33
  8
0
 62
     2
 10
171.2552
 20
140.9984
 30
0.0
 70
    32
  0
VERTEX
  5
A34
  8
0
 62
     2
 10
170.99600000000001
 20
139.8468
 30
0.0
 70
    32
  0
VERTEX
  5
A35
  8
0
 62
     2
 10
170.75880000000001
 20
138.61879999999999
 30
0.0
 70
    32
  0
VERTEX
  5
A36
  8
0
 62
     2
 10
170.54400000000001
 20
137.3116
 30
0.0
 70
    32
  0
VERTEX
  5
A37
  8
0
 62
     2
 10
170.3523999999999
 20
135.92320000000001
 30
0.0
 70
    32
  0
VERTEX
  5
A38
  8
0
 62
     2
 10
170.1848
 20
134.4512
 30
0.0
 70
    32
  0
VERTEX
  5
A39
  8
0
 62
     2
 10
170.04239999999999
 20
132.89359999999999
 30
0.0
 70
    32
  0
VERTEX
  5
A3A
  8
0
 62
     2
 10
169.92519999999999
 20
131.2484
 30
0.0
 70
    32
  0
VERTEX
  5
A3B
  8
0
 62
     2
 10
169.834
 20
129.51320000000001
 30
0.0
 70
    32
  0
VERTEX
  5
A3C
  8
0
 62
     2
 10
169.77000000000001
 20
127.68519999999999
 30
0.0
 70
    32
  0
VERTEX
  5
A3D
  8
0
 62
     2
 10
169.7336
 20
125.7632
 30
0.0
 70
    32
  0
VERTEX
  5
A3E
  8
0
 62
     2
 10
169.726
 20
123.744
 30
0.0
 70
    32
  0
VERTEX
  5
A3F
  8
0
 62
     2
 10
169.74719999999999
 20
121.626
 30
0.0
 70
    32
  0
VERTEX
  5
A40
  8
0
 62
     2
 10
169.79839999999999
 20
119.4068
 30
0.0
 70
    32
  0
VERTEX
  5
A41
  8
0
 62
     2
 10
169.88
 20
117.0864
 30
0.0
 70
    32
  0
VERTEX
  5
A42
  8
0
 62
     2
 10
169.99199999999999
 20
114.67
 30
0.0
 70
    32
  0
VERTEX
  5
A43
  8
0
 62
     2
 10
170.13319999999999
 20
112.164
 30
0.0
 70
    32
  0
VERTEX
  5
A44
  8
0
 62
     2
 10
170.30439999999999
 20
109.5748
 30
0.0
 70
    32
  0
VERTEX
  5
A45
  8
0
 62
     2
 10
170.50399999999999
 20
106.9088
 30
0.0
 70
    32
  0
VERTEX
  5
A46
  8
0
 62
     2
 10
170.73240000000001
 20
104.172
 30
0.0
 70
    32
  0
VERTEX
  5
A47
  8
0
 62
     2
 10
170.98920000000001
 20
101.3712
 30
0.0
 70
    32
  0
VERTEX
  5
A48
  8
0
 62
     2
 10
171.274
 20
98.5124
 30
0.0
 70
    32
  0
VERTEX
  5
A49
  8
0
 62
     2
 10
171.5864
 20
95.602000000000004
 30
0.0
 70
    32
  0
VERTEX
  5
A4A
  8
0
 62
     2
 10
171.9256
 20
92.645999999999987
 30
0.0
 70
    32
  0
VERTEX
  5
A4B
  8
0
 62
     2
 10
172.29159999999999
 20
89.651600000000002
 30
0.0
 70
    32
  0
VERTEX
  5
A4C
  8
0
 62
     2
 10
172.68440000000001
 20
86.624399999999994
 30
0.0
 70
    32
  0
VERTEX
  5
A4D
  8
0
 62
     2
 10
173.10319999999999
 20
83.570800000000006
 30
0.0
 70
    32
  0
VERTEX
  5
A4E
  8
0
 62
     2
 10
173.5472
 20
80.497200000000007
 30
0.0
 70
    32
  0
VERTEX
  5
A4F
  8
0
 62
     2
 10
174.01679999999999
 20
77.409999999999997
 30
0.0
 70
    32
  0
VERTEX
  5
A50
  8
0
 62
     2
 10
174.51159999999999
 20
74.315600000000003
 30
0.0
 70
    32
  0
VERTEX
  5
A51
  8
0
 62
     2
 10
175.0308
 20
71.220399999999998
 30
0.0
 70
    32
  0
VERTEX
  5
A52
  8
0
 62
     2
 10
175.57400000000001
 20
68.130399999999995
 30
0.0
 70
    32
  0
VERTEX
  5
A53
  8
0
 62
     2
 10
176.1412
 20
65.052000000000007
 30
0.0
 70
    32
  0
VERTEX
  5
A54
  8
0
 62
     2
 10
176.732
 20
61.991599999999998
 30
0.0
 70
    32
  0
VERTEX
  5
A55
  8
0
 62
     2
 10
177.34559999999999
 20
58.95559999999999
 30
0.0
 70
    32
  0
VERTEX
  5
A56
  8
0
 62
     2
 10
177.98240000000001
 20
55.950400000000002
 30
0.0
 70
    32
  0
VERTEX
  5
A57
  8
0
 62
     2
 10
178.6412
 20
52.981999999999999
 30
0.0
 70
    32
  0
VERTEX
  5
A58
  8
0
 62
     2
 10
179.322
 20
50.056800000000003
 30
0.0
 70
    32
  0
VERTEX
  5
A59
  8
0
 62
     2
 10
180.02440000000001
 20
47.181600000000003
 30
0.0
 70
    32
  0
VERTEX
  5
A5A
  8
0
 62
     2
 10
180.7484
 20
44.362000000000002
 30
0.0
 70
    32
  0
VERTEX
  5
A5B
  8
0
 62
     2
 10
181.49279999999999
 20
41.605200000000004
 30
0.0
 70
    32
  0
VERTEX
  5
A5C
  8
0
 62
     2
 10
182.25800000000001
 20
38.916640000000001
 30
0.0
 70
    32
  0
VERTEX
  5
A5D
  8
0
 62
     2
 10
183.04320000000001
 20
36.303159999999998
 30
0.0
 70
    32
  0
VERTEX
  5
A5E
  8
0
 62
     2
 10
183.8484
 20
33.770960000000002
 30
0.0
 70
    32
  0
VERTEX
  5
A5F
  8
0
 62
     2
 10
184.6728
 20
31.326360000000001
 30
0.0
 70
    32
  0
VERTEX
  5
A60
  8
0
 62
     2
 10
185.5164
 20
28.975719999999999
 30
0.0
 70
    32
  0
VERTEX
  5
A61
  8
0
 62
     2
 10
186.3784
 20
26.72532
 30
0.0
 70
    32
  0
VERTEX
  5
A62
  8
0
 62
     2
 10
187.25880000000001
 20
24.58156
 30
0.0
 70
    32
  0
VERTEX
  5
A63
  8
0
 62
     2
 10
188.15719999999999
 20
22.550599999999999
 30
0.0
 70
    32
  0
VERTEX
  5
A64
  8
0
 62
     2
 10
189.07320000000001
 20
20.635999999999999
 30
0.0
 70
    32
  0
VERTEX
  5
A65
  8
0
 62
     2
 10
190.00559999999999
 20
18.837959999999999
 30
0.0
 70
    32
  0
VERTEX
  5
A66
  8
0
 62
     2
 10
190.95400000000001
 20
17.15644
 30
0.0
 70
    32
  0
VERTEX
  5
A67
  8
0
 62
     2
 10
191.91800000000001
 20
15.5914
 30
0.0
 70
    32
  0
VERTEX
  5
A68
  8
0
 62
     2
 10
192.89680000000001
 20
14.14292
 30
0.0
 70
    32
  0
VERTEX
  5
A69
  8
0
 62
     2
 10
193.88919999999999
 20
12.81096
 30
0.0
 70
    32
  0
VERTEX
  5
A6A
  8
0
 62
     2
 10
194.89519999999999
 20
11.59552
 30
0.0
 70
    32
  0
VERTEX
  5
A6B
  8
0
 62
     2
 10
195.9136
 20
10.496600000000001
 30
0.0
 70
    32
  0
VERTEX
  5
A6C
  8
0
 62
     2
 10
196.9436
 20
9.5141600000000004
 30
0.0
 70
    32
  0
VERTEX
  5
A6D
  8
0
 62
     2
 10
197.98519999999999
 20
8.6482399999999995
 30
0.0
 70
    32
  0
VERTEX
  5
A6E
  8
0
 62
     2
 10
199.03720000000001
 20
7.8987999999999987
 30
0.0
 70
    32
  0
VERTEX
  5
A6F
  8
0
 62
     2
 10
200.0992
 20
7.2658800000000001
 30
0.0
 70
    32
  0
VERTEX
  5
A70
  8
0
 62
     2
 10
201.16999999999999
 20
6.7494399999999981
 30
0.0
 70
    32
  0
VERTEX
  5
A71
  8
0
 62
     2
 10
202.2492
 20
6.3494799999999998
 30
0.0
 70
    32
  0
VERTEX
  5
A72
  8
0
 62
     2
 10
203.3364
 20
6.0659999999999989
 30
0.0
 70
    32
  0
VERTEX
  5
A73
  8
0
 62
     2
 10
204.43039999999999
 20
5.899
 30
0.0
 70
    32
  0
VERTEX
  5
A74
  8
0
 62
     2
 10
205.53120000000001
 20
5.8484800000000003
 30
0.0
 70
    32
  0
VERTEX
  5
A75
  8
0
 62
     2
 10
206.63720000000001
 20
5.914439999999999
 30
0.0
 70
    32
  0
VERTEX
  5
A76
  8
0
 62
     2
 10
207.7484
 20
6.0968799999999996
 30
0.0
 70
    32
  0
VERTEX
  5
A77
  8
0
 62
     2
 10
208.864
 20
6.3957600000000001
 30
0.0
 70
    32
  0
VERTEX
  5
A78
  8
0
 62
     2
 10
209.9828
 20
6.811119999999999
 30
0.0
 70
    32
  0
VERTEX
  5
A79
  8
0
 62
     2
 10
211.10480000000001
 20
7.3429199999999986
 30
0.0
 70
    32
  0
VERTEX
  5
A7A
  8
0
 62
     2
 10
212.22919999999999
 20
7.9911599999999998
 30
0.0
 70
    32
  0
VERTEX
  5
A7B
  8
0
 62
     2
 10
213.35480000000001
 20
8.7558399999999992
 30
0.0
 70
    32
  0
VERTEX
  5
A7C
  8
0
 62
     2
 10
214.4812
 20
9.6370000000000005
 30
0.0
 70
    32
  0
VERTEX
  5
A7D
  8
0
 62
     2
 10
215.608
 20
10.634600000000001
 30
0.0
 70
    32
  0
VERTEX
  5
A7E
  8
0
 62
     2
 10
216.73400000000001
 20
11.7486
 30
0.0
 70
    32
  0
VERTEX
  5
A7F
  8
0
 62
     2
 10
217.8588
 20
12.979039999999999
 30
0.0
 70
    32
  0
VERTEX
  5
A80
  8
0
 62
     2
 10
218.98159999999999
 20
14.32592
 30
0.0
 70
    32
  0
VERTEX
  5
A81
  8
0
 62
     2
 10
220.102
 20
15.789239999999999
 30
0.0
 70
    32
  0
VERTEX
  5
A82
  8
0
 62
     2
 10
221.21879999999999
 20
17.368960000000001
 30
0.0
 70
    32
  0
VERTEX
  5
A83
  8
0
 62
     2
 10
222.33199999999999
 20
19.065079999999998
 30
0.0
 70
    32
  0
VERTEX
  5
A84
  8
0
 62
     2
 10
223.44
 20
20.87764
 30
0.0
 70
    32
  0
VERTEX
  5
A85
  8
0
 62
     2
 10
224.5428
 20
22.8066
 30
0.0
 70
    32
  0
VERTEX
  5
A86
  8
0
 62
     2
 10
225.6396
 20
24.851559999999999
 30
0.0
 70
    32
  0
VERTEX
  5
A87
  8
0
 62
     2
 10
226.72919999999999
 20
27.00836
 30
0.0
 70
    32
  0
VERTEX
  5
A88
  8
0
 62
     2
 10
227.81039999999999
 20
29.270640000000011
 30
0.0
 70
    32
  0
VERTEX
  5
A89
  8
0
 62
     2
 10
228.88239999999999
 20
31.632079999999998
 30
0.0
 70
    32
  0
VERTEX
  5
A8A
  8
0
 62
     2
 10
229.9436
 20
34.086280000000002
 30
0.0
 70
    32
  0
VERTEX
  5
A8B
  8
0
 62
     2
 10
230.9932
 20
36.62688
 30
0.0
 70
    32
  0
VERTEX
  5
A8C
  8
0
 62
     2
 10
232.03
 20
39.247480000000003
 30
0.0
 70
    32
  0
VERTEX
  5
A8D
  8
0
 62
     2
 10
233.05279999999999
 20
41.941600000000001
 30
0.0
 70
    32
  0
VERTEX
  5
A8E
  8
0
 62
     2
 10
234.06
 20
44.703200000000002
 30
0.0
 70
    32
  0
VERTEX
  5
A8F
  8
0
 62
     2
 10
235.05119999999999
 20
47.526000000000003
 30
0.0
 70
    32
  0
VERTEX
  5
A90
  8
0
 62
     2
 10
236.0248
 20
50.403199999999998
 30
0.0
 70
    32
  0
VERTEX
  5
A91
  8
0
 62
     2
 10
236.9796
 20
53.328400000000002
 30
0.0
 70
    32
  0
VERTEX
  5
A92
  8
0
 62
     2
 10
237.9144
 20
56.2956
 30
0.0
 70
    32
  0
VERTEX
  5
A93
  8
0
 62
     2
 10
238.82839999999999
 20
59.298400000000001
 30
0.0
 70
    32
  0
VERTEX
  5
A94
  8
0
 62
     2
 10
239.72040000000001
 20
62.329999999999998
 30
0.0
 70
    32
  0
VERTEX
  5
A95
  8
0
 62
     2
 10
240.58879999999999
 20
65.384799999999984
 30
0.0
 70
    32
  0
VERTEX
  5
A96
  8
0
 62
     2
 10
241.43279999999999
 20
68.455600000000004
 30
0.0
 70
    32
  0
VERTEX
  5
A97
  8
0
 62
     2
 10
242.25120000000001
 20
71.5364
 30
0.0
 70
    32
  0
VERTEX
  5
A98
  8
0
 62
     2
 10
243.0428
 20
74.621200000000002
 30
0.0
 70
    32
  0
VERTEX
  5
A99
  8
0
 62
     2
 10
243.80680000000001
 20
77.703199999999995
 30
0.0
 70
    32
  0
VERTEX
  5
A9A
  8
0
 62
     2
 10
244.5412
 20
80.775999999999996
 30
0.0
 70
    32
  0
VERTEX
  5
A9B
  8
0
 62
     2
 10
245.2456
 20
83.833600000000004
 30
0.0
 70
    32
  0
VERTEX
  5
A9C
  8
0
 62
     2
 10
245.91839999999999
 20
86.869200000000006
 30
0.0
 70
    32
  0
VERTEX
  5
A9D
  8
0
 62
     2
 10
246.55879999999999
 20
89.876800000000003
 30
0.0
 70
    32
  0
VERTEX
  5
A9E
  8
0
 62
     2
 10
247.1652
 20
92.849599999999995
 30
0.0
 70
    32
  0
VERTEX
  5
A9F
  8
0
 62
     2
 10
247.73679999999999
 20
95.781999999999996
 30
0.0
 70
    32
  0
VERTEX
  5
AA0
  8
0
 62
     2
 10
248.27279999999999
 20
98.666799999999995
 30
0.0
 70
    32
  0
VERTEX
  5
AA1
  8
0
 62
     2
 10
248.77119999999999
 20
101.498
 30
0.0
 70
    32
  0
VERTEX
  5
AA2
  8
0
 62
     2
 10
249.2312
 20
104.2692
 30
0.0
 70
    32
  0
VERTEX
  5
AA3
  8
0
 62
     2
 10
249.6516
 20
106.974
 30
0.0
 70
    32
  0
VERTEX
  5
AA4
  8
0
 62
     2
 10
250.0316
 20
109.60639999999999
 30
0.0
 70
    32
  0
VERTEX
  5
AA5
  8
0
 62
     2
 10
250.36959999999999
 20
112.1596
 30
0.0
 70
    32
  0
VERTEX
  5
AA6
  8
0
 62
     2
 10
250.66480000000001
 20
114.6272
 30
0.0
 70
    32
  0
VERTEX
  5
AA7
  8
0
 62
     2
 10
250.91560000000001
 20
117.00320000000001
 30
0.0
 70
    32
  0
VERTEX
  5
AA8
  8
0
 62
     2
 10
251.12119999999999
 20
119.2808
 30
0.0
 70
    32
  0
VERTEX
  5
AA9
  8
0
 62
     2
 10
251.2808
 20
121.4556
 30
0.0
 70
    32
  0
VERTEX
  5
AAA
  8
0
 62
     2
 10
251.39519999999999
 20
123.52800000000001
 30
0.0
 70
    32
  0
VERTEX
  5
AAB
  8
0
 62
     2
 10
251.46639999999999
 20
125.5008
 30
0.0
 70
    32
  0
VERTEX
  5
AAC
  8
0
 62
     2
 10
251.4956
 20
127.376
 30
0.0
 70
    32
  0
VERTEX
  5
AAD
  8
0
 62
     2
 10
251.48439999999999
 20
129.15559999999999
 30
0.0
 70
    32
  0
VERTEX
  5
AAE
  8
0
 62
     2
 10
251.434
 20
130.8424
 30
0.0
 70
    32
  0
VERTEX
  5
AAF
  8
0
 62
     2
 10
251.34639999999999
 20
132.43879999999999
 30
0.0
 70
    32
  0
VERTEX
  5
AB0
  8
0
 62
     2
 10
251.22239999999999
 20
133.9468
 30
0.0
 70
    32
  0
VERTEX
  5
AB1
  8
0
 62
     2
 10
251.06440000000001
 20
135.36920000000001
 30
0.0
 70
    32
  0
VERTEX
  5
AB2
  8
0
 62
     2
 10
250.8732
 20
136.70760000000001
 30
0.0
 70
    32
  0
VERTEX
  5
AB3
  8
0
 62
     2
 10
250.6508
 20
137.9648
 30
0.0
 70
    32
  0
VERTEX
  5
AB4
  8
0
 62
     2
 10
250.398
 20
139.14279999999999
 30
0.0
 70
    32
  0
VERTEX
  5
AB5
  8
0
 62
     2
 10
250.1172
 20
140.24440000000001
 30
0.0
 70
    32
  0
VERTEX
  5
AB6
  8
0
 62
     2
 10
249.8092
 20
141.27160000000001
 30
0.0
 70
    32
  0
VERTEX
  5
AB7
  8
0
 62
     2
 10
249.47559999999999
 20
142.2268
 30
0.0
 70
    32
  0
VERTEX
  5
AB8
  8
0
 62
     2
 10
249.11840000000001
 20
143.11240000000001
 30
0.0
 70
    32
  0
VERTEX
  5
AB9
  8
0
 62
     2
 10
248.73840000000001
 20
143.9308
 30
0.0
 70
    32
  0
VERTEX
  5
ABA
  8
0
 62
     2
 10
248.33760000000001
 20
144.684
 30
0.0
 70
    32
  0
VERTEX
  5
ABB
  8
0
 62
     2
 10
247.91720000000001
 20
145.37440000000001
 30
0.0
 70
    32
  0
VERTEX
  5
ABC
  8
0
 62
     2
 10
247.47919999999999
 20
146.0044
 30
0.0
 70
    32
  0
VERTEX
  5
ABD
  8
0
 62
     2
 10
247.02440000000001
 20
146.57640000000001
 30
0.0
 70
    32
  0
VERTEX
  5
ABE
  8
0
 62
     2
 10
246.5548
 20
147.0924
 30
0.0
 70
    32
  0
VERTEX
  5
ABF
  8
0
 62
     2
 10
246.07159999999999
 20
147.55520000000001
 30
0.0
 70
    32
  0
VERTEX
  5
AC0
  8
0
 62
     2
 10
245.57640000000001
 20
147.96680000000001
 30
0.0
 70
    32
  0
VERTEX
  5
AC1
  8
0
 62
     2
 10
245.0712
 20
148.33000000000001
 30
0.0
 70
    32
  0
VERTEX
  5
AC2
  8
0
 62
     2
 10
244.5564
 20
148.6464
 30
0.0
 70
    32
  0
VERTEX
  5
AC3
  8
0
 62
     2
 10
244.03479999999999
 20
148.9188
 30
0.0
 70
    32
  0
VERTEX
  5
AC4
  8
0
 62
     2
 10
243.5068
 20
149.14920000000001
 30
0.0
 70
    32
  0
VERTEX
  5
AC5
  8
0
 62
     2
 10
242.9744
 20
149.34039999999999
 30
0.0
 70
    32
  0
VERTEX
  5
AC6
  8
0
 62
     2
 10
242.4392
 20
149.494
 30
0.0
 70
    32
  0
VERTEX
  5
AC7
  8
0
 62
     2
 10
241.9024
 20
149.61320000000001
 30
0.0
 70
    32
  0
VERTEX
  5
AC8
  8
0
 62
     2
 10
241.3656
 20
149.6996
 30
0.0
 70
    32
  0
VERTEX
  5
AC9
  8
0
 62
     2
 10
240.8304
 20
149.756
 30
0.0
 70
    32
  0
VERTEX
  5
ACA
  8
0
 62
     2
 10
240.29839999999999
 20
149.78440000000001
 30
0.0
 70
    32
  0
VERTEX
  5
ACB
  8
0
 62
     2
 10
239.77080000000001
 20
149.78720000000001
 30
0.0
 70
    32
  0
VERTEX
  5
ACC
  8
0
 62
     2
 10
239.2492
 20
149.76519999999999
 30
0.0
 70
    32
  0
VERTEX
  5
ACD
  8
0
 62
     2
 10
238.73480000000001
 20
149.71639999999999
 30
0.0
 70
    32
  0
VERTEX
  5
ACE
  8
0
 62
     2
 10
238.22880000000001
 20
149.63839999999999
 30
0.0
 70
    32
  0
VERTEX
  5
ACF
  8
0
 62
     2
 10
237.73240000000001
 20
149.52879999999999
 30
0.0
 70
    32
  0
VERTEX
  5
AD0
  8
0
 62
     2
 10
237.24719999999999
 20
149.38560000000001
 30
0.0
 70
    32
  0
VERTEX
  5
AD1
  8
0
 62
     2
 10
236.77440000000001
 20
149.20599999999999
 30
0.0
 70
    32
  0
VERTEX
  5
AD2
  8
0
 62
     2
 10
236.31479999999999
 20
148.988
 30
0.0
 70
    32
  0
VERTEX
  5
AD3
  8
0
 62
     2
 10
235.87039999999999
 20
148.72919999999999
 30
0.0
 70
    32
  0
VERTEX
  5
AD4
  8
0
 62
     2
 10
235.44159999999999
 20
148.42760000000001
 30
0.0
 70
    32
  0
VERTEX
  5
AD5
  8
0
 62
     2
 10
235.03
 20
148.0804
 30
0.0
 70
    32
  0
VERTEX
  5
AD6
  8
0
 62
     2
 10
234.63720000000001
 20
147.68559999999999
 30
0.0
 70
    32
  0
VERTEX
  5
AD7
  8
0
 62
     2
 10
234.26439999999999
 20
147.24080000000001
 30
0.0
 70
    32
  0
VERTEX
  5
AD8
  8
0
 62
     2
 10
233.91200000000001
 20
146.74359999999999
 30
0.0
 70
    32
  0
VERTEX
  5
AD9
  8
0
 62
     2
 10
233.58240000000001
 20
146.19159999999999
 30
0.0
 70
    32
  0
VERTEX
  5
ADA
  8
0
 62
     2
 10
233.27600000000001
 20
145.58320000000001
 30
0.0
 70
    32
  0
VERTEX
  5
ADB
  8
0
 62
     2
 10
232.99440000000001
 20
144.91480000000001
 30
0.0
 70
    32
  0
VERTEX
  5
ADC
  8
0
 62
     2
 10
232.73920000000001
 20
144.18520000000001
 30
0.0
 70
    32
  0
VERTEX
  5
ADD
  8
0
 62
     2
 10
232.5112
 20
143.39160000000001
 30
0.0
 70
    32
  0
VERTEX
  5
ADE
  8
0
 62
     2
 10
232.3116
 20
142.53200000000001
 30
0.0
 70
    32
  0
VERTEX
  5
ADF
  8
0
 62
     2
 10
232.14160000000001
 20
141.6036
 30
0.0
 70
    32
  0
VERTEX
  5
AE0
  8
0
 62
     2
 10
232.00319999999999
 20
140.6044
 30
0.0
 70
    32
  0
VERTEX
  5
AE1
  8
0
 62
     2
 10
231.89680000000001
 20
139.53200000000001
 30
0.0
 70
    32
  0
VERTEX
  5
AE2
  8
0
 62
     2
 10
231.82400000000001
 20
138.3844
 30
0.0
 70
    32
  0
VERTEX
  5
AE3
  8
0
 62
     2
 10
231.786
 20
137.15880000000001
 30
0.0
 70
    32
  0
VERTEX
  5
AE4
  8
0
 62
     2
 10
231.78399999999999
 20
135.8528
 30
0.0
 70
    32
  0
VERTEX
  5
AE5
  8
0
 62
     2
 10
231.8192
 20
134.4648
 30
0.0
 70
    32
  0
VERTEX
  5
AE6
  8
0
 62
     2
 10
231.89359999999999
 20
132.99199999999999
 30
0.0
 70
    32
  0
VERTEX
  5
AE7
  8
0
 62
     2
 10
232.00720000000001
 20
131.43199999999999
 30
0.0
 70
    32
  0
VERTEX
  5
AE8
  8
0
 62
     2
 10
232.16239999999999
 20
129.78280000000001
 30
0.0
 70
    32
  0
VERTEX
  5
AE9
  8
0
 62
     2
 10
232.3596
 20
128.04159999999999
 30
0.0
 70
    32
  0
VERTEX
  5
AEA
  8
0
 62
     2
 10
232.60040000000001
 20
126.2068
 30
0.0
 70
    32
  0
VERTEX
  5
AEB
  8
0
 62
     2
 10
232.88640000000001
 20
124.2756
 30
0.0
 70
    32
  0
VERTEX
  5
AEC
  8
0
 62
     2
 10
233.2184
 20
122.2456
 30
0.0
 70
    32
  0
VERTEX
  5
AED
  8
0
 62
     2
 10
233.5976
 20
120.1148
 30
0.0
 70
    32
  0
VERTEX
  5
AEE
  8
0
 62
     2
 10
234.02520000000001
 20
117.88079999999999
 30
0.0
 70
    32
  0
VERTEX
  5
AEF
  8
0
 62
     2
 10
234.50120000000001
 20
115.54640000000001
 30
0.0
 70
    32
  0
VERTEX
  5
AF0
  8
0
 62
     2
 10
235.0232
 20
113.11799999999999
 30
0.0
 70
    32
  0
VERTEX
  5
AF1
  8
0
 62
     2
 10
235.58959999999999
 20
110.60120000000001
 30
0.0
 70
    32
  0
VERTEX
  5
AF2
  8
0
 62
     2
 10
236.19839999999999
 20
108.00320000000001
 30
0.0
 70
    32
  0
VERTEX
  5
AF3
  8
0
 62
     2
 10
236.84800000000001
 20
105.33
 30
0.0
 70
    32
  0
VERTEX
  5
AF4
  8
0
 62
     2
 10
237.53639999999999
 20
102.58759999999999
 30
0.0
 70
    32
  0
VERTEX
  5
AF5
  8
0
 62
     2
 10
238.26159999999999
 20
99.783199999999994
 30
0.0
 70
    32
  0
VERTEX
  5
AF6
  8
0
 62
     2
 10
239.02160000000001
 20
96.922399999999996
 30
0.0
 70
    32
  0
VERTEX
  5
AF7
  8
0
 62
     2
 10
239.81479999999999
 20
94.011600000000001
 30
0.0
 70
    32
  0
VERTEX
  5
AF8
  8
0
 62
     2
 10
240.6396
 20
91.057599999999994
 30
0.0
 70
    32
  0
VERTEX
  5
AF9
  8
0
 62
     2
 10
241.4932
 20
88.066399999999987
 30
0.0
 70
    32
  0
VERTEX
  5
AFA
  8
0
 62
     2
 10
242.37479999999999
 20
85.044399999999996
 30
0.0
 70
    32
  0
VERTEX
  5
AFB
  8
0
 62
     2
 10
243.2816
 20
81.998000000000005
 30
0.0
 70
    32
  0
VERTEX
  5
AFC
  8
0
 62
     2
 10
244.21279999999999
 20
78.933999999999983
 30
0.0
 70
    32
  0
VERTEX
  5
AFD
  8
0
 62
     2
 10
245.1652
 20
75.857600000000005
 30
0.0
 70
    32
  0
VERTEX
  5
AFE
  8
0
 62
     2
 10
246.13800000000001
 20
72.776399999999995
 30
0.0
 70
    32
  0
VERTEX
  5
AFF
  8
0
 62
     2
 10
247.1292
 20
69.695999999999984
 30
0.0
 70
    32
  0
VERTEX
  5
B00
  8
0
 62
     2
 10
248.13640000000001
 20
66.623199999999997
 30
0.0
 70
    32
  0
VERTEX
  5
B01
  8
0
 62
     2
 10
249.15799999999999
 20
63.563600000000001
 30
0.0
 70
    32
  0
VERTEX
  5
B02
  8
0
 62
     2
 10
250.19200000000001
 20
60.5244
 30
0.0
 70
    32
  0
VERTEX
  5
B03
  8
0
 62
     2
 10
251.23679999999999
 20
57.512
 30
0.0
 70
    32
  0
VERTEX
  5
B04
  8
0
 62
     2
 10
252.29040000000001
 20
54.531999999999989
 30
0.0
 70
    32
  0
VERTEX
  5
B05
  8
0
 62
     2
 10
253.35120000000001
 20
51.590800000000002
 30
0.0
 70
    32
  0
VERTEX
  5
B06
  8
0
 62
     2
 10
254.41679999999999
 20
48.695599999999992
 30
0.0
 70
    32
  0
VERTEX
  5
B07
  8
0
 62
     2
 10
255.48560000000001
 20
45.85199999999999
 30
0.0
 70
    32
  0
VERTEX
  5
B08
  8
0
 62
     2
 10
256.55599999999998
 20
43.066800000000001
 30
0.0
 70
    32
  0
VERTEX
  5
B09
  8
0
 62
     2
 10
257.62560000000002
 20
40.345999999999997
 30
0.0
 70
    32
  0
VERTEX
  5
B0A
  8
0
 62
     2
 10
258.69279999999998
 20
37.695959999999999
 30
0.0
 70
    32
  0
VERTEX
  5
B0B
  8
0
 62
     2
 10
259.75560000000002
 20
35.123280000000001
 30
0.0
 70
    32
  0
VERTEX
  5
B0C
  8
0
 62
     2
 10
260.81240000000003
 20
32.634159999999987
 30
0.0
 70
    32
  0
VERTEX
  5
B0D
  8
0
 62
     2
 10
261.8612
 20
30.235040000000001
 30
0.0
 70
    32
  0
VERTEX
  5
B0E
  8
0
 62
     2
 10
262.89999999999998
 20
27.932200000000002
 30
0.0
 70
    32
  0
VERTEX
  5
B0F
  8
0
 62
     2
 10
263.92720000000003
 20
25.731999999999999
 30
0.0
 70
    32
  0
VERTEX
  5
B10
  8
0
 62
     2
 10
264.94040000000001
 20
23.640840000000001
 30
0.0
 70
    32
  0
VERTEX
  5
B11
  8
0
 62
     2
 10
265.93880000000001
 20
21.664079999999998
 30
0.0
 70
    32
  0
VERTEX
  5
B12
  8
0
 62
     2
 10
266.92239999999998
 20
19.801359999999999
 30
0.0
 70
    32
  0
VERTEX
  5
B13
  8
0
 62
     2
 10
267.89280000000002
 20
18.050160000000002
 30
0.0
 70
    32
  0
VERTEX
  5
B14
  8
0
 62
     2
 10
268.85120000000001
 20
16.40784
 30
0.0
 70
    32
  0
VERTEX
  5
B15
  8
0
 62
     2
 10
269.79919999999998
 20
14.871880000000001
 30
0.0
 70
    32
  0
VERTEX
  5
B16
  8
0
 62
     2
 10
270.73759999999999
 20
13.439719999999999
 30
0.0
 70
    32
  0
VERTEX
  5
B17
  8
0
 62
     2
 10
271.66879999999998
 20
12.10872
 30
0.0
 70
    32
  0
VERTEX
  5
B18
  8
0
 62
     2
 10
272.59320000000002
 20
10.8764
 30
0.0
 70
    32
  0
VERTEX
  5
B19
  8
0
 62
     2
 10
273.51240000000001
 20
9.7401199999999992
 30
0.0
 70
    32
  0
VERTEX
  5
B1A
  8
0
 62
     2
 10
274.428
 20
8.6973199999999995
 30
0.0
 70
    32
  0
VERTEX
  5
B1B
  8
0
 62
     2
 10
275.34120000000001
 20
7.7454399999999994
 30
0.0
 70
    32
  0
VERTEX
  5
B1C
  8
0
 62
     2
 10
276.25360000000001
 20
6.8818799999999998
 30
0.0
 70
    32
  0
VERTEX
  5
B1D
  8
0
 62
     2
 10
277.166
 20
6.1041199999999991
 30
0.0
 70
    32
  0
VERTEX
  5
B1E
  8
0
 62
     2
 10
278.0804
 20
5.4096000000000002
 30
0.0
 70
    32
  0
VERTEX
  5
B1F
  8
0
 62
     2
 10
278.99759999999998
 20
4.7956399999999997
 30
0.0
 70
    32
  0
VERTEX
  5
B20
  8
0
 62
     2
 10
279.91919999999999
 20
4.2598000000000003
 30
0.0
 70
    32
  0
VERTEX
  5
B21
  8
0
 62
     2
 10
280.84679999999997
 20
3.7994199999999991
 30
0.0
 70
    32
  0
VERTEX
  5
B22
  8
0
 62
     2
 10
281.78120000000001
 20
3.4119639999999989
 30
0.0
 70
    32
  0
VERTEX
  5
B23
  8
0
 62
     2
 10
282.7244
 20
3.094851999999999
 30
0.0
 70
    32
  0
VERTEX
  5
B24
  8
0
 62
     2
 10
283.67759999999998
 20
2.8455119999999989
 30
0.0
 70
    32
  0
VERTEX
  5
B25
  8
0
 62
     2
 10
284.64159999999998
 20
2.6613759999999989
 30
0.0
 70
    32
  0
VERTEX
  5
B26
  8
0
 62
     2
 10
285.61840000000001
 20
2.539871999999999
 30
0.0
 70
    32
  0
VERTEX
  5
B27
  8
0
 62
     2
 10
286.60879999999997
 20
2.4784280000000001
 30
0.0
 70
    32
  0
VERTEX
  5
B28
  8
0
 62
     2
 10
287.6148
 20
2.4744759999999988
 30
0.0
 70
    32
  0
VERTEX
  5
B29
  8
0
 62
     2
 10
288.63760000000002
 20
2.525436
 30
0.0
 70
    32
  0
VERTEX
  5
B2A
  8
0
 62
     2
 10
289.678
 20
2.6287439999999989
 30
0.0
 70
    32
  0
VERTEX
  5
B2B
  8
0
 62
     2
 10
290.738
 20
2.7818239999999999
 30
0.0
 70
    32
  0
VERTEX
  5
B2C
  8
0
 62
     2
 10
291.81880000000001
 20
2.9821080000000002
 30
0.0
 70
    32
  0
VERTEX
  5
B2D
  8
0
 62
     2
 10
292.92160000000001
 20
3.2270240000000001
 30
0.0
 70
    32
  0
VERTEX
  5
B2E
  8
0
 62
     2
 10
294.04759999999999
 20
3.5139999999999989
 30
0.0
 70
    32
  0
VERTEX
  5
B2F
  8
0
 62
     2
 10
295.19880000000001
 20
3.8404599999999989
 30
0.0
 70
    32
  0
VERTEX
  5
B30
  8
0
 62
     2
 10
296.37599999999998
 20
4.2038399999999996
 30
0.0
 70
    32
  0
VERTEX
  5
B31
  8
0
 62
     2
 10
297.58080000000001
 20
4.6015600000000001
 30
0.0
 70
    32
  0
VERTEX
  5
B32
  8
0
 62
     2
 10
298.81439999999998
 20
5.0310800000000002
 30
0.0
 70
    32
  0
VERTEX
  5
B33
  8
0
 62
     2
 10
300.07799999999997
 20
5.4897599999999986
 30
0.0
 70
    32
  0
VERTEX
  5
B34
  8
0
 62
     2
 10
301.37240000000003
 20
5.9752000000000001
 30
0.0
 70
    32
  0
VERTEX
  5
B35
  8
0
 62
     2
 10
302.69560000000001
 20
6.4850399999999997
 30
0.0
 70
    32
  0
VERTEX
  5
B36
  8
0
 62
     2
 10
304.04520000000002
 20
7.0170799999999991
 30
0.0
 70
    32
  0
VERTEX
  5
B37
  8
0
 62
     2
 10
305.41800000000001
 20
7.5690799999999996
 30
0.0
 70
    32
  0
VERTEX
  5
B38
  8
0
 62
     2
 10
306.81279999999998
 20
8.1387999999999998
 30
0.0
 70
    32
  0
VERTEX
  5
B39
  8
0
 62
     2
 10
308.226
 20
8.7240000000000002
 30
0.0
 70
    32
  0
VERTEX
  5
B3A
  8
0
 62
     2
 10
309.65640000000002
 20
9.3224
 30
0.0
 70
    32
  0
VERTEX
  5
B3B
  8
0
 62
     2
 10
311.10039999999998
 20
9.9318000000000008
 30
0.0
 70
    32
  0
VERTEX
  5
B3C
  8
0
 62
     2
 10
312.55599999999998
 20
10.54996
 30
0.0
 70
    32
  0
VERTEX
  5
B3D
  8
0
 62
     2
 10
314.02120000000002
 20
11.17464
 30
0.0
 70
    32
  0
VERTEX
  5
B3E
  8
0
 62
     2
 10
315.4932
 20
11.803559999999999
 30
0.0
 70
    32
  0
VERTEX
  5
B3F
  8
0
 62
     2
 10
316.96960000000001
 20
12.434519999999999
 30
0.0
 70
    32
  0
VERTEX
  5
B40
  8
0
 62
     2
 10
318.44799999999998
 20
13.06528
 30
0.0
 70
    32
  0
VERTEX
  5
B41
  8
0
 62
     2
 10
319.92599999999999
 20
13.69356
 30
0.0
 70
    32
  0
VERTEX
  5
B42
  8
0
 62
     2
 10
321.40159999999997
 20
14.317119999999999
 30
0.0
 70
    32
  0
VERTEX
  5
B43
  8
0
 62
     2
 10
322.87119999999999
 20
14.9338
 30
0.0
 70
    32
  0
VERTEX
  5
B44
  8
0
 62
     2
 10
324.33359999999999
 20
15.54124
 30
0.0
 70
    32
  0
VERTEX
  5
B45
  8
0
 62
     2
 10
325.786
 20
16.137280000000001
 30
0.0
 70
    32
  0
VERTEX
  5
B46
  8
0
 62
     2
 10
327.22559999999999
 20
16.71968
 30
0.0
 70
    32
  0
VERTEX
  5
B47
  8
0
 62
     2
 10
328.65039999999999
 20
17.286159999999999
 30
0.0
 70
    32
  0
VERTEX
  5
B48
  8
0
 62
     2
 10
330.05799999999999
 20
17.834479999999999
 30
0.0
 70
    32
  0
VERTEX
  5
B49
  8
0
 62
     2
 10
331.44560000000001
 20
18.362400000000001
 30
0.0
 70
    32
  0
VERTEX
  5
B4A
  8
0
 62
     2
 10
332.81119999999999
 20
18.867719999999998
 30
0.0
 70
    32
  0
VERTEX
  5
B4B
  8
0
 62
     2
 10
334.15199999999999
 20
19.34816
 30
0.0
 70
    32
  0
VERTEX
  5
B4C
  8
0
 62
     2
 10
335.46600000000001
 20
19.80152
 30
0.0
 70
    32
  0
VERTEX
  5
B4D
  8
0
 62
     2
 10
336.75040000000001
 20
20.225480000000001
 30
0.0
 70
    32
  0
VERTEX
  5
B4E
  8
0
 62
     2
 10
338.00319999999999
 20
20.61788
 30
0.0
 70
    32
  0
VERTEX
  5
B4F
  8
0
 62
     2
 10
339.22160000000002
 20
20.97644
 30
0.0
 70
    32
  0
VERTEX
  5
B50
  8
0
 62
     2
 10
340.40320000000003
 20
21.298919999999999
 30
0.0
 70
    32
  0
VERTEX
  5
B51
  8
0
 62
     2
 10
341.54559999999998
 20
21.583079999999999
 30
0.0
 70
    32
  0
VERTEX
  5
B52
  8
0
 62
     2
 10
342.64679999999998
 20
21.82668
 30
0.0
 70
    32
  0
VERTEX
  5
B53
  8
0
 62
     2
 10
343.70359999999999
 20
22.027480000000001
 30
0.0
 70
    32
  0
VERTEX
  5
B54
  8
0
 62
     2
 10
344.71440000000001
 20
22.183240000000001
 30
0.0
 70
    32
  0
VERTEX
  5
B55
  8
0
 62
     2
 10
345.67599999999999
 20
22.291720000000002
 30
0.0
 70
    32
  0
VERTEX
  5
B56
  8
0
 62
     2
 10
346.58679999999998
 20
22.350760000000001
 30
0.0
 70
    32
  0
VERTEX
  5
B57
  8
0
 62
     2
 10
347.4452
 20
22.360040000000001
 30
0.0
 70
    32
  0
VERTEX
  5
B58
  8
0
 62
     2
 10
348.25080000000003
 20
22.321560000000002
 30
0.0
 70
    32
  0
VERTEX
  5
B59
  8
0
 62
     2
 10
349.00479999999999
 20
22.237439999999999
 30
0.0
 70
    32
  0
VERTEX
  5
B5A
  8
0
 62
     2
 10
349.70679999999999
 20
22.10988
 30
0.0
 70
    32
  0
VERTEX
  5
B5B
  8
0
 62
     2
 10
350.35719999999998
 20
21.94096
 30
0.0
 70
    32
  0
VERTEX
  5
B5C
  8
0
 62
     2
 10
350.95600000000002
 20
21.732839999999999
 30
0.0
 70
    32
  0
VERTEX
  5
B5D
  8
0
 62
     2
 10
351.50400000000002
 20
21.487639999999999
 30
0.0
 70
    32
  0
VERTEX
  5
B5E
  8
0
 62
     2
 10
352.00080000000003
 20
21.207519999999999
 30
0.0
 70
    32
  0
VERTEX
  5
B5F
  8
0
 62
     2
 10
352.4468
 20
20.894600000000001
 30
0.0
 70
    32
  0
VERTEX
  5
B60
  8
0
 62
     2
 10
352.84199999999998
 20
20.55104
 30
0.0
 70
    32
  0
VERTEX
  5
B61
  8
0
 62
     2
 10
353.18720000000002
 20
20.17896
 30
0.0
 70
    32
  0
VERTEX
  5
B62
  8
0
 62
     2
 10
353.48239999999998
 20
19.780480000000001
 30
0.0
 70
    32
  0
VERTEX
  5
B63
  8
0
 62
     2
 10
353.7276
 20
19.35772
 30
0.0
 70
    32
  0
VERTEX
  5
B64
  8
0
 62
     2
 10
353.9228
 20
18.912880000000001
 30
0.0
 70
    32
  0
VERTEX
  5
B65
  8
0
 62
     2
 10
354.06880000000001
 20
18.448080000000001
 30
0.0
 70
    32
  0
VERTEX
  5
B66
  8
0
 62
     2
 10
354.16559999999998
 20
17.965399999999999
 30
0.0
 70
    32
  0
VERTEX
  5
B67
  8
0
 62
     2
 10
354.21359999999999
 20
17.467040000000001
 30
0.0
 70
    32
  0
VERTEX
  5
B68
  8
0
 62
     2
 10
354.2124
 20
16.955120000000001
 30
0.0
 70
    32
  0
VERTEX
  5
B69
  8
0
 62
     2
 10
354.1628
 20
16.431760000000001
 30
0.0
 70
    32
  0
VERTEX
  5
B6A
  8
0
 62
     2
 10
354.06479999999999
 20
15.89912
 30
0.0
 70
    32
  0
VERTEX
  5
B6B
  8
0
 62
     2
 10
353.91879999999998
 20
15.35928
 30
0.0
 70
    32
  0
VERTEX
  5
B6C
  8
0
 62
     2
 10
353.72480000000002
 20
14.81448
 30
0.0
 70
    32
  0
VERTEX
  5
B6D
  8
0
 62
     2
 10
353.48320000000001
 20
14.26676
 30
0.0
 70
    32
  0
VERTEX
  5
B6E
  8
0
 62
     2
 10
353.1936
 20
13.71828
 30
0.0
 70
    32
  0
VERTEX
  5
B6F
  8
0
 62
     2
 10
352.85719999999998
 20
13.171200000000001
 30
0.0
 70
    32
  0
VERTEX
  5
B70
  8
0
 62
     2
 10
352.47359999999998
 20
12.62768
 30
0.0
 70
    32
  0
VERTEX
  5
B71
  8
0
 62
     2
 10
352.04320000000001
 20
12.0898
 30
0.0
 70
    32
  0
VERTEX
  5
B72
  8
0
 62
     2
 10
351.56639999999999
 20
11.55968
 30
0.0
 70
    32
  0
VERTEX
  5
B73
  8
0
 62
     2
 10
351.0428
 20
11.03956
 30
0.0
 70
    32
  0
VERTEX
  5
B74
  8
0
 62
     2
 10
350.47320000000002
 20
10.53148
 30
0.0
 70
    32
  0
VERTEX
  5
B75
  8
0
 62
     2
 10
349.85759999999999
 20
10.037599999999999
 30
0.0
 70
    32
  0
VERTEX
  5
B76
  8
0
 62
     2
 10
349.19639999999998
 20
9.560080000000001
 30
0.0
 70
    32
  0
VERTEX
  5
B77
  8
0
 62
     2
 10
348.4896
 20
9.1010399999999994
 30
0.0
 70
    32
  0
VERTEX
  5
B78
  8
0
 62
     2
 10
347.73759999999999
 20
8.6625999999999994
 30
0.0
 70
    32
  0
VERTEX
  5
B79
  8
0
 62
     2
 10
346.94040000000001
 20
8.2468800000000009
 30
0.0
 70
    32
  0
VERTEX
  5
B7A
  8
0
 62
     2
 10
346.10039999999998
 20
7.8557199999999989
 30
0.0
 70
    32
  0
VERTEX
  5
B7B
  8
0
 62
     2
 10
345.2192
 20
7.4907199999999987
 30
0.0
 70
    32
  0
VERTEX
  5
B7C
  8
0
 62
     2
 10
344.30040000000002
 20
7.1535599999999997
 30
0.0
 70
    32
  0
VERTEX
  5
B7D
  8
0
 62
     2
 10
343.346
 20
6.845839999999999
 30
0.0
 70
    32
  0
VERTEX
  5
B7E
  8
0
 62
     2
 10
342.35840000000002
 20
6.5692000000000004
 30
0.0
 70
    32
  0
VERTEX
  5
B7F
  8
0
 62
     2
 10
341.34039999999999
 20
6.3253199999999987
 30
0.0
 70
    32
  0
VERTEX
  5
B80
  8
0
 62
     2
 10
340.29480000000001
 20
6.1158000000000001
 30
0.0
 70
    32
  0
VERTEX
  5
B81
  8
0
 62
     2
 10
339.22359999999998
 20
5.9422800000000002
 30
0.0
 70
    32
  0
VERTEX
  5
B82
  8
0
 62
     2
 10
338.13
 20
5.8064400000000003
 30
0.0
 70
    32
  0
VERTEX
  5
B83
  8
0
 62
     2
 10
337.01600000000002
 20
5.7098800000000001
 30
0.0
 70
    32
  0
VERTEX
  5
B84
  8
0
 62
     2
 10
335.88440000000003
 20
5.6542799999999991
 30
0.0
 70
    32
  0
VERTEX
  5
B85
  8
0
 62
     2
 10
334.73759999999999
 20
5.6412399999999989
 30
0.0
 70
    32
  0
VERTEX
  5
B86
  8
0
 62
     2
 10
333.57839999999999
 20
5.6723999999999988
 30
0.0
 70
    32
  0
VERTEX
  5
B87
  8
0
 62
     2
 10
332.4092
 20
5.749439999999999
 30
0.0
 70
    32
  0
VERTEX
  5
B88
  8
0
 62
     2
 10
331.2328
 20
5.8739600000000003
 30
0.0
 70
    32
  0
VERTEX
  5
B89
  8
0
 62
     2
 10
330.05160000000001
 20
6.0476000000000001
 30
0.0
 70
    32
  0
VERTEX
  5
B8A
  8
0
 62
     2
 10
328.86759999999998
 20
6.2720399999999996
 30
0.0
 70
    32
  0
VERTEX
  5
B8B
  8
0
 62
     2
 10
327.68439999999998
 20
6.5488799999999996
 30
0.0
 70
    32
  0
VERTEX
  5
B8C
  8
0
 62
     2
 10
326.50360000000001
 20
6.8798000000000004
 30
0.0
 70
    32
  0
VERTEX
  5
B8D
  8
0
 62
     2
 10
325.32839999999999
 20
7.2663599999999997
 30
0.0
 70
    32
  0
VERTEX
  5
B8E
  8
0
 62
     2
 10
324.16120000000001
 20
7.7103199999999994
 30
0.0
 70
    32
  0
VERTEX
  5
B8F
  8
0
 62
     2
 10
323.00439999999998
 20
8.2132000000000005
 30
0.0
 70
    32
  0
VERTEX
  5
B90
  8
0
 62
     2
 10
321.86079999999998
 20
8.7767199999999992
 30
0.0
 70
    32
  0
VERTEX
  5
B91
  8
0
 62
     2
 10
320.7328
 20
9.4024800000000006
 30
0.0
 70
    32
  0
VERTEX
  5
B92
  8
0
 62
     2
 10
319.62279999999998
 20
10.09212
 30
0.0
 70
    32
  0
VERTEX
  5
B93
  8
0
 62
     2
 10
318.53359999999998
 20
10.84732
 30
0.0
 70
    32
  0
VERTEX
  5
B94
  8
0
 62
     2
 10
317.4676
 20
11.66968
 30
0.0
 70
    32
  0
VERTEX
  5
B95
  8
0
 62
     2
 10
316.42759999999998
 20
12.560840000000001
 30
0.0
 70
    32
  0
VERTEX
  5
B96
  8
0
 62
     2
 10
315.41559999999998
 20
13.52248
 30
0.0
 70
    32
  0
VERTEX
  5
B97
  8
0
 62
     2
 10
314.4348
 20
14.5562
 30
0.0
 70
    32
  0
VERTEX
  5
B98
  8
0
 62
     2
 10
313.48759999999999
 20
15.663639999999999
 30
0.0
 70
    32
  0
VERTEX
  5
B99
  8
0
 62
     2
 10
312.57639999999998
 20
16.84648
 30
0.0
 70
    32
  0
VERTEX
  5
B9A
  8
0
 62
     2
 10
311.70400000000001
 20
18.10632
 30
0.0
 70
    32
  0
VERTEX
  5
B9B
  8
0
 62
     2
 10
310.87240000000003
 20
19.444800000000001
 30
0.0
 70
    32
  0
VERTEX
  5
B9C
  8
0
 62
     2
 10
310.08440000000002
 20
20.862559999999998
 30
0.0
 70
    32
  0
VERTEX
  5
B9D
  8
0
 62
     2
 10
309.33960000000002
 20
22.35632
 30
0.0
 70
    32
  0
VERTEX
  5
B9E
  8
0
 62
     2
 10
308.63760000000002
 20
23.921720000000001
 30
0.0
 70
    32
  0
VERTEX
  5
B9F
  8
0
 62
     2
 10
307.97840000000002
 20
25.55444
 30
0.0
 70
    32
  0
VERTEX
  5
BA0
  8
0
 62
     2
 10
307.36079999999998
 20
27.2502
 30
0.0
 70
    32
  0
VERTEX
  5
BA1
  8
0
 62
     2
 10
306.78519999999997
 20
29.0046
 30
0.0
 70
    32
  0
VERTEX
  5
BA2
  8
0
 62
     2
 10
306.25040000000001
 20
30.813359999999999
 30
0.0
 70
    32
  0
VERTEX
  5
BA3
  8
0
 62
     2
 10
305.7568
 20
32.672199999999997
 30
0.0
 70
    32
  0
VERTEX
  5
BA4
  8
0
 62
     2
 10
305.30360000000002
 20
34.576720000000002
 30
0.0
 70
    32
  0
VERTEX
  5
BA5
  8
0
 62
     2
 10
304.88999999999999
 20
36.52264000000001
 30
0.0
 70
    32
  0
VERTEX
  5
BA6
  8
0
 62
     2
 10
304.51639999999998
 20
38.505679999999998
 30
0.0
 70
    32
  0
VERTEX
  5
BA7
  8
0
 62
     2
 10
304.1816
 20
40.521599999999992
 30
0.0
 70
    32
  0
VERTEX
  5
BA8
  8
0
 62
     2
 10
303.88560000000001
 20
42.565600000000003
 30
0.0
 70
    32
  0
VERTEX
  5
BA9
  8
0
 62
     2
 10
303.62799999999999
 20
44.634
 30
0.0
 70
    32
  0
VERTEX
  5
BAA
  8
0
 62
     2
 10
303.40800000000002
 20
46.722000000000001
 30
0.0
 70
    32
  0
VERTEX
  5
BAB
  8
0
 62
     2
 10
303.22559999999999
 20
48.825600000000001
 30
0.0
 70
    32
  0
VERTEX
  5
BAC
  8
0
 62
     2
 10
303.0804
 20
50.94039999999999
 30
0.0
 70
    32
  0
VERTEX
  5
BAD
  8
0
 62
     2
 10
302.97160000000002
 20
53.061599999999999
 30
0.0
 70
    32
  0
VERTEX
  5
BAE
  8
0
 62
     2
 10
302.89920000000001
 20
55.185600000000001
 30
0.0
 70
    32
  0
VERTEX
  5
BAF
  8
0
 62
     2
 10
302.86239999999998
 20
57.308
 30
0.0
 70
    32
  0
VERTEX
  5
BB0
  8
0
 62
     2
 10
302.8612
 20
59.423999999999999
 30
0.0
 70
    32
  0
VERTEX
  5
BB1
  8
0
 62
     2
 10
302.89479999999998
 20
61.529600000000002
 30
0.0
 70
    32
  0
VERTEX
  5
BB2
  8
0
 62
     2
 10
302.96280000000002
 20
63.620399999999997
 30
0.0
 70
    32
  0
VERTEX
  5
BB3
  8
0
 62
     2
 10
303.06479999999999
 20
65.691999999999993
 30
0.0
 70
    32
  0
VERTEX
  5
BB4
  8
0
 62
     2
 10
303.20080000000002
 20
67.740399999999994
 30
0.0
 70
    32
  0
VERTEX
  5
BB5
  8
0
 62
     2
 10
303.37
 20
69.760800000000003
 30
0.0
 70
    32
  0
VERTEX
  5
BB6
  8
0
 62
     2
 10
303.572
 20
71.749600000000001
 30
0.0
 70
    32
  0
VERTEX
  5
BB7
  8
0
 62
     2
 10
303.8064
 20
73.701599999999999
 30
0.0
 70
    32
  0
VERTEX
  5
BB8
  8
0
 62
     2
 10
304.07279999999997
 20
75.612799999999993
 30
0.0
 70
    32
  0
VERTEX
  5
BB9
  8
0
 62
     2
 10
304.37079999999997
 20
77.479200000000006
 30
0.0
 70
    32
  0
VERTEX
  5
BBA
  8
0
 62
     2
 10
304.69999999999999
 20
79.296000000000006
 30
0.0
 70
    32
  0
VERTEX
  5
BBB
  8
0
 62
     2
 10
305.06
 20
81.059200000000004
 30
0.0
 70
    32
  0
VERTEX
  5
BBC
  8
0
 62
     2
 10
305.44999999999999
 20
82.764399999999995
 30
0.0
 70
    32
  0
VERTEX
  5
BBD
  8
0
 62
     2
 10
305.87040000000002
 20
84.407600000000002
 30
0.0
 70
    32
  0
VERTEX
  5
BBE
  8
0
 62
     2
 10
306.31999999999999
 20
85.983999999999995
 30
0.0
 70
    32
  0
VERTEX
  5
BBF
  8
0
 62
     2
 10
306.79880000000003
 20
87.491200000000006
 30
0.0
 70
    32
  0
VERTEX
  5
BC0
  8
0
 62
     2
 10
307.30520000000001
 20
88.930800000000005
 30
0.0
 70
    32
  0
VERTEX
  5
BC1
  8
0
 62
     2
 10
307.83920000000001
 20
90.304000000000002
 30
0.0
 70
    32
  0
VERTEX
  5
BC2
  8
0
 62
     2
 10
308.39960000000002
 20
91.612399999999994
 30
0.0
 70
    32
  0
VERTEX
  5
BC3
  8
0
 62
     2
 10
308.98559999999998
 20
92.857600000000005
 30
0.0
 70
    32
  0
VERTEX
  5
BC4
  8
0
 62
     2
 10
309.59640000000002
 20
94.040800000000004
 30
0.0
 70
    32
  0
VERTEX
  5
BC5
  8
0
 62
     2
 10
310.23079999999999
 20
95.163600000000002
 30
0.0
 70
    32
  0
VERTEX
  5
BC6
  8
0
 62
     2
 10
310.88839999999999
 20
96.227599999999995
 30
0.0
 70
    32
  0
VERTEX
  5
BC7
  8
0
 62
     2
 10
311.5684
 20
97.233999999999995
 30
0.0
 70
    32
  0
VERTEX
  5
BC8
  8
0
 62
     2
 10
312.26920000000001
 20
98.184799999999996
 30
0.0
 70
    32
  0
VERTEX
  5
BC9
  8
0
 62
     2
 10
312.99079999999998
 20
99.081199999999995
 30
0.0
 70
    32
  0
VERTEX
  5
BCA
  8
0
 62
     2
 10
313.73200000000003
 20
99.924800000000005
 30
0.0
 70
    32
  0
VERTEX
  5
BCB
  8
0
 62
     2
 10
314.49200000000002
 20
100.71680000000001
 30
0.0
 70
    32
  0
VERTEX
  5
BCC
  8
0
 62
     2
 10
315.26999999999998
 20
101.4588
 30
0.0
 70
    32
  0
VERTEX
  5
BCD
  8
0
 62
     2
 10
316.06479999999999
 20
102.1524
 30
0.0
 70
    32
  0
VERTEX
  5
BCE
  8
0
 62
     2
 10
316.87639999999999
 20
102.7992
 30
0.0
 70
    32
  0
VERTEX
  5
BCF
  8
0
 62
     2
 10
317.70280000000002
 20
103.4008
 30
0.0
 70
    32
  0
VERTEX
  5
BD0
  8
0
 62
     2
 10
318.54399999999998
 20
103.958
 30
0.0
 70
    32
  0
VERTEX
  5
BD1
  8
0
 62
     2
 10
319.39879999999999
 20
104.47280000000001
 30
0.0
 70
    32
  0
VERTEX
  5
BD2
  8
0
 62
     2
 10
320.26679999999999
 20
104.9468
 30
0.0
 70
    32
  0
VERTEX
  5
BD3
  8
0
 62
     2
 10
321.14640000000003
 20
105.38160000000001
 30
0.0
 70
    32
  0
VERTEX
  5
BD4
  8
0
 62
     2
 10
322.03719999999998
 20
105.77800000000001
 30
0.0
 70
    32
  0
VERTEX
  5
BD5
  8
0
 62
     2
 10
322.9384
 20
106.13800000000001
 30
0.0
 70
    32
  0
VERTEX
  5
BD6
  8
0
 62
     2
 10
323.8492
 20
106.4632
 30
0.0
 70
    32
  0
VERTEX
  5
BD7
  8
0
 62
     2
 10
324.76839999999999
 20
106.7548
 30
0.0
 70
    32
  0
VERTEX
  5
BD8
  8
0
 62
     2
 10
325.69560000000001
 20
107.01439999999999
 30
0.0
 70
    32
  0
VERTEX
  5
BD9
  8
0
 62
     2
 10
326.62920000000003
 20
107.2432
 30
0.0
 70
    32
  0
VERTEX
  5
BDA
  8
0
 62
     2
 10
327.56920000000002
 20
107.4432
 30
0.0
 70
    32
  0
VERTEX
  5
BDB
  8
0
 62
     2
 10
328.51479999999998
 20
107.6156
 30
0.0
 70
    32
  0
VERTEX
  5
BDC
  8
0
 62
     2
 10
329.46440000000001
 20
107.762
 30
0.0
 70
    32
  0
VERTEX
  5
BDD
  8
0
 62
     2
 10
330.41759999999999
 20
107.884
 30
0.0
 70
    32
  0
VERTEX
  5
BDE
  8
0
 62
     2
 10
331.3732
 20
107.9828
 30
0.0
 70
    32
  0
VERTEX
  5
BDF
  8
0
 62
     2
 10
332.33080000000001
 20
108.06
 30
0.0
 70
    32
  0
VERTEX
  5
BE0
  8
0
 62
     2
 10
333.28960000000001
 20
108.1172
 30
0.0
 70
    32
  0
VERTEX
  5
BE1
  8
0
 62
     2
 10
334.2484
 20
108.15560000000001
 30
0.0
 70
    32
  0
VERTEX
  5
BE2
  8
0
 62
     2
 10
335.20639999999997
 20
108.1752
 30
0.0
 70
    32
  0
VERTEX
  5
BE3
  8
0
 62
     2
 10
336.16359999999997
 20
108.17440000000001
 30
0.0
 70
    32
  0
VERTEX
  5
BE4
  8
0
 62
     2
 10
337.11840000000001
 20
108.1516
 30
0.0
 70
    32
  0
VERTEX
  5
BE5
  8
0
 62
     2
 10
338.07119999999998
 20
108.1052
 30
0.0
 70
    32
  0
VERTEX
  5
BE6
  8
0
 62
     2
 10
339.0204
 20
108.03360000000001
 30
0.0
 70
    32
  0
VERTEX
  5
BE7
  8
0
 62
     2
 10
339.96600000000001
 20
107.93519999999999
 30
0.0
 70
    32
  0
VERTEX
  5
BE8
  8
0
 62
     2
 10
340.90719999999999
 20
107.80840000000001
 30
0.0
 70
    32
  0
VERTEX
  5
BE9
  8
0
 62
     2
 10
341.84280000000001
 20
107.6516
 30
0.0
 70
    32
  0
VERTEX
  5
BEA
  8
0
 62
     2
 10
342.77319999999997
 20
107.4636
 30
0.0
 70
    32
  0
VERTEX
  5
BEB
  8
0
 62
     2
 10
343.6968
 20
107.2424
 30
0.0
 70
    32
  0
VERTEX
  5
BEC
  8
0
 62
     2
 10
344.61360000000002
 20
106.9868
 30
0.0
 70
    32
  0
VERTEX
  5
BED
  8
0
 62
     2
 10
345.5224
 20
106.6948
 30
0.0
 70
    32
  0
VERTEX
  5
BEE
  8
0
 62
     2
 10
346.42320000000001
 20
106.3648
 30
0.0
 70
    32
  0
VERTEX
  5
BEF
  8
0
 62
     2
 10
347.31479999999999
 20
105.9956
 30
0.0
 70
    32
  0
VERTEX
  5
BF0
  8
0
 62
     2
 10
348.1968
 20
105.5852
 30
0.0
 70
    32
  0
VERTEX
  5
BF1
  8
0
 62
     2
 10
349.0684
 20
105.1324
 30
0.0
 70
    32
  0
VERTEX
  5
BF2
  8
0
 62
     2
 10
349.92919999999998
 20
104.6356
 30
0.0
 70
    32
  0
VERTEX
  5
BF3
  8
0
 62
     2
 10
350.77800000000002
 20
104.0928
 30
0.0
 70
    32
  0
VERTEX
  5
BF4
  8
0
 62
     2
 10
351.61520000000002
 20
103.50279999999999
 30
0.0
 70
    32
  0
VERTEX
  5
BF5
  8
0
 62
     2
 10
352.43920000000003
 20
102.864
 30
0.0
 70
    32
  0
VERTEX
  5
BF6
  8
0
 62
     2
 10
353.24959999999999
 20
102.1748
 30
0.0
 70
    32
  0
VERTEX
  5
BF7
  8
0
 62
     2
 10
354.04599999999999
 20
101.4336
 30
0.0
 70
    32
  0
VERTEX
  5
BF8
  8
0
 62
     2
 10
354.8272
 20
100.6388
 30
0.0
 70
    32
  0
VERTEX
  5
BF9
  8
0
 62
     2
 10
355.59320000000002
 20
99.788399999999996
 30
0.0
 70
    32
  0
VERTEX
  5
BFA
  8
0
 62
     2
 10
356.34320000000002
 20
98.881600000000006
 30
0.0
 70
    32
  0
VERTEX
  5
BFB
  8
0
 62
     2
 10
357.07639999999998
 20
97.91640000000001
 30
0.0
 70
    32
  0
VERTEX
  5
BFC
  8
0
 62
     2
 10
357.79199999999997
 20
96.891199999999998
 30
0.0
 70
    32
  0
VERTEX
  5
BFD
  8
0
 62
     2
 10
358.4896
 20
95.804400000000015
 30
0.0
 70
    32
  0
VERTEX
  5
BFE
  8
0
 62
     2
 10
359.16879999999998
 20
94.654799999999994
 30
0.0
 70
    32
  0
VERTEX
  5
BFF
  8
0
 62
     2
 10
359.82839999999999
 20
93.439999999999984
 30
0.0
 70
    32
  0
VERTEX
  5
C00
  8
0
 62
     2
 10
360.46800000000002
 20
92.159199999999998
 30
0.0
 70
    32
  0
VERTEX
  5
C01
  8
0
 62
     2
 10
361.08679999999998
 20
90.8108
 30
0.0
 70
    32
  0
VERTEX
  5
C02
  8
0
 62
     2
 10
361.68439999999998
 20
89.392799999999994
 30
0.0
 70
    32
  0
VERTEX
  5
C03
  8
0
 62
     2
 10
362.2604
 20
87.903599999999983
 30
0.0
 70
    32
  0
VERTEX
  5
C04
  8
0
 62
     2
 10
362.81360000000001
 20
86.342799999999997
 30
0.0
 70
    32
  0
VERTEX
  5
C05
  8
0
 62
     2
 10
363.34399999999999
 20
84.712800000000001
 30
0.0
 70
    32
  0
VERTEX
  5
C06
  8
0
 62
     2
 10
363.85120000000001
 20
83.0184
 30
0.0
 70
    32
  0
VERTEX
  5
C07
  8
0
 62
     2
 10
364.33479999999997
 20
81.264399999999995
 30
0.0
 70
    32
  0
VERTEX
  5
C08
  8
0
 62
     2
 10
364.79520000000002
 20
79.454400000000007
 30
0.0
 70
    32
  0
VERTEX
  5
C09
  8
0
 62
     2
 10
365.2312
 20
77.593999999999994
 30
0.0
 70
    32
  0
VERTEX
  5
C0A
  8
0
 62
     2
 10
365.64359999999999
 20
75.686800000000005
 30
0.0
 70
    32
  0
VERTEX
  5
C0B
  8
0
 62
     2
 10
366.03120000000001
 20
73.7376
 30
0.0
 70
    32
  0
VERTEX
  5
C0C
  8
0
 62
     2
 10
366.39440000000002
 20
71.751199999999983
 30
0.0
 70
    32
  0
VERTEX
  5
C0D
  8
0
 62
     2
 10
366.7328
 20
69.731999999999999
 30
0.0
 70
    32
  0
VERTEX
  5
C0E
  8
0
 62
     2
 10
367.04559999999998
 20
67.683999999999983
 30
0.0
 70
    32
  0
VERTEX
  5
C0F
  8
0
 62
     2
 10
367.33359999999999
 20
65.612399999999994
 30
0.0
 70
    32
  0
VERTEX
  5
C10
  8
0
 62
     2
 10
367.59559999999999
 20
63.5212
 30
0.0
 70
    32
  0
VERTEX
  5
C11
  8
0
 62
     2
 10
367.83199999999999
 20
61.415199999999992
 30
0.0
 70
    32
  0
VERTEX
  5
C12
  8
0
 62
     2
 10
368.04199999999997
 20
59.2988
 30
0.0
 70
    32
  0
VERTEX
  5
C13
  8
0
 62
     2
 10
368.226
 20
57.1768
 30
0.0
 70
    32
  0
VERTEX
  5
C14
  8
0
 62
     2
 10
368.38319999999999
 20
55.052799999999991
 30
0.0
 70
    32
  0
VERTEX
  5
C15
  8
0
 62
     2
 10
368.51319999999998
 20
52.932400000000001
 30
0.0
 70
    32
  0
VERTEX
  5
C16
  8
0
 62
     2
 10
368.6164
 20
50.819200000000002
 30
0.0
 70
    32
  0
VERTEX
  5
C17
  8
0
 62
     2
 10
368.69240000000002
 20
48.718400000000003
 30
0.0
 70
    32
  0
VERTEX
  5
C18
  8
0
 62
     2
 10
368.74040000000002
 20
46.634399999999999
 30
0.0
 70
    32
  0
VERTEX
  5
C19
  8
0
 62
     2
 10
368.76080000000002
 20
44.57119999999999
 30
0.0
 70
    32
  0
VERTEX
  5
C1A
  8
0
 62
     2
 10
368.75319999999999
 20
42.533599999999993
 30
0.0
 70
    32
  0
VERTEX
  5
C1B
  8
0
 62
     2
 10
368.71679999999998
 20
40.526400000000002
 30
0.0
 70
    32
  0
VERTEX
  5
C1C
  8
0
 62
     2
 10
368.6524
 20
38.553559999999997
 30
0.0
 70
    32
  0
VERTEX
  5
C1D
  8
0
 62
     2
 10
368.55880000000002
 20
36.619959999999999
 30
0.0
 70
    32
  0
VERTEX
  5
C1E
  8
0
 62
     2
 10
368.43599999999998
 20
34.729999999999997
 30
0.0
 70
    32
  0
VERTEX
  5
C1F
  8
0
 62
     2
 10
368.28399999999999
 20
32.888199999999998
 30
0.0
 70
    32
  0
VERTEX
  5
C20
  8
0
 62
     2
 10
368.10239999999999
 20
31.099039999999999
 30
0.0
 70
    32
  0
VERTEX
  5
C21
  8
0
 62
     2
 10
367.89080000000001
 20
29.367000000000001
 30
0.0
 70
    32
  0
VERTEX
  5
C22
  8
0
 62
     2
 10
367.64920000000001
 20
27.696640000000009
 30
0.0
 70
    32
  0
VERTEX
  5
C23
  8
0
 62
     2
 10
367.37720000000002
 20
26.09244
 30
0.0
 70
    32
  0
VERTEX
  5
C24
  8
0
 62
     2
 10
367.07479999999998
 20
24.558879999999998
 30
0.0
 70
    32
  0
VERTEX
  5
C25
  8
0
 62
     2
 10
366.74160000000001
 20
23.100519999999999
 30
0.0
 70
    32
  0
VERTEX
  5
C26
  8
0
 62
     2
 10
366.37720000000002
 20
21.721800000000002
 30
0.0
 70
    32
  0
VERTEX
  5
C27
  8
0
 62
     2
 10
365.98200000000003
 20
20.42548
 30
0.0
 70
    32
  0
VERTEX
  5
C28
  8
0
 62
     2
 10
365.55759999999998
 20
19.209599999999998
 30
0.0
 70
    32
  0
VERTEX
  5
C29
  8
0
 62
     2
 10
365.10640000000001
 20
18.071439999999999
 30
0.0
 70
    32
  0
VERTEX
  5
C2A
  8
0
 62
     2
 10
364.63040000000001
 20
17.00836
 30
0.0
 70
    32
  0
VERTEX
  5
C2B
  8
0
 62
     2
 10
364.13159999999999
 20
16.017679999999999
 30
0.0
 70
    32
  0
VERTEX
  5
C2C
  8
0
 62
     2
 10
363.61200000000002
 20
15.0966
 30
0.0
 70
    32
  0
VERTEX
  5
C2D
  8
0
 62
     2
 10
363.0736
 20
14.242520000000001
 30
0.0
 70
    32
  0
VERTEX
  5
C2E
  8
0
 62
     2
 10
362.51839999999999
 20
13.452719999999999
 30
0.0
 70
    32
  0
VERTEX
  5
C2F
  8
0
 62
     2
 10
361.94880000000001
 20
12.72448
 30
0.0
 70
    32
  0
VERTEX
  5
C30
  8
0
 62
     2
 10
361.3664
 20
12.055160000000001
 30
0.0
 70
    32
  0
VERTEX
  5
C31
  8
0
 62
     2
 10
360.77319999999997
 20
11.44196
 30
0.0
 70
    32
  0
VERTEX
  5
C32
  8
0
 62
     2
 10
360.17160000000001
 20
10.88232
 30
0.0
 70
    32
  0
VERTEX
  5
C33
  8
0
 62
     2
 10
359.56360000000001
 20
10.37344
 30
0.0
 70
    32
  0
VERTEX
  5
C34
  8
0
 62
     2
 10
358.95080000000002
 20
9.9126399999999997
 30
0.0
 70
    32
  0
VERTEX
  5
C35
  8
0
 62
     2
 10
358.33600000000001
 20
9.4972799999999982
 30
0.0
 70
    32
  0
VERTEX
  5
C36
  8
0
 62
     2
 10
357.72039999999998
 20
9.1245999999999992
 30
0.0
 70
    32
  0
VERTEX
  5
C37
  8
0
 62
     2
 10
357.10680000000002
 20
8.7919600000000013
 30
0.0
 70
    32
  0
VERTEX
  5
C38
  8
0
 62
     2
 10
356.49680000000001
 20
8.4966000000000008
 30
0.0
 70
    32
  0
VERTEX
  5
C39
  8
0
 62
     2
 10
355.89240000000001
 20
8.2358799999999999
 30
0.0
 70
    32
  0
VERTEX
  5
C3A
  8
0
 62
     2
 10
355.29559999999998
 20
8.0071200000000005
 30
0.0
 70
    32
  0
VERTEX
  5
C3B
  8
0
 62
     2
 10
354.70920000000001
 20
7.8075199999999993
 30
0.0
 70
    32
  0
VERTEX
  5
C3C
  8
0
 62
     2
 10
354.13440000000003
 20
7.6345199999999993
 30
0.0
 70
    32
  0
VERTEX
  5
C3D
  8
0
 62
     2
 10
353.57319999999999
 20
7.4853199999999989
 30
0.0
 70
    32
  0
VERTEX
  5
C3E
  8
0
 62
     2
 10
353.02839999999998
 20
7.3572800000000003
 30
0.0
 70
    32
  0
VERTEX
  5
C3F
  8
0
 62
     2
 10
352.50119999999998
 20
7.247679999999999
 30
0.0
 70
    32
  0
VERTEX
  5
C40
  8
0
 62
     2
 10
351.99439999999998
 20
7.1538000000000004
 30
0.0
 70
    32
  0
VERTEX
  5
C41
  8
0
 62
     2
 10
351.50920000000002
 20
7.0730000000000004
 30
0.0
 70
    32
  0
VERTEX
  5
C42
  8
0
 62
     2
 10
351.04840000000002
 20
7.0025599999999999
 30
0.0
 70
    32
  0
VERTEX
  5
C43
  8
0
 62
     2
 10
350.61399999999998
 20
6.9397999999999991
 30
0.0
 70
    32
  0
VERTEX
  5
C44
  8
0
 62
     2
 10
350.2072
 20
6.8819999999999988
 30
0.0
 70
    32
  0
VERTEX
  5
C45
  8
0
 62
     2
 10
349.83120000000002
 20
6.8264800000000001
 30
0.0
 70
    32
  0
VERTEX
  5
C46
  8
0
 62
     2
 10
349.48719999999997
 20
6.7705199999999994
 30
0.0
 70
    32
  0
VERTEX
  5
C47
  8
0
 62
     2
 10
349.17759999999998
 20
6.7114399999999987
 30
0.0
 70
    32
  0
VERTEX
  5
C48
  8
0
 62
     2
 10
348.90440000000001
 20
6.64656
 30
0.0
 70
    32
  0
VERTEX
  5
C49
  8
0
 62
     2
 10
348.6696
 20
6.573199999999999
 30
0.0
 70
    32
  0
VERTEX
  5
C4A
  8
0
 62
     2
 10
348.4744
 20
6.4901200000000001
 30
0.0
 70
    32
  0
VERTEX
  5
C4B
  8
0
 62
     2
 10
348.31959999999998
 20
6.3976800000000003
 30
0.0
 70
    32
  0
VERTEX
  5
C4C
  8
0
 62
     2
 10
348.20600000000002
 20
6.2964000000000002
 30
0.0
 70
    32
  0
VERTEX
  5
C4D
  8
0
 62
     2
 10
348.1336
 20
6.1867599999999987
 30
0.0
 70
    32
  0
VERTEX
  5
C4E
  8
0
 62
     2
 10
348.10359999999997
 20
6.06928
 30
0.0
 70
    32
  0
VERTEX
  5
C4F
  8
0
 62
     2
 10
348.1164
 20
5.9444400000000002
 30
0.0
 70
    32
  0
VERTEX
  5
C50
  8
0
 62
     2
 10
348.1728
 20
5.8127199999999988
 30
0.0
 70
    32
  0
VERTEX
  5
C51
  8
0
 62
     2
 10
348.27280000000002
 20
5.6746400000000001
 30
0.0
 70
    32
  0
VERTEX
  5
C52
  8
0
 62
     2
 10
348.41719999999998
 20
5.5306800000000003
 30
0.0
 70
    32
  0
VERTEX
  5
C53
  8
0
 62
     2
 10
348.60680000000002
 20
5.381359999999999
 30
0.0
 70
    32
  0
VERTEX
  5
C54
  8
0
 62
     2
 10
348.8424
 20
5.2271599999999987
 30
0.0
 70
    32
  0
VERTEX
  5
C55
  8
0
 62
     2
 10
349.12400000000002
 20
5.0685599999999988
 30
0.0
 70
    32
  0
VERTEX
  5
C56
  8
0
 62
     2
 10
349.45240000000001
 20
4.9060800000000002
 30
0.0
 70
    32
  0
VERTEX
  5
C57
  8
0
 62
     2
 10
349.82799999999997
 20
4.7401999999999989
 30
0.0
 70
    32
  0
VERTEX
  5
C58
  8
0
 62
     2
 10
350.25200000000001
 20
4.5713999999999988
 30
0.0
 70
    32
  0
VERTEX
  5
C59
  8
0
 62
     2
 10
350.7244
 20
4.4002400000000002
 30
0.0
 70
    32
  0
VERTEX
  5
C5A
  8
0
 62
     2
 10
351.24599999999998
 20
4.2271199999999993
 30
0.0
 70
    32
  0
VERTEX
  5
C5B
  8
0
 62
     2
 10
351.81760000000003
 20
4.0526400000000002
 30
0.0
 70
    32
  0
VERTEX
  5
C5C
  8
0
 62
     2
 10
352.43959999999998
 20
3.877224
 30
0.0
 70
    32
  0
VERTEX
  5
C5D
  8
0
 62
     2
 10
353.11239999999998
 20
3.7013879999999988
 30
0.0
 70
    32
  0
VERTEX
  5
C5E
  8
0
 62
     2
 10
353.83679999999998
 20
3.525631999999999
 30
0.0
 70
    32
  0
VERTEX
  5
C5F
  8
0
 62
     2
 10
354.61320000000001
 20
3.350444
 30
0.0
 70
    32
  0
VERTEX
  5
C60
  8
0
 62
     2
 10
355.44240000000002
 20
3.1763240000000001
 30
0.0
 70
    32
  0
VERTEX
  5
C61
  8
0
 62
     2
 10
356.32479999999998
 20
3.003763999999999
 30
0.0
 70
    32
  0
VERTEX
  5
C62
  8
0
 62
     2
 10
357.26119999999997
 20
2.8332639999999989
 30
0.0
 70
    32
  0
VERTEX
  5
C63
  8
0
 62
     2
 10
358.25200000000001
 20
2.665319999999999
 30
0.0
 70
    32
  0
VERTEX
  5
C64
  8
0
 62
     2
 10
359.29759999999999
 20
2.5004240000000002
 30
0.0
 70
    32
  0
VERTEX
  5
C65
  8
0
 62
     2
 10
360.39920000000001
 20
2.3390719999999998
 30
0.0
 70
    32
  0
VERTEX
  5
C66
  8
0
 62
     2
 10
361.55680000000001
 20
2.1817639999999989
 30
0.0
 70
    32
  0
VERTEX
  5
C67
  8
0
 62
     2
 10
362.77159999999998
 20
2.0289919999999988
 30
0.0
 70
    32
  0
VERTEX
  5
C68
  8
0
 62
     2
 10
364.04320000000001
 20
1.8812519999999999
 30
0.0
 70
    32
  0
VERTEX
  5
C69
  8
0
 62
     2
 10
365.3732
 20
1.7390399999999999
 30
0.0
 70
    32
  0
VERTEX
  5
C6A
  8
0
 62
     2
 10
366.76159999999999
 20
1.6028519999999991
 30
0.0
 70
    32
  0
VERTEX
  5
C6B
  8
0
 62
     2
 10
368.20920000000001
 20
1.473179999999999
 30
0.0
 70
    32
  0
VERTEX
  5
C6C
  8
0
 62
     2
 10
369.71640000000002
 20
1.350484
 30
0.0
 70
    32
  0
VERTEX
  5
C6D
  8
0
 62
     2
 10
371.2792
 20
1.234796
 30
0.0
 70
    32
  0
VERTEX
  5
C6E
  8
0
 62
     2
 10
372.89280000000002
 20
1.125907999999999
 30
0.0
 70
    32
  0
VERTEX
  5
C6F
  8
0
 62
     2
 10
374.55079999999998
 20
1.0236199999999991
 30
0.0
 70
    32
  0
VERTEX
  5
C70
  8
0
 62
     2
 10
376.24880000000002
 20
0.92772
 30
0.0
 70
    32
  0
VERTEX
  5
C71
  8
0
 62
     2
 10
377.98039999999997
 20
0.8380040000000001
 30
0.0
 70
    32
  0
VERTEX
  5
C72
  8
0
 62
     2
 10
379.74040000000002
 20
0.7542720000000001
 30
0.0
 70
    32
  0
VERTEX
  5
C73
  8
0
 62
     2
 10
381.52359999999999
 20
0.6763080000000001
 30
0.0
 70
    32
  0
VERTEX
  5
C74
  8
0
 62
     2
 10
383.32400000000001
 20
0.6039120000000001
 30
0.0
 70
    32
  0
VERTEX
  5
C75
  8
0
 62
     2
 10
385.13600000000002
 20
0.536876
 30
0.0
 70
    32
  0
VERTEX
  5
C76
  8
0
 62
     2
 10
386.95479999999998
 20
0.4749920000000001
 30
0.0
 70
    32
  0
VERTEX
  5
C77
  8
0
 62
     2
 10
388.774
 20
0.4180560000000001
 30
0.0
 70
    32
  0
VERTEX
  5
C78
  8
0
 62
     2
 10
390.58879999999999
 20
0.3658652
 30
0.0
 70
    32
  0
VERTEX
  5
C79
  8
0
 62
     2
 10
392.39319999999998
 20
0.3182076
 30
0.0
 70
    32
  0
VERTEX
  5
C7A
  8
0
 62
     2
 10
394.18200000000002
 20
0.27488
 30
0.0
 70
    32
  0
VERTEX
  5
C7B
  8
0
 62
     2
 10
395.94999999999999
 20
0.2356752
 30
0.0
 70
    32
  0
VERTEX
  5
C7C
  8
0
 62
     2
 10
397.69080000000002
 20
0.2003872
 30
0.0
 70
    32
  0
VERTEX
  5
C7D
  8
0
 62
     2
 10
399.39960000000002
 20
0.1688104
 30
0.0
 70
    32
  0
VERTEX
  5
C7E
  8
0
 62
     2
 10
401.07199999999989
 20
0.1407384
 30
0.0
 70
    32
  0
VERTEX
  5
C7F
  8
0
 62
     2
 10
402.69999999999999
 20
0.1159648
 30
0.0
 70
    32
  0
VERTEX
  5
C80
  8
0
 62
     2
 10
404.27600000000001
 20
0.0942836
 30
0.0
 70
    32
  0
VERTEX
  5
C81
  8
0
 62
     2
 10
405.7999999999999
 20
0.0754888
 30
0.0
 70
    32
  0
VERTEX
  5
C82
  8
0
 62
     2
 10
407.26799999999997
 20
0.059374
 30
0.0
 70
    32
  0
VERTEX
  5
C83
  8
0
 62
     2
 10
408.66399999999999
 20
0.0457332
 30
0.0
 70
    32
  0
VERTEX
  5
C84
  8
0
 62
     2
 10
409.99599999999998
 20
0.03435996
 30
0.0
 70
    32
  0
VERTEX
  5
C85
  8
0
 62
     2
 10
411.24799999999999
 20
0.02504844
 30
0.0
 70
    32
  0
VERTEX
  5
C86
  8
0
 62
     2
 10
412.41599999999988
 20
0.01759232
 30
0.0
 70
    32
  0
VERTEX
  5
C87
  8
0
 62
     2
 10
413.49999999999989
 20
0.01178548
 30
0.0
 70
    32
  0
VERTEX
  5
C88
  8
0
 62
     2
 10
414.4919999999999
 20
0.00742176
 30
0.0
 70
    32
  0
VERTEX
  5
C89
  8
0
 62
     2
 10
415.38400000000001
 20
0.004295
 30
0.0
 70
    32
  0
VERTEX
  5
C8A
  8
0
 62
     2
 10
416.17199999999991
 20
0.00219904
 30
0.0
 70
    32
  0
VERTEX
  5
C8B
  8
0
 62
     2
 10
416.84800000000001
 20
0.00092772
 30
0.0
 70
    32
  0
VERTEX
  5
C8C
  8
0
 62
     2
 10
417.41199999999998
 20
0.00027488
 30
0.0
 70
    32
  0
VERTEX
  5
C8D
  8
0
 62
     2
 10
417.85599999999999
 20
0.00003435996
 30
0.0
 70
    32
  0
VERTEX
  5
C8E
  8
0
 62
     2
 10
418.17199999999991
 20
-0.0000000000000064
 30
0.0
 70
    32
  0
SEQEND
  5
C8F
  8
0
 62
     2
  0
ENDSEC
  0
EOF
